<svg version="1.1" xmlns="http://www.w3.org/2000/svg" xmlns:xlink="http://www.w3.org/1999/xlink" width="502" height="391.33258" viewBox="0,0,502,391.33258"><g transform="translate(11,12)"><g data-paper-data="{&quot;isPaintingLayer&quot;:true}" fill-rule="nonzero" stroke-linejoin="miter" stroke-miterlimit="10" stroke-dasharray="" stroke-dashoffset="0" style="mix-blend-mode: normal"><path d="M-11,372v-384h502v384z" fill="#ded5f2" stroke="none" stroke-width="0" stroke-linecap="butt"/><path d="M329.5497,116.8833c0,0 -3.03096,3.7049 -5.48073,3.35366c-0.79231,-0.11361 -3.15687,2.24589 -4.52907,1.97633c-1.02778,-0.20191 -0.99766,5.56394 -0.99766,5.56394c0,0 -7.61355,1.44778 -9.27893,1.05595c-0.68481,-0.16112 -9.33971,-4.87513 -10.58819,-5.11362c-1.86341,-0.35594 -3.23316,0.44092 -5.8028,0.89733c-3.10937,0.55229 -7.28533,0.82775 -7.28533,0.82775c0,0 -4.69802,-0.92872 -7.77011,-3.03892c-1.90086,-1.3057 -4.32574,-3.28382 -5.65805,-3.73422c-1.18225,-0.39966 -5.14784,-0.84964 -6.27452,-1.19459c-2.71604,-0.83158 -5.0468,-4.67449 -5.0468,-4.67449c0,0 1.67784,-7.33317 1.2174,-7.48191c-1.15428,-0.37287 -2.91581,-0.87103 -3.73739,-1.10876c-2.56555,-0.74237 -3.92205,-5.96219 -3.92205,-5.96219c0,0 1.47031,-0.31724 3.27813,-3.58196c2.77363,-5.00886 7.45139,-20.62736 7.45139,-20.62736l64.27778,16.90332c0,0 -2.17006,15.23544 -1.62105,20.54375c0.40482,3.91419 1.76799,5.39602 1.76799,5.39602z" data-paper-data="{&quot;index&quot;:null}" fill="#14161a" stroke="#14161a" stroke-width="4" stroke-linecap="butt"/><g data-paper-data="{&quot;index&quot;:null}"><path d="M146.92244,293.84121c4.7753,-2.88368 7.67862,-10.56149 7.67862,-10.56149l9.68909,-7.17124l15.83709,14.24428c0,0 -2.92246,11.65973 -3.95684,15.20104c-0.5404,1.85012 -5.71001,19.15307 -5.71001,19.15307c0,0 -0.18477,0.91278 -2.09734,-0.12767c-0.5754,-0.31303 0.06762,0.57034 -1.79314,1.02077c-2.35754,0.57069 -3.48201,4.66807 -5.78277,3.31669c-10.42857,-6.12531 -20.43095,-16.71545 -20.43095,-16.71545c0,0 -0.95047,-0.3032 -0.40229,-4.34701c0.56627,-4.17723 4.08906,-12.27413 6.96853,-14.01296z" fill="#403328" stroke="#292018" stroke-width="4" stroke-linecap="butt"/><path d="M162.8333,324.31402c-0.88359,2.74635 -2.15871,0.49284 -2.15871,0.49284c0,0 -5.28106,-2.99668 -8.26165,-5.44758c-3.39699,-2.79329 -9.82346,-9.21161 -9.82346,-9.21161l-0.12077,-3.36941l7.30544,3.41849c0,0 13.94274,11.37091 13.05915,14.11726z" fill="#775f4a" stroke="none" stroke-width="0" stroke-linecap="butt"/><path d="M146.6611,296.65394c0,0 6.35819,2.6735 9.36024,5.09243c3.31945,2.67469 7.2036,7.45677 7.2036,7.45677" fill="none" stroke="#292018" stroke-width="4" stroke-linecap="round"/><path d="M160.03162,287.53749l12.8024,-0.00483l-5.41693,9.37658c0,0 -6.1894,-2.98745 -8.55258,-5.2295c-1.94959,-1.84966 -4.62589,-7.27351 -4.62589,-7.27351" fill="none" stroke="#292018" stroke-width="4" stroke-linecap="round"/><path d="M158.21324,287.59425l3.4792,-7.70551l5.77035,15.01346" fill="none" stroke="#292018" stroke-width="4" stroke-linecap="round"/></g><path d="M257.16406,206.7123c0,0 -13.37168,-1.58929 -28.45488,-11.632c-16.18604,-10.77701 -20.08335,-23.86354 -20.08335,-23.86354l22.52593,-21.78643c0,0 13.87144,-20.95027 14.11325,-24.35414c0.04996,-0.70332 -4.25931,-11.3885 -4.25931,-11.3885c0,0 1.71385,-7.70231 12.6746,-4.69116c11.27993,3.09883 20.91914,5.36003 27.65025,10.08238c6.15856,4.32066 11.29685,15.51978 17.17246,22.18697c2.88671,3.27563 7.42304,9.70119 6.69694,15.2228c-0.3138,2.38625 -3.57984,-3.63674 -7.26876,-4.95072c-4.84695,-1.72648 -10.42966,0.67966 -11.06196,1.00691c-3.5605,1.84264 -17.36412,25.4037 -17.36412,25.4037z" data-paper-data="{&quot;index&quot;:null}" fill="#95d2a1" stroke="#67916f" stroke-width="4" stroke-linecap="butt"/><path d="M247.93552,138.2914c1.43576,-2.04649 5.98548,-11.9996 7.54353,-15.66161c0.32495,-0.76378 -3.97214,-1.17915 -5.1775,-2.78861c-1.09548,-1.46273 0.87236,-4.07197 1.44052,-5.76198c0.78663,-2.33984 6.87346,-0.69053 7.86571,-0.51781c5.26167,0.91586 15.53107,6.23834 20.18978,9.50674c4.52256,3.17289 13.05357,12.05803 15.43273,15.2362c2.37916,3.17816 3.8134,7.36848 2.58656,8.83464c-0.62657,0.74878 -1.90897,3.41224 -3.26907,3.12037c-1.56822,-0.33652 -3.24075,-3.67154 -4.14761,-3.16346c-2.47704,1.38783 -11.8874,8.51621 -13.32623,10.56707c-1.33456,1.90225 -5.50971,5.99575 -6.89177,8.71779c-4.7862,9.42678 -6.85861,20.05658 -10.44461,20.50451c-4.62148,0.57727 -14.29915,-6.52347 -17.03244,-8.48054c-3.36992,-2.41289 -15.49886,-9.10292 -17.31181,-13.67695c-0.73811,-1.86223 10.23275,-10.31075 17.13783,-17.74407c2.00719,-2.16073 4.72221,-7.71999 5.40437,-8.69233z" data-paper-data="{&quot;index&quot;:null}" fill="#a6eab4" stroke="none" stroke-width="0" stroke-linecap="butt"/><g data-paper-data="{&quot;index&quot;:null}" stroke-linecap="butt"><path d="M255.80603,119.1337l1.52972,-4.35405c0,0 14.13095,2.67484 22.51878,5.52967c8.38782,2.85483 18.61282,7.81929 18.61282,7.81929l-1.59393,7.12919z" fill="#292018" stroke="#292018" stroke-width="4"/><g><path d="M291.43053,134.42104c0,0 -13.49433,3.77269 -20.30015,1.4704c-7.02881,-2.37774 -8.46173,-10.77866 -8.46173,-10.77866l4.00406,-10.38412l26.01501,8.92788z" fill="#d9bb9a" stroke="#917c67" stroke-width="4"/><path d="M273.03159,124.17881c2.12266,0.74576 3.80259,1.46659 3.46466,2.42847c-0.33794,0.96187 -2.56576,1.80054 -4.68842,1.05478c-2.12266,-0.74576 -3.33638,-2.79354 -2.99844,-3.75541c0.33794,-0.96187 2.09954,-0.47359 4.22221,0.27217z" fill="#ffdbb5" stroke="none" stroke-width="0"/></g></g><g data-paper-data="{&quot;index&quot;:null}"><path d="M187.28978,340.18387c-1.0723,-2.23962 0.02563,-4.1325 -1.20649,-6.60746c-0.692,-1.39001 -2.53006,-1.43331 -3.6597,-2.70465c-1.17066,-1.31753 -1.62452,-3.84559 -1.8111,-4.25874c-1.00758,-2.23107 8.66464,-5.52976 8.66464,-5.52976c0,0 7.37258,-1.65244 8.64819,-2.2984c2.44164,-1.23643 10.06146,-5.60363 10.06146,-5.60363l13.44336,17.42033l-5.14355,13.07835c0,0 -1.57384,4.64248 0.16759,7.68852c2.30312,4.0285 5.47761,12.12646 4.63868,15.32118c-1.74834,6.65788 -1.21672,7.75239 -2.88327,7.81127c0,0 -2.62301,1.42219 -4.23226,1.87294c-1.62141,0.45416 -5.45996,0.84184 -5.45996,0.84184c0,0 -16.77297,-27.72785 -21.22758,-37.03179z" fill="#403328" stroke="#292018" stroke-width="4" stroke-linecap="butt"/><path d="M210.80733,370.56344l2.10891,3.61355l-2.87293,0.67595c0,0 -2.84083,-4.72598 -5.31835,-8.6818c-2.17382,-3.47093 -17.59263,-28.09677 -15.52583,-27.47638c0.24471,0.07345 0.95647,-3.85033 -0.66387,-6.79391c-0.86049,-1.56321 -2.7905,-2.05423 -4.02526,-2.91153c-1.07831,-0.74867 -1.53018,-1.96485 -1.53018,-1.96485c0,0 2.57467,-2.75655 3.65242,-1.39438c1.95189,2.467 6.12148,12.41898 11.18715,21.73556c5.85675,10.77148 12.98792,23.19782 12.98792,23.19782z" fill="#775f4a" stroke="none" stroke-width="0" stroke-linecap="butt"/><path d="M215.70395,343.44009c0,0 -4.29747,-3.09317 -5.89877,-5.36169c-1.94101,-2.74976 -1.66835,-4.15504 -1.66835,-4.15504l6.11426,-6.40848l1.50054,13.66637" fill="none" stroke="#292018" stroke-width="4" stroke-linecap="round"/><path d="M218.77424,334.46331l-9.27767,-0.27191" fill="none" stroke="#292018" stroke-width="4" stroke-linecap="round"/></g><g data-paper-data="{&quot;index&quot;:null}" stroke-linecap="butt"><g fill="#465b9c"><path d="M233.77181,283.04571c0,0 -8.39005,0.26995 -12.26784,-1.10617c-4.05676,-1.43964 -11.87691,-7.99333 -11.87691,-7.99333c0,0 1.90069,-11.09018 3.44962,-18.27545c1.472,-6.82841 9.27246,-27.89107 9.27246,-27.89107l25.38713,7.81877c0,0 -3.95576,15.84282 -5.19636,21.97142c-1.49085,7.36497 -8.7681,25.47586 -8.7681,25.47586z" stroke="#2e3c67" stroke-width="4"/><path d="M227.01187,231.34857l1.10602,-3.57912l18.81517,5.83163l-1.10601,3.57912z" stroke="none" stroke-width="0"/></g><path d="M236.30284,264.18298c-1.20164,3.42025 -2.22795,6.08202 -3.13939,8.13907c-1.24858,2.81794 -1.14374,6.22449 -2.11668,7.16809c-1.61382,1.56516 -3.95729,1.57543 -5.94995,0.87535c-1.35648,-0.47657 -3.68525,-2.2446 -4.20507,-5.23436c-1.04024,-5.9829 0.80187,-18.52003 3.58766,-29.39751c4.6887,-18.30775 6.63358,-29.01044 17.48163,-25.36109c4.69177,1.57835 3.08918,11.28846 0.09725,22.5347c-1.27257,4.78345 -4.09083,16.53776 -5.75544,21.27576z" fill="#5671c0" stroke="none" stroke-width="0"/></g><g data-paper-data="{&quot;index&quot;:null}" stroke-linecap="butt"><g fill="#465b9c"><path d="M221.18135,331.66902c0,0 -10.07085,-0.56638 -14.16517,-2.01859c-4.28329,-1.51923 -13.56744,-6.26142 -13.56744,-6.26142l2.08974,-3.47948l-0.86966,-2.17073l0.98034,-3.2036c0,0 2.32057,-11.03387 2.91462,-13.8853c1.42598,-6.84458 10.93045,-28.76459 10.93045,-28.76459l25.09987,9.17384c0,0 -5.0719,17.96563 -6.26718,24.11015c-0.7274,3.73929 -5.34304,18.22443 -5.34304,18.22443l0.04766,3.17734l-2.03012,1.36774l0.17991,3.73022z" stroke="#2e3c67" stroke-width="4"/><path d="M215.03128,277.21738c0,0 -4.98941,-1.75741 -5.06965,-2.15754c-0.20764,-1.03543 1.05476,-5.20619 1.05476,-5.20619l21.77627,8.33395l-1.31677,4.20304z" stroke="none" stroke-width="0"/></g><path d="M225.20442,297.80174c-2.49931,8.18096 -3.61835,20.99491 -5.90043,21.35455c-0.71634,0.1129 0.59443,2.95344 -0.79014,3.82419c-1.38457,0.87075 -3.1141,0.70363 -5.74709,0.28706c-2.50364,-0.3961 -5.24929,-2.12103 -6.2189,-3.11452c-2.4945,-2.55599 1.75769,-7.06928 2.56714,-9.71885c1.43573,-4.69955 7.97575,-21.71553 10.73687,-36.24624c0.57262,-3.01349 3.50796,1.16042 7.08597,1.47584c2.30904,0.88817 4.64425,0.09499 4.22878,3.64544c-0.47297,4.04178 -4.63166,14.13736 -5.96219,18.49254z" fill="#5671c0" stroke="none" stroke-width="0"/></g><g data-paper-data="{&quot;index&quot;:null}" stroke-linecap="butt"><g fill="#465b9c" stroke="#2e3c67" stroke-width="4"><path d="M162.80331,297.58756c-4.01619,-1.3971 -12.02319,-7.21886 -12.02319,-7.21886l2.4596,-2.84835l-0.69128,-2.34965l2.0148,-2.49192c0,0 -0.48799,-14.86997 1.28767,-18.29051c2.91781,-5.62075 8.0004,-25.03703 8.0004,-25.03703l38.78975,13.34947c0,0 -11.17608,23.06481 -14.35449,29.38479c-1.32413,2.63289 -7.43132,10.58468 -7.43132,10.58468l-1.24981,3.15292l-2.01273,1.1812l-0.57842,4.0627c0,0 -10.00942,-2.01786 -14.21096,-3.47943z"/></g><path d="M171.22047,241.77187c1.89514,-3.07644 10.17609,0.5072 12.48414,1.24021c2.91588,1.97776 10.49602,2.49313 9.0547,5.24128c-6.94992,13.2513 -12.57528,28.82814 -14.41054,33.45186c-1.03471,2.60681 -3.36333,8.83657 -6.85094,9.31169c-1.35561,0.18467 -4.51657,-0.15614 -6.6661,-1.40084c-2.2606,-1.309 -3.6792,-2.25338 -4.18931,-3.80661c-0.51011,-1.55323 2.25498,-2.99134 1.78083,-3.52701c-1.51053,-1.70651 -0.63163,-13.32279 2.56318,-21.37174c1.70078,-4.2849 4.07665,-15.63666 6.23404,-19.13884z" fill="#5671c0" stroke="none" stroke-width="0"/></g><g data-paper-data="{&quot;index&quot;:null}"><g><g><path d="M219.43665,227.30248l1.74953,-4.44936l-3.20712,-0.64181l-1.85991,4.21665l-26.0971,-9.10552c0,0 3.37882,-11.94245 7.16322,-21.21019c2.03956,-4.99477 8.07764,-14.27533 8.07764,-14.27533l49.96443,17.18134c0,0 -0.82826,9.89144 -2.25026,16.53372c-1.42741,6.66765 -5.947,21.11585 -5.947,21.11585z" fill="#465b9c" stroke="#2e3c67" stroke-width="4" stroke-linecap="butt"/><path d="M216.35834,220.7675c0,0 -0.85772,-2.2936 -0.43061,-4.09148c0.79122,-3.33048 4.80254,-14.3112 4.80254,-14.3112" fill="none" stroke="#2e3c67" stroke-width="4" stroke-linecap="round"/><path d="M220.73028,202.36481l8.23033,2.89157l-1.86479,5.30781" fill="none" stroke="#2e3c67" stroke-width="4" stroke-linecap="round"/><path d="M246.24263,223.77883c0,0 -0.94011,-3.12134 -1.06657,-5.31835c-0.16954,-2.94569 0.14007,-10.7779 0.14007,-10.7779" fill="none" stroke="#2e3c67" stroke-width="4" stroke-linecap="round"/><path d="M207.26614,196.17791c0,0 -4.65713,6.30478 -6.63183,8.49713c-1.47281,1.63514 -4.1586,3.48259 -4.1586,3.48259" data-paper-data="{&quot;index&quot;:null}" fill="none" stroke="#2e3c67" stroke-width="4" stroke-linecap="round"/><path d="M222.75349,230.92514l1.98823,-8.60053l22.38701,7.62595l-2.24705,8.50959z" fill="#465b9c" stroke="none" stroke-width="0" stroke-linecap="butt"/><path d="M191.63742,220.375l2.91498,-8.43021l21.51656,7.7987l-2.45036,8.43816z" data-paper-data="{&quot;index&quot;:null}" fill="#465b9c" stroke="none" stroke-width="0" stroke-linecap="butt"/></g><g stroke="#281a0d" stroke-width="4" stroke-linecap="butt"><path d="M247.11225,201.75746c0,0 -1.7141,-3.06609 -1.26085,-4.35617c0.45325,-1.2901 3.98035,-3.38439 3.98035,-3.38439l7.51206,2.94978c0,0 0.86424,2.15544 0.6126,3.64305c-0.23287,1.37665 -1.52679,4.42119 -1.52679,4.42119z" fill="#3f2b1a"/><path d="M238.2412,199.19981c0,0 -1.7141,-3.06609 -1.26085,-4.35618c0.45325,-1.2901 3.98035,-3.38438 3.98035,-3.38438l7.93919,2.72715l-1.39958,8.45273z" fill="#67472a"/><path d="M228.7103,196.03762c0,0 -1.7141,-3.06608 -1.26086,-4.35617c0.45325,-1.29009 3.98035,-3.38438 3.98035,-3.38438l8.03619,2.94759l-1.4966,8.2323z" fill="#3f2b1a"/><path d="M218.60998,192.37528c0,0 -1.56439,-3.15789 -1.05197,-4.42542c0.51242,-1.26754 4.12645,-3.17979 4.12645,-3.17979l8.72371,3.10144l-2.731,8.42826z" fill="#67472a"/><path d="M209.25879,188.714c0,0 -1.56439,-3.15789 -1.05198,-4.42542c0.51242,-1.26753 4.12645,-3.17978 4.12645,-3.17978l8.1413,3.26951l-2.14857,8.26021z" fill="#3f2b1a"/><path d="M201.82772,185.92014c0,0 -1.05546,-2.97909 -0.55581,-4.2511c0.49964,-1.27203 3.55367,-3.38102 3.55367,-3.38102l6.38124,2.83748l-2.30012,8.02061z" fill="#67472a"/></g><path d="M246.16982,202.6648l3.98593,-9.77821l4.46177,1.69747l-2.58831,10.26923z" fill="#465b9c" stroke="#2e3c67" stroke-width="4" stroke-linecap="butt"/><g fill="#67472a" stroke="#281a0d" stroke-width="4" stroke-linecap="butt"><path d="M199.95764,188.93536c0,0 -2.7888,-2.09467 -2.91926,-3.43854c-0.13046,-1.34387 2.13643,-4.62467 2.13643,-4.62467l8.54298,-0.7085l1.88284,8.23235z"/></g><path d="M219.76112,195.68868c0,0 -0.11498,-3.6452 0.50593,-5.41253c0.70795,-2.01506 3.51503,-6.03242 3.51503,-6.03242l13.66546,4.80109c0,0 -0.38437,4.07342 -1.0496,5.96689c-0.67495,1.92111 -2.97136,5.47806 -2.97136,5.47806z" fill="none" stroke="#716b65" stroke-width="4" stroke-linecap="butt"/><path d="M203.98752,188.16113l4.40343,-9.63153l4.54303,1.46619l-3.00582,10.12255z" data-paper-data="{&quot;index&quot;:null}" fill="#465b9c" stroke="#2e3c67" stroke-width="4" stroke-linecap="butt"/></g><path d="M227.48086,232.54537c0.83143,-2.36652 6.10557,-15.55748 10.00068,-14.18901c3.89511,1.36847 7.42998,5.54203 7.40728,8.50324c-0.01907,2.48988 -1.3972,12.08725 -3.4806,11.35528c-3.89511,-1.36847 -14.75878,-3.30301 -13.92735,-5.66953z" fill="#5671c0" stroke="none" stroke-width="0" stroke-linecap="butt"/><path d="M209.37169,227.48946c-0.83142,2.36651 -10.51785,-2.91881 -14.41296,-4.28728c-2.0834,-0.73196 2.84406,-9.08234 4.38649,-11.03702c1.8344,-2.32471 7.20291,-3.37026 11.09802,-2.00179c3.89511,1.36847 -0.2401,14.95957 -1.07154,17.32609z" data-paper-data="{&quot;index&quot;:null}" fill="#5671c0" stroke="none" stroke-width="0" stroke-linecap="butt"/></g><g stroke-width="4" stroke-linecap="butt"><path d="M261.09667,218.93758c-5.5584,-2.25854 -14.86055,-12.3298 -14.86055,-12.3298c0,0 14.95998,-38.79899 20.86164,-52.34514c5.46849,-12.55191 9.0358,-18.87738 9.0358,-18.87738c0,0 8.45697,0.58034 12.24463,-2.00125c2.30371,-1.57015 2.28504,-3.65627 3.84774,-3.15027c3.69498,1.19648 4.46581,3.50048 8.66996,8.52868c4.20418,5.0282 7.77746,12.64944 8.13798,15.10625c0.3605,2.45681 -6.10893,-1.27863 -6.10893,-1.27863c0,0 -4.82684,3.38077 -9.2703,2.86628c-3.45173,-0.39965 -12.31715,14.69308 -12.31715,14.69308l-9.35198,10.62313l2.1486,33.36052c0,0 -9.2645,6.33759 -13.03743,4.80454z" fill="#403328" stroke="#292018"/><g fill="#dfbd28" stroke="#dfbd28"><path d="M277.92669,147.14813c0.58589,0.27845 0.5176,1.67186 -0.15256,3.11229c-0.67014,1.44042 -1.68837,2.38239 -2.27426,2.10395c-0.58589,-0.27845 -0.51759,-1.67187 0.15255,-3.11228c0.67016,-1.44044 1.68837,-2.38239 2.27425,-2.10395z"/><path d="M270.2238,163.21752c0.58589,0.27845 0.51759,1.67187 -0.15255,3.1123c-0.67014,1.44042 -1.68837,2.3824 -2.27425,2.10396c-0.58589,-0.27845 -0.51759,-1.67188 0.15256,-3.1123c0.67014,-1.44042 1.68837,-2.38238 2.27425,-2.10394z"/><path d="M264.20513,178.79184c0.58589,0.27845 0.51758,1.67188 -0.15256,3.11229c-0.67014,1.44042 -1.68838,2.38239 -2.27426,2.10395c-0.58589,-0.27845 -0.51758,-1.67188 0.15256,-3.11228c0.67014,-1.44042 1.68838,-2.3824 2.27426,-2.10396z"/><path d="M257.62997,196.26024c0.58589,0.27845 0.51759,1.67188 -0.15256,3.11229c-0.67014,1.44042 -1.68838,2.38239 -2.27426,2.10395c-0.58589,-0.27845 -0.51759,-1.67188 0.15256,-3.11229c0.67015,-1.44042 1.68837,-2.3824 2.27426,-2.10396z"/></g></g><path d="M283.56719,135.64536c-2.76043,0.85421 -7.97577,1.39626 -7.97577,1.39626l3.95954,-7.69309l13.8193,-2.13271l-1.82629,4.48279c0,0 -5.10178,3.0571 -7.97679,3.94675z" fill="#403328" stroke="#292018" stroke-width="4" stroke-linecap="butt"/><g stroke-linecap="butt"><g fill="none" stroke="none" stroke-width="1" font-family="sans-serif" font-weight="normal" font-size="12" text-anchor="start"/><path d="M319.94334,190.04086l-6.83735,3.48925c0,0 -7.9031,-6.71637 -10.89161,-12.45826c-2.97314,-5.71232 -12.34334,-21.15888 -12.34334,-21.15888l16.56254,-12.34599c0,0 5.87661,13.31414 8.95531,20.72393c3.14987,7.58109 4.55446,21.74997 4.55446,21.74997z" fill="#403328" stroke="#292018" stroke-width="4"/></g><g stroke-linecap="butt"><path d="M331.72493,211.94226c1.51948,4.13163 2.64714,8.54869 0.11964,9.47822c-0.83096,0.30561 -0.72109,0.22853 -1.7635,-0.10651c-1.03209,-0.33173 -0.82047,0.75308 -1.99758,0.1085c-0.46187,-0.25293 -0.48293,0.21582 -1.41134,-0.60436c-0.63952,-0.56497 -0.75531,-1.68904 -1.45874,-2.45569c-1.03952,-1.13295 -2.44379,-2.51683 -2.64134,-3.05401c-1.51948,-4.13163 -0.70233,-8.2345 1.82517,-9.16403c2.52749,-0.92953 5.80821,1.66628 7.3277,5.7979z" fill="#917c67" stroke="none" stroke-width="NaN"/><g><path d="M334.72122,208.66448c0.20858,6.06098 1.63812,12.65438 -0.92243,12.50963c-1.34713,-0.07615 -4.48884,-10.80513 -6.62376,-12.94723c-1.94171,-1.94825 -3.05198,-1.91963 -4.54189,-1.24933c-1.3925,0.62646 2.30321,7.24237 1.42119,7.57897c-0.90536,0.34549 -1.93983,4.83953 -5.25894,-2.25887c-2.64848,-5.66415 -5.6271,-15.13285 -7.13603,-17.80795c-0.56992,-1.62313 11.52194,-3.79072 12.69574,-1.72458c0.52496,1.30621 0.9655,1.02726 3.40172,5.30417c2.28337,4.00857 6.89538,8.58924 6.96441,10.5952z" fill="#d9bb9a" stroke="#917c67" stroke-width="4"/><path d="M322.79983,194.38956c3.15188,4.66435 3.43909,5.78707 5.12433,8.19484c1.68525,2.40778 4.39236,4.19104 4.75342,5.62936c0.96806,3.85643 1.14375,10.95932 -0.14955,7.95799c-1.05448,-2.4471 -2.36486,-7.46577 -4.29118,-10.04607c-0.90517,-1.21247 -2.46942,-3.07295 -4.83946,-2.8924c-0.95528,0.07276 -3.41247,3.39568 -4.76654,1.65248c-0.6873,-0.88481 -0.78129,-2.01799 -1.40033,-3.38443c-2.51261,-5.54615 -1.8696,-6.15848 -2.04781,-6.30294c-1.1955,-0.96907 5.76519,-3.54944 7.61713,-0.80881z" fill="#ffdbb5" stroke="none" stroke-width="0"/></g><path d="M323.50248,202.76571c-4.52664,0.46637 -8.43289,3.1265 -8.43289,3.1265l-4.11952,-13.06208c0,0 4.87348,-1.77668 6.76561,-2.50451c1.46217,-0.56244 3.63346,-1.49561 3.63346,-1.49561l10.25713,12.74188c0,0 -3.84926,0.75549 -8.10378,1.19383z" fill="#403328" stroke="#292018" stroke-width="4"/><path d="M313.04445,194.63346l-1.95653,-6.70414l6.04878,0.08463l5.23341,5.71602z" fill="#403328" stroke="none" stroke-width="0"/></g><path d="M302.76328,144.08136c0,0 2.55763,1.30356 3.25006,1.94401c0.6538,0.60471 1.30735,2.17125 1.30735,2.17125c0,0 -9.44892,9.64493 -11.19002,10.90327c-0.57617,0.41642 -4.5617,0.7349 -5.93742,-1.57411c-1.37572,-2.30901 -2.10282,-2.81483 -2.10282,-2.81483z" fill="#403328" stroke="none" stroke-width="NaN" stroke-linecap="butt"/><g data-paper-data="{&quot;index&quot;:null}" stroke-linecap="butt"><path d="M279.20878,126.87938c-8.40855,-2.38751 -22.60427,-21.60452 -17.05079,-42.73351c5.55347,-21.12897 21.46873,-29.80419 40.00504,-24.93217c18.53631,4.87202 28.12907,20.25168 22.57561,41.38066c-5.55347,21.12899 -26.22181,31.76732 -45.52986,26.28502z" data-paper-data="{&quot;index&quot;:null}" fill="#d9bb9a" stroke="#917c67" stroke-width="4"/><path d="M266.88519,85.84281c4.44278,-16.90318 16.65875,-26.06951 33.52201,-21.63723c17.0758,4.48815 23.63096,18.5882 19.18819,35.49138c-4.44277,16.9032 -22.49966,27.14594 -39.24908,22.47725c-8.57416,-2.2536 -17.90389,-19.42822 -13.46112,-36.3314z" fill="#ffdbb5" stroke="none" stroke-width="0"/><path d="M281.76681,104.24595c2.59241,0.63958 3.9185,1.51808 3.65104,2.60218c-0.26746,1.08409 -2.02719,1.96327 -4.6196,1.3237c-2.59241,-0.63958 -4.23988,-3.73266 -3.97242,-4.81676c0.26746,-1.0841 2.34857,0.25131 4.94097,0.89088z" fill="#d9bb9a" stroke="none" stroke-width="0"/></g><path d="M323.22029,102.53632c1.26772,0.66453 2.83835,5.57444 0.18514,9.37412c-2.65321,3.79968 -8.60765,4.66709 -9.39198,3.46979c-0.78433,-1.1973 1.22965,-3.06439 3.88285,-6.86407c2.65321,-3.79969 3.01655,-7.18937 5.32399,-5.97984z" data-paper-data="{&quot;index&quot;:null}" fill="#d9bb9a" stroke="#917c67" stroke-width="4" stroke-linecap="butt"/><g data-paper-data="{&quot;index&quot;:null}"><g><path d="M321.73723,95.09699c-1.88545,0.32785 -5.92677,-3.57266 -8.63454,-4.18212c-2.9092,-0.6548 -6.37925,-0.61707 -13.8632,-1.69936c-3.06158,-0.44276 -8.62322,-3.76671 -13.73172,-5.5433c-3.54088,-1.23142 -10.87304,-7.25635 -10.87304,-7.25635c0,0 -1.84525,3.17638 -3.27954,3.82619c-1.4343,0.64982 -3.06143,2.65248 -3.38141,2.62874c-5.75264,-0.42664 -4.73131,-0.14332 -5.82642,-1.10135c0.13636,-0.5194 -1.22143,1.597 -1.90247,4.88067c-0.36434,1.75669 -1.0661,4.38034 -1.85559,2.37104c-0.46771,-1.19036 -0.77561,-1.88253 -0.72447,-3.01649c0.07029,-1.55868 1.46187,-3.39274 1.05571,-5.63347c-0.18618,-1.02718 -2.1469,-1.17588 -3.56957,-2.76188c-1.43593,-1.60077 -1.93722,-4.89866 -1.93722,-4.89866c0,0 8.26275,-7.34063 9.02605,-8.39078c1.68271,-2.31507 0.09188,-4.55927 0.91523,-6.98085c2.56666,-7.54879 5.89939,-10.86108 13.16248,-15.50291c6.52035,-0.51086 16.27255,-2.55564 20.18655,-3.41226c5.9941,-1.31185 11.81275,3.32881 20.49295,6.47163c8.20889,2.97218 9.1279,3.5154 13.25953,10.50219c0.23721,0.40113 5.50123,6.38632 5.76736,6.8316c2.54654,4.2608 0.67496,5.31969 1.70556,12.51434c0.18088,1.26277 -0.55033,4.18041 -0.35969,6.14669c0.38421,3.96277 5.43011,7.41984 5.43011,7.41984c0,0 -3.16127,5.95325 -4.32899,7.01282c-1.16773,1.05958 -4.77579,2.06368 -4.51322,2.80391c1.01606,2.86444 1.76082,5.35607 1.76082,5.35607c0,0 -3.90276,2.00493 -5.13458,3.54524c-1.51249,1.89126 -3.55391,0.19851 -3.55391,0.19851c0,0 -3.32739,-2.54436 -2.99076,-4.77668c0.44187,-2.93029 -2.302,-7.35303 -2.302,-7.35303z" fill="#252931" stroke="#14161a" stroke-width="4" stroke-linecap="butt"/><path d="M276.62973,69.90668c-2.4119,-1.81032 -1.042,-13.93022 2.30133,-17.75047c4.59346,-5.24869 5.22733,-11.26616 14.69331,-8.9308c3.33476,0.82273 3.94716,-2.15975 7.43014,-0.45179c5.37807,2.63726 16.79816,6.21064 21.49228,11.21603c5.64716,6.02165 8.38125,15.28648 7.43541,19.12029c-1.96524,7.96577 1.77398,15.19564 1.77398,15.19564c0,0 -1.67262,2.29908 -4.73189,1.19426c-14.77796,-5.33689 -33.51768,-6.92578 -50.39456,-19.59317z" fill="#494c5e" stroke="none" stroke-width="0" stroke-linecap="butt"/><path d="M290.16294,49.54897c-0.75586,3.06376 3.69464,7.70198 0.26641,10.29671c-1.1313,0.85625 -6.20358,-4.92804 -8.43674,-6.52441c-2.16213,1.46631 7.49912,10.92115 5.91742,13.2425c-1.5817,2.32135 -10.32553,-5.62824 -11.42208,-4.03402c-0.38402,0.5583 5.75173,4.44585 6.35762,7.04552c0.44473,1.9082 -3.29246,1.90641 -3.52742,2.40228c-0.74736,1.5772 -6.72585,0.09279 -7.17781,-1.0199c-3.12985,-7.70541 4.62753,-22.16218 4.67338,-22.34805c0.75587,-3.06376 13.52935,-8.52286 16.49884,-7.79025c0.74802,0.18454 8.00101,0.81285 8.00134,2.21315c0.00009,0.3447 -2.50951,-0.18222 -4.12499,0.29104c-1.94097,0.56862 -3.04651,2.14745 -3.02618,2.63692c0.07069,1.70083 1.54644,3.80168 0.92115,4.76089c-0.85197,1.30694 -4.65435,-2.25302 -4.92096,-1.17237z" fill="#252931" stroke="none" stroke-width="0" stroke-linecap="butt"/><path d="M318.92628,84.38919c-0.56831,-2.27865 -7.91523,-6.60049 -11.63616,-9.78184c-1.2789,-1.09343 -1.92816,-3.51529 -1.83362,-4.35922c0.10183,-0.90905 5.01121,0.36209 9.15641,2.36901c5.35226,2.59131 10.34003,6.15044 11.56515,5.12163c1.07448,-0.9023 -10.29288,-6.788 -10.19635,-9.59534c0.06076,-1.76731 10.7962,3.49117 11.02056,1.56929c0.07857,-0.67305 -1.57422,-2.43326 -3.32484,-4.44839c-1.28498,-1.47914 -4.00975,-7.66233 -4.03377,-8.21052c-0.0764,-1.74364 6.08916,1.89081 7.00874,2.66327c6.36818,5.34936 3.74611,20.22838 3.79244,20.41412c0.30071,1.20571 3.6772,7.36516 2.24352,9.85025c-2.20704,3.82566 -8.59024,-0.44267 -10.38925,0.00601c-0.74755,0.18644 -2.60549,-1.21563 -3.26023,-2.45345c-0.3548,-0.67078 -8.61266,-1.91378 -9.06478,-2.68926c-0.85739,-1.47061 4.29369,-0.71104 5.88257,-0.73289c1.58889,-0.02183 3.33898,1.35729 3.06963,0.27732z" fill="#252931" stroke="none" stroke-width="0" stroke-linecap="butt"/><path d="M278.17352,78.73266c0,0 -2.97913,-1.48482 -4.35022,-2.5123c-0.68565,-0.51382 -3.85139,-6.4104 -3.85139,-6.4104" fill="none" stroke="#14161a" stroke-width="4" stroke-linecap="round"/><path d="M310.10902,56.36932c-1.08625,2.38595 -3.87171,2.27815 -6.74369,0.97062c-2.872,-1.30753 -6.07311,-6.00187 -4.98685,-8.38782c1.08626,-2.38595 5.24171,-0.49155 8.11369,0.81599c2.872,1.30753 4.70311,4.21524 3.61685,6.6012z" fill="#686c85" stroke="none" stroke-width="0" stroke-linecap="butt"/><path d="M319.58423,63.59047c-0.62717,1.37759 -3.08065,0.64766 -4.73886,-0.10728c-1.65821,-0.75494 -2.96174,-2.05586 -2.33457,-3.43345c0.62717,-1.37759 2.56633,-1.49887 4.22454,-0.74393c1.65822,0.75494 3.47605,2.90706 2.84888,4.28466z" fill="#686c85" stroke="none" stroke-width="0" stroke-linecap="butt"/><path d="M298.71544,59.43817c-0.82821,1.26695 -1.45209,0.68648 -2.97713,-0.31045c-1.52504,-0.99693 -2.61693,-2.47995 -1.78872,-3.7469c0.82821,-1.26695 1.73689,0.00291 3.26193,0.99985c1.52504,0.99693 2.33214,1.79056 1.50393,3.05751z" fill="#686c85" stroke="none" stroke-width="0" stroke-linecap="butt"/></g><path d="M257.82985,75.16229c0.20802,-0.84319 2.87342,-1.35945 2.1283,-2.28849c-0.74511,-0.92903 -5.82834,2.75105 -4.16445,-0.12654c1.66388,-2.87759 5.21124,-4.69342 5.93375,-5.61941c1.30233,-1.66911 0.83347,3.67147 1.06453,3.47219c1.45272,-1.25294 1.73061,-3.02164 2.50044,-2.83172c0.80804,0.19935 0.88007,4.07639 1.57838,4.42423c1.09397,0.54492 1.49167,-0.18875 1.23614,0.84696c-0.23513,0.95306 -1.09407,1.70797 -2.82936,2.92936c-1.3543,0.95323 -3.24668,2.22173 -4.15577,1.99744c-0.86374,-0.21309 1.13447,-2.38271 -0.05706,-2.95549c-1.66947,-0.80253 -3.23491,0.15145 -3.23491,0.15145z" fill="#494c5e" stroke="none" stroke-width="0" stroke-linecap="butt"/><path d="M272.45844,52.83933c0.57499,-0.70068 1.40157,-0.47522 3.95405,1.61937c2.55248,2.09459 3.47268,4.19212 2.89769,4.8928c-0.57499,0.70068 -1.51689,-0.03619 -4.06937,-2.13078c-2.55248,-2.09459 -3.35736,-3.68071 -2.78238,-4.3814z" fill="#494c5e" stroke="none" stroke-width="0" stroke-linecap="butt"/></g><g data-paper-data="{&quot;index&quot;:null}" stroke-linecap="butt"><g fill="#465b9c"><path d="M174.44197,258.71998c-6.46369,-1.61912 -13.6049,-14.30063 -13.6049,-14.30063c0,0 5.67756,-15.71305 11.32086,-23.54115c4.69593,-6.51399 15.86081,-23.90822 15.86081,-23.90822l41.09068,11.6867c0,0 -11.53599,25.00959 -16.65135,32.33391c-5.38272,7.70713 -14.32842,19.23944 -14.32842,19.23944z" stroke="#2e3c67" stroke-width="4"/><path d="M190.62475,196.72227l2.24595,-4.08706l30.49159,8.6277l-2.24596,4.08706z" stroke="none" stroke-width="0"/></g><path d="M192.25218,205.20228c7.68623,-12.48387 14.33354,-22.85556 22.06479,-20.81748c17.87576,4.71231 9.38652,15.92368 -3.36254,36.11133c-7.57481,11.99441 -15.55594,25.44431 -23.07024,30.13415c-3.75501,2.34361 -11.13698,1.5905 -13.39307,1.01973c-3.31421,-0.83845 -2.98837,-1.32463 -3.47705,-3.94988c-0.29463,-1.58271 2.51502,-5.23499 3.79166,-8.73297c0.9319,-2.55345 2.59007,-5.68001 4.54798,-9.69297c0,0 9.62926,-18.76205 12.89848,-24.07192z" fill="#5671c0" stroke="none" stroke-width="0"/></g><g data-paper-data="{&quot;index&quot;:null}"><g><g><g><path d="M180.74025,208.0486c0,0 5.63403,-10.57781 8.70821,-15.27305c3.06247,-4.67739 8.92683,-12.87345 8.92683,-12.87345l33.5937,10.09241c0,0 -1.69446,11.23168 -3.2648,16.7083c-1.53755,5.36228 -6.06094,15.81565 -6.06094,15.81565z" fill="#465b9c" stroke="#2e3c67" stroke-width="4" stroke-linecap="butt"/><path d="M202.74066,194.81621c0,0 -4.76472,4.79669 -6.79806,6.45038c-1.51655,1.23339 -4.31285,2.58596 -4.31285,2.58596" fill="none" stroke="#2e3c67" stroke-width="4" stroke-linecap="round"/><path d="M179.36088,212.85696l5.72035,-7.56805l36.6553,13.05539l-4.36013,7.06934z" fill="#465b9c" stroke="none" stroke-width="0" stroke-linecap="butt"/></g><g stroke="#281a0d" stroke-width="4" stroke-linecap="butt"><path d="M195.15156,183.75666c0,0 0.86183,-2.48147 1.54874,-3.41837c0.74226,-1.01242 2.85472,-1.83339 2.85472,-1.83339l8.2319,2.20348c0,0 1.6324,3.09311 1.187,4.09465c-0.44539,1.00153 -3.85936,1.91457 -3.85936,1.91457z" fill="#3f2b1a"/><path d="M204.22129,187.03526l4.24316,-5.73675l8.44947,2.55971c0,0 1.6324,3.09311 1.187,4.09465c-0.44539,1.00153 -3.85936,1.91457 -3.85936,1.91457z" fill="#67472a"/><path d="M214.29308,190.17431l4.01984,-5.65735l8.67278,2.48028c0,0 1.6324,3.09311 1.187,4.09465c-0.44539,1.00153 -3.85936,1.91456 -3.85936,1.91456z" fill="#3f2b1a"/><path d="M225.01693,193.70461l3.10395,-6.42214l5.80981,1.69804c0,0 -0.38397,2.58265 -0.76496,3.60194c-0.38099,1.01928 -2.93773,2.09275 -2.93773,2.09275z" fill="#67472a"/></g><path d="M198.97878,185.96464l4.40571,-7.43636l4.85431,1.34102l-2.91126,7.88049z" fill="#465b9c" stroke="#2e3c67" stroke-width="4" stroke-linecap="butt"/><g fill="none" stroke="none" stroke-width="1" stroke-linecap="butt" font-family="sans-serif" font-weight="normal" font-size="12" text-anchor="start"/></g><path d="M186.40193,214.9642c-2.22777,-0.66208 10.29202,-8.1312 11.87368,-9.61437c1.88108,-1.76394 5.60417,0.7805 9.76919,2.01831c4.16502,1.23781 0.5035,14.45304 -0.31352,16.29023c0,0 -18.01042,-7.70783 -21.32935,-8.69418z" fill="#5671c0" stroke="none" stroke-width="0" stroke-linecap="butt"/></g><path d="M231.39229,195.5993l3.10395,-6.42214l2.97632,0.85596c0,0 0.79665,2.93352 0.41566,3.95281c-0.38099,1.01928 -3.01916,2.27586 -3.01916,2.27586z" fill="#67472a" stroke="#281a0d" stroke-width="4" stroke-linecap="butt"/></g><path d="M163.375,262.01532c-2.5,0 -2.5,-2.5 -2.5,-2.5v-1.25c0.00489,-4.53026 0.58779,-7.89919 2.4801,-12.04765c0,0 1.04765,-2.2699 3.31754,-1.22225c2.2699,1.04765 1.22225,3.31754 1.22225,3.31754c-1.63112,3.48592 -2.02442,6.12785 -2.0199,9.95235v1.25c0,0 0,2.5 -2.5,2.5z" fill="#465b9c" stroke="none" stroke-width="0.5" stroke-linecap="butt"/><path d="M188.33444,273.13703c-2.37171,-0.79057 -1.58114,-3.16228 -1.58114,-3.16228l0.38564,-1.07746c0.02275,-0.04535 0.04555,-0.09057 0.06838,-0.13567c-0.21139,-0.36688 -0.33232,-0.79246 -0.33232,-1.24629c0,-0.52532 0.16203,-1.0128 0.43883,-1.41519l1.48104,-2.22156l0.02199,0.01466l0.01729,-0.07184c1.69243,-2.2471 2.96177,-4.63188 4.3814,-7.06575c0,0 1.25968,-2.15945 3.41912,-0.89977c1.1973,0.69842 1.34352,1.67344 1.23613,2.40364c0.31649,0.41882 0.50419,0.94039 0.50419,1.5058c0,0.45693 -0.12258,0.88523 -0.33666,1.25381l-1.22794,2.2103l-0.11246,-0.06248c0.01704,0.05184 0.02394,0.10501 0.01789,0.15986l0.00676,0.04873c-0.00868,0.01162 -0.01733,0.02329 -0.02594,0.035c-0.00104,0.00299 -0.00212,0.00598 -0.00324,0.00898c-0.14857,0.3975 -0.38484,0.74378 -0.66067,1.0674c-0.75112,1.39081 -1.35319,2.94767 -2.71289,3.61621c-0.08415,0.04137 -0.16905,0.08048 -0.25467,0.11748c-0.45101,0.79715 -0.78902,1.57756 -1.4541,2.91275l-0.11436,0.42254c0,0 -0.79057,2.37171 -3.16228,1.58114z" fill="#465b9c" stroke="none" stroke-width="0.5" stroke-linecap="butt"/><path d="M167.00747,258.66268c-1.89737,0.63246 -2.52982,-1.26491 -2.52982,-1.26491l-0.20959,-0.63967c-0.33333,-0.83333 -0.66667,-1.66667 -1,-2.5c0,0 -0.74278,-1.85695 1.11417,-2.59973c1.85695,-0.74278 2.59973,1.11417 2.59973,1.11417c0.33333,0.83333 0.66667,1.66667 1,2.5l0.29041,0.86033c0,0 0.63246,1.89737 -1.26491,2.52982z" fill="#2e3c67" stroke="none" stroke-width="0.5" stroke-linecap="butt"/><path d="M195.03911,260.15592c1.1094,1.6641 -0.5547,2.7735 -0.5547,2.7735l-1.37433,0.77618c-1.3832,0.34471 -2.75056,0.75543 -4.10262,1.20708c0,0 -1.89737,0.63246 -2.52982,-1.26491c-0.63246,-1.89737 1.26491,-2.52982 1.26491,-2.52982c1.44973,-0.48227 2.91542,-0.92134 4.39738,-1.29292l0.12567,-0.22382c0,0 1.6641,-1.1094 2.7735,0.5547z" fill="#2e3c67" stroke="none" stroke-width="0.5" stroke-linecap="butt"/><g stroke-linecap="butt"><g><path d="M208.4261,129.85319c-3.56736,-2.72213 -4.68235,-14.16412 -0.56638,-14.33789c5.1724,-0.2184 6.39041,0.63121 7.90181,0.32346c6.40965,-1.3051 22.42199,-2.79295 22.42199,-2.79295c0,0 2.23027,7.43184 1.3653,9.68501c-1.21561,3.16652 -8.1057,7.39796 -8.1057,7.39796c0,0 -2.70635,-1.09685 -17.7604,-0.38416c-0.48775,0.02309 -4.62224,0.59261 -5.2566,0.10856z" fill="#d9bb9a" stroke="#917c67" stroke-width="4"/><path d="M203.93879,117.20011c1.46815,-0.34978 2.45914,-0.25656 4.06097,-0.02436c0.60653,0.08792 4.61268,10.46316 4.60786,10.55909c-0.0289,0.57584 -1.90597,0.55976 -3.66755,0.97946c-1.7616,0.4197 -3.55954,1.15286 -3.53063,0.57703c0.0289,-0.57585 -3.23222,-11.6715 -1.47063,-12.0912z" fill="#d9bb9a" stroke="none" stroke-width="0"/><path d="M239.63247,118.07905c-0.3239,1.89705 1.36419,6.71241 -5.20968,7.22515c-2.52888,0.19724 -7.56881,-1.16194 -10.7909,-1.73935c-1.4587,-0.26141 -8.12921,1.509 -13.14498,2.663c-0.43658,0.10045 -5.31659,1.71423 -5.50248,1.62503c-0.20462,-0.09817 -5.70352,-9.65025 0.09174,-9.34385c3.4051,0.18003 7.4091,0.2499 10.5472,-0.10971c4.65824,-0.53379 5.92859,-1.3178 12.50246,-1.83054c6.57388,-0.51276 11.83055,-0.38679 11.50665,1.51026z" fill="#ffdbb5" stroke="none" stroke-width="0"/></g><path d="M206.98617,123.51051c-0.70223,-2.62969 -1.02239,-8.76925 -1.02239,-8.76925c0,0 22.20704,-4.08512 28.43323,-5.26803c6.08551,-1.15618 14.24441,1.9574 14.24441,1.9574l-3.43473,23.28376c0,0 -14.20397,-2.16037 -19.02759,-1.73568c-4.84858,0.42689 -16.15051,-7.39837 -16.15051,-7.39837c0,0 -2.43083,0.22044 -3.04242,-2.06983z" fill="#403328" stroke="#292018" stroke-width="4"/></g><g><g data-paper-data="{&quot;index&quot;:null}" fill="#403328" stroke-linecap="butt"><g data-paper-data="{&quot;index&quot;:null}"><g><path d="M205.20508,160.68766l17.83797,-9.64287l6.94659,-12.49178c0,0 14.29843,-14.52683 13.23361,-17.29447c-1.37078,-3.56281 -3.12204,-9.1967 -3.12204,-9.1967c0,0 -4.6963,-3.93081 -2.40119,-4.65783c2.29513,-0.72702 9.91517,-0.8943 15.31889,0.56593c5.40372,1.46026 7.64429,1.1465 9.47926,3.78577c0.77606,1.1162 -1.11421,1.97802 -2.06462,4.59798c-1.56263,4.30764 0.6856,11.2563 0.6856,11.2563c0,0 -4.9931,5.69536 -15.22924,15.62735c-11.04697,10.71872 -30.3196,46.75766 -30.3196,46.75766c0,0 -14.58018,-2.17945 -20.20008,-5.71297c-5.09411,-3.20292 -12.09715,-14.59391 -12.09715,-14.59391z" stroke="#292018" stroke-width="4"/><path d="M247.00481,120.43383c0,0 -0.32996,3.28459 -2.49262,4.96563c-2.16265,1.68105 -4.75657,-0.41147 -5.05282,-0.95911c-0.89523,-1.65488 -4.51302,-13.18358 -4.51302,-13.18358c0,0 1.23427,-1.22348 2.04503,-1.57668c0.85865,-0.37406 3.56238,-0.7949 3.56238,-0.7949z" stroke="none" stroke-width="NaN"/></g><path d="M260.83387,109.56818l2.77242,-2.22223l2.27941,9.71369l-5.31529,7.04933c0,0 -1.19495,-4.26785 -1.34264,-6.82354c-0.15381,-2.66178 1.60609,-7.71723 1.60609,-7.71723z" stroke="#292018" stroke-width="4"/></g></g><path d="M252.06435,129.99758l-6.33959,4.68456" fill="none" stroke="#292018" stroke-width="4" stroke-linecap="round"/><path d="M233.35416,146.86908l4.7938,-4.12885" fill="none" stroke="#292018" stroke-width="4" stroke-linecap="round"/><path d="M226.24735,155.32813l-5.46466,5.30505" fill="none" stroke="#292018" stroke-width="4" stroke-linecap="round"/><path d="M213.45517,168.80482l-4.89103,5.44213" fill="none" stroke="#292018" stroke-width="4" stroke-linecap="round"/></g><g stroke-linecap="butt"><g stroke-width="4"><path d="M192.24708,114.10696l16.89261,0.75467l9.50044,14.10206l-20.8555,12.81923c0,0 -14.46448,0.76835 -15.60149,-5.59848c-4.01185,-22.46487 10.06394,-22.07749 10.06394,-22.07749z" fill="#403328" stroke="#292018"/><path d="M178.09408,123.82348c0.36023,-3.45101 2.13443,-6.32416 3.9628,-6.41737c1.82836,-0.0932 3.01852,2.62886 2.65828,6.07987c-0.36023,3.45101 -2.13443,6.32416 -3.9628,6.41737c-1.82836,0.0932 -3.01852,-2.62886 -2.65828,-6.07987z" fill="#d9bb9a" stroke="#917c67"/><path d="M193.90452,131.11259c3.41062,-0.63029 6.64681,0.20982 7.22825,1.87644c0.58143,1.66663 -1.71209,3.52865 -5.12271,4.15895c-3.41062,0.63029 -6.64681,-0.20982 -7.22825,-1.87644c-0.58143,-1.66663 1.71209,-3.52865 5.12272,-4.15895z" fill="#d9bb9a" stroke="#917c67"/><path d="M190.16926,124.19813c-1.20064,4.39799 -3.98487,7.46888 -6.21876,6.85904c-2.2339,-0.60985 -3.07153,-4.66949 -1.8709,-9.06748c1.20064,-4.39799 3.98487,-7.46888 6.21877,-6.85904c2.2339,0.60985 3.07153,4.66949 1.8709,9.06748z" fill="#d9bb9a" stroke="#917c67"/><path d="M201.59442,126.15275c-1.11196,4.0732 -3.69057,6.91729 -5.75949,6.35249c-2.06892,-0.5648 -2.8447,-4.32464 -1.73273,-8.39784c1.11196,-4.0732 3.69058,-6.91729 5.7595,-6.35249c2.06892,0.5648 2.84469,4.32464 1.73272,8.39784z" fill="#d9bb9a" stroke="#917c67"/><path d="M195.13006,124.65328c-0.85764,4.31866 -3.36772,7.74133 -5.60643,7.64474c-2.2387,-0.09658 -3.35828,-3.67586 -2.50064,-7.99452c0.85764,-4.31866 3.36772,-7.74132 5.60643,-7.64474c2.2387,0.09658 3.35828,3.67586 2.50064,7.99452z" fill="#d9bb9a" stroke="#917c67"/></g><path d="M205.33368,116.48057l6.93639,-0.75186l7.36688,10.34838l-7.44701,4.14941z" fill="#403328" stroke="none" stroke-width="0"/></g><g data-paper-data="{&quot;index&quot;:null}" stroke="none" stroke-width="0" stroke-linecap="butt"><path d="M261.82155,89.45642c1.45359,-5.89184 6.93425,-9.6067 12.24141,-8.29737c5.30715,1.30934 8.4311,7.14704 6.97751,13.03889c-1.45358,5.89184 -6.93426,9.60671 -12.2414,8.29737c-5.30716,-1.30934 -8.4311,-7.14705 -6.97752,-13.0389z" fill="#d3f0f1"/><path d="M280.36676,93.94534c-1.33153,5.39712 -5.98185,8.89135 -10.38679,7.8046c-4.40494,-1.08675 -6.89643,-6.34295 -5.56491,-11.74006c1.33152,-5.3971 5.98186,-8.89135 10.3868,-7.80461c4.40494,1.08674 6.89643,6.34297 5.5649,11.74007z" fill="#ffffff"/></g><g data-paper-data="{&quot;index&quot;:null}" stroke="none" stroke-width="0" stroke-linecap="butt"><g data-paper-data="{&quot;index&quot;:null}"><path d="M273.88754,83.69491c3.272,0.80724 5.00135,5.20333 3.86264,9.81893c-1.13873,4.61561 -4.71431,7.7029 -7.98631,6.89566c-3.272,-0.80724 -5.00137,-5.20333 -3.86265,-9.81894c1.13872,-4.61561 4.71432,-7.70289 7.98633,-6.89565z" fill="#41563d"/><path d="M266.14741,89.59267c0.62885,-2.54891 4.2064,-6.50494 7.23146,-5.75862c4.81358,1.18757 4.79923,6.02266 4.17038,8.57158c-0.62885,2.54892 -3.78465,6.07602 -6.80971,5.32971c-3.02506,-0.74632 -5.22097,-5.59375 -4.59213,-8.14267z" fill="#5f7d59"/></g><path d="M273.04938,93.11377c-1.93822,-0.47818 -3.12183,-2.43706 -2.64365,-4.37529c0.47818,-1.93823 2.43707,-3.12183 4.3753,-2.64365c1.93822,0.47818 3.12182,2.43707 2.64364,4.3753c-0.47818,1.93823 -2.43707,3.12183 -4.37529,2.64365z" fill="#8ebb85"/><path d="M271.15168,94.70517c-1.07221,-0.26452 -1.72697,-1.34817 -1.46244,-2.42038c0.26452,-1.07221 1.34816,-1.72697 2.42037,-1.46245c1.07221,0.26452 1.72697,1.34816 1.46245,2.42037c-0.26452,1.07221 -1.34817,1.72698 -2.42038,1.46246z" fill="#8ebb85"/></g><g data-paper-data="{&quot;index&quot;:null}" stroke="none" stroke-width="0" stroke-linecap="butt"><path d="M305.99858,88.31362c5.30715,1.30934 8.4311,7.14704 6.97752,13.03889c-1.45358,5.89185 -6.93426,9.60671 -12.24141,8.29737c-5.30716,-1.30934 -8.4311,-7.14704 -6.97752,-13.03889c1.45358,-5.89185 6.93427,-9.60671 12.24142,-8.29738z" fill="#d3f0f1"/><path d="M304.85789,88.89611c4.40494,1.08674 6.89643,6.34297 5.56491,11.74008c-1.33152,5.39711 -5.98186,8.89134 -10.38679,7.8046c-4.40494,-1.08675 -6.89643,-6.34294 -5.56491,-11.74006c1.33153,-5.39712 5.98185,-8.89136 10.38679,-7.80461z" fill="#ffffff"/></g><g data-paper-data="{&quot;index&quot;:null}" stroke="none" stroke-width="0" stroke-linecap="butt"><g data-paper-data="{&quot;index&quot;:null}"><path d="M309.74807,100.82025c-1.13873,4.61561 -4.71433,7.7029 -7.98633,6.89566c-3.272,-0.80724 -5.00136,-5.20332 -3.86264,-9.81893c1.13872,-4.6156 4.71431,-7.70291 7.98631,-6.89567c3.27202,0.80724 5.00137,5.20333 3.86266,9.81894z" fill="#41563d"/><path d="M302.1418,104.89482c-3.02506,-0.74632 -4.17824,-5.3365 -3.5494,-7.88541c0.62885,-2.54892 2.86501,-6.83588 7.67859,-5.64831c3.02506,0.74632 4.3521,5.91235 3.72325,8.46127c-0.62885,2.54892 -4.82738,5.81877 -7.85244,5.07245z" fill="#5f7d59"/></g><path d="M299.60293,95.35396c0.47818,-1.93823 2.43707,-3.12184 4.37529,-2.64366c1.93822,0.47818 3.12183,2.43708 2.64364,4.37531c-0.47818,1.93822 -2.43707,3.12183 -4.3753,2.64365c-1.93822,-0.47818 -3.12182,-2.43708 -2.64364,-4.3753z" fill="#8ebb85"/><path d="M301.72389,99.60029c0.26452,-1.07221 1.34817,-1.72698 2.42038,-1.46246c1.07221,0.26452 1.72696,1.34818 1.46244,2.42039c-0.26452,1.07221 -1.34816,1.72697 -2.42037,1.46244c-1.07221,-0.26452 -1.72697,-1.34816 -1.46245,-2.42038z" fill="#8ebb85"/></g><path d="M260.58837,78.89912c0.91082,-2.30652 3.52104,-3.11205 7.78045,-1.544c4.25941,1.56806 13.03962,6.19169 12.12879,8.49821c-0.91082,2.30652 -6.12815,-0.28635 -10.38756,-1.85441c-4.25941,-1.56806 -10.43251,-2.79327 -9.52169,-5.0998z" data-paper-data="{&quot;index&quot;:null}" fill="#424956" stroke="#14161a" stroke-width="4" stroke-linecap="butt"/><path d="M304.53731,92.11151c-4.49997,-0.59298 -10.3246,-0.72428 -10.05811,-3.18977c0.26648,-2.46549 10.18967,-2.47476 14.68965,-1.88179c4.49998,0.59297 6.43601,2.52012 6.16953,4.98561c-0.26648,2.46549 -6.30109,0.67893 -10.80106,0.08595z" data-paper-data="{&quot;index&quot;:null}" fill="#424956" stroke="#14161a" stroke-width="4" stroke-linecap="butt"/><path d="M281.07109,114.39349c0,0 3.18774,-0.01814 6.15037,0.80038c3.03561,0.83868 5.62339,3.3646 5.62339,3.3646" fill="none" stroke="#d9bb9a" stroke-width="4" stroke-linecap="round"/><path d="M171.61995,127.6478c0.23809,0.29831 0.48479,0.58953 0.74164,0.8721c0,0 1.33793,1.48659 -0.14866,2.82452c-1.48659,1.33793 -2.82452,-0.14866 -2.82452,-0.14866c-2.19573,-2.46072 -4.95782,-5.80834 -5.93541,-9.03483c-1.9308,-6.37253 2.86074,-12.13218 8.01061,-14.83338c2.72302,-1.42827 5.82596,-1.63709 8.56983,-2.78405c0.4011,-0.16766 2.07477,-1.43986 2.10013,-2.12075c0.06771,-1.81769 -1.33943,-3.3999 -1.72088,-5.17841c-0.36646,-1.70863 -0.28545,-3.02436 -0.28386,-4.73124l-0.23449,-1.87591c-0.01276,-0.09129 -0.01936,-0.18456 -0.01936,-0.27937c0,-1.10457 0.89543,-2 2,-2c0.47844,0 0.91764,0.168 1.26183,0.44821l2.48756,1.99005l-0.02113,0.02641c0.08825,0.06414 0.17504,0.13057 0.26023,0.19951c3.31888,2.68577 3.54891,9.08857 3.25764,12.96009c-0.06838,0.90891 -0.00258,1.89332 -0.42447,2.70128c-0.59876,1.14669 -1.55098,2.09573 -2.52493,2.9471c-3.85638,3.37101 -8.83483,2.62863 -12.81592,5.55376c-2.54885,1.87279 -1.7026,4.46886 -0.90634,6.85428c0.39345,1.17869 1.74863,2.57573 1.02328,3.58468c-0.68668,0.95516 -1.30036,1.60889 -1.85281,2.0246zM175.93794,109.7922c1.55002,-0.42725 3.1565,-0.7944 4.6163,-1.32939c-0.46447,0.10067 -0.98324,0.21109 -1.58945,0.38264c-1.01058,0.28597 -2.03163,0.59427 -3.02685,0.94675z" fill="#ffc5f6" stroke="none" stroke-width="0.5" stroke-linecap="butt"/><path d="M208.47763,138.24029c-0.63246,-1.89737 1.26491,-2.52982 1.26491,-2.52982l-0.03176,0.23315c1.44365,-1.41697 2.03531,-1.70285 2.77359,-3.73812c1.36655,-3.76729 -1.62963,-6.86685 -3.82806,-10.11686c-0.89878,0.8698 -1.88646,1.95341 -2.83268,1.44169c-2.97713,-1.61005 -2.20044,-5.03052 -1.93319,-7.42057l0.24671,-1.97368c0.07255,-0.65778 0.46409,-1.21946 1.01653,-1.52697c0.17409,-0.33874 0.34818,-0.67748 0.52228,-1.01622l0.4629,-3.47174c0.11707,-0.99302 0.96165,-1.76333 1.98614,-1.76333c0.83567,0 1.55163,0.51252 1.8507,1.24038l1.58489,3.62261l-0.01699,0.00743c0.61931,1.11555 1.0182,2.37005 1.08034,4.06434c0.06249,1.70382 -0.28911,2.90988 -1.01851,3.95709c0.73252,1.12507 1.45889,2.34625 2.28233,3.74205c1.14194,1.93569 2.87618,4.31339 2.98326,6.73987c0.16781,3.8029 -1.84412,6.51567 -4.3318,9.04044l-1.53176,0.73315c0,0 -1.89737,0.63246 -2.52982,-1.26491z" fill="#ffc5f6" stroke="none" stroke-width="0.5" stroke-linecap="butt"/><path d="M204.52241,86.13158c-0.35834,-0.29211 -0.64741,-0.7634 -0.64741,-1.52375c0,-2 2,-2 2,-2l2.12266,1.29775c0.65202,1.80921 0.85896,3.77922 0.87734,5.70225c0,0 0,2 -2,2c-2,0 -2,-2 -2,-2c0.01407,-1.15911 -0.05213,-2.3547 -0.35259,-3.47625z" fill="#ffc5f6" stroke="none" stroke-width="0.5" stroke-linecap="butt"/><path d="M342.56216,213.33321c-1.97538,-0.31284 -1.66254,-2.28822 -1.66254,-2.28822l0.25658,-1.55426l0.22115,-3.98071c0.051,-1.05914 0.92587,-1.90219 1.99765,-1.90219c0.32981,0 0.64098,0.07983 0.91523,0.22123c-0.05389,-0.4576 -0.13573,-0.87208 -0.25883,-1.19589c-0.30573,-0.80423 -0.82581,-1.53024 -1.44444,-2.22038c-0.29559,0.15172 -0.67484,0.23373 -1.16097,0.18512c-1.99007,-0.19901 -1.79107,-2.18908 -1.79107,-2.18908c0.04048,-0.27276 0.05943,-0.55331 0.05654,-0.83575c-0.90172,-0.91285 -1.68291,-1.87008 -2.05531,-2.97711c-0.03373,-0.10025 -0.06303,-0.20125 -0.08837,-0.30292l-0.04544,0.01704l-0.73382,-1.95684c-0.09258,-0.23036 -0.14353,-0.48193 -0.14353,-0.74541c0,-1.10457 0.89543,-2 2,-2c0.59814,0 1.13496,0.26258 1.50147,0.67875l1.99335,2.24252l-0.06012,0.05344l0.19669,0.11831c0.41726,0.79426 0.75411,1.65041 0.99083,2.53384c0.0611,0.08438 0.1237,0.16699 0.1883,0.24722c3.45047,4.28494 4.93017,6.59694 4.937,12.22554l-0.04076,0.09605l0.03332,0.00333l-0.2478,2.478c-0.08959,1.02166 -0.94735,1.823 -1.99227,1.823c-0.48302,0 -0.92604,-0.17123 -1.27169,-0.45629l-0.00293,0.01913c0,0 -0.31284,1.97538 -2.28822,1.66254z" fill="#ffc5f6" stroke="none" stroke-width="0.5" stroke-linecap="butt"/><path d="M315.53396,220.4749c-0.48425,0.71917 -1.07034,0.91665 -1.57897,0.9096c1.3936,0.66024 2.85415,1.10623 3.77778,1.2556c0,0 1.96774,0.35777 1.60997,2.32551c-0.35777,1.96774 -2.32551,1.60997 -2.32551,1.60997c-3.54769,-0.69775 -9.08959,-3.18471 -10.518,-7.02385c-0.10181,-0.27363 -0.12433,-2.34624 -0.12726,-3.98313c-0.13873,-0.45026 -0.15535,-0.92379 0.00141,-1.4161c0.00082,-0.25647 0.00162,-0.44766 0.00162,-0.54467v-2c0,-1.10457 0.89543,-2 2,-2c1.10457,0 2,0.89543 2,2v2.04583c0.11334,0.34533 -0.10265,0.82132 0.15319,1.07858c0.77182,0.7761 1.82775,1.20478 2.74162,1.80717l1.72225,1.15946c0,0 1.65896,1.11707 0.54189,2.77603z" fill="#ffc5f6" stroke="none" stroke-width="0.5" stroke-linecap="butt"/><path d="M325.075,206.20783c-1.6,1.2 -2.8,-0.4 -2.8,-0.4l-1.13777,-1.97914c-0.55793,-6.62413 4.96892,-9.08375 7.69554,-14.35851c1.16705,-2.2577 0.0614,-3.59244 0.54223,-6.11236v-4c0,-1.10457 0.89543,-2 2,-2c1.02962,0 1.87752,0.77804 1.98785,1.77825l0.24671,1.97368l-0.05964,0.00746l0.07122,0.11634c0.00191,1.41825 -0.04821,2.38795 0.02585,3.29148c0.04122,0.24646 0.07145,0.48944 0.09133,0.72912c0.13852,0.80319 0.41532,1.63666 0.95742,2.77606c0,0 0.82761,1.82073 -0.99313,2.64834c-0.53115,0.24143 -0.97778,0.25748 -1.34401,0.15911c-1.26013,2.23933 -3.13926,4.25091 -4.67217,6.30218c-1.72982,2.31478 -2.99501,3.53307 -2.57367,6.24712l0.36223,0.02086c0,0 1.2,1.6 -0.4,2.8z" fill="#ffc5f6" stroke="none" stroke-width="0.5" stroke-linecap="butt"/><path d="M170.97516,111.04035c0.38495,-0.82086 0.83596,-1.59719 1.55203,-2.10429c1.00944,-0.71486 2.44449,-0.38001 3.66674,-0.57002c0,0 1.99179,-0.18107 2.17286,1.81071c0.18107,1.99179 -1.81071,2.17286 -1.81071,2.17286c-4.23202,-0.16163 -4.21712,6.71745 -3.08604,10.1841c0.02173,0.05064 0.03942,0.10249 0.05237,0.15577c0.03373,0.09736 0.06836,0.19172 0.10381,0.28283l1.38957,0.99255c0.51931,0.36126 0.85921,0.96241 0.85921,1.64296c0,1.10457 -0.89543,2 -2,2c-0.44193,0 -0.85039,-0.14334 -1.18141,-0.38606l-1.73106,-1.23647l0.07793,-0.1091c-0.11316,-0.03094 -0.22533,-0.06769 -0.33638,-0.1109c-1.13592,-0.44208 -1.55877,-1.90025 -2.10594,-2.98945c-1.81319,-3.60936 -1.60735,-5.8027 -0.94087,-9.52578l0.80364,-1.50163c0,0 0.99518,-1.49277 2.51426,-0.70808z" fill="#ffa6f2" stroke="none" stroke-width="0.5" stroke-linecap="butt"/><path d="M174.875,90.10783c2,0 2,2 2,2l-0.01223,1.22086c-0.86251,5.79066 -6.29372,9.46885 -11.55428,11.40872c0,0 -1.87959,0.68349 -2.56307,-1.1961c-0.68349,-1.87959 1.1961,-2.56307 1.1961,-2.56307c3.46856,-1.24045 8.76976,-4.05613 8.94572,-8.09128l-0.01223,-0.77914c0,0 0,-2 2,-2z" fill="#ffa6f2" stroke="none" stroke-width="0.5" stroke-linecap="butt"/><path d="M212.48277,108.81899c-1.96116,-0.39223 -1.56893,-2.35339 -1.56893,-2.35339l0.48699,-2.42813c0.07987,-0.64257 0.15975,-1.28514 0.23962,-1.9277c0,0 0.24807,-1.98456 2.23263,-1.73649c1.98456,0.24807 1.73649,2.23263 1.73649,2.23263c-0.08679,0.69077 -0.17359,1.38153 -0.26038,2.0723l-0.51301,2.57187c0,0 -0.39223,1.96116 -2.35339,1.56893z" fill="#ffa6f2" stroke="none" stroke-width="0.5" stroke-linecap="butt"/><path d="M211.11778,76.25088c1.85695,0.74278 1.11417,2.59973 1.11417,2.59973l-0.36688,0.70623c-0.15917,1.59147 -0.3257,3.18223 -0.50231,4.77186c0,0 -0.22086,1.98777 -2.20863,1.7669c-1.98777,-0.22086 -1.7669,-2.20863 -1.7669,-2.20863c0.17503,-1.57506 0.34002,-3.15125 0.49769,-4.72814l0.63312,-1.79377c0,0 0.74278,-1.85695 2.59973,-1.11417z" fill="#ffa6f2" stroke="none" stroke-width="0.5" stroke-linecap="butt"/><path d="M204.875,140.85783c0,-0.65489 0.21444,-1.09534 0.50289,-1.39157c-0.00192,-0.0359 -0.00289,-0.07205 -0.00289,-0.10843c0,-1.10457 0.89543,-2 2,-2h1.27786l2.04172,-1.02086c0.27793,-0.14633 0.5945,-0.22914 0.93041,-0.22914c0.19734,0 0.38801,0.02858 0.56808,0.08183c0.75177,-0.72052 1.22835,-1.7273 1.92612,-3.03953c0,0 0.9577,-1.75579 2.7135,-0.79809c1.75579,0.9577 0.79809,2.7135 0.79809,2.7135c-2.03201,3.65092 -3.42283,5.29116 -7.53756,6.28035l-0.02698,-0.01973c-0.33311,0.43858 -0.96055,0.67692 -1.38967,1.05019l-1.80158,0.48149c0,0 -2,0 -2,-2z" fill="#ffa6f2" stroke="none" stroke-width="0.5" stroke-linecap="butt"/><path d="M192.8283,142.78749c-0.42966,1.9533 -2.38297,1.52364 -2.38297,1.52364l-2.3074,-0.51039c-1.29846,-0.43185 -2.59693,-0.8637 -3.89539,-1.29555c0,0 -1.89737,-0.63246 -1.26491,-2.52982c0.63246,-1.89737 2.52982,-1.26491 2.52982,-1.26491c1.23136,0.41143 2.46272,0.82285 3.69407,1.23428l2.10314,0.45979c0,0 1.9533,0.42966 1.52364,2.38297z" fill="#ffa6f2" stroke="none" stroke-width="0.5" stroke-linecap="butt"/><path d="M332.28921,196.44362c1.41421,1.41421 0,2.82843 0,2.82843l-0.67194,0.57227c-2.12745,1.18732 -2.4255,1.41839 -3.07663,3.83821c0,0 -0.5747,1.91565 -2.49035,1.34096c-1.91565,-0.5747 -1.34096,-2.49035 -1.34096,-2.49035c1.05464,-3.28068 1.96894,-4.443 4.92337,-6.16179l-0.17194,0.07227c0,0 1.41421,-1.41421 2.82843,0z" fill="#ffa6f2" stroke="none" stroke-width="0.5" stroke-linecap="butt"/><path d="M330.37693,173.87327c1.98456,-0.24807 2.23263,1.73649 2.23263,1.73649l0.22237,1.83525c0.50768,1.69744 0.85086,3.45149 1.03314,5.21382c0,0 0.19901,1.99007 -1.79107,2.18908c-1.99007,0.19901 -2.18908,-1.79107 -2.18908,-1.79107c-0.15554,-1.62017 -0.49783,-3.22761 -0.96686,-4.78618l-0.27763,-2.16475c0,0 -0.24807,-1.98456 1.73649,-2.23263z" fill="#ffa6f2" stroke="none" stroke-width="0.5" stroke-linecap="butt"/><path d="M340.28921,159.19362c1.41421,1.41421 0,2.82843 0,2.82843l-0.34348,0.16339c-0.75398,1.65872 -1.50312,3.31966 -2.24311,4.98467c0,0 -0.81228,1.82762 -2.6399,1.01535c-1.82762,-0.81228 -1.01535,-2.6399 -1.01535,-2.6399c0.74456,-1.67523 1.4983,-3.3464 2.25689,-5.01533l1.15652,-1.33661c0,0 1.41421,-1.41421 2.82843,0z" fill="#ffa6f2" stroke="none" stroke-width="0.5" stroke-linecap="butt"/><path d="M338.95195,213.15727c-0.54944,-1.92305 1.37361,-2.47249 1.37361,-2.47249l0.97071,-0.07177c0.58475,-0.4415 1.33886,-0.72092 1.75425,-1.32449c0.63298,-0.91974 -0.41319,-2.19455 -0.63668,-3.28846c0,0 -0.39223,-1.96116 1.56893,-2.35339c1.96116,-0.39223 2.35339,1.56893 2.35339,1.56893c0.85102,4.33493 0.89471,5.19375 -2.38243,8.38705l-2.52929,0.92823c0,0 -1.92305,0.54944 -2.47249,-1.37361z" fill="#ffa6f2" stroke="none" stroke-width="0.5" stroke-linecap="butt"/><path d="M313.2344,219.27193c-1.6641,1.1094 -2.7735,-0.5547 -2.7735,-0.5547l-1.28827,-3.04326c0.16667,-0.75 0.33333,-1.5 0.5,-2.25c0,0 0.43386,-1.95237 2.38624,-1.51851c1.95237,0.43386 1.51851,2.38624 1.51851,2.38624c-0.16667,0.75 -0.33333,1.5 -0.5,2.25l0.71173,-0.04326c0,0 1.1094,1.6641 -0.5547,2.7735z" fill="#ffa6f2" stroke="none" stroke-width="0.5" stroke-linecap="butt"/><path d="M182.04109,99.36474c1.99309,0.16609 1.827,2.15918 1.827,2.15918l-0.37365,3.54467c-0.58981,0.82975 -1.17963,1.65949 -1.76944,2.48924c0,0 -1.2,1.6 -2.8,0.4c-1.6,-1.2 -0.4,-2.8 -0.4,-2.8c0.41019,-0.50359 0.82037,-1.00717 1.23056,-1.51076l0.12635,-2.45533c0,0 0.16609,-1.99309 2.15918,-1.827z" fill="#ffffff" stroke="none" stroke-width="0.5" stroke-linecap="butt"/><path d="M209.375,123.35783c-2,0 -2,-2 -2,-2l0.3359,-2.8594c0.5,-0.75 1,-1.5 1.5,-2.25c0,0 1.1094,-1.6641 2.7735,-0.5547c1.6641,1.1094 0.5547,2.7735 0.5547,2.7735c-0.5,0.75 -1,1.5 -1.5,2.25l0.3359,0.6406c0,0 0,2 -2,2z" fill="#ffffff" stroke="none" stroke-width="0.5" stroke-linecap="butt"/><path d="M196.58616,126.75006c-0.39223,1.96116 -2.35339,1.56893 -2.35339,1.56893l-1.86551,-0.4836c-4.31418,-2.73492 -4.79093,-3.62215 -3.96,-8.58533c0,0 0.35777,-1.96774 2.32551,-1.60997c1.96774,0.35777 1.60997,2.32551 1.60997,2.32551c-0.21149,1.04985 -1.19138,2.50667 -0.36816,3.19167c0.69206,0.57586 1.60544,0.81533 2.40816,1.223l0.63449,0.0164c0,0 1.96116,0.39223 1.56893,2.35339z" fill="#ffffff" stroke="none" stroke-width="0.5" stroke-linecap="butt"/><path d="M205.875,88.10783c0,-1.10457 0.89543,-2 2,-2c1.10457,0 2,0.89543 2,2c0,1.10457 -0.89543,2 -2,2c-1.10457,0 -2,-0.89543 -2,-2z" fill="#ffffff" stroke="none" stroke-width="0.5" stroke-linecap="butt"/><path d="M328.63993,196.79812c-1.94029,-0.48507 -1.45521,-2.42536 -1.45521,-2.42536l0.22255,-0.8727c0.16667,-0.91667 0.33333,-1.83333 0.5,-2.75c0,0 0.35777,-1.96774 2.32551,-1.60997c1.96774,0.35777 1.60997,2.32551 1.60997,2.32551c-0.16667,0.91667 -0.33333,1.83333 -0.5,2.75l-0.27745,1.1273c0,0 -0.48507,1.94029 -2.42536,1.45521z" fill="#ffffff" stroke="none" stroke-width="0.5" stroke-linecap="butt"/><path d="M346.87439,204.41957c-1.56174,1.24939 -2.81113,-0.31235 -2.81113,-0.31235l-1.31785,-1.8159c-0.33333,-0.91667 -0.66667,-1.83333 -1,-2.75c0,0 -0.68349,-1.87959 1.1961,-2.56307c1.87959,-0.68349 2.56307,1.1961 2.56307,1.1961c0.33333,0.91667 0.66667,1.83333 1,2.75l0.68215,0.6841c0,0 1.24939,1.56174 -0.31235,2.81113z" fill="#ffffff" stroke="none" stroke-width="0.5" stroke-linecap="butt"/><path d="M318.36277,221.38697c0.22086,1.98777 -1.7669,2.20863 -1.7669,2.20863l-2.60508,0.25772c-4.34456,-1.18895 -4.44647,-1.8137 -7.13429,-4.94391c0,0 -1.30158,-1.51851 0.21693,-2.8201c1.51851,-1.30158 2.8201,0.21693 2.8201,0.21693c1.75885,2.05539 1.72221,3.01953 4.36571,3.55609l1.89492,-0.24228c0,0 1.98777,-0.22086 2.20863,1.7669z" fill="#ffffff" stroke="none" stroke-width="0.5" stroke-linecap="butt"/></g></g></svg>