<svg version="1.1" xmlns="http://www.w3.org/2000/svg" xmlns:xlink="http://www.w3.org/1999/xlink" width="21.72587" height="28.59869" viewBox="0,0,21.72587,28.59869"><g transform="translate(-229.13707,-165.70065)"><g data-paper-data="{&quot;isPaintingLayer&quot;:true}" fill-rule="nonzero" stroke="#000000" stroke-linecap="butt" stroke-linejoin="miter" stroke-miterlimit="10" stroke-dasharray="" stroke-dashoffset="0" style="mix-blend-mode: normal"><path d="M230.97252,194.04935c0,0 -1.72033,-3.79717 -1.57697,-10.17861c0.11937,-5.31375 1.57697,-10.60869 1.57697,-10.60869c0,0 5.46853,-3.2973 8.60164,-3.2973c3.80449,0 9.17508,3.2973 9.17508,3.2973c0,0 1.86369,6.1223 1.86369,11.32549c0,2.90931 -1.86369,9.4618 -1.86369,9.4618z" fill="#ffffff" stroke-width="0.5"/><path d="M233.83973,171.9718v-4.7309c0,0 3.49649,-1.29025 5.73443,-1.29025c2.23793,0 5.73443,1.29025 5.73443,1.29025v4.7309c0,0 -3.59089,-0.86016 -6.16451,-0.86016c-1.90224,0 -5.30434,0.86016 -5.30434,0.86016z" fill="#26c4ff" stroke-width="0.5"/><path d="M229.82564,187.88484v-6.30787h20.07049v6.30787z" fill="none" stroke-width="0.5"/><text transform="translate(234.84326,186.39176) scale(0.12654,0.12654)" font-size="40" xml:space="preserve" fill="#000000" fill-rule="nonzero" stroke="#000000" stroke-width="1" stroke-linecap="butt" stroke-linejoin="miter" stroke-miterlimit="10" stroke-dasharray="" stroke-dashoffset="0" font-family="Handwriting" font-weight="normal" text-anchor="start" style="mix-blend-mode: normal"><tspan x="0" dy="0">Milk</tspan></text></g></g></svg>