<svg version="1.1" xmlns="http://www.w3.org/2000/svg" xmlns:xlink="http://www.w3.org/1999/xlink" width="256.64977" height="416.53693" viewBox="0,0,256.64977,416.53693"><g transform="translate(-67.37902,-17.52294)"><g data-paper-data="{&quot;isPaintingLayer&quot;:true}" fill-rule="nonzero" stroke-linejoin="miter" stroke-miterlimit="10" stroke-dasharray="" stroke-dashoffset="0" style="mix-blend-mode: normal"><g data-paper-data="{&quot;index&quot;:null}"><path d="M115.36643,376.13169c-0.57811,-2.98835 1.31033,-4.89328 0.61555,-8.21027c-0.39021,-1.86293 -2.55682,-2.48357 -3.50283,-4.34129c-0.98038,-1.92521 -0.73568,-5.06413 -0.82899,-5.61193c-0.50402,-2.95818 11.98917,-3.87481 11.98917,-3.87481c0,0 9.25587,0.32361 10.96884,-0.04744c3.2788,-0.7102 13.66872,-3.52979 13.66872,-3.52979l10.83974,32.09615l-10.44207,6.64672c0,0 -3.30449,5.01862 -2.18253,9.17068c1.48385,5.49123 2.74076,16.07881 0.75632,19.608c-4.13566,7.35492 -3.84413,8.8177 -5.83897,8.37135c0,0 -3.55146,0.87437 -5.59966,0.91055c-2.0637,0.03646 -6.73638,-0.69262 -6.73638,-0.69262c0,0 -11.30528,-38.08089 -13.7069,-50.49527z" fill="#403328" stroke="#292018" stroke-width="4" stroke-linecap="butt"/><path d="M133.84962,419.44653l1.38204,4.93893l-3.61671,-0.08812c0,0 -1.90555,-6.48501 -3.61876,-11.94405c-1.5032,-4.78989 -12.16312,-38.77231 -9.90399,-37.39637c0.26747,0.16291 2.32693,-4.27034 1.31686,-8.26335c-0.5364,-2.12053 -2.67338,-3.30066 -3.87228,-4.69988c-1.04702,-1.22192 -1.20625,-2.8043 -1.20625,-2.8043c0,0 3.90739,-2.47191 4.76373,-0.52254c1.55092,3.53046 3.41379,16.62518 6.53628,29.24385c3.61009,14.58923 8.21913,31.53584 8.21913,31.53584z" fill="#775f4a" stroke="none" stroke-width="0" stroke-linecap="butt"/><path d="M148.05783,388.79413c0,0 -4.13889,-4.99959 -5.33546,-8.18608c-1.45042,-3.86246 -0.69181,-5.44472 -0.69181,-5.44472l9.23649,-5.70689l-2.45309,16.67342" fill="none" stroke="#292018" stroke-width="4" stroke-linecap="round"/><path d="M143.5602,375.9024l11.68232,7.46225" fill="none" stroke="#292018" stroke-width="4" stroke-linecap="round"/></g><g data-paper-data="{&quot;index&quot;:null}" stroke-linecap="butt"><g fill="#465b9c"><path d="M190.65353,297.61748c1.05539,-7.5918 2.9177,-27.5213 2.9177,-27.5213l32.5371,1.27273c0,0 0.4632,27.52842 -0.60892,36.02357c-1.12814,8.93912 -3.43607,22.53719 -3.43607,22.53719c0,0 -11.70686,4.40191 -16.98345,4.41854c-5.04381,0.0159 -14.63723,-3.7053 -14.63723,-3.7053c0,0 -1.05744,-23.90209 0.21087,-33.02543z" stroke="#2e3c67" stroke-width="4"/><path d="M195.13656,272.7012l0.17514,-4.58865l24.12922,0.90058l-0.17514,4.58865z" stroke="none" stroke-width="0"/></g><path d="M197.16817,280.85581c1.10933,-14.22194 3.20129,-26.10284 9.26862,-26.02187c14.02856,0.18724 11.92915,13.35513 9.91296,36.43313c-1.19791,13.71172 -4.16151,28.95937 -7.79549,35.45595c-1.81595,3.24645 -5.22755,4.34496 -6.98995,4.34496c-2.58897,0 -5.29502,-0.96406 -6.52546,-3.42988c-0.74182,-1.48659 0.76356,-5.38365 0.46454,-9.14993c-0.21827,-2.74932 -0.32369,-6.24464 -0.32369,-10.68841c0,-6.15584 1.51662,-20.89481 1.98847,-26.94394z" fill="#5671c0" stroke="none" stroke-width="0"/></g><g data-paper-data="{&quot;index&quot;:null}" stroke-linecap="butt"><g fill="#465b9c"><path d="M137.47166,353.51618l4.36036,-1.39415l0.6993,-2.91798l3.66876,-1.30875c0,0 14.65162,-11.51577 18.63303,-13.95561c6.54241,-4.00923 24.99463,-17.54244 24.99463,-17.54244l32.67428,13.51413c0,0 -32.46024,31.68936 -39.70748,36.26389c-3.01918,1.90574 -14.6928,9.3052 -14.6928,9.3052l-3.25779,2.50041l-2.86569,-0.06705l-3.09848,3.89263c0,0 -9.42919,-8.62536 -13.01168,-12.89162c-3.42446,-4.07806 -8.39643,-15.39868 -8.39643,-15.39868z" stroke="#2e3c67" stroke-width="4"/><path d="M189.63702,319.63598l4.261,-3.31558l26.49378,8.16336c0,0 0.6098,5.37614 -0.66821,5.58206c-0.49388,0.07958 -17.08968,6.23241 -17.08968,6.23241z" stroke="none" stroke-width="0"/></g><path d="M195.92622,315.65445c3.89846,-2.00065 12.49919,2.00293 14.50989,4.27312c1.89759,3.97304 -3.17785,8.49791 -6.3923,10.44858c-15.49976,9.4059 -32.23156,24.21735 -37.01162,27.88259c-2.69496,2.06642 -6.05254,8.88571 -10.05787,7.11827c-1.55684,-0.687 -4.71568,-3.09942 -6.24488,-5.80421c-1.6082,-2.84454 -2.54227,-4.75872 -2.1366,-6.72219c0.40567,-1.96347 4.22976,-1.67735 4.05198,-2.54832c-0.56635,-2.77468 13.66683,-9.5584 21.98794,-15.93883c4.42979,-3.39667 16.85553,-16.4315 21.29347,-18.709z" fill="#5671c0" stroke="none" stroke-width="0"/></g><g data-paper-data="{&quot;index&quot;:null}"><path d="M286.5103,428.87683c-1.00155,3.47254 -2.39575,3.17677 -2.39575,3.17677c0,0 -17.83909,2.67891 -34.33414,1.62416c-3.63916,-0.23269 -3.38136,-4.0704 -6.27337,-5.83933c-2.28262,-1.39619 -1.04911,-1.72694 -1.94855,-1.80466c-2.98967,-0.25833 -2.84479,-1.0764 -2.84479,-1.0764c0,0 0.5286,-16.44245 0.60157,-18.19363c0.13966,-3.35192 1.24234,-14.1171 1.24234,-14.1171l33.79241,-2.39474l3.19298,11.17544c0,0 0.57618,7.6378 5.69462,12.57314c3.08637,2.97597 4.30727,11.28923 3.27269,14.87635z" fill="#403328" stroke="#292018" stroke-width="4" stroke-linecap="butt"/><path d="M272.44357,425.20251l11.18175,1.42173l-1.6028,2.5695c0,0 -11.2964,1.41923 -17.01104,1.70028c-5.01416,0.2466 -13.32229,-0.36987 -13.32229,-0.36987c0,0 -2.66083,1.04866 -2.66083,-1.59649c0,-2.64515 23.41522,-3.72515 23.41522,-3.72515z" fill="#775f4a" stroke="none" stroke-width="0" stroke-linecap="butt"/><path d="M254.97496,416.88075c0,0 7.21396,-1.56445 12.77469,-1.79616c5.029,-0.20955 14.63174,1.264 14.63174,1.264" fill="none" stroke="#292018" stroke-width="4" stroke-linecap="round"/><path d="M277.543,402.51231c0,0 -5.88181,2.74419 -9.26706,3.09847c-4.10341,0.42943 -13.61598,-0.70372 -13.61598,-0.70372l-3.19298,-10.37721l17.02925,7.18421" fill="none" stroke="#292018" stroke-width="4" stroke-linecap="round"/><path d="M255.4582,403.31056l14.10235,-8.51462l1.33041,7.98246" fill="none" stroke="#292018" stroke-width="4" stroke-linecap="round"/></g><path d="M219.99653,86.79815c3.54262,-5.40376 9.68179,-22.99638 9.68179,-22.99638l78.53152,17.56795c0,0 -3.65515,19.39922 -3.45773,26.3288c0.12867,4.51662 1.53356,5.67551 1.53356,5.67551c0,0 -4.36186,4.85954 -7.53398,4.23114c-1.01581,-0.20124 -3.18739,-0.64513 -4.6362,-0.88604c-0.57793,-0.09611 -2.85169,8.72386 -2.85169,8.72386c0,0 -4.64394,2.83685 -8.02753,2.2207c-1.40359,-0.25559 -5.91886,-1.97708 -7.41262,-2.20473c-1.68338,-0.25655 -5.39147,0.52235 -8.16201,0.8695c-4.4776,0.561 -10.04683,-1.05292 -10.04683,-1.05292c0,0 -4.33807,-2.61869 -7.37505,-4.94192c-2.50981,-1.91995 -3.5398,-3.53875 -5.74186,-4.19226c-1.47537,-0.43785 -13.40539,-0.18126 -14.23151,-0.38883c-2.00904,-0.50477 -9.39227,-6.29607 -9.39227,-6.29607c0,0 3.23903,-6.18444 2.02135,-6.53887c-1.62574,-0.47322 -2.8566,-4.32589 -3.7719,-4.64435c-2.83007,-0.98465 -4.02944,-6.65492 -4.02944,-6.65492c0,0 2.29019,-0.8356 4.90242,-4.82018z" data-paper-data="{&quot;index&quot;:null}" fill="#14161a" stroke="#14161a" stroke-width="4" stroke-linecap="butt"/><path d="M212.38797,186.92289c0,0 10.31152,-31.41359 9.12897,-36.12142c-0.21,-0.83607 -2.50248,-7.83051 -7.95482,-10.84423c-4.14965,-2.29368 -12.23296,-0.42846 -10.3194,-2.62624c4.42788,-5.08551 13.89483,-6.12092 19.18124,-6.12776c10.75991,-0.01393 25.04074,-4.3301 33.89839,-2.20608c9.68115,2.3215 19.46061,9.25473 31.31547,17.00515c11.51941,7.53111 5.90478,15.26112 5.90478,15.26112c0,0 -13.14989,4.65634 -13.74796,5.26554c-2.89462,2.94829 -10.78289,32.33034 -10.78289,32.33034l-1.70862,37.90498c0,0 -14.99845,6.95533 -37.75329,0.90903c-21.20443,-5.63434 -33.36659,-16.49289 -33.36659,-16.49289z" data-paper-data="{&quot;index&quot;:null}" fill="#95d2a1" stroke="#67916f" stroke-width="4" stroke-linecap="butt"/><path d="M265.663,174.70061c-0.33535,1.39848 -3.20286,8.3188 -3.55421,11.87228c-1.20873,12.22458 -0.07905,28.95211 -2.36048,29.77535c-5.60366,2.02204 -21.39761,-3.61962 -26.28862,-4.74287c-3.96702,-0.91104 -18.16843,-3.99931 -21.34971,-8.65537c-2.46849,-3.61285 5.51493,-14.01517 10.23113,-25.91537c1.36183,-3.43627 1.72879,-10.50632 2.38486,-13.24226c0.70732,-2.9497 -0.36911,-17.20294 -1.09575,-20.56311c-0.26602,-1.23016 -4.63291,-0.07402 -6.19549,-1.22715c-1.35521,-1.00009 0.03334,-4.29896 0.21042,-5.46777c0.34675,-2.28857 5.29864,-4.34663 10.0897,-4.73587c4.79107,-0.38924 19.69226,0.22806 26.19691,1.78784c6.70047,1.60675 19.76279,6.65757 24.81209,10.69744c0.95221,0.76185 7.32852,4.96243 5.83614,7.55202c-1.07792,1.8704 -1.86776,5.74775 -4.07322,5.92644c-2.42668,0.19664 -6.24856,-3.3693 -6.68105,-2.46211c-2.0736,4.34953 -7.45694,16.45712 -8.16277,19.40053z" data-paper-data="{&quot;index&quot;:null}" fill="#a6eab4" stroke="none" stroke-width="0" stroke-linecap="butt"/><g data-paper-data="{&quot;index&quot;:null}" stroke-linecap="butt"><path d="M229.07461,127.67564l3.05993,-8.29886c0,0 13.66135,1.66409 24.06855,4.26785c10.4072,2.60376 26.53844,9.16182 26.53844,9.16182l-1.30298,5.43368z" fill="#292018" stroke="#292018" stroke-width="4"/><g><path d="M240.9505,118.62272l32.3264,8.00077l-2.74556,13.19258c0,0 -6.97411,7.60498 -15.68554,5.40828c-8.43505,-2.12701 -19.68492,-14.82584 -19.68492,-14.82584z" fill="#d9bb9a" stroke="#917c67" stroke-width="4"/><path d="M265.07665,134.55681c-0.28784,1.20037 -2.86717,2.48651 -5.51617,1.8513c-2.64899,-0.63522 -4.36455,-2.95126 -4.0767,-4.15163c0.28784,-1.20037 2.47009,-0.83052 5.11909,-0.19532c2.64899,0.63522 4.76163,1.29527 4.47379,2.49564z" fill="#ffdbb5" stroke="none" stroke-width="0"/></g></g><g data-paper-data="{&quot;index&quot;:null}"><path d="M229.33964,75.87276c5.77792,-25.81278 24.64824,-37.0187 47.29361,-31.94977c22.64536,5.06894 34.93762,23.25028 29.15971,49.06305c-5.77791,25.81279 -31.73281,38.58592 -42.10402,36.47734c-23.81478,-4.84178 -40.12721,-27.77785 -34.34929,-53.59064z" data-paper-data="{&quot;index&quot;:null}" fill="#d9bb9a" stroke="#917c67" stroke-width="4" stroke-linecap="butt"/><path d="M299.76509,92.18211c-4.62235,20.65021 -24.20801,33.93291 -34.68285,31.58823c-20.61048,-4.29385 -34.3343,-25.35213 -29.71195,-46.00237c4.62235,-20.65021 19.51407,-32.16928 40.37516,-27.49972c20.60145,4.61143 28.64198,21.26363 24.01965,41.91386z" fill="#ffdbb5" stroke="none" stroke-width="0" stroke-linecap="butt"/><path d="M279.33462,105.48821c-0.31527,1.3147 -3.8073,3.72509 -6.95113,2.97121c-3.14383,-0.75388 -4.54747,-2.6781 -4.23223,-3.99278c0.31527,-1.3147 2.23004,-1.52203 5.37388,-0.76816c3.14383,0.75388 6.12475,0.47502 5.80948,1.78973z" fill="#d9bb9a" stroke="none" stroke-width="0" stroke-linecap="butt"/><path d="M273.19012,115.80711l-14.8113,-5.42958" fill="none" stroke="#d9bb9a" stroke-width="4" stroke-linecap="round"/></g><g data-paper-data="{&quot;index&quot;:null}" stroke-linecap="butt"><g fill="#465b9c"><path d="M236.62261,330.69507c0,0 -2.35586,-13.59806 -3.50742,-22.53719c-1.09437,-8.49514 -0.62154,-36.02356 -0.62154,-36.02356l33.21268,-1.27274c0,0 1.90098,19.92951 2.97827,27.5213c1.29463,9.12335 0.21524,33.02543 0.21524,33.02543c0,0 -9.79262,3.72119 -14.94115,3.70529z" stroke="#2e3c67" stroke-width="4"/><path d="M239.47826,274.36718l-0.17878,-4.58865l24.63025,-0.90059l0.17878,4.58865z" stroke="none" stroke-width="0"/></g><path d="M260.83569,308.36337c0,4.44377 0.09421,7.9391 -0.12861,10.6884c-0.30523,3.76628 0.42422,8.06693 -0.333,9.55352c-1.25598,2.46582 -1.19307,3.02629 -3.8358,3.02629c-1.799,0 -7.29942,-1.09851 -9.15307,-4.34496c-3.70943,-6.49657 -4.71657,-21.74424 -5.93936,-35.45595c-2.05805,-23.078 -4.20106,-36.2459 10.11878,-36.43312c6.19331,-0.08098 7.31972,11.79993 8.4521,26.02187c0.48163,6.04913 0.81896,26.94394 0.81896,26.94394z" fill="#5671c0" stroke="none" stroke-width="0"/></g><g data-paper-data="{&quot;index&quot;:null}" stroke-linecap="butt"><g fill="#465b9c"><path d="M256.87428,395.59129c-5.38615,-0.01662 -17.63008,-1.7287 -17.63008,-1.7287l0.96977,-4.8731l-1.82515,-2.15711l-0.16232,-4.10329c0,0 -1.73978,-13.70354 -2.1957,-17.24261c-1.09437,-8.49514 0.92199,-37.70746 0.92199,-37.70746l31.66912,0.41115c0,0 1.38648,22.83804 2.46379,30.42984c0.6556,4.62004 1.18497,23.24751 1.18497,23.24751l1.30147,3.65522l-1.73268,2.40665l1.66655,4.24089c0,0 -11.48316,3.4369 -16.63169,3.42101z" stroke="#2e3c67" stroke-width="4"/><path d="M245.82393,331.69579c0,0 -6.26926,-0.00518 -6.51616,-0.43534c-0.63892,-1.11311 -0.86583,-6.44953 -0.86583,-6.44953l28.20155,0.58843l0.38059,5.39586z" stroke="none" stroke-width="0"/></g><path d="M261.65964,351.16631c0.41921,10.47678 4.20176,25.7508 1.79134,27.09397c-0.75662,0.42162 1.82487,3.17414 0.61878,4.74373c-1.20609,1.56959 -3.20561,2.07905 -6.31332,2.6671c-2.95503,0.55918 -6.70268,-0.32012 -8.17713,-1.07513c-3.79333,-1.94245 -0.81173,-8.88981 -0.94751,-12.28292c-0.24081,-6.01838 0.38737,-28.35467 -2.23353,-46.28134c-0.54353,-3.71776 4.37826,-0.0833 8.50291,-1.17232c2.93075,0.08897 5.23026,-1.77716 6.16046,2.49775c1.05892,4.86649 0.37482,18.23177 0.59799,23.80915z" fill="#5671c0" stroke="none" stroke-width="0"/></g><g data-paper-data="{&quot;index&quot;:null}"><g><g><path d="M193.32058,273.69352c0,0 0.63571,-18.31854 1.6811,-26.50811c1.0414,-8.15841 4.06504,-19.79014 4.06504,-19.79014l63.97156,0.42572c0,0 3.17288,13.02482 3.49816,19.54905c0.60358,12.10567 -0.32964,27.10398 -0.32964,27.10398l-33.46599,-0.07217l-0.43235,-5.56327l-3.92117,-0.55397l0.21286,5.7848z" fill="#465b9c" stroke="#2e3c67" stroke-width="4" stroke-linecap="butt"/><path d="M237.1308,245.06311c0,0 0.1753,14.15353 -0.25751,18.2756c-0.23364,2.22519 -2.13396,4.50102 -2.13396,4.50102" fill="none" stroke="#2e3c67" stroke-width="4" stroke-linecap="round"/><path d="M226.56852,251.87481v-6.8117h10.56227" fill="none" stroke="#2e3c67" stroke-width="4" stroke-linecap="round"/><path d="M206.91133,241.27059c0,0 -2.78967,9.07125 -4.16556,12.36817c-1.0262,2.45897 -3.35283,5.64728 -3.35283,5.64728" fill="none" stroke="#2e3c67" stroke-width="4" stroke-linecap="round"/><path d="M262.51276,261.41468c0,0 -2.32663,-3.18831 -3.35283,-5.64728c-1.3759,-3.29692 -4.16556,-12.36816 -4.16556,-12.36816" data-paper-data="{&quot;index&quot;:null}" fill="none" stroke="#2e3c67" stroke-width="4" stroke-linecap="round"/><path d="M195.05545,276.60321l0.84834,-10.62262l28.63401,0.27335l-1.18049,10.62262z" fill="#465b9c" stroke="none" stroke-width="0" stroke-linecap="butt"/><path d="M234.89346,277.40872l0.58742,-10.62262l27.709,-0.27333l-0.05347,10.8z" data-paper-data="{&quot;index&quot;:null}" fill="#465b9c" stroke="none" stroke-width="0" stroke-linecap="butt"/></g><g stroke="#281a0d" stroke-width="4" stroke-linecap="butt"><path d="M195.28024,233.78123c0,0 -0.25621,-3.99719 0.03027,-5.66324c0.30957,-1.80034 2.16189,-3.91571 2.16189,-3.91571l9.76513,-0.35477c0,0 3.18861,3.80793 3.18861,5.46355c0,1.65561 -3.18861,4.47018 -3.18861,4.47018z" fill="#3f2b1a"/><path d="M206.44038,234.63269l1.79361,-10.21754l10.16371,0.07096c0,0 3.18861,3.80793 3.18861,5.46355c0,1.65561 -3.18861,4.47018 -3.18861,4.47018z" fill="#67472a"/><path d="M218.59698,234.84555l1.5943,-10.00468l10.36299,-0.14192c0,0 3.18861,3.80794 3.18861,5.46355c0,1.65561 -3.18861,4.47017 -3.18861,4.47017z" fill="#3f2b1a"/><path d="M231.62924,235.34676l0.26286,-10.72394l11.21012,-0.04174c0,0 3.36098,3.63487 3.43762,5.28847c0.07664,1.65359 -2.97779,4.63311 -2.97779,4.63311z" fill="#67472a"/><path d="M243.78082,234.91734l0.86073,-10.29821l10.61226,-0.46747c0,0 3.36098,3.63487 3.43762,5.28846c0.07664,1.65359 -2.97779,4.63311 -2.97779,4.63311z" fill="#3f2b1a"/><path d="M255.94242,234.70815l0.59146,-10.08535l8.42829,-0.68033c0,0 2.64231,3.63487 2.70255,5.28847c0.06026,1.65359 -2.34104,4.63311 -2.34104,4.63311z" fill="#67472a"/></g><path d="M200.37825,235.34436l1.1647,-12.76968l5.77809,-0.14841l0.62891,12.76968z" fill="#465b9c" stroke="#2e3c67" stroke-width="4" stroke-linecap="butt"/><g fill="#67472a" stroke="#281a0d" stroke-width="4" stroke-linecap="butt"><path d="M255.45078,233.57277l5.45478,-8.64844l9.47458,4.23795c0,0 1.27285,4.65756 0.58447,6.14035c-0.68838,1.48279 -4.71478,2.75636 -4.71478,2.75636z"/></g><path d="M223.3799,237.82568c0,0 -1.19573,-4.98486 -1.19573,-7.45029c0,-2.42996 1.19573,-7.23743 1.19573,-7.23743h17.53737c0,0 1.5943,5.71575 1.5943,8.30175c0,2.26808 -1.5943,6.38597 -1.5943,6.38597z" fill="none" stroke="#716b65" stroke-width="4" stroke-linecap="butt"/><path d="M254.38537,235.40882l0.62891,-12.76968l5.77809,0.14841l1.1647,12.76968z" data-paper-data="{&quot;index&quot;:null}" fill="#465b9c" stroke="#2e3c67" stroke-width="4" stroke-linecap="butt"/></g><path d="M217.30682,276.8301c0,3.03703 -13.18633,0.88695 -18.18507,0.88695c-2.67371,0 -0.39622,-11.51649 0.58127,-14.36842c1.16251,-3.39181 6.87552,-6.74074 11.87426,-6.74074c4.99873,0 5.72954,17.18519 5.72954,20.22222z" fill="#5671c0" stroke="none" stroke-width="0" stroke-linecap="butt"/><path d="M240.02264,278.32244c0,-3.03703 0.73081,-20.22222 5.72954,-20.22222c4.99873,0 10.71175,3.34894 11.87426,6.74075c0.97748,2.85193 3.25497,14.36842 0.58127,14.36842c-4.99873,0 -18.18506,2.15009 -18.18506,-0.88694z" data-paper-data="{&quot;index&quot;:null}" fill="#5671c0" stroke="none" stroke-width="0" stroke-linecap="butt"/></g><g data-paper-data="{&quot;index&quot;:null}" stroke="none" stroke-width="0" stroke-linecap="butt"><path d="M303.20135,98.88466c-1.71337,7.1451 -8.31977,11.68622 -14.75579,10.14289c-6.43603,-1.54333 -10.26451,-8.58671 -8.55115,-15.73177c1.71337,-7.1451 8.31978,-11.6862 14.75579,-10.14287c6.43605,1.54333 10.26451,8.58671 8.55115,15.73177z" fill="#d3f0f1"/><path d="M293.27368,83.86716c5.3419,1.28097 8.40005,7.62529 6.83056,14.17039c-1.56949,6.54511 -7.17231,10.81255 -12.51421,9.53159c-5.3419,-1.28097 -8.40005,-7.62526 -6.83056,-14.17038c1.56949,-6.54511 7.1723,-10.81256 12.5142,-9.5316z" fill="#ffffff"/></g><g data-paper-data="{&quot;index&quot;:null}" stroke="none" stroke-width="0" stroke-linecap="butt"><g data-paper-data="{&quot;index&quot;:null}"><path d="M294.85314,98.02907c-1.34224,5.5974 -5.64702,9.36361 -9.615,8.4121c-3.96799,-0.95151 -6.09658,-6.26042 -4.75434,-11.85782c1.34224,-5.59739 5.64699,-9.36361 9.61499,-8.41211c3.96799,0.95151 6.09659,6.26044 4.75436,11.85782z" fill="#41563d"/><path d="M285.67602,103.02252c-3.66851,-0.8797 -5.10103,-6.42818 -4.35979,-9.51927c0.74123,-3.09109 3.41479,-8.29924 9.25226,-6.89944c3.66851,0.8797 5.31609,7.12403 4.57485,10.21513c-0.74123,3.09108 -5.79879,7.08328 -9.46731,6.20359z" fill="#5f7d59"/></g><path d="M282.5266,91.49088c0.56365,-2.35051 2.92602,-3.79905 5.27653,-3.2354c2.35051,0.56365 3.79905,2.92603 3.23539,5.27653c-0.56365,2.35052 -2.92603,3.79905 -5.27653,3.23539c-2.35051,-0.56365 -3.79904,-2.92601 -3.23538,-5.27653z" fill="#8ebb85"/><path d="M285.12815,96.61542c0.3118,-1.30028 1.61866,-2.10159 2.91893,-1.78979c1.30028,0.3118 2.10159,1.61866 1.78979,2.91893c-0.3118,1.30028 -1.61866,2.1016 -2.91893,1.7898c-1.30028,-0.3118 -2.10159,-1.61867 -1.78979,-2.91894z" fill="#8ebb85"/></g><g data-paper-data="{&quot;index&quot;:null}" stroke="none" stroke-width="0" stroke-linecap="butt"><path d="M256.32441,73.0869c6.43603,1.54333 10.26451,8.58671 8.55115,15.73179c-1.71337,7.1451 -8.31977,11.6862 -14.75579,10.14287c-6.43603,-1.54333 -10.26451,-8.5867 -8.55115,-15.73177c1.71337,-7.1451 8.31978,-11.6862 14.75579,-10.14287z" fill="#d3f0f1"/><path d="M264.05784,88.51816c-1.5695,6.54513 -7.1723,10.81255 -12.5142,9.53159c-5.3419,-1.28097 -8.40005,-7.62528 -6.83057,-14.17038c1.56949,-6.54511 7.17231,-10.81256 12.51421,-9.5316c5.3419,1.28097 8.40004,7.62527 6.83055,14.17039z" fill="#ffffff"/></g><g data-paper-data="{&quot;index&quot;:null}" stroke="none" stroke-width="0" stroke-linecap="butt"><g data-paper-data="{&quot;index&quot;:null}"><path d="M252.90064,77.09403c3.96799,0.95151 6.09657,6.26044 4.75434,11.85782c-1.34224,5.5974 -5.64699,9.36361 -9.61499,8.41211c-3.96799,-0.95151 -6.0966,-6.26042 -4.75436,-11.85782c1.34224,-5.59739 5.647,-9.36361 9.615,-8.4121z" fill="#41563d"/><path d="M243.57583,84.296c0.74123,-3.09109 5.04151,-7.90916 8.71001,-7.02946c5.83748,1.3998 5.85831,7.25405 5.11708,10.34515c-0.74123,3.09108 -4.53426,7.38651 -8.20279,6.50682c-3.66851,-0.8797 -6.36556,-6.7314 -5.62432,-9.82252z" fill="#5f7d59"/></g><path d="M251.96028,88.50464c-2.35051,-0.56365 -3.79905,-2.92603 -3.23539,-5.27653c0.56365,-2.35051 2.92604,-3.79906 5.27654,-3.2354c2.35051,0.56365 3.79904,2.92602 3.23538,5.27654c-0.56365,2.35051 -2.92602,3.79905 -5.27653,3.2354z" fill="#8ebb85"/><path d="M249.6752,90.44643c-1.30028,-0.3118 -2.10159,-1.61866 -1.78979,-2.91893c0.3118,-1.30028 1.61866,-2.1016 2.91893,-1.7898c1.30028,0.3118 2.10159,1.61867 1.78979,2.91894c-0.3118,1.30028 -1.61866,2.10159 -2.91893,1.78979z" fill="#8ebb85"/></g><g data-paper-data="{&quot;index&quot;:null}" stroke-width="4" stroke-linecap="butt"><g data-paper-data="{&quot;index&quot;:null}" fill="#403328" stroke="#292018"><g><path d="M263.65273,256.67862c-5.79372,-0.68243 -19.44805,-12.98609 -19.44805,-12.98609c0,0 12.10631,-49.56425 15.51747,-67.4392c3.16077,-16.56297 5.54282,-25.19481 5.54282,-25.19481c0,0 8.32415,-2.29332 11.56394,-6.63515c1.97048,-2.64077 1.59379,-5.06776 3.20048,-5.02634c3.79903,0.09797 4.94464,2.51495 9.89742,6.90394c4.95275,4.38897 9.7377,12.02444 10.51055,14.76378c0.77284,2.73933 -6.1607,0.65405 -6.1607,0.65405c0,0 -6.70261,1.93009 -11.11232,2.89056c-3.4255,0.74612 -8.48595,24.30658 -8.48595,24.30658l-3.4473,14.19393l-0.48884,43.38917c0,0 -3.15686,10.64285 -7.08953,10.17964z"/></g><path d="M276.69191,146.2196c-2.62038,1.51437 -7.61226,3.10653 -7.61226,3.10653l3.51012,-9.82966l11.07558,-4.05874l-0.394,4.18211c0,0 -3.8503,5.02251 -6.57944,6.59975z"/></g><path d="M270.37207,166.45708c-0.45666,1.90434 -1.4615,3.29592 -2.24436,3.10821c-0.78287,-0.18773 -1.04732,-1.88369 -0.59066,-3.78803c0.45666,-1.90434 1.4615,-3.29592 2.24436,-3.10821c0.78287,0.18773 1.04733,1.88368 0.59066,3.78803z" fill="#dfbd28" stroke="#dfbd28"/><path d="M265.49773,187.87806c-0.45666,1.90433 -1.4615,3.29592 -2.24436,3.10821c-0.78287,-0.18773 -1.04732,-1.88369 -0.59066,-3.78803c0.45666,-1.90433 1.4615,-3.29592 2.24436,-3.10821c0.78287,0.18773 1.04732,1.88369 0.59066,3.78803z" fill="#dfbd28" stroke="#dfbd28"/><path d="M261.06334,208.87093c-0.45666,1.90433 -1.4615,3.29592 -2.24436,3.10821c-0.78287,-0.18773 -1.04732,-1.88369 -0.59066,-3.78803c0.45666,-1.90433 1.4615,-3.29592 2.24436,-3.10821c0.78287,0.18773 1.04732,1.88369 0.59066,3.78803z" fill="#dfbd28" stroke="#dfbd28"/><path d="M256.87586,228.67788c-0.45666,1.90433 -1.4615,3.29592 -2.24436,3.10821c-0.78287,-0.18773 -1.04732,-1.88369 -0.59066,-3.78803c0.45666,-1.90433 1.4615,-3.29592 2.24436,-3.10821c0.78287,0.18773 1.04732,1.88369 0.59066,3.78803z" fill="#dfbd28" stroke="#dfbd28"/></g><g data-paper-data="{&quot;index&quot;:null}" stroke="#292018" stroke-width="4"><path d="M191.94207,226.14637l17.45741,-36.66395l4.17195,-16.51039c0,0 9.83208,-22.1672 6.2566,-24.59213c-4.60279,-3.12164 -11.35572,-8.27831 -11.35572,-8.27831c0,0 -9.09638,-1.75863 -6.78613,-3.75864c2.31025,-2.00003 11.79191,-6.21442 19.78891,-7.49808c7.99699,-1.28367 10.57161,-2.80855 15.01554,-0.9299c1.87943,0.79453 0.18882,2.72578 1.10197,6.05804c1.50139,5.47875 9.94169,11.79214 9.94169,11.79214c0,0 -1.70892,8.79327 -6.61844,24.93688c-5.29843,17.42238 -16.92818,67.10093 -16.92818,67.10093c0,0 -15.2069,6.12993 -22.25973,3.73179c-4.78733,-1.62781 -9.78585,-15.38838 -9.78585,-15.38838z" fill="#403328" stroke-linecap="butt"/><path d="M237.51072,129.59717l1.08581,-5.75938l12.65733,11.24393l-1.02378,10.42587c0,0 -4.94939,-3.97604 -7.19654,-6.65762c-2.34043,-2.79289 -5.52281,-9.2528 -5.52281,-9.2528z" fill="#403328" stroke-linecap="butt"/><path d="M239.05936,154.42451l-2.86369,8.74056" fill="none" stroke-linecap="round"/><path d="M232.27522,175.67212l-1.55284,7.27617" fill="none" stroke-linecap="round"/><path d="M227.28997,196.78192l-1.99652,7.52551" fill="none" stroke-linecap="round"/><path d="M219.48942,225.14973l2.19818,-8.3665" fill="none" stroke-linecap="round"/></g><path d="M231.78434,87.98441c-0.21714,5.60698 0.36167,8.88138 -1.27067,9.46354c-1.63232,0.58216 -6.74511,-4.60819 -6.52799,-10.21518c0.21714,-5.60698 5.32257,-9.19752 7.03195,-8.91209c3.11129,0.51954 0.98385,4.05674 0.76669,9.66372z" data-paper-data="{&quot;index&quot;:null}" fill="#d9bb9a" stroke="#917c67" stroke-width="4" stroke-linecap="butt"/><g data-paper-data="{&quot;index&quot;:null}"><g><path d="M229.05986,78.2575c-0.87944,2.58806 -5.87308,3.47404 -5.87308,3.47404c0,0 -3.13697,0.68524 -3.71184,-2.18998c-0.46819,-2.34167 -3.55059,-6.66847 -3.55059,-6.66847c0,0 2.18668,-2.26556 4.87249,-4.7812c0.69407,-0.6501 -2.62799,-3.7366 -3.29462,-5.52559c-0.66661,-1.789 -0.75572,-9.94984 -0.75572,-9.94984c0,0 7.34951,-0.91185 9.96656,-4.96014c1.29856,-2.00871 2.13477,-5.55331 3.03158,-6.81081c5.10965,-7.16471 3.68566,-9.34441 8.79408,-12.51066c0.53386,-0.33089 9.52393,-3.84044 10.00214,-4.13995c8.32923,-5.21653 9.61973,-5.28967 20.10136,-3.92095c11.08342,1.4473 19.92225,-0.30774 25.63933,4.43671c3.73312,3.09803 13.08444,10.7208 19.81298,14.89646c5.22995,9.0316 6.97221,14.44746 5.53447,23.99361c-0.46122,3.06231 -3.42026,4.59123 -2.89801,8.0169c0.23691,1.55395 5.04108,14.04406 5.04108,14.04406c0,0 -2.37325,3.2681 -4.80783,4.19115c-2.41212,0.91455 -4.60359,-0.01597 -5.37508,0.98522c-1.68299,2.18404 -1.20635,4.93047 -1.99759,6.64594c-0.57564,1.24801 -1.29175,1.82119 -2.45677,2.84133c-1.96654,1.72195 -1.26216,-1.49007 -0.67706,-3.58202c1.09373,-3.91035 0.81044,-6.94165 0.66823,-6.30721c-1.7106,0.42134 -0.45459,0.6846 -6.87884,-2.05581c-0.35733,-0.15244 -0.99357,-3.21122 -2.17475,-4.70777c-1.1812,-1.49654 -1.39925,-5.93896 -1.39925,-5.93896c0,0 -11.23646,2.40212 -15.72953,1.75727c-6.48223,-0.93032 -14.31237,-0.44846 -17.85135,-1.67495c-8.65092,-2.99812 -12.36198,-4.96855 -15.85499,-5.88223c-3.25116,-0.85043 -9.76684,1.09704 -11.6123,-0.30415c0,0 -5.41071,3.23068 -6.56513,6.62797z" fill="#252931" stroke="#14161a" stroke-width="4" stroke-linecap="butt"/><path d="M298.14756,69.62344c-25.19598,4.23788 -46.23423,-4.4752 -65.09603,-6.954c-3.90468,-0.51315 -4.42498,-3.91603 -4.42498,-3.91603c0,0 8.04236,-5.6962 10.35884,-15.35636c1.11488,-4.6493 9.20795,-13.09311 18.63037,-16.42878c7.83223,-2.77271 22.10188,-0.26471 29.35269,-0.11013c4.69582,0.10011 3.69577,3.64834 7.73988,4.61811c11.47947,2.75274 8.81464,9.57706 10.8359,17.77666c1.47116,5.96805 -3.79589,19.76489 -7.39669,20.37054z" fill="#494c5e" stroke="none" stroke-width="0" stroke-linecap="butt"/><path d="M294.91431,40.20234c0.31426,-1.31051 -5.75505,0.40359 -5.94451,-1.47587c-0.13906,-1.37937 2.61649,-2.81811 3.63842,-4.60806c0.2941,-0.51511 -0.01686,-2.82798 -1.78814,-4.51901c-1.47425,-1.40744 -4.46637,-2.23643 -4.27458,-2.60711c0.77912,-1.50585 8.92916,1.85211 9.83629,2.06964c3.60113,0.86353 14.30301,13.83866 13.41205,17.55412c-0.05406,0.22541 0.24903,20.08789 -7.40243,26.63445c-1.10489,0.94535 -8.3603,-0.78306 -8.28696,-2.89498c0.02306,-0.66398 -3.99729,-2.74045 -2.45774,-4.5454c2.09742,-2.459 10.85845,-3.22773 10.75594,-4.04175c-0.29274,-2.32442 -14.11783,1.36257 -14.52797,-2.01369c-0.41011,-3.37627 15.23881,-8.17196 13.72891,-10.95143c-3.28959,0.47494 -11.96171,3.87506 -12.70222,2.32501c-2.24403,-4.69721 5.122,-7.21054 6.01295,-10.92596z" fill="#252931" stroke="none" stroke-width="0" stroke-linecap="butt"/><path d="M244.6032,61.67657c-0.89031,1.0117 1.7589,0.50176 3.45561,1.40889c1.6967,0.90713 7.65913,2.95494 5.91912,4.05976c-0.91753,0.58259 -10.49016,-2.67309 -11.24481,-2.14899c-1.39257,0.96715 -4.17054,1.44178 -4.87085,0.82554c-1.68532,-1.48306 -10.92424,-0.44243 -11.17031,-5.78434c-0.15986,-3.47005 6.89708,-8.21676 7.89104,-9.34625c0.15313,-0.17401 5.60791,-17.63468 15.43189,-19.84631c1.4186,-0.31937 10.07094,-0.79929 9.01907,1.03349c-0.33071,0.57621 -6.69993,5.71091 -8.90453,6.58709c-3.00348,1.19367 -5.75999,2.16761 -6.04981,2.93516c-0.82754,2.19176 13.64291,2.50666 12.72538,4.44122c-1.45745,3.07299 -16.95635,3.08121 -16.30256,4.64918c0.74546,1.78782 8.0892,0.73389 15.28669,0.92353c5.5743,0.14686 11.56129,1.51005 11.16523,2.54438c-0.36767,0.96022 -2.41284,3.20384 -4.3964,3.6686c-5.77115,1.35219 -16.07633,1.91442 -17.95481,4.04905z" fill="#252931" stroke="none" stroke-width="0" stroke-linecap="butt"/><path d="M305.36183,73.22211c0,0 -6.68408,4.5812 -7.70726,4.75248c-2.04604,0.34255 -6.07586,0.28265 -6.07586,0.28265" fill="none" stroke="#14161a" stroke-width="4" stroke-linecap="round"/><path d="M269.66918,36.44478c0.15865,-3.17022 3.74511,-5.27911 7.56113,-5.08812c3.816,0.19098 9.33876,0.46455 9.18009,3.63476c-0.15865,3.17022 -6.21218,6.43871 -10.02818,6.24773c-3.81599,-0.19099 -6.8717,-1.62415 -6.71305,-4.79436z" fill="#686c85" stroke="none" stroke-width="0" stroke-linecap="butt"/><path d="M255.4626,38.94155c0.0916,-1.8304 3.24358,-3.13403 5.44685,-3.02377c2.20327,0.11026 4.22139,1.31915 4.12977,3.14955c-0.0916,1.8304 -2.21706,2.50459 -4.42032,2.39434c-2.20327,-0.11026 -5.24793,-0.68969 -5.15632,-2.5201z" fill="#686c85" stroke="none" stroke-width="0" stroke-linecap="butt"/><path d="M280.21627,46.08177c-0.18613,-1.82321 1.12327,-2.22792 3.31788,-2.45197c2.19462,-0.22407 3.87812,-1.08445 4.06426,0.73876c0.18613,1.82321 -1.81296,2.81097 -4.00757,3.03501c-2.19462,0.22407 -3.18842,0.50141 -3.37456,-1.32181z" fill="#686c85" stroke="none" stroke-width="0" stroke-linecap="butt"/></g><path d="M312.04908,83.7693c-1.60004,-0.04664 -0.65756,3.39807 -1.70504,3.1469c-1.10246,-0.26437 -2.43225,-2.68107 -3.35868,-4.45943c-1.18704,-2.27868 -1.69099,-3.56828 -1.41384,-4.72406c0.3012,-1.25603 0.32088,-0.24577 1.80051,-0.22344c0.94449,0.01425 3.17814,-4.11545 4.15806,-3.88048c0.93358,0.22387 0.2488,2.28065 1.1144,4.43612c0.13767,0.34282 2.60353,-5.66174 3.07593,-3.14233c0.26207,1.39772 3.06741,5.32348 3.25657,9.34369c0.18916,4.02021 -3.2312,-2.76472 -4.54925,-2.17993c-1.31805,0.58479 1.26147,2.62237 1.01626,3.64491c0,0 -1.15308,-1.89661 -3.39492,-1.96194z" fill="#494c5e" stroke="none" stroke-width="0" stroke-linecap="butt"/><path d="M312.12563,53.58728c0.22872,1.07337 -1.51905,2.3316 -5.42913,3.16481c-3.91008,0.83319 -5.3329,1.10188 -5.56163,0.02851c-0.22873,-1.07336 1.92747,-2.8175 5.83757,-3.65071c3.91008,-0.83319 4.92445,-0.61599 5.1532,0.45737z" fill="#494c5e" stroke="none" stroke-width="0" stroke-linecap="butt"/></g><path d="M297.3222,88.40555c-5.45308,-0.68237 -12.5063,-0.79531 -12.20315,-3.78253c0.30316,-2.98722 12.31768,-3.07689 17.77075,-2.39452c5.45307,0.68238 7.81239,3.00039 7.50922,5.9876c-0.30316,2.98722 -7.62376,0.87183 -13.07681,0.18944z" data-paper-data="{&quot;index&quot;:null}" fill="#424956" stroke="#14161a" stroke-width="4" stroke-linecap="butt"/><path d="M244.2151,71.8849c1.08455,-2.79983 4.23853,-3.79578 9.40805,-1.9309c5.16951,1.86488 15.83676,7.39355 14.75222,10.19339c-1.08455,2.79983 -7.42198,-0.29827 -12.59148,-2.16312c-5.16951,-1.86488 -12.65333,-3.29951 -11.56877,-6.09935z" data-paper-data="{&quot;index&quot;:null}" fill="#424956" stroke="#14161a" stroke-width="4" stroke-linecap="butt"/><g data-paper-data="{&quot;index&quot;:null}" stroke-linecap="butt"><g><g><g><path d="M155.98042,164.57959c7.51629,-3.45575 10.02499,-3.30837 12.02128,-4.57838c8.46598,-5.38584 31.06867,-16.94981 31.06867,-16.94981c0,0 9.41174,6.53793 9.9723,9.48031c0.78779,4.13517 -3.68985,7.28088 -3.68985,7.28088c0,0 -7.22946,6.17722 -29.04202,16.31725c-0.70671,0.32854 -6.39093,3.51214 -7.73159,3.39107c-7.53936,-0.68095 -18.5799,-12.1914 -12.59878,-14.94133z" fill="#d9bb9a" stroke="#917c67" stroke-width="4"/><path d="M157.55024,166.26354c0.97445,-0.28413 15.4417,8.28702 15.51318,8.39235c0.42914,0.63227 -2.37668,1.78465 -4.65339,3.32995c-2.27671,1.5453 -4.35048,3.44762 -4.77963,2.81536c-0.42914,-0.63227 -14.37867,-10.43609 -12.10197,-11.98138c1.89745,-1.28789 3.44824,-1.80589 6.02179,-2.55628z" fill="#d9bb9a" stroke="none" stroke-width="0"/><path d="M203.52635,158.47068c-3.60066,1.78609 -12.21331,3.47652 -17.48049,4.86817c-2.38455,0.63003 -10.85712,6.67475 -17.37319,11.03091c-0.56717,0.37918 -6.50431,5.14118 -6.854,5.16187c-0.3849,0.02279 -16.39807,-6.7402 -7.52487,-10.02423c5.21361,-1.9296 11.22792,-4.34986 15.60185,-6.68872c6.4927,-3.47182 7.73985,-5.09963 17.09981,-9.7426c9.35997,-4.64296 17.28397,-7.7839 18.35754,-5.5585c1.07355,2.2254 7.53333,6.31014 -1.82665,10.9531z" fill="#ffdbb5" stroke="none" stroke-width="0"/></g><path d="M152.52508,164.93522c0,0 29.68939,-18.19421 37.98262,-23.3354c8.10582,-5.02501 22.64611,-10.71952 22.64611,-10.71952l7.4474,23.39658c0,0 -17.71172,10.26392 -24.53991,13.72242c-6.86353,3.47639 -25.10908,11.76329 -25.10908,11.76329c0,0 -6.92807,-4.04828 -9.71585,-6.11026c-3.20094,-2.36756 -8.71129,-8.71714 -8.71129,-8.71714z" fill="#403328" stroke="#292018" stroke-width="4"/></g><g><path d="M120.57907,187.42529c6.12184,-4.15515 13.14516,-4.48764 15.68704,-0.74265c2.54187,3.74498 -0.36027,10.1493 -6.48209,14.30443c-0.79594,0.54024 -4.06934,1.05515 -6.59877,1.58452c-1.71164,0.35824 -2.97068,1.78015 -4.3975,1.92552c-2.07134,0.21101 -1.64103,-0.44984 -2.5196,-0.55673c-2.23908,-0.27241 -0.8876,-1.5469 -2.6222,-2.10458c-1.75196,-0.56329 -1.67735,-0.3504 -2.51305,-1.58164c-2.54188,-3.74499 3.32432,-8.67375 9.44617,-12.82889z" fill="#917c67" stroke="none" stroke-width="NaN"/><g><path d="M119.69668,180.01372c2.05887,-2.67227 12.8445,-4.41202 19.88918,-7.65095c7.51629,-3.45575 7.84481,-2.64329 9.84109,-3.91328c3.62679,-1.6725 18.01987,13.13064 15.65179,14.78945c-4.68094,2.17604 -18.0228,12.19192 -27.1876,17.33458c-11.4855,6.44488 -8.4971,-0.70657 -9.39535,-2.06514c-0.87511,-1.32357 10.65224,-6.74059 9.36381,-8.96006c-1.37858,-2.37472 -2.86702,-3.50118 -7.42723,-2.74178c-5.01396,0.83496 -19.81283,12.4125 -21.72741,11.19717c-3.63916,-2.31004 4.77083,-9.91573 10.9917,-17.99001z" fill="#d9bb9a" stroke="#917c67" stroke-width="4"/><path d="M159.57222,180.75625c-0.3849,0.02279 -0.10632,1.48891 -8.97,6.60346c-2.18378,1.26012 -3.422,2.71584 -5.22732,3.25127c-3.55675,1.05487 -3.65858,-5.89033 -4.8921,-6.92531c-3.06036,-2.56776 -7.01903,-1.55857 -9.44285,-0.78898c-5.1582,1.63777 -11.86318,7.20928 -15.7001,9.51899c-4.70591,2.83282 2.49045,-6.69678 7.5896,-11.01608c1.90183,-1.61097 7.34587,-1.39538 12.00584,-3.03363c4.65996,-1.63822 6.1518,-2.89045 15.02503,-6.1745c5.21361,-1.9296 12.19389,8.41198 9.61191,8.56476z" fill="#ffdbb5" stroke="none" stroke-width="0"/></g><path d="M130.89759,173.37685l19.72224,-7.47005l17.05301,15.76005l-18.41943,13.80661c0,0 -2.73017,-7.45909 -8.45624,-12.52938c-5.38186,-4.76549 -9.89956,-9.56726 -9.89956,-9.56726z" fill="#403328" stroke="#292018" stroke-width="4"/><path d="M148.41046,169.7161l7.57444,-4.28352l15.4986,11.99133l-8.43745,4.65489z" fill="#403328" stroke="none" stroke-width="0"/></g></g><path d="M226.13904,154.06277c0,0 -1.07234,-0.01528 -4.05511,1.2861c-2.98278,1.30138 -6.67973,-1.82396 -6.95286,-2.64022c-0.8254,-2.46661 -3.318,-18.62359 -3.318,-18.62359c0,0 1.74834,-1.08033 2.8183,-1.21407c1.1332,-0.14163 4.56955,0.3802 4.56955,0.3802z" fill="#403328" stroke="none" stroke-width="NaN"/></g><g stroke-linecap="butt"><g><path d="M241.83281,195.1604c0.26192,-1.32038 4.91946,-5.87595 5.43397,-6.46133c15.88025,-18.06724 17.76479,-22.64745 17.76479,-22.64745c0,0 10.36177,-4.02225 14.10684,-2.10021c2.66485,1.36766 6.28293,12.24125 6.28293,12.24125c0,0 -17.46925,18.42369 -25.02413,25.02699c-1.78147,1.55708 -2.34762,4.00551 -7.78294,10.242c-4.32517,4.96273 -12.2545,-8.87592 -10.78149,-16.30128z" fill="#d9bb9a" stroke="#917c67" stroke-width="4"/><path d="M247.2906,214.53705c-2.12467,1.74845 -7.59625,-14.39977 -8.08181,-14.98985c-0.48556,-0.59005 1.92441,-2.04312 4.04908,-3.79158c2.12467,-1.74845 4.02161,-4.11534 4.50719,-3.5253c0.08089,0.09829 4.22382,16.39557 3.67641,17.25034c-1.44573,2.25743 -2.3801,3.59918 -4.15086,5.05637z" fill="#d9bb9a" stroke="none" stroke-width="0"/><path d="M282.90839,168.90549c0.92691,0.83855 0.04181,2.97178 -1.97767,5.86821c-1.9725,2.82907 -5.0272,6.38627 -8.53264,10.1764c-7.09429,7.67053 -9.00778,8.40795 -14.16983,13.6579c-3.47752,3.53672 -7.49577,8.62427 -10.81746,13.08202c-5.65327,7.5868 -7.62544,-9.68369 -7.495,-10.04656c0.11848,-0.32965 6.36164,-4.68271 6.8854,-5.11994c6.01708,-5.02297 14.20598,-11.44675 15.48294,-13.55681c2.82068,-4.66085 6.87155,-12.44712 9.60064,-15.39788c7.09429,-7.67053 9.19134,-0.32097 11.02361,1.33665z" fill="#ffdbb5" stroke="none" stroke-width="0"/></g><path d="M245.3922,203.86028c-1.19201,-3.25616 -3.12202,-11.04472 -3.12202,-11.04472c0,0 12.48086,-15.91557 17.75188,-21.52003c5.24391,-5.5756 19.96568,-20.20134 19.96568,-20.20134l21.08262,15.01949c0,0 -9.56416,12.34397 -16.67133,18.7035c-7.27145,6.50655 -33.10048,29.8593 -33.10048,29.8593c0,0 -4.53771,-7.07746 -5.90638,-10.81619z" fill="#403328" stroke="#292018" stroke-width="4"/></g><path d="M271.61511,161.59215l7.21525,-14.11395l14.57167,2.49123c0,0 6.25407,10.60681 6.06619,13.3772c-0.25743,3.79582 -7.4689,7.30629 -7.4689,7.30629z" fill="#403328" stroke="none" stroke-width="0" stroke-linecap="butt"/><g stroke-linecap="butt"><path d="M214.62653,222.74069c-7.0717,2.17558 -14.58692,3.66771 -15.91782,-0.65834c-0.43755,-1.42226 -0.31818,-1.23087 0.33863,-2.94999c0.65029,-1.70205 -1.18952,-1.44522 -0.00102,-3.36232c0.46634,-0.75222 -0.31843,-0.83007 1.14222,-2.31381c1.00617,-1.02206 2.90312,-1.11451 4.25353,-2.22556c1.99561,-1.64188 4.44544,-3.87318 5.36486,-4.15605c7.0717,-2.17558 13.88334,-0.43227 15.21423,3.89377c1.3309,4.32606 -3.32294,9.59667 -10.39464,11.77225z" fill="#917c67" stroke="none" stroke-width="NaN"/><g><path d="M198.94505,225.38434c0.2499,-2.25392 18.54078,-6.55403 22.32933,-9.9428c3.44569,-3.0821 3.49829,-4.94803 2.50842,-7.50926c-0.92516,-2.39376 -12.3634,3.20894 -12.84835,1.69815c-0.49774,-1.55075 -7.94618,-3.69424 4.26769,-8.62114c9.74601,-3.9314 25.907,-8.07203 30.53332,-10.36195c2.7757,-0.80936 5.31741,19.6805 1.74347,21.46314c-2.23976,0.76261 -1.81154,1.52725 -9.21017,5.2282c-6.93442,3.46874 -15.04007,10.7937 -18.41284,10.72771c-10.19085,-0.19935 -21.38591,1.60212 -20.91087,-2.68205z" fill="#d9bb9a" stroke="#917c67" stroke-width="4"/><path d="M244.89365,209.35311c-8.11372,4.86689 -10.02398,5.24714 -14.21763,7.85715c-4.19366,2.61003 -7.4318,6.99167 -9.87843,7.46723c-6.55985,1.27507 -18.49634,0.9261 -13.34208,-0.97234c4.20248,-1.54788 12.74391,-3.29212 17.24895,-6.29112c2.11689,-1.4092 5.38108,-3.86579 5.29289,-7.85972c-0.03553,-1.6098 -5.38955,-6.03483 -2.34125,-8.14931c1.54724,-1.07326 3.45756,-1.1283 5.80691,-2.04335c9.53567,-3.7141 10.50503,-2.57944 10.76364,-2.86544c1.73474,-1.91852 5.43432,9.99726 0.66696,12.85688z" fill="#ffdbb5" stroke="none" stroke-width="0"/></g><path d="M230.77252,209.77307c-0.37239,-7.63917 -4.4827,-14.43601 -4.4827,-14.43601l22.29505,-5.72963l1.62388,23.1635l-18.16728,10.71065c0,0 -0.91899,-6.52855 -1.26897,-13.70851z" fill="#403328" stroke="#292018" stroke-width="4"/><path d="M245.36858,192.95889l8.9104,-3.66922l-0.34339,19.59288l-8.08071,3.22839z" fill="#403328" stroke="none" stroke-width="0"/></g><path d="M116.32999,260.62209l-48.95097,-7.36206l26.79121,-41.62488l88.93279,2.52715z" fill="#f7b7ff" stroke="none" stroke-width="0" stroke-linecap="butt"/></g></g></svg>