<svg version="1.1" xmlns="http://www.w3.org/2000/svg" xmlns:xlink="http://www.w3.org/1999/xlink" width="215.30846" height="307.28419" viewBox="0,0,215.30846,307.28419"><g transform="translate(-111.7346,-109.062)"><g data-paper-data="{&quot;isPaintingLayer&quot;:true}" fill-rule="nonzero" stroke-linejoin="miter" stroke-miterlimit="10" stroke-dasharray="" stroke-dashoffset="0" style="mix-blend-mode: normal"><path d="M264.76496,275.97071c0,0 -14.45046,-2.45693 -22.43087,-10.08681c-9.20624,-8.80186 -20.37753,-38.25485 -20.37753,-38.25485" data-paper-data="{&quot;origRot&quot;:0,&quot;index&quot;:null}" fill="none" stroke="#000000" stroke-width="9" stroke-linecap="round"/><g stroke-linecap="butt"><path d="M309.045,262.25637l0.78731,-12.49374l4.40896,0.27783l-0.78731,12.49374z" fill="#ff9000" stroke="#d15600" stroke-width="3"/><path d="M249.24275,282.12724l2.45278,-38.92279l59.52092,3.75079l-1.15069,18.26008l-43.11781,-2.2347l-1.47221,20.16956z" fill="#00a2ff" stroke="#006bd2" stroke-width="3"/><text transform="translate(257.16484,255.3914) rotate(3.60581) scale(0.14293,0.17136) skewX(0)" font-size="40" xml:space="preserve" fill="#006bd2" fill-rule="nonzero" stroke="none" stroke-width="1" stroke-linecap="butt" stroke-linejoin="miter" stroke-miterlimit="10" stroke-dasharray="" stroke-dashoffset="0" font-family="Marker" font-weight="normal" text-anchor="start" style="mix-blend-mode: normal"><tspan x="0" dy="0">blaster</tspan></text></g><path d="M253.6584,283.08103c0,0 -23.26063,3.03625 -28.95699,-7.11075c-5.69636,-10.14698 -2.82404,-49.50122 -2.82404,-49.50122" data-paper-data="{&quot;origRot&quot;:0}" fill="none" stroke="#000000" stroke-width="9" stroke-linecap="round"/><path d="M220.55441,223.3791l24.90126,77.22266" data-paper-data="{&quot;origRot&quot;:0}" id="ID0.8172772801481187" fill="none" stroke="#000000" stroke-width="9" stroke-linecap="round"/><path d="M322.54306,392.33236l-11.71863,6.31564l-66.04358,-99.06948" data-paper-data="{&quot;origRot&quot;:0}" id="ID0.7014842056669295" fill="none" stroke="#000000" stroke-width="9" stroke-linecap="round"/><path d="M299.18336,406.45944l-11.70662,4.17532l-42.859,-110.97246" data-paper-data="{&quot;origRot&quot;:0,&quot;index&quot;:null}" id="ID0.7014842056669295" fill="none" stroke="#000000" stroke-width="9" stroke-linecap="round"/><path d="M197.53357,153.54c25.35854,-8.50758 52.65079,4.671 60.95898,29.43521c8.30819,24.7642 -5.51385,51.7363 -30.87238,60.24389c-25.35854,8.50758 -52.65079,-4.671 -60.95898,-29.43521c-8.30819,-24.7642 5.51385,-51.7363 30.87238,-60.24389z" data-paper-data="{&quot;index&quot;:null}" fill="#dbe6e9" stroke="#000000" stroke-width="9" stroke-linecap="butt"/><path d="M204.12897,160.11364c21.59438,-7.24474 45.02697,4.54855 52.33817,26.34104c7.3112,21.79251 -4.26759,45.33182 -25.86196,52.57655c-21.59438,7.24474 -45.02697,-4.54855 -52.33817,-26.34104c-7.3112,-21.79251 4.26759,-45.33182 25.86196,-52.57655z" data-paper-data="{&quot;index&quot;:null}" fill="#ffffff" stroke="none" stroke-width="0" stroke-linecap="butt"/><path d="M149.421,202.51684l-11.84967,8.51868l-1.78129,-4.38804l-21.46696,-22.36842l26.46627,-11.2333c0,0 7.15027,-6.34459 10.50133,-11.84806c2.27473,-3.73581 3.91401,-11.82643 3.91401,-11.82643c0,0 5.92827,0.59243 8.1726,4.08691c1.242,1.93382 0.76061,9.82247 0.76061,9.82247l7.47243,-13.78549c0,0 0.93334,-9.20287 5.32128,-10.28631c4.38794,-1.08344 15.61709,5.11638 15.61709,5.11638l-1.40751,-9.37509l4.25187,2.38278l-0.06219,-5.00531l25.94732,-19.14523c0,0 6.81151,7.2188 6.46652,12.80739c-0.34499,5.58857 -7.84044,9.44902 -7.84044,9.44902c0,0 7.79039,-4.12725 11.88654,-7.21178c4.79586,-3.61143 10.89816,-9.94581 10.89816,-9.94581l5.97578,15.43327l15.56513,-21.88909c0,0 12.31207,21.10377 13.57199,34.39334c1.32059,13.92944 -3.57857,23.66002 -12.94145,35.70457c-2.66391,3.42689 -1.86803,8.45472 -1.86803,8.45472l-20.44041,-5.17462c0,0 -7.28873,12.34904 -14.12626,15.95026c-6.83752,3.60122 -16.27444,-3.01731 -16.27444,-3.01731c0,0 -1.98586,9.43079 -8.31541,12.24596c-6.32956,2.8152 -19.09476,3.19391 -19.09476,3.19391c0,0 -2.31757,8.48178 -5.26492,11.17566c-2.94737,2.69389 -21.09448,12.91691 -21.09448,12.91691c0,0 0.12006,-3.60283 0.08295,-7.35361c-0.04032,-4.07549 -8.24222,1.55564 -8.24222,1.55564z" data-paper-data="{&quot;index&quot;:null,&quot;origRot&quot;:0}" fill="#5ef3a3" stroke="#2abc90" stroke-width="3" stroke-linecap="butt"/><path d="M232.25045,199.94391c1.9553,5.93114 2.50901,11.09395 1.23674,11.53149c-1.27226,0.43753 -3.88872,-4.0159 -5.84401,-9.94704c-1.9553,-5.93114 -2.509,-11.09396 -1.23674,-11.53149c1.27226,-0.43753 3.88872,4.01591 5.84401,9.94704z" fill="#000000" stroke="#000000" stroke-width="2" stroke-linecap="butt"/><path d="M220.27544,204.0316c1.9553,5.93114 2.509,11.09396 1.23674,11.53149c-1.27226,0.43753 -3.88872,-4.0159 -5.84401,-9.94704c-1.9553,-5.93114 -2.509,-11.09396 -1.23674,-11.53149c1.27226,-0.43753 3.88872,4.01591 5.84401,9.94704z" fill="#000000" stroke="#000000" stroke-width="2" stroke-linecap="butt"/><g fill="#5ef3a3" stroke="#2abc90" stroke-width="2.5" stroke-linecap="butt"><path d="M255.44645,239.71161c0.17955,2.37245 5.73285,1.14822 2.67225,4.75697c-1.76757,2.08415 -3.76681,1.98659 -6.29643,3.02055c-7.58886,3.10187 -28.86667,11.32377 -48.29113,14.87784c-6.06046,1.10888 0.164,-2.29246 -0.44825,-4.48159c-0.66552,-2.37959 -10.18978,1.40582 -3.98814,-5.81512c2.12561,-2.475 35.37406,-15.14587 56.62472,-18.17585c9.0621,-1.2921 -0.48804,2.97584 -0.27301,5.81719z" data-paper-data="{&quot;origPos&quot;:null}"/><path d="M208.33204,265.26616c5.26723,0.61484 7.34257,17.9269 6.30578,25.87017c-1.0368,7.94328 -5.47488,5.82396 -10.74212,5.20912c-5.26723,-0.61484 -9.36904,0.50761 -8.33224,-7.43568c1.0368,-7.94328 7.50134,-24.25846 12.76857,-23.64362z" data-paper-data="{&quot;origPos&quot;:null,&quot;origRot&quot;:0,&quot;index&quot;:null}"/><path d="M198.54068,264.99738c3.54491,3.94403 -6.34519,18.30369 -12.37521,23.57716c-6.03003,5.27348 -7.95813,0.74903 -11.50304,-3.19499c-3.54491,-3.94403 -7.36425,-5.81416 -1.33422,-11.08763c6.03003,-5.27348 21.66756,-13.23859 25.21248,-9.29455z" data-paper-data="{&quot;origPos&quot;:null,&quot;origRot&quot;:0,&quot;index&quot;:null}"/></g><g data-paper-data="{&quot;index&quot;:null,&quot;origRot&quot;:0}" id="ID0.16701374808326364" stroke="#000000" stroke-linecap="round"><path d="M224.61764,229.76299c-2.26179,2.20157 -5.06358,3.32844 -7.86708,2.8568c-2.80357,-0.47158 -9.90986,-2.951 -10.79576,-5.5921c-0.66516,-2.00301 -2.84526,-12.1181 6.72109,-12.31668c14.58164,-0.30269 14.20348,12.85007 11.94174,15.05198z" id="ID0.38423543982207775" fill="#ff9999" stroke-width="0.67374"/><path d="M225.14779,227.87874c1.12965,0.43191 -1.14342,2.33317 -2.19203,2.93112c-2.0079,1.10642 -4.48329,1.65528 -6.72118,1.49942c-1.70902,-0.11829 -4.14281,-1.32394 -6.58719,-2.65099c-2.44438,-1.32705 -4.63026,-2.53443 -3.37241,-2.75605c4.6698,-0.72676 14.67523,-0.61761 18.87282,0.97651z" id="ID0.38423543982207775" fill="#ffcccc" stroke-width="0.3318"/></g></g></g></svg>