<svg version="1.1" xmlns="http://www.w3.org/2000/svg" xmlns:xlink="http://www.w3.org/1999/xlink" width="321.52592" height="488.36308" viewBox="0,0,321.52592,488.36308"><g transform="translate(-97.21078,92.8597)"><g data-paper-data="{&quot;isPaintingLayer&quot;:true}" fill-rule="nonzero" stroke-linejoin="miter" stroke-miterlimit="10" stroke-dasharray="" stroke-dashoffset="0" style="mix-blend-mode: normal"><g data-paper-data="{&quot;index&quot;:null}" stroke-linecap="butt"><g><g><path d="M216.72051,124.98266c0.54333,1.23161 -0.65609,7.63528 -0.74147,8.40992c-2.63486,23.90952 -1.54934,28.74185 -1.54934,28.74185c0,0 -6.17671,9.24083 -10.34671,9.81631c-2.96718,0.40949 -12.17079,-6.41833 -12.17079,-6.41833c0,0 3.73148,-25.11341 6.12828,-34.85688c0.56517,-2.29752 -0.37645,-4.62748 0.49515,-12.85409c0.69358,-6.54635 15.12944,0.23515 18.18488,7.1612z" fill="#d9bb9a" stroke="#917c67" stroke-width="4"/><path d="M201.13018,112.24758c0.73639,-2.65123 14.48514,7.43218 15.22143,7.63671c0.73628,0.2045 -0.40328,2.7776 -1.13966,5.42886c-0.73639,2.65123 -0.93136,5.67821 -1.66762,5.4737c-0.12266,-0.03407 -12.86893,-11.00209 -12.91122,-12.01624c-0.11171,-2.67836 -0.11664,-4.3134 0.4971,-6.52301z" fill="#d9bb9a" stroke="none" stroke-width="0"/><path d="M198.15247,170.0576c-2.45182,-0.30581 -2.00887,-8.81808 -0.60174,-19.17117c1.40713,-10.35308 2.55079,-12.05515 3.76486,-19.31704c0.81786,-4.89207 1.18847,-11.3645 1.35012,-16.92139c0.27509,-9.45746 11.8023,3.55344 11.90375,3.92543c0.09218,0.33795 -2.52197,7.48586 -2.69991,8.14449c-2.04452,7.56675 -5.06353,17.52708 -4.89819,19.98791c0.36518,5.43566 1.51678,14.13678 0.97549,18.11949c-1.40713,10.35308 -7.34258,5.53809 -9.79439,5.23229z" fill="#ffdbb5" stroke="none" stroke-width="0"/></g><path d="M208.81258,119.9012c2.84497,1.98232 8.89558,7.25266 8.89558,7.25266c0,0 -1.08599,20.1965 -2.18583,27.81122c-1.09416,7.57551 -4.75555,28.00192 -4.75555,28.00192l-25.88478,-0.19932c0,0 0.74744,-15.5977 2.91747,-24.88458c2.22021,-9.50158 9.96855,-43.44936 9.96855,-43.44936c0,0 7.77795,3.19135 11.04453,5.46747z" fill="#403328" stroke="#292018" stroke-width="4"/></g><g><path d="M208.86536,76.97444c1.98008,-7.12891 4.77488,-14.26291 9.13594,-13.05164c1.43377,0.39823 1.20823,0.39561 2.30202,1.87557c1.08296,1.46528 1.85849,-0.22272 2.83242,1.81181c0.38214,0.79829 0.87077,0.17931 1.33298,2.20942c0.31839,1.39843 -0.62641,3.04596 -0.41867,4.78228c0.307,2.56593 0.86556,5.83217 0.60813,6.75904c-1.98008,7.12891 -7.12056,11.92608 -11.48162,10.7148c-4.36105,-1.21129 -6.29123,-7.97236 -4.31118,-15.10127z" fill="#917c67" stroke="none" stroke-width="NaN"/><g><path d="M215.09282,62.34171c1.76361,1.42558 -4.47548,19.14904 -3.66375,24.16682c0.73825,4.56365 2.28145,5.61391 4.97225,6.161c2.51487,0.51129 3.96256,-12.14289 5.49642,-11.73682c1.57444,0.41681 7.39528,-4.70097 4.96029,8.24214c-1.94299,10.32789 -7.16815,26.17151 -7.73358,31.30248c-0.81474,2.77413 -19.44228,-6.13142 -19.01697,-10.10256c0.56517,-2.29752 -0.30968,-2.34911 0.56191,-10.5757c0.81692,-7.71045 -0.98261,-18.48627 0.89125,-21.29137c5.66189,-8.47563 10.17997,-18.87571 13.53215,-16.16597z" fill="#d9bb9a" stroke="#917c67" stroke-width="4"/><path d="M203.82359,109.68386c0.27509,-9.45746 0.98468,-11.27134 1.04728,-16.21047c0.06258,-4.93912 -1.88208,-10.02859 -0.96361,-12.34561c2.46257,-6.21234 9.19154,-16.07755 8.01178,-10.71297c-0.96193,4.37394 -4.09762,12.50818 -4.00045,17.91927c0.04564,2.54265 0.35492,6.6162 3.76628,8.69509c1.375,0.83794 7.98831,-1.28583 8.12581,2.42148c0.0698,1.88175 -0.9137,3.52035 -1.40958,5.99238c-2.01261,10.03361 -3.49087,10.23831 -3.3894,10.61031c0.68064,2.49535 -11.34974,-0.81265 -11.1881,-6.36953z" fill="#ffdbb5" stroke="none" stroke-width="0"/></g><path d="M211.0827,97.56414c6.63474,3.80471 14.57519,4.0071 14.57519,4.0071l-7.19376,21.86659l-20.38458,-11.11996l0.77324,-21.07534c0,0 5.99402,2.74561 12.22989,6.32161z" fill="#403328" stroke="#292018" stroke-width="4"/><path d="M217.37536,118.92216l-1.71334,9.48276l-16.3167,-10.85193l1.63733,-8.54633z" fill="#403328" stroke="none" stroke-width="0"/></g></g><path d="M190.87395,101.09537l3.55635,-159.88338l5.21307,-5.23424l32.59134,171.13518z" fill="#ffffff" stroke="none" stroke-width="0" stroke-linecap="butt"/><path d="M155.55946,-36.39856l-9.54434,-6.56457l27.23451,-4.71656l-0.80066,-4.20956l-34.9853,2.98101l-11.30678,-13.00524c0,0 87.5725,-7.72685 106.8846,-10.36361c7.24701,-0.98945 14.22896,-6.17265 14.22896,-6.17265c0,0 8.94818,12.38108 9.76453,19.53171c0.91311,7.99809 -4.50387,29.98224 -4.50387,29.98224c0,0 -10.80335,-9.45532 -18.87762,-9.3427c-16.33025,0.22765 -78.09405,1.87998 -78.09405,1.87998z" fill="#ffffff" stroke="none" stroke-width="0" stroke-linecap="butt"/><path d="M187.17787,-74.83733l5.48794,-18.02237l7.83377,17.10386l-6.35298,6.02782z" fill="#ffffff" stroke="none" stroke-width="0" stroke-linecap="butt"/><g data-paper-data="{&quot;index&quot;:null}"><path d="M415.18084,311.63076c2.35185,2.74416 1.33896,3.74682 1.33896,3.74682c0,0 -7.55887,16.37905 -17.49971,29.58432c-2.19315,2.91336 -5.25865,0.5902 -8.32527,2.03544c-2.42042,1.14072 -2.01937,-0.07176 -2.5783,0.63721c-1.85785,2.35652 -2.46193,1.78615 -2.46193,1.78615c0,0 -13.45029,-9.47226 -14.87362,-10.49501c-2.72442,-1.95764 -11.11503,-8.79157 -11.11503,-8.79157l16.55822,-29.55482l11.09272,3.46947c0,0 6.69919,3.71334 13.6347,2.14655c4.18204,-0.94474 11.7998,2.60079 14.22927,5.43547z" fill="#403328" stroke="#292018" stroke-width="4" stroke-linecap="butt"/><path d="M404.38457,321.36802l7.32935,-8.56351l1.26699,2.75064c0,0 -5.01818,10.21961 -7.92191,15.14958c-2.5478,4.32566 -7.62596,10.93 -7.62596,10.93c0,0 -0.58503,2.79954 -2.79553,1.34678c-2.2105,-1.45276 9.74708,-21.61352 9.74708,-21.61352z" fill="#775f4a" stroke="none" stroke-width="0" stroke-linecap="butt"/><path d="M387.83616,331.39569c0,0 2.65467,-6.88777 5.51509,-11.66202c2.58691,-4.31771 9.09233,-11.53322 9.09233,-11.53322" fill="none" stroke="#292018" stroke-width="4" stroke-linecap="round"/><path d="M388.22358,304.64465c0,0 -0.93715,6.42247 -2.50032,9.44602c-1.89479,3.66498 -8.06624,10.99208 -8.06624,10.99208l-10.42566,-3.03107l15.35649,-10.28526" fill="none" stroke="#292018" stroke-width="4" stroke-linecap="round"/><path d="M376.76125,323.53884l0.6298,-16.46141l7.40146,3.27234" fill="none" stroke="#292018" stroke-width="4" stroke-linecap="round"/></g><g data-paper-data="{&quot;index&quot;:null}"><path d="M382.97168,355.65276c2.35185,2.74416 1.33896,3.74682 1.33896,3.74682c0,0 -7.55887,16.37905 -17.49971,29.58432c-2.19315,2.91336 -5.25865,0.5902 -8.32527,2.03544c-2.42042,1.14072 -2.01937,-0.07176 -2.5783,0.63721c-1.85785,2.35652 -2.46193,1.78615 -2.46193,1.78615c0,0 -13.45029,-9.47226 -14.87362,-10.49501c-2.72442,-1.95764 -11.11503,-8.79157 -11.11503,-8.79157l16.55822,-29.55482l11.09272,3.46947c0,0 6.69919,3.71334 13.6347,2.14655c4.18204,-0.94474 11.7998,2.60079 14.22927,5.43547z" fill="#403328" stroke="#292018" stroke-width="4" stroke-linecap="butt"/><path d="M372.17543,365.39002l7.32935,-8.56351l1.26699,2.75064c0,0 -5.01818,10.21961 -7.92191,15.14958c-2.5478,4.32566 -7.62596,10.93 -7.62596,10.93c0,0 -0.58503,2.79954 -2.79553,1.34678c-2.2105,-1.45276 9.74708,-21.61352 9.74708,-21.61352z" fill="#775f4a" stroke="none" stroke-width="0" stroke-linecap="butt"/><path d="M355.62701,375.41769c0,0 2.65467,-6.88777 5.51509,-11.66202c2.58691,-4.31771 9.09233,-11.53322 9.09233,-11.53322" fill="none" stroke="#292018" stroke-width="4" stroke-linecap="round"/><path d="M356.01442,348.66666c0,0 -0.93715,6.42247 -2.50032,9.44602c-1.89479,3.66498 -8.06624,10.99208 -8.06624,10.99208l-10.42566,-3.03107l15.35649,-10.28526" fill="none" stroke="#292018" stroke-width="4" stroke-linecap="round"/><path d="M344.55209,367.56086l0.6298,-16.46141l7.40146,3.27234" fill="none" stroke="#292018" stroke-width="4" stroke-linecap="round"/></g><path d="M123.59732,142.7552c-0.56183,-6.43702 -6.62797,-24.05493 -6.62797,-24.05493l72.55656,-34.80485c0,0 9.13537,17.49958 13.57919,22.82032c2.89644,3.468 4.71719,3.50877 4.71719,3.50877c0,0 -0.41847,6.51658 -3.29898,7.98625c-0.92244,0.47064 -2.90286,1.46598 -4.18994,2.17343c-0.51343,0.28219 3.15938,8.61719 3.15938,8.61719c0,0 -1.8919,5.10239 -4.9309,6.71258c-1.26066,0.66793 -5.87268,2.11032 -7.18688,2.85601c-1.48101,0.84036 -3.91152,3.74712 -5.87281,5.73449c-3.16978,3.21188 -8.54306,5.39105 -8.54306,5.39105c0,0 -5.02811,0.62798 -8.85142,0.68279c-3.15964,0.04531 -4.97056,-0.58874 -7.10464,0.26083c-1.42985,0.56922 -10.64161,8.15435 -11.41899,8.50259c-1.89043,0.84694 -11.27396,0.86763 -11.27396,0.86763c0,0 -1.28346,-6.86231 -2.45926,-6.38708c-1.56983,0.63448 -4.92109,-1.62987 -5.83712,-1.3135c-2.8323,0.97816 -7.28375,-2.73334 -7.28375,-2.73334c0,0 1.28168,-2.07374 0.86741,-6.82023z" data-paper-data="{&quot;index&quot;:null}" fill="#14161a" stroke="#14161a" stroke-width="4" stroke-linecap="butt"/><path d="M185.59773,225.52834c0,0 -17.09475,-28.30035 -21.43532,-30.47329c-0.77082,-0.38591 -7.5688,-3.20819 -13.40882,-1.03918c-4.44472,1.65079 -8.30091,8.99575 -8.71961,6.11188c-0.96884,-6.67307 4.4187,-14.52609 7.86033,-18.53875c7.00505,-8.16733 13.04378,-21.80935 20.42954,-27.1404c8.07242,-5.82666 19.70558,-8.72097 33.31154,-12.65603c13.22095,-3.82372 15.42109,5.47341 15.42109,5.47341c0,0 -5.04342,13.00634 -4.97149,13.85701c0.34809,4.11705 17.4825,29.25548 17.4825,29.25548l27.62578,26.01004c0,0 -4.50561,15.90691 -23.92643,29.2175c-18.09756,12.40369 -34.2605,14.54519 -34.2605,14.54519z" data-paper-data="{&quot;index&quot;:null}" fill="#95d2a1" stroke="#67916f" stroke-width="4" stroke-linecap="butt"/><path d="M211.06676,177.16574c0.84169,1.16609 4.21907,7.85239 6.68425,10.43571c8.48066,8.88705 21.90016,18.9371 21.03682,21.20365c-2.12054,5.56713 -16.69597,13.86378 -20.73662,16.83981c-3.27732,2.41381 -14.87838,11.16785 -20.48287,10.54409c-4.34875,-0.48402 -7.03058,-13.31954 -12.97839,-24.65449c-1.71748,-3.27304 -6.83877,-8.16104 -8.48543,-10.44235c-1.7753,-2.45956 -13.28408,-10.93668 -16.30554,-12.57663c-1.10615,-0.60037 -3.07684,3.46443 -4.96997,3.89734c-1.64189,0.37545 -3.23775,-2.82826 -4.00851,-3.72461c-1.50914,-1.7551 0.15913,-6.85154 2.98784,-10.73794c2.82872,-3.88641 13.01254,-14.78212 18.4363,-18.69699c5.58706,-4.03273 17.93341,-10.64347 24.2887,-11.83783c1.19849,-0.22524 8.54085,-2.32097 9.53123,0.49903c0.71532,2.03682 3.14018,5.16377 1.83768,6.95245c-1.43314,1.96814 -6.62877,2.54087 -6.22293,3.46028c1.94584,4.40816 7.61588,16.38417 9.38739,18.83847z" data-paper-data="{&quot;index&quot;:null}" fill="#a6eab4" stroke="none" stroke-width="0" stroke-linecap="butt"/><g data-paper-data="{&quot;index&quot;:null}" stroke-linecap="butt"><path d="M156.02725,169.24447l-2.73278,-8.41225c0,0 11.7604,-7.14805 21.54636,-11.54398c9.78595,-4.39596 26.51529,-9.2286 26.51529,-9.2286l2.33951,5.07437z" fill="#292018" stroke="#292018" stroke-width="4"/><g><path d="M159.75239,154.78364l30.34295,-13.72278l6.00847,12.06152c0,0 -0.77111,10.28976 -8.9732,13.95593c-7.94185,3.54984 -24.63761,0.53802 -24.63761,0.53802z" fill="#d9bb9a" stroke="#917c67" stroke-width="4"/><path d="M188.56434,152.36741c0.51684,1.12101 -0.71313,3.7276 -3.18696,4.86813c-2.47382,1.14054 -5.25476,0.38315 -5.77159,-0.73784c-0.51684,-1.12101 1.42613,-2.18111 3.89997,-3.32165c2.47382,-1.14054 4.54174,-1.92963 5.05858,-0.80863z" fill="#ffdbb5" stroke="none" stroke-width="0"/></g></g><g data-paper-data="{&quot;index&quot;:null}" stroke-linecap="butt"><g fill="#465b9c"><path d="M251.31365,315.81736c-5.76467,-5.05153 -21.39649,-17.55349 -21.39649,-17.55349l18.9336,-26.49154c0,0 23.2593,14.73206 29.76968,20.29371c6.85063,5.8523 16.94667,15.24931 16.94667,15.24931c0,0 -2.75106,12.20078 -5.63517,16.61944c-2.75688,4.22375 -11.13548,10.19699 -11.13548,10.19699c0,0 -20.55522,-12.24381 -27.4828,-18.31443z" stroke="#2e3c67" stroke-width="4"/><path d="M232.95383,298.38648l-3.73844,-2.66653l14.00484,-19.66964l3.73844,2.66653z" stroke="none" stroke-width="0"/></g><path d="M240.88426,301.16738c-11.27569,-8.73802 -20.05537,-17.01144 -16.6554,-22.0373c7.86123,-11.62052 17.71231,-2.63404 35.89077,11.72574c10.80067,8.53182 21.91512,19.38274 25.34832,25.98763c1.71564,3.30057 0.75992,6.75488 -0.20802,8.22768c-1.42191,2.16355 -3.71377,3.89545 -6.45019,3.56942c-1.64973,-0.19653 -4.07963,-3.5949 -7.39126,-5.41353c-2.41743,-1.32759 -5.39629,-3.15918 -9.10985,-5.59978c-5.1443,-3.3809 -16.62837,-12.74324 -21.42435,-16.45986z" fill="#5671c0" stroke="none" stroke-width="0"/></g><g data-paper-data="{&quot;index&quot;:null}" stroke-linecap="butt"><g fill="#465b9c"><path d="M326.30506,372.47727l-2.59733,-3.76964l-2.99544,0.17585l-2.31528,-3.13243c0,0 -15.26589,-10.68813 -18.75431,-13.7922c-5.73234,-5.10072 -24.02998,-18.84223 -24.02998,-18.84223l17.64635,-27.59883c0,0 25.55751,14.30114 32.03504,19.91274c2.69853,2.33778 13.16198,11.36781 13.16198,11.36781l3.33682,2.39393l0.76586,2.76227l4.62325,1.8382c0,0 -5.52453,11.52328 -8.5703,16.18789c-2.91139,4.45884 -12.30665,12.49662 -12.30665,12.49662z" stroke="#2e3c67" stroke-width="4"/><path d="M279.64177,332.09666l-4.40764,-3.11803l15.03107,-24.30973c0,0 4.33063,3.12698 4.8979,4.29057c0.21922,0.44966 -3.33776,5.87131 -3.33776,5.87131z" stroke="none" stroke-width="0"/></g><path d="M277.65279,328.86322c-3.04405,-3.15188 -0.17828,-4.11452 1.41218,-6.69657c3.25312,-2.967 3.01175,-9.21725 5.80984,-6.70557c13.49211,12.111 32.51489,23.83558 37.40753,27.34915c2.75842,1.98091 10.2579,3.21943 9.72633,7.56499c-0.20662,1.6891 -1.60071,5.41128 -3.74665,7.65833c-2.2568,2.36316 -3.8184,3.81162 -5.81519,3.99205c-1.99681,0.18043 -2.83057,-3.5626 -3.6127,-3.14018c-2.4917,1.34574 -13.10716,-10.3125 -21.62425,-16.42887c-4.53414,-3.25608 -16.09181,-10.00526 -19.5571,-13.5933z" fill="#5671c0" stroke="none" stroke-width="0"/></g><path d="M124.17417,128.39118c-11.43741,-23.85099 -3.55093,-44.33183 17.3734,-54.36578c20.92431,-10.03393 41.83202,-3.36096 53.26941,20.49002c11.43741,23.851 -1.04379,49.94752 -10.49502,54.71014c-21.70224,10.93615 -48.71039,3.01661 -60.14779,-20.83438z" data-paper-data="{&quot;index&quot;:null}" fill="#d9bb9a" stroke="#917c67" stroke-width="4" stroke-linecap="butt"/><path d="M189.58475,97.61467c9.14991,19.08079 1.9869,41.63558 -7.69186,46.27689c-18.84627,9.38335 -42.65898,1.33663 -51.8089,-17.74418c-9.14991,-19.08079 -4.58226,-37.3452 14.69339,-46.58856c19.03572,-9.12831 35.65746,-1.02498 44.80739,18.05582z" fill="#ffdbb5" stroke="none" stroke-width="0" stroke-linecap="butt"/><path d="M182.92402,123.20808c0.56605,1.22777 -0.68502,5.28229 -3.62095,6.63591c-2.93594,1.35361 -5.22937,0.71093 -5.79543,-0.51683c-0.56605,-1.22777 0.80962,-2.57569 3.74557,-3.92931c2.93594,-1.35361 5.10478,-3.41753 5.67081,-2.18976z" fill="#d9bb9a" stroke="none" stroke-width="0" stroke-linecap="butt"/><path d="M188.71684,131.38816c0,0 -4.81502,5.01427 -8.1502,6.66533c-3.41735,1.69176 -11.07656,1.96469 -11.07656,1.96469" fill="none" stroke="#d9bb9a" stroke-width="4" stroke-linecap="round"/><g data-paper-data="{&quot;index&quot;:null}" stroke-linecap="butt"><g fill="#465b9c"><path d="M304.11153,300.56801c0,0 -12.65748,-5.49957 -20.76019,-9.4468c-7.70026,-3.75115 -30.44545,-19.26545 -30.44545,-19.26545l17.17745,-28.45414c0,0 17.69872,9.35708 24.63467,12.62636c8.33523,3.92882 27.71685,17.95834 27.71685,17.95834c0,0 -2.26857,10.22723 -5.10954,14.52099z" stroke="#2e3c67" stroke-width="4"/><path d="M258.6079,267.24524l-3.93283,-2.37078l12.77481,-21.07759l3.93283,2.37078z" stroke="none" stroke-width="0"/></g><path d="M298.7477,268.06867c3.71357,2.44061 6.68626,4.28158 8.86143,5.97776c2.97976,2.32358 6.97434,4.076 7.80078,5.52526c1.37083,2.40387 1.87374,2.65913 0.42231,4.86758c-0.98805,1.50338 -4.92699,5.49663 -8.65803,5.26267c-7.46633,-0.46816 -20.76162,-8.00083 -32.89178,-14.50971c-20.41609,-10.95502 -32.59721,-16.39621 -24.88894,-28.46583c3.33381,-5.22009 13.88108,0.36383 26.38796,7.22848c5.31965,2.9198 22.96625,14.11376 22.96625,14.11376z" fill="#5671c0" stroke="none" stroke-width="0"/></g><g data-paper-data="{&quot;index&quot;:null}" stroke-linecap="butt"><g fill="#465b9c"><path d="M368.88123,318.47556c-2.97207,4.49195 -11.12742,13.78364 -11.12742,13.78364l-3.53972,-3.48682l-2.80506,0.3405l-3.51818,-2.11795c0,0 -12.40728,-6.07234 -15.61519,-7.63507c-7.70026,-3.75115 -31.00492,-21.48015 -31.00492,-21.48015l17.73689,-26.23937c0,0 19.84674,11.38445 26.78272,14.65374c4.22093,1.98954 20.07825,11.77774 20.07825,11.77774l3.76938,0.91992l1.05957,2.76974l4.45932,0.93648c0,0 -3.43462,11.48384 -6.27559,15.77763z" stroke="#2e3c67" stroke-width="4"/><path d="M309.41608,292.61745c0,0 -3.44753,5.23625 -3.9426,5.20631c-1.28111,-0.07741 -5.86526,-2.81866 -5.86526,-2.81866l15.9806,-23.24425l4.71823,2.64546z" stroke="none" stroke-width="0"/></g><path d="M334.38443,290.07748c8.98546,5.40373 23.82706,10.63152 23.62568,13.38355c-0.0632,0.86386 3.65482,0.2183 4.30408,2.08826c0.64925,1.86995 -0.02317,3.82072 -1.23857,6.74073c-1.15567,2.77656 -3.94875,5.42547 -5.38951,6.24296c-3.70663,2.10318 -7.87484,-4.20411 -10.78496,-5.9542c-5.16168,-3.10418 -23.48262,-15.89667 -39.90301,-23.5521c-3.40537,-1.58765 2.33502,-3.70458 3.69028,-7.74956c1.68398,-2.4003 1.38742,-5.34687 5.47076,-3.77634c4.6484,1.78784 15.44176,9.70001 20.22522,12.57672z" fill="#5671c0" stroke="none" stroke-width="0"/></g><g data-paper-data="{&quot;index&quot;:null}"><g><g><path d="M228.55988,296.9902c0,0 -10.20575,-15.2255 -14.15117,-22.47778c-3.93042,-7.22467 -8.28637,-18.42581 -8.28637,-18.42581l52.11999,-37.09514c0,0 10.19568,8.7041 14.27784,13.80384c7.57444,9.46252 15.59572,22.16997 15.59572,22.16997l-27.17787,19.52797l-3.60656,-4.25789l-3.50368,1.84574l3.55823,4.56597z" fill="#465b9c" stroke="#2e3c67" stroke-width="4" stroke-linecap="butt"/><path d="M247.32665,248.13487c0,0 8.42571,11.37367 10.48726,14.96934c1.11287,1.94103 0.90399,4.89856 0.90399,4.89856" fill="none" stroke="#2e3c67" stroke-width="4" stroke-linecap="round"/><path d="M242.74897,259.83982l-3.98666,-5.52321l8.56433,-6.18174" fill="none" stroke="#2e3c67" stroke-width="4" stroke-linecap="round"/><path d="M220.60381,262.74614c0,0 3.04711,8.98804 3.86106,12.46659c0.60706,2.59442 0.58654,6.54135 0.58654,6.54135" fill="none" stroke="#2e3c67" stroke-width="4" stroke-linecap="round"/><path d="M277.4774,246.53822c0,0 -3.75253,-1.22352 -6.02377,-2.61676c-3.04522,-1.86802 -10.61627,-7.59066 -10.61627,-7.59066" data-paper-data="{&quot;index&quot;:null}" fill="none" stroke="#2e3c67" stroke-width="4" stroke-linecap="round"/><path d="M231.66951,298.33414l-5.52918,-9.10977l23.37764,-16.53684l5.25985,9.30416z" fill="#465b9c" stroke="none" stroke-width="0" stroke-linecap="butt"/><path d="M264.44329,275.67148l-5.74073,-8.95706l22.30765,-16.43874l6.27753,8.78839z" data-paper-data="{&quot;index&quot;:null}" fill="#465b9c" stroke="none" stroke-width="0" stroke-linecap="butt"/></g><g stroke="#281a0d" stroke-width="4" stroke-linecap="butt"><path d="M206.78957,263.48071c0,0 -2.54716,-3.09115 -3.28996,-4.60972c-0.80266,-1.64097 -0.53877,-4.44031 -0.53877,-4.44031l7.71034,-6.00286c0,0 4.8141,1.22143 5.78308,2.56391c0.96896,1.34244 0.03078,5.49079 0.03078,5.49079z" fill="#3f2b1a"/><path d="M216.33701,257.63947l-4.52562,-9.33456l8.2827,-5.89092c0,0 4.8141,1.22143 5.78308,2.56391c0.96896,1.34244 0.03078,5.49079 0.03078,5.49079z" fill="#67472a"/><path d="M226.31868,250.69723l-4.56266,-9.04531l8.3197,-6.18017c0,0 4.8141,1.22144 5.78308,2.56391c0.96896,1.34244 0.03078,5.49078 0.03078,5.49078z" fill="#3f2b1a"/><path d="M237.17912,243.4763l-6.06321,-8.84927l9.06521,-6.59474c0,0 4.85259,0.98023 5.88253,2.27619c1.02993,1.29595 0.29708,5.49952 0.29708,5.49952z" fill="#67472a"/><path d="M246.7808,236.01622l-5.32928,-8.85398l8.33128,-6.59003c0,0 4.85259,0.98023 5.88251,2.27618c1.02993,1.29595 0.29708,5.49952 0.29708,5.49952z" fill="#3f2b1a"/><path d="M256.51951,228.72883l-5.42303,-8.52378l6.43584,-5.48442c0,0 4.26984,1.40087 5.28649,2.70639c1.01664,1.30552 0.81339,5.12685 0.81339,5.12685z" fill="#67472a"/></g><path d="M211.83811,261.76449l-6.52926,-11.03585l4.59825,-3.50206l7.98359,9.98613z" fill="#465b9c" stroke="#2e3c67" stroke-width="4" stroke-linecap="butt"/><g fill="#67472a" stroke="#281a0d" stroke-width="4" stroke-linecap="butt"><path d="M255.45638,228.09597l-0.63867,-10.20501l10.16272,-2.10882c0,0 3.75799,3.03159 4.06764,4.63679c0.30966,1.6052 -2.20974,4.99436 -2.20974,4.99436z"/></g><path d="M231.94104,250.31437c0,0 -3.88702,-3.34211 -5.32994,-5.34118c-1.42219,-1.97031 -3.26627,-6.56823 -3.26627,-6.56823l14.22003,-10.26401c0,0 4.63796,3.70148 6.15146,5.79833c1.32744,1.83906 2.44475,6.1111 2.44475,6.1111z" fill="none" stroke="#716b65" stroke-width="4" stroke-linecap="butt"/><path d="M255.66706,230.20826l-6.96371,-10.72226l4.77198,-3.26138l8.41804,9.67254z" data-paper-data="{&quot;index&quot;:null}" fill="#465b9c" stroke="#2e3c67" stroke-width="4" stroke-linecap="butt"/></g><path d="M249.84466,285.49516c1.77747,2.46256 -10.17292,8.43667 -14.22612,11.36225c-2.16795,1.56484 -7.06148,-9.10615 -7.93802,-11.99072c-1.04249,-3.4306 1.62985,-9.48966 5.68303,-12.41526c4.05319,-2.92558 14.70365,10.58119 16.48111,13.04372z" fill="#5671c0" stroke="none" stroke-width="0" stroke-linecap="butt"/><path d="M269.137,273.41043c-1.77747,-2.46256 -11.24279,-16.82476 -7.18961,-19.75033c4.05319,-2.92558 10.64554,-3.55375 13.57329,-1.48391c2.46171,1.74038 11.0486,9.74549 8.88065,11.31032c-4.05319,2.92558 -13.48683,12.38647 -15.26431,9.92393z" data-paper-data="{&quot;index&quot;:null}" fill="#5671c0" stroke="none" stroke-width="0" stroke-linecap="butt"/></g><g data-paper-data="{&quot;index&quot;:null}" stroke="none" stroke-width="0" stroke-linecap="butt"><path d="M197.58348,103.24989c3.07637,6.67263 0.69785,14.32826 -5.31261,17.09935c-6.01045,2.77108 -13.37678,-0.39173 -16.45314,-7.06436c-3.07637,-6.67263 -0.69783,-14.32825 5.31262,-17.09934c6.01046,-2.77109 13.37678,0.39173 16.45314,7.06436z" fill="#d3f0f1"/><path d="M180.4912,97.59853c4.98867,-2.29999 11.31728,0.7905 14.13534,6.90283c2.81805,6.11231 1.0584,12.93185 -3.93025,15.23185c-4.98867,2.29999 -11.31727,-0.79049 -14.13533,-6.90282c-2.81805,-6.11231 -1.05841,-12.93186 3.93024,-15.23186z" fill="#ffffff"/></g><g data-paper-data="{&quot;index&quot;:null}" stroke="none" stroke-width="0" stroke-linecap="butt"><g data-paper-data="{&quot;index&quot;:null}"><path d="M198.0005,104.80095c2.41,5.22728 1.35968,10.84977 -2.34591,12.55821c-3.70561,1.70845 -8.66326,-1.1441 -11.07326,-6.37138c-2.40999,-5.22726 -1.35971,-10.84975 2.3459,-12.55819c3.70561,-1.70845 8.66329,1.14412 11.07328,6.37137z" fill="#41563d"/><path d="M193.88272,114.40293c-3.42593,1.57952 -7.98513,-1.89201 -9.31602,-4.77872c-1.3309,-2.8867 -2.45428,-8.63219 2.99718,-11.14557c3.42593,-1.57952 8.58471,2.30549 9.9156,5.19219c1.33089,2.88669 -0.17084,9.15259 -3.59677,10.73208z" fill="#5f7d59"/></g><path d="M184.27196,107.29445c-1.01203,-2.19507 -0.05299,-4.79494 2.1421,-5.80697c2.19507,-1.01203 4.79494,-0.05298 5.80697,2.14211c1.01203,2.19508 0.05298,4.79494 -2.14211,5.80697c-2.19507,1.01203 -4.79493,0.05298 -5.80696,-2.14211z" fill="#8ebb85"/><path d="M189.48697,109.70946c-0.55985,-1.21429 -0.02931,-2.65254 1.18499,-3.21237c1.21429,-0.55985 2.65254,-0.02931 3.21237,1.18499c0.55985,1.21429 0.02932,2.65254 -1.18498,3.21238c-1.21429,0.55985 -2.65254,0.0293 -3.21238,-1.18499z" fill="#8ebb85"/></g><g data-paper-data="{&quot;index&quot;:null}" stroke="none" stroke-width="0" stroke-linecap="butt"><path d="M144.79692,111.99925c6.01045,-2.77108 13.37678,0.39173 16.45316,7.06436c3.07637,6.67263 0.69785,14.32825 -5.31262,17.09934c-6.01045,2.77108 -13.37678,-0.39172 -16.45314,-7.06436c-3.07637,-6.67263 -0.69783,-14.32825 5.31262,-17.09934z" fill="#d3f0f1"/><path d="M160.42178,119.33366c2.81805,6.11233 1.05841,12.93185 -3.93024,15.23185c-4.98867,2.29999 -11.31728,-0.7905 -14.13534,-6.90282c-2.81805,-6.11231 -1.0584,-12.93186 3.93025,-15.23186c4.98867,-2.29999 11.31727,0.7905 14.13533,6.90283z" fill="#ffffff"/></g><g data-paper-data="{&quot;index&quot;:null}" stroke="none" stroke-width="0" stroke-linecap="butt"><g data-paper-data="{&quot;index&quot;:null}"><path d="M153.63209,112.91231c3.70561,-1.70845 8.66327,1.14413 11.07326,6.37138c2.41,5.22728 1.35971,10.84975 -2.3459,12.55819c-3.70561,1.70845 -8.66328,-1.1441 -11.07328,-6.37137c-2.40999,-5.22726 -1.3597,-10.84975 2.34591,-12.55821z" fill="#41563d"/><path d="M150.76516,124.34041c-1.3309,-2.8867 -0.93515,-9.33259 2.49081,-10.91208c5.45147,-2.51337 9.09109,2.07203 10.42199,4.95873c1.33089,2.88669 1.01006,8.60813 -2.41586,10.18764c-3.42593,1.57952 -9.16602,-1.34758 -10.49693,-4.23427z" fill="#5f7d59"/></g><path d="M159.95559,122.45695c-2.19507,1.01203 -4.79494,0.05298 -5.80697,-2.14211c-1.01203,-2.19507 -0.05298,-4.79495 2.14211,-5.80698c2.19507,-1.01203 4.79494,-0.05297 5.80697,2.14212c1.01203,2.19507 0.05299,4.79494 -2.1421,5.80697z" fill="#8ebb85"/><path d="M159.36253,125.3964c-1.21429,0.55985 -2.65254,0.02931 -3.21237,-1.18499c-0.55985,-1.21429 -0.02932,-2.65254 1.18498,-3.21238c1.21429,-0.55985 2.65254,-0.0293 3.21238,1.18499c0.55985,1.21429 0.02931,2.65254 -1.18499,3.21237z" fill="#8ebb85"/></g><g data-paper-data="{&quot;index&quot;:null}" stroke-linecap="butt"><g data-paper-data="{&quot;index&quot;:null}" fill="#403328"><g><path d="M271.91237,232.14073c-4.29501,3.94789 -22.52655,6.27853 -22.52655,6.27853c0,0 -29.68651,-41.49566 -41.0153,-55.73672c-10.49728,-13.19581 -15.4889,-20.62995 -15.4889,-20.62995c0,0 3.68866,-7.80671 2.50902,-13.09409c-0.71748,-3.21585 -2.80324,-4.51268 -1.72424,-5.70385c2.5513,-2.81657 5.13083,-2.10929 11.68787,-3.00284c6.55702,-0.89356 15.46613,0.45691 18.04701,1.65703c2.58088,1.2001 -3.52095,5.09754 -3.52095,5.09754c0,0 -2.90679,6.3404 -5.05373,10.31012c-1.66775,3.08372 12.89647,22.28233 12.89647,22.28233l8.51428,11.8684l32.57925,28.66096c0,0 6.01116,9.33282 3.0958,12.0126z" stroke="#292018" stroke-width="4"/><path d="M219.83091,143.21315c0,0 3.10635,0.903 4.05646,1.47165c0.8971,0.53693 2.15893,2.15844 2.15893,2.15844c0,0 -5.98826,12.96929 -7.2886,14.774c-0.43031,0.59723 -3.78864,2.65776 -6.06969,0.35914c-2.28104,-2.29862 -2.17038,-6.19977 -2.17038,-6.19977z" stroke="none" stroke-width="NaN"/></g><path d="M196.66325,150.23353c-0.56033,2.97417 -2.60791,7.79717 -2.60791,7.79717l-5.16427,-9.07047l4.14408,-11.04394l2.91402,3.02552c0,0 1.29765,6.19407 0.7141,9.29171z" stroke="#292018" stroke-width="4"/></g><path d="M207.88684,168.22041c1.14613,1.5879 1.54608,3.25711 0.89331,3.72828c-0.65278,0.47117 -2.11109,-0.4341 -3.25724,-2.02201c-1.14613,-1.5879 -1.54608,-3.25711 -0.89331,-3.72828c0.65278,-0.47117 2.11108,0.43409 3.25724,2.02201z" fill="#dfbd28" stroke="#dfbd28" stroke-width="4"/><path d="M220.95025,185.88292c1.14613,1.58789 1.54608,3.25711 0.89331,3.72828c-0.65278,0.47117 -2.11109,-0.4341 -3.25724,-2.02201c-1.14613,-1.58789 -1.54608,-3.25711 -0.89331,-3.72828c0.65278,-0.47117 2.11109,0.4341 3.25724,2.02201z" fill="#dfbd28" stroke="#dfbd28" stroke-width="4"/><path d="M233.97592,202.93275c1.14613,1.58789 1.54608,3.25711 0.89331,3.72828c-0.65278,0.47117 -2.11109,-0.4341 -3.25724,-2.02201c-1.14613,-1.58789 -1.54608,-3.25711 -0.89331,-3.72828c0.65278,-0.47117 2.11109,0.4341 3.25724,2.02201z" fill="#dfbd28" stroke="#dfbd28" stroke-width="4"/><path d="M246.26339,219.02212c1.14613,1.58789 1.54608,3.25711 0.89331,3.72828c-0.65278,0.47117 -2.11109,-0.4341 -3.25724,-2.02201c-1.14613,-1.58789 -1.54608,-3.25711 -0.89331,-3.72828c0.65278,-0.47117 2.11109,0.4341 3.25724,2.02201z" fill="#dfbd28" stroke="#dfbd28" stroke-width="4"/></g><g data-paper-data="{&quot;index&quot;:null}" stroke="#292018" stroke-width="4"><path d="M202.00627,266.60481l-16.41641,-37.14173l-9.79813,-13.92819c0,0 -10.3967,-21.90806 -14.56656,-20.77821c-5.36791,1.45452 -13.68075,3.2124 -13.68075,3.2124c0,0 -7.26435,5.7503 -7.27447,2.69462c-0.01012,-3.0557 2.97666,-12.99259 7.21754,-19.89294c4.24087,-6.90036 4.76337,-9.84669 9.08529,-11.9912c1.82784,-0.90695 2.18982,1.63408 5.31174,3.1144c5.13296,2.43386 15.423,0.15075 15.423,0.15075c0,0 5.55287,7.02903 14.592,21.27734c9.75513,15.37693 39.83902,56.58577 39.83902,56.58577c0,0 -5.26735,15.52679 -11.68417,19.31067c-4.35564,2.56843 -18.04808,-2.61373 -18.04808,-2.61373z" fill="#403328" stroke-linecap="butt"/><path d="M158.51334,169.10296l-3.65885,-4.57846l16.77799,-2.26569l7.23746,7.57406c0,0 -6.24175,1.16022 -9.74011,1.11561c-3.64358,-0.04648 -10.6165,-1.84554 -10.6165,-1.84554z" fill="#403328" stroke-linecap="butt"/><path d="M178.34733,184.11652l4.75997,7.87024" fill="none" stroke-linecap="round"/><path d="M190.03408,203.11403l4.50436,5.92154" fill="none" stroke-linecap="round"/><path d="M207.19336,227.07828l-4.40414,-6.42051" fill="none" stroke-linecap="round"/><path d="M214.30154,237.94666l4.9103,7.12175" fill="none" stroke-linecap="round"/></g><path d="M133.59041,136.3914c3.29965,4.53846 5.78084,6.75215 4.85902,8.21968c-0.92183,1.46752 -8.15009,0.55504 -11.44975,-3.98341c-3.29965,-4.53846 -1.51174,-10.5185 0.00757,-11.35225c2.76535,-1.51751 3.28351,2.57752 6.58318,7.11598z" data-paper-data="{&quot;index&quot;:null}" fill="#d9bb9a" stroke="#917c67" stroke-width="4" stroke-linecap="butt"/><g data-paper-data="{&quot;index&quot;:null}"><g><path d="M125.43035,130.43748c0.91101,2.57712 -2.46296,6.36363 -2.46296,6.36363c0,0 -2.03987,2.47972 -4.27092,0.57714c-1.81703,-1.54953 -6.91604,-3.04034 -6.91604,-3.04034c0,0 0.31538,-3.13288 0.86805,-6.77108c0.14281,-0.94018 -4.3768,-1.30845 -6.00765,-2.3011c-1.63082,-0.99263 -6.75164,-7.34751 -6.75164,-7.34751c0,0 5.2084,-5.2649 4.7585,-10.06441c-0.22325,-2.38146 -1.76021,-5.68314 -1.83407,-7.22592c-0.42087,-8.79002 -2.88839,-9.62077 -0.83553,-15.26939c0.21452,-0.59032 5.10381,-8.91096 5.29406,-9.44218c3.31374,-9.25242 4.28212,-10.10857 13.36217,-15.52067c9.60138,-5.72282 15.45773,-12.57177 22.88466,-12.38353c4.84962,0.12293 16.91254,0.32272 24.78191,-0.56181c9.69767,3.85714 14.41806,7.03278 19.19698,15.42077c1.53303,2.69079 0.15507,5.72306 2.68545,8.09057c1.14783,1.07395 12.65157,7.91113 12.65157,7.91113c0,0 0.15856,4.03579 -1.18244,6.26761c-1.32862,2.21123 -3.62583,2.83666 -3.61216,4.10054c0.0298,2.7571 2.10399,4.61932 2.5442,6.45646c0.32027,1.33654 0.11255,2.22995 -0.17117,3.75227c-0.47892,2.56964 -1.9136,-0.38924 -2.74874,-2.3945c-1.56107,-3.74834 -3.65969,-5.95401 -3.37872,-5.36766c-1.08285,1.38964 0.06665,0.81909 -6.67543,2.64261c-0.37501,0.10144 -2.76786,-1.90736 -4.62186,-2.3518c-1.854,-0.44443 -4.77473,-3.79882 -4.77473,-3.79882c0,0 -7.33913,8.84111 -11.26737,11.11543c-5.66734,3.28118 -11.51939,8.50581 -15.05822,9.73275c-8.65054,2.9992 -12.78494,3.74833 -16.09406,5.19251c-3.08,1.3442 -6.99252,6.90647 -9.30928,6.94807c0,0 -2.25042,5.88633 -1.05458,9.26923z" fill="#252931" stroke="#14161a" stroke-width="4" stroke-linecap="butt"/><path d="M174.35249,80.89678c-17.16764,18.92272 -39.08502,25.09968 -55.4344,34.8264c-3.38458,2.01358 -5.89931,-0.33723 -5.89931,-0.33723c0,0 2.79155,-9.45164 -1.36769,-18.47303c-2.00179,-4.34186 -0.87092,-15.98303 4.46555,-24.43468c4.43588,-7.02531 17.19637,-13.88697 22.9873,-18.25314c3.75035,-2.82765 5.1609,0.57829 8.93757,-1.16292c10.72038,-4.94256 12.85089,2.06699 19.51332,7.25648c4.84922,3.77718 9.25112,17.87389 6.79768,20.57816z" fill="#494c5e" stroke="none" stroke-width="0" stroke-linecap="butt"/><path d="M153.60392,59.78865c-0.56424,-1.22385 -4.2706,3.87886 -5.58261,2.51989c-0.96293,-0.9974 0.311,-3.83289 0.00589,-5.8713c-0.08781,-0.58661 -1.7635,-2.21084 -4.20137,-2.4428c-2.02904,-0.19307 -4.89231,1.00764 -4.97109,0.59779c-0.32001,-1.66498 8.15981,-4.07157 9.00695,-4.46214c3.363,-1.55048 19.79934,2.0175 21.39907,5.48728c0.09705,0.21048 12.62818,15.62415 10.66994,25.50179c-0.28277,1.42636 -7.05135,4.5592 -8.30082,2.85498c-0.39282,-0.5358 -4.83581,0.32143 -4.74365,-2.04913c0.12555,-3.22956 6.53125,-9.25566 5.94692,-9.83158c-1.66853,-1.64457 -10.24572,9.80791 -12.65747,7.4098c-2.41173,-2.39811 6.91182,-15.85019 4.00562,-17.09888c-2.2899,2.409 -6.99717,10.44692 -8.53817,9.68772c-4.66974,-2.30064 -0.43951,-8.83365 -2.03923,-12.30341z" fill="#252931" stroke="none" stroke-width="0" stroke-linecap="butt"/><path d="M127.37701,107.79385c-0.07315,1.34567 1.6921,-0.69449 3.58623,-1.03208c1.89412,-0.33759 7.84481,-2.41929 7.16186,-0.47461c-0.36012,1.02547 -9.89405,4.39284 -10.16239,5.27155c-0.49525,1.62153 -2.38348,3.71366 -3.31495,3.66303c-2.24162,-0.12182 -8.85441,6.41362 -12.35384,2.37001c-2.2732,-2.62665 0.33198,-10.7226 0.41364,-12.22496c0.0126,-0.23144 -6.50946,-17.32216 -0.16187,-25.13948c0.91661,-1.12884 7.41566,-6.86082 7.72378,-4.77021c0.09687,0.65727 -1.72801,8.63233 -2.91737,10.68501c-1.62033,2.79648 -3.18272,5.26748 -2.93531,6.04974c0.70649,2.23373 12.26739,-6.47483 12.74402,-4.38745c0.75711,3.31575 -11.41159,12.91459 -9.92764,13.74155c1.69203,0.94289 6.80796,-4.43003 12.57871,-8.73566c4.46929,-3.33462 10.01556,-5.96927 10.34462,-4.91175c0.30549,0.98177 0.08769,4.00983 -1.18269,5.60252c-3.69615,4.63391 -11.44252,11.4535 -11.59683,14.29278z" fill="#252931" stroke="none" stroke-width="0" stroke-linecap="butt"/><path d="M182.24629,79.25842c0,0 -2.41476,7.7352 -3.11241,8.50299c-1.39509,1.53536 -4.59744,3.98242 -4.59744,3.98242" fill="none" stroke="#14161a" stroke-width="4" stroke-linecap="round"/><path d="M131.44921,72.46167c-1.83746,-2.58828 -0.32564,-6.46444 2.78991,-8.67618c3.11552,-2.21176 7.62275,-5.41495 9.46022,-2.82667c1.83746,2.58828 -0.89447,8.90213 -4.00999,11.11388c-3.11552,2.21175 -6.40267,2.97724 -8.24012,0.38898z" fill="#686c85" stroke="none" stroke-width="0" stroke-linecap="butt"/><path d="M121.83575,83.21537c-1.0609,-1.49441 0.60803,-4.46915 2.40686,-5.74616c1.79884,-1.27701 4.13217,-1.57652 5.19308,-0.08211c1.0609,1.49441 -0.1913,3.33942 -1.99013,4.61644c-1.79884,1.27701 -4.54892,2.70626 -5.60979,1.21184z" fill="#686c85" stroke="none" stroke-width="0" stroke-linecap="butt"/><path d="M145.69798,73.50348c-1.27459,-1.31687 -0.49659,-2.44514 1.08854,-3.97941c1.58512,-1.53426 2.37494,-3.25201 3.64956,-1.93513c1.27459,1.31687 0.31572,3.32995 -1.26939,4.86421c-1.58512,1.53426 -2.19407,2.36718 -3.46868,1.05032z" fill="#686c85" stroke="none" stroke-width="0" stroke-linecap="butt"/></g><path d="M194.02662,83.40403c-1.28562,0.95365 1.58662,3.07603 0.6084,3.52703c-1.02957,0.47468 -3.56977,-0.60053 -5.3981,-1.424c-2.34267,-1.05516 -3.53666,-1.75618 -4.03429,-2.83554c-0.54079,-1.17296 0.09993,-0.39164 1.27594,-1.28986c0.75069,-0.57336 -0.05077,-5.1995 0.86434,-5.62142c0.87185,-0.40197 1.60694,1.63739 3.62086,2.79468c0.32032,0.18407 -1.45912,-6.05842 0.47121,-4.37189c1.07092,0.93568 5.70408,2.28295 8.34081,5.3236c2.63671,3.04065 -4.24909,-0.17176 -4.92246,1.10332c-0.67335,1.27508 2.61384,1.27904 3.05411,2.23397c0,0 -2.07954,-0.77606 -3.88085,0.5601z" fill="#494c5e" stroke="none" stroke-width="0" stroke-linecap="butt"/><path d="M175.40683,59.64981c0.84397,0.70154 0.2499,2.77155 -2.30564,5.84596c-2.55555,3.07442 -3.50683,4.16606 -4.3508,3.46454c-0.84397,-0.70152 -0.22982,-3.40596 2.32572,-6.48041c2.55555,-3.07442 3.48673,-3.53163 4.33071,-2.8301z" fill="#494c5e" stroke="none" stroke-width="0" stroke-linecap="butt"/></g><path d="M186.48001,98.65759c-4.70551,2.83896 -10.31546,7.11559 -11.92616,4.58159c-1.61068,-2.53398 7.77076,-10.04032 12.47628,-12.87928c4.70552,-2.83895 7.99331,-2.47846 9.604,0.05552c1.61068,2.53398 -5.44859,5.40318 -10.15411,8.24216z" data-paper-data="{&quot;index&quot;:null}" fill="#424956" stroke="#14161a" stroke-width="4" stroke-linecap="butt"/><path d="M134.54156,118.54968c-0.88099,-2.87042 0.97997,-5.6047 6.19461,-7.33938c5.21465,-1.73467 17.01513,-3.99416 17.89608,-1.12374c0.88099,2.87042 -6.01429,4.35924 -11.22892,6.09392c-5.21465,1.73467 -11.98082,5.2396 -12.86178,2.36919z" data-paper-data="{&quot;index&quot;:null}" fill="#424956" stroke="#14161a" stroke-width="4" stroke-linecap="butt"/><g data-paper-data="{&quot;index&quot;:null}" stroke-linecap="butt"><g><g><g><path d="M168.7619,138.22479c1.93034,-6.29363 14.80644,3.11858 16.4837,10.50047c0.29825,1.31267 -2.10138,7.36969 -2.33304,8.1138c-7.15001,22.96704 -12.31126,30.95359 -12.31126,30.95359c0,0 -2.5225,4.85611 -6.72568,4.62509c-2.99078,-0.16441 -10.72196,-8.62336 -10.72196,-8.62336c0,0 8.45626,-23.93947 12.66873,-33.04634c0.99332,-2.1474 0.51373,-4.61426 2.93952,-12.52325z" fill="#d9bb9a" stroke="#917c67" stroke-width="4"/><path d="M170.63962,139.55677c0.40156,-2.65045 0.70881,-4.25635 1.73299,-6.30818c1.2289,-2.46193 12.80026,10.06033 13.48399,10.40162c0.6837,0.34129 -0.92601,2.64955 -2.15491,5.1115c-1.22889,2.46194 -1.99799,5.39606 -2.68171,5.0548c-0.11388,-0.05685 -10.53239,-13.25612 -10.38032,-14.25969z" fill="#d9bb9a" stroke="none" stroke-width="0"/><path d="M169.02847,186.16085c-3.35734,9.89416 -8.26464,4.03482 -10.613,3.26665c-2.34837,-0.76817 -0.2888,-9.03941 3.06852,-18.93358c3.35735,-9.89416 4.80487,-11.34665 7.38268,-18.2433c1.73658,-4.64607 3.33575,-10.92874 4.55508,-16.35263c2.07519,-9.23104 10.90708,5.74082 10.93568,6.12533c0.02597,0.34934 -3.90441,6.86686 -4.20481,7.47942c-3.45118,7.03738 -8.31581,16.23839 -8.6232,18.68552c-0.67902,5.40544 -1.2094,14.16636 -2.50092,17.97253z" fill="#ffdbb5" stroke="none" stroke-width="0"/></g><path d="M168.65498,134.75285c0,0 7.02581,4.61727 9.79793,7.47501c2.4143,2.48888 7.34775,8.81722 7.34775,8.81722c0,0 -5.78758,19.18531 -8.32062,26.45011c-2.51999,7.22741 -10.33801,26.14645 -10.33801,26.14645l-24.17902,-4.27069c0,0 3.7108,-15.16829 7.61355,-23.87022c3.99297,-8.90311 18.07846,-40.74789 18.07846,-40.74789z" fill="#403328" stroke="#292018" stroke-width="4"/></g><g><path d="M186.69816,100.10035c3.30434,-6.61993 7.40945,-13.08933 11.45913,-11.0679c1.33141,0.66458 1.1105,0.61892 1.90171,2.28045c0.78337,1.64505 1.86683,0.13613 2.43452,2.31912c0.22276,0.85657 0.82052,0.34221 0.88676,2.42323c0.04563,1.4335 -1.19627,2.87039 -1.32376,4.61447c-0.18839,2.57735 -0.26353,5.89015 -0.69316,6.75086c-3.30435,6.61992 -9.26598,10.34774 -13.31566,8.32631c-4.04969,-2.0214 -4.65389,-9.02658 -1.34955,-15.64649z" fill="#917c67" stroke="none" stroke-width="NaN"/><g><path d="M179.23511,100.21117c7.17552,-7.23913 13.59559,-16.58562 16.36894,-13.28589c1.45909,1.736 -8.04814,17.94274 -8.2091,23.0232c-0.14637,4.6207 1.16798,5.94616 3.7049,6.99676c2.37105,0.98193 6.20742,-11.16329 7.63558,-10.47193c1.46595,0.70965 8.15661,-3.20301 3.29592,9.03738c-3.87855,9.76717 -12.03171,24.3222 -13.5661,29.2509c-1.32925,2.5676 -17.91454,-9.72965 -16.73907,-13.54659c0.9933,-2.14742 0.14438,-2.365 2.57016,-10.274c2.27358,-7.41277 2.56394,-18.33394 4.93874,-20.72982z" fill="#d9bb9a" stroke="#917c67" stroke-width="4"/><path d="M185.27249,139.63403c0.19186,2.57935 -10.98597,-2.96404 -9.76665,-8.3879c2.07519,-9.23107 3.11797,-10.87616 4.12212,-15.71255c1.00416,-4.83642 0.06669,-10.20344 1.4105,-12.30258c3.60303,-5.62813 12.09129,-14.02758 9.90926,-8.98681c-1.77907,4.10995 -6.40971,11.49611 -7.34715,16.82628c-0.4405,2.50461 -0.91442,6.56231 2.03741,9.25412c1.18978,1.08498 8.08687,0.26252 7.51423,3.92796c-0.29066,1.86047 -1.56884,3.28122 -2.52743,5.61316c-3.89072,9.46498 -5.38085,9.38378 -5.35226,9.76831z" fill="#ffdbb5" stroke="none" stroke-width="0"/></g><path d="M174.14632,112.19504c0,0 5.35976,3.83919 10.79847,8.53971c5.78655,5.00116 13.5424,6.71539 13.5424,6.71539l-11.23518,20.0915l-17.88736,-14.80631z" fill="#403328" stroke="#292018" stroke-width="4"/><path d="M187.04518,142.90118l-3.49181,8.98143l-13.94544,-13.76677l3.23846,-8.0767z" fill="#403328" stroke="none" stroke-width="0"/></g></g><path d="M146.11683,205.04917c0,0 -0.97407,-3.33646 -0.98436,-4.47845c-0.00969,-1.07826 0.8286,-2.95469 0.8286,-2.95469c0,0 16.34494,0.3224 18.8994,0.81254c0.84534,0.1622 4.43442,3.41082 3.54117,6.54013c-0.89325,3.12931 -0.73555,4.19009 -0.73555,4.19009z" fill="#403328" stroke="none" stroke-width="NaN"/></g></g></g></svg>