<svg version="1.1" xmlns="http://www.w3.org/2000/svg" xmlns:xlink="http://www.w3.org/1999/xlink" width="300.93601" height="286.82682" viewBox="0,0,300.93601,286.82682"><defs><linearGradient x1="238.73566" y1="47.43874" x2="238.73566" y2="240.75" gradientUnits="userSpaceOnUse" id="color-1"><stop offset="0" stop-color="#00c0eb"/><stop offset="1" stop-color="#ffffff"/></linearGradient><radialGradient cx="312.66532" cy="177.95646" r="37.54369" gradientUnits="userSpaceOnUse" id="color-2"><stop offset="0" stop-color="#6fa5de"/><stop offset="1" stop-color="#5a6fb5"/></radialGradient><linearGradient x1="283.32799" y1="124.6424" x2="321.14198" y2="124.6424" gradientUnits="userSpaceOnUse" id="color-3"><stop offset="0" stop-color="#52779f"/><stop offset="1" stop-color="#5c89b8"/></linearGradient><linearGradient x1="320.92256" y1="124.6424" x2="341.63241" y2="124.6424" gradientUnits="userSpaceOnUse" id="color-4"><stop offset="0" stop-color="#5c89b8"/><stop offset="1" stop-color="#52779f"/></linearGradient><linearGradient x1="240.6481" y1="186.84923" x2="240.6481" y2="293.63853" gradientUnits="userSpaceOnUse" id="color-5"><stop offset="0" stop-color="#acacac"/><stop offset="1" stop-color="#e6e6e6"/></linearGradient></defs><g transform="translate(-89.532,-43.28551)"><g data-paper-data="{&quot;isPaintingLayer&quot;:true}" fill-rule="nonzero" stroke-linejoin="miter" stroke-miterlimit="10" stroke-dasharray="" stroke-dashoffset="0" style="mix-blend-mode: normal"><path d="M93.14963,240.75v-193.31126h291.17207v193.31126z" fill="url(#color-1)" stroke="none" stroke-width="0" stroke-linecap="butt"/><path d="M292.1764,215.50015v-75.08738h40.97783v75.08738z" fill="url(#color-2)" stroke="#000000" stroke-width="1" stroke-linecap="butt"/><path d="M283.41563,139.76181c0,-11.24963 0,-36.73875 0,-36.73875l37.58656,-2.26085c0,0 0,29.45258 0,38.71699c0,3.08814 0.79546,9.04339 -1.40864,9.04339c0,0 -28.29716,-1.13042 -34.68144,-1.13042c-2.12809,0 -1.49649,-3.88047 -1.49649,-7.63036z" fill="url(#color-3)" stroke="#000000" stroke-width="1" stroke-linecap="butt"/><path d="M321.00219,139.76181c0,-11.24963 0,-38.99959 0,-38.99959l20.63022,2.26085c0,0 0,27.19174 0,36.45614c0,3.08814 -0.19447,7.91296 -1.40424,7.91296c0,0 -14.98969,1.13042 -18.49384,1.13042c-1.16805,0 -0.73214,-5.0109 -0.73214,-8.76078z" fill="url(#color-4)" stroke="#000000" stroke-width="1" stroke-linecap="butt"/><g data-paper-data="{&quot;index&quot;:null}" stroke="#ffffff" stroke-width="1" stroke-linecap="butt"><g data-paper-data="{&quot;origPos&quot;:null}" id="Group"><path d="M299.91382,132.28033c0,0 -0.34485,-12.26392 0.06897,-13.95692c0,0 1.48285,-2.89049 3.82783,-4.00539c0,0 1.65528,2.8079 2.34498,5.28546c0,0 -3.17262,12.14005 -3.65541,12.9659c0,0 -1.06903,0.70197 -1.75873,0.78456c0.03449,0.04129 -0.82764,-0.45422 -0.82764,-1.07361z" id="Shape" fill="#8644b3"/><path d="M303.81063,114.40061l-1.86218,6.85458c-1.17249,-0.78456 -1.93116,-2.89049 -1.93116,-2.89049c0,0 1.48285,-2.89049 3.79335,-3.96409z" id="Shape" fill="#ea8be5"/><path d="M303.81063,114.40061l-1.86218,6.85458c-1.17249,-0.78456 -1.93116,-2.89049 -1.93116,-2.89049c0,0 1.48285,-2.89049 3.79335,-3.96409z" id="Shape" fill="#ea8be5"/><path d="M306.08664,119.97512c-2.17255,0.78456 -4.17268,1.28007 -4.17268,1.28007l1.89668,-6.85458c0,-0.04129 0.03449,-0.04129 0.03449,-0.04129c0,0 1.65528,2.8079 2.31049,5.28546c0,0 0,0.08258 -0.06897,0.33035z" id="Shape" fill="#ad59c2"/><path d="M301.94844,121.29648l-1.17249,12.14005c0,0 -0.82764,-0.5368 -0.82764,-1.11491c0,0 -0.34485,-12.26392 0.06897,-13.95692z" id="Shape" fill="#ad59c2"/><path d="M301.91395,121.25519c0,0 -0.03449,0.66069 -0.10345,1.6517c-0.03449,0.49551 -0.10345,1.07361 -0.13794,1.693c-0.06897,0.61939 -0.10345,1.28007 -0.17243,1.89946c-0.06897,0.66069 -0.13794,1.32136 -0.20691,1.89946c-0.06897,0.61939 -0.13794,1.19749 -0.17243,1.65171c-0.13794,0.94973 -0.20691,1.61041 -0.20691,1.61041c0,0 0.03449,-0.66069 0.10345,-1.65171c0.03449,-0.49551 0.10345,-1.07361 0.13794,-1.693c0.06897,-0.61939 0.10345,-1.28007 0.17243,-1.89946c0.06897,-0.66069 0.13794,-1.32137 0.20691,-1.89946c0.06897,-0.61939 0.13794,-1.19749 0.17243,-1.6517c0.13794,-0.99102 0.20691,-1.61041 0.20691,-1.61041z" id="Shape" fill="#ea8be5"/><path d="M300.8794,132.03257l-0.13794,1.36266c0,0 -0.82764,-0.5368 -0.82764,-1.11491c0,0 0.55176,-0.12388 0.96557,-0.24776z" id="Shape" fill="#a546bd"/><path d="M302.50019,132.61067c0,0 -1.10352,0.70197 -1.75873,0.78456l0.13794,-1.36266c0.20691,-0.04129 0.37934,-0.08258 0.4483,-0.08258c0.27588,-0.04129 1.17249,0.66069 1.17249,0.66069z" id="Shape" fill="#7c36ab"/><path d="M300.77594,133.39523c0.31036,-0.08258 0.62073,-0.20646 0.89661,-0.33034c0.27588,-0.12388 0.55176,-0.28905 0.79315,-0.5368l-0.03449,0.04129c0.20691,-0.82585 0.4483,-1.65171 0.6897,-2.47756c0.24139,-0.82585 0.4483,-1.65171 0.6897,-2.43627c0.48279,-1.65171 0.96558,-3.26212 1.48286,-4.87253c-0.41382,1.65171 -0.86213,3.30341 -1.34491,4.95513c-0.24139,0.82585 -0.48279,1.6517 -0.6897,2.43627c-0.24139,0.82585 -0.48279,1.65171 -0.72418,2.43627c-0.27588,0.20647 -0.55176,0.37164 -0.86212,0.49551c-0.31036,0.16517 -0.58624,0.24776 -0.89661,0.28905z" id="Shape" fill="#6b348f"/><path d="M299.9828,118.3647c0,0 1.58631,-0.16517 2.7588,-0.16517l-0.82764,3.05566c-1.138,-0.82585 -1.93116,-2.89049 -1.93116,-2.89049z" id="Shape" fill="#e17de3"/><path d="M303.91408,118.32341c0.31037,0.12388 1.44836,0.74327 2.20704,1.19749c0,0.04129 0.03449,0.12388 0.03449,0.16517c0,0 -0.03449,0.08258 -0.06897,0.28905c-2.17255,0.78456 -4.17268,1.28007 -4.17268,1.28007l0.82764,-3.05566c0.55176,0 1.03455,0 1.17249,0.12388z" id="Shape" fill="#9b4dae"/><path d="M306.08664,119.93382c0,0 -0.20691,0.12388 -0.48278,0.24776c-0.31037,0.12388 -0.6897,0.28905 -1.10352,0.45422c-0.41382,0.12388 -0.82764,0.24776 -1.138,0.33035c-0.31037,0.08258 -0.51727,0.08258 -0.51727,0.08258c0,0 0.03449,0 0.13794,-0.04129c0.10345,-0.04129 0.20691,-0.08258 0.37934,-0.12388c0.31036,-0.12388 0.6897,-0.24776 1.10352,-0.41292c0.41382,-0.12388 0.82764,-0.28905 1.138,-0.37164c0.27588,-0.12388 0.48278,-0.16517 0.48278,-0.16517z" id="Shape" fill="#6b348f"/></g><g data-paper-data="{&quot;origPos&quot;:null}"><path d="M313.79895,128.94198c-0.105,1.35609 -0.44551,2.38529 -1.03802,3.13429c-0.34501,0.43646 -0.85652,0.78133 -1.70853,1.14774c-0.0165,0.00719 -0.0345,0.01436 -0.0525,0.02155c-0.40801,0.15627 -0.85352,0.23709 -1.32302,0.23709c-0.71552,0 -1.38002,-0.16884 -1.97554,-0.50113c-0.88052,-0.49215 -1.31853,-1.18007 -1.53603,-1.76023c-0.0315,-0.06287 -0.0645,-0.12753 -0.096,-0.19757c-0.09001,-0.19578 -0.153,-0.40773 -0.183,-0.62865c-0.0435,-0.30894 -0.1125,-0.77415 -0.207,-1.39202c-0.018,-0.11855 -0.027,-0.23709 -0.027,-0.35743v-1.56266c0,-0.19398 0.0135,-0.47778 0.111,-1.24653c0.0945,-0.75259 0.135,-0.98609 0.21,-1.21599c0.1965,-0.62686 0.78452,-2.46971 2.20954,-2.83433c0.46801,-0.11855 0.99452,-0.13471 1.49253,-0.07005c0.35251,-0.67715 0.98252,-1.08128 1.69803,-1.08128c1.24203,0 1.92903,0.98069 2.05804,1.95062c0.0135,0.10238 0.0195,0.20656 0.0195,0.31073v2.49485c0,0.0018 0,0.00359 0,0.00359c0,0.0018 0,0.0018 0,0.0036c0,0 0,0 0,0.0018c0,0.16345 -0.018,0.31971 -0.048,0.47239c0.28951,0.39336 0.45001,0.87831 0.45751,1.3974c0.009,0.52089 -0.012,1.08488 -0.06151,1.67222z" data-paper-data="{&quot;origPos&quot;:null}" id="ID0.6895651021040976" fill="#ffc100"/><path d="M312.21027,127.30353c0.00855,0.44239 -0.00885,0.92178 -0.0528,1.43764c-0.07065,0.90598 -0.26836,1.56409 -0.59386,1.97487c-0.1497,0.18967 -0.50581,0.40557 -1.06862,0.6477c-0.24645,0.09483 -0.51916,0.14226 -0.81811,0.14226c-0.47491,0 -0.90167,-0.10525 -1.27982,-0.31612c-0.41356,-0.23153 -0.66856,-0.53166 -0.76531,-0.9006c-0.0351,-0.05263 -0.07485,-0.12626 -0.11865,-0.2211c-0.04425,-0.31594 -0.11445,-0.78977 -0.21121,-1.42183v-1.56409c0,-0.14747 0.03075,-0.4634 0.0924,-0.94801c0.06135,-0.48424 0.1011,-0.75276 0.11881,-0.80557c0.3078,-0.97962 0.64651,-1.51667 1.01582,-1.61169c0.16695,-0.04185 0.35176,-0.06322 0.55411,-0.06322c0.65086,0 1.24038,0.18967 1.76808,0.56884c0.03495,0.0212 0.07905,0.03161 0.13185,0.03161c0.00885,-0.03161 0.01755,-0.16309 0.02655,-0.39497c0.0087,0 0.0087,-0.1841 0,-0.55285c-0.009,-0.2529 0.01186,-0.4318 0.06241,-0.53723c0.05025,-0.10507 0.1512,-0.15806 0.3021,-0.15806c0.25951,0 0.40201,0.09484 0.42721,0.28451c0,0.0106 0,0.40036 0,1.16912c0,0.57944 0,0.9428 0,1.09008c0,0.17926 0,0.25829 0,0.23691c-0.0354,0.15806 -0.0969,0.25272 -0.1848,0.28433c-0.2373,0.09483 -0.40021,0.1004 -0.48812,0.01581c-0.0441,0 -0.09225,-0.01581 -0.1452,-0.04742c-0.0441,-0.14728 -0.1407,-0.34199 -0.29025,-0.58447c-0.20251,-0.19991 -0.46636,-0.37378 -0.79156,-0.52142c-0.32566,-0.14728 -0.60271,-0.22111 -0.83132,-0.22111c-0.29041,0 -0.52336,0.26852 -0.69931,0.80576c-0.24645,0.73732 -0.35626,1.69036 -0.32985,2.85965c0.01755,0.51621 0.03075,0.84276 0.03975,0.97944c0.0438,0.43197 0.1407,0.80055 0.29026,1.10589c0.1056,0.21086 0.26821,0.38473 0.48826,0.52142c0.21976,0.13705 0.43531,0.21069 0.64651,0.2211c1.04687,0.0528 1.65798,-0.50023 1.83423,-1.65892c0.09676,-0.62129 0.10545,-1.14271 0.0264,-1.56409c-0.01785,-0.08424 -0.00915,-0.19757 0.0264,-0.33983c0.0348,-0.14208 0.189,-0.22901 0.46171,-0.26062c0.0615,0 0.1362,0.0343 0.2244,0.10273c0.0873,0.06897 0.13156,0.13992 0.13156,0.21356z" data-paper-data="{&quot;origPos&quot;:null}" id="ID0.5211598752066493" fill="#ffffff"/></g><g data-paper-data="{&quot;origPos&quot;:null}"><path d="M297.92503,130.60982c-0.44184,1.46598 -1.64289,2.35704 -3.56892,2.64861c-0.08755,0.0131 -0.17373,0.0213 -0.25991,0.02457c-0.11217,0.19656 -0.25854,0.3669 -0.4309,0.49958c-0.45142,0.34561 -0.87411,0.51432 -1.29133,0.51432c-0.85769,0 -1.78104,-0.76657 -1.78104,-2.45041c0,-0.11466 0.0041,-0.26372 0.01368,-0.4701c0.0041,-0.08845 0.0082,-0.15725 0.00957,-0.20802c-0.02325,-0.12776 -0.03557,-0.25716 -0.03557,-0.3882v-0.79278c0,-0.1294 0.01094,-0.2588 0.03283,-0.3882c0.00137,-0.10974 0.00547,-0.23259 0.01231,-0.3669c-0.03283,-0.14414 -0.05745,-0.31121 -0.05745,-0.49794c0,-0.08517 0.00547,-0.17035 0.01505,-0.25388c0.05198,-0.43898 0.21476,-0.87959 0.48972,-1.23176c-0.09438,-0.31613 -0.14363,-0.65027 -0.14363,-0.99261v-0.83537c0,-0.33906 0.05609,-0.76166 0.33103,-1.81323c0.11491,-0.45208 0.15184,-0.59295 0.20245,-0.72398c0.26948,-0.72398 0.67575,-1.08598 0.97123,-1.26452c0.48288,-0.28828 1.00132,-0.43571 1.54029,-0.43571c0.24897,0 0.48699,0.03113 0.71406,0.09009c0.10123,-0.08189 0.20929,-0.1507 0.3242,-0.20802c0.14637,-0.07535 0.30231,-0.12776 0.47467,-0.16053c0.4309,-0.08845 0.88642,0.0213 1.28312,0.30958c0.41721,0.30466 0.89599,0.93692 0.83718,2.23747c-0.00957,0.22932 -0.02599,0.53561 -0.05062,0.93528c-0.00137,0.00983 -0.00137,0.01966 -0.00273,0.02948c-0.02189,0.28992 -0.05335,0.72235 -0.09575,1.294c0.01094,0.22112 0.00684,0.46846 -0.00957,0.76002c-0.00684,0.11138 -0.02189,0.22276 -0.04651,0.33088c-0.00547,0.02457 -0.01094,0.0475 -0.01642,0.06879c0.18467,0.28337 0.31052,0.56674 0.3967,0.81243c0.08071,0.19492 0.1491,0.41932 0.20929,0.69287c0.02325,0.10319 0.0383,0.20802 0.04514,0.31449c0.06156,0.9189 0.03009,1.46107 -0.11217,1.9197z" data-paper-data="{&quot;origPos&quot;:null}" id="ID0.1519448710605502" fill="#ffc100"/><path d="M296.5374,128.83491c0.04008,0.59573 0.03187,0.97967 -0.02407,1.15264c-0.23282,0.7877 -1.015,1.28221 -2.34627,1.484c-0.44937,0.06732 -0.89846,-0.18722 -1.34782,-0.76362c0,0.08649 0.016,0.34577 0.04829,0.7782c0.02407,0.31695 0.01997,0.57624 -0.01204,0.77787c-0.20068,0.15364 -0.36099,0.23063 -0.48137,0.23063c-0.18467,0 -0.27674,-0.21605 -0.27674,-0.64847c0,-0.07682 0.00397,-0.19918 0.01204,-0.36723c0.00793,-0.16789 0.01203,-0.28566 0.01203,-0.35299c0,-0.16331 -0.01204,-0.27846 -0.03611,-0.34577v-0.79245c0,-0.01917 0.00397,-0.04079 0.01204,-0.06486c0.00793,-0.02391 0.016,-0.04554 0.02407,-0.06486c-0.00807,-0.13432 -0.0041,-0.34086 0.01204,-0.61948c0.016,-0.17297 0.016,-0.2832 0,-0.33136c-0.04022,-0.09582 -0.06006,-0.15348 -0.06006,-0.17281c0.03187,-0.26896 0.19657,-0.40343 0.49327,-0.40343c0.19246,0 0.30874,0.08174 0.34896,0.24487c0,0.15364 0.016,0.37952 0.04815,0.67714c0.04829,0.34577 0.20054,0.69172 0.4573,1.03733c0.2807,0.39393 0.54936,0.5764 0.80625,0.54757c0.28877,-0.03816 0.57754,-0.11989 0.86631,-0.24487c0.40108,-0.17297 0.6417,-0.37461 0.722,-0.60507c0.05595,-0.17297 0.08413,-0.35527 0.08413,-0.54757c0,-0.58573 -0.18043,-1.02292 -0.54143,-1.31103c-0.16059,-0.12481 -0.4573,-0.22571 -0.89052,-0.30269c-0.24869,-0.03816 -0.40121,-0.05766 -0.45716,-0.05766c-0.38507,0.00967 -0.74416,-0.13923 -1.07697,-0.44668c-0.33296,-0.30728 -0.49929,-0.66289 -0.49929,-1.06632v-0.83553c0,-0.1823 0.08823,-0.60982 0.26484,-1.2822c0.08002,-0.31712 0.12421,-0.485 0.13242,-0.50433c0.07209,-0.20164 0.16429,-0.33611 0.27659,-0.40344c0.27263,-0.16314 0.5614,-0.24487 0.86631,-0.24487c0.59354,0 1.03074,0.28812 1.31157,0.86436c0.02407,0.02882 0.06416,0.07207 0.12038,0.12973c0.00793,-0.13432 0.02407,-0.34086 0.04815,-0.61948c-0.00807,-0.12481 -0.01615,-0.24487 -0.02407,-0.36019c0,-0.13432 0.05595,-0.22555 0.16839,-0.27371c0.03201,-0.01917 0.07619,-0.03358 0.13242,-0.04324c0.08016,-0.01917 0.16648,0.00491 0.25881,0.07191c0.09206,0.06732 0.13023,0.26912 0.11422,0.60506c-0.00807,0.2113 -0.02407,0.50908 -0.04815,0.89319c-0.02407,0.31712 -0.06005,0.80211 -0.10834,1.45534c0.016,0.15364 0.016,0.3651 0,0.63389c-0.04022,0.18247 -0.1606,0.2737 -0.36099,0.2737c-0.10438,0 -0.2045,-0.03357 -0.30081,-0.10074c-0.04815,-0.1823 -0.07209,-0.25945 -0.07209,-0.23063c0.01587,-0.25929 -0.02818,-0.60506 -0.13242,-1.03733c-0.08836,-0.2208 -0.21052,-0.53529 -0.36701,-0.94364c-0.15649,-0.40819 -0.36305,-0.62686 -0.61967,-0.65568c-0.32091,-0.02882 -0.52939,0.1009 -0.62569,0.38902c-0.03201,0.12498 -0.07633,0.30761 -0.13228,0.54757c-0.0963,0.35544 -0.15649,0.69647 -0.18056,1.02292c-0.00807,0.10581 -0.01615,0.14905 -0.02407,0.12973c0.02407,0.19229 0.05211,0.38427 0.08426,0.5764c0.04008,0.24012 0.13844,0.42276 0.29478,0.54741c0.15649,0.12498 0.45511,0.20164 0.8964,0.23046c1.08285,0.07715 1.75259,0.52858 2.00935,1.35444c0.03994,0.07699 0.08002,0.20655 0.12024,0.38886z" data-paper-data="{&quot;origPos&quot;:null}" id="ID0.570444684009999" fill="#ffffff"/></g></g><g data-paper-data="{&quot;index&quot;:null}" stroke="#ffffff" stroke-width="1" stroke-linecap="butt"><g data-paper-data="{&quot;origPos&quot;:null}" id="Group"><path d="M331.10201,132.28034c0,0 -0.2026,-12.26392 0.04052,-13.95692c0,0 0.87119,-2.89049 2.24889,-4.00538c0,0 0.9725,2.8079 1.3777,5.28546c0,0 -1.86395,12.14005 -2.14759,12.9659c0,0 -0.62807,0.70197 -1.03327,0.78456c0.02026,0.04129 -0.48624,-0.45421 -0.48624,-1.07361z" id="Shape" fill="#8644b3"/><path d="M333.39143,114.40061l-1.09405,6.85458c-0.68885,-0.78456 -1.13458,-2.89049 -1.13458,-2.89049c0,0 0.87119,-2.89049 2.22863,-3.96409z" id="Shape" fill="#ea8be5"/><path d="M333.39143,114.40061l-1.09405,6.85458c-0.68885,-0.78456 -1.13458,-2.89049 -1.13458,-2.89049c0,0 0.87119,-2.89049 2.22863,-3.96409z" id="Shape" fill="#ea8be5"/><path d="M334.7286,119.97512c-1.2764,0.78456 -2.4515,1.28007 -2.4515,1.28007l1.11432,-6.85458c0,-0.04129 0.02026,-0.04129 0.02026,-0.04129c0,0 0.9725,2.8079 1.35744,5.28546c0,0 0,0.08258 -0.04052,0.33035z" id="Shape" fill="#ad59c2"/><path d="M332.29737,121.29648l-0.68885,12.14005c0,0 -0.48624,-0.5368 -0.48624,-1.11491c0,0 -0.2026,-12.26392 0.04052,-13.95692z" id="Shape" fill="#ad59c2"/><path d="M332.27711,121.25519c0,0 -0.02026,0.66068 -0.06078,1.6517c-0.02026,0.49551 -0.06078,1.07361 -0.08104,1.693c-0.04052,0.61939 -0.06078,1.28007 -0.1013,1.89947c-0.04052,0.66069 -0.08104,1.32136 -0.12156,1.89946c-0.04052,0.61939 -0.08104,1.19749 -0.1013,1.65171c-0.08104,0.94973 -0.12156,1.61041 -0.12156,1.61041c0,0 0.02026,-0.66069 0.06078,-1.6517c0.02026,-0.49551 0.06078,-1.07361 0.08104,-1.693c0.04052,-0.61939 0.06078,-1.28007 0.1013,-1.89946c0.04052,-0.66069 0.08104,-1.32137 0.12156,-1.89946c0.04052,-0.61939 0.08104,-1.19748 0.1013,-1.6517c0.08104,-0.99102 0.12156,-1.61041 0.12156,-1.61041z" id="Shape" fill="#ea8be5"/><path d="M331.6693,132.03257l-0.08104,1.36266c0,0 -0.48624,-0.5368 -0.48624,-1.11491c0,0 0.32417,-0.12388 0.56729,-0.24776z" id="Shape" fill="#a546bd"/><path d="M332.62153,132.61067c0,0 -0.64833,0.70197 -1.03327,0.78456l0.08104,-1.36266c0.12156,-0.04129 0.22286,-0.08258 0.26338,-0.08258c0.16208,-0.04129 0.68885,0.66068 0.68885,0.66068z" id="Shape" fill="#7c36ab"/><path d="M331.60852,133.39523c0.18234,-0.08258 0.36469,-0.20646 0.52677,-0.33034c0.16208,-0.12388 0.32417,-0.28905 0.46599,-0.5368l-0.02026,0.04129c0.12156,-0.82585 0.26338,-1.65171 0.40521,-2.47756c0.14183,-0.82585 0.26338,-1.65171 0.4052,-2.43627c0.28364,-1.65171 0.56729,-3.26212 0.87119,-4.87254c-0.24312,1.65171 -0.50651,3.30341 -0.79015,4.95512c-0.14183,0.82585 -0.28364,1.6517 -0.40521,2.43627c-0.14183,0.82585 -0.28364,1.65171 -0.42547,2.43627c-0.16208,0.20647 -0.32417,0.37164 -0.50651,0.49551c-0.18234,0.16517 -0.34442,0.24776 -0.52677,0.28905z" id="Shape" fill="#6b348f"/><path d="M331.14253,118.3647c0,0 0.93197,-0.16517 1.62082,-0.16517l-0.48624,3.05566c-0.66859,-0.82585 -1.13458,-2.89049 -1.13458,-2.89049z" id="Shape" fill="#e17de3"/><path d="M333.45221,118.32341c0.18235,0.12388 0.85093,0.74327 1.29666,1.19749c0,0.04129 0.02026,0.12388 0.02026,0.16517c0,0 -0.02026,0.08258 -0.04052,0.28905c-1.2764,0.78456 -2.4515,1.28007 -2.4515,1.28007l0.48624,-3.05566c0.32417,0 0.60781,0 0.68885,0.12388z" id="Shape" fill="#9b4dae"/><path d="M334.7286,119.93382c0,0 -0.12156,0.12388 -0.28364,0.24776c-0.18235,0.12388 -0.40521,0.28905 -0.64833,0.45422c-0.24312,0.12388 -0.48624,0.24776 -0.66859,0.33035c-0.18235,0.08258 -0.3039,0.08258 -0.3039,0.08258c0,0 0.02026,0 0.08104,-0.04129c0.06078,-0.04129 0.12156,-0.08258 0.22286,-0.12387c0.18234,-0.12388 0.40521,-0.24776 0.64833,-0.41292c0.24312,-0.12388 0.48624,-0.28905 0.66859,-0.37164c0.16208,-0.12388 0.28364,-0.16517 0.28364,-0.16517z" id="Shape" fill="#6b348f"/></g><g data-paper-data="{&quot;origPos&quot;:null}"><path d="M339.25968,128.94198c-0.06169,1.35609 -0.26174,2.38529 -0.60985,3.13429c-0.20269,0.43646 -0.50321,0.78133 -1.00378,1.14775c-0.0097,0.00718 -0.02027,0.01436 -0.03084,0.02155c-0.23971,0.15627 -0.50145,0.23709 -0.77729,0.23709c-0.42037,0 -0.81078,-0.16884 -1.16065,-0.50113c-0.51731,-0.49215 -0.77465,-1.18007 -0.90243,-1.76023c-0.01851,-0.06287 -0.0379,-0.12753 -0.0564,-0.19757c-0.05288,-0.19578 -0.08989,-0.40773 -0.10752,-0.62865c-0.02556,-0.30894 -0.0661,-0.77415 -0.12162,-1.39202c-0.01058,-0.11855 -0.01586,-0.23709 -0.01586,-0.35743v-1.56266c0,-0.19398 0.00793,-0.47778 0.06521,-1.24653c0.05552,-0.75259 0.07932,-0.98609 0.12338,-1.21599c0.11545,-0.62686 0.46091,-2.46971 1.29813,-2.83433c0.27496,-0.11855 0.58429,-0.13471 0.87688,-0.07005c0.2071,-0.67715 0.57724,-1.08128 0.99761,-1.08128c0.72971,0 1.13333,0.98069 1.20912,1.95062c0.00793,0.10238 0.01146,0.20656 0.01146,0.31073v2.49485c0,0.0018 0,0.00359 0,0.00359c0,0.0018 0,0.0018 0,0.0036c0,0 0,0 0,0.0018c0,0.16345 -0.01058,0.31971 -0.0282,0.47239c0.17009,0.39336 0.26439,0.87831 0.26879,1.3974c0.00529,0.52089 -0.00705,1.08488 -0.03613,1.67222z" data-paper-data="{&quot;origPos&quot;:null}" id="ID0.6895651021040976" fill="#ffc100"/><path d="M338.32631,127.30353c0.00503,0.44239 -0.0052,0.92178 -0.03102,1.43764c-0.04151,0.90598 -0.15766,1.56409 -0.3489,1.97487c-0.08795,0.18967 -0.29717,0.40557 -0.62783,0.6477c-0.14479,0.09483 -0.30501,0.14226 -0.48065,0.14226c-0.27902,0 -0.52974,-0.10525 -0.75191,-0.31612c-0.24297,-0.23152 -0.39279,-0.53166 -0.44963,-0.9006c-0.02062,-0.05263 -0.04398,-0.12626 -0.06971,-0.2211c-0.026,-0.31594 -0.06724,-0.78977 -0.12408,-1.42183v-1.56409c0,-0.14747 0.01806,-0.4634 0.05429,-0.948c0.03604,-0.48424 0.0594,-0.75276 0.0698,-0.80558c0.18084,-0.97962 0.37984,-1.51667 0.5968,-1.61169c0.09809,-0.04185 0.20666,-0.06322 0.32554,-0.06322c0.38239,0 0.72873,0.18967 1.03877,0.56884c0.02053,0.0212 0.04644,0.03161 0.07746,0.03161c0.0052,-0.03161 0.01031,-0.16309 0.0156,-0.39497c0.00511,0 0.00511,-0.1841 0,-0.55285c-0.00529,-0.2529 0.00697,-0.4318 0.03666,-0.53723c0.02952,-0.10507 0.08883,-0.15807 0.17749,-0.15807c0.15246,0 0.23618,0.09484 0.25099,0.28451c0,0.0106 0,0.40036 0,1.16912c0,0.57944 0,0.9428 0,1.09008c0,0.17925 0,0.25829 0,0.23691c-0.0208,0.15806 -0.05693,0.25272 -0.10857,0.28433c-0.13942,0.09483 -0.23513,0.10041 -0.28677,0.01581c-0.02591,0 -0.0542,-0.01581 -0.08531,-0.04742c-0.02591,-0.14728 -0.08266,-0.34199 -0.17053,-0.58447c-0.11897,-0.19991 -0.27399,-0.37378 -0.46505,-0.52142c-0.19133,-0.14728 -0.3541,-0.22111 -0.48841,-0.22111c-0.17062,0 -0.30748,0.26853 -0.41086,0.80576c-0.14479,0.73732 -0.20931,1.69036 -0.19379,2.85965c0.01031,0.51621 0.01806,0.84276 0.02335,0.97944c0.02573,0.43197 0.08266,0.80055 0.17053,1.10589c0.06204,0.21087 0.15757,0.38473 0.28686,0.52142c0.12911,0.13704 0.25575,0.21069 0.37984,0.2211c0.61505,0.0528 0.97408,-0.50023 1.07763,-1.65892c0.05685,-0.62129 0.06196,-1.14271 0.01551,-1.56409c-0.01049,-0.08424 -0.00538,-0.19757 0.01551,-0.33983c0.02045,-0.14208 0.11104,-0.22901 0.27126,-0.26062c0.03613,0 0.08002,0.0343 0.13184,0.10273c0.05129,0.06897 0.07729,0.13992 0.07729,0.21356z" data-paper-data="{&quot;origPos&quot;:null}" id="ID0.5211598752066493" fill="#ffffff"/></g><g data-paper-data="{&quot;origPos&quot;:null}"><path d="M329.93357,130.60982c-0.25959,1.46598 -0.96521,2.35705 -2.09678,2.64861c-0.05144,0.0131 -0.10206,0.0213 -0.1527,0.02457c-0.0659,0.19656 -0.1519,0.3669 -0.25316,0.49958c-0.26521,0.34561 -0.51355,0.51432 -0.75867,0.51432c-0.5039,0 -1.04639,-0.76657 -1.04639,-2.45041c0,-0.11466 0.00241,-0.26372 0.00804,-0.4701c0.00241,-0.08845 0.00482,-0.15725 0.00563,-0.20802c-0.01366,-0.12776 -0.0209,-0.25716 -0.0209,-0.3882v-0.79278c0,-0.1294 0.00643,-0.2588 0.01929,-0.3882c0.0008,-0.10974 0.00322,-0.23259 0.00723,-0.3669c-0.01929,-0.14414 -0.03376,-0.31121 -0.03376,-0.49794c0,-0.08517 0.00321,-0.17035 0.00884,-0.25389c0.03054,-0.43898 0.12618,-0.87959 0.28772,-1.23176c-0.05545,-0.31613 -0.08438,-0.65027 -0.08438,-0.99261v-0.83537c0,-0.33906 0.03295,-0.76166 0.19449,-1.81323c0.06751,-0.45208 0.08921,-0.59295 0.11894,-0.72398c0.15832,-0.72398 0.39701,-1.08597 0.57061,-1.26452c0.2837,-0.28828 0.58829,-0.43571 0.90494,-0.43571c0.14627,0 0.28611,0.03113 0.41952,0.09009c0.05948,-0.08189 0.12296,-0.1507 0.19047,-0.20802c0.08599,-0.07534 0.17761,-0.12776 0.27887,-0.16053c0.25316,-0.08845 0.52078,0.0213 0.75385,0.30958c0.24512,0.30466 0.5264,0.93692 0.49185,2.23747c-0.00563,0.22932 -0.01527,0.53561 -0.02974,0.93529c-0.0008,0.00982 -0.00081,0.01966 -0.0016,0.02948c-0.01286,0.28992 -0.03135,0.72235 -0.05625,1.29399c0.00643,0.22112 0.00402,0.46846 -0.00563,0.76002c-0.00402,0.11138 -0.01286,0.22276 -0.02733,0.33088c-0.00321,0.02457 -0.00643,0.0475 -0.00964,0.0688c0.1085,0.28337 0.18244,0.56673 0.23306,0.81243c0.04742,0.19492 0.0876,0.41932 0.12296,0.69287c0.01366,0.10319 0.0225,0.20802 0.02652,0.31449c0.03617,0.9189 0.01768,1.46107 -0.0659,1.9197z" data-paper-data="{&quot;origPos&quot;:null}" id="ID0.1519448710605502" fill="#ffc100"/><path d="M329.11832,128.83491c0.02355,0.59573 0.01872,0.97967 -0.01414,1.15264c-0.13679,0.7877 -0.59633,1.28221 -1.37846,1.484c-0.26401,0.06732 -0.52785,-0.18722 -0.79186,-0.76362c0,0.08648 0.0094,0.34577 0.02837,0.7782c0.01414,0.31695 0.01173,0.57624 -0.00707,0.77787c-0.1179,0.15364 -0.21209,0.23063 -0.28281,0.23063c-0.1085,0 -0.16258,-0.21605 -0.16258,-0.64847c0,-0.07682 0.00233,-0.19918 0.00707,-0.36723c0.00466,-0.16789 0.00707,-0.28566 0.00707,-0.35299c0,-0.16331 -0.00707,-0.27846 -0.02122,-0.34577v-0.79245c0,-0.01917 0.00233,-0.04079 0.00707,-0.06486c0.00466,-0.02391 0.0094,-0.04554 0.01414,-0.06486c-0.00474,-0.13431 -0.00241,-0.34086 0.00707,-0.61948c0.0094,-0.17296 0.0094,-0.2832 0,-0.33136c-0.02363,-0.09582 -0.03528,-0.15348 -0.03528,-0.17281c0.01872,-0.26896 0.11549,-0.40343 0.28981,-0.40343c0.11308,0 0.18139,0.08174 0.20502,0.24488c0,0.15364 0.0094,0.37952 0.02829,0.67714c0.02837,0.34577 0.11782,0.69172 0.26867,1.03733c0.16491,0.39393 0.32276,0.5764 0.47368,0.54757c0.16965,-0.03816 0.33931,-0.1199 0.50897,-0.24488c0.23564,-0.17296 0.377,-0.37461 0.42418,-0.60507c0.03287,-0.17296 0.04942,-0.35527 0.04942,-0.54757c0,-0.58573 -0.10601,-1.02292 -0.3181,-1.31103c-0.09435,-0.12481 -0.26867,-0.22571 -0.52319,-0.30269c-0.14611,-0.03816 -0.23572,-0.05765 -0.26859,-0.05765c-0.22623,0.00967 -0.4372,-0.13923 -0.63273,-0.44668c-0.19561,-0.30728 -0.29334,-0.66289 -0.29334,-1.06632v-0.83553c0,-0.1823 0.05183,-0.60982 0.15559,-1.28221c0.04702,-0.31712 0.07297,-0.48501 0.0778,-0.50433c0.04235,-0.20164 0.09652,-0.33611 0.1625,-0.40344c0.16018,-0.16314 0.32983,-0.24487 0.50896,-0.24487c0.34871,0 0.60557,0.28812 0.77057,0.86436c0.01414,0.02883 0.03769,0.07207 0.07072,0.12973c0.00466,-0.13431 0.01414,-0.34086 0.02829,-0.61948c-0.00474,-0.12481 -0.00948,-0.24487 -0.01414,-0.36019c0,-0.13431 0.03287,-0.22555 0.09893,-0.27371c0.01881,-0.01917 0.04476,-0.03358 0.0778,-0.04324c0.0471,-0.01917 0.09781,0.00491 0.15205,0.0719c0.05408,0.06732 0.07651,0.26912 0.0671,0.60507c-0.00474,0.2113 -0.01414,0.50908 -0.02829,0.89318c-0.01414,0.31712 -0.03528,0.80211 -0.06365,1.45534c0.0094,0.15364 0.0094,0.36511 0,0.63389c-0.02363,0.18247 -0.09435,0.2737 -0.21209,0.2737c-0.06132,0 -0.12015,-0.03357 -0.17673,-0.10074c-0.02829,-0.1823 -0.04235,-0.25946 -0.04235,-0.23063c0.00932,-0.25929 -0.01655,-0.60506 -0.0778,-1.03732c-0.05191,-0.2208 -0.12369,-0.53529 -0.21562,-0.94364c-0.09194,-0.40819 -0.21329,-0.62685 -0.36406,-0.65568c-0.18854,-0.02883 -0.31102,0.1009 -0.3676,0.38901c-0.01881,0.12498 -0.04484,0.30761 -0.07771,0.54757c-0.05658,0.35544 -0.09194,0.69647 -0.10609,1.02292c-0.00474,0.10581 -0.00948,0.14905 -0.01414,0.12973c0.01414,0.19229 0.03062,0.38427 0.04951,0.5764c0.02355,0.24012 0.08133,0.42276 0.17319,0.54741c0.09194,0.12498 0.26738,0.20164 0.52665,0.23046c0.63619,0.07715 1.02966,0.52857 1.18051,1.35444c0.02347,0.07699 0.04701,0.20655 0.07064,0.38886z" data-paper-data="{&quot;origPos&quot;:null}" id="ID0.570444684009999" fill="#ffffff"/></g></g><g><path d="M92.46777,293.63853v-106.78929h296.36065v106.78929z" fill="url(#color-5)" stroke="none" stroke-width="0" stroke-linecap="butt"/><g stroke="#000000" stroke-linecap="butt"><path d="M119.48407,233.74665v-53.36447h57.47772v53.36447z" data-paper-data="{&quot;origPos&quot;:null}" fill="#d1c7b4" stroke-width="1"/><path d="M138.21149,233.80215v-33.15193h18.64797v33.15193z" data-paper-data="{&quot;origPos&quot;:null}" fill="#dedede" stroke-width="0.5"/></g><g stroke="#000000" stroke-linecap="butt"><path d="M192.74394,233.08065v-53.36447h57.47772v53.36447z" data-paper-data="{&quot;origPos&quot;:null}" fill="#d1c7b4" stroke-width="1"/><path d="M211.47136,233.13615v-33.15193h18.64797v33.15193z" data-paper-data="{&quot;origPos&quot;:null}" fill="#dedede" stroke-width="0.5"/></g><g stroke="#000000" stroke-linecap="butt"><path d="M266.00382,233.08065v-53.36447h57.47772v53.36447z" data-paper-data="{&quot;origPos&quot;:null}" fill="#d1c7b4" stroke-width="1"/><path d="M284.73123,233.13615v-33.15193h18.64797v33.15193z" data-paper-data="{&quot;origPos&quot;:null}" fill="#dedede" stroke-width="0.5"/></g><g fill="#000000" stroke="#000000" stroke-width="1"><path d="M138.7311,230.96387l0.06055,-10.96055h0.36333l0.36334,10.96056z" data-paper-data="{&quot;origPos&quot;:null}" stroke-linecap="butt"/><path d="M144.49644,215.91843c0,2.93619 -2.39645,5.31645 -5.35261,5.31645c-2.95617,0 -5.35261,-2.38025 -5.35261,-5.31645c0,-2.93619 2.39645,-5.31645 5.35261,-5.31645c2.95617,0 5.35261,2.38025 5.35261,5.31645z" data-paper-data="{&quot;origPos&quot;:null}" stroke-linecap="butt"/><path d="M144.37148,216.03402c0,2.69651 -2.15356,4.88245 -4.81012,4.88245c-2.65656,0 -4.81012,-2.18595 -4.81012,-4.88245c0,-2.69651 2.15357,-4.88245 4.81012,-4.88245c2.65656,0 4.81012,2.18595 4.81012,4.88245z" data-paper-data="{&quot;origPos&quot;:null}" stroke-linecap="butt"/><path d="M143.06594,218.19113l-5.11634,0.87213" data-paper-data="{&quot;origPos&quot;:null,&quot;origRot&quot;:0}" stroke-linecap="round"/><path d="M137.98895,219.81125l-0.1142,-1.61178" data-paper-data="{&quot;origPos&quot;:null,&quot;origRot&quot;:0}" stroke-linecap="round"/><path d="M134.3113,215.869c-0.00485,0.0019 -0.0097,0.00376 -0.01454,0.00554c-0.01813,0.00669 -0.03989,0.01073 -0.06386,0.0129c-0.44239,0.16827 -0.92154,0.11399 -1.38443,0.11399c-0.22748,0 -0.36669,0.03251 -0.56785,-0.16488c-0.05122,-0.05026 0.00344,-0.1523 0.00829,-0.22825c0.0116,-0.1818 0.02856,-0.34012 0.09164,-0.50857c0.21279,-0.56827 0.52301,-1.04851 0.87115,-1.51345c-0.00421,-0.14218 -0.00958,-0.35024 0.04837,-0.46791c0.01477,-0.03 0.03163,-0.0583 0.05034,-0.08498c-0.02183,-0.45305 0.05944,-0.90199 0.29775,-1.25736c0.3726,-0.49185 0.87277,-0.91835 1.44347,-1.09042c0.03933,-0.01186 0.07886,-0.02283 0.11856,-0.03301c0.05683,-0.02826 0.11481,-0.05192 0.1737,-0.07173c0.03226,-0.04279 0.06458,-0.08103 0.09349,-0.10578c0.07513,-0.06431 0.17578,-0.07854 0.26367,-0.11781c0.06814,-0.03045 0.13894,-0.05702 0.21149,-0.07891c-0.00832,-0.14642 -0.01014,-0.29508 0.01972,-0.39918c0.14598,-0.50884 0.56139,-0.71342 0.98814,-0.82367c0.53014,-0.13159 1.04664,-0.15851 1.58697,-0.15966c0.06569,-0.12688 0.22982,-0.23724 0.33863,-0.30082c0.88377,-0.51637 1.95529,-0.57281 2.9181,-0.30394c0.08177,0.06411 0.18382,0.10438 0.2453,0.19234c0.02913,0.04167 0.00038,0.10574 0,0.15861c-0.00135,0.18891 -0.02859,0.35879 -0.0628,0.54341c-0.03594,0.19398 -0.09788,0.37379 -0.17905,0.54167c0.22357,0.07154 0.36469,0.23055 0.46075,0.4299c0.19596,-0.06704 0.39307,-0.1547 0.58085,-0.22469c0.31845,-0.11857 0.62733,-0.22446 0.95513,-0.30583c0.08617,-0.02139 0.1726,-0.04149 0.25916,-0.06084c0.04641,-0.01038 0.09909,-0.05911 0.13923,-0.03111c0.35437,0.24719 0.31653,0.9022 0.17197,1.26723c-0.06217,0.15701 -0.17152,0.30666 -0.25675,0.44948c-0.05921,0.0992 -0.12012,0.19715 -0.18272,0.29374c0.19879,0.0953 0.3864,0.22117 0.53169,0.36293c0.02823,0.02755 0.05931,0.05687 0.09036,0.08772c0.07705,0.00167 0.15353,0.00589 0.22884,0.0144c0.22451,0.02537 0.45655,0.09946 0.67685,0.15415c0.47574,0.11809 1.06125,0.22812 1.35308,0.72176c0.14267,0.24132 0.09118,0.74216 -0.13775,0.89495c-0.04063,0.02711 -0.09466,0 -0.14199,0c-0.19032,0 -0.38992,0.02589 -0.57006,-0.04957c-0.27535,-0.11534 -0.56742,-0.26717 -0.8557,-0.33404c-0.16709,-0.03876 -0.35127,-0.06326 -0.53775,-0.07285c-0.02239,0.04251 -0.04714,0.08294 -0.07411,0.12122c0.01764,0.09081 0.0197,0.1763 -0.00703,0.24006c-0.18401,0.43901 -0.69751,0.48861 -1.06208,0.33582c-0.03332,-0.01397 -0.23636,-0.08312 -0.27047,-0.12598c-0.01685,-0.02117 -0.03166,-0.04157 -0.04469,-0.06154c-0.08521,-0.00514 -0.16955,-0.01778 -0.2439,-0.05234c-0.07131,-0.03314 -0.12609,-0.08639 -0.16694,-0.15288c-0.00568,0.00279 -0.01137,0.00554 -0.01708,0.00823c-0.05338,0.07702 -0.11768,0.14663 -0.19557,0.20635c-0.06077,0.0466 -0.30165,0.03784 -0.37284,0.0458c-0.33705,0.03764 -0.68908,-0.02408 -1.00846,-0.143c-0.1585,-0.05902 -0.3173,-0.10378 -0.38625,-0.28223c-0.01241,-0.00017 -0.02477,-0.00028 -0.03704,-0.00028c-0.23736,0 -0.4621,-0.07426 -0.66214,-0.19977c-0.31237,0.19039 -0.71197,0.22292 -1.05656,0.18128c-0.06318,-0.00763 -0.18352,-0.00416 -0.27661,-0.01839c-0.09788,0.20948 -0.24294,0.40172 -0.41765,0.49467c-0.30924,0.16453 -0.80927,0.16183 -1.12343,0.04259c-0.09797,-0.04377 -0.19519,-0.09521 -0.28933,-0.15402c-0.12694,0.08366 -0.25664,0.15993 -0.38949,0.22607c-0.10685,0.0532 -0.2215,0.09577 -0.33901,0.1333c-0.01989,0.03524 -0.04294,0.06963 -0.06963,0.10321c-0.02627,0.03305 -0.07125,0.03849 -0.10688,0.05773c-0.13324,0.07197 -0.2804,0.17488 -0.42456,0.21164c-0.16389,0.0418 -0.38138,-0.00192 -0.55277,-0.01245c-0.23438,0.07287 -0.46962,0.13002 -0.71619,0.14006c0.00128,0.00173 0.00258,0.00344 0.00386,0.00515c0.15534,0.00617 0.31293,0.01302 0.46287,-0.00384c0.27369,-0.03076 0.40607,-0.18241 0.6114,0.14347c0.01723,0.02735 -0.0172,0.06416 -0.0284,0.09516c-0.0301,0.08334 -0.06469,0.14715 -0.10721,0.20522c0.02001,-0.00101 0.03931,-0.00161 0.0577,-0.00161c0.25514,0 0.5454,0.04508 0.79601,0.01283c0.12536,-0.01613 0.28383,-0.13588 0.39757,-0.19033c0,0 0.13051,-0.06248 0.18644,0.0833c0.05593,0.14578 -0.07458,0.20826 -0.07458,0.20826c-0.11785,0.05641 -0.26892,0.16833 -0.39758,0.19033c-0.29249,0.05 -0.61245,0.01283 -0.90787,0.01283c-0.10966,0 -0.2519,0.0214 -0.38183,0.02194c-0.15659,0.15069 -0.33206,0.30422 -0.50869,0.39001l0.01792,0.02693c0,0 -0.03745,0.01101 -0.07839,-0.00032zM134.19235,215.57282c0.04069,-0.00056 0.07748,-0.00469 0.1044,-0.01548c0.0212,-0.0085 0.0222,-0.04506 0.03938,-0.06134c0.05552,-0.05263 0.11424,-0.10283 0.1739,-0.15228c-0.14205,-0.08989 -0.26636,-0.22189 -0.37614,-0.35658c-0.0292,-0.0005 -0.05827,-0.00081 -0.08719,-0.00081c-0.44488,0.00006 -0.65075,-0.40811 -0.7381,-0.84381c-0.19707,0.21545 -0.37093,0.45976 -0.45554,0.75897c-0.02823,0.09983 -0.09414,0.3216 -0.06062,0.42912c0.0065,0.02085 0.04249,-0.01651 0.05914,-0.00461c0.0563,0.04025 0.10464,0.10341 0.17007,0.1187c0.11654,0.02724 0.23281,0.10264 0.35098,0.11953c0.17325,0.02476 0.37847,-0.00689 0.55495,-0.00689c0.05941,0 0.16163,0.01495 0.24968,0.01553c0.00394,-0.00165 0.00788,-0.00331 0.01181,-0.005zM135.80031,212.69409c0.00083,-0.00997 0.00173,-0.01991 0.0027,-0.02986c-0.0861,-0.04643 -0.1709,-0.09563 -0.25125,-0.15165c-0.06143,0.05073 -0.12246,0.10206 -0.18307,0.15406c0.03272,0.01556 0.06293,0.03028 0.08629,0.04153c0.11221,0.00887 0.22739,0.01181 0.31916,-0.0075c0.00835,-0.00176 0.01709,-0.00396 0.02616,-0.00659zM134.98474,212.06961c0.0295,-0.00931 0.0591,-0.01827 0.08851,-0.02717c-0.01142,-0.10077 -0.00386,-0.21665 0.00283,-0.28363c0.00637,-0.06386 0.01677,-0.12463 0.0308,-0.18265c-0.06524,0.14349 -0.11081,0.29295 -0.11672,0.44492c-0.00158,0.01584 -0.0034,0.03203 -0.00542,0.04853zM137.45561,211.23199c-0.04978,0.00953 -0.0992,0.02043 -0.14809,0.03304c-0.08078,0.03976 -0.16252,0.08752 -0.23551,0.13395c-0.00445,0.03701 -0.0043,0.07678 -0.0249,0.10476c-0.01996,0.02711 -0.04008,0.05118 -0.06052,0.07256c0.04232,0.03684 0.0845,0.06689 0.12384,0.08125c0.08221,0.03001 0.18518,0.04233 0.28972,0.05108c0.02321,-0.11056 0.0502,-0.21938 0.04877,-0.33852c-0.00009,-0.00697 0.00387,-0.06851 0.00669,-0.13812zM137.36733,212.0106c-0.14876,-0.02075 -0.29841,-0.04692 -0.43185,-0.10318c-0.07276,-0.03068 -0.15038,-0.1046 -0.2227,-0.1782c-0.04505,0.01022 -0.09285,0.01669 -0.14419,0.02154c-0.00369,0 -0.00735,-0.00006 -0.011,-0.00017c-0.07245,0.05095 -0.14456,0.10231 -0.21628,0.15416c-0.01078,0.01607 -0.021,0.03225 -0.03051,0.04857c0.00277,0.00121 0.00554,0.00242 0.0083,0.00366c0.07344,0.07419 0.16722,0.12922 0.22032,0.22258c0.02278,0.04006 -0.00493,0.09506 -0.01319,0.14162c-0.00003,0.00014 -0.00005,0.00029 -0.00008,0.00042c0.01412,0.0001 0.02827,0.00015 0.04242,0.00015c0.12846,0 0.2503,-0.02032 0.37777,-0.03812c0.05753,-0.00803 0.12227,0.00807 0.17258,-0.0241c0.06033,-0.03857 0.09148,-0.11783 0.14487,-0.16754c0.03164,-0.02945 0.07597,-0.04863 0.10352,-0.08139zM135.39894,211.49737c0.00327,0.08731 0.01965,0.18664 0.02689,0.25178c0.00089,0.00804 0.00199,0.04107 0.00393,0.08349c0.11347,-0.11185 0.23033,-0.21861 0.34955,-0.31951c0.10237,-0.08664 0.20266,-0.17791 0.30657,-0.26279c-0.04112,-0.11975 -0.07011,-0.24745 -0.08855,-0.36668c-0.02865,0.02165 -0.05721,0.04389 -0.08567,0.06681c-0.1548,0.12465 -0.39344,0.31902 -0.49414,0.50219c-0.00707,0.01286 -0.01322,0.02799 -0.01858,0.04469zM138.65386,210.0647c-0.03675,0.00822 -0.07246,0.01812 -0.10653,0.0304c-0.10911,0.03932 -0.231,0.14309 -0.33393,0.20254c-0.13826,0.07987 -0.27919,0.16253 -0.41937,0.24984c0.15911,0.06677 0.30487,0.16555 0.43316,0.28705c0.01994,-0.00186 0.03996,-0.00373 0.06005,-0.00559c0.04513,-0.05633 0.08946,-0.11386 0.14744,-0.15095c0.10395,-0.0665 0.21633,-0.11051 0.33255,-0.1396c-0.01403,-0.16007 -0.03469,-0.32251 -0.10372,-0.45529c-0.00094,-0.00183 -0.00438,-0.00839 -0.00964,-0.01841zM139.7364,212.56542c0.08184,0.12207 0.17851,0.2325 0.28731,0.3235c0.04997,-0.0389 0.10496,-0.08489 0.15668,-0.13273c-0.07429,-0.03 -0.14819,-0.06256 -0.22146,-0.0969c-0.03558,-0.00314 -0.06829,-0.00943 -0.09617,-0.02033c-0.0449,-0.01754 -0.08573,-0.04528 -0.12635,-0.07356zM142.22406,212.00351c0.16077,-0.00572 0.32177,-0.00382 0.48204,0.00811c-0.0086,-0.11087 -0.02333,-0.22182 -0.03609,-0.33231c-0.04735,0.00279 -0.09417,0.00521 -0.14008,0.00663c-0.03464,0.03778 -0.06844,0.07525 -0.10014,0.11275c-0.06122,0.07241 -0.13068,0.14081 -0.20572,0.20482zM142.94603,211.09647c0.02004,0.08261 0.03515,0.16989 0.04604,0.25625c0.14879,-0.00276 0.29648,0.00143 0.4371,0.02559c0.07401,0.01272 0.15017,0.03158 0.22678,0.05578c0.07784,-0.11749 0.15306,-0.23714 0.22565,-0.35876c0.15093,-0.25288 0.31554,-0.52227 0.33069,-0.83861c0.00377,-0.07883 -0.11325,-0.29063 -0.08302,-0.35291c0.02122,-0.04371 0.16685,-0.01185 0.12909,-0.03818c-0.07944,-0.05541 -0.18386,0.04 -0.27551,0.06151c-0.35873,0.0842 -0.69648,0.19678 -1.04391,0.32614c-0.15467,0.05754 -0.31339,0.12261 -0.47346,0.18066c0.05144,0.04212 0.11104,0.09517 0.16877,0.15198c0.07325,0.00322 0.14301,0.03928 0.21204,0.06721c0.03415,0.01381 0.08328,0.02064 0.09535,0.05891c0.04732,0.15008 0.04202,0.28313 0.00438,0.40441zM142.16059,210.81716c-0.00368,-0.06528 -0.01143,-0.13659 -0.02386,-0.20807c-0.04218,-0.0081 -0.07903,-0.01438 -0.0961,-0.01899c-0.04023,-0.01086 -0.08122,-0.02121 -0.12287,-0.03099c-0.14551,0.01062 -0.30417,-0.00913 -0.44727,-0.01309c-0.01796,0.04671 -0.03686,0.09405 -0.05662,0.14262c-0.1353,0.28699 -0.36528,0.47358 -0.57901,0.69097c-0.00301,0.00307 -0.00604,0.00615 -0.00906,0.00922c0.07873,0.10781 0.15793,0.22138 0.22964,0.34054c0.12902,-0.12915 0.26673,-0.248 0.38461,-0.36086c0.09171,-0.0878 0.19713,-0.12374 0.30839,-0.14312c0.01375,-0.0379 0.02914,-0.07506 0.04537,-0.11131c0.03772,-0.08427 0.19019,-0.1765 0.24977,-0.21753c0.03924,-0.02703 0.07809,-0.05358 0.117,-0.07939zM142.42604,211.13727c0.04719,-0.00107 0.09366,0.00165 0.13825,0.01018c-0.03217,-0.04834 -0.07,-0.09829 -0.10175,-0.14323c-0.00273,0.02837 -0.00773,0.0554 -0.01558,0.0804c-0.00572,0.01821 -0.01285,0.03568 -0.02092,0.05265zM140.49913,209.92015c-0.33049,-0.02051 -0.66212,-0.00876 -0.99247,0.02732c-0.00232,0.01865 -0.00506,0.03634 -0.00843,0.05244c0.24552,0.08616 0.50847,0.13397 0.75033,0.17553c0.02866,0.00492 0.0573,0.00941 0.08594,0.01349c-0.00416,-0.01051 -0.00852,-0.02087 -0.01314,-0.031c0.0241,-0.10768 0.09067,-0.18328 0.17778,-0.23779zM139.63329,209.15006c-0.11145,0.00116 -0.22566,0.00463 -0.34098,0.01125c0.00777,0.01027 0.01502,0.02089 0.0217,0.03187c0.03997,0.06575 0.0675,0.13657 0.08634,0.21042c0.06807,-0.07981 0.14404,-0.1544 0.20885,-0.22679c0.00801,-0.00895 0.01604,-0.01787 0.0241,-0.02676zM134.3699,211.44257c-0.18761,0.1591 -0.35735,0.34349 -0.50498,0.53837c-0.15086,0.15107 -0.22119,0.56138 -0.22132,0.7849c0,0.00699 -0.00003,0.01404 -0.00007,0.02113c0.15246,-0.07975 0.33009,-0.12764 0.50241,-0.15692c0.05921,-0.04936 0.11975,-0.09865 0.18176,-0.14872c0.0229,-0.01849 0.04597,-0.03792 0.06921,-0.05778c-0.01081,-0.14437 -0.01496,-0.29361 -0.01496,-0.45075c0,-0.12616 -0.04247,-0.38694 -0.01205,-0.53023zM134.62368,213.42006c-0.01449,0.05197 -0.02866,0.10388 -0.04505,0.15269c-0.05488,0.16347 -0.0263,0.35023 -0.0263,0.52539c0,0.05286 -0.02767,0.11572 0,0.15861c0.01898,0.02941 0.00621,-0.09117 0.03762,-0.10031c0.07788,-0.02267 0.157,0.047 0.23747,0.04862c0.04982,0.00101 0.10263,0.00544 0.157,0.01103c0.15405,-0.05859 0.30714,-0.12308 0.453,-0.17101c0.15587,-0.05121 0.32288,-0.0934 0.48782,-0.14145c0.02983,-0.14963 0.10902,-0.31626 -0.00576,-0.44729c-0.01527,-0.03079 -0.02467,-0.06697 -0.03993,-0.09778c-0.00559,-0.00484 -0.01114,-0.00983 -0.01665,-0.01499c-0.00015,-0.00015 -0.00031,-0.00029 -0.00047,-0.00043c0.00453,0.09749 0.0099,0.26397 -0.00377,0.27918c-0.24027,0.26722 -0.5649,0.25248 -0.87109,0.18854c-0.04653,-0.00972 -0.10143,0.00113 -0.13934,-0.03052c-0.06901,-0.05762 -0.10948,-0.14863 -0.16422,-0.22295c-0.02152,-0.04611 -0.0416,-0.09185 -0.06031,-0.13732zM134.57178,214.99237c0.02398,0.02048 0.04855,0.041 0.07384,0.06186c0.01927,0.01589 0.02562,0.05186 0.0487,0.059c0.02303,0.00712 0.04777,0.01219 0.07374,0.01566c0.00342,-0.003 0.00683,-0.00602 0.01023,-0.00904c0.05985,-0.05309 0.13493,-0.1154 0.19688,-0.18306c-0.01712,0.0049 -0.03421,0.01007 -0.05147,0.01414c-0.11462,0.02704 -0.23275,0.03799 -0.35193,0.04144zM134.84867,213.23879c0.03004,0.05897 0.06146,0.11694 0.08713,0.17194c-0.01098,0.01944 -0.04942,0.04456 -0.03293,0.05832c0.10049,0.08391 0.38994,0.0732 0.50748,0.05995c0.04709,-0.00531 0.09704,-0.05507 0.13923,-0.03111c0.03393,0.01927 -0.00124,0.09372 0.02509,0.12442c0.01965,0.02291 0,-0.06344 0,-0.09516c0,-0.03172 0,-0.06344 0,-0.09516c0,-0.05286 -0.01046,-0.10705 0,-0.15861c0.00155,-0.00766 0.00816,-0.01313 0.0157,-0.01796c-0.04844,-0.02413 -0.09718,-0.04605 -0.14772,-0.05436c-0.07825,-0.01287 -0.15805,0.00887 -0.23716,0.00887c-0.12168,0 -0.24065,0.00984 -0.35682,0.02885zM135.83262,211.86874c0.01454,-0.00037 0.02907,-0.00052 0.04358,-0.00045c0.07395,-0.05595 0.14836,-0.11127 0.2232,-0.16603c0.04031,-0.05514 0.08597,-0.10486 0.13458,-0.15079c-0.00452,-0.00628 -0.00898,-0.01269 -0.01337,-0.01919c-0.09111,0.07616 -0.17946,0.15725 -0.26981,0.23372c-0.03968,0.03359 -0.07909,0.06785 -0.11817,0.10276zM137.86983,212.07781c-0.07354,-0.00568 -0.14651,-0.01449 -0.21862,-0.02688c-0.0069,-0.00118 -0.01383,-0.00234 -0.02079,-0.00348c-0.01636,0.06002 -0.03626,0.11854 -0.06221,0.1741c-0.02461,0.05269 -0.08174,0.07609 -0.12262,0.11414c-0.09048,0.08422 -0.18575,0.17994 -0.29145,0.23861c-0.14477,0.08035 -0.42914,0.06467 -0.58557,0.06467c-0.05086,0 -0.10475,-0.00043 -0.16079,-0.00181c0.01694,0.00667 0.03363,0.01225 0.0499,0.01641c0.1949,0.04977 0.45419,0.01539 0.65693,0.0273c0.141,0.00829 0.27993,0.01026 0.41866,0.00815c0.06106,-0.09491 0.11538,-0.193 0.15163,-0.26808c0.05486,-0.10722 0.13431,-0.22589 0.18492,-0.34312zM137.25586,213.00447c-0.05186,-0.00151 -0.10389,-0.00376 -0.15615,-0.00683c-0.21458,-0.01261 -0.45443,0.00201 -0.67132,-0.03651c0.04857,0.09139 0.10736,0.17804 0.17629,0.26064c0.08928,0.00497 0.17687,0.00391 0.24893,-0.01186c0.07305,-0.01598 0.13019,-0.0811 0.19828,-0.11469c0.06663,-0.03287 0.13959,-0.05354 0.20397,-0.09075zM136.20415,213.16611c-0.04937,-0.08042 -0.0922,-0.16535 -0.12715,-0.25464c0.001,0.05019 0.00399,0.09904 0.00874,0.14508c0.00424,0.04112 0.00213,0.09235 0.01009,0.13521c0.01888,0.02278 0.0362,0.04724 0.05173,0.07349c0.00785,-0.01549 -0.00893,-0.0845 0.0137,-0.09471c0.01382,-0.00623 0.0282,-0.00676 0.04288,-0.00442zM142.60385,213.15765c0.00023,-0.00815 0.00052,-0.0163 0.00088,-0.02445c-0.24821,0.15161 -0.54136,0.24935 -0.80158,0.35101c0.21119,0.00829 0.45167,-0.04012 0.59137,-0.0748c0.01969,-0.00489 0.04008,-0.00649 0.06063,-0.00709c0.01458,-0.02351 0.03154,-0.04596 0.04455,-0.07017c0.032,-0.05957 0.07191,-0.11504 0.10414,-0.1745zM140.9637,212.31401c0.0171,-0.00563 0.03481,-0.01234 0.0526,-0.01956c-0.004,-0.0094 -0.00822,-0.01869 -0.01263,-0.02789c-0.01415,0.01378 -0.02722,0.02878 -0.03877,0.04554c-0.00044,0.00062 -0.00083,0.00126 -0.00121,0.00191zM141.23635,212.09342c0.01218,0.03191 0.02344,0.06414 0.03365,0.0967c0.01727,-0.00676 0.0346,-0.01364 0.05197,-0.02066c0.03559,-0.02901 0.06867,-0.05157 0.09639,-0.06419c0.04028,-0.01833 0.08953,-0.031 0.14118,-0.04043c0.21264,-0.10274 0.41913,-0.23093 0.58651,-0.3997c-0.10761,-0.0074 -0.21429,-0.0074 -0.29546,0.02218c-0.20693,0.07541 -0.43079,0.25763 -0.61426,0.40609zM143.05999,211.6604c0.04563,0.12006 0.07407,0.24966 0.09495,0.38395c0.01659,0.00325 0.03261,0.00712 0.04788,0.0118c0.0892,-0.11142 0.17575,-0.22545 0.25961,-0.34189c-0.04203,-0.01568 -0.08363,-0.02848 -0.12341,-0.03515c-0.08879,-0.01488 -0.18285,-0.01943 -0.27902,-0.01872zM144.46611,212.30685c-0.20944,-0.00148 -0.4234,0.0149 -0.62765,0.0149c-0.05847,0 -0.11557,0.00421 -0.17245,0.01047c0.08146,0.06372 0.15878,0.12967 0.22802,0.18969c0.16576,0.14568 0.30813,0.25559 0.42321,0.45694c0.00517,0.00906 0.01068,0.01897 0.01642,0.02965c0.02087,-0.00054 0.04174,-0.00091 0.06263,-0.00112c0.00139,-0.0094 0.00263,-0.01908 0.0037,-0.02903c0.03991,-0.19702 0.13698,-0.46517 0.06612,-0.67151zM144.17278,213.35078c-0.00262,-0.00804 -0.00521,-0.01575 -0.00772,-0.02306c-0.10081,0.00701 -0.19901,0.01875 -0.29208,0.03534c-0.13339,0.02378 -0.27219,0.03819 -0.40401,0.07086c-0.04621,0.01145 -0.09177,0.06078 -0.13652,0.04357c-0.03251,-0.0125 -0.00128,-0.09569 -0.03355,-0.10893c-0.02666,-0.01094 0,0.06344 0,0.09516c-0.00302,0.01863 0.00155,0.03746 0.0074,0.05626c0.01504,0.00145 0.03006,0.00265 0.04506,0.00328c0.17059,0.00721 0.43743,0.06059 0.60069,0.0039c0.02354,-0.00817 0.03258,-0.0421 0.05284,-0.0578c0.05891,-0.04565 0.11607,-0.08178 0.16789,-0.11859zM144.76591,212.32554c0.04379,0.21701 -0.03782,0.48672 -0.08205,0.69008c0.15514,0.01074 0.30784,0.03208 0.45387,0.06596c0.3149,0.07305 0.62793,0.227 0.92818,0.35277c0.15891,0.06657 0.34032,-0.00428 0.50607,0.00746c0.00914,-0.01907 0.02597,-0.04055 0.02836,-0.05996c0.01233,-0.10045 -0.00579,-0.33241 -0.05984,-0.41892c-0.01227,-0.01964 -0.04405,-0.00546 -0.06223,-0.01816c-0.04013,-0.02804 -0.07272,-0.06769 -0.10907,-0.10154c-0.25293,-0.23544 -0.65001,-0.29043 -0.96787,-0.36933c-0.20683,-0.05134 -0.42398,-0.11987 -0.63541,-0.14835zM144.01799,213.02871c-0.08196,-0.09537 -0.20924,-0.17813 -0.29955,-0.2575c-0.1079,-0.09652 -0.22206,-0.17126 -0.34028,-0.25107c-0.03566,-0.02408 -0.06663,-0.05779 -0.09943,-0.08727c-0.0222,0.02634 -0.04454,0.05252 -0.06703,0.07855c0.01604,0.15475 0.02465,0.3054 0.00514,0.46866c-0.01381,0.09255 -0.04267,0.17646 -0.08289,0.2519c0.15106,-0.11195 0.40937,-0.13139 0.55409,-0.15718c0.10697,-0.01907 0.21751,-0.03468 0.32997,-0.04607zM143.02364,213.38995c-0.0176,0.01989 -0.03607,0.03893 -0.05528,0.05714c0.01925,0.01487 0.03361,0.03764 0.04899,0.05856c-0.00091,-0.01356 -0.0017,-0.02751 -0.00243,-0.04192c0,-0.02652 0.00303,-0.05106 0.00872,-0.07377zM138.94363,209.70504c0.04248,-0.0048 0.08408,-0.01 0.12398,-0.01659c0.02191,-0.00362 0.04382,-0.00714 0.06574,-0.01058c-0.0036,-0.05628 -0.00665,-0.11231 -0.008,-0.16807c-0.00051,-0.02119 0.03677,-0.03906 0.02605,-0.05655c-0.08411,-0.13717 -0.23015,-0.19602 -0.38163,-0.22127c0.00203,0.16705 -0.04402,0.30549 0.08406,0.4494c0.01588,0.01784 0.04601,0.00204 0.06673,0.01191c0.00779,0.00371 0.01547,0.00764 0.02307,0.01175zM141.7057,208.59074c0.02774,0.09233 0.04502,0.18907 0.05362,0.27584c0.00368,-0.03146 0.00656,-0.06326 0.00859,-0.09545c0.00604,-0.09565 0.05034,-0.21208 -0.00248,-0.28766c-0.02208,-0.03159 -0.02014,0.07694 -0.0302,0.11541c-0.00983,-0.00274 -0.01967,-0.00546 -0.02952,-0.00813zM140.77624,210.54222c-0.10102,-0.00323 -0.20192,-0.00881 -0.30284,-0.01822c-0.11856,0.02742 -0.23379,0.06419 -0.34362,0.11162c0.09347,0.07185 0.18142,0.15817 0.26794,0.2335c0.00012,-0.0001 0.00024,-0.0002 0.00036,-0.0003c0.12733,-0.10727 0.25486,-0.21473 0.37817,-0.32658zM139.89486,211.24622c-0.11609,-0.03367 -0.23655,-0.0567 -0.34905,-0.07782c-0.00332,0.01047 -0.00596,0.01851 -0.00778,0.02323c-0.04618,0.08653 -0.06018,0.20588 -0.05993,0.32789c0.07637,-0.0484 0.15311,-0.10893 0.22308,-0.15113c0.06643,-0.04005 0.13076,-0.08062 0.19367,-0.12218zM136.54014,210.94853c0.05877,-0.03659 0.11875,-0.07454 0.1794,-0.11061c-0.05752,-0.02251 -0.11706,-0.03233 -0.17793,-0.03648c-0.00079,0.0204 -0.00141,0.04078 -0.00141,0.06112c0,0.02361 -0.00025,0.05331 -0.00005,0.08597zM137.69688,209.56736c0.0579,-0.01545 0.11714,-0.02799 0.17802,-0.0371c0.19299,-0.02887 0.40591,-0.00447 0.60373,-0.00052c-0.01384,-0.08188 -0.01809,-0.16932 -0.01425,-0.25465c-0.07707,0.0184 -0.15277,0.03928 -0.22656,0.0629c-0.18354,0.05877 -0.36383,0.13865 -0.54093,0.22937zM140.04705,209.15144c-0.08267,0.08126 -0.1617,0.16552 -0.23706,0.24969c-0.06451,0.07206 -0.12276,0.1519 -0.19285,0.21702c0.53867,-0.04782 1.08012,-0.03086 1.61378,0.08092c0.00394,0.00083 0.0079,0.00164 0.01187,0.00244c0.03701,-0.05151 0.06617,-0.1136 0.09519,-0.17543c-0.02787,-0.03021 -0.04687,-0.07122 -0.07185,-0.10495c-0.0499,-0.06739 -0.07912,-0.16432 -0.14969,-0.20216c-0.01784,-0.00956 -0.03147,0.03235 -0.05123,0.0335c-0.09453,0.00546 -0.18742,-0.02991 -0.28112,-0.04486c-0.24846,-0.03964 -0.49098,-0.0522 -0.73704,-0.05617zM140.31138,211.46579c-0.01424,-0.01558 -0.02964,-0.03005 -0.04625,-0.04326c-0.01108,-0.0088 -0.02244,-0.01728 -0.03408,-0.02545c-0.23036,0.17827 -0.47654,0.34546 -0.72825,0.4579c0.00016,0.00141 0.00031,0.00282 0.00047,0.00421c0.00416,0.03723 0.005,0.08011 0.00564,0.12415c0.01273,0.01746 0.02567,0.03439 0.0388,0.05072c0.01656,0.0206 0.03707,0.04074 0.0598,0.06036c0.05681,-0.05291 0.11235,-0.10966 0.16659,-0.15599c0.18236,-0.15577 0.36185,-0.31102 0.53729,-0.47265zM139.26976,212.31032c-0.00172,-0.00647 -0.0034,-0.01299 -0.00506,-0.01954c-0.1375,-0.08005 -0.2717,-0.16473 -0.40526,-0.25139c-0.02879,0.0335 -0.05802,0.06656 -0.0876,0.09921c0.01603,0.11431 0.03287,0.23293 0.04485,0.35155c0.00956,-0.00445 0.01907,-0.00876 0.02851,-0.01286c0.13324,-0.05788 0.2839,-0.10591 0.42457,-0.16697zM138.54116,212.62219c-0.00482,-0.07435 -0.01242,-0.14892 -0.02129,-0.22245c-0.06583,0.06452 -0.13238,0.12728 -0.19893,0.18837c0.0155,0.02452 0.03153,0.04885 0.0474,0.07287c0.04328,-0.00371 0.08502,-0.01029 0.12343,-0.02179c0.01635,-0.0049 0.03283,-0.01063 0.04939,-0.01701zM139.0042,210.13689c-0.00701,-0.00378 -0.014,-0.00761 -0.02095,-0.01147c-0.00102,-0.00052 -0.00204,-0.00105 -0.00307,-0.00157c0.03144,0.12177 0.04538,0.24572 0.05612,0.37076c0.0958,-0.00871 0.19182,-0.01152 0.28568,-0.01236c0.00135,-0.02093 0.0018,-0.04217 0.00121,-0.06377c-0.0006,-0.02205 0.00336,-0.04531 0.00649,-0.06826c-0.01116,0.00315 -0.02285,0.00482 -0.03489,0.00482c-0.05613,0 -0.10465,-0.03638 -0.1277,-0.08918c-0.04762,-0.03547 -0.09168,-0.08224 -0.14023,-0.11478c-0.00741,-0.00497 -0.01496,-0.00968 -0.02265,-0.01417zM136.58516,213.6079c-0.03429,-0.0295 -0.06769,-0.06014 -0.10005,-0.0919c-0.08422,-0.00142 -0.16908,-0.0022 -0.25195,-0.01235c0.0133,0.0582 0.02071,0.11744 0.01809,0.17667c-0.00177,0.03988 -0.00453,0.07898 -0.00867,0.11728c0.05074,-0.02012 0.10035,-0.04189 0.14838,-0.06581c0.06536,-0.03254 0.13019,-0.0765 0.1942,-0.12391zM133.9232,214.14444c0.04193,0.07919 0.08703,0.15628 0.13437,0.2311c0.08194,0.01078 0.20164,0.00571 0.30695,-0.00402c-0.03437,-0.03117 -0.06659,-0.06893 -0.09616,-0.11477c-0.02767,-0.04289 0,-0.10574 0,-0.15861c0,-0.12511 -0.00803,-0.25381 -0.00087,-0.37956c-0.12411,0.11237 -0.24654,0.22918 -0.3196,0.37512c-0.002,0.004 -0.01198,0.02337 -0.02468,0.05074zM137.7701,211.18757c-0.01212,0.00123 -0.02424,0.00251 -0.03634,0.00382c-0.00053,0.00677 -0.00085,0.01348 -0.00085,0.02009c0,0.16544 0.00285,0.32031 -0.02938,0.48229c-0.00288,0.0145 -0.0057,0.02909 -0.00847,0.04373c0.07065,0.01212 0.14216,0.02044 0.2142,0.0255c-0.00032,-0.02126 -0.00073,-0.04233 -0.00131,-0.06318c-0.0033,-0.11982 0.0063,-0.22237 0.02907,-0.3149c-0.05061,-0.05793 -0.09967,-0.11795 -0.14933,-0.17343c-0.00632,-0.00706 -0.01201,-0.01537 -0.01758,-0.02392zM141.37777,212.88897c0.0035,0.13103 -0.00899,0.2595 -0.05555,0.36029c0.01135,0.00953 0.02274,0.01893 0.03381,0.02801c0.11575,-0.00997 0.23362,-0.04515 0.32374,-0.08082c0.27088,-0.10725 0.62801,-0.20153 0.8652,-0.38372c0.05082,-0.03904 0.0995,-0.08861 0.14664,-0.14248c0.0006,-0.01876 0.00113,-0.03751 0.00162,-0.05618c-0.12395,0.07895 -0.26739,0.12437 -0.39928,0.17794c-0.23602,0.09587 -0.49404,0.07883 -0.74333,0.09075c-0.05765,0.00276 -0.11525,0.00476 -0.17285,0.00619zM141.70402,210.17245c-0.03147,-0.02374 -0.06313,-0.04568 -0.09475,-0.06442c-0.00403,0.01722 -0.00821,0.03428 -0.01253,0.05121c0.02102,0.00157 0.04184,0.00364 0.06239,0.0063c0.01492,0.00194 0.02989,0.00426 0.04489,0.0069zM139.40813,212.58984c-0.15055,0.06877 -0.31519,0.12018 -0.46001,0.18309c-0.03814,0.01657 -0.0766,0.03431 -0.11532,0.05221c-0.00162,0.07773 -0.00797,0.15358 -0.02078,0.22619c-0.00397,0.02248 -0.00865,0.04535 -0.01404,0.06851c0.07646,0.00508 0.15625,0.00439 0.20098,0.0101c0.24195,0.03092 0.52074,0.02113 0.75783,-0.07738c-0.1307,-0.12712 -0.2442,-0.27702 -0.33535,-0.43994c-0.00429,-0.00767 -0.00874,-0.01527 -0.01331,-0.02279zM138.70387,211.56955c0.0022,0.00142 0.00438,0.00286 0.00657,0.00429c0.02717,0.01785 0.05428,0.0357 0.08135,0.05352c0.04734,-0.06258 0.09341,-0.1266 0.13815,-0.19217c-0.03498,-0.10892 -0.0642,-0.22004 -0.08784,-0.33197c-0.12411,0.00492 -0.24787,0.01548 -0.36601,0.02641c0.00981,0.01453 0.01943,0.02921 0.02885,0.04404c0.05479,0.08622 0.12985,0.16021 0.16438,0.25867c0.01512,0.04309 0.0261,0.08938 0.03455,0.13722zM137.34833,210.47265c0.22971,-0.15888 0.46765,-0.30206 0.7003,-0.43693c-0.22631,-0.01692 -0.46808,-0.03417 -0.68545,-0.00998c-0.16864,0.08785 -0.33047,0.19501 -0.49169,0.29716c0.06735,0.03735 0.13382,0.07888 0.19297,0.10825c0.02978,0.01561 0.06043,0.03255 0.09155,0.05074c0.00298,0 0.00595,0.00001 0.00893,0.00001c0.05608,0 0.11936,-0.00541 0.18338,-0.00925zM138.45208,213.28872c-0.09038,-0.08744 -0.16214,-0.19524 -0.22887,-0.3071c-0.05923,-0.00006 -0.11745,-0.00076 -0.17092,0.00256c-0.06079,0.00377 -0.12125,0.00727 -0.18151,0.01035c-0.23755,0.21408 -0.48163,0.4292 -0.73604,0.6213c0.03984,0.01804 0.08015,0.03564 0.12066,0.05374c0.1453,0.08797 0.33552,0.04685 0.49777,0.03863c0.08413,-0.00426 0.26468,0.00977 0.33607,-0.02821c0.04273,-0.02274 0.07184,-0.06886 0.10811,-0.10283c0.07898,-0.07398 0.19757,-0.17405 0.24819,-0.27504c0.00222,-0.00444 0.00441,-0.00891 0.00655,-0.0134zM140.4467,211.77064c-0.18126,0.17801 -0.36989,0.35325 -0.56418,0.5078c0.03745,0.01964 0.07515,0.039 0.11303,0.05792c0.12966,0.0125 0.29639,-0.0146 0.37836,-0.0146c0.01212,0 0.02432,0.00013 0.03659,0.00038c0.00571,-0.03563 0.01069,-0.06635 0.01539,-0.08513c0.03462,-0.13812 0.04774,-0.30988 0.02079,-0.46637zM139.81032,210.81371c-0.04312,0.02206 -0.09169,0.03361 -0.13217,0.05973c0.13337,0.02753 0.27852,0.06173 0.4162,0.112c-0.0473,-0.051 -0.09501,-0.09974 -0.13562,-0.1241c-0.03877,-0.02325 -0.09075,-0.03816 -0.1484,-0.04763zM142.57448,212.32322c-0.20918,-0.01071 -0.41921,-0.00935 -0.62667,0.01383c-0.09419,0.01053 -0.18793,0.03385 -0.28257,0.03156c-0.00286,-0.00007 -0.00571,-0.00062 -0.00854,-0.0015c-0.05871,0.0284 -0.11727,0.0544 -0.17487,0.07789c-0.03717,0.04145 -0.07285,0.08787 -0.11042,0.12683c0.05566,-0.0014 0.11133,-0.00333 0.16705,-0.006c0.22025,-0.01054 0.45145,0.01213 0.65844,-0.07195c0.08896,-0.03614 0.17367,-0.08995 0.26688,-0.10841c0.01984,-0.00393 0.04141,0.02773 0.05868,0.01617c0.02558,-0.01713 0.04007,-0.04639 0.05202,-0.07844zM133.96305,213.58405c-0.07397,0.04702 -0.14632,0.09798 -0.21701,0.15263c0.00792,0.02346 0.01619,0.04678 0.02479,0.06996c0.01143,-0.01704 0.02342,-0.03401 0.03595,-0.05099c0.04535,-0.06142 0.09912,-0.11768 0.15627,-0.17162zM139.60474,210.48129c0.0387,0.00055 0.07851,0.00186 0.11792,0.00458c0.03766,-0.02382 0.07607,-0.04586 0.11512,-0.06627c-0.07417,-0.01586 -0.14963,-0.03347 -0.22527,-0.05338c-0.0025,0.01767 -0.00501,0.0353 -0.00534,0.05222c-0.00044,0.02186 -0.00124,0.04273 -0.00242,0.06283zM141.49701,209.23112c0.01293,-0.11659 0.00349,-0.29443 -0.0041,-0.36797c-0.00971,-0.09417 -0.12319,-0.20672 -0.11446,-0.29832c0.00222,-0.0233 0.05042,-0.02615 0.06952,-0.0352c-0.0292,-0.00593 -0.05846,-0.01155 -0.0878,-0.01684c-0.00717,0.00142 -0.01415,0.00238 -0.02074,0.00238c-0.34469,-0.01353 -0.65855,0.1263 -0.93966,0.33236c0.14085,0.00898 0.28185,0.02329 0.42445,0.04605c0.1657,0.02644 0.3605,0.03459 0.51102,0.12322c0.03462,0.02039 0.0499,0.06738 0.07484,0.10108c0.02746,0.03708 0.05719,0.07467 0.0869,0.11325zM139.94709,208.83312c0.15959,-0.14554 0.32796,-0.27436 0.5072,-0.37732c-0.49194,0.02833 -0.97652,0.15712 -1.41265,0.40645c0.23047,-0.02196 0.46084,-0.02986 0.67912,-0.02986c0.07596,0 0.15134,0.00009 0.22633,0.00072zM137.63507,209.25502c-0.20384,0.02368 -0.40715,0.05906 -0.61309,0.11018c-0.15435,0.03626 -0.28936,0.12103 -0.44097,0.16273c-0.02177,0.00599 -0.04848,-0.01431 -0.06727,-0.00063c-0.05712,0.04163 -0.07928,0.12398 -0.11892,0.18597c-0.02751,0.04302 -0.05024,0.09041 -0.08253,0.12906c-0.0148,0.01772 -0.04946,0.0138 -0.05608,0.03688c-0.02174,0.07577 -0.02194,0.17639 -0.0166,0.27857c0.09227,-0.05985 0.18782,-0.11644 0.28577,-0.16817c0.06721,-0.09636 0.1419,-0.18401 0.23904,-0.24179c0.28292,-0.16829 0.57225,-0.34498 0.87065,-0.4928zM142.95032,212.82567c-0.00105,0.00128 -0.0021,0.00257 -0.00315,0.00386c-0.00271,0.00707 -0.00526,0.01415 -0.00766,0.02121c-0.00971,0.07506 -0.02128,0.14999 -0.03587,0.22367c-0.00023,0.00672 -0.00041,0.01347 -0.00055,0.02025c0.00438,-0.00213 0.00798,-0.00531 0.01029,-0.01027c0.02184,-0.0469 0.01556,-0.1043 0.02334,-0.15645c0.0068,-0.03346 0.01118,-0.06762 0.01361,-0.10227zM144.12697,212.00193c-0.11548,-0.0914 -0.24409,-0.12241 -0.38406,-0.17209c-0.04586,0.06523 -0.09251,0.12975 -0.13996,0.19354c0.11569,-0.01191 0.23046,-0.01885 0.3491,-0.01885c0.05777,0 0.11617,-0.00113 0.17492,-0.00261zM140.56318,212.88349c-0.0296,-0.00748 -0.05919,-0.01556 -0.08877,-0.02421c-0.05848,0.06992 -0.12269,0.13628 -0.18854,0.19744c0.10202,0.047 0.21072,0.07729 0.32464,0.08667c-0.01601,-0.05188 -0.02944,-0.10389 -0.03782,-0.1555c-0.00535,-0.03295 -0.00845,-0.06794 -0.00952,-0.1044zM132.58472,215.4825c-0.00517,0.08553 -0.0135,0.17086 -0.01646,0.25652c0.02061,-0.0957 0.09646,-0.07152 0.20395,-0.05953c-0.01064,-0.00685 -0.02121,-0.01393 -0.03171,-0.02125c-0.07012,-0.04894 -0.12069,-0.10875 -0.15579,-0.17574zM134.66588,212.2086c0.00356,-0.00232 0.00712,-0.00461 0.01069,-0.00688c0.01248,-0.08 0.02531,-0.15517 0.03133,-0.21568c0.04475,-0.33842 0.18152,-0.63232 0.348,-0.90905c-0.03223,0.01718 -0.06304,0.03562 -0.0908,0.05633c-0.09223,0.06879 -0.1466,0.20245 -0.24037,0.2685c-0.01658,0.01168 -0.0498,-0.01945 -0.05882,0c-0.01741,0.03756 0,0.08459 0,0.12689c0,0.14803 0,0.29607 0,0.4441c0,0.07834 -0.00045,0.15705 -0.00005,0.23579zM134.47543,213.00392c0.00247,-0.00505 0.00502,-0.0101 0.00766,-0.01514c-0.00633,-0.02603 -0.0123,-0.05207 -0.01793,-0.07817c-0.07247,0.0064 -0.1452,0.01678 -0.21749,0.03077c-0.11924,0.10134 -0.23261,0.20414 -0.34172,0.31683c0.18149,-0.10699 0.3716,-0.19279 0.56948,-0.25429zM136.25621,212.22462c0.00901,-0.02895 0.01705,-0.05682 0.0015,-0.07696c-0.00114,0.02809 -0.00148,0.05438 -0.0015,0.07696zM136.25805,212.31131c0.00077,0.00006 0.00155,0.00012 0.00232,0.00018c-0.0008,-0.00074 -0.00161,-0.00148 -0.00241,-0.00222c0.00003,0.00068 0.00006,0.00137 0.00009,0.00204zM135.9017,212.23311c-0.00765,0.00592 -0.0153,0.01185 -0.02295,0.01778c0.00514,0.00133 0.01029,0.00263 0.01544,0.00391c0.00251,-0.00721 0.00502,-0.01445 0.00751,-0.0217zM140.72856,211.75867c0.016,0.1264 0.01484,0.25654 0.00089,0.38154c0.03328,-0.06001 0.07214,-0.1178 0.11487,-0.17362c-0.03636,-0.06925 -0.07496,-0.13897 -0.11576,-0.20792zM138.23432,211.64668c-0.00429,0.04067 -0.00962,0.08046 -0.01592,0.11951c0.06396,-0.00283 0.12798,-0.0076 0.19181,-0.01399c-0.05889,-0.03427 -0.1186,-0.06863 -0.17589,-0.10552zM140.60551,211.09133c0.01353,0.01707 0.02687,0.03434 0.0401,0.05175c0.1421,-0.1438 0.39473,-0.32099 0.48667,-0.52248c-0.17121,0.16775 -0.35179,0.323 -0.52677,0.47072zM139.23521,210.80012c0.00466,0.0004 0.00931,0.00081 0.01397,0.00124c0.00016,-0.00051 0.00032,-0.00103 0.00049,-0.00154c-0.00483,0.00009 -0.00966,0.00019 -0.01447,0.00029zM139.12087,211.10395c0.00234,0.00916 0.00473,0.01836 0.00718,0.02758c0.00487,-0.00869 0.00963,-0.01745 0.01426,-0.02632c-0.00714,-0.00045 -0.01428,-0.00087 -0.02144,-0.00126zM138.18566,212.08428c0.0004,0.07081 0.00362,0.1403 0.0128,0.2035c0.07441,-0.07101 0.14702,-0.14366 0.21765,-0.21826c-0.07671,0.00726 -0.15363,0.01234 -0.23045,0.01476zM133.60697,214.20457c0.00151,-0.00818 0.00308,-0.01629 0.00475,-0.02433c-0.00829,-0.02001 -0.01643,-0.04022 -0.02441,-0.06061c0.00587,0.02869 0.01239,0.05707 0.01966,0.08494z" data-paper-data="{&quot;origPos&quot;:null}" stroke-linecap="butt"/><path d="M140.10771,228.09659l-1.01329,-6.73075" data-paper-data="{&quot;origPos&quot;:null}" stroke-linecap="round"/><path d="M137.78862,227.97114l1.06358,-6.66587" data-paper-data="{&quot;origPos&quot;:null}" stroke-linecap="round"/><path d="M137.82276,237.47361l1.09,-6.96389" data-paper-data="{&quot;origPos&quot;:null}" stroke-linecap="round"/><path d="M140.3661,237.17082l-1.09,-6.54" data-paper-data="{&quot;origPos&quot;:null}" stroke-linecap="round"/></g><g data-paper-data="{&quot;origRot&quot;:0}" fill="#ffffff" stroke="#0017e5" stroke-width="0.5" stroke-linecap="butt"><path d="M137.9232,218.05323l-0.67905,-3.12391l4.68587,-1.01857l0.67905,3.12391z" data-paper-data="{&quot;origPos&quot;:null}"/><path d="M140.84353,217.5835l-0.43598,-2.00569l3.92548,-0.85329l0.43598,2.00569z" data-paper-data="{&quot;origPos&quot;:null}"/><path d="M135.60382,216.6391l-0.43598,-2.00569l2.76253,-0.60049l0.43598,2.00569z" data-paper-data="{&quot;origPos&quot;:null}"/><path d="M136.2253,219.38527l-0.4164,-1.91563l3.25455,-0.70744l0.4164,1.91563z" data-paper-data="{&quot;origPos&quot;:null}"/><path d="M141.23045,214.71499l-0.41641,-1.91563l1.01811,-0.22131l0.4164,1.91563z" data-paper-data="{&quot;origPos&quot;:null}"/><path d="M135.1661,218.16564l-0.4164,-1.91563l4.55168,-0.9894l0.4164,1.91563z" data-paper-data="{&quot;origPos&quot;:null}"/><path d="M141.22432,216.00479l-0.4164,-1.91563l4.0824,-0.88739l0.41641,1.91563z" data-paper-data="{&quot;origPos&quot;:null}"/><path d="M136.0426,218.394l-0.65031,-2.99169l8.64672,-1.87954l0.65031,2.9917z" data-paper-data="{&quot;origPos&quot;:null}"/><path d="M141.27835,214.66113l-0.17074,-0.78548l0.91639,-0.1992l0.17074,0.78548z"/></g><path d="M196.77126,235.55465c0,1.11155 -0.82551,1.09233 -1.48846,1.09233c-0.66294,0 -1.45888,0.10324 -1.45888,-1.05632c0,-0.3269 -0.04819,-0.42808 0.2025,-0.63788c0.11297,-0.09455 0.06983,-0.25506 0.19583,-0.3314c0.27818,-0.16853 1.06055,-0.23109 1.06055,-0.23109c0,0 0.78642,0.02769 1.06126,0.22886c0.15809,0.11571 0.10874,0.12945 0.16604,0.3168c0.05484,0.1793 0.26115,0.0353 0.26115,0.6187z" fill="#000000" stroke="#000000" stroke-width="0.5" stroke-linecap="butt"/><path d="M199.71607,235.5339c0,1.11155 -0.82551,1.09233 -1.48845,1.09233c-0.66294,0 -1.45888,0.10325 -1.45888,-1.05632c0,-0.3269 -0.04819,-0.42808 0.2025,-0.63788c0.11297,-0.09455 0.06983,-0.25506 0.19583,-0.3314c0.27818,-0.16853 1.06055,-0.23109 1.06055,-0.23109c0,0 0.78642,0.02769 1.06126,0.22886c0.15809,0.11571 0.10874,0.12945 0.16604,0.3168c0.05484,0.1793 0.26115,0.03531 0.26115,0.6187z" fill="#000000" stroke="#000000" stroke-width="0.5" stroke-linecap="butt"/><path d="M193.36544,213.59385c0,-2.1547 0.66424,-3.90143 3.35956,-3.90143c2.602,0 3.35956,1.74673 3.35956,3.90143c0,2.1547 -0.01099,3.90143 -3.35956,3.90143c-2.97529,0 -3.35956,-1.74673 -3.35956,-3.90143z" fill="#000000" stroke="#000000" stroke-width="0.5" stroke-linecap="butt"/><path d="M191.71629,227.44955c0,-0.92114 0.73845,-1.11986 1.15113,-1.11986c0.41268,0 1.12567,0.13706 1.15113,1.11986c0.0254,0.98051 -0.73844,1.11986 -1.15113,1.11986c-0.41268,0 -1.15113,-0.07765 -1.15113,-1.11986z" fill="#000000" stroke="#000000" stroke-width="0.5" stroke-linecap="butt"/><path d="M199.55527,227.32512c0,-0.92114 0.73845,-1.11986 1.15113,-1.11986c0.41268,0 1.12567,0.13706 1.15113,1.11986c0.0254,0.98051 -0.73845,1.11986 -1.15113,1.11986c-0.41268,0 -1.15113,-0.07765 -1.15113,-1.11986z" fill="#000000" stroke="#000000" stroke-width="0.5" stroke-linecap="butt"/><path d="M194.00404,234.81714v-4.35499h2.53004v4.35499z" data-paper-data="{&quot;index&quot;:null}" fill="#000000" stroke="#000000" stroke-width="0.5" stroke-linecap="butt"/><path d="M194.00404,229.21786v-4.355h2.53004v4.355z" data-paper-data="{&quot;index&quot;:null}" fill="#000000" stroke="#000000" stroke-width="0.5" stroke-linecap="butt"/><path d="M194.00404,231.20871v-2.61299h2.53004v2.613z" data-paper-data="{&quot;index&quot;:null}" fill="#000000" stroke="#000000" stroke-width="0.5" stroke-linecap="butt"/><path d="M191.693,222.97141v-2.48856h2.36414v2.48856z" fill="#000000" stroke="#000000" stroke-width="0.5" stroke-linecap="butt"/><path d="M191.693,227.38862v-4.41721h2.36414v4.41721z" fill="#000000" stroke="#000000" stroke-width="0.5" stroke-linecap="butt"/><path d="M199.46977,220.7317v-4.4172c0,0 1.97062,-0.2299 2.19824,0.33181c0.28411,0.70116 0.16591,4.08539 0.16591,4.08539z" fill="#000000" stroke="#000000" stroke-width="0.5" stroke-linecap="butt"/><path d="M199.46977,222.97141v-2.48856h2.36414v2.48856z" fill="#000000" stroke="#000000" stroke-width="0.5" stroke-linecap="butt"/><path d="M199.46977,227.38862v-4.41721h2.36414v4.41721z" fill="#000000" stroke="#000000" stroke-width="0.5" stroke-linecap="butt"/><path d="M194.00404,224.9873v-8.70998h5.59927v8.70998z" data-paper-data="{&quot;index&quot;:null}" fill="#000000" stroke="#000000" stroke-width="0.5" stroke-linecap="butt"/><path d="M191.69664,220.7317c0,0 -0.11822,-3.38423 0.16591,-4.08539c0.22761,-0.56171 2.19824,-0.33181 2.19824,-0.33181v4.4172z" data-paper-data="{&quot;index&quot;:null}" fill="#000000" stroke="#000000" stroke-width="0.5" stroke-linecap="butt"/><path d="M196.94884,234.81714v-4.35499h2.53004v4.35499z" data-paper-data="{&quot;index&quot;:null}" fill="#000000" stroke="#000000" stroke-width="0.5" stroke-linecap="butt"/><path d="M196.94884,229.21786v-4.355h2.53004v4.355z" data-paper-data="{&quot;index&quot;:null}" fill="#000000" stroke="#000000" stroke-width="0.5" stroke-linecap="butt"/><path d="M196.94884,231.20871v-2.61299h2.53004v2.613z" data-paper-data="{&quot;index&quot;:null}" fill="#000000" stroke="#000000" stroke-width="0.5" stroke-linecap="butt"/><path d="M193.39112,212.25537c0,0 -0.31763,-3.83833 0,-4.48063c0.24578,-0.497 6.50684,-0.32422 6.68626,-0.01965c0.28766,0.48833 -0.03215,4.50029 -0.03215,4.50029z" fill="#000000" stroke="#000000" stroke-width="0.5" stroke-linecap="butt"/><g data-paper-data="{&quot;index&quot;:null}" fill="#ffffff" stroke="#87eeff" stroke-width="0.5" stroke-linecap="butt"><path d="M200.00335,212.50169v2.30281h-3.45422v-2.30281z" data-paper-data="{&quot;origPos&quot;:null}"/><path d="M201.57032,212.3855v1.47851h-2.89369v-1.47851z" data-paper-data="{&quot;origPos&quot;:null}"/><path d="M197.16932,213.85197v1.47851h-2.03642v-1.47851z" data-paper-data="{&quot;origPos&quot;:null}"/><path d="M197.5493,211.82385v1.41212h-2.39911v-1.41212z" data-paper-data="{&quot;origPos&quot;:null}"/><path d="M200.13838,214.34542v1.41212h-0.75051v-1.41212z" data-paper-data="{&quot;origPos&quot;:null}"/><path d="M197.94653,212.84442v1.41212h-3.3553v-1.41212z" data-paper-data="{&quot;origPos&quot;:null}"/><path d="M202.19557,213.43848v1.41212h-3.00936v-1.41212z" data-paper-data="{&quot;origPos&quot;:null}"/><path d="M201.54724,212.54957v2.20534h-6.37398v-2.20534z" data-paper-data="{&quot;origPos&quot;:null}"/><path d="M200.10535,214.37601v0.57902h-0.67552v-0.57902z"/></g><g fill="#000000" stroke="#000000"><g><path d="M209.78357,235.42918c0,-0.43901 0.64065,-0.56435 1.15665,-0.76957c0.44893,-0.17854 1.11724,-0.34329 1.11724,-0.34329c0.98445,0 1.8114,-0.07769 1.8114,0.36132c0,0.25614 0.09789,1.00426 -0.12542,1.12972c-0.49106,0.27589 -1.12273,0.09876 -1.68598,0.09876c-0.74345,0 -1.52699,0.11286 -2.12442,-0.0684c-0.19915,-0.06042 -0.14947,-0.20043 -0.14947,-0.40854z" data-paper-data="{&quot;origPos&quot;:null,&quot;index&quot;:null}" stroke-width="0.5" stroke-linecap="butt"/><path d="M224.00775,204.25888c0.71219,-0.00173 1.62814,1.45257 1.62814,1.45257c1.44126,1.38068 1.3058,6.10385 1.3058,6.10385c0.22607,2.23821 0.56881,4.16213 -0.38303,6.04025c-0.13556,0.26748 -0.05635,-3.49665 -0.17212,-3.22003c-0.19535,0.46674 -0.64863,5.12406 -0.8103,4.64461c-0.13094,-0.38835 0.022,-2.69117 -0.35651,-2.53405c-0.28767,0.11941 -0.51783,2.70131 -0.71084,2.45683c-0.26022,-0.32962 0.04778,-3.51516 -0.34955,-3.37917c-0.53225,0.18217 -0.77133,3.85494 -1.32638,3.94657c-0.04205,-2.04699 0.37251,-4.23924 0.18423,-5.69821c-0.19458,-1.50792 -0.68388,1.64644 -0.83699,0.13068c-0.1082,-1.07126 0.47481,-2.07792 0.50542,-3.15678c0.03235,-1.14037 -0.96815,-1.15723 -1.02699,-2.2964c-0.03839,-0.7431 -1.55822,-0.36361 -1.24135,-0.98103c0.48087,-0.93694 -1.6008,-1.15628 -0.7413,-1.29818c0,0 0.19313,-1.19299 0.90249,-1.55787c0.76983,-0.39599 1.95087,-0.71936 2.75271,-0.7213z" data-paper-data="{&quot;origPos&quot;:null,&quot;origRot&quot;:0,&quot;index&quot;:null}" stroke-width="0.5" stroke-linecap="butt"/><path d="M217.49914,234.4054c0,0 -1.31021,0.14396 -2.4645,-0.24994c-0.31709,-1.72246 -0.1676,-3.34713 -0.29568,-4.7964c-0.06184,-0.69972 -0.23416,-0.68656 -0.23416,-0.68656c-0.02446,-0.5113 -0.32596,0.02402 -0.34071,0.53569c-0.04426,1.53503 0.00067,2.76978 -0.28924,5.10614c-1.57712,0.18654 -2.19412,0.09107 -2.19412,0.09107v-7.59554h5.81841z" data-paper-data="{&quot;origPos&quot;:null,&quot;index&quot;:null}" stroke-width="0.5" stroke-linecap="butt"/><path d="M217.70177,217.24866c1.38252,0 2.57093,2.06594 2.57093,3.11217c0,1.04623 -1.18841,0.67656 -2.57093,0.67656c-1.38252,0 -2.50327,-0.84814 -2.50327,-1.89437c0,-1.04623 1.12075,-1.89437 2.50327,-1.89437z" data-paper-data="{&quot;origPos&quot;:null,&quot;index&quot;:null}" stroke-width="0.5" stroke-linecap="butt"/><path d="M217.63306,222.01291c-0.03989,1.90158 0.06215,1.67068 -0.16114,5.16359c-0.56407,0.18844 -2.06257,0.10739 -3.01031,0.10739c-0.86619,0 -2.67327,0.37995 -2.78448,-0.36915c-0.36434,-2.45431 -0.10774,-2.82051 -0.14763,-4.90183c-0.02371,-1.23709 -0.19245,-3.0353 0.49213,-3.96326c0.63532,-0.8612 1.59926,-0.16288 2.55965,-0.16288c0,0 2.13336,-1.10691 2.77013,-0.04565c0.52635,0.87721 0.32943,1.8937 0.28164,4.17179z" data-paper-data="{&quot;origPos&quot;:null,&quot;index&quot;:null}" stroke-width="0.5" stroke-linecap="butt"/><path d="M216.41631,226.04393c0,0 -0.30398,-0.55538 -0.45524,-0.95415c-0.13918,-0.36693 -0.28898,-1.00787 -0.28898,-1.00787" data-paper-data="{&quot;origPos&quot;:null,&quot;index&quot;:null}" stroke-width="0.5" stroke-linecap="round"/><path d="M220.41831,213.58037c0,1.59522 -0.36212,2.91723 -1.43972,4.09345c-1.15578,1.26156 -2.18239,1.35811 -3.89334,1.35811c-1.99984,0 -3.76748,-0.10849 -4.90653,-1.75224c-0.74405,-1.07373 -0.42652,-2.39299 -0.42652,-3.69932c0,-3.01082 2.38769,-5.45157 5.33305,-5.45157c2.94537,0 5.33306,2.44075 5.33306,5.45157z" data-paper-data="{&quot;origPos&quot;:null,&quot;index&quot;:null}" stroke-width="0.5" stroke-linecap="butt"/><path d="M220.47185,212.35303c0,0.86664 -0.40145,-1.45335 -1.06667,-0.88258c-0.43837,0.37612 -0.74925,0.88486 -1.33061,0.92123c-0.89122,0.05576 -1.03244,-0.93481 -1.91291,-0.78849c-0.83298,0.13843 -1.53921,0.81749 -2.38407,0.81749c-1.19543,0 0.89226,-1.44514 -0.3024,-1.48707c-1.15588,-0.04057 -4.09144,2.5984 -4.09144,1.46452c0,-1.01447 0.21688,-3.29023 0.99952,-3.95393c1.33502,-1.13214 2.87136,-0.98496 4.63656,-0.98496c0,0 3.44481,-0.10392 4.70043,1.18716c0,0 1.02685,0.72273 1.11672,1.42923c0.10118,0.79543 -0.36511,0.94469 -0.36511,2.27739z" data-paper-data="{&quot;origPos&quot;:null,&quot;index&quot;:null}" stroke-width="0.5" stroke-linecap="butt"/><path d="M221.57429,208.6162c-0.18371,0.27737 -0.41574,0.91348 -0.7484,0.91907c-0.64142,0.01079 -1.00034,-0.75187 -1.53518,-1.10611c-0.6115,-0.40502 -1.4915,-0.4588 -1.64381,-1.16475c-0.05077,-0.23532 0.44771,-0.66417 0.58065,-0.86487c0.29434,-0.44439 0.60301,-0.17039 1.12149,-0.0467c0.27224,0.06495 0.43481,-0.09643 0.71235,-0.06031c0.18629,0.02424 0.2931,0.19032 0.44973,0.29406c0,0 0.24273,0.23465 0.29561,0.38064c0.07139,0.1971 -0.07314,0.31803 0.06849,0.47257c0,0 0.34308,0.15848 0.48664,0.27702c0.31661,0.26144 0.54943,0.39058 0.21242,0.89939z" data-paper-data="{&quot;origRot&quot;:0,&quot;origPos&quot;:null,&quot;index&quot;:null}" stroke-width="0.5" stroke-linecap="butt"/><path d="M217.83258,218.99009c0.06545,-0.01642 0.3195,-0.06025 0.41235,0.21831c0.09395,0.28183 -0.14212,0.39866 -0.20102,0.42294c0.02088,0.05628 0.04233,0.12115 0.06516,0.19639c0.01878,0.06188 -0.07492,0.10542 -0.11276,0.15786c-0.11942,0.16548 -0.20515,0.35461 -0.32924,0.51617c-0.03886,0.05059 -0.07201,0.14316 -0.13531,0.13531l-0.13531,0.13531c-0.06122,0.06122 -0.14579,0.09908 -0.2392,0.09908c-0.18683,0 -0.33828,-0.15146 -0.33828,-0.33828c0,-0.04998 0.01084,-0.09743 0.0303,-0.14013l0.057,-0.133c-0.20848,-0.046 -0.3011,-0.22011 -0.37151,-0.7084c-0.00838,-0.05811 0.08779,-0.07829 0.13531,-0.11276c0.0545,-0.03953 0.10333,-0.07174 0.1495,-0.09872c0.00977,-0.16488 0.13762,-0.29799 0.30017,-0.31592l0.17596,-0.022c0.05052,-0.07728 0.49453,-0.02517 0.58321,-0.02517z" data-paper-data="{&quot;index&quot;:null,&quot;origPos&quot;:null}" stroke-width="0.5" stroke-linecap="butt"/><path d="M217.38277,220.26255l0.40594,0.54125" data-paper-data="{&quot;index&quot;:null,&quot;origPos&quot;:null}" stroke-width="2" stroke-linecap="round"/><path d="M211.22607,218.97709c0,-0.18683 0.15146,-0.33828 0.33828,-0.33828c0.18683,0 0.33828,0.15146 0.33828,0.33828c0,0.18683 -0.15145,0.33828 -0.33828,0.33828c-0.18683,0 -0.33828,-0.15146 -0.33828,-0.33828z" data-paper-data="{&quot;origPos&quot;:null,&quot;index&quot;:null}" stroke-width="0.5" stroke-linecap="butt"/><path d="M214.31897,226.17924l0.06765,-6.49497" data-paper-data="{&quot;index&quot;:null,&quot;origPos&quot;:null}" stroke-width="0.5" stroke-linecap="round"/><path d="M212.83055,224.01425c0,0 -0.08383,0.57892 -0.18079,0.90615c-0.11427,0.38567 -0.36046,0.92056 -0.36046,0.92056" data-paper-data="{&quot;origPos&quot;:null,&quot;index&quot;:null}" stroke-width="0.5" stroke-linecap="round"/><path d="M217.46579,222.39228c0,-2.11493 -0.41407,-2.06203 -0.22194,-3.21072c0.06404,-0.3829 0.79897,-0.61869 0.79897,-0.61869c0.49252,0 1.20653,1.76695 1.20653,3.88187c0,1.21804 -0.18031,2.44289 -0.67006,3.52008c-0.16325,0.35907 -0.14205,0.25688 -0.53648,0.25688c-0.34348,0 -0.71343,-0.16864 -0.77868,-0.50586c-0.19575,-1.01167 0.20164,-2.10521 0.20164,-3.32355z" data-paper-data="{&quot;origPos&quot;:null,&quot;index&quot;:null}" stroke-width="0.5" stroke-linecap="butt"/><path d="M211.28513,218.46652c0.47331,0 0.59704,0.47937 0.64486,0.95025c0.11237,1.10644 -0.14587,1.8464 -0.14587,2.95853c0,2.09752 0.10182,3.52068 -0.3881,3.52068c-0.29607,0 -0.70892,0.40944 -0.84503,0.14651c-0.40833,-0.78879 -0.43018,-2.49693 -0.43018,-3.83353c0,-2.09752 0.67438,-3.74245 1.16432,-3.74245z" data-paper-data="{&quot;origPos&quot;:null,&quot;index&quot;:null}" stroke-width="0.5" stroke-linecap="butt"/><path d="M211.97077,234.89441l-0.4914,-0.23124" data-paper-data="{&quot;origPos&quot;:null,&quot;index&quot;:null}" stroke-width="0.5" stroke-linecap="round"/><path d="M211.16141,235.09675l-0.5203,-0.28905" data-paper-data="{&quot;origPos&quot;:null,&quot;index&quot;:null}" stroke-width="0.5" stroke-linecap="round"/><path d="M213.87852,235.44363c0,0 -0.31866,0.04073 -0.83713,0.0483c-0.67724,0.00989 -1.11599,-0.0197 -1.7933,-0.01876c-0.54146,0.00075 -1.3296,0.02827 -1.3296,0.02827" data-paper-data="{&quot;origPos&quot;:null,&quot;index&quot;:null}" stroke-width="0.5" stroke-linecap="round"/><path d="M213.67618,234.51865c0,0 -0.42176,0.30952 -0.69172,0.30413c-0.29409,-0.00588 -0.75355,-0.33303 -0.75355,-0.33303" data-paper-data="{&quot;origPos&quot;:null,&quot;index&quot;:null}" stroke-width="0.5" stroke-linecap="round"/><path d="M213.28113,235.48698c0,-0.43901 0.64065,-0.56435 1.15665,-0.76956c0.44893,-0.17854 1.11724,-0.34329 1.11724,-0.34329c0.98445,0 1.8114,-0.07769 1.8114,0.36132c0,0.25614 0.09789,1.00426 -0.12542,1.12972c-0.49106,0.27589 -1.12273,0.09876 -1.68599,0.09876c-0.74345,0 -1.52699,0.11286 -2.12442,-0.0684c-0.19915,-0.06042 -0.14947,-0.20043 -0.14947,-0.40854z" data-paper-data="{&quot;origPos&quot;:null,&quot;index&quot;:null}" stroke-width="0.5" stroke-linecap="butt"/><path d="M215.46831,234.95223l-0.4914,-0.23124" data-paper-data="{&quot;origPos&quot;:null,&quot;index&quot;:null}" stroke-width="0.5" stroke-linecap="round"/><path d="M214.13866,234.86552l0.5203,0.28905" data-paper-data="{&quot;origPos&quot;:null,&quot;index&quot;:null}" stroke-width="0.5" stroke-linecap="round"/><path d="M217.37607,235.50144c0,0 -0.31866,0.04073 -0.83713,0.0483c-0.67724,0.00989 -1.11599,-0.01969 -1.7933,-0.01876c-0.54146,0.00075 -1.32961,0.02827 -1.32961,0.02827" data-paper-data="{&quot;origPos&quot;:null,&quot;index&quot;:null}" stroke-width="0.5" stroke-linecap="round"/><path d="M217.17373,234.57646c0,0 -0.42177,0.30952 -0.69172,0.30412c-0.29409,-0.00588 -0.75355,-0.33303 -0.75355,-0.33303" data-paper-data="{&quot;origPos&quot;:null,&quot;index&quot;:null}" stroke-width="0.5" stroke-linecap="round"/><path d="M217.26045,218.982c0.01672,0 0.03317,0.00113 0.04929,0.00334c0.05554,-0.02572 0.11631,-0.04917 0.18332,-0.07151c0,0 0.34278,-0.11426 0.45703,0.22852c0.11426,0.34278 -0.22852,0.45703 -0.22852,0.45703c-0.11562,0.03854 -0.26231,0.02785 -0.34686,0.11562c-0.03471,0.03604 0.12384,-0.07473 0.147,-0.03038c0.029,0.05551 -0.04818,0.11562 -0.07226,0.17343l-0.03456,0.15889c0,0 -0.24005,0.27005 -0.5101,0.03c-0.27005,-0.24005 -0.03001,-0.51009 -0.03001,-0.51009l-0.09238,0.04327c0.03717,-0.08921 0.07538,-0.16621 0.11675,-0.23342c-0.00002,-0.00113 -0.00002,-0.00225 -0.00002,-0.00338c0,-0.19956 0.16177,-0.36132 0.36132,-0.36132z" data-paper-data="{&quot;index&quot;:null,&quot;origPos&quot;:null}" stroke-width="0.5" stroke-linecap="butt"/><path d="M212.31372,219.91319c-0.28083,0.22734 -0.50817,-0.05349 -0.50817,-0.05349l-0.27148,-0.47832c-0.04645,-0.00914 -0.34693,-0.08129 -0.2962,-0.41097c0.05494,-0.35711 0.41205,-0.30218 0.41205,-0.30218c0.46587,0.07167 0.71152,0.3288 0.58618,0.87195l0.1311,-0.13515c0,0 0.22734,0.28083 -0.05349,0.50817z" data-paper-data="{&quot;index&quot;:null,&quot;origPos&quot;:null}" stroke-width="0.5" stroke-linecap="butt"/><path d="M215.20816,222.60962v-2.86164h0.43358v2.86164z" data-paper-data="{&quot;index&quot;:null,&quot;origPos&quot;:null}" stroke-width="0.5" stroke-linecap="butt"/><path d="M213.44493,222.60962v-2.91945h0.37577v2.91945z" data-paper-data="{&quot;index&quot;:null,&quot;origPos&quot;:null}" stroke-width="0.5" stroke-linecap="butt"/><path d="M216.56672,226.90208c0,-0.61462 0.21202,-0.53289 0.39225,-0.78302c0.15138,-0.21009 0.37374,-0.24312 0.37374,-0.24312c0.151,0 0.20308,0.10084 0.34155,0.16107c0.06384,0.02777 0.15694,0.01589 0.21916,0.04712c0.42045,0.21109 0.49433,0.3071 0.49433,0.78904c0,0.61462 -0.08667,1.25739 -0.62146,1.25739c-0.12679,0 0.12056,-1.05321 0.08791,-0.9307c-0.05917,0.22199 -0.05839,0.81192 -0.2439,0.83709c-0.14742,0.02001 -0.2953,-0.07582 -0.29471,-0.22459c0.00111,-0.28153 0.04306,-0.43867 0.14779,-0.82483c0.0421,-0.15523 -0.20724,0.71624 -0.36196,0.76017c-0.19994,0.05677 0.11374,-1.20321 0.00284,-1.02742c-0.15552,0.24651 -0.53754,0.39284 -0.53754,0.18179z" data-paper-data="{&quot;origPos&quot;:null,&quot;index&quot;:null}" stroke-width="0.5" stroke-linecap="butt"/><path d="M212.40434,226.67082c0,0.21105 -0.38202,0.06472 -0.53754,-0.18179c-0.1109,-0.17579 0.20278,1.08419 0.00283,1.02742c-0.15471,-0.04393 -0.40406,-0.9154 -0.36196,-0.76017c0.10473,0.38617 0.14669,0.5433 0.14779,0.82483c0.00058,0.14877 -0.14729,0.24459 -0.29471,0.22459c-0.18551,-0.02518 -0.18474,-0.6151 -0.2439,-0.83709c-0.03265,-0.12251 0.2147,0.9307 0.08791,0.9307c-0.53479,0 -0.62146,-0.64277 -0.62146,-1.25738c0,-0.48194 0.07388,-0.57796 0.49433,-0.78904c0.06222,-0.03124 0.15532,-0.01936 0.21916,-0.04713c0.13847,-0.06022 0.19055,-0.16106 0.34155,-0.16106c0,0 0.22236,0.03303 0.37374,0.24312c0.18023,0.25013 0.39225,0.1684 0.39225,0.78302z" data-paper-data="{&quot;origPos&quot;:null,&quot;index&quot;:null}" stroke-width="0.5" stroke-linecap="butt"/><path d="M213.12626,217.14565c-0.93329,0 -1.53964,0.00211 -1.53964,-0.00729c0,-0.0094 0.60637,-0.02674 1.53964,-0.02674c0.93329,0 1.68986,-0.19245 1.68986,-0.18305c0,0.0094 -0.75657,0.21707 -1.68986,0.21707z" data-paper-data="{&quot;origPos&quot;:null}" stroke-width="0.5" stroke-linecap="butt"/></g><g data-paper-data="{&quot;origPos&quot;:null,&quot;index&quot;:null}" stroke-width="1" stroke-linecap="butt"><path d="M211.08978,215.79825v-2.83323h4.24984v2.83323z" data-paper-data="{&quot;origPos&quot;:null}"/><path d="M209.1619,215.9412v-1.81906h3.56021v1.81906z" data-paper-data="{&quot;origPos&quot;:null}"/><path d="M214.57659,214.13695v-1.81906h2.50547v1.81906z" data-paper-data="{&quot;origPos&quot;:null}"/><path d="M214.1091,216.63221v-1.73738h2.9517v1.73738z" data-paper-data="{&quot;origPos&quot;:null}"/><path d="M210.92365,213.52983v-1.73738h0.92337v1.73738z" data-paper-data="{&quot;origPos&quot;:null}"/><path d="M213.62037,215.37657v-1.73738h4.12814v1.73738z" data-paper-data="{&quot;origPos&quot;:null}"/><path d="M208.39261,214.64567v-1.73738h3.70252v1.73738z" data-paper-data="{&quot;origPos&quot;:null}"/><path d="M209.19028,215.73934v-2.71331h7.84213v2.71331z" data-paper-data="{&quot;origPos&quot;:null}"/><path d="M210.96429,213.49219v-0.71239h0.83112v0.71239z"/></g></g></g><path d="M92.032,327.61233v-59.04493h295.93601v59.04493z" fill="#ffffff" stroke="#000000" stroke-width="5" stroke-linecap="butt"/><path d="M92.50004,266.78551v-221h295v221z" fill="none" stroke="#000000" stroke-width="5" stroke-linecap="butt"/><text transform="translate(139.62639,304.05422) scale(0.8467,0.8467)" font-size="40" xml:space="preserve" fill="#000000" fill-rule="nonzero" stroke="none" stroke-width="1" stroke-linecap="butt" stroke-linejoin="miter" stroke-miterlimit="10" stroke-dasharray="" stroke-dashoffset="0" font-family="&quot; Pro W3&quot;, &quot;Hiragino Kaku Gothic Pro&quot;, Osaka, &quot;&quot;, Meiryo, &quot; &quot;, &quot;MS PGothic&quot;" font-weight="normal" text-anchor="start" style="mix-blend-mode: normal"><tspan x="0" dy="0">Scratch City</tspan></text><g fill="none" stroke="none" stroke-width="1" stroke-linecap="butt" font-family="sans-serif" font-weight="normal" font-size="12" text-anchor="start"/></g></g></svg>