<svg version="1.1" xmlns="http://www.w3.org/2000/svg" xmlns:xlink="http://www.w3.org/1999/xlink" width="289.7956" height="298.9021" viewBox="0,0,289.7956,298.9021"><g transform="translate(-131.33167,-98.2925)"><g data-paper-data="{&quot;isPaintingLayer&quot;:true}" fill-rule="nonzero" stroke-linecap="butt" stroke-linejoin="miter" stroke-miterlimit="10" stroke-dasharray="" stroke-dashoffset="0" style="mix-blend-mode: normal"><g data-paper-data="{&quot;index&quot;:null}" stroke-width="1"><path d="M403.61539,236.38922c0.51993,-4.56602 4.73783,-7.83524 9.42091,-7.30198c4.68308,0.53325 8.05804,4.66705 7.53812,9.23307c-0.51993,4.56602 -4.73784,7.83525 -9.42093,7.30199c-4.68308,-0.53325 -8.05802,-4.66703 -7.53809,-9.23308z" data-paper-data="{&quot;origPos&quot;:null}" fill="#ffd4a0" stroke="#e7c091"/><path d="M408.84167,247.19449l-122.67972,-10.96212c0,0 -4.11192,-14.92557 1.39912,-18.24997c12.53011,-7.55846 23.32369,-5.29487 37.31344,-3.65954c22.82265,2.66783 86.66131,12.0491 86.66131,12.0491z" data-paper-data="{&quot;origRot&quot;:0,&quot;origPos&quot;:null}" fill="#e80000" stroke="#740000"/></g><path d="M275.92426,385.17918l-50.60762,-62.24562l21.63146,-17.58705l50.60762,62.24562z" fill="#4d87ff" stroke="#0046d1" stroke-width="1"/><path d="M201.42641,374.47709v-80.22249h27.87875v80.22249z" fill="#4d87ff" stroke="#0046d1" stroke-width="1"/><path d="M193.75778,317.60204l42.0033,-119.44514l65.85382,23.15773l-42.00331,119.44518z" fill="#e80000" stroke="#740000" stroke-width="1"/><path d="M192.97932,382.37281c0.46801,-12.48895 20.56183,-11.36061 28.62881,-11.36061c8.06698,0 9.15343,5.86536 9.15343,12.13964c0,6.27433 -7.31858,11.75016 -15.38556,11.75016c-8.06696,0 -22.98329,3.12597 -22.39666,-12.52916z" data-paper-data="{&quot;index&quot;:null}" fill="#c58d3b" stroke="#1c1100" stroke-width="1"/><path d="M167.28917,379.59766z" fill="#c58d3b" stroke="#784800" stroke-width="1"/><path d="M309.65757,368.80738c10.33108,11.77693 -3.2147,18.76127 -9.47396,23.85023c-6.25927,5.08898 -15.39221,5.45709 -19.35031,0.58876c-3.95807,-4.86829 -6.81519,-10.10467 -0.55592,-15.19365c6.25927,-5.08898 21.13851,-18.64047 29.38015,-9.24535z" fill="#c58d3b" stroke="#1c1100" stroke-width="1"/><g stroke-width="1"><path d="M136.08475,153.94845c-4.05952,-2.39497 -5.45748,-7.54514 -3.12237,-11.5032c2.3351,-3.95805 7.51902,-5.22518 11.57855,-2.8302c4.05952,2.39497 5.45746,7.54514 3.12235,11.5032c-2.3351,3.95805 -7.51902,5.22517 -11.57854,2.8302z" data-paper-data="{&quot;origPos&quot;:null}" fill="#ffd4a0" stroke="#e7c091"/><path d="M147.37419,138.3513c0,0 56.61054,30.96163 76.43594,42.57825c12.15249,7.1207 22.132,11.81482 27.58186,25.3954c2.397,5.97311 -9.87521,15.41103 -9.87521,15.41103l-104.53348,-65.14008z" data-paper-data="{&quot;origRot&quot;:0,&quot;origPos&quot;:null}" fill="#e80000" stroke="#740000"/></g><path d="M235.35966,219.64159l6.44482,-18.3272l8.05102,2.83117l-6.44482,18.32719z" fill="#e80000" stroke="none" stroke-width="0"/><path d="M290.17278,235.90409l6.29586,-17.9036l8.05101,2.83117l-6.29588,17.90364z" fill="#e80000" stroke="none" stroke-width="0"/><path d="M260.00408,226.53779l4.63101,-9.61029l23.44908,11.29964l-4.631,9.61029z" fill="#ffd5a1" stroke="#525252" stroke-width="1"/><path d="M286.22983,229.43096l-3.20967,7.10401c0,0 -20.20645,-9.33766 -20.07809,-9.60403c0.95342,-1.97854 2.21305,-11.25102 3.89248,-10.44174c3.63649,1.91341 19.3953,12.94176 19.3953,12.94176z" fill="#e7c091" stroke="none" stroke-width="0"/><path d="M278.0962,232.29591c-36.91317,-17.78772 -53.27571,-60.35037 -36.54678,-95.06631c16.72893,-34.71595 60.21442,-48.43901 97.12759,-30.65129c36.91317,17.78772 53.27571,60.35036 36.54678,95.06631c-16.72893,34.71595 -60.21442,48.43902 -97.12759,30.6513z" data-paper-data="{&quot;index&quot;:null}" fill="#e7c091" stroke="#525252" stroke-width="1"/><path d="M369.87944,207.96208c-10.74732,19.71607 -25.76332,26.87793 -47.94935,30.34318c-15.19333,2.37305 -23.86269,0.51867 -38.2321,-4.95755c-25.0161,-9.53368 -39.86557,-48.25558 -36.19396,-74.54943c3.45312,-24.72925 7.94379,-35.97475 32.06046,-24.35341c0,0 10.02127,0.76985 -1.58649,4.43671c-4.82184,1.52322 22.54584,5.04836 34.20061,13.51296c0,0 6.22933,1.7225 -4.84537,5.41436c-12.11548,4.03883 22.31201,2.23494 30.24739,8.9506c0,0 -9.54953,-3.2033 -7.279,7.49462c0,0 19.62372,8.31807 26.20708,9.56795c9.02711,1.71383 23.46513,-1.73886 23.46513,-1.73886c0,0 -1.39679,9.92087 -4.25765,16.33419c-1.57181,3.52356 -2.68723,3.76686 -5.83676,9.54466z" data-paper-data="{&quot;index&quot;:null}" fill="#ffd5a1" stroke="none" stroke-width="0"/><path d="M338.15032,107.19291c16.01698,7.71827 23.44399,14.4981 33.37932,29.24274c6.73334,9.99272 10.57395,17.55414 13.66853,29.19958c1.3702,5.15649 -1.55973,12.65295 -1.55973,12.65295c-4.17279,6.32695 -43.11874,-3.09665 -43.11874,-3.09665c-5.69362,-3.45901 28.49315,-10.42875 19.61485,-10.0292c-8.87828,0.39958 -40.0791,-6.71991 -40.0791,-6.71991c-10.27011,-4.7777 35.30097,-8.1582 19.68153,-11.87628c-15.61945,-3.71814 -52.29871,-5.83478 -52.29871,-5.83478c-8.59909,-4.14373 29.71483,-8.35913 21.24572,-12.76232c-9.05946,-4.71014 -13.48622,-3.21259 -24.64588,-2.6772c-7.8801,0.37803 -35.83508,4.85235 -32.41035,-2.25467c6.18613,-12.83748 21.92601,-18.0527 35.67397,-21.80264c15.44895,-4.21389 36.42286,-0.99308 50.84866,5.95843z" data-paper-data="{&quot;index&quot;:null}" fill="#ffef4d" stroke="#716a22" stroke-width="1"/><path d="M323.7832,207.43241c-5.22464,10.8422 -11.35315,18.71927 -13.68837,17.59398c-2.33524,-1.1253 0.00708,-10.82689 5.23171,-21.66907c5.22464,-10.8422 11.35315,-18.71927 13.68837,-17.59397c2.33524,1.1253 -0.00708,10.82689 -5.23171,21.66907z" data-paper-data="{&quot;index&quot;:null}" fill="#000000" stroke="#1c1c1c" stroke-width="1"/><path d="M335.86213,213.99736c-5.22464,10.8422 -11.35315,18.71929 -13.68839,17.59399c-2.33524,-1.1253 0.00708,-10.82689 5.23172,-21.66909c5.22464,-10.8422 11.3531,-18.71929 13.68837,-17.59397c2.33524,1.1253 -0.00707,10.8269 -5.2317,21.66908z" data-paper-data="{&quot;index&quot;:null}" fill="#000000" stroke="#1c1c1c" stroke-width="1"/><path d="M302.24092,235.43024c-2.77808,3.4726 -9.17872,2.96884 -14.29623,-1.12517c-5.11751,-4.09401 -7.014,-10.22795 -4.23592,-13.70055c2.77808,-3.4726 9.17872,-2.96884 14.29623,1.12517c5.11751,4.09401 7.014,10.22795 4.23592,13.70055z" fill="none" stroke="#000000" stroke-width="1"/></g></g></svg>