<svg version="1.1" xmlns="http://www.w3.org/2000/svg" xmlns:xlink="http://www.w3.org/1999/xlink" width="72.25633" height="54.07995" viewBox="0,0,72.25633,54.07995"><g transform="translate(-203.38436,-151.29038)"><g data-paper-data="{&quot;isPaintingLayer&quot;:true}" fill="none" fill-rule="nonzero" stroke="none" stroke-width="none" stroke-linecap="none" stroke-linejoin="miter" stroke-miterlimit="10" stroke-dasharray="" stroke-dashoffset="0" font-family="none" font-weight="none" font-size="none" text-anchor="none" style="mix-blend-mode: normal"><path d="M215.57102,200.57366c0,0 -2.5,-13.82071 -2.5,-22.66666c0,-8.84596 2.5,-25.85615 2.5,-25.85615l11.36622,0.18248l0.39126,12.42315l26.56156,1.05133l0.53661,-13.03315l10.811,0.17356c0,0 -1.5,16.17624 -1.5,24.89211c0,8.97604 1.5,22.83334 1.5,22.83334z" data-paper-data="{&quot;origPos&quot;:null}" fill="#947040" stroke="#947040" stroke-width="1.5" stroke-linecap="butt"/><path d="M224.69567,176.286l-2.5,-2.25l4.75,1z" data-paper-data="{&quot;origPos&quot;:null}" fill="#ffffff" stroke="#ffffff" stroke-width="0.5" stroke-linecap="round"/><path d="M220.73184,183.69225c0,-6.00214 7.83605,-11.06501 10.86783,-10.86783c3.03818,0.1976 10.47264,5.65608 10.47264,11.65821c0,6.00214 -9.60803,10.27504 -10.47264,10.07745c-5.85127,-1.33723 -10.86783,-4.86569 -10.86783,-10.86783z" data-paper-data="{&quot;origPos&quot;:null}" fill="#ffffff" stroke="#ffffff" stroke-width="1.5" stroke-linecap="butt"/><path d="M240.67277,183.88384c0,4.20149 -1.59241,7.60748 -3.55675,7.60748c-1.96434,0 -3.55674,-3.40599 -3.55674,-7.60748c0,-4.20149 1.5924,-7.60748 3.55674,-7.60748c1.96434,0 3.55675,3.40599 3.55675,7.60748z" data-paper-data="{&quot;origPos&quot;:null}" fill="#947040" stroke="none" stroke-width="0" stroke-linecap="butt"/><path d="M236.20882,181.26869l2.37116,-3.16156" data-paper-data="{&quot;origPos&quot;:null}" fill="none" stroke="#ffffff" stroke-width="0.5" stroke-linecap="round"/><path d="M237.86116,182.92103l2.37116,-3.16156" data-paper-data="{&quot;origPos&quot;:null}" fill="none" stroke="#ffffff" stroke-width="0.5" stroke-linecap="round"/><path d="M261.85847,175.286l4.75,-1l-2.5,2.25z" data-paper-data="{&quot;origPos&quot;:null}" fill="#ffffff" stroke="#ffffff" stroke-width="0.5" stroke-linecap="round"/><path d="M260.70447,194.56008c-0.86462,0.1976 -13.97264,-3.82531 -13.97264,-9.82745c0,-6.00214 7.43446,-11.46062 10.47264,-11.65821c3.15774,-0.20538 5.05143,1.16341 7.09759,3.57727c0.41529,0.48992 -0.24632,16.07115 -3.59759,17.90839z" data-paper-data="{&quot;origPos&quot;:null}" fill="#ffffff" stroke="#ffffff" stroke-width="1.5" stroke-linecap="butt"/><path d="M258.93812,176.27636c1.96434,0 3.55674,3.40599 3.55674,7.60748c0,4.20149 -1.5924,7.60748 -3.55674,7.60748c-1.96434,0 -3.55675,-3.40599 -3.55675,-7.60748c0,-4.20149 1.59241,-7.60748 3.55675,-7.60748z" data-paper-data="{&quot;origPos&quot;:null}" fill="#947040" stroke="none" stroke-width="0" stroke-linecap="butt"/><path d="M260.22416,177.85713l2.37116,3.16156" data-paper-data="{&quot;origPos&quot;:null}" fill="none" stroke="#ffffff" stroke-width="0.5" stroke-linecap="round"/><path d="M259.32182,179.50947l2.37116,3.16156" data-paper-data="{&quot;origPos&quot;:null}" fill="none" stroke="#ffffff" stroke-width="0.5" stroke-linecap="round"/><path d="M258.91195,193.06808l10.49258,-13.71834l-1.75755,14.15315l6.24034,-1.21871l-5.66827,7.65003l3.42929,4.52486l-15.27804,-0.86131h-25.05337l-24.38823,0.95693l5.64657,-6.76229l-7.15202,-7.9523l7.55312,1.41655l-3.49662,-13.44005l16.02771,14.34376l20.69626,-1.63392z" data-paper-data="{&quot;origPos&quot;:null}" fill="#ffffff" stroke="#ffffff" stroke-width="1.5" stroke-linecap="round"/><path d="M241.85014,190.42561c0.42901,-0.67368 6.98763,-0.75537 7.54897,0.21568c0.92774,1.60487 -3.66664,3.01958 -3.66664,3.01958c0,0 -4.83208,-1.74387 -3.88233,-3.23527z" data-paper-data="{&quot;origPos&quot;:null}" fill="#947040" stroke="#000000" stroke-width="0" stroke-linecap="round"/><path d="M221.15034,165.47305l-0.72618,-8.35112c0,0 2.55458,2.93405 2.13197,3.04059c-0.06634,0.01673 1.23577,-4.37687 1.23577,-4.37687c0,0 1.21532,2.96159 1.55724,2.99963c0.51057,0.05704 2.15532,-2.93417 2.15532,-2.93417c0,0 0.31477,1.9917 0.34437,3.28077c0.05369,2.33831 -0.34437,5.97809 -0.34437,5.97809z" data-paper-data="{&quot;origPos&quot;:null}" fill="#ffffff" stroke="#ffffff" stroke-width="1.5" stroke-linecap="round"/><path d="M253.23395,165.57131c0,0 -0.39806,-3.63977 -0.34437,-5.97809c0.0296,-1.28907 0.34437,-3.28077 0.34437,-3.28077c0,0 1.64475,2.99121 2.15532,2.93417c0.34192,-0.03804 1.55724,-2.99963 1.55724,-2.99963c0,0 1.30211,4.3936 1.23576,4.37687c-0.42261,-0.10654 2.13198,-3.04059 2.13198,-3.04059l-0.72618,8.35112z" data-paper-data="{&quot;origPos&quot;:null,&quot;index&quot;:null}" fill="#ffffff" stroke="#ffffff" stroke-width="1.5" stroke-linecap="round"/></g></g></svg>