<svg version="1.1" xmlns="http://www.w3.org/2000/svg" xmlns:xlink="http://www.w3.org/1999/xlink" width="457.95796" height="1055.85184" viewBox="0,0,457.95796,1055.85184"><g transform="translate(28.26201,696.60659)"><g data-paper-data="{&quot;isPaintingLayer&quot;:true}" fill-rule="nonzero" stroke="none" stroke-linecap="butt" stroke-linejoin="miter" stroke-miterlimit="10" stroke-dasharray="" stroke-dashoffset="0" style="mix-blend-mode: normal"><path d="" fill="#6f3615" stroke-width="0"/><path d="" fill="#6f3615" stroke-width="0"/><path d="" fill="#6f3615" stroke-width="0"/><path d="" fill="#6f3615" stroke-width="0"/><path d="" fill="#6f3615" stroke-width="0"/><path d="" fill="#6f3615" stroke-width="0"/><path d="" fill="#6f3615" stroke-width="0"/><path d="" fill="#6f3615" stroke-width="0"/><path d="" fill="#6f3615" stroke-width="0"/><path d="" fill="#6f3615" stroke-width="0"/><path d="" fill="#6f3615" stroke-width="0"/><path d="M142.72025,354.00001v-158.04258h98.11488v158.04258z" fill="#1499c4" stroke-width="0"/><path d="" fill="#6f3615" stroke-width="0"/><path d="" fill="#6f3615" stroke-width="0"/><path d="" fill="#6f3615" stroke-width="0"/><path d="" fill="#6f3615" stroke-width="0"/><path d="" fill="#6f3615" stroke-width="0"/><path d="" fill="#6f3615" stroke-width="0"/><path d="" fill="#6f3615" stroke-width="0"/><path d="" fill="#6f3615" stroke-width="0"/><path d="" fill="#6f3615" stroke-width="0"/><path d="" fill="#6f3615" stroke-width="0"/><path d="" fill="#6f3615" stroke-width="0"/><path d="M188.3,121.69214v-65.49282h12.64689v65.49282z" fill="#1499c4" stroke-width="0"/><path d="M240.01675,359.24525v-932.78042h130.71633v932.78042z" fill="#1499c4" stroke-width="0"/><path d="M15.3979,357.96541v-932.78041h133.71933v932.78041z" fill="#1499c4" stroke-width="0"/><path d="M140.8177,16.6943v-58.49187h42.68325v58.49187z" fill="#1499c4" stroke-width="0"/><path d="M203.26172,-77.36694v-58.49187h42.68325v58.49187z" fill="#1499c4" stroke-width="0"/><path d="M145.9555,-171.78263v-8.43126h57.96491v8.43126z" fill="#1499c4" stroke-width="0"/><path d="M184.95008,-206.03463v-8.43125h57.96492v8.43125z" fill="#1499c4" stroke-width="0"/><path d="M148.59027,-240.28662v-8.43125h57.96492v8.43125z" fill="#1499c4" stroke-width="0"/><path d="M171.77624,-280.3351v-66.92313h12.64689v66.92313z" fill="#1499c4" stroke-width="0"/><path d="M179.68054,-334.61134v-12.64689h34.77895v12.64689z" fill="#1499c4" stroke-width="0"/><path d="M206.02823,-383.61805v-66.92312h12.64689v66.92312z" data-paper-data="{&quot;index&quot;:null}" fill="#1499c4" stroke-width="0"/><path d="M175.99186,-437.89428v-12.64689h34.77895v12.64689z" data-paper-data="{&quot;index&quot;:null}" fill="#1499c4" stroke-width="0"/><path d="M129.35646,-529.77368v-50.58756h129.63062v50.58756z" fill="#1499c4" stroke-width="0"/><g fill="#1499c4"><path d="M-28.26201,-552.46245v-144.14414h457.95796v144.14414z" stroke-width="0"/><path d="" stroke-width="0.5"/></g></g></g></svg>