<svg version="1.1" xmlns="http://www.w3.org/2000/svg" xmlns:xlink="http://www.w3.org/1999/xlink" width="359.94465" height="265.38819" viewBox="0,0,359.94465,265.38819"><defs><radialGradient cx="291.46379" cy="148.82587" r="37.53374" gradientUnits="userSpaceOnUse" id="color-1"><stop offset="0" stop-color="#ffdccc"/><stop offset="1" stop-color="#ffe8da"/></radialGradient><linearGradient x1="43.79752" y1="156.76101" x2="555.01936" y2="147.82323" gradientUnits="userSpaceOnUse" id="color-2"><stop offset="0" stop-color="#000000"/><stop offset="1" stop-color="#000000" stop-opacity="0"/></linearGradient><linearGradient x1="350.63784" y1="153.67661" x2="370.53247" y2="150.5802" gradientUnits="userSpaceOnUse" id="color-3"><stop offset="0" stop-color="#ffe8da"/><stop offset="1" stop-color="#fde2d1"/></linearGradient><linearGradient x1="297.13575" y1="61.17689" x2="279.96752" y2="92.69555" gradientUnits="userSpaceOnUse" id="color-4"><stop offset="0" stop-color="#d2a991"/><stop offset="1" stop-color="#fde6d9"/></linearGradient><linearGradient x1="320.86965" y1="26.35903" x2="299.86108" y2="95.44873" gradientUnits="userSpaceOnUse" id="color-5"><stop offset="0" stop-color="#f7d9c8"/><stop offset="1" stop-color="#fde6d9"/></linearGradient><linearGradient x1="822.5095" y1="-1569.52591" x2="-59.25415" y2="1330.2797" gradientUnits="userSpaceOnUse" id="color-6"><stop offset="0" stop-color="#2a221e"/><stop offset="1" stop-color="#2a221e" stop-opacity="0"/></linearGradient><radialGradient cx="288.61499" cy="71.04268" r="7.94614" gradientUnits="userSpaceOnUse" id="color-7"><stop offset="0" stop-color="#fbe2d4"/><stop offset="1" stop-color="#f6d8c8"/></radialGradient><radialGradient cx="232.73903" cy="50.18642" r="37.53374" gradientUnits="userSpaceOnUse" id="color-8"><stop offset="0" stop-color="#ffdccc"/><stop offset="1" stop-color="#ffe8da"/></radialGradient><linearGradient x1="453.82423" y1="-61.71927" x2="-5.67647" y2="162.52782" gradientUnits="userSpaceOnUse" id="color-9"><stop offset="0" stop-color="#000000"/><stop offset="1" stop-color="#000000" stop-opacity="0"/></linearGradient><linearGradient x1="177.06338" y1="70.8097" x2="160.34365" y2="82.02729" gradientUnits="userSpaceOnUse" id="color-10"><stop offset="0" stop-color="#ffe8da"/><stop offset="1" stop-color="#fde2d1"/></linearGradient></defs><g transform="translate(-43.08723,-21.17695)"><g data-paper-data="{&quot;isPaintingLayer&quot;:true}" fill-rule="nonzero" stroke-linejoin="miter" stroke-miterlimit="10" stroke-dasharray="" stroke-dashoffset="0" style="mix-blend-mode: normal"><g stroke="none" stroke-width="0" stroke-linecap="butt"><path d="M346.4448,256.8062c0,0 12.74496,-11.46226 17.22401,-10.78063c3.41476,0.51967 7.62884,8.5781 12.02724,8.22728c4.39837,-0.35081 19.14212,-7.72592 23.41136,-1.93382c3.7125,5.03674 5.61677,8.65608 1.95476,10.98326c-3.60132,2.28862 -32.03632,22.92125 -33.54767,23.26285c-6.02089,-3.41292 -12.48449,-15.41073 -13.23387,-21.25866z" data-paper-data="{&quot;origRot&quot;:0}" fill="#000000"/><path d="M310.33392,177.55992c4.69476,5.20487 5.81214,8.55232 9.84125,14.0195c3.20131,4.3439 5.76786,8.54192 9.10001,12.78363c6.41687,8.16844 9.88888,10.1031 18.3824,22.37281c0.92375,1.33446 13.78575,13.4024 22.33809,23.742c3.48152,2.94401 -17.47593,13.47942 -17.47593,13.47942c0,0 -18.4933,-15.93147 -32.20693,-25.91186c-5.94755,-4.32844 -16.30068,-15.97554 -21.56856,-22.81899c-5.95297,-7.73336 -8.86372,-14.14258 -7.18937,-24.11575c1.32649,-7.90124 1.4711,-11.66924 6.90822,-15.59262c5.43713,-3.92337 7.17606,-3.16302 11.87082,2.04185z" fill="#252525"/><path d="M215.61037,190.98854c0,0 8.44766,-6.91198 12.03141,-7.95738c13.88873,-4.05151 49.91355,-10.75496 65.27308,-12.56323c0.8017,-0.0944 9.5935,-1.84414 10.39953,-1.90444c8.53477,-0.63858 12.11513,14.61348 13.56862,19.20376c2.11886,6.69162 -0.328,10.11568 -0.328,10.11568c0,0 -7.94594,-0.15187 -14.4011,2.21418c-7.47146,2.73857 -12.78183,4.14427 -20.29844,6.75393c-11.85971,4.11751 -16.88097,4.92626 -28.25621,10.2709c-10.78493,5.06729 -16.95078,8.77569 -28.33877,12.43111c-3.53534,1.1348 -5.64734,-9.04018 -6.20349,-19.08314z" data-paper-data="{&quot;origRot&quot;:0}" fill="#0f0f0f"/></g><g stroke-linecap="butt"><g data-paper-data="{&quot;origPos&quot;:null,&quot;origRot&quot;:0}" stroke="none" stroke-width="0"><path d="M357.46051,158.17905l-8.84926,0.07873l-0.29074,-12.51135l8.65539,0.31978c0,0 2.24897,0.97827 2.30003,3.17585c0.03378,1.45433 -1.81544,8.93697 -1.81544,8.93697z" data-paper-data="{&quot;origPos&quot;:null}" fill="#000000"/><g><path d="M294.58663,137.00931c7.97078,1.74012 18.39559,3.50647 18.39559,3.50647c0,0 7.85131,0.44401 13.71215,1.05695c5.86084,0.61292 12.36899,2.00076 17.53957,3.03779c1.16914,0.23449 18.35962,5.27467 19.47912,4.80048c2.85772,-1.21044 2.07437,10.73646 -0.81021,9.08535c-1.24008,-0.70977 -25.68018,-1.88041 -27.07559,-1.66089c-7.16127,1.12662 -11.40888,0.27471 -18.62507,0.30099c-9.19488,0.03349 -14.92192,1.8803 -23.4546,-1.32406c0,0 -2.19652,-0.18955 -3.31845,-0.93517c0,0 0.06419,-6.16439 1.04836,-9.61863z" data-paper-data="{&quot;origRot&quot;:0,&quot;origPos&quot;:null}" fill="url(#color-1)"/><g data-paper-data="{&quot;origPos&quot;:null}"><path d="M355.4774,157.87955l-6.97179,0.8274l-0.39022,-12.90964l9.8764,0.48446c0,0 -3.15494,2.21659 -3.47007,5.24879z" data-paper-data="{&quot;origPos&quot;:null}" fill="url(#color-2)"/><path d="M352.84375,158.7515c0,0 -39.91655,3.01064 -54.04907,0.9623c-8.61676,-1.24892 -9.36812,-4.57618 -8.57439,-13.0333c0.51652,-8.02753 3.16168,-10.17588 9.16882,-10.18468c6.00715,-0.00881 58.02558,10.08622 58.02558,10.08622c0,0 -5.39382,0.54545 -5.78186,3.96634c-0.41183,3.63092 1.21096,8.20314 1.21096,8.20314z" data-paper-data="{&quot;origPos&quot;:null,&quot;origRot&quot;:0}" fill="#1e4994"/></g></g></g><g data-paper-data="{&quot;origRot&quot;:0}" stroke="none" stroke-width="0"><path d="M297.43901,117.8938c10.45075,21.08037 9.82132,20.44355 11.84387,28.4009c2.45907,9.67474 -15.91844,14.70337 -20.37183,5.70595c-2.45757,-4.96515 -9.98163,-15.48938 -12.41908,-20.46405c-8.34387,-17.02925 -17.0725,-31.26395 -3.85756,-37.40141c15.29323,-7.1027 24.80461,23.75863 24.80461,23.75863z" data-paper-data="{&quot;origPos&quot;:null,&quot;origRot&quot;:0}" fill="#2152a6"/><path d="M308.46343,153.01388c-9.75485,6.05458 -17.26557,3.58286 -19.81322,-1.56431c-2.45757,-4.96515 -9.98163,-15.48937 -12.41908,-20.46404c-4.31291,-8.80232 -9.79696,-18.6322 -10.21743,-28.37927c0,0 2.57125,-7.6983 6.71556,-8.5613c8.33482,-4.16537 14.32702,9.82217 16.56947,14.10739c6.40515,12.2399 19.1647,44.86152 19.1647,44.86152z" data-paper-data="{&quot;origPos&quot;:null,&quot;origRot&quot;:0}" fill="#000000"/></g><g data-paper-data="{&quot;origRot&quot;:0}"><path d="M369.75413,140.32351c0,0 11.25418,-2.01906 11.63177,0.42794c0.5372,3.48137 -7.59704,4.01632 -8.94755,3.87155c-0.6927,1.48478 -10.06821,5.58648 -10.4458,3.13947c-0.37758,-2.447 7.76159,-7.43897 7.76159,-7.43897z" data-paper-data="{&quot;origPos&quot;:null}" fill="#f8ddcc" stroke="none" stroke-width="0"/><path d="M372.22846,158.40419c-5.70503,-0.02571 -13.6088,-1.42789 -13.6088,-1.42789c0,0 -0.96514,-0.01959 -1.85272,-3.66831c-0.66658,-2.74013 0.51433,-3.64984 0.51433,-3.64984c0,0 4.74165,-4.07164 11.50323,-6.85257c6.76159,-2.78093 9.14901,15.62433 3.44397,15.59862z" data-paper-data="{&quot;origPos&quot;:null}" fill="url(#color-3)" stroke="#000000" stroke-width="0"/><path d="M371.38541,158.60163c-0.97186,-0.09458 -0.93523,-1.46126 -0.93523,-1.46126c-0.12351,-0.48261 -0.49259,-1.65756 0.19565,-2.10867c0.20647,-0.13533 4.48424,-0.495 6.80273,-1.0198c6.72673,-1.52259 8.08899,-1.70188 8.45011,-0.29097c0.36112,1.41092 -0.59335,1.85879 -7.32007,3.38137c-6.72673,1.52259 -5.8722,1.62788 -7.19319,1.49932z" data-paper-data="{&quot;origPos&quot;:null,&quot;origRot&quot;:0,&quot;index&quot;:null}" fill="#fde2d1" stroke="#000000" stroke-width="0"/><path d="M389.14613,142.68906c0.13063,1.83765 -1.50478,1.44411 -10.06641,2.92102c-7.05223,1.21653 -8.23043,1.57573 -8.53132,1.49382c-1.00293,-0.273 -1.04114,-1.88746 -1.08583,-2.51604c0,0 -0.62473,-1.90349 0.4999,-2.39757c1.5286,-0.67157 0.56149,-0.20617 9.23669,-0.73802c8.69038,-0.53277 9.81634,-0.60084 9.94697,1.23678z" data-paper-data="{&quot;origPos&quot;:null,&quot;origRot&quot;:0}" fill="#fde2d1" stroke="#000000" stroke-width="0"/><path d="M372.12437,149.20958c0.10279,0.32357 -0.19842,0.42704 -0.19842,0.42704l-0.30215,0.05171c-1.20645,0.18776 -2.46738,0.74156 -3.57349,1.27732c0,0 -0.28769,0.13937 -0.42385,-0.17044c-0.13616,-0.30981 0.15156,-0.44916 0.15156,-0.44916c1.15492,-0.55937 2.4824,-1.134 3.74206,-1.33005l0.20031,-0.02649c0,0 0.30121,-0.10346 0.40402,0.22008z" data-paper-data="{&quot;origPos&quot;:null}" fill="#f8ddcc" stroke="none" stroke-width="0.5"/><g><path d="M381.34426,153.24958c-8.45106,2.0338 -7.39039,2.1954 -9.04819,2.00118c-1.21966,-0.14288 -1.1779,-2.14621 -1.1779,-2.14621c-0.14076,-0.61419 -0.57551,-2.16923 0.30388,-2.72421c0.26383,-0.1665 1.49535,-0.16831 8.5943,-1.07174c8.61836,-1.09679 10.06737,-1.95239 10.47888,-0.15682c0.41151,1.79557 -0.68508,2.06043 -9.15096,4.0978z" data-paper-data="{&quot;origPos&quot;:null,&quot;origRot&quot;:0,&quot;index&quot;:null}" fill="#fde2d1" stroke="#000000" stroke-width="0"/><path d="M375.82222,154.83787c-0.11001,-0.32097 0.18867,-0.43222 0.18867,-0.43222l0.16689,-0.0075c1.01597,-0.63513 2.08955,-0.86489 3.20334,-1.2475c0,0 0.30123,-0.10347 0.40404,0.22008c0.10279,0.32357 -0.19844,0.42704 -0.19844,0.42704c-1.07249,0.3684 -2.10761,0.58085 -3.07935,1.18831l-0.27646,0.0615c0,0 -0.29867,0.11123 -0.40868,-0.20974z" data-paper-data="{&quot;origPos&quot;:null}" fill="#f8ddcc" stroke="none" stroke-width="0.5"/></g><g data-paper-data="{&quot;origPos&quot;:null}"><path d="M381.68126,149.3421c-8.4551,2.01611 -7.3947,2.17991 -9.05219,1.98224c-1.21945,-0.14541 -1.17402,-2.14857 -1.17402,-2.14857c-0.13963,-0.61446 -0.57156,-2.17033 0.30889,-2.72348c1.15515,-0.55439 5.19995,-0.62875 8.59655,-1.05378c8.62066,-1.07877 10.04289,-1.55971 10.45113,0.23664c0.40824,1.79635 -0.66045,1.68733 -9.13037,3.70696z" data-paper-data="{&quot;origPos&quot;:null,&quot;origRot&quot;:0,&quot;index&quot;:null}" fill="#fde2d1" stroke="#000000" stroke-width="0"/><g data-paper-data="{&quot;origRot&quot;:0,&quot;origPos&quot;:null}" fill="#f8ddcc" stroke="none" stroke-width="0.5"><path d="M380.93256,149.1464c0.05983,0.33483 -0.25279,0.3922 -0.25279,0.3922l-0.29866,0.05898c-0.85858,0.16947 -1.71439,0.32382 -2.57818,0.46918c0,0 -0.31342,0.05272 -0.36891,-0.28285c-0.05548,-0.33557 0.25794,-0.38833 0.25794,-0.38833c0.85822,-0.14441 1.70848,-0.29776 2.56172,-0.46616l0.30643,-0.06046c0,0 0.31262,-0.05738 0.37245,0.27743z" data-paper-data="{&quot;origPos&quot;:null}"/><path d="M375.00914,150.8882c-0.11901,-0.31746 0.17621,-0.43835 0.17621,-0.43835l0.12015,-0.05397c0.76797,-0.42862 1.60871,-0.53925 2.36502,-0.96136c0,0 0.2798,-0.15616 0.43154,0.14552c0.15175,0.30168 -0.12804,0.45785 -0.12804,0.45785c-0.76178,0.42517 -1.59673,0.53258 -2.36503,0.96136l-0.18564,0.08554c0,0 -0.29522,0.12088 -0.41422,-0.19658z" data-paper-data="{&quot;origPos&quot;:null}"/></g><g data-paper-data="{&quot;origPos&quot;:null}" fill="#f8ddcc" stroke="none" stroke-width="0.5"><path d="M379.83312,145.64407c0.05186,0.33617 -0.26215,0.38505 -0.26215,0.38505c-0.76523,0.11911 -1.58257,0.2463 -2.3645,0.36802l-0.44335,0.06901c-0.03968,0.00618 -0.07889,0.0042 -0.11604,-0.00474c-0.09513,-0.01874 -0.21896,-0.08239 -0.24984,-0.28255c-0.03088,-0.20016 0.06794,-0.29848 0.15296,-0.34526c0.03273,-0.01981 0.0695,-0.0336 0.10918,-0.03978c0.14778,-0.023 0.29559,-0.04601 0.44336,-0.06901c0.76354,-0.11883 1.52708,-0.23768 2.29062,-0.35649l0.07389,-0.0115c0,0 0.31404,-0.04886 0.36592,0.2873z" data-paper-data="{&quot;origPos&quot;:null}"/><path d="M374.36275,145.845c0.02584,-0.33799 0.46415,-0.26415 0.46415,-0.26415l0.1661,0.09564c0.12538,0.22939 1.48844,0.14499 1.78949,0.09813c0.03968,-0.00618 0.07888,-0.00421 0.11606,0.00473c0.09513,0.01874 0.21898,0.08239 0.24986,0.28255c0.03088,0.20016 -0.06796,0.29848 -0.15298,0.34527c-0.03273,0.01981 -0.0695,0.0336 -0.10919,0.03978l-0.36945,0.05751l-0.00236,-0.01525c-0.59438,0.04524 -1.32991,0.00315 -1.81527,-0.21619l-0.1661,-0.09564c0,0 -0.19614,0.00561 -0.17031,-0.33238z" data-paper-data="{&quot;origPos&quot;:null}"/></g></g></g></g><g stroke="none" stroke-width="0" stroke-linecap="butt"><path d="M97.55781,201.76663c0,0 -15.01777,8.2634 -19.22445,6.58098c-3.20709,-1.28265 -5.47807,-10.0883 -9.841,-10.74697c-4.3629,-0.65867 -20.39758,3.1701 -23.23769,-3.44115c-2.46974,-5.74907 -3.50099,-9.70665 0.59431,-11.14001c4.02743,-1.40963 36.40967,-15.0348 37.95911,-15.02373c5.08694,4.69278 8.65258,17.84617 8.05236,23.71129z" data-paper-data="{&quot;origRot&quot;:0}" fill="#000000"/><path d="M153.6076,260.14651c-5.96272,-3.68477 -7.97141,-6.58633 -13.36835,-10.70905c-4.28811,-3.27567 -7.92599,-6.58872 -12.31115,-9.7297c-8.4447,-6.04869 -12.31914,-6.93552 -23.90431,-16.34134c-1.26,-1.02299 -16.98302,-9.01376 -28.08505,-16.55c-4.16577,-1.85325 13.01049,-17.82779 13.01049,-17.82779c0,0 22.20993,10.12584 38.167,15.87421c6.92052,2.49302 20.11706,10.78117 27.08816,15.87894c7.87766,5.76065 12.46421,11.10052 13.64491,21.14409c0.93542,7.95702 1.85003,11.61519 -2.27339,16.90222c-4.12342,5.28702 -6.00559,5.04316 -11.96831,1.35839z" fill="#252525"/><path d="M240.98159,216.03084c0,0 -6.17836,8.99813 -9.32692,11.00378c-12.20218,7.77293 -44.9163,24.28081 -59.15778,30.31117c-0.74334,0.31477 -8.69535,4.45273 -9.45238,4.73597c-8.01589,2.99925 -15.71762,-10.64362 -18.39649,-14.64449c-3.90518,-5.83239 -2.5132,-9.804 -2.5132,-9.804c0,0 7.67154,-2.0757 13.20779,-6.15211c6.40787,-4.71821 11.11348,-7.55252 17.60075,-12.1596c10.23561,-7.26903 14.83053,-9.44936 24.25793,-17.76114c8.93815,-7.88046 13.82134,-13.16481 23.73323,-19.85829c3.0771,-2.07796 7.94958,7.10081 11.29134,16.5878z" data-paper-data="{&quot;origPos&quot;:null,&quot;origRot&quot;:0}" fill="#0f0f0f"/></g><g stroke-linecap="butt"><g data-paper-data="{&quot;origPos&quot;:null,&quot;index&quot;:null}" stroke="none"><path d="M301.05998,90.74167c-0.43462,1.16862 -0.0159,2.59981 0.74686,4.09949c-0.30973,1.17279 -0.36964,2.09408 -0.36964,2.09408l0.0709,0.34712c-0.00804,0.04009 -0.01591,0.0802 -0.02367,0.12037c-1.38423,2.17516 -2.47683,4.50566 -3.50892,6.95219c-17.24984,-3.32337 -35.29498,-18.06675 -37.74597,-20.9416c-2.47546,-2.90355 8.30287,-7.99307 10.78383,-11.19326c2.48099,-3.2002 2.33985,-4.38642 9.50028,-4.10917c7.16044,0.27725 4.26959,1.61956 10.09015,4.86771c5.82056,3.24817 10.49505,7.2072 11.51873,8.94621c1.02366,1.73902 0.98456,3.3127 -1.06256,8.81685z" data-paper-data="{&quot;origPos&quot;:null}" fill="#000000" stroke-width="0"/><g data-paper-data="{&quot;origPos&quot;:null}"><path d="M294.82077,103.97608c-15.21339,-1.94545 -30.52383,-15.00051 -32.81561,-17.99802c-2.29178,-2.9975 7.88022,-8.2289 10.28398,-11.47218c2.40377,-3.2433 0.68955,-4.36001 6.81336,-4.29233c6.12378,0.0677 5.03034,1.67213 10.05973,4.4788c5.0294,2.80665 8.57969,6.01046 9.5614,7.7871c0.93673,1.69526 0.92696,3.01785 0.28872,5.10466c-0.36145,1.18179 -0.61749,1.83395 -1.07504,2.98883c-0.93243,2.35341 1.20292,5.54109 2.69781,8.24438c-0.97639,1.72165 -1.80966,3.53016 -2.60472,5.4076c-0.88379,-0.00729 -1.94488,-0.08713 -3.20961,-0.24885z" data-paper-data="{&quot;origPos&quot;:null}" fill="#09162e" stroke-width="0"/><g data-paper-data="{&quot;origPos&quot;:null}" fill="none" stroke-width="1" font-family="sans-serif" font-weight="normal" font-size="12" text-anchor="start"/></g></g><g data-paper-data="{&quot;origPos&quot;:null,&quot;index&quot;:null}"><path d="M273.65441,171.11213c-11.48401,19.88617 -23.34188,37.35845 -23.34188,37.35845c-4.18653,5.79513 -11.98901,9.20637 -15.11266,6.09379c-2.64946,-2.64009 -4.96185,-9.2763 -4.96185,-9.2763c0,0 18.77246,-31.99071 32.67116,-56.94153c8.11528,-14.56847 11.03218,-28.20337 19.10548,-42.79555c4.28062,-7.73705 10.67582,-8.65832 17.49358,-8.10934c0.36178,3.17575 0.58032,6.37045 0.86359,9.55608c0.31958,3.59376 0.62223,8.35035 1.29552,13.25437c-0.40868,1.32268 -0.97655,2.70325 -1.78863,4.17105c0,0 -16.44629,29.75697 -26.22433,46.689z" data-paper-data="{&quot;origPos&quot;:null}" fill="#255dbc" stroke="#000000" stroke-width="0"/><path d="M269.50738,132.23884c0,0 3.58238,-9.26728 6.21139,-15.01077c1.87149,-4.08858 5.32055,-10.18273 5.32055,-10.18273l20.2759,11.82304c0,0 -0.30839,5.57501 -1.68206,8.48519c-2.57369,5.45252 -4.15606,8.87688 -7.90812,13.51697c-5.21368,6.44763 -10.6682,17.72106 -10.6682,17.72106l1.84082,-11.58167z" data-paper-data="{&quot;origPos&quot;:null}" fill="#09162e" stroke="none" stroke-width="0"/><path d="M287.33357,111.51495l6.77038,-14.10145c0,0 2.85094,-0.37853 5.36087,-0.34727c0.38812,3.29928 0.61259,6.62029 0.90705,9.93146c0.30923,3.47728 0.6026,8.04327 1.23122,12.77807c-0.08469,0.25079 -0.13706,0.38966 -0.13706,0.38966z" data-paper-data="{&quot;origPos&quot;:null}" fill="#09162e" stroke="none" stroke-width="0"/><path d="M274.6101,131.33014c-1.12289,-0.23827 -0.65233,-1.62483 -0.65233,-1.62483l0.02795,-1.29734c0.59971,-1.86958 1.13012,-3.7884 2.25583,-5.46966c0.77519,-1.15774 1.68903,-1.8807 2.3967,-2.51333c0.10453,-0.09345 0.22256,0.34851 0.26154,0.21059c0.50656,-1.79251 -0.7384,-2.68546 0.10316,-5.03347c0.10216,-0.28503 0.57276,-0.62256 1.10754,-0.89975l-0.27812,-0.29543c-0.10537,-0.10595 -0.18455,-0.23832 -0.23613,-0.38773c-0.13487,-0.34317 -0.19523,-0.89915 0.32435,-1.55745c0.02283,-0.02949 0.04633,-0.05804 0.07046,-0.08564c0.53972,-0.62951 1.02942,-0.59908 1.33873,-0.46993c0.04117,0.0149 0.08148,0.03297 0.12067,0.05432l1.05673,0.5756l-0.16695,0.30649l0.19737,0.20965l-0.0626,0.07628c0.07416,0.12015 0.14422,0.24734 0.21406,0.38841l0.08227,-0.05074l0.48629,1.60092c0.11708,0.37036 0.06886,0.83889 -0.16561,1.26935c-0.33681,0.61833 -0.94801,0.9564 -1.46069,0.84737l-1.22176,-0.22476c-0.13468,0.0579 0.29604,0.04799 0.36861,0.16198c0.04892,-0.02388 0.0976,-0.03049 0.14631,-0.01167c0.92987,0.35935 -0.12521,3.95762 -0.30479,4.39482c-0.57828,1.40784 -1.71109,1.61396 -2.64201,2.49202c-0.36656,0.34574 -1.37205,3.72386 -1.72638,4.8285l-0.04765,1.35707c0,0 -0.47057,1.38658 -1.59346,1.14831zM280.14217,117.72951c0.02827,-0.01429 0.05621,-0.03292 0.08387,-0.05479c-0.11446,0.07054 -0.17522,0.10093 -0.08387,0.05479z" data-paper-data="{&quot;origPos&quot;:null}" fill="#ffffff" stroke="none" stroke-width="0.5"/><path d="M280.52411,107.74939l0.70957,-0.73669l20.14593,10.9735c0.04487,0.3822 0.09171,0.76629 0.14066,1.15181l-0.02017,0.03703z" data-paper-data="{&quot;origPos&quot;:null}" fill="#ffffff" stroke="none" stroke-width="0"/><path d="M301.18856,118.31019l0.22899,-0.00441c0.07252,0.6044 0.15,1.21319 0.2332,1.8244l-0.82056,4.54167l-1.33928,2.98081l0.54548,-2.96544z" data-paper-data="{&quot;origPos&quot;:null,&quot;origRot&quot;:0}" fill="#ffffff" stroke="none" stroke-width="0"/></g><g data-paper-data="{&quot;origPos&quot;:null}" stroke="none" stroke-width="0"><path d="M220.74806,169.54736c11.83642,-7.91747 14.39097,-42.44203 28.81901,-66.69158c7.02586,-11.80853 11.51181,-19.71254 22.65624,-21.18331c11.14443,-1.47074 21.6447,12.67673 21.6447,12.67673c0,0 2.48499,7.99876 3.3145,12.70383c0.86641,4.91444 1.03108,11.94501 1.03108,11.94501c0,0 -5.34431,12.53893 -7.13553,16.36532c-1.30151,2.78033 -3.29305,5.16026 -3.29305,5.16026l-10.77195,16.68784c0,0 -6.55441,14.23729 -13.60616,25.53435c0,0 -5.07391,7.72057 -20.31506,0.7558c-18.52072,-8.46349 -22.34378,-13.95418 -22.34378,-13.95418z" data-paper-data="{&quot;origPos&quot;:null}" fill="#b2bbc1"/><path d="M222.24586,212.26367c-10.67505,-5.81471 -22.92578,-10.60892 -16.81176,-21.83348c6.11402,-11.22456 25.55869,-31.68355 36.23375,-25.86884c0,0 29.71566,4.15698 25.64834,12.70471c0,0 -9.02799,16.7159 -12.14322,21.62365c-6.06178,9.5497 -14.22047,19.9212 -14.22047,19.9212z" data-paper-data="{&quot;origPos&quot;:null}" fill="#b2bbc1"/><path d="M217.83605,215.22548c-6.11772,-3.33232 -10.55845,-4.7326 -13.83979,-10.92652c-1.31464,-2.48152 -1.50156,-4.28604 -0.73116,-7.02561c0.9524,-3.38672 0.69725,-4.42527 2.29773,-7.58831c1.60047,-3.16302 3.65175,-4.16968 3.65175,-4.16968c0,0 8.43911,6.53274 15.07055,9.94304c10.11672,5.20264 26.88473,11.99133 26.88473,11.99133l-9.84774,11.99573c0,0 -15.7459,-0.00394 -23.48608,-4.22002z" data-paper-data="{&quot;origPos&quot;:null}" fill="#000000"/></g><path d="M270.81644,82.35859c0,0 2.46445,-0.94772 3.08474,-2.19416c1.86089,-3.73932 3.08684,-5.99061 4.53737,-10.1467c2.44709,-7.01148 4.18458,-16.37025 4.18458,-16.37025c0,0 3.51278,-0.66124 14.64168,13.73242c8.88853,11.49609 6.13922,16.46193 6.13922,16.46193c0,0 -5.63179,-1.27501 -9.05181,5.00369c-1.14,2.0929 -2.5299,4.64456 -2.5299,4.64456l0.68275,3.99171c0,0 -3.21883,0.36844 -4.76438,-0.55448c-4.63663,-2.76879 -9.89174,-7.2844 -15.71538,-12.20851c-0.91404,-0.77286 -1.20887,-2.36019 -1.20887,-2.36019z" data-paper-data="{&quot;origPos&quot;:null}" fill="url(#color-4)" stroke="none" stroke-width="0"/><g data-paper-data="{&quot;origPos&quot;:null,&quot;index&quot;:null,&quot;origRot&quot;:0}"><path d="M263.36025,164.46633c-11.81228,21.48853 -29.78298,51.97173 -29.78298,51.97173c-4.77547,6.05892 -11.27336,-3.69652 -17.23566,-8.2503c-5.27014,-4.02516 -9.23322,-6.01187 -11.47246,-11.49223c-0.74642,-1.82678 1.21372,-7.37769 1.21372,-7.37769c0,0 14.26366,-16.74372 28.27465,-43.82843c3.98382,-19.05976 13.01368,-43.14952 21.12026,-59.00304c3.75214,-7.33779 9.2226,-9.24125 18.50776,-7.73517c0.90798,9.4522 8.84389,20.32513 17.59824,27.41624c0.05957,2.4715 -0.29916,5.00428 -1.66188,7.66929c0,0 -16.50408,32.33322 -26.56162,50.62956z" data-paper-data="{&quot;origPos&quot;:null}" fill="#255dbc" stroke="#000000" stroke-width="0"/><path d="M244.23576,116.02736c0,0 2.69625,-10.442 5.01614,-16.81466c1.65145,-4.53647 5.15985,-11.13866 5.15985,-11.13866l35.99802,19.33195c0,0 1.30921,6.72838 0.06775,9.94732c-2.32596,6.03096 -3.7328,9.82686 -8.19129,14.5814c-6.19529,6.60669 -11.2159,19.04386 -11.2159,19.04386l-0.8148,-13.68745z" data-paper-data="{&quot;origPos&quot;:null}" fill="#09162e" stroke="none" stroke-width="0"/><path d="M265.84454,95.05069l6.98547,-17.15381c0,0 12.32276,14.03073 22.05996,21.97441c-0.10003,1.78167 -3.82232,9.15389 -3.82232,9.15389z" data-paper-data="{&quot;origPos&quot;:null}" fill="#09162e" stroke="none" stroke-width="0"/><path d="M250.48238,114.01224l-0.37421,-1.57636c0.34871,-2.13628 0.57153,-4.34946 1.81593,-6.12877c0.8569,-1.22522 2.07416,-1.88639 2.99334,-2.48719c0.13579,-0.08876 0.46573,0.47911 0.4831,0.32026c0.22573,-2.06478 -2.0385,-3.45563 -1.46024,-6.11724c0.07019,-0.32312 0.70827,-0.62113 1.46768,-0.83004l-0.53679,-0.4278c-0.20146,-0.15476 -0.36983,-0.33544 -0.4999,-0.53025c-0.3248,-0.45139 -0.59997,-1.14442 0.01235,-1.82205c0.02673,-0.03047 0.05481,-0.05965 0.08419,-0.08745c0.65357,-0.6376 1.4407,-0.48203 1.97333,-0.24962c0.07017,0.02814 0.13996,0.05994 0.20905,0.09549l1.86304,0.95801l-0.16609,0.33361l0.3809,0.30357l-0.07476,0.07796c0.15648,0.16456 0.30869,0.33667 0.46505,0.52571l0.11426,-0.042l1.28837,2.0712c0.30533,0.48026 0.37994,1.04033 0.14662,1.50889c-0.3351,0.67306 -1.19616,0.93771 -2.04508,0.6807l-2.0118,-0.56981c-0.1951,0.03809 0.4854,0.13017 0.63734,0.2868c0.06996,-0.0173 0.14513,-0.0136 0.22848,0.02116c1.59193,0.66345 1.07814,4.79909 0.93413,5.28914c-0.46367,1.57805 -2.19524,1.55555 -3.38959,2.40182c-0.47029,0.33322 -0.97636,4.21221 -1.1824,5.47446l0.3622,1.64447c0,0 -0.29957,1.57816 -2.15876,1.01577c-1.85922,-0.56237 -1.55965,-2.14053 -1.55965,-2.14053zM256.43482,100.89455c0.04026,-0.01059 0.07861,-0.02656 0.11545,-0.04654c-0.15893,0.05839 -0.24559,0.08077 -0.11545,0.04654z" data-paper-data="{&quot;origPos&quot;:null}" fill="#ffffff" stroke="none" stroke-width="0.5"/><path d="M253.82112,88.80852l0.88861,-0.72729l36.56189,18.8008l-0.46943,0.94285z" data-paper-data="{&quot;origPos&quot;:null}" fill="#ffffff" stroke="none" stroke-width="0"/><path d="M290.02862,106.6942l1.25502,0.1733l0.22863,7.50293l-1.16407,3.31342l-0.09094,-3.4867z" data-paper-data="{&quot;origPos&quot;:null,&quot;origRot&quot;:0}" fill="#ffffff" stroke="none" stroke-width="0"/></g></g><g><path d="M339.96327,36.89511c0.1875,0.06795 0.3663,0.15488 0.53588,0.26221c-0.12655,0.09739 -0.25234,0.19579 -0.37737,0.29523c-0.05014,-0.18757 -0.10292,-0.37337 -0.15851,-0.55741z" data-paper-data="{&quot;origPos&quot;:null}" fill="#453725" stroke="none" stroke-width="0" stroke-linecap="butt"/><g data-paper-data="{&quot;origPos&quot;:null,&quot;index&quot;:null}"><path d="M287.6608,73.53247c-2.68052,-2.05451 -2.21119,-7.46957 -2.5811,-12.42343c-0.2091,-2.80027 0.04566,-3.18607 0.92329,-4.9816c0.87765,-1.79556 1.44192,-2.29109 2.4804,-1.98202c1.03847,0.30908 2.24384,1.52519 2.88072,3.57755c0.63684,2.05239 1.09468,4.06876 -0.05573,5.52616" data-paper-data="{&quot;origPos&quot;:null,&quot;origRot&quot;:0}" fill="#ffddd1" stroke="#e9c7ba" stroke-width="0.5" stroke-linecap="round"/><text transform="translate(290.54789,70.27039) rotate(-170.48535) scale(0.2304,-0.41388) skewX(-14.03675)" font-size="40" xml:space="preserve" data-paper-data="{&quot;origRot&quot;:-1.7125,&quot;origPos&quot;:null,&quot;index&quot;:null}" fill="#e9c7ba" fill-rule="nonzero" stroke="none" stroke-width="1" stroke-linecap="butt" stroke-linejoin="miter" stroke-miterlimit="10" stroke-dasharray="" stroke-dashoffset="0" font-family="Handwriting" font-weight="normal" text-anchor="start" style="mix-blend-mode: normal"><tspan x="0" dy="0">3</tspan></text></g><path d="M286.09027,81.65233c0,0 -10.02251,-14.57821 -7.49752,-27.48133c5.16226,-20.27622 16.37481,-30.0172 32.48568,-29.12914c16.11086,0.88806 24.81673,7.11953 29.03873,16.06587c8.87896,19.11413 -2.72687,31.82999 -2.72687,31.82999l-1.17678,5.85631c0,0 1.17811,4.94642 0.71833,6.23269c-0.77496,2.16802 -10.61318,11.24783 -16.19473,14.40618c-1.86052,1.05279 -2.10613,1.72035 -5.86253,0.57949c-4.85012,-1.3839 -15.19512,-8.35155 -15.19512,-8.35155z" data-paper-data="{&quot;origPos&quot;:null,&quot;origRot&quot;:0}" fill="url(#color-5)" stroke="none" stroke-width="0" stroke-linecap="butt"/><path d="M328.15895,64.23281c4.92651,0.57168 7.9157,3.10401 7.9157,3.10401c0.59568,0.48569 0.51641,1.1425 0.08094,1.26319c-0.43544,0.12071 -0.99481,0.05034 -1.59047,-0.43536c-2.10582,-1.71694 -3.28757,-1.84636 -6.18972,-2.38282c-3.86407,-0.71426 -10.19353,0.32511 -9.5098,0.06839c1.47573,-0.55414 5.30578,-2.08015 9.29336,-1.61742z" data-paper-data="{&quot;origRot&quot;:0,&quot;origPos&quot;:null,&quot;index&quot;:null}" fill="#38301c" stroke="none" stroke-width="0" stroke-linecap="butt"/><path d="M350.12632,54.97647c-4.15018,1.48626 -2.93261,0.2285 -6.29265,3.06807c-1.53388,-6.21439 1.33456,-2.68599 -6.42493,-4.76805c-13.00534,-3.4896 -24.47491,-4.62993 -31.01419,-2.92762c-1.49372,0.38885 -3.07779,5.58225 -3.07779,5.58225c0,0 0.07811,-3.01134 -1.31238,-2.09129c-3.07493,2.0346 -4.22365,15.67419 -4.22365,15.67419l-3.511,-1.26364c0,0 -2.11623,-5.24495 -1.48098,-8.49201c0.63906,-3.26651 -7.47466,-0.70293 -6.96002,2.58901c1.03045,6.59145 -1.31724,17.38042 -1.31724,17.38042c0,0 -8.93287,-14.44052 -6.31827,-27.18183c1.82783,-8.90727 6.00936,-15.79806 12.89573,-21.75843c4.42433,-4.81487 12.10345,-13.76954 32.4435,-7.40511c18.94191,5.92696 25.75084,13.58318 26.29332,25.86997z" data-paper-data="{&quot;origPos&quot;:null}" fill="#3d3021" stroke="none" stroke-width="0" stroke-linecap="butt"/><path d="M325.56441,47.83564c-9.6519,-2.58981 -19.95962,-2.24356 -28.05812,3.11499c-3.00651,1.98933 -4.14578,5.61389 -4.14578,5.61389c0,0 1.44638,-5.785 -0.08126,-8.98284c-0.74305,-2.17791 -2.5344,-1.38883 -4.82006,-1.12214c-1.7236,0.2011 -5.35426,1.62956 -5.35426,1.62956c0,0 2.45271,-8.51908 6.90784,-12.25758c4.13834,-5.7551 12.93544,-7.37239 12.93544,-7.37239c0,0 2.67058,-7.3715 18.10541,-3.86773c11.68093,3.655 24.17701,9.05693 25.85143,14.59945c-5.66955,-2.0544 -5.23483,14.58942 -5.23483,14.58942l6.63784,1.35803c0,0 -1.93491,2.61158 -2.95677,4.34897c-2.50054,4.25153 -6.06891,10.99693 -6.06891,10.99693c0,0 4.94468,-10.17397 3.61586,-13.45969c-2.67167,-6.60618 -10.45129,-7.34207 -17.3338,-9.18882z" data-paper-data="{&quot;origPos&quot;:null}" fill="#453725" stroke="none" stroke-width="0" stroke-linecap="butt"/><g data-paper-data="{&quot;origPos&quot;:null}" stroke="none" stroke-width="0" stroke-linecap="butt"><path d="M309.99316,52.45566l-3.76004,-4.7834l5.67155,3.71688l-0.62865,-1.41474c0,0 2.44899,2.23143 6.93941,2.45302c6.10604,0.30132 15.35609,-1.75871 19.65957,-0.97719c5.93222,1.07729 5.53434,9.49869 5.53434,9.49869c0,0 -0.59004,-0.47993 -0.98327,-0.76503c-1.1515,-0.83483 -1.81594,-1.4473 -3.22485,-1.59679c-6.99565,-0.74244 -14.80963,3.67527 -21.50023,1.64081c-10.29402,-3.13017 -14.36313,-10.33694 -14.36313,-10.33694z" data-paper-data="{&quot;origPos&quot;:null}" fill="url(#color-6)"/><path d="M309.10848,49.50825l-3.39847,-4.07793l5.55349,2.32985l-1.96916,-2.53986c0,0 3.79917,3.48017 8.53088,3.25058c8.42917,-0.40895 5.79739,-11.45988 23.91571,-9.0696c9.19646,1.21325 2.06567,10.63138 1.47049,17.27535c-0.15474,1.72739 1.92131,3.7975 1.92131,3.7975l-2.80495,-2.48278c0,0 -0.15565,-0.95978 -2.10943,-0.90897c-1.67888,0.04368 -2.84379,-0.96793 -2.84379,-0.96793c0,0 1.02421,0.48756 3.19703,-0.0457c1.42418,-0.31974 0.47819,-1.27432 0.22294,-0.90357c-10.33555,-0.77875 -13.83358,6.98734 -21.83257,4.55503c-10.52914,-3.20167 -14.61798,-10.41194 -14.61798,-10.41194z" data-paper-data="{&quot;origPos&quot;:null}" fill="#3b2f20"/></g><path d="M293.84169,64.2016c-0.96437,4.40731 -1.39771,8.66928 -5.51106,8.43646c-2.2702,-0.12848 -4.69217,-4.7887 -3.6425,-9.58591c1.04971,-4.79721 3.40774,-6.44316 6.4691,-5.94624c3.06138,0.49692 3.73414,2.29849 2.68445,7.09571z" data-paper-data="{&quot;origRot&quot;:0,&quot;origPos&quot;:null,&quot;index&quot;:null}" fill="url(#color-7)" stroke="none" stroke-width="0" stroke-linecap="butt"/><g data-paper-data="{&quot;origPos&quot;:null}" stroke-linecap="butt"><g data-paper-data="{&quot;origPos&quot;:null}" stroke="none" stroke-width="0"><path d="M332.78611,77.57921c-1.44391,1.22566 -3.44763,2.47302 -7.27477,1.30927c-3.6211,-1.1011 -6.31144,-4.10303 -5.6907,-6.90788c0.14447,-0.69643 1.61268,-2.56103 3.34309,-2.81462c2.14621,-0.3145 5.99466,-0.35169 7.83474,0.20784c3.82713,1.16375 2.98946,2.91072 3.00274,4.24334c0,0 -0.02785,2.95423 -1.2151,3.96204z" data-paper-data="{&quot;origPos&quot;:null}" fill="#000000"/><path d="M332.52983,78.28561c-0.98154,1.18023 -2.38159,1.32928 -2.38159,1.32928c-1.62968,-0.19017 -2.07305,-0.43625 -3.64495,-0.88313c-1.36125,-0.38701 -3.38512,-1.25908 -3.38512,-1.25908c0,0 -1.38716,-1.59418 -1.88402,-2.55996c-0.51382,-0.99871 -0.73037,-2.88414 -0.73037,-2.88414c0,0 2.11782,-1.72697 3.46875,-2.09038c1.35093,-0.36343 5.61941,-0.61343 6.8102,-0.25133c3.51468,1.06873 3.17925,2.57039 3.21087,3.73031c0,0 0.01506,1.47154 -0.27127,2.42383c-0.28492,0.94769 -0.21097,1.26439 -1.19252,2.44461z" data-paper-data="{&quot;origPos&quot;:null}" fill="#ffffff"/></g><g data-paper-data="{&quot;origPos&quot;:null}" stroke="#000000" stroke-width="0"><path d="M333.48196,75.19061c-0.22656,1.43142 -0.90058,2.69413 -1.80685,3.57715c-0.90627,0.88304 -2.07532,0.9535 -3.22989,0.86769c-1.15456,-0.08579 -2.07869,-0.31189 -2.6877,-1.30753c-0.609,-0.99563 -0.8724,-2.32804 -0.6459,-3.75947c0.12185,-0.76983 0.44499,-1.469 0.79218,-2.10841c3.8879,-0.47613 4.65572,-1.09775 7.63458,2.27056c-0.01323,0.15198 -0.03198,0.30543 -0.05646,0.46001z" data-paper-data="{&quot;origPos&quot;:null}" fill="#898151"/><path d="M332.83951,71.54926c0.609,0.99563 0.87238,2.328 0.6458,3.75946c-0.04802,0.30354 -0.1881,0.57768 -0.27434,0.86404c-0.55642,-0.33717 -0.36565,-1.6114 -3.48507,-2.61738c-2.83885,-0.9155 -3.76196,-0.18638 -4.30129,-0.08019c0.33254,-0.92854 0.85692,-1.74195 1.49724,-2.36583c0.90627,-0.88304 2.04483,-1.38641 3.19942,-1.30059c1.15456,0.08585 2.10919,0.74482 2.71822,1.74048z" data-paper-data="{&quot;origPos&quot;:null}" fill="#4d461c"/></g><path d="M325.97175,78.97716c-1.14128,-0.34704 -2.91298,-0.78837 -2.91298,-0.78837l0.11296,-0.37149c0,0 1.86154,0.25396 2.97274,0.59185c1.44171,0.43839 3.56882,1.39729 3.56882,1.39729l-0.11296,0.37149c0,0 -2.21693,-0.77152 -3.62858,-1.20077z" data-paper-data="{&quot;origPos&quot;:null}" fill="#000000" stroke="none" stroke-width="0"/><path d="M324.59149,69.65999l-1.12964,-0.54893c0,0 2.59684,-1.20387 7.40027,0.00637c3.55547,1.23807 3.07054,2.71218 3.07054,2.71218c0,0 -1.96668,-1.49125 -3.04177,-1.85617c-1.01882,-0.3458 -2.60859,-0.3893 -3.65855,-0.62473c-1.04995,-0.23544 -2.64085,0.3113 -2.64085,0.3113z" data-paper-data="{&quot;origPos&quot;:null}" fill="#000000" stroke="#000000" stroke-width="0"/><g data-paper-data="{&quot;origPos&quot;:null}" stroke="none" stroke-width="1"><path d="M328.94982,71.40162c0.67376,-0.30526 1.41193,-0.31288 2.05403,0.04934c0.64213,0.3622 1.06794,1.02644 1.2369,1.80712c0.16898,0.78071 0.08103,1.67778 -0.30357,2.50521c-0.38464,0.82742 -0.99391,1.43041 -1.66764,1.7357c-0.67372,0.30527 -1.4119,0.31289 -2.05397,-0.04933c-0.64209,-0.36218 -1.06799,-1.02647 -1.23694,-1.80716c-0.16898,-0.78071 -0.08101,-1.67773 0.30357,-2.50514c0.38459,-0.82743 0.99389,-1.43045 1.66765,-1.73576z" data-paper-data="{&quot;origPos&quot;:null}" fill="#000000"/><path d="M331.2571,72.5905c0.22668,-0.16949 0.48803,-0.2216 0.72992,-0.11599c0.24188,0.1055 0.41928,0.34902 0.5102,0.65718c0.09098,0.30813 0.09542,0.68095 -0.00798,1.04477c-0.10339,0.36381 -0.29532,0.6509 -0.52201,0.82047c-0.22668,0.16949 -0.48802,0.22158 -0.7299,0.11599c-0.24189,-0.10558 -0.41924,-0.34901 -0.51019,-0.65718c-0.09094,-0.30807 -0.09544,-0.6809 0.00796,-1.04477c0.10339,-0.36381 0.29539,-0.65096 0.52209,-0.82056z" data-paper-data="{&quot;origPos&quot;:null,&quot;origRot&quot;:0}" fill="#ffffff"/><path d="M326.92082,74.19446c0.16933,-0.04985 0.36098,-0.03769 0.53457,0.04829c0.17359,0.08597 0.29654,0.22964 0.35496,0.39231c0.0584,0.16268 0.05223,0.34434 -0.03236,0.50639c-0.08452,0.16204 -0.23168,0.27393 -0.40103,0.32375c-0.16933,0.04985 -0.36096,0.03779 -0.53456,-0.04823c-0.17359,-0.08594 -0.29649,-0.22956 -0.35488,-0.39224c-0.0584,-0.16266 -0.05224,-0.34439 0.03237,-0.50643c0.08462,-0.16203 0.23167,-0.27387 0.40098,-0.32372z" data-paper-data="{&quot;origPos&quot;:null}" fill="#ffffff"/></g></g></g><g stroke-linecap="butt"><g data-paper-data="{&quot;origPos&quot;:null,&quot;origRot&quot;:0}" stroke="none" stroke-width="0"><path d="M168.97689,69.61416l7.98608,-3.81285l5.55334,11.21511l-7.97889,3.36977c0,0 -2.45167,0.06435 -3.4271,-1.90555c-0.64552,-1.30366 -2.13341,-8.86645 -2.13341,-8.86645z" data-paper-data="{&quot;origPos&quot;:null}" fill="#000000"/><g><path d="M234.90517,62.21519c-7.95901,1.79316 -18.15302,4.60012 -18.15302,4.60012c0,0 -7.30275,2.91721 -12.87312,4.83975c-5.57035,1.92256 -12.05495,3.41654 -17.1791,4.66291c-1.15864,0.28181 -18.86802,2.98254 -19.68205,3.88559c-2.07794,2.30519 -6.41927,-8.85254 -3.1071,-8.57589c1.42388,0.11889 24.06694,-9.15367 25.23869,-9.94259c6.01334,-4.04879 10.22281,-5.07268 16.75115,-8.14754c8.31843,-3.918 12.72756,-8.01303 21.81486,-8.71684c0,0 2.07067,-0.75693 3.40265,-0.5556c0,0 2.54817,5.61343 3.11676,9.15985z" data-paper-data="{&quot;origRot&quot;:0,&quot;origPos&quot;:null}" fill="url(#color-8)"/><g data-paper-data="{&quot;origPos&quot;:null}"><path d="M170.90065,69.04711l5.96814,-3.69753l5.8119,11.53399l-9.15503,3.73676c0,0 1.92188,-3.34265 0.92543,-6.22373z" data-paper-data="{&quot;origPos&quot;:null}" fill="url(#color-9)"/><path d="M172.91865,67.14341c0,0 34.90027,-19.60525 48.5735,-23.7243c8.33674,-2.51142 10.42442,0.18612 13.28084,8.18574c2.92602,7.4931 1.43724,10.55835 -4.00283,13.10619c-5.44008,2.54784 -56.84848,15.39321 -56.84848,15.39321c0,0 4.65738,-2.77484 3.56264,-6.03898c-1.16195,-3.46454 -4.56572,-6.92186 -4.56572,-6.92186z" data-paper-data="{&quot;origPos&quot;:null,&quot;origRot&quot;:0}" fill="#1e4994"/></g></g></g><g data-paper-data="{&quot;origRot&quot;:0}" stroke="none" stroke-width="0"><path d="M240.40242,80.74405c-18.38359,-14.68484 -17.54392,-14.37386 -22.7412,-20.72981c-6.31899,-7.72774 8.20895,-20.05491 16.04886,-13.78417c4.32639,3.46045 15.59456,9.8165 19.90673,13.29408c14.76143,11.90442 28.69002,21.11368 19.30933,32.26292c-10.85598,12.90268 -32.52373,-11.04301 -32.52373,-11.04301z" data-paper-data="{&quot;origPos&quot;:null,&quot;origRot&quot;:0}" fill="#2152a6"/><path d="M215.5629,53.5787c6.28014,-9.61119 14.13156,-10.54685 18.61654,-6.95954c4.32639,3.46045 15.59455,9.81649 19.90673,13.29407c7.63012,6.15332 16.75601,12.74266 21.25816,21.39789c0,0 0.92477,8.06349 -2.46601,10.5978c-5.79205,7.29875 -17.1363,-2.8435 -20.98028,-5.77873c-10.97957,-8.38391 -36.33514,-32.55148 -36.33514,-32.55148z" data-paper-data="{&quot;origPos&quot;:null,&quot;origRot&quot;:0}" fill="#000000"/></g><g data-paper-data="{&quot;origRot&quot;:0}"><path d="M165.38558,90.99302c0,0 -9.3451,6.58804 -10.72188,4.53017c-1.95876,-2.92775 5.18647,-6.85174 6.47153,-7.29155c-0.00003,-1.63841 6.76203,-9.31947 8.13882,-7.26159c1.37677,2.05787 -3.88848,10.02298 -3.88848,10.02298z" data-paper-data="{&quot;origPos&quot;:null}" fill="#f8ddcc" stroke="none" stroke-width="0"/><path d="M155.49868,75.65411c5.18088,-2.38881 12.9363,-4.4599 12.9363,-4.4599c0,0 0.88292,-0.39031 3.22996,2.54096c1.76261,2.20133 1.07708,3.52502 1.07708,3.52502c0,0 -2.57547,5.6946 -7.52716,11.07357c-4.9517,5.37896 -14.89708,-10.29084 -9.71619,-12.67965z" data-paper-data="{&quot;origPos&quot;:null}" fill="url(#color-10)" stroke="#000000" stroke-width="0"/><path d="M156.17918,75.11871c0.92071,-0.32519 1.46536,0.92882 1.46536,0.92882c0.31599,0.38514 1.14721,1.29384 0.71426,1.99365c-0.12988,0.20994 -3.85443,2.34454 -5.73361,3.8004c-5.45213,4.2239 -6.61084,4.96235 -7.53464,3.83643c-0.92379,-1.12592 -0.24822,-1.93535 5.20393,-6.15923c5.45213,-4.2239 4.63324,-3.95802 5.88469,-4.40004z" data-paper-data="{&quot;origPos&quot;:null,&quot;origRot&quot;:0,&quot;index&quot;:null}" fill="#fde2d1" stroke="#000000" stroke-width="0"/><path d="M146.81198,97.04837c-0.89534,-1.61007 0.75309,-1.9449 7.88736,-6.90322c5.87651,-4.08417 6.79236,-4.90782 7.09965,-4.96082c1.0243,-0.17665 1.74154,1.27025 2.0478,1.82098c0,0 1.37095,1.46083 0.56068,2.38408c-1.1013,1.25489 -0.42166,0.42424 -8.05845,4.57414c-7.65014,4.15716 -8.64173,4.69491 -9.53706,3.08484z" data-paper-data="{&quot;origPos&quot;:null,&quot;origRot&quot;:0}" fill="#fde2d1" stroke="#000000" stroke-width="0"/><path d="M159.48054,83.94244c-0.22996,-0.24977 -0.00074,-0.47089 -0.00074,-0.47089l0.25195,-0.17461c1.01392,-0.68025 1.92245,-1.71525 2.69832,-2.66842c0,0 0.2018,-0.24793 0.45617,-0.02475c0.25437,0.22318 0.05256,0.47112 0.05256,0.47112c-0.81011,0.99522 -1.77015,2.07723 -2.82877,2.78749l-0.17033,0.10869c0,0 -0.22922,0.22112 -0.45918,-0.02861z" data-paper-data="{&quot;origPos&quot;:null}" fill="#f8ddcc" stroke="none" stroke-width="0.5"/><g><path d="M149.41715,84.17954c6.79863,-5.41622 5.76909,-5.11421 7.35354,-5.63913c1.16569,-0.3862 1.97487,1.44691 1.97487,1.44691c0.38724,0.49707 1.43871,1.72247 0.87643,2.59721c-0.16868,0.26242 -1.28395,0.78477 -7.33519,4.60495c-7.34641,4.63781 -8.29778,6.02584 -9.42987,4.57264c-1.13209,-1.45319 -0.25034,-2.15687 6.56021,-7.58258z" data-paper-data="{&quot;origPos&quot;:null,&quot;origRot&quot;:0,&quot;index&quot;:null}" fill="#fde2d1" stroke="#000000" stroke-width="0"/><path d="M153.7498,80.40545c0.23541,0.24436 0.01176,0.47145 0.01176,0.47145l-0.14806,0.07735c-0.65215,1.00512 -1.52791,1.66725 -2.37548,2.4849c0,0 -0.22923,0.22113 -0.45919,-0.02861c-0.22996,-0.24977 -0.00073,-0.47089 -0.00073,-0.47089c0.81615,-0.78731 1.66438,-1.41749 2.28815,-2.37884l0.22452,-0.17263c0,0 0.22363,-0.22709 0.45904,0.01728z" data-paper-data="{&quot;origPos&quot;:null}" fill="#f8ddcc" stroke="none" stroke-width="0.5"/></g><g data-paper-data="{&quot;origPos&quot;:null}"><path d="M150.76386,87.86306c6.80976,-5.40191 5.77955,-5.10201 7.36518,-5.62367c1.16657,-0.38382 1.97235,1.45069 1.97235,1.45069c0.38633,0.49779 1.43558,1.72515 0.87157,2.59868c-0.81242,0.99081 -4.44646,2.76835 -7.34483,4.58964c-7.35611,4.62247 -8.44161,5.65962 -9.57108,4.20435c-1.12946,-1.45527 -0.11489,-1.80833 6.70681,-7.21969z" data-paper-data="{&quot;origPos&quot;:null,&quot;origRot&quot;:0,&quot;index&quot;:null}" fill="#fde2d1" stroke="#000000" stroke-width="0"/><g data-paper-data="{&quot;origRot&quot;:0,&quot;origPos&quot;:null}" fill="#f8ddcc" stroke="none" stroke-width="0.5"><path d="M151.52509,87.72385c-0.19578,-0.27813 0.06325,-0.4623 0.06325,-0.4623l0.24571,-0.17971c0.70641,-0.51659 1.4167,-1.0183 2.13802,-1.51525c0,0 0.26173,-0.1803 0.45389,0.10034c0.19216,0.28065 -0.06956,0.46096 -0.06956,0.46096c-0.71668,0.49373 -1.42236,0.99219 -2.12439,1.50556l-0.25214,0.18435c0,0 -0.25905,0.18418 -0.45482,-0.09394z" data-paper-data="{&quot;origPos&quot;:null}"/><path d="M156.15657,83.64095c0.24207,0.23738 0.02565,0.47176 0.02565,0.47176l-0.08606,0.0997c-0.51473,0.71314 -1.22985,1.16886 -1.73677,1.87115c0,0 -0.18753,0.25982 -0.4526,0.05058c-0.26507,-0.20923 -0.07755,-0.46904 -0.07755,-0.46904c0.51057,-0.70738 1.22182,-1.15774 1.73677,-1.87115l0.13207,-0.156c0,0 0.21641,-0.23437 0.45849,0.00301z" data-paper-data="{&quot;origPos&quot;:null}"/></g><g data-paper-data="{&quot;origPos&quot;:null}" fill="#f8ddcc" stroke="none" stroke-width="0.5"><path d="M154.00222,90.43288c-0.18914,-0.28272 0.07478,-0.45979 0.07478,-0.45979c0.64312,-0.43148 1.33001,-0.89233 1.98716,-1.33322l0.3726,-0.24998c0.03335,-0.02238 0.0697,-0.03716 0.10716,-0.04477c0.09413,-0.02325 0.23326,-0.01791 0.34589,0.15043c0.11262,0.16833 0.06464,0.29921 0.00736,0.37755c-0.02128,0.03179 -0.04878,0.05983 -0.08213,0.08221c-0.1242,0.08332 -0.24841,0.16667 -0.3726,0.24998c-0.64169,0.43051 -1.28338,0.86105 -1.92508,1.29156l-0.0621,0.04167c0,0 -0.26393,0.17706 -0.45308,-0.10564z" data-paper-data="{&quot;origPos&quot;:null}"/><path d="M158.87464,87.9379c0.11949,0.31722 -0.30894,0.43563 -0.30894,0.43563l-0.19096,-0.01645c-0.2106,-0.15486 -1.41016,0.49793 -1.66317,0.66768c-0.03335,0.02238 -0.0697,0.03717 -0.10718,0.04478c-0.09413,0.02325 -0.23327,0.01793 -0.34589,-0.15041c-0.11262,-0.16833 -0.06462,-0.29923 -0.00734,-0.37756c0.02128,-0.03179 0.04878,-0.05983 0.08212,-0.08221l0.31048,-0.20831l0.00858,0.01282c0.51951,-0.2923 1.20386,-0.56515 1.73645,-0.5716l0.19096,0.01644c0,0 0.17537,-0.08801 0.29487,0.2292z" data-paper-data="{&quot;origPos&quot;:null}"/></g></g></g></g></g></g></svg>