<svg version="1.1" xmlns="http://www.w3.org/2000/svg" xmlns:xlink="http://www.w3.org/1999/xlink" width="247.64125" height="352.08171" viewBox="0,0,247.64125,352.08171"><defs><linearGradient x1="237.40401" y1="171.12563" x2="235.40903" y2="186.94013" gradientUnits="userSpaceOnUse" id="color-1"><stop offset="0" stop-color="#1f007b"/><stop offset="1" stop-color="#000304"/></linearGradient><linearGradient x1="275.62117" y1="176.07485" x2="273.62619" y2="191.88934" gradientUnits="userSpaceOnUse" id="color-2"><stop offset="0" stop-color="#1f007b"/><stop offset="1" stop-color="#000304"/></linearGradient></defs><g transform="translate(-96.83134,-77.49566)"><g data-paper-data="{&quot;isPaintingLayer&quot;:true}" fill-rule="nonzero" stroke-width="2.5" stroke-linejoin="miter" stroke-miterlimit="10" stroke-dasharray="" stroke-dashoffset="0" style="mix-blend-mode: normal"><g data-paper-data="{&quot;origRot&quot;:0}"><path d="M286.64029,427.71163l-6.02898,-27.32085l39.27421,-20.5665l7.08847,13.0621l9.67442,-2.52245l4.03083,9.04943z" data-paper-data="{&quot;origPos&quot;:null}" fill="#bb5500" stroke="#bb5500" stroke-linecap="butt"/><path d="M280.6957,408.99476c0,0 -3.02597,-3.74143 -3.82873,-6.72998c-1.98093,-7.37473 -3.30411,-19.82469 -3.30411,-19.82469l31.70226,-18.85897c0,0 13.60966,9.11462 18.33739,15.23039c1.57591,2.03859 2.71623,6.2921 2.71623,6.2921c0,0 -5.89077,2.08022 -9.688,1.98073c-2.99721,-0.07853 -7.7219,-2.43691 -7.7219,-2.43691c0,0 1.46149,4.97694 0.76803,7.81126c-0.88517,3.61787 -4.8131,8.72169 -4.8131,8.72169c0,0 -7.62944,-0.03862 -11.86458,-1.12521c-1.7625,-0.4522 -3.5036,-2.81776 -3.5036,-2.81776c0,0 -0.59986,3.02688 -1.84774,4.69414c-2.18639,2.9212 -6.95215,7.06321 -6.95215,7.06321z" data-paper-data="{&quot;origPos&quot;:null}" fill="#2e00b8" stroke="#2e00b8" stroke-linecap="butt"/><path d="M253.34715,263.06289l64.0605,110.50844l-41.90703,21.94522l-41.9765,-114.88869" data-paper-data="{&quot;origPos&quot;:null}" fill="#306e7b" stroke="#306e7b" stroke-linecap="round"/><path d="M304.24707,404.56954l23.04697,-11.31633" fill="none" stroke="#bb5500" stroke-linecap="round"/></g><g data-paper-data="{&quot;index&quot;:null,&quot;origRot&quot;:0}" stroke-linecap="round"><path d="M313.45482,203.93259c0,0 29.08062,2.88611 29.76777,8.72738c0.6745,5.73372 -22.81635,9.73209 -22.81635,9.73209" data-paper-data="{&quot;origPos&quot;:null}" fill="#2e00b8" stroke="#2e00b8"/><path d="M248.67036,211.1514c0,0 19.38259,-8.94859 32.4541,-12.62165c16.45781,-4.6246 43.21111,-8.64005 43.21111,-8.64005l2.04901,47.30012c0,0 -24.85052,-1.30284 -40.7161,-3.17022c-12.07245,-1.42094 -30.8716,-5.2557 -30.8716,-5.2557" data-paper-data="{&quot;origPos&quot;:null}" fill="#009fb8" stroke="#009fb8"/></g><path d="M244.11351,201.92475l1.14264,8.68406l10.96934,0.45706l-8.91259,11.4264l-22.62427,-14.16874l9.36965,1.5997l-0.45706,-7.54142z" fill="#3f00ff" stroke="#2e00b8" stroke-linecap="round"/><g data-paper-data="{&quot;origRot&quot;:0}"><path d="M98.31071,291.4485l27.79067,3.23362l6.59754,43.83967l-14.6617,2.42893l-0.77877,9.96747l-9.86993,0.85105z" data-paper-data="{&quot;origPos&quot;:null}" fill="#ff9b00" stroke="#bb5500" stroke-linecap="butt"/><path d="M117.94254,291.9492c0,0 4.52507,-1.63662 7.61185,-1.41829c7.61714,0.53876 19.81558,3.35823 19.81558,3.35823l7.45915,36.12555c0,0 -13.06291,9.88228 -20.38818,12.35097c-2.44176,0.8229 -6.83435,0.51006 -6.83435,0.51006c0,0 -0.0402,-6.24715 1.29517,-9.80321c1.05403,-2.80686 4.82736,-6.501 4.82736,-6.501c0,0 -5.18126,-0.2458 -7.63316,-1.82772c-3.12973,-2.01924 -6.66906,-7.39981 -6.66906,-7.39981c0,0 2.53059,-7.19763 4.94197,-10.84487c1.00353,-1.51783 3.80829,-2.38997 3.80829,-2.38997c0,0 -2.66447,-1.55641 -3.8322,-3.28077c-2.04595,-3.02122 -4.40244,-8.87918 -4.40244,-8.87918z" data-paper-data="{&quot;origPos&quot;:null}" fill="#3f00ff" stroke="#2e00b8" stroke-linecap="butt"/><path d="M256.5688,279.36608c0,0 -18.04963,30.90899 -36.82011,40.33956c-20.17783,10.13764 -80.33034,18.51856 -80.33034,18.51856l-7.03982,-46.77855c0,0 45.23032,-0.78123 66.41349,-1.14712c19.43173,-0.33563 28.44631,-26.88816 28.44631,-26.88816" data-paper-data="{&quot;origPos&quot;:null}" fill="#5c8f99" stroke="#306e7b" stroke-linecap="round"/><path d="M117.58593,341.13328l-3.16038,-25.48008" fill="none" stroke="#bb5500" stroke-linecap="round"/></g><path d="M263.08133,224.54904c0,0 0.16656,14.94155 1.15079,26.26014c0.79949,9.19419 2.50566,26.3013 2.50566,26.3013h-45.24855c0,0 4.87808,-19.58611 5.80626,-32.85356c0.58799,-8.40475 -1.92128,-22.67875 -1.92128,-22.67875c0,0 -22.26455,-11.13667 -13.25462,-19.65341c8.85616,-8.37138 33.82215,15.76843 33.82215,15.76843c0,0 15.23659,-18.40183 22.88698,-11.25038c7.65039,7.15145 -5.74738,18.10622 -5.74738,18.10622z" fill="#00ffce" stroke="#009fb8" stroke-linecap="round"/><g data-paper-data="{&quot;origRot&quot;:0}"><path d="M285.60005,176.48756c10.70879,-9.02377 31.20933,-0.90011 31.20933,-0.90011c0,0 -6.36322,8.79183 -11.87739,13.57379c-2.35876,2.04556 -8.29601,3.92087 -8.29601,3.92087c0,0 4.95751,2.95388 6.25184,5.71324c1.99979,4.26332 2.18892,12.28148 2.18892,12.28148c0,0 -24.89978,0.31115 -35.53229,-11.39253" data-paper-data="{&quot;origPos&quot;:null,&quot;index&quot;:null}" fill="#2e00b8" stroke="#2e00b8" stroke-linecap="round"/><path d="M220.73905,194.90961c-13.20596,8.69648 -37.2484,2.21134 -37.2484,2.21134c0,0 2.17448,-7.71999 5.17039,-11.35311c1.93905,-2.35147 7.47483,-3.98164 7.47483,-3.98164c0,0 -5.28551,-3.29105 -7.06237,-5.85831c-4.15383,-6.00157 -8.13429,-16.09824 -8.13429,-16.09824c0,0 21.87577,-2.77794 30.00806,8.6226" data-paper-data="{&quot;origPos&quot;:null}" fill="#3f00ff" stroke="#2e00b8" stroke-linecap="round"/><path d="M207.56399,161.03581c2.87652,-22.80258 25.21621,-38.76377 49.89709,-35.65031c24.68089,3.11346 32.44114,23.311 34.03876,46.23871c2.08997,29.99377 -19.77466,39.45021 -44.45555,36.33675c-24.68089,-3.11346 -42.35682,-24.12257 -39.4803,-46.92515z" data-paper-data="{&quot;origPos&quot;:null}" fill="#3f00ff" stroke="#2e00b8" stroke-linecap="butt"/><path d="M211.39193,151.23288c0,0 -9.37364,1.71452 -12.18644,0.33905c-7.22057,-3.53089 -14.7545,-14.10288 -14.7545,-14.10288c0,0 7.2667,-1.44488 11.61569,0.02478c3.92788,1.32736 9.59276,7.14226 9.59276,7.14226c0,0 -4.26961,-5.39514 -5.17858,-9.28167c-1.10568,-4.72765 0.01632,-12.79108 0.01632,-12.79108c0,0 7.67146,4.20584 10.83815,8.447c2.58742,3.46534 3.90605,11.29996 3.90605,11.29996c0,0 15.90042,-16.76714 15.40843,-32.25498c-0.48951,-15.40985 -23.554,-31.30966 -23.554,-31.30966c0,0 61.71769,-1.66201 81.55096,18.97282c19.83327,20.63482 1.35718,45.89929 1.35718,45.89929c0,0 5.17982,1.16852 8.41479,0.80057c3.09281,-0.35177 7.79935,-2.64476 7.79935,-2.64476c0,0 -1.67943,6.58448 -3.67798,9.35552c-1.80893,2.50812 -6.67238,6.95974 -6.67238,6.95974" data-paper-data="{&quot;origPos&quot;:null}" fill="#3f00ff" stroke="#2e00b8" stroke-linecap="round"/><path d="M220.57141,155.15496c8.56301,16.03721 -8.77944,55.90143 -8.77944,55.90143c0,0 -13.61337,-46.45026 -4.10133,-57.87184" data-paper-data="{&quot;origPos&quot;:null}" fill="#3f00ff" stroke="#2e00b8" stroke-linecap="round"/><path d="M296.46524,156.09115c7.26904,6.49422 -2.27697,20.78879 -2.27697,20.78879c0,0 -5.75305,-2.31535 -7.82917,-4.25812c-4.91883,-4.6029 -10.09452,-12.51431 -10.09452,-12.51431c0,0 -0.77985,5.58132 -2.47524,8.11817c-2.29375,3.43221 -7.74642,7.1768 -7.74642,7.1768c0,0 -7.68526,-3.89584 -11.5962,-7.36792c-4.94097,-4.38653 -11.08571,-12.76881 -11.08571,-12.76881c0,0 -1.27059,4.8868 -3.30753,7.19681c-3.31295,3.75707 -10.4009,8.34933 -10.4009,8.34933c0,0 -11.55797,-5.81842 -14.34799,-20.46746" data-paper-data="{&quot;origPos&quot;:null}" fill="#3f00ff" stroke="#2e00b8" stroke-linecap="round"/><g data-paper-data="{&quot;origPos&quot;:null}" fill="#ffffff" stroke-linecap="round"><path d="M257.48823,182.96105c0,0 3.27796,6.42536 -2.88031,9.13814c-6.15827,2.71278 -17.2408,-0.2746 -17.2408,-0.2746z" data-paper-data="{&quot;origPos&quot;:null}" stroke="none"/><path d="M236.47398,192.05743c0,0 -17.20938,-11.97182 -2.60755,-22.21925c7.39462,-5.18948 17.49662,-4.54793 22.3349,3.08111c2.56381,4.04266 1.92263,11.84951 1.92263,11.84951" data-paper-data="{&quot;origPos&quot;:null}" stroke="#2e00b8"/></g><path d="M240.06256,179.49408c-0.5509,4.36705 -2.63436,7.70075 -4.65352,7.44604c-2.01918,-0.25472 -3.20944,-4.0014 -2.65855,-8.36845c0.5509,-4.36705 2.63436,-7.70075 4.65352,-7.44604c2.01918,0.25472 3.20944,4.0014 2.65855,8.36845z" fill="url(#color-1)" stroke="none" stroke-linecap="butt"/><g data-paper-data="{&quot;origPos&quot;:null,&quot;index&quot;:null}" fill="#ffffff" stroke-linecap="round"><path d="M282.00258,197.4553c0,0 -7.88369,0.59482 -11.35147,-3.33228c-3.46778,-3.9271 0.02108,-9.49883 0.02108,-9.49883z" data-paper-data="{&quot;origPos&quot;:null}" stroke="none"/><path d="M269.87831,186.25159c0,0 1.20994,-7.73511 3.7335,-11.136c4.76231,-6.41794 11.5139,-4.93343 15.27448,1.66326c7.42587,13.0262 -6.34724,21.08962 -6.34724,21.08962" data-paper-data="{&quot;origPos&quot;:null}" stroke="#2e00b8"/></g><path d="M250.62431,207.59499c0,0 -0.53164,-5.37172 -0.09631,-8.82263c0.29301,-2.32272 1.96259,-5.97158 1.96259,-5.97158c0,0 7.43513,-0.78961 11.94784,-0.22034c4.11454,0.51904 10.15844,3.00902 10.15844,3.00902c0,0 0.65511,4.39295 0.35373,6.78204c-0.42696,3.38454 -2.22,8.01216 -2.22,8.01216c0,0 -5.02335,0.57559 -8.14243,0.18212c-5.50818,-0.69485 -13.96385,-2.9708 -13.96385,-2.9708z" data-paper-data="{&quot;origPos&quot;:null}" fill="#ff9b00" stroke="#bb5500" stroke-linecap="butt"/><path d="M258.85567,203.969l8.33236,1.05112" data-paper-data="{&quot;origPos&quot;:null}" fill="none" stroke="#bb5500" stroke-linecap="round"/><path d="M278.27972,184.44329c-0.5509,4.36705 -2.63436,7.70075 -4.65352,7.44604c-2.01918,-0.25472 -3.20944,-4.0014 -2.65855,-8.36845c0.5509,-4.36705 2.63436,-7.70075 4.65352,-7.44604c2.01918,0.25472 3.20944,4.0014 2.65855,8.36845z" fill="url(#color-2)" stroke="none" stroke-linecap="butt"/></g><g data-paper-data="{&quot;origRot&quot;:0}" stroke-linecap="round"><path d="M160.78129,217.37737c0,0 -23.51508,-3.8533 -22.87598,-9.59107c0.65108,-5.84539 29.71333,-8.91095 29.71333,-8.91095" data-paper-data="{&quot;origPos&quot;:null}" fill="#3f00ff" stroke="#2e00b8"/><path d="M226.42873,223.34411c0,0 -18.77513,3.95073 -30.83857,5.44616c-15.85374,1.96528 -40.69575,3.42148 -40.69575,3.42148l1.75701,-47.31186c0,0 26.77758,3.85024 43.26362,8.37316c13.09393,3.5923 32.53139,12.42108 32.53139,12.42108" data-paper-data="{&quot;origPos&quot;:null}" fill="#00ffce" stroke="#009fb8"/></g><path d="M243.09971,225.64988l1.14264,20.33899" fill="none" stroke="#009fb8" stroke-linecap="round"/><path d="M257.58286,246.94594l-1.14264,-20.339" fill="none" stroke="#009fb8" stroke-linecap="round"/></g></g></svg>