<svg version="1.1" xmlns="http://www.w3.org/2000/svg" xmlns:xlink="http://www.w3.org/1999/xlink" width="557.22477" height="416.16617" viewBox="0,0,557.22477,416.16617"><defs><linearGradient x1="254.92087" y1="-9.6307" x2="254.92087" y2="333.80049" gradientUnits="userSpaceOnUse" id="color-1"><stop offset="0" stop-color="#3d3d3d"/><stop offset="1" stop-color="#000000"/></linearGradient><linearGradient x1="253.99083" y1="282.53547" x2="253.99083" y2="406.53547" gradientUnits="userSpaceOnUse" id="color-2"><stop offset="0" stop-color="#9e9e9e"/><stop offset="1" stop-color="#5a5a5a"/></linearGradient><radialGradient cx="23.67202" cy="236.57916" r="7.99656" gradientUnits="userSpaceOnUse" id="color-3"><stop offset="0" stop-color="#af2525"/><stop offset="1" stop-color="#af2525" stop-opacity="0"/></radialGradient><radialGradient cx="103.58716" cy="266.83145" r="7.99656" gradientUnits="userSpaceOnUse" id="color-4"><stop offset="0" stop-color="#af2525"/><stop offset="1" stop-color="#af2525" stop-opacity="0"/></radialGradient><radialGradient cx="171.71789" cy="223.01035" r="7.99656" gradientUnits="userSpaceOnUse" id="color-5"><stop offset="0" stop-color="#af2525"/><stop offset="1" stop-color="#af2525" stop-opacity="0"/></radialGradient><radialGradient cx="228.90596" cy="246.5287" r="7.99656" gradientUnits="userSpaceOnUse" id="color-6"><stop offset="0" stop-color="#af2525"/><stop offset="1" stop-color="#af2525" stop-opacity="0"/></radialGradient><radialGradient cx="344.17431" cy="242.26953" r="7.99656" gradientUnits="userSpaceOnUse" id="color-7"><stop offset="0" stop-color="#af2525"/><stop offset="1" stop-color="#af2525" stop-opacity="0"/></radialGradient><radialGradient cx="431.66514" cy="238.8521" r="7.99656" gradientUnits="userSpaceOnUse" id="color-8"><stop offset="0" stop-color="#af2525"/><stop offset="1" stop-color="#af2525" stop-opacity="0"/></radialGradient></defs><g transform="translate(24.62156,9.6307)"><g data-paper-data="{&quot;isPaintingLayer&quot;:true}" fill-rule="nonzero" stroke="none" stroke-width="0" stroke-linecap="butt" stroke-linejoin="miter" stroke-miterlimit="10" stroke-dasharray="" stroke-dashoffset="0" style="mix-blend-mode: normal"><path d="M-15.46904,333.80049v-343.43119h540.77982v343.43119z" fill="url(#color-1)"/><path d="M-24.62156,406.53547v-124h557.22477v124z" fill="url(#color-2)"/><path d="M15.67546,236.57916c0,-4.41638 3.58018,-7.99656 7.99656,-7.99656c4.41638,0 7.99656,3.58018 7.99656,7.99656c0,4.41638 -3.58018,7.99656 -7.99656,7.99656c-4.41638,0 -7.99656,-3.58018 -7.99656,-7.99656z" fill="url(#color-3)"/><path d="M95.5906,266.83145c0,-4.41638 3.58018,-7.99656 7.99656,-7.99656c4.41638,0 7.99656,3.58018 7.99656,7.99656c0,4.41638 -3.58018,7.99656 -7.99656,7.99656c-4.41638,0 -7.99656,-3.58018 -7.99656,-7.99656z" fill="url(#color-4)"/><path d="M163.72133,223.01035c0,-4.41638 3.58018,-7.99656 7.99656,-7.99656c4.41638,0 7.99656,3.58018 7.99656,7.99656c0,4.41638 -3.58018,7.99656 -7.99656,7.99656c-4.41638,0 -7.99656,-3.58018 -7.99656,-7.99656z" fill="url(#color-5)"/><path d="M220.9094,246.5287c0,-4.41638 3.58018,-7.99656 7.99656,-7.99656c4.41638,0 7.99656,3.58018 7.99656,7.99656c0,4.41638 -3.58018,7.99656 -7.99656,7.99656c-4.41638,0 -7.99656,-3.58018 -7.99656,-7.99656z" fill="url(#color-6)"/><path d="M336.17775,242.26953c0,-4.41638 3.58018,-7.99656 7.99656,-7.99656c4.41638,0 7.99656,3.58018 7.99656,7.99656c0,4.41638 -3.58018,7.99656 -7.99656,7.99656c-4.41638,0 -7.99656,-3.58018 -7.99656,-7.99656z" fill="url(#color-7)"/><path d="M423.66858,238.8521c0,-4.41638 3.58018,-7.99656 7.99656,-7.99656c4.41638,0 7.99656,3.58018 7.99656,7.99656c0,4.41638 -3.58018,7.99656 -7.99656,7.99656c-4.41638,0 -7.99656,-3.58018 -7.99656,-7.99656z" fill="url(#color-8)"/></g></g></svg>