<svg version="1.1" xmlns="http://www.w3.org/2000/svg" xmlns:xlink="http://www.w3.org/1999/xlink" width="522.03467" height="332.42383" viewBox="0,0,522.03467,332.42383"><defs><radialGradient cx="401.80753" cy="234.26222" r="156.4457" gradientUnits="userSpaceOnUse" id="color-1"><stop offset="0" stop-color="#009933"/><stop offset="1" stop-color="#006622"/></radialGradient><radialGradient cx="428.24164" cy="224.8673" r="101.4797" gradientUnits="userSpaceOnUse" id="color-2"><stop offset="0" stop-color="#009933"/><stop offset="1" stop-color="#006622"/></radialGradient><linearGradient x1="392.0141" y1="255.4203" x2="395.34208" y2="293.5233" gradientUnits="userSpaceOnUse" id="color-3"><stop offset="0" stop-color="#ffffff"/><stop offset="1" stop-color="#ffffff"/></linearGradient><linearGradient x1="373.16662" y1="308.2561" x2="338.7371" y2="291.59706" gradientUnits="userSpaceOnUse" id="color-4"><stop offset="0" stop-color="#ffffff"/><stop offset="1" stop-color="#ffffff"/></linearGradient><linearGradient x1="336.95174" y1="265.25244" x2="368.47899" y2="243.59719" gradientUnits="userSpaceOnUse" id="color-5"><stop offset="0" stop-color="#ffffff"/><stop offset="1" stop-color="#ffffff"/></linearGradient></defs><g transform="translate(-181.30074,-99.97224)"><g data-paper-data="{&quot;isPaintingLayer&quot;:true}" fill-rule="nonzero" stroke-miterlimit="10" stroke-dasharray="" stroke-dashoffset="0" style="mix-blend-mode: normal"><g stroke="none" stroke-width="0.5" stroke-linecap="butt" stroke-linejoin="miter"><path d="M400.62343,258.77492c-0.31788,-0.78606 -0.95624,-1.57929 -1.73727,-2.37113c-0.24427,0.20752 -0.61169,0.39008 -1.36906,0.43571l-1.75523,0.8596c-0.93461,0.48277 -2.94301,0.81664 -5.26988,0.81664c-3.21913,0 -5.82876,-0.63901 -5.82876,-1.42727c0,-0.09806 0.04038,-0.19381 0.1173,-0.28631l0.51246,-0.68157c1.93622,-2.57512 3.72978,-5.15954 5.81053,-7.72785c0.28701,-0.35427 1.767,-2.68922 3.9305,-3.03857l2.38238,-1.26725c0.89632,-0.50586 2.95425,-0.85969 5.34966,-0.85969c1.29347,0 2.48853,0.10317 3.45545,0.27773c12.33366,-3.68364 24.83186,-7.31257 37.95514,-10.8487c7.46357,-2.0111 14.53689,-4.3669 23.47455,-5.98112c0.95666,-0.16157 1.91543,-0.64701 2.86999,-0.4847c3.83169,0.65151 6.96502,1.5705 9.31733,2.55692c1.83916,0.77124 0.42967,3.36678 0.54618,4.27973c0.40566,3.17869 -0.44112,6.54941 2.07399,9.66938c1.50494,1.86685 2.90848,3.739 4.36253,5.60827c0.20858,0.26815 0.44851,0.53659 0.73477,0.802c1.34397,-0.43519 2.94555,-0.86443 3.99128,-1.23999c15.02714,-5.39683 30.38796,-10.73144 45.79513,-16.06354c4.19307,-1.45114 8.61792,-2.86133 12.97352,-4.28339c1.16575,-0.38061 1.56043,-1.17947 3.49726,-1.14182c12.11567,0.23549 13.63313,1.96262 17.97283,3.97872c4.17155,1.93798 7.81427,4.6504 13.58911,6.31311c1.98563,0.57171 5.21353,0.79335 7.66023,1.24537c4.53116,0.8371 9.06231,1.67421 13.59347,2.51131c-0.19279,-0.45413 2.335,-0.74756 3.46163,-1.12376c5.52646,-1.84534 10.97668,-3.70469 16.71286,-5.51135c0,0 5.85898,-1.84458 6.34097,-1.99633c0.92083,-0.2899 1.27368,-0.91423 2.76246,-0.86971c4.54996,0.13608 8.42198,0.88675 12.63296,1.33013c3.08924,1.21033 6.17847,2.42065 9.26771,3.63098c0.55956,0.21922 1.1191,0.43845 1.67866,0.65768c1.97838,-0.53556 6.74568,-1.45367 7.6991,-1.75911c0.5002,-0.16024 5.42276,-2.15884 5.73816,-2.15761c4.61715,0.01821 8.97079,0.64791 12.8766,1.25111c3.11291,0.48075 3.88354,1.53109 5.82531,2.29663c8.11434,3.19908 7.25073,7.79585 7.25073,11.4426c0,4.74698 0.32988,9.47564 0.99199,14.21983c0.23975,1.7179 -1.38002,4.20629 0.81633,5.84915c0.37069,0.27727 2.62947,0.29621 2.64787,0.58792c0.15812,2.50603 -5.51984,4.61461 -7.91723,6.96778c-10.36114,9.78599 -22.19076,19.44812 -27.53298,29.47718c-0.16826,0.3159 -0.32518,0.63192 -0.47171,0.94807c0.42576,0.19821 0.66669,0.42395 0.66669,0.66347v2.66177h-0.06269c-0.20258,2.36015 -0.85909,4.72534 -1.45073,7.07865c-0.1429,0.56837 -0.18055,1.1396 -0.48045,1.7043c-0.14954,0.2816 0.21935,0.72328 -0.86294,0.82527l-0.83235,0.79603c-0.60041,0.63179 -2.91431,1.1025 -5.67719,1.1025c-3.21913,0 -5.82876,-0.63901 -5.82876,-1.42727c0,-0.02048 0.00177,-0.04086 0.00525,-0.06113l0.21448,-1.41799c0.26283,-1.73764 0.45478,-3.47387 0.73251,-5.20783c-6.12412,2.4715 -11.82029,4.92373 -16.77301,7.5918l-2.06266,1.11117c-0.89024,0.50929 -2.95544,0.86611 -5.36097,0.86611c-2.74808,0 -5.05195,-0.46567 -5.66738,-1.09234l-1.4567,-1.35036c-2.33733,-0.50142 -3.64167,-3.37581 -4.46584,-4.13983c-3.47343,-3.21987 -6.94686,-6.43973 -10.42029,-9.6596c-1.98481,-1.83992 -3.96964,-3.67985 -5.95446,-5.51977c-0.45644,-0.42313 -0.9129,-0.84626 -1.36934,-1.26938c-1.10355,0.2844 -3.83365,0.08998 -5.24596,0.34843c-0.69838,0.1278 -0.26409,0.42206 -0.39612,0.63309c-13.53425,4.75256 -28.47692,9.39317 -39.69869,14.49631c-3.14413,1.4298 -5.78454,2.61228 -10.15457,3.85137c-1.2699,0.36007 -1.92694,1.02543 -3.86167,1.06909c-15.62556,0.35263 -16.48291,-3.4096 -19.63298,-6.05422c-5.32418,-4.46989 -11.46586,-8.6764 -18.77974,-12.97463c-1.85343,-1.08923 -3.61435,-2.19362 -5.51893,-3.27924c-1.48258,0.36848 -3.44606,0.71918 -4.54044,1.10201c-4.10452,1.4358 -5.7574,3.09168 -8.16559,4.7428c-5.94653,4.07711 -17.06054,7.68554 -24.99059,11.55347l-1.95818,0.959c-0.93461,0.48277 -2.94301,0.81664 -5.26988,0.81664c-3.21913,0 -5.82876,-0.63901 -5.82876,-1.42727c0,-0.04963 0.01035,-0.09868 0.03054,-0.147l0.52111,-1.40363c-1.32152,-0.4789 1.39846,-2.79515 1.28401,-3.4585c-0.54047,-3.13223 -3.06281,-6.35191 -5.15414,-9.50851c-4.48488,1.34964 -9.46176,2.60684 -13.20434,4.08444l-3.39435,1.38527c-1.00681,0.42757 -2.89268,0.71538 -5.0531,0.71538c-2.77391,0 -5.09525,-0.47448 -5.6843,-1.11008l-0.87627,-0.85829c-1.01581,-0.17625 -0.60391,-0.5915 -0.90586,-0.88726v0c-0.94246,-0.9231 -1.88491,-1.84621 -2.82737,-2.76932c-2.79335,-2.736 -4.76739,-5.63996 -8.48209,-8.30796c-2.36389,-1.69781 -6.08754,-3.3597 -9.02591,-5.00537c-0.69197,-0.38754 -1.38394,-0.77508 -2.0759,-1.16262c-0.2107,0.17072 0.67956,0.37985 0.5141,0.56562c-0.69299,0.77805 -2.4156,1.47876 -3.62342,2.21814v0l-1.40825,0.86208c-0.82657,0.54207 -2.96034,0.92807 -5.4623,0.92807c-3.21913,0 -5.82876,-0.63901 -5.82876,-1.42727c0,-0.10604 0.04721,-0.20937 0.13679,-0.30881l0.88224,-1.08017c-0.9264,-0.30113 0.57082,-0.74109 0.90586,-1.10907c1.70687,-1.87471 3.67965,-3.73756 5.52019,-5.6047c6.0541,-6.1416 9.463,-12.44832 15.4905,-18.57728l-0.05645,-0.0036l0.80346,-0.75507c-0.008,-0.20449 0.06519,-0.39538 0.54117,-0.50857l0.795,-0.7471v-0.57677c-1.20233,-0.29593 -0.1474,-0.80687 0,-1.24749c0.02059,-0.06156 0.02348,-0.12175 0,-0.17979zM405.09756,250.99132l1.56589,1.34202c0.99532,0.13814 1.57696,0.36048 1.96527,0.62378c0.37451,0.01919 0.73582,0.04719 1.08014,0.08306c-2.15408,-1.38951 -4.30338,-2.77953 -6.48072,-4.16685c-0.20764,0.04192 -0.44986,0.08636 -0.72295,0.12917c-0.23646,0.34713 -0.47957,0.69406 -0.72794,1.0408c1.62483,0.17277 2.8653,0.52152 3.3203,0.94802z" fill="#654d2f"/><path d="M498.24756,257.51353c-1.84322,1.35403 -7.37287,0.90269 -7.37287,0.90269l3.68644,0.57091c-7.93388,0.64758 -13.73826,2.10537 -22.24466,2.86654c-3.56002,0.31856 -7.83894,1.11581 -11.07388,0.63216c-3.368,-0.50355 -6.77811,-1.08066 -9.03381,-1.87351c-0.08452,-0.02971 2.07756,-1.4836 2.19777,-1.60184c1.60827,-1.58199 2.69336,-3.13304 4.80365,-4.68328c0,0 1.84322,-1.35403 7.37287,-0.90269c5.52966,0.45134 3.68644,1.80538 3.68644,1.80538c-1.95511,1.43623 -2.91354,2.8538 -4.40878,4.3179c2.61173,-0.2221 4.9863,-0.60719 7.53813,-0.87458c6.46925,-0.67789 10.36937,-1.8141 17.47585,-2.39414l3.68644,-0.57091c0,0 5.52966,0.45134 3.68644,1.80538z" fill="#4d3a24"/><path d="M505.3358,254.01227c-1.53364,1.37698 -7.15702,1.00144 -7.15702,1.00144l-4.03108,-0.18942c-1.44724,-0.23625 -6.84327,-1.1084 -7.88287,-1.32015c-1.7792,-0.36239 -2.27956,-1.05519 -4.28664,-1.3373c-0.55942,-0.07863 -1.35864,-0.07869 -2.1403,-0.07546c-0.20895,0.37698 -1.18765,1.2599 -5.77206,1.2599c-5.82876,0 -5.82876,-1.42727 -5.82876,-1.42727c0,-0.57091 -1.93622,-1.39469 0,-1.71273c15.09755,-2.4799 21.00348,0.38122 32.37704,2.23789l0.63193,-0.18942c0,0 5.62338,0.37554 4.08974,1.75252z" fill="#4d3a24"/><path d="M587.48488,280.4018c-4.38659,0.93987 -8.22485,-0.13427 -8.22485,-0.13427l0.21186,-0.72765c-1.16575,-0.09515 -2.49285,-0.11212 -3.49726,-0.28545c-0.32177,-0.05553 0.58285,-0.28545 0.18918,-0.28545c-1.22882,0 -2.29665,0.34956 -3.49726,0.28545c-3.90539,-0.20853 -7.90052,-0.50524 -11.16924,-1.06858c-0.95331,-0.1643 0,-0.57091 0,-0.85636c0,-0.01843 0,-0.03687 0,-0.05531l-6.00514,-1.17637l4.76975,-1.45994c-4.07281,-0.40235 -8.6088,-1.11124 -11.55245,-1.42015c0,0 -2.67955,-0.2812 -3.43648,-0.90989c-2.71142,1.39951 -5.05352,2.83286 -6.84061,4.28705c-1.2675,1.03139 1.3149,3.74782 4.11376,4.5651c0.29505,0.08616 0.76776,-0.2027 1.20082,-0.16531c1.97196,0.17025 3.56704,0.57485 5.60452,0.6899c11.85116,0.96732 25.20647,1.07519 35.93081,-0.52669c2.51371,-0.37547 6.62723,-0.87246 8.00863,-1.63982c1.42261,-0.79026 0.84748,-2.14627 0.84748,-3.04491l0.01208,-0.00341c-0.4061,-0.07279 -0.63638,-0.12917 -0.63638,-0.12917l1.05361,0.01137l7.1895,-2.02985c0,0 4.12157,1.00924 0,2.01847c-0.12294,0.0301 -0.24588,0.05841 -0.3687,0.085l4.40743,0.04758c0,1.74319 -0.61375,3.33726 -3.81553,4.94782c-1.95525,0.98352 -7.19976,1.69933 -10.80702,2.20016c-13.89845,1.92962 -30.37071,2.00708 -45.50829,0.77152c-14.13014,-1.30661 -22.3745,-5.14232 -18.05642,-8.85791c4.60085,-3.95888 13.94357,-7.8679 23.21007,-11.2715c0,0 3.23322,-1.18757 8.08305,-0.39586c4.84983,0.79171 1.61662,1.97928 1.61662,1.97928c-4.0699,1.49488 -8.04146,3.06748 -11.60176,4.69585c2.18474,-0.17941 4.385,0.05149 4.385,0.05149c3.74153,0.39265 12.0544,1.77883 16.32054,1.71273c0.49367,-0.00765 -1.01395,-0.24775 -0.64203,-0.32762c0.92391,-0.19838 2.55568,-0.09212 3.49726,-0.28545c0.35185,-0.07225 -0.82778,-0.188 -0.67511,-0.29404c0.46586,-0.32355 1.49697,-0.58079 2.33151,-0.85636c0.46516,-0.1536 6.93012,-2.12979 7.58073,-2.32893l4.25884,-1.61243c0,0 5.34006,-0.57208 7.67634,0.73553c2.33629,1.30761 -3.0038,1.87969 -3.0038,1.87969l0.1716,0.78043c-5.68981,1.74156 -9.94016,3.76215 -17.71455,4.57161c0.03423,0.06257 0.05188,0.12641 0.05188,0.19127c0,0.55163 0,1.10327 0,1.6549c3.59751,0.02712 8.20434,0.26968 10.00349,0.41653l4.87488,1.55599c0,0 3.83826,1.07413 -0.54832,2.014z" fill="#4d3a24"/><path d="M644.7538,290.02597c0.84454,0.2444 2.56939,0.78148 3.41754,1.31698c2.27585,-0.91065 4.64569,-1.81107 7.24459,-2.70176c-3.61824,-0.09582 -7.21533,-0.24513 -10.81327,-0.40081c1.29189,0.51493 0.6548,1.13893 0.6548,1.13893c-0.20988,0.20557 -0.37113,0.42674 -0.50368,0.64666zM644.26577,292.74405h-3.49726c-3.05066,-0.59115 -6.98477,-0.98233 -9.152,-1.77344c-1.78507,-0.65161 1.55434,-1.52243 2.33151,-2.28364c0,0 0.49241,-0.48232 2.05853,-0.80646c-4.20501,-0.15836 -8.43487,-0.27465 -12.72433,-0.27465c0,0 -1.99341,0 -3.64871,-0.28545h-9.17457c0,-1.02642 0.06948,-1.46897 -0.99173,-2.50838c-1.95828,-2.17488 -2.68983,-3.22131 4.48899,-5.1989c0.77448,-0.21335 2.33176,-0.00591 3.49726,0c4.91647,0.02492 8.80365,0.354 13.55136,0.58209c11.8696,0.57024 23.84596,0.73561 35.65819,1.45871c8.55122,0.52348 13.5633,0.39001 16.69691,3.25026c0.42718,0.38991 -2.32554,0.57238 -3.49726,0.85636c-3.38019,0.81926 -6.28066,1.7308 -9.15368,2.65365c-0.46201,0.33589 -1.25223,0.54866 -2.1234,0.68234c-0.29965,0.09586 -0.60022,0.19162 -0.90218,0.2872c-3.27322,1.03605 -7.25816,2.06217 -10.12596,3.16589c-7.92801,3.05123 -14.95099,10.46511 -35.22021,7.71987c-2.3589,-0.31949 -1.46969,-1.27018 -2.20451,-1.90527c-3.24261,-2.80245 -4.8988,-5.62725 -7.22907,-8.48027c0,0 -1.14311,-1.39956 4.57246,-1.67947c5.71557,-0.27991 6.85868,1.11965 6.85868,1.11965c1.86852,2.2877 2.79,4.65203 5.42504,6.88873c0,0 1.33336,1.15236 2.13179,1.84241c0.48689,-0.01016 0.93496,-0.03376 1.20492,-0.09978c0.60458,-0.14785 -0.13516,-0.43569 0.2266,-0.62524c0.8226,-0.43101 2.22367,-0.78107 3.23322,-1.18757c2.74649,-1.10587 5.30404,-2.19666 7.88753,-3.27315c-1.75674,0.16983 -0.1781,-0.12547 -0.1781,-0.12547zM623.28221,284.75131c13.45927,0 26.41193,1.14182 39.6356,1.14182l0.56504,0.10139c1.33775,-0.43382 2.70618,-0.86026 4.15076,-1.26018c0.07776,-0.02153 0.15607,-0.04293 0.23488,-0.06422c-1.34428,-0.08229 -2.68855,-0.16459 -4.03285,-0.24688c-10.12969,-0.62011 -20.28736,-0.96425 -30.63088,-1.28313c-4.49731,-0.13865 -8.7379,-0.52028 -13.17336,-0.69634c0.41692,0.39175 -0.01923,1.06253 0.74529,1.67592c0.24747,0.24238 0.45084,0.478 0.61755,0.71014c1.04489,-0.07852 1.88798,-0.07852 1.88798,-0.07852z" fill="#4d3a24"/><path d="M460.4206,274.0259c-0.64165,0.3343 -1.14053,0.6669 -1.63798,1.03175c0.12844,0.16146 0.12844,0.27364 0.12844,0.27364c0,3.42546 0,6.85092 0,10.27638c0,1.18026 0,2.36052 0,3.54079c1.71221,0.06482 3.17668,0.4734 0.97893,-0.05067c2.90711,-1.06779 1.35258,-2.52086 1.35258,-4.06102c0,-2.7594 0,-5.5188 0,-8.27819c0,-1.03906 -0.09389,-1.85568 -0.82197,-2.73267zM447.25354,277.62267c-4.00639,-0.66623 -1.71615,-1.78784 -1.71615,-1.78784l0.66033,-0.53044c2.14732,-1.57743 3.95095,-2.9165 8.05034,-4.25491c4.56332,-0.2456 9.0202,-0.77438 13.68992,-0.7368c1.22814,0.00988 0.77716,0.57091 1.16575,0.85636c1.75063,1.28603 3.79637,2.50653 3.79637,3.8768c0,3.33031 0,6.66062 0,9.99092c0,1.93367 1.23313,3.97558 -3.31043,5.64444c-7.60623,1.91132 -11.13928,2.47473 -22.33613,0.63557c-0.96811,-0.15902 0,-0.57091 0,-0.85636c0,-1.04667 0,-2.09334 0,-3.14c0,-3.23258 0,-6.46516 0,-9.69774z" fill="#4d3a24"/><path d="M620.86004,261.69332c0.1674,-0.24781 0.47082,-0.53896 0.78579,-0.80683c1.23446,-0.04882 4.17619,-0.20996 4.50934,-0.26626c0.66075,-0.11166 1.23085,-0.24996 1.77651,-0.39543c-4.03994,-0.05682 -8.29937,-0.61379 -10.81397,-1.25408c-0.54208,-0.13803 -1.21443,-2.17821 -1.5245,-2.48812c-0.69565,-0.6953 -5.08716,-2.06385 -4.69845,-2.6845c0.19517,-0.31163 3.53869,-0.13582 3.39903,-0.44923c-0.23653,-0.53079 -4.36903,0.01789 -6.53251,0.0846c-6.10337,0.1882 -11.68397,0.5048 -17.48277,0.97614c-0.61503,0.05404 -1.27792,0.08348 -1.96891,0.08348c-0.07477,0 -0.14922,-0.00034 -0.22331,-0.00103c-1.72839,-0.00013 -4.08874,-0.15537 -5.22754,-0.91959c-0.05579,-0.03597 -0.1058,-0.07263 -0.14978,-0.10992c-0.59628,-0.4818 -0.24747,-0.84587 0.43256,-1.1137l3.32484,-2.44244l11.05931,0.90269l-0.22742,0.16706c2.79956,-0.14997 5.63576,-0.26987 8.54651,-0.35839c2.5765,-0.07835 5.69647,-0.50001 7.77375,-0.11865c8.5974,1.57839 12.23341,4.13477 14.03984,6.59446c0.03122,0.04251 0.07601,0.08613 0.13059,0.13057c0.80759,0.03189 1.86455,0.15142 2.61248,0.12382c1.51872,-0.05603 3.23583,-0.80662 5.02656,-0.49799c11.49083,1.98037 8.49491,2.77177 2.46753,4.93236c-7.58373,1.85701 -11.64191,1.8966 -21.06639,0.85636l-2.33151,-0.57091c0,0 3.71024,-0.28055 6.3624,-0.37447zM621.69852,260.84198c0.51501,-0.4322 1.04225,-0.79266 1.04225,-0.79266l2.33151,0.57091c-1.72268,0.10721 -2.78669,0.17808 -3.37376,0.22175zM621.64582,260.88648c-0.63867,0.02526 -0.82034,0.02045 0.05267,-0.0445c-0.01758,0.01475 -0.03514,0.02959 -0.05267,0.0445z" fill="#4d3a24"/></g><g stroke-linejoin="miter"><path d="M266.65842,121.25285c17.4518,-2.39109 34.18325,2.14179 47.11626,11.39718c12.93394,9.25527 22.07019,23.23185 24.33029,39.72761c2.26009,16.49575 -2.78013,32.41482 -12.74801,44.80789c-9.96698,12.39278 -24.86261,21.25891 -42.31441,23.65c-17.45164,2.39107 -34.18325,-2.14178 -47.11624,-11.39702c-12.93393,-9.25527 -22.07021,-23.23201 -24.33031,-39.72776c-2.2601,-16.49575 2.78015,-32.41467 12.74802,-44.80775c9.96696,-12.39294 24.86275,-21.25909 42.31439,-23.65015z" data-paper-data="{&quot;origRot&quot;:0}" id="ID0.6853013150393963" fill="#ffffff" stroke="#000000" stroke-width="4.90582" stroke-linecap="butt"/><path d="M299.78425,137.11963c11.40712,0.42114 26.31552,16.10922 27.65042,20.09361c1.08851,3.30846 -14.17145,-3.63237 -21.04931,-2.96573c-7.2708,0.5447 -13.5491,5.79355 -20.33141,6.50814c-5.83366,0.61849 -11.59513,-3.9457 -17.37137,-2.93776c-5.06363,0.88907 -7.93309,6.46579 -12.73749,7.59489c-4.90114,1.15108 -10.73652,-2.90218 -15.44786,-0.54239c-3.25272,1.26166 -2.71932,6.55293 -4.48513,9.60647c-2.93968,5.12114 -10.74851,8.29402 -9.83876,13.57916c2.09913,12.35724 9.82174,23.0565 17.70296,32.52743c6.26898,7.52778 25.74336,17.02874 24.73026,17.83478c-1.45855,0.46273 -25.84642,-4.67638 -34.622,-12.75714c-10.10913,-9.31727 -17.57585,-22.7077 -19.26508,-36.51925c-1.65136,-13.49187 -0.85844,-31.57208 10.42772,-38.67993c21.3451,-13.43544 49.40623,-15.33964 74.63706,-13.34226z" data-paper-data="{&quot;origRot&quot;:0}" id="ID0.4079975080676377" fill="#e5e5e5" stroke="none" stroke-width="0.61935" stroke-linecap="round"/><path d="M266.11787,120.15606c17.4518,-2.39109 34.18325,2.14179 47.11626,11.39719c12.93394,9.25527 22.07019,23.23185 24.33029,39.72761c2.26009,16.49575 -2.78014,32.41482 -12.74801,44.80789c-9.96698,12.39278 -24.86261,21.25891 -42.31441,23.65c-17.45164,2.39107 -34.18325,-2.14178 -47.11623,-11.39702c-12.93393,-9.25527 -22.07021,-23.23201 -24.33031,-39.72776c-2.2601,-16.49575 2.78016,-32.41468 12.74803,-44.80776c9.96696,-12.39294 24.86275,-21.25909 42.31439,-23.65015z" data-paper-data="{&quot;origRot&quot;:0}" id="ID0.6853013150393963" fill="none" stroke="#000000" stroke-width="4.90582" stroke-linecap="butt"/><path d="M224.76094,125.39341c1.94478,-1.64135 3.54599,-3.86131 5.7277,-5.03914c3.1729,-1.70423 6.66401,-2.78578 9.95308,-4.26425c3.92347,-1.76351 7.71489,-3.86191 11.70354,-5.47106c3.27891,-1.32239 6.7254,-2.21126 10.08309,-3.31526c3.35769,-1.10401 6.60822,-2.67572 10.0831,-3.31526c3.43286,-0.63176 6.99433,-0.7794 10.47319,-0.46814c3.68646,0.33043 7.42484,0.99204 10.86329,2.37915c6.76319,2.72829 12.97954,6.72936 19.55582,9.89024c3.33071,1.60123 6.99118,2.53844 10.18309,4.40612c3.09717,1.81198 6.53997,3.58065 8.56249,6.56193c2.17494,3.20503 3.50345,7.25212 3.44106,11.13117c-0.07313,4.64033 1.03553,14.06066 -3.73826,15.01539c-7.07503,1.19759 -12.90281,-7.4978 -19.919,-9.74368c-3.53967,-1.14719 -7.2547,0.81601 -10.88479,0.95961c-3.54393,-0.02509 -7.07577,-0.89858 -10.51068,-0.1554c-3.566,0.38804 -6.59481,3.00374 -10.16415,3.42316c-3.57763,0.42055 -7.14523,-1.76221 -10.73327,-1.43016c-3.8282,0.35434 -7.41273,2.117 -11.02335,3.44409c-3.3835,1.24382 -6.40885,3.61241 -9.95305,4.26442c-3.4749,0.63939 -7.09583,-0.88429 -10.60323,-0.48102c-2.29611,0.23809 -3.27269,1.37462 -4.48827,2.54871c-2.69139,2.42242 -4.40201,5.19285 -7.1733,7.0742c-5.04563,3.42469 -10.27209,9.70323 -15.33417,8.33735c-4.08666,-0.90989 -2.63724,-8.41129 -2.96328,-12.88874c-0.26462,-3.55278 0.09686,-7.15169 0.45016,-10.69735c0.29991,-3.07625 0.42947,-6.04578 1.99125,-8.53979c1.07572,-2.42632 3.57516,-3.8294 5.56212,-5.54803c2.98985,-2.62879 5.71104,-5.5116 8.85585,-8.07826z" data-paper-data="{&quot;origRot&quot;:0}" id="ID0.6779168676584959" fill="#1f0f03" stroke="#0d0601" stroke-width="6.78139" stroke-linecap="round"/><path d="" data-paper-data="{&quot;origRot&quot;:0}" id="ID0.2091269358061254" fill="#ffffff" stroke="none" stroke-width="1" stroke-linecap="butt"/></g><path d="M225.22929,430.64607l-5.0057,-2.6162l24.58323,-90.72208" data-paper-data="{&quot;origRot&quot;:0,&quot;index&quot;:null}" id="ID0.6604248438961804" fill="none" stroke="#000000" stroke-width="3.5" stroke-linecap="round" stroke-linejoin="miter"/><path d="M257.7314,239.06471l7.15026,-0.24321l-16.67602,106.24329l-14.31121,-3.46854z" data-paper-data="{&quot;origRot&quot;:0}" id="ID0.345300517976284" fill="#000000" stroke="none" stroke-width="0.33954" stroke-linecap="round" stroke-linejoin="miter"/><g><path d="M428.10887,213.7769l9.0967,115.64707l-165.03122,-4.65861l-7.04759,-80.69284z" id="ID0.6427145460620522" fill="url(#color-1)" stroke="#006622" stroke-width="3" stroke-linecap="round" stroke-linejoin="miter"/><path d="M433.52772,207.24635l11.05003,126.5184l-11.9545,1.04406l-11.05002,-126.51829z" id="ID0.4101495463401079" fill="url(#color-2)" stroke="#006622" stroke-width="3" stroke-linecap="butt" stroke-linejoin="miter"/><g id="ID0.49767216527834535" stroke-width="1.58268" stroke-linecap="round"><path d="M389.12593,261.7626l3.25771,3.95199l1.74205,13.88141l-2.53368,7.37038l-4.47763,3.3037l1.39537,3.84995l-10.79915,-5.4117l-0.24447,-11.8939l2.35471,2.70696l6.72778,-4.82412l-13.01619,-6.54189l5.34276,-11.58753l9.6792,4.71508z" id="ID0.37119657220318913" fill="#ffffff" stroke="url(#color-3)" stroke-linejoin="round"/><path d="M369.19888,302.52681l-5.06286,0.7737l-12.8143,-5.61431l-5.03234,-5.95137l-0.5439,-5.5378l-4.02122,-0.77356l10.17944,-6.50295l10.34034,5.8824l-3.53105,0.6357l0.69705,8.24928l12.28579,-7.82813l7.21529,10.52408l-9.00749,5.89793z" id="ID0.37119657220318913" fill="#ffffff" stroke="url(#color-4)" stroke-linejoin="round"/><path d="M343.89416,264.64405l1.83607,-4.78122l11.22499,-8.35025l7.66269,-1.42317l5.07998,2.27085l2.66404,-3.10985l0.60623,12.06399l-10.23231,6.06827l1.19694,-3.38216l-7.51126,-3.48107l0.71394,14.55023l-12.71642,1.0542l-0.66111,-10.74628z" id="ID0.37119657220318913" fill="#ffffff" stroke="url(#color-5)" stroke-linejoin="round"/><path d="M386.90889,260.63231c0,0 4.81573,2.96914 5.76051,5.32206c1.49244,3.72382 1.93729,7.93854 1.84408,12.01898c-0.01983,2.871 -0.91952,5.67313 -2.20201,8.13592c-0.66845,1.37481 -3.73514,2.7092 -3.73514,2.7092" id="ID0.05048625357449055" fill="none" stroke="#ffffff" stroke-linejoin="miter"/><path d="M369.41503,301.6725c0,0 -5.18003,2.27469 -7.653,1.71469c-3.91216,-0.88864 -7.63263,-2.9181 -10.93703,-5.31407c-2.3508,-1.64807 -4.14495,-3.981 -5.44225,-6.436c-0.7513,-1.33139 -0.10619,-4.61302 -0.10619,-4.61302" id="ID0.05048625357449055" fill="none" stroke="#ffffff" stroke-linejoin="miter"/><path d="M343.71223,267.56459c0,0 -0.05823,-5.65721 1.42784,-7.71169c2.35329,-3.24897 5.68048,-5.87395 9.18144,-7.97227c2.43878,-1.51497 5.28879,-2.24913 8.05592,-2.47833c1.51957,-0.16821 4.28429,1.71358 4.28429,1.71358" id="ID0.05048625357449055" fill="none" stroke="#ffffff" stroke-linejoin="miter"/></g></g><path d="M271.66772,300.58092c0,0 -35.77532,-15.18893 -42.35441,-28.19089c-5.94878,-11.7563 25.54612,-30.4867 25.54612,-30.4867" data-paper-data="{&quot;origRot&quot;:0}" id="ID0.26897449884563684" fill="none" stroke="#000000" stroke-width="3.5" stroke-linecap="round" stroke-linejoin="miter"/><path d="M187.60553,416.0608l-4.01007,-3.97754l56.15012,-77.77046" data-paper-data="{&quot;origRot&quot;:0,&quot;index&quot;:null}" id="ID0.6604248438961804" fill="none" stroke="#000000" stroke-width="3.5" stroke-linecap="round" stroke-linejoin="miter"/><path d="M291.13346,309.8067l16.48744,25.02261" data-paper-data="{&quot;origRot&quot;:0}" id="ID0.26897449884563684" fill="none" stroke="#000000" stroke-width="3.5" stroke-linecap="round" stroke-linejoin="miter"/><path d="M260.875,177.09495l18.25,14.25l-14.25,1" data-paper-data="{&quot;index&quot;:null}" fill="none" stroke="#000000" stroke-width="2" stroke-linecap="round" stroke-linejoin="miter"/><path d="M307.375,189.84495l-14.25,-1l18.25,-14.25" data-paper-data="{&quot;index&quot;:null}" fill="none" stroke="#000000" stroke-width="2" stroke-linecap="round" stroke-linejoin="miter"/><path d="M278.875,214.59495l-24.75,1.25c0,0 -7.08601,-15.49871 2.25,-20c9.33601,-4.50129 25.75,6.5 25.75,6.5" fill="none" stroke="#000000" stroke-width="2" stroke-linecap="round" stroke-linejoin="miter"/><path d="M269.875,207.34495l-18.25,-1.75" fill="none" stroke="#000000" stroke-width="2" stroke-linecap="round" stroke-linejoin="miter"/><path d="M282.875,177.34495v-8" fill="none" stroke="#000000" stroke-width="2" stroke-linecap="round" stroke-linejoin="miter"/><path d="M285.625,174.84495v-5.75" fill="none" stroke="#000000" stroke-width="2" stroke-linecap="round" stroke-linejoin="miter"/></g></g></svg>