<svg version="1.1" xmlns="http://www.w3.org/2000/svg" xmlns:xlink="http://www.w3.org/1999/xlink" width="486.99005" height="316.00797" viewBox="0,0,486.99005,316.00797"><defs><linearGradient x1="327.43833" y1="149.51467" x2="257.98111" y2="172.75662" gradientUnits="userSpaceOnUse" id="color-1"><stop offset="0" stop-color="#fde6d9"/><stop offset="1" stop-color="#f7d9c8"/></linearGradient><linearGradient x1="563.06172" y1="67.08445" x2="71.85703" y2="231.45259" gradientUnits="userSpaceOnUse" id="color-2"><stop offset="0" stop-color="#000000"/><stop offset="1" stop-color="#000000" stop-opacity="0"/></linearGradient><linearGradient x1="263.39309" y1="164.09875" x2="245.54261" y2="167.06075" gradientUnits="userSpaceOnUse" id="color-3"><stop offset="0" stop-color="#f7dac9"/><stop offset="1" stop-color="#fde6d9"/></linearGradient><linearGradient x1="405.1591" y1="146.77239" x2="374.21493" y2="164.9557" gradientUnits="userSpaceOnUse" id="color-4"><stop offset="0" stop-color="#d2a991"/><stop offset="1" stop-color="#fde6d9"/></linearGradient><linearGradient x1="447.05183" y1="125.64829" x2="389.36974" y2="169.09392" gradientUnits="userSpaceOnUse" id="color-5"><stop offset="0" stop-color="#f7d9c8"/><stop offset="1" stop-color="#fde6d9"/></linearGradient><linearGradient x1="1792.66097" y1="-868.24674" x2="-628.34936" y2="955.23586" gradientUnits="userSpaceOnUse" id="color-6"><stop offset="0" stop-color="#2a221e"/><stop offset="1" stop-color="#2a221e" stop-opacity="0"/></linearGradient><radialGradient cx="394.66295" cy="142.74792" r="7.94614" gradientUnits="userSpaceOnUse" id="color-7"><stop offset="0" stop-color="#fbe2d4"/><stop offset="1" stop-color="#f6d8c8"/></radialGradient><radialGradient cx="412.69621" cy="181.09386" r="9.34604" gradientUnits="userSpaceOnUse" id="color-8"><stop offset="0" stop-color="#ffffff"/><stop offset="1" stop-color="#e7e7e7"/></radialGradient><linearGradient x1="350.36978" y1="199.73716" x2="358.64482" y2="272.51092" gradientUnits="userSpaceOnUse" id="color-9"><stop offset="0" stop-color="#fde6d9"/><stop offset="1" stop-color="#f7d9c8"/></linearGradient><linearGradient x1="318.79113" y1="-47.88333" x2="377.31259" y2="466.77595" gradientUnits="userSpaceOnUse" id="color-10"><stop offset="0" stop-color="#000000"/><stop offset="1" stop-color="#000000" stop-opacity="0"/></linearGradient><linearGradient x1="448.80861" y1="316.65381" x2="445.28552" y2="326.41333" gradientUnits="userSpaceOnUse" id="color-11"><stop offset="0" stop-color="#bbdaff" stop-opacity="0"/><stop offset="1" stop-color="#bbdaff"/></linearGradient><linearGradient x1="441.7643" y1="332.92034" x2="445.79842" y2="321.74516" gradientUnits="userSpaceOnUse" id="color-12"><stop offset="0" stop-color="#bbdaff" stop-opacity="0"/><stop offset="1" stop-color="#bbdaff"/></linearGradient><linearGradient x1="452.00769" y1="314.29442" x2="446.12584" y2="331.73817" gradientUnits="userSpaceOnUse" id="color-13"><stop offset="0" stop-color="#005eff"/><stop offset="1" stop-color="#005eff" stop-opacity="0"/></linearGradient><linearGradient x1="452.00769" y1="314.29442" x2="446.12584" y2="331.73817" gradientUnits="userSpaceOnUse" id="color-14"><stop offset="0" stop-color="#00f7ff" stop-opacity="0"/><stop offset="1" stop-color="#00f7ff"/></linearGradient><linearGradient x1="338.53689" y1="285.94841" x2="351.6568" y2="286.43436" gradientUnits="userSpaceOnUse" id="color-15"><stop offset="0" stop-color="#f7dac9"/><stop offset="1" stop-color="#fde6d9"/></linearGradient><linearGradient x1="336.95126" y1="293.79966" x2="344.78476" y2="296.48732" gradientUnits="userSpaceOnUse" id="color-16"><stop offset="0" stop-color="#f7dac9"/><stop offset="1" stop-color="#fde6d9"/></linearGradient><linearGradient x1="354.83038" y1="266.94388" x2="349.17785" y2="284.13288" gradientUnits="userSpaceOnUse" id="color-17"><stop offset="0" stop-color="#f7dac9"/><stop offset="1" stop-color="#fde6d9"/></linearGradient></defs><g transform="translate(-46.95575,-110.7059)"><g data-paper-data="{&quot;isPaintingLayer&quot;:true}" fill-rule="nonzero" stroke-linejoin="miter" stroke-miterlimit="10" stroke-dasharray="" stroke-dashoffset="0" style="mix-blend-mode: normal"><g stroke="none" stroke-width="0" stroke-linecap="butt"><path d="M259.55606,160.92603l8.52558,-2.85284l4.12985,12.34182l-8.46086,2.39607c0,0 -2.47382,-0.26698 -3.19923,-2.43479c-0.48005,-1.43461 -0.99534,-9.4502 -0.99534,-9.4502z" data-paper-data="{&quot;origPos&quot;:null}" fill="#000000"/><path d="M289.54979,166.59635c-11.17899,2.11036 -19.68251,4.89935 -28.85037,3.89133c-4.90717,-0.53958 -5.79073,-3.49353 -1.99598,-6.66394c7.28504,-6.08642 18.94592,-9.01939 29.07545,-11.88489c9.08285,-2.5694 10.31478,-5.98978 28.77403,-10.30509c11.79539,-3.12539 16.55848,20.21975 4.59274,22.5819c-11.96572,2.36215 -20.41685,0.27033 -31.59583,2.38068z" data-paper-data="{&quot;origPos&quot;:null}" fill="url(#color-1)"/><g data-paper-data="{&quot;origPos&quot;:null}"><path d="M261.56664,160.95855l6.48192,-2.92233l4.34607,12.33772l-9.6917,2.54139c0,0 2.3669,-3.09994 1.73912,-6.12175z" data-paper-data="{&quot;origPos&quot;:null}" fill="url(#color-2)"/><path d="M263.84326,159.31484c0,0 36.40758,-14.98119 50.69247,-17.31021c8.70968,-1.42003 11.52071,-0.92112 13.35392,7.48103c1.96897,7.90317 -0.90007,12.67057 -6.37834,15.07511c-5.47829,2.40453 -58.34311,7.88903 -58.34311,7.88903c0,0 5.04391,-2.16954 4.36713,-5.58858c-0.71838,-3.62896 -3.69205,-7.54635 -3.69205,-7.54635z" data-paper-data="{&quot;origPos&quot;:null,&quot;origRot&quot;:0}" fill="#1e4994"/></g></g><g data-paper-data="{&quot;origRot&quot;:0}" stroke="none" stroke-width="0" stroke-linecap="butt"><path d="M368.01369,167.09585c-9.44888,3.29048 -11.45419,0.5779 -21.43421,-0.30142c-23.76348,-2.09378 -22.87924,-2.30989 -30.82997,-4.81219c-9.66668,-3.04234 -4.26765,-22.12793 5.87119,-21.2279c5.595,0.49667 18.68196,-0.51218 24.27456,0.00755c19.14449,1.77913 31.583,9.88639 34.37465,16.79198c2.94357,7.28139 -7.42339,7.85898 -12.25625,9.542z" data-paper-data="{&quot;origPos&quot;:null,&quot;origRot&quot;:0}" fill="#2152a6"/><path d="M379.6933,155.41884c-5.9852,0.95708 -12.84271,2.47046 -17.72544,2.01754c-16.87118,-1.56498 -33.71091,-3.40456 -50.54612,-5.28446c0.76458,-5.82102 5.01354,-11.84676 10.81367,-11.33187c5.595,0.49667 18.68196,-0.51218 24.27457,0.00756c17.1393,1.59278 28.90384,8.25753 33.18337,14.59123z" data-paper-data="{&quot;origPos&quot;:null,&quot;origRot&quot;:0}" fill="#000000"/></g><g stroke="none" stroke-width="0" stroke-linecap="butt"><g data-paper-data="{&quot;origPos&quot;:null,&quot;origRot&quot;:0}" fill="#fde6d9"><path d="M249.87173,169.15707c0.92013,-0.47348 1.6369,2.00633 1.6369,2.00633c0.29037,1.1731 0.51047,2.09767 -0.65452,2.41912c-1.21128,0.33426 -3.19172,0.80235 -4.45678,1.11549c-2.78977,0.69056 -4.61843,0.47258 -4.99134,-1.03392c-0.3729,-1.50647 0.55361,-2.40644 3.34339,-3.097c2.78977,-0.69056 3.23464,-0.43865 5.12237,-1.41007z" data-paper-data="{&quot;origPos&quot;:null}"/><path d="M242.98313,171.28394c0.82638,-0.08129 1.0877,1.59547 1.0877,1.59547c0.21343,0.86228 0.72974,1.85373 -0.17705,2.15246c-1.01226,0.33347 -3.34512,0.53313 -4.37967,0.78922c-2.26203,0.55994 -5.09213,1.17689 -5.31586,0.12754c-0.38852,-1.82223 1.61959,-3.34043 3.88162,-3.90035c2.26203,-0.55994 3.61472,-0.63756 4.90326,-0.76432z" data-paper-data="{&quot;origPos&quot;:null}"/></g><g data-paper-data="{&quot;origPos&quot;:null,&quot;origRot&quot;:0}" fill="#ead0c0"><path d="M249.11332,159.53286c0.7653,0.41739 0.3394,1.78436 0.3394,1.78436c-0.22005,1.75237 -1.60382,9.78507 -2.53548,8.4125c-1.35469,-1.99577 -4.04158,-5.68547 -5.86251,-5.86039c-1.05001,-0.10089 -1.96401,-0.74169 -3.01716,-0.81507c-1.75224,-0.12211 -2.83246,-0.83889 -2.61338,-2.7546c0.24442,-2.1373 0.84443,-1.78981 2.71076,-2.2144c0.6035,-0.13729 3.02696,-0.12061 3.63179,-0.0625c4.42002,0.42466 5.0997,0.28466 7.34658,1.51012z" data-paper-data="{&quot;origRot&quot;:0,&quot;origPos&quot;:null}"/><path d="M235.83591,158.76633c0.5919,-0.38382 1.70295,0.41623 1.70295,0.41623c1.51626,0.79697 3.2544,1.25087 1.71135,2.82137c-1.16312,1.18383 -1.80566,2.44645 -2.4771,3.65975c-0.24298,0.43904 -0.71925,1.70002 -0.9082,2.16727c-0.56329,1.39281 -1.80397,1.20297 -3.26838,0.28248c-1.15337,-0.72496 -1.82372,-1.80194 -0.19392,-4.747c1.62979,-2.94506 1.69548,-3.47324 3.4333,-4.6001z" data-paper-data="{&quot;origRot&quot;:0,&quot;origPos&quot;:null}"/><path d="M232.18848,164.23956c0.38927,-0.50683 1.77115,-0.27863 1.77115,-0.27863c1.75959,0.08269 1.90745,0.53936 2.16495,1.55799c0.29673,1.17384 -0.1069,2.55749 -0.45873,4.36444c-0.35185,1.80694 -2.09785,2.57025 -2.93181,2.29939c-0.77957,-0.25317 -1.87395,-0.19162 -1.61082,-3.05202c0.26311,-2.86042 -0.07755,-3.40313 1.06531,-4.89118z" data-paper-data="{&quot;origRot&quot;:0,&quot;origPos&quot;:null}"/></g><g data-paper-data="{&quot;origPos&quot;:null,&quot;origRot&quot;:0}" fill="#efd6c8"><path d="M250.73342,159.92155c0.89425,0.36927 0.57219,1.76495 0.57219,1.76495c-0.05156,1.76845 -2.56764,9.06869 -3.75126,7.75368c-1.72097,-1.9121 -3.24101,-4.60527 -5.27898,-4.66467c-1.17516,-0.03425 -2.25884,-0.61774 -3.43448,-0.62429c-1.95605,-0.01087 -3.23232,-0.65987 -3.19976,-2.5918c0.0363,-2.15543 0.73968,-1.84564 2.76216,-2.38937c0.65397,-0.17582 3.34261,-0.31316 4.01952,-0.29342c4.94687,0.14423 5.68505,-0.03917 8.31058,1.04495z" data-paper-data="{&quot;origRot&quot;:0,&quot;origPos&quot;:null}"/><path d="M237.10737,159.49429c0.75686,-0.19021 1.48915,1.0296 1.48915,1.0296c1.13287,1.35889 2.63964,2.43989 0.40856,3.52676c-1.68174,0.81925 -2.88633,1.90305 -4.09704,2.92549c-0.43809,0.36998 -1.47819,1.51042 -1.87584,1.92858c-1.18546,1.2466 -2.32172,0.61411 -3.34761,-0.85466c-0.80796,-1.15679 -0.9808,-2.50902 1.95803,-4.99085c2.93881,-2.48183 3.24266,-3.00651 5.46476,-3.56491z" data-paper-data="{&quot;origRot&quot;:0,&quot;origPos&quot;:null}"/><path d="M229.78151,165.21277c0.29368,-0.64898 1.70538,-0.60004 1.70538,-0.60004c1.7597,-0.17893 1.98946,0.32794 2.43029,1.46981c0.50799,1.31587 0.35976,2.98465 0.33998,5.13654c-0.0198,2.15191 -1.59537,4.05245 -2.47159,3.86842c-0.81903,-0.17201 -1.90952,-0.67159 -2.16956,-4.03217c-0.26005,-3.36057 -0.69664,-3.93715 0.16554,-5.84259z" data-paper-data="{&quot;origRot&quot;:0,&quot;origPos&quot;:null}"/></g><g data-paper-data="{&quot;origPos&quot;:null,&quot;origRot&quot;:0}" fill="#f6ded1"><path d="M250.82706,160.54109c0.87346,0.41611 0.47796,1.79278 0.47796,1.79278c-0.14512,1.76327 -3.04426,8.91999 -4.15656,7.54415c-1.61731,-2.00053 -2.99261,-4.77043 -5.02458,-4.93767c-1.17169,-0.09643 -2.22296,-0.73647 -3.39657,-0.80526c-1.95272,-0.11443 -3.19283,-0.8301 -3.05803,-2.75762c0.15039,-2.15047 0.83638,-1.80387 2.88478,-2.23974c0.66239,-0.14095 3.35451,-0.13573 4.02945,-0.08017c4.93229,0.40599 5.67914,0.26193 8.24359,1.48357z" data-paper-data="{&quot;origRot&quot;:0,&quot;origPos&quot;:null}"/><path d="M237.28203,159.36898c0.77863,-0.05247 1.28216,1.27816 1.28216,1.27816c0.87298,1.5388 2.16332,2.87069 -0.22558,3.54316c-1.80069,0.50691 -3.17894,1.359 -4.55225,2.14968c-0.49692,0.28612 -1.72341,1.22328 -2.18912,1.56399c-1.38839,1.01571 -2.39392,0.19114 -3.14206,-1.43674c-0.58924,-1.28211 -0.51867,-2.64349 2.81493,-4.56272c3.33358,-1.91925 3.72593,-2.3815 6.01194,-2.53555z" data-paper-data="{&quot;origRot&quot;:0,&quot;origPos&quot;:null}"/><path d="M228.66966,164.21504c0.45845,-0.54519 1.80414,-0.11569 1.80414,-0.11569c1.74239,0.30439 1.82626,0.85451 1.94136,2.0731c0.13259,1.40428 -0.46208,2.97053 -1.064,5.03664c-0.60189,2.06612 -2.69531,3.7721 -3.48892,3.35766c-0.74184,-0.38743 -1.5943,-1.46694 -0.93441,-4.77232c0.65989,-3.30541 0.39578,-3.9787 1.74182,-5.57935z" data-paper-data="{&quot;origRot&quot;:0,&quot;origPos&quot;:null}"/></g><g data-paper-data="{&quot;origPos&quot;:null,&quot;origRot&quot;:0}" fill="#fde6d9"><path d="M247.43004,158.92327c0.96188,0.10409 1.04349,1.53414 1.04349,1.53414c0.44567,1.71217 0.07426,9.42488 -1.43019,8.49388c-3.41251,-2.11178 -8.05173,-3.21802 -9.84582,-2.63766c-1.88085,0.53723 -2.73801,-0.21199 -3.2477,-2.07577c-0.56866,-2.07937 -0.00205,-2.37667 1.92346,-3.02478c0.64182,-0.21605 2.63066,-0.79546 3.28606,-0.96604c4.78936,-1.24663 5.44669,-1.62939 8.27074,-1.32378z" data-paper-data="{&quot;origRot&quot;:0,&quot;origPos&quot;:null}"/><path d="M237.1621,161.02166c0.77645,-0.07833 1.32395,1.2348 1.32395,1.2348c0.9237,1.5089 2.25762,2.79714 -0.10757,3.54873c-1.78281,0.56654 -3.13195,1.46402 -4.47823,2.29996c-0.48715,0.30249 -1.68175,1.27993 -2.13586,1.63597c-1.35383,1.06138 -2.38624,0.27069 -3.18813,-1.3314c-0.63157,-1.26179 -0.60633,-2.62476 2.66154,-4.65386c3.26787,-2.02909 3.64463,-2.50413 5.92425,-2.73414z" data-paper-data="{&quot;origRot&quot;:0,&quot;origPos&quot;:null}"/><path d="M230.29761,165.18967c0.67601,-0.2246 1.59785,0.84569 1.59785,0.84569c1.32536,1.17132 1.10892,1.68399 0.56917,2.78257c-0.62201,1.26597 -1.94847,2.28932 -3.54271,3.73482c-1.59426,1.44549 -4.78199,2.0958 -5.24129,1.32727c-0.42935,-0.71839 -0.07964,-2.37667 2.21264,-4.8478c2.2923,-2.47113 2.41963,-3.18308 4.40434,-3.84249z" data-paper-data="{&quot;origRot&quot;:0,&quot;origPos&quot;:null}"/></g><path d="M248.47975,158.78314c7.36296,0.9937 14.59023,1.68749 14.97881,4.02936c0.28882,1.74054 2.27785,6.64289 -1.71574,7.18974c-3.41135,0.46712 -11.05142,4.14373 -14.44815,4.70735c0,0 -5.27451,-16.79824 1.18508,-15.92647z" data-paper-data="{&quot;origRot&quot;:0,&quot;origPos&quot;:null}" fill="url(#color-3)"/></g><path d="M301.94413,301.81509c1.91463,6.74282 1.43938,10.23969 2.64094,16.924c0.95469,5.31097 1.40424,10.21081 2.52146,15.48786c2.15147,10.16222 4.41269,13.43096 6.61685,28.18993c0.23972,1.60519 6.45267,18.11172 9.56171,31.16483c1.82415,4.1786 -21.63154,4.37942 -21.63154,4.37942c0,0 -9.56009,-22.45926 -17.45879,-37.46867c-3.42565,-6.5095 -7.57325,-21.53081 -9.27872,-29.99691c-1.92731,-9.56704 -1.70949,-16.60288 4.1958,-24.81233c4.67846,-6.50393 6.47171,-9.82102 13.08237,-10.94097c6.61067,-1.11995 7.83528,0.33 9.74991,7.07282z" fill="#252525" stroke="none" stroke-width="0" stroke-linecap="butt"/><path d="M250.56104,221.41875c0,0 9.20863,5.86001 11.32312,8.93654c8.19477,11.92299 25.83621,44.03999 32.36075,58.06196c0.34057,0.73188 4.75399,8.53438 5.06353,9.28104c3.27765,7.90614 -10.08764,16.08011 -13.99241,18.8972c-5.6923,4.1067 -9.71015,2.85441 -9.71015,2.85441c0,0 -2.34262,-7.59428 -6.61009,-12.98464c-4.93935,-6.23901 -7.93643,-10.84267 -12.76748,-17.1649c-7.62242,-9.97523 -9.96206,-14.49113 -18.59833,-23.62217c-8.18811,-8.6572 -13.63994,-13.35267 -20.67585,-23.02449c-2.18426,-3.00256 6.81856,-8.19296 16.18293,-11.86433z" data-paper-data="{&quot;origRot&quot;:0}" fill="#0f0f0f" stroke="none" stroke-width="0" stroke-linecap="butt"/><path d="M298.97233,386.88813c0,0 17.12569,-0.72684 20.14611,2.65008c2.30272,2.57451 0.42294,11.47188 4.03839,14.00122c3.61543,2.52931 19.68085,6.22693 19.28629,13.41158c-0.3431,6.2477 -1.17844,10.2512 -5.48407,9.71484c-4.23427,-0.52746 -39.298,-2.71608 -40.68103,-3.41471c-2.47086,-6.46482 0.18175,-19.8323 3.32643,-24.81937z" data-paper-data="{&quot;origRot&quot;:0}" fill="#000000" stroke="none" stroke-width="0" stroke-linecap="butt"/><path d="M175.64062,272.67808c-6.8066,-1.67379 -9.60985,-3.81758 -16.01267,-6.08202c-5.08732,-1.79919 -9.56736,-3.83381 -14.70564,-5.47499c-9.895,-3.16049 -13.85448,-2.81359 -27.76972,-8.20353c-1.51343,-0.58622 -18.93136,-3.35782 -31.81226,-7.11715c-4.53372,-0.48323 6.90149,-20.9636 6.90149,-20.9636c0,0 24.24707,2.80962 41.19851,3.37544c7.35177,0.24538 22.4569,4.07647 30.65736,6.78497c9.26688,3.06067 15.27262,6.73243 19.483,15.92699c3.33569,7.2844 5.33035,10.48439 3.03146,16.78284c-2.29891,6.29843 -4.16493,6.64484 -10.97153,4.97105z" fill="#252525" stroke="none" stroke-width="0" stroke-linecap="butt"/><path d="M270.47795,254.16483c0,0 -8.81542,6.43637 -12.45129,7.28284c-14.09075,3.28063 -50.43001,7.99036 -65.8658,8.95018c-0.80569,0.05011 -9.68049,1.31311 -10.4886,1.32894c-8.55698,0.16767 -11.29212,-15.25837 -12.49064,-19.92173c-1.7472,-6.79814 0.88449,-10.08227 0.88449,-10.08227c0,0 7.92552,0.58916 14.50116,-1.41787c7.61091,-2.32303 12.99063,-3.4342 20.63952,-5.62602c12.06843,-3.45825 17.1266,-3.98931 28.77887,-8.6995c11.04758,-4.46577 17.40827,-7.82905 28.98024,-10.85189c3.59245,-0.93842 5.14101,9.33742 5.14334,19.39577z" data-paper-data="{&quot;origRot&quot;:0}" fill="#0f0f0f" stroke="none" stroke-width="0" stroke-linecap="butt"/><path d="M103.58754,234.94161c0,0 -12.567,11.65711 -17.05601,11.04451c-3.42236,-0.46703 -7.75999,-8.45963 -12.15247,-8.04115c-4.39244,0.41848 -19.02092,8.01969 -23.37883,2.294c-3.7896,-4.97898 -5.74937,-8.56859 -2.12362,-10.95186c3.56566,-2.34379 31.67966,-23.41173 33.18557,-23.77656c6.07271,3.31982 12.72025,15.2167 13.55959,21.05241z" data-paper-data="{&quot;origRot&quot;:0}" fill="#000000" stroke="none" stroke-width="0" stroke-linecap="butt"/><g stroke-linecap="butt"><g data-paper-data="{&quot;origPos&quot;:null,&quot;index&quot;:null}" stroke="none"><path d="M393.30366,174.13887c-0.97421,0.77814 -1.35198,2.22067 -1.4701,3.89903c-0.86928,0.84599 -1.39492,1.60499 -1.39492,1.60499l-0.11791,0.33409c-0.02752,0.03023 -0.05492,0.06058 -0.08227,0.09101c-2.30648,1.15221 -4.44292,2.58772 -6.58718,4.15384c-13.07769,-11.72928 -20.95825,-33.65853 -21.57957,-37.38491c-0.62752,-3.76361 11.23295,-2.57831 15.00735,-4.0447c3.77442,-1.46638 4.26408,-2.55601 10.2601,1.36783c5.99602,3.92384 2.82664,3.58644 6.14457,9.36751c3.3179,5.78108 5.28734,11.58161 5.26972,13.59948c-0.01762,2.01786 -0.86127,3.34687 -5.44979,7.01181z" data-paper-data="{&quot;origPos&quot;:null}" fill="#000000" stroke-width="0"/><g data-paper-data="{&quot;origPos&quot;:null}"><path d="M381.14171,182.27303c-12.04116,-9.49961 -18.44637,-28.57361 -18.86804,-32.32323c-0.42167,-3.74958 10.99201,-2.99808 14.72242,-4.54115c3.73041,-1.54309 2.83565,-3.38292 8.05085,-0.1724c5.21516,3.21051 3.45179,4.02312 6.3187,9.01841c2.86694,4.99528 4.26133,9.56963 4.18837,11.59815c-0.06963,1.93559 -0.75887,3.06443 -2.38032,4.52491c-0.91827,0.82709 -1.47349,1.25439 -2.46028,2.00895c-2.01091,1.53761 -1.82124,5.36971 -1.93128,8.45684c-1.72337,0.97337 -3.36874,2.09486 -5.01686,3.29512c-0.75394,-0.46121 -1.62252,-1.07591 -2.62353,-1.86563z" data-paper-data="{&quot;origPos&quot;:null}" fill="#09162e" stroke-width="0"/><g data-paper-data="{&quot;origPos&quot;:null}" fill="none" stroke-width="1" font-family="sans-serif" font-weight="normal" font-size="12" text-anchor="start"/></g></g><g data-paper-data="{&quot;origPos&quot;:null,&quot;index&quot;:null}"><path d="M328.4343,228.93343c-20.08268,11.13681 -39.24322,20.01169 -39.24322,20.01169c-6.57247,2.81305 -15.01772,1.7209 -16.09333,-2.5556c-0.91231,-3.6273 0.5215,-10.50703 0.5215,-10.50703c0,0 32.56249,-17.76216 57.32258,-31.9979c14.45709,-8.31207 23.97695,-18.49987 38.41026,-26.85386c7.65281,-4.42946 13.60978,-1.92705 19.17213,2.05332c-1.32469,2.90886 -2.78196,5.76021 -4.17903,8.63713c-1.57605,3.24549 -3.76526,7.47919 -5.7126,12.0301c-1.03126,0.92357 -2.22882,1.81482 -3.68064,2.65513c0,0 -29.41832,17.04463 -46.51767,26.52703z" data-paper-data="{&quot;origPos&quot;:null}" fill="#255dbc" stroke="#000000" stroke-width="0"/><path d="M344.89069,193.47192c0,0 7.84196,-6.10078 13.05256,-9.67135c3.70923,-2.54177 9.80338,-5.99082 9.80338,-5.99082l11.2964,20.57396c0,0 -3.13437,4.62078 -5.81017,6.40856c-5.01338,3.34961 -8.13281,5.47076 -13.73819,7.51723c-7.78894,2.84368 -18.26868,9.7006 -18.26868,9.7006l7.54032,-8.98148z" data-paper-data="{&quot;origPos&quot;:null}" fill="#09162e" stroke="none" stroke-width="0"/><path d="M370.84186,184.88183l13.06368,-8.60402c0,0 2.63902,1.14312 4.77473,2.46202c-1.36571,3.02832 -2.88288,5.99103 -4.33502,8.98131c-1.52497,3.14031 -3.62399,7.20584 -5.52252,11.58865c-0.20171,0.17141 -0.31811,0.26351 -0.31811,0.26351z" data-paper-data="{&quot;origPos&quot;:null}" fill="#09162e" stroke="none" stroke-width="0"/><path d="M349.73313,195.31976c-0.84,-0.78234 0.27719,-1.72882 0.27719,-1.72882l0.69182,-1.09784c1.47658,-1.29409 2.91911,-2.66607 4.74972,-3.52793c1.26057,-0.59349 2.41619,-0.74285 3.34857,-0.92091c0.13773,-0.02631 0.01139,0.41335 0.11581,0.31518c1.35706,-1.27596 0.74943,-2.68241 2.67963,-4.26216c0.23432,-0.19178 0.81153,-0.23887 1.41267,-0.20122l-0.08634,-0.39646c-0.03579,-0.14507 -0.03555,-0.29933 -0.00284,-0.45397c0.06104,-0.36364 0.2955,-0.87136 1.07982,-1.16825c0.03475,-0.01354 0.06962,-0.02592 0.1045,-0.03716c0.78677,-0.26185 1.19094,0.01635 1.38963,0.2863c0.02763,0.03397 0.05288,0.07022 0.07548,0.10867l0.60963,1.03747l-0.3009,0.17682l0.06127,0.28133l-0.09293,0.03317c0.00173,0.14118 -0.00367,0.28629 -0.01643,0.44318l0.09665,-0.00115l-0.40724,1.62284c-0.09027,0.37777 -0.37283,0.75465 -0.79545,1.00297c-0.60705,0.35671 -1.30507,0.3319 -1.68849,-0.02549l-0.93173,-0.82164c-0.14528,-0.01969 0.22909,0.19353 0.23263,0.32861c0.05423,0.00472 0.09937,0.02411 0.13144,0.06532c0.61221,0.78676 -2.14469,3.32848 -2.52372,3.61084c-1.22051,0.90925 -2.2978,0.50281 -3.54791,0.77636c-0.49224,0.10771 -3.09329,2.48618 -3.96572,3.25081l-0.73946,1.1389c0,0 -1.11723,0.94648 -1.95723,0.16416zM361.47737,186.5076c0.03159,0.0023 0.06514,0.00072 0.1001,-0.0038c-0.13445,0.00155 -0.20218,-0.00368 -0.1001,0.0038z" data-paper-data="{&quot;origPos&quot;:null}" fill="#ffffff" stroke="none" stroke-width="0.5"/><path d="M366.9425,178.1481l0.98757,-0.26629l11.62231,19.77873c-0.15828,0.35078 -0.31585,0.70416 -0.47235,1.05986l-0.03637,0.02136z" data-paper-data="{&quot;origPos&quot;:null}" fill="#ffffff" stroke="none" stroke-width="0"/><path d="M379.2218,197.83997l0.19857,0.11409c-0.24897,0.5555 -0.49594,1.11731 -0.73926,1.68413l-3.04151,3.47122l-2.68268,1.86605l1.99424,-2.2615z" data-paper-data="{&quot;origPos&quot;:null,&quot;origRot&quot;:0}" fill="#ffffff" stroke="none" stroke-width="0"/></g><g data-paper-data="{&quot;origPos&quot;:null}" stroke="none" stroke-width="0"><path d="M283.88246,200.35608c14.22341,-0.69444 34.18646,-28.97778 59.03932,-42.33982c12.10232,-6.50675 20.01712,-10.97364 30.32855,-6.49747c10.31141,4.4762 12.03042,22.01049 12.03042,22.01049c0,0 -1.98729,8.1367 -3.69828,12.59745c-1.78713,4.65925 -5.26525,10.77142 -5.26525,10.77142c0,0 -11.03671,7.9986 -14.54216,10.3569c-2.54709,1.71359 -5.47965,2.72872 -5.47965,2.72872l-17.82573,8.7614c0,0 -12.94845,8.83166 -24.80967,14.88659c0,0 -8.32444,4.00695 -17.80547,-9.81011c-11.52113,-16.79021 -11.97213,-23.46555 -11.97213,-23.46555z" data-paper-data="{&quot;origPos&quot;:null}" fill="#b2bbc1"/><path d="M263.17647,237.74845c-6.15851,-10.48049 -14.19319,-20.89722 -3.17322,-27.37274c11.01998,-6.47552 38.2223,-14.00532 44.38082,-3.52483c0,0 23.33568,18.86126 15.44838,24.09552c0,0 -16.34506,9.68324 -21.54227,12.28701c-10.11297,5.06654 -22.44671,9.75812 -22.44671,9.75812z" data-paper-data="{&quot;origPos&quot;:null}" fill="#b2bbc1"/><path d="M257.87117,238.01751c-3.52935,-6.0062 -6.61561,-9.49273 -6.24016,-16.49209c0.15042,-2.8042 0.91912,-4.44747 2.98991,-6.39955c2.55998,-2.41319 2.87586,-3.4349 5.87628,-5.32271c3.0004,-1.88779 5.27722,-1.69481 5.27722,-1.69481c0,0 3.87196,9.945 7.80158,16.28252c5.99493,9.66832 16.87562,24.12041 16.87562,24.12041l-14.61794,5.21456c0,0 -13.49716,-8.10926 -17.96252,-15.70835z" data-paper-data="{&quot;origPos&quot;:null}" fill="#000000"/></g><path d="M371.69099,151.38278c0,0 2.60068,0.45618 3.77414,-0.29308c3.52035,-2.2478 5.73032,-3.54674 9.1134,-6.3631c5.70738,-4.75129 12.0148,-11.88027 12.0148,-11.88027c0,0 3.35194,1.24147 5.48316,19.31044c1.70216,14.43153 -3.21125,17.27347 -3.21125,17.27347c0,0 -4.17185,-3.9923 -10.3361,-0.37006c-2.05475,1.20741 -4.5599,2.67948 -4.5599,2.67948l-1.46959,3.77363c0,0 -2.94922,-1.34116 -3.79912,-2.92805c-2.54969,-4.76065 -4.73036,-11.33721 -7.18816,-18.5567c-0.38575,-1.13312 0.17862,-2.64574 0.17862,-2.64574z" data-paper-data="{&quot;origPos&quot;:null}" fill="url(#color-4)" stroke="none" stroke-width="0"/><g data-paper-data="{&quot;origPos&quot;:null,&quot;index&quot;:null,&quot;origRot&quot;:0}"><path d="M323.03017,217.93653c-21.189,12.34154 -52.28808,29.22403 -52.28808,29.22403c-7.21317,2.73602 -7.76187,-8.97252 -10.52917,-15.9459c-2.44603,-6.16387 -4.8209,-9.90726 -3.9194,-15.7584c0.3005,-1.95037 4.83852,-5.70019 4.83852,-5.70019c0,0 20.84799,-7.01179 46.80284,-23.01913c13.22723,-14.28935 33.3699,-30.29334 48.48107,-39.71159c6.99421,-4.35923 12.664,-3.17492 19.84899,2.89619c-4.0875,8.57094 -2.88124,21.97779 0.97353,32.56379c-1.22124,2.14951 -2.83264,4.13623 -5.37285,5.71946c0,0 -30.79412,19.22355 -48.83544,29.7317z" data-paper-data="{&quot;origPos&quot;:null}" fill="#255dbc" stroke="#000000" stroke-width="0"/><path d="M331.57055,166.56393c0,0 7.687,-7.56407 12.95649,-11.83317c3.75116,-3.03901 10.15773,-6.89308 10.15773,-6.89308l20.90966,35.10509c0,0 -2.34133,6.44232 -5.06273,8.56287c-5.0988,3.97304 -8.25897,6.50309 -14.52891,8.28403c-8.7124,2.4747 -19.41921,10.55271 -19.41921,10.55271l6.34766,-12.15391z" data-paper-data="{&quot;origPos&quot;:null}" fill="#09162e" stroke="none" stroke-width="0"/><path d="M360.8947,159.7044l14.81941,-11.11012c0,0 3.34155,18.37242 7.60003,30.19529c-1.00294,1.47595 -7.98929,5.88006 -7.98929,5.88006z" data-paper-data="{&quot;origPos&quot;:null}" fill="#09162e" stroke="none" stroke-width="0"/><path d="M337.96322,168.05206l0.49068,-1.54408c1.39871,-1.65195 2.72905,-3.43464 4.71188,-4.31945c1.36537,-0.60928 2.74931,-0.54945 3.84662,-0.59135c0.16211,-0.00619 0.15264,0.65049 0.2493,0.52325c1.25645,-1.65397 0.0313,-4.01196 1.89723,-5.99612c0.22652,-0.24087 0.92697,-0.16789 1.68555,0.04394l-0.23996,-0.64309c-0.09305,-0.23639 -0.14439,-0.47795 -0.1556,-0.71193c-0.04609,-0.55419 0.07478,-1.28999 0.94857,-1.55571c0.0386,-0.01235 0.0777,-0.02293 0.1172,-0.03164c0.88855,-0.21017 1.48327,0.32841 1.82026,0.80185c0.04568,0.06025 0.08914,0.12343 0.13007,0.18948l1.10404,1.7804l-0.31414,0.2005l0.17028,0.45635l-0.10423,0.02833c0.04944,0.22164 0.09132,0.44753 0.12805,0.6901l0.11959,0.02282l0.03829,2.43891c0.01453,0.56891 -0.20982,1.08748 -0.65106,1.36908c-0.63377,0.40453 -1.50823,0.18813 -2.1037,-0.46922l-1.4314,-1.52416c-0.18687,-0.06777 0.34913,0.36147 0.39875,0.57396c0.06889,0.02118 0.13142,0.06306 0.18499,0.13576c1.02324,1.3883 -1.54624,4.66934 -1.92198,5.01533c-1.20988,1.11418 -2.68279,0.20351 -4.14238,0.31418c-0.57472,0.04358 -3.00548,3.10855 -3.83191,4.08464l-0.53604,1.59629c0,0 -1.06926,1.19876 -2.37365,-0.24048c-1.30443,-1.43923 -0.23518,-2.63799 -0.23518,-2.63799zM349.81923,159.87036c0.03998,0.01164 0.08107,0.01769 0.12295,0.01954c-0.16631,-0.03176 -0.25212,-0.05718 -0.12295,-0.01954z" data-paper-data="{&quot;origPos&quot;:null}" fill="#ffffff" stroke="none" stroke-width="0.5"/><path d="M353.80027,148.16332l1.13622,-0.16607l21.66651,34.94001l-0.88781,0.56666z" data-paper-data="{&quot;origPos&quot;:null}" fill="#ffffff" stroke="none" stroke-width="0"/><path d="M375.63407,182.13634l0.98674,0.79464l-3.66646,6.55007l-2.70369,2.24139l1.71696,-3.03601z" data-paper-data="{&quot;origPos&quot;:null,&quot;origRot&quot;:0}" fill="#ffffff" stroke="none" stroke-width="0"/></g></g><g><path d="M456.27146,145.41123c0.11146,0.16538 0.20471,0.34096 0.27851,0.5276c-0.15963,0.00412 -0.31925,0.00953 -0.47886,0.01619c0.07,-0.1811 0.13683,-0.36231 0.20036,-0.54377z" data-paper-data="{&quot;origPos&quot;:null}" fill="#453725" stroke="none" stroke-width="0" stroke-linecap="butt"/><g data-paper-data="{&quot;origPos&quot;:null,&quot;index&quot;:null}"><path d="M392.42501,144.19745c-0.95532,-3.23937 2.61443,-7.33818 5.23435,-11.55878c1.48096,-2.38578 1.91412,-2.54741 3.68115,-3.48108c1.76707,-0.93368 2.51496,-1.00161 3.17195,-0.14001c0.65696,0.8616 0.91436,2.55441 0.21971,4.58794c-0.6947,2.03353 -1.51281,3.93249 -3.30102,4.43225" data-paper-data="{&quot;origPos&quot;:null,&quot;origRot&quot;:0}" fill="#ffddd1" stroke="#e9c7ba" stroke-width="0.5" stroke-linecap="round"/><text transform="translate(396.67974,143.26278) rotate(-134.38593) scale(0.2304,-0.41388) skewX(-14.03584)" font-size="40" xml:space="preserve" data-paper-data="{&quot;origRot&quot;:-1.7125,&quot;origPos&quot;:null,&quot;index&quot;:null}" fill="#e9c7ba" fill-rule="nonzero" stroke="none" stroke-width="1" stroke-linecap="butt" stroke-linejoin="miter" stroke-miterlimit="10" stroke-dasharray="" stroke-dashoffset="0" font-family="Handwriting" font-weight="normal" text-anchor="start" style="mix-blend-mode: normal"><tspan x="0" dy="0">3</tspan></text></g><path d="M386.37185,149.83286c0,0 0.49134,-17.68427 10.13398,-26.62216c16.11773,-13.34141 30.91669,-14.60563 43.41087,-4.39562c12.49418,10.21 15.85687,20.37443 13.99706,30.09058c-4.08786,20.67548 -20.9574,24.11165 -20.9574,24.11165l-4.40134,4.03848c0,0 -1.9625,4.6908 -3.09187,5.45919c-1.90355,1.29514 -15.20252,2.83488 -21.57325,2.09818c-2.12357,-0.24557 -2.71536,0.1491 -5.07831,-2.98595c-3.10345,-3.97584 -7.35681,-15.70088 -7.35681,-15.70088z" data-paper-data="{&quot;origPos&quot;:null,&quot;origRot&quot;:0}" fill="url(#color-5)" stroke="none" stroke-width="0" stroke-linecap="butt"/><path d="M432.65627,162.18861c1.19347,4.81383 -0.12886,8.50156 -0.12886,8.50156c-0.24577,0.72823 -0.88862,0.8845 -1.15445,0.51906c-0.26584,-0.36539 -0.39622,-0.91387 -0.15044,-1.6421c0.86879,-2.57441 0.57528,-3.72642 0.0592,-6.63226c-0.68713,-3.86898 -3.88153,-9.4312 -3.40121,-8.88104c1.03675,1.18742 3.80976,4.23841 4.77576,8.13479z" data-paper-data="{&quot;origRot&quot;:0,&quot;index&quot;:null}" fill="#38301c" stroke="none" stroke-width="0" stroke-linecap="butt"/><path d="M453.82965,166.00881c-4.229,-1.24438 -2.50416,-1.54326 -6.8921,-1.22864c2.42213,-5.92492 2.66088,-1.38393 -2.38197,-7.63808c-8.45212,-10.48226 -17.04756,-18.16146 -23.33422,-20.63893c-1.43602,-0.56591 -5.77586,2.69698 -5.77586,2.69698c0,0 1.83738,-2.38711 0.17179,-2.46298c-3.68329,-0.1678 -12.64783,10.17603 -12.64783,10.17603l-2.09233,-3.08968c0,0 1.38041,-5.48474 3.80684,-7.73404c2.44097,-2.26277 -5.62528,-4.972 -7.14906,-2.00892c-3.05106,5.93296 -11.3048,13.2671 -11.3048,13.2671c0,0 1.29062,-16.93101 10.91032,-25.68536c6.72499,-6.12004 14.16365,-9.22398 23.23961,-9.98248c6.41171,-1.28357 17.89242,-3.99434 30.57709,13.13233c11.81274,15.94943 12.80327,26.14737 6.00227,36.3946z" data-paper-data="{&quot;origPos&quot;:null}" fill="#3d3021" stroke="none" stroke-width="0" stroke-linecap="butt"/><path d="M438.19121,145.76731c-6.27274,-7.7794 -14.80528,-13.5729 -24.50603,-14.01485c-3.60134,-0.16407 -6.65742,2.0933 -6.65742,2.0933c0,0 4.57716,-3.82203 5.22699,-7.30593c0.68283,-2.19753 -1.22948,-2.61541 -3.2334,-3.74663c-1.51115,-0.85305 -5.28632,-1.83803 -5.28632,-1.83803c0,0 7.00117,-5.4382 12.80358,-5.83392c6.73463,-2.21178 14.79549,1.66469 14.79549,1.66469c0,0 6.50106,-4.38261 16.90785,7.54254c7.28457,9.83556 14.19848,21.5629 12.28576,27.02776c-3.37049,-5.00041 -12.82571,8.70377 -12.82571,8.70377l4.56316,5.00827c0,0 -3.10211,0.97009 -4.95144,1.77182c-4.5254,1.96187 -11.38298,5.30963 -11.38298,5.30963c0,0 9.98972,-5.30708 10.85198,-8.74485c1.73366,-6.91186 -4.11863,-12.09019 -8.59152,-17.63749z" data-paper-data="{&quot;origPos&quot;:null}" fill="#453725" stroke="none" stroke-width="0" stroke-linecap="butt"/><g data-paper-data="{&quot;origPos&quot;:null}" stroke="none" stroke-width="0" stroke-linecap="butt"><path d="M422.8877,140.32572l-0.21972,-6.08033l2.39259,6.34485l0.32561,-1.5135c0,0 0.66401,3.24591 4.16166,6.07069c4.75608,3.84111 13.4438,7.62674 16.46049,10.79378c4.15846,4.36568 -1.12489,10.93565 -1.12489,10.93565c0,0 -0.19397,-0.73543 -0.34372,-1.19748c-0.43852,-1.35299 -0.61452,-2.23935 -1.66482,-3.19025c-5.21498,-4.72169 -14.13148,-5.7562 -18.33872,-11.3421c-6.47318,-8.59434 -5.51479,-16.81485 -5.51479,-16.81485z" data-paper-data="{&quot;origPos&quot;:null}" fill="url(#color-6)"/><path d="M423.90949,137.423l-0.34323,-5.29729l3.11442,5.15459l-0.09459,-3.2124c0,0 1.01919,5.0504 4.97764,7.65279c7.05163,4.636 11.43634,-5.84367 24.66743,6.7629c6.71581,6.3988 -4.59491,9.80714 -8.99043,14.82472c-1.14281,1.30453 -0.68507,4.20037 -0.68507,4.20037l-0.80352,-3.65873c0,0 0.43974,-0.8672 -1.16883,-1.97732c-1.38225,-0.9539 -1.72745,-2.45763 -1.72745,-2.45763c0,0 0.54029,0.99741 2.61009,1.84675c1.33912,0.58078 1.1372,-0.74789 0.71251,-0.59872c-7.89219,-6.71888 -15.2943,-2.50498 -20.3243,-9.18324c-6.62103,-8.79065 -5.67651,-17.02561 -5.67651,-17.02561z" data-paper-data="{&quot;origPos&quot;:null}" fill="#3b2f20"/></g><path d="M402.91681,140.29996c-3.37596,2.99285 -6.23723,6.18116 -9.4236,3.56948c-1.7586,-1.4414 -0.96975,-6.63383 2.70486,-9.89147c3.67465,-3.25761 6.54971,-3.1982 8.73047,-0.99294c2.18078,2.20526 1.66288,4.0573 -2.01176,7.31493z" data-paper-data="{&quot;origRot&quot;:0,&quot;origPos&quot;:null,&quot;index&quot;:null}" fill="url(#color-7)" stroke="none" stroke-width="0" stroke-linecap="butt"/><g data-paper-data="{&quot;origPos&quot;:null}" stroke-linecap="butt"><g data-paper-data="{&quot;origPos&quot;:null}" stroke="none" stroke-width="0"><path d="M426.50148,174.05482c-1.88884,0.13958 -4.24274,-0.03316 -6.64936,-3.22839c-2.27704,-3.02322 -2.6821,-7.03389 -0.52793,-8.93444c0.52706,-0.47759 2.81198,-1.11909 4.35954,-0.30445c1.91943,1.01042 5.05084,3.24787 6.20793,4.78413c2.40661,3.19523 0.70047,4.11322 -0.07398,5.19779c0,0 -1.76313,2.37058 -3.31621,2.48535z" data-paper-data="{&quot;origPos&quot;:null}" fill="#000000"/><path d="M425.8782,174.47459c-1.48846,0.3753 -2.70751,-0.32916 -2.70751,-0.32916c-1.20472,-1.11386 -1.41797,-1.57392 -2.42475,-2.86115c-0.87185,-1.11474 -1.9933,-3.01182 -1.9933,-3.01182c0,0 -0.18152,-2.10538 -0.01396,-3.17849c0.17328,-1.10968 1.10918,-2.76069 1.10918,-2.76069c0,0 2.7287,-0.14756 4.03436,0.35477c1.30567,0.50231 4.90185,2.81529 5.65065,3.80947c2.21013,2.93435 1.05434,3.95006 0.39648,4.90588c0,0 -0.85487,1.19786 -1.64729,1.7986c-0.78859,0.59786 -0.91544,0.89731 -2.4039,1.27258z" data-paper-data="{&quot;origPos&quot;:null}" fill="#ffffff"/></g><g data-paper-data="{&quot;origPos&quot;:null}" stroke="#000000" stroke-width="0"><path d="M428.47109,172.53485c-1.02644,1.02308 -2.31503,1.64622 -3.56757,1.82571c-1.25254,0.17951 -2.23863,-0.45235 -3.12096,-1.20195c-0.88233,-0.74958 -1.4958,-1.47676 -1.40123,-2.64005c0.09455,-1.16328 0.66678,-2.39505 1.69318,-3.41818c0.55203,-0.55023 1.22507,-0.92474 1.88234,-1.23681c3.42192,1.90602 4.40858,1.85615 4.83086,6.33285c-0.10024,0.11501 -0.2058,0.22795 -0.31666,0.33842z" data-paper-data="{&quot;origPos&quot;:null}" fill="#898151"/><path d="M430.09746,169.21415c-0.09455,1.16328 -0.66678,2.39501 -1.69326,3.41812c-0.21766,0.21697 -0.49235,0.35592 -0.73075,0.53649c-0.25091,-0.60027 0.65399,-1.51744 -1.27375,-4.16821c-1.75435,-2.41235 -2.92981,-2.36713 -3.42816,-2.5991c0.81577,-0.55431 1.71874,-0.90259 2.6037,-1.02939c1.25254,-0.17951 2.46907,0.0846 3.3514,0.83423c0.8823,0.74962 1.26535,1.84453 1.1708,3.00785z" data-paper-data="{&quot;origPos&quot;:null}" fill="#4d461c"/></g><path d="M420.17188,171.16935c-0.71767,-0.95284 -1.88916,-2.35331 -1.88916,-2.35331l0.31016,-0.23361c0,0 1.35447,1.302 2.05323,2.22973c0.90659,1.20366 2.0603,3.23173 2.0603,3.23173l-0.31016,0.23361c0,0 -1.33668,-1.92958 -2.22438,-3.10816z" data-paper-data="{&quot;origPos&quot;:null}" fill="#000000" stroke="none" stroke-width="0"/><path d="M424.54629,162.82793l-0.58931,-1.10911c0,0 2.80753,0.55734 5.97559,4.36536c2.14331,3.09521 0.88296,4.00056 0.88296,4.00056c0,0 -0.71042,-2.36368 -1.36407,-3.29197c-0.61946,-0.87969 -1.87835,-1.85152 -2.58798,-2.66039c-0.70964,-0.80887 -2.3172,-1.30446 -2.3172,-1.30446z" data-paper-data="{&quot;origPos&quot;:null}" fill="#000000" stroke="#000000" stroke-width="0"/><g data-paper-data="{&quot;origPos&quot;:null}" stroke="none" stroke-width="1"><path d="M427.04161,166.80306c0.72425,0.15032 1.32517,0.57911 1.63056,1.2501c0.30543,0.671 0.25811,1.45858 -0.06535,2.18891c-0.32346,0.73037 -0.92307,1.40337 -1.72134,1.84532c-0.79829,0.44191 -1.64586,0.57014 -2.3701,0.41986c-0.72422,-0.1503 -1.32516,-0.57906 -1.63052,-1.25005c-0.3054,-0.67096 -0.25813,-1.45863 0.06534,-2.18896c0.32346,-0.73037 0.92305,-1.40332 1.72131,-1.84527c0.79826,-0.44196 1.64587,-0.57018 2.37014,-0.41991z" data-paper-data="{&quot;origPos&quot;:null}" fill="#000000"/><path d="M428.20538,169.12312c0.28302,-0.00338 0.52489,0.10849 0.65811,0.33635c0.13327,0.22777 0.13313,0.52904 0.02502,0.83161c-0.10804,0.30257 -0.32412,0.60642 -0.62201,0.83946c-0.29788,0.23303 -0.62212,0.35193 -0.9052,0.35537c-0.28302,0.00338 -0.52487,-0.10851 -0.65809,-0.33634c-0.13324,-0.22783 -0.1331,-0.529 -0.02502,-0.83159c0.10804,-0.3025 0.32407,-0.60639 0.62199,-0.83947c0.29788,-0.23303 0.62222,-0.35193 0.90532,-0.35539z" data-paper-data="{&quot;origPos&quot;:null,&quot;origRot&quot;:0}" fill="#ffffff"/><path d="M423.75666,167.86417c0.16619,0.05948 0.31387,0.18223 0.40348,0.35398c0.08961,0.17174 0.1043,0.36026 0.05566,0.52611c-0.04866,0.16585 -0.16068,0.309 -0.3245,0.39009c-0.16375,0.08113 -0.34859,0.08483 -0.51478,0.02531c-0.16619,-0.05948 -0.31392,-0.18214 -0.40349,-0.35393c-0.08963,-0.17171 -0.10431,-0.36017 -0.05563,-0.52602c0.04865,-0.16583 0.16071,-0.30903 0.32453,-0.39012c0.16384,-0.08106 0.34854,-0.08478 0.51472,-0.0253z" data-paper-data="{&quot;origPos&quot;:null}" fill="#ffffff"/></g></g><path d="M410.80052,184.81864l-5.81909,-9.38276c0,0 2.05085,-2.29829 3.4647,-2.42038c1.28445,-0.11089 4.66746,1.71818 4.66746,1.71818l5.83671,9.89511z" fill="url(#color-8)" stroke="none" stroke-width="0" stroke-linecap="round"/><path d="M413.23317,182.14993l-3.68635,-6.40104" fill="none" stroke="#000000" stroke-width="0.5" stroke-linecap="round"/></g><g stroke="none" stroke-width="0" stroke-linecap="butt"><path d="M347.40118,268.50786l-1.01572,-8.93268l12.93112,-1.47038l0.58241,8.77428c0,0 -0.77608,2.36406 -3.0474,2.62235c-1.50312,0.17092 -9.45041,-0.99357 -9.45041,-0.99357z" data-paper-data="{&quot;origPos&quot;:null}" fill="#000000"/><path d="M359.19064,240.35142c-0.26281,11.37342 0.69504,20.2712 -2.19924,29.02845c-1.5492,4.68736 -4.62239,4.9367 -6.93345,0.56514c-4.4367,-8.39238 -4.87816,-20.40834 -5.57238,-30.91246c-0.62249,-9.41874 -3.71151,-11.33563 -4.08993,-30.28879c-0.60167,-12.18758 23.22358,-11.98696 23.04326,0.20837c-0.18032,12.19532 -3.98545,20.02591 -4.24828,31.39932z" data-paper-data="{&quot;origPos&quot;:null}" fill="url(#color-9)"/><g data-paper-data="{&quot;origPos&quot;:null}"><path d="M347.85153,266.54811l-1.50909,-6.94823l12.97212,-1.68271l0.46834,10.00843c0,0 -2.53937,-2.96033 -5.62565,-2.97532z" data-paper-data="{&quot;origPos&quot;:null}" fill="url(#color-10)"/><path d="M346.7177,263.97922c0,0 -7.07466,-38.72852 -6.3792,-53.18531c0.42404,-8.8145 1.49713,-11.46009 10.09685,-11.5042c8.13993,-0.28076 12.20568,3.51779 13.41723,9.37657c1.21153,5.85878 -4.42814,58.70728 -4.42814,58.70728c0,0 -1.0721,-5.38502 -4.55715,-5.43476c-3.69901,-0.05275 -8.14956,2.04038 -8.14956,2.04038z" data-paper-data="{&quot;origPos&quot;:null,&quot;origRot&quot;:0}" fill="#1e4994"/></g></g><g data-paper-data="{&quot;origRot&quot;:0}" stroke="none" stroke-width="0" stroke-linecap="butt"><path d="M376.64673,159.71095c1.51385,9.89025 -1.51868,11.36776 -4.2016,21.02054c-6.38832,22.98427 -6.4397,22.07544 -10.34871,29.43719c-4.75264,8.95057 -22.53511,0.16463 -19.80291,-9.64053c1.50774,-5.41086 2.90016,-18.46259 4.43014,-23.86689c5.23738,-18.49991 15.47519,-29.25312 22.77383,-30.73987c7.69583,-1.56766 6.37492,8.73099 7.14925,13.78964z" data-paper-data="{&quot;origPos&quot;:null,&quot;origRot&quot;:0}" fill="#2152a6"/><path d="M367.29313,146.09934c-0.14943,6.05941 0.08924,13.07785 -1.24574,17.79635c-4.61264,16.30367 -9.48954,32.52636 -14.40526,48.7373c-5.58429,-1.81235 -10.73503,-7.08805 -9.17201,-12.69729c1.50774,-5.41086 2.90015,-18.4626 4.43014,-23.86689c4.68883,-16.56223 13.38545,-26.91556 20.39289,-29.96949z" data-paper-data="{&quot;origPos&quot;:null,&quot;origRot&quot;:0}" fill="#000000"/></g><g><g><path d="" data-paper-data="{&quot;origPos&quot;:null}" fill="none" stroke="#000000" stroke-width="1.5" stroke-linecap="round"/><path d="M357.74045,287.83215l20.25617,7.51832l-3.37122,9.33881l-20.25617,-7.51832z" fill="#524e53" stroke="none" stroke-width="0" stroke-linecap="butt"/><g stroke="none" stroke-width="0" stroke-linecap="butt"><path d="M369.92499,295.95225c0,0 18.82992,-1.19585 29.33357,2.30423c26.3194,8.77027 124.32494,46.1509 124.32494,46.1509l-16.25728,2.81964l-136.81559,-48.5673z" fill="url(#color-11)"/><path d="M371.02354,293.99156l135.30414,52.75425l23.64186,0.53783c0,0 -22.34564,10.10154 -34.36994,6.25196c-28.81466,-9.22503 -74.27,-23.70896 -103.78522,-35.99852c-15.01556,-6.2522 -24.58965,-17.35196 -24.58965,-17.35196z" data-paper-data="{&quot;index&quot;:null}" fill="url(#color-12)"/><g><path d="M369.15141,293.60673c0,0 95.86301,34.23942 115.81376,41.36602c3.35754,1.19935 14.7239,4.45711 23.51338,5.9c9.48955,1.55782 10.21841,-2.13617 10.21841,-2.13617l15.24885,4.01894c0,0 -3.73257,8.48742 -16.69178,9.38187c-12.42207,0.85739 -33.47663,-7.36498 -38.02852,-8.99045c-22.02258,-7.86414 -114.29825,-42.06337 -114.29825,-42.06337z" fill="url(#color-13)"/><path d="M369.15141,293.60673c0,0 95.86301,34.23942 115.81376,41.36602c3.35754,1.19935 14.7239,4.45711 23.51338,5.9c9.48955,1.55782 10.21841,-2.13617 10.21841,-2.13617l15.24885,4.01894c0,0 -3.73257,8.48742 -16.69178,9.38187c-12.42207,0.85739 -33.47663,-7.36498 -38.02852,-8.99045c-22.02258,-7.86414 -114.29825,-42.06337 -114.29825,-42.06337z" fill="url(#color-14)"/><path d="M367.55046,294.4765c0,0 54.63273,21.12764 88.89396,32.70775c34.26122,11.58012 37.36044,13.94849 56.85431,16.55446c5.01004,0.66976 9.75262,-3.31619 9.75262,-3.31619l6.33633,1.37688c0,0 -3.57746,5.95001 -12.93123,6.61654c-14.14669,1.00805 -38.45368,-9.3112 -62.63112,-17.27191c-24.17746,-7.96071 -88.14836,-32.37402 -88.14836,-32.37402z" fill="#000000"/></g></g><g stroke="none" stroke-width="0" stroke-linecap="butt"><g><path d="M360.0287,289.05969l11.70392,3.81978c0,0 -1.38062,3.35402 -2.00988,5.19281c-0.51376,1.50126 -1.4899,5.03407 -1.4899,5.03407l-12.53082,-3.67876z" fill="#464347"/><path d="M366.35207,290.31143l11.04751,4.26505l-1.20551,3.33944l-11.09991,-4.11987z" fill="#2c2a2c"/><path d="M357.07763,296.18746c0,0 6.08445,-1.86362 9.3329,-1.97766c3.27757,-0.1151 10.24593,1.29024 10.24593,1.29024l-0.69591,2.30662c0,0 -7.18984,-0.70588 -10.48397,-0.59947c-3.04563,0.09838 -8.5939,1.21577 -8.5939,1.21577z" fill="#191819"/><path d="M376.75038,294.36189l1.70127,0.69334l-4.0213,10.34574l-1.70126,-0.69334z" fill="#191819"/></g><g><path d="M327.08499,276.48791l32.05324,11.96892l-10.31543,7.32048c0,0 -2.97422,-0.97669 -7.37265,-2.16259c-4.61947,-1.24552 -10.77836,-2.72706 -15.35946,-3.77588c-3.10863,-0.71171 -5.41501,-1.24524 -5.41501,-1.24524l-1.83965,-8.27161z" fill="#2d2d31"/><path d="M317.61809,279.963l6.5201,-3.71392l4.57124,1.60419l-6.33351,3.6573l0.76915,7.76099l-4.93162,-0.5452z" fill="#0f1011"/><path d="M355.02939,286.71951l12.73503,3.33904l-1.6125,4.16931c0,0 -4.26761,2.27894 -6.03207,3.44639c-1.65877,1.09753 -4.25719,3.36153 -4.25719,3.36153l-7.41216,-5.14643c0,0 -0.21225,-2.83572 2.76839,-7.89211c1.29483,-2.19658 3.81054,-1.27775 3.81054,-1.27775z" fill="#282628"/><path d="M355.38437,287.25551l11.53484,3.02436l-1.46053,3.77639c0,0 -3.86543,2.06418 -5.4636,3.12161c-0.7771,-0.59054 -9.29755,-6.39961 -8.06213,-8.76501c1.17281,-1.98956 3.45141,-1.15734 3.45141,-1.15734z" fill="#232123"/><path d="M348.69045,284.90865l0.82456,0.30605l-2.46343,6.8241l-0.82456,-0.30605z" fill="#252527"/><path d="M344.25047,283.2607l0.82456,0.30605l-2.46343,6.8241l-0.82456,-0.30605z" fill="#252527"/><path d="M346.78761,284.20239l0.82456,0.30605l-2.46342,6.8241l-0.82456,-0.30605z" fill="#252527"/><path d="M342.34764,282.55444l0.82456,0.30605l-2.46342,6.8241l-0.82457,-0.30604z" fill="#252527"/><path d="M324.67792,275.12849l19.05868,7.72278l-6.41751,3.27924l-20.49643,-6.95495z" fill="#464649"/><path d="M324.89415,275.13943l8.23375,3.12647l-4.93296,2.09164l-7.40851,-3.18389z" fill="#737277"/></g></g></g><path d="M353.54136,283.48995c-0.36635,-0.96777 2.17862,-1.39946 2.17862,-1.39946c1.19842,-0.15581 2.14194,-0.26992 2.32956,0.92395c0.19509,1.24132 1.84806,4.53934 2.01611,5.83169c-0.31806,0.23497 -4.77281,-2.06374 -4.77281,-2.06374c0,0 -0.99982,-1.30697 -1.75147,-3.29248z" fill="#fde6d9" stroke="none" stroke-width="0" stroke-linecap="butt"/><path d="M342.02243,279.3427c0.5628,-0.6657 1.81616,0.02645 1.81616,0.02645c1.6723,0.568 9.2625,3.53919 7.73058,4.17575c-2.22747,0.92557 -6.38218,2.81542 -6.91981,4.56394c-0.31002,1.00826 -1.12157,1.77469 -1.40528,2.79156c-0.47205,1.69186 -1.39147,2.60583 -3.22397,2.00593c-2.04445,-0.6693 -1.58337,-1.18719 -1.62391,-3.10078c-0.01312,-0.61877 0.4907,-2.98937 0.66929,-3.57013c1.30502,-4.24426 1.3046,-4.93822 2.95693,-6.89267z" data-paper-data="{&quot;origRot&quot;:0}" fill="url(#color-15)" stroke="none" stroke-width="0" stroke-linecap="butt"/><path d="M337.81324,291.29002c0.19176,-0.6789 1.55455,-0.81033 1.55455,-0.81033c1.66537,-0.40098 3.27122,-1.20623 3.14719,0.99198c-0.09346,1.65699 0.25632,3.02983 0.55186,4.38467c0.10695,0.49025 0.58063,1.75221 0.74676,2.22806c0.49522,1.41844 -0.56254,2.09404 -2.2704,2.368c-1.34509,0.21578 -2.55929,-0.15159 -3.27668,-3.44022c-0.71738,-3.28861 -1.01635,-3.72894 -0.45334,-5.72216z" data-paper-data="{&quot;origRot&quot;:0}" fill="url(#color-16)" stroke="none" stroke-width="0" stroke-linecap="butt"/><g data-paper-data="{&quot;origRot&quot;:0}" fill="#fde6d9" stroke="none" stroke-width="0" stroke-linecap="butt"><path d="M348.3777,280.16271c0.77367,-0.58095 1.81002,0.40782 1.81002,0.40782c1.49497,0.94617 6.49161,6.83324 4.75685,7.18078c-2.52239,0.50534 -5.61423,0.43951 -6.70459,2.16229c-0.62873,0.9934 -1.68326,1.62806 -2.28838,2.63601c-1.00683,1.67707 -2.21592,2.44398 -3.8612,1.43078c-1.83558,-1.13037 -1.21045,-1.57745 -0.64682,-3.59446c0.18225,-0.65224 1.43516,-3.03504 1.79734,-3.60727c2.64669,-4.18177 2.86537,-4.9103 5.13682,-6.61596z" data-paper-data="{&quot;origRot&quot;:0,&quot;origPos&quot;:null}"/><path d="M341.05869,291.62015c0.31455,-0.71418 1.72696,-0.54335 1.72696,-0.54335c1.76817,-0.05996 3.54653,-0.58563 3.03467,1.84275c-0.38581,1.83044 -0.26992,3.44671 -0.20616,5.03008c0.02308,0.57294 0.28472,2.09414 0.37063,2.66477c0.25615,1.70109 -0.94067,2.20965 -2.72987,2.11769c-1.40917,-0.07242 -2.58264,-0.7662 -2.73737,-4.60968c-0.15474,-3.84349 -0.38237,-4.40543 0.54111,-6.50226z" data-paper-data="{&quot;origRot&quot;:0,&quot;origPos&quot;:null}"/><path d="M341.35894,301.49779c-0.27045,-0.65897 0.73404,-1.65213 0.73404,-1.65213c1.0776,-1.40262 1.60389,-1.22185 2.73694,-0.75878c1.30566,0.53366 2.41765,1.78676 3.96912,3.27808c1.55152,1.49129 2.09235,4.1371 1.35716,4.64808c-0.68725,0.47763 -2.03896,0.73235 -4.66155,-1.38495c-2.62262,-2.11732 -3.34164,-2.1955 -4.1357,-4.13027z" data-paper-data="{&quot;origRot&quot;:0,&quot;origPos&quot;:null}"/></g><g data-paper-data="{&quot;origRot&quot;:0}" fill="#fde6d9" stroke="none" stroke-width="0" stroke-linecap="butt"><path d="M347.33395,282.13233c0.41708,-0.87297 1.79332,-0.4759 1.79332,-0.4759c1.76309,0.14714 8.91653,3.05442 7.53943,4.16514c-3.12366,2.51946 -5.7053,6.52958 -5.75251,8.41463c-0.11667,1.95259 -1.10769,2.5129 -3.03503,2.37591c-2.15029,-0.15284 -2.24296,-0.78595 -2.21608,-2.81744c0.00894,-0.67716 0.12161,-2.7456 0.17797,-3.42049c0.41158,-4.93181 0.26838,-5.67884 1.49294,-8.24188z" data-paper-data="{&quot;origRot&quot;:0,&quot;origPos&quot;:null}"/><path d="M345.90972,292.51525c0.1835,-0.75849 1.60388,-0.83973 1.60388,-0.83973c1.72979,-0.37124 3.38738,-1.20267 3.31238,1.27793c-0.05653,1.86982 0.34296,3.44018 0.68531,4.98745c0.12388,0.55989 0.65003,2.01095 0.83538,2.55741c0.55256,1.62912 -0.53568,2.34104 -2.31302,2.56647c-1.39982,0.17754 -2.67735,-0.2981 -3.50835,-4.05384c-0.83101,-3.75575 -1.15428,-4.2687 -0.61555,-6.49565z" data-paper-data="{&quot;origRot&quot;:0,&quot;origPos&quot;:null}"/><path d="M347.56636,300.37331c0.0122,-0.71223 1.32758,-1.22714 1.32758,-1.22714c1.54445,-0.8621 1.95639,-0.48793 2.81391,0.38548c0.98817,1.00651 1.51391,2.59722 2.34917,4.58052c0.83523,1.98331 0.39199,5.20636 -0.48534,5.38492c-0.82009,0.16691 -2.26868,-0.71276 -3.84016,-3.69463c-1.57145,-2.98188 -2.20095,-3.33804 -2.16511,-5.42913z" data-paper-data="{&quot;origRot&quot;:0,&quot;origPos&quot;:null}"/></g><path d="M343.20576,277.69242c4.29446,-6.06286 8.2603,-12.14454 10.51538,-11.40297c1.67603,0.55115 6.94182,1.06198 5.57458,4.85389c-1.1679,3.23907 -1.45296,11.71294 -2.52856,14.98383c0,0 -17.32899,-3.11576 -13.56142,-8.43474z" data-paper-data="{&quot;origRot&quot;:0}" fill="url(#color-17)" stroke="none" stroke-width="0" stroke-linecap="butt"/></g></g></g></svg>