<svg version="1.1" xmlns="http://www.w3.org/2000/svg" xmlns:xlink="http://www.w3.org/1999/xlink" width="952.27327" height="740" viewBox="0,0,952.27327,740"><g transform="translate(119.77327,322.28334)"><g data-paper-data="{&quot;isPaintingLayer&quot;:true}" fill-rule="nonzero" stroke="none" stroke-width="0" stroke-linecap="butt" stroke-linejoin="miter" stroke-miterlimit="10" stroke-dasharray="" stroke-dashoffset="0" style="mix-blend-mode: normal"><path d="" fill="#6f3615"/><path d="" fill="#6f3615"/><path d="" fill="#6f3615"/><path d="" fill="#6f3615"/><path d="" fill="#6f3615"/><path d="" fill="#6f3615"/><path d="" fill="#6f3615"/><path d="" fill="#6f3615"/><path d="" fill="#6f3615"/><path d="" fill="#6f3615"/><path d="" fill="#6f3615"/><path d="M153.72025,343.71666v-176.75924h83.11488v176.75924z" fill="#c43114"/><path d="" fill="#6f3615"/><path d="" fill="#6f3615"/><path d="" fill="#6f3615"/><path d="" fill="#6f3615"/><path d="" fill="#6f3615"/><path d="" fill="#6f3615"/><path d="" fill="#6f3615"/><path d="" fill="#6f3615"/><path d="" fill="#6f3615"/><path d="" fill="#6f3615"/><path d="" fill="#6f3615"/><path d="M458.5,404.71666v-248h87v248z" fill="#c43114"/><path d="M228.5,182.71666v-16h52v16z" fill="#c43114"/><path d="M526.5,417.71666v-523h230v523z" fill="#c43114"/><path d="M478.87952,107.71666v-61h24.62048v61z" fill="#c43114"/><path d="M404.5,66.71666v-20h96v20z" fill="#c43114"/><path d="M151.5,68.71666v-43h114v43z" fill="#c43114"/><path d="M-60.5,30.71666v-43h114v43z" fill="#c43114"/><path d="M197.5,-21.28334v-43h114v43z" fill="#c43114"/><path d="M449.5,-76.28334v-31h186v31z" fill="#c43114"/><path d="M588.5,-60.28334v-199h244v199z" fill="#c43114"/><path d="M492.5,-147.28334v-11h48v11z" fill="#c43114"/><path d="M-119.77327,-227.28334v-95h840.27327v95z" fill="#c43114"/><path d="M352.5,-150.28334v-11h48v11z" fill="#c43114"/><path d="M181.5,-150.28334v-11h48v11z" fill="#c43114"/></g></g></svg>