<svg version="1.1" xmlns="http://www.w3.org/2000/svg" xmlns:xlink="http://www.w3.org/1999/xlink" width="366.18691" height="384.41665" viewBox="0,0,366.18691,384.41665"><g transform="translate(-69.28324,-28.87295)"><g data-paper-data="{&quot;isPaintingLayer&quot;:true}" fill-rule="nonzero" stroke-linejoin="miter" stroke-miterlimit="10" stroke-dasharray="" stroke-dashoffset="0" style="mix-blend-mode: normal"><g stroke="none" stroke-width="0" stroke-linecap="butt"><path d="M185.2013,413.28959v-7.60796h97.01963v7.60796z" data-paper-data="{&quot;origPos&quot;:null}" fill="#585858"/><path d="M282.1456,407.79086l-97.37177,-0.10684c0,0 0.11684,-35.89937 3.67992,-39.92626c3.76554,-4.25569 15.1394,-5.11154 24.83141,-5.45968c9.85988,-0.35419 13.42036,0.14589 23.22262,1.26773c4.25784,0.40608 45.72756,32.39541 45.72756,32.39541z" data-paper-data="{&quot;origPos&quot;:null}" fill="#bebebe"/><path d="M282.51721,395.90412l-24.20354,0.10146l-45.08324,-33.83007c0,0 22.96203,-0.52558 26.81119,1.47087c3.66016,1.89844 42.4756,32.25774 42.4756,32.25774z" data-paper-data="{&quot;origPos&quot;:null}" fill="#7f7f7f"/></g><path d="M210.49849,323.19951c-24.93783,-3.34506 -28.65448,-1.81327 -22.81221,-45.36807c6.80709,-50.7478 9.8846,-51.73608 35.37866,-48.31638c25.60807,3.43498 27.51698,6.48838 20.83362,56.55811c-5.73427,42.95946 -9.52118,40.32942 -33.40007,37.1264z" data-paper-data="{&quot;index&quot;:null,&quot;origRot&quot;:0}" fill="#0a0a66" stroke="none" stroke-width="0" stroke-linecap="butt"/><path d="M252.4798,360.1867c3.63663,8.35208 3.75912,15.0421 3.75912,15.0421c0,0 -2.99092,-3.45858 -7.8787,-3.45541c-24.85525,1.32843 -35.06213,20.38285 -48.26245,21.01132c-21.38152,0.3846 -27.60879,-11.59218 -23.41027,-29.01892c4.19854,-17.42674 7.0782,-18.95776 7.30936,-41.66392c0.14802,-14.53973 9.14193,-19.86792 27.77752,-19.90468c16.5853,-0.0327 23.48675,-2.25348 24.82249,8.60487c1.33573,10.85833 9.3061,39.37266 15.88293,49.38466z" data-paper-data="{&quot;index&quot;:null}" fill="#0a0a66" stroke="none" stroke-width="0" stroke-linecap="butt"/><g><path d="M234.91264,199.39007c-10.86384,-42.81462 -7.17709,-56.44217 10.10402,-61.52797c16.38889,-4.8232 28.27638,5.00492 39.9795,47.28358c10.8528,39.2069 9.65921,41.73006 -14.19309,48.17346c-22.83943,6.16976 -25.81165,5.7915 -35.8904,-33.92904z" data-paper-data="{&quot;index&quot;:null,&quot;origRot&quot;:0}" fill="#8d0000" stroke="none" stroke-width="0" stroke-linecap="butt"/><g data-paper-data="{&quot;origPos&quot;:null}"><g data-paper-data="{&quot;origPos&quot;:null,&quot;origRot&quot;:0}"><path d="M358.307,259.12323c6.71478,6.37317 8.55639,13.93812 6.8385,23.03503c-1.62577,8.60912 -5.44534,12.05684 -11.16659,18.29044c-5.72124,6.23359 -9.11958,8.88823 -15.80934,9.38164c-9.31406,0.68699 -9.41643,-0.28456 -18.55446,-7.38032c-11.5912,-9.00064 -14.30353,-18.31788 -10.18791,-29.44585c3.74962,-10.13841 12.02609,-25.06007 22.49912,-26.06445c10.00796,-0.95979 15.73467,2.07907 26.38068,12.18351z" data-paper-data="{&quot;origPos&quot;:null}" fill="#a6a6a6" stroke="none" stroke-width="0" stroke-linecap="butt"/><path d="M356.7798,293.94204c-5.41661,7.13148 -16.31933,0.42237 -18.63445,-4.98796c-1.97296,-2.67562 3.61233,-12.66876 9.55976,-11.62721c5.9441,1.04094 4.04788,6.5001 1.64862,9.72058" data-paper-data="{&quot;origPos&quot;:null}" fill="none" stroke="#5b5b5b" stroke-width="2" stroke-linecap="round"/><path d="M351.21429,300.99077c-6.50232,3.13929 -10.7556,2.03936 -17.69751,-6.02875c-1.97294,-2.6756 0.54621,-9.2606 5.80325,-10.48673" data-paper-data="{&quot;origPos&quot;:null}" fill="none" stroke="#5b5b5b" stroke-width="2" stroke-linecap="round"/><path d="M346.12674,306.20898c-8.03816,1.37985 -10.72758,2.44144 -17.6695,-5.62668c-1.97294,-2.6756 0.54619,-9.26058 5.80324,-10.48672" data-paper-data="{&quot;origPos&quot;:null}" fill="none" stroke="#5b5b5b" stroke-width="2" stroke-linecap="round"/><path d="M341.1878,308.92291c-8.03816,1.37985 -12.63817,1.09831 -17.45408,-5.43276c-1.97294,-2.67561 0.47089,-7.44416 5.72793,-8.67028" data-paper-data="{&quot;origPos&quot;:null}" fill="none" stroke="#5b5b5b" stroke-width="2" stroke-linecap="round"/><path d="M346.92538,260.17363c2.98003,6.061 2.85595,11.49209 -1.82495,16.72985c-3.77237,4.22119 -4.28323,4.68994 -8.56592,8.72567c-3.14413,2.96285 -5.4076,3.56159 -8.07376,0.42291c-3.04285,-3.58212 3.03179,-9.22546 4.19491,-13.65188c1.31964,-5.02206 -1.46752,-7.8182 1.92039,-12.54504" data-paper-data="{&quot;origPos&quot;:null}" fill="none" stroke="#5b5b5b" stroke-width="2" stroke-linecap="round"/></g><path d="M331.9207,228.41186c14.79543,13.88492 16.94989,23.09222 0.14266,44.4165c-17.68466,19.70663 -27.36164,18.6218 -42.14053,7.24185c-14.46302,-11.13674 -4.23977,-10.69818 -27.24065,-30.66401c-15.4928,-13.44849 -21.53895,-24.30908 -7.2882,-41.71535c15.08963,-16.70995 26.92223,-12.17963 42.75363,0.27159c21.58771,16.97855 24.98471,12.20182 33.77311,20.44937z" data-paper-data="{&quot;index&quot;:null,&quot;origPos&quot;:null,&quot;origRot&quot;:0}" fill="#8d0000" stroke="none" stroke-width="0" stroke-linecap="butt"/></g></g><path d="M218.44682,77.32611c24.14184,-0.25715 53.0975,23.33845 51.85022,43.15593c-1.2473,19.81748 -20.68631,29.09914 -44.82814,29.35628c-24.14184,0.25716 -56.23388,-0.64287 -59.57363,-31.85342c-3.33975,-31.21055 28.40971,-40.40165 52.55153,-40.65881z" data-paper-data="{&quot;origRot&quot;:0}" fill="#8d0000" stroke="none" stroke-width="0" stroke-linecap="butt"/><g><path d="M182.18937,208.49857c10.17782,-15.36742 7.00548,-12.9936 40.36398,12.96342c29.57544,22.94152 28.80886,21.88313 17.93861,34.82924c-16.77063,14.44114 -36.26517,20.72079 -54.29247,6.79583c-22.15999,-18.20258 -16.2289,-36.13949 -4.01014,-54.58851z" data-paper-data="{&quot;origPos&quot;:null}" fill="#101099" stroke="none" stroke-width="0" stroke-linecap="butt"/><g data-paper-data="{&quot;origPos&quot;:null}"><path d="M252.21635,236.96866c-9.47506,4.45301 -23.60854,-7.78868 -35.27938,-17.61548c-15.53218,-13.07802 -24.65633,-22.52959 -24.00807,-30.15498c0.69171,-8.13603 38.83585,-50.34258 52.82805,-66.96047c4.59964,-5.46278 13.08509,-10.55985 19.98359,-8.71332c8.64218,2.31326 23.68214,22.89269 23.68214,22.89269c0,0 23.04838,33.23296 17.77526,39.49561c-12.12596,14.40146 -43.67557,55.74239 -54.9816,61.05596z" data-paper-data="{&quot;origPos&quot;:null}" fill="#e50000" stroke="none" stroke-width="0" stroke-linecap="butt"/><path d="M191.96678,224.0521c-10.82462,-8.94205 -20.01564,-21.6157 -16.79378,-26.02836c3.22186,-4.41266 2.91933,-8.2244 9.85848,-8.58527c7.78686,-0.40497 13.93842,-12.65349 20.16421,-18.4223c5.16664,-4.78744 29.26743,14.35712 40.86142,23.44916c11.59396,9.09205 24.59828,22.66295 18.25678,30.30858c-8.2996,10.00643 -1.41924,7.92257 -2.11424,15.27838c-0.35092,8.82552 -7.79435,12.29122 -14.98357,10.79666c-10.11903,-2.10364 -11.34106,-1.82502 -23.96529,-7.02071c-12.62423,-5.19568 -20.48019,-10.85128 -31.284,-19.77615z" data-paper-data="{&quot;origPos&quot;:null}" fill="#e50000" stroke="none" stroke-width="0" stroke-linecap="butt"/><path d="M252.12941,232.89468l52.12786,-61.90992" data-paper-data="{&quot;origPos&quot;:null}" fill="none" stroke="#000000" stroke-width="2" stroke-linecap="round"/><path d="M259.13149,234.14389c0,0 -12.02666,-1.19564 -23.33409,-4.60278c-10.49176,-3.16137 -16.78391,-6.16489 -33.48166,-18.60047" data-paper-data="{&quot;origPos&quot;:null}" fill="none" stroke="#8d0000" stroke-width="2" stroke-linecap="round"/></g><path d="M268.6867,129.28663c-8.30913,-8.95477 -28.26638,-1.31287 -27.92232,-1.82968c4.41708,-6.635 18.91359,-19.85398 26.55449,-17.21011c7.7113,2.66824 13.18394,1.51249 34.13051,27.34186c13.2679,16.01298 17.2808,26.70626 11.19777,33.27942c-7.26238,7.84753 -13.91248,5.17077 -23.44357,-4.71039c-11.34965,-11.76649 0.07609,-14.67801 -20.51688,-36.8711z" data-paper-data="{&quot;origPos&quot;:null}" fill="#8d0000" stroke="none" stroke-width="0" stroke-linecap="butt"/></g><g><g data-paper-data="{&quot;origPos&quot;:null}"><path d="M331.22633,57.10471c28.40537,0 45.28312,17.7288 44.08733,60.68429c-0.08888,21.06125 -7.67684,29.48893 -11.19717,34.26884c-7.75683,6.18381 -10.43307,7.02901 -21.46993,7.36566c-44.30504,-1.61335 -58.11069,-30.35061 -57.91836,-51.26581c0.30795,-35.11504 18.09275,-51.05297 46.49812,-51.05297z" data-paper-data="{&quot;origPos&quot;:null}" fill="#ffceb3" stroke="none" stroke-width="0" stroke-linecap="butt"/><g data-paper-data="{&quot;origPos&quot;:null}"><path d="M364.88901,147.24349l7.03377,-26.32168l18.32425,25.91582z" data-paper-data="{&quot;origPos&quot;:null}" fill="#ffceb3" stroke="none" stroke-width="0" stroke-linecap="butt"/><path d="M372.93732,121.67931c0,0 16.59467,22.8743 16.62474,25.26738c0.01162,2.10075 -23.61505,0.69123 -23.61505,0.69123" data-paper-data="{&quot;origPos&quot;:null}" fill="none" stroke="#b37959" stroke-width="2" stroke-linecap="round"/></g><path d="M366.17037,115.57835c0,13.55767 -2.06831,24.54836 -13.83925,24.54836c-7.6432,0 -13.83923,-10.99068 -13.83923,-24.54836c0,-13.55767 4.36054,-24.54836 13.83923,-24.54836c9.47867,0 13.83925,10.99068 13.83925,24.54836z" data-paper-data="{&quot;origPos&quot;:null}" fill="#ffffff" stroke="none" stroke-width="0" stroke-linecap="butt"/></g><path d="M332.58834,101.60794c0,0 -31.36606,-6.44108 -37.93815,12.80231c-2.27517,25.39164 23.84289,41.48713 23.84289,41.48713c0,0 -24.77515,-4.0832 -36.30765,-24.88745c-9.4724,-17.08791 -8.14555,-35.32393 -3.77544,-50.80572c13.11951,-29.58116 42.04279,-36.81044 62.15824,-35.26714c-0.2058,0.26869 -7.9799,56.67088 -7.9799,56.67088z" data-paper-data="{&quot;origPos&quot;:null}" fill="#661800" stroke="none" stroke-width="0" stroke-linecap="butt"/><path d="M338.86103,39.65862c11.77386,-6.77441 31.23561,-10.78567 31.23561,-10.78567c0,0 -4.05313,7.82495 -4.7743,14.55134c-0.81468,7.59837 0.84751,6.41871 0.84751,13.4257c0,11.86816 -39.84827,11.30174 -39.98209,1.43261c-0.12694,-9.36185 2.17746,-12.58495 12.67324,-18.62399z" data-paper-data="{&quot;origPos&quot;:null}" fill="#661800" stroke="none" stroke-width="0" stroke-linecap="butt"/><path d="M318.36384,113.89127c2.70348,10.29079 -0.57058,20.06897 -7.31281,21.84025c-6.74224,1.77126 -14.3995,-5.13521 -17.10298,-15.426c-2.70348,-10.29079 0.57058,-20.06897 7.31281,-21.84025c6.74224,-1.77123 14.3995,5.13521 17.10298,15.426z" data-paper-data="{&quot;origPos&quot;:null,&quot;origRot&quot;:0}" fill="#ffceb3" stroke="none" stroke-width="0" stroke-linecap="butt"/><path d="M306.68919,84.78588c0,-6.83485 6.93087,-11.86842 13.76572,-11.86842c6.83485,0 18.92597,5.03357 18.92597,11.86842c0,9.33442 -6.74767,18.65231 -11.20277,26.85495c-4.51006,8.30384 -18.97399,21.32568 -21.15831,19.55362c-1.37946,-1.1191 4.45488,-6.01276 5.19991,-22.31999c0.39336,-7.36921 -5.53052,-17.25372 -5.53052,-24.08857z" data-paper-data="{&quot;origPos&quot;:null}" fill="#661800" stroke="none" stroke-width="0" stroke-linecap="butt"/><path d="M365.10872,121.82836c0,6.65611 -2.06535,12.05196 -4.61306,12.05196c-2.54773,0 -4.61308,-5.39583 -4.61308,-12.05196c0,-6.65611 2.06535,-12.05199 4.61308,-12.05199c2.54773,0 4.61306,5.39585 4.61306,12.05199z" data-paper-data="{&quot;origPos&quot;:null}" fill="#000000" stroke="none" stroke-width="0" stroke-linecap="butt"/><path d="M393.21588,76.91943c7.01375,16.64514 6.72367,20.75288 18.11297,25.10694c11.64434,4.45157 19.89349,-2.06718 24.1413,-3.60384c-4.37399,13.68084 -24.41168,25.09725 -43.52193,24.7751c-31.2598,-0.52696 -30.61645,-7.32176 -44.15846,-21.4255c-12.73047,-16.53829 -13.48017,-40.69602 -13.48017,-40.69602c0,0 -1.1363,-13.77698 18.24783,-13.77698c10.25456,0 32.95351,11.33483 40.65845,29.62033z" data-paper-data="{&quot;origPos&quot;:null}" fill="#661800" stroke="none" stroke-width="0" stroke-linecap="butt"/><path d="M365.63286,103.37645c0,0 0.05419,14.64792 -0.61953,14.70053c-2.18683,0.17074 -14.54884,-12.32106 -23.18523,-27.30524c-6.55064,-11.36538 -7.89968,-38.70521 -7.89968,-38.70521" data-paper-data="{&quot;origPos&quot;:null}" fill="none" stroke="#000000" stroke-width="2.5" stroke-linecap="round"/><path d="M330.76332,140.80766c0,0 8.0602,0.67415 13.47885,3.70859c4.47837,2.50789 9.80611,8.14139 9.80611,8.14139" data-paper-data="{&quot;origPos&quot;:null}" fill="none" stroke="#b37959" stroke-width="2" stroke-linecap="round"/></g><g><g><g data-paper-data="{&quot;origPos&quot;:null}"><path d="M128.91927,224.16324c-8.03979,-1.99034 -17.32894,-9.14478 -21.62668,-13.25545c-7.85882,-7.51671 -10.99964,-29.98503 -6.4218,-35.90056c7.19577,-9.29833 20.95711,-21.17889 26.67612,-22.48913c7.65418,-1.75362 15.75186,4.29467 22.48596,11.67893c7.62791,8.36435 14.40766,19.90496 10.18634,30.67327c-6.86357,14.15249 -6.16008,20.76572 -15.53937,20.54164c-4.16246,7.76977 -7.72077,10.74165 -15.76055,8.75129z" data-paper-data="{&quot;origPos&quot;:null}" fill="#e5e5e5" stroke="none" stroke-width="0" stroke-linecap="butt"/><path d="M127.93027,215.34682c0,0 5.8461,4.01628 6.82417,1.03555c0.60441,-1.84194 -3.744,-0.26269 -4.85895,-4.43664c-0.50029,-1.87288 -0.54362,-3.82404 5.35264,-5.9599c4.92794,-1.78506 8.5561,8.64104 8.5561,8.64104" data-paper-data="{&quot;origPos&quot;:null}" fill="none" stroke="#989898" stroke-width="2" stroke-linecap="round"/></g><g data-paper-data="{&quot;origPos&quot;:null,&quot;origRot&quot;:0}"><path d="M170.86783,192.75388c-16.83145,11.33125 -26.28735,11.38091 -43.33263,-9.75363c-15.2728,-21.62962 -12.0599,-30.82193 2.32583,-42.69496c14.07826,-11.61929 11.37377,-1.75052 35.96093,-19.72672c16.56129,-12.10833 28.49575,-15.5837 42.2908,2.18591c12.92937,18.43228 5.87743,28.95869 -9.78709,41.61921c-21.36022,17.26392 -17.46006,21.63947 -27.45782,28.37021z" data-paper-data="{&quot;index&quot;:null,&quot;origPos&quot;:null}" fill="#e50000" stroke="none" stroke-width="0" stroke-linecap="butt"/><path d="M214.40241,150.33982c-4.15577,3.06019 -12.83124,10.52415 -23.25675,20.28393c-9.57821,8.96655 -12.2401,16.62402 -19.05923,21.30992c-16.47692,11.32243 -23.97283,8.93964 -32.66414,2.01761" data-paper-data="{&quot;origPos&quot;:null}" fill="none" stroke="#8d0000" stroke-width="2" stroke-linecap="round"/></g></g><g data-paper-data="{&quot;origRot&quot;:0}"><path d="M229.13087,108.66653c44.00817,3.79411 55.67012,11.75039 54.80071,29.74334c-0.82454,17.06395 -14.01055,25.06608 -57.78801,22.24067c-40.59677,-2.62019 -42.58827,-4.57597 -40.8439,-29.22156c1.67027,-23.59904 3.00335,-26.28235 43.83117,-22.76244z" data-paper-data="{&quot;origPos&quot;:null,&quot;index&quot;:null}" fill="#e50000" stroke="none" stroke-width="0" stroke-linecap="butt"/><path d="M256.11478,160.87921c-29.51797,1.45804 -55.70871,-1.44682 -55.70871,-1.44682" data-paper-data="{&quot;origPos&quot;:null}" fill="none" stroke="#8d0000" stroke-width="2" stroke-linecap="round"/></g></g><g stroke="none" stroke-width="0" stroke-linecap="butt"><g><path d="M69.28324,255.38119l7.50203,-1.26518l16.13414,95.66869l-7.50203,1.26519z" data-paper-data="{&quot;origPos&quot;:null}" fill="#585858"/><path d="M90.82701,350.06118l-16.08735,-96.03369c0,0 35.41892,-5.85477 39.98227,-3.01097c4.82263,3.00539 7.55802,14.07855 9.51307,23.57771c1.98894,9.66369 2.08791,13.25776 2.61179,23.11008c0.30765,4.26608 -24.33993,50.47812 -24.33993,50.47812z" data-paper-data="{&quot;origPos&quot;:null}" fill="#bebebe"/><path d="M102.61003,348.45089l-4.12504,-23.84964l25.86177,-50.08134c0,0 4.33679,22.55489 3.00824,26.68247c-1.26333,3.9249 -24.74498,47.24854 -24.74498,47.24854z" data-paper-data="{&quot;origPos&quot;:null}" fill="#7f7f7f"/></g><path d="M159.25469,284.04497c-16.15086,-19.29339 -19.92767,-20.67015 13.76891,-48.8782c11.80745,-10.14596 27.05281,-18.26611 43.56389,1.45761c16.58492,19.81192 31.08103,10.0999 -7.63165,42.54942c-33.21521,27.84146 -34.23612,23.34531 -49.70116,4.87118z" data-paper-data="{&quot;index&quot;:null,&quot;origRot&quot;:0}" fill="#101099"/><path d="M132.83494,312.89203c-7.63102,4.97492 -14.20752,6.20824 -14.20752,6.20824c0,0 2.91304,-3.52443 2.09708,-8.34362c-5.4433,-24.28825 -25.92979,-31.18429 -28.74469,-44.09628c-3.93495,-21.01983 6.83949,-29.15211 24.72178,-27.91008c17.8823,1.24205 20.77847,13.27532 43.20689,9.7273c15.78388,0.06003 20.07723,2.62746 23.21255,20.99746c2.79034,16.34892 0.63829,29.88308 -9.84673,33.00593c-10.48501,3.12285 -31.66052,2.26086 -40.4394,10.41108z" data-paper-data="{&quot;index&quot;:null}" fill="#101099"/></g></g></g></svg>