<svg version="1.1" xmlns="http://www.w3.org/2000/svg" xmlns:xlink="http://www.w3.org/1999/xlink" width="327.47669" height="266.4632" viewBox="0,0,327.47669,266.4632"><g transform="translate(-101.43061,-46.51513)"><g data-paper-data="{&quot;isPaintingLayer&quot;:true}" fill-rule="nonzero" stroke-linecap="round" stroke-miterlimit="10" stroke-dasharray="" stroke-dashoffset="0" style="mix-blend-mode: normal"><path d="M253.25442,251.75408c-0.58541,0.22705 -3.9523,-6.40995 -8.88218,-17.61355c-3.01995,-6.86144 -7.26268,-16.79798 -11.03718,-26.9974c-3.25066,-8.84112 -6.64121,-18.55476 -9.98557,-28.87113c-4.80926,-14.83488 -8.69547,-28.36574 -11.7856,-40.38006c0.08609,0.07959 0.16831,0.15501 0.24512,0.22202c0.03387,0.02942 0.06689,0.0536 0.08951,0.07561c0.03947,0.03847 0.06891,0.07876 0.0978,0.11753c0.05534,0.07458 0.10063,0.14412 0.13643,0.2063v0c-0.00794,-0.01857 -0.13108,-0.07022 -0.3465,-0.18099c-0.79296,-0.38906 -1.64076,-0.7625 -2.47867,-1.13533c-3.23282,-1.43808 -6.29977,-2.75823 -9.13957,-4.00178c-13.52228,-5.92136 -21.80921,-9.85973 -21.52853,-10.54951c0.2361,-0.57986 8.97073,2.20093 22.82847,7.29378c2.8351,1.04203 6.12425,2.2629 9.38512,3.54618c0.84799,0.33303 1.75637,0.68953 2.67292,1.09354c0.17147,0.06835 0.44377,0.19073 0.80132,0.39611v0c0.07699,0.08799 0.16244,0.18331 0.25579,0.28826c0.04778,0.05415 0.09972,0.11029 0.14578,0.1723c0.02709,0.03562 0.0453,0.07055 0.06491,0.10259c0.04528,0.07436 0.0941,0.14608 0.14711,0.22185c3.67248,12.16777 7.76398,25.20627 12.82457,40.52551c3.45618,10.46583 6.82743,20.3667 9.93106,29.41435c3.04585,8.95254 7.65915,21.46224 9.74229,27.29669c4.10166,11.48825 6.39828,18.53204 5.81562,18.75708z" data-paper-data="{&quot;index&quot;:null}" fill="#000000" stroke="none" stroke-width="9.375" stroke-linejoin="round"/><path d="M218.70193,134.03093c0.3942,0.29964 -1.4777,3.46718 -4.61458,8.97652c-3.53345,6.20534 -7.12048,12.70678 -12.34126,23.05886c-4.78954,9.5027 -9.23326,18.90173 -14.66199,30.64486c-0.09649,0.20953 -1.53422,3.32336 -1.63101,3.53276c-5.2696,11.42272 -9.92662,23.09497 -13.56582,32.28095c-6.96494,17.58515 -11.37226,29.29634 -12.24649,28.99014c-0.75366,-0.26489 2.21748,-12.48788 8.39161,-30.50923c3.26242,-9.52275 7.57937,-21.187 12.94185,-32.93621c0.53648,-1.17591 1.07977,-2.35954 1.62998,-3.54871c5.31626,-11.50152 10.27308,-21.46448 15.32461,-30.58002c5.42557,-9.79491 10.0441,-16.97907 14.03038,-22.3811c3.80643,-5.15886 6.38689,-7.7989 6.74274,-7.52883z" data-paper-data="{&quot;index&quot;:null}" fill="#000000" stroke="none" stroke-width="9.375" stroke-linejoin="round"/><path d="M220.51904,162.13229c0.03456,-0.53239 7.95518,-0.55878 20.72522,-0.76102c13.8198,-0.21892 29.35519,-0.60305 49.86703,-1.67989c1.35738,-0.07124 2.70502,-0.14348 4.0433,-0.21772c13.15931,-0.72623 24.73817,-1.57634 35.09509,-2.42665c18.85793,-1.55072 31.26949,-3.03516 31.34657,-2.54675c0.11997,0.75913 -12.18408,3.37059 -31.10883,5.58527c-10.2532,1.20042 -22.1045,2.28734 -35.20463,3.04931c-1.34264,0.07797 -2.69593,0.15294 -4.05819,0.22431c-19.97781,1.04965 -36.82922,1.08712 -50.06351,0.60845c-12.80468,-0.46322 -20.67301,-1.35548 -20.64204,-1.8353z" data-paper-data="{&quot;index&quot;:null}" fill="#000000" stroke="none" stroke-width="9.37509" stroke-linejoin="round"/><path d="M252.69507,250.3364c0.13974,-0.60819 11.57255,0.9005 29.71713,5.00681c18.46842,4.18037 42.60653,10.79048 69.48107,20.73273c3.78779,1.40108 7.5041,2.82196 11.14678,4.25804c14.05926,5.54132 26.45266,10.96935 37.64753,16.42599v0c6.01695,2.93108 11.11593,5.56967 15.96071,8.55312c1.88212,1.15654 3.6225,2.30218 5.2492,3.62871c0.60085,0.48725 1.19192,1.01531 1.7424,1.62077c-0.11476,0.57342 -0.18832,1.28383 -0.33949,2.14932c-0.81747,-1.23864 -1.30758,-2.50453 -1.48401,-3.70877c0.29793,-1.50276 0.84431,-2.85618 1.33001,-3.97977c3.45074,-8.07666 5.28623,-12.7887 5.61795,-12.70883c0.54707,0.13167 -0.46201,5.11875 -3.26518,13.54398c-0.37011,1.13291 -0.77308,2.37117 -0.89826,3.52671c-0.54993,1.13118 -0.94167,2.33843 -1.2148,3.59313c-0.53201,-0.03084 -1.26124,-0.09557 -2.06541,-0.24973c-0.42086,-0.41484 -0.91867,-0.8019 -1.47802,-1.21195c-1.52172,-1.11011 -3.18291,-2.07545 -5.07161,-3.12306c-4.87226,-2.69474 -9.87761,-5.04087 -15.97952,-7.79663v0c-11.34618,-5.11922 -23.5632,-10.21783 -37.65511,-15.68134c-3.62423,-1.40531 -7.31552,-2.80378 -11.07505,-4.19468c-26.84573,-9.93163 -50.26475,-16.88696 -68.58434,-21.98121c-17.80476,-4.95124 -28.94936,-7.67367 -28.78192,-8.40337z" data-paper-data="{&quot;index&quot;:null}" fill="#000000" stroke="none" stroke-width="9.375" stroke-linejoin="round"/><path d="M261.64644,91.17258c8.9835,27.64084 -5.70855,57.37565 -33.28149,66.56778c-27.57238,9.19156 -57.37529,-5.70863 -66.56732,-33.28127c-9.1916,-27.5724 6.59739,-55.04764 33.28082,-66.56755c27.51029,-11.87675 57.35822,4.94422 66.568,33.28104z" data-paper-data="{&quot;index&quot;:null}" fill="#f2f2f2" stroke="none" stroke-width="9.0943" stroke-linejoin="round"/><path d="M164.5096,85.88313c23.00896,-45.14138 78.4117,-44.04632 97.05653,5.23721c6.76086,20.80359 0.10971,42.79164 -15.3493,56.31672c-34.93659,24.78251 -92.12942,-0.58297 -81.70723,-61.5539z" data-paper-data="{&quot;index&quot;:null}" fill="#ffffff" stroke="none" stroke-width="9.09417" stroke-linejoin="round"/><path d="M240.29357,63.10869c-0.23181,0.28853 -5.48448,-4.86053 -16.96806,-7.32991v0c-4.81302,-1.03951 -10.67835,-1.38438 -17.19256,-0.20512c-5.27477,0.95443 -10.84903,2.8846 -16.39444,5.99438c-4.91389,2.7576 -9.73665,6.4139 -14.0823,11.00398c-3.95185,4.17765 -7.50755,9.13514 -10.18008,14.76093c-2.49131,5.24511 -4.22347,11.10891 -4.73642,17.24315c-0.51375,6.08004 0.19168,12.44412 2.18885,18.56894c2.18868,6.74325 5.92299,13.13242 10.72492,18.9264c4.7905,5.80541 11.63234,10.0335 19.20467,12.57051c0.33784,0.11317 0.67757,0.22234 1.01867,0.3281c7.75862,2.41005 15.94564,3.00061 23.76816,2.14715c8.7497,-0.96826 17.02488,-3.75799 24.00072,-8.17945c7.62394,-4.82371 13.52929,-11.62779 17.04597,-19.13321v0c3.76211,-7.98244 4.80237,-16.72464 4.02318,-24.62126c-0.88633,-8.9896 -3.99912,-17.12698 -7.77554,-23.75595c-4.70706,-8.24239 -10.40043,-14.23686 -15.83752,-18.40553c-5.69435,-4.35377 -10.76031,-6.46746 -14.4225,-7.58895c-3.61075,-1.10618 -5.66819,-1.30914 -5.65408,-1.51182c0.0103,-0.13544 2.09757,-0.40171 5.94141,0.37466c3.84922,0.77706 9.34805,2.64303 15.45794,6.91537c5.84907,4.0782 12.05491,10.1384 17.20906,18.62797c4.1583,6.83331 7.63846,15.33808 8.78136,24.93966c1.00781,8.47432 0.02811,17.92694 -3.97095,26.75809v0c-3.7715,8.28061 -10.11913,15.77636 -18.42659,21.11751c-7.56538,4.85707 -16.46779,7.93531 -25.86607,8.99414c-8.39307,0.95662 -17.2046,0.3281 -25.63762,-2.28182c-0.37045,-0.11488 -0.73956,-0.23318 -1.1074,-0.35525c-8.27857,-2.73009 -15.8109,-7.46271 -21.2632,-14.03498c-5.11056,-6.18473 -9.07964,-13.10232 -11.43424,-20.47304c-2.13574,-6.71228 -2.83774,-13.66104 -2.20952,-20.30835c0.63935,-6.69504 2.58815,-13.01093 5.35568,-18.61695c2.9643,-6.00507 6.84334,-11.22965 11.12748,-15.5867c4.70581,-4.7874 9.90181,-8.54587 15.17033,-11.33427c5.94449,-3.1482 11.91481,-5.01382 17.52914,-5.83984c6.94223,-1.02141 13.1342,-0.38677 18.13077,0.96039v0c12.35647,3.34088 16.25602,9.61118 16.48089,9.33104z" data-paper-data="{&quot;index&quot;:null}" fill="#000000" stroke="none" stroke-width="9.375" stroke-linejoin="round"/><path d="M218.13537,109.04291c1.83746,-0.62868 4.05804,1.15415 4.95743,3.97929c0.89926,2.82493 0.13795,5.62767 -1.69961,6.25607c-1.83654,0.62835 -4.05712,-1.15447 -4.9565,-3.97963c-0.89926,-2.82493 -0.13842,-5.62751 1.6987,-6.25576z" data-paper-data="{&quot;index&quot;:null}" fill="#000000" stroke="none" stroke-width="9.375" stroke-linejoin="round"/><path d="M256.31775,95.53903c1.83746,-0.62868 4.05804,1.15414 4.95743,3.97929c0.89926,2.82493 0.13794,5.62768 -1.69962,6.25607c-1.83654,0.62835 -4.05712,-1.15446 -4.9565,-3.97963c-0.89926,-2.82493 -0.13843,-5.62751 1.69869,-6.25576z" data-paper-data="{&quot;index&quot;:null}" fill="#000000" stroke="none" stroke-width="9.375" stroke-linejoin="round"/><path d="M177.82617,108.90207c0,0 5.68199,9.75958 7.23699,21.35149c2.07426,15.46284 4.24378,62.09576 4.24378,62.09576c0,0 -21.15442,-6.75495 -28.36286,-18.95257c-4.27383,-7.23187 -7.88267,-17.55101 -7.88267,-17.55101l-13.71026,28.71459c0,0 -14.19835,-30.01876 -12.59838,-48.79644c1.52742,-17.92631 6.00985,-17.81882 6.00985,-17.81882c0,0 -31.46865,9.49789 -31.33156,9.10282c13.60502,-39.21188 40.62488,-64.77387 81.01653,-77.05799c72.365,-17.85136 78.98673,38.88891 78.98673,38.88891l-14.37168,-7.64557l-2.37404,17.28045l-17.28628,-11.38792l-1.46003,15.36615l-16.28598,-8.5596l-3.51229,15.56161l-13.45766,-9.55988l-2.84543,17.44716l-12.01474,-8.47915z" fill="#000000" stroke="none" stroke-width="0" stroke-linejoin="miter"/><path d="M172.46835,101.25067c0,0 6.96403,19.38281 8.51902,30.97472c2.07426,15.46283 3.4619,53.88669 3.4619,53.88669c0,0 -13.33048,-2.62749 -20.53891,-14.82511c-4.27383,-7.23187 -10.68808,-23.98372 -10.68808,-23.98372l-14.65305,29.04803c0,0 -9.64536,-23.14342 -8.04539,-41.92109c1.52742,-17.92631 11.77571,-22.50976 11.77571,-22.50976c0,0 -34.29697,10.49819 -34.15989,10.10311c13.60502,-39.21188 52.99597,-62.78495 76.5844,-68.59593c62.4371,-15.93122 72.65739,29.99006 72.65739,29.99006l-12.95752,-8.14571l-2.37404,17.28045l-17.28628,-11.38792l-1.46003,15.36615l-16.28598,-8.5596l-3.51229,15.56161l-13.45766,-9.55988l-2.84543,17.44716l-14.73386,-10.16923z" fill="#754200" stroke="none" stroke-width="0" stroke-linejoin="miter"/><path d="M206.95508,106.10115c-0.04226,-0.1142 1.20541,-0.46774 3.43532,-0.60788c1.1369,-0.07146 5.05878,-0.19413 8.50796,0.59438c3.42686,0.7834 6.38255,2.47609 7.078,2.98408c1.37117,1.00186 1.72058,1.76503 1.54082,1.82298c-0.08962,0.02897 -1.181,-0.73781 -2.72116,-1.37923c-2.06652,-0.86062 -5.44083,-2.82008 -11.68506,-3.20366c-4.6176,-0.28366 -6.10275,-0.06624 -6.15588,-0.21067z" data-paper-data="{&quot;index&quot;:null}" fill="#000000" stroke="none" stroke-width="9.375" stroke-linejoin="round"/><path d="M249.29361,130.53624l6.99738,12.33885c0,0 -49.59949,19.93468 -55.48584,-1.44466c-8.47609,-30.78537 33.71883,-10.94555 43.28548,-11.05554c13.06512,-0.15019 15.26884,-7.67812 15.26884,-7.67812" fill="#ffffff" stroke="#000000" stroke-width="1.5" stroke-linejoin="miter"/><path d="M225.67919,138.22951l-24.5315,0.44624" fill="none" stroke="#000000" stroke-width="1.5" stroke-linejoin="miter"/><path d="M318.95217,195.86687c3.50497,2.00637 6.9362,4.02045 10.29229,6.03738c12.95336,7.78329 24.28233,15.1802 34.42447,22.40772v0c5.45141,3.88291 10.04563,7.326 14.33229,11.06733c1.6657,1.45101 3.19343,2.86789 4.57914,4.44443c0.51229,0.57963 1.00825,1.19792 1.45137,1.88584c-0.20772,0.54664 -0.39739,1.23524 -0.68918,2.06396c-0.6021,-1.35647 -0.87679,-2.68583 -0.85228,-3.90269c0.54159,-1.43308 1.30361,-2.67793 1.96791,-3.70606c4.73505,-7.39727 7.3222,-11.74225 7.63623,-11.60879c0.51791,0.22008 -1.29956,4.97254 -5.45333,12.82037c-0.55181,1.0564 -1.15342,2.21128 -1.46738,3.33038c-0.7289,1.02504 -1.3143,2.15119 -1.79053,3.3437c-0.51965,-0.11811 -1.22825,-0.30217 -1.99597,-0.58682c-0.34672,-0.47855 -0.77389,-0.94238 -1.258,-1.43902c-1.31789,-1.34579 -2.7972,-2.5718 -4.48737,-3.91643c-4.36135,-3.46111 -8.91142,-6.60029 -14.47555,-10.3243v0c-10.347,-6.91969 -21.5563,-13.96259 -34.55471,-21.67451c-3.34298,-1.98355 -6.7532,-3.97144 -10.23198,-5.9631c-24.8411,-14.22144 -62.94839,50.3835 -62.94839,50.3835c0,0 34.12146,-73.62569 65.521,-54.66294z" data-paper-data="{&quot;index&quot;:null}" fill="#000000" stroke="none" stroke-width="9.375" stroke-linejoin="round"/></g></g></svg>