<svg xmlns="http://www.w3.org/2000/svg" xmlns:xlink="http://www.w3.org/1999/xlink" version="1.1" width="120.07286" height="37.89772" viewBox="0,0,120.07286,37.89772"><defs><linearGradient x1="169.00822" y1="172.87897" x2="269.38322" y2="172.87897" gradientUnits="userSpaceOnUse" id="color-1"><stop offset="0" stop-color="#000000" stop-opacity="0"/><stop offset="1" stop-color="#000000"/></linearGradient><linearGradient x1="169.00822" y1="181.62897" x2="269.38322" y2="181.62897" gradientUnits="userSpaceOnUse" id="color-2"><stop offset="0" stop-color="#ff9400" stop-opacity="0"/><stop offset="1" stop-color="#ff9400"/></linearGradient></defs><g><g data-paper-data="{&quot;isPaintingLayer&quot;:true}" fill-rule="nonzero" stroke-linejoin="miter" stroke-miterlimit="10" stroke-dasharray="" stroke-dashoffset="0" style="mix-blend-mode: normal"><path d="M169.00822,182.31647v-18.875h100.375v18.875z" fill="url(#color-1)" stroke="none" stroke-width="0" stroke-linecap="butt" transform="matrix(1,0,0,1,-169.00822,-159.78151)"/><path d="M169.00822,191.06647v-18.875h100.375v18.875z" fill="url(#color-2)" stroke="none" stroke-width="0" stroke-linecap="butt" transform="matrix(1,0,0,1,-169.00822,-159.78151)"/><g><g><path d="M 108.0394 11.563 C 110.2238 11.7963 112.1133 12.8512 113.4011 14.3669 C 114.689 15.8827 115.3752 17.8592 115.1534 19.9358 C 114.9316 22.0124 113.8434 23.7994 112.2645 25.009 C 111.8094 25.3576 110.0175 27.4838 107.5091 28.1299 C 103.5229 29.1565 76.7484 37.0619 75.7858 37.1477 C 75.2522 37.1953 106.9859 26.6764 106.4314 26.6171 C 104.7984 26.4427 74.8105 33.1131 73.6353 32.1712 C 73.2384 31.8531 101.3948 24.1959 101.0696 23.8133 C 100.466 23.1029 71.4015 25.8831 71.0938 25.0074 C 70.7449 24.0146 99.1995 19.3477 99.3173 18.2443 C 99.5391 16.1677 100.6273 14.3807 102.2063 13.1711 C 103.7853 11.9616 105.8548 11.3297 108.0393 11.563 Z " fill="#ff9400" stroke="#000000" stroke-width="1.5" stroke-linecap="butt"/><path d="M 106.0845 16.727 L 106.0561 15.5858 L 112.7544 15.4196 L 112.7828 16.5608 C 112.7828 16.5608 110.4726 17.3974 109.3059 17.4264 C 108.2511 17.4525 106.0845 16.727 106.0845 16.727 Z " fill="#ff9400" stroke="none" stroke-width="0.5" stroke-linecap="butt"/><path d="M 108.9777 17.4957 L 106.5215 16.7077 " fill="none" stroke="#000000" stroke-width="0.5" stroke-linecap="round"/><path d="M 112.1931 16.9236 L 109.5025 17.7072 " fill="none" stroke="#000000" stroke-width="0.5" stroke-linecap="round"/><path d="M 107.889 20.4729 L 108.1293 17.5393 " fill="none" stroke="#000000" stroke-width="0.5" stroke-linecap="round"/><path d="M 110.3595 20.7129 L 110.6287 17.5328 " fill="none" stroke="#000000" stroke-width="0.5" stroke-linecap="round"/><path d="M 108.1464 20.7463 L 106.0268 20.4975 " fill="none" stroke="#000000" stroke-width="0.5" stroke-linecap="round"/><path d="M 112.2436 21.1772 L 109.8717 20.9488 " fill="none" stroke="#000000" stroke-width="0.5" stroke-linecap="round"/><path d="M 105.9733 16.2957 L 106.1945 15.0815 L 112.5819 16.0249 L 112.3607 17.2391 Z " fill="#ff9400" stroke="none" stroke-width="1.5" stroke-linecap="butt"/><path d="M 108.3804 22.9038 C 108.273 23.6703 107.1158 24.1417 105.7957 23.9567 C 104.4756 23.7718 103.4925 23.0004 103.5999 22.2339 C 103.65 21.8766 103.9281 21.5835 104.3445 21.391 C 104.8215 21.1705 105.415 21.5448 106.1198 21.6436 C 106.5562 21.7047 107.0206 21.3673 107.3561 21.5353 C 108.0355 21.8754 108.4523 22.3907 108.3804 22.9038 Z " fill="#ffffff" stroke="#000000" stroke-width="0.65" stroke-linecap="butt"/><path d="M 103.6431 21.9255 L 105.7588 22.5364 " fill="none" stroke="#000000" stroke-width="0.65" stroke-linecap="round"/><path d="M 92.5818 17.9466 C 92.3102 17.6241 98.5497 18.806 98.5053 18.4722 C 98.362 17.3959 75.6255 18.3483 75.7406 17.2711 C 75.776 16.9397 98.6875 14.4504 98.9571 14.2421 C 99.7893 13.5992 100.7883 13.0129 101.8558 12.9159 C 102.225 12.8823 102.2222 13.6065 102.1388 13.9528 C 102.0468 14.3352 101.7526 14.7111 101.3835 14.8788 C 101.0704 15.021 100.649 14.9323 100.3451 14.7679 C 100.0228 14.5934 99.7954 14.2628 99.646 13.9382 C 99.5009 13.6227 99.5007 13.2589 99.4927 12.9152 C 99.485 12.5818 75.1238 13.5707 75.257 13.2638 C 75.4805 12.7492 100.2171 10.9747 100.5373 10.5101 C 100.8896 9.9988 101.2516 9.4913 101.6187 8.9897 C 102.0196 8.4419 83.507 7.7393 83.9651 7.2347 C 84.2061 6.9691 103.338 6.7502 103.7017 6.6955 C 104.3875 6.5924 89.3856 0.6769 90.0772 0.7507 C 90.423 0.7877 106.5293 6.8386 106.817 7.0283 C 107.1263 7.2322 107.2408 7.632 107.373 7.9685 C 107.5529 8.4264 107.7183 8.9051 107.746 9.3925 C 107.7652 9.7283 107.6725 10.0776 107.5099 10.374 C 107.3364 10.6902 107.1045 11.0226 106.7679 11.1755 C 106.4524 11.3189 105.9693 11.4235 105.7161 11.189 C 105.463 10.9546 105.5336 10.478 105.6927 10.1799 C 106.2139 9.2031 106.9213 8.3136 107.6857 7.4986 C 107.9751 7.1901 108.3901 6.9868 108.8039 6.863 C 109.1375 6.7632 109.5099 6.7927 109.8556 6.8495 C 110.2511 6.9144 110.6443 7.0383 110.9973 7.2231 C 111.3585 7.4122 111.6411 7.7177 111.9693 7.9561 C 112.2497 8.1598 112.6933 8.2382 112.8248 8.5508 C 113.0393 9.0608 112.9157 9.6477 112.9116 10.1959 C 112.9092 10.5294 113.0101 10.9236 112.8053 11.1912 C 112.5989 11.461 112.1824 11.5094 111.8435 11.5918 C 111.456 11.6861 110.6508 11.9449 110.6487 11.7159 C 110.6457 11.3782 111.3083 10.7141 111.8333 10.4582 C 112.5657 10.1013 113.4282 10.0237 114.2495 9.9613 C 114.5984 9.9348 114.9608 10.0445 115.2747 10.1966 C 115.6418 10.3747 115.9305 10.6765 116.2467 10.9296 C 116.5349 11.1604 116.8922 11.342 117.0888 11.6488 C 117.2841 11.9534 117.4553 12.3393 117.3719 12.6857 C 117.2799 13.0681 116.9548 13.3925 116.6166 13.6117 C 116.3102 13.8102 115.8974 13.7866 115.5383 13.874 C 115.1792 13.9614 114.8305 14.117 114.46 14.1363 C 114.0263 14.1588 113.1642 14.2471 113.162 13.9977 C 113.1591 13.6803 113.9573 13.2399 114.4498 13.0028 C 114.7688 12.8491 115.1565 12.8627 115.5148 12.8648 C 115.9928 12.8677 116.4672 12.9666 116.9427 13.0173 C 117.2885 13.0543 117.7285 12.8969 117.9811 13.1283 C 118.334 13.4516 118.2875 14.0196 118.4972 14.4417 C 118.6848 14.8193 119.016 15.1291 119.1697 15.5202 C 119.2965 15.8428 119.315 16.1995 119.323 16.5433 C 119.3308 16.8767 119.3878 17.2497 119.2167 17.5386 C 118.9894 17.9224 118.549 18.1475 118.2018 18.4369 C 117.9247 18.6679 117.6803 18.9597 117.3433 19.1001 C 117.0157 19.2365 116.6347 19.2761 116.2783 19.2381 C 115.9218 19.2 115.5577 19.0808 115.2664 18.8783 C 114.9666 18.6699 114.7885 18.3335 114.5673 18.0486 C 114.327 17.7391 114.1218 17.4041 113.8815 17.0945 C 113.6602 16.8097 113.4257 16.5328 113.1824 16.2649 C 112.8777 15.9292 112.5966 15.5642 112.237 15.2831 C 111.7831 14.9282 111.2258 14.7093 110.7591 14.3702 C 110.4112 14.1175 110.1623 13.7466 109.8004 13.5128 C 109.3768 13.2392 108.9017 13.0383 108.4257 12.8626 C 108.0978 12.7417 107.7506 12.6437 107.4005 12.6273 C 107.0425 12.6106 106.6767 12.6631 106.3355 12.7652 C 105.9452 12.882 105.5953 13.0999 105.2306 13.2764 C 104.6731 13.5461 104.0979 13.791 103.5667 14.1053 C 103.2542 14.2903 102.9876 14.5404 102.7081 14.7686 C 102.1253 15.2446 101.5348 15.7163 100.9777 16.2196 C 100.6628 16.5041 100.3431 16.7934 100.0926 17.1318 C 99.8786 17.421 99.7231 17.7517 99.5969 18.0855 C 99.4777 18.4006 99.5195 18.0347 99.4409 18.3615 C 99.4212 18.4432 98.3284 18.872 98.2572 18.8225 Z " fill="#000000" stroke="#000000" stroke-width="1.5" stroke-linecap="round"/></g><path d="" fill="#000000" stroke="none" stroke-width="0.5" stroke-linecap="butt" transform="matrix(1,0,0,1,-169.00822,-159.78151)"/></g></g></g></svg>