<svg version="1.1" xmlns="http://www.w3.org/2000/svg" xmlns:xlink="http://www.w3.org/1999/xlink" width="361.27511" height="374.28001" viewBox="0,0,361.27511,374.28001"><g transform="translate(-86.50204,-46.8601)"><g data-paper-data="{&quot;isPaintingLayer&quot;:true}" fill-rule="nonzero" stroke-linejoin="miter" stroke-miterlimit="10" stroke-dasharray="" stroke-dashoffset="0" style="mix-blend-mode: normal"><g stroke="none" stroke-width="0" stroke-linecap="butt"><g><path d="M255.02134,379.53968l-3.17137,-6.91545l88.18843,-40.44266l3.17139,6.91545z" data-paper-data="{&quot;origPos&quot;:null}" fill="#585858"/><path d="M340.84916,334.13022l-88.55305,40.49234c0,0 -14.85846,-32.68034 -13.29832,-37.82595c1.64879,-5.43798 11.63059,-10.95713 20.29526,-15.3137c8.81475,-4.43205 12.2596,-5.46166 21.63724,-8.52802c4.03954,-1.40577 55.06926,10.38507 55.06926,10.38507z" data-paper-data="{&quot;origPos&quot;:null}" fill="#bebebe"/><path d="M336.23197,323.17056l-21.95812,10.18147l-55.08161,-11.95773c0,0 20.65282,-10.04946 24.98385,-9.83926c4.11836,0.1999 52.05591,11.61552 52.05591,11.61552z" data-paper-data="{&quot;origPos&quot;:null}" fill="#7f7f7f"/></g><path d="M259.31795,285.21038c-14.43309,20.60998 -14.781,24.61482 -50.77706,-0.59307c-12.86593,-8.76495 -24.66911,-21.37617 -9.9141,-42.44583c14.821,-21.16388 1.67536,-32.63788 43.07076,-3.68855c35.51696,24.83833 31.44062,26.99265 17.62041,46.72745z" data-paper-data="{&quot;index&quot;:null,&quot;origRot&quot;:0}" fill="#0a0a66"/><path d="M294.03991,303.22542c6.78717,6.0759 9.68725,12.10591 9.68725,12.10591c0,0 -4.16039,-1.897 -8.60193,0.14337c-22.03906,11.56842 -23.374,33.14317 -35.11078,39.21698c-19.27494,9.26249 -29.92791,0.97172 -33.37591,-16.6189c-3.44798,-17.59064 7.41915,-23.51457 -1.83577,-44.25026c-4.04404,-15.25714 -2.68061,-20.0702 14.24337,-27.87189c15.06199,-6.94331 28.6904,-8.38253 34.43085,0.93063c5.74045,9.31315 10.41128,29.98508 20.56296,36.34419z" data-paper-data="{&quot;index&quot;:null}" fill="#0a0a66"/></g><g stroke="none" stroke-width="0" stroke-linecap="butt"><path d="M86.50204,368.49239l4.12846,-6.39037l81.49249,52.64772l-4.12846,6.39037z" data-paper-data="{&quot;origPos&quot;:null}" fill="#585858"/><path d="M170.91514,416.48052l-81.7303,-52.92855c0,0 19.57894,-30.09059 24.75697,-31.5395c5.47225,-1.53123 15.49025,3.92192 23.82006,8.88886c8.47409,5.05296 11.19338,7.4051 18.81811,13.6666c3.35605,2.65161 20.82989,52.02488 20.82989,52.02488z" data-paper-data="{&quot;origPos&quot;:null}" fill="#bebebe"/><path d="M177.67762,406.6978l-20.38503,-13.04883l-19.51017,-52.88029c0,0 19.57237,12.01888 21.72213,15.78457c2.04419,3.5808 18.17309,50.14456 18.17309,50.14456z" data-paper-data="{&quot;origPos&quot;:null}" fill="#7f7f7f"/></g><path d="M154.53499,313.40747c-18.52784,-17.02363 -22.4519,-17.89635 7.28047,-50.25588c34.6426,-37.70366 37.73144,-36.7514 56.67253,-19.34805c19.0258,17.48117 18.84206,21.07748 -15.31079,58.29613c-29.30289,31.93333 -30.90114,27.60859 -48.64223,11.30784z" data-paper-data="{&quot;index&quot;:null,&quot;origRot&quot;:0}" fill="#101099" stroke="none" stroke-width="0" stroke-linecap="butt"/><path d="M174.21504,361.938c-1.47764,8.98882 -5.00509,14.67463 -5.00509,14.67463c0,0 -0.63545,-4.52809 -4.7427,-7.17778c-21.59826,-12.37188 -40.5115,-1.90572 -51.94027,-8.54098c-18.1683,-11.27964 -16.89975,-24.71887 -3.91654,-37.07828c12.98322,-12.35941 16.23283,-12.08275 28.7485,-31.02955c8.01432,-12.13245 18.46017,-11.72736 34.13325,-1.64563c13.94871,8.97255 20.95075,10.85226 16.18043,20.69767c-4.77032,9.84538 -13.54884,38.12137 -13.45759,50.09995z" data-paper-data="{&quot;index&quot;:null}" fill="#101099" stroke="none" stroke-width="0" stroke-linecap="butt"/><g><path d="M274.82886,176.13791c6.78838,-43.64668 15.52191,-54.73847 33.41359,-52.64327c16.96793,1.98703 24.05158,15.68836 18.2454,59.17097c-5.38436,40.32336 -7.47148,42.17671 -31.94062,38.75465c-23.43007,-3.27678 -26.01616,-4.78983 -19.71836,-45.2823z" data-paper-data="{&quot;index&quot;:null,&quot;origRot&quot;:0}" fill="#8d0000" stroke="none" stroke-width="0" stroke-linecap="butt"/><g data-paper-data="{&quot;origPos&quot;:null}"><g data-paper-data="{&quot;origPos&quot;:null,&quot;origRot&quot;:0}"><path d="M364.93338,279.45969c3.6792,8.49524 2.40806,16.17666 -2.73822,23.87216c-4.87033,7.28286 -9.73568,8.95743 -17.44255,12.4495c-7.70687,3.49207 -11.87382,4.60215 -18.22161,2.43377c-8.83795,-3.01898 -8.55129,-3.95292 -14.17657,-14.0628c-7.13543,-12.82392 -5.97845,-22.45872 2.16983,-31.08285c7.42367,-7.85723 20.88688,-18.34046 30.91547,-15.15916c9.58326,3.04002 13.66047,8.08048 19.49367,21.54936z" data-paper-data="{&quot;origPos&quot;:null}" fill="#a6a6a6" stroke="none" stroke-width="0" stroke-linecap="butt"/><path d="M349.87987,310.89333c-7.77857,4.4375 -15.17886,-6.0084 -15.18793,-11.89325c-0.76626,-3.23487 8.28923,-10.2389 13.35242,-6.94938c5.06036,3.28765 1.17597,7.56662 -2.29367,9.58889" data-paper-data="{&quot;origPos&quot;:null}" fill="none" stroke="#5b5b5b" stroke-width="2" stroke-linecap="round"/><path d="M341.99676,315.19635c-7.21251,0.33923 -10.69423,-2.33991 -13.918,-12.48347c-0.76624,-3.23484 4.13253,-8.30537 9.44948,-7.37269" data-paper-data="{&quot;origPos&quot;:null}" fill="none" stroke="#5b5b5b" stroke-width="2" stroke-linecap="round"/><path d="M335.27089,318.00268c-7.93576,-1.88144 -10.82607,-1.95902 -14.04983,-12.10259c-0.76624,-3.23484 4.13251,-8.30536 9.44947,-7.37268" data-paper-data="{&quot;origPos&quot;:null}" fill="none" stroke="#5b5b5b" stroke-width="2" stroke-linecap="round"/><path d="M329.66338,318.56342c-7.93575,-1.88143 -12.05727,-3.94358 -13.92767,-11.83976c-0.76624,-3.23485 3.35123,-6.66383 8.66817,-5.73113" data-paper-data="{&quot;origPos&quot;:null}" fill="none" stroke="#5b5b5b" stroke-width="2" stroke-linecap="round"/><path d="M354.05089,275.96458c0.3657,6.74408 -1.87737,11.69188 -8.2368,14.67561c-5.12512,2.40465 -5.77884,2.63564 -11.30074,4.66963c-4.05391,1.49327 -6.37093,1.15685 -7.5934,-2.77575c-1.39518,-4.4882 6.40543,-7.29873 9.21056,-10.91497c3.18262,-4.10286 1.71456,-7.76777 6.68419,-10.7883" data-paper-data="{&quot;origPos&quot;:null}" fill="none" stroke="#5b5b5b" stroke-width="2" stroke-linecap="round"/></g><path d="M352.69724,240.86304c8.16864,18.57334 6.54154,27.88831 -17.27946,40.91779c-23.99412,11.19736 -32.47141,6.40609 -41.60676,-9.85627c-8.94009,-15.9148 0.29309,-11.50395 -13.04069,-38.88798c-8.98127,-18.4452 -10.28635,-30.80663 9.64696,-41.23378c20.43211,-9.45772 29.54192,-0.65172 39.22563,17.00874c13.20468,24.08188 18.20224,21.01901 23.05437,32.05145z" data-paper-data="{&quot;index&quot;:null,&quot;origPos&quot;:null,&quot;origRot&quot;:0}" fill="#8d0000" stroke="none" stroke-width="0" stroke-linecap="butt"/></g></g><path d="M240.92836,75.32902c23.69382,4.63651 47.27195,33.6064 42.03779,52.76082c-5.23419,19.15441 -26.14992,24.30772 -49.84373,19.6712c-23.69383,-4.6365 -54.93886,-12.01602 -51.88979,-43.2563c3.04907,-31.24029 36.00191,-33.81224 59.69571,-29.17574z" data-paper-data="{&quot;origRot&quot;:0}" fill="#8d0000" stroke="none" stroke-width="0" stroke-linecap="butt"/><g><path d="M193.86255,205.67024c11.75609,-14.19648 8.34904,-12.1739 38.7544,17.18714c26.96484,25.95991 26.3153,24.82593 14.12851,36.54114c-18.21281,12.57356 -38.26512,16.742 -54.70741,0.97689c-20.09608,-20.45841 -12.28903,-37.66192 1.82448,-54.70519z" data-paper-data="{&quot;origPos&quot;:null}" fill="#101099" stroke="none" stroke-width="0" stroke-linecap="butt"/><g data-paper-data="{&quot;origPos&quot;:null}"><path d="M260.46042,241.43403c-9.8953,3.41893 -22.64513,-10.25792 -33.20341,-21.27142c-14.05154,-14.65734 -22.11755,-25.02661 -20.66113,-32.53964c1.55399,-8.01614 43.97491,-45.92174 59.65682,-60.95549c5.1551,-4.94203 14.13498,-9.10671 20.79768,-6.53622c8.34677,3.22021 21.11024,25.28392 21.11024,25.28392c0,0 19.3792,35.49795 13.46929,41.1636c-13.59031,13.0286 -49.36201,50.7756 -61.1695,54.85526z" data-paper-data="{&quot;origPos&quot;:null}" fill="#e50000" stroke="none" stroke-width="0" stroke-linecap="butt"/><path d="M201.92847,222.17633c-9.81107,-10.04368 -17.60054,-23.62383 -13.92719,-27.66839c3.67335,-4.04456 3.77836,-7.86685 10.71649,-7.48688c7.78572,0.42637 15.20637,-11.0976 22.01095,-16.17078c5.64697,-4.21016 27.57254,17.39151 38.13264,27.66624c10.56007,10.27474 22.04564,25.15303 14.92618,32.08005c-9.31777,9.06593 -2.25466,7.72644 -3.72885,14.96645c-1.28854,8.738 -9.05865,11.39152 -16.04789,9.14005c-9.83755,-3.16902 -11.08229,-3.02209 -23.08161,-9.5323c-11.99931,-6.51021 -19.20849,-12.97005 -29.0007,-22.99443z" data-paper-data="{&quot;origPos&quot;:null}" fill="#e50000" stroke="none" stroke-width="0" stroke-linecap="butt"/><path d="M260.80771,237.37395l58.4229,-56.00819" data-paper-data="{&quot;origPos&quot;:null}" fill="none" stroke="#000000" stroke-width="2" stroke-linecap="round"/><path d="M267.637,239.36154c0,0 -11.83101,-2.46928 -22.71143,-7.06091c-10.09555,-4.26042 -16.03216,-7.91677 -31.31104,-22.05941" data-paper-data="{&quot;origPos&quot;:null}" fill="none" stroke="#8d0000" stroke-width="2" stroke-linecap="round"/></g><path d="M288.30165,136.11756c-7.30852,-9.78852 -27.96594,-4.31482 -27.56882,-4.79206c5.09838,-6.12702 20.91986,-17.72748 28.23585,-14.28514c7.3834,3.47406 12.94798,2.90753 31.02554,30.8202c11.48765,17.33455 14.33927,28.39429 7.59099,34.28246c-8.0566,7.02973 -14.38392,3.66017 -22.80883,-7.17956c-10.03241,-12.90796 1.63837,-14.58648 -16.47474,-38.84589z" data-paper-data="{&quot;origPos&quot;:null}" fill="#8d0000" stroke="none" stroke-width="0" stroke-linecap="butt"/></g><g><g data-paper-data="{&quot;origPos&quot;:null}"><path d="M347.32009,76.98523c28.40537,0 45.28312,17.7288 44.08733,60.68429c-0.08888,21.06125 -7.67684,29.48893 -11.19717,34.26884c-7.75683,6.18381 -10.43307,7.02901 -21.46993,7.36566c-44.30504,-1.61335 -58.11069,-30.35061 -57.91836,-51.26581c0.30795,-35.11504 18.09275,-51.05297 46.49812,-51.05297z" data-paper-data="{&quot;origPos&quot;:null}" fill="#ffceb3" stroke="none" stroke-width="0" stroke-linecap="butt"/><g data-paper-data="{&quot;origPos&quot;:null}"><path d="M380.98277,167.12401l7.03377,-26.32168l18.32425,25.91582z" data-paper-data="{&quot;origPos&quot;:null}" fill="#ffceb3" stroke="none" stroke-width="0" stroke-linecap="butt"/><path d="M389.03108,141.55983c0,0 16.59467,22.8743 16.62474,25.26738c0.01162,2.10075 -23.61505,0.69123 -23.61505,0.69123" data-paper-data="{&quot;origPos&quot;:null}" fill="none" stroke="#b37959" stroke-width="2" stroke-linecap="round"/></g><path d="M382.26413,135.45888c0,13.55767 -2.06831,24.54836 -13.83925,24.54836c-7.6432,0 -13.83923,-10.99068 -13.83923,-24.54836c0,-13.55767 4.36054,-24.54836 13.83923,-24.54836c9.47867,0 13.83925,10.99068 13.83925,24.54836z" data-paper-data="{&quot;origPos&quot;:null}" fill="#ffffff" stroke="none" stroke-width="0" stroke-linecap="butt"/></g><path d="M348.6821,121.48846c0,0 -31.36606,-6.44108 -37.93815,12.80231c-2.27517,25.39164 23.84289,41.48713 23.84289,41.48713c0,0 -24.77515,-4.0832 -36.30765,-24.88745c-9.4724,-17.08791 -8.14555,-35.32393 -3.77544,-50.80572c13.11951,-29.58116 42.04279,-36.81044 62.15824,-35.26714c-0.2058,0.26869 -7.9799,56.67088 -7.9799,56.67088z" data-paper-data="{&quot;origPos&quot;:null}" fill="#661800" stroke="none" stroke-width="0" stroke-linecap="butt"/><path d="M354.95479,59.53915c11.77386,-6.77441 26.50215,-12.67905 26.50215,-12.67905c0,0 0.68033,9.71833 -0.04084,16.44472c-0.81468,7.59837 0.84751,6.41871 0.84751,13.4257c0,11.86816 -39.84827,11.30174 -39.98209,1.43261c-0.12694,-9.36185 2.17746,-12.58495 12.67324,-18.62399z" data-paper-data="{&quot;origPos&quot;:null}" fill="#661800" stroke="none" stroke-width="0" stroke-linecap="butt"/><path d="M334.4576,133.77178c2.70348,10.29079 -0.57058,20.06897 -7.31281,21.84025c-6.74224,1.77126 -14.3995,-5.13521 -17.10298,-15.426c-2.70348,-10.29079 0.57058,-20.06897 7.31281,-21.84025c6.74224,-1.77123 14.3995,5.13521 17.10298,15.426z" data-paper-data="{&quot;origPos&quot;:null,&quot;origRot&quot;:0}" fill="#ffceb3" stroke="none" stroke-width="0" stroke-linecap="butt"/><path d="M322.78295,104.6664c0,-6.83485 6.93087,-11.86842 13.76572,-11.86842c6.83485,0 18.92597,5.03357 18.92597,11.86842c0,9.33442 -6.74767,18.65231 -11.20277,26.85495c-4.51006,8.30384 -18.97399,21.32568 -21.15831,19.55362c-1.37946,-1.1191 4.45488,-6.01276 5.19991,-22.31999c0.39336,-7.36921 -5.53052,-17.25372 -5.53052,-24.08857z" data-paper-data="{&quot;origPos&quot;:null}" fill="#661800" stroke="none" stroke-width="0" stroke-linecap="butt"/><path d="M381.20248,141.70889c0,6.65611 -2.06535,12.05196 -4.61306,12.05196c-2.54773,0 -4.61308,-5.39583 -4.61308,-12.05196c0,-6.65611 2.06535,-12.05199 4.61308,-12.05199c2.54773,0 4.61306,5.39585 4.61306,12.05199z" data-paper-data="{&quot;origPos&quot;:null}" fill="#000000" stroke="none" stroke-width="0" stroke-linecap="butt"/><path d="M409.30964,96.79996c7.01375,16.64514 6.72367,20.75288 18.11297,25.10694c11.64434,4.45157 16.10673,-5.85394 20.35454,-7.3906c-4.37399,13.68084 -20.62492,28.88401 -39.73517,28.56186c-31.2598,-0.52696 -30.61645,-7.32176 -44.15846,-21.4255c-12.73047,-16.53829 -13.48017,-40.69602 -13.48017,-40.69602c0,0 -1.1363,-13.77698 18.24783,-13.77698c10.25456,0 32.95351,11.33483 40.65845,29.62033z" data-paper-data="{&quot;origPos&quot;:null}" fill="#661800" stroke="none" stroke-width="0" stroke-linecap="butt"/><path d="M381.72662,123.25698c0,0 0.05419,14.64792 -0.61953,14.70053c-2.18683,0.17074 -14.54884,-12.32106 -23.18523,-27.30524c-6.55064,-11.36538 -7.89968,-38.70521 -7.89968,-38.70521" data-paper-data="{&quot;origPos&quot;:null}" fill="none" stroke="#000000" stroke-width="2.5" stroke-linecap="round"/><path d="M346.85708,160.68819c0,0 8.0602,0.67415 13.47885,3.70859c4.47837,2.50789 9.80611,8.14139 9.80611,8.14139" data-paper-data="{&quot;origPos&quot;:null}" fill="none" stroke="#b37959" stroke-width="2" stroke-linecap="round"/></g><g><g><g data-paper-data="{&quot;origPos&quot;:null}"><path d="M184.80392,276.55724c-8.22148,1.00352 -19.44958,-2.37351 -24.9295,-4.68402c-10.02057,-4.22496 -20.95747,-24.10143 -18.78658,-31.25946c3.41238,-11.25139 12.04017,-27.25399 16.91755,-30.51513c6.52776,-4.36465 16.24854,-1.5969 25.17097,2.90485c10.10668,5.09925 20.55203,13.46855 20.44261,25.03419c-1.37317,15.66896 1.63948,21.59801 -7.20461,24.72902c-1.12236,8.74275 -3.38892,12.78705 -11.61039,13.79053z" data-paper-data="{&quot;origPos&quot;:null}" fill="#e5e5e5" stroke="none" stroke-width="0" stroke-linecap="butt"/><path d="M180.73983,268.67115c0,0 6.89315,1.67086 6.74551,-1.46275c-0.09122,-1.93643 -3.59207,1.08795 -6.12045,-2.41523c-1.13451,-1.5719 -1.8699,-3.37968 2.87907,-7.47543c3.96907,-3.42308 11.07257,5.02722 11.07257,5.02722" data-paper-data="{&quot;origPos&quot;:null}" fill="none" stroke="#989898" stroke-width="2" stroke-linecap="round"/></g><g data-paper-data="{&quot;origPos&quot;:null,&quot;origRot&quot;:0}"><path d="M212.81558,232.26757c-11.69222,16.58272 -20.51042,19.99682 -43.96503,6.31868c-21.97468,-14.77202 -22.24626,-24.50585 -13.03234,-40.7238c9.01699,-15.87134 10.00455,-5.68646 26.57737,-31.24059c11.16302,-17.21263 21.0772,-24.71055 40.2963,-13.01914c18.64619,12.61892 15.80559,24.96664 5.67719,42.37588c-13.81114,23.7393 -8.60839,26.43892 -15.55347,36.28899z" data-paper-data="{&quot;index&quot;:null,&quot;origPos&quot;:null}" fill="#e50000" stroke="none" stroke-width="0" stroke-linecap="butt"/><path d="M238.38999,177.1299c-2.7934,4.33961 -8.24177,14.40389 -14.50775,27.23673c-5.75676,11.78986 -5.51693,19.89326 -10.22007,26.70051c-11.36409,16.44822 -19.21711,16.89131 -29.80379,13.51853" data-paper-data="{&quot;origPos&quot;:null}" fill="none" stroke="#8d0000" stroke-width="2" stroke-linecap="round"/></g></g><g data-paper-data="{&quot;origRot&quot;:0}"><path d="M237.3109,132.94364c42.47382,-12.12803 56.2047,-8.8468 61.80042,8.276c5.3068,16.23873 -4.16469,28.41231 -46.07793,41.36334c-38.86801,12.01001 -41.42547,10.89174 -48.57292,-12.75909c-6.84396,-22.64651 -6.55395,-25.62866 32.8504,-36.88023z" data-paper-data="{&quot;origPos&quot;:null,&quot;index&quot;:null}" fill="#e50000" stroke="none" stroke-width="0" stroke-linecap="butt"/><path d="M281.12087,172.12251c-27.06321,11.87516 -52.57117,18.48851 -52.57117,18.48851" data-paper-data="{&quot;origPos&quot;:null}" fill="none" stroke="#8d0000" stroke-width="2" stroke-linecap="round"/></g></g></g></g></svg>