<svg version="1.1" xmlns="http://www.w3.org/2000/svg" xmlns:xlink="http://www.w3.org/1999/xlink" width="272.57112" height="455.97468" viewBox="0,0,272.57112,455.97468"><defs><linearGradient x1="171.69706" y1="129.35303" x2="164.72566" y2="202.26322" gradientUnits="userSpaceOnUse" id="color-1"><stop offset="0" stop-color="#fde6d9"/><stop offset="1" stop-color="#f7d9c8"/></linearGradient><linearGradient x1="192.07024" y1="-119.44016" x2="142.76813" y2="396.18397" gradientUnits="userSpaceOnUse" id="color-2"><stop offset="0" stop-color="#000000"/><stop offset="1" stop-color="#000000" stop-opacity="0"/></linearGradient><linearGradient x1="159.34966" y1="196.06063" x2="157.22958" y2="214.03057" gradientUnits="userSpaceOnUse" id="color-3"><stop offset="0" stop-color="#f7dac9"/><stop offset="1" stop-color="#fde6d9"/></linearGradient><linearGradient x1="200.75747" y1="57.21752" x2="204.80552" y2="92.87966" gradientUnits="userSpaceOnUse" id="color-4"><stop offset="0" stop-color="#d2a991"/><stop offset="1" stop-color="#fde6d9"/></linearGradient><radialGradient cx="208.79801" cy="67.54159" r="43.92048" gradientUnits="userSpaceOnUse" id="color-5"><stop offset="0" stop-color="#fde6d9"/><stop offset="1" stop-color="#f7d9c8"/></radialGradient><linearGradient x1="221.38734" y1="59.0281" x2="221.79387" y2="59.64734" gradientUnits="userSpaceOnUse" id="color-6"><stop offset="0" stop-color="#ecc6b1"/><stop offset="1" stop-color="#ecc6b1" stop-opacity="0"/></linearGradient><linearGradient x1="212.55722" y1="51.96059" x2="215.33775" y2="51.44682" gradientUnits="userSpaceOnUse" id="color-7"><stop offset="0" stop-color="#f4d7c8" stop-opacity="0"/><stop offset="1" stop-color="#f4d7c8"/></linearGradient><linearGradient x1="218.15769" y1="59.47711" x2="218.25937" y2="60.20745" gradientUnits="userSpaceOnUse" id="color-8"><stop offset="0" stop-color="#ecc6b1"/><stop offset="1" stop-color="#ecc6b1" stop-opacity="0"/></linearGradient><linearGradient x1="209.0583" y1="32.89671" x2="212.45767" y2="57.32393" gradientUnits="userSpaceOnUse" id="color-9"><stop offset="0" stop-color="#f9ddce" stop-opacity="0"/><stop offset="1" stop-color="#f9ddce"/></linearGradient><linearGradient x1="-125.15023" y1="-1794.29563" x2="476.43691" y2="1461.47548" gradientUnits="userSpaceOnUse" id="color-10"><stop offset="0" stop-color="#2a221e"/><stop offset="1" stop-color="#2a221e" stop-opacity="0"/></linearGradient><linearGradient x1="169.65091" y1="4.63164" x2="172.98653" y2="-5.19353" gradientUnits="userSpaceOnUse" id="color-11"><stop offset="0" stop-color="#bbdaff" stop-opacity="0"/><stop offset="1" stop-color="#bbdaff"/></linearGradient><linearGradient x1="176.38256" y1="-11.76677" x2="172.56309" y2="-0.5164" gradientUnits="userSpaceOnUse" id="color-12"><stop offset="0" stop-color="#bbdaff" stop-opacity="0"/><stop offset="1" stop-color="#bbdaff"/></linearGradient><linearGradient x1="166.49759" y1="7.05183" x2="172.04444" y2="-10.50133" gradientUnits="userSpaceOnUse" id="color-13"><stop offset="0" stop-color="#005eff"/><stop offset="1" stop-color="#005eff" stop-opacity="0"/></linearGradient><linearGradient x1="166.49759" y1="7.05183" x2="172.04444" y2="-10.50133" gradientUnits="userSpaceOnUse" id="color-14"><stop offset="0" stop-color="#00f7ff" stop-opacity="0"/><stop offset="1" stop-color="#00f7ff"/></linearGradient><linearGradient x1="239.44142" y1="114.82872" x2="259.43264" y2="44.36704" gradientUnits="userSpaceOnUse" id="color-15"><stop offset="0" stop-color="#fde6d9"/><stop offset="1" stop-color="#f7d9c8"/></linearGradient><linearGradient x1="174.58454" y1="355.88204" x2="315.96336" y2="-142.42607" gradientUnits="userSpaceOnUse" id="color-16"><stop offset="0" stop-color="#000000"/><stop offset="1" stop-color="#000000" stop-opacity="0"/></linearGradient><linearGradient x1="280.49021" y1="33.22052" x2="267.3634" y2="32.98582" gradientUnits="userSpaceOnUse" id="color-17"><stop offset="0" stop-color="#f7dac9"/><stop offset="1" stop-color="#fde6d9"/></linearGradient><linearGradient x1="281.92526" y1="25.34036" x2="274.04174" y2="22.80315" gradientUnits="userSpaceOnUse" id="color-18"><stop offset="0" stop-color="#f7dac9"/><stop offset="1" stop-color="#fde6d9"/></linearGradient><linearGradient x1="264.56349" y1="52.53348" x2="269.88595" y2="35.23941" gradientUnits="userSpaceOnUse" id="color-19"><stop offset="0" stop-color="#f7dac9"/><stop offset="1" stop-color="#fde6d9"/></linearGradient><radialGradient cx="216.88295" cy="66.34012" r="9.34604" gradientUnits="userSpaceOnUse" id="color-20"><stop offset="0" stop-color="#ffffff"/><stop offset="1" stop-color="#e7e7e7"/></radialGradient></defs><g transform="translate(-84.02964,32.10486)"><g data-paper-data="{&quot;isPaintingLayer&quot;:true}" fill-rule="nonzero" stroke-linejoin="miter" stroke-miterlimit="10" stroke-dasharray="" stroke-dashoffset="0" style="mix-blend-mode: normal"><path d="M233.55801,323.73295c-4.05048,5.72058 -7.07201,7.54385 -11.52421,12.67238c-3.53745,4.07483 -7.07156,7.49837 -10.48065,11.6785c-6.56502,8.04985 -7.69243,11.86125 -17.80443,22.83544c-1.09979,1.19356 -10.05831,16.38602 -18.27418,26.99495c-2.11017,4.0417 -16.97914,-14.10006 -16.97914,-14.10006c0,0 11.49514,-21.53313 18.23029,-37.09943c2.92099,-6.75104 12.01828,-19.40337 17.54208,-26.04198c6.24209,-7.50194 11.85836,-11.74553 21.95612,-12.29574c7.99995,-0.43591 11.70816,-1.11994 16.72694,3.32608c5.01877,4.44603 4.65766,6.30926 0.60718,12.02984z" fill="#252525" stroke="none" stroke-width="0" stroke-linecap="butt"/><path d="M243.19679,225.15362c0,0 3.80136,10.23172 3.62897,13.96085c-0.66801,14.45218 -6.00078,50.70524 -9.26761,65.82188c-0.1705,0.78903 -1.36432,9.6734 -1.56848,10.45547c-2.16172,8.28112 -17.75097,6.72557 -22.56456,6.61306c-7.01715,-0.16402 -9.46348,-3.58846 -9.46348,-3.58846c0,0 2.71869,-7.46791 2.57224,-14.34147c-0.16953,-7.95574 0.22155,-13.43507 0.18861,-21.39174c-0.05196,-12.55404 0.81016,-17.56641 -0.55971,-30.0598c-1.29879,-11.84506 -2.80891,-18.87993 -2.57659,-30.83795c0.07212,-3.7123 10.38244,-2.41295 20.06365,0.31551z" data-paper-data="{&quot;origRot&quot;:0}" fill="#0f0f0f" stroke="none" stroke-width="0" stroke-linecap="butt"/><path d="M156.98952,384.5348c0,0 17.11517,-0.94258 20.1779,2.39601c2.33498,2.54529 0.56746,11.46564 4.21449,13.94922c3.64701,2.48356 19.75775,5.97845 19.45376,13.1675c-0.26434,6.25152 -1.04918,10.26524 -5.36122,9.78317c-4.24058,-0.47407 -39.3291,-2.22068 -40.72083,-2.90183c-2.55212,-6.43318 -0.06817,-19.83301 3.01342,-24.85931z" data-paper-data="{&quot;origRot&quot;:0}" fill="#000000" stroke="none" stroke-width="0" stroke-linecap="butt"/><g><g stroke="none" stroke-width="0" stroke-linecap="butt"><path d="M154.55445,196.01902l0.85572,-8.94942l12.95537,1.23875l-1.24684,8.70475c0,0 -1.24871,2.15216 -3.5243,1.93459c-1.50594,-0.14399 -9.03992,-2.92865 -9.03992,-2.92865z" data-paper-data="{&quot;origPos&quot;:null}" fill="#000000"/><path d="M171.91799,170.91356c-2.61189,11.07256 -3.51699,19.97588 -8.16166,27.94413c-2.48611,4.26505 -5.54434,3.87271 -6.90022,-0.88262c-2.603,-9.12912 -0.5471,-20.97612 0.9485,-31.39638c1.34106,-9.34352 -1.28415,-11.85846 2.26971,-30.4793c1.93469,-12.04808 25.20216,-6.91899 22.50082,4.97476c-2.70134,11.89375 -8.04527,18.76685 -10.65716,29.8394z" data-paper-data="{&quot;origPos&quot;:null}" fill="url(#color-1)"/><g data-paper-data="{&quot;origPos&quot;:null}"><path d="M155.40079,194.19496l-0.03781,-7.11013l13.03943,1.03951l-1.61395,9.88853c0,0 -1.87144,-3.42193 -4.88775,-4.07558z" data-paper-data="{&quot;origPos&quot;:null}" fill="url(#color-2)"/><path d="M154.8234,191.44698c0,0 1.09703,-39.3541 4.77056,-53.35365c2.23981,-8.53571 3.83741,-10.90181 12.25991,-9.16447c8.02167,1.41062 11.21289,5.96865 11.18517,11.95132c-0.02773,5.98268 -16.48702,56.51843 -16.48702,56.51843c0,0 0.06605,-5.49032 -3.33317,-6.26051c-3.60794,-0.81745 -8.39542,0.30887 -8.39542,0.30887z" data-paper-data="{&quot;origPos&quot;:null,&quot;origRot&quot;:0}" fill="#1e4994"/></g></g><g data-paper-data="{&quot;origPos&quot;:null,&quot;origRot&quot;:0}" stroke="none" stroke-width="0" stroke-linecap="butt"><path d="M204.24255,99.41562c-0.83082,9.97088 -4.12403,10.70162 -8.98095,19.46429c-11.56484,20.86485 -11.40319,19.96904 -16.91899,26.21815c-6.70624,7.59783 -21.95395,-5.08746 -17.01362,-13.98684c2.72627,-4.91102 7.11964,-17.27972 9.86602,-22.17919c9.4013,-16.77177 21.86167,-24.84539 29.30589,-24.5917c7.84931,0.26749 4.16659,9.97546 3.74166,15.07532z" data-paper-data="{&quot;origPos&quot;:null,&quot;origRot&quot;:0}" fill="#2152a6"/><path d="M198.31569,84.0001c-1.55631,5.85804 -2.95854,12.73912 -5.35555,17.01705c-8.28231,14.78138 -16.80279,29.42248 -25.35829,44.0431c-5.00874,-3.06289 -8.7894,-9.39297 -5.96317,-14.48405c2.72627,-4.91102 7.11964,-17.27972 9.86602,-22.17919c8.41662,-15.0151 19.28508,-23.05871 26.81099,-24.39693z" data-paper-data="{&quot;origPos&quot;:null,&quot;origRot&quot;:0}" fill="#000000"/></g><g stroke="none" stroke-width="0" stroke-linecap="butt"><g data-paper-data="{&quot;origPos&quot;:null,&quot;origRot&quot;:0}" fill="#fde6d9"><path d="M160.44733,210.45539c-0.19886,-1.01552 2.38247,-1.01424 2.38247,-1.01424c1.20758,0.04739 2.15687,0.09315 2.1416,1.30158c-0.01586,1.25645 -0.11711,3.28894 -0.1682,4.59119c-0.11268,2.87176 -0.83071,4.56762 -2.38147,4.50677c-1.55075,-0.06084 -2.15748,-1.20112 -2.0448,-4.07288c0.11268,-2.87176 0.47839,-3.229 0.07039,-5.31244z" data-paper-data="{&quot;origPos&quot;:null}"/><path d="M160.57418,217.66373c0.15179,-0.81638 1.83506,-0.60098 1.83506,-0.60098c0.88762,0.03484 1.98355,-0.18532 2.01827,0.76878c0.03873,1.06507 -0.41837,3.36139 -0.46015,4.42636c-0.09137,2.32851 -0.28596,5.21853 -1.35614,5.14154c-1.85839,-0.13367 -2.7581,-2.48482 -2.66674,-4.81333c0.09137,-2.32851 0.39305,-3.64941 0.62971,-4.92236z" data-paper-data="{&quot;origPos&quot;:null}"/></g><g data-paper-data="{&quot;origPos&quot;:null,&quot;origRot&quot;:0}" fill="#ead0c0"><path d="M150.99198,208.50685c0.61379,-0.61899 1.80835,0.17033 1.80835,0.17033c1.622,0.69879 8.95281,4.26229 7.37525,4.7754c-2.29383,0.74609 -6.58528,2.30064 -7.25982,4.00106c-0.38896,0.98051 -1.25872,1.6802 -1.62214,2.67138c-0.60468,1.64912 -1.59366,2.48734 -3.37282,1.74404c-1.98497,-0.82926 -1.48429,-1.30895 -1.373,-3.21974c0.03598,-0.61787 0.72611,-2.94105 0.95017,-3.50585c1.63735,-4.12746 1.69193,-4.81926 3.494,-6.6366z" data-paper-data="{&quot;origRot&quot;:0,&quot;origPos&quot;:null}"/><path d="M146.56252,221.04707c-0.20404,-0.67531 0.87349,-1.51997 0.87349,-1.51997c1.18728,-1.23474 2.10674,-2.77804 3.18605,-0.85904c0.81359,1.44651 1.84765,2.41489 2.82631,3.39733c0.35413,0.35551 1.43287,1.16374 1.8291,1.47519c1.18116,0.92849 0.65372,2.06739 -0.63778,3.21797c-1.01717,0.9062 -2.2381,1.25054 -4.6136,-1.13412c-2.3755,-2.38466 -2.86456,-2.59466 -3.46358,-4.57736z" data-paper-data="{&quot;origRot&quot;:0,&quot;origPos&quot;:null}"/><path d="M150.80521,226.07295c-0.37855,-0.51489 0.22501,-1.77875 0.22501,-1.77875c0.56887,-1.66715 1.04864,-1.68214 2.0987,-1.64615c1.21006,0.04149 2.42683,0.81406 4.0646,1.65463c1.63776,0.84057 1.88529,2.72998 1.39316,3.45569c-0.46002,0.67838 -0.70531,1.7467 -3.37963,0.69833c-2.67435,-1.04837 -3.2904,-0.87211 -4.40184,-2.38378z" data-paper-data="{&quot;origRot&quot;:0,&quot;origPos&quot;:null}"/></g><g data-paper-data="{&quot;origPos&quot;:null,&quot;origRot&quot;:0}" fill="#efd6c8"><path d="M151.81596,207.05879c0.60344,-0.75625 1.85446,-0.05868 1.85446,-0.05868c1.68432,0.54144 7.99661,4.98881 6.40426,5.75994c-2.31533,1.1212 -5.32503,1.83214 -5.94896,3.77315c-0.35978,1.11925 -1.22166,1.99786 -1.55497,3.12529c-0.55453,1.87583 -1.53292,2.92121 -3.37955,2.35257c-2.06027,-0.63441 -1.56706,-1.22386 -1.52678,-3.31777c0.01303,-0.67707 0.62895,-3.29781 0.8362,-3.94253c1.51454,-4.71152 1.54371,-5.47158 3.31533,-7.69196z" data-paper-data="{&quot;origRot&quot;:0,&quot;origPos&quot;:null}"/><path d="M147.61542,220.02827c0.02783,-0.77989 1.40317,-1.14401 1.40317,-1.14401c1.62038,-0.71018 3.07783,-1.85681 3.50122,0.58854c0.31914,1.84326 1.0251,3.30177 1.67042,4.7491c0.23352,0.52371 1.03965,1.83998 1.33071,2.33826c0.86766,1.48542 -0.05593,2.40091 -1.7521,2.97777c-1.33588,0.45432 -2.68281,0.2442 -4.24925,-3.26898c-1.56645,-3.51317 -1.98591,-3.95096 -1.90418,-6.2407z" data-paper-data="{&quot;origRot&quot;:0,&quot;origPos&quot;:null}"/><path d="M151.07051,228.65565c-0.54168,-0.4626 -0.102,-1.80498 -0.102,-1.80498c0.31759,-1.74003 0.86837,-1.81972 2.08781,-1.92553c1.40524,-0.12193 2.96693,0.48463 5.0284,1.10219c2.06149,0.61757 3.44876,2.65963 3.02828,3.45007c-0.39304,0.73886 -1.17623,1.64735 -4.47651,0.96238c-3.30028,-0.68497 -3.97556,-0.42599 -5.56598,-1.78414z" data-paper-data="{&quot;origRot&quot;:0,&quot;origPos&quot;:null}"/></g><g data-paper-data="{&quot;origPos&quot;:null,&quot;origRot&quot;:0}" fill="#f6ded1"><path d="M152.4371,207.14118c0.64264,-0.72326 1.85498,0.03959 1.85498,0.03959c1.65332,0.62986 7.72121,5.40526 6.09027,6.09096c-2.37145,0.99703 -5.41458,1.54759 -6.14041,3.45285c-0.41854,1.09862 -1.32575,1.93038 -1.71826,3.03854c-0.65308,1.84383 -1.68544,2.83594 -3.4994,2.1703c-2.02376,-0.74262 -1.50005,-1.30512 -1.34894,-3.39394c0.04886,-0.67546 0.8027,-3.25989 1.0438,-3.89273c1.7619,-4.62471 1.83127,-5.38218 3.71801,-7.5056z" data-paper-data="{&quot;origRot&quot;:0,&quot;origPos&quot;:null}"/><path d="M147.54363,219.82564c0.16618,-0.7625 1.58435,-0.87603 1.58435,-0.87603c1.7209,-0.41049 3.35914,-1.27945 3.3406,1.20222c-0.01396,1.87062 0.42114,3.43151 0.79861,4.97055c0.1366,0.5569 0.69562,1.99565 0.89335,2.53777c0.58945,1.61612 -0.48228,2.35262 -2.25403,2.61843c-1.39541,0.20937 -2.68344,-0.23711 -3.59968,-3.97299c-0.91625,-3.73588 -1.25113,-4.24131 -0.76323,-6.47995z" data-paper-data="{&quot;origRot&quot;:0,&quot;origPos&quot;:null}"/><path d="M149.80289,229.44609c-0.39615,-0.59201 0.3907,-1.76513 0.3907,-1.76513c0.77703,-1.58896 1.32878,-1.5165 2.53129,-1.2881c1.38573,0.26325 2.72478,1.27011 4.54192,2.42296c1.81716,1.15283 2.87353,3.63817 2.25469,4.28518c-0.57849,0.60479 -1.85251,1.12334 -4.84389,-0.42992c-2.99141,-1.55327 -3.7116,-1.48686 -4.87468,-3.225z" data-paper-data="{&quot;origRot&quot;:0,&quot;origPos&quot;:null}"/></g><g data-paper-data="{&quot;origPos&quot;:null,&quot;origRot&quot;:0}" fill="#fde6d9"><path d="M149.93823,209.95414c0.36754,-0.89496 1.76385,-0.57559 1.76385,-0.57559c1.76856,0.04817 9.07359,2.55024 7.76087,3.73636c-2.97765,2.69044 -5.33065,6.83886 -5.27223,8.72359c-0.00713,1.95606 -0.96521,2.571 -2.89721,2.54215c-2.15548,-0.03218 -2.28345,-0.6591 -2.3704,-2.68891c-0.029,-0.6766 -0.03234,-2.74811 -0.01388,-3.42509c0.13474,-4.94711 -0.05008,-5.68496 1.02901,-8.31256z" data-paper-data="{&quot;origRot&quot;:0,&quot;origPos&quot;:null}"/><path d="M149.09773,220.40054c0.14073,-0.76759 1.55434,-0.92824 1.55434,-0.92824c1.70628,-0.46753 3.31471,-1.3905 3.37875,1.09042c0.04827,1.87005 0.53508,3.41558 0.96356,4.94124c0.15505,0.55207 0.76163,1.9714 0.97731,2.50662c0.64292,1.59562 -0.40374,2.36736 -2.16566,2.69198c-1.38768,0.25566 -2.68984,-0.14769 -3.72988,-3.851c-1.04004,-3.70331 -1.39153,-4.19735 -0.97838,-6.45098z" data-paper-data="{&quot;origRot&quot;:0,&quot;origPos&quot;:null}"/><path d="M151.19186,228.15349c-0.0277,-0.71181 1.25676,-1.29957 1.25676,-1.29957c1.49374,-0.94725 1.92598,-0.59674 2.83108,0.22728c1.043,0.94959 1.65699,2.50836 2.602,4.44176c0.945,1.93341 0.68296,5.17624 -0.183,5.40364c-0.80946,0.21257 -2.30503,-0.58457 -4.04105,-3.47376c-1.73599,-2.88919 -2.38443,-3.20954 -2.46576,-5.29935z" data-paper-data="{&quot;origRot&quot;:0,&quot;origPos&quot;:null}"/></g><path d="M150.09561,208.90688c3.00253,-6.79599 5.67924,-13.54505 8.03678,-13.26691c1.75219,0.20673 7.01433,-0.3402 6.42876,3.64789c-0.5002,3.40666 0.90619,11.76788 0.50277,15.18735c0,0 -17.60246,0.39385 -14.96832,-5.56833z" data-paper-data="{&quot;origRot&quot;:0,&quot;origPos&quot;:null}" fill="url(#color-3)"/></g><path d="M293.0743,266.18633c2.66291,6.48385 2.5851,10.01201 4.53289,16.51815c1.54761,5.16941 2.54692,9.98728 4.2522,15.10465c3.28391,9.85472 5.89937,12.84757 9.75408,27.26376c0.41923,1.56791 8.45426,17.26838 13.01568,29.88754c2.2838,3.9462 -20.99957,6.79123 -20.99957,6.79123c0,0 -12.0322,-21.2377 -21.57336,-35.26047c-4.13798,-6.0816 -9.95332,-20.53926 -12.60277,-28.75899c-2.99405,-9.28862 -3.57117,-16.30413 1.37052,-25.12724c3.91505,-6.9901 5.32273,-10.48828 11.7649,-12.34668c6.44217,-1.8584 7.8225,-0.55582 10.48542,5.92803z" fill="#252525" stroke="none" stroke-width="0" stroke-linecap="butt"/><path d="M234.28342,194.96638c0,0 9.8108,4.78401 12.25879,7.60242c9.48724,10.92265 30.63848,40.845 38.70289,54.04161c0.42094,0.6888 5.68622,7.94374 6.078,8.65072c4.14844,7.48602 -8.20965,17.11526 -11.77177,20.35478c-5.1928,4.72251 -9.32625,3.93137 -9.32625,3.93137c0,0 -3.18421,-7.28161 -8.03241,-12.15626c-5.61151,-5.64211 -9.1087,-9.87836 -14.62199,-15.61537c-8.69886,-9.05187 -11.5329,-13.27508 -21.14393,-21.3738c-9.11228,-7.67845 -15.05891,-11.72906 -23.14078,-20.54561c-2.50897,-2.73705 5.85099,-8.90973 14.74153,-13.61385z" data-paper-data="{&quot;origRot&quot;:0}" fill="#0f0f0f" stroke="none" stroke-width="0" stroke-linecap="butt"/><path d="M302.52643,360.22039c0,0 15.22293,-7.87908 19.38548,-6.09031c3.17346,1.36374 5.21993,10.22425 9.56471,10.99359c4.34475,0.76933 20.47155,-2.65071 23.14273,4.03057c2.32284,5.80998 3.25319,9.79248 -0.87722,11.12131c-4.06196,1.30682 -36.77999,14.10468 -38.32865,14.05423c-4.96604,-4.82054 -8.19626,-18.0603 -7.4472,-23.90827z" data-paper-data="{&quot;origRot&quot;:0}" fill="#000000" stroke="none" stroke-width="0" stroke-linecap="butt"/><g data-paper-data="{&quot;origPos&quot;:null}" stroke-linecap="butt"><g data-paper-data="{&quot;origPos&quot;:null,&quot;index&quot;:null}" stroke="none"><path d="M220.95003,79.16601c0.31539,1.20627 1.48015,2.13739 2.96588,2.92697c0.42003,1.13796 0.9001,1.92655 0.9001,1.92655l0.25741,0.24344c0.01645,0.03743 0.03304,0.07479 0.04975,0.11213c0.11612,2.57564 0.56018,5.11096 1.12042,7.70649c-16.02979,7.18662 -39.26955,5.48138 -42.9271,4.53567c-3.69408,-0.95516 2.20618,-11.31193 2.39916,-15.35657c0.193,-4.04467 -0.60384,-4.93466 5.41707,-8.82019c6.02091,-3.88553 4.42535,-1.12638 11.0557,-1.81034c6.63036,-0.68394 12.73081,-0.12773 14.56759,0.70793c1.83677,0.83567 2.70858,2.14636 4.19401,7.82791z" data-paper-data="{&quot;origPos&quot;:null}" fill="#000000" stroke-width="0"/><g data-paper-data="{&quot;origPos&quot;:null}"><path d="M223.4435,93.58336c-13.57132,7.14502 -33.60274,5.25123 -37.20042,4.11366c-3.59767,-1.13756 1.72474,-11.26224 1.82978,-15.29782c0.10503,-4.0356 -1.93963,-3.96522 3.11231,-7.42694c5.05193,-3.46169 5.0783,-1.52028 10.80742,-2.11124c5.72912,-0.59099 10.47553,-0.00734 12.29957,0.88322c1.74048,0.84977 2.49208,1.93808 3.16813,4.01295c0.38285,1.17504 0.54781,1.85596 0.83654,3.06415c0.58834,2.46208 4.16718,3.84516 6.94353,5.19956c0.18952,1.97016 0.54608,3.92921 0.97351,5.92275c-0.72768,0.50162 -1.64216,1.04569 -2.77037,1.63967z" data-paper-data="{&quot;origPos&quot;:null}" fill="#09162e" stroke-width="0"/><g data-paper-data="{&quot;origPos&quot;:null}" fill="none" stroke-width="1" font-family="sans-serif" font-weight="normal" font-size="12" text-anchor="start"/></g></g><g data-paper-data="{&quot;origPos&quot;:null,&quot;index&quot;:null}"><path d="M244.67496,160.69885c2.02031,22.87489 2.34818,43.98845 2.34818,43.98845c-0.09883,7.14849 -4.52689,14.42224 -8.87163,13.66824c-3.6852,-0.63955 -9.38958,-4.74399 -9.38958,-4.74399c0,0 -3.00591,-36.96992 -5.95832,-65.37768c-1.72387,-16.58693 -7.16705,-29.42401 -8.9389,-46.00625c-0.93947,-8.79221 3.76665,-13.21938 9.66311,-16.68566c2.12011,2.39194 4.13384,4.88168 6.19535,7.3268c2.32564,2.75837 5.30528,6.47839 8.67301,10.10622c0.42511,1.31749 0.75315,2.7738 0.93138,4.44178c0,0 3.62724,33.80533 5.34742,53.2821z" data-paper-data="{&quot;origPos&quot;:null}" fill="#255dbc" stroke="#000000" stroke-width="0"/><path d="M218.95378,131.25821c0,0 -2.38992,-9.64386 -3.53646,-15.85553c-0.81619,-4.42186 -1.4928,-11.39157 -1.4928,-11.39157l23.38865,-1.96661c0,0 2.94947,4.74093 3.49638,7.91221c1.0247,5.9417 1.69608,9.65376 1.28953,15.60717c-0.56491,8.27256 1.44464,20.63393 1.44464,20.63393l-5.14484,-10.53823z" data-paper-data="{&quot;origPos&quot;:null}" fill="#09162e" stroke="none" stroke-width="0"/><path d="M221.64417,104.055l-2.5566,-15.4322c0,0 2.11643,-1.94727 4.18906,-3.36322c2.21262,2.47795 4.30376,5.06766 6.44652,7.60913c2.25026,2.66897 5.11284,6.23827 8.34681,9.75324c0.07471,0.25394 0.1116,0.39771 0.1116,0.39771z" data-paper-data="{&quot;origPos&quot;:null}" fill="#09162e" stroke="none" stroke-width="0"/><path d="M222.60908,127.58365c-1.05607,0.44986 -1.4672,-0.95546 -1.4672,-0.95546l-0.72223,-1.07808c-0.58283,-1.87491 -1.25068,-3.75033 -1.29475,-5.77318c-0.03035,-1.39296 0.30252,-2.50964 0.51849,-3.43397c0.0319,-0.13654 0.38235,0.15747 0.33505,0.02218c-0.61482,-1.75832 -2.14682,-1.77429 -2.80646,-4.17975c-0.08008,-0.29201 0.11132,-0.8386 0.38989,-1.37265l-0.39736,-0.08212c-0.14711,-0.02622 -0.28796,-0.08909 -0.41599,-0.18178c-0.3075,-0.20347 -0.67624,-0.62393 -0.62898,-1.46124c0.00175,-0.03726 0.00459,-0.07413 0.00849,-0.11058c0.08027,-0.82531 0.49863,-1.08165 0.82601,-1.15357c0.04226,-0.01145 0.08564,-0.01981 0.12998,-0.02484l1.19564,-0.13572l0.03936,0.34678l0.28197,0.05827l-0.00743,0.0984c0.12972,0.05577 0.26011,0.11965 0.39831,0.19502l0.03821,-0.08879l1.31755,1.03125c0.30856,0.23593 0.53818,0.64718 0.59346,1.13423c0.07941,0.69962 -0.22676,1.3274 -0.70907,1.5326l-1.12924,0.51771c-0.077,0.12475 0.26991,-0.13075 0.39478,-0.07911c0.02633,-0.04764 0.06239,-0.08101 0.11308,-0.09358c0.9676,-0.23989 2.17051,3.3117 2.2746,3.77274c0.33517,1.48461 -0.47378,2.30396 -0.73155,3.55742c-0.1015,0.49356 1.01555,3.83644 1.35993,4.94423l0.74041,1.13829c0,0 0.41114,1.40535 -0.64492,1.85521zM219.3264,113.27264c0.01493,-0.02793 0.02711,-0.05924 0.0372,-0.09302c-0.05319,0.12349 -0.08548,0.18326 -0.0372,0.09302z" data-paper-data="{&quot;origPos&quot;:null}" fill="#ffffff" stroke="none" stroke-width="0.5"/><path d="M213.90711,104.88335l0.15776,-1.0106l22.79433,-2.58741c0.25625,0.2871 0.51519,0.57462 0.77667,0.8621l0.00476,0.0419z" data-paper-data="{&quot;origPos&quot;:null}" fill="#ffffff" stroke="none" stroke-width="0"/><path d="M236.88889,101.66029l0.18492,-0.13513c0.4065,0.45312 0.81958,0.90699 1.23872,1.35955l1.93672,4.18918l0.61562,3.20934l-1.25662,-2.74086z" data-paper-data="{&quot;origPos&quot;:null,&quot;origRot&quot;:0}" fill="#ffffff" stroke="none" stroke-width="0"/></g><g data-paper-data="{&quot;origPos&quot;:null}" stroke="none" stroke-width="0"><path d="M200.46607,189.80393c5.14224,-13.27948 -12.59525,-43.00913 -14.71158,-71.14683c-1.03056,-13.7019 -1.89783,-22.74873 6.3805,-30.35337c8.27835,-7.60462 24.99948,-2.05391 24.99948,-2.05391c0,0 6.62823,5.12072 10.00958,8.49596c3.5318,3.52544 7.70452,9.18624 7.70452,9.18624c0,0 2.8266,13.33405 3.55791,17.49517c0.5314,3.02354 0.26797,6.11561 0.26797,6.11561l0.7663,19.84771c0,0 2.81142,15.41936 3.52702,28.71743c0,0 0.2806,9.23434 -16.19622,12.28638c-20.02231,3.70874 -26.30545,1.40967 -26.30545,1.40967z" data-paper-data="{&quot;origPos&quot;:null}" fill="#b2bbc1"/><path d="M226.22571,223.91209c-12.07841,1.37103 -24.86058,4.48243 -26.30219,-8.21773c-1.44161,-12.70015 2.72584,-40.61605 14.80425,-41.98709c0,0 26.71333,-13.6638 28.29301,-4.33044c0,0 2.21005,18.86906 2.47855,24.67583c0.52245,11.29907 -0.19969,24.47521 -0.19969,24.47521z" data-paper-data="{&quot;origPos&quot;:null}" fill="#b2bbc1"/><path d="M224.31683,228.8694c-6.92196,0.78572 -11.36145,2.18991 -17.60502,-0.99597c-2.50141,-1.27638 -3.69084,-2.64624 -4.63361,-5.33138c-1.16545,-3.31943 -1.9708,-4.02306 -2.47726,-7.53161c-0.50646,-3.50852 0.5946,-5.51072 0.5946,-5.51072c0,0 10.6604,0.50094 18.04769,-0.51599c11.26981,-1.55142 28.89542,-5.62453 28.89542,-5.62453l-1.17198,15.47585c0,0 -12.89217,9.04021 -21.64988,10.03431z" data-paper-data="{&quot;origPos&quot;:null}" fill="#000000"/></g><path d="M191.37738,89.67342c0,0 1.47314,-2.19124 1.26504,-3.56787c-0.62427,-4.12986 -0.91367,-6.67691 -2.11323,-10.91226c-2.02371,-7.14518 -5.97645,-15.80437 -5.97645,-15.80437c0,0 2.49585,-2.55882 19.87299,2.83238c13.87895,4.30592 14.48036,9.95009 14.48036,9.95009c0,0 -5.34258,2.19079 -4.53618,9.2949c0.2688,2.36803 0.59652,5.25514 0.59652,5.25514l2.8515,2.87557c0,0 -2.42339,2.15031 -4.21868,2.28245c-5.38586,0.39639 -12.28127,-0.28197 -19.87671,-0.96822c-1.19214,-0.10771 -2.34514,-1.2378 -2.34514,-1.2378z" data-paper-data="{&quot;origPos&quot;:null}" fill="url(#color-4)" stroke="none" stroke-width="0"/><g data-paper-data="{&quot;origPos&quot;:null,&quot;index&quot;:null,&quot;origRot&quot;:0}"><path d="M232.43104,161.17079c2.67187,24.37515 5.4683,59.65051 5.4683,59.65051c-0.42944,7.70268 -11.35163,3.44866 -18.8479,3.1452c-6.62603,-0.26825 -11.01133,0.38154 -15.99198,-2.81871c-1.66022,-1.06675 -3.24371,-6.73661 -3.24371,-6.73661c0,0 2.06,-21.89887 -2.02606,-52.11796c-7.68547,-17.89075 -14.12907,-42.79727 -16.59812,-60.43117c-1.14278,-8.16185 2.24222,-12.86194 10.70824,-16.96184c6.17203,7.21627 18.91322,11.55918 30.15239,12.33617c1.46823,1.989 2.62924,4.26841 3.0443,7.2327c0,0 5.05957,35.9475 7.33452,56.70165z" data-paper-data="{&quot;origPos&quot;:null}" fill="#255dbc" stroke="#000000" stroke-width="0"/><path d="M188.9551,132.50157c0,0 -3.79001,-10.09658 -5.55095,-16.64576c-1.25354,-4.66212 -2.17338,-12.08181 -2.17338,-12.08181l40.57172,-4.84945c0,0 4.9361,4.75606 5.76857,8.10416c1.55972,6.27295 2.58817,10.18834 1.66907,16.64116c-1.27713,8.96655 1.75602,22.03138 1.75602,22.03138l-8.52821,-10.73685z" data-paper-data="{&quot;origPos&quot;:null}" fill="#09162e" stroke="none" stroke-width="0"/><path d="M194.59682,102.91895l-4.13361,-18.05446c0,0 18.14601,4.40843 30.67941,5.31886c0.94139,1.51596 2.12839,9.68885 2.12839,9.68885z" data-paper-data="{&quot;origPos&quot;:null}" fill="#09162e" stroke="none" stroke-width="0"/><path d="M192.91135,127.2643l-1.21169,-1.07551c-0.94148,-1.94908 -2.03019,-3.8888 -2.03341,-6.06009c-0.00222,-1.49514 0.61453,-2.7355 1.02192,-3.75524c0.06018,-0.15065 0.65643,0.12472 0.57941,-0.0153c-1.00109,-1.81991 -3.65344,-1.65806 -4.70873,-4.16902c-0.12812,-0.30483 0.22306,-0.91526 0.72474,-1.52243l-0.68513,-0.04191c-0.2538,-0.01098 -0.4954,-0.06218 -0.71377,-0.14695c-0.52514,-0.18297 -1.14843,-0.59226 -1.03636,-1.49866c0.00438,-0.04029 0.01061,-0.08031 0.01869,-0.11994c0.16883,-0.89733 0.90254,-1.22204 1.47204,-1.33769c0.0736,-0.01727 0.149,-0.03131 0.22598,-0.04189l2.07534,-0.28576l0.05564,0.3685l0.48617,0.02975l-0.01642,0.10675c0.22262,0.04484 0.44606,0.09832 0.68263,0.16327l0.06941,-0.10001l2.24425,0.95557c0.52578,0.21779 0.90853,0.63341 0.98664,1.15099c0.11225,0.74344 -0.44064,1.45463 -1.28319,1.7318l-1.97416,0.689c-0.13783,0.14324 0.47212,-0.17222 0.68646,-0.13126c0.04733,-0.05435 0.11099,-0.09448 0.19918,-0.1139c1.68422,-0.37119 3.63888,3.30941 3.80245,3.79329c0.52676,1.55812 -0.90366,2.53421 -1.39533,3.91294c-0.1936,0.54289 1.61995,4.00896 2.17624,5.1606l1.24098,1.13817c0,0 0.66116,1.46396 -1.18381,2.07138c-1.84498,0.60745 -2.50614,-0.85652 -2.50614,-0.85652zM190.25017,113.1072c0.02688,-0.03179 0.0491,-0.06689 0.06779,-0.10441c-0.09657,0.13908 -0.15465,0.20717 -0.06779,0.10441z" data-paper-data="{&quot;origPos&quot;:null}" fill="#ffffff" stroke="none" stroke-width="0.5"/><path d="M181.1691,104.71448l0.30972,-1.10574l40.72826,-5.6081l0.15723,1.04144z" data-paper-data="{&quot;origPos&quot;:null}" fill="#ffffff" stroke="none" stroke-width="0"/><path d="M221.08167,98.56076l1.12691,-0.57894l4.49636,6.01074l0.95008,3.381l-2.07699,-2.80204z" data-paper-data="{&quot;origPos&quot;:null,&quot;origRot&quot;:0}" fill="#ffffff" stroke="none" stroke-width="0"/></g></g><path d="M202.21859,4.51822c16.51992,-3.51459 24.49284,7.47723 27.10707,12.38395c3.21086,6.02652 5.15459,22.90439 5.43609,30.27957c0.59932,13.67143 -5.87426,27.84771 -13.79102,31.37997c-3.61649,0.42498 -27.92294,-1.10734 -31.8938,-5.7747c-9.51602,-11.18517 -12.77666,-14.81608 -15.89374,-29.16692c-3.4739,-15.99368 3.78202,-34.08705 29.03538,-39.10188z" fill="url(#color-5)" stroke="none" stroke-width="0" stroke-linecap="butt"/><g stroke="none" stroke-width="0" stroke-linecap="butt"><path d="M216.21166,59.40602l5.95011,-1.98962c0.74739,0.2741 0.27163,2.42416 -1.4434,2.74522c-1.68235,0.31497 -4.59871,0.29555 -4.59871,0.29555l0.09197,-1.05116z" data-paper-data="{&quot;origPos&quot;:null,&quot;index&quot;:null}" fill="#f4d7c8"/><path d="M221.38736,59.02811c0.38949,-0.24355 0.79625,-0.30237 0.9085,-0.13138c0.11225,0.17097 -0.11251,0.50704 -0.502,0.75061c-0.3895,0.24354 -0.79625,0.30239 -0.9085,0.13138c-0.11225,-0.17097 0.11251,-0.50704 0.50198,-0.75062z" data-paper-data="{&quot;origPos&quot;:null,&quot;origRot&quot;:0}" fill="url(#color-6)"/><path d="M215.63494,56.97684c0,0 -1.10188,-4.14298 -2.11607,-6.73763c-0.7922,-2.02673 -2.51258,-5.10407 -2.51258,-5.10407c0,0 2.87543,2.0353 3.57817,3.56993c1.08755,2.37501 1.33085,6.26796 1.33085,6.26796z" data-paper-data="{&quot;origPos&quot;:null}" fill="url(#color-7)"/><path d="M218.15769,59.47711c0.54337,-0.08456 1.0066,0.01042 1.03467,0.21209c0.02808,0.20168 -0.38966,0.43369 -0.93304,0.51825c-0.54335,0.08452 -1.0066,-0.0104 -1.03467,-0.21208c-0.02808,-0.20168 0.38966,-0.4337 0.93304,-0.51827z" data-paper-data="{&quot;origPos&quot;:null}" fill="url(#color-8)"/><path d="M221.21407,59.52965c-0.82385,0.12028 -1.31245,-0.11073 -2.04126,-0.36634c-1.34382,-0.26344 -2.57739,0.29424 -2.77697,1.27975c-0.28069,0.24515 -0.82146,-0.12705 -1.07034,-0.37475c-0.51211,-0.50965 -0.80006,-1.29567 -0.59148,-1.98463c0.15898,-0.52508 0.20719,-0.69106 0.6197,-1.28587c0.36062,-0.52001 0.24844,-6.23161 -1.69712,-9.32088c-2.87827,-4.57026 -7.04176,-4.31684 -12.54619,-3.54246c-2.69007,0.37845 -8.50647,4.24218 -8.50647,4.24218c0,0 1.37357,-5.35034 4.51552,-7.49377c4.64475,-3.16864 8.90592,-3.92599 14.52178,-4.57468c18.0515,-3.05798 20.88161,1.72117 20.88161,1.72117c0,0 -5.25642,1.69768 -8.39514,3.27153c-3.84938,1.93019 -4.71478,3.66683 -4.95168,5.88697c-0.24551,2.30062 0.01448,4.29979 1.0983,6.78256c0.48936,1.12099 1.80891,1.44649 2.21525,2.59902c0.52878,1.4998 -0.45164,3.03995 -1.2755,3.16022z" data-paper-data="{&quot;origPos&quot;:null}" fill="url(#color-9)"/></g><path d="M226.77294,38.15856c3.44002,-0.58898 6.91394,0.93289 8.24956,1.48343c0.61881,0.25504 -4.99441,-0.68935 -8.30499,0.16304c-2.48644,0.6402 -3.50659,0.80659 -5.19638,2.67771c-0.47796,0.52931 -0.96006,0.6177 -1.35046,0.50061c-0.39044,-0.11709 -0.5162,-0.81094 -0.03821,-1.34024c0,0 2.39044,-2.75681 6.64047,-3.48448z" data-paper-data="{&quot;origRot&quot;:0,&quot;index&quot;:null}" fill="#38301c" stroke="none" stroke-width="0" stroke-linecap="butt"/><path d="M236.56428,35.55914c-7.63564,-7.02439 -9.24149,-14.67828 -19.65232,-12.39438c-11.24893,2.46776 -26.2416,14.02761 -31.67935,23.85349c-1.9456,3.51565 2.34351,11.37858 2.34351,11.37858l-2.90942,1.02502c0,0 -2.43966,-2.0829 -3.82309,-3.8594c-2.82879,-3.63254 -1.98337,9.64884 -1.98337,9.64884c0,0 -9.86049,-23.17638 -8.49181,-35.38805c1.4516,-12.95136 13.29392,-22.72379 28.53049,-25.80431c15.23657,-3.08053 24.32832,-2.18674 32.71361,8.69178c0,0 6.24469,6.80064 6.22804,12.25992z" fill="#3d3021" stroke="none" stroke-width="0" stroke-linecap="butt"/><path d="M210.38806,27.19572c-10.60025,2.32545 -20.36298,7.82862 -25.48715,17.08783c-1.9023,3.43744 -2.32108,11.45858 -2.32108,11.45858c0,0 -6.05298,-20.22647 -3.26808,-27.26442c1.1083,-7.65884 5.51919,-8.24862 5.51919,-8.24862c0,0 4.53376,-12.46084 21.16593,-16.79838c4.25001,-0.74973 10.0586,-1.05027 13.96134,0.79183c3.18924,1.50531 3.35014,3.27094 6.31631,5.17833c-4.54466,4.76674 -9.09574,16.30515 -15.88646,17.79487z" fill="#453725" stroke="none" stroke-width="0" stroke-linecap="butt"/><g stroke="none" stroke-width="0" stroke-linecap="butt"><path d="M189.37814,37.09099l-4.77313,-1.33649l6.35733,-0.70751l-1.49793,-1.02366c0,0 4.02045,0.83725 9.25087,-1.34489c7.1123,-2.96729 16.49427,-9.8797 21.82189,-11.42428c4.0647,-1.17845 7.17502,-1.21345 10.14406,1.92707c1.53065,1.61905 2.57837,5.0549 2.57837,5.0549c0,0 0.08308,2.12115 1.17773,3.45467c-0.14511,0.98773 0.25613,2.51934 0.2934,3.54497l-2.22188,-4.668c0,0 -2.05443,-3.68251 -2.20183,-3.58507c-0.44221,0.29231 0.42603,3.29229 0.42603,3.29229c0,0 -1.82489,-4.02758 -2.5876,-5.2678c-1.15549,0.88856 0.12033,1.57608 -2.15059,2.3951c-8.36832,3.01803 -10.84375,9.86485 -19.58,11.47909c-13.44141,2.48364 -21.89808,0.13173 -21.89808,0.13173z" data-paper-data="{&quot;origPos&quot;:null}" fill="url(#color-10)"/><path d="M186.71451,34.58878l-5.05486,-2.30178l6.53892,-0.52683l-1.6334,-1.59498c0,0 4.23533,1.52219 9.49057,-1.22205c9.36181,-4.88861 1.10752,-14.06803 23.03957,-21.43557c11.13223,-3.7396 7.37822,9.07835 10.37761,15.77781c0.77983,1.74182 0.65369,4.3286 0.65369,4.3286l-0.93134,-2.59442c0,0 -0.70813,-0.83893 -2.90241,0.25195c-1.88555,0.93739 -3.77038,0.58698 -3.77038,0.58698c0,0 1.43481,-0.07796 3.6113,-1.74906c1.44305,-1.06673 -0.16118,-1.47911 -0.24639,-0.98684c-12.18751,4.76451 -10.88694,12.57885 -21.33164,14.50876c-13.74844,2.54037 -21.66448,-0.84273 -21.66448,-0.84273z" data-paper-data="{&quot;origPos&quot;:null}" fill="#3b2f20"/></g><path d="M184.23783,57.56897c1.77723,4.37946 3.88161,8.31783 0.56958,10.56095c-1.82793,1.238 -6.36684,-1.34764 -8.30132,-6.11454c-1.93448,-4.76688 -0.76442,-6.69257 1.88578,-8.0825c2.65022,-1.38993 3.91148,-1.1308 5.84592,3.63611z" data-paper-data="{&quot;origRot&quot;:0}" fill="#f6d8c8" stroke="none" stroke-width="0" stroke-linecap="butt"/><g stroke-linecap="butt"><g data-paper-data="{&quot;origPos&quot;:null,&quot;origRot&quot;:0}" stroke="none" stroke-width="0"><path d="M201.42037,57.30608c-4.25676,-0.03129 -6.24306,-0.4814 -7.03672,-3.65691c-0.30479,-1.21948 -0.32069,-2.11111 0.30353,-3.05805c0.58515,-0.8877 1.99783,-1.96811 2.9486,-2.33751c2.27687,-0.88463 4.09542,-1.33467 6.25851,-1.31877c5.1543,0.73185 6.32515,4.64146 6.32515,4.64146c0,0 -0.26893,1.52028 -0.97676,2.54836c-2.3726,3.44595 -7.8223,3.18139 -7.8223,3.18139z" data-paper-data="{&quot;origPos&quot;:null}" fill="#000000"/><path d="M208.97442,54.81059c-0.77759,1.37247 -2.27715,1.89715 -2.27715,1.89715c-1.83807,0.2711 -2.92342,0.53985 -4.76332,0.55531c-1.89112,0.01587 -3.1969,0.2336 -4.61049,-0.77508c-1.41469,-1.00944 -2.27956,-2.23118 -2.23131,-3.38941c0.02381,-0.57162 -0.3012,-1.89215 1.1674,-2.76161c1.08186,-0.6405 1.82637,-1.66626 2.80548,-1.97904c2.31845,-0.74058 2.71732,-0.88926 5.14194,-0.8714c4.0037,1.06384 5.78968,4.44723 5.78968,4.44723c0,0 -0.24464,1.50442 -1.02224,2.87688z" data-paper-data="{&quot;origPos&quot;:null}" fill="#ffffff"/></g><g data-paper-data="{&quot;origPos&quot;:null}" stroke="#000000" stroke-width="0"><path d="M207.17512,50.56257c0.47471,1.32454 0.41249,2.7176 -0.07213,3.89774c-0.48461,1.18015 -1.63571,1.79381 -2.84902,2.26769c-1.21327,0.47391 -2.26188,0.71939 -3.36963,0.16115c-1.10773,-0.55819 -2.03066,-1.5665 -2.50542,-2.89105c-0.25529,-0.71235 -0.27164,-1.45999 -0.23415,-2.16815c3.70913,-2.2464 4.18195,-3.13867 8.86118,-1.6853c0.0614,0.13552 0.1179,0.27486 0.16917,0.41791z" data-paper-data="{&quot;origPos&quot;:null}" fill="#898151"/><path d="M204.73132,47.77037c1.10772,0.5582 2.03059,1.56647 2.5053,2.89108c0.10067,0.2809 0.09354,0.58035 0.14703,0.86471c-0.73032,-0.02317 -1.16396,-1.19714 -4.82307,-0.57507c-3.32999,0.5661 -3.90747,1.62335 -4.40222,1.96909c-0.11971,-0.94711 0.01187,-1.88719 0.35426,-2.721c0.48461,-1.18015 1.39173,-2.1475 2.60501,-2.62139c1.2133,-0.47384 2.50591,-0.36565 3.61369,0.19259z" data-paper-data="{&quot;origPos&quot;:null}" fill="#4d461c"/></g><path d="M203.30317,57.1459c-1.32837,0.24545 -3.33993,0.72409 -3.33993,0.72409l-0.07964,-0.43098c0,0 2.0638,-0.39164 3.35719,-0.63063c1.67806,-0.31006 4.25688,-0.77626 4.25688,-0.77626l0.07964,0.43099c0,0 -2.63106,0.37921 -4.27415,0.6828z" data-paper-data="{&quot;origPos&quot;:null}" fill="#000000" stroke="none" stroke-width="0"/><path d="M201.41074,47.67006c-1.24195,0.24542 -4.19054,2.03008 -4.19054,2.03008c0,0 -2.9664,1.93556 -2.60369,1.10551c0.35708,-0.81721 1.40496,-1.63588 2.63965,-2.38041c1.55061,-0.93501 2.83457,-1.48222 4.64932,-1.78329c2.87551,-0.07562 4.73348,0.8106 6.10791,1.95767c-0.1147,0.1981 -1.70338,-0.48527 -1.77646,-0.26665c-0.48849,-0.23714 -0.97213,-0.45176 -1.6039,-0.64891c-1.00486,-0.31358 -1.98034,-0.25943 -3.22228,-0.01401z" data-paper-data="{&quot;origPos&quot;:null,&quot;origRot&quot;:0}" fill="#000000" stroke="#000000" stroke-width="0"/><g data-paper-data="{&quot;origPos&quot;:null}" stroke="none" stroke-width="1"><path d="M201.24549,49.46634c0.48925,-0.62074 1.18587,-0.99072 1.97309,-0.9626c0.78725,0.0281 1.51767,0.44905 2.06165,1.10673c0.544,0.65769 0.90139,1.55205 0.94311,2.52612c0.04168,0.97407 -0.24007,1.8456 -0.72926,2.46635c-0.48921,0.62073 -1.18585,0.99073 -1.97304,0.9626c-0.78721,-0.0281 -1.51773,-0.44906 -2.0617,-1.10675c-0.544,-0.65769 -0.90136,-1.55202 -0.94308,-2.52604c-0.04173,-0.97406 0.24003,-1.84564 0.72925,-2.46641z" data-paper-data="{&quot;origPos&quot;:null}" fill="#000000"/><path d="M204.01888,49.46049c0.13176,-0.2722 0.35414,-0.45008 0.63555,-0.46876c0.28135,-0.01877 0.56932,0.1251 0.80702,0.37279c0.23775,0.24764 0.42517,0.59919 0.50586,0.99522c0.0807,0.39599 0.03968,0.76271 -0.09206,1.03499c-0.13176,0.2722 -0.35414,0.45005 -0.63553,0.46875c-0.28139,0.0187 -0.56929,-0.12511 -0.80702,-0.37281c-0.23768,-0.24761 -0.42517,-0.59912 -0.50587,-0.99517c-0.0807,-0.39599 -0.03964,-0.76279 0.09209,-1.0351z" data-paper-data="{&quot;origPos&quot;:null,&quot;origRot&quot;:0}" fill="#ffffff"/><path d="M200.69288,53.1133c0.13616,-0.13052 0.32398,-0.21316 0.53092,-0.21688c0.20697,-0.00374 0.3942,0.07214 0.52959,0.19778c0.13536,0.12566 0.21878,0.30103 0.21814,0.49635c-0.00058,0.19527 -0.08521,0.37376 -0.22139,0.50425c-0.13616,0.13052 -0.32391,0.21323 -0.5309,0.21693c-0.20694,0.00375 -0.39411,-0.07209 -0.52947,-0.19774c-0.13535,-0.12562 -0.21879,-0.30107 -0.21816,-0.49639c0.00066,-0.19532 0.08522,-0.3737 0.22137,-0.50419z" data-paper-data="{&quot;origPos&quot;:null}" fill="#ffffff"/></g><path d="M199.69283,43.02771c5.08508,-1.33486 9.01165,0.02673 9.01165,0.02673c0.77519,0.2525 0.94971,0.93576 0.56613,1.22389c-0.38356,0.28816 -0.96303,0.43426 -1.7382,0.18176c-2.74038,-0.89263 -3.9572,-0.56473 -7.02963,0.02318c-4.09078,0.78282 -9.94124,4.26039 -9.36486,3.74121c1.24405,-1.12065 4.43894,-4.11636 8.55487,-5.19681z" data-paper-data="{&quot;origRot&quot;:0,&quot;origPos&quot;:null,&quot;index&quot;:null}" fill="#38301c" stroke="none" stroke-width="0"/></g><g data-paper-data="{&quot;origRot&quot;:0}" stroke-linecap="butt"><g data-paper-data="{&quot;origPos&quot;:null,&quot;origRot&quot;:0}" stroke="none" stroke-width="0"><path d="M223.58076,51.56241c-0.90163,-0.63044 -1.66105,-1.83697 -1.66105,-1.83697c0,0 -0.5788,-3.75934 2.95416,-6.20302c1.59015,-0.77624 3.09799,-1.03215 5.1044,-1.07769c0.83782,-0.01901 2.27883,0.40775 3.03816,0.96132c0.81001,0.59048 1.1273,1.3593 1.35241,2.51061c0.01158,3.10131 -1.81922,4.52445 -3.84252,5.61112c0,0 -3.92336,2.14779 -6.94555,0.03462z" data-paper-data="{&quot;origPos&quot;:null}" fill="#000000"/><path d="M222.57489,46.89013c0.49846,-1.49395 1.07691,-1.70202 2.2718,-2.78528c1.78237,-0.87011 2.13156,-0.88347 4.11546,-1.06694c1.77638,0.03045 3.98711,1.3843 4.43263,2.69022c0.46302,0.97439 0.52374,2.29211 -0.14756,3.65496c-0.6708,1.3618 -1.71457,1.63581 -3.11578,2.28894c-1.36325,0.63545 -2.26323,0.78805 -3.71946,1.20402c0,0 -1.30004,0.07959 -2.38023,-0.82109c-1.08017,-0.90065 -2.18745,-2.27736 -2.18745,-2.27736z" data-paper-data="{&quot;origPos&quot;:null}" fill="#ffffff"/></g><g data-paper-data="{&quot;origPos&quot;:null,&quot;origRot&quot;:0}" stroke="#000000" stroke-width="0"><path d="M223.93699,47.14865c0.0065,-0.1463 0.01782,-0.29043 0.03373,-0.43214c3.23037,-2.51437 3.79303,-1.79797 7.12627,-0.61724c0.18951,0.65208 0.34703,1.35433 0.31469,2.0827c-0.06018,1.35437 -0.5333,2.52422 -1.24936,3.31945c-0.71606,0.79525 -2.11561,1.0848 -3.1466,0.94223c-1.03103,-0.14256 -1.50073,-0.6905 -2.13778,-1.6728c-0.63705,-0.9823 -1.0011,-2.26786 -0.94095,-3.62223z" data-paper-data="{&quot;origPos&quot;:null}" fill="#898151"/><path d="M225.16191,43.9367c0.71608,-0.79525 1.67512,-1.21592 2.70612,-1.07343c1.03102,0.14252 1.94122,0.82163 2.57827,1.80394c0.45011,0.69403 0.76395,1.53942 0.88815,2.45353c-0.45509,-0.20055 -1.13489,-1.04513 -3.79762,-0.75038c-2.9259,0.32386 -2.989,1.52742 -3.5395,1.72966c-0.02395,-0.27881 -0.09745,-0.55665 -0.0847,-0.84389c0.06013,-1.35438 0.53323,-2.52424 1.24926,-3.31947z" data-paper-data="{&quot;origPos&quot;:null}" fill="#4d461c"/></g><g data-paper-data="{&quot;index&quot;:null,&quot;origPos&quot;:null,&quot;origRot&quot;:0}" stroke="none" stroke-width="1"><path d="M226.14699,45.28794c0.42885,-0.55071 1.0349,-0.86788 1.71575,-0.82079c0.68089,0.04706 1.30916,0.44956 1.77397,1.06208c0.46482,0.61254 0.76605,1.43503 0.79348,2.32132c0.02739,0.8863 -0.22417,1.67058 -0.65296,2.22129c-0.42883,0.55069 -1.03487,0.86787 -1.71572,0.82079c-0.68087,-0.04707 -1.3092,-0.44955 -1.77399,-1.06209c-0.46482,-0.61254 -0.76606,-1.43502 -0.79346,-2.32127c-0.02744,-0.8863 0.22415,-1.67061 0.65297,-2.22133z" data-paper-data="{&quot;origPos&quot;:null}" fill="#000000"/><path d="M228.65198,45.34138c0.11646,-0.24376 0.31041,-0.39929 0.55408,-0.40858c0.2436,-0.00936 0.49147,0.12922 0.69494,0.3608c0.20349,0.23153 0.36254,0.55615 0.42883,0.9182c0.0663,0.36205 0.02753,0.69417 -0.08888,0.938c-0.11646,0.24376 -0.3104,0.39931 -0.55405,0.40859c-0.24364,0.0093 -0.49144,-0.12927 -0.69493,-0.36084c-0.20345,-0.23151 -0.36252,-0.55607 -0.42885,-0.91818c-0.0663,-0.36205 -0.02749,-0.69424 0.08892,-0.9381z" data-paper-data="{&quot;origPos&quot;:null,&quot;origRot&quot;:0}" fill="#ffffff"/><path d="M225.74158,48.56986c0.11897,-0.11488 0.2822,-0.18484 0.46131,-0.18256c0.17911,0.00226 0.34042,0.07634 0.45645,0.1942c0.11599,0.11788 0.18662,0.27954 0.18433,0.45701c-0.00224,0.17744 -0.07706,0.3373 -0.19605,0.45217c-0.11897,0.11488 -0.28214,0.18493 -0.46129,0.18262c-0.17908,-0.00225 -0.34039,-0.07629 -0.45636,-0.19416c-0.11598,-0.11787 -0.18663,-0.27958 -0.18434,-0.45706c0.00232,-0.17748 0.07708,-0.33724 0.19604,-0.45214z" data-paper-data="{&quot;origPos&quot;:null}" fill="#ffffff"/></g><path d="M225.48162,53.00305l-0.10504,-0.45385c0,0 1.4062,-0.20585 2.99956,-0.55969c1.2281,-0.27274 3.1342,-1.01013 3.1342,-1.01013l0.10506,0.45385c0,0 -1.71709,0.68018 -2.97841,0.96029c-1.56017,0.34648 -3.15537,0.60954 -3.15537,0.60954z" data-paper-data="{&quot;origPos&quot;:null,&quot;origRot&quot;:0}" fill="#000000" stroke="none" stroke-width="0"/><path d="M222.33667,46.60006c0.53498,-1.45813 1.52441,-2.88571 3.6355,-3.91124c1.43384,-0.43999 2.52602,-0.7822 4.02275,-0.60364c1.19179,0.14218 2.92019,1.25351 2.92019,1.25351c0,0 -1.53431,-0.03662 -2.43802,-0.0612c-1.14899,-0.03122 -2.50966,0.02174 -3.50673,0.2906c-0.99707,0.26886 -1.63269,0.60577 -2.48742,1.61451c-0.86999,1.02673 -2.2847,3.47977 -2.2847,3.47977z" data-paper-data="{&quot;origPos&quot;:null,&quot;origRot&quot;:0}" fill="#000000" stroke="#000000" stroke-width="0"/></g><g><g><path d="" data-paper-data="{&quot;origPos&quot;:null}" fill="none" stroke="#000000" stroke-width="1.5" stroke-linecap="round"/><path d="M261.25411,31.70474l-20.39638,-7.12919l3.19183,-9.40163l20.39638,7.12919z" fill="#524e53" stroke="none" stroke-width="0" stroke-linecap="butt"/><g stroke="none" stroke-width="0" stroke-linecap="butt"><path d="M248.91637,23.81936c0,0 -18.80358,1.55607 -29.37231,-1.74229c-26.48246,-8.26484 -125.1856,-43.76255 -125.1856,-43.76255l16.20032,-3.13033l137.72022,45.9394z" fill="url(#color-11)"/><path d="M247.85555,25.80073l-136.2892,-50.15451l-23.64782,-0.08516c0,0 22.14817,-10.52743 34.24396,-6.90874c28.98598,8.67175 74.71025,22.28289 104.4553,34.00521c15.13249,5.96362 24.91732,16.87808 24.91732,16.87808z" data-paper-data="{&quot;index&quot;:null}" fill="url(#color-12)"/><g><path d="M249.73471,26.14965c0,0 -96.50088,-32.39807 -116.5844,-39.14147c-3.37988,-1.13485 -14.80652,-4.17444 -23.62202,-5.44881c-9.51763,-1.37588 -10.17565,2.33139 -10.17565,2.33139l-15.323,-3.72628c0,0 3.56941,-8.55732 16.50912,-9.69968c12.40338,-1.09502 33.61148,6.7228 38.19365,8.26083c22.16908,7.44113 115.0825,39.8677 115.0825,39.8677z" fill="url(#color-13)"/><path d="M249.73471,26.14965c0,0 -96.50088,-32.39807 -116.5844,-39.14147c-3.37988,-1.13485 -14.80652,-4.17444 -23.62202,-5.44881c-9.51763,-1.37588 -10.17565,2.33139 -10.17565,2.33139l-15.323,-3.72628c0,0 3.56941,-8.55732 16.50912,-9.69968c12.40338,-1.09502 33.61148,6.7228 38.19365,8.26083c22.16908,7.44113 115.0825,39.8677 115.0825,39.8677z" fill="url(#color-14)"/><path d="M251.31871,25.24938c0,0 -55.02716,-20.07795 -89.50379,-31.0001c-34.47662,-10.92215 -37.62061,-13.23075 -57.16079,-15.46309c-5.02194,-0.57372 -9.68734,3.50227 -9.68734,3.50227l-6.36154,-1.25533c0,0 3.4629,-6.01741 12.8022,-6.86287c14.1248,-1.27867 38.62487,8.57338 62.95027,16.06982c24.32541,7.49644 88.75194,30.6807 88.75194,30.6807z" fill="#000000"/></g></g><g stroke="none" stroke-width="0" stroke-linecap="butt"><g><path d="M258.94278,30.52121l-11.7749,-3.59504c0,0 1.31617,-3.37983 1.91012,-5.23033c0.48492,-1.51082 1.39326,-5.06167 1.39326,-5.06167l12.59894,3.43821z" fill="#464347"/><path d="M252.59662,29.39075l-11.12713,-4.0528l1.14136,-3.36191l11.17674,3.90663z" fill="#2c2a2c"/><path d="M261.75686,23.33827c0,0 -6.04766,1.97975 -9.29332,2.15596c-3.27477,0.17781 -10.26876,-1.09387 -10.26876,-1.09387l0.65162,-2.31951c0,0 7.20203,0.56812 10.49353,0.39867c3.0432,-0.15667 8.56906,-1.38006 8.56906,-1.38006z" fill="#191819"/><path d="M242.12267,25.54009l-1.71422,-0.66064l3.82252,-10.42082l1.71422,0.66064z" fill="#191819"/></g><g><path d="M292.12111,42.46006l-32.27648,-11.35314l10.17341,-7.5166c0,0 2.99238,0.91958 7.4127,2.02106c4.64247,1.15686 10.82858,2.52024 15.42894,3.48117c3.12169,0.65206 5.43785,1.14136 5.43785,1.14136l1.99765,8.23487z" fill="#2d2d31"/><path d="M301.51975,38.8044l-6.4478,3.83805l-4.60112,-1.51639l6.26234,-3.77786l-0.91758,-7.74485l4.94116,0.4507z" fill="#0f1011"/><path d="M263.98598,32.76528l-12.79662,-3.09464l1.5324,-4.19942c0,0 4.22321,-2.36021 5.96499,-3.56124c1.63745,-1.12908 4.19206,-3.4424 4.19206,-3.4424l7.50932,5.00359c0,0 0.2665,2.83114 -2.6168,7.94365c-1.25255,2.22095 -3.78538,1.35046 -3.78538,1.35046z" fill="#282628"/><path d="M263.6208,32.23617l-11.59062,-2.803l1.38797,-3.80366c0,0 3.8252,-2.13779 5.40284,-3.22562c0.78825,0.57555 9.41834,6.22045 8.22842,8.60908c-1.13451,2.01164 -3.42863,1.22319 -3.42863,1.22319z" fill="#232123"/><path d="M270.35842,34.45446l-0.83027,-0.29021l2.33235,-6.87l0.83027,0.29021z" fill="#252527"/><path d="M274.82914,36.01711l-0.83027,-0.29021l2.33235,-6.87l0.83027,0.29021z" fill="#252527"/><path d="M272.27443,35.12416l-0.83027,-0.29021l2.33235,-6.87l0.83027,0.29021z" fill="#252527"/><path d="M276.74514,36.68681l-0.83027,-0.29021l2.33235,-6.87l0.83027,0.29021z" fill="#252527"/><path d="M294.55377,43.77316l-19.20303,-7.35653l6.35356,-3.40149l20.62582,6.56132z" fill="#464649"/><path d="M294.33736,43.76638l-8.2921,-2.96827l4.89202,-2.18568l7.46809,3.04148z" fill="#737277"/></g></g></g><g data-paper-data="{&quot;origPos&quot;:null}" stroke="none" stroke-width="0" stroke-linecap="butt"><path d="M268.31264,52.34132l-2.45385,8.64888l-12.52029,-3.55223l2.7945,-8.33775c0,0 1.61598,-1.89201 3.81514,-1.26809c1.45537,0.41291 8.36448,4.50918 8.36448,4.50918z" data-paper-data="{&quot;origPos&quot;:null}" fill="#000000"/><path d="M246.71071,73.90827c4.56375,-10.42093 7.05785,-19.01557 13.06193,-26.01679c3.21373,-3.74744 6.15126,-2.81061 6.62835,2.11117c0.91593,9.44868 -3.24043,20.73153 -6.58865,30.71192c-3.00225,8.94911 -0.87301,11.8958 -7.72305,29.57184c-4.07335,11.50249 -26.03626,2.26596 -21.2366,-8.94662c4.79966,-11.21257 11.29428,-17.0106 15.85802,-27.43152z" data-paper-data="{&quot;origPos&quot;:null}" fill="url(#color-15)"/><g data-paper-data="{&quot;origPos&quot;:null}"><path d="M267.15157,53.98308l-1.24361,7.00063l-12.63887,-3.37139l3.36885,-9.43603c0,0 1.22441,3.70307 4.07362,4.88938z" data-paper-data="{&quot;origPos&quot;:null}" fill="url(#color-16)"/><path d="M267.2245,56.79011c0,0 -8.16823,38.51271 -14.30351,51.62151c-3.74077,7.9926 -5.73845,10.03222 -13.71021,6.80609c-7.63635,-2.83254 -9.95428,-7.89087 -8.84932,-13.77068c1.10498,-5.87981 26.3984,-52.62394 26.3984,-52.62394c0,0 -1.05398,5.38861 2.1509,6.75853c3.40167,1.454 8.31372,1.2085 8.31372,1.2085z" data-paper-data="{&quot;origPos&quot;:null,&quot;origRot&quot;:0}" fill="#1e4994"/></g></g><path d="M265.53556,35.96576c0.38482,0.96059 -2.15142,1.44091 -2.15142,1.44091c-1.19522,0.17873 -2.13638,0.31087 -2.34683,-0.87919c-0.21881,-1.23736 -1.93462,-4.50312 -2.12737,-5.79203c0.31351,-0.24101 4.81145,1.97201 4.81145,1.97201c0,0 1.02465,1.28759 1.81417,3.25835z" fill="#fde6d9" stroke="none" stroke-width="0" stroke-linecap="butt"/><path d="M277.13176,39.89174c-0.54995,0.67634 -1.81634,0.00832 -1.81634,0.00832c-1.68286,-0.5359 -9.32855,-3.36125 -7.8091,-4.027c2.20934,-0.96804 6.32712,-2.93707 6.83118,-4.69557c0.29066,-1.014 1.08739,-1.79583 1.35159,-2.81795c0.43958,-1.70059 1.34135,-2.63199 3.18497,-2.06726c2.05689,0.63005 1.60581,1.15666 1.68296,3.06912c0.02496,0.61841 -0.43339,2.9982 -0.60082,3.58229c-1.22354,4.26847 -1.20982,4.96228 -2.82445,6.94802z" data-paper-data="{&quot;origRot&quot;:0}" fill="url(#color-17)" stroke="none" stroke-width="0" stroke-linecap="butt"/><path d="M281.11147,27.86604c-0.17873,0.68244 -1.53877,0.83993 -1.53877,0.83993c-1.65738,0.4328 -3.24753,1.26862 -3.16561,-0.93156c0.06173,-1.65846 -0.31427,-3.02436 -0.6357,-4.3733c-0.11631,-0.48812 -0.61406,-1.74078 -0.78927,-2.21334c-0.52229,-1.4087 0.52235,-2.10442 2.22464,-2.41102c1.34072,-0.24149 2.56172,0.10257 3.34192,3.37685c0.78019,3.27428 1.08755,3.7088 0.56279,5.71243z" data-paper-data="{&quot;origRot&quot;:0}" fill="url(#color-18)" stroke="none" stroke-width="0" stroke-linecap="butt"/><g data-paper-data="{&quot;origRot&quot;:0}" fill="#fde6d9" stroke="none" stroke-width="0" stroke-linecap="butt"><path d="M270.76195,39.19353c-0.7624,0.59566 -1.81751,-0.37309 -1.81751,-0.37309c-1.51281,-0.91738 -6.62121,-6.70772 -4.89343,-7.0884c2.51226,-0.55353 5.60478,-0.5469 6.66196,-2.29024c0.6096,-1.00525 1.65179,-1.65998 2.23751,-2.67932c0.97454,-1.69603 2.16873,-2.48595 3.8331,-1.50443c1.85688,1.09503 1.24041,1.55398 0.7155,3.58142c-0.16973,0.65561 -1.3768,3.06196 -1.72796,3.64102c-2.56616,4.23167 -2.77085,4.96425 -5.00923,6.71308z" data-paper-data="{&quot;origRot&quot;:0,&quot;origPos&quot;:null}"/><path d="M277.86031,27.59808c-0.30082,0.72008 -1.71624,0.57631 -1.71624,0.57631c-1.76669,0.09379 -3.53467,0.65341 -3.06938,-1.78432c0.3507,-1.8375 0.2039,-3.45124 0.10983,-5.0331c-0.03405,-0.57239 -0.32476,-2.08831 -0.42158,-2.65718c-0.28868,-1.69587 0.8982,-2.22726 2.68883,-2.16956c1.4103,0.04543 2.59683,0.71661 2.82511,4.55644c0.2283,3.83982 0.46663,4.3973 -0.41653,6.51144z" data-paper-data="{&quot;origRot&quot;:0,&quot;origPos&quot;:null}"/><path d="M277.37102,17.72802c0.28302,0.65368 -0.70227,1.66588 -0.70227,1.66588c-1.05056,1.423 -1.58022,1.25233 -2.72191,0.81104c-1.31564,-0.50857 -2.45141,-1.74016 -4.03115,-3.2015c-1.57977,-1.46132 -2.17116,-4.09629 -1.44588,-4.62124c0.67797,-0.49069 2.02456,-0.77125 4.68721,1.29545c2.66267,2.06672 3.38305,2.13113 4.21399,4.05035z" data-paper-data="{&quot;origRot&quot;:0,&quot;origPos&quot;:null}"/></g><g data-paper-data="{&quot;origRot&quot;:0}" fill="#fde6d9" stroke="none" stroke-width="0" stroke-linecap="butt"><path d="M271.76781,37.20429c-0.40029,0.8808 -1.78388,0.51014 -1.78388,0.51014c-1.76557,-0.11336 -8.97336,-2.88317 -7.61778,-4.02006c3.07486,-2.57879 5.57926,-6.6376 5.59039,-8.52321c0.07927,-1.95446 1.05939,-2.53365 2.989,-2.43357c2.15282,0.11165 2.25759,0.74287 2.26961,2.7745c0.00402,0.67721 -0.06904,2.74743 -0.11246,3.42328c-0.3171,4.93878 -0.15963,5.68294 -1.3349,8.26895z" data-paper-data="{&quot;origRot&quot;:0,&quot;origPos&quot;:null}"/><path d="M272.99302,26.79601c-0.16895,0.76188 -1.58752,0.87028 -1.58752,0.87028c-1.72236,0.40428 -3.36374,1.26729 -3.33623,-1.21429c0.02073,-1.87055 -0.40874,-3.43299 -0.78066,-4.97342c-0.13458,-0.55741 -0.6884,-1.99815 -0.88419,-2.54096c-0.58363,-1.61825 0.49078,-2.35086 2.26348,-2.61029c1.39616,-0.20431 2.68256,0.2468 3.58531,3.98595c0.90275,3.73915 1.23578,4.24581 0.73978,6.48268z" data-paper-data="{&quot;origRot&quot;:0,&quot;origPos&quot;:null}"/><path d="M271.18627,18.9711c0.00143,0.71234 -1.30384,1.25233 -1.30384,1.25233c-1.52767,0.89151 -1.94668,0.5253 -2.82077,-0.33154c-1.00726,-0.98741 -1.56335,-2.56776 -2.43641,-4.53471c-0.87305,-1.96695 -0.49158,-5.1979 0.38217,-5.39322c0.81675,-0.18257 2.28191,0.66919 3.91018,3.62043c1.62825,2.95126 2.26444,3.2953 2.26863,5.38669z" data-paper-data="{&quot;origRot&quot;:0,&quot;origPos&quot;:null}"/></g><path d="M275.98025,41.56438c-4.17762,6.14395 -8.02631,12.30044 -10.29517,11.60216c-1.68628,-0.51897 -6.96087,-0.9289 -5.66647,-4.74628c1.10568,-3.26083 1.22847,-11.73861 2.24126,-15.02948c0,0 17.38545,2.78346 13.7204,8.17359z" data-paper-data="{&quot;origRot&quot;:0}" fill="url(#color-19)" stroke="none" stroke-width="0" stroke-linecap="butt"/></g><g data-paper-data="{&quot;origRot&quot;:0}" stroke="none" stroke-width="0" stroke-linecap="butt"><path d="M191.7196,94.15742c9.16077,-4.02357 11.37323,-1.47715 21.39149,-1.38562c23.85456,0.21793 22.99004,0.50293 31.11298,2.37203c9.87604,2.27248 5.99512,21.72364 -4.18309,21.62399c-5.61673,-0.055 -18.58378,1.98021 -24.19994,1.90202c-19.22511,-0.2676 -32.26283,-7.37127 -35.58906,-14.03587c-3.50723,-7.02728 6.78214,-8.41858 11.46766,-10.47656z" data-paper-data="{&quot;origPos&quot;:null,&quot;origRot&quot;:0}" fill="#2152a6"/><path d="M180.99476,106.71703c5.89138,-1.42493 12.60856,-3.47308 17.51181,-3.40565c16.94201,0.23295 33.87426,0.74214 50.80519,1.29187c-0.30431,5.86313 -4.06609,12.20443 -9.88874,12.14742c-5.61673,-0.055 -18.58378,1.98021 -24.19994,1.90202c-17.21149,-0.23958 -29.46384,-5.95822 -34.22835,-11.93566z" data-paper-data="{&quot;origPos&quot;:null,&quot;origRot&quot;:0}" fill="#000000"/></g><path d="M222.79681,65.14721c-0.12663,1.28718 2.30507,4.03405 2.30507,4.03405l-16.67132,1.64077c0,0 -1.17616,-2.8469 -0.67051,-4.17286c0.45937,-1.20461 3.57888,-3.45383 3.57888,-3.45383l14.46387,-1.1386c0,0 -2.90468,2.06073 -3.00599,3.09047z" fill="url(#color-20)" stroke="none" stroke-width="0" stroke-linecap="round"/><path d="M208.50442,67.03957l11.20641,-1.02045" fill="none" stroke="#000000" stroke-width="0.5" stroke-linecap="round"/></g></g></g></svg>