<svg xmlns="http://www.w3.org/2000/svg" xmlns:xlink="http://www.w3.org/1999/xlink" version="1.1" width="228.5" height="212.1063" viewBox="0,0,228.5,212.1063"><g><g data-paper-data="{&quot;isPaintingLayer&quot;:true}" fill-rule="nonzero" stroke-linejoin="miter" stroke-miterlimit="10" stroke-dasharray="" stroke-dashoffset="0" style="mix-blend-mode: normal"><path d="M272.25,389.04117l28.5,-120l200,-19.5v139.5z" fill="#4db494" stroke="none" stroke-width="NaN" stroke-linecap="butt" transform="matrix(1,0,0,1,-272.25,-196.47688)"/><path d="M 114.7499 110.0214 C 114.7499 110.0214 118.1558 116.4453 113.5326 115.9806 C 112.9032 114.9713 80.1298 111.4004 80.1298 111.4004 " data-paper-data="{&quot;index&quot;:null}" fill="none" stroke="#000000" stroke-width="2" stroke-linecap="round"/><path d="M 60.4471 160.5883 C 60.4471 160.5883 58.3856 205.4246 57.6829 206.8521 C 56.5628 209.1292 50.9154 207.4286 50.9154 207.4286 " data-paper-data="{&quot;origRot&quot;:0,&quot;index&quot;:null}" fill="none" stroke="#000000" stroke-width="2" stroke-linecap="round"/><path d="M 51.0842 200.1113 C 53.4833 200.408 55.5766 201.3326 57.0203 202.5875 C 58.464 203.8424 59.2591 205.427 59.061 207.0427 C 58.8629 208.6583 57.6282 210.1843 56.0053 210.8677 C 48.5216 211.5288 46.3654 210.7908 43.7124 209.3478 C 42.2801 208.4371 41.4731 206.5125 41.6717 204.8927 C 41.8703 203.2729 43.0237 201.9335 44.7274 201.0676 C 46.4311 200.2018 48.6852 199.8147 51.0842 200.1113 Z " data-paper-data="{&quot;origRot&quot;:0,&quot;index&quot;:null}" fill="#000000" stroke="none" stroke-width="2" stroke-linecap="round"/><path d="M 85.7848 205.0853 C 85.7848 205.0853 80.8018 208.4694 80.2357 205.9954 C 79.9227 204.6291 78.7197 163.8137 78.7197 163.8137 " data-paper-data="{&quot;origRot&quot;:0,&quot;index&quot;:null}" fill="none" stroke="#000000" stroke-width="2" stroke-linecap="round"/><path d="M 72.8861 106.3223 C 77.5382 106.8063 81.5481 110.8007 84.2675 116.8624 C 86.9878 122.9249 88.4178 131.0542 87.9109 139.808 C 87.4047 148.5622 85.0556 156.2984 81.6698 161.7258 C 78.285 167.152 73.8634 170.2689 69.2113 169.7849 C 64.5591 169.3009 60.5493 165.3068 57.8298 159.2452 C 55.1091 153.1826 53.6795 145.0534 54.1861 136.2996 C 54.3791 132.9674 54.6144 131.0949 55.2993 127.8265 C 56.4157 122.4986 59.8328 115.801 60.1482 115.2847 C 60.2534 115.1126 60.3208 114.5529 60.4276 114.3818 C 63.8124 108.9556 68.2339 105.8383 72.8861 106.3223 Z " data-paper-data="{&quot;origRot&quot;:0,&quot;index&quot;:null}" fill="#080064" stroke="#000000" stroke-width="2" stroke-linecap="butt"/><g data-paper-data="{&quot;origRot&quot;:0}" stroke-linecap="round"><path d="M 85.0368 107.5568 L 75.8112 135.0727 L 70.8864 106.1564 C 70.8864 106.1564 74.9842 112.4671 77.8184 112.7829 C 80.4593 113.0771 85.0368 107.5568 85.0368 107.5568 Z " fill="#ffffff" stroke-width="2" stroke="#000000"/><path d="M 74.776 140.0006 L 76.2623 113.5707 L 73.9352 106.8985 L 79.3325 107.028 L 77.4739 113.5997 L 78.7664 138.3702 L 76.7809 146.0897 Z " fill="#ac0000" stroke-width="2" stroke="#000000"/><path d="M 77.7723 112.3301 L 83.6109 107.267 L 82.9122 116.5984 Z " fill="#ffffff" stroke-width="2" stroke="#000000"/><path d="M 71.2085 116.691 L 71.6486 108.3253 L 76.4689 112.6721 Z " fill="#ffffff" stroke-width="2" stroke="#000000"/></g><path d="M 93.6521 202.4085 C 95.293 203.4462 96.3495 204.9132 96.431 206.5758 C 96.5124 208.2383 95.5664 210.1164 94.0685 210.9071 C 91.3114 212.1242 89.1021 212.6721 81.667 211.3031 C 80.0936 210.4582 78.9693 208.7942 78.8881 207.1359 C 78.8068 205.4777 79.7163 203.9435 81.2506 202.8045 C 82.7849 201.6655 84.9447 200.9223 87.365 200.845 C 89.7852 200.7677 92.0111 201.3709 93.652 202.4085 Z " data-paper-data="{&quot;origRot&quot;:0,&quot;index&quot;:null}" fill="#000000" stroke="none" stroke-width="2" stroke-linecap="round"/><path d="M 103.0184 56.0824 C 109.6966 62.9426 113.5325 71.9036 112.9373 81.3326 C 112.3425 90.7613 107.4279 98.8888 99.9685 104.4039 C 92.509 109.9175 82.5055 112.8183 71.7328 111.7932 C 60.9601 110.7676 51.44 106.0094 44.7618 99.1495 C 38.0836 92.2889 34.2476 83.3283 34.8425 73.8997 C 35.4377 64.4711 40.3523 56.3428 47.8118 50.8284 C 55.2712 45.3141 65.2743 42.4136 76.0475 43.4388 C 86.8197 44.4644 96.3402 49.223 103.0184 56.0824 Z " data-paper-data="{&quot;origRot&quot;:0,&quot;index&quot;:null}" fill="#ffa200" stroke="#000000" stroke-width="2" stroke-linecap="butt"/><path d="M 62.9842 104.12 C 62.9842 104.12 65.175 103.4772 66.5957 103.7518 C 68.098 104.0421 69.7194 105.8909 69.7194 105.8909 " fill="none" stroke="#000000" stroke-width="2" stroke-linecap="round"/><path d="M 91.9122 60.8965 C 93.5923 60.902 95.6128 64.2691 96.3759 66.575 C 97.959 71.3512 98.3152 76.3658 98.3313 81.1677 C 98.5726 85.5439 98.3916 89.9614 97.1425 93.9015 C 96.422 96.1706 94.6766 99.5572 92.9966 99.5517 C 91.3165 99.5462 89.7334 97.3754 88.5329 93.8732 C 87.3328 90.3705 86.5147 85.5364 86.3652 80.2041 C 86.2156 74.872 86.7625 70.0423 87.7663 66.5468 C 88.7705 63.0519 90.2321 60.891 91.9122 60.8966 Z " data-paper-data="{&quot;origRot&quot;:0,&quot;index&quot;:null}" fill="#ffffff" stroke="#000000" stroke-width="2.5" stroke-linecap="butt"/><path d="M 73.2248 61.1547 C 74.9049 61.1602 76.9255 64.5273 77.6885 66.8332 C 79.2716 71.6094 79.6278 76.624 79.6439 81.4259 C 79.8852 85.8021 79.7042 90.2197 78.4551 94.1597 C 77.7347 96.4288 75.9893 99.8154 74.3092 99.8099 C 72.6291 99.8044 71.046 97.6336 69.8455 94.1314 C 68.6455 90.6287 67.8274 85.7946 67.6778 80.4623 C 67.5282 75.1302 68.0752 70.3005 69.0789 66.805 C 70.0832 63.3101 71.5447 61.1492 73.2249 61.1548 Z " data-paper-data="{&quot;origRot&quot;:0,&quot;index&quot;:null}" fill="#ffffff" stroke="#000000" stroke-width="2.5" stroke-linecap="butt"/><path d="M336.69465,256.11698v-8.68384h30.39344v8.68384z" fill="#ffa200" stroke="none" stroke-width="0" stroke-linecap="butt" transform="matrix(1,0,0,1,-272.25,-196.47688)"/><path d="M 35.7023 75.9108 C 34.2453 74.4518 31.6047 74.1787 31.2749 72.6624 C 30.2125 67.7729 31.7223 62.849 31.9456 57.9492 C 32.0145 56.4418 30.8774 54.3756 32.1519 53.4224 C 36.0876 50.4795 40.8715 47.7908 46.1553 47.324 C 47.9827 47.1625 48.2042 50.4544 47.9015 52.0305 C 47.5673 53.771 46.2243 55.4868 44.4407 56.2581 C 42.9282 56.9122 40.8011 56.5193 39.2339 55.7789 C 37.5725 54.9937 36.3329 53.4962 35.4836 52.0243 C 34.6588 50.5938 34.5398 48.9398 34.3882 47.3772 C 34.2418 45.862 34.0311 44.2486 34.5945 42.8504 C 35.5408 40.5058 37.3658 38.5391 38.8094 36.4192 C 40.3979 34.0868 42.0355 31.7713 43.7008 29.4821 C 45.5191 26.9818 47.1509 24.3436 49.2687 22.0389 C 50.3827 20.8258 51.5348 19.26 53.3283 19.0032 C 56.7099 18.5175 60.2742 19.6422 63.7419 19.9617 C 65.4759 20.1212 67.4544 19.5854 68.9487 20.4409 C 70.5551 21.3602 71.2549 23.1747 72.0225 24.7014 C 73.067 26.7784 74.0457 28.9506 74.3422 31.1658 C 74.5463 32.6916 74.1981 34.2819 73.4851 35.6329 C 72.7238 37.0744 71.6771 38.5911 70.0501 39.2944 C 68.5263 39.9537 66.1542 40.4405 64.8176 39.3813 C 63.481 38.3216 63.6776 36.1533 64.3731 34.7941 C 66.6517 30.3412 69.8851 26.281 73.4275 22.5576 C 74.7679 21.1482 76.7687 20.2143 78.7891 19.6416 C 80.4177 19.1799 82.2813 19.3051 84.0216 19.5548 C 86.0113 19.8403 88.0099 20.394 89.8273 21.2256 C 91.6875 22.0767 93.1939 23.4586 94.9059 24.5343 C 96.3685 25.4537 98.6023 25.799 99.3581 27.2171 C 100.5919 29.5305 100.1673 32.2016 100.3247 34.6936 C 100.4212 36.2096 101.0513 37.9989 100.1184 39.2205 C 99.1778 40.4518 97.1199 40.6818 95.4595 41.065 C 93.5602 41.5024 89.6345 42.6983 89.5505 41.6576 C 89.4254 40.1225 92.5093 37.0878 95.0407 35.9118 C 98.571 34.2718 102.8411 33.8982 106.9107 33.5947 C 108.6396 33.4661 110.4798 33.9559 112.0918 34.64 C 113.9773 35.4402 115.5134 36.8058 117.1695 37.9487 C 118.6796 38.9908 120.5176 39.8078 121.5964 41.1972 C 122.6674 42.5774 123.6452 44.3276 123.3425 45.904 C 123.0084 47.6445 121.4953 49.1271 119.8822 50.1316 C 118.4211 51.0418 116.3576 50.9445 114.5978 51.3502 C 112.8384 51.7559 111.1518 52.4718 109.3138 52.5684 C 107.1613 52.6814 102.8976 53.1032 102.805 51.9694 C 102.6876 50.5266 106.5199 48.5059 108.895 47.4156 C 110.4334 46.7094 112.3684 46.7619 114.1533 46.763 C 116.5341 46.7647 118.9285 47.2024 121.3129 47.4218 C 123.0465 47.5818 125.1867 46.8557 126.5193 47.901 C 128.3818 49.3625 128.3345 51.9455 129.5159 53.8597 C 130.5727 55.571 132.3222 56.9716 133.2148 58.7461 C 133.9505 60.2092 134.1585 61.8302 134.3101 63.3927 C 134.4566 64.9083 134.8619 66.6027 134.1038 67.92 C 133.0969 69.6704 130.9759 70.7041 129.3415 72.0275 C 128.0363 73.0842 126.9141 74.4171 125.2815 75.0636 C 123.6947 75.6913 121.8104 75.8805 120.0233 75.7161 C 118.2356 75.5517 116.3841 75.0188 114.868 74.1048 C 113.3079 73.1649 112.3114 71.6399 111.1176 70.3505 C 109.8204 68.9492 108.6901 67.431 107.3929 66.0297 C 106.1992 64.7403 104.9409 63.4874 103.6425 62.275 C 102.0162 60.7565 100.4982 59.1042 98.6163 57.8346 C 96.2411 56.2325 93.3946 55.251 90.9611 53.7204 C 89.1467 52.5803 87.7868 50.9001 85.9087 49.846 C 83.7107 48.6122 81.28 47.711 78.8525 46.9238 C 77.1808 46.3817 75.4204 45.9445 73.6715 45.8785 C 71.8831 45.811 70.0794 46.0586 68.4132 46.5311 C 66.5075 47.071 64.836 48.0702 63.0773 48.8814 C 60.3891 50.1209 57.6042 51.2477 55.0611 52.6896 C 53.5646 53.5375 52.3184 54.6811 51.001 55.7253 C 48.2533 57.9028 45.4662 60.0616 42.8557 62.363 C 41.3801 63.6637 39.8819 64.9864 38.7442 66.5304 C 37.7723 67.8507 37.1054 69.3573 36.5851 70.8782 C 36.0943 72.313 36.0135 73.8575 35.7281 75.3448 C 35.6567 75.7172 36.0989 75.5683 35.7281 75.3448 Z " data-paper-data="{&quot;origRot&quot;:0,&quot;index&quot;:null}" fill="#000000" stroke="#000000" stroke-width="2" stroke-linecap="round"/><path d="M 106.3503 117.2579 C 106.3503 117.2579 111.7181 123.6819 105.4141 123.2172 C 104.5559 122.2079 61.556 114.5362 61.556 114.5362 " data-paper-data="{&quot;index&quot;:null}" fill="none" stroke="#000000" stroke-width="2" stroke-linecap="round"/><path d="M338.83203,297.29072v-4.34192h31.84074v4.34192z" fill="#ffa200" stroke="none" stroke-width="0" stroke-linecap="butt" transform="matrix(1,0,0,1,-272.25,-196.47688)"/><path d="M334.24889,262.31415l4.1007,-6.51288h31.84074l2.17096,5.78923c0,0 -11.56898,-3.61827 -17.12646,-3.61827c-4.99623,0 -20.98594,4.34192 -20.98594,4.34192z" fill="#ffa200" stroke="none" stroke-width="0" stroke-linecap="butt" transform="matrix(1,0,0,1,-272.25,-196.47688)"/><path d="M 79.2917 61.1187 L 65.1769 64.8646 " fill="none" stroke="#000000" stroke-width="2" stroke-linecap="round"/><path d="M 85.4392 61.1187 L 99.5541 64.8646 " fill="none" stroke="#000000" stroke-width="2" stroke-linecap="round"/><path d="M 68.0293 95.9895 L 80.3315 95.9895 " fill="none" stroke="#000000" stroke-width="2" stroke-linecap="round"/><path d="M 98.664 96.2307 L 86.6031 95.9895 " fill="none" stroke="#000000" stroke-width="2" stroke-linecap="round"/><path d="M 60.8452 72.9843 C 61.3876 73.0031 61.3688 73.5455 61.3688 73.5455 L 61.3478 74.1494 C 61.2649 76.3809 59.4731 80.2568 56.6239 77.8103 C 55.6154 76.9444 55.9417 75.382 55.9417 74.2504 C 55.9417 74.2504 55.9417 73.7076 56.4844 73.7076 C 57.0272 73.7076 57.0272 74.2504 57.0272 74.2504 C 57.0272 74.8607 56.7064 76.5029 57.3159 76.9741 C 59.449 78.6231 60.2177 75.5301 60.263 74.1118 L 60.2839 73.5079 C 60.2839 73.5079 60.3028 72.9655 60.8452 72.9843 Z " fill="#000000" stroke="none" stroke-width="0.5" stroke-linecap="butt"/><path d="M 55.0967 79.5001 C 55.6362 79.5597 55.5766 80.0992 55.5766 80.0992 L 55.3584 81.223 C 54.7866 81.8809 54.2739 83.8549 53.3647 84.075 C 50.8319 84.6882 51.5998 81.372 51.5998 80.0396 C 51.5998 80.0396 51.5998 79.4969 52.1425 79.4969 C 52.6853 79.4969 52.6853 80.0396 52.6853 80.0396 C 52.6853 80.6677 52.3492 82.4222 52.5703 82.962 C 52.8157 83.561 54.3943 80.6835 54.5323 80.5189 L 54.4977 79.98 C 54.4977 79.98 54.5572 79.4406 55.0967 79.5001 Z " fill="#000000" stroke="none" stroke-width="0.5" stroke-linecap="butt"/><path d="M 61.6579 83.8496 C 62.1898 83.9574 62.082 84.4893 62.082 84.4893 L 62.047 84.6616 C 61.8875 85.4332 61.3483 88.7154 60.7668 89.1531 C 59.7385 89.9271 56.5806 88.488 56.0228 87.5615 C 55.9204 87.3913 55.9417 85.4137 55.9417 85.1052 C 55.9417 85.0366 55.9545 84.9709 55.9777 84.9105 C 56.0306 84.7548 56.1613 84.5624 56.4845 84.5624 C 56.8076 84.5624 56.9384 84.7548 56.9913 84.9105 C 57.0145 84.9709 57.0272 85.0366 57.0272 85.1052 C 57.0272 85.7343 56.6043 86.4626 56.9462 86.9908 C 57.158 87.3181 59.6413 88.6586 60.1085 88.29 C 60.3749 88.0799 60.8809 84.9618 60.9832 84.4459 L 61.0181 84.2737 C 61.0181 84.2737 61.126 83.7418 61.6579 83.8496 Z " fill="#000000" stroke="none" stroke-width="0.5" stroke-linecap="butt"/><path d="M 176.3798 97.3949 C 176.3798 97.3949 183.3469 108.9853 187.06 115.1624 C 191.1068 121.8946 189.1418 148.0587 189.1418 148.0587 " data-paper-data="{&quot;index&quot;:null}" fill="none" stroke="#000000" stroke-width="2.5" stroke-linecap="round"/><path d="M 185.8349 130.1751 C 185.8349 130.1751 186.7671 123.9071 184.5708 120.0799 C 181.9475 115.5085 176.8949 103.473 176.8949 103.473 L 182.9144 103.05 C 182.9144 103.05 187.6845 111.6462 190.3157 115.2919 C 192.8191 118.7604 193.6288 130.398 193.6288 130.398 Z " data-paper-data="{&quot;index&quot;:null}" fill="#533100" stroke="#3f2500" stroke-width="2.5" stroke-linecap="butt"/><path d="M 158.1293 161.2105 C 158.1293 161.2105 158.9551 196.4756 157.5399 207.206 C 157.0493 210.8983 149.16 208.3737 149.16 208.3737 " data-paper-data="{&quot;index&quot;:null}" fill="none" stroke="#000000" stroke-width="2.5" stroke-linecap="round"/><path d="M 150.347 200.8635 C 152.9518 200.9656 155.2869 201.6829 156.9556 202.7587 C 158.6236 203.8349 159.6263 205.246 159.5631 206.808 C 159.5 208.3702 158.2266 210.0394 156.6369 210.6407 C 153.539 211.5754 151.1483 211.9179 143.2877 210.1178 C 141.7292 209.2461 140.6179 207.6064 140.6801 206.0683 C 140.7423 204.5303 141.8567 203.1782 143.6063 202.2358 C 145.3566 201.294 147.7422 200.7615 150.347 200.8635 Z " data-paper-data="{&quot;index&quot;:null}" fill="#000000" stroke="none" stroke-width="2.5" stroke-linecap="butt"/><path d="M 186.3046 208.8649 C 186.3046 208.8649 177.8285 211.6658 177.5143 207.9551 C 178.1062 196.7487 178.0134 161.8146 178.0134 161.8146 " fill="none" stroke="#000000" stroke-width="2.5" stroke-linecap="round"/><path d="M 164.8392 99.392 C 169.5805 99.4237 174.0265 103.2447 177.3784 109.3916 C 180.7313 115.5394 182.9901 124.0125 183.3578 133.3485 C 183.7264 142.6848 182.1336 151.1323 179.2634 157.2386 C 176.3938 163.3435 172.2468 167.1067 167.5054 167.075 C 162.764 167.0435 158.3181 163.2228 154.9661 157.0759 C 151.613 150.9282 149.3544 142.455 148.9863 133.1191 C 148.6188 123.7827 150.211 115.3353 153.0812 109.229 C 155.9508 103.124 160.0978 99.3603 164.8392 99.392 Z " fill="#834c00" stroke="#000000" stroke-width="2.5" stroke-linecap="butt"/><path d="M 185.357 201.395 C 187.9638 201.4124 190.3214 202.0536 192.0249 203.0745 C 193.7277 204.096 194.7765 205.4977 194.7653 207.0369 C 194.7542 208.5762 193.566 210.1633 191.9678 210.9626 C 184.0301 212.4008 181.6583 211.9492 178.6084 210.8736 C 177.0491 210.2001 175.8566 208.4744 175.8679 206.911 C 175.8793 205.3478 176.948 203.9842 178.6655 202.9855 C 180.3836 201.9874 182.7503 201.3777 185.357 201.395 Z " fill="#000000" stroke="none" stroke-width="2.5" stroke-linecap="butt"/><path d="M 153.8279 98.1161 C 153.8279 98.1161 146.8609 111.87 143.1477 118.0471 C 139.1009 124.7793 126.6531 101.8935 126.6531 101.8935 " data-paper-data="{&quot;index&quot;:null}" fill="none" stroke="#000000" stroke-width="2.5" stroke-linecap="round"/><path d="M 135.3125 104.2499 C 135.3125 104.2499 137.3887 119.4816 139.8921 116.0131 C 142.5233 112.3673 147.2933 103.7712 147.2933 103.7712 L 153.3129 104.1942 C 153.3129 104.1942 148.7427 118.874 146.1194 123.4454 C 145.148 125.1381 141.4595 124.1973 137.7819 122.6297 C 133.1442 120.6529 130.0807 112.971 130.0807 112.971 Z " fill="#533100" stroke="#3f2500" stroke-width="2.5" stroke-linecap="butt"/><g stroke-linecap="butt"><path d="M 150.5019 158.7826 C 150.5019 158.7826 148.8005 144.3723 148.5648 136.671 C 148.422 132.0051 148.4998 124.5308 148.6153 118.1534 C 148.6613 115.6137 148.7133 113.2479 148.7597 111.3027 C 148.8331 108.2293 139.2476 107.4013 139.2476 107.4013 L 159.0474 99.8699 C 159.0474 99.8699 163.7715 128.0096 164.3664 137.8965 C 164.9172 147.0499 165.6484 165.3791 165.6484 165.3791 C 165.6484 165.3791 159.0111 161.9909 156.9204 162.1163 C 155.0867 162.2263 150.5019 158.7825 150.5019 158.7825 Z " stroke-width="2.5" fill="#533100" stroke="#3f2500"/><path d="M 178.0881 160.8462 C 175.9974 160.9716 170.499 166.3211 170.499 166.3211 C 170.499 166.3211 167.1203 146.9177 166.5695 137.7643 C 165.9745 127.8774 171.8603 100.405 171.8603 100.405 L 188.4639 105.0647 C 188.4639 105.0647 179.6401 107.6154 179.9149 110.7209 C 180.6751 119.3087 184.2084 159.2261 184.2084 159.2261 C 184.2084 159.2261 179.9218 160.7362 178.0881 160.8462 Z " data-paper-data="{&quot;index&quot;:null}" stroke-width="2.5" fill="#533100" stroke="#3f2500"/></g><path d="M 143.6192 37.5299 C 151.6744 31.8185 161.978 28.8914 172.612 30.1071 C 183.2466 31.3236 192.2158 36.455 198.1164 43.763 C 204.0171 51.0711 206.8481 60.5556 205.2064 70.4762 C 203.5642 80.3967 197.7573 88.8927 189.7018 94.6054 C 181.6465 100.3172 171.3434 103.2441 160.709 102.0281 C 150.0747 100.8118 141.1054 95.6799 135.2044 88.3727 C 129.304 81.0638 126.4727 71.5801 128.1148 61.6595 C 129.7567 51.7386 135.5637 43.2422 143.6192 37.53 Z " fill="#7f7f7f" stroke="#000000" stroke-width="2.5" stroke-linecap="butt"/><path d="M 166.8313 60.054 L 145.6242 61.2651 L 144.5868 43.2328 L 165.7939 42.0218 Z " fill="#7f7f7f" stroke="none" stroke-width="2.5" stroke-linecap="butt"/><path d="M 182.3573 54.9075 C 183.9255 58.3521 185.0277 63.1611 185.2903 68.5146 C 185.5529 73.868 184.9266 78.7607 183.703 82.3406 C 182.4795 85.921 180.6582 88.1885 178.5304 88.2916 C 176.4026 88.3947 174.368 86.3139 172.7998 82.8688 C 171.2318 79.4241 170.1295 74.6151 169.8669 69.2617 C 169.6043 63.9082 170.2307 59.0155 171.4541 55.4356 C 172.6777 51.8553 174.4989 49.5877 176.6268 49.4846 C 178.7546 49.3816 180.7892 51.4624 182.3573 54.9075 Z " fill="#000000" stroke="#000000" stroke-width="2.5" stroke-linecap="butt"/><path d="M 139.9593 45.8914 C 139.9593 45.8914 150.4417 56.7393 152.9357 60.1581 C 155.4219 63.5662 153.12 79.6713 152.2366 80.7968 C 151.6675 81.5037 142.7198 92.7492 142.1471 93.0519 " data-paper-data="{&quot;index&quot;:null}" fill="none" stroke="#000000" stroke-width="2.5" stroke-linecap="round"/><path d="M 141.6815 60.8677 L 166.381 59.3299 L 165.7607 77.6667 L 142.7847 79.7749 Z " data-paper-data="{&quot;index&quot;:null}" fill="#000000" stroke="none" stroke-width="2.5" stroke-linecap="butt"/><path d="M 204.8945 59.4575 C 204.5354 59.6979 204.9732 59.8428 204.8945 59.4575 C 204.5796 57.9193 204.4644 56.3172 203.9491 54.8381 C 203.4029 53.2702 202.7127 51.7204 201.7273 50.3709 C 200.5738 48.7928 199.0713 47.4524 197.5915 46.1344 C 194.9735 43.8023 192.1854 41.6224 189.4354 39.422 C 188.117 38.3669 186.8662 37.207 185.3764 36.3597 C 182.8446 34.9186 180.0824 33.8103 177.4127 32.5827 C 175.666 31.7793 174.0008 30.7788 172.116 30.2604 C 170.4681 29.8067 168.6903 29.5897 166.9349 29.6994 C 165.2182 29.8067 163.4987 30.2999 161.8689 30.8999 C 159.5021 31.7711 157.1351 32.761 155.004 34.0911 C 153.1834 35.2274 151.8862 37.0024 150.13 38.2267 C 147.7747 39.8702 145.0007 40.9525 142.7043 42.669 C 140.8847 44.0292 139.4316 45.7787 137.869 47.3918 C 136.6214 48.6796 135.4142 50.0087 134.2712 51.3742 C 133.0292 52.8581 131.9539 54.4598 130.7119 55.9438 C 129.5689 57.3094 128.6251 58.9152 127.1141 59.9257 C 125.6457 60.9086 123.8391 61.5031 122.0866 61.7135 C 120.3345 61.9239 118.4789 61.7692 116.9055 61.1525 C 115.2866 60.5174 114.1533 59.1581 112.8464 58.0897 C 111.21 56.7517 109.1024 55.7253 108.0726 53.9298 C 107.2974 52.5786 107.6564 50.8101 107.7652 49.2329 C 107.8779 47.6069 108.0448 45.919 108.7337 44.3833 C 109.5697 42.5207 111.2561 41.0274 112.2548 39.2268 C 113.3712 37.2128 113.2649 34.5314 115.061 32.9724 C 116.3459 31.8573 118.4653 32.5637 120.1649 32.3592 C 122.5024 32.0785 124.8447 31.5708 127.1837 31.5162 C 128.9371 31.4754 130.837 31.378 132.3648 32.0772 C 134.7235 33.1568 138.5353 35.1701 138.4533 36.6712 C 138.3885 37.8505 134.1899 37.5072 132.0725 37.4375 C 130.2645 37.378 128.5909 36.672 126.8531 36.2898 C 125.1148 35.9074 123.0897 36.0543 121.6332 35.1415 C 120.0252 34.1341 118.5043 32.628 118.1358 30.828 C 117.8019 29.1977 118.7221 27.3584 119.7424 25.9013 C 120.77 24.4345 122.557 23.5453 124.0164 22.4296 C 125.617 21.206 127.0946 19.7539 128.9285 18.8809 C 130.4964 18.1347 132.293 17.5852 133.9945 17.6805 C 137.9997 17.9053 142.2036 18.1986 145.7099 19.8233 C 148.2241 20.9885 151.3241 24.0715 151.2368 25.6685 C 151.1782 26.751 147.2938 25.5963 145.4176 25.1841 C 143.7775 24.823 141.7504 24.6297 140.7978 23.372 C 139.853 22.1241 140.4307 20.252 140.4904 18.6755 C 140.5874 16.0841 140.1084 13.3198 141.2671 10.8899 C 141.9769 9.4005 144.1635 8.9923 145.5792 8.005 C 147.2362 6.8501 148.6842 5.3815 150.492 4.4564 C 152.2583 3.5526 154.2091 2.9332 156.1572 2.5925 C 157.8612 2.2946 159.6891 2.1234 161.3 2.5666 C 163.2981 3.1164 165.2855 4.042 166.635 5.4758 C 170.2013 9.2639 173.472 13.4086 175.8136 17.9823 C 176.5283 19.3783 176.7716 21.6256 175.483 22.7557 C 174.1943 23.8854 171.8527 23.4324 170.3403 22.7816 C 168.7256 22.0873 167.6622 20.5355 166.8809 19.0555 C 166.1491 17.6683 165.7702 16.0246 165.9355 14.4355 C 166.1754 12.1284 167.0868 9.851 168.0649 7.6708 C 168.7837 6.0684 169.4291 4.1686 170.9862 3.1783 C 172.4345 2.2567 174.3906 2.7692 176.0906 2.5651 C 179.4899 2.1564 182.9658 0.9093 186.2993 1.3387 C 188.0673 1.5656 189.2354 3.1661 190.3579 4.4011 C 192.4919 6.7475 194.156 9.4511 196.0003 12.0071 C 197.6894 14.3475 199.3518 16.7156 200.9664 19.1026 C 202.4338 21.2719 204.2721 23.2739 205.2561 25.6877 C 205.842 27.1271 205.6723 28.8074 205.5635 30.3841 C 205.4508 32.0102 205.3721 33.7305 204.595 35.2343 C 203.7946 36.7817 202.6114 38.3643 200.9972 39.2167 C 199.4747 40.0203 197.3941 40.4755 195.8929 39.8299 C 194.1227 39.0684 192.7636 37.3163 192.3951 35.5163 C 192.0612 33.8864 192.2026 30.4629 194.0016 30.59 C 199.2036 30.9574 203.9657 33.6435 207.9004 36.6122 C 209.1747 37.5739 208.1053 39.7449 208.2079 41.3088 C 208.5407 46.392 210.138 51.472 209.2072 56.5732 C 208.9184 58.1551 206.3304 58.4973 204.9328 60.0448 Z " data-paper-data="{&quot;index&quot;:null}" fill="#000000" stroke="#000000" stroke-width="2.5" stroke-linecap="round"/><path d="M 168.3311 63.717 L 166.8776 51.7891 C 166.8776 51.7891 176.1805 47.2674 179.6695 46.2334 C 182.0577 45.5257 185.7914 46.1837 185.7914 46.1837 L 187.2095 56.4117 Z " fill="#7f7f7f" stroke="none" stroke-width="2.5" stroke-linecap="butt"/><path d="M 186.5558 56.5936 L 168.4805 63.9073 L 169.9693 56.8609 " fill="none" stroke="#000000" stroke-width="2.5" stroke-linecap="round"/><path d="M440.59967,286.10383l-0.00249,-5.00565l20.26564,-1.42998l0.00248,5.00565c0,0 -6.27297,1.67065 -9.60607,1.90585c-3.41988,0.24132 -10.65956,-0.47588 -10.65956,-0.47588z" fill="#7f7f7f" stroke="none" stroke-width="NaN" stroke-linecap="butt" transform="matrix(1,0,0,1,-272.25,-196.47688)"/><path d="M 171.1129 83.8823 L 185.2222 83.6789 " fill="none" stroke="#000000" stroke-width="1.5" stroke-linecap="round"/><g data-paper-data="{&quot;index&quot;:null}"><path d="M 129.0788 98.5842 C 130.6387 99.5017 131.2845 101.2952 130.5213 102.5901 C 129.758 103.8851 127.8746 104.1911 126.3147 103.2736 C 124.7548 102.3561 124.1089 100.5626 124.8722 99.2677 C 125.6355 97.9727 127.5189 97.6667 129.0788 98.5842 Z " fill="#000000" stroke-linecap="butt" stroke-width="2.5" stroke="#000000"/><path d="M 129.1853 101.0326 C 129.1853 101.0326 131.0663 98.6004 131.5823 98.2439 C 131.9929 97.9601 132.0377 99.0615 132.0377 99.0615 L 130.195 102.1877 " fill="none" stroke-linecap="round" stroke-width="2.5" stroke="#000000"/><path d="M 127.2774 99.4894 C 127.2774 99.4894 129.1583 97.0572 129.6743 96.7007 C 130.0849 96.417 130.1297 97.5183 130.1297 97.5183 L 128.287 100.6446 " fill="none" stroke-linecap="round" stroke-width="2.5" stroke="#000000"/><path d="M 125.474 98.0077 C 125.474 98.0077 127.355 95.5756 127.8709 95.2191 C 128.2815 94.9353 128.3264 96.0366 128.3264 96.0366 L 126.4836 99.1629 " fill="none" stroke-linecap="round" stroke-width="2.5" stroke="#000000"/><path d="M 123.9387 99.7548 C 123.9387 99.7548 124.814 96.7716 125.2363 96.3084 C 125.5724 95.9399 125.8638 97.0036 125.8638 97.0036 L 124.7722 100.4644 " fill="none" stroke-linecap="round" stroke-width="2.5" stroke="#000000"/></g><path d="M 185.4498 93.3212 C 185.6558 94.5685 184.8513 95.83 183.412 96.8152 C 182.2139 97.6352 180.2543 96.3162 178.3932 96.5856 C 176.586 96.8471 175.1919 98.6737 173.8061 98.2609 C 172.05 97.7378 170.8238 96.7457 170.6128 95.4682 C 170.2354 93.1827 173.2508 90.8493 177.3479 90.2565 C 181.445 89.6636 185.0724 91.0357 185.4498 93.3212 Z " data-paper-data="{&quot;index&quot;:null}" fill="#790000" stroke="#000000" stroke-width="1.15" stroke-linecap="butt"/></g></g></svg>