<svg version="1.1" xmlns="http://www.w3.org/2000/svg" xmlns:xlink="http://www.w3.org/1999/xlink" width="316.2006" height="417.4404" viewBox="0,0,316.2006,417.4404"><defs><linearGradient x1="293.96278" y1="70.61197" x2="362.55084" y2="44.91814" gradientUnits="userSpaceOnUse" id="color-1"><stop offset="0" stop-color="#fde6d9"/><stop offset="1" stop-color="#f7d9c8"/></linearGradient><linearGradient x1="59.02977" y1="154.9897" x2="544.08764" y2="-26.71831" gradientUnits="userSpaceOnUse" id="color-2"><stop offset="0" stop-color="#000000"/><stop offset="1" stop-color="#000000" stop-opacity="0"/></linearGradient><linearGradient x1="354.64198" y1="40.54528" x2="371.91344" y2="35.14992" gradientUnits="userSpaceOnUse" id="color-3"><stop offset="0" stop-color="#f7dac9"/><stop offset="1" stop-color="#fde6d9"/></linearGradient><linearGradient x1="174.38358" y1="60.0162" x2="107.8688" y2="29.35222" gradientUnits="userSpaceOnUse" id="color-4"><stop offset="0" stop-color="#fde6d9"/><stop offset="1" stop-color="#f7d9c8"/></linearGradient><linearGradient x1="402.4818" y1="161.42787" x2="-67.91371" y2="-55.42925" gradientUnits="userSpaceOnUse" id="color-5"><stop offset="0" stop-color="#000000"/><stop offset="1" stop-color="#000000" stop-opacity="0"/></linearGradient><linearGradient x1="115.49905" y1="26.32684" x2="99.23811" y2="18.38988" gradientUnits="userSpaceOnUse" id="color-6"><stop offset="0" stop-color="#f7dac9"/><stop offset="1" stop-color="#fde6d9"/></linearGradient><linearGradient x1="237.53261" y1="64.82611" x2="234.62913" y2="98.53189" gradientUnits="userSpaceOnUse" id="color-7"><stop offset="0" stop-color="#d2a991"/><stop offset="1" stop-color="#fde6d9"/></linearGradient><radialGradient cx="238.23792" cy="70.42658" r="43.92048" gradientUnits="userSpaceOnUse" id="color-8"><stop offset="0" stop-color="#fde6d9"/><stop offset="1" stop-color="#f7d9c8"/></radialGradient><linearGradient x1="252.63539" y1="65.55998" x2="252.86297" y2="66.2649" gradientUnits="userSpaceOnUse" id="color-9"><stop offset="0" stop-color="#ecc6b1"/><stop offset="1" stop-color="#ecc6b1" stop-opacity="0"/></linearGradient><linearGradient x1="245.99787" y1="56.40223" x2="248.81505" y2="56.64491" gradientUnits="userSpaceOnUse" id="color-10"><stop offset="0" stop-color="#f4d7c8" stop-opacity="0"/><stop offset="1" stop-color="#f4d7c8"/></linearGradient><linearGradient x1="249.4024" y1="65.13564" x2="249.30657" y2="65.86678" gradientUnits="userSpaceOnUse" id="color-11"><stop offset="0" stop-color="#ecc6b1"/><stop offset="1" stop-color="#ecc6b1" stop-opacity="0"/></linearGradient><linearGradient x1="247.68448" y1="37.09345" x2="244.47833" y2="61.54678" gradientUnits="userSpaceOnUse" id="color-12"><stop offset="0" stop-color="#f9ddce" stop-opacity="0"/><stop offset="1" stop-color="#f9ddce"/></linearGradient><linearGradient x1="410.44558" y1="-1813.26761" x2="126.29246" y2="1485.40025" gradientUnits="userSpaceOnUse" id="color-13"><stop offset="0" stop-color="#2a221e"/><stop offset="1" stop-color="#2a221e" stop-opacity="0"/></linearGradient></defs><g transform="translate(-77.47105,-5.83957)"><g data-paper-data="{&quot;isPaintingLayer&quot;:true}" fill-rule="nonzero" stroke-linejoin="miter" stroke-miterlimit="10" stroke-dasharray="" stroke-dashoffset="0" style="mix-blend-mode: normal"><path d="M301.35348,306.01737c-2.0331,-7.26466 -0.49682,-11.24902 -1.14474,-18.29452c-1.01211,-11.00599 -4.57594,-26.74036 -4.57594,-26.74036c-2.50595,-13.14421 25.25927,-16.27313 25.32902,-2.86966c0.08597,16.52179 9.8275,43.91402 12.51953,57.33397c5.56444,27.73913 8.50765,39.35366 8.50765,39.35366l-19.39423,2.97021c0,0 -6.13969,-16.12689 -9.19896,-22.92859c-4.75935,-10.58151 -10.00917,-21.5601 -12.04229,-28.82477z" fill="#252525" stroke="#000000" stroke-width="0" stroke-linecap="butt"/><g data-paper-data="{&quot;index&quot;:null}" stroke="none" stroke-linecap="round"><path d="M327.76953,382.24349c-0.97733,-5.05733 -4.72722,-14.84836 -5.31871,-19.91818c-0.4001,-3.43846 -4.14818,-9.91683 -1.62233,-11.3727c0.99786,-0.57515 7.16664,0.9405 11.47686,-0.73143c4.19079,-1.62562 7.14573,-6.78539 8.28504,-4.9993c2.32799,3.64962 4.58193,12.95611 6.18022,13.59134c9.45078,3.74406 18.13686,5.37108 18.09877,15.5364c-0.02364,6.303 -10.24155,11.09447 -10.24155,11.09447c0,0 -26.53567,-2.00327 -26.85829,-3.20058z" data-paper-data="{&quot;origPos&quot;:null}" fill="#000000" stroke-width="1"/><path d="M326.51683,377.32259c0,0 7.33358,0.13497 14.60381,3.29486c7.99788,3.47617 17.6691,1.8965 17.6691,1.8965l-4.55582,2.99072l-26.01838,-2.5486z" data-paper-data="{&quot;origPos&quot;:null,&quot;origRot&quot;:0}" fill="#111111" stroke-width="1.16035"/></g><g stroke="none" stroke-width="0" stroke-linecap="butt"><path d="M359.05517,44.6881c0.80193,2.14067 -0.95142,3.90616 -0.95142,3.90616l-8.08092,3.46786l-4.56552,-12.18737l8.4189,-3.15381c0,0 4.64825,6.55048 5.17895,7.96716z" data-paper-data="{&quot;origPos&quot;:null}" fill="#000000"/><path d="M334.15059,60.01631c-10.01224,5.40174 -15.25895,12.34932 -26.04086,18.051c-10.7819,5.70168 -21.78586,-15.43115 -10.65555,-20.4327c17.05577,-8.27442 20.16692,-6.39364 28.84012,-10.11859c9.67271,-4.15421 20.5773,-9.22052 30.06927,-9.08137c4.94432,0.07247 6.11854,2.9234 2.64683,6.43321c-6.48607,6.55722 -14.84763,9.74673 -24.85984,15.14848z" data-paper-data="{&quot;origPos&quot;:null}" fill="url(#color-1)"/><g data-paper-data="{&quot;origPos&quot;:null}"><path d="M353.77678,44.35577c1.41565,2.74249 5.20653,3.65957 5.20653,3.65957l-9.12849,4.13021l-4.395,-12.32035l6.87528,-1.81267z" data-paper-data="{&quot;origPos&quot;:null}" fill="url(#color-2)"/><path d="M349.5315,38.16966c0,0 0.15754,4.91567 1.88523,8.18686c1.62772,3.08194 6.91194,1.59027 6.91194,1.59027c0,0 -44.51598,29.03615 -50.28558,30.61888c-5.7696,1.58271 -11.00074,-0.31325 -14.44908,-7.69199c-3.86807,-7.68082 -1.99889,-9.83881 5.66057,-14.22148c12.56235,-7.18809 50.27692,-18.48251 50.27692,-18.48251z" data-paper-data="{&quot;origPos&quot;:null,&quot;origRot&quot;:0}" fill="#1e4994"/></g></g><g data-paper-data="{&quot;origPos&quot;:null,&quot;origRot&quot;:0}" stroke="none" stroke-width="0" stroke-linecap="butt"><path d="M270.34821,107.3845c-4.92595,1.3871 -13.7563,6.84892 -15.51175,-0.80627c-1.66483,-7.26009 3.89165,-21.02854 18.56932,-33.44799c4.2877,-3.62804 15.5951,-10.29359 19.89799,-13.9041c7.79738,-6.54268 23.15103,6.01419 16.96733,14.04301c-5.08602,6.60363 -4.23731,6.27457 -22.52187,21.59652c-7.67902,6.43479 -7.77009,9.80689 -17.40098,12.51885z" data-paper-data="{&quot;origPos&quot;:null,&quot;origRot&quot;:0}" fill="#2152a6"/><path d="M254.08688,104.49766c-0.11756,-7.64306 5.71223,-19.84293 18.85256,-30.96161c4.2877,-3.62804 15.5951,-10.29359 19.89801,-13.90411c4.46065,-3.74287 11.3942,-1.23513 15.35378,3.09968c-12.72664,11.17996 -25.48004,22.32948 -38.41646,33.2718c-3.74398,3.16687 -10.23275,5.85217 -15.6879,8.49419z" data-paper-data="{&quot;origPos&quot;:null,&quot;origRot&quot;:0}" fill="#000000"/></g><g stroke="none" stroke-width="0" stroke-linecap="butt"><g data-paper-data="{&quot;origPos&quot;:null,&quot;origRot&quot;:0,&quot;index&quot;:null}" fill="#ead0c0"><path d="M365.44396,44.4728c-0.22853,-1.49347 0.77432,-7.00666 0.77432,-7.00666c0,0 4.24036,0.421 5.83395,0.19368c0.9189,-0.13108 1.85012,0.21193 2.7652,0.05749c1.52251,-0.25697 2.61342,0.11492 2.88157,1.74321c0.29916,1.81664 -0.29477,1.65195 -1.78469,2.38411c-0.48178,0.23675 -2.60712,0.27341 -4.04284,0.79685c-2.73612,0.99756 -6.42748,1.83131 -6.42748,1.83131z" data-paper-data="{&quot;origRot&quot;:0,&quot;origPos&quot;:null,&quot;index&quot;:null}"/><path d="M379.31975,37.29064c2.97462,-0.05616 3.56856,0.87678 3.69458,2.03345c0.16003,1.46861 -0.173,2.47823 -1.49886,2.34855c-0.44475,-0.04349 -1.63202,-0.18625 -2.07546,-0.17788c-1.22547,0.02314 -2.47883,0.0049 -3.87264,0.40995c-1.84907,0.53736 -1.53177,-0.95182 -1.5735,-2.41034c0,0 -0.20216,-1.15464 0.33348,-1.44771c1.57266,-0.86043 2.01778,-0.69987 4.99238,-0.75603z" data-paper-data="{&quot;origRot&quot;:0,&quot;origPos&quot;:null,&quot;index&quot;:null}"/><path d="M380.42379,40.89413c-0.48307,-0.29638 -0.41463,-1.48466 -0.41463,-1.48466c-0.0957,-1.49913 0.29184,-1.6553 1.16317,-1.94228c1.00411,-0.33072 2.25982,-0.08102 3.8829,0.09628c1.62308,0.17731 2.46161,1.60807 2.30321,2.33416c-0.14806,0.67871 0.01085,1.60352 -2.53038,1.57228c-2.54121,-0.03124 -2.98598,0.29436 -4.40429,-0.57578z" data-paper-data="{&quot;origRot&quot;:0,&quot;origPos&quot;:null,&quot;index&quot;:null}"/></g><g data-paper-data="{&quot;origRot&quot;:0,&quot;origPos&quot;:null}" fill="#efd6c8"><path d="M367.34141,30.86492c2.7639,-0.6454 3.44812,-0.37575 8.29458,0.16243c0.66318,0.07364 3.2562,0.56549 3.85985,0.81672c1.8668,0.77695 2.6109,0.58619 2.23631,2.58279c-0.33575,1.7896 -1.70249,2.21606 -3.61005,1.96062c-1.1465,-0.15352 -2.31316,0.23854 -3.46446,0.11069c-1.99661,-0.22172 -3.98961,2.06055 -6.02982,3.59381c-1.40314,1.05447 -2.46566,-6.03272 -2.17952,-7.67383c0,0 -0.04826,-1.33339 0.89312,-1.55321z" data-paper-data="{&quot;origRot&quot;:0,&quot;origPos&quot;:null}"/><path d="M376.53149,31.79922c2.1849,-0.68951 2.70754,-0.43221 6.46784,0.02292c3.76029,0.45513 4.28741,1.60311 4.17212,2.92012c-0.14639,1.67218 -0.8051,2.74462 -2.44454,2.36854c-0.54995,-0.12615 -2.01165,-0.49276 -2.57221,-0.5606c-1.54914,-0.18749 -3.12365,-0.42619 -4.97533,-0.21541c-2.45651,0.27965 -1.70398,-1.33243 -1.41098,-2.97274c0,0 0.01892,-1.32801 0.7631,-1.56286z" data-paper-data="{&quot;origRot&quot;:0,&quot;origPos&quot;:null}"/><path d="M383.34345,32.78476c1.99319,-0.6331 2.49851,-0.17618 5.7641,0.36279c3.26558,0.53898 3.60348,1.59703 3.65761,2.37375c0.0579,0.83095 -2.03058,2.12777 -4.14781,1.95587c-2.11721,-0.1719 -3.77773,-0.18167 -4.99943,-0.77035c-1.06015,-0.51082 -1.52596,-0.76928 -1.1033,-2.38955c0,0 0.14994,-1.31688 0.82882,-1.53252z" data-paper-data="{&quot;origRot&quot;:0,&quot;origPos&quot;:null}"/></g><g fill="#f6ded1"><path d="M365.39215,31.52622c2.4656,-1.40273 3.21606,-1.3345 8.08418,-2.1785c0.66615,-0.11548 3.33727,-0.36979 4.00369,-0.29669c2.06095,0.22605 2.71919,-0.16806 3.00779,1.8692c0.25867,1.82604 -0.92555,2.62351 -2.85586,2.9135c-1.16017,0.17429 -2.16189,0.88216 -3.31833,1.08264c-2.00553,0.34771 -3.19079,3.11708 -4.66605,5.17504c-1.01461,1.41534 -4.35523,-5.14253 -4.6135,-6.81094c0,0 -0.48169,-1.2765 0.35811,-1.75427z" data-paper-data="{&quot;origRot&quot;:0,&quot;origPos&quot;:null}"/><path d="M375.76988,29.38339c1.92169,-1.24365 2.50612,-1.12807 6.29851,-1.66223c3.79237,-0.53415 4.64428,0.45169 4.92119,1.77022c0.35161,1.67413 0.02766,2.89489 -1.67823,2.95397c-0.57222,0.01982 -2.10247,0.04189 -2.6678,0.12152c-1.56234,0.22006 -3.16451,0.39665 -4.90349,1.08517c-2.30702,0.91343 -2.05123,-0.85977 -2.25078,-2.54089c0,0 -0.37391,-1.30417 0.28061,-1.72778z" data-paper-data="{&quot;origRot&quot;:0,&quot;origPos&quot;:null}"/><path d="M389.91629,28.19514c3.19366,0.76277 3.75244,1.94907 3.75536,2.75735c0.0031,0.8647 -2.43995,2.0092 -4.52211,1.69864c-2.08214,-0.31055 -3.72331,-0.42452 -4.89288,-1.11096c-1.01492,-0.59568 -1.45862,-0.89262 -0.93517,-2.54521c0,0 0.23404,-1.35526 0.91933,-1.53627c2.01194,-0.53141 2.48181,-0.02629 5.67548,0.73646z" data-paper-data="{&quot;origRot&quot;:0,&quot;origPos&quot;:null}"/></g><path d="M365.45314,28.73119c5.63959,-3.98175 9.78995,5.80385 10.08282,8.10757c0.28793,2.26483 -2.03013,4.60391 -3.97685,5.59567c-4.5426,2.31426 -7.98953,1.65207 -12.80261,3.31406c-3.81027,1.31571 -4.45948,-3.9193 -5.01074,-5.684c-0.74171,-2.37437 5.61227,-7.02997 11.70735,-11.33331z" data-paper-data="{&quot;origRot&quot;:0,&quot;origPos&quot;:null}" fill="url(#color-3)"/><g data-paper-data="{&quot;origPos&quot;:null,&quot;origRot&quot;:0,&quot;index&quot;:null}" fill="#fde6d9"><path d="M369.60409,36.03878c2.28988,-0.07882 2.49205,-0.6271 5.35323,-1.56433c2.86118,-0.93723 4.28207,-0.5097 5.02169,1.37685c0.73963,1.88657 -0.66517,3.23973 -3.52636,4.17697c-1.29743,0.42499 -3.31304,1.11473 -4.5795,1.48376c-1.21805,0.35491 -1.67943,-0.79755 -2.25537,-2.26667c0,0 -1.12981,-3.16819 -0.01368,-3.20659z" data-paper-data="{&quot;origPos&quot;:null}"/><path d="M381.67836,32.04677c2.31994,-0.75995 5.09608,-0.30965 6.044,1.93426c0.54586,1.29219 -2.29799,2.33507 -4.61793,3.09501c-1.06103,0.34756 -3.18846,1.54746 -4.28482,1.79623c-0.98213,0.22285 -1.23813,-1.18366 -1.66147,-2.26349c0,0 -0.95417,-2.00624 -0.19315,-2.41967c1.18665,-0.64464 2.39344,-1.38241 4.71337,-2.14235z" data-paper-data="{&quot;origPos&quot;:null}"/></g><g fill="#fde6d9"><path d="M365.84949,28.44365c2.17485,-1.82723 2.93394,-1.87561 7.60564,-3.50881c0.63927,-0.22348 2.61365,-0.85042 3.267,-1.02864c1.96004,-0.53463 2.5962,-0.60341 3.28251,1.44015c0.61515,1.83167 0.32079,2.93143 -1.54039,3.5332c-1.81321,0.51764 -5.04928,4.02102 -6.70648,7.67597c-0.73059,1.61132 -5.33619,-4.58645 -5.92004,-6.25656c0,0 -0.72898,-1.23299 0.01178,-1.85535z" data-paper-data="{&quot;origRot&quot;:0,&quot;origPos&quot;:null}"/><path d="M381.11967,22.66304c3.76524,-0.7869 4.72414,0.18204 5.13791,1.53103c0.52536,1.71282 0.3239,2.99752 -1.3883,3.16376c-0.57435,0.05576 -2.11343,0.17286 -2.67472,0.29017c-1.55116,0.32419 -3.14687,0.60576 -4.82806,1.42619c-2.23032,1.0884 -2.15404,-0.76445 -2.52694,-2.49387c0,0 -0.51003,-1.32817 0.10594,-1.80734c1.80846,-1.40681 2.40894,-1.32305 6.17418,-2.10995z" data-paper-data="{&quot;origRot&quot;:0,&quot;origPos&quot;:null}"/><path d="M382.78968,23.05179c1.89138,-0.89252 2.4749,-0.46519 5.8392,-0.25891c3.3643,0.20629 4.76181,1.16502 4.9469,1.9812c0.19801,0.87316 -2.55768,2.60255 -4.709,2.65674c-2.15131,0.05419 -3.8175,0.22909 -5.14133,-0.25781c-1.14876,-0.42251 -1.65923,-0.64412 -1.50847,-2.40648c0,0 -0.07151,-1.41073 0.57269,-1.71473z" data-paper-data="{&quot;origRot&quot;:0,&quot;origPos&quot;:null}"/></g></g><path d="M284.00628,227.32496c21.65995,12.83151 19.20113,15.17991 30.98108,21.60995c7.26192,6.25397 -12.51392,20.43769 -12.51392,20.43769c0,0 -56.98499,-18.10115 -84.3934,-42.36946c-6.02657,-5.33613 10.1028,-16.0136 12.06703,-18.8234c0,0 5.99863,-2.73498 12.78522,-1.6534c0,0 18.20172,7.24893 41.07399,20.79864z" data-paper-data="{&quot;origPos&quot;:null,&quot;origRot&quot;:0,&quot;index&quot;:null}" fill="#000000" stroke="#000000" stroke-width="0" stroke-linecap="butt"/><path d="M239.07503,315.78185c0.3899,-11.04555 -4.01874,-30.44575 -4.01874,-30.44575c-0.82112,-13.35574 31.70196,-9.5071 30.07366,3.79727c-2.00713,16.39964 5.04393,38.88395 6.0147,52.5368c2.00659,28.22049 2.59807,46.03532 2.59807,46.03532l-19.61424,0.4901c0,0 -4.91229,-14.30191 -6.8895,-23.81322c-1.97721,-9.51132 -8.16394,-48.60051 -8.16394,-48.60051z" fill="#252525" stroke="#000000" stroke-width="0" stroke-linecap="butt"/><path d="M248.95499,253.44605c11.7627,22.26443 9.24721,21.96788 16.57012,33.21461c3.63285,5.57943 -22.99465,14.39949 -22.99465,14.39949c0,0 -42.70758,-42.20898 -54.53279,-77.10648c-2.60012,-7.67328 18.33795,-10.54619 21.73324,-12.31185c0,0 12.82527,-4.09789 18.51312,-0.07851c0,0 8.40206,18.58448 20.71096,41.88274z" data-paper-data="{&quot;origRot&quot;:0,&quot;index&quot;:null}" fill="#000000" stroke="#000000" stroke-width="0" stroke-linecap="butt"/><g data-paper-data="{&quot;index&quot;:null,&quot;origRot&quot;:0}" stroke="none" stroke-linecap="round"><path d="M249.93394,414.16805c0.17557,-5.14789 -1.29548,-15.52875 -0.741,-20.60275c0.37709,-3.44105 -1.83123,-10.59234 0.95575,-11.44799c1.10101,-0.33804 6.77621,2.51564 11.35079,1.84743c4.44783,-0.6497 8.47942,-5.0202 9.19155,-3.02495c1.45511,4.077 1.576,13.65178 2.99231,14.62757c8.37729,5.75813 16.48147,9.28197 14.17651,19.18259c-1.42922,6.13886 -12.45856,8.53002 -12.45856,8.53002c0,0 -25.41996,-7.87276 -25.46735,-9.11189z" data-paper-data="{&quot;origPos&quot;:null}" fill="#000000" stroke-width="1"/><path d="M249.81064,409.0917c0,0 7.11864,1.76765 13.50067,6.46986c7.02078,5.17285 16.80068,5.79059 16.80068,5.79059l-5.10822,1.89897l-24.79404,-8.28893z" data-paper-data="{&quot;origPos&quot;:null,&quot;origRot&quot;:0}" fill="#111111" stroke-width="1.16035"/></g><g stroke="none" stroke-width="0" stroke-linecap="butt"><path d="M117.12229,21.81454l8.16441,3.76388l-5.44867,11.81898l-7.80428,-4.05224c0,0 -1.61888,-1.88953 -0.66184,-3.96551c0.63336,-1.37385 5.75036,-7.56509 5.75036,-7.56509z" data-paper-data="{&quot;origPos&quot;:null}" fill="#000000"/><path d="M135.08296,46.49634c-9.58827,-6.1228 -17.69286,-9.91806 -23.67959,-16.93412c-3.20443,-3.75541 -1.8239,-6.51237 3.11237,-6.22134c9.47652,0.55866 19.97941,6.4125 29.32073,11.26621c8.37607,4.35217 11.61701,2.70505 28.0187,12.21032c10.73273,5.80585 -1.79423,26.07301 -12.12805,19.59453c-10.33382,-6.47849 -15.05589,-13.79279 -24.64415,-19.91559z" data-paper-data="{&quot;origPos&quot;:null}" fill="url(#color-4)"/><g data-paper-data="{&quot;origPos&quot;:null}"><path d="M118.56439,23.21589l6.72351,2.31295l-5.28838,11.96413l-8.80034,-4.78977c0,0 3.84803,-0.63605 5.46135,-3.26713z" data-paper-data="{&quot;origPos&quot;:null}" fill="url(#color-5)"/><path d="M121.34885,23.57863c0,0 36.7827,14.03501 48.78298,22.12671c7.31671,4.93362 9.02229,7.22312 4.60033,14.59897c-3.98118,7.10544 -9.33749,8.61191 -14.97518,6.60954c-5.6377,-2.00238 -47.89991,-34.23089 -47.89991,-34.23089c0,0 5.16032,1.87592 7.01012,-1.07809c1.96335,-3.1354 2.48166,-8.0262 2.48166,-8.0262z" data-paper-data="{&quot;origPos&quot;:null,&quot;origRot&quot;:0}" fill="#1e4994"/></g></g><g data-paper-data="{&quot;origPos&quot;:null,&quot;origRot&quot;:0}" stroke="none" stroke-width="0" stroke-linecap="butt"><path d="M194.78061,102.40425c-9.30199,-3.68534 -9.04677,-7.04899 -16.0254,-14.23736c-16.61685,-17.1163 -15.80636,-16.70191 -20.18836,-23.7923c-5.32774,-8.62065 11.23268,-19.53676 18.31798,-12.22893c3.90994,4.03275 14.47415,11.82274 18.3672,15.87138c13.32664,13.85921 17.44184,28.12487 15.04124,35.17596c-2.53123,7.43479 -10.75493,1.09619 -15.51268,-0.78876z" data-paper-data="{&quot;origPos&quot;:null,&quot;origRot&quot;:0}" fill="#2152a6"/><path d="M211.25229,101.20024c-5.15543,-3.18753 -11.33463,-6.52413 -14.7341,-10.05825c-11.74606,-12.21131 -23.28881,-24.60991 -34.80181,-37.03607c4.38325,-3.90589 11.53743,-5.68937 15.59072,-1.50877c3.90994,4.03275 14.47415,11.82274 18.3672,15.87138c11.93081,12.4076 16.47873,25.141 15.578,32.73172z" data-paper-data="{&quot;origPos&quot;:null,&quot;origRot&quot;:0}" fill="#000000"/></g><g stroke="none" stroke-width="0" stroke-linecap="butt"><g data-paper-data="{&quot;origPos&quot;:null,&quot;origRot&quot;:0}" fill="#fde6d9"><path d="M101.5497,22.60798c1.0242,0.14775 0.17032,2.58376 0.17032,2.58376c-0.44363,1.12414 -0.80038,2.00503 -1.93594,1.59144c-1.18068,-0.43001 -3.06565,-1.19695 -4.27792,-1.67533c-2.67334,-1.05496 -4.03682,-2.29288 -3.46713,-3.73648c0.56968,-1.44361 1.84636,-1.63962 4.51971,-0.58466c2.67334,1.05496 2.88972,1.51815 4.99099,1.82126z" data-paper-data="{&quot;origPos&quot;:null}"/><path d="M94.70408,20.34663c0.72042,0.41294 -0.03891,1.93057 -0.03891,1.93057c-0.32609,0.82629 -0.4803,1.93343 -1.39231,1.65103c-1.01808,-0.31526 -3.03452,-1.50523 -4.02591,-1.89645c-2.16763,-0.8554 -4.83114,-1.99371 -4.40497,-2.97838c0.74003,-1.70992 3.25641,-1.7825 5.42403,-0.92709c2.16763,0.8554 3.31473,1.57647 4.43805,2.22033z" data-paper-data="{&quot;origPos&quot;:null}"/></g><g data-paper-data="{&quot;origPos&quot;:null,&quot;origRot&quot;:0}" fill="#ead0c0"><path d="M106.51219,14.32701c0.38149,0.7838 -0.75811,1.65058 -0.75811,1.65058c-1.19534,1.30013 -6.98036,7.04234 -6.94357,5.38384c0.05349,-2.41152 0.00376,-6.97559 -1.37839,-8.17395c-0.79699,-0.69102 -1.1701,-1.74307 -1.9856,-2.4135c-1.35682,-1.11548 -1.82129,-2.32583 -0.53203,-3.75959c1.4384,-1.59962 1.72578,-0.9686 3.49254,-0.23238c0.5713,0.23806 2.53612,1.65685 2.9952,2.0549c3.35492,2.90884 3.98987,3.18886 5.10993,5.4901z" data-paper-data="{&quot;origRot&quot;:0,&quot;origPos&quot;:null}"/><path d="M96.13902,6.00388c0.7048,0.03049 1.14612,1.32654 1.14612,1.32654c0.77324,1.5285 1.9262,2.90613 -0.24161,3.29097c-1.63406,0.29011 -2.88966,0.94624 -4.14022,1.54545c-0.45252,0.21682 -1.57172,0.96803 -1.99658,1.23914c-1.26653,0.80816 -2.16728,-0.06588 -2.82666,-1.66495c-0.51934,-1.25942 -0.44105,-2.52555 2.59444,-3.98001c3.03548,-1.45445 3.39525,-1.84669 5.46453,-1.75715z" data-paper-data="{&quot;origRot&quot;:0,&quot;origPos&quot;:null}"/><path d="M89.99381,8.34825c0.61103,-0.18722 1.60458,0.79994 1.60458,0.79994c1.38566,1.08763 1.24133,1.54542 0.8605,2.52465c-0.43887,1.12843 -1.57,2.02171 -2.90438,3.28988c-1.33437,1.26818 -3.19949,0.87769 -3.72191,0.17346c-0.48835,-0.65828 -1.41568,-1.24269 0.45724,-3.4206c1.87292,-2.17793 1.91005,-2.81762 3.704,-3.36733z" data-paper-data="{&quot;origRot&quot;:0,&quot;origPos&quot;:null}"/></g><g data-paper-data="{&quot;origPos&quot;:null,&quot;origRot&quot;:0}" fill="#efd6c8"><path d="M107.60679,15.58307c0.51447,0.81937 -0.55719,1.76976 -0.55719,1.76976c-1.06741,1.41093 -7.35024,5.89982 -7.55209,4.14214c-0.29347,-2.55572 0.02968,-5.63132 -1.59628,-6.86138c-0.93758,-0.7093 -1.48217,-1.81303 -2.43622,-2.50004c-1.58736,-1.14303 -2.25088,-2.41182 -1.10417,-3.96696c1.27935,-1.73506 1.6728,-1.07484 3.63587,-0.34515c0.63477,0.23595 2.90494,1.68299 3.44501,2.09157c3.94677,2.98585 4.65453,3.26445 6.16506,5.67007z" data-paper-data="{&quot;origRot&quot;:0,&quot;origPos&quot;:null}"/><path d="M96.75285,7.33421c0.72692,0.28388 0.61629,1.7023 0.61629,1.7023c0.13507,1.76401 0.73591,3.51841 -1.71204,3.11027c-1.84521,-0.30764 -3.45505,-0.12309 -5.03431,0.00792c-0.57145,0.04742 -2.08012,0.3735 -2.64658,0.48362c-1.68865,0.32829 -2.24767,-0.84586 -2.23187,-2.63737c0.01245,-1.41097 0.6557,-2.61288 4.48911,-2.93092c3.83341,-0.31805 4.38517,-0.56934 6.5194,0.26416z" data-paper-data="{&quot;origRot&quot;:0,&quot;origPos&quot;:null}"/><path d="M87.46844,7.74553c0.61556,-0.35847 1.73736,0.49996 1.73736,0.49996c1.53745,0.87454 1.43074,1.42072 1.1278,2.60666c-0.3491,1.36664 -1.43747,2.6403 -2.70132,4.38207c-1.26386,1.74177 -3.64954,2.37663 -4.25672,1.71865c-0.56756,-0.61505 -1.16635,-1.65436 0.57033,-4.54313c1.73668,-2.88877 1.7153,-3.6117 3.52257,-4.66421z" data-paper-data="{&quot;origRot&quot;:0,&quot;origPos&quot;:null}"/></g><g data-paper-data="{&quot;origPos&quot;:null,&quot;origRot&quot;:0}" fill="#f6ded1"><path d="M107.32384,16.14213c0.47038,0.84547 -0.65011,1.73778 -0.65011,1.73778c-1.14063,1.35246 -7.65234,5.50232 -7.76082,3.73643c-0.15772,-2.56768 0.32784,-5.62185 -1.23071,-6.9363c-0.89869,-0.75795 -1.3841,-1.88898 -2.30041,-2.62551c-1.52461,-1.22548 -2.12002,-2.52761 -0.89255,-4.01987c1.36942,-1.66486 1.72736,-0.98474 3.64902,-0.15212c0.6214,0.26923 2.81176,1.83446 3.32943,2.27107c3.78312,3.19064 4.47515,3.50633 5.85616,5.98858z" data-paper-data="{&quot;origRot&quot;:0,&quot;origPos&quot;:null}"/><path d="M96.96782,7.33338c0.6648,0.40873 0.30351,1.78479 0.30351,1.78479c-0.181,1.7599 0.09804,3.59321 -2.23821,2.75596c-1.76101,-0.63109 -3.378,-0.73601 -4.95535,-0.8881c-0.57076,-0.05502 -2.1134,-0.00263 -2.69041,0.00492c-1.72011,0.02252 -2.06125,-1.23234 -1.7269,-2.99243c0.26332,-1.38624 1.1102,-2.45449 4.93904,-2.08525c3.82884,0.36922 4.41651,0.22011 6.36833,1.42009z" data-paper-data="{&quot;origRot&quot;:0,&quot;origPos&quot;:null}"/><path d="M87.14109,6.28797c0.68963,-0.17836 1.53699,0.95183 1.53699,0.95183c1.2431,1.25829 0.99245,1.75513 0.37965,2.81469c-0.70621,1.221 -2.09886,2.15228 -3.78726,3.48661c-1.68837,1.33435 -4.38315,1.51047 -4.78942,0.71263c-0.37976,-0.74579 -0.44835,-2.11959 2.00583,-4.42998c2.45421,-2.31041 2.62943,-3.01212 4.65419,-3.53577z" data-paper-data="{&quot;origRot&quot;:0,&quot;origPos&quot;:null}"/></g><g data-paper-data="{&quot;origPos&quot;:null,&quot;origRot&quot;:0}" fill="#fde6d9"><path d="M105.49421,12.85434c0.72333,0.64253 -0.03936,1.85496 -0.03936,1.85496c-0.62966,1.65337 -5.40431,7.72187 -6.09022,6.09103c-1.55583,-3.69923 -4.69415,-7.29047 -6.49238,-7.85789c-1.8439,-0.65286 -2.10785,-1.7603 -1.44244,-3.57431c0.74237,-2.02386 1.37638,-1.93756 3.32097,-1.34914c0.64819,0.19613 2.60453,0.87724 3.23742,1.11829c4.62491,1.76132 5.38239,1.8306 7.50606,3.71707z" data-paper-data="{&quot;origRot&quot;:0,&quot;origPos&quot;:null}"/><path d="M95.91184,8.61034c0.67802,0.38639 0.3627,1.77372 0.3627,1.77372c-0.12234,1.76494 0.21752,3.58796 -2.14529,2.82891c-1.78103,-0.57215 -3.40061,-0.6232 -4.98216,-0.72274c-0.57229,-0.03602 -2.11233,0.06768 -2.68874,0.09445c-1.71843,0.07976 -2.10112,-1.16307 -1.82551,-2.93332c0.21707,-1.39423 1.02792,-2.49007 4.8669,-2.24844c3.83898,0.24163 4.42139,0.07305 6.41205,1.20745z" data-paper-data="{&quot;origRot&quot;:0,&quot;origPos&quot;:null}"/><path d="M87.90233,8.02595c0.681,0.20898 0.81148,1.61549 0.81148,1.61549c0.40066,1.72279 -0.07295,2.01499 -1.14969,2.59709c-1.24081,0.67078 -2.9149,0.73542 -5.05194,0.98873c-2.13705,0.25331 -5.11128,-1.06521 -5.03987,-1.95767c0.06674,-0.83424 1.31316,-1.98255 4.61362,-2.66675c3.30045,-0.68418 3.81701,-1.19041 5.81638,-0.57686z" data-paper-data="{&quot;origRot&quot;:0,&quot;origPos&quot;:null}"/></g><path d="M106.43071,13.34883c5.42271,5.07886 10.90876,9.8347 9.86748,11.96802c-0.7739,1.58554 -1.99588,6.73298 -5.56669,4.86292c-3.05021,-1.59741 -11.40666,-3.03187 -14.50094,-4.54218c0,0 5.44275,-16.74449 10.20015,-12.28878z" data-paper-data="{&quot;origRot&quot;:0,&quot;origPos&quot;:null}" fill="url(#color-6)"/></g><g stroke-linecap="butt"><g data-paper-data="{&quot;origPos&quot;:null}" stroke="none"><path d="M213.25499,75.27683c1.39989,-5.59545 2.30144,-6.89513 4.27693,-7.74518c1.97548,-0.85005 8.62437,-1.49736 15.90169,-0.93757c7.27732,0.55978 5.42358,-2.11883 12.16091,1.59021c6.73733,3.70905 5.90116,4.59502 6.27197,8.55748c0.37078,3.96245 7.23183,14.01843 3.23009,15.01668c-3.96217,0.98839 -29.30748,3.04872 -47.11994,-3.72969c0.5101,-2.55423 0.89553,-5.04748 0.92074,-7.57477c0.01682,-0.03688 0.03348,-0.07381 0.05,-0.11078l0.27186,-0.24298c0,0 0.4938,-0.78122 0.90815,-1.90398c1.59344,-0.79901 2.83034,-1.73141 3.12757,-2.91941z" data-paper-data="{&quot;origPos&quot;:null}" fill="#000000" stroke-width="0"/><g data-paper-data="{&quot;origPos&quot;:null}"><path d="M211.09786,89.45438c-1.25718,-0.56353 -2.27864,-1.08169 -3.09417,-1.56137c0.38865,-1.96177 0.70117,-3.88852 0.83059,-5.82339c2.98244,-1.37436 6.84125,-2.79025 7.38736,-5.21411c0.26798,-1.18944 0.42148,-1.85983 0.79371,-3.01832c0.65729,-2.04567 1.43619,-3.12528 3.30585,-3.98754c1.95939,-0.90366 7.12653,-1.55524 13.41467,-1.07155c6.28814,0.48368 6.2403,-1.42027 11.90133,1.8894c5.66105,3.3097 3.42242,3.27486 3.69669,7.22992c0.27425,3.95505 6.49425,13.79312 2.60514,14.96859c-3.88912,1.17551 -25.71868,3.36708 -40.84114,-3.41163z" data-paper-data="{&quot;origPos&quot;:null}" fill="#09162e" stroke-width="0"/><g data-paper-data="{&quot;origPos&quot;:null}" fill="none" stroke-width="1" font-family="sans-serif" font-weight="normal" font-size="12" text-anchor="start"/></g></g><path d="M247.39948,94.23721c0,0 -9.39957,4.58502 -13.91745,4.19584c-3.88948,-0.33505 -14.53695,-7.07071 -14.53695,-7.07071c0,0 2.46145,-2.65115 3.44639,-4.86485c0.8373,-1.88188 2.27098,-5.79159 2.45079,-7.87902c0.19147,-2.22278 -2.4318,-14.21438 -2.4318,-14.21438l27.39107,1.47887z" data-paper-data="{&quot;origPos&quot;:null}" fill="url(#color-7)" stroke="none" stroke-width="0"/><g data-paper-data="{&quot;origPos&quot;:null}" fill="#b2bbc1" stroke="none" stroke-width="0"><path d="M196.78973,163.89626l62.21162,4.06456c0,0 -2.59395,16.11897 -3.1741,26.25794c-0.52591,9.19117 -0.21478,14.86273 0.25558,24.04645c0.57316,13.77787 -13.36541,18.15729 -27.04873,17.40963c-14.323,-0.7826 -42.62889,-6.16306 -39.5405,-18.73458c0,0 3.81784,-19.05662 5.54055,-31.58103c1.12469,-8.17668 1.75556,-21.46296 1.75556,-21.46296z" data-paper-data="{&quot;origPos&quot;:null}"/><path d="M196.88638,165.35884c0,0 -0.05923,-11.94275 -0.82603,-19.60311c-1.86644,-18.64598 -2.11857,-29.01001 -2.72993,-47.68677c0.13707,-4.47522 5.7623,-13.54662 13.92062,-14.00856c5.02406,-0.28446 16.44013,-1.62817 16.44013,-1.62817c0,0 -0.07939,5.38914 2.43902,7.99938c4.58357,4.7507 11.59558,5.2833 11.59558,5.2833c0,0 7.11232,-2.04618 9.3447,-5.41138c1.20419,-1.81527 1.01004,-7.72946 1.01004,-7.72946c0,0 14.94846,9.59148 19.33722,20.65021c4.38876,11.05874 1.66177,19.62215 -0.36944,31.85648c-2.03123,12.23433 -8.01329,35.19423 -8.01329,35.19423l-62.1486,-4.91617z" data-paper-data="{&quot;origPos&quot;:null}"/></g><path d="M256.53195,229.30178c-0.64812,7.52383 -14.33502,14.92918 -30.52149,13.53484c-16.18647,-1.39433 -39.35402,-10.75447 -38.70591,-18.27829c0.43555,-5.05624 2.56769,-10.78441 2.56769,-10.78441c0,0 27.41107,6.63704 39.9534,7.67066c13.15749,1.08432 25.89917,-2.24374 25.89917,-2.24374c0,0 1.45526,2.57711 0.80715,10.10093z" data-paper-data="{&quot;origPos&quot;:null}" fill="#000000" stroke="none" stroke-width="0"/><g data-paper-data="{&quot;origPos&quot;:null,&quot;index&quot;:null}"><path d="M242.37816,167.05163c1.34009,-20.40437 4.21453,-55.84846 4.21453,-55.84846c0.74344,-9.2085 5.79647,-12.4166 7.06422,-20.49838c1.32562,-2.56431 -1.98243,-3.37369 -0.5161,-5.7077c2.88884,0.7841 7.44317,3.05428 11.09811,5.88754c3.65994,2.83713 6.7833,14.06613 6.24103,20.78262c-1.40366,17.38576 -1.76037,13.86381 -7.32623,43.23895c-5.74396,30.31518 -5.35225,67.61126 -5.35225,67.61126c0,0 -6.31325,3.58456 -9.45961,4.41699c-3.70945,0.98141 -9.15374,6.12071 -9.28615,-1.33556c0,0 1.74854,-34.58289 3.32243,-58.54723z" data-paper-data="{&quot;origPos&quot;:null}" fill="#255dbc" stroke="#000000" stroke-width="0"/><path d="M247.45212,138.1422l-4.32789,11.22873c0,0 1.63518,-12.99118 1.09674,-21.59976c-0.38748,-6.19523 0.16162,-10.09945 0.99785,-16.34651c0.44632,-3.33426 2.93618,-8.41424 2.93618,-8.41424l21.6621,1.48697c0,0 1.60246,6.13272 0.93429,10.78423c-0.93858,6.53426 -3.3405,17.68644 -3.3405,17.68644z" data-paper-data="{&quot;origPos&quot;:null}" fill="#09162e" stroke="none" stroke-width="0"/><path d="M247.20662,106.53384c0,0 0.62655,-3.1079 1.97352,-6.08148c3.09313,-6.82856 4.3291,-16.28598 4.3291,-16.28598l9.92513,6.48724l-2.08229,16.2206z" data-paper-data="{&quot;origPos&quot;:null}" fill="#09162e" stroke="none" stroke-width="0"/><path d="M262.0745,128.76615c0,0 -0.34208,1.48509 -1.24797,1.06285c-0.90589,-0.42226 -0.5638,-1.90735 -0.5638,-1.90735l0.62537,-1.22116c0.28698,-1.17158 1.21961,-4.71044 1.12953,-5.22102c-0.22879,-1.29669 -0.92589,-2.11561 -0.64929,-3.68004c0.0859,-0.48583 1.09049,-4.24637 1.91936,-4.03931c0.04341,0.01085 0.07446,0.04406 0.0973,0.09261c0.10641,-0.0595 0.40471,0.19165 0.33804,0.06488l-0.96891,-0.48978c-0.41371,-0.19261 -0.67968,-0.83407 -0.61648,-1.5678c0.044,-0.51083 0.23754,-0.95031 0.49975,-1.21035l1.1195,-1.13527l0.03328,0.09096c0.11765,-0.08487 0.22868,-0.15735 0.3392,-0.22137l-0.00701,-0.10237l0.24068,-0.07344l0.03133,-0.36368l1.02313,0.08813c0.03795,0.00327 0.07508,0.01003 0.1113,0.0201c0.28037,0.06041 0.63975,0.30924 0.71393,1.16699c0.00358,0.03785 0.00624,0.07621 0.008,0.11502c0.046,0.87177 -0.26642,1.32711 -0.52795,1.55323c-0.10886,0.10249 -0.22884,0.17441 -0.35443,0.20834l-0.33918,0.10348c0.24174,0.54493 0.40904,1.1068 0.34254,1.41515c-0.54782,2.54004 -1.85751,2.62528 -2.37134,4.48789c-0.03953,0.14331 0.2581,-0.17923 0.28631,-0.03815c0.19085,0.95502 0.48291,2.10558 0.46631,3.56074c-0.02412,2.1132 -0.58253,4.10041 -1.06823,6.08327l-0.61023,1.15751zM263.43383,115.47302c0.00886,0.03481 0.01947,0.06694 0.03242,0.09541c0.04188,0.09202 0.01386,0.03109 -0.03242,-0.09541z" data-paper-data="{&quot;origPos&quot;:null}" fill="#ffffff" stroke="none" stroke-width="0.5"/><path d="M247.87595,103.17624l0.08854,-1.02784l20.07868,1.72961l0.14166,1.04767z" data-paper-data="{&quot;origPos&quot;:null}" fill="#ffffff" stroke="none" stroke-width="0"/><path d="M246.22968,108.85114l-1.05597,2.9168l0.50481,-3.37705l2.28545,-6.26067l0.55116,0.46023z" data-paper-data="{&quot;origPos&quot;:null,&quot;origRot&quot;:0}" fill="#ffffff" stroke="none" stroke-width="0"/></g><g data-paper-data="{&quot;origPos&quot;:null}"><path d="M225.5403,166.42958c-2.84781,23.8546 -7.79255,58.16216 -7.79255,58.16216c-1.8799,7.28293 -9.4272,1.02451 -15.13345,-0.76799c-4.84002,-1.52039 -14.12337,-6.44846 -14.12337,-6.44846c0,0 6.53738,-37.52757 6.57802,-67.50567c0.04064,-29.97811 -3.83173,-34.77003 -2.18397,-52.13476c0.63657,-6.70838 6.62806,-11.5607 13.10961,-13.52424c6.4727,-1.96084 9.66111,-1.07896 14.45148,-1.20155c1.82023,2.61713 2.61536,3.21002 4.15925,6.02153c0.21692,8.20968 7.57127,12.48655 6.69851,21.68391c0,0 -3.33878,35.40408 -5.76355,55.71502z" data-paper-data="{&quot;origPos&quot;:null}" fill="#255dbc" stroke="#000000" stroke-width="0"/><path d="M194.67877,127.87002c0,0 -0.7399,-12.10059 -0.77722,-18.7189c-0.02656,-4.71135 4.00626,-10.35864 4.00626,-10.35864l32.18962,3.49079c0,0 2.84086,5.53918 2.8078,8.90904c-0.06192,6.31376 -0.05831,10.2656 -2.06352,16.25472c-2.78633,8.32218 -3.08095,21.42884 -3.08095,21.42884l-4.40134,-11.98069z" data-paper-data="{&quot;origPos&quot;:null}" fill="#09162e" stroke="none" stroke-width="0"/><path d="M211.01551,101.33324l-0.16697,-18.7865l9.45425,-2.48337c0,0 5.31606,12.09274 8.72941,19.48178c1.4864,3.21766 1.79194,6.40585 1.79194,6.40585z" data-paper-data="{&quot;origPos&quot;:null}" fill="#09162e" stroke="none" stroke-width="0"/><path d="M202.16889,123.60582l-0.71587,-1.27174c-0.33224,-2.05331 -0.77965,-4.12717 -0.34533,-6.20503c0.29906,-1.43082 1.0231,-2.49386 1.54165,-3.38777c0.07661,-0.13205 0.47993,0.25087 0.44884,0.10148c-0.40408,-1.94167 -2.47723,-2.31833 -2.78403,-4.93198c-0.03725,-0.31729 0.35573,-0.8309 0.86384,-1.31123l-0.51868,-0.17738c-0.19303,-0.06137 -0.36864,-0.15875 -0.51958,-0.28363c-0.36721,-0.28028 -0.76441,-0.79674 -0.49585,-1.64142c0.01147,-0.03766 0.02433,-0.0747 0.0385,-0.11102c0.31041,-0.82462 0.9402,-0.98823 1.40163,-0.98475c0.0601,-0.00177 0.12093,-0.00009 0.18229,0.00519l1.65416,0.14249l-0.03133,0.36368l0.36807,0.12588l-0.03411,0.09883c0.16225,0.08751 0.3234,0.18344 0.49235,0.293l0.07351,-0.08176l1.5344,1.36388c0.36071,0.3137 0.57156,0.78802 0.52756,1.29884c-0.0632,0.73372 -0.63164,1.30331 -1.33562,1.39965l-1.65741,0.26355c-0.13486,0.10941 0.39786,-0.07015 0.55453,0.01201c0.04735,-0.0425 0.1044,-0.06813 0.17617,-0.06906c1.37044,-0.01761 2.13384,3.89523 2.16236,4.39091c0.09182,1.59618 -1.20504,2.24333 -1.86065,3.46383c-0.25815,0.48059 0.43986,4.15991 0.63618,5.37312l0.72579,1.33756c0,0 0.21418,1.53301 -1.32746,1.74443c-1.54163,0.21141 -1.75581,-1.3216 -1.75581,-1.3216zM202.75693,111.99553c0.02708,-0.02503 0.05124,-0.05416 0.07317,-0.08632c-0.10227,0.1137 -0.16065,0.1672 -0.07317,0.08632z" data-paper-data="{&quot;origPos&quot;:null}" fill="#ffffff" stroke="none" stroke-width="0.5"/><path d="M197.67118,99.67986l0.46072,-0.99578l32.46267,2.79639l-0.08854,1.02784z" data-paper-data="{&quot;origPos&quot;:null}" fill="#ffffff" stroke="none" stroke-width="0"/><path d="M229.61605,101.79082l0.98344,-0.32804l2.25015,6.65138l0.0508,3.42491l-1.03427,-3.09686z" data-paper-data="{&quot;origPos&quot;:null,&quot;origRot&quot;:0}" fill="#ffffff" stroke="none" stroke-width="0"/><path d="M194.30347,129.46643c0,0 -6.30915,-28.7476 0.25612,-38.1864c7.60083,-10.92763 13.91986,-7.49878 13.91986,-7.49878c0,0 -4.57886,9.93128 -7.97887,16.11538c-3.40001,6.18411 -6.19713,29.56981 -6.19713,29.56981z" data-paper-data="{&quot;origPos&quot;:null}" fill="#000000" stroke="none" stroke-width="0"/></g></g><g stroke-linecap="butt"><path d="M248.62245,7.91742c16.86024,0.99627 21.62968,13.71004 22.84778,19.13465c1.4961,6.6626 -1.10968,23.451 -2.79584,30.63636c-3.05091,13.34013 -13.05503,25.28969 -21.62538,26.59395c-3.59957,-0.55017 -26.62748,-8.47906 -29.21707,-14.03297c-6.20587,-13.30976 -8.38583,-17.67589 -7.58204,-32.33934c0.89582,-16.34207 12.69392,-31.86056 38.37254,-29.99265z" data-paper-data="{&quot;origPos&quot;:null}" fill="url(#color-8)" stroke="none" stroke-width="0"/><g data-paper-data="{&quot;origPos&quot;:null,&quot;origRot&quot;:0}" stroke="none" stroke-width="0"><path d="M256.7317,58.94426c-0.70196,-0.84714 -1.1139,-2.21196 -1.1139,-2.21196c0,0 0.43979,-3.77813 4.49463,-5.19642c1.73914,-0.32633 3.26084,-0.17284 5.20736,0.3158c0.81282,0.20405 2.08887,0.99799 2.67403,1.73324c0.62422,0.7843 0.72607,1.60975 0.63752,2.77952c-0.812,2.99314 -2.95487,3.8793 -5.19403,4.38996c0,0 -4.35272,1.02939 -6.70562,-1.81014z" data-paper-data="{&quot;origPos&quot;:null}" fill="#000000"/><path d="M257.00205,54.17258c0.87712,-1.30806 1.49004,-1.35514 2.9296,-2.08238c1.94939,-0.36582 2.28959,-0.28601 4.25104,0.06368c1.70458,0.50085 3.47668,2.39292 3.55959,3.77026c0.18779,1.06235 -0.10342,2.34891 -1.11238,3.4847c-1.00819,1.1349 -2.08726,1.12204 -3.61156,1.37984c-1.48302,0.25082 -2.39121,0.15906 -3.90562,0.17359c0,0 -1.27453,-0.26834 -2.07691,-1.42341c-0.80238,-1.15505 -1.50453,-2.77628 -1.50453,-2.77628z" data-paper-data="{&quot;origPos&quot;:null}" fill="#ffffff"/></g><g data-paper-data="{&quot;origRot&quot;:0}" stroke="#000000" stroke-width="0"><path d="M257.96059,58.10439c0.04509,-0.13932 0.09426,-0.27529 0.14721,-0.40769c3.78188,-1.56676 4.1342,-0.72671 7.03449,1.29639c0.00964,0.67899 -0.02489,1.39786 -0.2494,2.09152c-0.41751,1.28982 -1.18417,2.29213 -2.08562,2.86878c-0.90145,0.57666 -2.32766,0.48436 -3.28382,0.07325c-0.9562,-0.41111 -1.26362,-1.06406 -1.6171,-2.18022c-0.35347,-1.11615 -0.36325,-2.45223 0.05423,-3.74205z" data-paper-data="{&quot;origPos&quot;:null}" fill="#898151"/><path d="M259.99411,55.33278c0.90147,-0.57666 1.93777,-0.72769 2.89396,-0.31666c0.95621,0.41107 1.6535,1.3074 2.00698,2.42357c0.24975,0.7886 0.32795,1.68697 0.20507,2.60127c-0.38554,-0.31415 -0.81678,-1.30887 -3.46225,-1.73144c-2.90691,-0.46437 -3.28721,0.67928 -3.87164,0.72815c0.05091,-0.27517 0.05379,-0.56255 0.14232,-0.8361c0.41746,-1.28984 1.1841,-2.29216 2.08552,-2.86882z" data-paper-data="{&quot;origPos&quot;:null}" fill="#4d461c"/></g><g data-paper-data="{&quot;origPos&quot;:null,&quot;origRot&quot;:0}" stroke="none" stroke-width="0"><path d="M233.84166,58.6c-4.09577,-1.16003 -5.89136,-2.1212 -5.81369,-5.39346c0.02983,-1.25664 0.25116,-2.12051 1.10432,-2.86779c0.79978,-0.70054 2.44856,-1.36724 3.46328,-1.47104c2.43001,-0.24855 4.30278,-0.19977 6.38407,0.38969c4.77518,2.07369 4.86631,6.15383 4.86631,6.15383c0,0 -0.66281,1.39437 -1.61813,2.19769c-3.20214,2.69259 -8.38615,0.99104 -8.38615,0.99104z" data-paper-data="{&quot;origPos&quot;:null}" fill="#000000"/><path d="M241.78712,58.19905c-1.11398,1.11685 -2.69902,1.22469 -2.69902,1.22469c-1.8441,-0.22649 -2.96184,-0.25546 -4.73986,-0.72891c-1.8275,-0.48665 -3.14424,-0.62332 -4.23939,-1.97102c-1.09601,-1.34873 -1.60559,-2.75621 -1.25164,-3.86007c0.17468,-0.5448 0.21183,-1.90423 1.85852,-2.35269c1.21306,-0.33037 2.20313,-1.12173 3.23014,-1.16341c2.43186,-0.09864 2.85589,-0.13612 5.1888,0.52465c3.57773,2.08837 4.40161,5.82443 4.40161,5.82443c0,0 -0.63518,1.38553 -1.74917,2.50236z" data-paper-data="{&quot;origPos&quot;:null}" fill="#ffffff"/></g><g stroke="#000000" stroke-width="0"><path d="M240.89381,56.94685c0.10612,1.40303 -0.32362,2.72961 -1.10409,3.73879c-0.78046,1.00919 -2.05316,1.29531 -3.34874,1.43015c-1.29554,0.13489 -2.3717,0.09323 -3.29154,-0.73902c-0.91983,-0.83219 -1.54203,-2.0493 -1.6482,-3.45235c-0.05706,-0.75456 0.12562,-1.47972 0.34973,-2.15253c4.17234,-1.18132 4.86504,-1.91609 8.99067,0.72713c0.02322,0.14696 0.04072,0.29629 0.05218,0.44782z" data-paper-data="{&quot;origPos&quot;:null}" fill="#898151"/><path d="M239.27879,53.60616c0.91982,0.83219 1.54198,2.04925 1.64808,3.45235c0.02251,0.29754 -0.06385,0.58437 -0.08776,0.87273c-0.69798,-0.21618 -0.80446,-1.46314 -4.49743,-1.83461c-3.36081,-0.33806 -4.19819,0.52798 -4.76697,0.73c0.13598,-0.94492 0.51235,-1.81635 1.06378,-2.52938c0.78046,-1.00919 1.91181,-1.70108 3.20736,-1.83593c1.29555,-0.1348 2.51307,0.3126 3.43295,1.14484z" data-paper-data="{&quot;origPos&quot;:null}" fill="#4d461c"/></g><g data-paper-data="{&quot;index&quot;:null,&quot;origRot&quot;:0}" stroke="none" stroke-width="1"><path d="M260.58521,56.89701c0.55964,-0.41713 1.22813,-0.56206 1.87207,-0.33595c0.64398,0.2261 1.14288,0.78092 1.42844,1.49484c0.28557,0.71394 0.35768,1.58688 0.14889,2.44866c-0.20884,0.86178 -0.65954,1.55116 -1.21913,1.9683c-0.55961,0.41712 -1.2281,0.56206 -1.87204,0.33595c-0.64396,-0.2261 -1.14292,-0.78092 -1.42846,-1.49486c-0.28557,-0.71394 -0.3577,-1.58687 -0.14888,-2.44861c0.20879,-0.86179 0.65953,-1.55119 1.21915,-1.96834z" data-paper-data="{&quot;origPos&quot;:null}" fill="#000000"/><path d="M262.98616,57.61343c0.17698,-0.2041 0.40525,-0.30258 0.64266,-0.24686c0.23734,0.05562 0.43954,0.25503 0.57424,0.53232c0.13474,0.27724 0.20192,0.63242 0.16973,0.99909c-0.03218,0.36666 -0.15771,0.67658 -0.33467,0.88077c-0.17698,0.2041 -0.40526,0.3026 -0.64263,0.24687c-0.23736,-0.05571 -0.4395,-0.25507 -0.57423,-0.53236c-0.13471,-0.2772 -0.20192,-0.63234 -0.16975,-0.99908c0.03218,-0.36666 0.15776,-0.67664 0.33472,-0.88084z" data-paper-data="{&quot;origPos&quot;:null,&quot;origRot&quot;:0}" fill="#ffffff"/><path d="M259.32324,59.95361c0.1452,-0.07918 0.32114,-0.10331 0.49323,-0.05358c0.17209,0.04972 0.30794,0.16396 0.38853,0.30838c0.08054,0.14444 0.10573,0.31904 0.05641,0.48954c-0.04926,0.17048 -0.16382,0.30475 -0.30904,0.38391c-0.1452,0.07918 -0.32111,0.10341 -0.49321,0.05364c-0.17206,-0.0497 -0.30793,-0.16389 -0.38846,-0.30833c-0.08054,-0.14443 -0.10573,-0.31909 -0.05641,-0.48959c0.04935,-0.1705 0.16382,-0.30469 0.30902,-0.38389z" data-paper-data="{&quot;origPos&quot;:null}" fill="#ffffff"/></g><g stroke="none" stroke-width="1"><path d="M235.46784,54.31607c0.63646,-0.46862 1.40629,-0.64043 2.15782,-0.40437c0.75155,0.23604 1.34405,0.83578 1.69395,1.61425c0.34992,0.77849 0.45711,1.73563 0.23879,2.68583c-0.21836,0.9502 -0.72133,1.71568 -1.35774,2.18432c-0.63642,0.46862 -1.40627,0.64044 -2.15777,0.40437c-0.75152,-0.23604 -1.3441,-0.83579 -1.694,-1.61428c-0.34992,-0.77849 -0.45708,-1.73559 -0.23878,-2.68575c0.21831,-0.9502 0.72129,-1.71573 1.35773,-2.18438z" data-paper-data="{&quot;origPos&quot;:null}" fill="#000000"/><path d="M238.1433,55.04655c0.19929,-0.22747 0.4609,-0.33995 0.73717,-0.28326c0.27624,0.05658 0.5157,0.27172 0.67914,0.57362c0.16349,0.30185 0.25088,0.69055 0.22356,1.09378c-0.02731,0.4032 -0.16419,0.74588 -0.36347,0.97343c-0.19929,0.22747 -0.46089,0.33992 -0.73715,0.28325c-0.27626,-0.05666 -0.51566,-0.27173 -0.67911,-0.57364c-0.16344,-0.30182 -0.2509,-0.69048 -0.22358,-1.09375c0.02731,-0.4032 0.16425,-0.74595 0.36353,-0.97353z" data-paper-data="{&quot;origPos&quot;:null,&quot;origRot&quot;:0}" fill="#ffffff"/><path d="M233.96706,57.68554c0.16592,-0.0897 0.36893,-0.11953 0.56944,-0.06819c0.20053,0.05133 0.36091,0.17418 0.45809,0.33125c0.09715,0.15708 0.13103,0.3483 0.07858,0.53645c-0.05239,0.18812 -0.18135,0.33773 -0.34729,0.4274c-0.16592,0.0897 -0.36889,0.11961 -0.56944,0.06824c-0.20051,-0.05131 -0.36084,-0.17411 -0.458,-0.33119c-0.09715,-0.15704 -0.13104,-0.34835 -0.07858,-0.53649c0.05248,-0.18814 0.18135,-0.33767 0.34725,-0.42735z" data-paper-data="{&quot;origPos&quot;:null}" fill="#ffffff"/></g><path d="M230.0456,62.74693l0.38621,-4.4834l35.36902,3.04675l-0.38621,4.4834z" fill="#fbe2d4" stroke="none" stroke-width="0"/><g data-paper-data="{&quot;origPos&quot;:null}" stroke="none" stroke-width="0"><path d="M247.54504,64.55058l6.26479,-0.33895c0.64783,0.46265 -0.38154,2.4093 -2.12027,2.26364c-1.70561,-0.14287 -4.51221,-0.93566 -4.51221,-0.93566l0.36767,-0.98904z" data-paper-data="{&quot;origPos&quot;:null,&quot;index&quot;:null}" fill="#f4d7c8"/><path d="M252.63541,65.55999c0.44016,-0.13144 0.84794,-0.08017 0.91079,0.11447c0.06285,0.19463 -0.24306,0.45898 -0.68322,0.59044c-0.44017,0.13143 -0.84794,0.08019 -0.91079,-0.11447c-0.06285,-0.19463 0.24306,-0.45899 0.68321,-0.59045z" data-paper-data="{&quot;origPos&quot;:null,&quot;origRot&quot;:0}" fill="url(#color-9)"/><path d="M247.63376,62.05547c0,0 0.03729,-4.28685 -0.25184,-7.05761c-0.22584,-2.16431 -1.06771,-5.5879 -1.06771,-5.5879c0,0 2.23207,2.7255 2.50228,4.39162c0.41816,2.57849 -0.38057,6.39638 -0.38057,6.39638z" data-paper-data="{&quot;origPos&quot;:null}" fill="url(#color-10)"/><path d="M249.4024,65.13564c0.54633,0.06269 0.96773,0.27722 0.94126,0.47911c-0.02646,0.20189 -0.4908,0.31471 -1.03714,0.25201c-0.5463,-0.06273 -0.96773,-0.2772 -0.94126,-0.4791c0.02646,-0.20189 0.4908,-0.31472 1.03714,-0.25203z" data-paper-data="{&quot;origPos&quot;:null}" fill="url(#color-11)"/><path d="M252.3352,65.99755c-0.82622,-0.10271 -1.23599,-0.45512 -1.87081,-0.895c-1.22569,-0.61067 -2.56304,-0.40042 -3.01705,0.49677c-0.33569,0.16186 -0.75827,-0.34053 -0.93248,-0.6454c-0.35847,-0.6273 -0.42746,-1.46155 -0.0435,-2.07044c0.29265,-0.46405 0.38319,-0.61128 0.93877,-1.07527c0.48571,-0.40564 1.89356,-5.94215 0.83774,-9.43701c-1.56197,-5.1703 -5.64339,-6.03106 -11.15592,-6.74546c-2.69404,-0.34914 -9.32733,1.83219 -9.32733,1.83219c0,0 2.74441,-4.79385 6.3426,-6.02645c5.31918,-1.82216 9.62853,-1.42133 15.21514,-0.55616c18.21569,1.84301 19.67578,7.20194 19.67578,7.20194c0,0 -5.51849,0.2416 -8.96236,0.9259c-4.22363,0.83923 -5.51894,2.28389 -6.33662,4.36151c-0.84734,2.15294 -1.12731,4.14941 -0.74135,6.8308c0.17427,1.21067 1.36009,1.87474 1.44594,3.09378c0.11174,1.58635 -1.24232,2.81103 -2.06855,2.70832z" data-paper-data="{&quot;origPos&quot;:null}" fill="url(#color-12)"/></g><path d="M263.3671,46.86846c3.47297,0.34522 6.41834,2.73456 7.55992,3.61986c0.52892,0.41015 -4.6323,-1.99026 -8.05038,-2.04716c-2.56718,-0.04272 -3.59491,-0.15307 -5.72072,1.20241c-0.60131,0.38346 -1.08957,0.34073 -1.4349,0.12421c-0.34535,-0.21652 -0.28244,-0.91887 0.3189,-1.30232c0,0 3.03642,-2.02345 7.32715,-1.59696z" data-paper-data="{&quot;origRot&quot;:0,&quot;origPos&quot;:null,&quot;index&quot;:null}" fill="#38301c" stroke="none" stroke-width="0"/><path d="M273.4972,46.96115c-5.49732,-8.79913 -5.01404,-16.60471 -15.65765,-17.16603c-11.50045,-0.6065 -29.02363,6.5593 -36.87437,14.58942c-2.80895,2.87314 -0.76071,11.59248 -0.76071,11.59248l-3.07712,0.21603c0,0 -1.7993,-2.65573 -2.66158,-4.73571c-1.76316,-4.25307 -4.47327,8.77631 -4.47327,8.77631c0,0 -3.35523,-24.9623 1.20564,-36.37267c4.83715,-12.10153 18.84855,-18.38019 34.35625,-17.30606c15.5077,1.07413 24.03611,4.34904 29.23321,17.06302c0,0 4.21564,8.21421 2.75056,13.47325z" data-paper-data="{&quot;origPos&quot;:null}" fill="#3d3021" stroke="none" stroke-width="0"/><path d="M250.47972,31.94989c-10.83726,-0.57154 -21.71049,2.14298 -29.10849,9.70999c-2.74645,2.80922 -5.27922,10.43151 -5.27922,10.43151c0,0 -0.46727,-21.10759 4.08579,-27.15392c3.10139,-7.08996 7.51061,-6.48783 7.51061,-6.48783c0,0 7.67855,-10.81051 24.86545,-10.57789c4.29657,0.40522 9.97657,1.6572 13.2504,4.46911c2.6753,2.29782 2.36178,4.04282 4.7153,6.66909c-5.64687,3.3895 -13.09728,13.30607 -20.03984,12.93994z" data-paper-data="{&quot;origPos&quot;:null}" fill="#453725" stroke="none" stroke-width="0"/><g data-paper-data="{&quot;origPos&quot;:null}" stroke="none" stroke-width="0"><path d="M227.59696,35.91368l-4.24719,-2.55546l6.31709,1.00527l-1.1725,-1.38454c0,0 3.65402,1.87435 9.27603,1.15876c7.64479,-0.97307 18.52496,-5.14734 24.07147,-5.22243c4.2317,-0.05731 7.23974,0.7345 9.26871,4.55044c1.04601,1.96725 1.14419,5.55795 1.14419,5.55795c0,0 -0.48291,2.06712 0.21853,3.64336c-0.40208,0.91378 -0.42174,2.49696 -0.65805,3.49569l-0.90318,-5.09031c0,0 -1.00331,-4.09572 -1.17129,-4.04089c-0.50393,0.16446 -0.4631,3.28727 -0.4631,3.28727c0,0 -0.69041,-4.36748 -1.09658,-5.76566c-1.34989,0.55 -0.30232,1.55148 -2.70917,1.73837c-8.86922,0.68862 -13.07317,6.63281 -21.92453,5.87034c-13.61852,-1.17312 -21.14759,-5.68529 -21.14759,-5.68529z" data-paper-data="{&quot;origPos&quot;:null}" fill="url(#color-13)"/><path d="M225.69301,32.79423l-4.26261,-3.5609l6.44421,1.22767l-1.15146,-1.97132c0,0 3.67938,2.59175 9.47451,1.34082c10.32358,-2.22841 4.8018,-13.26947 27.9027,-14.55143c11.72552,-0.6507 4.70395,10.71108 5.81756,17.96636c0.28954,1.88633 -0.51868,4.34684 -0.51868,4.34684l-0.20931,-2.74857c0,0 -0.46006,-0.99679 -2.86518,-0.52746c-2.06672,0.40329 -3.79095,-0.43482 -3.79095,-0.43482c0,0 1.40404,0.30568 3.94601,-0.72779c1.67443,-0.64545 0.23719,-1.46883 0.02438,-1.01684c-13.01498,1.35875 -13.83518,9.238 -24.41749,8.32642c-13.92957,-1.19992 -20.66373,-6.56279 -20.66373,-6.56279z" data-paper-data="{&quot;origPos&quot;:null}" fill="#3b2f20"/></g><path d="M217.20566,54.29279c0.55107,4.69409 1.53463,9.04976 -2.25398,10.33332c-2.09096,0.70841 -5.78077,-2.98922 -6.38061,-8.09859c-0.59984,-5.10936 1.03937,-6.65541 3.96344,-7.29207c2.92409,-0.63664 4.07132,-0.05204 4.67112,5.05733z" data-paper-data="{&quot;origRot&quot;:0,&quot;origPos&quot;:null}" fill="#f6d8c8" stroke="none" stroke-width="0"/><path d="M235.69944,58.9453c-1.34588,-0.11594 -3.41232,-0.18838 -3.41232,-0.18838l0.03761,-0.43665c0,0 2.09372,0.17019 3.40417,0.28307c1.70016,0.14646 4.31024,0.38146 4.31024,0.38146l-0.03761,0.43666c0,0 -2.63733,-0.33274 -4.30208,-0.47615z" data-paper-data="{&quot;origPos&quot;:null}" fill="#000000" stroke="none" stroke-width="0"/><path d="M236.39002,49.30705c-1.26254,-0.09303 -4.57907,0.84499 -4.57907,0.84499c0,0 -3.37375,1.07878 -2.80373,0.37477c0.56118,-0.69311 1.78877,-1.20429 3.17679,-1.5944c1.74317,-0.4899 3.12632,-0.67669 4.95589,-0.48528c2.79244,0.69033 4.34854,2.03791 5.36922,3.50864c-0.16316,0.16055 -1.51348,-0.91998 -1.64197,-0.7286c-0.40803,-0.35829 -0.81735,-0.69358 -1.37414,-1.05135c-0.88559,-0.56904 -1.84044,-0.77576 -3.10299,-0.86878z" data-paper-data="{&quot;origPos&quot;:null,&quot;origRot&quot;:0}" fill="#000000" stroke="#000000" stroke-width="0"/><path d="M235.96592,44.37523c5.25699,0.06273 8.68132,2.41769 8.68132,2.41769c0.68037,0.4492 0.66728,1.15427 0.22098,1.33025c-0.44628,0.17602 -1.04375,0.16307 -1.7241,-0.28612c-2.40517,-1.58798 -3.66537,-1.59482 -6.78364,-1.84349c-4.15183,-0.33105 -10.71548,1.46894 -10.02197,1.12135c1.49688,-0.75025 5.3723,-2.7905 9.62738,-2.73973z" data-paper-data="{&quot;origRot&quot;:0,&quot;origPos&quot;:null,&quot;index&quot;:null}" fill="#38301c" stroke="none" stroke-width="0"/><path d="M258.182,60.83776l0.01919,-0.46545c0,0 1.4104,0.17477 3.04053,0.25654c1.25645,0.06301 3.2899,-0.142 3.2899,-0.142l-0.01917,0.46545c0,0 -1.83604,0.20002 -3.12646,0.1353c-1.59617,-0.08005 -3.20398,-0.24983 -3.20398,-0.24983z" data-paper-data="{&quot;origPos&quot;:null,&quot;origRot&quot;:0}" fill="#000000" stroke="none" stroke-width="0"/><path d="M256.84938,53.82968c0.90281,-1.26384 2.23566,-2.37759 4.54325,-2.806c1.4992,-0.04362 2.64302,-0.08368 4.03867,0.48575c1.11131,0.45341 2.48274,1.98364 2.48274,1.98364c0,0 -1.46956,-0.44256 -2.33433,-0.70612c-1.09949,-0.33507 -2.42542,-0.64517 -3.45808,-0.6506c-1.03266,-0.00543 -1.73492,0.15069 -2.82673,0.89638c-1.11131,0.75899 -3.12637,2.74853 -3.12637,2.74853z" data-paper-data="{&quot;origPos&quot;:null,&quot;origRot&quot;:0}" fill="#000000" stroke="#000000" stroke-width="0"/><path d="M254.55667,75.30607c-0.31755,2.31015 -4.30009,3.44653 -8.52522,2.86575c-4.22514,-0.58078 -7.01308,-2.42351 -6.69553,-4.73366c0.31755,-2.31015 4.95639,-4.14141 9.18152,-3.56063c4.22514,0.58078 6.35678,3.11839 6.03923,5.42854z" fill="#884744" stroke="#000000" stroke-width="0.75"/></g></g></g></svg>