<svg version="1.1" xmlns="http://www.w3.org/2000/svg" xmlns:xlink="http://www.w3.org/1999/xlink" width="228.5" height="336.66605" viewBox="0,0,228.5,336.66605"><g transform="translate(-272.25,-179.64278)"><g data-paper-data="{&quot;isPaintingLayer&quot;:true}" fill-rule="nonzero" stroke-linejoin="miter" stroke-miterlimit="10" stroke-dasharray="" stroke-dashoffset="0" style="mix-blend-mode: normal"><path d="M272.25,389.04114l28.5,-120l200,-19.5v139.5z" fill="#4db494" stroke="none" stroke-width="NaN" stroke-linecap="butt"/><path d="M418.83962,309.96801l-97.7946,8.71433" id="ID0.620068640448153" fill="none" stroke="#000000" stroke-width="3.23007" stroke-linecap="round"/><g data-paper-data="{&quot;index&quot;:null}" id="ID0.8368400442413986" fill="none" stroke="#000000" stroke-width="3.65408" stroke-linecap="round"><path d="M376.2249,418.56219l-0.3045,95.6151l-5.7856,0.3045" id="ID0.819343286100775"/><path d="M441.6947,418.30319v95.9196h-5.1766" id="ID0.20713123539462686"/></g><path d="M402.512,318.41689c3.8384,-11.0716 23.1703,-19.8455 37.0908,-25.2753c5.573,-2.1652 14.3555,-0.59 18.3038,4.3068c3.328,4.3649 3.2774,12.8675 0,17.227c-7.3947,7.5648 -18.0227,13.2562 -27.994,13.997c-9.7289,0.7267 -29.7349,-3.3981 -27.4006,-10.2555z" id="ID0.9234384978190064" fill="#99b2ff" stroke="#80a0d5" stroke-width="3.23007" stroke-linecap="round"/><path d="M373.8663,298.42069h67.8315l7.5368,107.6689l-1.0767,6.4601l-6.4601,4.3068h-65.6781l-6.4601,-3.2301l-4.3068,-8.6135z" id="ID0.0465886271558702" fill="#99b2ff" stroke="#80a0d5" stroke-width="3.23007" stroke-linecap="round"/><path d="M388.94,382.40239l-6.4602,20.4571" id="ID0.9324376778677106" fill="none" stroke="#80a0d5" stroke-width="3.23007" stroke-linecap="round"/><path d="M396.7633,301.98079l-7.5368,40.9142" id="ID0.26887480774894357" fill="none" stroke="#80a0d5" stroke-width="3.23007" stroke-linecap="round"/><path d="M390.3032,337.24239l-1.6151,8.3443" id="ID0.5418036822229624" fill="none" stroke="#ffffff" stroke-width="3.23007" stroke-linecap="round"/><path d="M423.394,382.40239l7.5369,18.3038" id="ID0.643622487783432" fill="none" stroke="#80a0d5" stroke-width="3.23007" stroke-linecap="round"/><path d="M416.8669,342.89499l-7.5368,-40.9142" id="ID0.26887480774894357" fill="none" stroke="#80a0d5" stroke-width="3.23007" stroke-linecap="round"/><path d="M417.4053,345.58669l-1.6151,-8.3443" id="ID0.5418036822229624" fill="none" stroke="#ffffff" stroke-width="3.23007" stroke-linecap="round"/><path d="M399.2753,193.90579c15.8919,0 30.2926,6.4547 40.7204,16.8825c10.4277,10.4277 16.8825,24.8284 16.8825,40.7204c0,15.8919 -6.4548,30.2926 -16.8825,40.7204c-10.4278,10.4277 -24.8285,16.8825 -40.7204,16.8825c-15.8919,0 -30.2927,-6.4548 -40.7204,-16.8825c-10.4277,-10.4278 -16.8825,-24.8285 -16.8825,-40.7204c0,-15.892 6.4548,-30.2927 16.8825,-40.7204c10.4277,-10.4278 24.8285,-16.8825 40.7204,-16.8825z" id="ID0.9739120420999825" fill="#ffcfa0" stroke="#000000" stroke-width="3.23007" stroke-linecap="butt"/><path d="M386.8307,193.44239c18.0315,-0.5847 37.2113,2.3162 52.7627,8.7536c7.1024,2.9604 13.3628,10.0377 15.0563,17.5071c2.4836,15.4991 2.5512,32.9598 -2.1948,45.256c-1.7251,4.3733 -4.9154,-10.5971 -9.6571,-14.0057c-2.5064,-0.6846 -5.7266,6.5853 -7.55,4.2892c-2.9964,-3.6432 -1.5013,-9.5177 -2.4143,-14.5309c-0.3248,-1.7122 -1.2379,-4.614 -2.941,-4.3768c-8.9381,1.4443 -16.4838,7.9132 -24.7573,8.7536c-2.1298,0.2066 -0.8138,-5.5673 -3.2482,-5.2522c-8.5817,1.0653 -16.1677,7.1605 -24.7573,7.8782c-2.1491,0.1795 1.2598,-5.0192 -2.1509,-5.2521c-13.6437,-0.9331 -26.2014,3.568 -38.7161,2.2759c-7.1892,-0.6652 -20.1297,-4.2393 -19.0068,-8.0095c1.5697,-4.9291 15.7726,-4.3269 22.1673,-9.4101c7.3938,-5.8946 7.9329,-17.7881 16.1537,-23.372c9.061,-6.1792 20.6732,-10.2417 31.2538,-10.5043z" id="ID0.8410323518328369" fill="#1c1a12" stroke="#000000" stroke-width="2.62991" stroke-linecap="round"/><g id="ID0.9027861910872161" fill="none" stroke="#000000" stroke-width="8.61573" stroke-linecap="round"><path d="M373.493,235.59599v41.0306" id="ID0.3690347820520401"/><path d="M397.193,235.89599v41.0306" id="ID0.3690347820520401"/></g><g id="ID0.46843624534085393" stroke="#80a0d5" stroke-linecap="round"><path d="M457.3163,192.02429c7.7676,6.2689 13.2036,13.9352 15.7112,21.257c2.5075,7.3218 0.5091,13.7127 -1.8595,19.1873c-2.7044,6.2451 -4.673,16.4733 -13.6063,15.5928c-9.9,-1.3376 -19.4884,-13.1861 -28.8508,-20.5935c-8.8618,-7.0122 -21.5851,-13.6687 -24.9829,-22.8539c-2.5975,-8.3195 5.9348,-13.1117 11.1312,-17.5904c4.4612,-3.8564 10.6762,-6.7738 18.3623,-5.8685c7.6862,0.9053 16.3273,4.6003 24.0948,10.8692z" id="ID0.10736241936683655" fill="#99b2ff" stroke-width="2.69275"/><path d="M438.7932,213.78569c9.8506,8.8268 25.5735,19.7657 29.3489,26.56c4.7407,8.6316 -3.0601,9.3105 -8.6304,11.01c-1.6452,-0.0189 -5.9658,-2.947 -11.5044,-6.3195c-6.8209,-4.6361 -13.6647,-11.4292 -20.3718,-17.4256c-9.9762,-8.9208 -24.0575,-19.3286 -27.716,-25.9244c-4.9202,-9.0069 2.0025,-11.1148 7.6575,-13.1598c1.0074,-0.4872 5.4305,3.2001 9.9519,6.4706c7.4307,5.5961 13.6894,12.0013 21.2643,18.7887z" id="ID0.10736241936683655" fill="#99b2ff" stroke-width="2.32204"/><path d="M405.9825,207.87669l10.8381,-12.0221" id="ID0.6224880712106824" fill="none" stroke-width="3.23007"/><path d="M428.6629,205.18069l-9.326,11.8423" id="ID0.2976824454963207" fill="none" stroke-width="3.23007"/><path d="M441.5308,216.68489l-9.326,11.8423" id="ID0.684330917429179" fill="none" stroke-width="3.23007"/><path d="M453.3731,226.01089l-9.9922,12.6882" id="ID0.20857495116069913" fill="none" stroke-width="3.23007"/><path d="M453.3517,245.18079l9.3261,-11.8423" id="ID0.1698142634704709" fill="none" stroke-width="3.23007"/></g><path d="M405.9217,290.87739c0,0 -3.45252,11.31525 -17,3" id="ID0.4064131788909435" fill="none" stroke="#000000" stroke-width="3" stroke-linecap="round"/><path d="M320.0214,318.81454c0,0 47.55932,-3.05224 68.26226,-5.3511c17.94636,-1.99277 48.87133,-7.65548 48.87133,-7.65548" id="ID0.620068640448153" fill="none" stroke="#000000" stroke-width="3.23007" stroke-linecap="round"/></g></g></svg>