<svg xmlns="http://www.w3.org/2000/svg" xmlns:xlink="http://www.w3.org/1999/xlink" version="1.1" width="65.86749" height="141.21898" viewBox="0,0,65.86749,141.21898"><defs><radialGradient cx="240" cy="141.01748" r="31.95415" gradientUnits="userSpaceOnUse" id="color-1"><stop offset="0" stop-color="#efefef"/><stop offset="1" stop-color="#e2e2e2"/></radialGradient><radialGradient cx="32.9337" cy="31.377" r="31.9541" gradientUnits="userSpaceOnUse" id="color-1-,0,0,1,-207.06626,-109.64051"><stop offset="0" stop-color="#efefef"/><stop offset="1" stop-color="#e2e2e2"/></radialGradient></defs><g><g data-paper-data="{&quot;isPaintingLayer&quot;:true}" fill-rule="nonzero" stroke-linejoin="miter" stroke-miterlimit="10" stroke-dasharray="" stroke-dashoffset="0" style="mix-blend-mode: normal"><path d="" data-paper-data="{&quot;index&quot;:null}" fill="none" stroke="#000000" stroke-width="0.87853" stroke-linecap="round" transform="matrix(1,0,0,1,-207.06626,-109.64051)"/><path d="" data-paper-data="{&quot;index&quot;:null}" fill="none" stroke="#000000" stroke-width="0.87853" stroke-linecap="round" transform="matrix(1,0,0,1,-207.06626,-109.64051)"/><path d="M 22.2178 135.6302 C 22.2178 135.6302 19.0233 136.0888 19.1853 134.743 C 19.8359 129.3722 29.8475 98.2216 29.8475 98.2216 " data-paper-data="{&quot;index&quot;:null}" fill="none" stroke="#000000" stroke-width="2" stroke-linecap="round"/><path d="M 8.5894 130.6064 C 8.5894 130.6064 5.4305 130.6679 5.6881 129.3751 C 6.72 124.2164 20.9311 93.2734 20.9311 93.2734 " data-paper-data="{&quot;index&quot;:null}" fill="none" stroke="#000000" stroke-width="2" stroke-linecap="round"/><path d="M 22.7038 130.5147 C 23.9045 130.8027 25.1437 131.6061 26.1362 132.8559 C 27.1287 134.1057 27.688 135.567 27.7895 136.9186 C 27.891 138.2702 27.5352 139.5121 26.6978 140.3224 C 25.8604 141.1327 24.5763 141.4243 23.4977 141.0713 C 19.6709 138.0562 18.9961 136.6704 18.412 134.6673 C 18.1574 133.5126 18.6641 132.0759 19.5037 131.2636 C 20.3433 130.4512 21.5031 130.2267 22.7038 130.5147 Z " data-paper-data="{&quot;origRot&quot;:0,&quot;index&quot;:null}" fill="#000000" stroke="none" stroke-width="2" stroke-linecap="round"/><path d="M 9.6631 126.3667 C 10.8004 126.7573 11.9272 127.651 12.7734 128.9545 C 13.6197 130.2581 14.0264 131.7265 13.9995 133.0462 C 13.9725 134.3658 13.5125 135.5368 12.6256 136.2446 C 11.7387 136.9524 10.4669 137.1162 9.454 136.6739 C 6.0239 133.3963 5.4981 131.9903 5.1177 129.9944 C 4.978 128.8514 5.6024 127.5057 6.4915 126.796 C 7.3807 126.0864 8.5259 125.9762 9.6631 126.3668 Z " data-paper-data="{&quot;origRot&quot;:0,&quot;index&quot;:null}" fill="#000000" stroke="none" stroke-width="2" stroke-linecap="round"/><path d="M 28.9586 56.9813 C 31.7411 57.32 33.9382 60.2908 35.2397 64.8165 C 36.5419 69.3417 36.9485 75.4223 36.1502 81.9811 C 35.3518 88.5398 33.4984 94.3453 31.1487 98.4261 C 28.7995 102.5074 25.9539 104.8644 23.1714 104.5257 C 20.3888 104.187 18.1918 101.2162 16.8902 96.6905 C 15.588 92.1652 15.1814 86.0847 15.9798 79.5259 C 16.7781 72.9672 18.6315 67.1617 20.9812 63.0809 C 23.3304 58.9996 26.176 56.6426 28.9585 56.9813 Z " fill="#989898" stroke="#000000" stroke-width="2" stroke-linecap="butt"/><g data-paper-data="{&quot;index&quot;:null}" stroke-linecap="butt"><path d="M 22.2165 80.9857 L 24.776 59.9579 L 32.2687 60.8699 L 29.7091 81.8977 Z " stroke-width="2" fill="#544b2b" stroke="#000000"/><path d="M 30.4911 85.5494 C 30.158 88.2859 27.5614 90.221 24.6914 89.8717 C 21.8215 89.5223 19.7649 87.0208 20.098 84.2843 C 20.4311 81.5479 23.0277 79.6127 25.8976 79.962 C 28.7676 80.3114 30.8241 82.8129 30.4911 85.5494 Z " stroke-width="2" fill="#544b2b" stroke="#000000"/></g><path d="M 57.9496 12.8084 C 63.028 18.9612 65.6655 26.9259 64.6538 35.238 C 63.642 43.5501 59.1708 50.6494 52.7648 55.4044 C 46.3588 60.1593 38.0179 62.5701 29.2665 61.5049 C 20.5153 60.4397 12.9962 56.0983 7.9178 49.9456 C 2.8395 43.7927 0.202 35.8281 1.2137 27.516 C 2.2255 19.2038 6.6966 12.1045 13.1027 7.3496 C 19.5087 2.5946 27.8497 0.1839 36.601 1.2491 C 45.3523 2.3143 52.8714 6.6555 57.9496 12.8084 Z " data-paper-data="{&quot;index&quot;:null}" fill="url(#color-1-,0,0,1,-207.06626,-109.64051)" stroke="#000000" stroke-width="2" stroke-linecap="butt"/><path d="M 46.3836 22.3923 C 47.7001 22.5525 48.7365 23.9844 49.3474 26.1682 C 49.9583 28.3518 50.1436 31.2874 49.7581 34.455 C 49.3725 37.6226 48.4884 40.428 47.3715 42.4014 C 46.2546 44.3748 44.9049 45.5162 43.5884 45.356 C 42.2719 45.1957 41.2355 43.7638 40.6246 41.5802 C 40.0137 39.3964 39.8284 36.4609 40.2139 33.2933 C 40.5995 30.1257 41.4837 27.3203 42.6005 25.3469 C 43.7174 23.3735 45.0671 22.232 46.3836 22.3923 Z " data-paper-data="{&quot;index&quot;:null}" fill="#000000" stroke="none" stroke-width="2" stroke-linecap="butt"/><path d="M 26.2364 19.877 C 27.5529 20.0372 28.5893 21.4691 29.2002 23.6528 C 29.811 25.8365 29.9964 28.7721 29.6108 31.9397 C 29.2253 35.1073 28.3411 37.9126 27.2242 39.8861 C 26.1073 41.8594 24.7577 43.0009 23.4412 42.8406 C 22.1247 42.6804 21.0882 41.2485 20.4774 39.0648 C 19.8665 36.8811 19.6811 33.9455 20.0667 30.7779 C 20.4523 27.6104 21.3364 24.8049 22.4533 22.8316 C 23.5702 20.8581 24.9198 19.7167 26.2364 19.8769 Z " data-paper-data="{&quot;index&quot;:null}" fill="#000000" stroke="none" stroke-width="2" stroke-linecap="butt"/><path d="M 52.6545 12.2638 L 54.996 10.0715 " data-paper-data="{&quot;index&quot;:null}" fill="none" stroke="#000000" stroke-width="2" stroke-linecap="round"/><path d="M 10.8368 14.5312 L 8.6482 12.051 " data-paper-data="{&quot;index&quot;:null}" fill="none" stroke="#000000" stroke-width="2" stroke-linecap="round"/><path d="M 5.4591 26.8829 L 1.7411 25.6001 " data-paper-data="{&quot;index&quot;:null}" fill="none" stroke="#000000" stroke-width="2" stroke-linecap="round"/><path d="M 4.4588 44.195 L 7.7571 42.1059 " data-paper-data="{&quot;index&quot;:null}" fill="none" stroke="#000000" stroke-width="2" stroke-linecap="round"/><path d="M 16.0327 51.4151 L 13.1138 54.934 " data-paper-data="{&quot;index&quot;:null}" fill="none" stroke="#000000" stroke-width="2" stroke-linecap="round"/><path d="M 31.3001 57.7011 L 30.9018 60.9734 " data-paper-data="{&quot;index&quot;:null}" fill="none" stroke="#000000" stroke-width="2" stroke-linecap="round"/><path d="M 46.145 58.6935 L 44.6677 54.9162 " data-paper-data="{&quot;index&quot;:null}" fill="none" stroke="#000000" stroke-width="2" stroke-linecap="round"/><path d="M 58.9302 49.1783 L 56.5021 46.3922 " data-paper-data="{&quot;index&quot;:null}" fill="none" stroke="#000000" stroke-width="2" stroke-linecap="round"/><path d="M 63.506 22.8793 L 60.3072 24.1503 " data-paper-data="{&quot;index&quot;:null}" fill="none" stroke="#000000" stroke-width="2" stroke-linecap="round"/><path d="M 17.5831 47.3603 C 17.5831 47.3603 20.3892 47.5101 21.3753 47.9375 C 22.4438 48.4006 23.7667 50.0404 23.7667 50.0404 " data-paper-data="{&quot;index&quot;:null}" fill="none" stroke="#000000" stroke-width="2" stroke-linecap="round"/><g data-paper-data="{&quot;index&quot;:null}"><path d="M 35.7968 28.8931 L 49.4938 19.4039 " fill="none" stroke-linecap="round" stroke-width="2" stroke="#000000"/><path d="M 49.7009 18.683 " fill="none" stroke-linecap="round" stroke-width="2" stroke="#000000"/><path d="M 52.659 17.5549 L 49.4798 21.8945 C 49.4798 21.8945 50.7729 19.2924 50.4128 18.7213 C 50.0809 18.1947 47.397 18.5906 47.397 18.5906 Z " fill="#000000" stroke-linecap="butt" stroke-width="2" stroke="#000000"/></g><g data-paper-data="{&quot;index&quot;:null}"><path d="M 21.8177 15.2687 L 35.0734 28.7952 " fill="none" stroke-linecap="round" stroke-width="2" stroke="#000000"/><path d="M 22.7448 15.3849 " fill="none" stroke-linecap="round" stroke-width="2" stroke="#000000"/><path d="M 24.9504 16.1293 C 24.9504 16.1293 22.4902 14.8478 22.0012 15.2562 C 21.4919 15.6817 21.9529 18.6331 21.9529 18.6331 L 20.2616 13.5263 Z " fill="#000000" stroke-linecap="butt" stroke-width="2" stroke="#000000"/></g><path d="M 35.5503 62.2613 C 35.5503 62.2613 40.1796 68.6187 40.389 76.5009 C 40.6303 85.5846 22.0393 76.235 15.6464 74.6804 C 15.1009 74.5478 7.9578 77.5468 7.9578 77.5468 " data-paper-data="{&quot;index&quot;:null}" fill="none" stroke="#000000" stroke-width="2" stroke-linecap="round"/><path d="M 41.1351 81.1717 C 41.1351 81.1717 36.0991 76.306 33.7197 76.7873 C 25.8806 78.373 8.5268 80.7418 10.6358 73.0858 C 12.73 65.4839 21.0679 60.6108 21.0679 60.6108 " fill="none" stroke="#000000" stroke-width="2" stroke-linecap="round"/><path d="M 59.6505 37.0746 L 64.0281 38.0126 " fill="none" stroke="#000000" stroke-width="2" stroke-linecap="round"/><path d="M 20.8778 3.3048 L 22.7539 7.3697 " fill="none" stroke="#000000" stroke-width="2" stroke-linecap="round"/><path d="M 38.0754 1.4287 L 37.45 7.057 " fill="none" stroke="#000000" stroke-width="2" stroke-linecap="round"/></g></g></svg>