<svg version="1.1" xmlns="http://www.w3.org/2000/svg" xmlns:xlink="http://www.w3.org/1999/xlink" width="452.83279" height="345.42556" viewBox="0,0,452.83279,345.42556"><g transform="translate(-1.32839,-49.50002)"><g data-paper-data="{&quot;isPaintingLayer&quot;:true}" fill-rule="nonzero" stroke="none" stroke-width="0.5" stroke-linecap="butt" stroke-linejoin="miter" stroke-miterlimit="10" stroke-dasharray="" stroke-dashoffset="0" style="mix-blend-mode: normal"><path d="M134.58914,259.2872c2.86906,0.92375 5.82554,1.63065 8.80186,1.803c0.34536,-0.67998 1.08476,-1.51161 2.59838,-1.25934c2.46598,0.411 2.05499,2.87698 2.05499,2.87698l-0.76498,3.0421c-1.40985,1.93111 -2.88728,4.63166 -5.66259,5.01911c-4.25658,0.59424 -7.60977,-3.51135 -10.1485,-6.04682c-0.93436,-0.93316 -2.13148,-1.79141 -3.14995,-2.78731c-0.41217,-0.19455 -0.82324,-0.39401 -1.23334,-0.59797l-0.08015,-0.98527c-0.00109,-0.00174 -0.00217,-0.00348 -0.00326,-0.00522l-0.4307,0.16151l-0.97977,-2.61272c-0.11572,-0.28795 -0.17941,-0.60242 -0.17941,-0.93176c0,-0.72223 0.30626,-1.37293 0.79599,-1.82931c0.20398,-0.69672 0.73209,-1.48532 2.06059,-1.65138c2.48069,-0.31009 2.79078,2.17061 2.79078,2.17061c0.02857,0.38804 0.09983,0.7641 0.20722,1.12914l1.07985,1.07985l0.82738,0.11324c0,0 0.98587,0.39435 1.41561,1.31155zM140.71661,265.83117c-0.23988,-0.03281 -0.47906,-0.06819 -0.71757,-0.10608c0.23276,0.06956 0.47174,0.10781 0.71757,0.10608z" fill="#2a004c"/><path d="M144.6272,250.64552c-1.01535,-2.28453 1.26918,-3.29988 1.26918,-3.29988l3.64933,-1.52187c2.48351,0.24986 4.94801,0.74154 7.35714,1.39449c0,0 2.41191,0.65779 1.75412,3.0697c-0.65779,2.41191 -3.0697,1.75412 -3.0697,1.75412c-1.75497,-0.4819 -3.516,-0.96322 -5.30952,-1.27218l-2.35067,1.1448c0,0 -2.28453,1.01535 -3.29988,-1.26918z" fill="#2a004c"/><path d="M128.85687,232.88121c-0.26075,0.24028 -0.6032,0.46772 -1.02733,0.57193c-0.65327,0.39425 -1.83609,0.79429 -3.01891,-0.38853c-1.76777,-1.76777 0,-3.53553 0,-3.53553l0.5561,-0.43012c1.23853,-2.83575 0.68678,-4.78258 1.06374,-8.10757c0.29312,-2.58549 1.84219,-5.92094 2.87174,-8.0553c1.1128,-2.30696 3.04726,-4.11821 4.61366,-6.14473c3.04792,-3.94324 4.36389,-9.00224 7.32205,-12.98492c4.75365,-6.40001 11.01811,-12.3905 16.64187,-18.01056c0.83014,-0.71128 1.66028,-1.42257 2.49042,-2.13385l0.11189,-0.03336l-0.02344,-0.03282l2.30966,-1.64976c0.41378,-0.3034 0.92435,-0.48258 1.47677,-0.48258c1.38071,0 2.5,1.11929 2.5,2.5c0,0.38813 -0.08845,0.7556 -0.24629,1.08336l-1.64446,3.61781l-0.02133,-0.0097c-0.01345,0.04588 -0.02717,0.09169 -0.04118,0.13744c-0.28567,0.93328 -4.47502,7.0601 -4.78531,7.53563c-3.00012,4.59766 -5.66916,9.39094 -7.35407,14.64304c-1.47795,4.60698 3.47211,6.4836 4.97698,10.57415c1.28303,3.48753 -0.53264,7.0252 -2.27918,9.76671c-3.78056,5.93425 -10.55688,9.32465 -17.47874,10.13432c-3.05792,0.38224 -6.13679,0.4201 -9.01461,1.43494z" fill="#2a004c"/><path d="M170.26209,185.28552c-0.84999,-1.73896 0.8163,-2.98868 0.8163,-2.98868l1.21906,-0.58209c0.31473,-0.29068 0.74894,-0.56311 1.30263,-0.62199l0.58773,-0.28063c1.20578,0.16105 2.50649,-0.01267 3.61735,0.48314c6.12565,2.73404 5.83791,12.04983 -0.31736,14.66364c-2.25202,0.95631 -6.87867,0.71682 -8.36593,-1.67554c-0.89436,-1.43862 -0.16679,-3.39552 -0.00644,-5.08187c0.14557,-1.5309 0.58005,-2.72573 1.14667,-3.91598z" fill="#2a004c"/><path d="M239.63642,168.23441c0.84944,0.21236 1.69887,0.42472 2.54831,0.63708c11.68642,3.00352 17.47241,12.51681 16.50807,24.30034c-0.15498,1.89376 -0.12327,3.86045 -0.76585,5.64859c-1.87969,5.23069 -7.40081,10.45442 -10.71582,14.93198c-2.79119,3.77005 -5.11203,8.62693 -9.68543,10.52468c-6.72849,2.79201 -15.58968,-0.91717 -22.07394,-2.8314c-4.63862,-1.77496 -9.10124,-3.86782 -13.15332,-6.81214c-3.76178,-2.73338 -5.66843,-4.44611 -7.14541,-9.06369c-0.37685,-1.17818 -0.1171,-2.47406 -0.07248,-3.71024c0.20838,-5.77305 1.20633,-9.90678 5.09517,-14.33849c8.79048,-10.01762 23.86164,-17.27344 36.36393,-20.95602c0,0 2.38258,-0.70076 3.09678,1.66931z" fill="#2a004c"/><path d="M271.59269,126.46351h1.98571c5.05154,0.07363 11.69014,1.85839 12.81189,7.83995c0.24806,1.32277 -0.33822,2.69951 -0.83553,3.95009c-1.53275,3.85443 -5.12962,8.36665 -8.55047,10.76345c-4.01843,2.81548 -9.16278,5.78434 -14.09406,6.42439c-4.93101,0.64002 -10.31801,-0.05011 -15.29462,0.02184c-5.1091,0.07387 -10.22527,0.84278 -15.20526,1.94718c-1.58526,0.34942 -3.18884,0.62415 -4.75577,1.04825c-2.76247,0.74768 -7.98418,3.8382 -10.60744,-0.30389c-0.89784,-1.41767 0.37392,-3.36704 0.94637,-4.94444c1.56013,-4.29896 5.50238,-7.98099 9.09438,-10.58724c12.76205,-9.25982 27.54051,-13.08107 42.61485,-16.43339c0,0 1.02177,-0.22706 1.88995,0.2738z" fill="#2a004c"/><path d="M276.17491,159.14034c1.08234,-1.83934 2.13336,-3.21154 4.84116,-4.51088c1.6793,-0.80581 6.13996,0.24558 7.69776,0.54506c4.32571,0.83161 9.2019,2.72525 12.32773,6.05043c5.9639,6.34427 9.18445,18.37407 6.20502,26.63213c-1.15501,3.20133 -3.85009,5.67995 -6.38073,7.74432c-1.5112,1.23276 -2.94534,2.70775 -4.77654,3.37866c-1.80944,0.66294 -3.8407,0.32138 -5.76105,0.48208c-6.92743,-0.02493 -12.30219,-3.09537 -18.07367,-6.71121c-5.11828,-3.20661 -10.49373,-7.37965 -12.68757,-13.25337c-4.44751,-11.90761 6.0403,-19.8416 16.60789,-20.3572z" fill="#2a004c"/><path d="M406.0473,153.73994c1.13471,0.03245 1.90488,0.99517 1.90488,0.99517l0.70616,1.10841c0.87486,0.54698 1.74973,1.09396 2.62459,1.64094c6.44291,3.69004 12.98785,7.39619 18.65725,12.2305c7.94207,6.77222 15.47733,17.34013 19.0935,27.11068c1.68621,4.55597 1.90029,9.88109 2.27122,14.6483c0.33726,4.33449 0.87331,8.65294 0.82972,12.99995c-0.14052,11.80631 -2.73171,21.83051 -6.99237,32.73572c-2.40238,6.14894 -5.89784,12.07814 -10.81788,16.62528c-3.30206,3.05179 -7.63418,5.14764 -11.2751,7.74201c-4.13516,2.94655 -7.75714,6.21255 -13.05838,6.8655c-6.48825,0.79916 -13.64875,-0.27973 -19.95025,-1.71836c-8.4004,-1.92875 -16.59644,-4.20516 -24.26379,-8.24685c-13.47083,-7.10088 -22.22365,-24.08044 -24.25269,-38.83359c-1.05813,-7.69368 0.30917,-15.92365 0.30917,-23.68009c0,-3.96838 1.02556,-9.63414 -0.78629,-13.32195c-3.79941,-7.7333 -9.24785,-14.63152 -12.38508,-22.79285c-2.5867,-6.72913 -1.08847,-14.64474 0.94859,-21.28709c1.18922,-3.87776 1.96679,-8.73636 3.80618,-12.35466c1.89202,-3.72181 4.75228,-5.77026 8.02388,-8.08885c13.8131,-5.97798 31.50694,-4.63641 45.288,0.83682c6.31647,2.50862 13.59018,5.58542 17.71339,11.3323c0.74524,1.0387 1.2188,2.22265 1.60528,3.4527z" fill="#2a004c"/><path d="M452.04758,282.82982c1.52809,3.04333 2.09607,5.96245 2.1136,10.29938c-0.93483,7.01235 -4.16874,15.46771 -11.01059,19.0538c-2.41962,1.26822 -6.0582,1.39612 -8.81725,1.2805c-1.77425,-0.07435 -3.82492,0.59366 -5.31433,-0.37337c-4.42578,-2.87353 -3.28332,-10.71373 -2.09274,-14.80192c1.52394,-5.23286 4.35766,-8.96995 8.0637,-12.84927c2.00818,-2.10208 5.06282,-5.42842 7.92511,-6.52645c0.11959,-0.04588 0.7512,-0.07482 1.59213,-0.0928c0.0855,-0.61747 0.43204,-1.28756 1.37477,-1.75892c2.23607,-1.11803 3.3541,1.11803 3.3541,1.11803l0.1316,0.33161c0.06816,0.09551 0.13546,0.1904 0.20189,0.2847c0.23893,0.00094 0.39302,0.00173 0.43044,0.00173c0,0 2.5,0 2.5,2.5c0,0.67846 -0.18412,1.1728 -0.45243,1.53298z" fill="#2a004c"/><path d="M327.17062,239.0565l0.35293,1.58829c5.59409,7.03753 10.20451,15.34383 12.55408,23.65745c1.30738,4.62597 0.80951,9.70518 0.70704,14.44451c-0.28919,13.37536 -4.30201,26.69688 -11.10008,38.19701c-2.69623,4.55135 -5.21226,9.33312 -9.4437,12.70323c-3.66805,2.9214 -8.44108,4.83889 -12.51878,7.13674c-6.84607,3.85787 -14.17673,8.01288 -21.63739,10.56419c-11.6229,3.97467 -27.41485,1.62547 -38.24941,-3.83896c-2.62591,-1.32438 -4.95298,-3.17262 -7.42558,-4.76499c-4.1658,-3.67688 -7.81806,-6.99267 -10.59017,-11.89084c-4.59437,-8.118 -6.00841,-15.32034 -5.98621,-24.55629c0.01034,-4.30008 -0.4147,-5.51221 1.30321,-9.49188c2.68852,-6.22818 8.10737,-11.48661 12.51245,-16.52822c6.43433,-7.36409 13.0878,-14.2794 19.77036,-21.38565c9.84112,-10.44604 21.99455,-20.18885 34.96573,-26.39925c6.47766,-3.1014 15.72434,-6.18596 22.84975,-3.52681c2.99935,1.11934 5.35384,3.73415 7.72549,5.767c0,0 1.05181,0.90155 0.91839,2.14539c0.96406,2.14799 2.11641,4.12194 3.29191,6.17907z" fill="#2a004c"/><path d="M372.89978,311.54372c0.38163,-1.43937 2.02257,-1.71286 2.02257,-1.71286l2.411,-0.36735c5.63304,0 11.23022,-0.02891 16.78819,1.04173c3.91478,0.75411 4.49594,1.42335 8.36196,2.76214c5.41074,1.87372 10.83318,3.38212 16.14497,5.55775c2.86617,2.4091 7.12095,4.6747 8.44629,8.42038c3.42277,9.67343 -1.59415,21.035 -7.13422,28.76909c-2.71117,3.78486 -2.60838,4.48148 -6.29286,6.7422c-3.70698,2.27452 -7.76698,2.81726 -12.00413,3.4739c-9.82857,1.52315 -20.3438,2.25623 -29.96984,-0.63699c-7.39502,-2.26563 -13.87274,-5.51255 -17.05012,-13.18727c-1.28009,-3.09196 -0.54623,-8.09692 -0.01995,-11.3264c1.38017,-8.46928 4.58543,-15.1433 9.99382,-21.73617c2.02624,-2.47 5.06576,-6.03651 7.91368,-7.59729c0.12879,-0.07058 0.25835,-0.13818 0.38865,-0.20288z" fill="#2a004c"/><path d="M328.47797,341.57171c4.75488,1.06982 8.94038,2.41786 12.40158,6.41003c7.64269,8.81515 3.65862,22.98949 -0.98519,32.11641c-1.58464,3.11443 -2.34566,4.86002 -5.25661,7.42088c-7.40266,6.51238 -19.3134,8.94378 -28.54183,6.43862c-5.50929,-2.60354 -13.78967,-6.50774 -14.57133,-13.64443c-0.55281,-5.04721 1.97491,-10.02068 4.2839,-14.2194c1.04962,-1.90866 1.62406,-4.05192 2.65177,-5.97246c2.60105,-4.86071 6.54147,-8.87842 10.47433,-12.62726c2.32005,-2.21149 5.33409,-5.57382 8.36271,-6.80581c3.52662,-1.43456 5.32381,-1.21037 8.7027,-1.22478c0,0 2.23145,0 2.47796,2.1082z" fill="#2a004c"/><path d="M201.54989,344.23409c-0.21478,-0.12043 -0.43288,-0.28471 -0.65098,-0.50281c-1.76777,-1.76777 0,-3.53553 0,-3.53553l0.51388,-0.49936c5.01977,-5.71902 13.02452,-4.17246 19.99001,-3.45537c1.29682,0.71912 2.76664,1.18996 3.89047,2.15737c4.49367,3.8682 4.2253,8.58421 4.20674,13.89847c-0.00921,2.63612 0.2249,5.43846 -1.47189,7.79511c-3.14048,4.36177 -12.17221,4.92901 -16.84954,4.22784c-4.52648,-0.67856 -7.15587,-1.50054 -10.16628,-5.17337c-3.35074,-4.08804 -2.14748,-10.44522 0.5376,-14.91233z" fill="#2a004c"/><path d="M3.82839,205.32702c-2.5,0 -2.5,-2.5 -2.5,-2.5l0.12829,-3.79057c2.97767,-4.30634 4.30427,-7.87917 9.44323,-10.03062c0,0 2.32119,-0.92848 3.24967,1.39272c0.92848,2.32119 -1.39272,3.24967 -1.39272,3.24967c-3.75034,1.39965 -4.14639,4.1339 -6.55677,6.96938l0.12829,2.20943c0,0 0,2.5 -2.5,2.5z" fill="#e0baff"/><path d="M169.82839,49.50002c2.5,0 2.5,2.5 2.5,2.5v2.5c-0.03797,3.99916 -1,7.44797 -1,11.5c0,0 0,2.5 -2.5,2.5c-2.5,0 -2.5,-2.5 -2.5,-2.5c0,-4.01166 1.04835,-7.60615 1,-11.5v-2.5c0,0 0,-2.5 2.5,-2.5z" fill="#e0baff"/><path d="M216.59616,145.73225c1.76777,1.76777 0,3.53553 0,3.53553l-1.7365,1.17513c-2.24863,0.46198 -4.31692,1.61608 -6.31716,2.74249c0,0 -2.18539,1.21411 -3.3995,-0.97129c-1.21411,-2.18539 0.97129,-3.3995 0.97129,-3.3995c2.33649,-1.28283 4.75877,-2.53366 7.34398,-3.17693l-0.39764,0.09455c0,0 1.76777,-1.76777 3.53553,0z" fill="#e0baff"/><path d="M56.88341,294.16093c-0.79156,1.97888 -2.77044,1.18733 -2.77044,1.18733l-2.28685,-0.92207c-3.11108,-1.87996 -5.19086,-4.15894 -7.51048,-6.93887c0,0 -1.36444,-1.63732 0.27289,-3.00176c1.63732,-1.36444 3.00176,0.27289 3.00176,0.27289c1.90169,2.28517 3.55991,4.32256 6.12998,5.84907l1.9758,0.78299c0,0 1.97888,0.79156 1.18733,2.77044z" fill="#e0baff"/><path d="M182.75938,364.47992c0.36304,-0.28313 0.86764,-0.4799 1.56901,-0.4799c2.5,0 2.5,2.5 2.5,2.5v1.5c0,2.79005 -0.0305,4.27686 -0.49791,5.83368l0.4639,0.07732l-0.49324,2.95946c-0.179,1.20503 -1.21791,2.12954 -2.47274,2.12954c-1.25484,0 -2.29374,-0.92451 -2.47274,-2.12954l-0.45976,-2.75855c-2.46317,-6.0956 -4.3968,-12.63317 -5.99286,-19.00557c0,0 -0.60634,-2.42536 1.81902,-3.0317c2.42536,-0.60634 3.0317,1.81902 3.0317,1.81902c0.87907,3.52312 1.87876,7.07871 3.00563,10.58624z" fill="#e0baff"/><path d="M188.32839,254.00002c0,-1.38071 1.11929,-2.5 2.5,-2.5c1.38071,0 2.5,1.11929 2.5,2.5c0,1.38071 -1.11929,2.5 -2.5,2.5c-1.38071,0 -2.5,-1.11929 -2.5,-2.5z" fill="#e0baff"/></g></g></svg>