<svg version="1.1" xmlns="http://www.w3.org/2000/svg" xmlns:xlink="http://www.w3.org/1999/xlink" width="550.25806" height="424.70968" viewBox="0,0,550.25806,424.70968"><defs><linearGradient x1="34.66218" y1="73.10519" x2="74.27961" y2="73.10519" gradientUnits="userSpaceOnUse" id="color-1"><stop offset="0" stop-color="#8cfffb"/><stop offset="1" stop-color="#ff8ca2"/></linearGradient><linearGradient x1="18.35549" y1="73.10326" x2="90.58568" y2="73.10326" gradientTransform="translate(-102.70991,-183.76168) scale(5.59534,2.34951)" gradientUnits="userSpaceOnUse" id="color-2"><stop offset="0" stop-color="#2d6fc5"/><stop offset="1" stop-color="#c42d7b"/></linearGradient><linearGradient x1="378.30214" y1="274.15468" x2="378.30214" y2="279.38613" gradientUnits="userSpaceOnUse" id="color-3"><stop offset="0" stop-color="#1f007b"/><stop offset="1" stop-color="#000304"/></linearGradient><linearGradient x1="386.17745" y1="274.26718" x2="386.17745" y2="279.49864" gradientUnits="userSpaceOnUse" id="color-4"><stop offset="0" stop-color="#1f007b"/><stop offset="1" stop-color="#000304"/></linearGradient></defs><g transform="translate(40.54838,34.61288)"><g data-paper-data="{&quot;isPaintingLayer&quot;:true}" fill-rule="nonzero" stroke-linejoin="miter" stroke-miterlimit="10" stroke-dasharray="" stroke-dashoffset="0" style="mix-blend-mode: normal"><path d="M-39.54838,389.0968v-422.70968h548.25806v422.70968z" fill="#f5f5f5" stroke="#000000" stroke-width="2" stroke-linecap="butt"/><path d="M9.10301,261.9917v-253.23621h222.06868v253.23621z" fill="#f5f5f5" stroke="#8e8e8e" stroke-width="3.5" stroke-linecap="butt"/><g stroke="none" stroke-linecap="butt"><path d="M75.38528,91.27755c-10.03632,0 -18.17236,-8.13604 -18.17236,-18.17236c0,-10.03632 8.13604,-18.17236 18.17236,-18.17236c10.03632,0 18.17236,8.13604 18.17236,18.17236c0,10.03632 -8.13604,18.17236 -18.17236,18.17236z" data-paper-data="{&quot;index&quot;:null}" fill="#ff8ca2" stroke-width="0"/><path d="M15.38415,73.10519c0,-10.03632 8.13604,-18.17236 18.17236,-18.17236c10.03632,0 18.17236,8.13604 18.17236,18.17236c0,10.03632 -8.13604,18.17236 -18.17236,18.17236c-10.03632,0 -18.17236,-8.13604 -18.17236,-18.17236z" fill="#8cfffb" stroke-width="0"/><path d="M34.66218,91.20379v-36.19726h39.61743v36.19726z" fill="url(#color-1)" stroke-width="0"/><text transform="translate(18.35632,78.21264) scale(0.17872,0.42562)" font-size="40" xml:space="preserve" fill="url(#color-2)" fill-rule="nonzero" stroke="none" stroke-width="1" stroke-linecap="butt" stroke-linejoin="miter" stroke-miterlimit="10" stroke-dasharray="" stroke-dashoffset="0" font-family="&quot;ヒラギノ角ゴ Pro W3&quot;, &quot;Hiragino Kaku Gothic Pro&quot;, Osaka, &quot;メイリオ&quot;, Meiryo, &quot;ＭＳ Ｐゴシック&quot;, &quot;MS PGothic&quot;" font-weight="normal" text-anchor="start" style="mix-blend-mode: normal"><tspan x="0" dy="0">Game Dev/Animator</tspan></text></g><text transform="translate(17.82641,48.94723) scale(0.33747,0.33747)" font-size="40" xml:space="preserve" fill="#8e8e8e" fill-rule="nonzero" stroke="none" stroke-width="1" stroke-linecap="butt" stroke-linejoin="miter" stroke-miterlimit="10" stroke-dasharray="" stroke-dashoffset="0" font-family="&quot;ヒラギノ角ゴ Pro W3&quot;, &quot;Hiragino Kaku Gothic Pro&quot;, Osaka, &quot;メイリオ&quot;, Meiryo, &quot;ＭＳ Ｐゴシック&quot;, &quot;MS PGothic&quot;" font-weight="normal" text-anchor="start" style="mix-blend-mode: normal"><tspan x="0" dy="0">Joined: 30 December 2014</tspan></text><text transform="translate(15.20276,106.15928) scale(0.2979,0.2979)" font-size="40" xml:space="preserve" fill="#8e8e8e" fill-rule="nonzero" stroke="none" stroke-width="1" stroke-linecap="butt" stroke-linejoin="miter" stroke-miterlimit="10" stroke-dasharray="" stroke-dashoffset="0" font-family="&quot;ヒラギノ角ゴ Pro W3&quot;, &quot;Hiragino Kaku Gothic Pro&quot;, Osaka, &quot;メイリオ&quot;, Meiryo, &quot;ＭＳ Ｐゴシック&quot;, &quot;MS PGothic&quot;" font-weight="normal" text-anchor="start" style="mix-blend-mode: normal"><tspan x="0" dy="0">Notable Projects:</tspan></text><text transform="translate(15.20276,130.19153) scale(0.30922,0.43347)" font-size="40" xml:space="preserve" fill="#8e8e8e" fill-rule="nonzero" stroke="none" stroke-width="1" stroke-linecap="butt" stroke-linejoin="miter" stroke-miterlimit="10" stroke-dasharray="" stroke-dashoffset="0" font-family="&quot;ヒラギノ角ゴ Pro W3&quot;, &quot;Hiragino Kaku Gothic Pro&quot;, Osaka, &quot;メイリオ&quot;, Meiryo, &quot;ＭＳ Ｐゴシック&quot;, &quot;MS PGothic&quot;" font-weight="normal" text-anchor="start" style="mix-blend-mode: normal"><tspan x="0" dy="0">Chirpy the Penguin (April 2018)</tspan><tspan x="0" dy="46.150000000000006px">Super Scratch Smash (Aug 2020)</tspan></text><text transform="translate(13.97295,178.99711) scale(0.29708,0.29708)" font-size="40" xml:space="preserve" fill="#8e8e8e" fill-rule="nonzero" stroke="none" stroke-width="1" stroke-linecap="butt" stroke-linejoin="miter" stroke-miterlimit="10" stroke-dasharray="" stroke-dashoffset="0" font-family="&quot;ヒラギノ角ゴ Pro W3&quot;, &quot;Hiragino Kaku Gothic Pro&quot;, Osaka, &quot;メイリオ&quot;, Meiryo, &quot;ＭＳ Ｐゴシック&quot;, &quot;MS PGothic&quot;" font-weight="normal" text-anchor="start" style="mix-blend-mode: normal"><tspan x="0" dy="0">It's the guy who made this project,</tspan><tspan x="0" dy="46.150000000000006px">and wrote this bio! I'm known for</tspan><tspan x="0" dy="46.150000000000006px">games and filler animations.</tspan></text><text transform="translate(7.69514,344.82012) scale(1.4788,1.4788)" font-size="40" xml:space="preserve" fill="#8e8e8e" fill-rule="nonzero" stroke="none" stroke-width="1" stroke-linecap="butt" stroke-linejoin="miter" stroke-miterlimit="10" stroke-dasharray="" stroke-dashoffset="0" font-family="&quot;ヒラギノ角ゴ Pro W3&quot;, &quot;Hiragino Kaku Gothic Pro&quot;, Osaka, &quot;メイリオ&quot;, Meiryo, &quot;ＭＳ Ｐゴシック&quot;, &quot;MS PGothic&quot;" font-weight="normal" text-anchor="start" style="mix-blend-mode: normal"><tspan x="0" dy="0">09</tspan></text><text transform="translate(15.43462,35.42794) scale(0.13422,0.13422)" font-size="40" xml:space="preserve" fill="#8e8e8e" fill-rule="nonzero" stroke="none" stroke-width="1" stroke-linecap="butt" stroke-linejoin="miter" stroke-miterlimit="10" stroke-dasharray="" stroke-dashoffset="0" font-family="&quot;ヒラギノ角ゴ Pro W3&quot;, &quot;Hiragino Kaku Gothic Pro&quot;, Osaka, &quot;メイリオ&quot;, Meiryo, &quot;ＭＳ Ｐゴシック&quot;, &quot;MS PGothic&quot;" font-weight="normal" text-anchor="start" style="mix-blend-mode: normal"><tspan x="0" dy="0">@The_Updator</tspan></text><text transform="translate(16.61026,29.32808) scale(0.50346,0.50346)" font-size="40" xml:space="preserve" fill="#8e8e8e" fill-rule="nonzero" stroke="none" stroke-width="1" stroke-linecap="butt" stroke-linejoin="miter" stroke-miterlimit="10" stroke-dasharray="" stroke-dashoffset="0" font-family="&quot;ヒラギノ角ゴ Pro W3&quot;, &quot;Hiragino Kaku Gothic Pro&quot;, Osaka, &quot;メイリオ&quot;, Meiryo, &quot;ＭＳ Ｐゴシック&quot;, &quot;MS PGothic&quot;" font-weight="normal" text-anchor="start" style="mix-blend-mode: normal"><tspan x="0" dy="0">Chirpy</tspan></text><g stroke-linecap="butt"><text transform="translate(257.05438,104.77764) scale(0.61121,0.61121)" font-size="40" xml:space="preserve" fill="#8e8e8e" fill-rule="nonzero" stroke="none" stroke-width="1" stroke-linecap="butt" stroke-linejoin="miter" stroke-miterlimit="10" stroke-dasharray="" stroke-dashoffset="0" font-family="&quot;ヒラギノ角ゴ Pro W3&quot;, &quot;Hiragino Kaku Gothic Pro&quot;, Osaka, &quot;メイリオ&quot;, Meiryo, &quot;ＭＳ Ｐゴシック&quot;, &quot;MS PGothic&quot;" font-weight="normal" text-anchor="start" style="mix-blend-mode: normal"><tspan x="0" dy="0">2018</tspan></text><path d="M249.94926,123.02129v-118.51155h228.33349v118.51155z" fill="none" stroke="#8e8e8e" stroke-width="3.5"/></g><g stroke-linecap="butt"><text transform="translate(257.05438,223.3354) scale(0.61121,0.61121)" font-size="40" xml:space="preserve" fill="#8e8e8e" fill-rule="nonzero" stroke="none" stroke-width="1" stroke-linecap="butt" stroke-linejoin="miter" stroke-miterlimit="10" stroke-dasharray="" stroke-dashoffset="0" font-family="&quot;ヒラギノ角ゴ Pro W3&quot;, &quot;Hiragino Kaku Gothic Pro&quot;, Osaka, &quot;メイリオ&quot;, Meiryo, &quot;ＭＳ Ｐゴシック&quot;, &quot;MS PGothic&quot;" font-weight="normal" text-anchor="start" style="mix-blend-mode: normal"><tspan x="0" dy="0">2019</tspan></text><path d="M249.94926,241.57906v-118.51155h228.33349v118.51155z" fill="none" stroke="#8e8e8e" stroke-width="3.5"/></g><g stroke-linecap="butt"><text transform="translate(257.05438,341.89318) scale(0.61121,0.61121)" font-size="40" xml:space="preserve" fill="#8e8e8e" fill-rule="nonzero" stroke="none" stroke-width="1" stroke-linecap="butt" stroke-linejoin="miter" stroke-miterlimit="10" stroke-dasharray="" stroke-dashoffset="0" font-family="&quot;ヒラギノ角ゴ Pro W3&quot;, &quot;Hiragino Kaku Gothic Pro&quot;, Osaka, &quot;メイリオ&quot;, Meiryo, &quot;ＭＳ Ｐゴシック&quot;, &quot;MS PGothic&quot;" font-weight="normal" text-anchor="start" style="mix-blend-mode: normal"><tspan x="0" dy="0">2020</tspan></text><path d="M249.94926,360.13683v-118.51155h228.33349v118.51155z" fill="none" stroke="#8e8e8e" stroke-width="3.5"/></g><g stroke-width="1.5"><g><path d="M388.24995,79.36543l9.6444,-7.51653l5.58373,7.16444l-9.6444,7.51653z" fill="#330187" stroke="#28006a" stroke-linecap="butt"/><path d="M390.68561,51.15113l1.12263,14.69041l8.12686,7.62909l-12.38366,7.20036l-6.09806,-12.31001l-0.9017,-17.99737z" fill="#00ffff" stroke="#01e7d8" stroke-linecap="round"/><path d="M393.99557,87.31908c-1.16281,0.44473 -2.39192,-2.06751 -1.92203,-3.21753c0.71388,-1.74295 3.14772,-2.10677 4.56843,-3.24911c1.25182,-0.84265 2.01112,-2.45306 3.44692,-2.7039c1.27202,-0.21975 4.49821,0.4142 3.82856,1.529c-2.3588,3.44335 -6.08367,6.16129 -9.92186,7.64153z" fill="#ffffff" stroke="#ffffff" stroke-linecap="round"/></g><g stroke-linecap="round"><path d="M394.25745,100.48397l-1.57212,16.24519l-12.92628,0.69872l2.62019,-16.24519l-3.84295,-22.00962h10.48077z" fill="#330187" stroke="#28006a"/><path d="M392.86002,117.07853l-13.79968,0.8734l2.27083,-6.98718l1.92147,2.44551l4.01763,-3.14423l0.8734,2.27083l5.58974,-3.14423z" fill="#ff9400" stroke="#ff9400"/></g><g stroke-linecap="round"><path d="M389.57604,101.53205l-1.57212,16.24519l-12.92628,0.69872l2.62019,-16.24519l-3.84295,-22.00962h10.48077z" fill="#330187" stroke="#28006a"/><path d="M388.17861,118.1266l-13.79968,0.8734l2.27083,-6.98718l1.92147,2.44551l4.01763,-3.14423l0.8734,2.27083l5.58974,-3.14423z" fill="#ff9400" stroke="#ff9400"/></g><path d="M360.40457,42.66506c3.15401,-0.04681 7.56222,0.73924 8.73397,3.66827c1.24372,3.10999 -0.91322,7.29881 -3.49359,9.43269c-4.40891,3.64172 -11.53723,9.26849 -15.54647,6.91731c-3.79264,-2.22332 -2.03397,-11.31015 0.52404,-16.07051c1.51622,-3.15262 6.08723,-3.89256 8.90865,-3.77308z" fill="#01c0b4" stroke="#00ffff" stroke-linecap="round"/><path d="M369.4879,52.97115h21.3109l0.17468,28.05353l-21.66026,0.17468z" fill="#00ffff" stroke="#01e7d8" stroke-linecap="round"/><g><path d="M364.18708,80.99994l11.22882,-4.84002l3.59546,8.34143l-11.22889,4.84002z" fill="#330187" stroke="#28006a" stroke-linecap="butt"/><path d="M373.68021,54.29872l-2.62019,14.4984l5.9391,9.43269l-13.79968,3.84295l-2.79487,-13.45032l3.66827,-17.64263z" fill="#00ffff" stroke="#01e7d8" stroke-linecap="round"/><path d="M367.74111,90.10801c-1.23743,0.13695 -1.79291,-2.60412 -1.04808,-3.5984c1.13053,-1.50644 3.57744,-1.24442 5.24038,-1.99135c1.42399,-0.49958 2.56499,-1.86628 4.01763,-1.74679c1.28634,0.1083 4.24821,1.53578 3.31891,2.44551c-3.15122,2.73688 -7.44135,4.42708 -11.52885,4.89103z" fill="#ffffff" stroke="#ffffff" stroke-linecap="round"/></g><g><path d="M357.08566,10h43.32051v43.32051h-43.32051z" fill="#330187" stroke="#28006a" stroke-linecap="butt"/><path d="M373.68021,21.35417c1.97597,0 3.76609,1.07672 5.06291,2.81583c1.29612,1.73911 2.09895,4.1406 2.09895,6.79154c0,2.65094 -0.80283,5.05243 -2.09895,6.79154c-1.29682,1.73911 -3.08694,2.81583 -5.06291,2.81583c-1.97597,0 -3.76609,-1.07672 -5.06291,-2.81583c-1.29612,-1.73911 -2.09895,-4.1406 -2.09895,-6.79154c0,-2.65094 0.80283,-5.05243 2.09895,-6.79154c1.29682,-1.73911 3.08694,-2.81583 5.06291,-2.81583z" fill="#ffffff" stroke="none" stroke-linecap="butt"/><path d="M378.74592,28.69071c0.57854,0 1.10258,0.34237 1.48198,0.89576c0.3794,0.55338 0.61417,1.31778 0.61417,2.16113c0,0.84335 -0.23477,1.60775 -0.61417,2.16113c-0.3794,0.55338 -0.90344,0.89576 -1.48198,0.89576c-0.57854,0 -1.10258,-0.34237 -1.48198,-0.89576c-0.3794,-0.55338 -0.61417,-1.31778 -0.61417,-2.16113c0,-0.84335 0.23477,-1.60775 0.61417,-2.16113c0.3794,-0.55338 0.90344,-0.89576 1.48198,-0.89576z" fill="#000000" stroke="none" stroke-linecap="butt"/><path d="M392.89495,21.35417c1.97597,0 3.76609,1.07672 5.06291,2.81583c1.29612,1.73911 2.09895,4.1406 2.09895,6.79154c0,2.65094 -0.80283,5.05243 -2.09895,6.79154c-1.29682,1.73911 -3.08694,2.81583 -5.06291,2.81583c-1.97597,0 -3.76609,-1.07672 -5.06291,-2.81583c-1.29612,-1.73911 -2.09895,-4.1406 -2.09895,-6.79154c0,-2.65094 0.80283,-5.05243 2.09895,-6.79154c1.29682,-1.73911 3.08694,-2.81583 5.06291,-2.81583z" fill="#ffffff" stroke="none" stroke-linecap="butt"/><path d="M388.00393,28.51603c0.57854,0 1.10258,0.34237 1.48198,0.89576c0.3794,0.55338 0.61417,1.31778 0.61417,2.16113c0,0.84335 -0.23477,1.60775 -0.61417,2.16113c-0.3794,0.55338 -0.90344,0.89576 -1.48198,0.89576c-0.57854,0 -1.10258,-0.34237 -1.48198,-0.89576c-0.3794,-0.55338 -0.61417,-1.31778 -0.61417,-2.16113c0,-0.84335 0.23477,-1.60775 0.61417,-2.16113c0.3794,-0.55338 0.90344,-0.89576 1.48198,-0.89576z" fill="#000000" stroke="none" stroke-linecap="butt"/><path d="M391.17317,46.0688c0.58958,1.46444 -7.04881,2.72814 -9.95512,1.43601c-2.41603,-1.0863 -5.18477,-6.92374 -3.48849,-7.17807c2.98381,-0.4462 12.46827,3.98751 13.44361,5.74206z" data-paper-data="{&quot;origPos&quot;:null}" fill="#ff9400" stroke="#cc7700" stroke-linecap="round"/><path d="M382.24971,41.12573c0,0 8.3828,-3.36426 12.56672,-2.54816c1.75937,0.36124 2.76483,3.20781 2.27083,4.89103c-0.77697,2.00951 -3.18406,4.08401 -5.24038,3.73814c-6.15221,-1.06065 -14.90202,-7.4651 -14.90202,-7.4651z" data-paper-data="{&quot;origPos&quot;:null}" fill="#ff9400" stroke="#cc7700" stroke-linecap="round"/></g><path d="M380.84207,55.59135c0,0 2.71871,2.2352 3.49359,3.77308c0.35635,1.08721 -0.34936,3.49359 -0.34936,3.49359" fill="none" stroke="#ffe9cc" stroke-linecap="round"/><path d="M384.96451,55.06731c0,0 2.02488,1.33735 2.51538,2.37564c0.73994,1.59517 1.39744,4.89103 1.39744,4.89103" fill="none" stroke="#ffe9cc" stroke-linecap="round"/></g><g stroke-width="1"><g data-paper-data="{&quot;origRot&quot;:0}" stroke="#00d5ce" stroke-linecap="butt"><path d="M369.91619,164.66784c0,0 -1.64913,5.80481 -6.29711,8.56644c-4.64797,2.76163 -8.09325,5.54343 -9.26343,3.57395c-1.17018,-1.96948 -2.38608,-7.07423 2.2619,-9.83586c4.64797,-2.76163 13.29865,-2.30452 13.29865,-2.30452z" data-paper-data="{&quot;origPos&quot;:null}" fill="#00fff7"/><path d="M368.6896,164.57998c0,0 -1.45931,4.01555 -4.96499,6.09848c-3.50568,2.08292 -6.13705,4.12584 -6.90064,2.84067c-0.7636,-1.28517 -1.42044,-4.69739 2.08524,-6.78031c3.50568,-2.08292 9.78039,-2.15883 9.78039,-2.15883z" data-paper-data="{&quot;origPos&quot;:null}" fill="#00d5ce"/></g><g data-paper-data="{&quot;origRot&quot;:0}" stroke-linecap="round"><path d="M380.7875,171.39711c0,0 1.12056,-1.89754 2.21703,-2.45773c1.0273,-0.52486 3.22489,-0.32255 3.22489,-0.32255c0,0 3.90324,5.52077 6.71168,8.78211c3.88322,4.50942 12.25511,9.90829 12.25511,9.90829l-15.07451,11.07104c0,0 -3.55984,-9.43723 -5.94071,-15.65799c-1.58888,-4.15144 -3.39348,-11.32317 -3.39348,-11.32317z" data-paper-data="{&quot;origPos&quot;:null,&quot;origRot&quot;:0}" fill="#2900c7" stroke="#1e0096"/><path d="M376.67962,166.87056c0,0 1.50886,-2.33793 2.87338,-3.18956c1.27844,-0.79791 3.8989,-1.03718 3.8989,-1.03718c0,0 4.20881,5.29172 7.29849,8.31177c4.27207,4.1758 11.56507,10.12669 11.56507,10.12669l-15.71962,13.08017c0,0 -4.49908,-9.07814 -6.82008,-15.46612c-1.54892,-4.26303 -3.09612,-11.82578 -3.09612,-11.82578z" data-paper-data="{&quot;origPos&quot;:null}" fill="#00fff7" stroke="#00d5ce"/><path d="M389.30273,197.22413c0,0 -0.62578,-1.57668 1.31601,-2.7761c5.32059,-3.28646 7.55396,-2.89261 9.66093,-7.82344c0.73294,-1.71526 3.60648,-1.88983 3.60648,-1.88983c0,0 2.85401,1.16966 1.65753,3.3688c-3.35029,6.15784 -12.51344,10.59013 -13.81212,11.31944c-1.29867,0.72931 -2.42883,-2.19886 -2.42883,-2.19886z" data-paper-data="{&quot;origPos&quot;:null}" fill="#ffffff" stroke="#e3e3e3"/></g><g stroke-linecap="round"><path d="M383.41815,189.91658c0,0 2.89832,12.8656 3.7976,21.45612c0.97855,9.34768 1.01412,24.5083 1.01412,24.5083h-22.39936c0,0 5.68127,-16.08289 8.25558,-26.37675c1.89363,-7.57201 3.19298,-19.40232 3.19298,-19.40232z" data-paper-data="{&quot;origPos&quot;:null}" fill="#2900c7" stroke="#1e0096"/><path d="M364.74571,235.86951l3.80209,-7.90834l3.65,4.41042l5.32292,-4.71459l6.38751,5.01875l4.86667,-4.41042l0.30417,8.06042z" fill="#ff9100" stroke="#d27700"/></g><g stroke-linecap="round"><path d="M377.63898,190.82908c0,0 2.89832,12.86561 3.7976,21.45613c0.97855,9.34768 1.01412,24.5083 1.01412,24.5083h-22.39936c0,0 5.68127,-16.08289 8.25558,-26.37675c1.89363,-7.57201 3.19298,-19.40233 3.19298,-19.40233z" data-paper-data="{&quot;origPos&quot;:null}" fill="#2900c7" stroke="#1e0096"/><path d="M358.96654,236.78201l3.80209,-7.90834l3.65,4.41042l5.32292,-4.71459l6.38751,5.01875l4.86667,-4.41042l0.30417,8.06042z" fill="#ff9100" stroke="#d27700"/></g><g data-paper-data="{&quot;origRot&quot;:0}"><path d="M369.69,190.74208c0,0 0.72437,-10.82698 0.41894,-17.52686c-0.18109,-3.97249 -1.66558,-9.81976 -1.66558,-9.81976l18.99071,-0.86573c0,0 0.36297,1.28292 0.51162,4.54392c0.33786,7.41137 0.73502,22.8027 0.73502,22.8027z" data-paper-data="{&quot;origPos&quot;:null}" fill="#00fff7" stroke="#00d5ce" stroke-linecap="butt"/><path d="M377.83726,179.1048c0,0 1.58003,2.82082 2.09627,4.45399c0.59459,1.88105 -0.00262,4.73729 -0.00262,4.73729" data-paper-data="{&quot;origPos&quot;:null}" fill="none" stroke="#00d5ce" stroke-linecap="round"/><path d="M381.14858,178.7487l-1.95333,0.08904" data-paper-data="{&quot;origPos&quot;:null}" fill="none" stroke="#00d5ce" stroke-linecap="round"/><path d="M382.88488,178.66955l1.95333,-0.08904" data-paper-data="{&quot;origPos&quot;:null}" fill="none" stroke="#00d5ce" stroke-linecap="round"/><path d="M386.35746,178.51124l1.95333,-0.08904" data-paper-data="{&quot;origPos&quot;:null}" fill="none" stroke="#00d5ce" stroke-linecap="round"/><path d="M383.32268,188.27341l-1.95333,0.08904" data-paper-data="{&quot;origPos&quot;:null}" fill="none" stroke="#00d5ce" stroke-linecap="round"/><path d="M385.38206,188.12515l1.95333,-0.08904" data-paper-data="{&quot;origPos&quot;:null}" fill="none" stroke="#00d5ce" stroke-linecap="round"/><path d="M388.53581,187.9582c0,0 -0.8546,-2.79006 -0.43363,-4.71741c0.19747,-0.90411 -0.06584,-0.66479 0.25911,-1.5313" data-paper-data="{&quot;origPos&quot;:null,&quot;index&quot;:null}" fill="none" stroke="#00d5ce" stroke-linecap="round"/><path d="M378.11812,168.7703l-0.11158,-2.44769l2.44769,-0.11158l0.11158,2.44769z" data-paper-data="{&quot;origPos&quot;:null}" fill="#ffdbb4" stroke="#e4ca00" stroke-linecap="butt"/><path d="M379.33401,166.7725c0.23298,-0.08378 1.80274,2.00078 2.44314,3.43038c0.57431,1.28206 0.50489,2.77574 0.66941,3.51792c0.23564,1.06301 -1.58117,-1.13766 -1.58117,-1.13766c0,0 0.27001,3.74664 -0.21081,2.41427c-0.32764,-0.9079 -0.77674,-2.34809 -0.77674,-2.34809c0,0 -1.63389,2.52681 -1.31421,1.83495c0.69778,-1.51018 1.02529,-2.52805 1.18079,-4.0847c0.14515,-1.45297 -1.96174,-3.06918 -0.4104,-3.62707z" data-paper-data="{&quot;origPos&quot;:null,&quot;origRot&quot;:0}" fill="#ffdbb4" stroke="#d5b797" stroke-linecap="round"/><path d="M385.01683,168.30201l-0.11158,-2.44769l2.4477,-0.11158l0.11158,2.44769z" data-paper-data="{&quot;origPos&quot;:null}" fill="#ffdbb4" stroke="#e4ca00" stroke-linecap="butt"/><path d="M386.33754,166.45298c0.18713,-0.16212 2.40267,1.21662 3.51526,2.31935c0.99777,0.98893 1.47133,2.40725 1.89228,3.04025c0.6029,0.90665 -1.88492,-0.49137 -1.88492,-0.49137c0,0 1.60213,3.39756 0.67344,2.32801c-0.63283,-0.72881 -1.57079,-1.91037 -1.57079,-1.91037c0,0 -0.61344,2.94586 -0.56459,2.18527c0.10663,-1.66017 0.04528,-2.72767 -0.37067,-4.23575c-0.38825,-1.40764 -2.93603,-2.15593 -1.69,-3.23542z" data-paper-data="{&quot;origPos&quot;:null,&quot;origRot&quot;:0}" fill="#ffdbb4" stroke="#d5b797" stroke-linecap="round"/></g><g><path d="M362.48619,163.35768c0,0 -1.90104,-10.50951 -1.90104,-17.23612c0,-6.72662 1.90104,-17.23613 1.90104,-17.23613h37.76739c0,0 -1.14063,10.48169 -1.14063,17.10939c0,6.82554 1.14063,17.36287 1.14063,17.36287z" data-paper-data="{&quot;origPos&quot;:null}" fill="#2900c7" stroke="#1e0096" stroke-linecap="butt"/><path d="M384.38937,146.62285c1.59748,7.82101 -4.69776,14.45358 -10.49275,14.45358c-5.79498,0 -12.44167,-6.71266 -10.49275,-14.45358c2.77954,-11.03998 6.95796,-14.01813 10.49275,-14.45358c4.70164,-0.57919 8.40809,4.24746 10.49275,14.45358z" data-paper-data="{&quot;origPos&quot;:null}" fill="#ffffff" stroke="#e3e3e3" stroke-linecap="butt"/><path d="M400.03635,131.91579c0.36638,0.30871 0.72553,29.03389 0,28.90716c-5.70854,-0.99717 -12.09022,-6.63257 -10.49275,-14.45358c2.08465,-10.20612 5.79111,-15.03277 10.49275,-14.45358z" data-paper-data="{&quot;origPos&quot;:null}" fill="#ffffff" stroke="#e3e3e3" stroke-linecap="butt"/><g data-paper-data="{&quot;origPos&quot;:null}" stroke="#000000" stroke-linecap="butt"><path d="M393.13339,139.40453c0.29942,0 0.54215,3.97193 0.54215,8.87154c0,4.89962 -0.24273,8.87154 -0.54215,8.87154c-0.29943,0 -0.54215,-3.97193 -0.54215,-8.87154c0,-4.89962 0.24273,-8.87154 0.54215,-8.87154z" data-paper-data="{&quot;origPos&quot;:null}" fill="#000000"/><path d="M393.13338,138.77085c0.38497,0 0.69705,1.70225 0.69705,3.80209c0,2.09983 -0.31208,3.80209 -0.69705,3.80209c-0.38498,0 -0.69705,-1.70225 -0.69705,-3.80209c0,-2.09983 0.31208,-3.80209 0.69705,-3.80209z" data-paper-data="{&quot;origPos&quot;:null}" fill="#ffffff"/></g><g data-paper-data="{&quot;origPos&quot;:null}" stroke="#000000" stroke-linecap="butt"><path d="M380.45977,139.40453c0.29943,0 0.54215,3.97193 0.54215,8.87154c0,4.89962 -0.24273,8.87154 -0.54215,8.87154c-0.29943,0 -0.54215,-3.97193 -0.54215,-8.87154c0,-4.89962 0.24273,-8.87154 0.54215,-8.87154z" data-paper-data="{&quot;origPos&quot;:null}" fill="#000000"/><path d="M380.45977,138.77085c0.38498,0 0.69705,1.70225 0.69705,3.80209c0,2.09983 -0.31208,3.80209 -0.69705,3.80209c-0.38498,0 -0.69705,-1.70225 -0.69705,-3.80209c0,-2.09983 0.31208,-3.80209 0.69705,-3.80209z" data-paper-data="{&quot;origPos&quot;:null}" fill="#ffffff"/></g><path d="M382.04807,158.7518c0,0 2.97251,1.45244 5.27187,1.64319c2.30233,0.19099 7.15343,-1.26352 5.52512,0.37532c-8.5644,8.61984 -10.79699,-2.01851 -10.79699,-2.01851z" data-paper-data="{&quot;origPos&quot;:null,&quot;origRot&quot;:0}" fill="#ff9100" stroke="#d27700" stroke-linecap="round"/><path d="M380.60948,157.23516l5.40129,0.40775c0,0 7.35372,-6.48514 10.314,-3.06921c3.66324,4.22708 -5.63686,7.65802 -8.35245,7.04354c-4.06049,-0.9188 -7.36285,-4.38208 -7.36285,-4.38208z" data-paper-data="{&quot;origPos&quot;:null}" fill="#ff9100" stroke="#d27700" stroke-linecap="round"/></g><g stroke-linecap="round"><path d="M365.74661,169.2541c0,0 2.1866,-0.27408 3.30042,0.25076c1.04357,0.49173 2.22763,2.35407 2.22763,2.35407c0,0 -1.98038,6.4647 -2.84282,10.68131c-1.1925,5.83028 -0.34324,15.75576 -0.34324,15.75576l-17.97883,-5.15468c0,0 5.28887,-8.58846 8.75416,-14.27688c2.31256,-3.79618 6.88267,-9.61034 6.88267,-9.61034z" data-paper-data="{&quot;origPos&quot;:null,&quot;origRot&quot;:0}" fill="#2900c7" stroke="#1e0096"/><path d="M366.81523,163.23559c0,0 2.7725,-0.23623 4.28085,0.32242c1.4132,0.5234 3.20524,2.45021 3.20524,2.45021c0,0 -1.61227,6.56636 -2.11181,10.85788c-0.69071,5.93387 -0.93808,15.34343 -0.93808,15.34343l-19.9629,-4.4362c0,0 4.43031,-9.11189 8.06451,-14.85523c2.42529,-3.83282 7.46219,-9.6825 7.46219,-9.6825z" data-paper-data="{&quot;origPos&quot;:null}" fill="#00fff7" stroke="#00d5ce"/><path d="M350.52195,191.78749c0,0 0.86463,-1.45943 3.0012,-0.6568c5.85431,2.19923 6.9087,4.20703 12.09839,2.8581c1.80531,-0.46925 3.70097,1.69736 3.70097,1.69736c0,0 0.82025,2.97333 -1.6514,3.3718c-6.92087,1.11578 -16.03192,-3.42265 -17.40322,-4.00402c-1.3713,-0.58137 0.25406,-3.26644 0.25406,-3.26644z" data-paper-data="{&quot;origPos&quot;:null}" fill="#ffffff" stroke="#e3e3e3"/></g></g><g stroke-width="0.5"><g data-paper-data="{&quot;index&quot;:null}" stroke-linecap="round"><path d="M389.42395,309.26628c0,0 0.78264,9.55916 -1.06277,10.12539c-1.81143,0.5558 -4.48726,-6.79276 -4.48726,-6.79276" data-paper-data="{&quot;origPos&quot;:null}" fill="#2e00b8" stroke="#2e00b8"/><path d="M383.27389,288.77546c0,0 4.03186,5.73033 5.98838,9.73407c2.46338,5.04095 5.33706,13.44183 5.33706,13.44183l-15.15059,3.45013c0,0 -1.04443,-8.10009 -1.37688,-13.33256c-0.25297,-3.9815 -0.12318,-10.2771 -0.12318,-10.2771" data-paper-data="{&quot;origPos&quot;:null}" fill="#009fb8" stroke="#009fb8"/></g><path d="M378.14711,284.65029l0.37501,2.85011l3.60014,0.15001l-2.92511,3.75014l-7.42529,-4.65018l3.07512,0.52502l-0.15001,-2.47509z" data-paper-data="{&quot;origPos&quot;:null}" fill="#3f00ff" stroke="#2e00b8" stroke-linecap="round"/><g><path d="M368.6565,357.07249l2.4068,-8.8614h14.5502l0.0722,4.87702l3.19687,0.73957l-0.20586,3.24481z" data-paper-data="{&quot;origPos&quot;:null}" fill="#bb5500" stroke="#bb5500" stroke-linecap="butt"/><path d="M369.77784,350.72553c0,0 -0.31015,-1.54853 -0.08853,-2.53966c0.54688,-2.44579 2.05773,-6.26704 2.05773,-6.26704l12.0887,-0.6564c0,0 2.56924,4.72217 3.01266,7.22013c0.14781,0.83265 -0.16826,2.24297 -0.16826,2.24297c0,0 -2.02945,-0.29208 -3.11833,-0.89914c-0.85947,-0.47917 -1.87409,-1.88422 -1.87409,-1.88422c0,0 -0.33283,1.66955 -0.96599,2.38804c-0.8082,0.91712 -2.72731,1.80299 -2.72731,1.80299c0,0 -2.21236,-1.17284 -3.27828,-2.13358c-0.44359,-0.39982 -0.58965,-1.3527 -0.58965,-1.3527c0,0 -0.63526,0.78873 -1.25193,1.08348c-1.08045,0.51644 -3.09672,0.99512 -3.09672,0.99512z" data-paper-data="{&quot;origPos&quot;:null}" fill="#2e00b8" stroke="#2e00b8" stroke-linecap="butt"/><path d="M384.04503,304.1323l1.80007,41.8835h-15.5256l5.2877,-39.79466" data-paper-data="{&quot;origPos&quot;:null}" fill="#306e7b" stroke="#306e7b" stroke-linecap="round"/><path d="M377.2991,353.02469l8.4238,0.2188" fill="none" stroke="#bb5500" stroke-linecap="round"/></g><g><path d="M364.38989,357.18189l2.4068,-8.8614h14.5502l0.0722,4.87702l3.19686,0.73958l-0.20586,3.24481z" data-paper-data="{&quot;origPos&quot;:null}" fill="#ff9b00" stroke="#bb5500" stroke-linecap="butt"/><path d="M365.51124,350.83493c0,0 -0.31015,-1.54853 -0.08853,-2.53966c0.54689,-2.44579 2.05773,-6.26704 2.05773,-6.26704l12.0887,-0.6564c0,0 2.56924,4.72217 3.01266,7.22013c0.14781,0.83265 -0.16826,2.24297 -0.16826,2.24297c0,0 -2.02945,-0.29208 -3.11833,-0.89915c-0.85947,-0.47917 -1.87409,-1.88422 -1.87409,-1.88422c0,0 -0.33283,1.66955 -0.96599,2.38804c-0.8082,0.91712 -2.7273,1.80299 -2.7273,1.80299c0,0 -2.21236,-1.17284 -3.27828,-2.13358c-0.44359,-0.39982 -0.58965,-1.35269 -0.58965,-1.35269c0,0 -0.63526,0.78872 -1.25193,1.08348c-1.08045,0.51644 -3.09672,0.99512 -3.09672,0.99512z" data-paper-data="{&quot;origPos&quot;:null}" fill="#3f00ff" stroke="#2e00b8" stroke-linecap="butt"/><path d="M379.77843,304.2417l1.80007,41.8835h-15.5256l5.28771,-39.79466" data-paper-data="{&quot;origPos&quot;:null}" fill="#5c8f99" stroke="#306e7b" stroke-linecap="round"/><path d="M381.45629,353.35289l-8.4238,-0.2188" fill="none" stroke="#bb5500" stroke-linecap="round"/></g><path d="M377.71979,306.97374l6.0717,1.9692l-4.18455,6.97425" data-paper-data="{&quot;origPos&quot;:null}" fill="#5c8f99" stroke="none" stroke-linecap="round"/><path d="M384.37235,292.07559c0,0 0.05466,4.90382 0.37769,8.61858c0.26239,3.01753 0.82236,8.63209 0.82236,8.63209h-14.85058c0,0 1.60099,-6.42816 1.90561,-10.78254c0.19298,-2.75844 -0.63056,-7.44317 -0.63056,-7.44317c0,0 -7.30723,-3.65506 -4.35017,-6.45025c2.90659,-2.74749 11.10043,5.1752 11.10043,5.1752c0,0 5.00065,-6.03948 7.51151,-3.69238c2.51086,2.34711 -1.88629,5.94246 -1.88629,5.94246z" data-paper-data="{&quot;origPos&quot;:null}" fill="#00ffce" stroke="#009fb8" stroke-linecap="round"/><path d="M386.92829,273.50174c3.11633,-3.37819 10.12539,-1.57506 10.12539,-1.57506c0,0 -1.71085,3.12417 -3.30994,4.90777c-0.68403,0.76296 -2.54028,1.61748 -2.54028,1.61748c0,0 1.7356,0.7582 2.2704,1.60354c0.82629,1.30608 1.21723,3.90917 1.21723,3.90917c0,0 -8.09507,1.12411 -12.03797,-2.25009" data-paper-data="{&quot;index&quot;:null}" fill="#2e00b8" stroke="#2e00b8" stroke-linecap="round"/><path d="M390.03944,269.22658c3.44704,4.87029 -0.56252,18.56322 -0.56252,18.56322c0,0 -6.34079,-14.56591 -3.71264,-18.67572" fill="#2e00b8" stroke="#2e00b8" stroke-linecap="round"/><path d="M368.753,282.16458c-3.9429,3.3742 -12.03797,2.25009 -12.03797,2.25009c0,0 0.39094,-2.6031 1.21723,-3.90917c0.5348,-0.84533 2.2704,-1.60354 2.2704,-1.60354c0,0 -1.85625,-0.85452 -2.54028,-1.61748c-1.59909,-1.7836 -3.30994,-4.90777 -3.30994,-4.90777c0,0 7.00907,-1.80313 10.12539,1.57506" data-paper-data="{&quot;origPos&quot;:null}" fill="#3f00ff" stroke="#2e00b8" stroke-linecap="round"/><path d="M363.07153,271.67579c0,-7.54312 6.61861,-13.65803 14.78307,-13.65803c8.16446,0 11.521,6.25794 12.983,13.65803c1.91257,9.6807 -4.81854,13.65803 -12.983,13.65803c-8.16446,0 -14.78307,-6.11491 -14.78307,-13.65803z" data-paper-data="{&quot;origPos&quot;:null}" fill="#3f00ff" stroke="#2e00b8" stroke-linecap="butt"/><path d="M363.91531,268.32653c0,0 -2.98181,0.94332 -3.95421,0.61098c-2.49619,-0.85313 -5.38365,-3.98611 -5.38365,-3.98611c0,0 2.30683,-0.76897 3.78331,-0.46906c1.33352,0.27087 3.41697,1.93162 3.41697,1.93162c0,0 -1.61188,-1.58138 -2.0675,-2.80957c-0.55422,-1.494 -0.5201,-4.1657 -0.5201,-4.1657c0,0 2.67074,1.05439 3.87609,2.30531c0.98486,1.0221 1.73605,3.51904 1.73605,3.51904c0,0 3.01185,-3.73339 2.21546,-8.75632c-0.95648,-2.37204 -8.70958,-8.40702 -8.70958,-8.40702c0,0 21.75126,-6.76858 29.05696,-0.86416c7.3057,5.90442 1.83501,15.38225 1.83501,15.38225c0,0 1.73465,0.16772 2.7729,-0.08497c0.99263,-0.24158 2.43098,-1.18156 2.43098,-1.18156c0,0 -0.27639,2.21302 -0.81333,3.19742c-0.486,0.891 -1.88678,2.5403 -1.88678,2.5403" data-paper-data="{&quot;origPos&quot;:null}" fill="#3f00ff" stroke="#2e00b8" stroke-linecap="round"/><path d="M367.06544,269.22658c3.44704,4.87029 -0.56252,18.56322 -0.56252,18.56322c0,0 -6.34079,-14.56591 -3.71264,-18.67572" data-paper-data="{&quot;origPos&quot;:null}" fill="#3f00ff" stroke="#2e00b8" stroke-linecap="round"/><path d="M391.81639,266.41397c2.6337,1.81606 0.1125,6.86276 0.1125,6.86276c0,0 -1.96841,-0.51761 -2.72424,-1.06493c-1.79074,-1.29674 -3.80102,-3.66025 -3.80102,-3.66025c0,0 -0.02467,1.84942 -0.47252,2.74511c-0.60591,1.21181 -2.22759,2.6551 -2.22759,2.6551c0,0 -2.6625,-0.95288 -4.07859,-1.92281c-1.78906,-1.22538 -4.13422,-3.70241 -4.13422,-3.70241c0,0 -0.213,1.64343 -0.78138,2.47928c-0.92443,1.35946 -3.04377,3.14594 -3.04377,3.14594c0,0 -4.0025,-1.41983 -5.51271,-6.07524" data-paper-data="{&quot;origPos&quot;:null}" fill="#3f00ff" stroke="#2e00b8" stroke-linecap="round"/><g data-paper-data="{&quot;origPos&quot;:null}" fill="#ffffff" stroke-linecap="round"><path d="M380.22844,276.76437c0,0 1.3313,1.95758 -0.56252,3.09387c-1.89382,1.13629 -5.62522,0.61878 -5.62522,0.61878z" data-paper-data="{&quot;origPos&quot;:null}" stroke="none"/><path d="M373.75944,280.58951c0,0 -6.09547,-3.19135 -1.76176,-7.12791c2.19467,-1.99354 5.51043,-2.19959 7.39924,0.08583c1.00089,1.21105 1.11278,3.77946 1.11278,3.77946" data-paper-data="{&quot;origPos&quot;:null}" stroke="#2e00b8"/></g><path d="M379.51156,276.7704c0,1.44462 -0.54148,2.61572 -1.20942,2.61572c-0.66795,0 -1.20942,-1.1711 -1.20942,-2.61572c0,-1.44462 0.54148,-2.61572 1.20942,-2.61572c0.66795,0 1.20942,1.1711 1.20942,2.61572z" data-paper-data="{&quot;origPos&quot;:null}" fill="url(#color-3)" stroke="none" stroke-linecap="butt"/><g data-paper-data="{&quot;origPos&quot;:null,&quot;index&quot;:null}" fill="#ffffff" stroke-linecap="round"><path d="M388.80616,280.47701c0,0 -2.54265,0.51752 -3.83314,-0.61878c-1.29049,-1.13629 -0.38331,-3.09387 -0.38331,-3.09387z" data-paper-data="{&quot;origPos&quot;:null}" stroke="none"/><path d="M384.39806,277.32689c0,0 0.07625,-2.5684 0.75827,-3.77946c1.28707,-2.28542 3.5465,-2.07937 5.04199,-0.08583c2.95308,3.93656 -1.2005,7.12791 -1.2005,7.12791" data-paper-data="{&quot;origPos&quot;:null}" stroke="#2e00b8"/></g><path d="M379.00529,285.0676c0,0 -0.39376,-1.7273 -0.39376,-2.86886c0,-0.76836 0.39376,-2.02508 0.39376,-2.02508c0,0 2.38859,-0.56252 3.8814,-0.56252c1.36109,0 3.43138,0.56252 3.43138,0.56252c0,0 0.39376,1.40352 0.39376,2.19383c0,1.11961 -0.39376,2.7001 -0.39376,2.7001c0,0 -1.61206,0.39376 -2.64385,0.39376c-1.82211,0 -4.66893,-0.39376 -4.66893,-0.39376z" data-paper-data="{&quot;origPos&quot;:null}" fill="#ff9b00" stroke="#bb5500" stroke-linecap="butt"/><path d="M384.7853,283.38469c0,0 -1.90275,0.07278 -2.59194,0.02228c-0.79011,-0.05789 -1.88746,-0.35048 -1.88746,-0.35048" fill="none" stroke="#bb5500" stroke-linecap="round"/><path d="M387.38687,276.88291c0,1.44462 -0.54148,2.61572 -1.20942,2.61572c-0.66795,0 -1.20942,-1.1711 -1.20942,-2.61572c0,-1.44462 0.54148,-2.61572 1.20942,-2.61572c0.66795,0 1.20942,1.1711 1.20942,2.61572z" data-paper-data="{&quot;origPos&quot;:null}" fill="url(#color-4)" stroke="none" stroke-linecap="butt"/><g data-paper-data="{&quot;origPos&quot;:null}" stroke-linecap="round"><path d="M368.99676,312.74891c0,0 -2.67583,7.34857 -4.48726,6.79276c-1.84541,-0.56623 -1.06277,-10.12539 -1.06277,-10.12539" data-paper-data="{&quot;origPos&quot;:null}" fill="#3f00ff" stroke="#2e00b8"/><path d="M374.92199,291.94183c0,0 0.12979,6.2956 -0.12318,10.2771c-0.33245,5.23247 -1.37688,13.33256 -1.37688,13.33256l-15.15059,-3.45013c0,0 2.87368,-8.40088 5.33706,-13.44183c1.95652,-4.00374 5.98838,-9.73407 5.98838,-9.73407" data-paper-data="{&quot;origPos&quot;:null}" fill="#00ffce" stroke="#009fb8"/></g><path d="M378.1894,299.11214l-0.37501,-6.67526" data-paper-data="{&quot;origPos&quot;:null}" fill="none" stroke="#009fb8" stroke-linecap="round"/><path d="M382.56775,299.42625l-0.37501,-6.67526" data-paper-data="{&quot;origPos&quot;:null}" fill="none" stroke="#009fb8" stroke-linecap="round"/></g><text transform="translate(5,356.4341) scale(0.24569,0.24569)" font-size="40" xml:space="preserve" fill="#b6b6b6" fill-rule="nonzero" stroke="none" stroke-width="1" stroke-linecap="butt" stroke-linejoin="miter" stroke-miterlimit="10" stroke-dasharray="" stroke-dashoffset="0" font-family="&quot;ヒラギノ角ゴ Pro W3&quot;, &quot;Hiragino Kaku Gothic Pro&quot;, Osaka, &quot;メイリオ&quot;, Meiryo, &quot;ＭＳ Ｐゴシック&quot;, &quot;MS PGothic&quot;" font-weight="normal" text-anchor="start" style="mix-blend-mode: normal"><tspan x="0" dy="0">Written by @The_Updator</tspan></text></g></g></svg>