<svg version="1.1" xmlns="http://www.w3.org/2000/svg" xmlns:xlink="http://www.w3.org/1999/xlink" width="237.49925" height="309.42667" viewBox="0,0,237.49925,309.42667"><g transform="translate(-85.528,-87.90638)"><g data-paper-data="{&quot;isPaintingLayer&quot;:true}" stroke-linejoin="miter" stroke-miterlimit="10" stroke-dasharray="" stroke-dashoffset="0" style="mix-blend-mode: normal"><path d="M137.29069,175.19694l0.25803,5.06262c-0.75329,0.48067 -3.55944,2.29869 -4.30752,2.78539c-0.39492,0.25606 -0.81598,0.48186 -1.22656,0.71976l-0.13069,-0.1515c0.19639,-0.33852 0.37016,-0.67868 0.57176,-1.01116c0.50838,-0.85078 1.01152,-1.70759 1.53645,-2.55149c0.3433,-0.54981 0.71882,-1.07454 1.07253,-1.61222c0.25397,-0.34531 0.47786,-0.71174 0.66915,-1.09516c0.43954,-0.76954 0.96156,-1.48922 1.55683,-2.14625z" id="Shape" fill="#000000" fill-rule="evenodd" stroke="none" stroke-width="1" stroke-linecap="butt"/><path d="M155.33383,165.10872c0,0 -1.97526,-1.32988 -2.97941,-1.96471c1.97394,-1.04134 4.00095,-1.97831 6.07262,-2.80697l0.12024,0.1394c-0.07557,0.17089 -3.21347,4.63226 -3.21347,4.63226z" id="Shape" fill="#000000" fill-rule="evenodd" stroke="none" stroke-width="1" stroke-linecap="butt"/><path d="M265.60213,395.50601l-5.7856,-0.3045l-7.95341,-104.02891" id="ID0.819343286100775" fill="none" fill-rule="nonzero" stroke="#000000" stroke-width="3.65408" stroke-linecap="round"/><path d="M310.63583,362.67967l-3.25202,4.02762l-74.62942,-60.25794" id="ID0.20713123539462686" fill="none" fill-rule="nonzero" stroke="#000000" stroke-width="3.65408" stroke-linecap="round"/><path d="M183.07124,234.57708c-9.20649,3.90078 -21.26078,3.69917 -31.29624,0.35299c-4.90816,-2.37836 -8.84116,-9.9168 -7.87743,-15.32043c1.27217,-6.16031 8.36238,-11.57716 14.30868,-12.19999c14.86277,-1.53659 36.0672,-2.57367 44.54354,5.51739c5.21165,5.03105 -10.69406,17.84754 -19.67853,21.65004z" id="ID0.9234384978190064" fill="#99b2ff" fill-rule="nonzero" stroke="#80a0d5" stroke-width="3.23007" stroke-linecap="round"/><path d="M87.14304,302.1442c0,0 20.07832,-26.96411 31.12937,-39.25903c14.55578,-17.18719 45.6869,-49.1811 45.6869,-49.1811" id="ID0.620068640448153" fill="none" fill-rule="nonzero" stroke="#000000" stroke-width="3.23007" stroke-linecap="round"/><path d="M275.48332,272.90158l0.10856,9.6296l-4.26811,5.82664l-58.40929,30.03278l-7.71451,-0.87613l-3.91157,-5.2528l-42.53135,-99.19919l60.32435,-31.01748z" id="ID0.0465886271558702" fill="#99b2ff" fill-rule="nonzero" stroke="#80a0d5" stroke-width="3.23007" stroke-linecap="round"/><path d="M259.17821,278.86392l-15.0997,-15.23898" id="ID0.9324376778677106" fill="none" fill-rule="nonzero" stroke="#80a0d5" stroke-width="3.23007" stroke-linecap="round"/><path d="M200.34646,195.68126l25.41161,32.93971" id="ID0.26887480774894357" fill="none" fill-rule="nonzero" stroke="#80a0d5" stroke-width="3.23007" stroke-linecap="round"/><path d="M222.21576,224.08632l5.25196,6.68227" id="ID0.5418036822229624" fill="none" fill-rule="nonzero" stroke="#ffffff" stroke-width="3.23007" stroke-linecap="round"/><path d="M215.10472,299.1043l-1.66706,-19.72447" id="ID0.643622487783432" fill="none" fill-rule="nonzero" stroke="#80a0d5" stroke-width="3.23007" stroke-linecap="round"/><path d="M201.17673,241.26017l-12.00626,-39.83246" id="ID0.26887480774894357" fill="none" fill-rule="nonzero" stroke="#80a0d5" stroke-width="3.23007" stroke-linecap="round"/><path d="M201.92875,243.90016l-2.37927,-8.15935" id="ID0.5418036822229624" fill="none" fill-rule="nonzero" stroke="#ffffff" stroke-width="3.23007" stroke-linecap="round"/><path d="M212.66511,189.45715c0,0 38.54628,-4.53143 57.61059,-5.21912c17.19532,-1.02074 51.13652,0.0956 51.13652,0.0956" id="ID0.620068640448153" fill="none" fill-rule="nonzero" stroke="#000000" stroke-width="3.23007" stroke-linecap="round"/><path d="M192.62638,97.1097c14.04194,4.50534 26.3674,14.36066 33.63438,28.49383c7.26693,14.13309 8.11156,29.89162 3.60626,43.93364c-4.50534,14.04194 -14.36074,26.36744 -28.49383,33.63438c-14.13309,7.26693 -29.89162,8.11156 -43.93364,3.60626c-14.04198,-4.50542 -26.36744,-14.36074 -33.63438,-28.49383c-7.26698,-14.13318 -8.11159,-29.8917 -3.60626,-43.93364c4.50537,-14.04208 14.36074,-26.36744 28.49383,-33.63438c14.13309,-7.26693 29.89167,-8.11168 43.93364,-3.60626z" id="ID0.9739120420999825" fill="#ffcfa0" fill-rule="nonzero" stroke="#000000" stroke-width="3.23007" stroke-linecap="butt"/><path d="M192.14632,89.66352c9.86434,1.20678 15.78235,11.53745 25.05329,13.3987c8.0114,1.59651 20.36702,-5.43364 24.01695,-1.76784c2.72263,2.83947 -7.15136,11.93534 -13.24072,15.81435c-10.53881,6.87172 -23.76494,8.61107 -35.47197,15.67979c-2.92672,1.76674 2.48211,4.8313 0.48879,5.65438c-7.96713,3.28952 -17.50076,1.33776 -25.61981,4.31454c-2.30907,0.83296 1.50154,5.36606 -0.48702,6.15624c-7.74213,3.03586 -17.41078,0.73333 -26.02011,3.53601c-1.62308,0.56783 -1.10821,3.56601 -0.61412,5.23724c1.48045,4.87586 5.49632,9.41655 4.49748,14.02671c-0.57166,2.87577 -6.75979,-2.11703 -8.67575,-0.36208c-2.65827,5.1996 1.35007,19.97202 -2.18389,16.87157c-9.84345,-8.76512 -17.76763,-24.3243 -22.64622,-39.24374c-1.90948,-7.41713 0.4218,-16.57386 5.38446,-22.45436c10.88663,-12.83619 26.61724,-24.18642 42.92049,-31.91174c9.52969,-4.60468 21.7144,-6.30174 32.59817,-4.94975z" id="ID0.8410323518328369" fill="#1c1a12" fill-rule="nonzero" stroke="#000000" stroke-width="2.62991" stroke-linecap="round"/><g id="ID0.9027861910872161" fill="none" fill-rule="nonzero" stroke="#000000" stroke-width="8.61573" stroke-linecap="round"><path d="M209.64356,140.42151l18.76216,36.4896" id="ID0.3690347820520401"/><path d="M188.70371,151.52566l18.76216,36.4896" id="ID0.3690347820520401"/></g><g id="ID0.46843624534085393" fill-rule="nonzero" stroke="#80a0d5" stroke-linecap="round"><path d="M112.67295,104.89907c6.42148,-4.31976 13.2827,-4.56717 19.01358,-3.17756c6.66928,1.60685 16.44863,1.96711 17.94288,10.55362c1.17839,9.72237 -7.09295,21.46018 -11.7675,31.74857c-4.93903,10.86876 -8.04825,25.79046 -16.24094,31.50702c-7.54199,4.86802 -13.9698,-3.32801 -19.23061,-7.64531c-4.60985,-3.78562 -9.30947,-8.55539 -10.42753,-16.21349c-1.11798,-7.65812 0.21081,-16.96171 4.25215,-26.08871c4.04125,-9.12696 10.03639,-16.36436 16.45797,-20.68416z" id="ID0.10736241936683655" fill="#99b2ff" stroke-width="2.69275"/><path d="M132.95832,110.03325c2.52549,-4.97605 4.77297,-10.27783 5.89166,-10.30521c5.96426,-0.76721 13.08469,-2.05815 12.82763,8.2018c-0.23752,7.53875 -8.00119,23.23368 -12.79407,35.72901c-3.22281,8.39974 -6.2029,17.57049 -10.14893,24.81251c-3.38348,5.53191 -5.88696,10.11163 -7.34143,10.88074c-5.73095,1.03574 -12.97885,3.99907 -12.70981,-5.84504c0.25071,-7.76874 9.23144,-24.68664 13.95561,-37.04095c3.63286,-9.5 6.26998,-18.05826 10.31935,-26.43287z" id="ID0.10736241936683655" fill="#99b2ff" stroke-width="2.32204"/><path d="M149.11637,116.20767l-15.13599,-5.73561" id="ID0.6224880712106824" fill="none" stroke-width="3.23007"/><path d="M127.71328,124.18116l13.70902,6.26715" id="ID0.2976824454963207" fill="none" stroke-width="3.23007"/><path d="M135.23908,146.56344l-13.70902,-6.26715" id="ID0.684330917429179" fill="none" stroke-width="3.23007"/><path d="M129.95121,160.7201l-14.68829,-6.7148" id="ID0.20857495116069913" fill="none" stroke-width="3.23007"/><path d="M124.04781,171.04383l-13.70911,-6.2671" id="ID0.1698142634704709" fill="none" stroke-width="3.23007"/></g><path d="M200.68374,196.69703c0.19871,4.64257 -4.77229,8.62579 -11.10306,8.89676c-6.33078,0.27098 -11.62397,-3.27289 -11.82268,-7.91546c-0.19871,-4.64257 8.12346,-1.8789 14.45422,-2.14988c6.33078,-0.27098 8.27281,-3.47399 8.47154,1.16857z" fill="none" fill-rule="nonzero" stroke="#000000" stroke-width="3" stroke-linecap="butt"/></g></g></svg>