<svg version="1.1" xmlns="http://www.w3.org/2000/svg" xmlns:xlink="http://www.w3.org/1999/xlink" width="276.8878" height="283.66609" viewBox="0,0,276.8878,283.66609"><g transform="translate(-96.40652,-103.87365)"><g data-paper-data="{&quot;isPaintingLayer&quot;:true}" fill-rule="nonzero" stroke-linecap="round" stroke-linejoin="miter" stroke-miterlimit="10" stroke-dasharray="" stroke-dashoffset="0" style="mix-blend-mode: normal"><path d="M282.43341,184.77458c2.15885,-0.56647 3.99208,-1.13748 5.65394,-1.79963c2.47204,-0.98448 5.24099,-1.16152 7.63383,-2.33896c1.22277,-0.60163 1.88177,-2.08402 2.99326,-2.88844c1.01203,-0.73282 2.16848,-1.23756 3.32241,-1.68262c1.13417,-0.43753 2.38296,-0.52799 3.51984,-0.95897c1.2961,-0.49197 2.51326,-1.19364 3.76234,-1.80242c2.36307,-1.15165 4.63288,-2.5516 7.08476,-3.48494c2.34311,-0.89232 4.92828,-1.05363 7.25978,-1.97799c1.18396,-0.46977 2.26834,-1.24927 3.19067,-2.16489c0.90233,-0.89574 1.29513,-2.30038 2.20159,-3.19097c2.15624,-2.11729 4.56378,-3.93718 6.93232,-5.7755c1.40172,-1.08876 2.87913,-2.07691 4.37898,-3.00684c2.47417,-1.53437 4.93712,-3.12686 7.54726,-4.38834c1.09667,-0.52988 2.3035,-0.88154 3.51984,-0.95897c1.29919,-0.08247 2.6409,0.10855 3.91487,0.48803c1.32758,0.39589 2.76989,0.80309 3.80391,1.81376c1.01368,0.99139 1.07133,2.77504 1.99907,3.86034c0.86528,1.01212 2.06685,1.64237 3.20986,2.23478c1.16825,0.60517 2.82836,0.25862 3.67237,1.33148c1.64193,2.08776 2.44725,4.83053 3.20645,7.41795c0.387,1.31765 0.42484,2.77591 0.17323,4.09864c-0.24853,1.30621 -0.92203,2.48261 -1.62993,3.55344c-0.70132,1.0606 -1.60976,1.95802 -2.55324,2.76855c-0.98029,0.84227 -3.03857,0.79673 -3.19077,2.16489c-0.17285,1.54889 2.25186,2.42431 2.50485,3.98153c0.61178,3.77605 0.93067,8.01323 -0.06041,11.72839c-0.31082,1.1647 -2.22959,1.62008 -3.32204,1.1642c-1.32472,-0.74183 -1.17468,-3.4827 -2.47402,-4.04175c-1.22601,-0.51892 -2.49477,0.67971 -3.73985,1.01892c-1.31916,0.35944 -2.65333,0.67733 -3.95985,1.07897c-1.16369,0.3574 -2.29048,0.84266 -3.45407,1.20015c-1.30662,0.40164 -3.76341,0.20862 -3.95985,1.07887c-0.17859,0.78668 2.46037,1.12379 3.20986,2.23488c1.34513,2.0049 2.97372,4.63944 2.7491,7.12794c-0.12296,1.32286 -2.32984,1.7272 -3.62131,1.45311c-1.87827,-0.40759 -3.08699,-2.79587 -4.93796,-3.37047c-1.34703,-0.41863 -2.74091,0.30424 -4.12654,0.29509c-1.21881,0.11345 -2.45101,0.2647 -3.68192,0.0186c-1.32455,-0.26312 -2.60166,-0.82717 -3.89238,-1.27153c-1.22817,-0.423 -2.39942,-1.27816 -3.67227,-1.33149c-1.29992,-0.05525 -2.45298,0.88812 -3.73994,1.01902c-1.26933,0.12921 -2.56845,-0.24551 -3.849,-0.24695c-2.50241,-0.00323 -5.00974,0.07249 -7.50047,0.22985c-1.22573,0.07791 -2.43203,0.34127 -3.65148,0.4766c-2.52427,0.28047 -5.06109,0.52184 -7.58894,0.77207c-1.4569,0.14516 -2.90715,0.52987 -4.37727,0.41536c-2.49898,-0.19491 -5.17034,-0.12423 -7.45549,-1.33715c-2.42248,-1.28645 -4.40054,-3.55944 -6.08886,-5.85533c-0.77896,-1.05956 -1.05428,-2.53604 -1.05326,-3.85885c0.00086,-1.3756 0.83902,-2.57204 1.05837,-3.91591c0.13773,-0.84286 -0.54662,-1.99246 0.0017,-2.59159z" data-paper-data="{&quot;index&quot;:null,&quot;origRot&quot;:0}" id="ID0.0918160411529243" fill="#ff9400" stroke="#ff9400" stroke-width="3.82813"/><g data-paper-data="{&quot;index&quot;:null,&quot;origRot&quot;:0}" id="ID0.11631795251742005" stroke-width="3.91858"><path d="M266.94099,214.70259c-0.7396,0.16296 -1.39856,0.79148 -2.15766,0.68975c-1.3168,-0.17704 -2.6089,-0.74361 -3.7168,-1.47832c-1.20922,-0.80196 -2.23881,-1.88524 -3.09663,-3.03755c-0.79953,-1.07438 -1.31601,-2.33024 -1.8131,-3.55885c-0.50084,-1.23836 -1.01851,-2.50719 -1.17127,-3.81959c-0.15618,-1.34176 -0.3956,-2.85583 0.25599,-4.02592c1.3147,-2.36126 3.27601,-4.38902 5.39025,-6.11141c2.04922,-1.66976 4.49529,-2.88447 6.94939,-3.94334c4.92268,-2.12437 10.0931,-3.73528 15.13709,-5.58844c1.3563,-0.49865 2.62949,-1.33482 4.08302,-1.47179c1.43459,-0.13526 2.9524,0.14236 4.3035,0.67972c1.27578,0.50749 2.24273,1.58034 3.36237,2.36931c1.11974,0.78899 2.26586,1.54922 3.36249,2.36923c1.11391,0.83313 2.39283,1.52757 3.27378,2.59209c0.85556,1.03373 1.34191,2.32198 1.8131,3.55885c0.49806,1.30744 0.84798,2.67354 1.08268,4.04237c0.22631,1.31694 0.91934,2.82157 0.29718,3.98784c-0.61595,1.15635 -2.19752,1.56133 -3.47466,1.97178c-3.89431,1.25169 -7.99905,1.89852 -11.94983,2.98641c-1.28594,0.35434 -2.53244,0.84197 -3.76205,1.34143c-2.51196,1.02035 -4.91207,2.30607 -7.46919,3.22078c-1.3236,0.47337 -2.81502,0.45917 -4.13813,0.93384c-1.30933,0.46987 -2.39335,1.42046 -3.70694,1.87938c-0.89976,0.31391 -1.91929,0.20663 -4.83506,0.65663z" id="ID0.2928832359611988" fill="#cc0099" stroke="#cc0099"/><path d="M293.43959,181.90165c0.07453,-0.73392 -0.7236,-1.37337 -0.77363,-2.11353c-0.09628,-1.42212 -0.61536,-3.76151 0.34456,-4.24859c0.89356,-0.45261 2.32274,1.48215 3.36247,2.36933c1.04369,0.89078 2.00655,1.88469 2.86437,2.94505c0.89186,1.10191 1.44133,2.44518 2.36623,3.52097c1.78088,2.07045 4.2374,3.61917 5.72872,5.8902c1.46646,2.23333 2.69855,4.77172 2.98435,7.37854c0.29585,2.70054 0.30402,6.02451 -1.29747,7.9972c-0.77283,0.95262 -2.14111,-2.41488 -3.45106,-2.14655c-1.30996,0.26843 -1.85324,3.3906 -2.11433,3.28672c-0.2611,-0.10379 0.52549,-2.60913 0.48825,-3.93342c-0.07591,-2.69353 0.11036,-5.50785 -0.82671,-8.06819c-0.9228,-2.52066 -2.96709,-4.54828 -4.58886,-6.72677c-0.83458,-1.12137 -1.73026,-2.22473 -2.77568,-3.16781c-1.01361,-0.91497 -2.53138,-1.29578 -3.36247,-2.36933c-0.25259,-0.3254 1.01101,-0.21489 -3.59477,-2.46163z" id="ID0.9867358235642314" fill="#990072" stroke="#990072"/></g><g data-paper-data="{&quot;index&quot;:null,&quot;origPos&quot;:null}" id="ID0.8231862881220877" stroke-width="4.04731"><path d="M209.28808,200.58751c2.8902,-1.5767 6.0047,-2.8418 9.2236,-3.8533c2.5921,-0.8129 5.3918,-0.6765 8.0717,-1.0972c1.3577,-0.2129 2.6775,-0.7621 4.0499,-0.8041c2.6633,-0.0813 5.328,0.2906 7.9881,0.4357c1.33,0.0726 2.6915,-0.0643 3.994,0.2179c3.9919,0.8636 8.0335,1.7165 11.8428,3.2087c1.3365,0.5239 2.2095,1.8692 3.3555,2.7456c0.8394,0.6393 1.7033,0.8668 2.163,1.6556c1.1316,1.9293 1.4438,4.265 2.4114,6.2818c1.2853,2.6737 2.8626,4.8764 4.1031,7.3991c0.8566,1.737 1.2069,3.4484 1.4686,5.2053c0.9767,3.0987 1.9218,6.2438 2.2442,9.3478c0.5603,5.4612 0.958,10.9679 1.105,16.4609c0.0726,2.7255 -0.2975,5.4534 -0.446,8.176c-0.0743,1.3613 -0.0522,2.7371 -0.223,4.088c-0.1677,1.3121 -0.4223,2.5457 -0.4587,3.8189c-0.2838,1.5303 -0.3463,3.0798 -0.5005,4.5854c-0.2139,2.636 -0.5463,5.2584 -0.9314,7.8932c-0.4227,2.885 -0.6864,5.8279 -1.4724,8.6326c-0.7843,2.7935 -1.3444,6.0297 -3.2058,8.2817c-3.6303,3.8908 -11.5606,8.5629 -12.7893,9.5527c-0.9932,0.8028 8.3461,-5.6324 7.0466,-5.2533c-1.847,0.6096 -9.3524,6.3053 -14.6888,7.6553c-3.8813,0.9824 -8.0343,-0.0303 -11.9822,-0.6537c-2.7127,-0.4278 -5.2463,-1.6792 -7.8766,-2.4797c-1.4709,-0.4472 -2.9909,-0.7444 -4.4376,-1.2671c-1.3406,-0.4842 -2.6946,-0.9988 -3.9104,-1.7509c-1.2246,-0.7577 -2.2805,-1.7799 -3.3555,-2.7457c-1.1523,-1.0346 -2.395,-2.0105 -3.3275,-3.2566c-0.954,-1.2749 -1.4765,-2.841 -2.2733,-4.2242c-0.7264,-1.2615 -1.7325,-2.3691 -2.3012,-3.7132c-0.6261,-1.4825 -0.8047,-3.1292 -1.2468,-4.6807c-0.3976,-1.3962 -0.7783,-2.8069 -1.2748,-4.1697c-0.5201,-1.4265 -1.2847,-2.7587 -1.774,-4.1969c-0.5187,-1.5259 -0.8048,-3.1293 -1.2469,-4.6807c-0.3976,-1.3963 -1.0073,-2.7406 -1.2748,-4.1697c-0.2529,-1.3484 -0.1848,-2.7449 -0.2763,-4.1152c-0.0915,-1.3704 -0.3364,-2.3698 -0.2762,-4.1153c0.2417,-6.9827 0.4532,-13.9988 1.1429,-20.951c0.4232,-4.2697 1.5825,-8.4471 2.1946,-12.6933c0.1948,-1.3496 0.071,-2.7329 0.2231,-4.088c0.1727,-1.5332 0.4057,-3.0683 0.7501,-4.5717c0.314,-1.3687 0.6305,-2.764 1.2215,-4.0335c0.5799,-1.2487 1.2352,-2.6685 2.2061,-3.7236c1.3969,-1.5208 2.9247,-3.1636 4.7442,-4.3539z" data-paper-data="{&quot;origPos&quot;:null}" id="ID0.1488087447360158" fill="#00cc44" stroke="#00cc44"/><path d="M212.79808,195.91001c-0.3981,-0.2656 0.1935,-0.3348 0.5271,-0.4837c1.3343,-0.5935 2.6493,-1.3828 4.0917,-1.5706c4.1515,-0.5403 8.3679,-0.5061 12.5511,-0.5967c1.4147,-0.0304 2.8439,0.024 4.2437,0.2315c1.3411,0.1993 2.6361,0.6564 3.9522,0.9844c1.3161,0.3281 2.6697,0.5382 3.9523,0.9844c1.3455,0.468 2.7253,0.9492 3.9104,1.7509c1.1812,0.7994 2.1694,1.8875 3.0919,2.9875c0.8886,1.0592 1.5925,2.2733 2.3151,3.4577c0.7326,1.2013 1.4841,2.4068 2.0515,3.6995c0.5505,1.255 0.7721,2.6447 1.2887,3.9142c0.5157,1.2674 1.2286,2.4462 1.8019,3.686c0.5166,1.1229 1.186,2.0522 1.5802,3.1613c0.4705,1.3613 0.7872,2.8444 0.7615,4.398c0.0431,1.2293 0.2261,2.8137 -0.7083,3.8052c-0.9876,1.0491 -2.6805,1.0377 -4.0777,1.3151c-1.3182,0.2623 -2.6939,0.0909 -4.0219,0.2932c-2.7974,0.4265 -5.549,1.1877 -8.3493,1.5946c-2.7519,0.4003 -5.5292,0.8638 -8.3074,0.8281c-1.3551,-0.0175 -3.3211,0.2412 -3.9523,-0.9844c-1.256,-2.4384 -0.4536,-5.5087 -0.8021,-8.2441c-0.1774,-1.3924 -0.3128,-2.8205 -0.7755,-4.1424c-0.9158,-2.6167 -2.2842,-5.053 -3.3402,-7.6138c-0.5653,-1.3695 -0.8274,-2.8794 -1.5244,-4.1833c-0.6798,-1.2723 -1.6885,-2.3329 -2.5648,-3.4713c-0.8369,-1.0881 -1.4888,-2.3937 -2.5786,-3.2158c-1.5295,-1.1536 -3.5264,-1.5218 -4.1462,-2.02z" id="ID0.24698219634592533" fill="#cc0099" stroke="#cc0099"/></g><path d="M262.98036,279.23309c8.68106,2.99458 9.69602,3.48662 10.79383,3.91605c1.40324,0.61131 2.87971,1.13491 4.32746,1.79252c1.55068,0.70425 3.01016,1.61382 4.56791,2.30494c1.75767,0.77905 3.59888,1.37287 5.37616,2.10592c1.40066,0.57776 2.75783,1.27135 4.16579,1.83241c1.54727,0.61596 3.14416,1.11795 4.70473,1.69974c3.0495,1.13776 6.08487,2.34309 9.13984,3.46579c1.44398,0.5305 2.9137,0.99862 4.36893,1.4966c1.45536,0.49794 2.9137,0.99862 4.36893,1.4966c1.45536,0.49794 2.9137,0.99862 4.36902,1.49665c1.45527,0.4979 2.92635,0.96221 4.36897,1.49652c1.49037,0.55222 2.96842,1.15197 4.4352,1.7661c1.39791,0.58522 2.75787,1.27126 4.16584,1.83232c1.54718,0.61591 3.66526,0.39762 4.70464,1.69969c0.93839,1.17499 0.52993,3.03127 0.2527,4.50999c-0.55716,2.97525 -1.55065,5.8819 -2.72381,8.67155c-0.58331,1.38723 -1.67018,2.50735 -2.50384,3.75962c-0.8337,1.25213 -1.33887,2.80867 -2.50388,3.75948c-3.57805,2.91976 -7.66678,5.17651 -11.53633,7.69709c-1.29851,0.84531 -2.44694,2.18413 -3.9795,2.40814c-1.55461,0.22711 -3.12328,-0.55497 -4.57206,-1.1608c-1.44632,-0.60538 -2.59734,-1.79888 -4.02897,-2.43761c-1.47655,-0.65847 -3.11396,-0.8933 -4.63833,-1.43029c-1.49944,-0.52823 -2.94496,-1.21384 -4.43533,-1.76605c-1.44254,-0.53426 -2.96143,-0.87709 -4.36893,-1.4966c-1.37656,-0.60537 -2.60075,-1.52935 -3.96262,-2.16808c-1.43938,-0.67445 -3.01193,-1.05901 -4.43533,-1.76605c-1.405,-0.69777 -2.66542,-1.66208 -4.02893,-2.43748c-2.8416,-1.61652 -5.71272,-3.20402 -8.59688,-4.74256c-1.38822,-0.74082 -2.85257,-1.3451 -4.23215,-2.10172c-5.44475,-2.98873 -11.42965,-5.15295 -16.03715,-9.19806c-2.52949,-2.09449 -3.71501,-5.48094 -4.62566,-8.57739c-0.86997,-2.95902 -0.85236,-6.13867 -0.84102,-9.22303c0.00531,-1.5296 0.31037,-3.09061 0.8914,-4.50575c0.57201,-1.39125 1.38573,-2.75279 2.50384,-3.75962c1.13224,-1.0193 2.60651,-1.63812 4.04576,-2.13865c1.39919,-0.48724 2.89715,-0.74504 4.37737,-0.7915c2.12825,-0.06544 4.06074,0.03505 6.04194,0.39898c1.47343,0.26952 2.58223,0.99903 3.79033,1.46761c1.35355,0.42354 2.76064,0.78134 3.89883,1.21221z" data-paper-data="{&quot;index&quot;:null,&quot;origRot&quot;:0}" id="ID0.5602204352617264" fill="#00cc44" stroke="#00cc44" stroke-width="4.43966"/><path d="M217.35832,279.5186c2.73339,-0.39871 6.02814,-1.70968 8.30627,-0.16323c2.15092,1.46011 2.08201,4.80438 2.28849,7.35465c0.21748,2.68231 -0.38539,5.39957 -1.04187,8.00928c-0.32102,1.27704 -1.22811,2.34185 -1.8533,3.50431c-1.4239,2.64606 -2.59147,5.45514 -4.30022,7.93337c-1.53404,2.22521 -3.52351,4.12707 -5.37595,6.10642c-0.9559,1.02072 -2.03348,1.93104 -3.0491,2.89465c-1.01556,0.96369 -2.01257,1.95274 -3.0491,2.89465c-1.07737,0.97824 -2.19974,1.91464 -3.29795,2.87004c-2.19643,1.91203 -4.40117,3.82607 -6.59586,5.7403c-1.00936,0.88065 -1.93232,1.8721 -3.02508,2.65117c-2.24402,1.59944 -4.72928,2.87424 -6.97325,4.47377c-1.09282,0.77898 -2.08052,1.70415 -3.02508,2.65117c-2.02995,2.0366 -3.89244,4.24014 -5.8976,6.30077c-0.97528,1.00306 -1.97348,1.99497 -3.0491,2.89465c-1.11715,0.93394 -2.34992,1.73558 -3.52266,2.60211c-1.17288,0.8665 -2.27417,1.84334 -3.52271,2.60203c-3.74152,2.27375 -7.05553,6.05079 -11.44301,6.4908c-2.8144,0.28268 -4.68119,-3.15043 -7.07918,-4.632c-1.23119,-0.76068 -2.6225,-1.27463 -3.81238,-2.09711c-1.17213,-0.80988 -2.33205,-1.69236 -3.24278,-2.77837c-0.91067,-1.08592 -1.43555,-2.43662 -2.15141,-3.65381c-0.71586,-1.21719 -1.4356,-2.4367 -2.15147,-3.65389c-0.71586,-1.21719 -1.71151,-2.3184 -2.15147,-3.65389c-0.41686,-1.26341 -0.75428,-2.70084 -0.36184,-3.96885c0.40137,-1.29669 1.64762,-2.18438 2.57563,-3.18725c0.94939,-1.02621 1.8658,-2.13532 3.0491,-2.89465c1.18115,-0.75751 2.72461,-0.84901 3.92415,-1.57912c1.14822,-0.69887 1.97961,-1.81247 3.02508,-2.65117c1.04551,-0.83884 2.16767,-1.5894 3.24988,-2.38329c1.08218,-0.79376 2.13301,-1.63597 3.24985,-2.38315c1.12437,-0.7523 2.31777,-1.41029 3.47462,-2.11514c1.15685,-0.70485 2.32472,-1.39881 3.47462,-2.11514c1.34594,-0.83864 2.59347,-1.85222 4.02028,-2.55297c1.22919,-0.60336 2.65898,-0.75522 3.90007,-1.33572c1.22954,-0.57579 2.27631,-1.47932 3.47456,-2.11522c1.27787,-0.67815 2.67043,-1.14443 3.94817,-1.8226c1.19825,-0.6359 2.27645,-1.4793 3.4747,-2.1152c1.27773,-0.67817 2.67029,-1.14445 3.94817,-1.8226c1.19825,-0.6359 2.35284,-1.35868 3.47456,-2.11522c1.20996,-0.81565 2.42456,-1.64654 3.52271,-2.60203c1.10481,-0.9617 1.98918,-2.15373 3.07312,-3.13813c1.03318,-0.9383 2.28093,-1.64797 3.27387,-2.62664c1.0552,-1.03934 1.75121,-2.40915 2.84841,-3.40606c1.03661,-0.94197 2.37381,-1.51981 3.49864,-2.35863c1.7976,-1.34171 3.24114,-3.13925 5.18371,-4.15886c1.75191,-1.03261 3.75102,-1.60706 5.71372,-1.89417z" data-paper-data="{&quot;index&quot;:null,&quot;origRot&quot;:0}" id="ID0.8741973452270031" fill="#00cc44" stroke="#00cc44" stroke-width="3.95728"/><path d="M177.60144,208.32037c-0.48748,-0.00371 -0.88704,0.0723 -1.5228,-0.03527c-1.43456,-0.23578 -2.86251,-0.53894 -4.28161,-0.85451c-1.32302,-0.29479 -2.64701,-0.60652 -3.95036,-0.97813c-1.37029,-0.39109 -2.69281,-0.95931 -4.0741,-1.30929c-1.33126,-0.33711 -2.72295,-0.41374 -4.05422,-0.75075c-1.38139,-0.34999 -2.69271,-0.9593 -4.0741,-1.30929c-1.33116,-0.33709 -2.71258,-0.46062 -4.05412,-0.75074c-1.325,-0.28579 -2.60328,-1.10976 -3.95046,-0.97814c-2.11738,0.21774 -3.89723,0.98182 -5.69609,1.52291c-1.9624,0.78852 -3.83056,1.8234 -5.57337,2.45827c-0.93994,0.34707 -1.86282,0.9219 -2.85245,0.9518c-1.55161,0.09771 -3.15922,0.16658 -4.68004,-0.10194c-2.38061,-0.4147 -4.86325,-0.41311 -7.10275,-1.53717c-1.75964,-0.86995 -3.40545,-2.03756 -4.54224,-3.77627c-0.81981,-1.24354 -1.77516,-2.81386 -1.09447,-4.34656c0.48792,-1.06446 2.33108,-0.33668 3.52204,-0.37148c1.50604,-0.02949 3.06325,1.11081 4.48033,0.78023c1.34635,-0.31776 3.58754,-1.3726 3.49984,-2.25015c-0.08567,-0.85033 -2.5402,-0.89859 -3.84659,-1.20562c-2.83043,-0.66485 -5.67132,-1.40058 -8.56323,-1.70892c-1.33422,-0.14265 -2.71279,0.03842 -4.01451,0.36671c-1.31413,0.33136 -2.45802,1.16905 -3.74719,1.58775c-1.29923,0.42162 -2.73006,0.41621 -3.99453,0.92525c-0.90162,0.3525 -1.07182,1.35429 -1.81898,1.69811c-1.09213,0.47121 -1.9749,1.05436 -2.90595,0.70759c-1.48664,-0.55524 -2.84141,-1.41634 -3.2982,-2.76895c-0.60714,-1.79615 0.68022,-3.75987 0.87305,-5.64713c0.10875,-1.29355 0.56075,-2.51297 0.62611,-3.78125c0.05852,-1.32313 0.17142,-2.62799 0.30774,-3.92655c0.13492,-1.31466 0.61158,-2.64371 1.06913,-3.90892c0.57763,-1.57204 1.49024,-3.34087 2.37407,-4.96226c0.72727,-1.30482 1.74353,-2.38545 2.69478,-3.49691c0.89597,-1.41916 1.52746,-3.12594 2.85284,-4.08422c1.12218,-0.82127 2.61613,-0.91561 4.04886,-1.28528c1.02947,-0.39638 2.06865,-0.82142 3.32019,-1.0132c1.43633,-0.22832 2.90754,-0.25825 4.34554,-0.49026c1.52845,-0.24678 3.00473,-0.98671 4.55328,-0.9452c1.51885,0.04124 2.94772,0.75692 4.40524,1.18565c1.36752,0.402 2.7038,0.9183 4.07408,1.30939c1.30337,0.37151 2.67087,0.53277 3.95046,0.97814c1.25782,0.43761 2.42722,1.10748 3.63909,1.6604c2.42362,1.10592 4.85453,2.21507 7.27814,3.32099c1.21177,0.5529 2.50485,0.96149 3.63909,1.6604c1.16855,0.72011 2.27574,1.57694 3.22393,2.57023c0.92646,0.97117 1.5998,2.1622 2.354,3.27247c0.77868,1.14554 1.11692,2.70246 2.25015,3.49984c2.31435,1.62975 5.11336,2.45732 7.73302,3.52851c1.24244,0.5075 2.54413,0.8827 3.84671,1.20553c1.33227,0.32978 2.72186,0.42086 4.05413,0.75064c1.30257,0.32284 2.55594,0.83766 3.84669,1.20563c1.38194,0.39428 2.82196,0.60611 4.17785,1.0819c1.25743,0.44079 2.63717,0.78234 3.63909,1.6604c1.04202,0.91298 1.95728,2.14948 2.25014,3.49994c0.55344,2.57392 1.3042,5.23579 0.7916,7.78065c-0.37571,1.78946 -1.47343,3.1737 -2.50173,4.51924c-1.03898,1.17358 -1.80493,2.32231 -2.92136,2.78902c-1.5537,0.56723 -3.27732,0.11707 -4.60576,0.09678z" data-paper-data="{&quot;index&quot;:null,&quot;origRot&quot;:0}" id="ID0.7367181181907654" fill="#ffd499" stroke="#ffd499" stroke-width="4"/><g data-paper-data="{&quot;index&quot;:null,&quot;origRot&quot;:0}" id="ID0.7409566841088235" stroke-width="4.2029"><path d="M188.71448,189.45612c0.38434,-0.53712 2.61298,-0.44372 4.73534,-0.03921c4.31523,0.82139 8.52254,2.19946 12.72078,3.4936c1.36086,0.41889 2.76601,0.8485 3.94787,1.64301c1.20154,0.80847 2.1506,1.95997 3.07099,3.07821c0.91651,1.11406 1.76404,2.30898 2.41948,3.59367c0.63612,1.24692 1.29886,2.55799 1.43164,3.95153c0.14057,1.48009 -0.24358,2.9861 -0.63364,4.42035c-0.374,1.37384 -0.73842,2.84803 -1.643,3.94797c-0.91609,1.11419 -2.23727,1.92807 -3.59357,2.41947c-1.3564,0.49141 -2.86696,0.40617 -4.30949,0.44382c-2.9885,0.07682 -5.99403,0.10632 -8.97685,-0.1004c-2.8486,-0.19736 -5.75277,-0.34434 -8.50437,-1.10977c-4.12221,-1.14624 -8.30588,-2.43441 -12.0012,-4.59249c-1.23013,-0.71777 -1.95108,-2.27593 -2.17257,-3.68308c-0.23817,-1.5119 0.52823,-3.02106 0.88063,-4.50996c0.34669,-1.46442 0.63595,-2.96393 1.21697,-4.35236c0.57514,-1.37397 1.32236,-2.69518 2.22644,-3.87989c0.8783,-1.15077 1.87179,-2.27065 3.07822,-3.07089c1.31465,-0.87193 2.79813,-1.61393 4.35603,-1.85759z" id="ID0.703050977550447" fill="#cc0099" stroke="#cc0099"/><path d="M184.56615,186.48886c-5.44441,3.52357 -6.07135,4.74203 -6.49296,5.98438c-0.47901,1.41073 -1.00864,2.80837 -1.55349,4.19487c-0.52015,1.32505 -1.09556,2.6332 -1.643,3.94797c-0.54735,1.31466 -1.15304,2.61037 -1.64291,3.94786c-0.49339,1.34663 -0.96526,2.71227 -1.30658,4.10546c-0.33619,1.37007 -0.39927,4.15105 -0.72306,4.17333c-0.32388,0.02239 0.07671,-3.44974 -1.18463,-4.04095c-1.26203,-0.58994 -2.93945,2.35898 -3.86212,1.67856c-0.98329,-0.72446 -0.1825,-3.01158 0.0502,-4.48842c0.22396,-1.41777 0.87184,-2.73872 1.30649,-4.10536c0.43474,-1.36675 0.75348,-2.78188 1.30658,-4.10546c0.59689,-1.42765 1.42287,-2.75396 2.13692,-4.1269c0.65635,-1.26366 1.10909,-2.66368 1.97943,-3.79038c1.74606,-2.25977 3.85802,-5.93725 5.82001,-6.29937c1.18064,-0.21765 0.59645,3.42605 0.46525,5.13983z" id="ID0.07698269281536341" fill="#990072" stroke="#990072"/></g><path d="M149.95234,329.58252c-0.01994,0.8619 -0.88107,3.3583 -0.49093,5.33585c0.30515,1.54719 0.71441,3.08165 1.22736,4.57289c0.52096,1.51643 1.15131,3.00456 1.87006,4.4381c0.74319,1.48376 1.52917,2.96666 2.51256,4.30336c0.96475,1.31122 2.05264,2.56 3.30457,3.60056c1.26088,1.04781 2.72373,1.845 4.17091,2.61385c1.57622,0.83673 3.36796,1.26008 4.8881,2.195c1.37907,0.84808 2.82293,1.77265 3.7377,3.10722c1.84084,2.68652 4.22331,5.48869 4.38271,8.74143c0.15389,3.14932 -1.99306,6.03301 -3.52363,8.78958c-0.80673,1.45296 -2.24442,2.45972 -3.39121,3.66308c-1.08674,1.14136 -1.92067,2.64681 -3.3166,3.37909c-1.43366,0.75156 -3.16472,0.82749 -4.78224,0.86885c-1.57596,0.04011 -3.18129,-0.17764 -4.69319,-0.62581c-1.52679,-0.45209 -3.01456,-1.13575 -4.32014,-2.04587c-1.29353,-0.90089 -2.37145,-2.10453 -3.37919,-3.31657c-1.1526,-1.38601 -2.20343,-2.87772 -3.08063,-4.45256c-0.78065,-1.40125 -1.29961,-2.9391 -1.86996,-4.43812c-0.62618,-1.64728 -1.16161,-3.3351 -1.72083,-5.00608c-0.51634,-1.54319 -1.15515,-3.05899 -1.51138,-4.6476c-0.34544,-1.54192 -0.23942,-3.16571 -0.58486,-4.70763c-0.35621,-1.58851 -1.10571,-3.07153 -1.51135,-4.6475c-0.79698,-3.09117 -1.85787,-6.17155 -2.09624,-9.35522c-0.23707,-3.17481 0.13311,-6.40016 0.68365,-9.5356c0.27322,-1.55317 0.51212,-3.43342 1.76175,-4.39483c1.2514,-0.96332 3.13357,-0.72265 4.70765,-0.58477c1.94803,0.17052 4.39365,0.0188 5.68002,1.49223z" data-paper-data="{&quot;index&quot;:null,&quot;origRot&quot;:0}" id="ID0.835637491196394" fill="#003fff" stroke="#003fff" stroke-width="4.6982"/><g data-paper-data="{&quot;origRot&quot;:0,&quot;index&quot;:null}"><path d="M191.54258,166.36938l19.42802,23.46679l-8.07873,5.36991l-1.3552,-6.23048l-13.96902,0.46022l2.96523,-12.34268l-10.20702,-1.48817l9.37577,-10.60176z" id="ID0.07080530421808362" fill="#995900" stroke="#995900" stroke-width="1.65977"/><path d="M280.22084,164.09421c-1.5827,-0.48291 -3.03397,-0.87859 -4.53147,-1.36976c-0.79671,-0.26102 -1.32721,-0.49985 -2.35761,-0.8878c-4.12093,-1.55177 -8.19765,-3.27132 -12.37711,-4.66062c-1.04418,-0.34737 -1.93383,-0.1831 -2.87414,-0.40937c-2.35364,-0.56581 -4.1661,-1.61451 -7,-1.96282c-11.33745,-1.39564 -22.77143,-2.23133 -34.16115,-3.10539c-2.84758,-0.21903 -4.92932,-0.33806 -7.37097,-0.08382c-1.79458,0.18702 -3.43461,1.48607 -5.23546,1.39351c-3.49539,-0.17891 -6.86258,-1.43074 -10.27974,-2.18849c-3.09793,-0.68739 -6.30239,-1.07035 -9.28487,-2.15026c-3.31892,-1.21202 -6.32478,-2.41524 -9.20823,-4.14032c-1.77021,-1.061 -3.33005,-2.26205 -4.23311,-3.94936c-0.78908,-1.37523 -0.48346,-3.00181 -0.03101,-4.38586c0.61872,-1.92181 1.99677,-3.97647 3.69295,-5.33905c2.05034,-1.63857 5.09874,-2.48534 8.00232,-3.37994c4.17653,-1.4946 8.4899,-2.68744 13.19946,-3.77822c1.26695,-0.26583 3.06913,0.84611 3.79649,-0.25279c2.86978,-4.33276 3.07734,-10.56019 6.35967,-15.10223c1.17948,-1.52372 3.86347,-1.10255 6.04687,-1.76092c1.16342,-0.34122 2.24628,-0.51493 3.61269,-0.65848c2.98546,-0.31874 5.99463,-0.50723 8.99376,-0.65122c5.44577,-0.2616 10.91306,-0.49776 16.36462,-0.56745c2.32123,-0.03052 4.64498,0.19994 6.96546,0.26736c4.7728,0.13906 9.57998,-0.06702 14.33645,0.35118c2.64456,0.23274 5.18958,1.18031 7.81122,1.59546c0.98303,0.15605 1.99701,0.00084 2.98527,0.11457c2.02228,0.23391 4.05791,0.47548 6.04304,0.92966c2.56405,0.58593 5.10124,1.33269 7.58929,2.18476c0.79979,0.27433 1.74339,0.45996 2.24666,1.18254c1.94838,2.80365 3.33687,5.49617 4.55857,8.44602c0.91886,2.21008 0.91448,4.63114 1.42808,6.9309c0.71707,3.22843 1.08007,6.16739 2.34652,8.95915c0.59881,1.35873 2.12816,1.9401 3.38725,2.62141c3.87803,2.16816 8.23766,3.31857 12.04419,5.54478c2.00241,1.16981 4.22729,2.72097 6.00137,4.61505c1.42739,1.82823 2.55475,3.97428 3.34517,6.30691c1.03232,3.06714 1.84982,6.41131 1.42431,9.62134c-0.2306,1.74222 -1.60545,3.53819 -3.24882,4.16027c-4.17236,1.57968 -8.78188,1.79695 -13.23418,2.08271c-2.71718,0.17482 -5.49673,-0.0751 -8.14416,-0.71129c-6.43677,-1.54619 -12.67786,-3.88015 -15.76801,-4.59149z" id="ID0.13154677860438824" fill="#ffffff" stroke="#ffffff" stroke-width="1.65977"/><path d="M198.60492,171.95607c-0.06593,-0.67616 -0.78228,2.156 0,0c3.13172,-8.62424 4.40592,-18.15933 9.40313,-25.89829c2.40337,-3.72242 7.78739,-4.82672 11.84088,-6.99912c1.01318,-0.54285 1.06328,-0.60348 2.54553,-0.71112c5.92904,-0.42969 11.89203,-0.88555 17.87618,-0.76758c2.28483,0.04527 4.58583,0.61991 6.80918,1.25425c4.39133,1.25196 8.6696,2.93082 12.99697,4.39389c3.02986,1.0242 6.29145,1.55575 9.09796,3.07565c4.13295,2.23871 8.04425,4.97126 11.4939,8.07697c1.75639,1.58189 3.63625,3.56712 3.87817,5.76444c0.37826,3.44844 -1.37339,6.69443 -2.14535,10.0148c-0.19292,0.83065 -0.41455,1.25766 -0.62155,1.88564c-0.20703,0.62776 -0.39528,1.1992 -0.62147,1.88552c-0.90551,2.74717 -1.76914,5.51802 -2.71899,8.24915c-0.86983,2.49835 -1.78058,4.99141 -2.74593,7.45431c-0.24362,0.61962 -0.47993,1.22821 -0.88146,1.79766c-1.60567,2.27684 -3.29242,4.51589 -5.08538,6.6634c-3.77391,4.52182 -6.94625,9.64095 -11.62587,13.35881c-2.30914,1.83463 -5.72414,2.12928 -8.72737,2.81245c-1.50566,0.34291 -3.13323,0.48851 -4.70291,0.2439c-4.70434,-0.7333 -9.48162,-1.53624 -13.9829,-3.15556c-3.67684,-1.32267 -7.17077,-3.2844 -10.296,-5.57633c-3.53891,-2.59632 -6.72438,-5.55401 -9.71205,-8.57487c-3.16071,-3.52345 -5.78499,-7.42214 -8.68066,-11.00287c-0.72405,-0.89539 -1.01984,-1.30246 -1.35342,-2.02916c-0.29213,-0.63538 -0.29415,-1.34121 -0.49594,-2.00144c-0.21532,-0.70364 -0.64727,-1.37044 -0.75594,-2.08929c-0.40809,-2.69879 -0.52612,-5.41907 0.01804,-7.06669z" id="ID0.5297369826585054" fill="#ffd499" stroke="#ffd499" stroke-width="1.37888"/><path d="M251.82946,186.04206c6.23644,2.23461 11.82778,4.0175 21.05505,7.1181c1.02236,0.34459 1.61037,0.41517 2.33932,0.79083c0.6914,0.35696 1.27651,0.87791 1.85843,1.37403c0.54848,0.46775 1.09224,0.95679 1.52477,1.50959c0.4551,0.58233 0.85085,1.21227 1.11736,1.86905c0.32337,0.7964 0.56549,1.62887 0.6362,2.45209c0.06964,0.81604 -0.11598,1.61414 -0.21721,2.41222c-0.08073,0.63081 -0.17588,1.26287 -0.3298,1.87683c-0.15248,0.60973 -0.30844,1.22711 -0.58971,1.78918c-0.2892,0.57937 -0.65663,1.13307 -1.10957,1.61335c-0.44256,0.46986 -0.92176,0.95598 -1.55567,1.21392c-0.63393,0.25796 -1.3919,0.28904 -2.11442,0.27947c-0.82688,-0.01215 -1.66168,-0.19694 -2.4869,-0.34359c-0.72183,-0.12778 -1.47614,-0.6512 -2.15326,-0.47949c-0.75146,0.19047 -1.00056,1.04779 -1.62952,1.43764c-0.59686,0.36991 -1.29252,0.62582 -2.0018,0.81451c-0.6738,0.17894 -1.39859,0.23911 -2.11442,0.27948c-0.75944,0.04257 -1.53527,0.09636 -2.30069,-0.03215c-0.71738,-0.12015 -1.41673,-0.39645 -2.07949,-0.70306c-0.68312,-0.31534 -1.28387,-0.77491 -1.93214,-1.15024c-0.72483,-0.42 -1.62431,-0.65347 -2.19201,-1.23823c-0.56764,-0.58458 -0.76417,-1.37677 -1.04361,-2.09262c-0.24456,-0.62552 0.09773,-1.53085 -0.5238,-1.91698c-0.62154,-0.38614 -1.40577,0.20489 -2.11441,0.27947c-0.7864,0.08214 -1.56967,0.24286 -2.37433,0.19148c-0.72549,-0.04635 -1.44424,-0.28134 -2.15332,-0.47934c-0.70386,-0.19619 -1.38696,-0.46894 -2.07949,-0.70305c-0.69242,-0.23406 -1.41674,-0.39645 -2.07949,-0.70306c-0.68309,-0.31536 -1.26426,-0.80624 -1.93213,-1.15025c-0.73286,-0.37798 -1.55349,-0.60176 -2.26572,-1.01446c-0.67149,-0.38914 -1.30423,-0.8536 -1.85831,-1.37395c-0.55783,-0.52361 -1.10346,-1.09089 -1.4511,-1.73336c-0.32601,-0.60239 -0.49115,-1.27258 -0.5238,-1.91698c-0.03251,-0.64433 0.17585,-1.26288 0.32986,-1.87698c0.1524,-0.60962 0.76945,-1.15665 0.58961,-1.78905c-0.18039,-0.6377 -0.90087,-1.12683 -1.5247,-1.50973c-0.61893,-0.38017 -1.38696,-0.46893 -2.07949,-0.70305c-0.69252,-0.23411 -1.41547,-0.39991 -2.07955,-0.70291c-1.43318,-0.65466 -2.98395,-1.20175 -4.19776,-2.16486c-1.21019,-0.95987 -2.26788,-2.1616 -2.90204,-3.46664c-0.61015,-1.25517 -0.57012,-2.64559 -0.71387,-3.96965c-0.07161,-0.65957 -0.04255,-1.32581 0.06975,-1.96491c0.10868,-0.62047 0.35316,-1.20794 0.58985,-1.78912c0.26771,-0.65816 0.61093,-1.28577 0.92323,-1.92484c0.2778,-0.56933 0.45267,-1.19811 0.8496,-1.70119c0.44059,-0.55806 1.0432,-1.00151 1.62952,-1.43764c0.56374,-0.41995 1.1505,-0.83297 1.81566,-1.12608c1.25857,-0.55391 2.47428,-1.67594 3.93021,-1.40549c0.89392,0.16601 0.53106,1.58248 0.96993,2.3164c0.37689,0.63051 1.01878,1.12682 1.45095,1.73329c0.42607,0.59739 0.69145,1.27175 1.11737,1.86905c0.43216,0.60644 0.94836,1.16868 1.45107,1.73336c0.55033,0.61957 1.1302,1.22315 1.71092,1.82114c0.49718,0.51107 1.01674,1.00692 1.5247,1.50972c0.50797,0.5028 0.95035,1.06793 1.5247,1.50973c0.58709,0.45204 1.28858,0.76762 1.93214,1.15024c0.64356,0.38264 1.24994,0.83231 1.93205,1.15039c1.90921,0.88989 3.84595,1.75643 5.64486,2.15686z" id="ID0.6850537364371121" fill="#663b00" stroke="#663b00" stroke-width="1.3476"/><path d="M217.03118,151.98975c-0.40528,2.28456 -1.45096,4.40186 -2.17522,6.59943c-0.414,1.25572 -0.82913,2.51538 -1.24302,3.77115c-0.20703,0.62776 -0.37121,1.27333 -0.62148,1.88551c-0.25194,0.61678 -0.54744,1.21899 -0.88145,1.79764c-0.34185,0.59167 -0.72466,1.16429 -1.1414,1.7098c-0.43147,0.56565 -1.00711,1.0322 -1.40139,1.62194c-0.37165,0.55641 -0.38301,1.33733 -0.88146,1.79763c-0.52489,0.48476 -1.33725,0.61774 -2.0256,0.88684c-0.74837,0.29295 -1.48902,0.62198 -2.28576,0.79903c-0.77302,0.17137 -1.58447,0.23869 -2.39021,0.2397c-0.7435,0.00124 -1.49017,-0.19453 -2.23502,-0.23158c-0.77171,-0.03882 -1.54136,0.08348 -2.31248,0.00414c-0.72753,-0.07517 -1.44845,-0.26861 -2.15723,-0.4675c-0.79132,-0.22136 -1.57543,-0.48636 -2.33947,-0.79091c-0.6845,-0.27212 -1.39751,-0.52476 -2.00175,-0.93863c-0.67042,-0.45922 -1.20751,-1.07359 -1.76877,-1.64581c-0.59264,-0.60367 -1.19928,-1.20707 -1.69114,-1.88146c-0.44154,-0.60607 -0.8126,-1.26485 -1.09352,-1.9415c-0.31221,-0.75302 -0.53132,-1.53969 -0.67818,-2.32487c-0.27189,-1.45399 -0.52677,-2.92446 -0.57658,-4.3862c-0.02259,-0.67504 0.27777,-1.30908 0.3615,-1.97335c0.0967,-0.75951 0.03066,-1.54778 0.17941,-2.29706c0.14507,-0.73156 0.46635,-1.41504 0.6991,-2.12115c0.62086,-1.88376 1.20105,-3.78742 1.86448,-5.65665c0.69065,-1.94812 1.29847,-3.94312 2.20207,-5.80444c0.30889,-0.63538 0.83126,-1.17552 1.4014,-1.62193c1.77597,-1.39148 3.64207,-2.70529 5.6082,-3.86701c0.68061,-0.4029 1.47324,-0.67967 2.28563,-0.79911c0.83564,-0.12293 1.71568,0.01533 2.57253,0.08392c0.83308,0.06683 1.67459,0.1365 2.49486,0.31937c0.71156,0.15885 1.40616,0.41785 2.07949,0.70306c1.35672,0.57508 2.7513,1.1124 4.00369,1.87751c0.69438,0.42438 1.2074,1.0735 1.76877,1.64581c0.59264,0.60367 1.20617,1.20306 1.69099,1.88138c0.50968,0.71189 0.91311,1.48645 1.27589,2.26502c0.31547,0.67674 0.5406,1.38558 0.7558,2.0892c0.20194,0.66028 0.43073,1.32651 0.49597,2.00144c0.15446,1.58934 0.43586,3.22153 0.41833,2.23707z" id="ID0.18091836478561163" fill="#ffd499" stroke="#ffd499" stroke-width="1.37888"/><path d="M226.3319,136.74468c1.45236,0.43559 1.87682,2.50288 1.82848,3.91887c-0.06877,1.89843 -1.29659,3.4742 -1.71929,5.39128c-0.42466,2.13349 -0.38668,4.36032 -0.48122,6.54349c-0.13718,3.13683 0.17247,6.54118 -0.63349,9.6353c-0.50483,2.01207 -1.4993,4.22625 -3.17914,5.78861c-1.74238,1.39123 -4.07665,2.68103 -6.59175,2.64386c-1.99104,-0.05277 -3.58417,-2.1474 -5.0291,-3.32433c-0.59564,-0.48221 -1.03068,-1.23065 -1.09338,-1.94143c-0.12915,-1.44558 0.27515,-2.8649 0.54073,-4.27035c0.12329,-0.65087 0.41456,-1.25766 0.62147,-1.88552c0.41402,-1.25572 0.82914,-2.51539 1.24302,-3.77115c0.20703,-0.62776 0.41456,-1.25766 0.62147,-1.88552c0.64676,-1.96186 1.45521,-3.88164 1.94222,-5.89222c0.31719,-1.30961 0.30975,-2.69303 0.46317,-4.03487c0.25643,-2.25408 -1.56487,-5.75965 0.36111,-7.05544c3.10757,-1.73978 7.64329,-0.89804 11.10566,0.13941z" id="ID0.337260561529547" fill="#995900" stroke="#995900" stroke-width="1.37888"/><g id="ID0.45443833339959383" fill="#ffd499"><path d="M252.32022,186.07509c-0.45994,-1.3124 0.37375,-2.6655 1.0792,-3.78629c0.76035,-1.20755 1.95498,-2.18426 3.20675,-3.02222c1.15793,-0.77522 2.51361,-1.3676 3.9373,-1.76054c2.12161,-0.58427 4.3154,-1.26495 6.62074,-1.14956c2.89011,0.14439 5.74129,1.21367 8.59003,1.90898c0.90382,0.22044 1.84794,0.41139 2.66754,0.84049c1.79923,0.94099 3.64343,1.94395 5.059,3.30993c1.28231,1.21265 2.17035,2.81535 3.02379,4.36601c0.88731,1.78534 1.8971,3.62859 2.17602,5.59014c0.35114,2.47771 0.59288,5.16536 -0.50702,7.34259c-0.92559,1.83106 -2.85426,3.52053 -5.1755,3.90236c-4.1552,0.68247 -8.69012,-0.30133 -13.01977,-0.91319c-1.48235,-0.20947 -2.92216,-0.84766 -4.25531,-1.52808c-1.41438,-0.72173 -2.61937,-1.74372 -3.90629,-2.63735c-1.22451,-0.85052 -2.77667,-1.47111 -3.6364,-2.59908c-2.36503,-3.10441 -4.64067,-6.3833 -4.68485,-7.14951z" id="ID0.13960243156179786" stroke="#ff9400" stroke-width="1.32792"/><path d="M251.57625,182.28016c-0.47172,-1.12065 0.15278,-1.7588 0.81571,-2.29191c1.34133,-1.07329 2.82315,-1.79413 4.39175,-2.08742c3.46674,-0.68528 7.10317,-1.01902 10.4719,-0.79833c2.6828,0.1798 5.32583,1.12579 7.96849,1.771c0.83835,0.20443 1.6897,0.42618 2.47452,0.77954c1.15522,0.52263 2.22833,1.03361 3.27876,1.58094c0.62688,0.4256 1.29861,0.84809 1.72932,1.31905c0.94688,1.07867 1.71538,2.28157 2.33944,3.46854c0.96274,1.85898 2.07983,3.68217 2.39556,5.58292c0.47805,2.47902 1.02041,5.21552 -0.05191,7.34313c-0.93714,1.83892 -3.11014,3.31302 -5.4638,3.69834c-3.85688,0.53651 -8.04307,-0.49961 -12.05992,-1.10249c-1.37431,-0.20622 -2.71079,-0.78631 -3.94749,-1.4176c-1.31197,-0.66948 -2.42985,-1.61745 -3.62359,-2.44643c-1.13588,-0.78906 -2.61864,-1.34334 -3.37323,-2.41113c-2.86427,-4.05419 -5.45964,-8.50286 -7.34557,-12.98814z" id="ID0.13960243156179786" stroke="#ffd499" stroke-width="1.23184"/></g><g id="ID0.21591548016294837" fill="none" stroke="#ff9400" stroke-width="0.60438"><path d="M193.98983,144.71894c0,0 1.93459,-0.71515 2.89163,-1.08918c0.30168,-0.11798 0.45227,-0.45345 0.88793,-0.3888c1.74199,0.25781 3.92195,0.05228 5.14942,1.28155c1.66686,1.66898 2.44798,4.14631 2.46709,6.34544c0.02644,3.00885 -0.99479,5.96866 -2.33645,8.62526c-1.3744,2.72223 -5.68643,7.2632 -5.68643,7.2632" id="ID0.13139065401628613"/><path d="M204.58848,155.46072c0,0 -2.28033,1.46399 -3.61978,1.76155c-0.93677,0.20786 -1.9618,-0.19048 -2.93884,-0.30446c-0.61521,-0.07757 -2.11893,-0.48681 -2.11893,-0.48681" id="ID0.8190059051848948"/></g><path d="M214.7137,137.66596c-0.43756,-0.02208 0.22547,-0.09402 0.11087,-0.29462c-0.45902,-0.80008 -1.48,-1.37698 -1.5872,-2.28012c-0.11267,-0.94426 0.29125,-2.01696 0.99864,-2.65223c0.67629,-0.6082 1.77737,-0.54072 2.69701,-0.66691c1.0536,-0.14441 2.14615,0.01275 3.19805,-0.14176c3.88178,-0.56923 7.71716,-1.43875 11.59485,-2.02703c2.91141,-0.44218 5.83609,-0.93436 8.78696,-1.06552c1.33746,-0.05901 2.67916,0.27128 4.00517,0.49863c0.8641,0.14774 1.6981,0.4604 2.55918,0.62725c0.98443,0.19161 1.99351,0.24721 2.97606,0.44767c1.61345,0.32888 3.22174,0.70846 4.81226,1.13904c1.57939,0.42654 3.12855,0.9816 4.70113,1.43384c0.94732,0.27187 1.93144,0.42714 2.86514,0.74242c1.96008,0.66258 3.9026,1.39811 5.81437,2.18933c1.1111,0.46012 2.15283,1.08252 3.25511,1.56221c0.79861,0.34777 1.65888,0.55331 2.4482,0.92178c1.68758,0.78898 3.3133,1.71609 4.9804,2.54837c1.07525,0.53675 2.19901,0.98962 3.25524,1.56231c0.97498,0.52861 1.93763,1.09698 2.83818,1.74159c0.75421,0.53965 1.38882,1.22958 2.11527,1.80593c1.42492,1.1301 3.26392,1.86975 4.34148,3.31714c0.66197,0.88863 1.07056,2.57964 0.53144,3.22847c-0.41923,0.50432 -1.63301,-0.61494 -2.4482,-0.92178c-2.54729,-0.95921 -5.07735,-1.99398 -7.65053,-2.88085c-0.93262,-0.32163 -1.89929,-0.54559 -2.86513,-0.74243c-0.98239,-0.20038 -2.0072,-0.18511 -2.97607,-0.44768c-1.15557,-0.31262 -2.24497,-0.84533 -3.36616,-1.26756c-1.0196,-0.38395 -2.02211,-0.8246 -3.06012,-1.15232c-2.60387,-0.82024 -5.24736,-1.54242 -7.87239,-2.29136c-1.05251,-0.30068 -2.13767,-0.49933 -3.17119,-0.85764c-2.67552,-0.9266 -5.28102,-2.06927 -7.95645,-2.99601c-1.03356,-0.35818 -2.10529,-0.61505 -3.17125,-0.85751c-1.18593,-0.26903 -2.38569,-0.49734 -3.58798,-0.67822c-1.77264,-0.26635 -3.56189,-0.44346 -5.34034,-0.66486c-0.88928,-0.11013 -1.34117,-0.40949 -2.66999,-0.33242c-5.31283,0.30898 -10.59753,1.04862 -15.90607,1.41315c-1.7433,0.12013 -3.50554,0.12685 -6.22784,1.69255z" id="ID0.8465245454572141" fill="#ffffff" stroke="#ffffff" stroke-width="1.69196"/><path d="M256.9015,165.17332c0.97744,0.59298 0.02448,-1.31603 -0.61882,-2.11353c-0.48612,-0.60207 -0.81357,-1.30619 -1.17475,-1.98065c-0.33685,-0.62865 -0.58471,-1.29946 -0.92156,-1.92811c-0.36119,-0.67446 -0.73159,-1.34984 -1.17477,-1.98067c-0.44314,-0.63096 -0.88866,-1.28115 -1.4776,-1.79542c-0.54592,-0.47655 -1.19633,-0.86263 -1.87897,-1.13426c-0.63972,-0.25468 -1.35218,-0.28046 -2.02708,-0.42052c-0.75915,-0.15751 -1.52143,-0.3156 -2.2806,-0.47296c-0.6749,-0.14006 -1.67732,0.14622 -2.02707,-0.42052c-0.39413,-0.63763 0.17949,-1.46159 0.44424,-2.14125c0.30738,-0.78872 0.90827,-1.44828 1.25366,-2.22134c0.80519,-1.80211 1.4269,-3.68307 2.19797,-5.49934c0.26196,-0.61563 0.19367,-1.7793 0.90158,-1.79822c2.23317,-0.0578 4.54159,0.60669 6.53873,1.60463c1.25853,0.62928 2.01295,1.94126 2.80051,3.06237c0.45291,0.64485 0.55908,1.45309 0.87202,2.1661c0.28479,0.65066 0.70477,1.2558 0.92156,1.9281c0.21557,0.66812 0.29618,1.36975 0.36534,2.0609c0.0746,0.74612 0.077,1.49885 0.06258,2.24631c-0.01199,0.6536 -0.13683,1.30163 -0.14155,1.95584c-0.00445,0.66901 0.11661,1.33933 0.112,2.00831c-0.00452,0.6541 -0.03225,1.31242 -0.14137,1.95586c-0.28415,1.67496 -0.01623,4.10884 -1.03645,4.99597z" data-paper-data="{&quot;index&quot;:null,&quot;origRot&quot;:0}" id="ID0.9297824092209339" fill="#663b00" stroke="#663b00" stroke-width="1.32298"/><path d="M268.23279,168.20453c2.14545,-2.63771 5.14068,-5.01008 7.78259,-7.43219c0.66041,-0.60582 0.74391,-0.49798 1.12381,-0.73421c0.30724,-0.19095 0.59298,-0.4316 0.93896,-0.54828c1.23949,-0.41703 2.51801,-0.7465 3.79785,-1.04647c0.4337,-0.10175 0.8847,-0.16786 1.33712,-0.15614c0.83325,0.0217 1.67994,0.0719 2.50318,0.2559c0.48086,0.10752 0.96222,0.3112 1.36514,0.60793c0.59947,0.44085 1.17445,0.95688 1.59249,1.56824c0.52845,0.77293 1.44152,1.56378 1.33627,2.42024c-0.31735,2.53819 -1.66895,4.78309 -2.51996,7.09167c-0.21275,0.57702 -0.12431,1.1942 -0.54085,0.9402c-1.66608,-1.01544 -2.68644,-2.9372 -4.36505,-3.93042c-1.21878,-0.72132 -2.6988,-0.7915 -4.06759,-1.0598c-0.50698,-0.09934 -1.02689,-0.06067 -1.53614,-0.03985c-0.44997,0.01853 -0.89155,0.10438 -1.33692,0.1561c-0.44544,0.05185 -0.90028,0.06632 -1.33713,0.15615c-1.21349,0.24917 -2.4278,0.51882 -3.61298,0.86055c-0.84036,0.24227 -2.99733,1.54975 -1.67873,1.29234z" data-paper-data="{&quot;index&quot;:null}" id="ID0.15800268715247512" fill="#663b00" stroke="#663b00" stroke-width="0.71418"/></g><path d="M239.08333,149.34189l15.33333,20.33333l-17.66667,-12" fill="none" stroke="#ff9400" stroke-width="3.82813"/><path d="M282.5,169.38911l-10,5.33333l8.33333,1.33333" fill="none" stroke="#ff9400" stroke-width="3.82813"/><path d="M317.22424,332.30806c-1.68573,1.6653 1.24018,-0.75768 3.19573,-3.82098c1.46756,-2.29832 3.14303,-4.66311 3.61158,-7.34975c0.47971,-2.75079 0.07281,-5.71363 -0.87688,-8.33929c-1.41861,-3.92088 -4.34676,-7.15292 -6.0965,-10.93826c-0.59718,-1.29165 -1.04014,-2.76362 -0.88901,-4.17841c0.14738,-1.37801 0.99547,-2.61026 1.73858,-3.78023c0.74847,-1.17814 1.65881,-2.27574 2.69809,-3.20663c2.05591,-1.83992 4.22392,-3.58779 6.54909,-5.07297c1.14198,-0.7293 2.4438,-1.26774 3.77477,-1.52107c1.36095,-0.25816 2.80736,-0.28616 4.16083,0.01222c1.35334,0.29843 2.61026,0.99547 3.78023,1.73858c1.17814,0.74847 2.28757,1.6476 3.20659,2.69819c0.9317,1.06487 1.70773,2.29093 2.28773,3.5817c0.60414,1.34537 0.95108,2.80621 1.23419,4.2546c0.28601,1.46196 0.60355,2.96417 0.46765,4.44763c-0.4249,4.6404 -1.14027,9.27761 -2.14344,13.82811c-0.70007,3.17505 -1.86833,6.24101 -2.95644,9.30444c-0.50289,1.4141 -1.08706,2.81238 -1.81468,4.12545c-1.48011,2.6707 -2.85679,5.45683 -4.79956,7.81195c-1.71633,2.07989 -4.06594,3.55455 -6.06923,5.35976c-1.00672,0.90764 -1.72344,2.24704 -2.9674,2.78524c-1.29843,0.56228 -2.84332,0.57726 -4.23693,0.333c-1.3643,-0.23918 -2.53688,-1.12771 -3.78018,-1.73845c-1.20482,-0.59154 -2.84717,-0.74216 -3.56957,-1.87314c-0.6464,-1.01215 -0.50423,-2.55064 0.07073,-3.60483z" data-paper-data="{&quot;index&quot;:null,&quot;origRot&quot;:0}" id="ID0.40621996903792024" fill="#003fff" stroke="#003fff" stroke-width="4"/></g></g></svg>