<svg version="1.1" xmlns="http://www.w3.org/2000/svg" xmlns:xlink="http://www.w3.org/1999/xlink" width="194.02124" height="331.9956" viewBox="0,0,194.02124,331.9956"><defs><linearGradient x1="247.61804" y1="132.44621" x2="250.88648" y2="148.04735" gradientUnits="userSpaceOnUse" id="color-1"><stop offset="0" stop-color="#1f007b"/><stop offset="1" stop-color="#000304"/></linearGradient><linearGradient x1="274.67391" y1="124.36149" x2="277.94235" y2="139.96263" gradientUnits="userSpaceOnUse" id="color-2"><stop offset="0" stop-color="#1f007b"/><stop offset="1" stop-color="#000304"/></linearGradient></defs><g transform="translate(-119.3301,-46.35706)"><g data-paper-data="{&quot;isPaintingLayer&quot;:true}" fill-rule="nonzero" stroke-width="2.5" stroke-linejoin="miter" stroke-miterlimit="10" stroke-dasharray="" stroke-dashoffset="0" style="mix-blend-mode: normal"><g data-paper-data="{&quot;index&quot;:null,&quot;origRot&quot;:0}" stroke-linecap="round"><path d="M194.42224,252.46045c0,0 -15.45631,18.13586 -20.03722,14.62221c-4.66684,-3.57955 7.73521,-30.04087 7.73521,-30.04087" data-paper-data="{&quot;origPos&quot;:null}" fill="#2e00b8" stroke="#2e00b8"/><path d="M233.47129,199.35339c0,0 -6.32562,18.11354 -11.28274,29.21263c-6.51465,14.5864 -18.11226,36.60324 -18.11226,36.60324l-39.58897,-25.96561c0,0 17.1405,-20.93004 29.53575,-32.70306c9.84485,-9.35065 27.45175,-21.42372 27.45175,-21.42372" data-paper-data="{&quot;origPos&quot;:null}" fill="#009fb8" stroke="#009fb8"/></g><path d="M244.11351,167.39741l1.14264,8.68406l10.96934,0.45706l-8.91259,11.4264l-22.62427,-14.16874l9.36965,1.5997l-0.45706,-7.54142z" fill="#3f00ff" stroke="#2e00b8" stroke-linecap="round"/><g data-paper-data="{&quot;origRot&quot;:0}"><path d="M121.3855,337.2325l23.04052,-15.87174l33.84001,28.64086l-9.43209,11.48479l5.97929,8.01282l-6.86591,7.14137z" data-paper-data="{&quot;origPos&quot;:null}" fill="#bb5500" stroke="#bb5500" stroke-linecap="butt"/><path d="M136.48693,324.67838c0,0 2.32683,-4.21197 4.79323,-6.08086c6.08624,-4.61178 17.12188,-10.52505 17.12188,-10.52505l29.40726,22.26898c0,0 -3.31983,16.03988 -7.20556,22.72233c-1.29524,2.22748 -4.80643,4.88536 -4.80643,4.88536c0,0 -4.14505,-4.67409 -5.48255,-8.22935c-1.05571,-2.80622 -0.64974,-8.0712 -0.64974,-8.0712c0,0 -4.06046,3.22779 -6.94731,3.65248c-3.68492,0.54211 -9.89205,-1.17518 -9.89205,-1.17518c0,0 -2.83674,-7.08257 -3.42465,-11.41516c-0.24466,-1.80306 1.2913,-4.30669 1.2913,-4.30669c0,0 -3.03,0.58391 -5.04441,0.05559c-3.52942,-0.92567 -9.16098,-3.78125 -9.16098,-3.78125z" data-paper-data="{&quot;origPos&quot;:null}" fill="#2e00b8" stroke="#2e00b8" stroke-linecap="butt"/><path d="M261.38359,244.39836l-78.25766,100.95346l-36.10853,-30.56085l90.6303,-82.14369" data-paper-data="{&quot;origPos&quot;:null}" fill="#306e7b" stroke="#306e7b" stroke-linecap="round"/><path d="M168.6146,361.92102l-19.1609,-17.09042" fill="none" stroke="#bb5500" stroke-linecap="round"/></g><g data-paper-data="{&quot;origRot&quot;:0}"><path d="M219.76383,335.58757l18.8547,-20.67071l39.43993,20.24687l-6.59076,13.32017l7.63632,6.45319l-5.07322,8.50896z" data-paper-data="{&quot;origPos&quot;:null}" fill="#ff9b00" stroke="#bb5500" stroke-linecap="butt"/><path d="M231.6353,319.94379c0,0 1.31412,-4.62903 3.29403,-7.00723c4.88576,-5.86859 14.29839,-14.12413 14.29839,-14.12413l33.68116,15.0424c0,0 0.3932,16.37512 -1.8808,23.76314c-0.758,2.46268 -3.57722,5.84568 -3.57722,5.84568c0,0 -5.09462,-3.61572 -7.2014,-6.77645c-1.66292,-2.49482 -2.45802,-7.71521 -2.45802,-7.71521c0,0 -3.22539,4.06236 -5.94144,5.12885c-3.46689,1.36132 -9.90156,1.09212 -9.90156,1.09212c0,0 -4.36483,-6.25764 -5.91723,-10.34508c-0.64604,-1.70103 0.28398,-4.48713 0.28398,-4.48713c0,0 -2.81948,1.25394 -4.90118,1.19482c-3.64732,-0.10359 -9.77873,-1.61176 -9.77873,-1.61176z" data-paper-data="{&quot;origPos&quot;:null}" fill="#3f00ff" stroke="#2e00b8" stroke-linecap="butt"/><path d="M253.14341,239.00073c0,0 49.4309,-12.13587 57.75218,14.20776c8.32129,26.34363 -29.15455,76.32694 -29.15455,76.32694l-42.08387,-21.60416c0,0 32.58308,-37.04438 31.3705,-48.10412c-1.21809,-11.11001 -38.66258,-18.4058 -38.66258,-18.4058" data-paper-data="{&quot;origPos&quot;:null}" fill="#5c8f99" stroke="#306e7b" stroke-linecap="round"/><path d="M248.82315,336.64189l22.52918,12.31496" fill="none" stroke="#bb5500" stroke-linecap="round"/></g><path d="M263.08133,190.0217c0,0 0.16656,14.94155 1.15079,26.26014c0.79949,9.19419 2.50566,26.3013 2.50566,26.3013h-45.24855c0,0 4.87808,-19.58611 5.80626,-32.85356c0.58799,-8.40475 -1.92128,-22.67875 -1.92128,-22.67875c0,0 -22.26455,-11.13667 -13.25462,-19.65341c8.85616,-8.37138 33.82215,15.76843 33.82215,15.76843c0,0 15.23659,-18.40183 22.88698,-11.25038c7.65039,7.15145 -5.74738,18.10622 -5.74738,18.10622z" fill="#00ffce" stroke="#009fb8" stroke-linecap="round"/><g data-paper-data="{&quot;origRot&quot;:0}"><path d="M279.95985,127.24271c7.18286,-12.02136 29.2117,-11.02312 29.2117,-11.02312c0,0 -3.15019,10.38572 -6.80464,16.70381c-1.56324,2.70266 -6.56504,6.41071 -6.56504,6.41071c0,0 5.64957,1.17676 7.77258,3.36357c3.28015,3.37871 6.07234,10.89738 6.07234,10.89738c0,0 -23.43866,8.40983 -37.30517,0.81075" data-paper-data="{&quot;origPos&quot;:null,&quot;index&quot;:null}" fill="#2e00b8" stroke="#2e00b8" stroke-linecap="round"/><path d="M224.6451,165.79915c-9.65034,12.52586 -34.49361,14.23109 -34.49361,14.23109c0,0 -0.46047,-8.00716 1.18769,-12.41835c1.06674,-2.85507 5.7689,-6.20051 5.7689,-6.20051c0,0 -6.06955,-1.3886 -8.58614,-3.23654c-5.88312,-4.31997 -12.93706,-12.56792 -12.93706,-12.56792c0,0 19.77577,-9.75629 31.17979,-1.62889" data-paper-data="{&quot;origPos&quot;:null}" fill="#3f00ff" stroke="#2e00b8" stroke-linecap="round"/><path d="M201.14888,138.06931c-4.71269,-22.49495 11.2048,-44.86579 35.55271,-49.96668c24.34791,-5.10089 38.26746,11.46438 47.25074,32.61936c11.75182,27.67469 -5.83667,43.74117 -30.18458,48.84206c-24.34791,5.10089 -47.90618,-8.99979 -52.61887,-31.49474z" data-paper-data="{&quot;origPos&quot;:null}" fill="#3f00ff" stroke="#2e00b8" stroke-linecap="butt"/><path d="M201.57268,127.55404c0,0 -8.30295,4.67608 -11.41046,4.2925c-7.97711,-0.98465 -18.5454,-8.52377 -18.5454,-8.52377c0,0 6.39894,-3.73444 10.98947,-3.76252c4.14602,-0.02535 11.39682,3.62564 11.39682,3.62564c0,0 -5.79492,-3.70892 -7.92099,-7.08695c-2.5862,-4.10911 -4.15362,-12.09792 -4.15362,-12.09792c0,0 8.62337,1.47578 12.99947,4.45321c3.5756,2.43278 7.37578,9.40979 7.37578,9.40979c0,0 9.56716,-21.03402 4.05403,-35.51575c-5.48537,-14.40881 -32.47265,-21.92289 -32.47265,-21.92289c0,0 57.80575,-21.68712 83.28156,-8.64344c25.47581,13.04368 16.24319,42.9505 16.24319,42.9505c0,0 5.27782,-0.58357 8.21621,-1.98581c2.80926,-1.34061 6.51143,-5.04241 6.51143,-5.04241c0,0 0.55838,6.7723 -0.42785,10.04342c-0.89267,2.96075 -4.03961,8.75444 -4.03961,8.75444" data-paper-data="{&quot;origPos&quot;:null}" fill="#3f00ff" stroke="#2e00b8" stroke-linecap="round"/><path d="M211.52924,128.27004c13.32248,12.37049 9.92014,55.71031 9.92014,55.71031c0,0 -28.00969,-39.47668 -22.73975,-53.37485" data-paper-data="{&quot;origPos&quot;:null}" fill="#3f00ff" stroke="#2e00b8" stroke-linecap="round"/><path d="M283.58384,104.41876c8.98878,3.77037 4.62313,20.39572 4.62313,20.39572c0,0 -6.19355,-0.3138 -8.7895,-1.4738c-6.15047,-2.74833 -13.62212,-8.54079 -13.62212,-8.54079c0,0 1.08187,5.53072 0.30591,8.48162c-1.04982,3.9924 -4.98424,9.30972 -4.98424,9.30972c0,0 -8.53537,-1.17821 -13.36441,-3.18598c-6.10087,-2.53656 -14.64214,-8.45834 -14.64214,-8.45834c0,0 0.39157,5.03407 -0.78123,7.88184c-1.90749,4.63171 -7.11161,11.2834 -7.11161,11.2834c0,0 -12.82323,-1.73356 -20.23551,-14.67329" data-paper-data="{&quot;origPos&quot;:null}" fill="#3f00ff" stroke="#2e00b8" stroke-linecap="round"/><g data-paper-data="{&quot;origPos&quot;:null}" fill="#ffffff" stroke-linecap="round"><path d="M255.49306,142.52528c0,0 5.1932,5.00609 0.25541,9.57792c-4.93779,4.57183 -16.38882,5.35975 -16.38882,5.35975z" data-paper-data="{&quot;origPos&quot;:null}" stroke="none"/><path d="M238.59116,157.97418c0,0 -20.17164,-5.70895 -9.70716,-20.15603c5.2994,-7.31625 15.05885,-10.00232 22.11949,-4.36683c3.74145,2.98626 5.6798,10.57579 5.6798,10.57579" data-paper-data="{&quot;origPos&quot;:null}" stroke="#2e00b8"/></g><path d="M252.85897,139.49117c0.90255,4.30813 0.01943,8.13886 -1.97249,8.55617c-1.99194,0.41731 -4.33837,-2.73683 -5.24093,-7.04496c-0.90255,-4.30813 -0.01943,-8.13886 1.97249,-8.55617c1.99194,-0.41731 4.33837,2.73683 5.24093,7.04496z" fill="url(#color-1)" stroke="none" stroke-linecap="butt"/><g data-paper-data="{&quot;origPos&quot;:null,&quot;index&quot;:null}" fill="#ffffff" stroke-linecap="round"><path d="M283.39291,148.23798c0,0 -7.25931,3.1319 -11.8177,0.54952c-4.55839,-2.58238 -3.07606,-8.987 -3.07606,-8.987z" data-paper-data="{&quot;origPos&quot;:null}" stroke="none"/><path d="M268.27905,141.59778c0,0 -1.37727,-7.70707 -0.09997,-11.74477c2.41043,-7.61967 9.27718,-8.41679 14.9825,-3.40603c11.26604,9.89454 0.87318,22.00675 0.87318,22.00675" data-paper-data="{&quot;origPos&quot;:null}" stroke="#2e00b8"/></g><path d="M257.03299,168.05121c0,0 -2.25343,-4.9051 -2.96665,-8.30945c-0.48005,-2.29139 -0.09093,-6.28516 -0.09093,-6.28516c0,0 6.77175,-3.16985 11.22359,-4.10251c4.05903,-0.85037 10.58445,-0.46627 10.58445,-0.46627c0,0 2.05115,3.93954 2.54491,6.2964c0.69949,3.33887 0.51266,8.29821 0.51266,8.29821c0,0 -4.56143,2.18144 -7.63843,2.82607c-5.43386,1.13839 -14.16961,1.74272 -14.16961,1.74272z" data-paper-data="{&quot;origPos&quot;:null}" fill="#ff9b00" stroke="#bb5500" stroke-linecap="butt"/><path d="M279.91484,131.40645c0.90255,4.30813 0.01943,8.13886 -1.97249,8.55617c-1.99194,0.41731 -4.33837,-2.73683 -5.24093,-7.04496c-0.90255,-4.30813 -0.01943,-8.13886 1.97249,-8.55617c1.99194,-0.41731 4.33837,2.73683 5.24093,7.04496z" fill="url(#color-2)" stroke="none" stroke-linecap="butt"/></g><g stroke-linecap="round"><path d="M210.23309,249.51171c0,0 -8.15304,22.39051 -13.67233,20.69702c-5.62281,-1.72525 -3.23818,-30.85128 -3.23818,-30.85128" data-paper-data="{&quot;origPos&quot;:null}" fill="#3f00ff" stroke="#2e00b8"/><path d="M228.28681,186.11415c0,0 0.39546,19.18221 -0.37531,31.31353c-1.01295,15.94294 -4.19525,40.62328 -4.19525,40.62328l-46.16266,-10.51229c0,0 8.75588,-25.59683 16.2616,-40.95621c5.96137,-12.19909 18.24613,-29.65895 18.24613,-29.65895" data-paper-data="{&quot;origPos&quot;:null}" fill="#00ffce" stroke="#009fb8"/></g><path d="M244.24235,211.46153l-1.14264,-20.33899" fill="none" stroke="#009fb8" stroke-linecap="round"/><path d="M256.44022,192.0796l1.14264,20.339" fill="none" stroke="#009fb8" stroke-linecap="round"/><path d="M267.75,162.91241c0,2.48528 -2.91015,4.5 -6.5,4.5c-3.58985,0 -6.5,-2.01472 -6.5,-4.5c0,-2.48528 0.66015,-7.25 4.25,-7.25c3.58985,0 8.75,4.76472 8.75,7.25z" fill="none" stroke="#bb5500" stroke-linecap="butt"/></g></g></svg>