<svg version="1.1" xmlns="http://www.w3.org/2000/svg" xmlns:xlink="http://www.w3.org/1999/xlink" width="220.48051" height="274.17226" viewBox="0,0,220.48051,274.17226"><g transform="translate(-165.1106,-140.18622)"><g data-paper-data="{&quot;isPaintingLayer&quot;:true}" fill-rule="nonzero" stroke-linejoin="miter" stroke-miterlimit="10" stroke-dasharray="" stroke-dashoffset="0" style="mix-blend-mode: normal"><path d="M226.24865,160.55739c20.44257,-0.41584 44.08708,15.95984 51.97968,35.34618c17.27389,42.457 18.81249,90.74404 18.29685,136.39468c-0.62376,20.03505 -7.46012,41.83325 -21.62355,55.72222c-11.9678,11.72662 -31.90305,13.23195 -48.65298,12.89096c-12.50839,-0.27445 -25.01678,-4.64075 -32.43532,-13.72264c-12.98244,-15.90162 -22.80452,-35.33786 -23.70273,-54.89054c-2.37859,-45.25143 -0.07485,-92.09967 14.13847,-134.31549c5.95479,-17.78121 23.27026,-37.05111 41.99958,-37.42537z" data-paper-data="{&quot;origPos&quot;:null}" id="ID0.9379957877099514" fill="#cc0000" stroke="#660000" stroke-width="10" stroke-linecap="round"/><path d="M183.92196,248.62427l47.01277,-45.40016l56.06262,27.47251l-29.47105,56.77719z" data-paper-data="{&quot;origPos&quot;:null}" id="ID0.9408396678045392" fill="#ffe9cc" stroke="#660000" stroke-width="10" stroke-linecap="round"/><path d="M234.45144,233.68745c1.30323,0 2.48754,0.69694 3.34416,1.82137c0.85579,1.13025 1.38308,2.68215 1.38308,4.39956c0,1.71658 -0.52728,3.26931 -1.38308,4.39873c-0.85663,1.12442 -2.04093,1.82137 -3.34416,1.82137c-1.30407,0 -2.48837,-0.69694 -3.34416,-1.82137c-0.85579,-1.12941 -1.38391,-2.68215 -1.38391,-4.39873c0,-1.71741 0.52811,-3.26931 1.38391,-4.39956c0.85579,-1.12442 2.0401,-1.82137 3.34416,-1.82137z" id="ID0.6937623028643429" fill="#000000" stroke="#001966" stroke-width="10" stroke-linecap="butt"/><path d="M269.77762,231.51944c1.30323,0 2.48754,0.69694 3.34416,1.82137c0.85579,1.13025 1.38308,2.68215 1.38308,4.39956c0,1.71658 -0.52728,3.26931 -1.38308,4.39873c-0.85663,1.12442 -2.04093,1.82137 -3.34416,1.82137c-1.30407,0 -2.48837,-0.69694 -3.34416,-1.82137c-0.85579,-1.12941 -1.38391,-2.68215 -1.38391,-4.39873c0,-1.71741 0.52811,-3.26931 1.38391,-4.39956c0.85579,-1.12442 2.0401,-1.82137 3.34416,-1.82137z" id="ID0.6937623028643429" fill="#000000" stroke="#001966" stroke-width="10" stroke-linecap="butt"/><path d="M300.82875,146.57488c0,0 26.03591,77.77163 25.95623,129.20161c-0.07968,51.42998 -26.34151,119.47669 -26.34151,119.47669" id="ID0.12495402665808797" fill="none" stroke="#241137" stroke-width="1.52776" stroke-linecap="round"/><path d="M300.31587,409.36387c-1.64317,-3.7556 -5.16844,-8.30747 -2.62522,-11.65252c9.48239,-13.46831 28.0594,-21.8431 36.42053,-35.61211c14.55313,-23.94541 28.81872,-49.69395 30.73423,-76.54502c1.94842,-27.36994 -8.01336,-55.84596 -20.27992,-81.63044c-9.73853,-20.47987 -30.26447,-36.07529 -43.79504,-54.66091c-3.72421,-4.81055 -0.84183,-3.23774 0.60796,-3.89379c4.49264,-1.92412 9.50719,-6.74226 14.75916,-3.06512c18.74305,16.74908 37.16972,35.16714 47.6939,56.2322c13.35745,26.72098 22.44854,55.05778 20.79322,85.27669c-1.65026,30.10906 -14.93937,56.88319 -30.79599,82.32547c-11.43637,18.51273 -32.40828,31.84284 -50.46694,45.99606c-4.34584,3.93277 -2.31542,-1.19821 -3.04589,-2.77051z" id="ID0.4058906128630042" fill="#93570a" stroke="#000000" stroke-width="1.54424" stroke-linecap="butt"/></g></g></svg>