<svg version="1.1" xmlns="http://www.w3.org/2000/svg" xmlns:xlink="http://www.w3.org/1999/xlink" width="550.25806" height="424.70968" viewBox="0,0,550.25806,424.70968"><defs><linearGradient x1="34.66218" y1="73.10518" x2="74.27961" y2="73.10518" gradientUnits="userSpaceOnUse" id="color-1"><stop offset="0" stop-color="#8cfffb"/><stop offset="1" stop-color="#8cd0ff"/></linearGradient><linearGradient x1="34.66218" y1="73.10518" x2="74.27961" y2="73.10518" gradientUnits="userSpaceOnUse" id="color-2"><stop offset="0" stop-color="#ffa48c"/><stop offset="1" stop-color="#ff8ca2"/></linearGradient><linearGradient x1="34.66218" y1="73.10518" x2="74.27961" y2="73.10518" gradientUnits="userSpaceOnUse" id="color-3"><stop offset="0" stop-color="#b0ff8c"/><stop offset="1" stop-color="#8cffc9"/></linearGradient><linearGradient x1="34.66218" y1="73.10518" x2="74.27961" y2="73.10518" gradientUnits="userSpaceOnUse" id="color-4"><stop offset="0" stop-color="#8cfffb"/><stop offset="1" stop-color="#ff8ca2"/></linearGradient><linearGradient x1="18.35537" y1="73.10235" x2="90.58509" y2="73.10235" gradientTransform="translate(-102.70991,-183.76163) scale(5.59534,2.34951)" gradientUnits="userSpaceOnUse" id="color-5"><stop offset="0" stop-color="#2d6fc5"/><stop offset="1" stop-color="#c42d7b"/></linearGradient><linearGradient x1="34.66218" y1="73.10518" x2="74.27961" y2="73.10518" gradientUnits="userSpaceOnUse" id="color-6"><stop offset="0" stop-color="#b0ff8c"/><stop offset="1" stop-color="#ff8ca2"/></linearGradient><linearGradient x1="22.04801" y1="73.10734" x2="86.8902" y2="73.10734" gradientTransform="translate(-105.70781,-214.67578) scale(4.79432,2.77239)" gradientUnits="userSpaceOnUse" id="color-7"><stop offset="0" stop-color="#2dc46b"/><stop offset="1" stop-color="#c42d7b"/></linearGradient><linearGradient x1="409.94499" y1="168.92956" x2="407.88975" y2="178.13595" gradientUnits="userSpaceOnUse" id="color-8"><stop offset="0" stop-color="#1a281f"/><stop offset="1" stop-color="#253131"/></linearGradient><linearGradient x1="409.78965" y1="169.69139" x2="408.04504" y2="177.52065" gradientUnits="userSpaceOnUse" id="color-9"><stop offset="0" stop-color="#3a5946"/><stop offset="1" stop-color="#5f7f7f"/></linearGradient><linearGradient x1="426.58319" y1="169.21201" x2="424.65664" y2="177.84193" gradientUnits="userSpaceOnUse" id="color-10"><stop offset="0" stop-color="#1a281f"/><stop offset="1" stop-color="#253131"/></linearGradient><linearGradient x1="426.4376" y1="169.92612" x2="424.80219" y2="177.26514" gradientUnits="userSpaceOnUse" id="color-11"><stop offset="0" stop-color="#3a5946"/><stop offset="1" stop-color="#5f7f7f"/></linearGradient><linearGradient x1="428.03482" y1="46.68561" x2="423.68043" y2="66.22629" gradientUnits="userSpaceOnUse" id="color-12"><stop offset="0" stop-color="#7f2626"/><stop offset="1" stop-color="#401a1a"/></linearGradient><linearGradient x1="396.22224" y1="39.85745" x2="394.52632" y2="47.46806" gradientUnits="userSpaceOnUse" id="color-13"><stop offset="0" stop-color="#3a5946"/><stop offset="1" stop-color="#5f7f7f"/></linearGradient><linearGradient x1="412.90268" y1="39.25306" x2="411.20676" y2="46.86372" gradientUnits="userSpaceOnUse" id="color-14"><stop offset="0" stop-color="#3a5946"/><stop offset="1" stop-color="#5f7f7f"/></linearGradient><linearGradient x1="422.30503" y1="36.25685" x2="417.12962" y2="59.48195" gradientUnits="userSpaceOnUse" id="color-15"><stop offset="0" stop-color="#401a1a"/><stop offset="1" stop-color="#7f2626"/></linearGradient><linearGradient x1="384.37297" y1="36.72048" x2="379.74591" y2="57.48479" gradientUnits="userSpaceOnUse" id="color-16"><stop offset="0" stop-color="#401a1a"/><stop offset="1" stop-color="#7f2626"/></linearGradient><linearGradient x1="402.48997" y1="17.6594" x2="396.26432" y2="45.59759" gradientUnits="userSpaceOnUse" id="color-17"><stop offset="0" stop-color="#7f2626"/><stop offset="1" stop-color="#401a1a"/></linearGradient><linearGradient x1="375.33864" y1="48.23999" x2="369.81022" y2="73.04926" gradientUnits="userSpaceOnUse" id="color-18"><stop offset="0" stop-color="#7f2626"/><stop offset="1" stop-color="#401a1a"/></linearGradient></defs><g transform="translate(40.54838,34.61283)"><g data-paper-data="{&quot;isPaintingLayer&quot;:true}" fill-rule="nonzero" stroke-linejoin="miter" stroke-miterlimit="10" stroke-dasharray="" stroke-dashoffset="0" style="mix-blend-mode: normal"><path d="M-39.54838,389.09685v-422.70968h548.25806v422.70968z" fill="#f5f5f5" stroke="#000000" stroke-width="2" stroke-linecap="butt"/><path d="M9.10301,261.9917v-253.23621h222.06868v253.23621z" fill="#f5f5f5" stroke="#8e8e8e" stroke-width="3.5" stroke-linecap="butt"/><text transform="translate(13.97297,178.99716) scale(0.29708,0.29708)" font-size="40" xml:space="preserve" fill="#8e8e8e" fill-rule="nonzero" stroke="none" stroke-width="1" stroke-linecap="butt" stroke-linejoin="miter" stroke-miterlimit="10" stroke-dasharray="" stroke-dashoffset="0" font-family="&quot;ヒラギノ角ゴ Pro W3&quot;, &quot;Hiragino Kaku Gothic Pro&quot;, Osaka, &quot;メイリオ&quot;, Meiryo, &quot;ＭＳ Ｐゴシック&quot;, &quot;MS PGothic&quot;" font-weight="normal" text-anchor="start" style="mix-blend-mode: normal"><tspan x="0" dy="0">Pjegypt is a late 2.0 scratcher and </tspan><tspan x="0" dy="46.150000000000006px">has a variety of OCs based off </tspan><tspan x="0" dy="46.150000000000006px">Splatoon's inklings and octolings.</tspan></text><text transform="translate(7.69516,344.82017) scale(1.4788,1.4788)" font-size="40" xml:space="preserve" fill="#8e8e8e" fill-rule="nonzero" stroke="none" stroke-width="1" stroke-linecap="butt" stroke-linejoin="miter" stroke-miterlimit="10" stroke-dasharray="" stroke-dashoffset="0" font-family="&quot;ヒラギノ角ゴ Pro W3&quot;, &quot;Hiragino Kaku Gothic Pro&quot;, Osaka, &quot;メイリオ&quot;, Meiryo, &quot;ＭＳ Ｐゴシック&quot;, &quot;MS PGothic&quot;" font-weight="normal" text-anchor="start" style="mix-blend-mode: normal"><tspan x="0" dy="0">16</tspan></text><text transform="translate(5,356.4341) scale(0.24569,0.24569)" font-size="40" xml:space="preserve" fill="#b6b6b6" fill-rule="nonzero" stroke="none" stroke-width="1" stroke-linecap="butt" stroke-linejoin="miter" stroke-miterlimit="10" stroke-dasharray="" stroke-dashoffset="0" font-family="&quot;ヒラギノ角ゴ Pro W3&quot;, &quot;Hiragino Kaku Gothic Pro&quot;, Osaka, &quot;メイリオ&quot;, Meiryo, &quot;ＭＳ Ｐゴシック&quot;, &quot;MS PGothic&quot;" font-weight="normal" text-anchor="start" style="mix-blend-mode: normal"><tspan x="0" dy="0">Written by @RobloxNoob101</tspan></text><text transform="translate(17.82641,48.94722) scale(0.33747,0.33747)" font-size="40" xml:space="preserve" fill="#8e8e8e" fill-rule="nonzero" stroke="none" stroke-width="1" stroke-linecap="butt" stroke-linejoin="miter" stroke-miterlimit="10" stroke-dasharray="" stroke-dashoffset="0" font-family="&quot;ヒラギノ角ゴ Pro W3&quot;, &quot;Hiragino Kaku Gothic Pro&quot;, Osaka, &quot;メイリオ&quot;, Meiryo, &quot;ＭＳ Ｐゴシック&quot;, &quot;MS PGothic&quot;" font-weight="normal" text-anchor="start" style="mix-blend-mode: normal"><tspan x="0" dy="0">Joined: 12th October 2016</tspan></text><g stroke="none" stroke-linecap="butt"><path d="M75.38528,91.27754c-10.03632,0 -18.17236,-8.13604 -18.17236,-18.17236c0,-10.03632 8.13604,-18.17236 18.17236,-18.17236c10.03632,0 18.17236,8.13604 18.17236,18.17236c0,10.03632 -8.13604,18.17236 -18.17236,18.17236z" data-paper-data="{&quot;index&quot;:null}" fill="#8cd0ff" stroke-width="0"/><path d="M15.38415,73.10518c0,-10.03632 8.13604,-18.17236 18.17236,-18.17236c10.03632,0 18.17236,8.13604 18.17236,18.17236c0,10.03632 -8.13604,18.17236 -18.17236,18.17236c-10.03632,0 -18.17236,-8.13604 -18.17236,-18.17236z" fill="#8cfffb" stroke-width="0"/><path d="M34.66218,91.20377v-36.19726h39.61743v36.19726z" fill="url(#color-1)" stroke-width="0"/><text transform="translate(17.88858,77.26674) scale(0.3607,0.3607)" font-size="40" xml:space="preserve" fill="#2d6fc5" fill-rule="nonzero" stroke="none" stroke-width="1" stroke-linecap="butt" stroke-linejoin="miter" stroke-miterlimit="10" stroke-dasharray="" stroke-dashoffset="0" font-family="&quot;ヒラギノ角ゴ Pro W3&quot;, &quot;Hiragino Kaku Gothic Pro&quot;, Osaka, &quot;メイリオ&quot;, Meiryo, &quot;ＭＳ Ｐゴシック&quot;, &quot;MS PGothic&quot;" font-weight="normal" text-anchor="start" style="mix-blend-mode: normal"><tspan x="0" dy="0">Game Dev</tspan></text></g><g stroke="none" stroke-linecap="butt"><path d="M75.38528,91.27754c-10.03632,0 -18.17236,-8.13604 -18.17236,-18.17236c0,-10.03632 8.13604,-18.17236 18.17236,-18.17236c10.03632,0 18.17236,8.13604 18.17236,18.17236c0,10.03632 -8.13604,18.17236 -18.17236,18.17236z" data-paper-data="{&quot;index&quot;:null}" fill="#ff8ca2" stroke-width="0"/><path d="M15.38415,73.10518c0,-10.03632 8.13604,-18.17236 18.17236,-18.17236c10.03632,0 18.17236,8.13604 18.17236,18.17236c0,10.03632 -8.13604,18.17236 -18.17236,18.17236c-10.03632,0 -18.17236,-8.13604 -18.17236,-18.17236z" fill="#ffa48c" stroke-width="0"/><path d="M34.66218,91.20377v-36.19726h39.61743v36.19726z" fill="url(#color-2)" stroke-width="0"/><text transform="translate(21.58212,77.43356) scale(0.3607,0.3607)" font-size="40" xml:space="preserve" fill="#c42d7b" fill-rule="nonzero" stroke="none" stroke-width="1" stroke-linecap="butt" stroke-linejoin="miter" stroke-miterlimit="10" stroke-dasharray="" stroke-dashoffset="0" font-family="&quot;ヒラギノ角ゴ Pro W3&quot;, &quot;Hiragino Kaku Gothic Pro&quot;, Osaka, &quot;メイリオ&quot;, Meiryo, &quot;ＭＳ Ｐゴシック&quot;, &quot;MS PGothic&quot;" font-weight="normal" text-anchor="start" style="mix-blend-mode: normal"><tspan x="0" dy="0">Animator</tspan></text></g><g stroke="none" stroke-linecap="butt"><path d="M75.38528,91.27754c-10.03632,0 -18.17236,-8.13604 -18.17236,-18.17236c0,-10.03632 8.13604,-18.17236 18.17236,-18.17236c10.03632,0 18.17236,8.13604 18.17236,18.17236c0,10.03632 -8.13604,18.17236 -18.17236,18.17236z" data-paper-data="{&quot;index&quot;:null}" fill="#8cffc9" stroke-width="0"/><path d="M15.38415,73.10518c0,-10.03632 8.13604,-18.17236 18.17236,-18.17236c10.03632,0 18.17236,8.13604 18.17236,18.17236c0,10.03632 -8.13604,18.17236 -18.17236,18.17236c-10.03632,0 -18.17236,-8.13604 -18.17236,-18.17236z" fill="#b0ff8c" stroke-width="0"/><path d="M34.66218,91.20377v-36.19726h39.61743v36.19726z" fill="url(#color-3)" stroke-width="0"/><text transform="translate(34.71165,77.43356) scale(0.3607,0.3607)" font-size="40" xml:space="preserve" fill="#2dc46b" fill-rule="nonzero" stroke="none" stroke-width="1" stroke-linecap="butt" stroke-linejoin="miter" stroke-miterlimit="10" stroke-dasharray="" stroke-dashoffset="0" font-family="&quot;ヒラギノ角ゴ Pro W3&quot;, &quot;Hiragino Kaku Gothic Pro&quot;, Osaka, &quot;メイリオ&quot;, Meiryo, &quot;ＭＳ Ｐゴシック&quot;, &quot;MS PGothic&quot;" font-weight="normal" text-anchor="start" style="mix-blend-mode: normal"><tspan x="0" dy="0">Artist</tspan></text></g><g stroke="none" stroke-linecap="butt"><path d="M75.38528,91.27754c-10.03632,0 -18.17236,-8.13604 -18.17236,-18.17236c0,-10.03632 8.13604,-18.17236 18.17236,-18.17236c10.03632,0 18.17236,8.13604 18.17236,18.17236c0,10.03632 -8.13604,18.17236 -18.17236,18.17236z" data-paper-data="{&quot;index&quot;:null}" fill="#ff8ca2" stroke-width="0"/><path d="M15.38415,73.10518c0,-10.03632 8.13604,-18.17236 18.17236,-18.17236c10.03632,0 18.17236,8.13604 18.17236,18.17236c0,10.03632 -8.13604,18.17236 -18.17236,18.17236c-10.03632,0 -18.17236,-8.13604 -18.17236,-18.17236z" fill="#8cfffb" stroke-width="0"/><path d="M34.66218,91.20377v-36.19726h39.61743v36.19726z" fill="url(#color-4)" stroke-width="0"/><text transform="translate(18.35632,78.21263) scale(0.17872,0.42562)" font-size="40" xml:space="preserve" fill="url(#color-5)" fill-rule="nonzero" stroke="none" stroke-width="1" stroke-linecap="butt" stroke-linejoin="miter" stroke-miterlimit="10" stroke-dasharray="" stroke-dashoffset="0" font-family="&quot;ヒラギノ角ゴ Pro W3&quot;, &quot;Hiragino Kaku Gothic Pro&quot;, Osaka, &quot;メイリオ&quot;, Meiryo, &quot;ＭＳ Ｐゴシック&quot;, &quot;MS PGothic&quot;" font-weight="normal" text-anchor="start" style="mix-blend-mode: normal"><tspan x="0" dy="0">Game Dev/Animator</tspan></text></g><g stroke="none" stroke-linecap="butt"><path d="M75.38528,91.27754c-10.03632,0 -18.17236,-8.13604 -18.17236,-18.17236c0,-10.03632 8.13604,-18.17236 18.17236,-18.17236c10.03632,0 18.17236,8.13604 18.17236,18.17236c0,10.03632 -8.13604,18.17236 -18.17236,18.17236z" data-paper-data="{&quot;index&quot;:null}" fill="#ff8ca2" stroke-width="0"/><path d="M15.38415,73.10518c0,-10.03632 8.13604,-18.17236 18.17236,-18.17236c10.03632,0 18.17236,8.13604 18.17236,18.17236c0,10.03632 -8.13604,18.17236 -18.17236,18.17236c-10.03632,0 -18.17236,-8.13604 -18.17236,-18.17236z" fill="#b0ff8c" stroke-width="0"/><path d="M34.66218,91.20377v-36.19726h39.61743v36.19726z" fill="url(#color-6)" stroke-width="0"/><text transform="translate(22.04854,77.43356) scale(0.20858,0.3607)" font-size="40" xml:space="preserve" fill="url(#color-7)" fill-rule="nonzero" stroke="none" stroke-width="1" stroke-linecap="butt" stroke-linejoin="miter" stroke-miterlimit="10" stroke-dasharray="" stroke-dashoffset="0" font-family="&quot;ヒラギノ角ゴ Pro W3&quot;, &quot;Hiragino Kaku Gothic Pro&quot;, Osaka, &quot;メイリオ&quot;, Meiryo, &quot;ＭＳ Ｐゴシック&quot;, &quot;MS PGothic&quot;" font-weight="normal" text-anchor="start" style="mix-blend-mode: normal"><tspan x="0" dy="0">Artist/Animator</tspan></text></g><text transform="translate(15.20276,106.15927) scale(0.2979,0.2979)" font-size="40" xml:space="preserve" fill="#8e8e8e" fill-rule="nonzero" stroke="none" stroke-width="1" stroke-linecap="butt" stroke-linejoin="miter" stroke-miterlimit="10" stroke-dasharray="" stroke-dashoffset="0" font-family="&quot;ヒラギノ角ゴ Pro W3&quot;, &quot;Hiragino Kaku Gothic Pro&quot;, Osaka, &quot;メイリオ&quot;, Meiryo, &quot;ＭＳ Ｐゴシック&quot;, &quot;MS PGothic&quot;" font-weight="normal" text-anchor="start" style="mix-blend-mode: normal"><tspan x="0" dy="0">Notable Projects:</tspan></text><text transform="translate(15.20276,130.19151) scale(0.36145,0.43347)" font-size="40" xml:space="preserve" fill="#8e8e8e" fill-rule="nonzero" stroke="none" stroke-width="1" stroke-linecap="butt" stroke-linejoin="miter" stroke-miterlimit="10" stroke-dasharray="" stroke-dashoffset="0" font-family="&quot;ヒラギノ角ゴ Pro W3&quot;, &quot;Hiragino Kaku Gothic Pro&quot;, Osaka, &quot;メイリオ&quot;, Meiryo, &quot;ＭＳ Ｐゴシック&quot;, &quot;MS PGothic&quot;" font-weight="normal" text-anchor="start" style="mix-blend-mode: normal"><tspan x="0" dy="0">Here's da champ! (July 2020)</tspan><tspan x="0" dy="46.150000000000006px">ok then (Dec 2020)</tspan></text><text transform="translate(15.43462,35.42792) scale(0.13422,0.13422)" font-size="40" xml:space="preserve" fill="#8e8e8e" fill-rule="nonzero" stroke="none" stroke-width="1" stroke-linecap="butt" stroke-linejoin="miter" stroke-miterlimit="10" stroke-dasharray="" stroke-dashoffset="0" font-family="&quot;ヒラギノ角ゴ Pro W3&quot;, &quot;Hiragino Kaku Gothic Pro&quot;, Osaka, &quot;メイリオ&quot;, Meiryo, &quot;ＭＳ Ｐゴシック&quot;, &quot;MS PGothic&quot;" font-weight="normal" text-anchor="start" style="mix-blend-mode: normal"><tspan x="0" dy="0">@Pjegypt</tspan></text><g stroke-linecap="butt"><text transform="translate(257.05438,104.77763) scale(0.61121,0.61121)" font-size="40" xml:space="preserve" fill="#8e8e8e" fill-rule="nonzero" stroke="none" stroke-width="1" stroke-linecap="butt" stroke-linejoin="miter" stroke-miterlimit="10" stroke-dasharray="" stroke-dashoffset="0" font-family="&quot;ヒラギノ角ゴ Pro W3&quot;, &quot;Hiragino Kaku Gothic Pro&quot;, Osaka, &quot;メイリオ&quot;, Meiryo, &quot;ＭＳ Ｐゴシック&quot;, &quot;MS PGothic&quot;" font-weight="normal" text-anchor="start" style="mix-blend-mode: normal"><tspan x="0" dy="0">2020</tspan></text><path d="M249.94926,123.02128v-118.51155h228.33349v118.51155z" fill="none" stroke="#8e8e8e" stroke-width="3.5"/></g><g stroke-linecap="butt"><text transform="translate(257.05438,223.33537) scale(0.61121,0.61121)" font-size="40" xml:space="preserve" fill="#8e8e8e" fill-rule="nonzero" stroke="none" stroke-width="1" stroke-linecap="butt" stroke-linejoin="miter" stroke-miterlimit="10" stroke-dasharray="" stroke-dashoffset="0" font-family="&quot;ヒラギノ角ゴ Pro W3&quot;, &quot;Hiragino Kaku Gothic Pro&quot;, Osaka, &quot;メイリオ&quot;, Meiryo, &quot;ＭＳ Ｐゴシック&quot;, &quot;MS PGothic&quot;" font-weight="normal" text-anchor="start" style="mix-blend-mode: normal"><tspan x="0" dy="0">2021</tspan></text><path d="M249.94926,241.57903v-118.51155h228.33349v118.51155z" fill="none" stroke="#8e8e8e" stroke-width="3.5"/></g><g><path d="M424.09723,176.98817c3.50789,-2.13285 9.05099,0.57782 12.38085,6.05444c0.38781,0.63782 8.62317,5.48665 8.38393,6.15777c-0.38391,1.07695 -7.93087,1.35898 -7.93087,1.35898c0,0 8.37878,10.77048 7.27488,12.22378c-1.38686,1.82585 -13.80777,-7.25546 -13.80777,-7.25546c0,0 2.79571,7.99828 1.96315,8.0533c-3.32058,0.21939 -5.92421,-8.43589 -8.58653,-12.81464c-3.32986,-5.47661 -3.18552,-11.64531 0.32239,-13.77816z" fill="#973939" stroke="none" stroke-width="0" stroke-linecap="butt"/><path d="M406.44759,190.57974c-2.66232,4.37874 -5.26594,13.03403 -8.58653,12.81464c-0.83257,-0.05501 1.96315,-8.0533 1.96315,-8.0533c0,0 -12.42093,9.08133 -13.80779,7.25546c-1.10389,-1.4533 7.2749,-12.22378 7.2749,-12.22378c0,0 -7.54695,-0.28201 -7.93087,-1.35898c-0.23923,-0.67111 7.99613,-5.51996 8.38393,-6.15777c3.32986,-5.47662 8.87292,-8.1873 12.38084,-6.05444c3.50791,2.13285 3.65224,8.30154 0.32239,13.77816z" fill="#973939" stroke="none" stroke-width="0" stroke-linecap="butt"/><g stroke="#000000" stroke-width="0" stroke-linecap="round"><g fill="#000000"><path d="M422.10385,187.64637l19.3029,39.58497l-48.91832,-0.49792l17.98078,-38.58914z"/><path d="M395.13266,221.00729h42.83659c0,0 6.75817,6.78542 3.96634,7.13691c-2.79181,0.3515 -28.89193,1.46492 -47.86062,-0.58091c-6.48778,-0.69973 1.05769,-6.55599 1.05769,-6.55599z"/></g><g><path d="M421.71613,187.64637l17.82878,38.83255l-45.18254,-0.48847l16.60764,-37.85564z" fill="#804040"/><path d="M396.80468,220.37317h39.56525c0,0 6.24205,6.65644 3.66345,7.00126c-2.57861,0.34481 -26.68553,1.43709 -44.20562,-0.56986c-5.99232,-0.68644 0.97693,-6.4314 0.97693,-6.4314z" fill="#ffffff"/></g></g><g data-paper-data="{&quot;index&quot;:null}" stroke="#000000" stroke-width="0" stroke-linecap="butt"><g fill="#000000"><path d="M406.61867,218.80726c0,0 3.06998,-2.46769 4.36511,-2.41794c1.52118,0.05843 4.85119,3.18044 4.85119,3.18044c0,0 0.10515,13.58365 -0.56849,15.72184c-0.73245,2.32484 -9.98707,0.87388 -11.48892,-0.95387c-0.62069,-1.45748 2.84108,-15.53048 2.84108,-15.53048z"/><path d="M415.28131,205.68846c0.4437,0.72383 0.54221,13.36809 0.54221,13.36809c0,0 -4.05328,1.98511 -5.27117,1.62194c-0.58985,-0.15972 -3.80982,-2.33882 -3.80982,-2.33882c0,0 3.44319,-13.48833 4.26417,-14.74724c0.82097,-1.25891 3.80949,1.33719 4.27463,2.09602z"/></g><g><path d="M407.28953,219.03127c0,0 2.81745,-2.46009 3.97815,-2.44585c1.36327,0.01674 4.27102,2.94126 4.27102,2.94126c0,0 -0.25321,13.09896 -0.9123,15.17886c-0.7166,2.26144 -8.98257,1.10299 -10.28323,-0.6208c-0.51958,-1.38961 2.94635,-15.05344 2.94635,-15.05344z" fill="#ffffff"/><path d="M415.39715,206.15233c0.37956,0.68661 0.14441,12.87967 0.14441,12.87967c0,0 -3.68729,2.02024 -4.77069,1.70167c-0.52509,-0.13869 -3.35827,-2.1566 -3.35827,-2.1566c0,0 3.43429,-13.09944 4.20306,-14.33509c0.76877,-1.23564 3.38358,1.19054 3.7815,1.91034z" fill="#f3c69d"/></g></g><g stroke="#000000" stroke-width="0" stroke-linecap="butt"><g fill="#000000"><path d="M428.2861,234.10692c-1.47877,1.853 -10.71419,3.46069 -11.47571,1.14851c-0.70039,-2.12656 -0.76571,-15.71053 -0.76571,-15.71053c0,0 3.2905,-3.17813 4.81077,-3.26235c1.29439,-0.0717 4.39501,2.3437 4.39501,2.3437c0,0 3.63796,14.01281 3.03564,15.48066z"/><path d="M420.67203,203.48747c0.83668,1.24486 4.44874,14.67339 4.44874,14.67339c0,0 -3.19231,2.23343 -3.78007,2.40314c-1.21322,0.38377 -5.29096,-1.53241 -5.29096,-1.53241c0,0 -0.06016,-12.64457 0.37441,-13.37585c0.45558,-0.76665 3.41121,-3.41311 4.2479,-2.16828z"/></g><g><path d="M427.71733,233.86355c-1.2789,1.74563 -9.52943,3.0441 -10.27434,0.79506c-0.6851,-2.06849 -1.10265,-15.16177 -1.10265,-15.16177c0,0 2.87075,-2.97351 4.23367,-3.01335c1.16041,-0.03392 4.00844,2.37815 4.00844,2.37815c0,0 3.63696,13.60364 3.13487,15.00192z" fill="#ffffff"/><path d="M420.07124,204.14727c0.78419,1.22247 4.38245,14.26229 4.38245,14.26229c0,0 -2.80754,2.06573 -3.33083,2.2133c-1.07927,0.3369 -4.79154,-1.62061 -4.79154,-1.62061c0,0 -0.3881,-12.1878 -0.01719,-12.88076c0.38884,-0.72646 2.97292,-3.1967 3.75711,-1.97423z" fill="#f3c69d"/></g></g><g stroke="none" stroke-width="0" stroke-linecap="butt"><path d="M428.32403,214.39283c0,3.18637 -7.60621,1.19366 -12.74619,1.19366c-5.13997,0 -11.53227,2.19164 -11.53227,-0.99471c0,-3.18637 4.58475,-8.84327 6.27193,-9.5494c1.11413,-0.46628 11.43231,-0.81418 12.61057,0.37773c0.92012,0.93077 5.39595,7.22703 5.39595,8.97271z" fill="#000000"/><path d="M427.46464,213.85441c0,3.011 -7.06773,1.12799 -11.84382,1.12799c-4.77609,0 -10.71583,2.07102 -10.71583,-0.93998c0,-3.011 4.26015,-8.35658 5.8279,-9.02385c1.03525,-0.44063 10.62292,-0.76936 11.71779,0.35693c0.85499,0.87952 5.01396,6.82931 5.01396,8.47892z" fill="#ffffff"/></g><path d="M433.96859,188.20784c0,0 -0.44892,-4.86855 -0.44892,-11.99c0,-7.12145 -0.59566,-12.3084 1.56851,-12.3084c2.16417,0 5.68246,6.35924 5.68246,13.48071c0,7.12145 -6.80206,10.81771 -6.80206,10.81771z" fill="#7f3030" stroke="none" stroke-width="0" stroke-linecap="butt"/><g stroke="none" stroke-width="0" stroke-linecap="butt"><g data-paper-data="{&quot;index&quot;:null}"><path d="M436.05116,208.6746c0.46814,-0.34354 1.6735,0.75693 1.78459,1.05134c0.27529,0.72955 1.45943,1.50456 1.08731,1.77761c-0.80427,0.59018 -1.85664,-0.2648 -2.30793,-0.88193c-0.45129,-0.61712 -1.03214,-1.60349 -0.56399,-1.94704z" fill="#7f3030"/><path d="M435.29912,206.1267c0.47597,-1.15006 1.97015,-2.77913 3.79576,-1.71775c0.28236,0.16418 1.93376,0.73359 2.87876,1.25416c1.1516,0.63436 2.35047,0.67135 2.41517,1.04459c0.23414,1.35037 -2.88097,0.0843 -3.78253,0.19701c-0.07868,0.00983 0.52686,0.47662 1.37283,0.59006c0.99263,0.13309 2.44756,0.24138 2.44406,0.47482c-0.01859,1.24129 -4.80006,0.50718 -4.80006,0.50718c0,0 0.72032,0.47587 1.661,0.69591c1.01365,0.23713 1.57545,0.43405 1.53792,0.68236c-0.21093,1.3958 -4.6293,0.4346 -4.6293,0.4346c0,0 -2.25344,-0.32113 -2.76065,-0.61602c-1.82561,-1.06139 -3.02194,-1.72698 -0.13301,-3.54692z" fill="#973939"/></g><g><path d="M426.45125,200.63062c-2.42049,-0.10689 -7.31263,-6.52551 -7.31263,-6.52551c0,0 0.78253,-6.25206 2.90164,-5.54096c2.11912,0.71109 6.10267,5.93853 6.10267,5.93853c0,0 0.72883,6.23481 -1.69168,6.12794z" fill="#000000"/><path d="M431.22305,208.13208c-1.3523,-0.76734 -5.92942,-7.67124 -5.92942,-7.67124c0,0 0.93321,-6.34311 2.74727,-5.68836c1.81406,0.65475 10.14079,6.63286 10.28991,8.08851c0.1612,1.57384 -4.62184,6.68168 -7.10775,5.27108z" fill="#000000"/><path d="M426.81145,200.35219c-2.16038,-0.30792 -7.0602,-6.72062 -7.0602,-6.72062c0,0 0.1578,-5.76917 2.10227,-4.92311c1.9445,0.84609 5.93439,6.0686 5.93439,6.0686c0,0 1.18391,5.88306 -0.97648,5.57512z" fill="#ffffff"/><path d="M431.69747,207.7654c-1.26782,-0.83263 -5.92943,-7.67123 -5.92943,-7.67123c0,0 0.28389,-5.84122 1.95241,-5.07399c1.66853,0.76723 9.58294,7.06405 9.84063,8.43577c0.27862,1.48311 -3.53298,5.84008 -5.86362,4.30945z" fill="#ffffff"/></g></g><g data-paper-data="{&quot;index&quot;:null}" stroke="none" stroke-width="0" stroke-linecap="butt"><g data-paper-data="{&quot;index&quot;:null}"><path d="M394.99055,208.57024c0.45797,0.35698 -0.15129,1.32607 -0.62028,1.92984c-0.46899,0.60377 -1.54578,1.42782 -2.33256,0.81455c-0.36401,-0.28374 0.84211,-1.02406 1.13847,-1.74529c0.1196,-0.29107 1.3564,-1.35606 1.81437,-0.99907z" fill="#7f3030"/><path d="M395.81626,206.04525c2.83489,1.90305 1.61972,2.53362 -0.23593,3.54158c-0.51557,0.28005 -2.77738,0.5356 -2.77738,0.5356c0,0 -4.44438,0.83251 -4.61473,-0.56882c-0.0303,-0.24929 0.53699,-0.42983 1.55709,-0.63741c0.94668,-0.19266 1.6805,-0.64739 1.6805,-0.64739c0,0 -4.80076,0.59496 -4.7833,-0.64634c0.00327,-0.23343 1.46073,-0.29944 2.45681,-0.40365c0.84891,-0.08883 1.46777,-0.53783 1.38939,-0.54995c-0.8979,-0.13883 -4.04844,1.03627 -3.77522,-0.30674c0.07553,-0.37122 1.27493,-0.37338 2.44449,-0.97404c0.95974,-0.49292 2.62695,-1.01415 2.91396,-1.17005c1.85562,-1.00792 3.30191,0.66385 3.74428,1.82724z" fill="#973939"/></g><g><path d="M403.30694,194.63387c0,0 4.13366,-5.10956 6.27252,-5.75883c2.13886,-0.64927 2.73955,5.62287 2.73955,5.62287c0,0 -5.07644,6.27388 -7.49902,6.31043c-2.42258,0.03655 -1.51305,-6.17449 -1.51305,-6.17449z" fill="#000000"/><path d="M392.88066,202.69287c0.19131,-1.45072 8.68813,-7.18456 10.52042,-7.78634c1.8323,-0.60179 2.58095,5.76573 2.58095,5.76573c0,0 -4.77566,6.76809 -6.14966,7.49584c-2.52582,1.33784 -7.15853,-3.9067 -6.9517,-5.47522z" fill="#000000"/><path d="M403.65382,194.91846c0,0 4.13984,-5.10447 6.10808,-5.89375c1.96825,-0.78925 1.95846,4.98206 1.95846,4.98206c0,0 -5.08395,6.26773 -7.25236,6.51281c-2.16841,0.24507 -0.81419,-5.60113 -0.81419,-5.60113z" fill="#ffffff"/><path d="M393.63278,203.30991c0.29744,-1.36366 8.39132,-7.42806 10.08142,-8.1465c1.6901,-0.71846 1.80427,5.12854 1.80427,5.12854c0,0 -4.8582,6.70038 -6.14967,7.49586c-2.37409,1.46231 -6.05759,-3.0035 -5.73604,-4.47789z" fill="#ffffff"/></g></g><g stroke="none" stroke-width="0" stroke-linecap="butt"><path d="M424.36267,197.14649c2.41207,6.97523 -2.05414,9.42048 -7.95071,9.42048c-5.89656,0 -10.47552,-2.92825 -8.40503,-9.42048c2.2987,-7.20782 2.50849,-9.73622 8.40503,-9.73622c5.89656,0 5.98298,4.04595 7.95071,9.73622z" fill="#000000"/><path d="M423.7047,197.14649c2.47461,7.7088 -1.88888,9.73624 -7.311,9.73624c-5.42212,0 -9.96231,-3.03625 -7.72877,-9.73624c1.87328,-5.61934 2.30664,-9.73622 7.72877,-9.73622c5.42212,0 5.45396,3.95129 7.311,9.73622z" fill="#ffffff"/><path d="M416.37279,200.58223c0,3.5642 -0.12625,6.45354 -0.28201,6.45354c-0.15574,0 -0.28201,-2.88935 -0.28201,-6.45354c0,-3.5642 0.12625,-6.45353 0.28201,-6.45353c0.15574,0 0.28201,2.88934 0.28201,6.45353z" fill="#000000"/><path d="M421.63671,190.25385c0,0 -3.7864,4.49844 -5.64028,4.52484c-1.84334,0.02624 -5.28871,-4.20412 -5.28871,-4.20412c0,0 0.01319,-3.32219 5.43531,-3.32219c5.42213,0 5.4937,3.00148 5.4937,3.00148z" fill="#973939"/></g><g stroke="#000000" stroke-width="0" stroke-linecap="butt"><path d="M440.34915,177.85952c-2.29828,10.02574 -16.27811,15.52859 -31.2248,12.29092c-14.94668,-3.23767 -21.20566,-13.1245 -18.90737,-23.15023c2.2983,-10.02574 13.91846,-21.90802 28.3212,-18.82988c25.12265,5.36918 19.15351,24.18895 19.15351,24.18895c0,0 3.15957,3.31 2.65748,5.50026z" data-paper-data="{&quot;origRot&quot;:0}" fill="#000000"/><path d="M409.27033,190.14486c-14.27144,-3.18021 -20.24763,-12.89159 -18.05316,-22.73938c2.19445,-9.84782 12.62901,-20.95777 27.04172,-18.4957c26.00778,4.46281 18.15016,24.09395 18.15016,24.09395c0,0 2.89634,0.96839 2.67544,5.06835c-0.46615,8.65239 -15.5427,15.25299 -29.81415,12.07278z" data-paper-data="{&quot;origRot&quot;:0}" fill="#f3c69d"/></g><path d="M396.11083,159.611c2.86509,0 2.59387,6.77991 2.59387,15.14333c0,8.36343 -1.11167,14.76943 -1.11167,14.76943c0,0 -9.2638,-6.40599 -9.2638,-14.76942c0,-8.36343 4.91648,-15.14333 7.7816,-15.14333z" fill="#863333" stroke="none" stroke-width="0" stroke-linecap="butt"/><g stroke="none" stroke-width="0" stroke-linecap="butt"><path d="M439.5956,167.3087c0.09711,2.08143 -10.6418,-3.12678 -23.51618,-1.13281c-4.41429,0.6837 -8.68117,-7.99372 -8.68117,-7.99372c0,0 0.55322,7.39776 -2.9083,7.39776c-12.4182,0 -15.76758,5.58481 -15.76758,1.95929c0,-9.22347 14.35869,-22.29853 26.77689,-22.29853c12.4182,0 23.66641,12.85457 24.09635,22.068z" fill="#973939"/><path d="M439.5956,167.3087c0.03233,0.69289 -0.84306,-6.58891 -10.16729,-11.54578c-2.89681,-1.53999 -7.34741,-1.62879 -10.3078,-2.48108c-1.70936,-0.49215 -1.93133,-3.38436 -3.62083,-3.38225c-2.35319,0.00296 -5.11395,2.87919 -7.63307,3.44853c-3.42247,0.77351 -6.55673,-0.50154 -9.08389,1.51137c-6.88353,5.48277 -10.06037,13.79566 -10.06037,12.67973c0,-9.22347 14.35869,-22.29853 26.77689,-22.29853c12.4182,0 23.66641,12.85457 24.09635,22.068z" fill="#692828"/></g><g stroke="none" stroke-width="0" stroke-linecap="butt"><g fill="#000000"><path d="M398.34337,149.91493c0.09621,0.7166 -3.47338,1.33992 -3.47338,1.33992c0,0 -1.81608,3.11961 -2.43784,2.85609c-0.98852,-0.41894 -1.71335,-3.09781 -1.71335,-3.09781c0,0 -2.92943,2.50254 -5.48257,-1.37851c0.16599,-2.63434 6.37705,-2.89878 6.37705,-2.89878c0,0 0.89305,-2.3856 1.58813,-3.78237c0.79955,-1.60671 1.93116,-0.77646 1.93116,-0.77646c0,0 1.22662,0.43741 1.60346,2.74742c0.18151,1.11272 -1.20128,3.17966 -1.20128,3.17966c0,0 2.64069,0.55988 2.80865,1.81082z"/><path d="M414.68639,149.64384c-1.61692,3.48527 -8.69911,12.11989 -15.39007,9.59829c-6.69095,-2.52159 -8.80319,-0.07844 -7.18627,-3.56374c1.61692,-3.48527 6.35071,-11.57916 13.04166,-9.05756c6.69095,2.52159 11.15158,-0.46229 9.53466,3.02298z"/><path d="M397.09344,155.71284c0,0 -7.24321,-10.72927 -7.79947,-15.25056c-0.24631,-2.00203 6.74289,-13.84815 13.00264,-10.14818c6.25976,3.69999 6.84759,22.12028 6.84759,22.12028z"/><path d="M394.92697,152.72782c-0.68148,-0.04278 -3.06273,-3.02783 -2.05448,-3.81214c1.35661,-1.05531 13.496,-4.6052 15.47409,-4.56014c0.4325,0.00986 1.58093,3.4832 0.63069,4.32044c-1.22943,1.0804 -10.34852,4.28425 -14.0503,4.05182z"/></g><g><path d="M398.62755,150.19106c0.09967,0.69182 -3.10771,1.22778 -3.10771,1.22778c0,0 -1.58131,2.97145 -2.14667,2.70649c-0.89889,-0.42126 -1.6007,-3.01405 -1.6007,-3.01405c0,0 -2.59629,2.35715 -4.96832,-1.42627c0.10222,-2.53387 5.69778,-2.67662 5.69778,-2.67662c0,0 0.76228,-2.28122 1.36383,-3.61378c0.69198,-1.53286 1.72729,-0.71295 1.72729,-0.71295c0,0 1.11386,0.44332 1.49527,2.67465c0.18372,1.07481 -1.02588,3.04035 -1.02588,3.04035c0,0 2.39113,0.58672 2.5651,1.7944z" fill="#8cffd9"/><path d="M413.35871,150.2244c-1.39514,3.32715 -7.62539,11.51467 -13.70387,8.96584c-6.07848,-2.54883 -7.93902,-0.23414 -6.54388,-3.56131c1.39514,-3.32715 5.51766,-11.03626 11.59614,-8.48744c6.07848,2.54883 10.04676,-0.24427 8.65162,3.0829z" fill="#fbfbfb"/><path d="M397.60499,155.75186c0,0 -6.72431,-10.46271 -7.30734,-14.82672c-0.25816,-1.93238 5.83038,-13.21421 11.54129,-9.53838c5.71091,3.67583 6.57282,21.42506 6.57282,21.42506z" fill="#ffffff"/><path d="M401.23504,133.09386c0,0 1.26147,5.74054 -2.11811,6.65996c-3.37959,0.91944 -7.56412,1.41395 -7.56412,1.41395c0,0 3.40519,-1.23725 6.78476,-2.15667c3.37959,-0.91944 2.89746,-5.91723 2.89746,-5.91723z" fill="#d9d9d9"/><path d="M401.27406,156.94975c0.18073,0.66428 -0.24494,1.35849 -0.95074,1.55049c-0.33735,0.09178 -0.40402,-0.42591 -0.68711,-0.56476c-0.30918,-0.15166 -0.82376,0.05642 -0.91811,-0.29037c-0.07866,-0.28914 0.30579,-0.19424 0.43,-0.45085c0.16116,-0.33292 0.12217,-0.99119 0.52075,-1.09964c0.28006,-0.0762 0.30898,0.49143 0.55869,0.57793c0.37959,0.1315 0.9375,-0.12353 1.04652,0.27719z" fill="#ff8d8d"/><path d="M403.89139,156.47991c0.0868,0.3191 0.53786,0.66733 0.40192,0.92462c-0.12935,0.24487 -0.83672,0.40475 -1.11004,0.4791c-0.56049,0.15249 -1.15222,-0.22876 -1.32165,-0.85152c-0.0682,-0.25071 0.49917,-0.47701 0.62576,-0.79074c0.18787,-0.46556 0.02108,-1.00002 0.35595,-1.09113c0.56049,-0.15249 0.8786,0.70688 1.04804,1.32966z" fill="#8cffd9"/><path d="M407.25077,155.82856c0.17011,0.62527 -0.5194,0.7025 -1.12062,0.86605c-0.6012,0.16357 -0.63353,0.93743 -0.80362,0.31218c-0.17011,-0.62527 -0.07356,-1.85065 0.52764,-2.01422c0.29893,-0.08133 0.85742,-0.4728 1.10934,-0.32345c0.25474,0.15103 0.20173,0.84506 0.28726,1.15943z" fill="#ffe78c"/><path d="M395.59779,152.83825c-0.61523,-0.05347 -2.81615,-2.97094 -1.92116,-3.70807c1.20422,-0.99183 12.08601,-4.19166 13.87041,-4.11263c0.39015,0.01728 1.48823,3.38279 0.64651,4.17193c-1.08908,1.01827 -9.25379,3.93927 -12.59577,3.64877z" fill="#ff8d8d"/></g></g><path d="M401.19275,170.36259c1.48033,-3.15996 4.28177,-2.67695 6.18436,-2.78993c3.56773,-0.21189 6.64689,2.15034 6.64689,2.15034c0,0 1.53869,1.19723 1.67531,4.37892c0.09323,2.17111 -0.62446,4.14903 -0.62446,4.14903c0,0 -11.66007,2.72394 -13.50542,1.71509c-1.20095,-0.65657 -1.857,-6.44351 -0.37665,-9.60346z" data-paper-data="{&quot;index&quot;:null,&quot;origRot&quot;:0}" fill="#ffffff" stroke="#000000" stroke-width="0" stroke-linecap="butt"/><g stroke-width="0" stroke-linecap="butt"><g stroke="#000000"><path d="M413.88362,174.63743c-0.56754,2.54227 -3.25108,4.10861 -5.99387,3.49851c-2.74279,-0.61009 -4.50619,-3.16558 -3.93866,-5.70785c0.56754,-2.54227 3.25111,-4.10862 5.99388,-3.49853c2.74279,0.61009 4.50618,3.1656 3.93864,5.70785z" data-paper-data="{&quot;origRot&quot;:0}" fill="url(#color-8)"/><path d="M413.13311,174.54547c-0.48177,2.162 -2.75977,3.49403 -5.08807,2.9752c-2.3283,-0.51883 -3.82521,-2.69206 -3.34345,-4.85405c0.48177,-2.162 2.75979,-3.49403 5.08807,-2.97521c2.3283,0.51883 3.82521,2.69206 3.34343,4.85406z" data-paper-data="{&quot;origRot&quot;:0}" fill="url(#color-9)"/></g><path d="M407.33521,171.96236c0,0.39117 -0.53579,0.70827 -1.19673,0.70827c-0.66094,0 -1.19673,-0.31712 -1.19673,-0.70827c0,-0.39117 0.53579,-0.70826 1.19673,-0.70826c0.66094,0 1.19673,0.31709 1.19673,0.70826z" fill="#ffffff" stroke="none"/><path d="M412.2198,176.30966c0,0.39117 -0.53579,0.70826 -1.19672,0.70826c-0.66094,0 -1.19673,-0.31711 -1.19673,-0.70826c0,-0.39117 0.53579,-0.70826 1.19673,-0.70826c0.66094,0 1.19672,0.31709 1.19672,0.70826z" fill="#ffffff" stroke="none"/></g><g fill="#000000" stroke="#000000" stroke-width="0" stroke-linecap="round"><path d="M400.17088,171.36523c-0.58118,-0.59344 2.9065,-4.83771 2.9065,-4.83771l9.58199,0.07821c0,0 2.80813,3.85791 2.48984,4.21173c-0.38897,0.43237 -3.94307,-1.79288 -3.94307,-1.79288l-6.92054,0.2863c0,0 -3.69534,2.48258 -4.11471,2.05434z" data-paper-data="{&quot;origRot&quot;:0}"/><path d="M401.08554,179.56857c0,0 13.21883,-1.74691 14.30143,-1.61284c1.1141,0.13798 -1.11358,0.89463 -1.11358,0.89463c0,0 -8.43245,1.88746 -13.91444,1.92761c-0.68712,0.00503 0.72662,-1.20943 0.72662,-1.20943z" data-paper-data="{&quot;origRot&quot;:0}"/></g><path d="M433.48303,179.62613c-1.7298,0.94567 -12.6598,-1.6077 -12.6598,-1.6077c0,0 -0.67276,-1.85408 -0.58537,-3.88924c0.12805,-2.98247 1.57041,-4.10473 1.57041,-4.10473c0,0 2.88636,-2.21432 6.23069,-2.0157c1.78344,0.10592 4.40945,-0.34685 5.79711,2.61525c1.38765,2.9621 0.77269,8.38671 -0.35307,9.00215z" data-paper-data="{&quot;index&quot;:null,&quot;origRot&quot;:0}" fill="#ffffff" stroke="#000000" stroke-width="0" stroke-linecap="butt"/><g data-paper-data="{&quot;index&quot;:null}" stroke-width="0" stroke-linecap="butt"><g stroke="#000000"><path d="M430.27519,174.56248c-0.532,2.3831 -3.04751,3.85135 -5.61857,3.27947c-2.57105,-0.57188 -4.22403,-2.96736 -3.69203,-5.35045c0.532,-2.3831 3.04754,-3.85136 5.61857,-3.27948c2.57105,0.57188 4.22402,2.96738 3.69202,5.35047z" data-paper-data="{&quot;origRot&quot;:0}" fill="url(#color-10)"/><path d="M426.4376,169.92613c2.1825,0.48635 3.5857,2.52351 3.13409,4.55012c-0.45161,2.02662 -2.58697,3.27525 -4.76949,2.7889c-2.1825,-0.48635 -3.5857,-2.52351 -3.13408,-4.55012c0.45161,-2.02662 2.58697,-3.27526 4.76949,-2.78892z" data-paper-data="{&quot;origRot&quot;:0}" fill="url(#color-11)"/></g><path d="M424.13684,172.05489c0,0.36667 -0.50225,0.66391 -1.1218,0.66391c-0.61955,0 -1.1218,-0.29724 -1.1218,-0.66391c0,-0.36667 0.50225,-0.66392 1.1218,-0.66392c0.61955,0 1.1218,0.29725 1.1218,0.66392z" fill="#ffffff" stroke="none"/><path d="M428.71559,176.12998c0,0.36667 -0.50225,0.66392 -1.1218,0.66392c-0.61955,0 -1.1218,-0.29725 -1.1218,-0.66392c0,-0.36667 0.50225,-0.66392 1.1218,-0.66392c0.61955,0 1.1218,0.29725 1.1218,0.66392z" fill="#ffffff" stroke="none"/></g><g data-paper-data="{&quot;index&quot;:null}" fill="#000000" stroke="#000000" stroke-width="0" stroke-linecap="round"><path d="M430.93696,169.63812l-6.4872,-0.26839c0,0 -3.33156,2.08593 -3.69618,1.68062c-0.29836,-0.33165 2.33392,-3.94801 2.33392,-3.94801l8.98204,-0.07331c0,0 3.26929,3.97851 2.72449,4.5348c-0.39313,0.40141 -3.85707,-1.92571 -3.85707,-1.92571z" data-paper-data="{&quot;origRot&quot;:0}"/><path d="M434.61774,180.38723c-5.13874,-0.03764 -13.04318,-1.80692 -13.04318,-1.80692c0,0 -2.08821,-0.70928 -1.04387,-0.83862c1.01481,-0.12567 13.40594,1.51185 13.40594,1.51185c0,0 1.32522,1.13842 0.68111,1.1337z" data-paper-data="{&quot;origRot&quot;:0}"/></g><g data-paper-data="{&quot;index&quot;:null}" stroke="none" stroke-width="0" stroke-linecap="butt"><path d="M422.42807,182.66216c0.47,2.58669 -1.76735,5.14421 -4.99724,5.71243c-3.22989,0.56819 -6.49699,-2.54159 -6.967,-5.1283c-0.47,-2.58669 11.49424,-3.17084 11.96424,-0.58416z" fill="#000000"/><path d="M422.11275,182.63251c0.45088,2.52217 -1.66472,5.01035 -4.72536,5.5575c-3.0606,0.54716 -6.1641,-2.49068 -6.61498,-5.01286c-0.45088,-2.52217 10.88943,-3.06681 11.34032,-0.54464z" fill="#ffa7c7"/></g><path d="M412.35321,163.7968c-3.77626,1.23947 -9.85111,-0.23556 -9.85111,-0.23556c0,0 3.73442,-0.94231 5.91066,-0.94231c2.17625,0 4.76501,0.90725 3.94045,1.17789z" fill="#692828" stroke="none" stroke-width="NaN" stroke-linecap="butt"/><path d="M424.84345,162.54566c2.17625,0 5.91066,0.94231 5.91066,0.94231c0,0 -6.07485,1.47506 -9.85111,0.23559c-0.82457,-0.27065 1.7642,-1.17789 3.94043,-1.17789z" data-paper-data="{&quot;index&quot;:null}" fill="#692828" stroke="none" stroke-width="NaN" stroke-linecap="butt"/></g><g><g stroke="#000000" stroke-width="0.5" stroke-linecap="round"><path d="M404.04647,62.62958l16.68044,37.95403l-44.72289,-0.4835l20.06486,-37.71226z" fill="#804040"/><path d="M378.42147,94.53996h39.16275c0,0 5.69507,5.46058 3.1427,5.8019c-2.55237,0.3413 -27.38103,1.74479 -44.72289,-0.24175c-5.93137,-0.67945 2.41745,-5.56015 2.41745,-5.56015z" fill="#ffffff"/></g><path d="M417.15756,45.0061c0,0 7.2444,0.51469 10.07777,1.61985c2.45152,0.95622 3.46412,3.66223 3.46412,3.66223l-4.59972,-0.31734c0,0 0.96308,1.91007 1.60857,2.59559c1.85567,1.9707 4.80036,4.21064 4.80036,4.21064c0,0 -1.70204,1.12799 -2.89646,1.10187c-1.82866,-0.03998 -4.26507,-1.99011 -4.26507,-1.99011c0,0 4.47704,2.19781 6.2202,4.16969c2.75641,3.11806 2.94248,8.06216 2.94248,8.06216c0,0 -3.93348,0.0353 -6.5463,-1.14093c-3.46107,-1.55809 -9.01734,-5.86545 -9.01734,-5.86545l-0.70569,2.53179l-2.12281,-8.25711z" fill="url(#color-12)" stroke="#000000" stroke-width="0.5" stroke-linecap="round"/><g data-paper-data="{&quot;origRot&quot;:0}" stroke="#000000" stroke-width="0.5" stroke-linecap="butt"><path d="M418.43919,90.98739c-3.24378,1.57027 -7.98082,-1.90436 -6.48921,-3.25525c2.03575,-1.84369 7.05379,-5.99912 8.43657,-4.4723c1.38276,1.52681 0.75102,6.4213 -1.94736,7.72756z" fill="#7f2626"/><path d="M417.05635,79.08884c0,0 2.68984,0.95333 3.85953,2.24487c1.16969,1.29154 -0.35431,1.62549 -0.35431,1.62549l-9.45546,5.69325c0,0 -2.16169,0.40154 -2.57482,-0.53823c-0.41313,-0.93978 1.59034,-1.70121 1.59034,-1.70121l-3.72353,-9.22932c0,0 1.71267,-4.14819 2.16585,-4.60137c0.45319,-0.45319 4.77637,0.17778 4.77637,0.17778z" fill="#ffffff"/><path d="M406.95455,61.88457l6.11075,10.40717c0,0 -1.3509,3.94743 -1.8544,4.25615c-0.50349,0.30872 -4.98671,0.20477 -4.98671,0.20477l-2.81006,-6.96512z" fill="#ffffff"/></g><g data-paper-data="{&quot;origRot&quot;:0}" stroke="#000000" stroke-width="0.5" stroke-linecap="butt"><path d="M414.02731,113.48602c-1.34357,1.8131 -9.82895,2.53346 -10.55175,-0.00843c-0.66479,-2.33783 -0.85332,-16.7986 -0.85332,-16.7986c0,0 2.99863,-3.02884 4.39713,-2.95539c1.19072,0.06252 4.06744,2.96502 4.06744,2.96502c0,0 3.48099,15.30016 2.94048,16.79742z" fill="#ffffff"/><path d="M407.21825,81.70959l3.7448,14.46987c0,0 -2.91718,2.03415 -3.45658,2.15171c-1.11305,0.27826 -4.88445,-2.19785 -4.88445,-2.19785l0.19423,-14.68999z" fill="#f3c69d"/></g><g data-paper-data="{&quot;index&quot;:null,&quot;origRot&quot;:0}" stroke-linecap="butt"><g data-paper-data="{&quot;origRot&quot;:0,&quot;index&quot;:null}" stroke="#000000" stroke-width="0.5"><path d="M398.32598,115.22047c-1.80994,1.34781 -10.14179,-0.4131 -10.09969,-3.05543c0.03872,-2.43018 4.03451,-16.32924 4.03451,-16.32924c0,0 3.74557,-2.03374 5.06329,-1.55957c1.12194,0.40374 3.03783,4.01337 3.03783,4.01337c0,0 -1.08604,15.65352 -2.03595,16.93086z" fill="#ffffff"/><path d="M400.98416,81.13942l-0.5937,16.627c0,0 -3.38034,1.10498 -3.9307,1.06175c-1.14599,-0.05505 -4.04158,-3.51485 -4.04158,-3.51485l4.42844,-14.00794z" fill="#f3c69d"/></g><g fill="none" stroke="none" stroke-width="1" font-family="sans-serif" font-weight="normal" font-size="12" text-anchor="start"/></g><g stroke="#000000" stroke-width="0.5"><path d="M391.9495,92.15704l3.72978,-10.63679l12.98517,0.13814l3.03909,10.49866z" fill="#ffffff" stroke-linecap="butt"/><g data-paper-data="{&quot;origRot&quot;:0}" stroke-linecap="round"><path d="M396.67486,62.38942l10.36268,-0.26663l3.11341,20.7059l-16.34062,-0.47106z" fill="#ffffff"/><path d="M407.02031,62.43032l-5.33621,3.62286l-5.07746,-3.25438z" fill="#804040"/><path d="M401.71415,65.91835l0.69451,16.57206l-8.61543,-0.07997l2.88813,-19.31192z" fill="#ffffff"/></g></g><path d="M422.58888,49.24168c-2.17213,9.74764 -15.38458,15.09782 -29.51084,11.94996c-14.12624,-3.14786 -20.04164,-12.76043 -17.86951,-22.50806c2.17213,-9.74764 12.50053,-20.74457 26.7666,-18.30753c15.23835,2.60311 22.78588,19.118 20.61376,28.86563z" data-paper-data="{&quot;origRot&quot;:0}" fill="#f3c69d" stroke="#000000" stroke-width="0.5" stroke-linecap="butt"/><path d="M387.80962,40.95681c0,0 3.71193,-2.32068 5.3613,-2.41864c3.09291,-0.18369 5.76228,1.86416 5.76228,1.86416c0,0 1.77316,2.14898 1.62174,3.79614c-0.15144,1.64716 -1.9811,3.76624 -1.9811,3.76624c0,0 -8.49917,1.47217 -10.09893,0.59759c-1.04113,-0.56918 -0.66528,-7.60552 -0.66528,-7.60552z" data-paper-data="{&quot;index&quot;:null,&quot;origRot&quot;:0}" fill="#ffffff" stroke="#000000" stroke-width="0" stroke-linecap="butt"/><path d="M399.4723,44.57596c-0.46832,2.10162 -2.68272,3.39646 -4.94599,2.89212c-2.26327,-0.50434 -3.71838,-2.61688 -3.25007,-4.7185c0.46832,-2.10162 2.68273,-3.39647 4.946,-2.89213c2.26327,0.50434 3.71838,2.61689 3.25006,4.71851z" data-paper-data="{&quot;origRot&quot;:0}" fill="url(#color-13)" stroke="#000000" stroke-width="0.5" stroke-linecap="butt"/><path d="M417.49334,48.18277c-1.56238,0.93487 -10.16261,-1.07577 -10.16261,-1.07577c0,0 -1.5933,-1.82296 -1.7404,-2.92212c-0.21559,-1.61077 0.81099,-4.02174 0.81099,-4.02174c0,0 5.17058,-1.45724 8.26462,-1.4234c1.64998,0.01804 3.89135,1.55638 3.89135,1.55638c0,0 -0.04715,7.27823 -1.06396,7.88665z" data-paper-data="{&quot;origRot&quot;:0}" fill="#ffffff" stroke="#000000" stroke-width="0" stroke-linecap="butt"/><path d="M416.15274,43.97159c-0.46832,2.10162 -2.6827,3.39647 -4.94599,2.89212c-2.26327,-0.50436 -3.7184,-2.61688 -3.25007,-4.71851c0.46832,-2.10162 2.68273,-3.39646 4.946,-2.89212c2.26327,0.50436 3.71837,2.61689 3.25006,4.7185z" data-paper-data="{&quot;origRot&quot;:0}" fill="url(#color-14)" stroke="#000000" stroke-width="0.5" stroke-linecap="butt"/><path d="M386.92375,41.82603l2.51968,-4.19387l8.30676,0.06779l2.15847,3.65122l-3.4183,-1.55428l-5.9995,0.2482z" data-paper-data="{&quot;origRot&quot;:0}" fill="#000000" stroke="#000000" stroke-width="0.5" stroke-linecap="round"/><path d="M404.90739,41.4789l2.85514,-3.92098l8.72636,-0.03685l2.74632,2.79152l-3.64914,-1.40759l-7.02747,0.41542z" data-paper-data="{&quot;origRot&quot;:0}" fill="#000000" stroke="#000000" stroke-width="0.5" stroke-linecap="round"/><path d="M387.7167,48.93761l12.39809,-1.39819l-0.9654,0.77558l-12.06261,1.67108z" data-paper-data="{&quot;origRot&quot;:0}" fill="#000000" stroke="#000000" stroke-width="0.5" stroke-linecap="round"/><path d="M406.98733,46.46241l10.92794,1.6426l-1.38498,0.88021l-10.55041,-1.55846z" data-paper-data="{&quot;origRot&quot;:0}" fill="#000000" stroke="#000000" stroke-width="0.5" stroke-linecap="round"/><path d="M404.11216,57.49179c-4.80291,1.09306 -6.36891,-3.87364 -5.9856,-5.5938c0.38331,-1.72016 6.14048,-1.30656 8.59043,-0.76062c2.44995,0.54595 1.87381,5.33516 -2.60483,6.35444z" data-paper-data="{&quot;origRot&quot;:0}" fill="#ffa6a6" stroke="#000000" stroke-width="0.5" stroke-linecap="butt"/><path d="M422.91028,49.55389c-1.55561,5.07232 -4.18647,8.73294 -8.00656,9.25507c-3.82009,0.52212 3.42324,-4.8029 4.4544,-8.76955c1.28968,-4.96106 0.96924,-16.20462 0.96924,-16.20462c0,0 4.83305,8.38223 2.58291,15.7191z" data-paper-data="{&quot;origRot&quot;:0}" fill="url(#color-15)" stroke="#000000" stroke-width="0.5" stroke-linecap="round"/><path d="M382.95722,36.40502l-0.51525,9.9337l7.00759,7.93032l-4.09044,-0.06232l1.60036,4.88552c0,0 -6.54223,-1.19597 -9.96943,-7.2277c-3.50902,-4.46061 -2.35078,-11.79348 -2.35078,-11.79348z" data-paper-data="{&quot;origRot&quot;:0}" fill="url(#color-16)" stroke="#000000" stroke-width="0.5" stroke-linecap="round"/><path d="M373.27556,40.47485c0,0 4.60485,-22.43432 23.83719,-23.13541c19.38524,-0.70667 25.38585,18.81905 25.38585,18.81905l-14.96723,-2.0615l-2.22909,-5.87481l-3.62957,6.12609c0,0 -8.10508,-0.20552 -12.91943,0.83315c-6.26801,1.35229 -15.47772,5.2934 -15.47772,5.2934z" data-paper-data="{&quot;origRot&quot;:0}" fill="url(#color-17)" stroke="#000000" stroke-width="0.5" stroke-linecap="round"/><path d="M383.71282,55.05955c-0.23416,1.68566 -0.56498,5.44659 -1.7413,8.11706c-1.2829,2.91244 -4.56011,6.18842 -4.56011,6.18842l-2.63433,-4.69134l-9.15922,7.44139c0,0 -0.96392,-3.41704 -0.80417,-5.43106c0.17603,-2.21936 1.66457,-5.41643 1.66457,-5.41643l-4.67594,1.93013c0,0 3.81587,-6.22609 7.64793,-8.72381c1.72516,-1.12445 6.59174,-0.55757 6.59174,-0.55757l-5.46732,-2.77514l9.06611,-1.94253c0,0 3.41126,0.70515 4.04734,1.62066c0.95308,1.37177 0.25887,2.55457 0.02471,4.24023z" fill="url(#color-18)" stroke="#000000" stroke-width="0.5" stroke-linecap="round"/><g data-paper-data="{&quot;origRot&quot;:0,&quot;index&quot;:null}" stroke="#000000" stroke-width="0.5" stroke-linecap="butt"><path d="M384.97097,91.42693c-2.69838,-1.30626 -3.33012,-6.20075 -1.94736,-7.72756c1.38278,-1.52682 6.40083,2.62862 8.43658,4.4723c1.49163,1.35088 -3.24542,4.82552 -6.48921,3.25525z" fill="#7f2626"/><path d="M390.06982,73.19965c0,0 4.32319,-0.63098 4.77638,-0.1778c0.45319,0.45319 2.16585,4.60137 2.16585,4.60137l-3.72353,9.22931c0,0 2.00348,0.76144 1.59034,1.70122c-0.41313,0.93978 -2.57482,0.53823 -2.57482,0.53823l-9.45546,-5.69325c0,0 -1.52399,-0.33395 -0.35431,-1.62549c1.16969,-1.29154 3.85952,-2.24487 3.85952,-2.24487z" fill="#ffffff"/><path d="M401.20472,62.73299l-4.01877,14.45923c0,0 -4.48322,0.10396 -4.98671,-0.20477c-0.50349,-0.30872 -1.85438,-4.25615 -1.85438,-4.25615l6.11075,-10.40717z" fill="#ffffff"/></g><path d="M387.34798,36.33418c0,0 3.15181,-1.2214 5.4167,-1.26045c2.11267,-0.03643 5.80028,1.06705 5.80028,1.06705" fill="none" stroke="#000000" stroke-width="0.5" stroke-linecap="round"/><path d="M404.75365,36.33418c0,0 3.68759,-1.10347 5.80027,-1.06705c2.2649,0.03905 5.4167,1.26043 5.4167,1.26043" data-paper-data="{&quot;index&quot;:null}" fill="none" stroke="#000000" stroke-width="0.5" stroke-linecap="round"/><g data-paper-data="{&quot;index&quot;:null,&quot;origRot&quot;:0}" stroke="#000000"><g><path d="M386.45555,25.44374l0.20405,15.26691c0,0 -1.63018,0.90459 -2.62674,0.83286c-0.49131,-0.03536 -1.33684,-0.92051 -1.33684,-0.92051l1.79129,-11.74055l-1.65929,11.10957c0,0 -1.42953,1.14083 -2.09726,0.88066c-0.91254,-0.35558 1.19652,-5.342 0.79349,-5.9196c-0.26205,-0.37556 -1.30204,5.54743 -1.30204,5.54743c0,0 -1.363,0.03857 -2.43265,-0.73659c-0.59416,-0.43058 -3.82353,-2.19188 -3.9743,-2.91c-1.03202,-4.91528 8.23375,-10.88427 8.23375,-10.88427z" data-paper-data="{&quot;index&quot;:null,&quot;origRot&quot;:0}" fill="#ffffff" stroke-width="0.025" stroke-linecap="round"/><g data-paper-data="{&quot;origRot&quot;:0}" fill="#8ceeff" stroke-width="0.015" stroke-linecap="butt"><path d="M378.14899,14.26784c1.06617,-0.95846 2.77149,1.08706 3.76577,2.1931c0.99428,1.10603 -0.01745,5.20267 -1.08362,6.16115c-1.06617,0.95846 -2.93697,-1.85174 -3.29633,-3.26756c-0.3659,-1.44154 -0.45199,-4.12818 0.61417,-5.08666z" data-paper-data="{&quot;origRot&quot;:0}"/><path d="M376.54857,20.49573c1.45925,0.06552 4.58983,1.32914 3.86684,2.56716c-0.72297,1.23802 -4.53025,3.05758 -5.81454,2.30759c-1.28431,-0.74999 -3.63253,-2.00625 -2.90954,-3.24427c0.72297,-1.23802 3.37149,-1.6972 4.85725,-1.63049z" data-paper-data="{&quot;origRot&quot;:0,&quot;index&quot;:null}"/><path d="M380.74565,21.26046c0.59287,-0.47566 2.65269,-0.20307 3.17895,0.45287c0.52625,0.65593 -0.89972,1.54776 -1.49258,2.02341c-0.59287,0.47566 -1.28071,0.22859 -1.80697,-0.42735c-0.52625,-0.65593 -0.47226,-1.57327 0.12061,-2.04893z" data-paper-data="{&quot;origRot&quot;:0}"/><path d="M380.82588,23.0096c0.74884,0.38269 1.12995,1.00634 0.78405,1.68315c-0.34588,0.67683 -0.93079,2.25372 -1.67962,1.87103c-0.74884,-0.38269 -1.43248,-2.34477 -1.08659,-3.02159c0.34588,-0.67683 1.23333,-0.91529 1.98216,-0.53261z" data-paper-data="{&quot;origRot&quot;:0,&quot;index&quot;:null}"/></g><path d="M387.88035,22.81853c4.96145,-0.7418 9.19998,0.1048 9.46705,1.89091c0.26703,1.78612 -3.53852,3.83542 -8.49998,4.57722c-4.96145,0.7418 -9.20001,-0.1048 -9.46705,-1.89091c-0.26703,-1.78612 3.53853,-3.83542 8.49998,-4.57722z" data-paper-data="{&quot;origRot&quot;:0}" fill="#ffffff" stroke-width="0.5" stroke-linecap="butt"/><path d="M382.27591,25.58483c0,0 -2.92383,-14.14227 -2.85063,-17.29063c0.03689,-1.58665 4.28797,-2.33711 6.82832,-2.60602c3.24731,-0.34373 7.87823,-0.70101 8.00179,1.0362c0.49259,6.92605 -0.56526,17.78299 -0.56526,17.78299z" data-paper-data="{&quot;origRot&quot;:0}" fill="#ffffff" stroke-width="0.5" stroke-linecap="butt"/><path d="M394.07491,6.36698c0,0 -4.86356,2.30668 -7.94642,2.63751c-2.54226,0.27281 -6.46722,-1.09073 -6.46722,-1.09073" fill="none" stroke-width="0.5" stroke-linecap="round"/><path d="M392.58987,25.4024c0.5508,-0.25756 1.18712,-0.06042 1.42126,0.44031c0.23415,0.50073 -0.02257,1.11544 -0.57337,1.373c-0.5508,0.25756 -1.18712,0.06041 -1.42126,-0.44032c-0.23415,-0.50073 0.02257,-1.11544 0.57337,-1.373z" fill="#fff08d" stroke-width="0.5" stroke-linecap="butt"/><path d="M388.82013,25.72876c0.6259,-0.29268 1.3516,-0.06311 1.62084,0.51271c0.26926,0.57584 -0.01986,1.2799 -0.64578,1.57258c-0.6259,0.29268 -1.3516,0.06311 -1.62084,-0.51273c-0.26926,-0.57584 0.01986,-1.2799 0.64578,-1.57258z" fill="#8ceeff" stroke-width="0.5" stroke-linecap="butt"/><path d="M384.23737,26.32482c0.67599,-0.31609 1.46123,-0.06492 1.75391,0.56098c0.29268,0.6259 -0.01806,1.38955 -0.69404,1.70562c-0.67599,0.31609 -1.46123,0.06492 -1.75391,-0.561c-0.29268,-0.6259 0.01807,-1.38955 0.69404,-1.70562z" fill="#ff8c8c" stroke-width="0.5" stroke-linecap="butt"/></g><path d="M393.68212,23.53892l-11.51397,0.99539l-0.28072,-2.12229l11.94879,-1.08008z" fill="#ff8c8c" stroke-width="0.5" stroke-linecap="round"/></g></g><path d="M173.24731,31.5538c-23.56816,-7.38402 -21.33333,-21 -21.33333,-21h77.66666v24.33334c0,0 -32.76517,4.05068 -56.33334,-3.33334z" fill="#edbd1a" stroke="none" stroke-width="0" stroke-linecap="butt"/><text transform="translate(167.58065,26.63714) scale(0.34832,0.34832)" font-size="40" xml:space="preserve" fill="#ffffff" fill-rule="nonzero" stroke="none" stroke-width="1" stroke-linecap="butt" stroke-linejoin="miter" stroke-miterlimit="10" stroke-dasharray="" stroke-dashoffset="0" font-family="Sans Serif" font-weight="normal" text-anchor="start" style="mix-blend-mode: normal"><tspan x="0" dy="0">SIGNUPS</tspan></text><text transform="translate(16.61026,29.32806) scale(0.50346,0.50346)" font-size="40" xml:space="preserve" fill="#8e8e8e" fill-rule="nonzero" stroke="none" stroke-width="1" stroke-linecap="butt" stroke-linejoin="miter" stroke-miterlimit="10" stroke-dasharray="" stroke-dashoffset="0" font-family="&quot;ヒラギノ角ゴ Pro W3&quot;, &quot;Hiragino Kaku Gothic Pro&quot;, Osaka, &quot;メイリオ&quot;, Meiryo, &quot;ＭＳ Ｐゴシック&quot;, &quot;MS PGothic&quot;" font-weight="normal" text-anchor="start" style="mix-blend-mode: normal"><tspan x="0" dy="0">Jesther</tspan></text></g></g></svg>