<svg version="1.1" xmlns="http://www.w3.org/2000/svg" xmlns:xlink="http://www.w3.org/1999/xlink" width="112.60432" height="53.6732" viewBox="0,0,112.60432,53.6732"><g transform="translate(-183.69784,-153.1634)"><g data-paper-data="{&quot;isPaintingLayer&quot;:true}" fill-rule="nonzero" stroke="none" stroke-width="0.5" stroke-linecap="butt" stroke-linejoin="miter" stroke-miterlimit="10" stroke-dasharray="" stroke-dashoffset="0" style="mix-blend-mode: normal"><path d="M241.8976,158.03355l-0.50187,-0.01371c-1.08823,-0.18137 -2.16562,-0.39206 -3.23723,-0.6152c-11.35117,-0.79426 -21.89354,1.50824 -29.91521,10.65847c-4.7976,6.99991 -8.9461,16.00621 -10.36135,24.78809c0.01728,0.14362 -0.00105,0.30748 -0.07639,0.49156c-0.27419,1.83274 -0.4274,3.65387 -0.44062,5.44305l-0.00001,-0.00001l0.16712,0.92451c-0.01288,0.074 -0.01827,0.1433 -0.01678,0.20821c0.32371,0.11622 0.65852,0.23135 1.00782,0.34771l0.01725,-0.05175c0,0 0.75674,0 0.95906,0.65558c0.49875,0.01375 0.97987,-0.00495 1.29038,0.0187c3.48756,0.26558 7.15258,0.18198 10.60122,0.6732c11.79257,0.1588 23.6421,0.87654 35.42805,1.2239c10.35261,0.61067 20.45289,-0.68936 30.82368,0.4605c4.35022,0.54939 11.75955,3.00641 15.85823,0.40768c0.61699,-0.3912 0.32461,-2.27786 0.32454,-2.9354c-0.00036,-3.43517 0.95303,-6.8396 0.18656,-10.22687c-1.12959,-6.86278 -8.42977,-8.85808 -14.42524,-8.59592c-2.44917,0.1071 -5.86576,1.03092 -8.24475,0.29128c-1.58139,-0.49166 -2.65609,-1.98906 -3.77443,-3.1074c-8.05331,-8.11844 -11.48818,-18.90217 -24.18515,-21.11172c-0.29264,-0.04174 -0.58493,-0.08187 -0.87683,-0.12031c-0.28145,0.18589 -0.60806,0.18589 -0.60806,0.18589zM223.83121,155.17324c-3.48349,0.59193 -7.00445,0.55914 -10.46228,1.32613c-6.00508,1.33202 -10.50336,5.69128 -13.80251,10.63437c-4.19126,7.36257 -3.9099,15.20837 -5.14759,23.24623c0.54426,0.35983 1.09712,0.71092 1.66694,1.04243c1.6278,-8.75841 5.76412,-17.63299 10.5651,-24.59664c6.18338,-7.07948 13.78272,-10.3473 22.11091,-11.27821c-1.61723,-0.2262 -3.25506,-0.36977 -4.93056,-0.37432zM197.85034,166.0746c3.60813,-5.41802 8.54412,-10.08862 15.10234,-11.54841c3.5379,-0.7875 7.14421,-0.77844 10.7122,-1.3627c5.12035,-0.01233 9.8944,1.23913 14.78827,2.24851c1.73188,0.12256 3.48207,0.3144 5.24523,0.56424c6.4135,1.12995 12.25803,4.85451 16.44985,9.81279c3.20275,3.78836 5.30252,8.30841 8.84749,11.86682c4.35406,4.35406 8.87875,1.68592 14.67194,2.2287c5.70431,0.53446 11.33364,4.34781 12.32399,10.22254c0.77704,3.55487 -0.14916,7.02136 -0.14954,10.61151c-0.00015,1.3685 0.21183,3.46872 -1.01987,4.45886c-4.20111,3.37724 -12.75279,0.6478 -17.41595,0.07158c-10.31852,-1.14888 -20.37108,0.15597 -30.67618,-0.44855c-11.81229,-0.34815 -23.67649,-1.04593 -35.49661,-1.22809c-3.17242,-0.45455 -11.96335,0.84971 -14.8184,-1.91078c-1.82965,-0.68499 -3.39152,-1.44868 -5.15614,-2.62482c-1.73023,-1.15626 -6.56815,-2.76634 -7.41934,-4.62869c-0.51705,-1.13125 0.5281,-3.50652 0.77356,-4.65012c0.2531,-1.17914 0.23395,-2.75751 1.36912,-3.54968c0.54351,-0.37929 2.71533,0.54336 3.27821,0.84483c1.15439,0.61827 2.23672,1.33989 3.31524,2.07628c1.18517,-8.00051 1.06944,-15.68155 5.27458,-23.05484zM190.32626,190.39657c-0.2763,-0.22889 -3.33781,-2.52882 -3.42732,-2.392c-0.39899,0.60987 -0.15895,1.45141 -0.31139,2.16407c-0.11717,0.5477 -1.09877,2.98566 -0.90695,3.41635c0.33985,0.76303 1.55153,0.63341 2.27443,1.05192c1.48988,0.86256 2.98764,1.7675 4.42255,2.72195c1.0423,0.69503 1.98856,1.22534 2.96979,1.68033c-0.00001,-0.00073 -0.00001,-0.0011 -0.00001,-0.0011c0,-1.80111 0.13635,-3.63397 0.39163,-5.47942c-1.86499,-0.91573 -3.82029,-1.84299 -5.41272,-3.16211z" fill="#000000"/><path d="M195.80621,193.55922c-0.25526,1.84545 -0.41553,3.72918 -0.41553,5.53029c0,0 0,0.00038 0,0.0011c-0.98123,-0.45498 -1.94386,-0.97513 -2.98615,-1.67015c-1.4349,-0.95446 -3.02186,-1.89561 -4.51174,-2.75817c-0.72289,-0.41852 -1.93954,-0.31338 -2.2794,-1.07642c-0.19183,-0.4307 0.8049,-2.91201 0.92206,-3.45971c0.15246,-0.71266 -0.07362,-1.56709 0.32536,-2.17695c0.08951,-0.13682 3.18121,2.15173 3.45752,2.38062c1.59243,1.31912 3.62288,2.31365 5.48787,3.2294z" data-paper-data="{&quot;noHover&quot;:false,&quot;origItem&quot;:[&quot;Path&quot;,{&quot;applyMatrix&quot;:true,&quot;selected&quot;:true,&quot;segments&quot;:[[[203.30688,187.21879],[1.18448,0.98119],[-0.20552,-0.17025],7],[[200.75757,185.43957],[0.06658,-0.10177],[-0.29678,0.45363],7],[[200.52595,187.04925],[0.1134,-0.53009],[-0.08715,0.40739],7],[[199.85134,189.5904],[-0.14269,-0.32036],[0.25279,0.56756],7],[[201.54311,190.37284],[-0.5377,-0.3113],[1.1082,0.64159],7],[[204.83269,192.39749],[-1.06731,-0.70995],[0.77528,0.51698],7],[[207.04168,193.64735],[-0.72986,-0.33842],[-0.00001,-0.00054],7],[[207.04168,193.64653],[0,0],[0,-1.3397],7],[[207.33297,189.57083],[-0.18987,1.37268],[-1.38722,-0.68114],7]],&quot;closed&quot;:true}]}" fill="#2c1515"/><path d="M228.71503,155.59588c-8.3282,0.9309 -15.84,4.20385 -22.02339,11.28333c-4.80097,6.96365 -8.93438,15.73371 -10.56218,24.49212c-0.5698,-0.3315 -1.21402,-0.58411 -1.75827,-0.94394c1.23771,-8.03786 0.94418,-15.96174 5.13544,-23.32431c3.29914,-4.94308 7.86432,-9.33855 13.8694,-10.67055c3.45783,-0.767 7.00933,-0.72306 10.49282,-1.315c1.67549,0.00456 3.22895,0.25214 4.8462,0.47835z" data-paper-data="{&quot;noHover&quot;:false,&quot;origItem&quot;:[&quot;Path&quot;,{&quot;applyMatrix&quot;:true,&quot;selected&quot;:true,&quot;segments&quot;:[[[228.22853,161.01897],[1.24626,0.00339],[-2.59109,0.44029],7],[[220.44647,162.00537],[2.572,-0.57051],[-4.4667,0.99078],7],[[210.17989,169.91543],[2.45397,-3.67676],[-3.11754,5.47643],7],[[206.35101,187.20645],[0.92063,-5.97872],[0.40483,0.26765],7],[[207.59091,187.98183],[-0.42383,-0.24658],[1.21079,-6.51468],7],[[215.44944,169.68636],[-3.57106,5.1797],[4.59932,-5.26586],7],[[231.89597,161.2974],[-6.19468,0.69242],[-1.20293,-0.16825],7]],&quot;closed&quot;:true}]}" fill="#2c1515"/><path d="M242.49609,157.78113c0.2919,0.03845 0.58663,0.07826 0.87927,0.12002c12.69697,2.20955 16.20591,13.05407 24.25922,21.17251c1.11835,1.11835 2.19325,2.6248 3.77464,3.11647c2.37899,0.73964 5.79562,-0.1855 8.24479,-0.2926c5.99547,-0.26216 13.29441,1.74439 14.424,8.60716c0.76646,3.38727 -0.19069,6.80425 -0.19033,10.23943c0.00007,0.65754 0.29098,2.54751 -0.32601,2.93871c-4.09868,2.59873 -11.51363,0.15138 -15.86385,-0.39801c-10.37079,-1.14986 -20.52315,0.17885 -30.87576,-0.43182c-11.78594,-0.34736 -23.69626,-1.09785 -35.48883,-1.25665c-3.44864,-0.49122 -7.11742,-0.41493 -10.60498,-0.6805c-0.31049,-0.02365 -0.79191,-0.00559 -1.29066,-0.01936c-0.20232,-0.65558 -0.95956,-0.65677 -0.95956,-0.65677l-0.01722,0.0518c-0.3493,-0.11635 -0.68445,-0.23233 -1.00816,-0.34854c-0.00149,-0.06491 0.0038,-0.13443 0.01668,-0.20844l-0.16754,-0.92564l0.00001,0.00001c0.01322,-1.78918 0.16442,-3.61674 0.43861,-5.44948c0.07534,-0.18408 0.0935,-0.34854 0.07623,-0.49216c1.41526,-8.7819 5.56549,-17.82619 10.36309,-24.82611c8.02167,-9.15022 18.60681,-11.49472 29.95797,-10.70045c1.07163,0.22313 2.15704,0.43176 3.24527,0.61312l0.50325,0.01347c0,0 0.3284,-0.00028 0.60985,-0.18617z" data-paper-data="{&quot;noHover&quot;:false,&quot;origItem&quot;:[&quot;Path&quot;,{&quot;applyMatrix&quot;:true,&quot;selected&quot;:true,&quot;segments&quot;:[[[241.66667,163.14653],[0,0],[0,0],7],[[241.29337,163.13632],[0,0],[-0.80945,-0.13491],7],[[238.88544,162.67873],[0.7971,0.16597],[-8.44323,-0.59079],7],[[216.63392,170.6067],[5.96668,-6.80612],[-3.56855,5.20667],7],[[208.92693,189.04458],[1.0527,-6.53215],[0.01285,0.10683],7],[[208.87011,189.41021],[0.05604,-0.13692],[-0.20395,1.36323],7],[[208.54238,193.45886],[0.00983,-1.33083],[0,0],7],[[208.54237,193.45885],[0,0],[0,0],7],[[208.66668,194.14652],[0,0],[-0.00958,0.05504],7],[[208.65419,194.30139],[-0.00111,-0.04828],[0.24078,0.08645],7],[[209.40384,194.56001],[-0.25982,-0.08654],[0,0],7],[[209.41667,194.52153],[0,0],[0,0],7],[[210.13004,195.00916],[-0.15049,-0.48763],[0.37098,0.01023],7],[[211.08985,195.02307],[-0.23095,-0.01759],[2.59412,0.19754],7],[[218.97525,195.52381],[-2.56517,-0.36538],[8.77155,0.11812],7],[[245.32734,196.43417],[-8.76662,-0.25837],[7.70048,0.45423],7],[[268.25461,196.7767],[-7.714,-0.85529],[3.23578,0.40865],7],[[280.05028,197.07994],[-3.04868,1.93299],[0.45893,-0.29098],7],[[280.29168,194.89653],[0.00005,0.48909],[-0.00027,-2.55515],7],[[280.43045,187.28958],[0.57011,2.51952],[-0.84021,-5.10467],7],[[269.70067,180.89576],[4.45955,-0.195],[-1.82174,0.07966],7],[[263.56806,181.11242],[1.76954,0.55016],[-1.17627,-0.36571],7],[[260.76056,178.80107],[0.83185,0.83185],[-5.99021,-6.03866],7],[[242.77116,163.09775],[9.44426,1.64351],[-0.21767,-0.03105],7],[[242.11895,163.00826],[0.21712,0.0286],[-0.20935,0.13827],7]],&quot;closed&quot;:true}]}" fill="#443333"/></g></g></svg>