<svg version="1.1" xmlns="http://www.w3.org/2000/svg" xmlns:xlink="http://www.w3.org/1999/xlink" width="54.40946" height="57.34635" viewBox="0,0,54.40946,57.34635"><defs><linearGradient x1="240" y1="153.79528" x2="240" y2="206.20474" gradientUnits="userSpaceOnUse" id="color-1"><stop offset="0" stop-color="#000000"/><stop offset="1" stop-color="#611a03"/></linearGradient></defs><g transform="translate(-212.79527,-152.79528)"><g data-paper-data="{&quot;isPaintingLayer&quot;:true}" fill-rule="nonzero" stroke-linecap="butt" stroke-linejoin="miter" stroke-miterlimit="10" stroke-dasharray="" stroke-dashoffset="0" style="mix-blend-mode: normal"><path d="M213.79527,180c0,-14.47248 11.73225,-26.20472 26.20472,-26.20472c14.47248,0 26.20474,11.73225 26.20474,26.20472c0,14.47248 -11.73226,26.20474 -26.20473,26.20474c-14.47248,0 -26.20472,-11.73226 -26.20472,-26.20473z" fill="url(#color-1)" stroke="#ffffff" stroke-width="2"/><text transform="translate(232.96057,204.88113) scale(0.20782,0.20782)" font-size="40" xml:space="preserve" fill="#000000" fill-rule="nonzero" stroke="#000000" stroke-width="2" stroke-linecap="butt" stroke-linejoin="miter" stroke-miterlimit="10" stroke-dasharray="" stroke-dashoffset="0" font-family="Sans Serif" font-weight="normal" text-anchor="start" style="mix-blend-mode: normal"><tspan x="0" dy="0">DMG++</tspan></text><g><path d="M225.36206,210.14163v-2.53284h5.65017v2.53284z" fill="#000000" stroke="none" stroke-width="0"/><g><g fill="none" stroke="none" stroke-width="1" font-family="sans-serif" font-weight="normal" font-size="12" text-anchor="start"/><g fill="#000000" stroke="none"><path d="M225.36206,206.63462v-8.45661h5.65017v8.45661z" stroke-width="NaN"/><path d="M222.43955,200.29217l5.65017,-8.45661l5.84501,8.45661z" stroke-width="0"/></g><g fill="#ff7c66" stroke="#ff7c66"><path d="M226.14139,204.87283v-8.45661h5.65018v8.45661z" stroke-width="NaN"/><path d="M223.21888,198.53038l5.65018,-8.45661l5.84501,8.45661z" stroke-width="0"/></g></g><path d="M226.14139,208.97263v-2.53284h5.65018v2.53284z" fill="#ff7c66" stroke="#ff7c66" stroke-width="0"/></g><text transform="translate(233.93473,204.26286) scale(0.20121,0.20121)" font-size="40" xml:space="preserve" fill="#ff7c66" fill-rule="nonzero" stroke="#ff7c66" stroke-width="1" stroke-linecap="butt" stroke-linejoin="miter" stroke-miterlimit="10" stroke-dasharray="" stroke-dashoffset="0" font-family="Sans Serif" font-weight="normal" text-anchor="start" style="mix-blend-mode: normal"><tspan x="0" dy="0">DMG++</tspan></text><g fill="#ffffff" stroke="none" stroke-width="0"><path d="M222.43294,182.96866v-3.89485c0,0 3.46382,-0.53112 5.75376,-0.53112c2.59853,0 9.02898,0.53112 9.02898,0.53112v3.89485c0,0 -6.34966,0.4426 -9.02898,0.4426c-2.11201,0 -5.75376,-0.4426 -5.75376,-0.4426z"/><path d="M217.12178,184.91609c0,0 0.35408,-2.20558 0.35408,-3.6293c0,-1.18956 -0.35408,-4.33745 -0.35408,-4.33745l4.69153,2.12447l-0.08852,3.89485z"/><path d="M237.92384,183.32274v-4.78005c0,0 2.94423,-0.35408 4.24893,-0.35408c1.11411,0 3.09818,0.35408 3.09818,0.35408v4.78005c0,0 -1.93516,0.35408 -3.00966,0.35408c-1.32261,0 -4.33745,-0.35408 -4.33745,-0.35408z"/><path d="M247.86693,177.83865l-1.12598,-6.38058l0.62555,-0.11039l1.12598,6.38058z"/><path d="M245.9791,183.05718v-4.42597l7.43563,-0.4426v5.22264z"/><g><path d="M253.93223,182.54401v-3.25912l0.97371,-0.19809v3.58101z"/><path d="M254.72891,182.05623v-2.39002h0.88519v2.39002z"/><path d="M255.34854,182.24936v-2.81652l4.95709,-0.38627l2.51074,1.41542l0.06188,0.96289l-2.57261,1.3395z"/></g><path d="M237.66904,187.37421c0,0 1.02401,-1.89813 1.46993,-2.76494c0.20828,-0.40487 -0.68023,-1.50714 -0.68023,-1.50714l0.06662,-0.45959l3.55396,0.55726c0,0 -0.671,1.114 -0.98381,1.81922c-0.41102,0.9266 -1.26913,3.25983 -1.26913,3.25983c0,0 -0.90123,-0.0855 -1.13967,-0.19127c-0.33934,-0.15053 -1.01767,-0.71337 -1.01767,-0.71337z"/><path d="M240.94258,185.27498l0.16341,-0.43579h2.06999v0.43579z"/><path d="M242.81875,185.08128l0.32228,-2.17149l0.55561,0.21655l-0.32228,2.17149z"/><path d="M248.02413,187.94418c0,0 0.49026,-2.97791 0.49026,-3.92209c0,-0.53364 -0.05448,-1.25289 -0.05448,-1.25289h2.01552l-0.05447,5.61077c0,0 -0.86663,0.27236 -1.30737,0.27236c-0.35986,0 -1.08947,-0.70816 -1.08947,-0.70816z"/><path d="M247.75176,183.69525v-0.65368h2.56025v0.65368z"/></g></g></g></svg>