<svg version="1.1" xmlns="http://www.w3.org/2000/svg" xmlns:xlink="http://www.w3.org/1999/xlink" width="162.12472" height="355.05578" viewBox="0,0,162.12472,355.05578"><defs><linearGradient x1="278.26105" y1="191.19829" x2="303.1983" y2="200.73894" gradientUnits="userSpaceOnUse" id="color-1"><stop offset="0" stop-color="#1dae4d"/><stop offset="1" stop-color="#2aff71"/></linearGradient><linearGradient x1="278.26105" y1="191.19829" x2="303.1983" y2="200.73894" gradientUnits="userSpaceOnUse" id="color-2"><stop offset="0" stop-color="#00ff55"/><stop offset="1" stop-color="#00ff55"/></linearGradient><linearGradient x1="254.75721" y1="158.62629" x2="259.51275" y2="173.8402" gradientUnits="userSpaceOnUse" id="color-3"><stop offset="0" stop-color="#1f007b"/><stop offset="1" stop-color="#000304"/></linearGradient></defs><g transform="translate(-164.60491,-74.9721)"><g data-paper-data="{&quot;isPaintingLayer&quot;:true}" fill-rule="nonzero" stroke-width="2.5" stroke-linejoin="miter" stroke-miterlimit="10" stroke-dasharray="" stroke-dashoffset="0" style="mix-blend-mode: normal"><g data-paper-data="{&quot;origRot&quot;:0}"><path d="M278.26105,191.19829l9.54065,-24.93724l24.93724,9.54065l-9.54065,24.93724z" id="ID0.3030410106293857" fill="url(#color-1)" stroke="url(#color-2)" stroke-linecap="butt"/><path d="M284.51296,188.08575l5.82665,-15.22961l15.22961,5.82665l-5.82665,15.22961z" id="ID0.3030410106293857" fill="none" stroke="#00ff55" stroke-linecap="butt"/><path d="M312.00588,176.48612l-33.37803,14.51591" id="ID0.528150680474937" fill="none" stroke="#00ff55" stroke-linecap="round"/><path d="M288.23626,166.9434l14.28578,32.57193" id="ID0.30767520191147923" fill="none" stroke="#00ff55" stroke-linecap="round"/></g><g data-paper-data="{&quot;index&quot;:null,&quot;origRot&quot;:0}" stroke-linecap="round"><path d="M303.78383,249.99371c0,0 23.0536,3.33014 21.63272,8.92581c-1.44753,5.70065 -30.94578,8.46216 -30.94578,8.46216" fill="#2e00b8" stroke="#2e00b8"/><path d="M239.64985,223.40159c0,0 19.13976,-1.33536 31.29429,-1.1602c15.97343,0.23017 40.7801,2.19873 40.7801,2.19873l-8.23663,46.6225c0,0 -25.99529,-7.49052 -41.70415,-14.23426c-12.47666,-5.35616 -30.51777,-16.77022 -30.51777,-16.77022" fill="#009fb8" stroke="#009fb8"/></g><g><path d="M210.863,428.44454l7.33333,-27h44.33334l0.21998,14.85989l9.7406,2.25342l-0.62724,9.88668z" data-paper-data="{&quot;origPos&quot;:null}" fill="#bb5500" stroke="#bb5500" stroke-linecap="butt"/><path d="M214.27966,409.10583c0,0 -0.94499,-4.71824 -0.26973,-7.73816c1.66631,-7.45213 6.26973,-19.09518 6.26973,-19.09518l36.83333,-2c0,0 7.82826,14.3881 9.17934,21.99919c0.45036,2.53703 -0.51268,6.83415 -0.51268,6.83415c0,0 -6.18357,-0.88993 -9.50132,-2.73962c-2.61875,-1.45999 -5.71022,-5.74106 -5.71022,-5.74106c0,0 -1.01412,5.08699 -2.94331,7.27617c-2.46251,2.79438 -8.30989,5.49358 -8.30989,5.49358c0,0 -6.74089,-3.57355 -9.98865,-6.50085c-1.35159,-1.21823 -1.79661,-4.12156 -1.79661,-4.12156c0,0 -1.9356,2.40319 -3.81453,3.30129c-3.29205,1.57356 -9.43547,3.03205 -9.43547,3.03205z" data-paper-data="{&quot;origPos&quot;:null}" fill="#2e00b8" stroke="#2e00b8" stroke-linecap="butt"/><path d="M257.75067,267.13989l5.48467,127.61576h-47.3053l16.11122,-121.25125" data-paper-data="{&quot;origPos&quot;:null}" fill="#306e7b" stroke="#306e7b" stroke-linecap="round"/><path d="M237.19633,416.11121l25.66667,0.66666" fill="none" stroke="#bb5500" stroke-linecap="round"/></g><g><path d="M197.86299,428.77787l7.33333,-27h44.33333l0.21998,14.8599l9.74059,2.25343l-0.62724,9.88668z" data-paper-data="{&quot;origPos&quot;:null}" fill="#ff9b00" stroke="#bb5500" stroke-linecap="butt"/><path d="M201.27966,409.43916c0,0 -0.94499,-4.71824 -0.26973,-7.73816c1.66632,-7.45214 6.26973,-19.09517 6.26973,-19.09517l36.83333,-2c0,0 7.82826,14.3881 9.17934,21.99918c0.45036,2.53703 -0.51268,6.83415 -0.51268,6.83415c0,0 -6.18357,-0.88993 -9.50131,-2.73963c-2.61875,-1.46 -5.71022,-5.74106 -5.71022,-5.74106c0,0 -1.01412,5.08699 -2.94331,7.27617c-2.46251,2.79438 -8.30988,5.49358 -8.30988,5.49358c0,0 -6.74089,-3.57354 -9.98866,-6.50084c-1.35159,-1.21823 -1.79662,-4.12155 -1.79662,-4.12155c0,0 -1.9356,2.40318 -3.81453,3.30129c-3.29205,1.57356 -9.43547,3.03205 -9.43547,3.03205z" data-paper-data="{&quot;origPos&quot;:null}" fill="#3f00ff" stroke="#2e00b8" stroke-linecap="butt"/><path d="M244.75066,267.47322l5.48467,127.61576h-47.3053l16.11123,-121.25125" data-paper-data="{&quot;origPos&quot;:null}" fill="#5c8f99" stroke="#306e7b" stroke-linecap="round"/><path d="M249.86299,417.11121l-25.66667,-0.66667" fill="none" stroke="#bb5500" stroke-linecap="round"/></g><path d="M238.47814,266.13087l18.5,6l-12.75,21.25" fill="#5c8f99" stroke="none" stroke-linecap="round"/><path d="M239.11351,197.4464l1.14264,8.68406l10.96934,0.45706l-8.91259,11.4264l-22.62427,-14.16874l9.36965,1.5997l-0.45706,-7.54142z" fill="#3f00ff" stroke="#2e00b8" stroke-linecap="round"/><path d="M258.08133,220.07069c0,0 0.16656,14.94155 1.15079,26.26014c0.79949,9.19419 2.50566,26.3013 2.50566,26.3013h-45.24855c0,0 4.87808,-19.58611 5.80626,-32.85356c0.58799,-8.40475 -1.92128,-22.67875 -1.92128,-22.67875c0,0 -22.26455,-11.13667 -13.25462,-19.65341c8.85616,-8.37138 33.82215,15.76843 33.82215,15.76843c0,0 15.23659,-18.40183 22.88698,-11.25038c7.65039,7.15145 -5.74738,18.10622 -5.74738,18.10622z" fill="#00ffce" stroke="#009fb8" stroke-linecap="round"/><path d="M224.8355,209.06268l-6.23538,25.15054l21.31414,5.37931l0.86259,33.66414c0,0 -29.49236,1.50069 -46.03621,-2.80599c-13.13984,-3.42055 20.6421,-61.99408 20.6421,-61.99408" data-paper-data="{&quot;origPos&quot;:null}" fill="#00ffce" stroke="#009fb8" stroke-linecap="round"/><path d="M238.09971,221.17153l8.14264,17.00566" fill="none" stroke="#009fb8" stroke-linecap="round"/><path d="M251.44022,222.12859l5.80931,16.339" fill="none" stroke="#009fb8" stroke-linecap="round"/><g><path d="M203.21075,169.92901c-6.85691,-21.93661 6.83245,-45.73625 30.57603,-53.15797c23.74358,-7.42172 29.19357,14.39287 40.1722,34.58451c20.3621,19.7478 8.40244,37.43327 -15.34114,44.85499c-23.74359,7.42172 -48.55018,-4.34492 -55.40709,-26.28153z" data-paper-data="{&quot;origPos&quot;:null}" fill="#3f00ff" stroke="#2e00b8" stroke-linecap="butt"/><path d="M202.62003,159.42179c0,0 -7.81409,5.45387 -10.9441,5.37131c-8.03485,-0.21193 -19.28,-6.69836 -19.28,-6.69836c0,0 6.00961,-4.33326 10.5761,-4.80325c4.12431,-0.42447 11.69298,2.51135 11.69298,2.51135c0,0 -6.12513,-3.13367 -8.56661,-6.29127c-2.96986,-3.84097 -5.29926,-11.64173 -5.29926,-11.64173c0,0 8.7254,0.63855 13.36788,3.18075c3.79325,2.07717 8.2476,8.65582 8.2476,8.65582c0,0 7.49727,-21.85752 0.61527,-35.74108c-6.84735,-13.81365 -34.43278,-18.69411 -34.43278,-18.69411c0,0 55.44879,-27.15265 82.06224,-16.62274c26.61344,10.52991 20.30356,41.1868 20.30356,41.1868c0,0 5.1971,-1.08907 7.98681,-2.76774c2.66712,-1.60489 5.99562,-5.64599 5.99562,-5.64599c0,0 -0.97712,7.82673 -3.45875,12.03795c-2.48163,4.21122 -10.17785,11.10274 -10.17785,11.10274" data-paper-data="{&quot;origPos&quot;:null}" fill="#3f00ff" stroke="#2e00b8" stroke-linecap="round"/><path d="M233.26593,151.84238c14.45176,11.03014 15.23858,54.49619 15.23858,54.49619c0,0 -31.68087,-36.59608 -27.77372,-50.93713" fill="#3f00ff" stroke="#2e00b8" stroke-linecap="round"/><g data-paper-data="{&quot;origPos&quot;:null}" fill="#ffffff" stroke-linecap="round"><path d="M275.06482,163.46462c0,0 5.65112,4.48276 1.17651,9.50882c-4.47461,5.02606 -15.79656,6.91297 -15.79656,6.91297z" stroke="none"/><path d="M259.72908,180.46927c0,0 -20.62764,-3.74002 -11.60294,-19.12763c4.57027,-7.79255 17.15342,-9.38905 24.7239,-4.45965c4.01162,2.61211 3.54408,7.96287 3.54408,7.96287" stroke="#2e00b8"/></g><path d="M260.65216,165.13384c1.31321,4.20121 0.80306,8.09917 -1.13942,8.70635c-1.9425,0.60718 -4.58175,-2.30635 -5.89495,-6.50755c-1.31321,-4.20121 -0.80307,-8.09917 1.13942,-8.70634c1.9425,-0.60718 4.58176,2.30635 5.89496,6.50755z" fill="url(#color-3)" stroke="none" stroke-linecap="butt"/><path d="M278.3889,188.39031c0,0 -2.71529,-4.66532 -3.75301,-7.98517c-0.69846,-2.23451 -0.69572,-6.2472 -0.69572,-6.2472c0,0 6.43505,-3.8072 10.77639,-5.1642c3.95829,-1.23728 6.15704,0.51668 6.15704,0.51668c0,0 2.42097,3.72373 3.13938,6.02208c1.01776,3.256 0.976,8.21028 0.976,8.21028c0,0 0.33649,0.61053 -2.66414,1.54846c-5.29899,1.65635 -13.93594,3.09906 -13.93594,3.09906z" fill="#ff9b00" stroke="#bb5500" stroke-linecap="butt"/><path d="M285.80291,185.14092c0,0 -4.10878,-0.09449 -5.46469,-0.62919c-1.31479,-0.51849 -2.55124,-2.53188 -2.55124,-2.53188" fill="none" stroke="#bb5500" stroke-linecap="round"/><path d="M235.26799,193.26746c-8.39934,13.39691 -32.96296,17.48646 -32.96296,17.48646c0,0 -1.22936,-7.92561 -0.01363,-12.47501c0.78686,-2.94452 5.14502,-6.72721 5.14502,-6.72721c0,0 -6.17505,-0.79769 -8.85789,-2.3947c-6.27176,-3.73338 -14.08715,-11.26377 -14.08715,-11.26377c0,0 18.74441,-11.61523 30.87805,-4.62373" fill="#3f00ff" stroke="#2e00b8" stroke-linecap="round"/><path d="M268.68898,131.49689c9.31007,2.88729 18.89895,19.85576 18.89895,19.85576c0,0 -8.86165,-1.38261 -11.55724,-2.28725c-6.38653,-2.14331 -10.71457,-8.52272 -10.71457,-8.52272c0,0 1.60942,5.40084 1.12122,8.41275c-0.6605,4.07494 -7.06462,10.07974 -7.06462,10.07974c0,0 -5.60916,-0.68417 -10.60909,-2.21761c-6.31678,-1.9373 -15.38858,-7.00909 -15.38858,-7.00909" data-paper-data="{&quot;origPos&quot;:null}" fill="#3f00ff" stroke="#2e00b8" stroke-linecap="round"/></g></g></g></svg>