<svg version="1.1" xmlns="http://www.w3.org/2000/svg" xmlns:xlink="http://www.w3.org/1999/xlink" width="550.25806" height="424.70968" viewBox="0,0,550.25806,424.70968"><defs><linearGradient x1="34.66218" y1="73.10518" x2="74.27961" y2="73.10518" gradientUnits="userSpaceOnUse" id="color-1"><stop offset="0" stop-color="#8cfffb"/><stop offset="1" stop-color="#8cd0ff"/></linearGradient><linearGradient x1="417.20238" y1="203.0742" x2="432.88437" y2="204.14235" gradientUnits="userSpaceOnUse" id="color-2"><stop offset="0" stop-color="#939393"/><stop offset="1" stop-color="#b9b9b9"/></linearGradient><linearGradient x1="402.43023" y1="203.23582" x2="386.76906" y2="204.575" gradientUnits="userSpaceOnUse" id="color-3"><stop offset="0" stop-color="#939393"/><stop offset="1" stop-color="#b9b9b9"/></linearGradient><linearGradient x1="415.28988" y1="214.11697" x2="415.45647" y2="233.38241" gradientUnits="userSpaceOnUse" id="color-4"><stop offset="0" stop-color="#a7a7a7"/><stop offset="1" stop-color="#b8b8b8"/></linearGradient><linearGradient x1="403.75907" y1="215.24844" x2="403.92619" y2="234.57637" gradientUnits="userSpaceOnUse" id="color-5"><stop offset="0" stop-color="#a7a7a7"/><stop offset="1" stop-color="#b8b8b8"/></linearGradient><linearGradient x1="409.82973" y1="185.09486" x2="410.24657" y2="217.10458" gradientUnits="userSpaceOnUse" id="color-6"><stop offset="0" stop-color="#b9b9b9"/><stop offset="1" stop-color="#a0a0a0"/></linearGradient><radialGradient cx="412.06207" cy="196.90082" r="5.26645" gradientUnits="userSpaceOnUse" id="color-7"><stop offset="0" stop-color="#93e0ff"/><stop offset="1" stop-color="#64aaff"/></radialGradient><radialGradient cx="402.29331" cy="145.55563" r="21.97316" gradientUnits="userSpaceOnUse" id="color-8"><stop offset="0" stop-color="#fff700"/><stop offset="1" stop-color="#fff700" stop-opacity="0"/></radialGradient><radialGradient cx="412.40119" cy="197.04122" r="5.26645" gradientUnits="userSpaceOnUse" id="color-9"><stop offset="0" stop-color="#93e0ff"/><stop offset="1" stop-color="#64aaff"/></radialGradient></defs><g transform="translate(35.12903,32.35484)"><g data-paper-data="{&quot;isPaintingLayer&quot;:true}" fill-rule="nonzero" stroke-linejoin="miter" stroke-miterlimit="10" stroke-dasharray="" stroke-dashoffset="0" style="mix-blend-mode: normal"><path d="M-34.12903,391.35484v-422.70968h548.25806v422.70968z" fill="#f5f5f5" stroke="#000000" stroke-width="2" stroke-linecap="butt"/><path d="M9.10301,261.9917v-253.23621h222.06868v253.23621z" fill="#f5f5f5" stroke="#8e8e8e" stroke-width="3.5" stroke-linecap="butt"/><text transform="translate(17.82641,48.94722) scale(0.33747,0.33747)" font-size="40" xml:space="preserve" fill="#8e8e8e" fill-rule="nonzero" stroke="none" stroke-width="1" stroke-linecap="butt" stroke-linejoin="miter" stroke-miterlimit="10" stroke-dasharray="" stroke-dashoffset="0" font-family="&quot;ヒラギノ角ゴ Pro W3&quot;, &quot;Hiragino Kaku Gothic Pro&quot;, Osaka, &quot;メイリオ&quot;, Meiryo, &quot;ＭＳ Ｐゴシック&quot;, &quot;MS PGothic&quot;" font-weight="normal" text-anchor="start" style="mix-blend-mode: normal"><tspan x="0" dy="0">Joined: 26th June 2019</tspan></text><g stroke="none" stroke-linecap="butt"><path d="M75.38528,91.27754c-10.03632,0 -18.17236,-8.13604 -18.17236,-18.17236c0,-10.03632 8.13604,-18.17236 18.17236,-18.17236c10.03632,0 18.17236,8.13604 18.17236,18.17236c0,10.03632 -8.13604,18.17236 -18.17236,18.17236z" data-paper-data="{&quot;index&quot;:null}" fill="#8cd0ff" stroke-width="0"/><path d="M15.38415,73.10518c0,-10.03632 8.13604,-18.17236 18.17236,-18.17236c10.03632,0 18.17236,8.13604 18.17236,18.17236c0,10.03632 -8.13604,18.17236 -18.17236,18.17236c-10.03632,0 -18.17236,-8.13604 -18.17236,-18.17236z" fill="#8cfffb" stroke-width="0"/><path d="M34.66218,91.20378v-36.19726h39.61743v36.19726z" fill="url(#color-1)" stroke-width="0"/><text transform="translate(17.88858,77.26675) scale(0.3607,0.3607)" font-size="40" xml:space="preserve" fill="#2d6fc5" fill-rule="nonzero" stroke="none" stroke-width="1" stroke-linecap="butt" stroke-linejoin="miter" stroke-miterlimit="10" stroke-dasharray="" stroke-dashoffset="0" font-family="&quot;ヒラギノ角ゴ Pro W3&quot;, &quot;Hiragino Kaku Gothic Pro&quot;, Osaka, &quot;メイリオ&quot;, Meiryo, &quot;ＭＳ Ｐゴシック&quot;, &quot;MS PGothic&quot;" font-weight="normal" text-anchor="start" style="mix-blend-mode: normal"><tspan x="0" dy="0">Game Dev</tspan></text></g><text transform="translate(15.20276,106.15927) scale(0.2979,0.2979)" font-size="40" xml:space="preserve" fill="#8e8e8e" fill-rule="nonzero" stroke="none" stroke-width="1" stroke-linecap="butt" stroke-linejoin="miter" stroke-miterlimit="10" stroke-dasharray="" stroke-dashoffset="0" font-family="&quot;ヒラギノ角ゴ Pro W3&quot;, &quot;Hiragino Kaku Gothic Pro&quot;, Osaka, &quot;メイリオ&quot;, Meiryo, &quot;ＭＳ Ｐゴシック&quot;, &quot;MS PGothic&quot;" font-weight="normal" text-anchor="start" style="mix-blend-mode: normal"><tspan x="0" dy="0">Notable Projects:</tspan></text><text transform="translate(15.20276,130.19152) scale(0.43347,0.43347)" font-size="40" xml:space="preserve" fill="#8e8e8e" fill-rule="nonzero" stroke="none" stroke-width="1" stroke-linecap="butt" stroke-linejoin="miter" stroke-miterlimit="10" stroke-dasharray="" stroke-dashoffset="0" font-family="&quot;ヒラギノ角ゴ Pro W3&quot;, &quot;Hiragino Kaku Gothic Pro&quot;, Osaka, &quot;メイリオ&quot;, Meiryo, &quot;ＭＳ Ｐゴシック&quot;, &quot;MS PGothic&quot;" font-weight="normal" text-anchor="start" style="mix-blend-mode: normal"><tspan x="0" dy="0">Starbot 3 (Aug 2020)</tspan><tspan x="0" dy="46.150000000000006px">Starbot 4 (2021)</tspan></text><text transform="translate(12.97295,178.03281) scale(0.24945,0.27029)" font-size="40" xml:space="preserve" fill="#8e8e8e" fill-rule="nonzero" stroke="none" stroke-width="1" stroke-linecap="butt" stroke-linejoin="miter" stroke-miterlimit="10" stroke-dasharray="" stroke-dashoffset="0" font-family="&quot;ヒラギノ角ゴ Pro W3&quot;, &quot;Hiragino Kaku Gothic Pro&quot;, Osaka, &quot;メイリオ&quot;, Meiryo, &quot;ＭＳ Ｐゴシック&quot;, &quot;MS PGothic&quot;" font-weight="normal" text-anchor="start" style="mix-blend-mode: normal"><tspan x="0" dy="0">ADRIUGT is a male scratcher who created</tspan><tspan x="0" dy="48px">his account during the age of 3.0. UGT</tspan><tspan x="0" dy="48px">makes games about his character, Starbot. </tspan><tspan x="0" dy="48px">Though UGT is an unknown face in the </tspan><tspan x="0" dy="48px">scratch community, he's known for Starbot </tspan><tspan x="0" dy="48px">Adventure and 3.</tspan></text><text transform="translate(7.69514,344.82009) scale(1.4788,1.4788)" font-size="40" xml:space="preserve" fill="#8e8e8e" fill-rule="nonzero" stroke="none" stroke-width="1" stroke-linecap="butt" stroke-linejoin="miter" stroke-miterlimit="10" stroke-dasharray="" stroke-dashoffset="0" font-family="&quot;ヒラギノ角ゴ Pro W3&quot;, &quot;Hiragino Kaku Gothic Pro&quot;, Osaka, &quot;メイリオ&quot;, Meiryo, &quot;ＭＳ Ｐゴシック&quot;, &quot;MS PGothic&quot;" font-weight="normal" text-anchor="start" style="mix-blend-mode: normal"><tspan x="0" dy="0">28</tspan></text><text transform="translate(15.43462,35.42793) scale(0.13422,0.13422)" font-size="40" xml:space="preserve" fill="#8e8e8e" fill-rule="nonzero" stroke="none" stroke-width="1" stroke-linecap="butt" stroke-linejoin="miter" stroke-miterlimit="10" stroke-dasharray="" stroke-dashoffset="0" font-family="&quot;ヒラギノ角ゴ Pro W3&quot;, &quot;Hiragino Kaku Gothic Pro&quot;, Osaka, &quot;メイリオ&quot;, Meiryo, &quot;ＭＳ Ｐゴシック&quot;, &quot;MS PGothic&quot;" font-weight="normal" text-anchor="start" style="mix-blend-mode: normal"><tspan x="0" dy="0">@ADRIUGT</tspan></text><text transform="translate(16.61026,29.32807) scale(0.50346,0.50346)" font-size="40" xml:space="preserve" fill="#8e8e8e" fill-rule="nonzero" stroke="none" stroke-width="1" stroke-linecap="butt" stroke-linejoin="miter" stroke-miterlimit="10" stroke-dasharray="" stroke-dashoffset="0" font-family="&quot;ヒラギノ角ゴ Pro W3&quot;, &quot;Hiragino Kaku Gothic Pro&quot;, Osaka, &quot;メイリオ&quot;, Meiryo, &quot;ＭＳ Ｐゴシック&quot;, &quot;MS PGothic&quot;" font-weight="normal" text-anchor="start" style="mix-blend-mode: normal"><tspan x="0" dy="0">Starbot</tspan></text><g stroke-linecap="butt"><text transform="translate(257.05438,104.77763) scale(0.61121,0.61121)" font-size="40" xml:space="preserve" fill="#8e8e8e" fill-rule="nonzero" stroke="none" stroke-width="1" stroke-linecap="butt" stroke-linejoin="miter" stroke-miterlimit="10" stroke-dasharray="" stroke-dashoffset="0" font-family="&quot;ヒラギノ角ゴ Pro W3&quot;, &quot;Hiragino Kaku Gothic Pro&quot;, Osaka, &quot;メイリオ&quot;, Meiryo, &quot;ＭＳ Ｐゴシック&quot;, &quot;MS PGothic&quot;" font-weight="normal" text-anchor="start" style="mix-blend-mode: normal"><tspan x="0" dy="0">2019</tspan></text><path d="M249.94926,123.02128v-118.51155h228.33349v118.51155z" fill="none" stroke="#8e8e8e" stroke-width="3.5"/></g><g stroke-linecap="butt"><text transform="translate(257.05438,223.33538) scale(0.61121,0.61121)" font-size="40" xml:space="preserve" fill="#8e8e8e" fill-rule="nonzero" stroke="none" stroke-width="1" stroke-linecap="butt" stroke-linejoin="miter" stroke-miterlimit="10" stroke-dasharray="" stroke-dashoffset="0" font-family="&quot;ヒラギノ角ゴ Pro W3&quot;, &quot;Hiragino Kaku Gothic Pro&quot;, Osaka, &quot;メイリオ&quot;, Meiryo, &quot;ＭＳ Ｐゴシック&quot;, &quot;MS PGothic&quot;" font-weight="normal" text-anchor="start" style="mix-blend-mode: normal"><tspan x="0" dy="0">2020</tspan></text><path d="M249.94926,241.57903v-118.51155h228.33349v118.51155z" fill="none" stroke="#8e8e8e" stroke-width="3.5"/></g><g stroke-linecap="butt"><text transform="translate(257.05438,341.89317) scale(0.61121,0.61121)" font-size="40" xml:space="preserve" fill="#8e8e8e" fill-rule="nonzero" stroke="none" stroke-width="1" stroke-linecap="butt" stroke-linejoin="miter" stroke-miterlimit="10" stroke-dasharray="" stroke-dashoffset="0" font-family="&quot;ヒラギノ角ゴ Pro W3&quot;, &quot;Hiragino Kaku Gothic Pro&quot;, Osaka, &quot;メイリオ&quot;, Meiryo, &quot;ＭＳ Ｐゴシック&quot;, &quot;MS PGothic&quot;" font-weight="normal" text-anchor="start" style="mix-blend-mode: normal"><tspan x="0" dy="0">2021</tspan></text><path d="M249.94926,360.13682v-118.51155h228.33349v118.51155z" fill="none" stroke="#8e8e8e" stroke-width="3.5"/></g><g stroke-width="1.5"><path d="M401.8057,51.3378v-7.97986h5.6999v7.97986z" data-paper-data="{&quot;origPos&quot;:null,&quot;index&quot;:null}" fill="#8f8f8f" stroke="#000000" stroke-linecap="butt"/><path d="M413.35589,82.80794c3.14796,0 5.6999,6.76262 5.6999,15.10474c0,8.34212 -2.55194,15.10474 -5.6999,15.10474c-3.14796,0 -5.6999,-6.76262 -5.6999,-15.10474c0,-8.34212 2.55194,-15.10474 5.6999,-15.10474z" data-paper-data="{&quot;origPos&quot;:null,&quot;index&quot;:null}" fill="#d7d7d7" stroke="#000000" stroke-linecap="butt"/><path d="M395.56552,83.37793c3.14796,0 5.6999,6.76262 5.6999,15.10474c0,8.34212 -2.55194,15.10474 -5.6999,15.10474c-3.14796,0 -5.6999,-6.76262 -5.6999,-15.10474c0,-8.34212 2.55194,-15.10474 5.6999,-15.10474z" data-paper-data="{&quot;origPos&quot;:null,&quot;index&quot;:null}" fill="#d7d7d7" stroke="#000000" stroke-linecap="butt"/><path d="M407.65599,120.99729v-10.25982h17.6697v10.25982z" data-paper-data="{&quot;origPos&quot;:null,&quot;index&quot;:null}" fill="#000000" stroke="#000000" stroke-linecap="butt"/><path d="M381.88575,120.99729v-10.25982h17.6697v10.25982z" data-paper-data="{&quot;origPos&quot;:null,&quot;index&quot;:null}" fill="#000000" stroke="#000000" stroke-linecap="butt"/><path d="M414.03078,51.70288c2.2732,-1.94322 8.92476,2.10685 14.85669,9.04609c5.93192,6.93923 8.89791,14.13988 6.62471,16.0831c-2.2732,1.94322 -8.92476,-2.10685 -14.85669,-9.04609c-5.93192,-6.93923 -8.89791,-14.13988 -6.62471,-16.0831z" data-paper-data="{&quot;origPos&quot;:null,&quot;origRot&quot;:0,&quot;index&quot;:null}" fill="#8f8f8f" stroke="#000000" stroke-linecap="butt"/><path d="M436.74128,72.81733c3.93496,0 7.12488,2.80713 7.12488,6.26989c0,3.46276 -3.18992,6.26989 -7.12488,6.26989c-3.93496,0 -7.12488,-2.80713 -7.12488,-6.26989c0,-3.46276 3.18992,-6.26989 7.12488,-6.26989z" data-paper-data="{&quot;origPos&quot;:null,&quot;index&quot;:null}" fill="#ffffff" stroke="#000000" stroke-linecap="butt"/><path d="M393.01836,51.32395c2.47746,1.67503 0.34074,9.16374 -4.77249,16.72651c-5.11323,7.56277 -11.26671,12.33573 -13.74417,10.6607c-2.47746,-1.67502 -0.34074,-9.16374 4.77249,-16.72651c5.11323,-7.56277 11.26671,-12.33573 13.74417,-10.6607z" data-paper-data="{&quot;origPos&quot;:null,&quot;origRot&quot;:0,&quot;index&quot;:null}" fill="#8f8f8f" stroke="#000000" stroke-linecap="butt"/><path d="M374.0702,72.99742c3.93496,0 7.12488,2.80713 7.12488,6.26989c0,3.46276 -3.18992,6.26989 -7.12488,6.26989c-3.93496,0 -7.12488,-2.80713 -7.12488,-6.26989c0,-3.46276 3.18992,-6.26989 7.12488,-6.26989z" data-paper-data="{&quot;origPos&quot;:null,&quot;index&quot;:null}" fill="#ffffff" stroke="#000000" stroke-linecap="butt"/><path d="M389.83591,87.81718v-37.04937h29.0695v37.04937z" data-paper-data="{&quot;origPos&quot;:null,&quot;index&quot;:null}" fill="#8f8f8f" stroke="#000000" stroke-linecap="butt"/><path d="" data-paper-data="{&quot;origPos&quot;:null}" fill="#8f8f8f" stroke="#000000" stroke-linecap="butt"/><path d="M404.65565,59.88765c3.14797,0 5.6999,2.93473 5.6999,6.55489c0,3.62016 -2.55193,6.55489 -5.6999,6.55489c-3.14797,0 -5.6999,-2.93473 -5.6999,-6.55489c0,-3.62016 2.55193,-6.55489 5.6999,-6.55489z" data-paper-data="{&quot;origPos&quot;:null,&quot;index&quot;:null}" fill="#00ffe3" stroke="#000000" stroke-linecap="butt"/><path d="M392.11587,46.6572v-19.94966h24.50958v19.94966z" data-paper-data="{&quot;origPos&quot;:null,&quot;index&quot;:null}" fill="#8f8f8f" stroke="#000000" stroke-linecap="butt"/><path d="M409.50057,28.98749c2.04618,0 3.70494,2.93472 3.70494,6.55489c0,3.62017 -1.65876,6.55489 -3.70494,6.55489c-2.04618,0 -3.70494,-2.93472 -3.70494,-6.55489c0,-3.62017 1.65876,-6.55489 3.70494,-6.55489z" data-paper-data="{&quot;origPos&quot;:null,&quot;index&quot;:null}" fill="#000000" stroke="#000000" stroke-linecap="butt"/><path d="M398.67076,28.98749c2.04618,0 3.70494,2.93472 3.70494,6.55489c0,3.62017 -1.65876,6.55489 -3.70494,6.55489c-2.04618,0 -3.70494,-2.93472 -3.70494,-6.55489c0,-3.62017 1.65876,-6.55489 3.70494,-6.55489z" data-paper-data="{&quot;origPos&quot;:null,&quot;index&quot;:null}" fill="#000000" stroke="#000000" stroke-linecap="butt"/><path d="M410.64055,31.26745c1.41659,0 2.56496,1.27596 2.56496,2.84995c0,1.57399 -1.14837,2.84995 -2.56496,2.84995c-1.41659,0 -2.56496,-1.27596 -2.56496,-2.84995c0,-1.57399 1.14837,-2.84995 2.56496,-2.84995z" data-paper-data="{&quot;origPos&quot;:null,&quot;index&quot;:null}" fill="#ffffff" stroke="#000000" stroke-linecap="butt"/><path d="M399.24075,31.83744c1.41659,0 2.56496,1.27596 2.56496,2.84995c0,1.57399 -1.14837,2.84995 -2.56496,2.84995c-1.41659,0 -2.56496,-1.27596 -2.56496,-2.84995c0,-1.57399 1.14837,-2.84995 2.56496,-2.84995z" data-paper-data="{&quot;origPos&quot;:null,&quot;index&quot;:null}" fill="#ffffff" stroke="#000000" stroke-linecap="butt"/><path d="M404.08566,15.30772v10.82981" data-paper-data="{&quot;origPos&quot;:null,&quot;index&quot;:null}" fill="none" stroke="#000000" stroke-linecap="round"/><path d="M413.55377,11.78412c0.70715,1.69681 -0.7568,2.2869 -0.7568,2.2869l-1.34046,0.79763c-1.36802,0.81402 -2.52315,1.4474 -3.83371,1.84571c0.68693,0.78483 1.25918,1.68837 1.74863,2.81815l0.44128,1.24998c0,0 0.8515,0.88889 -0.57944,2.04287c-1.43093,1.15397 -2.8874,-0.819 -2.8874,-0.819l-0.44128,-1.24998c-0.10718,-0.93085 -0.75798,-1.66472 -1.53631,-2.27499l-0.92195,0.5486c-1.77836,1.18049 -3.00253,3.07698 -5.04064,3.9836c-0.70818,0.31502 -1.54602,0.11325 -2.31904,0.16986c0,0 -1.83336,0.13428 -1.96765,-1.69907c-0.13429,-1.83336 1.69907,-1.96765 1.69907,-1.96765c0.77302,-0.05662 1.62084,0.16671 2.31903,-0.16986c0.13046,-0.06288 -0.19345,-0.29893 -0.11317,-0.41947c0.24495,-0.36775 0.65608,-0.59206 0.98412,-0.8881c0.26112,-0.23564 0.51573,-0.46538 0.76949,-0.68918c-1.83836,-0.62322 -3.41776,-1.58636 -5.31888,-2.06904l-2.7336,-1.61483c0,0 -0.5288,-1.76056 1.23177,-2.28937c1.76056,-0.5288 2.28937,1.23177 2.28937,1.23177l0.11718,-0.89105c1.90105,0.48265 3.36625,1.61328 5.16428,2.06978c0.246,0.06245 0.51727,0.08524 0.79139,0.10357c-0.09172,-0.39141 -0.17634,-0.84389 -0.2705,-1.40721c-0.12704,-0.75998 -0.093,-1.64764 -0.5925,-2.23433l-0.55037,-1.03402c0,0 -0.72265,-1.9852 1.01078,-2.59714c1.73342,-0.61195 2.23466,0.8697 2.23466,0.8697l0.55037,1.03402c0.78195,1.72666 0.83832,3.34265 1.39375,4.95205c2.08411,-0.173 2.58707,-0.63781 4.48124,-1.76492l1.34046,-0.79762c0,0 1.92967,-0.82422 2.63682,0.87259z" data-paper-data="{&quot;origPos&quot;:null,&quot;origRot&quot;:0,&quot;index&quot;:null}" fill="#fcff00" stroke="none" stroke-linecap="butt"/></g><g data-paper-data="{&quot;index&quot;:null}"><g data-paper-data="{&quot;index&quot;:null}" stroke-width="2" stroke-linecap="butt"><path d="M419.15236,188.3666c2.14902,-1.19523 6.53403,4.58074 9.79419,12.901c3.26015,8.32028 4.1609,16.03414 2.01188,17.22937c-1.2111,0.6736 -5.16692,0.42256 -6.17221,-0.56511c-3.01588,-2.96303 -1.65325,-7.31146 -3.62198,-12.33589c-3.26015,-8.32028 -4.1609,-16.03412 -2.01188,-17.22936z" data-paper-data="{&quot;origRot&quot;:0,&quot;index&quot;:null,&quot;origPos&quot;:null}" fill="url(#color-2)" stroke="#747474"/><path d="M432.20494,211.58493c2.32996,0.71807 4.26079,3.42342 4.16437,6.30193c-0.05777,1.72461 -1.51167,3.9374 -2.17789,4.6332c-1.95476,2.04157 -6.37223,3.34188 -7.55949,2.97598c-3.72593,-1.1483 -5.49883,-5.19326 -3.95989,-9.03472c0.30528,-0.76205 -1.92201,-1.74034 -1.42745,-2.35883c1.39128,-1.73988 8.20387,-4.65241 11.09976,-4.77892c1.26381,-0.05521 -1.04685,1.98173 -0.13941,2.26138z" data-paper-data="{&quot;index&quot;:null,&quot;origPos&quot;:null,&quot;origRot&quot;:0}" fill="#ffffff" stroke="#d3d3d3"/></g><g data-paper-data="{&quot;index&quot;:null}" stroke-width="2" stroke-linecap="butt"><path d="M400.22621,188.56415c2.16937,1.1579 1.40215,8.88617 -1.71364,17.26157c-1.88155,5.05773 -0.44392,9.38195 -3.40812,12.39669c-0.98806,1.00491 -4.93895,1.32432 -6.16152,0.67176c-2.16937,-1.15789 -1.40215,-8.88618 1.71364,-17.26158c3.11579,-8.3754 7.40026,-14.22633 9.56963,-13.06844z" data-paper-data="{&quot;origRot&quot;:0,&quot;index&quot;:null}" fill="url(#color-3)" stroke="#747474"/><path d="M387.39859,209.74609c2.89764,0.07642 9.75958,2.8707 11.18074,4.58627c0.50518,0.60984 -1.70487,1.6265 -1.38645,2.38316c1.60513,3.81427 -0.09754,7.88929 -3.80306,9.10185c-1.18077,0.38638 -5.62006,-0.83734 -7.60983,-2.8448c-0.67815,-0.68417 -2.1701,-2.87149 -2.25768,-4.59484c-0.14619,-2.87642 1.73757,-5.61474 4.05477,-6.373c0.90247,-0.29531 -1.44307,-2.29199 -0.17849,-2.25864z" data-paper-data="{&quot;index&quot;:null,&quot;origRot&quot;:0}" fill="#ffffff" stroke="#d3d3d3"/></g><path d="M405.4624,185.48537l0.05202,-4.26026l8.04714,0.09826l-0.05202,4.26026z" data-paper-data="{&quot;index&quot;:null}" fill="#b7b7b7" stroke="#747474" stroke-width="2" stroke-linecap="butt"/><path d="M404.29609,152.56947c0,0 1.70241,0.90168 2.59874,1.77139c1.1664,1.13179 1.61866,2.38207 1.84359,3.28818c0.3561,1.43456 0.29587,4.89081 0.29587,4.89081" data-paper-data="{&quot;index&quot;:null,&quot;origRot&quot;:0}" fill="none" stroke="#000000" stroke-width="2" stroke-linecap="round"/><path d="M406.46955,152.94238c0,0 -0.15352,0.93699 -0.45888,3.15639c-0.3088,2.24435 -2.09381,3.31041 -3.82851,3.05413c-1.51063,-0.22317 -2.42115,-1.91356 -3.12341,-3.98075c-0.90162,-2.654 -0.8152,-4.94837 -0.8152,-4.94837c0,0 -6.5705,3.32314 -7.61547,0.04217c-0.41426,-1.30064 -0.57423,-2.15554 0.65703,-3.55092c1.87469,-2.1246 4.39037,-4.10534 4.39037,-4.10534c0,0 -1.45043,-2.24028 -2.02642,-4.71574c-0.50666,-2.1775 -0.28898,-4.56836 1.5262,-5.34167c1.21707,-0.5185 2.99938,0.14497 4.20207,0.91094c2.63022,1.67514 4.7519,5.54501 4.7519,5.54501c0,0 3.32835,-2.36909 5.90849,-3.0959c1.4088,-0.39686 2.29836,-0.10937 2.9864,0.87028c0.90557,1.28939 1.35754,2.99529 0.00744,4.51669c-1.55434,1.75156 -4.59651,2.96148 -4.59651,2.96148c0,0 2.01821,1.36403 3.52463,3.15167c1.29185,1.53299 1.7295,3.69161 1.24951,4.87561c-0.39685,0.97893 -2.228,1.92853 -3.4686,1.78155c-2.00961,-0.23809 -3.27105,-1.12725 -3.27105,-1.12725z" data-paper-data="{&quot;index&quot;:null,&quot;origRot&quot;:0}" fill="#fbff00" stroke="#e1e400" stroke-width="2" stroke-linecap="butt"/><path d="M399.32312,181.48992l-0.23714,-19.40781l20.82789,-0.25449l0.23714,19.40782z" data-paper-data="{&quot;index&quot;:null,&quot;origRot&quot;:0}" fill="#b7b7b7" stroke="#747474" stroke-width="2" stroke-linecap="butt"/><path d="M410.71244,177.84232c0,0 -1.55279,0.75692 -2.28751,0.56934c-0.76563,-0.19545 -2.21733,-1.71946 -2.21733,-1.71946" data-paper-data="{&quot;index&quot;:null,&quot;origRot&quot;:0}" fill="none" stroke="#4c4c4c" stroke-width="2" stroke-linecap="round"/><path d="M403.60251,173.42617l-0.10147,-8.30527l4.83217,-0.05905l0.10148,8.30528z" data-paper-data="{&quot;index&quot;:null,&quot;origRot&quot;:0}" fill="#13a8ff" stroke="#00a2ff" stroke-width="2" stroke-linecap="butt"/><path d="M412.03241,173.40753l-0.10148,-8.30527l4.83217,-0.05905l0.10147,8.30527z" data-paper-data="{&quot;index&quot;:null,&quot;origRot&quot;:0}" fill="#13a8ff" stroke="#00a2ff" stroke-width="2" stroke-linecap="butt"/><path d="M410.79776,233.37912l-0.09081,-19.22252l9.24164,-0.03632l0.09081,19.22253z" data-paper-data="{&quot;index&quot;:null}" fill="url(#color-4)" stroke="#747474" stroke-width="2" stroke-linecap="butt"/><path d="M399.21237,234.51016l0.01875,-19.22257l9.24176,0.02705l-0.01875,19.22257z" data-paper-data="{&quot;index&quot;:null}" fill="url(#color-5)" stroke="#747474" stroke-width="2" stroke-linecap="butt"/><path d="M398.64781,217.00324l-0.22302,-32.09008l22.80456,-0.04697l-0.24135,32.09851z" data-paper-data="{&quot;index&quot;:null,&quot;origRot&quot;:0}" fill="url(#color-6)" stroke="#747474" stroke-width="2" stroke-linecap="butt"/><path d="M410.94346,192.76913c2.57892,0.02547 4.65547,2.4039 4.6381,5.31234c-0.01738,2.90845 -2.12209,5.24555 -4.701,5.22006c-2.57892,-0.02548 -4.65546,-2.4039 -4.63809,-5.31234c0.01738,-2.90844 2.12207,-5.24555 4.70099,-5.22006z" data-paper-data="{&quot;index&quot;:null,&quot;origRot&quot;:0}" fill="url(#color-7)" stroke="#00aeff" stroke-width="2" stroke-linecap="butt"/><path d="M414.93642,169.72236c-0.87983,0.02911 -1.61666,-0.66053 -1.64577,-1.54035c-0.02911,-0.87983 0.66052,-1.61666 1.54034,-1.64577c0.87983,-0.02911 1.61666,0.66052 1.64577,1.54034c0.02911,0.87982 -0.66053,1.61666 -1.54035,1.64577z" data-paper-data="{&quot;index&quot;:null,&quot;origRot&quot;:0}" fill="#b7e5ff" stroke="none" stroke-width="2" stroke-linecap="butt"/><path d="M408.49871,168.23191c0.02911,0.87982 -0.66052,1.61666 -1.54034,1.64577c-0.87982,0.02911 -1.61665,-0.66053 -1.64576,-1.54035c-0.02911,-0.87981 0.66052,-1.61664 1.54034,-1.64575c0.87982,-0.02911 1.61666,0.66052 1.64577,1.54034z" data-paper-data="{&quot;index&quot;:null,&quot;origRot&quot;:0}" fill="#b7e5ff" stroke="none" stroke-width="2" stroke-linecap="butt"/><path d="M421.54969,134.9721c5.4576,9.92993 1.26051,22.71813 -9.37451,28.56326c-10.63502,5.84513 -23.68066,2.53375 -29.13826,-7.39617c-5.4576,-9.92993 -1.2605,-22.71813 9.37452,-28.56326c10.63501,-5.84512 23.68063,-2.53375 29.13824,7.39618z" data-paper-data="{&quot;index&quot;:null,&quot;origRot&quot;:0}" fill="url(#color-8)" stroke="none" stroke-width="2" stroke-linecap="butt"/><path d="M424.42152,238.44954c-0.3098,0.47232 -1.44291,0.34193 -1.90916,0.34596c-2.72931,0.0236 -7.60757,0.06579 -9.22596,0.07978c-0.56974,0.00493 -1.87902,-0.06023 -1.87902,-0.06023c0,0 -0.364,-1.85704 -0.3686,-2.38959c-0.01024,-1.18415 -0.02192,-2.53466 -0.02788,-3.22389c-0.00283,-0.32727 -0.0035,-2.02433 -0.0035,-2.02433c0,0 1.72039,-0.06692 2.32297,-0.07213c1.69369,-0.01464 7.02751,-0.06076 9.60038,-0.08301c0.26016,-0.00224 0.73764,0.3138 0.9359,0.44892c0.45952,0.31319 0.73253,0.70465 0.73887,1.43787c0.01038,1.19963 0.03138,3.62908 0.03779,4.37018c0.0046,0.53127 0.22392,0.49097 -0.22178,1.1705z" data-paper-data="{&quot;index&quot;:null}" fill="#000000" stroke="#000000" stroke-width="2" stroke-linecap="butt"/><path d="M397.20546,239.05552c-0.46625,0.00403 -1.59694,0.154 -1.91486,-0.3129c-0.45738,-0.67171 -0.23741,-0.63521 -0.242,-1.16648c-0.00641,-0.7411 -0.02742,-3.17055 -0.03779,-4.37018c-0.00634,-0.73322 0.25986,-1.12934 0.7139,-1.45042c0.19589,-0.13852 0.66784,-0.46279 0.928,-0.46504c2.57287,-0.02224 7.90669,-0.06837 9.60038,-0.08301c0.60258,-0.00521 2.32388,0.03196 2.32388,0.03196c0,0 0.02868,1.69683 0.03151,2.02409c0.00597,0.68924 0.01764,2.03973 0.02788,3.22389c0.00461,0.53255 -0.32723,2.39561 -0.32723,2.39561c0,0 -1.30796,0.08779 -1.8777,0.09272c-1.61838,0.014 -6.49665,0.05618 -9.22596,0.07978z" data-paper-data="{&quot;index&quot;:null}" fill="#000000" stroke="#000000" stroke-width="2" stroke-linecap="butt"/><path d="M410.7788,177.98506c0,0 -1.55279,0.75692 -2.28751,0.56934c-0.76563,-0.19545 -2.21733,-1.71946 -2.21733,-1.71946" data-paper-data="{&quot;index&quot;:null,&quot;origRot&quot;:0}" fill="none" stroke="#4c4c4c" stroke-width="0.5" stroke-linecap="round"/><path d="M411.28259,192.90953c2.57892,0.02547 4.65547,2.4039 4.6381,5.31234c-0.01738,2.90845 -2.12209,5.24555 -4.701,5.22006c-2.57892,-0.02548 -4.65546,-2.4039 -4.63809,-5.31234c0.01738,-2.90844 2.12207,-5.24555 4.70099,-5.22006z" data-paper-data="{&quot;index&quot;:null,&quot;origRot&quot;:0}" fill="url(#color-9)" stroke="#00aeff" stroke-width="2" stroke-linecap="butt"/><path d="M408.56506,168.37467c0.02911,0.87982 -0.66052,1.61666 -1.54034,1.64577c-0.87982,0.02911 -1.61665,-0.66053 -1.64576,-1.54035c-0.02911,-0.87981 0.66052,-1.61664 1.54034,-1.64575c0.87982,-0.02911 1.61666,0.66052 1.64577,1.54034z" data-paper-data="{&quot;index&quot;:null,&quot;origRot&quot;:0}" fill="#b7e5ff" stroke="none" stroke-width="2" stroke-linecap="butt"/></g><g stroke-width="1.5"><g stroke="#545454" stroke-linecap="round"><path d="M410.92955,281.6576c0,0 -0.83768,-5.31025 -1.58431,-7.34085c-0.63398,-1.72424 -2.61302,-4.07466 -2.61302,-4.07466l5.30667,-2.84238c0,0 2.11994,3.00859 2.85364,4.81397c0.8157,2.00715 1.82064,6.68786 1.82064,6.68786" fill="#6b6b6b"/><g fill="none"><path d="M412.53234,271.08277l-3.75509,2.35761"/><path d="M410.16479,278.74782l4.58142,-3.41991"/></g></g><path d="M407.31004,276.2992c-7.33334,1.83548 -3.90413,-10.77135 -3.90413,-10.77135c0,0 -7.42024,2.2139 -7.82211,-2.33352c-0.36291,-4.1065 7.5132,-5.79369 7.5132,-5.79369c0,0 -2.49018,-9.49026 2.33953,-10.77071c5.04739,-1.74028 7.79582,8.29021 7.79582,8.29021c0,0 8.50747,-3.59483 10.12047,1.00889c1.98764,6.3728 -6.83773,6.47365 -6.83773,6.47365c0,0 7.97754,8.92396 2.05925,10.64984c-4.02797,1.17463 -6.45083,-1.68339 -6.45083,-1.68339c0,0 -0.40384,3.82639 -4.81345,4.93008z" data-paper-data="{&quot;index&quot;:null,&quot;origRot&quot;:0}" fill="#fbff27" stroke="#ffd200" stroke-linecap="butt"/><g><path d="M420.876,303.59891c0,0 4.43323,1.98911 8.20544,12.82108c3.47112,9.96738 1.80001,14.02283 1.80001,14.02283l-7.80913,0.48807c0,0 -1.03463,-8.77878 -1.86825,-11.84801c-0.94256,-3.47034 -1.79228,-4.25834 -1.79228,-4.25834" data-paper-data="{&quot;index&quot;:null}" fill="#b1b1b1" stroke="#747474" stroke-linecap="round"/><path d="M432.758,338.40032c-1.85952,2.41395 -5.53873,2.96448 -8.21775,1.22965c-2.67902,-1.73484 -3.34336,-5.0981 -1.48384,-7.51205c0.59518,-0.77264 -1.14607,0.71477 -2.21969,-1.13333c-1.51091,-2.60085 2.89467,-3.38524 6.65069,-3.56586c3.62905,-0.17451 5.73297,0.08403 5.98652,0.74419c0.88948,2.31582 -2.56726,2.30349 -1.83763,2.77597c2.67902,1.73484 2.98122,5.04748 1.1217,7.46143z" data-paper-data="{&quot;index&quot;:null}" fill="#ffffff" stroke="#d3d3d3" stroke-linecap="butt"/></g><path d="M403.71994,303.51141l6.65191,-0.0875v-4.81213l7.15837,-0.46545l-0.0714,5.27759l6.34021,0.04375l-0.6229,48.44971h-8.20741c0,0 0.15108,-14.95042 -0.78744,-16.29588c-0.45475,-0.65193 -1.8827,16.25475 -1.8827,16.25475l-9.07096,-0.04635z" fill="#b1b1b1" stroke="#747474" stroke-linecap="round"/><path d="M407.55427,351.43597h-3.99275l-0.15664,-12.56613" data-paper-data="{&quot;index&quot;:null}" fill="#999999" stroke="#747474" stroke-linecap="round"/><path d="M399.80702,357.94027c0,0 -0.68836,-4.88804 1.22491,-6.02692c0.53966,-0.32124 2.7837,-0.2366 2.7837,-0.2366l8.59045,0.04825v6.21526z" fill="#333333" stroke="#2d2d2d" stroke-linecap="butt"/><path d="M414.91033,357.94027v-6.21526l8.59045,-0.04825c0,0 2.24403,-0.08464 2.78369,0.2366c1.91327,1.13888 1.22491,6.02692 1.22491,6.02692z" data-paper-data="{&quot;index&quot;:null}" fill="#333333" stroke="#2d2d2d" stroke-linecap="butt"/><g><path d="M405.93991,314.82455c0,0 -0.84973,0.788 -1.79228,4.25834c-0.83361,3.06922 -1.86825,11.84801 -1.86825,11.84801l-7.80914,-0.48807c0,0 -1.6711,-4.05545 1.80002,-14.02283c3.77222,-10.83197 8.20544,-12.82108 8.20544,-12.82108" fill="#b1b1b1" stroke="#747474" stroke-linecap="round"/><path d="M393.71541,330.93889c0.72962,-0.47248 -2.72712,-0.46015 -1.83763,-2.77596c0.25356,-0.66016 2.35748,-0.9187 5.98652,-0.74419c3.75601,0.18062 8.16159,0.96501 6.65068,3.56586c-1.07361,1.84811 -2.81486,0.3607 -2.21968,1.13333c1.85952,2.41395 1.19518,5.77721 -1.48384,7.51205c-2.67902,1.73484 -6.35824,1.18431 -8.21776,-1.22965c-1.85952,-2.41395 -1.55732,-5.72659 1.12171,-7.46143z" data-paper-data="{&quot;index&quot;:null}" fill="#ffffff" stroke="#d3d3d3" stroke-linecap="butt"/></g><path d="M410.44691,315.83279c0.04092,-2.79841 2.08553,-5.02969 4.56679,-4.98371c2.48127,0.04597 4.45956,2.3518 4.41865,5.1502c-0.04092,2.79841 -2.08555,5.02969 -4.5668,4.9837c-2.48126,-0.04598 -4.45954,-2.3518 -4.41864,-5.15021z" data-paper-data="{&quot;index&quot;:null,&quot;origRot&quot;:0}" fill="#65abff" stroke="#1b81ff" stroke-linecap="butt"/><path d="M417.45881,317.79506c-1.04992,0 -1.04992,-1.04992 -1.04992,-1.04992v-0.26248c0.00271,-1.48974 0.1653,-2.0833 -1.25698,-2.73564c0,0 -0.93908,-0.46954 -0.46954,-1.40861c0.46954,-0.93908 1.40861,-0.46954 1.40861,-0.46954c2.12767,1.12217 2.41402,2.32262 2.41775,4.6138v0.26248c0,0 0,1.04992 -1.04992,1.04992z" fill="#ffffff" stroke="none" stroke-linecap="butt"/><path d="M418.77122,303.54492h4.69924l0.15664,10.18169" fill="#cccccc" stroke="#747474" stroke-linecap="round"/><g><path d="M402.15965,301.1563v-22.5436h23.09366v22.5436z" fill="#b1b1b1" stroke="#747474" stroke-linecap="butt"/><path d="M408.42661,294.17683v-12.12073h5.64717v12.12073z" fill="#13a8ff" stroke="#00a2ff" stroke-linecap="butt"/><path d="M417.37943,294.17683v-12.12073h5.64716v12.12073z" fill="#13a8ff" stroke="#00a2ff" stroke-linecap="butt"/><path d="M415.57036,298.28665c-2.25705,0.58374 -3.49376,-1.66744 -3.49376,-1.66744" fill="none" stroke="#363636" stroke-linecap="round"/></g><path d="M414.03198,287.14691c0,1.57294 -0.771,2.84807 -1.72209,2.84807c-0.95108,0 -1.72209,-1.27512 -1.72209,-2.84807c0,-1.57294 0.771,-2.84807 1.72209,-2.84807c0.95108,0 1.72209,1.27512 1.72209,2.84807z" fill="#b7e5ff" stroke="none" stroke-linecap="butt"/><path d="M422.46876,287.41186c0,1.57294 -0.771,2.84807 -1.72209,2.84807c-0.95109,0 -1.72209,-1.27512 -1.72209,-2.84807c0,-1.57294 0.771,-2.84807 1.72209,-2.84807c0.95109,0 1.72209,1.27513 1.72209,2.84807z" fill="#b7e5ff" stroke="none" stroke-linecap="butt"/><g data-paper-data="{&quot;index&quot;:null}"><g><g><path d="" fill="#929292" stroke="#545454" stroke-linecap="round"/><path d="" data-paper-data="{&quot;index&quot;:null}" fill="#ffffff" stroke="#d3d3d3" stroke-linecap="butt"/></g><path d="" fill="none" stroke="#545454" stroke-linecap="round"/><path d="" fill="none" stroke="#545454" stroke-linecap="round"/><path d="" fill="none" stroke="#545454" stroke-linecap="round"/></g><path d="" fill="none" stroke="#545454" stroke-linecap="round"/></g><path d="" data-paper-data="{&quot;index&quot;:null}" fill="#929292" stroke="#545454" stroke-linecap="round"/><g stroke="#545454" stroke-linecap="round"><path d="" fill="#6b6b6b"/><g fill="none"><path d=""/><path d=""/></g></g><path d="" data-paper-data="{&quot;index&quot;:null,&quot;origRot&quot;:0}" fill="#fbff27" stroke="#ffd200" stroke-linecap="butt"/><path d="" fill="#b1b1b1" stroke="#747474" stroke-linecap="round"/><path d="" data-paper-data="{&quot;index&quot;:null}" fill="#333333" stroke="#2d2d2d" stroke-linecap="butt"/><path d="" data-paper-data="{&quot;index&quot;:null,&quot;origRot&quot;:0}" fill="#65abff" stroke="#1b81ff" stroke-linecap="butt"/><path d="" fill="#ffffff" stroke="none" stroke-linecap="butt"/><path d="" fill="#cccccc" stroke="#747474" stroke-linecap="round"/><g><path d="" fill="#b1b1b1" stroke="#747474" stroke-linecap="butt"/><path d="" fill="#13a8ff" stroke="#00a2ff" stroke-linecap="butt"/><path d="" fill="#13a8ff" stroke="#00a2ff" stroke-linecap="butt"/><path d="" fill="none" stroke="#363636" stroke-linecap="round"/></g><path d="" fill="#ffffff" stroke="none" stroke-linecap="butt"/><path d="" fill="#b7e5ff" stroke="none" stroke-linecap="butt"/><path d="" fill="#b7e5ff" stroke="none" stroke-linecap="butt"/><g><path d="" fill="#929292" stroke="#545454" stroke-linecap="butt"/><g><g><path d="" fill="#929292" stroke="#545454" stroke-linecap="round"/><path d="" data-paper-data="{&quot;index&quot;:null}" fill="#ffffff" stroke="#d3d3d3" stroke-linecap="butt"/></g><path d="" fill="none" stroke="#545454" stroke-linecap="round"/><path d="" fill="none" stroke="#545454" stroke-linecap="round"/><path d="" fill="none" stroke="#545454" stroke-linecap="round"/></g></g><path d="" data-paper-data="{&quot;index&quot;:null}" fill="#616161" stroke="#545454" stroke-linecap="round"/><path d="" fill="#333333" stroke="#2d2d2d" stroke-linecap="butt"/><path d="" fill="none" stroke="#545454" stroke-linecap="round"/><path d="" fill="none" stroke="#545454" stroke-linecap="round"/><path d="" fill="none" stroke="#545454" stroke-linecap="round"/><path d="" fill="none" stroke="#545454" stroke-linecap="round"/><path d="" fill="none" stroke="#545454" stroke-linecap="round"/><path d="" fill="none" stroke="#545454" stroke-linecap="round"/><path d="" fill="#333333" stroke="#2d2d2d" stroke-linecap="butt"/><path d="" data-paper-data="{&quot;index&quot;:null}" fill="#333333" stroke="#2d2d2d" stroke-linecap="butt"/><path d="" fill="#b7e5ff" stroke="none" stroke-linecap="butt"/><path d="" fill="#b7e5ff" stroke="none" stroke-linecap="butt"/><path d="M419.42474,256.29282c0,1.05974 -1.05974,1.05974 -1.05974,1.05974h-0.26494c-1.60387,-0.01065 -3.18701,0.22122 -4.69868,0.74042c0,0 -0.15167,0.05056 -0.35683,0.05349c-0.05458,0.27928 -0.23119,0.58408 -0.70292,0.74132c-1.00536,0.33512 -1.34048,-0.67024 -1.34048,-0.67024l-0.29874,-0.9221c-0.38823,-1.94116 -0.62273,-3.85681 -2.09462,-5.28708c0,0 -0.74936,-0.74935 0,-1.49871c0.74936,-0.74935 1.49871,0 1.49871,0c1.5845,1.61838 2.08807,3.50842 2.52202,5.61585c0.06208,-0.02974 0.10262,-0.04325 0.10262,-0.04325c1.76889,-0.5751 3.50734,-0.83903 5.36892,-0.8492h0.26494c0,0 1.05975,0 1.05975,1.05974z" fill="#ffffff" stroke="none" stroke-linecap="butt"/></g><text transform="translate(5,356.4341) scale(0.24569,0.24569)" font-size="40" xml:space="preserve" fill="#b6b6b6" fill-rule="nonzero" stroke="none" stroke-width="1" stroke-linecap="butt" stroke-linejoin="miter" stroke-miterlimit="10" stroke-dasharray="" stroke-dashoffset="0" font-family="&quot;ヒラギノ角ゴ Pro W3&quot;, &quot;Hiragino Kaku Gothic Pro&quot;, Osaka, &quot;メイリオ&quot;, Meiryo, &quot;ＭＳ Ｐゴシック&quot;, &quot;MS PGothic&quot;" font-weight="normal" text-anchor="start" style="mix-blend-mode: normal"><tspan x="0" dy="0">Written by @RobloxNoob101</tspan></text><path d="M173.24731,31.5538c-23.56816,-7.38402 -21.33333,-21 -21.33333,-21h77.66666v24.33334c0,0 -32.76517,4.05068 -56.33334,-3.33334z" fill="#edbd1a" stroke="none" stroke-width="0" stroke-linecap="butt"/><text transform="translate(167.58065,26.63714) scale(0.34832,0.34832)" font-size="40" xml:space="preserve" fill="#ffffff" fill-rule="nonzero" stroke="none" stroke-width="1" stroke-linecap="butt" stroke-linejoin="miter" stroke-miterlimit="10" stroke-dasharray="" stroke-dashoffset="0" font-family="Sans Serif" font-weight="normal" text-anchor="start" style="mix-blend-mode: normal"><tspan x="0" dy="0">SIGNUPS</tspan></text></g></g></svg>