<svg xmlns="http://www.w3.org/2000/svg" xmlns:xlink="http://www.w3.org/1999/xlink" version="1.1" width="227.64702" height="370.3771" viewBox="0,0,227.64702,370.3771"><g><g data-paper-data="{&quot;isPaintingLayer&quot;:true}" fill-rule="nonzero" stroke-linejoin="miter" stroke-miterlimit="10" stroke-dasharray="" stroke-dashoffset="0" style="mix-blend-mode: normal"><path d="M 68.3187 285.135 C 68.3187 285.135 70.1959 293.4031 57.4904 308.5958 C 43.6653 325.1273 18.0151 305.2685 17.5471 306.8235 C 16.1131 311.5827 11.5878 316.381 11.5878 316.381 " data-paper-data="{&quot;origRot&quot;:0,&quot;index&quot;:null}" fill="none" stroke="#000000" stroke-linecap="round" stroke-width="4"/><path d="M 145.7799 355.4397 C 145.7799 355.4397 139.7455 362.0501 135.9094 358.8893 C 134.929 358.0821 130.053 340.7565 121.8627 324.1834 C 112.349 304.9326 102.4222 284.4193 102.4222 284.4193 " data-paper-data="{&quot;origRot&quot;:0,&quot;index&quot;:null}" fill="none" stroke="#000000" stroke-linecap="round" stroke-width="4"/><path d="M 154.5963 345.0949 C 158.3077 345.6757 161.3312 347.4817 162.7943 350.398 C 164.2573 353.3142 164.0832 357.4175 162.0749 360.0022 C 158.1891 364.3321 154.7361 367.0361 140.5654 370.3771 C 137.1259 370.0889 133.8267 367.9828 132.3675 365.074 C 130.9083 362.1653 131.291 358.7069 133.0869 355.4698 C 134.8828 352.2326 138.0938 349.2172 142.2915 347.1924 C 146.4892 345.1677 150.885 344.5141 154.5963 345.0949 Z " data-paper-data="{&quot;origRot&quot;:0,&quot;index&quot;:null}" fill="#000000" stroke="none" stroke-linecap="round" stroke-width="4"/><path d="M 13.0275 330.1259 C 9.4871 331.2268 6.0476 330.9288 3.5327 328.9534 C 1.0178 326.9779 -0.5367 323.2229 0.1717 320.0277 C 1.8216 314.4474 3.7642 310.5142 14.9668 301.3262 C 18.1437 300.0816 21.9531 300.5283 24.4616 302.4987 C 26.9701 304.469 28.0704 307.7371 27.8226 311.4244 C 27.5748 315.1117 25.9771 319.2184 23.0898 322.8682 C 20.2024 326.5179 16.5679 329.0249 13.0275 330.1258 Z " data-paper-data="{&quot;origRot&quot;:0,&quot;index&quot;:null}" fill="#000000" stroke="none" stroke-linecap="round" stroke-width="4"/><path d="M 31.9759 225.3822 C 31.9759 225.3822 41.4557 191.9005 54.4102 187.3894 C 67.0103 183.0016 87.5733 184.862 87.5733 184.862 " data-paper-data="{&quot;index&quot;:null}" fill="none" stroke="#000000" stroke-linecap="round" stroke-width="4"/><path d="M 173.5926 211.5187 C 173.5926 211.5187 147.9432 225.4932 146.7771 221.5462 C 137.0655 216.5876 120.033 185.1356 120.033 185.1356 " data-paper-data="{&quot;index&quot;:null}" fill="none" stroke="#000000" stroke-linecap="round" stroke-width="4"/><path d="M 105.7254 176.1392 C 114.5392 177.9611 121.4173 186.506 125.4083 198.8378 C 129.4006 211.1715 130.506 227.2913 127.7757 244.2629 C 125.0468 261.2355 118.9923 275.8755 111.4161 285.8182 C 103.8419 295.7587 94.7461 301.0012 85.9321 299.1792 C 77.1181 297.3574 70.2401 288.8132 66.2491 276.4814 C 62.2559 264.1475 61.1513 248.028 63.8808 231.0563 C 64.9202 224.5958 65.7473 220.9895 67.716 214.7464 C 70.9253 204.5691 78.8167 192.1558 79.5247 191.2087 C 79.7608 190.893 80.0023 189.8146 80.2413 189.5011 C 87.8154 179.5605 96.9113 174.3173 105.7253 176.1391 Z " data-paper-data="{&quot;origRot&quot;:0,&quot;index&quot;:null}" fill="#080064" stroke="#000000" stroke-linecap="butt" stroke-width="4"/><g data-paper-data="{&quot;origRot&quot;:0}" stroke-linecap="round"><path d="M 137.1189 176.7468 L 106.7571 232.7935 L 99.9401 169.4697 Z " fill="#ffffff" stroke-width="4" stroke="#000000"/><path d="M 103.4062 242.1688 L 112.107 190.9722 L 108.1416 177.4404 L 120.4228 178.9057 L 114.864 191.3011 L 112.8332 239.8868 L 106.7543 254.4913 Z " fill="#ac0000" stroke-width="4" stroke="#000000"/><path d="M 115.7996 188.8927 L 130.1309 180.3331 L 126.6624 198.3696 Z " fill="#ffffff" stroke-width="4" stroke="#000000"/><path d="M 99.9556 195.9201 L 102.6404 179.7084 L 112.7586 189.2667 Z " fill="#ffffff" stroke-width="4" stroke="#000000"/></g><path d="M 175.4812 84.0654 C 186.8946 98.7016 192.4413 116.897 189.4063 135.1685 C 186.372 153.4393 175.3247 168.3578 159.9278 177.7027 C 144.5311 187.0444 124.7864 190.8118 104.3572 186.7794 C 83.9282 182.7462 66.6488 171.672 55.2354 157.0366 C 43.822 142.3996 38.275 124.205 41.3093 105.9343 C 44.3445 87.6636 55.3918 72.7434 70.7887 63.4002 C 86.1854 54.0569 105.9293 50.2902 126.3593 54.3227 C 146.7874 58.3558 164.0676 69.4309 175.4813 84.0654 Z " data-paper-data="{&quot;origRot&quot;:0,&quot;index&quot;:null}" fill="#ffa200" stroke="#000000" stroke-linecap="butt" stroke-width="4"/><path d="M 91.9926 168.2552 C 91.9926 168.2552 97.9989 168.3058 100.7813 169.2702 C 103.4128 170.1824 104.3371 173.4898 104.3371 173.4898 " fill="none" stroke="#000000" stroke-linecap="round" stroke-width="4"/><g><path d="M 153.236 90.3869 C 156.4531 90.7147 159.6469 97.661 160.645 102.3009 C 162.7176 111.9118 162.392 121.7562 161.4579 131.1214 C 161.0407 139.6994 159.8061 148.2781 156.6217 155.7242 C 154.7856 160.0124 150.7617 166.2859 147.5446 165.958 C 144.3275 165.6301 141.7314 161.0988 140.1356 154.0439 C 138.5408 146.988 137.9453 137.4085 138.7304 126.9839 C 139.5155 116.5595 141.5338 107.2464 144.159 100.6205 C 146.785 93.9961 150.0188 90.0589 153.2361 90.3869 Z " data-paper-data="{&quot;origRot&quot;:0,&quot;index&quot;:null}" fill="#000000" stroke="none" stroke-linecap="butt" stroke-width="4"/><path d="M 119.4678 87.5675 C 122.6849 87.8954 125.8787 94.8416 126.8768 99.4815 C 128.9494 109.0924 128.6238 118.9368 127.6897 128.302 C 127.2725 136.88 126.0379 145.4588 122.8535 152.9049 C 121.0174 157.193 116.9935 163.4665 113.7764 163.1386 C 110.5593 162.8108 107.9632 158.2794 106.3674 151.2246 C 104.7726 144.1687 104.1771 134.5892 104.9622 124.1646 C 105.7473 113.7401 107.7656 104.427 110.3908 97.8012 C 113.0168 91.1767 116.2506 87.2395 119.4678 87.5675 Z " data-paper-data="{&quot;origRot&quot;:0,&quot;index&quot;:null}" fill="#000000" stroke="none" stroke-linecap="butt" stroke-width="4"/><path d="M 103.8238 96.8796 L 105.273 80.1654 L 163.9931 87.348 L 162.5438 104.0623 C 162.5438 104.0623 147.8522 108.2427 139.7613 107.253 C 129.0329 105.9407 103.8238 96.8796 103.8238 96.8796 Z " fill="#ffa200" stroke="none" stroke-linecap="butt" stroke-width="4"/><path d="M 108.3475 96.8297 L 131.3622 108.6166 " fill="none" stroke="#000000" stroke-linecap="round" stroke-width="4"/><path d="M 162.527 103.457 L 137.9728 109.4252 " data-paper-data="{&quot;index&quot;:null}" fill="none" stroke="#000000" stroke-linecap="round" stroke-width="4"/><path d="M 100.0362 163.4185 L 101.1824 150.1993 L 159.9024 157.3819 L 158.7562 170.6012 C 158.7562 170.6012 144.1718 173.5447 136.0809 172.5551 C 125.3526 171.2428 100.0362 163.4185 100.0362 163.4185 Z " fill="#ffa200" stroke="none" stroke-linecap="butt" stroke-width="4"/><path d="M 126.0465 151.1468 L 101.5344 148.1485 " fill="none" stroke="#000000" stroke-linecap="round" stroke-width="4"/><path d="M 160.3635 155.3445 L 134.8709 152.2262 " fill="none" stroke="#000000" stroke-linecap="round" stroke-width="4"/></g><path d="M 39.5229 109.7192 C 37.1031 106.6071 32.2412 105.59 31.932 102.5732 C 30.9364 92.8452 34.7371 83.5219 36.1378 74.0097 C 36.5689 71.0834 34.8668 66.8462 37.4317 65.2216 C 45.3514 60.2061 54.7993 55.8417 64.7317 55.9013 C 68.1668 55.9217 67.9176 62.3806 67.0371 65.3979 C 66.0652 68.7301 63.2197 71.829 59.7436 73.0055 C 56.7958 74.0031 52.9141 72.8469 50.1448 71.1157 C 47.209 69.2799 45.2017 66.1328 43.9161 63.107 C 42.6679 60.1666 42.7787 56.92 42.8105 53.8456 C 42.8425 50.8646 42.7744 47.6801 44.1044 45.0574 C 46.3377 40.6598 50.1309 37.1601 53.245 33.2918 C 56.6717 29.0358 60.1862 24.8219 63.747 20.6641 C 67.6352 16.123 71.2038 11.2787 75.6103 7.1737 C 77.9284 5.0131 80.3883 2.1715 83.7794 2 C 90.1736 1.6735 96.5844 4.5205 102.977 5.7796 C 106.1737 6.4088 109.9653 5.7271 112.5758 7.6694 C 115.3823 9.7566 116.3205 13.4228 117.443 16.5402 C 118.9704 20.7814 120.3564 25.1961 120.4631 29.5697 C 120.5366 32.582 119.5685 35.6188 117.9696 38.1219 C 116.2622 40.7928 114.0085 43.5579 110.8377 44.6305 C 107.8677 45.6363 103.353 46.1502 101.0772 43.8396 C 98.8015 41.5284 99.6033 37.3369 101.1715 34.8144 C 106.309 26.5508 113.1456 19.2278 120.4899 12.6182 C 123.2689 10.1164 127.1821 8.6627 131.0593 7.9168 C 134.1846 7.3156 137.6295 7.9015 140.8197 8.7077 C 144.4671 9.6295 148.0773 11.0759 151.2942 13.0306 C 154.5868 15.0314 157.114 18.0022 160.0856 20.4136 C 162.6241 22.4745 166.7141 23.5578 167.8364 26.4613 C 169.6689 31.1982 168.3415 36.328 168.1337 41.2157 C 168.0086 44.189 168.8224 47.7933 166.8398 50.0039 C 164.841 52.232 160.9629 52.3028 157.7942 52.7452 C 154.1697 53.2496 146.6198 54.8609 146.6725 52.8164 C 146.748 49.8004 153.1003 44.4496 158.05 42.6211 C 164.953 40.0715 172.9791 40.1265 180.6177 40.2817 C 183.8629 40.3482 187.1908 41.6408 190.0548 43.2705 C 193.4049 45.1766 195.9906 48.121 198.8446 50.6533 C 201.447 52.9621 204.7052 54.8922 206.4346 57.7992 C 208.1516 60.6867 209.6205 64.2787 208.7399 67.2966 C 207.768 70.6288 204.6528 73.2418 201.4474 74.9043 C 198.5438 76.4108 194.7211 75.8424 191.3628 76.3105 C 188.0053 76.7787 184.721 77.8649 181.2791 77.7159 C 177.2484 77.5413 169.2246 77.5813 169.2801 75.3538 C 169.3513 72.5192 176.8933 69.2826 181.5349 67.5925 C 184.5413 66.4979 188.1337 66.9554 191.457 67.2852 C 195.8898 67.7254 200.2602 69.0181 204.6559 69.8834 C 207.8517 70.5133 211.9827 69.4905 214.2539 71.7731 C 217.4281 74.9643 216.821 79.9918 218.6361 83.9406 C 220.2599 87.471 223.236 90.5229 224.5415 94.1464 C 225.6173 97.1341 225.6789 100.3326 225.6471 103.407 C 225.6153 106.3888 226.0295 109.7668 224.3532 112.1961 C 222.1266 115.4242 217.9695 117.0504 214.6602 119.3307 C 212.0175 121.1514 209.66 123.5442 206.4903 124.5052 C 203.4095 125.4378 199.863 125.4609 196.5683 124.8124 C 193.2727 124.1638 189.9322 122.785 187.2929 120.7247 C 184.5769 118.6061 183.0279 115.4499 181.0642 112.7168 C 178.9305 109.7466 177.1309 106.5793 174.9971 103.609 C 173.0335 100.8759 170.9423 98.2023 168.7684 95.6003 C 166.0454 92.3411 163.5508 88.8411 160.302 86.0204 C 156.2012 82.461 151.0983 80.025 146.8747 76.5942 C 143.7254 74.0385 141.5308 70.5128 138.2458 68.1131 C 134.401 65.3043 130.0562 63.1011 125.6944 61.1209 C 122.6907 59.7572 119.5006 58.5816 116.2573 58.1321 C 112.941 57.6724 109.5325 57.824 106.3352 58.4394 C 102.6783 59.1424 99.3651 60.784 95.9274 62.0427 C 90.6727 63.9662 85.2609 65.652 80.2358 67.9966 C 77.279 69.3753 74.7288 71.3763 72.0658 73.1703 C 66.5119 76.9117 60.8885 80.6093 55.5652 84.6173 C 52.5562 86.8825 49.5008 89.1864 47.072 91.988 C 44.9969 94.3839 43.4523 97.1989 42.178 100.0687 C 40.9757 102.7761 40.5149 105.7726 39.6845 108.62 C 39.4767 109.3331 40.3301 109.1238 39.6845 108.62 Z " data-paper-data="{&quot;origRot&quot;:0,&quot;index&quot;:null}" fill="#000000" stroke="#000000" stroke-linecap="round" stroke-width="4"/></g></g></svg>