<svg xmlns="http://www.w3.org/2000/svg" xmlns:xlink="http://www.w3.org/1999/xlink" version="1.1" width="113.79153" height="413.90909" viewBox="0,0,113.79153,413.90909"><g><g data-paper-data="{&quot;isPaintingLayer&quot;:true}" fill-rule="nonzero" stroke-linejoin="miter" stroke-miterlimit="10" stroke-dasharray="" stroke-dashoffset="0" style="mix-blend-mode: normal"><g><path d="M 86.7925 242.0816 C 86.7925 242.0816 75.9954 246.3385 72.9695 259.2362 C 70.2934 270.6431 75.5477 306.7273 75.5477 306.7273 L 47.9807 313.7 C 47.9807 313.7 31.8381 288.4862 43.3413 251.3441 C 55.8424 210.9802 79.9367 205.813 79.9367 205.813 " fill="#b1b1b1" stroke="#747474" stroke-linecap="round" stroke-width="3.5"/><path d="M 46.7908 314.1807 C 48.8675 311.7431 36.6796 315.4344 37.3752 306.3219 C 37.5735 303.7242 44.7267 300.5914 57.72 297.3776 C 71.1678 294.0514 87.5456 292.1708 84.9573 302.9453 C 83.1182 310.6013 75.4026 307.1889 78.3187 309.2879 C 87.4295 315.8459 88.6338 328.4179 81.0087 337.3684 C 73.3836 346.3189 59.8164 348.2583 50.7056 341.7004 C 41.5948 335.1424 39.1656 323.1312 46.7908 314.1807 Z " data-paper-data="{&quot;index&quot;:null}" fill="#ffffff" stroke="#d3d3d3" stroke-linecap="butt" stroke-width="3.5"/></g><path d="M 49.8511 399.6976 C 49.8511 399.6976 51.0222 374.5444 49.5368 358.5573 C 48.0514 342.5701 41.4536 309.3166 41.4536 309.3166 L 71.8875 306.4889 C 71.8875 306.4889 77.1362 334.6613 78.8303 352.8948 C 80.5245 371.1284 80.285 396.8699 80.285 396.8699 Z " fill="#b1b1b1" stroke="#747474" stroke-width="3.5" stroke-linecap="butt"/><g stroke-linecap="round"><path d="M 59.2729 132.5388 C 59.2729 132.5388 56.1869 112.9759 53.4364 105.4952 C 51.1008 99.1431 43.81 90.4842 43.81 90.4842 L 63.3597 80.0129 C 63.3597 80.0129 71.1696 91.0965 73.8725 97.7475 C 76.8775 105.1418 80.5797 122.3855 80.5797 122.3855 " fill="#6b6b6b" stroke-width="5.5" stroke="#545454"/><g><path d="M 51.3439 102.2666 L 65.1776 93.5812 " stroke-width="4" fill="none" stroke="#545454"/><path d="M 56.4556 121.8192 L 73.3335 109.2203 " stroke-width="4" fill="none" stroke="#545454"/></g></g><path d="M 45.9387 112.7985 C 18.9227 119.5604 31.5559 73.117 31.5559 73.117 C 31.5559 73.117 4.2199 81.2729 2.7393 64.5203 C 1.4024 49.392 30.4179 43.1764 30.4179 43.1764 C 30.4179 43.1764 21.2441 8.2144 39.0367 3.4972 C 57.6312 -2.9139 67.7564 34.0383 67.7564 34.0383 C 67.7564 34.0383 99.0978 20.7949 105.0401 37.755 C 112.3626 61.2323 79.85 61.6038 79.85 61.6038 C 79.85 61.6038 109.2391 94.4796 87.4362 100.8378 C 72.5972 105.1651 63.6714 94.6362 63.6714 94.6362 C 63.6714 94.6362 62.1837 108.7325 45.9387 112.7985 Z " data-paper-data="{&quot;index&quot;:null,&quot;origRot&quot;:0}" fill="#fbff27" stroke="#ffd200" stroke-width="5.5" stroke-linecap="butt"/><path d="M 32.7128 213.048 L 57.2184 212.7257 L 57.2184 194.9978 L 83.5897 193.2832 L 83.3267 212.7257 L 106.684 212.8869 L 105.208 322.8129 L 88.7479 322.8269 C 88.7479 322.8269 99.5004 343.3911 99.8885 354.7721 C 100.2932 366.638 91.1284 392.6282 91.1284 392.6282 L 65.192 389.3516 C 65.192 389.3516 66.4917 370.0718 63.6382 359.7669 C 60.4015 348.0784 46.7762 322.8471 46.7762 322.8471 L 31.5542 322.8636 Z " fill="#b1b1b1" stroke="#747474" stroke-width="3.5" stroke-linecap="round"/><path d="M 88.1616 213.1715 L 105.4735 213.1715 L 106.0506 250.6807 " fill="#cccccc" stroke="#747474" stroke-width="3" stroke-linecap="round"/><path d="M 26.9647 204.3718 L 26.9647 121.3215 L 112.0415 121.3215 L 112.0415 204.3718 Z " fill="#b1b1b1" stroke="#747474" stroke-width="3.5" stroke-linecap="butt"/><path d="M 90.5692 37.1082 C 90.5692 41.0123 86.6651 41.0123 86.6651 41.0123 L 85.689 41.0123 C 79.7804 40.973 73.9481 41.8273 68.3791 43.74 C 68.3791 43.74 67.8204 43.9262 67.0646 43.937 C 66.8635 44.9659 66.2129 46.0888 64.475 46.6681 C 60.7713 47.9026 59.5367 44.1989 59.5367 44.1989 L 58.4361 40.8019 C 57.0059 33.6507 56.142 26.5934 50.7196 21.3243 C 50.7196 21.3243 47.9589 18.5637 50.7196 15.8031 C 53.4802 13.0425 56.2408 15.8031 56.2408 15.8031 C 62.0781 21.7652 63.9332 28.7281 65.5319 36.4918 C 65.7606 36.3823 65.9099 36.3325 65.9099 36.3325 C 72.4265 34.2139 78.831 33.2415 85.689 33.2041 L 86.665 33.2041 C 86.665 33.2041 90.5691 33.2041 90.5691 37.1082 Z " fill="#ffffff" stroke="none" stroke-width="0.5" stroke-linecap="butt"/><path d="M 48.6517 402.2438 L 51.466 379.5205 L 82.895 383.234 C 82.895 383.234 91.1377 383.9407 92.9653 385.3595 C 99.4446 390.3897 94.7145 407.9489 94.7145 407.9489 Z " data-paper-data="{&quot;index&quot;:null}" fill="#333333" stroke="#2d2d2d" stroke-width="3.5" stroke-linecap="butt"/><g><path d="M 71.7792 242.8629 C 71.7792 242.8629 65.1024 251.4787 68.3232 264.329 C 71.1718 275.6941 92.3773 305.3589 92.3773 305.3589 L 71.0703 324.1889 C 71.0703 324.1889 42.4529 309.6738 35.6571 271.3896 C 28.2719 229.7845 64.5723 211.9188 64.5723 211.9188 " fill="#b1b1b1" stroke="#747474" stroke-linecap="round" stroke-width="3.5"/><path d="M 70.2329 325.1614 C 70.9617 322.0431 61.8203 330.9091 58.2628 322.4909 C 57.2487 320.0911 62.171 314.0287 72.2471 305.2181 C 82.6757 296.0993 96.3708 286.9228 99.0077 297.6854 C 100.8814 305.3331 92.4598 305.8357 96.0136 306.365 C 107.1167 308.0189 113.9482 318.6414 111.2723 330.091 C 108.5964 341.5406 97.4263 349.4815 86.3232 347.8276 C 75.2202 346.1737 67.557 336.611 70.2329 325.1614 Z " data-paper-data="{&quot;index&quot;:null}" fill="#ffffff" stroke="#d3d3d3" stroke-linecap="butt" stroke-width="3.5"/></g><path d="M 61.2484 388.626 L 72.5992 368.7405 L 100.1721 384.2747 C 100.1721 384.2747 107.5063 388.1021 108.6463 390.1155 C 112.6877 397.2534 101.5585 411.6353 101.5585 411.6353 Z " data-paper-data="{&quot;index&quot;:null}" fill="#333333" stroke="#2d2d2d" stroke-width="3.5" stroke-linecap="butt"/></g></g></svg>