<svg version="1.1" xmlns="http://www.w3.org/2000/svg" xmlns:xlink="http://www.w3.org/1999/xlink" width="423.36192" height="388.57922" viewBox="0,0,423.36192,388.57922"><g transform="translate(-15.05557,-22.25679)"><g data-paper-data="{&quot;isPaintingLayer&quot;:true}" fill-rule="nonzero" stroke-linejoin="miter" stroke-miterlimit="10" stroke-dasharray="" stroke-dashoffset="0" style="mix-blend-mode: normal"><g stroke="none" stroke-width="0" stroke-linecap="butt"><g data-paper-data="{&quot;origPos&quot;:null}"><path d="M22.73485,237.40031l7.58409,0.60218l-7.67928,96.71524l-7.58409,-0.60218z" data-paper-data="{&quot;origPos&quot;:null}" fill="#585858"/><path d="M20.54301,334.47569l7.81366,-97.05782c0,0 35.77749,2.95797 39.50972,6.82861c3.94429,4.09057 3.89719,15.49649 3.4771,25.18565c-0.42735,9.85698 -1.20768,13.36671 -3.10187,23.04942c-0.74182,4.21234 -35.91319,43.01994 -35.91319,43.01994z" data-paper-data="{&quot;origPos&quot;:null}" fill="#bebebe"/><path d="M32.36305,335.78699l1.81461,-24.13563l37.29235,-42.26408c0,0 -1.29356,22.93159 -3.58841,26.61065c-2.18219,3.49841 -35.51855,39.78908 -35.51855,39.78908z" data-paper-data="{&quot;origPos&quot;:null}" fill="#7f7f7f"/></g><path d="M109.71878,275.70617c-12.07949,-22.07194 -15.51544,-24.15861 23.03399,-45.25587c44.91579,-24.58146 47.53521,-22.68768 59.88411,-0.12342c12.40414,22.66517 11.07521,26.01197 -33.221,50.29139c-38.00583,20.83157 -38.13058,16.22263 -49.69714,-4.91206z" data-paper-data="{&quot;index&quot;:null,&quot;origRot&quot;:0}" fill="#0a0a66"/><path d="M70.3459,308.67091c-8.61372,2.96414 -15.29245,2.55672 -15.29245,2.55672c0,0 3.68447,-2.70778 4.06818,-7.58048c0.64308,-24.88242 -17.54367,-36.56546 -17.12534,-49.77411c1.30899,-21.34488 13.7411,-26.60463 30.78084,-21.03992c17.03974,5.56473 18.33803,8.55653 40.95465,10.5842c14.4824,1.2984 19.08199,10.68583 17.64359,29.26586c-1.28016,16.53585 0.38739,23.59143 -10.54262,24.06352c-10.92999,0.47208 -39.98573,6.16048 -50.48688,11.92421z" data-paper-data="{&quot;origPos&quot;:null,&quot;index&quot;:null}" fill="#0a0a66"/></g><g><path d="M219.55028,103.65971c36.52499,24.84029 42.80313,37.48494 33.24174,52.75196c-9.06775,14.47877 -24.48288,15.00639 -61.28059,-8.87617c-34.12415,-22.14739 -34.9041,-24.82743 -21.32478,-45.46845c13.0027,-19.76449 15.47815,-21.4525 49.36359,1.59267z" data-paper-data="{&quot;index&quot;:null,&quot;origRot&quot;:0}" fill="#8d0000" stroke="none" stroke-width="0" stroke-linecap="butt"/><g data-paper-data="{&quot;origPos&quot;:null}"><g data-paper-data="{&quot;origPos&quot;:null,&quot;origRot&quot;:0}"><path d="M87.58076,140.78471c-9.2523,-0.31694 -15.6476,-4.75767 -20.39473,-12.70561c-4.49258,-7.52176 -3.92026,-12.6353 -3.77215,-21.09511c0.14811,-8.45981 0.93112,-12.70041 5.61092,-17.50623c6.51559,-6.69108 7.23653,-6.03181 18.78175,-6.7811c14.64459,-0.95046 22.85368,4.22435 27.15316,15.28257c3.91716,10.07487 7.61834,26.73192 0.44579,34.42916c-6.85403,7.35546 -13.15556,8.87883 -27.82473,8.37631z" data-paper-data="{&quot;origPos&quot;:null}" fill="#a6a6a6" stroke="none" stroke-width="0" stroke-linecap="butt"/><path d="M65.63263,113.71144c-0.67535,-8.92982 11.93424,-11.13879 17.25504,-8.62474c3.25109,0.69417 5.698,11.87767 0.55587,15.04235c-5.13925,3.16292 -7.34043,-2.18058 -7.68043,-6.18212" data-paper-data="{&quot;origPos&quot;:null}" fill="none" stroke="#5b5b5b" stroke-width="2" stroke-linecap="round"/><path d="M65.12359,104.74483c2.7848,-6.66185 6.69767,-8.65929 17.24401,-7.22438c3.25107,0.69416 5.73264,7.29342 2.6111,11.69749" data-paper-data="{&quot;origPos&quot;:null}" fill="none" stroke="#5b5b5b" stroke-width="2" stroke-linecap="round"/><path d="M65.4708,97.46524c5.10114,-6.36351 6.41004,-8.94165 16.95641,-7.50674c3.25107,0.69416 5.73264,7.2934 2.6111,11.69748" data-paper-data="{&quot;origPos&quot;:null}" fill="none" stroke="#5b5b5b" stroke-width="2" stroke-linecap="round"/><path d="M67.36756,92.15856c5.10114,-6.36351 8.73077,-9.20343 16.66656,-7.50903c3.25108,0.69418 4.58439,5.88393 1.46285,10.28802" data-paper-data="{&quot;origPos&quot;:null}" fill="none" stroke="#5b5b5b" stroke-width="2" stroke-linecap="round"/><path d="M95.40283,132.45044c-6.24997,-2.56011 -9.7589,-6.70735 -9.72903,-13.73188c0.02405,-5.66115 0.09555,-6.35079 0.62454,-12.21157c0.38835,-4.3027 1.68539,-6.25192 5.76242,-5.67089c4.65304,0.66311 3.84898,8.9155 5.91396,12.99985c2.34284,4.63396 6.28327,4.87837 6.8823,10.66301" data-paper-data="{&quot;origPos&quot;:null}" fill="none" stroke="#5b5b5b" stroke-width="2" stroke-linecap="round"/></g><path d="M127.69701,146.272c-20.28199,-0.58025 -28.00062,-6.04273 -29.56295,-33.14932c0.16718,-26.47773 8.12945,-32.08338 26.7378,-33.36703c18.21065,-1.25621 10.26813,5.19542 40.7243,4.88528c20.51451,-0.20889 32.24234,3.91012 33.11975,26.38883c-0.21225,22.51388 -12.07288,26.97028 -32.17945,28.15013c-27.41736,1.60881 -26.79205,7.43682 -38.83943,7.09218z" data-paper-data="{&quot;index&quot;:null,&quot;origPos&quot;:null,&quot;origRot&quot;:0}" fill="#8d0000" stroke="none" stroke-width="0" stroke-linecap="butt"/></g></g><path d="M204.12347,99.87097c23.56537,-5.25051 56.7793,11.83801 59.66256,31.48426c2.88324,19.64625 -14.21257,32.75189 -37.77793,38.00239c-23.56537,5.25052 -55.14825,11.01513 -64.87823,-18.82745c-9.72998,-29.84258 19.42822,-45.40869 42.99358,-50.6592z" data-paper-data="{&quot;origRot&quot;:0}" fill="#8d0000" stroke="none" stroke-width="0" stroke-linecap="butt"/><g data-paper-data="{&quot;origPos&quot;:null}"><path d="M178.40261,203.76512c10.17782,-15.36742 7.00548,-12.9936 40.36398,12.96342c29.57544,22.94152 28.80886,21.88313 17.93861,34.82924c-16.77063,14.44114 -36.26517,20.72079 -54.29247,6.79583c-22.15999,-18.20258 -16.2289,-36.13949 -4.01014,-54.58851z" data-paper-data="{&quot;origPos&quot;:null}" fill="#101099" stroke="none" stroke-width="0" stroke-linecap="butt"/><g data-paper-data="{&quot;origPos&quot;:null}"><path d="M248.42959,232.23521c-9.47506,4.45301 -23.60854,-7.78868 -35.27938,-17.61548c-15.53218,-13.07802 -24.65633,-22.52959 -24.00807,-30.15498c0.69171,-8.13603 38.83585,-50.34258 52.82805,-66.96047c4.59964,-5.46278 13.08509,-10.55985 19.98359,-8.71332c8.64218,2.31326 23.68214,22.89269 23.68214,22.89269c0,0 23.04838,33.23296 17.77526,39.49561c-12.12596,14.40146 -43.67557,55.74239 -54.9816,61.05596z" data-paper-data="{&quot;origPos&quot;:null}" fill="#e50000" stroke="none" stroke-width="0" stroke-linecap="butt"/><path d="M188.18002,219.31864c-10.82462,-8.94205 -20.01564,-21.6157 -16.79378,-26.02836c3.22186,-4.41266 2.91933,-8.2244 9.85848,-8.58527c7.78686,-0.40497 13.93842,-12.65349 20.16421,-18.4223c5.16664,-4.78744 29.26743,14.35712 40.86142,23.44916c11.59396,9.09205 24.59828,22.66295 18.25678,30.30858c-8.2996,10.00643 -1.41924,7.92257 -2.11424,15.27838c-0.35092,8.82552 -7.79435,12.29122 -14.98357,10.79666c-10.11903,-2.10364 -11.34106,-1.82502 -23.96529,-7.02071c-12.62423,-5.19568 -20.48019,-10.85128 -31.284,-19.77615z" data-paper-data="{&quot;origPos&quot;:null}" fill="#e50000" stroke="none" stroke-width="0" stroke-linecap="butt"/><path d="M248.34265,228.16122l52.12786,-61.90992" data-paper-data="{&quot;origPos&quot;:null}" fill="none" stroke="#000000" stroke-width="2" stroke-linecap="round"/><path d="M255.34473,229.41044c0,0 -12.02666,-1.19564 -23.33409,-4.60278c-10.49176,-3.16137 -16.78391,-6.16489 -33.48166,-18.60047" data-paper-data="{&quot;origPos&quot;:null}" fill="none" stroke="#8d0000" stroke-width="2" stroke-linecap="round"/></g><path d="M264.89994,124.55317c-8.30913,-8.95477 -28.26638,-1.31287 -27.92232,-1.82968c4.41708,-6.635 18.91359,-19.85398 26.55449,-17.21011c7.7113,2.66824 13.18394,1.51249 34.13051,27.34186c13.2679,16.01298 17.2808,26.70626 11.19777,33.27942c-7.26238,7.84753 -13.91248,5.17077 -23.44357,-4.71039c-11.34965,-11.76649 0.07609,-14.67801 -20.51688,-36.8711z" data-paper-data="{&quot;origPos&quot;:null}" fill="#8d0000" stroke="none" stroke-width="0" stroke-linecap="butt"/></g><g><g data-paper-data="{&quot;origPos&quot;:null}"><path d="M321.75942,43.85103c28.40537,0 45.28312,17.7288 44.08733,60.68429c-0.08888,21.06125 -7.67684,29.48893 -11.19717,34.26884c-7.75683,6.18381 -10.43307,7.02901 -21.46993,7.36566c-44.30504,-1.61335 -58.11069,-30.35061 -57.91836,-51.26581c0.30795,-35.11504 18.09275,-51.05297 46.49812,-51.05297z" data-paper-data="{&quot;origPos&quot;:null}" fill="#ffceb3" stroke="none" stroke-width="0" stroke-linecap="butt"/><g data-paper-data="{&quot;origPos&quot;:null}"><path d="M355.4221,133.98979l7.03377,-26.32168l18.32425,25.91582z" data-paper-data="{&quot;origPos&quot;:null}" fill="#ffceb3" stroke="none" stroke-width="0" stroke-linecap="butt"/><path d="M363.47041,108.42562c0,0 16.59467,22.8743 16.62474,25.26738c0.01162,2.10075 -23.61505,0.69123 -23.61505,0.69123" data-paper-data="{&quot;origPos&quot;:null}" fill="none" stroke="#b37959" stroke-width="2" stroke-linecap="round"/></g><path d="M356.70346,102.32467c0,13.55767 -2.06831,24.54836 -13.83925,24.54836c-7.6432,0 -13.83923,-10.99068 -13.83923,-24.54836c0,-13.55767 4.36054,-24.54836 13.83923,-24.54836c9.47867,0 13.83925,10.99068 13.83925,24.54836z" data-paper-data="{&quot;origPos&quot;:null}" fill="#ffffff" stroke="none" stroke-width="0" stroke-linecap="butt"/></g><path d="M323.12143,88.35426c0,0 -31.36606,-6.44108 -37.93815,12.80231c-2.27517,25.39164 23.84289,41.48713 23.84289,41.48713c0,0 -24.77515,-4.0832 -36.30765,-24.88745c-9.4724,-17.08791 -8.14555,-35.32393 -3.77544,-50.80572c13.11951,-29.58116 42.04279,-36.81044 62.15824,-35.26714c-0.2058,0.26869 -7.9799,56.67088 -7.9799,56.67088z" data-paper-data="{&quot;origPos&quot;:null}" fill="#661800" stroke="none" stroke-width="0" stroke-linecap="butt"/><path d="M329.39412,26.40494c11.77386,-6.77441 38.80914,-3.21214 38.80914,-3.21214c0,0 -11.62666,4.03818 -12.34783,10.76457c-0.81468,7.59837 0.84751,2.63195 0.84751,9.63894c0,11.86816 -39.84827,11.30174 -39.98209,1.43261c-0.12694,-9.36185 2.17746,-12.58495 12.67324,-18.62399z" fill="#661800" stroke="none" stroke-width="0" stroke-linecap="butt"/><path d="M308.89693,100.63759c2.70348,10.29079 -0.57058,20.06897 -7.31281,21.84025c-6.74224,1.77126 -14.3995,-5.13521 -17.10298,-15.426c-2.70348,-10.29079 0.57058,-20.06897 7.31281,-21.84025c6.74224,-1.77123 14.3995,5.13521 17.10298,15.426z" data-paper-data="{&quot;origPos&quot;:null,&quot;origRot&quot;:0}" fill="#ffceb3" stroke="none" stroke-width="0" stroke-linecap="butt"/><path d="M297.22228,71.5322c0,-6.83485 6.93087,-11.86842 13.76572,-11.86842c6.83485,0 18.92597,5.03357 18.92597,11.86842c0,9.33442 -6.74767,18.65231 -11.20277,26.85495c-4.51006,8.30384 -18.97399,21.32568 -21.15831,19.55362c-1.37946,-1.1191 4.45488,-6.01276 5.19991,-22.31999c0.39336,-7.36921 -5.53052,-17.25372 -5.53052,-24.08857z" data-paper-data="{&quot;origPos&quot;:null}" fill="#661800" stroke="none" stroke-width="0" stroke-linecap="butt"/><path d="M355.64181,108.57468c0,6.65611 -2.06535,12.05196 -4.61306,12.05196c-2.54773,0 -4.61308,-5.39583 -4.61308,-12.05196c0,-6.65611 2.06535,-12.05199 4.61308,-12.05199c2.54773,0 4.61306,5.39585 4.61306,12.05199z" data-paper-data="{&quot;origPos&quot;:null}" fill="#000000" stroke="none" stroke-width="0" stroke-linecap="butt"/><path d="M383.74897,63.66575c7.01375,16.64514 6.72367,20.75288 18.11297,25.10694c11.64434,4.45157 21.78687,11.18649 26.03468,9.64983c-4.37399,13.68084 -26.30506,11.84358 -45.41531,11.52143c-31.2598,-0.52696 -30.61645,-7.32176 -44.15846,-21.4255c-12.73047,-16.53829 -13.48017,-40.69602 -13.48017,-40.69602c0,0 -1.1363,-13.77698 18.24783,-13.77698c10.25456,0 32.95351,11.33483 40.65845,29.62033z" data-paper-data="{&quot;origPos&quot;:null}" fill="#661800" stroke="none" stroke-width="0" stroke-linecap="butt"/><path d="M356.16595,90.12277c0,0 0.05419,14.64792 -0.61953,14.70053c-2.18683,0.17074 -14.54884,-12.32106 -23.18523,-27.30524c-6.55064,-11.36538 -7.89968,-38.70521 -7.89968,-38.70521" data-paper-data="{&quot;origPos&quot;:null}" fill="none" stroke="#000000" stroke-width="2.5" stroke-linecap="round"/><path d="M321.29641,127.55397c0,0 8.0602,0.67415 13.47885,3.70859c4.47837,2.50789 9.80611,8.14139 9.80611,8.14139" data-paper-data="{&quot;origPos&quot;:null}" fill="none" stroke="#b37959" stroke-width="2" stroke-linecap="round"/></g><g><g><g data-paper-data="{&quot;origPos&quot;:null}"><path d="M432.3423,179.30536c4.32089,7.0661 5.9014,18.68402 6.07002,24.62874c0.30836,10.87046 -13.2473,29.06207 -20.66132,30.05329c-11.65378,1.558 -29.79313,0.33895 -34.78252,-2.74808c-6.6777,-4.13159 -8.18795,-14.12525 -7.78925,-24.11106c0.45161,-11.31121 3.7388,-24.28599 14.30957,-28.98012c14.82882,-5.24479 18.97593,-10.44394 25.49103,-3.69302c8.42161,-2.60228 13.0416,-2.21585 17.36246,4.85025z" data-paper-data="{&quot;origPos&quot;:null}" fill="#e5e5e5" stroke="none" stroke-width="0" stroke-linecap="butt"/><path d="M426.84997,186.27254c0,0 -1.33649,-6.96571 -4.12706,-5.53253c-1.72445,0.88562 2.47893,2.81805 0.33879,6.57102c-0.9603,1.68398 -2.3007,3.10253 -7.9964,0.47828c-4.7603,-2.19329 -0.01427,-12.16035 -0.01427,-12.16035" data-paper-data="{&quot;origPos&quot;:null}" fill="none" stroke="#989898" stroke-width="2" stroke-linecap="round"/></g><g data-paper-data="{&quot;origPos&quot;:null,&quot;origRot&quot;:0}"><path d="M380.42584,172.17024c19.93743,3.76743 26.69941,10.37743 23.97294,37.3918c-4.33537,26.12094 -13.08116,30.40256 -31.65943,28.73935c-18.1812,-1.62764 -9.32169,-6.74781 -39.44654,-11.23841c-20.29136,-3.02474 -31.2241,-8.9395 -28.55016,-31.27584c3.75552,-22.1994 16.17004,-24.73216 36.21148,-22.73048c27.3286,2.72951 27.62896,-3.12423 39.4717,-0.88645z" data-paper-data="{&quot;index&quot;:null,&quot;origPos&quot;:null}" fill="#e50000" stroke="none" stroke-width="0" stroke-linecap="butt"/><path d="M319.64727,171.74941c5.10709,0.74349 16.52442,1.53039 30.80018,1.91387c13.11552,0.35235 20.39069,-3.2246 28.53504,-1.76594c19.67902,3.52455 23.33717,10.48762 24.6557,21.52006" data-paper-data="{&quot;origPos&quot;:null}" fill="none" stroke="#8d0000" stroke-width="2" stroke-linecap="round"/></g></g><g data-paper-data="{&quot;origRot&quot;:0}"><path d="M279.88242,191.04572c-28.64173,-33.62686 -31.34677,-47.48278 -18.08333,-59.67226c12.57865,-11.56011 27.58305,-7.9862 56.74141,24.78939c27.0398,30.39429 27.08212,33.18523 8.52093,49.4926c-17.77298,15.61491 -20.60711,16.58702 -47.17898,-14.60973z" data-paper-data="{&quot;origPos&quot;:null,&quot;index&quot;:null}" fill="#e50000" stroke="none" stroke-width="0" stroke-linecap="butt"/><path d="M297.37921,134.93726c22.02422,19.7071 38.61529,40.17977 38.61529,40.17977" data-paper-data="{&quot;origPos&quot;:null}" fill="none" stroke="#8d0000" stroke-width="2" stroke-linecap="round"/></g></g><g stroke="none" stroke-width="0" stroke-linecap="butt"><g><path d="M214.62945,405.38724l0.42728,-7.59595l96.8665,5.44877l-0.42727,7.59596z" data-paper-data="{&quot;origPos&quot;:null}" fill="#585858"/><path d="M311.72956,405.34174l-97.21209,-5.57522c0,0 2.13282,-35.83614 5.91643,-39.65658c3.9986,-4.03749 15.40257,-4.25322 25.09884,-4.0565c9.86422,0.20011 13.39099,0.89937 23.11477,2.56995c4.22831,0.64456 43.83602,34.91241 43.83602,34.91241z" data-paper-data="{&quot;origPos&quot;:null}" fill="#bebebe"/><path d="M312.76818,393.49463l-24.17103,-1.25801l-43.11213,-36.30862c0,0 22.9553,0.76483 26.68627,2.97431c3.54776,2.10101 40.59691,34.59232 40.59691,34.59232z" data-paper-data="{&quot;origPos&quot;:null}" fill="#7f7f7f"/></g><path d="M262.50279,323.99548c-22.39056,11.47815 -24.56939,14.85639 -44.61639,-24.24951c-23.35771,-45.56415 -21.39379,-48.13139 1.49618,-59.86555c-24.34222,9.04057 26.30195,-10.36767 49.3745,34.56896c19.7961,38.55531 15.18549,38.55537 -6.25429,49.54611z" data-paper-data="{&quot;index&quot;:null,&quot;origRot&quot;:0}" fill="#101099"/><path d="M284.78414,356.14666c3.16182,8.54313 2.9084,15.22948 2.9084,15.22948c0,0 -2.79196,-3.6211 -7.6722,-3.89244c-24.89063,-0.06958 -36.15152,18.38154 -49.3663,18.26767c-21.36937,-0.81682 -26.91418,-13.12445 -21.74358,-30.28787c5.17063,-17.16344 17.54648,-17.32339 19.05251,-39.98071c3.55332,-15.37883 7.00764,-18.99715 25.6159,-17.98726c16.56096,0.8988 29.2827,5.99411 30.0065,16.91034c0.7238,10.91621 -4.80537,31.37529 1.1988,41.74085z" data-paper-data="{&quot;index&quot;:null}" fill="#101099"/></g></g></g></svg>