<svg version="1.1" xmlns="http://www.w3.org/2000/svg" xmlns:xlink="http://www.w3.org/1999/xlink" width="206.24219" height="325.18378" viewBox="0,0,206.24219,325.18378"><g transform="translate(-166.22733,-97.62679)"><g data-paper-data="{&quot;isPaintingLayer&quot;:true}" fill-rule="nonzero" stroke-linejoin="miter" stroke-miterlimit="10" stroke-dasharray="" stroke-dashoffset="0" style="mix-blend-mode: normal"><path d="M288.44603,417.75131l-5.61826,0.58025l-29.55789,-89.22534" data-paper-data="{&quot;origRot&quot;:0,&quot;index&quot;:null}" id="ID0.6604248438961804" fill="none" stroke="#000000" stroke-width="3.5" stroke-linecap="round"/><path d="M233.79501,230.52581l6.73944,-2.40111l16.3438,106.2949l-14.68899,1.03692z" data-paper-data="{&quot;origRot&quot;:0}" id="ID0.345300517976284" fill="#000000" stroke="none" stroke-width="0.33954" stroke-linecap="round"/><path d="M197.43176,421.06057l-4.35452,-3.59718l48.86007,-82.54559" data-paper-data="{&quot;origRot&quot;:0,&quot;index&quot;:null}" id="ID0.6604248438961804" fill="none" stroke="#000000" stroke-width="3.5" stroke-linecap="round"/><path d="M311.77701,190.66577l-69.79967,47.80444" data-paper-data="{&quot;origRot&quot;:0}" id="ID0.26897449884563684" fill="none" stroke="#000000" stroke-width="3.5" stroke-linecap="round"/><path d="" data-paper-data="{&quot;origRot&quot;:0}" id="ID0.2091269358061254" fill="#ffffff" stroke="none" stroke-width="1" stroke-linecap="butt"/><g><path d="M247.60547,117.56828c17.60746,-0.50962 33.7577,5.78787 45.62588,16.37424c11.86912,10.58634 19.45709,25.46043 19.93878,42.10334c0.48168,16.64289 -6.2333,31.93112 -17.47026,43.18621c-11.23604,11.2549 -26.99501,18.47594 -44.60247,18.98555c-17.60731,0.50961 -33.7577,-5.78787 -45.62588,-16.37408c-11.86912,-10.58634 -19.45709,-25.46059 -19.9388,-42.10349c-0.48168,-16.64289 6.23331,-31.93096 17.47026,-43.18607c11.23605,-11.25507 26.99516,-18.47611 44.60247,-18.98571z" data-paper-data="{&quot;origRot&quot;:0}" id="ID0.6853013150393963" fill="#ffffff" stroke="#000000" stroke-width="4.90582" stroke-linecap="butt"/><path d="M278.84293,136.88916c11.29653,1.63955 24.44032,18.83307 25.34113,22.93743c0.72819,3.40595 -13.70131,-5.12819 -20.61101,-5.20145c-7.28733,-0.23657 -14.09133,4.31021 -20.91117,4.29483c-5.86634,-0.0094 -11.10624,-5.16399 -16.95719,-4.78002c-5.12969,0.34203 -8.57952,5.57964 -13.47716,6.18807c-4.99618,0.61994 -10.36426,-4.03456 -15.30109,-2.19256c-3.36906,0.9063 -3.40502,6.22427 -5.48748,9.07128c-3.47088,4.77711 -11.57443,7.09604 -11.23554,12.4482c0.76457,12.51092 7.29775,23.97522 14.12011,34.23523c5.42733,8.15547 23.77304,19.68607 22.67948,20.37905c-1.4997,0.30397 -25.19749,-7.41569 -33.05784,-16.38924c-9.0539,-10.34566 -15.04467,-24.4583 -15.24604,-38.3713c-0.19794,-13.59112 2.52543,-31.48262 14.50747,-37.34176c22.66041,-11.07386 50.76416,-9.96394 75.63632,-5.27775z" data-paper-data="{&quot;origRot&quot;:0}" id="ID0.4079975080676377" fill="#e5e5e5" stroke="none" stroke-width="0.61935" stroke-linecap="round"/><path d="M247.1854,116.41995c17.60746,-0.50962 33.7577,5.78787 45.62588,16.37424c11.86912,10.58634 19.45709,25.46043 19.93878,42.10334c0.48168,16.64289 -6.2333,31.93112 -17.47026,43.18621c-11.23604,11.2549 -26.99501,18.47594 -44.60247,18.98555c-17.60731,0.50961 -33.7577,-5.78787 -45.62588,-16.37408c-11.86912,-10.58634 -19.45709,-25.46059 -19.9388,-42.10349c-0.48168,-16.64289 6.23331,-31.93096 17.47026,-43.18607c11.23605,-11.25507 26.99516,-18.47611 44.60247,-18.98571z" data-paper-data="{&quot;origRot&quot;:0}" id="ID0.6853013150393963" fill="none" stroke="#000000" stroke-width="4.90582" stroke-linecap="butt"/><path d="M205.50549,117.20106c2.10927,-1.42378 3.93886,-3.45963 6.2341,-4.39721c3.33706,-1.35488 6.92388,-2.05658 10.35228,-3.17455c4.08967,-1.33348 8.08389,-3.01406 12.22185,-4.18709c3.4016,-0.96387 6.92342,-1.4788 10.37999,-2.2171c3.45657,-0.73832 6.85662,-1.95313 10.37999,-2.2171c3.48076,-0.26074 7.03758,-0.02637 10.46314,0.65542c3.62992,0.72307 7.27602,1.78098 10.54627,3.52811c6.43236,3.43643 12.1848,8.07981 18.38502,11.92634c3.14022,1.9485 6.67937,3.27208 9.65304,5.47064c2.88546,2.13304 6.11919,4.26001 7.81103,7.44062c1.81944,3.41939 2.70718,7.58541 2.23002,11.43551c-0.56934,4.60585 -0.47523,14.09072 -5.32379,14.52907c-7.16257,0.43353 -12.02626,-8.83563 -18.76179,-11.81951c-3.39657,-1.51941 -7.30036,0.03491 -10.92497,-0.21082c-3.52089,-0.40422 -6.93897,-1.65069 -10.43368,-1.27939c-3.58705,0.00416 -6.8784,2.28069 -10.47213,2.31571c-3.60209,0.03525 -6.91559,-2.5168 -10.51856,-2.57066c-3.84413,-0.05739 -7.59671,1.31151 -11.32863,2.24455c-3.49719,0.87457 -6.75866,2.90577 -10.35227,3.17472c-3.52337,0.26382 -6.96044,-1.63862 -10.49085,-1.61304c-2.30842,-0.00901 -3.40101,1.01648 -4.73526,2.05373c-2.93519,2.12047 -4.93248,4.69191 -7.88921,6.26586c-5.38317,2.86502 -11.25156,8.54816 -16.13839,6.64836c-3.96581,-1.34203 -1.72189,-8.64523 -1.56687,-13.13185c0.11713,-3.56069 0.8617,-7.10025 1.59244,-10.58774c0.62742,-3.02648 1.07403,-5.96509 2.89376,-8.27763c1.32921,-2.29726 3.96447,-3.42479 6.12395,-4.92089c3.25403,-2.2937 6.26812,-4.86873 9.66955,-7.08408z" data-paper-data="{&quot;origRot&quot;:0}" id="ID0.6779168676584959" fill="#1f0f03" stroke="#0d0601" stroke-width="6.78139" stroke-linecap="round"/><path d="M252.95239,161.39666c0.94781,-0.04135 1.83916,1.53145 2.51023,4.10803c0.6726,2.57635 1.1266,6.15425 1.20275,10.12044c0.07614,3.96618 -0.23983,7.57766 -0.81245,10.20835c-0.57108,2.63077 -1.4006,4.27867 -2.34842,4.32002c-0.94781,0.04135 -1.83916,-1.53145 -2.51023,-4.10803c-0.6727,-2.57634 -1.1266,-6.15425 -1.20275,-10.12044c-0.07614,-3.96618 0.23973,-7.57767 0.81245,-10.20835c0.57108,-2.63077 1.4006,-4.27867 2.34842,-4.32002z" data-paper-data="{&quot;origRot&quot;:0}" id="ID0.03663516929373145" fill="#000000" stroke="none" stroke-width="1.50572" stroke-linecap="butt"/><path d="M269.45239,160.39667c0.94781,-0.04136 1.83916,1.53145 2.51022,4.10802c0.6726,2.57636 1.1266,6.15424 1.20275,10.12043c0.07614,3.96618 -0.23984,7.57766 -0.81245,10.20835c-0.57108,2.63076 -1.4006,4.27867 -2.34841,4.32003c-0.94781,0.04136 -1.83916,-1.53145 -2.51023,-4.10802c-0.6727,-2.57635 -1.1266,-6.15425 -1.20275,-10.12044c-0.07614,-3.96618 0.23973,-7.57767 0.81245,-10.20835c0.57109,-2.63076 1.4006,-4.27867 2.34842,-4.32002z" data-paper-data="{&quot;origRot&quot;:0}" id="ID0.03663516929373145" fill="#000000" stroke="none" stroke-width="1.50572" stroke-linecap="butt"/><path d="M279.25,203.6899c0,3.31371 -7.16344,6 -16,6c-8.83656,0 -16,-2.68629 -16,-6c0,-3.31371 7.16344,-6 16,-6c8.83656,0 16,2.68629 16,6z" fill="#000000" stroke="#000000" stroke-width="2" stroke-linecap="butt"/><path d="M267.25,206.4399c0,2.07107 -4.2533,3.75 -9.5,3.75c-5.2467,0 -9.5,-1.67893 -9.5,-3.75c0,-2.07107 4.2533,-3.75 9.5,-3.75c5.2467,0 9.5,1.67893 9.5,3.75z" fill="#ff0000" stroke="none" stroke-width="0" stroke-linecap="butt"/><path d="M279.25,203.68991c0,3.31371 -7.16344,6 -16,6c-8.83656,0 -16,-2.68629 -16,-6c0,-3.31371 7.16344,-6 16,-6c8.83656,0 16,2.68629 16,6z" fill="none" stroke="#000000" stroke-width="2" stroke-linecap="butt"/></g><path d="M167.97733,192.66578l69.79967,47.80444" data-paper-data="{&quot;origRot&quot;:0,&quot;index&quot;:null}" id="ID0.26897449884563684" fill="none" stroke="#000000" stroke-width="3.5" stroke-linecap="round"/><g data-paper-data="{&quot;origRot&quot;:0}" id="ID0.8519621551968157" stroke-width="0.5" stroke-linecap="round"><g id="ID0.6671354710124433"><path d="M335.67359,134.81685c-1.03393,6.83043 0.62861,17.03697 2.50626,25.88085c1.41791,6.64281 4.40442,12.78735 6.2286,19.33325c2.04408,5.81366 6.5273,17.80812 5.36389,17.69703c-1.20518,-0.11332 -7.50218,-11.51951 -10.27812,-18.79113c-2.71479,-7.67427 -4.60322,-16.09198 -5.60145,-24.43078c-1.10474,-9.41149 -1.70399,-19.49937 -0.09983,-26.52246c1.46043,-6.40665 10.43965,-8.86295 10.81118,-7.98923c0.35907,0.86501 -7.74291,7.18728 -8.93055,14.82249z" id="ID0.09330351743847132" fill="#2b7c11" stroke="#205b0c"/><path d="M348.67654,153.97682c-2.14827,5.29089 -1.90502,14.89006 -1.22367,23.4384c0.51997,6.42488 2.80423,13.25189 3.77626,19.80835c1.31977,6.04687 4.32896,18.6628 3.09322,17.95376c-1.2804,-0.73304 -6.33153,-13.80373 -8.21833,-21.48274c-1.75991,-7.99081 -2.51746,-16.18069 -2.32854,-23.8332c0.23682,-8.62531 1.12038,-17.56185 3.91177,-22.71636c2.54322,-4.70361 12.58293,-2.06263 12.85051,-1.11992c0.25553,0.92867 -9.42554,2.0543 -11.86124,7.95173z" id="ID0.09330351743847132" fill="#2b7c11" stroke="#205b0c"/><path d="M313.00176,160.78213c-0.21593,-0.95264 7.60368,-7.01411 12.19805,-3.67749c5.03876,3.65486 10.1872,11.43612 14.59777,19.17134c3.8939,6.87058 7.19093,14.57406 9.48214,22.46313c2.02448,7.65266 3.80222,21.35026 2.99771,22.48262c-0.77569,1.09429 -4.18392,-11.44524 -5.92863,-17.41071c-2.30794,-6.30062 -3.55752,-13.32579 -6.21141,-19.34197c-3.5405,-8.00075 -7.98946,-16.79444 -12.51135,-20.80782c-5.0776,-4.45846 -14.40427,-1.94365 -14.62429,-2.87912z" id="ID0.09330351743847132" fill="#2b7c11" stroke="#205b0c"/><path d="M348.01778,190.01839c0,0 -0.87914,-4.02004 -1.32506,-6.02703c-0.11143,-0.50175 -0.07278,-0.2853 -0.10912,-0.42774c-0.03634,-0.14244 -0.07278,-0.2853 -0.10912,-0.42774c-0.03634,-0.14244 -0.07278,-0.2853 -0.10912,-0.42774c-0.03634,-0.14244 -0.10679,-0.29449 -0.10912,-0.42774c-0.00319,-0.18826 0.09667,-0.27827 0.09349,-0.46653c-0.00233,-0.13325 -0.07278,-0.2853 -0.10912,-0.42774c-0.03634,-0.14244 -0.07278,-0.2853 -0.10912,-0.42774c-0.03634,-0.14244 -0.07278,-0.2853 -0.10912,-0.42774c-0.03634,-0.14244 -0.10679,-0.29449 -0.10912,-0.42774c-0.00319,-0.18826 0.09667,-0.27827 0.09349,-0.46653c-0.00233,-0.13325 -0.07278,-0.2853 -0.10912,-0.42774c-0.03634,-0.14244 -0.07278,-0.2853 -0.10912,-0.42774c-0.03634,-0.14244 -0.07278,-0.2853 -0.10912,-0.42774c-0.07267,-0.28486 -0.19203,-0.57695 -0.21824,-0.85546c-0.01859,-0.19697 0.09667,-0.27827 0.09349,-0.46653c-0.00233,-0.13325 -0.07278,-0.2853 -0.10912,-0.42774c-0.03634,-0.14244 -0.10679,-0.29449 -0.10912,-0.42774c-0.00319,-0.18826 0.09667,-0.27827 0.09349,-0.46653c-0.00233,-0.13325 -0.07278,-0.2853 -0.10912,-0.42774c-0.03634,-0.14244 -0.07278,-0.2853 -0.10912,-0.42774c-0.03634,-0.14244 -0.07278,-0.2853 -0.10912,-0.42774c-0.03634,-0.14244 -0.13109,-0.3181 -0.10912,-0.42774c0.02196,-0.10964 0.18063,0.07083 0.2026,-0.03881c0.02196,-0.10964 -0.10679,-0.29449 -0.10912,-0.42774c-0.00319,-0.18826 0.09667,-0.27827 0.09349,-0.46653c-0.00233,-0.13325 -0.07278,-0.2853 -0.10912,-0.42774c-0.03634,-0.14244 -0.13109,-0.3181 -0.10912,-0.42774c0.02196,-0.10964 0.18063,0.07083 0.2026,-0.03881c0.02196,-0.10964 -0.07278,-0.2853 -0.10912,-0.42774c-0.00906,-0.03551 0,0 0,0" id="ID0.5301340254954994" fill="none" stroke="#205a0b"/><path d="M345.89693,167.54445c0,0 0.01379,-0.58318 -0.01564,-0.89426c-0.01321,-0.13923 -0.10679,-0.29449 -0.10912,-0.42774c-0.00319,-0.18826 0.09667,-0.27827 0.09349,-0.46653c-0.00233,-0.13325 -0.13109,-0.3181 -0.10912,-0.42774c0.02196,-0.10964 0.18063,0.07083 0.2026,-0.03881c0.02196,-0.10964 -0.10679,-0.29449 -0.10912,-0.42774c-0.00319,-0.18826 0.06235,-0.31118 0.09349,-0.46653c0.03113,-0.15536 0.09667,-0.27827 0.09349,-0.46653c-0.00233,-0.13325 -0.07278,-0.2853 -0.10912,-0.42774c-0.03634,-0.14244 -0.10679,-0.29449 -0.10912,-0.42774c-0.00319,-0.18826 0.09667,-0.27827 0.09349,-0.46653c-0.00233,-0.13325 -0.13109,-0.3181 -0.10912,-0.42774c0.02196,-0.10964 0.18063,0.07083 0.2026,-0.03881c0.02196,-0.10964 -0.10679,-0.29449 -0.10912,-0.42774c-0.00319,-0.18826 0.06235,-0.31118 0.09349,-0.46653c0.03113,-0.15536 0.09667,-0.27827 0.09349,-0.46653c-0.00233,-0.13325 -0.10679,-0.29449 -0.10912,-0.42774c-0.00319,-0.18826 0.09667,-0.27827 0.09349,-0.46653c-0.00233,-0.13325 -0.10679,-0.29449 -0.10912,-0.42774c-0.00319,-0.18826 0.03121,-0.35994 0.09349,-0.46653c0.04411,-0.07531 0.18063,0.07083 0.2026,-0.03881c0.04927,-0.24587 -0.03166,-0.61305 -0.01564,-0.89426c0.0101,-0.1778 0.06235,-0.31118 0.09349,-0.46653c0.03113,-0.15536 0.06235,-0.31118 0.09349,-0.46653c0.03113,-0.15536 0.06235,-0.31118 0.09349,-0.46653c0.03113,-0.15536 0.03121,-0.35994 0.09349,-0.46653c0.04411,-0.07531 0.18063,0.07083 0.2026,-0.03881c0.02196,-0.10964 -0.10679,-0.29449 -0.10912,-0.42774c-0.00319,-0.18826 0.06235,-0.31118 0.09349,-0.46653c0.03113,-0.15536 0.06235,-0.31118 0.09349,-0.46653c0.03113,-0.15536 0.09667,-0.27827 0.09349,-0.46653c-0.00233,-0.13325 -0.13109,-0.3181 -0.10912,-0.42774c0.04927,-0.24587 0.24682,-0.25947 0.29608,-0.50533c0.02196,-0.10964 -0.10679,-0.29449 -0.10912,-0.42774c-0.00319,-0.18826 0.06235,-0.31118 0.09349,-0.46653c0.06226,-0.31071 0.12471,-0.62236 0.18697,-0.93307c0.03113,-0.15536 0.06235,-0.31118 0.09349,-0.46653c0.00776,-0.03873 0,0 0,0" id="ID0.8267802773043513" fill="none" stroke="#205a0b"/><path d="M340.47362,171.27492c0,0 -0.37531,-0.81059 -0.52996,-1.24439c-0.09779,-0.27422 -0.14557,-0.5706 -0.21824,-0.85546c-0.07267,-0.28486 -0.10652,-0.59332 -0.21824,-0.85546c-0.07896,-0.18542 -0.22303,-0.21704 -0.31172,-0.38893c-0.06271,-0.12167 -0.07278,-0.2853 -0.10912,-0.42774c-0.03634,-0.14244 -0.07278,-0.2853 -0.10912,-0.42774c-0.03634,-0.14244 -0.07278,-0.2853 -0.10912,-0.42774c-0.03634,-0.14244 -0.07278,-0.2853 -0.10912,-0.42774c-0.07267,-0.28486 -0.14557,-0.5706 -0.21824,-0.85546c-0.03634,-0.14244 -0.07278,-0.2853 -0.10912,-0.42774c-0.07267,-0.28486 -0.14557,-0.5706 -0.21824,-0.85546c-0.03634,-0.14244 -0.07278,-0.2853 -0.10912,-0.42774c-0.03634,-0.14244 -0.07278,-0.2853 -0.10912,-0.42774c-0.03634,-0.14244 -0.07278,-0.2853 -0.10912,-0.42774c-0.03634,-0.14244 -0.07278,-0.2853 -0.10912,-0.42774c-0.03634,-0.14244 -0.07278,-0.2853 -0.10912,-0.42774c-0.03634,-0.14244 -0.04641,-0.30606 -0.10912,-0.42774c-0.08869,-0.17189 -0.22303,-0.21704 -0.31172,-0.38893c-0.06271,-0.12167 -0.07278,-0.2853 -0.10912,-0.42774c-0.03634,-0.14244 -0.07278,-0.2853 -0.10912,-0.42774c-0.07267,-0.28486 -0.14557,-0.5706 -0.21824,-0.85546c-0.07267,-0.28486 -0.14557,-0.5706 -0.21824,-0.85546c-0.03634,-0.14244 -0.07278,-0.2853 -0.10912,-0.42774c-0.07267,-0.28486 -0.14557,-0.5706 -0.21824,-0.85546c-0.07267,-0.28486 -0.14557,-0.5706 -0.21824,-0.85546c-0.03634,-0.14244 -0.07278,-0.2853 -0.10912,-0.42774c-0.03634,-0.14244 -0.07278,-0.2853 -0.10912,-0.42774c-0.07267,-0.28486 -0.14557,-0.5706 -0.21824,-0.85546c-0.03634,-0.14244 -0.07278,-0.2853 -0.10912,-0.42774c-0.03634,-0.14244 -0.07278,-0.2853 -0.10912,-0.42774c-0.03634,-0.14244 -0.09591,-0.28849 -0.10912,-0.42774c-0.02943,-0.31109 0.01379,-0.58318 -0.01564,-0.89426c-0.01321,-0.13923 -0.07278,-0.2853 -0.10912,-0.42774c-0.03634,-0.14244 -0.07278,-0.2853 -0.10912,-0.42774c-0.03634,-0.14244 -0.07278,-0.2853 -0.10912,-0.42774c-0.03634,-0.14244 -0.07278,-0.2853 -0.10912,-0.42774c-0.03634,-0.14244 -0.07278,-0.2853 -0.10912,-0.42774c-0.03634,-0.14244 -0.10679,-0.29449 -0.10912,-0.42774c-0.00319,-0.18826 0.06235,-0.31118 0.09349,-0.46653c0.00776,-0.03873 0,0 0,0" id="ID0.22660227492451668" fill="none" stroke="#205a0b"/><path d="M334.1913,143.31718c0,0 0.01379,-0.58318 -0.01564,-0.89426c-0.01321,-0.13923 -0.10679,-0.29449 -0.10912,-0.42774c-0.00319,-0.18826 0.08338,-0.28874 0.09349,-0.46653c0.01602,-0.28122 0.01379,-0.58318 -0.01564,-0.89426c-0.01321,-0.13923 -0.09591,-0.28849 -0.10912,-0.42774c-0.02943,-0.31109 -0.03166,-0.61305 -0.01564,-0.89426c0.0101,-0.1778 0.09667,-0.27827 0.09349,-0.46653c-0.00233,-0.13325 -0.09591,-0.28849 -0.10912,-0.42774c-0.02943,-0.31109 0.01379,-0.58318 -0.01564,-0.89426c-0.01321,-0.13923 -0.13109,-0.3181 -0.10912,-0.42774c0.02196,-0.10964 0.18063,0.07083 0.2026,-0.03881c0.02196,-0.10964 -0.10679,-0.29449 -0.10912,-0.42774c-0.00319,-0.18826 0.09667,-0.27827 0.09349,-0.46653c-0.00233,-0.13325 -0.13109,-0.3181 -0.10912,-0.42774c0.02196,-0.10964 0.18063,0.07083 0.2026,-0.03881c0.02196,-0.10964 -0.07278,-0.2853 -0.10912,-0.42774c-0.03634,-0.14244 -0.13109,-0.3181 -0.10912,-0.42774c0.02196,-0.10964 0.15849,0.0365 0.2026,-0.03881c0.06227,-0.10659 0.09667,-0.27827 0.09349,-0.46653c-0.00233,-0.13325 -0.10679,-0.29449 -0.10912,-0.42774c-0.00319,-0.18826 0.09667,-0.27827 0.09349,-0.46653c-0.00233,-0.13325 -0.10679,-0.29449 -0.10912,-0.42774c-0.00319,-0.18826 0.06235,-0.31118 0.09349,-0.46653c0.06226,-0.31071 0.16675,-0.57748 0.18697,-0.93307c0.00726,-0.12567 -0.10679,-0.29449 -0.10912,-0.42774c-0.00319,-0.18826 0.09667,-0.27827 0.09349,-0.46653c-0.00233,-0.13325 -0.10679,-0.29449 -0.10912,-0.42774c-0.00319,-0.18826 0.06235,-0.31118 0.09349,-0.46653c0.03113,-0.15536 0.09667,-0.27827 0.09349,-0.46653c-0.00233,-0.13325 -0.13109,-0.3181 -0.10912,-0.42774c0.02196,-0.10964 0.18063,0.07083 0.2026,-0.03881c0.02196,-0.10964 -0.13109,-0.3181 -0.10912,-0.42774c0.02196,-0.10964 0.15849,0.0365 0.2026,-0.03881c0.06227,-0.10659 0.03121,-0.35994 0.09349,-0.46653c0.04411,-0.07531 0.15849,0.0365 0.2026,-0.03881c0.06227,-0.10659 0.04255,-0.33968 0.09349,-0.46653c0.08055,-0.20071 0.17869,-0.37744 0.29608,-0.50533c0.05257,-0.05717 0.16667,0.05108 0.2026,-0.03881c0.10188,-0.25369 0.08509,-0.67938 0.18697,-0.93307c0.03593,-0.08989 0.146,0.00838 0.2026,-0.03881c0.17923,-0.14873 0.35923,-0.30614 0.49868,-0.54414c0.06227,-0.10659 0.03121,-0.35994 0.09349,-0.46653c0.04411,-0.07531 0.13514,-0.02588 0.2026,-0.03881c0.06747,-0.01293 0.18063,0.07083 0.2026,-0.03881c0.02196,-0.10964 -0.13109,-0.3181 -0.10912,-0.42774c0.02196,-0.10964 0.13514,-0.02588 0.2026,-0.03881c0.06747,-0.01293 0.18063,0.07083 0.2026,-0.03881c0.02196,-0.10964 -0.13109,-0.3181 -0.10912,-0.42774c0.02196,-0.10964 0.13514,-0.02588 0.2026,-0.03881c0.06747,-0.01293 0.13514,-0.02588 0.2026,-0.03881c0.01682,-0.00322 0,0 0,0" id="ID0.3601144407875836" fill="none" stroke="#205a0b"/><path d="M339.69448,173.21867c0,0 0.00906,0.03551 0,0c-0.03634,-0.14244 -0.07278,-0.2853 -0.10912,-0.42774c-0.03634,-0.14244 -0.04641,-0.30606 -0.10912,-0.42774c-0.08869,-0.17189 -0.22303,-0.21704 -0.31172,-0.38893c-0.06271,-0.12167 -0.07278,-0.2853 -0.10912,-0.42774c-0.03634,-0.14244 -0.07278,-0.2853 -0.10912,-0.42774c-0.03634,-0.14244 -0.07278,-0.2853 -0.10912,-0.42774c-0.03634,-0.14244 -0.04641,-0.30606 -0.10912,-0.42774c-0.08869,-0.17189 -0.22303,-0.21704 -0.31172,-0.38893c-0.06271,-0.12167 -0.07278,-0.2853 -0.10912,-0.42774c-0.03634,-0.14244 -0.07278,-0.2853 -0.10912,-0.42774c-0.03634,-0.14244 -0.07278,-0.2853 -0.10912,-0.42774c-0.03634,-0.14244 -0.00283,-0.07437 -0.10912,-0.42774c-0.42508,-1.41387 -1.29378,-4.2385 -1.29378,-4.2385" id="ID0.6711908527649939" fill="none" stroke="#205a0b"/><path d="M318.31125,159.36884c0,0 1.15709,0.09424 1.72993,0.1173c0.1432,0.00576 0.13514,-0.02588 0.2026,-0.03881c0.06747,-0.01293 0.13514,-0.02588 0.2026,-0.03881c0.06747,-0.01293 0.13514,-0.02588 0.2026,-0.03881c0.06747,-0.01293 0.13514,-0.02588 0.2026,-0.03881c0.06747,-0.01293 0.13514,-0.02588 0.2026,-0.03881c0.06747,-0.01293 0.13514,-0.02588 0.2026,-0.03881c0.06747,-0.01293 0.13514,-0.02588 0.2026,-0.03881c0.06747,-0.01293 0.12597,-0.09098 0.2026,-0.03881c0.10832,0.07391 0.2034,0.31501 0.31172,0.38893c0.07663,0.05217 0.13514,-0.02588 0.2026,-0.03881c0.06747,-0.01293 0.13514,-0.02588 0.2026,-0.03881c0.06747,-0.01293 0.12597,-0.09098 0.2026,-0.03881c0.10832,0.07391 0.2034,0.31501 0.31172,0.38893c0.07663,0.05217 0.13514,-0.02588 0.2026,-0.03881c0.06747,-0.01293 0.13514,-0.02588 0.2026,-0.03881c0.06747,-0.01293 0.13514,-0.02588 0.2026,-0.03881c0.06747,-0.01293 0.13514,-0.02588 0.2026,-0.03881c0.06747,-0.01293 0.13514,-0.02588 0.2026,-0.03881c0.06747,-0.01293 0.12597,-0.09098 0.2026,-0.03881c0.10832,0.07391 0.2034,0.31501 0.31172,0.38893c0.07663,0.05217 0.13514,-0.02588 0.2026,-0.03881c0.06747,-0.01293 0.12935,-0.1302 0.2026,-0.03881c0.07325,0.09139 0.03586,0.33633 0.10912,0.42774c0.07325,0.09139 0.13514,-0.02588 0.2026,-0.03881c0.06747,-0.01293 0.13514,-0.02588 0.2026,-0.03881c0.06747,-0.01293 0.12597,-0.09098 0.2026,-0.03881c0.10832,0.07391 0.2034,0.31501 0.31172,0.38893c0.07663,0.05217 0.12597,-0.09098 0.2026,-0.03881c0.10832,0.07391 0.2034,0.31501 0.31172,0.38893c0.07663,0.05217 0.13514,-0.02588 0.2026,-0.03881c0.06747,-0.01293 0.12597,-0.09098 0.2026,-0.03881c0.10832,0.07391 0.2034,0.31501 0.31172,0.38893c0.07663,0.05217 0.12597,-0.09098 0.2026,-0.03881c0.10832,0.07391 0.2034,0.31501 0.31172,0.38893c0.07663,0.05217 0.12597,-0.09098 0.2026,-0.03881c0.10832,0.07391 0.2034,0.31501 0.31172,0.38893c0.07663,0.05217 0.12597,-0.09098 0.2026,-0.03881c0.10832,0.07391 0.20791,0.2594 0.31172,0.38893c0.10381,0.12951 0.2034,0.31501 0.31172,0.38893c0.07663,0.05217 0.12935,-0.1302 0.2026,-0.03881c0.07325,0.09139 0.03586,0.33633 0.10912,0.42774c0.07325,0.09139 0.12935,-0.1302 0.2026,-0.03881c0.07325,0.09139 0.03586,0.33633 0.10912,0.42774c0.07325,0.09139 0.12935,-0.1302 0.2026,-0.03881c0.07325,0.09139 0.03586,0.33633 0.10912,0.42774c0.07325,0.09139 0.13514,-0.02588 0.2026,-0.03881c0.01682,-0.00322 0,0 0,0" id="ID0.6548400782048702" fill="none" stroke="#205a0b"/><path d="M334.14608,169.79501c0,0 0.22303,0.21704 0.31172,0.38893c0.06271,0.12167 0.04641,0.30606 0.10912,0.42774c0.08869,0.17189 0.2034,0.31501 0.31172,0.38893c0.07663,0.05217 0.12935,-0.1302 0.2026,-0.03881c0.07325,0.09139 0.03586,0.33633 0.10912,0.42774c0.07325,0.09139 0.12935,-0.1302 0.2026,-0.03881c0.07325,0.09139 0.04641,0.30606 0.10912,0.42774c0.08869,0.17189 0.22303,0.21704 0.31172,0.38893c0.06271,0.12167 0.04641,0.30606 0.10912,0.42774c0.08869,0.17189 0.22303,0.21704 0.31172,0.38893c0.06271,0.12167 0.03586,0.33633 0.10912,0.42774c0.07325,0.09139 0.12935,-0.1302 0.2026,-0.03881c0.07325,0.09139 0.07278,0.2853 0.10912,0.42774c0.03634,0.14244 0.07278,0.2853 0.10912,0.42774c0.03634,0.14244 0.03586,0.33633 0.10912,0.42774c0.07325,0.09139 0.12935,-0.1302 0.2026,-0.03881c0.07325,0.09139 0.07278,0.2853 0.10912,0.42774c0.03634,0.14244 0.04641,0.30606 0.10912,0.42774c0.08869,0.17189 0.22303,0.21704 0.31172,0.38893c0.06271,0.12167 0.07278,0.2853 0.10912,0.42774c0.03634,0.14244 0.04641,0.30606 0.10912,0.42774c0.08869,0.17189 0.22303,0.21704 0.31172,0.38893c0.06271,0.12167 0.07278,0.2853 0.10912,0.42774c0.03634,0.14244 0.0434,0.28508 0.10912,0.42774c0.26295,0.5701 0.57873,1.06322 0.84167,1.63332c0.06572,0.14264 0.07278,0.2853 0.10912,0.42774c0.03634,0.14244 0.04641,0.30606 0.10912,0.42774c0.22599,0.43854 0.50657,0.76704 0.73256,1.20558c0.06271,0.12167 0.04641,0.30606 0.10912,0.42774c0.08869,0.17189 0.21607,0.23139 0.31172,0.38893c0.15133,0.24916 0.2962,0.52381 0.42083,0.81665c0.05575,0.13109 0.04641,0.30606 0.10912,0.42774c0.08869,0.17189 0.22303,0.21704 0.31172,0.38893c0.06271,0.12167 0.07278,0.2853 0.10912,0.42774c0.03634,0.14244 0.07278,0.2853 0.10912,0.42774c0.03634,0.14244 0.07278,0.2853 0.10912,0.42774c0.03634,0.14244 0.07278,0.2853 0.10912,0.42774c0.03634,0.14244 0.07278,0.2853 0.10912,0.42774c0.03634,0.14244 0.07278,0.2853 0.10912,0.42774c0.03634,0.14244 0.07278,0.2853 0.10912,0.42774c0.03634,0.14244 0.04641,0.30606 0.10912,0.42774c0.08869,0.17189 0.22303,0.21704 0.31172,0.38893c0.06271,0.12167 0.07278,0.2853 0.10912,0.42774c0.00906,0.03551 0,0 0,0" id="ID0.2621352984569967" fill="none" stroke="#205a0b"/><path d="M343.59148,186.82847c0,0 0.2962,0.52381 0.42083,0.81665c0.05575,0.13109 0.04641,0.30606 0.10912,0.42774c0.08869,0.17189 0.22303,0.21704 0.31172,0.38893c0.06271,0.12167 0.07278,0.2853 0.10912,0.42774c0.03634,0.14244 0.04641,0.30606 0.10912,0.42774c0.08869,0.17189 0.20791,0.2594 0.31172,0.38893c0.10381,0.12951 0.22303,0.21704 0.31172,0.38893c0.06271,0.12167 0.07278,0.2853 0.10912,0.42774c0.10901,0.4273 0.17259,0.87813 0.32735,1.2832c0.07296,0.19105 0.23275,0.20352 0.31172,0.38893c0.11171,0.26214 0.14557,0.5706 0.21824,0.85546c0.03634,0.14244 0.04641,0.30606 0.10912,0.42774c0.08869,0.17189 0.22303,0.21704 0.31172,0.38893c0.06271,0.12167 0.07278,0.2853 0.10912,0.42774c0.03634,0.14244 0.07278,0.2853 0.10912,0.42774c0.03634,0.14244 0.03586,0.33633 0.10912,0.42774c0.07325,0.09139 0.12935,-0.1302 0.2026,-0.03881c0.07325,0.09139 0.07278,0.2853 0.10912,0.42774c0.03634,0.14244 0.07278,0.2853 0.10912,0.42774c0.03634,0.14244 0.07278,0.2853 0.10912,0.42774c0.00906,0.03551 0,0 0,0" id="ID0.054863959550857544" fill="none" stroke="#205a0b"/><path d="M344.7765,196.47136l-0.76383,-2.99411" id="ID0.9330660160630941" fill="none" stroke="#205a0b"/></g><g id="ID0.11704259505495429"><path d="M330.02551,198.51699l34.4858,-6.60486l7.6752,50.93651l-23.66673,4.53275z" id="ID0.47726457472890615" fill="#a22b1b" stroke="#5e190f"/><path d="M326.19692,195.50418l40.842,-7.82222l2.05523,10.83636l-39.92915,7.64738z" id="ID0.47726457472890615" fill="#a22b1b" stroke="#5e190f"/><path d="M354.39323,211.67747l8.30664,-1.59092" id="ID0.9630953064188361" fill="none" stroke="#8d2719"/><path d="M354.48772,228.7073l9.92745,-1.90134" id="ID0.3323938837274909" fill="none" stroke="#8d2719"/><path d="M342.23751,219.83776l9.11704,-1.74613" id="ID0.4188993461430073" fill="none" stroke="#8d2719"/><path d="M351.72983,239.55401l7.69884,-1.47452" id="ID0.03171157743781805" fill="none" stroke="#8d2719"/><path d="M331.42047,199.92662l9.31965,-1.78493" id="ID0.6575988274998963" fill="none" stroke="#8d2719"/><path d="M363.35357,195.15655l-9.92745,1.90134" id="ID0.6364236953668296" fill="none" stroke="#8d2719"/><path d="M347.28554,194.64493l8.91445,-1.70732" id="ID0.8370721349492669" fill="none" stroke="#8d2719"/></g></g></g></g></svg>