<svg version="1.1" xmlns="http://www.w3.org/2000/svg" xmlns:xlink="http://www.w3.org/1999/xlink" width="343.40359" height="409.4291" viewBox="0,0,343.40359,409.4291"><defs><linearGradient x1="277.76177" y1="130.0248" x2="335.28077" y2="175.36858" gradientUnits="userSpaceOnUse" id="color-1"><stop offset="0" stop-color="#fde6d9"/><stop offset="1" stop-color="#f7d9c8"/></linearGradient><linearGradient x1="79.63862" y1="-21.83152" x2="486.41567" y2="298.84178" gradientUnits="userSpaceOnUse" id="color-2"><stop offset="0" stop-color="#000000"/><stop offset="1" stop-color="#000000" stop-opacity="0"/></linearGradient><linearGradient x1="322.71165" y1="172.08152" x2="339.20797" y2="179.51689" gradientUnits="userSpaceOnUse" id="color-3"><stop offset="0" stop-color="#f7dac9"/><stop offset="1" stop-color="#fde6d9"/></linearGradient><linearGradient x1="245.24198" y1="62.53585" x2="246.978" y2="98.38498" gradientUnits="userSpaceOnUse" id="color-4"><stop offset="0" stop-color="#d2a991"/><stop offset="1" stop-color="#fde6d9"/></linearGradient><linearGradient x1="245.98518" y1="15.62449" x2="257.67987" y2="86.88442" gradientUnits="userSpaceOnUse" id="color-5"><stop offset="0" stop-color="#f7d9c8"/><stop offset="1" stop-color="#fde6d9"/></linearGradient><linearGradient x1="-9.46508" y1="-1637.62579" x2="481.37986" y2="1353.26891" gradientUnits="userSpaceOnUse" id="color-6"><stop offset="0" stop-color="#2a221e"/><stop offset="1" stop-color="#2a221e" stop-opacity="0"/></linearGradient><radialGradient cx="236.804" cy="69.96323" r="7.94614" gradientUnits="userSpaceOnUse" id="color-7"><stop offset="0" stop-color="#fbe2d4"/><stop offset="1" stop-color="#f6d8c8"/></radialGradient><radialGradient cx="279.13893" cy="71.79696" r="9.34604" gradientUnits="userSpaceOnUse" id="color-8"><stop offset="0" stop-color="#ffffff"/><stop offset="1" stop-color="#e7e7e7"/></radialGradient><linearGradient x1="266.71064" y1="135.65378" x2="335.00598" y2="162.11587" gradientUnits="userSpaceOnUse" id="color-9"><stop offset="0" stop-color="#fde6d9"/><stop offset="1" stop-color="#f7d9c8"/></linearGradient><linearGradient x1="32.73951" y1="48.64441" x2="515.72727" y2="235.78543" gradientUnits="userSpaceOnUse" id="color-10"><stop offset="0" stop-color="#000000"/><stop offset="1" stop-color="#000000" stop-opacity="0"/></linearGradient><linearGradient x1="419.72629" y1="111.74081" x2="425.87302" y2="120.10013" gradientUnits="userSpaceOnUse" id="color-11"><stop offset="0" stop-color="#bbdaff" stop-opacity="0"/><stop offset="1" stop-color="#bbdaff"/></linearGradient><linearGradient x1="429.31873" y1="126.64744" x2="422.2804" y2="117.07558" gradientUnits="userSpaceOnUse" id="color-12"><stop offset="0" stop-color="#bbdaff" stop-opacity="0"/><stop offset="1" stop-color="#bbdaff"/></linearGradient><linearGradient x1="419.54691" y1="107.76984" x2="430.76442" y2="122.36602" gradientUnits="userSpaceOnUse" id="color-13"><stop offset="0" stop-color="#005eff"/><stop offset="1" stop-color="#005eff" stop-opacity="0"/></linearGradient><linearGradient x1="419.54691" y1="107.76984" x2="430.76442" y2="122.36602" gradientUnits="userSpaceOnUse" id="color-14"><stop offset="0" stop-color="#00f7ff" stop-opacity="0"/><stop offset="1" stop-color="#00f7ff"/></linearGradient><linearGradient x1="332.83654" y1="186.25824" x2="340.54324" y2="175.62926" gradientUnits="userSpaceOnUse" id="color-15"><stop offset="0" stop-color="#f7dac9"/><stop offset="1" stop-color="#fde6d9"/></linearGradient><linearGradient x1="338.47641" y1="191.94578" x2="345.06959" y2="186.93408" gradientUnits="userSpaceOnUse" id="color-16"><stop offset="0" stop-color="#f7dac9"/><stop offset="1" stop-color="#fde6d9"/></linearGradient><linearGradient x1="326.11789" y1="162.14373" x2="337.2514" y2="176.40758" gradientUnits="userSpaceOnUse" id="color-17"><stop offset="0" stop-color="#f7dac9"/><stop offset="1" stop-color="#fde6d9"/></linearGradient></defs><g transform="translate(-147.22279,-10.76429)"><g data-paper-data="{&quot;isPaintingLayer&quot;:true}" fill-rule="nonzero" stroke-linejoin="miter" stroke-miterlimit="10" stroke-dasharray="" stroke-dashoffset="0" style="mix-blend-mode: normal"><g stroke="none" stroke-width="0" stroke-linecap="butt"><path d="M324.52338,180.5379l-7.06019,-5.56576l8.05712,-10.22052l6.64271,5.76207c0,0 1.13306,2.21523 -0.28214,4.01044c-0.93656,1.18802 -7.35745,6.01374 -7.35745,6.01374z" data-paper-data="{&quot;origPos&quot;:null}" fill="#000000"/><path d="M312.82055,152.34535c7.89408,8.19188 14.8888,13.77421 19.07233,21.99393c2.23924,4.39969 0.2533,6.7582 -4.47867,5.32291c-9.08428,-2.7554 -17.93052,-10.89928 -25.88071,-17.79947c-7.1287,-6.1872 -10.66461,-5.34215 -24.39427,-18.41357c-9.0809,-8.15087 7.83105,-24.93384 16.36707,-16.22204c8.53601,8.71176 11.42018,16.92633 19.31425,25.1182z" data-paper-data="{&quot;origPos&quot;:null}" fill="url(#color-1)"/><g data-paper-data="{&quot;origPos&quot;:null}"><path d="M323.44822,178.83863l-5.99783,-3.81857l7.93513,-10.3991l7.4391,6.71175c0,0 -3.89019,-0.27981 -6.07312,1.90199z" data-paper-data="{&quot;origPos&quot;:null}" fill="url(#color-2)"/><path d="M320.82538,177.8359c0,0 -32.49017,-22.23367 -42.27001,-32.90313c-5.96289,-6.50531 -7.08687,-9.1297 -1.0653,-15.26951c5.52985,-5.97977 11.08984,-6.19427 16.10435,-2.93116c5.01452,3.26311 38.58579,44.46674 38.58579,44.46674c0,0 -4.57984,-3.0287 -7.06812,-0.58813c-2.64102,2.59045 -4.28672,7.22514 -4.28672,7.22514z" data-paper-data="{&quot;origPos&quot;:null,&quot;origRot&quot;:0}" fill="#1e4994"/></g></g><g data-paper-data="{&quot;origRot&quot;:0}" stroke="none" stroke-width="0" stroke-linecap="butt"><path d="M270.21828,86.4524c7.93243,6.09795 6.76338,9.26225 11.49982,18.09062c11.27796,21.02128 10.61242,20.40028 12.87898,28.42141c2.75573,9.75226 -16.16565,15.70128 -20.97185,6.72873c-2.65225,-4.9514 -10.67124,-15.34284 -13.30289,-20.30486c-9.00862,-16.98594 -9.0483,-31.83324 -4.80378,-37.95407c4.4755,-6.45392 10.64251,1.89925 14.69977,5.01819z" data-paper-data="{&quot;origPos&quot;:null,&quot;origRot&quot;:0}" fill="#2152a6"/><path d="M254.04917,83.08704c4.08195,4.48066 9.10742,9.38582 11.40573,13.71754c7.9413,14.96735 15.63572,30.05894 23.29393,45.16889c-5.28729,2.55212 -12.65622,2.3025 -15.4057,-2.83042c-2.65225,-4.9514 -10.67124,-15.34284 -13.30288,-20.30488c-8.06505,-15.20682 -8.9416,-28.69959 -5.99111,-35.75118z" data-paper-data="{&quot;origPos&quot;:null,&quot;origRot&quot;:0}" fill="#000000"/></g><g stroke="none" stroke-width="0" stroke-linecap="butt"><g data-paper-data="{&quot;origPos&quot;:null,&quot;origRot&quot;:0}" fill="#fde6d9"><path d="M336.7683,175.37153c-1.02825,-0.11633 -0.24935,-2.57733 -0.24935,-2.57733c0.40899,-1.13719 0.73862,-2.0286 1.8863,-1.64997c1.1933,0.39365 3.10086,1.10251 4.32718,1.54357c2.70439,0.97262 4.10515,2.16819 3.57993,3.62858c-0.52521,1.46037 -1.7953,1.69539 -4.49969,0.72277c-2.70439,-0.97262 -2.93486,-1.42896 -5.0444,-1.66759z" data-paper-data="{&quot;origPos&quot;:null}"/><path d="M343.67996,177.42224c-0.73273,-0.39068 -0.02022,-1.93086 -0.02022,-1.93086c0.30064,-0.83588 0.42088,-1.94724 1.3411,-1.6929c1.02727,0.28393 3.0792,1.41163 4.08208,1.7723c2.19281,0.78862 4.88993,1.84486 4.49411,2.84211c-0.68733,1.73177 -3.20032,1.88136 -5.39312,1.09273c-2.19281,-0.78862 -3.36144,-1.47425 -4.50395,-2.08341z" data-paper-data="{&quot;origPos&quot;:null}"/></g><g data-paper-data="{&quot;origPos&quot;:null,&quot;origRot&quot;:0}" fill="#ead0c0"><path d="M332.0617,183.80056c-0.40533,-0.77176 0.70721,-1.67302 0.70721,-1.67302c1.15499,-1.33612 6.76146,-7.25275 6.77547,-5.59392c0.02037,2.41203 0.20981,6.97244 1.62803,8.12791c0.81777,0.6663 1.22292,1.70642 2.05856,2.35158c1.39033,1.07342 1.89166,2.26897 0.64688,3.74154c-1.38876,1.64292 -1.6953,1.02099 -3.48378,0.33922c-0.57833,-0.22047 -2.58565,-1.57843 -3.05671,-1.96221c-3.44242,-2.80477 -4.08565,-3.06522 -5.27564,-5.33107z" data-paper-data="{&quot;origRot&quot;:0,&quot;origPos&quot;:null}"/><path d="M342.68483,191.80219c-0.7054,-0.00889 -1.18619,-1.29082 -1.18619,-1.29082c-0.81967,-1.5041 -2.01427,-2.84579 0.14073,-3.29683c1.6244,-0.33998 2.85933,-1.03427 4.09095,-1.67148c0.44568,-0.23057 1.54135,-1.0157 1.95772,-1.29971c1.24118,-0.84656 2.16827,-0.0005 2.87633,1.57762c0.55766,1.24291 0.51816,2.51086 -2.47137,4.05758c-2.98953,1.54671 -3.33711,1.94978 -5.40815,1.92365z" data-paper-data="{&quot;origRot&quot;:0,&quot;origPos&quot;:null}"/><path d="M348.75541,189.27077c-0.60502,0.20584 -1.62833,-0.75044 -1.62833,-0.75044c-1.41831,-1.04469 -1.28807,-1.5067 -0.9374,-2.49712c0.4041,-1.14133 1.50736,-2.06884 2.80228,-3.37728c1.29493,-1.30842 3.17114,-0.97525 3.71486,-0.28733c0.50827,0.64303 1.45305,1.19875 -0.35231,3.433c-1.80536,2.23426 -1.82288,2.87478 -3.59915,3.47917z" data-paper-data="{&quot;origRot&quot;:0,&quot;origPos&quot;:null}"/></g><g data-paper-data="{&quot;origPos&quot;:null,&quot;origRot&quot;:0}" fill="#efd6c8"><path d="M330.92918,182.5786c-0.53931,-0.80324 0.50273,-1.78597 0.50273,-1.78597c1.0237,-1.44294 7.16615,-6.12211 7.42174,-4.37142c0.37156,2.54555 0.14275,5.62959 1.80562,6.8093c0.95886,0.68025 1.537,1.7668 2.51163,2.42427c1.62161,1.0939 2.32367,2.34176 1.22511,3.93128c-1.22563,1.77342 -1.63911,1.12554 -3.62359,0.45629c-0.64169,-0.2164 -2.9551,-1.59327 -3.50741,-1.98511c-4.03635,-2.8636 -4.75232,-3.1204 -6.33577,-5.47865z" data-paper-data="{&quot;origRot&quot;:0,&quot;origPos&quot;:null}"/><path d="M342.03058,190.49129c-0.73529,-0.26148 -0.66812,-1.68265 -0.66812,-1.68265c-0.18902,-1.75905 -0.84328,-3.49423 1.61601,-3.16124c1.85376,0.25101 3.4572,0.01725 5.0317,-0.16206c0.56973,-0.06489 2.06772,-0.43702 2.63051,-0.56443c1.6778,-0.37985 2.27252,0.77664 2.31158,2.5678c0.03074,1.41068 -0.57541,2.63174 -4.39727,3.06698c-3.82187,0.43526 -4.36569,0.70334 -6.52441,-0.06442z" data-paper-data="{&quot;origRot&quot;:0,&quot;origPos&quot;:null}"/><path d="M351.29803,189.79588c-0.6043,0.37715 -1.75185,-0.44652 -1.75185,-0.44652c-1.5635,-0.82705 -1.47355,-1.37626 -1.20709,-2.57091c0.30709,-1.37668 1.35596,-2.68309 2.56589,-4.46273c1.20993,-1.77964 3.57506,-2.48728 4.2021,-1.84818c0.58613,0.59737 1.21646,1.61788 -0.43097,4.55847c-1.64741,2.94058 -1.6039,3.66251 -3.37811,4.76988z" data-paper-data="{&quot;origRot&quot;:0,&quot;origPos&quot;:null}"/></g><g data-paper-data="{&quot;origPos&quot;:null,&quot;origRot&quot;:0}" fill="#f6ded1"><path d="M331.19486,182.01115c-0.49604,-0.83068 0.59658,-1.75687 0.59658,-1.75687c1.09868,-1.38675 7.48028,-5.73403 7.64277,-3.97228c0.23626,2.56164 -0.15556,5.62924 1.44253,6.89537c0.9215,0.73007 1.4413,1.84571 2.37971,2.55384c1.56142,1.17822 2.19639,2.46151 1.0152,3.99066c-1.31781,1.70603 -1.69641,1.03714 -3.64264,0.26378c-0.62935,-0.25008 -2.86659,-1.7475 -3.39741,-2.16806c-3.87904,-3.07333 -4.5804,-3.36767 -6.03676,-5.80648z" data-paper-data="{&quot;origRot&quot;:0,&quot;origPos&quot;:null}"/><path d="M341.81575,190.49869c-0.67701,-0.38817 -0.35801,-1.77467 -0.35801,-1.77467c0.12702,-1.76462 -0.208,-3.58853 2.15278,-2.82319c1.7795,0.57688 3.39895,0.63223 4.98021,0.73596c0.57219,0.03751 2.11251,-0.06208 2.68901,-0.08731c1.71862,-0.07516 2.09801,1.16864 1.81771,2.93814c-0.22075,1.39366 -1.03453,2.48733 -4.87286,2.23549c-3.83834,-0.25181 -4.42118,-0.08478 -6.40884,-1.22444z" data-paper-data="{&quot;origRot&quot;:0,&quot;origPos&quot;:null}"/><path d="M351.66986,191.24276c-0.68385,0.19939 -1.5654,-0.90434 -1.5654,-0.90434c-1.28104,-1.21964 -1.04573,-1.72391 -0.46565,-2.80174c0.66851,-1.24205 2.03199,-2.21553 3.67875,-3.60093c1.64673,-1.38542 4.33485,-1.64396 4.76536,-0.85895c0.40242,0.73382 0.51304,2.10487 -1.86925,4.48933c-2.38232,2.38448 -2.53596,3.09121 -4.54376,3.6766z" data-paper-data="{&quot;origRot&quot;:0,&quot;origPos&quot;:null}"/></g><g data-paper-data="{&quot;origPos&quot;:null,&quot;origRot&quot;:0}" fill="#fde6d9"><path d="M333.12428,185.24136c-0.74266,-0.62009 -0.01745,-1.85531 -0.01745,-1.85531c0.57875,-1.6719 5.16535,-7.88372 5.90087,-6.27464c1.66836,3.64986 4.91517,7.14332 6.72993,7.65543c1.86303,0.59609 2.16076,1.69493 1.5512,3.52847c-0.68006,2.04565 -1.31642,1.9788 -3.27811,1.45018c-0.65389,-0.17619 -2.63017,-0.79707 -3.27015,-1.01863c-4.67666,-1.61891 -5.43591,-1.66496 -7.61635,-3.4855z" data-paper-data="{&quot;origRot&quot;:0,&quot;origPos&quot;:null}"/><path d="M342.83213,189.18999c-0.68954,-0.36545 -0.41684,-1.76177 -0.41684,-1.76177c0.06823,-1.76786 -0.32727,-3.57962 2.05767,-2.89328c1.7977,0.51735 3.41809,0.5188 5.00196,0.56986c0.57312,0.01847 2.10926,-0.13233 2.68459,-0.17673c1.71519,-0.13234 2.13574,1.0982 1.91447,2.87604c-0.17427,1.40022 -0.95119,2.52037 -4.79577,2.3964c-3.84459,-0.12398 -4.42154,0.06237 -6.44601,-1.01055z" data-paper-data="{&quot;origRot&quot;:0,&quot;origPos&quot;:null}"/><path d="M350.85576,189.52886c-0.68708,-0.18803 -0.86057,-1.58989 -0.86057,-1.58989c-0.45322,-1.70973 0.01123,-2.01629 1.06962,-2.63107c1.21971,-0.70845 2.89103,-0.82433 5.0193,-1.14295c2.12828,-0.31861 5.1415,0.90821 5.09746,1.80244c-0.04116,0.83589 -1.25186,2.02182 -4.5298,2.80674c-3.27795,0.78491 -3.77877,1.30671 -5.79597,0.75467z" data-paper-data="{&quot;origRot&quot;:0,&quot;origPos&quot;:null}"/></g><path d="M332.1731,184.77579c-5.57566,-4.91044 -11.20477,-9.49609 -10.22929,-11.66029c0.725,-1.6085 1.7888,-6.79094 5.41519,-5.03109c3.09769,1.50328 11.49415,2.6812 14.63321,4.09606c0,0 -4.92752,16.90328 -9.81911,12.59531z" data-paper-data="{&quot;origRot&quot;:0,&quot;origPos&quot;:null}" fill="url(#color-3)"/></g><path d="M331.10963,199.2361c6.68208,-2.11691 10.19167,-1.74725 16.83675,-3.14964c5.27979,-1.11426 10.16387,-1.71125 15.40485,-2.98696c10.09278,-2.45666 13.29191,-4.81535 27.97776,-7.46317c1.59724,-0.28797 17.90909,-6.99543 30.8626,-10.49634c4.12174,-1.94922 5.02916,21.48978 5.02916,21.48978c0,0 -22.16103,10.23242 -36.92565,18.57977c-6.40334,3.62022 -21.29286,8.21851 -29.70373,10.17829c-9.50463,2.21467 -16.54383,2.20894 -24.92749,-3.44632c-6.64193,-4.48038 -10.01154,-6.17287 -11.33016,-12.74679c-1.31862,-6.57392 0.09378,-7.84166 6.77585,-9.95858z" fill="#252525" stroke="none" stroke-width="0" stroke-linecap="butt"/><path d="M244.25382,229.01585c0,0 7.82207,-7.61274 11.30266,-8.96239c13.48895,-5.23068 48.80396,-15.00677 63.95115,-18.12898c0.79061,-0.16298 9.39941,-2.66217 10.19727,-2.79156c8.44826,-1.37006 13.32675,13.51769 15.16953,17.96599c2.68637,6.48465 0.54298,10.10643 0.54298,10.10643c0,0 -7.92957,0.5319 -14.15738,3.44421c-7.20832,3.37083 -12.37817,5.22792 -19.64255,8.47421c-11.46175,5.12198 -16.39489,6.35948 -27.26846,12.66239c-10.3093,5.97584 -16.13347,10.20064 -27.16497,14.82169c-3.42467,1.43459 -6.40372,-8.52114 -7.8213,-18.47908z" data-paper-data="{&quot;origRot&quot;:0}" fill="#0f0f0f" stroke="none" stroke-width="0" stroke-linecap="butt"/><path d="M423.98761,198.21109c0,0 -7.60909,-15.35967 -5.7471,-19.48999c1.41955,-3.14889 10.31481,-5.0386 11.16075,-9.36912c0.84592,-4.3305 -2.28886,-20.51515 4.43855,-23.06796c5.85008,-2.2199 9.84839,-3.0798 11.10409,1.07344c1.2349,4.08439 13.4531,37.0233 13.37533,38.5708c-4.90745,4.88015 -18.2022,7.87611 -24.03603,7.02392z" data-paper-data="{&quot;origRot&quot;:0}" fill="#000000" stroke="none" stroke-width="0" stroke-linecap="butt"/><path d="M250.17984,324.27348c-4.64291,5.25117 -7.84322,6.73847 -12.82176,11.35777c-3.95567,3.67024 -7.83787,6.69331 -11.67725,10.48204c-7.39367,7.29612 -8.92494,10.96397 -20.15986,20.78548c-1.22192,1.06819 -11.76428,15.20767 -21.07475,24.87023c-2.53312,3.79097 -15.36212,-15.8464 -15.36212,-15.8464c0,0 13.747,-20.17013 22.11917,-34.92067c3.63096,-6.39725 14.03777,-17.99642 20.2443,-24.00162c7.01361,-6.78618 13.05418,-10.40032 23.15246,-9.86c8.00037,0.42807 11.76067,0.14731 16.27153,5.1079c4.51083,4.96061 3.95118,6.77411 -0.69173,12.02528z" fill="#252525" stroke="none" stroke-width="0" stroke-linecap="butt"/><path d="M277.81908,231.68335c0,0 1.6072,10.79608 0.66864,14.40928c-3.63722,14.00294 -16.33935,48.37413 -22.65657,62.49071c-0.32973,0.73684 -3.33196,9.18336 -3.69317,9.90643c-3.82475,7.65645 -18.75703,2.9161 -23.4437,1.81226c-6.83214,-1.60915 -8.51879,-5.46486 -8.51879,-5.46486c0,0 4.20185,-6.74578 5.47756,-13.5015c1.47654,-7.81935 2.99038,-13.09992 4.60077,-20.89197c2.54087,-12.29432 4.4192,-17.02074 5.65805,-29.5278c1.17455,-11.85801 1.14927,-19.05311 3.84525,-30.70557c0.83695,-3.61744 10.65693,-0.21756 19.56631,4.45076z" data-paper-data="{&quot;origRot&quot;:0}" fill="#0f0f0f" stroke="none" stroke-width="0" stroke-linecap="butt"/><path d="M183.30173,370.56607c0,0 4.48905,16.54286 1.86211,20.23416c-2.00274,2.8142 -11.09558,2.94468 -12.76449,7.02925c-1.6689,4.08453 -1.72924,20.56989 -8.82376,21.77092c-6.16933,1.04442 -10.25848,1.11335 -10.68571,-3.20445c-0.42016,-4.24626 -6.0251,-38.92824 -5.64899,-40.43138c5.75997,-3.83688 19.38325,-4.20029 24.94145,-2.23397z" data-paper-data="{&quot;origRot&quot;:0}" fill="#000000" stroke="none" stroke-width="0" stroke-linecap="butt"/><g stroke-linecap="butt"><g data-paper-data="{&quot;origPos&quot;:null,&quot;index&quot;:null}" stroke="none"><path d="M263.97463,85.74282c0.23681,1.22412 1.339,2.22851 2.77062,3.11244c0.34562,1.1627 0.77377,1.98066 0.77377,1.98066l0.24113,0.25955c0.01398,0.03841 0.02816,0.07677 0.0424,0.11512c-0.0505,2.57776 0.22887,5.13648 0.62028,7.76277c-16.46054,6.13617 -39.54162,2.93331 -43.13043,1.75333c-3.62466,-1.19178 2.93227,-11.14579 3.3861,-15.16953c0.45385,-4.02374 -0.28383,-4.96336 5.97549,-8.45186c6.25932,-3.48849 4.48887,-0.83815 11.14956,-1.09241c6.66068,-0.25421 12.71247,0.69488 14.49143,1.64745c1.77897,0.95255 2.56428,2.31685 3.67959,8.08247z" data-paper-data="{&quot;origPos&quot;:null}" fill="#000000" stroke-width="0"/><g data-paper-data="{&quot;origPos&quot;:null}"><path d="M265.53161,100.29113c-14.00451,6.25346 -33.87178,3.0697 -37.38846,1.7021c-3.51665,-1.36758 2.44863,-11.12731 2.81412,-15.14769c0.36548,-4.02038 -1.67945,-4.08223 3.58555,-7.21038c5.26498,-3.12815 5.16588,-1.18907 10.92123,-1.40873c5.75534,-0.21969 10.45413,0.66935 12.21683,1.67588c1.68195,0.96042 2.36169,2.09502 2.90229,4.20921c0.30614,1.19733 0.42679,1.88746 0.63687,3.11179c0.42809,2.49494 3.91009,4.10632 6.59316,5.63722c0.06186,1.97828 0.29113,3.95628 0.5889,5.97327c-0.75854,0.45359 -1.70627,0.93743 -2.8705,1.45729z" data-paper-data="{&quot;origPos&quot;:null}" fill="#09162e" stroke-width="0"/><g data-paper-data="{&quot;origPos&quot;:null}" fill="none" stroke-width="1" font-family="sans-serif" font-weight="normal" font-size="12" text-anchor="start"/></g></g><g data-paper-data="{&quot;origPos&quot;:null,&quot;index&quot;:null}"><path d="M282.3834,168.6379c0.53849,22.95763 -0.49817,44.04827 -0.49817,44.04827c-0.56038,7.12717 -5.44903,14.0997 -9.736,13.06662c-3.63618,-0.87626 -9.06353,-5.3406 -9.06353,-5.3406c0,0 -0.61157,-37.08688 -1.7228,-65.62602c-0.64884,-16.66365 -5.25145,-29.82552 -5.94846,-46.48757c-0.36959,-8.83454 4.61269,-12.94846 10.72073,-16.02662c1.96118,2.5239 3.80986,5.13851 5.70914,7.71169c2.1426,2.90283 4.87573,6.80756 8.00209,10.64537c0.33912,1.34218 0.57241,2.81666 0.64252,4.49265c0,0 1.43601,33.96903 1.89449,53.51624z" data-paper-data="{&quot;origPos&quot;:null}" fill="#255dbc" stroke="#000000" stroke-width="0"/><path d="M258.61764,137.59728c0,0 -1.76198,-9.7781 -2.50487,-16.05085c-0.52884,-4.46534 -0.75384,-11.46419 -0.75384,-11.46419l23.46684,-0.45171c0,0 2.63707,4.92156 2.978,8.12154c0.63877,5.99549 1.06895,9.74316 0.27869,15.65788c-1.09809,8.21878 0.10878,20.68416 0.10878,20.68416l-4.45337,-10.84855z" data-paper-data="{&quot;origPos&quot;:null}" fill="#09162e" stroke="none" stroke-width="0"/><path d="M263.0596,110.62466l-1.5544,-15.56511c0,0 2.2378,-1.8065 4.39757,-3.08561c2.04794,2.61569 3.96742,5.33507 5.94154,8.00965c2.07317,2.80875 4.69922,6.55551 7.69936,10.27203c0.05815,0.25823 0.08568,0.4041 0.08568,0.4041z" data-paper-data="{&quot;origPos&quot;:null}" fill="#09162e" stroke="none" stroke-width="0"/><path d="M262.50269,134.16651c-1.08292,0.38069 -1.40245,-1.04824 -1.40245,-1.04824l-0.65108,-1.12247c-0.46051,-1.90865 -1.0058,-3.82328 -0.91913,-5.84478c0.05969,-1.39201 0.46399,-2.48486 0.73923,-3.39331c0.04064,-0.1342 0.37139,0.18184 0.33291,0.04379c-0.49995,-1.79436 -2.02773,-1.90926 -2.53061,-4.3523c-0.06105,-0.29658 0.16526,-0.82966 0.47773,-1.34458l-0.39122,-0.10761c-0.1451,-0.03566 -0.28162,-0.1075 -0.40338,-0.20829c-0.29372,-0.22291 -0.63452,-0.6663 -0.53329,-1.49882c0.00414,-0.03705 0.00937,-0.07369 0.01562,-0.10982c0.13341,-0.8184 0.56747,-1.04717 0.89881,-1.09781c0.04291,-0.00871 0.08675,-0.01422 0.1313,-0.01639l1.20192,-0.0582l0.01689,0.3486l0.27761,0.07637l-0.01377,0.0977c0.12584,0.06402 0.25186,0.13618 0.38488,0.22034l0.04386,-0.08613l1.2482,1.11421c0.29266,0.25535 0.49525,0.68061 0.51894,1.17021c0.03405,0.70327 -0.31203,1.30997 -0.80659,1.4836l-1.16032,0.44368c-0.0849,0.11952 0.27778,-0.11304 0.39905,-0.05345c0.02937,-0.04584 0.0675,-0.07681 0.11888,-0.08608c0.98107,-0.17689 1.95207,3.44498 2.02615,3.91178c0.23857,1.50315 -0.62161,2.26855 -0.9598,3.50274c-0.13318,0.48597 0.76561,3.89401 1.03771,5.02173l0.66532,1.18373c0,0 0.3195,1.42897 -0.7634,1.80966zM260.15129,119.67334c0.01671,-0.02692 0.03088,-0.05736 0.04312,-0.09041c-0.06106,0.1198 -0.09713,0.17736 -0.04312,0.09041z" data-paper-data="{&quot;origPos&quot;:null}" fill="#ffffff" stroke="none" stroke-width="0.5"/><path d="M255.28519,110.95152l0.22272,-0.99831l22.91387,-1.10961c0.23718,0.30306 0.477,0.6067 0.71935,0.91047l0.00203,0.04213z" data-paper-data="{&quot;origPos&quot;:null}" fill="#ffffff" stroke="none" stroke-width="0"/><path d="M278.4272,109.21971l0.19325,-0.12289c0.37639,0.47844 0.75927,0.95804 1.14831,1.43673l1.66208,4.30553l0.40704,3.24241l-1.07694,-2.8163z" data-paper-data="{&quot;origPos&quot;:null,&quot;origRot&quot;:0}" fill="#ffffff" stroke="none" stroke-width="0"/></g><g data-paper-data="{&quot;origPos&quot;:null}" stroke="none" stroke-width="0"><path d="M236.38679,194.82651c5.98931,-12.91959 -9.79077,-43.73289 -10.08512,-71.94854c-0.14332,-13.73985 -0.4244,-22.8238 8.32787,-29.87783c8.7523,-7.05401 25.07994,-0.43478 25.07994,-0.43478c0,0 6.28362,5.53817 9.43987,9.12479c3.29671,3.74623 7.09503,9.66473 7.09503,9.66473c0,0 1.95939,13.48879 2.42037,17.68846c0.33498,3.05153 -0.12764,6.12014 -0.12764,6.12014l-0.51737,19.85576c0,0 1.80954,15.56875 1.66465,28.88527c0,0 -0.31648,9.23319 -16.95605,11.21453c-20.22006,2.40765 -26.34158,-0.29247 -26.34158,-0.29247z" data-paper-data="{&quot;origPos&quot;:null}" fill="#b2bbc1"/><path d="M259.88943,230.5274c-12.14175,0.58796 -25.0982,2.8672 -25.71644,-9.89955c-0.61823,-12.76675 5.34375,-40.35514 17.4855,-40.94312c0,0 27.54015,-11.90971 28.51364,-2.49381c0,0 0.98661,18.97242 0.87944,24.7844c-0.2085,11.30922 -1.78026,24.4112 -1.78026,24.4112z" data-paper-data="{&quot;origPos&quot;:null}" fill="#b2bbc1"/><path d="M257.66432,235.35104c-6.95825,0.33696 -11.47918,1.45145 -17.50392,-2.13107c-2.41373,-1.4353 -3.51218,-2.87913 -4.27955,-5.61955c-0.9486,-3.38779 -1.70682,-4.14197 -1.98559,-7.67589c-0.27877,-3.5339 0.94934,-5.46079 0.94934,-5.46079c0,0 10.60578,1.1885 18.04332,0.65088c11.34649,-0.8202 29.19839,-3.7463 29.19839,-3.7463l-2.1692,15.36783c0,0 -13.44919,8.18858 -22.25282,8.61488z" data-paper-data="{&quot;origPos&quot;:null}" fill="#000000"/></g><path d="M233.78502,94.31805c0,0 1.61159,-2.09151 1.49288,-3.47869c-0.3562,-4.16156 -0.48046,-6.72198 -1.40395,-11.02598c-1.55794,-7.26098 -4.94309,-16.15742 -4.94309,-16.15742c0,0 2.65592,-2.39223 19.64853,4.11017c13.57183,5.19345 13.80739,10.86467 13.80739,10.86467c0,0 -5.47294,1.84111 -5.1271,8.98246c0.11529,2.38045 0.25582,5.28269 0.25582,5.28269l2.65979,3.05375c0,0 -2.55722,1.98928 -4.3573,2.00517c-5.40023,0.04766 -12.23738,-1.07469 -19.77265,-2.25013c-1.18268,-0.1845 -2.26029,-1.38669 -2.26029,-1.38669z" data-paper-data="{&quot;origPos&quot;:null}" fill="url(#color-4)" stroke="none" stroke-width="0"/><g data-paper-data="{&quot;origPos&quot;:null,&quot;index&quot;:null,&quot;origRot&quot;:0}"><path d="M270.13456,168.31795c1.09177,24.49684 1.60375,59.87917 1.60375,59.87917c-0.9261,7.65886 -11.55069,2.7082 -19.01169,1.92114c-6.59488,-0.69571 -11.01298,-0.33055 -15.77652,-3.84582c-1.58785,-1.17175 -2.80178,-6.93206 -2.80178,-6.93206c0,0 3.47024,-21.72006 1.34474,-52.13998c-6.51375,-18.34983 -11.33507,-43.62056 -12.6599,-61.37712c-0.61319,-8.21862 3.06836,-12.69025 11.78151,-16.23471c5.69302,7.59989 18.12707,12.75675 29.29256,14.2581c1.33668,2.07969 2.34803,4.42934 2.57075,7.41425c0,0 2.72698,36.19926 3.65653,57.05702z" data-paper-data="{&quot;origPos&quot;:null}" fill="#255dbc" stroke="#000000" stroke-width="0"/><path d="M228.60132,136.90027c0,0 -3.12992,-10.32031 -4.46412,-16.96956c-0.94977,-4.73337 -1.38841,-12.19698 -1.38841,-12.19698l40.80024,-2.21859c0,0 4.61857,5.06499 5.23304,8.45986c1.15125,6.36061 1.92467,10.33424 0.59066,16.71423c-1.85367,8.86532 0.32924,22.0988 0.32924,22.0988l-7.81686,-11.2653z" data-paper-data="{&quot;origPos&quot;:null}" fill="#09162e" stroke="none" stroke-width="0"/><path d="M236.14214,107.74387l-2.95874,-18.28375c0,0 17.82335,5.57136 30.27175,7.28949c0.8415,1.57359 1.49809,9.8061 1.49809,9.8061z" data-paper-data="{&quot;origPos&quot;:null}" fill="#09162e" stroke="none" stroke-width="0"/><path d="M232.88759,131.9295l-1.1397,-1.15154c-0.81361,-2.00583 -1.77476,-4.01182 -1.63772,-6.17878c0.09437,-1.49217 0.78996,-2.69008 1.26236,-3.68138c0.06978,-0.14645 0.64698,0.16685 0.57918,0.02216c-0.88145,-1.88078 -3.53871,-1.89059 -4.4296,-4.46448c-0.10815,-0.31245 0.28172,-0.89893 0.82156,-1.47243l-0.68097,-0.08608c-0.25257,-0.02735 -0.49035,-0.09404 -0.70278,-0.19276c-0.51222,-0.21651 -1.10777,-0.66521 -0.93738,-1.56248c0.00699,-0.03992 0.01577,-0.07946 0.0264,-0.1185c0.22644,-0.88454 0.97959,-1.16119 1.55537,-1.23981c0.07458,-0.01248 0.1507,-0.02164 0.22821,-0.02721l2.08948,-0.15112l0.03171,0.37132l0.48324,0.06109l-0.02331,0.10546c0.21925,0.05913 0.43876,0.12694 0.67065,0.20702l0.07573,-0.09532l2.17782,1.09855c0.51061,0.25129 0.86572,0.69078 0.91024,1.21231c0.064,0.74914 -0.5337,1.42314 -1.39238,1.64529l-2.01453,0.56002c-0.1468,0.13404 0.48225,-0.14137 0.69349,-0.08665c0.05074,-0.05117 0.11688,-0.08711 0.20613,-0.10081c1.70468,-0.26161 3.4175,3.53755 3.54947,4.03099c0.42501,1.58889 -1.06545,2.47054 -1.64516,3.81463c-0.22827,0.52925 1.3576,4.10523 1.83834,5.29039l1.16488,1.21596c0,0 0.56521,1.50362 -1.31514,1.99059c-1.88036,0.48701 -2.44558,-1.0166 -2.44558,-1.0166zM231.14647,117.63007c0.02888,-0.03001 0.05331,-0.06359 0.07439,-0.09983c-0.10535,0.13254 -0.16771,0.19675 -0.07439,0.09983z" data-paper-data="{&quot;origPos&quot;:null}" fill="#ffffff" stroke="none" stroke-width="0.5"/><path d="M222.62649,108.66831l0.3805,-1.08343l41.00546,-2.96554l0.08964,1.04941z" data-paper-data="{&quot;origPos&quot;:null}" fill="#ffffff" stroke="none" stroke-width="0"/><path d="M262.85319,105.10557l1.16195,-0.50495l4.09871,6.28864l0.72972,3.4353l-1.89165,-2.93036z" data-paper-data="{&quot;origPos&quot;:null,&quot;origRot&quot;:0}" fill="#ffffff" stroke="none" stroke-width="0"/></g></g><g><path d="M267.76941,16.63551c0.19823,-0.02193 0.39703,-0.02299 0.5966,-0.00169c-0.07047,0.14328 -0.13979,0.28717 -0.20801,0.43162c-0.12788,-0.1461 -0.25735,-0.28942 -0.38857,-0.42995z" data-paper-data="{&quot;origPos&quot;:null}" fill="#453725" stroke="none" stroke-width="0" stroke-linecap="butt"/><g data-paper-data="{&quot;origPos&quot;:null,&quot;index&quot;:null}"><path d="M237.04865,72.61834c-3.31257,-0.65804 -5.2852,-5.72284 -7.80671,-10.00295c-1.42534,-2.41942 -1.36736,-2.87809 -1.37379,-4.87663c-0.00642,-1.99856 0.28069,-2.69248 1.34883,-2.87429c1.06813,-0.18178 2.68691,0.37628 4.1654,1.93572c1.47846,1.5595 2.78042,3.16582 2.39272,4.98161" data-paper-data="{&quot;origPos&quot;:null,&quot;origRot&quot;:0}" fill="#ffddd1" stroke="#e9c7ba" stroke-width="0.5" stroke-linecap="round"/><text transform="translate(238.19645,68.41608) rotate(163.28089) scale(0.2304,-0.41388) skewX(-14.03584)" font-size="40" xml:space="preserve" data-paper-data="{&quot;origRot&quot;:-1.7125,&quot;origPos&quot;:null,&quot;index&quot;:null}" fill="#e9c7ba" fill-rule="nonzero" stroke="none" stroke-width="1" stroke-linecap="butt" stroke-linejoin="miter" stroke-miterlimit="10" stroke-dasharray="" stroke-dashoffset="0" font-family="Handwriting" font-weight="normal" text-anchor="start" style="mix-blend-mode: normal"><tspan x="0" dy="0">3</tspan></text></g><path d="M239.22907,80.59607c0,0 -15.43416,-8.64648 -18.87275,-21.33674c-4.33207,-20.46968 1.41986,-34.16357 16.2639,-40.4884c14.84402,-6.32483 25.40767,-4.5834 33.14935,1.57526c16.41339,13.22069 11.62366,29.75694 11.62366,29.75694l1.53306,5.77329c0,0 3.24323,3.9162 3.39936,5.27321c0.26319,2.28728 -4.54823,14.78062 -8.15881,20.08086c-1.20353,1.76673 -1.12877,2.47412 -5.00256,3.11121c-4.96228,0.9025 -17.32166,-0.77472 -17.32166,-0.77472z" data-paper-data="{&quot;origPos&quot;:null,&quot;origRot&quot;:0}" fill="url(#color-5)" stroke="none" stroke-width="0" stroke-linecap="butt"/><path d="M271.66329,45.34082c4.81759,1.17819 7.46968,4.06165 7.46968,4.06165c0.53084,0.5558 0.37075,1.19772 -0.07633,1.26347c-0.44705,0.06578 -0.99336,-0.07343 -1.5242,-0.62924c-1.87664,-1.96483 -3.03323,-2.23978 -5.84645,-3.13198c-3.74567,-1.18791 -10.15517,-0.94146 -9.44489,-1.1114c1.53305,-0.36686 5.52279,-1.40613 9.42221,-0.4525z" data-paper-data="{&quot;origRot&quot;:0,&quot;index&quot;:null}" fill="#38301c" stroke="none" stroke-width="0" stroke-linecap="butt"/><path d="M284.87812,28.36217c-3.06575,3.16767 -2.52956,1.50125 -4.28836,5.53358c-4.12282,-4.89631 0.00982,-2.99924 -7.87079,-1.43696c-13.20831,2.61851 -24.00061,6.66549 -29.11389,11.08299c-1.168,1.00907 -0.29328,6.36775 -0.29328,6.36775c0,0 -1.26102,-2.7357 -2.1016,-1.29578c-1.85887,3.18425 3.13978,15.92673 3.13978,15.92673l-3.70794,0.41847c0,0 -4.21667,-3.7693 -5.08213,-6.96272c-0.87064,-3.21255 -7.0155,2.67345 -5.09875,5.39885c3.83791,5.45706 6.50103,16.17254 6.50103,16.17254c0,0 -14.39589,-9.00461 -17.68258,-21.58933c-2.29769,-8.79778 -1.59273,-16.82718 1.94972,-25.21761c1.84034,-6.27461 4.77033,-17.70134 25.82863,-20.98326c19.61081,-3.05632 29.10267,0.8016 35.02037,11.58308z" data-paper-data="{&quot;origPos&quot;:null}" fill="#3d3021" stroke="none" stroke-width="0" stroke-linecap="butt"/><path d="M259.6896,32.81385c-9.80255,1.94333 -18.89553,6.8102 -23.79129,15.19657c-1.81752,3.1134 -1.23728,6.86821 -1.23728,6.86821c0,0 -1.25971,-5.8285 -4.04355,-8.0217c-1.62922,-1.62513 -2.88726,-0.1255 -4.81961,1.12403c-1.45718,0.94227 -4.08247,3.82846 -4.08247,3.82846c0,0 -1.56557,-8.7258 0.77818,-14.04852c1.16819,-6.9916 8.34433,-12.33084 8.34433,-12.33084c0,0 -0.86288,-7.79273 14.53095,-11.47244c12.09343,-1.88474 25.69023,-2.56278 29.64212,1.66873c-5.99369,0.66328 1.75326,15.40068 1.75326,15.40068l6.55444,-1.71594c0,0 -0.58123,3.19785 -0.72985,5.20801c-0.36372,4.91893 -0.5829,12.5469 -0.5829,12.5469c0,0 -0.06176,-11.31176 -2.70611,-13.67168c-5.31659,-4.74482 -12.62023,-1.96612 -19.61016,-0.58041z" data-paper-data="{&quot;origPos&quot;:null}" fill="#453725" stroke="none" stroke-width="0" stroke-linecap="butt"/><g data-paper-data="{&quot;origPos&quot;:null}" stroke="none" stroke-width="0" stroke-linecap="butt"><path d="M247.76433,43.84091l-5.48715,-2.62867l6.73035,0.82707l-1.18926,-0.99115c0,0 3.1831,0.91909 7.30896,-0.86703c5.61031,-2.42875 12.99707,-8.36536 17.20273,-9.56659c5.79742,-1.65588 9.16298,6.07401 9.16298,6.07401c0,0 -0.7414,-0.1697 -1.22016,-0.2516c-1.40192,-0.23986 -2.26866,-0.49555 -3.59851,-0.00687c-6.60329,2.4263 -11.65971,9.84296 -18.56049,10.97545c-10.61737,1.74245 -17.45297,-2.92338 -17.45297,-2.92338z" data-paper-data="{&quot;origPos&quot;:null}" fill="url(#color-6)"/><path d="M245.66794,41.58813l-4.85098,-2.1557l6.01136,-0.3649l-2.88902,-1.40784c0,0 4.94618,1.44239 9.08906,-0.8551c7.3802,-4.09274 0.13471,-12.84212 17.44345,-18.70682c8.78551,-2.9768 6.55228,8.62328 8.95518,14.84604c0.62474,1.61787 3.40202,2.55709 3.40202,2.55709l-3.6135,-0.98721c0,0 -0.56386,-0.79212 -2.29396,0.11705c-1.48665,0.78128 -2.97874,0.38878 -2.97874,0.38878c0,0 1.13424,-0.01539 2.84755,-1.45416c1.13617,-0.91633 -0.13435,-1.35444 -0.19942,-0.90905c-9.61525,3.87005 -9.32015,12.38245 -17.57042,13.73643c-10.85988,1.78224 -17.71471,-2.87801 -17.71471,-2.87801z" data-paper-data="{&quot;origPos&quot;:null}" fill="#3b2f20"/></g><path d="M238.46843,61.51642c1.0831,4.37963 2.5783,8.39418 -1.21429,10.00354c-2.09316,0.88824 -6.32562,-2.22141 -7.50456,-6.98849c-1.17889,-4.7671 0.20869,-7.28585 3.1744,-8.19331c2.96572,-0.90747 4.36553,0.41117 5.54444,5.17827z" data-paper-data="{&quot;origRot&quot;:0,&quot;origPos&quot;:null,&quot;index&quot;:null}" fill="url(#color-7)" stroke="none" stroke-width="0" stroke-linecap="butt"/><g data-paper-data="{&quot;origPos&quot;:null}" stroke-linecap="butt"><g data-paper-data="{&quot;origPos&quot;:null}" stroke="none" stroke-width="0"><path d="M279.3149,56.30172c-0.75343,1.73769 -1.9994,3.74223 -5.94676,4.39006c-3.73485,0.61292 -7.47503,-0.8906 -8.15803,-3.68096c-0.17826,-0.68855 0.31455,-3.01009 1.75462,-4.00245c1.78614,-1.23081 5.22177,-2.96525 7.11965,-3.27673c3.94736,-0.6478 3.96818,1.28951 4.56914,2.47902c0,0 1.28086,2.66226 0.66136,4.09107z" data-paper-data="{&quot;origPos&quot;:null}" fill="#000000"/><path d="M279.39728,57.04865c-0.35874,1.49254 -1.54869,2.2451 -1.54869,2.2451c-1.54589,0.54978 -2.05236,0.52503 -3.65989,0.819c-1.39211,0.25456 -3.593,0.36692 -3.593,0.36692c0,0 -1.94894,-0.81682 -2.82156,-1.4635c-0.90235,-0.66872 -1.93001,-2.26422 -1.93001,-2.26422c0,0 1.13632,-2.48522 2.18748,-3.40835c1.05114,-0.92315 4.76947,-3.03416 5.99767,-3.23572c3.62507,-0.59492 3.98798,0.90034 4.52906,1.9268c0,0 0.66396,1.31333 0.82806,2.29408c0.16334,0.97603 0.36964,1.22742 0.01087,2.71995z" data-paper-data="{&quot;origPos&quot;:null}" fill="#ffffff"/></g><g data-paper-data="{&quot;origPos&quot;:null}" stroke="#000000" stroke-width="0"><path d="M278.88328,53.85154c0.4295,1.38412 0.38306,2.81473 -0.03956,4.00739c-0.4226,1.19268 -1.4401,1.77264 -2.51368,2.20602c-1.07357,0.43339 -2.00245,0.63907 -2.98882,0.01516c-0.98637,-0.62387 -1.8116,-1.70263 -2.24116,-3.08674c-0.23099,-0.7444 -0.25018,-1.51438 -0.22138,-2.24141c3.27699,-2.14564 3.69096,-3.04265 7.85187,-1.33798c0.05531,0.14218 0.10633,0.28811 0.15269,0.43759z" data-paper-data="{&quot;origPos&quot;:null}" fill="#898151"/><path d="M276.69742,50.86923c0.98637,0.62387 1.81156,1.70261 2.24106,3.08679c0.0911,0.29351 0.08662,0.60133 0.13584,0.8963c-0.64815,-0.05651 -1.04028,-1.28381 -4.28306,-0.8073c-2.95113,0.43364 -3.45687,1.49569 -3.89372,1.82936c-0.11215,-0.97989 -0.00133,-1.94133 0.29727,-2.78398c0.4226,-1.19268 1.22139,-2.14747 2.29499,-2.58084c1.07359,-0.43334 2.22118,-0.26419 3.20758,0.35969z" data-paper-data="{&quot;origPos&quot;:null}" fill="#4d461c"/></g><path d="M273.82034,60.5678c-1.17712,0.19318 -2.96143,0.58046 -2.96143,0.58046l-0.06287,-0.38317c0,0 1.78206,-0.59505 2.92817,-0.78315c1.48699,-0.24403 3.81888,-0.32414 3.81888,-0.32414l0.06287,0.38317c0,0 -2.32962,0.2879 -3.78563,0.52684z" data-paper-data="{&quot;origPos&quot;:null}" fill="#000000" stroke="none" stroke-width="0"/><path d="M268.46381,52.82039l-1.25593,0.00694c0,0 1.79724,-2.22774 6.64086,-3.2654c3.73651,-0.46105 3.95313,1.07557 3.95313,1.07557c0,0 -2.42329,-0.46834 -3.54895,-0.32045c-1.06675,0.14017 -2.51198,0.80387 -3.55787,1.05678c-1.0459,0.25292 -2.23126,1.44656 -2.23126,1.44656z" data-paper-data="{&quot;origPos&quot;:null}" fill="#000000" stroke="#000000" stroke-width="0"/><g data-paper-data="{&quot;origPos&quot;:null}" stroke="none" stroke-width="1"><path d="M273.14309,52.45614c0.46942,-0.57164 1.12822,-0.90475 1.86428,-0.86367c0.7361,0.04106 1.41166,0.44867 1.9083,1.07426c0.49667,0.62561 0.8143,1.46915 0.83506,2.38136c0.02071,0.91221 -0.25928,1.72241 -0.72865,2.29406c-0.46939,0.57163 -1.12817,0.90477 -1.86421,0.86366c-0.73605,-0.04107 -1.41171,-0.44868 -1.90834,-1.07427c-0.49667,-0.62561 -0.81427,-1.46912 -0.83503,-2.38131c-0.02078,-0.9122 0.25925,-1.72243 0.72863,-2.29412z" data-paper-data="{&quot;origPos&quot;:null}" fill="#000000"/><path d="M275.73826,52.50271c0.12842,-0.25224 0.33982,-0.4145 0.60348,-0.42669c0.26361,-0.01227 0.53037,0.12775 0.74814,0.36398c0.21781,0.23617 0.38659,0.56864 0.45466,0.94068c0.06808,0.37202 0.02283,0.7144 -0.10558,0.96671c-0.12842,0.25224 -0.33982,0.41447 -0.60346,0.42667c-0.26365,0.01223 -0.53032,-0.12775 -0.74812,-0.36397c-0.21775,-0.23614 -0.38658,-0.56858 -0.45468,-0.94065c-0.06808,-0.37202 -0.02277,-0.71449 0.10562,-0.96683z" data-paper-data="{&quot;origPos&quot;:null,&quot;origRot&quot;:0}" fill="#ffffff"/><path d="M272.55758,55.85821c0.12984,-0.11957 0.30714,-0.19336 0.50085,-0.19298c0.19372,0.00037 0.3675,0.0749 0.4918,0.19499c0.12431,0.12011 0.19905,0.28579 0.19482,0.46853c-0.00418,0.18269 -0.08673,0.34811 -0.21662,0.46768c-0.12984,0.11957 -0.30707,0.19345 -0.50082,0.19301c-0.1937,-0.00035 -0.36742,-0.07485 -0.49171,-0.19498c-0.12429,-0.12009 -0.19907,-0.28583 -0.19483,-0.46857c0.00429,-0.18276 0.08675,-0.34805 0.21659,-0.46762z" data-paper-data="{&quot;origPos&quot;:null}" fill="#ffffff"/></g></g><path d="M281.55761,75.20543l-11.01193,0.79706c0,0 -1.08323,-2.88353 -0.53487,-4.19241c0.49819,-1.18907 3.68896,-3.33601 3.68896,-3.33601l11.47389,-0.57477z" fill="url(#color-8)" stroke="none" stroke-width="0" stroke-linecap="round"/><path d="M272.94274,72.10443l7.38084,-0.29267" fill="none" stroke="#000000" stroke-width="0.5" stroke-linecap="round"/></g><g stroke="none" stroke-width="0" stroke-linecap="butt"><path d="M326.23987,170.21521l-8.38297,-3.24812l4.70204,-12.13535l8.04148,3.55834c0,0 1.7334,1.78505 0.90752,3.91661c-0.54656,1.41061 -5.26806,7.90853 -5.26806,7.90853z" data-paper-data="{&quot;origPos&quot;:null}" fill="#000000"/><path d="M306.77695,146.69986c9.95098,5.51377 18.27619,8.79694 24.68825,15.42654c3.43209,3.54854 2.22594,6.38612 -2.71888,6.40311c-9.4929,0.03259 -20.33998,-5.15578 -29.96543,-9.4183c-8.63087,-3.82209 -11.7629,-1.97631 -28.72472,-10.44167c-11.07346,-5.12617 0.16698,-26.13415 10.88421,-20.31181c10.71722,5.82234 15.88564,12.82838 25.83661,18.34216z" data-paper-data="{&quot;origPos&quot;:null}" fill="url(#color-9)"/><g data-paper-data="{&quot;origPos&quot;:null}"><path d="M324.7133,168.90638l-6.8545,-1.88972l4.53302,-12.27026l9.08155,4.23241c0,0 -3.80096,0.87446 -5.24729,3.60091z" data-paper-data="{&quot;origPos&quot;:null}" fill="url(#color-10)"/><path d="M321.91166,168.71775c0,0 -37.58539,-11.71702 -50.0663,-19.04566c-7.60977,-4.46839 -9.45461,-6.64721 -5.50058,-14.28415c3.53095,-7.3396 8.78303,-9.1767 14.53449,-7.52932c5.75145,1.6474 49.93874,31.18134 49.93874,31.18134c0,0 -5.26712,-1.5509 -6.92938,1.51258c-1.76428,3.25159 -1.97699,8.16517 -1.97699,8.16517z" data-paper-data="{&quot;origPos&quot;:null,&quot;origRot&quot;:0}" fill="#1e4994"/></g></g><g data-paper-data="{&quot;origRot&quot;:0}" stroke="none" stroke-width="0" stroke-linecap="butt"><path d="M243.46206,93.79593c9.46235,3.25158 9.36282,6.62342 16.66619,13.48165c17.39003,16.33016 16.56125,15.95367 21.26622,22.83401c5.72039,8.36524 -10.3179,20.03495 -17.73332,13.06232c-4.0921,-3.84777 -15.005,-11.14128 -19.08097,-15.0057c-13.9528,-13.22861 -18.72282,-27.28887 -16.6506,-34.44335c2.18498,-7.54382 10.69277,-1.59197 15.53258,0.07112z" data-paper-data="{&quot;origPos&quot;:null,&quot;origRot&quot;:0}" fill="#2152a6"/><path d="M227.06362,95.75979c5.29722,2.9459 11.62401,5.9934 15.18313,9.36667c12.29776,11.65551 24.40111,23.50747 36.47602,35.38836c-4.19807,4.10427 -11.2622,6.21643 -15.50434,2.22759c-4.0921,-3.84777 -15.00502,-11.14128 -19.08097,-15.0057c-12.49138,-11.84305 -17.62285,-24.35267 -17.07384,-31.97693z" data-paper-data="{&quot;origPos&quot;:null,&quot;origRot&quot;:0}" fill="#000000"/></g><g><g><path d="" data-paper-data="{&quot;origPos&quot;:null}" fill="none" stroke="#000000" stroke-width="1.5" stroke-linecap="round"/><path d="M345.09082,171.35328l17.52118,-12.64302l5.88176,7.99896l-17.52118,12.64302z" fill="#524e53" stroke="none" stroke-width="0" stroke-linecap="butt"/><g stroke="none" stroke-width="0" stroke-linecap="butt"><path d="M358.619,165.75081c0,0 9.48791,-16.30876 18.24232,-23.08647c21.93625,-16.98322 107.54371,-77.59475 107.54371,-77.59475l-6.70691,15.07538l-116.50388,86.6264z" fill="url(#color-11)"/><path d="M357.60163,163.74679l119.1409,-83.04015l13.60667,-19.34129c0,0 -4.04641,24.18667 -13.93761,32.03315c-23.70299,18.80304 -61.03762,48.50316 -87.67644,66.18237c-13.55225,8.9941 -28.10272,10.76936 -28.10272,10.76936z" data-paper-data="{&quot;index&quot;:null}" fill="url(#color-12)"/><g><path d="M356.23983,165.08787c0,0 81.80528,-60.58011 98.83103,-73.18744c2.86529,-2.12171 11.89859,-9.75101 17.98982,-16.24978c6.57638,-7.01638 3.91329,-9.67808 3.91329,-9.67808l11.82681,-10.43102c0,0 4.97332,7.82525 -1.49715,19.08909c-6.20228,10.79699 -24.75275,23.71137 -28.63685,26.5881c-18.79171,13.91798 -98.56677,71.54025 -98.56677,71.54025z" fill="url(#color-13)"/><path d="M356.23983,165.08787c0,0 81.80528,-60.58011 98.83103,-73.18744c2.86529,-2.12171 11.89859,-9.75101 17.98982,-16.24978c6.57638,-7.01638 3.91329,-9.67808 3.91329,-9.67808l11.82681,-10.43102c0,0 4.97332,7.82525 -1.49715,19.08909c-6.20228,10.79699 -24.75275,23.71137 -28.63685,26.5881c-18.79171,13.91798 -98.56677,71.54025 -98.56677,71.54025z" fill="url(#color-14)"/><path d="M356.07125,166.90201c0,0 47.96239,-33.6262 76.65363,-55.6431c28.69124,-22.01689 32.3839,-23.27328 45.39979,-38.01738c3.34516,-3.78931 2.67369,-9.94797 2.67369,-9.94797l4.67086,-4.49753c0,0 2.95168,6.28399 -1.70124,14.42571c-7.03707,12.31358 -29.13999,26.76275 -49.2114,42.41716c-20.07143,15.65442 -75.96136,55.20946 -75.96136,55.20946z" fill="#000000"/></g></g><g stroke="none" stroke-width="0" stroke-linecap="butt"><g><path d="M347.38433,170.13559l9.68811,-7.5969c0,0 2.01789,3.01393 3.1952,4.56021c0.9612,1.26247 3.35277,4.03988 3.35277,4.03988l-10.03124,8.36236z" fill="#464347"/><path d="M351.94403,165.57917l9.69265,-6.80373l2.10324,2.86032l-9.60121,6.92808z" fill="#2c2a2c"/><path d="M351.66312,176.55478c0,0 1.8386,-6.09207 3.55206,-8.8542c1.72877,-2.78693 6.77512,-7.79369 6.77512,-7.79369l1.52888,1.86207c0,0 -4.58852,5.58009 -6.33375,8.37595c-1.61357,2.58494 -3.77365,7.81618 -3.77365,7.81618z" fill="#191819"/><path d="M361.09703,159.19531l1.52298,-1.02741l6.35641,9.09952l-1.52298,1.0274z" fill="#191819"/></g><g><path d="M318.60263,190.50594l27.7852,-19.96616l0.33963,12.64445c0,0 -2.46694,1.92719 -5.90046,4.92111c-3.60609,3.14437 -8.26513,7.43623 -11.68644,10.65821c-2.32163,2.18635 -4.04868,3.80541 -4.04868,3.80541l-7.89571,-3.07596z" fill="#2d2d31"/><path d="M316.22,200.30499l0.54393,-7.48392l3.8772,-2.90466l-0.48713,7.29739l6.87563,3.68105l-3.19803,3.7935z" fill="#0f1011"/><path d="M342.65742,172.98618l9.86268,-8.72111l2.56612,3.66037c0,0 -0.48225,4.81388 -0.49454,6.92956c-0.01154,1.98897 0.42292,5.40784 0.42292,5.40784l-8.4013,3.29302c0,0 -2.47395,-1.40213 -5.01545,-6.69287c-1.10407,-2.29838 1.05957,-3.87689 1.05957,-3.87689z" fill="#282628"/><path d="M343.3003,172.98964l8.93319,-7.8992l2.32429,3.31541c0,0 -0.4368,4.36023 -0.44793,6.27653c-0.92315,0.31686 -10.49186,4.16176 -11.76924,1.81877c-1.00002,-2.08177 0.95971,-3.51151 0.95971,-3.51151z" fill="#232123"/><path d="M337.62457,177.2443l0.71324,-0.51465l4.29795,5.84505l-0.71324,0.51465z" fill="#252527"/><path d="M333.78408,180.01557l0.71324,-0.51465l4.29795,5.84505l-0.71324,0.51465z" fill="#252527"/><path d="M335.97865,178.43199l0.71324,-0.51465l4.29795,5.84504l-0.71324,0.51465z" fill="#252527"/><path d="M332.13816,181.20323l0.71324,-0.51465l4.29795,5.84504l-0.71323,0.51467z" fill="#252527"/><path d="M316.13342,191.74894l17.02448,-11.53438l-0.84795,7.15674l-17.18689,13.15621z" fill="#464649"/><path d="M316.26287,191.5754l7.18052,-5.09995l-1.00821,5.26236l-6.76887,4.38241z" fill="#737277"/></g></g></g><path d="M339.14615,172.42468c-1.0079,-0.23435 0.05008,-2.58889 0.05008,-2.58889c0.53764,-1.08233 0.96804,-1.92969 2.06429,-1.421c1.13982,0.52889 4.79978,0.99145 5.96695,1.57123c0.01815,0.39503 -4.37117,2.81631 -4.37117,2.81631c0,0 -1.6423,0.1031 -3.71018,-0.37765z" fill="#fde6d9" stroke="none" stroke-width="0" stroke-linecap="butt"/><path d="M329.28897,179.68563c-0.23976,-0.8381 1.03292,-1.49407 1.03292,-1.49407c1.40273,-1.07311 8.09603,-5.72485 7.77213,-4.09788c-0.47098,2.36569 -1.21361,6.8692 -0.06027,8.28913c0.66505,0.81878 0.85003,1.9196 1.53689,2.72133c1.14277,1.33391 1.39028,2.60647 -0.12813,3.7949c-1.69403,1.32589 -1.86763,0.65456 -3.47991,-0.37693c-0.52135,-0.33353 -2.2103,-2.07163 -2.59337,-2.54327c-2.79954,-3.44666 -3.37629,-3.8326 -4.08021,-6.29319z" data-paper-data="{&quot;origRot&quot;:0}" fill="url(#color-15)" stroke="none" stroke-width="0" stroke-linecap="butt"/><path d="M336.87131,189.83274c-0.45725,-0.5372 0.19213,-1.74251 0.19213,-1.74251c0.59388,-1.60672 0.81878,-3.38903 2.57593,-2.06238c1.32454,0.99998 2.65973,1.47357 3.94978,1.9822c0.4668,0.18405 1.77886,0.49297 2.26664,0.61984c1.45405,0.37814 1.42652,1.63295 0.70345,3.20426c-0.56946,1.23755 -1.55054,2.04177 -4.68191,0.80718c-3.13135,-1.23459 -3.66358,-1.23132 -5.00607,-2.80853z" data-paper-data="{&quot;origRot&quot;:0}" fill="url(#color-16)" stroke="none" stroke-width="0" stroke-linecap="butt"/><g data-paper-data="{&quot;origRot&quot;:0}" fill="#fde6d9" stroke="none" stroke-width="0" stroke-linecap="butt"><path d="M333.50775,174.86239c-0.05198,-0.96611 1.34632,-1.27669 1.34632,-1.27669c1.61819,-0.71529 9.29022,-1.58934 8.61331,0.04528c-0.98424,2.37679 -2.75995,4.90871 -1.93567,6.77349c0.4753,1.07529 0.41556,2.30462 0.91609,3.36838c0.8328,1.76996 0.7969,3.2013 -0.96065,4.00414c-1.9608,0.89573 -1.98426,0.12753 -3.34617,-1.46344c-0.44042,-0.51447 -1.72253,-2.88167 -1.99632,-3.50108c-2.0008,-4.52647 -2.48431,-5.11367 -2.63694,-7.95011z" data-paper-data="{&quot;origRot&quot;:0,&quot;origPos&quot;:null}"/><path d="M338.9521,187.32032c-0.41822,-0.65887 0.50989,-1.73713 0.50989,-1.73713c0.93441,-1.50231 1.4876,-3.27229 3.22008,-1.49533c1.3059,1.33941 2.71313,2.14278 4.06402,2.97118c0.48882,0.29975 1.89821,0.92913 2.42008,1.1754c1.55578,0.73408 1.31207,2.01143 0.23976,3.44663c-0.84456,1.13038 -2.07412,1.71906 -5.35324,-0.29181c-3.27915,-2.01086 -3.8727,-2.13456 -5.1006,-4.06892z" data-paper-data="{&quot;origRot&quot;:0,&quot;origPos&quot;:null}"/><path d="M347.32515,192.56911c-0.69798,-0.14213 -0.96393,-1.52945 -0.96393,-1.52945c-0.56542,-1.67597 -0.12229,-2.01257 0.89312,-2.69609c1.17011,-0.78763 2.83011,-1.01391 4.93265,-1.47268c2.10252,-0.45884 4.60161,0.56462 4.61687,1.45981c0.01425,0.8368 -0.52655,2.10153 -3.74534,3.1017c-3.21883,1.0002 -3.684,1.554 -5.73333,1.13671z" data-paper-data="{&quot;origRot&quot;:0,&quot;origPos&quot;:null}"/></g><g data-paper-data="{&quot;origRot&quot;:0}" fill="#fde6d9" stroke="none" stroke-width="0" stroke-linecap="butt"><path d="M334.56305,176.82584c-0.49306,-0.83242 0.60287,-1.75471 0.60287,-1.75471c1.10363,-1.3828 7.50073,-5.70728 7.65693,-3.94498c0.35432,3.99742 2.24875,8.37431 3.78848,9.46282c1.55718,1.1838 1.47102,2.31899 0.28441,3.84388c-1.3239,1.70129 -1.90146,1.42587 -3.57416,0.27275c-0.55759,-0.38437 -2.21324,-1.62932 -2.74254,-2.0518c-3.86804,-3.08715 -4.56835,-3.384 -6.01599,-5.82798z" data-paper-data="{&quot;origRot&quot;:0,&quot;origPos&quot;:null}"/><path d="M342.39596,183.78853c-0.52798,-0.57464 0.19515,-1.79987 0.19515,-1.79987c0.65446,-1.64369 0.8864,-3.48353 2.90543,-2.04044c1.52189,1.08777 3.04886,1.63001 4.52481,2.20686c0.53409,0.20874 2.03244,0.57934 2.58959,0.72954c1.66098,0.44778 1.64666,1.74811 0.8446,3.35014c-0.63169,1.26174 -1.73795,2.05831 -5.32063,0.65808c-3.58269,-1.40021 -4.18877,-1.41718 -5.73895,-3.10433z" data-paper-data="{&quot;origRot&quot;:0,&quot;origPos&quot;:null}"/><path d="M349.84625,186.78632c-0.5849,-0.40658 -0.28048,-1.78597 -0.28048,-1.78597c0.1435,-1.76294 0.68365,-1.89688 1.88656,-2.12311c1.38621,-0.26066 3.00036,0.18801 5.11292,0.59808c2.11258,0.4101 4.54341,2.57239 4.2034,3.40063c-0.31783,0.77421 -1.85496,1.48798 -5.20691,1.13369c-3.35195,-0.35433 -3.99823,-0.02962 -5.71546,-1.22336z" data-paper-data="{&quot;origRot&quot;:0,&quot;origPos&quot;:null}"/></g><path d="M328.57667,177.78397c-2.64633,-6.94245 -5.49121,-13.62237 -3.61989,-15.08302c1.3908,-1.08559 4.74631,-5.17584 7.13541,-1.92928c2.04078,2.77322 8.92184,7.72687 11.04044,10.44113c0,0 -12.23435,12.66187 -14.55597,6.57118z" data-paper-data="{&quot;origRot&quot;:0}" fill="url(#color-17)" stroke="none" stroke-width="0" stroke-linecap="butt"/></g></g></g></svg>