<svg version="1.1" xmlns="http://www.w3.org/2000/svg" xmlns:xlink="http://www.w3.org/1999/xlink" width="340.00658" height="412.03728" viewBox="0,0,340.00658,412.03728"><g transform="translate(-177.53584,-11.87653)"><g data-paper-data="{&quot;isPaintingLayer&quot;:true}" fill-rule="nonzero" stroke-linejoin="miter" stroke-miterlimit="10" stroke-dasharray="" stroke-dashoffset="0" style="mix-blend-mode: normal"><g data-paper-data="{&quot;index&quot;:null}"><path d="M368.60162,376.99623c0.75827,3.53365 -0.61021,3.93181 -0.61021,3.93181c0,0 -14.45576,10.79076 -29.49135,17.65591c-3.31717,1.51461 -4.90347,-1.98941 -8.28812,-2.18176c-2.67145,-0.15182 -1.74065,-1.02621 -2.57006,-0.66967c-2.75688,1.1851 -3.01578,0.39566 -3.01578,0.39566c0,0 -7.30399,-14.7406 -8.0672,-16.31841c-1.46086,-3.02006 -5.57613,-13.02853 -5.57613,-13.02853l28.64979,-18.07904l8.09492,8.34013c0,0 4.11702,6.45896 10.96011,8.38979c4.12632,1.16428 9.13072,7.91386 9.91403,11.5641z" fill="#403328" stroke="#292018" stroke-width="4" stroke-linecap="butt"/><path d="M354.46825,380.40524l10.52637,-4.03094l-0.19834,3.02191c0,0 -9.28492,6.58887 -14.18845,9.537c-4.30247,2.58676 -11.91578,5.96945 -11.91578,5.96945c0,0 -1.84946,2.18156 -3.09942,-0.14962c-1.24996,-2.33118 18.87564,-14.34781 18.87564,-14.34781z" fill="#775f4a" stroke="none" stroke-width="0" stroke-linecap="butt"/><path d="M335.14065,381.326c0,0 5.61842,-4.7877 10.40962,-7.61962c4.33306,-2.56112 13.49232,-5.80023 13.49232,-5.80023" fill="none" stroke="#292018" stroke-width="4" stroke-linecap="round"/><path d="M348.2402,357.99854c0,0 -3.88691,5.19791 -6.70293,7.10983c-3.41343,2.31752 -12.33237,5.81401 -12.33237,5.81401l-7.71772,-7.63665l18.40285,-1.71566" fill="none" stroke="#292018" stroke-width="4" stroke-linecap="round"/><path d="M329.15396,369.13817l8.4049,-14.16801l4.94459,6.4063" fill="none" stroke="#292018" stroke-width="4" stroke-linecap="round"/></g><g data-paper-data="{&quot;index&quot;:null}"><path d="M319.2956,400.32609c0.75827,3.53365 -0.61021,3.93181 -0.61021,3.93181c0,0 -14.45576,10.79076 -29.49135,17.65591c-3.31717,1.51461 -4.90347,-1.98941 -8.28812,-2.18176c-2.67145,-0.15182 -1.74065,-1.02621 -2.57006,-0.66967c-2.75688,1.1851 -3.01578,0.39566 -3.01578,0.39566c0,0 -7.30399,-14.7406 -8.0672,-16.31841c-1.46086,-3.02006 -5.57613,-13.02853 -5.57613,-13.02853l28.64979,-18.07904l8.09492,8.34013c0,0 4.11702,6.45896 10.96011,8.38979c4.12632,1.16428 9.13072,7.91386 9.91403,11.5641z" fill="#403328" stroke="#292018" stroke-width="4" stroke-linecap="butt"/><path d="M305.16223,403.7351l10.52637,-4.03094l-0.19834,3.02191c0,0 -9.28492,6.58887 -14.18845,9.537c-4.30247,2.58676 -11.91578,5.96945 -11.91578,5.96945c0,0 -1.84946,2.18156 -3.09942,-0.14962c-1.24996,-2.33118 18.87564,-14.34781 18.87564,-14.34781z" fill="#775f4a" stroke="none" stroke-width="0" stroke-linecap="butt"/><path d="M285.83463,404.65585c0,0 5.61842,-4.7877 10.40962,-7.61962c4.33306,-2.56112 13.49232,-5.80023 13.49232,-5.80023" fill="none" stroke="#292018" stroke-width="4" stroke-linecap="round"/><path d="M298.93416,381.3284c0,0 -3.88691,5.19791 -6.70293,7.10983c-3.41343,2.31752 -12.33237,5.81401 -12.33237,5.81401l-7.71772,-7.63665l18.40285,-1.71566" fill="none" stroke="#292018" stroke-width="4" stroke-linecap="round"/><path d="M279.84793,392.46803l8.4049,-14.16801l4.94459,6.4063" fill="none" stroke="#292018" stroke-width="4" stroke-linecap="round"/></g><path d="M192.86669,89.49468c2.57635,-5.92564 5.6476,-24.3038 5.6476,-24.3038l80.37232,4.01522c0,0 -0.31718,19.73802 1.05088,26.53408c0.89169,4.42959 2.47254,5.33384 2.47254,5.33384c0,0 -3.47593,5.52801 -6.70864,5.44588c-1.03523,-0.0263 -3.25061,-0.09603 -4.71928,-0.08812c-0.58586,0.00315 -1.33315,9.08077 -1.33315,9.08077c0,0 -4.09646,3.58229 -7.53551,3.54805c-1.4266,-0.01421 -6.16818,-0.94619 -7.67893,-0.91759c-1.70252,0.03224 -5.22515,1.42784 -7.89688,2.23913c-4.31793,1.31117 -10.08003,0.66369 -10.08003,0.66369c0,0 -4.71888,-1.84623 -8.10542,-3.62161c-2.7987,-1.46719 -4.08796,-2.88819 -6.36888,-3.15934c-1.52821,-0.18167 -13.24247,2.09151 -14.09181,2.02683c-2.0655,-0.15726 -10.32282,-4.61459 -10.32282,-4.61459c0,0 2.14493,-6.64363 0.88483,-6.78674c-1.68239,-0.19107 -3.54791,-3.77967 -4.50393,-3.93851c-2.95593,-0.49116 -5.09822,-5.87643 -5.09822,-5.87643c0,0 2.1156,-1.21136 4.01533,-5.58076z" data-paper-data="{&quot;index&quot;:null}" fill="#14161a" stroke="#14161a" stroke-width="4" stroke-linecap="butt"/><g data-paper-data="{&quot;index&quot;:null}" stroke-linecap="butt"><g><g><path d="M290.10881,193.82719c-1.22524,-0.55754 -4.59227,-6.13506 -5.04415,-6.77002c-13.94739,-19.59791 -17.97387,-22.48187 -17.97387,-22.48187c0,0 -1.54075,-11.00776 1.18837,-14.21274c1.94193,-2.28053 13.35527,-3.31057 13.35527,-3.31057c0,0 13.93025,21.22629 18.62658,30.09333c1.1074,2.09086 3.36094,3.20303 8.18596,9.92285c3.83953,5.34732 -11.44794,9.89444 -18.33815,6.75904z" fill="#d9bb9a" stroke="#917c67" stroke-width="4"/><path d="M310.22051,192.95494c1.21504,2.4688 -15.75732,4.0943 -16.44295,4.43174c-0.68562,0.33743 -1.54776,-2.3414 -2.76282,-4.81022c-1.21504,-2.4688 -3.08425,-4.85766 -2.39864,-5.19509c0.11421,-0.05621 16.9272,-0.35428 17.63377,0.37445c1.86606,1.92457 2.95798,3.14155 3.97063,5.19911z" fill="#d9bb9a" stroke="none" stroke-width="0"/><path d="M273.96529,147.82817c2.03338,-1.40366 7.36846,5.24405 13.20915,13.90734c5.84071,8.66328 6.12003,10.6948 10.04735,16.92256c2.6457,4.19542 6.67707,9.2726 10.25502,13.52741c6.08943,7.24141 -11.17343,5.20344 -11.49674,4.99334c-0.29374,-0.19087 -3.10029,-7.26544 -3.40586,-7.87543c-3.51046,-7.00801 -7.88677,-16.45104 -9.64804,-18.17757c-3.89044,-3.81369 -10.54123,-9.54103 -12.7881,-12.87368c-5.84071,-8.66328 1.79384,-9.02031 3.82722,-10.42398z" fill="#ffdbb5" stroke="none" stroke-width="0"/></g><path d="M299.39283,192.35617c-3.44267,0.41412 -11.46624,0.50796 -11.46624,0.50796c0,0 -12.632,-15.7959 -16.87942,-22.21095c-4.22556,-6.38203 -15.08852,-24.06365 -15.08852,-24.06365l19.45103,-17.07979c0,0 9.82379,12.13837 14.38546,20.51372c4.66712,8.56897 21.47954,39.06212 21.47954,39.06212c0,0 -7.92897,2.79511 -11.88184,3.2706z" fill="#403328" stroke="#292018" stroke-width="4"/></g><g><path d="M327.92487,224.42846c3.26713,6.63837 5.92961,13.82281 1.86864,15.82146c-1.33511,0.65709 -1.16503,0.50893 -2.96639,0.13242c-1.78351,-0.37278 -1.23879,1.40321 -3.3198,0.53303c-0.81653,-0.34143 -0.76922,0.44575 -2.46539,-0.76172c-1.16839,-0.83175 -1.55984,-2.69019 -2.87056,-3.84779c-1.93697,-1.71068 -4.5278,-3.77657 -4.95258,-4.63965c-3.26713,-6.63837 -2.62361,-13.64003 1.43736,-15.63868c4.06097,-1.99864 10.00157,1.76258 13.26871,8.40094z" fill="#917c67" stroke="none" stroke-width="NaN"/><g><path d="M333.01654,239.49408c-2.26507,0.10988 -9.40519,-17.27014 -13.35076,-20.47475c-3.58848,-2.91459 -5.43924,-2.67128 -7.81157,-1.28862c-2.21721,1.29227 5.12479,11.69991 3.70977,12.41778c-1.45246,0.73685 -2.39036,8.43062 -9.18782,-2.84979c-5.424,-9.00115 -12.06965,-24.30337 -15.06275,-28.50907c-1.23836,-2.61267 18.59118,-8.3645 20.91689,-5.11767c1.1074,2.09086 1.79465,1.54706 6.61967,8.26687c4.52228,6.29819 13.03754,13.14269 13.50607,16.4834c1.41568,10.09401 4.96587,20.86298 0.66051,21.07182z" fill="#d9bb9a" stroke="#917c67" stroke-width="4"/><path d="M309.91673,196.661c6.08943,7.24141 6.76715,9.06743 10.00785,12.79527c3.24071,3.72782 8.07953,6.23187 8.93623,8.57244c2.29699,6.27546 3.84114,18.11678 1.15104,13.32784c-2.19334,-3.90461 -5.26713,-12.06244 -8.94119,-16.03619c-1.72641,-1.86725 -4.66854,-4.70159 -8.5982,-3.98256c-1.58391,0.28981 -5.10601,6.27655 -7.67617,3.60122c-1.30456,-1.35792 -1.66117,-3.23546 -2.93645,-5.41044c-5.17616,-8.82786 -4.20917,-9.96454 -4.53249,-10.17463c-2.16885,-1.40931 9.01143,-6.94773 12.58938,-2.69292z" fill="#ffdbb5" stroke="none" stroke-width="0"/></g><path d="M312.56581,210.53777c-7.48401,1.57644 -13.54485,6.71046 -13.54485,6.71046l-9.18523,-21.10757l22.61473,-5.26863l13.45036,16.24363c0,0 -6.3009,1.94043 -13.33502,3.4221z" fill="#403328" stroke="#292018" stroke-width="4"/><path d="M293.65388,198.78612l-5.0329,-8.21757l19.40038,-2.76114l4.46634,7.46809z" fill="#403328" stroke="none" stroke-width="0"/></g></g><path d="M207.88156,191.81769c0,0 -1.52707,-33.02739 -4.30572,-37.00751c-0.49345,-0.70683 -5.12226,-6.42975 -11.28974,-7.30877c-4.69393,-0.66901 -11.58648,3.94746 -10.57901,1.21305c2.33121,-6.32724 10.812,-10.65987 15.7508,-12.54521c10.05238,-3.8374 21.86661,-12.94756 30.90083,-14.11049c9.87413,-1.27104 21.4793,1.73357 35.3148,4.76435c13.444,2.94502 10.94346,12.16589 10.94346,12.16589c0,0 -10.63623,9.02615 -10.97875,9.80814c-1.6577,3.78461 1.41232,34.05183 1.41232,34.05183l11.87546,36.0372c0,0 -11.54697,11.83205 -34.96503,14.26827c-21.82246,2.27023 -37.04991,-3.55652 -37.04991,-3.55652z" data-paper-data="{&quot;index&quot;:null}" fill="#95d2a1" stroke="#67916f" stroke-width="4" stroke-linecap="butt"/><path d="M253.33376,161.45801c0.18361,1.42636 -0.03698,8.914 0.89761,12.36033c3.21517,11.85597 10.21652,27.08973 8.37667,28.6701c-4.51907,3.88171 -21.28695,4.22205 -26.25781,4.91055c-4.0318,0.55843 -18.40357,2.71942 -23.03202,-0.5019c-3.5914,-2.49957 0.17344,-15.06019 0.352,-27.85963c0.05156,-3.69593 -2.11834,-10.43475 -2.47755,-13.22524c-0.38727,-3.0085 -6.45944,-15.94846 -8.33291,-18.83095c-0.68588,-1.05528 -4.3567,1.57747 -6.22711,1.05504c-1.62218,-0.4531 -1.49681,-4.0301 -1.74672,-5.18554c-0.48932,-2.26239 3.40773,-5.94611 7.74761,-8.01281c4.33988,-2.06671 18.48748,-6.78603 25.12179,-7.64003c6.83404,-0.87971 20.83863,-0.80141 26.99412,1.18001c1.16081,0.37366 8.61379,2.03363 8.13926,4.98457c-0.34274,2.13139 0.29711,6.03629 -1.70081,6.9872c-2.19834,1.04631 -7.03809,-0.92838 -7.11991,0.07329c-0.39225,4.80254 -1.1207,18.03293 -0.73425,21.03502z" data-paper-data="{&quot;index&quot;:null}" fill="#a6eab4" stroke="none" stroke-width="0" stroke-linecap="butt"/><g data-paper-data="{&quot;index&quot;:null}" stroke-linecap="butt"><path d="M208.73609,128.24443l1.61035,-8.69718c0,0 13.74585,-0.67344 24.44366,0.1303c10.69782,0.80373 27.70665,4.53531 27.70665,4.53531l-0.36398,5.57585z" fill="#292018" stroke="#292018" stroke-width="4"/><g><path d="M218.90738,117.31113l33.21441,2.41087l-0.47179,13.46698c0,0 -5.58551,8.67617 -14.54313,7.98645c-8.67343,-0.66785 -21.9113,-11.27814 -21.9113,-11.27814z" fill="#d9bb9a" stroke="#917c67" stroke-width="4"/><path d="M245.38344,128.92942c-0.08041,1.23179 -2.40468,2.93615 -5.12299,2.7587c-2.7183,-0.17745 -4.8013,-2.16951 -4.72089,-3.40129c0.08041,-1.23179 2.29376,-1.23683 5.01207,-1.05938c2.7183,0.17745 4.91221,0.4702 4.83181,1.70198z" fill="#ffdbb5" stroke="none" stroke-width="0"/></g></g><g data-paper-data="{&quot;index&quot;:null}" stroke-linecap="butt"><g fill="#465b9c"><path d="M222.57736,302.51873c-2.65737,-7.18941 -10.43375,-25.63341 -10.43375,-25.63341l29.27653,-14.25368c0,0 13.41672,24.04205 16.48623,32.03549c3.22993,8.41119 7.62168,21.48584 7.62168,21.48584c0,0 -8.2372,9.41148 -12.87962,11.91958c-4.43762,2.39746 -14.65079,3.6513 -14.65079,3.6513c0,0 -12.22681,-20.56534 -15.42026,-29.20512z" stroke="#2e3c67" stroke-width="4"/><path d="M214.75414,278.44144l-2.01401,-4.12676l21.69077,-10.60853l2.01401,4.12676z" stroke="none" stroke-width="0"/></g><path d="M220.39805,284.6681c-5.74289,-13.05808 -9.51354,-24.51732 -4.12811,-27.31307c12.45192,-6.46415 16.82416,6.13284 25.95275,27.42434c5.42372,12.65028 10.01714,27.48855 9.88444,34.93125c-0.0663,3.71924 -2.55386,6.2995 -4.10707,7.13232c-2.28167,1.22341 -5.12209,1.65252 -7.3717,0.06082c-1.35625,-0.95959 -1.8711,-5.10546 -3.91438,-8.2834c-1.49155,-2.31985 -3.23616,-5.35047 -5.33606,-9.26679c-2.90893,-5.42517 -8.5372,-19.13137 -10.97986,-24.68547z" fill="#5671c0" stroke="none" stroke-width="0"/></g><g data-paper-data="{&quot;index&quot;:null}" stroke-linecap="butt"><g fill="#465b9c"><path d="M261.46519,388.08621l-0.48492,-4.55206l-2.71665,-1.27413l-0.54093,-3.85746c0,0 -8.31985,-16.67522 -9.90544,-21.0673c-2.60549,-7.21723 -12.13374,-28.02216 -12.13374,-28.02216l28.67326,-15.84088c0,0 15.64221,24.75944 18.65903,32.78113c1.2568,3.34182 6.1465,16.26916 6.1465,16.26916l1.79104,3.6956l-0.64435,2.79312l3.18675,3.82071c0,0 -10.35176,7.49318 -15.25356,10.14035c-4.68557,2.5304 -16.77698,5.11392 -16.77698,5.11392z" stroke="#2e3c67" stroke-width="4"/><path d="M239.71126,330.33829l-2.38683,-4.84275l24.80586,-14.19735c0,0 2.31488,4.81391 2.25848,6.10717c-0.02179,0.49978 -5.73399,3.56849 -5.73399,3.56849z" stroke="none" stroke-width="0"/></g><path d="M239.50528,326.54768c-1.1722,-4.22215 1.80573,-3.70141 4.43517,-5.21225c4.27438,-1.0562 7.04332,-6.66483 8.30468,-3.12269c6.08218,17.07983 17.20975,36.45789 19.83422,41.87962c1.47965,3.05672 7.48043,7.72219 4.94058,11.2881c-0.98723,1.38604 -3.98784,3.99265 -6.9457,4.94415c-3.11069,1.00065 -5.17406,1.52894 -7.01516,0.73514c-1.8411,-0.7938 -0.78866,-4.48133 -1.67758,-4.4831c-2.83189,-0.00562 -6.60166,-15.31546 -11.17033,-24.75358c-2.43217,-5.02444 -9.37148,-16.46897 -10.70589,-21.27539z" fill="#5671c0" stroke="none" stroke-width="0"/></g><path d="M200.22469,77.14487c1.32319,-26.41842 18.02327,-40.65811 41.19997,-39.49728c23.1767,1.16083 38.37035,16.99793 37.04717,43.41634c-1.32318,26.41843 -24.74012,43.40243 -35.31861,43.08063c-24.29075,-0.73891 -44.25171,-20.58127 -42.92852,-46.99969z" data-paper-data="{&quot;index&quot;:null}" fill="#d9bb9a" stroke="#917c67" stroke-width="4" stroke-linecap="butt"/><path d="M272.39488,81.29241c-1.05855,21.13473 -18.11195,37.54233 -28.83257,37.00539c-21.03995,-0.74153 -38.13168,-19.17159 -37.07312,-40.30634c1.05855,-21.13473 13.78448,-35.00926 35.13505,-33.93991c21.08482,1.05605 31.82921,16.10611 30.77066,37.24085z" fill="#ffdbb5" stroke="none" stroke-width="0" stroke-linecap="butt"/><path d="M254.33369,100.6103c-0.08807,1.3491 -3.12149,4.31604 -6.34758,4.10545c-3.22609,-0.21059 -4.93532,-1.86932 -4.84726,-3.21841c0.08807,-1.3491 1.94008,-1.8777 5.16618,-1.66711c3.22609,0.21059 6.11673,-0.56903 6.02866,0.78007z" fill="#d9bb9a" stroke="none" stroke-width="0" stroke-linecap="butt"/><path d="M255.52363,110.56292c0,0 -6.62363,2.11062 -10.34251,1.97107c-3.81049,-0.143 -10.67257,-3.55621 -10.67257,-3.55621" fill="none" stroke="#d9bb9a" stroke-width="4" stroke-linecap="round"/><g data-paper-data="{&quot;index&quot;:null}" stroke-linecap="butt"><g fill="#465b9c"><path d="M276.25612,314.29785c0,0 -8.50197,-10.87078 -13.74101,-18.20471c-4.97884,-6.96967 -17.57063,-31.45403 -17.57063,-31.45403l28.66907,-16.81626c0,0 11.093,16.66567 15.6299,22.84728c5.45219,7.42868 15.7958,29.00376 15.7958,29.00376c0,0 -6.87184,7.90699 -11.41678,10.3259z" stroke="#2e3c67" stroke-width="4"/><path d="M252.15518,263.30637l-2.32592,-3.95952l21.28119,-12.43267l2.32592,3.95952z" stroke="none" stroke-width="0"/></g><path d="M287.04243,283.17496c2.0999,3.91632 3.83463,6.95225 4.93744,9.48051c1.51075,3.46348 4.18588,6.90896 4.22102,8.57692c0.05832,2.76665 0.37861,3.23087 -1.95044,4.47968c-1.58547,0.85011 -6.95211,2.4812 -10.11985,0.49603c-6.33908,-3.97257 -14.43194,-16.9345 -21.98903,-28.44087c-12.71923,-19.36623 -20.83035,-29.95849 -8.29867,-36.8903c5.41993,-2.998 12.02694,6.94042 19.74546,18.93918c3.28297,5.10353 13.45406,23.35883 13.45406,23.35883z" fill="#5671c0" stroke="none" stroke-width="0"/></g><g data-paper-data="{&quot;index&quot;:null}" stroke-linecap="butt"><g fill="#465b9c"><path d="M324.64293,360.9295c-4.75469,2.53057 -16.35437,6.80755 -16.35437,6.80755l-1.44811,-4.75295l-2.62785,-1.0386l-2.08206,-3.53955c0,0 -8.00886,-11.25487 -10.08304,-14.15842c-4.97884,-6.96967 -17.00603,-33.66745 -17.00603,-33.66745l28.10444,-14.60283c0,0 12.01398,19.4721 16.55091,25.65371c2.76097,3.76186 12.02989,19.92819 12.02989,19.92819l2.87426,2.60636l-0.38976,2.93977l3.47276,2.94999c0,0 -8.49606,8.4553 -13.041,10.87423z" stroke="#2e3c67" stroke-width="4"/><path d="M284.71051,309.8399c0,0 -5.52758,2.95796 -5.94844,2.69553c-1.08908,-0.67907 -3.81077,-5.27486 -3.81077,-5.27486l25.13223,-12.808l2.88522,4.57555z" stroke="none" stroke-width="0"/></g><path d="M307.86735,319.51623c5.32023,9.03514 15.87152,20.70877 14.38192,23.03155c-0.46758,0.72912 3.1082,1.93505 2.78697,3.88827c-0.32123,1.95322 -1.84267,3.34708 -4.30363,5.33388c-2.34004,1.8892 -6.05838,2.88522 -7.7146,2.91657c-4.26098,0.08064 -4.91624,-7.45105 -6.63932,-10.37725c-3.0562,-5.19023 -13.05755,-25.17216 -23.83858,-39.73252c-2.23584,-3.01964 3.81922,-2.14235 6.93968,-5.05121c2.62493,-1.30651 3.76966,-4.03777 6.60955,-0.70983c3.23288,3.78847 8.94572,15.89063 11.77798,20.70054z" fill="#5671c0" stroke="none" stroke-width="0"/></g><g data-paper-data="{&quot;index&quot;:null}"><g><g><path d="M211.55813,275.1185c0,0 -1.70824,-18.24979 -1.71698,-26.50581c-0.00872,-8.2246 1.50514,-20.14718 1.50514,-20.14718l63.5024,-7.74509c0,0 4.80981,12.51315 5.96538,18.94246c2.14419,11.92954 3.13345,26.92426 3.13345,26.92426l-33.20134,4.20106l-1.13908,-5.46254l-3.95981,-0.04882l0.94967,5.71028z" fill="#465b9c" stroke="#2e3c67" stroke-width="4" stroke-linecap="butt"/><path d="M251.35455,241.12908c0,0 1.98086,14.01532 2.07786,18.15892c0.05236,2.23681 -1.54185,4.73663 -1.54185,4.73663" fill="none" stroke="#2e3c67" stroke-width="4" stroke-linecap="round"/><path d="M241.74837,249.23354l-0.86966,-6.75596l10.47583,-1.3485" fill="none" stroke="#2e3c67" stroke-width="4" stroke-linecap="round"/><path d="M220.89819,241.22575c0,0 -1.6087,9.35318 -2.55241,12.79878c-0.70386,2.56986 -2.6044,6.02913 -2.6044,6.02913" fill="none" stroke="#2e3c67" stroke-width="4" stroke-linecap="round"/><path d="M278.61642,254.10629c0,0 -2.71465,-2.86518 -4.04639,-5.17301c-1.78556,-3.09428 -5.71053,-11.73512 -5.71053,-11.73512" data-paper-data="{&quot;index&quot;:null}" fill="none" stroke="#2e3c67" stroke-width="4" stroke-linecap="round"/><path d="M213.65028,277.78288l-0.5148,-10.644l28.43458,-3.38462l0.18537,10.6864z" fill="#465b9c" stroke="none" stroke-width="0" stroke-linecap="butt"/><path d="M253.26512,273.49564l-0.77359,-10.61069l27.44735,-3.80873l1.32582,10.71845z" data-paper-data="{&quot;index&quot;:null}" fill="#465b9c" stroke="none" stroke-width="0" stroke-linecap="butt"/></g><g stroke="#281a0d" stroke-width="4" stroke-linecap="butt"><path d="M208.4061,235.28263c0,0 -0.76444,-3.93177 -0.69301,-5.62076c0.07719,-1.82513 1.64428,-4.15968 1.64428,-4.15968l9.63992,-1.59859c0,0 3.64868,3.36967 3.86005,5.01175c0.21137,1.64206 -2.5918,4.84069 -2.5918,4.84069z" fill="#3f2b1a"/><path d="M219.58362,234.7023l0.47445,-10.36292l10.0896,-1.22723c0,0 3.64868,3.36967 3.86005,5.01175c0.21137,1.64206 -2.5918,4.84069 -2.5918,4.84069z" fill="#67472a"/><path d="M231.66792,233.36137l0.30394,-10.12635l10.26007,-1.46381c0,0 3.64868,3.36968 3.86005,5.01175c0.21137,1.64206 -2.5918,4.84068 -2.5918,4.84068z" fill="#3f2b1a"/><path d="M244.65752,232.19463l-1.10843,-10.66974l11.11305,-1.47261c0,0 3.79754,3.17602 4.08467,4.80631c0.28713,1.63027 -2.36191,4.97537 -2.36191,4.97537z" fill="#67472a"/><path d="M256.65483,230.21732l-0.4611,-10.32383l10.46573,-1.81852c0,0 3.79754,3.17602 4.08467,4.8063c0.28713,1.63027 -2.36191,4.97537 -2.36191,4.97537z" fill="#3f2b1a"/><path d="M268.6902,228.45716l-0.70099,-10.07833l8.27246,-1.75081c0,0 3.08475,3.26778 3.35562,4.90015c0.27088,1.63236 -1.73037,4.89408 -1.73037,4.89408z" fill="#67472a"/></g><path d="M213.66196,236.1821l-0.47515,-12.81388l5.71186,-0.88489l2.25408,12.58489z" fill="#465b9c" stroke="#2e3c67" stroke-width="4" stroke-linecap="butt"/><g fill="#67472a" stroke="#281a0d" stroke-width="4" stroke-linecap="butt"><path d="M268.05763,227.39384l4.30598,-9.27408l9.93811,2.99364c0,0 1.85707,4.45694 1.36363,6.01548c-0.49344,1.55854 -4.32429,3.33574 -4.32429,3.33574z"/></g><path d="M236.79217,235.70647c0,0 -1.82237,-4.79141 -2.13713,-7.23666c-0.31024,-2.41007 0.26193,-7.33086 0.26193,-7.33086l17.39385,-2.23902c0,0 2.31099,5.46543 2.64115,8.03027c0.28957,2.24952 -0.76595,6.53726 -0.76595,6.53726z" fill="none" stroke="#716b65" stroke-width="4" stroke-linecap="butt"/><path d="M267.23535,229.35088l-1.00656,-12.74547l5.74975,-0.5905l2.78549,12.51648z" data-paper-data="{&quot;index&quot;:null}" fill="#465b9c" stroke="#2e3c67" stroke-width="4" stroke-linecap="butt"/></g><path d="M235.74853,275.16706c0.38774,3.01218 -12.96518,2.56321 -17.92302,3.2014c-2.65183,0.34136 -1.8633,-11.37166 -1.25792,-14.32505c0.71996,-3.51247 5.95866,-7.56338 10.91649,-8.20158c4.95782,-0.63819 7.87671,16.31306 8.26445,19.32524z" fill="#5671c0" stroke="none" stroke-width="0" stroke-linecap="butt"/><path d="M258.46898,273.74703c-0.38774,-3.01218 -1.85696,-20.15004 3.10086,-20.78823c4.95782,-0.63819 11.05165,1.95395 12.63769,5.16959c1.33359,2.7038 5.06277,13.83527 2.41095,14.17663c-4.95782,0.63819 -17.76174,4.4542 -18.14948,1.44203z" data-paper-data="{&quot;index&quot;:null}" fill="#5671c0" stroke="none" stroke-width="0" stroke-linecap="butt"/></g><g data-paper-data="{&quot;index&quot;:null}" stroke="none" stroke-width="0" stroke-linecap="butt"><path d="M276.73743,90.06039c-0.47863,7.33204 -6.22058,12.92635 -12.82502,12.49523c-6.60442,-0.43113 -11.57038,-6.72443 -11.09176,-14.05646c0.47863,-7.33204 6.22059,-12.92633 12.82502,-12.49521c6.60444,0.43113 11.57038,6.72443 11.09176,14.05646z" fill="#d3f0f1"/><path d="M264.40999,76.94101c5.48167,0.35784 9.57004,6.09263 9.13161,12.809c-0.43844,6.71636 -5.23765,11.87098 -10.71932,11.51315c-5.48167,-0.35784 -9.57003,-6.09261 -9.1316,-12.80899c0.43844,-6.71636 5.23764,-11.87099 10.71931,-11.51316z" fill="#ffffff"/></g><g data-paper-data="{&quot;index&quot;:null}" stroke="none" stroke-width="0" stroke-linecap="butt"><g data-paper-data="{&quot;index&quot;:null}"><path d="M276.36418,91.62257c-0.37495,5.74385 -3.97977,10.18467 -8.05158,9.91887c-4.07181,-0.2658 -7.06869,-5.13757 -6.69374,-10.88142c0.37495,-5.74384 3.97974,-10.18467 8.05156,-9.91887c4.07181,0.2658 7.06871,5.13759 6.69376,10.88142z" fill="#41563d"/><path d="M268.16524,98.09802c-3.7645,-0.24574 -6.11594,-5.47149 -5.90887,-8.64347c0.20706,-3.17198 1.96003,-8.75765 7.95024,-8.36662c3.7645,0.24574 6.44573,6.12088 6.23866,9.29285c-0.20706,3.17197 -4.51552,7.96298 -8.28002,7.71724z" fill="#5f7d59"/></g><path d="M263.10849,87.26628c0.15745,-2.41201 2.2404,-4.23968 4.65241,-4.08223c2.41201,0.15745 4.23968,2.24041 4.08223,4.65242c-0.15745,2.41202 -2.24041,4.23968 -4.65242,4.08223c-2.41201,-0.15745 -4.23967,-2.2404 -4.08222,-4.65242z" fill="#8ebb85"/><path d="M266.54027,91.87623c0.0871,-1.3343 1.23938,-2.34536 2.57368,-2.25826c1.3343,0.0871 2.34536,1.23938 2.25826,2.57368c-0.0871,1.3343 -1.23938,2.34537 -2.57368,2.25827c-1.3343,-0.0871 -2.34536,-1.23939 -2.25826,-2.57369z" fill="#8ebb85"/></g><g data-paper-data="{&quot;index&quot;:null}" stroke="none" stroke-width="0" stroke-linecap="butt"><path d="M226.16881,72.57366c6.60442,0.43113 11.57038,6.72443 11.09176,14.05648c-0.47863,7.33204 -6.22058,12.92634 -12.82502,12.49521c-6.60442,-0.43113 -11.57039,-6.72442 -11.09176,-14.05646c0.47863,-7.33204 6.22059,-12.92633 12.82502,-12.49521z" fill="#d3f0f1"/><path d="M236.40375,86.47242c-0.43844,6.71638 -5.23764,11.87098 -10.71931,11.51315c-5.48167,-0.35784 -9.57004,-6.09262 -9.13161,-12.80899c0.43844,-6.71636 5.23765,-11.87099 10.71932,-11.51316c5.48167,0.35784 9.57003,6.09262 9.1316,12.809z" fill="#ffffff"/></g><g data-paper-data="{&quot;index&quot;:null}" stroke="none" stroke-width="0" stroke-linecap="butt"><g data-paper-data="{&quot;index&quot;:null}"><path d="M233.49879,77.59015c4.07181,0.2658 7.06869,5.13759 6.69374,10.88142c-0.37495,5.74385 -3.97974,10.18467 -8.05156,9.91887c-4.07181,-0.2658 -7.06871,-5.13757 -6.69376,-10.88142c0.37495,-5.74384 3.97975,-10.18467 8.05158,-9.91887z" fill="#41563d"/><path d="M225.52828,86.26722c0.20706,-3.17198 3.6293,-8.64869 7.3938,-8.40294c5.99021,0.39103 7.00215,6.1572 6.79509,9.32918c-0.20706,3.17197 -3.21791,8.04769 -6.98241,7.80195c-3.7645,-0.24574 -7.41354,-5.5562 -7.20648,-8.72818z" fill="#5f7d59"/></g><path d="M234.50434,88.99521c-2.41201,-0.15745 -4.23968,-2.24041 -4.08223,-4.65242c0.15745,-2.41201 2.24041,-4.23969 4.65242,-4.08224c2.41201,0.15745 4.23967,2.24041 4.08222,4.65243c-0.15745,2.41201 -2.2404,4.23968 -4.65241,4.08223z" fill="#8ebb85"/><path d="M232.5811,91.29592c-1.3343,-0.0871 -2.34536,-1.23938 -2.25826,-2.57368c0.0871,-1.3343 1.23938,-2.34537 2.57368,-2.25827c1.3343,0.0871 2.34536,1.23939 2.25826,2.57369c-0.0871,1.3343 -1.23938,2.34536 -2.57368,2.25826z" fill="#8ebb85"/></g><g data-paper-data="{&quot;index&quot;:null}" stroke-linecap="butt"><g data-paper-data="{&quot;index&quot;:null}" fill="#403328"><g><path d="M280.5921,238.79765c-5.65796,1.42139 -22.79379,-5.22576 -22.79379,-5.22576c0,0 -6.30075,-50.63081 -9.4656,-68.551c-2.93256,-16.60489 -3.77407,-25.51975 -3.77407,-25.51975c0,0 6.96551,-5.10221 8.45053,-10.31207c0.90321,-3.1687 -0.3115,-5.30334 1.20499,-5.83567c3.58578,-1.25871 5.51566,0.59326 11.70501,2.9353c6.18933,2.34204 13.37569,7.77823 15.07171,10.06401c1.69602,2.28577 -5.52596,2.80103 -5.52596,2.80103c0,0 -5.57894,4.18636 -9.35932,6.65146c-2.93663,1.91492 0.70741,25.73559 0.70741,25.73559l1.82273,14.49239l14.96484,40.72975c0,0 0.83204,11.06994 -3.00848,12.03476z" stroke="#292018" stroke-width="4"/><path d="M277.23067,135.79623c0,0 2.29957,2.27526 2.86342,3.22822c0.5324,0.89981 0.86807,2.92683 0.86807,2.92683c0,0 -11.44901,8.54293 -13.45268,9.50895c-0.66306,0.31968 -4.59757,0.52897 -5.5061,-2.57931c-0.90854,-3.10827 1.04941,-6.48432 1.04941,-6.48432z" stroke="none" stroke-width="NaN"/></g><path d="M253.51956,130.91672c-1.91103,2.34684 -6.01106,5.6093 -6.01106,5.6093l-0.21283,-10.43541l8.9098,-7.7303l1.11817,4.04908c0,0 -1.81375,6.06307 -3.80408,8.50733z" stroke="#292018" stroke-width="4"/></g><path d="M254.80536,152.07903c0.25002,1.9423 -0.19459,3.60018 -0.99307,3.70296c-0.79847,0.10278 -1.64845,-1.38844 -1.89848,-3.33075c-0.25002,-1.9423 0.19459,-3.60018 0.99307,-3.70296c0.79847,-0.10278 1.64845,1.38843 1.89848,3.33075z" fill="#dfbd28" stroke="#dfbd28" stroke-width="4"/><path d="M257.86293,173.83376c0.25002,1.94229 -0.19459,3.60018 -0.99307,3.70296c-0.79847,0.10278 -1.64845,-1.38844 -1.89848,-3.33075c-0.25002,-1.94229 0.19459,-3.60018 0.99307,-3.70296c0.79847,-0.10278 1.64845,1.38844 1.89848,3.33075z" fill="#dfbd28" stroke="#dfbd28" stroke-width="4"/><path d="M261.17957,195.03198c0.25002,1.94229 -0.19459,3.60018 -0.99307,3.70296c-0.79847,0.10278 -1.64845,-1.38844 -1.89848,-3.33075c-0.25002,-1.94229 0.19459,-3.60018 0.99307,-3.70296c0.79847,-0.10278 1.64845,1.38844 1.89848,3.33075z" fill="#dfbd28" stroke="#dfbd28" stroke-width="4"/><path d="M264.30547,215.03395c0.25002,1.94229 -0.19459,3.60018 -0.99307,3.70296c-0.79847,0.10278 -1.64845,-1.38844 -1.89848,-3.33075c-0.25002,-1.94229 0.19459,-3.60018 0.99307,-3.70296c0.79847,-0.10278 1.64845,1.38844 1.89848,3.33075z" fill="#dfbd28" stroke="#dfbd28" stroke-width="4"/></g><g data-paper-data="{&quot;index&quot;:null}" stroke="#292018" stroke-width="4"><path d="M202.71187,235.74707l3.28608,-40.47478l-1.96874,-16.91514c0,0 1.31121,-24.21436 -2.89269,-25.21012c-5.41176,-1.28184 -13.55658,-3.70162 -13.55658,-3.70162c0,0 -9.12749,1.58933 -7.67895,-1.10123c1.44854,-2.69056 8.81315,-9.99982 15.83173,-14.04203c7.01856,-4.04222 8.88309,-6.38262 13.70457,-6.20614c2.03911,0.07465 1.1453,2.48069 3.18322,5.2708c3.35066,4.58738 13.4838,7.48858 13.4838,7.48858c0,0 1.52805,8.82648 2.677,25.66097c1.23995,18.16797 8.02678,68.73622 8.02678,68.73622c0,0 -12.0352,11.13465 -19.47986,11.39988c-5.05331,0.18003 -14.61634,-10.9054 -14.61634,-10.9054z" fill="#403328" stroke-linecap="butt"/><path d="M210.98868,129.30581l-1.03214,-5.76924l15.82727,6.01096l2.74872,10.10898c0,0 -6.03942,-1.95727 -9.09295,-3.66505c-3.18028,-1.77867 -8.4509,-6.68567 -8.4509,-6.68567z" fill="#403328" stroke-linecap="butt"/><path d="M221.69049,161.14923l-0.42994,-9.18767" fill="none" stroke-linecap="round"/><path d="M223.60611,181.58604l-1.1347,-7.35298" fill="none" stroke-linecap="round"/><path d="M226.12332,203.4801l-0.80863,-7.74374" fill="none" stroke-linecap="round"/><path d="M228.10622,225.0244l-0.91904,-8.6015" fill="none" stroke-linecap="round"/></g><path d="M204.68514,88.6676c0.73552,5.56277 1.86047,8.69185 0.35031,9.54203c-1.51016,0.85018 -7.42807,-3.39938 -8.1636,-8.96215c-0.73552,-5.56277 3.68813,-9.96604 5.42115,-9.9742c3.15434,-0.01484 1.65662,3.83153 2.39214,9.39431z" data-paper-data="{&quot;index&quot;:null}" fill="#d9bb9a" stroke="#917c67" stroke-width="4" stroke-linecap="butt"/><g data-paper-data="{&quot;index&quot;:null}"><g><path d="M200.35278,79.54256c-0.42846,2.69961 -5.19993,4.41845 -5.19993,4.41845c0,0 -2.97562,1.20657 -4.0291,-1.52976c-0.85798,-2.22857 -4.6286,-5.97088 -4.6286,-5.97088c0,0 1.77143,-2.60314 3.99244,-5.53728c0.57395,-0.75824 -3.22282,-3.23758 -4.18277,-4.88786c-0.95995,-1.65027 -2.42977,-9.67815 -2.42977,-9.67815c0,0 7.08893,-2.14329 8.98264,-6.5763c0.93964,-2.1996 1.1635,-5.83461 1.83441,-7.22583c3.82253,-7.92653 2.04998,-9.83359 6.54843,-13.81921c0.47011,-0.41652 8.73601,-5.39781 9.15659,-5.77397c7.32553,-6.55171 8.585,-6.84233 19.14703,-7.2684c11.16844,-0.45053 19.58239,-3.67705 26.02036,0.03071c4.20384,2.42109 14.71098,8.35016 22.04947,11.32606c6.68388,8.01549 9.31813,13.05807 9.51776,22.70983c0.06404,3.09619 -2.59335,5.10412 -1.49852,8.39188c0.49664,1.49139 7.34658,12.98753 7.34658,12.98753c0,0 -1.78552,3.6228 -4.02864,4.94481c-2.22241,1.30981 -4.5398,0.76386 -5.1306,1.88124c-1.28883,2.4375 -0.35396,5.06355 -0.84327,6.88823c-0.35598,1.32747 -0.96467,2.01365 -1.94011,3.21633c-1.64654,2.03011 -1.49628,-1.25481 -1.27388,-3.41562c0.41573,-4.03909 -0.37681,-6.97865 -0.40952,-6.32928c-1.61454,0.70493 -0.33209,0.7517 -7.12763,-0.86121c-0.37799,-0.08971 -1.52302,-2.99657 -2.94059,-4.27148c-1.41757,-1.2749 -2.38477,-5.61622 -2.38477,-5.61622c0,0 -10.66738,4.27027 -15.20475,4.39563c-6.54615,0.18086 -14.1816,1.98176 -17.87716,1.3723c-9.03369,-1.48983 -13.02483,-2.80333 -16.62212,-3.11229c-3.34822,-0.28757 -9.43999,2.73517 -11.4961,1.66674c0,0 -4.78546,4.1003 -5.34789,7.64401z" fill="#252931" stroke="#14161a" stroke-width="4" stroke-linecap="butt"/><path d="M266.98049,59.33349c-24.1144,8.44351 -46.32432,3.41902 -65.33346,4.1702c-3.93519,0.1555 -5.02423,-3.11011 -5.02423,-3.11011c0,0 6.96158,-6.97587 7.60869,-16.88879c0.31144,-4.77095 6.8577,-14.46333 15.57914,-19.34647c7.24956,-4.05902 21.73782,-4.00375 28.9101,-5.0793c4.64495,-0.69656 4.26024,2.96979 8.41014,3.24069c11.77983,0.76897 10.30916,7.94602 13.68979,15.68489c2.46057,5.63272 -0.39396,20.12222 -3.84018,21.32891z" fill="#494c5e" stroke="none" stroke-width="0" stroke-linecap="butt"/><path d="M258.81161,30.88485c0.08779,-1.3448 -5.60359,1.37235 -6.10858,-0.44786c-0.37064,-1.33591 2.10146,-3.2205 2.80551,-5.15765c0.20261,-0.55748 -0.49553,-2.78428 -2.5276,-4.15091c-1.6913,-1.13745 -4.7806,-1.44776 -4.65435,-1.84556c0.51286,-1.61603 9.11383,0.31324 10.0447,0.37401c3.69535,0.24123 16.43994,11.21663 16.19106,15.0293c-0.0151,0.2313 3.64724,19.75558 -2.78508,27.50332c-0.92885,1.1188 -8.37216,0.64404 -8.65752,-1.4498c-0.08971,-0.65829 -4.40363,-2.02394 -3.19199,-4.06354c1.65071,-2.77867 10.15502,-5.01994 9.91613,-5.80484c-0.68214,-2.24127 -13.68318,3.7337 -14.65914,0.47565c-0.97595,-3.25805 13.63481,-10.63456 11.67604,-13.11818c-3.16164,1.02516 -11.13272,5.84476 -12.12504,4.4425c-3.00706,-4.24935 3.82695,-7.97378 4.07583,-11.78643z" fill="#252931" stroke="none" stroke-width="0" stroke-linecap="butt"/><path d="M212.86374,60.56891c-0.70612,1.14786 1.81847,0.19665 3.64429,0.80335c1.82581,0.6067 8.04891,1.61523 6.52113,2.99875c-0.80562,0.72955 -10.79133,-0.85802 -11.44631,-0.21369c-1.20868,1.189 -3.86615,2.12723 -4.6607,1.63847c-1.91212,-1.17623 -10.84138,1.41395 -11.98853,-3.80915c-0.74519,-3.39286 5.40598,-9.26606 6.19431,-10.54757c0.12145,-0.19742 2.54055,-18.32964 11.84812,-22.17299c1.34404,-0.55499 9.79013,-2.49323 9.06382,-0.50877c-0.22835,0.6239 -5.63603,6.76302 -7.66042,7.9999c-2.75796,1.68507 -5.30973,3.11173 -5.46537,3.91728c-0.44442,2.30025 13.87035,0.16009 13.29369,2.22207c-0.91601,3.27542 -16.18965,5.90819 -15.27977,7.34281c1.03746,1.63576 8.09664,-0.64659 15.2223,-1.67855c5.51865,-0.79924 11.65002,-0.4696 11.43486,0.61684c-0.19975,1.00861 -1.83543,3.56618 -3.71164,4.36012c-5.45881,2.30998 -15.51994,4.60923 -17.00979,7.03115z" fill="#252931" stroke="none" stroke-width="0" stroke-linecap="butt"/><path d="M274.69999,61.65846c0,0 -5.81174,5.64695 -6.79113,5.98904c-1.95847,0.68408 -5.94025,1.30749 -5.94025,1.30749" fill="none" stroke="#14161a" stroke-width="4" stroke-linecap="round"/><path d="M233.29477,31.45672c-0.3805,-3.1513 2.79703,-5.83708 6.59027,-6.29508c3.79322,-0.45801 9.28254,-1.12364 9.66304,2.02765c0.3805,3.1513 -5.03209,7.39772 -8.82532,7.85572c-3.79322,0.458 -7.04749,-0.437 -7.428,-3.58828z" fill="#686c85" stroke="none" stroke-width="0" stroke-linecap="butt"/><path d="M219.71619,36.32327c-0.21969,-1.81948 2.666,-3.63805 4.85612,-3.9025c2.19012,-0.26444 4.38381,0.58521 4.60349,2.4047c0.21969,1.81948 -1.76089,2.84387 -3.95101,3.10831c-2.19012,0.26444 -5.28893,0.20898 -5.5086,-1.6105z" fill="#686c85" stroke="none" stroke-width="0" stroke-linecap="butt"/><path d="M245.32151,39.16842c-0.4922,-1.76535 0.72976,-2.38595 2.85474,-2.97842c2.12498,-0.59248 3.63846,-1.72554 4.13067,0.03983c0.4922,1.76535 -1.31074,3.07737 -3.43572,3.66984c-2.12498,0.59248 -3.05746,1.03411 -3.54967,-0.73125z" fill="#686c85" stroke="none" stroke-width="0" stroke-linecap="butt"/></g><path d="M283.07678,70.92086c-1.58482,0.225 -0.07261,3.46035 -1.14749,3.39018c-1.13131,-0.07385 -2.85114,-2.23045 -4.06535,-3.82625c-1.55579,-2.04475 -2.27085,-3.23038 -2.19342,-4.4164c0.08414,-1.28889 0.27462,-0.29656 1.73666,-0.52512c0.93326,-0.1459 2.4353,-4.59421 3.44086,-4.52857c0.95801,0.06254 0.63142,2.20558 1.84954,4.18332c0.19374,0.31456 1.60713,-6.02086 2.49936,-3.61784c0.49499,1.33316 3.92462,4.72714 4.79185,8.65725c0.86723,3.93011 -3.65273,-2.17759 -4.85271,-1.37804c-1.19998,0.79954 1.68734,2.37087 1.61884,3.42017c0,0 -1.45761,-1.67395 -3.67814,-1.3587z" fill="#494c5e" stroke="none" stroke-width="0" stroke-linecap="butt"/><path d="M278.04103,41.16181c0.40718,1.01914 -1.10226,2.55518 -4.81476,4.03849c-3.71251,1.48332 -5.06927,1.98907 -5.47647,0.96994c-0.40719,-1.01912 1.42249,-3.10322 5.13501,-4.58654c3.71251,-1.48332 4.74901,-1.44103 5.15621,-0.42191z" fill="#494c5e" stroke="none" stroke-width="0" stroke-linecap="butt"/></g><path d="M269.1686,80.72824c-5.48987,0.25093 -12.46036,1.33408 -12.66745,-1.66135c-0.20709,-2.99541 11.61871,-5.11841 17.10858,-5.36934c5.48986,-0.25092 8.20765,1.63406 8.41474,4.62947c0.20709,2.99541 -7.36599,2.15029 -12.85586,2.40121z" data-paper-data="{&quot;index&quot;:null}" fill="#424956" stroke="#14161a" stroke-width="4" stroke-linecap="butt"/><path d="M214.03083,73.43967c0.59474,-2.94307 3.53452,-4.45873 8.94517,-3.49623c5.41065,0.9625 16.8601,4.60487 16.26535,7.54794c-0.59474,2.94307 -7.36529,0.96292 -12.77594,0.00044c-5.41065,-0.9625 -13.02933,-1.10907 -12.43458,-4.05213z" data-paper-data="{&quot;index&quot;:null}" fill="#424956" stroke="#14161a" stroke-width="4" stroke-linecap="butt"/><g data-paper-data="{&quot;index&quot;:null}" stroke-linecap="butt"><g><g><g><path d="M234.16096,192.76455c-6.16618,-5.51497 -7.03136,-7.87438 -8.99203,-9.1987c-8.31488,-5.61629 -27.93235,-21.73342 -27.93235,-21.73342c0,0 2.24288,-11.23809 4.7177,-12.92541c3.47808,-2.3713 8.14832,0.48066 8.14832,0.48066c0,0 8.54758,4.16678 26.54416,20.12708c0.58308,0.51709 5.76917,4.46046 6.19271,5.73822c2.38177,7.1856 -3.77176,21.90014 -8.67853,17.51158z" fill="#d9bb9a" stroke="#917c67" stroke-width="4"/><path d="M235.07931,190.65348c-0.64912,-0.78034 1.44253,-17.46539 1.51061,-17.57294c0.40871,-0.64566 2.58432,1.46796 4.90926,2.93968c2.32495,1.47172 4.89639,2.61497 4.48769,3.26063c-0.40872,0.64567 -3.83722,17.34743 -6.16217,15.87573c-1.93766,-1.22656 -3.03107,-2.44218 -4.74539,-4.50308z" fill="#d9bb9a" stroke="none" stroke-width="0"/><path d="M209.60028,151.59774c3.07368,2.58986 8.05812,9.81417 11.43458,14.0896c1.52858,1.93557 10.45032,7.29519 17.04342,11.53388c0.57388,0.36895 7.30831,3.91487 7.46673,4.22731c0.17437,0.3439 0.35736,17.72567 -6.19241,10.89784c-3.84844,-4.01181 -8.46611,-8.56226 -12.35506,-11.64085c-5.77279,-4.56987 -7.76287,-5.06451 -15.75296,-11.79688c-7.99008,-6.73238 -14.03013,-12.74677 -12.41738,-14.61865c1.61276,-1.87187 2.78297,-9.42464 10.77305,-2.69227z" fill="#ffdbb5" stroke="none" stroke-width="0"/></g><path d="M235.86487,195.79152c0,0 -28.52359,-19.97234 -36.54523,-25.52776c-7.84037,-5.42989 -18.86037,-16.49365 -18.86037,-16.49365l18.48661,-16.15887c0,0 16.47503,12.15014 22.36937,17.03301c5.92484,4.90812 20.79967,18.33615 20.79967,18.33615c0,0 -0.95005,7.9677 -1.72942,11.34645c-0.89488,3.87951 -4.52065,11.46468 -4.52065,11.46468z" fill="#403328" stroke="#292018" stroke-width="4"/></g><g><path d="M269.22784,216.1204c-6.25155,-3.9573 -9.35694,-10.26556 -6.93608,-14.08989c2.42084,-3.82434 9.45121,-3.71655 15.70275,0.24075c0.81281,0.51452 2.59024,3.31112 4.0843,5.41969c1.01103,1.42684 2.81704,2.01448 3.51927,3.26502c1.01944,1.81543 0.24181,1.68431 0.49411,2.53264c0.64298,2.162 -1.06467,1.43079 -0.88447,3.2439c0.18201,1.83127 0.34748,1.67796 -0.44842,2.93528c-2.42085,3.82434 -9.27993,0.40995 -15.53148,-3.54736z" fill="#917c67" stroke="none" stroke-width="NaN"/><g><path d="M262.78281,219.88489c-3.2716,-0.82258 -9.1677,-10.01998 -14.947,-15.18893c-6.16618,-5.51497 -5.5521,-6.14021 -7.51275,-7.46454c-2.97993,-2.6591 4.8564,-21.76109 7.32189,-20.25084c3.86204,3.42506 18.36717,11.66667 26.73769,18.02081c10.49009,7.96312 2.74016,8.07412 1.85242,9.43959c-0.86487,1.33029 -10.42904,-7.08106 -11.95066,-5.0145c-1.62808,2.21113 -2.06762,4.0253 0.44713,7.9045c2.76499,4.26518 19.28321,13.22029 18.93209,15.46069c-0.66738,4.25845 -10.99568,-0.42136 -20.88081,-2.90677z" fill="#d9bb9a" stroke="#917c67" stroke-width="4"/><path d="M247.56383,183.02038c0.17437,0.3439 1.40781,-0.49618 9.63248,5.59302c2.02637,1.50023 3.85508,2.05528 5.06595,3.49738c2.3856,2.84115 -3.94299,5.70386 -4.40028,7.24776c-1.13452,3.83041 1.36945,7.05837 3.04168,8.9743c3.55872,4.07736 11.34169,8.00467 14.98977,10.60241c4.47432,3.18607 -7.13442,0.38637 -13.12873,-2.5676c-2.2357,-1.10175 -4.20873,-6.18025 -7.56922,-9.80051c-3.36047,-3.62025 -5.10371,-4.48906 -11.65349,-11.3169c-3.84844,-4.01181 2.85216,-14.53678 4.0218,-12.22986z" fill="#ffdbb5" stroke="none" stroke-width="0"/></g><path d="M252.23012,212.25931l-14.71454,-15.10796l7.65329,-21.92286l20.0061,11.38657c0,0 -5.75184,5.47797 -8.11841,12.75087c-2.2243,6.8357 -4.82644,12.89337 -4.82644,12.89337z" fill="#403328" stroke="#292018" stroke-width="4"/><path d="M241.8899,197.65856l-6.94849,-5.23825l4.81693,-18.99463l7.63318,5.8816z" fill="#403328" stroke="none" stroke-width="0"/></g></g><path d="M196.54139,132.61806c0,0 0.41358,0.98949 2.79636,3.20598c2.38279,2.21649 0.99078,6.85302 0.35113,7.42899c-1.93292,1.74047 -15.75601,10.46878 -15.75601,10.46878c0,0 -1.68785,-1.17257 -2.23715,-2.10047c-0.58174,-0.98274 -1.47339,-4.34218 -1.47339,-4.34218z" fill="#403328" stroke="none" stroke-width="NaN"/></g><g stroke="none" stroke-width="0.5" stroke-linecap="butt"><path d="M466.89499,129.0346c0.89504,3.50119 2.36034,6.87647 3.83372,10.24639c3.01383,6.25601 5.85094,12.59444 7.54372,19.24086c1.1158,4.38102 2.63526,6.73898 3.05601,11.41374c0.11304,1.25613 0.355,2.49968 0.43918,3.75808c0.01313,0.19616 -0.28329,0.71467 -0.14962,0.57049c3.31886,-3.58015 12.08687,-8.69841 16.3852,-2.44889c1.22086,1.77507 0.13775,4.31035 0.05027,6.46295c-0.2909,7.15751 -1.66929,14.42782 -2.49225,21.54067c-3.29408,28.47094 -11.55563,55.26141 -27.14163,79.37653c-1.61712,2.50206 -4.29842,8.13669 -6.25599,10.12722c-0.01741,0.01771 -0.03483,0.03536 -0.05229,0.05301l0.01005,0.00723l-4.03662,5.62697c-0.7106,1.03162 -1.95346,1.6464 -3.28456,1.49239c-1.91881,-0.22201 -3.29434,-1.95748 -3.07233,-3.87628c0.02986,-0.25811 0.0871,-0.5064 0.1685,-0.74227l0.99484,-3.07829c0.63283,-5.39906 2.60088,-10.29383 3.21728,-15.67952c1.63954,-5.74855 4.04801,-11.55671 5.54843,-17.23567c0.96483,-3.65179 0.82336,-7.50923 1.25747,-11.26129c1.12553,-9.72806 2.25106,-19.45609 3.37659,-29.18415c0.35703,-3.08581 0.38595,-7.08607 0.87548,-10.47914c-0.32341,0.25617 -0.65761,0.50718 -0.86742,0.8475c-0.7739,1.25528 -1.06508,2.77412 -1.87209,4.00838c-0.83564,1.27803 -1.82526,2.43428 -2.88667,3.53371l-1.98892,3.87738c-0.6299,1.30206 -2.03318,2.1263 -3.55118,1.95066c-1.7886,-0.20694 -3.10515,-1.72894 -3.09578,-3.48863l-0.05129,-5.59289l0.06909,-0.00062l-0.06434,-0.21674c0.51682,-4.52759 1.64146,-9.44563 1.57538,-13.99779c-0.06711,-4.62476 -0.97927,-9.20626 -1.14237,-13.82863c-0.27089,-7.67704 0.44837,-14.91697 -1.61697,-22.42507c-5.97076,-21.9826 -10.0198,-44.43254 -17.39911,-66.05103c-4.93079,-14.44528 -13.03663,-27.27506 -21.64588,-39.75962c0,0 -0.56155,-0.81442 -0.6542,-1.87565c-0.21286,-0.19538 -0.42474,-0.39269 -0.63557,-0.59205l-2.53826,-2.40616c0,0 -2.53826,-2.40616 -0.1321,-4.94442c2.40616,-2.53826 4.94442,-0.1321 4.94442,-0.1321l2.53826,2.40616c7.47456,7.10546 16.31269,11.6127 22.78017,19.9272c1.7976,2.31097 2.36645,5.35941 3.6972,7.96728c2.5399,4.9774 6.31431,9.36958 8.87517,14.36848c3.06351,5.9801 5.9667,13.15212 7.62578,19.75128c3.32966,6.52385 5.88701,13.39525 7.76522,20.7424z" fill="#929c95"/><path d="M374.97514,13.50508c1.91328,-2.92774 4.84105,-1.01444 4.84105,-1.01444l1.30932,0.85565c6.22943,4.07191 11.30739,9.29229 17.47491,13.28844c0,0 2.92775,1.9133 1.01445,4.84105c-1.91328,2.92774 -4.84105,1.01444 -4.84105,1.01444c-6.16947,-4.06159 -11.23487,-9.21151 -17.47491,-13.28844l-1.30932,-0.85565c0,0 -2.92775,-1.9133 -1.01445,-4.84105z" fill="#929c95"/><path d="M512.60378,148.96999c2.92774,1.91328 1.01444,4.84103 1.01444,4.84103l-0.70688,1.05958c-0.59723,1.1045 -1.19447,2.20902 -1.7917,3.31352c0,0 -1.66356,3.07651 -4.74007,1.41298c-3.07651,-1.66356 -1.41298,-4.74007 -1.41298,-4.74007c0.59723,-1.1045 1.19447,-2.20902 1.7917,-3.31352l1.00443,-1.55907c0,0 1.91328,-2.92774 4.84103,-1.01444z" fill="#929c95"/><path d="M442.75546,294.66002c-1.38903,0.11445 -2.27015,-0.37023 -2.82756,-0.99471c-1.24917,-0.51525 -1.88272,-1.75385 -1.88272,-1.75385l-1.32204,-2.64389c-2.18052,-6.00773 -4.60951,-11.43496 -5.99612,-17.57953c-0.50169,-2.22323 -1.85617,-4.27063 -1.97207,-6.5468c-0.00321,-0.06317 -0.00611,-0.12635 -0.0087,-0.1895l-0.03052,0.00567l-1.26024,-6.79765c-0.07514,-0.35875 -0.09473,-0.7355 -0.05028,-1.11964c0.22201,-1.91881 1.95748,-3.29434 3.87628,-3.07233c1.28772,0.14899 2.33078,0.97964 2.81046,2.08988l1.60124,3.53583c2.83221,4.91158 4.24327,9.48749 5.37943,14.41957c0.5989,-0.31214 1.29439,-0.45447 2.0158,-0.37101c1.81518,0.21002 3.14419,1.77445 3.09449,3.56724l-0.10795,6.95546l-0.40336,-0.00626c0.12364,1.17045 0.13991,2.34356 0.00082,3.51711l0.28152,3.21155c0,0 0.28719,3.48567 -3.19848,3.77286z" fill="#929c95"/><path d="M462.9219,305.8887c-2.17246,-2.74095 0.56847,-4.9134 0.56847,-4.9134l0.77526,-0.61446c4.19761,-3.32701 8.58179,-6.34173 12.91434,-9.4342c-1.64413,-0.44373 -2.76028,-2.03523 -2.55865,-3.77797c0.07802,-0.67426 0.3429,-1.28144 0.73697,-1.77579l2.45151,-3.18756l0.01069,0.00823l0.0088,-0.03332c1.29632,-1.62322 2.51509,-3.40101 3.74294,-5.19324c-0.054,-0.31878 -0.06435,-0.65046 -0.02531,-0.98778c0.07802,-0.67426 0.3429,-1.28144 0.73697,-1.77579l2.32439,-3.02227c1.07503,-1.95577 2.76556,-3.55503 3.76826,-5.54191c0.13941,-1.20491 0.27881,-2.40982 0.41822,-3.61473c-0.10398,-1.23524 -0.20433,-2.46231 0.4013,-3.4685c0,0 0.15068,-1.30238 0.32158,-2.77945c0.22385,-1.93471 0.48237,-4.16917 0.48237,-4.16917c0.22201,-1.91881 1.95748,-3.29434 3.87628,-3.07233c1.91881,0.22201 3.29434,1.95748 3.07233,3.87628c-0.05889,0.50891 -0.53014,4.58208 -0.65121,5.62839c1.54858,0.5054 2.57998,2.04554 2.38551,3.72639c-0.03415,0.29512 -0.1041,0.5774 -0.205,0.84298l-1.92847,5.41746c3.50021,-3.26859 6.80074,-6.73453 10.21353,-10.10652l2.33953,-3.04194c0.72054,-0.97138 1.92569,-1.54191 3.21343,-1.39292c1.91881,0.22201 3.29434,1.95748 3.07233,3.87628c-0.05156,0.44556 -0.18471,0.86182 -0.38281,1.23558l-2.7678,5.53132c0.11593,0.42066 0.15453,0.87017 0.1013,1.33023c-0.056,0.48399 -0.20828,0.9334 -0.4355,1.33136l-1.75396,3.24375l-0.19278,-0.10424l-0.06348,0.50913c-1.26268,1.3167 -2.64046,2.51387 -4.09302,3.62442c-0.10172,0.15233 -0.20915,0.30337 -0.3217,0.45321l0.25587,0.25819l-4.9456,4.90098c-0.51022,0.51434 -1.17595,0.86727 -1.90942,0.98921c-0.66112,0.60991 -1.2631,1.22341 -1.75532,1.84916c-2.5077,3.188 -4.74123,6.6596 -7.74528,9.38495c-4.03207,3.65801 -8.71756,6.14348 -12.56197,9.96435l-0.40785,0.07645l0.09187,0.14669l-3.79588,2.37747l-0.7376,-1.17768c-1.13339,0.83394 -2.25474,1.68328 -3.35677,2.55674l-0.77526,0.61446c0,0 -2.74095,2.17246 -4.9134,-0.56847z" fill="#929c95"/><path d="M436.74833,206.71726c3.47431,0.40198 3.07233,3.87628 3.07233,3.87628l-0.06903,0.00569c0.21682,2.63555 0.38047,5.27563 0.51282,7.91678c0,0 0.17468,3.49311 -3.31846,3.66779c-3.49311,0.17468 -3.66779,-3.31846 -3.66779,-3.31846c-0.12805,-2.56608 -0.28661,-5.13114 -0.49794,-7.69173l0.09176,-1.38403c0,0 0.40198,-3.47431 3.87628,-3.07233z" fill="#929c95"/><path d="M451.15324,274.53698c0.23262,-1.59774 0.6515,-3.19737 0.83625,-4.7942c0.5342,-4.61713 0.91418,-9.30158 1.6079,-13.8972c0.53739,-3.56008 0.53288,-10.99118 7.96007,-8.88675c2.52641,0.71583 3.28029,4.13686 4.521,6.45113c1.89104,3.52731 3.04758,7.56495 3.66271,11.59344c0.61551,-1.39415 1.17164,-2.78436 1.62982,-4.14457c0.39672,-1.17772 0.01394,-2.5434 0.47355,-3.69801c0.63688,-1.59991 2.04024,-2.80586 2.74156,-4.3786c1.98,-4.44018 2.4586,-8.86089 3.47397,-13.46562c1.75026,-7.93743 5.78096,-18.00324 3.59221,-26.16992c-1.73418,-3.50183 -8.83167,1.48523 -11.96489,0.10412c-2.17741,-0.95981 -3.77001,-3.21392 -4.63208,-5.43184c-0.66923,-1.72179 0.2031,-3.68976 0.37175,-5.52933c0.53805,-5.86935 0.92381,-11.75713 0.68076,-17.67142c-0.58168,-14.15331 -3.81599,-28.21824 -2.1855,-42.35647c0.37285,-3.23303 -0.52996,-6.64286 0.4248,-9.75413c0.04327,-0.14102 0.08839,-0.28128 0.13521,-0.4209l-0.06371,-0.01465l1.40897,-6.13222c0.37523,-1.73839 2.01668,-2.94089 3.82008,-2.73224c1.28772,0.14899 2.33078,0.97964 2.81046,2.08988l1.65617,3.6571c6.26421,13.85502 13.52811,27.23188 17.89914,41.92853c1.39599,4.69371 2.97309,8.2955 5.34064,12.57895c0.69403,1.25564 0.79834,3.16177 2.105,3.75419c0.78205,0.35457 0.60802,-1.80769 1.38581,-2.17152c1.45027,-0.67835 3.19367,-0.36212 4.7465,-0.74905l3.3976,-2.69293c0.70148,-0.55599 1.61503,-0.84436 2.57444,-0.73335c1.91881,0.22201 3.29434,1.95748 3.07233,3.87628l-0.40198,3.47431c-0.4941,4.27055 -0.87401,8.25257 -2.20365,12.39261c-1.08758,3.38635 -3.0592,6.47116 -3.93264,9.91896c-0.49485,1.95336 -0.10055,4.09923 -0.78719,5.9937c-0.52612,1.45157 -1.94819,2.40921 -2.73901,3.73528c-2.50315,4.19728 -4.06498,9.02993 -6.43316,13.2691c-0.65868,1.17906 -1.84861,2.01192 -2.47302,3.20952c-5.37007,10.29947 -10.34067,20.94052 -14.78731,31.67995c0,0 -1.34097,3.2302 -4.57116,1.88922c-0.42684,-0.1772 -0.77389,-0.3874 -1.05473,-0.61877c-0.06657,0.14166 -0.13353,0.28323 -0.20078,0.42467c0.39029,0.34816 0.73777,0.84382 0.99106,1.54107c1.19421,3.28729 -2.09305,4.4815 -2.09305,4.4815l0.05477,-0.1384c-1.1148,2.46067 -2.76387,4.68915 -4.11242,7.04085c-1.51422,2.64059 -1.78384,5.68756 -3.78516,8.08741c-0.03124,0.03748 -0.06261,0.07488 -0.09403,0.11217l0.01706,0.01114l-3.38115,5.17388c-0.69305,1.1107 -1.98422,1.78492 -3.37116,1.62445c-1.38696,-0.16047 -2.49007,-1.11167 -2.91117,-2.35131l-1.49527,-4.11598c-1.11206,-1.9029 -1.93385,-3.99406 -3.06733,-5.87706c-5.15371,-1.37543 -9.56811,-8.32546 -12.57414,-13.1396c-0.78221,-0.76385 -1.43257,-1.59286 -1.66684,-2.6272c-0.03659,-0.0551 -0.07284,-0.10933 -0.10873,-0.16269l-4.28215,-5.40269c-0.55599,-0.70148 -0.84436,-1.61503 -0.73335,-2.57444c0.22201,-1.91881 1.95748,-3.29434 3.87628,-3.07233c0.95941,0.111 1.78298,0.60036 2.33898,1.30184l4.30834,5.43572c1.98493,1.18351 2.9955,3.52023 4.49135,5.28189c1.14258,1.34564 2.41593,2.57431 3.70028,3.79252z" fill="#d1ded5"/><path d="M475.1267,294.95293c0.40198,-3.47431 3.87628,-3.07233 3.87628,-3.07233l2.0833,0.24103c0.6336,-0.33767 1.19635,-0.43028 1.19635,-0.43028c9.58765,-1.51424 16.73422,-6.64091 25.00448,-11.45152l0.22419,-0.02843l-0.02702,-0.06318l5.12912,-2.19253c0.55573,-0.24982 1.18397,-0.35758 1.83319,-0.28247c1.91881,0.22201 3.29434,1.95748 3.07233,3.87628c-0.08048,0.69561 -0.35987,1.31983 -0.77479,1.82241l-4.08382,5.11476l-0.04967,-0.03966c-0.07032,0.11234 -0.1419,0.22399 -0.21481,0.33491c-0.9782,1.48791 -2.77857,2.2277 -4.17247,3.33576c-1.94023,1.54235 -4.18124,2.67874 -6.12166,4.22086c-2.6798,2.12976 -5.8866,6.0675 -9.56874,6.65912c-2.26356,0.36369 -4.86889,0.74809 -6.86749,-0.37509c-1.1128,-0.62537 0.35598,-2.88605 -0.54476,-3.79053c-0.65715,-0.6599 -1.83499,0.3197 -2.75246,0.47954l-4.16917,-0.48237c0,0 -3.47431,-0.40198 -3.07233,-3.87628zM490.25175,296.86643c-0.02272,0.00763 -0.04547,0.01527 -0.06822,0.02288c-0.01019,0.13753 -0.01,0.27081 0.00519,0.3976c0.02337,0.19477 0.0196,-0.10081 0.06301,-0.42049z" fill="#d1ded5"/><path d="M473.00913,111.03445c-3.11378,1.59273 -4.7065,-1.52105 -4.7065,-1.52105l-1.52044,-3.55091c-0.30441,-3.90202 -0.76741,-9.78638 0.79117,-13.46857c0.02553,-0.06036 0.05136,-0.12057 0.07741,-0.18066l-0.03932,-0.00903l1.40897,-6.13222c0.37523,-1.73839 2.01668,-2.94089 3.82008,-2.73224c1.74388,0.20176 3.03901,1.65362 3.09401,3.35705l0.20962,4.19213c0.16395,3.46105 -0.05822,6.94231 -0.44948,10.38508c0,0 -0.24198,2.09143 -1.97312,2.84119c-0.00989,0.40292 -0.00114,0.795 0.03199,1.17286l0.77662,0.93983c0,0 1.59273,3.11378 -1.52105,4.7065z" fill="#d1ded5"/></g><g fill="#ffffff" stroke="none" stroke-width="0" stroke-linecap="butt"><path d="M272.53837,195.32456l52.77325,20.63249l-8.02376,20.52297l-52.77325,-20.63249z"/><path d="M330.73421,191.71317l16.41832,6.41899c0,0 -12.14075,22.408 -16.4576,33.44953c-4.39329,11.23705 -9.67689,33.39661 -9.67689,33.39661l-16.41832,-6.41899c0,0 11.26393,-20.16531 15.54062,-31.1041c4.42946,-11.32957 10.59388,-35.74204 10.59388,-35.74204z"/><path d="M267.46383,189.28468l11.72738,4.58499l-10.77476,27.55941l-11.72738,-4.58499z"/><path d="M333.92632,211.21318l139.556,54.56149l26.31632,31.24471l-40.07133,3.9375l-139.556,-54.56149z"/></g></g></g></svg>