<svg version="1.1" xmlns="http://www.w3.org/2000/svg" xmlns:xlink="http://www.w3.org/1999/xlink" width="578" height="472" viewBox="0,0,578,472"><g transform="translate(42.99998,50.45122)"><g data-paper-data="{&quot;isPaintingLayer&quot;:true}" fill-rule="nonzero" stroke-linecap="butt" stroke-linejoin="miter" stroke-miterlimit="10" stroke-dasharray="" stroke-dashoffset="0" style="mix-blend-mode: normal"><path d="M-42.99998,421.54879v-472l298,10l280,424z" fill="#ebebeb" stroke="none" stroke-width="0"/><g stroke="none"><g><g><g><g><g fill="#dadada" stroke-width="0.5"><path d="M77.81587,354.74726c0,-3.52021 2.8537,-6.37391 6.37391,-6.37391c3.52021,0 6.37391,2.8537 6.37391,6.37391c0,3.5202 -2.8537,6.37392 -6.37391,6.37392c-3.5202,0 -6.37391,-2.85371 -6.37391,-6.37392z"/><path d="M112.37662,355.03056c0,-3.5202 2.8537,-6.37391 6.37391,-6.37391c3.52021,0 6.37391,2.85371 6.37391,6.37391c0,3.52021 -2.8537,6.37391 -6.37391,6.37391c-3.52021,0 -6.37391,-2.8537 -6.37391,-6.37391z"/><path d="M146.37079,354.74726c0,-3.52021 2.8537,-6.37391 6.37391,-6.37391c3.52021,0 6.37391,2.8537 6.37391,6.37391c0,3.5202 -2.8537,6.37392 -6.37391,6.37392c-3.52021,0 -6.37391,-2.85371 -6.37391,-6.37392z"/><path d="M146.6541,388.1749c0,-3.52021 2.8537,-6.37391 6.37391,-6.37391c3.52021,0 6.37392,2.8537 6.37392,6.37391c0,3.5202 -2.85371,6.37391 -6.37392,6.37391c-3.52021,0 -6.37391,-2.8537 -6.37391,-6.37391z"/><path d="M112.09334,389.02475c0,-3.5202 2.8537,-6.37391 6.37391,-6.37391c3.52021,0 6.37391,2.85371 6.37391,6.37391c0,3.52021 -2.85371,6.37391 -6.37391,6.37391c-3.52021,0 -6.37391,-2.8537 -6.37391,-6.37391z"/><path d="M77.81587,388.45817c0,-3.52021 2.8537,-6.37391 6.37391,-6.37391c3.52021,0 6.37391,2.8537 6.37391,6.37391c0,3.5202 -2.8537,6.37392 -6.37391,6.37392c-3.5202,0 -6.37391,-2.85371 -6.37391,-6.37392z"/></g><g fill="none" stroke-width="1" font-family="sans-serif" font-weight="normal" font-size="12" text-anchor="start"/></g><g><g fill="#dadada" stroke-width="0.5"><path d="M-24.73332,355.31384c0,-3.5202 2.85371,-6.37392 6.37391,-6.37392c3.52021,0 6.37391,2.85371 6.37391,6.37392c0,3.52021 -2.85371,6.37391 -6.37391,6.37391c-3.52021,0 -6.37391,-2.8537 -6.37391,-6.37391z"/><path d="M9.82745,355.59713c0,-3.5202 2.85371,-6.37391 6.37391,-6.37391c3.52021,0 6.37391,2.85371 6.37391,6.37391c0,3.52021 -2.85371,6.37392 -6.37391,6.37392c-3.52021,0 -6.37391,-2.85371 -6.37391,-6.37392z"/><path d="M43.82165,355.31384c0,-3.5202 2.85371,-6.37392 6.37391,-6.37392c3.52021,0 6.37391,2.85371 6.37391,6.37392c0,3.52021 -2.85371,6.37391 -6.37391,6.37391c-3.5202,0 -6.37391,-2.8537 -6.37391,-6.37391z"/><path d="M44.10494,388.74147c0,-3.52021 2.85371,-6.37391 6.37391,-6.37391c3.52021,0 6.37391,2.8537 6.37391,6.37391c0,3.5202 -2.85371,6.37392 -6.37391,6.37392c-3.5202,0 -6.37391,-2.85371 -6.37391,-6.37392z"/><path d="M9.54415,389.59133c0,-3.5202 2.85371,-6.37391 6.37391,-6.37391c3.52021,0 6.37391,2.85371 6.37391,6.37391c0,3.52021 -2.85371,6.37391 -6.37391,6.37391c-3.52021,0 -6.37391,-2.8537 -6.37391,-6.37391z"/><path d="M-24.73332,389.02475c0,-3.5202 2.85371,-6.37391 6.37391,-6.37391c3.52021,0 6.37391,2.85371 6.37391,6.37391c0,3.52021 -2.85371,6.37391 -6.37391,6.37391c-3.52021,0 -6.37391,-2.8537 -6.37391,-6.37391z"/></g><g fill="none" stroke-width="1" font-family="sans-serif" font-weight="normal" font-size="12" text-anchor="start"/></g></g><g><g><g fill="#dadada" stroke-width="0.5"><path d="M283.48071,355.03054c0,-3.5202 2.8537,-6.37391 6.37391,-6.37391c3.52021,0 6.37392,2.8537 6.37392,6.37391c0,3.52021 -2.85371,6.37391 -6.37392,6.37391c-3.52021,0 -6.37391,-2.8537 -6.37391,-6.37391z"/><path d="M318.0415,355.31384c0,-3.5202 2.8537,-6.37392 6.37391,-6.37392c3.5202,0 6.37391,2.85371 6.37391,6.37392c0,3.52021 -2.85371,6.37391 -6.37391,6.37391c-3.52021,0 -6.37391,-2.8537 -6.37391,-6.37391z"/><path d="M352.03589,355.03054c0,-3.5202 2.8537,-6.37391 6.37391,-6.37391c3.5202,0 6.37391,2.8537 6.37391,6.37391c0,3.52021 -2.85371,6.37391 -6.37391,6.37391c-3.52021,0 -6.37391,-2.8537 -6.37391,-6.37391z"/><path d="M352.31904,388.45817c0,-3.52021 2.8537,-6.37391 6.37391,-6.37391c3.5202,0 6.37391,2.8537 6.37391,6.37391c0,3.5202 -2.8537,6.37392 -6.37391,6.37392c-3.52021,0 -6.37391,-2.85371 -6.37391,-6.37392z"/><path d="M317.7582,389.30803c0,-3.52021 2.85371,-6.37391 6.37392,-6.37391c3.52021,0 6.37391,2.8537 6.37391,6.37391c0,3.5202 -2.8537,6.37392 -6.37391,6.37392c-3.5202,0 -6.37392,-2.85371 -6.37392,-6.37392z"/><path d="M283.48071,388.74145c0,-3.52021 2.8537,-6.37391 6.37391,-6.37391c3.52021,0 6.37392,2.8537 6.37392,6.37391c0,3.5202 -2.85371,6.37391 -6.37392,6.37391c-3.52021,0 -6.37391,-2.85371 -6.37391,-6.37391z"/></g><g fill="none" stroke-width="1" font-family="sans-serif" font-weight="normal" font-size="12" text-anchor="start"/></g><g><g fill="#dadada" stroke-width="0.5"><path d="M180.93162,355.59711c0,-3.5202 2.85371,-6.37391 6.37392,-6.37391c3.5202,0 6.37391,2.8537 6.37391,6.37391c0,3.52021 -2.8537,6.37392 -6.37391,6.37392c-3.52021,0 -6.37392,-2.85371 -6.37392,-6.37392z"/><path d="M215.49237,355.88041c0,-3.5202 2.8537,-6.37391 6.37391,-6.37391c3.52021,0 6.37391,2.8537 6.37391,6.37391c0,3.52021 -2.8537,6.37391 -6.37391,6.37391c-3.52021,0 -6.37391,-2.8537 -6.37391,-6.37391z"/><path d="M249.48656,355.59711c0,-3.5202 2.85371,-6.37391 6.37392,-6.37391c3.52021,0 6.37391,2.8537 6.37391,6.37391c0,3.52021 -2.8537,6.37392 -6.37391,6.37392c-3.52021,0 -6.37392,-2.85371 -6.37392,-6.37392z"/><path d="M249.76984,389.02475c0,-3.5202 2.8537,-6.37391 6.37391,-6.37391c3.52021,0 6.37391,2.85371 6.37391,6.37391c0,3.52021 -2.8537,6.37391 -6.37391,6.37391c-3.52021,0 -6.37391,-2.8537 -6.37391,-6.37391z"/><path d="M215.20905,389.87461c0,-3.5202 2.8537,-6.37391 6.37391,-6.37391c3.5202,0 6.37391,2.8537 6.37391,6.37391c0,3.52021 -2.8537,6.37391 -6.37391,6.37391c-3.5202,0 -6.37391,-2.8537 -6.37391,-6.37391z"/><path d="M180.93162,389.30803c0,-3.52021 2.85371,-6.37391 6.37392,-6.37391c3.5202,0 6.37391,2.8537 6.37391,6.37391c0,3.5202 -2.8537,6.37392 -6.37391,6.37392c-3.52021,0 -6.37392,-2.85371 -6.37392,-6.37392z"/></g><g fill="none" stroke-width="1" font-family="sans-serif" font-weight="normal" font-size="12" text-anchor="start"/></g></g></g><g fill="#dadada" stroke-width="0.5"><g><g><g><path d="M77.81587,218.77048c0,-3.52021 2.8537,-6.37391 6.37391,-6.37391c3.52021,0 6.37391,2.8537 6.37391,6.37391c0,3.52021 -2.8537,6.37391 -6.37391,6.37391c-3.5202,0 -6.37391,-2.85371 -6.37391,-6.37391z"/><path d="M112.37662,219.05378c0,-3.52021 2.8537,-6.37391 6.37391,-6.37391c3.52021,0 6.37391,2.8537 6.37391,6.37391c0,3.52021 -2.8537,6.37391 -6.37391,6.37391c-3.52021,0 -6.37391,-2.8537 -6.37391,-6.37391z"/><path d="M146.37079,218.77048c0,-3.52021 2.8537,-6.37391 6.37391,-6.37391c3.52021,0 6.37391,2.8537 6.37391,6.37391c0,3.52021 -2.8537,6.37391 -6.37391,6.37391c-3.52021,0 -6.37391,-2.85371 -6.37391,-6.37391z"/><path d="M146.6541,252.19812c0,-3.52021 2.8537,-6.37391 6.37391,-6.37391c3.52021,0 6.37392,2.8537 6.37392,6.37391c0,3.5202 -2.85371,6.37391 -6.37392,6.37391c-3.52021,0 -6.37391,-2.8537 -6.37391,-6.37391z"/><path d="M112.09334,253.04797c0,-3.5202 2.8537,-6.37391 6.37391,-6.37391c3.52021,0 6.37391,2.8537 6.37391,6.37391c0,3.52021 -2.85371,6.37391 -6.37391,6.37391c-3.52021,0 -6.37391,-2.8537 -6.37391,-6.37391z"/><path d="M77.81587,252.4814c0,-3.52021 2.8537,-6.37391 6.37391,-6.37391c3.52021,0 6.37391,2.8537 6.37391,6.37391c0,3.5202 -2.8537,6.37391 -6.37391,6.37391c-3.5202,0 -6.37391,-2.85371 -6.37391,-6.37391z"/></g><g><path d="M78.38241,288.74188c0,-3.5202 2.8537,-6.37392 6.37391,-6.37392c3.52021,0 6.37392,2.85371 6.37392,6.37392c0,3.5202 -2.85371,6.37391 -6.37392,6.37391c-3.5202,0 -6.37391,-2.85371 -6.37391,-6.37391z"/><path d="M112.94321,289.02516c0,-3.5202 2.8537,-6.37391 6.37391,-6.37391c3.52021,0 6.37391,2.8537 6.37391,6.37391c0,3.5202 -2.8537,6.37391 -6.37391,6.37391c-3.52021,0 -6.37391,-2.85371 -6.37391,-6.37391z"/><path d="M146.93739,288.74188c0,-3.5202 2.85371,-6.37392 6.37391,-6.37392c3.5202,0 6.37391,2.85371 6.37391,6.37392c0,3.5202 -2.8537,6.37391 -6.37391,6.37391c-3.52021,0 -6.37391,-2.85371 -6.37391,-6.37391z"/><path d="M147.22064,322.1695c0,-3.52021 2.85371,-6.37391 6.37391,-6.37391c3.5202,0 6.37391,2.8537 6.37391,6.37391c0,3.52021 -2.85371,6.37391 -6.37391,6.37391c-3.52021,0 -6.37391,-2.8537 -6.37391,-6.37391z"/><path d="M112.65991,323.01935c0,-3.5202 2.85371,-6.37391 6.37391,-6.37391c3.52021,0 6.37391,2.8537 6.37391,6.37391c0,3.52021 -2.8537,6.37391 -6.37391,6.37391c-3.52021,0 -6.37391,-2.8537 -6.37391,-6.37391z"/><path d="M78.38241,322.45279c0,-3.5202 2.8537,-6.37392 6.37391,-6.37392c3.52021,0 6.37392,2.85371 6.37392,6.37392c0,3.5202 -2.85371,6.37391 -6.37392,6.37391c-3.5202,0 -6.37391,-2.85371 -6.37391,-6.37391z"/></g></g><g><g><path d="M-24.73332,219.33706c0,-3.52021 2.85371,-6.37391 6.37391,-6.37391c3.52021,0 6.37391,2.85371 6.37391,6.37391c0,3.52021 -2.85371,6.37391 -6.37391,6.37391c-3.52021,0 -6.37391,-2.8537 -6.37391,-6.37391z"/><path d="M9.82745,219.62036c0,-3.52021 2.85371,-6.37391 6.37391,-6.37391c3.52021,0 6.37391,2.8537 6.37391,6.37391c0,3.52021 -2.85371,6.37391 -6.37391,6.37391c-3.52021,0 -6.37391,-2.85371 -6.37391,-6.37391z"/><path d="M43.82165,219.33706c0,-3.52021 2.85371,-6.37391 6.37391,-6.37391c3.52021,0 6.37391,2.85371 6.37391,6.37391c0,3.52021 -2.85371,6.37391 -6.37391,6.37391c-3.5202,0 -6.37391,-2.8537 -6.37391,-6.37391z"/><path d="M44.10494,252.76469c0,-3.5202 2.85371,-6.37391 6.37391,-6.37391c3.52021,0 6.37391,2.8537 6.37391,6.37391c0,3.52021 -2.85371,6.37392 -6.37391,6.37392c-3.5202,0 -6.37391,-2.85371 -6.37391,-6.37392z"/><path d="M9.54415,253.61455c0,-3.52021 2.85371,-6.37391 6.37391,-6.37391c3.52021,0 6.37391,2.8537 6.37391,6.37391c0,3.5202 -2.85371,6.37391 -6.37391,6.37391c-3.52021,0 -6.37391,-2.8537 -6.37391,-6.37391z"/><path d="M-24.73332,253.04797c0,-3.5202 2.85371,-6.37391 6.37391,-6.37391c3.52021,0 6.37391,2.8537 6.37391,6.37391c0,3.52021 -2.85371,6.37391 -6.37391,6.37391c-3.52021,0 -6.37391,-2.8537 -6.37391,-6.37391z"/></g><g><path d="M-24.16674,289.30845c0,-3.5202 2.85371,-6.37391 6.37392,-6.37391c3.52021,0 6.37391,2.85371 6.37391,6.37391c0,3.52021 -2.8537,6.37391 -6.37391,6.37391c-3.52021,0 -6.37392,-2.8537 -6.37392,-6.37391z"/><path d="M10.39401,289.59173c0,-3.5202 2.85371,-6.37391 6.37391,-6.37391c3.52021,0 6.37391,2.85371 6.37391,6.37391c0,3.5202 -2.8537,6.37392 -6.37391,6.37392c-3.52021,0 -6.37391,-2.85371 -6.37391,-6.37392z"/><path d="M44.38822,289.30845c0,-3.5202 2.85371,-6.37391 6.37391,-6.37391c3.52021,0 6.37392,2.85371 6.37392,6.37391c0,3.52021 -2.85371,6.37391 -6.37392,6.37391c-3.5202,0 -6.37391,-2.8537 -6.37391,-6.37391z"/><path d="M44.67153,322.73607c0,-3.5202 2.85371,-6.37391 6.37391,-6.37391c3.52021,0 6.37391,2.8537 6.37391,6.37391c0,3.5202 -2.85371,6.37392 -6.37391,6.37392c-3.5202,0 -6.37391,-2.85371 -6.37391,-6.37392z"/><path d="M10.11074,323.58592c0,-3.5202 2.8537,-6.37391 6.37391,-6.37391c3.52021,0 6.37391,2.85371 6.37391,6.37391c0,3.52021 -2.85371,6.37392 -6.37391,6.37392c-3.52021,0 -6.37391,-2.85371 -6.37391,-6.37392z"/><path d="M-24.16674,323.01937c0,-3.52021 2.85371,-6.37391 6.37392,-6.37391c3.52021,0 6.37391,2.8537 6.37391,6.37391c0,3.52021 -2.8537,6.37391 -6.37391,6.37391c-3.52021,0 -6.37392,-2.8537 -6.37392,-6.37391z"/></g></g></g><g><g><g><path d="M283.48071,219.05376c0,-3.52021 2.8537,-6.37391 6.37391,-6.37391c3.52021,0 6.37392,2.8537 6.37392,6.37391c0,3.52021 -2.85371,6.37391 -6.37392,6.37391c-3.52021,0 -6.37391,-2.8537 -6.37391,-6.37391z"/><path d="M318.0415,219.33706c0,-3.52021 2.8537,-6.37391 6.37391,-6.37391c3.5202,0 6.37391,2.85371 6.37391,6.37391c0,3.52021 -2.85371,6.37391 -6.37391,6.37391c-3.52021,0 -6.37391,-2.8537 -6.37391,-6.37391z"/><path d="M352.03589,219.05376c0,-3.52021 2.8537,-6.37391 6.37391,-6.37391c3.5202,0 6.37391,2.8537 6.37391,6.37391c0,3.52021 -2.85371,6.37391 -6.37391,6.37391c-3.52021,0 -6.37391,-2.8537 -6.37391,-6.37391z"/><path d="M352.31904,252.4814c0,-3.52021 2.8537,-6.37391 6.37391,-6.37391c3.5202,0 6.37391,2.8537 6.37391,6.37391c0,3.5202 -2.8537,6.37391 -6.37391,6.37391c-3.52021,0 -6.37391,-2.85371 -6.37391,-6.37391z"/><path d="M317.7582,253.33125c0,-3.5202 2.85371,-6.37391 6.37392,-6.37391c3.52021,0 6.37391,2.8537 6.37391,6.37391c0,3.52021 -2.8537,6.37392 -6.37391,6.37392c-3.5202,0 -6.37392,-2.85371 -6.37392,-6.37392z"/><path d="M283.48071,252.76468c0,-3.52021 2.8537,-6.37391 6.37391,-6.37391c3.52021,0 6.37392,2.8537 6.37392,6.37391c0,3.5202 -2.85371,6.37391 -6.37392,6.37391c-3.52021,0 -6.37391,-2.8537 -6.37391,-6.37391z"/></g><g><path d="M284.04733,289.02516c0,-3.5202 2.85371,-6.37391 6.37392,-6.37391c3.5202,0 6.37391,2.8537 6.37391,6.37391c0,3.5202 -2.8537,6.37391 -6.37391,6.37391c-3.52021,0 -6.37392,-2.85371 -6.37392,-6.37391z"/><path d="M318.60803,289.30843c0,-3.5202 2.85371,-6.37392 6.37392,-6.37392c3.5202,0 6.37391,2.85371 6.37391,6.37392c0,3.52021 -2.8537,6.37391 -6.37391,6.37391c-3.52021,0 -6.37392,-2.8537 -6.37392,-6.37391z"/><path d="M352.60245,289.02516c0,-3.5202 2.8537,-6.37391 6.37391,-6.37391c3.5202,0 6.37391,2.8537 6.37391,6.37391c0,3.5202 -2.85371,6.37391 -6.37391,6.37391c-3.52021,0 -6.37391,-2.85371 -6.37391,-6.37391z"/><path d="M352.88566,322.45277c0,-3.52021 2.8537,-6.37391 6.37391,-6.37391c3.52021,0 6.37391,2.8537 6.37391,6.37391c0,3.52021 -2.8537,6.37392 -6.37391,6.37392c-3.5202,0 -6.37391,-2.85371 -6.37391,-6.37392z"/><path d="M318.32482,323.30262c0,-3.5202 2.8537,-6.37391 6.37391,-6.37391c3.5202,0 6.37391,2.8537 6.37391,6.37391c0,3.52021 -2.8537,6.37392 -6.37391,6.37392c-3.52021,0 -6.37391,-2.85371 -6.37391,-6.37392z"/><path d="M284.04733,322.73607c0,-3.5202 2.85371,-6.37391 6.37392,-6.37391c3.5202,0 6.37391,2.8537 6.37391,6.37391c0,3.5202 -2.8537,6.37392 -6.37391,6.37392c-3.52021,0 -6.37392,-2.85371 -6.37392,-6.37392z"/></g></g><g><g><path d="M180.93162,219.62034c0,-3.52021 2.85371,-6.37391 6.37392,-6.37391c3.5202,0 6.37391,2.8537 6.37391,6.37391c0,3.52021 -2.8537,6.37391 -6.37391,6.37391c-3.52021,0 -6.37392,-2.85371 -6.37392,-6.37391z"/><path d="M215.49237,219.90363c0,-3.52021 2.8537,-6.37391 6.37391,-6.37391c3.52021,0 6.37391,2.8537 6.37391,6.37391c0,3.52021 -2.8537,6.37391 -6.37391,6.37391c-3.52021,0 -6.37391,-2.8537 -6.37391,-6.37391z"/><path d="M249.48656,219.62034c0,-3.52021 2.85371,-6.37391 6.37392,-6.37391c3.52021,0 6.37391,2.8537 6.37391,6.37391c0,3.52021 -2.8537,6.37391 -6.37391,6.37391c-3.52021,0 -6.37392,-2.85371 -6.37392,-6.37391z"/><path d="M249.76984,253.04797c0,-3.5202 2.8537,-6.37391 6.37391,-6.37391c3.52021,0 6.37391,2.8537 6.37391,6.37391c0,3.52021 -2.8537,6.37391 -6.37391,6.37391c-3.52021,0 -6.37391,-2.8537 -6.37391,-6.37391z"/><path d="M215.20905,253.89783c0,-3.52021 2.8537,-6.37391 6.37391,-6.37391c3.5202,0 6.37391,2.8537 6.37391,6.37391c0,3.5202 -2.8537,6.37391 -6.37391,6.37391c-3.5202,0 -6.37391,-2.85371 -6.37391,-6.37391z"/><path d="M180.93162,253.33125c0,-3.5202 2.85371,-6.37391 6.37392,-6.37391c3.5202,0 6.37391,2.8537 6.37391,6.37391c0,3.52021 -2.8537,6.37392 -6.37391,6.37392c-3.52021,0 -6.37392,-2.85371 -6.37392,-6.37392z"/></g><g><path d="M181.49817,289.59173c0,-3.5202 2.8537,-6.37391 6.37391,-6.37391c3.5202,0 6.37391,2.85371 6.37391,6.37391c0,3.5202 -2.85371,6.37392 -6.37391,6.37392c-3.52021,0 -6.37391,-2.85371 -6.37391,-6.37392z"/><path d="M216.05892,289.87501c0,-3.5202 2.85371,-6.37391 6.37391,-6.37391c3.52021,0 6.37391,2.8537 6.37391,6.37391c0,3.52021 -2.8537,6.37391 -6.37391,6.37391c-3.5202,0 -6.37391,-2.8537 -6.37391,-6.37391z"/><path d="M250.05307,289.59173c0,-3.5202 2.85371,-6.37391 6.37392,-6.37391c3.52021,0 6.37391,2.85371 6.37391,6.37391c0,3.5202 -2.8537,6.37392 -6.37391,6.37392c-3.5202,0 -6.37392,-2.85371 -6.37392,-6.37392z"/><path d="M250.33643,323.01935c0,-3.5202 2.85371,-6.37391 6.37392,-6.37391c3.5202,0 6.37391,2.8537 6.37391,6.37391c0,3.52021 -2.8537,6.37391 -6.37391,6.37391c-3.52021,0 -6.37392,-2.8537 -6.37392,-6.37391z"/><path d="M215.77564,323.8692c0,-3.5202 2.8537,-6.37391 6.37391,-6.37391c3.52021,0 6.37392,2.8537 6.37392,6.37391c0,3.52021 -2.85371,6.37391 -6.37392,6.37391c-3.52021,0 -6.37391,-2.8537 -6.37391,-6.37391z"/><path d="M181.49817,323.30265c0,-3.5202 2.8537,-6.37392 6.37391,-6.37392c3.5202,0 6.37391,2.85371 6.37391,6.37392c0,3.52021 -2.85371,6.37391 -6.37391,6.37391c-3.52021,0 -6.37391,-2.8537 -6.37391,-6.37391z"/></g></g></g></g></g><g><g><g><g fill="#dadada" stroke-width="0.5"><g><path d="M-26.18416,115.74726c0,-3.5202 2.85371,-6.37391 6.37391,-6.37391c3.5202,0 6.37391,2.85371 6.37391,6.37391c0,3.5202 -2.85371,6.37391 -6.37391,6.37391c-3.5202,0 -6.37391,-2.85371 -6.37391,-6.37391z"/><path d="M8.37661,116.03056c0,-3.5202 2.85371,-6.37391 6.37391,-6.37391c3.5202,0 6.37391,2.85371 6.37391,6.37391c0,3.5202 -2.85371,6.37391 -6.37391,6.37391c-3.5202,0 -6.37391,-2.85371 -6.37391,-6.37391z"/><path d="M42.37081,115.74726c0,-3.5202 2.85371,-6.37391 6.37391,-6.37391c3.5202,0 6.37391,2.85371 6.37391,6.37391c0,3.5202 -2.85371,6.37391 -6.37391,6.37391c-3.5202,0 -6.37391,-2.85371 -6.37391,-6.37391z"/><path d="M42.65409,149.17488c0,-3.5202 2.85371,-6.37391 6.37391,-6.37391c3.5202,0 6.37391,2.85371 6.37391,6.37391c0,3.5202 -2.85371,6.37391 -6.37391,6.37391c-3.5202,0 -6.37391,-2.85371 -6.37391,-6.37391z"/><path d="M8.09331,150.02475c0,-3.5202 2.85371,-6.37391 6.37391,-6.37391c3.5202,0 6.37391,2.85371 6.37391,6.37391c0,3.5202 -2.85371,6.37391 -6.37391,6.37391c-3.5202,0 -6.37391,-2.85371 -6.37391,-6.37391z"/><path d="M-26.18416,149.45817c0,-3.5202 2.85371,-6.37391 6.37391,-6.37391c3.5202,0 6.37391,2.85371 6.37391,6.37391c0,3.5202 -2.85371,6.37391 -6.37391,6.37391c-3.5202,0 -6.37391,-2.85371 -6.37391,-6.37391z"/></g><g><path d="M-25.61758,185.71865c0,-3.5202 2.85371,-6.37391 6.37391,-6.37391c3.5202,0 6.37391,2.85371 6.37391,6.37391c0,3.5202 -2.85371,6.37391 -6.37391,6.37391c-3.5202,0 -6.37391,-2.85371 -6.37391,-6.37391z"/><path d="M8.94317,186.00193c0,-3.5202 2.85371,-6.37391 6.37391,-6.37391c3.5202,0 6.37391,2.85371 6.37391,6.37391c0,3.5202 -2.85371,6.37391 -6.37391,6.37391c-3.5202,0 -6.37391,-2.85371 -6.37391,-6.37391z"/><path d="M42.93738,185.71865c0,-3.5202 2.85371,-6.37391 6.37391,-6.37391c3.5202,0 6.37391,2.85371 6.37391,6.37391c0,3.5202 -2.85371,6.37391 -6.37391,6.37391c-3.5202,0 -6.37391,-2.85371 -6.37391,-6.37391z"/><path d="M43.22068,219.14627c0,-3.5202 2.85371,-6.37391 6.37391,-6.37391c3.5202,0 6.37391,2.85371 6.37391,6.37391c0,3.5202 -2.85371,6.37391 -6.37391,6.37391c-3.5202,0 -6.37391,-2.85371 -6.37391,-6.37391z"/><path d="M8.65988,219.99612c0,-3.5202 2.85371,-6.37391 6.37391,-6.37391c3.5202,0 6.37391,2.85371 6.37391,6.37391c0,3.5202 -2.85371,6.37391 -6.37391,6.37391c-3.5202,0 -6.37391,-2.85371 -6.37391,-6.37391z"/><path d="M-25.61758,219.42957c0,-3.5202 2.85371,-6.37391 6.37391,-6.37391c3.5202,0 6.37391,2.85371 6.37391,6.37391c0,3.5202 -2.85371,6.37391 -6.37391,6.37391c-3.5202,0 -6.37391,-2.85371 -6.37391,-6.37391z"/></g></g><g fill="none" stroke-width="1" font-family="sans-serif" font-weight="normal" font-size="12" text-anchor="start"><g/><g/></g></g><g fill="#dadada" stroke-width="0.5"><g><g><path d="M179.48079,116.03053c0,-3.5202 2.85371,-6.37391 6.37391,-6.37391c3.5202,0 6.37391,2.85371 6.37391,6.37391c0,3.5202 -2.85371,6.37391 -6.37391,6.37391c-3.5202,0 -6.37391,-2.85371 -6.37391,-6.37391z"/><path d="M214.04154,116.31383c0,-3.5202 2.85371,-6.37391 6.37391,-6.37391c3.5202,0 6.37391,2.85371 6.37391,6.37391c0,3.5202 -2.85371,6.37391 -6.37391,6.37391c-3.5202,0 -6.37391,-2.85371 -6.37391,-6.37391z"/><path d="M248.03573,116.03053c0,-3.5202 2.85371,-6.37391 6.37391,-6.37391c3.5202,0 6.37391,2.85371 6.37391,6.37391c0,3.5202 -2.85371,6.37391 -6.37391,6.37391c-3.5202,0 -6.37391,-2.85371 -6.37391,-6.37391z"/><path d="M248.31901,149.45817c0,-3.5202 2.85371,-6.37391 6.37391,-6.37391c3.5202,0 6.37391,2.85371 6.37391,6.37391c0,3.5202 -2.85371,6.37391 -6.37391,6.37391c-3.5202,0 -6.37391,-2.85371 -6.37391,-6.37391z"/><path d="M213.75826,150.30802c0,-3.5202 2.85371,-6.37391 6.37391,-6.37391c3.5202,0 6.37391,2.85371 6.37391,6.37391c0,3.5202 -2.85371,6.37391 -6.37391,6.37391c-3.5202,0 -6.37391,-2.85371 -6.37391,-6.37391z"/><path d="M179.48079,149.74145c0,-3.5202 2.85371,-6.37391 6.37391,-6.37391c3.5202,0 6.37391,2.85371 6.37391,6.37391c0,3.5202 -2.85371,6.37391 -6.37391,6.37391c-3.5202,0 -6.37391,-2.85371 -6.37391,-6.37391z"/></g><g><path d="M180.04734,186.00193c0,-3.5202 2.85371,-6.37391 6.37391,-6.37391c3.5202,0 6.37391,2.85371 6.37391,6.37391c0,3.5202 -2.85371,6.37391 -6.37391,6.37391c-3.5202,0 -6.37391,-2.85371 -6.37391,-6.37391z"/><path d="M214.60805,186.28521c0,-3.5202 2.85371,-6.37391 6.37391,-6.37391c3.5202,0 6.37391,2.85371 6.37391,6.37391c0,3.5202 -2.85371,6.37391 -6.37391,6.37391c-3.5202,0 -6.37391,-2.85371 -6.37391,-6.37391z"/><path d="M248.60228,186.00193c0,-3.5202 2.85371,-6.37391 6.37391,-6.37391c3.5202,0 6.37391,2.85371 6.37391,6.37391c0,3.5202 -2.85371,6.37391 -6.37391,6.37391c-3.5202,0 -6.37391,-2.85371 -6.37391,-6.37391z"/><path d="M248.8856,219.42955c0,-3.5202 2.85371,-6.37391 6.37391,-6.37391c3.5202,0 6.37391,2.85371 6.37391,6.37391c0,3.5202 -2.85371,6.37391 -6.37391,6.37391c-3.5202,0 -6.37391,-2.85371 -6.37391,-6.37391z"/><path d="M214.32482,220.2794c0,-3.5202 2.85371,-6.37391 6.37391,-6.37391c3.5202,0 6.37391,2.85371 6.37391,6.37391c0,3.5202 -2.85371,6.37391 -6.37391,6.37391c-3.5202,0 -6.37391,-2.85371 -6.37391,-6.37391z"/><path d="M180.04734,219.71285c0,-3.5202 2.85371,-6.37391 6.37391,-6.37391c3.5202,0 6.37391,2.85371 6.37391,6.37391c0,3.5202 -2.85371,6.37391 -6.37391,6.37391c-3.5202,0 -6.37391,-2.85371 -6.37391,-6.37391z"/></g></g><g><g><path d="M76.93157,116.59711c0,-3.5202 2.85371,-6.37391 6.37391,-6.37391c3.5202,0 6.37391,2.85371 6.37391,6.37391c0,3.5202 -2.85371,6.37391 -6.37391,6.37391c-3.5202,0 -6.37391,-2.85371 -6.37391,-6.37391z"/><path d="M111.49237,116.88041c0,-3.5202 2.85371,-6.37391 6.37391,-6.37391c3.5202,0 6.37391,2.85371 6.37391,6.37391c0,3.5202 -2.85371,6.37391 -6.37391,6.37391c-3.5202,0 -6.37391,-2.85371 -6.37391,-6.37391z"/><path d="M145.48655,116.59711c0,-3.5202 2.85371,-6.37391 6.37391,-6.37391c3.5202,0 6.37391,2.85371 6.37391,6.37391c0,3.5202 -2.85371,6.37391 -6.37391,6.37391c-3.5202,0 -6.37391,-2.85371 -6.37391,-6.37391z"/><path d="M145.76979,150.02475c0,-3.5202 2.85371,-6.37391 6.37391,-6.37391c3.5202,0 6.37391,2.85371 6.37391,6.37391c0,3.5202 -2.85371,6.37391 -6.37391,6.37391c-3.5202,0 -6.37391,-2.85371 -6.37391,-6.37391z"/><path d="M111.20906,150.8746c0,-3.5202 2.85371,-6.37391 6.37391,-6.37391c3.5202,0 6.37391,2.85371 6.37391,6.37391c0,3.5202 -2.85371,6.37391 -6.37391,6.37391c-3.5202,0 -6.37391,-2.85371 -6.37391,-6.37391z"/><path d="M76.93157,150.30802c0,-3.5202 2.85371,-6.37391 6.37391,-6.37391c3.5202,0 6.37391,2.85371 6.37391,6.37391c0,3.5202 -2.85371,6.37391 -6.37391,6.37391c-3.5202,0 -6.37391,-2.85371 -6.37391,-6.37391z"/></g><g><path d="M77.49813,186.56851c0,-3.5202 2.85371,-6.37391 6.37391,-6.37391c3.5202,0 6.37391,2.85371 6.37391,6.37391c0,3.5202 -2.85371,6.37391 -6.37391,6.37391c-3.5202,0 -6.37391,-2.85371 -6.37391,-6.37391z"/><path d="M112.0589,186.85179c0,-3.5202 2.85371,-6.37391 6.37391,-6.37391c3.5202,0 6.37391,2.85371 6.37391,6.37391c0,3.5202 -2.85371,6.37391 -6.37391,6.37391c-3.5202,0 -6.37391,-2.85371 -6.37391,-6.37391z"/><path d="M146.05309,186.56851c0,-3.5202 2.85371,-6.37391 6.37391,-6.37391c3.5202,0 6.37391,2.85371 6.37391,6.37391c0,3.5202 -2.85371,6.37391 -6.37391,6.37391c-3.5202,0 -6.37391,-2.85371 -6.37391,-6.37391z"/><path d="M146.33639,219.99612c0,-3.5202 2.85371,-6.37391 6.37391,-6.37391c3.5202,0 6.37391,2.85371 6.37391,6.37391c0,3.5202 -2.85371,6.37391 -6.37391,6.37391c-3.5202,0 -6.37391,-2.85371 -6.37391,-6.37391z"/><path d="M111.77561,220.84598c0,-3.5202 2.85371,-6.37391 6.37391,-6.37391c3.5202,0 6.37391,2.85371 6.37391,6.37391c0,3.5202 -2.85371,6.37391 -6.37391,6.37391c-3.5202,0 -6.37391,-2.85371 -6.37391,-6.37391z"/><path d="M77.49813,220.27942c0,-3.5202 2.85371,-6.37391 6.37391,-6.37391c3.5202,0 6.37391,2.85371 6.37391,6.37391c0,3.5202 -2.85371,6.37391 -6.37391,6.37391c-3.5202,0 -6.37391,-2.85371 -6.37391,-6.37391z"/></g></g></g></g><g><g><g fill="#dadada" stroke-width="0.5"><g><path d="M-26.18416,-20.22952c0,-3.5202 2.85371,-6.37391 6.37391,-6.37391c3.5202,0 6.37391,2.85371 6.37391,6.37391c0,3.5202 -2.85371,6.37391 -6.37391,6.37391c-3.5202,0 -6.37391,-2.85371 -6.37391,-6.37391z"/><path d="M8.37661,-19.94622c0,-3.5202 2.85371,-6.37391 6.37391,-6.37391c3.5202,0 6.37391,2.85371 6.37391,6.37391c0,3.5202 -2.85371,6.37391 -6.37391,6.37391c-3.5202,0 -6.37391,-2.85371 -6.37391,-6.37391z"/><path d="M42.37081,-20.22952c0,-3.5202 2.85371,-6.37391 6.37391,-6.37391c3.5202,0 6.37391,2.85371 6.37391,6.37391c0,3.5202 -2.85371,6.37391 -6.37391,6.37391c-3.5202,0 -6.37391,-2.85371 -6.37391,-6.37391z"/><path d="M42.65409,13.19812c0,-3.5202 2.85371,-6.37391 6.37391,-6.37391c3.5202,0 6.37391,2.85371 6.37391,6.37391c0,3.5202 -2.85371,6.37391 -6.37391,6.37391c-3.5202,0 -6.37391,-2.85371 -6.37391,-6.37391z"/><path d="M8.09331,14.04797c0,-3.5202 2.85371,-6.37391 6.37391,-6.37391c3.5202,0 6.37391,2.85371 6.37391,6.37391c0,3.5202 -2.85371,6.37391 -6.37391,6.37391c-3.5202,0 -6.37391,-2.85371 -6.37391,-6.37391z"/><path d="M-26.18416,13.4814c0,-3.5202 2.85371,-6.37391 6.37391,-6.37391c3.5202,0 6.37391,2.85371 6.37391,6.37391c0,3.5202 -2.85371,6.37391 -6.37391,6.37391c-3.5202,0 -6.37391,-2.85371 -6.37391,-6.37391z"/></g><g><path d="M-25.61758,49.74188c0,-3.5202 2.85371,-6.37391 6.37391,-6.37391c3.5202,0 6.37391,2.85371 6.37391,6.37391c0,3.5202 -2.85371,6.37391 -6.37391,6.37391c-3.5202,0 -6.37391,-2.85371 -6.37391,-6.37391z"/><path d="M8.94317,50.02516c0,-3.5202 2.85371,-6.37391 6.37391,-6.37391c3.5202,0 6.37391,2.85371 6.37391,6.37391c0,3.5202 -2.85371,6.37391 -6.37391,6.37391c-3.5202,0 -6.37391,-2.85371 -6.37391,-6.37391z"/><path d="M42.93738,49.74188c0,-3.5202 2.85371,-6.37391 6.37391,-6.37391c3.5202,0 6.37391,2.85371 6.37391,6.37391c0,3.5202 -2.85371,6.37391 -6.37391,6.37391c-3.5202,0 -6.37391,-2.85371 -6.37391,-6.37391z"/><path d="M43.22068,83.16948c0,-3.5202 2.85371,-6.37391 6.37391,-6.37391c3.5202,0 6.37391,2.85371 6.37391,6.37391c0,3.5202 -2.85371,6.37391 -6.37391,6.37391c-3.5202,0 -6.37391,-2.85371 -6.37391,-6.37391z"/><path d="M8.65988,84.01935c0,-3.5202 2.85371,-6.37391 6.37391,-6.37391c3.5202,0 6.37391,2.85371 6.37391,6.37391c0,3.5202 -2.85371,6.37391 -6.37391,6.37391c-3.5202,0 -6.37391,-2.85371 -6.37391,-6.37391z"/><path d="M-25.61758,83.45279c0,-3.5202 2.85371,-6.37391 6.37391,-6.37391c3.5202,0 6.37391,2.85371 6.37391,6.37391c0,3.5202 -2.85371,6.37391 -6.37391,6.37391c-3.5202,0 -6.37391,-2.85371 -6.37391,-6.37391z"/></g></g><g fill="none" stroke-width="1" font-family="sans-serif" font-weight="normal" font-size="12" text-anchor="start"><g/><g/></g></g><g fill="#dadada" stroke-width="0.5"><g><g><path d="M179.48079,-19.94624c0,-3.5202 2.85371,-6.37391 6.37391,-6.37391c3.5202,0 6.37391,2.85371 6.37391,6.37391c0,3.5202 -2.85371,6.37391 -6.37391,6.37391c-3.5202,0 -6.37391,-2.85371 -6.37391,-6.37391z"/><path d="M214.04154,-19.66294c0,-3.5202 2.85371,-6.37391 6.37391,-6.37391c3.5202,0 6.37391,2.85371 6.37391,6.37391c0,3.5202 -2.85371,6.37391 -6.37391,6.37391c-3.5202,0 -6.37391,-2.85371 -6.37391,-6.37391z"/><path d="M248.03573,-19.94624c0,-3.5202 2.85371,-6.37391 6.37391,-6.37391c3.5202,0 6.37391,2.85371 6.37391,6.37391c0,3.5202 -2.85371,6.37391 -6.37391,6.37391c-3.5202,0 -6.37391,-2.85371 -6.37391,-6.37391z"/><path d="M248.31901,13.4814c0,-3.5202 2.85371,-6.37391 6.37391,-6.37391c3.5202,0 6.37391,2.85371 6.37391,6.37391c0,3.5202 -2.85371,6.37391 -6.37391,6.37391c-3.5202,0 -6.37391,-2.85371 -6.37391,-6.37391z"/><path d="M213.75826,14.33125c0,-3.5202 2.85371,-6.37391 6.37391,-6.37391c3.5202,0 6.37391,2.85371 6.37391,6.37391c0,3.5202 -2.85371,6.37391 -6.37391,6.37391c-3.5202,0 -6.37391,-2.85371 -6.37391,-6.37391z"/><path d="M179.48079,13.76468c0,-3.5202 2.85371,-6.37391 6.37391,-6.37391c3.5202,0 6.37391,2.85371 6.37391,6.37391c0,3.5202 -2.85371,6.37391 -6.37391,6.37391c-3.5202,0 -6.37391,-2.85371 -6.37391,-6.37391z"/></g><g><path d="M180.04734,50.02516c0,-3.5202 2.85371,-6.37391 6.37391,-6.37391c3.5202,0 6.37391,2.85371 6.37391,6.37391c0,3.5202 -2.85371,6.37391 -6.37391,6.37391c-3.5202,0 -6.37391,-2.85371 -6.37391,-6.37391z"/><path d="M214.60805,50.30843c0,-3.5202 2.85371,-6.37391 6.37391,-6.37391c3.5202,0 6.37391,2.85371 6.37391,6.37391c0,3.5202 -2.85371,6.37391 -6.37391,6.37391c-3.5202,0 -6.37391,-2.85371 -6.37391,-6.37391z"/><path d="M248.60228,50.02516c0,-3.5202 2.85371,-6.37391 6.37391,-6.37391c3.5202,0 6.37391,2.85371 6.37391,6.37391c0,3.5202 -2.85371,6.37391 -6.37391,6.37391c-3.5202,0 -6.37391,-2.85371 -6.37391,-6.37391z"/><path d="M248.8856,83.45277c0,-3.5202 2.85371,-6.37391 6.37391,-6.37391c3.5202,0 6.37391,2.85371 6.37391,6.37391c0,3.5202 -2.85371,6.37391 -6.37391,6.37391c-3.5202,0 -6.37391,-2.85371 -6.37391,-6.37391z"/><path d="M214.32482,84.30263c0,-3.5202 2.85371,-6.37391 6.37391,-6.37391c3.5202,0 6.37391,2.85371 6.37391,6.37391c0,3.5202 -2.85371,6.37391 -6.37391,6.37391c-3.5202,0 -6.37391,-2.85371 -6.37391,-6.37391z"/><path d="M180.04734,83.73607c0,-3.5202 2.85371,-6.37391 6.37391,-6.37391c3.5202,0 6.37391,2.85371 6.37391,6.37391c0,3.5202 -2.85371,6.37391 -6.37391,6.37391c-3.5202,0 -6.37391,-2.85371 -6.37391,-6.37391z"/></g></g><g><g><path d="M76.93157,-19.37966c0,-3.5202 2.85371,-6.37391 6.37391,-6.37391c3.5202,0 6.37391,2.85371 6.37391,6.37391c0,3.5202 -2.85371,6.37391 -6.37391,6.37391c-3.5202,0 -6.37391,-2.85371 -6.37391,-6.37391z"/><path d="M111.49237,-19.09636c0,-3.5202 2.85371,-6.37391 6.37391,-6.37391c3.5202,0 6.37391,2.85371 6.37391,6.37391c0,3.5202 -2.85371,6.37391 -6.37391,6.37391c-3.5202,0 -6.37391,-2.85371 -6.37391,-6.37391z"/><path d="M145.48655,-19.37966c0,-3.5202 2.85371,-6.37391 6.37391,-6.37391c3.5202,0 6.37391,2.85371 6.37391,6.37391c0,3.5202 -2.85371,6.37391 -6.37391,6.37391c-3.5202,0 -6.37391,-2.85371 -6.37391,-6.37391z"/><path d="M145.76979,14.04797c0,-3.5202 2.85371,-6.37391 6.37391,-6.37391c3.5202,0 6.37391,2.85371 6.37391,6.37391c0,3.5202 -2.85371,6.37391 -6.37391,6.37391c-3.5202,0 -6.37391,-2.85371 -6.37391,-6.37391z"/><path d="M111.20906,14.89783c0,-3.5202 2.85371,-6.37391 6.37391,-6.37391c3.5202,0 6.37391,2.85371 6.37391,6.37391c0,3.5202 -2.85371,6.37391 -6.37391,6.37391c-3.5202,0 -6.37391,-2.85371 -6.37391,-6.37391z"/><path d="M76.93157,14.33125c0,-3.5202 2.85371,-6.37391 6.37391,-6.37391c3.5202,0 6.37391,2.85371 6.37391,6.37391c0,3.5202 -2.85371,6.37391 -6.37391,6.37391c-3.5202,0 -6.37391,-2.85371 -6.37391,-6.37391z"/></g><g><path d="M77.49813,50.59173c0,-3.5202 2.85371,-6.37391 6.37391,-6.37391c3.5202,0 6.37391,2.85371 6.37391,6.37391c0,3.5202 -2.85371,6.37391 -6.37391,6.37391c-3.5202,0 -6.37391,-2.85371 -6.37391,-6.37391z"/><path d="M112.0589,50.87501c0,-3.5202 2.85371,-6.37391 6.37391,-6.37391c3.5202,0 6.37391,2.85371 6.37391,6.37391c0,3.5202 -2.85371,6.37391 -6.37391,6.37391c-3.5202,0 -6.37391,-2.85371 -6.37391,-6.37391z"/><path d="M146.05309,50.59173c0,-3.5202 2.85371,-6.37391 6.37391,-6.37391c3.5202,0 6.37391,2.85371 6.37391,6.37391c0,3.5202 -2.85371,6.37391 -6.37391,6.37391c-3.5202,0 -6.37391,-2.85371 -6.37391,-6.37391z"/><path d="M146.33639,84.01935c0,-3.5202 2.85371,-6.37391 6.37391,-6.37391c3.5202,0 6.37391,2.85371 6.37391,6.37391c0,3.5202 -2.85371,6.37391 -6.37391,6.37391c-3.5202,0 -6.37391,-2.85371 -6.37391,-6.37391z"/><path d="M111.77561,84.8692c0,-3.5202 2.85371,-6.37391 6.37391,-6.37391c3.5202,0 6.37391,2.85371 6.37391,6.37391c0,3.5202 -2.85371,6.37391 -6.37391,6.37391c-3.5202,0 -6.37391,-2.85371 -6.37391,-6.37391z"/><path d="M77.49813,84.30265c0,-3.5202 2.85371,-6.37391 6.37391,-6.37391c3.5202,0 6.37391,2.85371 6.37391,6.37391c0,3.5202 -2.85371,6.37391 -6.37391,6.37391c-3.5202,0 -6.37391,-2.85371 -6.37391,-6.37391z"/></g></g></g></g></g><g fill="#dadada" stroke-width="0.5"><g><g><g><g><path d=""/><path d=""/><path d=""/><path d=""/><path d=""/><path d=""/></g><g><path d=""/><path d=""/><path d=""/><path d=""/><path d=""/><path d="M386.3825,183.42957c0,-3.5202 2.85371,-6.37391 6.37391,-6.37391c3.5202,0 6.37391,2.85371 6.37391,6.37391c0,3.5202 -2.85371,6.37391 -6.37391,6.37391c-3.5202,0 -6.37391,-2.85371 -6.37391,-6.37391z"/></g></g><g><g><path d="M283.26671,80.31382c0,-3.5202 2.85371,-6.37391 6.37391,-6.37391c3.5202,0 6.37391,2.85371 6.37391,6.37391c0,3.5202 -2.85371,6.37391 -6.37391,6.37391c-3.5202,0 -6.37391,-2.85371 -6.37391,-6.37391z"/><path d="M317.8275,80.59713c0,-3.5202 2.85371,-6.37391 6.37391,-6.37391c3.5202,0 6.37391,2.85371 6.37391,6.37391c0,3.5202 -2.85371,6.37391 -6.37391,6.37391c-3.5202,0 -6.37391,-2.85371 -6.37391,-6.37391z"/><path d="M317.5442,114.59133c0,-3.5202 2.85371,-6.37391 6.37391,-6.37391c3.5202,0 6.37391,2.85371 6.37391,6.37391c0,3.5202 -2.85371,6.37391 -6.37391,6.37391c-3.5202,0 -6.37391,-2.85371 -6.37391,-6.37391z"/><path d="M283.26671,114.02475c0,-3.5202 2.85371,-6.37391 6.37391,-6.37391c3.5202,0 6.37391,2.85371 6.37391,6.37391c0,3.5202 -2.85371,6.37391 -6.37391,6.37391c-3.5202,0 -6.37391,-2.85371 -6.37391,-6.37391z"/></g><g><path d="M283.83333,150.28523c0,-3.5202 2.85371,-6.37391 6.37391,-6.37391c3.5202,0 6.37391,2.85371 6.37391,6.37391c0,3.5202 -2.85371,6.37391 -6.37391,6.37391c-3.5202,0 -6.37391,-2.85371 -6.37391,-6.37391z"/><path d="M318.39403,150.5685c0,-3.5202 2.85371,-6.37391 6.37391,-6.37391c3.5202,0 6.37391,2.85371 6.37391,6.37391c0,3.5202 -2.85371,6.37391 -6.37391,6.37391c-3.5202,0 -6.37391,-2.85371 -6.37391,-6.37391z"/><path d="M352.38842,150.28523c0,-3.5202 2.85371,-6.37391 6.37391,-6.37391c3.5202,0 6.37391,2.85371 6.37391,6.37391c0,3.5202 -2.85371,6.37391 -6.37391,6.37391c-3.5202,0 -6.37391,-2.85371 -6.37391,-6.37391z"/><path d="M352.67157,183.71285c0,-3.5202 2.85371,-6.37391 6.37391,-6.37391c3.5202,0 6.37391,2.85371 6.37391,6.37391c0,3.5202 -2.85371,6.37391 -6.37391,6.37391c-3.5202,0 -6.37391,-2.85371 -6.37391,-6.37391z"/><path d="M318.11073,184.5627c0,-3.5202 2.85371,-6.37391 6.37391,-6.37391c3.5202,0 6.37391,2.85371 6.37391,6.37391c0,3.5202 -2.85371,6.37391 -6.37391,6.37391c-3.5202,0 -6.37391,-2.85371 -6.37391,-6.37391z"/><path d="M283.83333,183.99615c0,-3.5202 2.85371,-6.37391 6.37391,-6.37391c3.5202,0 6.37391,2.85371 6.37391,6.37391c0,3.5202 -2.85371,6.37391 -6.37391,6.37391c-3.5202,0 -6.37391,-2.85371 -6.37391,-6.37391z"/></g></g></g><g><g><g><path d=""/><path d=""/><path d=""/><path d=""/><path d=""/><path d=""/></g><g><path d=""/><path d=""/><path d=""/><path d=""/><path d=""/><path d=""/></g></g><g><g><path d=""/><path d=""/><path d=""/><path d=""/><path d=""/><path d=""/></g><g><path d=""/><path d=""/><path d=""/><path d=""/><path d=""/><path d=""/></g></g></g></g><g><g><g><g><path d=""/><path d=""/><path d=""/><path d=""/><path d=""/><path d=""/></g><g><path d=""/><path d=""/><path d=""/><path d=""/><path d=""/><path d=""/></g></g><g><g><path d=""/><path d=""/><path d=""/><path d=""/><path d=""/></g><g><path d=""/><path d=""/><path d="M283.83333,48.01937c0,-3.5202 2.85371,-6.37391 6.37391,-6.37391c3.5202,0 6.37391,2.85371 6.37391,6.37391c0,3.5202 -2.85371,6.37391 -6.37391,6.37391c-3.5202,0 -6.37391,-2.85371 -6.37391,-6.37391z"/></g></g></g><g><g><g><path d=""/><path d=""/><path d=""/><path d=""/><path d=""/><path d=""/></g><g><path d=""/><path d=""/><path d=""/><path d=""/><path d=""/><path d=""/></g></g><g><g><path d=""/><path d=""/><path d=""/><path d=""/><path d=""/><path d=""/></g><g><path d=""/><path d=""/><path d=""/><path d=""/><path d=""/><path d=""/></g></g></g></g></g><g fill="#dadada" stroke-width="0.5"><g><g><g><g><path d=""/><path d=""/><path d=""/><path d=""/><path d=""/><path d=""/></g><g><path d=""/><path d=""/><path d=""/><path d=""/><path d=""/><path d="M490.3825,357.42957c0,-3.5202 2.85371,-6.37391 6.37391,-6.37391c3.5202,0 6.37391,2.85371 6.37391,6.37391c0,3.5202 -2.85371,6.37391 -6.37391,6.37391c-3.5202,0 -6.37391,-2.85371 -6.37391,-6.37391z"/></g></g><g><g><path d="M387.26678,254.31383c0,-3.5202 2.85371,-6.37391 6.37391,-6.37391c3.5202,0 6.37391,2.85371 6.37391,6.37391c0,3.5202 -2.85371,6.37391 -6.37391,6.37391c-3.5202,0 -6.37391,-2.85371 -6.37391,-6.37391z"/><path d="M421.82749,254.59713c0,-3.5202 2.85371,-6.37391 6.37391,-6.37391c3.5202,0 6.37391,2.85371 6.37391,6.37391c0,3.5202 -2.85371,6.37391 -6.37391,6.37391c-3.5202,0 -6.37391,-2.85371 -6.37391,-6.37391z"/><path d="M421.54424,288.59133c0,-3.5202 2.85371,-6.37391 6.37391,-6.37391c3.5202,0 6.37391,2.85371 6.37391,6.37391c0,3.5202 -2.85371,6.37391 -6.37391,6.37391c-3.5202,0 -6.37391,-2.85371 -6.37391,-6.37391z"/><path d="M387.26678,288.02475c0,-3.5202 2.85371,-6.37391 6.37391,-6.37391c3.5202,0 6.37391,2.85371 6.37391,6.37391c0,3.5202 -2.85371,6.37391 -6.37391,6.37391c-3.5202,0 -6.37391,-2.85371 -6.37391,-6.37391z"/></g><g><path d="M387.83334,324.28523c0,-3.5202 2.85371,-6.37391 6.37391,-6.37391c3.5202,0 6.37391,2.85371 6.37391,6.37391c0,3.5202 -2.85371,6.37391 -6.37391,6.37391c-3.5202,0 -6.37391,-2.85371 -6.37391,-6.37391z"/><path d="M422.39412,324.56851c0,-3.5202 2.85371,-6.37391 6.37391,-6.37391c3.5202,0 6.37391,2.85371 6.37391,6.37391c0,3.5202 -2.85371,6.37391 -6.37391,6.37391c-3.5202,0 -6.37391,-2.85371 -6.37391,-6.37391z"/><path d="M456.38828,324.28523c0,-3.5202 2.85371,-6.37391 6.37391,-6.37391c3.5202,0 6.37391,2.85371 6.37391,6.37391c0,3.5202 -2.85371,6.37391 -6.37391,6.37391c-3.5202,0 -6.37391,-2.85371 -6.37391,-6.37391z"/><path d="M456.67157,357.71285c0,-3.5202 2.85371,-6.37391 6.37391,-6.37391c3.5202,0 6.37391,2.85371 6.37391,6.37391c0,3.5202 -2.85371,6.37391 -6.37391,6.37391c-3.5202,0 -6.37391,-2.85371 -6.37391,-6.37391z"/><path d="M422.11081,358.5627c0,-3.5202 2.85371,-6.37391 6.37391,-6.37391c3.5202,0 6.37391,2.85371 6.37391,6.37391c0,3.5202 -2.85371,6.37391 -6.37391,6.37391c-3.5202,0 -6.37391,-2.85371 -6.37391,-6.37391z"/><path d="M387.83334,357.99615c0,-3.5202 2.85371,-6.37391 6.37391,-6.37391c3.5202,0 6.37391,2.85371 6.37391,6.37391c0,3.5202 -2.85371,6.37391 -6.37391,6.37391c-3.5202,0 -6.37391,-2.85371 -6.37391,-6.37391z"/></g></g></g><g><g><g><path d=""/><path d=""/><path d=""/><path d=""/><path d=""/><path d=""/></g><g><path d=""/><path d=""/><path d=""/><path d=""/><path d=""/><path d=""/></g></g><g><g><path d=""/><path d=""/><path d=""/><path d=""/><path d=""/><path d=""/></g><g><path d=""/><path d=""/><path d=""/><path d=""/><path d=""/><path d=""/></g></g></g></g><g><g><g><g><path d=""/><path d=""/><path d=""/><path d=""/><path d=""/><path d=""/></g><g><path d=""/><path d=""/><path d=""/><path d=""/><path d=""/><path d=""/></g></g><g><g><path d=""/><path d=""/><path d=""/><path d=""/><path d=""/></g><g><path d=""/><path d=""/><path d="M387.83334,222.01937c0,-3.5202 2.85371,-6.37391 6.37391,-6.37391c3.5202,0 6.37391,2.85371 6.37391,6.37391c0,3.5202 -2.85371,6.37391 -6.37391,6.37391c-3.5202,0 -6.37391,-2.85371 -6.37391,-6.37391z"/></g></g></g><g><g><g><path d=""/><path d=""/><path d=""/><path d=""/><path d=""/><path d=""/></g><g><path d=""/><path d=""/><path d=""/><path d=""/><path d=""/><path d=""/></g></g><g><g><path d=""/><path d=""/><path d=""/><path d=""/><path d=""/><path d=""/></g><g><path d=""/><path d=""/><path d=""/><path d=""/><path d=""/><path d=""/></g></g></g></g></g></g><text transform="translate(6.50002,48.96666) scale(1.2584,1.2584)" font-size="40" xml:space="preserve" fill="#ffffff" fill-rule="nonzero" stroke="#000000" stroke-width="1" stroke-linecap="butt" stroke-linejoin="miter" stroke-miterlimit="10" stroke-dasharray="" stroke-dashoffset="0" font-family="&quot;ヒラギノ角ゴ Pro W3&quot;, &quot;Hiragino Kaku Gothic Pro&quot;, Osaka, &quot;メイリオ&quot;, Meiryo, &quot;ＭＳ Ｐゴシック&quot;, &quot;MS PGothic&quot;" font-weight="normal" text-anchor="start" style="mix-blend-mode: normal"><tspan x="0" dy="0">Main Menu</tspan></text><path d="M22.50003,234.52646v-53.20339c0,0 20.36452,-27.6882 63.15233,-29.62848c38.01197,-1.72371 67.90573,29.62848 67.90573,29.62848h67.22668v53.20339h-143.05474l-8.14869,8.99213h-21.95618l-6.11152,-8.99213z" fill="#ffde29" stroke="none" stroke-width="0"/><path d="M26.59201,229.88124v-45.85711c0,0 19.36939,-27.392 60.06635,-29.06437c36.15448,-1.4857 64.58747,29.06437 64.58747,29.06437h63.9416v45.85711h-136.06427l-7.7505,7.75049h-20.88328l-5.81287,-7.75049z" fill="#ff7887" stroke="none" stroke-width="0"/><text transform="translate(39.40185,208.20412) scale(0.5608,0.5608)" font-size="40" xml:space="preserve" fill="#ffffff" fill-rule="nonzero" stroke="#000000" stroke-width="1" stroke-linecap="butt" stroke-linejoin="miter" stroke-miterlimit="10" stroke-dasharray="" stroke-dashoffset="0" font-family="&quot;ヒラギノ角ゴ Pro W3&quot;, &quot;Hiragino Kaku Gothic Pro&quot;, Osaka, &quot;メイリオ&quot;, Meiryo, &quot;ＭＳ Ｐゴシック&quot;, &quot;MS PGothic&quot;" font-weight="normal" text-anchor="start" style="mix-blend-mode: normal"><tspan x="0" dy="0">Classic Mode</tspan></text><path d="M267.73992,-6.49951l25.6243,-17.53532l231.19295,343.46389l-25.6243,17.53531z" data-paper-data="{&quot;origRot&quot;:0}" fill="#ffffff" stroke="none" stroke-width="0"/><text transform="translate(298.07338,11.09828) rotate(56.32619) scale(0.26384,0.26384)" font-size="40" xml:space="preserve" data-paper-data="{&quot;origRot&quot;:17.27613}" fill="#000000" fill-rule="nonzero" stroke="none" stroke-width="1" stroke-linecap="butt" stroke-linejoin="miter" stroke-miterlimit="10" stroke-dasharray="" stroke-dashoffset="0" font-family="&quot;ヒラギノ角ゴ Pro W3&quot;, &quot;Hiragino Kaku Gothic Pro&quot;, Osaka, &quot;メイリオ&quot;, Meiryo, &quot;ＭＳ Ｐゴシック&quot;, &quot;MS PGothic&quot;" font-weight="normal" text-anchor="start" style="mix-blend-mode: normal"><tspan x="0" dy="0">Play through a single player campaign!</tspan></text><path d="M10.46818,138.3069v-44.46949c0,0 18.78328,-26.56313 58.24877,-28.18489c35.06047,-1.44075 62.63308,28.18489 62.63308,28.18489h62.00676v44.46949h-131.94703l-7.51598,7.51597h-20.25136l-5.63698,-7.51597z" fill="#f0b518" stroke="none" stroke-width="0"/><text transform="translate(22.89041,115.30165) scale(0.71579,0.71579)" font-size="40" xml:space="preserve" fill="#ffffff" fill-rule="nonzero" stroke="#000000" stroke-width="1" stroke-linecap="butt" stroke-linejoin="miter" stroke-miterlimit="10" stroke-dasharray="" stroke-dashoffset="0" font-family="&quot;ヒラギノ角ゴ Pro W3&quot;, &quot;Hiragino Kaku Gothic Pro&quot;, Osaka, &quot;メイリオ&quot;, Meiryo, &quot;ＭＳ Ｐゴシック&quot;, &quot;MS PGothic&quot;" font-weight="normal" text-anchor="start" style="mix-blend-mode: normal"><tspan x="0" dy="0">Fight</tspan></text><path d="M47.7339,284.71277v-33.30956h14.94012l5.05294,4.04235l8.18002,0.15318l6.37243,-4.19553h56.00019h46.44572v33.30956h-98.83399l-5.62979,5.62979h-15.16914l-4.22234,-5.62979z" fill="#8a1fc4" stroke="none" stroke-width="0"/><text transform="translate(55.01754,276.57614) scale(0.53616,0.53616)" font-size="40" xml:space="preserve" fill="#ffffff" fill-rule="nonzero" stroke="#000000" stroke-width="1" stroke-linecap="butt" stroke-linejoin="miter" stroke-miterlimit="10" stroke-dasharray="" stroke-dashoffset="0" font-family="&quot;ヒラギノ角ゴ Pro W3&quot;, &quot;Hiragino Kaku Gothic Pro&quot;, Osaka, &quot;メイリオ&quot;, Meiryo, &quot;ＭＳ Ｐゴシック&quot;, &quot;MS PGothic&quot;" font-weight="normal" text-anchor="start" style="mix-blend-mode: normal"><tspan x="0" dy="0">Training</tspan></text><path d="M378.68973,208.52695c0,17.15372 -39.15718,19.76518 -71.34564,19.76518c-32.18845,0 -65.31642,-2.61146 -65.31642,-19.76517c0,-17.15372 33.12797,-19.76517 65.31642,-19.76517c32.18845,0 71.34564,2.61145 71.34564,19.76517z" fill="#00e9ff" stroke="none" stroke-width="0"/><text transform="translate(256.15594,213.67199) scale(0.48007,0.48007)" font-size="40" xml:space="preserve" fill="#ffffff" fill-rule="nonzero" stroke="#000000" stroke-width="1" stroke-linecap="butt" stroke-linejoin="miter" stroke-miterlimit="10" stroke-dasharray="" stroke-dashoffset="0" font-family="&quot;ヒラギノ角ゴ Pro W3&quot;, &quot;Hiragino Kaku Gothic Pro&quot;, Osaka, &quot;メイリオ&quot;, Meiryo, &quot;ＭＳ Ｐゴシック&quot;, &quot;MS PGothic&quot;" font-weight="normal" text-anchor="start" style="mix-blend-mode: normal"><tspan x="0" dy="0">How to Play</tspan></text><path d="M243.77009,318.83327v-44.43005h19.92792l6.73986,5.3919l10.91096,0.20432l8.49989,-5.59622h74.696h61.95174v44.43005h-131.82997l-7.5093,7.5093h-20.2334l-5.63198,-7.5093z" fill="#fe9929" stroke="none" stroke-width="0"/><text transform="translate(253.48537,307.98019) scale(0.71516,0.71516)" font-size="40" xml:space="preserve" fill="#ffffff" fill-rule="nonzero" stroke="#000000" stroke-width="1" stroke-linecap="butt" stroke-linejoin="miter" stroke-miterlimit="10" stroke-dasharray="" stroke-dashoffset="0" font-family="&quot;ヒラギノ角ゴ Pro W3&quot;, &quot;Hiragino Kaku Gothic Pro&quot;, Osaka, &quot;メイリオ&quot;, Meiryo, &quot;ＭＳ Ｐゴシック&quot;, &quot;MS PGothic&quot;" font-weight="normal" text-anchor="start" style="mix-blend-mode: normal"><tspan x="0" dy="0">☁ Online</tspan></text><path d="M217.73393,157.21463v-51.40046h23.05431l7.79727,6.2378l12.62271,0.23637l9.8334,-6.47419h61.68375v51.40046h-56.11014l-8.68741,8.68741h-23.40771l-6.51556,-8.68741z" fill="#c4411f" stroke="none" stroke-width="0"/><text transform="translate(228.97341,146.32132) scale(0.80733,0.80733)" font-size="40" xml:space="preserve" fill="#ffffff" fill-rule="nonzero" stroke="#000000" stroke-width="1" stroke-linecap="butt" stroke-linejoin="miter" stroke-miterlimit="10" stroke-dasharray="" stroke-dashoffset="0" font-family="&quot;ヒラギノ角ゴ Pro W3&quot;, &quot;Hiragino Kaku Gothic Pro&quot;, Osaka, &quot;メイリオ&quot;, Meiryo, &quot;ＭＳ Ｐゴシック&quot;, &quot;MS PGothic&quot;" font-weight="normal" text-anchor="start" style="mix-blend-mode: normal"><tspan x="0" dy="0">Bios</tspan></text></g></g></svg>