<svg version="1.1" xmlns="http://www.w3.org/2000/svg" xmlns:xlink="http://www.w3.org/1999/xlink" width="50.23855" height="44.40264" viewBox="0,0,50.23855,44.40264"><g transform="translate(-213.34375,-168.27013)"><g data-paper-data="{&quot;isPaintingLayer&quot;:true}" fill-rule="nonzero" stroke="none" stroke-width="0" stroke-linecap="butt" stroke-linejoin="miter" stroke-miterlimit="10" stroke-dasharray="" stroke-dashoffset="0" style="mix-blend-mode: normal"><path d="M218.58382,208.93927v-6.0915h44.99848v6.0915z" fill="#6c4e00"/><path d="M237.05481,204.81277v-13.36199h13.36199v13.36199z" fill="#6c4e00"/><g data-paper-data="{&quot;origRot&quot;:0}"><path d="M254.13257,197.30471c-17.51436,9.39238 -34.45495,13.01578 -39.55241,5.00678c-5.09746,-8.009 6.27742,-20.85967 21.0929,-34.00993c1.24903,-1.10865 21.30819,27.47549 18.4595,29.00316z" data-paper-data="{&quot;origPos&quot;:null,&quot;origRot&quot;:0}" fill="#9c9c9c"/><path d="M235.84371,168.3755c2.54626,-1.04518 20.78234,27.21425 18.23608,28.25942c-2.54626,1.04518 -8.39426,-3.46129 -12.2024,-10.99465c-3.80815,-7.53336 -8.57994,-16.2196 -6.03367,-17.26477z" data-paper-data="{&quot;origPos&quot;:null}" fill="#000000"/></g><path d="M224.08581,206.38477v-17.68499h14.934v17.68499z" fill="#8d6400"/><path d="M215.04682,212.67277v-7.2705h41.65798v7.2705z" fill="#8d6400"/></g></g></svg>