<svg version="1.1" xmlns="http://www.w3.org/2000/svg" xmlns:xlink="http://www.w3.org/1999/xlink" width="155.49287" height="420.42612" viewBox="0,0,155.49287,420.42612"><g transform="translate(-191.90798,-13.6215)"><g data-paper-data="{&quot;isPaintingLayer&quot;:true}" fill-rule="nonzero" stroke-linejoin="miter" stroke-miterlimit="10" stroke-dasharray="" stroke-dashoffset="0" style="mix-blend-mode: normal"><path d="M259.85822,241.12103c0,0 2.72322,34.68209 0.54938,38.47283c-3.08812,5.3851 -5.19828,-16.88464 -5.19828,-16.88464c0,0 -1.81308,3.91387 -2.12851,9.04383c-0.45078,7.33129 5.56021,16.17009 -6.96224,18.55642c-15.53609,2.96062 -10.13993,-43.22679 -0.87522,-53.50487" fill="#ffe9cc" stroke="#000000" stroke-width="2.5" stroke-linecap="round"/><path d="M213.41667,276.90486l-12.5,-47l69.5,2.5v56.5z" fill="#ffffff" stroke="#000000" stroke-width="2.5" stroke-linecap="butt"/><path d="M276.61513,256.84104c0,0 33.83563,25.0434 36.53763,51.91765c2.702,26.87424 -20.85579,45.68294 -33.35939,60.48889c-8.19332,9.702 -20.4032,16.61993 -27.56103,24.71566c-0.17701,0.20021 4.4219,16.83974 -1.65589,17.36755c-17.62503,1.53059 -42.64603,-34.45556 -42.08426,-35.89128c6.31609,-16.14207 28.94963,-22.76498 39.93388,-32.96951c7.2773,-6.76072 14.92101,-16.69004 14.92101,-16.69004c0,0 -2.68662,-23.15428 -8.58715,-30.81265c-4.12468,-5.35347 -52.10934,-53.18621 -52.10934,-53.18621" fill="#ffffff" stroke="#000000" stroke-width="2.5" stroke-linecap="round"/><path d="M306.81322,202.02102c0,0 -3.76922,-1.50786 -12.9919,0.33929c-8.09808,1.62191 -22.08675,7.67754 -22.08675,7.67754l-15.45438,37.71164l-11.82259,-7.18984l15.06622,-40.62512c0,0 8.28864,-8.08542 17.24054,-12.34543c9.8991,-4.71078 18.52862,-6.63777 18.52862,-6.63777" fill="#ffe9cc" stroke="#000000" stroke-width="2.5" stroke-linecap="round"/><path d="M257.871,261.6686c0,0 -4.90705,29.13164 -4.53985,47.90886c0.3672,18.77722 6.68438,45.31804 6.74195,64.69723c0.03772,12.69873 -4.78814,25.87637 -5.00132,36.68052c-0.00527,0.26719 14.27313,9.97035 9.98305,14.30777c-12.44084,12.57814 -54.80909,1.35383 -55.31056,-0.10405c-5.63809,-16.3912 7.32257,-36.093 9.08642,-50.98176c1.16858,-9.86411 0.46704,-29.65968 0.46704,-29.65968l-21.50217,-110.59818" data-paper-data="{&quot;index&quot;:null}" fill="#ffffff" stroke="#000000" stroke-width="2.5" stroke-linecap="round"/><path d="M308.27403,38.81401c1.55459,11.13229 -13.40836,14.10904 -31.64638,16.65593c-18.23803,2.54689 -36.28697,2.27572 -37.84158,-8.85657c-1.55459,-11.13229 13.97384,-28.91014 32.21188,-31.45702c18.23803,-2.54689 35.72148,12.52537 37.27608,23.65768z" data-paper-data="{&quot;origRot&quot;:0}" fill="#2c1500" stroke="#000000" stroke-width="2.5" stroke-linecap="butt"/><path d="M316.39251,178.89705c-7.35638,26.32364 -50.75157,7.46043 -61.29302,3.89663c-6.73075,-2.2755 -48.08035,0.98947 -39.57578,-24.98597c2.44192,-7.45838 10.38857,-11.47536 18.06432,-9.84041c12.35914,2.6325 6.44783,9.81724 17.37238,3.46643c1.77989,-1.03472 5.08131,-14.23896 6.62913,-15.59649c4.6435,-4.07259 6.28064,-3.36228 15.40575,-0.69479c0,0 4.50991,0.49648 4.92517,7.12359c0.26946,4.30023 -2.48863,16.46644 -2.38293,20.7738c0,0 5.92738,-4.31289 17.25468,1.88498c-2.93287,-1.65292 -0.22994,-6.26627 23.60031,13.9722z" data-paper-data="{&quot;origRot&quot;:0}" fill="#ffe9cc" stroke="#000000" stroke-width="2.5" stroke-linecap="butt"/><path d="M194.35434,236.89303c0,0 13.61151,-42.44459 16.18778,-56.50708c0.7362,-4.01854 -8.28081,-8.76933 -7.74172,-10.59963c1.61726,-5.49089 11.5023,-15.91508 18.51046,-19.97853c2.23946,-1.29849 -6.07181,5.19258 2.9107,11.08651c3.23435,2.39525 12.15263,2.44763 14.84271,-0.54596c3.02396,-3.36515 -2.0048,-14.12835 1.39727,-11.146c10.35646,-0.29754 12.05778,-0.63079 12.05778,-0.63079c0,0 -7.04222,19.18254 5.36317,22.80895c13.84694,4.04778 16.16389,-14.21295 19.44187,-15.01259c0.69671,0.6108 16.65438,7.10896 17.59826,7.6945c0.31462,0.19517 -0.75787,10.67328 0.20534,13.32513c1.86328,5.12999 8.73304,3.99074 11.84962,3.02417c4.80321,-1.48967 9.28924,-3.10191 9.0523,-2.6039c0.56121,0.96598 5.25812,14.11751 6.97246,19.33141c-6.34271,11.57373 -24.46333,1.92274 -26.40225,8.48176c-6.08933,20.59944 -19.71706,56.56494 -19.71706,56.56494c0,0 -16.89727,2.96563 -29.06502,-0.76348c-4.05591,-1.24305 -53.4637,-24.52948 -53.4637,-24.52948z" data-paper-data="{&quot;origRot&quot;:0}" fill="#fffeae" stroke="#000000" stroke-width="2.5" stroke-linecap="butt"/><path d="M215.45978,205.22954c-0.19664,0.67268 -0.49235,1.17816 -0.66053,1.12897c-0.16815,-0.04915 -0.14509,-0.63432 0.05154,-1.30699c0.19664,-0.67268 0.49237,-1.17815 0.66055,-1.12897c0.16815,0.04915 0.14509,0.63433 -0.05155,1.30699z" data-paper-data="{&quot;origRot&quot;:0}" fill="#e7e69d" stroke="none" stroke-width="2.5" stroke-linecap="butt"/><path d="M330.72856,125.44296c-11.96892,27.50505 -57.61391,28.86812 -68.53522,23.40343c-6.97329,-3.48923 -41.17073,-39.83334 -28.00622,-66.78659c23.87256,-48.87712 43.87394,-39.82934 70.53313,-27.84941c26.65917,11.97992 49.37039,17.54565 26.00831,71.23257z" data-paper-data="{&quot;origRot&quot;:0}" fill="#ffe9cc" stroke="#000000" stroke-width="2.5" stroke-linecap="butt"/><path d="M336.65493,119.89956c-0.20009,0.44524 2.80241,-19.17182 3.58543,-18.64437c-16.13306,0.86321 -14.528,0.99677 -30.53997,-1.1567c-52.00664,-6.99442 18.70242,-7.93241 1.7865,-15.51054c-0.06272,-0.02809 -51.6289,-2.58877 -51.69161,-2.61694c-2.41699,-1.08612 -33.36781,18.62008 -35.3059,16.81304c-5.81421,-5.42114 23.48096,-65.47203 47.34882,-65.11396c30.81625,0.46232 48.22462,8.73158 62.37801,21.58063c22.56523,20.48568 7.04942,54.3886 2.43873,64.64888z" data-paper-data="{&quot;origRot&quot;:0}" fill="#2c1500" stroke="#000000" stroke-width="2.5" stroke-linecap="butt"/><path d="M292.32408,104.4416c1.47854,-4.48876 4.93097,-7.38524 7.71123,-6.46946c2.78025,0.91578 3.8355,5.29702 2.35696,9.78579c-1.47854,4.48876 -4.93097,7.38524 -7.71123,6.46946c-2.78025,-0.91578 -3.8355,-5.29702 -2.35696,-9.78579z" fill="#000000" stroke="none" stroke-width="0" stroke-linecap="butt"/><path d="M324.41194,113.09008c1.47854,-4.48876 4.93099,-7.38525 7.71124,-6.46948c2.78025,0.91578 3.83549,5.29705 2.35695,9.78581c-1.47854,4.48876 -4.93097,7.38524 -7.71123,6.46946c-2.78025,-0.91578 -3.83551,-5.29702 -2.35697,-9.78579z" fill="#000000" stroke="none" stroke-width="0" stroke-linecap="butt"/><path d="M235.32578,183.8429c0,0 -1.17052,4.92775 -7.44836,11.93191c-5.51232,6.1501 -13.08498,19.37917 -13.08498,19.37917l10.21851,39.45361l-13.7735,1.32597l-12.27473,-41.55386c0,0 1.79271,-11.43947 6.40823,-20.21337c5.10388,-9.70227 10.66107,-26.93859 10.66107,-26.93859" fill="#ffe9cc" stroke="#000000" stroke-width="2.5" stroke-linecap="round"/><path d="M238.20548,169.17664l-2.09426,11.43958c0,0 -16.20645,10.26832 -22.72324,8.88893c-5.90595,-1.2501 -16.75233,-7.17753 -16.75233,-7.17753l10.33618,-20.28949" fill="#fffeae" stroke="#000000" stroke-width="2.5" stroke-linecap="round"/><path d="M221.22774,241.5871c0,0 18.65856,29.36189 18.51464,33.72936c-0.20444,6.20435 -12.50471,-12.47979 -12.50471,-12.47979c0,0 0.23247,4.30715 2.35784,8.98677c3.03741,6.6877 12.48959,11.67896 2.54558,19.65535c-12.33712,9.89599 -29.21474,-33.43461 -25.84687,-46.8559" fill="#ffe9cc" stroke="#000000" stroke-width="2.5" stroke-linecap="round"/><path d="M301.39082,133.45715c-1.12908,2.72052 -4.43993,3.93173 -7.39498,2.70532c-2.95505,-1.22642 -4.43529,-4.42605 -3.30621,-7.14657c1.12908,-2.72052 4.43993,-3.93173 7.39498,-2.70532c2.95505,1.22642 4.43529,4.42605 3.30621,7.14657z" fill="#2c1500" stroke="none" stroke-width="0" stroke-linecap="butt"/><path d="M282.68508,247.89808l-0.81337,2.44012l-0.23913,-0.07971c-2.06359,3.42634 -5.36388,5.21446 -8.97412,6.74805c-0.17727,0.14664 -0.35445,0.29304 -0.53148,0.43923c-9.38578,7.75076 -20.58794,15.66131 -32.11407,19.75514c-6.54956,2.27146 -13.50616,4.19161 -19.74633,7.25851l-2.60356,1.30178c-0.34741,0.18291 -0.74312,0.28642 -1.16302,0.28642c-1.38071,0 -2.5,-1.11929 -2.5,-2.5c0,-0.52532 0.16203,-1.0128 0.43883,-1.41519l0.98104,-1.47156c0.05518,-0.60044 0.34363,-1.12879 1,-1.5c0.96705,-0.54691 2.04498,-0.81518 3.14722,-1.02761c-0.35437,-0.43148 -0.5671,-0.98372 -0.5671,-1.58564c0,-0.92661 0.50412,-1.73548 1.25305,-2.16731l1.04935,-0.62961c-0.04345,-0.08605 -0.08474,-0.17748 -0.12359,-0.27461c-0.92848,-2.32119 1.39272,-3.24967 1.39272,-3.24967c3.37871,-1.35149 6.60208,-1.87986 10.04957,-2.88108c1.17899,-0.3424 2.35555,-0.75987 3.52847,-1.22114c0.22518,-0.14553 0.45087,-0.29017 0.67705,-0.43397c0.0994,-0.08961 0.20602,-0.17135 0.3189,-0.24425l2.96774,-1.97849l0.07786,0.11679c0.16479,-0.08421 0.33048,-0.16673 0.49698,-0.24775c5.3624,-3.14272 10.9252,-5.93757 16.43525,-8.83684c0.31044,-0.16335 0.62125,-0.32577 0.9324,-0.48739c1.87709,-1.63097 3.75067,-3.29819 5.7483,-4.91086c2.48284,-1.98518 4.16669,-4.53378 6.40367,-6.7919c0.32683,-0.32992 0.78024,-0.6764 1.08984,-1.06025l0.81252,-2.43756c0.31417,-1.02156 1.26534,-1.76412 2.38994,-1.76412c1.38071,0 2.5,1.11929 2.5,2.5v1.5c0.39462,0.30704 0.22234,1.05216 0,1.5c-1.28966,2.59765 -3.52045,4.75699 -5.69029,6.80932c2.65888,-1.90201 5.17979,-3.94382 7.80354,-5.88944c0.48269,-0.35794 0.92446,-1.17281 1.5,-1l1.47156,-0.98104c0.40239,-0.27681 0.88987,-0.43883 1.41519,-0.43883c1.38071,0 2.5,1.11929 2.5,2.5c0,0.69036 -0.27982,1.31536 -0.73223,1.76777c-0.38971,0.38971 -1.32512,1.32512 -2,2c-0.23872,0.23872 -0.44484,0.44484 -0.58269,0.58269zM235.0429,273.06589c0.73266,-0.28006 1.47104,-0.57676 2.21134,-0.88978l0.27218,-0.90202l-0.00183,-0.00334c-0.84505,0.56517 -1.66671,1.17397 -2.48169,1.79514z" fill="#ffe9cc" stroke="none" stroke-width="0.5" stroke-linecap="butt"/><path d="M298.45987,415.23793l0.04013,-0.1903c7.89206,0 16.40773,2.72033 24.10186,4.51721c2.72639,0.63672 4.84446,1.60098 7.36034,2.7778c0.75484,0.35308 1.85369,0.33421 2.26451,1.05924l2.21376,1.0355c0.87841,0.3877 1.49151,1.26638 1.49151,2.28825c0,1.25484 -0.92451,2.29374 -2.12954,2.47274l-0.2555,0.04258l0.30756,0.20504c0.68925,0.44514 1.14551,1.2201 1.14551,2.10163c0,1.38071 -1.11929,2.5 -2.5,2.5c-0.22596,0 -0.44492,-0.02998 -0.65312,-0.08617l-1.65162,-0.40753c-5.76215,-1.42177 -11.59935,-2.42689 -17.46779,-3.25186c-3.12783,0.53073 -6.29396,1.4641 -9.3439,2.09393c-5.10351,0.92274 -10.38264,0.22128 -15.5548,-0.01446c-7.17627,-0.32708 -14.60907,-0.38142 -21.50619,-2.50361c-3.24695,-0.99906 -6.66213,-1.80979 -9.82697,-3.0495c-0.23661,-0.06486 -0.47383,-0.13698 -0.71624,-0.21998c-0.18707,-0.04507 -0.37815,-0.08935 -0.557,-0.14437l-0.10911,0.16367l-2.96774,-1.97849c-0.68925,-0.44514 -1.14551,-1.2201 -1.14551,-2.10163c0,-0.01245 0.00009,-0.02487 0.00027,-0.03728l-2.8319,-1.8465c-0.702,-0.44267 -1.16837,-1.22498 -1.16837,-2.11622c0,-1.21543 0.86735,-2.22828 2.01686,-2.45335c0.04364,-0.1829 0.1104,-0.37513 0.20452,-0.57668c0.0253,-0.05587 0.05259,-0.11065 0.08178,-0.16424c0.64043,-1.20928 1.61943,-1.3826 2.34766,-1.30572h2.84917v1.12413c7.73379,3.21314 15.56634,2.62726 24.00395,2.87587c4.98666,0.14693 9.97455,0.44593 14.95912,0.70375c1.45841,-0.18866 2.91501,-0.41506 4.37559,-0.56786l0.16275,-0.77173l-0.44708,-2.36357c0,0 0.41637,0.00905 0.90553,0.18971zM303.19098,424.05101c1.81882,0.21549 3.63698,0.43524 5.4533,0.66588c2.42689,0.02295 4.84465,0.09859 7.24244,0.2597c2.76563,-0.10204 5.5548,0.09668 8.3289,0.12812c-0.25505,-0.10559 -0.513,-0.20395 -0.77486,-0.29257c-2.48591,-0.84136 -5.2064,-1.36468 -7.91376,-1.83304c-0.45198,0.64604 -1.20159,1.06853 -2.04987,1.06853c-0.00002,0 -0.00004,0 -0.00006,0h-0.00001l-2.49999,-0.00006c-2.59468,-0.00006 -5.19073,0.01833 -7.78609,0.00344z" fill="#ffffff" stroke="none" stroke-width="0.5" stroke-linecap="butt"/></g></g></svg>