<svg xmlns="http://www.w3.org/2000/svg" xmlns:xlink="http://www.w3.org/1999/xlink" version="1.1" width="217.68989" height="286.20765" viewBox="0,0,217.68989,286.20765"><g><g data-paper-data="{&quot;isPaintingLayer&quot;:true}" fill-rule="nonzero" stroke-linecap="butt" stroke-linejoin="miter" stroke-miterlimit="10" stroke-dasharray="" stroke-dashoffset="0" style="mix-blend-mode: normal"><g data-paper-data="{&quot;index&quot;:null}"><path d="M 123.2931 281.3262 L 130.6463 229.186 L 162.0641 229.186 L 172.0911 281.3262 Z " data-paper-data="{&quot;origPos&quot;:null}" fill="#d6bbff" stroke="#9d85c1" stroke-width="5"/><g data-paper-data="{&quot;origPos&quot;:null}"><path d="M 155.248 283.1694 C 155.248 279.1084 159.4246 275.8163 164.5768 275.8163 C 169.7288 275.8163 173.9054 279.1084 173.9054 283.1694 C 173.9054 284.0335 173.4439 286.2076 173.4439 286.2076 C 173.4439 286.2076 167.9388 286.1297 164.3635 286.1297 C 161.0747 286.1297 156.1234 285.8894 156.1234 285.8894 C 156.1234 285.8894 155.248 284.1603 155.248 283.1694 Z " data-paper-data="{&quot;origPos&quot;:null}" stroke-width="1" fill="#ecf3ac" stroke="none"/><path d="M 137.7634 283.1694 C 137.7634 279.1084 141.94 275.8163 147.0921 275.8163 C 152.2442 275.8163 156.4208 279.1084 156.4208 283.1694 C 156.4208 284.0335 155.9593 286.2076 155.9593 286.2076 C 155.9593 286.2076 150.4542 286.1297 146.8788 286.1297 C 143.5901 286.1297 138.6387 285.8894 138.6387 285.8894 C 138.6387 285.8894 137.7634 284.1603 137.7634 283.1694 Z " data-paper-data="{&quot;origPos&quot;:null}" stroke-width="1" fill="#ecf3ac" stroke="none"/><path d="M 129.8207 275.8163 C 134.9728 275.8163 139.1494 279.1084 139.1494 283.1694 C 139.1494 284.0335 138.6879 286.2076 138.6879 286.2076 C 138.6879 286.2076 133.1827 286.1298 129.6074 286.1298 C 126.3187 286.1298 121.3673 285.8894 121.3673 285.8894 C 121.3673 285.8894 120.492 284.1604 120.492 283.1694 C 120.492 279.1085 124.6686 275.8163 129.8207 275.8163 Z " data-paper-data="{&quot;origPos&quot;:null}" stroke-width="1" fill="#ecf3ac" stroke="none"/></g></g><g data-paper-data="{&quot;index&quot;:null}"><path d="M 44.0303 265.2941 L 67.3118 218.0644 L 97.1556 227.8843 L 90.3834 280.5463 Z " data-paper-data="{&quot;origPos&quot;:null}" fill="#d6bbff" stroke="#9d85c1" stroke-width="5"/><g data-paper-data="{&quot;origPos&quot;:null}"><path d="M 73.8081 277.0327 C 75.0774 273.1751 80.0737 271.3534 84.9677 272.9637 C 89.8616 274.574 92.8 279.0066 91.5307 282.8641 C 91.2606 283.685 90.1427 285.6059 90.1427 285.6059 C 90.1427 285.6059 84.9377 283.8113 81.5416 282.6938 C 78.4176 281.6659 73.7894 279.89 73.7894 279.89 C 73.7894 279.89 73.4983 277.974 73.8081 277.0327 Z " data-paper-data="{&quot;origPos&quot;:null}" stroke-width="1" fill="#ecf3ac" stroke="none"/><path d="M 57.1994 271.5678 C 58.4687 267.7102 63.4651 265.8885 68.359 267.4988 C 73.253 269.1091 76.1914 273.5417 74.9221 277.3993 C 74.652 278.22 73.5341 280.141 73.5341 280.141 C 73.5341 280.141 68.3291 278.3464 64.9329 277.2289 C 61.809 276.201 57.1808 274.4251 57.1808 274.4251 C 57.1808 274.4251 56.8897 272.509 57.1994 271.5678 Z " data-paper-data="{&quot;origPos&quot;:null}" stroke-width="1" fill="#ecf3ac" stroke="none"/><path d="M 51.9529 262.1005 C 56.8469 263.7108 59.7852 268.1434 58.516 272.0009 C 58.2459 272.8217 57.128 274.7427 57.128 274.7427 C 57.128 274.7427 51.923 272.948 48.5268 271.8306 C 45.4028 270.8026 40.7746 269.0268 40.7746 269.0268 C 40.7746 269.0268 40.4836 267.1107 40.7933 266.1694 C 42.0626 262.3119 47.0589 260.4902 51.9529 262.1005 Z " data-paper-data="{&quot;origPos&quot;:null}" stroke-width="1" fill="#ecf3ac" stroke="none"/></g></g><path d="M 153.9554 183.057 C 151.0856 218.8807 164.9838 233.7608 106.282 236.2764 C 77.4808 237.5107 64.9309 223.4883 65.1693 189.1883 C 65.4189 153.2713 78.8863 117.7693 107.7171 118.1198 C 136.5479 118.4703 156.8251 147.2333 153.9554 183.057 Z " fill="#c5aceb" stroke="#9d85c1" stroke-width="2.5"/><path d="M 36.3729 238.446 L 75.9387 150.9987 L 154.6135 150.5998 L 192.2212 239.4575 Z " data-paper-data="{&quot;index&quot;:null}" fill="#999bff" stroke="#7850c7" stroke-width="5"/><path d="M 60.3208 121.97 C 79.955 119.0276 98.2094 127.0775 101.0932 139.9498 C 103.977 152.8222 84.704 155.0145 65.0698 157.9569 C 51.0592 160.0565 35.3407 161.8287 25.1343 157.4873 C 21.0377 155.7447 17.6075 153.7594 15.8731 149.2733 C 13.8101 143.9375 15.5008 139.5156 16.0102 136.2868 C 17.9011 124.3019 44.8537 124.2878 60.3209 121.9699 Z " fill="#d6bbff" stroke="#9d85c1" stroke-width="5"/><g><path d="M 213.134 80.3279 C 201.4232 159.7245 173.8245 131.0451 159.4725 127.8794 C 145.1206 124.7137 137.8462 80.0566 143.9063 52.5829 C 149.9663 25.1093 166.5136 5.4037 180.8655 8.5695 C 195.2175 11.7352 220.2476 41.2808 213.134 80.3279 Z " data-paper-data="{&quot;origRot&quot;:0,&quot;index&quot;:null}" fill="#d6bbff" stroke="#9d85c1" stroke-width="5"/><path d="M 41.9308 80.3866 C 41.9308 37.371 76.8019 2.5 119.8175 2.5 C 162.8331 2.5 197.7041 37.371 197.7041 80.3866 C 197.7041 123.4023 162.8331 158.2733 119.8175 158.2733 C 76.8019 158.2733 41.9308 123.4023 41.9308 80.3866 Z " fill="#d6bbff" stroke="#9d85c1" stroke-width="5"/><path d="M173.53798,226.22948c0,-37.47893 30.38271,-67.86163 67.86164,-67.86163c37.47893,0 67.86163,30.3827 67.86163,67.86163c0,37.47893 -30.3827,67.86164 -67.86163,67.86164c-37.47893,0 -67.86164,-30.3827 -67.86164,-67.86164z" fill="#d6bbff" stroke="none" stroke-width="0" transform="matrix(1,0,0,1,-114.64175,-146.614)"/><path d="M210.39555,254.02761c0,4.78831 -4.79748,8.67 -10.71542,8.67c-5.91793,0 -10.71541,-3.88169 -10.71541,-8.67c0,-4.78832 4.79748,-8.67 10.71541,-8.67c5.91799,0 10.71542,3.88169 10.71542,8.67z" fill="#ffc0bb" stroke="none" stroke-width="0" transform="matrix(1,0,0,1,-114.64175,-146.614)"/><path d="M303.60486,258.4393c-1.38265,4.78828 -2.37785,7.05696 -3.80223,7.05696c-5.91793,0 -10.02411,-3.88169 -10.02411,-8.67001c0,-4.78829 4.79748,-8.66997 10.71541,-8.66997c5.918,0 4.42122,5.74529 3.11093,10.28301z" fill="#ffc0bb" stroke="none" stroke-width="0" transform="matrix(1,0,0,1,-114.64175,-146.614)"/><path d="M271.8846,240.57294c0,-9.19939 7.45756,-16.65695 16.65695,-16.65695c9.19939,0 16.65695,7.45756 16.65695,16.65695c0,9.19939 -7.45756,16.65694 -16.65695,16.65694c-9.19939,0 -16.65695,-7.45756 -16.65695,-16.65694z" fill="#3a3a3a" stroke="none" stroke-width="0" transform="matrix(1,0,0,1,-114.64175,-146.614)"/><path d="M204.63989,239.95604c0,-9.19939 7.45756,-16.65695 16.65694,-16.65695c9.19939,0 16.65695,7.45756 16.65695,16.65695c0,9.19939 -7.45756,16.65694 -16.65695,16.65694c-9.19939,0 -16.65694,-7.45756 -16.65694,-16.65694z" fill="#3a3a3a" stroke="none" stroke-width="0" transform="matrix(1,0,0,1,-114.64175,-146.614)"/><g data-paper-data="{&quot;origRot&quot;:0}"><path d="M 213.6777 133.5055 C 218.3163 152.5793 213.7074 165.4765 179.5781 160.4045 C 166.5781 158.4725 144.4485 143.0624 136.0127 133.8147 C 127.577 124.567 127.1929 102.9772 127.1929 102.9772 L 155.0555 99.9716 C 155.0555 99.9716 158.5476 122.1596 170.7876 124.2588 C 185.4364 126.7711 209.039 114.4317 213.6777 133.5055 Z " data-paper-data="{&quot;origRot&quot;:0}" stroke="#9d85c1" stroke-width="5" fill="#d6bbff"/><path d="M 134.138 119.3409 L 126.4188 99.6565 L 152.9191 97.6818 L 157.9764 116.8129 Z " data-paper-data="{&quot;origRot&quot;:0,&quot;origPos&quot;:null}" stroke="none" stroke-width="1" fill="#d6bbff"/></g><path d="M 2.5 73.6567 C 6.0522 24.267 45.4681 12.0616 58.4466 15.1976 C 70.868 18.1989 58.1391 55.9508 52.8814 83.2816 C 52.6455 84.5077 54.785 86.9014 54.5472 88.0815 C 49.0076 115.5665 73.1594 137.3832 60.1808 134.2472 C 47.2023 131.1112 4.345 112.8976 2.5 73.6566 Z " data-paper-data="{&quot;origRot&quot;:0}" fill="#d6bbff" stroke="#9d85c1" stroke-width="5"/><path d="M 39.703 83.6897 C 39.9798 69.083 43.505 37.4822 52.4521 26.0302 C 54.7395 23.1024 63.9688 27.3178 65.6356 27.3519 C 69.1427 27.4238 73.8604 27.2916 71.9659 36.7114 C 69.4383 49.2803 60.5011 57.245 60.3024 79.6142 C 59.3606 118.7546 75.4527 131.4662 67.266 131.2983 C 63.9242 131.2298 55.6886 131.0946 50.6519 124.0839 C 43.3499 113.9202 39.4974 94.5438 39.7031 83.6897 Z " data-paper-data="{&quot;origRot&quot;:0}" fill="#d6bbff" stroke="none" stroke-width="1"/></g><path d="M 132.3358 189.643 C 119.6687 192.2526 102.4214 198.1193 92.8202 193.0991 C 87.7567 190.4516 85.9209 183.4829 85.6079 174.2273 C 85.0433 157.5278 103.2019 158.4023 122.5493 154.4166 C 141.8967 150.4308 160.6139 145.8686 163.0167 158.8754 C 165.4195 171.8821 151.6832 185.6573 132.3358 189.643 Z " fill="#d6bbff" stroke="#9d85c1" stroke-width="5"/><path d="M204.64686,226.6717v-8.51123h101.56734v8.51123l-51.06738,6.24157z" fill="#d6bbff" stroke="none" stroke-width="0" transform="matrix(1,0,0,1,-114.64175,-146.614)"/><path d="M166.18311,322.54026c0,-4.41828 3.58172,-8 8,-8c4.41828,0 8,3.58172 8,8c0,4.41828 -3.58172,8 -8,8c-4.41828,0 -8,-3.58172 -8,-8z" fill="#f7b7ff" stroke="none" stroke-width="0" transform="matrix(1,0,0,1,-114.64175,-146.614)"/></g></g></svg>