<svg version="1.1" xmlns="http://www.w3.org/2000/svg" xmlns:xlink="http://www.w3.org/1999/xlink" width="366.20955" height="416.42311" viewBox="0,0,366.20955,416.42311"><g transform="translate(-88.05698,-17.63676)"><g data-paper-data="{&quot;isPaintingLayer&quot;:true}" fill-rule="nonzero" stroke-linejoin="miter" stroke-miterlimit="10" stroke-dasharray="" stroke-dashoffset="0" style="mix-blend-mode: normal"><g data-paper-data="{&quot;index&quot;:null}" stroke="#131313" stroke-linecap="butt"><path d="M317.33426,208.23938l6.95275,-8.80573l46.30115,36.55793l-6.95267,8.80574z" fill="#222222" stroke-width="2"/><path d="M315.21488,211.0809l4.87659,-6.28615l46.07339,36.83433l-4.87652,6.28616z" fill="#434343" stroke-width="2"/><path d="M406.77763,299.33483c-12.32816,-8.23373 -24.8202,-18.83855 -34.5415,-29.8543c-9.72129,-11.01574 -14.84771,-20.37536 -15.2767,-26.59747c-0.42897,-6.22207 3.83946,-9.30708 12.90693,-7.77418c9.06751,1.53295 21.23261,7.39612 33.56072,15.62981c12.32816,8.23373 24.82021,18.83856 34.54144,29.85426c9.72129,11.01574 14.84772,20.37536 15.27674,26.59747c0.42899,6.22211 -3.83943,9.30712 -12.90694,7.77417c-9.06748,-1.5329 -21.23262,-7.39612 -33.5607,-15.62977z" fill="#222222" stroke-width="2.04252"/><path d="M409.13273,300.73129c-11.84043,-8.31065 -24.30743,-18.77298 -34.58229,-29.40846c-10.27493,-10.63557 -16.42977,-19.44861 -18.07297,-25.09482c-1.64322,-5.64625 1.22515,-8.12604 8.99573,-6.09568c7.7706,2.03039 18.98533,8.1899 30.82582,16.50057c11.8404,8.31059 24.30744,18.77299 34.58229,29.40847c10.27492,10.63552 16.42974,19.44855 18.07297,25.09481c1.6432,5.64621 -1.22518,8.12599 -8.99576,6.09564c-7.77058,-2.03035 -18.98534,-8.1899 -30.82579,-16.50053z" fill="#434343" stroke-width="2"/></g><g stroke-linecap="butt"><path d="M314.641,202.63695c0.18923,4.22859 2.87172,11.38054 6.86742,13.28038c0.79883,0.37982 1.70046,-0.49364 2.52944,-0.80216c1.39319,-0.51851 2.8919,-0.69106 4.32997,-1.06761c3.7923,-0.993 5.89231,-1.80582 8.8185,-4.33158c0.81152,-0.70048 1.89167,-1.16144 1.95896,-2.41199c0.11267,-2.09383 -1.01195,-4.23096 -1.97649,-5.98369c-1.71733,-2.36053 -1.67171,-2.43315 -3.85907,-4.77018c-0.89844,-0.95991 -3.65281,-4.39054 -5.45359,-4.81935c-3.20222,-0.7625 -5.40936,2.28328 -7.14428,4.28235c-1.96095,2.25949 -4.06883,4.39841 -6.07087,6.62383zM310.61696,203.87589c-1.12329,-1.14291 -0.14017,-2.55858 -0.14017,-2.55858l0.76685,-1.07793c4.29191,-4.81821 10.02692,-14.29827 17.60034,-12.51918c2.87197,0.67466 5.65589,4.0543 7.48785,6.01434c2.42664,2.59629 2.37987,2.69201 4.32734,5.37719c1.38401,2.54581 2.97515,5.68093 2.58236,8.7226c-0.35823,2.77399 -1.47954,3.34942 -3.33532,4.99013c-3.32343,2.93825 -6.19589,4.11257 -10.50014,5.2209c-3.25538,0.83824 -6.02134,2.87249 -9.41118,1.71511c-1.80694,-0.61694 -3.61497,-2.87324 -4.6869,-4.21929c-2.47587,-3.10902 -4.22959,-7.60039 -4.69102,-11.66529z" fill="#917c67" stroke="none" stroke-width="0.5"/><path d="M320.69083,195.97756c1.73492,-1.99906 3.96844,-5.05025 7.17066,-4.28775c1.80077,0.42879 4.57636,3.86875 5.47479,4.82866c2.18736,2.33703 2.15422,2.42784 3.87156,4.78837c0.96454,1.75273 2.09085,3.91009 1.97818,6.00393c-0.06729,1.25054 -1.15002,1.72051 -1.96154,2.42099c-2.92619,2.52576 -5.0542,3.36282 -8.8465,4.35582c-1.43807,0.37655 -2.95531,0.54952 -4.3485,1.06803c-0.82898,0.30852 -1.73843,1.17954 -2.53726,0.79972c-3.99572,-1.89984 -6.70236,-9.09857 -6.89159,-13.32717c2.00203,-2.22542 4.12926,-4.3911 6.0902,-6.65059z" data-paper-data="{&quot;noHover&quot;:false,&quot;origItem&quot;:[&quot;Path&quot;,{&quot;applyMatrix&quot;:true,&quot;segments&quot;:[[[428.86314,405.21783],[3.11931,5.11002],[-8.21198,-2.05682]],[[399.48319,410.78005],[5.92709,-6.5704],[-1.18496,1.31357]],[[399.57321,416.08647],[-0.11695,-1.76519],[0.19655,2.96659]],[[399.14174,424.9953],[0.10118,-2.97137],[-0.26682,7.83576]],[[402.39717,444.37354],[-3.16613,-7.05293],[0.87807,1.956]],[[405.89866,449.50778],[-2.35804,-0.84448],[3.94818,1.41395]],[[418.49674,449.14368],[-3.91082,0.84561],[5.50633,-1.9405]],[[429.8464,444.47746],[-5.73025,2.85472],[2.35363,-1.17254]],[[442.20259,436.78361],[-1.85209,3.20568],[3.29346,-5.70048]],[[438.08357,420.64202],[2.83836,4.46861],[-3.20813,-5.05077]]],&quot;closed&quot;:true}]}" fill="#d9bb9a" stroke="none" stroke-width="0.5"/><path d="M321.91102,197.43766c0.15871,-0.44926 0.48239,-0.76687 0.75419,-0.96728c0.23167,-0.22793 0.61394,-0.52289 1.10814,-0.61658c0.51777,-0.4294 1.03555,-0.8588 1.55332,-1.2882c1.13067,-0.19599 2.26329,-0.79477 3.39204,-0.58798c1.61993,0.29679 3.38268,2.3126 4.34669,3.54483c0.86073,1.10023 2.19957,3.08661 2.65061,4.43766c0.6643,1.98985 0.87564,4.18628 -0.34749,6.09567c-0.53573,0.8363 -1.55204,1.24574 -2.3886,1.78106c-2.57991,1.65088 -6.30619,3.2984 -9.45299,3.05525c-4.65798,-0.35992 -7.61917,-4.4539 -6.24402,-8.94676c0.76901,-2.51248 3.0097,-4.44011 4.62812,-6.50766z" fill="#ffdbb5" stroke="none" stroke-width="0.5"/><path d="M319.13423,193.69171c-6.82214,3.45747 -11.34984,9.9837 -11.34984,9.9837l-14.32932,-18.01579l20.48416,-10.93542l17.19216,12.21464c0,0 -5.58513,3.50326 -11.99718,6.75287z" fill="#403328" stroke="#292018" stroke-width="4"/></g><g stroke-linecap="butt"><g fill="#d9bb9a" stroke="none" stroke-width="0"><path d="M321.53669,182.79996c1.96516,1.92599 -13.50712,9.08923 -14.04201,9.63499c-0.53487,0.54575 -2.23678,-1.69544 -4.20195,-3.62145c-1.96516,-1.92599 -4.52093,-3.55958 -3.98606,-4.10533c0.08911,-0.09091 15.85133,-5.949 16.75963,-5.4959c2.39879,1.19664 3.83257,1.98253 5.47038,3.58769z"/></g><path d="M311.12341,185.82666c-3.1104,1.53262 -10.64857,4.28258 -10.64857,4.28258c0,0 -17.15636,-10.71155 -23.29119,-15.35452c-6.10327,-4.61908 -22.21623,-17.6964 -22.21623,-17.6964l12.6844,-22.56474c0,0 13.29392,8.19257 20.37545,14.58064c7.24523,6.53574 33.22044,29.72579 33.22044,29.72579c0,0 -6.55291,5.26692 -10.12428,7.02667z" fill="#403328" stroke="#292018" stroke-width="4"/></g><g data-paper-data="{&quot;index&quot;:null}"><path d="M286.5103,428.87683c-1.00155,3.47254 -2.39575,3.17677 -2.39575,3.17677c0,0 -17.83909,2.67891 -34.33414,1.62416c-3.63916,-0.23269 -3.38136,-4.0704 -6.27337,-5.83933c-2.28262,-1.39619 -1.04911,-1.72694 -1.94855,-1.80466c-2.98967,-0.25833 -2.84479,-1.0764 -2.84479,-1.0764c0,0 0.5286,-16.44245 0.60157,-18.19363c0.13966,-3.35192 1.24234,-14.1171 1.24234,-14.1171l33.79241,-2.39474l3.19298,11.17544c0,0 0.57618,7.6378 5.69462,12.57314c3.08637,2.97597 4.30727,11.28923 3.27269,14.87635z" fill="#403328" stroke="#292018" stroke-width="4" stroke-linecap="butt"/><path d="M272.44357,425.20251l11.18175,1.42173l-1.6028,2.5695c0,0 -11.2964,1.41923 -17.01104,1.70028c-5.01416,0.2466 -13.32229,-0.36987 -13.32229,-0.36987c0,0 -2.66083,1.04866 -2.66083,-1.59649c0,-2.64515 23.41522,-3.72515 23.41522,-3.72515z" fill="#775f4a" stroke="none" stroke-width="0" stroke-linecap="butt"/><path d="M254.97496,416.88075c0,0 7.21396,-1.56445 12.77469,-1.79616c5.029,-0.20955 14.63174,1.264 14.63174,1.264" fill="none" stroke="#292018" stroke-width="4" stroke-linecap="round"/><path d="M277.543,402.51231c0,0 -5.88181,2.74419 -9.26706,3.09847c-4.10341,0.42943 -13.61598,-0.70372 -13.61598,-0.70372l-3.19298,-10.37721l17.02925,7.18421" fill="none" stroke="#292018" stroke-width="4" stroke-linecap="round"/><path d="M255.4582,403.31056l14.10235,-8.51462l1.33041,7.98246" fill="none" stroke="#292018" stroke-width="4" stroke-linecap="round"/></g><g data-paper-data="{&quot;index&quot;:null}"><path d="M125.35593,376.14135c-3.59908,0.32909 -3.83027,-1.07727 -3.83027,-1.07727c0,0 -8.97953,-15.64537 -13.99225,-31.39567c-1.10592,-3.47484 2.56303,-4.62954 3.15984,-7.96671c0.47106,-2.63397 1.22752,-1.60504 0.97301,-2.47121c-0.84597,-2.8791 -0.03119,-3.04146 -0.03119,-3.04146c0,0 15.51006,-5.48377 17.168,-6.05228c3.17344,-1.08819 13.60315,-3.97366 13.60315,-3.97366l14.51323,30.61091l-9.25061,7.03646c0,0 -6.90602,3.31282 -9.64347,9.87502c-1.65066,3.95694 -8.95162,8.1159 -12.66944,8.45586z" fill="#403328" stroke="#292018" stroke-width="4" stroke-linecap="butt"/><path d="M123.66623,361.70118l2.73965,10.93376l-2.97632,-0.55927c0,0 -5.42798,-10.00799 -7.76687,-15.22965c-2.05219,-4.58161 -4.49758,-12.5456 -4.49758,-12.5456c0,0 -1.94405,-2.09771 0.52019,-3.05912c2.46424,-0.96141 11.98093,20.45987 11.98093,20.45987z" fill="#775f4a" stroke="none" stroke-width="0" stroke-linecap="butt"/><path d="M125.06967,342.40262c0,0 4.07946,6.15197 6.31644,11.24818c2.02307,4.6089 4.14054,14.09048 4.14054,14.09048" fill="none" stroke="#292018" stroke-width="4" stroke-linecap="round"/><path d="M146.65806,358.20481c0,0 -4.69433,-4.48214 -6.25479,-7.5071c-1.8915,-3.66669 -4.2933,-12.94054 -4.2933,-12.94054l8.50697,-6.74633l-0.50338,18.47579" fill="none" stroke="#292018" stroke-width="4" stroke-linecap="round"/><path d="M137.88742,337.92055l13.05797,10.04313l-6.95298,4.14075" fill="none" stroke="#292018" stroke-width="4" stroke-linecap="round"/></g><path d="M191.01417,83.1497c4.00406,-5.07131 11.66642,-22.05595 11.66642,-22.05595l76.68251,24.40541c0,0 -5.34682,19.00267 -5.75951,25.92277c-0.26898,4.51044 1.02855,5.78838 1.02855,5.78838c0,0 -4.77228,4.45716 -7.87685,3.55226c-0.99419,-0.28978 -3.11832,-0.9229 -4.54033,-1.29028c-0.56725,-0.14655 -3.60775,8.43931 -3.60775,8.43931c0,0 -4.87541,2.41749 -8.19171,1.50621c-1.37568,-0.37803 -5.72207,-2.48989 -7.19004,-2.84801c-1.6543,-0.40358 -5.41653,0.04624 -8.20685,0.14841c-4.50959,0.16511 -9.91533,-1.93228 -9.91533,-1.93228c0,0 -4.091,-2.99001 -6.91192,-5.57129c-2.33127,-2.13321 -3.21492,-3.83631 -5.35099,-4.68091c-1.43115,-0.56588 -13.33752,-1.35933 -14.14219,-1.63874c-1.95687,-0.67948 -8.80225,-7.09757 -8.80225,-7.09757c0,0 3.77029,-5.87566 2.5885,-6.3358c-1.57782,-0.61433 -2.46513,-4.56033 -3.3489,-4.95803c-2.73252,-1.22969 -3.42864,-6.98346 -3.42864,-6.98346c0,0 2.35479,-0.63098 5.30727,-4.37042z" data-paper-data="{&quot;index&quot;:null}" fill="#14161a" stroke="#14161a" stroke-width="4" stroke-linecap="butt"/><path d="M200.30921,190.60501c0,0 2.70207,-32.95208 0.45431,-37.25438c-0.39917,-0.76405 -4.25945,-7.0311 -10.26423,-8.69033c-4.5701,-1.26281 -11.99564,2.4359 -10.64731,-0.14751c3.11994,-5.97783 12.08448,-9.19225 17.22356,-10.43162c10.46004,-2.5226 23.3407,-10.04987 32.44946,-10.04987c9.9556,0 21.0822,4.46167 34.41753,9.23404c12.95799,4.63733 9.30067,13.46349 9.30067,13.46349c0,0 -11.70157,7.59435 -12.14112,8.32621c-2.12732,3.542 -2.94667,33.95348 -2.94667,33.95348l7.17737,37.25845c0,0 -12.96309,10.26101 -36.50054,9.68748c-21.93372,-0.53445 -36.29265,-8.25762 -36.29265,-8.25762z" data-paper-data="{&quot;index&quot;:null}" fill="#95d2a1" stroke="#67916f" stroke-width="4" stroke-linecap="butt"/><path d="M249.26551,166.29671c0,1.43813 -1.17474,8.83633 -0.68779,12.37378c1.67519,12.16943 6.67434,28.1724 4.64778,29.50494c-4.97767,3.27299 -21.65178,1.46977 -26.66987,1.518c-4.0701,0.03912 -18.60016,0.34756 -22.77946,-3.43832c-3.24289,-2.93763 2.09477,-14.9148 3.90599,-27.5867c0.523,-3.6591 -0.76879,-10.61981 -0.76879,-13.43332c0,-3.03332 -4.37042,-16.64263 -5.86055,-19.74072c-0.54554,-1.13421 -4.52245,1.00834 -6.31085,0.25138c-1.55106,-0.6565 -0.97003,-4.18822 -1.07038,-5.36611c-0.19647,-2.30635 4.13899,-5.46238 8.70721,-6.95809c4.56822,-1.49572 19.20257,-4.37018 25.89162,-4.37018c6.89043,0 20.77042,1.86564 26.62256,4.61672c1.10361,0.5188 8.28366,3.11672 7.43627,5.98293c-0.61205,2.07019 -0.47598,6.02482 -2.57896,6.71288c-2.31393,0.75708 -6.86197,-1.81934 -7.071,-0.83632c-1.00219,4.71316 -3.41381,17.74228 -3.41381,20.76914z" data-paper-data="{&quot;index&quot;:null}" fill="#a6eab4" stroke="none" stroke-width="0" stroke-linecap="butt"/><g data-paper-data="{&quot;index&quot;:null}" stroke-linecap="butt"><path d="M204.10237,129.09999l1.0404,-8.78361c0,0 13.67279,-1.56741 24.40023,-1.46224c10.72745,0.10517 27.94324,2.72087 27.94324,2.72087v5.58772z" fill="#292018" stroke="#292018" stroke-width="4"/><g><path d="M213.53986,117.52735l33.30091,0.24216l0.40645,13.46911c0,0 -5.00848,9.02158 -13.992,8.91683c-8.69851,-0.10144 -22.59942,-9.82688 -22.59942,-9.82688z" fill="#d9bb9a" stroke="#917c67" stroke-width="4"/><path d="M240.71651,127.39631c0,1.23441 -2.20831,3.08655 -4.93241,3.08655c-2.72409,0 -4.93242,-1.85215 -4.93242,-3.08655c0,-1.23441 2.20832,-1.38362 4.93242,-1.38362c2.72409,0 4.93241,0.14922 4.93241,1.38362z" fill="#ffdbb5" stroke="none" stroke-width="0"/></g></g><g data-paper-data="{&quot;index&quot;:null}" stroke-linecap="butt"><g fill="#465b9c"><path d="M190.65353,297.61748c1.05539,-7.5918 2.9177,-27.5213 2.9177,-27.5213l32.5371,1.27273c0,0 0.4632,27.52842 -0.60892,36.02357c-1.12814,8.93912 -3.43607,22.53719 -3.43607,22.53719c0,0 -11.70686,4.40191 -16.98345,4.41854c-5.04381,0.0159 -14.63723,-3.7053 -14.63723,-3.7053c0,0 -1.05744,-23.90209 0.21087,-33.02543z" stroke="#2e3c67" stroke-width="4"/><path d="M195.13656,272.7012l0.17514,-4.58865l24.12922,0.90058l-0.17514,4.58865z" stroke="none" stroke-width="0"/></g><path d="M197.16817,280.85581c1.10933,-14.22194 3.20129,-26.10284 9.26862,-26.02187c14.02856,0.18724 11.92915,13.35513 9.91296,36.43313c-1.19791,13.71172 -4.16151,28.95937 -7.79549,35.45595c-1.81595,3.24645 -5.22755,4.34496 -6.98995,4.34496c-2.58897,0 -5.29502,-0.96406 -6.52546,-3.42988c-0.74182,-1.48659 0.76356,-5.38365 0.46454,-9.14993c-0.21827,-2.74932 -0.32369,-6.24464 -0.32369,-10.68841c0,-6.15584 1.51662,-20.89481 1.98847,-26.94394z" fill="#5671c0" stroke="none" stroke-width="0"/></g><g data-paper-data="{&quot;index&quot;:null}" stroke-linecap="butt"><g fill="#465b9c"><path d="M144.44188,320.19585l4.57737,0.06441l1.59069,-2.54427l3.8945,-0.07449c0,0 17.55253,-6.26032 22.10305,-7.30781c7.47758,-1.72128 29.27491,-8.68609 29.27491,-8.68609l12.28841,30.36584c0,0 -26.45643,12.56048 -34.782,14.59366c-3.46841,0.84701 -16.8888,4.15134 -16.8888,4.15134l-3.8837,1.33498l-2.6957,-0.97462l-4.17526,2.70562c0,0 -6.19785,-11.17556 -8.23815,-16.35942c-1.9503,-4.95517 -3.06531,-17.26914 -3.06531,-17.26914z" stroke="#2e3c67" stroke-width="4"/><path d="M204.38163,305.52337l5.09401,-1.78892l11.12047,26.32928c0,0 -5.05675,1.72095 -6.33392,1.50989c-0.49356,-0.08156 -2.85519,-6.12052 -2.85519,-6.12052z" stroke="none" stroke-width="0"/></g><path d="M208.16958,305.7734c4.33224,-0.65748 3.45818,2.23653 4.64283,5.02817c0.53604,4.37019 5.77219,7.79167 2.10436,8.6192c-17.6859,3.99027 -38.25844,12.71396 -43.95576,14.66938c-3.21209,1.10244 -8.56344,6.5005 -11.79907,3.55139c-1.25766,-1.1463 -3.48567,-4.43782 -4.07563,-7.48844c-0.62044,-3.20823 -0.89749,-5.32006 0.11135,-7.05269c1.00883,-1.73263 4.54356,-0.24562 4.65191,-1.12791c0.34516,-2.81078 15.99655,-4.71757 25.9144,-8.12156c5.27983,-1.81214 17.47387,-7.32909 22.40561,-8.07754z" fill="#5671c0" stroke="none" stroke-width="0"/></g><path d="M201.28179,73.0882c8.02534,-25.20471 27.80792,-34.70791 49.91984,-27.66733c22.11193,7.04057 32.75782,26.23239 24.7325,51.4371c-8.02533,25.20472 -35.00286,35.64609 -45.14849,32.63371c-23.29677,-6.91712 -37.52919,-31.19876 -29.50385,-56.40348z" data-paper-data="{&quot;index&quot;:null}" fill="#d9bb9a" stroke="#917c67" stroke-width="4" stroke-linecap="butt"/><path d="M270.0003,95.52709c-6.42028,20.16377 -27.09804,31.67279 -37.32614,28.41611c-20.15309,-6.08956 -31.97201,-28.27304 -25.55174,-48.43682c6.42028,-20.16377 22.26721,-30.32873 42.6369,-23.8429c20.11615,6.4051 26.66126,23.69984 20.241,43.86361z" fill="#ffdbb5" stroke="none" stroke-width="0" stroke-linecap="butt"/><path d="M248.47893,106.98514c-0.42964,1.28189 -4.12011,3.37587 -7.18548,2.34847c-3.06537,-1.02741 -4.29438,-3.06759 -3.86473,-4.34947c0.42964,-1.28189 2.35524,-1.32004 5.42061,-0.29264c3.06537,1.02741 6.05925,1.01175 5.6296,2.29365z" fill="#d9bb9a" stroke="none" stroke-width="0" stroke-linecap="butt"/><path d="M233.3197,126.7954c-6.26992,-2.17214 -4.76318,-16.32188 -4.76318,-16.32188c0,0 5.76301,5.05231 9.41066,6.16359c3.55995,1.08455 10.50295,0.73527 10.50295,0.73527c0,0 -8.88051,11.59517 -15.15043,9.42302z" fill="none" stroke="#d9bb9a" stroke-width="4" stroke-linecap="round"/><g data-paper-data="{&quot;index&quot;:null}" stroke-linecap="butt"><g fill="#465b9c"><path d="M236.62261,330.69507c0,0 -2.35586,-13.59806 -3.50742,-22.53719c-1.09437,-8.49514 -0.62154,-36.02356 -0.62154,-36.02356l33.21268,-1.27274c0,0 1.90098,19.92951 2.97827,27.5213c1.29463,9.12335 0.21524,33.02543 0.21524,33.02543c0,0 -9.79262,3.72119 -14.94115,3.70529z" stroke="#2e3c67" stroke-width="4"/><path d="M239.47826,274.36718l-0.17878,-4.58865l24.63025,-0.90059l0.17878,4.58865z" stroke="none" stroke-width="0"/></g><path d="M260.83569,308.36337c0,4.44377 0.09421,7.9391 -0.12861,10.6884c-0.30523,3.76628 0.42422,8.06693 -0.333,9.55352c-1.25598,2.46582 -1.19307,3.02629 -3.8358,3.02629c-1.799,0 -7.29942,-1.09851 -9.15307,-4.34496c-3.70943,-6.49657 -4.71657,-21.74424 -5.93936,-35.45595c-2.05805,-23.078 -4.20106,-36.2459 10.11878,-36.43312c6.19331,-0.08098 7.31972,11.79993 8.4521,26.02187c0.48163,6.04913 0.81896,26.94394 0.81896,26.94394z" fill="#5671c0" stroke="none" stroke-width="0"/></g><g data-paper-data="{&quot;index&quot;:null}" stroke-linecap="butt"><g fill="#465b9c"><path d="M256.87428,395.59129c-5.38615,-0.01662 -17.63008,-1.7287 -17.63008,-1.7287l0.96977,-4.8731l-1.82515,-2.15711l-0.16232,-4.10329c0,0 -1.73978,-13.70354 -2.1957,-17.24261c-1.09437,-8.49514 0.92199,-37.70746 0.92199,-37.70746l31.66912,0.41115c0,0 1.38648,22.83804 2.46379,30.42984c0.6556,4.62004 1.18497,23.24751 1.18497,23.24751l1.30147,3.65522l-1.73268,2.40665l1.66655,4.24089c0,0 -11.48316,3.4369 -16.63169,3.42101z" stroke="#2e3c67" stroke-width="4"/><path d="M245.82393,331.69579c0,0 -6.26926,-0.00518 -6.51616,-0.43534c-0.63892,-1.11311 -0.86583,-6.44953 -0.86583,-6.44953l28.20155,0.58843l0.38059,5.39586z" stroke="none" stroke-width="0"/></g><path d="M261.65964,351.16631c0.41921,10.47678 4.20176,25.7508 1.79134,27.09397c-0.75662,0.42162 1.82487,3.17414 0.61878,4.74373c-1.20609,1.56959 -3.20561,2.07905 -6.31332,2.6671c-2.95503,0.55918 -6.70268,-0.32012 -8.17713,-1.07513c-3.79333,-1.94245 -0.81173,-8.88981 -0.94751,-12.28292c-0.24081,-6.01838 0.38737,-28.35467 -2.23353,-46.28134c-0.54353,-3.71776 4.37826,-0.0833 8.50291,-1.17232c2.93075,0.08897 5.23026,-1.77716 6.16046,2.49775c1.05892,4.86649 0.37482,18.23177 0.59799,23.80915z" fill="#5671c0" stroke="none" stroke-width="0"/></g><g data-paper-data="{&quot;index&quot;:null}"><g><g><path d="M193.32058,273.69352c0,0 0.63571,-18.31854 1.6811,-26.50811c1.0414,-8.15841 4.06504,-19.79014 4.06504,-19.79014l63.97156,0.42572c0,0 3.17288,13.02482 3.49816,19.54905c0.60358,12.10567 -0.32964,27.10398 -0.32964,27.10398l-33.46599,-0.07217l-0.43235,-5.56327l-3.92117,-0.55397l0.21286,5.7848z" fill="#465b9c" stroke="#2e3c67" stroke-width="4" stroke-linecap="butt"/><path d="M237.1308,245.06311c0,0 0.1753,14.15353 -0.25751,18.2756c-0.23364,2.22519 -2.13396,4.50102 -2.13396,4.50102" fill="none" stroke="#2e3c67" stroke-width="4" stroke-linecap="round"/><path d="M226.56852,251.87481v-6.8117h10.56227" fill="none" stroke="#2e3c67" stroke-width="4" stroke-linecap="round"/><path d="M206.91133,241.27059c0,0 -2.78967,9.07125 -4.16556,12.36817c-1.0262,2.45897 -3.35283,5.64728 -3.35283,5.64728" fill="none" stroke="#2e3c67" stroke-width="4" stroke-linecap="round"/><path d="M262.51276,261.41468c0,0 -2.32663,-3.18831 -3.35283,-5.64728c-1.3759,-3.29692 -4.16556,-12.36816 -4.16556,-12.36816" data-paper-data="{&quot;index&quot;:null}" fill="none" stroke="#2e3c67" stroke-width="4" stroke-linecap="round"/><path d="M195.05545,276.60321l0.84834,-10.62262l28.63401,0.27335l-1.18049,10.62262z" fill="#465b9c" stroke="none" stroke-width="0" stroke-linecap="butt"/><path d="M234.89346,277.40872l0.58742,-10.62262l27.709,-0.27333l-0.05347,10.8z" data-paper-data="{&quot;index&quot;:null}" fill="#465b9c" stroke="none" stroke-width="0" stroke-linecap="butt"/></g><g stroke="#281a0d" stroke-width="4" stroke-linecap="butt"><path d="M195.28024,233.78123c0,0 -0.25621,-3.99719 0.03027,-5.66324c0.30957,-1.80034 2.16189,-3.91571 2.16189,-3.91571l9.76513,-0.35477c0,0 3.18861,3.80793 3.18861,5.46355c0,1.65561 -3.18861,4.47018 -3.18861,4.47018z" fill="#3f2b1a"/><path d="M206.44038,234.63269l1.79361,-10.21754l10.16371,0.07096c0,0 3.18861,3.80793 3.18861,5.46355c0,1.65561 -3.18861,4.47018 -3.18861,4.47018z" fill="#67472a"/><path d="M218.59698,234.84555l1.5943,-10.00468l10.36299,-0.14192c0,0 3.18861,3.80794 3.18861,5.46355c0,1.65561 -3.18861,4.47017 -3.18861,4.47017z" fill="#3f2b1a"/><path d="M231.62924,235.34676l0.26286,-10.72394l11.21012,-0.04174c0,0 3.36098,3.63487 3.43762,5.28847c0.07664,1.65359 -2.97779,4.63311 -2.97779,4.63311z" fill="#67472a"/><path d="M243.78082,234.91734l0.86073,-10.29821l10.61226,-0.46747c0,0 3.36098,3.63487 3.43762,5.28846c0.07664,1.65359 -2.97779,4.63311 -2.97779,4.63311z" fill="#3f2b1a"/><path d="M255.94242,234.70815l0.59146,-10.08535l8.42829,-0.68033c0,0 2.64231,3.63487 2.70255,5.28847c0.06026,1.65359 -2.34104,4.63311 -2.34104,4.63311z" fill="#67472a"/></g><path d="M200.37825,235.34436l1.1647,-12.76968l5.77809,-0.14841l0.62891,12.76968z" fill="#465b9c" stroke="#2e3c67" stroke-width="4" stroke-linecap="butt"/><g fill="#67472a" stroke="#281a0d" stroke-width="4" stroke-linecap="butt"><path d="M255.45078,233.57277l5.45478,-8.64844l9.47458,4.23795c0,0 1.27285,4.65756 0.58447,6.14035c-0.68838,1.48279 -4.71478,2.75636 -4.71478,2.75636z"/></g><path d="M223.3799,237.82568c0,0 -1.19573,-4.98486 -1.19573,-7.45029c0,-2.42996 1.19573,-7.23743 1.19573,-7.23743h17.53737c0,0 1.5943,5.71575 1.5943,8.30175c0,2.26808 -1.5943,6.38597 -1.5943,6.38597z" fill="none" stroke="#716b65" stroke-width="4" stroke-linecap="butt"/><path d="M254.38537,235.40882l0.62891,-12.76968l5.77809,0.14841l1.1647,12.76968z" data-paper-data="{&quot;index&quot;:null}" fill="#465b9c" stroke="#2e3c67" stroke-width="4" stroke-linecap="butt"/></g><path d="M217.30682,276.8301c0,3.03703 -13.18633,0.88695 -18.18507,0.88695c-2.67371,0 -0.39622,-11.51649 0.58127,-14.36842c1.16251,-3.39181 6.87552,-6.74074 11.87426,-6.74074c4.99873,0 5.72954,17.18519 5.72954,20.22222z" fill="#5671c0" stroke="none" stroke-width="0" stroke-linecap="butt"/><path d="M240.02264,278.32244c0,-3.03703 0.73081,-20.22222 5.72954,-20.22222c4.99873,0 10.71175,3.34894 11.87426,6.74075c0.97748,2.85193 3.25497,14.36842 0.58127,14.36842c-4.99873,0 -18.18506,2.15009 -18.18506,-0.88694z" data-paper-data="{&quot;index&quot;:null}" fill="#5671c0" stroke="none" stroke-width="0" stroke-linecap="butt"/></g><g data-paper-data="{&quot;index&quot;:null}" stroke="none" stroke-width="0" stroke-linecap="butt"><path d="M272.83389,102.50585c-2.33501,6.96676 -9.31514,10.90938 -15.59053,8.80608c-6.27538,-2.1033 -9.46971,-9.45603 -7.13469,-16.42278c2.33501,-6.96676 9.31515,-10.90936 15.59053,-8.80606c6.2754,2.1033 9.4697,9.45602 7.13469,16.42277z" fill="#d3f0f1"/><path d="M264.2652,86.67355c5.20857,1.74573 7.697,8.33438 5.55806,14.71613c-2.13894,6.38175 -8.0953,10.13999 -13.30387,8.39426c-5.20857,-1.74573 -7.697,-8.33437 -5.55805,-14.71613c2.13895,-6.38175 8.09529,-10.14 13.30387,-8.39426z" fill="#ffffff"/></g><g data-paper-data="{&quot;index&quot;:null}" stroke="none" stroke-width="0" stroke-linecap="butt"><g data-paper-data="{&quot;index&quot;:null}"><path d="M274.24146,101.98023c-1.82923,5.45769 -6.44852,8.83078 -10.31746,7.53404c-3.86895,-1.29674 -5.52246,-6.77226 -3.69323,-12.22994c1.82923,-5.45768 6.44849,-8.83079 10.31744,-7.53405c3.86895,1.29674 5.52248,6.77228 3.69325,12.22995z" fill="#41563d"/><path d="M264.66081,106.14738c-3.57694,-1.19887 -4.51602,-6.85182 -3.50585,-9.86577c1.01017,-3.01395 4.13134,-7.96682 9.82311,-6.05913c3.57695,1.19887 4.66906,7.56389 3.65888,10.57783c-1.01017,3.01394 -6.39919,6.54594 -9.97613,5.34707z" fill="#5f7d59"/></g><path d="M262.53761,94.38347c0.76815,-2.29184 3.24875,-3.52704 5.54058,-2.75889c2.29183,0.76815 3.52704,3.24875 2.75889,5.54059c-0.76815,2.29184 -3.24876,3.52703 -5.54059,2.75889c-2.29183,-0.76815 -3.52703,-3.24874 -2.75888,-5.54058z" fill="#8ebb85"/><path d="M264.67846,99.71692c0.42493,-1.26783 1.79719,-1.95113 3.06501,-1.5262c1.26783,0.42493 1.95112,1.79718 1.52619,3.06501c-0.42493,1.26783 -1.79719,1.95113 -3.06501,1.5262c-1.26783,-0.42493 -1.95112,-1.79719 -1.52619,-3.06502z" fill="#8ebb85"/></g><g data-paper-data="{&quot;index&quot;:null}" stroke="none" stroke-width="0" stroke-linecap="butt"><path d="M228.407,72.686c6.27539,2.1033 9.46971,9.45602 7.13468,16.42279c-2.33501,6.96676 -9.31513,10.90936 -15.59053,8.80606c-6.27538,-2.1033 -9.4697,-9.45601 -7.13468,-16.42277c2.33501,-6.96676 9.31514,-10.90936 15.59052,-8.80606z" fill="#d3f0f1"/><path d="M234.75355,88.7375c-2.13895,6.38177 -8.09529,10.13999 -13.30386,8.39426c-5.20857,-1.74573 -7.69701,-8.33438 -5.55806,-14.71613c2.13895,-6.38175 8.0953,-10.14 13.30387,-8.39426c5.20857,1.74573 7.697,8.33437 5.55805,14.71613z" fill="#ffffff"/></g><g data-paper-data="{&quot;index&quot;:null}" stroke="none" stroke-width="0" stroke-linecap="butt"><g data-paper-data="{&quot;index&quot;:null}"><path d="M232.75316,77.75493c3.86895,1.29674 5.52245,6.77227 3.69323,12.22995c-1.82923,5.45769 -6.44849,8.83079 -10.31744,7.53405c-3.86895,-1.29674 -5.52247,-6.77226 -3.69324,-12.22995c1.82923,-5.45768 6.4485,-8.83079 10.31746,-7.53405z" fill="#41563d"/><path d="M222.83118,84.10905c1.01017,-3.01395 5.71745,-7.43521 9.2944,-6.23634c5.69177,1.90769 5.19776,7.7411 4.18759,10.75504c-1.01017,3.01394 -5.16623,6.95919 -8.74318,5.76032c-3.57694,-1.19887 -5.74898,-7.26507 -4.73881,-10.27902z" fill="#5f7d59"/></g><path d="M230.81306,89.03865c-2.29183,-0.76815 -3.52703,-3.24876 -2.75889,-5.54059c0.76815,-2.29184 3.24876,-3.52705 5.54059,-2.7589c2.29183,0.76815 3.52702,3.24875 2.75887,5.54059c-0.76815,2.29184 -3.24875,3.52704 -5.54058,2.7589z" fill="#8ebb85"/><path d="M228.36609,90.77199c-1.26782,-0.42493 -1.95112,-1.79718 -1.5262,-3.06501c0.42493,-1.26783 1.79719,-1.95114 3.06502,-1.52621c1.26782,0.42493 1.95112,1.7972 1.52619,3.06502c-0.42493,1.26783 -1.79719,1.95113 -3.06501,1.5262z" fill="#8ebb85"/></g><g data-paper-data="{&quot;index&quot;:null}" stroke-linecap="butt"><g data-paper-data="{&quot;index&quot;:null}" fill="#403328"><g><path d="M266.42674,246.48355c-5.79313,0.6874 -21.94008,-8.0931 -21.94008,-8.0931c0,0 0.21491,-51.0209 -0.63615,-69.1985c-0.7886,-16.84341 -0.48505,-25.79275 -0.48505,-25.79275c0,0 7.55991,-4.17116 9.69793,-9.14879c1.30037,-3.02746 0.36813,-5.29971 1.94018,-5.63407c3.71714,-0.79061 5.39478,1.2926 11.23447,4.40567c5.83967,3.11307 12.27317,9.42227 13.66349,11.90587c1.39031,2.4836 -5.83835,2.0726 -5.83835,2.0726c0,0 -6.06776,3.43983 -10.13193,5.40211c-3.15708,1.52433 -2.58407,25.6153 -2.58407,25.6153l-0.04245,14.6065l9.64236,42.30702c0,0 -0.58808,11.08558 -4.52035,11.55218z" stroke="#292018" stroke-width="4"/><path d="M276.24313,143.89588c0,0 1.99027,2.55023 2.42784,3.56738c0.41316,0.96042 0.48729,3.01371 0.48729,3.01371c0,0 -12.446,7.01131 -14.55661,7.71361c-0.69845,0.23241 -4.62748,-0.06234 -5.13174,-3.26117c-0.50427,-3.19883 1.86868,-6.29728 1.86868,-6.29728z" stroke="none" stroke-width="NaN"/></g><path d="M253.34903,136.02908c-2.19501,2.08365 -6.67801,4.79596 -6.67801,4.79596l1.12121,-10.37719l9.82382,-6.52952l0.59207,4.1587c0,0 -2.57299,5.78189 -4.85909,7.95204z" stroke="#292018" stroke-width="4"/></g><path d="M251.92249,157.18236c0,1.95833 -0.65264,3.54587 -1.4577,3.54587c-0.80506,0 -1.4577,-1.58754 -1.4577,-3.54587c0,-1.95833 0.65264,-3.54587 1.4577,-3.54587c0.80506,0 1.4577,1.58753 1.4577,3.54587z" fill="#dfbd28" stroke="#dfbd28" stroke-width="4"/><path d="M252.17759,179.14943c0,1.95832 -0.65264,3.54587 -1.4577,3.54587c-0.80506,0 -1.4577,-1.58754 -1.4577,-3.54587c0,-1.95832 0.65264,-3.54587 1.4577,-3.54587c0.80506,0 1.4577,1.58754 1.4577,3.54587z" fill="#dfbd28" stroke="#dfbd28" stroke-width="4"/><path d="M252.76068,200.59761c0,1.95832 -0.65264,3.54587 -1.4577,3.54587c-0.80506,0 -1.4577,-1.58754 -1.4577,-3.54587c0,-1.95832 0.65264,-3.54587 1.4577,-3.54587c0.80506,0 1.4577,1.58754 1.4577,3.54587z" fill="#dfbd28" stroke="#dfbd28" stroke-width="4"/><path d="M253.30733,220.83499c0,1.95832 -0.65264,3.54587 -1.4577,3.54587c-0.80506,0 -1.4577,-1.58754 -1.4577,-3.54587c0,-1.95832 0.65264,-3.54587 1.4577,-3.54587c0.80506,0 1.4577,1.58754 1.4577,3.54587z" fill="#dfbd28" stroke="#dfbd28" stroke-width="4"/></g><g data-paper-data="{&quot;index&quot;:null}" stroke="#292018" stroke-width="4"><path d="M189.57331,233.51488l8.42665,-39.72402l0.20695,-17.02807c0,0 4.39196,-23.8488 0.34959,-25.37313c-5.20382,-1.96228 -12.97305,-5.40211 -12.97305,-5.40211c0,0 -9.25571,0.41101 -7.47551,-2.0726c1.78019,-2.48361 10.01772,-8.7928 17.49493,-11.90586c7.4772,-3.11307 9.62527,-5.19627 14.38476,-4.40567c2.01289,0.33437 0.81922,2.60661 2.48424,5.63407c2.73756,4.97762 12.41738,9.14879 12.41738,9.14879c0,0 0.38866,8.94934 -0.62107,25.79275c-1.08972,18.1776 -0.81454,69.19851 -0.81454,69.19851c0,0 -13.35828,9.50698 -20.77588,8.81957c-5.03494,-0.4666 -13.10442,-12.68224 -13.10442,-12.68224z" fill="#403328" stroke-linecap="butt"/><path d="M211.37186,129.00138l-0.28713,-5.8538l14.93032,7.98246l1.4356,10.37719c0,0 -5.74011,-2.71231 -8.55062,-4.79596c-2.92717,-2.17014 -7.52818,-7.70989 -7.52818,-7.70989z" fill="#403328" stroke-linecap="butt"/><path d="M217.92061,161.95053l0.74658,-9.16737" fill="none" stroke-linecap="round"/><path d="M217.21136,182.46466l-0.18665,-7.43768" fill="none" stroke-linecap="round"/><path d="M216.91273,204.50093l0.18664,-7.78361" fill="none" stroke-linecap="round"/><path d="M216.12882,226.12208l0.18664,-8.64845" fill="none" stroke-linecap="round"/></g><path d="M202.65201,85.36791c-0.70933,5.56616 -0.42069,8.87878 -2.09789,9.31515c-1.67719,0.43637 -6.31377,-5.18346 -5.60445,-10.74963c0.70933,-5.56616 6.11072,-8.69388 7.78837,-8.25923c3.05355,0.79112 0.62331,4.12753 -0.08603,9.69371z" data-paper-data="{&quot;index&quot;:null}" fill="#d9bb9a" stroke="#917c67" stroke-width="4" stroke-linecap="butt"/><g data-paper-data="{&quot;index&quot;:null}"><g><path d="M200.79338,75.43911c-1.10361,2.5007 -6.15581,2.94416 -6.15581,2.94416c0,0 -3.18507,0.40673 -3.5049,-2.5079c-0.26047,-2.37378 -2.95047,-6.95486 -2.95047,-6.95486c0,0 2.37742,-2.0645 5.27405,-4.33423c0.74855,-0.58655 -2.28925,-3.9532 -2.79597,-5.79389c-0.50672,-1.84068 0.12213,-9.97775 0.12213,-9.97775c0,0 7.40121,-0.26205 10.36412,-4.06453c1.47016,-1.88674 2.61481,-5.34408 3.61873,-6.51786c5.71987,-6.68765 4.49305,-8.98412 9.86011,-11.68891c0.56089,-0.28267 9.82474,-2.98809 10.32743,-3.24439c8.75567,-4.46391 10.0476,-4.42328 20.36827,-2.13819c10.91322,2.41629 19.87214,1.44527 25.14989,6.67407c3.44624,3.41429 12.09105,11.82982 18.42635,16.58097c4.41552,9.45651 5.6748,15.00458 3.4032,24.38734c-0.7287,3.0099 -3.81072,4.27269 -3.59173,7.73102c0.09934,1.56876 3.78662,14.43294 3.78662,14.43294c0,0 -2.65142,3.04676 -5.15776,3.75215c-2.4832,0.69889 -4.58435,-0.42071 -5.44089,0.50876c-1.86852,2.02759 -1.63521,4.8053 -2.57424,6.44454c-0.68315,1.19257 -1.44688,1.70056 -2.69709,2.61429c-2.11034,1.54236 -1.12626,-1.59529 -0.35946,-3.62767c1.43334,-3.79903 1.4177,-6.84352 1.22026,-6.22403c-1.74102,0.26928 -0.51303,0.64199 -6.67142,-2.65272c-0.34255,-0.18326 -0.70734,-3.28614 -1.75237,-4.88077c-1.04503,-1.59462 -0.8716,-6.03899 -0.8716,-6.03899c0,0 -11.40416,1.40476 -15.82312,0.36733c-6.37532,-1.49671 -14.2175,-1.70526 -17.63491,-3.23819c-8.35377,-3.74721 -11.8772,-6.03633 -15.27633,-7.25362c-3.16378,-1.13302 -9.82547,0.23397 -11.54059,-1.32407c0,0 -5.67383,2.74239 -7.12251,6.025z" fill="#252931" stroke="#14161a" stroke-width="4" stroke-linecap="butt"/><path d="M270.37269,72.91357c-25.47103,2.00592 -45.66163,-8.52338 -64.23239,-12.65113c-3.84444,-0.85451 -4.06349,-4.28995 -4.06349,-4.28995c0,0 8.5121,-4.96695 11.66904,-14.386c1.51939,-4.53325 10.3236,-12.2327 20.00283,-14.72692c8.0457,-2.07326 22.03954,1.67979 29.24868,2.47135c4.66883,0.51263 3.36066,3.9592 7.30381,5.28081c11.19295,3.75149 7.93836,10.31506 9.23077,18.66062c0.94067,6.0743 -5.51916,19.35453 -9.15927,19.64121z" fill="#494c5e" stroke="none" stroke-width="0" stroke-linecap="butt"/><path d="M269.73905,43.32213c0.42827,-1.2778 -5.76825,-0.10404 -5.79171,-1.99286c-0.01722,-1.38627 2.85416,-2.57712 4.02953,-4.27027c0.33825,-0.48725 0.23187,-2.81851 -1.38386,-4.65873c-1.34478,-1.53161 -4.25242,-2.6205 -4.02877,-2.97288c0.90852,-1.4315 8.7317,2.6301 9.6162,2.92655c3.51125,1.17685 13.03073,15.04276 11.81652,18.66548c-0.07366,0.21977 -1.51831,20.03197 -9.7158,25.88035c-1.18374,0.84453 -8.25907,-1.51517 -8.00029,-3.61245c0.08136,-0.65937 -3.74083,-3.08132 -2.04854,-4.7439c2.30552,-2.26505 11.10021,-2.26041 11.06967,-3.08029c-0.08721,-2.34116 -14.18296,0.11588 -14.29461,-3.28337c-0.11165,-3.39925 15.89835,-6.80032 14.63871,-9.70178c-3.3186,0.18384 -12.25612,2.80822 -12.85747,1.19906c-1.82229,-4.87633 5.7362,-6.73221 6.95041,-10.35491z" fill="#252931" stroke="none" stroke-width="0" stroke-linecap="butt"/><path d="M217.73455,60.28919c-0.97582,0.9295 1.70797,0.65448 3.31833,1.70729c1.61035,1.05282 7.36962,3.61699 5.53921,4.56452c-0.96521,0.49965 -10.21447,-3.58517 -11.01227,-3.12945c-1.47223,0.84095 -4.28117,1.06947 -4.92458,0.39404c-1.54837,-1.6255 -10.84302,-1.40131 -10.61841,-6.74418c0.14589,-3.47066 7.59287,-7.57845 8.68231,-8.61617c0.16783,-0.15986 7.13684,-17.07323 17.11727,-18.41246c1.44119,-0.19338 10.10222,0.08937 8.89326,1.82257c-0.38009,0.54491 -7.17615,5.09964 -9.44926,5.77858c-3.09681,0.92495 -5.92829,1.65272 -6.28447,2.39181c-1.01707,2.1105 13.36964,3.69662 12.28556,5.54299c-1.72203,2.93292 -17.16161,1.57825 -16.64822,3.19765c0.58537,1.84645 7.99334,1.44235 15.14628,2.26415c5.53979,0.63646 11.38371,2.52083 10.89826,3.51631c-0.45067,0.92417 -2.68522,2.97927 -4.70196,3.2678c-5.86769,0.83948 -16.1824,0.49337 -18.2413,2.45455z" fill="#252931" stroke="none" stroke-width="0" stroke-linecap="butt"/><path d="M277.24258,77.13267c0,0 -7.06102,3.9757 -8.0953,4.05635c-2.06822,0.1613 -6.07718,-0.25271 -6.07718,-0.25271" fill="none" stroke="#14161a" stroke-width="4" stroke-linecap="round"/><path d="M244.92213,37.35924c0.4368,-3.14399 4.19481,-4.92934 7.97925,-4.40354c3.78443,0.52578 9.26173,1.28393 8.82493,4.42791c-0.4368,3.14399 -6.75429,5.86752 -10.53872,5.34172c-3.78442,-0.52579 -6.70227,-2.22211 -6.26547,-5.36608z" fill="#686c85" stroke="none" stroke-width="0" stroke-linecap="butt"/><path d="M230.55102,38.59713c0.25221,-1.81526 3.5066,-2.83667 5.69164,-2.5331c2.18503,0.30358 4.08904,1.68523 3.83683,3.50049c-0.25221,1.81526 -2.4287,2.29993 -4.61374,1.99636c-2.18503,-0.30358 -5.16696,-1.14848 -4.91474,-2.96374z" fill="#686c85" stroke="none" stroke-width="0" stroke-linecap="butt"/><path d="M254.58095,47.88635c-0.02509,-1.83251 1.31483,-2.1205 3.52064,-2.15071c2.20582,-0.03021 3.95846,-0.73924 3.98356,1.09328c0.0251,1.83251 -2.05311,2.64065 -4.25892,2.67086c-2.20582,0.03021 -3.22016,0.2191 -3.24526,-1.61342z" fill="#686c85" stroke="none" stroke-width="0" stroke-linecap="butt"/></g><path d="M282.97648,88.22704c-1.58974,-0.18715 -0.95381,3.32709 -1.97514,2.98477c-1.07495,-0.36029 -2.18707,-2.88455 -2.95353,-4.7375c-0.98208,-2.37423 -1.37068,-3.70316 -0.99297,-4.83008c0.41047,-1.22468 0.34125,-0.2166 1.81319,-0.06424c0.93957,0.09725 3.52771,-3.82005 4.48317,-3.49981c0.91028,0.30509 0.04729,2.29369 0.72,4.51693c0.10699,0.3536 3.0913,-5.41087 3.34033,-2.85968c0.13815,1.41536 2.58742,5.57259 2.42234,9.59386c-0.16508,4.02127 -2.97558,-3.03813 -4.33994,-2.57151c-1.36437,0.46662 1.02599,2.72313 0.69182,3.72015c0,0 -0.98184,-1.99066 -3.20925,-2.25288z" fill="#494c5e" stroke="none" stroke-width="0" stroke-linecap="butt"/><path d="M285.70673,58.16867c0.13344,1.08933 -1.71819,2.189 -5.68639,2.67515c-3.9682,0.48615 -5.40913,0.62868 -5.54259,-0.46064c-0.13346,-1.08931 2.16775,-2.6371 6.13596,-3.12324c3.9682,-0.48615 4.95954,-0.18058 5.09301,0.90873z" fill="#494c5e" stroke="none" stroke-width="0" stroke-linecap="butt"/></g><path d="M270.66323,85.5611c-5.37194,-1.15924 -12.38792,-1.89194 -11.82327,-4.84094c0.56466,-2.94899 12.54053,-1.98186 17.91246,-0.82262c5.37194,1.15925 7.51829,3.67573 6.95362,6.62472c-0.56466,2.94899 -7.67088,0.19807 -13.04282,-0.96118z" data-paper-data="{&quot;index&quot;:null}" fill="#424956" stroke="#14161a" stroke-width="4" stroke-linecap="butt"/><path d="M221.97882,63.51316c1.32655,-2.69363 4.55589,-3.40837 9.54139,-1.09614c4.9855,2.31222 15.12529,8.75748 13.79874,11.45111c-1.32655,2.69363 -7.367,-0.94975 -12.35251,-3.26195c-4.9855,-2.31222 -12.31418,-4.39937 -10.98763,-7.093z" data-paper-data="{&quot;index&quot;:null}" fill="#424956" stroke="#14161a" stroke-width="4" stroke-linecap="butt"/><g data-paper-data="{&quot;index&quot;:null}" stroke-linecap="butt"><g><g><g><path d="M147.48251,129.91848c8.25937,0.46856 10.40664,1.77414 12.76529,1.58746c10.00267,-0.79163 35.38903,-0.41797 35.38903,-0.41797c0,0 5.25164,10.18554 4.36831,13.04763c-1.24144,4.02231 -6.67105,4.70353 -6.67105,4.70353c0,0 -9.28105,2.07012 -33.30222,0.80866c-0.77827,-0.04086 -7.29159,0.10852 -8.41928,-0.62658c-6.34163,-4.13394 -10.70251,-19.4756 -4.13007,-19.10275z" fill="#d9bb9a" stroke="#917c67" stroke-width="4"/><path d="M148.08039,132.14167c0.994,0.20554 9.75934,14.55596 9.77314,14.6825c0.0829,0.75965 -2.93583,0.46313 -5.67119,0.76163c-2.73536,0.2985 -5.45873,1.00751 -5.54162,0.24788c-0.0829,-0.75966 -7.81333,-15.95651 -5.07797,-16.25501c2.27972,-0.24879 3.89247,0.02016 6.51763,0.56299z" fill="#d9bb9a" stroke="none" stroke-width="0"/><path d="M192.34919,146.79788c-4.01783,-0.10908 -12.4187,-2.65087 -17.72401,-3.88919c-2.40181,-0.56062 -12.719,0.81001 -20.5166,1.60554c-0.67872,0.06926 -8.15499,1.49459 -8.47364,1.34903c-0.35072,-0.16021 -11.32898,-13.63751 -1.95128,-12.38149c5.51004,0.73799 11.95734,1.41764 16.91729,1.40065c7.36262,-0.02522 9.22708,-0.87899 19.67149,-0.59547c10.44442,0.28353 18.91648,1.22122 18.82227,3.69024c-0.09421,2.46902 3.69889,9.10423 -6.74552,8.8207z" fill="#ffdbb5" stroke="none" stroke-width="0"/></g><path d="M144.26327,128.61376c0,0 34.75353,-2.16358 44.48896,-2.82001c9.51544,-0.6416 25.02908,1.14003 25.02908,1.14003l-4.38241,24.15903c0,0 -20.45632,0.76936 -28.10908,0.6256c-7.69236,-0.14448 -27.69402,-1.37186 -27.69402,-1.37186c0,0 -4.2239,-6.82241 -5.72069,-9.95021c-1.71861,-3.59134 -3.61183,-11.7826 -3.61183,-11.7826z" fill="#403328" stroke="#292018" stroke-width="4"/></g><g><path d="M105.50341,133.51524c7.35512,-0.80265 13.71566,2.19419 14.20667,6.69363c0.49101,4.49943 -5.07344,8.79762 -12.42856,9.60028c-0.9563,0.10436 -4.08942,-0.97441 -6.57208,-1.69182c-1.67999,-0.48545 -3.4585,0.18085 -4.78713,-0.35923c-1.9288,-0.78405 -1.23901,-1.16628 -1.96511,-1.67234c-1.85049,-1.28973 -0.05939,-1.78245 -1.33054,-3.08785c-1.28386,-1.31847 -1.31768,-1.09544 -1.47912,-2.57473c-0.49102,-4.49944 7.00073,-6.10532 14.35585,-6.90798z" fill="#917c67" stroke="none" stroke-width="NaN"/><g><path d="M108.19633,126.55407c3.07093,-1.3962 13.41462,2.12013 21.15577,2.55929c8.25937,0.46856 8.16895,1.34025 10.52759,1.15358c3.98769,0.22165 9.7677,20.043 6.89842,20.39898c-5.15491,-0.27069 -21.63447,2.32689 -32.14057,2.57627c-13.16645,0.31253 -7.17573,-4.60531 -7.33277,-6.22639c-0.15299,-1.57933 12.56887,-0.96418 12.47046,-3.52861c-0.1053,-2.74384 -0.8925,-4.43639 -5.27701,-5.90205c-4.82079,-1.6115 -23.31921,1.68309 -24.44124,-0.28762c-2.13272,-3.74584 8.86054,-6.52484 18.13935,-10.74345z" fill="#d9bb9a" stroke="#917c67" stroke-width="4"/><path d="M143.07656,145.89263c-0.35072,-0.16021 -0.79151,1.26556 -11.01843,1.63119c-2.51967,0.0901 -4.29561,0.79604 -6.14138,0.42322c-3.63644,-0.73448 -0.47243,-6.91795 -1.07728,-8.41022c-1.50063,-3.70234 -5.47075,-4.6655 -7.97264,-5.12122c-5.32435,-0.96984 -13.85824,0.8109 -18.33013,1.05372c-5.48469,0.29784 5.33778,-4.74945 11.86632,-6.17629c2.43494,-0.53217 7.14348,2.20895 12.02789,2.94494c4.88439,0.73599 6.78907,0.32868 16.16678,1.58469c5.51004,0.73799 6.83151,13.14469 4.47887,12.06996z" fill="#ffdbb5" stroke="none" stroke-width="0"/></g><path d="M121.20133,125.93858l20.92352,2.64087l7.68157,21.91296l-22.74139,3.56756c0,0 1.08277,-7.86889 -1.60039,-15.03103c-2.52188,-6.73161 -4.2633,-13.09037 -4.2633,-13.09037z" fill="#403328" stroke="#292018" stroke-width="4"/><path d="M138.38826,130.90965l8.69858,-0.23549l8.07406,17.8552l-9.635,0.15925z" fill="#403328" stroke="none" stroke-width="0"/></g></g><path d="M214.39161,153.49825c0,0 -0.9402,-0.51591 -4.18506,-0.7637c-3.24486,-0.2478 -5.04665,-4.74098 -4.90552,-5.59008c0.42647,-2.56584 5.79427,-18.0076 5.79427,-18.0076c0,0 2.05073,-0.13528 3.05865,0.24787c1.06749,0.40579 3.85886,2.47682 3.85886,2.47682z" fill="#403328" stroke="none" stroke-width="NaN"/></g><path d="M307.1306,192.94004l-7.35161,-6.22995l17.56203,-8.69332l6.57897,5.6954z" fill="#403328" stroke="none" stroke-width="0" stroke-linecap="butt"/></g></g></svg>