<svg version="1.1" xmlns="http://www.w3.org/2000/svg" xmlns:xlink="http://www.w3.org/1999/xlink" width="385.88589" height="385.88589" viewBox="0,0,385.88589,385.88589"><defs><linearGradient x1="269.22137" y1="238.25127" x2="242.72897" y2="292.28627" gradientUnits="userSpaceOnUse" id="color-1"><stop offset="0" stop-color="#353935"/><stop offset="1" stop-color="#000000"/></linearGradient><linearGradient x1="340.92346" y1="233.18497" x2="257.32726" y2="213.62646" gradientUnits="userSpaceOnUse" id="color-2"><stop offset="0" stop-color="#353935"/><stop offset="1" stop-color="#000000"/></linearGradient><linearGradient x1="220.86987" y1="255.36907" x2="164.99226" y2="259.92087" gradientUnits="userSpaceOnUse" id="color-3"><stop offset="0" stop-color="#ffffff"/><stop offset="1" stop-color="#cccccc"/></linearGradient><radialGradient cx="162.80327" cy="163.91508" r="4.0678" gradientUnits="userSpaceOnUse" id="color-4"><stop offset="0" stop-color="#cccccc"/><stop offset="1" stop-color="#7f7f7f"/></radialGradient><radialGradient cx="159.49386" cy="161.31277" r="3.5151" gradientUnits="userSpaceOnUse" id="color-5"><stop offset="0" stop-color="#cccccc"/><stop offset="1" stop-color="#7f7f7f"/></radialGradient><radialGradient cx="154.98356" cy="159.70998" r="4.361" gradientUnits="userSpaceOnUse" id="color-6"><stop offset="0" stop-color="#cccccc"/><stop offset="1" stop-color="#7f7f7f"/></radialGradient><radialGradient cx="150.86906" cy="161.70737" r="4.361" gradientUnits="userSpaceOnUse" id="color-7"><stop offset="0" stop-color="#cccccc"/><stop offset="1" stop-color="#7f7f7f"/></radialGradient><radialGradient cx="147.07887" cy="165.17117" r="4.1004" gradientUnits="userSpaceOnUse" id="color-8"><stop offset="0" stop-color="#cccccc"/><stop offset="1" stop-color="#7f7f7f"/></radialGradient><radialGradient cx="142.62027" cy="166.88137" r="3.7756" gradientUnits="userSpaceOnUse" id="color-9"><stop offset="0" stop-color="#cccccc"/><stop offset="1" stop-color="#7f7f7f"/></radialGradient><radialGradient cx="138.87497" cy="168.53377" r="4.3287" gradientUnits="userSpaceOnUse" id="color-10"><stop offset="0" stop-color="#cccccc"/><stop offset="1" stop-color="#7f7f7f"/></radialGradient><radialGradient cx="133.92306" cy="169.43697" r="4.0681" gradientUnits="userSpaceOnUse" id="color-11"><stop offset="0" stop-color="#cccccc"/><stop offset="1" stop-color="#7f7f7f"/></radialGradient><radialGradient cx="129.49387" cy="170.52187" r="3.8075" gradientUnits="userSpaceOnUse" id="color-12"><stop offset="0" stop-color="#cccccc"/><stop offset="1" stop-color="#7f7f7f"/></radialGradient><radialGradient cx="125.41726" cy="172.81727" r="4.6208" gradientUnits="userSpaceOnUse" id="color-13"><stop offset="0" stop-color="#cccccc"/><stop offset="1" stop-color="#7f7f7f"/></radialGradient><radialGradient cx="122.14006" cy="176.65737" r="4.1661" gradientUnits="userSpaceOnUse" id="color-14"><stop offset="0" stop-color="#cccccc"/><stop offset="1" stop-color="#7f7f7f"/></radialGradient><radialGradient cx="118.81147" cy="178.79617" r="4.5893" gradientUnits="userSpaceOnUse" id="color-15"><stop offset="0" stop-color="#cccccc"/><stop offset="1" stop-color="#7f7f7f"/></radialGradient><radialGradient cx="170.42907" cy="168.00727" r="6.8791" gradientUnits="userSpaceOnUse" id="color-16"><stop offset="0" stop-color="#cccccc"/><stop offset="1" stop-color="#7f7f7f"/></radialGradient><radialGradient cx="169.17356" cy="179.65087" r="4.0678" gradientUnits="userSpaceOnUse" id="color-17"><stop offset="0" stop-color="#cccccc"/><stop offset="1" stop-color="#7f7f7f"/></radialGradient><radialGradient cx="164.79777" cy="182.22387" r="4.0678" gradientUnits="userSpaceOnUse" id="color-18"><stop offset="0" stop-color="#cccccc"/><stop offset="1" stop-color="#7f7f7f"/></radialGradient><radialGradient cx="159.74086" cy="183.55947" r="4.0678" gradientUnits="userSpaceOnUse" id="color-19"><stop offset="0" stop-color="#cccccc"/><stop offset="1" stop-color="#7f7f7f"/></radialGradient><radialGradient cx="154.04967" cy="184.02307" r="4.0678" gradientUnits="userSpaceOnUse" id="color-20"><stop offset="0" stop-color="#cccccc"/><stop offset="1" stop-color="#7f7f7f"/></radialGradient><radialGradient cx="148.72676" cy="184.64117" r="4.0678" gradientUnits="userSpaceOnUse" id="color-21"><stop offset="0" stop-color="#cccccc"/><stop offset="1" stop-color="#7f7f7f"/></radialGradient><radialGradient cx="143.16127" cy="184.72507" r="4.0678" gradientUnits="userSpaceOnUse" id="color-22"><stop offset="0" stop-color="#cccccc"/><stop offset="1" stop-color="#7f7f7f"/></radialGradient><radialGradient cx="137.72126" cy="184.42957" r="4.0678" gradientUnits="userSpaceOnUse" id="color-23"><stop offset="0" stop-color="#cccccc"/><stop offset="1" stop-color="#7f7f7f"/></radialGradient><radialGradient cx="132.67317" cy="184.47127" r="4.0678" gradientUnits="userSpaceOnUse" id="color-24"><stop offset="0" stop-color="#cccccc"/><stop offset="1" stop-color="#7f7f7f"/></radialGradient><radialGradient cx="127.08416" cy="184.37257" r="4.0678" gradientUnits="userSpaceOnUse" id="color-25"><stop offset="0" stop-color="#cccccc"/><stop offset="1" stop-color="#7f7f7f"/></radialGradient><radialGradient cx="121.35477" cy="183.17667" r="4.0678" gradientUnits="userSpaceOnUse" id="color-26"><stop offset="0" stop-color="#cccccc"/><stop offset="1" stop-color="#7f7f7f"/></radialGradient><radialGradient cx="103.73087" cy="182.59027" r="4.1661" gradientUnits="userSpaceOnUse" id="color-27"><stop offset="0" stop-color="#cccccc"/><stop offset="1" stop-color="#7f7f7f"/></radialGradient><radialGradient cx="99.23566" cy="182.42247" r="4.5893" gradientUnits="userSpaceOnUse" id="color-28"><stop offset="0" stop-color="#cccccc"/><stop offset="1" stop-color="#7f7f7f"/></radialGradient><radialGradient cx="94.65536" cy="184.24357" r="4.0678" gradientUnits="userSpaceOnUse" id="color-29"><stop offset="0" stop-color="#cccccc"/><stop offset="1" stop-color="#7f7f7f"/></radialGradient><linearGradient x1="159.91866" y1="280.37137" x2="123.16926" y2="282.03167" gradientUnits="userSpaceOnUse" id="color-30"><stop offset="0" stop-color="#ff0000"/><stop offset="1" stop-color="#ff0000" stop-opacity="0"/></linearGradient><linearGradient x1="159.22236" y1="273.53578" x2="160.09527" y2="280.35697" gradientUnits="userSpaceOnUse" id="color-31"><stop offset="0" stop-color="#ff0000"/><stop offset="1" stop-color="#ff0000" stop-opacity="0"/></linearGradient><linearGradient x1="184.57407" y1="228.05417" x2="182.50216" y2="208.24257" gradientUnits="userSpaceOnUse" id="color-32"><stop offset="0" stop-color="#7f7f7f"/><stop offset="1" stop-color="#b2b2b2"/></linearGradient><linearGradient x1="172.30806" y1="231.30117" x2="170.48317" y2="217.04188" gradientUnits="userSpaceOnUse" id="color-33"><stop offset="0" stop-color="#000000"/><stop offset="1" stop-color="#353935"/></linearGradient><linearGradient x1="168.91157" y1="204.76097" x2="170.54927" y2="217.55747" gradientUnits="userSpaceOnUse" id="color-34"><stop offset="0" stop-color="#000000"/><stop offset="1" stop-color="#353935"/></linearGradient><radialGradient cx="174.38276" cy="188.89357" r="32.5791" gradientUnits="userSpaceOnUse" id="color-35"><stop offset="0" stop-color="#666666"/><stop offset="1" stop-color="#000000"/></radialGradient><radialGradient cx="164.09436" cy="187.81667" r="14.0005" gradientUnits="userSpaceOnUse" id="color-36"><stop offset="0" stop-color="#370000"/><stop offset="1" stop-color="#000000"/></radialGradient><radialGradient cx="160.65496" cy="194.37827" r="11.9416" gradientUnits="userSpaceOnUse" id="color-37"><stop offset="0" stop-color="#370000"/><stop offset="1" stop-color="#000000"/></radialGradient><radialGradient cx="171.43186" cy="185.86467" r="11.0493" gradientUnits="userSpaceOnUse" id="color-38"><stop offset="0" stop-color="#370000"/><stop offset="1" stop-color="#000000"/></radialGradient><radialGradient cx="168.03926" cy="198.69617" r="9.7171" gradientUnits="userSpaceOnUse" id="color-39"><stop offset="0" stop-color="#370000"/><stop offset="1" stop-color="#000000"/></radialGradient><radialGradient cx="173.93537" cy="193.43897" r="7.313" gradientUnits="userSpaceOnUse" id="color-40"><stop offset="0" stop-color="#370000"/><stop offset="1" stop-color="#000000"/></radialGradient><radialGradient cx="168.97907" cy="192.72558" r="3.567" gradientUnits="userSpaceOnUse" id="color-41"><stop offset="0" stop-color="#ff0000"/><stop offset="1" stop-color="#000000"/></radialGradient><linearGradient x1="213.05906" y1="191.42957" x2="263.41516" y2="155.86077" gradientUnits="userSpaceOnUse" id="color-42"><stop offset="0" stop-color="#353935"/><stop offset="1" stop-color="#000000"/></linearGradient><linearGradient x1="253.34147" y1="118.77097" x2="331.95907" y2="158.95067" gradientUnits="userSpaceOnUse" id="color-43"><stop offset="0" stop-color="#353935"/><stop offset="1" stop-color="#000000"/></linearGradient><linearGradient x1="166.42326" y1="283.95436" x2="166.42326" y2="368.88166" gradientUnits="userSpaceOnUse" id="color-44"><stop offset="0" stop-color="#000000"/><stop offset="1" stop-color="#0e0e0e"/></linearGradient><linearGradient x1="141.52557" y1="326.21227" x2="129.12986" y2="326.21227" gradientUnits="userSpaceOnUse" id="color-45"><stop offset="0" stop-color="#000000"/><stop offset="1" stop-color="#666666"/></linearGradient><linearGradient x1="181.27246" y1="304.07007" x2="137.57366" y2="304.07007" gradientUnits="userSpaceOnUse" id="color-46"><stop offset="0" stop-color="#151515"/><stop offset="1" stop-color="#212121"/></linearGradient><linearGradient x1="177.64906" y1="338.88767" x2="159.01517" y2="338.88767" gradientUnits="userSpaceOnUse" id="color-47"><stop offset="0" stop-color="#292929"/><stop offset="1" stop-color="#292929"/></linearGradient><linearGradient x1="119.57626" y1="219.42747" x2="119.57627" y2="301.18807" gradientUnits="userSpaceOnUse" id="color-48"><stop offset="0" stop-color="#000000"/><stop offset="1" stop-color="#0e0e0e"/></linearGradient><linearGradient x1="94.46516" y1="260.21487" x2="82.88966" y2="260.21487" gradientUnits="userSpaceOnUse" id="color-49"><stop offset="0" stop-color="#000000"/><stop offset="1" stop-color="#666666"/></linearGradient><linearGradient x1="114.25177" y1="236.62697" x2="114.25177" y2="253.67617" gradientUnits="userSpaceOnUse" id="color-50"><stop offset="0" stop-color="#151515"/><stop offset="1" stop-color="#212121"/></linearGradient></defs><g transform="translate(-50.06006,-33.17817)"><g data-paper-data="{&quot;isPaintingLayer&quot;:true}" fill-rule="nonzero" stroke-linejoin="miter" stroke-miterlimit="10" stroke-dasharray="" stroke-dashoffset="0" style="mix-blend-mode: normal"><path d="M243.00301,33.17817c106.55944,0 192.94294,86.3835 192.94294,192.94295c0,106.55945 -86.3835,192.94294 -192.94294,192.94294c-106.55944,0 -192.94295,-86.38349 -192.94295,-192.94294c0,-106.55945 86.3835,-192.94294 192.94294,-192.94294z" fill="none" stroke="none" stroke-width="NaN" stroke-linecap="butt"/><g stroke-width="2.5"><path d="M247.18626,292.78186c-6.7565,-6.678 8.3286,-21.1942 17.765,-24.3246c12.694,-4.2024 26.1658,3.9936 39.8237,5.1488c14.6422,1.25989 31.3904,-3.8408 43.9871,3.7464c8.1988,4.9552 15.4324,20.9254 8.1655,26.1359c-13.0479,10.308 -32.6911,6.7045 -49.0156,5.0758c-20.7304,-2.0662 -46.0018,-2.4068 -60.7258,-15.7824z" data-paper-data="{&quot;origRot&quot;:0,&quot;origPos&quot;:null}" fill="#000000" stroke="url(#color-1)" stroke-linecap="round"/><g data-paper-data="{&quot;origRot&quot;:0,&quot;origPos&quot;:null}"><path d="M337.13556,304.31677c-4.9068,-1.2338 -9.7255,-9.0015 -6.7837,-12.5735c6.2078,-8.1767 18.2886,-8.9448 27.14859,-13.5793c3.96391,-2.0706 7.2418,-5.7065 11.1677,-7.4762c5.33521,-2.4032 11.7362,-7.7497 16.8893,-4.9078c5.4041,2.96071 4.7519,11.6425 5.2818,17.8122c0.4437,5.1894 1.0666,11.789 -2.0722,16.2071c-2.74789,3.1781 -8.2517,2.5987 -12.4989,2.5784c-4.5111,-0.0207 -8.6841,-3.7277 -13.2362,-3.5238c-8.7814,0.4015 -17.3458,7.5674 -25.8964,5.46289z" fill="#ffffff" stroke="#ffffff" stroke-linecap="round"/><path d="M360.11596,277.57567c0,0 1.7589,-9.08511 4.12619,-12.9397c2.3219,-3.7822 5.5993,-7.1339 9.2521,-9.6671c2.9812,-1.6859 6.7132,-3.3965 9.9959,-2.5634c2.67511,0.6887 3.5438,4.3055 4.9458,6.6778c0.42511,0.7182 0.0152,2.5027 0.0152,2.5027" fill="none" stroke="#353935" stroke-linecap="round"/><path d="M367.01976,260.83977c4.8462,-4.4705 11.0138,-7.7215 17.2728,-7.71359c2.9552,-0.3564 6.3567,4.8272 4.84729,6.8788c-2.3316,3.1334 -8.5019,0.9784 -11.6923,3.4745c-2.5629,2.0117 -2.71989,5.8571 -4.8552,8.3388c-1.1583,2.1493 -2.7582,4.1115 -4.9129,5.3957c-1.4784,0.894 -3.6271,2.1266 -4.9568,1.4718c-1.3293,-0.6546 -2.1613,-3.1304 -1.8554,-4.8261c0.845,-4.6444 2.6078,-9.7851 6.1523,-13.0199z" fill="#353935" stroke="none" stroke-linecap="round"/><path d="M365.29857,289.02098c-1.2604,-2.6932 -1.2458,-6.0063 -0.5354,-9.312c0.1891,-2.1512 0.5826,-4.9639 3.1818,-6.6743c3.4866,-2.2397 9.2921,-5.0092 12.1637,-3.3604c3.7878,2.18579 2.334,7.4824 2.8821,11.3931c0.6031,4.6289 4.2902,9.90541 1.1236,14.7951c-1.8972,2.8846 -8.953,1.8965 -12.412,0.73681c-3.671,-1.2301 -5.0736,-4.6458 -6.4039,-7.5783z" fill="#000000" stroke="none" stroke-linecap="round"/><g fill="#353935" stroke="none" stroke-linecap="round"><path d="M371.59387,266.13087c2.1145,-2.7934 7.285,-3.255 10.9841,-4.2847c3.5796,-0.97989 7.7629,-2.9686 10.9198,-2.00951c2.7558,0.83859 4.6257,4.136 3.0415,6.4176c-1.9267,2.7722 -6.8255,3.7701 -10.5326,5.0233c-4.0301,1.1543 -8.9455,3.3689 -12.3396,2.06991c-2.8845,-1.1033 -3.9164,-4.9023 -2.0733,-7.2165z"/><path d="M373.82176,275.07747c2.1144,-2.7934 7.2849,-3.2551 10.984,-4.2847c3.5797,-0.97989 7.763,-2.9686 10.9198,-2.00951c2.75591,0.8386 4.6258,4.136 3.0416,6.4176c-1.9268,2.7722 -6.8256,3.7701 -10.5326,5.0233c-4.0302,1.1543 -8.9456,3.3689 -12.33971,2.0699c-2.8844,-1.1034 -3.9164,-4.9023 -2.0732,-7.2165z"/><path d="M376.21947,284.52087c2.1144,-2.7935 7.2849,-3.2551 10.984,-4.2848c3.5797,-0.97989 7.763,-2.9686 10.9198,-2.00951c2.75591,0.8386 4.6257,4.136 3.0416,6.4176c-1.9268,2.7722 -6.8256,3.7701 -10.5326,5.0233c-4.0302,1.1543 -8.9456,3.3689 -12.33971,2.0699c-2.8844,-1.1033 -3.9164,-4.9023 -2.0732,-7.2165z"/><path d="M379.86217,293.95457c2.1145,-2.7934 7.285,-3.255 10.9841,-4.2847c3.5796,-0.97989 7.7629,-2.9686 10.9198,-2.00951c2.7558,0.83859 4.6257,4.136 3.0415,6.4176c-1.9267,2.7722 -6.8255,3.7701 -10.5326,5.0233c-4.0301,1.1543 -8.9455,3.3689 -12.3396,2.06991c-2.8845,-1.1033 -3.9164,-4.9023 -2.0733,-7.2165z"/></g><path d="" fill="#eac18d" stroke="none" stroke-linecap="butt"/></g><path d="M329.16887,230.51447c6.4557,0.41709 11.5837,12.0176 7.74239,17.8014c-8.2854,12.334 -25.2955,16.00499 -37.1389,24.6233c-13.9905,9.4124 -23.8709,28.1721 -40.4767,29.4408c-10.0548,0.752 -20.00211,-16.6679 -16.3688,-26.87231c5.3227,-14.5041 22.53211,-22.0022 36.906,-29.7669c15.13151,-8.1597 32.1934,-16.4417 49.3361,-15.2263z" data-paper-data="{&quot;origRot&quot;:0,&quot;origPos&quot;:null}" fill="#000000" stroke="url(#color-2)" stroke-linecap="round"/><path d="M264.29557,303.08627c-7.7856,-2.154 -18.2245,-8.3059 -19.7279,-16.9619c-0.5019,-6.9079 8.5691,-13.90031 15.60189,-15.0694c13.6977,-2.2673 27.1725,6.9014 41.1428,6.8798c14.31,0.7336 28.6468,-7.4041 42.8528,-4.7662c6.8474,1.2857 11.0744,9.8413 12.7401,16.6124c1.30069,5.3091 0.3724,14.0854 -4.6563,17.2325c-6.739,4.2164 -16.0588,3.2282 -24.1163,2.682c-21.1397,-1.4236 -43.2378,-0.9265 -63.83711,-6.6093z" data-paper-data="{&quot;origRot&quot;:0,&quot;origPos&quot;:null}" fill="#ffffff" stroke="none" stroke-linecap="round"/><path d="M326.86656,229.98617c6.5417,0.10641 16.8834,9.5107 13.0929,14.6599c-8.5583,11.6104 -26.5679,11.7002 -38.412,20.29201c-14.5722,9.7642 -23.0965,30.7865 -40.37819,34.4552c-9.3864,1.9849 -21.6771,-13.9129 -17.4762,-22.7582c6.8292,-16.448 25.9989,-24.4176 41.9824,-33.43081c12.5497,-7.0688 26.9429,-13.4479 41.1911,-13.2181z" data-paper-data="{&quot;origRot&quot;:0,&quot;origPos&quot;:null}" fill="#ffffff" stroke="none" stroke-linecap="round"/></g><path d="M156.10576,250.54368c-1.6868,-18.14 23.64629,-44.6314 40.2758,-37.1312c37.2731,16.8174 65.5979,55.6875 82.7055,93.6007c5.4697,12.1287 -13.759,30.522 -27.1021,29.6082c-19.9794,-1.8534 -33.7857,-22.5422 -48.7093,-35.8917c-17.0364,-15.34289 -44.8542,-26.8266 -47.1698,-50.18601z" data-paper-data="{&quot;origRot&quot;:0}" fill="#ffffff" stroke="#000000" stroke-width="2.5" stroke-linecap="round"/><g data-paper-data="{&quot;origRot&quot;:0}" stroke-width="2.5"><path d="M162.38306,174.34107c0,0 39.2163,-1.7507 63.6549,-6.4168c16.8727,-3.22171 61.01339,-19.015 97.8843,-6.7424c36.8708,12.2727 32.0648,88.8403 13.7049,98.0131c-18.3599,9.1728 -83.8166,3.5616 -98.2742,3.6955c-25.58561,0.2372 -65.2725,2.8544 -65.2725,2.8544z" data-paper-data="{&quot;origPos&quot;:null}" fill="#000000" stroke="none" stroke-linecap="butt"/><path d="M311.05567,158.60077c10.5106,1.3785 22.6404,3.961 22.1587,13.4871c-0.4817,9.5261 -4.9256,23.035 -11.0409,29.66191c-3.8124,4.11559 -34.7383,9.1396 -41.4376,3.0061c-6.3283,-5.4396 -11.64799,-40.3087 -6.9009,-43.0302c10.326,-5.88751 24.0007,-4.8588 37.2207,-3.1249z" data-paper-data="{&quot;origPos&quot;:null,&quot;index&quot;:null}" fill="#ffffff" stroke="#000000" stroke-linecap="round"/><path d="M286.13177,265.59477c-5.3385,-1.8999 -8.9612,-36.90721 -4.1415,-43.255c5.0074,-7.0872 36.5679,-7.1534 41.3441,-3.7374c7.6678,5.5042 15.442,18.0178 18.3268,27.26959c2.8848,9.2519 -8.3406,13.7369 -18.2851,16.7817c-12.5081,3.8297 -25.64,7.0421 -37.2442,2.9411z" data-paper-data="{&quot;origPos&quot;:null}" fill="#ffffff" stroke="#000000" stroke-linecap="round"/><path d="M273.00426,260.27827c-6.8341,5.858 -17.8798,3.2889 -26.9829,2.9369c-5.9055,-0.557 -13.222,-0.89189 -17.2729,-5.612c-3.9358,-4.5558 -5.8315,-33.3127 -1.8086,-38.6425c3.3533,-4.5437 34.6202,-6.2226 41.201,-0.7703c5.7686,4.4989 9.7811,37.8674 4.8633,42.0879z" data-paper-data="{&quot;origPos&quot;:null}" fill="#ffffff" stroke="#000000" stroke-linecap="round"/><path d="M267.16027,207.60987c-5.2955,4.4545 -35.58301,7.3318 -41.4376,3.0061c-4.5442,-3.4275 -7.2376,-33.37919 -3.2585,-39.0784c4.54759,-6.5141 14.20001,-7.0159 21.8994,-8.61839c7.0193,-1.0336 16.95231,-5.1712 21.5403,0.8313c5.9871,7.8392 4.7242,40.9725 1.2564,43.8594z" data-paper-data="{&quot;origPos&quot;:null}" fill="#ffffff" stroke="#000000" stroke-linecap="round"/><path d="M169.63586,255.35567l-7.65309,-78.8648l48.3204,-3.69l8.4972,82.7367z" data-paper-data="{&quot;origPos&quot;:null}" fill="url(#color-3)" stroke="#000000" stroke-linecap="round"/><g fill="#000000" stroke="none"><path d="M326.76596,237.20927l0.5085,6.06481l-8.8586,-0.1306l0.8678,8.8757l-5.0383,0.4104l-0.48809,-9.0484l-26.1193,2.12771l-0.4545,-5.64331l26.1736,-1.70621l-1.3984,-8.8325l4.3753,-0.3564l0.9218,9.2972z" stroke-linecap="round"/><g stroke-linecap="butt"><path d="M289.38966,255.07667c-0.3756,0.0306 -0.5596,-0.0885 -0.5935,-0.3539c-0.3327,-1.9401 -0.6235,-3.8833 -0.9561,-5.8234c-0.017,-0.1327 -0.0283,-0.2212 -0.0396,-0.3096c0.3339,-0.0272 0.5786,-0.0919 0.8708,-0.1157c0.1252,-0.0102 0.3091,0.1089 0.3261,0.2416c0.1231,0.3029 0.2045,0.6092 0.3332,0.9563c0.1992,0.5649 0.3357,0.64321 0.8782,0.599c1.1687,-0.0952 2.3907,-0.1053 3.55359,-0.2448c1.7476,-0.1871 3.5256,-0.466 5.2732,-0.65301c1.0017,-0.0817 1.9732,-0.0714 2.9749,-0.153c0.7098,-0.05781 1.461,-0.119 2.2067,-0.2245c-0.3092,-0.1089 -0.6184,-0.2241 -0.9331,-0.371c-1.2975,-0.5851 -2.3548,-1.2489 -3.5125,-1.9045c-0.9529,-0.5342 -1.6348,-1.2651 -2.5061,-1.7852c-0.7749,-0.4593 -1.54,-0.8898 -2.2493,-1.4264c-0.5101,-0.39099 -1.7594,-0.5128 -1.4649,-1.0654c1.4628,-2.4295 3.4697,-3.5772 5.1678,-5.4282c1.0273,-1.0937 2.00219,-2.335 3.021,-3.4202c0.2539,-0.2712 0.2278,-0.1974 0.3474,-0.2518l-0.0114,-0.0885c-0.8347,0.0681 -1.6697,0.1361 -2.5044,0.204c-1.99799,0.2075 -4.0378,0.4184 -6.0414,0.5816c-1.5025,0.1224 -3.0584,0.1597 -4.56691,0.2379c-0.3756,0.0306 -0.7455,0.1054 -1.1155,0.1803c-0.2865,0.068 -0.4198,0.3471 -0.4219,0.6602c-0.0135,0.2246 0.0092,0.4015 0.0375,0.6227c0.0396,0.3097 -0.1216,0.3676 -0.336,0.3403c-0.2561,-0.0238 -0.4648,-0.0069 -0.7152,0.0136c-0.2086,0.017 -0.2256,-0.1158 -0.24829,-0.2927c-0.138,-0.7487 -0.276,-1.4977 -0.3666,-2.2055c-0.14361,-0.7929 -0.2399,-1.5454 -0.3835,-2.3383c-0.034,-0.2654 -0.0093,-0.4016 0.2886,-0.3811c0.2561,0.0238 0.5008,-0.0408 0.7095,-0.0579c0.2504,-0.02029 0.35089,0.1056 0.4265,0.3676c0.0871,0.3505 0.1741,0.7011 0.3393,1.0009c0.0531,0.085 0.237,0.20421 0.3205,0.1974c0.9655,-0.034 1.9675,-0.1156 2.9331,-0.1496c1.049,-0.04069 2.1041,-0.0373 3.1949,-0.0814c0.2925,-0.0238 0.6264,-0.0511 0.9129,-0.1191c0.9846,-0.2143 2.0341,-0.2551 3.1192,-0.3435c1.5863,-0.1293 3.1252,-0.2993 4.7112,-0.4285c0.5429,-0.0443 1.1272,-0.0918 1.66411,-0.1803c0.3643,-0.11911 0.4972,-0.3981 0.4462,-0.7966c-0.0056,-0.04419 -0.0113,-0.0885 -0.0113,-0.0885c-0.0601,-0.7997 0.1319,-0.9494 0.8641,-0.8303c0.0834,-0.0068 0.2313,0.16 0.2426,0.2485c0.0453,0.3539 0.09059,0.7078 0.1359,1.0621c0.0942,1.0651 0.2718,2.1239 0.4021,3.1414c0.0736,0.5751 -0.23,0.6619 -0.4711,0.9323c-1.0667,1.2591 -2.12701,1.9854 -3.2473,2.9695c-1.30381,1.3128 -2.708,2.5388 -4.0313,3.9274c-0.33119,0.3476 -0.3366,0.0717 0.0509,0.3981c1.8014,1.5519 3.6882,3.0215 5.4686,4.33831c0.9535,0.708 2.0933,1.1091 3.0214,1.8551c0.4098,0.3293 0.95,0.5037 1.0407,1.2119c0.1168,1.2421 0.3227,2.522 0.4395,3.7641c0.034,0.2655 -0.0799,0.3642 -0.3303,0.3846c-0.6264,0.051 -0.6264,0.051 -0.7587,-0.6535c-0.09059,-0.7078 0.0484,-0.94259 -0.9536,-0.861c-0.8347,0.068 -1.628,0.1326 -2.4571,0.2448c-0.2922,0.0238 -0.5787,0.0919 -0.8708,0.1157c-1.4194,0.1156 -2.797,0.2278 -4.2161,0.3434c-1.7949,0.14619 -3.55381,0.2448 -5.3488,0.391c-1.0017,0.0816 -2.0094,0.11901 -3.0584,0.1597c-0.5429,0.0443 -0.7346,0.194 -0.70279,0.7725c0.0227,0.1769 -0.0381,0.3607 0.0262,0.5343c0.1344,0.39131 -0.1159,0.4117 -0.3247,0.4287z"/></g></g><g><g><path d="M90.70396,185.70407c0,0 -0.4928,0.3999 -0.3342,0.4413c0.4478,0.1165 1.0392,-0.0388 1.54629,-0.126c0.2615,-0.0449 0.4912,-0.2003 0.7471,-0.2677c0.5002,-0.13231 1.0302,-0.1659 1.52,-0.3311c0.3272,-0.1101 0.6165,-0.3136 0.914,-0.4886c0.24711,-0.1449 0.4601,-0.35401 0.721,-0.4724c0.4808,-0.2191 0.9629,-0.4926 1.4938,-0.5358c1.3576,-0.1106 2.7434,0.0746 4.1115,0.0792c0.3421,0.00091 0.5139,-0.0914 0.7734,-0.063c0.4725,0.0512 0.933,0.248 1.4055,0.2993c0.2594,0.0283 0.4814,-0.0533 0.773,-0.063c1.1667,-0.0385 3.5058,-0.0783 3.5058,-0.0783" fill="none" stroke="#7f7f7f" stroke-linecap="round"/><path d="M113.59117,181.85807c0.6816,-1.6289 6.45359,-2.1261 9.11961,-4.153c1.4057,-1.0669 1.1091,-3.8371 2.6082,-4.7594c3.70991,-2.2823 8.13461,-3.1541 12.304,-4.4125c2.7175,-0.8191 5.7664,-0.64219 8.34641,-1.8166c1.6013,-0.72821 2.2124,-2.9923 3.8134,-3.7204c2.58,-1.1744 5.4733,-2.1283 8.3467,-1.8167c1.5115,0.1632 2.4106,2.0771 3.6158,3.1153c1.2054,1.0385 2.2769,2.2904 3.6159,3.1156c1.4109,0.8696 3.3559,0.6996 4.5329,1.9042c1.0837,1.1098 1.4398,2.8702 1.6373,4.4135c0.19749,1.5436 0.2948,3.32489 -0.48551,4.5865c-0.8476,1.3694 -2.6393,1.7314 -3.957,2.5957c-1.318,0.8643 -2.4433,2.1611 -3.9574,2.5959c-4.0777,1.1711 -8.336,1.8158 -12.592,2.1625c-2.8483,0.232 -5.7605,-0.1651 -8.6343,-0.4334c-1.4698,-0.1374 -2.923,-0.8011 -4.3892,-0.7792c-4.2686,0.0637 -8.4555,1.2526 -12.736,1.0375c-1.5952,-0.0792 -2.9866,-1.4003 -4.5333,-1.9042c-2.1883,-0.7105 -7.14859,-0.5543 -6.6556,-1.7312z" fill="none" stroke="#7f7f7f" stroke-linecap="round"/><path d="M163.79546,166.32737c-0.3091,0.409 -0.7733,0.68401 -1.319,0.7285c-0.546,0.04451 -1.07,-0.15 -1.47659,-0.5008c-0.4066,-0.3499 -0.695,-0.8555 -0.7691,-1.4342c-0.07401,-0.5784 0.0804,-1.1204 0.38991,-1.5287c0.3094,-0.409 0.7733,-0.68401 1.3193,-0.7285c0.5457,-0.0444 1.07,0.15 1.4763,0.5008c0.4069,0.3499 0.6954,0.8558 0.7694,1.4342c0.0741,0.5788 -0.0803,1.1203 -0.3902,1.5287z" fill="url(#color-4)" stroke="none" stroke-linecap="butt"/><path d="M160.56816,162.89607c-0.3091,0.409 -0.77341,0.684 -1.319,0.7285c-0.546,0.04451 -1.07,-0.15 -1.4767,-0.50079c-0.4065,-0.3499 -0.695,-0.8555 -0.769,-1.4342c-0.07401,-0.5784 0.0803,-1.1204 0.3898,-1.52869c0.3094,-0.409 0.7733,-0.68401 1.3194,-0.7285c0.5456,-0.0444 1.07,0.15 1.4763,0.5008c0.4069,0.3499 0.6953,0.8558 0.7693,1.4342c0.0741,0.5788 -0.0803,1.1204 -0.3902,1.5287z" fill="url(#color-5)" stroke="none" stroke-linecap="butt"/><path d="M155.79466,162.36127c-0.3091,0.4091 -0.7733,0.6841 -1.3189,0.7285c-0.546,0.04451 -1.07,-0.15 -1.4767,-0.5007c-0.4066,-0.35 -0.695,-0.8555 -0.769,-1.4343c-0.07401,-0.5784 0.0804,-1.1204 0.3898,-1.52869c0.3094,-0.409 0.7733,-0.68401 1.3194,-0.7285c0.5456,-0.0444 1.07,0.15 1.4763,0.5008c0.4069,0.3499 0.6954,0.8558 0.7694,1.4342c0.0741,0.5788 -0.0804,1.1204 -0.3903,1.5287z" fill="url(#color-6)" stroke="none" stroke-linecap="butt"/><path d="M151.86617,164.34387c-0.3091,0.4091 -0.7733,0.68401 -1.319,0.7284c-0.546,0.04451 -1.07,-0.15 -1.4766,-0.5007c-0.4066,-0.3499 -0.695,-0.8555 -0.7691,-1.4342c-0.07401,-0.5784 0.0804,-1.1204 0.38991,-1.5287c0.3094,-0.409 0.7733,-0.68401 1.3194,-0.7285c0.5456,-0.0444 1.0699,0.15 1.4763,0.5008c0.4069,0.3499 0.6954,0.8558 0.7694,1.4342c0.0741,0.5788 -0.0804,1.1204 -0.3903,1.5288z" fill="url(#color-7)" stroke="none" stroke-linecap="butt"/><path d="M148.44626,167.57767c-0.3091,0.4091 -0.7733,0.68401 -1.3189,0.7285c-0.546,0.04451 -1.07,-0.15 -1.4767,-0.5007c-0.4065,-0.35 -0.6949,-0.8555 -0.769,-1.4343c-0.07401,-0.5784 0.0804,-1.1203 0.3899,-1.5286c0.3093,-0.409 0.7733,-0.68401 1.3193,-0.7285c0.5457,-0.0444 1.07,0.15 1.4763,0.5007c0.4069,0.35 0.6954,0.8559 0.7694,1.4343c0.0741,0.5788 -0.0804,1.1203 -0.3902,1.5287z" fill="url(#color-8)" stroke="none" stroke-linecap="butt"/><path d="M143.56186,168.89927c-0.3091,0.409 -0.7733,0.68401 -1.319,0.7284c-0.546,0.04451 -1.07,-0.15 -1.4766,-0.5007c-0.4066,-0.35 -0.695,-0.8556 -0.7691,-1.4343c-0.07401,-0.5784 0.0804,-1.1203 0.38991,-1.5287c0.3094,-0.409 0.7733,-0.68401 1.3193,-0.7284c0.5457,-0.0444 1.07,0.15 1.4763,0.5007c0.4069,0.35 0.6954,0.8559 0.7694,1.4343c0.0741,0.5787 -0.0803,1.1203 -0.3902,1.5287z" fill="url(#color-9)" stroke="none" stroke-linecap="butt"/><path d="M139.36736,170.16446c-0.3091,0.4091 -0.77341,0.684 -1.319,0.7284c-0.546,0.04451 -1.07,-0.15 -1.4766,-0.5007c-0.4066,-0.3499 -0.695,-0.8555 -0.7691,-1.4342c-0.07401,-0.5784 0.0804,-1.1203 0.38991,-1.5287c0.3094,-0.409 0.7733,-0.68401 1.3193,-0.7284c0.5457,-0.0445 1.07,0.15 1.4763,0.5007c0.4069,0.35 0.6954,0.8559 0.7694,1.4343c0.0741,0.5787 -0.0803,1.1203 -0.3902,1.5287z" fill="url(#color-10)" stroke="none" stroke-linecap="butt"/><path d="M134.65537,171.47187c-0.3091,0.4091 -0.7733,0.68401 -1.3189,0.7285c-0.546,0.04451 -1.07,-0.15 -1.4767,-0.50079c-0.4065,-0.3499 -0.695,-0.8555 -0.769,-1.4342c-0.07401,-0.5784 0.0803,-1.1204 0.3898,-1.52869c0.3094,-0.409 0.7733,-0.68401 1.3194,-0.7285c0.5456,-0.0444 1.0699,0.1501 1.4763,0.5008c0.4069,0.3499 0.6954,0.8558 0.7694,1.4342c0.074,0.5788 -0.0804,1.1204 -0.3903,1.5287z" fill="url(#color-11)" stroke="none" stroke-linecap="butt"/><path d="M130.46087,172.73717c-0.3091,0.409 -0.77341,0.684 -1.319,0.7284c-0.546,0.04451 -1.07,-0.15 -1.4767,-0.5007c-0.4065,-0.35 -0.695,-0.8555 -0.769,-1.4343c-0.07401,-0.5784 0.0803,-1.1203 0.3898,-1.5286c0.3094,-0.4091 0.7733,-0.6841 1.3194,-0.7285c0.5456,-0.0444 1.0699,0.15 1.4762,0.5007c0.407,0.35 0.6955,0.8559 0.7695,1.4343c0.074,0.5787 -0.0804,1.1203 -0.3903,1.5287z" fill="url(#color-12)" stroke="none" stroke-linecap="butt"/><path d="M126.64926,175.63367c-0.3091,0.4091 -0.7733,0.68401 -1.3189,0.7285c-0.546,0.04451 -1.07,-0.15 -1.4767,-0.50079c-0.4065,-0.3499 -0.695,-0.8554 -0.769,-1.4342c-0.07401,-0.5784 0.0803,-1.1204 0.3898,-1.52869c0.3094,-0.409 0.7733,-0.68401 1.3194,-0.7285c0.5456,-0.0444 1.07,0.1501 1.4763,0.5008c0.4069,0.35 0.6954,0.8558 0.7694,1.4342c0.074,0.5788 -0.0804,1.1203 -0.3903,1.5287z" fill="url(#color-13)" stroke="none" stroke-linecap="butt"/><g stroke="none" stroke-linecap="butt"><path d="M123.62956,178.67428c-0.1377,0.5092 -0.4628,0.9513 -0.9432,1.2058c-0.4801,0.2545 -1.0242,0.2733 -1.5161,0.0977c-0.4922,-0.1749 -0.9311,-0.5437 -1.201,-1.06509c-0.2699,-0.5215 -0.3195,-1.09669 -0.1815,-1.6056c0.1377,-0.5092 0.4628,-0.9512 0.9428,-1.2058c0.4802,-0.2544 1.0246,-0.2733 1.5165,-0.0977c0.4922,0.1749 0.9311,0.5437 1.20101,1.0652c0.2699,0.5214 0.3195,1.0966 0.1815,1.6055z" fill="url(#color-14)"/><path d="M119.87346,180.64277c-0.1376,0.5092 -0.4627,0.9513 -0.9431,1.2058c-0.4801,0.2545 -1.0242,0.2733 -1.5161,0.0977c-0.4922,-0.1749 -0.9311,-0.5437 -1.20111,-1.0652c-0.2699,-0.5214 -0.3195,-1.0966 -0.1814,-1.6055c0.1376,-0.5092 0.4628,-0.9513 0.9428,-1.2058c0.4801,-0.2545 1.0245,-0.2733 1.5165,-0.0977c0.4922,0.1749 0.931,0.5437 1.20101,1.0652c0.2699,0.5214 0.3195,1.0966 0.1814,1.6055z" fill="url(#color-15)"/></g><path d="M172.10687,172.08687c-0.5228,0.6917 -1.3077,1.1569 -2.2308,1.232c-0.923,0.07519 -1.8095,-0.25379 -2.4967,-0.8469c-0.6881,-0.5919 -1.1761,-1.4472 -1.3013,-2.4256c-0.1252,-0.9784 0.1361,-1.8945 0.66001,-2.5855c0.5228,-0.6913 1.3077,-1.1564 2.2307,-1.2316c0.923,-0.07519 1.8096,0.25379 2.4967,0.8465c0.6879,0.5923 1.1758,1.4473 1.301,2.42569c0.1252,0.9784 -0.136,1.8948 -0.6597,2.5854z" fill="url(#color-16)" stroke="none" stroke-linecap="butt"/><path d="M170.16566,182.06317c-0.309,0.4091 -0.7733,0.6841 -1.319,0.7285c-0.5459,0.04451 -1.0699,-0.15 -1.4766,-0.5007c-0.4066,-0.35 -0.695,-0.8556 -0.7691,-1.4343c-0.07401,-0.5784 0.0804,-1.1204 0.38991,-1.5287c0.3094,-0.409 0.7733,-0.68401 1.3193,-0.7284c0.5457,-0.0445 1.07,0.15 1.4763,0.5007c0.4069,0.3499 0.6954,0.8558 0.7694,1.4342c0.0741,0.5788 -0.0804,1.1203 -0.3902,1.5287z" fill="url(#color-17)" stroke="none" stroke-linecap="butt"/><path d="M165.78996,184.63627c-0.309,0.409 -0.7733,0.68401 -1.319,0.7284c-0.5459,0.04451 -1.0699,-0.15 -1.4766,-0.5007c-0.4066,-0.3499 -0.695,-0.8555 -0.7691,-1.4342c-0.07401,-0.5784 0.0804,-1.1204 0.38991,-1.5287c0.3094,-0.409 0.7733,-0.68401 1.3193,-0.7285c0.5457,-0.0444 1.07,0.15 1.4763,0.5007c0.407,0.35 0.6954,0.8559 0.7694,1.4343c0.0741,0.5788 -0.0803,1.1203 -0.3902,1.5287z" fill="url(#color-18)" stroke="none" stroke-linecap="butt"/><path d="M160.73317,185.97177c-0.3091,0.409 -0.77341,0.684 -1.319,0.7284c-0.546,0.04451 -1.07,-0.15 -1.4766,-0.5007c-0.4066,-0.35 -0.695,-0.8555 -0.7691,-1.4343c-0.07401,-0.5784 0.0804,-1.1203 0.3899,-1.5286c0.3094,-0.409 0.7733,-0.68401 1.3193,-0.7285c0.5457,-0.0444 1.07,0.15 1.4763,0.5008c0.4069,0.3499 0.6954,0.8558 0.7694,1.4342c0.0741,0.5788 -0.0803,1.1204 -0.3902,1.5288z" fill="url(#color-19)" stroke="none" stroke-linecap="butt"/><path d="M155.04186,186.43537c-0.3091,0.409 -0.7733,0.68401 -1.3189,0.7285c-0.546,0.04451 -1.07,-0.15 -1.4767,-0.50079c-0.4065,-0.3499 -0.695,-0.8555 -0.769,-1.4342c-0.0741,-0.5784 0.0803,-1.1204 0.3898,-1.52869c0.3094,-0.4091 0.7733,-0.6841 1.3194,-0.7285c0.5456,-0.0444 1.07,0.15 1.4763,0.5007c0.4069,0.35 0.6954,0.8559 0.7694,1.4343c0.0741,0.5787 -0.0804,1.1203 -0.3903,1.5287z" fill="url(#color-20)" stroke="none" stroke-linecap="butt"/><path d="M149.71897,187.05357c-0.3091,0.409 -0.77341,0.684 -1.319,0.7284c-0.546,0.04451 -1.07,-0.15 -1.4766,-0.5007c-0.4066,-0.3499 -0.695,-0.8555 -0.7691,-1.4343c-0.07401,-0.5784 0.0804,-1.1203 0.3899,-1.5286c0.3094,-0.409 0.7733,-0.68401 1.3193,-0.7285c0.5457,-0.0444 1.0699,0.1501 1.4763,0.5008c0.4069,0.3499 0.6954,0.8558 0.7694,1.4342c0.0741,0.5788 -0.0804,1.1204 -0.3902,1.5287z" fill="url(#color-21)" stroke="none" stroke-linecap="butt"/><path d="M144.15336,187.13777c-0.309,0.4091 -0.7733,0.68401 -1.319,0.7285c-0.5459,0.04451 -1.0699,-0.15 -1.47659,-0.5008c-0.4066,-0.3499 -0.695,-0.8555 -0.7691,-1.4342c-0.07401,-0.5784 0.0804,-1.1203 0.38991,-1.5287c0.3094,-0.409 0.7733,-0.68401 1.3194,-0.7284c0.5456,-0.0445 1.0699,0.15 1.4763,0.5007c0.4069,0.3499 0.6954,0.8559 0.7694,1.4343c0.074,0.5787 -0.0804,1.1203 -0.3903,1.5287z" fill="url(#color-22)" stroke="none" stroke-linecap="butt"/><path d="M138.71347,186.84187c-0.3091,0.4091 -0.7733,0.6841 -1.319,0.7285c-0.546,0.04451 -1.07,-0.15 -1.4766,-0.5007c-0.4066,-0.35 -0.695,-0.8555 -0.7691,-1.4343c-0.07401,-0.5784 0.0804,-1.1203 0.38991,-1.5287c0.3094,-0.409 0.77331,-0.6839 1.3193,-0.7284c0.5457,-0.0445 1.0699,0.15 1.4763,0.5007c0.4069,0.35 0.6954,0.8559 0.7694,1.4343c0.0741,0.5787 -0.0804,1.1203 -0.3902,1.5287z" fill="url(#color-23)" stroke="none" stroke-linecap="butt"/><path d="M133.66536,186.88367c-0.3091,0.4091 -0.7733,0.68401 -1.319,0.7285c-0.546,0.04451 -1.07,-0.15 -1.4766,-0.5007c-0.4066,-0.35 -0.695,-0.8555 -0.7691,-1.4343c-0.07401,-0.5784 0.0804,-1.1203 0.38991,-1.5287c0.3093,-0.409 0.77331,-0.6839 1.3193,-0.7284c0.5457,-0.0444 1.07,0.15 1.4763,0.5007c0.4069,0.35 0.6954,0.8559 0.7694,1.4343c0.0741,0.5787 -0.0804,1.1203 -0.3902,1.5287z" fill="url(#color-24)" stroke="none" stroke-linecap="butt"/><path d="M128.07637,186.78487c-0.3091,0.409 -0.7733,0.68401 -1.319,0.7285c-0.546,0.04451 -1.07,-0.15 -1.47659,-0.5008c-0.4066,-0.3499 -0.695,-0.8555 -0.7691,-1.4342c-0.07401,-0.5784 0.0804,-1.1204 0.38991,-1.5287c0.3094,-0.409 0.7733,-0.68401 1.3193,-0.7285c0.5457,-0.0444 1.07,0.15 1.4763,0.5008c0.4069,0.3499 0.6954,0.8558 0.7694,1.4342c0.0741,0.5788 -0.0803,1.1204 -0.3902,1.5287z" fill="url(#color-25)" stroke="none" stroke-linecap="butt"/><path d="M122.34706,185.58907c-0.3091,0.409 -0.77341,0.684 -1.319,0.7284c-0.546,0.04451 -1.07,-0.15 -1.4767,-0.5007c-0.4065,-0.35 -0.695,-0.8555 -0.769,-1.4343c-0.0741,-0.5784 0.0803,-1.1203 0.3898,-1.5286c0.3094,-0.409 0.7734,-0.6841 1.3194,-0.7285c0.5457,-0.0444 1.0699,0.15 1.4763,0.5008c0.4069,0.3499 0.6954,0.8558 0.7694,1.4342c0.0741,0.5787 -0.0804,1.1203 -0.3902,1.5287z" fill="url(#color-26)" stroke="none" stroke-linecap="butt"/><path d="M114.92076,185.94587c-0.8603,0.8762 -2.1257,1.478 -3.5923,1.5975c-1.467,0.11949 -2.8588,-0.2658 -3.9232,-0.9852c-1.0641,-0.7191 -1.8007,-1.7714 -1.9562,-2.9871c-0.1555,-1.2153 0.2992,-2.3651 1.1592,-3.2408c0.8603,-0.8758 2.1257,-1.4776 3.5927,-1.5971c1.4666,-0.1195 2.8584,0.26579 3.9228,0.9849c1.06439,0.719 1.801,1.7717 1.9565,2.987c0.1556,1.21559 -0.2992,2.365 -1.1595,3.2408z" fill="#b2b2b2" stroke="none" stroke-linecap="butt"/><path d="M105.22017,184.60717c-0.1376,0.5092 -0.4627,0.9513 -0.9431,1.2058c-0.4801,0.2545 -1.0242,0.2733 -1.5161,0.0977c-0.4922,-0.1749 -0.9311,-0.5437 -1.20111,-1.0652c-0.2699,-0.5214 -0.3194,-1.09669 -0.1814,-1.6055c0.1377,-0.5092 0.4627,-0.9513 0.9428,-1.2058c0.4801,-0.2545 1.0245,-0.2733 1.5165,-0.0977c0.4922,0.1749 0.9311,0.5437 1.201,1.06509c0.2699,0.5215 0.3195,1.09669 0.1815,1.6056z" fill="url(#color-27)" stroke="none" stroke-linecap="butt"/><path d="M100.29766,184.26917c-0.1376,0.5091 -0.4627,0.9512 -0.9431,1.2058c-0.4801,0.2544 -1.0242,0.2733 -1.5161,0.0976c-0.4922,-0.1748 -0.9311,-0.5437 -1.20111,-1.0651c-0.2699,-0.5214 -0.3194,-1.09669 -0.1814,-1.6055c0.1377,-0.5092 0.4627,-0.9513 0.9428,-1.2058c0.4801,-0.2545 1.0245,-0.2734 1.5165,-0.0977c0.4922,0.1748 0.9311,0.5437 1.201,1.06509c0.2699,0.5215 0.3195,1.09669 0.1815,1.6056z" fill="url(#color-28)" stroke="none" stroke-linecap="butt"/><path d="M95.64757,186.65587c-0.3091,0.4091 -0.7733,0.68401 -1.319,0.7285c-0.546,0.04451 -1.07,-0.15 -1.4766,-0.5007c-0.4066,-0.35 -0.695,-0.8555 -0.7691,-1.4343c-0.07401,-0.5784 0.0804,-1.1203 0.3899,-1.5286c0.3094,-0.409 0.7733,-0.68401 1.3193,-0.7285c0.5457,-0.0444 1.07,0.15 1.4763,0.5008c0.407,0.3499 0.6955,0.8558 0.7695,1.4342c0.074,0.5788 -0.0804,1.1203 -0.3903,1.5287z" fill="url(#color-29)" stroke="none" stroke-linecap="butt"/><path d="M88.00436,189.02918l0.8848,3.8616l-4.0856,0.1259l-0.83241,-3.4517l-11.48319,0.3144l-0.6031,-4.7128l10.9395,-1.5121l-0.4361,-4.9333l4.0857,-0.1255l0.60301,4.7124l3.8659,-0.3149l0.708,5.5321z" fill="#b2b2b2" stroke="none" stroke-linecap="round"/><path d="M88.63257,185.54797l-14.0059,1.9691" fill="none" stroke="#7f7f7f" stroke-linecap="round"/><path d="M85.26126,182.09627l0.7242,7.1869" fill="none" stroke="#7f7f7f" stroke-linecap="round"/></g><path d="M161.47016,263.71727l-7.6225,-89.5192l14.2676,-1.5317l9.3878,86.9742z" fill="#000000" stroke="none" stroke-linecap="round"/><g><g><g><path d="M170.39086,274.80977l8.1447,6.9079l-44.1492,1.5664l5.4265,-10.94439l31.0532,-5.2549z" fill="#363a37" stroke="none" stroke-linecap="round"/><path d="M193.44416,270.77217l-18.1477,0.8197l3.6017,-25.8707l31.2593,-1.8943z" fill="#000000" stroke="none" stroke-linecap="round"/><path d="M159.91866,280.37137l-36.7494,1.66l-0.5275,-5.5161l36.7494,-1.6604z" fill="url(#color-30)" stroke="url(#color-31)" stroke-linecap="round"/><path d="M184.49797,292.86607c-1.1463,0.0516 -2.2125,-0.1693 -3.0071,-0.5696c-0.7946,-0.4004 -1.31769,-0.9807 -1.3812,-1.6423c-0.0631,-0.6621 0.3452,-1.2842 1.05659,-1.7526c0.7116,-0.4688 1.7267,-0.7834 2.873,-0.8351c1.1462,-0.05189 2.2124,0.169 3.007,0.56931c0.7946,0.4004 1.3181,0.9806 1.3812,1.6426c0.0634,0.6617 -0.34491,1.2839 -1.05659,1.7526c-0.7116,0.4684 -1.72671,0.7831 -2.8729,0.8351z" fill="#ff0000" stroke="none" stroke-linecap="butt"/><path d="M221.02227,271.97668l-9.3202,10.5439l-13.8673,1.1082l8.323,4.44451l-14.8666,0.1896l-9.0333,-3.9304l-13.1572,0.5945l-13.6177,-5.8119l-0.3163,-12.8395l49.857,-5.9481z" fill="#000000" stroke="none" stroke-linecap="round"/><path d="M210.80336,292.21998l-27.3578,1.3963l3.8693,-2.4243l-0.5167,-2.2258l-4.2514,-1.5754l27.6752,-1.2504z" fill="#000000" stroke="none" stroke-linecap="round"/></g><path d="M102.79226,277.90247v0l-0.2213,0.0383v0z" fill="#cccccc" stroke="none" stroke-linecap="butt"/></g><path d="M122.20276,291.85208l-1.6469,-22.4009l19.6193,-10.095l38.1575,-9.5733l0.4376,37.4612z" fill="#353935" stroke="none" stroke-linecap="round"/></g><g stroke-linecap="butt"><path d="M155.33987,252.57978l-2.1055,-16.4527l27.5938,-2.2479l2.1055,16.4527z" fill="#cccc00" stroke="#000000"/><path d="M178.51567,239.85647c-0.3369,0.4449 -0.84559,0.745 -1.4389,0.7933c-0.5933,0.0483 -1.1676,-0.1635 -1.6102,-0.5449c-0.44271,-0.3814 -0.7575,-0.9357 -0.838,-1.56459c-0.0805,-0.6289 0.0875,-1.2225 0.42441,-1.6674c0.3369,-0.445 0.84559,-0.745 1.4389,-0.7933c0.5933,-0.0483 1.1676,0.1635 1.6103,0.5449c0.4426,0.38141 0.7575,0.9357 0.838,1.56459c0.0804,0.6289 -0.0876,1.2225 -0.42441,1.6674z" fill="#ff0000" stroke="none"/></g><g stroke="none"><path d="M137.90837,230.63077l-2.0715,-19.8117l46.6653,-2.5764l2.0719,19.8116z" fill="url(#color-32)" stroke-linecap="butt"/><path d="M137.20136,232.09947l-5.4181,-12.803l2.358,-9.9567l4.0275,-0.4955l2.4124,23.0685z" fill="#666666" stroke-linecap="round"/><path d="M139.70446,228.07457l-0.19889,-1.8996l43.5888,-2.4064l0.1985,1.8997z" fill="#666666" stroke-linecap="butt"/><path d="M139.27866,224.00387l-0.1703,-1.6282l44.1016,-2.43479l0.17,1.6282z" fill="#666666" stroke-linecap="butt"/><path d="M190.75737,227.14857c-0.2883,1.762 -1.9453,3.29669 -3.5233,3.3001c-1.3219,0.0035 -2.1608,-1.2119 -3.0808,-3.3107c-0.92,-2.0988 -1.659,-5.0257 -1.99961,-8.2829c-0.3408,-3.2568 -0.2185,-6.2315 0.2544,-8.4071c0.4726,-2.1757 1.2953,-3.5523 2.3567,-3.6107c1.0618,-0.0588 2.1612,1.2119 3.0811,3.3103c0.9196,2.0988 1.4999,5.4669 1.99971,8.283c0.515,2.9027 1.6076,5.9528 0.9118,8.718z" fill="#b2b2b2" stroke-linecap="round"/><path d="M138.17156,213.41947l-0.17,-1.6282l43.5887,-2.4067l0.1702,1.62859z" fill="#666666" stroke-linecap="butt"/><path d="M177.37716,201.15548v0l-0.2564,0.0143v0z" fill="#666666" stroke-linecap="butt"/><path d="M182.69286,229.79556l-2.4123,-23.0685l4.1024,-0.22639l2.7836,21.6832l6.0116,-1.6966l-5.4726,6.8531z" fill="#666666" stroke-linecap="round"/><path d="M154.37307,220.19407l-0.7947,-7.599l12.8199,-0.7078l0.7948,7.599z" fill="#000000" stroke-linecap="butt"/><path d="M163.13616,216.42437c-0.5514,0.5252 -1.3525,0.8749 -2.2723,0.9258c-0.9202,0.0509 -1.7848,-0.2071 -2.4391,-0.6658c-0.6555,-0.4571 -1.0997,-1.1151 -1.1782,-1.8642c-0.0784,-0.7491 0.2242,-1.4479 0.77681,-1.9721c0.5518,-0.5252 1.3529,-0.8748 2.2728,-0.9258c0.9199,-0.0505 1.78441,0.2074 2.4391,0.6658c0.6555,0.4571 1.0997,1.1151 1.1778,1.8642c0.0784,0.7491 -0.2238,1.4482 -0.77681,1.9721z" fill="#ff0000" stroke-linecap="butt"/><path d="M156.77317,181.68468c-0.0116,-0.1121 -0.0222,-0.214 -0.0302,-0.2879c-0.0077,-0.0737 -0.0126,-0.1194 -0.0126,-0.1194c0,0 0.0049,0.0457 0.0126,0.1194c0.008,0.0739 0.0186,0.1758 0.0302,0.2879c0.0118,0.1117 0.0225,0.2135 0.0302,0.2875c0.0076,0.0737 0.0125,0.1194 0.0125,0.1194c0,0 -0.0048,-0.0457 -0.0125,-0.1194c-0.0078,-0.074 -0.0184,-0.1758 -0.0302,-0.2875z" fill="#ff0000" stroke-linecap="butt"/></g><g stroke="none" stroke-linecap="butt"><path d="M161.09796,232.21436l-1.8248,-14.259l11.21,-0.9132l1.8248,14.259z" fill="url(#color-33)"/><path d="M168.91157,204.76097l1.6377,12.7965l-11.21,0.9132l-1.6376,-12.7966z" fill="url(#color-34)"/></g><g stroke="none" stroke-linecap="butt"><g><path d="M175.73457,200.67597c-2.2289,2.9434 -5.573,4.9251 -9.5027,5.2453c-3.9297,0.3201 -7.70691,-1.0815 -10.635,-3.6048c-2.9285,-2.5233 -5.0074,-6.1675 -5.5405,-10.333c-0.533,-4.1654 0.5799,-8.0697 2.8088,-11.0128c2.2285,-2.9433 5.5727,-4.9251 9.5024,-5.2452c3.9297,-0.3201 7.7068,1.08151 10.6353,3.6048c2.928,2.523 5.00699,6.1672 5.5401,10.3326c0.5331,4.1654 -0.5799,8.0697 -2.8084,11.0131z" fill="#000000"/><path d="M162.59507,176.64597c7.1493,-0.5824 13.7618,5.3306 14.7698,13.2074c1.0081,7.87679 -4.1,14.1989 -11.2489,14.7813c-7.1496,0.5824 -13.6324,-4.7962 -14.6403,-12.6727c-1.008,-7.8765 3.9703,-14.7336 11.1195,-15.316z" fill="url(#color-35)"/><path d="M172.43396,193.46927c-0.1399,0.59251 -3.228,3.8021 -3.9939,4.0972c-0.7659,0.2956 -4.3573,-2.5332 -4.7107,-3.1923c-0.3529,-0.6587 0.6339,-5.5893 1.0709,-6.0224c0.4367,-0.4327 5.176,-1.2598 5.8123,-0.7864c0.6361,0.4743 1.9613,5.3118 1.8213,5.904z" fill="#000000"/><path d="M156.58377,184.85097c-1.2211,-0.8027 -3.3375,-1.8283 -2.9933,-3.306c0.5055,-2.1417 2.6396,-4.0471 4.7477,-4.2055c1.64,-0.1236 2.8179,2.21459 3.5634,3.7971c1.0056,2.1361 3.6775,7.9596 1.4017,6.8513z" fill="url(#color-36)"/><path d="M152.47627,198.14197l-2.1504,-5.4682c0.2478,-1.1414 2.3684,-1.1723 3.6661,-0.91481c2.4568,0.35401 6.1827,0.6205 7.1678,2.6781c0.7418,1.5562 -2.0856,3.627 -3.8325,4.2843c-1.48009,0.7197 -4.851,-0.5794 -4.851,-0.5794z" fill="url(#color-37)"/><path d="M167.48296,176.40257l6.1073,4.2094c0.729,0.9199 0.474,2.4812 -0.09721,3.3988c-0.6385,1.2393 -1.9888,3.229 -3.1808,2.4465c-2.075,-1.3581 -2.8186,-4.2382 -3.5175,-6.7695c-0.306,-1.1052 0.6882,-3.2852 0.6882,-3.2852z" fill="url(#color-38)"/><path d="M171.58047,203.29777c-2.4746,1.3997 -5.6686,1.7385 -8.58631,1.3711c-0.7954,-0.1015 0.1993,-1.7075 0.60171,-2.3709c1.06531,-1.5471 1.92689,-3.6628 3.7089,-4.1205c1.1898,-0.3075 2.6788,1.4146 3.1409,2.3346z" fill="url(#color-39)"/><path d="M177.65387,189.52187l0.3848,4.2133l-1.3825,3.7072c0,0 -1.17231,0.0359 -1.5012,-0.3802c-0.8782,-1.1076 -2.3506,-2.5422 -2.186,-3.9898c0.1951,-1.5527 1.8248,-2.558 3.0243,-3.528c0.45891,-0.3059 1.6607,-0.0226 1.6607,-0.0226z" fill="url(#color-40)"/></g><path d="M170.05856,193.79947c-0.3194,0.42129 -0.7982,0.7052 -1.3614,0.7511c-0.5629,0.04591 -1.1038,-0.155 -1.5233,-0.5161c-0.4192,-0.3615 -0.717,-0.8833 -0.7934,-1.4799c-0.0764,-0.5971 0.08321,-1.1561 0.4021,-1.5777c0.31929,-0.4214 0.7981,-0.705 1.3611,-0.7508c0.5632,-0.0458 1.10401,0.1547 1.5235,0.5158c0.4192,0.3615 0.7167,0.8833 0.79311,1.4803c0.0763,0.5967 -0.0829,1.1556 -0.40181,1.5773z" fill="url(#color-41)"/></g></g></g><g data-paper-data="{&quot;origRot&quot;:0}" stroke-width="2.5"><g data-paper-data="{&quot;origPos&quot;:null}"><path d="M403.49766,215.13757c-1.3516,8.9715 -3.53611,18.7448 -9.6362,25.4501c-4.7222,5.1953 -12.9133,7.1728 -19.7429,6.0864c-15.0059,-1.6682 -31.9127,-3.7661 -43.0678,-14.0077c-8.123,-7.4704 -11.3108,-21.7313 -8.2252,-32.09739c2.9449,-9.8889 13.8084,-16.2858 23.2129,-20.5294c11.6199,-5.38979 24.995,-7.33649 37.41021,-4.9924c7.9575,0.7904 15.7538,6.7283 19.4244,13.7481c4.0979,7.8316 2.336,17.7111 0.6246,26.3421z" fill="#ffd499" stroke="none" stroke-linecap="butt"/><path d="M327.21886,237.21577c0,0 6.5579,-59.8854 18.7779,-66.8584c16.8517,-9.9144 47.8705,-7.1869 47.8705,-7.1869c0,0 27.7458,-0.1392 27.7396,0.9245c-0.0061,1.0292 -5.0714,34.643 -5.0714,34.643c0,0 -3.2178,22.1512 -15.6261,37.8611c-9.9077,12.544 -33.51811,20.0175 -45.2909,23.0507c-11.7728,3.0333 -29.9833,5.0241 -29.9833,5.0241z" data-paper-data="{&quot;origPos&quot;:null}" fill="#ffffff" stroke="#000000" stroke-linecap="round"/><g fill="#ff0000" stroke="none" stroke-linecap="butt"><path d="M396.88406,165.37927l-5.4029,44.7968l-12.2638,-1.4792l5.2868,-43.5533z" data-paper-data="{&quot;origPos&quot;:null}"/><path d="M381.76096,165.25517l-3.1867,26.3274l-3.23619,-0.3904l3.1285,-25.7056z" data-paper-data="{&quot;origPos&quot;:null}"/></g><path d="M356.84566,258.06977l-9.2329,0.6145l6.639,-49.3136c0,0 3.59919,-23.8232 22.1995,-23.5893c14.3421,0.1804 12.42109,23.0992 12.42109,23.0992l-4.458,36.9616z" fill="#000000" stroke="#000000" stroke-linecap="round"/><path d="M386.95957,194.65237c2.1879,5.0991 2.0105,15.9404 1.4343,16.7626c-0.5461,0.774 -2.745,-8.4461 -4.5235,-12.6421c-1.5699,-3.0304 -6.2703,-7.8448 -5.4864,-8.9565c0.7289,-1.0284 7.0405,1.9171 8.5755,4.83609z" fill="#ffffff" stroke="none" stroke-linecap="round"/></g><path d="M371.73066,182.89847l-7.30269,-12.8249l9.3348,-0.9778z" data-paper-data="{&quot;origPos&quot;:null}" fill="#000000" stroke="none" stroke-linecap="round"/></g><g data-paper-data="{&quot;origRot&quot;:0}" stroke-width="2.5"><path d="M216.84276,193.79017c-2.9307,-9.3526 18.355,-14.0988 29.2224,-12.224c13.145,2.3328 21.0483,16.0489 32.4806,23.6104c12.24589,8.1253 29.3893,11.6783 36.8066,24.3757c4.8196,8.2792 3.5116,25.7624 -5.3638,26.85131c-16.3924,2.7909 -32.0577,-9.747 -45.449,-19.0441c-17.71,-12.2261 -42.109,-24.6016 -47.6967,-43.5692z" data-paper-data="{&quot;origPos&quot;:null,&quot;origRot&quot;:0}" fill="#000000" stroke="url(#color-42)" stroke-linecap="round"/><path d="M321.19036,153.53427c6.1664,1.9559 8.35701,14.4487 3.2385,19.1401c-11.0062,9.9821 -28.4,9.4586 -41.9672,14.9788c-15.8421,5.7752 -29.735,19.8582 -46.3646,18.8532c-9.4491,-0.5837 -21.5889,-14.3204 -16.484,-21.602c10.6246,-16.1885 31.6695,-23.0413 50.028,-28.4437c16.48969,-4.9087 35.2008,-8.2252 51.5493,-2.9266z" data-paper-data="{&quot;origPos&quot;:null}" fill="#000000" stroke="url(#color-43)" stroke-linecap="round"/><g data-paper-data="{&quot;origPos&quot;:null,&quot;origRot&quot;:0}"><g fill="#363a36" stroke="none" stroke-linecap="round"><path d="M345.21946,231.32437c3.7716,-0.959 8.5796,2.2238 12.5043,3.8937c3.7865,1.6304 8.7957,2.8032 10.8712,5.8239c1.8114,2.6378 1.1485,6.796 -1.8072,7.6786c-3.5941,1.0713 -8.538,-1.4579 -12.624,-2.9398c-4.2983,-1.7909 -10.1003,-3.2754 -12.1456,-6.7551c-1.7393,-2.95721 -0.0019,-6.9697 3.2013,-7.7013z"/><path d="M341.24457,240.49417c3.7715,-0.959 8.5795,2.2238 12.5043,3.8937c3.7864,1.6304 8.7956,2.8032 10.8711,5.8239c1.8114,2.6378 1.1485,6.796 -1.8072,7.6786c-3.5941,1.0713 -8.538,-1.4579 -12.624,-2.9398c-4.2983,-1.7909 -10.1003,-3.2754 -12.1456,-6.7551c-1.7393,-2.95721 -0.0019,-6.9697 3.2014,-7.7013z"/><path d="M336.46706,250.45807c3.7716,-0.959 8.5796,2.2238 12.5043,3.8937c3.7865,1.6304 8.7957,2.8032 10.8712,5.8239c1.8114,2.6377 1.1485,6.796 -1.8072,7.6786c-3.5941,1.0713 -8.538,-1.4579 -12.624,-2.9398c-4.2983,-1.7909 -10.1003,-3.2755 -12.1456,-6.7551c-1.7393,-2.95721 -0.0019,-6.9697 3.2013,-7.7013z"/><path d="M333.04547,261.05457c3.7715,-0.9589 8.5795,2.2238 12.5043,3.8937c3.7864,1.6304 8.7957,2.8033 10.8712,5.8239c1.8113,2.6378 1.1485,6.7961 -1.80729,7.6786c-3.594,1.0714 -8.5379,-1.4579 -12.6239,-2.9398c-4.2984,-1.7909 -10.1004,-3.2754 -12.1456,-6.755c-1.7394,-2.9573 -0.002,-6.9697 3.2013,-7.7014z"/></g><g stroke-linecap="round"><path d="M318.13377,233.11948c12.8787,-1.1588 13.7848,-2.97761 14.9483,-3.3609c4.6472,-1.5356 9.6993,-3.0833 14.5212,-2.2502c4.5571,0.7933 11.6083,5.0942 12.0836,6.464c0.2234,1.4659 -6.9661,0.2734 -10.4461,0.1743c-2.2709,-0.0606 -4.5515,-0.1247 -6.82149,-0.254c-2.3594,-0.1344 -4.7247,-0.3005 -7.0784,-0.53491c-1.2695,-0.1271 -3.19899,0.4024 -3.7953,-0.5479z" fill="none" stroke="#353937"/><path d="M307.49496,228.01177c3.0025,1.1793 5.9036,2.7092 9.0439,3.4749c2.2636,0.5529 4.6256,0.7468 6.9561,0.852c4.8325,0.218 9.7651,-0.7526 14.5221,0.1172c5.6998,1.0504 12.45381,2.0684 17.1597,6.04721c1.9622,1.7846 -0.1287,5.4351 -0.4852,8.3717c-0.4767,3.79 -1.5128,7.5293 -2.6568,11.1794c-1.5203,4.8566 -1.6825,10.9852 -5.5478,14.4384c-2.7988,2.4314 -7.4541,0.8139 -11.2634,0.4063c-2.2504,-0.2382 -4.3232,-1.4208 -6.34669,-2.4385c-2.0621,-1.0401 -4.131,-2.1773 -5.8589,-3.708c-1.7096,-1.5126 -2.6967,-3.7201 -4.334,-5.3072c-1.698,-1.6467 -3.5174,-3.2523 -5.6148,-4.3424c-6.0355,-3.1346 -12.4221,-5.5922 -18.674,-8.2677c-2.083,-0.8914 -5.2922,-0.5768 -6.3465,-2.4387c1.49909,-12.9061 3.103,-18.5679 8.2176,-22.335c3.2466,-2.0701 7.4785,2.6588 11.2287,3.95029z" fill="#ffffff" stroke="#ffffff"/></g><path d="M334.12606,234.28807c0.2248,-0.1906 0.4269,-0.362 0.5769,-0.4893c0.1466,-0.1244 0.2379,-0.2016 0.2379,-0.2016c0,0 -0.0913,0.0772 -0.2379,0.2016c-0.15,0.1274 -0.3521,0.2987 -0.5769,0.4893c-0.2248,0.1906 -0.4269,0.362 -0.5769,0.4893c-0.1466,0.1245 -0.2379,0.2017 -0.2379,0.2017c0,0 0.0913,-0.0772 0.2379,-0.2017c0.15,-0.1273 0.3521,-0.2987 0.5769,-0.4893z" fill="#eac18d" stroke="none" stroke-linecap="butt"/><path d="M323.50446,256.32117c-1.3568,-5.8209 -0.7922,-12.9749 2.7014,-17.8356c1.979,-2.6167 6.7509,-0.5291 10.0343,0.081c3.982,0.7447 8.606,1.4294 11.8577,4.1787c1.3559,1.2331 -0.0889,3.7555 -0.3351,5.7849c-0.3296,2.619 -1.0455,5.2024 -1.836,7.7248c-1.05061,3.356 -0.9226,7.9422 -3.8335,9.9769c-2.4885,1.68871 -6.6542,-0.2868 -9.7573,-2.1135c-3.4802,-1.644 -7.863,-3.761 -8.8316,-7.7971z" fill="#000000" stroke="#000000" stroke-linecap="round"/></g><path d="M228.43357,211.96317c-5.7999,-5.6228 -12.0116,-16.0261 -9.1813,-24.3434c2.8712,-6.3029 14.1841,-8.0906 20.9165,-5.745c13.1079,4.5771 20.5378,19.0834 32.8084,25.7619c12.2065,7.5042 28.6898,7.2358 39.8921,16.3613c5.3929,4.41109 5.0008,13.9458 3.21649,20.6867c-1.4037,5.2827 -6.4259,12.5397 -12.3477,12.8907c-7.9354,0.4696 -15.64081,-4.8657 -22.4501,-9.2078c-17.8696,-11.384 -37.501,-21.5417 -52.8544,-36.4044z" data-paper-data="{&quot;origPos&quot;:null,&quot;origRot&quot;:0}" fill="#ffffff" stroke="none" stroke-linecap="round"/><path d="M318.66746,152.46447c6.3246,1.675 14.1037,13.2886 9.1872,17.3762c-11.0972,9.2141 -28.6008,4.9741 -42.1623,10.4685c-16.4913,5.977 -29.866,22.21309 -47.4738,23.7446c-8.5479,0.7415 -24.4643,-10.5932 -19.4948,-17.27779c13.3628,-17.2347 36.7525,-24.5682 56.7834,-31.3774c13.6398,-4.6348 29.3848,-6.5806 43.1604,-2.9341z" data-paper-data="{&quot;origPos&quot;:null}" fill="#ffffff" stroke="none" stroke-linecap="round"/></g><path d="M258.34566,306.96587c8.483,7.5002 10.6425,31.4579 -0.81981,34.8145c-33.1031,9.6706 -71.4951,7.1688 -103.4227,-5.8091c-12.5778,-5.1186 -18.7381,-33.0314 -8.1601,-41.047c15.072,-11.385 39.6489,-1.5417 59.2972,0.3832c17.4735,1.75659 39.3961,-0.56651 53.1055,11.65839z" fill="#ffffff" stroke="#000000" stroke-width="2.5" stroke-linecap="round"/><path d="M258.95376,348.79957c-8.592,2.2131 -21.9568,2.2175 -26.2267,-5.8646c-6.8147,-12.3344 -6.1608,-29.5466 -0.1549,-42.7111c2.89101,-6.1659 13.5631,-1.4199 20.3572,-1.8962c5.71371,0.1183 13.72189,-3.7589 17.1185,0.8281c6.778,9.1563 9.9223,22.4558 7.4022,33.1463c-1.7626,8.4628 -10.5479,14.4463 -18.4962,16.4975z" fill="#666666" stroke="#000000" stroke-width="2.5" stroke-linecap="round"/><g stroke="none" stroke-width="2.5"><path d="M130.85686,285.40077c0.82891,-2.5195 4.5862,-1.0004 6.9377,-0.9128c9.7202,1.1429 19.3162,1.7973 28.8464,3.72169c6.4631,1.3072 26.9412,4.261 35.9667,10.884c5.2436,3.848 -16.6981,1.037 -20.08301,7.3029c-6.222,11.4728 -0.7595,26.6446 -4.9294,38.8879c-1.0406,3.0599 -16.22331,-3.363 -18.2572,-0.5478c-4.4876,6.2258 -0.7412,16.4973 -6.0249,21.9087c-3.4834,3.5674 -10.3883,1.9485 -15.5186,1.3278c-2.9175,-0.3542 -6.7718,-1.70949 -6.7718,-1.70949c0,0 -3.4631,-70.8067 -0.16589,-80.8628z" data-paper-data="{&quot;origPos&quot;:null}" fill="url(#color-44)" stroke-linecap="round"/><path d="M130.67916,285.81838c2.3419,-3.6746 10.8464,-0.313 10.8464,-0.313c0,0 -2.9418,14.6032 -3.5874,30.5488c-0.7103,17.5416 0.1132,52.2706 0.1132,52.2706c0,0 -7.1509,-0.4009 -7.6264,-3.4474c-0.4755,-3.0465 -1.8389,-31.1533 -1.0593,-49.2151c0.4236,-9.8513 -0.3963,-27.1609 1.3136,-29.8438z" data-paper-data="{&quot;origPos&quot;:null}" fill="url(#color-45)" stroke-linecap="round"/><g data-paper-data="{&quot;origPos&quot;:null}" stroke-linecap="butt"><g data-paper-data="{&quot;origPos&quot;:null}"><path d="M138.03126,296.06326c0,0 11.5774,4.925 19.2696,6.4381c9.3535,1.8398 23.9671,6.2965 23.9671,6.2965c0,0 0.0531,0.6009 -0.2057,1.2296c-0.3661,0.889 -1.3956,2.0494 -1.3956,2.0494l-42.093,-10.9045z" data-paper-data="{&quot;origPos&quot;:null}" fill="url(#color-46)"/><path d="M159.80346,304.80517c-0.1167,0.32419 -0.406,0.2817 -0.5,0.2582c-0.2409,0.077 -0.4725,0.1481 -0.7256,0.1805c-2.4322,0.3105 -3.1683,0.4041 -4.7497,-1.4174c-0.9875,-1.1678 -0.8363,0.6858 -2.461,0.33549c-0.3345,-0.0721 -0.9877,-1.2722 -1.2852,-1.53c-1.7373,-1.5495 -2.3825,0.8585 -4.3678,-0.8616c-1.2115,-1.0807 -2.0601,-2.9349 -3.6296,-1.1233c-1.64861,0.484 -2.2657,-2.0603 -3.3671,-3.01459c0,0 -0.313,-0.2712 -0.0419,-0.5842c0.2712,-0.313 0.5842,-0.0418 0.5842,-0.0418c0.7303,0.63271 2.1877,2.7158 2.2372,3.0544c1.8658,-2.10429 3.2976,-0.12229 4.75961,1.0835c1.3698,1.1868 2.54,-0.6458 4.3677,0.86169c0.3652,0.31639 1.1697,1.0078 1.4895,1.4108c0.2926,-0.49299 1.2709,-1.3143 2.3398,-0.1334c0.9129,1.0515 2.638,1.3151 4.0193,1.1388c0.2307,-0.0295 0.40939,-0.0936 0.6308,-0.1646l0.4502,0.01771c0,0 0.3897,0.14011 0.2495,0.5298z" data-paper-data="{&quot;origPos&quot;:null,&quot;origRot&quot;:0}" fill="#000000"/><path d="M157.73767,305.06287c0.0935,-0.3316 0.3851,-0.3095 0.4805,-0.29281c0.2349,-0.09371 0.4609,-0.1809 0.7112,-0.231c2.4042,-0.4808 3.1319,-0.6261 4.8376,1.0796c1.0672,1.0955 0.7859,-0.74289 2.4313,-0.5078c0.3387,0.0484 1.0748,1.1995 1.3897,1.4357c1.8419,1.42341 2.3161,-1.0239 4.4176,0.5522c1.28459,0.9927 2.2615,2.7827 3.6997,0.8651c1.6104,-0.5988 2.4049,1.8958 3.5708,2.7702c0,0 0.3313,0.2484 0.0829,0.5798c-0.2485,0.3313 -0.5798,0.0828 -0.5798,0.0828c-0.77309,-0.5797 -2.3733,-2.5552 -2.4465,-2.8894c-1.71321,2.2303 -3.281,0.354 -4.82409,-0.7458c-1.45,-1.08749 -2.4883,0.8229 -4.4175,-0.5523c-0.3866,-0.2899 -1.23771,-0.923 -1.5853,-1.3024c-0.2571,0.5123 -1.1752,1.4004 -2.32449,0.2976c-0.9847,-0.9847 -2.7241,-1.12619 -4.0896,-0.8531c-0.228,0.04559 -0.4017,0.1222 -0.6176,0.2086l-0.4502,0.014c0,0 -0.3987,-0.1124 -0.2863,-0.511z" data-paper-data="{&quot;origPos&quot;:null,&quot;index&quot;:null}" fill="#000000"/></g><path d="M176.05766,302.46867l5.8717,6.4054l-1.2455,2.8469l-7.2951,-3.91439z" data-paper-data="{&quot;origPos&quot;:null}" fill="#333333"/></g><g data-paper-data="{&quot;origPos&quot;:null}" stroke-linecap="butt"><path d="M160.71967,342.89187c-0.0799,0.0021 -0.1512,-0.005 -0.21471,-0.0196c-0.0999,0.07111 -0.2423,0.1283 -0.4447,0.1538c-0.7997,0.1011 -0.9355,-0.4935 -0.9355,-0.4935c-0.5459,-2.3882 1.165,-5.1147 0.391,-7.4223c-0.0287,-0.1257 -0.0574,-0.2514 -0.0862,-0.3772l0.043,-0.6269c-0.0171,-0.1266 0.0115,-0.2792 0.17359,-0.4138c0.09129,-0.0936 0.2313,-0.1765 0.4463,-0.2066c0.2094,-0.0469 0.3851,-0.0214 0.5241,0.0304c0.231,0.0648 0.3511,0.1936 0.4136,0.3134c0.9752,1.28519 2.0705,2.4529 3.1348,3.6785c0.5086,-0.4505 1.038,-0.8684 1.589,-1.2292l0.0603,-0.5835c0.03429,-0.3321 0.4242,-0.5806 0.87089,-0.5552c0.2851,0.0163 0.5245,0.1404 0.65139,0.3144l0.4342,0.5753l-0.0744,0.0311c0.3056,0.4459 1.0456,1.0767 1.8484,1.76191c0.3491,-0.4781 0.7275,-0.9502 0.9819,-1.4463l-0.0024,-0.0007l0.3199,-0.7139c0.1094,-0.2631 0.45219,-0.4446 0.837,-0.4226c0.2852,0.0163 0.5246,0.1403 0.6515,0.31439l0.4342,0.5753l-0.2737,0.1142c0.5092,0.3225 0.9665,0.7527 1.3748,1.24439c0.6244,-0.6547 1.2536,-1.2173 1.7982,-1.5645c2.5881,0.1505 2.4179,4.8815 0.7786,6.9537l0.0446,0.1952l0.41811,0.1036l-0.32,0.7139c-0.1093,0.2631 -0.4521,0.4446 -0.837,0.4226c-0.3849,-0.022 -0.6863,-0.2403 -0.7404,-0.5127c-0.0378,-0.1656 -0.1086,-0.4753 -0.1696,-0.7419c-0.0344,-0.1508 -0.0657,-0.2878 -0.0862,-0.3772c0.0218,-0.6549 -0.5631,-1.5756 -1.2259,-2.5277c-0.5,0.6849 -0.90749,1.3403 -1.1292,1.83491l-0.1572,0.351c-0.1094,0.2631 -0.45219,0.4446 -0.8371,0.42269c-0.4466,-0.02551 -0.7809,-0.3154 -0.7466,-0.6476l0.0764,-0.74l0.0383,0.0021c-0.3074,-0.2648 -0.6238,-0.565 -0.9423,-0.8862c-1.6421,3.0296 -3.0728,2.7631 -5.57021,-0.5459c-0.0333,-0.0441 -0.0667,-0.0881 -0.1003,-0.132c-1.0359,0.9755 -2.08331,1.8996 -2.4874,2.4318l-0.2871,0.3559c0,0 0.1446,0.2704 -0.666,0.2924zM163.10717,338.51467c-0.629,-0.7391 -1.2794,-1.4569 -1.9129,-2.1818c-0.0819,1.6411 -0.6494,3.3098 -0.6005,4.9413c0.7694,-0.8658 1.6051,-1.8404 2.5134,-2.7595zM167.63017,341.18117c0.2845,-0.6423 0.7638,-1.4028 1.0563,-1.9131c-0.7437,-0.8305 -1.4532,-1.6806 -2.0375,-2.3569c-0.1843,0.4998 -0.7411,1.1634 -1.4241,1.8629c0.1521,0.1904 0.30239,0.3834 0.4504,0.5795c0.376,0.4982 1.3045,1.2153 1.9549,1.8276zM175.41187,340.01507c0.0726,-1.0222 0.3028,-2.0189 0.5897,-2.62759c-0.4199,0.3635 -0.8628,0.8134 -1.2918,1.2977c0.2619,0.4346 0.4954,0.8852 0.7021,1.3299zM171.82767,339.98237c0.2487,-0.3561 0.5258,-0.7258 0.8196,-1.09319c-0.4177,-0.6211 -0.7664,-1.2101 -0.8905,-1.6983c-0.3595,0.5384 -0.7708,1.0627 -1.0881,1.6109c0.4452,0.4036 0.8545,0.8052 1.159,1.1806z" data-paper-data="{&quot;origPos&quot;:null,&quot;origRot&quot;:0}" fill="url(#color-47)"/><path d="M157.07506,344.23797c-0.1105,-0.24921 -0.1,-0.4517 -0.0375,-0.6108l-0.0321,0.0326c0,-3.3034 -0.1557,-6.4652 0.6482,-9.6808c1.2687,-5.0749 6.9347,-0.6145 10.1463,-0.6145c3.2755,0.2375 6.3028,0.9984 9.7337,0.9984c0,0 0.81109,0 0.8111,0.8111c0,0.81121 -0.8111,0.8112 -0.8111,0.8112c-2.3742,0 -7.9341,-1.5259 -9.7337,-0.9984c-3.3277,0 -7.8019,-3.6967 -8.5725,-0.6144c-0.7704,3.08161 -0.5997,6.1141 -0.5997,9.2874l-0.4826,0.99119c0,0 -0.74161,0.3286 -1.0701,-0.413z" data-paper-data="{&quot;origPos&quot;:null}" fill="#1a1a1a"/></g></g><path d="M258.56597,346.75957c-6.9811,1.7986 -17.8396,1.802 -21.3091,-4.7646c-5.5366,-10.0214 -5.0053,-24.0057 -0.1254,-34.7019c2.3488,-5.0096 11.0172,-1.2109 16.5396,-1.5407c4.64001,0.0394 11.1721,-3.0695 13.9083,0.6732c5.4438,7.4445 8.0498,18.1759 6.0141,26.9308c-1.4383,6.791 -8.5697,11.737 -15.0275,13.4032z" fill="#ffffff" stroke="none" stroke-width="2.5" stroke-linecap="round"/><path d="M116.15996,200.82536c-5.2135,-16.8814 31.1516,-36.0393 45.9314,-26.4905c32.9396,21.2913 57.4864,57.9392 69.1298,95.3536c3.6824,12.2105 -22.6836,22.5164 -33.37289,16.2479c-33.5998,-20.2392 -70.1134,-47.6673 -81.6883,-85.11111z" data-paper-data="{&quot;origRot&quot;:0}" fill="#ffffff" stroke="#000000" stroke-width="2.5" stroke-linecap="round"/><path d="M208.04656,265.37197c8.2266,9.5821 14.61861,35.9071 2.5013,37.0568c-37.5129,3.5145 -78.2555,-6.3213 -110.0528,-26.3394c-11.2609,-7.0774 -4.2434,-34.2654 8.1658,-39.1012c19.8258,-7.3091 38.2774,6.7664 56.8818,12.1522c14.8415,4.28449 32.9471,4.7516 42.5039,16.2318z" fill="#ffffff" stroke="#000000" stroke-width="2.5" stroke-linecap="round"/><path d="M203.98376,307.01267c-8.8596,0.4817 -21.9645,-2.1401 -24.5632,-10.9039c-4.2579,-13.43289 -0.2345,-30.181 8.2413,-41.9088c4.0461,-5.4775 13.5775,1.273 20.33281,2.141c5.57909,1.239 14.193,-0.989 16.6221,4.176c4.8465,10.3094 5.3162,23.96779 0.7444,33.9547c-3.3912,7.9512 -13.181,12.0917 -21.3774,12.541z" fill="#666666" stroke="#000000" stroke-width="2.5" stroke-linecap="round"/><path d="M203.59336,305.76007c-7.1984,0.3916 -17.8459,-1.7386 -19.9573,-8.8589c-3.459,-10.9137 -0.1901,-24.5215 6.6959,-34.05c3.2873,-4.4501 11.0316,1.0344 16.5203,1.7394c4.5325,1.0068 11.5311,-0.8034 13.505,3.393c3.9374,8.3763 4.3192,19.47311 0.6045,27.5874c-2.7552,6.4601 -10.7093,9.8243 -17.3684,10.1891z" fill="#ffffff" stroke="none" stroke-width="2.5" stroke-linecap="round"/><path d="M269.34722,165.34332l57.52853,-2.95018c0,0 2.17965,1.99068 3.02792,4.89903c0.89721,3.07615 0.43631,7.13516 -0.70644,9.29711c-2.32085,4.39078 -13.01589,14.56813 -13.01589,14.56813l-35.40217,4.05649z" fill="#ffffff" stroke="none" stroke-width="0" stroke-linecap="butt"/><g stroke="none" stroke-width="2.5"><path d="M84.33647,220.40857c1.4611,-2.2925 12.7005,-0.0328 17.1715,1.3597c9.7532,3.0348 20.1165,6.2464 29.2286,10.7334c9.0371,4.4512 21.4117,8.31 25.3728,15.7761c1.6262,3.0624 -14.7544,-3.8698 -17.60699,1.187c-6.3901,11.3394 -0.4945,26.14109 -4.9457,38.7746c-1.1119,3.1575 -16.8592,-4.79561 -20.5742,-2.5717c-4.2258,2.556 -2.6866,10.3979 -6.7263,13.2544c-4.2019,2.9716 -9.9983,2.1604 -15.0353,2.1761c-2.5322,-0.0235 -7.1218,-2.7801 -7.1218,-2.7801c0,0 -1.7172,-33.1736 -0.9892,-50.04031c0.3955,-9.1994 -0.37011,-25.3638 1.2266,-27.8692z" data-paper-data="{&quot;origPos&quot;:null}" fill="url(#color-48)" stroke-linecap="round"/><path d="M84.33647,221.09867c2.187,-3.4314 10.1288,-0.2922 10.1288,-0.2922c0,0 -2.7472,13.6369 -3.3501,28.5275c-0.6633,16.3809 0.1057,51.6019 0.1057,51.6019c0,0 -6.6778,-1.9243 -7.1218,-4.7692c-0.444,-2.84499 -1.7172,-30.332 -0.9892,-47.1988c0.3956,-9.1994 -0.3701,-25.36369 1.2267,-27.8691z" data-paper-data="{&quot;origPos&quot;:null}" fill="url(#color-49)" stroke-linecap="round"/><g data-paper-data="{&quot;origPos&quot;:null}" stroke-linecap="butt"><g data-paper-data="{&quot;origPos&quot;:null}"><path d="M91.47656,236.62697c0,0 12.32609,5.2436 20.5158,6.8545c9.9583,1.9588 25.517,6.7037 25.517,6.7037c0,0 0.0566,0.6397 -0.219,1.3091c-0.3898,0.9465 -1.4859,2.18191 -1.4859,2.18191l-44.815,-11.6097z" data-paper-data="{&quot;origPos&quot;:null}" fill="url(#color-50)"/><path d="M114.65676,245.93417c-0.1241,0.3453 -0.4322,0.2999 -0.5322,0.275c-0.2566,0.082 -0.5031,0.15771 -0.77271,0.1921c-2.5894,0.3305 -3.3731,0.4302 -5.0568,-1.509c-1.05131,-1.2433 -0.8903,0.7301 -2.6202,0.3572c-0.3561,-0.07681 -1.0516,-1.3545 -1.3683,-1.6289c-1.8496,-1.6498 -2.5365,0.9139 -4.6502,-0.9174c-1.2899,-1.1505 -2.1934,-3.1247 -3.8644,-1.1959c-1.7552,0.51521 -2.4121,-2.1936 -3.58481,-3.2096c0,0 -0.3332,-0.2887 -0.04451,-0.622c0.2887,-0.3332 0.622,-0.04451 0.622,-0.04451c0.7775,0.6736 2.329,2.8915 2.3818,3.2519c1.9864,-2.2403 3.51091,-0.1301 5.0673,1.1536c1.4585,1.26349 2.7043,-0.6876 4.6503,0.9174c0.3888,0.3369 1.2453,1.07301 1.58591,1.502c0.31149,-0.5249 1.3531,-1.3993 2.491,-0.142c0.972,1.1195 2.8086,1.4001 4.2793,1.2124c0.2456,-0.0314 0.4358,-0.0996 0.6716,-0.1752l0.4793,0.0188c0,0 0.4149,0.1492 0.2656,0.5641z" data-paper-data="{&quot;origPos&quot;:null,&quot;origRot&quot;:0}" fill="#000000"/><path d="M112.45736,246.20857c0.0996,-0.3531 0.41,-0.3295 0.5116,-0.3117c0.2501,-0.0998 0.4907,-0.1927 0.7572,-0.246c2.5597,-0.5119 3.3345,-0.6665 5.1504,1.1495c1.1362,1.1662 0.8368,-0.791 2.5886,-0.5407c0.3606,0.0515 1.1443,1.2771 1.4795,1.5285c1.9611,1.5155 2.4659,-1.0901 4.7033,0.5879c1.3676,1.0569 2.4078,2.9627 3.9389,0.9211c1.7146,-0.63751 2.5605,2.0184 3.8018,2.9493c0,0 0.3527,0.2645 0.0882,0.6173c-0.2645,0.3528 -0.6173,0.0882 -0.6173,0.0882c-0.823,-0.6173 -2.5268,-2.7204 -2.6047,-3.0762c-1.8239,2.3745 -3.4931,0.37689 -5.136,-0.7941c-1.5437,-1.1578 -2.6492,0.8761 -4.7032,-0.58799c-0.4116,-0.3087 -1.3178,-0.9827 -1.6877,-1.3867c-0.2738,0.5455 -1.2513,1.491 -2.4749,0.3169c-1.0484,-1.0483 -2.9002,-1.199 -4.354,-0.9082c-0.2428,0.0485 -0.4277,0.12999 -0.6576,0.222l-0.4793,0.0149c0,0 -0.42441,-0.1196 -0.3048,-0.544z" data-paper-data="{&quot;origPos&quot;:null,&quot;index&quot;:null}" fill="#000000"/></g><path d="M131.96217,243.44667l6.2514,6.8197l-1.32609,3.031l-7.7669,-4.1676z" data-paper-data="{&quot;origPos&quot;:null}" fill="#333333"/></g><g data-paper-data="{&quot;origPos&quot;:null}" stroke-linecap="butt"><path d="M113.65256,285.42368c-0.084,0.0023 -0.1589,-0.0052 -0.2256,-0.0206c-0.1049,0.0748 -0.2546,0.1348 -0.4673,0.1617c-0.8404,0.1062 -0.9832,-0.5186 -0.9832,-0.5186c-0.5737,-2.5099 1.2244,-5.3753 0.41101,-7.8004c-0.0303,-0.13209 -0.0604,-0.2643 -0.0906,-0.3964l0.0451,-0.6589c-0.0179,-0.133 0.012,-0.2934 0.18241,-0.4348c0.0959,-0.0984 0.2431,-0.1854 0.469,-0.2171c0.22,-0.0494 0.40471,-0.0225 0.5508,0.0319c0.2427,0.0681 0.369,0.2035 0.4347,0.3294c1.0248,1.3507 2.17599,2.5778 3.2945,3.8659c0.5344,-0.4735 1.09071,-0.9126 1.6699,-1.2918l0.0633,-0.6133c0.0361,-0.349 0.4458,-0.6102 0.9152,-0.5834c0.2997,0.0171 0.5513,0.1475 0.6847,0.3304l0.4563,0.6046l-0.0782,0.0326c0.3212,0.4687 1.0989,1.1316 1.94261,1.8517c0.3669,-0.5025 0.7646,-0.9986 1.0319,-1.52l-0.0025,-0.0006l0.3362,-0.7503c0.1149,-0.2766 0.47511,-0.4673 0.8797,-0.4442c0.2996,0.0171 0.5512,0.1475 0.6846,0.3303l0.4563,0.6047l-0.2876,0.12c0.5351,0.3389 1.0157,0.7911 1.4448,1.3078c0.65629,-0.688 1.3175,-1.2792 1.8898,-1.64409c2.72,0.15819 2.5411,5.13 0.8183,7.3078l0.0468,0.2051l0.4394,0.1089l-0.3362,0.7503c-0.1149,0.2765 -0.47511,0.4673 -0.8797,0.4442c-0.4045,-0.0231 -0.7212,-0.2525 -0.7781,-0.5388c-0.0397,-0.174 -0.1141,-0.4995 -0.17821,-0.7797c-0.0362,-0.1585 -0.0691,-0.3025 -0.0906,-0.3964c0.0229,-0.6883 -0.5917,-1.6558 -1.2883,-2.6564c-0.5255,0.7198 -0.9537,1.4085 -1.1867,1.9283l-0.1652,0.3689c-0.115,0.2765 -0.4752,0.4673 -0.8797,0.4442c-0.46941,-0.0268 -0.8208,-0.3315 -0.7847,-0.6805l0.0803,-0.7778l0.0402,0.0023c-0.3231,-0.2783 -0.6555,-0.5939 -0.9903,-0.9314c-1.7257,3.1839 -3.2293,2.9038 -5.8539,-0.5737c-0.035,-0.0464 -0.0701,-0.0926 -0.10539,-0.1387c-1.0888,1.0252 -2.1894,1.9963 -2.6142,2.5556l-0.3017,0.374c0,0 0.152,0.2842 -0.6999,0.3073zM116.16167,280.82337c-0.661,-0.7768 -1.3445,-1.53111 -2.0103,-2.2929c-0.086,1.7247 -0.6825,3.4784 -0.6311,5.193c0.8086,-0.9099 1.6869,-1.9342 2.6414,-2.9001zM120.91506,283.62577c0.2989,-0.675 0.8027,-1.4743 1.1101,-2.0105c-0.7816,-0.8729 -1.5273,-1.7663 -2.1413,-2.477c-0.1938,0.5252 -0.7788,1.22259 -1.4966,1.9578c0.1598,0.2001 0.3178,0.4029 0.4733,0.609c0.3951,0.5235 1.3709,1.2772 2.0545,1.9207zM129.09306,282.40017c0.0763,-1.0742 0.3182,-2.1217 0.6197,-2.7614c-0.4413,0.382 -0.9068,0.8548 -1.3576,1.3638c0.2752,0.4567 0.5207,0.9302 0.7379,1.3976zM125.32637,282.36587c0.2614,-0.3742 0.5526,-0.7628 0.8614,-1.1489c-0.439,-0.6527 -0.8055,-1.2717 -0.93591,-1.7848c-0.3778,0.56581 -0.8101,1.1169 -1.1435,1.693c0.4678,0.4242 0.898,0.8462 1.218,1.2407z" data-paper-data="{&quot;origPos&quot;:null,&quot;origRot&quot;:0}" fill="#292929"/><path d="M109.82226,286.83817c-0.11599,-0.2618 -0.1051,-0.4747 -0.0394,-0.6419l-0.0337,0.03429c0,-3.4717 -0.1637,-6.7944 0.6812,-10.17389c1.3333,-5.3334 7.2879,-0.6457 10.6631,-0.6457c3.4424,0.2495 6.6239,1.0491 10.22949,1.0491c0,0 0.8524,0 0.8524,0.8525c0,0.8524 -0.8524,0.8524 -0.8524,0.8524c-2.4952,0 -8.3382,-1.6036 -10.2295,-1.04921c-3.49719,0 -8.1993,-3.8849 -9.0091,-0.64569c-0.8096,3.2386 -0.63029,6.4256 -0.6303,9.76051l-0.5071,1.0417c0,0 -0.7794,0.34529 -1.1247,-0.4341z" data-paper-data="{&quot;origPos&quot;:null}" fill="#1a1a1a"/></g></g></g></g></svg>