<svg xmlns="http://www.w3.org/2000/svg" xmlns:xlink="http://www.w3.org/1999/xlink" version="1.1" width="198.28125" height="416.97948" viewBox="0,0,198.28125,416.97948"><g><g data-paper-data="{&quot;isPaintingLayer&quot;:true}" fill-rule="nonzero" stroke-linejoin="miter" stroke-miterlimit="10" stroke-dasharray="" stroke-dashoffset="0" style="mix-blend-mode: normal"><g><g data-paper-data="{&quot;index&quot;:null}"><path d="M 127.0131 226.3301 C 127.0131 226.3301 130.7202 224.2125 137.001 212.5481 C 142.5558 202.2319 153.601 171.5975 153.601 171.5975 L 181.2129 179.8718 C 181.2129 179.8718 183.8213 195.8188 163.041 228.6827 C 140.4581 264.3973 122.89 267.8312 122.89 267.8312 " fill="#b1b1b1" stroke="#747474" stroke-linecap="round" stroke-width="3.5"/><path d="M 184.3356 178.7224 C 181.323 179.8082 193.7363 182.6514 188.6103 190.2176 C 187.1491 192.3745 179.3842 191.5448 166.5088 187.8872 C 153.183 184.1018 138.0307 177.6073 145.6244 169.5375 C 151.0203 163.8032 156.0256 170.5945 154.5354 167.3251 C 149.8798 157.1105 155.0728 145.5979 166.1344 141.611 C 177.196 137.6242 189.9373 142.6728 194.5929 152.8874 C 199.2485 163.102 195.3972 174.7355 184.3356 178.7224 Z " data-paper-data="{&quot;index&quot;:null}" fill="#ffffff" stroke="#d3d3d3" stroke-linecap="butt" stroke-width="3.5"/></g><g stroke-linecap="round"><path d="M 90.81 132.5388 C 90.81 132.5388 87.724 112.9759 84.9734 105.4952 C 82.6378 99.1431 75.3471 90.4841 75.3471 90.4841 L 94.8968 80.0129 C 94.8968 80.0129 102.7066 91.0965 105.4096 97.7475 C 108.4146 105.1418 112.1168 122.3855 112.1168 122.3855 " fill="#6b6b6b" stroke-width="5.5" stroke="#545454"/><g><path d="M 82.8809 102.2666 L 96.7147 93.5812 " stroke-width="4" fill="none" stroke="#545454"/><path d="M 87.9926 121.8192 L 104.8705 109.2202 " stroke-width="4" fill="none" stroke="#545454"/></g></g><path d="M 77.4758 112.7985 C 50.4598 119.5604 63.093 73.117 63.093 73.117 C 63.093 73.117 35.7569 81.2729 34.2764 64.5203 C 32.9394 49.392 61.9549 43.1764 61.9549 43.1764 C 61.9549 43.1764 52.7811 8.2144 70.5737 3.4972 C 89.1683 -2.9139 99.2934 34.0383 99.2934 34.0383 C 99.2934 34.0383 130.6349 20.7949 136.5771 37.755 C 143.8996 61.2323 111.387 61.6038 111.387 61.6038 C 111.387 61.6038 140.7762 94.4796 118.9732 100.8378 C 104.1342 105.1651 95.2084 94.6362 95.2084 94.6362 C 95.2084 94.6362 93.7207 108.7325 77.4758 112.7985 Z " data-paper-data="{&quot;index&quot;:null,&quot;origRot&quot;:0}" fill="#fbff27" stroke="#ffd200" stroke-width="5.5" stroke-linecap="butt"/><path d="M 64.2499 213.048 L 88.7554 212.7257 L 88.7554 194.9978 L 115.1268 193.2831 L 114.8637 212.7257 L 138.221 212.8869 L 139.2739 327.8824 C 139.2739 327.8824 151.5924 347.5248 152.9206 360.5599 C 154.8429 379.4274 152.5186 391.3751 152.5186 391.3751 L 122.2826 391.3751 C 122.2826 391.3751 124.4749 376.1881 120.2721 362.5089 C 115.6825 347.5703 104.5941 333.9286 102.7893 331.3412 C 101.114 328.9395 83.1651 391.2235 83.1651 391.2235 L 48.7718 390.0767 L 64.643 326.8816 Z " fill="#b1b1b1" stroke="#747474" stroke-width="3.5" stroke-linecap="round"/><path d="M 63.7351 386.6735 L 50.0019 382.7693 L 62.1131 337.4519 " data-paper-data="{&quot;index&quot;:null}" fill="#999999" stroke="#747474" stroke-width="3" stroke-linecap="round"/><path d="M 42.8746 397.3554 L 51.4736 376.1344 L 80.8709 387.8547 C 80.8709 387.8547 88.6499 390.6704 90.0481 392.5138 C 95.0049 399.0494 85.8919 414.7864 85.8919 414.7864 Z " data-paper-data="{&quot;index&quot;:null}" fill="#333333" stroke="#2d2d2d" stroke-width="3.5" stroke-linecap="butt"/><path d="M 119.8182 403.7415 L 122.9938 381.0658 L 154.3597 385.2789 C 154.3597 385.2789 162.5901 386.1166 164.3948 387.5644 C 170.7933 392.697 165.7844 410.1788 165.7844 410.1788 Z " data-paper-data="{&quot;index&quot;:null}" fill="#333333" stroke="#2d2d2d" stroke-width="3.5" stroke-linecap="butt"/><path d="M 119.6986 213.1714 L 137.0106 213.1714 L 137.5876 250.6807 " fill="#cccccc" stroke="#747474" stroke-width="3" stroke-linecap="round"/><path d="M 58.5017 204.3718 L 58.5017 121.3214 L 143.5786 121.3214 L 143.5786 204.3718 Z " fill="#b1b1b1" stroke="#747474" stroke-width="3.5" stroke-linecap="butt"/><g data-paper-data="{&quot;index&quot;:null}"><path d="M 67.8831 255.3877 C 67.8831 255.3877 64.2895 257.6926 58.615 269.6636 C 53.5964 280.251 44.1363 311.4114 44.1363 311.4114 L 16.1365 304.5637 C 16.1365 304.5637 12.7139 288.7714 31.7821 254.8853 C 52.5042 218.0599 69.8732 213.7298 69.8732 213.7298 " data-paper-data="{&quot;index&quot;:null}" fill="#b1b1b1" stroke="#747474" stroke-linecap="round" stroke-width="3.5"/><path d="M 4.1575 332.1985 C -1.0157 322.236 2.2342 310.4204 13.0768 305.8717 C 16.0298 304.6328 3.4871 302.4298 8.2184 294.6107 C 9.5671 292.3817 17.3644 292.8123 30.4103 295.8049 C 43.9127 298.9022 59.378 304.6112 52.208 313.0598 C 47.1132 319.0632 41.7663 312.5374 43.4221 315.7261 C 48.5953 325.6886 43.9994 337.4523 33.1568 342.001 C 22.3142 346.5498 9.3308 342.161 4.1576 332.1985 Z " data-paper-data="{&quot;index&quot;:null}" fill="#ffffff" stroke="#d3d3d3" stroke-linecap="butt" stroke-width="3.5"/></g><g stroke-linecap="butt"><path d="M 91.96 259.4159 C 92.1108 249.1066 99.6431 240.8866 108.784 241.056 C 117.925 241.2253 125.213 249.72 125.0623 260.0292 C 124.9115 270.3385 117.3792 278.5585 108.2383 278.3891 C 99.0973 278.2197 91.8093 269.7251 91.9601 259.4158 Z " data-paper-data="{&quot;index&quot;:null,&quot;origRot&quot;:0}" fill="#65abff" stroke="#1b81ff" stroke-width="3"/><path d="M 117.7918 266.6448 C 113.9239 266.6448 113.9239 262.7769 113.9239 262.7769 L 113.9239 261.8099 C 113.9339 256.3218 114.5329 254.1351 109.2932 251.7319 C 109.2932 251.7319 105.8337 250.0021 107.5635 246.5425 C 109.2932 243.083 112.7528 244.8128 112.7528 244.8128 C 120.5911 248.9468 121.646 253.3693 121.6597 261.81 L 121.6597 262.7769 C 121.6597 262.7769 121.6597 266.6448 117.7918 266.6448 Z " fill="#ffffff" stroke="none" stroke-width="0.5"/></g><path d="M 121.1302 41.0472 C 121.1302 44.9513 117.2261 44.9513 117.2261 44.9513 L 116.25 44.9513 C 110.3414 44.912 104.5091 45.7662 98.9401 47.679 C 98.9401 47.679 98.3814 47.8652 97.6256 47.876 C 97.4245 48.9049 96.7739 50.0278 95.036 50.6071 C 91.3323 51.8416 90.0977 48.1379 90.0977 48.1379 L 88.9971 44.7409 C 87.5669 37.5897 86.703 30.5324 81.2806 25.2633 C 81.2806 25.2633 78.5199 22.5027 81.2806 19.7421 C 84.0412 16.9815 86.8018 19.7421 86.8018 19.7421 C 92.6391 25.7042 94.4942 32.6671 96.0929 40.4308 C 96.3216 40.3213 96.4709 40.2715 96.4709 40.2715 C 102.9875 38.1529 109.392 37.1805 116.25 37.1431 L 117.226 37.1431 C 117.226 37.1431 121.1301 37.1431 121.1301 41.0472 Z " fill="#ffffff" stroke="none" stroke-width="0.5" stroke-linecap="butt"/><g stroke-linecap="butt"><path d="M 78.6611 177.6834 L 78.6611 133.0308 L 99.4652 133.0308 L 99.4652 177.6834 Z " fill="#13a8ff" stroke="#00a2ff" stroke-width="2.5"/><path d="M 111.6432 177.6834 L 111.6432 133.0308 L 132.4473 133.0308 L 132.4473 177.6834 Z " fill="#13a8ff" stroke="#00a2ff" stroke-width="2.5"/><path d="M227.86238,132.07777c0,5.79472 -2.84037,10.49227 -6.34416,10.49227c-3.50379,0 -6.34416,-4.69755 -6.34416,-10.49227c0,-5.79472 2.84037,-10.49227 6.34416,-10.49227c3.50379,0 6.34416,4.69755 6.34416,10.49227z" fill="#b7e5ff" stroke="none" stroke-width="0" transform="matrix(1,0,0,1,-127.72691,14.5021)"/><path d="M258.11913,131.75244c0,5.79472 -2.84037,10.49227 -6.34416,10.49227c-3.50379,0 -6.34416,-4.69755 -6.34416,-10.49227c0,-5.79472 2.84037,-10.49227 6.34416,-10.49227c3.50379,0 6.34416,4.69755 6.34416,10.49227z" fill="#b7e5ff" stroke="none" stroke-width="0" transform="matrix(1,0,0,1,-127.72691,14.5021)"/></g><path d="M 104.9989 193.1936 C 104.9989 193.1936 95.7351 195.1222 91.9645 187.4057 " data-paper-data="{&quot;index&quot;:null}" fill="none" stroke="#363636" stroke-width="2.5" stroke-linecap="round"/></g></g></g></svg>