<svg version="1.1" xmlns="http://www.w3.org/2000/svg" xmlns:xlink="http://www.w3.org/1999/xlink" width="347.36641" height="264.5418" viewBox="0,0,347.36641,264.5418"><g transform="translate(-112.24627,-130.97242)"><g data-paper-data="{&quot;isPaintingLayer&quot;:true}" fill-rule="nonzero" stroke-linejoin="miter" stroke-miterlimit="10" stroke-dasharray="" stroke-dashoffset="0" style="mix-blend-mode: normal"><g data-paper-data="{&quot;index&quot;:null}"><path d="M364.68184,267.4741l-30.49887,22.24767l-3.21498,-4.40734l30.49888,-22.24769z" data-paper-data="{&quot;origRot&quot;:0,&quot;index&quot;:null}" fill="#000000" stroke="none" stroke-width="0" stroke-linecap="butt"/><path d="M365.01234,267.35159l-2.98451,-4.54303l3.66391,-2.95462l3.19196,4.6714z" data-paper-data="{&quot;origRot&quot;:0,&quot;index&quot;:null}" fill="#000000" stroke="none" stroke-width="0" stroke-linecap="butt"/><path d="M408.73816,230.51276l-41.19191,32.83442l-2.42225,-2.94733l41.43418,-32.53423z" data-paper-data="{&quot;origRot&quot;:0,&quot;index&quot;:null}" fill="#116700" stroke="none" stroke-width="0" stroke-linecap="butt"/><path d="M447.07487,191.84078l-2.24454,5.24775c0,0 -10.79319,10.75979 -16.82911,16.31001c-6.36266,5.85067 -20.4184,17.94021 -20.4184,17.94021l-3.6951,-1.38884l39.23298,-34.861z" data-paper-data="{&quot;origRot&quot;:0,&quot;index&quot;:null}" fill="#116700" stroke="none" stroke-width="0" stroke-linecap="butt"/><path d="M409.79243,231.94207l-41.19191,32.83442l-2.42224,-2.94732l41.43417,-32.53424z" data-paper-data="{&quot;origRot&quot;:0,&quot;index&quot;:null}" fill="#1fb800" stroke="none" stroke-width="0" stroke-linecap="butt"/><path d="M445.88458,198.51796c0,0 -10.79319,10.75979 -16.82911,16.31001c-6.36268,5.8507 -20.41839,17.94018 -20.41839,17.94018l-3.6951,-1.38886l39.23301,-34.861z" data-paper-data="{&quot;origRot&quot;:0,&quot;index&quot;:null}" fill="#1fb800" stroke="none" stroke-width="0" stroke-linecap="butt"/><path d="M449.94498,189.16503c0,0 -0.32095,3.55361 -1.04397,5.37232c-0.51971,1.30727 -3.68354,4.76585 -3.68354,4.76585l-0.94162,-0.4298l-0.33382,-2.01075c0,0 0.98838,-1.41231 1.50783,-2.28646c0.45225,-0.76098 1.43534,-2.66604 1.43534,-2.66604z" data-paper-data="{&quot;origRot&quot;:0,&quot;index&quot;:null}" fill="#1fb800" stroke="none" stroke-width="0" stroke-linecap="butt"/><path d="M367.29295,270.70863l-7.77725,-10.89324" data-paper-data="{&quot;origRot&quot;:0,&quot;index&quot;:null}" fill="none" stroke="#000000" stroke-width="2.5" stroke-linecap="round"/></g><path d="M209.78425,293.91869l-95.03798,2.58906" data-paper-data="{&quot;origRot&quot;:0,&quot;index&quot;:null}" fill="none" stroke="#000000" stroke-width="5" stroke-linecap="round"/><path d="M259.5642,300.63401c0,0 9.7374,23.26634 11.90496,39.78393c2.5635,19.53497 0.2178,52.59628 0.2178,52.59628" data-paper-data="{&quot;origRot&quot;:0,&quot;index&quot;:null}" fill="none" stroke="#000000" stroke-width="5" stroke-linecap="round"/><path d="M354.663,271.92273c0,0 -19.7703,3.96714 -21.12979,-7.26118c-1.58195,-13.06565 1.06892,-46.45067 1.06892,-46.45067" data-paper-data="{&quot;origRot&quot;:0,&quot;index&quot;:null}" fill="none" stroke="#000000" stroke-width="5" stroke-linecap="round"/><path d="M197.40567,293.10159l102.54925,-121.35033l37.51633,44.02211l-56.02144,123.94406z" data-paper-data="{&quot;origRot&quot;:0,&quot;index&quot;:null}" fill="#0d9900" stroke="#000000" stroke-width="2" stroke-linecap="butt"/><path d="M301.20135,209.97897l-21.73491,39.1861" data-paper-data="{&quot;origRot&quot;:0,&quot;index&quot;:null}" fill="#0a6e00" stroke="#0a6e00" stroke-width="3.5" stroke-linecap="round"/><path d="M307.99442,263.57353l21.73491,-39.1861" data-paper-data="{&quot;origRot&quot;:0,&quot;index&quot;:null}" fill="#0a6e00" stroke="#0a6e00" stroke-width="3.5" stroke-linecap="round"/><path d="M312.63609,265.39451c-1.32395,2.38697 -4.33223,3.24871 -6.71922,1.92476c-2.38697,-1.32395 -3.24872,-4.33224 -1.92476,-6.71922c1.32397,-2.38698 4.33222,-3.24873 6.71921,-1.92479c2.38699,1.32395 3.24872,4.33224 1.92476,6.71922z" data-paper-data="{&quot;origRot&quot;:0,&quot;index&quot;:null}" fill="#0a6e00" stroke="#0a6e00" stroke-width="0.5" stroke-linecap="butt"/><path d="M276.77058,253.57263c-2.38697,-1.32395 -3.24872,-4.33224 -1.92476,-6.71922c1.32397,-2.38698 4.33222,-3.24873 6.71921,-1.92479c2.38699,1.32395 3.24874,4.33225 1.92478,6.71923c-1.32395,2.38699 -4.33224,3.24872 -6.71923,1.92478z" data-paper-data="{&quot;origRot&quot;:0,&quot;index&quot;:null}" fill="#0a6e00" stroke="#0a6e00" stroke-width="0.5" stroke-linecap="butt"/><path d="M398.15749,214.61128c-14.90509,26.8726 -48.77263,36.57415 -75.64522,21.66902c-26.87261,-14.90511 -36.57416,-48.77263 -21.66902,-75.64524c14.90513,-26.87258 48.77266,-36.57414 75.64524,-21.66902c26.87261,14.90511 36.57414,48.77266 21.66904,75.64525z" data-paper-data="{&quot;origRot&quot;:0,&quot;index&quot;:null}" fill="#ffe8bb" stroke="#000000" stroke-width="2" stroke-linecap="butt"/><path d="M334.31379,153.00905c0,0 -30.39597,4.30222 -30.69688,3.99369c-5.5414,-5.68139 2.19657,-7.86598 6.80366,-12.30381c1.53572,-1.47925 9.56992,-6.9762 9.56992,-6.9762c0,0 19.08827,-4.47085 29.9016,-4.37598c14.8232,0.13003 22.7579,0.21633 35.33244,8.06653c18.19263,11.35755 22.72369,43.55823 23.49027,48.13851c0.64923,3.87915 -2.92831,16.76585 -5.11573,20.03453c-1.6695,2.49472 -8.37171,11.13927 -10.8134,9.39313c-2.57083,-1.83849 -4.71093,-32.09219 -4.71093,-32.09219" data-paper-data="{&quot;origRot&quot;:0,&quot;index&quot;:null}" fill="#3b2c00" stroke="#000000" stroke-width="3" stroke-linecap="round"/><path d="M343.91953,231.6783c0,0 -2.53781,-1.80106 -3.91099,-3.55067c-1.13645,-1.44793 -2.51967,-4.64263 -2.51967,-4.64263" data-paper-data="{&quot;origRot&quot;:0,&quot;index&quot;:null}" fill="none" stroke="#000000" stroke-width="5" stroke-linecap="round"/><path d="M284.12396,319.85996c0,0 -3.4075,-5.51561 -4.14343,-11.2061c-0.45914,-3.55037 2.65469,-10.44283 2.65469,-10.44283" data-paper-data="{&quot;origRot&quot;:0,&quot;index&quot;:null}" fill="none" stroke="#0a6e00" stroke-width="5" stroke-linecap="round"/><path d="M270.11109,288.91345c0,0 -4.19841,6.29092 -7.45341,7.78119c-5.21708,2.3886 -11.70026,2.41823 -11.70026,2.41823" data-paper-data="{&quot;index&quot;:null,&quot;origRot&quot;:0}" fill="none" stroke="#0a6e00" stroke-width="5" stroke-linecap="round"/><path d="M376.77487,215.9001l-4.99632,10.2819" data-paper-data="{&quot;index&quot;:null}" fill="none" stroke="#000000" stroke-width="10" stroke-linecap="round"/><path d="M356.7662,204.76503l-5.55146,11.42432" data-paper-data="{&quot;index&quot;:null}" fill="none" stroke="#000000" stroke-width="10" stroke-linecap="round"/><path d="M364.24023,212.6335l-15.5032,-14.59452l2.22058,-4.56973l38.84274,18.875l-2.22058,4.56973z" data-paper-data="{&quot;index&quot;:null}" fill="#ffe8bb" stroke="none" stroke-width="NaN" stroke-linecap="butt"/><path d="M388.0619,186.02221c0,0 -8.6757,17.05999 -15.65763,12.90097c-6.84203,-4.07569 1.1409,-13.11934 -3.9809,-19.21786c-3.37042,-4.01312 -9.14915,12.74605 -13.45828,9.76337c-3.77626,-2.61388 -2.39554,-22.61908 -6.97464,-22.97248c-6.7025,-0.51729 -15.67357,9.80559 -21.0582,5.78108c-6.35226,-4.74773 8.01751,-19.51385 8.01751,-19.51385" data-paper-data="{&quot;origRot&quot;:0,&quot;index&quot;:null}" fill="#3b2c00" stroke="#000000" stroke-width="3" stroke-linecap="round"/><g data-paper-data="{&quot;index&quot;:null}"><path d="M344.15001,328.0429l-37.10499,-6.95411l1.00492,-5.36199l37.10502,6.95409z" data-paper-data="{&quot;origRot&quot;:0,&quot;index&quot;:null}" fill="#000000" stroke="none" stroke-width="0" stroke-linecap="butt"/><path d="M344.46576,328.19956l1.2617,-5.28722l4.6628,0.64215l-1.21296,5.52624z" data-paper-data="{&quot;origRot&quot;:0,&quot;index&quot;:null}" fill="#000000" stroke="none" stroke-width="0" stroke-linecap="butt"/><path d="M401.26126,334.78128l-52.143,-7.48197l0.48538,-3.78396l52.09053,7.86416z" data-paper-data="{&quot;origRot&quot;:0,&quot;index&quot;:null}" fill="#116700" stroke="none" stroke-width="0" stroke-linecap="butt"/><path d="M455.69706,336.18288l-5.35935,1.96321c0,0 -15.23262,-0.48219 -23.41121,-1.07199c-8.62133,-0.62176 -27.05863,-2.56769 -27.05863,-2.56769l-1.52185,-3.64235l52.27562,4.66653z" data-paper-data="{&quot;origRot&quot;:0,&quot;index&quot;:null}" fill="#116700" stroke="none" stroke-width="0" stroke-linecap="butt"/><path d="M400.94334,336.5287l-52.143,-7.48197l0.48538,-3.78396l52.09052,7.86415z" data-paper-data="{&quot;origRot&quot;:0,&quot;index&quot;:null}" fill="#1fb800" stroke="none" stroke-width="0" stroke-linecap="butt"/><path d="M450.01973,339.89353c0,0 -15.23265,-0.48218 -23.41124,-1.07198c-8.62133,-0.62176 -27.05859,-2.5677 -27.05859,-2.5677l-1.52185,-3.64235l52.27563,4.66655z" data-paper-data="{&quot;origRot&quot;:0,&quot;index&quot;:null}" fill="#1fb800" stroke="none" stroke-width="0" stroke-linecap="butt"/><path d="M459.61268,336.43824c0,0 -2.80726,2.20236 -4.62702,2.9227c-1.30804,0.51775 -5.99494,0.58518 -5.99494,0.58518l-0.33258,-0.98019l1.23514,-1.62143c0,0 1.70577,-0.24856 2.69831,-0.46956c0.86407,-0.19243 2.92499,-0.78261 2.92499,-0.78261z" data-paper-data="{&quot;origRot&quot;:0,&quot;index&quot;:null}" fill="#1fb800" stroke="none" stroke-width="0" stroke-linecap="butt"/><path d="M346.18459,319.03153l-2.59959,13.12974" data-paper-data="{&quot;origRot&quot;:0,&quot;index&quot;:null}" fill="none" stroke="#000000" stroke-width="2.5" stroke-linecap="round"/></g><path d="M297.63354,241.01973l17.92573,78.59416" data-paper-data="{&quot;origRot&quot;:0,&quot;index&quot;:null}" fill="none" stroke="#000000" stroke-width="5" stroke-linecap="round"/></g></g></svg>