<svg xmlns="http://www.w3.org/2000/svg" xmlns:xlink="http://www.w3.org/1999/xlink" version="1.1" width="203.72494" height="372.35571" viewBox="0,0,203.72494,372.35571"><g><g data-paper-data="{&quot;isPaintingLayer&quot;:true}" fill-rule="nonzero" stroke-linejoin="miter" stroke-miterlimit="10" stroke-dasharray="" stroke-dashoffset="0" style="mix-blend-mode: normal"><path d="M 134.7227 235.2659 C 134.7227 235.2659 105.744 238.9279 106.097 234.8275 C 98.8615 226.6696 94.4674 191.1728 94.4674 191.1728 " data-paper-data="{&quot;index&quot;:null}" fill="none" stroke="#000000" stroke-linecap="round" stroke-width="4"/><path d="M 52.9405 284.5858 C 52.9405 284.5858 57.4317 291.7772 50.4275 310.3025 C 42.806 330.4603 12.0526 320.1385 12.1219 321.7609 C 12.3323 326.7269 9.6361 332.7463 9.6361 332.7463 " data-paper-data="{&quot;origRot&quot;:0,&quot;index&quot;:null}" fill="none" stroke="#000000" stroke-linecap="round" stroke-width="4"/><path d="M 69.6927 358.9094 C 69.6927 358.9094 61.1876 361.6976 59.4017 357.059 C 58.9451 355.8741 63.2197 338.3904 64.2383 319.932 C 65.4215 298.4913 66.8659 275.7482 66.8659 275.7482 " data-paper-data="{&quot;origRot&quot;:0,&quot;index&quot;:null}" fill="none" stroke="#000000" stroke-linecap="round" stroke-width="4"/><path d="M 82.4567 354.2376 C 85.4026 356.5684 87.1471 359.6279 86.9869 362.8866 C 86.8267 366.1453 84.6572 369.6326 81.6374 370.8955 C 76.1246 372.7548 71.7883 373.411 57.8065 369.3514 C 54.9534 367.409 53.1164 363.9527 53.2763 360.7024 C 53.4361 357.4521 55.4701 354.629 58.6258 352.6935 C 61.7815 350.758 66.0603 349.7115 70.711 350.0128 C 75.3618 350.3141 79.5107 351.9067 82.4566 354.2376 Z " data-paper-data="{&quot;origRot&quot;:0,&quot;index&quot;:null}" fill="#000000" stroke="none" stroke-linecap="round" stroke-width="4"/><path d="M 15.5147 345.2538 C 12.533 347.4575 9.1868 348.3069 6.1622 347.2681 C 3.1376 346.2293 0.4351 343.194 0.0535 339.9436 C -0.2229 334.1311 0.3186 329.7778 7.8777 317.4175 C 10.4688 315.1976 14.2133 314.3671 17.2301 315.4032 C 20.247 316.4393 22.3607 319.164 23.3389 322.7277 C 24.3171 326.2915 24.1583 330.6952 22.6315 335.0914 C 21.1045 339.4875 18.4963 343.05 15.5147 345.2537 Z " data-paper-data="{&quot;origRot&quot;:0,&quot;index&quot;:null}" fill="#000000" stroke="none" stroke-linecap="round" stroke-width="4"/><path d="M 81.8033 176.1392 C 90.6171 177.9611 97.4952 186.506 101.4862 198.8378 C 105.4785 211.1715 106.5839 227.2913 103.8536 244.2629 C 101.1247 261.2355 95.0702 275.8755 87.494 285.8182 C 79.9198 295.7587 70.824 301.0011 62.01 299.1792 C 53.196 297.3574 46.318 288.8132 42.327 276.4814 C 38.3338 264.1475 37.2292 248.028 39.9588 231.0563 C 40.9981 224.5958 41.8252 220.9895 43.7939 214.7464 C 47.0032 204.5691 54.8946 192.1558 55.6026 191.2087 C 55.8387 190.893 56.0802 189.8146 56.3192 189.5011 C 63.8934 179.5605 72.9892 174.3173 81.8032 176.1391 Z " data-paper-data="{&quot;origRot&quot;:0,&quot;index&quot;:null}" fill="#080064" stroke="#000000" stroke-linecap="butt" stroke-width="4"/><g data-paper-data="{&quot;origRot&quot;:0}" stroke-linecap="round"><path d="M 112.3425 177.6011 L 81.9807 233.6478 L 75.1637 170.324 Z " fill="#ffffff" stroke-width="4" stroke="#000000"/><path d="M 78.6299 243.0231 L 87.3306 191.8265 L 83.3652 178.2947 L 95.6464 179.76 L 90.0876 192.1554 L 88.0568 240.7411 L 81.978 255.3456 Z " fill="#ac0000" stroke-width="4" stroke="#000000"/><path d="M 91.0233 189.747 L 105.3545 181.1873 L 101.886 199.2239 Z " fill="#ffffff" stroke-width="4" stroke="#000000"/><path d="M 75.1792 196.7744 L 77.864 180.5627 L 87.9822 190.121 Z " fill="#ffffff" stroke-width="4" stroke="#000000"/></g><path d="M 151.5591 84.0654 C 162.9725 98.7016 168.5193 116.897 165.4842 135.1685 C 162.4499 153.4393 151.4026 168.3578 136.0057 177.7027 C 120.609 187.0444 100.8643 190.8118 80.4352 186.7794 C 60.0061 182.7462 42.7268 171.672 31.3133 157.0366 C 19.8999 142.3996 14.3529 124.205 17.3873 105.9343 C 20.4224 87.6636 31.4697 72.7434 46.8666 63.4002 C 62.2633 54.0569 82.0072 50.2902 102.4372 54.3227 C 122.8654 58.3558 140.1455 69.4309 151.5592 84.0654 Z " data-paper-data="{&quot;origRot&quot;:0,&quot;index&quot;:null}" fill="#ffa200" stroke="#000000" stroke-linecap="butt" stroke-width="4"/><path d="M 68.0705 168.2552 C 68.0705 168.2552 74.0768 168.3058 76.8592 169.2702 C 79.4907 170.1824 80.415 173.4898 80.415 173.4898 " fill="none" stroke="#000000" stroke-linecap="round" stroke-width="4"/><g><path d="M 129.314 90.3868 C 132.531 90.7147 135.7248 97.661 136.7229 102.3009 C 138.7955 111.9118 138.4699 121.7562 137.5358 131.1214 C 137.1186 139.6994 135.884 148.2781 132.6996 155.7242 C 130.8635 160.0124 126.8396 166.2859 123.6225 165.958 C 120.4055 165.6301 117.8093 161.0988 116.2135 154.0439 C 114.6187 146.988 114.0232 137.4085 114.8083 126.9839 C 115.5934 116.5595 117.6117 107.2463 120.2369 100.6205 C 122.8629 93.9961 126.0967 90.0589 129.314 90.3869 Z " data-paper-data="{&quot;origRot&quot;:0,&quot;index&quot;:null}" fill="#000000" stroke="none" stroke-linecap="butt" stroke-width="4"/><path d="M 95.5457 87.5675 C 98.7628 87.8953 101.9566 94.8416 102.9547 99.4815 C 105.0273 109.0924 104.7017 118.9368 103.7676 128.302 C 103.3504 136.88 102.1158 145.4588 98.9314 152.9049 C 97.0953 157.193 93.0714 163.4665 89.8543 163.1386 C 86.6372 162.8107 84.0411 158.2794 82.4453 151.2246 C 80.8505 144.1687 80.2551 134.5891 81.0401 124.1646 C 81.8252 113.7401 83.8435 104.427 86.4687 97.8011 C 89.0947 91.1767 92.3285 87.2395 95.5458 87.5675 Z " data-paper-data="{&quot;origRot&quot;:0,&quot;index&quot;:null}" fill="#000000" stroke="none" stroke-linecap="butt" stroke-width="4"/><path d="M 79.9017 96.8797 L 81.351 80.1654 L 140.071 87.348 L 138.6217 104.0623 C 138.6217 104.0623 123.9301 108.2427 115.8392 107.253 C 105.1108 105.9407 79.9017 96.8796 79.9017 96.8796 Z " fill="#ffa200" stroke="none" stroke-linecap="butt" stroke-width="4"/><path d="M 84.4254 96.8297 L 107.4401 108.6166 " fill="none" stroke="#000000" stroke-linecap="round" stroke-width="4"/><path d="M 138.6049 103.457 L 114.0507 109.4252 " data-paper-data="{&quot;index&quot;:null}" fill="none" stroke="#000000" stroke-linecap="round" stroke-width="4"/><path d="M 76.1141 163.4185 L 77.2603 150.1993 L 135.9803 157.3819 L 134.8341 170.6012 C 134.8341 170.6012 120.2497 173.5447 112.1588 172.5551 C 101.4305 171.2428 76.1141 163.4185 76.1141 163.4185 Z " fill="#ffa200" stroke="none" stroke-linecap="butt" stroke-width="4"/><path d="M 102.1244 151.1468 L 77.6123 148.1485 " fill="none" stroke="#000000" stroke-linecap="round" stroke-width="4"/><path d="M 136.4414 155.3444 L 110.9488 152.2262 " fill="none" stroke="#000000" stroke-linecap="round" stroke-width="4"/></g><path d="M 15.6008 109.7191 C 13.181 106.6071 8.3191 105.59 8.0099 102.5732 C 7.0143 92.8452 10.815 83.5219 12.2157 74.0097 C 12.6469 71.0834 10.9447 66.8462 13.5096 65.2216 C 21.4293 60.2061 30.8772 55.8417 40.8096 55.9013 C 44.2447 55.9217 43.9955 62.3806 43.1151 65.3979 C 42.1431 68.7301 39.2976 71.829 35.8215 73.0055 C 32.8737 74.0031 28.992 72.8469 26.2227 71.1157 C 23.2869 69.2799 21.2796 66.1328 19.994 63.107 C 18.7458 60.1666 18.8566 56.92 18.8884 53.8456 C 18.9204 50.8646 18.8523 47.6801 20.1823 45.0574 C 22.4156 40.6598 26.2088 37.1601 29.3229 33.2918 C 32.7496 29.0358 36.2641 24.8219 39.8249 20.6641 C 43.7131 16.123 47.2817 11.2787 51.6882 7.1737 C 54.0063 5.0131 56.4662 2.1715 59.8573 2 C 66.2515 1.6735 72.6623 4.5205 79.0549 5.7796 C 82.2516 6.4088 86.0432 5.7271 88.6537 7.6694 C 91.4602 9.7566 92.3984 13.4228 93.5209 16.5402 C 95.0484 20.7814 96.4343 25.1961 96.541 29.5697 C 96.6145 32.582 95.6464 35.6188 94.0475 38.1219 C 92.3401 40.7928 90.0864 43.5579 86.9156 44.6305 C 83.9456 45.6363 79.4309 46.1502 77.1551 43.8396 C 74.8794 41.5284 75.6812 37.3369 77.2494 34.8144 C 82.3869 26.5508 89.2236 19.2278 96.5678 12.6182 C 99.3468 10.1164 103.26 8.6627 107.1372 7.9168 C 110.2625 7.3156 113.7074 7.9015 116.8977 8.7077 C 120.545 9.6295 124.1552 11.0759 127.3721 13.0306 C 130.6647 15.0314 133.1919 18.0022 136.1635 20.4136 C 138.702 22.4745 142.792 23.5578 143.9143 26.4613 C 145.7469 31.1982 144.4194 36.328 144.2116 41.2157 C 144.0866 44.189 144.9003 47.7933 142.9177 50.0039 C 140.9189 52.232 137.0409 52.3028 133.8722 52.7452 C 130.2476 53.2496 122.6977 54.8609 122.7504 52.8164 C 122.8259 49.8004 129.1782 44.4496 134.128 42.6211 C 141.0309 40.0715 149.057 40.1265 156.6956 40.2817 C 159.9408 40.3482 163.2687 41.6408 166.1327 43.2705 C 169.4828 45.1766 172.0686 48.121 174.9225 50.6533 C 177.5249 52.9621 180.7832 54.8922 182.5125 57.7992 C 184.2295 60.6867 185.6984 64.2787 184.8178 67.2966 C 183.846 70.6288 180.7307 73.2418 177.5253 74.9043 C 174.6217 76.4108 170.799 75.8424 167.4407 76.3105 C 164.0832 76.7787 160.7989 77.8649 157.357 77.7159 C 153.3263 77.5413 145.3025 77.5813 145.358 75.3538 C 145.4292 72.5192 152.9712 69.2826 157.6128 67.5925 C 160.6192 66.4979 164.2117 66.9554 167.535 67.2852 C 171.9677 67.7254 176.3381 69.0181 180.7338 69.8834 C 183.9296 70.5133 188.0606 69.4905 190.3318 71.7731 C 193.506 74.9643 192.8989 79.9918 194.7141 83.9406 C 196.3378 87.471 199.3139 90.5229 200.6194 94.1464 C 201.6952 97.1341 201.7568 100.3326 201.725 103.407 C 201.6932 106.3888 202.1074 109.7668 200.4311 112.1961 C 198.2045 115.4242 194.0474 117.0504 190.7381 119.3307 C 188.0954 121.1514 185.7379 123.5442 182.5682 124.5052 C 179.4874 125.4378 175.9409 125.4609 172.6462 124.8124 C 169.3506 124.1638 166.0101 122.785 163.3708 120.7247 C 160.6548 118.6061 159.1058 115.4499 157.1421 112.7168 C 155.0084 109.7466 153.2088 106.5793 151.075 103.609 C 149.1114 100.8759 147.0202 98.2023 144.8464 95.6003 C 142.1233 92.3411 139.6287 88.8411 136.3799 86.0204 C 132.2791 82.461 127.1762 80.025 122.9527 76.5942 C 119.8033 74.0385 117.6087 70.5128 114.3237 68.1131 C 110.4789 65.3043 106.1341 63.1011 101.7723 61.1209 C 98.7686 59.7572 95.5785 58.5816 92.3352 58.1321 C 89.0189 57.6724 85.6104 57.824 82.4131 58.4394 C 78.7562 59.1424 75.443 60.784 72.0053 62.0427 C 66.7506 63.9662 61.3388 65.652 56.3137 67.9966 C 53.3569 69.3753 50.8067 71.3763 48.1437 73.1703 C 42.5898 76.9117 36.9665 80.6093 31.6431 84.6173 C 28.6341 86.8825 25.5787 89.1864 23.1499 91.988 C 21.0748 94.3839 19.5302 97.1989 18.2559 100.0687 C 17.0536 102.7761 16.5928 105.7726 15.7624 108.62 C 15.5546 109.3331 16.408 109.1238 15.7624 108.62 Z " data-paper-data="{&quot;origRot&quot;:0,&quot;index&quot;:null}" fill="#000000" stroke="#000000" stroke-linecap="round" stroke-width="4"/><path d="M 33.5028 248.1452 C 33.5028 248.1452 27.8468 213.81 37.6539 204.2188 C 47.1926 194.89 66.5953 187.8306 66.5953 187.8306 " data-paper-data="{&quot;index&quot;:null}" fill="none" stroke="#000000" stroke-linecap="round" stroke-width="4"/></g></g></svg>