<svg version="1.1" xmlns="http://www.w3.org/2000/svg" xmlns:xlink="http://www.w3.org/1999/xlink" width="356.4743" height="291.99999" viewBox="0,0,356.4743,291.99999"><g transform="translate(-74.66833,-49.2655)"><g data-paper-data="{&quot;isPaintingLayer&quot;:true}" fill-rule="nonzero" stroke-linejoin="miter" stroke-miterlimit="10" stroke-dasharray="" stroke-dashoffset="0" style="mix-blend-mode: normal"><path d="M279.46801,158.57673l10.02406,-3.64993l8.90583,24.4587l-10.02406,3.64993z" fill="#ffd5a1" stroke="#525252" stroke-width="1" stroke-linecap="butt"/><path d="M296.22974,178.95331l-7.25691,2.84715c0,0 -7.95309,-20.7904 -7.67525,-20.89157c2.06373,-0.75144 9.43767,-6.51257 10.0755,-4.76083c1.26871,3.9084 4.85666,22.80525 4.85666,22.80525z" fill="#e7c091" stroke="none" stroke-width="0" stroke-linecap="butt"/><g data-paper-data="{&quot;index&quot;:null}" stroke-width="1" stroke-linecap="butt"><path d="M260.48595,298.70148c4.44208,1.17765 7.06394,5.82569 5.8561,10.38164c-1.20784,4.55595 -5.78803,7.29466 -10.23009,6.11702c-4.44208,-1.17765 -7.06395,-5.8257 -5.8561,-10.38166c1.20784,-4.55595 5.78801,-7.29466 10.2301,-6.117z" data-paper-data="{&quot;origPos&quot;:null}" fill="#ffd4a0" stroke="#e7c091"/><path d="M249.03613,302.30281l28.66571,-119.78631c0,0 15.36456,-1.9003 17.85319,4.03518c5.65824,13.49512 1.85083,23.84544 -1.79924,37.44927c-5.95465,22.19308 -24.50931,83.992 -24.50931,83.992z" data-paper-data="{&quot;origRot&quot;:0,&quot;origPos&quot;:null}" fill="#e80000" stroke="#740000"/></g><path d="M113.17998,194.73937l76.05138,25.53106l-8.8725,26.42921l-76.05138,-25.53106z" fill="#4d87ff" stroke="#0046d1" stroke-width="1" stroke-linecap="butt"/><path d="M111.49035,149.16132l68.35682,41.98802l-14.59159,23.75522l-68.35682,-41.98802z" data-paper-data="{&quot;index&quot;:null}" fill="#4d87ff" stroke="#0046d1" stroke-width="1" stroke-linecap="butt"/><path d="M153.15724,183.08894l118.97378,-43.32041l23.88389,65.59395l-118.97382,43.32042z" fill="#e80000" stroke="#740000" stroke-width="1" stroke-linecap="butt"/><path d="M85.74972,175.98161c-13.64663,-7.69395 -3.17589,-18.76789 1.04631,-25.64167c4.22221,-6.8738 12.71862,-10.24387 18.06492,-6.95992c5.34625,3.28392 9.77543,7.27958 5.55322,14.15337c-4.22221,6.8738 -13.77776,24.58612 -24.66443,18.44825z" data-paper-data="{&quot;index&quot;:null}" fill="#c58d3b" stroke="#1c1100" stroke-width="1" stroke-linecap="butt"/><path d="M74.66833,199.32448z" data-paper-data="{&quot;index&quot;:null}" fill="#c58d3b" stroke="#784800" stroke-width="1" stroke-linecap="butt"/><path d="M93.43177,226.61382c-15.02785,-4.42616 -7.31722,-17.57207 -4.74988,-25.2196c2.56734,-7.64754 10.0876,-12.84291 16.0357,-10.84608c5.94805,1.99681 11.16268,4.89344 8.59534,12.54098c-2.56734,7.64754 -7.8926,27.0557 -19.88113,23.52468z" fill="#c58d3b" stroke="#1c1100" stroke-width="1" stroke-linecap="butt"/><path d="M255.27007,153.08998l18.25487,-6.64692l2.91995,8.01925l-18.25487,6.64692z" fill="#e80000" stroke="none" stroke-width="0" stroke-linecap="butt"/><path d="M277.47835,205.77527l17.83295,-6.49329l2.91994,8.01924l-17.83299,6.4933z" fill="#e80000" stroke="none" stroke-width="0" stroke-linecap="butt"/><g data-paper-data="{&quot;index&quot;:null}"><path d="M291.73294,174.35425c-5.9937,-40.53468 20.05135,-77.96415 58.17325,-83.60109c38.1219,-5.63694 73.88468,22.65325 79.87838,63.18793c5.9937,40.53468 -20.05135,77.96415 -58.17325,83.60109c-38.1219,5.63694 -73.88468,-22.65325 -79.87838,-63.18793z" data-paper-data="{&quot;index&quot;:null}" fill="#e7c091" stroke="#525252" stroke-width="1" stroke-linecap="butt"/><path d="M363.38321,236.66424c-22.34997,2.16964 -36.70479,-6.23937 -52.02395,-22.65739c-10.49078,-11.24331 -13.8213,-19.45941 -17.35308,-34.42589c-6.14855,-26.05554 17.56679,-60.07723 41.39002,-71.79476c22.40565,-11.02029 34.23345,-13.61459 38.14935,12.86813c0,0 4.98687,8.72637 -4.5625,1.17684c-3.96681,-3.13605 8.47461,21.49377 8.00948,35.89053c0,0 2.07032,6.12252 -7.20058,-0.97178c-10.14218,-7.76101 10.67196,19.7213 9.56702,30.05811c0,0 -2.70802,-9.70161 -10.28815,-1.81855c0,0 4.12842,20.91021 6.7886,27.06052c3.64763,8.43331 14.60811,18.44556 14.60811,18.44556c0,0 -8.99513,4.41162 -15.90881,5.643c-3.79847,0.67652 -4.62583,-0.11014 -11.17551,0.52565z" data-paper-data="{&quot;index&quot;:null}" fill="#ffd5a1" stroke="none" stroke-width="0" stroke-linecap="butt"/><path d="M428.98029,153.85009c2.60072,17.5884 1.15737,27.54045 -5.47053,44.03851c-4.49186,11.18103 -8.59485,18.60336 -16.49675,27.70022c-3.49891,4.02796 -11.34783,5.81004 -11.34783,5.81004c-7.57846,0.09706 -21.63573,-37.42606 -21.63573,-37.42606c-0.3324,-6.65369 24.62227,17.73024 19.30897,10.60616c-5.31332,-7.12406 -16.93099,-36.94365 -16.93099,-36.94365c-1.80933,-11.18159 26.56364,24.63914 20.87518,9.62474c-5.68841,-15.01445 -24.52138,-46.56074 -24.52138,-46.56074c-1.39626,-9.44275 23.59494,19.9029 22.48637,10.42212c-1.18582,-10.14165 -4.90966,-12.96512 -11.61572,-21.90119c-4.73529,-6.30999 -24.12723,-26.93651 -16.32294,-28.0905c14.09695,-2.08446 27.24685,8.01615 38.06609,17.29045c12.15785,10.42178 21.26288,29.58886 23.60525,45.42997z" data-paper-data="{&quot;index&quot;:null}" fill="#ffef4d" stroke="#716a22" stroke-width="1" stroke-linecap="butt"/><path d="M351.17337,207.43895c-11.90592,1.76048 -21.86494,1.1088 -22.24412,-1.45553c-0.37918,-2.56435 8.96509,-6.07032 20.87099,-7.8308c11.90592,-1.76048 21.86494,-1.1088 22.24412,1.45553c0.37918,2.56435 -8.96509,6.07032 -20.87099,7.8308z" data-paper-data="{&quot;index&quot;:null}" fill="#000000" stroke="#1c1c1c" stroke-width="1" stroke-linecap="butt"/><path d="M373.38955,213.28986c0.37919,2.56435 -8.96508,6.07034 -20.87098,7.83082c-11.90591,1.76048 -21.86496,1.1088 -22.24414,-1.45555c-0.37917,-2.56434 8.96509,-6.07031 20.87101,-7.83079c11.90592,-1.76048 21.86493,-1.10885 22.24412,1.45553z" data-paper-data="{&quot;index&quot;:null}" fill="#000000" stroke="#1c1c1c" stroke-width="1" stroke-linecap="butt"/><path d="M314.95727,202.69052l1.94492,-28.59652" fill="none" stroke="#000000" stroke-width="1" stroke-linecap="round"/><path d="M367.04278,206.21574l9.92248,-11.75615" fill="none" stroke="#000000" stroke-width="1.5" stroke-linecap="round"/></g><g stroke-width="1" stroke-linecap="butt"><path d="M320.104,292.5893c1.45414,4.48342 -0.91071,9.26736 -5.28207,10.68516c-4.37135,1.41779 -9.09389,-1.06743 -10.54803,-5.55086c-1.45414,-4.48342 0.91074,-9.26734 5.28209,-10.68514c4.37135,-1.41779 9.09388,1.06743 10.54802,5.55084z" data-paper-data="{&quot;origPos&quot;:null}" fill="#ffd4a0" stroke="#e7c091"/><path d="M301.31438,296.79319c0,0 -21.89243,-60.69678 -29.04675,-82.5327c-4.38545,-13.38487 -8.75081,-23.51251 -3.83587,-37.29572c2.16171,-6.06223 17.60698,-5.00139 17.60698,-5.00139l35.14616,118.04757z" data-paper-data="{&quot;origRot&quot;:0,&quot;origPos&quot;:null}" fill="#e80000" stroke="#740000"/></g><g stroke-linecap="butt"><g data-paper-data="{&quot;origPos&quot;:null}" stroke="none"><path d="M304.38073,304.40152c8.69999,-6.57926 23.7712,-13.26638 23.7712,-13.26638l4.01685,6.58737c0,0 -10.63793,14.28408 -17.2798,19.3069c-8.69998,6.57926 -30.14357,18.4437 -32.04458,16.25486c-3.53092,-4.06551 12.83635,-22.3035 21.53632,-28.88276z" data-paper-data="{&quot;origRot&quot;:0,&quot;origPos&quot;:null}" fill="#000000" stroke-width="NaN"/><path d="M289.1196,320.61515l2.91841,3.16931c0.94136,0.93371 4.25911,4.48199 4.25911,4.48199c0,0 -3.06368,1.4731 -4.40215,2.31622c-3.49358,2.20067 -9.32135,3.36134 -9.50801,3.29146c-1.68094,-0.62944 0.80491,-4.28827 2.01536,-7.52085c1.21045,-3.23258 4.7173,-5.73811 4.7173,-5.73811z" data-paper-data="{&quot;origPos&quot;:null}" fill="#252525" stroke-width="0"/></g><text transform="translate(294.27016,323.7606) rotate(-35.32898) scale(0.11764,0.11764)" font-size="40" xml:space="preserve" data-paper-data="{&quot;origRot&quot;:-11.57517}" fill="#ffffff" fill-rule="nonzero" stroke="#797979" stroke-width="2" stroke-linecap="butt" stroke-linejoin="miter" stroke-miterlimit="10" stroke-dasharray="" stroke-dashoffset="0" font-family="Pixel" font-weight="normal" text-anchor="start" style="mix-blend-mode: normal"><tspan x="0" dy="0">Non-Branded Pen</tspan></text></g><path d="M292.61123,96.9489c-1.68464,-0.78009 -3.37735,-1.54509 -5.08436,-2.28086c-0.88102,-0.37975 -1.76849,-0.7467 -2.6595,-1.10633c1.25438,0.77844 2.52796,1.54378 3.80525,2.30991c0.68741,0.27331 1.37334,0.54922 2.05794,0.82757c0.62548,0.08583 1.2526,0.16837 1.88067,0.24972zM279.5,81.26549c0.17717,0 0.35003,0.01843 0.51678,0.05348c-1.38756,-0.69378 -2.77512,-1.38756 -4.16268,-2.08134c-0.74536,-0.37268 -1.9608,-0.33148 -2.23607,-1.11803l-2.18763,-1.09381c-0.84561,-0.40086 -1.43041,-1.26228 -1.43041,-2.26029c0,-1.38071 1.11929,-2.5 2.5,-2.5c0.36939,0 0.72006,0.08011 1.0356,0.22391l1.15134,0.49343c0.48161,0.2064 0.96335,0.41247 1.44523,0.61823c0.2954,0.00242 0.58077,0.16189 0.86316,0.36817c1.7059,0.72688 3.41339,1.45 5.1221,2.1703c-7.11132,-4.02302 -14.24488,-8.09835 -20.78149,-12.77644c-2.67678,-1.91571 -5.11994,-4.33226 -7.63386,-6.45942c-0.63616,-0.53829 -1.78588,-0.79059 -1.90847,-1.61486l-1.89506,-1.60351c-0.54916,-0.45859 -0.89855,-1.1484 -0.89855,-1.91981c0,-1.38071 1.11929,-2.5 2.5,-2.5c0.41468,0 0.80577,0.10096 1.15004,0.27964l2.8459,1.40133l-0.00109,0.00221c3.70771,1.83848 7.40451,3.70567 11.17548,5.40869c2.49054,1.12476 4.98108,2.24952 7.47162,3.37428c-0.05975,-0.2142 -0.0917,-0.44 -0.0917,-0.67325c0,-1.38071 1.11929,-2.5 2.5,-2.5c0.1348,0 0.26711,0.01067 0.39613,0.03121l4.90717,0.70102l-0.0244,0.17078c3.17349,0.82723 6.15403,2.14295 9.25691,3.34962c9.59912,3.73299 18.32857,8.49963 27.22321,13.70124c4.85871,2.84139 9.7183,5.67865 14.53332,8.5843c5.44962,2.17808 10.96363,4.42841 15.77544,7.43287c3.38463,2.11334 6.40482,5.17593 9.81181,7.40797c0.23885,0.11806 0.47753,0.2367 0.71605,0.35596c0.74536,0.37268 1.96136,0.33128 2.23607,1.11803l2.18763,1.09381c0.84561,0.40086 1.43041,1.26228 1.43041,2.26029c0,1.38071 -1.11929,2.5 -2.5,2.5c-0.26404,0 -0.51853,-0.04093 -0.75745,-0.1168l0.56167,0.35891c0.71353,0.44026 1.18908,1.22916 1.18908,2.12914c0,1.38071 -1.11929,2.5 -2.5,2.5c-0.23218,0 -0.45696,-0.03165 -0.67027,-0.09087l-4.79142,-1.21751l0.00086,-0.0034c-0.60076,-0.15442 -1.20135,-0.30942 -1.80181,-0.46496c-0.09861,1.29045 -1.17693,2.30684 -2.49265,2.30684c-0.37112,0 -0.72335,-0.08087 -1.04004,-0.22594l-2.24525,-0.96759c-0.77712,0.30089 -1.53059,-0.65961 -2.29588,-0.98941c-1.10684,-0.47699 -2.21368,-0.95399 -3.32053,-1.43098c0.57559,0.75241 1.1487,1.50689 1.72022,2.26287c1.49687,0.49896 2.99374,0.99791 4.49062,1.49687c0.79057,0.26352 1.98761,0.05103 2.37171,0.79057l2.31702,0.77234c1.02156,0.31417 1.76412,1.26534 1.76412,2.38994c0,1.38071 -1.11929,2.5 -2.5,2.5c-0.24316,0 -0.47821,-0.03472 -0.70047,-0.09946c-0.41114,-0.10986 -1.62082,-0.4331 -2.31769,-0.61932c0.12221,0.16288 0.24448,0.32574 0.36681,0.48858c1.60285,2.13373 3.23353,4.23816 4.83451,6.36066c2.10683,2.08179 4.17325,4.19423 6.18596,6.34597c2.83795,3.05076 5.67591,6.10152 8.51386,9.15228l0.50039,0.53792c0.42686,0.2676 0.85207,0.54084 0.88521,0.95159l1.55736,1.67414c0.41809,0.44688 0.67404,1.04735 0.67404,1.70761c0,1.38071 -1.11929,2.5 -2.5,2.5c-0.69036,0 -1.31536,-0.27982 -1.76777,-0.73223l-1.5,-1.5c-0.67097,0.04785 -0.95316,-0.91815 -1.42583,-1.42583l-0.07417,-0.07417c-0.56804,-0.52569 -1.17324,-1.00975 -1.75878,-1.51587c-1.42949,-1.23559 -2.85713,-2.47333 -4.2845,-3.71138c-1.47766,0.17075 -2.33268,-1.25428 -2.33268,-1.25428c-0.33479,-0.55799 -0.67691,-1.11036 -1.02545,-1.65785c-6.00291,-5.18688 -12.75453,-9.38479 -19.58142,-13.46246c-0.36758,0.21249 -0.79427,0.33409 -1.24937,0.33409c-0.11851,0 -0.23509,-0.00825 -0.34921,-0.0242l-2.99949,-0.37494l0.00149,-0.01191c-1.33915,-0.18864 -2.69865,-0.40794 -4.0689,-0.65754c-0.18733,0.04482 -0.38285,0.06856 -0.58391,0.06856c-0.48219,0 -0.93249,-0.13651 -1.31437,-0.373l-0.1514,-0.09012c-0.95459,-0.19365 -1.91205,-0.40175 -2.86919,-0.62419c0.31157,0.21526 0.61658,0.43598 0.91393,0.66287c2.53463,1.93407 4.71645,4.90755 6.9293,7.21005c0.57744,0.60084 1.71429,0.96937 1.73232,1.80251l1.72981,1.79989c0.43343,0.44958 0.7,1.06113 0.7,1.73494c0,1.38071 -1.11929,2.5 -2.5,2.5c-0.57332,0 -1.10156,-0.19299 -1.52331,-0.51754l-3.975,-2.99171l0.00138,-0.00183c-0.24154,-0.18248 -0.48302,-0.36505 -0.72443,-0.54769l-0.55537,-0.13884c-0.24701,0.18247 -0.54701,0.15716 -0.85947,0.04868c-0.42353,0.32963 -0.95593,0.52596 -1.53419,0.52596c-0.41989,0 -0.81561,-0.10352 -1.16302,-0.28642l-2.19108,-1.09554c-0.17906,0.04302 -3.09188,-1.58602 -4.14497,-2.17921c-1.62854,-0.51498 -3.26201,-1.01743 -4.91433,-1.47324c-6.38976,-1.76266 -13.42694,-2.25128 -19.96713,-3.34786c-8.23039,-1.37998 -16.44768,-2.81152 -24.65987,-4.29601c-4.21043,-0.76111 -8.80544,-1.13189 -12.89044,-2.40776c-2.30219,-0.71905 -4.63303,-2.09824 -6.82775,-3.10352c-0.67834,-0.31071 -1.341,-0.65725 -2.03198,-0.93872c-0.0356,-0.0145 -0.07323,-0.02685 -0.11245,-0.03748c-0.49844,-0.1351 -1.25423,0.00754 -1.38755,-0.46252l-1.44531,-0.48177c-1.02156,-0.31417 -1.76412,-1.26534 -1.76412,-2.38994c0,-1.38071 1.11929,-2.5 2.5,-2.5c0.21236,0 0.41854,0.02648 0.61541,0.07631l1.95823,0.4519c0.07809,0.00242 0.16008,0.02337 0.24442,0.05641l1.00017,0.23081l-0.00371,0.01608c3.08001,0.76957 6.18949,1.66752 9.29407,2.17085c6.59711,1.06955 13.82141,0.60093 20.50236,0.89141c7.33522,0.36967 14.54409,1.6858 21.50926,3.82547c-2.93612,-1.82692 -5.87225,-3.65384 -8.80837,-5.48076c-2.30991,-0.86486 -4.62067,-1.76941 -6.95554,-2.70336c-1.54746,-0.61898 -3.09492,-1.23797 -4.64238,-1.85695c-0.77373,-0.30949 -1.96645,-0.17442 -2.32119,-0.92848l-2.26712,-0.90685c-0.52598,-0.19639 -0.96806,-0.56484 -1.2578,-1.03688c-2.32249,0.01851 -4.66133,0.19829 -6.7755,0.19422l-0.9782,-0.16241c0,0 -2.33778,-0.88589 -1.45188,-3.22367v0.00002c0.00232,-0.00612 0.00464,-0.01221 0.00698,-0.01828c-0.52731,-0.07907 -1.05352,-0.16046 -1.57842,-0.24475c-3.52884,-0.56669 -6.7487,-1.76848 -10.13794,-2.89823c-0.79057,-0.26352 -1.93641,-0.07996 -2.37171,-0.79057l-2.31702,-0.77234c-1.02156,-0.31417 -1.76412,-1.26534 -1.76412,-2.38994c0,-1.38071 1.11929,-2.5 2.5,-2.5h5v0.00857c1.00307,0.00808 2.02048,0.02328 3.04604,0.05107c-0.34172,-0.42756 -0.54604,-0.96974 -0.54604,-1.55965c0,-1.38071 1.11929,-2.5 2.5,-2.5c0.31558,0 0.6175,0.05847 0.89552,0.16517l1.02708,0.36681c-3.21323,-1.60627 -6.4177,-3.20762 -9.56971,-4.85154c-2.92034,-1.52309 -5.75356,-2.79043 -8.83761,-3.95273c-0.77979,-0.29389 -1.93881,-0.15091 -2.33938,-0.88166l-2.28476,-0.86107c-0.97428,-0.34141 -1.67296,-1.26909 -1.67296,-2.35996c0,-1.38071 1.11929,-2.5 2.5,-2.5c0.06989,0 0.13912,0.00287 0.20756,0.00849l4.96068,0.36095l-0.01104,0.15179c3.43794,0.602 6.74945,1.72135 10.13152,2.6891c4.89073,1.39945 10.09488,2.45553 14.83992,4.28824c3.78845,1.46323 7.48068,3.45332 11.1405,5.39323c0.45527,-0.61677 1.18726,-1.0168 2.01269,-1.0168zM340.92897,95.37976c0.04113,0.05002 0.07737,0.10547 0.10802,0.1671l1.54436,0.57914c-0.5508,-0.24875 -1.10159,-0.49749 -1.65239,-0.74624zM319.28863,90.58348c0.74433,0.15523 1.48932,0.30727 2.23507,0.45572c-1.96574,-1.30581 -4.14321,-2.48291 -6.30001,-3.62997c0.93073,0.85458 1.86073,1.71189 2.79157,2.5706c0.42411,0.20182 0.84858,0.40302 1.27337,0.60365zM338.69616,94.66905c0.35501,0.13313 0.79473,0.17237 1.20354,0.24588c-4.17089,-1.88363 -8.34178,-3.76726 -12.51268,-5.65089c0.14679,0.11842 0.29217,0.23789 0.43604,0.35844c1.00077,0.83852 1.92356,1.9205 2.81227,3.02165c2.8109,0.45432 5.36546,1.01416 8.06082,2.02492zM270.70052,63.66368c8.33877,5.28318 17.32009,9.90641 25.6983,14.92948c1.31842,0.79045 2.64835,1.56408 3.98833,2.3228c-3.72746,-3.13378 -7.56837,-6.14034 -11.62141,-8.93619c-0.22693,-0.15654 -0.45481,-0.31192 -0.6835,-0.46628c-5.79391,-2.6166 -11.58782,-5.23321 -17.38173,-7.84981zM350.92571,100.78658c-1.19415,-0.85179 -2.39605,-1.69141 -3.60488,-2.52018c-1.10543,-0.49923 -2.21086,-0.99845 -3.31629,-1.49768c0.60464,0.45631 0.99546,1.1809 0.99546,1.99676c0,0.19751 -0.0229,0.38968 -0.0662,0.57398c0.9252,0.23624 1.8504,0.47247 2.7756,0.70871c1.0378,0.26499 2.12093,0.49984 3.21632,0.73841zM306.89854,96.91488c2.33355,1.28674 4.63883,2.63902 6.92719,4.02752c3.92423,0.88112 7.83527,1.78888 11.72597,2.78328c-1.43769,-1.32479 -2.87538,-2.64958 -4.31307,-3.97436c-5.96238,-1.50701 -11.96772,-2.98486 -17.86525,-4.72504c1.18336,0.61714 2.35916,1.24566 3.52517,1.88861zM340.31867,117.33298c-1.64807,-1.51864 -3.29613,-3.03728 -4.9442,-4.55592c-1.51847,-0.40575 -3.03693,-0.81151 -4.5554,-1.21726c3.17679,1.9409 6.35404,3.84263 9.4996,5.77318zM295.72803,118.15456c-2.11603,-0.62341 -4.64633,-0.71786 -6.82779,-1.08812c-4.29944,-0.72973 -8.6439,-1.76096 -13.00647,-1.91191c-0.09303,-0.00404 -0.18615,-0.00795 -0.27936,-0.01172c5.43975,0.95934 10.88292,1.89561 16.33186,2.80922c1.86317,0.3124 3.76348,0.5775 5.67652,0.83688c-0.62999,-0.23406 -1.26164,-0.44783 -1.89476,-0.63435zM264.13393,81.37273c-1.35395,-0.52294 -2.7562,-0.97329 -4.18136,-1.38383c4.05783,2.04043 8.13131,4.08256 12.14493,6.21311c0.07622,-0.32949 0.21757,-0.63404 0.40976,-0.89936c-2.75504,-1.44384 -5.53722,-2.83452 -8.37333,-3.92992zM333.62105,104.04073c-0.30971,-0.38286 -0.62077,-0.76472 -0.93332,-1.1455c-0.2335,-0.10057 -0.46701,-0.20112 -0.70051,-0.30167c0.54435,0.4823 1.08902,0.96465 1.63383,1.44717z" fill="#ffd5a1" stroke="none" stroke-width="0.5" stroke-linecap="butt"/><path d="M152.52948,291.84772c0.41675,-1.01741 1.15158,-2.30411 1.15158,-2.30411l0.74624,1.33204c2.79673,5.19455 7.14548,9.53019 10.34365,14.51544c5.733,3.48914 11.46599,6.97828 17.19899,10.46742c2.8429,1.73021 5.6805,3.46953 8.52883,5.19076c0.00361,0.00218 0.00723,0.00435 0.01086,0.00651c0.71383,0.42527 1.83941,0.50428 2.13287,1.27972l2.10444,1.26267c0.74893,0.43183 1.25305,1.24069 1.25305,2.16731c0,1.38071 -1.11929,2.5 -2.5,2.5c-0.10572,0 -0.20991,-0.00656 -0.31218,-0.0193l-3.43617,-0.3818c0.27807,0.2068 0.55431,0.41435 0.82852,0.62282c2.48194,1.88686 4.9237,4.16136 7.56573,5.80615c0.08578,0.0534 0.17925,0.09886 0.27779,0.1389c0.71416,0.29013 1.69546,0.29564 1.95827,0.97914l2.18763,1.09381c0.84561,0.40086 1.43041,1.26228 1.43041,2.26029c0,1.38071 -1.11929,2.5 -2.5,2.5c-0.26821,0 -0.52656,-0.04224 -0.76875,-0.12042l-2.84069,-0.84541l0.01209,-0.04061c-7.92346,-2.73356 -15.35202,-7.43415 -22.65305,-11.41966c-6.53576,-3.56777 -13.07153,-7.13553 -19.60729,-10.7033c-3.05913,-1.66993 -6.71633,-3.15299 -9.44718,-5.32389c-2.2949,-1.82434 -4.12042,-4.63433 -6.10214,-6.87396c-1.7927,-0.93224 -3.48878,-1.95194 -4.97304,-3.12118c-1.78829,-1.40876 -3.34905,-4.00078 -4.81415,-5.75099c-2.38439,-2.8484 -4.79384,-5.66799 -7.18517,-8.4934l-2.82753,-1.80712l0.12392,-0.19389c-3.37004,-2.88081 -6.11152,-6.61208 -8.52177,-10.6339c-0.50751,-0.70049 -0.98798,-1.41169 -1.44721,-2.13257c-0.5204,-0.60339 -0.987,-1.21688 -1.34105,-1.83616c-0.41266,-0.7218 -0.76118,-1.51482 -1.07069,-2.34156c-0.13807,-0.26042 -0.27491,-0.52177 -0.41075,-0.784c-3.22551,-4.68369 -6.17366,-9.56903 -8.68502,-14.78391c-5.44558,-11.30787 -10.99309,-22.53906 -15.86404,-34.10756c-1.3238,-3.14404 -2.83372,-6.27454 -3.97703,-9.48838c-0.26908,-0.75638 -1.04163,-1.5997 -0.67255,-2.31265l-0.65639,-2.25706c-0.07511,-0.23784 -0.11562,-0.49104 -0.11562,-0.7537c0,-1.38071 1.11929,-2.5 2.5,-2.5c1.01545,0 1.88949,0.60541 2.28088,1.47497l1.0513,2.2068c1.02249,2.14634 2.05753,4.2667 3.10996,6.36417c0.45238,-0.64294 1.20014,-1.06303 2.04601,-1.06303c1.0731,0 1.98829,0.67611 2.34282,1.62559l0.0172,0.04299c-0.00203,-0.17527 -0.00306,-0.35067 -0.00306,-0.5262c0,0 0,-2.5 2.5,-2.5c2.5,0 2.5,2.5 2.5,2.5c0,7.34652 1.9437,14.47095 3.38348,21.66987c0.09022,0.4511 0.17406,0.91068 0.25386,1.37656c1.9317,3.02911 3.94832,6.03191 6.06753,9.01969c7.25523,10.22878 15.05785,20.20556 21.95457,30.6742c2.24733,3.41125 3.80883,8.2127 6.57897,11.30297c5.23261,3.1846 10.46521,6.3692 15.69782,9.5538c1.21786,0.7412 2.43572,1.48239 3.65357,2.22359c-1.26324,-1.6992 -2.471,-3.43358 -3.52462,-5.26676l-0.74624,-1.33204c0,0 2.00398,-0.24965 3.21054,-0.13965zM161.81736,310.07189c-0.22601,-0.33832 -0.44738,-0.68133 -0.66391,-1.02922c-0.68094,-0.41442 -1.36188,-0.82885 -2.04282,-1.24327c0.80447,0.67402 1.60894,1.34803 2.41341,2.02205c0.09716,0.08141 0.19495,0.16495 0.29332,0.25045z" fill="#c58d3b" stroke="none" stroke-width="0.5" stroke-linecap="butt"/></g></g></svg>