<svg version="1.1" xmlns="http://www.w3.org/2000/svg" xmlns:xlink="http://www.w3.org/1999/xlink" width="73.02595" height="70.08813" viewBox="0,0,73.02595,70.08813"><g transform="translate(-203.48703,-144.95594)"><g data-paper-data="{&quot;isPaintingLayer&quot;:true}" fill-rule="nonzero" stroke="none" stroke-width="0" stroke-linecap="butt" stroke-linejoin="miter" stroke-miterlimit="10" stroke-dasharray="" stroke-dashoffset="0" style="mix-blend-mode: normal"><g><path d="M214.4566,205.6349v-51.26978h51.08682v51.26978z" fill="#343434"/><path d="M216.3452,203.73954v-47.47906h47.30961v47.47906z" fill="#585858"/><g><g><path d="M226.86973,174.42414c0,-7.25165 5.87863,-13.13029 13.13028,-13.13029c7.25165,0 13.13029,5.87863 13.13029,13.13029c0,7.25165 -5.87863,13.13027 -13.13029,13.13027c-7.25165,0 -13.13028,-5.87862 -13.13028,-13.13027z" fill="#8a8a8a"/><path d="M230.28721,174.42414c0,-5.36424 4.34857,-9.71281 9.7128,-9.71281c5.36424,0 9.7128,4.34857 9.7128,9.71281c0,5.36424 -4.34857,9.71282 -9.7128,9.71282c-5.36424,0 -9.7128,-4.34858 -9.7128,-9.71282z" fill="#585858"/></g><path d="M226.86973,198.70616v-25.54109h26.26056v25.54109z" fill="#8a8a8a"/><path d="M235.32346,182.51815c0,-2.58277 2.09376,-4.67654 4.67654,-4.67654c2.58277,0 4.67655,2.09375 4.67655,4.67654c0,2.58277 -2.09376,4.67655 -4.67655,4.67655c-2.58277,0 -4.67654,-2.09376 -4.67654,-4.67655z" fill="#585858"/><path d="M237.302,193.49003v-11.87121h5.39601v11.87121z" fill="#585858"/></g><path d="M203.48704,215.04407v-70.08813h73.02595v70.08813z" fill="none"/></g></g></g></svg>