<svg version="1.1" xmlns="http://www.w3.org/2000/svg" xmlns:xlink="http://www.w3.org/1999/xlink" width="213.16645" height="291.29827" viewBox="0,0,213.16645,291.29827"><g transform="translate(-140.53762,-88.19462)"><g data-paper-data="{&quot;isPaintingLayer&quot;:true}" fill-rule="nonzero" stroke-linejoin="miter" stroke-miterlimit="10" stroke-dasharray="" stroke-dashoffset="0" style="mix-blend-mode: normal"><path d="M207.86088,323.10957c-7.80199,0 -14.12678,-6.88699 -14.12678,-15.3825c0,-8.49551 6.32478,-15.38248 14.12678,-15.38248c7.80199,0 14.12678,6.88699 14.12678,15.38248c0,8.49551 -6.32478,15.3825 -14.12678,15.3825z" fill="#995900" stroke="#663b00" stroke-width="2" stroke-linecap="butt"/><g data-paper-data="{&quot;index&quot;:null}" stroke-linecap="butt"><path d="M149.39204,303.62284c0,0 31.32206,-0.49127 59.21625,0.44134c27.89419,0.93261 29.20998,-5.12692 28.68502,10.57448c-0.52495,15.70138 -51.76428,12.50016 -51.76428,12.50016c0,0 5.1301,24.83729 -11.02822,34.51764c-8.65601,5.18576 -15.2241,7.36776 -24.48097,3.35169c-14.96843,-6.49404 -0.6278,-61.38531 -0.6278,-61.38531z" data-paper-data="{&quot;origPos&quot;:null}" fill="#995900" stroke="#663b00" stroke-width="2"/><path d="M155.9686,301.18379c6.68372,0.22346 11.78274,9.95097 11.38902,21.72702c-0.39372,11.77603 -6.13109,21.14126 -12.81479,20.91779c-6.68372,-0.22346 -11.78274,-9.95099 -11.38902,-21.72702c0.39372,-11.77606 6.13109,-21.14126 12.81479,-20.91779z" data-paper-data="{&quot;origPos&quot;:null}" fill="#ffffff" stroke="#e5e5e5" stroke-width="2"/><path d="M141.63286,348.1072c1.83313,-0.73351 7.717,2.32794 8.5213,6.68348c0.80427,4.35552 -0.02976,8.48101 -1.86289,9.21452c-1.83313,0.73351 -3.97119,-2.20271 -4.77547,-6.55824c-0.80427,-4.35552 -3.71605,-8.60625 -1.88293,-9.33975z" data-paper-data="{&quot;origPos&quot;:null,&quot;origRot&quot;:0}" fill="#ffffff" stroke="#e5e5e5" stroke-width="1"/><path d="M157.57043,345.50536c2.99966,-0.92462 6.54284,2.88805 7.9139,8.51585c1.37106,5.62781 0.05083,10.93963 -2.94882,11.86426c-2.99966,0.92462 -6.54284,-2.88802 -7.9139,-8.51585c-1.37106,-5.62783 -0.05083,-10.93963 2.94882,-11.86426z" data-paper-data="{&quot;origPos&quot;:null,&quot;origRot&quot;:0}" fill="#ffffff" stroke="#e5e5e5" stroke-width="1.5"/><path d="M169.52927,336.12265c2.80668,-1.40547 6.92876,1.77239 9.20693,7.09798c2.27818,5.32561 1.84971,10.78224 -0.95699,12.18772c-2.80668,1.40547 -6.92876,-1.77239 -9.20693,-7.098c-2.27818,-5.32559 -1.84971,-10.78225 0.95699,-12.1877z" data-paper-data="{&quot;origPos&quot;:null,&quot;origRot&quot;:0}" fill="#ffffff" stroke="#e5e5e5" stroke-width="1.5"/></g><g data-paper-data="{&quot;index&quot;:null}" stroke-linecap="butt"><path d="M267.72081,332.24096c-16.99236,-22.14081 -22.50895,-19.30946 -10.04607,-28.87432c12.46285,-9.56484 42.52684,32.05094 42.52684,32.05094c0,0 15.92951,-19.73473 33.66821,-13.39926c9.50262,3.39392 15.35898,7.08227 18.13463,16.78352c4.48823,15.68701 -47.02225,39.46465 -47.02225,39.46465c0,0 -20.26901,-23.88472 -37.26137,-46.02553z" data-paper-data="{&quot;origPos&quot;:null}" fill="#995900" stroke="#663b00" stroke-width="2"/><path d="M298.9219,374.73483c-4.07153,-5.30514 0.2052,-15.42117 9.55236,-22.59481c9.34714,-7.17363 20.22511,-8.68836 24.29665,-3.38321c4.07153,5.30514 -0.20522,15.42118 -9.55236,22.59481c-9.34715,7.17364 -20.22511,8.68836 -24.29665,3.38321z" data-paper-data="{&quot;origPos&quot;:null}" fill="#ffffff" stroke="#e5e5e5" stroke-width="2"/><path d="M344.27395,356.01306c-1.73068,-0.95034 -3.10193,-7.43972 -0.24795,-10.82682c2.85397,-3.38707 6.57058,-5.36246 8.30126,-4.41211c1.73068,0.95034 0.8201,4.46652 -2.0339,7.8536c-2.85397,3.38707 -4.28874,8.33567 -6.01941,7.38533z" data-paper-data="{&quot;origPos&quot;:null,&quot;origRot&quot;:0}" fill="#ffffff" stroke="#e5e5e5" stroke-width="1"/><path d="M332.14368,345.35323c-2.61907,-1.73013 -1.92365,-6.88833 1.55327,-11.52115c3.47692,-4.63281 8.41872,-6.98593 11.03779,-5.2558c2.61907,1.73013 1.92367,6.88832 -1.55327,11.52115c-3.47694,4.63283 -8.41872,6.98593 -11.03779,5.2558z" data-paper-data="{&quot;origPos&quot;:null,&quot;origRot&quot;:0}" fill="#ffffff" stroke="#e5e5e5" stroke-width="1.5"/><path d="M317.30157,342.07291c-2.86799,-1.27572 -3.03057,-6.47803 -0.36312,-11.61969c2.66746,-5.14167 7.15485,-8.27565 10.02285,-6.99992c2.86799,1.27572 3.03057,6.47803 0.36311,11.6197c-2.66745,5.14166 -7.15485,8.27565 -10.02283,6.9999z" data-paper-data="{&quot;origPos&quot;:null,&quot;origRot&quot;:0}" fill="#ffffff" stroke="#e5e5e5" stroke-width="1.5"/></g><path d="M190.45128,239.03286c-13.53653,5.29758 -24.86005,11.8698 -38.3553,6.4679c-4.93621,-1.97588 -7.09447,-9.38989 -9.0322,-14.34122c-2.00162,-5.11461 1.43233,-17.21696 6.39382,-19.57266c3.9116,-1.85721 16.05302,-5.72365 25.63573,-6.17157c13.36801,-0.62484 28.76202,1.44564 40.37995,8.08776c13.9753,7.98988 15.48167,14.40705 21.34845,29.398c5.41592,13.83892 -26.99598,-11.45052 -46.37047,-3.86823z" fill="#995900" stroke="#663b00" stroke-width="2" stroke-linecap="butt"/><path d="M241.01814,321.56386c-19.10694,0 -40.93882,-15.80591 -40.93882,-55.9305c0,-40.12459 23.56169,-51.31768 42.66863,-51.31768c19.10694,0 40.36222,11.19309 40.36222,51.31768c0,40.12459 -22.98508,55.9305 -42.09203,55.9305z" fill="#995900" stroke="#663b00" stroke-width="2" stroke-linecap="butt"/><path d="M198.73395,156.6905c-16.55935,0 -29.98336,-14.28451 -29.98336,-31.90537c0,-17.62085 13.42401,-31.90537 29.98336,-31.90537c16.55935,0 29.98336,14.28451 29.98336,31.90537c0,17.62085 -13.42401,31.90537 -29.98336,31.90537z" fill="#995900" stroke="#663b00" stroke-width="2" stroke-linecap="butt"/><path d="M288.25855,153.00538c-16.55935,0 -29.98336,-14.28451 -29.98336,-31.90537c0,-17.62085 13.42401,-31.90539 29.98336,-31.90539c16.55935,0 29.98336,14.28454 29.98336,31.90539c0,17.62085 -13.42401,31.90537 -29.98336,31.90537z" fill="#995900" stroke="#663b00" stroke-width="2" stroke-linecap="butt"/><path d="M242.17142,270.68772c0,18.25775 -23.06943,39.42598 -34.25733,23.1183c-4.51709,-6.58416 16.57483,-13.76684 16.57483,-23.1183c0,-18.25775 3.95836,-33.05857 8.84124,-33.05857c4.88288,0 8.84124,14.80083 8.84124,33.05857z" fill="#ffffff" stroke="#e5e5e5" stroke-width="2" stroke-linecap="butt"/><path d="M270.41775,309.50453c-14.71507,2.22788 -22.67275,-18.10921 -22.67275,-33.05073c0,-15.92246 4.30257,-28.83016 9.61006,-28.83016c5.30749,0 9.61006,12.9077 9.61006,28.83016c0,15.92246 22.13748,30.22185 3.45263,33.05073z" fill="#ffffff" stroke="#e5e5e5" stroke-width="2" stroke-linecap="butt"/><path d="M244.8622,237.60713c-33.54331,0 -60.73552,-27.70852 -60.73552,-61.88873c0,-34.1802 27.19221,-61.88873 60.73552,-61.88873c33.54331,0 60.73552,27.70852 60.73552,61.88873c0,34.1802 -27.19221,61.88873 -60.73552,61.88873z" fill="#995900" stroke="#663b00" stroke-width="2" stroke-linecap="butt"/><path d="M233.47281,188.64028c-10.06299,0 -18.22066,-12.39141 -18.22066,-27.67695c0,-15.28554 8.15767,-27.67695 18.22066,-27.67695c10.06299,0 18.22066,12.39141 18.22066,27.67695c0,15.28556 -8.15767,27.67695 -18.22066,27.67695z" fill="#ffffff" stroke="none" stroke-width="0" stroke-linecap="butt"/><g stroke="none" stroke-width="1" stroke-linecap="butt"><path d="M235.50589,137.63298c3.89493,0 11.42361,8.15714 11.42361,8.15714l-6.23915,17.30075l5.95084,14.99433c0,0 -7.24038,9.31034 -11.13531,9.31034c-3.89493,0 -7.42672,-2.7867 -9.98211,-7.29223c-2.55807,-4.50283 -4.13971,-10.7245 -4.13971,-17.58905c0,-6.86455 1.58165,-13.08622 4.13971,-17.58905c2.55539,-4.50553 6.08718,-7.29223 9.98211,-7.29223z" data-paper-data="{&quot;origPos&quot;:null}" id="ID0.3999869367107749" fill="#3a2400"/><path d="M236.04873,142.50207c3.03745,0 8.13984,8.15517 8.13984,8.15517l-7.42824,10.41668l8.2285,13.99967c0,0 -5.90264,6.23555 -8.94009,6.23555c-3.03745,0 -5.7917,-2.17319 -7.78449,-5.68681c-1.99489,-3.51151 -3.22833,-8.36344 -3.22833,-13.71674c0,-5.3533 1.23345,-10.20523 3.22833,-13.71674c1.99281,-3.51361 4.74706,-5.68681 7.78449,-5.68681z" data-paper-data="{&quot;origPos&quot;:null}" id="ID0.3999869367107749" fill="#000000"/><path d="M238.79792,144.58144c2.04161,0 5.2291,5.06903 5.2291,5.06903l-5.90442,13.66632l5.90442,10.78333c0,0 -3.18749,5.06903 -5.2291,5.06903c-2.04161,0 -3.88956,-1.9369 -5.22912,-5.06903c-1.33956,-3.12828 -2.16803,-7.4517 -2.16803,-12.22484c0,-4.7731 0.82846,-9.09656 2.16803,-12.22482c1.33956,-3.13211 3.18751,-5.06903 5.22912,-5.06903z" data-paper-data="{&quot;origPos&quot;:null}" id="ID0.31420128559693694" fill="#ffffff"/></g><path d="M282.83004,188.17895c-10.06299,0 -18.22066,-12.39141 -18.22066,-27.67695c0,-15.28554 8.15767,-27.67695 18.22066,-27.67695c10.06299,0 18.22066,12.39141 18.22066,27.67695c0,15.28556 -8.15767,27.67695 -18.22066,27.67695z" fill="#ffffff" stroke="none" stroke-width="0" stroke-linecap="butt"/><g stroke="none" stroke-width="1" stroke-linecap="butt"><path d="M284.86312,137.1717c3.89493,0 11.42361,8.15714 11.42361,8.15714l-6.23915,17.30075l5.95084,14.99433c0,0 -7.24038,9.31034 -11.13531,9.31034c-3.89493,0 -7.42672,-2.7867 -9.98211,-7.29223c-2.55807,-4.50283 -4.13971,-10.7245 -4.13971,-17.58905c0,-6.86455 1.58165,-13.08622 4.13971,-17.58905c2.55539,-4.50553 6.08718,-7.29223 9.98211,-7.29223z" data-paper-data="{&quot;origPos&quot;:null}" id="ID0.3999869367107749" fill="#3a2400"/><path d="M285.40595,142.04079c3.03745,0 8.13984,8.15517 8.13984,8.15517l-7.42824,10.41668l8.22847,13.99967c0,0 -5.90264,6.23557 -8.94007,6.23557c-3.03745,0 -5.79168,-2.17319 -7.78451,-5.68681c-1.99491,-3.51151 -3.22833,-8.36344 -3.22833,-13.71674c0,-5.35328 1.23345,-10.20523 3.22833,-13.71674c1.99281,-3.51361 4.74706,-5.68681 7.78451,-5.68681z" data-paper-data="{&quot;origPos&quot;:null}" id="ID0.3999869367107749" fill="#000000"/><path d="M288.15515,144.12013c2.04161,0 5.2291,5.06903 5.2291,5.06903l-5.90442,13.66632l5.90442,10.78333c0,0 -3.18749,5.06903 -5.2291,5.06903c-2.04161,0 -3.88956,-1.9369 -5.22912,-5.06903c-1.33956,-3.12828 -2.16803,-7.4517 -2.16803,-12.22484c0,-4.7731 0.82846,-9.09656 2.16803,-12.22482c1.33956,-3.13211 3.18751,-5.06903 5.22912,-5.06903z" data-paper-data="{&quot;origPos&quot;:null}" id="ID0.31420128559693694" fill="#ffffff"/></g><path d="M243.03626,258.14063c-20.22152,0 -36.6143,-12.17011 -36.6143,-27.18271c0,-15.0126 14.96624,10.37886 35.18776,10.37886c20.22152,0 38.04084,-25.39146 38.04084,-10.37886c0,15.0126 -16.39278,27.18271 -36.6143,27.18271z" fill="#ffffff" stroke="#e5e5e5" stroke-width="2" stroke-linecap="butt"/><g stroke="none" stroke-width="0" stroke-linecap="butt"><path d="M257.16675,239.38696c-20.6992,0 -37.4792,-14.71477 -37.4792,-32.86638c0,-18.1516 16.78,-32.86638 37.4792,-32.86638c20.6992,0 37.4792,14.71477 37.4792,32.86638c0,18.1516 -16.78,32.86638 -37.4792,32.86638z" data-paper-data="{&quot;origPos&quot;:null}" fill="#ffffff"/><path d="M265.23917,200.17795c-10.82727,0 -19.60451,-5.93754 -19.60451,-13.26187c0,-7.32434 8.77724,-13.26187 19.60451,-13.26187c10.82727,0 19.60451,5.93754 19.60451,13.26187c0,7.32434 -8.77724,13.26187 -19.60451,13.26187z" data-paper-data="{&quot;origPos&quot;:null}" fill="#000000"/><path d="M272.1584,187.49268c-6.36897,0 -11.53206,-3.35599 -11.53206,-7.49584c0,-4.13985 5.16309,-7.49584 11.53206,-7.49584c6.36897,0 11.53206,3.35599 11.53206,7.49584c0,4.13985 -5.16309,7.49584 -11.53206,7.49584z" data-paper-data="{&quot;origPos&quot;:null}" fill="#ffffff"/></g><path d="M259.20617,199.20554l-7.30365,23.83292" fill="none" stroke="#000000" stroke-width="1.5" stroke-linecap="round"/><path d="M259.37237,225.73069c0,0 -1.08115,0.37892 -1.64194,0.37892c-1.68742,0 -3.38745,-0.10863 -5.05215,-0.37892c-1.71267,-0.27788 -3.47083,-0.54817 -5.05215,-1.26304c-1.54091,-0.69721 -2.94035,-1.74047 -4.16801,-2.90497c-1.32365,-1.25799 -3.41019,-4.29431 -3.41019,-4.29431" id="ID0.4776245723478496" fill="none" stroke="#000000" stroke-width="2" stroke-linecap="round"/><path d="M260.74986,235.45678c13.2273,-6.0283 24.17535,-13.20858 37.94524,-8.5511c5.03667,1.70359 7.59626,8.9888 9.80125,13.827c2.27773,4.99779 -0.49077,17.26949 -5.31632,19.89239c-3.80442,2.06789 -15.71681,6.59107 -25.26081,7.56118c-13.31402,1.35334 -28.79806,0.1259 -40.7611,-5.8724c-14.39044,-7.21542 -16.24472,-13.54084 -22.92073,-28.18934c-6.16297,-13.52278 27.58055,9.96045 46.51246,1.33228z" data-paper-data="{&quot;index&quot;:null}" fill="#995900" stroke="#663b00" stroke-width="2" stroke-linecap="butt"/></g></g></svg>