<svg version="1.1" xmlns="http://www.w3.org/2000/svg" xmlns:xlink="http://www.w3.org/1999/xlink" width="502" height="384" viewBox="0,0,502,384"><defs><linearGradient x1="242.5" y1="-4" x2="242.5" y2="31" gradientUnits="userSpaceOnUse" id="color-1"><stop offset="0" stop-color="#ffffff"/><stop offset="1" stop-color="#ffffff" stop-opacity="0"/></linearGradient><linearGradient x1="242.5" y1="365" x2="242.5" y2="330" gradientUnits="userSpaceOnUse" id="color-2"><stop offset="0" stop-color="#ffffff"/><stop offset="1" stop-color="#ffffff" stop-opacity="0"/></linearGradient><linearGradient x1="-4" y1="183" x2="31" y2="183" gradientUnits="userSpaceOnUse" id="color-3"><stop offset="0" stop-color="#ffffff"/><stop offset="1" stop-color="#ffffff" stop-opacity="0"/></linearGradient><linearGradient x1="488" y1="182" x2="453" y2="182" gradientUnits="userSpaceOnUse" id="color-4"><stop offset="0" stop-color="#ffffff"/><stop offset="1" stop-color="#ffffff" stop-opacity="0"/></linearGradient></defs><g transform="translate(11,12)"><g data-paper-data="{&quot;isPaintingLayer&quot;:true}" fill-rule="nonzero" stroke="none" stroke-linecap="butt" stroke-linejoin="miter" stroke-miterlimit="10" stroke-dasharray="" stroke-dashoffset="0" style="mix-blend-mode: normal"><path d="M-11,372v-384h502v384z" fill="#ded5f2" stroke-width="0"/><path d="M252.91594,174.45439c-0.54653,2.18609 -2.29653,2.3664 -3.1888,2.30765c-0.16628,1.34226 -0.26136,2.7626 -0.58649,4.0469c2.39179,-0.16826 8.08766,-0.12359 8.72564,0.13396c1.43849,0.58074 2.30125,2.08093 3.45188,3.1214l0.89915,4.62668c0,0 0,3.06991 -3.06991,3.06991c-3.06991,0 -3.06991,-3.06991 -3.06991,-3.06991l0.89915,-0.28517c-2.10483,-2.58128 -5.83331,-2.58128 -7.93813,0c0,0 -0.67063,0.67063 -1.63912,0.89364c0.05333,0.61385 0.08235,1.22965 0.08235,1.84747v1.14c1.22796,0.87728 1.22796,2.54389 1.22796,2.54389c0,2.45593 0,4.91185 0,7.36778l0.75892,-1.51785c0,0 2.74581,1.3729 1.3729,4.11871c-1.3729,2.74581 -4.11871,1.3729 -4.11871,1.3729l-4.15294,-3.97378c0,-1.4531 0,-2.90618 0,-4.35928c-0.19838,0.04026 -0.40372,0.06141 -0.61398,0.06141c-0.6911,0 -1.32887,-0.22836 -1.84195,-0.61376c-0.51308,0.38538 -1.15085,0.61376 -1.84195,0.61376c-1.1087,0 -2.08013,-0.58774 -2.61972,-1.46864c-3.65237,0.75692 -7.69379,1.673 -9.67616,3.94604c-1.23733,1.41875 -1.08321,4.69514 -2.96231,4.80826c-7.0475,0.42424 -6.05862,-5.54024 -6.23115,-9.1276l4.15294,-3.97378c0,0 2.74581,-1.3729 4.11871,1.3729c0.00016,0.00031 0.00031,0.00063 0.00047,0.00093c3.4888,-1.76841 7.99935,-2.50204 11.58534,-3.44294c0.30681,-0.95398 0.5538,-2.03606 0.79416,-3.16686c-0.13008,0 -0.26016,0 -0.39023,0h-3.68389c0,0 -3.06991,0 -3.06991,-3.06991c0,-3.06991 3.06991,-3.06991 3.06991,-3.06991c0.61317,0 2.14487,0 3.6778,0c-0.14271,-0.22488 -0.26808,-0.44821 -0.37421,-0.66714c-0.08736,-0.1802 -0.14893,-0.7271 -0.18776,-1.47876l-4.16227,-4.31532c1.2518,-1.55568 2.62435,-3.01767 4.06979,-4.39839c0.15508,-2.7979 1.11448,-5.50107 4.86707,-6.24976c5.23018,-1.04349 7.83971,2.67807 8.61152,6.80265c0.24712,0.15725 0.49423,0.31452 0.74136,0.47177l0.07877,-0.14269c0,0 2.97825,0.74456 2.23369,3.72282z" fill="#000000" stroke-width="0.5"/><path d="M-3,31v-35h491v35z" fill="url(#color-1)" stroke-width="0"/><path d="M488,330v35h-491v-35z" data-paper-data="{&quot;index&quot;:null}" fill="url(#color-2)" stroke-width="0"/><path d="M31,370h-35l0,-374h35z" data-paper-data="{&quot;index&quot;:null}" fill="url(#color-3)" stroke-width="0"/><path d="M453,-5h35v374h-35z" data-paper-data="{&quot;index&quot;:null}" fill="url(#color-4)" stroke-width="0"/></g></g></svg>