<svg version="1.1" xmlns="http://www.w3.org/2000/svg" xmlns:xlink="http://www.w3.org/1999/xlink" width="232.70012" height="325.89841" viewBox="0,0,232.70012,325.89841"><defs><linearGradient x1="327.31978" y1="224.30719" x2="314.46365" y2="282.00015" gradientUnits="userSpaceOnUse" id="color-1"><stop offset="0" stop-color="#7f2626"/><stop offset="1" stop-color="#401a1a"/></linearGradient><linearGradient x1="236.39475" y1="204.89743" x2="231.38763" y2="227.36739" gradientUnits="userSpaceOnUse" id="color-2"><stop offset="0" stop-color="#3a5946"/><stop offset="1" stop-color="#5f7f7f"/></linearGradient><linearGradient x1="290.3929" y1="203.11302" x2="285.38575" y2="225.58307" gradientUnits="userSpaceOnUse" id="color-3"><stop offset="0" stop-color="#3a5946"/><stop offset="1" stop-color="#5f7f7f"/></linearGradient><linearGradient x1="310.40286" y1="193.51691" x2="295.12272" y2="262.08781" gradientUnits="userSpaceOnUse" id="color-4"><stop offset="0" stop-color="#401a1a"/><stop offset="1" stop-color="#7f2626"/></linearGradient><linearGradient x1="198.41036" y1="194.88573" x2="184.74919" y2="256.19128" gradientUnits="userSpaceOnUse" id="color-5"><stop offset="0" stop-color="#401a1a"/><stop offset="1" stop-color="#7f2626"/></linearGradient><linearGradient x1="251.89991" y1="138.60882" x2="233.51897" y2="221.09487" gradientUnits="userSpaceOnUse" id="color-6"><stop offset="0" stop-color="#7f2626"/><stop offset="1" stop-color="#401a1a"/></linearGradient><linearGradient x1="171.73698" y1="228.89645" x2="155.41458" y2="302.14461" gradientUnits="userSpaceOnUse" id="color-7"><stop offset="0" stop-color="#7f2626"/><stop offset="1" stop-color="#401a1a"/></linearGradient></defs><g transform="translate(-113.99618,-102.17488)"><g data-paper-data="{&quot;isPaintingLayer&quot;:true}" fill-rule="nonzero" stroke-linejoin="miter" stroke-miterlimit="10" stroke-dasharray="" stroke-dashoffset="0" style="mix-blend-mode: normal"><g stroke="#000000" stroke-width="0.5" stroke-linecap="round"><path d="M253.13784,279.85239l-41.22907,115.24925l-95.44305,-95.77672c0,0 63.72941,-6.39667 85.67771,-13.77269c15.96701,-5.36593 34.37412,-22.40434 34.37412,-22.40434z" fill="#804040"/><path d="M133.43197,296.30407c0,0 18.56077,31.31443 31.40124,43.46092c14.86228,14.05904 52.59709,35.99764 52.59709,35.99764c0,0 1.13593,23.26705 -5.03103,18.8205c-3.69112,-2.6614 -31.27071,-14.19801 -55.11406,-36.70931c-15.99309,-15.09961 -32.50468,-37.71245 -40.31947,-54.5489c-11.34335,-13.49166 16.46623,-7.02084 16.46623,-7.02084z" fill="#ffffff"/></g><g data-paper-data="{&quot;origRot&quot;:0,&quot;index&quot;:null}" stroke="#000000" stroke-width="0.5" stroke-linecap="butt"><path d="M214.94113,361.46966c-8.79608,-0.98651 -15.36263,-13.99355 -13.01234,-19.60281c2.35031,-5.6093 20.40357,1.03159 27.88258,4.1653c5.47999,2.2961 -4.29631,16.62335 -14.87026,15.43747z" fill="#7f2626"/><path d="M211.23404,305.71166c0,0 11.41716,-6.00321 13.12409,-5.18658c1.70693,0.81666 10.54997,10.68407 10.54997,10.68407l-1.30185,29.35432c0,0 6.32611,0.15215 6.09894,3.17456c-0.22718,3.02239 -6.64032,4.02769 -6.64032,4.02769l-31.9187,-6.56397c0,0 -4.57126,0.56712 -2.58313,-4.17779c1.98812,-4.74491 8.54094,-10.04131 8.54094,-10.04131z" fill="#ffffff"/><path d="M231.95576,265.63244l3.01314,44.20579c0,0 -12.3804,4.69308 -14.08548,4.32807c-1.70508,-0.36502 -9.3437,-10.02881 -9.3437,-10.02881l6.79162,-34.97865z" fill="#ffffff"/></g><path d="M295.20523,219.34857c0,0 21.38873,1.51958 29.75412,4.78255c7.23799,2.82319 10.22765,10.81252 10.22765,10.81252l-13.58044,-0.93694c0,0 2.84343,5.63938 4.7492,7.66332c5.47876,5.81839 14.17281,12.43171 14.17281,12.43171c0,0 -5.02516,3.33034 -8.55167,3.25323c-5.39902,-0.11802 -12.59242,-5.87569 -12.59242,-5.87569c0,0 13.21823,6.4889 18.36481,12.31078c8.13816,9.20592 8.68751,23.80312 8.68751,23.80312c0,0 -11.61339,0.10421 -19.32765,-3.36854c-10.21866,-4.6002 -26.62325,-17.31744 -26.62325,-17.31744l-2.08352,7.47498l-6.2675,-24.37871z" fill="url(#color-1)" stroke="#000000" stroke-width="0.5" stroke-linecap="round"/><g data-paper-data="{&quot;index&quot;:null,&quot;origRot&quot;:0}" stroke-linecap="butt"><g data-paper-data="{&quot;origRot&quot;:0,&quot;index&quot;:null}" stroke="#000000" stroke-width="0.5"><path d="M229.67517,416.41212c-6.52367,1.35379 -26.63417,-13.73677 -23.23062,-20.7576c3.1303,-6.45716 31.13701,-38.68723 31.13701,-38.68723c0,0 12.55946,-0.77929 15.49632,2.13118c2.50049,2.47804 3.13361,14.52686 3.13361,14.52686c0,0 -22.40268,40.5505 -26.5363,42.78681z" fill="#ffffff"/><path d="M248.62806,318.42246c0,0 9.69209,9.8406 10.77665,16.86591c1.52976,9.90913 -2.46527,36.97195 -2.46527,36.97195c0,0 -10.42507,-1.25205 -11.84449,-2.05321c-2.99914,-1.57461 -6.44142,-14.44245 -6.44142,-14.44245c0,0 2.06289,-13.36412 1.65199,-19.83397c-0.39167,-6.16697 -4.06255,-18.12009 -4.06255,-18.12009z" fill="#f3c69d"/></g><g fill="none" stroke="none" stroke-width="1" font-family="sans-serif" font-weight="normal" font-size="12" text-anchor="start"/></g><g data-paper-data="{&quot;origRot&quot;:0}" stroke="#000000" stroke-width="0.5" stroke-linecap="butt"><path d="M278.60795,423.50737c-4.12704,5.23054 -29.23256,6.59811 -31.13844,-0.96787c-1.7529,-6.95855 -1.01699,-49.65057 -1.01699,-49.65057c0,0 9.11992,-8.67039 13.24045,-8.32869c3.50835,0.29089 11.73844,9.11358 11.73844,9.11358c0,0 8.90543,45.46334 7.17651,49.83358z" fill="#ffffff"/><path d="M261.35353,329.1236l9.75813,43.03663c0,0 -8.79069,5.74228 -10.39297,6.04099c-3.30957,0.7217 -14.21809,-6.92262 -14.21809,-6.92262l1.88599,-43.3342z" fill="#f3c69d"/></g><g stroke="#000000" stroke-width="0.5"><path d="M209.77969,357.55938l11.012,-31.4046l38.33808,0.40783l8.97275,30.99677z" fill="#ffffff" stroke-linecap="butt"/><g data-paper-data="{&quot;origRot&quot;:0}" stroke-linecap="round"><path d="M223.73107,269.67191l30.59531,-0.7872l9.19218,61.13314l-48.24489,-1.39077z" fill="#ffffff"/><path d="M254.2755,269.79268l-15.75489,10.69629l-14.99096,-9.60838z" fill="#804040"/><path d="M238.60932,280.09091l2.05052,48.92817l-25.43659,-0.23611l8.52706,-57.01748z" fill="#ffffff"/></g></g><path d="M311.24091,231.85385c-6.41311,28.77941 -45.42219,44.57555 -87.12925,35.28167c-41.70703,-9.29388 -59.17195,-37.67453 -52.75885,-66.45391c6.41311,-28.77941 36.9072,-61.24728 79.02706,-54.05209c44.99043,7.68553 67.27417,56.44492 60.86107,85.22433z" data-paper-data="{&quot;origRot&quot;:0}" fill="#f3c69d" stroke="#000000" stroke-width="0.5" stroke-linecap="butt"/><path d="M208.55693,207.39329c0,0 10.95926,-6.85171 15.82895,-7.14089c9.13169,-0.54233 17.01284,5.50386 17.01284,5.50386c0,0 5.23518,6.34476 4.78809,11.20793c-0.44709,4.86317 -5.84911,11.11963 -5.84911,11.11963c0,0 -25.09336,4.34651 -29.81656,1.76437c-3.07385,-1.68046 -1.96422,-22.45489 -1.96422,-22.45489z" data-paper-data="{&quot;index&quot;:null,&quot;origRot&quot;:0}" fill="#ffffff" stroke="#000000" stroke-width="0" stroke-linecap="butt"/><path d="M245.9904,218.8286c-1.38269,6.20492 -7.92056,10.02786 -14.60277,8.53883c-6.68219,-1.48903 -10.97836,-7.72622 -9.59568,-13.93114c1.38269,-6.20492 7.92061,-10.02789 14.6028,-8.53885c6.68219,1.48903 10.97834,7.72625 9.59565,13.93117z" data-paper-data="{&quot;origRot&quot;:0}" fill="url(#color-2)" stroke="#000000" stroke-width="0.5" stroke-linecap="butt"/><path d="M296.19659,228.7275c-4.61285,2.76018 -30.00461,-3.17615 -30.00461,-3.17615c0,0 -4.7041,-5.38221 -5.13842,-8.62742c-0.63654,-4.75574 2.3944,-11.87397 2.3944,-11.87397c0,0 15.26586,-4.30243 24.40086,-4.20254c4.87148,0.05327 11.48903,4.59515 11.48903,4.59515c0,0 -0.13918,21.4886 -3.14126,23.28491z" data-paper-data="{&quot;origRot&quot;:0}" fill="#ffffff" stroke="#000000" stroke-width="0" stroke-linecap="butt"/><path d="M299.98852,217.04424c-1.38269,6.20492 -7.92056,10.02789 -14.60277,8.53883c-6.68219,-1.48906 -10.97836,-7.72622 -9.59568,-13.93117c1.38269,-6.20492 7.92064,-10.02789 14.60283,-8.53885c6.68219,1.48906 10.97831,7.72625 9.59562,13.93117z" data-paper-data="{&quot;origRot&quot;:0}" fill="url(#color-3)" stroke="#000000" stroke-width="0.5" stroke-linecap="butt"/><path d="M205.94141,209.95959l7.43921,-12.38221l24.52531,0.20016l6.37276,10.78003l-10.09235,-4.58893l-17.71322,0.73281z" data-paper-data="{&quot;origRot&quot;:0}" fill="#000000" stroke="#000000" stroke-width="0.5" stroke-linecap="round"/><path d="M259.03721,208.93469l8.42965,-11.57651l25.76414,-0.10877l8.10838,8.24182l-10.77389,-4.15583l-20.74825,1.22652z" data-paper-data="{&quot;origRot&quot;:0}" fill="#000000" stroke="#000000" stroke-width="0.5" stroke-linecap="round"/><path d="M208.28257,230.9562l36.60475,-4.12808l-2.85025,2.28985l-35.61428,4.93378z" data-paper-data="{&quot;origRot&quot;:0}" fill="#000000" stroke="#000000" stroke-width="0.5" stroke-linecap="round"/><path d="M265.17809,223.64823l32.2642,4.84967l-4.08911,2.59879l-31.14954,-4.60129z" data-paper-data="{&quot;origRot&quot;:0}" fill="#000000" stroke="#000000" stroke-width="0.5" stroke-linecap="round"/><path d="M312.18984,232.77566c-4.59287,14.97577 -12.36037,25.78355 -23.63899,27.32512c-11.27862,1.54157 10.10691,-14.18029 13.15139,-25.89167c3.80769,-14.64728 2.86164,-47.84331 2.86164,-47.84331c0,0 14.26934,24.74811 7.62595,46.40987z" data-paper-data="{&quot;origRot&quot;:0}" fill="url(#color-4)" stroke="#000000" stroke-width="0.5" stroke-linecap="round"/><path d="M194.23044,193.95429l-1.52124,29.32873l20.68955,23.4139l-12.07681,-0.184l4.72499,14.42428c0,0 -19.31563,-3.53102 -29.43425,-21.3394c-10.36024,-13.16972 -6.94056,-34.81965 -6.94056,-34.81965z" data-paper-data="{&quot;origRot&quot;:0}" fill="url(#color-5)" stroke="#000000" stroke-width="0.5" stroke-linecap="round"/><path d="M165.64582,205.97024c0,0 13.5956,-66.23616 70.37809,-68.3061c57.23398,-2.08638 74.95045,55.56228 74.95045,55.56228l-44.18999,-6.08644l-6.58126,-17.34508l-10.71614,18.08697c0,0 -23.92985,-0.60679 -38.14397,2.45984c-18.50599,3.99258 -45.69721,15.6285 -45.69721,15.6285z" data-paper-data="{&quot;origRot&quot;:0}" fill="url(#color-6)" stroke="#000000" stroke-width="0.5" stroke-linecap="round"/><path d="M196.46128,249.03086c-0.69136,4.97686 -1.6681,16.08078 -5.1411,23.9652c-3.78771,8.59884 -13.4635,18.27097 -13.4635,18.27097l-7.77775,-13.85094l-27.04213,21.97032c0,0 -2.84591,-10.08864 -2.37425,-16.03491c0.51972,-6.55254 4.91456,-15.99174 4.91456,-15.99174l-13.80549,5.69859c0,0 11.26614,-18.3822 22.58014,-25.7566c5.09343,-3.31989 19.46178,-1.6462 19.46178,-1.6462l-16.14199,-8.19346l26.7672,-5.73522c0,0 10.07157,2.0819 11.94957,4.78492c2.81394,4.05008 0.7643,7.54222 0.07294,12.51907z" fill="url(#color-7)" stroke="#000000" stroke-width="0.5" stroke-linecap="round"/><path d="M207.19392,193.74517c0,0 9.30558,-3.60608 15.99254,-3.72139c6.23758,-0.10755 17.12504,3.1504 17.12504,3.1504" fill="none" stroke="#000000" stroke-width="0.5" stroke-linecap="round"/><path d="M258.58329,193.74517c0,0 10.88743,-3.25791 17.12502,-3.1504c6.68698,0.11528 15.99254,3.72136 15.99254,3.72136" data-paper-data="{&quot;index&quot;:null}" fill="none" stroke="#000000" stroke-width="0.5" stroke-linecap="round"/><g data-paper-data="{&quot;index&quot;:null,&quot;origRot&quot;:0}" stroke="#000000"><g><path d="M204.55907,161.59168l0.60245,45.0748c0,0 -4.81304,2.67076 -7.75534,2.45898c-1.45055,-0.10441 -3.94696,-2.71775 -3.94696,-2.71775l5.28868,-34.6634l-4.89898,32.80048c0,0 -4.22061,3.36826 -6.19207,2.6001c-2.69423,-1.04983 3.53268,-15.77196 2.34273,-17.47735c-0.7737,-1.10881 -3.84421,16.37847 -3.84421,16.37847c0,0 -4.02419,0.11388 -7.18229,-2.17474c-1.75423,-1.27126 -11.28878,-6.4714 -11.73393,-8.59161c-3.04702,-14.5121 24.3097,-32.13527 24.3097,-32.13527z" data-paper-data="{&quot;index&quot;:null,&quot;origRot&quot;:0}" fill="#ffffff" stroke-width="0.025" stroke-linecap="round"/><g data-paper-data="{&quot;origRot&quot;:0}" fill="#8ceeff" stroke-width="0.015" stroke-linecap="butt"><path d="M180.03436,128.59543c3.1478,-2.82981 8.18267,3.20949 11.11826,6.47497c2.93559,3.26548 -0.05153,15.36065 -3.19933,18.19049c-3.1478,2.82981 -8.67124,-5.46714 -9.73223,-9.64732c-1.08029,-4.25607 -1.3345,-12.18827 1.8133,-15.01811z" data-paper-data="{&quot;origRot&quot;:0}"/><path d="M175.30922,146.98294c4.30837,0.19345 13.5512,3.92423 11.41666,7.57942c-2.13454,3.65518 -13.37533,9.02737 -17.16713,6.81306c-3.79185,-2.21431 -10.72484,-5.92337 -8.59027,-9.57855c2.13454,-3.65518 9.95417,-5.01089 14.34077,-4.81393z" data-paper-data="{&quot;origRot&quot;:0,&quot;index&quot;:null}"/><path d="M187.70088,149.24082c1.75041,-1.40436 7.83194,-0.59954 9.38569,1.33709c1.55373,1.93661 -2.65637,4.56966 -4.40678,5.97398c-1.75041,1.40436 -3.78123,0.67488 -5.33499,-1.26172c-1.55373,-1.93661 -1.39431,-4.645 0.3561,-6.04935z" data-paper-data="{&quot;origRot&quot;:0}"/><path d="M187.93775,154.40502c2.21088,1.12985 3.33611,2.97113 2.31489,4.96944c-1.02122,1.9983 -2.7481,6.65401 -4.95899,5.52416c-2.21088,-1.12985 -4.22934,-6.9228 -3.20812,-8.92111c1.02122,-1.9983 3.64134,-2.70234 5.85222,-1.57249z" data-paper-data="{&quot;origRot&quot;:0,&quot;index&quot;:null}"/></g><path d="M208.76572,153.84091c14.64845,-2.19013 27.16253,0.30939 27.95098,5.58282c0.78843,5.27343 -10.44731,11.32387 -25.09576,13.514c-14.64845,2.19013 -27.16256,-0.30939 -27.95098,-5.58282c-0.78843,-5.27343 10.44731,-11.32387 25.09576,-13.514z" data-paper-data="{&quot;origRot&quot;:0}" fill="#ffffff" stroke-width="0.5" stroke-linecap="butt"/><path d="M192.21889,162.00822c0,0 -8.63247,-41.75436 -8.41635,-51.0497c0.10892,-4.68451 12.66002,-6.90022 20.16027,-7.69416c9.58751,-1.01485 23.26008,-2.06968 23.62488,3.05932c1.45435,20.44882 -1.6689,52.50339 -1.6689,52.50339z" data-paper-data="{&quot;origRot&quot;:0}" fill="#ffffff" stroke-width="0.5" stroke-linecap="butt"/><path d="M227.05481,105.26849c0,0 -14.35941,6.81035 -23.46138,7.78711c-7.5059,0.80547 -19.09414,-3.22031 -19.09414,-3.22031" fill="none" stroke-width="0.5" stroke-linecap="round"/><path d="M222.67033,161.46966c1.62622,-0.76042 3.5049,-0.17838 4.1962,1.30001c0.6913,1.47839 -0.06661,3.29329 -1.69285,4.05371c-1.62622,0.76042 -3.5049,0.17838 -4.1962,-1.30001c-0.6913,-1.47839 0.06663,-3.29329 1.69285,-4.05371z" fill="#fff08d" stroke-width="0.5" stroke-linecap="butt"/><path d="M211.5404,162.43324c1.84796,-0.86411 3.9905,-0.18634 4.78543,1.51376c0.79496,1.70013 -0.05864,3.77883 -1.9066,4.64297c-1.84796,0.86411 -3.99053,0.18634 -4.78546,-1.51379c-0.79496,-1.70013 0.05864,-3.77883 1.90663,-4.64294z" fill="#8ceeff" stroke-width="0.5" stroke-linecap="butt"/><path d="M198.01001,164.19304c1.99582,-0.93323 4.31419,-0.19168 5.17831,1.65628c0.86411,1.84796 -0.05333,4.10255 -2.04912,5.03579c-1.99582,0.93323 -4.31422,0.19168 -5.17833,-1.65631c-0.86411,-1.84796 0.05336,-4.10255 2.04915,-5.03579z" fill="#ff8c8c" stroke-width="0.5" stroke-linecap="butt"/></g><path d="M225.89519,155.96783l-33.99446,2.93881l-0.82882,-6.26596l35.27822,-3.18891z" fill="#ff8c8c" stroke-width="0.5" stroke-linecap="round"/></g><path d="M261.125,249.31575c0,6.14417 -3.18997,11.125 -7.125,11.125c-3.93503,0 -7.125,-4.98083 -7.125,-11.125c0,-6.14417 3.18997,-11.125 7.125,-11.125c3.93503,0 7.125,4.98083 7.125,11.125z" fill="#ffa6a6" stroke="#000000" stroke-width="0.5" stroke-linecap="butt"/><g data-paper-data="{&quot;origRot&quot;:0}" stroke="#000000" stroke-width="0.5" stroke-linecap="butt"><path d="M275.39686,343.92113c-8.88012,5.86158 -24.09951,-2.45805 -20.26149,-6.9937c5.23805,-6.19021 18.3016,-20.30989 22.94428,-16.38135c4.64265,3.92853 4.70427,18.49902 -2.68279,23.37507z" fill="#7f2626"/><path d="M266.7057,309.63941c0,0 8.244,1.74005 12.17126,5.06322c3.92726,3.32318 -0.40243,4.89536 -0.40243,4.89536l-25.4495,20.35219c0,0 -6.16952,2.0189 -7.74539,-0.57014c-1.57586,-2.58903 3.99015,-5.59943 3.99015,-5.59943l-14.49945,-25.55653c0,0 3.39304,-12.80834 4.54242,-14.31145c1.14938,-1.50316 14.04759,-1.34403 14.04759,-1.34403z" fill="#ffffff"/><path d="M230.42716,263.23348l21.94554,28.07178c0,0 -2.41268,12.07958 -3.76569,13.17959c-1.35296,1.10001 -14.51386,2.54567 -14.51386,2.54567l-10.94236,-19.28683z" fill="#ffffff"/></g></g></g></svg>