<svg version="1.1" xmlns="http://www.w3.org/2000/svg" xmlns:xlink="http://www.w3.org/1999/xlink" width="272.61338" height="414.96463" viewBox="0,0,272.61338,414.96463"><defs><radialGradient cx="279.67613" cy="138.97358" r="37.53185" gradientUnits="userSpaceOnUse" id="color-1"><stop offset="0" stop-color="#ffdccc"/><stop offset="1" stop-color="#ffe8da"/></radialGradient><linearGradient x1="31.10285" y1="163.08964" x2="544.6948" y2="120.7355" gradientUnits="userSpaceOnUse" id="color-2"><stop offset="0" stop-color="#000000"/><stop offset="1" stop-color="#000000" stop-opacity="0"/></linearGradient><linearGradient x1="340.1356" y1="137.83922" x2="360.36808" y2="139.44737" gradientUnits="userSpaceOnUse" id="color-3"><stop offset="0" stop-color="#ffe8da"/><stop offset="1" stop-color="#fde2d1"/></linearGradient><linearGradient x1="220.70496" y1="66.69576" x2="225.71074" y2="102.23611" gradientUnits="userSpaceOnUse" id="color-4"><stop offset="0" stop-color="#d2a991"/><stop offset="1" stop-color="#fde6d9"/></linearGradient><radialGradient cx="171.32092" cy="128.16329" r="37.53374" gradientUnits="userSpaceOnUse" id="color-5"><stop offset="0" stop-color="#ffdccc"/><stop offset="1" stop-color="#ffe8da"/></radialGradient><linearGradient x1="297.21992" y1="-85.26348" x2="31.05959" y2="351.29846" gradientUnits="userSpaceOnUse" id="color-6"><stop offset="0" stop-color="#000000"/><stop offset="1" stop-color="#000000" stop-opacity="0"/></linearGradient><linearGradient x1="136.87975" y1="177.28127" x2="123.74951" y2="192.54497" gradientUnits="userSpaceOnUse" id="color-7"><stop offset="0" stop-color="#ffe8da"/><stop offset="1" stop-color="#fde2d1"/></linearGradient><linearGradient x1="221.12417" y1="18.37564" x2="231.19583" y2="89.88304" gradientUnits="userSpaceOnUse" id="color-8"><stop offset="0" stop-color="#f7d9c8"/><stop offset="1" stop-color="#fde6d9"/></linearGradient><linearGradient x1="3.32464" y1="-1640.2547" x2="426.04824" y2="1361.02578" gradientUnits="userSpaceOnUse" id="color-9"><stop offset="0" stop-color="#2a221e"/><stop offset="1" stop-color="#2a221e" stop-opacity="0"/></linearGradient><radialGradient cx="210.71004" cy="72.49161" r="7.94614" gradientUnits="userSpaceOnUse" id="color-10"><stop offset="0" stop-color="#fbe2d4"/><stop offset="1" stop-color="#f6d8c8"/></radialGradient></defs><g transform="translate(-108.79545,-13.79077)"><g data-paper-data="{&quot;isPaintingLayer&quot;:true}" fill-rule="nonzero" stroke-linejoin="miter" stroke-miterlimit="10" stroke-dasharray="" stroke-dashoffset="0" style="mix-blend-mode: normal"><g data-paper-data="{&quot;origRot&quot;:0}" stroke="none" stroke-width="0" stroke-linecap="butt"><path d="M346.68182,143.98979l-8.89536,0.65733l-1.12953,-12.4648l8.72704,-0.24703c0,0 2.32749,0.82903 2.52588,3.01844c0.1313,1.44893 -1.22805,9.03606 -1.22805,9.03606z" data-paper-data="{&quot;origPos&quot;:null}" fill="#000000"/><g><path d="M282.02647,126.97875c8.1335,1.21497 18.73702,2.29563 18.73702,2.29563c0,0 7.92662,-0.07048 13.86248,0.15779c5.93587,0.22825 12.57466,1.18737 17.84464,1.88396c1.19161,0.15752 18.81911,4.06228 19.91341,3.51591c2.79332,-1.3947 2.80478,10.57717 -0.20704,9.11835c-1.29477,-0.6271 -25.95508,-0.19668 -27.34392,0.11362c-7.12746,1.59252 -11.45672,1.02031 -18.71305,1.51849c-9.24603,0.6348 -14.88275,2.85213 -23.67937,0.21289c0,0 -2.22195,-0.04546 -3.40028,-0.71606c0,0 -0.3479,-6.15504 0.41089,-9.66604z" data-paper-data="{&quot;origRot&quot;:0,&quot;origPos&quot;:null}" fill="url(#color-1)"/><g data-paper-data="{&quot;origPos&quot;:null}"><path d="M344.66715,143.82062l-6.95691,1.28156l-1.25624,-12.85572l9.96614,-0.16255c0,0 -3.02496,2.41805 -3.13904,5.46421z" data-paper-data="{&quot;origPos&quot;:null}" fill="url(#color-2)"/><path d="M342.07655,144.86288c0,0 -39.94686,5.61472 -54.29848,4.49519c-8.75036,-0.6826 -9.7287,-3.95339 -9.4962,-12.44382c-0.01758,-8.04366 2.49919,-10.36029 8.54063,-10.76197c6.04144,-0.40168 59.03731,6.26892 59.03731,6.26892c0,0 -5.38865,0.89704 -5.55006,4.33579c-0.1713,3.64987 1.76683,8.1059 1.76683,8.1059z" data-paper-data="{&quot;origPos&quot;:null,&quot;origRot&quot;:0}" fill="#1e4994"/></g></g></g><g data-paper-data="{&quot;origPos&quot;:null,&quot;origRot&quot;:0}" stroke="none" stroke-width="0" stroke-linecap="butt"><path d="M267.63632,112.95976c21.11124,10.80289 20.21986,10.66252 26.63471,15.87993c7.79933,6.34344 -4.03751,21.29246 -13.04234,16.67738c-4.96922,-2.5468 -17.37366,-6.57269 -22.33234,-9.13909c-16.97453,-8.78523 -32.58157,-15.089 -25.58446,-27.87173c8.09752,-14.79305 34.32444,4.45351 34.32444,4.45351z" data-paper-data="{&quot;origPos&quot;:null,&quot;origRot&quot;:0}" fill="#2152a6"/><path d="M250.10939,115.49619c14.95995,7.73946 29.79209,15.71142 44.60561,23.71755c-2.79856,4.89123 -8.87681,8.65374 -14.02819,6.01359c-4.96922,-2.5468 -17.37365,-6.5727 -22.33234,-9.13909c-8.77406,-4.54105 -19.11215,-9.21637 -25.30683,-16.82662c0,0 -2.54536,-7.73173 0.28674,-10.88435c0.66396,-0.73909 12.44539,4.87902 16.77499,7.11893z" data-paper-data="{&quot;origPos&quot;:null,&quot;origRot&quot;:0}" fill="#000000"/></g><g data-paper-data="{&quot;origRot&quot;:0}" stroke-linecap="butt"><path d="M361.996,129.29093c0,0 11.50766,0.6496 11.30749,3.11724c-0.2848,3.51073 -8.38677,2.14219 -9.67745,1.68777c-1.0255,1.28325 -11.1763,3.09548 -10.9761,0.62783c0.2002,-2.46765 9.34608,-5.43283 9.34608,-5.43283z" data-paper-data="{&quot;origPos&quot;:null}" fill="#f8ddcc" stroke="none" stroke-width="0"/><path d="M360.20725,147.45092c-5.58891,-1.34978 -13.01323,-4.54889 -13.01323,-4.54889c0,0 -0.94192,-0.24319 -0.96173,-3.99806c-0.01489,-2.81985 1.35533,-3.43042 1.35533,-3.43042c0,0 5.59937,-2.85904 12.8788,-3.99367c7.27942,-1.13463 5.32975,17.32082 -0.25915,15.97103z" data-paper-data="{&quot;origPos&quot;:null}" fill="url(#color-3)" stroke="#000000" stroke-width="0"/><path d="M359.33444,147.4472c-0.93104,-0.31767 -0.5765,-1.63842 -0.5765,-1.63842c-0.00862,-0.49807 -0.09663,-1.72653 0.68348,-2.00547c0.23403,-0.08369 4.51309,0.55984 6.90917,0.58781c6.95186,0.08114 8.32964,0.22309 8.35483,1.67923c0.0252,1.45612 -1.01524,1.67009 -7.9671,1.58895c-6.95186,-0.08114 -6.13838,0.21971 -7.4039,-0.21209z" data-paper-data="{&quot;origPos&quot;:null,&quot;origRot&quot;:0,&quot;index&quot;:null}" fill="#fde2d1" stroke="#000000" stroke-width="0"/><path d="M380.46219,136.09471c-0.30032,1.81764 -1.81242,1.05513 -10.5531,0.50346c-7.19973,-0.4544 -8.43893,-0.37866 -8.7149,-0.52819c-0.91993,-0.4984 -0.58101,-2.07751 -0.47828,-2.69924c0,0 -0.16889,-1.9964 1.04921,-2.21578c1.65567,-0.2982 0.59872,-0.07014 9.23046,1.42706c8.64685,1.49984 9.76694,1.69506 9.46662,3.5127z" data-paper-data="{&quot;origPos&quot;:null,&quot;origRot&quot;:0}" fill="#fde2d1" stroke="#000000" stroke-width="0"/><path d="M362.2488,138.48395c0.02538,0.33856 -0.29415,0.36925 -0.29415,0.36925l-0.30838,-0.01987c-1.22694,-0.09753 -2.59266,0.14831 -3.80233,0.41253c0,0 -0.31464,0.06873 -0.37593,-0.26421c-0.06129,-0.33293 0.25334,-0.40166 0.25334,-0.40166c1.26303,-0.27587 2.69887,-0.52649 3.97991,-0.42467l0.20262,0.02075c0,0 0.31954,-0.0307 0.34492,0.30788z" data-paper-data="{&quot;origPos&quot;:null}" fill="#f8ddcc" stroke="none" stroke-width="0.5"/><g><path d="M370.34885,144.55425c-8.76211,0.01563 -7.75959,0.41912 -9.3401,-0.15473c-1.1628,-0.42219 -0.6548,-2.36093 -0.6548,-2.36093c0.00516,-0.63005 -0.05866,-2.24344 0.93315,-2.57901c0.29755,-0.10068 1.50573,0.18353 8.67828,0.95332c8.7077,0.93455 10.32821,0.43885 10.31316,2.28079c-0.01505,1.84192 -1.15222,1.84492 -9.92967,1.86059z" data-paper-data="{&quot;origPos&quot;:null,&quot;origRot&quot;:0,&quot;index&quot;:null}" fill="#fde2d1" stroke="#000000" stroke-width="0"/><path d="M364.5631,144.81677c-0.03305,-0.33773 0.28579,-0.37655 0.28579,-0.37655l0.16542,0.03146c1.14443,-0.38181 2.25087,-0.35597 3.43236,-0.46948c0,0 0.31956,-0.03069 0.34493,0.30788c0.02538,0.33856 -0.29418,0.36925 -0.29418,0.36925c-1.13768,0.10928 -2.20234,0.07552 -3.29696,0.4407l-0.28546,-0.00438c0,0 -0.31884,0.03882 -0.3519,-0.2989z" data-paper-data="{&quot;origPos&quot;:null}" fill="#f8ddcc" stroke="none" stroke-width="0.5"/></g><g data-paper-data="{&quot;origPos&quot;:null}"><path d="M371.5903,140.83211c-8.76193,-0.00249 -7.76019,0.40307 -9.33961,-0.17408c-1.16199,-0.42461 -0.65044,-2.36234 -0.65044,-2.36234c0.00631,-0.63004 -0.05453,-2.2436 0.93787,-2.57714c1.26213,-0.27095 5.24618,0.59597 8.67632,0.9713c8.70578,0.9526 10.21265,0.8151 10.19422,2.65704c-0.01843,1.84195 -1.04107,1.48773 -9.81835,1.48523z" data-paper-data="{&quot;origPos&quot;:null,&quot;origRot&quot;:0,&quot;index&quot;:null}" fill="#fde2d1" stroke="#000000" stroke-width="0"/><g data-paper-data="{&quot;origRot&quot;:0,&quot;origPos&quot;:null}" fill="#f8ddcc" stroke="none" stroke-width="0.5"><path d="M370.9017,140.46791c-0.01939,0.33954 -0.33935,0.32276 -0.33935,0.32276l-0.30665,-0.01198c-0.88152,-0.03455 -1.75678,-0.08314 -2.6378,-0.14236c0,0 -0.31967,-0.0215 -0.29585,-0.36076c0.02382,-0.33926 0.34349,-0.31779 0.34349,-0.31779c0.87532,0.05883 1.74493,0.10713 2.62097,0.14147l0.3146,0.01234c0,0 0.31998,0.01678 0.30058,0.35633z" data-paper-data="{&quot;origPos&quot;:null}"/><path d="M364.68653,140.7865c-0.04268,-0.33639 0.275,-0.38543 0.275,-0.38543l0.13041,-0.02457c0.85308,-0.23855 1.70338,-0.15091 2.54351,-0.38584c0,0 0.31079,-0.08692 0.38927,0.24174c0.07847,0.32866 -0.23231,0.41556 -0.23231,0.41556c-0.8462,0.23663 -1.69008,0.1472 -2.5435,0.38584l-0.202,0.04009c0,0 -0.3177,0.04903 -0.36037,-0.28739z" data-paper-data="{&quot;origPos&quot;:null}"/></g><g data-paper-data="{&quot;origPos&quot;:null}" fill="#f8ddcc" stroke="none" stroke-width="0.5"><path d="M370.64,136.80623c-0.02749,0.33902 -0.34687,0.31363 -0.34687,0.31363c-0.77823,-0.06185 -1.60946,-0.12794 -2.40467,-0.19114l-0.45087,-0.03584c-0.04037,-0.00321 -0.07833,-0.01422 -0.11271,-0.03156c-0.08894,-0.04032 -0.19554,-0.13099 -0.17917,-0.33283c0.01638,-0.20184 0.13624,-0.27452 0.23052,-0.30028c0.03673,-0.01168 0.07599,-0.01655 0.11634,-0.01335c0.15029,0.01194 0.3006,0.02389 0.45088,0.03584c0.77651,0.06172 1.553,0.12344 2.32952,0.18517l0.07515,0.00598c0,0 0.31936,0.02538 0.29186,0.36439z" data-paper-data="{&quot;origPos&quot;:null}"/><path d="M365.22838,135.73133c0.10414,-0.32272 0.51678,-0.14913 0.51678,-0.14913l0.14058,0.1316c0.06948,0.25221 1.4259,0.48665 1.73207,0.51099c0.04037,0.00321 0.07833,0.01422 0.11272,0.03156c0.08894,0.04032 0.19554,0.131 0.17915,0.33283c-0.01638,0.20184 -0.13622,0.27452 -0.23051,0.30027c-0.03673,0.01168 -0.07598,0.01654 -0.11636,0.01333l-0.37573,-0.02988l0.00125,-0.01538c-0.59345,-0.09401 -1.30498,-0.30575 -1.72983,-0.6318l-0.14058,-0.1316c0,0 -0.19367,-0.04009 -0.08953,-0.36282z" data-paper-data="{&quot;origPos&quot;:null}"/></g></g></g><path d="M316.67316,285.65234c2.04806,6.7035 1.64229,10.20911 2.97625,16.86827c1.05989,5.29098 1.60659,10.18093 2.82829,15.43477c2.3527,10.11753 4.67834,13.34076 7.17494,28.05308c0.27153,1.60012 6.8108,17.98011 10.17825,30.96896c1.90671,4.14158 -21.54038,4.8078 -21.54038,4.8078c0,0 -10.00387,-22.26513 -18.19886,-37.11485c-3.55415,-6.44024 -7.99901,-21.37629 -9.87214,-29.80688c-2.11677,-9.52691 -2.03861,-16.56569 3.70261,-24.8907c4.54848,-6.59549 6.27555,-9.9475 12.86269,-11.19842c6.58714,-1.25091 7.84029,0.17446 9.88834,6.87796z" fill="#252525" stroke="none" stroke-width="0" stroke-linecap="butt"/><path d="M266.51153,206.96149c0,0 9.24754,5.79841 11.38252,8.86076c8.27417,11.86802 26.12961,43.86656 32.7476,57.84465c0.34545,0.7296 4.81085,8.50246 5.12537,9.24704c3.33035,7.88409 -9.98008,16.14708 -13.86596,18.99019c-5.66476,4.14461 -9.69087,2.91916 -9.69087,2.91916c0,0 -2.39326,-7.57848 -6.69661,-12.94023c-4.98089,-6.2059 -8.00863,-10.78944 -12.88177,-17.07929c-7.68883,-9.92413 -10.05856,-14.4243 -18.75559,-23.4975c-8.24572,-8.60235 -13.72877,-13.26132 -20.82908,-22.88597c-2.20425,-2.98792 6.76372,-8.23829 16.10337,-11.97209z" data-paper-data="{&quot;origRot&quot;:0}" fill="#0f0f0f" stroke="none" stroke-width="0" stroke-linecap="butt"/><path d="M317.33463,380.15796c0,0 15.89002,-6.42844 19.86806,-4.26011c3.0328,1.6531 4.24594,10.6656 8.50028,11.83587c4.25432,1.17026 20.62938,-0.73438 22.6673,6.16647c1.77216,6.0009 2.32791,10.0527 -1.90823,10.99144c-4.16593,0.92319 -37.93283,10.62119 -39.47008,10.42687c-4.49595,-5.26171 -6.48023,-18.74459 -5.19028,-24.49749z" data-paper-data="{&quot;origRot&quot;:0}" fill="#000000" stroke="none" stroke-width="0" stroke-linecap="butt"/><path d="M272.89753,299.44022c-0.75547,6.96855 -2.50817,10.03156 -3.90266,16.6783c-1.10797,5.28112 -2.5299,9.9916 -3.4745,15.30226c-1.81904,10.22695 -0.94963,14.10535 -4.44473,28.61293c-0.38013,1.57785 -0.81514,19.20955 -2.83137,32.47548c0.12286,4.55775 -21.6942,-4.05768 -21.6942,-4.05768c0,0 -0.43382,-24.40544 -2.12317,-41.28199c-0.73268,-7.31928 1.05943,-22.79929 2.65543,-31.2867c1.80349,-9.59115 4.64554,-16.03113 13.19985,-21.42476c6.77715,-4.27311 9.68406,-6.6749 16.23192,-5.23241c6.54786,1.4425 7.1389,3.24602 6.38343,10.21457z" fill="#252525" stroke="none" stroke-width="0" stroke-linecap="butt"/><path d="M264.12873,212.65822c0,0 5.59614,9.37132 6.10379,13.06976c1.96747,14.33321 3.30657,50.95192 2.83909,66.41046c-0.02438,0.80688 0.41496,9.76032 0.35621,10.56646c-0.62201,8.53599 -16.23454,9.83716 -20.98854,10.60062c-6.93027,1.11295 -9.95777,-1.81032 -9.95777,-1.81032c0,0 1.31739,-7.83744 -0.0748,-14.57012c-1.61139,-7.79268 -2.22181,-13.25193 -3.69906,-21.07034c-2.33079,-12.33588 -2.3932,-17.42147 -6.00898,-29.45839c-3.42815,-11.41227 -6.19062,-18.05596 -8.13363,-29.85737c-0.60319,-3.66368 9.77165,-4.25818 19.78737,-3.3331z" data-paper-data="{&quot;origPos&quot;:null,&quot;origRot&quot;:0}" fill="#0f0f0f" stroke="none" stroke-width="0" stroke-linecap="butt"/><path d="M236.31177,386.57937c0,0 17.13765,0.34406 19.94129,3.90301c2.13745,2.71329 -0.29429,11.4759 3.15614,14.22608c3.45042,2.75016 19.25357,7.44383 18.41111,14.58982c-0.73258,6.21407 -1.81632,10.1576 -6.08005,9.3534c-4.19307,-0.79086 -39.05168,-5.1649 -40.38838,-5.94853c-2.06231,-6.60651 1.4199,-19.78224 4.86988,-24.56319z" data-paper-data="{&quot;origRot&quot;:0}" fill="#000000" stroke="none" stroke-width="0" stroke-linecap="butt"/><g stroke-linecap="butt"><g data-paper-data="{&quot;origPos&quot;:null,&quot;index&quot;:null}" stroke="none"><path d="M241.48056,88.09319c0.34773,1.19736 1.53711,2.0968 3.04353,2.84614c0.45048,1.12625 0.9516,1.90165 0.9516,1.90165l0.26386,0.23643c0.01745,0.03698 0.03504,0.07388 0.05275,0.11076c0.18535,2.57158 0.69745,5.09404 1.32729,7.67357c-15.83069,7.61517 -39.10791,6.53562 -42.78958,5.68863c-3.71843,-0.85546 1.90113,-11.36717 1.98525,-15.41554c0.08414,-4.04839 -0.73635,-4.91664 5.17788,-8.9627c5.91422,-4.04607 4.39345,-1.245 11.00301,-2.10705c6.60956,-0.86203 12.72276,-0.4701 14.58136,0.31585c1.85858,0.78596 2.76533,2.07273 4.40303,7.71227z" data-paper-data="{&quot;origPos&quot;:null}" fill="#000000" stroke-width="0"/><g data-paper-data="{&quot;origPos&quot;:null}"><path d="M244.3609,102.43826c-13.37423,7.50746 -33.44934,6.15314 -37.07632,5.11274c-3.62696,-1.04038 1.4212,-11.30456 1.41766,-15.3415c-0.00355,-4.03696 -2.04558,-3.91161 2.91142,-7.50796c4.957,-3.59632 5.03557,-1.65632 10.74673,-2.40116c5.71115,-0.74487 10.47155,-0.28909 12.31887,0.55208c1.7627,0.80265 2.54331,1.87035 3.27492,3.92629c0.41432,1.16431 0.59753,1.84055 0.91866,3.04054c0.65435,2.44537 4.2691,3.73169 7.08087,5.01092c0.24244,1.96435 0.65156,3.9131 1.13246,5.89443c-0.71392,0.52101 -1.61344,1.08948 -2.72527,1.71359z" data-paper-data="{&quot;origPos&quot;:null}" fill="#09162e" stroke-width="0"/><g data-paper-data="{&quot;origPos&quot;:null}" fill="none" stroke-width="1" font-family="sans-serif" font-weight="normal" font-size="12" text-anchor="start"/></g></g><g data-paper-data="{&quot;origPos&quot;:null,&quot;index&quot;:null}"><path d="M267.38987,168.95841c2.63484,22.81227 3.53048,43.90937 3.53048,43.90937c0.09348,7.14856 -4.13734,14.53878 -8.50079,13.90191c-3.70107,-0.5402 -9.51378,-4.48972 -9.51378,-4.48972c0,0 -3.99919,-36.8757 -7.71461,-65.19377c-2.16938,-16.53456 -7.95587,-29.22059 -10.17309,-45.74917c-1.17561,-8.76376 3.40973,-13.31591 9.21082,-16.93953c2.18368,2.33405 4.26364,4.76872 6.39017,7.15751c2.39899,2.69482 5.47761,6.33335 8.9417,9.86929c0.46039,1.30558 0.82749,2.75254 1.05051,4.41512c0,0 4.53518,33.69554 6.7786,53.119z" data-paper-data="{&quot;origPos&quot;:null}" fill="#255dbc" stroke="#000000" stroke-width="0"/><path d="M240.88614,140.22024c0,0 -2.64844,-9.57609 -3.96164,-15.75468c-0.93482,-4.39831 -1.79866,-11.3473 -1.79866,-11.3473l23.32729,-2.59498c0,0 3.07592,4.65988 3.70793,7.81531c1.18415,5.91199 1.95512,9.60465 1.70885,15.56684c-0.3422,8.28476 1.99911,20.58761 1.99911,20.58761l-5.42642,-10.39604z" data-paper-data="{&quot;origPos&quot;:null}" fill="#09162e" stroke="none" stroke-width="0"/><path d="M242.84388,112.95451l-2.97075,-15.35785c0,0 2.06329,-2.00349 4.09709,-3.47468c2.27847,2.41754 4.4385,4.95007 6.64885,7.43299c2.32124,2.60748 5.27878,6.0985 8.60612,9.52521c0.08151,0.25184 0.12226,0.39457 0.12226,0.39457z" data-paper-data="{&quot;origPos&quot;:null}" fill="#09162e" stroke="none" stroke-width="0"/><path d="M244.44128,136.44869c-1.04359,0.4781 -1.49237,-0.91565 -1.49237,-0.91565l-0.75097,-1.05827c-0.63305,-1.85855 -1.3511,-3.71533 -1.44956,-5.73626c-0.06781,-1.39164 0.2349,-2.51687 0.42594,-3.44667c0.02822,-0.13735 0.38645,0.14713 0.33553,0.01316c-0.66189,-1.74114 -2.19377,-1.7159 -2.91786,-4.10275c-0.0879,-0.28975 0.08872,-0.84129 0.35283,-1.38264l-0.39942,-0.0714c-0.14776,-0.02225 -0.29025,-0.08131 -0.42073,-0.17053c-0.31286,-0.19512 -0.69277,-0.60552 -0.66806,-1.4438c0.00075,-0.03729 0.00259,-0.07423 0.00551,-0.11077c0.05804,-0.82717 0.46935,-1.09467 0.79469,-1.17537c0.04194,-0.01258 0.08508,-0.0221 0.12926,-0.02833l1.19156,-0.16783l0.04868,0.3456l0.28344,0.05066l-0.00478,0.09856c0.13117,0.05226 0.26324,0.11261 0.40341,0.18424l0.03581,-0.08978l1.34481,0.99544c0.31479,0.22755 0.55539,0.63247 0.62376,1.11786c0.0982,0.69723 -0.19098,1.33301 -0.66759,1.55112l-1.11491,0.54789c-0.07362,0.12678 0.26629,-0.13796 0.39251,-0.0897c0.02504,-0.04834 0.06019,-0.08266 0.11052,-0.09659c0.96079,-0.26583 2.25879,3.25212 2.37525,3.71019c0.37498,1.47506 -0.41164,2.31587 -0.6356,3.57581c-0.08819,0.49611 1.11837,3.80774 1.49242,4.90586l0.77076,1.11797c0,0 0.44879,1.39378 -0.59479,1.87188zM240.77487,122.23115c0.01418,-0.02832 0.02551,-0.05994 0.03468,-0.09399c-0.04985,0.12487 -0.08052,0.18549 -0.03468,0.09399z" data-paper-data="{&quot;origPos&quot;:null}" fill="#ffffff" stroke="none" stroke-width="0.5"/><path d="M235.1319,113.99066l0.13053,-1.01448l22.71649,-3.19957c0.26388,0.2801 0.53046,0.56056 0.79958,0.8409l0.00588,0.04176z" data-paper-data="{&quot;origPos&quot;:null}" fill="#ffffff" stroke="none" stroke-width="0"/><path d="M258.01868,110.15063l0.18122,-0.14005c0.41854,0.44203 0.84367,0.88462 1.27484,1.32574l2.0487,4.13558l0.70172,3.19163l-1.32989,-2.70607z" data-paper-data="{&quot;origPos&quot;:null,&quot;origRot&quot;:0}" fill="#ffffff" stroke="none" stroke-width="0"/></g><g data-paper-data="{&quot;origPos&quot;:null}" stroke="none" stroke-width="0"><path d="M223.9798,199.24203c4.78321,-13.41299 -13.7475,-42.6548 -16.61987,-70.7254c-1.39872,-13.66922 -2.50901,-22.68945 5.56179,-30.51401c8.07082,-7.82453 24.93519,-2.72557 24.93519,-2.72557c0,0 6.76357,4.94059 10.23447,8.22366c3.62534,3.42918 7.94881,8.97569 7.94881,8.97569c0,0 3.18422,13.2532 4.02718,17.39314c0.61253,3.00815 0.43236,6.10619 0.43236,6.10619l1.29986,19.81991c0,0 3.22513,15.33816 4.29815,28.61217c0,0 0.52887,9.22346 -15.8599,12.71756c-19.91531,4.24593 -26.25801,2.11669 -26.25801,2.11669z" data-paper-data="{&quot;origPos&quot;:null}" fill="#b2bbc1"/><path d="M250.64753,232.64501c-12.03716,1.69541 -24.73102,5.14947 -26.5137,-7.50731c-1.78268,-12.65678 1.63241,-40.67467 13.66958,-42.37008c0,0 26.33615,-14.37735 28.16629,-5.08986c0,0 2.71677,18.80279 3.14136,24.60024c0.82617,11.28093 0.45868,24.47173 0.45868,24.47173z" data-paper-data="{&quot;origPos&quot;:null}" fill="#b2bbc1"/><path d="M248.87267,237.65187c-6.89832,0.97161 -11.29844,2.4947 -17.62544,-0.52209c-2.53484,-1.20864 -3.76068,-2.54601 -4.77533,-5.20482c-1.25432,-3.28688 -2.0783,-3.9686 -2.67894,-7.46225c-0.60064,-3.49362 0.44616,-5.52471 0.44616,-5.52471c0,0 10.67002,0.21403 18.02728,-1.00123c11.22401,-1.85398 28.73369,-6.39969 28.73369,-6.39969l-0.7553,15.50178c0,0 -12.64435,9.3837 -21.37215,10.61299z" data-paper-data="{&quot;origPos&quot;:null}" fill="#000000"/></g><path d="M212.20122,99.39221c0,0 1.41367,-2.23007 1.16862,-3.6006c-0.73512,-4.11158 -1.09292,-6.64992 -2.40597,-10.85148c-2.21516,-7.08817 -6.39937,-15.63791 -6.39937,-15.63791c0,0 2.42613,-2.62502 19.94198,2.29684c13.98974,3.93107 14.74275,9.55701 14.74275,9.55701c0,0 -5.28172,2.3337 -4.28454,9.41355c0.33239,2.35995 0.73765,5.2372 0.73765,5.2372l2.92781,2.79783c0,0 -2.36467,2.21471 -4.15576,2.39509c-5.37325,0.54111 -12.28441,0.04845 -19.89556,-0.43325c-1.1946,-0.07561 -2.37759,-1.17427 -2.37759,-1.17427z" data-paper-data="{&quot;origPos&quot;:null}" fill="url(#color-4)" stroke="none" stroke-width="0"/><g data-paper-data="{&quot;origPos&quot;:null,&quot;index&quot;:null,&quot;origRot&quot;:0}"><path d="M255.16307,169.7595c3.32652,24.29447 7.07073,59.48185 7.07073,59.48185c-0.22211,7.71145 -11.25476,3.75273 -18.75648,3.65101c-6.63085,-0.08994 -10.99708,0.67757 -16.06201,-2.38756c-1.68831,-1.02171 -3.42373,-6.64693 -3.42373,-6.64693c0,0 1.47025,-21.94636 -3.42713,-52.04461c-8.16389,-17.67756 -15.27507,-42.40176 -18.21751,-59.96287c-1.36189,-8.12816 1.89546,-12.9176 10.24814,-17.24372c6.36389,7.04765 19.21729,11.0463 30.47329,11.52071c1.5212,1.94879 2.74309,4.19615 3.23773,7.14821c0,0 6.02461,35.79841 8.85695,56.48387z" data-paper-data="{&quot;origPos&quot;:null}" fill="#255dbc" stroke="#000000" stroke-width="0"/><path d="M210.93175,142.27001c0,0 -4.06021,-9.99099 -5.99666,-16.49043c-1.37849,-4.62672 -2.49755,-12.01899 -2.49755,-12.01899l40.4266,-5.93894c0,0 5.06223,4.62158 5.98446,7.94607c1.72788,6.22873 2.86127,10.11504 2.11606,16.59025c-1.0355,8.99765 2.34796,21.97618 2.34796,21.97618l-8.81391,-10.50358z" data-paper-data="{&quot;origPos&quot;:null}" fill="#09162e" stroke="none" stroke-width="0"/><path d="M215.77575,112.54636l-4.61772,-17.93674c0,0 18.25802,3.91877 30.81137,4.49176c0.98182,1.49009 2.38821,9.6281 2.38821,9.6281z" data-paper-data="{&quot;origPos&quot;:null}" fill="#09162e" stroke="none" stroke-width="0"/><path d="M214.7457,136.92823l-1.24018,-1.04253c-0.99356,-1.92305 -2.13405,-3.83279 -2.19567,-6.0032c-0.04243,-1.49454 0.54074,-2.75104 0.92055,-3.78137c0.05611,-0.15221 0.65954,0.10702 0.57879,-0.03088c-1.04968,-1.79233 -3.69671,-1.55919 -4.81916,-4.04086c-0.13627,-0.30127 0.19837,-0.92093 0.68353,-1.54137l-0.68601,-0.02347c-0.254,-0.00415 -0.4969,-0.04883 -0.71746,-0.1277c-0.52987,-0.16878 -1.16394,-0.56116 -1.0763,-1.47025c0.0033,-0.04039 0.00845,-0.08057 0.01546,-0.1204c0.14463,-0.90154 0.86934,-1.24588 1.43553,-1.3768c0.07311,-0.01924 0.1481,-0.03531 0.22477,-0.04796l2.0669,-0.34148l0.06553,0.36687l0.48679,0.01666l-0.01355,0.10716c0.22374,0.03883 0.44854,0.08629 0.68677,0.14485l0.0667,-0.10184l2.26913,0.89486c0.53145,0.20357 0.92524,0.60875 1.01724,1.12404c0.1322,0.74016 -0.40135,1.46596 -1.23615,1.76568l-1.95491,0.74184c-0.13393,0.1469 0.46732,-0.18485 0.68268,-0.14968c0.04585,-0.0556 0.10841,-0.09743 0.19605,-0.11922c1.67363,-0.41635 3.72657,3.21034 3.9031,3.68964c0.56847,1.54339 -0.83517,2.5576 -1.28958,3.94906c-0.17893,0.5479 1.7272,3.96394 2.31426,5.1002l1.27114,1.10438c0,0 0.7003,1.44565 -1.12767,2.10247c-1.82797,0.65685 -2.52828,-0.7888 -2.52828,-0.7888zM211.70471,122.84783c0.02601,-0.03251 0.04728,-0.06819 0.06495,-0.1062c-0.09279,0.14163 -0.14902,0.21126 -0.06495,0.1062z" data-paper-data="{&quot;origPos&quot;:null}" fill="#ffffff" stroke="none" stroke-width="0.5"/><path d="M202.40119,114.7024l0.27987,-1.11367l40.56268,-6.70153l0.18519,1.03684z" data-paper-data="{&quot;origPos&quot;:null}" fill="#ffffff" stroke="none" stroke-width="0"/><path d="M242.1338,107.47739l1.11094,-0.60904l4.65641,5.88763l1.04068,3.35422l-2.1516,-2.74516z" data-paper-data="{&quot;origPos&quot;:null,&quot;origRot&quot;:0}" fill="#ffffff" stroke="none" stroke-width="0"/></g></g><g data-paper-data="{&quot;origRot&quot;:0}" stroke="none" stroke-width="0" stroke-linecap="butt"><path d="M128.08649,178.89624l4.67141,-7.5162l10.72271,6.45304l-4.90419,7.13911c0,0 -2.03035,1.3757 -3.91376,0.24225c-1.24642,-0.75011 -6.57615,-6.31819 -6.57615,-6.31819z" data-paper-data="{&quot;origPos&quot;:null}" fill="#000000"/><g><path d="M179.6292,137.12745c-5.73727,5.80043 -12.8106,13.65949 -12.8106,13.65949c0,0 -4.57861,6.39348 -8.23421,11.01536c-3.65557,4.62189 -8.31222,9.3756 -11.95643,13.18743c-0.82402,0.8619 -14.28475,12.68242 -14.48363,13.88183c-0.50769,3.06169 -10.17861,-3.9963 -7.23967,-5.54862c1.26341,-0.66735 15.3374,-20.68264 15.89911,-21.97873c2.88262,-6.65159 5.87631,-9.78299 9.71768,-15.89183c4.89467,-7.7839 6.40114,-13.60973 13.67594,-19.10079c0,0 1.33611,-1.75369 2.56654,-2.30207c0,0 5.17207,3.35463 7.56258,6.03528z" data-paper-data="{&quot;origRot&quot;:0,&quot;origPos&quot;:null}" fill="url(#color-5)"/><g data-paper-data="{&quot;origPos&quot;:null}"><path d="M129.40119,177.38167l3.03388,-6.33135l11.11237,6.58226l-5.69702,8.0822c0,0 -0.18297,-3.85142 -2.57523,-5.74102z" data-paper-data="{&quot;origPos&quot;:null}" fill="url(#color-6)"/><path d="M130.07481,174.69045c0,0 18.82862,-35.32532 28.12522,-46.16492c5.66826,-6.60903 8.88073,-5.4622 15.59863,-0.26385c6.50349,4.7342 6.90175,8.11853 3.69295,13.19686c-3.20881,5.07834 -39.5858,43.60807 -39.5858,43.60807c0,0 2.42718,-4.84765 -0.25435,-7.00693c-2.84617,-2.29184 -7.5767,-3.36922 -7.5767,-3.36922z" data-paper-data="{&quot;origPos&quot;:null,&quot;origRot&quot;:0}" fill="#1e4994"/></g></g></g><g data-paper-data="{&quot;origPos&quot;:null,&quot;origRot&quot;:0}" stroke="none" stroke-width="0" stroke-linecap="butt"><path d="M200.56021,133.18442c-21.37179,9.84108 -20.71716,9.2302 -28.72929,11.0234c-9.74136,2.18022 -14.24019,-16.33411 -5.11859,-20.52728c5.03367,-2.31397 15.76962,-9.53272 20.81223,-11.82631c17.26182,-7.8514 31.74132,-16.16767 37.49676,-2.78194c6.6606,15.49089 -24.46112,24.11213 -24.46112,24.11213z" data-paper-data="{&quot;origPos&quot;:null,&quot;origRot&quot;:0}" fill="#2152a6"/><path d="M165.13804,143.19576c-5.77195,-9.9247 -3.08558,-17.36134 2.13262,-19.76012c5.03367,-2.31397 15.76963,-9.53271 20.81223,-11.82631c8.92255,-4.05836 18.90585,-9.25787 28.66097,-9.39827c0,0 7.62129,2.79126 8.36492,6.95864c3.92431,8.45101 -10.22953,14.03905 -14.57738,16.15752c-12.41879,6.05102 -45.39336,17.86853 -45.39336,17.86853z" data-paper-data="{&quot;origPos&quot;:null,&quot;origRot&quot;:0}" fill="#000000"/></g><g data-paper-data="{&quot;origRot&quot;:0}" stroke-linecap="butt"><path d="M130.99623,199.84499c0,0 -7.25412,8.83803 -9.12903,7.22093c-2.66747,-2.30067 3.17534,-7.98518 4.29696,-8.7512c-0.43619,-1.57929 4.03714,-10.78328 5.91206,-9.16616c1.87492,1.61711 -1.07999,10.69645 -1.07999,10.69645z" data-paper-data="{&quot;origPos&quot;:null}" fill="#f8ddcc" stroke="none" stroke-width="0"/><path d="M117.38278,187.69151c4.35802,-3.6818 11.28226,-7.74269 11.28226,-7.74269c0,0 0.74715,-0.61125 3.78983,1.58944c2.28501,1.65268 1.9766,3.1111 1.9766,3.1111c0,0 -0.9666,6.17473 -4.3077,12.67777c-3.34111,6.50304 -17.09901,-5.95383 -12.74099,-9.63563z" data-paper-data="{&quot;origPos&quot;:null}" fill="url(#color-7)" stroke="#000000" stroke-width="0"/><path d="M117.8962,186.99429c0.80091,-0.55856 1.65974,0.50521 1.65974,0.50521c0.4071,0.28712 1.45024,0.94176 1.2192,1.73157c-0.06931,0.23694 -3.09121,3.28602 -4.51502,5.18958c-4.13097,5.52288 -5.05129,6.54313 -6.24148,5.70377c-1.19019,-0.83938 -0.75446,-1.79944 3.37653,-7.3223c4.13097,-5.52288 3.4124,-5.04859 4.50103,-5.8078z" data-paper-data="{&quot;origPos&quot;:null,&quot;origRot&quot;:0,&quot;index&quot;:null}" fill="#fde2d1" stroke="#000000" stroke-width="0"/><path d="M114.7048,210.62623c-1.29164,-1.31364 0.20817,-2.0752 5.76507,-8.75378c4.57724,-5.50116 5.24078,-6.5389 5.52288,-6.67178c0.94032,-0.44295 2.01684,0.76081 2.45866,1.21014c0,0 1.71035,1.04317 1.17511,2.1488c-0.72751,1.50278 -0.29352,0.52119 -6.55001,6.55429c-6.26744,6.04366 -7.08009,6.82597 -8.37172,5.51234z" data-paper-data="{&quot;origPos&quot;:null,&quot;origRot&quot;:0}" fill="#fde2d1" stroke="#000000" stroke-width="0"/><path d="M123.42736,194.62077c-0.28814,-0.17953 -0.12606,-0.4537 -0.12606,-0.4537l0.19638,-0.23538c0.79625,-0.92561 1.39647,-2.16513 1.8906,-3.29045c0,0 0.12851,-0.2927 0.43312,-0.14529c0.30461,0.14742 0.17608,0.44012 0.17608,0.44012c-0.51594,1.17497 -1.1533,2.47349 -1.98466,3.43994l-0.13524,0.15012c0,0 -0.16208,0.27416 -0.45023,0.09465z" data-paper-data="{&quot;origPos&quot;:null}" fill="#f8ddcc" stroke="none" stroke-width="0.5"/><g><path d="M113.79021,197.52824c5.11147,-7.03062 4.19949,-6.46544 5.58703,-7.39321c1.02082,-0.68258 2.28879,0.86899 2.28879,0.86899c0.50559,0.37605 1.84532,1.27733 1.53619,2.27019c-0.09274,0.29786 -1.02871,1.09825 -5.84465,6.39146c-5.84671,6.42613 -6.39424,8.01732 -7.87234,6.91793c-1.47809,-1.09939 -0.81547,-2.01239 4.30497,-9.05534z" data-paper-data="{&quot;origPos&quot;:null,&quot;origRot&quot;:0,&quot;index&quot;:null}" fill="#fde2d1" stroke="#000000" stroke-width="0"/><path d="M116.96184,192.73696c0.29197,0.17288 0.13684,0.4513 0.13684,0.4513l-0.12213,0.11399c-0.36105,1.14246 -1.02895,2.01384 -1.62828,3.0276c0,0 -0.16209,0.27417 -0.45024,0.09466c-0.28814,-0.17953 -0.12606,-0.45371 -0.12606,-0.45371c0.57711,-0.97617 1.22697,-1.80941 1.57232,-2.90212l0.17047,-0.22616c0,0 0.15511,-0.27842 0.44708,-0.10554z" data-paper-data="{&quot;origPos&quot;:null}" fill="#f8ddcc" stroke="none" stroke-width="0.5"/></g><g data-paper-data="{&quot;origPos&quot;:null}"><path d="M116.06891,200.72035c5.12602,-7.01978 4.21282,-6.45645 5.60236,-7.3814c1.0223,-0.68051 2.28737,0.8733 2.28737,0.8733c0.50491,0.37699 1.84302,1.28074 1.5319,2.27289c-0.51935,1.17132 -3.54906,3.85213 -5.85801,6.37926c-5.86014,6.41391 -6.63038,7.7026 -8.10649,6.60052c-1.47611,-1.10209 -0.59213,-1.71249 4.54288,-8.74457z" data-paper-data="{&quot;origPos&quot;:null,&quot;origRot&quot;:0,&quot;index&quot;:null}" fill="#fde2d1" stroke="#000000" stroke-width="0"/><g data-paper-data="{&quot;origRot&quot;:0,&quot;origPos&quot;:null}" fill="#f8ddcc" stroke="none" stroke-width="0.5"><path d="M116.76561,200.38352c-0.26275,-0.21598 -0.0621,-0.46246 -0.0621,-0.46246l0.189,-0.23865c0.5434,-0.686 1.0945,-1.35869 1.65751,-2.02973c0,0 0.20429,-0.24346 0.46423,-0.02411c0.25994,0.21936 0.05566,0.46285 0.05566,0.46285c-0.55938,0.6667 -1.10692,1.33504 -1.64695,2.01676l-0.19396,0.24482c0,0 -0.20067,0.2465 -0.46341,0.03053z" data-paper-data="{&quot;origPos&quot;:null}"/><path d="M120.14308,195.21501c0.29652,0.16437 0.15031,0.4479 0.15031,0.4479l-0.05641,0.11902c-0.30632,0.82442 -0.87432,1.45407 -1.17598,2.26597c0,0 -0.1116,0.30036 -0.4228,0.16924c-0.31121,-0.13112 -0.19962,-0.43147 -0.19962,-0.43147c0.30385,-0.81777 0.86954,-1.44122 1.17598,-2.26597l0.08577,-0.18553c0,0 0.14622,-0.28352 0.44275,-0.11915z" data-paper-data="{&quot;origPos&quot;:null}"/></g><g data-paper-data="{&quot;origPos&quot;:null}" fill="#f8ddcc" stroke="none" stroke-width="0.5"><path d="M119.87452,202.33536c-0.25757,-0.22217 -0.05032,-0.46309 -0.05032,-0.46309c0.50505,-0.58711 1.04448,-1.21419 1.56054,-1.81411l0.29261,-0.34015c0.02619,-0.03045 0.0573,-0.05438 0.09138,-0.07168c0.08455,-0.04747 0.22008,-0.07936 0.37344,0.05291c0.15337,0.13227 0.14196,0.27121 0.1076,0.36197c-0.01205,0.03632 -0.03108,0.07066 -0.05728,0.10111c-0.09754,0.11338 -0.19508,0.22678 -0.29261,0.34015c-0.50393,0.5858 -1.00785,1.17162 -1.51179,1.75742l-0.04877,0.0567c0,0 -0.20726,0.24093 -0.46485,0.01878z" data-paper-data="{&quot;origPos&quot;:null}"/><path d="M123.90693,198.63335c0.19962,0.27396 -0.18182,0.50215 -0.18182,0.50215l-0.18844,0.03499c-0.24423,-0.09321 -1.22672,0.85535 -1.42541,1.08634c-0.02619,0.03045 -0.05729,0.05438 -0.09139,0.0717c-0.08455,0.04747 -0.22009,0.07937 -0.37345,-0.05291c-0.15337,-0.13227 -0.14194,-0.27122 -0.10759,-0.36199c0.01205,-0.03632 0.03108,-0.07066 0.05728,-0.10111l0.24383,-0.28345l0.01168,0.01007c0.42295,-0.42005 1.00998,-0.86524 1.52163,-1.01322l0.18844,-0.03499c0,0 0.14561,-0.13153 0.34524,0.14243z" data-paper-data="{&quot;origPos&quot;:null}"/></g></g></g><g><path d="M242.8798,19.88165c0.19867,-0.01742 0.39746,-0.01396 0.59648,0.01188c-0.0737,0.14165 -0.1463,0.28392 -0.21776,0.42679c-0.12453,-0.14896 -0.25071,-0.2952 -0.3787,-0.43866z" data-paper-data="{&quot;origPos&quot;:null}" fill="#453725" stroke="none" stroke-width="0" stroke-linecap="butt"/><g data-paper-data="{&quot;origPos&quot;:null,&quot;index&quot;:null}"><path d="M210.89426,75.15161c-3.29676,-0.73318 -5.15372,-5.84149 -7.57731,-10.17782c-1.36998,-2.45119 -1.30159,-2.90844 -1.26258,-4.9066c0.03901,-1.99819 0.34182,-2.6854 1.41382,-2.84287c1.07199,-0.15746 2.67766,0.43726 4.1203,2.02992c1.44263,1.5927 2.70774,3.2282 2.27884,5.03473" data-paper-data="{&quot;origPos&quot;:null,&quot;origRot&quot;:0}" fill="#ffddd1" stroke="#e9c7ba" stroke-width="0.5" stroke-linecap="round"/><text transform="translate(212.13729,70.97653) rotate(164.58433) scale(0.2304,-0.41388) skewX(-14.03775)" font-size="40" xml:space="preserve" data-paper-data="{&quot;origRot&quot;:-1.7125,&quot;origPos&quot;:null,&quot;index&quot;:null}" fill="#e9c7ba" fill-rule="nonzero" stroke="none" stroke-width="1" stroke-linecap="butt" stroke-linejoin="miter" stroke-miterlimit="10" stroke-dasharray="" stroke-dashoffset="0" font-family="Handwriting" font-weight="normal" text-anchor="start" style="mix-blend-mode: normal"><tspan x="0" dy="0">3</tspan></text></g><path d="M212.89275,83.17687c0,0 -15.23361,-8.99512 -18.38281,-21.76025c-3.86558,-20.56286 2.19616,-34.12248 17.18015,-40.10822c14.98397,-5.98574 25.50531,-4.0046 33.10496,2.32846c16.10859,13.59041 10.94418,30.01348 10.94418,30.01348l1.40143,5.80664c0,0 3.15334,3.98892 3.27859,5.34913c0.21111,2.29266 -4.88306,14.67341 -8.61322,19.8902c-1.24338,1.73893 -1.18472,2.44782 -5.07198,2.99666c-4.98153,0.78948 -17.29957,-1.16831 -17.29957,-1.16831z" data-paper-data="{&quot;origPos&quot;:null,&quot;origRot&quot;:0}" fill="url(#color-8)" stroke="none" stroke-width="0" stroke-linecap="butt"/><path d="M243.69878,49.64775c4.70842,-1.55821 8.48651,-0.52184 8.48651,-0.52184c0.7449,0.18934 0.94987,0.81837 0.60586,1.11137c-0.34399,0.29301 -0.88089,0.46497 -1.62578,0.27562c-2.63333,-0.66931 -3.75951,-0.28854 -6.61736,0.44829c-3.80509,0.98107 -9.10665,4.59159 -8.59485,4.07059c1.10464,-1.12456 3.93456,-4.1228 7.74563,-5.38404z" data-paper-data="{&quot;origRot&quot;:0,&quot;origPos&quot;:null,&quot;index&quot;:null}" fill="#38301c" stroke="none" stroke-width="0" stroke-linecap="butt"/><path d="M259.71749,31.99425c-3.13698,3.09715 -2.56303,1.44336 -4.41305,5.43466c-4.01044,-4.98877 0.07801,-2.99826 -7.83607,-1.61552c-13.26443,2.31757 -24.14593,6.11814 -29.35832,10.41825c-1.19062,0.98225 -0.43798,6.35944 -0.43798,6.35944c0,0 -1.19851,-2.76366 -2.07161,-1.34323c-1.93078,3.14115 2.77688,15.99401 2.77688,15.99401l-3.71649,0.33406c0,0 -4.12989,-3.86419 -4.92252,-7.07645c-0.79739,-3.23151 -7.07446,2.51329 -5.22017,5.28154c3.71285,5.5429 6.13168,16.31614 6.13168,16.31614c0,0 -14.18745,-9.32957 -17.18719,-21.98574c-2.09707,-8.84776 -1.20978,-16.85905 2.5225,-25.16677c1.98251,-6.23116 5.17151,-17.58832 26.299,-20.39066c19.67521,-2.6097 29.07694,1.46302 34.74799,12.37625z" data-paper-data="{&quot;origPos&quot;:null}" fill="#3d3021" stroke="none" stroke-width="0" stroke-linecap="butt"/><path d="M234.43428,35.87212c-9.84418,1.71997 -19.04547,6.37886 -24.13062,14.65178c-1.88782,3.07126 -1.39312,6.83831 -1.39312,6.83831c0,0 -1.12688,-5.85562 -3.86013,-8.11156c-1.59185,-1.66177 -2.88367,-0.19112 -4.84394,1.01417c-1.47822,0.90889 -4.16846,3.73464 -4.16846,3.73464c0,0 -1.36679,-8.75913 1.09736,-14.0272c1.32684,-6.96323 8.6225,-12.13796 8.6225,-12.13796c0,0 -0.68549,-7.81032 14.78802,-11.13911c12.13315,-1.60931 25.74186,-1.97808 29.59653,2.34218c-6.00722,0.52685 1.40267,15.43655 1.40267,15.43655l6.59176,-1.56649c0,0 -0.65379,3.18383 -0.84808,5.19007c-0.47544,4.9094 -0.86799,12.53039 -0.86799,12.53039c0,0 0.1954,-11.31023 -2.3946,-13.72966c-5.20736,-4.86445 -12.57226,-2.25251 -19.59189,-1.02607z" data-paper-data="{&quot;origPos&quot;:null}" fill="#453725" stroke="none" stroke-width="0" stroke-linecap="butt"/><g data-paper-data="{&quot;origPos&quot;:null}" stroke="none" stroke-width="0" stroke-linecap="butt"><path d="M222.2614,46.62522l-5.42597,-2.75275l6.7098,0.97987l-1.16641,-1.01793c0,0 3.16138,0.99121 7.32678,-0.70065c5.66409,-2.30057 13.18387,-8.06772 17.41578,-9.17302c5.83355,-1.52363 9.02253,6.28076 9.02253,6.28076c0,0 -0.73736,-0.1865 -1.21413,-0.27927c-1.39609,-0.27166 -2.2568,-0.54698 -3.59744,-0.08866c-6.65675,2.27555 -11.88046,9.57535 -18.80519,10.55068c-10.65424,1.50063 -17.38198,-3.31941 -17.38198,-3.31941z" data-paper-data="{&quot;origPos&quot;:null}" fill="url(#color-9)"/><path d="M220.21675,44.32537l-4.80072,-2.26543l6.01809,-0.22815l-2.85627,-1.47315c0,0 4.91211,1.55447 9.10614,-0.64824c7.47135,-3.9239 0.42663,-12.83576 17.86422,-18.30543c8.85094,-2.77629 6.35452,8.77002 8.61537,15.04578c0.58781,1.63165 3.343,2.63377 3.343,2.63377l-3.59013,-1.06909c0,0 -0.54571,-0.80474 -2.29602,0.06489c-1.50403,0.74728 -2.98681,0.32098 -2.98681,0.32098c0,0 1.13429,0.0104 2.87987,-1.38904c1.1567,-0.89027 -0.10351,-1.35714 -0.1787,-0.91334c-9.70073,3.65045 -9.59925,12.16737 -17.87816,13.33344c-10.8976,1.5349 -17.6447,-3.27999 -17.6447,-3.27999z" data-paper-data="{&quot;origPos&quot;:null}" fill="#3b2f20"/></g><path d="M212.56606,64.08483c0.98326,4.40314 2.3868,8.45064 -1.44141,9.97336c-2.11282,0.84042 -6.27348,-2.36464 -7.34373,-7.15731c-1.07022,-4.79268 0.37429,-7.27921 3.35985,-8.11902c2.98558,-0.83981 4.35505,0.5103 5.42529,5.30298z" data-paper-data="{&quot;origRot&quot;:0,&quot;origPos&quot;:null,&quot;index&quot;:null}" fill="url(#color-10)" stroke="none" stroke-width="0" stroke-linecap="butt"/><g data-paper-data="{&quot;origPos&quot;:null}" stroke-linecap="butt"><g data-paper-data="{&quot;origPos&quot;:null}" stroke="none" stroke-width="0"><path d="M253.52054,59.80008c-0.79273,1.72008 -2.08395,3.69582 -6.04501,4.25373c-3.74782,0.52787 -7.45285,-1.06031 -8.07225,-3.86546c-0.16255,-0.69244 0.38289,-3.00216 1.84517,-3.96153c1.81366,-1.18986 5.28783,-2.84578 7.19231,-3.11403c3.96106,-0.55791 3.93783,1.37939 4.51159,2.58223c0,0 1.22001,2.69069 0.5682,4.10504z" data-paper-data="{&quot;origPos&quot;:null}" fill="#000000"/><path d="M253.5859,60.54868c-0.39259,1.484 -1.59935,2.20931 -1.59935,2.20931c-1.55799,0.51449 -2.06377,0.47823 -3.67757,0.73558c-1.39754,0.22284 -3.60042,0.28513 -3.60042,0.28513c0,0 -1.92989,-0.86092 -2.78753,-1.52727c-0.88692,-0.68906 -1.87803,-2.30753 -1.87803,-2.30753c0,0 1.19253,-2.45875 2.26439,-3.35774c1.07185,-0.89901 4.83722,-2.92496 6.06969,-3.09855c3.63767,-0.51236 3.96647,0.99077 4.48407,2.02928c0,0 0.63393,1.32807 0.77569,2.31232c0.1411,0.97948 0.34166,1.2355 -0.05095,2.7195z" data-paper-data="{&quot;origPos&quot;:null}" fill="#ffffff"/></g><g data-paper-data="{&quot;origPos&quot;:null}" stroke="#000000" stroke-width="0"><path d="M253.14471,57.34074c0.39793,1.39353 0.31897,2.8227 -0.13064,4.00545c-0.4496,1.18277 -1.48003,1.73943 -2.56319,2.1483c-1.08314,0.40887 -2.01646,0.59339 -2.9884,-0.05277c-0.97193,-0.64615 -1.77242,-1.74338 -2.17041,-3.1369c-0.21401,-0.74946 -0.21568,-1.51969 -0.17037,-2.24587c3.32493,-2.07059 3.75916,-2.95794 7.88026,-1.15914c0.05207,0.1434 0.09975,0.29045 0.14271,0.44095z" data-paper-data="{&quot;origPos&quot;:null}" fill="#898151"/><path d="M251.02723,54.30949c0.97193,0.64615 1.77239,1.74335 2.17031,3.13693c0.0844,0.29551 0.07293,0.60313 0.11544,0.89917c-0.6467,-0.07121 -1.01081,-1.30712 -4.26361,-0.90447c-2.96023,0.36644 -3.48998,1.41673 -3.93429,1.74036c-0.08985,-0.98219 0.04281,-1.94084 0.36048,-2.77649c0.4496,-1.18277 1.26989,-2.11917 2.35307,-2.52802c1.08317,-0.40882 2.22661,-0.21365 3.19858,0.43252z" data-paper-data="{&quot;origPos&quot;:null}" fill="#4d461c"/></g><path d="M247.93042,63.94015c-1.18122,0.16637 -2.97386,0.51297 -2.97386,0.51297l-0.05416,-0.38449c0,0 1.79513,-0.55438 2.94521,-0.71636c1.49216,-0.21017 3.82526,-0.23724 3.82526,-0.23724l0.05416,0.38449c0,0 -2.33556,0.23485 -3.79661,0.44063z" data-paper-data="{&quot;origPos&quot;:null}" fill="#000000" stroke="none" stroke-width="0"/><path d="M242.7514,56.07298l-1.25577,-0.02162c0,0 1.84742,-2.18632 6.7134,-3.11359c3.74603,-0.37599 3.92766,1.16516 3.92766,1.16516c0,0 -2.41202,-0.5233 -3.54075,-0.40104c-1.06964,0.11587 -2.52962,0.74655 -3.58098,0.97563c-1.05136,0.22907 -2.26356,1.39546 -2.26356,1.39546z" data-paper-data="{&quot;origPos&quot;:null}" fill="#000000" stroke="#000000" stroke-width="0"/><g data-paper-data="{&quot;origPos&quot;:null}" stroke="none" stroke-width="1"><path d="M247.43775,55.81519c0.48231,-0.56082 1.14848,-0.87888 1.88342,-0.82107c0.73497,0.05778 1.4011,0.48063 1.88339,1.11735c0.48232,0.63673 0.78069,1.48729 0.78071,2.39974c-0.00003,0.91245 -0.29835,1.71607 -0.78062,2.27691c-0.48227,0.56081 -1.14845,0.87889 -1.88337,0.82106c-0.73493,-0.05778 -1.40115,-0.48064 -1.88344,-1.11738c-0.48232,-0.63673 -0.78066,-1.48726 -0.78068,-2.39967c-0.00002,-0.91245 0.29832,-1.7161 0.7806,-2.27697z" data-paper-data="{&quot;origPos&quot;:null}" fill="#000000"/><path d="M250.03117,55.92074c0.13411,-0.24925 0.34914,-0.40667 0.61301,-0.41286c0.26381,-0.00629 0.52733,0.13976 0.73967,0.38088c0.21238,0.24107 0.37356,0.57728 0.43315,0.95079c0.0596,0.37349 0.00657,0.71473 -0.12752,0.96405c-0.13411,0.24925 -0.34915,0.40664 -0.613,0.41285c-0.26385,0.00622 -0.52729,-0.13977 -0.73966,-0.38089c-0.21232,-0.24103 -0.37356,-0.57722 -0.43317,-0.95077c-0.0596,-0.37349 -0.00653,-0.71482 0.12755,-0.96417z" data-paper-data="{&quot;origPos&quot;:null,&quot;origRot&quot;:0}" fill="#ffffff"/><path d="M246.77506,59.20307c0.13254,-0.11658 0.31146,-0.18634 0.50511,-0.18154c0.19366,0.00479 0.3657,0.08324 0.48725,0.20613c0.12153,0.12291 0.19251,0.29024 0.18411,0.47284c-0.00835,0.18257 -0.09463,0.34606 -0.2272,0.46263c-0.13254,0.11658 -0.3114,0.18642 -0.50509,0.18159c-0.19364,-0.00477 -0.36562,-0.08319 -0.48715,-0.2061c-0.12153,-0.12288 -0.19254,-0.29028 -0.18411,-0.47288c0.00843,-0.1826 0.09464,-0.346 0.22716,-0.46257z" data-paper-data="{&quot;origPos&quot;:null}" fill="#ffffff"/></g></g></g></g></g></svg>