<svg version="1.1" xmlns="http://www.w3.org/2000/svg" xmlns:xlink="http://www.w3.org/1999/xlink" width="313.06355" height="426.47778" viewBox="0,0,313.06355,426.47778"><defs><linearGradient x1="289.68599" y1="2.05516" x2="286.97044" y2="132.34504" gradientUnits="userSpaceOnUse" id="color-1"><stop offset="0" stop-color="#3b2103"/><stop offset="1" stop-color="#000000"/></linearGradient><linearGradient x1="435.70332" y1="82.24191" x2="428.3894" y2="156.24159" gradientUnits="userSpaceOnUse" id="color-2"><stop offset="0" stop-color="#3fbf5b"/><stop offset="1" stop-color="#52f75b"/></linearGradient><linearGradient x1="445.10092" y1="114.47845" x2="454.84698" y2="115.44173" gradientUnits="userSpaceOnUse" id="color-3"><stop offset="0" stop-color="#00ab09"/><stop offset="1" stop-color="#185723"/></linearGradient><linearGradient x1="428.53031" y1="111.51899" x2="438.27636" y2="112.48227" gradientUnits="userSpaceOnUse" id="color-4"><stop offset="0" stop-color="#1a5125"/><stop offset="1" stop-color="#00ac09"/></linearGradient><radialGradient cx="160.54466" cy="231.5488" r="14.90435" gradientUnits="userSpaceOnUse" id="color-5"><stop offset="0" stop-color="#d5ffe1"/><stop offset="1" stop-color="#d5ffe1" stop-opacity="0"/></radialGradient><radialGradient cx="164.85362" cy="235.34415" r="6.30569" gradientUnits="userSpaceOnUse" id="color-6"><stop offset="0" stop-color="#d5ffe1"/><stop offset="1" stop-color="#d5ffe1" stop-opacity="0"/></radialGradient><radialGradient cx="167.33332" cy="300.76868" r="15.49648" gradientUnits="userSpaceOnUse" id="color-7"><stop offset="0" stop-color="#d5ffe1"/><stop offset="1" stop-color="#d5ffe1" stop-opacity="0"/></radialGradient><radialGradient cx="176.07757" cy="281.89231" r="6.5923" gradientUnits="userSpaceOnUse" id="color-8"><stop offset="0" stop-color="#d5ffe1"/><stop offset="1" stop-color="#d5ffe1" stop-opacity="0"/></radialGradient><radialGradient cx="184.16832" cy="221.70473" r="14.90435" gradientUnits="userSpaceOnUse" id="color-9"><stop offset="0" stop-color="#d5ffe1"/><stop offset="1" stop-color="#d5ffe1" stop-opacity="0"/></radialGradient><radialGradient cx="188.11791" cy="267.81135" r="27.80235" gradientUnits="userSpaceOnUse" id="color-10"><stop offset="0" stop-color="#d5ffe1"/><stop offset="1" stop-color="#d5ffe1" stop-opacity="0"/></radialGradient><radialGradient cx="175.7195" cy="296.93782" r="6.30568" gradientUnits="userSpaceOnUse" id="color-11"><stop offset="0" stop-color="#d5ffe1"/><stop offset="1" stop-color="#d5ffe1" stop-opacity="0"/></radialGradient><linearGradient x1="178.17404" y1="259.75092" x2="154.36246" y2="259.67275" gradientUnits="userSpaceOnUse" id="color-12"><stop offset="0" stop-color="#86ffa7"/><stop offset="1" stop-color="#86ffa7" stop-opacity="0"/></linearGradient></defs><g transform="translate(-148.18698,-8.26057)"><g data-paper-data="{&quot;isPaintingLayer&quot;:true}" fill-rule="nonzero" stroke-linejoin="miter" stroke-miterlimit="10" stroke-dasharray="" stroke-dashoffset="0" style="mix-blend-mode: normal"><g data-paper-data="{&quot;index&quot;:null,&quot;origRot&quot;:0}" stroke-width="0.5" stroke-linecap="butt"><path d="M296.03056,313.39002c-9.23301,2.09026 -18.51601,-4.15839 -20.73423,-13.95662c-2.21818,-9.7983 3.46838,-19.43579 12.70137,-21.52608c9.23297,-2.09028 18.51596,4.15839 20.73419,13.95662c2.21823,9.79828 -3.4684,19.43579 -12.70137,21.52608z" data-paper-data="{&quot;origPos&quot;:null}" fill="#fff8d5" stroke="#45433a"/><path d="M249.05752,167.8276c17.38114,-5.0576 25.86219,1.04229 31.2678,8.25568c5.06257,6.75561 16.68471,34.53308 22.69707,57.84663c6.01234,23.31356 7.11772,61.56835 7.11772,61.56835c0,0 -9.53214,4.3956 -17.54531,4.68016c-8.01317,0.28453 -18.4373,-3.40243 -18.4373,-3.40243c0,0 3.25327,-28.80806 -1.1989,-52.65584c-4.45219,-23.8478 -20.8432,-59.00461 -20.8432,-59.00461z" data-paper-data="{&quot;origRot&quot;:0,&quot;origPos&quot;:null}" fill="#67ff26" stroke="#183b09"/></g><path d="M196.30543,387.76963l26.3323,-111.12941l22.84058,0.13977l-26.3323,111.12941z" data-paper-data="{&quot;origRot&quot;:0,&quot;index&quot;:null}" fill="#00c7c6" stroke="#004040" stroke-width="0.5" stroke-linecap="butt"/><g data-paper-data="{&quot;index&quot;:null}" stroke="#1b1600" stroke-width="0.5"><path d="M221.39683,431.12716c-17.47824,2.89097 -33.14147,3.36118 -33.14147,3.36118c-18.37775,0 -24.98442,-16.5779 -13.21531,-25.58449c4.02536,-3.08052 11.57694,-6.92845 11.57694,-6.92845c0,0 8.98132,-24.70222 8.73928,-35.65865c-0.08288,-3.75131 31.4411,-5.28595 32.07564,1.61159c1.10152,11.97344 -5.01562,63.03016 -6.0351,63.19877z" data-paper-data="{&quot;origPos&quot;:null}" fill="#907900" stroke-linecap="butt"/><path d="M180.89241,405.09316c0,0 0.91036,-1.8795 5.36787,-2.74869c4.45749,-0.86921 13.90787,0.78676 13.90787,0.78676" data-paper-data="{&quot;origPos&quot;:null}" fill="none" stroke-linecap="round"/></g><path d="M203.16361,362.97913l14.65093,-64.3681l4.32323,-0.24018c0,0 -5.91653,19.19648 -8.93586,31.47755c-2.19787,8.93975 -7.15616,32.89055 -7.15616,32.89055z" fill="#00e4e4" stroke="none" stroke-width="0" stroke-linecap="butt"/><path d="M290.90178,164.80554c-77.33412,-3.5192 -77.03399,-51.94677 -77.03399,-51.94677c0,0 19.6409,-37.28453 62.92716,-36.38234c43.28626,0.90219 81.50674,31.66073 81.50674,31.66073c0,0 -5.10539,60.56226 -67.39989,56.66837z" data-paper-data="{&quot;index&quot;:null,&quot;origRot&quot;:0}" fill="#2b1702" stroke="#0f0801" stroke-width="1" stroke-linecap="butt"/><path d="M253.96738,397.59923v-117.53801h22.84099v117.53801z" data-paper-data="{&quot;index&quot;:null}" fill="#00c7c6" stroke="#004040" stroke-width="0.5" stroke-linecap="butt"/><path d="M254.58002,365.4681l0.35881,-66.01343l4.16854,-1.17103c0,0 -0.98658,48.06749 -1.30992,55.97934c-0.13251,3.24229 -0.45575,10.34627 -0.45575,10.34627z" data-paper-data="{&quot;origRot&quot;:0}" fill="#00e4e4" stroke="none" stroke-width="0" stroke-linecap="butt"/><g data-paper-data="{&quot;index&quot;:null}" stroke="#1b1600" stroke-width="0.5"><path d="M248.44722,430.67186c-1.01946,-0.16861 0.15337,-51.22533 1.25488,-63.19879c0.63454,-6.8975 32.62798,-4.08163 32.54512,-0.33029c-0.24204,10.95643 0.70927,34.37735 0.70927,34.37735c0,0 7.82217,3.84791 11.84753,6.92845c11.76911,9.00659 5.16248,25.58449 -13.21531,25.58449c0,0 -15.66326,-0.47024 -33.14147,-3.3612z" data-paper-data="{&quot;origPos&quot;:null}" fill="#907900" stroke-linecap="butt"/><path d="M269.67581,402.67604c0,0 9.45045,-1.65599 13.90787,-0.78676c4.45753,0.86919 5.36787,2.74873 5.36787,2.74873" data-paper-data="{&quot;origPos&quot;:null}" fill="none" stroke-linecap="round"/></g><path d="M231.80946,182.03469c0,0 0,-8.463 0,-13.87975c0,-10.40439 0,-26.65993 0,-26.65993h35.32745v40.53968z" data-paper-data="{&quot;index&quot;:null}" fill="#fff8d5" stroke="#514f44" stroke-width="0.5" stroke-linecap="butt"/><path d="M266.49109,150.45339v22.44879l-17.73927,1.14947l-3.37679,-26.49839z" data-paper-data="{&quot;index&quot;:null}" fill="#d4ceb2" stroke="#000000" stroke-width="0" stroke-linecap="butt"/><path d="M218.26238,165.16845c5.84676,-0.2012 18.28287,0.36938 28.93246,0.46479c10.64961,0.09541 29.09328,-0.72524 29.09328,-0.72524c0,0 3.99514,123.97461 0.50292,127.37902c-4.39569,4.28519 -27.36769,6.68752 -39.13541,6.68752c-17.18406,0 -20.10138,-0.39785 -22.05943,-5.81291c-2.6983,-7.46222 2.6662,-127.99318 2.6662,-127.99318z" data-paper-data="{&quot;index&quot;:null}" fill="#67ff26" stroke="#183b09" stroke-width="0.5" stroke-linecap="butt"/><path d="M262.04474,295.1178l0.11696,-132.27199l4.05394,-0.00026c0,0 -0.05313,61.39849 -0.08713,100.69665c-0.01163,13.44788 -0.02981,31.57562 -0.02981,31.57562z" data-paper-data="{&quot;index&quot;:null}" fill="#82a19f" stroke="#2b3434" stroke-width="0.25" stroke-linecap="butt"/><path d="M365.86766,93.54555c-0.82963,39.80459 -36.14781,71.35047 -78.88536,70.45972c-42.73752,-0.89076 -76.71065,-33.88085 -75.88103,-73.68542c0.82962,-39.80459 36.14781,-71.35047 78.88536,-70.45972c42.73752,0.89076 76.71066,33.88083 75.88103,73.68541z" data-paper-data="{&quot;index&quot;:null,&quot;origRot&quot;:0}" fill="#fff8d5" stroke="#514f44" stroke-width="0.5" stroke-linecap="butt"/><path d="M346.33929,75.1595l20.07273,12.21677c0,0 -22.55846,3.6583 -26.08956,-1.04597c-3.53114,-4.70428 -11.09526,-20.14183 -19.5066,-23.44254c-8.88821,-3.48784 -13.71208,0.83805 -23.1808,1.01629c-8.60841,0.16207 -13.66599,-3.78734 -22.00064,-1.43743c-4.63735,1.30747 -17.35635,11.53977 -17.35635,11.53977l0.34249,-13.85847c0,0 0.51358,13.18773 -4.79139,19.03687c-5.30497,5.84918 -15.53406,3.37353 -15.53406,3.37353l7.79522,-13.20008c0,0 -3.82737,4.71016 -7.60169,12.45514c-3.77428,7.745 13.07181,-49.66203 15.98629,-54.29509c5.26581,-8.37081 60.7432,9.23739 73.84248,8.6228c8.91343,-0.41819 18.02188,39.0184 18.02188,39.0184z" data-paper-data="{&quot;index&quot;:null,&quot;origRot&quot;:0}" fill="#8a7967" stroke="#000000" stroke-width="0" stroke-linecap="butt"/><path d="M214.18212,109.03988l0.41111,-19.72512l150.72018,3.14136l-0.41111,19.72513z" data-paper-data="{&quot;index&quot;:null,&quot;origRot&quot;:0}" fill="#000000" stroke="#000000" stroke-width="0" stroke-linecap="butt"/><path d="M342.81746,79.56264c-3.04352,-6.03138 -6.85248,-20.0534 -15.9128,-23.36763c-9.574,-3.50213 -14.76007,0.81616 -24.95318,0.97932c-9.26695,0.14834 -14.71786,-3.80927 -23.68661,-1.47258c-8.96875,2.33669 -18.66622,11.51247 -18.66622,11.51247l0.34661,-13.85838c0,0 0.57392,13.18898 -5.1277,19.02989c-5.70165,5.84091 -16.71748,3.34886 -16.71748,3.34886l8.37073,-13.18808c0,0 -4.11278,4.70421 -8.16356,12.44343c-4.05078,7.73924 -11.61615,18.27768 -18.49483,29.67961c-6.8787,11.40193 2.92883,33.52799 2.92883,33.52799c0,0 -10.42703,-23.12648 -11.37736,-25.64058c-0.09942,-0.26308 -3.46985,-10.20443 -3.26197,-18.66659c0.42457,-17.28303 1.3258,-36.16873 1.3258,-36.16873c0,0 2.7915,-17.09084 5.92165,-21.71938c5.65544,-8.36269 9.20556,-10.34458 16.53866,-15.27572c7.33309,-4.93112 21.88208,-10.26835 23.38165,-7.43807c1.63273,3.08158 -12.74932,6.67636 -12.65769,6.64942c5.76502,-1.69458 24.15259,-12.17166 43.69361,-11.10067c19.54102,1.07095 57.03512,14.2835 55.36021,17.29944c-1.21028,1.59929 -12.73727,-4.139 -12.73727,-4.139c0,0 24.52429,11.50411 28.81583,25.21337c4.43907,14.18053 7.51475,22.15462 8.7586,36.96157c0.64153,7.63699 0.56009,12.01252 -0.67309,19.57652c-3.61554,22.17682 -5.92841,16.30902 -5.92841,16.30902c0,0 -14.57126,-9.79298 -12.69698,-23.6347c0,0 -1.34344,-10.82939 -4.38699,-16.86079z" data-paper-data="{&quot;index&quot;:null,&quot;origRot&quot;:0}" fill="url(#color-1)" stroke="#0f0801" stroke-width="1" stroke-linecap="butt"/><path d="M321.52696,122.69821c0.11883,-5.70136 0.49428,-23.71512 0.85546,-41.04461c0.02627,-1.26027 2.71305,-3.17413 2.71305,-3.17413c0,0 13.58348,-3.07841 22.53546,-2.89183c1.42125,0.02962 3.59365,2.38549 3.56284,3.86376c-0.35892,17.22053 -0.80766,38.75105 -0.91968,44.12543c-0.03734,1.79142 -2.31623,4.54409 -3.73746,4.51447c0,0 -17.31448,-0.36087 -21.51947,-0.44852c-1.4017,-0.02921 -3.52976,-3.0441 -3.49015,-4.94455z" data-paper-data="{&quot;index&quot;:null,&quot;origRot&quot;:0}" fill="#000000" stroke="#00360a" stroke-width="0" stroke-linecap="butt"/><path d="M294.63733,135.11492l19.90288,0.41482" data-paper-data="{&quot;index&quot;:null,&quot;origRot&quot;:0}" fill="none" stroke="#000000" stroke-width="0.5" stroke-linecap="round"/><path d="M304.75032,120.25976c-0.0396,1.90045 -2.29145,4.82405 -3.69315,4.79484c-4.20501,-0.08764 -21.51947,-0.44852 -21.51947,-0.44852c-1.42123,-0.02962 -3.58346,-2.87485 -3.54612,-4.66629c0.11202,-5.37439 0.56077,-26.9049 0.91969,-44.12542c0.03081,-1.47827 2.29948,-3.74158 3.72073,-3.71196c8.952,0.18658 22.3954,3.8283 22.3954,3.8283c0,0 2.60469,2.02415 2.57842,3.28441c-0.36119,17.3295 -0.73663,35.34324 -0.85546,41.0446z" data-paper-data="{&quot;index&quot;:null,&quot;origRot&quot;:0}" fill="#000000" stroke="#00360a" stroke-width="0" stroke-linecap="butt"/><path d="M216.08525,293.95153c0,0 -0.6176,-9.49727 -0.6176,-15.37833c0,-17.64325 2.09301,-87.19201 2.09301,-87.19201l1.70869,0.17155l0.58331,106.10443z" fill="#b7ff97" stroke="none" stroke-width="0" stroke-linecap="butt"/><path d="M187.51763,401.27058c0,0 4.33538,-14.7653 6.80278,-24.83075c0.90699,-3.69993 1.84368,-10.44129 1.84368,-10.44129l2.4704,-0.72055l-8.16611,36.23277z" fill="#b19300" stroke="none" stroke-width="0" stroke-linecap="butt"/><path d="M171.21974,414.13734c4.30308,-6.75252 16.81257,-11.40853 16.81257,-11.40853c0,0 -11.28592,7.49888 -13.93042,11.64871c-2.6445,4.14983 -1.68126,14.10977 -1.68126,12.84961c0,-1.26016 -5.50397,-6.33727 -1.20089,-13.08979z" fill="#b19300" stroke="none" stroke-width="0" stroke-linecap="butt"/><path d="M249.03788,430.46955l1.20089,-64.60827l2.88217,-0.48038c0,0 -1.60461,3.46842 -1.86301,17.52536c-0.21026,11.43847 -0.05843,47.80345 -0.05843,47.80345z" fill="#b19300" stroke="none" stroke-width="0" stroke-linecap="butt"/><path d="M215.20688,431.17292c0,0 2.85039,-22.67098 4.18069,-37.36589c1.3303,-14.69494 3.73838,-29.64417 3.73838,-29.64417l4.43302,3.70564c0,0 -1.53025,17.64658 -2.41305,28.9413c-1.02936,13.16964 -4.33942,33.74553 -4.33942,33.74553z" fill="#665500" stroke="none" stroke-width="0" stroke-linecap="butt"/><path d="M266.65179,295.86613c0,0 3.2258,-6.2566 3.90692,-25.94133c0.72488,-20.9486 4.73954,-78.17647 4.73954,-78.17647c0,0 1.44108,42.61587 1.44108,69.89221c0,12.65399 -1.44108,32.42423 -1.44108,32.42423z" fill="#56d420" stroke="none" stroke-width="0" stroke-linecap="butt"/><g data-paper-data="{&quot;origRot&quot;:0}"><path d="M402.15069,120.31113c1.80214,-18.23346 34.03405,-42.94007 34.03405,-42.94007c0,0 26.87021,29.54128 24.96951,48.77181c-1.90069,19.23052 -16.47146,31.70911 -32.76484,30.09872c-16.29338,-1.61039 -28.04086,-17.697 -26.23872,-35.93047z" data-paper-data="{&quot;origPos&quot;:null,&quot;index&quot;:null}" fill="url(#color-2)" stroke="#0066ff" stroke-width="0" stroke-linecap="butt"/><g data-paper-data="{&quot;index&quot;:null}"><g data-paper-data="{&quot;origPos&quot;:null}" stroke="#ffffff" stroke-width="0" stroke-linecap="butt"><path d="M448.80007,126.83711c-2.6913,-0.26601 -4.34747,-5.79915 -3.69914,-12.35863c0.64832,-6.5595 0.93609,-11.9005 6.04692,-11.39537c5.11082,0.50514 4.34745,5.79916 3.69912,12.35863c-0.64832,6.55948 -3.35561,11.66137 -6.0469,11.39537z" data-paper-data="{&quot;index&quot;:null}" fill="url(#color-3)"/><path d="M432.22945,123.87762c-2.6913,-0.26601 -4.34747,-5.79916 -3.69914,-12.35864c0.3295,-3.33384 0.93609,-11.9005 6.04692,-11.39536c5.11082,0.50514 4.34745,5.79916 3.69913,12.35863c-0.64832,6.55948 -3.35561,11.66137 -6.0469,11.39536z" data-paper-data="{&quot;index&quot;:null}" fill="url(#color-4)"/></g><path d="M439.71286,132.8375c0,0 -3.01663,1.24098 -4.37233,1.12235c-1.90521,-0.16671 -3.98333,-1.85351 -3.98333,-1.85351" fill="none" stroke="#268436" stroke-width="2.5" stroke-linecap="round"/></g></g><g data-paper-data="{&quot;index&quot;:null,&quot;origRot&quot;:0}" stroke-width="0.5" stroke-linecap="butt"><path d="M364.16881,196.48367c-0.97545,9.41624 -9.8669,16.21049 -19.85966,15.17533c-9.99272,-1.03517 -17.30278,-9.50764 -16.32731,-18.92388c0.97546,-9.41625 9.86689,-16.21044 19.85966,-15.17533c9.99272,1.03517 17.30275,9.50764 16.32731,18.92391z" data-paper-data="{&quot;origPos&quot;:null}" fill="#fff8d5" stroke="#45433a"/><path d="M231.57619,168.1627c0,0 36.85911,12.08603 61.06747,13.66551c24.20834,1.57947 52.42369,-5.08256 52.42369,-5.08256c0,0 4.90253,9.91067 5.57464,17.90067c0.67208,7.99 -2.55665,17.97791 -2.55665,17.97791c0,0 -38.11404,3.4598 -61.97783,0.26764c-23.86379,-3.19218 -52.82799,-11.42241 -60.1386,-15.64412c-7.80601,-4.50779 -14.8728,-12.20176 -11.92184,-30.06163z" data-paper-data="{&quot;origRot&quot;:0,&quot;origPos&quot;:null}" fill="#67ff26" stroke="#183b09"/></g><path d="M347.16419,212.38525c0,0 -44.59276,2.65169 -66.35976,-1.14445c-28.98603,-5.05514 -20.27173,-4.29791 -42.50305,-9.88252c-19.52969,-4.90594 -16.48128,-8.69223 -16.48128,-8.69223c0,0 36.41285,9.79051 62.03607,14.43602c19.50973,3.53713 64.39618,0.01182 64.39618,0.01182z" data-paper-data="{&quot;origRot&quot;:0,&quot;index&quot;:null}" fill="#b7ff97" stroke="none" stroke-width="0" stroke-linecap="butt"/><path d="M217.03991,190.82381l5.19514,-24.244l11.33486,1.73171v22.51229z" data-paper-data="{&quot;index&quot;:null}" fill="#67ff26" stroke="none" stroke-width="0" stroke-linecap="butt"/><path d="M148.18698,310.39959l0.31701,-96.56916l52.48523,-3.35538l-0.34162,104.06539z" data-paper-data="{&quot;index&quot;:null}" fill="#86ffa7" stroke="#000000" stroke-width="0" stroke-linecap="butt"/><path d="M151.34743,229.71789c1.48348,-7.45205 6.80382,-12.6734 11.88331,-11.66222c5.0795,1.01119 7.99464,7.87198 6.51115,15.32402c-1.48348,7.45205 -6.80381,12.67339 -11.88331,11.66221c-5.07949,-1.01117 -7.99464,-7.87195 -6.51116,-15.324z" data-paper-data="{&quot;origRot&quot;:0,&quot;index&quot;:null}" fill="url(#color-5)" stroke="none" stroke-width="0" stroke-linecap="butt"/><path d="M164.87658,228.34767c3.21464,0.01055 5.81033,3.15155 5.79764,7.0156c-0.01268,3.86404 -2.62893,6.98793 -5.84358,6.97738c-3.21464,-0.01055 -5.81033,-3.15155 -5.79764,-7.0156c0.01268,-3.86404 2.62893,-6.98793 5.84358,-6.97738z" data-paper-data="{&quot;index&quot;:null}" fill="url(#color-6)" stroke="none" stroke-width="0" stroke-linecap="butt"/><path d="M167.36714,290.46502c7.90009,0.02594 14.28922,4.66006 14.27054,10.35061c-0.01868,5.69056 -6.43811,10.28263 -14.33819,10.2567c-7.90009,-0.02594 -14.28921,-4.66005 -14.27053,-10.35061c0.01868,-5.69056 6.43809,-10.28263 14.33818,-10.2567z" data-paper-data="{&quot;index&quot;:null}" fill="url(#color-7)" stroke="none" stroke-width="0" stroke-linecap="butt"/><path d="M176.11168,271.51041c3.36077,0.01103 6.06993,4.66811 6.0511,10.40187c-0.01883,5.73377 -2.7585,10.37294 -6.11927,10.36191c-3.36076,-0.01104 -6.06993,-4.66811 -6.0511,-10.40187c0.01883,-5.73377 2.7585,-10.37294 6.11927,-10.36191z" data-paper-data="{&quot;index&quot;:null}" fill="url(#color-8)" stroke="none" stroke-width="0" stroke-linecap="butt"/><g data-paper-data="{&quot;origRot&quot;:0}" fill="#4ec0ff" stroke="#000000" stroke-width="1" stroke-linecap="butt"><g><path d="M296.60127,230.04896l0.06112,53.05152c0,0 -4.00435,0.05608 -6.56734,0.09197c-0.15628,0.00219 -0.49795,-11.72039 -0.65423,-11.7182c-1.87536,0.02627 -5.09243,0.07131 -6.96779,0.09758c-0.15628,0.00219 -0.55102,11.73508 -0.70729,11.73727c-0.46884,0.00656 -23.54633,0.32974 -23.54633,0.32974l-0.06112,-53.05152l23.30159,-0.28472l0.87226,-11.50194c0,0 3.66834,-0.05137 6.8877,-0.09645c0.15628,-0.00219 0.57772,11.44005 0.734,11.43786c2.68801,-0.03765 6.64743,-0.09309 6.64743,-0.09309z" data-paper-data="{&quot;origRot&quot;:0}"/><path d="M334.75028,230.04896l0.06112,53.05153c0,0 -4.00435,0.05607 -6.56734,0.09197c-0.15628,0.00219 -0.49795,-11.72039 -0.65423,-11.7182c-1.87536,0.02626 -5.09243,0.07131 -6.96779,0.09757c-0.15628,0.00219 -0.55102,11.73509 -0.7073,11.73727c-0.46884,0.00656 -23.54633,0.32974 -23.54633,0.32974l-0.06112,-53.05152l23.30159,-0.28472l0.87226,-11.50195c0,0 3.66834,-0.05137 6.8877,-0.09645c0.15628,-0.00219 0.57772,11.44005 0.734,11.43786c2.68802,-0.03764 6.64743,-0.09309 6.64743,-0.09309z" data-paper-data="{&quot;origRot&quot;:0}"/></g><g><path d="M220.0164,232.04896l0.06112,53.05153c0,0 -4.00435,0.05607 -6.56734,0.09197c-0.15628,0.00219 -0.49795,-11.72039 -0.65423,-11.7182c-1.87536,0.02626 -5.09243,0.07131 -6.96779,0.09757c-0.15628,0.00219 -0.55102,11.73509 -0.70729,11.73727c-0.46884,0.00656 -23.54633,0.32974 -23.54633,0.32974l-0.06112,-53.05152l23.30159,-0.28472l0.87226,-11.50195c0,0 3.66834,-0.05137 6.8877,-0.09645c0.15628,-0.00219 0.57772,11.44005 0.734,11.43786c2.68802,-0.03764 6.64743,-0.09309 6.64743,-0.09309z" data-paper-data="{&quot;origRot&quot;:0}"/><path d="M258.16542,232.04896l0.06112,53.05153c0,0 -4.00435,0.05607 -6.56734,0.09197c-0.15628,0.00219 -0.49795,-11.72039 -0.65423,-11.7182c-1.87536,0.02626 -5.09243,0.07131 -6.96779,0.09757c-0.15628,0.00219 -0.55102,11.73509 -0.7073,11.73727c-0.46884,0.00656 -23.54633,0.32974 -23.54633,0.32974l-0.06112,-53.05152l23.30159,-0.28472l0.87226,-11.50195c0,0 3.66834,-0.05137 6.8877,-0.09645c0.15628,-0.00219 0.57772,11.44005 0.734,11.43786c2.68802,-0.03764 6.64743,-0.09309 6.64743,-0.09309z" data-paper-data="{&quot;origRot&quot;:0}"/></g></g><path d="M176.84227,297.70583c0,0 -2.16156,-18.0835 -2.02403,-40.13398c0.14736,-23.62531 2.81192,-35.70852 2.81192,-35.70852l11.85514,0.47987l-0.24753,75.40332z" data-paper-data="{&quot;index&quot;:null}" fill="#86ffa7" stroke="none" stroke-width="0" stroke-linecap="butt"/><path d="M170.41053,221.65957c0.017,-5.17912 6.19035,-9.35742 13.78859,-9.33248c7.59824,0.02494 13.74402,4.24368 13.72702,9.4228c-0.017,5.17912 -6.19035,9.35742 -13.78859,9.33248c-7.59824,-0.02494 -13.74401,-4.24369 -13.727,-9.4228z" data-paper-data="{&quot;index&quot;:null}" fill="url(#color-9)" stroke="none" stroke-width="0" stroke-linecap="butt"/><path d="M188.26994,221.50139c14.17362,0.04653 25.59553,20.81794 25.51156,46.39421c-0.08396,25.57628 -11.64199,46.27228 -25.81561,46.22575c-14.17362,-0.04653 -25.59552,-20.81797 -25.51157,-46.39424c0.08395,-25.57627 11.64199,-46.27225 25.81561,-46.22572z" data-paper-data="{&quot;index&quot;:null}" fill="url(#color-10)" stroke="none" stroke-width="0" stroke-linecap="butt"/><path d="M175.74248,289.94133c3.21464,0.01055 5.81033,3.15155 5.79764,7.0156c-0.01268,3.86407 -2.62893,6.98793 -5.84358,6.97738c-3.21464,-0.01055 -5.81033,-3.15155 -5.79764,-7.0156c0.01268,-3.86407 2.62893,-6.98793 5.84358,-6.97738z" data-paper-data="{&quot;index&quot;:null}" fill="url(#color-11)" stroke="none" stroke-width="0" stroke-linecap="butt"/><path d="M154.24413,295.72083l0.23668,-72.09615l23.81158,0.07817l-0.23668,72.09615z" data-paper-data="{&quot;index&quot;:null}" fill="url(#color-12)" stroke="none" stroke-width="NaN" stroke-linecap="butt"/></g></g></svg>