<svg version="1.1" xmlns="http://www.w3.org/2000/svg" xmlns:xlink="http://www.w3.org/1999/xlink" width="973.51408" height="325.69683" viewBox="0,0,973.51408,325.69683"><defs><linearGradient x1="-195.59029" y1="165.38484" x2="-195.59029" y2="281.46474" gradientUnits="userSpaceOnUse" id="color-1"><stop offset="0" stop-color="#4d8125"/><stop offset="1" stop-color="#3c641d"/></linearGradient><linearGradient x1="-195.59025" y1="165.38483" x2="-195.59025" y2="281.46478" gradientUnits="userSpaceOnUse" id="color-2"><stop offset="0" stop-color="#4c8024"/><stop offset="1" stop-color="#3c651d"/></linearGradient><linearGradient x1="237.60971" y1="172.28484" x2="237.60971" y2="288.36474" gradientUnits="userSpaceOnUse" id="color-3"><stop offset="0" stop-color="#4d8125"/><stop offset="1" stop-color="#3c641d"/></linearGradient><linearGradient x1="237.60975" y1="172.28483" x2="237.60975" y2="288.36479" gradientUnits="userSpaceOnUse" id="color-4"><stop offset="0" stop-color="#4c8024"/><stop offset="1" stop-color="#3c651d"/></linearGradient><linearGradient x1="-63.66299" y1="122.85574" x2="-63.66299" y2="203.16604" gradientUnits="userSpaceOnUse" id="color-5"><stop offset="0" stop-color="#4d842c"/><stop offset="1" stop-color="#417025"/></linearGradient><linearGradient x1="-63.66294" y1="122.85573" x2="-63.66294" y2="203.1661" gradientUnits="userSpaceOnUse" id="color-6"><stop offset="0" stop-color="#4d842c"/><stop offset="1" stop-color="#417025"/></linearGradient><linearGradient x1="-194.95569" y1="189.43563" x2="-194.95569" y2="383.56264" gradientUnits="userSpaceOnUse" id="color-7"><stop offset="0" stop-color="#3e691d"/><stop offset="1" stop-color="#2a4614"/></linearGradient><linearGradient x1="-194.95572" y1="189.43565" x2="-194.95572" y2="383.56268" gradientUnits="userSpaceOnUse" id="color-8"><stop offset="0" stop-color="#3d681c"/><stop offset="1" stop-color="#2a4714"/></linearGradient><linearGradient x1="-115.28059" y1="164.71494" x2="-23.57269" y2="173.84914" gradientUnits="userSpaceOnUse" id="color-9"><stop offset="0" stop-color="#ccb838"/><stop offset="1" stop-color="#b79e34"/></linearGradient><linearGradient x1="-109.80644" y1="83.86073" x2="-109.80644" y2="167.6358" gradientUnits="userSpaceOnUse" id="color-10"><stop offset="0" stop-color="#ccb838"/><stop offset="1" stop-color="#b79e34"/></linearGradient><linearGradient x1="194.19431" y1="186.48564" x2="194.19431" y2="380.61264" gradientUnits="userSpaceOnUse" id="color-11"><stop offset="0" stop-color="#3e691d"/><stop offset="1" stop-color="#2a4614"/></linearGradient><linearGradient x1="194.19428" y1="186.48565" x2="194.19428" y2="380.61268" gradientUnits="userSpaceOnUse" id="color-12"><stop offset="0" stop-color="#3d681c"/><stop offset="1" stop-color="#2a4714"/></linearGradient></defs><g transform="translate(232.71589,-58.90922)"><g data-paper-data="{&quot;isPaintingLayer&quot;:true}" fill-rule="nonzero" stroke-linecap="round" stroke-linejoin="miter" stroke-miterlimit="10" stroke-dasharray="" stroke-dashoffset="0" style="mix-blend-mode: normal"><g><path d="M-194.21529,188.52194c0.5185,-5.4204 1.6308,-5.6593 3.1301,-7.3037c3.199,-1.348 4.0942,-1.3898 5.2169,-2.0868c0.8201,-0.5383 1.1738,-1.7215 2.0868,-2.0867c0.9682,-0.3871 2.1076,0.2045 3.1301,0c0.7617,-0.1524 1.3251,-0.8911 2.0868,-1.0434c1.0225,-0.2045 2.0982,0.1471 3.1301,0c1.418,-0.2024 2.7556,-0.841 4.1735,-1.0434c1.0319,-0.1471 2.0878,0 3.1302,0c0.6949,0 1.419,-0.1909 2.0867,0c1.7988,0.5144 3.7197,0.9641 5.2169,2.0868c1.3898,1.0423 1.8113,3.0425 3.1302,4.1735c1.18,1.011 2.8244,1.3157 4.1735,2.0868c1.0872,0.6218 2.0554,1.4419 3.1301,2.0867c0.6657,0.3996 1.3095,1.0434 2.0868,1.0434c1.4326,0 2.8922,-0.4027 4.1735,-1.0434c0.8785,-0.4392 1.2437,-1.5807 2.0868,-2.0867c0.9421,-0.5656 2.0523,-0.8274 3.1301,-1.0434c0.6813,-0.1367 1.442,0.2577 2.0868,0c1.1633,-0.4654 1.9532,-1.659 3.1301,-2.0868c2.693,-0.9787 5.5675,-1.3918 8.347,-2.0867c1.3898,-0.3475 2.7608,-0.8076 4.1736,-1.0434c0.6855,-0.1137 1.3918,0 2.0867,0c1.0424,0 2.0878,0 3.1302,0c2.4321,0 4.8715,0 7.3036,0c2.0847,0 4.1913,-0.2588 6.2603,0c0.7711,0.096 1.3334,0.8545 2.0868,1.0434c0.674,0.169 1.4127,-0.1691 2.0867,0c0.7533,0.1888 1.3658,0.7543 2.0868,1.0433c1.0204,0.408 2.1473,0.552 3.1301,1.0434c1.1206,0.5603 2.0012,1.5505 3.1302,2.0868c4.0597,1.3512 4.0629,2.3528 5.2169,3.1301c0.6124,0.4675 1.3334,0.8545 2.0867,1.0434c0.674,0.169 1.3919,0 2.0868,0c0.6949,0 1.4012,0.1137 2.0867,0c1.4128,-0.2358 2.7608,-0.8076 4.1736,-1.0434c0.6855,-0.1137 1.3918,0 2.0867,0c0.6949,0 1.3919,0 2.0868,0c0.6949,0 1.4054,-0.1367 2.0867,0c1.0778,0.216 2.1097,0.6354 3.1302,1.0434c0.7209,0.289 1.4211,0.6438 2.0867,1.0434c1.0747,0.6448 2.0096,1.5264 3.1302,2.0867c0.9828,0.4915 2.1097,0.63549 3.1301,1.0434c0.721,0.289 1.5369,0.4935 2.0868,1.0434c0.5498,0.5499 0.4935,1.5369 1.0434,2.0868c0.5498,0.5498 1.6203,0.4215 2.0867,1.0433c0.6594,0.8786 0.4779,2.188 1.0434,3.1302c0.506,0.843 1.3919,1.3918 2.0867,2.0867c0.6949,0.6949 1.4973,1.30111 2.0868,2.0868c0.4664,0.6219 0.577,1.4649 1.0434,2.0868c0.5895,0.7856 1.4972,1.30111 2.0867,2.0867c0.4664,0.6219 0.7544,1.3658 1.0434,2.0868c0.408,1.0204 0.384,2.2516 1.0434,3.1301c0.4664,0.6219 1.6204,0.4215 2.0868,1.0434c0.6594,0.8785 0.6354,2.1097 1.0433,3.1301c0.2891,0.721 0.577,1.4649 1.0434,2.0868c0.5895,0.7857 1.3011,1.4972 2.0868,2.0868c0.6218,0.4663 1.6558,0.3964 2.0867,1.0433c0.3851,0.5781 -0.4914,1.59539 0,2.08679c0.4915,0.4914 1.5088,0.385 2.0868,0c0.6469,-0.4309 0.6438,-1.42109 1.0434,-2.08679c0.6448,-1.0746 1.2009,-2.2443 2.0867,-3.13011c0.8859,-0.8858 2.1515,-1.3042 3.1302,-2.0868c0.7669,-0.6135 1.3199,-1.4732 2.0867,-2.0867c0.9787,-0.7826 2.0096,-1.5265 3.1302,-2.0868c0.9828,-0.4914 2.2516,-0.3839 3.1301,-1.0434c0.6219,-0.4664 0.3965,-1.6558 1.0434,-2.0867c0.578,-0.385 1.5087,0.385 2.0868,0c0.6469,-0.4309 0.3964,-1.6559 1.0433,-2.0868c0.5781,-0.385 1.4055,0.1367 2.0868,0c1.0778,-0.216 2.1097,-0.6354 3.1301,-1.0434c0.721,-0.289 1.4211,-0.6437 2.0868,-1.0433c1.0747,-0.6449 2.0555,-1.442 3.1301,-2.0868c0.6657,-0.3996 1.3658,-0.7544 2.0868,-1.0434c1.0204,-0.4079 2.0523,-0.8274 3.1301,-1.0434c0.6814,-0.1366 1.4013,0.1138 2.0868,0c1.4127,-0.2358 2.7556,-0.8409 4.1735,-1.0433c1.0319,-0.1472 2.0878,0 3.1302,0c1.7372,0 3.4796,0 5.2169,0c1.3897,0 2.7837,0 4.1735,0c1.0423,0 2.1076,-0.2045 3.1301,0c0.7617,0.1523 1.4211,0.6437 2.0868,1.0433c1.0747,0.6448 2.1681,1.2844 3.1301,2.0868c1.1321,0.9432 1.9793,2.2088 3.1302,3.1301c0.6062,0.4852 1.3918,0.696 2.0867,1.0434c0.6949,0.3475 1.3658,1.3324 2.0868,1.0434c1.3689,-0.5478 2.2088,-1.9793 3.1301,-3.1301c0.4852,-0.6062 0.6959,-1.3919 1.0434,-2.0868c0.3474,-0.6949 0.577,-1.4649 1.0434,-2.0868c0.5895,-0.7856 1.4972,-1.3011 2.0867,-2.0867c0.4664,-0.6219 0.4935,-1.5369 1.0434,-2.0868c0.5499,-0.5498 1.4806,-0.5582 2.0868,-1.0434c1.1508,-0.9213 2.0106,-2.1712 3.1301,-3.1301c1.3188,-1.131 2.7284,-2.1661 4.1735,-3.1301c0.6469,-0.431 1.3658,-0.7544 2.0868,-1.0434c1.0204,-0.408 2.1473,-0.552 3.1301,-1.0434c1.8124,-0.9057 3.3545,-2.332 5.2169,-3.1301c0.6386,-0.2734 1.4128,0.169 2.0868,0c0.7533,-0.1889 1.3157,-0.9474 2.0867,-1.0434c2.0691,-0.2588 4.1757,0 6.2603,0c1.0424,0 2.0878,0 3.1302,0c0.6949,0 1.3918,0 2.0867,0c0.6949,0 1.3919,0 2.0868,0c1.0423,0 2.0878,0 3.1301,0c1.3898,0 2.8025,-0.2285 4.1735,0c0.7659,0.1273 1.4649,0.577 2.0868,1.0434c0.7857,0.5895 1.3011,1.4972 2.0868,2.0867c0.6218,0.4664 1.3334,0.8545 2.0867,1.0434c0.674,0.169 1.5953,0.4914 2.0868,0c0.4914,-0.4914 -0.385,-1.5087 0,-2.0868c0.4309,-0.6469 1.4649,-0.5769 2.0867,-1.0433c0.7857,-0.5895 1.3199,-1.4733 2.0868,-2.0868c0.9787,-0.7825 2.0555,-1.4419 3.1301,-2.0868c0.6657,-0.3996 1.5369,-0.4935 2.0868,-1.0433c0.5499,-0.5499 0.4935,-1.5369 1.0434,-2.0868c0.5498,-0.5499 1.4117,-0.6584 2.0867,-1.0434c1.7592,-1.0048 3.4578,-2.1253 5.2169,-3.1301c0.6751,-0.385 1.3919,-0.696 2.0868,-1.0434c0.6949,-0.3474 1.3334,-0.8545 2.0868,-1.0434c0.674,-0.169 1.4054,0.1367 2.0867,0c1.0778,-0.216 2.0638,-0.7773 3.1302,-1.0434c1.7184,-0.4298 3.4588,-0.8232 5.2169,-1.0433c1.0339,-0.1294 2.0982,0.1471 3.1301,0c1.4179,-0.2025 2.7754,-0.7325 4.1735,-1.0434c1.7299,-0.384 3.4588,-0.82319 5.2169,-1.0434c1.034,-0.1294 2.0878,0 3.1301,0c0.6949,0 1.3919,0 2.0868,0c0.6949,0 1.3919,0 2.0868,0c1.0423,0 2.1723,-0.4111 3.1301,0c1.5964,0.6845 2.7284,2.1661 4.1735,3.1301c0.6469,0.431 1.4649,0.577 2.0868,1.0434c0.7857,0.5895 1.3919,1.39191 2.0867,2.0868c0.6949,0.6949 1.3919,1.3919 2.0868,2.0867c1.3898,1.3898 2.7837,2.7838 4.1735,4.1736c0.6949,0.6949 1.4973,1.3011 2.0868,2.0867c0.4664,0.6219 0.3965,1.6559 1.0434,2.0868c0.578,0.385 1.3918,0 2.0867,0c0.6949,0 1.3971,0.0866 2.0868,0c2.0972,-0.2619 4.1631,-0.7815 6.2603,-1.0434c0.6896,-0.0866 1.4127,0.169 2.0867,0c0.7533,-0.1889 1.3335,-0.8545 2.0868,-1.0434c0.674,-0.169 1.3918,0 2.0867,0c0.6949,0 1.3919,0 2.0868,0c0.6949,0 1.3919,0 2.0868,0c0.6949,0 1.4012,-0.1137 2.0867,0c1.4128,0.2358 2.814,0.5906 4.1735,1.0434c0.7367,0.2452 1.4211,0.6438 2.0868,1.0434c1.0747,0.6448 1.9668,1.6214 3.1301,2.0867c0.6448,0.2578 1.5526,-0.4444 2.0868,0c1.7091,1.4243 2.7253,3.5277 4.1735,5.2169c0.6396,0.7461 1.2802,1.4796 2.0868,2.0868c5.9358,4.6775 7.2494,6.7788 9.3904,9.3904c0.5895,0.7293 0.4935,1.5369 1.0434,2.0868c0.5498,0.5498 1.3918,1.3908 2.0867,1.0434c1.7581,-0.8786 2.9152,-2.6638 4.1736,-4.1736c0.4976,-0.5968 0.5769,-1.4649 1.0433,-2.0867c0.5895,-0.7857 1.4576,-1.3314 2.0868,-2.0868c1.1122,-1.3345 2.0179,-2.839 3.1301,-4.1735c0.6292,-0.7554 1.3011,-1.4973 2.0868,-2.0868c0.6218,-0.4664 1.4117,-0.6583 2.0867,-1.0433c1.7592,-1.0048 3.4985,-2.0565 5.2169,-3.1302c1.0622,-0.6636 2.0555,-1.4419 3.1302,-2.0867c0.6657,-0.3997 1.3919,-0.696 2.0867,-1.0434c0.6949,-0.3475 1.3658,-0.7544 2.0868,-1.0434c1.0204,-0.408 2.0523,-0.8274 3.1301,-1.0434c0.6814,-0.1367 1.3919,0 2.0868,0c1.7372,0 3.4797,0 5.2169,0c0.6949,0 1.3919,0 2.0868,0c1.0423,0 2.0878,0 3.1301,0c0.6949,0 1.419,-0.1909 2.0868,0c1.7988,0.5144 3.6528,1.0601 5.2169,2.0868c1.5076,2.1723 2.2067,2.4957 3.1301,3.1301c0.6511,0.4163 1.5369,0.4935 2.0868,1.0434c1.228,1.2281 2.166,2.7284 3.1301,4.1735c0.4309,0.6469 0.6959,1.3919 1.0434,2.0868c0.3474,0.6949 0.8545,1.3334 1.0434,2.0867c0.169,0.6741 -0.1691,1.4128 0,2.0868c0.1888,0.7533 0.8545,1.3334 1.0433,2.0868c0.1691,0.674 -0.1846,2.0867 0,2.0867c0.1847,0 0.2901,-1.8958 1.0434,-2.0867c1.0497,-0.2661 2.2788,1.7674 3.078,1.0433c1.516,-4.6399 2.0888,-3.9972 3.1823,-5.2169c2.3069,-2.0721 2.8787,-1.637 4.1735,-2.0867c2.0763,-0.7001 5.7741,-3.5611 7.2515,-1.5651c1.6506,3.2178 -0.9818,7.9213 -0.9912,11.9989c-0.0104,3.1239 0,6.2634 0,9.3904c0,2.7796 0,5.5675 0,8.347c0,3.8219 0,7.6553 0,11.4772c0,2.7796 0,5.5675 0,8.347c0,1.7373 0,3.4797 0,5.2169c0,1.3898 0,2.7838 0,4.1736c0,1.7372 0,3.4796 0,5.2169c0,1.7372 0,3.4796 0,5.2169c0,1.0423 0,2.0878 0,3.1301c0,0.6949 0.6219,1.7758 0,2.0868c-1.2427,0.6218 -1.827,-0.1513 -4.1735,0c-9.3873,0.6051 -18.8174,1.0945 -28.1713,2.0867c-13.5848,1.4409 -27.0788,4.0629 -40.6918,5.2169c-6.9239,0.5864 -13.9354,-0.4841 -20.8676,0c-8.0392,0.5614 -15.9564,2.5939 -23.9977,3.1302c-7.6271,0.5081 -15.3189,-0.3548 -22.9544,0c-7.3214,0.3401 -14.6136,1.4075 -21.911,2.0867c-7.6427,0.7106 -15.2886,1.7133 -22.9543,2.0868c-6.5931,0.3213 -13.2259,-0.1941 -19.8242,0c-5.2211,0.1534 -10.4296,0.8806 -15.6507,1.0434c-5.9035,0.1846 -11.8309,0 -17.7375,0c-6.9489,0 -13.9187,0 -20.8676,0c-6.254,0 -12.5289,0.169 -18.7808,0c-6.6077,-0.1785 -13.2165,-0.8368 -19.8242,-1.0434c-4.5147,-0.1409 -9.0472,0 -13.564,0c-4.5168,0 -9.0471,0 -13.5639,0c-6.6015,0 -13.2248,0.1732 -19.8242,0c-6.6088,-0.1743 -13.2165,-0.8368 -19.8242,-1.0434c-4.5147,-0.1409 -9.0472,0 -13.564,0c-4.5168,0 -9.0471,0 -13.5639,0c-3.8219,0 -7.6553,0 -11.4772,0c-4.5168,0 -9.0471,0 -13.5639,0c-3.8219,0 -7.6553,0 -11.4772,0c-7.6438,0 -15.3105,0 -22.9544,0c-2.4321,0 -4.8778,0.1732 -7.3036,0c-2.4509,-0.1753 -4.8538,-0.8545 -7.3037,-1.0434c-2.0784,-0.1596 -4.1756,0 -6.2602,0c-3.1271,0 -6.2635,0 -9.3905,0c-3.127,0 -6.2686,0.1732 -9.3904,0c-3.1416,-0.1742 -6.4053,-0.048 -9.3904,-1.0434c-0.746,-0.2483 0,-1.3918 0,-2.0867c0,-1.0424 0,-2.0878 0,-3.1302c0,-1.3897 0,-2.7837 0,-4.1735c0,-2.0846 0,-4.1756 0,-6.2603c0,-1.7372 0,-3.4796 0,-5.2169c0,-1.7372 0,-3.4796 0,-5.2169c0,-1.0423 0,-2.0878 0,-3.1301c0,-2.4321 0,-4.8715 0,-7.3037c0,-1.7372 0,-3.4796 0,-5.2168c0,-2.0847 0,-4.1757 0,-6.2603c0,-1.7373 0,-3.4797 0,-5.2169c0,-1.3898 0,-2.7838 0,-4.1735c0,-1.7373 0,-3.4797 0,-5.2169c0,-1.0424 0,-2.0878 0,-3.1302c0,-1.3898 0,-2.7837 0,-4.1735c0,-1.3898 -0.1722,-2.7942 0,-4.1735c0.1774,-1.4211 0.866,-2.7525 1.0434,-4.1735c0.1721,-1.3794 0,-2.7838 0,-4.1736c0,-2.0846 -0.1169,-4.1891 0,-6.2602z" id="ID0.10417793085798621" fill="url(#color-1)" stroke="url(#color-2)" stroke-width="2.08676"/><path d="M238.98471,195.42194c0.5185,-5.4204 1.6308,-5.6593 3.1301,-7.3037c3.199,-1.348 4.0942,-1.38981 5.2169,-2.08681c0.8201,-0.5383 1.1738,-1.7215 2.0868,-2.0867c0.9682,-0.3871 2.1076,0.2045 3.1301,0c0.7617,-0.1524 1.3251,-0.8911 2.0868,-1.0434c1.0225,-0.2045 2.0982,0.1471 3.1301,0c1.418,-0.2024 2.7556,-0.84099 4.1735,-1.04339c1.0319,-0.1471 2.0878,0 3.1302,0c0.6949,0 1.419,-0.1909 2.0867,0c1.7988,0.5144 3.7197,0.9641 5.2169,2.0868c1.3898,1.0423 1.8113,3.0425 3.1302,4.1735c1.18,1.011 2.8244,1.3157 4.1735,2.08679c1.0872,0.6218 2.0554,1.4419 3.1301,2.0867c0.6657,0.3996 1.3095,1.04341 2.0868,1.04341c1.4326,0 2.8922,-0.4027 4.1735,-1.04341c0.8785,-0.4392 1.2437,-1.5807 2.0868,-2.0867c0.9421,-0.5656 2.0523,-0.82739 3.1301,-1.0434c0.6813,-0.1367 1.442,0.2577 2.0868,0c1.1633,-0.4654 1.9532,-1.65901 3.1301,-2.0868c2.693,-0.9787 5.5675,-1.3918 8.347,-2.08669c1.3898,-0.3475 2.7608,-0.8076 4.1736,-1.0434c0.6855,-0.1137 1.3918,0 2.0867,0c1.0424,0 2.0878,0 3.1302,0c2.4321,0 4.8715,0 7.3036,0c2.0847,0 4.1913,-0.2588 6.2603,0c0.7711,0.096 1.3334,0.8545 2.0868,1.0434c0.674,0.169 1.4127,-0.1691 2.0867,0c0.7533,0.1888 1.3658,0.75429 2.0868,1.04329c1.0204,0.408 2.1473,0.552 3.1301,1.0434c1.1206,0.5603 2.0012,1.5505 3.1302,2.0868c4.0597,1.3512 4.0629,2.3528 5.2169,3.1301c0.6124,0.4675 1.3334,0.8545 2.0867,1.0434c0.674,0.169 1.3919,0 2.0868,0c0.6949,0 1.4012,0.1137 2.0867,0c1.4128,-0.2358 2.7608,-0.8076 4.1736,-1.0434c0.6855,-0.1137 1.3918,0 2.0867,0c0.6949,0 1.3919,0 2.0868,0c0.6949,0 1.4054,-0.1367 2.0867,0c1.0778,0.216 2.1097,0.6354 3.1302,1.0434c0.7209,0.289 1.4211,0.6438 2.0867,1.0434c1.0747,0.6448 2.0096,1.5264 3.1302,2.0867c0.9828,0.4915 2.1097,0.6355 3.1301,1.0434c0.721,0.289 1.5369,0.4935 2.0868,1.0434c0.5498,0.5499 0.4935,1.5369 1.0434,2.0868c0.5498,0.5498 1.6203,0.4215 2.0867,1.0433c0.6594,0.8786 0.4779,2.188 1.0434,3.1302c0.506,0.843 1.3919,1.3918 2.0867,2.0867c0.6949,0.6949 1.4973,1.3011 2.0868,2.0868c0.4664,0.6219 0.577,1.4649 1.0434,2.0868c0.5895,0.7856 1.4972,1.3011 2.0867,2.0867c0.4664,0.6219 0.7544,1.36581 1.0434,2.08681c0.408,1.0204 0.384,2.2516 1.0434,3.1301c0.4664,0.6219 1.6204,0.4215 2.0868,1.0434c0.6594,0.8785 0.6354,2.1097 1.0433,3.1301c0.2891,0.721 0.577,1.4649 1.0434,2.0868c0.5895,0.7857 1.3011,1.4972 2.0868,2.0868c0.6218,0.4663 1.6558,0.3964 2.0867,1.0433c0.3851,0.5781 -0.4914,1.5954 0,2.0868c0.4915,0.4914 1.5088,0.385 2.0868,0c0.6469,-0.4309 0.6438,-1.4211 1.0434,-2.0868c0.6448,-1.0746 1.2009,-2.2443 2.0867,-3.1301c0.8859,-0.8858 2.1515,-1.3042 3.1302,-2.0868c0.7669,-0.6135 1.3199,-1.4732 2.0867,-2.0867c0.9787,-0.7826 2.0096,-1.5265 3.1302,-2.0868c0.9828,-0.4914 2.2516,-0.3839 3.1301,-1.0434c0.6219,-0.4664 0.3965,-1.6558 1.0434,-2.0867c0.578,-0.385 1.5087,0.385 2.0868,0c0.6469,-0.4309 0.3964,-1.6559 1.0433,-2.08681c0.5781,-0.385 1.4055,0.1367 2.0868,0c1.0778,-0.216 2.1097,-0.6354 3.1301,-1.04339c0.721,-0.289 1.4211,-0.6437 2.0868,-1.0433c1.0747,-0.6449 2.0555,-1.442 3.1301,-2.0868c0.6657,-0.3996 1.3658,-0.7544 2.0868,-1.0434c1.0204,-0.4079 2.0523,-0.8274 3.1301,-1.0434c0.6814,-0.1366 1.4013,0.1138 2.0868,0c1.4127,-0.2358 2.7556,-0.8409 4.1735,-1.0433c1.0319,-0.1472 2.0878,0 3.1302,0c1.7372,0 3.4796,0 5.2169,0c1.3897,0 2.7837,0 4.1735,0c1.0423,0 2.1076,-0.2045 3.1301,0c0.7617,0.1523 1.4211,0.6437 2.0868,1.0433c1.0747,0.6448 2.1681,1.2844 3.1301,2.0868c1.1321,0.9432 1.9793,2.2088 3.1302,3.1301c0.6062,0.4852 1.3918,0.696 2.0867,1.0434c0.6949,0.3475 1.3658,1.3324 2.0868,1.0434c1.3689,-0.5478 2.2088,-1.9793 3.1301,-3.1301c0.4852,-0.6062 0.6959,-1.39191 1.0434,-2.0868c0.3474,-0.6949 0.577,-1.46489 1.0434,-2.08679c0.5895,-0.7856 1.4972,-1.3011 2.0867,-2.0867c0.4664,-0.6219 0.4935,-1.5369 1.0434,-2.0868c0.5499,-0.5498 1.4806,-0.5582 2.0868,-1.0434c1.1508,-0.9213 2.0106,-2.1712 3.1301,-3.1301c1.3188,-1.131 2.7284,-2.16609 4.1735,-3.13009c0.6469,-0.431 1.3658,-0.75441 2.0868,-1.04341c1.0204,-0.408 2.1473,-0.552 3.1301,-1.0434c1.8124,-0.9057 3.3545,-2.332 5.2169,-3.1301c0.6386,-0.2734 1.4128,0.169 2.0868,0c0.7533,-0.1889 1.3157,-0.9474 2.0867,-1.0434c2.0691,-0.2588 4.1757,0 6.2603,0c1.0424,0 2.0878,0 3.1302,0c0.6949,0 1.3918,0 2.0867,0c0.6949,0 1.3919,0 2.0868,0c1.0423,0 2.0878,0 3.1301,0c1.3898,0 2.8025,-0.2285 4.1735,0c0.7659,0.1273 1.4649,0.577 2.0868,1.0434c0.7857,0.5895 1.3011,1.4972 2.0868,2.0867c0.6218,0.4664 1.3334,0.85451 2.0867,1.04341c0.674,0.169 1.5953,0.4914 2.0868,0c0.4914,-0.4914 -0.385,-1.5087 0,-2.0868c0.4309,-0.6469 1.4649,-0.5769 2.0867,-1.0433c0.7857,-0.5895 1.3199,-1.4733 2.0868,-2.08679c0.9787,-0.7825 2.0555,-1.44191 3.1301,-2.08681c0.6657,-0.3996 1.5369,-0.49349 2.0868,-1.04329c0.5499,-0.5499 0.4935,-1.53691 1.0434,-2.08681c0.5498,-0.5499 1.4117,-0.65839 2.0867,-1.04339c1.7592,-1.0048 3.4578,-2.1253 5.2169,-3.1301c0.6751,-0.385 1.3919,-0.696 2.0868,-1.0434c0.6949,-0.3474 1.3334,-0.8545 2.0868,-1.0434c0.674,-0.169 1.4054,0.1367 2.0867,0c1.0778,-0.216 2.0638,-0.7773 3.1302,-1.0434c1.7184,-0.4298 3.4588,-0.8232 5.2169,-1.0433c1.0339,-0.1294 2.0982,0.1471 3.1301,0c1.4179,-0.2025 2.7754,-0.7325 4.1735,-1.0434c1.7299,-0.384 3.4588,-0.8232 5.2169,-1.0434c1.034,-0.1294 2.0878,0 3.1301,0c0.6949,0 1.3919,0 2.0868,0c0.6949,0 1.3919,0 2.0868,0c1.0423,0 2.1723,-0.4111 3.1301,0c1.5964,0.6845 2.7284,2.1661 4.1735,3.1301c0.6469,0.431 1.4649,0.577 2.0868,1.0434c0.7857,0.5895 1.3919,1.3919 2.0867,2.0868c0.6949,0.6949 1.3919,1.3919 2.0868,2.0867c1.3898,1.3898 2.7837,2.7838 4.1735,4.1736c0.6949,0.6949 1.4973,1.3011 2.0868,2.0867c0.4664,0.6219 0.3965,1.6559 1.0434,2.0868c0.578,0.385 1.3918,0 2.0867,0c0.6949,0 1.3971,0.0866 2.0868,0c2.0972,-0.2619 4.1631,-0.7815 6.2603,-1.0434c0.6896,-0.0866 1.4127,0.169 2.0867,0c0.7533,-0.1889 1.3335,-0.8545 2.0868,-1.0434c0.674,-0.169 1.3918,0 2.0867,0c0.6949,0 1.3919,0 2.0868,0c0.6949,0 1.3919,0 2.0868,0c0.6949,0 1.4012,-0.1137 2.0867,0c1.4128,0.2358 2.814,0.5906 4.1735,1.0434c0.7367,0.2452 1.4211,0.6438 2.0868,1.0434c1.0747,0.6448 1.9668,1.6214 3.1301,2.0867c0.6448,0.2578 1.5526,-0.4444 2.0868,0c1.7091,1.4243 2.7253,3.5277 4.1735,5.2169c0.6396,0.7461 1.2802,1.4796 2.0868,2.0868c5.9358,4.6775 7.2494,6.7788 9.3904,9.3904c0.5895,0.7293 0.4935,1.5369 1.0434,2.0868c0.5498,0.5498 1.3918,1.3908 2.0867,1.0434c1.7581,-0.8786 2.9152,-2.6638 4.1736,-4.1736c0.4976,-0.5968 0.5769,-1.4649 1.0433,-2.0867c0.5895,-0.7857 1.4576,-1.3314 2.0868,-2.0868c1.1122,-1.3345 2.0179,-2.839 3.1301,-4.1735c0.6292,-0.7554 1.3011,-1.4973 2.0868,-2.0868c0.6218,-0.4664 1.4117,-0.6583 2.0867,-1.0433c1.7592,-1.0048 3.4985,-2.0565 5.2169,-3.1302c1.0622,-0.6636 2.0555,-1.4419 3.1302,-2.0867c0.6657,-0.3997 1.3919,-0.696 2.0867,-1.0434c0.6949,-0.3475 1.3658,-0.7544 2.0868,-1.0434c1.0204,-0.408 2.0523,-0.8274 3.1301,-1.0434c0.6814,-0.1367 1.3919,0 2.0868,0c1.7372,0 3.4797,0 5.2169,0c0.6949,0 1.3919,0 2.0868,0c1.0423,0 2.0878,0 3.1301,0c0.6949,0 1.419,-0.1909 2.0868,0c1.7988,0.5144 3.6528,1.0601 5.2169,2.0868c1.5076,2.1723 2.2067,2.4957 3.1301,3.1301c0.6511,0.4163 1.5369,0.4935 2.0868,1.0434c1.228,1.2281 2.166,2.7284 3.1301,4.1735c0.4309,0.6469 0.6959,1.3919 1.0434,2.0868c0.3474,0.6949 0.8545,1.3334 1.0434,2.0867c0.169,0.6741 -0.1691,1.4128 0,2.0868c0.1888,0.7533 0.8545,1.3334 1.0433,2.0868c0.1691,0.674 -0.1846,2.0867 0,2.0867c0.1847,0 0.2901,-1.8958 1.0434,-2.0867c1.0497,-0.2661 2.2788,1.7674 3.078,1.0433c1.516,-4.6399 2.0888,-3.9972 3.1823,-5.2169c2.3069,-2.0721 2.8787,-1.637 4.1735,-2.0867c2.0763,-0.7001 5.7741,-3.5611 7.2515,-1.5651c1.6506,3.2178 -0.9818,7.9213 -0.9912,11.9989c-0.0104,3.1239 0,6.2634 0,9.3904c0,2.7796 0,5.5675 0,8.347c0,3.8219 0,7.6553 0,11.4772c0,2.7796 0,5.5675 0,8.347c0,1.7373 0,3.4797 0,5.2169c0,1.3898 0,2.7838 0,4.1736c0,1.7372 0,3.4796 0,5.2169c0,1.7372 0,3.4796 0,5.2169c0,1.0423 0,2.0878 0,3.1301c0,0.6949 0.6219,1.7758 0,2.0868c-1.2427,0.6218 -1.827,-0.1513 -4.1735,0c-9.3873,0.6051 -18.8174,1.0945 -28.1713,2.0867c-13.5848,1.4409 -27.0788,4.0629 -40.6918,5.2169c-6.9239,0.5864 -13.9354,-0.4841 -20.8676,0c-8.0392,0.5614 -15.9564,2.5939 -23.9977,3.1302c-7.6271,0.5081 -15.3189,-0.3548 -22.9544,0c-7.3214,0.3401 -14.6136,1.4075 -21.911,2.0867c-7.6427,0.7106 -15.2886,1.7133 -22.9543,2.0868c-6.5931,0.3213 -13.2259,-0.1941 -19.8242,0c-5.2211,0.1534 -10.4296,0.8806 -15.6507,1.0434c-5.9035,0.1846 -11.8309,0 -17.7375,0c-6.9489,0 -13.9187,0 -20.8676,0c-6.254,0 -12.5289,0.169 -18.7808,0c-6.6077,-0.1785 -13.2165,-0.8368 -19.8242,-1.0434c-4.5147,-0.1409 -9.0472,0 -13.564,0c-4.5168,0 -9.0471,0 -13.5639,0c-6.6015,0 -13.2248,0.1732 -19.8242,0c-6.6088,-0.1743 -13.2165,-0.8368 -19.8242,-1.0434c-4.5147,-0.1409 -9.0472,0 -13.564,0c-4.5168,0 -9.0471,0 -13.5639,0c-3.8219,0 -7.6553,0 -11.4772,0c-4.5168,0 -9.0471,0 -13.5639,0c-3.8219,0 -7.6553,0 -11.4772,0c-7.6438,0 -15.3105,0 -22.9544,0c-2.4321,0 -4.8778,0.1732 -7.3036,0c-2.4509,-0.1753 -4.8538,-0.8545 -7.3037,-1.0434c-2.0784,-0.1596 -4.1756,0 -6.2602,0c-3.1271,0 -6.2635,0 -9.3905,0c-3.127,0 -6.2686,0.1732 -9.3904,0c-3.1416,-0.1742 -6.4053,-0.048 -9.3904,-1.0434c-0.746,-0.2483 0,-1.3918 0,-2.0867c0,-1.0424 0,-2.0878 0,-3.1302c0,-1.3897 0,-2.7837 0,-4.1735c0,-2.0846 0,-4.1756 0,-6.2603c0,-1.7372 0,-3.4796 0,-5.2169c0,-1.7372 0,-3.4796 0,-5.2169c0,-1.0423 0,-2.0878 0,-3.1301c0,-2.4321 0,-4.8715 0,-7.3037c0,-1.7372 0,-3.4796 0,-5.2168c0,-2.0847 0,-4.1757 0,-6.2603c0,-1.7373 0,-3.4797 0,-5.2169c0,-1.3898 0,-2.7838 0,-4.1735c0,-1.7373 0,-3.4797 0,-5.2169c0,-1.0424 0,-2.0878 0,-3.1302c0,-1.3898 0,-2.7837 0,-4.1735c0,-1.3898 -0.1722,-2.7942 0,-4.1735c0.1774,-1.4211 0.866,-2.7525 1.0434,-4.1735c0.1721,-1.3794 0,-2.7838 0,-4.1736c0,-2.0846 -0.1169,-4.1891 0,-6.2602z" id="ID0.10417793085798621" fill="url(#color-3)" stroke="url(#color-4)" stroke-width="2.08676"/><path d="M-36.50869,139.69634c-1.473,-1.1172 -2.584,-2.7738 -4,-3.9821c-0.596,-0.5085 -1.473,-0.5381 -2,-1.1377c-0.527,-0.5996 -0.667,-1.5178 -1,-2.2755c-0.333,-0.7577 -0.878,-1.4404 -1,-2.2755c-0.219,-1.495 0,-3.0355 0,-4.5509c0,-0.7578 -0.554,-1.8557 0,-2.2755c0.831,-0.6303 2.025,-0.2469 3,0c2.056,0.5199 4.045,1.3858 6,2.2755c1.383,0.6291 2.631,1.6076 4,2.2754c0.968,0.4722 2.067,0.58601 3,1.13781c1.425,0.7919 1.926,1.81349 6,3.4132c2.653,2.2266 4.497,5.5237 7,7.9642c2.175,2.1207 4.763,3.6533 7,5.6887c1.103,1.0046 2.179,2.1048 3,3.4132c0.866,1.379 1.174,3.1413 2,4.551c0.522,0.892 1.528,1.3505 2,2.2755c0.562,1.0433 0.11,1.9569 2,4.5509c0.786,1.4359 1.413,2.9934 2,4.551c0.415,1.1013 0.609,2.3005 1,3.4132c0.277,0.7862 0.739,1.4825 1,2.2755c0.739,2.2436 1.138,4.642 2,6.8265c0.487,1.2663 1.537,1.7361 2,4.5509c0.259,1.156 0.609,2.3005 1,3.4132c0.277,0.7862 0.667,1.5178 1,2.2755c0.333,0.7578 0.819,1.4541 1,2.2755c0.162,0.735 -0.298,1.5974 0,2.2755c0.421,0.958 1.741,1.2447 2,2.2755c0.457,1.8215 0.457,3.8672 0,5.6887c-0.259,1.0308 -1.081,2.0434 -2,2.2755c-2.275,0.5757 -4.681,0.2639 -7,0c-1.048,-0.1195 -2.158,-0.4187 -3,-1.1378c-0.596,-0.5086 -0.553,-1.5974 -1,-2.2755c-0.565,-0.8567 -1.579,-1.3175 -2,-2.2754c-0.298,-0.6781 0.33,-1.6179 0,-2.2755c-1.058,-2.106 -2.761,-3.7148 -4,-5.6887c-0.433,-0.6895 -0.535,-1.6145 -1,-2.2755c-0.883,-1.2549 -1.736,-2.6942 -3,-3.4132c-0.894,-0.5086 -2.072,-0.4221 -3,0c-0.875,0.3982 -1.212,1.6941 -2,2.2754c-1.285,0.9557 -2.466,1.1207 -5,3.4133c-2.891,0.975 -5.99,0.9238 -9,1.1377c-2.326,0.165 -4.698,0.4141 -7,0c-4.069,-0.7304 -8.156,-1.7533 -12,-3.4132c-2.229,-1.0297 -3.445,-2.0878 -8,-6.8265c-1.573,-1.9739 -3.554,-3.5736 -5,-5.6887c-0.914,-1.338 -1.334,-3.0355 -2,-4.5509c-0.333,-0.7578 -1.587,-2.2755 -1,-2.2755c1.413,0 3.236,1.9103 5,2.2755c1.966,0.4061 4.017,0.2821 6,0c0.739,-0.1047 1.263,-1.0183 2,-1.1378c1.648,-0.2673 3.394,0.4984 5,0c2.155,-0.669 3.908,-2.5212 6,-3.4132c0.624,-0.2662 0.834,0 2,0c4.662,0 9.385,-0.7498 14,0c2.511,0.4085 4.617,2.4268 7,3.4132c1.29,0.5336 3.52,1.9569 4,1.1378c0.52,-0.8875 -1.27,-3.0742 -2,-4.551c-2.268,-4.5874 -4.083,-9.5684 -7,-13.6529c-1.514,-2.1207 -3.964,-3.1026 -6,-4.551c-0.631,-0.4494 -1.473,-0.5381 -2,-1.1377c-0.849,-0.9659 -1.056,-2.569 -2,-3.4132c-1.464,-1.3084 -3.451,-1.66909 -5,-3.4132z" id="ID0.3334964206442237" fill="url(#color-5)" stroke="url(#color-6)" stroke-width="2.14218"/><path d="M-194.50869,282.39894c0.2681,-5.9108 0.4236,-11.8528 1.0434,-17.7375c0.1544,-1.4712 0.6959,-1.3919 1.0434,-2.0868c0.3474,-0.6948 0.6959,-1.3918 1.0433,-2.0867c0.3475,-0.6949 0.696,-1.3919 1.0434,-2.0868c0.3475,-0.6949 0.4935,-1.5369 1.0434,-2.0867c0.5499,-0.5499 1.4649,-0.577 2.0868,-1.0434c0.7856,-0.5895 1.3011,-1.4973 2.0867,-2.0868c0.6219,-0.4664 1.3502,-0.7982 2.0868,-1.0434c1.3595,-0.4528 2.7691,-0.7627 4.1735,-1.0433c2.0721,-0.4143 4.21,-0.5311 6.2603,-1.0434c0.7533,-0.1889 1.3334,-0.85451 2.0867,-1.04341c0.6741,-0.169 1.3919,0 2.0868,0c1.3898,0 2.8255,0.337 4.1735,0c1.5077,-0.3767 2.9601,-1.1164 4.1735,-2.0867c0.6062,-0.4852 0.4936,-1.5369 1.0434,-2.08679c0.5499,-0.5499 1.5369,-0.49351 2.0868,-1.04341c0.5498,-0.5499 0.4935,-1.5369 1.0434,-2.0867c0.5498,-0.5499 1.4805,-0.5583 2.0867,-1.0434c1.1509,-0.9213 2.2088,-1.9793 3.1302,-3.1302c0.4851,-0.6062 0.4935,-1.5369 1.0433,-2.0867c0.5499,-0.5499 1.6559,-0.3965 2.0868,-1.0434c1.0382,-1.5567 1.0486,-3.6602 2.0867,-5.2169c0.431,-0.6469 1.5369,-0.4935 2.0868,-1.0434c0.5499,-0.5498 0.4372,-1.6016 1.0434,-2.0867c1.2134,-0.9704 2.8244,-1.3157 4.1735,-2.0868c1.0872,-0.6219 1.9856,-1.5776 3.1301,-2.0868c2.0086,-0.8921 4.2028,-1.3157 6.2603,-2.0867c0.7273,-0.2723 1.3335,-0.8546 2.0868,-1.0434c0.674,-0.169 1.3919,0 2.0867,0c0.6949,0 1.4055,0.1367 2.0868,0c1.0778,-0.216 2.0377,-0.9224 3.1301,-1.0434c2.0722,-0.2306 4.1757,0 6.2603,0c0.6949,0 1.3919,0 2.0868,0c1.0423,0 2.094,-0.1148 3.1301,0c2.1003,0.2337 4.16,0.8097 6.2603,1.0434c1.0361,0.1148 2.092,-0.0939 3.1301,0c2.79,0.2535 5.5602,0.7648 8.3471,1.0434c0.697,0.0699 1.4127,-0.1691 2.0867,0c0.7534,0.1888 1.3919,0.6959 2.0868,1.0434c0.6949,0.3474 1.3209,1.1706 2.0868,1.0433c1.5327,-0.2556 2.96,-1.1164 4.1735,-2.0867c0.6062,-0.4852 0.4935,-1.5369 1.0434,-2.0868c0.5498,-0.5498 1.4899,-0.5457 2.0867,-1.0434c1.5098,-1.2583 2.6815,-2.8943 4.1735,-4.1735c0.9516,-0.8149 2.1786,-1.2719 3.1302,-2.0867c1.492,-1.2792 2.6815,-2.8944 4.1735,-4.1736c0.9516,-0.8148 1.9855,-1.5776 3.1301,-2.0867c2.0085,-0.8921 4.2028,-1.3157 6.2603,-2.0868c0.7272,-0.2723 1.3501,-0.7982 2.0868,-1.0434c1.3595,-0.4528 2.7608,-0.8075 4.1735,-1.0433c0.6855,-0.1138 1.3919,0 2.0867,0c1.0424,0 2.0879,0 3.1302,0c2.7796,0 5.6687,-0.744 8.347,0c3.7426,1.0392 7.0136,3.3753 10.4338,5.2169c1.1029,0.5936 2.0555,1.4419 3.1302,2.0867c0.6656,0.3996 1.3334,0.8545 2.0867,1.0434c0.674,0.169 1.4649,0.3109 2.0868,0c0.8785,-0.4393 1.3919,-1.3919 2.0867,-2.0868c1.0424,-1.0423 2.0284,-2.1504 3.1302,-3.1301c2.0283,-1.803 4.017,-3.6915 6.2603,-5.2169c5.2951,-3.15 6.3781,-3.439 8.347,-4.1735c2.3852,-0.8326 4.8809,-1.3595 7.3037,-2.0868c1.0527,-0.3161 2.0732,-0.7418 3.1301,-1.0434c1.3773,-0.3933 2.7462,-0.9244 4.1735,-1.0433c2.7702,-0.2306 5.5675,0 8.3471,0c1.0423,0 2.0878,0 3.1301,0c3.127,0 6.2717,-0.2233 9.3904,0c1.7675,0.1262 3.4985,0.6135 5.2169,1.0433c1.0663,0.2661 2.1202,0.6104 3.1302,1.0434c3.8584,1.6538 7.6782,3.4296 11.4771,5.2169c2.1087,0.9923 4.2226,1.9981 6.2603,3.1302c1.0956,0.6083 2.1515,1.3042 3.1301,2.0867c0.7669,0.6135 1.4973,1.3011 2.0868,2.0868c0.4664,0.6218 0.577,1.4649 1.0434,2.0867c0.5895,0.7857 1.4972,1.3011 2.0867,2.0868c0.4664,0.6219 0.577,1.4649 1.0434,2.0868c0.5895,0.7856 1.4973,1.3011 2.0868,2.0867c0.4664,0.6219 0.8545,1.3335 1.0434,2.0868c0.169,0.674 -0.4915,1.5953 0,2.0867c0.4914,0.4915 1.3918,0 2.0867,0c0.6949,0 1.4649,0.311 2.0868,0c2.2412,-1.1206 4.0702,-2.9569 6.2603,-4.1735c0.9609,-0.5331 2.0878,-0.6959 3.1301,-1.0434c2.0847,-0.6949 4.1756,-1.3918 6.2603,-2.0867c2.0847,-0.6949 4.1286,-1.5536 6.2603,-2.0868c0.674,-0.169 1.3918,0 2.0867,0c2.0847,0 4.1756,0 6.2603,0c1.0423,0 2.0982,-0.1471 3.1301,0c1.418,0.2024 2.7963,0.64999 4.1736,1.0434c1.0569,0.3015 2.1013,0.6573 3.1301,1.0434c1.7518,0.6573 3.4974,1.3501 5.2169,2.0867c0.7137,0.3057 1.3919,0.696 2.0868,1.0434c1.3897,0.6949 2.9465,1.13311 4.1735,2.0868c1.9396,1.5087 3.2511,3.7426 5.2169,5.2169c0.8785,0.6594 2.2516,0.3839 3.1301,1.0434c0.6219,0.4663 0.6959,1.3918 1.0434,2.0867c0.3474,0.6949 0.6959,1.3919 1.0434,2.0868c0.3474,0.6949 0.6959,1.3918 1.0433,2.0867c0.3475,0.6949 0.3485,1.7393 1.0434,2.0868c0.9328,0.4664 2.1974,0.4664 3.1302,0c1.9897,-0.9954 3.4066,-2.8808 5.2169,-4.1735c0.6323,-0.4518 1.3918,-0.696 2.0867,-1.0434c0.6949,-0.3475 1.3731,-1.2761 2.0868,-1.0434c3.0529,2.2861 3.6894,0.3297 5.2169,0c0.987,-0.2327 2.0878,0 3.1301,0c1.3898,0 2.7838,0 4.1735,0c1.0424,0 2.0878,0 3.1302,0c3.127,0 6.2634,0 9.3904,0c1.0423,0 2.1128,-0.2264 3.1301,0c2.1452,0.4768 4.2602,1.1769 6.2603,2.08679c1.8447,0.8378 3.4046,2.22451 5.2169,3.13011c0.9829,0.4914 2.1097,0.6354 3.1302,1.0434c0.7209,0.289 1.3918,0.6959 2.0867,1.0434c1.3898,0.6949 2.7838,1.3918 4.1735,2.0867c0.6949,0.3475 1.5369,0.4936 2.0868,1.0434c0.8858,0.8858 1.2009,2.2443 2.0868,3.1302c0.8858,0.8858 2.1514,1.3042 3.1301,2.0867c0.7669,0.6135 1.3011,1.4973 2.0868,2.0868c0.6218,0.4664 1.4649,0.577 2.0867,1.0434c0.7857,0.5895 1.4973,1.301 2.0868,2.0867c0.4664,0.6219 0.577,1.4649 1.0434,2.0868c0.5895,0.7856 1.5807,1.2437 2.0867,2.0867c0.5655,0.9422 0.384,2.2516 1.0434,3.1302c0.4664,0.6218 1.3094,1.0433 2.0868,1.0433c0.7773,0 1.5369,-0.4935 2.0867,-1.0433c0.5499,-0.5499 0.577,-1.4649 1.0434,-2.0868c0.5895,-0.7857 1.4972,-1.3011 2.0868,-2.0867c0.4663,-0.6219 0.4935,-1.5369 1.0433,-2.0868c0.5499,-0.5499 1.4211,-0.6438 2.0868,-1.0434c1.0747,-0.6448 2.0429,-1.4649 3.1301,-2.0867c1.3491,-0.7711 2.8245,-1.3158 4.1735,-2.0868c1.0873,-0.6219 1.9898,-1.5682 3.1302,-2.0868c2.7023,-1.228 5.6447,-1.902 8.347,-3.1301c1.1404,-0.5186 1.9668,-1.6214 3.1302,-2.0868c0.6448,-0.2577 1.4127,0.1691 2.0867,0c0.7533,-0.1888 1.3157,-0.9474 2.0868,-1.0433c2.069,-0.2588 4.1756,0 6.2603,0c1.7372,0 3.4974,-0.2452 5.2169,0c0.7689,0.1095 1.3918,0.6959 2.0867,1.0433c0.6949,0.3475 1.4649,0.577 2.0868,1.0434c0.7856,0.5895 1.154,1.7758 2.0867,2.0868c1.3189,0.4392 2.8026,0.2285 4.1736,0c0.7658,-0.1273 1.3397,-0.8295 2.0867,-1.0434c1.7039,-0.4862 3.463,-0.793 5.2169,-1.0434c0.6876,-0.0981 1.3919,0 2.0868,0c1.3898,0 2.7837,0 4.1735,0c2.0847,0 4.1756,0 6.2603,0c1.0423,0 2.3935,-0.7366 3.1301,0c1.0131,1.0131 0.9411,2.7441 1.0434,4.1735c0.2473,3.4661 0,6.9594 0,10.4338c0,1.7373 0,3.4797 0,5.2169c0,3.127 0,6.2634 0,9.3904c0,1.3898 0,2.7838 0,4.1736c0,3.127 0,6.2634 0,9.3904c0,1.0423 0,2.0878 0,3.1301c0,1.3898 0,2.7838 0,4.1735c0,3.1271 0,6.2635 0,9.3905c0,1.0423 0,2.0878 0,3.1301c0,1.0423 0,2.0878 0,3.1301c0,3.4745 0,6.9594 0,10.4338c0,3.8219 0,7.6553 0,11.4772c0,2.7796 0,5.5675 0,8.3471c0,6.254 0,12.5268 0,18.7808c0,2.4321 0,4.8715 0,7.3036c0,2.7796 0,5.5675 0,8.3471c0,1.7372 0,3.4797 0,5.2169c0,2.0847 0,4.1756 0,6.2603c0,2.4321 2.2485,6.3771 0,7.3036c-5.4621,2.2485 -11.8309,0 -17.7375,0c-15.9825,0 -32.0129,0 -47.9954,0c-26.0584,0 -52.1951,0 -78.2535,0c-22.2365,0 -44.5398,0 -66.7763,0c-20.4993,0 -41.0601,0 -61.5594,0c-16.33,0 -32.7089,0 -49.0389,0c-12.8555,0 -25.7495,0 -38.605,0c-13.203,0 -26.4455,0 -39.6485,0c-10.4233,0 -20.878,0 -31.3014,0c-7.2963,0 -14.6146,0 -21.9109,0c-5.5592,0 -11.135,0 -16.6941,0c-6.6015,0 -13.2228,0 -19.8242,0c-3.8219,0 -7.7899,1.0058 -11.4772,0c-1.0058,-0.2744 0,-2.0878 0,-3.1301c0,-1.0424 0,-2.0878 0,-3.1302c0,-2.0846 0,-4.1756 0,-6.2602c0,-1.0424 0,-2.0878 0,-3.1302c0,-1.3898 0,-2.7837 0,-4.1735c0,-3.127 0,-6.2634 0,-9.3904c0,-1.7372 0,-3.4797 0,-5.2169c0,-3.4745 0,-6.9594 0,-10.4338c0,-3.127 0,-6.2634 0,-9.3904c0,-1.0424 0,-2.0878 0,-3.1302c0,-3.127 0,-6.2634 0,-9.3904c0,-0.7815 0,-1.3919 0,-2.0867c0,-2.0847 0,-4.1756 0,-6.2603c0,-1.3898 0,-2.7838 0,-4.1735c0,-3.1271 0,-6.2635 0,-9.3905c0,-2.0846 0,-4.1756 0,-6.2602c0,-1.7373 -0.0793,-3.4818 0,-5.2169z" id="ID0.24151752423495054" fill="url(#color-7)" stroke="url(#color-8)" stroke-width="2.08676"/><path d="M-37.71659,126.07144c-0.595,1.0633 1.0604,2.2665 1.914,3.203c2.0171,2.2132 4.7493,3.8831 6.6415,6.1842c2.7785,3.3795 5.9543,6.7605 7.3014,10.7686c0.9164,2.7261 0.9538,6.1619 -0.8418,8.4512c-2.8418,3.623 -7.8891,5.3334 -11.9469,7.8473c-1.2969,0.8026 -2.6363,1.6051 -4.117,2.1002c-1.631,0.5465 -3.3729,0.9293 -5.1236,0.9959c-3.1405,0.121 -6.3249,-0.0134 -9.4467,-0.4388c-1.5115,-0.2048 -2.9156,-0.8829 -4.3233,-1.4348c-1.4593,-0.5711 -3.2611,-0.8208 -4.2737,-1.9318c-1.0125,-1.111 -0.8572,-2.7604 -1.2622,-4.1423c-1.2598,-4.3006 -2.5653,-12.7167 -3.7371,-12.9238c-1.1718,-0.2071 -0.8224,8.2122 -2.8467,11.766c-2.1596,3.7914 -5.3261,7.356 -9.3315,9.614c-2.7112,1.5273 -6.4952,1.9196 -9.5954,1.0525c-4.762,-1.3338 -8.7368,-4.4951 -12.6725,-7.287c-1.3514,-0.96 -2.171,-2.4393 -2.9701,-3.8102c-1.5927,-2.7293 -3.1,-5.5323 -4.1828,-8.4497c-0.544,-1.466 -1.2316,-3.1491 -0.6599,-4.5843c1.498,-3.7629 3.5781,-7.4959 6.6172,-10.3864c3.4781,-3.3086 9.3538,-4.4123 12.4996,-7.7922c0.9176,-0.985 -3.0144,-0.3604 -4.3727,-0.9375c-2.7892,-1.1876 -5.4616,-2.6507 -7.9451,-4.3058c-1.3843,-0.9211 -2.2788,-2.3437 -3.5724,-3.3682c-1.13,-0.8958 -3.5098,-1.0365 -3.6714,-2.374c-0.519,-4.3172 0.1595,-8.8425 1.8402,-12.8704c1.8211,-4.3613 4.307,-8.9174 8.424,-11.7126c4.7061,-3.1943 10.8541,-4.5882 16.7238,-5.3632c3.1205,-0.4121 6.3525,0.8356 9.2983,1.9303c1.4792,0.551 2.8175,1.6201 3.6219,2.8711c1.6747,2.6008 2.3679,5.6179 3.63,8.3945c0.5676,1.2515 1.4168,2.4105 1.8645,3.7002c1.0015,2.8812 1.3628,10.0827 2.4749,8.7816c1.7467,-2.0451 1.6851,-11.0443 3.8451,-16.1852c1.0803,-2.5734 3.4266,-4.607 5.6682,-6.4643c1.0856,-0.9 2.5958,-1.4224 4.0676,-1.6031c1.6435,-0.2018 3.3469,0.1606 4.975,0.4955c3.1248,0.6426 6.3249,1.2244 9.2487,2.4274c1.4566,0.5989 2.6707,1.7039 3.6219,2.871c1.9003,2.3321 3.7517,4.7959 4.8346,7.5105c1.0382,2.6017 1.9923,5.4882 1.4189,8.1743c-0.8795,4.1218 -3.1168,7.9757 -5.6107,11.4908c-2.1095,2.975 -6.2642,4.5794 -8.3826,5.6919z" id="ID0.323794586583972" fill="url(#color-9)" stroke="url(#color-10)" stroke-width="4.22636"/><path d="M-77.25869,116.17264c7.053,-3.979 15.711,-3.128 20.5,0c4.384,11.571 3.867,16.773 0,20.148c-7.781,4.13 -15.593,3.542 -20.5,0c-4.484,-9.818 -3.938,-16.885 0,-20.148z" id="ID0.24937870260328054" fill="#000000" stroke="none" stroke-width="1"/><path d="M-231.71589,83.90922c-0.626,-0.228 0,-1.334 0,-2c0,-0.666 0,-1.334 0,-2c0,-0.666 0.083,-1.339 0,-2c-0.085,-0.681 -0.585,-1.319 -0.5,-2c0.092,-0.739 0.334,-1.667 1,-2c0.614,-0.307 1.411,0.853 2,0.5c0.589,-0.353 0.415,-1.319 0.5,-2c0.083,-0.661 -0.162,-1.354 0,-2c0.181,-0.722 0.567,-1.394 1,-2c0.411,-0.575 1.089,-0.925 1.5,-1.5c0.433,-0.606 0.435,-1.515 1,-2c0.681,-0.584 1.635,-0.764 2.5,-1c0.977,-0.266 2.004,-0.319 3,-0.5c0.835,-0.152 1.654,-0.429 2.5,-0.5c1.161,-0.097 2.353,-0.208 3.5,0c0.733,0.133 1.334,0.667 2,1c0.666,0.333 1.284,1.205 2,1c0.8,-0.229 0.958,-1.368 1.5,-2c0.46,-0.536 1,-1.001 1.5,-1.5c0.5,-0.499 0.8,-1.395 1.5,-1.5c2.799,-0.42 5.669,0 8.5,0c0.708,0 1.354,-0.162 2,0c0.722,0.181 1.394,0.567 2,1c0.575,0.411 1.04,0.964 1.5,1.5c0.542,0.632 0.958,1.368 1.5,2c0.46,0.536 0.799,1.412 1.5,1.5c0.89,0.111 1.625,-0.805 2.5,-1c0.65,-0.144 1.339,-0.083 2,0c0.681,0.085 1.479,0.053 2,0.5c0.737,0.632 0.943,1.705 1.5,2.5c0.611,0.873 1.482,1.568 2,2.5c0.333,0.6 0.259,1.357 0.5,2c0.261,0.697 0.359,1.872 1,2c0.609,0.122 0.851,-1.222 1.5,-1.5c0.612,-0.262 1.338,-0.074 2,0c0.844,0.094 1.9,-0.1 2.5,0.5c0.471,0.471 0.083,1.339 0,2c-0.085,0.681 -0.86,1.76 -0.5,2c0.39,0.26 1.278,-0.819 2,-1c0.646,-0.162 1.48,-0.416 2,0c0.536,0.429 0.585,1.319 0.5,2c-0.092,0.739 -0.515,1.435 -1,2c-0.542,0.632 -1.255,1.128 -2,1.5c-0.614,0.307 -1.386,0.193 -2,0.5c-0.745,0.372 -1.239,1.162 -2,1.5c-0.776,0.345 -1.695,0.232 -2.5,0.5c-0.706,0.235 -1.473,0.473 -2,1c-0.527,0.527 -0.567,1.394 -1,2c-0.411,0.575 -0.839,1.25199 -1.5,1.49999c-0.779,0.292 -1.67,0.059 -2.5,0c-1.504,-0.107 -3.031,-0.161 -4.5,-0.5c-0.726,-0.167 -1.349,-0.638 -2,-1c-0.849,-0.471 -1.613,-1.106 -2.5,-1.5c-0.627,-0.279 -1.34,-0.689 -2,-0.5c-0.679,0.194 -0.964,1.04 -1.5,1.5c-0.632,0.542 -1.221,1.208 -2,1.5c-0.624,0.234 -1.334,0 -2,0c-0.833,0 -1.689,0.187 -2.5,0c-1.386,-0.32 -2.751,-0.819 -4,-1.5c-0.62,-0.338 -0.794,-1.5 -1.5,-1.5c-0.832,0 -1.223,1.201 -2,1.5c-1.433,0.551 -2.968,0.91 -4.5,1c-1.34,0.079 -2.662,-0.397 -4,-0.5c-0.83,-0.064 -1.672,0.083 -2.5,0c-0.845,-0.084 -1.695,-0.232 -2.5,-0.5c-0.706,-0.235 -1.473,-0.473 -2,-1c-0.527,-0.527 -0.288,-1.781 -1,-2c-1.751,-0.539 -3.779,0.62601 -5.5,0.00001z" id="ID0.5636751088313758" fill="#e0f6f1" stroke="#e0f6f1" stroke-width="2"/><path d="M194.64131,279.44893c0.2681,-5.9108 0.4236,-11.8528 1.0434,-17.7375c0.1544,-1.4712 0.6959,-1.3919 1.0434,-2.0868c0.3474,-0.6948 0.6959,-1.3918 1.0433,-2.0867c0.3475,-0.6949 0.696,-1.39189 1.0434,-2.08679c0.3475,-0.6949 0.4935,-1.5369 1.0434,-2.0867c0.5499,-0.5499 1.4649,-0.577 2.0868,-1.0434c0.7856,-0.5895 1.3011,-1.4973 2.0867,-2.0868c0.6219,-0.4664 1.3502,-0.7982 2.0868,-1.0434c1.3595,-0.4528 2.7691,-0.7627 4.1735,-1.0433c2.0721,-0.4143 4.21,-0.5311 6.2603,-1.0434c0.7533,-0.1889 1.3334,-0.8545 2.0867,-1.0434c0.6741,-0.169 1.3919,0 2.0868,0c1.3898,0 2.8255,0.337 4.1735,0c1.5077,-0.3767 2.9601,-1.1164 4.1735,-2.0867c0.6062,-0.4852 0.4936,-1.5369 1.0434,-2.0868c0.5499,-0.5499 1.5369,-0.4935 2.0868,-1.0434c0.5498,-0.5499 0.4935,-1.5369 1.0434,-2.0867c0.5498,-0.5499 1.4805,-0.5583 2.0867,-1.0434c1.1509,-0.9213 2.2088,-1.9793 3.1302,-3.1302c0.4851,-0.6062 0.4935,-1.5369 1.0433,-2.0867c0.5499,-0.5499 1.6559,-0.3965 2.0868,-1.0434c1.0382,-1.5567 1.0486,-3.6602 2.0867,-5.2169c0.431,-0.6469 1.5369,-0.4935 2.0868,-1.0434c0.5499,-0.5498 0.4372,-1.6016 1.0434,-2.0867c1.2134,-0.9704 2.8244,-1.3157 4.1735,-2.0868c1.0872,-0.6219 1.9856,-1.5776 3.1301,-2.0868c2.0086,-0.8921 4.2028,-1.3157 6.2603,-2.0867c0.7273,-0.2723 1.3335,-0.8546 2.0868,-1.0434c0.674,-0.169 1.3919,0 2.0867,0c0.6949,0 1.4055,0.1367 2.0868,0c1.0778,-0.216 2.0377,-0.9224 3.1301,-1.0434c2.0722,-0.2306 4.1757,0 6.2603,0c0.6949,0 1.3919,0 2.0868,0c1.0423,0 2.094,-0.1148 3.1301,0c2.1003,0.2337 4.16,0.8097 6.2603,1.0434c1.0361,0.1148 2.092,-0.0939 3.1301,0c2.79,0.2535 5.5602,0.7648 8.3471,1.0434c0.697,0.0699 1.4127,-0.1691 2.0867,0c0.7534,0.1888 1.3919,0.6959 2.0868,1.0434c0.6949,0.3474 1.3209,1.1706 2.0868,1.0433c1.5327,-0.2556 2.96,-1.1164 4.1735,-2.0867c0.6062,-0.4852 0.4935,-1.5369 1.0434,-2.0868c0.5498,-0.5498 1.4899,-0.5457 2.0867,-1.0434c1.5098,-1.2583 2.6815,-2.8943 4.1735,-4.1735c0.9516,-0.8149 2.1786,-1.2719 3.1302,-2.0867c1.492,-1.2792 2.6815,-2.8944 4.1735,-4.1736c0.9516,-0.8148 1.9855,-1.5776 3.1301,-2.0867c2.0085,-0.8921 4.2028,-1.3157 6.2603,-2.0868c0.7272,-0.2723 1.3501,-0.7982 2.0868,-1.0434c1.3595,-0.4528 2.7608,-0.8075 4.1735,-1.0433c0.6855,-0.1138 1.3919,0 2.0867,0c1.0424,0 2.0879,0 3.1302,0c2.7796,0 5.6687,-0.744 8.347,0c3.7426,1.0392 7.0136,3.3753 10.4338,5.2169c1.1029,0.5936 2.0555,1.4419 3.1302,2.0867c0.6656,0.3996 1.3334,0.8545 2.0867,1.0434c0.674,0.169 1.4649,0.3109 2.0868,0c0.8785,-0.4393 1.3919,-1.3919 2.0867,-2.0868c1.0424,-1.0423 2.0284,-2.1504 3.1302,-3.1301c2.0283,-1.803 4.017,-3.6915 6.2603,-5.2169c5.2951,-3.15 6.3781,-3.439 8.347,-4.1735c2.3852,-0.8326 4.8809,-1.3595 7.3037,-2.0868c1.0527,-0.3161 2.0732,-0.7418 3.1301,-1.0434c1.3773,-0.3933 2.7462,-0.9244 4.1735,-1.0433c2.7702,-0.2306 5.5675,0 8.3471,0c1.0423,0 2.0878,0 3.1301,0c3.127,0 6.2717,-0.2233 9.3904,0c1.7675,0.1262 3.4985,0.6135 5.2169,1.0433c1.0663,0.2661 2.1202,0.6104 3.1302,1.0434c3.8584,1.6538 7.6782,3.4296 11.4771,5.2169c2.1087,0.9923 4.2226,1.9981 6.2603,3.1302c1.0956,0.6083 2.1515,1.3042 3.1301,2.0867c0.7669,0.6135 1.4973,1.3011 2.0868,2.0868c0.4664,0.6218 0.577,1.4649 1.0434,2.0867c0.5895,0.7857 1.4972,1.3011 2.0867,2.0868c0.4664,0.6219 0.577,1.4649 1.0434,2.0868c0.5895,0.7856 1.4973,1.3011 2.0868,2.0867c0.4664,0.6219 0.8545,1.3335 1.0434,2.0868c0.169,0.674 -0.4915,1.5953 0,2.0867c0.4914,0.4915 1.3918,0 2.0867,0c0.6949,0 1.4649,0.311 2.0868,0c2.2412,-1.1206 4.0702,-2.9569 6.2603,-4.1735c0.9609,-0.5331 2.0878,-0.6959 3.1301,-1.0434c2.0847,-0.6949 4.1756,-1.3918 6.2603,-2.0867c2.0847,-0.6949 4.1286,-1.5536 6.2603,-2.0868c0.674,-0.169 1.3918,0 2.0867,0c2.0847,0 4.1756,0 6.2603,0c1.0423,0 2.0982,-0.1471 3.1301,0c1.418,0.2024 2.7963,0.65 4.1736,1.0434c1.0569,0.3015 2.1013,0.6573 3.1301,1.0434c1.7518,0.6573 3.4974,1.3501 5.2169,2.0867c0.7137,0.3057 1.3919,0.696 2.0868,1.0434c1.3897,0.6949 2.9465,1.1331 4.1735,2.0868c1.9396,1.5087 3.2511,3.7426 5.2169,5.2169c0.8785,0.6594 2.2516,0.3839 3.1301,1.0434c0.6219,0.4663 0.6959,1.3918 1.0434,2.0867c0.3474,0.6949 0.6959,1.3919 1.0434,2.0868c0.3474,0.6949 0.6959,1.3918 1.0433,2.0867c0.3475,0.6949 0.3485,1.7393 1.0434,2.0868c0.9328,0.4664 2.1974,0.4664 3.1302,0c1.9897,-0.9954 3.4066,-2.8808 5.2169,-4.1735c0.6323,-0.4518 1.3918,-0.696 2.0867,-1.0434c0.6949,-0.3475 1.3731,-1.2761 2.0868,-1.0434c3.0529,2.2861 3.6894,0.3297 5.2169,0c0.987,-0.2327 2.0878,0 3.1301,0c1.3898,0 2.7838,0 4.1735,0c1.0424,0 2.0878,0 3.1302,0c3.127,0 6.2634,0 9.3904,0c1.0423,0 2.1128,-0.2264 3.1301,0c2.1452,0.4768 4.2602,1.1769 6.2603,2.0868c1.8447,0.8378 3.4046,2.2245 5.2169,3.1301c0.9829,0.4914 2.1097,0.6354 3.1302,1.0434c0.7209,0.289 1.3918,0.6959 2.0867,1.0434c1.3898,0.6949 2.7838,1.3918 4.1735,2.0867c0.6949,0.3475 1.5369,0.4936 2.0868,1.0434c0.8858,0.8858 1.2009,2.2443 2.0868,3.1302c0.8858,0.8858 2.1514,1.3042 3.1301,2.0867c0.7669,0.6135 1.3011,1.4973 2.0868,2.0868c0.6218,0.4664 1.4649,0.577 2.0867,1.0434c0.7857,0.5895 1.4973,1.301 2.0868,2.0867c0.4664,0.6219 0.577,1.4649 1.0434,2.0868c0.5895,0.7856 1.5807,1.2437 2.0867,2.0867c0.5655,0.9422 0.384,2.2516 1.0434,3.1302c0.4664,0.6218 1.3094,1.0433 2.0868,1.0433c0.7773,0 1.5369,-0.4935 2.0867,-1.0433c0.5499,-0.5499 0.577,-1.4649 1.0434,-2.08679c0.5895,-0.7857 1.4972,-1.30111 2.0868,-2.0867c0.4663,-0.6219 0.4935,-1.5369 1.0433,-2.08679c0.5499,-0.5499 1.4211,-0.6438 2.0868,-1.04341c1.0747,-0.6448 2.0429,-1.4649 3.1301,-2.0867c1.3491,-0.7711 2.8245,-1.31579 4.1735,-2.08679c1.0873,-0.6219 1.9898,-1.5682 3.1302,-2.0868c2.7023,-1.228 5.6447,-1.90201 8.347,-3.13011c1.1404,-0.5186 1.9668,-1.6214 3.1302,-2.08679c0.6448,-0.2577 1.4127,0.1691 2.0867,0c0.7533,-0.1888 1.3157,-0.9474 2.0868,-1.0433c2.069,-0.2588 4.1756,0 6.2603,0c1.7372,0 3.4974,-0.2452 5.2169,0c0.7689,0.1095 1.3918,0.6959 2.0867,1.0433c0.6949,0.3475 1.4649,0.577 2.0868,1.0434c0.7856,0.5895 1.154,1.7758 2.0867,2.0868c1.3189,0.4392 2.8026,0.2285 4.1736,0c0.7658,-0.1273 1.3397,-0.8295 2.0867,-1.04341c1.7039,-0.4862 3.463,-0.793 5.2169,-1.0434c0.6876,-0.0981 1.3919,0 2.0868,0c1.3898,0 2.7837,0 4.1735,0c2.0847,0 4.1756,0 6.2603,0c1.0423,0 2.3935,-0.7366 3.1301,0c1.0131,1.0131 0.9411,2.7441 1.0434,4.1735c0.2473,3.4661 0,6.9594 0,10.4338c0,1.7373 0,3.4797 0,5.2169c0,3.127 0,6.2634 0,9.3904c0,1.3898 0,2.78381 0,4.17361c0,3.127 0,6.2634 0,9.3904c0,1.0423 0,2.0878 0,3.1301c0,1.3898 0,2.7838 0,4.1735c0,3.1271 0,6.2635 0,9.3905c0,1.0423 0,2.0878 0,3.1301c0,1.0423 0,2.0878 0,3.1301c0,3.4745 0,6.9594 0,10.4338c0,3.8219 0,7.6553 0,11.4772c0,2.7796 0,5.5675 0,8.3471c0,6.254 0,12.5268 0,18.7808c0,2.4321 0,4.8715 0,7.3036c0,2.7796 0,5.5675 0,8.3471c0,1.7372 0,3.4797 0,5.2169c0,2.0847 0,4.1756 0,6.2603c0,2.4321 2.2485,6.3771 0,7.3036c-5.4621,2.2485 -11.8309,0 -17.7375,0c-15.9825,0 -32.0129,0 -47.9954,0c-26.0584,0 -52.1951,0 -78.2535,0c-22.2365,0 -44.5398,0 -66.7763,0c-20.4993,0 -41.0601,0 -61.5594,0c-16.33,0 -32.7089,0 -49.0389,0c-12.8555,0 -25.7495,0 -38.605,0c-13.203,0 -26.4455,0 -39.6485,0c-10.4233,0 -20.878,0 -31.3014,0c-7.2963,0 -14.6146,0 -21.9109,0c-5.5592,0 -11.135,0 -16.6941,0c-6.6015,0 -13.2228,0 -19.8242,0c-3.8219,0 -7.7899,1.0058 -11.4772,0c-1.0058,-0.2744 0,-2.0878 0,-3.1301c0,-1.0424 0,-2.0878 0,-3.1302c0,-2.0846 0,-4.1756 0,-6.2602c0,-1.0424 0,-2.0878 0,-3.1302c0,-1.3898 0,-2.7837 0,-4.1735c0,-3.127 0,-6.2634 0,-9.3904c0,-1.7372 0,-3.4797 0,-5.2169c0,-3.4745 0,-6.9594 0,-10.4338c0,-3.127 0,-6.2634 0,-9.3904c0,-1.0424 0,-2.0878 0,-3.1302c0,-3.127 0,-6.2634 0,-9.3904c0,-0.7815 0,-1.3919 0,-2.0867c0,-2.0847 0,-4.1756 0,-6.2603c0,-1.3898 0,-2.7838 0,-4.1735c0,-3.1271 0,-6.2635 0,-9.3905c0,-2.0846 0,-4.1756 0,-6.2602c0,-1.7373 -0.0793,-3.48181 0,-5.2169z" id="ID0.24151752423495054" fill="url(#color-11)" stroke="url(#color-12)" stroke-width="2.08676"/></g></g></g></svg>