<svg version="1.1" xmlns="http://www.w3.org/2000/svg" xmlns:xlink="http://www.w3.org/1999/xlink" width="1575" height="294" viewBox="0,0,1575,294"><defs><linearGradient x1="275.86007" y1="132.64669" x2="275.86007" y2="356.35517" gradientUnits="userSpaceOnUse" id="color-1"><stop offset="0" stop-color="#acacac"/><stop offset="1" stop-color="#e6e6e6"/></linearGradient><linearGradient x1="242" y1="63.71666" x2="242" y2="357.71666" gradientUnits="userSpaceOnUse" id="color-2"><stop offset="0" stop-color="#00c0eb" stop-opacity="0"/><stop offset="1" stop-color="#00c0eb"/></linearGradient></defs><g transform="translate(545.5,-63.71666)"><g data-paper-data="{&quot;isPaintingLayer&quot;:true}" fill-rule="nonzero" stroke-linecap="butt" stroke-linejoin="miter" stroke-miterlimit="10" stroke-dasharray="" stroke-dashoffset="0" style="mix-blend-mode: normal"><path d="M-346.03223,356.35517v-223.70848h1243.78459v223.70848z" fill="url(#color-1)" stroke="none" stroke-width="0"/><g stroke="#000000"><path d="M-177.80913,256.01746v-138.41765h149.08664v138.41765z" data-paper-data="{&quot;origPos&quot;:null}" fill="#d1c7b4" stroke-width="1"/><path d="M-129.23363,256.16141v-85.99003h48.3694v85.99003z" data-paper-data="{&quot;origPos&quot;:null}" fill="#dedede" stroke-width="0.5"/></g><g stroke="#000000"><path d="M12.21356,254.28998v-138.41764h149.08664v138.41764z" data-paper-data="{&quot;origPos&quot;:null}" fill="#d1c7b4" stroke-width="1"/><path d="M60.78903,254.43393v-85.99001h48.36941v85.99002z" data-paper-data="{&quot;origPos&quot;:null}" fill="#dedede" stroke-width="0.5"/></g><g stroke="#000000"><path d="M200.50873,254.28998v-138.41764h149.08664v138.41764z" data-paper-data="{&quot;origPos&quot;:null}" fill="#d1c7b4" stroke-width="1"/><path d="M249.08422,254.43393v-85.99001h48.36941v85.99002z" data-paper-data="{&quot;origPos&quot;:null}" fill="#dedede" stroke-width="0.5"/></g><g stroke="#000000"><path d="M390.53138,252.56248v-138.41764h149.08664v138.41764z" data-paper-data="{&quot;origPos&quot;:null}" fill="#d1c7b4" stroke-width="1"/><path d="M439.10687,252.70644v-85.99001h48.3694v85.99002z" data-paper-data="{&quot;origPos&quot;:null}" fill="#dedede" stroke-width="0.5"/></g><g stroke="#000000"><path d="M580.55404,252.56248v-138.41764h149.08664v138.41764z" data-paper-data="{&quot;origPos&quot;:null}" fill="#d1c7b4" stroke-width="1"/><path d="M629.12951,252.70644v-85.99001h48.3694v85.99002z" data-paper-data="{&quot;origPos&quot;:null}" fill="#dedede" stroke-width="0.5"/></g><path d="M-545.5,357.71666v-294h1575v294z" fill="url(#color-2)" stroke="none" stroke-width="NaN"/></g></g></svg>