<svg xmlns="http://www.w3.org/2000/svg" xmlns:xlink="http://www.w3.org/1999/xlink" version="1.1" width="160.18183" height="415.31335" viewBox="0,0,160.18183,415.31335"><g><g data-paper-data="{&quot;isPaintingLayer&quot;:true}" fill-rule="nonzero" stroke-linejoin="miter" stroke-miterlimit="10" stroke-dasharray="" stroke-dashoffset="0" style="mix-blend-mode: normal"><g><g stroke-linecap="round"><path d="M 73.6575 132.5388 C 73.6575 132.5388 70.5715 112.9759 67.821 105.4952 C 65.4854 99.1431 58.1946 90.4841 58.1946 90.4841 L 77.7443 80.0129 C 77.7443 80.0129 85.5542 91.0965 88.2571 97.7475 C 91.2621 105.1418 94.9643 122.3855 94.9643 122.3855 " fill="#6b6b6b" stroke-width="5.5" stroke="#545454"/><g><path d="M 65.7285 102.2666 L 79.5622 93.5812 " stroke-width="4" fill="none" stroke="#545454"/><path d="M 87.7181 109.2202 L 70.8402 121.8192 " stroke-width="4" fill="none" stroke="#545454"/></g></g><path d="M 60.3233 112.7985 C 33.3073 119.5604 45.9405 73.117 45.9405 73.117 C 45.9405 73.117 18.6045 81.273 17.1239 64.5203 C 15.787 49.392 44.8025 43.1764 44.8025 43.1764 C 44.8025 43.1764 35.6287 8.2144 53.4213 3.4973 C 72.0159 -2.9139 82.141 34.0383 82.141 34.0383 C 82.141 34.0383 113.4824 20.795 119.4247 37.755 C 126.7472 61.2323 94.2346 61.6039 94.2346 61.6039 C 94.2346 61.6039 123.6237 94.4796 101.8208 100.8378 C 86.9818 105.1651 78.056 94.6362 78.056 94.6362 C 78.056 94.6362 76.5683 108.7326 60.3234 112.7986 Z " data-paper-data="{&quot;index&quot;:null,&quot;origRot&quot;:0}" fill="#fbff27" stroke="#ffd200" stroke-width="5.5" stroke-linecap="butt"/><g><path d="M 110.3002 213.3703 C 110.3002 213.3703 126.6321 220.6982 140.5289 260.6031 C 153.3165 297.3228 147.1602 312.263 147.1602 312.263 L 118.3914 314.0611 C 118.3914 314.0611 114.5798 281.7201 111.5088 270.4132 C 108.0364 257.6285 104.906 254.7255 104.906 254.7255 " data-paper-data="{&quot;index&quot;:null}" fill="#b1b1b1" stroke="#747474" stroke-linecap="round" stroke-width="3.5"/><path d="M 154.0734 341.5784 C 147.2229 350.4713 133.6687 352.4995 123.7992 346.1084 C 113.9297 339.7172 111.4823 327.327 118.3328 318.434 C 120.5254 315.5877 114.1106 321.0672 110.1555 314.2589 C 104.5893 304.6774 120.8194 301.7877 134.6565 301.1223 C 148.0259 300.4794 155.7767 301.4319 156.7108 303.8639 C 159.9877 312.3953 147.2531 312.3499 149.941 314.0905 C 159.8105 320.4816 160.9238 332.6854 154.0734 341.5784 Z " data-paper-data="{&quot;index&quot;:null}" fill="#ffffff" stroke="#d3d3d3" stroke-linecap="butt" stroke-width="3.5"/></g><path d="M 47.0974 213.048 L 71.603 212.7257 L 71.603 194.9978 L 97.9743 193.2831 L 97.7113 212.7257 L 121.0686 212.8869 L 118.7738 391.3751 L 88.5378 391.3751 C 88.5378 391.3751 89.0944 336.2979 85.6369 331.3412 C 83.9616 328.9395 78.701 391.2235 78.701 391.2235 L 45.2837 391.0528 Z " fill="#b1b1b1" stroke="#747474" stroke-width="3.5" stroke-linecap="round"/><path d="M 61.223 389.6015 L 46.5138 389.6015 L 45.9367 343.3081 " data-paper-data="{&quot;index&quot;:null}" fill="#999999" stroke="#747474" stroke-width="3" stroke-linecap="round"/><path d="M 32.6823 413.5634 C 32.6823 413.5634 30.1463 395.5559 37.1948 391.3602 C 39.1829 390.1768 47.4499 390.4886 47.4499 390.4886 L 79.097 390.6664 L 79.097 413.5634 Z " fill="#333333" stroke="#2d2d2d" stroke-width="3.5" stroke-linecap="butt"/><path d="M 88.3227 413.5634 L 88.3227 390.6664 L 119.9698 390.4886 C 119.9698 390.4886 128.2368 390.1768 130.2249 391.3602 C 137.2734 395.5559 134.7375 413.5634 134.7375 413.5634 Z " data-paper-data="{&quot;index&quot;:null}" fill="#333333" stroke="#2d2d2d" stroke-width="3.5" stroke-linecap="butt"/><g><path d="M 55.2758 254.7255 C 55.2758 254.7255 52.1454 257.6285 48.673 270.4132 C 45.602 281.7201 41.7904 314.0611 41.7904 314.0611 L 13.0216 312.263 C 13.0216 312.263 6.8653 297.3228 19.6529 260.6031 C 33.5497 220.6982 49.8816 213.3703 49.8816 213.3703 " fill="#b1b1b1" stroke="#747474" stroke-linecap="round" stroke-width="3.5"/><path d="M 10.2408 314.0905 C 12.9288 312.3499 0.1942 312.3953 3.471 303.8639 C 4.4051 301.4319 12.1559 300.4794 25.5253 301.1223 C 39.3624 301.7877 55.5925 304.6774 50.0264 314.2589 C 46.0712 321.0673 39.6564 315.5877 41.8491 318.434 C 48.6995 327.327 46.2521 339.7172 36.3826 346.1084 C 26.5131 352.4995 12.9589 350.4713 6.1085 341.5784 C -0.742 332.6854 0.3713 320.4816 10.2408 314.0905 Z " data-paper-data="{&quot;index&quot;:null}" fill="#ffffff" stroke="#d3d3d3" stroke-linecap="butt" stroke-width="3.5"/></g><path d="M 71.8795 258.4398 C 72.0302 248.1305 79.5626 239.9105 88.7035 240.0799 C 97.8445 240.2493 105.1325 248.7439 104.9818 259.0532 C 104.831 269.3625 97.2986 277.5825 88.1577 277.4131 C 79.0168 277.2437 71.7288 268.7491 71.8795 258.4398 Z " data-paper-data="{&quot;index&quot;:null,&quot;origRot&quot;:0}" fill="#65abff" stroke="#1b81ff" stroke-width="3" stroke-linecap="butt"/><path d="M 97.7113 265.6688 C 93.8434 265.6688 93.8434 261.8009 93.8434 261.8009 L 93.8434 260.8339 C 93.8534 255.3457 94.4524 253.1591 89.2127 250.7558 C 89.2127 250.7558 85.7532 249.0261 87.483 245.5665 C 89.2127 242.1069 92.6723 243.8367 92.6723 243.8367 C 100.5106 247.9708 101.5655 252.3932 101.5792 260.8339 L 101.5792 261.8009 C 101.5792 261.8009 101.5792 265.6688 97.7113 265.6688 Z " fill="#ffffff" stroke="none" stroke-width="0.5" stroke-linecap="butt"/><path d="M 102.5462 213.1714 L 119.8581 213.1714 L 120.4352 250.6807 " fill="#cccccc" stroke="#747474" stroke-width="3" stroke-linecap="round"/><g><path d="M 41.3493 204.3718 L 41.3493 121.3214 L 126.4261 121.3214 L 126.4261 204.3718 Z " fill="#b1b1b1" stroke="#747474" stroke-width="3.5" stroke-linecap="butt"/><path d="M 64.4368 178.6594 L 64.4368 134.0068 L 85.2408 134.0068 L 85.2408 178.6594 Z " fill="#13a8ff" stroke="#00a2ff" stroke-width="2.5" stroke-linecap="butt"/><path d="M 97.4188 178.6594 L 97.4188 134.0068 L 118.2229 134.0068 L 118.2229 178.6594 Z " fill="#13a8ff" stroke="#00a2ff" stroke-width="2.5" stroke-linecap="butt"/><path d="M 90.7542 193.8 C 82.4393 195.9505 77.8833 187.6572 77.8833 187.6572 " fill="none" stroke="#363636" stroke-width="2.5" stroke-linecap="round"/></g><path d="M233.32108,139.46369c0,5.79472 -2.84037,10.49226 -6.34416,10.49226c-3.50379,0 -6.34416,-4.69754 -6.34416,-10.49226c0,-5.79472 2.84037,-10.49227 6.34416,-10.49227c3.50379,0 6.34416,4.69754 6.34416,10.49227z" fill="#b7e5ff" stroke="none" stroke-width="0" stroke-linecap="butt" transform="matrix(1,0,0,1,-147.40996,13.29768)"/><path d="M263.57783,140.43972c0,5.79472 -2.84037,10.49227 -6.34416,10.49227c-3.50379,0 -6.34416,-4.69754 -6.34416,-10.49227c0,-5.79472 2.84037,-10.49227 6.34416,-10.49227c3.50379,0 6.34416,4.69754 6.34416,10.49227z" fill="#b7e5ff" stroke="none" stroke-width="0" stroke-linecap="butt" transform="matrix(1,0,0,1,-147.40996,13.29768)"/><path d="M 104.9537 39.0952 C 104.9537 42.9993 101.0496 42.9993 101.0496 42.9993 L 100.0736 42.9993 C 94.165 42.96 88.3327 43.8142 82.7637 45.727 C 82.7637 45.727 82.205 45.9132 81.4492 45.924 C 81.2481 46.9529 80.5975 48.0758 78.8596 48.655 C 75.1559 49.8896 73.9213 46.1859 73.9213 46.1859 L 72.8207 42.7889 C 71.3905 35.6377 70.5266 28.5804 65.1042 23.3113 C 65.1042 23.3113 62.3435 20.5507 65.1042 17.7901 C 67.8648 15.0295 70.6254 17.7901 70.6254 17.7901 C 76.4627 23.7522 78.3178 30.715 79.9165 38.4788 C 80.1452 38.3693 80.2945 38.3195 80.2945 38.3195 C 86.8111 36.2008 93.2156 35.2285 100.0736 35.191 L 101.0496 35.191 C 101.0496 35.191 104.9537 35.191 104.9537 39.0951 Z " fill="#ffffff" stroke="none" stroke-width="0.5" stroke-linecap="butt"/></g></g></g></svg>