<svg version="1.1" xmlns="http://www.w3.org/2000/svg" xmlns:xlink="http://www.w3.org/1999/xlink" width="914.35285" height="1026.1755" viewBox="0,0,914.35285,1026.1755"><g transform="translate(302.85285,607.01235)"><g data-paper-data="{&quot;isPaintingLayer&quot;:true}" fill-rule="nonzero" stroke="none" stroke-width="0" stroke-linecap="butt" stroke-linejoin="miter" stroke-miterlimit="10" stroke-dasharray="" stroke-dashoffset="0" style="mix-blend-mode: normal"><path d="" fill="#6f3615"/><path d="" fill="#6f3615"/><path d="" fill="#6f3615"/><path d="" fill="#6f3615"/><path d="" fill="#6f3615"/><path d="" fill="#6f3615"/><path d="" fill="#6f3615"/><path d="" fill="#6f3615"/><path d="" fill="#6f3615"/><path d="" fill="#6f3615"/><path d="" fill="#6f3615"/><path d="M153.72025,247v-14.04258h83.11488v14.04258z" fill="#c41476"/><path d="" fill="#6f3615"/><path d="" fill="#6f3615"/><path d="" fill="#6f3615"/><path d="" fill="#6f3615"/><path d="" fill="#6f3615"/><path d="" fill="#6f3615"/><path d="" fill="#6f3615"/><path d="" fill="#6f3615"/><path d="" fill="#6f3615"/><path d="" fill="#6f3615"/><path d="" fill="#6f3615"/><path d="M347.5,416.71666v-231h19v231z" fill="#c41476"/><path d="M404.47598,419.16315v-1026.1755h194.52402v1026.1755z" fill="#c41476"/><path d="M347.5,3v48.71666h19v-48.71666z" fill="#c41476"/><path d="M23.5,-66.77884v-45.87087h588v45.87087z" fill="#c41476"/><path d="M271.5,2v48.71666h19v-48.71666z" fill="#c41476"/><path d="M173.5,2v48.71666h19v-48.71666z" fill="#c41476"/><path d="M16.5,1v48.71666h19v-48.71666z" fill="#c41476"/><g><path d="M107.5,-73.17993v-60.47511h21.65158v60.47511z" fill="#c41476"/><path d="M219.49095,-72.43332v-113.48416h21.65158v113.48416z" fill="#c41476"/><path d="M324.76244,-73.17992v-164.25339h85.11312v164.25339z" fill="#c41476"/></g><path d="M-302.85285,42.78811v-512.01201h231.23123v512.01201z" fill="#c41476"/></g></g></svg>