<svg version="1.1" xmlns="http://www.w3.org/2000/svg" xmlns:xlink="http://www.w3.org/1999/xlink" width="144.1028" height="413.19616" viewBox="0,0,144.1028,413.19616"><g transform="translate(-165.15406,-5.55632)"><g data-paper-data="{&quot;isPaintingLayer&quot;:true}" fill-rule="nonzero" stroke-linejoin="miter" stroke-miterlimit="10" stroke-dasharray="" stroke-dashoffset="0" style="mix-blend-mode: normal"><path d="M169.03965,365.27596c0,0 28.92545,-22.12349 50.15744,-45.22639c14.15437,-15.4016 -1.9685,-60.89268 -1.9685,-60.89268l38.35776,7.29873c0,0 3.17222,62.4309 -16.25092,85.8695c-9.74982,11.76548 -22.71421,33.5905 -22.71421,33.5905l-7.82184,15.90026z" data-paper-data="{&quot;origPos&quot;:null,&quot;index&quot;:null,&quot;origRot&quot;:0}" fill="#353535" stroke="#000000" stroke-width="5" stroke-linecap="butt"/><path d="M227.09427,416.12671l-6.92021,-133.82119l42.94263,-2.22066c0,0 0.8391,46.51585 3.96603,76.79536c1.56963,15.1994 8.06826,39.73865 8.06826,39.73865l5.87127,16.7191z" data-paper-data="{&quot;origPos&quot;:null,&quot;index&quot;:null,&quot;origRot&quot;:0}" fill="#616161" stroke="#000000" stroke-width="5" stroke-linecap="butt"/><path d="M271.04965,283.50001c-0.782,3.383 1.025,0.996 -5.5,1c-26.099,0.014 -51.71,0.549 -77.5,0c-6.456,-0.141 -6.136,7.9 -6.5,-0.5c-1.458,-33.601 0.11,-68.09 2.5,-102c0.938,-13.476 3.134,-26.295 7.4,-38.5c1.082,-3.305 2.823,-4.738 7.6,-5c19.107,-1.048 38.393,-1.237 57.5,0c4.777,0.309 10.441,0.527 12,4.5c4.279,10.904 3.004,23.297 3.5,35c0.842,20.069 0.637,42.026 0.25,63c-0.253,13.939 0.676,28.434 -1.25,42.5z" data-paper-data="{&quot;origPos&quot;:null,&quot;index&quot;:null}" id="ID0.6861933465115726" fill="#ff9400" stroke="#000000" stroke-width="5" stroke-linecap="round"/><g data-paper-data="{&quot;origPos&quot;:null,&quot;origRot&quot;:0}" stroke-width="5" stroke-linecap="round"><path d="M228.96446,142.09521c2.92081,1.61169 2.57841,6.12351 3.69884,9.34444c1.97963,6.06015 3.40355,12.38018 5.60608,18.48842c2.34734,6.48028 5.31195,13.10554 8.07132,18.9038c3.46855,7.37684 7.53483,14.49235 11.23914,21.76997c3.61807,7.14546 8.7517,15.59161 11.71234,23.77648c0.74423,2.07592 0.84759,3.60149 -1.06012,4.48621c-7.63263,3.53984 -15.72727,9.60502 -23.39003,7.01121c-7.91159,-2.3303 -11.2947,-12.12697 -15.14163,-19.19254c-4.11739,-7.57419 -6.92877,-15.87325 -9.369,-24.14222c-2.70385,-9.148 -5.5815,-18.66319 -6.82829,-28.26742c-0.91342,-7.0315 -0.58203,-13.91675 0.62837,-20.58166c0.78192,-3.93294 2.17124,-8.34828 5.23024,-10.57802c2.59173,-1.87484 6.52927,-2.67536 9.60273,-1.01868z" data-paper-data="{&quot;origPos&quot;:null,&quot;index&quot;:null,&quot;origRot&quot;:0}" id="ID0.4585498459637165" fill="#ff9400" stroke="#000000"/><path d="M245.11692,242.92036c0,0 -7.09688,-10.57697 -10.04893,-16.19472c-3.42004,-6.49594 -7.71112,-13.46049 -9.75132,-20.84997c-3.84283,-13.94389 -6.70639,-28.66347 -7.27141,-43.51295c-0.42431,-5.28192 4.35824,-15.75486 4.35824,-15.75486" data-paper-data="{&quot;origPos&quot;:null,&quot;index&quot;:null,&quot;origRot&quot;:0}" id="ID0.497054744977504" fill="none" stroke="#cc7700"/><path d="M269.20228,237.80098c0.91291,2.70346 2.22012,5.08068 3.11094,7.1158c0.76316,1.74201 0.86602,3.85081 0.40911,5.69715c-0.43907,1.7741 -1.70348,3.29456 -2.95917,4.62259c-1.2138,1.28276 -2.60248,2.6693 -4.32094,3.07482c-3.48018,0.82098 -7.19465,1.02465 -10.72789,0.47415c-1.96202,-0.30604 -3.57779,-1.78121 -5.18156,-2.95195c-1.42498,-1.04022 -2.78129,-2.23517 -3.8487,-3.64005c-1.00735,-1.3256 -2.98775,-3.1212 -2.2937,-4.44285c0.72459,-1.38019 3.44117,-0.55212 5.13096,-0.96085c5.47738,-1.32312 11.07543,-2.34054 16.38169,-4.23708c1.32622,-0.47423 1.78731,-3.1409 3.09554,-2.72352z" data-paper-data="{&quot;origPos&quot;:null,&quot;index&quot;:null,&quot;origRot&quot;:0}" id="ID0.8610531273297966" fill="#ffd499" stroke="#000000"/></g><path d="M226.44965,140.66667c1.927,2.599 0.05,6.6 -0.4,9.5c-0.376,2.469 -0.924,5.259 -2.418,7.069c-1.493,1.81 -3.556,2.931 -5.832,2.931c-2.276,0 -4.339,-1.121 -5.832,-2.931c-1.494,-1.81 -6.214,-5.22167 -6.418,-7.73567c-0.22,-2.68 -0.17133,-6.47433 1.56667,-8.83334c1.625,-1.718 8.22333,-0.258 10.68333,-0.5c2.859,-0.282 6.774,-1.511 8.65,0.5z" data-paper-data="{&quot;origPos&quot;:null,&quot;index&quot;:null}" id="ID0.6992864599451423" fill="#ff9400" stroke="none" stroke-width="1" stroke-linecap="round"/><path d="M186.50001,282.48508c0,0 -4.70296,-49.06894 -2.91271,-78.55541c1.52699,-25.15033 11.41271,-61.44459 11.41271,-61.44459" data-paper-data="{&quot;origPos&quot;:null}" fill="none" stroke="#cc7700" stroke-width="5" stroke-linecap="round"/><g data-paper-data="{&quot;index&quot;:null,&quot;origPos&quot;:null}"><path d="M275.47786,44.33532c10.364,10.364 16.779,24.676 16.779,40.471c0,15.795 -6.415,30.107 -16.779,40.471c-10.364,10.364 -24.676,16.779 -40.471,16.779c-15.795,0 -30.107,-6.415 -40.471,-16.779c-10.364,-10.364 -16.779,-24.676 -16.779,-40.471c0,-15.795 6.415,-30.107 16.779,-40.471c10.364,-10.364 24.676,-16.779 40.471,-16.779c15.795,0 30.107,6.415 40.471,16.779z" data-paper-data="{&quot;origPos&quot;:null}" id="ID0.9676602841354907" fill="#ffd499" stroke="#000000" stroke-width="6" stroke-linecap="round"/><path d="M202.88686,69.01031c13.85,1.622 26.451,-2.669 39.62,-1.704c15.391,1.128 31.104,3.338 46,7.75c3.718,1.106 -3.707,2.891 -5.75,4c-2.502,1.303 -5.992,3.49 -9.25,3.25c-7.849,-0.583 -15.835,-4.875 -24,-5.75c-3.106,-0.105 1.174,2.622 -2.5,2.75c-14.697,0.511 -30.5,-4.859 -45.25,-1.25c-5.326,1.434 -7.601,8.969 -8.5,14.75c-1.063,7.125 1.453,14.79 4.25,21.25c2.966,6.846 13.946,17.992 13,18.25c-0.946,0.258 -15.918,-8.417 -20.25,-15.75c-6.251,-10.334 -9.184,-22.894 -10,-34.75c-0.323,-4.748 3.585,-8.838 6.37,-12.796c2.03,-2.883 4.957,-6.704 8.13,-6.704c3.173,0 4.529,6.284 8.13,6.704z" data-paper-data="{&quot;origPos&quot;:null}" id="ID0.34282135451212525" fill="#e1ba87" stroke="none" stroke-width="1" stroke-linecap="round"/><path d="M176.25686,84.05632c-4.149,-7.143 -2.419,-18.415 -1.25,-27.5c1.114,-8.633 3.513,-17.045 7.5,-24.5c1.139,-1.943 2.501,4.343 4.5,2.5c8.007,-7.393 12.443,-19.02 20.5,-25.5c2.048,-1.644 -1.025,6.938 1.5,7c10.077,0.225 19.864,-6.433 29.75,-5.75c12.368,0.859 24.992,2.711 36,9.5c12.651,7.864 23.234,19.534 31,32.25c1.941,3.179 -8.297,-0.525 -8.75,2.5c-1.102,7.338 8.883,18.809 4,22c-5.868,3.773 -17.423,-7.93 -26.75,-8.5c-2.367,-0.144 1.906,7.404 -1,7c-11.417,-1.4 -21.284,-10.04 -32.75,-11.25c-2.867,-0.302 1.844,7.202 -0.75,7.75c-7.837,1.956 -16.088,-0.955 -24.25,-1.75c-4.684,-0.453 -9.224,-3.127 -14,-2c-5.487,1.33 -8.942,6.24 -14.25,9.25c-3.738,2.185 -9.025,10.106 -11,7z" data-paper-data="{&quot;origPos&quot;:null}" id="ID0.4199218852445483" fill="#8a541e" stroke="#000000" stroke-width="7" stroke-linecap="round"/><path d="M178.25686,78.05632c0,0 0.656,-15.564 1.75,-23.25c0.764,-5.359 1.447,-10.883 3.75,-15.75c0.918,-1.331 1.969,1.072 3,0c5.142,-4.542 9.17,-9.878 13.5,-15c1.616,-1.896 2.032,-5.319 4.25,-6.25c1.377,-0.478 0.568,2.269 1.5,2.75c1.791,0.712 1.848,1.173 4.25,0.75c9.612,-1.693 18.43,-6.554 28,-6.5c10.074,0.056 20.027,2.667 29.25,6.25c7.303,3.028 13.521,8.191 19.5,13.25c4.641,3.93 8.496,9.133 12,14.25c0.877,1.278 -0.861,1.092 -1.5,1.5c-1.621,1.601 -5.264,2.198 -5.25,4.5c0.039,6.231 5.25,17.75 5.25,17.75" data-paper-data="{&quot;origPos&quot;:null}" id="ID0.6959539707750082" fill="none" stroke="#663b00" stroke-width="4" stroke-linecap="round"/><path d="M276.82486,87.58832c0.792,0.792 1.282,1.886 1.282,3.093c0,1.207 -0.49,2.301 -1.282,3.093c-0.792,0.792 -1.886,1.282 -3.093,1.282c-1.207,0 -2.301,-0.49 -3.093,-1.282c-0.792,-0.792 -1.282,-1.886 -1.282,-3.093c0,-1.207 0.49,-2.301 1.282,-3.093c0.792,-0.792 1.886,-1.282 3.093,-1.282c1.207,0 2.301,0.49 3.093,1.282z" data-paper-data="{&quot;origPos&quot;:null}" id="ID0.8793090796098113" fill="#000000" stroke="none" stroke-width="1" stroke-linecap="butt"/><path d="M287.10665,111.8737l-18.88821,-1.83887" data-paper-data="{&quot;origPos&quot;:null}" fill="none" stroke="#000000" stroke-width="3" stroke-linecap="round"/></g></g></g></svg>