<svg version="1.1" xmlns="http://www.w3.org/2000/svg" xmlns:xlink="http://www.w3.org/1999/xlink" width="312.05436" height="433.45716" viewBox="0,0,312.05436,433.45716"><defs><linearGradient x1="440.1556" y1="66.47431" x2="440.1556" y2="140.83456" gradientUnits="userSpaceOnUse" id="color-1"><stop offset="0" stop-color="#3fbf5b"/><stop offset="1" stop-color="#52f75b"/></linearGradient><linearGradient x1="450.59309" y1="106.63072" x2="460.38663" y2="106.63072" gradientUnits="userSpaceOnUse" id="color-2"><stop offset="0" stop-color="#00ab09"/><stop offset="1" stop-color="#185723"/></linearGradient><linearGradient x1="433.82243" y1="106.63072" x2="443.61597" y2="106.63072" gradientUnits="userSpaceOnUse" id="color-3"><stop offset="0" stop-color="#1a5125"/><stop offset="1" stop-color="#00ac09"/></linearGradient><linearGradient x1="337.88072" y1="1.60143" x2="301.57101" y2="126.75905" gradientUnits="userSpaceOnUse" id="color-4"><stop offset="0" stop-color="#3b2103"/><stop offset="1" stop-color="#000000"/></linearGradient></defs><g transform="translate(-168.89861,-1.28119)"><g data-paper-data="{&quot;isPaintingLayer&quot;:true}" fill-rule="nonzero" stroke-linejoin="miter" stroke-miterlimit="10" stroke-dasharray="" stroke-dashoffset="0" style="mix-blend-mode: normal"><g data-paper-data="{&quot;index&quot;:null,&quot;origRot&quot;:0}" stroke-width="0.5" stroke-linecap="butt"><path d="M408.31864,230.90177c-4.31433,8.42636 -15.06088,11.54579 -24.00318,6.96735c-8.94225,-4.57843 -12.69407,-15.1209 -8.37976,-23.54726c4.31433,-8.42637 15.06086,-11.54575 24.00318,-6.96735c8.94226,4.57841 12.69405,15.12089 8.37975,23.5473z" data-paper-data="{&quot;origPos&quot;:null}" fill="#fff8d5" stroke="#45433a"/><path d="M294.93851,156.55238c0,0 29.99482,24.59628 51.99401,34.8225c21.99917,10.22618 50.71429,14.21745 50.71429,14.21745c0,0 0.98717,11.0128 -1.27533,18.70519c-2.26253,7.69239 -8.88436,15.83698 -8.88436,15.83698c0,0 -36.78612,-10.55612 -57.88092,-22.1613c-21.09477,-11.60519 -45.12313,-29.75182 -50.41252,-36.33135c-5.64782,-7.02536 -9.45435,-16.75404 -0.24504,-32.33839z" data-paper-data="{&quot;origRot&quot;:0,&quot;origPos&quot;:null}" fill="#67ff26" stroke="#183b09"/></g><path d="M196.30542,387.76964l26.3323,-111.12941l22.84058,0.13977l-26.3323,111.12941z" data-paper-data="{&quot;origRot&quot;:0,&quot;index&quot;:null}" fill="#00c7c6" stroke="#004040" stroke-width="0.5" stroke-linecap="butt"/><g data-paper-data="{&quot;index&quot;:null}" stroke="#1b1600" stroke-width="0.5"><path d="M221.39682,431.12717c-17.47824,2.89097 -33.14147,3.36118 -33.14147,3.36118c-18.37775,0 -24.98442,-16.5779 -13.21531,-25.58449c4.02536,-3.08052 11.57694,-6.92845 11.57694,-6.92845c0,0 8.98132,-24.70222 8.73928,-35.65865c-0.08288,-3.75131 31.4411,-5.28595 32.07564,1.61159c1.10152,11.97344 -5.01562,63.03016 -6.0351,63.19877z" data-paper-data="{&quot;origPos&quot;:null}" fill="#907900" stroke-linecap="butt"/><path d="M180.8924,405.09317c0,0 0.91036,-1.8795 5.36787,-2.74869c4.45749,-0.86921 13.90787,0.78676 13.90787,0.78676" data-paper-data="{&quot;origPos&quot;:null}" fill="none" stroke-linecap="round"/></g><path d="M203.1636,362.97914l14.65093,-64.3681l4.32323,-0.24018c0,0 -5.91653,19.19648 -8.93586,31.47755c-2.19787,8.93975 -7.15616,32.89055 -7.15616,32.89055z" fill="#00e4e4" stroke="none" stroke-width="0" stroke-linecap="butt"/><path d="M305.67145,163.9866c-76.38744,-12.5662 -70.40884,-60.62425 -70.40884,-60.62425c0,0 23.87878,-34.72325 66.76039,-28.74981c42.88161,5.97344 77.23025,41.00291 77.23025,41.00291c0,0 -12.1741,59.54531 -73.5818,48.37115z" data-paper-data="{&quot;index&quot;:null,&quot;origRot&quot;:0}" fill="#2b1702" stroke="#0f0801" stroke-width="1" stroke-linecap="butt"/><path d="M253.96737,397.59924v-117.53801h22.84099v117.53801z" data-paper-data="{&quot;index&quot;:null}" fill="#00c7c6" stroke="#004040" stroke-width="0.5" stroke-linecap="butt"/><path d="M254.58001,365.46811l0.35881,-66.01343l4.16854,-1.17103c0,0 -0.98658,48.06749 -1.30992,55.97934c-0.13251,3.24229 -0.45575,10.34627 -0.45575,10.34627z" data-paper-data="{&quot;origRot&quot;:0}" fill="#00e4e4" stroke="none" stroke-width="0" stroke-linecap="butt"/><g data-paper-data="{&quot;index&quot;:null}" stroke="#1b1600" stroke-width="0.5"><path d="M248.44721,430.67187c-1.01946,-0.16861 0.15337,-51.22533 1.25488,-63.19879c0.63454,-6.8975 32.62798,-4.08163 32.54512,-0.33029c-0.24204,10.95643 0.70927,34.37735 0.70927,34.37735c0,0 7.82217,3.84791 11.84753,6.92845c11.76911,9.00659 5.16248,25.58449 -13.21531,25.58449c0,0 -15.66326,-0.47024 -33.14147,-3.3612z" data-paper-data="{&quot;origPos&quot;:null}" fill="#907900" stroke-linecap="butt"/><path d="M269.6758,402.67605c0,0 9.45045,-1.65599 13.90787,-0.78676c4.45753,0.86919 5.36787,2.74873 5.36787,2.74873" data-paper-data="{&quot;origPos&quot;:null}" fill="none" stroke-linecap="round"/></g><path d="M249.50149,165.87021c0,0 2.63684,-8.04173 4.32455,-13.18885c3.24173,-9.88648 8.30652,-25.33286 8.30652,-25.33286l33.56893,11.00708l-12.63107,38.52171z" data-paper-data="{&quot;index&quot;:null,&quot;origRot&quot;:0}" fill="#fff8d5" stroke="#514f44" stroke-width="0.5" stroke-linecap="butt"/><path d="M292.21888,152.75176l-2.01605,14.47267l-17.67285,-1.7064l-0.96476,-17.54933z" data-paper-data="{&quot;index&quot;:null,&quot;origRot&quot;:0}" fill="#d4ceb2" stroke="#000000" stroke-width="0" stroke-linecap="butt"/><path d="M237.35148,157.20177c5.8186,0.60739 18.05706,2.88831 28.59164,4.45211c10.5346,1.56381 28.91511,3.29565 28.91511,3.29565c0,0 -13.14766,123.3402 -17.07619,126.23023c-4.94487,3.63774 -28.02863,2.84768 -39.68381,1.22411c-17.01972,-2.37086 -19.85425,-3.1674 -21.04647,-8.80083c-1.64294,-7.76314 20.29974,-126.40128 20.29974,-126.40128z" data-paper-data="{&quot;index&quot;:null,&quot;origRot&quot;:0}" fill="#67ff26" stroke="#183b09" stroke-width="0.5" stroke-linecap="butt"/><path d="M243.55401,292.29886l18.36522,-130.99088l4.01521,0.55906c0,0 -8.52368,60.80398 -13.97927,99.72163c-1.8669,13.31767 -4.38597,31.26954 -4.38597,31.26954z" data-paper-data="{&quot;index&quot;:null,&quot;origRot&quot;:0}" fill="#82a19f" stroke="#2b3434" stroke-width="0.25" stroke-linecap="butt"/><path d="M284.84449,190.16923l3.49587,-25.09587l11.11513,0.94157l1.0222,25.54713z" data-paper-data="{&quot;index&quot;:null,&quot;origRot&quot;:0}" fill="#67ff26" stroke="none" stroke-width="0" stroke-linecap="butt"/><path d="M217.56512,283.46244c0,0 0.69863,-9.49165 1.51003,-15.31647c2.43421,-17.47452 14.10275,-86.06939 14.10275,-86.06939l1.66868,0.40565l-14.06134,105.17019z" data-paper-data="{&quot;origRot&quot;:0}" fill="#b7ff97" stroke="none" stroke-width="0" stroke-linecap="butt"/><path d="M187.51762,401.27059c0,0 4.33538,-14.7653 6.80278,-24.83075c0.90699,-3.69993 1.84368,-10.44129 1.84368,-10.44129l2.4704,-0.72055l-8.16611,36.23277z" fill="#b19300" stroke="none" stroke-width="0" stroke-linecap="butt"/><path d="M171.21973,414.13735c4.30308,-6.75252 16.81257,-11.40853 16.81257,-11.40853c0,0 -11.28592,7.49888 -13.93042,11.64871c-2.6445,4.14983 -1.68126,14.10977 -1.68126,12.84961c0,-1.26016 -5.50397,-6.33727 -1.20089,-13.08979z" fill="#b19300" stroke="none" stroke-width="0" stroke-linecap="butt"/><path d="M249.03787,430.46956l1.20089,-64.60827l2.88217,-0.48038c0,0 -1.60461,3.46842 -1.86301,17.52536c-0.21026,11.43847 -0.05843,47.80345 -0.05843,47.80345z" fill="#b19300" stroke="none" stroke-width="0" stroke-linecap="butt"/><path d="M215.20687,431.17293c0,0 2.85039,-22.67098 4.18069,-37.36589c1.3303,-14.69494 3.73838,-29.64417 3.73838,-29.64417l4.43302,3.70564c0,0 -1.53025,17.64658 -2.41305,28.9413c-1.02936,13.16964 -4.33942,33.74553 -4.33942,33.74553z" fill="#665500" stroke="none" stroke-width="0" stroke-linecap="butt"/><path d="M268.37436,292.47328c0,0 4.05816,-5.75171 7.44864,-25.15421c3.6082,-20.64825 15.48011,-76.77493 15.48011,-76.77493c0,0 -4.45235,42.40714 -8.21563,69.42263c-1.74585,12.53297 -5.90082,31.91532 -5.90082,31.91532z" data-paper-data="{&quot;origRot&quot;:0}" fill="#56d420" stroke="none" stroke-width="0" stroke-linecap="butt"/><g><path d="M410.51007,107.6591c0,-18.32231 29.64553,-46.07937 29.64553,-46.07937c0,0 29.64553,26.75514 29.64553,46.07937c0,19.32422 -13.27275,33.17546 -29.64552,33.17546c-16.37277,0 -29.64553,-14.85316 -29.64553,-33.17547z" data-paper-data="{&quot;origPos&quot;:null,&quot;index&quot;:null}" fill="url(#color-1)" stroke="#0066ff" stroke-width="0" stroke-linecap="butt"/><g data-paper-data="{&quot;index&quot;:null}"><g data-paper-data="{&quot;origPos&quot;:null}" stroke="#ffffff" stroke-width="0" stroke-linecap="butt"><path d="M455.48987,118.5656c-2.70441,0 -4.89678,-5.34343 -4.89678,-11.93487c0,-6.59146 -5.23896,1.56513 4.89678,-11.93487c3.08352,-4.10701 4.89676,5.34343 4.89676,11.93487c0,6.59144 -2.19235,11.93487 -4.89676,11.93487z" data-paper-data="{&quot;origPos&quot;:null,&quot;index&quot;:null}" fill="url(#color-2)"/><path d="M438.71921,118.56558c-2.70441,0 -4.89678,-5.34343 -4.89678,-11.93487c0,-3.35009 2.29573,-16.36323 4.89678,-11.93487c7.63572,13 4.89676,5.34343 4.89676,11.93487c0,6.59144 -2.19235,11.93487 -4.89676,11.93487z" data-paper-data="{&quot;origPos&quot;:null,&quot;index&quot;:null}" fill="url(#color-3)"/></g><path d="M451.95518,127.70289c0,0 -2.87995,1.53167 -4.24074,1.54697c-1.91237,0.02149 -4.14632,-1.45273 -4.14632,-1.45273" data-paper-data="{&quot;origPos&quot;:null}" fill="none" stroke="#268436" stroke-width="2.5" stroke-linecap="round"/></g></g><g data-paper-data="{&quot;origRot&quot;:0}"><path d="M387.81717,109.67774c-11.0929,38.23664 -53.36639,59.57837 -94.42047,47.66809c-41.05404,-11.91026 -65.34242,-52.56239 -54.24952,-90.79901c11.0929,-38.23664 53.36639,-59.57837 94.42047,-47.66809c41.05404,11.91026 65.34242,52.56237 54.24952,90.79901z" data-paper-data="{&quot;index&quot;:null}" fill="#fff8d5" stroke="#514f44" stroke-width="0.5" stroke-linecap="butt"/><path d="M373.70653,86.86777l16.23156,16.99119c0,0 -22.73726,-2.29858 -24.93202,-7.75588c-2.19478,-5.4573 -5.51033,-22.32564 -12.78225,-27.68888c-7.68421,-5.6673 -13.4625,-2.73571 -22.65536,-5.01168c-8.3576,-2.06915 -12.22211,-7.19192 -20.88092,-7.07683c-4.81772,0.06403 -19.74981,6.6599 -19.74981,6.6599l3.91395,-13.2987c0,0 -2.91357,12.8721 -9.55046,17.15076c-6.6369,4.27869 -15.87809,-0.75752 -15.87809,-0.75752l10.94304,-10.73579c0,0 -4.91505,3.56044 -10.56349,10.06622c-5.64842,6.5058 25.46747,-44.5937 29.48073,-48.31568c7.25104,-6.72471 56.28947,24.62847 69.10224,27.42161c8.71847,1.9006 7.32087,42.35125 7.32087,42.35125z" data-paper-data="{&quot;index&quot;:null}" fill="#8a7967" stroke="#000000" stroke-width="0" stroke-linecap="butt"/><path d="M236.26746,84.84836l5.49708,-18.94813l144.78315,42.00331l-5.49708,18.94813z" data-paper-data="{&quot;index&quot;:null}" fill="#000000" stroke="#000000" stroke-width="0" stroke-linecap="butt"/><path d="M369.16602,90.21063c-1.38062,-6.61322 -1.43467,-21.14325 -9.33002,-26.68734c-8.34298,-5.85842 -14.46921,-3.0278 -24.35793,-5.50563c-8.99021,-2.25268 -13.23255,-7.48506 -22.50049,-7.54668c-9.26795,-0.06163 -21.00809,6.29485 -21.00809,6.29485l3.91792,-13.29754c0,0 -2.8556,12.88892 -9.87353,17.05707c-7.01795,4.16815 -17.0149,-1.08732 -17.0149,-1.08732l11.49589,-10.5754c0,0 -5.18921,3.48089 -11.10324,9.90963c-5.91403,6.42875 -15.94689,14.65284 -25.53964,23.88858c-9.59278,9.23574 -5.83943,33.14521 -5.83943,33.14521c0,0 -4.09313,-25.03605 -4.36112,-27.71037c-0.02802,-0.27984 -0.7135,-10.75458 1.6752,-18.87527c4.87866,-16.58559 10.63216,-34.59612 10.63216,-34.59612c0,0 7.11543,-15.78797 11.33585,-19.44982c7.62532,-6.61612 11.56714,-7.61274 19.92586,-10.48024c8.35869,-2.86749 23.79293,-4.26158 24.50974,-1.13983c0.78048,3.39894 -14.04199,3.15301 -13.94651,3.15068c6.00713,-0.14643 26.47833,-5.51313 45.07802,0.57378c18.59968,6.08687 51.40279,28.54428 49.00506,31.02463c-1.58261,1.232 -11.23403,-7.29148 -11.23403,-7.29148c0,0 20.71601,17.4537 21.31711,31.80641c0.62174,14.84608 1.53113,23.34425 -1.09565,37.96934c-1.35483,7.54318 -2.56479,11.74888 -5.71172,18.73684c-9.22642,20.48796 -9.94354,14.22168 -9.94354,14.22168c0,0 -11.54381,-13.2274 -6.15449,-26.11388c0,0 1.50218,-10.80851 0.12156,-17.42175z" data-paper-data="{&quot;index&quot;:null}" fill="url(#color-4)" stroke="#0f0801" stroke-width="1" stroke-linecap="butt"/><path d="M343.95987,127.46134c-0.52963,1.82559 -3.46079,4.06757 -4.80727,3.67693c-4.03937,-1.17187 -20.67181,-5.99713 -20.67181,-5.99713c-1.36525,-0.39608 -2.71832,-3.7036 -2.21907,-5.42447c1.49775,-5.16268 7.49797,-25.84509 12.29705,-42.38728c0.41197,-1.42004 3.18869,-3.01982 4.55395,-2.62374c8.59938,2.49478 21.57284,6.28712 21.57284,6.28712c0,0 1.99279,2.62876 1.64157,3.83939c-4.82945,16.64687 -10.77835,37.15237 -12.36722,42.62915z" data-paper-data="{&quot;index&quot;:null}" fill="#000000" stroke="#00360a" stroke-width="0" stroke-linecap="butt"/><path d="M326.74721,128.05694c0,0 -12.43541,-2.34747 -14.72614,-4.27223c-2.29073,-1.92477 0.21531,-7.92032 0.21531,-7.92032" fill="none" stroke="#000000" stroke-width="0.5" stroke-linecap="round"/></g><g data-paper-data="{&quot;origRot&quot;:0}" stroke-linecap="butt"><g data-paper-data="{&quot;index&quot;:null,&quot;origRot&quot;:0}" stroke-width="0.5"><path d="M188.67938,295.1849c-8.97407,-3.01381 -13.65633,-13.17726 -10.45802,-22.70081c3.19829,-9.52349 13.06593,-14.80077 22.03999,-11.78696c8.9741,3.01382 13.65628,13.17725 10.45802,22.70081c-3.19829,9.52349 -13.06591,14.80075 -22.04003,11.78696z" data-paper-data="{&quot;origPos&quot;:null}" fill="#fff8d5" stroke="#45433a"/><path d="M245.34877,172.01243c0,0 -19.86429,33.31782 -26.70671,56.59271c-6.8424,23.27488 -6.52083,52.26426 -6.52083,52.26426c0,0 -10.7437,2.61325 -18.68695,1.51936c-7.94325,-1.09393 -16.98169,-6.43149 -16.98169,-6.43149c0,0 4.97059,-37.94659 13.31109,-60.53213c8.34053,-22.58553 22.71373,-49.04441 28.43389,-55.25308c6.10778,-6.62939 15.16253,-11.8398 31.94268,-5.04943z" data-paper-data="{&quot;origRot&quot;:0,&quot;origPos&quot;:null}" fill="#67ff26" stroke="#183b09"/></g><path d="M176.88749,275.1108c0,0 7.17784,-44.09108 15.64848,-64.49846c11.27995,-27.17549 8.63281,-18.83852 18.9502,-39.3073c9.06358,-17.98134 12.09041,-14.17778 12.09041,-14.17778c0,0 -17.52676,33.38506 -27.6706,57.36907c-7.72361,18.26161 -14.11335,62.83058 -14.11335,62.83058z" data-paper-data="{&quot;origRot&quot;:0}" fill="#b7ff97" stroke="none" stroke-width="0"/></g><path d="M226.79641,180.62487l8.49037,-23.29538l10.98754,3.279l-3.10599,22.297z" data-paper-data="{&quot;index&quot;:null,&quot;origRot&quot;:0}" fill="#67ff26" stroke="none" stroke-width="0" stroke-linecap="butt"/><g data-paper-data="{&quot;origRot&quot;:0,&quot;index&quot;:null}" fill="#fff400" stroke="#000000" stroke-width="1" stroke-linecap="butt"><path d="M480.44289,235.34498c0,0 -40.48229,5.1845 -64.55004,8.26681c-0.698,0.08941 -0.3577,5.21792 -1.02735,5.30369c-4.88657,0.6258 -8.98175,1.15027 -11.75332,1.50522c-0.4751,0.06083 -1.563,-4.97193 -1.95763,-4.92139c-4.9513,0.6341 -10.07428,1.2902 -10.07428,1.2902l-2.06169,-10.17597l91.04168,-11.65954l0.38265,10.39097z" data-paper-data="{&quot;origRot&quot;:0}"/><path d="M480.09607,225.23381c0,0 -48.71844,6.2393 -65.52366,8.39151c-0.48475,0.06206 -0.31398,5.34957 -0.82349,5.41483c-4.41402,0.5653 -7.4371,0.95246 -12.12646,1.55301c-0.44076,0.05645 -1.54545,-5.11144 -1.97492,-5.05645c-6.23332,0.79829 -10.59315,1.35666 -10.59315,1.35666l-4.58736,-35.81968c0,0 5.19123,-0.66483 10.77972,-1.38054c1.01246,-0.12968 1.71989,5.84758 2.81671,5.70713c5.48982,-0.70308 6.06268,-0.77643 11.38021,-1.45745c0.90144,-0.11546 0.63738,-6.14949 1.47417,-6.25665c16.70635,-2.13957 64.59087,-8.27205 64.59087,-8.27205z" data-paper-data="{&quot;origRot&quot;:0}"/></g><path d="M348.74138,149.30416c-1.79108,4.63665 -8.98557,6.17713 -16.06934,3.44076c-7.08377,-2.73637 -11.37435,-8.71339 -9.58327,-13.35004c1.79108,-4.63665 8.98557,-6.17713 16.06934,-3.44076c7.08377,2.73637 11.37435,8.71339 9.58327,13.35004z" data-paper-data="{&quot;origRot&quot;:0}" fill="none" stroke="#000000" stroke-width="0.5" stroke-linecap="butt"/></g></g></svg>