<svg version="1.1" xmlns="http://www.w3.org/2000/svg" xmlns:xlink="http://www.w3.org/1999/xlink" width="411.0505" height="375.99461" viewBox="0,0,411.0505,375.99461"><g transform="translate(-52.09639,-27.10085)"><g data-paper-data="{&quot;isPaintingLayer&quot;:true}" fill-rule="nonzero" stroke-linejoin="miter" stroke-miterlimit="10" stroke-dasharray="" stroke-dashoffset="0" style="mix-blend-mode: normal"><g data-paper-data="{&quot;index&quot;:null}" stroke-linecap="round"><path d="M194.72715,345.23061l-49.90504,-188.89153l28.4692,-10.87484l88.1688,172.56978z" fill="#006622" stroke="#006622" stroke-width="3.31787"/><path d="M250.28724,316.24421l-54.91715,-105.98668" fill="none" stroke="#01902d" stroke-width="10.8155"/><path d="M263.6915,319.80889l-30.08871,11.49359l-2.59199,-6.78536l30.08882,-11.49354z" fill="#006622" stroke="none" stroke-width="1.30791"/></g><path d="M86.18997,264.30246c-3.19654,3.45124 -7.77517,5.76333 -12.97812,6.11486c-5.20293,0.35152 -10.051,-1.32385 -13.68267,-4.31368c-3.63001,-2.98855 -6.0439,-7.29304 -6.37544,-12.20136c-0.33155,-4.90832 1.48129,-9.49837 4.67634,-12.94799c3.19662,-3.45114 7.77528,-5.76341 12.97812,-6.11486c5.20293,-0.35152 10.051,1.32385 13.68267,4.31368c3.63012,2.98847 6.0439,7.29304 6.37544,12.20136c0.33173,4.90835 -1.48129,9.49837 -4.67634,12.94799z" data-paper-data="{&quot;index&quot;:null}" fill="#ffd499" stroke="#000000" stroke-width="2.11469" stroke-linecap="butt"/><path d="M321.52511,70.05242c-4.70408,-0.02373 -9.50254,-1.836 -13.27784,-5.43341c-3.77528,-3.5974 -5.81677,-8.30303 -6.06734,-13.00041c-0.2504,-4.69528 1.29103,-9.38351 4.68478,-12.94497c3.39376,-3.56145 8.00211,-5.32724 12.70398,-5.30352c4.70406,0.02385 9.50268,1.83603 13.27784,5.43341c3.77528,3.5974 5.81677,8.30303 6.06734,13.00041c0.25053,4.69531 -1.29103,9.38351 -4.68478,12.94497c-3.39365,3.56161 -8.00211,5.32724 -12.70398,5.30352z" data-paper-data="{&quot;index&quot;:null}" fill="#ffd499" stroke="#000000" stroke-width="2.11469" stroke-linecap="butt"/><g stroke-linecap="butt"><path d="M326.26014,339.57879c4.42052,-0.56748 7.8181,0.22124 9.14148,2.50024c1.32325,2.27895 0.32411,5.62074 -2.3599,9.17865c-2.68242,3.55829 -7.05003,7.33169 -12.46308,10.47474c-5.41297,3.14321 -10.85519,5.06606 -15.27513,5.63187c-4.42046,0.56735 -7.8181,-0.22124 -9.14148,-2.50024c-1.32338,-2.279 -0.32406,-5.62086 2.3599,-9.17865c2.6823,-3.55835 7.05003,-7.33169 12.463,-10.47492c5.41304,-3.14303 10.85513,-5.06594 15.2752,-5.63169z" fill="#c90101" stroke="#000000" stroke-width="3.54063"/><path d="M320.21182,345.79637c3.34168,-0.23726 5.97495,0.58716 7.10248,2.52881c1.1274,1.94159 0.53804,4.6372 -1.32442,7.42197c-1.86193,2.78559 -4.99832,5.66077 -8.96496,7.96403c-3.96657,2.30342 -8.01841,3.60193 -11.36058,3.83825c-3.34168,0.23726 -5.97508,-0.58722 -7.10248,-2.52881c-1.1274,-1.94159 -0.53817,-4.63726 1.32442,-7.42197c1.86193,-2.78559 4.99819,-5.66083 8.96483,-7.96407c3.9667,-2.30336 8.01841,-3.60193 11.3607,-3.83819z" fill="#ff0202" stroke="none" stroke-width="0.93464"/><path d="M326.71105,339.03789c4.42052,-0.56748 7.8181,0.22124 9.14148,2.50024c1.32325,2.27895 0.32411,5.62074 -2.3599,9.17865c-2.68242,3.55829 -7.05003,7.33169 -12.46308,10.47474c-5.41297,3.14321 -10.85519,5.06606 -15.27513,5.63187c-4.42046,0.56735 -7.8181,-0.22124 -9.14148,-2.50024c-1.32338,-2.279 -0.32406,-5.62086 2.3599,-9.17865c2.6823,-3.55835 7.05003,-7.33169 12.463,-10.47492c5.41304,-3.14303 10.85513,-5.06594 15.2752,-5.63169z" fill="none" stroke="#000000" stroke-width="3.54063"/></g><g stroke-linecap="butt"><path d="M265.1989,386.78452c4.1145,1.71286 6.66598,4.09101 6.67637,6.72636c0.01031,2.63524 -2.5224,5.03341 -6.62326,6.77858c-4.09967,1.74629 -9.76725,2.83855 -16.02659,2.86304c-6.25935,0.02467 -11.93539,-1.02299 -16.04856,-2.73701c-4.11439,-1.71294 -6.66598,-4.09101 -6.67637,-6.72636c-0.01039,-2.63535 2.52251,-5.03349 6.62326,-6.77858c4.09959,-1.7464 9.76725,-2.83855 16.02661,-2.86323c6.25932,-0.02448 11.93528,1.02307 16.04853,2.7372z" fill="#c90101" stroke="#000000" stroke-width="3.54063"/><path d="M256.85553,389.15702c3.01473,1.46101 4.88593,3.48891 4.89482,5.73418c0.00881,2.24516 -1.84644,4.28763 -4.84962,5.77243c-3.00313,1.48577 -7.15557,2.41357 -11.74239,2.43156c-4.58684,0.01817 -8.74639,-0.87719 -11.76107,-2.33926c-3.01473,-1.46101 -4.88601,-3.48902 -4.89482,-5.73418c-0.00881,-2.24516 1.84636,-4.28774 4.84962,-5.77243c3.00313,-1.48577 7.15549,-2.41368 11.7423,-2.43166c4.58692,-0.01806 8.74639,0.87719 11.76115,2.33937z" fill="#ff0202" stroke="none" stroke-width="0.93464"/><path d="M265.03722,386.9062c4.1145,1.71286 6.66598,4.09101 6.67637,6.72636c0.01031,2.63524 -2.5224,5.03341 -6.62326,6.77858c-4.09967,1.74629 -9.76725,2.83855 -16.02659,2.86304c-6.25935,0.02467 -11.93539,-1.02299 -16.04856,-2.73701c-4.11439,-1.71294 -6.66598,-4.09101 -6.67637,-6.72636c-0.01039,-2.63535 2.52251,-5.03349 6.62326,-6.77858c4.09959,-1.7464 9.76725,-2.83855 16.02661,-2.86323c6.25932,-0.02448 11.93528,1.02307 16.04853,2.7372z" fill="none" stroke="#000000" stroke-width="3.54063"/></g><path d="M304.81183,59.95412l33.90558,-31.08716l122.99702,134.14818l-37.90558,105.08716c0,0 -75.82673,-5.87368 -93.23266,-51.7439c-19.65292,-51.79177 -25.76436,-156.40427 -25.76436,-156.40427z" fill="#9966ff" stroke="#000000" stroke-width="2.5" stroke-linecap="butt"/><g><path d="M103.94926,67.89507c-0.74951,-1.16669 2.55418,-5.07514 4.7445,-6.81612c1.89985,-1.35674 4.46466,-2.24331 6.7998,-1.92939c2.72923,0.38295 5.00337,2.22532 6.95405,4.21317c2.4849,5.86665 -1.73449,3.03386 -4.21181,2.67332c-2.00959,-0.06663 -4.22722,-0.34653 -6.32769,-0.08611c-2.67638,0.33108 -7.21736,3.08523 -7.95885,1.94515z" data-paper-data="{&quot;origPos&quot;:null,&quot;index&quot;:null}" fill="#666600" stroke="#666600" stroke-width="2.23893" stroke-linecap="round"/><path d="M206.4772,56.16444c19.30843,8.94517 35.92386,25.53886 45.25428,47.65055c9.33033,22.11163 9.62473,45.59217 2.56115,65.66543c-7.06202,20.07246 -21.48049,36.73713 -41.57437,45.21594c-20.09377,8.47886 -42.09188,7.18088 -61.39863,-1.76503c-19.3083,-8.9451 -35.92393,-25.53874 -45.25425,-47.65037c-9.33033,-22.11163 -9.62473,-45.59217 -2.56115,-65.66543c7.06207,-20.07257 21.48049,-36.73713 41.57425,-45.21601c20.09396,-8.47891 42.09188,-7.18088 61.3987,1.76491z" data-paper-data="{&quot;origPos&quot;:null,&quot;index&quot;:null}" fill="#f0c690" stroke="#f0c690" stroke-width="3.8323" stroke-linecap="butt"/><path d="M205.63152,82.91565c16.65759,6.57704 30.68296,19.45041 38.11114,37.05423c7.42829,17.60389 6.86474,36.63333 -0.04589,53.15526c-6.90869,16.52259 -20.16525,30.53957 -38.1248,38.11791c-17.95962,7.57846 -37.25033,7.29519 -53.90711,0.71646c-16.65759,-6.57704 -30.68296,-19.45041 -38.11114,-37.05423c-7.42829,-17.60389 -6.86474,-36.63333 0.04583,-53.15514c6.90875,-16.52271 20.1653,-30.53968 38.12488,-38.11803c17.95962,-7.57846 37.25033,-7.29519 53.90711,-0.71646z" data-paper-data="{&quot;origPos&quot;:null,&quot;index&quot;:null}" fill="#ffd499" stroke="none" stroke-width="1.03711" stroke-linecap="butt"/><path d="M129.39395,42.52597c1.29716,1.44802 -2.35098,7.27825 -3.3687,10.81098c-0.69278,2.39748 -1.16359,4.9648 -1.63524,7.29129c-0.24462,2.94435 2.02432,8.56932 -4.39385,4.10252c-1.87,-2.78699 -3.46159,-5.90428 -3.18816,-9.14527c0.2792,-3.02276 2.14528,-5.82309 4.20162,-8.08264c2.30253,-2.25939 7.26452,-6.19552 8.38434,-4.97688z" data-paper-data="{&quot;origPos&quot;:null,&quot;index&quot;:null}" fill="#525200" stroke="#525200" stroke-width="2.71167" stroke-linecap="round"/><g data-paper-data="{&quot;origPos&quot;:null,&quot;index&quot;:null}" fill="none" stroke="#000000" stroke-width="12.6636" stroke-linecap="round"><path d="M202.3966,112.44321l21.41814,50.70437"/><path d="M188.08751,178.30922l-21.41814,-50.70437"/></g><path d="M233.10203,70.41713l-140.75464,59.39359l2.78554,-21.97781l7.01219,-20.89198l9.8386,-14.19417l7.54148,-8.92077l10.87132,-8.17397l11.64214,-6.34724l23.74253,-5.7146l11.25501,0.41555l5.83878,0.26204l13.31995,2.98734l13.96478,6.3019l11.78854,6.50272z" data-paper-data="{&quot;origPos&quot;:null,&quot;index&quot;:null}" fill="#666600" stroke="none" stroke-width="1.00499" stroke-linecap="round"/><path d="M216.54511,66.78747c2.64741,-1.1171 5.46585,-0.89326 7.95132,-0.09715c3.87077,1.2245 8.22537,2.87041 11.64571,5.45698c4.44406,4.24787 8.31364,9.23168 11.41585,14.55076c2.8284,4.85926 9.38653,16.19316 5.4008,16.37149c-7.5382,-0.69552 -18.4985,-12.95936 -28.44861,-17.40602c-2.50321,-1.12004 -5.49274,1.0725 -7.9515,0.09721c-2.45857,-0.97534 -4.5293,-2.88189 -5.62791,-5.48561c-1.0988,-2.60368 -1.01972,-5.41739 -0.00305,-7.85924c1.01679,-2.44178 2.96993,-4.51116 5.61741,-5.62838z" data-paper-data="{&quot;origPos&quot;:null,&quot;index&quot;:null}" fill="#525200" stroke="none" stroke-width="1.00499" stroke-linecap="round"/><path d="M206.38984,72.31461c2.76117,1.36713 5.15999,3.85116 6.54228,7.12704c1.38227,3.2759 1.4881,6.72749 0.54099,9.65939c-0.94591,2.93117 -2.94343,5.34218 -5.76746,6.53386c-2.82403,1.19167 -5.94478,0.9404 -8.70472,-0.42725c-2.76107,-1.36707 -5.15994,-3.85097 -6.54222,-7.12687c-1.38239,-3.27598 -1.4881,-6.72749 -0.54099,-9.65939c0.94579,-2.93125 2.94343,-5.34218 5.76746,-6.53386c2.82403,-1.19167 5.94485,-0.94052 8.70467,0.42708z" data-paper-data="{&quot;origPos&quot;:null,&quot;index&quot;:null}" fill="#525200" stroke="none" stroke-width="1.00499" stroke-linecap="butt"/><path d="M146.96069,53.10277c1.68274,0.59964 3.0813,1.81893 3.7964,3.51353c0.71508,1.69461 0.61274,3.54721 -0.13182,5.17093c-0.74356,1.62415 -2.12845,3.01901 -3.97715,3.79901c-1.84876,0.78014 -3.81424,0.79912 -5.49642,0.19855c-1.68274,-0.59964 -3.0813,-1.81893 -3.7964,-3.51353c-0.71508,-1.69461 -0.61274,-3.54721 0.13182,-5.17093c0.74356,-1.62415 2.12845,-3.01901 3.97715,-3.79901c1.84876,-0.78014 3.81424,-0.79912 5.49642,-0.19855z" data-paper-data="{&quot;origPos&quot;:null,&quot;index&quot;:null}" fill="#525200" stroke="none" stroke-width="0.59905" stroke-linecap="butt"/><path d="M191.6158,80.59498c1.9709,0.79093 3.63398,2.33151 4.51983,4.431c0.88597,2.09955 0.82933,4.36582 0.02085,6.32956c-0.8092,1.9655 -2.3689,3.62785 -4.48667,4.52143c-2.11766,0.89365 -4.39671,0.85108 -6.36936,0.05942c-1.9709,-0.79093 -3.6339,-2.33163 -4.51983,-4.431c-0.88597,-2.09955 -0.82925,-4.36594 -0.02085,-6.32956c0.8092,-1.9655 2.3689,-3.62785 4.48667,-4.52143c2.11766,-0.89365 4.39677,-0.8512 6.36936,-0.05942z" data-paper-data="{&quot;origPos&quot;:null,&quot;index&quot;:null}" fill="#666600" stroke="none" stroke-width="1.00499" stroke-linecap="butt"/><path d="M173.71904,76.96518c2.95696,1.34899 5.49565,3.86435 6.91344,7.22425c1.41779,3.3599 1.44854,6.9337 0.35173,9.99317c-1.09668,3.05952 -3.32046,5.60605 -6.40942,6.9095c-3.08888,1.30332 -6.4647,1.11958 -9.42165,-0.22941c-2.95703,-1.34887 -5.49565,-3.86435 -6.91344,-7.22425c-1.41779,-3.3599 -1.44843,-6.93364 -0.35173,-9.99317c1.0968,-3.05946 3.32046,-5.60605 6.40942,-6.9095c3.08888,-1.30332 6.4647,-1.11958 9.42165,0.22941z" data-paper-data="{&quot;origPos&quot;:null,&quot;index&quot;:null}" fill="#666600" stroke="none" stroke-width="1.00499" stroke-linecap="butt"/><path d="M161.13323,96.97934c1.20647,0.59423 2.25387,1.67582 2.85657,3.10437c0.60278,1.42844 0.64696,2.93349 0.2308,4.21229c-0.41419,1.27947 -1.28933,2.33157 -2.52541,2.85322c-1.23602,0.52154 -2.60036,0.41427 -3.80597,-0.18166c-1.20635,-0.59415 -2.25376,-1.67576 -2.85652,-3.10419c-0.60282,-1.42864 -0.6469,-2.93361 -0.23093,-4.21235c0.41438,-1.27951 1.28939,-2.3317 2.52553,-2.85316c1.23608,-0.52165 2.6003,-0.41446 3.80592,0.18147z" data-paper-data="{&quot;origPos&quot;:null,&quot;index&quot;:null}" fill="#666600" stroke="none" stroke-width="1.00499" stroke-linecap="butt"/><path d="M150.01626,94.48973c2.738,1.31224 5.10497,3.72068 6.45185,6.91266c1.34694,3.19187 1.42075,6.56791 0.45058,9.445c-0.96957,2.87525 -2.98143,5.25204 -5.80547,6.44371c-2.82403,1.19167 -5.93057,0.97455 -8.66679,-0.33699c-2.73787,-1.31218 -5.1049,-3.72081 -6.45174,-6.9126c-1.34688,-3.19198 -1.42087,-6.56799 -0.45058,-9.445c0.96946,-2.87531 2.98138,-5.25222 5.80554,-6.44382c2.82403,-1.19167 5.93037,-0.9745 8.66661,0.33704z" data-paper-data="{&quot;origPos&quot;:null,&quot;index&quot;:null}" fill="#525200" stroke="none" stroke-width="1.00499" stroke-linecap="butt"/><path d="M135.98371,108.91435c0.99828,0.2617 1.80107,0.86401 2.1732,1.74565c0.37205,0.88176 0.24337,1.87718 -0.26567,2.77486c-0.50832,0.89591 -1.39627,1.69248 -2.54413,2.17672c-1.14772,0.48431 -2.33781,0.56473 -3.33431,0.30376c-0.99834,-0.26158 -1.80126,-0.86395 -2.1732,-1.74565c-0.37205,-0.88176 -0.24337,-1.87718 0.26567,-2.77486c0.50832,-0.89591 1.3962,-1.69236 2.54401,-2.17679c1.14784,-0.48423 2.33793,-0.56466 3.33443,-0.30368z" data-paper-data="{&quot;origPos&quot;:null,&quot;index&quot;:null}" fill="#666600" stroke="none" stroke-width="1.00499" stroke-linecap="butt"/><path d="M128.59681,109.03167c1.01748,0.3663 1.8644,1.10863 2.29906,2.1386c0.43466,1.02996 0.37548,2.15462 -0.07206,3.13916c-0.44717,0.98523 -1.28186,1.82991 -2.3978,2.30082c-1.11595,0.4709 -2.30329,0.47943 -3.32119,0.11225c-1.01754,-0.3662 -1.86446,-1.10853 -2.29912,-2.13849c-0.43454,-1.02989 -0.37535,-2.15456 0.07217,-3.13909c0.44717,-0.98523 1.28174,-1.82999 2.39769,-2.30088c1.11595,-0.4709 2.30341,-0.47936 3.32125,-0.11237z" data-paper-data="{&quot;origPos&quot;:null,&quot;index&quot;:null}" fill="#525200" stroke="none" stroke-width="0.70785" stroke-linecap="butt"/><path d="M96.6053,116.76543c1.16381,-2.33619 2.96988,-4.51135 5.61736,-5.62858c2.64751,-1.11704 5.49268,-1.07239 7.95144,-0.09709c2.45857,0.97534 4.5293,2.88189 5.62803,5.48569c1.09868,2.60361 1.01959,5.41733 0.00294,7.85918c-1.01667,2.44185 -4.67326,3.05363 -5.61741,5.62838c-3.7568,10.23053 -2.61858,26.63883 -7.37969,32.52433c-2.90874,2.73091 -6.45228,-9.87511 -7.96004,-15.29168c-1.64604,-5.93345 -2.51625,-12.18282 -2.45873,-18.33023c0.53357,-4.25502 2.39269,-8.52278 4.21609,-12.15002z" data-paper-data="{&quot;origPos&quot;:null,&quot;index&quot;:null}" fill="#666600" stroke="none" stroke-width="1.00499" stroke-linecap="round"/><path d="M119.37575,112.05514c2.40114,0.99968 4.43599,2.92133 5.53459,5.52505c1.0988,2.60368 1.05568,5.40222 0.09645,7.81969c-0.95788,2.41705 -2.83171,4.45302 -5.39083,5.53291c-2.55913,1.07989 -5.32509,1.00174 -7.72497,0.00154c-2.40102,-0.99962 -4.43599,-2.92133 -5.53459,-5.52505c-1.09868,-2.60361 -1.0555,-5.40225 -0.09645,-7.81969c0.95788,-2.41705 2.83171,-4.45302 5.39095,-5.53284c2.55921,-1.08 5.32509,-1.00174 7.72485,-0.00161z" data-paper-data="{&quot;origPos&quot;:null,&quot;index&quot;:null}" fill="#666600" stroke="none" stroke-width="1.00499" stroke-linecap="butt"/><path d="M173.17008,52.35683c2.88459,1.02776 5.28224,3.11796 6.5081,6.02289c1.22581,2.90505 1.05031,6.08115 -0.22605,8.86459c-1.2746,2.78416 -3.64878,5.17543 -6.81793,6.5127c-3.16925,1.3372 -6.53876,1.36967 -9.42254,0.34022c-2.88459,-1.02776 -5.28224,-3.11796 -6.50804,-6.02302c-1.22581,-2.90505 -1.05038,-6.08103 0.22598,-8.86447c1.27453,-2.78435 3.64878,-5.17543 6.81793,-6.5127c3.16921,-1.3374 6.53872,-1.36986 9.42254,-0.34022z" data-paper-data="{&quot;origPos&quot;:null,&quot;index&quot;:null}" fill="#525200" stroke="none" stroke-width="1.02694" stroke-linecap="butt"/><path d="M110.39436,102.88924c2.88459,1.02776 5.28224,3.11796 6.5081,6.02289c1.22581,2.90505 1.05031,6.08115 -0.22605,8.86459c-1.2746,2.78416 -3.64878,5.17543 -6.81793,6.5127c-3.16925,1.3372 -6.53876,1.36967 -9.42254,0.34022c-2.88459,-1.02776 -5.28224,-3.11796 -6.50804,-6.02302c-1.22581,-2.90505 -1.05038,-6.08103 0.22598,-8.86447c1.27453,-2.78435 3.64878,-5.17543 6.81793,-6.5127c3.16921,-1.3374 6.53872,-1.36986 9.42254,-0.34022z" data-paper-data="{&quot;origPos&quot;:null,&quot;index&quot;:null}" fill="#525200" stroke="none" stroke-width="1.02694" stroke-linecap="butt"/><path d="M112.71194,91.6866c0.78674,0.2803 1.44054,0.85028 1.7749,1.64273c0.33431,0.79223 0.28647,1.65832 -0.06165,2.4175c-0.34758,0.75934 -0.9951,1.41148 -1.85945,1.77622c-0.86434,0.36475 -1.7832,0.37353 -2.56978,0.09271c-0.78663,-0.28023 -1.44054,-0.85028 -1.77497,-1.6426c-0.33431,-0.79223 -0.2864,-1.65844 0.06173,-2.41762c0.34758,-0.75934 0.9951,-1.41148 1.85938,-1.7761c0.86434,-0.36475 1.78326,-0.37366 2.56983,-0.09283z" data-paper-data="{&quot;origPos&quot;:null,&quot;index&quot;:null}" fill="#525200" stroke="none" stroke-width="0.28008" stroke-linecap="butt"/><path d="M212.85409,97.48044l-17.23325,40.06125l-44.80141,-11.28179z" fill="#ffd499" stroke="none" stroke-width="0" stroke-linecap="round"/></g></g></g></svg>