<svg version="1.1" xmlns="http://www.w3.org/2000/svg" xmlns:xlink="http://www.w3.org/1999/xlink" width="160.29968" height="329.68378" viewBox="0,0,160.29968,329.68378"><g transform="translate(-162.72733,-93.12679)"><g data-paper-data="{&quot;isPaintingLayer&quot;:true}" fill-rule="nonzero" stroke-linejoin="miter" stroke-miterlimit="10" stroke-dasharray="" stroke-dashoffset="0" style="mix-blend-mode: normal"><path d="M288.44603,417.75131l-5.61826,0.58025l-29.55789,-89.22534" data-paper-data="{&quot;origRot&quot;:0,&quot;index&quot;:null}" id="ID0.6604248438961804" fill="none" stroke="#000000" stroke-width="3.5" stroke-linecap="round"/><path d="M233.79501,230.52581l6.73944,-2.40111l16.3438,106.2949l-14.68899,1.03692z" data-paper-data="{&quot;origRot&quot;:0}" id="ID0.345300517976284" fill="#000000" stroke="none" stroke-width="0.33954" stroke-linecap="round"/><path d="M197.43176,421.06057l-4.35452,-3.59718l48.86007,-82.54559" data-paper-data="{&quot;origRot&quot;:0,&quot;index&quot;:null}" id="ID0.6604248438961804" fill="none" stroke="#000000" stroke-width="3.5" stroke-linecap="round"/><path d="M251.47734,234.47021l69.79967,-47.80444" data-paper-data="{&quot;origRot&quot;:0}" id="ID0.26897449884563684" fill="none" stroke="#000000" stroke-width="3.5" stroke-linecap="round"/><path d="M245.10547,113.06828c17.60746,-0.50962 33.7577,5.78787 45.62588,16.37424c11.86912,10.58634 19.45709,25.46043 19.93878,42.10334c0.48168,16.64289 -6.2333,31.93112 -17.47026,43.18621c-11.23604,11.2549 -26.99501,18.47594 -44.60247,18.98555c-17.60731,0.50961 -33.7577,-5.78787 -45.62588,-16.37408c-11.86912,-10.58634 -19.45709,-25.46059 -19.9388,-42.10349c-0.48168,-16.64289 6.23331,-31.93096 17.47026,-43.18607c11.23605,-11.25507 26.99516,-18.47611 44.60247,-18.98571z" data-paper-data="{&quot;origRot&quot;:0}" id="ID0.6853013150393963" fill="#ffffff" stroke="#000000" stroke-width="4.90582" stroke-linecap="butt"/><path d="M276.34293,132.38916c11.29653,1.63955 24.44032,18.83307 25.34113,22.93743c0.72819,3.40595 -13.70131,-5.12819 -20.61101,-5.20145c-7.28733,-0.23657 -14.09133,4.31021 -20.91117,4.29483c-5.86634,-0.0094 -11.10624,-5.16399 -16.95719,-4.78002c-5.12969,0.34203 -8.57952,5.57964 -13.47716,6.18807c-4.99618,0.61994 -10.36426,-4.03456 -15.30109,-2.19256c-3.36906,0.9063 -3.40502,6.22427 -5.48748,9.07128c-3.47088,4.77711 -11.57443,7.09604 -11.23554,12.4482c0.76457,12.51092 7.29775,23.97522 14.12011,34.23523c5.42733,8.15547 23.77304,19.68607 22.67948,20.37905c-1.4997,0.30397 -25.19749,-7.41569 -33.05784,-16.38924c-9.0539,-10.34566 -15.04467,-24.4583 -15.24604,-38.3713c-0.19794,-13.59112 2.52543,-31.48262 14.50747,-37.34176c22.66041,-11.07386 50.76416,-9.96394 75.63632,-5.27775z" data-paper-data="{&quot;origRot&quot;:0}" id="ID0.4079975080676377" fill="#e5e5e5" stroke="none" stroke-width="0.61935" stroke-linecap="round"/><path d="M244.6854,111.91995c17.60746,-0.50962 33.7577,5.78787 45.62588,16.37424c11.86912,10.58634 19.45709,25.46043 19.93878,42.10334c0.48168,16.64289 -6.2333,31.93112 -17.47026,43.18621c-11.23604,11.2549 -26.99501,18.47594 -44.60247,18.98555c-17.60731,0.50961 -33.7577,-5.78787 -45.62588,-16.37408c-11.86912,-10.58634 -19.45709,-25.46059 -19.9388,-42.10349c-0.48168,-16.64289 6.23331,-31.93096 17.47026,-43.18607c11.23605,-11.25507 26.99516,-18.47611 44.60247,-18.98571z" data-paper-data="{&quot;origRot&quot;:0}" id="ID0.6853013150393963" fill="none" stroke="#000000" stroke-width="4.90582" stroke-linecap="butt"/><path d="M203.00549,112.70106c2.10927,-1.42378 3.93886,-3.45963 6.2341,-4.39721c3.33706,-1.35488 6.92388,-2.05658 10.35228,-3.17455c4.08967,-1.33348 8.08389,-3.01406 12.22185,-4.18709c3.4016,-0.96387 6.92342,-1.4788 10.37999,-2.2171c3.45657,-0.73832 6.85662,-1.95313 10.37999,-2.2171c3.48076,-0.26074 7.03758,-0.02637 10.46314,0.65542c3.62992,0.72307 7.27602,1.78098 10.54627,3.52811c6.43236,3.43643 12.1848,8.07981 18.38502,11.92634c3.14022,1.9485 6.67937,3.27208 9.65304,5.47064c2.88546,2.13304 6.11919,4.26001 7.81103,7.44062c1.81944,3.41939 2.70718,7.58541 2.23002,11.43551c-0.56934,4.60585 -0.47523,14.09072 -5.32379,14.52907c-7.16257,0.43353 -12.02626,-8.83563 -18.76179,-11.81951c-3.39657,-1.51941 -7.30036,0.03491 -10.92497,-0.21082c-3.52089,-0.40422 -6.93897,-1.65069 -10.43368,-1.27939c-3.58705,0.00416 -6.8784,2.28069 -10.47213,2.31571c-3.60209,0.03525 -6.91559,-2.5168 -10.51856,-2.57066c-3.84413,-0.05739 -7.59671,1.31151 -11.32863,2.24455c-3.49719,0.87457 -6.75866,2.90577 -10.35227,3.17472c-3.52337,0.26382 -6.96044,-1.63862 -10.49085,-1.61304c-2.30842,-0.00901 -3.40101,1.01648 -4.73526,2.05373c-2.93519,2.12047 -4.93248,4.69191 -7.88921,6.26586c-5.38317,2.86502 -11.25156,8.54816 -16.13839,6.64836c-3.96581,-1.34203 -1.72189,-8.64523 -1.56687,-13.13185c0.11713,-3.56069 0.8617,-7.10025 1.59244,-10.58774c0.62742,-3.02648 1.07403,-5.96509 2.89376,-8.27763c1.32921,-2.29726 3.96447,-3.42479 6.12395,-4.92089c3.25403,-2.2937 6.26812,-4.86873 9.66955,-7.08408z" data-paper-data="{&quot;origRot&quot;:0}" id="ID0.6779168676584959" fill="#1f0f03" stroke="#0d0601" stroke-width="6.78139" stroke-linecap="round"/><path d="M250.45239,156.89666c0.94781,-0.04135 1.83916,1.53145 2.51023,4.10803c0.6726,2.57635 1.1266,6.15425 1.20275,10.12044c0.07614,3.96618 -0.23983,7.57766 -0.81245,10.20835c-0.57108,2.63077 -1.4006,4.27867 -2.34842,4.32002c-0.94781,0.04135 -1.83916,-1.53145 -2.51023,-4.10803c-0.6727,-2.57634 -1.1266,-6.15425 -1.20275,-10.12044c-0.07614,-3.96618 0.23973,-7.57767 0.81245,-10.20835c0.57108,-2.63077 1.4006,-4.27867 2.34842,-4.32002z" data-paper-data="{&quot;origRot&quot;:0}" id="ID0.03663516929373145" fill="#000000" stroke="none" stroke-width="1.50572" stroke-linecap="butt"/><path d="" data-paper-data="{&quot;origRot&quot;:0}" id="ID0.2091269358061254" fill="#ffffff" stroke="none" stroke-width="1" stroke-linecap="butt"/><path d="M266.95239,155.89667c0.94781,-0.04136 1.83916,1.53145 2.51022,4.10802c0.6726,2.57636 1.1266,6.15424 1.20275,10.12043c0.07614,3.96618 -0.23984,7.57766 -0.81245,10.20835c-0.57108,2.63076 -1.4006,4.27867 -2.34841,4.32003c-0.94781,0.04136 -1.83916,-1.53145 -2.51023,-4.10802c-0.6727,-2.57635 -1.1266,-6.15425 -1.20275,-10.12044c-0.07614,-3.96618 0.23973,-7.57767 0.81245,-10.20835c0.57109,-2.63076 1.4006,-4.27867 2.34842,-4.32002z" data-paper-data="{&quot;origRot&quot;:0}" id="ID0.03663516929373145" fill="#000000" stroke="none" stroke-width="1.50572" stroke-linecap="butt"/><path d="M276.75,199.1899c0,3.31371 -7.16344,6 -16,6c-8.83656,0 -16,-2.68629 -16,-6c0,-3.31371 7.16344,-6 16,-6c8.83656,0 16,2.68629 16,6z" fill="#000000" stroke="#000000" stroke-width="2" stroke-linecap="butt"/><path d="M264.75,201.9399c0,2.07107 -4.2533,3.75 -9.5,3.75c-5.2467,0 -9.5,-1.67893 -9.5,-3.75c0,-2.07107 4.2533,-3.75 9.5,-3.75c5.2467,0 9.5,1.67893 9.5,3.75z" fill="#ff0000" stroke="none" stroke-width="0" stroke-linecap="butt"/><path d="M276.75,199.18991c0,3.31371 -7.16344,6 -16,6c-8.83656,0 -16,-2.68629 -16,-6c0,-3.31371 7.16344,-6 16,-6c8.83656,0 16,2.68629 16,6z" fill="none" stroke="#000000" stroke-width="2" stroke-linecap="butt"/><path d="M164.47733,187.66578l69.79967,47.80444" data-paper-data="{&quot;origRot&quot;:0,&quot;index&quot;:null}" id="ID0.26897449884563684" fill="none" stroke="#000000" stroke-width="3.5" stroke-linecap="round"/><g stroke-width="0.5" stroke-linecap="round"><g id="ID0.8519621551968157"><g id="ID0.6671354710124433"><path d="M277.04463,143.53556c-3.25647,3.68469 -4.36048,9.53192 -4.80443,14.645c-0.32459,3.84134 1.33972,7.57276 1.52064,11.40349c0.65794,3.44732 2.32733,10.58797 0.99601,10.40246c-1.37964,-0.19119 -5.35243,-7.19801 -6.43251,-11.53319c-0.88789,-4.55237 -0.58409,-9.42983 0.74022,-14.16873c1.52034,-5.34618 3.83596,-11.01435 7.81891,-14.7454c3.62991,-3.40387 14.89656,-3.81308 15.0709,-3.28815c0.16233,0.51877 -11.23218,3.16909 -14.90975,7.28452z" id="ID0.09330351743847132" fill="#2b7c11" stroke="#205b0c"/><path d="M286.56271,155.56359c-4.10282,2.71081 -6.68976,8.0696 -8.44842,12.8912c-1.31257,3.62472 -0.67614,7.66057 -1.49786,11.4065c-0.26138,3.49981 -0.50683,10.82889 -1.74406,10.30349c-1.28244,-0.54349 -3.2959,-8.34247 -3.21121,-12.80937c0.3268,-4.62662 1.88884,-9.25718 4.40019,-13.4885c2.85861,-4.76667 6.5689,-9.63742 11.38524,-12.20404c4.39034,-2.34253 15.37563,0.19294 15.4074,0.74515c0.02183,0.54312 -11.66985,0.13838 -16.29128,3.15558z" id="ID0.09330351743847132" fill="#2b7c11" stroke="#205b0c"/><path d="M242.68368,155.54844c0.03178,-0.55222 11.01706,-3.08769 15.4074,-0.74515c4.81634,2.56663 8.52663,7.43738 11.38524,12.20404c2.51134,4.23133 4.07338,8.86188 4.40019,13.4885c0.08469,4.46691 -1.92877,12.26588 -3.21121,12.80937c-1.23723,0.5254 -1.48268,-6.80368 -1.74406,-10.30349c-0.82172,-3.74593 -0.18529,-7.78178 -1.49786,-11.4065c-1.75866,-4.8216 -4.3456,-10.18039 -8.44842,-12.8912c-4.62144,-3.0172 -16.31312,-2.61246 -16.29128,-3.15558z" id="ID0.09330351743847132" fill="#2b7c11" stroke="#205b0c"/><path d="M275.00577,175.51669c0,0 0.17173,-2.32691 0.24924,-3.48936c0.01944,-0.29061 0,-0.16624 0,-0.24924c0,-0.083 0,-0.16624 0,-0.24924c0,-0.083 0,-0.16624 0,-0.24924c0,-0.083 -0.03714,-0.17497 0,-0.24924c0.05259,-0.10493 0.19665,-0.14431 0.24924,-0.24924c0.03714,-0.07427 0,-0.16624 0,-0.24924c0,-0.083 0,-0.16624 0,-0.24924c0,-0.083 0,-0.16624 0,-0.24924c0,-0.083 -0.03714,-0.17497 0,-0.24924c0.05259,-0.10493 0.19665,-0.14431 0.24924,-0.24924c0.03714,-0.07427 0,-0.16624 0,-0.24924c0,-0.083 0,-0.16624 0,-0.24924c0,-0.083 0,-0.16624 0,-0.24924c0,-0.16599 -0.05259,-0.34096 0,-0.49848c0.03714,-0.11141 0.19665,-0.14431 0.24924,-0.24924c0.03714,-0.07427 0,-0.16624 0,-0.24924c0,-0.083 -0.03714,-0.17497 0,-0.24924c0.05259,-0.10493 0.19665,-0.14431 0.24924,-0.24924c0.03714,-0.07427 0,-0.16624 0,-0.24924c0,-0.083 0,-0.16624 0,-0.24924c0,-0.083 0,-0.16624 0,-0.24924c0,-0.083 -0.05857,-0.19067 0,-0.24924c0.05857,-0.05857 0.19067,0.05857 0.24924,0c0.05857,-0.05857 -0.03714,-0.17497 0,-0.24924c0.05259,-0.10493 0.19665,-0.14431 0.24924,-0.24924c0.03714,-0.07427 0,-0.16624 0,-0.24924c0,-0.083 -0.05857,-0.19067 0,-0.24924c0.05857,-0.05857 0.19067,0.05857 0.24924,0c0.05857,-0.05857 0,-0.16624 0,-0.24924c0,-0.02069 0,0 0,0" id="ID0.5301340254954994" fill="none" stroke="#205a0b"/><path d="M279.24285,162.80544c0,0 0.19067,-0.32252 0.24924,-0.49848c0.02617,-0.07876 -0.03714,-0.17497 0,-0.24924c0.05259,-0.10493 0.19665,-0.14431 0.24924,-0.24924c0.03714,-0.07427 -0.05857,-0.19067 0,-0.24924c0.05857,-0.05857 0.19067,0.05857 0.24924,0c0.05857,-0.05857 -0.03714,-0.17497 0,-0.24924c0.05259,-0.10493 0.16624,-0.16624 0.24924,-0.24924c0.083,-0.083 0.19665,-0.14431 0.24924,-0.24924c0.03714,-0.07427 0,-0.16624 0,-0.24924c0,-0.083 -0.03714,-0.17497 0,-0.24924c0.05259,-0.10493 0.19665,-0.14431 0.24924,-0.24924c0.03714,-0.07427 -0.05857,-0.19067 0,-0.24924c0.05857,-0.05857 0.19067,0.05857 0.24924,0c0.05857,-0.05857 -0.03714,-0.17497 0,-0.24924c0.05259,-0.10493 0.16624,-0.16624 0.24924,-0.24924c0.083,-0.083 0.19665,-0.14431 0.24924,-0.24924c0.03714,-0.07427 -0.03714,-0.17497 0,-0.24924c0.05259,-0.10493 0.19665,-0.14431 0.24924,-0.24924c0.03714,-0.07427 -0.03714,-0.17497 0,-0.24924c0.05259,-0.10493 0.14431,-0.19665 0.24924,-0.24924c0.07427,-0.03714 0.19067,0.05857 0.24924,0c0.13135,-0.13135 0.1463,-0.34395 0.24924,-0.49848c0.06505,-0.0977 0.16624,-0.16624 0.24924,-0.24924c0.083,-0.083 0.16624,-0.16624 0.24924,-0.24924c0.083,-0.083 0.16624,-0.16624 0.24924,-0.24924c0.083,-0.083 0.14431,-0.19665 0.24924,-0.24924c0.07427,-0.03714 0.19067,0.05857 0.24924,0c0.05857,-0.05857 -0.03714,-0.17497 0,-0.24924c0.05259,-0.10493 0.16624,-0.16624 0.24924,-0.24924c0.083,-0.083 0.16624,-0.16624 0.24924,-0.24924c0.083,-0.083 0.19665,-0.14431 0.24924,-0.24924c0.03714,-0.07427 -0.05857,-0.19067 0,-0.24924c0.13135,-0.13135 0.36713,-0.11789 0.49848,-0.24924c0.05857,-0.05857 -0.03714,-0.17497 0,-0.24924c0.05259,-0.10493 0.16624,-0.16624 0.24924,-0.24924c0.16599,-0.16599 0.33249,-0.33249 0.49848,-0.49848c0.083,-0.083 0.16624,-0.16624 0.24924,-0.24924c0.02069,-0.02069 0,0 0,0" id="ID0.8267802773043513" fill="none" stroke="#205a0b"/><path d="M271.76564,164.30088c0,0 -0.19765,-0.49026 -0.24924,-0.74772c-0.03265,-0.16275 0,-0.33249 0,-0.49848c0,-0.16599 0.05259,-0.34096 0,-0.49848c-0.03714,-0.11141 -0.19665,-0.14431 -0.24924,-0.24924c-0.03714,-0.07427 0,-0.16624 0,-0.24924c0,-0.083 0,-0.16624 0,-0.24924c0,-0.083 0,-0.16624 0,-0.24924c0,-0.083 0,-0.16624 0,-0.24924c0,-0.16599 0,-0.33249 0,-0.49848c0,-0.083 0,-0.16624 0,-0.24924c0,-0.16599 0,-0.33249 0,-0.49848c0,-0.083 0,-0.16624 0,-0.24924c0,-0.083 0,-0.16624 0,-0.24924c0,-0.083 0,-0.16624 0,-0.24924c0,-0.083 0,-0.16624 0,-0.24924c0,-0.083 0,-0.16624 0,-0.24924c0,-0.083 0.03714,-0.17497 0,-0.24924c-0.05259,-0.10493 -0.19665,-0.14431 -0.24924,-0.24924c-0.03714,-0.07427 0,-0.16624 0,-0.24924c0,-0.083 0,-0.16624 0,-0.24924c0,-0.16599 0,-0.33249 0,-0.49848c0,-0.16599 0,-0.33249 0,-0.49848c0,-0.083 0,-0.16624 0,-0.24924c0,-0.16599 0,-0.33249 0,-0.49848c0,-0.16599 0,-0.33249 0,-0.49848c0,-0.083 0,-0.16624 0,-0.24924c0,-0.083 0,-0.16624 0,-0.24924c0,-0.16599 0,-0.33249 0,-0.49848c0,-0.083 0,-0.16624 0,-0.24924c0,-0.083 0,-0.16624 0,-0.24924c0,-0.083 -0.02617,-0.17048 0,-0.24924c0.05857,-0.17596 0.19067,-0.32252 0.24924,-0.49848c0.02617,-0.07876 0,-0.16624 0,-0.24924c0,-0.083 0,-0.16624 0,-0.24924c0,-0.083 0,-0.16624 0,-0.24924c0,-0.083 0,-0.16624 0,-0.24924c0,-0.083 0,-0.16624 0,-0.24924c0,-0.083 -0.03714,-0.17497 0,-0.24924c0.05259,-0.10493 0.16624,-0.16624 0.24924,-0.24924c0.02069,-0.02069 0,0 0,0" id="ID0.22660227492451668" fill="none" stroke="#205a0b"/><path d="M272.76261,148.10027c0,0 0.19067,-0.32252 0.24924,-0.49848c0.02617,-0.07876 -0.03714,-0.17497 0,-0.24924c0.05259,-0.10493 0.18419,-0.15154 0.24924,-0.24924c0.10294,-0.15453 0.19067,-0.32252 0.24924,-0.49848c0.02617,-0.07876 -0.02617,-0.17048 0,-0.24924c0.05857,-0.17596 0.1463,-0.34395 0.24924,-0.49848c0.06505,-0.0977 0.19665,-0.14431 0.24924,-0.24924c0.03714,-0.07427 -0.02617,-0.17048 0,-0.24924c0.05857,-0.17596 0.19067,-0.32252 0.24924,-0.49848c0.02617,-0.07876 -0.05857,-0.19067 0,-0.24924c0.05857,-0.05857 0.19067,0.05857 0.24924,0c0.05857,-0.05857 -0.03714,-0.17497 0,-0.24924c0.05259,-0.10493 0.19665,-0.14431 0.24924,-0.24924c0.03714,-0.07427 -0.05857,-0.19067 0,-0.24924c0.05857,-0.05857 0.19067,0.05857 0.24924,0c0.05857,-0.05857 0,-0.16624 0,-0.24924c0,-0.083 -0.05857,-0.19067 0,-0.24924c0.05857,-0.05857 0.17497,0.03714 0.24924,0c0.10493,-0.05259 0.19665,-0.14431 0.24924,-0.24924c0.03714,-0.07427 -0.03714,-0.17497 0,-0.24924c0.05259,-0.10493 0.19665,-0.14431 0.24924,-0.24924c0.03714,-0.07427 -0.03714,-0.17497 0,-0.24924c0.05259,-0.10493 0.16624,-0.16624 0.24924,-0.24924c0.16599,-0.16599 0.36838,-0.30308 0.49848,-0.49848c0.04611,-0.06904 -0.03714,-0.17497 0,-0.24924c0.05259,-0.10493 0.19665,-0.14431 0.24924,-0.24924c0.03714,-0.07427 -0.03714,-0.17497 0,-0.24924c0.05259,-0.10493 0.16624,-0.16624 0.24924,-0.24924c0.083,-0.083 0.19665,-0.14431 0.24924,-0.24924c0.03714,-0.07427 -0.05857,-0.19067 0,-0.24924c0.05857,-0.05857 0.19067,0.05857 0.24924,0c0.05857,-0.05857 -0.05857,-0.19067 0,-0.24924c0.05857,-0.05857 0.17497,0.03714 0.24924,0c0.10493,-0.05259 0.14431,-0.19665 0.24924,-0.24924c0.07427,-0.03714 0.17497,0.03714 0.24924,0c0.10493,-0.05259 0.15154,-0.18419 0.24924,-0.24924c0.15453,-0.10294 0.32252,-0.19067 0.49848,-0.24924c0.07876,-0.02617 0.1802,0.04611 0.24924,0c0.1954,-0.1301 0.30308,-0.36838 0.49848,-0.49848c0.06904,-0.04611 0.16874,0.02019 0.24924,0c0.25472,-0.06356 0.51294,-0.13185 0.74772,-0.24924c0.10493,-0.05259 0.14431,-0.19665 0.24924,-0.24924c0.07427,-0.03714 0.16624,0 0.24924,0c0.083,0 0.19067,0.05857 0.24924,0c0.05857,-0.05857 -0.05857,-0.19067 0,-0.24924c0.05857,-0.05857 0.16624,0 0.24924,0c0.083,0 0.19067,0.05857 0.24924,0c0.05857,-0.05857 -0.05857,-0.19067 0,-0.24924c0.05857,-0.05857 0.16624,0 0.24924,0c0.083,0 0.16624,0 0.24924,0c0.02069,0 0,0 0,0" id="ID0.3601144407875836" fill="none" stroke="#205a0b"/><path d="M270.2702,165.29784c0,0 0,0.02069 0,0c0,-0.083 0,-0.16624 0,-0.24924c0,-0.083 0.03714,-0.17497 0,-0.24924c-0.05259,-0.10493 -0.19665,-0.14431 -0.24924,-0.24924c-0.03714,-0.07427 0,-0.16624 0,-0.24924c0,-0.083 0,-0.16624 0,-0.24924c0,-0.083 0,-0.16624 0,-0.24924c0,-0.083 0.03714,-0.17497 0,-0.24924c-0.05259,-0.10493 -0.19665,-0.14431 -0.24924,-0.24924c-0.03714,-0.07427 0,-0.16624 0,-0.24924c0,-0.083 0,-0.16624 0,-0.24924c0,-0.083 0,-0.16624 0,-0.24924c0,-0.083 0.01894,-0.04162 0,-0.24924c-0.07552,-0.83072 -0.24924,-2.4924 -0.24924,-2.4924" id="ID0.6711908527649939" fill="none" stroke="#205a0b"/><path d="M249.33403,155.32823c0,0 1.32895,0.17547 1.99392,0.24924c0.16624,0.01844 0.16624,0 0.24924,0c0.083,0 0.16624,0 0.24924,0c0.083,0 0.16624,0 0.24924,0c0.083,0 0.16624,0 0.24924,0c0.083,0 0.16624,0 0.24924,0c0.083,0 0.16624,0 0.24924,0c0.083,0 0.16624,0 0.24924,0c0.083,0 0.17497,-0.03714 0.24924,0c0.10493,0.05259 0.14431,0.19665 0.24924,0.24924c0.07427,0.03714 0.16624,0 0.24924,0c0.083,0 0.16624,0 0.24924,0c0.083,0 0.17497,-0.03714 0.24924,0c0.10493,0.05259 0.14431,0.19665 0.24924,0.24924c0.07427,0.03714 0.16624,0 0.24924,0c0.083,0 0.16624,0 0.24924,0c0.083,0 0.16624,0 0.24924,0c0.083,0 0.16624,0 0.24924,0c0.083,0 0.16624,0 0.24924,0c0.083,0 0.17497,-0.03714 0.24924,0c0.10493,0.05259 0.14431,0.19665 0.24924,0.24924c0.07427,0.03714 0.16624,0 0.24924,0c0.083,0 0.19067,-0.05857 0.24924,0c0.05857,0.05857 -0.05857,0.19067 0,0.24924c0.05857,0.05857 0.16624,0 0.24924,0c0.083,0 0.16624,0 0.24924,0c0.083,0 0.17497,-0.03714 0.24924,0c0.10493,0.05259 0.14431,0.19665 0.24924,0.24924c0.07427,0.03714 0.17497,-0.03714 0.24924,0c0.10493,0.05259 0.14431,0.19665 0.24924,0.24924c0.07427,0.03714 0.16624,0 0.24924,0c0.083,0 0.17497,-0.03714 0.24924,0c0.10493,0.05259 0.14431,0.19665 0.24924,0.24924c0.07427,0.03714 0.17497,-0.03714 0.24924,0c0.10493,0.05259 0.14431,0.19665 0.24924,0.24924c0.07427,0.03714 0.17497,-0.03714 0.24924,0c0.10493,0.05259 0.14431,0.19665 0.24924,0.24924c0.07427,0.03714 0.17497,-0.03714 0.24924,0c0.10493,0.05259 0.16624,0.16624 0.24924,0.24924c0.083,0.083 0.14431,0.19665 0.24924,0.24924c0.07427,0.03714 0.19067,-0.05857 0.24924,0c0.05857,0.05857 -0.05857,0.19067 0,0.24924c0.05857,0.05857 0.19067,-0.05857 0.24924,0c0.05857,0.05857 -0.05857,0.19067 0,0.24924c0.05857,0.05857 0.19067,-0.05857 0.24924,0c0.05857,0.05857 -0.05857,0.19067 0,0.24924c0.05857,0.05857 0.16624,0 0.24924,0c0.02069,0 0,0 0,0" id="ID0.6548400782048702" fill="none" stroke="#205a0b"/><path d="M264.78692,162.80544c0,0 0.19665,0.14431 0.24924,0.24924c0.03714,0.07427 -0.03714,0.17497 0,0.24924c0.05259,0.10493 0.14431,0.19665 0.24924,0.24924c0.07427,0.03714 0.19067,-0.05857 0.24924,0c0.05857,0.05857 -0.05857,0.19067 0,0.24924c0.05857,0.05857 0.19067,-0.05857 0.24924,0c0.05857,0.05857 -0.03714,0.17497 0,0.24924c0.05259,0.10493 0.19665,0.14431 0.24924,0.24924c0.03714,0.07427 -0.03714,0.17497 0,0.24924c0.05259,0.10493 0.19665,0.14431 0.24924,0.24924c0.03714,0.07427 -0.05857,0.19067 0,0.24924c0.05857,0.05857 0.19067,-0.05857 0.24924,0c0.05857,0.05857 0,0.16624 0,0.24924c0,0.083 0,0.16624 0,0.24924c0,0.083 -0.05857,0.19067 0,0.24924c0.05857,0.05857 0.19067,-0.05857 0.24924,0c0.05857,0.05857 0,0.16624 0,0.24924c0,0.083 -0.03714,0.17497 0,0.24924c0.05259,0.10493 0.19665,0.14431 0.24924,0.24924c0.03714,0.07427 0,0.16624 0,0.24924c0,0.083 -0.03714,0.17497 0,0.24924c0.05259,0.10493 0.19665,0.14431 0.24924,0.24924c0.03714,0.07427 0,0.16624 0,0.24924c0,0.083 -0.0344,0.163 0,0.24924c0.13783,0.3447 0.36065,0.65226 0.49848,0.99696c0.0344,0.08624 0,0.16624 0,0.24924c0,0.083 -0.03714,0.17497 0,0.24924c0.13384,0.26768 0.36464,0.48004 0.49848,0.74772c0.03714,0.07427 -0.03714,0.17497 0,0.24924c0.05259,0.10493 0.18419,0.15154 0.24924,0.24924c0.10294,0.15453 0.19067,0.32252 0.24924,0.49848c0.02617,0.07876 -0.03714,0.17497 0,0.24924c0.05259,0.10493 0.19665,0.14431 0.24924,0.24924c0.03714,0.07427 0,0.16624 0,0.24924c0,0.083 0,0.16624 0,0.24924c0,0.083 0,0.16624 0,0.24924c0,0.083 0,0.16624 0,0.24924c0,0.083 0,0.16624 0,0.24924c0,0.083 0,0.16624 0,0.24924c0,0.083 0,0.16624 0,0.24924c0,0.083 -0.03714,0.17497 0,0.24924c0.05259,0.10493 0.19665,0.14431 0.24924,0.24924c0.03714,0.07427 0,0.16624 0,0.24924c0,0.02069 0,0 0,0" id="ID0.2621352984569967" fill="none" stroke="#205a0b"/><path d="M270.76868,173.27353c0,0 0.19067,0.32252 0.24924,0.49848c0.02617,0.07876 -0.03714,0.17497 0,0.24924c0.05259,0.10493 0.19665,0.14431 0.24924,0.24924c0.03714,0.07427 0,0.16624 0,0.24924c0,0.083 -0.03714,0.17497 0,0.24924c0.05259,0.10493 0.16624,0.16624 0.24924,0.24924c0.083,0.083 0.19665,0.14431 0.24924,0.24924c0.03714,0.07427 0,0.16624 0,0.24924c0,0.24899 -0.06032,0.50621 0,0.74772c0.02841,0.1139 0.2121,0.13783 0.24924,0.24924c0.05259,0.15752 0,0.33249 0,0.49848c0,0.083 -0.03714,0.17497 0,0.24924c0.05259,0.10493 0.19665,0.14431 0.24924,0.24924c0.03714,0.07427 0,0.16624 0,0.24924c0,0.083 0,0.16624 0,0.24924c0,0.083 -0.05857,0.19067 0,0.24924c0.05857,0.05857 0.19067,-0.05857 0.24924,0c0.05857,0.05857 0,0.16624 0,0.24924c0,0.083 0,0.16624 0,0.24924c0,0.083 0,0.16624 0,0.24924c0,0.02069 0,0 0,0" id="ID0.054863959550857544" fill="none" stroke="#205a0b"/><path d="M269.27324,178.75681v-1.74468" id="ID0.9330660160630941" fill="none" stroke="#205a0b"/></g><g id="ID0.11704259505495429"><path d="M251.3598,178.32373h42.42451l-6.23891,29.11487h-29.11487z" id="ID0.47726457472890615" fill="#a22b1b" stroke="#5e190f"/><path d="M247.77075,176.24257h50.24393l-0.83186,6.23891h-49.12093z" id="ID0.47726457472890615" fill="#a22b1b" stroke="#5e190f"/><path d="M276.00273,188.22794h10.21885" id="ID0.9630953064188361" fill="none" stroke="#8d2719"/><path d="M283.23069,197.69906h-12.21277" id="ID0.3323938837274909" fill="none" stroke="#8d2719"/><path d="M259.30364,191.46806h11.21581" id="ID0.4188993461430073" fill="none" stroke="#8d2719"/><path d="M274.00881,203.43159h-9.47113" id="ID0.03171157743781805" fill="none" stroke="#8d2719"/><path d="M252.57415,179.25529h11.46505" id="ID0.6575988274998963" fill="none" stroke="#8d2719"/><path d="M279.24285,180.00301h12.21277" id="ID0.6364236953668296" fill="none" stroke="#8d2719"/><path d="M283.72917,178.00909h-10.96657" id="ID0.8370721349492669" fill="none" stroke="#8d2719"/></g></g></g></g></g></svg>