<svg version="1.1" xmlns="http://www.w3.org/2000/svg" xmlns:xlink="http://www.w3.org/1999/xlink" width="693.85179" height="638.36518" viewBox="0,0,693.85179,638.36518"><defs><linearGradient x1="240.08599" y1="238.75144" x2="225.15915" y2="336.17634" gradientUnits="userSpaceOnUse" id="color-1"><stop offset="0" stop-color="#6e1f27"/><stop offset="1" stop-color="#85527e"/></linearGradient><radialGradient cx="369.49999" cy="286.71667" r="283.84272" gradientUnits="userSpaceOnUse" id="color-2"><stop offset="0" stop-color="#c9c9c9" stop-opacity="0"/><stop offset="1" stop-color="#c9c9c9"/></radialGradient></defs><g transform="translate(40.50908,67.8058)"><g data-paper-data="{&quot;isPaintingLayer&quot;:true}" fill-rule="nonzero" stroke-linejoin="miter" stroke-miterlimit="10" stroke-dasharray="" stroke-dashoffset="0" style="mix-blend-mode: normal"><path d="M-30.5,388.71666v-410h408v410z" fill="#000000" stroke="#000000" stroke-width="2.5" stroke-linecap="butt"/><path d="M372.5,380.71666v-390h139v390z" fill="#330000" stroke="#000000" stroke-width="2.5" stroke-linecap="butt"/><path d="M-36.4796,149.13001c21.5227,-140.47496 162.22813,-235.46765 314.27436,-212.17208c152.04623,23.29558 196.69901,149.41398 202.8112,291.39671c7.99586,185.74015 -128.70557,240.60378 -280.7518,217.3082c-152.04623,-23.29557 -257.85646,-156.05786 -236.33376,-296.53282z" fill="#000000" stroke="#000000" stroke-width="2.5" stroke-linecap="butt"/><path d="M366.38067,237.21554c17.78298,2.72461 27.42199,36.11212 21.52924,74.57311c-5.89275,38.46098 -25.08571,67.43104 -42.86878,64.70643c-17.78298,-2.72461 -27.42199,-36.11212 -21.52924,-74.5731c5.89275,-38.46098 25.08571,-67.43104 42.86878,-64.70643z" data-paper-data="{&quot;origPos&quot;:null}" fill="#6b1227" stroke="#000000" stroke-width="2.5" stroke-linecap="butt"/><g data-paper-data="{&quot;index&quot;:null}"><path d="M363.97808,259.12352c12.43905,1.90584 19.18146,25.26013 15.05953,52.16328c-4.12193,26.90314 -17.54725,47.16746 -29.98636,45.26162c-12.43905,-1.90584 -19.18146,-25.26013 -15.05953,-52.16327c4.12193,-26.90314 17.54725,-47.16746 29.98636,-45.26162z" data-paper-data="{&quot;origPos&quot;:null}" fill="#126b41" stroke="none" stroke-width="0" stroke-linecap="butt"/><path d="M351.12553,330.02767l7.7518,-50.59472" fill="none" stroke="#000000" stroke-width="0.5" stroke-linecap="round"/></g><path d="M222.89567,389.43812c2.19235,-14.30909 13.11119,-36.58939 13.11119,-36.58939c0,0 46.08753,-3.66047 73.88804,0.59895c25.34757,3.8836 62.29737,20.26653 62.29737,20.26653c0,0 3.3284,27.26119 1.07341,41.97912c-3.19457,20.85039 -15.03723,49.16034 -15.03723,49.16034c0,0 -31.14473,2.73338 -50.35978,-0.21063c-33.93304,-5.19901 -85.82563,-20.65485 -85.82563,-20.65485c0,0 -2.40458,-33.29079 0.85263,-54.55007z" fill="#000000" stroke="#000000" stroke-width="2.5" stroke-linecap="butt"/><path d="M324.36606,415.79751c0,0 -6.59789,-5.26564 -9.99187,-4.32385c-3.4695,0.96274 -10.6035,10.039 -10.6035,10.039l-13.15721,-12.9796l-14.68881,-2.76511l-17.77447,9.2434c0,0 -6.03724,-13.83457 -9.77801,-16.19798c-2.83227,-1.78939 -9.15993,3.04606 -9.15993,3.04606" fill="none" stroke="#000000" stroke-width="2.5" stroke-linecap="round"/><g><path d="M268.51317,292.84773c0,0 19.20713,40.25435 -19.30351,56.01187c-38.51063,15.75751 -116.12969,-5.72773 -116.12969,-5.72773z" data-paper-data="{&quot;origPos&quot;:null}" fill="#ffffff" stroke="#000000" stroke-width="2.5" stroke-linecap="round"/><path d="M137.12721,345.62526c-81.36883,-16.4895 -72.72953,-226.7132 38.07607,-163.73515c75.37765,42.84208 92.58444,78.02882 92.58444,78.02882l4.35824,44.20718" data-paper-data="{&quot;origPos&quot;:null}" fill="#ffffff" stroke="none" stroke-width="0" stroke-linecap="round"/><path d="M255.14552,290.91472c-4.12193,26.90314 -17.54731,47.16746 -29.98636,45.26162c-12.43911,-1.90584 -19.18146,-25.26013 -15.05953,-52.16327c4.12193,-26.90314 17.54732,-47.16746 29.98637,-45.26162c12.43911,1.90584 19.18146,25.26013 15.05952,52.16328z" data-paper-data="{&quot;origPos&quot;:null}" fill="url(#color-1)" stroke="none" stroke-width="0" stroke-linecap="butt"/></g><path d="M369.5,2.87398c0,0 -28.97725,193.43544 16.62265,239.03534c48.79747,48.79747 267.22006,44.80736 267.22006,44.80736c0,0 -217.22764,-26.487 -265.05621,21.34155c-46.7616,46.7616 -18.78651,262.50115 -18.78651,262.50115c0,0 -0.67516,-213.68965 -47.8031,-260.8176c-47.48362,-47.48362 -236.03961,-23.02511 -236.03961,-23.02511c0,0 193.9672,4.92029 240.72881,-41.84132c47.82855,-47.82855 43.1139,-242.00139 43.1139,-242.00139z" fill="url(#color-2)" stroke="none" stroke-width="0" stroke-linecap="butt"/></g></g></svg>