<svg version="1.1" xmlns="http://www.w3.org/2000/svg" xmlns:xlink="http://www.w3.org/1999/xlink" width="225.17031" height="225.17031" viewBox="0,0,225.17031,225.17031"><g transform="translate(-127.41484,-68.07969)"><g data-paper-data="{&quot;isPaintingLayer&quot;:true}" fill-rule="nonzero" stroke="none" stroke-linecap="butt" stroke-linejoin="miter" stroke-miterlimit="10" stroke-dasharray="" stroke-dashoffset="0" style="mix-blend-mode: normal"><path d="M178.75,180c0,-33.8274 27.4226,-61.25 61.25,-61.25c33.8274,0 61.25,27.4226 61.25,61.25c0,33.8274 -27.42261,61.25 -61.25,61.25c-33.8274,0 -61.25,-27.4226 -61.25,-61.25zM240,211.32498c16.9137,0 30.625,-13.7113 30.625,-30.625c0,-16.9137 -13.7113,-30.625 -30.625,-30.625c-16.9137,0 -30.625,13.7113 -30.625,30.625c0,16.9137 13.7113,30.625 30.625,30.625z" fill="#ff0064" stroke-width="0.5"/><path d="M219.15938,68.07969h41.68124l-20.84062,43.84062z" data-paper-data="{&quot;origRot&quot;:0}" fill="#ff0064" stroke-width="0"/><path d="M240,249.40938l20.84062,43.84062h-41.68124z" data-paper-data="{&quot;origRot&quot;:0,&quot;index&quot;:null}" fill="#ff0064" stroke-width="0"/><path d="M352.58515,159.82422v41.68124l-43.84062,-20.84062z" data-paper-data="{&quot;origRot&quot;:0}" fill="#ff0064" stroke-width="0"/><path d="M171.25546,180.66485l-43.84062,20.84062l0,-41.68124z" data-paper-data="{&quot;origRot&quot;:0,&quot;index&quot;:null}" fill="#ff0064" stroke-width="0"/></g></g></svg>