<svg version="1.1" xmlns="http://www.w3.org/2000/svg" xmlns:xlink="http://www.w3.org/1999/xlink" width="149.24997" height="243.20557" viewBox="0,0,149.24997,243.20557"><g transform="translate(-170.30009,-159.44357)"><g data-paper-data="{&quot;isPaintingLayer&quot;:true}" fill-rule="nonzero" stroke-width="10" stroke-linejoin="miter" stroke-miterlimit="10" stroke-dasharray="" stroke-dashoffset="0" style="mix-blend-mode: normal"><g><path d="M272.19482,164.44357c19.94855,4.48629 38.9894,26.04254 42.01547,46.75404c6.61628,45.35647 -3.4405,92.60968 -14.86124,136.81165c-5.39822,19.30418 -17.25045,38.83422 -34.32506,48.93194c-14.42547,8.52336 -34.14205,5.21629 -50.32413,0.87846c-12.0796,-3.25861 -23.18038,-10.49027 -28.21107,-21.08308c-8.80172,-18.54549 -13.68931,-39.76699 -9.88426,-58.96687c8.51503,-44.50667 21.95843,-89.44374 45.85753,-127.03399c10.03534,-15.84054 31.45765,-30.40898 49.73275,-26.29214z" data-paper-data="{&quot;origPos&quot;:null,&quot;origRot&quot;:0}" id="ID0.9379957877099514" fill="#cc0000" stroke="#660000" stroke-linecap="round"/><path d="M306.28866,285.89026l-76.44917,-41.18134l83.8907,-20.97931l-7.32356,61.68179z" data-paper-data="{&quot;origPos&quot;:null,&quot;origRot&quot;:0}" id="ID0.9408396678045392" fill="#ffe9cc" stroke="#660000" stroke-linecap="round"/><path d="M290.51348,246.54473c1.26539,0.31174 2.24861,1.27175 2.81138,2.56845c0.56058,1.30215 0.70133,2.93513 0.29051,4.60268c-0.41062,1.66674 -1.29402,3.04827 -2.39514,3.94018c-1.10073,0.88686 -2.41737,1.28028 -3.68276,0.96854c-1.26621,-0.31195 -2.24941,-1.27195 -2.81138,-2.56845c-0.56078,-1.30133 -0.70214,-2.93533 -0.29151,-4.60207c0.41082,-1.66755 1.29483,-3.04807 2.39615,-3.94079c1.09992,-0.88706 2.41656,-1.28048 3.68276,-0.96854z" data-paper-data="{&quot;origPos&quot;:null,&quot;origRot&quot;:0}" id="ID0.6937623028643429" fill="#000000" stroke="#001966" stroke-linecap="butt"/></g></g></g></svg>