<svg xmlns="http://www.w3.org/2000/svg" xmlns:xlink="http://www.w3.org/1999/xlink" version="1.1" width="228.5" height="211.27694" viewBox="0,0,228.5,211.27694"><defs><linearGradient x1="413.52094" y1="326.5596" x2="384.79394" y2="328.766" gradientUnits="userSpaceOnUse" id="color-1"><stop offset="0" stop-color="#939393"/><stop offset="1" stop-color="#b9b9b9"/></linearGradient><linearGradient x1="416.61506" y1="351.58518" x2="416.61506" y2="386.9" gradientUnits="userSpaceOnUse" id="color-2"><stop offset="0" stop-color="#a7a7a7"/><stop offset="1" stop-color="#b8b8b8"/></linearGradient><linearGradient x1="437.76813" y1="353.47633" x2="437.76813" y2="388.90564" gradientUnits="userSpaceOnUse" id="color-3"><stop offset="0" stop-color="#a7a7a7"/><stop offset="1" stop-color="#b8b8b8"/></linearGradient><linearGradient x1="438.98065" y1="325.4775" x2="467.70765" y2="327.6839" gradientUnits="userSpaceOnUse" id="color-4"><stop offset="0" stop-color="#939393"/><stop offset="1" stop-color="#b9b9b9"/></linearGradient><linearGradient x1="426.16311" y1="298.30326" x2="425.90642" y2="356.98132" gradientUnits="userSpaceOnUse" id="color-5"><stop offset="0" stop-color="#b9b9b9"/><stop offset="1" stop-color="#a0a0a0"/></linearGradient><radialGradient cx="422.25854" cy="319.97809" r="9.65338" gradientUnits="userSpaceOnUse" id="color-6"><stop offset="0" stop-color="#93e0ff"/><stop offset="1" stop-color="#64aaff"/></radialGradient><radialGradient cx="439.85018" cy="225.71132" r="40.27669" gradientUnits="userSpaceOnUse" id="color-7"><stop offset="0" stop-color="#fff700"/><stop offset="1" stop-color="#fff700" stop-opacity="0"/></radialGradient><linearGradient x1="141.2709" y1="139.0774" x2="112.5439" y2="141.2838" gradientUnits="userSpaceOnUse" id="color-1-,0,0,1,-272.25,-187.48218"><stop offset="0" stop-color="#939393"/><stop offset="1" stop-color="#b9b9b9"/></linearGradient><linearGradient x1="144.3651" y1="164.103" x2="144.3651" y2="199.4178" gradientUnits="userSpaceOnUse" id="color-2-,0,0,1,-272.25,-187.48218"><stop offset="0" stop-color="#a7a7a7"/><stop offset="1" stop-color="#b8b8b8"/></linearGradient><linearGradient x1="165.5181" y1="165.9942" x2="165.5181" y2="201.4235" gradientUnits="userSpaceOnUse" id="color-3-,0,0,1,-272.25,-187.48218"><stop offset="0" stop-color="#a7a7a7"/><stop offset="1" stop-color="#b8b8b8"/></linearGradient><linearGradient x1="166.7307" y1="137.9953" x2="195.4577" y2="140.2017" gradientUnits="userSpaceOnUse" id="color-4-,0,0,1,-272.25,-187.48218"><stop offset="0" stop-color="#939393"/><stop offset="1" stop-color="#b9b9b9"/></linearGradient><linearGradient x1="153.9131" y1="110.8211" x2="153.6564" y2="169.4991" gradientUnits="userSpaceOnUse" id="color-5-,0,0,1,-272.25,-187.48218"><stop offset="0" stop-color="#b9b9b9"/><stop offset="1" stop-color="#a0a0a0"/></linearGradient><radialGradient cx="150.0085" cy="132.4959" r="9.6534" gradientUnits="userSpaceOnUse" id="color-6-,0,0,1,-272.25,-187.48218"><stop offset="0" stop-color="#93e0ff"/><stop offset="1" stop-color="#64aaff"/></radialGradient></defs><g><g data-paper-data="{&quot;isPaintingLayer&quot;:true}" fill-rule="nonzero" stroke-linejoin="miter" stroke-miterlimit="10" stroke-dasharray="" stroke-dashoffset="0" style="mix-blend-mode: normal"><path d="M272.25,389.04117l28.5,-120l200,-19.5v139.5z" fill="#4db494" stroke="none" stroke-width="NaN" stroke-linecap="butt" transform="matrix(1,0,0,1,-272.25,-187.48218)"/><path d="M 74.6552 141.4845 C 74.6552 138.1928 79.9159 135.5244 86.4052 135.5244 C 90.3353 135.5244 91.8564 136.5031 93.9896 138.0063 C 95.3787 138.9851 98.1552 140.1863 98.1552 141.4845 C 98.1552 143.3 94.5966 144.9259 92.0726 146.0191 C 90.0203 146.908 89.3154 147.4446 86.4052 147.4446 C 79.9159 147.4446 74.6552 144.7762 74.6552 141.4845 Z " data-paper-data="{&quot;index&quot;:null}" fill="#2e2e2e" stroke="#000000" stroke-width="2" stroke-linecap="butt"/><g data-paper-data="{&quot;index&quot;:null}" stroke-linecap="butt"><path d="M 59.7997 141.2877 C 60.2392 143.4015 61.6777 146.8912 61.2082 150.2432 C 60.3592 156.3036 58.1746 161.0068 56.3287 160.7482 C 54.4827 160.4896 53.6745 155.3671 54.5234 149.3068 C 55.0123 145.8171 57.1377 142.9446 58.1926 141.0431 C 58.9697 139.6424 58.62 138.6921 59.403 138.8018 C 60.2279 138.9174 59.4445 139.5797 59.7997 141.2877 Z " fill="#000000" stroke-width="2" stroke="#000000"/><path d="M 60.4908 157.5696 C 60.4908 159.4336 58.8678 160.9446 56.8658 160.9446 C 55.4535 160.9446 52.9798 161.1927 52.3815 160.0953 C 52.1316 159.6371 53.2408 158.1187 53.2408 157.5696 C 53.2408 155.7057 54.8638 154.1946 56.8658 154.1946 C 58.8678 154.1946 60.4908 155.7057 60.4908 157.5696 Z " fill="#ffc885" stroke-width="0.5" stroke="#000000"/></g><g data-paper-data="{&quot;index&quot;:null}" stroke-linecap="butt"><path d="M 71.6552 129.6946 C 82.7009 129.6946 86.9052 140.1077 86.9052 153.5696 C 86.9052 167.0316 82.7009 178.4446 71.6552 178.4446 C 60.6095 178.4446 57.4052 167.5316 57.4052 154.0696 C 57.4052 140.6077 60.6095 129.6946 71.6552 129.6946 Z " fill="#000000" stroke-width="2" stroke="#000000"/><path d="M331.82874,352.66774c2.59192,-0.60705 8.21521,-0.99091 12.70147,-0.99091c6.15326,0 12.12287,0.72211 14.10442,1.75181c0.66402,0.34506 -0.22942,0.72466 -0.22942,1.12319c0,1.58782 -5.65976,2.875 -13.875,2.875c-8.21524,0 -14.375,-1.28718 -14.375,-2.875c0,-0.72072 -0.48088,-1.37951 1.67353,-1.88409z" fill="#9c9c9c" stroke-width="0" stroke="#000000" transform="matrix(1,0,0,1,-272.25,-187.48218)"/><path d="M330.72813,342.16774c2.81715,-0.60705 8.92907,-0.99091 13.80516,-0.99091c6.68793,0 13.17627,0.72211 15.33,1.75181c0.72172,0.34506 -0.24935,0.72465 -0.24935,1.12319c0,1.58782 -6.15156,2.875 -15.08065,2.875c-8.92909,0 -15.6241,-1.28718 -15.6241,-2.875c0,-0.72073 -0.52267,-1.37951 1.81894,-1.88409z" fill="#9c9c9c" stroke-width="0" stroke="#000000" transform="matrix(1,0,0,1,-272.25,-187.48218)"/><path d="M329.15838,332.80183c0,-0.72073 -0.51431,-1.37951 1.78986,-1.88409c2.77211,-0.60705 8.7863,-0.99091 13.58442,-0.99091c6.581,0 12.96559,0.72211 15.08489,1.75181c0.71019,0.34506 -0.24536,0.72465 -0.24536,1.12319c0,1.58782 -6.0532,2.875 -14.83952,2.875c-8.78632,0 -15.37428,-1.28718 -15.37428,-2.875z" fill="#9c9c9c" stroke-width="0" stroke="#000000" transform="matrix(1,0,0,1,-272.25,-187.48218)"/></g><path d="M 74.0994 75.9051 C 91.8172 75.9051 106.1803 90.045 106.1803 107.4874 C 106.1803 124.9298 91.8172 139.0697 74.0994 139.0697 C 56.3816 139.0697 42.0185 124.9298 42.0185 107.4874 C 42.0185 90.045 56.3816 75.9051 74.0994 75.9051 Z " data-paper-data="{&quot;index&quot;:null}" fill="#ffc885" stroke="#000000" stroke-width="2" stroke-linecap="butt"/><path d="M 41.6552 88.8197 C 41.6552 80.7425 56.038 74.1947 73.7802 74.1947 C 81.347 74.1947 86.9697 77.535 92.0259 80.4911 C 93.2545 81.2094 95.1683 81.1864 96.2377 81.918 C 96.5055 82.1013 95.811 83.568 96.2819 84.1134 C 96.8793 84.8054 98.6544 84.5965 98.9824 84.7931 C 99.8661 85.323 99.2261 87.3943 99.7753 87.9546 C 101.77 89.9899 103.1552 90.7166 103.1552 93.3197 C 103.1552 96.376 106.3135 114.7452 104.6437 114.7931 C 101.9006 114.8718 92.4981 94.8095 81.7802 92.9447 C 81.5701 92.9081 73.1042 96.9437 72.8919 96.9418 C 70.9175 96.9243 68.7207 92.0114 66.8206 92.1681 C 65.9894 92.2366 65.0644 94.2141 64.0821 94.5399 C 62.7697 94.9751 61.355 92.4263 59.9254 92.2963 C 59.275 92.2371 58.6215 94.4956 57.9732 94.5665 C 54.63 94.932 51.4233 93.786 49.4802 93.9335 C 42.141 94.4903 41.6552 93.4958 41.6552 88.8197 Z " data-paper-data="{&quot;index&quot;:null}" fill="#000000" stroke="#000000" stroke-width="2" stroke-linecap="butt"/><path d="M 69.6552 111.6946 L 68.9052 101.9446 L 72.5199 104.0196 " data-paper-data="{&quot;index&quot;:null}" fill="none" stroke="#000000" stroke-width="2" stroke-linecap="round"/><path d="M 58.1199 105.6197 L 61.6552 101.9446 L 62.1552 111.1946 " data-paper-data="{&quot;index&quot;:null}" fill="none" stroke="#000000" stroke-width="2" stroke-linecap="round"/><path d="M 86.6552 120.9446 L 81.9052 120.6946 L 85.9052 117.1946 L 81.9052 117.1946 " data-paper-data="{&quot;index&quot;:null}" fill="none" stroke="#000000" stroke-width="2" stroke-linecap="round"/><path d="M 56.9052 119.9446 L 51.4052 119.9446 L 55.9052 115.6946 L 51.9052 115.6946 " data-paper-data="{&quot;index&quot;:null}" fill="none" stroke="#000000" stroke-width="2" stroke-linecap="round"/><g data-paper-data="{&quot;index&quot;:null}" stroke-linecap="butt"><path d="M 85.3463 143.0377 C 85.7015 141.3297 84.9181 140.6674 85.7431 140.5518 C 86.5261 140.4421 86.1763 141.3924 86.9534 142.7931 C 88.0083 144.6946 90.1337 147.5671 90.6226 151.0568 C 91.4715 157.1171 90.6633 162.2396 88.8174 162.4982 C 86.9714 162.7568 84.7868 158.0536 83.9378 151.9932 C 83.4683 148.6412 84.9068 145.1515 85.3463 143.0377 Z " fill="#000000" stroke-width="2" stroke="#000000"/><path d="M 88.2802 155.9446 C 90.2822 155.9446 91.9052 157.4557 91.9052 159.3196 C 91.9052 159.8687 93.0144 161.3871 92.7645 161.8453 C 92.1662 162.9427 89.6925 162.6946 88.2802 162.6946 C 86.2782 162.6946 84.6552 161.1836 84.6552 159.3196 C 84.6552 157.4557 86.2782 155.9446 88.2802 155.9446 Z " fill="#ffc885" stroke-width="0.5" stroke="#000000"/></g><path d="M 60.1552 175.3196 C 60.1552 174.5548 59.4625 172.6103 60.9553 172.0443 C 63.1008 171.2309 68.0785 171.9446 71.9052 171.9446 C 75.4045 171.9446 80.3546 171.508 82.5071 172.2051 C 84.3464 172.8008 83.0482 176.5246 83.0482 177.3834 C 83.0482 179.2474 78.3946 178.6947 71.9052 178.6947 C 65.4159 178.6947 60.1552 177.1836 60.1552 175.3197 Z " data-paper-data="{&quot;index&quot;:null}" fill="#0035ff" stroke="#000000" stroke-width="2" stroke-linecap="butt"/><path d="M 64.9052 169.9446 C 64.9052 169.9446 66.6552 167.3397 66.6552 166.1946 C 66.6552 165.0912 64.9052 163.1946 64.9052 163.1946 L 79.9052 163.4446 C 79.9052 163.4446 77.7706 166.1367 77.5952 167.3647 C 77.4397 168.4531 78.9052 170.4446 78.9052 170.4446 Z " data-paper-data="{&quot;index&quot;:null}" fill="#737373" stroke="#000000" stroke-width="2" stroke-linecap="round"/><g data-paper-data="{&quot;index&quot;:null}" stroke-linecap="butt"><path d="M 78.6481 176.586 C 79.021 175.6566 82.2586 175.8449 82.737 175.8449 C 84.0487 175.8449 83.6552 180.7545 83.6552 185.7627 C 83.6552 190.7708 82.5919 194.8307 81.2802 194.8307 C 79.9685 194.8307 78.9052 190.7708 78.9052 185.7627 C 78.9052 182.5813 77.9989 178.2044 78.6481 176.586 Z " fill="#0035ff" stroke-width="2" stroke="#000000"/><path d="M 78.0582 189.9566 C 81.7171 189.9566 84.6832 191.3558 84.6832 193.0816 C 84.6832 194.8075 81.7171 196.2066 78.0582 196.2066 C 74.3993 196.2066 71.4332 194.8075 71.4332 193.0816 C 71.4332 191.3558 74.3993 189.9566 78.0582 189.9566 Z " fill="#000000" stroke-width="2" stroke="#000000"/></g><g data-paper-data="{&quot;index&quot;:null}" stroke-linecap="butt"><path d="M 62.1052 186.0427 C 62.1052 182.2929 61.0017 178.225 61.8519 176.8445 C 62.1371 176.3812 64.0292 176.4891 64.3588 176.4891 C 64.7484 176.4891 66.5729 176.1189 66.8974 176.7538 C 67.6652 178.2563 66.8552 182.5222 66.8552 186.0427 C 66.8552 191.0508 65.7919 195.1106 64.4802 195.1106 C 63.1685 195.1106 62.1052 191.0508 62.1052 186.0427 Z " fill="#0035ff" stroke-width="2" stroke="#000000"/><path d="M 61.2582 190.2367 C 64.9171 190.2367 67.8832 191.6358 67.8832 193.3617 C 67.8832 195.0875 64.9171 196.4867 61.2582 196.4867 C 57.5993 196.4867 54.6332 195.0875 54.6332 193.3617 C 54.6332 191.6358 57.5993 190.2367 61.2582 190.2367 Z " fill="#000000" stroke-width="2" stroke="#000000"/></g><path d="M335.12912,365.23792c0,0 -0.9131,-0.7589 -0.9131,-1.17627c0,-0.76966 -1.68571,-3.14294 -1.68571,-3.14294l22.5603,0.14048c0,0 0,2.51375 0,3.28341c0,0.41738 -0.42143,1.0358 -0.42143,1.0358z" data-paper-data="{&quot;index&quot;:null}" fill="#0035ff" stroke="none" stroke-width="0" stroke-linecap="butt" transform="matrix(1,0,0,1,-272.25,-187.48218)"/><path d="M 66.5199 129.6197 C 66.5199 129.6197 67.9002 126.5294 69.1874 126.3724 C 70.6183 126.1979 74.7199 128.6197 74.7199 128.6197 " fill="none" stroke="#000000" stroke-width="2" stroke-linecap="round"/><path d="M 137.4637 112.1504 C 141.4216 114.3071 139.8929 128.4603 134.0491 143.7624 C 130.5202 153.003 133.0867 160.9518 127.6058 166.4306 C 125.7788 168.2569 118.5321 168.7797 116.3015 167.5642 C 112.3436 165.4075 113.8723 151.2543 119.7161 135.9522 C 125.5599 120.6501 133.5057 109.9937 137.4637 112.1504 Z " data-paper-data="{&quot;origRot&quot;:0,&quot;index&quot;:null}" fill="url(#color-1-,0,0,1,-272.25,-187.48218)" stroke="#747474" stroke-width="3.5" stroke-linecap="butt"/><path d="M 114.3958 154.9148 C 116.0546 154.3878 111.7871 150.6908 114.1044 150.772 C 119.4144 150.958 131.9475 156.1885 134.5252 159.3555 C 135.4415 160.4813 131.3745 162.3098 131.9462 163.7017 C 134.8278 170.7184 131.6423 178.1606 124.8312 180.3244 C 122.6608 181.0139 114.5433 178.7006 110.928 174.9895 C 109.6959 173.7247 106.9959 169.6919 106.8627 166.5317 C 106.6403 161.2571 110.1365 156.2678 114.3958 154.9147 Z " data-paper-data="{&quot;index&quot;:null,&quot;origRot&quot;:0}" fill="#ffffff" stroke="#d3d3d3" stroke-width="3.5" stroke-linecap="butt"/><path d="M 147.1761 111.7753 L 147.0132 103.9674 L 161.7614 103.6597 L 161.9243 111.4677 Z " data-paper-data="{&quot;index&quot;:null}" fill="#b7b7b7" stroke="#8a8a8a" stroke-width="3.5" stroke-linecap="butt"/><path d="M 155.5133 69.4302 C 155.5133 69.4302 155.3481 63.0961 155.9781 60.461 C 156.376 58.7966 157.1852 56.4978 159.3052 54.4048 C 160.9343 52.7965 164.0404 51.1168 164.0404 51.1168 " data-paper-data="{&quot;index&quot;:null,&quot;origRot&quot;:0}" fill="none" stroke="#000000" stroke-width="7.5" stroke-linecap="round"/><path d="M 160.0625 51.8347 C 160.0625 51.8347 157.7645 53.4844 154.0848 53.9527 C 151.8132 54.2417 148.4418 52.5302 147.6989 50.7422 C 146.8003 48.5796 147.5683 44.6161 149.9118 41.7858 C 152.6447 38.4853 156.3223 35.9531 156.3223 35.9531 C 156.3223 35.9531 150.727 33.7837 147.8503 30.5978 C 145.3515 27.8306 146.1529 24.6966 147.7923 22.3189 C 149.0379 20.5124 150.6639 19.9714 153.2524 20.6764 C 157.9931 21.9677 164.1313 26.2573 164.1313 26.2573 C 164.1313 26.2573 167.9588 19.1305 172.7533 16.0184 C 174.9456 14.5954 178.2019 13.3511 180.4409 14.2821 C 183.7803 15.6708 184.2172 20.0496 183.323 24.0488 C 182.3065 28.5953 179.6835 32.7246 179.6835 32.7246 C 179.6835 32.7246 184.3259 36.3152 187.7958 40.1798 C 190.0747 42.7179 189.795 44.2874 189.0564 46.6779 C 187.193 52.7083 175.0971 46.7213 175.0971 46.7213 C 175.0971 46.7213 175.2918 50.9253 173.6813 55.8042 C 172.4269 59.6044 170.7848 62.7172 168.0194 63.1502 C 164.8439 63.6474 161.5552 61.7217 160.9537 57.6128 C 160.3588 53.5497 160.0625 51.8347 160.0625 51.8347 Z " data-paper-data="{&quot;index&quot;:null,&quot;origRot&quot;:0}" fill="#fbff00" stroke="#e1e400" stroke-width="5.5" stroke-linecap="butt"/><path d="M 135.4338 103.9106 L 135.5609 68.3338 L 173.7409 68.4701 L 173.6139 104.047 Z " data-paper-data="{&quot;index&quot;:null,&quot;origRot&quot;:0}" fill="#b7b7b7" stroke="#747474" stroke-width="3.5" stroke-linecap="butt"/><path d="M 151.6672 97.1601 C 151.6672 97.1601 154.2419 95.317 155.6271 95.4312 C 157.0707 95.5501 160.1606 97.8601 160.1606 97.8601 " data-paper-data="{&quot;index&quot;:null,&quot;origRot&quot;:0}" fill="none" stroke="#4c4c4c" stroke-width="2.5" stroke-linecap="round"/><path d="M 156.7843 89.3029 L 156.8386 74.0783 L 165.6966 74.11 L 165.6422 89.3345 Z " data-paper-data="{&quot;index&quot;:null,&quot;origRot&quot;:0}" fill="#13a8ff" stroke="#00a2ff" stroke-width="1.5" stroke-linecap="butt"/><path d="M 141.3326 89.4023 L 141.387 74.1778 L 150.2449 74.2094 L 150.1905 89.434 Z " data-paper-data="{&quot;index&quot;:null,&quot;origRot&quot;:0}" fill="#13a8ff" stroke="#00a2ff" stroke-width="1.5" stroke-linecap="butt"/><path d="M 135.9643 199.4178 L 135.8261 164.1829 L 152.7659 164.103 L 152.9041 199.3379 Z " data-paper-data="{&quot;index&quot;:null}" fill="url(#color-2-,0,0,1,-272.25,-187.48218)" stroke="#747474" stroke-width="3.5" stroke-linecap="butt"/><path d="M 157.2181 201.4235 L 156.8791 166.1902 L 173.8181 165.9941 L 174.1572 201.2274 Z " data-paper-data="{&quot;index&quot;:null}" fill="url(#color-3-,0,0,1,-272.25,-187.48218)" stroke="#747474" stroke-width="3.5" stroke-linecap="butt"/><path d="M 188.2855 134.8701 C 194.1292 150.1722 195.658 164.3254 191.7 166.4822 C 189.4695 167.6976 182.2228 167.1748 180.3958 165.3485 C 174.9149 159.8697 177.4814 151.9209 173.9525 142.6803 C 168.1087 127.3782 166.58 113.225 170.5379 111.0683 C 174.4959 108.9116 182.4417 119.568 188.2855 134.8701 Z " data-paper-data="{&quot;origRot&quot;:0,&quot;index&quot;:null}" fill="url(#color-4-,0,0,1,-272.25,-187.48218)" stroke="#747474" stroke-width="3.5" stroke-linecap="butt"/><path d="M 194.0944 153.8326 C 198.3536 155.1857 201.8498 160.175 201.6275 165.4496 C 201.4942 168.6098 198.7943 172.6426 197.5621 173.9074 C 193.9468 177.6185 185.8293 179.9318 183.659 179.2423 C 176.8478 177.0785 173.6623 169.6363 176.544 162.6196 C 177.1156 161.2277 173.0487 159.3992 173.9649 158.2734 C 176.5426 155.1064 189.0758 149.8759 194.3857 149.6899 C 196.7031 149.6088 192.4355 153.3057 194.0944 153.8327 Z " data-paper-data="{&quot;index&quot;:null,&quot;origRot&quot;:0}" fill="#ffffff" stroke="#d3d3d3" stroke-width="3.5" stroke-linecap="butt"/><path d="M 133.966 169.413 L 132.5148 110.5826 L 175.3146 110.3073 L 174.9145 169.1295 Z " data-paper-data="{&quot;index&quot;:null,&quot;origRot&quot;:0}" fill="url(#color-5-,0,0,1,-272.25,-187.48218)" stroke="#747474" stroke-width="3.5" stroke-linecap="butt"/><path d="M 160.6927 134.3986 C 160.7706 139.7293 157.0021 144.1216 152.2756 144.2092 C 147.549 144.2968 143.6542 140.0465 143.5763 134.7158 C 143.4983 129.3851 147.2668 124.9927 151.9934 124.9051 C 156.7199 124.8175 160.6147 129.0679 160.6927 134.3986 Z " data-paper-data="{&quot;index&quot;:null,&quot;origRot&quot;:0}" fill="url(#color-6-,0,0,1,-272.25,-187.48218)" stroke="#00aeff" stroke-width="3" stroke-linecap="butt"/><path d="M 144.8093 82.7254 C 143.1962 82.6859 141.9205 81.3463 141.9599 79.7332 C 141.9993 78.1201 143.3389 76.8444 144.952 76.8838 C 146.5652 76.9232 147.8409 78.2628 147.8015 79.8759 C 147.7621 81.489 146.4224 82.7648 144.8093 82.7253 Z " data-paper-data="{&quot;index&quot;:null,&quot;origRot&quot;:0}" fill="#b7e5ff" stroke="none" stroke-width="0.5" stroke-linecap="butt"/><path d="M 156.5855 79.8915 C 156.6249 78.2784 157.9646 77.0026 159.5777 77.0421 C 161.1908 77.0815 162.4665 78.4211 162.4271 80.0342 C 162.3877 81.6473 161.048 82.923 159.4349 82.8836 C 157.8218 82.8442 156.5461 81.5046 156.5855 79.8915 Z " data-paper-data="{&quot;index&quot;:null,&quot;origRot&quot;:0}" fill="#b7e5ff" stroke="none" stroke-width="0.5" stroke-linecap="butt"/><path d="M404.38693,206.6177c9.84601,-18.28733 33.7052,-24.5636 53.29102,-14.01847c19.58584,10.54514 27.4815,33.91845 17.6355,52.20576c-9.846,18.28731 -33.70521,24.56359 -53.29105,14.01845c-19.58584,-10.54513 -27.48148,-33.91845 -17.63548,-52.20576z" data-paper-data="{&quot;index&quot;:null,&quot;origRot&quot;:0}" fill="url(#color-7)" stroke="none" stroke-width="0" stroke-linecap="butt" transform="matrix(1,0,0,1,-272.25,-187.48218)"/><path d="M 128.0131 208.8476 C 127.1854 207.6091 127.588 207.6795 127.588 206.7057 C 127.588 205.3472 127.588 200.8938 127.588 198.6948 C 127.588 197.3508 128.0822 196.629 128.9195 196.0476 C 129.2808 195.7968 130.1509 195.21 130.6278 195.21 C 135.3441 195.21 145.1213 195.21 148.2259 195.21 C 149.3305 195.21 152.4849 195.3054 152.4849 195.3054 C 152.4849 195.3054 152.5106 198.416 152.5106 199.0159 C 152.5106 200.2793 152.5106 202.7549 152.5106 204.9255 C 152.5106 205.9017 151.8728 209.3113 151.8728 209.3113 C 151.8728 209.3113 149.474 209.4515 148.4297 209.4515 C 145.4631 209.4515 136.5209 209.4515 131.5179 209.4515 C 130.6632 209.4515 128.5884 209.7084 128.0131 208.8476 Z " data-paper-data="{&quot;index&quot;:null}" fill="#000000" stroke="#000000" stroke-width="3.5" stroke-linecap="butt"/><path d="M 177.9077 209.5269 C 172.9047 209.5269 163.9625 209.5269 160.9959 209.5269 C 159.9516 209.5269 157.5528 209.3868 157.5528 209.3868 C 157.5528 209.3868 156.915 205.9772 156.915 205.001 C 156.915 202.8303 156.915 200.3548 156.915 199.0914 C 156.915 198.4915 156.9407 195.3809 156.9407 195.3809 C 156.9407 195.3809 160.0951 195.2854 161.1997 195.2854 C 164.3043 195.2854 174.0815 195.2854 178.7978 195.2854 C 179.2747 195.2854 180.1449 195.8723 180.5061 196.1231 C 181.3434 196.7044 181.8376 197.4263 181.8376 198.7703 C 181.8376 200.9693 181.8376 205.4227 181.8376 206.7811 C 181.8376 207.755 182.2402 207.6846 181.4125 208.9231 C 180.8372 209.7839 178.7624 209.5269 177.9077 209.5269 Z " data-paper-data="{&quot;index&quot;:null}" fill="#000000" stroke="#000000" stroke-width="3.5" stroke-linecap="butt"/></g></g></svg>