<svg version="1.1" xmlns="http://www.w3.org/2000/svg" xmlns:xlink="http://www.w3.org/1999/xlink" width="467.46972" height="484.70638" viewBox="0,0,467.46972,484.70638"><defs><linearGradient x1="62.53434" y1="80.81857" x2="101.84185" y2="319.37891" gradientUnits="userSpaceOnUse" id="color-1"><stop offset="0" stop-color="#ffffff"/><stop offset="1" stop-color="#e2e2e2"/></linearGradient><linearGradient x1="226.28166" y1="55.99481" x2="240.23121" y2="107.46249" gradientUnits="userSpaceOnUse" id="color-2"><stop offset="0" stop-color="#d60021"/><stop offset="1" stop-color="#ff0046"/></linearGradient><linearGradient x1="-5.57112" y1="112.07272" x2="16.497" y2="252.00442" gradientUnits="userSpaceOnUse" id="color-3"><stop offset="0" stop-color="#292929"/><stop offset="1" stop-color="#000000"/></linearGradient><linearGradient x1="-0.4697" y1="105.90422" x2="9.18885" y2="167.14804" gradientUnits="userSpaceOnUse" id="color-4"><stop offset="0" stop-color="#e2e2e2"/><stop offset="1" stop-color="#ffffff"/></linearGradient><linearGradient x1="-2.14064" y1="237.52431" x2="6.20421" y2="290.43819" gradientUnits="userSpaceOnUse" id="color-5"><stop offset="0" stop-color="#e2e2e2"/><stop offset="1" stop-color="#ffffff"/></linearGradient><linearGradient x1="108.05767" y1="-56.15765" x2="121.31032" y2="27.87607" gradientUnits="userSpaceOnUse" id="color-6"><stop offset="0" stop-color="#e2e2e2"/><stop offset="1" stop-color="#ffffff"/></linearGradient><linearGradient x1="-30.25695" y1="-33.21468" x2="-17.00429" y2="50.81904" gradientUnits="userSpaceOnUse" id="color-7"><stop offset="0" stop-color="#e2e2e2"/><stop offset="1" stop-color="#ffffff"/></linearGradient><linearGradient x1="63.45276" y1="73.98661" x2="97.72393" y2="291.29661" gradientUnits="userSpaceOnUse" id="color-8"><stop offset="0" stop-color="#b31e4d"/><stop offset="1" stop-color="#e98d8d"/></linearGradient><linearGradient x1="41.38112" y1="-27.2915" x2="63.42735" y2="112.50144" gradientUnits="userSpaceOnUse" id="color-9"><stop offset="0" stop-color="#e2e2e2"/><stop offset="1" stop-color="#ffffff"/></linearGradient><linearGradient x1="97.70432" y1="263.60061" x2="109.73661" y2="339.89611" gradientUnits="userSpaceOnUse" id="color-10"><stop offset="0" stop-color="#191663"/><stop offset="1" stop-color="#191663" stop-opacity="0"/></linearGradient><linearGradient x1="97.70432" y1="263.60061" x2="109.7366" y2="339.8961" gradientUnits="userSpaceOnUse" id="color-11"><stop offset="0" stop-color="#18155e"/><stop offset="1" stop-color="#18155e" stop-opacity="0"/></linearGradient><linearGradient x1="44.73176" y1="6.93509" x2="56.24384" y2="79.93202" gradientUnits="userSpaceOnUse" id="color-12"><stop offset="0" stop-color="#d60021"/><stop offset="1" stop-color="#ff0046"/></linearGradient><linearGradient x1="18.97732" y1="12.09319" x2="24.59903" y2="47.73986" gradientUnits="userSpaceOnUse" id="color-13"><stop offset="0" stop-color="#000000"/><stop offset="1" stop-color="#ffffff"/></linearGradient><linearGradient x1="-40.88303" y1="-32.05374" x2="-32.55765" y2="20.73663" gradientUnits="userSpaceOnUse" id="color-14"><stop offset="0" stop-color="#d60021"/><stop offset="1" stop-color="#ff0046"/></linearGradient><linearGradient x1="118.22629" y1="-56.76652" x2="126.55168" y2="-3.97611" gradientUnits="userSpaceOnUse" id="color-15"><stop offset="0" stop-color="#d60021"/><stop offset="1" stop-color="#ff0046"/></linearGradient><linearGradient x1="39.20008" y1="315.46436" x2="41.41383" y2="329.50153" gradientUnits="userSpaceOnUse" id="color-16"><stop offset="0" stop-color="#000000"/><stop offset="1" stop-color="#191663" stop-opacity="0"/></linearGradient><linearGradient x1="39.20008" y1="315.46436" x2="41.41383" y2="329.50153" gradientUnits="userSpaceOnUse" id="color-17"><stop offset="0" stop-color="#18155e"/><stop offset="1" stop-color="#18155e" stop-opacity="0"/></linearGradient><linearGradient x1="72.51761" y1="301.21855" x2="78.74378" y2="340.69808" gradientUnits="userSpaceOnUse" id="color-18"><stop offset="0" stop-color="#000000"/><stop offset="1" stop-color="#191663" stop-opacity="0"/></linearGradient><linearGradient x1="72.51761" y1="301.21855" x2="78.74378" y2="340.69808" gradientUnits="userSpaceOnUse" id="color-19"><stop offset="0" stop-color="#18155e"/><stop offset="1" stop-color="#18155e" stop-opacity="0"/></linearGradient><linearGradient x1="113.59593" y1="316.31963" x2="116.7782" y2="336.49807" gradientUnits="userSpaceOnUse" id="color-20"><stop offset="0" stop-color="#000000"/><stop offset="1" stop-color="#191663" stop-opacity="0"/></linearGradient><linearGradient x1="113.59593" y1="316.31963" x2="116.7782" y2="336.49807" gradientUnits="userSpaceOnUse" id="color-21"><stop offset="0" stop-color="#18155e"/><stop offset="1" stop-color="#18155e" stop-opacity="0"/></linearGradient><linearGradient x1="144.79663" y1="289.81967" x2="149.91593" y2="322.28063" gradientUnits="userSpaceOnUse" id="color-22"><stop offset="0" stop-color="#000000"/><stop offset="1" stop-color="#191663" stop-opacity="0"/></linearGradient><linearGradient x1="144.79663" y1="289.81967" x2="149.91593" y2="322.28063" gradientUnits="userSpaceOnUse" id="color-23"><stop offset="0" stop-color="#18155e"/><stop offset="1" stop-color="#18155e" stop-opacity="0"/></linearGradient><linearGradient x1="180.1207" y1="294.13937" x2="181.91937" y2="305.54459" gradientUnits="userSpaceOnUse" id="color-24"><stop offset="0" stop-color="#000000"/><stop offset="1" stop-color="#191663" stop-opacity="0"/></linearGradient><linearGradient x1="180.1207" y1="294.13937" x2="181.91937" y2="305.54459" gradientUnits="userSpaceOnUse" id="color-25"><stop offset="0" stop-color="#18155e"/><stop offset="1" stop-color="#18155e" stop-opacity="0"/></linearGradient><linearGradient x1="-19.47179" y1="11.98281" x2="-15.21679" y2="38.96333" gradientUnits="userSpaceOnUse" id="color-26"><stop offset="0" stop-color="#ffffff" stop-opacity="0"/><stop offset="1" stop-color="#ffffff"/></linearGradient><linearGradient x1="110.71074" y1="-7.59429" x2="114.96574" y2="19.38622" gradientUnits="userSpaceOnUse" id="color-27"><stop offset="0" stop-color="#ffffff" stop-opacity="0"/><stop offset="1" stop-color="#ffffff"/></linearGradient><linearGradient x1="139.30696" y1="83.9156" x2="161.37508" y2="223.8473" gradientUnits="userSpaceOnUse" id="color-28"><stop offset="0" stop-color="#292929"/><stop offset="1" stop-color="#000000"/></linearGradient><linearGradient x1="132.35163" y1="79.64855" x2="142.01017" y2="140.89235" gradientUnits="userSpaceOnUse" id="color-29"><stop offset="0" stop-color="#e2e2e2"/><stop offset="1" stop-color="#ffffff"/></linearGradient><linearGradient x1="166.64575" y1="206.51786" x2="174.9906" y2="259.43172" gradientUnits="userSpaceOnUse" id="color-30"><stop offset="0" stop-color="#e2e2e2"/><stop offset="1" stop-color="#ffffff"/></linearGradient></defs><g transform="translate(57.77847,61.34431)"><g data-paper-data="{&quot;isPaintingLayer&quot;:true}" fill-rule="nonzero" stroke-linejoin="miter" stroke-miterlimit="10" stroke-dasharray="" stroke-dashoffset="0" style="mix-blend-mode: normal"><g><path d="M111.2583,273.97074c0,0 47.95531,-28.74006 59.1816,-71.81508c10.28874,-39.47764 -17.86441,-75.88314 -7.93946,-108.30536c11.11284,-36.30275 34.43193,-53.01819 49.72643,-56.87094c15.96166,-4.02079 46.74528,11.29487 44.35681,40.62591c-1.06707,13.10384 -31.1464,30.91983 -34.83169,46.5504c-3.68531,15.63056 19.36171,41.65112 -8.55779,104.75621c-27.91948,63.10509 -67.5498,69.62884 -67.5498,69.62884z" data-paper-data="{&quot;index&quot;:null}" fill="url(#color-1)" stroke="#cccccc" stroke-width="2.5" stroke-linecap="butt"/><path d="M227.24675,113.0605c0,0 -12.34074,-16.32523 -21.45871,-22.22531c-9.88802,-6.39836 -35.74677,-14.79125 -35.74677,-14.79125c0,0 26.48344,-52.51275 56.81247,-40.16628c69.08806,28.12464 0.393,77.18283 0.393,77.18283z" data-paper-data="{&quot;index&quot;:null}" fill="url(#color-2)" stroke="#ac0022" stroke-width="2.5" stroke-linecap="butt"/><path d="M8.60987,253.17343c-6.45079,0.45818 -17.54638,-6.11153 -19.28777,-15.07031c-8.28604,-42.62889 -4.86681,-91.66588 -2.36749,-107.54291c3.64141,-23.13219 16.27401,-19.52249 22.50701,-19.55053c6.23301,-0.02804 11.53919,7.99634 13.10164,20.254c5.4381,42.66242 3.5959,87.04418 1.11041,102.62437c-2.48552,15.5802 -8.61301,18.82718 -15.0638,19.28537z" data-paper-data="{&quot;index&quot;:null}" fill="url(#color-3)" stroke="#000000" stroke-width="5" stroke-linecap="butt"/><path d="M-16.49456,147.30356c0,0 -0.30886,-27.30345 6.47093,-34.64275c11.12914,-12.0476 25.0083,-12.62439 31.07342,-1.13247c7.72335,14.6339 5.99003,52.80449 5.99003,52.80449z" data-paper-data="{&quot;index&quot;:null}" fill="url(#color-4)" stroke="#b3b3b3" stroke-width="0" stroke-linecap="butt"/><path d="M-27.10434,270.77469c-1.31362,-8.32952 -2.21202,-17.92035 4.83929,-23.52247c4.31524,-3.42839 12.94907,-8.59635 19.12903,-9.57097c4.91337,-0.77487 15.17691,-1.37717 19.52717,-0.26571c10.06238,2.57089 13.97497,14.68826 15.45336,24.06252c2.11753,13.42705 -9.36202,26.39291 -25.6403,28.9601c-16.27827,2.56719 -31.19103,-6.23647 -33.30855,-19.66349z" data-paper-data="{&quot;index&quot;:null}" fill="url(#color-5)" stroke="#b6b6b6" stroke-width="5" stroke-linecap="butt"/><path d="M-2.46156,270.44706c0,0 2.07934,3.9921 2.9678,6.45168c1.16521,3.22574 3.42106,11.2352 3.42106,11.2352" data-paper-data="{&quot;index&quot;:null}" fill="none" stroke="#aeaeae" stroke-width="5" stroke-linecap="round"/><path d="M18.84017,264.50336c0.43315,1.52239 1.5489,5.28432 1.97568,8.58389c0.65256,5.04521 0.53977,9.77602 0.53977,9.77602" data-paper-data="{&quot;index&quot;:null}" fill="none" stroke="#aeaeae" stroke-width="5" stroke-linecap="round"/><path d="M108.44097,5.93429c-8.69454,-8.59727 -24.3631,-29.05018 -24.3631,-29.05018c0,0 13.70951,-16.81362 20.45473,-21.63945c9.66747,-6.91652 28.80949,-8.22002 28.80949,-8.22002c0,0 3.54656,39.54858 3.0572,54.33507c-0.46442,14.0326 -2.72456,24.5664 -2.72456,24.5664c0,0 -17.51163,-12.35608 -25.23378,-19.99183z" data-paper-data="{&quot;index&quot;:null}" fill="url(#color-6)" stroke="#cccccc" stroke-width="2.5" stroke-linecap="butt"/><path d="M-29.3687,52.76898c0,0 -10.29459,-19.70689 -15.05512,-32.91547c-5.01627,-13.91819 -6.25139,-34.71181 -6.25139,-34.71181c0,0 15.95453,-12.19792 27.2814,-8.59234c7.90305,2.5157 26.12168,14.29406 26.12168,14.29406c0,0 -8.61351,24.28234 -14.24019,35.13816c-4.99738,9.64171 -17.85639,26.78743 -17.85639,26.78743z" fill="url(#color-7)" stroke="none" stroke-width="0" stroke-linecap="butt"/><path d="M32.14331,281.26119c-6.83023,-14.4762 -34.34461,-142.64935 -28.65949,-164.28514c8.60892,-32.76287 57.66884,-40.53696 57.66884,-40.53696c0,0 49.54238,-20.15425 70.41502,11.85319c14.75636,22.69412 27.00468,160.68169 24.18478,171.21075c-4.03216,15.05547 -62.30468,32.46796 -62.30468,32.46796c0,0 -55.32262,1.96838 -61.30449,-10.70979z" fill="url(#color-8)" stroke="#962727" stroke-width="4" stroke-linecap="butt"/><path d="M-30.26118,55.64183c-6.0879,-38.60276 25.98744,-75.73325 71.64231,-82.93332c45.65484,-7.20006 87.60062,18.25685 93.68852,56.85959c6.0879,38.60276 -25.98744,75.73327 -71.64229,82.93333c-45.65484,7.20006 -87.60064,-18.25685 -93.68854,-56.85961z" fill="url(#color-9)" stroke="#cccccc" stroke-width="2.5" stroke-linecap="butt"/><path d="M10.44705,319.52438c-18.44127,-13.21633 15.58582,-43.72156 15.58582,-43.72156c0,0 49.48708,4.43615 74.04965,0.40451c21.6806,-3.5586 65.76179,-23.35281 65.76179,-23.35281c0,0 40.609,21.67254 34.06598,31.39543c-6.18302,9.18794 -22.76494,46.61362 -94.47983,56.26815c-51.27076,6.90225 -82.37003,-11.95407 -94.98343,-20.99372z" fill="url(#color-10)" stroke="url(#color-11)" stroke-width="4" stroke-linecap="butt"/><path d="M7.32167,50.24113c-3.17897,-20.15755 13.5701,-39.5463 37.41009,-43.30602c23.83999,-3.75972 45.74318,9.53335 48.92215,29.69088c3.17897,20.15755 -13.57009,39.5463 -37.41007,43.30602c-23.83999,3.75972 -45.74319,-9.53332 -48.92217,-29.69087z" fill="url(#color-12)" stroke="none" stroke-width="0" stroke-linecap="butt"/><path d="M36.58959,31.23559c1.86287,11.81227 -4.02177,10.24168 -11.88589,11.4819c-7.86411,1.24022 -14.72972,4.82161 -16.59259,-6.99066c-1.86287,-11.81227 3.00212,-22.39339 10.86622,-23.63361c7.86411,-1.24022 15.7494,7.33011 17.61227,19.14237z" fill="#ffffff" stroke="url(#color-13)" stroke-width="3.5" stroke-linecap="butt"/><path d="M-38.98873,32.50562c0,0 -8.72254,-23.57564 -11.71311,-31.87336c-3.15126,-8.74347 -6.92858,-27.11921 -5.5251,-30.26618c1.94614,-4.36371 12.99308,0.18247 20.10868,2.44752c4.96474,1.58038 22.10794,8.8776 22.10794,8.8776l-13.78134,16.27499l-12.84706,-2.25916l5.51466,14.75699z" fill="url(#color-14)" stroke="#ac0022" stroke-width="2.5" stroke-linecap="butt"/><path d="M36.19687,29.11536c1.15095,7.29807 -1.98535,13.85609 -7.00512,14.64774c-5.01977,0.79165 -10.02214,-4.48284 -11.17309,-11.78092c-1.15095,-7.29807 1.98535,-13.85609 7.00512,-14.64774c5.01977,-0.79165 10.02214,4.48284 11.17309,11.78092z" fill="#000000" stroke="none" stroke-width="0" stroke-linecap="butt"/><path d="M49.0449,75.36776c-6.56835,-8.52332 -3.579,-13.37688 -3.579,-13.37688l8.23726,-4.49493l8.96741,1.78165c0,0 5.85445,9.14501 3.05224,16.24821c-2.80222,7.1032 -10.10957,8.36528 -16.67792,-0.15805z" fill="#ff819a" stroke="#8f4957" stroke-width="3" stroke-linecap="butt"/><path d="M57.07102,69.32211l-2.98435,-11.25304" fill="none" stroke="#8f4957" stroke-width="2.5" stroke-linecap="round"/><path d="M85.59144,44.20822c0,0 -2.84481,15.34013 -8.98633,16.30868c-5.48584,0.86515 -14.67264,-5.40423 -23.51431,-3.70985c-8.84167,1.69438 -12.33962,10.79043 -18.5192,11.76499c-6.21419,0.98002 -12.01729,-13.70939 -12.01729,-13.70939" fill="none" stroke="#000000" stroke-width="3.5" stroke-linecap="round"/><path d="M-46.51627,-15.02419l14.7927,32.71953" fill="none" stroke="#ac0022" stroke-width="2.5" stroke-linecap="round"/><path d="M-20.47529,-0.0115l-20.72209,-5.09679" fill="none" stroke="#ac0022" stroke-width="2.5" stroke-linecap="round"/><path d="M125.83202,-14.54001l0.70542,-15.73794l-11.52824,6.1033l-18.12122,-11.24375c0,0 14.06537,-12.21902 18.30277,-15.25063c6.07315,-4.345 15.18481,-12.07033 18.37945,-8.51734c2.30386,2.56229 4.36517,21.20865 4.05773,30.49759c-0.29176,8.81536 -2.07055,34.44546 -2.07055,34.44546z" data-paper-data="{&quot;index&quot;:null}" fill="url(#color-15)" stroke="#ac0022" stroke-width="2.5" stroke-linecap="butt"/><path d="M128.82709,-42.29718l-4.00502,35.68405" data-paper-data="{&quot;index&quot;:null}" fill="none" stroke="#ac0022" stroke-width="2.5" stroke-linecap="round"/><path d="M126.81806,-31.22564l-18.14775,11.22681" data-paper-data="{&quot;index&quot;:null}" fill="none" stroke="#ac0022" stroke-width="2.5" stroke-linecap="round"/><path d="M38.53706,329.95521l3.53981,-14.94454" fill="url(#color-16)" stroke="url(#color-17)" stroke-width="4" stroke-linecap="round"/><path d="M78.20439,340.78314l-5.14738,-39.64966" fill="url(#color-18)" stroke="url(#color-19)" stroke-width="4" stroke-linecap="round"/><path d="M118.39639,336.24287l-6.41865,-19.66804" fill="url(#color-20)" stroke="url(#color-21)" stroke-width="4" stroke-linecap="round"/><path d="M156.20889,321.28819l-17.7052,-30.47608" fill="url(#color-22)" stroke="url(#color-23)" stroke-width="4" stroke-linecap="round"/><path d="M176.70454,294.67814l8.63101,10.3277" fill="url(#color-24)" stroke="url(#color-25)" stroke-width="4" stroke-linecap="round"/><path d="M-44.09903,68.85888c0,0 7.69309,-11.16916 12.94617,-13.52221c6.00532,-2.69003 21.13199,-1.74271 21.13199,-1.74271" fill="none" stroke="#232323" stroke-width="2" stroke-linecap="round"/><path d="M-28.20688,92.68533c0,0 5.05707,-12.07435 8.85941,-15.87038c4.34684,-4.33961 15.80736,-8.75545 15.80736,-8.75545" fill="none" stroke="#232323" stroke-width="2" stroke-linecap="round"/><path d="M113.02464,31.44958c0,0 14.10094,-5.5567 20.64267,-4.84542c5.7223,0.62216 16.4794,8.88162 16.4794,8.88162" data-paper-data="{&quot;index&quot;:null}" fill="none" stroke="#232323" stroke-width="2" stroke-linecap="round"/><path d="M111.31029,47.20756c0,0 12.26329,0.67443 17.73469,3.46564c4.78605,2.44158 13.31366,12.37354 13.31366,12.37354" data-paper-data="{&quot;index&quot;:null}" fill="none" stroke="#232323" stroke-width="2" stroke-linecap="round"/><path d="M-30.00774,49.87747l-4.67954,-13.56453c0,0 6.8803,-20.32194 12.02588,-28.54425c4.88154,-7.80042 18.09717,-19.59065 18.09717,-19.59065l4.53246,6.43646c0,0 -12.44443,16.0828 -17.39914,25.21721c-5.03594,9.28415 -12.57681,30.04576 -12.57681,30.04576z" fill="#efefef" stroke="url(#color-26)" stroke-width="0" stroke-linecap="butt"/><path d="M111.18449,0.50173c-7.52544,-7.16622 -24.31549,-18.63854 -24.31549,-18.63854l2.3316,-7.51896c0,0 16.20275,7.15076 23.24802,13.07025c7.4263,6.23965 20.22694,23.45778 20.22694,23.45778l-1.09933,11.61539c0,0 -12.74291,-14.70224 -20.39171,-21.98591z" data-paper-data="{&quot;index&quot;:null}" fill="#efefef" stroke="url(#color-27)" stroke-width="0" stroke-linecap="butt"/><path d="M85.95012,11.54386c0,0 0.8422,17.00922 -10.52654,19.53642c-8.27524,1.83954 -14.3259,-15.61703 -14.3259,-15.61703" fill="none" stroke="#000000" stroke-width="3.5" stroke-linecap="round"/><path d="M148.63576,208.87182c-7.32507,-14.033 -23.03235,-55.64711 -31.03106,-97.90569c-2.29817,-12.14163 0.41602,-21.43087 6.56369,-23.35535c6.1477,-1.92448 17.4596,-9.31038 28.28715,11.53996c7.43161,14.31085 26.14935,59.8567 31.33261,102.97492c1.08929,9.06162 -7.78226,18.78028 -14.27909,20.36401c-6.49683,1.58374 -13.54825,0.41515 -20.87332,-13.61785z" data-paper-data="{&quot;index&quot;:null}" fill="url(#color-28)" stroke="#000000" stroke-width="5" stroke-linecap="butt"/><path d="M123.54744,143.80404c0,0 -13.65576,-35.74362 -10.62989,-52.07275c2.37621,-12.82319 16.22639,-16.61948 30.9588,-8.65041c8.97486,4.85471 17.21752,30.90693 17.21752,30.90693z" data-paper-data="{&quot;index&quot;:null}" fill="url(#color-29)" stroke="#b3b3b3" stroke-width="0" stroke-linecap="butt"/><path d="M174.9906,259.43172c-16.27828,2.56719 -31.19102,-6.23646 -33.30855,-19.66349c-1.47838,-9.37427 -1.48491,-22.10767 7.29788,-27.65054c3.79706,-2.39635 13.74781,-4.98197 18.66121,-5.75684c6.17995,-0.97462 15.98523,1.28539 21.14614,3.21931c8.43316,3.16012 10.53002,12.56194 11.84364,20.89147c2.11753,13.42702 -9.36205,26.39291 -25.6403,28.9601z" data-paper-data="{&quot;index&quot;:null}" fill="url(#color-30)" stroke="#b6b6b6" stroke-width="5" stroke-linecap="butt"/><path d="M176.44789,256.53858c0,0 -0.31862,-8.31498 -0.20271,-11.74275c0.08837,-2.61365 0.8382,-7.05191 0.8382,-7.05191" data-paper-data="{&quot;index&quot;:null}" fill="none" stroke="#aeaeae" stroke-width="5" stroke-linecap="round"/><path d="M158.24336,256.88743c0,0 -1.56328,-4.4665 -2.49508,-9.46766c-0.6094,-3.27077 -0.70557,-7.1935 -0.76197,-8.77528" data-paper-data="{&quot;index&quot;:null}" fill="none" stroke="#aeaeae" stroke-width="5" stroke-linecap="round"/></g><path d="M183.42671,419.86207v-134h43c0,0 -1.56426,46.49712 -0.00525,76.8977c0.78258,15.26018 6.00525,40.1023 6.00525,40.1023l5,17z" data-paper-data="{&quot;index&quot;:null}" fill="#353535" stroke="#000000" stroke-width="5" stroke-linecap="butt"/><path d="M206.35517,420.86207v-134h43c0,0 -1.56425,46.49712 -0.00525,76.8977c0.78258,15.26018 6.00525,40.1023 6.00525,40.1023l5,17z" data-paper-data="{&quot;index&quot;:null}" fill="#616161" stroke="#000000" stroke-width="5" stroke-linecap="butt"/><path d="M166.29181,253.58518c-0.61398,2.78659 -0.72172,5.49737 -1.00949,7.70018c-0.24577,1.88592 -1.24638,3.74508 -2.59093,5.0904c-1.29194,1.29271 -3.15978,1.94207 -4.92091,2.43114c-1.7017,0.4719 -3.60688,0.94247 -5.28792,0.40255c-3.40443,-1.09369 -6.69074,-2.83691 -9.4324,-5.13255c-1.52231,-1.27502 -2.14456,-3.37254 -2.91361,-5.20324c-0.68336,-1.62655 -1.228,-3.35012 -1.4168,-5.10439c-0.17839,-1.65532 -0.94733,-4.21559 0.32937,-4.9892c1.33312,-0.80793 3.23212,1.3038 4.89035,1.82618c5.37402,1.69464 10.69361,3.7135 16.21713,4.82885c1.38062,0.27844 3.15229,-1.76727 4.05713,-0.73437z" data-paper-data="{&quot;index&quot;:null}" fill="#e1ba87" stroke="#000000" stroke-width="5" stroke-linecap="round"/><path d="M198.37773,157.75802c1.13329,3.13752 -2.09898,6.30391 -3.38028,9.46433c-2.5074,5.86147 -5.60394,11.55198 -7.9755,17.59668c-2.50789,6.41982 -4.64736,13.35565 -6.39579,19.53441c-2.25611,7.83311 -3.8906,15.8639 -5.90401,23.77794c-1.99118,7.75785 -3.70041,17.49284 -6.87119,25.59853c-0.80922,2.05155 -1.73742,3.26666 -3.75506,2.67396c-8.07246,-2.37119 -18.15736,-3.14834 -22.20828,-10.15081c-4.41175,-6.96853 -0.49589,-16.56467 1.27054,-24.41334c1.89842,-8.40932 5.25669,-16.50257 8.87413,-24.3285c3.99883,-8.66052 8.10911,-17.7118 13.50427,-25.75467c3.94949,-5.88882 8.73836,-10.84692 14.04299,-15.05979c3.181,-2.44137 7.1368,-4.84498 10.90692,-4.50444c3.18464,0.29928 6.6729,2.29364 7.89127,5.56569z" data-paper-data="{&quot;index&quot;:null}" fill="#cc7700" stroke="#000000" stroke-width="5" stroke-linecap="round"/><path d="M263.04965,286.00001c-0.782,3.383 1.025,0.996 -5.5,1c-26.099,0.014 -51.71,0.549 -77.5,0c-6.456,-0.141 -6.136,7.9 -6.5,-0.5c-1.458,-33.601 0.11,-68.09 2.5,-102c0.938,-13.476 3.134,-26.295 7.4,-38.5c1.082,-3.305 2.823,-4.738 7.6,-5c19.107,-1.048 38.393,-1.237 57.5,0c4.777,0.309 10.441,0.527 12,4.5c4.279,10.904 3.004,23.297 3.5,35c0.842,20.069 0.637,42.026 0.25,63c-0.253,13.939 0.676,28.434 -1.25,42.5z" data-paper-data="{&quot;origPos&quot;:null,&quot;index&quot;:null}" fill="#ff9400" stroke="#000000" stroke-width="5" stroke-linecap="round"/><path d="M192.47455,141.48635c3.27787,0.61991 4.3603,5.01333 6.42974,7.72388c3.77163,5.13995 7.09637,10.7002 11.09479,15.81631c4.25206,5.42439 9.13584,10.79391 13.56658,15.44177c5.59705,5.92635 11.68045,11.41792 17.47053,17.17646c5.66691,5.65988 13.17955,12.08264 18.54615,18.93517c1.35478,1.74007 1.92898,3.15723 0.39255,4.59302c-6.14713,5.74459 -11.94528,14.0326 -20.03479,13.95913c-8.24371,0.25453 -14.51459,-7.99751 -20.37401,-13.51009c-6.27506,-5.9114 -11.53549,-12.91898 -16.43391,-20.01379c-5.42314,-7.84769 -11.12596,-15.99 -15.30713,-24.72578c-3.06171,-6.39548 -4.89514,-13.0404 -5.82469,-19.75027c-0.48423,-3.98058 -0.5419,-8.60898 1.66868,-11.68184c1.87738,-2.5899 5.36857,-4.57899 8.80551,-3.96397z" data-paper-data="{&quot;index&quot;:null}" fill="#ff9400" stroke="#000000" stroke-width="5" stroke-linecap="round"/><path d="M202.94966,144c1.927,2.599 0.05,6.6 -0.4,9.5c-0.376,2.469 -0.924,5.259 -2.418,7.069c-1.493,1.81 -3.556,2.931 -5.832,2.931c-2.276,0 -4.339,-1.121 -5.832,-2.931c-1.494,-1.81 -2.214,-4.555 -2.418,-7.069c-0.22,-2.68 -0.838,-6.141 0.9,-8.5c1.625,-1.718 4.89,-1.258 7.35,-1.5c2.859,-0.282 6.774,-1.511 8.65,0.5z" data-paper-data="{&quot;origPos&quot;:null,&quot;index&quot;:null}" fill="#ff9400" stroke="none" stroke-width="1" stroke-linecap="round"/><path d="M239.27911,232.23843c0,0 -10.04272,-7.83465 -14.60019,-12.2509c-5.27611,-5.10456 -11.52598,-10.38258 -15.76992,-16.76662c-8.00164,-12.0488 -15.31489,-25.14009 -20.48489,-39.07197c-2.05114,-4.88584 -0.77501,-16.32818 -0.77501,-16.32818" data-paper-data="{&quot;index&quot;:null}" fill="none" stroke="#cc7700" stroke-width="5" stroke-linecap="round"/><path d="M260.5648,219.85974c1.71085,2.28366 3.6945,4.13436 5.17585,5.78991c1.2686,1.41693 2.02429,3.38837 2.16626,5.28511c0.13639,1.82253 -0.5905,3.6616 -1.36916,5.31511c-0.75297,1.59744 -1.63971,3.34805 -3.14586,4.2695c-3.05029,1.86585 -6.51578,3.21831 -10.0444,3.7977c-1.95956,0.3214 -3.95493,-0.57599 -5.84393,-1.18789c-1.67839,-0.54368 -3.33983,-1.2558 -4.7923,-2.2575c-1.37067,-0.94511 -3.81243,-2.03317 -3.56542,-3.5054c0.25779,-1.53737 3.09711,-1.59824 4.57502,-2.51379c4.7911,-2.96607 9.79225,-5.67936 14.24188,-9.13681c1.11206,-0.86436 0.71809,-3.54176 2.09124,-3.55341z" data-paper-data="{&quot;index&quot;:null}" fill="#ffd499" stroke="#000000" stroke-width="5" stroke-linecap="round"/><g data-paper-data="{&quot;index&quot;:null}"><path d="M262.27065,42.27901c10.364,10.364 16.779,24.676 16.779,40.471c0,15.795 -6.415,30.107 -16.779,40.471c-10.364,10.364 -24.676,16.779 -40.471,16.779c-15.795,0 -30.107,-6.415 -40.471,-16.779c-10.364,-10.364 -16.779,-24.676 -16.779,-40.471c0,-15.795 6.415,-30.107 16.779,-40.471c10.364,-10.364 24.676,-16.779 40.471,-16.779c15.795,0 30.107,6.415 40.471,16.779z" data-paper-data="{&quot;origPos&quot;:null}" fill="#ffd499" stroke="#000000" stroke-width="6" stroke-linecap="round"/><path d="M189.67966,66.954c13.85,1.622 26.451,-2.669 39.62,-1.704c15.391,1.128 31.104,3.338 46,7.75c3.718,1.106 -3.707,2.891 -5.75,4c-2.502,1.303 -5.992,3.49 -9.25,3.25c-7.849,-0.583 -15.835,-4.875 -24,-5.75c-3.106,-0.105 1.174,2.622 -2.5,2.75c-14.697,0.511 -30.5,-4.859 -45.25,-1.25c-5.326,1.434 -7.601,8.969 -8.5,14.75c-1.063,7.125 1.453,14.79 4.25,21.25c2.966,6.846 13.946,17.992 13,18.25c-0.946,0.258 -15.918,-8.417 -20.25,-15.75c-6.251,-10.334 -9.184,-22.894 -10,-34.75c-0.323,-4.748 3.585,-8.838 6.37,-12.796c2.03,-2.883 4.957,-6.704 8.13,-6.704c3.173,0 4.529,6.284 8.13,6.704z" data-paper-data="{&quot;origPos&quot;:null}" fill="#e1ba87" stroke="none" stroke-width="1" stroke-linecap="round"/><path d="M163.04966,82.00001c-4.149,-7.143 -2.419,-18.415 -1.25,-27.5c1.114,-8.633 3.513,-17.045 7.5,-24.5c1.139,-1.943 2.501,4.343 4.5,2.5c8.007,-7.393 12.443,-19.02 20.5,-25.5c2.048,-1.644 -1.025,6.938 1.5,7c10.077,0.225 19.864,-6.433 29.75,-5.75c12.368,0.859 24.992,2.711 36,9.5c12.651,7.864 23.234,19.534 31,32.25c1.941,3.179 -8.297,-0.525 -8.75,2.5c-1.102,7.338 8.883,18.809 4,22c-5.868,3.773 -17.423,-7.93 -26.75,-8.5c-2.367,-0.144 1.906,7.404 -1,7c-11.417,-1.4 -21.284,-10.04 -32.75,-11.25c-2.867,-0.302 1.844,7.202 -0.75,7.75c-7.837,1.956 -16.088,-0.955 -24.25,-1.75c-4.684,-0.453 -9.224,-3.127 -14,-2c-5.487,1.33 -8.942,6.24 -14.25,9.25c-3.738,2.185 -9.025,10.106 -11,7z" data-paper-data="{&quot;origPos&quot;:null}" fill="#8a541e" stroke="#000000" stroke-width="7" stroke-linecap="round"/><path d="M165.04966,76.00001c0,0 0.656,-15.564 1.75,-23.25c0.764,-5.359 1.447,-10.883 3.75,-15.75c0.918,-1.331 1.969,1.072 3,0c5.142,-4.542 9.17,-9.878 13.5,-15c1.616,-1.896 2.032,-5.319 4.25,-6.25c1.377,-0.478 0.568,2.269 1.5,2.75c1.791,0.712 1.848,1.173 4.25,0.75c9.612,-1.693 18.43,-6.554 28,-6.5c10.074,0.056 20.027,2.667 29.25,6.25c7.303,3.028 13.521,8.191 19.5,13.25c4.641,3.93 8.496,9.133 12,14.25c0.877,1.278 -0.861,1.092 -1.5,1.5c-1.621,1.601 -5.264,2.198 -5.25,4.5c0.039,6.231 5.25,17.75 5.25,17.75" data-paper-data="{&quot;origPos&quot;:null}" fill="none" stroke="#663b00" stroke-width="4" stroke-linecap="round"/><path d="M265.97132,79.0664c0.792,0.792 1.282,1.886 1.282,3.093c0,1.207 -0.49,2.301 -1.282,3.093c-0.792,0.792 -1.886,1.282 -3.093,1.282c-1.207,0 -2.301,-0.49 -3.093,-1.282c-0.792,-0.792 -1.282,-1.886 -1.282,-3.093c0,-1.207 0.49,-2.301 1.282,-3.093c0.792,-0.792 1.886,-1.282 3.093,-1.282c1.207,0 2.301,0.49 3.093,1.282z" fill="#000000" stroke="none" stroke-width="1" stroke-linecap="butt"/><path d="M278.63615,100.43115l-17.25333,-0.28199" fill="none" stroke="#000000" stroke-width="3" stroke-linecap="round"/></g><g fill="#7b3f9e" stroke="#000000" stroke-width="2.5" stroke-linecap="butt"><path d="M307.19154,108.16986c-1.25558,-2.20681 12.91222,-26.79896 12.91222,-26.79896l0.48725,13.39948c0,0 17.98173,-14.29755 20.70829,-11.93772c3.0646,2.65241 4.67785,44.7175 1.67527,46.76153c-4.86758,3.31364 -39.37011,10.98656 -40.72577,8.57585c-1.24849,-2.22014 4.58554,-15.4714 4.58554,-15.4714l25.20714,1.06333l1.94902,-25.82445c0,0 -25.29955,12.8677 -26.79896,10.23233z" data-paper-data="{&quot;origPos&quot;:null}"/><path d="M337.659,77.06148c0,0 2.87919,-6.64379 5.81356,-10.74022c1.49143,-2.08207 5.527,-5.09141 5.527,-5.09141l6.17238,2.76768c0,0 -3.51754,3.64018 -5.30115,6.28195c-2.45204,3.63181 -5.55216,9.79331 -5.55216,9.79331z" data-paper-data="{&quot;origRot&quot;:0,&quot;origPos&quot;:null}"/><path d="M345.66263,85.89157c0,0 4.20232,-5.46949 6.40785,-9.25606c1.60431,-2.75435 3.35439,-7.50421 3.35439,-7.50421l5.17481,4.35656c0,0 -0.95682,4.94231 -2.18399,7.1903c-2.41442,4.42287 -7.14711,9.90296 -7.14711,9.90296z" data-paper-data="{&quot;origRot&quot;:0,&quot;origPos&quot;:null,&quot;index&quot;:null}"/></g><g fill="#7b3f9e" stroke="#000000" stroke-width="2.5" stroke-linecap="butt"><path d="M74.52537,182.01761c-1.25558,-2.20681 12.91222,-26.79896 12.91222,-26.79896l0.48725,13.39948c0,0 17.98173,-14.29755 20.70829,-11.93772c3.0646,2.65241 4.67785,44.7175 1.67527,46.76153c-4.86758,3.31364 -39.37011,10.98656 -40.72577,8.57585c-1.24849,-2.22014 4.58554,-15.4714 4.58554,-15.4714l25.20714,1.06333l1.94902,-25.82445c0,0 -25.29955,12.8677 -26.79896,10.23233z" data-paper-data="{&quot;origPos&quot;:null}"/><path d="M104.99283,150.90922c0,0 2.87919,-6.64379 5.81356,-10.74022c1.49143,-2.08207 5.527,-5.09141 5.527,-5.09141l6.17238,2.76768c0,0 -3.51754,3.64018 -5.30115,6.28195c-2.45204,3.63181 -5.55216,9.79331 -5.55216,9.79331z" data-paper-data="{&quot;origRot&quot;:0,&quot;origPos&quot;:null}"/><path d="M112.99646,159.73931c0,0 4.20232,-5.46949 6.40785,-9.25606c1.60431,-2.75435 3.35439,-7.50421 3.35439,-7.50421l5.17481,4.35656c0,0 -0.95682,4.94231 -2.18399,7.1903c-2.41442,4.42287 -7.14711,9.90296 -7.14711,9.90296z" data-paper-data="{&quot;origRot&quot;:0,&quot;origPos&quot;:null,&quot;index&quot;:null}"/></g><g fill="#7b3f9e" stroke="#000000" stroke-width="2.5" stroke-linecap="butt"><path d="M354.91632,220.0268c-1.25558,-2.20681 12.91222,-26.79896 12.91222,-26.79896l0.48725,13.39948c0,0 17.98173,-14.29755 20.70829,-11.93772c3.0646,2.65241 4.67785,44.7175 1.67527,46.76153c-4.86758,3.31364 -39.37011,10.98656 -40.72577,8.57585c-1.24849,-2.22014 4.58554,-15.4714 4.58554,-15.4714l25.20714,1.06333l1.94902,-25.82445c0,0 -25.29955,12.8677 -26.79896,10.23233z" data-paper-data="{&quot;origPos&quot;:null}"/><path d="M385.38378,188.91841c0,0 2.87919,-6.64379 5.81356,-10.74022c1.49143,-2.08207 5.527,-5.09141 5.527,-5.09141l6.17238,2.76768c0,0 -3.51754,3.64018 -5.30115,6.28195c-2.45204,3.63181 -5.55216,9.79331 -5.55216,9.79331z" data-paper-data="{&quot;origRot&quot;:0,&quot;origPos&quot;:null}"/><path d="M393.38741,197.74851c0,0 4.20232,-5.46949 6.40785,-9.25606c1.60431,-2.75435 3.35439,-7.50421 3.35439,-7.50421l5.17481,4.35656c0,0 -0.95682,4.94231 -2.18399,7.1903c-2.41442,4.42287 -7.14711,9.90296 -7.14711,9.90296z" data-paper-data="{&quot;origRot&quot;:0,&quot;origPos&quot;:null,&quot;index&quot;:null}"/></g></g></g></svg>