<svg xmlns="http://www.w3.org/2000/svg" xmlns:xlink="http://www.w3.org/1999/xlink" version="1.1" width="212.71189" height="430.39111" viewBox="0,0,212.71189,430.39111"><defs><linearGradient x1="253.59593" y1="398.26576" x2="329.26882" y2="398.26576" gradientUnits="userSpaceOnUse" id="color-1"><stop offset="0" stop-color="#000000"/><stop offset="1" stop-color="#0e0e0e"/></linearGradient><linearGradient x1="291.24908" y1="420.45036" x2="291.24908" y2="431.49536" gradientUnits="userSpaceOnUse" id="color-2"><stop offset="0" stop-color="#000000"/><stop offset="1" stop-color="#666666"/></linearGradient><linearGradient x1="271.51959" y1="385.0346" x2="271.51959" y2="423.97162" gradientUnits="userSpaceOnUse" id="color-3"><stop offset="0" stop-color="#151515"/><stop offset="1" stop-color="#212121"/></linearGradient><linearGradient x1="302.54319" y1="388.26325" x2="302.54319" y2="404.86662" gradientUnits="userSpaceOnUse" id="color-4"><stop offset="0" stop-color="#292929"/><stop offset="1" stop-color="#292929"/></linearGradient><linearGradient x1="165.70746" y1="397.94862" x2="238.55876" y2="397.94862" gradientUnits="userSpaceOnUse" id="color-5"><stop offset="0" stop-color="#000000"/><stop offset="1" stop-color="#0e0e0e"/></linearGradient><linearGradient x1="202.05032" y1="420.32338" x2="202.05032" y2="430.63756" gradientUnits="userSpaceOnUse" id="color-6"><stop offset="0" stop-color="#000000"/><stop offset="1" stop-color="#666666"/></linearGradient><linearGradient x1="181.03282" y1="402.69292" x2="196.22418" y2="402.69292" gradientUnits="userSpaceOnUse" id="color-7"><stop offset="0" stop-color="#151515"/><stop offset="1" stop-color="#212121"/></linearGradient><linearGradient x1="277.513" y1="188.84549" x2="277.513" y2="238.06549" gradientUnits="userSpaceOnUse" id="color-8"><stop offset="0" stop-color="#ffffff"/><stop offset="1" stop-color="#cccccc"/></linearGradient><radialGradient cx="198.40824" cy="229.26301" r="3.32964" gradientUnits="userSpaceOnUse" id="color-9"><stop offset="0" stop-color="#cccccc"/><stop offset="1" stop-color="#7f7f7f"/></radialGradient><radialGradient cx="196.04628" cy="231.85763" r="2.87725" gradientUnits="userSpaceOnUse" id="color-10"><stop offset="0" stop-color="#cccccc"/><stop offset="1" stop-color="#7f7f7f"/></radialGradient><radialGradient cx="194.42594" cy="235.61082" r="3.56966" gradientUnits="userSpaceOnUse" id="color-11"><stop offset="0" stop-color="#cccccc"/><stop offset="1" stop-color="#7f7f7f"/></radialGradient><radialGradient cx="195.79301" cy="239.4206" r="3.56967" gradientUnits="userSpaceOnUse" id="color-12"><stop offset="0" stop-color="#cccccc"/><stop offset="1" stop-color="#7f7f7f"/></radialGradient><radialGradient cx="198.38782" cy="243.11113" r="3.35638" gradientUnits="userSpaceOnUse" id="color-13"><stop offset="0" stop-color="#cccccc"/><stop offset="1" stop-color="#7f7f7f"/></radialGradient><radialGradient cx="199.49563" cy="247.18876" r="3.09052" gradientUnits="userSpaceOnUse" id="color-14"><stop offset="0" stop-color="#cccccc"/><stop offset="1" stop-color="#7f7f7f"/></radialGradient><radialGradient cx="200.60369" cy="250.63815" r="3.54324" gradientUnits="userSpaceOnUse" id="color-15"><stop offset="0" stop-color="#cccccc"/><stop offset="1" stop-color="#7f7f7f"/></radialGradient><radialGradient cx="201.01477" cy="255.05574" r="3.32995" gradientUnits="userSpaceOnUse" id="color-16"><stop offset="0" stop-color="#cccccc"/><stop offset="1" stop-color="#7f7f7f"/></radialGradient><radialGradient cx="201.61027" cy="259.03805" r="3.11666" gradientUnits="userSpaceOnUse" id="color-17"><stop offset="0" stop-color="#cccccc"/><stop offset="1" stop-color="#7f7f7f"/></radialGradient><radialGradient cx="203.22489" cy="262.84806" r="3.78236" gradientUnits="userSpaceOnUse" id="color-18"><stop offset="0" stop-color="#cccccc"/><stop offset="1" stop-color="#7f7f7f"/></radialGradient><radialGradient cx="206.16362" cy="266.13337" r="3.41015" gradientUnits="userSpaceOnUse" id="color-19"><stop offset="0" stop-color="#cccccc"/><stop offset="1" stop-color="#7f7f7f"/></radialGradient><radialGradient cx="207.69961" cy="269.2737" r="3.75653" gradientUnits="userSpaceOnUse" id="color-20"><stop offset="0" stop-color="#cccccc"/><stop offset="1" stop-color="#7f7f7f"/></radialGradient><radialGradient cx="202.28471" cy="223.07155" r="5.63083" gradientUnits="userSpaceOnUse" id="color-21"><stop offset="0" stop-color="#cccccc"/><stop offset="1" stop-color="#7f7f7f"/></radialGradient><radialGradient cx="211.77658" cy="225.46516" r="3.32965" gradientUnits="userSpaceOnUse" id="color-22"><stop offset="0" stop-color="#cccccc"/><stop offset="1" stop-color="#7f7f7f"/></radialGradient><radialGradient cx="213.5996" cy="229.56686" r="3.32965" gradientUnits="userSpaceOnUse" id="color-23"><stop offset="0" stop-color="#cccccc"/><stop offset="1" stop-color="#7f7f7f"/></radialGradient><radialGradient cx="214.35917" cy="234.12427" r="3.32965" gradientUnits="userSpaceOnUse" id="color-24"><stop offset="0" stop-color="#cccccc"/><stop offset="1" stop-color="#7f7f7f"/></radialGradient><radialGradient cx="214.35917" cy="239.13739" r="3.32965" gradientUnits="userSpaceOnUse" id="color-25"><stop offset="0" stop-color="#cccccc"/><stop offset="1" stop-color="#7f7f7f"/></radialGradient><radialGradient cx="214.51096" cy="243.84669" r="3.32964" gradientUnits="userSpaceOnUse" id="color-26"><stop offset="0" stop-color="#cccccc"/><stop offset="1" stop-color="#7f7f7f"/></radialGradient><radialGradient cx="214.20711" cy="248.7079" r="3.32965" gradientUnits="userSpaceOnUse" id="color-27"><stop offset="0" stop-color="#cccccc"/><stop offset="1" stop-color="#7f7f7f"/></radialGradient><radialGradient cx="213.5996" cy="253.41716" r="3.32965" gradientUnits="userSpaceOnUse" id="color-28"><stop offset="0" stop-color="#cccccc"/><stop offset="1" stop-color="#7f7f7f"/></radialGradient><radialGradient cx="213.29571" cy="257.82271" r="3.32964" gradientUnits="userSpaceOnUse" id="color-29"><stop offset="0" stop-color="#cccccc"/><stop offset="1" stop-color="#7f7f7f"/></radialGradient><radialGradient cx="212.84004" cy="262.68401" r="3.32965" gradientUnits="userSpaceOnUse" id="color-30"><stop offset="0" stop-color="#cccccc"/><stop offset="1" stop-color="#7f7f7f"/></radialGradient><radialGradient cx="211.47269" cy="267.54528" r="3.32965" gradientUnits="userSpaceOnUse" id="color-31"><stop offset="0" stop-color="#cccccc"/><stop offset="1" stop-color="#7f7f7f"/></radialGradient><radialGradient cx="209.80965" cy="282.84388" r="3.41016" gradientUnits="userSpaceOnUse" id="color-32"><stop offset="0" stop-color="#cccccc"/><stop offset="1" stop-color="#7f7f7f"/></radialGradient><radialGradient cx="209.37057" cy="286.74377" r="3.75653" gradientUnits="userSpaceOnUse" id="color-33"><stop offset="0" stop-color="#cccccc"/><stop offset="1" stop-color="#7f7f7f"/></radialGradient><radialGradient cx="210.56133" cy="290.93993" r="3.32965" gradientUnits="userSpaceOnUse" id="color-34"><stop offset="0" stop-color="#cccccc"/><stop offset="1" stop-color="#7f7f7f"/></radialGradient><linearGradient x1="293.99217" y1="244.77002" x2="292.89524" y2="276.99213" gradientUnits="userSpaceOnUse" id="color-35"><stop offset="0" stop-color="#ff0000"/><stop offset="1" stop-color="#ff0000" stop-opacity="0"/></linearGradient><linearGradient x1="288.32379" y1="244.61446" x2="293.99217" y2="244.61446" gradientUnits="userSpaceOnUse" id="color-36"><stop offset="0" stop-color="#ff0000"/><stop offset="1" stop-color="#ff0000" stop-opacity="0"/></linearGradient><linearGradient x1="252.61671" y1="217.4395" x2="236.18425" y2="217.03547" gradientUnits="userSpaceOnUse" id="color-37"><stop offset="0" stop-color="#7f7f7f"/><stop offset="1" stop-color="#b2b2b2"/></linearGradient><linearGradient x1="254.4653" y1="228.49478" x2="242.61581" y2="228.49478" gradientUnits="userSpaceOnUse" id="color-38"><stop offset="0" stop-color="#000000"/><stop offset="1" stop-color="#353935"/></linearGradient><linearGradient x1="232.41035" y1="228.49478" x2="243.0443" y2="228.49478" gradientUnits="userSpaceOnUse" id="color-39"><stop offset="0" stop-color="#000000"/><stop offset="1" stop-color="#353935"/></linearGradient><radialGradient cx="219.72701" cy="221.95489" r="26.66754" gradientUnits="userSpaceOnUse" id="color-40"><stop offset="0" stop-color="#666666"/><stop offset="1" stop-color="#000000"/></radialGradient><radialGradient cx="218.15212" cy="230.80402" r="11.46007" gradientUnits="userSpaceOnUse" id="color-41"><stop offset="0" stop-color="#370000"/><stop offset="1" stop-color="#000000"/></radialGradient><radialGradient cx="223.31809" cy="234.5343" r="9.77473" gradientUnits="userSpaceOnUse" id="color-42"><stop offset="0" stop-color="#370000"/><stop offset="1" stop-color="#000000"/></radialGradient><radialGradient cx="217.03832" cy="224.18963" r="9.04433" gradientUnits="userSpaceOnUse" id="color-43"><stop offset="0" stop-color="#370000"/><stop offset="1" stop-color="#000000"/></radialGradient><radialGradient cx="227.36405" cy="228.57878" r="7.9539" gradientUnits="userSpaceOnUse" id="color-44"><stop offset="0" stop-color="#370000"/><stop offset="1" stop-color="#000000"/></radialGradient><radialGradient cx="223.43535" cy="222.85221" r="5.986" gradientUnits="userSpaceOnUse" id="color-45"><stop offset="0" stop-color="#370000"/><stop offset="1" stop-color="#000000"/></radialGradient><radialGradient cx="222.51663" cy="227.09329" r="2.91978" gradientUnits="userSpaceOnUse" id="color-46"><stop offset="0" stop-color="#ff0000"/><stop offset="1" stop-color="#000000"/></radialGradient><linearGradient x1="87.8884" y1="397.1615" x2="163.5613" y2="397.1615" gradientUnits="userSpaceOnUse" id="color-1-,0,0,1,-165.70749,-1.10421"><stop offset="0" stop-color="#000000"/><stop offset="1" stop-color="#0e0e0e"/></linearGradient><linearGradient x1="125.5416" y1="419.3461" x2="125.5416" y2="430.3911" gradientUnits="userSpaceOnUse" id="color-2-,0,0,1,-165.70749,-1.10421"><stop offset="0" stop-color="#000000"/><stop offset="1" stop-color="#666666"/></linearGradient><linearGradient x1="105.8121" y1="383.9304" x2="105.8121" y2="422.8674" gradientUnits="userSpaceOnUse" id="color-3-,0,0,1,-165.70749,-1.10421"><stop offset="0" stop-color="#151515"/><stop offset="1" stop-color="#212121"/></linearGradient><linearGradient x1="136.8357" y1="387.159" x2="136.8357" y2="403.7624" gradientUnits="userSpaceOnUse" id="color-4-,0,0,1,-165.70749,-1.10421"><stop offset="0" stop-color="#292929"/><stop offset="1" stop-color="#292929"/></linearGradient><linearGradient x1="0" y1="396.8444" x2="72.8513" y2="396.8444" gradientUnits="userSpaceOnUse" id="color-5-,0,0,1,-165.70749,-1.10421"><stop offset="0" stop-color="#000000"/><stop offset="1" stop-color="#0e0e0e"/></linearGradient><linearGradient x1="36.3428" y1="419.2192" x2="36.3428" y2="429.5333" gradientUnits="userSpaceOnUse" id="color-6-,0,0,1,-165.70749,-1.10421"><stop offset="0" stop-color="#000000"/><stop offset="1" stop-color="#666666"/></linearGradient><linearGradient x1="15.3253" y1="401.5887" x2="30.5167" y2="401.5887" gradientUnits="userSpaceOnUse" id="color-7-,0,0,1,-165.70749,-1.10421"><stop offset="0" stop-color="#151515"/><stop offset="1" stop-color="#212121"/></linearGradient><linearGradient x1="111.8055" y1="187.7413" x2="111.8055" y2="236.9613" gradientUnits="userSpaceOnUse" id="color-8-,0,0,1,-165.70749,-1.10421"><stop offset="0" stop-color="#ffffff"/><stop offset="1" stop-color="#cccccc"/></linearGradient><radialGradient cx="32.7007" cy="228.1588" r="3.3296" gradientUnits="userSpaceOnUse" id="color-9-,0,0,1,-165.70749,-1.10421"><stop offset="0" stop-color="#cccccc"/><stop offset="1" stop-color="#7f7f7f"/></radialGradient><radialGradient cx="30.3388" cy="230.7534" r="2.8773" gradientUnits="userSpaceOnUse" id="color-10-,0,0,1,-165.70749,-1.10421"><stop offset="0" stop-color="#cccccc"/><stop offset="1" stop-color="#7f7f7f"/></radialGradient><radialGradient cx="28.7184" cy="234.5066" r="3.5697" gradientUnits="userSpaceOnUse" id="color-11-,0,0,1,-165.70749,-1.10421"><stop offset="0" stop-color="#cccccc"/><stop offset="1" stop-color="#7f7f7f"/></radialGradient><radialGradient cx="30.0855" cy="238.3164" r="3.5697" gradientUnits="userSpaceOnUse" id="color-12-,0,0,1,-165.70749,-1.10421"><stop offset="0" stop-color="#cccccc"/><stop offset="1" stop-color="#7f7f7f"/></radialGradient><radialGradient cx="32.6803" cy="242.0069" r="3.3564" gradientUnits="userSpaceOnUse" id="color-13-,0,0,1,-165.70749,-1.10421"><stop offset="0" stop-color="#cccccc"/><stop offset="1" stop-color="#7f7f7f"/></radialGradient><radialGradient cx="33.7881" cy="246.0846" r="3.0905" gradientUnits="userSpaceOnUse" id="color-14-,0,0,1,-165.70749,-1.10421"><stop offset="0" stop-color="#cccccc"/><stop offset="1" stop-color="#7f7f7f"/></radialGradient><radialGradient cx="34.8962" cy="249.5339" r="3.5432" gradientUnits="userSpaceOnUse" id="color-15-,0,0,1,-165.70749,-1.10421"><stop offset="0" stop-color="#cccccc"/><stop offset="1" stop-color="#7f7f7f"/></radialGradient><radialGradient cx="35.3073" cy="253.9515" r="3.33" gradientUnits="userSpaceOnUse" id="color-16-,0,0,1,-165.70749,-1.10421"><stop offset="0" stop-color="#cccccc"/><stop offset="1" stop-color="#7f7f7f"/></radialGradient><radialGradient cx="35.9028" cy="257.9338" r="3.1167" gradientUnits="userSpaceOnUse" id="color-17-,0,0,1,-165.70749,-1.10421"><stop offset="0" stop-color="#cccccc"/><stop offset="1" stop-color="#7f7f7f"/></radialGradient><radialGradient cx="37.5174" cy="261.7438" r="3.7824" gradientUnits="userSpaceOnUse" id="color-18-,0,0,1,-165.70749,-1.10421"><stop offset="0" stop-color="#cccccc"/><stop offset="1" stop-color="#7f7f7f"/></radialGradient><radialGradient cx="40.4561" cy="265.0292" r="3.4101" gradientUnits="userSpaceOnUse" id="color-19-,0,0,1,-165.70749,-1.10421"><stop offset="0" stop-color="#cccccc"/><stop offset="1" stop-color="#7f7f7f"/></radialGradient><radialGradient cx="41.9921" cy="268.1695" r="3.7565" gradientUnits="userSpaceOnUse" id="color-20-,0,0,1,-165.70749,-1.10421"><stop offset="0" stop-color="#cccccc"/><stop offset="1" stop-color="#7f7f7f"/></radialGradient><radialGradient cx="36.5772" cy="221.9673" r="5.6308" gradientUnits="userSpaceOnUse" id="color-21-,0,0,1,-165.70749,-1.10421"><stop offset="0" stop-color="#cccccc"/><stop offset="1" stop-color="#7f7f7f"/></radialGradient><radialGradient cx="46.0691" cy="224.361" r="3.3296" gradientUnits="userSpaceOnUse" id="color-22-,0,0,1,-165.70749,-1.10421"><stop offset="0" stop-color="#cccccc"/><stop offset="1" stop-color="#7f7f7f"/></radialGradient><radialGradient cx="47.8921" cy="228.4626" r="3.3296" gradientUnits="userSpaceOnUse" id="color-23-,0,0,1,-165.70749,-1.10421"><stop offset="0" stop-color="#cccccc"/><stop offset="1" stop-color="#7f7f7f"/></radialGradient><radialGradient cx="48.6517" cy="233.0201" r="3.3296" gradientUnits="userSpaceOnUse" id="color-24-,0,0,1,-165.70749,-1.10421"><stop offset="0" stop-color="#cccccc"/><stop offset="1" stop-color="#7f7f7f"/></radialGradient><radialGradient cx="48.6517" cy="238.0332" r="3.3296" gradientUnits="userSpaceOnUse" id="color-25-,0,0,1,-165.70749,-1.10421"><stop offset="0" stop-color="#cccccc"/><stop offset="1" stop-color="#7f7f7f"/></radialGradient><radialGradient cx="48.8035" cy="242.7425" r="3.3296" gradientUnits="userSpaceOnUse" id="color-26-,0,0,1,-165.70749,-1.10421"><stop offset="0" stop-color="#cccccc"/><stop offset="1" stop-color="#7f7f7f"/></radialGradient><radialGradient cx="48.4996" cy="247.6037" r="3.3296" gradientUnits="userSpaceOnUse" id="color-27-,0,0,1,-165.70749,-1.10421"><stop offset="0" stop-color="#cccccc"/><stop offset="1" stop-color="#7f7f7f"/></radialGradient><radialGradient cx="47.8921" cy="252.313" r="3.3296" gradientUnits="userSpaceOnUse" id="color-28-,0,0,1,-165.70749,-1.10421"><stop offset="0" stop-color="#cccccc"/><stop offset="1" stop-color="#7f7f7f"/></radialGradient><radialGradient cx="47.5882" cy="256.7185" r="3.3296" gradientUnits="userSpaceOnUse" id="color-29-,0,0,1,-165.70749,-1.10421"><stop offset="0" stop-color="#cccccc"/><stop offset="1" stop-color="#7f7f7f"/></radialGradient><radialGradient cx="47.1325" cy="261.5798" r="3.3296" gradientUnits="userSpaceOnUse" id="color-30-,0,0,1,-165.70749,-1.10421"><stop offset="0" stop-color="#cccccc"/><stop offset="1" stop-color="#7f7f7f"/></radialGradient><radialGradient cx="45.7652" cy="266.4411" r="3.3296" gradientUnits="userSpaceOnUse" id="color-31-,0,0,1,-165.70749,-1.10421"><stop offset="0" stop-color="#cccccc"/><stop offset="1" stop-color="#7f7f7f"/></radialGradient><radialGradient cx="44.1022" cy="281.7397" r="3.4102" gradientUnits="userSpaceOnUse" id="color-32-,0,0,1,-165.70749,-1.10421"><stop offset="0" stop-color="#cccccc"/><stop offset="1" stop-color="#7f7f7f"/></radialGradient><radialGradient cx="43.6631" cy="285.6396" r="3.7565" gradientUnits="userSpaceOnUse" id="color-33-,0,0,1,-165.70749,-1.10421"><stop offset="0" stop-color="#cccccc"/><stop offset="1" stop-color="#7f7f7f"/></radialGradient><radialGradient cx="44.8538" cy="289.8357" r="3.3296" gradientUnits="userSpaceOnUse" id="color-34-,0,0,1,-165.70749,-1.10421"><stop offset="0" stop-color="#cccccc"/><stop offset="1" stop-color="#7f7f7f"/></radialGradient><linearGradient x1="128.2847" y1="243.6658" x2="127.1877" y2="275.8879" gradientUnits="userSpaceOnUse" id="color-35-,0,0,1,-165.70749,-1.10421"><stop offset="0" stop-color="#ff0000"/><stop offset="1" stop-color="#ff0000" stop-opacity="0"/></linearGradient><linearGradient x1="122.6163" y1="243.5103" x2="128.2847" y2="243.5103" gradientUnits="userSpaceOnUse" id="color-36-,0,0,1,-165.70749,-1.10421"><stop offset="0" stop-color="#ff0000"/><stop offset="1" stop-color="#ff0000" stop-opacity="0"/></linearGradient><linearGradient x1="86.9092" y1="216.3353" x2="70.4768" y2="215.9313" gradientUnits="userSpaceOnUse" id="color-37-,0,0,1,-165.70749,-1.10421"><stop offset="0" stop-color="#7f7f7f"/><stop offset="1" stop-color="#b2b2b2"/></linearGradient><linearGradient x1="88.7578" y1="227.3906" x2="76.9083" y2="227.3906" gradientUnits="userSpaceOnUse" id="color-38-,0,0,1,-165.70749,-1.10421"><stop offset="0" stop-color="#000000"/><stop offset="1" stop-color="#353935"/></linearGradient><linearGradient x1="66.7029" y1="227.3906" x2="77.3368" y2="227.3906" gradientUnits="userSpaceOnUse" id="color-39-,0,0,1,-165.70749,-1.10421"><stop offset="0" stop-color="#000000"/><stop offset="1" stop-color="#353935"/></linearGradient><radialGradient cx="54.0195" cy="220.8507" r="26.6675" gradientUnits="userSpaceOnUse" id="color-40-,0,0,1,-165.70749,-1.10421"><stop offset="0" stop-color="#666666"/><stop offset="1" stop-color="#000000"/></radialGradient><radialGradient cx="52.4446" cy="229.6998" r="11.4601" gradientUnits="userSpaceOnUse" id="color-41-,0,0,1,-165.70749,-1.10421"><stop offset="0" stop-color="#370000"/><stop offset="1" stop-color="#000000"/></radialGradient><radialGradient cx="57.6106" cy="233.4301" r="9.7747" gradientUnits="userSpaceOnUse" id="color-42-,0,0,1,-165.70749,-1.10421"><stop offset="0" stop-color="#370000"/><stop offset="1" stop-color="#000000"/></radialGradient><radialGradient cx="51.3308" cy="223.0854" r="9.0443" gradientUnits="userSpaceOnUse" id="color-43-,0,0,1,-165.70749,-1.10421"><stop offset="0" stop-color="#370000"/><stop offset="1" stop-color="#000000"/></radialGradient><radialGradient cx="61.6566" cy="227.4746" r="7.9539" gradientUnits="userSpaceOnUse" id="color-44-,0,0,1,-165.70749,-1.10421"><stop offset="0" stop-color="#370000"/><stop offset="1" stop-color="#000000"/></radialGradient><radialGradient cx="57.7279" cy="221.748" r="5.986" gradientUnits="userSpaceOnUse" id="color-45-,0,0,1,-165.70749,-1.10421"><stop offset="0" stop-color="#370000"/><stop offset="1" stop-color="#000000"/></radialGradient><radialGradient cx="56.8091" cy="225.9891" r="2.9198" gradientUnits="userSpaceOnUse" id="color-46-,0,0,1,-165.70749,-1.10421"><stop offset="0" stop-color="#ff0000"/><stop offset="1" stop-color="#000000"/></radialGradient></defs><g><g data-paper-data="{&quot;isPaintingLayer&quot;:true}" fill-rule="nonzero" stroke-linejoin="miter" stroke-miterlimit="10" stroke-dasharray="" stroke-dashoffset="0" style="mix-blend-mode: normal"><g><g><path d="M 130.5741 170.5837 C 122.8462 171.4465 121.372 154.3736 124.2368 146.7565 C 128.096 136.5142 140.2468 132.1588 148.0121 124.0607 C 156.3507 115.3901 161.7251 102.1052 173.0379 97.9933 C 180.4118 95.3257 194.2994 98.9421 193.8753 106.2492 C 193.7197 119.8594 181.3154 130.5065 171.8761 140.058 C 159.8905 152.1884 146.6659 168.0972 130.5742 170.5836 Z " data-paper-data="{&quot;origRot&quot;:0}" fill="#000000" stroke="#000000" stroke-linecap="round" stroke-width="2.5"/><g data-paper-data="{&quot;origRot&quot;:0}"><path d="M 184.2151 119.2723 C 180.9041 121.7603 173.4801 120.829 172.7209 117.1179 C 170.712 108.9582 176.4415 100.8739 178.0524 92.8494 C 178.7748 89.2608 178.1479 85.3031 179.0424 81.8935 C 180.2591 77.2609 180.151 70.435 184.6122 68.618 C 189.2782 66.7026 194.468 71.5864 198.6675 74.4248 C 202.1987 76.8136 206.7197 79.8141 207.916 84.086 C 208.5243 87.4708 205.3226 90.6755 203.1235 93.3681 C 200.7884 96.2286 196.2811 96.9764 194.0678 99.9786 C 189.8033 105.7742 189.9557 114.9136 184.215 119.2724 Z " fill="#ffffff" stroke="#ffffff" stroke-linecap="round" stroke-width="2.5"/><path d="M 179.0242 90.882 C 179.0242 90.882 174.1473 85.0862 172.9126 81.5955 C 171.7005 78.1709 171.2543 74.3597 171.5222 70.731 C 171.9837 67.9658 172.8159 64.7101 175.0359 63.0496 C 176.8511 61.7015 179.6002 63.0102 181.8317 63.3391 C 182.5076 63.4382 183.4324 64.6176 183.4324 64.6176 " fill="none" stroke="#353935" stroke-linecap="round" stroke-width="2.5"/><path d="M 171.9262 77.8738 C 171.5754 72.4883 172.681 66.8895 175.9077 62.91 C 177.202 60.8457 182.2519 61.349 182.7807 63.3656 C 183.5749 66.4624 179.0273 69.2803 178.9738 72.5956 C 178.9349 75.2623 181.3015 77.3414 181.782 79.9779 C 182.5537 81.8214 182.979 83.8497 182.6873 85.882 C 182.4954 87.2831 182.1738 89.2852 181.0727 89.7944 C 179.9718 90.3034 177.9678 89.5587 177.0461 88.4911 C 174.5251 85.5627 172.1606 81.7948 171.9263 77.8738 Z " fill="#353935" stroke="none" stroke-linecap="round" stroke-width="2.5"/><path d="M 188.9762 93.4747 C 186.6134 92.8906 184.5122 91.176 182.774 89.0223 C 181.5022 87.7947 179.9145 86.0964 180.1639 83.5618 C 180.5331 80.1899 181.7586 75.0693 184.2862 74.0904 C 187.6269 72.8047 190.2497 76.4564 193.0208 78.1205 C 196.2774 80.1192 201.5334 80.4885 203.0155 85.0207 C 203.875 87.713 199.6143 91.6951 197.0957 93.2997 C 194.4232 95.0028 191.5273 94.1374 188.9762 93.4747 Z " fill="#000000" stroke="none" stroke-linecap="round" stroke-width="2.5"/><g stroke-linecap="round"><path d="M 177.6481 77.6859 C 176.9586 74.9023 179.3262 71.3739 180.5749 68.4896 C 181.7937 65.7069 182.6813 62.0208 184.9166 60.5053 C 186.8688 59.1829 189.93 59.6901 190.5667 61.8728 C 191.3393 64.5259 189.4529 68.1575 188.3424 71.1619 C 187.0026 74.321 185.882 78.5894 183.3082 80.0809 C 181.1214 81.3488 178.1722 80.0502 177.6481 77.6859 Z " stroke-width="2.5" fill="#353935" stroke="none"/><path d="M 184.4889 80.8731 C 183.7994 78.0895 186.167 74.5611 187.4157 71.6767 C 188.6345 68.8941 189.5221 65.2079 191.7574 63.6924 C 193.7096 62.3701 196.7708 62.8773 197.4076 65.0599 C 198.1802 67.7131 196.2937 71.3446 195.1832 74.349 C 193.8435 77.5082 192.7229 81.7766 190.1491 83.2681 C 187.9622 84.536 185.0131 83.2373 184.489 80.8731 Z " stroke-width="2.5" fill="#353935" stroke="none"/><path d="M 191.7334 84.2077 C 191.0439 81.4241 193.4115 77.8957 194.6602 75.0113 C 195.879 72.2287 196.7666 68.5426 199.0019 67.027 C 200.9541 65.7047 204.0153 66.2119 204.6521 68.3945 C 205.4247 71.0477 203.5382 74.6792 202.4277 77.6836 C 201.088 80.8428 199.9674 85.1112 197.3936 86.6027 C 195.2067 87.8706 192.2576 86.5719 191.7335 84.2077 Z " stroke-width="2.5" fill="#353935" stroke="none"/><path d="M 199.6125 86.7451 C 198.923 83.9615 201.2906 80.4331 202.5393 77.5487 C 203.7581 74.766 204.6457 71.0799 206.881 69.5644 C 208.8332 68.2421 211.8944 68.7493 212.5312 70.9319 C 213.3038 73.5851 211.4173 77.2166 210.3068 80.221 C 208.9671 83.3801 207.8465 87.6485 205.2727 89.1401 C 203.0858 90.408 200.1367 89.1093 199.6126 86.745 Z " stroke-width="2.5" fill="#353935" stroke="none"/></g><path d="" fill="#eac18d" stroke="none" stroke-linecap="butt" stroke-width="2.5" transform="matrix(1,0,0,1,-165.70749,-1.10421)"/></g><path d="M 104.3588 91.6267 C 105.8638 86.5498 116.0538 84.5631 119.9728 88.6791 C 128.313 97.5316 128.1547 111.7748 132.8831 122.7924 C 137.8555 135.6679 151.0348 146.9601 149.0325 160.4445 C 147.8072 168.6063 132.0973 173.383 124.6122 168.6304 C 114.0021 161.7487 111.142 146.6515 107.5542 133.7691 C 103.7888 120.2104 100.2762 105.0886 104.3588 91.6267 Z " data-paper-data="{&quot;origRot&quot;:0}" fill="#000000" stroke="#000000" stroke-linecap="round" stroke-width="2.5"/><path d="M 145.9391 164.9983 C 140.5608 168.8447 131.2722 172.322 124.9892 168.8235 C 120.3342 165.5872 120.553 156.2148 123.4289 151.137 C 129.0365 141.252 141.8078 137.3952 148.985 128.4926 C 156.8176 119.7626 159.0178 106.4491 168.009 98.7655 C 172.3518 95.0692 179.9728 96.7827 185.1397 99.2078 C 189.1882 101.1127 194.296 106.2209 193.7107 111.0414 C 192.9255 117.5007 187.4994 122.9237 183.0043 127.7709 C 171.217 140.4926 160.159 154.8129 145.9392 164.9983 Z " data-paper-data="{&quot;origRot&quot;:0}" fill="#ffffff" stroke="none" stroke-linecap="round" stroke-width="2.5"/><path d="M 103.5192 93.3682 C 104.7918 88.1662 114.1756 81.6194 117.5973 85.5797 C 125.3103 94.5185 122.1122 108.9094 126.8193 119.9227 C 131.967 133.3264 147.1984 143.9469 146.989 158.4065 C 146.869 166.2588 131.9486 173.1822 125.6513 168.2233 C 113.7632 159.7862 110.8826 143.0388 106.5906 128.6451 C 103.2272 117.345 100.7489 104.6988 103.5192 93.3682 Z " data-paper-data="{&quot;origRot&quot;:0}" fill="#ffffff" stroke="none" stroke-linecap="round" stroke-width="2.5"/></g><path d="M 113.1796 325.9152 C 120.1618 318.2921 140.9301 310.5217 143.0501 320.2567 C 149.5766 350.3987 145.5697 384.4717 132.4126 412.2713 C 127.7628 422.1153 104.9811 419.0725 99.8369 409.4609 C 91.9571 394.0642 101.5907 377.6917 104.1472 362.0454 C 106.177 349.5648 104.7851 334.8051 113.1796 325.9152 Z " data-paper-data="{&quot;origPos&quot;:null,&quot;origRot&quot;:0}" fill="#ffffff" stroke="#000000" stroke-linecap="round" stroke-width="2.5"/><path d="M 73.0886 238.1494 L 112.9427 232.3774 C 112.9427 232.3774 128.0197 248.2261 134.4587 268.8042 C 139.3308 284.3748 145.0257 317.541 145.0257 317.541 L 106.2721 317.5721 C 106.2721 317.5721 91.2751 283.299 86.9173 276.8051 C 73.8437 257.3236 73.0886 238.1493 73.0886 238.1493 Z " data-paper-data="{&quot;origRot&quot;:0}" fill="#ffffff" stroke="#000000" stroke-linecap="round" stroke-width="2.5"/><g data-paper-data="{&quot;origPos&quot;:null}"><path d="M 89.1772 428.8523 C 86.9323 428.1138 88.2858 424.7659 88.3638 422.6706 C 89.3822 414.0097 89.9653 405.4593 91.68 396.9676 C 92.8447 391.2088 95.4767 372.9621 101.378 364.9201 C 104.8066 360.2479 102.302 379.7986 107.8851 382.8146 C 118.1078 388.3587 131.6263 383.4914 142.5354 387.2069 C 145.2619 388.1342 139.5389 401.6624 142.0474 403.4747 C 147.5947 407.4733 156.7469 404.1351 161.5687 408.843 C 164.7474 411.9469 163.3049 418.0994 162.7518 422.6706 C 162.4362 425.2702 161.2286 428.7045 161.2286 428.7045 C 161.2286 428.7045 98.1376 431.7903 89.1773 428.8523 Z " data-paper-data="{&quot;origPos&quot;:null}" fill="url(#color-1-,0,0,1,-165.70749,-1.10421)" stroke-linecap="round" stroke-width="2.5" stroke="none"/><path d="M 89.5493 429.0107 C 86.2751 426.924 89.2704 419.3462 89.2704 419.3462 C 89.2704 419.3462 102.2823 421.9674 116.4904 422.5427 C 132.1205 423.1755 163.0651 422.4418 163.0651 422.4418 C 163.0651 422.4418 162.7079 428.8135 159.9934 429.2372 C 157.2788 429.6609 132.2348 430.8757 116.1411 430.181 C 107.3634 429.8036 91.9399 430.5342 89.5493 429.0106 Z " data-paper-data="{&quot;origPos&quot;:null}" fill="url(#color-2-,0,0,1,-165.70749,-1.10421)" stroke-linecap="round" stroke-width="2.5" stroke="none"/><g data-paper-data="{&quot;origPos&quot;:null}" stroke-linecap="butt"><g data-paper-data="{&quot;origPos&quot;:null}"><path d="M 98.6778 422.4597 C 98.6778 422.4597 103.0662 412.1439 104.4144 405.2899 C 106.0537 396.9556 110.0248 383.9344 110.0248 383.9344 C 110.0248 383.9344 110.5602 383.8871 111.1203 384.1177 C 111.9125 384.4439 112.9464 385.3613 112.9464 385.3613 L 103.2301 422.8674 Z " data-paper-data="{&quot;origPos&quot;:null}" fill="url(#color-3-,0,0,1,-165.70749,-1.10421)" stroke-width="2.5" stroke="none"/><path d="M 106.4671 403.06 C 106.756 403.1639 106.7181 403.4218 106.6972 403.5055 C 106.7658 403.7202 106.8292 403.9265 106.858 404.1521 C 107.1347 406.3192 107.2181 406.9751 105.5951 408.3842 C 104.5546 409.264 106.2061 409.1293 105.894 410.577 C 105.8298 410.875 104.7604 411.4571 104.5308 411.7222 C 103.1501 413.2701 105.2956 413.845 103.763 415.614 C 102.8001 416.6935 101.1479 417.4496 102.7621 418.8481 C 103.1933 420.317 100.9263 420.8669 100.0761 421.8483 C 100.0761 421.8483 99.8344 422.1272 99.5555 421.8856 C 99.2766 421.644 99.5182 421.365 99.5182 421.365 C 100.082 420.7143 101.9381 419.4158 102.2398 419.3717 C 100.3648 417.7092 102.1309 416.4334 103.2052 415.1308 C 104.2627 413.9102 102.6298 412.8675 103.973 411.239 C 104.2549 410.9135 104.871 410.1968 105.2301 409.9117 C 104.7908 409.651 104.059 408.7793 105.1112 407.827 C 106.0481 407.0135 106.283 405.4764 106.1259 404.2456 C 106.0997 404.04 106.0425 403.8808 105.9793 403.6835 L 105.995 403.2824 C 105.995 403.2824 106.1199 402.9352 106.4671 403.0601 Z " data-paper-data="{&quot;origPos&quot;:null,&quot;origRot&quot;:0}" fill="#000000" stroke-width="2.5" stroke="none"/><path d="M 106.6968 404.9007 C 106.4013 404.8174 106.421 404.5575 106.4359 404.4726 C 106.3523 404.2632 106.2747 404.0619 106.2301 403.8389 C 105.8016 401.6966 105.6722 401.0482 107.192 399.5284 C 108.1681 398.5775 106.5301 398.8281 106.7395 397.362 C 106.7826 397.0603 107.8084 396.4044 108.0188 396.1238 C 109.2871 394.4825 107.1065 394.0601 108.5108 392.1876 C 109.3953 391.043 110.9903 390.1725 109.2817 388.891 C 108.7481 387.4561 110.9709 386.7481 111.7499 385.7093 C 111.7499 385.7093 111.9713 385.4141 112.2666 385.6355 C 112.5618 385.8569 112.3404 386.1521 112.3404 386.1521 C 111.8238 386.8409 110.0636 388.2668 109.7658 388.332 C 111.7531 389.8585 110.0813 391.2554 109.1012 392.6304 C 108.1323 393.9224 109.8345 394.8475 108.6092 396.5666 C 108.3508 396.911 107.7868 397.6694 107.4487 397.979 C 107.9052 398.2081 108.6965 399.0262 107.7139 400.0503 C 106.8365 400.9277 106.7104 402.4775 106.9538 403.6942 C 106.9944 403.8974 107.0626 404.0522 107.1396 404.2445 L 107.1521 404.6457 C 107.1521 404.6457 107.052 405.0009 106.6968 404.9007 Z " data-paper-data="{&quot;origPos&quot;:null,&quot;index&quot;:null}" fill="#000000" stroke-width="2.5" stroke="none"/></g><path d="M 104.3852 388.577 L 110.0927 383.3451 L 112.6293 384.4549 L 109.1414 390.9551 Z " data-paper-data="{&quot;origPos&quot;:null}" fill="#333333" stroke-width="2.5" stroke="none"/></g><g data-paper-data="{&quot;origPos&quot;:null}" stroke-linecap="butt"><path d="M 140.4035 402.2436 C 140.4055 402.3149 140.3991 402.3784 140.3861 402.4349 C 140.4495 402.5239 140.5004 402.6508 140.5232 402.8311 C 140.6132 403.5437 140.0835 403.6648 140.0835 403.6648 C 137.9555 404.1512 135.526 402.6266 133.4699 403.3163 C 133.3579 403.3419 133.2459 403.3675 133.1339 403.3931 L 132.5752 403.3548 C 132.4625 403.3701 132.3264 403.3446 132.2066 403.2002 C 132.1231 403.1189 132.0493 402.9941 132.0225 402.8025 C 131.9806 402.616 132.0034 402.4594 132.0495 402.3355 C 132.1073 402.1297 132.222 402.0226 132.3288 401.967 C 133.4739 401.098 134.5144 400.1221 135.6065 399.1737 C 135.205 398.7206 134.8327 398.2489 134.5112 397.7579 L 133.9913 397.7042 C 133.6954 397.6737 133.4739 397.3262 133.4966 396.9282 C 133.5111 396.6741 133.6217 396.4608 133.7767 396.3478 L 134.2894 395.9609 L 134.317 396.0272 C 134.7144 395.7549 135.2764 395.0955 135.887 394.3802 C 135.4609 394.0691 135.0403 393.732 134.5982 393.5053 L 134.5977 393.5074 L 133.9615 393.2224 C 133.7271 393.1249 133.5654 392.8195 133.5849 392.4766 C 133.5995 392.2224 133.71 392.0092 133.865 391.8961 L 134.3777 391.5092 L 134.4794 391.7531 C 134.7668 391.2994 135.1502 390.8919 135.5883 390.5281 C 135.0049 389.9717 134.5036 389.4111 134.1943 388.9259 C 134.3284 386.6197 138.5438 386.7714 140.3902 388.2321 L 140.5641 388.1923 L 140.6564 387.8198 L 141.2925 388.1049 C 141.527 388.2023 141.6887 388.5077 141.6691 388.8507 C 141.6495 389.1937 141.455 389.4622 141.2123 389.5104 C 141.0648 389.5441 140.7888 389.6072 140.5512 389.6615 C 140.4169 389.6922 140.2948 389.7201 140.2151 389.7383 C 139.6316 389.7189 138.8112 390.2401 137.9629 390.8307 C 138.5732 391.2762 139.1571 391.6393 139.5978 391.8368 L 139.9106 391.9769 C 140.145 392.0744 140.3067 392.3798 140.2872 392.7227 C 140.2645 393.1207 140.0061 393.4186 139.7102 393.388 L 139.0508 393.3199 L 139.0527 393.2858 C 138.8168 393.5597 138.5492 393.8417 138.2631 394.1255 C 140.9625 395.5885 140.7251 396.8634 137.7766 399.0886 C 137.7373 399.1183 137.6981 399.1481 137.6591 399.178 C 138.5282 400.1011 139.3516 401.0343 139.8259 401.3944 L 140.1429 401.6502 C 140.1429 401.6502 140.3839 401.5213 140.4035 402.2436 Z M 136.5034 400.1163 C 135.8448 400.6767 135.2052 401.2562 134.5593 401.8207 C 136.0216 401.8937 137.5084 402.3994 138.9622 402.3558 C 138.1907 401.6703 137.3223 400.9256 136.5033 400.1163 Z M 138.8793 396.0861 C 138.307 395.8327 137.6294 395.4056 137.1747 395.145 C 136.4347 395.8076 135.6772 396.4398 135.0746 396.9604 C 135.5199 397.1247 136.1112 397.6207 136.7345 398.2293 C 136.9042 398.0938 137.0761 397.9599 137.2508 397.828 C 137.6947 397.493 138.3337 396.6657 138.8793 396.0861 Z M 137.8402 389.1524 C 136.9295 389.0877 136.0413 388.8826 135.499 388.627 C 135.8229 389.0011 136.2237 389.3957 136.6553 389.778 C 137.0425 389.5447 137.444 389.3366 137.8402 389.1524 Z M 137.8111 392.346 C 137.4938 392.1244 137.1644 391.8775 136.8371 391.6157 C 136.2837 391.988 135.7588 392.2986 135.3238 392.4092 C 135.8035 392.7296 136.2707 393.0961 136.7592 393.3788 C 137.1188 392.9821 137.4766 392.6173 137.8111 392.346 Z " data-paper-data="{&quot;origPos&quot;:null,&quot;origRot&quot;:0}" fill="url(#color-4-,0,0,1,-165.70749,-1.10421)" stroke-width="2.5" stroke="none"/><path d="M 141.603 405.4911 C 141.381 405.5895 141.2005 405.5802 141.0587 405.5245 L 141.0878 405.5531 C 138.1443 405.5531 135.3271 405.6918 132.4619 404.9755 C 127.94 403.8451 131.9144 398.7965 131.9144 395.9349 C 132.126 393.0163 132.8039 390.3188 132.8039 387.2618 C 132.8039 387.2618 132.8039 386.5391 133.5267 386.5391 C 134.2494 386.5391 134.2494 387.2618 134.2494 387.2618 C 134.2494 389.3774 132.8899 394.3314 133.3599 395.9349 C 133.3599 398.8999 130.066 402.8866 132.8124 403.5732 C 135.5582 404.2597 138.2603 404.1076 141.0878 404.1076 L 141.971 404.5376 C 141.971 404.5376 142.2638 405.1984 141.603 405.4911 Z " data-paper-data="{&quot;origPos&quot;:null}" fill="#1a1a1a" stroke-width="2.5" stroke="none"/></g></g><g stroke-linecap="round"><path d="M 148.0281 321.3579 C 149.5685 328.4553 149.1523 339.387 142.4073 342.6258 C 132.1046 347.8122 118.0464 346.7366 107.4672 341.4105 C 102.5148 338.8523 106.7319 330.2722 106.5557 324.7 C 106.8322 320.0302 103.9124 313.3581 107.771 310.724 C 115.473 305.4678 126.4503 303.3136 135.1155 305.7108 C 141.982 307.4183 146.6002 314.7922 148.0281 321.3579 Z " data-paper-data="{&quot;origPos&quot;:null}" fill="#666666" stroke="#000000" stroke-width="2.5"/><path d="M 147.0666 321.8361 C 148.3184 327.6027 147.9802 336.4845 142.5001 339.116 C 134.1294 343.3294 122.7073 342.4556 114.112 338.1285 C 110.0884 336.0501 113.5147 329.0787 113.3713 324.5514 C 113.5961 320.7575 111.2238 315.3366 114.3587 313.1962 C 120.6166 308.9259 129.5352 307.1755 136.5755 309.1234 C 142.1543 310.5106 145.9066 316.5018 147.0666 321.8361 Z " data-paper-data="{&quot;origPos&quot;:null}" fill="#ffffff" stroke="none" stroke-width="2.5"/></g><path d="M 53.0924 317.449 C 61.1393 312.8498 80.2758 317.4856 79.8585 327.2531 C 78.6355 355.4556 66.5855 384.5514 48.1189 405.8782 C 40.8394 414.2782 17.584 411.7014 14.1575 401.3923 C 9.3033 386.7128 23.4046 370.2575 30.071 355.5366 C 36.0343 342.4568 40.0073 324.8545 53.0924 317.449 Z " fill="#ffffff" stroke="#000000" stroke-linecap="round" stroke-width="2.5"/><path d="M 41.6975 224.6501 C 41.6975 224.6501 79.4277 204.6265 86.6548 223.4341 C 93.8819 242.2417 93.0919 296.0624 81.4302 328.0497 C 77.6977 338.2809 55.9178 338.0571 48.6259 329.8915 C 39.8377 319.5593 44.0571 307.8377 44.0571 307.8377 C 44.0571 307.8377 45.234 277.4566 44.4205 265.4297 C 43.217 246.7016 41.6975 224.6501 41.6975 224.6501 Z " data-paper-data="{&quot;origRot&quot;:0}" fill="#ffffff" stroke="#000000" stroke-linecap="round" stroke-width="2.5"/><g data-paper-data="{&quot;origPos&quot;:null}"><path d="M 0.8742 428.2442 C -1.1685 426.9423 0.845 416.9276 2.0858 412.9438 C 4.7899 404.2534 7.6515 395.0194 11.6496 386.9003 C 15.6157 378.8479 19.0541 367.8217 25.7065 364.2923 C 28.4352 362.8433 22.2584 377.4389 26.7642 379.9807 C 36.8679 385.6744 50.0568 380.4212 61.3136 384.3874 C 64.127 385.3782 57.0406 399.4095 59.0221 402.7197 C 61.2996 406.4851 68.287 405.1136 70.8322 408.713 C 73.48 412.4571 72.7572 417.6219 72.7712 422.11 C 72.7502 424.3662 70.294 428.4557 70.294 428.4557 C 70.294 428.4557 40.7353 429.9858 25.7065 429.3371 C 17.5096 428.9847 3.1066 429.6669 0.8742 428.2442 Z " data-paper-data="{&quot;origPos&quot;:null}" fill="url(#color-5-,0,0,1,-165.70749,-1.10421)" stroke-linecap="round" stroke-width="2.5" stroke="none"/><path d="M 1.4891 428.2442 C -1.5684 426.2955 1.2287 419.2191 1.2287 419.2191 C 1.2287 419.2191 13.3796 421.667 26.6476 422.2042 C 41.2436 422.7951 72.6266 422.11 72.6266 422.11 C 72.6266 422.11 70.912 428.0601 68.377 428.4557 C 65.8421 428.8514 41.3503 429.9858 26.3215 429.3371 C 18.1245 428.9847 3.7215 429.6669 1.4892 428.2441 Z " data-paper-data="{&quot;origPos&quot;:null}" fill="url(#color-6-,0,0,1,-165.70749,-1.10421)" stroke-linecap="round" stroke-width="2.5" stroke="none"/><g data-paper-data="{&quot;origPos&quot;:null}" stroke-linecap="butt"><g data-paper-data="{&quot;origPos&quot;:null}"><path d="M 15.3253 421.8821 C 15.3253 421.8821 19.9975 410.8992 21.4328 403.6019 C 23.1782 394.7287 27.4061 380.8654 27.4061 380.8654 C 27.4061 380.8654 27.9761 380.8151 28.5725 381.0606 C 29.4159 381.4079 30.5167 382.3846 30.5167 382.3846 L 20.1721 422.3162 Z " data-paper-data="{&quot;origPos&quot;:null}" fill="url(#color-7-,0,0,1,-165.70749,-1.10421)" stroke-width="2.5" stroke="none"/><path d="M 23.6183 401.2278 C 23.926 401.3385 23.8856 401.613 23.8633 401.7021 C 23.9364 401.9307 24.0038 402.1504 24.0345 402.3905 C 24.329 404.6978 24.4179 405.3961 22.6899 406.8963 C 21.5821 407.8331 23.3404 407.6896 23.0082 409.231 C 22.9398 409.5483 21.8013 410.168 21.5568 410.4502 C 20.0868 412.0983 22.3711 412.7103 20.7394 414.5937 C 19.7142 415.743 17.9552 416.548 19.6738 418.037 C 20.1329 419.6009 17.7192 420.1863 16.814 421.2311 C 16.814 421.2311 16.5567 421.5281 16.2598 421.2708 C 15.9628 421.0136 16.2201 420.7166 16.2201 420.7166 C 16.8203 420.0238 18.7965 418.6413 19.1176 418.5944 C 17.1214 416.8243 19.0017 415.466 20.1455 414.0791 C 21.2714 412.7796 19.5329 411.6696 20.9629 409.9357 C 21.2631 409.5892 21.919 408.8261 22.3013 408.5226 C 21.8336 408.245 21.0545 407.3169 22.1748 406.303 C 23.1723 405.4369 23.4223 403.8004 23.255 402.49 C 23.2271 402.2712 23.1662 402.1017 23.0989 401.8916 L 23.1157 401.4646 C 23.1157 401.4646 23.2486 401.0948 23.6183 401.2278 Z " data-paper-data="{&quot;origPos&quot;:null,&quot;origRot&quot;:0}" fill="#000000" stroke-width="2.5" stroke="none"/><path d="M 23.8628 403.1876 C 23.5482 403.0989 23.5692 402.8222 23.5851 402.7318 C 23.4961 402.5089 23.4134 402.2945 23.3659 402.0571 C 22.9098 399.7762 22.772 399.0859 24.3901 397.4678 C 25.4293 396.4555 23.6853 396.7223 23.9083 395.1614 C 23.9542 394.8401 25.0463 394.1418 25.2703 393.843 C 26.6207 392.0956 24.299 391.6459 25.7942 389.6523 C 26.7359 388.4337 28.434 387.5069 26.6149 386.1426 C 26.0468 384.6148 28.4133 383.8611 29.2428 382.7551 C 29.2428 382.7551 29.4785 382.4408 29.7928 382.6765 C 30.1071 382.9122 29.8714 383.2265 29.8714 383.2265 C 29.3214 383.9598 27.4474 385.4779 27.1304 385.5474 C 29.2462 387.1726 27.4662 388.6599 26.4228 390.1238 C 25.3912 391.4993 27.2035 392.4843 25.899 394.3145 C 25.6239 394.6812 25.0233 395.4886 24.6633 395.8183 C 25.1494 396.0622 25.9919 396.9332 24.9457 398.0235 C 24.0116 398.9576 23.8773 400.6076 24.1364 401.903 C 24.1797 402.1194 24.2523 402.2841 24.3342 402.4889 L 24.3476 402.9161 C 24.3476 402.9161 24.241 403.2942 23.8628 403.1876 Z " data-paper-data="{&quot;origPos&quot;:null,&quot;index&quot;:null}" fill="#000000" stroke-width="2.5" stroke="none"/></g><path d="M 21.4019 385.8082 L 27.4784 380.238 L 30.1791 381.4196 L 26.4657 388.3401 Z " data-paper-data="{&quot;origPos&quot;:null}" fill="#333333" stroke-width="2.5" stroke="none"/></g><g data-paper-data="{&quot;origPos&quot;:null}" stroke-linecap="butt"><path d="M 58.8047 402.1226 C 58.8067 402.1975 58.8 402.2642 58.7863 402.3236 C 58.853 402.4172 58.9065 402.5505 58.9305 402.74 C 59.0251 403.4889 58.4683 403.6161 58.4683 403.6161 C 56.232 404.1273 53.6788 402.5251 51.5179 403.2499 C 51.4002 403.2769 51.2825 403.3037 51.1647 403.3307 L 50.5776 403.2904 C 50.4591 403.3064 50.3162 403.2797 50.1902 403.1279 C 50.1026 403.0424 50.025 402.9112 49.9967 402.71 C 49.9528 402.5139 49.9767 402.3494 50.0252 402.2192 C 50.0859 402.003 50.2065 401.8904 50.3187 401.8319 C 51.5222 400.9187 52.6156 399.893 53.7633 398.8964 C 53.3414 398.4202 52.9502 397.9245 52.6123 397.4085 L 52.0659 397.352 C 51.7549 397.3199 51.5221 396.9548 51.546 396.5365 C 51.5613 396.2695 51.6774 396.0453 51.8404 395.9265 L 52.3791 395.5199 L 52.4082 395.5896 C 52.8258 395.3034 53.4164 394.6104 54.0581 393.8587 C 53.6104 393.5318 53.1683 393.1774 52.7037 392.9392 L 52.7032 392.9415 L 52.0346 392.6419 C 51.7882 392.5395 51.6183 392.2185 51.6388 391.8581 C 51.6541 391.591 51.7702 391.3669 51.9332 391.2481 L 52.4719 390.8414 L 52.5789 391.0978 C 52.8809 390.6209 53.2838 390.1927 53.7442 389.8103 C 53.1312 389.2256 52.6043 388.6365 52.2792 388.1265 C 52.4202 385.7029 56.8503 385.8623 58.7907 387.3974 L 58.9735 387.3556 L 59.0705 386.9641 L 59.739 387.2637 C 59.9854 387.3661 60.1554 387.6871 60.1348 388.0475 C 60.1143 388.4079 59.9098 388.6902 59.6547 388.7408 C 59.4997 388.7762 59.2097 388.8425 58.96 388.8996 C 58.8188 388.9319 58.6905 388.9612 58.6068 388.9803 C 57.9935 388.9599 57.1314 389.5076 56.2399 390.1283 C 56.8812 390.5965 57.4949 390.9781 57.9581 391.1856 L 58.2867 391.3329 C 58.5331 391.4353 58.7031 391.7563 58.6825 392.1167 C 58.6586 392.535 58.3872 392.848 58.0762 392.8159 L 57.3831 392.7443 L 57.3852 392.7085 C 57.1372 392.9964 56.856 393.2926 56.5553 393.5909 C 59.3923 395.1285 59.1427 396.4683 56.0441 398.8069 C 56.0028 398.8381 55.9616 398.8694 55.9205 398.9008 C 56.834 399.8709 57.6993 400.8517 58.1977 401.2301 L 58.5309 401.4989 C 58.5309 401.4989 58.7842 401.3635 58.8047 402.1226 Z M 54.7057 399.8869 C 54.0136 400.4759 53.3415 401.085 52.6626 401.6781 C 54.1994 401.7548 55.762 402.2863 57.2898 402.2405 C 56.479 401.52 55.5663 400.7374 54.7057 399.8869 Z M 57.2027 395.6515 C 56.6012 395.3852 55.8891 394.9363 55.4113 394.6624 C 54.6335 395.3588 53.8375 396.0232 53.2042 396.5703 C 53.6722 396.743 54.2936 397.2643 54.9487 397.9039 C 55.127 397.7614 55.3076 397.6207 55.4913 397.4821 C 55.9578 397.1301 56.6293 396.2607 57.2027 395.6515 Z M 56.1107 388.3647 C 55.1535 388.2966 54.2202 388.0811 53.6501 387.8125 C 53.9905 388.2057 54.4118 388.6204 54.8654 389.0221 C 55.2723 388.7769 55.6942 388.5582 56.1107 388.3647 Z M 56.0801 391.7209 C 55.7467 391.488 55.4004 391.2285 55.0564 390.9534 C 54.4748 391.3446 53.9233 391.6711 53.4661 391.7873 C 53.9703 392.1239 54.4613 392.5091 54.9746 392.8062 C 55.3525 392.3893 55.7286 392.006 56.0801 391.7209 Z " data-paper-data="{&quot;origPos&quot;:null,&quot;origRot&quot;:0}" fill="#292929" stroke-width="2.5" stroke="none"/><path d="M 60.0651 405.5356 C 59.8318 405.6389 59.6421 405.6291 59.4931 405.5706 L 59.5237 405.6007 C 56.4303 405.6007 53.4696 405.7465 50.4584 404.9937 C 45.7062 403.8056 49.883 398.4999 49.883 395.4926 C 50.1053 392.4253 50.8179 389.5905 50.8179 386.3777 C 50.8179 386.3777 50.8179 385.6182 51.5774 385.6182 C 52.337 385.6182 52.337 386.3777 52.337 386.3777 C 52.337 388.601 50.9082 393.8074 51.4022 395.4926 C 51.4022 398.6086 47.9405 402.7984 50.8268 403.5199 C 53.7125 404.2413 56.5522 404.0815 59.5237 404.0815 L 60.4519 404.5334 C 60.4519 404.5334 60.7596 405.2279 60.0651 405.5356 Z " data-paper-data="{&quot;origPos&quot;:null}" fill="#1a1a1a" stroke-width="2.5" stroke="none"/></g></g><g data-paper-data="{&quot;origRot&quot;:0}" stroke-linecap="round"><path d="M 83.9259 317.0852 C 84.7789 324.2974 83.3168 335.139 76.2927 337.7164 C 65.5402 341.8916 51.6498 339.4738 41.6299 333.1585 C 36.9453 330.1372 41.9654 322.0007 42.324 316.4374 C 43.0466 311.8156 40.7797 304.8944 44.873 302.6422 C 53.0435 298.1482 64.1764 297.0559 72.572 300.2725 C 79.2434 302.6303 83.1337 310.4128 83.9259 317.0852 Z " data-paper-data="{&quot;origPos&quot;:null}" fill="#666666" stroke="#000000" stroke-width="2.5"/><path d="M 82.2284 317.176 C 82.9218 323.0361 81.7339 331.8446 76.0268 333.9388 C 67.2906 337.331 56.0053 335.3666 47.8639 330.2353 C 44.0579 327.7806 48.0899 321.1657 48.4278 316.6499 C 48.9686 312.8904 47.1631 307.2508 50.499 305.4417 C 57.1348 301.8423 66.1255 300.9051 73.004 303.5165 C 78.355 305.4279 81.5849 311.755 82.2284 317.1761 Z " data-paper-data="{&quot;origPos&quot;:null}" fill="#ffffff" stroke="none" stroke-width="2.5"/></g><g data-paper-data="{&quot;origPos&quot;:null}"><path d="M 41.2473 229.6883 C 41.2473 229.6883 42.4348 195.3055 40.2345 173.4802 C 38.7154 158.4117 28.6837 118.1693 41.2473 87.3958 C 53.8108 56.6223 116.4603 69.3542 122.7743 86.3831 C 129.0882 103.412 120.088 159.8489 119.2296 172.4675 C 117.7104 194.7986 117.2041 229.6883 117.2041 229.6883 Z " data-paper-data="{&quot;origPos&quot;:null}" fill="#000000" stroke="none" stroke-linecap="butt" stroke-width="2.5"/><path d="M 38.2626 98.3244 C 40.1005 89.3153 43.037 79.0291 50.8393 80.5117 C 58.6416 81.9944 69.4539 87.3756 74.4944 93.4461 C 77.6239 97.2288 79.6838 124.7495 74.1906 129.9054 C 69.2929 134.8153 40.2592 135.5627 38.339 131.1207 C 34.1887 121.462 35.9509 109.6557 38.2626 98.3243 Z " data-paper-data="{&quot;origPos&quot;:null,&quot;index&quot;:null}" fill="#ffffff" stroke="#000000" stroke-linecap="round" stroke-width="2.5"/><path d="M 124.5878 131.9889 C 122.6676 136.4308 93.6339 135.6834 88.7362 130.7735 C 83.243 125.6176 85.303 98.0969 88.4324 94.3143 C 93.4729 88.2438 104.2852 82.8626 112.0875 81.3799 C 119.8898 79.8972 122.8263 90.1835 124.6642 99.1925 C 126.9759 110.5238 128.7381 122.3302 124.5878 131.9889 Z " data-paper-data="{&quot;origPos&quot;:null}" fill="#ffffff" stroke="#000000" stroke-linecap="round" stroke-width="2.5"/><path d="M 119.3359 142.8397 C 123.6958 149.451 120.8429 158.7936 119.9436 166.6901 C 119.0898 171.7762 118.3242 178.1171 114.1708 181.1219 C 110.1603 184.0447 86.3828 182.4891 82.269 178.3875 C 78.7567 174.9573 79.4707 147.5125 84.3958 142.3839 C 88.4822 137.8569 116.1943 138.0817 119.3359 142.8397 Z " data-paper-data="{&quot;origPos&quot;:null}" fill="#ffffff" stroke="#000000" stroke-linecap="round" stroke-width="2.5"/><path d="M 75.6283 142.0586 C 78.937 147.172 79.2742 173.8966 75.3245 178.5178 C 72.2011 182.0969 47.3876 181.1034 42.9669 176.9987 C 37.9142 172.3076 38.1482 163.8369 37.3461 156.9461 C 36.9663 150.7116 34.2288 141.5907 39.4729 138.2607 C 46.3211 133.916 73.4864 138.7134 75.6283 142.0586 Z " data-paper-data="{&quot;origPos&quot;:null}" fill="#ffffff" stroke="#000000" stroke-linecap="round" stroke-width="2.5"/><path d="M 108.3619 232.4039 L 42.9884 230.2771 L 43.1909 187.7413 L 111.8053 189.5642 Z " data-paper-data="{&quot;origPos&quot;:null}" fill="url(#color-8-,0,0,1,-165.70749,-1.10421)" stroke="#000000" stroke-linecap="round" stroke-width="2.5"/><g><path d="M 103.965 93.3984 L 108.9869 93.6317 L 108.286 101.3398 L 115.6438 101.5734 L 115.6438 106.0115 L 108.1693 105.4275 L 108.1693 128.4348 L 103.4977 128.2015 L 103.848 105.1938 L 96.4902 105.4275 L 96.4902 101.5734 L 104.1983 101.8071 Z " stroke-linecap="round" stroke-width="2.5" fill="#000000" stroke="none"/><g stroke-linecap="butt"><path d="M 116.1556 127.9753 C 116.1556 128.3061 116.0453 128.4532 115.8247 128.4532 C 114.2068 128.5267 112.5893 128.5635 110.9714 128.637 C 110.8611 128.637 110.7876 128.637 110.714 128.637 C 110.714 128.3429 110.6773 128.1223 110.6773 127.865 C 110.6773 127.7547 110.7876 127.6077 110.8978 127.6077 C 111.1552 127.5341 111.4125 127.4974 111.7066 127.4238 C 112.1846 127.3133 112.2581 127.203 112.2581 126.725 C 112.2581 125.6957 112.3316 124.6292 112.2948 123.5999 C 112.2581 122.0555 112.1478 120.4744 112.111 118.9301 C 112.111 118.0477 112.1846 117.2019 112.1846 116.3196 C 112.1846 115.6943 112.1846 115.0325 112.1478 114.3708 C 112.0375 114.6281 111.9221 114.8849 111.7802 115.1428 C 111.212 116.2087 110.5953 117.0563 109.9785 117.9924 C 109.4753 118.7635 108.8285 119.2764 108.3424 119.9779 C 107.9128 120.6023 107.5075 121.2212 107.0186 121.7796 C 106.6628 122.1807 106.479 123.2562 106.0442 122.9378 C 104.1441 121.3917 103.3347 119.514 101.9262 117.8272 C 101.0955 116.8096 100.1399 115.8213 99.3157 114.812 C 99.1097 114.5604 99.1686 114.5914 99.1318 114.4811 L 99.0583 114.4811 C 99.0583 115.2164 99.0583 115.9519 99.0583 116.6872 C 99.0951 118.4521 99.1318 120.2538 99.1318 122.0188 C 99.1318 123.3422 99.0583 124.7028 99.0216 126.0266 C 99.0216 126.3574 99.0583 126.6883 99.0951 127.0192 C 99.1318 127.2765 99.3524 127.4239 99.6098 127.4606 C 99.7936 127.4974 99.9406 127.4974 100.1245 127.4974 C 100.3818 127.4974 100.4186 127.6444 100.3818 127.8282 C 100.345 128.0488 100.345 128.2327 100.345 128.4532 C 100.345 128.637 100.2347 128.637 100.0877 128.637 C 99.4627 128.6738 98.8374 128.7106 98.2492 128.7106 C 97.5875 128.7473 96.9622 128.7473 96.3005 128.7841 C 96.0799 128.7841 95.9696 128.7473 96.0064 128.49 C 96.0431 128.2694 96.0064 128.0488 96.0064 127.865 C 96.0064 127.6444 96.1167 127.5709 96.3372 127.5341 C 96.6313 127.4974 96.9255 127.4606 97.1831 127.35 C 97.2566 127.3133 97.3669 127.1662 97.3669 127.0927 C 97.4037 126.2471 97.4037 125.3645 97.4404 124.519 C 97.4772 123.5999 97.5507 122.6805 97.5875 121.7247 C 97.5875 121.467 97.5875 121.1729 97.5507 120.9156 C 97.4404 120.0333 97.4772 119.1139 97.4772 118.158 C 97.4772 116.7607 97.4404 115.4002 97.4404 114.0032 C 97.4404 113.525 97.4404 113.0103 97.4037 112.5324 C 97.3301 112.2015 97.1096 112.0545 96.7784 112.0545 C 96.7416 112.0545 96.7049 112.0545 96.7049 112.0545 C 96.0431 112.0177 95.9328 111.8336 96.0799 111.2086 C 96.0799 111.1351 96.2269 111.0248 96.3004 111.0248 C 96.5945 111.0248 96.8887 111.0248 97.1831 111.0248 C 98.0654 111.0616 98.948 111.0248 99.7936 111.0248 C 100.2715 111.0248 100.3225 111.2991 100.5288 111.5395 C 101.4929 112.6099 102.0191 113.6152 102.7534 114.7017 C 103.7457 115.9848 104.66 117.3456 105.7133 118.6542 C 105.977 118.9817 105.7498 118.9556 106.0442 118.6542 C 107.4412 117.2569 108.7762 115.7761 109.9784 114.3709 C 110.6247 113.6186 111.0309 112.6697 111.7066 111.9439 C 112.005 111.6234 112.1845 111.1719 112.7731 111.1719 C 113.8024 111.2086 114.8689 111.1719 115.8982 111.2086 C 116.1188 111.2086 116.1923 111.3189 116.1923 111.5395 C 116.1923 112.0913 116.1923 112.0913 115.6041 112.128 C 115.0159 112.128 114.8321 111.9807 114.8321 112.8633 C 114.8321 113.5985 114.8321 114.2974 114.8689 115.0326 C 114.8689 115.2899 114.9056 115.5473 114.9056 115.8046 C 114.9056 117.0549 114.9056 118.2684 114.9056 119.5183 C 114.9056 121.0994 114.8689 122.6438 114.8689 124.2249 C 114.8689 125.1072 114.8321 125.9898 114.7953 126.9089 C 114.7953 127.3871 114.9056 127.5709 115.3835 127.6077 C 115.5306 127.6077 115.6776 127.6812 115.8247 127.6445 C 116.1556 127.5709 116.1556 127.7915 116.1556 127.9753 Z " stroke-width="2.5" fill="#000000" stroke="none"/></g></g><g><g><path d="M 45.7902 293.4433 C 45.7902 293.4433 46.0862 293.9176 46.1308 293.7839 C 46.2566 293.4066 46.1685 292.8736 46.1308 292.4219 C 46.1114 292.1888 45.999 291.9713 45.9607 291.7407 C 45.8853 291.2898 45.8932 290.824 45.7902 290.3786 C 45.7216 290.0812 45.5736 289.8062 45.4496 289.5273 C 45.347 289.2958 45.1893 289.0867 45.1094 288.8461 C 44.9614 288.4025 44.7688 287.9516 44.7688 287.484 C 44.7688 286.2882 45.014 285.1008 45.1094 283.9086 C 45.1331 283.6105 45.0686 283.4504 45.1094 283.2274 C 45.1832 282.8212 45.3758 282.4417 45.4496 282.0355 C 45.4904 281.8125 45.4381 281.6098 45.4496 281.3546 C 45.4961 280.3332 45.6201 278.2896 45.6201 278.2896 " fill="none" stroke="#7f7f7f" stroke-linecap="round" stroke-width="2.5"/><path d="M 44.1607 273.062 C 42.8666 272.286 42.8445 267.1987 41.356 264.6484 C 40.5728 263.304 38.2746 263.2535 37.6165 261.8438 C 35.988 258.3549 35.5675 254.4003 34.8119 250.6253 C 34.3203 248.1649 34.67 245.5267 33.877 243.1465 C 33.3854 241.6693 31.5643 240.8839 31.0727 239.407 C 30.2797 237.0268 29.6891 234.3981 30.1378 231.928 C 30.3733 230.6285 32.0076 230.0583 32.9421 229.1234 C 33.877 228.1885 34.9784 227.394 35.7468 226.3188 C 36.5565 225.1858 36.5471 223.4713 37.6165 222.5796 C 38.6019 221.7586 40.0736 221.6447 41.356 221.6447 C 42.6388 221.6447 44.1102 221.7586 45.0955 222.5796 C 46.165 223.4713 46.3428 225.0737 46.9653 226.3188 C 47.5879 227.5641 48.5789 228.6898 48.8351 230.0583 C 49.5251 233.7437 49.7699 237.5279 49.7699 241.2768 C 49.7699 243.7858 49.2483 246.2802 48.8351 248.7555 C 48.6236 250.0216 47.9804 251.2144 47.9002 252.495 C 47.6666 256.2233 48.3638 260.0059 47.9002 263.7135 C 47.7282 265.0953 46.5485 266.1608 46.0304 267.453 C 45.2994 269.2815 45.0956 273.6232 44.1607 273.062 Z " fill="none" stroke="#7f7f7f" stroke-linecap="round" stroke-width="2.5"/><path d="M 34.7512 227.563 C 35.0669 227.8781 35.2619 228.3135 35.2619 228.7941 C 35.2619 229.2751 35.0669 229.7101 34.7512 230.0255 C 34.4361 230.3409 34.001 230.536 33.5201 230.536 C 33.0394 230.536 32.604 230.3409 32.289 230.0255 C 31.9733 229.7101 31.7782 229.2751 31.7782 228.7941 C 31.7782 228.3135 31.9733 227.8781 32.289 227.563 C 32.604 227.2473 33.0394 227.0523 33.5201 227.0523 C 34.001 227.0523 34.4361 227.2473 34.7512 227.563 Z " fill="url(#color-9-,0,0,1,-165.70749,-1.10421)" stroke="none" stroke-linecap="butt" stroke-width="2.5"/><path d="M 31.7129 229.9936 C 32.0286 230.3087 32.2236 230.744 32.2236 231.2247 C 32.2236 231.7057 32.0286 232.1407 31.7129 232.4561 C 31.3978 232.7715 30.9628 232.9665 30.4818 232.9665 C 30.0011 232.9665 29.5658 232.7715 29.2507 232.4561 C 28.935 232.1407 28.7399 231.7056 28.7399 231.2247 C 28.7399 230.744 28.935 230.3087 29.2507 229.9936 C 29.5657 229.6779 30.0011 229.4828 30.4818 229.4828 C 30.9628 229.4828 31.3978 229.6779 31.7129 229.9936 Z " fill="url(#color-10-,0,0,1,-165.70749,-1.10421)" stroke="none" stroke-linecap="butt" stroke-width="2.5"/><path d="M 30.9534 234.0952 C 31.269 234.4103 31.4641 234.8457 31.4641 235.3263 C 31.4641 235.8073 31.269 236.2424 30.9534 236.5577 C 30.6383 236.8731 30.2032 237.0682 29.7222 237.0682 C 29.2416 237.0682 28.8062 236.8731 28.4911 236.5577 C 28.1754 236.2424 27.9804 235.8073 27.9804 235.3263 C 27.9804 234.8457 28.1755 234.4103 28.4911 234.0952 C 28.8062 233.7795 29.2416 233.5845 29.7222 233.5845 C 30.2032 233.5845 30.6383 233.7795 30.9534 234.0952 Z " fill="url(#color-11-,0,0,1,-165.70749,-1.10421)" stroke="none" stroke-linecap="butt" stroke-width="2.5"/><path d="M 32.3207 237.7411 C 32.6364 238.0562 32.8314 238.4916 32.8314 238.9722 C 32.8314 239.4532 32.6364 239.8883 32.3207 240.2037 C 32.0056 240.519 31.5705 240.7141 31.0896 240.7141 C 30.6089 240.7141 30.1735 240.519 29.8585 240.2037 C 29.5428 239.8883 29.3477 239.4532 29.3477 238.9722 C 29.3477 238.4916 29.5428 238.0562 29.8585 237.7411 C 30.1735 237.4254 30.6089 237.2304 31.0896 237.2304 C 31.5705 237.2304 32.0056 237.4255 32.3207 237.7411 Z " fill="url(#color-12-,0,0,1,-165.70749,-1.10421)" stroke="none" stroke-linecap="butt" stroke-width="2.5"/><path d="M 34.7512 241.0832 C 35.0669 241.3983 35.2619 241.8337 35.2619 242.3144 C 35.2619 242.7953 35.0669 243.2304 34.7512 243.5458 C 34.4361 243.8611 34.001 244.0562 33.5201 244.0562 C 33.0394 244.0562 32.604 243.8611 32.289 243.5458 C 31.9733 243.2304 31.7782 242.7953 31.7782 242.3144 C 31.7782 241.8337 31.9733 241.3983 32.289 241.0832 C 32.604 240.7676 33.0394 240.5725 33.5201 240.5725 C 34.001 240.5725 34.4361 240.7676 34.7512 241.0832 Z " fill="url(#color-13-,0,0,1,-165.70749,-1.10421)" stroke="none" stroke-linecap="butt" stroke-width="2.5"/><path d="M 35.5108 245.4887 C 35.8264 245.8038 36.0215 246.2392 36.0215 246.7199 C 36.0215 247.2008 35.8264 247.6359 35.5108 247.9513 C 35.1957 248.2666 34.7606 248.4617 34.2797 248.4617 C 33.799 248.4617 33.3636 248.2666 33.0485 247.9513 C 32.7329 247.6359 32.5378 247.2008 32.5378 246.7199 C 32.5378 246.2392 32.7329 245.8038 33.0485 245.4887 C 33.3636 245.1731 33.799 244.978 34.2797 244.978 C 34.7606 244.978 35.1957 245.1731 35.5108 245.4887 Z " fill="url(#color-14-,0,0,1,-165.70749,-1.10421)" stroke="none" stroke-linecap="butt" stroke-width="2.5"/><path d="M 36.2703 249.2866 C 36.586 249.6017 36.781 250.0371 36.781 250.5177 C 36.781 250.9987 36.586 251.4338 36.2703 251.7491 C 35.9553 252.0645 35.5202 252.2596 35.0392 252.2596 C 34.5585 252.2596 34.1232 252.0645 33.8081 251.7491 C 33.4924 251.4338 33.2974 250.9987 33.2974 250.5177 C 33.2974 250.037 33.4924 249.6017 33.8081 249.2866 C 34.1232 248.9709 34.5585 248.7759 35.0392 248.7759 C 35.5202 248.7759 35.9552 248.9709 36.2703 249.2866 Z " fill="url(#color-15-,0,0,1,-165.70749,-1.10421)" stroke="none" stroke-linecap="butt" stroke-width="2.5"/><path d="M 37.0299 253.5402 C 37.3456 253.8553 37.5406 254.2907 37.5406 254.7713 C 37.5406 255.2523 37.3456 255.6874 37.0299 256.0027 C 36.7148 256.3181 36.2797 256.5132 35.7988 256.5132 C 35.3181 256.5132 34.8827 256.3181 34.5677 256.0027 C 34.252 255.6874 34.0569 255.2523 34.0569 254.7713 C 34.0569 254.2907 34.252 253.8553 34.5677 253.5402 C 34.8827 253.2245 35.3181 253.0295 35.7988 253.0295 C 36.2797 253.0295 36.7148 253.2245 37.0299 253.5402 Z " fill="url(#color-16-,0,0,1,-165.70749,-1.10421)" stroke="none" stroke-linecap="butt" stroke-width="2.5"/><path d="M 37.7895 257.338 C 38.1051 257.6531 38.3002 258.0885 38.3002 258.5692 C 38.3002 259.0501 38.1051 259.4852 37.7895 259.8006 C 37.4744 260.116 37.0393 260.311 36.5583 260.311 C 36.0777 260.311 35.6423 260.1159 35.3272 259.8006 C 35.0115 259.4852 34.8165 259.0501 34.8165 258.5692 C 34.8165 258.0885 35.0116 257.6531 35.3272 257.338 C 35.6423 257.0224 36.0777 256.8273 36.5583 256.8273 C 37.0393 256.8273 37.4744 257.0224 37.7895 257.338 Z " fill="url(#color-17-,0,0,1,-165.70749,-1.10421)" stroke="none" stroke-linecap="butt" stroke-width="2.5"/><path d="M 39.9164 260.984 C 40.232 261.2991 40.4271 261.7344 40.4271 262.2151 C 40.4271 262.6961 40.232 263.1311 39.9164 263.4465 C 39.6013 263.7619 39.1662 263.9569 38.6852 263.9569 C 38.2046 263.9569 37.7692 263.7619 37.4541 263.4465 C 37.1385 263.1311 36.9434 262.6961 36.9434 262.2151 C 36.9434 261.7344 37.1385 261.2991 37.4541 260.984 C 37.7692 260.6683 38.2046 260.4733 38.6852 260.4733 C 39.1662 260.4733 39.6013 260.6683 39.9164 260.984 Z " fill="url(#color-18-,0,0,1,-165.70749,-1.10421)" stroke="none" stroke-linecap="butt" stroke-width="2.5"/><g stroke-linecap="butt"><path d="M 42.2147 263.9556 C 42.6242 264.1325 42.966 264.4652 43.1432 264.9124 C 43.3203 265.3593 43.2993 265.8357 43.1219 266.245 C 42.9451 266.6545 42.6124 266.996 42.1654 267.1732 C 41.7185 267.3503 41.2421 267.3293 40.8329 267.1522 C 40.4233 266.9754 40.0815 266.6427 39.9044 266.1958 C 39.7272 265.7488 39.7482 265.2721 39.9256 264.8629 C 40.1025 264.4533 40.4351 264.1118 40.8821 263.9347 C 41.329 263.7575 41.8054 263.7785 42.2147 263.9556 Z " fill="url(#color-19-,0,0,1,-165.70749,-1.10421)" stroke-width="2.5" stroke="none"/><path d="M 43.582 267.4497 C 43.9915 267.6265 44.3333 267.9592 44.5105 268.4065 C 44.6876 268.8534 44.6667 269.3298 44.4892 269.739 C 44.3124 270.1486 43.9797 270.4901 43.5328 270.6672 C 43.0858 270.8444 42.6094 270.8234 42.2002 270.6463 C 41.7906 270.4695 41.4488 270.1368 41.2717 269.6898 C 41.0946 269.2429 41.1155 268.7662 41.2929 268.3569 C 41.4698 267.9474 41.8025 267.6059 42.2494 267.4287 C 42.6963 267.2516 43.1727 267.2726 43.582 267.4497 Z " fill="url(#color-20-,0,0,1,-165.70749,-1.10421)" stroke-width="2.5" stroke="none"/></g><path d="M 40.0448 220.9599 C 40.5786 221.4928 40.9085 222.229 40.9085 223.042 C 40.9085 223.8551 40.5786 224.5912 40.0448 225.1241 C 39.5119 225.658 38.7757 225.9879 37.9626 225.9879 C 37.1496 225.9879 36.4137 225.658 35.8805 225.1241 C 35.347 224.5912 35.017 223.8551 35.017 223.042 C 35.017 222.229 35.347 221.4928 35.8805 220.9599 C 36.4137 220.4264 37.1496 220.0964 37.9626 220.0964 C 38.7757 220.0964 39.5119 220.4264 40.0448 220.9599 Z " fill="url(#color-21-,0,0,1,-165.70749,-1.10421)" stroke="none" stroke-linecap="butt" stroke-width="2.5"/><path d="M 48.1196 223.7652 C 48.4352 224.0802 48.6303 224.5156 48.6303 224.9963 C 48.6303 225.4772 48.4352 225.9123 48.1196 226.2277 C 47.8045 226.5431 47.3694 226.7381 46.8884 226.7381 C 46.4078 226.7381 45.9724 226.543 45.6573 226.2277 C 45.3417 225.9123 45.1466 225.4772 45.1466 224.9963 C 45.1466 224.5156 45.3417 224.0802 45.6573 223.7651 C 45.9724 223.4495 46.4078 223.2544 46.8884 223.2544 C 47.3694 223.2544 47.8045 223.4495 48.1196 223.7651 Z " fill="url(#color-22-,0,0,1,-165.70749,-1.10421)" stroke="none" stroke-linecap="butt" stroke-width="2.5"/><path d="M 49.9425 227.8667 C 50.2582 228.1818 50.4533 228.6172 50.4533 229.0978 C 50.4533 229.5788 50.2582 230.0139 49.9425 230.3292 C 49.6275 230.6446 49.1924 230.8397 48.7114 230.8397 C 48.2308 230.8397 47.7954 230.6446 47.4803 230.3292 C 47.1646 230.0139 46.9696 229.5788 46.9696 229.0978 C 46.9696 228.6172 47.1647 228.1818 47.4803 227.8667 C 47.7954 227.551 48.2308 227.356 48.7114 227.356 C 49.1924 227.356 49.6275 227.5511 49.9425 227.8667 Z " fill="url(#color-23-,0,0,1,-165.70749,-1.10421)" stroke="none" stroke-linecap="butt" stroke-width="2.5"/><path d="M 50.7021 232.4241 C 51.0178 232.7392 51.2128 233.1746 51.2128 233.6552 C 51.2128 234.1362 51.0178 234.5713 50.7021 234.8867 C 50.387 235.202 49.952 235.3971 49.471 235.3971 C 48.9903 235.3971 48.555 235.202 48.2399 234.8867 C 47.9242 234.5713 47.7292 234.1362 47.7292 233.6552 C 47.7292 233.1746 47.9242 232.7392 48.2399 232.4241 C 48.555 232.1085 48.9903 231.9134 49.471 231.9134 C 49.952 231.9134 50.387 232.1085 50.7021 232.4241 Z " fill="url(#color-24-,0,0,1,-165.70749,-1.10421)" stroke="none" stroke-linecap="butt" stroke-width="2.5"/><path d="M 50.7021 237.4374 C 51.0178 237.7525 51.2128 238.1878 51.2128 238.6685 C 51.2128 239.1495 51.0178 239.5845 50.7021 239.8999 C 50.387 240.2153 49.952 240.4103 49.471 240.4103 C 48.9903 240.4103 48.555 240.2153 48.2399 239.8999 C 47.9242 239.5845 47.7292 239.1495 47.7292 238.6685 C 47.7292 238.1878 47.9242 237.7525 48.2399 237.4374 C 48.555 237.1217 48.9903 236.9266 49.471 236.9266 C 49.952 236.9266 50.387 237.1217 50.7021 237.4374 Z " fill="url(#color-25-,0,0,1,-165.70749,-1.10421)" stroke="none" stroke-linecap="butt" stroke-width="2.5"/><path d="M 50.8539 242.1467 C 51.1696 242.4617 51.3647 242.8971 51.3647 243.3778 C 51.3647 243.8588 51.1696 244.2938 50.8539 244.6092 C 50.5389 244.9246 50.1038 245.1196 49.6228 245.1196 C 49.1422 245.1196 48.7068 244.9246 48.3917 244.6092 C 48.076 244.2938 47.881 243.8588 47.881 243.3778 C 47.881 242.8971 48.076 242.4617 48.3917 242.1467 C 48.7068 241.831 49.1422 241.6359 49.6228 241.6359 C 50.1038 241.6359 50.5389 241.831 50.8539 242.1467 Z " fill="url(#color-26-,0,0,1,-165.70749,-1.10421)" stroke="none" stroke-linecap="butt" stroke-width="2.5"/><path d="M 50.5503 247.0079 C 50.866 247.3229 51.061 247.7583 51.061 248.239 C 51.061 248.72 50.866 249.155 50.5503 249.4704 C 50.2353 249.7858 49.8002 249.9808 49.3192 249.9808 C 48.8385 249.9808 48.4032 249.7858 48.0881 249.4704 C 47.7724 249.155 47.5774 248.72 47.5774 248.239 C 47.5774 247.7583 47.7724 247.323 48.0881 247.0079 C 48.4032 246.6922 48.8385 246.4972 49.3192 246.4972 C 49.8002 246.4972 50.2352 246.6922 50.5503 247.0079 Z " fill="url(#color-27-,0,0,1,-165.70749,-1.10421)" stroke="none" stroke-linecap="butt" stroke-width="2.5"/><path d="M 49.9425 251.7172 C 50.2582 252.0323 50.4533 252.4677 50.4533 252.9483 C 50.4533 253.4293 50.2582 253.8644 49.9425 254.1797 C 49.6275 254.4951 49.1924 254.6902 48.7114 254.6902 C 48.2308 254.6902 47.7954 254.4951 47.4803 254.1797 C 47.1646 253.8644 46.9696 253.4293 46.9696 252.9483 C 46.9696 252.4677 47.1647 252.0323 47.4803 251.7172 C 47.7954 251.4015 48.2308 251.2065 48.7114 251.2065 C 49.1924 251.2065 49.6275 251.4015 49.9425 251.7172 Z " fill="url(#color-28-,0,0,1,-165.70749,-1.10421)" stroke="none" stroke-linecap="butt" stroke-width="2.5"/><path d="M 49.6387 256.1227 C 49.9544 256.4378 50.1494 256.8732 50.1494 257.3538 C 50.1494 257.8348 49.9544 258.2698 49.6387 258.5852 C 49.3236 258.9006 48.8885 259.0957 48.4076 259.0957 C 47.9269 259.0957 47.4915 258.9006 47.1765 258.5852 C 46.8608 258.2698 46.6657 257.8348 46.6657 257.3538 C 46.6657 256.8732 46.8608 256.4378 47.1765 256.1227 C 47.4915 255.807 47.9269 255.612 48.4076 255.612 C 48.8885 255.612 49.3236 255.807 49.6387 256.1227 Z " fill="url(#color-29-,0,0,1,-165.70749,-1.10421)" stroke="none" stroke-linecap="butt" stroke-width="2.5"/><path d="M 49.183 260.984 C 49.4987 261.2991 49.6937 261.7344 49.6937 262.2151 C 49.6937 262.6961 49.4986 263.1311 49.183 263.4465 C 48.8679 263.7619 48.4328 263.9569 47.9519 263.9569 C 47.4712 263.9569 47.0358 263.7619 46.7207 263.4465 C 46.4051 263.1311 46.21 262.6961 46.21 262.2151 C 46.21 261.7344 46.4051 261.2991 46.7207 260.984 C 47.0358 260.6683 47.4712 260.4733 47.9519 260.4733 C 48.4328 260.4733 48.8679 260.6683 49.183 260.984 Z " fill="url(#color-30-,0,0,1,-165.70749,-1.10421)" stroke="none" stroke-linecap="butt" stroke-width="2.5"/><path d="M 47.8157 265.8451 C 48.1313 266.1602 48.3264 266.5956 48.3264 267.0763 C 48.3264 267.5572 48.1313 267.9923 47.8157 268.3077 C 47.5006 268.6231 47.0655 268.8181 46.5846 268.8181 C 46.1039 268.8181 45.6685 268.623 45.3534 268.3077 C 45.0378 267.9923 44.8427 267.5572 44.8427 267.0763 C 44.8427 266.5956 45.0378 266.1602 45.3534 265.8451 C 45.6685 265.5295 46.1039 265.3344 46.5846 265.3344 C 47.0655 265.3344 47.5006 265.5295 47.8157 265.8451 Z " fill="url(#color-31-,0,0,1,-165.70749,-1.10421)" stroke="none" stroke-linecap="butt" stroke-width="2.5"/><path d="M 47.6116 272.3589 C 48.2746 273.2066 48.6847 274.377 48.6847 275.6688 C 48.6847 276.961 48.2746 278.1313 47.6116 278.979 C 46.949 279.8264 46.0341 280.3511 45.0239 280.3511 C 44.014 280.3511 43.0989 279.8264 42.4362 278.979 C 41.7736 278.1313 41.3634 276.961 41.3634 275.6688 C 41.3634 274.3769 41.7736 273.2066 42.4362 272.3589 C 43.0989 271.5113 44.014 270.9865 45.0239 270.9865 C 46.0341 270.9865 46.949 271.5113 47.6116 272.3589 Z " fill="#b2b2b2" stroke="none" stroke-linecap="butt" stroke-width="2.5"/><path d="M 45.8607 280.6661 C 46.2703 280.843 46.6121 281.1757 46.7892 281.6229 C 46.9663 282.0698 46.9454 282.5462 46.7679 282.9555 C 46.5911 283.365 46.2584 283.7065 45.8115 283.8837 C 45.3645 284.0608 44.8881 284.0399 44.4789 283.8627 C 44.0693 283.6859 43.7275 283.3532 43.5504 282.9063 C 43.3733 282.4593 43.3942 281.9826 43.5717 281.5734 C 43.7485 281.1638 44.0812 280.8223 44.5281 280.6452 C 44.975 280.468 45.4514 280.489 45.8607 280.6661 Z " fill="url(#color-32-,0,0,1,-165.70749,-1.10421)" stroke="none" stroke-linecap="butt" stroke-width="2.5"/><path d="M 45.2529 284.9198 C 45.6625 285.0966 46.0043 285.4293 46.1814 285.8765 C 46.3586 286.3235 46.3376 286.7999 46.1602 287.2091 C 45.9833 287.6187 45.6507 287.9602 45.2037 288.1373 C 44.7568 288.3145 44.2804 288.2935 43.8712 288.1164 C 43.4616 287.9395 43.1198 287.6068 42.9426 287.1599 C 42.7655 286.713 42.7865 286.2363 42.9639 285.827 C 43.1407 285.4175 43.4734 285.076 43.9204 284.8988 C 44.3673 284.7217 44.8437 284.7427 45.2529 284.9198 Z " fill="url(#color-33-,0,0,1,-165.70749,-1.10421)" stroke="none" stroke-linecap="butt" stroke-width="2.5"/><path d="M 46.9043 289.2399 C 47.22 289.555 47.415 289.9904 47.415 290.471 C 47.415 290.952 47.2199 291.3871 46.9043 291.7024 C 46.5892 292.0178 46.1541 292.2129 45.6732 292.2129 C 45.1925 292.2129 44.7571 292.0178 44.442 291.7024 C 44.1264 291.3871 43.9313 290.952 43.9313 290.471 C 43.9313 289.9904 44.1264 289.555 44.442 289.2399 C 44.7571 288.9242 45.1925 288.7292 45.6732 288.7292 C 46.1541 288.7292 46.5892 288.9242 46.9043 289.2399 Z " fill="url(#color-34-,0,0,1,-165.70749,-1.10421)" stroke="none" stroke-linecap="butt" stroke-width="2.5"/><path d="M 48.344 296.1678 L 51.5791 295.8272 L 51.409 299.4029 L 48.5144 299.7435 L 48.0037 309.7892 L 44.0874 309.7892 L 43.5767 300.0838 L 39.4902 299.9136 L 39.6606 296.3379 L 43.5767 296.3379 L 43.5767 292.9326 L 48.1739 292.9326 Z " fill="#b2b2b2" stroke="none" stroke-linecap="round" stroke-width="2.5"/><path d="M 45.5231 295.2318 L 46.2043 307.6614 " fill="none" stroke="#7f7f7f" stroke-linecap="round" stroke-width="2.5"/><path d="M 42.4584 297.7857 L 48.4177 297.9561 " fill="none" stroke="#7f7f7f" stroke-linecap="round" stroke-width="2.5"/></g><path d="M 114.6917 240.4552 L 40.5578 237.1131 L 40.254 224.5043 L 112.413 226.0234 Z " fill="#000000" stroke="none" stroke-linecap="round" stroke-width="2.5"/><g><g><g><path d="M 124.4124 233.916 L 130.6393 227.5864 L 128.9698 266.249 L 120.3323 260.2973 L 118.0909 232.6399 Z " fill="#363a37" stroke="none" stroke-linecap="round" stroke-width="2.5"/><path d="M 122.6361 213.3684 L 122.0944 229.2805 L 101.0589 223.2544 L 101.5952 195.7923 Z " fill="#000000" stroke="none" stroke-linecap="round" stroke-width="2.5"/><path d="M 128.2847 243.6658 L 127.1879 275.8879 L 122.6159 275.7324 L 123.7124 243.5103 Z " fill="url(#color-35-,0,0,1,-165.70749,-1.10421)" stroke="url(#color-36-,0,0,1,-165.70749,-1.10421)" stroke-linecap="round" stroke-width="2.5"/><path d="M 140.2073 223.6324 C 140.1729 224.6375 139.9198 225.5423 139.5373 226.1903 C 139.1548 226.8384 138.6426 227.2297 138.0941 227.2112 C 137.5454 227.1924 137.0611 226.767 136.7236 226.0946 C 136.3857 225.4219 136.1949 224.5019 136.2292 223.4969 C 136.2633 222.4918 136.5164 221.587 136.8989 220.939 C 137.2814 220.2909 137.7936 219.8993 138.3424 219.9181 C 138.8908 219.9366 139.3751 220.362 139.7129 221.0347 C 140.0505 221.7073 140.2413 222.6273 140.2073 223.6324 Z " fill="#ff0000" stroke="none" stroke-linecap="butt" stroke-width="2.5"/><path d="M 125.4745 189.4612 L 133.5216 198.7626 L 133.504 210.9752 L 137.7169 204.2153 L 136.8768 217.1967 L 133.0392 224.6332 L 132.6466 236.1695 L 126.9544 247.3925 L 116.3736 246.2359 L 114.822 202.1086 Z " fill="#000000" stroke="none" stroke-linecap="round" stroke-width="2.5"/><path d="M 141.4383 200.628 L 140.7538 224.6334 L 139.0192 220.9899 L 137.154 221.1919 L 135.5735 224.7224 L 136.3993 200.4566 Z " fill="#000000" stroke="none" stroke-linecap="round" stroke-width="2.5"/></g><path d="M 122.4439 293.3884 L 122.4439 293.3884 L 122.4272 293.1912 L 122.4272 293.1912 Z " fill="#cccccc" stroke="none" stroke-linecap="butt" stroke-width="2.5"/></g><path d="M 135.1999 277.826 L 116.6664 276.7626 L 109.6784 258.533 L 104.3614 224.2005 L 135.1999 227.9983 Z " fill="#353935" stroke="none" stroke-linecap="round" stroke-width="2.5"/></g><g stroke-linecap="butt"><path d="M 105.1212 244.557 L 91.4489 244.557 L 91.4489 220.2508 L 105.1212 220.2508 Z " fill="#cccc00" stroke="#000000" stroke-width="2.5"/><path d="M 96.2099 222.9335 C 96.5532 223.2768 96.7659 223.7538 96.7659 224.2764 C 96.7659 224.799 96.5532 225.276 96.2099 225.6193 C 95.8665 225.9626 95.3895 226.1753 94.867 226.1753 C 94.3444 226.1753 93.8674 225.9627 93.524 225.6193 C 93.1807 225.276 92.968 224.799 92.968 224.2764 C 92.968 223.7538 93.1807 223.2768 93.524 222.9335 C 93.8674 222.5902 94.3444 222.3775 94.867 222.3775 C 95.3895 222.3775 95.8665 222.5901 96.2099 222.9335 Z " fill="#ff0000" stroke="none" stroke-width="2.5"/></g><g><path d="M 85.9018 257.3043 L 69.4693 256.8999 L 70.4768 215.9312 L 86.9093 216.3353 Z " fill="url(#color-37-,0,0,1,-165.70749,-1.10421)" stroke-linecap="butt" stroke-width="2.5" stroke="none"/><path d="M 87.0624 258.0846 L 76.1699 261.3796 L 68.1391 258.2131 L 68.0015 254.6468 L 87.1353 255.1174 Z " fill="#666666" stroke-linecap="round" stroke-width="2.5" stroke="none"/><path d="M 83.9199 255.4535 L 82.3443 255.4149 L 83.2855 217.1472 L 84.8612 217.1861 Z " fill="#666666" stroke-linecap="butt" stroke-width="2.5" stroke="none"/><path d="M 80.5435 255.3705 L 79.193 255.3374 L 80.1452 216.6195 L 81.4957 216.6529 Z " fill="#666666" stroke-linecap="butt" stroke-width="2.5" stroke="none"/><path d="M 86.5787 210.8438 C 88.0085 211.2917 89.1597 212.9074 89.0567 214.2835 C 88.971 215.4362 87.9152 216.032 86.1275 216.5998 C 84.3398 217.1677 81.883 217.4855 79.1814 217.4189 C 76.4801 217.3527 74.0419 216.9143 72.2842 216.2592 C 70.5266 215.6045 69.4495 214.7337 69.4726 213.8019 C 69.4954 212.8698 70.6141 212.0531 72.4015 211.4852 C 74.1892 210.9177 76.9981 210.7876 79.3476 210.6661 C 81.7694 210.5409 84.351 209.9287 86.5787 210.8438 Z " fill="#b2b2b2" stroke-linecap="round" stroke-width="2.5" stroke="none"/><path d="M 71.7644 255.1548 L 70.4139 255.1213 L 71.3548 216.8537 L 72.7056 216.8871 Z " fill="#666666" stroke-linecap="butt" stroke-width="2.5" stroke="none"/><path d="M 64.2993 219.8336 L 64.2993 219.8336 L 64.3047 219.6085 L 64.3047 219.6085 Z " fill="#666666" stroke-linecap="butt" stroke-width="2.5" stroke="none"/><path d="M 88.2154 218.1695 L 69.0815 217.6989 L 69.1702 214.0973 L 87.1896 214.0897 L 86.197 208.6597 L 91.4666 214.1951 Z " fill="#666666" stroke-linecap="round" stroke-width="2.5" stroke="none"/><path d="M 78.4215 241.7866 L 72.1186 241.6316 L 72.3954 230.3767 L 78.6983 230.5316 Z " fill="#000000" stroke-linecap="butt" stroke-width="2.5" stroke="none"/><path d="M 75.9083 233.7266 C 76.3032 234.2659 76.5372 235.0033 76.5174 235.8109 C 76.4977 236.6188 76.2276 237.3437 75.8065 237.8629 C 75.3866 238.3834 74.8157 238.6973 74.1944 238.6821 C 73.5731 238.6669 73.0186 238.3251 72.6245 237.7849 C 72.2295 237.2453 71.9956 236.5079 72.0153 235.7003 C 72.0354 234.8927 72.3055 234.1678 72.7263 233.6483 C 73.1462 233.1278 73.7171 232.814 74.3384 232.8294 C 74.9597 232.8446 75.5145 233.1861 75.9083 233.7266 Z " fill="#ff0000" stroke-linecap="butt" stroke-width="2.5" stroke="none"/><path d="M 47.1496 235.4039 C 47.2107 235.4054 47.2487 235.4063 47.2487 235.4063 C 47.2487 235.4063 47.2107 235.4054 47.1496 235.4039 C 47.0883 235.4024 47.0038 235.4002 46.9111 235.3981 C 46.8182 235.3957 46.7337 235.3935 46.6723 235.3923 C 46.6112 235.3908 46.5733 235.3899 46.5733 235.3899 C 46.5733 235.3899 46.6112 235.3908 46.6723 235.3923 C 46.7337 235.3935 46.8181 235.3957 46.9111 235.3981 C 47.0038 235.4002 47.0883 235.4023 47.1496 235.4039 Z " fill="#ff0000" stroke-linecap="butt" stroke-width="2.5" stroke="none"/></g><g stroke-linecap="butt"><path d="M 88.7578 237.265 L 76.9085 237.265 L 76.9085 227.3906 L 88.7578 227.3906 Z " fill="url(#color-38-,0,0,1,-165.70749,-1.10421)" stroke-width="2.5" stroke="none"/><path d="M 66.7029 227.3906 L 77.3368 227.3906 L 77.3368 237.265 L 66.7029 237.265 Z " fill="url(#color-39-,0,0,1,-165.70749,-1.10421)" stroke-width="2.5" stroke="none"/></g><g stroke-linecap="butt"><g><path d="M 63.8003 220.987 C 66.0718 223.2584 67.4776 226.3948 67.4776 229.8563 C 67.4776 233.3178 66.0718 236.4542 63.8003 238.7253 C 61.5289 240.9967 58.3925 242.4025 54.931 242.4025 C 51.4695 242.4025 48.3331 240.9967 46.062 238.7253 C 43.7906 236.4542 42.3848 233.3178 42.3848 229.8563 C 42.3848 226.3948 43.7906 223.2584 46.062 220.987 C 48.3331 218.7159 51.4695 217.3101 54.931 217.3101 C 58.3925 217.3101 61.5289 218.7159 63.8003 220.987 Z " fill="#000000" stroke-width="2.5" stroke="none"/><path d="M 43.157 229.7605 C 43.157 223.4631 48.4631 218.3582 55.0087 218.3582 C 61.5544 218.3582 66.4117 223.5166 66.4117 229.8137 C 66.4117 236.1114 61.5538 241.1629 55.0084 241.1629 C 48.4631 241.1629 43.157 236.058 43.157 229.7605 Z " fill="url(#color-40-,0,0,1,-165.70749,-1.10421)" stroke-width="2.5" stroke="none"/><path d="M 57.6522 223.0603 C 58.1302 223.2483 60.5629 226.2985 60.7543 226.9991 C 60.946 227.6997 58.379 230.515 57.8133 230.7495 C 57.2479 230.9838 53.2589 229.5734 52.932 229.1441 C 52.6054 228.7151 52.2426 224.4913 52.6746 223.9894 C 53.1073 223.4877 57.1746 222.8722 57.6523 223.0602 Z " fill="#000000" stroke-width="2.5" stroke="none"/><path d="M 49.5024 235.9163 C 48.7604 236.8913 47.7751 238.6219 46.5829 238.1571 C 44.8553 237.4774 43.4313 235.4044 43.4423 233.5489 C 43.4504 232.1054 45.4524 231.3395 46.8038 230.8661 C 48.628 230.2278 53.5965 228.5482 52.5325 230.4086 Z " fill="url(#color-41-,0,0,1,-165.70749,-1.10421)" stroke-width="2.5" stroke="none"/><path d="M 60.1581 240.98 L 55.5168 242.2445 C 54.5947 241.9012 54.7114 240.049 55.0101 238.9464 C 55.4658 236.8443 55.9346 233.6258 57.6928 232.9966 C 59.0224 232.5235 60.5361 235.2194 60.9596 236.8157 C 61.4524 238.1863 60.1581 240.98 60.1581 240.98 Z " fill="url(#color-42-,0,0,1,-165.70749,-1.10421)" stroke-width="2.5" stroke="none"/><path d="M 43.2844 225.4723 L 47.1554 220.6177 C 47.9609 220.0848 49.2278 220.4813 49.9443 221.0817 C 50.9208 221.7765 52.4666 223.1756 51.7432 224.1275 C 50.4872 225.7849 48.0687 226.1118 45.9401 226.4387 C 45.0107 226.5821 43.2844 225.4723 43.2844 225.4723 Z " fill="url(#color-43-,0,0,1,-165.70749,-1.10421)" stroke-width="2.5" stroke="none"/><path d="M 65.6783 224.9008 C 66.6636 227.2142 66.7283 230.0364 66.2307 232.539 C 66.094 233.2211 64.8397 232.1747 64.3211 231.75 C 63.1201 230.6486 61.4378 229.6615 61.1808 228.057 C 61.0076 226.9854 62.5237 225.8794 63.3112 225.5793 Z " fill="url(#color-44-,0,0,1,-165.70749,-1.10421)" stroke-width="2.5" stroke="none"/><path d="M 54.7554 218.0692 L 58.2464 218.2038 L 61.2026 219.8226 C 61.2026 219.8226 61.1537 220.8486 60.7894 221.0889 C 59.8196 221.7309 58.5411 222.8545 57.3616 222.5494 C 56.0977 222.2061 55.3801 220.6733 54.6627 219.5194 C 54.4419 219.0852 54.7554 218.0692 54.7554 218.0692 Z " fill="url(#color-45-,0,0,1,-165.70749,-1.10421)" stroke-width="2.5" stroke="none"/></g><path d="M 57.7646 225.1679 C 58.0897 225.4933 58.2911 225.9423 58.2911 226.4385 C 58.2911 226.9343 58.0897 227.3834 57.7646 227.7088 C 57.4392 228.0339 56.9901 228.2353 56.4943 228.2353 C 55.9981 228.2353 55.5491 228.0339 55.2237 227.7088 C 54.8986 227.3834 54.6974 226.9343 54.6974 226.4385 C 54.6974 225.9423 54.8986 225.4933 55.2237 225.1679 C 55.5491 224.8428 55.9981 224.6416 56.4943 224.6416 C 56.9901 224.6416 57.4392 224.8428 57.7646 225.1679 Z " fill="url(#color-46-,0,0,1,-165.70749,-1.10421)" stroke-width="2.5" stroke="none"/></g></g></g><g data-paper-data="{&quot;origRot&quot;:0}"><g data-paper-data="{&quot;origPos&quot;:null}"><path d="M 84.59 13.7292 C 92.6361 14.5129 101.4344 16.0001 107.6858 21.1148 C 112.5292 25.0739 114.6714 32.27 114.0237 38.3978 C 113.2404 51.8281 112.1634 66.9698 103.5715 77.3741 C 97.3037 84.951 84.7632 88.4537 75.3952 86.1924 C 66.4585 84.0339 60.259 74.6663 56.0437 66.4964 C 50.705 56.4087 48.348 44.5984 49.8539 33.4418 C 50.1855 26.3242 55.1049 19.1096 61.1796 15.5156 C 67.9568 11.5034 76.83 12.6096 84.5898 13.7293 Z " fill="#ffd499" stroke="none" stroke-linecap="butt" stroke-width="2.5"/><path d="M 107.7985 80.5713 C 107.7985 80.5713 54.2058 77.5335 47.4304 66.9858 C 37.8213 52.4542 38.7992 24.726 38.7992 24.726 C 38.7992 24.726 37.3793 0.0441 38.326 0 C 39.2421 -0.0427 69.3885 2.8942 69.3885 2.8942 C 69.3885 2.8942 89.249 4.7227 103.8075 15.0298 C 115.432 23.2598 123.1849 43.9193 126.4339 54.2532 C 129.6828 64.587 132.305 80.6978 132.305 80.6978 Z " data-paper-data="{&quot;origPos&quot;:null}" fill="#ffffff" stroke="#000000" stroke-linecap="round" stroke-width="2.5"/><g stroke-linecap="butt"><path d="M 40.6236 21.9385 L 80.7365 24.6534 L 79.9933 35.6349 L 40.9923 32.9652 Z " data-paper-data="{&quot;origPos&quot;:null}" stroke-width="2.5" fill="#ff0000" stroke="none"/><path d="M 41.2198 35.4009 L 64.7948 37.0066 L 64.5987 39.9044 L 41.5795 38.3214 Z " data-paper-data="{&quot;origPos&quot;:null}" stroke-width="2.5" fill="#ff0000" stroke="none"/></g><path d="M 124.9706 53.2349 L 125.9487 61.4217 L 81.7591 57.818 C 81.7591 57.818 60.3929 55.7283 59.7321 39.1666 C 59.2226 26.3966 79.7056 27.0352 79.7056 27.0352 L 112.8025 29.2753 Z " fill="#000000" stroke="#000000" stroke-linecap="round" stroke-width="2.5"/><path d="M 67.1347 29.402 C 71.5697 27.2169 81.2246 26.8683 81.9831 27.3426 C 82.6973 27.7924 74.5959 30.1797 70.9454 31.9582 C 68.3223 33.4967 64.2579 37.904 63.2322 37.2585 C 62.283 36.6579 64.6091 30.9042 67.1348 29.402 Z " fill="#ffffff" stroke="none" stroke-linecap="round" stroke-width="2.5"/></g><path d="M 57.3874 43.5018 L 46.3169 50.5989 L 45.0107 42.3383 Z " data-paper-data="{&quot;origPos&quot;:null}" fill="#000000" stroke="none" stroke-linecap="round" stroke-width="2.5"/></g><g data-paper-data="{&quot;origRot&quot;:0}"><path d="M 9.4169 163.0417 C 4.1246 157.0123 18.4845 146.4075 27.2399 144.2103 C 37.8518 141.6013 48.3117 149.2493 59.374 151.1214 C 71.232 153.1459 85.241 150.1255 94.9996 157.1721 C 101.3501 161.7723 106.1634 175.2918 99.8811 179.0473 C 88.536 186.5673 72.6565 182.3729 59.553 179.8507 C 42.2464 176.567 19.8836 175.3876 9.4169 163.0417 Z " data-paper-data="{&quot;origPos&quot;:null}" fill="#000000" stroke="#000000" stroke-linecap="round" stroke-width="2.5"/><path d="M 43.1027 82.3354 C 47.5596 79.4761 56.5711 84.6314 56.8476 90.3079 C 57.3755 102.459 47.9478 113.1366 44.3269 124.5662 C 39.6766 137.5615 41.2765 153.675 31.9454 163.6197 C 26.6353 169.2638 11.6365 169.7219 9.7221 162.699 C 5.087 147.5419 11.7802 130.7072 17.9815 116.3225 C 23.5161 103.3727 31.2152 89.8572 43.1027 82.3354 Z " data-paper-data="{&quot;origRot&quot;:0}" fill="#000000" stroke="#000000" stroke-linecap="round" stroke-width="2.5"/><g><g stroke-linecap="round"><path d="M 117.9423 148.6032 C 120.4476 146.6358 125.1009 147.4252 128.5918 147.3748 C 131.9661 147.3406 136.1041 146.5588 138.6583 148.1322 C 140.8881 149.5064 141.7696 152.8385 139.8497 154.4784 C 137.5144 156.471 132.976 156.2159 129.4266 156.4604 C 125.616 156.544 120.7813 157.3551 118.0976 155.4282 C 115.816 153.791 115.787 150.212 117.9423 148.6031 Z " stroke-width="2.5" fill="#363a36" stroke="none"/><path d="M 118.0051 156.7836 C 120.5104 154.8163 125.1637 155.6056 128.6546 155.5552 C 132.0289 155.5211 136.1669 154.7393 138.7212 156.3126 C 140.9509 157.6869 141.8325 161.0189 139.9125 162.6588 C 137.5773 164.6514 133.0388 164.3963 129.4895 164.6409 C 125.6788 164.7245 120.8442 165.5356 118.1605 163.6087 C 115.8788 161.9715 115.8499 158.3925 118.0051 156.7836 Z " stroke-width="2.5" fill="#363a36" stroke="none"/><path d="M 117.7304 165.8244 C 120.2356 163.857 124.8889 164.6464 128.3799 164.596 C 131.7542 164.5618 135.8922 163.78 138.4464 165.3534 C 140.6762 166.7276 141.5577 170.0597 139.6378 171.6996 C 137.3025 173.6922 132.7641 173.4371 129.2147 173.6816 C 125.4041 173.7652 120.5694 174.5763 117.8857 172.6494 C 115.604 171.0122 115.5751 167.4332 117.7303 165.8244 Z " stroke-width="2.5" fill="#363a36" stroke="none"/><path d="M 118.6802 174.8896 C 121.1854 172.9222 125.8387 173.7116 129.3296 173.6612 C 132.7039 173.627 136.8419 172.8452 139.3962 174.4186 C 141.626 175.7928 142.5075 179.1249 140.5875 180.7648 C 138.2523 182.7574 133.7138 182.5023 130.1645 182.7468 C 126.3538 182.8304 121.5192 183.6415 118.8355 181.7146 C 116.5538 180.0774 116.5249 176.4984 118.6801 174.8896 Z " stroke-width="2.5" fill="#363a36" stroke="none"/></g><g stroke-linecap="round"><path d="M 98.2635 158.9206 C 107.5193 153.7864 107.595 152.1248 108.3388 151.4524 C 111.3084 148.7633 114.5772 145.9311 118.4624 144.957 C 122.1362 144.041 128.8389 144.9241 129.6485 145.7919 C 130.3014 146.8151 124.525 148.3045 121.8874 149.3833 C 120.1676 150.0904 118.4393 150.798 116.6973 151.4532 C 114.8868 152.1343 113.0613 152.7937 111.222 153.3981 C 110.2296 153.7235 108.9608 154.7591 108.1996 154.2454 Z " fill="none" stroke="#353937" stroke-width="2.5"/><path d="M 88.6081 158.6222 C 91.2462 158.5101 93.9246 158.6941 96.5288 158.2268 C 98.4063 157.8906 100.2384 157.2533 102.0177 156.5598 C 105.707 155.122 109.0775 152.7613 112.9263 151.8362 C 117.5407 150.734 122.9333 149.2583 127.7739 150.6773 C 129.8338 151.363 129.4783 154.7881 130.1844 157.1043 C 131.0832 160.099 131.5466 163.2411 131.8996 166.3523 C 132.3707 170.4911 134.2798 175.1321 132.5307 178.9974 C 131.2414 181.7446 127.221 182.0763 124.2347 183.0333 C 122.4713 183.6006 120.5281 183.4022 118.6763 183.3108 C 116.7882 183.2155 114.8629 183.0498 113.0624 182.4765 C 111.2816 181.9107 109.8114 180.5854 108.0601 179.94 C 106.2435 179.27 104.3498 178.6711 102.4187 178.55 C 96.8626 178.2034 91.268 178.4798 85.702 178.5486 C 83.8476 178.5715 81.5497 179.8702 80.1437 178.8259 C 76.9898 168.6691 76.3145 163.8998 78.8946 159.3855 C 80.6389 156.7604 85.3732 158.898 88.6081 158.6221 Z " fill="#ffffff" stroke="#ffffff" stroke-width="2.5"/></g><path d="M 110.6209 154.4968 C 110.726 154.2797 110.8204 154.0845 110.8906 153.9395 C 110.959 153.7977 111.0018 153.7097 111.0018 153.7097 C 111.0018 153.7097 110.959 153.7978 110.8906 153.9395 C 110.8205 154.0845 110.726 154.2797 110.6209 154.4968 C 110.5157 154.714 110.4213 154.9092 110.3512 155.0542 C 110.2827 155.1959 110.2399 155.284 110.2399 155.284 C 110.2399 155.284 110.2827 155.1959 110.3512 155.0542 C 110.4212 154.9092 110.5157 154.714 110.6209 154.4968 Z " fill="#eac18d" stroke="none" stroke-linecap="butt" stroke-width="2.5"/><path d="M 109.9705 174.5077 C 107.0264 170.6003 105.0787 165.0585 106.0833 160.2627 C 106.6976 157.6485 110.961 157.63 113.6208 156.9988 C 116.848 156.2369 120.536 155.2174 123.8807 156.198 C 125.3041 156.6717 125.0584 159.0384 125.5465 160.639 C 126.1676 162.7085 126.4876 164.8794 126.7316 167.0293 C 127.0572 169.8893 128.6724 173.2797 127.1678 175.767 C 125.8646 177.8555 122.0921 177.757 119.1642 177.4178 C 116.0146 177.3403 112.0326 177.2078 109.9705 174.5077 Z " fill="#000000" stroke="#000000" stroke-linecap="round" stroke-width="2.5"/></g><path d="M 24.1135 172.8039 C 17.9094 170.5169 9.8132 164.788 9.1761 157.6249 C 9.2369 151.9559 17.1123 146.8697 22.9286 146.3948 C 34.2563 145.4779 44.6237 153.8743 56.0209 154.8078 C 67.6437 156.3804 79.8925 150.7184 91.3008 153.8373 C 96.7989 155.3522 99.6643 162.6189 100.5621 168.2556 C 101.2617 172.6748 99.9069 179.7705 95.5907 181.9953 C 89.8066 184.9759 82.2716 183.5353 75.7362 182.5413 C 58.5892 179.9408 40.5297 178.8419 24.1136 172.804 Z " fill="#ffffff" stroke="none" stroke-linecap="round" stroke-width="2.5"/><path d="M 41.1095 83.3642 C 45.4723 80.2583 56.8535 81.4351 56.8554 86.6688 C 56.8521 98.4754 45.027 107.2782 41.3929 118.6906 C 36.53 132.2003 39.7567 149.1137 31.5108 161.001 C 27.5065 166.7707 12.0446 170.8632 10.4353 164.2378 C 6.5736 146.8095 14.1908 128.247 20.3811 112.0735 C 24.5975 101.0613 31.6081 90.1303 41.1095 83.3642 Z " data-paper-data="{&quot;origRot&quot;:0}" fill="#ffffff" stroke="none" stroke-linecap="round" stroke-width="2.5"/></g><path d="M 34.3687 126.8585 C 34.3687 126.8585 35.0776 111.2284 34.507 103.9533 C 33.8089 95.0526 39.2199 84.3972 39.2199 84.3972 C 39.2199 84.3972 50.9765 83.3661 57.9811 85.8271 C 62.7119 87.4893 69.2904 94.9625 69.2904 94.9625 L 69.2904 125.033 Z " data-paper-data="{&quot;origPos&quot;:null}" fill="#ffffff" stroke="none" stroke-linecap="butt" stroke-width="2.5"/></g></g></g></svg>