<svg version="1.1" xmlns="http://www.w3.org/2000/svg" xmlns:xlink="http://www.w3.org/1999/xlink" width="378.87009" height="332.42383" viewBox="0,0,378.87009,332.42383"><defs><radialGradient cx="401.80753" cy="234.26222" r="156.4457" gradientUnits="userSpaceOnUse" id="color-1"><stop offset="0" stop-color="#009933"/><stop offset="1" stop-color="#006622"/></radialGradient><radialGradient cx="428.24164" cy="224.8673" r="101.4797" gradientUnits="userSpaceOnUse" id="color-2"><stop offset="0" stop-color="#009933"/><stop offset="1" stop-color="#006622"/></radialGradient><linearGradient x1="392.0141" y1="255.4203" x2="395.34208" y2="293.5233" gradientUnits="userSpaceOnUse" id="color-3"><stop offset="0" stop-color="#ffffff"/><stop offset="1" stop-color="#ffffff"/></linearGradient><linearGradient x1="373.16662" y1="308.2561" x2="338.7371" y2="291.59706" gradientUnits="userSpaceOnUse" id="color-4"><stop offset="0" stop-color="#ffffff"/><stop offset="1" stop-color="#ffffff"/></linearGradient><linearGradient x1="336.95174" y1="265.25244" x2="368.47899" y2="243.59719" gradientUnits="userSpaceOnUse" id="color-5"><stop offset="0" stop-color="#ffffff"/><stop offset="1" stop-color="#ffffff"/></linearGradient></defs><g transform="translate(-181.30073,-99.97224)"><g data-paper-data="{&quot;isPaintingLayer&quot;:true}" fill-rule="nonzero" stroke-miterlimit="10" stroke-dasharray="" stroke-dashoffset="0" style="mix-blend-mode: normal"><path d="M430.33541,242.2897c-0.13634,-1.37686 -0.41014,-2.76626 -0.74513,-4.15324c-0.10477,0.36349 -0.26236,0.68326 -0.5872,0.76319l-0.75283,1.50567c-0.40086,0.84561 -1.26228,1.43041 -2.26029,1.43041c-1.38071,0 -2.5,-1.11929 -2.5,-2.5c0,-0.17176 0.01732,-0.33947 0.05031,-0.50149l0.2198,-1.19383c0.83046,-4.51055 1.59973,-9.0374 2.49218,-13.53602c0.1231,-0.62054 0.75788,-4.71041 1.68582,-5.32233l1.02182,-2.21971c0.38444,-0.88606 1.2671,-1.50582 2.29451,-1.50582c0.55478,0 1.06735,0.18071 1.48207,0.48647c5.29,-6.45222 10.65057,-12.80863 16.27924,-19.00248c3.20118,-3.52262 6.23498,-7.64902 10.06841,-10.47647c0.41032,-0.283 0.82154,-1.13329 1.23096,-0.849c1.64344,1.14117 2.98735,2.75088 3.99627,4.47868c0.78883,1.35089 0.18429,5.89722 0.23426,7.49634c0.17399,5.56777 -0.1892,11.47189 0.88955,16.93679c0.64548,3.26995 1.24747,6.54919 1.87112,9.82339c0.08946,0.46969 0.19237,0.93988 0.31515,1.40478c0.57644,-0.76227 1.26337,-1.51413 1.71189,-2.17195c6.44525,-9.45303 13.03362,-18.79708 19.64187,-28.13674c1.79844,-2.5418 3.69629,-5.01188 5.56444,-7.50274c0.5,-0.66667 0.66928,-2.06594 1.5,-2c5.1965,0.41249 5.84735,3.43771 7.70868,6.96909c1.78921,3.39455 3.3516,8.14559 5.82847,11.05798c0.85165,1.0014 2.23612,1.38963 3.28553,2.18138c1.94345,1.46626 3.88689,2.93253 5.83034,4.39879c-0.08269,-0.79545 1.0015,-1.30942 1.48472,-1.96836c2.37034,-3.23228 4.70798,-6.4891 7.16827,-9.65362c0,0 2.51296,-3.23095 2.71969,-3.49675c0.39495,-0.50779 0.54629,-1.60136 1.18484,-1.52337c1.95151,0.23835 3.61225,1.55323 5.41837,2.32985c1.325,2.12 2.64999,4.23999 3.97499,6.35999c0.24,0.38399 0.47999,0.76799 0.71999,1.15198c0.84854,-0.93808 2.89327,-2.54624 3.3022,-3.08124c0.21454,-0.28068 2.32586,-3.78141 2.46114,-3.77924c1.98033,0.0319 3.84764,1.13487 5.52287,2.19143c1.33515,0.84207 1.66568,2.68184 2.49852,4.02276c3.4803,5.60348 3.10989,13.65513 3.10989,20.04274c0,8.31476 0.14149,16.59743 0.42547,24.90732c0.10283,3.00905 -0.5919,7.36769 0.35013,10.24532c0.15899,0.48566 1.1278,0.51884 1.13569,1.0298c0.06782,4.38954 -2.3675,8.08291 -3.39576,12.2047c-4.44397,17.14104 -9.51778,34.06513 -11.8091,51.63193c-0.07217,0.55332 -0.13947,1.10687 -0.20232,1.66063c0.18261,0.34719 0.28595,0.74259 0.28595,1.16212v4.66233l-0.02689,0c-0.08689,4.13402 -0.36847,8.27685 -0.62223,12.3989c-0.06129,0.99556 -0.07744,1.99612 -0.20607,2.98524c-0.06414,0.49324 0.09408,1.26689 -0.37012,1.44554l-0.357,1.39432c-0.25752,1.10663 -1.24997,1.93112 -2.43499,1.93112c-1.38071,0 -2.5,-1.11929 -2.5,-2.5c0,-0.03587 0.00076,-0.07157 0.00225,-0.10707l0.09199,-2.48374c0.11273,-3.04363 0.19506,-6.0848 0.31418,-9.12199c-2.62668,4.32905 -5.06981,8.62435 -7.19407,13.29773l-0.88469,1.94631c-0.38183,0.89206 -1.26761,1.51707 -2.29936,1.51707c-1.17867,0 -2.16682,-0.81567 -2.43078,-1.91334l-0.62479,-2.36527c-1.0025,-0.87828 -1.56194,-5.91304 -1.91543,-7.25128c-1.48978,-5.63989 -2.97956,-11.27977 -4.46934,-16.91966c-0.8513,-3.22279 -1.70261,-6.44559 -2.55391,-9.66838c-0.19577,-0.74115 -0.39155,-1.4823 -0.58732,-2.22344c-0.47332,0.49816 -1.64428,0.1576 -2.25003,0.61031c-0.29954,0.22386 -0.11327,0.73928 -0.1699,1.10892c-5.80494,8.32453 -12.21396,16.45299 -17.02706,25.3916c-1.34854,2.50442 -2.48103,4.57564 -4.35537,6.74602c-0.54467,0.6307 -0.82648,1.79613 -1.6563,1.87261c-6.70192,0.61766 -7.06964,-5.97222 -8.42073,-10.60452c-2.28358,-7.82942 -4.91779,-15.19749 -8.05477,-22.72624c-0.79495,-1.90788 -1.55022,-3.84233 -2.36711,-5.74388c-0.63589,0.64542 -1.47804,1.25971 -1.94743,1.93027c-1.76046,2.51494 -2.46939,5.41535 -3.50228,8.30744c-2.55051,7.14142 -7.31739,13.46191 -10.71865,20.23695l-0.83988,1.67977c-0.40086,0.84561 -1.26228,1.43041 -2.26029,1.43041c-1.38071,0 -2.5,-1.11929 -2.5,-2.5c0,-0.08694 0.00444,-0.17284 0.0131,-0.25749l0.22351,-2.45858c-0.56681,-0.83883 0.59981,-4.89595 0.55072,-6.05787c-0.23181,-5.48638 -1.31366,-11.12594 -2.21065,-16.65501c-1.9236,2.36402 -4.05822,4.56612 -5.66344,7.15426l-1.45586,2.42643c-0.43183,0.74893 -1.24069,1.25305 -2.16731,1.25305c-1.18975,0 -2.18539,-0.83109 -2.43804,-1.9444l-0.37584,-1.50338c-0.43569,-0.30872 -0.25902,-1.03607 -0.38853,-1.55411c0,0 0,0 0,0c-0.40423,-1.6169 -0.80845,-3.23381 -1.21268,-4.85071c-1.19809,-4.79235 -2.04477,-9.87889 -3.63803,-14.55214c-1.01389,-2.97386 -2.61099,-5.88482 -3.87128,-8.76736c-0.29679,-0.67881 -0.59358,-1.35763 -0.89037,-2.03644c-0.09037,0.29904 0.29147,0.66534 0.2205,0.99073c-0.29723,1.36282 -1.03607,2.59018 -1.55411,3.88527l0,0l-0.60401,1.51001c-0.35452,0.94948 -1.26971,1.62559 -2.34282,1.62559c-1.38071,0 -2.5,-1.11929 -2.5,-2.5c0,-0.18573 0.02025,-0.36673 0.05867,-0.54091l0.3784,-1.89202c-0.39734,-0.52746 0.24483,-1.29809 0.38853,-1.94264c0.73209,-3.28372 1.57823,-6.54668 2.36765,-9.81713c2.59665,-10.75756 4.05875,-21.80436 6.64399,-32.53978l-0.02421,-0.00631l0.34461,-1.32258c-0.00343,-0.35819 0.02796,-0.69254 0.23211,-0.89081l0.34098,-1.30862l0,-1.01026c-0.51569,-0.51835 -0.06322,-1.4133 0,-2.18509c0.00883,-0.10783 0.01007,-0.21325 0,-0.31491zM432.2544,228.65603l0.67162,2.35067c0.4269,0.24196 0.67637,0.63141 0.84292,1.09261c0.16063,0.03362 0.3156,0.08265 0.46328,0.14548c-0.9239,-2.43385 -1.84575,-4.86859 -2.77963,-7.29861c-0.08906,0.07343 -0.19295,0.15127 -0.31008,0.22625c-0.10142,0.60803 -0.20569,1.2157 -0.31222,1.82306c0.6969,0.30263 1.22895,0.91349 1.4241,1.66054z" fill="#654d2f" stroke="none" stroke-width="0.5" stroke-linecap="butt" stroke-linejoin="miter"/><g stroke-linejoin="miter"><path d="M266.65842,121.25285c17.4518,-2.39109 34.18325,2.14179 47.11626,11.39718c12.93394,9.25527 22.07019,23.23185 24.33029,39.72761c2.26009,16.49575 -2.78013,32.41482 -12.74801,44.80789c-9.96698,12.39278 -24.86261,21.25891 -42.31441,23.65c-17.45164,2.39107 -34.18325,-2.14178 -47.11624,-11.39702c-12.93393,-9.25527 -22.07021,-23.23201 -24.33031,-39.72776c-2.2601,-16.49575 2.78015,-32.41467 12.74802,-44.80775c9.96696,-12.39294 24.86275,-21.25909 42.31439,-23.65015z" data-paper-data="{&quot;origRot&quot;:0}" id="ID0.6853013150393963" fill="#ffffff" stroke="#000000" stroke-width="4.90582" stroke-linecap="butt"/><path d="M299.78425,137.11963c11.40712,0.42114 26.31552,16.10922 27.65042,20.09361c1.08851,3.30846 -14.17145,-3.63237 -21.04931,-2.96573c-7.2708,0.5447 -13.5491,5.79355 -20.33141,6.50814c-5.83366,0.61849 -11.59513,-3.9457 -17.37137,-2.93776c-5.06363,0.88907 -7.93309,6.46579 -12.73749,7.59489c-4.90114,1.15108 -10.73652,-2.90218 -15.44786,-0.54239c-3.25272,1.26166 -2.71932,6.55293 -4.48513,9.60647c-2.93968,5.12114 -10.74851,8.29402 -9.83876,13.57916c2.09913,12.35724 9.82174,23.0565 17.70296,32.52743c6.26898,7.52778 25.74336,17.02874 24.73026,17.83478c-1.45855,0.46273 -25.84642,-4.67638 -34.622,-12.75714c-10.10913,-9.31727 -17.57585,-22.7077 -19.26508,-36.51925c-1.65136,-13.49187 -0.85844,-31.57208 10.42772,-38.67993c21.3451,-13.43544 49.40623,-15.33964 74.63706,-13.34226z" data-paper-data="{&quot;origRot&quot;:0}" id="ID0.4079975080676377" fill="#e5e5e5" stroke="none" stroke-width="0.61935" stroke-linecap="round"/><path d="M266.11787,120.15606c17.4518,-2.39109 34.18325,2.14179 47.11626,11.39719c12.93394,9.25527 22.07019,23.23185 24.33029,39.72761c2.26009,16.49575 -2.78014,32.41482 -12.74801,44.80789c-9.96698,12.39278 -24.86261,21.25891 -42.31441,23.65c-17.45164,2.39107 -34.18325,-2.14178 -47.11623,-11.39702c-12.93393,-9.25527 -22.07021,-23.23201 -24.33031,-39.72776c-2.2601,-16.49575 2.78016,-32.41468 12.74803,-44.80776c9.96696,-12.39294 24.86275,-21.25909 42.31439,-23.65015z" data-paper-data="{&quot;origRot&quot;:0}" id="ID0.6853013150393963" fill="none" stroke="#000000" stroke-width="4.90582" stroke-linecap="butt"/><path d="M224.76094,125.39341c1.94478,-1.64135 3.54599,-3.86131 5.7277,-5.03914c3.1729,-1.70423 6.66401,-2.78578 9.95308,-4.26425c3.92347,-1.76351 7.71489,-3.86191 11.70354,-5.47106c3.27891,-1.32239 6.7254,-2.21126 10.08309,-3.31526c3.35769,-1.10401 6.60822,-2.67572 10.0831,-3.31526c3.43286,-0.63176 6.99433,-0.7794 10.47319,-0.46814c3.68646,0.33043 7.42484,0.99204 10.86329,2.37915c6.76319,2.72829 12.97954,6.72936 19.55582,9.89024c3.33071,1.60123 6.99118,2.53844 10.18309,4.40612c3.09717,1.81198 6.53997,3.58065 8.56249,6.56193c2.17494,3.20503 3.50345,7.25212 3.44106,11.13117c-0.07313,4.64033 1.03553,14.06066 -3.73826,15.01539c-7.07503,1.19759 -12.90281,-7.4978 -19.919,-9.74368c-3.53967,-1.14719 -7.2547,0.81601 -10.88479,0.95961c-3.54393,-0.02509 -7.07577,-0.89858 -10.51068,-0.1554c-3.566,0.38804 -6.59481,3.00374 -10.16415,3.42316c-3.57763,0.42055 -7.14523,-1.76221 -10.73327,-1.43016c-3.8282,0.35434 -7.41273,2.117 -11.02335,3.44409c-3.3835,1.24382 -6.40885,3.61241 -9.95305,4.26442c-3.4749,0.63939 -7.09583,-0.88429 -10.60323,-0.48102c-2.29611,0.23809 -3.27269,1.37462 -4.48827,2.54871c-2.69139,2.42242 -4.40201,5.19285 -7.1733,7.0742c-5.04563,3.42469 -10.27209,9.70323 -15.33417,8.33735c-4.08666,-0.90989 -2.63724,-8.41129 -2.96328,-12.88874c-0.26462,-3.55278 0.09686,-7.15169 0.45016,-10.69735c0.29991,-3.07625 0.42947,-6.04578 1.99125,-8.53979c1.07572,-2.42632 3.57516,-3.8294 5.56212,-5.54803c2.98985,-2.62879 5.71104,-5.5116 8.85585,-8.07826z" data-paper-data="{&quot;origRot&quot;:0}" id="ID0.6779168676584959" fill="#1f0f03" stroke="#0d0601" stroke-width="6.78139" stroke-linecap="round"/><path d="" data-paper-data="{&quot;origRot&quot;:0}" id="ID0.2091269358061254" fill="#ffffff" stroke="none" stroke-width="1" stroke-linecap="butt"/></g><path d="M225.22929,430.64607l-5.0057,-2.6162l24.58323,-90.72208" data-paper-data="{&quot;origRot&quot;:0,&quot;index&quot;:null}" id="ID0.6604248438961804" fill="none" stroke="#000000" stroke-width="3.5" stroke-linecap="round" stroke-linejoin="miter"/><path d="M257.7314,239.06471l7.15026,-0.24321l-16.67602,106.24329l-14.31121,-3.46854z" data-paper-data="{&quot;origRot&quot;:0}" id="ID0.345300517976284" fill="#000000" stroke="none" stroke-width="0.33954" stroke-linecap="round" stroke-linejoin="miter"/><g><path d="M428.10887,213.7769l9.0967,115.64707l-165.03122,-4.65861l-7.04759,-80.69284z" id="ID0.6427145460620522" fill="url(#color-1)" stroke="#006622" stroke-width="3" stroke-linecap="round" stroke-linejoin="miter"/><path d="M433.52772,207.24635l11.05003,126.5184l-11.9545,1.04406l-11.05002,-126.51829z" id="ID0.4101495463401079" fill="url(#color-2)" stroke="#006622" stroke-width="3" stroke-linecap="butt" stroke-linejoin="miter"/><g id="ID0.49767216527834535" stroke-width="1.58268" stroke-linecap="round"><path d="M389.12593,261.7626l3.25771,3.95199l1.74205,13.88141l-2.53368,7.37038l-4.47763,3.3037l1.39537,3.84995l-10.79915,-5.4117l-0.24447,-11.8939l2.35471,2.70696l6.72778,-4.82412l-13.01619,-6.54189l5.34276,-11.58753l9.6792,4.71508z" id="ID0.37119657220318913" fill="#ffffff" stroke="url(#color-3)" stroke-linejoin="round"/><path d="M369.19888,302.52681l-5.06286,0.7737l-12.8143,-5.61431l-5.03234,-5.95137l-0.5439,-5.5378l-4.02122,-0.77356l10.17944,-6.50295l10.34034,5.8824l-3.53105,0.6357l0.69705,8.24928l12.28579,-7.82813l7.21529,10.52408l-9.00749,5.89793z" id="ID0.37119657220318913" fill="#ffffff" stroke="url(#color-4)" stroke-linejoin="round"/><path d="M343.89416,264.64405l1.83607,-4.78122l11.22499,-8.35025l7.66269,-1.42317l5.07998,2.27085l2.66404,-3.10985l0.60623,12.06399l-10.23231,6.06827l1.19694,-3.38216l-7.51126,-3.48107l0.71394,14.55023l-12.71642,1.0542l-0.66111,-10.74628z" id="ID0.37119657220318913" fill="#ffffff" stroke="url(#color-5)" stroke-linejoin="round"/><path d="M386.90889,260.63231c0,0 4.81573,2.96914 5.76051,5.32206c1.49244,3.72382 1.93729,7.93854 1.84408,12.01898c-0.01983,2.871 -0.91952,5.67313 -2.20201,8.13592c-0.66845,1.37481 -3.73514,2.7092 -3.73514,2.7092" id="ID0.05048625357449055" fill="none" stroke="#ffffff" stroke-linejoin="miter"/><path d="M369.41503,301.6725c0,0 -5.18003,2.27469 -7.653,1.71469c-3.91216,-0.88864 -7.63263,-2.9181 -10.93703,-5.31407c-2.3508,-1.64807 -4.14495,-3.981 -5.44225,-6.436c-0.7513,-1.33139 -0.10619,-4.61302 -0.10619,-4.61302" id="ID0.05048625357449055" fill="none" stroke="#ffffff" stroke-linejoin="miter"/><path d="M343.71223,267.56459c0,0 -0.05823,-5.65721 1.42784,-7.71169c2.35329,-3.24897 5.68048,-5.87395 9.18144,-7.97227c2.43878,-1.51497 5.28879,-2.24913 8.05592,-2.47833c1.51957,-0.16821 4.28429,1.71358 4.28429,1.71358" id="ID0.05048625357449055" fill="none" stroke="#ffffff" stroke-linejoin="miter"/></g></g><path d="M271.66772,300.58092c0,0 -35.77532,-15.18893 -42.35441,-28.19089c-5.94878,-11.7563 25.54612,-30.4867 25.54612,-30.4867" data-paper-data="{&quot;origRot&quot;:0}" id="ID0.26897449884563684" fill="none" stroke="#000000" stroke-width="3.5" stroke-linecap="round" stroke-linejoin="miter"/><path d="M187.60553,416.0608l-4.01007,-3.97754l56.15012,-77.77046" data-paper-data="{&quot;origRot&quot;:0,&quot;index&quot;:null}" id="ID0.6604248438961804" fill="none" stroke="#000000" stroke-width="3.5" stroke-linecap="round" stroke-linejoin="miter"/><path d="M291.13346,309.8067l16.48744,25.02261" data-paper-data="{&quot;origRot&quot;:0}" id="ID0.26897449884563684" fill="none" stroke="#000000" stroke-width="3.5" stroke-linecap="round" stroke-linejoin="miter"/><path d="M260.875,177.09495l18.25,14.25l-14.25,1" data-paper-data="{&quot;index&quot;:null}" fill="none" stroke="#000000" stroke-width="2" stroke-linecap="round" stroke-linejoin="miter"/><path d="M307.375,189.84495l-14.25,-1l18.25,-14.25" data-paper-data="{&quot;index&quot;:null}" fill="none" stroke="#000000" stroke-width="2" stroke-linecap="round" stroke-linejoin="miter"/><path d="M278.875,214.59495l-24.75,1.25c0,0 -7.08601,-15.49871 2.25,-20c9.33601,-4.50129 25.75,6.5 25.75,6.5" fill="none" stroke="#000000" stroke-width="2" stroke-linecap="round" stroke-linejoin="miter"/><path d="M269.875,207.34495l-18.25,-1.75" fill="none" stroke="#000000" stroke-width="2" stroke-linecap="round" stroke-linejoin="miter"/><path d="M282.875,177.34495v-8" fill="none" stroke="#000000" stroke-width="2" stroke-linecap="round" stroke-linejoin="miter"/><path d="M285.625,174.84495v-5.75" fill="none" stroke="#000000" stroke-width="2" stroke-linecap="round" stroke-linejoin="miter"/><path d="M472.20712,240.08027c-0.79057,2.37171 -3.16228,1.58114 -3.16228,1.58114l1.58114,1c-3.4029,1.1343 -5.89244,3.68775 -9.5409,5.02101c-1.52692,0.55798 -3.36218,1.95445 -4.74967,1.10728c-1.44456,-0.88201 -2.90718,-1.89287 -3.87467,-3.28163c-0.03625,-0.05204 0.89108,-2.59866 0.94264,-2.80576c0.6898,-2.77099 1.1552,-5.4878 2.06032,-8.20318c0,0 0.79057,-2.37171 3.16228,-1.58114c2.37171,0.79057 1.58114,3.16228 1.58114,3.16228c-0.83856,2.51568 -1.24964,4.99869 -1.89096,7.56319c1.12019,-0.38902 2.13866,-1.06354 3.23316,-1.53191c2.77471,-1.18739 4.4475,-3.17756 7.49552,-4.19356l1.58114,-1c0,0 2.37171,0.79057 1.58114,3.16228z" fill="#4d3a24" stroke="none" stroke-width="0.5" stroke-linecap="butt" stroke-linejoin="miter"/><path d="M475.24732,233.94749c-0.65779,2.41191 -3.0697,1.75412 -3.0697,1.75412l-1.72896,-0.33178c-0.62073,-0.41382 -2.93513,-1.94146 -3.38102,-2.31236c-0.76311,-0.63476 -0.97772,-1.84826 -1.83857,-2.34241c-0.23994,-0.13773 -0.58273,-0.13783 -0.91799,-0.13218c-0.08962,0.66032 -0.50939,2.20683 -2.47568,2.20683c-2.5,0 -2.5,-2.5 -2.5,-2.5c0,-1 -0.83046,-2.44292 0,-3c6.47545,-4.34377 9.00855,0.66774 13.88675,3.91987l0.27104,-0.33178c0,0 2.41191,0.65779 1.75412,3.0697z" fill="#4d3a24" stroke="none" stroke-width="0.5" stroke-linecap="butt" stroke-linejoin="miter"/><path d="M510.48167,280.17114c-1.88144,1.64626 -3.5277,-0.23518 -3.5277,-0.23518l0.09087,-1.27455c-0.5,-0.16667 -1.0692,-0.19638 -1.5,-0.5c-0.13801,-0.09727 0.24999,-0.5 0.08114,-0.5c-0.52705,0 -0.98505,0.61229 -1.5,0.5c-1.67505,-0.36526 -3.38859,-0.88497 -4.79057,-1.87171c-0.40888,-0.28778 0,-1 0,-1.5c0,-0.03229 0,-0.06458 0,-0.09688l-2.57565,-2.06052l2.04578,-2.55722c-1.74686,-0.70475 -3.69238,-1.94643 -4.95493,-2.48752c0,0 -1.14928,-0.49255 -1.47393,-1.59376c-1.16295,2.45136 -2.16749,4.96201 -2.93399,7.50915c-0.54364,1.80657 0.56397,6.56464 1.76442,7.99619c0.12655,0.15091 0.3293,-0.35504 0.51504,-0.28956c0.84579,0.2982 1.52993,1.0069 2.40382,1.20842c5.08305,1.69435 10.81124,1.8833 15.41099,-0.92255c1.07815,-0.65767 2.84247,-1.52819 3.43496,-2.8723c0.61017,-1.38422 0.36349,-3.75938 0.36349,-5.33344l0.00518,-0.00597c-0.17418,-0.12749 -0.27295,-0.22626 -0.27295,-0.22626l0.4519,0.01992l3.08363,-3.55546c0,0 1.76777,1.76777 0,3.53553c-0.05273,0.05273 -0.10546,0.10231 -0.15814,0.14889l1.89038,0.08334c0,3.05336 -0.26324,5.84552 -1.63651,8.66656c-0.83862,1.72273 -3.08803,2.97653 -4.63521,3.85377c-5.96115,3.37991 -13.02622,3.51559 -19.51884,1.35138c-6.06052,-2.28864 -9.59659,-9.00723 -7.74453,-15.51542c1.97334,-6.93434 5.9805,-13.78133 9.95497,-19.74304c0,0 1.38675,-2.08013 3.46688,-0.69338c2.08013,1.38675 0.69338,3.46688 0.69338,3.46688c-1.74561,2.61841 -3.44904,5.37296 -4.97608,8.2252c0.93705,-0.31426 1.88076,0.09019 1.88076,0.09019c1.60477,0.68776 5.17022,3.11578 7,3c0.21174,-0.0134 -0.43489,-0.43396 -0.27537,-0.57385c0.39627,-0.34748 1.09615,-0.16135 1.5,-0.5c0.15091,-0.12655 -0.35504,-0.3293 -0.28956,-0.51504c0.19981,-0.56673 0.64206,-1.01731 1,-1.5c0.19951,-0.26905 2.97238,-3.73052 3.25143,-4.07933l1.82665,-2.82431c0,0 2.29039,-1.00205 3.29244,1.28835c1.00205,2.29039 -1.28835,3.29244 -1.28835,3.29244l0.0736,1.367c-2.4404,3.0505 -4.26341,6.58975 -7.5979,8.00759c0.01468,0.10959 0.02225,0.22142 0.02225,0.33502c0,0.96623 0,1.93247 0,2.8987c1.543,0.0475 3.5189,0.47237 4.29057,0.72959l2.09087,2.72545c0,0 1.64626,1.88144 -0.23518,3.5277z" fill="#4d3a24" stroke="none" stroke-width="0.5" stroke-linecap="butt" stroke-linejoin="miter"/><path d="M535.04473,297.02873c0.36223,0.42809 1.10203,1.36884 1.46581,2.30681c0.97613,-1.59508 1.99257,-3.17226 3.10726,-4.73238c-1.55189,-0.16784 -3.09471,-0.42936 -4.63789,-0.70206c0.5541,0.90195 0.28085,1.99494 0.28085,1.99494c-0.09002,0.36007 -0.15918,0.74748 -0.21603,1.13269zM534.83541,301.7897h-1.5c-1.30845,-1.03545 -2.99582,-1.72064 -3.92536,-3.10634c-0.76563,-1.14136 0.66667,-2.66667 1,-4c0,0 0.2112,-0.84482 0.88292,-1.41259c-1.80356,-0.27738 -3.61778,-0.48107 -5.45756,-0.48107c0,0 -0.85499,0 -1.56496,-0.5h-3.93504c0,-1.79787 0.0298,-2.57304 -0.42536,-4.39366c-0.83992,-3.8095 -1.15369,-5.64241 1.92536,-9.10634c0.33218,-0.3737 1.00011,-0.01035 1.5,0c2.10871,0.04365 3.77595,0.62006 5.81228,1.01958c5.09096,0.99883 10.22771,1.28848 15.29406,2.55506c3.66768,0.91692 5.8174,0.68313 7.16143,5.69312c0.18322,0.68296 -0.99744,1.00257 -1.5,1.5c-1.44979,1.43501 -2.69382,3.03166 -3.92608,4.64811c-0.19816,0.58834 -0.53709,0.96103 -0.91074,1.19518c-0.12852,0.1679 -0.25744,0.33564 -0.38695,0.50306c-1.40391,1.81473 -3.11308,3.61207 -4.3431,5.54534c-3.40038,5.3445 -6.41259,18.33058 -15.10621,13.52205c-1.01175,-0.55961 -0.63036,-2.22483 -0.94553,-3.33725c-1.39078,-4.90875 -2.10113,-9.85663 -3.1006,-14.85395c0,0 -0.49029,-2.45145 1.96116,-2.94174c2.45145,-0.49029 2.94174,1.96116 2.94174,1.96116c0.80142,4.00711 1.19665,8.14845 2.32684,12.06623c0,0 0.57189,2.01847 0.91434,3.22714c0.20883,-0.01779 0.40101,-0.05914 0.5168,-0.17478c0.25931,-0.25898 -0.05797,-0.76315 0.09719,-1.09517c0.35282,-0.75496 0.95375,-1.36812 1.38675,-2.08013c1.17799,-1.93703 2.27494,-3.84765 3.38302,-5.73322c-0.75348,0.29747 -0.07639,-0.21978 -0.07639,-0.21978zM525.83541,287.7897c5.77278,0 11.32827,2 17,2l0.24235,0.1776c0.57377,-0.75988 1.1607,-1.50683 1.78029,-2.20732c0.03335,-0.03771 0.06694,-0.0752 0.10074,-0.11249c-0.57657,-0.14414 -1.15314,-0.28829 -1.72972,-0.43243c-4.3447,-1.08617 -8.7014,-1.68897 -13.13781,-2.24751c-1.92893,-0.24285 -3.74775,-0.91131 -5.65015,-1.2197c0.17882,0.68619 -0.00825,1.86111 0.31966,2.93552c0.10614,0.42455 0.19337,0.83726 0.26487,1.24387c0.44816,-0.13753 0.80977,-0.13753 0.80977,-0.13753z" fill="#4d3a24" stroke="none" stroke-width="0.5" stroke-linecap="butt" stroke-linejoin="miter"/><path d="M455.98286,269.00318c-0.27521,0.58555 -0.48918,1.16813 -0.70254,1.80721c0.05509,0.28281 0.05509,0.47931 0.05509,0.47931c0,6 0,12 0,18c0,2.06734 0,4.13467 0,6.20201c0.73438,0.11353 1.3625,0.82921 0.41987,-0.08876c1.24688,-1.87033 0.58013,-4.41551 0.58013,-7.11325c0,-4.83333 0,-9.66667 0,-14.5c0,-1.82 -0.04027,-3.25039 -0.35255,-4.78652zM450.33541,275.30323c-1.71837,-1.16697 -0.73607,-3.13156 -0.73607,-3.13156l0.28322,-0.92912c0.921,-2.76301 1.69459,-5.10851 3.45285,-7.45285c1.95724,-0.43019 3.86883,-1.3564 5.87171,-1.29057c0.52676,0.01731 0.33333,1 0.5,1.5c0.75086,2.25259 1.62829,4.39042 1.62829,6.79057c0,5.83333 0,11.66667 0,17.5c0,3.387 0.5289,6.96359 -1.41987,9.88675c-3.26237,3.34785 -4.77772,4.33472 -9.58013,1.11325c-0.41523,-0.27854 0,-1 0,-1.5c0,-1.83333 0,-3.66667 0,-5.5c0,-5.66216 0,-11.32431 0,-16.98647z" fill="#4d3a24" stroke="none" stroke-width="0.5" stroke-linecap="butt" stroke-linejoin="miter"/><path d="M524.79652,247.40154c0.0718,-0.43406 0.20194,-0.94404 0.33703,-1.41324c0.52947,-0.08551 1.7912,-0.36776 1.93409,-0.46637c0.2834,-0.19559 0.52792,-0.43782 0.76196,-0.69263c-1.73276,-0.09953 -3.55966,-1.07511 -4.63819,-2.19664c-0.2325,-0.24177 -0.52088,-3.81533 -0.65387,-4.35817c-0.29837,-1.21788 -2.18192,-3.61502 -2.0152,-4.70214c0.08371,-0.54584 1.51777,-0.2379 1.45787,-0.78686c-0.10145,-0.92973 -1.87391,0.03134 -2.80184,0.14819c-2.61778,0.32965 -5.01134,0.8842 -7.49849,1.70979c-0.26379,0.09465 -0.54811,0.14622 -0.84448,0.14622c-0.03207,0 -0.064,-0.0006 -0.09578,-0.0018c-0.74132,-0.00022 -1.75369,-0.27214 -2.24213,-1.61075c-0.02393,-0.063 -0.04538,-0.12722 -0.06424,-0.19254c-0.25575,-0.84391 -0.10614,-1.48162 0.18553,-1.95075l1.42605,-4.27815l4.74342,1.58114l-0.09754,0.29262c1.20075,-0.26268 2.41722,-0.47271 3.66566,-0.62775c1.10508,-0.13724 2.44326,-0.87582 3.33422,-0.20782c3.68749,2.76469 5.247,7.24243 6.02179,11.55079c0.01339,0.07446 0.0326,0.15086 0.05601,0.2287c0.34638,0.05585 0.79972,0.26522 1.12051,0.21689c0.65139,-0.09815 1.38787,-1.41286 2.15593,-0.87228c4.9285,3.46879 3.64353,4.85501 1.05834,8.63948c-3.25272,3.25272 -4.9933,3.32206 -9.03553,1.5l-1,-1c0,0 1.59135,-0.49141 2.72888,-0.65592zM525.15615,245.91035c0.22089,-0.75703 0.44703,-1.38842 0.44703,-1.38842l1,1c-0.73887,0.18779 -1.19523,0.31192 -1.44703,0.38842zM525.13355,245.9883c-0.27393,0.04424 -0.35185,0.03582 0.02259,-0.07795c-0.00754,0.02584 -0.01507,0.05183 -0.02259,0.07795z" fill="#4d3a24" stroke="none" stroke-width="0.5" stroke-linecap="butt" stroke-linejoin="miter"/></g></g></svg>