<svg version="1.1" xmlns="http://www.w3.org/2000/svg" xmlns:xlink="http://www.w3.org/1999/xlink" width="389.03544" height="266.63046" viewBox="0,0,389.03544,266.63046"><defs><linearGradient x1="86.5" y1="255.4114" x2="323.5" y2="255.4114" gradientUnits="userSpaceOnUse" id="color-1"><stop offset="0" stop-color="#5ef3a3" stop-opacity="0"/><stop offset="1" stop-color="#5ef3a3"/></linearGradient></defs><g transform="translate(18.5,-122.58433)"><g data-paper-data="{&quot;isPaintingLayer&quot;:true}" fill-rule="nonzero" stroke-linejoin="miter" stroke-miterlimit="10" stroke-dasharray="" stroke-dashoffset="0" style="mix-blend-mode: normal"><path d="M-18.5,386.9114v-263l342,0l-83,178c0,0 33.31864,8.14007 50.10975,28.91128c20.36241,25.18903 32.89025,56.08872 32.89025,56.08872z" fill="url(#color-1)" stroke="none" stroke-width="0" stroke-linecap="butt"/><path d="M158.65836,198.46889l100.53254,43.91823" data-paper-data="{&quot;origRot&quot;:0}" fill="none" stroke="#000000" stroke-width="9" stroke-linecap="round"/><path d="M151.24279,231.09246l109.36368,8.67109" data-paper-data="{&quot;origRot&quot;:0}" fill="none" stroke="#000000" stroke-width="9" stroke-linecap="round"/><path d="M239.7028,302.78726l28.36293,-64.96841" data-paper-data="{&quot;origRot&quot;:0}" id="ID0.8172772801481187" fill="none" stroke="#000000" stroke-width="9" stroke-linecap="round"/><path d="M241.11234,301.33931c0,0 39.90141,-8.51268 58.26373,-4.40728c19.96163,4.46296 57.10928,30.20207 57.10928,30.20207l7.19271,-10.13623" data-paper-data="{&quot;origRot&quot;:0,&quot;index&quot;:null}" id="ID0.7014842056669295" fill="none" stroke="#000000" stroke-width="9" stroke-linecap="round"/><path d="M289.89084,153.91345c26.73292,0.88627 47.70259,22.76812 46.83709,48.8745c-0.8655,26.10637 -23.23844,46.55129 -49.97134,45.66502c-26.73292,-0.88627 -47.70259,-22.76812 -46.83709,-48.8745c0.8655,-26.10637 23.23844,-46.55129 49.97134,-45.66502z" data-paper-data="{&quot;index&quot;:null}" fill="#dbe6e9" stroke="#000000" stroke-width="9" stroke-linecap="butt"/><path d="M293.77456,162.37684c22.76475,0.75472 40.60178,19.99031 39.84014,42.96392c-0.76164,22.97361 -19.83353,40.98557 -42.59829,40.23085c-22.76475,-0.75472 -40.60178,-19.99031 -39.84014,-42.96392c0.76164,-22.97361 19.83353,-40.98557 42.59829,-40.23085z" data-paper-data="{&quot;index&quot;:null}" fill="#ffffff" stroke="none" stroke-width="0" stroke-linecap="butt"/><path d="M300.21803,229.6481c0,0 -4.62647,0.02558 -6.9812,-0.52557c-1.72972,-0.40486 -3.48469,-1.92407 -3.48469,-1.92407" id="ID0.6053896984085441" fill="none" stroke="#000000" stroke-width="2" stroke-linecap="round"/><path d="M227.70097,182.99902l-14.07888,3.84288l-0.1363,-4.73385l-12.30124,-28.45796l28.72299,-1.28082c0,0 8.91608,-3.44728 13.97845,-7.43353c3.43639,-2.7059 7.79853,-9.71426 7.79853,-9.71426c0,0 5.34791,2.6259 6.23019,6.68423c0.48825,2.24585 -2.71838,9.46942 -2.71838,9.46942l11.81712,-10.30693c0,0 4.08919,-8.29714 8.57917,-7.77958c4.48999,0.51755 12.84614,10.24926 12.84614,10.24926l1.95595,-9.27618l3.15171,3.71789l1.69012,-4.71175l31.00043,-8.87563c0,0 3.86086,9.14339 1.58546,14.25943c-2.2754,5.11603 -10.64717,6.11508 -10.64717,6.11508c0,0 8.74133,-1.14602 13.65692,-2.60543c5.75527,-1.70871 13.68581,-5.51248 13.68581,-5.51248l0.20839,16.54848l22.23068,-15.07323c0,0 4.16479,24.07511 0.7032,36.96764c-3.62826,13.51329 -11.61779,20.91961 -24.59814,28.93491c-3.69314,2.28049 -4.70366,7.26963 -4.70366,7.26963l-17.34528,-11.98866c0,0 -11.14322,9.02514 -18.80797,10.0111c-7.66475,0.98597 -14.19531,-8.51204 -14.19531,-8.51204c0,0 -5.15502,8.14304 -12.06922,8.56993c-6.91421,0.42689 -19.0076,-3.67724 -19.0076,-3.67724c0,0 -5.13433,7.13795 -8.83703,8.63261c-3.7027,1.49465 -24.27768,4.73478 -24.27768,4.73478c0,0 1.37099,-3.33394 2.64639,-6.86141c1.38581,-3.83286 -8.26642,-1.42143 -8.26642,-1.42143z" data-paper-data="{&quot;index&quot;:null,&quot;origRot&quot;:0}" fill="#5ef3a3" stroke="#2abc90" stroke-width="3" stroke-linecap="butt"/><path d="M324.90199,210.55467c-0.20695,6.24217 -1.94197,11.25048 -3.87529,11.18639c-1.93333,-0.0641 -3.33283,-5.17632 -3.12589,-11.4185c0.20695,-6.24217 1.94198,-11.25048 3.8753,-11.18639c1.93333,0.0641 3.33282,5.17633 3.12588,11.41849z" fill="#000000" stroke="#000000" stroke-width="2" stroke-linecap="butt"/><path d="M308.39508,210.00742c-0.20695,6.24217 -1.94198,11.25048 -3.87529,11.18639c-1.93333,-0.0641 -3.33283,-5.17632 -3.12589,-11.4185c0.20695,-6.24217 1.94198,-11.25048 3.8753,-11.18639c1.93333,0.0641 3.33282,5.17633 3.12588,11.41849z" fill="#000000" stroke="#000000" stroke-width="2" stroke-linecap="butt"/><g fill="#5ef3a3" stroke="#2abc90" stroke-width="2.5" stroke-linecap="butt"><path d="M302.79342,258.95722c-1.13959,2.08856 4.18644,4.08139 -0.3446,5.44527c-2.61679,0.78768 -4.24144,-0.38148 -6.92657,-0.88954c-8.05539,-1.52418 -30.38281,-6.19652 -48.61635,-13.77805c-5.68888,-2.36544 1.38438,-1.83459 2.06116,-4.00464c0.73565,-2.35886 -9.31562,-4.362 -0.18421,-7.0489c3.1298,-0.92095 37.92235,6.52814 57.40337,15.54267c8.30745,3.84414 -2.02798,2.23185 -3.3928,4.73319z" data-paper-data="{&quot;origPos&quot;:null}"/><path d="M249.358,254.77884c4.08578,3.38057 -3.58784,19.03718 -8.77786,25.13916c-5.19003,6.10198 -7.76179,1.90983 -11.84757,-1.47073c-4.08578,-3.38057 -8.13839,-4.6694 -2.94835,-10.77139c5.19003,-6.10198 19.488,-16.27762 23.57378,-12.89705z" data-paper-data="{&quot;origPos&quot;:null,&quot;origRot&quot;:0,&quot;index&quot;:null}"/><path d="M241.28745,249.22822c0.82985,5.23766 -15.27927,11.90926 -23.20754,13.05521c-7.92827,1.14595 -7.08567,-3.69947 -7.91552,-8.93713c-0.82985,-5.23766 -3.01789,-8.88419 4.91038,-10.03014c7.92827,-1.14595 25.38284,0.67438 26.21269,5.91206z" data-paper-data="{&quot;origPos&quot;:null,&quot;origRot&quot;:0,&quot;index&quot;:null}"/></g><path d="M238.71944,301.64875c0,0 38.56622,13.31296 52.1715,26.31009c14.79027,14.12915 33.31236,55.3527 33.31236,55.3527l11.39352,-4.96651" data-paper-data="{&quot;origRot&quot;:0,&quot;index&quot;:null}" id="ID0.7014842056669295" fill="none" stroke="#000000" stroke-width="9" stroke-linecap="round"/></g></g></svg>