<svg version="1.1" xmlns="http://www.w3.org/2000/svg" xmlns:xlink="http://www.w3.org/1999/xlink" width="833.17963" height="229.91371" viewBox="0,0,833.17963,229.91371"><defs><linearGradient x1="-248.40305" y1="186.13027" x2="488.98359" y2="186.13027" gradientUnits="userSpaceOnUse" id="color-1"><stop offset="0" stop-color="#ff0027" stop-opacity="0"/><stop offset="1" stop-color="#ff0027"/></linearGradient><linearGradient x1="-341.16157" y1="186.13027" x2="488.9836" y2="186.13027" gradientUnits="userSpaceOnUse" id="color-2"><stop offset="0" stop-color="#ff0027"/><stop offset="1" stop-color="#ff0027" stop-opacity="0"/></linearGradient></defs><g transform="translate(341.16158,-69.39094)"><g data-paper-data="{&quot;isPaintingLayer&quot;:true}" fill-rule="nonzero" stroke-linejoin="miter" stroke-miterlimit="10" stroke-dasharray="" stroke-dashoffset="0" style="mix-blend-mode: normal"><path d="M488.98359,186.13027c0,62.50448 -165.06962,113.17437 -368.69332,113.17437c-203.6237,0 -461.45185,-113.17437 -461.45185,-113.17437c0,0 257.82815,-113.17437 461.45185,-113.17437c203.6237,0 368.69332,50.66989 368.69332,113.17437z" fill="url(#color-1)" stroke="none" stroke-width="0" stroke-linecap="butt"/><g stroke="none" stroke-width="0" stroke-linecap="butt"><g data-paper-data="{&quot;origPos&quot;:null}"><path d="M82.46653,114.93915l5.52237,5.23302l-66.73346,70.42339l-5.52237,-5.23301z" data-paper-data="{&quot;origPos&quot;:null}" fill="#585858"/><path d="M19.77624,189.09008l67.05323,-70.60551c0,0 25.97782,24.77764 26.45,30.1338c0.499,5.66049 -6.70311,14.50509 -13.1169,21.77967c-6.52487,7.40059 -9.33688,9.64105 -16.89352,15.98456c-3.22345,2.81131 -54.96777,10.90946 -54.96777,10.90946z" data-paper-data="{&quot;origPos&quot;:null}" fill="#bebebe"/><path d="M28.14883,197.53593l16.57439,-17.63835l55.56596,-9.45496c0,0 -15.41258,17.02891 -19.50932,18.44966c-3.8956,1.35098 -52.63103,8.64366 -52.63103,8.64366z" data-paper-data="{&quot;origPos&quot;:null}" fill="#7f7f7f"/></g><path d="M126.07833,199.38769c4.46785,-24.76132 3.10546,-28.54336 46.35199,-20.7401c50.38862,9.09193 51.2369,12.21093 46.66938,37.52454c-4.58794,25.42683 -7.72443,27.19589 -57.44125,18.25819c-42.65667,-7.66848 -39.8583,-11.33275 -35.58017,-35.04263z" data-paper-data="{&quot;index&quot;:null,&quot;origRot&quot;:0}" fill="#0a0a66"/><path d="M74.7357,200.30042c-8.56391,-3.10514 -13.50422,-7.61785 -13.50422,-7.61785c0,0 4.56773,0.20792 7.92741,-3.34214c16.13204,-18.95535 9.3217,-39.47049 17.94515,-49.48445c14.42778,-15.78469 27.40467,-12.06682 37.16629,2.96746c9.7616,15.0343 8.89219,18.17764 25.21485,33.96352c10.4521,10.10837 8.13334,20.30167 -4.65818,33.85393c-11.38421,12.06122 -14.51927,18.59829 -23.31977,12.09911c-8.80047,-6.49917 -34.98039,-20.32688 -46.77154,-22.43958z" data-paper-data="{&quot;origPos&quot;:null,&quot;index&quot;:null}" fill="#0a0a66"/></g><g><path d="M308.46754,139.97627c25.04643,36.38394 26.31789,50.44401 11.87559,61.21073c-13.69665,10.21081 -28.25601,5.1187 -53.90357,-30.47133c-23.78411,-33.00424 -23.5403,-35.78481 -3.40629,-50.10512c19.27904,-13.71219 22.19783,-14.38887 45.43424,19.36571z" data-paper-data="{&quot;index&quot;:null,&quot;origRot&quot;:0}" fill="#8d0000" stroke="none" stroke-width="0" stroke-linecap="butt"/><g data-paper-data="{&quot;origPos&quot;:null}"><g data-paper-data="{&quot;origPos&quot;:null,&quot;origRot&quot;:0}"><path d="M172.01252,126.77604c-8.50914,-3.64692 -12.86154,-10.10267 -14.40725,-19.23041c-1.46284,-8.6383 0.92293,-13.19725 4.12543,-21.02888c3.20249,-7.83162 5.46842,-11.5006 11.57122,-14.28485c8.49685,-3.8765 8.93,-3.00085 19.96257,0.48283c13.99432,4.41888 19.77141,12.21586 19.77322,24.08052c0.00167,10.80958 -2.58229,27.67609 -12.05594,32.25245c-9.05295,4.37315 -15.47835,3.51045 -28.96926,-2.27163z" data-paper-data="{&quot;origPos&quot;:null}" fill="#a6a6a6" stroke="none" stroke-width="0" stroke-linecap="butt"/><path d="M161.36184,93.59102c2.60521,-8.56799 15.15861,-6.05932 19.20737,-1.78862c2.77885,1.82468 1.00853,13.13503 -4.93075,14.22212c-5.93594,1.0865 -6.05203,-4.69145 -4.91945,-8.54439" data-paper-data="{&quot;origPos&quot;:null}" fill="none" stroke="#5b5b5b" stroke-width="2" stroke-linecap="round"/><path d="M164.13539,85.04896c5.00883,-5.20067 9.3795,-5.64508 18.68984,-0.48737c2.77883,1.82466 2.70139,8.87466 -1.80347,11.84891" data-paper-data="{&quot;origPos&quot;:null}" fill="none" stroke="#5b5b5b" stroke-width="2" stroke-linecap="round"/><path d="M167.09594,78.38953c7.0598,-4.08353 9.21368,-6.01245 18.52405,-0.85473c2.77883,1.82466 2.7014,8.87463 -1.80346,11.8489" data-paper-data="{&quot;origPos&quot;:null}" fill="none" stroke="#5b5b5b" stroke-width="2" stroke-linecap="round"/><path d="M170.78616,74.13032c7.0598,-4.08353 11.47164,-5.4158 18.25472,-0.96185c2.77883,1.82469 2.14168,7.14496 -2.36318,10.11921" data-paper-data="{&quot;origPos&quot;:null}" fill="none" stroke="#5b5b5b" stroke-width="2" stroke-linecap="round"/><path d="M182.32232,121.8412c-4.89816,-4.6502 -6.66651,-9.78685 -4.09412,-16.32349c2.07309,-5.26797 2.38953,-5.88488 5.00558,-11.156c1.92056,-3.86982 3.83559,-5.21682 7.42526,-3.19842c4.09683,2.30357 0.35807,9.70426 0.80331,14.25924c0.50515,5.16791 4.08944,6.82308 2.55238,12.43186" data-paper-data="{&quot;origPos&quot;:null}" fill="none" stroke="#5b5b5b" stroke-width="2" stroke-linecap="round"/></g><path d="M207.41666,146.42218c-18.69439,-7.88768 -23.91012,-15.77516 -15.5474,-41.60678c9.74698,-24.61899 19.19907,-26.95972 37.00866,-21.4156c17.42895,5.42564 7.68883,8.56206 36.18897,19.30526c19.19697,7.23637 28.63627,15.32388 21.31152,36.59381c-8.35314,20.908 -21.02254,20.76541 -40.191,14.58183c-26.13814,-8.43198 -27.6664,-2.77325 -38.77075,-7.45847z" data-paper-data="{&quot;index&quot;:null,&quot;origPos&quot;:null,&quot;origRot&quot;:0}" fill="#8d0000" stroke="none" stroke-width="0" stroke-linecap="butt"/></g></g><path d="M292.42288,113.56131c24.10065,1.43286 51.33417,26.99685 48.70317,46.67848c-2.63101,19.68162 -22.67188,27.58023 -46.77253,26.14737c-24.10066,-1.43284 -56.05104,-4.57639 -57.19857,-35.94413c-1.14754,-31.36774 31.16726,-38.31457 55.2679,-36.88172z" data-paper-data="{&quot;origRot&quot;:0}" fill="#8d0000" stroke="none" stroke-width="0" stroke-linecap="butt"/><g><path d="M213.69439,180.43313c17.87168,-4.51098 13.92782,-4.89145 21.11872,36.76005c6.42375,36.87486 6.56947,35.57617 -10.18409,37.83059c-22.12296,-0.61247 -40.76543,-9.09359 -44.72048,-31.52673c-4.131,-28.3784 12.33041,-37.64838 33.78585,-43.06394z" data-paper-data="{&quot;origPos&quot;:null}" fill="#101099" stroke="none" stroke-width="0" stroke-linecap="butt"/><g data-paper-data="{&quot;origPos&quot;:null}"><path d="M246.30702,248.62947c-10.00404,-3.0863 -12.21313,-21.65331 -14.22708,-36.77676c-2.68028,-20.12708 -3.06376,-33.25854 2.54928,-38.46052c5.98895,-5.55031 62.60876,-11.07885 84.14276,-13.94647c7.07885,-0.94267 16.78474,1.00114 20.64252,7.01085c4.83288,7.52873 2.09897,32.87117 2.09897,32.87117c0,0 -5.33111,40.09036 -13.44645,41.17106c-18.66186,2.48516 -69.82274,11.81333 -81.76001,8.13067z" data-paper-data="{&quot;origPos&quot;:null}" fill="#e50000" stroke="none" stroke-width="0" stroke-linecap="butt"/><path d="M210.45284,198.51634c-1.98388,-13.89953 -0.24758,-29.45849 5.10551,-30.55226c5.35309,-1.09376 7.69561,-4.11593 13.06955,0.28893c6.03045,4.94296 18.82524,0.02755 27.31253,-0.04662c7.04344,-0.06158 11.97534,30.31997 14.42713,44.84838c2.45177,14.52839 2.93105,33.31807 -6.90535,34.70211c-12.87365,1.81141 -6.3832,4.90267 -11.84931,9.87384c-6.20115,6.28956 -14.03826,3.841 -18.34796,-2.10417c-6.06602,-8.368 -7.1572,-8.9847 -12.99395,-21.32564c-5.83676,-12.34093 -7.83809,-21.81175 -9.81815,-35.68457z" data-paper-data="{&quot;origPos&quot;:null}" fill="#e50000" stroke="none" stroke-width="0" stroke-linecap="butt"/><path d="M329.21029,234.87518l-80.2248,10.68335" data-paper-data="{&quot;origPos&quot;:null}" fill="none" stroke="#000000" stroke-width="2" stroke-linecap="round"/><path d="M253.322,251.1963c0,0 -8.08787,-8.98088 -14.15506,-19.1128c-5.62953,-9.40105 -8.26002,-15.85805 -12.23467,-36.2948" data-paper-data="{&quot;origPos&quot;:null}" fill="none" stroke="#8d0000" stroke-width="2" stroke-linecap="round"/></g><path d="M330.98124,180.09504c-0.1153,-12.21541 -20.01703,-20.00077 -19.41468,-20.15127c7.73303,-1.93234 27.35165,-1.9472 31.22158,5.15188c3.90557,7.1645 8.73028,9.9943 6.82941,43.19523c-0.96992,20.77286 -5.20179,31.38139 -14.12504,32.14643c-10.65325,0.91336 -13.76841,-5.543 -14.16357,-19.26608c-0.47058,-16.34146 9.93806,-10.80208 9.65231,-41.07619z" data-paper-data="{&quot;origPos&quot;:null}" fill="#8d0000" stroke="none" stroke-width="0" stroke-linecap="butt"/></g><g><g data-paper-data="{&quot;origPos&quot;:null}"><path d="M388.72092,143.82172c28.40537,0 45.28312,17.7288 44.08733,60.68429c-0.08888,21.06125 -7.67684,29.48893 -11.19717,34.26884c-7.75683,6.18381 -10.43307,7.02901 -21.46993,7.36566c-44.30504,-1.61335 -58.11069,-30.35061 -57.91836,-51.26581c0.30795,-35.11504 18.09275,-51.05297 46.49812,-51.05297z" data-paper-data="{&quot;origPos&quot;:null}" fill="#ffceb3" stroke="none" stroke-width="0" stroke-linecap="butt"/><g data-paper-data="{&quot;origPos&quot;:null}"><path d="M422.3836,233.9605l7.03377,-26.32168l18.32425,25.91582z" data-paper-data="{&quot;origPos&quot;:null}" fill="#ffceb3" stroke="none" stroke-width="0" stroke-linecap="butt"/><path d="M430.43191,208.39632c0,0 16.59467,22.8743 16.62474,25.26738c0.01162,2.10075 -23.61505,0.69123 -23.61505,0.69123" data-paper-data="{&quot;origPos&quot;:null}" fill="none" stroke="#b37959" stroke-width="2" stroke-linecap="round"/></g><path d="M423.66496,202.29536c0,13.55767 -2.06831,24.54836 -13.83925,24.54836c-7.6432,0 -13.83923,-10.99068 -13.83923,-24.54836c0,-13.55767 4.36054,-24.54836 13.83923,-24.54836c9.47867,0 13.83925,10.99068 13.83925,24.54836z" data-paper-data="{&quot;origPos&quot;:null}" fill="#ffffff" stroke="none" stroke-width="0" stroke-linecap="butt"/></g><path d="M390.08293,188.32495c0,0 -31.36606,-6.44108 -37.93815,12.80231c-2.27517,25.39164 23.84289,41.48713 23.84289,41.48713c0,0 -24.77515,-4.0832 -36.30765,-24.88745c-9.4724,-17.08791 -8.14555,-35.32393 -3.77544,-50.80572c13.11951,-29.58116 42.04279,-36.81044 62.15824,-35.26714c-0.2058,0.26869 -7.9799,56.67088 -7.9799,56.67088z" data-paper-data="{&quot;origPos&quot;:null}" fill="#661800" stroke="none" stroke-width="0" stroke-linecap="butt"/><path d="M396.35562,126.37563c11.77386,-6.77441 34.07568,-9.83898 34.07568,-9.83898c0,0 -6.8932,6.87826 -7.61437,13.60465c-0.81468,7.59837 0.84751,6.41871 0.84751,13.4257c0,11.86816 -39.84827,11.30174 -39.98209,1.43261c-0.12694,-9.36185 2.17746,-12.58495 12.67324,-18.62399z" data-paper-data="{&quot;origPos&quot;:null}" fill="#661800" stroke="none" stroke-width="0" stroke-linecap="butt"/><path d="M375.85843,200.60828c2.70348,10.29079 -0.57058,20.06897 -7.31281,21.84025c-6.74224,1.77126 -14.3995,-5.13521 -17.10298,-15.426c-2.70348,-10.29079 0.57058,-20.06897 7.31281,-21.84025c6.74224,-1.77123 14.3995,5.13521 17.10298,15.426z" data-paper-data="{&quot;origPos&quot;:null,&quot;origRot&quot;:0}" fill="#ffceb3" stroke="none" stroke-width="0" stroke-linecap="butt"/><path d="M364.18378,171.50289c0,-6.83485 6.93087,-11.86842 13.76572,-11.86842c6.83485,0 18.92597,5.03357 18.92597,11.86842c0,9.33442 -6.74767,18.65231 -11.20277,26.85495c-4.51006,8.30384 -18.97399,21.32568 -21.15831,19.55362c-1.37946,-1.1191 4.45488,-6.01276 5.19991,-22.31999c0.39336,-7.36921 -5.53052,-17.25372 -5.53052,-24.08857z" data-paper-data="{&quot;origPos&quot;:null}" fill="#661800" stroke="none" stroke-width="0" stroke-linecap="butt"/><path d="M422.60331,208.54537c0,6.65611 -2.06535,12.05196 -4.61306,12.05196c-2.54773,0 -4.61308,-5.39583 -4.61308,-12.05196c0,-6.65611 2.06535,-12.05199 4.61308,-12.05199c2.54773,0 4.61306,5.39585 4.61306,12.05199z" data-paper-data="{&quot;origPos&quot;:null}" fill="#000000" stroke="none" stroke-width="0" stroke-linecap="butt"/><path d="M450.71047,163.63644c7.01375,16.64514 6.72367,20.75288 18.11297,25.10694c11.64434,4.45157 18.9468,-4.90726 23.19461,-6.44392c-4.37399,13.68084 -23.46499,27.93733 -42.57524,27.61518c-31.2598,-0.52696 -30.61645,-7.32176 -44.15846,-21.4255c-12.73047,-16.53829 -13.48017,-40.69602 -13.48017,-40.69602c0,0 -1.1363,-13.77698 18.24783,-13.77698c10.25456,0 32.95351,11.33483 40.65845,29.62033z" data-paper-data="{&quot;origPos&quot;:null}" fill="#661800" stroke="none" stroke-width="0" stroke-linecap="butt"/><path d="M423.12745,190.09346c0,0 0.05419,14.64792 -0.61953,14.70053c-2.18683,0.17074 -14.54884,-12.32106 -23.18523,-27.30524c-6.55064,-11.36538 -7.89968,-38.70521 -7.89968,-38.70521" data-paper-data="{&quot;origPos&quot;:null}" fill="none" stroke="#000000" stroke-width="2.5" stroke-linecap="round"/><path d="M388.25791,227.52467c0,0 8.0602,0.67415 13.47885,3.70859c4.47837,2.50789 9.80611,8.14139 9.80611,8.14139" data-paper-data="{&quot;origPos&quot;:null}" fill="none" stroke="#b37959" stroke-width="2" stroke-linecap="round"/></g><g><g><g data-paper-data="{&quot;origPos&quot;:null}"><path d="M148.13095,153.32668c-4.93756,-6.64983 -7.55428,-18.07905 -8.25571,-23.98466c-1.28262,-10.79893 10.58584,-30.13361 17.88099,-31.78617c11.46695,-2.59752 29.64251,-3.01121 34.8888,-0.38438c7.02152,3.51566 9.42252,13.33348 9.92154,23.31478c0.56528,11.3061 -1.5443,24.52352 -11.65117,30.14732c-14.29832,6.55435 -17.96213,12.10469 -25.05677,5.96568c-8.1541,3.34752 -12.79013,3.37725 -17.72767,-3.27259z" data-paper-data="{&quot;origPos&quot;:null}" fill="#e5e5e5" stroke="none" stroke-width="0" stroke-linecap="butt"/><path d="M152.97589,145.89472c0,0 1.95619,6.81768 4.6069,5.13986c1.63801,-1.0368 -2.72182,-2.58423 -0.92711,-6.51412c0.8053,-1.76336 2.01299,-3.29647 7.92122,-1.19394c4.93792,1.75725 1.10547,12.11001 1.10547,12.11001" data-paper-data="{&quot;origPos&quot;:null}" fill="none" stroke="#989898" stroke-width="2" stroke-linecap="round"/></g><g data-paper-data="{&quot;origPos&quot;:null,&quot;origRot&quot;:0}"><path d="M200.47824,155.77405c-20.19508,-1.96305 -27.52295,-7.93957 -27.23175,-35.08962c1.97379,-26.4046 10.30007,-31.45379 28.95264,-31.46449c18.25391,-0.0105 9.88963,5.88405 40.29592,7.65314c20.48093,1.1916 31.90035,6.10139 31.24164,28.58758c-1.7482,22.44686 -13.88535,26.08347 -34.02555,25.88837c-27.46327,-0.26605 -27.23711,5.59104 -39.23289,4.42505z" data-paper-data="{&quot;index&quot;:null,&quot;origPos&quot;:null}" fill="#e50000" stroke="none" stroke-width="0" stroke-linecap="butt"/><path d="M261.04935,150.73895c-5.15321,-0.28218 -16.59508,-0.04132 -30.84766,0.85785c-13.09422,0.82605 -20.01905,5.04144 -28.26144,4.31953c-19.91592,-1.74434 -24.18417,-8.35103 -26.48743,-19.22063" data-paper-data="{&quot;origPos&quot;:null}" fill="none" stroke="#8d0000" stroke-width="2" stroke-linecap="round"/></g></g><g data-paper-data="{&quot;origRot&quot;:0}"><path d="M298.92212,127.95201c31.54382,30.9209 35.48138,44.47815 23.36533,57.8087c-11.4905,12.64227 -26.75508,10.42927 -58.73706,-19.59741c-29.65826,-27.84511 -29.95087,-30.621 -12.92799,-48.52824c16.3,-17.14686 19.03545,-18.36937 48.29969,10.31696z" data-paper-data="{&quot;origPos&quot;:null,&quot;index&quot;:null}" fill="#e50000" stroke="none" stroke-width="0" stroke-linecap="butt"/><path d="M286.53107,185.40424c-23.70387,-17.65115 -42.06519,-36.55234 -42.06519,-36.55234" data-paper-data="{&quot;origPos&quot;:null}" fill="none" stroke="#8d0000" stroke-width="2" stroke-linecap="round"/></g></g><g stroke="none" stroke-width="0" stroke-linecap="butt"><g><path d="M65.38425,148.75631l6.64282,3.70864l-47.29397,84.7118l-6.64282,-3.70863z" data-paper-data="{&quot;origPos&quot;:null}" fill="#585858"/><path d="M22.92816,236.08279l47.55891,-84.96718c0,0 31.28825,17.60181 33.0674,22.67586c1.88023,5.36236 -2.91687,15.71055 -7.33744,24.34274c-4.49712,8.78172 -6.66939,11.64675 -12.4272,19.65864c-2.43012,3.51975 -50.57647,24.13488 -50.57647,24.13488z" data-paper-data="{&quot;origPos&quot;:null}" fill="#bebebe"/><path d="M33.12579,242.20168l11.70986,-21.18256l51.51505,-22.87294c0,0 -10.73435,20.30528 -14.35388,22.69294c-3.44181,2.27041 -48.87105,21.36256 -48.87105,21.36256z" data-paper-data="{&quot;origPos&quot;:null}" fill="#7f7f7f"/></g><path d="M117.61448,227.42319c-0.52097,-25.15579 -2.60489,-28.59338 41.33059,-29.50328c51.19132,-1.06017 52.64009,1.82927 53.17268,27.54614c0.53496,25.83187 -2.18938,28.18666 -52.69166,29.26507c-43.3306,0.92527 -41.31277,-3.22033 -41.81162,-27.30792z" data-paper-data="{&quot;index&quot;:null,&quot;origRot&quot;:0}" fill="#101099"/><path d="M78.95439,233.3859c-9.06528,-0.89608 -14.96633,-4.05031 -14.96633,-4.05031c0,0 4.47781,-0.92555 6.85768,-5.19482c10.95624,-22.3497 -0.70544,-40.55016 5.18055,-52.38226c10.087,-18.85656 23.58002,-18.45555 36.74936,-6.29467c13.16935,12.1609 7.89673,23.35853 27.6097,34.6289c12.27256,9.92566 14.01412,14.61517 4.96196,30.90461c-8.05625,14.49724 -18.20546,23.70584 -28.33746,19.57903c-10.13198,-4.1268 -26.10765,-18.05246 -38.05553,-17.19048z" data-paper-data="{&quot;index&quot;:null}" fill="#101099"/></g><path d="M488.9836,186.13027c0,62.50448 -165.06962,113.17437 -368.69332,113.17437c-203.6237,0 -461.45185,-113.17437 -461.45185,-113.17437c0,0 257.82815,-113.17437 461.45185,-113.17437c203.6237,0 368.69333,50.66989 368.69333,113.17437z" fill="url(#color-2)" stroke="none" stroke-width="0" stroke-linecap="butt"/></g></g></svg>