<svg version="1.1" xmlns="http://www.w3.org/2000/svg" xmlns:xlink="http://www.w3.org/1999/xlink" width="1484" height="870" viewBox="0,0,1484,870"><g transform="translate(582.5,317.28334)"><g data-paper-data="{&quot;isPaintingLayer&quot;:true}" fill-rule="nonzero" stroke="none" stroke-width="0" stroke-linecap="butt" stroke-linejoin="miter" stroke-miterlimit="10" stroke-dasharray="" stroke-dashoffset="0" style="mix-blend-mode: normal"><path d="" fill="#6f3615"/><path d="" fill="#6f3615"/><path d="" fill="#6f3615"/><path d="" fill="#6f3615"/><path d="" fill="#6f3615"/><path d="" fill="#6f3615"/><path d="" fill="#6f3615"/><path d="" fill="#6f3615"/><path d="" fill="#6f3615"/><path d="" fill="#6f3615"/><path d="" fill="#6f3615"/><path d="M158.72025,405v-217.04258h83.11488v217.04258z" fill="#c45b14"/><path d="" fill="#6f3615"/><path d="" fill="#6f3615"/><path d="" fill="#6f3615"/><path d="" fill="#6f3615"/><path d="" fill="#6f3615"/><path d="" fill="#6f3615"/><path d="" fill="#6f3615"/><path d="" fill="#6f3615"/><path d="" fill="#6f3615"/><path d="" fill="#6f3615"/><path d="" fill="#6f3615"/><path d="M366.72025,384v-217.04258h132.11488v217.04258z" fill="#c45b14"/><path d="M465.25,398.46666v-443h150v443z" fill="#c45b14"/><path d="M329.5,98.71666v-68h14v68z" fill="#c45b14"/><path d="M254.25,-2.28334v-43.25h89v43.25z" fill="#c45b14"/><path d="M234.5,-37.28334v-96.71666h361v96.71666z" fill="#c45b14"/><path d="M194.5,43.71666v-171h82v171z" fill="#c45b14"/><path d="M162.5,105.71666v-18h81v18z" fill="#c45b14"/><path d="M162.5,99.71666v-108h9v108z" fill="#c45b14"/><path d="M110.5,-41.28334v-94h159v94z" fill="#c45b14"/><path d="M89.5,26.71666v-176.71666h49v176.71666z" fill="#c45b14"/><path d="M24.5,102.71666v-21h80v21z" fill="#c45b14"/><path d="M15.5,441.71666v-360h29v360z" fill="#c45b14"/><path d="M-1.5,411.71666v-520h20v520z" fill="#c45b14"/><path d="M49.5,26.71666v-35h46v35z" fill="#c45b14"/><path d="M14.5,-39.28334v-35h46v35z" fill="#c45b14"/><path d="M89.5,-81.28334v-177h812v177z" fill="#c45b14"/><path d="M-138.5,-206v-54h413v54z" fill="#c45b14"/><path d="M-423,208v-525.28334h369v525.28334z" fill="#c45b14"/><path d="M-200.5,440.71666v-170h126v170z" fill="#c45b14"/><path d="M-582.5,552.71666v-384h471v384z" fill="#c45b14"/><path d="M332.5,205.71666v-41h173v41z" fill="#c45b14"/></g></g></svg>