<svg version="1.1" xmlns="http://www.w3.org/2000/svg" xmlns:xlink="http://www.w3.org/1999/xlink" width="325.83347" height="360.94351" viewBox="0,0,325.83347,360.94351"><defs><linearGradient x1="-1019439.95236" y1="790127.06235" x2="1305291.66084" y2="-1011152.06796" gradientUnits="userSpaceOnUse" id="color-1"><stop offset="0" stop-color="#403328"/><stop offset="1" stop-color="#403328" stop-opacity="0"/></linearGradient><linearGradient x1="1165314.04157" y1="553675.66214" x2="-1491081.15378" y2="-708286.3598" gradientUnits="userSpaceOnUse" id="color-2"><stop offset="0" stop-color="#403328"/><stop offset="1" stop-color="#403328" stop-opacity="0"/></linearGradient></defs><g transform="translate(-59.13302,-29.81694)"><g data-paper-data="{&quot;isPaintingLayer&quot;:true}" fill-rule="nonzero" stroke-linejoin="miter" stroke-miterlimit="10" stroke-dasharray="" stroke-dashoffset="0" style="mix-blend-mode: normal"><path d="M95.52259,255.67572c8.82803,11.81481 31.59631,27.86224 31.59631,27.86224l-36.60099,30.23167c0,0 -14.05536,-28.77682 -20.56725,-48.14209c-6.51189,-19.36527 -10.81764,-45.19133 -10.81764,-45.19133l21.28332,0.59832c0,0 6.27823,22.82638 15.10625,34.64119z" data-paper-data="{&quot;index&quot;:null}" fill="url(#color-1)" stroke="none" stroke-width="0" stroke-linecap="butt"/><g data-paper-data="{&quot;index&quot;:null}" stroke-linecap="butt"><g><path d="M153.63134,143.64013c-6.56139,-0.53283 -0.13593,-15.13069 6.71309,-18.35501c1.21791,-0.57336 7.64909,0.46865 8.42558,0.53501c23.96694,2.04774 28.77119,0.84404 28.77119,0.84404c0,0 9.38952,5.94823 10.06708,10.10288c0.4821,2.95624 -6.11794,12.3245 -6.11794,12.3245c0,0 -25.19737,-3.11451 -34.99667,-5.27164c-2.31069,-0.50867 -4.61687,0.4898 -12.86237,-0.17977z" fill="#d9bb9a" stroke="#917c67" stroke-width="4"/><path d="M147.99552,141.18307c-2.66851,-0.67115 7.07471,-14.66305 7.26111,-15.40413c0.18639,-0.7411 2.78667,0.33507 5.45517,1.0062c2.6685,0.67115 5.69935,0.79179 5.51297,1.53286c-0.03106,0.12347 -10.68323,13.13486 -11.69604,13.20202c-2.67483,0.17736 -4.30922,0.2224 -6.5332,-0.33696z" fill="#d9bb9a" stroke="none" stroke-width="0"/><path d="M200.39027,133.07909c10.38448,1.15279 5.71648,7.20455 5.47091,9.66313c-0.24558,2.45858 -8.76618,2.22448 -19.15066,1.07169c-10.38447,-1.15279 -12.11408,-2.25441 -19.40355,-3.29c-4.91068,-0.69767 -11.39021,-0.90942 -16.94941,-0.93476c-9.46133,-0.0431 3.26293,-11.88591 3.63234,-11.99644c0.3356,-0.10045 7.54547,2.33762 8.20826,2.4994c7.6146,1.85832 17.64597,4.63217 20.10201,4.40655c5.42506,-0.49839 14.09531,-1.863 18.09008,-1.41953z" fill="#ffdbb5" stroke="none" stroke-width="0"/></g><path d="M193.94423,153.39064c-9.55316,-1.98655 -43.7546,-8.60651 -43.7546,-8.60651c0,0 3.07349,-8.1474 5.26882,-11.46884c1.91195,-2.89274 -0.28633,-10.66711 -0.28633,-10.66711c0,0 27.53573,2.18667 35.17511,3.09948c7.60008,0.90806 28.1101,4.06746 28.1101,4.06746c0,0 7.14168,15.43618 0.27148,22.04364c-6.87023,6.60745 -15.44727,3.47356 -24.78458,1.5319z" fill="#403328" stroke="#292018" stroke-width="4"/></g><g data-paper-data="{&quot;index&quot;:null}" stroke-linecap="butt"><g fill="#d9bb9a" stroke="#917c67" stroke-width="4"><path d="M103.14971,142.81316c-2.79834,-3.27859 18.94515,-10.80978 18.94515,-10.80978c2.75402,-1.94816 8.78902,-5.00326 16.47488,-6.02589c8.20038,-1.09111 8.2753,-0.21796 10.55691,-0.84431c3.95836,-0.53125 13.35848,17.85165 10.60712,18.74022c-5.11402,0.70236 -19.49855,9.04466 -29.77084,11.26293c-12.8734,2.77998 -5.5678,1.03515 -6.02653,-0.5276c-0.4469,-1.52248 6.59674,-1.23444 6.01841,-3.73474c-0.23094,-0.99843 -2.92334,-0.33257 -7.96815,1.74687c-2.46334,1.01538 -6.30652,4.41945 -8.26558,5.03605c-4.77918,1.50428 -3.52625,-4.3463 -5.56314,-4.62017c-2.53316,-0.34059 -2.55605,-3.96029 -2.8326,-6.16455c-0.27343,-2.17935 -1.44365,-3.20149 -2.17558,-4.05903z"/></g><path d="M136.61391,136.44676c-3.74136,-6.13813 -6.64618,-12.05663 -6.64618,-12.05663l22.4941,-1.77998l10.21375,20.52404l-21.66654,7.7755c0,0 -0.41448,-7.93221 -4.39514,-14.46291z" fill="#403328" stroke="#292018" stroke-width="4"/><path d="M147.78249,126.04458l8.49955,-1.86513l11.28404,16.02089l-9.4336,1.96613z" fill="#403328" stroke="none" stroke-width="0"/></g><g data-paper-data="{&quot;index&quot;:null}"><path d="M330.73013,378.96509c-2.61445,1.55855 -5.04747,0.42922 -7.93142,2.2091c-1.61972,0.99964 -1.46773,3.24826 -2.8938,4.76891c-1.47789,1.5759 -4.51338,2.41165 -4.99694,2.68544c-2.61123,1.47862 -7.71587,-9.9609 -7.71587,-9.9609c0,0 -2.83876,-8.81573 -3.76945,-10.30092c-1.78142,-2.84279 -7.96171,-11.65782 -7.96171,-11.65782l26.50786,-21.09492l9.7977,7.56444c0,0 5.84255,1.40389 9.36687,-1.06137c4.66103,-3.2604 14.19263,-8.03799 18.18598,-7.36993c8.32226,1.39229 9.59911,0.62135 9.85671,2.64922c0,0 2.02842,3.04349 2.75799,4.95769c0.73509,1.92869 1.6361,6.57129 1.6361,6.57129c0,0 -31.97888,23.56511 -42.84001,30.03974z" fill="#403328" stroke="#292018" stroke-width="4" stroke-linecap="butt"/><path d="M365.19443,346.87124l4.17612,-2.97709l1.14529,3.43172c0,0 -5.45255,3.99452 -10.00541,7.45972c-3.99479,3.04044 -32.33791,24.60678 -31.81089,22.01465c0.0624,-0.3069 -4.80677,-0.73851 -8.2195,1.56749c-1.81237,1.22462 -2.19669,3.63537 -3.10563,5.23817c-0.79377,1.39974 -2.22804,2.08686 -2.22804,2.08686c0,0 -3.6519,-2.83577 -2.10917,-4.3032c2.79399,-2.65764 14.47798,-8.85656 25.28645,-16.0786c12.49634,-8.34983 26.87078,-18.43977 26.87078,-18.43977z" fill="#775f4a" stroke="none" stroke-width="0" stroke-linecap="butt"/><path d="M331.53866,343.9164c0,0 -3.297,5.59072 -5.88779,7.79826c-3.1404,2.67586 -4.88625,2.49963 -4.88625,2.49963l-8.50432,-6.74965l16.51565,-3.3547" fill="none" stroke="#292018" stroke-width="4" stroke-linecap="round"/><path d="M323.99201,339.00241l-3.05169,13.52217" fill="none" stroke="#292018" stroke-width="4" stroke-linecap="round"/></g><g data-paper-data="{&quot;index&quot;:null}" stroke-linecap="butt"><g fill="#465b9c"><path d="M281.43378,301.55106c-4.5655,3.19239 -17.20679,6.70538 -17.20679,6.70538c0,0 -9.81823,-9.71838 -15.93665,-16.34346c-5.81455,-6.29603 -21.25684,-29.0905 -21.25684,-29.0905l30.45075,-24.83487c0,0 19.55307,26.46595 23.37238,33.12101c1.80664,3.14801 6.39301,8.67299 8.54138,11.62875c2.36442,3.25297 2.11984,6.81671 2.11984,6.81671c0,0 -5.71996,8.94541 -10.08405,11.99697z" stroke="#2e3c67" stroke-width="4"/><path d="M234.22653,260.49113l-2.79194,-3.64623l20.31556,-15.39711l2.79193,3.64623z" stroke="none" stroke-width="0"/></g><path d="M274.70358,273.82421c2.55733,3.63416 4.47785,6.55674 5.87157,8.93778c1.90925,3.26177 5.45175,5.53421 5.66677,7.20067c0.35666,2.76418 -1.42502,5.19677 -3.66041,6.76979c-1.52171,1.0708 -5.09955,2.24526 -8.53577,0.69364c-6.87639,-3.10502 -18.21003,-13.7741 -27.13528,-24.25983c-15.02193,-17.64843 -24.41257,-27.14169 -12.40767,-35.8184c5.1921,-3.75266 13.83564,4.69263 22.97802,15.64947c3.8886,4.66037 13.68019,15.79256 17.22277,20.82689z" fill="#5671c0" stroke="none" stroke-width="0"/></g><g data-paper-data="{&quot;index&quot;:null}" stroke-linecap="butt"><g fill="#465b9c"><path d="M314.09667,350.20687c-4.77917,2.86263 -16.50797,7.93631 -16.50797,7.93631l-1.65758,-4.69099l-2.7305,-0.87237l-2.26277,-3.42713c0,0 -8.6176,-10.80563 -10.84903,-13.59275c-5.35628,-6.69023 -18.65592,-32.78289 -18.65592,-32.78289l28.26214,-16.5632c0,0 13.02183,18.81659 17.8965,24.74237c2.96652,3.60615 13.0548,19.27488 13.0548,19.27488l3.04035,2.43495l-0.29184,2.98638l3.66613,2.74151c0,0 -8.39599,9.07658 -12.96434,11.81295z" stroke="#2e3c67" stroke-width="4"/><path d="M271.31287,301.3928c0,0 -5.55547,3.34412 -5.99628,3.10764c-1.14072,-0.61194 -4.83666,-4.53305 -4.83666,-4.53305l25.73804,-15.73526l3.40711,5.06593z" stroke="none" stroke-width="0"/></g><path d="M298.64049,308.12125c5.78163,8.74779 17.01956,19.80722 15.57825,22.24486c-0.45246,0.76518 3.25549,1.74341 2.99778,3.73173c-0.25771,1.98831 -1.7656,3.49254 -4.21448,5.65606c-2.32857,2.05722 -6.10201,3.30595 -7.79782,3.44695c-4.3629,0.3627 -5.30977,-7.17914 -7.18228,-10.01228c-3.32125,-5.02517 -15.98846,-24.77044 -27.56733,-38.7219c-2.40131,-2.89336 3.80018,-3.50072 6.89108,-6.63637c2.64175,-1.48921 5.19196,-2.76655 8.22347,0.39741c3.45102,3.60178 9.99346,15.23659 13.07133,19.89354z" fill="#5671c0" stroke="none" stroke-width="0"/></g><g data-paper-data="{&quot;index&quot;:null}" stroke-width="4" stroke-linecap="butt"><g data-paper-data="{&quot;index&quot;:null}" fill="#403328" stroke="#292018"><g><path d="M244.13431,252.94889c-2.33621,1.76576 -5.69097,-0.31307 -5.69097,-0.31307c0,0 7.12781,-50.44519 9.06679,-68.54711c1.79667,-16.7733 3.21903,-25.58455 3.21903,-25.58455c0,0 -0.82659,-3.72832 1.23921,-8.35435c1.25645,-2.81359 3.82741,-2.52942 5.69981,-0.29379c1.87239,2.23561 2.04737,4.05269 2.67769,12.13343c0.22407,2.87261 -0.49018,11.26953 -1.03644,14.42447c-0.99166,5.72726 -4.82089,25.58098 -4.82089,25.58098l-5.664,42.79459c0,0 -2.35401,6.39366 -4.69023,8.15943z"/></g><path d="M249.6964,149.31829c-1.70629,1.75507 -3.46802,-9.52843 -3.46802,-9.52843l15.70026,1.52757l-1.51703,12.51761c0,0 -8.93808,-6.34468 -10.7152,-4.51675z"/></g><path d="M259.20536,173.85065c-0.26826,1.93739 -0.90817,3.41687 -1.4293,3.30452c-0.52114,-0.11234 -0.72616,-1.77396 -0.45789,-3.71136c0.26826,-1.93739 0.90817,-3.41687 1.4293,-3.30452c0.52114,0.11234 0.72616,1.77395 0.45789,3.71136z" fill="#dfbd28" stroke="#dfbd28"/><path d="M255.5173,195.16716c-0.26825,1.93738 -0.90817,3.41687 -1.4293,3.30452c-0.52114,-0.11234 -0.72616,-1.77396 -0.45789,-3.71136c0.26825,-1.93738 0.90817,-3.41687 1.4293,-3.30452c0.52114,0.11234 0.72616,1.77396 0.45789,3.71136z" fill="#dfbd28" stroke="#dfbd28"/><path d="M252.25821,216.96219c-0.26825,1.93738 -0.90817,3.41687 -1.4293,3.30452c-0.52114,-0.11234 -0.72616,-1.77396 -0.45789,-3.71136c0.26825,-1.93738 0.90817,-3.41687 1.4293,-3.30452c0.52114,0.11234 0.72616,1.77396 0.45789,3.71136z" fill="#dfbd28" stroke="#dfbd28"/><path d="M249.54164,237.00844c-0.26825,1.93738 -0.90817,3.41687 -1.4293,3.30452c-0.52114,-0.11234 -0.72616,-1.77396 -0.45789,-3.71136c0.26825,-1.93738 0.90817,-3.41687 1.4293,-3.30452c0.52114,0.11234 0.72616,1.77396 0.45789,3.71136z" fill="#dfbd28" stroke="#dfbd28"/></g><g><g><g><path d="M238.02851,279.48029c0,0 -15.45388,-11.689 -19.92192,-18.64259c-4.45106,-6.92713 -8.39586,-18.85326 -8.39586,-18.85326l29.20058,-21.42165c0,0 5.81026,5.087 10.09051,9.83098c4.57616,5.07195 16.53803,19.68259 16.53803,19.68259l0.25217,5.00278z" fill="#465b9c" stroke="#2e3c67" stroke-width="4" stroke-linecap="butt"/><path d="M239.13555,235.10853c0,0 3.62352,8.83382 4.64637,12.29552c0.7629,2.58187 0.94292,6.62028 0.94292,6.62028" fill="none" stroke="#2e3c67" stroke-width="4" stroke-linecap="round"/><path d="M242.44445,279.93419l-7.58916,-7.48819l26.67425,-22.0141l7.33166,8.106z" fill="#465b9c" stroke="none" stroke-width="0" stroke-linecap="butt"/></g><g fill="none" stroke="none" stroke-width="1" stroke-linecap="butt" font-family="sans-serif" font-weight="normal" font-size="12" text-anchor="start"/><g fill="none" stroke="none" stroke-width="1" stroke-linecap="butt" font-family="sans-serif" font-weight="normal" font-size="12" text-anchor="start"/></g><path d="M262.19724,262.88918c1.97187,2.30983 -10.13629,9.81942 -14.1971,13.2861c-2.17203,1.85425 -6.18775,-9.85986 -7.24534,-12.70679c-1.25781,-3.38586 4.28602,-5.35796 8.34683,-8.82464c4.06082,-3.46668 11.12375,5.93552 13.09563,8.24536z" fill="#5671c0" stroke="none" stroke-width="0" stroke-linecap="butt"/></g><path d="M206.26973,184.07368l8.98955,-23.75611c0,0 -11.12062,-5.49056 -7.39695,-11.11222c3.72367,-5.62162 2.49626,-7.20305 7.73624,-7.90223c10.66539,-1.42306 8.10402,-5.7891 17.16358,-4.84347c7.21376,0.75297 19.64267,6.70728 20.17743,26.64166c0.19927,7.4281 -9.99811,40.23804 -9.99811,40.23804l-2.94911,32.46944c0,0 -8.83536,10.12171 -32.18607,7.10774c-21.75971,-2.80861 -17.23851,-9.49315 -17.23851,-9.49315z" fill="#95d2a1" stroke="#67916f" stroke-width="4" stroke-linecap="butt"/><g data-paper-data="{&quot;index&quot;:null}"><path d="M113.62125,278.89052c1.98008,-2.31163 4.64633,-2.01813 6.81115,-4.62557c1.21583,-1.46442 0.35395,-3.54683 1.21995,-5.44317c0.89747,-1.96523 3.50731,-3.7263 3.87812,-4.14015c2.00258,-2.23485 10.49207,6.97644 10.49207,6.97644c0,0 5.50457,7.44817 6.86069,8.55854c2.59576,2.12532 11.26676,8.50608 11.26676,8.50608l-18.38637,28.45351l-11.6999,-4.04079c0,0 -5.985,0.53477 -8.5379,3.99614c-3.37627,4.57779 -10.88392,12.14828 -14.88159,12.79c-8.33127,1.33737 -9.29518,2.47559 -10.18667,0.63611c0,0 -2.89388,-2.23669 -4.19637,-3.81783c-1.31234,-1.59308 -3.64833,-5.7051 -3.64833,-5.7051c0,0 22.78256,-32.54103 31.00836,-42.14421z" fill="#403328" stroke="#292018" stroke-width="4" stroke-linecap="butt"/><path d="M91.20605,320.30748l-3.00718,4.15447l-2.18091,-2.88652c0,0 3.892,-5.52618 7.10039,-10.26351c2.81511,-4.15665 22.79022,-33.6428 23.11833,-31.01807c0.03885,0.31078 4.79102,-0.83465 7.28898,-4.10949c1.32657,-1.73912 0.92118,-4.14641 1.27084,-5.95553c0.30537,-1.57991 1.44522,-2.68896 1.44522,-2.68896c0,0 4.3661,1.52155 3.37256,3.40468c-1.79938,3.41053 -10.893,13.01512 -18.83031,23.30975c-9.17682,11.90228 -19.57794,26.05318 -19.57794,26.05318z" fill="#775f4a" stroke="none" stroke-width="0" stroke-linecap="butt"/><path d="M124.04405,312.36334c0,0 1.3397,-6.35072 3.09017,-9.26983c2.12182,-3.53839 3.83258,-3.92873 3.83258,-3.92873l10.21411,3.68153l-14.58046,8.45165" fill="none" stroke="#292018" stroke-width="4" stroke-linecap="round"/><path d="M131.33971,300.82219l1.42483,13.78882" fill="none" stroke="#292018" stroke-width="4" stroke-linecap="round"/></g><path d="M246.36916,172.34037c-0.79486,6.01031 -10.55297,37.30385 -10.43589,40.87273c0.40277,12.27758 -10.3387,8.15134 -15.33467,7.67836c-4.05219,-0.38363 -6.60078,3.61688 -10.36447,-0.58243c-2.92038,-3.25841 0.67902,-21.31609 3.79598,-33.73151c0.90005,-3.58503 2.56592,-17.40951 2.85802,-20.20782c0.31491,-3.01693 -10.04117,-7.12921 -11.20161,-10.36524c-0.42485,-1.18471 -3.72795,-5.26035 -3.70546,-6.44231c0.04403,-2.31429 8.07645,-2.51867 12.77528,-3.53205c4.6988,-1.01339 11.35598,-8.38237 18.00887,-7.68797c6.8532,0.71532 9.2537,4.69439 12.80182,13.33684c3.54812,8.64246 1.59709,14.65104 0.80221,20.66136z" fill="#a6eab4" stroke="none" stroke-width="0" stroke-linecap="butt"/><g stroke-linecap="butt"><path d="M225.0427,116.7629l21.835,13.43789l-0.62837,6.42288l0.97606,12.4471c0,0 -7.69691,1.00361 -16.62101,-0.03319c-8.64098,-1.00392 -13.29519,-10.61875 -13.29519,-10.61875z" fill="#d9bb9a" stroke="#917c67" stroke-width="4"/><path d="M238.11047,137.72301c-0.12815,1.22772 -2.51682,2.84062 -5.22618,2.55781c-2.70938,-0.2828 -4.71349,-2.35419 -4.58534,-3.58195c0.12815,-1.22772 2.34004,-1.14689 5.04941,-0.86407c2.70938,0.2828 4.89027,0.66046 4.76212,1.8882z" fill="#ffdbb5" stroke="none" stroke-width="0"/></g><g data-paper-data="{&quot;index&quot;:null}" stroke-linecap="butt"><g fill="#465b9c"><path d="M183.9103,313.95909c-4.55531,-3.20693 -12.15983,-13.89869 -12.15983,-13.89869c0,0 5.79793,-12.53908 9.946,-20.5466c3.94202,-7.6098 20.12234,-29.88648 20.12234,-29.88648l33.72653,10.17849c0,0 -0.07418,7.33735 -4.32266,15.70083c-5.61836,11.06022 -16.05915,24.21748 -18.88259,27.55189c-2.3455,2.76995 -5.98033,8.96254 -8.02876,11.9884c-2.25442,3.33012 -5.68874,4.31271 -5.68874,4.31271c0,0 -10.3579,-2.33505 -14.71225,-5.40053z" stroke="#2e3c67" stroke-width="4"/><path d="M206.45843,255.59793l2.47874,-3.86597l21.39073,13.86467l-2.47875,3.86596z" stroke="none" stroke-width="0"/></g><path d="M207.69295,298.19651c-2.54722,3.64126 -4.64198,6.44156 -6.40676,8.56227c-2.41756,2.90516 -3.34908,7.00946 -4.84296,7.77864c-2.47791,1.27588 -5.37156,0.42818 -7.61133,-1.13863c-1.52468,-1.06658 -3.84642,-4.03135 -3.55652,-7.7905c0.5801,-7.52255 6.7564,-21.81015 13.57979,-33.77058c11.48434,-20.13045 17.2161,-32.19085 29.45971,-23.85442c5.29533,3.60549 0.29486,14.60683 -6.89762,26.93175c-3.05923,5.24225 -10.19574,18.23731 -13.72432,23.28146z" fill="#5671c0" stroke="none" stroke-width="0"/></g><g data-paper-data="{&quot;index&quot;:null}" stroke-linecap="butt"><g fill="#465b9c"><path d="M129.24653,295.55422c1.01418,-5.47782 4.96685,-17.63033 4.96685,-17.63033l4.61463,1.85962l2.46035,-1.47084l4.06702,0.56977c0,0 13.80424,0.68413 17.37054,0.85407c8.56052,0.40798 20.37093,7.05889 20.37093,7.05889l10.28453,32.78532c0,0 -22.72556,-2.67974 -30.39417,-2.94328c-4.66678,-0.16039 -23.09109,-2.95814 -23.09109,-2.95814l-3.83722,0.66967l-2.04674,-2.19419l-4.48108,0.93623c0,0 -1.25396,-12.3006 -0.28452,-17.5368z" stroke="#2e3c67" stroke-width="4"/><path d="M181.07095,295.57086c0,0 -5.56603,-4.04392 -5.09708,-4.2181c1.21349,-0.45077 13.07833,-4.74087 13.07833,-4.74087c0,0 2.58218,14.87978 5.53709,20.45473c2.38903,4.5073 6.48078,12.22709 6.48078,12.22709l-26.06166,-5.90964z" stroke="none" stroke-width="0"/></g><path d="M171.03396,311.79935c-10.38503,-1.44995 -26.11279,-0.3367 -26.98768,-3.03005c-0.27462,-0.84546 -3.46088,1.28844 -4.78164,-0.21998c-1.32075,-1.50841 -1.45156,-3.63432 -1.4544,-6.90199c-0.00269,-3.10713 1.55666,-6.76317 2.57262,-8.12829c2.61377,-3.51207 8.89643,0.76628 12.25983,1.23588c3.35945,0.46906 22.42608,1.01079 30.22364,-0.31781c6.04929,-1.0307 8.01272,-3.77401 8.01272,-3.77401c0,0 10.21212,9.35387 10.51941,13.74609c-0.63048,2.96633 -2.42037,10.56428 -6.79848,10.74511c-4.98394,0.20587 -18.0375,-2.58304 -23.56602,-3.35495z" fill="#5671c0" stroke="none" stroke-width="0"/></g><g><g><g><g><path d="M194.55884,271.72776c0,0 -1.88569,-19.2847 0.19628,-27.28353c2.07401,-7.9684 8.16584,-18.95402 8.16584,-18.95402l40.55281,4.3679l-8.64854,42.15613l-3.50636,3.57726z" fill="#465b9c" stroke="#2e3c67" stroke-width="4" stroke-linecap="butt"/><path d="M227.92527,242.45727c0,0 -4.03663,8.65286 -5.88765,11.75177c-1.38056,2.31128 -4.22701,5.18167 -4.22701,5.18167" fill="none" stroke="#2e3c67" stroke-width="4" stroke-linecap="round"/><path d="M197.21923,275.28147l0.35881,-10.65549l34.74775,4.73906l-5.9317,15.64311z" fill="#465b9c" stroke="none" stroke-width="0" stroke-linecap="butt"/></g><g stroke="#281a0d" stroke-width="4" stroke-linecap="butt"><path d="M198.14625,231.35026c0,0 0.2033,-4.00138 0.70512,-5.61927c0.54228,-1.74828 2.75817,-3.61355 2.75817,-3.61355l10.39866,0.8873c0,0 2.92918,4.1857 2.73241,5.82958c-0.19674,1.64388 -3.91295,4.03375 -3.91295,4.03375z" fill="#3f2b1a"/><path d="M209.88107,233.6123l3.11647,-9.91746l10.77079,1.36059c0,0 2.92918,4.1857 2.73242,5.82959c-0.19674,1.64388 -3.91295,4.03374 -3.91295,4.03374z" fill="#67472a"/><path d="M222.74853,235.36678l2.87981,-9.73141l11.00744,1.17454c0,0 2.92917,4.18572 2.73242,5.82958c-0.19674,1.64388 -3.91294,4.03373 -3.91294,4.03373z" fill="#3f2b1a"/><path d="M236.51047,237.51871l1.55322,-10.61458l7.38569,0.84194c0,0 0.39162,4.01254 0.27639,5.66415c-0.11523,1.6516 -2.77109,4.02965 -2.77109,4.02965z" fill="#67472a"/></g><path d="M203.36724,233.54944l2.75277,-12.53135l6.14565,0.58609l-0.85055,12.75902z" fill="#465b9c" stroke="#2e3c67" stroke-width="4" stroke-linecap="butt"/><g fill="none" stroke="none" stroke-width="1" stroke-linecap="butt" font-family="sans-serif" font-weight="normal" font-size="12" text-anchor="start"/></g><path d="M218.45022,283.60011c-0.36091,3.01551 -14.66051,-6.35167 -19.96197,-6.9862c-2.83562,-0.33939 9.00492,-10.88453 10.38051,-13.59216c1.63599,-3.22021 6.84436,-0.48225 12.14582,0.15228c5.30144,0.63452 3.17896,12.20091 2.81805,15.21644z" fill="#5671c0" stroke="none" stroke-width="0" stroke-linecap="butt"/></g><path d="M244.62535,238.48996l1.55322,-10.61458l3.77908,0.41028c0,0 1.89438,4.1924 1.77914,5.84401c-0.11523,1.6516 -2.80706,4.3302 -2.80706,4.3302z" fill="#67472a" stroke="#281a0d" stroke-width="4" stroke-linecap="butt"/></g><g stroke="#292018" stroke-width="4"><g fill="#403328" stroke-linecap="butt"><g><path d="M188.12727,237.86181l11.5922,-34.34414l2.88516,-19.0497l4.99542,-27.35476l-1.88337,-4.80959c0,0 -8.50755,2.77152 -6.6089,0.47259c1.89868,-2.29892 8.65297,-10.16964 14.9076,-13.86369c2.44936,-1.44663 7.4137,1.01076 7.4137,1.01076l6.99488,3.75719l14.17651,4.18562c0,0 1.03808,3.57209 0.25879,10.76881c-0.55215,5.09914 -1.3071,11.07508 -2.41819,17.98205c-4.07481,17.64813 -10.02548,69.33958 -10.02548,69.33958c0,0 -7.42805,9.06734 -14.1936,7.67001c-2.0796,-0.42951 -17.23302,0.81543 -23.1297,-2.63805c-7.1248,-4.17274 -4.96494,-13.12674 -4.96494,-13.12674z"/></g><path d="M216.03255,137.11349l-0.50505,-9.38751l26.10783,13.38854l0.4223,6.82556c0,0 -10.47896,-1.38611 -12.85311,-3.72889c-2.47271,-2.44001 -13.17198,-7.09771 -13.17198,-7.09771z"/></g><path d="M234.8627,162.17832l-1.63985,9.046" fill="none" stroke-linecap="round"/><path d="M231.49611,184.43507l-0.60011,7.41543" fill="none" stroke-linecap="round"/><path d="M228.31808,213.49398l0.98007,-7.7236" fill="none" stroke-linecap="round"/><path d="M226.94264,226.3936l-1.06987,8.58376" fill="none" stroke-linecap="round"/></g><g><path d="M212.50063,108.74814c2.42309,-5.98994 5.02064,-24.44102 5.02064,-24.44102l80.44899,1.94672c0,0 0.19059,19.73965 1.73299,26.49827c1.00533,4.40519 2.60891,5.26848 2.60891,5.26848c0,0 -3.3326,5.61559 -6.56635,5.61662c-1.03557,0.00033 -3.25201,-0.0124 -4.71999,0.03328c-0.58559,0.01822 -1.09915,9.11206 -1.09915,9.11206c0,0 -4.00298,3.68647 -7.44176,3.7407c-1.4265,0.02248 -6.19047,-0.78724 -7.69998,-0.71979c-1.70113,0.07601 -5.18669,1.56176 -7.83668,2.44149c-4.28278,1.42179 -10.05963,0.92273 -10.05963,0.92273c0,0 -4.7648,-1.72425 -8.19588,-3.41194c-2.8355,-1.39473 -4.16088,-2.78208 -6.44803,-2.99449c-1.53238,-0.14231 -13.1843,2.43141 -14.03502,2.38861c-2.06886,-0.10408 -10.43808,-4.34756 -10.43808,-4.34756c0,0 1.97335,-6.69661 0.70998,-6.80725c-1.68675,-0.14773 -3.64395,-3.68716 -4.60374,-3.82136c-2.96758,-0.41497 -5.24766,-5.74336 -5.24766,-5.74336c0,0 2.08374,-1.26538 3.87046,-5.68218z" data-paper-data="{&quot;index&quot;:null}" fill="#14161a" stroke="#14161a" stroke-width="4" stroke-linecap="butt"/><path d="M219.53854,96.21317c0.64327,-26.4437 16.97159,-41.10822 40.17047,-40.54387c23.19889,0.56434 38.79484,16.00542 38.15158,42.44914c-0.64326,26.44372 -23.61563,44.02439 -34.1989,43.97478c-24.30172,-0.11391 -44.76643,-19.43631 -44.12315,-45.88004z" data-paper-data="{&quot;index&quot;:null}" fill="#d9bb9a" stroke="#917c67" stroke-width="4" stroke-linecap="butt"/><path d="M291.79154,98.50312c-0.51462,21.15497 -17.14038,37.99576 -27.87126,37.73472c-21.05207,-0.20013 -38.61216,-18.1845 -38.09753,-39.33949c0.51462,-21.15497 12.87949,-35.35222 34.2505,-34.83235c21.105,0.5134 32.23292,15.28215 31.71832,36.4371z" fill="#ffdbb5" stroke="none" stroke-width="0" stroke-linecap="butt"/><path d="M278.58836,115.69896c-0.05334,1.35092 -3.00946,4.3949 -6.2399,4.26734c-3.23044,-0.12755 -4.98178,-1.74177 -4.92844,-3.09267c0.05334,-1.35092 1.89114,-1.92698 5.12158,-1.79942c3.23044,0.12755 6.10006,-0.72617 6.04673,0.62476z" fill="#d9bb9a" stroke="none" stroke-width="0" stroke-linecap="butt"/><path d="M266.68629,134.5356c-5.30258,-0.26303 -10.1955,-5.72126 -9.20011,-10.0212c0.99538,-4.29994 6.9476,3.23559 10.7605,3.28054c3.72124,0.04386 11.32902,-6.57754 10.2884,-2.23642c-1.39497,5.81941 -6.54619,9.24011 -11.84878,8.97708z" fill="none" stroke="#d9bb9a" stroke-width="4" stroke-linecap="round"/><g data-paper-data="{&quot;index&quot;:null}" stroke="none" stroke-width="0" stroke-linecap="butt"><path d="M296.46666,104.40867c-0.28989,7.34192 -5.04724,13.1152 -10.62586,12.89493c-5.5786,-0.22027 -9.86596,-6.35064 -9.57608,-13.69256c0.28989,-7.34192 5.04725,-13.11518 10.62585,-12.89491c5.57861,0.22027 9.86596,6.35064 9.57608,13.69256z" fill="#d3f0f1"/><path d="M285.86265,91.69189c4.63025,0.18282 8.16854,5.78308 7.90299,12.50849c-0.26555,6.72542 -4.23439,12.02926 -8.86462,11.84644c-4.63025,-0.18282 -8.16853,-5.78306 -7.90298,-12.50848c0.26555,-6.72542 4.23438,-12.02927 8.86462,-11.84645z" fill="#ffffff"/></g><g data-paper-data="{&quot;index&quot;:null}" stroke="none" stroke-width="0" stroke-linecap="butt"><g data-paper-data="{&quot;index&quot;:null}"><path d="M292.35896,103.89625c-0.2271,5.7516 -3.71651,10.28366 -7.79379,10.12267c-4.0773,-0.16098 -7.19849,-4.95406 -6.9714,-10.70567c0.22709,-5.75159 3.71648,-10.28365 7.79377,-10.12267c4.0773,0.16098 7.19851,4.95409 6.97142,10.70567z" fill="#41563d"/><path d="M284.32927,110.58042c-3.76958,-0.14884 -6.25464,-5.31239 -6.12923,-8.48864c0.12541,-3.17625 1.73413,-8.80517 7.73241,-8.56833c3.76958,0.14884 6.60102,5.95308 6.47561,9.12932c-0.12541,3.17624 -4.30922,8.07648 -8.07879,7.92765z" fill="#5f7d59"/></g><path d="M278.9956,99.88231c0.09536,-2.41525 2.13062,-4.29591 4.54587,-4.20054c2.41525,0.09536 4.29591,2.13063 4.20054,4.54588c-0.09536,2.41526 -2.13063,4.29591 -4.54588,4.20054c-2.41525,-0.09536 -4.2959,-2.13062 -4.20053,-4.54588z" fill="#8ebb85"/><path d="M282.54484,104.40248c0.05275,-1.33609 1.17865,-2.37646 2.51474,-2.32371c1.33609,0.05275 2.37646,1.17865 2.32371,2.51474c-0.05275,1.33609 -1.17865,2.37647 -2.51474,2.32372c-1.33609,-0.05275 -2.37647,-1.17866 -2.32371,-2.51475z" fill="#8ebb85"/></g><g data-paper-data="{&quot;index&quot;:null}" stroke="none" stroke-width="0" stroke-linecap="butt"><path d="M249.21209,88.37629c6.61333,0.26112 11.73951,6.42461 11.44962,13.76656c-0.28989,7.34192 -5.88606,13.08205 -12.4994,12.82094c-6.61333,-0.26112 -11.73951,-6.4246 -11.44962,-13.76654c0.28989,-7.34192 5.88607,-13.08205 12.4994,-12.82094z" fill="#d3f0f1"/><path d="M259.80112,102.00719c-0.26556,6.72544 -4.93059,12.00178 -10.41965,11.78503c-5.48905,-0.21673 -9.72358,-5.84447 -9.45803,-12.56988c0.26555,-6.72542 4.9306,-12.00179 10.41966,-11.78504c5.48905,0.21673 9.72357,5.84447 9.45802,12.56989z" fill="#ffffff"/></g><g data-paper-data="{&quot;index&quot;:null}" stroke="none" stroke-width="0" stroke-linecap="butt"><g data-paper-data="{&quot;index&quot;:null}"><path d="M253.10718,91.3141c4.0773,0.16098 7.19849,4.95408 6.9714,10.70567c-0.2271,5.7516 -3.71648,10.28365 -7.79377,10.12267c-4.0773,-0.16098 -7.19851,-4.95406 -6.97142,-10.70567c0.22709,-5.75159 3.71649,-10.28365 7.79379,-10.12267z" fill="#41563d"/><path d="M245.36249,100.1933c0.12541,-3.17625 3.40566,-8.73917 7.17524,-8.59033c5.99828,0.23683 7.15819,5.97506 7.03279,9.15132c-0.12541,3.17624 -3.00987,8.12779 -6.77943,7.97895c-3.76958,-0.14884 -7.554,-5.36369 -7.42859,-8.53995z" fill="#5f7d59"/></g><path d="M254.40575,102.68951c-2.41525,-0.09536 -4.29591,-2.13063 -4.20054,-4.54588c0.09536,-2.41525 2.13063,-4.29592 4.54588,-4.20055c2.41525,0.09536 4.2959,2.13063 4.20055,4.54589c-0.09536,2.41525 -2.13062,4.29591 -4.54587,4.20054z" fill="#8ebb85"/><path d="M252.54231,105.03893c-1.33609,-0.05275 -2.37646,-1.17865 -2.32371,-2.51474c0.05275,-1.33609 1.17865,-2.37647 2.51474,-2.32372c1.33609,0.05275 2.37647,1.17866 2.32371,2.51475c-0.05275,1.33609 -1.17865,2.37646 -2.51474,2.32371z" fill="#8ebb85"/></g><path d="M226.84125,106.46697c0.87836,5.54201 2.08341,8.64113 0.59561,9.52987c-1.48779,0.88874 -7.51304,-3.20722 -8.39142,-8.74921c-0.87836,-5.54201 3.43059,-10.0576 5.16283,-10.11033c3.15291,-0.09597 1.75461,3.78765 2.63297,9.32967z" data-paper-data="{&quot;index&quot;:null}" fill="#d9bb9a" stroke="#917c67" stroke-width="4" stroke-linecap="butt"/><g data-paper-data="{&quot;index&quot;:null}"><g><path d="M219.72826,98.60677c-0.35889,2.70974 -5.08457,4.55074 -5.08457,4.55074c0,0 -2.94361,1.2827 -4.06711,-1.42564c-0.91501,-2.20577 -4.78064,-5.84985 -4.78064,-5.84985c0,0 1.70389,-2.64783 3.8487,-5.63814c0.55427,-0.77276 -3.30502,-3.15362 -4.3071,-4.77867c-1.00207,-1.62503 -2.67787,-9.61245 -2.67787,-9.61245c0,0 7.03147,-2.32492 8.81052,-6.80515c0.88276,-2.22305 1.01304,-5.8626 1.64795,-7.27063c3.6174,-8.02223 1.79638,-9.88306 6.19084,-13.98306c0.45925,-0.42847 8.59429,-5.62072 9.00507,-6.00756c7.1546,-6.73796 8.40618,-7.06087 18.95375,-7.75845c11.15316,-0.73763 19.48135,-4.17949 26.01255,-0.63854c4.26471,2.31217 14.92088,7.96903 22.33348,10.7552c6.88783,7.84094 9.65089,12.81409 10.09871,22.45752c0.14365,3.09351 -2.46121,5.16912 -1.28219,8.42765c0.53483,1.47812 7.67818,12.79428 7.67818,12.79428c0,0 -1.69176,3.66752 -3.90013,5.04678c-2.18798,1.36655 -4.51865,0.88037 -5.08052,2.01258c-1.2257,2.46984 -0.22362,5.07097 -0.66584,6.90763c-0.32172,1.33619 -0.91255,2.03779 -1.85675,3.26517c-1.59378,2.07178 -1.52805,-1.21592 -1.36131,-3.38173c0.31171,-4.04844 -0.55617,-6.96664 -0.57218,-6.31665c-1.59588,0.74622 -0.31266,0.76 -7.14741,-0.67761c-0.38016,-0.07996 -1.59958,-2.9564 -3.04947,-4.19444c-1.4499,-1.23802 -2.52843,-5.55303 -2.52843,-5.55303c0,0 -10.55402,4.54321 -15.08667,4.78524c-6.53933,0.34917 -14.12594,2.34585 -17.83596,1.83164c-9.06901,-1.25699 -13.09262,-2.4674 -16.69667,-2.68374c-3.35451,-0.20137 -9.36652,2.97705 -11.44942,1.96187c0,0 -4.67842,4.22203 -5.14953,7.77903z" fill="#252931" stroke="#14161a" stroke-width="4" stroke-linecap="butt"/><path d="M285.81416,76.69072c-23.88926,9.06094 -46.22105,4.60934 -65.20458,5.84919c-3.92989,0.25666 -5.10256,-2.97986 -5.10256,-2.97986c0,0 6.77986,-7.15261 7.17179,-17.0789c0.18863,-4.77737 6.48343,-14.63492 15.07639,-19.74077c7.14276,-4.24414 21.62767,-4.56152 28.7699,-5.82119c4.6255,-0.8158 4.33521,2.85924 8.49071,3.02331c11.79571,0.46574 10.51012,7.67824 14.08867,15.32759c2.60464,5.56758 0.12372,20.1257 -3.29034,21.42063z" fill="#494c5e" stroke="none" stroke-width="0" stroke-linecap="butt"/><path d="M276.91628,48.4616c0.05317,-1.34662 -5.56644,1.51602 -6.11807,-0.29061c-0.40487,-1.32593 2.01793,-3.27349 2.67192,-5.2281c0.18821,-0.5625 -0.56698,-2.77061 -2.63352,-4.08454c-1.72,-1.09358 -4.81624,-1.32433 -4.70027,-1.72524c0.47112,-1.62869 9.11887,0.07873 10.051,0.11554c3.70034,0.1461 16.723,10.79009 16.57225,14.60789c-0.00915,0.23161 4.15414,19.65524 -2.07678,27.56586c-0.89976,1.14232 -8.35283,0.85914 -8.69195,-1.22666c-0.10661,-0.65577 -4.45423,-1.91 -3.29545,-3.9801c1.57869,-2.82021 10.02255,-5.27947 9.76355,-6.05797c-0.73956,-2.22299 -13.58263,4.08439 -14.64205,0.85253c-1.05943,-3.23188 13.35679,-10.98173 11.33477,-13.41415c-3.13423,1.10614 -10.97872,6.12915 -12.00676,4.75289c-3.11536,-4.17059 3.62061,-8.06957 3.77135,-11.88737z" fill="#252931" stroke="none" stroke-width="0" stroke-linecap="butt"/><path d="M231.74708,79.31763c-0.67637,1.16564 1.82293,0.14982 3.66376,0.70934c1.84082,0.55955 8.08779,1.40767 6.59609,2.83003c-0.7866,0.75003 -10.80983,-0.58019 -11.44803,0.08078c-1.1777,1.21969 -3.81016,2.22596 -4.61701,1.7578c-1.94173,-1.12667 -10.80142,1.69232 -12.08254,-3.49954c-0.83221,-3.37256 5.16588,-9.40204 5.92099,-10.7034c0.11632,-0.20048 2.06827,-18.3889 11.27392,-22.47039c1.32931,-0.58937 9.72277,-2.7442 9.04774,-0.74173c-0.21223,0.62957 -5.46022,6.90574 -7.45213,8.19429c-2.71371,1.75544 -5.22794,3.24727 -5.36281,4.05655c-0.38511,2.31091 13.86988,-0.1967 13.34645,1.87943c-0.83146,3.2979 -16.03234,6.32264 -15.08586,7.73337c1.07919,1.60854 8.07734,-0.85463 15.1741,-2.06952c5.49626,-0.94091 11.6341,-0.76908 11.44694,0.32252c-0.17374,1.01341 -1.7431,3.61221 -3.59828,4.45414c-5.39758,2.44961 -15.39626,5.00688 -16.82331,7.46631z" fill="#252931" stroke="none" stroke-width="0" stroke-linecap="butt"/><path d="M293.59091,78.81639c0,0 -5.66458,5.79456 -6.63485,6.16173c-1.94022,0.73421 -5.90465,1.45984 -5.90465,1.45984" fill="none" stroke="#14161a" stroke-width="4" stroke-linecap="round"/><path d="M251.42259,49.68958c-0.46142,-3.14047 2.64598,-5.90709 6.42618,-6.4625c3.78019,-0.55543 9.25057,-1.36201 9.712,1.77844c0.46142,3.14047 -4.84015,7.5247 -8.62036,8.08011c-3.78018,0.55542 -7.05639,-0.25561 -7.51783,-3.39604z" fill="#686c85" stroke="none" stroke-width="0" stroke-linecap="butt"/><path d="M237.97367,54.90374c-0.26641,-1.81322 2.57155,-3.70542 4.75415,-4.02611c2.18259,-0.32068 4.39742,0.47227 4.6638,2.2855c0.26641,1.81322 -1.68716,2.88821 -3.86975,3.2089c-2.18259,0.32068 -5.2818,0.34494 -5.5482,-1.46829z" fill="#686c85" stroke="none" stroke-width="0" stroke-linecap="butt"/><path d="M263.6437,57.0894c-0.53743,-1.75211 0.66815,-2.40393 2.77718,-3.05085c2.10903,-0.64694 3.59286,-1.81854 4.13034,-0.06642c0.53743,1.75211 -1.23116,3.11007 -3.3402,3.75699c-2.10903,0.64694 -3.02985,1.11241 -3.5673,-0.63971z" fill="#686c85" stroke="none" stroke-width="0" stroke-linecap="butt"/></g><path d="M302.20315,87.86027c-1.57851,0.2657 0.01641,3.46107 -1.05992,3.41858c-1.13283,-0.04473 -2.90758,-2.15638 -4.16241,-3.72042c-1.60787,-2.00405 -2.35318,-3.1709 -2.30628,-4.35853c0.05096,-1.29063 0.2669,-0.30352 1.72258,-0.56961c0.92919,-0.16986 2.31633,-4.65533 3.32323,-4.61557c0.9593,0.03787 0.68794,2.1886 1.95651,4.13437c0.20176,0.30946 1.45175,-6.0602 2.40549,-3.68092c0.52912,1.31998 4.0449,4.62464 5.01293,8.53114c0.96803,3.9065 -3.70753,-2.08294 -4.88655,-1.25277c-1.17902,0.83013 1.74776,2.32669 1.70627,3.3774c0,0 -1.50019,-1.63591 -3.71187,-1.26365z" fill="#494c5e" stroke="none" stroke-width="0" stroke-linecap="butt"/><path d="M296.40366,58.24059c0.43326,1.00832 -1.03617,2.58268 -4.7093,4.161c-3.67313,1.57831 -5.01644,2.1188 -5.44971,1.11048c-0.43327,-1.0083 1.3422,-3.13877 5.01534,-4.71709c3.67313,-1.57831 4.71038,-1.5627 5.14365,-0.55438z" fill="#494c5e" stroke="none" stroke-width="0" stroke-linecap="butt"/></g><path d="M237.55905,85.34284c0.27888,-2.98959 3.0411,-4.80881 8.52338,-4.42624c5.48226,0.38256 17.25373,2.78864 16.97483,5.77822c-0.27888,2.98959 -7.22141,1.73952 -12.70367,1.35697c-5.48226,-0.38256 -13.07343,0.28063 -12.79455,-2.70893z" data-paper-data="{&quot;index&quot;:null}" fill="#424956" stroke="#14161a" stroke-width="4" stroke-linecap="butt"/><path d="M302.77916,88.16821c0.04231,3.00227 -7.47294,1.74259 -12.9683,1.6917c-5.49535,-0.05089 -12.51483,0.64789 -12.55713,-2.35438c-0.04231,-3.00227 11.88221,-4.47273 17.37758,-4.42186c5.49535,0.05087 8.10555,2.08224 8.14785,5.08449z" data-paper-data="{&quot;index&quot;:null}" fill="#424956" stroke="#14161a" stroke-width="4" stroke-linecap="butt"/></g><g stroke-linecap="butt"><g><g><path d="M150.20408,152.84246c8.10165,-1.67336 10.96059,-6.29598 13.19169,-7.08353c9.46178,-3.33983 34.08884,-9.5137 34.08884,-9.5137c0,0 7.69661,8.49042 7.5798,11.48343c-0.1642,4.20633 -9.80187,7.94689 -9.80187,7.94689c0,0 -4.70007,-3.44918 -28.23643,1.51542c-0.76256,0.16088 -6.18683,8.13588 -7.46576,7.71583c-7.19207,-2.36217 -17.39659,-7.11535 -10.94969,-8.44692z" fill="#d9bb9a" stroke="#917c67" stroke-width="4"/><path d="M151.80205,149.50533c1.01342,-0.05725 13.17744,11.55317 13.22336,11.67192c0.27565,0.71271 -2.71767,1.20326 -5.28402,2.19583c-2.56634,0.99259 -5.01544,2.37874 -5.29108,1.66604c-0.27566,-0.71272 -11.65751,-13.40747 -9.09117,-14.40005c2.13885,-0.82723 3.76648,-0.98252 6.44292,-1.13374z" fill="#d9bb9a" stroke="none" stroke-width="0"/><path d="M198.35181,152.27199c-3.9105,0.9289 -12.68256,0.63525 -18.12789,0.80437c-2.46517,0.07653 -12.08185,4.05682 -19.41188,6.8328c-0.63803,0.24164 -7.49544,3.54346 -7.8408,3.48483c-0.38015,-0.06453 -14.45774,-10.26162 -5.07275,-11.46194c5.51433,-0.70528 11.91929,-1.70819 16.70772,-3.00138c7.108,-1.91966 8.68985,-3.22459 18.85526,-5.63922c10.16543,-2.41463 18.59336,-3.68941 19.13791,-1.27934c0.54454,2.41006 5.91785,7.84522 -4.24758,10.25989z" fill="#ffdbb5" stroke="none" stroke-width="0"/></g><path d="M189.46915,132.90163c9.0296,-3.06944 23.00353,-4.12157 23.00353,-4.12157l4.20974,24.52096c0,0 -19.96946,5.64493 -27.40133,7.47599c-7.47032,1.84055 -15.75946,0.63235 -15.75946,0.63235c0,0 -17.5416,-1.23757 -19.7931,-3.87464c-2.58517,-3.0279 3.9254,-16.04516 3.9254,-16.04516c0,0 22.5768,-5.44749 31.81518,-8.58789z" fill="#403328" stroke="#292018" stroke-width="4"/></g><g><g><path d="M116.80565,170.04995c1.38925,-3.07408 11.48589,-7.24715 17.59712,-12.01909c6.52031,-5.09138 7.02682,-4.37624 8.67764,-6.07123c3.14506,-2.46158 20.55623,8.6355 18.633,10.79438c-4.05519,3.19403 -14.12265,15.34018 -21.85946,22.45233c-9.69589,8.91307 -4.32299,2.16081 -5.50957,1.04516c-1.15598,-1.08689 5.35615,-4.79016 3.59193,-6.65389c-1.04846,-1.10762 -5.44452,7.39122 -9.64321,12.03423c-3.36057,3.71619 -7.3374,4.03682 -9.23278,4.8315c-2.35715,0.9883 -3.43533,-1.53902 -4.78947,-3.30015c-1.3388,-1.74122 -2.96071,-2.70877 -4.02599,-3.07793c-4.0728,-1.41139 2.36308,-10.74702 6.56073,-20.03535z" fill="#d9bb9a" stroke="#917c67" stroke-width="4"/><path d="M155.78356,161.60399c-0.36935,0.11068 0.23887,1.47346 -7.2113,8.48901c-1.83555,1.72847 -2.70587,3.42989 -4.33969,4.36606c-3.21889,1.84442 -5.73614,0.92834 -7.17459,0.20472c-1.81027,-0.91069 -10.05001,9.9708 -14.27393,14.8026c-4.10302,4.69353 -3.38133,-2.50067 -4.45647,-1.85699c-4.64341,2.77993 -1.36297,-6.26149 -4.56603,-3.13147c-3.92848,3.83895 2.53956,-8.4465 6.50893,-13.82255c1.48047,-2.00509 6.82822,-3.04704 10.98663,-5.71285c4.15842,-2.66579 5.32236,-4.2275 13.20276,-9.46379c4.63026,-3.07668 13.80136,5.38286 11.32367,6.12523z" fill="#ffdbb5" stroke="none" stroke-width="0"/></g><path d="M126.18044,161.01548l33.15049,-20.31314l19.57651,12.73847l-29.78231,24.85869c0,0 -4.37208,-6.63146 -11.11055,-10.24932c-6.3334,-3.40037 -11.83413,-7.03471 -11.83413,-7.03471z" fill="#403328" stroke="#292018" stroke-width="4"/><path d="M156.62028,146.7926c0,0 0.40435,-2.1931 1.47851,-3.18716c1.05433,-0.97571 4.90807,-2.72318 4.90807,-2.72318l24.01215,13.23327l-13.35283,7.03138c0,0 -6.75894,-0.09167 -8.58308,-1.62777c-3.12412,-2.63081 -8.46283,-12.72654 -8.46283,-12.72654z" fill="#403328" stroke="none" stroke-width="0"/></g><path d="M213.08599,151.47302c-3.23969,-0.30821 -2.66085,-20.79269 -2.66085,-20.79269c0,0 10.99397,-0.57493 11.99458,-0.17306c1.05973,0.42561 4.48757,3.29777 4.48757,3.29777c0,0 -1.23508,9.7456 -4.63283,14.56727c-2.81543,3.99532 -7.72045,3.24038 -9.18847,3.10072z" fill="#403328" stroke="none" stroke-width="NaN"/></g><path d="M370.17908,287.29049l14.78741,0.75413c0,0 -0.78635,16.17849 -2.94709,25.41099c-2.58804,11.05828 -11.53181,36.45511 -11.53181,36.45511l-50.28741,9.24587c0,0 28.68803,-34.47035 37.68701,-48.04191c6.49984,-9.80255 12.29189,-23.82419 12.29189,-23.82419z" fill="url(#color-2)" stroke="none" stroke-width="0" stroke-linecap="butt"/></g></g></svg>