<svg version="1.1" xmlns="http://www.w3.org/2000/svg" xmlns:xlink="http://www.w3.org/1999/xlink" width="171.96435" height="310.06881" viewBox="0,0,171.96435,310.06881"><g transform="translate(-143.17455,-116.13034)"><g data-paper-data="{&quot;isPaintingLayer&quot;:true}" fill-rule="nonzero" stroke-linejoin="miter" stroke-miterlimit="10" stroke-dasharray="" stroke-dashoffset="0" style="mix-blend-mode: normal"><path d="M261.25135,286.30237c0,0 -13.03589,-6.70207 -18.34256,-16.38409c-6.1218,-11.16921 -7.88674,-42.62014 -7.88674,-42.62014" data-paper-data="{&quot;origRot&quot;:0,&quot;index&quot;:null}" fill="none" stroke="#000000" stroke-width="9" stroke-linecap="round"/><g stroke-linecap="butt"><path d="M302.67251,263.89762l-1.97512,-12.36173l4.36237,-0.69701l1.97512,12.36173z" fill="#ff9000" stroke="#d15600" stroke-width="3"/><path d="M248.69259,296.41421l-6.15325,-38.51152l58.892,-9.40959l2.88671,18.06714l-42.55629,7.2871l2.99229,20.00062z" fill="#00a2ff" stroke="#006bd2" stroke-width="3"/><text transform="translate(250.55104,268.59137) rotate(-9.07782) scale(0.14293,0.17136)" font-size="40" xml:space="preserve" fill="#006bd2" fill-rule="nonzero" stroke="none" stroke-width="1" stroke-linecap="butt" stroke-linejoin="miter" stroke-miterlimit="10" stroke-dasharray="" stroke-dashoffset="0" font-family="Marker" font-weight="normal" text-anchor="start" style="mix-blend-mode: normal"><tspan x="0" dy="0">blaster</tspan></text></g><path d="M248.51716,289.73059c0,0 -23.09281,-4.12283 -25.46245,-15.51559c-2.36964,-11.39274 12.24181,-48.04669 12.24181,-48.04669" data-paper-data="{&quot;origRot&quot;:0}" fill="none" stroke="#000000" stroke-width="9" stroke-linecap="round"/><path d="M234.96742,222.8232l0.44331,81.13702" data-paper-data="{&quot;origRot&quot;:0}" id="ID0.8172772801481187" fill="none" stroke="#000000" stroke-width="9" stroke-linecap="round"/><path d="M281.23156,414.67345l-13.07799,2.48591l-33.07751,-114.3783" data-paper-data="{&quot;origRot&quot;:0}" id="ID0.7014842056669295" fill="none" stroke="#000000" stroke-width="9" stroke-linecap="round"/><path d="M254.69825,421.09477l-12.42082,0.44894l-7.38216,-118.73199" data-paper-data="{&quot;origRot&quot;:0,&quot;index&quot;:null}" id="ID0.7014842056669295" fill="none" stroke="#000000" stroke-width="9" stroke-linecap="round"/><path d="M234.08933,149.29301c26.74364,-0.46063 48.78829,20.33782 49.23812,46.45467c0.44984,26.11684 -20.8655,47.66213 -47.60913,48.12277c-26.74364,0.46063 -48.78829,-20.33782 -49.23812,-46.45467c-0.44984,-26.11684 20.8655,-47.66213 47.60913,-48.12277z" data-paper-data="{&quot;index&quot;:null}" fill="#dbe6e9" stroke="#000000" stroke-width="9" stroke-linecap="butt"/><path d="M238.39418,157.55015c22.77388,-0.39226 41.55665,17.92101 41.9525,40.90382c0.39585,22.98283 -17.74511,41.93206 -40.51898,42.32431c-22.77388,0.39226 -41.55665,-17.92101 -41.9525,-40.90382c-0.39585,-22.98283 17.74511,-41.93206 40.51898,-42.32431z" data-paper-data="{&quot;index&quot;:null}" fill="#ffffff" stroke="none" stroke-width="0" stroke-linecap="butt"/><path d="M173.44253,181.47245l-13.86757,4.54677l-0.37444,-4.72098l-13.71826,-27.80262l28.62209,-2.72515c0,0 8.73123,-3.89176 13.58651,-8.1278c3.29581,-2.87546 7.29961,-10.09454 7.29961,-10.09454c0,0 5.47331,2.35335 6.55879,6.36211c0.6007,2.21842 -2.23822,9.59426 -2.23822,9.59426l11.28326,-10.88876c0,0 3.66631,-8.49247 8.17666,-8.20161c4.51035,0.29086 13.34582,9.58957 13.34582,9.58957l1.48649,-9.36289l3.33488,3.55452l1.45078,-4.79085l30.51431,-10.42498c0,0 4.31625,8.93743 2.30129,14.16154c-2.01496,5.22409 -10.32583,6.64332 -10.32583,6.64332c0,0 8.67256,-1.58462 13.50844,-3.28964c5.66195,-1.99627 13.39095,-6.19446 13.39095,-6.19446l1.0412,16.51701l21.44369,-16.17324c0,0 5.37149,23.83492 2.56331,36.88537c-2.94338,13.67881 -10.54993,21.47794 -23.11032,30.13653c-3.57366,2.46352 -4.33173,7.4972 -4.33173,7.4972l-17.92682,-11.10027c0,0 -10.67475,9.57466 -18.28015,10.94523c-7.60539,1.37058 -14.60582,-7.78663 -14.60582,-7.78663c0,0 -4.73855,8.39223 -11.62249,9.16664c-6.88396,0.77443 -19.16862,-2.7157 -19.16862,-2.7157c0,0 -4.76849,7.38737 -8.39124,9.06653c-3.62277,1.67916 -24.00854,5.95095 -24.00854,5.95095c0,0 1.20142,-3.39873 2.29763,-6.98594c1.19111,-3.89776 -8.3275,-1.00348 -8.3275,-1.00348z" data-paper-data="{&quot;index&quot;:null,&quot;origRot&quot;:0}" fill="#5ef3a3" stroke="#2abc90" stroke-width="3" stroke-linecap="butt"/><path d="M257.85374,204.34195c0.10756,6.24468 -1.37314,11.33398 -3.30724,11.36729c-1.9341,0.03331 -3.5892,-5.00198 -3.69675,-11.24666c-0.10756,-6.24468 1.37315,-11.33398 3.30725,-11.36729c1.9341,-0.03331 3.58919,5.00199 3.69674,11.24666z" fill="#000000" stroke="#000000" stroke-width="2" stroke-linecap="butt"/><path d="M241.34021,204.62637c0.10756,6.24468 -1.37315,11.33398 -3.30724,11.36729c-1.9341,0.03331 -3.5892,-5.00198 -3.69675,-11.24666c-0.10756,-6.24468 1.37315,-11.33398 3.30725,-11.36729c1.9341,-0.03331 3.58919,5.00199 3.69674,11.24666z" fill="#000000" stroke="#000000" stroke-width="2" stroke-linecap="butt"/><g fill="#5ef3a3" stroke="#2abc90" stroke-width="2.5" stroke-linecap="butt"><path d="M263.30622,248.92143c-0.54457,2.31607 5.11931,2.82429 1.11258,5.34152c-2.31399,1.45377 -4.19064,0.7576 -6.91433,0.98021c-8.17107,0.66782 -30.93794,2.08721 -50.52955,-0.38458c-6.11261,-0.7712 0.84798,-2.13616 0.92471,-4.408c0.0834,-2.4695 -10.13911,-1.73389 -2.04792,-6.74736c2.77326,-1.71839 38.29522,-3.76797 59.46983,-0.24556c9.02967,1.50209 -1.36309,2.68994 -2.0153,5.46377z" data-paper-data="{&quot;origPos&quot;:null}"/><path d="M210.67745,259.07109c4.83631,2.17529 1.59199,19.3068 -1.79293,26.56716c-3.38493,7.26036 -6.97683,3.90085 -11.81315,1.72556c-4.83631,-2.17529 -9.08563,-2.34263 -5.70069,-9.603c3.38493,-7.26036 14.47046,-20.86501 19.30677,-18.68972z" data-paper-data="{&quot;origPos&quot;:null,&quot;origRot&quot;:0,&quot;index&quot;:null}"/><path d="M201.42341,255.86083c2.18984,4.82974 -11.57166,15.53651 -18.91169,18.74504c-7.34004,3.20853 -7.8133,-1.6868 -10.00314,-6.51653c-2.18984,-4.82974 -5.26701,-7.765 2.07303,-10.97352c7.34004,-3.20853 24.65196,-6.08474 26.84181,-1.25499z" data-paper-data="{&quot;origPos&quot;:null,&quot;origRot&quot;:0,&quot;index&quot;:null}"/></g><g data-paper-data="{&quot;index&quot;:null,&quot;origRot&quot;:0}" id="ID0.16701374808326364" stroke="#000000" stroke-linecap="round"><path d="M244.13444,222.66027c1.66604,2.17911 -4.39844,6.05825 -7.2191,7.47521c-2.8206,1.41662 -5.83181,1.6457 -8.36239,0.35023c-2.53066,-1.29543 -4.5578,-4.20325 -4.60562,-6.98856c-0.02987,-2.11035 2.26898,-3.97004 4.1238,-3.91506c5.5123,-0.36054 13.44787,-0.33368 16.06331,3.07818z" id="ID0.38423543982207775" fill="#ff9999" stroke-width="0.67374"/><path d="M237.98925,228.49897c0.94671,0.7526 -1.79405,1.87949 -2.97419,2.13322c-2.24814,0.44909 -4.77378,0.22557 -6.86037,-0.59819c-1.5937,-0.62838 -3.24203,-2.00192 -3.88047,-3.71479c-0.53457,-1.10876 -0.44989,-3.81326 0.81622,-3.64507c4.67147,0.71596 9.37776,3.03861 12.89882,5.82484z" id="ID0.38423543982207775" fill="#ffcccc" stroke-width="0.3318"/></g></g></g></svg>