<svg version="1.1" xmlns="http://www.w3.org/2000/svg" xmlns:xlink="http://www.w3.org/1999/xlink" width="187.8" height="177.51579" viewBox="0,0,187.8,177.51579"><g transform="translate(-43.1,-24.1207)"><g data-paper-data="{&quot;isPaintingLayer&quot;:true}" fill-rule="nonzero" stroke-linejoin="miter" stroke-miterlimit="10" stroke-dasharray="" stroke-dashoffset="0" style="mix-blend-mode: normal"><path d="M210.79675,159.90316v0" fill="#ffffff" stroke="none" stroke-width="1" stroke-linecap="butt"/><path d="M65.74797,159.90316" fill="#ffffff" stroke="none" stroke-width="1" stroke-linecap="butt"/><path d="M230.9,139.7999c0,46.56829 -41.9878,61.58211 -93.9,61.58211c-51.9122,0 -93.9,-15.01382 -93.9,-61.58211c0,-21.88455 6.10732,-47.07724 19.59431,-67.43496l-10.94228,-36.89837c-2.03577,-6.87073 5.08943,-13.48699 11.70569,-10.6878l36.38943,15.26829c10.6878,-4.83496 22.90244,-7.63415 37.15285,-7.63415c13.99593,0 26.21057,3.05366 36.89837,7.88862l36.6439,-15.26829c6.61626,-2.79919 13.74146,3.81707 11.70569,10.6878l-11.19675,37.40732c13.48699,20.10325 19.84878,45.04146 19.84878,66.67154z" fill="#ff7319" stroke="none" stroke-width="1" stroke-linecap="butt"/><path d="M210.54228,169.3186c0,24.42927 -32.82683,32.31789 -73.54228,32.31789c-40.71545,0 -73.54228,-7.88862 -73.54228,-32.31789c0,-24.42927 21.88455,-56.23821 73.54228,-56.23821c50.38537,0 73.54228,31.80894 73.54228,56.23821z" fill="#ffffff" stroke="none" stroke-width="1" stroke-linecap="butt"/><path d="M128.85691,124.27714c0,-3.30813 3.5626,-4.32602 8.14309,-4.32602c4.58049,0 8.14309,1.01789 8.14309,4.32602c0,3.30813 -2.54472,7.37967 -8.14309,7.37967c-5.59837,0 -8.14309,-4.07154 -8.14309,-7.37967z" fill="#945600" stroke="#000000" stroke-width="1.5" stroke-linecap="butt"/><path d="M164.99187,134.96494c0,7.63415 -6.36179,13.99593 -13.99593,13.99593c-7.63415,0 -13.99593,-6.10732 -13.99593,-13.99593c0,-0.50894 0,-0.50894 0,-0.50894c0,-0.50894 0,-0.76341 0,-0.76341c0,0 0,0.25447 0,0.76341c0,0 0,0 0,0.50894c0,7.63415 -6.36179,13.99593 -13.99593,13.99593c-7.63415,0 -13.99593,-6.10732 -13.99593,-13.99593" fill="none" stroke="#000000" stroke-width="2.5" stroke-linecap="round"/><path d="M125.8252,97.36413c0,-4.35676 3.53186,-7.88862 7.88862,-7.88862c4.35676,0 7.88862,3.53186 7.88862,7.88862c0,4.35676 -3.53186,2.88862 -7.88862,2.88862c-4.35676,0 -7.88862,1.46814 -7.88862,-2.88862z" fill="#000000" stroke="none" stroke-width="1" stroke-linecap="butt"/><path d="M151.06423,97.0308c0,-4.35676 3.53186,-7.88862 7.88862,-7.88862c4.35676,0 7.88862,3.53186 7.88862,7.88862c0,4.35676 -3.53186,1.88862 -7.88862,1.88862c-4.35676,0 -7.88862,2.46814 -7.88862,-1.88862z" fill="#000000" stroke="none" stroke-width="1" stroke-linecap="butt"/><path d="M79.7439,54.04299c-5.08943,4.58049 -9.66992,8.9065 -13.48699,15.52276l-9.92439,-34.35366c-0.76341,-4.07154 3.05366,-7.63415 7.1252,-6.36179l32.82683,13.74146c-7.63415,3.05366 -11.70569,7.1252 -16.54065,11.45122z" fill="#77500c" stroke="none" stroke-width="1" stroke-linecap="butt"/><path d="M178.73333,42.59177l32.82683,-13.74146c4.07154,-1.27236 7.88862,2.29024 7.1252,6.36179l-9.66992,34.60813c-4.07154,-6.61626 -8.39756,-10.94228 -13.74146,-15.52276c-4.83496,-4.58049 -9.16098,-8.65203 -16.54065,-11.70569z" fill="#77500c" stroke="none" stroke-width="1" stroke-linecap="butt"/></g></g></svg>