<svg version="1.1" xmlns="http://www.w3.org/2000/svg" xmlns:xlink="http://www.w3.org/1999/xlink" width="343.06285" height="437.58038" viewBox="0,0,343.06285,437.58038"><defs><radialGradient cx="381.2997" cy="390.34561" r="135.5" gradientUnits="userSpaceOnUse" id="color-1"><stop offset="0" stop-color="#6d3900"/><stop offset="1" stop-color="#a36a2a"/></radialGradient></defs><g transform="translate(-173.73686,-13.41964)"><g data-paper-data="{&quot;isPaintingLayer&quot;:true}" fill-rule="nonzero" stroke-linejoin="miter" stroke-miterlimit="10" stroke-dasharray="" stroke-dashoffset="0" style="mix-blend-mode: normal"><path d="M222.14985,164.96666v-32h31v32z" fill="#ffe9cc" stroke="#000000" stroke-width="2.5" stroke-linecap="butt"/><path d="M245.7997,451.00001l40,-121.3088h198l33,121.3088z" fill="url(#color-1)" stroke="none" stroke-width="0" stroke-linecap="butt"/><path d="M239.88974,28.65771c4.95932,10.08711 -8.32124,17.59563 -24.84694,25.72048c-16.52571,8.12485 -33.75346,13.51395 -38.7128,3.42685c-4.95932,-10.08711 4.22777,-31.83065 20.75349,-39.9555c16.52571,-8.12485 37.84692,0.72107 42.80625,10.80819z" data-paper-data="{&quot;origRot&quot;:0}" fill="#2c1500" stroke="#000000" stroke-width="2.5" stroke-linecap="butt"/><path d="M299.39759,420.45977c13.02964,15.93595 -27.14402,8.80798 -38.97259,2.53996c-9.91505,-29.85095 -14.66508,-126.32142 -23.53186,-136.51853c-4.39373,-5.05293 -6.50092,134.56482 -9.91043,140.32781c-35.15474,17.28903 -53.25494,10.96413 -36.25976,-14.28033c8.07494,-28.0657 7.4192,-49.15326 4.07359,-78.16523c-3.50038,-30.35412 -7.59044,-58.46517 0.83508,-87.83584c6.65016,-23.18191 18.27762,-28.02704 42.39454,-28.02704c0,0 31.63502,4.36508 38.19303,28.06711c4.43904,16.04367 6.56092,42.7167 6.56092,90.89906z" fill="#ffffff" stroke="#000000" stroke-width="2.5" stroke-linecap="butt"/><path d="M203.7981,215.75664c0.02368,0.70043 -0.09905,1.27305 -0.27417,1.27895c-0.17509,0.00592 -0.33626,-0.55709 -0.35994,-1.25751c-0.02368,-0.70043 0.09907,-1.27305 0.27419,-1.27895c0.17509,-0.00592 0.33626,0.5571 0.35993,1.25751z" data-paper-data="{&quot;origRot&quot;:0}" fill="#e7e69d" stroke="none" stroke-width="2.5" stroke-linecap="butt"/><path d="M288.31917,103.91308c-2.76308,29.86885 -45.69033,45.44364 -57.77305,43.67003c-7.71486,-1.13247 -51.56599,-24.95341 -47.4947,-54.67221c7.38288,-53.89216 29.21084,-51.55604 58.27973,-48.51788c29.06887,3.03816 52.38128,1.21924 46.98802,59.52006z" data-paper-data="{&quot;origRot&quot;:0}" fill="#ffe9cc" stroke="#000000" stroke-width="2.5" stroke-linecap="butt"/><path d="M292.21378,96.79388c-0.05075,0.48549 -3.33622,-19.08617 -2.42749,-18.83016c-15.05315,5.86714 -13.48688,5.49185 -29.36879,8.45587c-51.58422,9.62709 15.28192,-13.38531 -3.15569,-15.29085c-0.06836,-0.00706 -49.84712,13.69341 -49.9155,13.68627c-2.63546,-0.27544 -25.86747,28.12459 -28.27361,27.01459c-7.21836,-3.33002 1.81917,-69.53152 24.60093,-76.65855c29.41397,-9.20183 48.53552,-6.79392 65.9983,0.98221c27.84149,12.39775 23.71116,49.45296 22.54187,60.64066z" data-paper-data="{&quot;origRot&quot;:0}" fill="#2c1500" stroke="#000000" stroke-width="2.5" stroke-linecap="butt"/><path d="M267.66712,170.40148l58.99358,-33.43662l9.38459,16.23462l-63.65464,36.16297" data-paper-data="{&quot;index&quot;:null}" fill="#ffe9cc" stroke="#000000" stroke-width="2.5" stroke-linecap="round"/><path d="M319.27099,143.2399c0,0 24.23309,-24.96038 28.51481,-25.83344c6.08256,-1.24028 -9.23887,15.05843 -9.23887,15.05843c0,0 4.13577,-1.22519 8.19475,-4.37807c5.80074,-4.50582 8.46337,-14.85796 18.52881,-7.03535c12.48779,9.70521 -25.74614,36.17335 -39.58259,36.0105" data-paper-data="{&quot;index&quot;:null}" fill="#ffe9cc" stroke="#000000" stroke-width="2.5" stroke-linecap="round"/><path d="M255.46637,134.23891c0,4.60237 -10.29306,8.33332 -16,8.33332c-5.70694,0 -13.33334,-2.21582 -13.33334,-6.81818c0,-4.60237 7.6264,-9.84849 13.33334,-9.84849c5.70694,0 16,3.73097 16,8.33334z" fill="#ffffff" stroke="#000000" stroke-width="2.5" stroke-linecap="butt"/><path d="M207.13303,108.40557c0,-11.87412 2.99462,-26.52246 14.16667,-22.5c0.9258,0.33334 28.83333,15.88501 28.83333,22.5c0,11.87412 -9.62588,21.5 -21.5,21.5c-11.87412,0 -21.5,-9.62588 -21.5,-21.5z" fill="#ffffff" stroke="#000000" stroke-width="2.5" stroke-linecap="butt"/><path d="M275.96637,126.90557c-11.87412,0 -21.5,-9.62588 -21.5,-21.5c0,-6.61499 27.90753,-22.16666 28.83333,-22.5c3.17205,-1.02246 5.83333,10.29254 5.83333,22.16666c0,11.87412 -12.62588,21.83334 -13.16667,21.83334z" data-paper-data="{&quot;index&quot;:null}" fill="#ffffff" stroke="#000000" stroke-width="2.5" stroke-linecap="butt"/><path d="M239.63303,100.90557c0,-1.19661 0.97005,-2.16667 2.16667,-2.16667c1.19662,0 2.16667,0.97006 2.16667,2.16667c0,1.19661 -0.97005,2.16666 -2.16667,2.16666c-1.19662,0 -2.16667,-0.97005 -2.16667,-2.16666z" fill="#000000" stroke="none" stroke-width="0" stroke-linecap="butt"/><path d="M273.46637,93.07223c0,-1.19661 0.97005,-2.16667 2.16667,-2.16667c1.19662,0 2.16667,0.97006 2.16667,2.16667c0,1.19661 -0.97006,2.16667 -2.16667,2.16667c-1.19662,0 -2.16667,-0.97005 -2.16667,-2.16667z" fill="#000000" stroke="none" stroke-width="0" stroke-linecap="butt"/><path d="M175.7997,69.57223c0,0 10.16482,-1.50184 15.5,3.83334c5.33518,5.33518 3.83333,15.5 3.83333,15.5" fill="none" stroke="#ff0000" stroke-width="2.5" stroke-linecap="butt"/><path d="M205.3693,86.3026c0,0 -4.99045,-8.9819 -1.87984,-15.85594c3.11061,-6.87404 13.15191,-9.05382 13.15191,-9.05382" fill="none" stroke="#ff0000" stroke-width="2.5" stroke-linecap="butt"/><path d="M207.33653,50.91726c0,0 -3.62161,9.61577 -10.87595,11.69008c-7.25434,2.07431 -15.41194,-4.1733 -15.41194,-4.1733" fill="none" stroke="#ff0000" stroke-width="2.5" stroke-linecap="butt"/><path d="M227.48319,134.21343h14" fill="none" stroke="#000000" stroke-width="2.5" stroke-linecap="round"/><path d="M233.81652,137.21343v-6.66667" fill="none" stroke="#000000" stroke-width="2.5" stroke-linecap="round"/><path d="M190.03017,246.98313c0,0 12.0792,-44.9772 8.60417,-58.84496c-0.99304,-3.96289 -6.34546,-15.56092 -8.77042,-25.98804c-2.42496,-10.42712 -4.38295,-13.2527 -0.05159,-11.94585c9.30463,-4.55726 32.25376,-7.11853 32.25376,-7.11853c0,0 13.69371,12.09991 26.48762,10.2667c14.28058,-2.04626 -1.34683,-10.60663 1.30625,-12.69128c0.88704,0.26767 0.47513,-1.74409 1.57672,-1.60171c0.20214,0.02612 13.67484,0.20283 18.19172,3.11989c3.68792,2.3817 -0.41375,27.24441 0.53589,34.01777c2.98255,21.27255 5.4625,59.6533 5.4625,59.6533c0,0 -14.15463,9.69326 -26.7747,11.33462c-4.20669,0.5471 -58.82195,-0.20195 -58.82195,-0.20195z" data-paper-data="{&quot;origRot&quot;:0}" fill="#fffeae" stroke="#000000" stroke-width="2.5" stroke-linecap="butt"/><path d="M196.13794,209.42369c0.09941,0.69375 0.03942,1.27629 -0.13403,1.30112c-0.17341,0.02485 -0.39462,-0.51739 -0.49403,-1.21112c-0.09941,-0.69375 -0.0394,-1.27629 0.13405,-1.30113c0.17341,-0.02485 0.39462,0.5174 0.49402,1.21113z" data-paper-data="{&quot;origRot&quot;:0}" fill="#e7e69d" stroke="none" stroke-width="2.5" stroke-linecap="butt"/><path d="M225.01772,160.35434c0,0 24.45942,7.13641 34.64302,4.5606c12.00252,-3.03588 32.81612,-21.62352 32.81612,-21.62352l11.7727,14.59578c0,0 -29.70116,21.74502 -39.62791,24.45737c-16.41671,4.48564 -49.61549,-0.07283 -49.61549,-0.07283" fill="#ffe9cc" stroke="#000000" stroke-width="2.5" stroke-linecap="round"/><path d="M289.14284,149.36505c0,0 20.10023,-28.39443 24.19643,-29.91645c5.81901,-2.16216 -6.80973,16.30156 -6.80973,16.30156c0,0 3.89774,-1.84747 7.42279,-5.58781c5.03768,-5.34537 6.07435,-15.98406 17.22437,-9.80479c13.83337,7.66635 -19.8685,39.70663 -33.56496,41.67649" fill="#ffe9cc" stroke="#000000" stroke-width="2.5" stroke-linecap="round"/><path d="M234.06987,151.70376l4.65809,10.65609c0,0 -7.69812,17.57346 -13.87275,20.07252c-5.59586,2.2648 -17.90278,3.41293 -17.90278,3.41293l-2.77108,-22.60135" fill="#fffeae" stroke="#000000" stroke-width="2.5" stroke-linecap="round"/></g></g></svg>