<svg version="1.1" xmlns="http://www.w3.org/2000/svg" xmlns:xlink="http://www.w3.org/1999/xlink" width="221.02756" height="360.81971" viewBox="0,0,221.02756,360.81971"><g transform="translate(-167.28917,-34.91973)"><g data-paper-data="{&quot;isPaintingLayer&quot;:true}" fill-rule="nonzero" stroke-linejoin="miter" stroke-miterlimit="10" stroke-dasharray="" stroke-dashoffset="0" style="mix-blend-mode: normal"><path d="M221.20187,179.87329v-10.66789h26.02963v10.66789z" fill="#ffd5a1" stroke="#525252" stroke-width="1" stroke-linecap="butt"/><path d="M246.08358,171.09485l0.19243,7.79307c0,0 -22.25675,0.35983 -22.25675,0.06415c0,-2.19628 -2.8905,-11.09631 -1.02625,-11.09631c4.1066,0.14509 23.09058,3.23909 23.09058,3.23909z" fill="#e7c091" stroke="none" stroke-width="0" stroke-linecap="butt"/><g data-paper-data="{&quot;index&quot;:null}" stroke-width="1" stroke-linecap="butt"><path d="M346.37528,245.65234c2.6264,-3.77107 7.89097,-4.6444 11.75871,-1.95068c3.86774,2.69373 4.87409,7.93452 2.2477,11.70558c-2.6264,3.77107 -7.89098,4.64441 -11.75873,1.95067c-3.86774,-2.69373 -4.87409,-7.9345 -2.24768,-11.70558z" data-paper-data="{&quot;origPos&quot;:null}" fill="#ffd4a0" stroke="#e7c091"/><path d="M345.8418,257.64331l-102.74924,-67.91963c0,0 3.47125,-15.08745 9.89998,-15.39511c14.61659,-0.6995 23.03957,6.4194 34.57354,14.50363c18.81635,13.18846 70.53727,51.76733 70.53727,51.76733z" data-paper-data="{&quot;origRot&quot;:0,&quot;origPos&quot;:null}" fill="#e80000" stroke="#740000"/></g><path d="M242.39109,373.87844v-80.22249h27.87874v80.22249z" fill="#4d87ff" stroke="#0046d1" stroke-width="1" stroke-linecap="butt"/><path d="M201.42641,374.47709v-80.22249h27.87875v80.22249z" fill="#4d87ff" stroke="#0046d1" stroke-width="1" stroke-linecap="butt"/><path d="M201.01849,306.94764v-126.61524h69.80692v126.61528z" fill="#e80000" stroke="#740000" stroke-width="1" stroke-linecap="butt"/><path d="M192.97932,382.37281c0.46801,-12.48895 20.56183,-11.36061 28.62881,-11.36061c8.06698,0 9.15343,5.86536 9.15343,12.13964c0,6.27433 -7.31858,11.75016 -15.38556,11.75016c-8.06696,0 -22.98329,3.12597 -22.39666,-12.52916z" data-paper-data="{&quot;index&quot;:null}" fill="#c58d3b" stroke="#1c1100" stroke-width="1" stroke-linecap="butt"/><path d="M167.28917,379.59766z" fill="#c58d3b" stroke="#784800" stroke-width="1" stroke-linecap="butt"/><path d="M278.89318,382.45571c0.58664,15.65513 -14.3297,12.52913 -22.39666,12.52913c-8.06698,0 -15.38556,-5.47581 -15.38556,-11.75014c0,-6.27428 1.08645,-12.13964 9.15343,-12.13964c8.06698,0 28.1608,-1.12833 28.62876,11.36062z" fill="#c58d3b" stroke="#1c1100" stroke-width="1" stroke-linecap="butt"/><path d="M207.76712,200.7336v-19.42735h8.53431v19.42735z" fill="#e80000" stroke="none" stroke-width="0" stroke-linecap="butt"/><path d="M264.87115,197.89149v-18.97833h8.5343v18.97837z" fill="#e80000" stroke="none" stroke-width="0" stroke-linecap="butt"/><g data-paper-data="{&quot;index&quot;:null}"><path d="M240.22354,173.74673c-40.13904,-8.23665 -66.39846,-45.51604 -58.65209,-83.26585c7.74637,-37.74981 46.56515,-61.67497 86.70419,-53.43832c40.13904,8.23665 66.39846,45.51604 58.65209,83.26585c-7.74637,37.74981 -46.56515,61.67497 -86.70419,53.43832z" data-paper-data="{&quot;index&quot;:null}" fill="#e7c091" stroke="#525252" stroke-width="1" stroke-linecap="butt"/><path d="M323.28759,127.73956c-5.60817,21.74343 -18.42107,32.35484 -39.08956,41.13216c-14.15409,6.01083 -23.01385,6.32928 -38.28544,4.52724c-26.58672,-3.13722 -50.44112,-37.06155 -53.30055,-63.45607c-2.68928,-24.82393 -1.08022,-36.82553 25.14402,-31.44424c0,0 9.90594,-1.70024 -0.45521,4.68979c-4.304,2.65443 23.0961,-0.60923 36.46485,4.75357c0,0 6.46136,0.1494 -3.37675,6.43353c-10.76269,6.87471 22.18241,-3.2804 31.51733,1.29451c0,0 -10.04263,-0.77474 -5.22881,9.04504c0,0 21.06075,3.275 27.75004,2.87965c9.17235,-0.5421 22.33039,-7.41548 22.33039,-7.41548c0,0 1.06776,9.96166 -0.14064,16.87939c-0.66393,3.80069 -1.68618,4.30897 -3.32969,10.68089z" data-paper-data="{&quot;index&quot;:null}" fill="#ffd5a1" stroke="none" stroke-width="0" stroke-linecap="butt"/><path d="M267.91495,37.76717c17.41672,3.57397 26.27432,8.33523 39.50901,20.20781c8.96938,8.04627 14.53995,14.44113 20.38423,24.97855c2.58774,4.66588 1.57682,12.65083 1.57682,12.65083c-2.50171,7.15429 -42.56982,7.52494 -42.56982,7.52494c-6.36586,-1.96417 25.08451,-17.07001 16.57247,-14.51483c-8.51202,2.55521 -40.50684,3.26919 -40.50684,3.26919c-11.12581,-2.12556 32.24067,-16.53039 16.18615,-16.3223c-16.05455,0.20803 -52.14051,7.11108 -52.14051,7.11108c-9.35058,-1.91877 26.77455,-15.36132 17.48666,-17.56343c-9.9353,-2.35563 -13.86245,0.17744 -24.55364,3.42137c-7.54931,2.29059 -33.56578,13.45499 -31.97995,5.72688c2.8645,-13.95936 16.85466,-22.85979 29.27095,-29.85294c13.95252,-7.85837 35.07805,-9.85603 50.76454,-6.63712z" data-paper-data="{&quot;index&quot;:null}" fill="#ffef4d" stroke="#716a22" stroke-width="1" stroke-linecap="butt"/><path d="M291.6486,129.21331c-2.41928,11.78971 -6.43904,20.92472 -8.97834,20.40365c-2.53932,-0.52108 -2.63663,-10.50094 -0.21735,-22.29063c2.41928,-11.78971 6.43904,-20.92472 8.97834,-20.40365c2.53932,0.52108 2.63663,10.50094 0.21735,22.29063z" data-paper-data="{&quot;index&quot;:null}" fill="#000000" stroke="#1c1c1c" stroke-width="1" stroke-linecap="butt"/><path d="M304.74748,110.33976c2.53932,0.52107 2.63665,10.50094 0.21737,22.29063c-2.41928,11.7897 -6.43904,20.92474 -8.97836,20.40366c-2.53931,-0.52108 -2.63662,-10.50094 -0.21734,-22.29065c2.41928,-11.78971 6.43899,-20.92473 8.97834,-20.40365z" data-paper-data="{&quot;index&quot;:null}" fill="#000000" stroke="#1c1c1c" stroke-width="1" stroke-linecap="butt"/><path d="M248.59046,150.00744l26.20523,11.61162" fill="none" stroke="#000000" stroke-width="1" stroke-linecap="round"/><path d="M295.9288,113.88313l-7.65175,-13.34592" fill="none" stroke="#000000" stroke-width="1.5" stroke-linecap="round"/></g><g stroke-width="1" stroke-linecap="butt"><path d="M363.98237,192.72486c4.69692,0.39309 8.1939,4.42418 7.81064,9.00371c-0.38326,4.57952 -4.50161,7.97331 -9.19854,7.58023c-4.69692,-0.39309 -8.19387,-4.4242 -7.81062,-9.00372c0.38326,-4.57952 4.50161,-7.9733 9.19852,-7.58022z" data-paper-data="{&quot;origPos&quot;:null}" fill="#ffd4a0" stroke="#e7c091"/><path d="M360.5918,211.67813c0,0 -64.44045,-3.28711 -87.3441,-5.13509c-14.03937,-1.13273 -25.06723,-1.02419 -35.87681,-10.88757c-4.75435,-4.33817 2.19771,-18.17112 2.19771,-18.17112l122.45412,13.24649z" data-paper-data="{&quot;origRot&quot;:0,&quot;origPos&quot;:null}" fill="#e80000" stroke="#740000"/></g><g stroke-linecap="butt"><g data-paper-data="{&quot;origPos&quot;:null}" stroke="none"><path d="M368.79401,211.7931c-2.70233,-10.56759 -3.03991,-27.05227 -3.03991,-27.05227l7.62831,-1.15644c0,0 9.05799,15.33472 11.12102,23.40237c2.70233,10.56758 5.34966,34.93116 2.59591,35.83765c-5.11478,1.6837 -15.60301,-20.46372 -18.30534,-31.03129z" data-paper-data="{&quot;origRot&quot;:0,&quot;origPos&quot;:null}" fill="#000000" stroke-width="NaN"/><path d="M377.84325,232.13752l4.05142,-1.46548c1.22514,-0.50696 5.78049,-2.19414 5.78049,-2.19414c0,0 0.17351,3.395 0.43334,4.9554c0.67818,4.07285 -0.50549,9.896 -0.64213,10.0411c-1.23059,1.30668 -3.64322,-2.40085 -6.15606,-4.76737c-2.51284,-2.36652 -3.46703,-6.56951 -3.46703,-6.56951z" data-paper-data="{&quot;origPos&quot;:null}" fill="#252525" stroke-width="0"/></g><text transform="translate(382.73599,228.60437) rotate(-102.57465) scale(0.11764,0.11764)" font-size="40" xml:space="preserve" data-paper-data="{&quot;origRot&quot;:-11.57517}" fill="#ffffff" fill-rule="nonzero" stroke="#797979" stroke-width="2" stroke-linecap="butt" stroke-linejoin="miter" stroke-miterlimit="10" stroke-dasharray="" stroke-dashoffset="0" font-family="Pixel" font-weight="normal" text-anchor="start" style="mix-blend-mode: normal"><tspan x="0" dy="0">Non-Branded Pen</tspan></text></g></g></g></svg>