<svg version="1.1" xmlns="http://www.w3.org/2000/svg" xmlns:xlink="http://www.w3.org/1999/xlink" width="22.125" height="24.625" viewBox="0,0,22.125,24.625"><g transform="translate(-228.9375,-166.4375)"><g data-paper-data="{&quot;isPaintingLayer&quot;:true}" fill-rule="nonzero" stroke-linejoin="miter" stroke-miterlimit="10" stroke-dasharray="" stroke-dashoffset="0" style="mix-blend-mode: normal"><path d="M237.125,171.3125v-3.875h5.75v3.875z" fill="#ffffff" stroke="#000000" stroke-width="2" stroke-linecap="butt"/><path d="M229.9375,180c0,-5.55737 4.50513,-10.0625 10.0625,-10.0625c5.55737,0 10.0625,4.50513 10.0625,10.0625c0,5.55737 -4.50513,10.0625 -10.0625,10.0625c-5.55737,0 -10.0625,-4.50513 -10.0625,-10.0625z" fill="#ffffff" stroke="#000000" stroke-width="2" stroke-linecap="butt"/><path d="M240.00001,189.17857c0,0 -5.05993,-0.44509 -6.73995,-2.07759c-1.31485,-1.27766 -2.51586,-6.91641 -2.51586,-6.91641c0,0 0.64903,-5.69549 2.32442,-7.39031c1.32884,-1.34425 6.93138,-1.97283 6.93138,-1.97283v18.35714z" fill="#000000" stroke="#000000" stroke-width="0.5" stroke-linecap="round"/><g fill="#000000" stroke="none" stroke-width="0" stroke-linecap="round"><path d="M246.51785,186.51785c0,0 -1.66532,2.14048 -2.73534,2.57728c-1.10168,0.44973 -3.78251,0.08343 -3.78251,0.08343v-9.07742z" data-paper-data="{&quot;index&quot;:null}"/></g></g></g></svg>