<svg version="1.1" xmlns="http://www.w3.org/2000/svg" xmlns:xlink="http://www.w3.org/1999/xlink" width="346.9059" height="315.66124" viewBox="0,0,346.9059,315.66124"><g transform="translate(-55.94057,-12.59376)"><g data-paper-data="{&quot;isPaintingLayer&quot;:true}" fill-rule="nonzero" stroke-linejoin="miter" stroke-miterlimit="10" stroke-dasharray="" stroke-dashoffset="0" style="mix-blend-mode: normal"><g data-paper-data="{&quot;index&quot;:null}" stroke-linecap="butt"><g><path d="M146.76517,140.69901c-6.58205,0.11139 -1.61498,-15.04487 4.88589,-18.92354c1.156,-0.68972 7.65826,-0.28164 8.43751,-0.29153c24.05232,-0.30591 28.71583,-1.97367 28.71583,-1.97367c0,0 9.92622,5.00147 11.00683,9.06994c0.7689,2.89493 -4.88335,12.86373 -4.88335,12.86373c0,0 -25.38117,-0.63541 -35.34446,-1.82388c-2.34936,-0.28025 -4.54684,0.93896 -12.8183,1.07897z" fill="#d9bb9a" stroke="#917c67" stroke-width="4"/><path d="M140.91607,138.80489c-2.72135,-0.40696 5.60683,-15.28463 5.71986,-16.04039c0.11302,-0.75577 2.80608,0.06094 5.52742,0.46789c2.72134,0.40696 5.74946,0.23063 5.63645,0.98637c-0.01884,0.12591 -9.3475,14.11666 -10.34889,14.28255c-2.64466,0.4381 -4.26681,0.64275 -6.53484,0.30356z" fill="#d9bb9a" stroke="none" stroke-width="0"/><path d="M192.26714,125.61582c10.44744,0.13171 6.39364,6.61098 6.38969,9.08179c-0.00397,2.47081 -8.50662,3.07111 -18.95406,2.93939c-10.44743,-0.13172 -12.27648,-1.05891 -19.63228,-1.37667c-4.95537,-0.21408 -11.42455,0.20884 -16.95958,0.72728c-9.4202,0.88237 2.08491,-12.14803 2.44174,-12.29416c0.32417,-0.13278 7.73791,1.58851 8.41334,1.68469c7.75984,1.10474 18.01439,2.88428 20.43659,2.41956c5.35032,-1.02655 13.84556,-3.23252 17.86454,-3.18184z" fill="#ffdbb5" stroke="none" stroke-width="0"/></g><path d="M187.83837,146.4604c-9.70164,-1.04278 -44.38654,-4.28628 -44.38654,-4.28628c0,0 2.26199,-8.40892 4.12197,-11.92913c1.61989,-3.06585 -1.32815,-10.58797 -1.32815,-10.58797c0,0 27.61759,-0.51666 35.30962,-0.35532c7.65245,0.16046 28.37314,1.29894 28.37314,1.29894c0,0 8.61702,14.66377 2.42593,21.91142c-6.19113,7.24765 -15.03353,4.96758 -24.51596,3.94836z" fill="#403328" stroke="#292018" stroke-width="4"/></g><g data-paper-data="{&quot;index&quot;:null}" stroke-linecap="butt"><g fill="#d9bb9a" stroke="#917c67" stroke-width="4"><path d="M96.44464,144.81285c-3.10555,-2.98921 17.79719,-12.6107 17.79719,-12.6107c2.55029,-2.20815 8.25759,-5.8388 15.80661,-7.60816c8.05437,-1.88783 8.21432,-1.02619 10.42374,-1.87267c3.88743,-0.91581 15.04025,16.45969 12.38898,17.61307c-5.02082,1.19911 -18.52056,10.90816 -28.52668,14.12038c-12.53982,4.02561 -5.43988,1.57469 -6.04924,0.06429c-0.59365,-1.47148 6.4444,-1.87365 5.62432,-4.30541c-0.32748,-0.97106 -2.94185,-0.04509 -7.75912,2.51774c-2.35224,1.25141 -5.84409,5.01501 -7.73346,5.82024c-4.60916,1.96445 -3.93439,-3.98062 -5.9883,-4.05398c-2.55433,-0.09122 -2.9311,-3.69134 -3.42189,-5.85799c-0.48524,-2.14217 -1.74982,-3.04496 -2.5621,-3.82682z"/></g><path d="M129.12584,135.20434c-4.32371,-5.74282 -7.7934,-11.34887 -7.7934,-11.34887l22.2122,-3.97125l12.17194,19.42681l-20.80229,9.8571c0,0 -1.18822,-7.85365 -5.78847,-13.96377z" fill="#403328" stroke="#292018" stroke-width="4"/><path d="M139.2236,123.7598l8.2764,-2.6874l12.79671,14.84058l-9.1961,2.87926z" fill="#403328" stroke="none" stroke-width="0"/></g><g data-paper-data="{&quot;index&quot;:null}"><path d="M376.53995,310.34192c-1.58971,2.59563 -4.26881,2.72735 -5.99416,5.64425c-0.96901,1.63823 0.21128,3.5582 -0.34401,5.5676c-0.57546,2.08241 -2.87405,4.23397 -3.1748,4.70123c-1.62403,2.52337 -11.46311,-5.22985 -11.46311,-5.22985c0,0 -6.61292,-6.48421 -8.12755,-7.36618c-2.89912,-1.6882 -12.46991,-6.61778 -12.46991,-6.61778l13.65651,-31.00261l12.19162,2.14015c0,0 5.82518,-1.47429 7.7987,-5.29575c2.61004,-5.05402 8.82632,-13.71627 12.67224,-14.98199c8.01503,-2.63777 8.78687,-3.91408 9.95799,-2.23865c0,0 3.21112,1.75101 4.74721,3.10632c1.54771,1.36557 4.50444,5.05655 4.50444,5.05655c0,0 -17.35112,35.73377 -23.95518,46.51668z" fill="#403328" stroke="#292018" stroke-width="4" stroke-linecap="butt"/><path d="M392.125,265.90196l2.31252,-4.5777l2.60985,2.50541c0,0 -2.96935,6.07202 -5.38838,11.25704c-2.12252,4.54945 -17.18452,36.8229 -17.92345,34.28305c-0.08748,-0.30072 -4.59879,1.58164 -6.54758,5.21022c-1.03493,1.92699 -0.25403,4.23991 -0.31329,6.08155c-0.05174,1.60831 -1.00192,2.88363 -1.00192,2.88363c0,0 -4.55175,-0.81211 -3.86845,-2.82865c1.23751,-3.65213 8.69825,-14.57365 14.90811,-25.99374c7.1796,-13.20347 15.21259,-28.82084 15.21259,-28.82084z" fill="#775f4a" stroke="none" stroke-width="0" stroke-linecap="butt"/><path d="M360.95604,278.93799c0,0 -0.31876,6.48265 -1.5857,9.64181c-1.5357,3.82935 -3.16322,4.48527 -3.16322,4.48527l-10.66769,-2.02033l13.06084,-10.65059" fill="none" stroke="#292018" stroke-width="4" stroke-linecap="round"/><path d="M351.98986,278.09736l3.58699,13.39012" fill="none" stroke="#292018" stroke-width="4" stroke-linecap="round"/></g><g data-paper-data="{&quot;index&quot;:null}" stroke-linecap="butt"><g fill="#465b9c"><path d="M296.89684,264.73449c-2.5571,4.94938 -12.11443,13.93829 -12.11443,13.93829c0,0 -13.2115,-4.03743 -21.70906,-7.05707c-8.07552,-2.86965 -32.34704,-15.86757 -32.34704,-15.86757l15.40778,-36.14719c0,0 29.61816,14.33646 36.09431,18.45185c3.06339,1.94668 9.69305,4.7049 12.96956,6.32245c3.60599,1.7802 5.04682,5.04885 5.04682,5.04885c0,0 -0.90363,10.57931 -3.34791,15.31035z" stroke="#2e3c67" stroke-width="4"/><path d="M236.00994,250.33908l-4.16736,-1.92952l10.8244,-23.07867l4.16735,1.92953z" stroke="none" stroke-width="0"/></g><path d="M278.04412,243.31841c3.95405,2.02795 7.01342,3.72209 9.35457,5.18182c3.20714,1.99967 7.40005,2.36394 8.36541,3.73923c1.60125,2.28121 1.15526,5.26331 -0.09214,7.69546c-0.84916,1.65564 -3.47035,4.35928 -7.23397,4.5837c-7.53154,0.44911 -22.52674,-3.7252 -35.30455,-8.85726c-21.50616,-8.63773 -34.23443,-12.67473 -27.64191,-25.93903c2.85126,-5.73678 14.43077,-2.28009 27.6199,3.16804c5.60984,2.3173 19.45526,7.61876 24.93269,10.42803z" fill="#5671c0" stroke="none" stroke-width="0"/></g><g data-paper-data="{&quot;index&quot;:null}" stroke-linecap="butt"><g fill="#465b9c"><path d="M348.44043,292.61837c-2.89962,4.75682 -10.92333,14.70303 -10.92333,14.70303l-3.64901,-3.38197l-2.82296,0.49755l-3.597,-1.98165c0,0 -12.65424,-5.55832 -15.92585,-6.98796c-7.85316,-3.43174 -31.76167,-20.34595 -31.76167,-20.34595l17.31706,-27.80662c0,0 20.27878,10.60204 27.35006,13.58101c4.30327,1.81285 20.5211,10.99242 20.5211,10.99242l3.82395,0.74168l1.13049,2.77951l4.52051,0.72204c0,0 -3.21166,11.93994 -5.98336,16.48694z" stroke="#2e3c67" stroke-width="4"/><path d="M287.8634,269.30121c0,0 -3.36293,5.5441 -3.86315,5.53975c-1.29444,-0.01124 -6.38993,-1.7637 -6.38993,-1.7637l15.46756,-25.8998l5.3722,2.90027z" stroke="none" stroke-width="0"/></g><path d="M315.18512,262.54883c9.1866,5.05545 24.27859,9.61984 24.13627,12.44814c-0.04469,0.88782 3.69281,0.02942 4.38935,1.90948c0.69654,1.88006 0.06119,3.91299 -1.1006,6.96718c-1.10471,2.90413 -3.86453,5.76448 -5.30022,6.67796c-3.69371,2.3501 -8.03935,-3.8862 -11.01462,-5.5235c-5.27723,-2.9041 -25.67396,-14.49321 -42.41275,-21.45931c-3.47141,-1.44468 1.73618,-4.86642 3.01423,-9.07979c1.64612,-2.54693 3.30973,-4.86373 7.46489,-3.47258c4.73015,1.58366 15.93291,8.84111 20.82344,11.53242z" fill="#5671c0" stroke="none" stroke-width="0"/></g><g data-paper-data="{&quot;index&quot;:null}" stroke-width="4" stroke-linecap="butt"><g data-paper-data="{&quot;index&quot;:null}" fill="#403328" stroke="#292018"><g><path d="M247.52415,240.6331c-2.15233,1.98577 -5.69431,0.24497 -5.69431,0.24497c0,0 2.16036,-50.90045 2.31978,-69.10522c0.14772,-16.8686 0.70156,-25.77672 0.70156,-25.77672c0,0 -1.18724,-3.62961 0.41626,-8.43549c0.97527,-2.92298 3.5617,-2.89159 5.64376,-0.84979c2.08204,2.04178 2.43389,3.83304 3.85144,11.8134c0.50393,2.83693 0.61428,11.26345 0.37917,14.45669c-0.42681,5.79679 -2.29609,25.92982 -2.29609,25.92982l-1.45177,43.14337c0,0 -1.71746,6.59322 -3.8698,8.579z"/></g><path d="M242.92504,136.95529c-1.52648,1.91352 -4.38323,-9.1436 -4.38323,-9.1436l15.77439,-0.01516l-0.2856,12.60597c0,0 -9.51571,-5.44017 -11.10555,-3.44721z"/></g><path d="M254.78756,160.44014c-0.0775,1.95434 -0.56966,3.4893 -1.09928,3.42846c-0.52963,-0.06083 -0.89616,-1.69445 -0.81865,-3.64879c0.0775,-1.95434 0.56966,-3.4893 1.09928,-3.42846c0.52963,0.06083 0.89616,1.69444 0.81865,3.64879z" fill="#dfbd28" stroke="#dfbd28"/><path d="M253.20182,182.01514c-0.0775,1.95432 -0.56966,3.4893 -1.09928,3.42846c-0.52963,-0.06083 -0.89616,-1.69445 -0.81865,-3.64879c0.0775,-1.95432 0.56966,-3.4893 1.09928,-3.42846c0.52963,0.06083 0.89616,1.69445 0.81865,3.64879z" fill="#dfbd28" stroke="#dfbd28"/><path d="M252.0898,204.02442c-0.0775,1.95432 -0.56966,3.4893 -1.09928,3.42846c-0.52963,-0.06083 -0.89616,-1.69445 -0.81865,-3.64879c0.0775,-1.95432 0.56966,-3.4893 1.09928,-3.42846c0.52963,0.06083 0.89616,1.69445 0.81865,3.64879z" fill="#dfbd28" stroke="#dfbd28"/><path d="M251.34666,224.24025c-0.0775,1.95432 -0.56966,3.4893 -1.09928,3.42846c-0.52963,-0.06083 -0.89616,-1.69445 -0.81865,-3.64879c0.0775,-1.95432 0.56966,-3.4893 1.09928,-3.42846c0.52963,0.06083 0.89616,1.69445 0.81865,3.64879z" fill="#dfbd28" stroke="#dfbd28"/></g><g><g><g><path d="M248.20683,265.38167c0,0 -19.11708,-3.16108 -26.30637,-7.23906c-7.16195,-4.06245 -16.20055,-12.78585 -16.20055,-12.78585l15.88837,-32.54413c0,0 7.50946,1.80131 13.5049,4.0105c6.40993,2.36192 23.79434,9.73346 23.79434,9.73346l2.54983,4.31159z" fill="#465b9c" stroke="#2e3c67" stroke-width="4" stroke-linecap="butt"/><path d="M228.55141,225.5854c0,0 7.31607,6.13526 9.83147,8.72414c1.8761,1.93088 3.91356,5.42229 3.91356,5.42229" fill="none" stroke="#2e3c67" stroke-width="4" stroke-linecap="round"/><path d="M252.32726,263.72983l-10.20097,-3.09974l13.37634,-31.89372l10.26034,3.76643z" fill="#465b9c" stroke="none" stroke-width="0" stroke-linecap="butt"/></g><g fill="none" stroke="none" stroke-width="1" stroke-linecap="butt" font-family="sans-serif" font-weight="normal" font-size="12" text-anchor="start"/><g fill="none" stroke="none" stroke-width="1" stroke-linecap="butt" font-family="sans-serif" font-weight="normal" font-size="12" text-anchor="start"/></g><path d="M261.88708,239.45401c2.81987,1.12781 -4.40685,13.4069 -6.3896,18.3644c-1.06052,2.65165 -10.0633,-5.85108 -12.32356,-7.87956c-2.68814,-2.41247 1.30256,-6.73655 3.28531,-11.69404c1.98276,-4.9575 12.608,0.0814 15.42787,1.20922z" fill="#5671c0" stroke="none" stroke-width="0" stroke-linecap="butt"/></g><path d="M203.10544,175.79099l6.62323,-24.52137c0,0 -11.60426,-4.3767 -8.44821,-10.33557c3.15606,-5.95883 1.77987,-7.41264 6.92636,-8.62091c10.4751,-2.45926 7.49903,-6.55388 16.60764,-6.49876c7.25281,0.04389 20.20445,4.75418 22.68613,24.54071c0.92474,7.373 -6.01512,41.02293 -6.01512,41.02293l0.24037,32.60221c0,0 -7.80316,10.93724 -31.33669,10.2213c-21.93008,-0.66716 -18.08426,-7.7618 -18.08426,-7.7618z" fill="#95d2a1" stroke="#67916f" stroke-width="4" stroke-linecap="butt"/><g data-paper-data="{&quot;index&quot;:null}"><path d="M106.64786,202.71862c2.90794,-0.89902 5.0066,0.77151 8.22859,-0.27916c1.80957,-0.59009 2.19139,-2.81124 3.93548,-3.95328c1.80744,-1.18353 4.95437,-1.28092 5.48878,-1.43316c2.88601,-0.82208 5.15312,11.49781 5.15312,11.49781c0,0 0.68285,9.2363 1.2376,10.8989c1.06187,3.18235 4.99241,13.20489 4.99241,13.20489l-30.73009,14.25913l-7.74073,-9.65902c0,0 -5.34762,-2.74029 -9.35338,-1.17434c-5.29775,2.07105 -15.6864,4.4696 -19.4101,2.87989c-7.76032,-3.31301 -9.18281,-2.86444 -8.95561,-4.8959c0,0 -1.25462,-3.43558 -1.51289,-5.46777c-0.26022,-2.04755 -0.04259,-6.77176 -0.04259,-6.77176c0,0 36.62899,-15.37142 48.70939,-19.10623z" fill="#403328" stroke="#292018" stroke-width="4" stroke-linecap="butt"/><path d="M65.59485,225.79362l-4.75974,1.90987l-0.30492,-3.60491c0,0 6.23988,-2.59813 11.48073,-4.89366c4.59845,-2.01417 37.2232,-16.29925 36.10059,-13.90413c-0.13292,0.28359 4.49767,1.84973 8.35746,0.41224c2.04978,-0.76337 2.99102,-3.01581 4.25184,-4.35951c1.10108,-1.17345 2.65682,-1.5035 2.65682,-1.5035c0,0 2.88137,3.61603 1.03646,4.67887c-3.34129,1.9249 -16.15648,5.19797 -28.36171,9.67152c-14.11124,5.17216 -30.45754,11.59321 -30.45754,11.59321z" fill="#775f4a" stroke="none" stroke-width="0" stroke-linecap="butt"/><path d="M97.60822,236.59117c0,0 4.52088,-4.65704 7.55866,-6.19238c3.68223,-1.86105 5.33748,-1.27863 5.33748,-1.27863l6.67563,8.56257l-16.84116,-0.62902" fill="none" stroke="#292018" stroke-width="4" stroke-linecap="round"/><path d="M103.78537,243.14416l6.15029,-12.42318" fill="none" stroke="#292018" stroke-width="4" stroke-linecap="round"/></g><path d="M241.86519,160.19241c-0.20328,6.05924 -6.85427,38.15706 -6.38873,41.69739c1.60152,12.17934 -9.49199,9.12334 -14.51026,9.1412c-4.07028,0.01449 -6.21542,4.24506 -10.37174,0.43396c-3.22504,-2.9572 -1.40884,-21.28032 0.47902,-33.94105c0.54514,-3.65587 0.85106,-17.57699 0.8681,-20.39045c0.01836,-3.03326 -10.69024,-6.11306 -12.16159,-9.2201c-0.53867,-1.13749 -4.22452,-4.87056 -4.31773,-6.04906c-0.18251,-2.3075 7.79143,-3.29643 12.36863,-4.76447c4.57717,-1.46805 10.48179,-9.45275 17.17071,-9.41229c6.89031,0.04168 9.66843,3.76693 14.04473,12.02096c4.3763,8.25404 3.02223,14.42463 2.81893,20.48387z" fill="#a6eab4" stroke="none" stroke-width="0" stroke-linecap="butt"/><g stroke-linecap="butt"><path d="M215.20577,106.96696l23.0445,11.23812l0.00277,6.45354l2.18864,12.29198c0,0 -7.56186,1.75151 -16.54459,1.59242c-8.69774,-0.15407 -14.26992,-9.26765 -14.26992,-9.26765z" fill="#d9bb9a" stroke="#917c67" stroke-width="4"/><path d="M230.26069,126.54864c-0.00747,1.23437 -2.22695,3.07314 -4.95099,3.05665c-2.72405,-0.01648 -4.92112,-1.88196 -4.91366,-3.11636c0.00747,-1.23437 2.21666,-1.37024 4.9407,-1.35374c2.72405,0.01648 4.93142,0.17906 4.92394,1.41344z" fill="#ffdbb5" stroke="none" stroke-width="0"/></g><g data-paper-data="{&quot;index&quot;:null}" stroke-linecap="butt"><g fill="#465b9c"><path d="M148.75436,274.28036c-2.14236,-5.14252 -2.87119,-18.24257 -2.87119,-18.24257c0,0 11.59293,-7.51322 19.37304,-12.07356c7.39367,-4.33385 32.96284,-14.54517 32.96284,-14.54517l23.09765,26.60036c0,0 -3.97676,6.16665 -12.03169,10.97452c-10.65216,6.35813 -26.50197,11.91755 -30.66885,13.2318c-3.46151,1.09176 -9.83935,4.39074 -13.18611,5.85742c-3.68329,1.61415 -7.11232,0.61327 -7.11232,0.61327c0,0 -7.51552,-7.50037 -9.56336,-12.41604z" stroke="#2e3c67" stroke-width="4"/><path d="M198.95848,236.9442l4.15887,-1.94774l10.69719,23.1379l-4.15887,1.94773z" stroke="none" stroke-width="0"/></g><path d="M177.27902,273.6343c-4.09692,1.72114 -7.36254,2.97232 -9.98652,3.82471c-3.59459,1.16768 -6.57189,4.14236 -8.24579,3.99607c-2.77651,-0.24262 -4.77188,-2.50322 -5.83057,-5.02327c-0.72068,-1.71548 -1.10298,-5.4617 1.1475,-8.48669c4.50349,-6.05343 17.34918,-14.84377 29.50081,-21.32053c20.45224,-10.90095 31.73386,-18.04459 37.64303,-4.4621c2.5557,5.8744 -7.54243,12.51232 -20.20068,19.10049c-5.38403,2.80219 -18.35242,9.98705 -24.02778,12.37132z" fill="#5671c0" stroke="none" stroke-width="0"/></g><g data-paper-data="{&quot;index&quot;:null}" stroke-linecap="butt"><g fill="#465b9c"><path d="M113.44799,229.66361c3.77991,-4.09236 13.60583,-12.26293 13.60583,-12.26293l2.91125,4.03456l2.86566,0.06834l3.13611,2.65144c0,0 11.31123,7.94236 14.23709,9.9885c7.02319,4.91159 13.46506,16.8373 13.46506,16.8373l-8.78985,33.21728c0,0 -17.7927,-14.38929 -24.13854,-18.70293c-3.86179,-2.6251 -17.95337,-14.81977 -17.95337,-14.81977l-3.6029,-1.48049l-0.56075,-2.94774l-4.28969,-1.59847c0,0 5.50095,-11.07325 9.11412,-14.98509z" stroke="#2e3c67" stroke-width="4"/><path d="M157.27425,257.32276c0,0 -2.55079,-6.38963 -2.06122,-6.28681c1.26687,0.26604 13.59113,2.96646 13.59113,2.96646c0,0 -5.75332,13.96334 -6.22783,20.25511c-0.38363,5.08685 -1.04069,13.79925 -1.04069,13.79925l-18.89156,-18.90087z" stroke="none" stroke-width="0"/></g><path d="M140.12769,265.69537c-8.01061,-6.76619 -21.90762,-14.21433 -21.21091,-16.95917c0.21871,-0.86161 -3.61465,-0.75635 -3.92715,-2.73677c-0.3125,-1.98041 0.71089,-3.84837 2.45159,-6.61381c1.65519,-2.62957 4.92441,-4.89018 6.51196,-5.5029c4.0843,-1.57637 7.11619,5.39384 9.71058,7.58521c2.59135,2.1888 18.42967,12.81787 25.73388,15.8536c5.66655,2.35511 8.79067,1.08208 8.79067,1.08208c0,0 3.64811,13.35941 1.56506,17.23843c-2.11563,2.17272 -7.68263,7.64457 -11.48227,5.46208c-4.32544,-2.48448 -13.87894,-11.80671 -18.14342,-15.40875z" fill="#5671c0" stroke="none" stroke-width="0"/></g><g><g><g><g><path d="M183.98085,241.43326c0,0 5.18644,-18.66967 10.00954,-25.38185c4.80472,-6.68667 14.44431,-14.74102 14.44431,-14.74102l36.2582,18.68027l-23.25109,36.2122l-4.55944,2.07435z" fill="#465b9c" stroke="#2e3c67" stroke-width="4" stroke-linecap="butt"/><path d="M225.65013,226.14434c0,0 -6.88215,6.61834 -9.72505,8.84262c-2.12035,1.65895 -5.80957,3.31153 -5.80957,3.31153" fill="none" stroke="#2e3c67" stroke-width="4" stroke-linecap="round"/><path d="M185.1828,245.70665l4.17241,-9.81118l30.70903,16.93577l-11.16765,12.45695z" fill="#465b9c" stroke="none" stroke-width="0" stroke-linecap="butt"/></g><g stroke="#281a0d" stroke-width="4" stroke-linecap="butt"><path d="M201.86986,205.0575c0,0 1.63079,-3.65963 2.68163,-4.98821c1.13555,-1.43565 3.87452,-2.37766 3.87452,-2.37766l9.38125,4.57293c0,0 1.22508,4.95977 0.44946,6.42247c-0.7756,1.4627 -5.10314,2.35376 -5.10314,2.35376z" fill="#3f2b1a"/><path d="M212.00246,211.39416l6.4792,-8.12948l9.55793,5.14849c0,0 1.22508,4.95977 0.44947,6.42248c-0.7756,1.4627 -5.10315,2.35375 -5.10315,2.35375z" fill="#67472a"/><path d="M223.37451,217.66524l6.19141,-8.04115l9.84571,5.06015c0,0 1.22507,4.95978 0.44947,6.42247c-0.7756,1.4627 -5.10314,2.35375 -5.10314,2.35375z" fill="#3f2b1a"/><path d="M235.43785,224.62925l5.27193,-9.34284l6.58681,3.44547c0,0 -1.07981,3.88431 -1.78216,5.38358c-0.70234,1.49926 -4.03644,2.76119 -4.03644,2.76119z" fill="#67472a"/></g><path d="M205.94841,208.98949l7.08132,-10.69894l5.52213,2.76018l-5.38876,11.59643z" fill="#465b9c" stroke="#2e3c67" stroke-width="4" stroke-linecap="butt"/><g fill="none" stroke="none" stroke-width="1" stroke-linecap="butt" font-family="sans-serif" font-weight="normal" font-size="12" text-anchor="start"/></g><path d="M201.99294,261.11358c-1.42276,2.68315 -11.38903,-11.20554 -16.10618,-13.70686c-2.52309,-1.33789 12.32077,-6.91086 14.57923,-8.94136c2.68599,-2.41488 6.55873,2.01518 11.27587,4.5165c4.71714,2.50131 -1.42865,12.52705 -2.85142,15.21022z" fill="#5671c0" stroke="none" stroke-width="0" stroke-linecap="butt"/></g><path d="M242.65834,228.45798l5.27193,-9.34284l3.3777,1.74382c0,0 0.25732,4.59333 -0.44503,6.0926c-0.70234,1.49926 -4.17824,3.02861 -4.17824,3.02861z" fill="#67472a" stroke="#281a0d" stroke-width="4" stroke-linecap="butt"/></g><g stroke="#292018" stroke-width="4"><g fill="#403328" stroke-linecap="butt"><g><path d="M190.31014,231.09553l8.17796,-35.31318l1.00837,-19.24054l2.29632,-27.71217l-2.3447,-4.60235c0,0 -8.19573,3.59023 -6.53101,1.11664c1.66475,-2.47358 7.61696,-10.96711 13.48035,-15.25512c2.29615,-1.67923 7.47701,0.2809 7.47701,0.2809l7.32878,3.05511l14.51788,2.77917c0,0 1.38243,3.45345 1.31068,10.69188c-0.05083,5.12869 -0.21775,11.14982 -0.64805,18.13234c-2.32938,17.96203 -3.19638,69.98765 -3.19638,69.98765c0,0 -6.5057,9.7503 -13.37548,9.02131c-2.11164,-0.22408 -17.07067,2.49682 -23.27682,-0.36344c-7.49872,-3.45597 -6.22487,-12.57827 -6.22487,-12.57827z"/></g><path d="M208.22899,128.10115l-1.42067,-9.29312l27.29202,10.77116l1.08778,6.75154c0,0 -10.56428,-0.35468 -13.15616,-2.45405c-2.69948,-2.1865 -13.80296,-5.77553 -13.80296,-5.77553z"/></g><path d="M228.67276,160.36736l0.74734,-9.16301" fill="none" stroke-linecap="round"/><path d="M228.24624,173.68365l0.12796,7.43858" fill="none" stroke-linecap="round"/><path d="M227.92525,202.91406l0.22005,-7.78243" fill="none" stroke-linecap="round"/><path d="M227.81791,215.88636l-0.22529,8.64724" fill="none" stroke-linecap="round"/></g><g><path d="M195.75279,96.51335c1.82569,-6.1982 2.60637,-24.81486 2.60637,-24.81486l80.25375,-5.9301c0,0 2.12011,19.62639 4.31607,26.20178c1.43131,4.28576 3.11163,4.98809 3.11163,4.98809c0,0 -2.76745,5.91458 -5.9856,6.23185c-1.03057,0.1016 -3.23763,0.30569 -4.69411,0.49471c-0.581,0.0754 -0.20277,9.17587 -0.20277,9.17587c0,0 -3.62327,4.06027 -7.04027,4.45053c-1.41746,0.16188 -6.23778,-0.17807 -7.73346,0.03668c-1.68554,0.24201 -5.0091,2.0615 -7.56035,3.19618c-4.12321,1.83381 -9.92117,1.90208 -9.92117,1.90208c0,0 -4.91058,-1.25001 -8.49027,-2.59407c-2.95831,-1.11074 -4.41301,-2.36184 -6.70997,-2.34955c-1.53895,0.00823 -12.88332,3.70911 -13.73415,3.74971c-2.06913,0.09874 -10.81322,-3.30593 -10.81322,-3.30593c0,0 1.309,-6.85749 0.04086,-6.84405c-1.69311,0.01793 -3.98707,-3.31313 -4.95538,-3.35282c-2.99394,-0.12277 -5.78418,-5.20263 -5.78418,-5.20263c0,0 1.95001,-1.46309 3.29622,-6.03346z" data-paper-data="{&quot;index&quot;:null}" fill="#14161a" stroke="#14161a" stroke-width="4" stroke-linecap="butt"/><path d="M201.53111,83.3502c-1.94587,-26.37986 12.87006,-42.5709 36.01294,-44.27799c23.14288,-1.7071 40.17413,12.13477 42.12001,38.51463c1.94588,26.37987 -19.19708,46.12285 -29.73447,47.10846c-24.19637,2.26322 -46.45261,-14.96522 -48.39848,-41.3451z" data-paper-data="{&quot;index&quot;:null}" fill="#d9bb9a" stroke="#917c67" stroke-width="4" stroke-linecap="butt"/><path d="M273.66172,78.56321c1.55669,21.10389 -13.34243,39.48987 -24.0474,40.27951c-20.97073,1.85961 -40.20543,-14.32127 -41.76211,-35.42518c-1.55669,-21.10389 9.36049,-36.44231 30.6799,-38.0149c21.05404,-1.55302 33.57293,12.05668 35.12964,33.16056z" fill="#ffdbb5" stroke="none" stroke-width="0" stroke-linecap="butt"/><path d="M262.20349,96.96783c0.07903,1.34966 -2.56523,4.66814 -5.79266,4.85712c-3.22743,0.18898 -5.12823,-1.24622 -5.20726,-2.59587c-0.07903,-1.34966 1.69363,-2.10268 4.92106,-2.29166c3.22743,-0.18898 5.99981,-1.31924 6.07884,0.03043z" fill="#d9bb9a" stroke="none" stroke-width="0" stroke-linecap="butt"/><path d="M252.20059,116.87813c-5.30289,0.25679 -10.70614,-4.69677 -10.13603,-9.07344c0.5701,-4.37667 7.23072,2.54064 11.02974,2.21249c3.70769,-0.32027 10.63146,-7.65393 10.02037,-3.23185c-0.81917,5.92793 -5.61118,9.836 -10.91407,10.09279z" fill="none" stroke="#d9bb9a" stroke-width="4" stroke-linecap="round"/><g data-paper-data="{&quot;index&quot;:null}" stroke="none" stroke-width="0" stroke-linecap="butt"><path d="M278.89196,83.98324c0.4295,7.33508 -3.74045,13.54592 -9.31387,13.87227c-5.5734,0.32635 -10.43973,-5.35536 -10.86924,-12.69043c-0.4295,-7.33508 3.74046,-13.5459 9.31387,-13.87225c5.57341,-0.32635 10.43973,5.35536 10.86924,12.69043z" fill="#d3f0f1"/><path d="M267.09514,72.36444c4.62593,-0.27087 8.69494,4.95652 9.08837,11.67566c0.39343,6.71915 -3.03769,12.3857 -7.66361,12.65657c-4.62593,0.27087 -8.69493,-4.9565 -9.08836,-11.67565c-0.39343,-6.71915 3.03768,-12.38571 7.6636,-12.65658z" fill="#ffffff"/></g><g data-paper-data="{&quot;index&quot;:null}" stroke="none" stroke-width="0" stroke-linecap="butt"><g data-paper-data="{&quot;index&quot;:null}"><path d="M274.75384,83.87499c0.33647,5.74624 -2.693,10.59782 -6.76649,10.83634c-4.0735,0.23853 -7.64846,-4.22634 -7.98494,-9.97258c-0.33647,-5.74623 2.69297,-10.59781 6.76647,-10.83634c4.0735,-0.23853 7.64849,4.22636 7.98496,9.97258z" fill="#41563d"/><path d="M267.41632,91.31238c-3.76606,0.22052 -6.74418,-4.67525 -6.92999,-7.84854c-0.18581,-3.17329 0.86472,-8.93255 6.85741,-9.28345c3.76606,-0.22052 7.15156,5.279 7.33737,8.45228c0.18581,3.17328 -3.49872,8.45919 -7.26478,8.67971z" fill="#5f7d59"/></g><path d="M261.062,81.18716c-0.14129,-2.413 1.70029,-4.48368 4.11329,-4.62496c2.413,-0.14129 4.48368,1.7003 4.62496,4.1133c0.14129,2.41301 -1.7003,4.48368 -4.1133,4.62496c-2.413,0.14129 -4.48367,-1.70029 -4.62495,-4.1133z" fill="#8ebb85"/><path d="M265.03626,85.33857c-0.07817,-1.33485 0.94059,-2.48033 2.27544,-2.5585c1.33485,-0.07817 2.48033,0.94059 2.5585,2.27544c0.07817,1.33485 -0.94059,2.48034 -2.27544,2.55851c-1.33485,0.07817 -2.48034,-0.9406 -2.5585,-2.27545z" fill="#8ebb85"/></g><g data-paper-data="{&quot;index&quot;:null}" stroke="none" stroke-width="0" stroke-linecap="butt"><path d="M230.29602,72.64896c6.60717,-0.38688 12.31153,5.24575 12.74104,12.58085c0.4295,7.33508 -4.57849,13.59497 -11.18566,13.98186c-6.60717,0.38688 -12.31153,-5.24574 -12.74104,-12.58083c-0.4295,-7.33508 4.5785,-13.59497 11.18566,-13.98186z" fill="#d3f0f1"/><path d="M242.16732,85.17898c0.39343,6.71917 -3.73324,12.42643 -9.21719,12.74753c-5.48394,0.32111 -10.24853,-4.86554 -10.64196,-11.58469c-0.39343,-6.71915 3.73325,-12.42644 9.2172,-12.74754c5.48394,-0.32111 10.24852,4.86554 10.64195,11.5847z" fill="#ffffff"/></g><g data-paper-data="{&quot;index&quot;:null}" stroke="none" stroke-width="0" stroke-linecap="butt"><g data-paper-data="{&quot;index&quot;:null}"><path d="M234.45974,75.19177c4.0735,-0.23853 7.64847,4.22636 7.98494,9.97258c0.33647,5.74624 -2.69297,10.59781 -6.76647,10.83634c-4.0735,0.23853 -7.64848,-4.22634 -7.98496,-9.97258c-0.33647,-5.74623 2.69298,-10.59781 6.76649,-10.83634z" fill="#41563d"/><path d="M227.62051,84.7858c-0.18581,-3.17329 2.53469,-9.03034 6.30075,-9.25086c5.99269,-0.3509 7.70821,5.24639 7.89403,8.41969c0.18581,3.17328 -2.20058,8.38318 -5.96664,8.6037c-3.76606,0.22052 -8.04233,-4.59923 -8.22814,-7.77253z" fill="#5f7d59"/></g><path d="M236.86454,86.38567c-2.413,0.14129 -4.48368,-1.7003 -4.62496,-4.1133c-0.14129,-2.413 1.7003,-4.48369 4.1133,-4.62497c2.413,-0.14129 4.48367,1.7003 4.62497,4.11331c0.14129,2.413 -1.70029,4.48368 -4.11329,4.62496z" fill="#8ebb85"/><path d="M235.2398,88.90606c-1.33485,0.07817 -2.48033,-0.94059 -2.5585,-2.27544c-0.07817,-1.33485 0.94059,-2.48034 2.27544,-2.55851c1.33485,-0.07817 2.48034,0.9406 2.5585,2.27545c0.07817,1.33485 -0.94059,2.48033 -2.27544,2.5585z" fill="#8ebb85"/></g><path d="M209.80159,92.84068c1.41613,5.42955 2.91848,8.39596 1.52473,9.42594c-1.39374,1.02998 -7.79068,-2.45711 -9.20682,-7.88664c-1.41613,-5.42955 2.43056,-10.34488 4.14934,-10.56676c3.12842,-0.40385 2.11662,3.5979 3.53274,9.02746z" data-paper-data="{&quot;index&quot;:null}" fill="#d9bb9a" stroke="#917c67" stroke-width="4" stroke-linecap="butt"/><g data-paper-data="{&quot;index&quot;:null}"><g><path d="M201.95401,85.71377c-0.09217,2.73185 -4.61516,5.02617 -4.61516,5.02617c0,0 -2.80405,1.56442 -4.18703,-1.02106c-1.12634,-2.10571 -5.32981,-5.35429 -5.32981,-5.35429c0,0 1.43678,-2.80177 3.27887,-5.9875c0.47604,-0.82326 -3.59759,-2.81529 -4.75378,-4.33455c-1.15619,-1.51924 -3.60509,-9.30449 -3.60509,-9.30449c0,0 6.7704,-3.00141 8.10278,-7.63416c0.66112,-2.29872 0.43486,-5.93357 0.92902,-7.39694c2.81553,-8.33753 0.82126,-10.01136 4.79369,-14.52147c0.41514,-0.47133 8.00342,-6.43425 8.37439,-6.85942c6.46137,-7.40534 7.67537,-7.84911 18.10416,-9.57484c11.02756,-1.82482 18.97923,-6.06463 25.82541,-3.17937c4.47039,1.88402 15.62869,6.47165 23.27823,8.51955c7.62161,7.12976 10.85778,11.80886 12.24653,21.36227c0.44549,3.06464 -1.9439,5.38504 -0.45186,8.51264c0.67682,1.41873 8.89259,11.98207 8.89259,11.98207c0,0 -1.32498,3.81539 -3.38789,5.40401c-2.04385,1.57397 -4.4109,1.31805 -4.85934,2.49978c-0.97829,2.57787 0.27337,5.06853 0.01289,6.93964c-0.18951,1.36124 -0.7089,2.11727 -1.52853,3.4311c-1.38353,2.21772 -1.63964,-1.06065 -1.6855,-3.23239c-0.0857,-4.05952 -1.23481,-6.87886 -1.18717,-6.23042c-1.51525,0.89871 -0.23683,0.78693 -7.17942,0.02462c-0.38616,-0.0424 -1.88104,-2.7858 -3.44505,-3.87611c-1.56402,-1.09029 -3.05937,-5.27915 -3.05937,-5.27915c0,0 -10.05913,5.55356 -14.54638,6.2377c-6.47384,0.98701 -13.82882,3.71605 -17.57134,3.56712c-9.14847,-0.36406 -13.27117,-1.17519 -16.87909,-1.03803c-3.35812,0.12765 -9.03048,3.87878 -11.20268,3.07216c0,0 -4.2431,4.65932 -4.36409,8.24534z" fill="#252931" stroke="#14161a" stroke-width="4" stroke-linecap="butt"/><path d="M265.57985,57.43992c-22.88863,11.35375 -45.54873,9.10743 -64.32001,12.19782c-3.88595,0.63976 -5.36952,-2.46657 -5.36952,-2.46657c0,0 6.04787,-7.78136 5.46719,-17.6984c-0.27948,-4.77292 5.02114,-15.19882 13.07358,-21.12054c6.69347,-4.92232 21.0779,-6.65473 28.06271,-8.60683c4.52355,-1.26424 4.59405,2.42157 8.74567,2.17847c11.78471,-0.69005 11.21064,6.6136 15.5201,13.87632c3.13663,5.28617 2.09131,20.01713 -1.17974,21.63973z" fill="#494c5e" stroke="none" stroke-width="0" stroke-linecap="butt"/><path d="M253.96396,30.21628c-0.07878,-1.34536 -5.3915,2.05312 -6.11717,0.3091c-0.5326,-1.27998 1.68813,-3.45514 2.14783,-5.46434c0.1323,-0.57821 -0.83522,-2.70188 -3.02034,-3.80741c-1.8187,-0.92013 -4.92267,-0.84698 -4.84646,-1.25731c0.30959,-1.66696 9.08286,-0.81342 10.01412,-0.86795c3.69689,-0.21647 17.69805,9.10295 17.92139,12.91719c0.01355,0.23139 6.05641,19.15477 0.62897,27.63682c-0.78374,1.22484 -8.22877,1.67189 -8.77024,-0.37075c-0.17023,-0.6422 -4.61967,-1.46525 -3.66888,-3.63874c1.29532,-2.96108 9.4582,-6.23432 9.12431,-6.98375c-0.95341,-2.14001 -13.11809,5.39312 -14.48849,2.28036c-1.37041,-3.11278 12.21881,-12.23531 9.96861,-14.45833c-3.01103,1.40735 -10.32669,7.17343 -11.4844,5.9043c-3.50829,-3.84594 2.81409,-8.38497 2.59075,-12.1992z" fill="#252931" stroke="none" stroke-width="0" stroke-linecap="butt"/><path d="M212.02884,65.34171c-0.55913,1.2262 1.82884,-0.02917 3.71556,0.34765c1.88671,0.37684 8.18669,0.60998 6.84124,2.1714c-0.70948,0.82336 -10.81475,0.47974 -11.38525,1.19995c-1.05277,1.32902 -3.57421,2.5879 -4.42298,2.2009c-2.04261,-0.93137 -10.58415,2.74053 -12.36686,-2.30116c-1.15804,-3.27501 4.22164,-9.86217 4.84587,-11.23114c0.09616,-0.21089 0.26002,-18.50303 9.02239,-23.46521c1.26531,-0.71654 9.4078,-3.68188 8.93183,-1.62299c-0.14964,0.6473 -4.7587,7.40662 -6.61505,8.88379c-2.52903,2.01241 -4.88531,3.74297 -4.94039,4.56156c-0.15727,2.3375 13.78416,-1.55216 13.46627,0.56521c-0.50496,3.3634 -15.33717,7.86021 -14.25727,9.17162c1.23132,1.49529 7.95504,-1.64045 14.89897,-3.54355c5.3779,-1.47391 11.50312,-1.90315 11.42361,-0.79847c-0.0738,1.02555 -1.38149,3.76536 -3.14543,4.78469c-5.13215,2.96573 -14.83281,6.48855 -16.01251,9.07575z" fill="#252931" stroke="none" stroke-width="0" stroke-linecap="butt"/><path d="M273.5272,58.79487c0,0 -5.07075,6.32075 -6.00046,6.78104c-1.85912,0.92044 -5.73358,2.03029 -5.73358,2.03029" fill="none" stroke="#14161a" stroke-width="4" stroke-linecap="round"/><path d="M228.71256,33.93152c-0.76633,-3.08029 2.05561,-6.13754 5.76338,-7.05997c3.70775,-0.92245 9.07303,-2.26014 9.83937,0.82014c0.76633,3.08029 -4.08108,7.96197 -7.78884,8.8844c-3.70775,0.92244 -7.04757,0.4357 -7.81391,-2.64456z" fill="#686c85" stroke="none" stroke-width="0" stroke-linecap="butt"/><path d="M215.83803,40.43593c-0.44246,-1.77848 2.19685,-3.93914 4.33762,-4.47174c2.14077,-0.53259 4.42252,0.03996 4.86496,1.81845c0.44246,1.77848 -1.39662,3.03936 -3.53739,3.57196c-2.14077,0.53259 -5.22275,0.85982 -5.66519,-0.91866z" fill="#686c85" stroke="none" stroke-width="0" stroke-linecap="butt"/><path d="M241.59876,40.10071c-0.70621,-1.69115 0.42986,-2.45775 2.46552,-3.30782c2.03566,-0.85009 3.3978,-2.16119 4.10404,-0.47003c0.70621,1.69115 -0.92111,3.21556 -2.95677,4.06563c-2.03566,0.85009 -2.90654,1.40338 -3.61276,-0.28778z" fill="#686c85" stroke="none" stroke-width="0" stroke-linecap="butt"/></g><path d="M282.9826,66.95317c-1.54496,0.41879 0.35481,3.44288 -0.72052,3.50585c-1.13178,0.06627 -3.10452,-1.8617 -4.5063,-3.29553c-1.79615,-1.83721 -2.652,-2.92558 -2.72147,-4.11209c-0.0755,-1.28942 0.23594,-0.32817 1.65862,-0.73534c0.90813,-0.25991 1.84996,-4.85954 2.85593,-4.91844c0.95841,-0.05612 0.89868,2.11084 2.35146,3.92321c0.23106,0.28825 0.85213,-6.17312 2.03398,-3.89852c0.65567,1.26191 4.47778,4.2069 5.82321,8.00001c1.34543,3.79311 -3.89346,-1.71037 -4.98564,-0.76889c-1.09219,0.94146 1.96692,2.14461 2.02839,3.19435c0,0 -1.65298,-1.48136 -3.81765,-0.89459z" fill="#494c5e" stroke="none" stroke-width="0" stroke-linecap="butt"/><path d="M274.31427,38.04263c0.52979,0.96112 -0.77863,2.67163 -4.2798,4.60159c-3.50117,1.92996 -4.78519,2.59922 -5.31499,1.63811c-0.5298,-0.9611 1.02882,-3.25499 4.53,-5.18496c3.50117,-1.92996 4.53498,-2.01586 5.06478,-1.05475z" fill="#494c5e" stroke="none" stroke-width="0" stroke-linecap="butt"/></g><path d="M218.40218,70.76967c-0.01482,-3.00253 2.55625,-5.08317 8.04966,-5.23857c5.4934,-0.15541 17.44374,1.08795 17.45855,4.09048c0.01482,3.00253 -7.01668,2.4374 -12.51008,2.59282c-5.4934,0.15541 -12.98332,1.5578 -12.99814,-1.44471z" data-paper-data="{&quot;index&quot;:null}" fill="#424956" stroke="#14161a" stroke-width="4" stroke-linecap="butt"/><path d="M283.58597,67.2033c0.33571,2.98374 -7.2667,2.46505 -12.7407,2.95183c-5.47399,0.48677 -12.39148,1.86867 -12.72718,-1.11507c-0.33571,-2.98374 11.38784,-5.61331 16.86185,-6.1001c5.47399,-0.48679 8.27033,1.27958 8.60603,4.2633z" data-paper-data="{&quot;index&quot;:null}" fill="#424956" stroke="#14161a" stroke-width="4" stroke-linecap="butt"/></g><g stroke-linecap="butt"><g><g><path d="M144.25428,150.1924c7.89917,-2.45763 10.29233,-7.33769 12.43572,-8.33965c9.08981,-4.24914 32.99504,-12.80181 32.99504,-12.80181c0,0 8.49004,7.69703 8.66649,10.68712c0.24795,4.20223 -8.97772,8.86737 -8.97772,8.86737c0,0 -5.01485,-2.973 -27.95288,4.26953c-0.74317,0.23468 -5.36153,8.70192 -6.6754,8.40896c-7.3886,-1.64751 -18.00905,-5.37995 -11.72327,-7.33561z" fill="#d9bb9a" stroke="#917c67" stroke-width="4"/><path d="M145.51823,146.715c1.00296,-0.15609 14.24412,10.20911 14.30143,10.3228c0.34403,0.68233 -2.58697,1.46327 -5.04396,2.70205c-2.45697,1.23881 -4.75877,2.85782 -5.10278,2.17549c-0.34404,-0.68234 -12.91281,-12.20315 -10.45584,-13.44196c2.04769,-1.03243 3.65234,-1.34615 6.30116,-1.75839z" fill="#d9bb9a" stroke="none" stroke-width="0"/><path d="M192.11542,144.91607c-3.80091,1.30687 -12.55965,1.8725 -17.96233,2.57332c-2.44587,0.31725 -11.62721,5.21891 -18.65062,8.69843c-0.61134,0.30287 -7.11298,4.25949 -7.46242,4.23492c-0.38464,-0.02705 -15.39197,-8.79854 -6.16935,-10.91091c5.41892,-1.24117 11.6951,-2.86564 16.33411,-4.62092c6.8862,-2.60558 8.33284,-4.05895 18.21339,-7.45613c9.88057,-3.39718 18.14343,-5.49005 18.92106,-3.14479c0.77762,2.34525 6.6567,7.22888 -3.22386,10.6261z" fill="#ffdbb5" stroke="none" stroke-width="0"/></g><path d="M181.38102,126.50724c8.68615,-3.93777 22.49019,-6.35144 22.49019,-6.35144l6.58759,23.99173c0,0 -19.32169,7.57078 -26.53887,10.11986c-7.25452,2.56228 -15.62208,2.17051 -15.62208,2.17051c0,0 -17.57854,0.48384 -20.07714,-1.92041c-2.86889,-2.76057 2.33745,-16.35213 2.33745,-16.35213c0,0 21.93585,-7.62928 30.82283,-11.65808z" fill="#403328" stroke="#292018" stroke-width="4"/></g><g><g><path d="M112.69874,170.58361c1.08196,-3.1952 10.7221,-8.33567 16.33736,-13.68238c5.99115,-5.70463 6.56516,-5.04245 8.04231,-6.89076c2.88926,-2.75735 21.3022,6.58381 19.59932,8.92042c-3.7234,3.57529 -12.55476,16.64777 -19.55895,24.48245c-8.77776,9.81855 -4.09095,2.57322 -5.38095,1.57896c-1.25673,-0.96863 4.86203,-5.291 2.924,-6.97326c-1.15176,-0.99978 -4.6956,7.88823 -8.4201,12.9196c-2.98104,4.02703 -6.90745,4.73503 -8.71603,5.71126c-2.2492,1.21408 -3.56937,-1.19569 -5.08925,-2.81594c-1.50266,-1.60195 -3.21142,-2.40625 -4.3077,-2.66945c-4.1913,-1.00633 1.30075,-10.92661 4.56993,-20.58091z" fill="#d9bb9a" stroke="#917c67" stroke-width="4"/><path d="M150.66384,158.36629c-0.35676,0.14627 0.38182,1.44304 -6.34656,9.15355c-1.65771,1.89969 -2.35747,3.67807 -3.89191,4.76953c-3.02309,2.15037 -5.61786,1.48485 -7.12017,0.90538c-1.89065,-0.72929 -9.02675,10.90584 -12.75789,16.12756c-3.62435,5.07229 -3.60967,-2.15801 -4.61672,-1.41227c-4.34929,3.22071 -1.96878,-6.09818 -4.85038,-2.66992c-3.53422,4.20474 1.70136,-8.65437 5.12595,-14.39283c1.27729,-2.14026 6.4975,-3.7002 10.37528,-6.75991c3.87779,-3.05969 4.88342,-4.72774 12.21396,-10.70959c4.30718,-3.51475 14.26162,4.00736 11.86841,4.98847z" fill="#ffdbb5" stroke="none" stroke-width="0"/></g><path d="M121.14507,160.67564l31.00507,-23.45771l20.72843,10.76293l-27.2085,27.65209c0,0 -4.99965,-6.17211 -12.05963,-9.11363c-6.63558,-2.76469 -12.46536,-5.84367 -12.46536,-5.84367z" fill="#403328" stroke="#292018" stroke-width="4"/><path d="M150.04807,143.54408c0,0 0.18794,-2.22213 1.15973,-3.31647c0.95386,-1.07414 4.61823,-3.19011 4.61823,-3.19011l25.1912,10.82157l-12.60119,8.30352c0,0 -6.7355,0.56976 -8.70112,-0.78058c-3.36643,-2.31268 -9.66685,-11.83791 -9.66685,-11.83791z" fill="#403328" stroke="none" stroke-width="0"/></g><path d="M206.70084,142.68001c-3.2543,0.01009 -4.68151,-20.43281 -4.68151,-20.43281c0,0 10.88505,-1.64732 11.92016,-1.34524c1.09628,0.31993 4.78856,2.8431 4.78856,2.8431c0,0 -0.27609,9.81967 -3.18602,14.95051c-2.41121,4.2515 -7.36655,3.97987 -8.84119,3.98444z" fill="#403328" stroke="none" stroke-width="NaN"/></g></g></g></svg>