<svg version="1.1" xmlns="http://www.w3.org/2000/svg" xmlns:xlink="http://www.w3.org/1999/xlink" width="679" height="607" viewBox="0,0,679,607"><g transform="translate(67.5,150.28334)"><g data-paper-data="{&quot;isPaintingLayer&quot;:true}" fill-rule="nonzero" stroke="none" stroke-width="0" stroke-linecap="butt" stroke-linejoin="miter" stroke-miterlimit="10" stroke-dasharray="" stroke-dashoffset="0" style="mix-blend-mode: normal"><path d="" fill="#6f3615"/><path d="" fill="#6f3615"/><path d="" fill="#6f3615"/><path d="" fill="#6f3615"/><path d="" fill="#6f3615"/><path d="" fill="#6f3615"/><path d="" fill="#6f3615"/><path d="" fill="#6f3615"/><path d="" fill="#6f3615"/><path d="" fill="#6f3615"/><path d="" fill="#6f3615"/><path d="M-5.50614,449v-216.04258h242.34127v216.04258z" fill="#21c414"/><path d="" fill="#6f3615"/><path d="" fill="#6f3615"/><path d="" fill="#6f3615"/><path d="" fill="#6f3615"/><path d="" fill="#6f3615"/><path d="" fill="#6f3615"/><path d="" fill="#6f3615"/><path d="" fill="#6f3615"/><path d="" fill="#6f3615"/><path d="" fill="#6f3615"/><path d="" fill="#6f3615"/><path d="M326.72025,274.71666v-45.75924h83.11488v45.75924z" fill="#21c414"/><path d="M-67.5,348.71666v-476.71666h197v476.71666z" fill="#21c414"/><path d="M400.5,456.71666v-437h61v437z" fill="#21c414"/><path d="M289.5,152.71666v-32h76v32z" fill="#21c414"/><path d="M122.5,119.71666v-32h108v32z" fill="#21c414"/><path d="M184.5,48.71666v-22h8.8v22z" fill="#21c414"/><path d="M240.36667,35.71666v-22h19.06667v22z" fill="#21c414"/><path d="M310.5,36.71666v-22h8.8v22z" fill="#21c414"/><path d="M543.5,453v-603.28334h68v603.28334z" fill="#21c414"/><path d="M436.5,35.71666v-16h73v16z" fill="#21c414"/><path d="M488.5,90.71666v-16h73v16z" fill="#21c414"/><path d="M438.5,137.71666v-16h73v16z" fill="#21c414"/><path d="M459.5,438.71666v-221h31v221z" fill="#21c414"/></g></g></svg>