<svg xmlns="http://www.w3.org/2000/svg" xmlns:xlink="http://www.w3.org/1999/xlink" version="1.1" width="44.48822" height="41.54094" viewBox="0,0,44.48822,41.54094"><defs><radialGradient cx="240.00001" cy="179.99999" r="22.24459" gradientUnits="userSpaceOnUse" id="color-1"><stop offset="0" stop-color="#fff700"/><stop offset="1" stop-color="#fff700" stop-opacity="0"/></radialGradient></defs><g><g data-paper-data="{&quot;isPaintingLayer&quot;:true}" fill-rule="nonzero" stroke-linecap="butt" stroke-linejoin="miter" stroke-miterlimit="10" stroke-dasharray="" stroke-dashoffset="0" style="mix-blend-mode: normal"><path d="M 21.5785 30.5648 C 21.5785 30.5648 20.9708 31.3096 19.5826 33.103 C 18.1787 34.9166 16.0742 34.9511 14.6813 33.8506 C 13.4683 32.8922 13.5226 30.9492 13.9498 28.7807 C 14.4983 25.9966 15.7323 24.0269 15.7323 24.0269 C 15.7323 24.0269 8.289 23.6264 9.0282 20.2198 C 9.3212 18.8693 9.6123 18.0384 11.3972 17.4354 C 14.1147 16.5173 17.3221 16.049 17.3221 16.049 C 17.3221 16.049 17.1802 13.351 17.9243 10.8879 C 18.5788 8.7213 19.9767 6.7332 21.9599 6.9708 C 23.2897 7.1302 24.5188 8.6121 25.1876 9.8913 C 26.6501 12.689 26.5585 17.1559 26.5585 17.1559 C 26.5585 17.1559 30.6751 16.757 33.3061 17.4216 C 34.7427 17.7845 35.3782 18.4858 35.4875 19.6928 C 35.6313 21.2814 35.1668 23.0065 33.2141 23.6601 C 30.9659 24.4125 27.6856 23.9386 27.6856 23.9386 C 27.6856 23.9386 28.7681 26.1544 29.1877 28.4835 C 29.5475 30.4808 28.8419 32.596 27.8231 33.3927 C 26.9807 34.0514 24.8945 33.9604 23.88 33.2052 C 22.2367 31.9818 21.5785 30.5648 21.5785 30.5648 Z " data-paper-data="{&quot;index&quot;:null,&quot;origRot&quot;:0}" fill="#fbff00" stroke="#e3b000" stroke-width="2.5"/><path d="M262.24037,180.43283c-0.2232,11.46867 -10.36148,20.57209 -22.64451,20.33304c-12.28302,-0.23905 -22.05944,-9.73003 -21.83623,-21.19871c0.2232,-11.46867 10.36149,-20.57208 22.64451,-20.33303c12.28301,0.23904 22.05942,9.73002 21.83621,21.19871z" data-paper-data="{&quot;index&quot;:null,&quot;origPos&quot;:null,&quot;origRot&quot;:0}" fill="url(#color-1)" stroke="none" stroke-width="0" transform="matrix(1,0,0,1,-217.75589,-159.22954)"/></g></g></svg>