<svg version="1.1" xmlns="http://www.w3.org/2000/svg" xmlns:xlink="http://www.w3.org/1999/xlink" width="520.93234" height="540.58126" viewBox="0,0,520.93234,540.58126"><defs><linearGradient x1="240.42087" y1="-9.6307" x2="240.42087" y2="333.80049" gradientUnits="userSpaceOnUse" id="color-1"><stop offset="0" stop-color="#3d3d3d"/><stop offset="1" stop-color="#000000"/></linearGradient><linearGradient x1="234.99083" y1="282.53547" x2="234.99083" y2="406.53547" gradientUnits="userSpaceOnUse" id="color-2"><stop offset="0" stop-color="#9e9e9e"/><stop offset="1" stop-color="#5a5a5a"/></linearGradient><radialGradient cx="23.67202" cy="236.57916" r="7.99656" gradientUnits="userSpaceOnUse" id="color-3"><stop offset="0" stop-color="#af2525"/><stop offset="1" stop-color="#af2525" stop-opacity="0"/></radialGradient><radialGradient cx="103.58716" cy="266.83145" r="7.99656" gradientUnits="userSpaceOnUse" id="color-4"><stop offset="0" stop-color="#af2525"/><stop offset="1" stop-color="#af2525" stop-opacity="0"/></radialGradient><radialGradient cx="171.71789" cy="223.01035" r="7.99656" gradientUnits="userSpaceOnUse" id="color-5"><stop offset="0" stop-color="#af2525"/><stop offset="1" stop-color="#af2525" stop-opacity="0"/></radialGradient><radialGradient cx="228.90596" cy="246.5287" r="7.99656" gradientUnits="userSpaceOnUse" id="color-6"><stop offset="0" stop-color="#af2525"/><stop offset="1" stop-color="#af2525" stop-opacity="0"/></radialGradient><radialGradient cx="344.17431" cy="242.26953" r="7.99656" gradientUnits="userSpaceOnUse" id="color-7"><stop offset="0" stop-color="#af2525"/><stop offset="1" stop-color="#af2525" stop-opacity="0"/></radialGradient><radialGradient cx="431.66514" cy="238.8521" r="7.99656" gradientUnits="userSpaceOnUse" id="color-8"><stop offset="0" stop-color="#af2525"/><stop offset="1" stop-color="#af2525" stop-opacity="0"/></radialGradient></defs><g transform="translate(24.62156,134.04579)"><g data-paper-data="{&quot;isPaintingLayer&quot;:true}" fill-rule="nonzero" stroke-linecap="butt" stroke-linejoin="miter" stroke-miterlimit="10" stroke-dasharray="" stroke-dashoffset="0" style="mix-blend-mode: normal"><path d="M-15.46904,333.80049v-343.43119h511.77982v343.43119z" fill="url(#color-1)" stroke="none" stroke-width="0"/><path d="M-24.62156,406.53547v-124h519.22477v124z" fill="url(#color-2)" stroke="none" stroke-width="0"/><path d="M15.67546,236.57916c0,-4.41638 3.58018,-7.99656 7.99656,-7.99656c4.41638,0 7.99656,3.58018 7.99656,7.99656c0,4.41638 -3.58018,7.99656 -7.99656,7.99656c-4.41638,0 -7.99656,-3.58018 -7.99656,-7.99656z" fill="url(#color-3)" stroke="none" stroke-width="0"/><path d="M95.5906,266.83145c0,-4.41638 3.58018,-7.99656 7.99656,-7.99656c4.41638,0 7.99656,3.58018 7.99656,7.99656c0,4.41638 -3.58018,7.99656 -7.99656,7.99656c-4.41638,0 -7.99656,-3.58018 -7.99656,-7.99656z" fill="url(#color-4)" stroke="none" stroke-width="0"/><path d="M163.72133,223.01035c0,-4.41638 3.58018,-7.99656 7.99656,-7.99656c4.41638,0 7.99656,3.58018 7.99656,7.99656c0,4.41638 -3.58018,7.99656 -7.99656,7.99656c-4.41638,0 -7.99656,-3.58018 -7.99656,-7.99656z" fill="url(#color-5)" stroke="none" stroke-width="0"/><path d="M220.9094,246.5287c0,-4.41638 3.58018,-7.99656 7.99656,-7.99656c4.41638,0 7.99656,3.58018 7.99656,7.99656c0,4.41638 -3.58018,7.99656 -7.99656,7.99656c-4.41638,0 -7.99656,-3.58018 -7.99656,-7.99656z" fill="url(#color-6)" stroke="none" stroke-width="0"/><path d="M336.17775,242.26953c0,-4.41638 3.58018,-7.99656 7.99656,-7.99656c4.41638,0 7.99656,3.58018 7.99656,7.99656c0,4.41638 -3.58018,7.99656 -7.99656,7.99656c-4.41638,0 -7.99656,-3.58018 -7.99656,-7.99656z" fill="url(#color-7)" stroke="none" stroke-width="0"/><path d="M423.66858,238.8521c0,-4.41638 3.58018,-7.99656 7.99656,-7.99656c4.41638,0 7.99656,3.58018 7.99656,7.99656c0,4.41638 -3.58018,7.99656 -7.99656,7.99656c-4.41638,0 -7.99656,-3.58018 -7.99656,-7.99656z" fill="url(#color-8)" stroke="none" stroke-width="0"/><g stroke-width="1"><path d="M363.9143,98.49717l-127.09018,-187.68251l65.223,-44.1661l127.09018,187.68251z" fill="#4d87ff" stroke="#0046d1"/><path d="M462.90014,60.73652c26.17365,35.6962 -13.67577,52.01363 -32.54863,64.79348c-18.8729,12.77988 -44.66979,11.56334 -54.60972,-3.11561c-9.93985,-14.67883 -16.6901,-30.12217 2.1828,-42.90205c18.8729,-12.77988 64.09537,-47.2527 84.97543,-18.77584z" fill="#c58d3b" stroke="#1c1100"/></g><g stroke-width="1"><path d="M93.99843,223.86434l55.15923,-270.70886l77.39528,14.65108l-55.15923,270.70886z" fill="#4d87ff" stroke="#0046d1"/><path d="M190.82574,266.85894c-6.59863,43.76913 -46.36567,27.25195 -68.76068,23.01253c-22.39506,-4.23943 -39.83477,-23.28717 -36.53743,-40.70559c3.29731,-17.41828 9.39587,-33.13038 31.79094,-28.89095c22.39506,4.23943 78.77129,11.66691 73.50711,46.58391z" fill="#c58d3b" stroke="#1c1100"/></g></g></g></svg>