<svg version="1.1" xmlns="http://www.w3.org/2000/svg" xmlns:xlink="http://www.w3.org/1999/xlink" width="238.66799" height="360.81971" viewBox="0,0,238.66799,360.81971"><g transform="translate(-123.67654,-34.91973)"><g data-paper-data="{&quot;isPaintingLayer&quot;:true}" fill-rule="nonzero" stroke-linejoin="miter" stroke-miterlimit="10" stroke-dasharray="" stroke-dashoffset="0" style="mix-blend-mode: normal"><path d="M221.20187,179.87329v-10.66789h26.02963v10.66789z" fill="#ffd5a1" stroke="#525252" stroke-width="1" stroke-linecap="butt"/><path d="M246.08358,171.09485l0.19243,7.79307c0,0 -22.25675,0.35983 -22.25675,0.06415c0,-2.19628 -2.8905,-11.09631 -1.02625,-11.09631c4.1066,0.14509 23.09058,3.23909 23.09058,3.23909z" fill="#e7c091" stroke="none" stroke-width="0" stroke-linecap="butt"/><g data-paper-data="{&quot;index&quot;:null}" stroke-width="1" stroke-linecap="butt"><path d="M346.37528,245.65234c2.6264,-3.77107 7.89097,-4.6444 11.75871,-1.95068c3.86774,2.69373 4.87409,7.93452 2.2477,11.70558c-2.6264,3.77107 -7.89098,4.64441 -11.75873,1.95067c-3.86774,-2.69373 -4.87409,-7.9345 -2.24768,-11.70558z" data-paper-data="{&quot;origPos&quot;:null}" fill="#ffd4a0" stroke="#e7c091"/><path d="M345.8418,257.64331l-102.74924,-67.91963c0,0 3.47125,-15.08745 9.89998,-15.39511c14.61659,-0.6995 23.03957,6.4194 34.57354,14.50363c18.81635,13.18846 70.53727,51.76733 70.53727,51.76733z" data-paper-data="{&quot;origRot&quot;:0,&quot;origPos&quot;:null}" fill="#e80000" stroke="#740000"/></g><path d="M242.39109,373.87844v-80.22249h27.87874v80.22249z" fill="#4d87ff" stroke="#0046d1" stroke-width="1" stroke-linecap="butt"/><path d="M201.42641,374.47709v-80.22249h27.87875v80.22249z" fill="#4d87ff" stroke="#0046d1" stroke-width="1" stroke-linecap="butt"/><path d="M201.01849,306.94764v-126.61524h69.80692v126.61528z" fill="#e80000" stroke="#740000" stroke-width="1" stroke-linecap="butt"/><path d="M192.97932,382.37281c0.46801,-12.48895 20.56183,-11.36061 28.62881,-11.36061c8.06698,0 9.15343,5.86536 9.15343,12.13964c0,6.27433 -7.31858,11.75016 -15.38556,11.75016c-8.06696,0 -22.98329,3.12597 -22.39666,-12.52916z" data-paper-data="{&quot;index&quot;:null}" fill="#c58d3b" stroke="#1c1100" stroke-width="1" stroke-linecap="butt"/><path d="M167.28917,379.59766z" fill="#c58d3b" stroke="#784800" stroke-width="1" stroke-linecap="butt"/><path d="M278.89318,382.45571c0.58664,15.65513 -14.3297,12.52913 -22.39666,12.52913c-8.06698,0 -15.38556,-5.47581 -15.38556,-11.75014c0,-6.27428 1.08645,-12.13964 9.15343,-12.13964c8.06698,0 28.1608,-1.12833 28.62876,11.36062z" fill="#c58d3b" stroke="#1c1100" stroke-width="1" stroke-linecap="butt"/><path d="M207.76712,200.7336v-19.42735h8.53431v19.42735z" fill="#e80000" stroke="none" stroke-width="0" stroke-linecap="butt"/><path d="M264.87115,197.89149v-18.97833h8.5343v18.97837z" fill="#e80000" stroke="none" stroke-width="0" stroke-linecap="butt"/><g data-paper-data="{&quot;index&quot;:null}"><path d="M240.22354,173.74673c-40.13904,-8.23665 -66.39846,-45.51604 -58.65209,-83.26585c7.74637,-37.74981 46.56515,-61.67497 86.70419,-53.43832c40.13904,8.23665 66.39846,45.51604 58.65209,83.26585c-7.74637,37.74981 -46.56515,61.67497 -86.70419,53.43832z" data-paper-data="{&quot;index&quot;:null}" fill="#e7c091" stroke="#525252" stroke-width="1" stroke-linecap="butt"/><path d="M323.28759,127.73956c-5.60817,21.74343 -18.42107,32.35484 -39.08956,41.13216c-14.15409,6.01083 -23.01385,6.32928 -38.28544,4.52724c-26.58672,-3.13722 -50.44112,-37.06155 -53.30055,-63.45607c-2.68928,-24.82393 -1.08022,-36.82553 25.14402,-31.44424c0,0 9.90594,-1.70024 -0.45521,4.68979c-4.304,2.65443 23.0961,-0.60923 36.46485,4.75357c0,0 6.46136,0.1494 -3.37675,6.43353c-10.76269,6.87471 22.18241,-3.2804 31.51733,1.29451c0,0 -10.04263,-0.77474 -5.22881,9.04504c0,0 21.06075,3.275 27.75004,2.87965c9.17235,-0.5421 22.33039,-7.41548 22.33039,-7.41548c0,0 1.06776,9.96166 -0.14064,16.87939c-0.66393,3.80069 -1.68618,4.30897 -3.32969,10.68089z" data-paper-data="{&quot;index&quot;:null}" fill="#ffd5a1" stroke="none" stroke-width="0" stroke-linecap="butt"/><path d="M267.91495,37.76717c17.41672,3.57397 26.27432,8.33523 39.50901,20.20781c8.96938,8.04627 14.53995,14.44113 20.38423,24.97855c2.58774,4.66588 1.57682,12.65083 1.57682,12.65083c-2.50171,7.15429 -42.56982,7.52494 -42.56982,7.52494c-6.36586,-1.96417 25.08451,-17.07001 16.57247,-14.51483c-8.51202,2.55521 -40.50684,3.26919 -40.50684,3.26919c-11.12581,-2.12556 32.24067,-16.53039 16.18615,-16.3223c-16.05455,0.20803 -52.14051,7.11108 -52.14051,7.11108c-9.35058,-1.91877 26.77455,-15.36132 17.48666,-17.56343c-9.9353,-2.35563 -13.86245,0.17744 -24.55364,3.42137c-7.54931,2.29059 -33.56578,13.45499 -31.97995,5.72688c2.8645,-13.95936 16.85466,-22.85979 29.27095,-29.85294c13.95252,-7.85837 35.07805,-9.85603 50.76454,-6.63712z" data-paper-data="{&quot;index&quot;:null}" fill="#ffef4d" stroke="#716a22" stroke-width="1" stroke-linecap="butt"/><path d="M291.6486,129.21331c-2.41928,11.78971 -6.43904,20.92472 -8.97834,20.40365c-2.53932,-0.52108 -2.63663,-10.50094 -0.21735,-22.29063c2.41928,-11.78971 6.43904,-20.92472 8.97834,-20.40365c2.53932,0.52108 2.63663,10.50094 0.21735,22.29063z" data-paper-data="{&quot;index&quot;:null}" fill="#000000" stroke="#1c1c1c" stroke-width="1" stroke-linecap="butt"/><path d="M304.74748,110.33976c2.53932,0.52107 2.63665,10.50094 0.21737,22.29063c-2.41928,11.7897 -6.43904,20.92474 -8.97836,20.40366c-2.53931,-0.52108 -2.63662,-10.50094 -0.21734,-22.29065c2.41928,-11.78971 6.43899,-20.92473 8.97834,-20.40365z" data-paper-data="{&quot;index&quot;:null}" fill="#000000" stroke="#1c1c1c" stroke-width="1" stroke-linecap="butt"/><path d="M248.59046,150.00744l26.20523,11.61162" fill="none" stroke="#000000" stroke-width="1" stroke-linecap="round"/><path d="M295.9288,113.88313l-7.65175,-13.34592" fill="none" stroke="#000000" stroke-width="1.5" stroke-linecap="round"/></g><g stroke-width="1" stroke-linecap="butt"><path d="M248.26345,92.67851c1.30626,-4.52871 5.94469,-7.16756 10.36022,-5.89395c4.41552,1.27361 6.93608,5.97737 5.62982,10.5061c-1.30626,4.52871 -5.9447,7.16754 -10.36023,5.89393c-4.41552,-1.27361 -6.93607,-5.97737 -5.62981,-10.50608z" data-paper-data="{&quot;origPos&quot;:null}" fill="#ffd4a0" stroke="#e7c091"/><path d="M266.18423,99.71896c0,0 -15.85648,62.54557 -22.15871,84.6425c-3.86309,13.54488 -5.91859,24.38002 -17.70972,33.04619c-5.18605,3.81162 -17.38767,-5.7174 -17.38767,-5.7174l36.99581,-117.48102z" data-paper-data="{&quot;origRot&quot;:0,&quot;origPos&quot;:null}" fill="#e80000" stroke="#740000"/></g><path d="M134.18732,155.0301c-0.93001,0.00201 -1.7425,-0.50406 -2.17476,-1.25661c-0.68612,0.84743 -1.36841,1.70455 -2.04856,2.57346l-1.80177,2.3071c-0.45579,0.5949 -1.17294,0.97916 -1.9803,0.98091c-1.38071,0.00298 -2.50241,-1.11389 -2.50539,-2.4946c-0.0009,-0.41821 0.10094,-0.81266 0.28173,-1.15946l1.08641,-2.1954c-0.2244,-0.80255 0.73921,-1.49377 1.1088,-2.24066c1.47841,-2.98754 2.95682,-5.97509 4.43523,-8.96263c0.67235,-1.35867 1.40743,-2.68239 2.19807,-3.97245c-0.10348,-0.27342 -0.1604,-0.56977 -0.16107,-0.87937c-0.0018,-0.83159 0.40263,-1.56921 1.02628,-2.02506l1.97805,-1.47971c0.10967,-0.08205 0.21933,-0.16436 0.32898,-0.24694c5.61706,-7.40503 12.98585,-13.60784 20.45646,-18.90843c3.05547,-2.1667 6.15225,-4.9982 9.47849,-6.72141c3.80815,-1.97287 8.11667,-2.98653 12.00346,-4.8172c7.73151,-3.64152 15.79617,-7.38462 24.08571,-9.55403c4.39952,-1.10998 8.10862,-4.2817 12.42222,-5.63122c1.79975,-0.56306 3.67752,-0.95448 5.55235,-1.28719l-0.00264,-0.01633l4.89086,-0.78916c0.14223,-0.02547 0.28864,-0.0389 0.43814,-0.03923c1.38071,-0.00298 2.50241,1.11389 2.50539,2.4946c0.00157,0.72895 -0.30899,1.3857 -0.80573,1.84374c0.27524,0.40067 0.43676,0.88564 0.43789,1.40843c0.00227,1.05278 -0.64653,1.95497 -1.56692,2.32546l-3.25999,1.39927c3.28081,-1.39557 6.56158,-2.79556 9.85002,-4.18884c0.34493,-0.14614 0.68983,-0.29228 1.03473,-0.43847c1.97985,-1.3212 3.98616,-2.53643 6.365,-3.44176l-0.04077,-0.16632l4.80226,-1.1771c0.20533,-0.05505 0.42112,-0.08462 0.64376,-0.0851c1.38071,-0.00298 2.50241,1.11389 2.50539,2.4946c0.00224,1.0392 -0.6299,1.93167 -1.53144,2.31086l-1.2678,0.567c-0.08253,0.47484 -0.87826,0.39729 -1.3199,0.59029c-0.7739,0.33821 -1.55106,0.66892 -2.32662,1.00333c-2.10343,0.90696 -4.21185,1.80154 -6.32091,2.69521c-1.79441,1.26386 -3.5724,2.61417 -5.6064,3.80534c-3.28526,1.92395 -7.23698,3.15916 -10.72623,4.68232c-12.62071,5.50932 -26.29491,10.19239 -38.32305,16.89934c-0.2486,0.13862 -0.4961,0.28047 -0.74258,0.4252c0.00049,0.01961 0.00076,0.03928 0.00081,0.059c0.00166,0.76726 -0.34249,1.45452 -0.88556,1.9143l-1.88537,1.61624c-0.12043,0.77932 -1.16433,1.03445 -1.79489,1.53867c-0.0358,0.02863 -0.07026,0.05805 -0.10315,0.08842c-2.3967,2.21336 -4.6414,4.62522 -6.95502,6.92597c-3.91126,3.88951 -7.91144,7.58689 -11.99495,11.17974c-2.50148,3.02238 -5.41734,5.50181 -8.467,7.9748c-1.91409,2.53562 -3.70249,5.17355 -5.50609,7.79075l0.00588,0.00411l-1.17913,1.68909v0l-1.1592,1.66053c-0.44862,0.66083 -1.20549,1.09568 -2.06447,1.09753c-1.38071,0.00298 -2.50241,-1.11389 -2.50539,-2.4946c-0.00029,-0.13597 0.01027,-0.26943 0.03089,-0.39956l-0.98834,0.79969c-0.43038,0.35419 -0.98128,0.56736 -1.58215,0.56866c-1.38071,0.00298 -2.50241,-1.11389 -2.50539,-2.4946c-0.00168,-0.77632 0.35068,-1.47076 0.9049,-1.9305l1.50219,-1.26363c0.08539,-0.31848 0.23213,-0.61191 0.42679,-0.86682l1.57131,-2.10454c-0.08853,0.00968 -0.17845,0.01475 -0.26953,0.01494zM170.52296,117.29162c-2.80623,1.09331 -5.58432,2.24535 -8.19755,3.57545c-1.66002,1.56938 -3.22859,3.2524 -4.75874,4.94083c1.85209,-1.51045 3.74149,-3.13152 5.79839,-4.26544c0.40835,-0.22511 0.97213,-0.60638 1.35637,-0.34221l1.30201,-0.32849c0.21035,-0.05798 0.43182,-0.08917 0.66054,-0.08967c0.14328,-0.00031 0.28378,0.01144 0.42053,0.03429c1.11794,-1.19789 2.25623,-2.37435 3.41847,-3.52476zM137.78681,139.54991c0.00816,-0.00872 0.01632,-0.01744 0.02448,-0.02615l-0.00888,0.00269c-0.0052,0.00782 -0.0104,0.01564 -0.01559,0.02346z" fill="#000000" stroke="none" stroke-width="0.5" stroke-linecap="butt"/><g stroke-linecap="butt"><g data-paper-data="{&quot;origPos&quot;:null}" stroke="none"><path d="M245.44861,105.13889c-10.1371,-4.02687 -23.6704,-13.44539 -23.6704,-13.44539l3.54932,-6.8506c0,0 17.72993,1.6883 25.46892,4.76256c10.13709,4.02687 31.40175,16.20911 30.51606,18.96961c-1.64508,5.12733 -25.72681,0.5907 -35.8639,-3.43617z" data-paper-data="{&quot;origRot&quot;:0,&quot;origPos&quot;:null}" fill="#000000" stroke-width="NaN"/><path d="M267.22585,109.77955l1.19643,-4.13886c0.31018,-1.28909 1.62355,-5.96593 1.62355,-5.96593c0,0 2.8483,1.85562 4.2633,2.56282c3.69333,1.84589 7.70791,6.22691 7.74495,6.42275c0.33352,1.76367 -4.08401,1.53559 -7.47568,2.17697c-3.39167,0.64137 -7.35255,-1.05776 -7.35255,-1.05776z" data-paper-data="{&quot;origPos&quot;:null}" fill="#252525" stroke-width="0"/></g><text transform="translate(267.24432,103.74451) rotate(-156.56544) scale(0.11764,0.11764)" font-size="40" xml:space="preserve" data-paper-data="{&quot;origRot&quot;:-11.57517}" fill="#ffffff" fill-rule="nonzero" stroke="#797979" stroke-width="2" stroke-linecap="butt" stroke-linejoin="miter" stroke-miterlimit="10" stroke-dasharray="" stroke-dashoffset="0" font-family="Pixel" font-weight="normal" text-anchor="start" style="mix-blend-mode: normal"><tspan x="0" dy="0">Non-Branded Pen</tspan></text></g></g></g></svg>