<svg version="1.1" xmlns="http://www.w3.org/2000/svg" xmlns:xlink="http://www.w3.org/1999/xlink" width="250.40391" height="136.4942" viewBox="0,0,250.40391,136.4942"><g transform="translate(-104.29192,-213.21399)"><g data-paper-data="{&quot;isPaintingLayer&quot;:true}" fill-rule="nonzero" stroke-width="10" stroke-linejoin="miter" stroke-miterlimit="10" stroke-dasharray="" stroke-dashoffset="0" style="mix-blend-mode: normal"><path d="M109.29967,288.57013c-0.41584,-20.44257 15.95984,-44.08708 35.34618,-51.97968c42.457,-17.27389 90.74405,-18.81249 136.39468,-18.29685c20.03504,0.62376 41.83325,7.46013 55.72222,21.62355c11.72662,11.9678 13.23195,31.90305 12.89096,48.65298c-0.27445,12.50839 -4.64075,25.01678 -13.72264,32.43532c-15.90162,12.98244 -35.33786,22.80452 -54.89054,23.70273c-45.25143,2.37859 -92.09967,0.07485 -134.31549,-14.13847c-17.78121,-5.95479 -37.05111,-23.27026 -37.42537,-41.99958z" data-paper-data="{&quot;origPos&quot;:null}" fill="#404040" stroke="#000000" stroke-linecap="round"/><path d="M219.06494,226.41491l-21.6984,84.08066l-40.43769,-76.43674l61.64291,-7.64392z" data-paper-data="{&quot;origPos&quot;:null}" fill="#ffd7b8" stroke="#000000" stroke-linecap="round"/><path d="M184.63526,251.14393c0,-1.30323 0.69694,-2.48755 1.82137,-3.34416c1.13025,-0.85579 2.68215,-1.38308 4.39955,-1.38308c1.71659,0 3.26931,0.52728 4.39873,1.38308c1.12442,0.85662 1.82137,2.04093 1.82137,3.34416c0,1.30407 -0.69694,2.48837 -1.82137,3.34416c-1.12941,0.85579 -2.68215,1.38391 -4.39873,1.38391c-1.71741,0 -3.26931,-0.52811 -4.39956,-1.38391c-1.12442,-0.85579 -1.82137,-2.0401 -1.82137,-3.34416z" data-paper-data="{&quot;origPos&quot;:null}" fill="#000000" stroke="#320066" stroke-linecap="butt"/></g></g></svg>