<svg version="1.1" xmlns="http://www.w3.org/2000/svg" xmlns:xlink="http://www.w3.org/1999/xlink" width="234.98306" height="428.21883" viewBox="0,0,234.98306,428.21883"><g transform="translate(-183.01694,-9.57772)"><g data-paper-data="{&quot;isPaintingLayer&quot;:true}" fill-rule="nonzero" stroke-linejoin="miter" stroke-miterlimit="10" stroke-dasharray="" stroke-dashoffset="0" style="mix-blend-mode: normal"><path d="M255.92717,236.03967c0,0 32.20993,13.14472 34.62037,16.7896c3.42427,5.17786 -17.42048,-2.93948 -17.42048,-2.93948c0,0 2.68248,3.37784 7.12419,5.96384c6.34769,3.69567 16.94462,2.29516 13.45211,14.55522c-4.33301,15.21053 -43.1755,-10.35619 -48.19713,-23.25025" fill="#ffe9cc" stroke="#000000" stroke-width="2.5" stroke-linecap="round"/><path d="M236.89314,286.48119c-4.39373,-5.05293 -6.50092,134.56482 -9.91043,140.32781c-35.15474,17.28903 -53.25494,10.96413 -36.25976,-14.28033c8.07494,-28.0657 7.4192,-49.15326 4.07359,-78.16523c-3.50038,-30.35412 -7.59044,-58.46517 0.83508,-87.83584c6.65016,-23.18191 18.27762,-28.02704 42.39454,-28.02704c0,0 31.63502,4.36508 38.19303,28.06711c4.43904,16.04367 -25.45927,12.11063 -39.32605,39.91352z" fill="#ffffff" stroke="#000000" stroke-width="2.5" stroke-linecap="butt"/><path d="M238.71106,227.54366c0,0 18.84576,-1.54787 29.77763,0.49699c14.81074,2.77043 51.03849,14.6201 51.03849,14.6201l88.0197,4.07353c0,0 2.85548,-5.97818 5.06892,-0.16063c2.21346,5.81754 2.8834,9.73129 0.85433,15.72857c-2.55848,7.562 -14.73316,25.08047 -14.73316,25.08047l-159.1097,-14.45101" fill="#ffffff" stroke="#000000" stroke-width="2.5" stroke-linecap="round"/><path d="M236.13991,225.8684c0.52743,0.4615 0.8615,0.94249 0.74609,1.07434c-0.11536,0.13185 -0.63646,-0.13536 -1.16389,-0.59684c-0.52743,-0.4615 -0.86148,-0.9425 -0.74609,-1.07436c0.11536,-0.13185 0.63647,0.13537 1.16389,0.59686z" data-paper-data="{&quot;origRot&quot;:0}" fill="#e7e69d" stroke="none" stroke-width="2.5" stroke-linecap="butt"/><path d="M241.85438,173.97337c0,0 -3.04017,2.69035 -5.5323,11.76003c-2.18823,7.96375 -3.06097,23.18187 -3.06097,23.18187l26.75204,30.74627l-11.734,7.33352l-29.52945,-31.70809c0,0 -3.50101,-11.03714 -3.28629,-20.94866c0.23742,-10.96026 2.39179,-19.53584 2.39179,-19.53584" fill="#ffe9cc" stroke="#000000" stroke-width="2.5" stroke-linecap="round"/><path d="M242.76542,175.65723c-7.08572,-0.52291 -26.83597,14.39575 -25.08625,-12.88042c0.50239,-7.83186 -6.06529,-11.06131 1.77557,-11.39461c12.62499,-0.53668 2.4799,3.81902 11.4728,-5.05828c1.46517,-1.44635 1.36522,-15.05669 2.52508,-16.75768c3.4796,-5.10299 5.24224,-4.82393 14.74436,-4.51926c0,0 4.49104,-0.64527 6.54779,5.66827c0.8242,2.53002 -2.676,12.44573 0.62173,17.16122c2.04215,2.92011 6.92039,-2.10662 19.43641,1.06678c-0.95364,-0.25457 5.75249,8.48987 2.84714,11.79317c-7.00422,7.9636 -27.04084,15.49966 -34.88463,14.92081z" data-paper-data="{&quot;origRot&quot;:0}" fill="#ffe9cc" stroke="#000000" stroke-width="2.5" stroke-linecap="butt"/><path d="M197.45156,243.20992c0,0 19.6991,-42.19953 18.68268,-56.45988c-0.29046,-4.07508 -3.54958,-16.42582 -4.12877,-27.11553c-0.57919,-10.6897 -2.01728,-13.81213 2.02168,-11.77365c9.95417,-2.8739 32.99965,-1.41489 32.99965,-1.41489c0,0 11.38685,14.29214 24.30478,14.70634c14.41903,0.4623 0.51374,-10.67945 3.48825,-12.2722c0.82715,0.4175 0.77051,-1.63521 1.83069,-1.30388c0.19454,0.06079 13.43229,2.5722 17.37458,6.22866c3.21879,2.9854 -5.1341,26.75949 -5.37397,33.59488c-0.75324,21.46741 -4.96957,59.69638 -4.96957,59.69638c0,0 -15.62166,7.09058 -28.33512,6.5176c-4.23782,-0.19101 -57.89492,-10.40389 -57.89492,-10.40389z" data-paper-data="{&quot;origRot&quot;:0}" fill="#fffeae" stroke="#000000" stroke-width="2.5" stroke-linecap="butt"/><path d="M236.13991,225.8684c0.52743,0.4615 0.8615,0.94249 0.74609,1.07434c-0.11536,0.13185 -0.63646,-0.13536 -1.16389,-0.59684c-0.52743,-0.4615 -0.86148,-0.9425 -0.74609,-1.07436c0.11536,-0.13185 0.63647,0.13537 1.16389,0.59686z" data-paper-data="{&quot;origRot&quot;:0}" fill="#e7e69d" stroke="none" stroke-width="2.5" stroke-linecap="butt"/><path d="M265.64395,171.48771c0,0 -1.16101,3.89008 1.51216,12.90806c2.34721,7.91833 9.6424,21.30241 9.6424,21.30241l38.95412,11.98257l-6.09184,12.42405l-41.82059,-11.33267c0,0 -8.80147,-7.52393 -13.85317,-16.05414c-5.58623,-9.4328 -8.2853,-17.85283 -8.2853,-17.85283" fill="#ffe9cc" stroke="#000000" stroke-width="2.5" stroke-linecap="round"/><path d="M261.75712,160.8378l2.73873,11.30263c0,0 -10.63019,15.97143 -17.14475,17.36135c-5.90392,1.25963 -18.22341,0.25523 -18.22341,0.25523l1.19204,-22.73937" fill="#fffeae" stroke="#000000" stroke-width="2.5" stroke-linecap="round"/><path d="M296.05759,211.71648c0,0 14.54996,-4.84679 17.49425,-3.02448c4.18261,2.58875 -6.3881,5.82169 -2.57963,5.67217c2.5475,-0.10002 3.46268,-5.84936 7.66264,-7.13474c4.77326,-1.46084 12.78037,1.872 14.16386,8.39127c3.22672,15.2049 -30.73976,19.33879 -38.94859,11.04098" fill="#ffe9cc" stroke="#000000" stroke-width="2.5" stroke-linecap="round"/><g stroke-linecap="butt"><path d="M271.67499,26.7432c4.28484,10.39157 -9.46098,17.00997 -26.48548,24.02983c-17.02451,7.01986 -34.56952,11.26371 -38.85439,0.87214c-4.28484,-10.39157 6.31304,-31.48349 23.33756,-38.50334c17.02451,-7.01986 37.71745,3.20981 42.00231,13.60139z" data-paper-data="{&quot;origRot&quot;:0}" fill="#2c1500" stroke="#000000" stroke-width="2.5"/><path d="M315.04771,105.02211c-4.72244,29.62231 -48.58148,42.33877 -60.52131,39.77396c-7.62362,-1.63764 -49.81232,-28.29234 -43.79438,-57.67884c10.91294,-53.28958 32.53989,-49.52226 61.34588,-44.57797c28.80597,4.94429 52.18754,4.66325 42.96981,62.48285z" data-paper-data="{&quot;origRot&quot;:0}" fill="#ffe9cc" stroke="#000000" stroke-width="2.5"/><path d="M319.40232,98.17459c-0.08259,0.4811 -2.07313,-19.26433 -1.18322,-18.94909c-15.40658,4.86394 -13.81901,4.59252 -29.86154,6.5051c-52.10589,6.21202 16.12954,-12.35077 -2.14272,-15.46535c-0.06775,-0.01154 -50.64011,10.38383 -50.70787,10.37221c-2.61162,-0.44825 -27.66199,26.36157 -29.98987,25.09566c-6.98361,-3.79777 6.39036,-69.26114 29.5917,-74.87369c29.9557,-7.24647 48.87738,-3.58559 65.79064,5.32272c26.96539,14.20283 20.4058,50.90597 18.5029,61.99248z" data-paper-data="{&quot;origRot&quot;:0}" fill="#2c1500" stroke="#000000" stroke-width="2.5"/><path d="M272.61596,94.27464c0.31097,-4.71576 2.93087,-8.3825 5.85172,-8.18989c2.92085,0.19261 5.03658,4.17162 4.72561,8.88738c-0.31097,4.71576 -2.93087,8.3825 -5.85172,8.18989c-2.92085,-0.19261 -5.03658,-4.17162 -4.72561,-8.88738z" fill="#000000" stroke="none" stroke-width="0"/><path d="M305.8469,94.63758c0.31097,-4.71576 2.93088,-8.38251 5.85173,-8.18991c2.92085,0.19261 5.03657,4.17165 4.72561,8.8874c-0.31097,4.71576 -2.93087,8.3825 -5.85172,8.18989c-2.92085,-0.19261 -5.03659,-4.17161 -4.72562,-8.88738z" fill="#000000" stroke="none" stroke-width="0"/><path d="M288.6401,120.10747c-0.41407,2.91626 -3.31765,4.91576 -6.48531,4.466c-3.16767,-0.44977 -5.39991,-3.17848 -4.98584,-6.09474c0.41407,-2.91626 3.31765,-4.91576 6.48531,-4.466c3.16767,0.44977 5.39991,3.17848 4.98584,6.09474z" fill="#2c1500" stroke="none" stroke-width="0"/></g><path d="M305.72227,363.16154c-1.75775,-1.77773 0.64836,-3.98812 0.64836,-3.98812l1.12921,-0.57179c14.79485,-7.46225 27.18163,-18.50324 39.67875,-29.21505c0.62963,-0.53968 1.25587,-1.08272 1.87873,-1.62908c1.62756,-2.27096 3.23272,-4.55465 4.82825,-6.83545c4.15472,-5.93531 8.01109,-12.32075 12.56634,-17.95192c0.66994,-0.82817 1.3667,-1.63467 2.08001,-2.42776c0.55156,-1.451 1.09977,-2.90498 1.64523,-4.3623c2.03132,-5.42715 3.77156,-11.10011 6.13444,-16.38959c1.54568,-3.46012 3.69926,-6.59953 5.05955,-10.12822c0.03725,-0.2071 0.09811,-0.39593 0.20347,-0.54972l0.96448,-2.79334c0.32198,-1.00852 1.26671,-1.73887 2.38203,-1.73887c1.33004,0 2.41749,1.03864 2.49552,2.34908c1.19085,0.19122 2.10057,1.2235 2.10057,2.46826c0,0.41008 -0.09874,0.7971 -0.27373,1.13859l-1.51885,3.12677c-1.09642,2.26021 -2.19016,4.5383 -3.26845,6.83064c-0.06765,0.20897 -0.1352,0.41766 -0.20288,0.62581c-0.0743,0.36429 -0.14935,0.72827 -0.22551,1.09181c-0.03745,0.17874 -0.07495,0.35734 -0.11252,0.5358c1.11492,-1.4401 2.22961,-2.87858 3.35837,-4.30023c1.6276,-2.04994 3.23599,-4.11678 4.83299,-6.19301c0.73447,-1.72542 1.44059,-3.46336 2.16261,-5.19621c0.32051,-0.76923 0.22628,-1.91546 0.96154,-2.30769l0.93926,-2.25422c0.3634,-0.93176 1.26959,-1.59194 2.32997,-1.59194c0.55213,0 1.06245,0.17898 1.47612,0.4821c1.64818,-3.91837 2.42162,-8.01242 5.02388,-11.4821c1,-1.33333 1.37737,-3.61939 3,-4l1.48254,-1.97672c0.45492,-0.62044 1.18914,-1.02328 2.01746,-1.02328c1.38071,0 2.5,1.11929 2.5,2.5c0,0.289 -0.04904,0.56654 -0.13924,0.82477l-0.68644,2.1227c-0.80056,2.47756 -1.34522,5.35746 -2.51785,7.67457c-1.41932,2.80458 -4.11842,5.49945 -6.02156,8.00943c-0.37688,0.49705 -0.75361,0.99434 -1.13029,1.49175c-1.54918,3.53852 -3.29391,7.05821 -5.18162,10.50259c-0.24218,0.63374 -0.49411,1.26397 -0.75285,1.89036c1.16634,-1.5261 2.34731,-3.03874 3.54956,-4.53122c0.79769,-1.56067 1.62147,-3.11414 2.47724,-4.65981c1.68122,-3.03659 3.76983,-5.72506 5.83463,-8.51004c0.94428,-1.27362 1.11004,-3.53601 2.63845,-3.9576l1.26267,-2.10444c0.43183,-0.74893 1.24069,-1.25305 2.16731,-1.25305c1.38071,0 2.5,1.11929 2.5,2.5c0,0.4047 -0.09616,0.78693 -0.26688,1.12511l-0.60686,1.26954c-1.70297,3.56259 -3.14398,7.60343 -5.3134,10.90361c-1.76097,2.67885 -4.43778,4.89764 -6.45604,7.39281c-0.2867,0.35444 -0.57217,0.71005 -0.8565,1.06674c-4.18559,8.25087 -7.37015,17.02029 -10.98938,25.51352c-0.93667,2.19809 -1.69885,4.86147 -2.94016,6.89967c-2.6815,4.40294 -6.79077,8.09312 -9.93602,12.17059c-1.742,2.25831 -3.13283,5.0543 -5.10422,7.11679c-5.25278,5.49552 -11.50449,9.59884 -16.55814,15.37078c-0.78537,0.897 -1.73925,1.6561 -2.76844,2.28276l0.08659,0.25978l-2.94464,0.98155c-0.2642,0.09499 -0.54902,0.14675 -0.84593,0.14675c-1.38071,0 -2.5,-1.11929 -2.5,-2.5c0,-0.38089 0.08518,-0.74189 0.23753,-1.06498l0.7125,-1.60313l-1.3484,2.0226c-0.44514,0.68925 -1.2201,1.14551 -2.10163,1.14551c-1.23405,0 -2.25927,-0.89414 -2.46314,-2.0699c-0.54512,0.69134 -1.10825,1.36288 -1.70288,1.99828c-3.76932,4.02775 -7.94485,7.3758 -11.56281,11.59675c-1.57572,1.83834 -2.71151,3.07139 -4.55364,4.12745l0.07304,0.21913l-2.94464,0.98155c-0.2642,0.09499 -0.54902,0.14675 -0.84593,0.14675c-1.38071,0 -2.5,-1.11929 -2.5,-2.5c0,-0.76522 0.3438,-1.45014 0.88536,-1.90872l1.8858,-1.6164c0.27697,-1.51142 2.33333,-2 3.5,-3c2.2939,-1.9662 4.22718,-4.27856 6.25305,-6.51758c-7.45,5.9035 -15.21859,11.3589 -23.76564,15.70128l-1.12921,0.57179c0,0 -1.14934,1.30511 -2.90709,-0.47262zM356.40723,329.62742c-0.62408,0.74309 -1.24993,1.48522 -1.876,2.2281c0.43553,-0.42383 0.8494,-0.86559 1.23052,-1.33467c0.22477,-0.27665 0.43916,-0.57682 0.64548,-0.89342zM382.4244,312.21131c1.32345,-1.47812 2.56877,-2.99106 3.54661,-4.59663c1.24131,-2.0382 2.00349,-4.70158 2.94016,-6.89967c0.88872,-2.08555 1.765,-4.1649 2.64134,-6.23677c-0.42845,0.58278 -0.85757,1.16469 -1.28774,1.74536c-0.10975,0.27089 -0.22072,0.54134 -0.33302,0.81132c-2.18689,5.25743 -4.65144,10.31278 -7.50735,15.17639zM367.40588,329.46471c0.34496,-0.26398 0.6873,-0.53024 1.02548,-0.80018c-0.10526,-0.04984 -0.20649,-0.10682 -0.30305,-0.17031c-0.23908,0.32466 -0.47988,0.64817 -0.72243,0.97049z" fill="#ffffff" stroke="none" stroke-width="0.5" stroke-linecap="butt"/></g></g></svg>