<svg version="1.1" xmlns="http://www.w3.org/2000/svg" xmlns:xlink="http://www.w3.org/1999/xlink" width="277.69628" height="450.36514" viewBox="0,0,277.69628,450.36514"><g transform="translate(-106.77701,32.85929)"><g data-paper-data="{&quot;isPaintingLayer&quot;:true}" fill-rule="nonzero" stroke-linejoin="miter" stroke-miterlimit="10" stroke-dasharray="" stroke-dashoffset="0" style="mix-blend-mode: normal"><path d="M110.14509,385.48173l61.44951,-119.07964l38.21212,19.71887c0,0 -22.71266,40.60251 -35.26828,68.33305c-6.30254,13.9199 -13.05345,38.39095 -13.05345,38.39095l-3.35257,17.40001z" data-paper-data="{&quot;origPos&quot;:null,&quot;index&quot;:null,&quot;origRot&quot;:0}" fill="#353535" stroke="#000000" stroke-width="5" stroke-linecap="butt"/><path d="M237.21876,414.49643l-30.9208,-130.38368l41.83954,-9.92235c0,0 9.20728,45.60323 17.73921,74.82364c4.28278,14.66777 15.09688,37.63431 15.09688,37.63431l8.78785,15.38746z" data-paper-data="{&quot;origPos&quot;:null,&quot;index&quot;:null,&quot;origRot&quot;:0}" fill="#616161" stroke="#000000" stroke-width="5" stroke-linecap="butt"/><g data-paper-data="{&quot;origPos&quot;:null,&quot;origRot&quot;:0,&quot;index&quot;:null}" stroke="#000000" stroke-width="5" stroke-linecap="round"><path d="M298.74435,95.69245c-1.32533,-0.35939 -0.26537,-2.84942 -1.1218,-3.96753c-3.42757,-4.47269 -7.57731,-8.36544 -11.45967,-12.44945c-1.1975,-1.26041 -3.92861,-2.03922 -3.78814,-3.59171c0.13441,-1.48673 2.77228,-1.92016 4.33781,-2.48678c1.659,-0.60072 3.44666,-0.86824 5.20808,-0.96856c1.98245,-0.11295 4.14017,-0.475 5.95416,0.33281c3.26637,1.45512 6.27564,3.64215 8.7532,6.22052c1.22325,1.27321 1.63709,3.19149 1.96037,4.92758c0.33396,1.79702 0.57074,3.76029 -0.02334,5.48866c-0.61824,1.79874 -1.84918,3.51412 -3.43562,4.56307c-1.85267,1.22585 -4.24081,2.513 -6.47475,4.28827z" data-paper-data="{&quot;origPos&quot;:null,&quot;index&quot;:null}" id="ID0.8610531273297966" fill="#e1ba87"/><path d="M226.6505,168.95599c-3.47472,0.3422 -6.79827,-1.91598 -8.46561,-4.64572c-1.9615,-3.23763 -1.53908,-7.84712 -0.74255,-11.77706c1.45559,-6.61578 3.80719,-13.09544 7.36355,-19.22969c4.85681,-8.37897 11.18381,-16.04636 17.20869,-23.44204c5.44252,-6.68653 11.23904,-13.25762 17.96056,-18.65593c6.2758,-5.03352 13.17768,-12.76552 21.37569,-11.86192c8.07007,0.56453 13.19679,9.28382 18.87192,15.4951c1.4185,1.55245 0.73441,2.91993 -0.75342,4.54784c-5.89001,6.40811 -13.88563,12.21858 -19.98112,17.41414c-6.22605,5.28414 -12.72342,10.2791 -18.77018,15.74574c-4.7834,4.28409 -10.07525,9.25191 -14.74172,14.32415c-4.38931,4.78502 -8.14206,10.06587 -12.30711,14.8925c-2.27677,2.53898 -3.70219,6.83338 -7.01867,7.19294z" data-paper-data="{&quot;origPos&quot;:null,&quot;index&quot;:null}" id="ID0.4585498459637165" fill="#cc7700"/></g><path d="M254.52393,287.2896c-1.1844,3.26396 0.89736,1.11238 -5.58047,0.3292c-25.91009,-3.13455 -51.39859,-5.69304 -76.93401,-9.34921c-6.39184,-0.91879 -7.0442,7.10209 -6.39221,-1.28048c2.6061,-33.5315 8.32323,-67.57946 14.7865,-100.9535c2.55683,-13.26443 6.28321,-25.7249 11.9904,-37.32613c1.4728,-3.15034 3.37395,-4.36285 8.14767,-4.04666c19.09389,1.26462 38.26184,3.40357 57.08007,6.93651c4.70484,0.88302 10.30117,1.7827 11.36951,5.91476c2.93235,11.34056 0.17163,23.48925 -0.74778,35.16662c-1.58517,20.02401 -4.43745,41.79593 -7.35182,62.57007c-1.93268,13.80668 -2.75907,28.30789 -6.36785,42.03883z" data-paper-data="{&quot;origPos&quot;:null,&quot;index&quot;:null,&quot;origRot&quot;:0}" id="ID0.6861933465115726" fill="#ff9400" stroke="#000000" stroke-width="5" stroke-linecap="round"/><path d="M224.81528,141.88974c1.5994,2.81248 -0.74656,6.55783 -1.54311,9.38237c-0.6711,2.40561 -1.55167,5.10913 -3.25311,6.72568c-1.70045,1.61667 -3.88361,2.48062 -6.14299,2.20605c-2.25938,-0.27457 -4.17208,-1.63625 -5.43583,-3.61314c-1.26474,-1.97701 -5.5387,-5.93316 -5.43794,-8.45341c0.10491,-2.68697 0.61095,-6.44772 2.62084,-8.57983c1.82038,-1.50942 8.1944,0.7359 10.66563,0.79243c2.87214,0.06495 6.90681,-0.68278 8.52651,1.53984z" data-paper-data="{&quot;origPos&quot;:null,&quot;index&quot;:null,&quot;origRot&quot;:0}" id="ID0.6992864599451423" fill="#ff9400" stroke="none" stroke-width="1" stroke-linecap="round"/><path d="M287.87938,46.92198c9.32501,11.30792 14.34146,26.16796 12.83046,41.89053c-1.51101,15.72256 -9.26571,29.35524 -20.57363,38.68026c-11.30792,9.32501 -26.16796,14.34146 -41.89053,12.83046c-15.72256,-1.51101 -29.35524,-9.26571 -38.68026,-20.57363c-9.32501,-11.30792 -14.34146,-26.16796 -12.83046,-41.89053c1.51101,-15.72256 9.26571,-29.35524 20.57363,-38.68026c11.30792,-9.32501 26.16796,-14.34146 41.89053,-12.83046c15.72256,1.51101 29.35524,9.26571 38.68026,20.57363z" data-paper-data="{&quot;origPos&quot;:null,&quot;origRot&quot;:0}" id="ID0.9676602841354907" fill="#ffd499" stroke="#000000" stroke-width="6" stroke-linecap="round"/><path d="M213.2608,64.53951c13.63132,2.9395 26.58502,-0.12638 39.60131,2.094c15.21251,2.59518 30.64203,6.29821 45.04765,12.11497c3.59515,1.45661 -3.96656,2.52311 -6.10628,3.4316c-2.61517,1.05767 -6.29838,2.90078 -9.51849,2.35021c-7.75723,-1.33119 -15.29602,-6.36747 -23.33986,-8.01955c-3.08171,-0.40165 0.91779,2.72228 -2.7516,2.49822c-14.67848,-0.8973 -29.89529,-7.75444 -44.92289,-5.57303c-5.43875,0.91792 -8.42415,8.20072 -9.87205,13.86921c-1.73972,6.99064 0.03148,14.86117 2.19766,21.55911c2.29748,7.09834 12.16087,19.2436 11.19453,19.40992c-0.96634,0.16632 -15.0398,-9.90117 -18.65043,-17.61495c-5.23375,-10.8846 -6.95176,-23.66757 -6.62984,-35.54726c0.13269,-4.75712 4.41403,-8.45452 7.5649,-12.12794c2.29648,-2.67558 5.57559,-6.19905 8.73404,-5.89551c3.15845,0.30354 3.90708,6.68844 7.45139,7.451z" data-paper-data="{&quot;origPos&quot;:null,&quot;origRot&quot;:0}" id="ID0.34282135451212525" fill="#e1ba87" stroke="none" stroke-width="1" stroke-linecap="round"/><path d="M185.31359,76.969c-3.44664,-7.50715 -0.64627,-18.56196 1.38648,-27.49345c1.93475,-8.48684 5.12748,-16.63076 9.80936,-23.67016c1.31965,-1.82514 2.07406,4.56233 4.2402,2.91902c8.67751,-6.59312 14.20545,-17.74243 22.84539,-23.42196c2.19588,-1.44054 -1.68401,6.80812 0.82347,7.11139c10.00926,1.18797 20.3883,-4.50324 30.16362,-2.87765c12.2291,2.03823 24.61804,5.08939 34.92608,12.9003c11.84069,9.03816 21.25875,21.66706 27.77268,35.06765c1.62798,3.3501 -8.20873,-1.31631 -8.94903,1.65148c-1.79892,7.19892 7.04293,19.57252 1.87706,22.28176c-6.20203,3.19434 -16.58448,-9.56038 -25.81418,-11.02001c-2.34236,-0.36977 1.18897,7.55238 -1.66505,6.87223c-11.23071,-2.48577 -20.22593,-12.03005 -31.52359,-14.33138c-2.82497,-0.57488 1.14658,7.34538 -1.48796,7.64271c-7.98817,1.19731 -15.92286,-2.48965 -23.97137,-4.0618c-4.61918,-0.89901 -8.88255,-3.99506 -13.74447,-3.33011c-5.58907,0.79899 -9.49792,5.35596 -15.06953,7.84437c-3.92987,1.81738 -9.95038,9.19628 -11.61919,5.91559z" data-paper-data="{&quot;origPos&quot;:null,&quot;origRot&quot;:0}" id="ID0.4199218852445483" fill="#8a541e" stroke="#000000" stroke-width="7" stroke-linecap="round"/><path d="M187.8784,71.18784c0,0 2.1419,-15.42986 3.96614,-22.97596c1.27315,-5.26134 2.48147,-10.69466 5.2395,-15.31903c1.04111,-1.23707 1.85742,1.25544 2.98625,0.28698c5.55292,-4.02926 10.0729,-8.95547 14.87304,-13.63975c1.78996,-1.73271 2.53151,-5.10022 4.8284,-5.81477c1.41641,-0.34408 0.34833,2.31293 1.23005,2.88088c1.71467,0.88007 1.72731,1.3444 4.15877,1.15312c9.72988,-0.76572 18.97246,-4.76087 28.49339,-3.79161c10.02244,1.01945 19.68002,4.57061 28.51795,9.01948c6.97984,3.71273 12.67541,9.44689 18.14302,15.05467c4.24376,4.35595 7.58333,9.90388 10.58176,15.33261c0.75072,1.35603 -0.96152,1.00462 -1.63662,1.34963c-1.76672,1.43859 -5.45013,1.68435 -5.65641,3.97713c-0.55726,6.20616 3.5279,18.17082 3.5279,18.17082" data-paper-data="{&quot;origPos&quot;:null,&quot;origRot&quot;:0}" id="ID0.6959539707750082" fill="none" stroke="#663b00" stroke-width="4" stroke-linecap="round"/><path d="M275.852,106.60483c-0.06243,5.76925 -7.76654,4.37657 -16.68265,4.28009c-8.91611,-0.09648 -15.66785,1.13978 -15.60543,-4.62945c0.06243,-5.76925 6.52571,-4.89059 15.44182,-4.79411c8.91611,0.09648 16.90868,-0.62576 16.84626,5.14347z" data-paper-data="{&quot;origPos&quot;:null,&quot;origRot&quot;:0}" fill="none" stroke="#000000" stroke-width="3" stroke-linecap="butt"/><path d="M224.65943,80.37083l20.9107,10.0149" data-paper-data="{&quot;origRot&quot;:0,&quot;origPos&quot;:null}" fill="none" stroke="#000000" stroke-width="3" stroke-linecap="round"/><path d="M276.94864,93.85443l14.99744,-8.25875" data-paper-data="{&quot;origRot&quot;:0,&quot;origPos&quot;:null}" fill="none" stroke="#000000" stroke-width="3" stroke-linecap="round"/><g data-paper-data="{&quot;origRot&quot;:0,&quot;origPos&quot;:null,&quot;index&quot;:null}" stroke-width="1.5" stroke-linecap="butt"><path d="M248.96881,134.80738c0,0 -9.15428,2.30105 -11.98118,-0.48189c-2.78052,-2.73725 -2.38702,-13.663 -2.38702,-13.663c0,0 4.73853,-11.6571 9.94943,-20.86169c4.69732,-8.29739 8.19537,-13.95552 13.70663,-21.23191c5.66967,-7.48567 7.42021,-12.7859 12.16367,-21.41202c11.77843,-21.4199 40.65639,-79.72152 40.65639,-79.72152l11.55814,13.61784c0,0 -29.71154,55.02717 -39.08832,70.61322c0,0 -12.42348,24.21146 -17.71076,36.95414c-4.07857,9.82975 -6.03832,13.76354 -10.31323,23.45385c-2.48102,5.62407 -6.5537,12.73291 -6.5537,12.73291z" data-paper-data="{&quot;origPos&quot;:null,&quot;origRot&quot;:0,&quot;index&quot;:null}" fill="#9e813f" stroke="#655328"/><path d="M310.64034,-27.75749c0,0 5.61838,-5.72616 8.64146,-4.04165c4.25438,2.37059 -0.21602,5.16208 2.70877,9.07c2.89337,3.86595 10.40077,6.49891 15.0232,7.84735c16.02517,4.67488 44.68644,-4.24268 44.68644,-4.24268c0,0 2.54523,22.31802 1.92598,28.73604c-0.74474,7.71859 -5.84238,19.04005 -5.84238,19.04005c0,0 -14.24893,-5.79558 -15.8059,-4.69523c-2.01547,1.4244 12.05924,13.40884 12.05924,13.40884c0,0 -3.78111,5.93356 -7.21246,9.16698c-3.88045,3.65654 -11.52321,8.4878 -11.52321,8.4878c0,0 -13.58186,8.21244 -22.95176,7.43291c-9.36981,-0.77954 -33.12765,-12.09854 -33.12765,-12.09854l11.05367,-14.35662c0,0 13.12297,0.06294 16.14544,-4.57815c1.76415,-2.70887 -3.42018,-10.59558 -5.8457,-12.71415c-8.52945,-7.45011 -17.69457,-8.91803 -27.2743,-14.94195c0,0 0.27655,-18.88232 4.45097,-26.47099c2.59245,-4.71281 12.88821,-5.04996 12.88821,-5.04996z" data-paper-data="{&quot;origPos&quot;:null,&quot;origRot&quot;:0,&quot;index&quot;:null}" fill="#b8b8b8" stroke="#8f8f8f"/></g><g data-paper-data="{&quot;origPos&quot;:null,&quot;origRot&quot;:0,&quot;index&quot;:null}" stroke-width="5" stroke-linecap="round"><path d="M192.25274,191.35687c-3.47027,0.38479 -6.82126,-1.83238 -8.52199,-4.54154c-2.00105,-3.21324 -1.63528,-7.82755 -0.88704,-11.76703c1.37431,-6.63306 3.64617,-13.14114 7.12699,-19.31853c4.75364,-8.43795 10.98603,-16.18243 16.91974,-23.65154c5.36,-6.75285 11.07542,-13.39456 17.73022,-18.87497c6.2135,-5.11013 13.02001,-12.92627 21.22847,-12.12332c8.07645,0.46538 13.3098,9.12113 19.06074,15.26232c1.43742,1.53492 0.77011,2.91069 -0.69754,4.55669c-5.81101,6.47994 -13.73471,12.38816 -19.76594,17.65809c-6.16072,5.36018 -12.59631,10.43444 -18.57559,15.9749c-4.73044,4.34249 -9.96093,9.37487 -14.56478,14.50404c-4.33023,4.83848 -8.01789,10.16499 -12.12342,15.04236c-2.24537,2.56672 -3.61795,6.87829 -6.92984,7.27855z" data-paper-data="{&quot;origPos&quot;:null,&quot;index&quot;:null,&quot;origRot&quot;:0}" id="ID0.4585498459637165" fill="#ff9400" stroke="#000000"/><path d="M187.85986,184.71517c0,0 -0.51132,-11.50191 1.86063,-16.24032c6.0863,-13.55666 14.25511,-26.13189 23.04136,-37.62107c4.65966,-6.08725 11.24715,-10.93735 16.85147,-15.67923c4.84145,-4.10295 15.38361,-11.25142 15.38361,-11.25142" data-paper-data="{&quot;origPos&quot;:null,&quot;index&quot;:null,&quot;origRot&quot;:0}" id="ID0.497054744977504" fill="none" stroke="#cc7700"/><path d="M265.0547,115.36042c-1.36934,-0.10308 -0.79792,-2.74829 -1.84996,-3.68478c-4.20951,-3.74609 -9.01885,-6.7864 -13.60181,-10.06495c-1.41368,-1.01193 -4.24265,-1.26177 -4.39748,-2.81289c-0.14844,-1.48541 2.36037,-2.40843 3.79094,-3.26019c1.51594,-0.90274 3.22111,-1.50265 4.932,-1.93335c1.92556,-0.48475 3.97626,-1.24727 5.91007,-0.79608c3.4822,0.8131 6.84992,2.39333 9.76919,4.45816c1.44144,1.0197 2.20963,2.82547 2.85456,4.46951c0.66681,1.7017 1.26959,3.58509 1.01216,5.39449c-0.26797,1.88308 -1.15327,3.7998 -2.5134,5.12911c-1.58832,1.55325 -3.6908,3.26774 -5.54992,5.4324z" data-paper-data="{&quot;origPos&quot;:null,&quot;index&quot;:null,&quot;origRot&quot;:0}" id="ID0.8610531273297966" fill="#ffd499" stroke="#000000"/></g><path d="M297.92944,-8.19109c3.92046,0.81516 7.59764,2.53255 11.39646,3.79882c0,0 7.11512,2.37171 4.74342,9.48683c-2.37171,7.11512 -9.48683,4.74342 -9.48683,4.74342c-3.79882,-1.26627 -7.47676,-2.98003 -11.39646,-3.79882c-5.33003,-1.1134 -11.71554,-0.86066 -17.13876,-1.58033c-2.23436,-0.2965 -7.81944,-1.44015 -10.88008,-0.88391c-1.38234,0.25123 -2.97097,0.72408 -4.57723,1.24159c-3.03821,2.4364 -6.08379,4.90133 -9.7461,6.31759c-6.28702,2.43126 -13.09018,4.07827 -19.6636,5.5581c-1.42456,0.31657 -2.9344,0.37011 -4.27367,0.9497c-0.39723,0.17191 -0.27019,0.86604 -0.59166,1.15586c-2.37607,2.14214 -5.31353,3.80717 -7.74656,5.9266c-0.98839,0.86099 -0.99195,1.44534 -2.23103,2.2959c-1.78739,1.22695 -4.86795,3.03904 -7.51978,4.52603c-0.30518,0.26412 -0.61377,0.525 -0.92556,0.78276c-0.08899,0.35025 -0.75989,0.83477 -1.06434,1.1458c-1.13998,1.16466 -2.39589,2.21136 -3.63979,3.26431c-2.42142,2.04971 -5.30616,3.7096 -7.93739,5.46375l-2.76379,1.84253c-1.20716,0.83042 -2.6696,1.3165 -4.24557,1.3165c-0.57046,0 -1.12604,-0.06369 -1.66002,-0.18434c-0.22846,0.11438 -0.45652,0.22846 -0.6841,0.34225c-5.12205,2.56102 -10.71826,3.94327 -16.02686,6.05309c-0.56923,0.22623 -4.66556,2.59966 -4.86665,2.49425c-4.45994,-2.33784 -13.02311,-5.96258 -10.8541,-10.50702c2.30214,-4.82339 6.11478,-9.93719 10.1583,-14.29746h-0.00002c-1.82605,0.79062 -3.63332,1.55529 -5.50906,2.26182l0.07562,0.27727l-7.78062,2.12199c-0.30757,0.19633 -0.61059,0.36444 -0.78089,0.21297l-1.71951,0.46896c-0.67787,0.20136 -1.39587,0.30947 -2.13911,0.30947c-4.14214,0 -7.5,-3.35786 -7.5,-7.5c0,-3.3738 2.22768,-6.22729 5.29236,-7.16981l1.26049,-0.42016c-0.0454,-0.46439 0.82995,-0.30916 1.32346,-0.44115l0.1011,-0.0337c2.03559,-0.84318 4.04171,-1.75586 6.06525,-2.62758c0.64046,-0.2759 1.28487,-0.54309 1.93286,-0.8019c-0.20296,-0.36733 0.22861,-1.00572 0.55434,-1.32415c2.90968,-2.84449 6.00182,-5.50714 9.19525,-8.02892c3.38893,-2.67616 7.09224,-4.59352 10.9084,-6.33485c5.58318,-3.82948 10.92173,-8.12224 16.92973,-11.27315c0.07558,-0.03964 5.19826,-1.72163 5.43651,-1.80675c3.33967,-1.19317 6.53338,-2.17753 9.71411,-3.00539c11.40035,-5.9343 24.44202,-7.77786 37.03708,-9.12733c11.40357,-1.22181 22.40298,-1.65295 33.85566,-1.64068c3.00109,0.00322 5.99602,0.02975 8.98461,0.13238c2.29102,-1.54669 4.65614,-2.9539 7.26616,-3.89398c5.65791,-2.03787 12.87709,-0.59463 18.46273,0.60411c2.29864,0.49331 4.60062,0.9714 6.89548,1.48201c0.55954,0.1245 1.61434,-0.10668 1.85144,0.27729l2.336,0.77867c3.06469,0.94252 5.29236,3.79602 5.29236,7.16981c0,4.14214 -3.35786,7.5 -7.5,7.5c-0.68615,0 -1.35078,-0.09214 -1.98218,-0.26472l-0.29132,-0.07283c-0.55974,0.35009 -1.13858,0.60497 -1.68473,0.79053c-0.15818,0.06079 -0.31893,0.11637 -0.48206,0.16654l-2.68504,0.89501l-0.18596,-0.55789c-1.77876,0.03676 -3.49246,0.21428 -5.20155,0.40703c-1.37115,1.49668 -3.34175,2.43515 -5.53154,2.43515h-6.64793v-0.25107c-0.66207,-0.04569 -1.32257,-0.05616 -1.9798,0.02714c-0.39582,0.05017 -0.78715,0.11313 -1.17566,0.18369c1.22525,0.17062 2.43687,0.37276 3.62775,0.62037zM207.36553,2.60237c-0.10004,0.09195 -0.19984,0.18386 -0.29938,0.2756c2.71562,-0.82716 5.42304,-1.70933 8.12391,-2.61855c0.00362,-0.00199 0.00724,-0.00398 0.01086,-0.00596c-2.659,0.71082 -5.28147,1.49283 -7.83539,2.34891z" fill="#b8b8b8" stroke="none" stroke-width="0.5" stroke-linecap="butt"/></g></g></svg>