<svg version="1.1" xmlns="http://www.w3.org/2000/svg" xmlns:xlink="http://www.w3.org/1999/xlink" width="463.99889" height="434.64381" viewBox="0,0,463.99889,434.64381"><defs><linearGradient x1="363.1556" y1="43.4743" x2="363.1556" y2="117.83455" gradientUnits="userSpaceOnUse" id="color-1"><stop offset="0" stop-color="#3fbf5b"/><stop offset="1" stop-color="#52f75b"/></linearGradient><linearGradient x1="373.59309" y1="83.63071" x2="383.38663" y2="83.63071" gradientUnits="userSpaceOnUse" id="color-2"><stop offset="0" stop-color="#00ab09"/><stop offset="1" stop-color="#185723"/></linearGradient><linearGradient x1="356.82243" y1="83.63071" x2="366.61597" y2="83.63071" gradientUnits="userSpaceOnUse" id="color-3"><stop offset="0" stop-color="#1a5125"/><stop offset="1" stop-color="#00ac09"/></linearGradient><linearGradient x1="244.75818" y1="-6.22731" x2="244.75818" y2="124.09086" gradientUnits="userSpaceOnUse" id="color-4"><stop offset="0" stop-color="#3b2103"/><stop offset="1" stop-color="#000000"/></linearGradient></defs><g transform="translate(-12.95553,-0.09453)"><g data-paper-data="{&quot;isPaintingLayer&quot;:true}" fill-rule="nonzero" stroke-linejoin="miter" stroke-miterlimit="10" stroke-dasharray="" stroke-dashoffset="0" style="mix-blend-mode: normal"><g data-paper-data="{&quot;origRot&quot;:0}"><path d="M322.29026,378.10984l-71.51124,-93.2809l18.12714,-13.89667l71.51124,93.2809z" data-paper-data="{&quot;index&quot;:null,&quot;origRot&quot;:0}" fill="#00c7c6" stroke="#004040" stroke-width="0.5" stroke-linecap="butt"/><path d="M303.22758,352.23709l-39.87845,-52.6081l2.59579,-3.46554c0,0 28.46175,38.74772 33.01878,45.22347c1.86748,2.65377 5.93307,8.48833 5.93307,8.48833z" data-paper-data="{&quot;origRot&quot;:0}" fill="#00e4e4" stroke="none" stroke-width="0" stroke-linecap="butt"/><g data-paper-data="{&quot;index&quot;:null,&quot;origRot&quot;:0}" stroke="#1b1600" stroke-width="0.5"><path d="M338.03104,407.71557c-0.91166,0.48643 -31.04426,-40.74693 -37.45484,-50.91951c-3.69292,-5.86007 23.41102,-23.09045 25.62761,-20.06289c6.47391,8.84254 21.47841,26.85114 21.47841,26.85114c0,0 8.54896,-1.70529 13.61781,-1.70957c14.81993,-0.0126 19.66291,17.16354 5.07787,28.34477c0,0 -12.71683,9.15649 -28.34683,17.49606z" data-paper-data="{&quot;origPos&quot;:null}" fill="#907900" stroke-linecap="butt"/><path d="M337.84561,372.58175c0,0 6.49257,-7.06397 10.55894,-9.08607c4.06643,-2.02219 5.93242,-1.08441 5.93242,-1.08441" data-paper-data="{&quot;origPos&quot;:null}" fill="none" stroke-linecap="round"/></g><path d="M338.3767,407.19564l-38.35524,-52.00525l1.99509,-2.13478c0,0 0.83676,3.72888 9.18406,15.04201c6.79241,9.20576 29.03771,37.97348 29.03771,37.97348z" data-paper-data="{&quot;origRot&quot;:0}" fill="#b19300" stroke="none" stroke-width="0" stroke-linecap="butt"/></g><g data-paper-data="{&quot;index&quot;:null,&quot;origRot&quot;:0}" stroke-width="0.5" stroke-linecap="butt"><path d="M413.54146,172.19856c0.39217,9.45854 -7.42706,17.46349 -17.46462,17.87967c-10.03762,0.41613 -18.49256,-6.91411 -18.88477,-16.37262c-0.3922,-9.4585 7.42704,-17.46344 17.46461,-17.87963c10.03761,-0.41618 18.49256,6.91412 18.88477,16.37262z" data-paper-data="{&quot;origPos&quot;:null}" fill="#fff8d5" stroke="#45433a"/><path d="M261.89717,192.17095c-1.84256,-18.008 5.68583,-25.25096 13.75526,-29.26815c7.55733,-3.76227 36.97445,-10.18839 60.98979,-11.90101c24.01536,-1.7126 61.84304,4.09397 61.84304,4.09397c0,0 2.60587,10.1682 1.44172,18.10147c-1.16417,7.93326 -6.66929,17.52229 -6.66929,17.52229c0,0 -27.75015,-8.39148 -52.00983,-8.30977c-24.2597,0.08172 -61.79474,9.86881 -61.79474,9.86881z" data-paper-data="{&quot;origRot&quot;:0,&quot;origPos&quot;:null}" fill="#67ff26" stroke="#183b09"/></g><path d="M196.30542,387.76963l26.3323,-111.12941l22.84058,0.13977l-26.3323,111.12941z" data-paper-data="{&quot;origRot&quot;:0,&quot;index&quot;:null}" fill="#00c7c6" stroke="#004040" stroke-width="0.5" stroke-linecap="butt"/><g data-paper-data="{&quot;index&quot;:null}" stroke="#1b1600" stroke-width="0.5"><path d="M221.39682,431.12716c-17.47824,2.89097 -33.14147,3.36118 -33.14147,3.36118c-18.37775,0 -24.98442,-16.5779 -13.21531,-25.58449c4.02536,-3.08052 11.57694,-6.92845 11.57694,-6.92845c0,0 8.98132,-24.70222 8.73928,-35.65865c-0.08288,-3.75131 31.4411,-5.28595 32.07564,1.61159c1.10152,11.97344 -5.01562,63.03016 -6.0351,63.19877z" data-paper-data="{&quot;origPos&quot;:null}" fill="#907900" stroke-linecap="butt"/><path d="M180.8924,405.09316c0,0 0.91036,-1.8795 5.36787,-2.74869c4.45749,-0.86921 13.90787,0.78676 13.90787,0.78676" data-paper-data="{&quot;origPos&quot;:null}" fill="none" stroke-linecap="round"/></g><path d="M203.1636,362.97913l14.65093,-64.3681l4.32323,-0.24018c0,0 -5.91653,19.19648 -8.93586,31.47755c-2.19787,8.93975 -7.15616,32.89055 -7.15616,32.89055z" fill="#00e4e4" stroke="none" stroke-width="0" stroke-linecap="butt"/><g data-paper-data="{&quot;index&quot;:null,&quot;origRot&quot;:0}" stroke-width="0.5" stroke-linecap="butt"><path d="M71.15834,167.39826c0.61803,-9.44642 9.24568,-16.57265 19.27048,-15.91684c10.02475,0.65584 17.65055,8.84528 17.03252,18.29172c-0.61802,9.44645 -9.24566,16.57262 -19.27048,15.91684c-10.02475,-0.65584 -17.65054,-8.84529 -17.03253,-18.29177z" data-paper-data="{&quot;origPos&quot;:null}" fill="#fff8d5" stroke="#45433a"/><path d="M204.72871,190.67556c0,0 -37.29054,-10.68093 -61.54136,-11.34213c-24.2508,-0.66118 -52.19349,7.06501 -52.19349,7.06501c0,0 -5.27449,-9.71782 -6.24881,-17.67662c-0.9743,-7.95881 1.87371,-18.06186 1.87371,-18.06186c0,0 37.9556,-4.90129 61.92319,-2.61552c23.96759,2.28581 53.22281,9.41281 60.68811,13.35452c7.97118,4.20882 15.3244,11.62953 13.05218,29.58837z" data-paper-data="{&quot;origRot&quot;:0,&quot;origPos&quot;:null}" fill="#67ff26" stroke="#183b09"/></g><path d="M249.36507,156.46239c-77.39066,-1.90696 -78.09973,-50.33027 -78.09973,-50.33027c0,0 18.8597,-37.6857 62.15536,-37.6857c43.29566,0 82.14878,29.95544 82.14878,29.95544c0,0 -3.84229,60.6555 -66.20441,58.06053z" data-paper-data="{&quot;index&quot;:null}" fill="#2b1702" stroke="#0f0801" stroke-width="1" stroke-linecap="butt"/><path d="M227.80945,176.03469c0,0 0,-8.463 0,-13.87975c0,-10.40439 0,-26.65993 0,-26.65993h35.32745v40.53968z" data-paper-data="{&quot;index&quot;:null}" fill="#fff8d5" stroke="#514f44" stroke-width="0.5" stroke-linecap="butt"/><path d="M262.49109,153.69102v14.61241l-17.73927,0.74822l-3.37679,-17.24839z" data-paper-data="{&quot;index&quot;:null}" fill="#d4ceb2" stroke="#000000" stroke-width="0" stroke-linecap="butt"/><path d="M218.26237,166.16845c5.84676,-0.2012 18.28287,0.36938 28.93246,0.46479c10.64961,0.09541 29.09328,-0.72524 29.09328,-0.72524c0,0 3.99514,123.97461 0.50292,127.37902c-4.39569,4.28519 -27.36769,6.68752 -39.13541,6.68752c-17.18406,0 -20.10138,-0.39785 -22.05943,-5.81291c-2.6983,-7.46222 2.6662,-127.99318 2.6662,-127.99318z" data-paper-data="{&quot;index&quot;:null}" fill="#67ff26" stroke="#183b09" stroke-width="0.5" stroke-linecap="butt"/><path d="M243.04473,299.1178l0.11696,-132.27199l4.05394,-0.00026c0,0 -0.05313,61.39849 -0.08713,100.69665c-0.01163,13.44788 -0.02981,31.57562 -0.02981,31.57562z" data-paper-data="{&quot;index&quot;:null}" fill="#82a19f" stroke="#2b3434" stroke-width="0.25" stroke-linecap="butt"/><path d="M211.0399,190.82381l5.19514,-24.244l11.33486,1.73171v22.51229z" data-paper-data="{&quot;index&quot;:null}" fill="#67ff26" stroke="none" stroke-width="0" stroke-linecap="butt"/><path d="M269.84966,192.26809v-25.33819l11.13874,-0.60097l4.53712,25.16178z" data-paper-data="{&quot;index&quot;:null}" fill="#67ff26" stroke="none" stroke-width="0" stroke-linecap="butt"/><path d="M87.5483,150.86385c0,0 44.46029,-4.3392 66.35547,-1.37044c29.15674,3.95336 20.42001,3.52682 42.84694,8.26519c19.70153,4.16253 16.79876,8.06158 16.79876,8.06158c0,0 -36.75762,-8.40395 -62.53844,-12.07538c-19.62972,-2.79545 -64.3504,2.42788 -64.3504,2.42788z" data-paper-data="{&quot;origRot&quot;:0}" fill="#b7ff97" stroke="none" stroke-width="0" stroke-linecap="butt"/><path d="M216.08524,293.95153c0,0 -0.6176,-9.49727 -0.6176,-15.37833c0,-17.64325 2.09301,-87.19201 2.09301,-87.19201l1.70869,0.17155l0.58331,106.10443z" fill="#b7ff97" stroke="none" stroke-width="0" stroke-linecap="butt"/><path d="M187.51762,401.27058c0,0 4.33538,-14.7653 6.80278,-24.83075c0.90699,-3.69993 1.84368,-10.44129 1.84368,-10.44129l2.4704,-0.72055l-8.16611,36.23277z" fill="#b19300" stroke="none" stroke-width="0" stroke-linecap="butt"/><path d="M171.21973,414.13734c4.30308,-6.75252 16.81257,-11.40853 16.81257,-11.40853c0,0 -11.28592,7.49888 -13.93042,11.64871c-2.6445,4.14983 -1.68126,14.10977 -1.68126,12.84961c0,-1.26016 -5.50397,-6.33727 -1.20089,-13.08979z" fill="#b19300" stroke="none" stroke-width="0" stroke-linecap="butt"/><path d="M215.20687,431.17292c0,0 2.85039,-22.67098 4.18069,-37.36589c1.3303,-14.69494 3.73838,-29.64417 3.73838,-29.64417l4.43302,3.70564c0,0 -1.53025,17.64658 -2.41305,28.9413c-1.02936,13.16964 -4.33942,33.74553 -4.33942,33.74553z" fill="#665500" stroke="none" stroke-width="0" stroke-linecap="butt"/><path d="M267.65178,295.86613c0,0 3.2258,-6.2566 3.90692,-25.94133c0.72488,-20.9486 4.73954,-78.17647 4.73954,-78.17647c0,0 1.44108,42.61587 1.44108,69.89221c0,12.65399 -1.44108,32.42423 -1.44108,32.42423z" fill="#56d420" stroke="none" stroke-width="0" stroke-linecap="butt"/><g><path d="M333.51007,84.65909c0,-18.32231 29.64553,-46.07937 29.64553,-46.07937c0,0 29.64553,26.75514 29.64553,46.07937c0,19.32422 -13.27275,33.17546 -29.64552,33.17546c-16.37277,0 -29.64553,-14.85316 -29.64553,-33.17547z" data-paper-data="{&quot;origPos&quot;:null,&quot;index&quot;:null}" fill="url(#color-1)" stroke="#0066ff" stroke-width="0" stroke-linecap="butt"/><g data-paper-data="{&quot;index&quot;:null}"><g data-paper-data="{&quot;origPos&quot;:null}" stroke="#ffffff" stroke-width="0" stroke-linecap="butt"><path d="M378.48987,95.56559c-2.70441,0 -4.89678,-5.34343 -4.89678,-11.93487c0,-6.59146 -0.23896,-11.93487 4.89678,-11.93487c5.13572,0 4.89676,5.34343 4.89676,11.93487c0,6.59144 -2.19235,11.93487 -4.89676,11.93487z" data-paper-data="{&quot;origPos&quot;:null,&quot;index&quot;:null}" fill="url(#color-2)"/><path d="M361.71921,95.56557c-2.70441,0 -4.89678,-5.34343 -4.89678,-11.93487c0,-3.35009 -0.23896,-11.93487 4.89678,-11.93487c5.13572,0 4.89676,5.34343 4.89676,11.93487c0,6.59144 -2.19235,11.93487 -4.89676,11.93487z" data-paper-data="{&quot;origPos&quot;:null,&quot;index&quot;:null}" fill="url(#color-3)"/></g><path d="M374.95518,104.70288c0,0 -2.87995,1.53167 -4.24074,1.54697c-1.91237,0.02149 -4.14632,-1.45273 -4.14632,-1.45273" data-paper-data="{&quot;origPos&quot;:null}" fill="none" stroke="#268436" stroke-width="2.5" stroke-linecap="round"/></g></g><g><path d="M322.82977,83.65576c0,39.81323 -34.65317,72.08822 -77.4,72.08822c-42.7468,0 -77.4,-32.27501 -77.4,-72.08822c0,-39.81323 34.65317,-72.08822 77.4,-72.08822c42.7468,0 77.4,32.27499 77.4,72.08822z" data-paper-data="{&quot;index&quot;:null}" fill="#fff8d5" stroke="#514f44" stroke-width="0.5" stroke-linecap="butt"/><path d="M302.92251,65.68061l20.32294,11.79585c0,0 -22.47732,4.12758 -26.10569,-0.5021c-3.6284,-4.62968 -11.51257,-19.90625 -19.99085,-23.03097c-8.95896,-3.30187 -13.69163,1.12359 -23.15459,1.4991c-8.60316,0.34141 -13.74195,-3.50175 -22.02582,-0.97867c-4.6091,1.40382 -17.11212,11.89893 -17.11212,11.89893l0.05363,-13.86259c0,0 0.78828,13.17416 -4.39366,19.13258c-5.18193,5.95845 -15.46039,3.69649 -15.46039,3.69649l7.51846,-13.35965c0,0 -3.7284,4.78889 -7.3405,12.61084c-3.61208,7.82196 12.03412,-49.92364 14.85142,-54.61642c5.09024,-8.47872 60.9225,7.96962 74.00613,7.08221c8.90278,-0.60383 18.83102,38.63439 18.83102,38.63439z" data-paper-data="{&quot;index&quot;:null}" fill="#8a7967" stroke="#000000" stroke-width="0" stroke-linecap="butt"/><path d="M170.36332,102.03493v-19.72941h150.75291v19.72941z" data-paper-data="{&quot;index&quot;:null}" fill="#000000" stroke="#000000" stroke-width="0" stroke-linecap="butt"/><path d="M299.49321,70.15618c-3.16854,-5.96666 -7.26886,-19.90625 -16.39628,-23.03097c-9.64489,-3.30187 -14.73986,1.12356 -24.92736,1.49908c-9.26185,0.34141 -14.79405,-3.50175 -23.71216,-0.97867c-8.91811,2.52308 -18.42228,11.89893 -18.42228,11.89893l0.05776,-13.86259c0,0 0.84863,13.17416 -4.73005,19.13261c-5.5787,5.95845 -16.64407,3.69649 -16.64407,3.69649l8.0941,-13.35965c0,0 -4.01386,4.78889 -7.9025,12.61084c-3.88864,7.82196 -11.23277,18.51577 -17.87236,30.05855c-6.63962,11.54279 3.62684,33.45968 3.62684,33.45968c0,0 -10.90667,-22.90419 -11.90918,-25.39794c-0.10488,-0.26095 -3.68173,-10.12991 -3.65023,-18.59456c0.06433,-17.28812 0.57183,-36.1885 0.57183,-36.1885c0,0 2.43476,-17.1453 5.46778,-21.83806c5.47995,-8.47872 8.988,-10.53416 16.21676,-15.61704c7.22874,-5.08286 21.66336,-10.72209 23.22158,-7.92368c1.69659,3.04688 -12.60743,6.94058 -12.51638,6.91174c5.72845,-1.81435 23.89371,-12.6723 43.45281,-12.00874c19.55909,0.66353 57.32037,13.09191 55.70867,16.1421c-1.17668,1.62417 -12.82075,-3.87268 -12.82075,-3.87268c0,0 24.75868,10.99058 29.33497,24.60744c4.73359,14.08495 7.97476,21.99322 9.52689,36.77104c0.80053,7.62196 0.81028,11.99824 -0.26501,19.58629c-3.15263,22.24734 -5.58728,16.42901 -5.58728,16.42901c0,0 -14.77215,-9.48722 -13.18672,-23.365c0,0 -1.56881,-10.79904 -4.73737,-16.76572z" data-paper-data="{&quot;index&quot;:null}" fill="url(#color-4)" stroke="#0f0801" stroke-width="1" stroke-linecap="butt"/><path d="M266.29562,113.88501c0,-5.7026 0,-23.72027 0,-41.05352c0,-1.26055 2.64631,-3.22997 2.64631,-3.22997c0,0 13.51638,-3.36079 22.47031,-3.36079c1.42156,0 3.64258,2.3101 3.64258,3.78868c0,17.22427 0,38.75946 0,44.13501c0,1.79181 -2.22104,4.59138 -3.64258,4.59138c0,0 -17.31823,0 -21.52415,0c-1.402,0 -3.59243,-2.96989 -3.59243,-4.87075z" data-paper-data="{&quot;index&quot;:null}" fill="#000000" stroke="#00360a" stroke-width="0" stroke-linecap="butt"/><path d="M245.38502,134.61336h19.9072" data-paper-data="{&quot;index&quot;:null}" fill="none" stroke="#000000" stroke-width="0.5" stroke-linecap="round"/><path d="M245.33139,113.2444c0,1.90086 -2.19043,4.87075 -3.59243,4.87075c-4.20592,0 -21.52415,0 -21.52415,0c-1.42154,0 -3.64258,-2.79955 -3.64258,-4.59138c0,-5.37555 0,-26.91075 0,-44.13501c0,-1.47859 2.22102,-3.78868 3.64258,-3.78868c8.95395,0 22.47031,3.36079 22.47031,3.36079c0,0 2.64631,1.96943 2.64631,3.22997c0,17.33326 0,35.35092 0,41.05352z" data-paper-data="{&quot;index&quot;:null}" fill="#000000" stroke="#00360a" stroke-width="0" stroke-linecap="butt"/></g><g data-paper-data="{&quot;origRot&quot;:0,&quot;index&quot;:null}" fill="#fff400" stroke="#000000" stroke-width="1" stroke-linecap="butt"><path d="M476.4429,183.34498c0,0 -40.48229,5.1845 -64.55004,8.26681c-0.698,0.08941 -0.3577,5.21792 -1.02735,5.30369c-4.88657,0.6258 -8.98175,1.15027 -11.75332,1.50522c-0.4751,0.06083 -1.563,-4.97193 -1.95763,-4.92139c-4.9513,0.6341 -10.07428,1.2902 -10.07428,1.2902l-2.06169,-10.17597l91.04168,-11.65954l0.38265,10.39097z" data-paper-data="{&quot;origRot&quot;:0}"/><path d="M476.09608,173.23381c0,0 -48.71844,6.2393 -65.52366,8.39151c-0.48475,0.06206 -0.31398,5.34957 -0.82349,5.41483c-4.41402,0.5653 -7.4371,0.95246 -12.12646,1.55301c-0.44076,0.05645 -1.54545,-5.11144 -1.97492,-5.05645c-6.23332,0.79829 -10.59315,1.35666 -10.59315,1.35666l-4.58736,-35.81968c0,0 5.19123,-0.66483 10.77972,-1.38054c1.01246,-0.12968 1.71989,5.84758 2.81671,5.70713c5.48982,-0.70308 6.06268,-0.77643 11.38021,-1.45745c0.90144,-0.11546 0.63738,-6.14949 1.47417,-6.25665c16.70635,-2.13957 64.59087,-8.27205 64.59087,-8.27205z" data-paper-data="{&quot;origRot&quot;:0}"/></g><g data-paper-data="{&quot;origRot&quot;:0,&quot;index&quot;:null}" fill="#fff400" stroke="#000000" stroke-width="1" stroke-linecap="butt"><path d="M13.46703,179.34497l0.38265,-10.39097l91.04168,11.65954l-2.06169,10.17597c0,0 -5.12298,-0.6561 -10.07428,-1.2902c-0.39463,-0.05054 -1.48253,4.98222 -1.95763,4.92139c-2.77157,-0.35495 -6.86675,-0.87942 -11.75332,-1.50522c-0.66965,-0.08577 -0.32935,-5.21428 -1.02735,-5.30369c-24.06775,-3.08231 -64.55004,-8.26681 -64.55004,-8.26681z" data-paper-data="{&quot;origRot&quot;:0}"/><path d="M18.40124,133.41413c0,0 47.88452,6.13248 64.59087,8.27205c0.83679,0.10716 0.57273,6.14119 1.47417,6.25665c5.31753,0.68102 5.89039,0.75437 11.38021,1.45745c1.09682,0.14045 1.80425,-5.83681 2.81671,-5.70713c5.58849,0.71571 10.77972,1.38054 10.77972,1.38054l-4.58736,35.81968c0,0 -4.35983,-0.55837 -10.59315,-1.35666c-0.42947,-0.05499 -1.53416,5.1129 -1.97492,5.05645c-4.68936,-0.60055 -7.71244,-0.98771 -12.12646,-1.55301c-0.50951,-0.06526 -0.33874,-5.35277 -0.82349,-5.41483c-16.80522,-2.15221 -65.52366,-8.39151 -65.52366,-8.39151z" data-paper-data="{&quot;origRot&quot;:0}"/></g></g></g></svg>