<svg version="1.1" xmlns="http://www.w3.org/2000/svg" xmlns:xlink="http://www.w3.org/1999/xlink" width="19.96006" height="25.75" viewBox="0,0,19.96006,25.75"><g transform="translate(-230.01997,-167.125)"><g data-paper-data="{&quot;isPaintingLayer&quot;:true}" fill="#ffe8ec" fill-rule="nonzero" stroke="none" stroke-width="0" stroke-linecap="butt" stroke-linejoin="miter" stroke-miterlimit="10" stroke-dasharray="" stroke-dashoffset="0" style="mix-blend-mode: normal"><path d="M235.20044,172.38166c0,-2.90317 2.35348,-5.25666 5.25666,-5.25666c2.90317,0 5.25666,2.35348 5.25666,5.25666c0,2.90317 -2.35348,5.25666 -5.25666,5.25666c-2.90317,0 -5.25666,-2.35348 -5.25666,-5.25666z"/><path d="M230.01997,179.5429c0,-3.57637 2.89922,-6.47559 6.47559,-6.47559c3.57637,0 6.47559,2.89922 6.47559,6.47559c0,3.57637 -2.89922,6.47559 -6.47559,6.47559c-3.57637,0 -6.47559,-2.89922 -6.47559,-6.47559z"/><path d="M237.48595,181.75222c0,-3.45015 2.79689,-6.24704 6.24704,-6.24704c3.45015,0 6.24704,2.79689 6.24704,6.24704c0,3.45015 -2.79689,6.24704 -6.24704,6.24704c-3.45015,0 -6.24704,-2.79689 -6.24704,-6.24704z"/><path d="M239.77145,176.26701c0,-2.77695 2.25116,-5.02811 5.02811,-5.02811c2.77695,0 5.02811,2.25116 5.02811,5.02811c0,2.77695 -2.25116,5.02811 -5.02811,5.02811c-2.77695,0 -5.02811,-2.25116 -5.02811,-5.02811z"/><path d="M234.59098,187.16124c0,-3.15562 2.55814,-5.71376 5.71376,-5.71376c3.15562,0 5.71376,2.55814 5.71376,5.71376c0,3.15562 -2.55814,5.71376 -5.71376,5.71376c-3.15562,0 -5.71376,-2.55814 -5.71376,-5.71376z"/></g></g></svg>