<svg version="1.1" xmlns="http://www.w3.org/2000/svg" xmlns:xlink="http://www.w3.org/1999/xlink" width="287.40938" height="242.0814" viewBox="0,0,287.40938,242.0814"><g transform="translate(-151.33164,-124.16539)"><g data-paper-data="{&quot;isPaintingLayer&quot;:true}" fill-rule="nonzero" stroke-linejoin="miter" stroke-miterlimit="10" stroke-dasharray="" stroke-dashoffset="0" style="mix-blend-mode: normal"><path d="M245.61587,242.32844c0.09576,-0.08499 -1.23768,0.37073 -2.48958,0.99834c-0.67864,0.33957 -1.26113,0.85028 -1.90811,1.24691c-0.71813,0.43931 -1.4961,0.78824 -2.19052,1.2637c-0.66826,0.45674 -1.22294,1.07218 -1.89132,1.52905c-0.6944,0.47532 -1.49239,0.79273 -2.19039,1.2637c-1.29933,0.87631 -2.57547,1.79774 -3.79955,2.77596c-1.83837,1.46932 -4.40115,2.43574 -5.39193,4.57049c-0.95143,2.05181 0.49892,4.55973 0.12216,6.79037c-0.26599,1.57816 -1.09936,3.04862 -2.00503,4.36821c-0.9422,1.37381 -2.03579,2.75327 -3.46677,3.60574c-1.31728,0.78452 -3.00286,0.6562 -4.46513,1.11628c-0.76734,0.24176 -1.59981,0.45354 -2.2073,0.98155c-0.61172,0.53161 -0.70568,1.50239 -1.29319,2.05976c-1.13654,1.07847 -2.47151,1.94554 -3.79955,2.77596c-0.68146,0.427 -1.51072,0.57968 -2.2073,0.98155c-0.76888,0.44354 -1.44112,1.04449 -2.1736,1.54584c-0.62698,0.42841 -1.21512,0.93822 -1.90824,1.24691c-0.7935,0.35213 -1.65211,0.56314 -2.50638,0.71607c-0.74094,0.13268 -1.51919,0.28561 -2.25781,0.13485c-0.74427,-0.15152 -1.3806,-0.63929 -2.04296,-1.01103c-0.70568,-0.39624 -1.41112,-0.80734 -2.05989,-1.29319c-0.63916,-0.47841 -1.24332,-1.01449 -1.79441,-1.59225c-0.55955,-0.58635 -1.10602,-1.20063 -1.52918,-1.89132c-0.42047,-0.68646 -0.73966,-1.43996 -0.98142,-2.2073c-0.22793,-0.72389 -0.32445,-1.4874 -0.41701,-2.24102c-0.0923,-0.74786 -0.22959,-1.51008 -0.13485,-2.25781c0.10075,-0.79798 0.75991,-1.50572 0.71197,-2.30832c-0.04794,-0.80273 -0.56096,-1.52097 -0.98155,-2.2073c-0.42303,-0.69082 -1.07218,-1.22307 -1.52905,-1.89132c-0.47532,-0.69453 -0.92207,-1.42125 -1.2637,-2.19052c-0.31547,-0.70967 -0.46585,-1.48354 -0.69928,-2.2241c-0.23343,-0.74056 -0.55738,-1.46111 -0.69928,-2.2241c-0.13818,-0.74068 -0.18395,-1.50611 -0.13473,-2.25781c0.05,-0.77453 0.25497,-1.53457 0.42957,-2.29153c0.20074,-0.87079 0.44841,-1.73185 0.69505,-2.59072c0.22241,-0.77337 0.31766,-1.60725 0.71197,-2.30832c0.39124,-0.69633 0.99886,-1.25947 1.59225,-1.79454c1.20178,-1.08564 2.47086,-2.10861 3.78277,-3.05811c0.68197,-0.49392 1.49598,-0.78837 2.19039,-1.2637c0.66839,-0.45687 1.2378,-1.05167 1.89132,-1.52918c0.61339,-0.44777 1.29485,-0.79888 1.90824,-1.24678c0.65351,-0.47751 1.20063,-1.10602 1.89132,-1.52918c0.68646,-0.42047 1.45508,-0.69633 2.2073,-0.98142c0.72569,-0.27561 1.48085,-0.47366 2.2241,-0.69928c1.57354,-0.47802 3.10502,-1.16538 4.7306,-1.41535c2.41933,-0.37098 4.92623,-0.01538 7.33786,-0.43803c0.91387,-0.15998 1.65853,-0.83657 2.47266,-1.28062c0.73953,-0.40329 1.4824,-0.80786 2.19052,-1.2637c0.74735,-0.48084 1.42355,-1.07065 2.1736,-1.54597c2.70405,-1.71237 5.42412,-3.42128 8.19726,-5.02109c0.69659,-0.40187 1.49047,-0.61582 2.2073,-0.98155c0.74979,-0.38239 1.4406,-0.88131 2.19039,-1.2637c0.71684,-0.36573 1.47226,-0.65441 2.2073,-0.98142c0.73504,-0.32715 1.44688,-0.71863 2.2073,-0.98155c1.55405,-0.53687 3.15707,-0.93733 4.73047,-1.41535c0.74324,-0.22561 1.45111,-0.62929 2.2241,-0.69928c2.25255,-0.20472 4.5746,-0.57327 6.79037,-0.12216c0.85093,0.17357 1.37792,1.1232 1.81133,1.87452c0.84798,1.46983 1.59341,3.04426 1.97977,4.69689c0.38521,1.65032 0.38918,3.38793 0.3033,5.08005c-0.04525,0.89207 -0.21664,1.83697 -0.69505,2.59059c-1.79056,2.81916 -3.67701,5.64409 -6.03635,8.00779c-0.92682,0.92772 -2.38472,1.10192 -3.58471,1.6302z" data-paper-data="{&quot;index&quot;:null,&quot;origPos&quot;:null}" id="ID0.7612559353001416" fill="#ff9400" stroke="#ff9400" stroke-width="1.76445" stroke-linecap="round"/><g data-paper-data="{&quot;index&quot;:null,&quot;origPos&quot;:null}" id="ID0.863757252227515" stroke-linecap="round"><path d="M266.59087,241.86848c0.63788,0.3356 -0.11999,1.2073 -0.9554,2.0063c-0.53365,0.5111 -1.15166,0.96258 -1.81402,1.33344c-0.65813,0.36854 -1.3469,0.81682 -2.11604,0.86695c-0.76901,0.05025 -1.53957,-0.25433 -2.21064,-0.58468c-0.66672,-0.32778 -0.95553,-1.29164 -1.71724,-1.346c-0.72363,-0.05191 -1.15422,0.84119 -1.82991,1.09141c-0.67556,0.2501 -1.44958,0.55725 -2.14757,0.38303c-0.73428,-0.18331 -1.21562,-0.83426 -1.71724,-1.34587c-0.47597,-0.4861 -0.79517,-1.08244 -1.19217,-1.62327c-0.39701,-0.54071 -0.8972,-1.03193 -1.19217,-1.62314c-0.33637,-0.67684 -0.44534,-1.43189 -0.683,-2.14244c-0.21189,-0.63543 -0.48713,-1.25601 -0.6671,-1.90042c-0.17575,-0.63006 -0.33265,-1.27011 -0.39675,-1.91811c-0.19947,-2.00874 -0.19511,-4.04043 -0.39457,-6.04917c-0.06409,-0.64801 -0.32522,-1.27049 -0.39675,-1.91811c-0.15088,-1.36445 -0.11743,-2.74878 -0.26843,-4.11337c-0.07153,-0.64749 -0.32612,-1.27049 -0.39662,-1.91811c-0.15729,-1.44483 -0.3142,-2.90133 -0.2842,-4.35539c0.01411,-0.66582 0.27599,-1.3146 0.41456,-1.97105c0.13857,-0.65633 0.14011,-1.34856 0.41456,-1.97105c0.28676,-0.64941 0.6548,-1.31883 1.24152,-1.78197c0.58275,-0.45982 1.3683,-0.69082 2.11604,-0.86695c0.70082,-0.16537 1.45598,-0.26215 2.16347,-0.14114c0.71287,0.12165 1.22947,0.83054 1.95606,0.84426c2.25564,0.04141 4.49986,-0.85926 6.74473,-0.683c0.76107,0.05923 1.29049,0.78286 1.71724,1.346c0.87951,1.15948 1.58841,2.4351 2.14553,3.7479c0.51879,1.22397 0.79721,2.52868 1.06385,3.81853c0.13152,0.6339 0.12972,1.28921 0.12626,1.93581c-0.00307,0.65147 -0.16908,1.28716 -0.14409,1.95336c0.10088,2.66251 0.34753,5.32617 0.52096,7.98484c0.04332,0.66492 0.02487,1.29703 0.12626,1.93581c0.20459,1.28716 0.52865,2.55868 0.7935,3.8361c0.13178,0.63877 0.30894,1.27268 0.39662,1.91811c0.08743,0.64069 0.14934,1.28986 0.12639,1.93581c-0.00949,0.25523 -0.05217,0.5166 -0.22305,0.7435z" id="ID0.021321910433471203" fill="#990072" stroke="#990072" stroke-width="1.60471"/><path d="M298.61074,253.57264c-0.46828,-0.03563 -1.32408,-0.86503 -2.25602,-1.27895c-0.74504,-0.33125 -1.47112,-0.72082 -2.23743,-0.99488c-0.81196,-0.29048 -1.68275,-0.38419 -2.48946,-0.69326c-0.68517,-0.26215 -1.28831,-0.73286 -1.96708,-1.01258c-0.71992,-0.29638 -1.49713,-0.42034 -2.21898,-0.71094c-1.51047,-0.60878 -2.94338,-1.44278 -4.47499,-1.98977c-1.62481,-0.57968 -3.32026,-0.92425 -4.97865,-1.38651c-0.82874,-0.23126 -1.67929,-0.39701 -2.48946,-0.69326c-0.95489,-0.34957 -1.84838,-0.87438 -2.79685,-1.2437c-0.72453,-0.2824 -1.47739,-0.4843 -2.21898,-0.71094c-1.56495,-0.47751 -3.21437,-0.71671 -4.7083,-1.4042c-1.42574,-0.65646 -2.89774,-1.40817 -3.97121,-2.59316c-0.50341,-0.55583 -0.27958,-1.50368 -0.41867,-2.25448c-0.13921,-0.75069 -0.32355,-1.49623 -0.41867,-2.25448c-0.09473,-0.75248 -0.09576,-1.46778 -0.14832,-2.27217c-0.20972,-3.21616 -0.42008,-6.44028 -0.62993,-9.65657c-0.05256,-0.80427 -0.31087,-1.53469 -0.14832,-2.27205c0.33611,-1.52572 0.59544,-3.24488 1.61506,-4.38386c0.49712,-0.55493 1.45534,0.09563 2.18193,0.14293c0.72645,0.04731 1.45457,0.10139 2.1818,0.14293c0.81671,0.04705 1.65686,-0.07961 2.45241,0.12512c0.70812,0.18203 1.27023,0.78888 1.96708,1.01258c0.7976,0.25497 1.67148,0.16254 2.47086,0.40932c2.255,0.6971 4.48268,1.52495 6.67537,2.41677c1.43393,0.58301 2.76865,1.42804 4.20451,2.00746c0.80106,0.32303 1.6607,0.46213 2.48946,0.69326c0.82874,0.23113 1.68827,0.37021 2.48933,0.69326c1.43586,0.57942 2.84223,1.25665 4.20464,2.00746c0.80119,0.44175 1.47816,1.1118 2.27448,1.56302c0.71184,0.40419 1.54995,0.5457 2.23756,0.99488c0.65237,0.42636 1.15576,1.06552 1.73365,1.59828c0.67389,0.62121 1.30882,1.2951 2.02271,1.86466c0.72069,0.57467 1.55072,0.99181 2.27448,1.56289c0.61391,0.48481 1.24652,0.97399 1.73378,1.59828c0.51327,0.65787 0.85708,1.44778 1.22986,2.20154c0.35662,0.72056 0.73197,1.44458 0.95951,2.21923c0.24164,0.82157 0.34253,1.68557 0.43726,2.53842c0.12588,1.13051 0.46187,2.30076 0.22228,3.4082c-0.19934,0.92233 -0.93477,1.62187 -1.47419,2.37806c-0.4579,0.64133 -0.9681,1.24626 -1.51137,1.80992c-0.72953,0.75722 -1.45496,1.54277 -2.30409,2.14693c-0.63633,0.45341 -1.44342,0.58711 -2.10784,0.99322c-0.56096,0.3424 -0.89772,1.24165 -1.54841,1.24191z" id="ID0.17367316223680973" fill="#cc0099" stroke="#cc0099" stroke-width="1.73425"/></g><path d="M286.91813,223.23103c0.4038,-0.55122 0.94348,-1.00886 1.2819,-1.60237c0.52173,-0.91271 0.63197,-2.05745 1.2819,-2.88428c0.5666,-0.72172 1.37291,-1.31267 2.24333,-1.60237c0.81016,-0.27048 1.72416,-0.15768 2.56381,0c0.89605,0.16793 1.71005,0.64095 2.56381,0.96142c0.85374,0.32047 1.79723,0.46789 2.56381,0.96142c0.76145,0.48969 1.2819,1.2819 1.92286,1.92286c0.74735,0.74735 1.61905,1.39086 2.24333,2.24333c0.56404,0.76914 0.83323,1.7216 1.2819,2.56381c0.40509,0.75889 0.87682,1.48444 1.2819,2.24333c0.44867,0.84221 0.93578,1.67416 1.2819,2.56381c0.4038,1.03834 1.37548,2.17027 0.96142,3.20476c-0.40765,1.02039 -1.93695,1.04475 -2.88428,1.60237c-0.86785,0.5102 -1.60237,1.30241 -2.56381,1.60237c-0.81529,0.2551 -1.87286,0.50251 -2.56381,0c-0.7371,-0.53584 -0.19228,-2.07412 -0.96142,-2.56381c-0.72556,-0.46149 -1.71518,0.17946 -2.56381,0.32047c-1.7139,0.28587 -3.4419,0.53968 -5.12761,0.96142c-1.73569,0.43329 -3.35217,1.3806 -5.12761,1.60237c-0.87298,0.10897 -2.23949,0.08846 -2.56381,-0.64095c-0.31663,-0.71274 0.95373,-1.44727 1.2819,-2.24333c0.42431,-1.03064 0.73197,-2.11386 0.96142,-3.20476c0.1987,-0.94604 0.9563,-2.32793 0.32047,-2.88428c-0.64608,-0.56532 -2.38562,1.13961 -2.88428,0.64095c-0.46276,-0.46276 0.51917,-1.76647 0.96142,-2.56381c0.63326,-1.13833 1.47291,-2.15488 0.96142,-2.88428z" data-paper-data="{&quot;index&quot;:null,&quot;origPos&quot;:null}" id="ID0.9057894707657397" fill="#995900" stroke="#995900" stroke-width="2" stroke-linecap="round"/><g data-paper-data="{&quot;index&quot;:null,&quot;origPos&quot;:null}" id="ID0.2699596635065973" stroke-width="2" stroke-linecap="round"><path d="M351.33373,236.05006c-0.14229,0.7717 -0.19101,2.35357 -0.32047,3.8457c-0.08717,1.00886 -0.62428,1.92926 -0.96142,2.88428c-0.30381,0.86016 -0.55378,1.72672 -0.96142,2.56381c-1.63058,3.34704 -3.315,6.68256 -5.12761,9.93474c-1.81774,3.26116 -3.89827,6.3826 -5.76856,9.61427c-0.47815,0.82554 -0.78581,1.74851 -1.2819,2.56381c-0.99988,1.6434 -1.9267,3.36884 -3.20476,4.80714c-1.30754,1.47035 -3.02785,2.52535 -4.48665,3.8457c-0.78325,0.7089 -1.44086,1.55623 -2.24333,2.24333c-1.44215,1.23703 -2.94966,2.40741 -4.48665,3.52523c-0.81401,0.59224 -1.73185,1.03577 -2.56381,1.60237c-1.51649,1.0345 -2.95863,2.18692 -4.48665,3.20476c-0.7153,0.47687 -1.51137,0.82939 -2.24333,1.2819c-1.51008,0.93451 -2.94068,2.01002 -4.48665,2.88428c-0.91527,0.5166 -1.95233,0.79607 -2.88428,1.2819c-1.52546,0.79607 -2.9471,1.79467 -4.48665,2.56381c-0.81529,0.40765 -1.70365,0.65761 -2.56381,0.96142c-0.95502,0.33714 -1.92926,0.62428 -2.88428,0.96142c-0.86016,0.30381 -1.70365,0.65761 -2.56381,0.96142c-0.95502,0.33714 -1.87799,0.84605 -2.88428,0.96142c-2.75866,0.31534 -5.55577,0.32047 -8.33237,0.32047c-0.86016,0 -1.72929,-0.11153 -2.56381,-0.32047c-0.88451,-0.22177 -1.70365,-0.65761 -2.56381,-0.96142c-0.95502,-0.33714 -1.95619,-0.55506 -2.88428,-0.96142c-0.78837,-0.34483 -1.48444,-0.87682 -2.24333,-1.2819c-0.84221,-0.44867 -1.83697,-0.66403 -2.56381,-1.2819c-1.43829,-1.22294 -2.7202,-2.65098 -3.8457,-4.16618c-1.66007,-2.23436 -3.14835,-4.611 -4.48665,-7.05046c-0.48713,-0.88707 -0.69094,-1.90875 -0.96142,-2.88428c-0.26279,-0.9486 -0.52558,-1.90747 -0.64095,-2.88428c-0.09999,-0.84734 -0.05384,-1.71134 0,-2.56381c0.05384,-0.85887 0.04871,-1.74723 0.32047,-2.56381c0.27176,-0.81658 0.87682,-1.48444 1.2819,-2.24333c0.44867,-0.84221 0.75248,-1.76903 1.2819,-2.56381c0.54609,-0.81914 1.31523,-1.46906 1.92286,-2.24333c0.5666,-0.72172 0.98835,-1.56135 1.60237,-2.24333c1.31267,-1.4588 2.77917,-2.77917 4.16618,-4.16618c0.64095,-0.64095 1.22421,-1.34727 1.92286,-1.92286c1.12039,-0.92297 2.33306,-1.73569 3.52523,-2.56381c2.64969,-1.84082 5.33912,-3.6406 8.01189,-5.44809c0.9563,-0.64736 1.90491,-1.31138 2.88428,-1.92286c0.72941,-0.45636 1.5229,-0.81145 2.24333,-1.2819c1.73569,-1.13192 3.42652,-2.34204 5.12761,-3.52523c0.75376,-0.5243 1.46522,-1.11526 2.24333,-1.60237c0.93195,-0.58199 1.95233,-1.02039 2.88428,-1.60237c0.77812,-0.48713 1.46266,-1.1191 2.24333,-1.60237c1.46266,-0.90631 2.96119,-1.76774 4.48665,-2.56381c0.93195,-0.48584 1.92413,-0.85503 2.88428,-1.2819c0.96015,-0.42687 1.87415,-0.99348 2.88428,-1.2819c2.73815,-0.78196 5.5032,-1.59597 8.33237,-1.92286c2.75609,-0.31791 5.55704,0 8.33237,0c0.85374,0 1.71647,-0.1064 2.56381,0c0.87298,0.10897 1.72416,0.37816 2.56381,0.64095c0.87041,0.27176 1.68954,0.70377 2.56381,0.96142c0.94348,0.27817 1.9267,0.41534 2.88428,0.64095c0.85631,0.20126 1.69852,0.47815 2.56381,0.64095c0.84605,0.15895 1.71647,0.1705 2.56381,0.32047c0.96911,0.1705 1.9267,0.41534 2.88428,0.64095c0.85631,0.20126 1.74211,0.3256 2.56381,0.64095c0.5807,0.22305 1.39471,0.37432 1.60237,0.96142z" id="ID0.7598415482789278" fill="#00cc44" stroke="#00cc44"/><path d="M351.01326,236.37054c-0.13717,0.32432 -0.60506,1.6357 -0.96142,2.88428c-0.50122,1.75364 -1.13577,3.48292 -1.92286,5.12761c-0.39611,0.82811 -1.10628,1.47162 -1.60237,2.24333c-0.46533,0.72428 -0.91784,1.46393 -1.2819,2.24333c-0.38585,0.82683 -0.49225,1.78185 -0.96142,2.56381c-0.50635,0.84349 -1.35113,1.44215 -1.92286,2.24333c-0.49995,0.69992 -0.85503,1.49598 -1.2819,2.24333c-0.42687,0.74735 -0.81658,1.51906 -1.2819,2.24333c-0.49609,0.7717 -1.00886,1.54213 -1.60237,2.24333c-0.58455,0.69094 -1.20499,1.37035 -1.92286,1.92286c-0.68197,0.5243 -1.38317,1.2819 -2.24333,1.2819c-0.86016,0 -1.49598,-0.85503 -2.24333,-1.2819c-0.74735,-0.42687 -1.51906,-0.81658 -2.24333,-1.2819c-0.7717,-0.49609 -1.49598,-1.06911 -2.24333,-1.60237c-0.74735,-0.53327 -1.91388,-0.74607 -2.24333,-1.60237c-0.31534,-0.8217 0.13973,-1.84082 0.64095,-2.56381c0.52302,-0.75505 1.51264,-1.04603 2.24333,-1.60237c1.51137,-1.15115 3.14322,-2.1818 4.48665,-3.52523c1.34343,-1.34343 2.44074,-2.92659 3.52523,-4.48665c0.62685,-0.90246 1.18448,-1.86773 1.60237,-2.88428c0.33458,-0.81401 0.37816,-1.72416 0.64095,-2.56381c0.27176,-0.87041 0.68966,-1.69339 0.96142,-2.56381c0.26279,-0.83965 0.20382,-1.7998 0.64095,-2.56381c0.44867,-0.78581 1.0909,-1.56648 1.92286,-1.92286c0.78452,-0.33585 1.71647,-0.1064 2.56381,0c0.87298,0.10897 1.72416,0.37816 2.56381,0.64095c0.87041,0.27176 1.7216,0.61019 2.56381,0.96142c0.44098,0.18331 1.21396,0.16793 1.2819,0.64095z" id="ID0.8940488370135427" fill="#cc0099" stroke="#cc0099"/></g><path d="M375.65783,256.51717c-0.10062,0.07922 1.25754,-0.29625 2.54458,-0.84824c0.69774,-0.29855 1.30959,-0.7735 1.97913,-1.13089c0.74299,-0.39585 1.54034,-0.69774 2.26179,-1.13089c0.6944,-0.41624 1.28473,-0.99745 1.97913,-1.41368c0.72159,-0.43316 1.537,-0.70235 2.26191,-1.13089c1.3492,-0.79734 2.67802,-1.64096 3.95826,-2.54458c1.92247,-1.35715 4.53832,-2.16911 5.6546,-4.24104c1.07205,-1.99156 -0.22626,-4.5814 0.28266,-6.7855c0.35971,-1.55956 1.27908,-2.97773 2.26191,-4.24104c1.02231,-1.31523 2.19628,-2.62714 3.67547,-3.39281c1.36164,-0.70454 3.03657,-0.4761 4.5237,-0.84811c0.78042,-0.19561 1.62404,-0.35739 2.26191,-0.84824c0.64236,-0.49417 0.79388,-1.45778 1.41368,-1.97913c1.19871,-1.00873 2.58303,-1.79479 3.95813,-2.54458c0.70581,-0.38559 1.54264,-0.48853 2.26191,-0.84824c0.79388,-0.39688 1.50072,-0.95668 2.26191,-1.41355c0.65134,-0.39021 1.26883,-0.86413 1.979,-1.13102c0.81324,-0.30419 1.68288,-0.46366 2.54471,-0.56545c0.74747,-0.0882 1.53341,-0.19447 2.26179,0c0.73402,0.19561 1.3401,0.72043 1.97913,1.13089c0.68081,0.43777 1.36048,0.89016 1.97913,1.41368c0.60955,0.51571 1.18063,1.0868 1.69634,1.69647c0.52366,0.61852 1.03257,1.26434 1.41368,1.97913c0.37893,0.71017 0.65261,1.4815 0.84824,2.26179c0.18434,0.7362 0.23523,1.50418 0.28266,2.26191c0.04755,0.75196 0.13908,1.5211 0,2.26179c-0.14806,0.79055 -0.84811,1.45778 -0.84811,2.26191c0,0.80401 0.46931,1.55162 0.84811,2.26179c0.38111,0.71479 0.99758,1.28473 1.41368,1.97913c0.43316,0.72159 0.8358,1.47355 1.13089,2.26191c0.27266,0.72709 0.37662,1.50854 0.56558,2.26179c0.18882,0.75325 0.46931,1.49176 0.56545,2.26191c0.09383,0.74747 0.09383,1.51431 0,2.26179c-0.09615,0.77017 -0.34611,1.51662 -0.56545,2.26191c-0.25228,0.85721 -0.55083,1.70198 -0.84824,2.54458c-0.26805,0.75876 -0.41278,1.58546 -0.84824,2.26179c-0.432,0.67185 -1.07205,1.19768 -1.69634,1.69647c-1.26447,1.01206 -2.59214,1.95759 -3.95826,2.82724c-0.71017,0.45238 -1.54034,0.69774 -2.26191,1.13089c-0.69428,0.41624 -1.29832,0.97604 -1.97913,1.41368c-0.6389,0.41059 -1.3401,0.72043 -1.979,1.13089c-0.68081,0.43777 -1.26447,1.03257 -1.97913,1.41368c-0.7103,0.37893 -1.49406,0.60852 -2.26191,0.84824c-0.74081,0.2319 -1.50636,0.38458 -2.26179,0.56545c-1.59917,0.38342 -3.16887,0.97822 -4.8065,1.13089c-2.43716,0.22626 -4.91841,-0.27817 -7.35107,0c-0.92169,0.10524 -1.70545,0.73632 -2.54458,1.13102c-0.76222,0.35842 -1.5279,0.71813 -2.26179,1.13089c-0.77466,0.43533 -1.48496,0.98386 -2.26191,1.41368c-2.80121,1.54816 -5.61845,3.09194 -8.48196,4.5237c-0.71927,0.35958 -1.52443,0.52583 -2.26179,0.84811c-0.77133,0.33701 -1.4906,0.79401 -2.26191,1.13102c-0.73735,0.32227 -1.50854,0.56545 -2.26179,0.84811c-0.75325,0.28279 -1.48714,0.63108 -2.26191,0.84824c-1.58328,0.44328 -3.20733,0.7476 -4.80637,1.13089c-0.75542,0.181 -1.48611,0.54173 -2.26191,0.56545c-2.26064,0.07012 -4.60062,0.29971 -6.7855,-0.28266c-0.83913,-0.22395 -1.30857,-1.20333 -1.69647,-1.97913c-0.75876,-1.51777 -1.40906,-3.13386 -1.69634,-4.8065c-0.28613,-1.67032 -0.18665,-3.40511 0,-5.08915c0.09845,-0.88772 0.32573,-1.82081 0.84824,-2.54458c1.95529,-2.70738 4.00684,-5.41489 6.50283,-7.63373c0.98053,-0.87079 2.44612,-0.95796 3.67547,-1.41368z" data-paper-data="{&quot;index&quot;:null,&quot;origPos&quot;:null}" id="ID0.7612559353001416" fill="#ffd499" stroke="#ffd499" stroke-width="1.76445" stroke-linecap="round"/><path d="M365.75514,175.15969c-0.29868,-0.03974 -0.42687,-0.0218 -0.64095,0c-0.85631,0.08589 -1.72929,0.11153 -2.56381,0.32047c-0.88451,0.22177 -1.70365,0.65761 -2.56381,0.96142c-0.95502,0.33714 -1.93439,0.61146 -2.88428,0.96142c-1.07808,0.39739 -2.16514,0.79221 -3.20476,1.2819c-0.77812,0.36663 -1.48317,0.87938 -2.24333,1.2819c-1.05501,0.55762 -2.14847,1.04731 -3.20476,1.60237c-0.97168,0.51148 -1.82031,1.32676 -2.88428,1.60237c-1.87029,0.48456 -3.86108,0.33329 -5.76856,0.64095c-1.40624,0.2269 -2.81506,0.51148 -4.16618,0.96142c-0.90502,0.30125 -1.64468,1.0268 -2.56381,1.2819c-1.03321,0.28714 -2.1536,0.11024 -3.20476,0.32047c-1.62417,0.32432 -3.24193,0.7371 -4.80714,1.2819c-0.90118,0.31407 -1.67801,0.92682 -2.56381,1.2819c-1.2537,0.50122 -2.54201,0.93066 -3.8457,1.2819c-1.47547,0.39739 -3.00478,0.59095 -4.48665,0.96142c-1.08064,0.27048 -2.14206,0.62557 -3.20476,0.96142c-0.96527,0.30509 -1.91901,0.65633 -2.88428,0.96142c-1.0627,0.33585 -2.13181,0.66274 -3.20476,0.96142c-0.84734,0.23587 -1.70236,0.4602 -2.56381,0.64095c-1.16781,0.24612 -2.38177,0.29868 -3.52523,0.64095c-1.00629,0.30252 -1.86773,1.01399 -2.88428,1.2819c-1.03706,0.27305 -2.13821,0.20254 -3.20476,0.32047c-0.85503,0.09486 -1.70878,0.22561 -2.56381,0.32047c-1.06655,0.11793 -2.14463,0.15511 -3.20476,0.32047c-2.35742,0.36791 -4.69689,0.88964 -7.05046,1.2819c-0.84862,0.14101 -1.71518,0.17946 -2.56381,0.32047c-1.07295,0.17946 -2.15616,0.34996 -3.20476,0.64095c-0.87811,0.24356 -1.69339,0.68966 -2.56381,0.96142c-0.83965,0.26279 -1.71005,0.42687 -2.56381,0.64095c-0.85374,0.21408 -1.69852,0.47815 -2.56381,0.64095c-0.84605,0.15895 -1.72929,0.11153 -2.56381,0.32047c-0.88451,0.22177 -1.67416,0.76401 -2.56381,0.96142c-1.04731,0.23203 -2.13437,0.2615 -3.20476,0.32047c-0.85247,0.04744 -1.71005,0 -2.56381,0c-0.96015,0 -1.92926,0.1064 -2.88428,0c-0.97809,-0.10897 -1.99464,-0.21921 -2.88428,-0.64095c-1.17679,-0.55762 -2.37024,-1.24216 -3.20476,-2.24333c-0.82554,-0.99091 -1.60237,-2.23564 -1.60237,-3.52523c0,-1.68698 0.84734,-3.29833 1.60237,-4.80714c0.54353,-1.08833 1.51264,-1.91131 2.24333,-2.88428c0.87041,-1.16141 1.66391,-2.38562 2.56381,-3.52523c0.70248,-0.89093 1.44086,-1.76134 2.24333,-2.56381c1.01526,-1.01526 2.06643,-2.00874 3.20476,-2.88428c1.64212,-1.26396 3.37397,-2.42151 5.12761,-3.52523c1.13192,-0.71274 2.31127,-1.36266 3.52523,-1.92286c1.56521,-0.72299 3.27911,-1.12552 4.80714,-1.92286c0.94604,-0.49353 1.65878,-1.35753 2.56381,-1.92286c0.80888,-0.50635 1.72031,-0.8358 2.56381,-1.2819c0.97168,-0.51404 2.25871,-0.69863 2.88428,-1.60237c0.48584,-0.70248 -0.05,-1.71134 0,-2.56381c0.0564,-0.96527 0.15255,-1.93311 0.32047,-2.88428c0.15255,-0.86656 0.37816,-1.72416 0.64095,-2.56381c0.27176,-0.87041 0.53455,-1.75749 0.96142,-2.56381c0.53968,-1.02039 1.0768,-2.09847 1.92286,-2.88428c0.69992,-0.64992 1.77672,-0.74094 2.56381,-1.2819c0.93451,-0.64223 1.64852,-1.5729 2.56381,-2.24333c0.6935,-0.50891 1.47419,-0.89733 2.24333,-1.2819c0.93964,-0.47046 1.91517,-0.87425 2.88428,-1.2819c1.05886,-0.44611 2.13309,-0.86529 3.20476,-1.2819c0.8499,-0.33073 1.728,-0.59608 2.56381,-0.96142c0.87425,-0.38201 1.68954,-0.89989 2.56381,-1.2819c0.8358,-0.36534 1.75492,-0.53968 2.56381,-0.96142c1.65494,-0.864 3.1522,-2.02028 4.80714,-2.88428c0.80888,-0.42174 1.69339,-0.68966 2.56381,-0.96142c0.83965,-0.26279 1.74338,-0.32176 2.56381,-0.64095c1.11141,-0.432 2.09334,-1.17038 3.20476,-1.60237c0.82042,-0.31919 1.71518,-0.40893 2.56381,-0.64095c2.67276,-0.72941 5.3904,-1.34856 8.01189,-2.24333c1.7639,-0.6025 3.38294,-1.58956 5.12761,-2.24333c0.82427,-0.30894 1.75236,-0.29996 2.56381,-0.64095c1.23191,-0.51917 2.30615,-1.3742 3.52523,-1.92286c0.92297,-0.41534 1.91901,-0.65633 2.88428,-0.96142c1.0627,-0.33585 2.14719,-0.6089 3.20476,-0.96142c0.86529,-0.28843 1.71005,-0.64095 2.56381,-0.96142c0.85374,-0.32047 1.66519,-0.80632 2.56381,-0.96142c2.21898,-0.38201 4.5046,-0.30381 6.72999,-0.64095c1.30498,-0.19741 2.55868,-0.66915 3.8457,-0.96142c1.06142,-0.24099 2.12283,-0.52046 3.20476,-0.64095c0.84862,-0.09486 1.71647,-0.1064 2.56381,0c0.87298,0.10897 1.82415,0.16537 2.56381,0.64095c0.82811,0.53199 1.25498,1.52033 1.92286,2.24333c0.61403,0.6653 1.39599,1.18576 1.92286,1.92286c0.55506,0.77683 0.85503,1.71005 1.2819,2.56381c0.42687,0.85374 1.0127,1.64852 1.2819,2.56381c0.27305,0.92682 0.26407,1.91901 0.32047,2.88428c0.05,0.85247 -0.31663,1.7716 0,2.56381c0.36534,0.914 1.03064,1.82671 1.92286,2.24333c0.87041,0.40636 1.92413,0 2.88428,0c0.85374,0 1.71005,0 2.56381,0c0.85374,0 1.71647,-0.1064 2.56381,0c0.87298,0.10897 1.68954,0.5384 2.56381,0.64095c0.95373,0.11281 1.93055,-0.11281 2.88428,0c0.87425,0.10255 1.69083,0.53199 2.56381,0.64095c0.84734,0.1064 1.71647,-0.1064 2.56381,0c0.87298,0.10897 1.70749,0.43969 2.56381,0.64095c0.95758,0.22561 1.95619,0.31407 2.88428,0.64095c0.89989,0.31791 1.71005,0.85503 2.56381,1.2819c1.06782,0.53327 2.13694,1.06911 3.20476,1.60237c0.85374,0.42687 1.78698,0.72684 2.56381,1.2819c0.7371,0.52686 1.33831,1.23191 1.92286,1.92286c0.59352,0.70119 1.26139,1.39086 1.60237,2.24333c0.31919,0.79863 0.37432,1.70493 0.32047,2.56381c-0.05513,0.87811 -0.37816,1.72416 -0.64095,2.56381c-0.27176,0.87041 -0.53199,1.75878 -0.96142,2.56381c-0.432,0.81016 -0.95373,1.59468 -1.60237,2.24333c-0.64864,0.64864 -1.49598,1.06911 -2.24333,1.60237c-0.74735,0.53327 -1.47162,1.10628 -2.24333,1.60237c-0.72428,0.46533 -1.45496,0.93707 -2.24333,1.2819c-0.92809,0.40636 -1.8985,0.72941 -2.88428,0.96142c-0.83709,0.19741 -1.72929,0.11153 -2.56381,0.32047c-0.88451,0.22177 -1.69339,0.68966 -2.56381,0.96142c-0.83965,0.26279 -1.72416,0.37816 -2.56381,0.64095c-0.87041,0.27176 -1.71005,0.64095 -2.56381,0.96142c-0.85374,0.32047 -1.69339,0.68966 -2.56381,0.96142c-0.83965,0.26279 -1.71903,0.39227 -2.56381,0.64095c-0.97168,0.28587 -1.92926,0.62428 -2.88428,0.96142c-0.86016,0.30381 -1.70365,0.65761 -2.56381,0.96142c-0.95502,0.33714 -1.8844,0.80376 -2.88428,0.96142c-1.05372,0.16664 -2.13694,0 -3.20476,0c-1.17423,0 -2.35486,0.0923 -3.52523,0c-1.33831,-0.1064 -2.7907,-0.43585 -2.88428,-0.32047z" data-paper-data="{&quot;index&quot;:null,&quot;origPos&quot;:null}" id="ID0.2503355722874403" fill="#ffffff" stroke="#ffffff" stroke-width="2" stroke-linecap="round"/><path d="M369.96644,167.0296c0.3738,5.04993 -0.79798,10.68671 -0.90272,16.2494c-0.04512,2.40497 0,4.81713 0,7.22199c0,1.20243 -0.97143,3.87826 0,3.61099c2.26769,-0.62647 3.95942,-4.23567 6.68025,-5.05544c4.28809,-1.63212 9.06908,-2.71725 13.72187,-1.98592c3.7752,0.48558 7.92972,1.91734 10.29124,5.14555c2.14141,2.85454 2.27679,7.06495 1.62494,10.56224c-0.44046,2.35076 -2.77673,4.25732 -4.96506,5.50667c-3.06028,1.85787 -6.59552,2.99183 -10.29137,3.52074c-4.6419,0.6644 -9.87065,-1.96259 -14.08285,0c-2.96094,1.51841 -2.39049,6.40234 -4.33322,8.9373c-3.29859,4.30245 -6.20723,9.8327 -11.28433,11.73569c-11.26805,4.22489 -23.62495,5.79919 -35.65855,5.86791c-4.94161,0.02704 -8.87397,-2.98632 -12.72878,-5.5068c-2.692,-1.72968 -4.2049,-4.26643 -5.77754,-6.77062c-1.49496,-2.35793 -0.78363,-5.64217 -2.52766,-7.67334c-0.84145,-0.9263 -2.15578,-0.33585 -3.15963,0c-3.05131,1.01283 -5.04274,4.41257 -8.03445,4.1526c-6.93856,-0.61211 -16.05455,-0.18601 -19.86052,-5.77754c-4.13093,-6.42759 -0.33944,-15.24746 1.08334,-22.65904c0.6662,-3.4737 2.48971,-7.32132 5.14568,-9.93025c2.73712,-2.64688 6.57565,-4.41987 10.47186,-5.50667c3.8998,-0.9154 8.19507,1.00386 12.36767,-0.36111c2.63597,-0.8558 4.0371,-3.84212 6.31927,-5.41656c2.10335,-1.44984 4.35654,-2.77147 6.77049,-3.61099c1.13577,-0.39534 2.05477,0.35035 3.61099,0c6.22543,-1.3974 12.21422,-3.90352 18.50644,-4.96506c6.24158,-1.0527 12.63123,-1.52572 18.95767,-1.3542c4.86584,0.13191 9.67567,1.27831 14.44396,2.25691c1.19165,0.24369 2.95376,-0.02167 3.15963,1.35407z" data-paper-data="{&quot;index&quot;:null,&quot;origPos&quot;:null}" id="ID0.7223125267773867" fill="#ffd499" stroke="#ffd499" stroke-width="2.8169" stroke-linecap="round"/><path d="M361.85226,173.4354c1.41573,2.67379 2.29153,6.3658 2.29153,10.44122c0,4.07542 -0.87579,7.76743 -2.29153,10.44122c-1.41561,2.67366 -3.37102,4.32912 -5.52807,4.32912c-2.15706,0 -4.11261,-1.65545 -5.5282,-4.32912c-1.41561,-2.67379 -2.2914,-6.3658 -2.2914,-10.44122c0,-4.07542 0.87579,-7.76743 2.2914,-10.44122c1.41561,-2.67366 3.37115,-4.32912 5.5282,-4.32912c2.15706,0 4.11248,1.65545 5.52807,4.32912z" data-paper-data="{&quot;index&quot;:null,&quot;origPos&quot;:null}" id="ID0.572308739181608" fill="#ffffff" stroke="none" stroke-width="0.9037" stroke-linecap="butt"/><path d="M299.38091,177.25765c1.3128,-2.26051 4.18746,-3.43037 6.27517,-5.14568c1.09577,-0.90092 2.17347,-2.94287 3.28705,-2.70815c1.02796,0.21664 0.66339,2.40844 0.99604,3.61099c0.33073,1.20243 0.51007,2.45177 0.99617,3.61099c0.5816,1.38112 1.40446,2.67572 2.19128,3.97211c0.67531,1.11218 1.16743,2.38498 2.19141,3.24988c1.0418,0.88105 2.59572,1.0941 3.78494,1.80543c2.33678,1.39753 5.33695,2.33639 6.77332,4.51371c0.6853,1.04001 -1.06782,2.22628 -1.59366,3.34025c-0.56775,1.20063 -0.94836,2.4915 -1.69339,3.61099c-0.72915,1.09769 -1.57969,2.18462 -2.6893,2.97901c-1.16345,0.83413 -2.50612,1.68814 -3.98429,1.80556c-1.39048,0.11011 -2.65354,-0.79631 -3.98429,-1.17358c-1.4224,-0.40444 -3.01413,-0.46763 -4.28309,-1.17358c-1.14154,-0.63556 -1.94234,-1.70083 -2.68943,-2.70828c-0.76094,-1.02731 -1.36458,-2.16654 -1.79287,-3.34012c-1.33472,-3.64893 -2.6097,-7.34299 -3.48627,-11.10384c-0.39047,-1.67917 -1.18127,-3.62727 -1.29485,-3.97211z" data-paper-data="{&quot;index&quot;:null,&quot;origPos&quot;:null}" id="ID0.2513223886489868" fill="#995900" stroke="#995900" stroke-width="2.96607" stroke-linecap="round"/><path d="M376.77949,214.3859c1.55879,0.05 3.74188,-0.6653 4.67895,0.38458c0.81145,0.92809 -0.58839,2.93043 -1.2819,3.9739c-0.51404,0.76017 -1.38317,1.28062 -2.24333,1.60237c-0.90502,0.3397 -1.95746,0.04744 -2.88428,0.32047c-0.91527,0.2692 -1.7216,0.83323 -2.56381,1.2819c-0.75889,0.40509 -1.49598,0.85503 -2.24333,1.2819c-0.74735,0.42687 -1.39471,1.1409 -2.24333,1.2819c-1.78954,0.29868 -3.65855,0.29868 -5.44809,0c-0.84862,-0.14101 -1.54341,-0.78196 -2.24333,-1.2819c-0.80119,-0.57173 -1.29216,-1.66903 -2.24333,-1.92286c-0.8499,-0.2269 -1.72416,0.37816 -2.56381,0.64095c-0.87041,0.27176 -1.66776,0.7935 -2.56381,0.96142c-0.83965,0.15768 -1.71647,0.1064 -2.56381,0c-0.87298,-0.10897 -1.75749,-0.28843 -2.56381,-0.64095c-0.92297,-0.4038 -1.89209,-0.85247 -2.56381,-1.60237c-1.18448,-1.3242 -2.06258,-2.91248 -2.88428,-4.48665c-0.46789,-0.89733 -0.84478,-1.87799 -0.96142,-2.88428c-0.20766,-1.80236 -0.07307,-3.63547 0,-5.44809c0.03462,-0.86016 0.16152,-1.71774 0.32047,-2.56381c0.1628,-0.86529 0.31407,-1.74723 0.64095,-2.56381c0.31919,-0.79863 0.82554,-1.51393 1.2819,-2.24333c0.61146,-0.97937 1.13705,-2.03823 1.92286,-2.88428c0.62428,-0.67299 1.38317,-1.28062 2.24333,-1.60237c0.90502,-0.3397 2.0613,-0.82683 2.88428,-0.32047c0.89476,0.55122 0.76658,1.96772 1.2819,2.88428c0.44995,0.79991 0.92553,1.62288 1.60237,2.24333c0.63454,0.58199 1.46778,0.91015 2.24333,1.2819c1.68185,0.80376 3.38294,1.58956 5.12761,2.24333c0.82427,0.30894 1.69083,0.53199 2.56381,0.64095c0.84734,0.1064 1.89722,-0.53327 2.56381,0c0.6871,0.54993 0.31407,1.74723 0.64095,2.56381c0.31919,0.79863 0.85503,1.49598 1.2819,2.24333c0.42687,0.74735 0.69992,1.60879 1.2819,2.24333c0.62044,0.67684 1.41138,1.22037 2.24333,1.60237c1.03577,0.48071 2.14463,0.52942 3.20476,0.64095c0.69992,0.14613 1.37164,0.11281 2.05105,0.12819z" data-paper-data="{&quot;index&quot;:null,&quot;origPos&quot;:null}" id="ID0.6166942031122744" fill="#663b00" stroke="#663b00" stroke-width="2" stroke-linecap="round"/><path d="M363.92971,182.29091c0.53327,1.3178 0.864,3.13553 0.864,5.14299c0,2.00746 -0.33073,3.82519 -0.864,5.14299c-0.53327,1.31651 -1.27036,2.13181 -2.08437,2.13181c-0.81401,0 -1.5511,-0.81529 -2.08437,-2.13181c-0.53327,-1.3178 -0.864,-3.13553 -0.864,-5.14299c0,-2.00746 0.33073,-3.82519 0.864,-5.14299c0.53327,-1.31651 1.27036,-2.13181 2.08437,-2.13181c0.81401,0 1.5511,0.81529 2.08437,2.13181z" data-paper-data="{&quot;index&quot;:null,&quot;origPos&quot;:null}" id="ID0.1892412044107914" fill="#995900" stroke="none" stroke-width="1" stroke-linecap="round"/><path d="M367.1028,195.15839c0,0 -0.02384,-0.87861 0.10062,-1.29177c0.10921,-0.36201 0.35919,-0.66992 0.58339,-0.9745c0.41021,-0.55686 0.84798,-1.09782 1.31754,-1.60546c0.32715,-0.35368 1.06898,-0.97347 1.06898,-0.97347" data-paper-data="{&quot;index&quot;:null,&quot;origPos&quot;:null}" id="ID0.9068403104320168" fill="none" stroke="#ff9400" stroke-width="0.72566" stroke-linecap="round"/><g data-paper-data="{&quot;index&quot;:null,&quot;origPos&quot;:null}" id="ID0.12245760392397642" fill="none" stroke="#ff9400" stroke-width="1.6338" stroke-linecap="round"><path d="M273.77773,191.59061c0,0 1.49021,-1.19691 2.35613,-1.57071c0.70056,-0.30265 1.50585,-0.25766 2.25154,-0.41892c0.70261,-0.1519 1.38228,-0.422 2.09437,-0.52366c0.76017,-0.10884 1.53624,-0.08691 2.30383,-0.10474c0.69736,-0.01667 1.40945,-0.13191 2.09437,0c0.69941,0.13408 1.35292,0.46712 1.98964,0.78542c0.6921,0.34663 1.31728,0.81888 1.98964,1.20434c0.63672,0.36431 1.3592,0.59583 1.93721,1.04718c0.55506,0.43354 1.085,0.94873 1.41381,1.57071c0.33611,0.63569 0.27112,1.42112 0.52353,2.09437c0.27331,0.72992 0.91105,1.32676 1.04718,2.09437c0.27331,1.54571 0.24612,3.14477 0.15716,4.71241c-0.08691,1.53098 -0.31317,3.06619 -0.68068,4.55524c-0.38546,1.55815 -0.94669,3.07669 -1.57084,4.55524c-0.3738,0.8849 -0.87644,1.71737 -1.41368,2.5133c-0.40842,0.60532 -0.73825,1.39907 -1.41368,1.67545c-1.35612,0.55506 -2.88402,0.78119 -4.34591,0.68068c-1.16654,-0.07961 -3.29859,-1.20422 -3.29859,-1.20422" id="ID0.5088158850558102"/><path d="M291.57989,195.51758c0,0 -0.88797,2.03682 -1.67545,2.77507c-0.67133,0.62929 -1.70172,0.71837 -2.5133,1.15192c-0.72569,0.38739 -1.41676,0.84195 -2.09437,1.30895c-0.33611,0.23139 -0.94246,0.78542 -0.94246,0.78542" id="ID0.15313750924542546"/></g><path d="M349.92364,155.48249c-0.2269,-0.48328 0.54481,-0.9486 0.96142,-1.2819c0.67172,-0.53711 1.57674,-0.73838 2.24333,-1.2819c0.7371,-0.60121 1.31523,-1.38189 1.92286,-2.11514c0.63197,-0.76274 1.08321,-1.68314 1.79467,-2.37152c0.62941,-0.6089 1.33958,-1.72416 2.17923,-1.47419c0.94348,0.28201 0.9845,1.71005 1.47419,2.56381c0.42816,0.74607 0.87682,1.48444 1.2819,2.24333c0.44867,0.84221 0.77556,1.75492 1.2819,2.56381c0.50122,0.79991 1.21525,1.45368 1.73056,2.24333c0.49097,0.75119 0.82683,1.59854 1.2819,2.37152c0.46276,0.78581 0.64095,1.93695 1.47419,2.30742c0.79607,0.35381 1.72672,-0.27176 2.56381,-0.51276c0.87682,-0.25254 2.16385,-1.36138 2.56381,-0.96142c0.40123,0.40123 -0.47815,1.79082 -0.96142,2.56381c-0.60121,0.96142 -1.53188,1.68058 -2.24333,2.56381c-0.61275,0.76145 -1.05629,1.66391 -1.73056,2.37152c-0.61788,0.64992 -1.28447,2.00361 -2.11514,1.66647c-2.53304,-1.02808 -4.25977,-3.43934 -6.40951,-5.12761c-0.73197,-0.57429 -1.52546,-1.07424 -2.24333,-1.66647c-1.35369,-1.11654 -2.6984,-2.25615 -3.9739,-3.46114c-1.07552,-1.01655 -2.44586,-1.86645 -2.43561,-1.79467z" data-paper-data="{&quot;index&quot;:null,&quot;origPos&quot;:null}" id="ID0.8964866125024855" fill="#663b00" stroke="#663b00" stroke-width="2" stroke-linecap="round"/><g data-paper-data="{&quot;index&quot;:null,&quot;origPos&quot;:null}" id="ID0.863757252227515" stroke-linecap="round"><path d="M356.03063,255.28616c-0.70351,-0.43072 0.22703,-1.36997 1.24062,-2.22025c0.64775,-0.54391 1.38715,-1.0136 2.17128,-1.38766c0.77914,-0.37188 1.59917,-0.8326 2.48125,-0.8326c0.88221,0 1.73941,0.4052 2.48138,0.8326c0.73697,0.42405 0.99501,1.54636 1.86107,1.66519c0.82247,0.1132 1.38086,-0.87477 2.17116,-1.11013c0.79029,-0.23536 1.69723,-0.52839 2.48138,-0.27754c0.82504,0.2642 1.32626,1.04346 1.86094,1.66519c0.50751,0.59057 0.8276,1.29549 1.24062,1.94273c0.41316,0.64724 0.94797,1.24549 1.24075,1.94273c0.33368,0.79811 0.402,1.66852 0.62031,2.49779c0.19485,0.74158 0.46276,1.47086 0.62031,2.22025c0.15383,0.73261 0.28536,1.47534 0.31022,2.22025c0.0782,2.30896 -0.0782,4.62921 0,6.93817c0.02474,0.74491 0.27664,1.47547 0.3101,2.22025c0.07076,1.56981 -0.07063,3.14835 0,4.71804c0.03359,0.74491 0.27791,1.47534 0.31022,2.22025c0.07192,1.66186 0.14267,3.33705 0,4.99558c-0.06576,0.75928 -0.41316,1.48085 -0.62031,2.22025c-0.20729,0.7394 -0.26061,1.52969 -0.62031,2.22025c-0.37599,0.72043 -0.84618,1.45753 -1.55085,1.94273c-0.69979,0.48174 -1.61417,0.6871 -2.48138,0.8326c-0.81259,0.13652 -1.68237,0.19088 -2.48138,0c-0.80516,-0.19203 -1.34241,-1.04026 -2.17116,-1.11013c-2.57317,-0.21536 -5.20337,0.64608 -7.75423,0.27754c-0.86477,-0.12435 -1.41561,-0.99027 -1.86094,-1.66519c-0.9181,-1.38984 -1.63276,-2.89966 -2.17128,-4.44051c-0.50122,-1.4365 -0.72196,-2.94735 -0.93041,-4.44051c-0.10307,-0.73376 -0.05217,-1.48201 0,-2.22025c0.05204,-0.74376 0.28907,-1.45753 0.3101,-2.22025c0.0832,-3.04836 0,-6.10903 0,-9.15842c0,-0.76274 0.06832,-1.48317 0,-2.22025c-0.13768,-1.48534 -0.41316,-2.96183 -0.62031,-4.44051c-0.10294,-0.7394 -0.25804,-1.47649 -0.3101,-2.22025c-0.05217,-0.73825 -0.07448,-1.48431 0,-2.22025c0.02974,-0.29086 0.09794,-0.58622 0.3101,-0.8326z" id="ID0.021321910433471203" fill="#990072" stroke="#990072" stroke-width="1.83666"/><path d="M320.37155,239.4662c0.53225,0.07551 1.44791,1.08667 2.48138,1.62878c0.82631,0.43393 1.62648,0.93297 2.48138,1.30305c0.90567,0.39214 1.89324,0.56417 2.79148,0.9772c0.76299,0.3506 1.41689,0.93297 2.17116,1.30305c0.8003,0.39227 1.67865,0.5916 2.48138,0.97732c1.67994,0.80786 3.25424,1.86722 4.96263,2.60611c1.81273,0.78312 3.72329,1.30305 5.58307,1.95452c0.92925,0.32586 1.88837,0.57865 2.79159,0.97732c1.06449,0.47046 2.04579,1.13628 3.10156,1.62878c0.80644,0.37662 1.65135,0.66326 2.48138,0.97732c1.75185,0.66197 3.61779,1.05808 5.27286,1.95452c1.57943,0.85618 3.20463,1.82428 4.34245,3.2577c0.5334,0.67236 0.20716,1.73825 0.3101,2.60611c0.10294,0.86772 0.25804,1.73301 0.31022,2.60598c0.05204,0.86656 0,1.68365 0,2.60611c0,3.68893 0,7.38697 0,11.07589c0,0.92259 0.24062,1.77607 0,2.60611c-0.49751,1.7175 -0.92182,3.66163 -2.17116,4.88648c-0.60916,0.59673 -1.65507,-0.21767 -2.48138,-0.32573c-0.82631,-0.1082 -1.65378,-0.22421 -2.48138,-0.32586c-0.92925,-0.1146 -1.89824,-0.03256 -2.79148,-0.32573c-0.7953,-0.26061 -1.39202,-0.99553 -2.17116,-1.30305c-0.89207,-0.35047 -1.89709,-0.3101 -2.79159,-0.65147c-2.52356,-0.96425 -5.00608,-2.07578 -7.44401,-3.2577c-1.59431,-0.7726 -3.0558,-1.83722 -4.65254,-2.60611c-0.8908,-0.42867 -1.86222,-0.65147 -2.79148,-0.9772c-0.92925,-0.32573 -1.90068,-0.54866 -2.79159,-0.97732c-1.59674,-0.76876 -3.15246,-1.64699 -4.65241,-2.60611c-0.88221,-0.56417 -1.60546,-1.37997 -2.48138,-1.95452c-0.78286,-0.51468 -1.72955,-0.73888 -2.48138,-1.30305c-0.71338,-0.53558 -1.24062,-1.30305 -1.86094,-1.95465c-0.72338,-0.75965 -1.3983,-1.57661 -2.17128,-2.28025c-0.78029,-0.71017 -1.69723,-1.24832 -2.48125,-1.95465c-0.66505,-0.59941 -1.35113,-1.20524 -1.86107,-1.95452c-0.53724,-0.78965 -0.87092,-1.71737 -1.24062,-2.60611c-0.35368,-0.84964 -0.72825,-1.70442 -0.93053,-2.60611c-0.21459,-0.95643 -0.26549,-1.95067 -0.31022,-2.93185c-0.05947,-1.30049 -0.35598,-2.66213 0,-3.90916c0.29663,-1.03847 1.18858,-1.78249 1.86107,-2.60611c0.5707,-0.69838 1.19845,-1.35126 1.86094,-1.95452c0.88964,-0.81055 1.77672,-1.65353 2.79159,-2.28038c0.76055,-0.47033 1.69224,-0.56288 2.48138,-0.9772c0.6662,-0.34932 1.11782,-1.35139 1.86094,-1.30305z" id="ID0.17367316223680973" fill="#cc0099" stroke="#cc0099" stroke-width="1.98493"/></g><path d="M286.84186,285.39434c3.27385,1.17051 6.48822,2.48753 9.67362,4.1458c6.66923,3.50742 12.8976,7.81627 19.34712,11.74659c1.60866,0.98668 2.17936,1.72736 3.10938,2.76378c0.66608,0.76568 0.7089,1.86569 1.03642,2.9021c0.55558,1.78415 1.18025,3.66073 1.03655,5.52783c-0.2101,2.72648 -0.50032,5.70869 -2.07296,7.94613c-1.61545,2.29819 -4.43321,3.51011 -6.90972,4.83674c-0.81811,0.43816 -1.85042,0.18382 -2.76378,0.34547c-1.04475,0.18382 -2.04951,0.73389 -3.10938,0.69094c-1.87119,-0.07461 -3.76725,-0.39931 -5.52783,-1.03642c-3.68009,-1.33075 -7.19993,-3.10656 -10.71004,-4.83674c-4.4318,-2.18346 -8.95768,-4.26194 -13.12835,-6.90972c-3.10938,-1.97477 -6.54348,-3.88185 -8.63721,-6.90972c-2.22768,-3.21437 -3.52664,-7.29531 -4.49127,-11.1937c-0.93143,-3.75341 -2.7293,-8.17828 -1.38189,-12.09193c0.65082,-1.58097 3.69944,0.44212 5.5277,0.69094c0.89413,0.13678 1.61417,-0.08153 2.41844,-0.34547c1.28934,0.19485 2.5524,0.32752 3.80033,0.13818c1.01988,-0.15345 2.08398,-0.51686 3.10938,-0.34547c3.13835,0.51686 6.47579,1.0709 9.67349,1.93465z" data-paper-data="{&quot;index&quot;:null,&quot;origPos&quot;:null}" id="ID0.4583347821608186" fill="#00cc44" stroke="#00cc44" stroke-width="2.15608" stroke-linecap="round"/><path d="M323.41697,309.15492c3.82648,3.69201 7.32658,7.64168 11.13807,11.48238c4.95866,5.03391 9.87181,10.13524 15.19952,15.16735c1.33228,1.25819 1.74147,0.98463 2.38422,1.72519c0.74504,0.85708 1.5261,1.83837 1.68775,2.96273c0.26472,1.84838 0.16985,3.83097 -0.46046,5.5882c-0.92079,2.56624 -1.98592,5.3572 -4.08785,7.09392c-2.15898,1.78376 -5.18786,2.20628 -7.91856,2.82916c-0.90221,0.20549 -1.82774,-0.31111 -2.74866,-0.39637c-1.05295,-0.09871 -2.12116,-0.15729 -3.17181,-0.15536c-1.80671,0.00898 -3.93122,1.77095 -5.60204,0.89285c-4.25707,-2.2414 -7.79397,-5.98405 -11.3706,-9.33174c-3.79289,-3.56433 -8.12534,-6.86497 -11.41662,-10.98732c-3.1304,-3.92839 -6.08045,-8.18584 -8.21828,-12.75339c-0.89476,-1.95246 -1.59891,-4.11568 -1.38138,-6.16467c0.77837,-3.39665 1.96618,-7.06251 4.24194,-9.48018c1.9558,-2.06386 5.32144,-2.31833 8.0215,-2.94377c4.79073,0.46187 6.51706,-0.49918 8.65181,0.22894c2.08027,0.73888 3.53472,2.77621 5.05146,4.24207z" data-paper-data="{&quot;index&quot;:null,&quot;origPos&quot;:null}" id="ID0.4583347821608186" fill="#00cc44" stroke="#00cc44" stroke-width="2.14957" stroke-linecap="round"/><path d="M333.38774,352.85331c0.48661,-1.23101 3.13925,-2.26883 5.00121,-4.03991c1.49163,-1.41919 2.71571,-3.10631 4.14504,-4.58819c0.66902,-0.69415 1.4679,-1.25934 2.1495,-1.94311c0.72619,-0.72876 1.41804,-1.50008 2.07258,-2.29409c0.70222,-0.85157 1.40023,-1.71544 1.99554,-2.64508c0.59531,-0.92964 1.26909,-1.85748 1.56764,-2.91927c0.26689,-0.9504 0.05679,-1.9758 0.08627,-2.96235c0.02949,-0.98668 -0.12935,-1.99964 0.0864,-2.96248c0.22561,-1.00463 0.81183,-1.89542 1.21639,-2.84223c0.4047,-0.94669 0.49405,-2.10988 1.21652,-2.84223c1.35831,-1.37663 2.96735,-2.65661 4.80405,-3.2609c2.73686,-0.90182 5.69793,-1.05654 8.57926,-1.14526c1.07013,-0.03294 2.10258,0.44712 3.11644,0.78849c0.9754,0.32778 1.87773,0.85836 2.84223,1.21652c0.90515,0.33573 2.06246,0.2042 2.76532,0.86542c1.40753,1.32497 2.45331,3.04721 3.2609,4.80405c0.85182,1.85158 1.37727,3.87186 1.65955,5.89098c0.15665,1.12385 -0.10884,2.28294 -0.36047,3.39038c-0.2501,1.10128 -0.64877,2.17616 -1.13948,3.19335c-0.44136,0.91361 -1.02808,1.76185 -1.64455,2.56817c-0.62557,0.81862 -1.41804,1.50008 -2.07258,2.29409c-0.70222,0.85157 -1.33075,1.76351 -1.99554,2.64521c-0.66466,0.88157 -1.26613,1.81696 -1.99554,2.64508c-0.74607,0.84644 -1.59751,1.60123 -2.42369,2.37101c-1.41292,1.3151 -2.91441,2.54201 -4.29899,3.88608c-0.73914,0.71697 -1.22704,1.70698 -2.07258,2.29409c-1.00283,0.6953 -2.24909,0.95822 -3.35653,1.47188c-0.89502,0.41546 -1.74198,0.94258 -2.65457,1.3178c-1.00154,0.41252 -2.10514,0.57493 -3.08259,1.04385c-0.92143,0.44199 -1.65686,1.22281 -2.57753,1.66891c-1.8585,0.90054 -3.71918,1.91927 -5.73703,2.36178c-1.90272,0.41713 -3.90429,0.30997 -5.84779,0.17832c-1.06808,-0.07192 -2.13206,-0.36701 -3.11644,-0.78849c-0.93399,-0.40008 -2.08668,-0.75069 -2.56817,-1.64442c-0.46853,-0.86862 0.05691,-1.9758 0.0864,-2.96248c0.02949,-0.98655 0.18395,-1.98003 0.08627,-2.96235c-0.1055,-1.07192 -1.27369,-2.25218 -0.69274,-3.1595z" data-paper-data="{&quot;index&quot;:null,&quot;origPos&quot;:null}" id="ID0.32529750699177384" fill="#003fff" stroke="#003fff" stroke-width="2.24289" stroke-linecap="round"/><path d="M266.25515,293.55403c-2.93325,1.52443 -5.93008,2.91274 -9.14599,4.06004c-6.7578,2.37934 -13.78916,3.933 -20.69965,5.88572c-1.728,0.48277 -2.61342,0.40149 -3.93723,0.37919c-0.96438,-0.0309 -1.75878,-0.71248 -2.6929,-1.15461c-1.60263,-0.76684 -3.31448,-1.54533 -4.52268,-2.85301c-1.76428,-1.90991 -3.65484,-4.04107 -4.19695,-6.58411c-0.55673,-2.61226 0.42111,-5.35989 1.09833,-7.94382c0.22382,-0.8535 1.06872,-1.40843 1.54687,-2.1495c0.54763,-0.84708 0.81414,-1.90298 1.52956,-2.61393c1.26229,-1.25575 2.71494,-2.36704 4.29757,-3.18194c3.30769,-1.70391 6.82177,-3.00837 10.29791,-4.33552c4.38809,-1.67635 8.76386,-3.48614 13.30666,-4.68009c3.3873,-0.88964 6.93753,-2.04938 10.40174,-1.55007c3.68098,0.52648 7.36517,2.26064 10.70594,4.10991c3.21809,1.77851 7.46478,3.38756 9.32072,6.85779c0.68081,1.47624 -2.70096,2.29217 -4.05684,3.4055c-0.67364,0.53455 -0.98706,1.17756 -1.32343,1.90875c-0.96963,0.7726 -1.87914,1.567 -2.55432,2.55906c-0.55263,0.81003 -0.98758,1.78672 -1.77031,2.39049c-2.38998,1.85287 -4.93482,3.82019 -7.60502,5.49014z" data-paper-data="{&quot;index&quot;:null,&quot;origPos&quot;:null}" id="ID0.4583347821608186" fill="#00cc44" stroke="#00cc44" stroke-width="2.04998" stroke-linecap="round"/><path d="M220.78542,296.23552c-3.97325,-3.12605 -7.66245,-6.5272 -11.6357,-9.7954c-5.17261,-4.28707 -10.30867,-8.64234 -15.83034,-12.89236c-1.3806,-1.06257 -1.7416,-0.76465 -2.42049,-1.40368c-0.78696,-0.7394 -1.61968,-1.59289 -1.88029,-2.64097c-0.42739,-1.72313 -0.52738,-3.60766 -0.09935,-5.33027c0.62518,-2.51574 1.36561,-5.25785 3.18758,-7.102c1.87158,-1.89414 4.69624,-2.5838 7.2198,-3.43447c0.83375,-0.28074 1.75878,0.11935 2.63803,0.11178c1.00553,-0.00743 2.02169,-0.05435 3.01529,-0.15678c1.70827,-0.18152 3.54933,-2.05155 5.21388,-1.38099c4.24156,1.71275 7.94575,4.91442 11.64955,7.73885c3.92929,3.0085 8.34365,5.71588 11.85183,9.30045c3.33731,3.41627 6.53553,7.16123 8.99524,11.27728c1.03334,1.76134 1.90645,3.74008 1.89696,5.69921c-0.41111,3.2877 -1.18371,6.8692 -3.10502,9.37404c-1.6525,2.13962 -4.81187,2.70263 -7.3062,3.5528c-4.57601,0.0218 -6.11698,1.09616 -8.20609,0.61172c-2.0386,-0.49982 -3.60946,-2.28781 -5.18466,-3.5292z" data-paper-data="{&quot;index&quot;:null,&quot;origPos&quot;:null}" id="ID0.4583347821608186" fill="#00cc44" stroke="#00cc44" stroke-width="2.0438" stroke-linecap="round"/><path d="M191.48535,265.78046c-4.64882,1.27345 -5.80817,3.9507 -7.16289,6.13237c-2.20654,3.55113 -3.61612,7.57642 -5.85804,11.10615c-0.56006,0.88221 -1.24704,1.1432 -2.04246,1.33331c-3.18104,0.76274 -6.44323,1.62135 -9.71144,1.48457c-3.82584,-0.16101 -7.76513,-0.78299 -11.25267,-2.36395c-1.60699,-0.72876 -2.34331,-2.67648 -3.22924,-4.2031c-0.4297,-0.74004 -1.05231,-1.01425 -0.65248,-2.48701c1.59751,-5.89265 4.48858,-11.26575 7.03995,-16.73254c0.7526,-1.70301 2.63559,-2.52343 3.75879,-3.91006c1.02731,-1.33857 2.41766,-2.25794 3.6406,-3.34743c1.81043,-1.68877 3.51113,-3.10092 5.56486,-4.11811c5.9643,-3.03324 12.19038,-5.44975 18.5622,-7.26236c2.91568,-1.15576 6.28491,-2.8589 9.14868,-1.60289c2.35742,1.03219 2.52394,4.50153 3.88172,6.69012c1.71224,2.76135 4.67753,4.98801 5.33323,8.17008c0.43149,2.09629 -0.91425,4.43603 -2.42548,5.95264c-1.92054,1.92759 -4.65292,2.95966 -7.25275,3.76354c-3.12527,0.9672 -6.80754,-0.02257 -9.71131,1.48457z" data-paper-data="{&quot;index&quot;:null,&quot;origPos&quot;:null}" id="ID0.492208783980459" fill="#003fff" stroke="#003fff" stroke-width="1.79395" stroke-linecap="round"/></g></g></svg>