<svg version="1.1" xmlns="http://www.w3.org/2000/svg" xmlns:xlink="http://www.w3.org/1999/xlink" width="288.22763" height="305.60103" viewBox="0,0,288.22763,305.60103"><defs><linearGradient x1="346.23988" y1="192.0895" x2="344.13801" y2="157.60343" gradientUnits="userSpaceOnUse" id="color-1"><stop offset="0" stop-color="#cab5ba"/><stop offset="1" stop-color="#ff6f6f"/></linearGradient><linearGradient x1="346.6676" y1="209.95719" x2="344.81014" y2="179.48141" gradientUnits="userSpaceOnUse" id="color-2"><stop offset="0" stop-color="#99f6ff"/><stop offset="1" stop-color="#bdc6cc"/></linearGradient><linearGradient x1="367.69339" y1="208.8651" x2="365.59152" y2="174.37903" gradientUnits="userSpaceOnUse" id="color-3"><stop offset="0" stop-color="#99f6ff"/><stop offset="1" stop-color="#bdc6cc"/></linearGradient><linearGradient x1="367.02126" y1="186.98712" x2="365.1638" y2="156.51134" gradientUnits="userSpaceOnUse" id="color-4"><stop offset="0" stop-color="#cab5ba"/><stop offset="1" stop-color="#ff6f6f"/></linearGradient><linearGradient x1="355.311" y1="173.31279" x2="356.5204" y2="193.15574" gradientUnits="userSpaceOnUse" id="color-5"><stop offset="0" stop-color="#e39496"/><stop offset="1" stop-color="#aae0e7"/></linearGradient><radialGradient cx="355.9157" cy="183.23426" r="11.3" gradientUnits="userSpaceOnUse" id="color-6"><stop offset="0" stop-color="#ffffff" stop-opacity="0"/><stop offset="1" stop-color="#ffffff"/></radialGradient></defs><g transform="translate(-106.53628,-52.87756)"><g data-paper-data="{&quot;isPaintingLayer&quot;:true}" fill-rule="nonzero" stroke-miterlimit="10" stroke-dasharray="" stroke-dashoffset="0" style="mix-blend-mode: normal"><path d="M230.6752,264.7927c-0.61877,0.10669 -2.60545,-7.06539 -5.22036,-19.02309c-1.60218,-7.32342 -3.79432,-17.90312 -5.47546,-28.64783c-1.4365,-9.3096 -2.83744,-19.50215 -4.0738,-30.27636c-1.77798,-15.49327 -2.90926,-29.52563 -3.56036,-41.91388c0.06864,0.09505 0.1343,0.18526 0.19633,0.26614c0.02737,0.03554 0.05496,0.06578 0.07278,0.09183c0.03108,0.04552 0.05195,0.09084 0.0726,0.13456c0.03949,0.08406 0.07012,0.16119 0.0929,0.22922v0c-0.00411,-0.01978 -0.11459,-0.09478 -0.30383,-0.24599c-0.70027,-0.53831 -1.45739,-1.07216 -2.20493,-1.60345c-2.88424,-2.04948 -5.62923,-3.95053 -8.16673,-5.73153c-12.08282,-8.48057 -19.42632,-13.9812 -19.01467,-14.60178c0.34619,-0.52166 8.35766,3.9329 20.93328,11.66775c2.57277,1.58255 5.55522,3.43026 8.49759,5.33355c0.7653,0.49428 1.58515,1.02352 2.40361,1.60093c0.15455,0.10094 0.39724,0.27479 0.70707,0.54687v0c0.05805,0.10148 0.12295,0.21183 0.19368,0.33319c0.03612,0.06254 0.07591,0.12785 0.1088,0.19775c0.0195,0.04027 0.03044,0.07812 0.04332,0.11341c0.02966,0.08185 0.06332,0.16182 0.10029,0.24658c1.19157,12.65393 2.62152,26.24429 4.54999,42.26209c1.3164,10.94284 2.66135,21.3151 3.91286,30.79804c1.21369,9.37828 3.25979,22.55358 4.14695,28.68491c1.74674,12.07279 2.60382,19.4318 1.98814,19.53706z" data-paper-data="{&quot;index&quot;:null}" fill="#000000" stroke="none" stroke-width="9.375" stroke-linecap="round" stroke-linejoin="round"/><path d="M220.10622,142.55968c0.32709,0.37173 -2.1347,3.10612 -6.29994,7.88562c-4.69172,5.38324 -9.49457,11.04612 -16.66098,20.1601c-6.57558,8.36676 -12.79167,16.70035 -20.43723,27.13671c-0.13605,0.18629 -2.16164,2.95396 -2.29795,3.14007c-7.42617,10.15378 -14.30125,20.67341 -19.68657,28.95739c-10.30765,15.85877 -16.94568,26.46598 -17.74201,25.9928c-0.68632,-0.40881 4.64523,-11.80195 14.26405,-28.24481c5.08264,-8.68867 11.62281,-19.26775 19.20462,-29.72318c0.75861,-1.04646 1.52541,-2.09915 2.3001,-3.15591c7.48749,-10.22179 14.31814,-19.0066 21.07391,-26.942c7.25687,-8.52731 13.20593,-14.65524 18.18254,-19.16144c4.75218,-4.30343 7.80412,-6.38052 8.09948,-6.04536z" data-paper-data="{&quot;index&quot;:null}" fill="#000000" stroke="none" stroke-width="9.375" stroke-linecap="round" stroke-linejoin="round"/><path d="M216.32552,170.46478c0.13925,-0.51502 7.9084,1.02677 20.46585,3.35601c13.58974,2.52065 28.89383,5.21891 49.21304,8.22311c1.34463,0.19883 2.67991,0.39474 4.0064,0.58685c13.04273,1.89265 24.56079,3.35107 34.88112,4.56744c18.7918,2.21236 31.25164,3.2138 31.23052,3.7078c-0.03265,0.76786 -12.61017,0.89242 -31.59888,-0.68234c-10.28796,-0.85266 -22.11994,-2.13287 -35.11173,-3.97878c-1.33152,-0.18931 -2.67287,-0.38367 -4.02231,-0.58333c-19.79035,-2.92516 -36.31582,-6.2237 -49.19357,-9.31225c-12.45969,-2.98839 -19.99578,-5.42031 -19.87045,-5.8845z" data-paper-data="{&quot;index&quot;:null}" fill="#000000" stroke="none" stroke-width="9.37509" stroke-linecap="round" stroke-linejoin="round"/><path d="M230.40751,263.29236c0.25735,-0.5685 11.16539,3.17315 28.1383,10.78943c17.27569,7.75297 39.62801,19.00978 64.00312,34.07442c3.43556,2.12306 6.79713,4.25136 10.08352,6.37999c12.68439,8.21433 23.75829,15.98791 33.65171,23.55231v0c5.31779,4.06398 9.79368,7.65957 13.95213,11.54289c1.61599,1.50617 3.09519,2.97361 4.42715,4.59586c0.49252,0.59653 0.96739,1.23114 1.38714,1.93356c-0.22598,0.53936 -0.43869,1.22116 -0.75817,2.03961c-0.55615,-1.37594 -0.78601,-2.71378 -0.72061,-3.92913c0.58947,-1.41407 1.39291,-2.63257 2.09138,-3.6378c4.98102,-7.23391 7.71282,-11.48945 8.02217,-11.34551c0.51019,0.23735 -1.46598,4.92605 -5.88123,12.6298c-0.58702,1.03724 -1.22709,2.17125 -1.57851,3.27915c-0.76293,0.99996 -1.38587,2.10579 -1.90193,3.28162c-0.51538,-0.13553 -1.21738,-0.34331 -1.97513,-0.65358c-0.33043,-0.48993 -0.74178,-0.96786 -1.20891,-1.4805c-1.2719,-1.38934 -2.70917,-2.66437 -4.35316,-4.06507c-4.24253,-3.60576 -8.68451,-6.89615 -14.12029,-10.80509v0c-10.10853,-7.26361 -21.07473,-14.67937 -33.80653,-22.8239c-3.2744,-2.09482 -6.61587,-4.19621 -10.02574,-6.3037c-24.34898,-15.04852 -45.92811,-26.5014 -62.87703,-35.12071c-16.47259,-8.37724 -26.85789,-13.25158 -26.54934,-13.9337z" data-paper-data="{&quot;index&quot;:null}" fill="#000000" stroke="none" stroke-width="9.375" stroke-linecap="round" stroke-linejoin="round"/><path d="M270.6838,109.04882c3.33506,28.87207 -16.95152,55.11078 -45.79833,58.66379c-28.84615,3.55255 -55.11042,-16.95153 -58.66338,-45.79802c-3.55259,-28.84618 17.36201,-52.65291 45.79762,-58.66369c29.31674,-6.19692 55.24498,16.19885 58.66409,45.79793z" data-paper-data="{&quot;index&quot;:null}" fill="#f2f2f2" stroke="none" stroke-width="9.0943" stroke-linecap="round" stroke-linejoin="round"/><path d="M176.51543,84.6385c31.48826,-39.69441 85.57828,-27.6556 94.09998,24.34321c2.50963,21.73017 -8.36186,41.96684 -26.19196,52.16469c-39.15047,17.37754 -90.19152,-18.80586 -67.90802,-76.50787z" data-paper-data="{&quot;index&quot;:null}" fill="#ffffff" stroke="none" stroke-width="9.09417" stroke-linecap="round" stroke-linejoin="round"/><path d="M255.30779,77.3139c-0.28433,0.23694 -4.41398,-5.84987 -15.18164,-10.54326v0c-4.51207,-1.97154 -10.19311,-3.47048 -16.81186,-3.60384c-5.35933,-0.10844 -11.20533,0.68028 -17.25654,2.63098c-5.36248,1.73048 -10.81348,4.35993 -15.98165,7.9991c-4.70052,3.31285 -9.16707,7.46852 -12.9002,12.45407c-3.48015,4.64827 -6.33861,10.05323 -8.05552,15.9646c-1.70696,5.85808 -2.27508,12.23589 -1.52965,18.63483c0.81074,7.04304 3.20663,14.04492 6.76681,20.67469c3.54671,6.63871 9.41638,12.13731 16.33679,16.12286c0.30876,0.1778 0.62016,0.35205 0.93359,0.52322c7.12813,3.89797 15.03632,6.09725 22.873,6.80891c8.76825,0.78266 17.43188,-0.31406 25.14483,-3.26737c8.42784,-3.21935 15.56304,-8.72003 20.49564,-15.38095v0c5.26758,-7.07992 8.01754,-15.4433 8.81668,-23.33793c0.91044,-8.98719 -0.53021,-17.57968 -2.9199,-24.82496c-2.9826,-9.01097 -7.3769,-16.01369 -11.88137,-21.17602c-4.72,-5.39468 -9.2674,-8.46922 -12.63517,-10.29335c-3.32039,-1.79895 -5.29695,-2.40511 -5.243,-2.60098c0.0369,-0.13072 2.13559,0.02139 5.74972,1.54319c3.61928,1.52353 8.64002,4.44093 13.78345,9.83804c4.92619,5.15518 9.80982,12.32377 13.18174,21.66551c2.72358,7.52115 4.45161,16.54648 3.67154,26.18433c-0.68938,8.50615 -3.52058,17.57787 -9.1884,25.44282v0c-5.3358,7.37034 -13.04144,13.46148 -22.24169,17.05274c-8.37704,3.26364 -17.7126,4.51899 -27.13452,3.69676c-8.41637,-0.72348 -16.92919,-3.08355 -24.67883,-7.31093c-0.34039,-0.18593 -0.67877,-0.37494 -1.01518,-0.5674c-7.57445,-4.31459 -14.0211,-10.4444 -18.06474,-17.96578c-3.78537,-7.07388 -6.30679,-14.64018 -7.15598,-22.33112c-0.76499,-7.0022 -0.07778,-13.95245 1.85366,-20.34392c1.95179,-6.43606 5.1121,-12.2413 8.93443,-17.18866c4.0942,-5.29958 8.93056,-9.65306 13.9923,-13.07599c5.56025,-3.76131 11.39734,-6.41703 17.11352,-8.10751c6.44999,-1.90938 12.67146,-2.55643 18.3382,-2.25492c7.00706,0.37281 12.95093,2.22043 17.58202,4.52986v0c11.4508,5.7204 14.03218,12.63847 14.30805,12.40838z" data-paper-data="{&quot;index&quot;:null}" fill="#000000" stroke="none" stroke-width="9.375" stroke-linecap="round" stroke-linejoin="round"/><path d="M224.49655,117.95384c1.92554,-0.25257 3.74933,1.93449 4.07177,4.88176c0.32236,2.94703 -0.97862,5.54365 -2.9042,5.79592c-1.92457,0.25243 -3.74837,-1.93463 -4.0708,-4.8819c-0.32236,-2.94703 0.97813,-5.54358 2.90325,-5.7958z" data-paper-data="{&quot;index&quot;:null}" fill="#000000" stroke="none" stroke-width="9.375" stroke-linecap="round" stroke-linejoin="round"/><path d="M264.59631,112.27422c1.92554,-0.25257 3.74933,1.93448 4.07177,4.88176c0.32236,2.94703 -0.97863,5.54365 -2.90421,5.79592c-1.92457,0.25243 -3.74837,-1.93462 -4.0708,-4.8819c-0.32236,-2.94703 0.97812,-5.54359 2.90324,-5.7958z" data-paper-data="{&quot;index&quot;:null}" fill="#000000" stroke="none" stroke-width="9.375" stroke-linecap="round" stroke-linejoin="round"/><path d="M185.01262,109.83772c0,0 3.63796,10.69111 2.8679,22.36147c-1.02721,15.56749 -8.13028,61.7073 -8.13028,61.7073c0,0 -19.39898,-10.80825 -24.05065,-24.19128c-2.75794,-7.93469 -4.25301,-18.76397 -4.25301,-18.76397l-19.12229,25.433c0,0 -7.97611,-32.23509 -2.69128,-50.32463c5.04522,-17.26938 9.4177,-16.27684 9.4177,-16.27684c0,0 -32.72597,3.08167 -32.5134,2.72155c21.09677,-35.74345 52.64139,-55.45196 94.6653,-59.49867c74.46664,-3.17561 69.72724,53.7528 69.72724,53.7528l-12.57415,-10.33879l-5.74726,16.46873l-14.6904,-14.58397l-4.47244,14.7732l-14.26968,-11.61362l-6.52279,14.55861l-11.29933,-12.03433l-6.24231,16.53885l-10.09885,-10.68939z" fill="#000000" stroke="none" stroke-width="0" stroke-linecap="round" stroke-linejoin="miter"/><path d="M181.27518,101.27725c0,0 2.98998,20.37771 2.21992,32.04807c-1.02721,15.56748 -7.27194,53.50588 -7.27194,53.50588c0,0 -12.54673,-5.21391 -17.19839,-18.59694c-2.75794,-7.93469 -5.72974,-25.62467 -5.72974,-25.62467l-20.11242,25.57324c0,0 -4.87397,-24.59462 0.41086,-42.68416c5.04522,-17.26938 15.99793,-19.7338 15.99793,-19.7338c0,0 -35.69632,3.50239 -35.48376,3.14226c21.09677,-35.74345 64.37411,-51.05387 88.64602,-52.08123c64.3551,-3.2584 65.28438,43.77728 65.28438,43.77728l-11.08897,-10.54915l-5.74726,16.46873l-14.6904,-14.58397l-4.47244,14.7732l-14.26968,-11.61362l-6.52279,14.55861l-11.29933,-12.03433l-6.24231,16.53885l-12.42968,-12.88422z" fill="#754200" stroke="none" stroke-width="0" stroke-linecap="round" stroke-linejoin="miter"/><path d="M214.11966,112.85745c-0.01882,-0.1203 1.27414,-0.21991 3.48767,0.08407c1.12855,0.15497 4.99713,0.81095 8.22202,2.26653c3.20402,1.44615 5.76622,3.69035 6.34737,4.32593c1.14576,1.25342 1.3372,2.07066 1.14953,2.09188c-0.09358,0.01066 -1.01161,-0.95696 -2.39435,-1.89052c-1.8553,-1.25261 -4.77504,-3.84115 -10.81983,-5.45301c-4.47011,-1.19197 -5.96892,-1.2728 -5.99241,-1.42488z" data-paper-data="{&quot;index&quot;:null}" fill="#000000" stroke="none" stroke-width="9.375" stroke-linecap="round" stroke-linejoin="round"/><path d="M250.7844,145.18888l4.41683,13.4797c0,0 -52.56381,9.72351 -54.10227,-12.39794c-2.21532,-31.85397 35.21817,-4.05533 44.61733,-2.26969c12.83639,2.43865 16.48646,-4.5042 16.48646,-4.5042" fill="#ffffff" stroke="#000000" stroke-width="1.5" stroke-linecap="round" stroke-linejoin="miter"/><path d="M226.11447,148.05616l-24.13454,-4.41791" fill="none" stroke="#000000" stroke-width="1.5" stroke-linecap="round" stroke-linejoin="miter"/><path d="M306.13461,223.01408c3.03853,2.66039 6.00325,5.31374 8.89376,7.95502c11.15663,10.19307 20.79748,19.6859 29.3085,28.7778v0c4.57506,4.88505 8.39693,9.16933 11.8583,13.68507c1.34557,1.75198 2.56264,3.4432 3.60891,5.26283c0.38744,0.66955 0.75121,1.37378 1.04941,2.13579c-0.3118,0.49472 -0.63401,1.13215 -1.08405,1.88672c-0.32171,-1.4488 -0.32786,-2.80623 -0.06299,-3.99417c0.81451,-1.29754 1.80784,-2.36694 2.66249,-3.24325c6.10546,-6.31377 9.5014,-10.06074 9.7828,-9.86776c0.4641,0.31823 -2.25802,4.61696 -7.88288,11.48742c-0.74998,0.92628 -1.56826,1.93925 -2.09751,2.97407c-0.91736,0.8605 -1.71407,1.84851 -2.41691,2.92317c-0.486,-0.21863 -1.14414,-0.53929 -1.84034,-0.97025c-0.24514,-0.5377 -0.57206,-1.0769 -0.9483,-1.65954c-1.02546,-1.58001 -2.23285,-3.07455 -3.62345,-4.7271c-3.59004,-4.25585 -7.42879,-8.23349 -12.14579,-12.98509v0c-8.77275,-8.8307 -18.36637,-17.95284 -29.58129,-28.08487c-2.88426,-2.60596 -5.83357,-5.22948 -8.84934,-7.87027c-21.53496,-18.85671 -71.67513,36.92794 -71.67513,36.92794c0,0 48.01859,-65.41583 75.04384,-40.61355z" data-paper-data="{&quot;index&quot;:null}" fill="#000000" stroke="none" stroke-width="9.375" stroke-linecap="round" stroke-linejoin="round"/><g stroke="none" stroke-width="0" stroke-linejoin="miter"><g><path d="M340.32723,192.44987c0,0 5.73804,-13.84612 1.95857,-21.28083c-3.77946,-7.43469 -12.5935,0.3606 -12.5935,0.3606c0,0 11.15298,-14.36531 21.10326,-14.30864c9.95028,0.05666 9.42866,14.48253 9.42866,14.48253" fill="url(#color-1)" stroke-linecap="round"/><path d="M363.34227,199.58102c0,0 -13.84612,-5.73804 -21.28083,-1.95857c-7.43469,3.77946 0.3606,12.5935 0.3606,12.5935c0,0 -14.36531,-11.15298 -14.30864,-21.10326c0.05666,-9.95028 14.48253,-9.42866 14.48253,-9.42866" fill="url(#color-2)" stroke-linecap="round"/><path d="M371.50418,174.01866c0,0 -5.73804,13.84612 -1.95857,21.28083c3.77946,7.43469 12.5935,-0.3606 12.5935,-0.3606c0,0 -11.15298,14.36531 -21.10326,14.30864c-9.95028,-0.05666 -9.42866,-14.48253 -9.42866,-14.48253" fill="url(#color-3)" stroke-linecap="round"/><path d="M348.48913,166.88752c0,0 13.84612,5.73804 21.28083,1.95857c7.43469,-3.77946 -0.3606,-12.5935 -0.3606,-12.5935c0,0 14.36531,11.15298 14.30864,21.10326c-0.05666,9.95028 -14.48253,9.42866 -14.48253,9.42866" fill="url(#color-4)" stroke-linecap="round"/><path d="M345.99422,183.83896l9.31678,-10.52618l10.52618,9.31678l-9.31678,10.52618zM352.46025,187.23048c2.14844,1.9016 5.43166,1.70149 7.33326,-0.44695c1.9016,-2.14844 1.70149,-5.43166 -0.44695,-7.33326c-2.14844,-1.9016 -5.43166,-1.70149 -7.33326,0.44695c-1.9016,2.14844 -1.70149,5.43166 0.44695,7.33326z" fill="url(#color-5)" stroke-linecap="butt"/></g><path d="M344.63663,183.92171c-0.37966,-6.22926 4.36237,-11.58685 10.59163,-11.96651c6.22926,-0.37966 11.58685,4.36237 11.96651,10.59163c0.37966,6.22926 -4.36237,11.58685 -10.59163,11.96651c-6.22926,0.37966 -11.58685,-4.36237 -11.96651,-10.59163z" fill="url(#color-6)" stroke-linecap="butt"/></g></g></g></svg>