<svg version="1.1" xmlns="http://www.w3.org/2000/svg" xmlns:xlink="http://www.w3.org/1999/xlink" width="273.47078" height="343.18214" viewBox="0,0,273.47078,343.18214"><g transform="translate(-121.46036,-63.48981)"><g data-paper-data="{&quot;isPaintingLayer&quot;:true}" fill-rule="nonzero" stroke-linejoin="miter" stroke-miterlimit="10" stroke-dasharray="" stroke-dashoffset="0" style="mix-blend-mode: normal"><path d="M271.95737,406.67195l-60.63658,-89.07071l-89.86043,15.61561l45.29382,-103.85792l-38.98393,-108.23976l88.64779,24.89791l65.75337,-82.52727l9.51701,119.26268l79.61214,57.24074l-82.7668,48.80824z" id="Star" fill="#fff600" stroke="none" stroke-width="0" stroke-linecap="butt"/><path d="M282.77141,298.72706c0,-8.49549 6.32479,-15.38248 14.12678,-15.38248c7.802,0 14.12678,6.88697 14.12678,15.38248c0,8.49551 -6.32479,15.3825 -14.12678,15.3825c-7.802,0 -14.12678,-6.88699 -14.12678,-15.3825z" data-paper-data="{&quot;index&quot;:null}" fill="#995900" stroke="#663b00" stroke-width="2" stroke-linecap="butt"/><g data-paper-data="{&quot;index&quot;:null}" stroke-linecap="butt"><path d="M348.85249,248.98032c0,0 41.06135,39.14933 31.74408,52.54392c-5.76205,8.28355 -12.49617,9.88124 -22.5857,10.02185c-18.83431,0.26247 -27.53083,-23.56146 -27.53083,-23.56146c0,0 -41.90043,29.66598 -50.60317,16.58657c-8.70275,-13.07943 -4.39728,-8.61713 18.83888,-24.07793c23.23616,-15.4608 50.13675,-31.51294 50.13675,-31.51294z" data-paper-data="{&quot;origPos&quot;:null}" fill="#995900" stroke="#663b00" stroke-width="2"/><path d="M363.87533,261.41794c6.52706,9.80956 7.30487,20.76491 1.73727,24.46947c-5.5676,3.70455 -15.37225,-1.24456 -21.89931,-11.05412c-6.52706,-9.80957 -7.30487,-20.76491 -1.73726,-24.46947c5.5676,-3.70455 15.37223,1.24453 21.8993,11.05412z" data-paper-data="{&quot;origPos&quot;:null}" fill="#ffffff" stroke="#e5e5e5" stroke-width="2"/><path d="M382.15299,291.67274c1.60615,4.1277 1.33148,7.74946 -0.61347,8.08946c-1.94495,0.34 -4.82366,-2.73055 -6.42981,-6.85823c-1.60613,-4.1277 1.78884,-9.82565 3.73379,-10.16565c1.94493,-0.33999 1.70335,4.80674 3.30949,8.93441z" data-paper-data="{&quot;origPos&quot;:null,&quot;origRot&quot;:0}" fill="#ffffff" stroke="#e5e5e5" stroke-width="1"/><path d="M372.66582,297.4467c1.79305,5.50792 0.78406,10.61402 -2.25362,11.40485c-3.03767,0.79082 -6.95376,-3.03316 -8.7468,-8.54107c-1.79303,-5.5079 -0.78406,-10.61402 2.25362,-11.40485c3.03767,-0.79082 6.95374,3.03314 8.7468,8.54106z" data-paper-data="{&quot;origPos&quot;:null,&quot;origRot&quot;:0}" fill="#ffffff" stroke="#e5e5e5" stroke-width="1.5"/><path d="M356.03589,297.07662c0.86257,5.72784 -0.97264,10.59841 -4.09901,10.87876c-3.1264,0.28035 -6.36009,-4.13571 -7.22264,-9.86356c-0.86255,-5.72782 0.97265,-10.59839 4.09902,-10.87874c3.12638,-0.28038 6.36009,4.13571 7.22264,9.86354z" data-paper-data="{&quot;origPos&quot;:null,&quot;origRot&quot;:0}" fill="#ffffff" stroke="#e5e5e5" stroke-width="1.5"/></g><path d="M222.4961,290.35786c19.48397,-7.29638 26.71723,-47.7657 31.92892,-33.84859c5.64555,15.07566 8.81025,20.85787 3.745,36.13826c-4.21084,12.70286 -14.2854,24.5251 -24.65221,32.98819c-7.43132,6.06668 -18.8104,12.66797 -24.51008,13.2428c-5.69968,0.57482 -11.05582,-9.65592 -11.05582,-9.65592l-5.68502,-7.35205c0,0 -27.32728,9.29278 -26.76066,-4.49524c0.37098,-9.02708 32.07661,-13.64327 32.69636,-14.4096c2.21215,-2.73534 -15.35872,-8.15174 -8.60125,-12.99604c8.20163,-5.87957 25.58677,6.16378 26.08128,5.6395z" data-paper-data="{&quot;index&quot;:null}" fill="#995900" stroke="#663b00" stroke-width="2" stroke-linecap="butt"/><path d="M203.54973,308.00068c0,0 9.17344,-8.77676 13.51214,-4.49446c4.33869,4.28231 8.97678,26.69115 8.97678,26.69115" data-paper-data="{&quot;index&quot;:null}" fill="none" stroke="#663b00" stroke-width="2" stroke-linecap="round"/><g data-paper-data="{&quot;index&quot;:null}" stroke-linecap="butt"><path d="M212.35566,304.74172c-27.86536,1.57396 -59.19043,1.80328 -59.19043,1.80328c0,0 -15.59941,-54.54689 -0.78431,-61.3835c9.16205,-4.22793 15.77859,-2.19758 24.55158,2.78771c16.37669,9.30612 11.81925,34.25484 11.81925,34.25484c0,0 51.15214,-4.37895 52.03811,11.3062c0.88597,15.68518 -0.56884,9.65751 -28.4342,11.23147z" data-paper-data="{&quot;origPos&quot;:null}" fill="#995900" stroke="#663b00" stroke-width="2"/><path d="M146.50354,288.21461c-0.66448,-11.76386 4.20946,-21.6061 10.88626,-21.98323c6.67681,-0.37714 12.62807,8.85364 13.29254,20.6175c0.66448,11.76389 -4.20946,21.60609 -10.88626,21.98323c-6.67681,0.37714 -12.62806,-8.85362 -13.29254,-20.6175z" data-paper-data="{&quot;origPos&quot;:null}" fill="#ffffff" stroke="#e5e5e5" stroke-width="2"/><path d="M146.05244,252.87034c0.70387,-4.37288 2.77384,-7.35749 4.62336,-6.66635c1.84953,0.69115 2.77824,4.79637 2.07435,9.16923c-0.7039,4.37288 -6.51579,7.56886 -8.36532,6.87772c-1.84951,-0.69115 0.96372,-5.00773 1.66761,-9.3806z" data-paper-data="{&quot;origPos&quot;:null,&quot;origRot&quot;:0}" fill="#ffffff" stroke="#e5e5e5" stroke-width="1"/><path d="M157.15709,252.69217c1.24125,-5.65787 4.6958,-9.55102 7.71593,-8.69563c3.02013,0.85539 4.46219,6.13545 3.22093,11.7933c-1.24125,5.65785 -4.6958,9.55102 -7.71593,8.69563c-3.02013,-0.85539 -4.46219,-6.13542 -3.22093,-11.79329z" data-paper-data="{&quot;origPos&quot;:null,&quot;origRot&quot;:0}" fill="#ffffff" stroke="#e5e5e5" stroke-width="1.5"/><path d="M171.31243,261.42814c2.15507,-5.3766 6.20296,-8.64845 9.04123,-7.3079c2.83829,1.34054 3.39214,6.78588 1.23707,12.16248c-2.15507,5.37658 -6.20297,8.64843 -9.04123,7.30788c-2.83829,-1.34052 -3.39214,-6.78588 -1.23707,-12.16246z" data-paper-data="{&quot;origPos&quot;:null,&quot;origRot&quot;:0}" fill="#ffffff" stroke="#e5e5e5" stroke-width="1.5"/></g><path d="M221.6489,256.63336c0,-40.12459 21.25528,-51.31768 40.36222,-51.31768c19.10694,0 42.66863,11.19309 42.66863,51.31768c0,40.12459 -21.83188,55.9305 -40.93882,55.9305c-19.10695,0 -42.09203,-15.80591 -42.09203,-55.9305z" data-paper-data="{&quot;index&quot;:null}" fill="#995900" stroke="#663b00" stroke-width="2" stroke-linecap="butt"/><path d="M243.98162,112.61848c-6.47863,-16.38664 0.75316,-34.60621 16.15264,-40.69456c15.39949,-6.08835 33.1352,2.26006 39.61383,18.6467c6.47863,16.38664 -0.75315,34.6062 -16.15264,40.69455c-15.39949,6.08835 -33.1352,-2.26005 -39.61383,-18.64669z" data-paper-data="{&quot;index&quot;:null}" fill="#995900" stroke="#663b00" stroke-width="2" stroke-linecap="butt"/><path d="M159.37268,142.10683c-6.47863,-16.38663 0.75315,-34.60622 16.15264,-40.69457c15.39948,-6.08835 33.1352,2.26008 39.61383,18.64671c6.47863,16.38664 -0.75315,34.6062 -16.15264,40.69455c-15.39948,6.08835 -33.1352,-2.26005 -39.61383,-18.64669z" data-paper-data="{&quot;index&quot;:null}" fill="#995900" stroke="#663b00" stroke-width="2" stroke-linecap="butt"/><path d="M255.08767,261.18773c0,-18.25774 3.95836,-33.05857 8.84124,-33.05857c4.88288,0 8.84124,14.80082 8.84124,33.05857c0,9.35146 21.09192,16.53414 16.57483,23.1183c-11.1879,16.30768 -34.25733,-4.86055 -34.25733,-23.1183z" data-paper-data="{&quot;index&quot;:null}" fill="#ffffff" stroke="#e5e5e5" stroke-width="2" stroke-linecap="butt"/><path d="M234.79395,264.9538c0,-15.92246 4.30257,-28.83016 9.61006,-28.83016c5.30749,0 9.61006,12.9077 9.61006,28.83016c0,14.94152 -7.95768,35.27861 -22.67275,33.05073c-18.68485,-2.82888 3.45263,-17.12827 3.45263,-33.05073z" data-paper-data="{&quot;index&quot;:null}" fill="#ffffff" stroke="#e5e5e5" stroke-width="2" stroke-linecap="butt"/><path d="M191.2127,188.25073c-12.56698,-31.78612 2.53306,-67.55157 33.7269,-79.88438c31.19383,-12.33281 66.66897,3.43722 79.23595,35.22334c12.56698,31.78613 -2.53306,67.55157 -33.7269,79.88438c-31.19384,12.33281 -66.66897,-3.43722 -79.23595,-35.22333z" data-paper-data="{&quot;index&quot;:null}" fill="#995900" stroke="#663b00" stroke-width="2" stroke-linecap="butt"/><path d="M236.89681,157.19014c-5.62001,-14.2149 -2.58966,-28.73769 6.76849,-32.43754c9.35815,-3.69984 21.50036,4.82432 27.12037,19.03921c5.62001,14.2149 2.58966,28.7377 -6.76849,32.43753c-9.35815,3.69984 -21.50035,-4.8243 -27.12037,-19.03921z" data-paper-data="{&quot;index&quot;:null}" fill="#ffffff" stroke="none" stroke-width="0" stroke-linecap="butt"/><g data-paper-data="{&quot;index&quot;:null}" fill="none" stroke="none" stroke-width="1" stroke-linecap="butt" font-family="sans-serif" font-weight="normal" font-size="12" text-anchor="start"/><path d="M190.82708,174.9082c-5.62001,-14.2149 -2.58965,-28.73769 6.7685,-32.43753c9.35815,-3.69984 21.50035,4.82432 27.12036,19.03921c5.62001,14.2149 2.58966,28.73769 -6.76849,32.43753c-9.35815,3.69984 -21.50036,-4.8243 -27.12037,-19.03922z" data-paper-data="{&quot;index&quot;:null}" fill="#ffffff" stroke="none" stroke-width="0" stroke-linecap="butt"/><g data-paper-data="{&quot;index&quot;:null}" stroke="none" stroke-width="1" stroke-linecap="butt"><path d="M203.32057,144.18571c3.62212,-1.43204 7.93111,-0.13906 11.96406,3.11136c4.03444,3.24692 7.79281,8.45129 10.31669,14.83502c2.52388,6.38374 3.34053,12.75114 2.61719,17.8791c-0.71986,5.12948 -2.97969,9.01953 -6.60181,10.45157c-3.62212,1.43204 -13.77848,-4.56412 -13.77848,-4.56412l0.02108,-16.13201l-12.16308,-13.79502c0,0 4.00223,-10.35385 7.62435,-11.78589z" data-paper-data="{&quot;origPos&quot;:null}" id="ID0.3999869367107749" fill="#3a2400"/><path d="M204.60596,148.91335c2.8247,-1.11677 6.18505,-0.10844 9.33012,2.42637c3.14622,2.5321 6.07719,6.5907 8.04542,11.56902c1.96824,4.97834 2.60511,9.94392 2.041,13.94294c-0.5614,4.00021 -2.3237,7.03383 -5.1484,8.15061c-2.82468,1.11676 -10.6065,-2.51183 -10.6065,-2.51183l2.50489,-16.04444l-10.73783,-6.95594c0,0 1.74661,-9.45995 4.57131,-10.57672z" data-paper-data="{&quot;origPos&quot;:null}" id="ID0.3999869367107749" fill="#000000"/><path d="M202.81383,151.85784c1.89861,-0.75063 4.32927,0.37118 6.72658,2.7914c2.3959,2.41663 4.75593,6.13266 6.51085,10.57144c1.75493,4.43882 2.57408,8.76401 2.47852,12.16569c-0.09415,3.40526 -1.10053,5.88593 -2.99914,6.63656c-1.89861,0.75063 -6.72656,-2.7914 -6.72656,-2.7914l1.52616,-12.1989l-10.51553,-10.53822c0,0 1.10051,-5.88592 2.99912,-6.63656z" data-paper-data="{&quot;origPos&quot;:null}" id="ID0.31420128559693694" fill="#ffffff"/></g><path d="M216.60851,218.95792c0,-15.0126 17.81932,10.37886 38.04084,10.37886c20.22152,0 35.18776,-25.39146 35.18776,-10.37886c0,15.0126 -16.39278,27.18271 -36.6143,27.18271c-20.22152,0 -36.6143,-12.17011 -36.6143,-27.18271z" data-paper-data="{&quot;index&quot;:null}" fill="#ffffff" stroke="#e5e5e5" stroke-width="2" stroke-linecap="butt"/><g data-paper-data="{&quot;index&quot;:null}" stroke="none" stroke-width="0" stroke-linecap="butt"><path d="M206.52265,215.31992c-6.67377,-16.88021 3.52075,-36.73379 22.77011,-44.34423c19.24937,-7.61044 40.2642,-0.0958 46.93797,16.7844c6.67377,16.88021 -3.52075,36.73379 -22.77012,44.34424c-19.24937,7.61044 -40.2642,0.0958 -46.93797,-16.7844z" data-paper-data="{&quot;origPos&quot;:null}" fill="#ffffff"/><path d="M208.43039,193.48461c-2.69293,-6.81131 3.28648,-15.56008 13.35538,-19.54093c10.06889,-3.98084 20.41439,-1.68631 23.10732,5.12501c2.69293,6.81131 -3.28649,15.56008 -13.35538,19.54092c-10.06889,3.98084 -20.41439,1.68631 -23.10732,-5.12501z" data-paper-data="{&quot;origPos&quot;:null}" fill="#000000"/><path d="M206.95885,186.62601c-1.52209,-3.84988 2.04547,-8.86911 7.96833,-11.21078c5.92287,-2.34167 11.95822,-1.11904 13.48031,2.73084c1.52209,3.84988 -2.04547,8.86911 -7.96834,11.21078c-5.92287,2.34167 -11.95821,1.11904 -13.4803,-2.73084z" data-paper-data="{&quot;origPos&quot;:null}" fill="#ffffff"/></g><path d="M232.14083,197.32552l17.05469,12.47827" data-paper-data="{&quot;index&quot;:null}" fill="none" stroke="#000000" stroke-width="1.5" stroke-linecap="round"/><path d="M238.67424,217.73782c3.40416,-5.77992 9.22599,-5.98298 17.20198,-14.21103c3.39853,-3.50593 9.64348,-20.7455 12.25032,-20.45014c8.72481,0.98853 6.5375,24.74958 -3.30151,35.16102c-7.88369,8.34235 -29.68123,5.49453 -26.15078,-0.49985z" data-paper-data="{&quot;index&quot;:null}" fill="none" stroke="#000000" stroke-width="2" stroke-linecap="round"/><path d="M330.65853,218.12302c-19.80075,-6.3869 -50.61041,20.83169 -46.04834,6.68831c4.94184,-15.32077 6.05414,-21.81784 19.51628,-30.64495c11.19133,-7.33814 26.43044,-10.34337 39.8117,-10.53475c9.5922,-0.13721 22.61004,1.75919 27.43349,4.84968c4.82344,3.0905 2.66473,14.43493 2.66473,14.43493l-0.1126,9.29297c0,0 27.18713,9.69514 18.1773,20.14759c-5.89878,6.84327 -33.61151,-9.23657 -34.57323,-9.02108c-3.43281,0.76915 6.971,15.92942 -1.33375,15.52738c-10.07958,-0.48796 -16.22085,-20.7258 -16.93406,-20.62218z" data-paper-data="{&quot;index&quot;:null}" fill="#995900" stroke="#663b00" stroke-width="2" stroke-linecap="butt"/><path d="M264.75,189.37381l3.5,11.5" fill="none" stroke="#000000" stroke-width="2" stroke-linecap="round"/><path d="M261.75,141.87381l-12.5,17.5l16,-9.5" fill="none" stroke="#000000" stroke-width="3" stroke-linecap="round"/></g></g></svg>