<svg version="1.1" xmlns="http://www.w3.org/2000/svg" xmlns:xlink="http://www.w3.org/1999/xlink" width="214.39877" height="428.74603" viewBox="0,0,214.39877,428.74603"><defs><linearGradient x1="278.40823" y1="-4.78825" x2="258.41948" y2="123.98782" gradientUnits="userSpaceOnUse" id="color-1"><stop offset="0" stop-color="#3b2103"/><stop offset="1" stop-color="#000000"/></linearGradient><linearGradient x1="369.15561" y1="48.4743" x2="369.15561" y2="122.83455" gradientUnits="userSpaceOnUse" id="color-2"><stop offset="0" stop-color="#3fbf5b"/><stop offset="1" stop-color="#52f75b"/></linearGradient><linearGradient x1="386.5931" y1="88.63071" x2="396.38664" y2="88.63071" gradientUnits="userSpaceOnUse" id="color-3"><stop offset="0" stop-color="#00ab09"/><stop offset="1" stop-color="#185723"/></linearGradient><linearGradient x1="369.82244" y1="88.63071" x2="379.61598" y2="88.63071" gradientUnits="userSpaceOnUse" id="color-4"><stop offset="0" stop-color="#1a5125"/><stop offset="1" stop-color="#00ac09"/></linearGradient></defs><g transform="translate(-184.40236,-0.02901)"><g data-paper-data="{&quot;isPaintingLayer&quot;:true}" fill-rule="nonzero" stroke-linejoin="miter" stroke-miterlimit="10" stroke-dasharray="" stroke-dashoffset="0" style="mix-blend-mode: normal"><g data-paper-data="{&quot;origRot&quot;:0}" stroke-linecap="butt"><path d="M245.62416,383.44378l-12.65523,-116.85473l22.7082,-2.45927l12.65523,116.85473z" data-paper-data="{&quot;index&quot;:null}" fill="#00c7c6" stroke="#004040" stroke-width="0.5"/><path d="M242.77371,351.43346l-6.75089,-65.66831l4.01822,-1.61305c0,0 4.19454,47.89429 4.72494,55.79495c0.21736,3.23771 0.66088,10.33519 0.66088,10.33519z" data-paper-data="{&quot;origRot&quot;:0}" fill="#00e4e4" stroke="none" stroke-width="0"/></g><g data-paper-data="{&quot;index&quot;:null,&quot;origRot&quot;:0}" stroke-width="0.5" stroke-linecap="butt"><path d="M284.15816,313.73983c-9.18389,2.29641 -18.60451,-3.7427 -21.04156,-13.48886c-2.43703,-9.74612 3.03226,-19.50862 12.21614,-21.80504c9.18389,-2.29642 18.60446,3.74271 21.04157,13.48887c2.43704,9.74612 -3.03228,19.50862 -12.21617,21.80506z" data-paper-data="{&quot;origPos&quot;:null}" fill="#fff8d5" stroke="#45433a"/><path d="M265.53128,179.44197c0,0 1.2178,38.77091 7.99434,62.06508c6.77654,23.29414 22.66726,47.54231 22.66726,47.54231c0,0 -7.64273,7.9903 -14.92374,11.34869c-7.28102,3.35836 -17.77118,3.73186 -17.77118,3.73186c0,0 -16.2587,-34.64543 -21.40177,-58.16604c-5.14305,-23.5206 -7.29103,-53.55473 -5.81751,-61.86717c1.57336,-8.8757 6.39389,-18.14389 24.18868,-21.46483z" data-paper-data="{&quot;origRot&quot;:0,&quot;origPos&quot;:null}" fill="#67ff26" stroke="#183b09"/></g><path d="M258.00658,156.68291c-76.18237,-13.7549 -69.45568,-61.71396 -69.45568,-61.71396c0,0 24.41692,-34.34697 67.20024,-27.7061c42.78333,6.64087 76.58199,42.20129 76.58199,42.20129c0,0 -13.10042,59.34839 -74.32656,47.21877z" data-paper-data="{&quot;index&quot;:null,&quot;origRot&quot;:0}" fill="#2b1702" stroke="#0f0801" stroke-width="1" stroke-linecap="butt"/><path d="M233.70395,172.71731c0,0 1.29809,-8.36285 2.12893,-13.71551c1.59587,-10.28127 4.08921,-26.34445 4.08921,-26.34445l34.90941,5.41867l-6.21815,40.05996z" data-paper-data="{&quot;index&quot;:null,&quot;origRot&quot;:0}" fill="#fff8d5" stroke="#514f44" stroke-width="0.5" stroke-linecap="butt"/><g data-paper-data="{&quot;origRot&quot;:0}" stroke-linecap="butt"><path d="M222.36393,354.80066l11.81275,-113.59399l22.66867,-2.80062l-11.81275,113.59399z" data-paper-data="{&quot;origRot&quot;:0,&quot;index&quot;:null}" fill="#00c7c6" stroke="#004040" stroke-width="0.5"/><path d="M225.97495,329.33374l6.24595,-65.71826l4.25638,-0.79451c0,0 -3.39704,19.79824 -4.81091,32.36573c-1.02919,9.14825 -2.86416,33.53796 -2.86416,33.53796z" fill="#00e4e4" stroke="none" stroke-width="0"/></g><path d="M271.40235,155.95765l-2.24131,14.4395l-17.64412,-1.98156l-0.6912,-17.56223z" data-paper-data="{&quot;index&quot;:null,&quot;origRot&quot;:0}" fill="#d4ceb2" stroke="#000000" stroke-width="0" stroke-linecap="butt"/><path d="M225.78317,161.50345c5.80843,0.69798 18.00986,3.16931 28.5188,4.89707c10.50895,1.72776 28.86025,3.74579 28.86025,3.74579c0,0 -15.06788,123.12036 -19.04096,125.94884c-5.00095,3.56025 -28.0696,2.41061 -39.69807,0.60563c-16.98071,-2.63576 -19.80249,-3.47638 -20.90678,-9.12769c-1.52178,-7.78779 22.26678,-126.06964 22.26678,-126.06964z" data-paper-data="{&quot;index&quot;:null,&quot;origRot&quot;:0}" fill="#67ff26" stroke="#183b09" stroke-width="0.5" stroke-linecap="butt"/><path d="M253.59594,300.362l20.40401,-130.68883l4.00601,0.62155c0,0 -9.47006,60.66379 -15.53137,99.4917c-2.07418,13.28696 -4.87266,31.1974 -4.87266,31.1974z" data-paper-data="{&quot;index&quot;:null,&quot;origRot&quot;:0}" fill="#82a19f" stroke="#2b3434" stroke-width="0.25" stroke-linecap="butt"/><path d="M341.76933,96.00615c-6.10672,39.34211 -45.3003,65.91992 -87.54129,59.36324c-42.24096,-6.55668 -71.53362,-43.76503 -65.4269,-83.10711c6.10672,-39.34211 45.3003,-65.91992 87.54129,-59.36324c42.24096,6.55668 71.53362,43.76501 65.4269,83.10711z" data-paper-data="{&quot;index&quot;:null,&quot;origRot&quot;:0}" fill="#fff8d5" stroke="#514f44" stroke-width="0.5" stroke-linecap="butt"/><path d="M324.85475,75.19025l18.27315,14.77348c0,0 -22.84444,0.63107 -25.71976,-4.50036c-2.87534,-5.13143 -8.32303,-21.43654 -16.2217,-25.82472c-8.34649,-4.63696 -13.70195,-0.98979 -23.11053,-2.07019c-8.55372,-0.98222 -13.04222,-5.56811 -21.61507,-4.3455c-4.76988,0.68024 -18.73473,9.1334 -18.73473,9.1334l2.1793,-13.69032c0,0 -1.24176,13.13917 -7.2763,18.23226c-6.03454,5.09312 -15.84442,1.28137 -15.84442,1.28137l9.47865,-12.04835c0,0 -4.41882,4.16034 -9.18794,11.33569c-4.7691,7.17536 19.54921,-47.48703 23.05297,-51.69215c6.33051,-7.59763 58.97917,17.21986 72.04409,18.34978c8.89005,0.76886 12.68228,41.0656 12.68228,41.0656z" data-paper-data="{&quot;index&quot;:null,&quot;origRot&quot;:0}" fill="#8a7967" stroke="#000000" stroke-width="0" stroke-linecap="butt"/><path d="M188.288,90.78189l3.02618,-19.49594l148.96899,23.12312l-3.02618,19.49594z" data-paper-data="{&quot;index&quot;:null,&quot;origRot&quot;:0}" fill="#000000" stroke="#000000" stroke-width="0" stroke-linecap="butt"/><path d="M320.77954,79.08686c-2.21585,-6.38206 -4.12954,-20.78562 -12.66967,-25.27337c-9.0243,-4.74217 -14.73777,-1.1506 -24.86232,-2.34212c-9.20462,-1.08325 -14.08187,-5.72949 -23.28145,-4.60416c-9.19958,1.12533 -20.02939,8.93244 -20.02939,8.93244l2.18338,-13.68969c0,0 -1.18212,13.14843 -7.60872,18.18069c-6.42662,5.03226 -17.0141,1.09981 -17.0141,1.09981l10.04748,-11.96005c0,0 -4.7009,4.11656 -9.74329,11.24949c-5.04239,7.13294 -13.93988,16.57374 -22.27138,26.96152c-8.33153,10.38779 -1.54826,33.62004 -1.54826,33.62004c0,0 -7.26447,-24.30607 -7.87261,-26.92408c-0.06361,-0.27395 -2.08439,-10.57476 -0.75492,-18.93441c2.71529,-17.07368 6.11581,-35.67256 6.11581,-35.67256c0,0 5.03577,-16.56896 8.75269,-20.74097c6.71561,-7.53785 10.49742,-9.03089 18.42027,-12.94484c7.92283,-3.91394 23.05161,-7.27239 24.16216,-4.26809c1.20917,3.27106 -13.52282,4.92467 -13.42842,4.91014c5.93896,-0.91423 25.5547,-8.85743 44.78057,-5.20166c19.22586,3.65573 54.63398,21.72903 52.57351,24.49591c-1.41188,1.42447 -12.07503,-5.79335 -12.07503,-5.79335c0,0 22.77992,14.65811 25.21345,28.81577c2.51717,14.64434 4.50698,22.95617 3.77406,37.79719c-0.37803,7.65456 -1.03965,11.98054 -3.2661,19.31387c-6.52771,21.50052 -8.04111,15.3776 -8.04111,15.3776c0,0 -13.14216,-11.64077 -9.44685,-25.11115c0,0 0.10616,-10.91188 -2.10971,-17.29396z" data-paper-data="{&quot;index&quot;:null,&quot;origRot&quot;:0}" fill="url(#color-1)" stroke="#0f0801" stroke-width="1" stroke-linecap="butt"/><path d="M305.97163,121.04084c0.87469,-5.63512 3.63831,-23.43958 6.29696,-40.56772c0.19335,-1.24563 3.11042,-2.78585 3.11042,-2.78585c0,0 13.87193,-1.24782 22.7199,0.12557c1.40474,0.21804 3.24514,2.84148 3.01835,4.30256c-2.64193,17.02045 -5.94509,38.3008 -6.76961,43.61274c-0.27484,1.77061 -2.899,4.19638 -4.30372,3.97833c0,0 -17.1133,-2.65634 -21.26945,-3.30146c-1.38541,-0.21504 -3.09439,-3.48577 -2.80282,-5.36413z" data-paper-data="{&quot;index&quot;:null,&quot;origRot&quot;:0}" fill="#000000" stroke="#00360a" stroke-width="0" stroke-linecap="butt"/><path d="M280.15275,138.00979l19.67163,3.05345" data-paper-data="{&quot;index&quot;:null,&quot;origRot&quot;:0}" fill="none" stroke="#000000" stroke-width="0.5" stroke-linecap="round"/><path d="M291.28275,118.11254c-0.29156,1.87837 -2.91161,4.47714 -4.29702,4.26209c-4.15615,-0.64512 -21.26945,-3.30146 -21.26945,-3.30146c-1.40472,-0.21804 -3.17007,-3.32514 -2.89523,-5.09576c0.82452,-5.31194 4.12768,-26.59231 6.76961,-43.61274c0.22679,-1.46109 2.77586,-3.40318 4.1806,-3.18513c8.84799,1.37339 21.68892,6.76761 21.68892,6.76761c0,0 2.31292,2.35203 2.11957,3.59765c-2.65865,17.12815 -5.42227,34.9326 -6.29696,40.56772z" data-paper-data="{&quot;index&quot;:null,&quot;origRot&quot;:0}" fill="#000000" stroke="#00360a" stroke-width="0" stroke-linecap="butt"/><path d="M204.03189,287.4405c0,0 0.84644,-9.47962 1.7485,-15.29108c2.7062,-17.43447 15.44212,-85.8392 15.44212,-85.8392l1.66216,0.43161l-15.69834,104.93833z" data-paper-data="{&quot;origRot&quot;:0}" fill="#b7ff97" stroke="none" stroke-width="0" stroke-linecap="butt"/><path d="M254.69456,297.24192c0,0 4.14729,-5.68778 7.83968,-25.0351c3.92949,-20.58952 16.67449,-76.52441 16.67449,-76.52441c0,0 -5.11257,42.33262 -9.29633,69.28619c-1.94092,12.50425 -6.39739,31.8195 -6.39739,31.8195z" data-paper-data="{&quot;origRot&quot;:0}" fill="#56d420" stroke="none" stroke-width="0" stroke-linecap="butt"/><g data-paper-data="{&quot;index&quot;:null,&quot;origRot&quot;:0}"><g data-paper-data="{&quot;index&quot;:null}" stroke="#1b1600" stroke-width="0.5"><path d="M190.28861,393.62588c-0.70364,-0.75675 25.67257,-44.89861 33.86494,-53.69985c4.71938,-5.07013 28.72635,15.41842 26.36717,18.3362c-6.89043,8.52196 -14.88668,33.5604 -14.88668,33.5604c0,0 3.62298,7.66204 4.92482,12.56087c3.80628,14.32281 -11.55761,23.40168 -26.10014,12.16527c0,0 -12.10701,-9.94878 -24.17016,-22.92288z" data-paper-data="{&quot;origPos&quot;:null}" fill="#907900" stroke-linecap="butt"/><path d="M224.20414,384.45191c0,0 8.49068,4.4677 11.48649,7.88089c2.99584,3.41318 2.56707,5.45705 2.56707,5.45705" data-paper-data="{&quot;origPos&quot;:null}" fill="none" stroke-linecap="round"/></g><path d="M232.87045,389.10018l15.69126,-33.66427l1.5143,2.08062c0,0 -3.38054,5.90723 -4.92502,9.38956c-4.20167,9.4735 -9.79873,23.80816 -9.79873,23.80816z" fill="#b19300" stroke="none" stroke-width="0" stroke-linecap="butt"/><path d="M231.42851,420.48448c-0.77047,0.99718 6.08139,-6.2953 6.52603,-11.19599c0.44464,-4.90069 -3.90112,-17.735 -3.90112,-17.735c0,0 7.05215,11.33284 6.32864,19.30713c-0.72349,7.97431 -8.18308,8.62669 -8.95355,9.62386z" fill="#b19300" stroke="none" stroke-width="0" stroke-linecap="butt"/><path d="M191.10532,393.53435c0,0 9.96109,-18.30575 17.19864,-29.3564c6.20717,-9.47739 15.78562,-24.37695 15.78562,-24.37695l5.77358,-0.2219c0,0 -7.23462,13.30183 -15.1666,25.74347c-7.93197,12.44161 -19.53778,32.12418 -19.53778,32.12418z" fill="#665500" stroke="none" stroke-width="0" stroke-linecap="butt"/></g><g data-paper-data="{&quot;origRot&quot;:0}" stroke-linecap="butt"><g data-paper-data="{&quot;index&quot;:null,&quot;origRot&quot;:0}" stroke-width="0.5"><path d="M214.08048,314.81429c-9.3975,-1.14193 -16.03336,-10.1522 -14.82154,-20.12508c1.21182,-9.97283 9.81231,-17.13182 19.20981,-15.98989c9.39752,1.14192 16.03331,10.15219 14.82154,20.12508c-1.21182,9.97283 -9.81232,17.13181 -19.20985,15.98991z" data-paper-data="{&quot;origPos&quot;:null}" fill="#fff8d5" stroke="#45433a"/><path d="M244.74318,182.74357c0,0 -12.73635,36.63949 -14.74394,60.81611c-2.00756,24.1766 4.15415,52.50541 4.15415,52.50541c0,0 -9.99587,4.72639 -17.99651,5.25702c-8.00064,0.5306 -17.92986,-2.87435 -17.92986,-2.87435c0,0 -2.78485,-38.1693 0.82907,-61.97287c3.61395,-23.80357 12.35539,-52.6176 16.70581,-59.85237c4.64521,-7.72502 12.46301,-14.65456 30.26787,-11.38805z" data-paper-data="{&quot;origRot&quot;:0,&quot;origPos&quot;:null}" fill="#67ff26" stroke="#183b09"/></g><path d="M198.48225,297.53097c0,0 -1.86222,-44.6327 2.31848,-66.32911c5.56724,-28.89204 4.65593,-20.19251 10.63305,-42.32152c5.25075,-19.43983 8.9825,-16.32489 8.9825,-16.32489c0,0 -10.43329,36.2339 -15.53146,61.77091c-3.88179,19.44408 -1.15128,64.38589 -1.15128,64.38589z" fill="#b7ff97" stroke="none" stroke-width="0"/></g><g data-paper-data="{&quot;origRot&quot;:0}"><g data-paper-data="{&quot;index&quot;:null,&quot;origRot&quot;:0}" stroke="#1b1600" stroke-width="0.5"><path d="M248.54901,428.52491c-1.0333,0.00535 -8.46926,-50.52059 -9.3984,-62.50865c-0.53527,-6.90591 31.47577,-9.51421 32.02539,-5.80242c1.60521,10.8409 6.48434,33.76771 6.48434,33.76771c0,0 8.35816,2.47669 12.84453,4.83588c13.11693,6.89758 9.39434,24.35085 -8.72135,27.44355c0,0 -15.51901,2.17236 -33.23446,2.26394z" data-paper-data="{&quot;origPos&quot;:null}" fill="#907900" stroke-linecap="butt"/><path d="M264.76358,397.35592c0,0 9.037,-3.22274 13.57713,-3.11602c4.54023,0.10666 5.75389,1.8062 5.75389,1.8062" data-paper-data="{&quot;origPos&quot;:null}" fill="none" stroke-linecap="round"/></g><path d="M249.0972,428.22609l-9.68882,-63.88895l2.76022,-0.95855c0,0 -0.99804,3.68898 1.11281,17.58893c1.71766,11.31073 7.987,47.13153 7.987,47.13153z" data-paper-data="{&quot;origRot&quot;:0}" fill="#b19300" stroke="none" stroke-width="0" stroke-linecap="butt"/></g><path d="M214.86442,184.75924l8.85231,-23.16026l10.93511,3.44981l-3.45303,22.24589z" data-paper-data="{&quot;index&quot;:null,&quot;origRot&quot;:0}" fill="#67ff26" stroke="none" stroke-width="0" stroke-linecap="butt"/><g><path d="M339.51008,89.65909c0,-18.32231 29.64553,-46.07937 29.64553,-46.07937c0,0 29.64553,26.75514 29.64553,46.07937c0,19.32422 -13.27275,33.17546 -29.64552,33.17546c-16.37277,0 -29.64553,-14.85316 -29.64553,-33.17547z" data-paper-data="{&quot;origPos&quot;:null,&quot;index&quot;:null}" fill="url(#color-2)" stroke="#0066ff" stroke-width="0" stroke-linecap="butt"/><g data-paper-data="{&quot;index&quot;:null}"><g data-paper-data="{&quot;origPos&quot;:null}" stroke="#ffffff" stroke-width="0" stroke-linecap="butt"><path d="M391.48988,100.56559c-2.70441,0 -4.89678,-5.34343 -4.89678,-11.93487c0,-6.59146 -0.23896,-11.93487 4.89678,-11.93487c5.13572,0 4.89676,5.34343 4.89676,11.93487c0,6.59144 -2.19235,11.93487 -4.89676,11.93487z" data-paper-data="{&quot;origPos&quot;:null,&quot;index&quot;:null}" fill="url(#color-3)"/><path d="M374.71922,100.56557c-2.70441,0 -4.89678,-5.34343 -4.89678,-11.93487c0,-3.35009 -0.23896,-11.93487 4.89678,-11.93487c5.13572,0 4.89676,5.34343 4.89676,11.93487c0,6.59144 -2.19235,11.93487 -4.89676,11.93487z" data-paper-data="{&quot;origPos&quot;:null,&quot;index&quot;:null}" fill="url(#color-4)"/></g><path d="M387.95519,109.70288c0,0 -2.87995,1.53167 -4.24074,1.54697c-1.91237,0.02149 -4.14632,-1.45273 -4.14632,-1.45273" data-paper-data="{&quot;origPos&quot;:null}" fill="none" stroke="#268436" stroke-width="2.5" stroke-linecap="round"/></g></g></g></g></svg>