<svg version="1.1" xmlns="http://www.w3.org/2000/svg" xmlns:xlink="http://www.w3.org/1999/xlink" width="245.59829" height="311.18954" viewBox="0,0,245.59829,311.18954"><defs><linearGradient x1="348.11447" y1="256.27215" x2="318.21181" y2="307.2583" gradientUnits="userSpaceOnUse" id="color-1"><stop offset="0" stop-color="#7f2626"/><stop offset="1" stop-color="#401a1a"/></linearGradient><linearGradient x1="267.08592" y1="211.79477" x2="255.4396" y2="231.65261" gradientUnits="userSpaceOnUse" id="color-2"><stop offset="0" stop-color="#3a5946"/><stop offset="1" stop-color="#5f7f7f"/></linearGradient><linearGradient x1="317.61369" y1="226.79763" x2="305.96732" y2="246.65555" gradientUnits="userSpaceOnUse" id="color-3"><stop offset="0" stop-color="#3a5946"/><stop offset="1" stop-color="#5f7f7f"/></linearGradient><linearGradient x1="341.43706" y1="221.78105" x2="305.89628" y2="282.38059" gradientUnits="userSpaceOnUse" id="color-4"><stop offset="0" stop-color="#401a1a"/><stop offset="1" stop-color="#7f2626"/></linearGradient><linearGradient x1="234.40374" y1="188.79524" x2="202.62863" y2="242.97402" gradientUnits="userSpaceOnUse" id="color-5"><stop offset="0" stop-color="#401a1a"/><stop offset="1" stop-color="#7f2626"/></linearGradient><linearGradient x1="302.55491" y1="151.59791" x2="259.80183" y2="224.49498" gradientUnits="userSpaceOnUse" id="color-6"><stop offset="0" stop-color="#7f2626"/><stop offset="1" stop-color="#401a1a"/></linearGradient><linearGradient x1="198.59821" y1="213.00602" x2="160.63318" y2="277.7391" gradientUnits="userSpaceOnUse" id="color-7"><stop offset="0" stop-color="#7f2626"/><stop offset="1" stop-color="#401a1a"/></linearGradient></defs><g transform="translate(-107.01694,-101.35718)"><g data-paper-data="{&quot;isPaintingLayer&quot;:true}" fill-rule="nonzero" stroke-linejoin="miter" stroke-miterlimit="10" stroke-dasharray="" stroke-dashoffset="0" style="mix-blend-mode: normal"><g stroke="#000000" stroke-width="0.5" stroke-linecap="round"><path d="M247.32683,253.05064l-59.07039,107.20501l-79.10213,-105.73553l124.42703,-20.60939z" fill="#804040"/><path d="M126.52905,250.2134l70.26057,91.83046c0,0 -2.58688,23.15068 -7.96632,17.77808c-5.37944,-5.37259 -53.21464,-61.07391 -79.66898,-105.30182c-9.04806,-15.12709 17.37473,-4.30672 17.37473,-4.30672z" fill="#ffffff"/></g><path d="M319.06036,241.7191c0,0 19.89631,7.99522 26.86094,13.66273c6.02601,4.90367 6.42599,13.42468 6.42599,13.42468l-12.64139,-5.04989c0,0 0.98026,6.23913 2.17483,8.74937c3.43423,7.21641 9.68595,16.174 9.68595,16.174c0,0 -5.80349,1.63184 -9.13704,0.47872c-5.1036,-1.76538 -10.18872,-9.44896 -10.18872,-9.44896c0,0 10.59673,10.22432 13.71365,17.34235c4.92874,11.25549 0.98247,25.31988 0.98247,25.31988c0,0 -11.08758,-3.45648 -17.36811,-9.12434c-8.31948,-7.50794 -20.04261,-24.63707 -20.04261,-24.63707l-4.27208,6.47809l1.49754,-25.12689z" fill="url(#color-1)" stroke="#000000" stroke-width="0.5" stroke-linecap="round"/><g data-paper-data="{&quot;index&quot;:null,&quot;origRot&quot;:0}" stroke-linecap="butt"><g data-paper-data="{&quot;origRot&quot;:0,&quot;index&quot;:null}" stroke="#000000" stroke-width="0.5"><path d="M320.37271,392.20383c0.2177,6.65911 -18.09104,23.89126 -24.42604,19.33671c-5.8264,-4.1889 -32.78961,-37.29686 -32.78961,-37.29686c0,0 1.38098,-12.50761 4.751,-14.90321c2.86932,-2.03965 14.84879,-0.60203 14.84879,-0.60203c0,0 36.11976,29.0101 37.61587,33.46539z" fill="#ffffff"/><path d="M242.22707,328.33081l39.30947,29.45684c0,0 -3.01719,10.05715 -4.04938,11.31857c-2.06452,2.68553 -15.33157,3.87551 -15.33157,3.87551l-26.49811,-34.34036z" fill="#f3c69d"/></g><g fill="none" stroke="none" stroke-width="1" font-family="sans-serif" font-weight="normal" font-size="12" text-anchor="start"/></g><g data-paper-data="{&quot;origRot&quot;:0}" stroke="#000000" stroke-width="0.5" stroke-linecap="butt"><path d="M310.48551,211.50545c7.74721,7.29351 3.1519,24.01862 -2.14502,21.32695c-7.22918,-3.67352 -23.97539,-13.13851 -21.22025,-18.56043c2.75514,-5.42189 16.92066,-8.83373 23.3653,-2.76653z" fill="#7f2626"/><path d="M279.12262,227.84992c0,0 -0.20314,-8.42318 2.12746,-13.0096c2.33059,-4.58641 4.85665,-0.73452 4.85665,-0.73452l25.66091,20.08498c0,0 3.38404,5.5396 1.22696,7.66881c-2.15708,2.1292 -6.36717,-2.595 -6.36717,-2.595l-21.53554,19.98977c0,0 -13.24537,-0.35552 -14.97259,-1.12829c-1.72725,-0.77276 -4.53959,-13.36164 -4.53959,-13.36164z" fill="#ffffff"/><path d="M242.30709,273.83098l22.27038,-27.81477c0,0 12.31063,-0.4309 13.69239,0.63276c1.38175,1.06363 5.81626,13.53898 5.81626,13.53898l-16.25228,15.08576z" fill="#ffffff"/></g><g data-paper-data="{&quot;index&quot;:null,&quot;origRot&quot;:0}" stroke-linecap="butt"><g data-paper-data="{&quot;origRot&quot;:0,&quot;index&quot;:null}" stroke="#000000" stroke-width="0.5"><path d="M319.63215,370.61052c2.33865,6.23873 -9.48781,28.42639 -16.9477,26.1403c-6.86098,-2.10256 -43.00634,-24.8328 -43.00634,-24.8328c0,0 -2.69699,-12.2912 -0.27157,-15.63982c2.06508,-2.85107 13.87409,-5.32528 13.87409,-5.32528c0,0 43.50751,15.91601 46.35154,19.6576z" fill="#ffffff"/><path d="M225.14781,335.12517l46.67231,15.3178c0,0 0.36224,10.49374 -0.21166,12.01926c-1.09583,3.20522 -13.2832,8.58099 -13.2832,8.58099l-36.09941,-24.04669z" fill="#f3c69d"/></g><g fill="none" stroke="none" stroke-width="1" font-family="sans-serif" font-weight="normal" font-size="12" text-anchor="start"/></g><g stroke="#000000" stroke-width="0.5"><path d="M206.77969,344.55938l11.012,-31.4046l38.33808,0.40783l8.97275,30.99677z" fill="#ffffff" stroke-linecap="butt"/><g data-paper-data="{&quot;origRot&quot;:0}" stroke-linecap="round"><path d="M220.73107,256.67191l30.59531,-0.7872l9.19218,61.13314l-48.24489,-1.39077z" fill="#ffffff"/><path d="M251.2755,256.79268l-15.75489,10.69629l-14.99096,-9.60838z" fill="#804040"/><path d="M235.60932,267.09091l2.05052,48.92817l-25.43659,-0.23611l8.52706,-57.01748z" fill="#ffffff"/></g></g><path d="M330.49719,258.5335c-14.91656,25.43381 -56.88861,28.5279 -93.74723,6.91084c-36.85859,-21.61705 -44.79544,-53.98202 -29.8789,-79.4158c14.91656,-25.43381 53.88695,-47.00603 91.7811,-27.2605c40.47674,21.09122 46.76161,74.33166 31.84505,99.76547z" data-paper-data="{&quot;origRot&quot;:0}" fill="#f3c69d" stroke="#000000" stroke-width="0.5" stroke-linecap="butt"/><path d="M240.23358,203.80873c0,0 12.53075,-3.16725 17.25512,-1.95159c8.8592,2.27957 14.5107,10.44839 14.5107,10.44839c0,0 3.04119,7.64292 1.1266,12.13567c-1.91458,4.49274 -8.97272,8.7948 -8.97272,8.7948c0,0 -25.21906,-3.54509 -28.92486,-7.44934c-2.41172,-2.54089 5.00515,-21.97792 5.00515,-21.97792z" data-paper-data="{&quot;index&quot;:null,&quot;origRot&quot;:0}" fill="#ffffff" stroke="#000000" stroke-width="0" stroke-linecap="butt"/><path d="M271.95543,227.99483c-3.21606,5.4836 -10.61042,7.12124 -16.51584,3.65782c-5.90539,-3.46342 -8.08559,-10.71644 -4.86955,-16.20004c3.21606,-5.4836 10.61049,-7.12124 16.51587,-3.65782c5.90539,3.46342 8.08557,10.71646 4.86951,16.20006z" data-paper-data="{&quot;origRot&quot;:0}" fill="url(#color-2)" stroke="#000000" stroke-width="0.5" stroke-linecap="butt"/><path d="M317.13255,250.95116c-5.23642,1.2153 -27.59123,-12.21018 -27.59123,-12.21018c0,0 -2.83032,-6.564 -2.25018,-9.78633c0.8501,-4.72225 5.91489,-10.57064 5.91489,-10.57064c0,0 15.85002,0.57815 24.51574,3.47013c4.62122,1.54222 9.53038,7.89208 9.53038,7.89208c0,0 -6.71169,20.41403 -10.11958,21.20492z" data-paper-data="{&quot;origRot&quot;:0}" fill="#ffffff" stroke="#000000" stroke-width="0" stroke-linecap="butt"/><path d="M322.48316,242.99774c-3.21606,5.4836 -10.61044,7.12126 -16.51584,3.65782c-5.90538,-3.46344 -8.08559,-10.71644 -4.86954,-16.20007c3.21606,-5.4836 10.61051,-7.12124 16.5159,-3.65782c5.90538,3.46344 8.08554,10.71645 4.86948,16.20005z" data-paper-data="{&quot;origRot&quot;:0}" fill="url(#color-3)" stroke="#000000" stroke-width="0.5" stroke-linecap="butt"/><path d="M236.95795,205.45099l10.87303,-9.5099l23.28623,7.69949l2.76618,12.21349l-8.20268,-7.45854l-17.08693,-4.72566z" data-paper-data="{&quot;origRot&quot;:0}" fill="#000000" stroke="#000000" stroke-width="0.5" stroke-linecap="round"/><path d="M287.81769,220.73172l11.56923,-8.43964l24.56016,7.7847l5.19558,10.32857l-8.9841,-7.25491l-20.12737,-5.1849z" data-paper-data="{&quot;origRot&quot;:0}" fill="#000000" stroke="#000000" stroke-width="0.5" stroke-linecap="round"/><path d="M232.75811,226.15607l36.11076,7.27749l-3.41445,1.30722l-35.41454,-6.20723z" data-paper-data="{&quot;origRot&quot;:0}" fill="#000000" stroke="#000000" stroke-width="0.5" stroke-linecap="round"/><path d="M289.15879,236.61883l29.22993,14.49514l-4.68841,1.22202l-28.24485,-13.91742z" data-paper-data="{&quot;origRot&quot;:0}" fill="#000000" stroke="#000000" stroke-width="0.5" stroke-linecap="round"/><path d="M331.11832,259.70157c-8.95746,12.85037 -19.66096,20.76094 -30.86993,18.77529c-11.20896,-1.98565 13.96314,-10.40486 20.4471,-20.62168c8.10941,-12.77806 17.37246,-44.66955 17.37246,-44.66955c0,0 6.00691,27.92848 -6.94965,46.51595z" data-paper-data="{&quot;origRot&quot;:0}" fill="url(#color-4)" stroke="#000000" stroke-width="0.5" stroke-linecap="round"/><path d="M230.70974,186.62876l-10.42779,27.4545l12.5273,28.62403l-11.4405,-3.87274l0.08178,15.17823c0,0 -17.30693,-9.27534 -21.4872,-29.32653c-5.83051,-15.70928 4.05354,-35.27249 4.05354,-35.27249z" data-paper-data="{&quot;origRot&quot;:0}" fill="url(#color-5)" stroke="#000000" stroke-width="0.5" stroke-linecap="round"/><path d="M199.81892,189.31587c0,0 33.2223,-58.89268 87.91166,-43.47804c55.12419,15.53722 54.33948,75.84166 54.33948,75.84166l-40.20434,-19.32385l-0.95464,-18.5271l-15.73922,13.93739c0,0 -22.59487,-7.90428 -37.06529,-9.33688c-18.83968,-1.86516 -48.28766,0.88679 -48.28766,0.88679z" data-paper-data="{&quot;origRot&quot;:0}" fill="url(#color-6)" stroke="#000000" stroke-width="0.5" stroke-linecap="round"/><path d="M215.97058,239.74338c-2.18193,4.52618 -6.51146,14.79781 -12.23166,21.24025c-6.23853,7.0262 -18.41099,13.2714 -18.41099,13.2714l-3.16347,-15.56709l-32.47015,12.63571c0,0 0.37962,-10.47548 2.6492,-15.99178c2.50096,-6.07874 9.57476,-13.71906 9.57476,-13.71906l-14.88724,1.19808c0,0 16.35321,-14.05005 29.3817,-17.60629c5.86528,-1.601 19.03117,4.39149 19.03117,4.39149l-12.85819,-12.7422l27.23771,2.73555c0,0 8.95048,5.06554 9.91071,8.21375c1.43879,4.71713 -1.58162,7.41402 -3.76354,11.94019z" fill="url(#color-7)" stroke="#000000" stroke-width="0.5" stroke-linecap="round"/><g data-paper-data="{&quot;origRot&quot;:0,&quot;index&quot;:null}" stroke="#000000" stroke-width="0.5" stroke-linecap="butt"><path d="M150.97453,201.33764c5.55162,-6.89375 20.05122,-5.45696 23.52394,-0.46418c3.47274,4.99281 -11.81709,16.66511 -18.47414,21.29541c-4.8777,3.3927 -11.72346,-12.5441 -5.04977,-20.83122z" fill="#7f2626"/><path d="M200.01754,228.12347c0,0 -1.05922,12.85566 -2.66413,13.85802c-1.60494,1.00234 -14.67635,3.1711 -14.67635,3.1711l-24.07365,-16.84725c0,0 -3.52237,5.25697 -5.9511,3.44374c-2.42872,-1.81323 0.16358,-7.76462 0.16358,-7.76462l22.66374,-23.41459c0,0 1.97389,-4.16194 4.91149,0.06148c2.9376,4.22343 3.89164,12.59487 3.89164,12.59487z" fill="#ffffff"/><path d="M222.72313,267.11306l-38.9218,-21.17366c0,0 2.68161,-12.96565 3.90442,-14.20874c1.22281,-1.24309 13.47621,-2.50468 13.47621,-2.50468l25.87475,24.49752z" fill="#ffffff"/></g><path d="M243.1147,190.39873c0,0 9.96277,-0.58381 16.3639,1.35378c5.97096,1.80739 15.33807,8.2423 15.33807,8.2423" fill="none" stroke="#000000" stroke-width="0.5" stroke-linecap="round"/><path d="M292.03616,206.13268c0,0 11.36205,0.23197 17.26718,2.24409c6.33055,2.1571 14.08515,8.4391 14.08515,8.4391" data-paper-data="{&quot;index&quot;:null}" fill="none" stroke="#000000" stroke-width="0.5" stroke-linecap="round"/><g data-paper-data="{&quot;index&quot;:null,&quot;origRot&quot;:0}" stroke="#000000"><g><path d="M250.45086,158.98265l-13.22709,43.0946c0,0 -5.39961,1.06888 -8.13577,-0.03357c-1.34892,-0.54351 -2.92531,-3.79568 -2.92531,-3.79568l15.64764,-31.37949l-14.70628,29.72535c0,0 -5.04919,1.91427 -6.69078,0.5794c-2.24342,-1.82431 8.19195,-13.93293 7.58128,-15.92075c-0.39706,-1.29245 -8.67422,14.41493 -8.67422,14.41493c0,0 -3.8658,-1.12368 -6.17153,-4.26931c-1.28076,-1.7473 -8.76529,-9.61692 -8.53992,-11.7716c1.5425,-14.74809 32.98116,-23.14909 32.98116,-23.14909z" data-paper-data="{&quot;index&quot;:null,&quot;origRot&quot;:0}" fill="#ffffff" stroke-width="0.025" stroke-linecap="round"/><g data-paper-data="{&quot;origRot&quot;:0}" fill="#8ceeff" stroke-width="0.015" stroke-linecap="butt"><path d="M237.20642,120.06224c3.86304,-1.73015 6.80706,5.56065 8.60187,9.56811c1.79482,4.00746 -4.75205,14.6072 -8.61509,16.33737c-3.86304,1.73015 -6.58093,-7.85948 -6.31112,-12.16375c0.27467,-4.38243 2.46128,-12.01154 6.32434,-13.7417z" data-paper-data="{&quot;origRot&quot;:0}"/><path d="M227.07847,136.12001c4.04224,1.50326 11.69894,7.88476 8.54779,10.71088c-3.15115,2.82611 -15.49692,4.4987 -18.42867,1.22979c-2.93179,-3.26893 -8.39623,-8.92254 -5.24505,-11.74865c3.15115,-2.82611 11.01032,-1.72257 15.12596,-0.19202z" data-paper-data="{&quot;origRot&quot;:0,&quot;index&quot;:null}"/><path d="M238.18374,142.06343c2.09632,-0.80099 7.63938,1.82717 8.52558,4.1465c0.88619,2.31931 -3.9279,3.5369 -6.02422,4.33786c-2.09632,0.80099 -3.80627,-0.51524 -4.69248,-2.83455c-0.88619,-2.31931 0.09481,-4.84883 2.19113,-5.64981z" data-paper-data="{&quot;origRot&quot;:0}"/><path d="M236.8281,147.05215c1.75878,1.7525 2.26622,3.84987 0.68223,5.43954c-1.584,1.58967 -4.65339,5.49307 -6.41217,3.74057c-1.75878,-1.7525 -1.90666,-7.88525 -0.32266,-9.47492c1.584,-1.58967 4.29385,-1.45768 6.05262,0.29481z" data-paper-data="{&quot;origRot&quot;:0,&quot;index&quot;:null}"/></g><path d="M256.82855,152.89205c14.61553,2.39998 25.76336,8.61092 24.89938,13.8725c-0.864,5.26157 -13.41263,7.58139 -28.02817,5.1814c-14.61553,-2.39998 -25.7634,-8.61093 -24.89938,-13.8725c0.864,-5.26157 13.41263,-7.58139 28.02817,-5.1814z" data-paper-data="{&quot;origRot&quot;:0}" fill="#ffffff" stroke-width="0.5" stroke-linecap="butt"/><path d="M238.57576,155.60097c0,0 4.56608,-42.39218 7.61779,-51.17495c1.53796,-4.4262 14.16469,-2.69272 21.54783,-1.15217c9.4378,1.96931 22.77672,5.15128 21.55365,10.14566c-4.87633,19.91207 -17.66379,49.47102 -17.66379,49.47102z" data-paper-data="{&quot;origRot&quot;:0}" fill="#ffffff" stroke-width="0.5" stroke-linecap="butt"/><path d="M289.11082,112.25185c0,0 -15.75496,2.08685 -24.71887,0.22994c-7.39205,-1.5313 -17.19121,-8.91173 -17.19121,-8.91173" fill="none" stroke-width="0.5" stroke-linecap="round"/><path d="M267.72971,164.41164c1.78094,-0.226 3.39119,0.90329 3.59666,2.52234c0.20546,1.61905 -1.07172,3.11474 -2.85268,3.34073c-1.78094,0.226 -3.39119,-0.90329 -3.59666,-2.52234c-0.20546,-1.61905 1.07174,-3.11473 2.85268,-3.34073z" fill="#fff08d" stroke-width="0.5" stroke-linecap="butt"/><path d="M256.83926,161.92128c2.02378,-0.25682 3.85592,1.04438 4.09214,2.90623c0.23625,1.86188 -1.21279,3.5794 -3.23658,3.83625c-2.02378,0.25682 -3.85594,-1.0444 -4.09217,-2.90627c-0.23625,-1.86188 1.21279,-3.5794 3.2366,-3.83621z" fill="#8ceeff" stroke-width="0.5" stroke-linecap="butt"/><path d="M243.41984,159.45395c2.18571,-0.27735 4.1657,1.13841 4.42253,3.16219c0.25682,2.02378 -1.30685,3.88921 -3.49252,4.16657c-2.18571,0.27735 -4.16572,-1.13841 -4.42253,-3.16223c-0.25682,-2.02378 1.30688,-3.88919 3.49256,-4.16656z" fill="#ff8c8c" stroke-width="0.5" stroke-linecap="butt"/></g><path d="M272.4842,160.16139l-33.26171,-7.61045l1.12944,-6.2188l34.56039,7.76541z" fill="#ff8c8c" stroke-width="0.5" stroke-linecap="round"/></g><path d="M283.49832,260.81616c-1.68465,6.97926 -8.27292,11.37644 -14.71531,9.82138c-6.44239,-1.55506 -10.29931,-8.47349 -8.61466,-15.45276c1.68465,-6.97926 8.27292,-11.37644 14.71531,-9.82138c6.44239,1.55506 10.29931,8.47349 8.61466,15.45276z" fill="#ffa6a6" stroke="#000000" stroke-width="0.5" stroke-linecap="butt"/></g></g></svg>