<svg version="1.1" xmlns="http://www.w3.org/2000/svg" xmlns:xlink="http://www.w3.org/1999/xlink" width="293.03835" height="347.29928" viewBox="0,0,293.03835,347.29928"><g transform="translate(-68.25,-38.53568)"><g data-paper-data="{&quot;isPaintingLayer&quot;:true}" fill-rule="nonzero" stroke-linecap="butt" stroke-linejoin="miter" stroke-miterlimit="10" stroke-dasharray="" stroke-dashoffset="0" style="mix-blend-mode: normal"><g stroke-width="1"><path d="M345.33096,150.20805c2.50444,-3.99291 7.6907,-5.25037 11.58382,-2.80852c3.89311,2.44184 5.01885,7.65829 2.5144,11.65121c-2.50444,3.99291 -7.69071,5.25034 -11.58382,2.80849c-3.89311,-2.44184 -5.01884,-7.65829 -2.5144,-11.65119z" data-paper-data="{&quot;origPos&quot;:null}" fill="#ffd4a0" stroke="#e7c091"/><path d="M360.61545,161.91731c0,0 -21.33071,37.95779 -33.48197,57.46008c-7.44841,11.95443 -48.86986,16.98456 -70.03732,4.65731c-21.16746,-12.32725 -6.5275,-24.95776 -6.5275,-24.95776c0,0 47.70359,19.05353 59.20622,1.66626c11.13818,-16.83636 32.88516,-49.70892 32.88516,-49.70892z" data-paper-data="{&quot;origRot&quot;:0,&quot;origPos&quot;:null}" fill="#e80000" stroke="#740000"/></g><path d="M221.20187,179.8733v-10.66789h26.02963v10.66789z" fill="#ffd5a1" stroke="#525252" stroke-width="1"/><path d="M246.08358,171.09486l0.19243,7.79307c0,0 -22.25675,0.35983 -22.25675,0.06415c0,-2.19628 -2.8905,-11.09631 -1.02625,-11.09631c4.1066,0.14509 23.09058,3.23909 23.09058,3.23909z" fill="#e7c091" stroke="none" stroke-width="0"/><path d="M282.69205,366.9285l-50.21547,-62.5624l21.74155,-17.45077l50.21547,62.5624z" fill="#4d87ff" stroke="#0046d1" stroke-width="1"/><path d="M170.26656,350.99632l49.47669,-63.14828l21.94516,17.19404l-49.47669,63.14828z" data-paper-data="{&quot;index&quot;:null}" fill="#4d87ff" stroke="#0046d1" stroke-width="1"/><path d="M201.01849,306.94765v-126.61524h69.80692v126.61528z" fill="#e80000" stroke="#740000" stroke-width="1"/><path d="M193.9913,379.61528c-9.19342,12.68496 -19.0071,1.02476 -25.35713,-3.95049c-6.35004,-4.97526 -8.73378,-13.79932 -4.86413,-18.73825c3.86962,-4.93889 8.34226,-8.88583 14.6923,-3.91057c6.35004,4.97526 22.86307,16.4798 15.52899,26.5993z" data-paper-data="{&quot;index&quot;:null}" fill="#c58d3b" stroke="#1c1100" stroke-width="1"/><path d="M167.28917,379.59767z" fill="#c58d3b" stroke="#784800" stroke-width="1"/><path d="M316.52757,350.769c10.25687,11.84162 -3.33254,18.74069 -9.62364,23.79023c-6.29112,5.04955 -15.4262,5.36026 -19.35363,0.46715c-3.9274,-4.89307 -6.75156,-10.1473 -0.46043,-15.19685c6.29112,-5.04955 21.25523,-18.50727 29.43767,-9.06054z" fill="#c58d3b" stroke="#1c1100" stroke-width="1"/><path d="M264.87115,197.8915v-18.97833h8.5343v18.97837z" fill="#e80000" stroke="none" stroke-width="0"/><g><path d="M284.48668,170.47294c-35.54705,20.38118 -79.90235,9.80206 -99.07037,-23.62909c-19.168,-33.43115 -5.89019,-77.05466 29.65686,-97.43584c35.54705,-20.38118 79.90235,-9.80206 99.07037,23.62909c19.168,33.43115 5.89019,77.05466 -29.65686,97.43583z" data-paper-data="{&quot;index&quot;:null}" fill="#e7c091" stroke="#525252" stroke-width="1"/><path d="M316.33074,81.01762c10.18096,20.0144 7.59432,36.44857 -2.09616,56.70498c-6.6362,13.87189 -13.06881,19.97257 -25.71217,28.72552c-22.01118,15.23824 -62.34331,5.58361 -81.95084,-12.31589c-18.4408,-16.83439 -25.17491,-26.89814 -1.95078,-40.21387c0,0 6.30284,-7.82898 2.76159,3.81772c-1.47101,4.83803 16.91505,-15.73792 30.48753,-20.56193c0,0 4.94377,-4.16302 1.72465,7.05821c-3.52166,12.27579 14.4626,-17.13633 24.4891,-19.8822c0,0 -8.04284,6.0636 2.06377,10.24178c0,0 17.95879,-11.47876 22.71304,-16.20105c6.51902,-6.4752 11.83766,-20.33483 11.83766,-20.33483c0,0 7.39158,6.76307 11.06248,12.7497c2.01683,3.28913 1.58661,4.34663 4.57012,10.21187z" data-paper-data="{&quot;index&quot;:null}" fill="#ffd5a1" stroke="none" stroke-width="0"/><path d="M215.28214,50.18999c15.42421,-8.84359 25.21609,-11.13393 42.99513,-10.98801c12.04917,0.09891 20.45718,1.20829 31.81128,5.24279c5.02746,1.78648 9.55253,8.44269 9.55253,8.44269c2.85765,7.0197 -26.94135,33.80796 -26.94135,33.80796c-6.07287,2.73906 7.51504,-29.39631 2.82305,-21.84851c-4.69196,7.54779 -28.21021,29.25194 -28.21021,29.25194c-9.74879,5.76739 13.23797,-33.72641 1.3375,-22.94821c-11.90052,10.77818 -34.39155,39.8299 -34.39155,39.8299c-8.28084,4.7479 9.9128,-29.23326 1.49149,-24.73929c-9.00834,4.80719 -10.27706,9.30488 -16.14735,18.8109c-4.14516,6.71241 -16.26635,32.29712 -20.19042,25.45312c-7.08807,-12.36238 -2.48664,-28.29251 2.19656,-41.75118c5.26266,-15.12387 19.78147,-30.59908 33.6734,-38.56413z" data-paper-data="{&quot;index&quot;:null}" fill="#ffef4d" stroke="#716a22" stroke-width="1"/><path d="M277.06083,105.86966c5.9864,10.44094 9.01627,19.95024 6.76748,21.2396c-2.24881,1.28938 -8.92477,-6.12944 -14.91115,-16.57036c-5.98639,-10.44094 -9.01628,-19.95023 -6.76747,-21.2396c2.24881,-1.28938 8.92477,6.12943 14.91116,16.57035z" data-paper-data="{&quot;index&quot;:null}" fill="#000000" stroke="#1c1c1c" stroke-width="1"/><path d="M289.30659,99.62142c5.9864,10.44094 9.01628,19.95025 6.76746,21.23963c-2.24881,1.28938 -8.92477,-6.12943 -14.91117,-16.57038c-5.98639,-10.44094 -9.01632,-19.95021 -6.76747,-21.2396c2.24881,-1.28938 8.92479,6.12942 14.91118,16.57034z" data-paper-data="{&quot;index&quot;:null}" fill="#000000" stroke="#1c1c1c" stroke-width="1"/></g><g stroke-width="1"><path d="M310.12017,168.95336c3.67672,-2.94913 8.98831,-2.43383 11.86372,1.151c2.87541,3.58482 2.2258,8.88166 -1.45094,11.8308c-3.67672,2.94913 -8.98831,2.43381 -11.86372,-1.15103c-2.87541,-3.58482 -2.22579,-8.88166 1.45094,-11.83078z" data-paper-data="{&quot;origPos&quot;:null}" fill="#ffd4a0" stroke="#e7c091"/><path d="M320.71215,185.0323c0,0 -32.61212,28.84861 -50.49356,43.27936c-10.96087,8.84571 -51.7372,-0.00467 -67.683,-18.59913c-15.94579,-18.59446 2.02984,-25.71726 2.02984,-25.71726c0,0 38.80176,33.66144 55.37603,21.01544c16.04912,-12.24532 47.38459,-36.15397 47.38459,-36.15397z" data-paper-data="{&quot;origRot&quot;:0,&quot;origPos&quot;:null}" fill="#e80000" stroke="#740000"/></g><path d="M203.76712,199.23361v-19.42735h8.53431v19.42735z" fill="#e80000" stroke="none" stroke-width="0"/><path d="M288.75,143.69329c0,8.56041 -8.50659,15.5 -19,15.5c-10.49341,0 -19,-6.93959 -19,-15.5c0,-8.56041 8.50659,-15.5 19,-15.5c10.49341,0 19,6.93959 19,15.5z" fill="none" stroke="#000000" stroke-width="1"/><path d="M68.25,152.19328v0v0z" fill="none" stroke="#000000" stroke-width="1"/></g></g></svg>