<svg xmlns="http://www.w3.org/2000/svg" xmlns:xlink="http://www.w3.org/1999/xlink" version="1.1" width="218.55683" height="402.62136" viewBox="0,0,218.55683,402.62136"><g><g data-paper-data="{&quot;isPaintingLayer&quot;:true}" fill-rule="nonzero" stroke-linejoin="miter" stroke-miterlimit="10" stroke-dasharray="" stroke-dashoffset="0" style="mix-blend-mode: normal"><g><g><path d="M 123.3486 200.5234 C 123.3486 200.5234 147.6206 195.5789 156.5056 204.5608 C 162.9238 207.1193 176.0653 233.0363 176.0653 233.0363 " data-paper-data="{&quot;index&quot;:null}" fill="none" stroke-linecap="round" stroke-width="4" stroke="#000000"/><g data-paper-data="{&quot;index&quot;:null}"><path d="M 180.8997 243.2196 C 177.1587 245.0397 172.8673 244.0019 171.3145 240.9015 C 169.7618 237.8011 171.5357 233.8122 175.2767 231.992 C 179.0177 230.1719 183.3092 231.2097 184.8619 234.3101 C 186.4147 237.4105 184.6407 241.3994 180.8997 243.2195 Z " fill="#000000" stroke-linecap="butt" stroke-width="4" stroke="#000000"/><path d="M 184.0458 235.1727 L 189.7101 239.4026 C 189.7101 239.4026 189.2127 242.0665 188.3116 241.3435 C 187.1794 240.4351 181.5351 237.6354 181.5351 237.6354 " fill="none" stroke-linecap="round" stroke-width="4" stroke="#000000"/><path d="M 180.9606 238.2479 L 184.7092 245.7329 C 184.7092 245.7329 184.4306 248.2453 183.5295 247.5223 C 182.3972 246.6139 178.4499 240.7105 178.4499 240.7105 " fill="none" stroke-linecap="round" stroke-width="4" stroke="#000000"/><path d="M 175.0114 241.43 L 177.2291 249.9755 C 177.2291 249.9755 177.3879 252.185 176.4868 251.4619 C 175.3546 250.5535 172.5008 243.8927 172.5008 243.8927 " fill="none" stroke-linecap="round" stroke-width="4" stroke="#000000"/><path d="M 171.4294 238.359 L 168.567 246.6042 C 168.567 246.6042 167.9183 247.8892 167.2025 246.9854 C 166.303 245.8498 169.4596 239.4678 169.4596 239.4678 " fill="none" stroke-linecap="round" stroke-width="4" stroke="#000000"/></g></g><path d="M 100.8999 260.6319 C 100.8999 260.6319 99.2462 225.4801 105.7154 214.478 C 114.7099 207.6625 109.9233 189.1722 109.9233 189.1722 " data-paper-data="{&quot;index&quot;:null}" fill="none" stroke="#000000" stroke-linecap="round" stroke-width="4"/><path d="M 150.5444 303.1405 C 150.5444 303.1405 138.4583 334.7563 127.9511 354.3737 C 118.6972 371.6512 110.6752 394.5974 108.2806 396.8158 C 104.4624 400.3554 94.8123 393.1028 94.8123 393.1028 " data-paper-data="{&quot;origRot&quot;:0,&quot;index&quot;:null}" fill="none" stroke="#000000" stroke-linecap="round" stroke-width="4"/><path d="M 109.5588 300.8186 C 109.5588 300.8186 97.9939 316.0899 87.7128 334.4996 C 77.658 352.5043 68.9034 373.6314 67.0416 375.8185 C 63.6716 379.7799 57.7096 369.0823 57.7096 369.0823 " data-paper-data="{&quot;origRot&quot;:0,&quot;index&quot;:null}" fill="none" stroke="#000000" stroke-linecap="round" stroke-width="4"/><path d="M 126.2854 184.6637 C 135.8866 183.978 144.8955 190.5957 151.6934 201.8389 C 151.9079 202.1934 152.0286 203.3349 152.2397 203.6914 C 152.8729 204.7608 159.6959 218.5896 161.8232 229.488 C 163.1281 236.1735 163.5523 239.9935 163.8416 246.7773 C 164.601 264.5981 161.3915 281.0261 155.5887 293.1717 C 149.7885 305.3155 141.3969 313.1752 131.7957 313.8609 C 122.1947 314.5468 113.1857 307.93 106.3877 296.6869 C 99.5878 285.4411 94.9989 269.57 94.2404 251.7483 C 93.4802 233.9275 96.6905 217.4994 102.4924 205.3539 C 108.2926 193.2101 116.6843 185.3497 126.2853 184.6638 Z " data-paper-data="{&quot;origRot&quot;:0,&quot;index&quot;:null}" fill="#080064" stroke="#000000" stroke-linecap="butt" stroke-width="4"/><g data-paper-data="{&quot;origRot&quot;:0,&quot;index&quot;:null}" stroke-linecap="round"><path d="M 143.2859 181.2614 L 131.5065 246.196 L 103.0381 185.8772 Z " fill="#ffffff" stroke-width="4" stroke="#000000"/><path d="M 129.9696 268.6285 L 124.5099 253.0542 L 125.7879 202.6648 L 120.7273 189.415 L 133.9556 188.8606 L 128.7575 202.5403 L 134.4221 256.1506 Z " fill="#ac0000" stroke-width="4" stroke="#000000"/><path d="M 112.6779 209.0498 L 110.2513 190.1314 L 124.959 200.1017 Z " fill="#ffffff" stroke-width="4" stroke="#000000"/><path d="M 128.1822 200.7261 L 139.6734 191.6355 L 141.3919 208.606 Z " fill="#ffffff" stroke-width="4" stroke="#000000"/></g><path d="M 45.7853 357.0208 C 49.7758 356.6463 54.431 357.595 58.8023 359.9542 C 63.1735 362.3135 66.4394 365.64 68.1838 369.1096 C 69.9281 372.5791 70.1529 376.1913 68.4417 379.12 C 66.7305 382.0485 63.0988 384.031 59.4138 384.1186 C 44.4719 379.7801 40.9314 376.7619 37.0153 372.0298 C 35.0095 369.2242 35.0416 364.9556 36.7572 362.0195 C 38.4729 359.0833 41.7947 357.3953 45.7852 357.0208 Z " data-paper-data="{&quot;origRot&quot;:0,&quot;index&quot;:null}" fill="#000000" stroke="none" stroke-linecap="round" stroke-width="4"/><path d="M 87.0864 375.944 C 91.0019 375.5066 95.6299 376.3716 100.0395 378.6418 C 104.4491 380.9121 107.8116 384.1607 109.6813 387.5765 C 111.551 390.9922 111.9297 394.5747 110.371 397.5102 C 108.8123 400.4459 105.3204 402.4738 101.6934 402.6214 C 86.7826 398.5602 83.1627 395.6222 79.0984 390.9888 C 77.0002 388.2364 76.846 383.9983 78.4086 381.0552 C 79.9713 378.112 83.1707 376.3815 87.0863 375.944 Z " data-paper-data="{&quot;origRot&quot;:0,&quot;index&quot;:null}" fill="#000000" stroke="none" stroke-linecap="round" stroke-width="4"/><path d="M 145.526 195.7209 C 145.526 195.7209 168.9325 187.7166 178.9372 195.4863 C 185.6412 197.2027 202.1204 221.2188 202.1204 221.2188 " data-paper-data="{&quot;index&quot;:null}" fill="none" stroke="#000000" stroke-linecap="round" stroke-width="4"/><path d="M 174.9178 82.1597 C 188.6246 96.0525 196.4577 114.2388 195.1562 133.4119 C 193.8553 152.5842 183.6635 169.1462 168.2484 180.418 C 152.8332 191.6863 132.1966 197.6636 110.006 195.666 C 87.8154 193.6674 68.236 184.0705 54.5292 170.1786 C 40.8223 156.2849 32.9891 138.0996 34.2899 118.9272 C 35.5916 99.7548 45.7834 83.1912 61.1986 71.9212 C 76.6136 60.6512 97.2496 54.6747 119.441 56.6724 C 141.6306 58.6711 161.211 68.2686 174.9179 82.1597 Z " data-paper-data="{&quot;origRot&quot;:0,&quot;index&quot;:null}" fill="#ffa200" stroke="#000000" stroke-linecap="butt" stroke-width="4"/><path d="M 195.209 128.0771 C 194.4149 128.4229 195.2531 128.848 195.209 128.0771 C 195.0323 124.999 195.2765 121.8634 194.6785 118.833 C 194.0449 115.6208 193.1164 112.3962 191.5341 109.4607 C 189.6815 106.0277 187.0559 102.9389 184.4693 99.9007 C 179.8933 94.5253 174.9299 89.3875 170.0493 84.2229 C 167.7093 81.7465 165.5366 79.0898 162.7902 76.9583 C 158.1228 73.3341 152.8934 70.277 147.8852 67.0196 C 144.6088 64.8883 141.5547 62.4024 137.9157 60.7761 C 134.7342 59.3535 131.2207 58.3452 127.6554 57.9763 C 124.1687 57.6154 120.5619 57.9995 117.1037 58.6201 C 112.082 59.5211 107.0241 60.6512 102.3407 62.5172 C 98.3391 64.1112 95.2013 67.1138 91.3033 68.8992 C 86.075 71.2968 80.1713 72.4713 75.0398 75.0295 C 70.9742 77.057 67.5301 79.9584 63.9061 82.5597 C 61.0131 84.6366 58.1887 86.8063 55.4829 89.068 C 52.5427 91.526 49.9028 94.2667 46.9626 96.7245 C 44.2566 98.9862 41.8805 101.7785 38.5395 103.232 C 35.2926 104.6461 31.48 105.1973 27.8906 105.024 C 24.3022 104.8507 20.6139 103.9373 17.6305 102.2242 C 14.5613 100.4602 12.6841 97.457 10.3715 94.9588 C 7.4758 91.8301 3.539 89.1478 2 85.3356 C 0.8412 82.4666 2.089 79.1661 2.7765 76.1529 C 3.4864 73.0465 4.3236 69.8383 6.1662 67.0973 C 8.4017 63.7729 12.239 61.444 14.7836 58.2934 C 17.6285 54.7692 18.2112 49.5499 22.2887 47.1303 C 25.2059 45.3999 29.2614 47.4674 32.7423 47.6346 C 37.5298 47.8657 42.3944 47.6597 47.1177 48.3285 C 50.6589 48.8301 54.5112 49.2707 57.378 51.1283 C 61.8041 53.9966 68.8773 59.1512 68.2665 62.0259 C 67.786 64.2849 59.4383 62.2308 55.1978 61.3952 C 51.5769 60.6816 48.4186 58.7626 45.0347 57.4481 C 41.65 56.1335 37.5309 55.747 34.8708 53.5 C 31.9338 51.02 29.3207 47.6047 29.1137 44.0025 C 28.9259 40.7399 31.324 37.4884 33.8102 35.0092 C 36.314 32.5134 40.1742 31.3858 43.4427 29.7121 C 47.0273 27.8761 50.4321 25.5576 54.3822 24.4773 C 57.7591 23.5537 61.5378 23.0861 64.9339 23.8335 C 72.9275 25.5941 81.3005 27.553 87.8741 31.855 C 92.5877 34.9399 97.9108 41.927 97.2606 44.9856 C 96.8214 47.0593 89.347 43.5406 85.6937 42.1227 C 82.5002 40.8815 78.4781 39.8368 76.9347 37.0898 C 75.4039 34.3643 77.1226 30.9359 77.7109 27.9079 C 78.6758 22.9298 78.5329 17.4266 81.5865 13.1125 C 83.4572 10.4679 87.9789 10.4026 91.1211 8.9626 C 94.799 7.278 98.1493 4.9181 102.0622 3.7281 C 105.8853 2.5653 109.9951 2.0136 114.0169 2 C 117.5345 1.9882 121.2642 2.2622 124.3741 3.6525 C 128.2322 5.3773 131.9567 7.8245 134.2467 11.0434 C 140.2988 19.5479 145.6497 28.6441 149.0036 38.2618 C 150.0273 41.1977 149.8494 45.6232 146.9205 47.3815 C 143.9917 49.1391 139.4135 47.488 136.5632 45.729 C 133.5199 43.8522 131.8407 40.4999 130.7079 37.3795 C 129.6474 34.4555 129.3731 31.152 130.1777 28.1345 C 131.3459 23.7534 133.8564 19.6519 136.4724 15.7608 C 138.3949 12.9007 140.2582 9.4412 143.6858 8.0419 C 146.8741 6.7396 150.6586 8.3782 154.1403 8.5464 C 161.1029 8.8817 168.4682 7.6213 175.0494 9.5551 C 178.5399 10.579 180.4154 14.0602 182.3077 16.8195 C 185.9051 22.0626 188.4513 27.8405 191.4037 33.393 C 194.1076 38.4769 196.7498 43.606 199.2903 48.7553 C 201.5989 53.4355 204.704 57.9145 205.9672 62.9071 C 206.7187 65.8841 205.8781 69.0765 205.191 72.0889 C 204.4811 75.1953 203.8118 78.4952 201.8011 81.1454 C 199.7308 83.8722 196.8795 86.5403 193.3779 87.6537 C 190.0751 88.7035 185.7526 88.8946 182.9233 87.1493 C 179.5871 85.0912 177.3723 81.2538 177.1653 77.6516 C 176.9774 74.3897 178.279 67.8177 181.8618 68.6592 C 192.2214 71.0918 201.0072 77.8616 208.0439 84.904 C 210.3227 87.1851 207.5257 91.0283 207.2676 94.0857 C 206.4275 104.024 208.133 114.3743 204.7449 123.9286 C 203.6938 126.8915 198.3839 126.6964 195.1114 129.2255 Z " data-paper-data="{&quot;origRot&quot;:0,&quot;index&quot;:null}" fill="#000000" stroke="#000000" stroke-linecap="round" stroke-width="4"/><g data-paper-data="{&quot;index&quot;:null}"><path d="M 208.269 230.6971 C 204.8023 232.9798 200.4093 232.4993 198.4571 229.6238 C 196.5049 226.7484 197.7327 222.5669 201.1995 220.2842 C 204.6662 218.0014 209.0591 218.482 211.0114 221.3575 C 212.9636 224.2329 211.7358 228.4144 208.269 230.6971 Z " fill="#000000" stroke-linecap="butt" stroke-width="4" stroke="#000000"/><path d="M 210.3171 222.3169 L 216.496 225.7868 C 216.496 225.7868 216.3575 228.4915 215.3678 227.8898 C 214.1244 227.1339 208.1556 225.0793 208.1556 225.0793 " fill="none" stroke-linecap="round" stroke-width="4" stroke="#000000"/><path d="M 207.6675 225.7601 L 212.3805 232.7021 C 212.3805 232.7021 212.4387 235.2287 211.449 234.627 C 210.2055 233.8711 205.5061 228.5226 205.5061 228.5226 " fill="none" stroke-linecap="round" stroke-width="4" stroke="#000000"/><path d="M 202.1928 229.6755 L 205.5291 237.8645 C 205.5291 237.8645 205.9806 240.0348 204.991 239.4331 C 203.7475 238.6772 200.0314 232.438 200.0314 232.438 " fill="none" stroke-linecap="round" stroke-width="4" stroke="#000000"/><path d="M 198.2326 227.0884 L 196.4922 235.629 C 196.4922 235.629 196.0201 236.9859 195.1901 236.1813 C 194.1471 235.1704 196.4272 228.4394 196.4272 228.4394 " fill="none" stroke-linecap="round" stroke-width="4" stroke="#000000"/></g><g><g><path d="M 105.8955 90.8702 C 109.3489 90.7065 113.6146 97.0682 115.2601 101.4895 C 118.6738 110.6469 119.5737 120.3971 119.7676 129.7674 C 120.4102 138.2836 120.1859 146.9242 117.7505 154.7439 C 116.3457 159.2474 112.8717 166.0386 109.4183 166.2023 C 105.9649 166.3661 102.6384 162.2936 100.0537 155.583 C 97.4699 148.8712 95.6266 139.5213 95.1407 129.1297 C 94.6547 118.7383 95.6172 109.2552 97.5633 102.3286 C 99.5104 95.4032 102.442 91.0339 105.8956 90.8703 Z " data-paper-data="{&quot;origRot&quot;:0,&quot;index&quot;:null}" fill="#ffffff" stroke="#000000" stroke-linecap="butt" stroke-width="4"/><path d="M 69.726 93.2023 C 73.1793 93.0385 77.4451 99.4002 79.0905 103.8216 C 82.5042 112.9789 83.4042 122.7292 83.598 132.0994 C 84.2406 140.6156 84.0164 149.2563 81.581 157.0759 C 80.1761 161.5794 76.7021 168.3706 73.2488 168.5344 C 69.7954 168.6981 66.4689 164.6256 63.8841 157.915 C 61.3003 151.2032 59.4571 141.8533 58.9712 131.4617 C 58.4852 121.0703 59.4477 111.5872 61.3938 104.6606 C 63.3408 97.7352 66.2724 93.366 69.726 93.2023 Z " data-paper-data="{&quot;origRot&quot;:0,&quot;index&quot;:null}" fill="#ffffff" stroke="#000000" stroke-linecap="butt" stroke-width="4"/><path d="M 50.2899 90.5841 C 50.2899 90.5841 60.3772 80.1269 64.9892 79.4022 C 70.2495 78.5756 80.1634 85.8899 80.1634 85.8899 " fill="none" stroke="#000000" stroke-linecap="round" stroke-width="4"/><path d="M 90.8254 85.3193 C 90.8254 85.3193 100.2434 77.3498 105.5458 77.8184 C 110.1946 78.2291 120.9375 87.9803 120.9375 87.9803 " data-paper-data="{&quot;index&quot;:null}" fill="none" stroke="#000000" stroke-linecap="round" stroke-width="4"/><path d="M 64.2638 174.6616 L 50.6951 159.9354 L 127.5199 157.3314 L 128.012 172.5008 Z " fill="#ffa200" stroke="none" stroke-linecap="butt" stroke-width="4"/><path d="M 83.3866 158.8273 L 60.5026 159.603 " fill="none" stroke="#000000" stroke-linecap="round" stroke-width="4"/><path d="M 93.194 158.4949 L 124.2508 157.4422 " fill="none" stroke="#000000" stroke-linecap="round" stroke-width="4"/></g><path d="M 124.4091 111.8785 L 125.1746 135.4754 " fill="none" stroke="#000000" stroke-linecap="round" stroke-width="4"/><path d="M 52.5426 116.0018 L 51.5096 134.5976 " fill="none" stroke="#000000" stroke-linecap="round" stroke-width="4"/></g><path d="M 143.6558 180.1995 C 143.6717 182.9604 141.7841 185.4483 138.7808 187.154 C 136.248 188.5924 132.9003 185.7884 129.2531 185.8087 C 126.4961 185.824 124.0579 189.1772 122.0187 188.5246 C 118.1617 187.2904 115.8083 184.9123 115.7891 181.5831 C 115.7596 176.4937 121.1957 171.109 129.1678 171.0647 C 137.1398 171.0204 143.6263 175.1102 143.6558 180.1995 Z " fill="#750000" stroke="#000000" stroke-linecap="butt" stroke-width="4"/></g></g></g></svg>