<svg version="1.1" xmlns="http://www.w3.org/2000/svg" xmlns:xlink="http://www.w3.org/1999/xlink" width="354.75326" height="405.4819" viewBox="0,0,354.75326,405.4819"><defs><linearGradient x1="280.8323" y1="128.5673" x2="336.63624" y2="176.00582" gradientUnits="userSpaceOnUse" id="color-1"><stop offset="0" stop-color="#fde6d9"/><stop offset="1" stop-color="#f7d9c8"/></linearGradient><linearGradient x1="88.45663" y1="-30.50729" x2="483.10471" y2="304.98015" gradientUnits="userSpaceOnUse" id="color-2"><stop offset="0" stop-color="#000000"/><stop offset="1" stop-color="#000000" stop-opacity="0"/></linearGradient><linearGradient x1="324.19719" y1="172.2565" x2="340.40745" y2="180.29643" gradientUnits="userSpaceOnUse" id="color-3"><stop offset="0" stop-color="#f7dac9"/><stop offset="1" stop-color="#fde6d9"/></linearGradient><linearGradient x1="250.82891" y1="59.92262" x2="251.23886" y2="95.81142" gradientUnits="userSpaceOnUse" id="color-4"><stop offset="0" stop-color="#d2a991"/><stop offset="1" stop-color="#fde6d9"/></linearGradient><linearGradient x1="253.30529" y1="13.07077" x2="262.35845" y2="84.71423" gradientUnits="userSpaceOnUse" id="color-5"><stop offset="0" stop-color="#f7d9c8"/><stop offset="1" stop-color="#fde6d9"/></linearGradient><linearGradient x1="59.12851" y1="-1648.49075" x2="439.10401" y2="1358.50085" gradientUnits="userSpaceOnUse" id="color-6"><stop offset="0" stop-color="#2a221e"/><stop offset="1" stop-color="#2a221e" stop-opacity="0"/></linearGradient><radialGradient cx="242.12219" cy="67.03308" r="7.94614" gradientUnits="userSpaceOnUse" id="color-7"><stop offset="0" stop-color="#fbe2d4"/><stop offset="1" stop-color="#f6d8c8"/></radialGradient><radialGradient cx="284.36044" cy="70.43013" r="9.34604" gradientUnits="userSpaceOnUse" id="color-8"><stop offset="0" stop-color="#ffffff"/><stop offset="1" stop-color="#e7e7e7"/></radialGradient><linearGradient x1="269.58068" y1="133.78402" x2="336.85142" y2="162.75202" gradientUnits="userSpaceOnUse" id="color-9"><stop offset="0" stop-color="#fde6d9"/><stop offset="1" stop-color="#f7d9c8"/></linearGradient><linearGradient x1="38.98499" y1="38.18725" x2="514.72665" y2="243.05014" gradientUnits="userSpaceOnUse" id="color-10"><stop offset="0" stop-color="#000000"/><stop offset="1" stop-color="#000000" stop-opacity="0"/></linearGradient><linearGradient x1="423.37556" y1="115.54237" x2="429.20915" y2="124.12314" gradientUnits="userSpaceOnUse" id="color-11"><stop offset="0" stop-color="#bbdaff" stop-opacity="0"/><stop offset="1" stop-color="#bbdaff"/></linearGradient><linearGradient x1="432.41054" y1="130.79332" x2="425.73076" y2="120.96788" gradientUnits="userSpaceOnUse" id="color-12"><stop offset="0" stop-color="#bbdaff" stop-opacity="0"/><stop offset="1" stop-color="#bbdaff"/></linearGradient><linearGradient x1="423.34306" y1="111.56748" x2="434.01347" y2="126.56824" gradientUnits="userSpaceOnUse" id="color-13"><stop offset="0" stop-color="#005eff"/><stop offset="1" stop-color="#005eff" stop-opacity="0"/></linearGradient><linearGradient x1="423.34306" y1="111.56748" x2="434.01347" y2="126.56824" gradientUnits="userSpaceOnUse" id="color-14"><stop offset="0" stop-color="#00f7ff" stop-opacity="0"/><stop offset="1" stop-color="#00f7ff"/></linearGradient><linearGradient x1="333.79123" y1="186.79771" x2="341.88548" y2="176.46081" gradientUnits="userSpaceOnUse" id="color-15"><stop offset="0" stop-color="#f7dac9"/><stop offset="1" stop-color="#fde6d9"/></linearGradient><linearGradient x1="339.21705" y1="192.6898" x2="345.99095" y2="187.92519" gradientUnits="userSpaceOnUse" id="color-16"><stop offset="0" stop-color="#f7dac9"/><stop offset="1" stop-color="#fde6d9"/></linearGradient><linearGradient x1="327.96837" y1="162.45137" x2="338.56712" y2="177.11694" gradientUnits="userSpaceOnUse" id="color-17"><stop offset="0" stop-color="#f7dac9"/><stop offset="1" stop-color="#fde6d9"/></linearGradient><linearGradient x1="-42759.50696" y1="64008.66685" x2="90008.74355" y2="-132686.91554" gradientUnits="userSpaceOnUse" id="color-18"><stop offset="0" stop-color="#000000"/><stop offset="1" stop-color="#000000" stop-opacity="0"/></linearGradient></defs><g transform="translate(-141.28115,-8.64469)"><g data-paper-data="{&quot;isPaintingLayer&quot;:true}" fill-rule="nonzero" stroke-linejoin="miter" stroke-miterlimit="10" stroke-dasharray="" stroke-dashoffset="0" style="mix-blend-mode: normal"><g stroke="none" stroke-width="0" stroke-linecap="butt"><path d="M325.69516,180.77405l-6.84968,-5.82288l8.42933,-9.91577l6.42523,6.00363c0,0 1.05041,2.25559 -0.43016,3.99727c-0.97983,1.1526 -7.57467,5.73772 -7.57467,5.73772z" data-paper-data="{&quot;origPos&quot;:null}" fill="#000000"/><path d="M315.04223,152.16826c7.58594,8.47803 14.36957,14.31504 18.24647,22.68376c2.07511,4.47944 0.00336,6.76294 -4.67233,5.15376c-8.97624,-3.08925 -17.51546,-11.55449 -25.20522,-18.74378c-6.89517,-6.44643 -10.45989,-5.73263 -23.6971,-19.30252c-8.77347,-8.4809 8.74718,-24.62739 16.9554,-15.60608c8.20821,9.02128 10.78683,17.33682 18.37276,25.81484z" data-paper-data="{&quot;origPos&quot;:null}" fill="url(#color-1)"/><g data-paper-data="{&quot;origPos&quot;:null}"><path d="M324.68353,179.03621l-5.85261,-4.03762l8.31403,-10.09874l7.18598,6.98209c0,0 -3.87719,-0.42339 -6.13926,1.67625z" data-paper-data="{&quot;origPos&quot;:null}" fill="url(#color-2)"/><path d="M322.09954,177.93724c0,0 -31.64629,-23.41921 -41.02514,-34.44282c-5.7184,-6.72123 -6.74463,-9.38537 -0.50026,-15.29845c5.74707,-5.77132 11.31118,-5.78019 16.20168,-2.33399c4.8905,3.44621 36.91608,45.86238 36.91608,45.86238c0,0 -4.46478,-3.19588 -7.04155,-0.84894c-2.73495,2.49108 -4.55081,7.06178 -4.55081,7.06178z" data-paper-data="{&quot;origPos&quot;:null,&quot;origRot&quot;:0}" fill="#1e4994"/></g></g><g data-paper-data="{&quot;origRot&quot;:0}" stroke="none" stroke-width="0" stroke-linecap="butt"><path d="M274.90426,84.74588c7.70165,6.38695 6.41645,9.50588 10.82339,18.50326c10.49337,21.42372 9.85124,20.77855 11.81981,28.87796c2.39343,9.84744 -16.73488,15.09312 -21.2062,5.94908c-2.46745,-5.04603 -10.09692,-15.72674 -12.5434,-20.78263c-8.37472,-17.30726 -7.86566,-32.14589 -3.39784,-38.10567c4.71096,-6.28411 10.56505,2.29127 14.50427,5.55802z" data-paper-data="{&quot;origPos&quot;:null,&quot;origRot&quot;:0}" fill="#2152a6"/><path d="M258.87057,80.78526c3.91357,4.62846 8.75432,9.71599 10.89098,14.12969c7.38273,15.25061 14.51415,30.61626 21.60872,45.9989c-5.378,2.35497 -12.73266,1.8332 -15.29057,-3.39783c-2.46745,-5.04603 -10.09692,-15.72674 -12.54339,-20.78265c-7.49755,-15.49449 -7.87484,-29.01044 -4.66577,-35.94817z" data-paper-data="{&quot;origPos&quot;:null,&quot;origRot&quot;:0}" fill="#000000"/></g><g stroke="none" stroke-width="0" stroke-linecap="butt"><g data-paper-data="{&quot;origPos&quot;:null,&quot;origRot&quot;:0}" fill="#fde6d9"><path d="M338.12265,176.06375c-1.02325,-0.15425 -0.15393,-2.58479 -0.15393,-2.58479c0.45074,-1.1213 0.81309,-1.99992 1.94599,-1.57913c1.17793,0.43748 3.05799,1.21636 4.26718,1.70243c2.66659,1.0719 4.02221,2.31842 3.44338,3.75841c-0.57882,1.43996 -1.85673,1.62788 -4.52333,0.55598c-2.66659,-1.0719 -2.88004,-1.53645 -4.97933,-1.85288z" data-paper-data="{&quot;origPos&quot;:null}"/><path d="M344.9538,178.36849c-0.71779,-0.41749 0.05115,-1.93029 0.05115,-1.93029c0.33132,-0.8242 0.49255,-1.93035 1.40275,-1.64218c1.01607,0.3217 3.02492,1.52446 4.01379,1.92195c2.16217,0.86912 4.81841,2.02431 4.386,3.00626c-0.75087,1.70519 -3.26766,1.7618 -5.42982,0.89267c-2.16217,-0.86912 -3.30466,-1.59747 -4.42388,-2.24844z" data-paper-data="{&quot;origPos&quot;:null}"/></g><g data-paper-data="{&quot;origPos&quot;:null,&quot;origRot&quot;:0}" fill="#ead0c0"><path d="M333.10775,184.31308c-0.37653,-0.78621 0.76855,-1.64574 0.76855,-1.64574c1.20358,-1.29252 7.02488,-6.99792 6.97757,-5.3397c-0.06878,2.41113 -0.04801,6.97543 1.32653,8.18252c0.79258,0.69607 1.15902,1.75045 1.97025,2.42605c1.34971,1.12407 1.80651,2.33732 0.50817,3.76289c-1.44852,1.59047 -1.73188,0.95764 -3.49394,0.21023c-0.56978,-0.24169 -2.52555,-1.67291 -2.98211,-2.07384c-3.33641,-2.93007 -3.96957,-3.21412 -5.07501,-5.5224z" data-paper-data="{&quot;origRot&quot;:0,&quot;origPos&quot;:null}"/><path d="M343.42791,192.70184c-0.70459,-0.03496 -1.13768,-1.33378 -1.13768,-1.33378c-0.76353,-1.53336 -1.90772,-2.91828 0.26247,-3.28938c1.63586,-0.27972 2.8956,-0.9279 4.14993,-1.51915c0.4539,-0.21394 1.57784,-0.95804 2.00442,-1.22647c1.27162,-0.80011 2.16681,0.07963 2.81606,1.68285c0.51134,1.26267 0.42501,2.5283 -2.61964,3.96347c-3.04465,1.43517 -3.40689,1.82512 -5.47554,1.72247z" data-paper-data="{&quot;origRot&quot;:0,&quot;origPos&quot;:null}"/><path d="M349.5879,190.3965c-0.61221,0.18334 -1.59948,-0.81011 -1.59948,-0.81011c-1.37873,-1.0964 -1.2315,-1.55327 -0.84447,-2.53006c0.44601,-1.12562 1.58279,-2.01171 2.92518,-3.27141c1.3424,-1.25967 3.20501,-0.85738 3.72294,-0.14984c0.48416,0.66137 1.40776,1.25163 -0.47894,3.41763c-1.8867,2.16601 -1.92788,2.80545 -3.72527,3.34378z" data-paper-data="{&quot;origRot&quot;:0,&quot;origPos&quot;:null}"/></g><g data-paper-data="{&quot;origPos&quot;:null,&quot;origRot&quot;:0}" fill="#efd6c8"><path d="M332.02116,183.0501c-0.50926,-0.82262 0.56839,-1.76617 0.56839,-1.76617c1.07633,-1.40413 7.38751,-5.85309 7.57822,-4.09415c0.27723,2.55754 -0.0654,5.63102 1.55273,6.87138c0.93307,0.71522 1.47066,1.8224 2.42032,2.51544c1.58008,1.15308 2.23554,2.42604 1.07898,3.97387c-1.29033,1.72691 -1.67959,1.06419 -3.63798,0.32206c-0.63325,-0.23996 -2.8942,-1.70139 -3.43166,-2.11338c-3.92776,-3.01081 -4.63375,-3.2939 -6.12897,-5.70906z" data-paper-data="{&quot;origRot&quot;:0,&quot;origPos&quot;:null}"/><path d="M342.82255,191.36765c-0.72512,-0.28848 -0.60547,-1.70619 -0.60547,-1.70619c-0.12388,-1.76483 -0.71357,-3.52301 1.73174,-3.09936c1.84322,0.31935 3.4542,0.145 5.03425,0.02401c0.57174,-0.04379 2.08245,-0.36031 2.64958,-0.46682c1.6907,-0.31758 2.24226,0.8601 2.2151,2.65147c-0.02141,1.41085 -0.67227,2.60868 -4.50762,2.90238c-3.83534,0.29372 -4.3887,0.54151 -6.51757,-0.3055z" data-paper-data="{&quot;origRot&quot;:0,&quot;origPos&quot;:null}"/><path d="M352.10937,191.01521c-0.61783,0.35456 -1.73415,-0.51096 -1.73415,-0.51096c-1.53187,-0.88427 -1.42169,-1.42978 -1.11125,-2.61376c0.35776,-1.36439 1.4542,-2.63114 2.72906,-4.36485c1.27488,-1.73371 3.66454,-2.35346 4.26753,-1.69162c0.56365,0.61862 1.15583,1.66173 -0.59915,4.53943c-1.75496,2.87769 -1.73816,3.60073 -3.55208,4.64177z" data-paper-data="{&quot;origRot&quot;:0,&quot;origPos&quot;:null}"/></g><g data-paper-data="{&quot;origPos&quot;:null,&quot;origRot&quot;:0}" fill="#f6ded1"><path d="M332.30763,182.49285c-0.465,-0.84844 0.6611,-1.73362 0.6611,-1.73362c1.14918,-1.3452 7.68708,-5.45367 7.78436,-3.68712c0.14143,2.56862 -0.36349,5.61965 1.18671,6.94397c0.89389,0.76363 1.3721,1.89771 2.28371,2.64004c1.51681,1.23512 2.10392,2.541 0.86703,4.02545c-1.37996,1.65616 -1.73358,0.97374 -3.6499,0.12898c-0.61968,-0.27317 -2.80005,-1.85225 -3.31496,-2.29214c-3.76281,-3.21459 -4.45281,-3.53465 -5.81805,-6.02561z" data-paper-data="{&quot;origRot&quot;:0,&quot;origPos&quot;:null}"/><path d="M342.60759,191.36711c-0.6622,-0.41293 -0.29218,-1.78669 -0.29218,-1.78669c0.19215,-1.75872 -0.07524,-3.59376 2.25565,-2.7417c1.75697,0.64225 3.37326,0.75742 4.94961,0.91951c0.57041,0.05863 2.11336,0.01603 2.69039,0.01213c1.72022,-0.0116 2.05339,1.24537 1.70788,3.00331c-0.27211,1.38455 -1.12574,2.4474 -4.95215,2.05388c-3.82641,-0.39349 -4.41503,-0.24811 -6.35921,-1.46045z" data-paper-data="{&quot;origRot&quot;:0,&quot;origPos&quot;:null}"/><path d="M352.42747,192.47485c-0.69075,0.17398 -1.53091,-0.96157 -1.53091,-0.96157c-1.23509,-1.26615 -0.98131,-1.76138 -0.36179,-2.81704c0.71395,-1.2165 2.11248,-2.13892 3.80931,-3.46252c1.6968,-1.32362 4.39264,-1.48263 4.79385,-0.68225c0.37502,0.74819 0.4349,2.1224 -2.03388,4.41718c-2.46881,2.29481 -2.64847,2.99538 -4.67653,3.50616z" data-paper-data="{&quot;origRot&quot;:0,&quot;origPos&quot;:null}"/></g><g data-paper-data="{&quot;origPos&quot;:null,&quot;origRot&quot;:0}" fill="#fde6d9"><path d="M334.11636,185.79217c-0.71924,-0.64711 0.05113,-1.85468 0.05113,-1.85468c0.64014,-1.64936 5.45318,-7.68744 6.12873,-6.05228c1.53233,3.70902 4.64782,7.32009 6.44241,7.89891c1.83973,0.66454 2.09664,1.77362 1.41974,3.58339c-0.75519,2.01912 -1.38865,1.92879 -3.32946,1.32804c-0.64693,-0.20023 -2.59892,-0.89373 -3.23027,-1.13879c-4.61363,-1.79063 -5.37067,-1.86472 -7.48233,-3.7646z" data-paper-data="{&quot;origRot&quot;:0,&quot;origPos&quot;:null}"/><path d="M343.67164,190.09687c-0.67556,-0.39068 -0.35145,-1.77597 -0.35145,-1.77597c0.13352,-1.76413 -0.19475,-3.58927 2.16319,-2.81525c1.77735,0.58343 3.39658,0.64476 4.97748,0.75433c0.57205,0.03964 2.11271,-0.05429 2.68929,-0.0774c1.71891,-0.06886 2.0937,1.17638 1.80687,2.94483c-0.2259,1.39283 -1.04368,2.48349 -4.88106,2.21753c-3.83738,-0.26598 -4.42083,-0.10108 -6.40426,-1.24808z" data-paper-data="{&quot;origRot&quot;:0,&quot;origPos&quot;:null}"/><path d="M351.67727,190.73204c-0.67966,-0.21329 -0.80122,-1.62061 -0.80122,-1.62061c-0.38972,-1.72531 0.08573,-2.01449 1.16613,-2.58974c1.24506,-0.66289 2.91952,-0.71692 5.05811,-0.95668c2.1386,-0.23974 5.10442,1.09761 5.02736,1.98959c-0.07202,0.8338 -1.32573,1.97417 -4.63044,2.63742c-3.30472,0.66324 -3.82448,1.16617 -5.81991,0.53996z" data-paper-data="{&quot;origRot&quot;:0,&quot;origPos&quot;:null}"/></g><path d="M333.18303,185.29176c-5.39038,-5.11315 -10.84617,-9.90369 -9.79137,-12.03036c0.78395,-1.58061 2.03855,-6.72019 5.59742,-4.82752c3.04002,1.61673 11.38721,3.10416 14.47183,4.63406c0,0 -5.54885,16.70963 -10.27788,12.22383z" data-paper-data="{&quot;origRot&quot;:0,&quot;origPos&quot;:null}" fill="url(#color-3)"/></g><path d="M330.55428,227.25899c7.0081,-0.13452 10.26867,1.2155 17.0386,1.75565c5.379,0.42917 10.2318,1.24213 15.61938,1.50548c10.37508,0.50717 14.11187,-0.84717 28.94558,0.77956c1.61332,0.17693 19.1578,-1.62799 32.5723,-1.3107c4.50536,-0.69998 -1.27321,22.03365 -1.27321,22.03365c0,0 -24.1533,3.52592 -40.67926,7.34225c-7.16723,1.65514 -22.74952,1.841 -31.37082,1.33444c-9.74245,-0.57238 -16.49088,-2.57462 -22.926,-10.3757c-5.0982,-6.1804 -7.84932,-8.7592 -7.24901,-15.43713c0.60031,-6.67794 2.3143,-7.49296 9.32238,-7.62749z" fill="#252525" stroke="none" stroke-width="0" stroke-linecap="butt"/><path d="M238.81876,231.17797c0,0 9.66021,-5.08123 13.38068,-5.38814c14.41863,-1.18955 51.05616,-0.54661 66.46682,0.75608c0.80437,0.06798 9.76848,0.11342 10.57027,0.21567c8.48987,1.08265 8.94492,16.74272 9.4502,21.53103c0.73659,6.98031 -2.34612,9.84533 -2.34612,9.84533c0,0 -7.75474,-1.73925 -14.55285,-0.71315c-7.86841,1.18766 -13.35269,1.50199 -21.23953,2.55431c-12.44386,1.66035 -17.5254,1.44768 -29.74022,4.40729c-11.58095,2.80604 -18.3643,5.20522 -30.25349,6.50726c-3.69093,0.40422 -3.72358,-9.98761 -2.25826,-19.93865z" data-paper-data="{&quot;origRot&quot;:0}" fill="#0f0f0f" stroke="none" stroke-width="0" stroke-linecap="butt"/><path d="M419.90803,252.62189c0,0 -2.93961,-16.88716 0.0175,-20.31966c2.25446,-2.61687 11.32038,-1.90573 13.35996,-5.81842c2.03956,-3.91267 3.62449,-20.32175 10.7997,-20.8614c6.23949,-0.46928 10.31748,-0.1597 10.3435,4.17914c0.0256,4.26692 2.39847,39.31867 1.88492,40.78055c-6.09019,3.28765 -19.68868,2.38935 -25.04116,-0.08266z" data-paper-data="{&quot;origRot&quot;:0}" fill="#000000" stroke="none" stroke-width="0" stroke-linecap="butt"/><path d="M246.09039,321.66394c-4.83381,5.07599 -8.0869,6.44401 -13.23275,10.87616c-4.08861,3.52154 -8.07988,6.39907 -12.05665,10.04333c-7.65826,7.01789 -9.32403,10.62664 -20.91425,20.02623c-1.26056,1.0223 -12.31827,14.76251 -21.97948,24.07439c-2.67149,3.69476 -14.76599,-16.40331 -14.76599,-16.40331c0,0 14.48303,-19.64831 23.39462,-34.07935c3.86491,-6.25869 14.69327,-17.46533 21.11749,-23.23706c7.25961,-6.52234 13.42963,-9.91078 23.50104,-8.99762c7.97909,0.72344 11.74719,0.58185 16.07164,5.70576c4.32442,5.12392 3.69813,6.91551 -1.13567,11.9915z" fill="#252525" stroke="none" stroke-width="0" stroke-linecap="butt"/><path d="M277.13259,230.15852c0,0 1.20711,10.8481 0.13566,14.42415c-4.15224,13.85896 -18.11595,47.73724 -24.95055,61.6107c-0.35673,0.72415 -3.66907,9.05395 -4.05676,9.76317c-4.1051,7.50987 -18.85199,2.22091 -23.49466,0.94461c-6.768,-1.86054 -8.31101,-5.77595 -8.31101,-5.77595c0,0 4.44828,-6.58588 5.97279,-13.28984c1.76451,-7.75944 3.47247,-12.98045 5.36973,-20.70767c2.9935,-12.19202 5.04521,-16.84579 6.74544,-29.29853c1.61198,-11.8065 1.85263,-18.99762 4.97741,-30.54248c0.97007,-3.58403 10.65769,0.17644 19.38846,5.17083z" data-paper-data="{&quot;origRot&quot;:0}" fill="#0f0f0f" stroke="none" stroke-width="0" stroke-linecap="butt"/><path d="M177.54713,365.4533c0,0 3.87461,16.69746 1.11305,20.28916c-2.10537,2.73826 -11.19682,2.53261 -13.01555,6.55271c-1.81871,4.02006 -2.48825,20.49193 -9.62232,21.42995c-6.20371,0.81571 -10.29262,0.73347 -10.55998,-3.59717c-0.26295,-4.25889 -4.58232,-39.12432 -4.15091,-40.61252c5.89784,-3.62139 19.52524,-3.48108 25.00697,-1.31069z" data-paper-data="{&quot;origRot&quot;:0}" fill="#000000" stroke="none" stroke-width="0" stroke-linecap="butt"/><g stroke-linecap="butt"><g data-paper-data="{&quot;origPos&quot;:null,&quot;index&quot;:null}" stroke="none"><path d="M268.6911,83.80604c0.19141,1.23204 1.25573,2.27648 2.6537,3.21271c0.30242,1.17468 0.70005,2.00791 0.70005,2.00791l0.23138,0.26829c0.01256,0.0389 0.0253,0.07776 0.03812,0.11661c-0.14573,2.57414 0.03888,5.14143 0.33297,7.78039c-16.67607,5.52365 -39.62302,1.46997 -43.16577,0.15816c-3.57814,-1.32492 3.34218,-11.02981 3.94441,-15.03403c0.60224,-4.00422 -0.1002,-4.97046 6.28377,-8.22525c6.38397,-3.25479 4.51678,-0.67169 11.18231,-0.67961c6.66553,-0.00788 12.6781,1.16422 14.42065,2.18188c1.74255,1.01765 2.47691,2.41003 3.37838,8.21293z" data-paper-data="{&quot;origPos&quot;:null}" fill="#000000" stroke-width="0"/><g data-paper-data="{&quot;origPos&quot;:null}"><path d="M269.70935,98.40196c-14.22605,5.73162 -33.96208,1.81581 -37.42582,0.31918c-3.46371,-1.49661 2.85819,-11.02922 3.37201,-15.03334c0.51381,-4.00413 -1.52744,-4.1415 3.84958,-7.07295c5.37699,-2.93143 5.2063,-0.99734 10.96583,-1.00415c5.75952,-0.00684 10.42225,1.05525 12.14655,2.12623c1.6453,1.02192 2.28265,2.18086 2.74475,4.31359c0.26168,1.20782 0.35674,1.90195 0.52143,3.1332c0.33559,2.50906 3.75567,4.24802 6.38032,5.87703c-0.01129,1.97922 0.14472,3.96433 0.36774,5.99095c-0.77479,0.42524 -1.73975,0.87373 -2.9224,1.35021z" data-paper-data="{&quot;origPos&quot;:null}" fill="#09162e" stroke-width="0"/><g data-paper-data="{&quot;origPos&quot;:null}" fill="none" stroke-width="1" font-family="sans-serif" font-weight="normal" font-size="12" text-anchor="start"/></g></g><g data-paper-data="{&quot;origPos&quot;:null,&quot;index&quot;:null}"><path d="M284.02375,167.32482c-0.31032,22.96185 -2.12571,43.99977 -2.12571,43.99977c-0.82339,7.10159 -5.96638,13.88869 -10.21225,12.69789c-3.60131,-1.01004 -8.85997,-5.67191 -8.85997,-5.67191c0,0 0.75946,-37.08414 0.70371,-65.64486c-0.03256,-16.67624 -4.1456,-29.99922 -4.22636,-46.67565c-0.04284,-8.84216 5.08808,-12.76914 11.3057,-15.61947c1.86656,2.59465 3.61735,5.2758 5.42024,7.91741c2.03386,2.98003 4.62081,6.9831 7.6032,10.93383c0.28929,1.3538 0.46793,2.83589 0.47605,4.51333c0,0 0.17964,33.99889 -0.0846,53.54969z" data-paper-data="{&quot;origPos&quot;:null}" fill="#255dbc" stroke="#000000" stroke-width="0"/><path d="M261.42139,135.4271c0,0 -1.39941,-9.83654 -1.90997,-16.13246c-0.36346,-4.48184 -0.32965,-11.48422 -0.32965,-11.48422l23.4675,0.41586c0,0 2.45338,5.01565 2.67581,8.22605c0.41676,6.015 0.70814,9.77601 -0.30017,15.65748c-1.40108,8.17258 -0.65572,20.67405 -0.65572,20.67405l-4.0494,-11.00572z" data-paper-data="{&quot;origPos&quot;:null}" fill="#09162e" stroke="none" stroke-width="0"/><path d="M266.85714,108.63707l-0.97811,-15.61192c0,0 2.30303,-1.72256 4.5086,-2.92098c1.94987,2.68959 3.76755,5.47805 5.64147,8.22376c1.96795,2.88345 4.45374,6.7247 7.31448,10.54956c0.04857,0.26021 0.07068,0.40699 0.07068,0.40699z" data-paper-data="{&quot;origPos&quot;:null}" fill="#09162e" stroke="none" stroke-width="0"/><path d="M265.43058,132.14226c-1.09625,0.34041 -1.36275,-1.09935 -1.36275,-1.09935l-0.60915,-1.14577c-0.38966,-1.92436 -0.86382,-3.85784 -0.70249,-5.87475c0.11109,-1.38886 0.55551,-2.46601 0.86413,-3.36367c0.04558,-0.1326 0.36441,0.19545 0.33107,0.05606c-0.4333,-1.81161 -1.95578,-1.9829 -2.36803,-4.44285c-0.05005,-0.29863 0.1958,-0.82298 0.5271,-1.32601l-0.38698,-0.122c-0.14368,-0.041 -0.27745,-0.11784 -0.39541,-0.22305c-0.28528,-0.23361 -0.60946,-0.6893 -0.47753,-1.5175c0.00551,-0.03688 0.01209,-0.0733 0.01966,-0.10916c0.16356,-0.81291 0.60578,-1.02549 0.93877,-1.06384c0.0432,-0.00711 0.08721,-0.01101 0.13181,-0.01153l1.20325,-0.01374l0.00399,0.34899l0.2746,0.08657l-0.01738,0.09713c0.12339,0.06863 0.24665,0.1454 0.37648,0.23441l0.04701,-0.08445l1.20617,1.15958c0.28302,0.26599 0.46976,0.69844 0.47534,1.18859c0.00804,0.70405 -0.36023,1.29754 -0.86087,1.45278l-1.17593,0.4005c-0.08926,0.1163 0.28177,-0.10269 0.40075,-0.03867c0.03104,-0.04472 0.07029,-0.07426 0.12198,-0.08163c0.98694,-0.14052 1.82342,3.51477 1.8802,3.98399c0.18285,1.51094 -0.70503,2.24403 -1.0886,3.46488c-0.15104,0.48072 0.62118,3.91965 0.85142,5.05665l0.62112,1.20751c0,0 0.26647,1.4398 -0.82976,1.78022zM263.6164,117.57208c0.01769,-0.02628 0.03298,-0.05618 0.04643,-0.08876c-0.06545,0.11746 -0.10362,0.17365 -0.04643,0.08876z" data-paper-data="{&quot;origPos&quot;:null}" fill="#ffffff" stroke="none" stroke-width="0.5"/><path d="M259.07597,108.67638l0.25946,-0.98939l22.93922,-0.26202c0.22582,0.31162 0.45425,0.62391 0.68521,0.93643l0.00047,0.04218z" data-paper-data="{&quot;origPos&quot;:null}" fill="#ffffff" stroke="none" stroke-width="0"/><path d="M282.26616,107.80101l0.19766,-0.11567c0.35845,0.49202 0.72335,0.98544 1.09443,1.47818l1.50182,4.36402l0.28693,3.25524l-0.97212,-2.85418z" data-paper-data="{&quot;origPos&quot;:null,&quot;origRot&quot;:0}" fill="#ffffff" stroke="none" stroke-width="0"/></g><g data-paper-data="{&quot;origPos&quot;:null}" stroke="none" stroke-width="0"><path d="M237.09071,191.79565c6.46268,-12.68942 -8.16785,-44.06486 -7.41924,-72.2721c0.36456,-13.73576 0.41938,-22.82389 9.42637,-29.54965c9.00701,-6.72573 25.07888,0.49239 25.07888,0.49239c0,0 6.07465,5.76661 9.0962,9.46743c3.15601,3.8655 6.73301,9.92033 6.73301,9.92033c0,0 1.45955,13.55199 1.76501,17.76582c0.22197,3.06183 -0.35373,6.11125 -0.35373,6.11125l-1.25082,19.82307c0,0 1.23293,15.62499 0.596,28.92706c0,0 -0.65749,9.21519 -17.35892,10.58022c-20.29523,1.65874 -26.31277,-1.26577 -26.31277,-1.26577z" data-paper-data="{&quot;origPos&quot;:null}" fill="#b2bbc1"/><path d="M259.2579,228.34073c-12.15519,0.13884 -25.18702,1.93769 -25.33301,-10.84319c-0.14599,-12.78088 6.83149,-40.13009 18.98668,-40.26894c0,0 27.96148,-10.88378 28.58632,-1.43833c0,0 0.28477,18.99592 -0.03711,24.79997c-0.62631,11.29379 -2.6812,24.32873 -2.6812,24.32873z" data-paper-data="{&quot;origPos&quot;:null}" fill="#b2bbc1"/><path d="M256.85605,233.07884c-6.96595,0.07957 -11.52497,1.02622 -17.4132,-2.77651c-2.35904,-1.52352 -3.40338,-3.00696 -4.06894,-5.77387c-0.82275,-3.42053 -1.55258,-4.20222 -1.70056,-7.74403c-0.14798,-3.54179 1.1505,-5.42197 1.1505,-5.42197c0,0 10.55461,1.57965 18.00694,1.31726c11.36905,-0.40031 29.31689,-2.66466 29.31689,-2.66466l-2.73566,15.27717c0,0 -13.74263,7.68594 -22.556,7.7866z" data-paper-data="{&quot;origPos&quot;:null}" fill="#000000"/></g><path d="M238.2052,91.25969c0,0 1.68779,-2.03052 1.62042,-3.42115c-0.20215,-4.17188 -0.23171,-6.73515 -0.9955,-11.07033c-1.28853,-7.31359 -4.34259,-16.32906 -4.34259,-16.32906c0,0 2.74252,-2.29244 19.48321,4.83351c13.37063,5.69147 13.39643,11.36752 13.39643,11.36752c0,0 -5.53724,1.63759 -5.45556,8.78685c0.02723,2.38309 0.06041,5.28854 0.06041,5.28854l2.54511,3.14997c0,0 -2.62899,1.89341 -4.42843,1.84276c-5.3983,-0.15195 -12.1893,-1.52622 -19.67599,-2.97933c-1.17505,-0.22808 -2.2075,-1.46928 -2.2075,-1.46928z" data-paper-data="{&quot;origPos&quot;:null}" fill="url(#color-4)" stroke="none" stroke-width="0"/><g data-paper-data="{&quot;origPos&quot;:null,&quot;index&quot;:null,&quot;origRot&quot;:0}"><path d="M271.7951,166.55241c0.1857,24.52045 -0.61029,59.89754 -0.61029,59.89754c-1.20851,7.6194 -11.64288,2.27947 -19.0697,1.21722c-6.56466,-0.93896 -10.99324,-0.73732 -15.62361,-4.42624c-1.54346,-1.22963 -2.54368,-7.03087 -2.54368,-7.03087c0,0 4.27058,-21.57698 3.27075,-52.05467c-5.83115,-18.57802 -9.71524,-44.00967 -10.38294,-61.80307c-0.30904,-8.23567 3.53525,-12.56818 12.37345,-15.78822c5.40826,7.80509 17.64323,13.41795 28.74562,15.33092c1.25891,2.12767 2.18273,4.51309 2.29498,7.50419c0,0 1.38731,36.27531 1.54539,57.15317z" data-paper-data="{&quot;origPos&quot;:null}" fill="#255dbc" stroke="#000000" stroke-width="0"/><path d="M231.45133,133.62125c0,0 -2.74637,-10.42893 -3.83393,-17.12295c-0.77419,-4.76524 -0.9367,-12.23996 -0.9367,-12.23996l40.85436,-0.70923c0,0 4.42823,5.23222 4.91682,8.64748c0.9154,6.39881 1.54143,10.39831 -0.02745,16.72464c-2.18004,8.79076 -0.48769,22.09587 -0.48769,22.09587l-7.39519,-11.54649z" data-paper-data="{&quot;origPos&quot;:null}" fill="#09162e" stroke="none" stroke-width="0"/><path d="M240.06453,104.76346l-2.28101,-18.38061c0,0 17.60527,6.22625 29.98168,8.40326c0.78277,1.60362 1.13466,9.85476 1.13466,9.85476z" data-paper-data="{&quot;origPos&quot;:null}" fill="#09162e" stroke="none" stroke-width="0"/><path d="M235.91838,128.81229l-1.09636,-1.19287c-0.73893,-2.03453 -1.62528,-4.07467 -1.40825,-6.23509c0.14945,-1.48766 0.88884,-2.65905 1.39755,-3.63222c0.07515,-0.14377 0.64038,0.19065 0.57797,0.04355c-0.81134,-1.91207 -3.46642,-2.02008 -4.26158,-4.62513c-0.09653,-0.31624 0.31475,-0.88791 0.87542,-1.44106l-0.67733,-0.11119c-0.25139,-0.03666 -0.48654,-0.1121 -0.69518,-0.2186c-0.50387,-0.23529 -1.08243,-0.7057 -0.879,-1.59606c0.00846,-0.03964 0.0187,-0.07883 0.03076,-0.11744c0.25898,-0.87557 1.02184,-1.12419 1.60013,-1.18148c0.07499,-0.00972 0.1514,-0.01606 0.22906,-0.01876l2.09363,-0.07379l0.01797,0.37224l0.48065,0.07891l-0.02719,0.10453c0.21692,0.06719 0.43377,0.14306 0.66254,0.23167l0.07921,-0.09246l2.13574,1.17828c0.50098,0.26999 0.8396,0.7223 0.86481,1.24513c0.03627,0.75099 -0.58593,1.40244 -1.45224,1.59271l-2.03385,0.48519c-0.15165,0.12852 0.48714,-0.12345 0.69621,-0.06096c0.0526,-0.04926 0.12002,-0.08273 0.20972,-0.09312c1.71319,-0.19844 3.28442,3.66144 3.39807,4.15941c0.366,1.60351 -1.15603,2.42948 -1.78502,3.75123c-0.24767,0.52045 1.20495,4.1526 1.64157,5.35472l1.11914,1.25818c0,0 0.50926,1.52348 -1.3878,1.94063c-1.89707,0.41719 -2.40633,-1.10629 -2.40633,-1.10629zM234.70691,114.45828c0.02997,-0.02892 0.05562,-0.06158 0.07803,-0.09701c-0.11018,0.12856 -0.17487,0.19041 -0.07803,0.09701z" data-paper-data="{&quot;origPos&quot;:null}" fill="#ffffff" stroke="none" stroke-width="0.5"/><path d="M226.52395,105.18776l0.42028,-1.06862l41.08704,-1.44809l0.05079,1.05201z" data-paper-data="{&quot;origPos&quot;:null}" fill="#ffffff" stroke="none" stroke-width="0"/><path d="M266.85484,103.11412l1.17982,-0.46166l3.8635,6.43582l0.60226,3.45992l-1.78206,-2.99827z" data-paper-data="{&quot;origPos&quot;:null,&quot;origRot&quot;:0}" fill="#ffffff" stroke="none" stroke-width="0"/></g></g><g><path d="M275.03728,14.88618c0.1989,-0.01459 0.39761,-0.0083 0.59625,0.02036c-0.07572,0.14058 -0.15031,0.28181 -0.22382,0.42364c-0.1224,-0.15072 -0.24648,-0.29873 -0.37241,-0.44401z" data-paper-data="{&quot;origPos&quot;:null}" fill="#453725" stroke="none" stroke-width="0" stroke-linecap="butt"/><g data-paper-data="{&quot;origPos&quot;:null,&quot;index&quot;:null}"><path d="M242.26856,69.69542c-3.28599,-0.78001 -5.07009,-5.91425 -7.4317,-10.28463c-1.33495,-2.47045 -1.26006,-2.92666 -1.19263,-4.92407c0.06744,-1.99743 0.38,-2.68027 1.45413,-2.82248c1.07412,-0.14218 2.67117,0.47532 4.09101,2.08834c1.41981,1.61307 2.66152,3.26641 2.20698,5.06664" data-paper-data="{&quot;origPos&quot;:null,&quot;origRot&quot;:0}" fill="#ffddd1" stroke="#e9c7ba" stroke-width="0.5" stroke-linecap="round"/><text transform="translate(243.57087,65.53846) rotate(165.39884) scale(0.2304,-0.41388) skewX(-14.03584)" font-size="40" xml:space="preserve" data-paper-data="{&quot;origRot&quot;:-1.7125,&quot;origPos&quot;:null,&quot;index&quot;:null}" fill="#e9c7ba" fill-rule="nonzero" stroke="none" stroke-width="1" stroke-linecap="butt" stroke-linejoin="miter" stroke-miterlimit="10" stroke-dasharray="" stroke-dashoffset="0" font-family="Handwriting" font-weight="normal" text-anchor="start" style="mix-blend-mode: normal"><tspan x="0" dy="0">3</tspan></text></g><path d="M244.15265,77.74829c0,0 -15.10407,-9.21097 -18.07132,-22.01964c-3.57261,-20.61579 2.68147,-34.08776 17.74911,-39.85968c15.06763,-5.77192 25.55971,-3.64128 33.06849,2.79928c15.91358,13.81825 10.51599,30.16618 10.51599,30.16618l1.31865,5.826c0,0 3.09628,4.03338 3.20215,5.39524c0.17848,2.29544 -5.09137,14.60243 -8.89536,19.76562c-1.268,1.72105 -1.21944,2.43072 -5.11412,2.9242c-4.99224,0.7185 -17.2812,-1.41435 -17.2812,-1.41435z" data-paper-data="{&quot;origPos&quot;:null,&quot;origRot&quot;:0}" fill="url(#color-5)" stroke="none" stroke-width="0" stroke-linecap="butt"/><path d="M277.86764,43.71579c4.77076,1.35543 7.31448,4.33493 7.31448,4.33493c0.50994,0.57504 0.32623,1.2106 -0.12297,1.25979c-0.44918,0.04922 -0.98997,-0.11009 -1.49991,-0.68514c-1.80275,-2.03284 -2.94838,-2.35035 -5.72671,-3.34591c-3.69921,-1.32553 -10.11344,-1.31612 -9.39736,-1.4597c1.54556,-0.30995 5.57098,-1.20107 9.4325,-0.10397z" data-paper-data="{&quot;origRot&quot;:0,&quot;index&quot;:null}" fill="#38301c" stroke="none" stroke-width="0" stroke-linecap="butt"/><path d="M291.70092,27.23712c-3.18072,3.0522 -2.58332,1.40674 -4.48994,5.37132c-3.93905,-5.04533 0.12066,-2.99683 -7.8123,-1.72686c-13.29606,2.12858 -24.23055,5.77395 -29.5036,9.99946c-1.20449,0.96521 -0.52842,6.35256 -0.52842,6.35256c0,0 -1.15906,-2.78044 -2.05228,-1.37256c-1.97528,3.11337 2.54903,16.03189 2.54903,16.03189l-3.72087,0.28115c0,0 -4.07449,-3.92256 -4.82133,-7.14578c-0.75132,-3.24253 -7.10951,2.41236 -5.29479,5.20673c3.63361,5.59517 5.8989,16.40175 5.8989,16.40175c0,0 -14.05327,-9.53049 -16.87263,-22.22807c-1.97098,-8.87669 -0.96977,-16.87455 2.88035,-25.12833c2.07097,-6.20231 5.42126,-17.51295 26.58647,-20.01438c19.71036,-2.32947 29.05317,1.8766 34.56837,12.86941z" data-paper-data="{&quot;origPos&quot;:null}" fill="#3d3021" stroke="none" stroke-width="0" stroke-linecap="butt"/><path d="M266.36509,30.75486c-9.86767,1.57973 -19.13431,6.10722 -24.33666,14.30694c-1.93134,3.0441 -1.49026,6.81779 -1.49026,6.81779c0,0 -1.04345,-5.87107 -3.74433,-8.16566c-1.56805,-1.68423 -2.88064,-0.23212 -4.85786,0.94515c-1.49101,0.88777 -4.22116,3.67496 -4.22116,3.67496c0,0 -1.24202,-8.77769 1.29684,-14.01016c1.42578,-6.94366 8.79434,-12.01404 8.79434,-12.01404c0,0 -0.5743,-7.81929 14.94501,-10.92758c12.15482,-1.43652 25.76739,-1.6116 29.5602,2.76307c-6.01411,0.44132 1.1829,15.45495 1.1829,15.45495l6.61338,-1.47254c0,0 -0.69902,3.17419 -0.92183,5.17748c-0.54526,4.90213 -1.0462,12.51678 -1.0462,12.51678c0,0 0.35633,-11.30631 -2.19899,-13.76235c-5.1376,-4.93806 -12.53895,-2.43118 -19.57531,-1.30475z" data-paper-data="{&quot;origPos&quot;:null}" fill="#453725" stroke="none" stroke-width="0" stroke-linecap="butt"/><g data-paper-data="{&quot;origPos&quot;:null}" stroke="none" stroke-width="0" stroke-linecap="butt"><path d="M254.04043,41.33367l-5.38625,-2.82967l6.69518,1.07524l-1.15182,-1.03442c0,0 3.14696,1.0361 7.33601,-0.59632c5.69624,-2.21975 13.29735,-7.87931 17.54453,-8.92429c5.85465,-1.4405 8.93224,6.4085 8.93224,6.4085c0,0 -0.73463,-0.19698 -1.21003,-0.29652c-1.39209,-0.2915 -2.24879,-0.57905 -3.5958,-0.13985c-6.68845,2.1806 -12.01551,9.40533 -18.95342,10.28202c-10.67451,1.34888 -17.333,-3.56639 -17.333,-3.56639z" data-paper-data="{&quot;origPos&quot;:null}" fill="url(#color-6)"/><path d="M252.02873,39.00495l-4.768,-2.33351l6.02073,-0.14249l-2.83502,-1.51364c0,0 4.8895,1.6242 9.11445,-0.51861c7.52642,-3.81719 0.60922,-12.82837 18.12288,-18.04938c8.88953,-2.65008 6.22911,8.85954 8.4004,15.16685c0.56452,1.63986 3.30519,2.68107 3.30519,2.68107l-3.57455,-1.12008c0,0 -0.5342,-0.81242 -2.29672,0.0322c-1.51451,0.72581 -2.99107,0.27843 -2.99107,0.27843c0,0 1.13403,0.02654 2.89934,-1.34793c1.16926,-0.87372 -0.0842,-1.35848 -0.16569,-0.9158c-9.7517,3.51206 -9.7714,12.02955 -18.06607,13.0777c-10.91833,1.37968 -17.59625,-3.53072 -17.59625,-3.53072z" data-paper-data="{&quot;origPos&quot;:null}" fill="#3b2f20"/></g><path d="M244.09766,58.65356c0.9205,4.41667 2.26632,8.48373 -1.58316,9.95183c-2.12456,0.81028 -6.2392,-2.45366 -7.24116,-7.26106c-1.00191,-4.80741 0.47781,-7.27316 3.47503,-8.07039c2.99723,-0.79725 4.34735,0.57223 5.34928,5.37964z" data-paper-data="{&quot;origRot&quot;:0,&quot;origPos&quot;:null,&quot;index&quot;:null}" fill="url(#color-7)" stroke="none" stroke-width="0" stroke-linecap="butt"/><g data-paper-data="{&quot;origPos&quot;:null}" stroke-linecap="butt"><g data-paper-data="{&quot;origPos&quot;:null}" stroke="none" stroke-width="0"><path d="M285.10895,54.95198c-0.81713,1.70866 -2.13633,3.66579 -6.10494,4.16728c-3.75495,0.47447 -7.43701,-1.16625 -8.01642,-3.97994c-0.15269,-0.69467 0.42558,-2.99641 1.90134,-3.93487c1.8304,-1.16395 5.32779,-2.77025 7.23588,-3.01137c3.9686,-0.50148 3.91781,1.43528 4.4744,2.64618c0,0 1.1816,2.70778 0.50972,4.11271z" data-paper-data="{&quot;origPos&quot;:null}" fill="#000000"/><path d="M285.16366,55.70144c-0.41366,1.47826 -1.63061,2.18633 -1.63061,2.18633c-1.56516,0.49227 -2.07037,0.44882 -3.68766,0.68318c-1.40057,0.20294 -3.60411,0.23388 -3.60411,0.23388c0,0 -1.91742,-0.88829 -2.76554,-1.56677c-0.87702,-0.70161 -1.84501,-2.33401 -1.84501,-2.33401c0,0 1.22739,-2.44153 2.31195,-3.32518c1.08453,-0.88367 4.87835,-2.85583 6.11315,-3.01185c3.64458,-0.46054 3.95198,1.04711 4.45475,2.09286c0,0 0.61497,1.33697 0.74272,2.32312c0.12715,0.9814 0.32403,1.24024 -0.08966,2.71849z" data-paper-data="{&quot;origPos&quot;:null}" fill="#ffffff"/></g><g data-paper-data="{&quot;origPos&quot;:null}" stroke="#000000" stroke-width="0"><path d="M284.76816,52.48753c0.37805,1.39905 0.27878,2.82696 -0.18764,4.00319c-0.46639,1.17625 -1.50462,1.7182 -2.59349,2.11161c-1.08885,0.39342 -2.0247,0.56463 -2.98734,-0.0953c-0.96264,-0.6599 -1.74744,-1.76842 -2.12556,-3.16746c-0.20333,-0.75243 -0.19404,-1.52259 -0.13839,-2.24806c3.35405,-2.02307 3.80088,-2.90417 7.89596,-1.04689c0.05002,0.14413 0.09561,0.29184 0.13641,0.44294z" data-paper-data="{&quot;origPos&quot;:null}" fill="#898151"/><path d="M282.69402,49.42647c0.96264,0.6599 1.7474,1.7684 2.12546,3.16751c0.08019,0.29668 0.06433,0.60412 0.10262,0.90071c-0.64561,-0.08042 -0.99212,-1.32138 -4.2503,-0.96504c-2.96514,0.32428 -3.50979,1.36692 -3.95867,1.68421c-0.07586,-0.98336 0.07042,-1.94005 0.39996,-2.77109c0.46639,-1.17625 1.29992,-2.10087 2.38881,-2.49427c1.08887,-0.39337 2.22942,-0.18193 3.19209,0.47799z" data-paper-data="{&quot;origPos&quot;:null}" fill="#4d461c"/></g><path d="M279.46047,59.01208c-1.18346,0.14955 -2.98086,0.47061 -2.98086,0.47061l-0.04867,-0.38523c0,0 1.80283,-0.52878 2.95511,-0.67439c1.49499,-0.18891 3.82825,-0.18279 3.82825,-0.18279l0.04867,0.38523c0,0 -2.33867,0.2016 -3.80251,0.38658z" data-paper-data="{&quot;origPos&quot;:null}" fill="#000000" stroke="none" stroke-width="0"/><path d="M274.39393,51.072l-1.25533,-0.03948c0,0 1.87834,-2.1598 6.75701,-3.01774c3.751,-0.32265 3.91068,1.22093 3.91068,1.22093c0,0 -2.40433,-0.55757 -3.53468,-0.45139c-1.0712,0.10065 -2.53998,0.71049 -3.5945,0.92457c-1.05453,0.21409 -2.28319,1.36311 -2.28319,1.36311z" data-paper-data="{&quot;origPos&quot;:null}" fill="#000000" stroke="#000000" stroke-width="0"/><g data-paper-data="{&quot;origPos&quot;:null}" stroke="none" stroke-width="1"><path d="M279.08347,50.88094c0.49023,-0.5539 1.16088,-0.86244 1.89493,-0.79418c0.73408,0.06823 1.39411,0.50053 1.86729,1.14405c0.47321,0.64354 0.75945,1.49824 0.74648,2.4106c-0.01302,0.91235 -0.32275,1.71165 -0.81293,2.26557c-0.4902,0.55389 -1.16083,0.86246 -1.89486,0.79417c-0.73403,-0.06824 -1.39416,-0.50054 -1.86733,-1.14406c-0.47321,-0.64354 -0.75942,-1.49821 -0.74646,-2.41055c0.01295,-0.91235 0.32272,-1.71167 0.81291,-2.26563z" data-paper-data="{&quot;origPos&quot;:null}" fill="#000000"/><path d="M281.67515,51.02338c0.13766,-0.24732 0.3549,-0.40166 0.61883,-0.40409c0.26388,-0.00252 0.52528,0.14726 0.73418,0.39138c0.20893,0.24406 0.36531,0.58254 0.41959,0.95684c0.05428,0.37428 -0.00359,0.71476 -0.14123,0.96215c-0.13766,0.24732 -0.3549,0.40163 -0.61881,0.40408c-0.26392,0.00247 -0.52523,-0.14726 -0.73416,-0.39137c-0.20887,-0.24403 -0.36531,-0.58248 -0.41961,-0.95682c-0.05428,-0.37428 0.00365,-0.71484 0.14127,-0.96227z" data-paper-data="{&quot;origPos&quot;:null,&quot;origRot&quot;:0}" fill="#ffffff"/><path d="M278.37263,54.25904c0.13417,-0.11469 0.31407,-0.18188 0.50764,-0.17434c0.19357,0.00753 0.36448,0.08843 0.48426,0.21303c0.11978,0.12462 0.18836,0.29295 0.17737,0.47541c-0.01093,0.18241 -0.09954,0.34467 -0.23375,0.45935c-0.13417,0.11469 -0.31401,0.18197 -0.50761,0.17437c-0.19355,-0.00751 -0.36441,-0.08838 -0.48417,-0.21302c-0.11976,-0.1246 -0.18837,-0.29299 -0.17738,-0.47545c0.01104,-0.18247 0.09956,-0.34461 0.23372,-0.45929z" data-paper-data="{&quot;origPos&quot;:null}" fill="#ffffff"/></g></g><path d="M286.6515,73.92566l-11.03387,0.38955c0,0 -0.97593,-2.92159 -0.37957,-4.20931c0.5418,-1.16985 3.80973,-3.19739 3.80973,-3.19739l11.48729,-0.15034z" fill="url(#color-8)" stroke="none" stroke-width="0" stroke-linecap="round"/><path d="M285.54373,70.4887l-7.38661,0.0197" fill="none" stroke="#000000" stroke-width="0.5" stroke-linecap="round"/></g><g stroke="none" stroke-width="0" stroke-linecap="butt"><path d="M327.79197,170.52185l-8.2572,-3.55571l5.14731,-11.95329l7.90448,3.85309c0,0 1.66625,1.84789 0.76215,3.94747c-0.59832,1.38945 -5.55674,7.70844 -5.55674,7.70844z" data-paper-data="{&quot;origPos&quot;:null}" fill="#000000"/><path d="M309.2114,146.30328c9.74041,5.87776 17.93859,9.46636 24.10126,16.32841c3.2986,3.67296 1.98841,6.46403 -2.95366,6.29825c-9.48762,-0.31826 -20.13554,-5.90396 -29.59689,-10.5193c-8.48372,-4.13844 -11.68183,-2.40968 -28.31921,-11.49611c-10.87645,-5.53191 1.1327,-26.11013 11.62743,-19.89568c10.49472,6.21444 15.40069,13.4067 25.14109,19.28447z" data-paper-data="{&quot;origPos&quot;:null}" fill="url(#color-9)"/><g data-paper-data="{&quot;origPos&quot;:null}"><path d="M326.31481,169.1575l-6.77998,-2.14175l4.98339,-12.09435l8.91893,4.56515c0,0 -3.83068,0.73339 -5.37678,3.40452z" data-paper-data="{&quot;origPos&quot;:null}" fill="url(#color-10)"/><path d="M323.52206,168.86546c0,0 -37.12668,-13.09805 -49.32823,-20.88295c-7.43944,-4.74657 -9.20249,-6.99208 -4.96892,-14.47767c3.79978,-7.20409 9.11617,-8.84584 14.80282,-6.98703c5.68664,1.85883 48.75226,33.00562 48.75226,33.00562c0,0 -5.20621,-1.7445 -6.98055,1.25546c-1.88324,3.18416 -2.27739,8.08653 -2.27739,8.08653z" data-paper-data="{&quot;origPos&quot;:null,&quot;origRot&quot;:0}" fill="#1e4994"/></g></g><g data-paper-data="{&quot;origRot&quot;:0}" stroke="none" stroke-width="0" stroke-linecap="butt"><path d="M247.89493,91.09557c9.33572,3.59905 9.11165,6.96492 16.15656,14.08837c16.77464,16.96169 15.96034,16.55483 20.40782,23.60435c5.40733,8.57094 -11.05128,19.63995 -18.20395,12.39803c-3.94711,-3.99637 -14.583,-11.68821 -18.51337,-15.70063c-13.45439,-13.73522 -17.70152,-27.96217 -15.36631,-35.03518c2.46229,-7.45791 10.7443,-1.19571 15.51934,0.6451z" data-paper-data="{&quot;origPos&quot;:null,&quot;origRot&quot;:0}" fill="#2152a6"/><path d="M231.43511,92.45206c5.18473,3.13966 11.39457,6.41889 14.8266,9.92139c11.85861,12.10204 23.51568,24.3932 35.14326,36.71222c-4.34689,3.94632 -11.48425,5.79597 -15.57608,1.65308c-3.94711,-3.99637 -14.58302,-11.68821 -18.51337,-15.70063c-12.04517,-12.2966 -16.71081,-24.98732 -15.88041,-32.58608z" data-paper-data="{&quot;origPos&quot;:null,&quot;origRot&quot;:0}" fill="#000000"/></g><g><g><path d="" data-paper-data="{&quot;origPos&quot;:null}" fill="none" stroke="#000000" stroke-width="1.5" stroke-linecap="round"/><path d="M346.58798,172.35582l17.97645,-11.98685l5.58212,8.21087l-17.97645,11.98685z" fill="#524e53" stroke="none" stroke-width="0" stroke-linecap="butt"/><g stroke="none" stroke-width="0" stroke-linecap="butt"><path d="M360.31396,167.25713c0,0 10.08415,-15.94697 19.08306,-22.39652c22.54891,-16.16092 110.33791,-73.56726 110.33791,-73.56726l-7.25947,14.81721l-119.62574,82.2616z" fill="url(#color-11)"/><path d="M359.37136,165.21688l122.12842,-78.58035l14.31217,-18.82521c0,0 -4.93751,24.0206 -15.11194,31.49617c-24.3817,17.9142 -62.78845,46.21427 -90.06244,62.89691c-13.87538,8.48711 -28.48152,9.72341 -28.48152,9.72341z" data-paper-data="{&quot;index&quot;:null}" fill="url(#color-12)"/><g><path d="M357.96093,166.50672c0,0 83.98825,-57.51546 101.46829,-69.48496c2.94174,-2.01436 12.25083,-9.30462 18.57807,-15.57383c6.83119,-6.76854 4.26828,-9.52685 4.26828,-9.52685l12.20422,-9.98681c0,0 4.68072,8.0037 -2.2016,19.02072c-6.59706,10.56039 -25.61214,22.78039 -29.5999,25.5116c-19.29323,13.21399 -101.14334,67.84866 -101.14334,67.84866z" fill="url(#color-13)"/><path d="M357.96093,166.50672c0,0 83.98825,-57.51546 101.46829,-69.48496c2.94174,-2.01436 12.25083,-9.30462 18.57807,-15.57383c6.83119,-6.76854 4.26828,-9.52685 4.26828,-9.52685l12.20422,-9.98681c0,0 4.68072,8.0037 -2.2016,19.02072c-6.59706,10.56039 -25.61214,22.78039 -29.5999,25.5116c-19.29323,13.21399 -101.14334,67.84866 -101.14334,67.84866z" fill="url(#color-14)"/><path d="M357.72542,168.31339c0,0 49.17234,-31.83069 78.65766,-52.77221c29.48532,-20.94151 33.22189,-22.06057 46.77378,-36.31358c3.48292,-3.6631 3.03951,-9.84236 3.03951,-9.84236l4.83389,-4.32184c0,0 2.71743,6.38878 -2.2332,14.35298c-7.48734,12.0451 -30.10915,25.66755 -50.74538,40.56948c-20.63626,14.90195 -77.94983,52.36445 -77.94983,52.36445z" fill="#000000"/></g></g><g stroke="none" stroke-width="0" stroke-linecap="butt"><g><path d="M348.92493,171.22372l9.96225,-7.23367c0,0 1.90512,3.08644 3.02449,4.67518c0.91389,1.29713 3.20118,4.16103 3.20118,4.16103l-10.33344,7.98592z" fill="#464347"/><path d="M353.6499,166.83892l9.93747,-6.44088l1.99609,2.9361l-9.85069,6.56852z" fill="#2c2a2c"/><path d="M352.96356,177.79665c0,0 2.06249,-6.01995 3.87685,-8.71688c1.83059,-2.72114 7.05852,-7.53798 7.05852,-7.53798l1.45902,1.9173c0,0 -4.79161,5.4067 -6.63897,8.13616c-1.708,2.52354 -4.05993,7.67138 -4.05993,7.67138z" fill="#191819"/><path d="M363.03258,160.79769l1.55991,-0.97042l6.01578,9.32821l-1.55991,0.97041z" fill="#191819"/></g><g><path d="M319.41007,190.51648l28.50411,-18.92567l-0.1279,12.64836c0,0 -2.53648,1.83471 -6.0783,4.69969c-3.71983,3.00895 -8.5343,7.1257 -12.07235,10.21903c-2.40085,2.09906 -4.18655,3.65319 -4.18655,3.65319l-7.77664,-3.36566z" fill="#2d2d31"/><path d="M316.66692,200.22078l0.82015,-7.45871l3.9819,-2.75938l-0.75648,7.27441l6.7349,3.93264l-3.33605,3.67272z" fill="#0f1011"/><path d="M344.0959,173.89767l10.17825,-8.35065l2.42909,3.75271c0,0 -0.65983,4.79277 -0.7503,6.90655c-0.08504,1.98718 0.22278,5.41977 0.22278,5.41977l-8.51726,2.98029c0,0 -2.42044,-1.4926 -4.76468,-6.87366c-1.01838,-2.33761 1.20213,-3.83508 1.20213,-3.83508z" fill="#282628"/><path d="M344.73821,173.92488l9.21902,-7.56366l2.20017,3.39905c0,0 -0.59764,4.34111 -0.67958,6.25568c-0.93423,0.28253 -10.6385,3.77117 -11.82842,1.38258c-0.9224,-2.11731 1.08883,-3.47364 1.08883,-3.47364z" fill="#232123"/><path d="M338.90911,177.96689l0.73177,-0.48794l4.079,5.99989l-0.73177,0.48794z" fill="#252527"/><path d="M334.96883,180.59432l0.73177,-0.48794l4.079,5.99989l-0.73177,0.48794z" fill="#252527"/><path d="M337.22043,179.09294l0.73177,-0.48794l4.079,5.99988l-0.73177,0.48794z" fill="#252527"/><path d="M333.28015,181.72034l0.73177,-0.48794l4.079,5.99988l-0.73176,0.48796z" fill="#252527"/><path d="M316.8966,191.66737l17.43912,-10.89733l-1.11187,7.12051l-17.66136,12.51205z" fill="#464649"/><path d="M317.03238,191.49873l7.3641,-4.8311l-1.202,5.22151l-6.92621,4.12926z" fill="#737277"/></g></g></g><path d="M340.60778,173.20679c-0.99855,-0.27144 0.14572,-2.58527 0.14572,-2.58527c0.57727,-1.06172 1.0387,-1.89259 2.1154,-1.34374c1.1195,0.57065 4.75986,1.16816 5.90481,1.79067c0.00354,0.39543 -4.47227,2.65284 -4.47227,2.65284c0,0 -1.64499,0.04234 -3.69369,-0.51451z" fill="#fde6d9" stroke="none" stroke-width="0" stroke-linecap="butt"/><path d="M330.48898,180.09848c-0.20863,-0.84639 1.08743,-1.45488 1.08743,-1.45488c1.44143,-1.02053 8.30207,-5.42174 7.91827,-3.80785c-0.55808,2.34667 -1.46665,6.81966 -0.36657,8.28124c0.63434,0.8428 0.77851,1.9497 1.43527,2.77627c1.09269,1.37523 1.293,2.65607 -0.26829,3.78758c-1.74188,1.26238 -1.89054,0.58509 -3.46361,-0.50528c-0.50867,-0.35257 -2.13223,-2.1519 -2.49761,-2.63738c-2.67025,-3.54777 -3.23234,-3.95475 -3.84484,-6.43968z" data-paper-data="{&quot;origRot&quot;:0}" fill="url(#color-15)" stroke="none" stroke-width="0" stroke-linecap="butt"/><path d="M337.69115,190.51888c-0.43709,-0.55373 0.25639,-1.73422 0.25639,-1.73422c0.65285,-1.58367 0.94347,-3.35645 2.65039,-1.96577c1.28668,1.04825 2.60345,1.57086 3.87383,2.12682c0.45968,0.20117 1.75942,0.55838 2.24219,0.70318c1.43908,0.43162 1.36519,1.68455 0.58455,3.22807c-0.61481,1.21566 -1.62493,1.98307 -4.70854,0.6336c-3.08359,-1.34947 -3.61557,-1.36587 -4.89886,-2.99162z" data-paper-data="{&quot;origRot&quot;:0}" fill="url(#color-16)" stroke="none" stroke-width="0" stroke-linecap="butt"/><g data-paper-data="{&quot;origRot&quot;:0}" fill="#fde6d9" stroke="none" stroke-width="0" stroke-linecap="butt"><path d="M334.88314,175.43445c-0.01624,-0.96737 1.39258,-1.22606 1.39258,-1.22606c1.64352,-0.655 9.34261,-1.24492 8.60575,0.36357c-1.0714,2.33879 -2.93947,4.80336 -2.18467,6.69733c0.43524,1.09212 0.3301,2.3184 0.79098,3.39993c0.76682,1.79952 0.67805,3.22857 -1.10797,3.9659c-1.99257,0.82265 -1.98762,0.05411 -3.2898,-1.58611c-0.4211,-0.53039 -1.61485,-2.94336 -1.86556,-3.57247c-1.83215,-4.59732 -2.29363,-5.20199 -2.34132,-8.04214z" data-paper-data="{&quot;origRot&quot;:0,&quot;origPos&quot;:null}"/><path d="M339.86336,188.08508c-0.39359,-0.67387 0.57374,-1.7171 0.57374,-1.7171c0.98929,-1.46675 1.60752,-3.21508 3.27314,-1.37531c1.2555,1.38675 2.63209,2.24159 3.95144,3.11935c0.47741,0.31761 1.86257,0.99865 2.37499,1.26403c1.52758,0.79108 1.23684,2.05855 0.11222,3.45314c-0.88576,1.09839 -2.13623,1.64123 -5.33879,-0.48945c-3.2026,-2.13068 -3.79116,-2.27622 -4.94674,-4.25464z" data-paper-data="{&quot;origRot&quot;:0,&quot;origPos&quot;:null}"/><path d="M348.03672,193.63973c-0.69225,-0.16783 -0.90675,-1.56403 -0.90675,-1.56403c-0.50309,-1.69572 -0.04783,-2.01571 0.99215,-2.66124c1.19842,-0.74385 2.86565,-0.90862 4.9837,-1.28938c2.11805,-0.38082 4.5776,0.73429 4.55976,1.62944c-0.01669,0.83676 -0.60385,2.08064 -3.85741,2.96116c-3.25359,0.88055 -3.73891,1.41679 -5.77142,0.92405z" data-paper-data="{&quot;origRot&quot;:0,&quot;origPos&quot;:null}"/></g><g data-paper-data="{&quot;origRot&quot;:0}" fill="#fde6d9" stroke="none" stroke-width="0" stroke-linecap="butt"><path d="M335.86515,177.43557c-0.46196,-0.85007 0.6673,-1.73123 0.6673,-1.73123c1.15398,-1.34107 7.70653,-5.42618 7.7975,-3.65931c0.20635,4.00778 1.93772,8.4517 3.43618,9.59636c1.51237,1.24054 1.38432,2.37177 0.14216,3.85177c-1.38587,1.6512 -1.95285,1.35462 -3.5818,0.14047c-0.543,-0.40471 -2.15151,-1.71 -2.66484,-2.15176c-3.75131,-3.22799 -4.44017,-3.55052 -5.7965,-6.04633z" data-paper-data="{&quot;origRot&quot;:0,&quot;origPos&quot;:null}"/><path d="M343.43539,184.68298c-0.50638,-0.59376 0.26154,-1.79142 0.26154,-1.79142c0.71476,-1.61838 1.01454,-3.4484 2.97886,-1.93167c1.48065,1.14327 2.98654,1.74157 4.44017,2.37258c0.52601,0.22834 2.00964,0.65406 2.56086,0.82475c1.6433,0.50886 1.58093,1.80778 0.72022,3.37907c-0.67789,1.23753 -1.81283,1.99267 -5.34132,0.461c-3.52849,-1.53166 -4.13353,-1.57101 -5.6203,-3.3143z" data-paper-data="{&quot;origRot&quot;:0,&quot;origPos&quot;:null}"/><path d="M350.76981,187.95406c-0.56948,-0.42792 -0.21429,-1.79512 -0.21429,-1.79512c0.20855,-1.75643 0.75328,-1.87032 1.96373,-2.05194c1.3949,-0.20926 2.99136,0.29877 5.08733,0.78663c2.09598,0.4879 4.44524,2.73854 4.07486,3.55365c-0.34622,0.76193 -1.90868,1.41841 -5.24525,0.94049c-3.33657,-0.47796 -3.9944,-0.17736 -5.66635,-1.43375z" data-paper-data="{&quot;origRot&quot;:0,&quot;origPos&quot;:null}"/></g><path d="M329.84745,178.17181c-2.38795,-7.03551 -4.98402,-13.816 -3.05999,-15.20649c1.42997,-1.03344 4.93435,-4.99689 7.20184,-1.66426c1.9369,2.84675 8.63019,8.05132 10.64703,10.84202c0,0 -12.69393,12.20107 -14.78888,6.02875z" data-paper-data="{&quot;origRot&quot;:0}" fill="url(#color-17)" stroke="none" stroke-width="0" stroke-linecap="butt"/></g><path d="M405.60384,229.52165c0,0 -41.07005,85.74702 -69.59599,123.56236c-39.62055,52.52289 -94.05078,51.87959 -94.05078,51.87959c0,0 26.60762,-70.03553 35.4675,-97.93248c6.85461,-21.58298 13.2367,-55.42156 13.2367,-55.42156z" data-paper-data="{&quot;index&quot;:null}" fill="url(#color-18)" stroke="none" stroke-width="0.5" stroke-linecap="butt"/></g></g></svg>