<svg xmlns="http://www.w3.org/2000/svg" xmlns:xlink="http://www.w3.org/1999/xlink" version="1.1" width="297.63698" height="84.86667" viewBox="0,0,297.63698,84.86667"><defs><linearGradient x1="181.03179" y1="150.33333" x2="409.08234" y2="150.33333" gradientUnits="userSpaceOnUse" id="color-1"><stop offset="0" stop-color="#ff4c61" stop-opacity="0"/><stop offset="1" stop-color="#ff4c61"/></linearGradient><linearGradient x1="181.03179" y1="150.33333" x2="409.08234" y2="150.33333" gradientUnits="userSpaceOnUse" id="color-2"><stop offset="0" stop-color="#ff4c61" stop-opacity="0"/><stop offset="1" stop-color="#ff4c61"/></linearGradient><linearGradient x1="181.03179" y1="150.33333" x2="409.08234" y2="150.33333" gradientUnits="userSpaceOnUse" id="color-3"><stop offset="0" stop-color="#ff4c61" stop-opacity="0"/><stop offset="1" stop-color="#ff4c61"/></linearGradient><linearGradient x1="250.61821" y1="150.33333" x2="478.66876" y2="150.33333" gradientUnits="userSpaceOnUse" id="color-4"><stop offset="0" stop-color="#ff4d63"/><stop offset="1" stop-color="#ff2121"/></linearGradient></defs><g><g data-paper-data="{&quot;isPaintingLayer&quot;:true}" fill-rule="nonzero" stroke-linecap="butt" stroke-linejoin="miter" stroke-miterlimit="10" stroke-dasharray="" stroke-dashoffset="0" style="mix-blend-mode: normal"><path d="M226.82335,192.76666l-6.57428,-8.43483l-39.21727,-10.0868l52.64262,-10.17878l-50.9585,-22.23585l48.23108,-18.61856l-38.40139,-15.31184h199.7388l8.16137,15.69192l8.63658,41.54768l-16.79794,27.62707z" fill="url(#color-1)" stroke-width="0" stroke="none" transform="matrix(1,0,0,1,-181.0318,-107.9)"/><path d="M226.82335,192.76666l-6.57428,-8.43483l-39.21727,-10.0868l52.64262,-10.17878l-50.9585,-22.23585l48.23108,-18.61856l-38.40139,-15.31184h199.7388l8.16137,15.69192l8.63658,41.54768l-16.79794,27.62707z" fill="url(#color-2)" stroke-width="0" stroke="none" transform="matrix(1,0,0,1,-181.0318,-107.9)"/><path d="M226.82335,192.76666l-6.57428,-8.43483l-39.21727,-10.0868l52.64262,-10.17878l-50.9585,-22.23585l48.23108,-18.61856l-38.40139,-15.31184h199.7388l8.16137,15.69192l8.63658,41.54768l-16.79794,27.62707z" fill="url(#color-3)" stroke-width="0" stroke="none" transform="matrix(1,0,0,1,-181.0318,-107.9)"/><path d="M296.40977,192.76666l-6.57428,-8.43483l-39.21727,-10.0868l52.64262,-10.17878l-50.9585,-22.23585l48.23108,-18.61856l-38.40139,-15.31184h199.7388l8.16137,15.69192l8.63658,41.54768l-16.79794,27.62707z" fill="url(#color-4)" stroke-width="0" stroke="none" transform="matrix(1,0,0,1,-181.0318,-107.9)"/></g></g></svg>