<svg version="1.1" xmlns="http://www.w3.org/2000/svg" xmlns:xlink="http://www.w3.org/1999/xlink" width="326.61768" height="191.66931" viewBox="0,0,326.61768,191.66931"><defs><radialGradient cx="292.30807" cy="140.93376" r="8.75328" gradientUnits="userSpaceOnUse" id="color-1"><stop offset="0" stop-color="#000000"/><stop offset="1" stop-color="#000000"/></radialGradient><radialGradient cx="260.82063" cy="257.74479" r="8.75328" gradientUnits="userSpaceOnUse" id="color-2"><stop offset="0" stop-color="#000000"/><stop offset="1" stop-color="#000000"/></radialGradient><radialGradient cx="197.15218" cy="250.67854" r="13.52819" gradientUnits="userSpaceOnUse" id="color-3"><stop offset="0" stop-color="#000000"/><stop offset="1" stop-color="#000000"/></radialGradient><radialGradient cx="195.15219" cy="96.32451" r="13.52819" gradientUnits="userSpaceOnUse" id="color-4"><stop offset="0" stop-color="#000000"/><stop offset="1" stop-color="#000000"/></radialGradient></defs><g transform="translate(-127.04091,-83.09849)"><g data-paper-data="{&quot;isPaintingLayer&quot;:true}" fill-rule="nonzero" stroke-linejoin="miter" stroke-miterlimit="10" stroke-dasharray="" stroke-dashoffset="0" style="mix-blend-mode: normal"><g data-paper-data="{&quot;origRot&quot;:0}" id="ID0.9996707611717284" stroke-width="1" stroke-linecap="round"><path d="M173.20009,161.11801c-7.19836,-3.27379 -3.78636,-22.71721 -12.7053,-27.19493c-9.4936,-4.54787 -22.434,9.32214 -31.16373,5.69217c-4.73235,-1.97193 1.08532,-11.68652 4.02926,-16.52623c4.22824,-6.93211 9.1284,-14.05346 16.28707,-17.5868c6.47619,-3.19533 17.09616,-6.88174 21.94843,-1.39971c9.40582,10.62838 12.3594,26.61373 12.75682,40.87156c0.18674,6.5288 -6.37482,18.24842 -11.15252,16.14396z" id="ID0.10925169289112091" fill="#f5291b" stroke="#bb270e"/><path d="M186.41198,203.48762c1.25888,14.20774 0.17928,30.42772 -7.93039,42.0753c-4.18371,6.00777 -15.15955,3.57802 -21.96264,1.15537c-7.52016,-2.67923 -13.21322,-9.18419 -18.21688,-15.57913c-3.48538,-4.46558 -10.39048,-13.43994 -5.9188,-15.94743c8.24987,-4.61796 22.71156,7.6576 31.61359,2.03937c8.33943,-5.48196 2.69536,-24.3984 9.46548,-28.48499c4.50139,-2.6444 12.37792,8.23512 12.94966,14.74156z" id="ID0.10925169289112091" fill="#f5291b" stroke="#bb270e"/><path d="M306.06222,172.22019c0.82673,14.20833 -6.70109,27.56169 -19.53085,37.66067c-12.83459,10.09928 -30.96625,16.94398 -51.34737,18.1299c-20.38112,1.18591 -39.18427,-3.50966 -53.10352,-12.05222c-13.91445,-8.54287 -22.94027,-20.93302 -23.76702,-35.14132c-0.82673,-14.20833 6.70109,-27.56169 19.53088,-37.66065c12.83456,-10.09929 30.96626,-16.94393 51.34738,-18.12985c20.38112,-1.18591 39.18427,3.50966 53.10357,12.0522c13.91445,8.54287 22.94023,20.933 23.76698,35.1413z" id="ID0.44616582430899143" fill="#e5e5e5" stroke="#b2b2b2"/><path d="M315.60124,174.34515c0.26024,8.13011 -4.11075,16.2201 -8.83285,22.7634c-5.39396,7.54977 -12.85761,13.52705 -20.69658,18.37503c-4.74363,2.93145 -10.86839,6.15126 -16.19341,4.32804c-3.71288,-1.21569 -3.67235,-5.59053 -4.03349,-11.13189c-1.43968,-22.16566 -1.7861,-44.66101 -0.97848,-66.69142c0.20229,-5.50156 -0.22175,-12.04049 3.69333,-11.33964c13.47129,2.423 26.7448,9.59273 36.90597,19.1347c6.47707,5.91101 9.84181,15.52431 10.13552,24.56177z" id="ID0.34605008317157626" fill="#f5291b" stroke="#ae1f0a"/></g><path d="M247.40747,84.09849l24.03103,27.26174l35.68466,44.78612" data-paper-data="{&quot;origRot&quot;:0}" id="ID0.16875446680933237" fill="none" stroke="url(#color-1)" stroke-width="2" stroke-linecap="round"/><path d="M332.75469,145.028l0.00006,60.25921l-96.22024,0.0001l-0.00005,-60.25921z" data-paper-data="{&quot;origRot&quot;:0}" id="ID0.7297499743290246" fill="#0251ff" stroke="#0344b1" stroke-width="2" stroke-linecap="butt"/><path d="M246.88604,273.7678l33.10504,-46.72524l22.45712,-28.5722" data-paper-data="{&quot;origRot&quot;:0}" id="ID0.16875446680933237" fill="none" stroke="url(#color-2)" stroke-width="2" stroke-linecap="round"/><g data-paper-data="{&quot;origRot&quot;:0}" id="ID0.4706640876829624" stroke-width="2"><path d="M452.0654,176.18507c0.45799,19.03251 -6.85737,36.46582 -19.0457,49.25388c-12.18701,12.78932 -29.24828,20.93473 -48.2808,21.39271c-19.03252,0.45799 -36.46581,-6.85737 -49.25387,-19.04572c-12.78933,-12.18702 -20.93473,-29.24827 -21.39272,-48.28079c-0.45799,-19.03252 6.85737,-36.46582 19.04571,-49.25387c12.18701,-12.78933 29.24828,-20.93473 48.28079,-21.39272c19.03252,-0.45799 36.46582,6.85737 49.25387,19.04571c12.78933,12.18701 20.93473,29.24828 21.39271,48.2808z" id="ID0.052302687894552946" fill="#ffffff" stroke="#cccccc" stroke-linecap="butt"/><path d="M383.38702,109.84822c-0.88903,-1.76875 3.35424,-2.49956 5.45141,-2.39966c8.39001,0.39958 17.21991,0.49432 25.04012,3.61034c7.95143,3.39804 19.64516,9.91819 25.08253,18.84051c8.03159,13.19333 11.58408,28.84459 13.69751,44.0029c1.38347,11.27279 -0.30533,23.08098 -3.39835,33.84966c-3.46862,12.07529 -8.89898,23.86074 -16.22557,34.09352c-5.97147,7.99132 -13.83013,15.1829 -22.86425,19.47576c-2.86438,1.36261 -7.95084,-2.0266 -7.90562,-5.31893c0.07673,-5.21545 6.06811,-8.50048 8.4978,-13.1672c0.63547,-1.06528 -1.04908,0.30652 -2.10956,1.2174c-4.24061,3.64217 -6.88369,9.6764 -12.23212,11.50711c-2.38513,0.86237 -5.49457,-2.57181 -5.7649,-5.24081c-0.16052,-1.60773 -71.82744,-18.55401 -76.18116,-54.96938c-11.28818,-94.41647 70.38349,-82.5862 68.91216,-85.50122z" id="ID0.12275043269619346" fill="#0251ff" stroke="#0344b1" stroke-linecap="round"/></g><path d="M203.25072,259.52078l-8.53387,-6.65294l51.75377,-66.38558" data-paper-data="{&quot;origRot&quot;:0}" id="ID0.43897221656516194" fill="none" stroke="url(#color-3)" stroke-width="2" stroke-linecap="round"/><path d="M244.47063,160.52078l-51.75377,-66.38558l8.53387,-6.65293" data-paper-data="{&quot;origRot&quot;:0,&quot;index&quot;:null}" id="ID0.43897221656516194" fill="none" stroke="url(#color-4)" stroke-width="2" stroke-linecap="round"/></g></g></svg>