<svg version="1.1" xmlns="http://www.w3.org/2000/svg" xmlns:xlink="http://www.w3.org/1999/xlink" width="133.4946" height="414.76374" viewBox="0,0,133.4946,414.76374"><defs><linearGradient x1="224.88782" y1="63.82615" x2="224.88782" y2="97.65675" gradientUnits="userSpaceOnUse" id="color-1"><stop offset="0" stop-color="#d2a991"/><stop offset="1" stop-color="#fde6d9"/></linearGradient><linearGradient x1="289.17043" y1="149.20932" x2="277.01838" y2="157.57065" gradientUnits="userSpaceOnUse" id="color-2"><stop offset="0" stop-color="#fde6d9"/><stop offset="1" stop-color="#fde6d9"/></linearGradient><radialGradient cx="229.57119" cy="79.84542" r="43.92048" gradientUnits="userSpaceOnUse" id="color-3"><stop offset="0" stop-color="#fde6d9"/><stop offset="1" stop-color="#f7d9c8"/></radialGradient><linearGradient x1="239.47739" y1="-1811.67808" x2="239.47739" y2="1499.20589" gradientUnits="userSpaceOnUse" id="color-4"><stop offset="0" stop-color="#2a221e"/><stop offset="1" stop-color="#2a221e" stop-opacity="0"/></linearGradient><radialGradient cx="282.45529" cy="153.4411" r="27.45021" gradientUnits="userSpaceOnUse" id="color-5"><stop offset="0" stop-color="#4187ff"/><stop offset="1" stop-color="#0066ff"/></radialGradient><linearGradient x1="287.77861" y1="145.97432" x2="284.996" y2="151.69179" gradientUnits="userSpaceOnUse" id="color-6"><stop offset="0" stop-color="#737373"/><stop offset="1" stop-color="#000000"/></linearGradient><linearGradient x1="272.34947" y1="140.19384" x2="302.92734" y2="155.07562" gradientUnits="userSpaceOnUse" id="color-7"><stop offset="0" stop-color="#ff7c7c"/><stop offset="1" stop-color="#fa1414"/></linearGradient><linearGradient x1="277.80827" y1="136.19969" x2="302.62347" y2="148.27688" gradientUnits="userSpaceOnUse" id="color-8"><stop offset="0" stop-color="#ff7c7c"/><stop offset="1" stop-color="#fa1414"/></linearGradient><linearGradient x1="283.79714" y1="133.2199" x2="305.13863" y2="143.60648" gradientUnits="userSpaceOnUse" id="color-9"><stop offset="0" stop-color="#ff7c7c"/><stop offset="1" stop-color="#fa1414"/></linearGradient><linearGradient x1="176.48428" y1="147.79117" x2="245.1671" y2="173.23062" gradientUnits="userSpaceOnUse" id="color-10"><stop offset="0" stop-color="#fde6d9"/><stop offset="1" stop-color="#f7d9c8"/></linearGradient><linearGradient x1="-58.75985" y1="64.28477" x2="426.96817" y2="244.19373" gradientUnits="userSpaceOnUse" id="color-11"><stop offset="0" stop-color="#000000"/><stop offset="1" stop-color="#000000" stop-opacity="0"/></linearGradient><linearGradient x1="235.49616" y1="176.87879" x2="254.955" y2="179.73298" gradientUnits="userSpaceOnUse" id="color-12"><stop offset="0" stop-color="#fde6d9"/><stop offset="1" stop-color="#fde6d9"/></linearGradient><linearGradient x1="243.49786" y1="73.76113" x2="243.7851" y2="74.44392" gradientUnits="userSpaceOnUse" id="color-13"><stop offset="0" stop-color="#ecc6b1"/><stop offset="1" stop-color="#ecc6b1" stop-opacity="0"/></linearGradient><linearGradient x1="236.09888" y1="65.20683" x2="238.92649" y2="65.20683" gradientUnits="userSpaceOnUse" id="color-14"><stop offset="0" stop-color="#f4d7c8" stop-opacity="0"/><stop offset="1" stop-color="#f4d7c8"/></linearGradient><linearGradient x1="240.24038" y1="73.61583" x2="240.20766" y2="74.35249" gradientUnits="userSpaceOnUse" id="color-15"><stop offset="0" stop-color="#ecc6b1"/><stop offset="1" stop-color="#ecc6b1" stop-opacity="0"/></linearGradient><linearGradient x1="236.12211" y1="45.82454" x2="235.02647" y2="70.46281" gradientUnits="userSpaceOnUse" id="color-16"><stop offset="0" stop-color="#f9ddce" stop-opacity="0"/><stop offset="1" stop-color="#f9ddce"/></linearGradient></defs><g transform="translate(-171.36127,-15.56387)"><g data-paper-data="{&quot;isPaintingLayer&quot;:true}" fill-rule="nonzero" stroke-linejoin="miter" stroke-miterlimit="10" stroke-dasharray="" stroke-dashoffset="0" style="mix-blend-mode: normal"><g data-paper-data="{&quot;origRot&quot;:0}" stroke="none" stroke-width="0" stroke-linecap="butt"><path d="M247.7228,102.75897c-0.00033,-5.11752 -2.86488,-15.09755 4.97958,-14.71286c7.43959,0.36486 19.18713,9.4445 27.16442,26.93848c2.33038,5.11042 5.68236,17.80101 7.99175,22.9213c4.18488,9.27861 -12.06279,20.65502 -18.11549,12.52699c-4.97829,-6.68522 -4.89154,-5.77909 -14.6853,-27.53155c-4.11311,-9.13544 -7.33436,-10.13689 -7.33499,-20.14233z" data-paper-data="{&quot;origPos&quot;:null,&quot;origRot&quot;:0}" fill="#2152a6"/><path d="M254.90823,87.88838c7.38894,1.95801 17.55253,10.87568 24.69432,26.53735c2.33038,5.11042 5.68236,17.80101 7.99175,22.92132c2.39405,5.30802 -1.89876,11.30256 -7.14437,13.93932c-7.31288,-15.28008 -14.58921,-30.57765 -21.61651,-45.99526c-2.0338,-4.46207 -2.86025,-11.43574 -3.92515,-17.40272z" data-paper-data="{&quot;origPos&quot;:null,&quot;origRot&quot;:0}" fill="#000000"/></g><g><path d="M225.42616,337.3616c-0.02714,-7.54374 2.51377,-10.9758 3.76359,-17.93977c1.9524,-10.87862 2.70297,-26.99407 2.70297,-26.99407c1.08124,-13.3372 28.67828,-8.9667 25.17966,3.97229c-4.31258,15.94925 -2.20955,44.94595 -3.18478,58.59846c-2.01581,28.21983 -2.2686,40.19881 -2.2686,40.19881l-19.4855,-2.29647c0,0 -1.62803,-17.17911 -2.76753,-24.54958c-1.77273,-11.46635 -3.91261,-23.44596 -3.93977,-30.98971z" data-paper-data="{&quot;origPos&quot;:null}" fill="#252525" stroke="#000000" stroke-width="0" stroke-linecap="butt"/><path d="M259.08295,273.78766c-1.03052,25.15431 -4.26388,24.10254 -4.34139,37.52292c-2.06421,9.35878 -23.92755,-1.33028 -23.92755,-1.33028c0,0 -11.075,-58.75615 -2.69933,-94.39349c1.84165,-7.83595 18.88916,1.30448 22.29432,1.70203c0,0 5.25175,3.98533 7.51652,10.47366c0,0 2.24562,19.46296 1.15741,46.02517z" data-paper-data="{&quot;origPos&quot;:null,&quot;origRot&quot;:0,&quot;index&quot;:null}" fill="#000000" stroke="#000000" stroke-width="0" stroke-linecap="butt"/><g data-paper-data="{&quot;origPos&quot;:null,&quot;index&quot;:null}" stroke="none" stroke-linecap="round"><path d="M230.61104,417.86841c0.40334,-5.13508 -0.6066,-15.57088 0.172,-20.61536c0.52909,-3.42099 -1.36041,-10.66303 1.46173,-11.39445c1.11491,-0.28895 6.65816,2.81322 11.25785,2.34823c4.47224,-0.45212 8.6934,-4.63981 9.31648,-2.61498c1.27315,4.13743 0.96996,13.70817 2.34166,14.74572c8.11412,6.12342 16.05432,10.00265 13.31322,19.79149c-1.69964,6.06956 -12.82404,7.96998 -12.82404,7.96998c0,0 -25.04643,-8.99063 -25.03889,-10.23062z" data-paper-data="{&quot;origPos&quot;:null}" fill="#000000" stroke-width="1"/><path d="M230.71264,412.79158c0,0 7.03339,2.08113 13.20095,7.06132c6.78485,5.47865 16.5278,6.52884 16.5278,6.52884l-5.18729,1.67091l-24.4027,-9.37868z" data-paper-data="{&quot;origPos&quot;:null,&quot;origRot&quot;:0}" fill="#111111" stroke-width="1.16035"/></g></g><g><path d="M192.01323,317.82423c1.9524,-10.87862 0.33957,-30.70796 0.33957,-30.70796c1.08124,-13.3372 32.72981,-4.91516 29.23119,8.02382c-4.31258,15.94925 -0.52142,39.20626 -1.49665,52.85879c-2.01581,28.21983 -3.95674,45.93849 -3.95674,45.93849l-19.4855,-2.29647c0,0 -2.8344,-14.854 -3.44277,-24.54958c-0.60837,-9.69559 -1.18909,-49.26708 -1.18909,-49.26708z" data-paper-data="{&quot;origPos&quot;:null}" fill="#252525" stroke="#000000" stroke-width="0" stroke-linecap="butt"/><path d="M224.27226,276.15105c-2.45298,25.0609 -4.38869,23.42729 -4.47534,36.84767c-0.04298,6.65776 -27.12324,-0.65503 -27.12324,-0.65503c0,0 -12.37946,-58.75615 -3.01726,-94.39349c2.05857,-7.83595 21.114,1.30447 24.92024,1.70202c0,0 12.9605,3.6477 15.49202,10.13603c0,0 -3.22955,20.13821 -5.79643,46.3628z" data-paper-data="{&quot;origPos&quot;:null,&quot;origRot&quot;:0,&quot;index&quot;:null}" fill="#000000" stroke="#000000" stroke-width="0" stroke-linecap="butt"/><g data-paper-data="{&quot;origPos&quot;:null,&quot;index&quot;:null,&quot;origRot&quot;:0}" stroke="none" stroke-linecap="round"><path d="M191.27345,417.25003c0.99874,-5.05313 1.21124,-15.53555 2.57214,-20.45499c0.92397,-3.33606 -0.10911,-10.74891 2.77901,-11.14662c1.14097,-0.15712 6.28516,3.56962 10.9077,3.64357c4.49446,0.07189 9.17467,-3.59561 9.55766,-1.51199c0.78256,4.25757 -0.63339,13.72784 0.60813,14.91811c7.34561,7.02688 14.7799,11.80459 10.91725,21.20752c-2.39506,5.83026 -13.6651,6.42198 -13.6651,6.42198c0,0 -23.82869,-11.84686 -23.67678,-13.07755z" data-paper-data="{&quot;origPos&quot;:null}" fill="#000000" stroke-width="1"/><path d="M191.96571,412.21959c0,0 6.7431,2.88622 12.28858,8.55091c6.1005,6.23167 15.6548,8.40957 15.6548,8.40957l-5.34661,1.05532l-23.14414,-12.15728z" data-paper-data="{&quot;origPos&quot;:null,&quot;origRot&quot;:0}" fill="#111111" stroke-width="1.16035"/></g></g><g stroke-linecap="butt"><g data-paper-data="{&quot;origPos&quot;:null}" stroke="none"><path d="M201.5967,76.32191c0.9145,-5.69495 1.70118,-7.06721 3.59643,-8.08367c1.89524,-1.01646 8.46404,-2.23201 15.76255,-2.29886c7.29851,-0.06685 5.22172,-2.57649 12.25252,0.54065c7.0308,3.11714 6.27375,4.0716 6.98327,7.98762c0.70949,3.91601 8.40826,13.34604 4.50696,14.68405c-3.86272,1.32479 -28.93769,5.55275 -47.26618,0.32809c0.289,-2.58858 0.45903,-5.10571 0.26725,-7.62584c0.01359,-0.03819 0.02702,-0.07641 0.04031,-0.11466l0.25,-0.26542c0,0 0.42493,-0.82072 0.74139,-1.9749c1.51899,-0.93282 2.6713,-1.96793 2.86547,-3.17706z" data-paper-data="{&quot;origPos&quot;:null}" fill="#000000" stroke-width="0"/><g data-paper-data="{&quot;origPos&quot;:null}"><path d="M200.6643,90.63228c-1.30091,-0.45355 -2.36307,-0.88214 -3.21676,-1.29005c0.21885,-1.98789 0.36485,-3.93435 0.32774,-5.87319c2.85348,-1.62525 6.57654,-3.3671 6.91261,-5.82888c0.16491,-1.20805 0.26031,-1.88914 0.53174,-3.0753c0.4793,-2.09453 1.16267,-3.23701 2.95143,-4.25655c1.8746,-1.06849 6.96676,-2.16113 13.27321,-2.2189c6.30645,-0.05778 6.09538,-1.9506 12.01957,0.86101c5.92421,2.81163 3.69085,2.96905 4.30355,6.88598c0.61268,3.91692 7.65407,13.18487 3.88019,14.68978c-3.77388,1.50495 -25.33481,5.56194 -40.98325,0.10611z" data-paper-data="{&quot;origPos&quot;:null}" fill="#09162e" stroke-width="0"/><g data-paper-data="{&quot;origPos&quot;:null}" fill="none" stroke-width="1" font-family="sans-serif" font-weight="normal" font-size="12" text-anchor="start"/></g></g><path d="M237.24247,92.28192c0,0 -8.97138,5.37481 -13.506,5.37481c-3.90388,0 -15.09015,-5.797 -15.09015,-5.797c0,0 2.22484,-2.85262 3.01615,-5.14268c0.6727,-1.9468 1.76554,-5.96513 1.76554,-8.06029c0,-2.23101 -3.64276,-13.95323 -3.64276,-13.95323l27.41693,-0.8774z" data-paper-data="{&quot;origPos&quot;:null}" fill="url(#color-1)" stroke="none" stroke-width="0"/><g data-paper-data="{&quot;origPos&quot;:null}" fill="#b2bbc1" stroke="none" stroke-width="0"><path d="M192.79786,166.02748l62.33092,-1.28968c0,0 -1.20099,16.28212 -0.90883,26.43347c0.26485,9.20239 1.06159,14.82632 2.3184,23.93579c1.75352,13.67784 -11.75777,19.23737 -25.45477,19.66682c-14.33732,0.44954 -43.00054,-2.48174 -41.00248,-15.27193c0,0 2.16824,-19.31397 2.8097,-31.94002c0.41879,-8.24304 -0.09295,-21.53444 -0.09295,-21.53444z" data-paper-data="{&quot;origPos&quot;:null}"/><path d="M193.01968,167.47637c0,0 -1.08399,-11.8936 -2.5054,-19.45989c-3.45983,-18.417 -4.60051,-28.72115 -6.81252,-47.27653c-0.24752,-4.47047 4.57841,-13.99118 12.66699,-15.1516c4.98111,-0.7146 16.23974,-3.03312 16.23974,-3.03312c0,0 0.38342,5.37607 3.11656,7.76054c4.97438,4.33979 12.00623,4.26863 12.00623,4.26863c0,0 6.91047,-2.64904 8.8458,-6.19341c1.04395,-1.91192 0.34294,-7.78763 0.34294,-7.78763c0,0 15.71648,8.27315 21.03815,18.91442c5.32167,10.64128 3.33969,19.40713 2.36597,31.77065c-0.97374,12.36352 -4.96322,35.75211 -4.96322,35.75211l-62.34122,0.43581z" data-paper-data="{&quot;origPos&quot;:null}"/></g><path d="M257.93301,226.06436c0,7.55169 -13.00085,16.10438 -29.24726,16.10438c-16.24641,0 -40.13181,-7.33727 -40.13181,-14.88896c0,-5.07496 1.63266,-10.96499 1.63266,-10.96499c0,0 27.87955,4.26003 40.46431,4.2134c13.202,-0.04891 25.61104,-4.45823 25.61104,-4.45823c0,0 1.67107,2.44271 1.67107,9.99439z" data-paper-data="{&quot;origPos&quot;:null}" fill="#000000" stroke="none" stroke-width="0"/><g data-paper-data="{&quot;origPos&quot;:null,&quot;index&quot;:null}"><path d="M238.48889,165.25863c-0.41604,-20.4441 -0.59415,-56.0041 -0.59415,-56.0041c-0.04961,-9.23833 4.70944,-12.86826 5.2789,-21.02903c1.10065,-2.66862 -2.26466,-3.1911 -1.00405,-5.64235c2.94548,0.53327 7.67784,2.40421 11.56245,4.91333c3.88993,2.51255 7.96548,13.43206 8.00165,20.17031c0.09363,17.44208 -0.56403,13.96374 -3.58826,43.70818c-3.121,30.6963 0.47016,67.82115 0.47016,67.82115c0,0 -5.98232,4.11316 -9.04562,5.21255c-3.61153,1.29615 -8.59466,6.88374 -9.36651,-0.53366c0,0 -1.22595,-34.60536 -1.71458,-58.61635z" data-paper-data="{&quot;origPos&quot;:null}" fill="#255dbc" stroke="#000000" stroke-width="0"/><path d="M241.06301,136.0204l-3.34823,11.55874c0,0 0.51419,-13.08358 -0.76108,-21.61419c-0.91775,-6.13912 -0.70575,-10.07606 -0.40875,-16.37184c0.15851,-3.36026 2.2032,-8.63519 2.2032,-8.63519l21.70979,-0.37764c0,0 2.12288,5.97256 1.85639,10.66425c-0.37432,6.5907 -1.81025,17.90788 -1.81025,17.90788z" data-paper-data="{&quot;origPos&quot;:null}" fill="#09162e" stroke="none" stroke-width="0"/><path d="M238.10566,104.54973c0,0 0.35751,-3.15021 1.4443,-6.22842c2.49566,-7.06883 2.9154,-16.59743 2.9154,-16.59743l10.44527,5.61149l-0.68249,16.33946z" data-paper-data="{&quot;origPos&quot;:null}" fill="#09162e" stroke="none" stroke-width="0"/><path d="M254.82675,125.42399c0,0 -0.21336,1.50897 -1.15215,1.16603c-0.93879,-0.34295 -0.72542,-1.85192 -0.72542,-1.85192l0.51826,-1.27033c0.18537,-1.19189 0.81084,-4.79773 0.67727,-5.2987c-0.33923,-1.27227 -1.10404,-2.02834 -0.96273,-3.61074c0.04389,-0.49141 0.72203,-4.32429 1.56561,-4.18913c0.04418,0.00708 0.07797,0.03751 0.10489,0.08392c0.10091,-0.06841 0.41967,0.15621 0.34236,0.03563l-1.00737,-0.40482c-0.42871,-0.15639 -0.74876,-0.77266 -0.74876,-1.50911c0,-0.51272 0.1551,-0.96719 0.39403,-1.24877l1.01794,-1.22716l0.04096,0.08777c0.10993,-0.09465 0.21433,-0.1764 0.31895,-0.24966l-0.01577,-0.10139l0.23349,-0.09383v-0.36503h1.02692c0.03809,0 0.07566,0.00355 0.11261,0.01047c0.28452,0.03612 0.66393,0.25319 0.81145,1.10141c0.00681,0.0374 0.01276,0.07539 0.01784,0.11391c0.12065,0.86461 -0.15154,1.34508 -0.3927,1.59281c-0.09966,0.11145 -0.21303,0.19341 -0.33524,0.23799l-0.32905,0.13221c0.28762,0.52217 0.50252,1.06761 0.46273,1.38053c-0.3278,2.57768 -1.62534,2.77501 -1.97742,4.67485c-0.02709,0.14617 0.24177,-0.20072 0.28198,-0.06258c0.27211,0.93512 0.66184,2.05637 0.77019,3.50758c0.15733,2.10747 -0.22847,4.13528 -0.5422,6.1525l-0.50864,1.20561zM255.04019,112.06324c0.01181,0.03392 0.02514,0.06502 0.04049,0.09228c0.04962,0.08809 0.01648,0.02979 -0.04049,-0.09228z" data-paper-data="{&quot;origPos&quot;:null}" fill="#ffffff" stroke="none" stroke-width="0.5"/><path d="M238.48436,101.14707v-1.03165h20.15304l0.23105,1.03165z" data-paper-data="{&quot;origPos&quot;:null}" fill="#ffffff" stroke="none" stroke-width="0"/><path d="M237.33121,106.94232l-0.80174,2.99667l0.21312,-3.40791l1.7397,-6.43372l0.58863,0.41123z" data-paper-data="{&quot;origPos&quot;:null,&quot;origRot&quot;:0}" fill="#ffffff" stroke="none" stroke-width="0"/></g><g data-paper-data="{&quot;origPos&quot;:null}"><path d="M221.65977,166.08396c-0.79001,24.01099 -2.77209,58.61635 -2.77209,58.61635c-1.24791,7.4174 -9.30449,1.82981 -15.14352,0.53366c-4.95265,-1.09939 -14.62469,-5.21254 -14.62469,-5.21254c0,0 3.2925,-37.95017 0.76015,-67.82115c-2.53235,-29.87099 -6.80169,-34.31289 -6.65032,-51.75496c0.05848,-6.73826 5.61142,-12.08689 11.90054,-14.59946c6.28053,-2.50912 9.53286,-1.90413 14.29504,-2.4374c2.03813,2.45125 2.88121,2.97372 4.6607,5.64235c0.92071,8.16077 8.61498,11.79068 8.53479,21.02901c0,0 -0.28794,35.56 -0.9606,56.0041z" data-paper-data="{&quot;origPos&quot;:null}" fill="#255dbc" stroke="#000000" stroke-width="0"/><path d="M187.60278,130.31533c0,0 -1.77569,-11.99244 -2.38088,-18.58313c-0.43081,-4.69169 3.10246,-10.66425 3.10246,-10.66425l32.37044,0.71527c0,0 3.30577,5.27493 3.56205,8.63519c0.48018,6.29578 0.82294,10.23273 -0.66086,16.37184c-2.06181,8.53061 -1.23048,21.61419 -1.23048,21.61419l-5.41333,-11.55874z" data-paper-data="{&quot;origPos&quot;:null}" fill="#09162e" stroke="none" stroke-width="0"/><path d="M201.60175,102.47438l-1.77869,-18.70285l9.20623,-3.28561c0,0 6.33429,11.59188 10.3692,18.66071c1.75707,3.07822 2.3351,6.22842 2.3351,6.22842z" data-paper-data="{&quot;origPos&quot;:null}" fill="#09162e" stroke="none" stroke-width="0"/><path d="M194.69929,125.42404l-0.82237,-1.20561c-0.50724,-2.01722 -1.13098,-4.04503 -0.8766,-6.1525c0.17516,-1.45121 0.80529,-2.57246 1.24521,-3.50758c0.06499,-0.13814 0.49969,0.20875 0.45589,0.06258c-0.56923,-1.89983 -2.66706,-2.09717 -3.19704,-4.67485c-0.06434,-0.31292 0.28311,-0.85836 0.74812,-1.38053l-0.53199,-0.13221c-0.19759,-0.04458 -0.3809,-0.12653 -0.54201,-0.23799c-0.38991,-0.24773 -0.82997,-0.7282 -0.63489,-1.59281c0.0082,-0.03851 0.01783,-0.07651 0.02883,-0.11391c0.23849,-0.84822 0.85192,-1.06528 1.31194,-1.10141c0.05973,-0.00692 0.12048,-0.01047 0.18206,-0.01047h1.66029v0.36503l0.37752,0.09383l-0.0255,0.10139c0.16916,0.07326 0.33795,0.15501 0.51568,0.24966l0.06622,-0.08777l1.64579,1.22716c0.3863,0.28159 0.63708,0.73606 0.63708,1.24877c0,0.73644 -0.51745,1.35271 -1.21057,1.50911l-1.62868,0.40482c-0.12497,0.12058 0.39037,-0.10404 0.55351,-0.03563c0.04353,-0.04641 0.09817,-0.07684 0.16959,-0.08392c1.36387,-0.13516 2.46027,3.69772 2.53123,4.18913c0.22847,1.58241 -1.00806,2.33847 -1.55651,3.61074c-0.21595,0.50097 0.79526,4.10681 1.09498,5.2987l0.83791,1.27033c0,0 0.34496,1.50897 -1.17285,1.85192c-1.5178,0.34294 -1.86276,-1.16603 -1.86276,-1.16603zM194.28872,113.80612c0.02483,-0.02726 0.0464,-0.05836 0.06549,-0.09228c-0.09213,0.12206 -0.14571,0.18037 -0.06549,0.09228z" data-paper-data="{&quot;origPos&quot;:null}" fill="#ffffff" stroke="none" stroke-width="0.5"/><path d="M188.16476,101.97237l0.37356,-1.03165h32.58289v1.03165z" data-paper-data="{&quot;origPos&quot;:null}" fill="#ffffff" stroke="none" stroke-width="0"/><path d="M220.17293,101.3339l0.95166,-0.41123l2.8127,6.43372l0.34455,3.40791l-1.29624,-2.99667z" data-paper-data="{&quot;origPos&quot;:null,&quot;origRot&quot;:0}" fill="#ffffff" stroke="none" stroke-width="0"/><path d="M187.36587,131.93806c0,0 -8.7531,-28.10005 -3.02213,-38.06749c6.63493,-11.53964 13.22493,-8.66577 13.22493,-8.66577c0,0 -3.70962,10.28761 -6.56634,16.7407c-2.85672,6.45309 -3.63647,29.99257 -3.63647,29.99257z" data-paper-data="{&quot;origPos&quot;:null}" fill="#000000" stroke="none" stroke-width="0"/></g></g><path d="M282.24286,162.72232c-3.78928,4.90873 -7.60142,-3.95705 -8.00026,-6.16572c-0.39212,-2.17138 1.10887,-4.87836 2.44768,-6.19725c3.12408,-3.07761 5.68927,-3.03985 9.06297,-5.52541c2.67077,-1.96769 3.56524,3.05421 4.109,4.68806c0.73162,2.1983 -3.52403,7.89514 -7.61935,13.20033z" data-paper-data="{&quot;origRot&quot;:0}" fill="url(#color-2)" stroke="none" stroke-width="0" stroke-linecap="butt"/><path d="M234.55262,16.67566c16.88353,-0.45442 22.72652,11.80311 24.40569,17.10316c2.06239,6.50962 0.90707,23.45971 -0.15619,30.76327c-1.89475,13.55275 -10.8364,26.31681 -19.26319,28.3518c-3.63351,-0.23921 -27.25694,-6.1625 -30.31363,-11.47367c-7.32527,-12.72804 -9.8719,-16.89097 -10.32955,-31.5693c-0.51003,-16.35866 9.91268,-32.83245 35.65687,-33.17527z" data-paper-data="{&quot;origPos&quot;:null}" fill="url(#color-3)" stroke="none" stroke-width="0" stroke-linecap="butt"/><path d="M262.68647,53.44048c-6.23221,-8.29486 -6.42062,-16.11312 -17.07313,-15.75889c-11.51007,0.38275 -28.3536,9.02602 -35.48619,17.70029c-2.552,3.10361 0.23701,11.61499 0.23701,11.61499l-3.04723,0.47932c0,0 -2.02059,-2.49151 -3.0582,-4.48981c-2.12167,-4.08606 -3.70355,9.12784 -3.70355,9.12784c0,0 -5.48521,-24.58224 -1.92045,-36.34194c3.7807,-12.47202 17.20154,-19.93003 32.74421,-20.19079c15.54267,-0.26077 24.32068,2.27012 30.58976,14.49115c0,0 4.90506,7.8221 3.89674,13.18747z" data-paper-data="{&quot;origPos&quot;:null}" fill="#3d3021" stroke="none" stroke-width="0" stroke-linecap="butt"/><path d="M238.4656,40.46006c-10.84633,0.36067 -21.44647,3.99835 -28.16774,12.17237c-2.49522,3.03457 -4.36447,10.8461 -4.36447,10.8461c0,0 -2.27708,-20.98961 1.74026,-27.40439c2.48146,-7.32997 6.92609,-7.10848 6.92609,-7.10848c0,0 6.72242,-11.42963 23.86587,-12.67291c4.31549,0.03498 10.08199,0.79486 13.58507,3.31542c2.86264,2.05974 2.70004,3.82521 5.27027,6.2398c-5.33513,3.86163 -11.90698,14.38104 -18.85534,14.61209z" data-paper-data="{&quot;origPos&quot;:null}" fill="#453725" stroke="none" stroke-width="0" stroke-linecap="butt"/><g data-paper-data="{&quot;origPos&quot;:null}" stroke="none" stroke-width="0" stroke-linecap="butt"><path d="M216.00745,46.37311l-4.45084,-2.18152l6.38006,0.4594l-1.287,-1.2788c0,0 3.8014,1.55383 9.34125,0.35838c7.53307,-1.62559 18.01484,-6.71823 23.53444,-7.26907c4.21117,-0.42028 7.27607,0.11045 9.62505,3.73817c1.21099,1.87022 1.61697,5.43924 1.61697,5.43924c0,0 -0.30372,2.10094 0.53041,3.61116c-0.32217,0.94492 -0.20589,2.52394 -0.35561,3.53927l-1.33672,-4.99401c0,0 -1.35112,-3.9945 -1.51377,-3.92546c-0.48796,0.2071 -0.17926,3.31489 -0.17926,3.31489c0,0 -1.0627,-4.29211 -1.58737,-5.65027c-1.29771,0.66382 -0.16805,1.5717 -2.54998,1.96447c-8.7774,1.44727 -12.45568,7.73033 -21.33982,7.73033c-13.66895,0 -21.5575,-3.84934 -21.5575,-3.84934z" data-paper-data="{&quot;origPos&quot;:null}" fill="url(#color-4)"/><path d="M213.84281,43.42858l-4.55249,-3.18193l6.5258,0.67007l-1.3164,-1.86522c0,0 3.88824,2.26641 9.55463,0.52273c10.09424,-3.1062 3.64524,-13.63262 26.55089,-16.89246c11.62641,-1.65463 5.60586,10.26785 7.33804,17.40078c0.45036,1.85452 -0.1437,4.37532 -0.1437,4.37532l-0.44443,-2.72046c0,0 -0.54391,-0.95363 -2.89988,-0.27961c-2.02448,0.57918 -3.81428,-0.10786 -3.81428,-0.10786c0,0 1.42509,0.18405 3.86899,-1.06377c1.61286,-0.78677 0.11025,-1.48377 -0.06298,-1.01518c-12.85035,2.47073 -12.99129,10.3913 -23.61279,10.3913c-13.98116,0 -21.15073,-4.76513 -21.15073,-4.76513z" data-paper-data="{&quot;origPos&quot;:null}" fill="#3b2f20"/></g><path d="M207.23186,65.57623c0.9519,4.62948 2.30565,8.88466 -1.35882,10.48864c-2.02245,0.88525 -6.01599,-2.48206 -7.05212,-7.5211c-1.03613,-5.03903 0.46434,-6.72006 3.32298,-7.60532c2.85866,-0.88525 4.05183,-0.40126 5.08793,4.63778z" data-paper-data="{&quot;origRot&quot;:0,&quot;origPos&quot;:null}" fill="#f6d8c8" stroke="none" stroke-width="0" stroke-linecap="butt"/><g data-paper-data="{&quot;origPos&quot;:null,&quot;origRot&quot;:0}" stroke="none" stroke-width="0" stroke-linecap="butt"><path d="M224.17614,68.43978c-4.18022,-0.80423 -6.05167,-1.60775 -6.25513,-4.87461c-0.07813,-1.25456 0.06824,-2.13424 0.85412,-2.95199c0.73671,-0.7666 2.32218,-1.57234 3.32425,-1.76284c2.39971,-0.45619 4.26976,-0.56831 6.39396,-0.15965c4.93553,1.65621 5.3765,5.71348 5.3765,5.71348c0,0 -0.54069,1.44611 -1.42354,2.32846c-2.95924,2.95748 -8.27015,1.70712 -8.27015,1.70712z" data-paper-data="{&quot;origPos&quot;:null}" fill="#000000"/><path d="M232.05788,67.3584c-1.01402,1.20834 -2.58395,1.45181 -2.58395,1.45181c-1.85673,-0.06739 -2.97284,-0.00032 -4.78493,-0.31943c-1.86252,-0.32801 -3.18613,-0.35117 -4.39291,-1.59991c-1.20772,-1.24969 -1.83621,-2.60824 -1.57831,-3.73841c0.12728,-0.55778 0.04762,-1.91538 1.64975,-2.50352c1.18023,-0.43326 2.09873,-1.30667 3.11837,-1.43634c2.41442,-0.30699 2.83367,-0.38072 5.21468,0.07739c3.74376,1.77361 4.88525,5.42518 4.88525,5.42518c0,0 -0.51392,1.43493 -1.52795,2.64325z" data-paper-data="{&quot;origPos&quot;:null}" fill="#ffffff"/></g><path d="M226.0567,68.62437c-1.35086,0 -3.4159,0.10517 -3.4159,0.10517v-0.43827c0,0 2.1006,-0.01013 3.4159,-0.01013c1.70646,0 4.32707,0.01013 4.32707,0.01013v0.43828c0,0 -2.65616,-0.10517 -4.32707,-0.10517z" data-paper-data="{&quot;origPos&quot;:null}" fill="#000000" stroke="none" stroke-width="0" stroke-linecap="butt"/><path d="M225.91754,58.96241c-1.26587,0.01567 -4.48965,1.23487 -4.48965,1.23487c0,0 -3.26872,1.36435 -2.76122,0.61401c0.49962,-0.73872 1.67881,-1.35337 3.02823,-1.86116c1.69469,-0.6377 3.05671,-0.94251 4.89596,-0.90882c2.84138,0.44812 4.5074,1.65718 5.65053,3.03489c-0.14878,0.17396 -1.58685,-0.78669 -1.69844,-0.58499c-0.43727,-0.32195 -0.87386,-0.62087 -1.4593,-0.92954c-0.93116,-0.49094 -1.90023,-0.61494 -3.1661,-0.59926z" data-paper-data="{&quot;origPos&quot;:null,&quot;origRot&quot;:0}" fill="#000000" stroke="#000000" stroke-width="0" stroke-linecap="butt"/><g data-paper-data="{&quot;origPos&quot;:null,&quot;origRot&quot;:0}" stroke="none" stroke-width="0" stroke-linecap="butt"><path d="M247.01127,66.81826c-0.77207,-0.78377 -1.29963,-2.1082 -1.29963,-2.1082c0,0 0.11391,-3.80193 4.03207,-5.56299c1.70472,-0.47439 3.23397,-0.45206 5.21525,-0.13228c0.82733,0.13354 2.16681,0.81503 2.81292,1.49735c0.68923,0.72783 0.86155,1.5415 0.87372,2.71455c-0.55212,3.05179 -2.61103,4.11859 -4.7981,4.81953c0,0 -4.24831,1.39916 -6.83623,-1.22796z" data-paper-data="{&quot;origPos&quot;:null}" fill="#000000"/><path d="M246.8711,62.04098c0.76162,-1.37851 1.36824,-1.47802 2.74007,-2.32613c1.9108,-0.53177 2.2566,-0.48146 4.24082,-0.3014c1.74128,0.35271 3.66922,2.08571 3.87003,3.45085c0.27827,1.04231 0.09855,2.34912 -0.80921,3.56731c-0.90707,1.21724 -1.98326,1.29704 -3.47981,1.68471c-1.45602,0.37717 -2.36874,0.3637 -3.87631,0.50815c0,0 -1.29286,-0.15796 -2.19141,-1.23991c-0.89855,-1.08192 -1.73725,-2.63691 -1.73725,-2.63691z" data-paper-data="{&quot;origPos&quot;:null}" fill="#ffffff"/></g><path d="M248.61873,68.5803l-0.02083,-0.46538c0,0 1.4202,0.05308 3.05133,-0.00536c1.25722,-0.04506 3.26557,-0.42383 3.26557,-0.42383l0.02085,0.46538c0,0 -1.8121,0.35686 -3.10331,0.40313c-1.59715,0.05723 -3.2136,0.02607 -3.2136,0.02607z" data-paper-data="{&quot;origPos&quot;:null,&quot;origRot&quot;:0}" fill="#000000" stroke="none" stroke-width="0" stroke-linecap="butt"/><path d="M246.68956,61.71245c0.79101,-1.33666 2.02336,-2.56069 4.28566,-3.18557c1.48992,-0.17213 2.62609,-0.31021 4.06546,0.13734c1.14612,0.35636 2.64382,1.76324 2.64382,1.76324c0,0 -1.50212,-0.3148 -2.38632,-0.50317c-1.12419,-0.23947 -2.47184,-0.43463 -3.50116,-0.35141c-1.02932,0.08322 -1.71559,0.29903 -2.73937,1.13567c-1.04207,0.85157 -2.87894,3.00671 -2.87894,3.00671z" data-paper-data="{&quot;origPos&quot;:null,&quot;origRot&quot;:0}" fill="#000000" stroke="#000000" stroke-width="0" stroke-linecap="butt"/><g><g data-paper-data="{&quot;index&quot;:null}"><path d="M277.96402,153.88927l10.63619,-39.76501l-0.20186,-6.61627l-2.70805,-9.22938l4.23283,1.13218l2.36687,8.8332l0.54302,7.01246l-10.63621,39.76503z" fill="#ffffff" stroke="none" stroke-width="0" stroke-linecap="butt"/><path d="M288.30144,114.632l-0.27958,-6.81221l4.59474,1.35732l0.41222,6.71936z" fill="#e9e9e9" stroke="none" stroke-width="0" stroke-linecap="butt"/><path d="M288.22642,114.39005l-0.01213,-1.19369l4.67782,1.0467l0.14668,1.26777z" fill="#f3f3f3" stroke="none" stroke-width="0" stroke-linecap="butt"/><path d="M287.9983,109.66958l-0.01215,-1.19368l4.67782,1.0467l0.14668,1.26775z" fill="#f3f3f3" stroke="none" stroke-width="0" stroke-linecap="butt"/><path d="M288.12811,112.14497l-0.01215,-1.19368l4.67782,1.0467l0.14671,1.26776z" fill="#f3f3f3" stroke="none" stroke-width="0" stroke-linecap="butt"/><path d="M288.56208,100.18365l1.94473,7.91068l0.30883,1.39209l-0.00417,1.25752l0.38082,1.1733l-0.02409,1.05932l0.16499,0.83407l-0.13021,1.18368l-10.28617,38.45629" fill="none" stroke="#ff0000" stroke-width="0.5" stroke-linecap="round"/></g><path d="M252.55385,190.90496l17.30231,-48.46729l31.8323,15.96376l-27.59375,43.4586c0,0 -5.43893,1.09811 -12.88866,-2.57554c-8.10564,-3.99711 -8.65222,-8.37953 -8.65222,-8.37953z" fill="url(#color-5)" stroke="none" stroke-width="0.5" stroke-linecap="butt"/><g stroke="none" stroke-width="0.5" stroke-linecap="butt"><path d="M277.96441,173.568c-0.03236,1.92026 1.92007,3.14924 1.38683,4.99425c-1.49892,5.18635 -5.28023,8.12377 -9.75164,11.14889c-6.77965,4.5868 -16.19952,2.92049 -16.19952,2.92049c0,0 -0.67867,-1.14094 -0.6624,-2.10599c0.02007,-1.1918 0.17476,-1.97823 1.00416,-2.83432c1.32083,-1.36335 6.60539,0.464 10.65544,-0.70486c0,0 8.64492,-3.24183 11.58828,-7.91031c1.27106,-2.01603 2.01235,-7.49788 1.97885,-5.50815z" data-paper-data="{&quot;origRot&quot;:0,&quot;origPos&quot;:null}" fill="#ff0000"/><path d="M275.14201,170.07123c-0.02604,1.54581 1.54566,2.53513 1.11641,4.02039c-1.20664,4.17502 -4.2506,6.53963 -7.8501,8.97487c-5.45764,3.69238 -13.04064,2.35099 -13.04064,2.35099c0,0 -0.54633,-0.91845 -0.53325,-1.69533c0.01617,-0.95941 0.14068,-1.59248 0.80835,-2.28164c1.06329,-1.09749 5.31735,0.37354 8.57766,-0.5674c0,0 6.95919,-2.60968 9.32859,-6.36783c1.0232,-1.62289 1.61995,-6.0358 1.59297,-4.43407z" data-paper-data="{&quot;origRot&quot;:0,&quot;origPos&quot;:null}" fill="#ff0000"/><path d="M275.7459,173.35096c-0.02604,1.54581 1.54565,2.53514 1.11641,4.0204c-1.20664,4.17502 -4.25061,6.53963 -7.8501,8.97487c-5.45764,3.69238 -13.04064,2.351 -13.04064,2.351c0,0 -0.54632,-0.91846 -0.53324,-1.69533c0.01617,-0.95941 0.14069,-1.59247 0.80835,-2.28164c1.06329,-1.09749 5.31735,0.37353 8.57765,-0.56741c0,0 6.95919,-2.60967 9.3286,-6.36782c1.0232,-1.62289 1.61995,-6.0358 1.59297,-4.43407z" data-paper-data="{&quot;origRot&quot;:0,&quot;origPos&quot;:null}" fill="#0700c3"/><path d="M276.02061,166.32857c0.13012,1.22494 1.72431,2.16806 1.46482,3.3045c-0.72945,3.19452 -3.38803,4.76727 -6.56797,6.34045c-4.8215,2.38528 -12.1691,0.56025 -12.1691,0.56025c0,0 -0.61171,-0.7841 -0.67711,-1.39971c-0.08076,-0.76025 -0.02575,-1.25051 0.5403,-1.73087c0.90147,-0.76499 5.09548,0.82943 8.1025,0.40892c0,0 6.35831,-1.37504 8.2356,-4.122c0.81068,-1.18623 0.93615,-4.63078 1.07097,-3.36153z" data-paper-data="{&quot;origRot&quot;:0,&quot;origPos&quot;:null}" fill="#ff0000"/><path d="M282.09368,178.51737c-0.106,0.66325 1.0254,3.91298 -0.05285,5.98628c-1.38546,2.66398 -2.32733,4.17525 -4.71619,5.99447c-2.0679,1.5748 -3.45722,2.12487 -5.65013,3.52037c-5.0743,3.22914 -11.7783,4.97228 -11.7783,4.97228c0,0 -0.43902,-0.2228 -0.38574,-0.55613c0.06579,-0.41165 0.21094,-0.71799 0.84443,-1.21368c1.00883,-0.78942 4.73133,-1.46271 7.69493,-2.85556c0,0 6.87494,-3.68729 10.6102,-7.90241c3.73527,-4.21513 3.54349,-8.63286 3.43365,-7.94561z" data-paper-data="{&quot;origRot&quot;:0,&quot;origPos&quot;:null}" fill="#ff0000"/><path d="M286.79353,179.98839c0.13235,0.81366 0.23955,1.5377 0.30833,2.2197c-0.62615,0.61987 -1.2934,1.31583 -1.91474,2.03238c0.02662,-0.22194 0.0493,-0.44218 0.06773,-0.66023c0.3443,-4.07462 -1.03474,-6.99721 -1.69257,-8.0567c0.82375,0.83139 2.91372,2.51276 3.23125,4.46486z" data-paper-data="{&quot;origRot&quot;:0,&quot;origPos&quot;:null}" fill="#ff0000"/><path d="M283.56231,175.52353c-0.14959,-0.15098 -0.25742,-0.27392 -0.3053,-0.36536c-0.08843,-0.1689 0.0571,-0.03438 0.3053,0.36536z" data-paper-data="{&quot;origRot&quot;:0,&quot;origPos&quot;:null}" fill="#4b88c4"/></g><path d="M285.70328,175.3583c-1.85263,-0.50618 -3.52622,1.0817 -5.18209,0.1088c-4.65461,-2.73482 -6.56579,-7.12509 -8.39129,-12.20567c-2.76789,-7.70333 1.17599,-16.41863 1.17599,-16.41863c0,0 1.27332,-0.37546 2.2044,-0.12107c1.14984,0.31416 1.87357,0.65851 2.49798,1.67384c0.9944,1.61693 -2.08298,6.28551 -1.9519,10.49883c0,0 1.00345,9.17809 4.79912,13.18446c1.63911,1.73011 6.76742,3.80393 4.84777,3.27942z" data-paper-data="{&quot;origRot&quot;:0,&quot;index&quot;:null}" fill="#ff0000" stroke="none" stroke-width="0.5" stroke-linecap="butt"/><path d="M279.37086,168.98356c-1.51085,-0.32794 -2.78854,1.01983 -4.16111,0.30833c-3.8583,-2.00007 -5.58173,-5.44783 -7.26575,-9.45415c-2.55335,-6.07453 0.24558,-13.2486 0.24558,-13.2486c0,0 1.00757,-0.35609 1.76689,-0.19128c0.93771,0.20353 1.53419,0.4495 2.07941,1.23909c0.86829,1.25743 -1.40656,5.14153 -1.12162,8.52291c0,0 1.19782,7.33525 4.41981,10.39408c1.39138,1.32093 5.60227,2.76944 4.03676,2.42962z" data-paper-data="{&quot;origRot&quot;:0,&quot;index&quot;:null}" fill="#ff0000" stroke="none" stroke-width="0.5" stroke-linecap="butt"/><path d="M280.72307,168.35927c-1.50162,-0.36785 -2.81456,0.94563 -4.16781,0.19802c-3.80397,-2.10156 -5.43549,-5.59374 -7.01283,-9.64327c-2.39157,-6.14001 0.59637,-13.23744 0.59637,-13.23744c0,0 1.01668,-0.32928 1.77135,-0.14441c0.93199,0.2283 1.52174,0.48997 2.04586,1.29372c0.83467,1.27999 -1.54223,5.10249 -1.34695,8.49021c0,0 1.00314,7.3644 4.14299,10.5075c1.35591,1.35731 5.52695,2.91684 3.97099,2.53567z" data-paper-data="{&quot;origRot&quot;:0,&quot;index&quot;:null}" fill="#0700c3" stroke="none" stroke-width="0.5" stroke-linecap="butt"/><path d="M276.94354,172.05828c-1.18857,0.32359 -1.86571,2.04765 -3.02897,1.9725c-3.26992,-0.21124 -5.24611,-2.58537 -7.30575,-5.4741c-3.12287,-4.37998 -2.49156,-11.92449 -2.49156,-11.92449c0,0 0.67664,-0.7288 1.27399,-0.89144c0.73767,-0.20083 1.23044,-0.22462 1.79483,0.2577c0.89883,0.76807 -0.00717,5.16254 0.88698,8.06416c0,0 2.37033,6.05809 5.38126,7.47382c1.30022,0.61138 4.72077,0.18653 3.4892,0.52183z" data-paper-data="{&quot;origRot&quot;:0,&quot;index&quot;:null}" fill="#ff0000" stroke="none" stroke-width="0.5" stroke-linecap="butt"/><path d="M277.37221,169.06039c0.33868,-2.98355 0.67635,-4.732 2.25452,-7.28653c1.36614,-2.21131 2.46603,-3.22277 4.01312,-5.31148c0.75077,-1.01361 1.59188,-1.9919 2.45244,-2.90508c0.41854,0.23885 0.86446,0.49662 1.33039,0.75929c-0.17882,0.17192 -0.35371,0.34628 -0.52322,0.52288c0,0 -5.09676,5.90626 -7.07324,11.18006c-1.43503,3.82906 -0.89912,7.01593 -0.55284,8.214c-0.56777,-1.02344 -2.12422,-3.20801 -1.90114,-5.17314z" data-paper-data="{&quot;origRot&quot;:0,&quot;index&quot;:null}" fill="#ff0000" stroke="none" stroke-width="0.5" stroke-linecap="butt"/><path d="M279.27335,174.23352c0.10311,0.18585 0.17361,0.3334 0.19494,0.4344c0.03938,0.18653 -0.06428,0.01764 -0.19494,-0.4344z" data-paper-data="{&quot;origRot&quot;:0,&quot;index&quot;:null}" fill="#4b88c4" stroke="none" stroke-width="0.5" stroke-linecap="butt"/><path d="M291.63313,166.28959c1.01369,-0.74627 5.68844,-3.01315 6.53138,-3.56879c0.6559,0.63675 -2.37639,2.91274 -1.60177,3.47888c-5.02244,1.87694 -10.16394,4.59414 -12.67172,7.47243c0.31504,-2.77992 5.31012,-5.5921 7.74211,-7.38251z" data-paper-data="{&quot;origRot&quot;:0,&quot;index&quot;:null}" fill="#ff0000" stroke="none" stroke-width="0.5" stroke-linecap="butt"/><path d="M283.07822,180.04606c0.10151,-0.01874 0.2648,-0.00972 0.4759,0.01483c-0.46773,0.05132 -0.6634,0.01977 -0.4759,-0.01483z" data-paper-data="{&quot;origRot&quot;:0}" fill="#4b88c4" stroke="none" stroke-width="0.5" stroke-linecap="butt"/><g stroke="none" stroke-width="0.5" stroke-linecap="butt"><path d="M303.09671,157.12242c-0.9733,1.99986 -9.38483,-0.0887 -18.78767,-4.66492c-9.40284,-4.57622 -16.23634,-9.90718 -15.26304,-11.90704c0.9733,-1.99986 9.38482,0.0887 18.78767,4.66493c9.40284,4.57622 16.23634,9.90718 15.26304,11.90704z" data-paper-data="{&quot;origPos&quot;:null}" fill="#d1d1d1"/><path d="M284.996,151.69179c-8.63097,-4.20056 -15.00483,-8.88569 -14.23644,-10.46452c0.76839,-1.57883 8.38808,0.54649 17.01904,4.74705c8.63096,4.20056 15.00483,8.88568 14.23644,10.46452c-0.76839,1.57883 -8.38808,-0.54649 -17.01904,-4.74705z" data-paper-data="{&quot;origPos&quot;:null}" fill="url(#color-6)"/><g data-paper-data="{&quot;origPos&quot;:null}"><path d="M290.79678,130.20952c1.99755,-0.98112 5.51346,-1.92675 5.51346,-1.92675c2.20116,1.07127 2.54074,4.05086 3.98096,6.03037c2.65549,3.6498 2.78494,4.45509 2.81293,8.96862c0.01265,2.04078 0.08949,8.47516 -0.80359,10.31019c-2.47594,5.08736 -10.79954,-0.30577 -15.60622,-2.64511c-4.80668,-2.33934 -15.13774,-5.868 -12.6618,-10.95536c2.47594,-5.08736 12.43589,-7.65601 16.76425,-9.78197z" data-paper-data="{&quot;origPos&quot;:null}" fill="#ee3838"/><path d="M302.92734,155.07562c-1.14975,2.3624 -8.9269,0.94612 -17.37073,-3.16336c-8.44384,-4.10949 -15.54047,-9.7225 -14.39073,-12.0849c0.676,-1.38899 3.65002,-4.92669 5.19312,-4.85538c4.62931,0.2139 5.9745,6.44567 11.138,9.29381c5.16349,2.84815 13.82816,2.62488 16.99599,6.22464c1.05594,1.19992 -0.4159,2.22281 -1.56564,4.58521z" data-paper-data="{&quot;origPos&quot;:null}" fill="url(#color-7)"/><path d="M303.33751,150.03873c-0.10731,2.12949 -7.95856,-0.99405 -14.81109,-4.32907c-6.85254,-3.33502 -12.61175,-7.8902 -11.67867,-9.80741c0.5486,-1.12722 2.96213,-3.99821 4.21443,-3.94035c3.75687,0.17359 4.84856,5.23094 9.03895,7.54232c4.19039,2.31137 11.22212,2.13021 13.79297,5.05155c0.85695,0.97378 -0.44764,3.32179 -0.55656,5.48295z" data-paper-data="{&quot;origPos&quot;:null}" fill="url(#color-8)"/><path d="M304.38306,143.86736c-0.80245,1.64882 -5.47487,0.39945 -11.36816,-2.46872c-5.89329,-2.86817 -10.84631,-6.78572 -10.04386,-8.43454c0.4718,-0.96943 2.54749,-3.43852 3.62448,-3.38876c3.23097,0.14929 4.2496,4.14062 8.26383,5.04882c2.11421,0.47833 -4.33663,-1.43076 -4.35107,-3.59836c-0.00629,-0.94309 4.5871,-3.39891 5.38861,-3.89591c0.78546,-0.48706 2.75026,3.25271 4.36478,5.55851c1.61454,2.30583 1.46578,3.28221 3.22615,5.2826c0.73698,0.83747 1.69768,4.24753 0.89523,5.89635z" data-paper-data="{&quot;origPos&quot;:null}" fill="url(#color-9)"/></g></g><g stroke-linecap="butt"><g data-paper-data="{&quot;origPos&quot;:null,&quot;origRot&quot;:0}"><path d="M285.01353,166.84001l2.65698,-6.84828l6.23856,2.40573l-2.65698,6.84827z" data-paper-data="{&quot;origPos&quot;:null}" fill="#237859" stroke="none" stroke-width="0.5"/><path d="M286.82684,166.99854c0,0 -0.10129,-0.05029 -0.0799,-0.13232c0.06411,-0.24615 0.62544,-2.04253 1.0102,-3.33736c0.23208,-0.781 0.71664,-2.51686 0.91462,-2.59028c0.07514,-0.02786 0.15836,-0.02384 0.15836,-0.02384l3.55935,1.37255c0,0 0.09785,0.06923 0.12559,0.13364c0.08538,0.19113 -0.83536,2.01556 -0.97656,2.34955c-0.58112,1.37454 -1.46647,3.08149 -1.5819,3.31c-0.03848,0.07616 -0.11402,0.08102 -0.11402,0.08102z" data-paper-data="{&quot;origPos&quot;:null}" fill="#ffffff" stroke="none" stroke-width="0.5"/><path d="M288.40819,163.15283l0.53286,-1.37341l2.64038,1.01819l-0.53286,1.37341z" data-paper-data="{&quot;origPos&quot;:null}" fill="#eb7816" stroke="#ffffff" stroke-width="0.5"/><path d="M287.73106,167.56351c0,0 0.95702,-2.49501 1.6616,-3.32277c0.85332,-1.00247 2.33031,-1.36695 2.33031,-1.36695l-0.52803,1.41853c0,0 -0.78808,0.17443 -1.17791,0.78716c-0.51145,0.80391 -1.25701,2.88081 -1.25701,2.88081z" data-paper-data="{&quot;origPos&quot;:null}" fill="#e0001f" stroke="#ffffff" stroke-width="0.5"/><g data-paper-data="{&quot;origPos&quot;:null}"><path d="M287.36535,165.64893l0.53287,-1.37341l3.06751,1.18289l-0.53286,1.37341z" data-paper-data="{&quot;origPos&quot;:null}" fill="#ffffff" stroke="#ffffff" stroke-width="0.5"/><text transform="translate(287.41095,165.41633) rotate(21.10313) scale(0.02395,0.03717) skewX(-0.15694)" font-size="40" xml:space="preserve" data-paper-data="{&quot;origPos&quot;:null}" fill="#237859" fill-rule="nonzero" stroke="#237859" stroke-width="1" stroke-linecap="butt" stroke-linejoin="miter" stroke-miterlimit="10" stroke-dasharray="" stroke-dashoffset="0" font-family="&quot;ヒラギノ角ゴ Pro W3&quot;, &quot;Hiragino Kaku Gothic Pro&quot;, Osaka, &quot;メイリオ&quot;, Meiryo, &quot;ＭＳ Ｐゴシック&quot;, &quot;MS PGothic&quot;" font-weight="normal" text-anchor="start" style="mix-blend-mode: normal"><tspan x="0" dy="0">ELEVEN</tspan></text></g></g><text transform="translate(288.3203,159.76834) rotate(22.38194) scale(0.04136,0.04136)" font-size="40" xml:space="preserve" data-paper-data="{&quot;origPos&quot;:null,&quot;origRot&quot;:-0.46784}" fill="#ffffff" fill-rule="nonzero" stroke="none" stroke-width="1" stroke-linecap="butt" stroke-linejoin="miter" stroke-miterlimit="10" stroke-dasharray="" stroke-dashoffset="0" font-family="Sans Serif" font-weight="normal" text-anchor="start" style="mix-blend-mode: normal"><tspan x="0" dy="0">Only At</tspan></text><g data-paper-data="{&quot;origPos&quot;:null}" fill="#ffffff" stroke-width="1" font-family="Marker" font-weight="normal" font-size="40" text-anchor="start"><text transform="translate(260.69288,168.90972) rotate(12.71589) scale(0.19566,0.19566)" font-size="40" xml:space="preserve" data-paper-data="{&quot;origPos&quot;:null,&quot;origRot&quot;:2.72593}" fill="#ffffff" fill-rule="nonzero" stroke="#ffffff" stroke-width="1" stroke-linecap="butt" stroke-linejoin="miter" stroke-miterlimit="10" stroke-dasharray="" stroke-dashoffset="0" font-family="Marker" font-weight="normal" text-anchor="start" style="mix-blend-mode: normal"><tspan x="0" dy="0">SLURPEE</tspan></text><text transform="translate(261.82364,169.05731) rotate(12.71287) scale(0.17758,0.17758)" font-size="40" xml:space="preserve" data-paper-data="{&quot;origPos&quot;:null,&quot;origRot&quot;:2.72593}" fill="#ffffff" fill-rule="nonzero" stroke="#252152" stroke-width="1" stroke-linecap="butt" stroke-linejoin="miter" stroke-miterlimit="10" stroke-dasharray="" stroke-dashoffset="0" font-family="Marker" font-weight="normal" text-anchor="start" style="mix-blend-mode: normal"><tspan x="0" dy="0">SLURPEE</tspan></text></g></g></g><g stroke="none" stroke-width="0" stroke-linecap="butt"><path d="M236.52291,181.45993l-8.43053,-3.12259l4.52032,-12.20421l8.09372,3.43788c0,0 1.75987,1.75896 0.9659,3.90261c-0.52544,1.41863 -5.1494,7.9863 -5.1494,7.9863z" data-paper-data="{&quot;origPos&quot;:null}" fill="#000000"/><path d="M216.71105,158.2378c10.03219,5.3646 18.40549,8.52308 24.91582,15.05622c3.48469,3.49692 2.32103,6.35219 -2.62298,6.44297c-9.49136,0.17433 -20.41469,-4.85152 -30.10273,-8.96986c-8.68696,-3.69278 -11.79111,-1.80048 -28.87743,-10.01164c-11.14878,-4.96027 -0.22323,-26.13373 10.57974,-20.47204c10.80296,5.66168 16.07541,12.58977 26.10759,17.95436z" data-paper-data="{&quot;origPos&quot;:null}" fill="url(#color-10)"/><g data-paper-data="{&quot;origPos&quot;:null}"><path d="M234.97696,180.17405l-6.88196,-1.78718l4.34931,-12.33656l9.14373,4.09634c0,0 -3.78747,0.93111 -5.19294,3.67885z" data-paper-data="{&quot;origPos&quot;:null}" fill="url(#color-11)"/><path d="M232.17282,180.02727c0,0 -37.75612,-11.15456 -50.34507,-18.29604c-7.67564,-4.35426 -9.5528,-6.50531 -5.71324,-14.20041c3.42096,-7.39149 8.64504,-9.30682 14.42045,-7.74549c5.77542,1.56134 50.39873,30.43227 50.39873,30.43227c0,0 -5.2897,-1.47209 -6.90601,1.61586c-1.71553,3.27757 -1.85487,8.19378 -1.85487,8.19378z" data-paper-data="{&quot;origPos&quot;:null,&quot;origRot&quot;:0}" fill="#1e4994"/></g></g><g data-paper-data="{&quot;origRot&quot;:0}" stroke="none" stroke-width="0" stroke-linecap="butt"><path d="M199.9274,101.06276c2.84243,9.59319 0.03854,11.46869 -1.30919,21.39631c-3.2091,23.63872 -3.38338,22.74528 -6.25685,30.56952c-3.49362,9.51289 -22.30416,3.22221 -20.92829,-6.86307c0.75926,-5.56545 0.36703,-18.68538 1.14923,-24.24735c2.67755,-19.03963 11.36085,-31.08307 18.39011,-33.54684c7.41178,-2.59785 7.50115,7.78478 8.955,12.69147z" data-paper-data="{&quot;origPos&quot;:null,&quot;origRot&quot;:0}" fill="#2152a6"/><path d="M188.81262,88.84688c0.67452,6.0236 1.86371,12.94468 1.18164,17.80072c-2.35672,16.77891 -4.98628,33.51348 -7.65589,50.24166c-5.77862,-1.03752 -11.59785,-5.56517 -10.81075,-11.33467c0.75926,-5.56545 0.36703,-18.68538 1.14923,-24.24735c2.39711,-17.04543 9.60779,-28.48348 16.13578,-32.46038z" data-paper-data="{&quot;origPos&quot;:null,&quot;origRot&quot;:0}" fill="#000000"/></g><g stroke="none" stroke-width="0" stroke-linecap="butt"><path d="M248.60989,187.06198c-7.13245,-3.39512 -14.58662,-7.10311 -14.03929,-9.57417c0.40678,-1.83657 0.53661,-7.14116 4.84331,-6.38665c5.44018,0.95307 9.13126,-0.20797 14.3482,1.43366c2.2357,0.70351 5.02601,2.69383 4.96213,4.98979c-0.06497,2.33539 -3.51488,12.67876 -10.11433,9.53736z" data-paper-data="{&quot;origRot&quot;:0,&quot;index&quot;:null}" fill="url(#color-12)"/><g data-paper-data="{&quot;index&quot;:null}" fill="#fde6d9"><path d="M245.94225,185.5712c-0.87782,-0.51151 -0.21813,-1.84478 -0.21813,-1.84478c0.45284,-1.74718 4.79685,-8.58614 5.773,-7.08891c2.21418,3.39616 6.13584,6.41151 8.17329,6.6626c2.09915,0.32784 2.54228,1.37948 2.07313,3.292c-0.52342,2.13377 -1.22576,2.15795 -3.42545,1.91134c-0.73322,-0.08221 -2.95878,-0.41861 -3.68164,-0.54792c-5.28258,-0.94502 -6.11693,-0.88261 -8.69421,-2.38438z" data-paper-data="{&quot;origRot&quot;:0,&quot;origPos&quot;:null}"/><path d="M263.25813,189.10023c-4.19903,-0.23477 -4.84554,-0.06395 -6.97617,-1.20067c-0.7257,-0.38717 -0.31565,-1.78329 -0.31565,-1.78329c0.21591,-1.77549 -0.07239,-3.60838 2.48373,-2.85c1.92676,0.57166 3.70057,0.61949 5.43044,0.71622c0.62596,0.035 2.31971,-0.0726 2.95313,-0.10076c1.88827,-0.08392 2.25041,1.16531 1.86617,2.94647c-0.30263,1.40282 -1.24263,2.50679 -5.44166,2.27202z" data-paper-data="{&quot;origRot&quot;:0,&quot;origPos&quot;:null}"/><path d="M265.03888,188.4701c-0.73716,-0.20872 -0.81513,-1.62314 -0.81513,-1.62314c-0.35961,-1.73199 0.17334,-2.02689 1.38114,-2.61469c1.39187,-0.67738 3.23084,-0.74598 5.58625,-1.00537c2.35542,-0.25938 5.55621,1.06041 5.43657,1.95824c-0.11184,0.83924 -1.53196,1.99693 -5.18325,2.69222c-3.65128,0.69527 -4.24126,1.20555 -6.40555,0.59275z" data-paper-data="{&quot;origRot&quot;:0,&quot;origPos&quot;:null}"/></g><g data-paper-data="{&quot;index&quot;:null}" fill="#fde6d9"><path d="M258.63474,185.8865c-4.19903,-0.23477 -4.84554,-0.06395 -6.97617,-1.20067c-0.7257,-0.38717 -0.31565,-1.78329 -0.31565,-1.78329c0.21591,-1.77549 -0.07239,-3.60838 2.48373,-2.85c1.92676,0.57166 3.70057,0.61949 5.43044,0.71622c0.62596,0.035 2.31971,-0.0726 2.95313,-0.10076c1.88827,-0.08392 2.25041,1.16531 1.86617,2.94647c-0.30263,1.40282 -1.24263,2.50679 -5.44166,2.27202z" data-paper-data="{&quot;origRot&quot;:0,&quot;origPos&quot;:null}"/><path d="M260.4155,185.25637c-0.73716,-0.20872 -0.81513,-1.62314 -0.81513,-1.62314c-0.35961,-1.73199 0.17334,-2.02689 1.38114,-2.61469c1.39187,-0.67738 3.23084,-0.74598 5.58625,-1.00537c2.35542,-0.25938 5.55621,1.06041 5.43657,1.95824c-0.11184,0.83924 -1.53196,1.99693 -5.18325,2.69222c-3.65128,0.69527 -4.24126,1.20555 -6.40555,0.59275z" data-paper-data="{&quot;origRot&quot;:0,&quot;origPos&quot;:null}"/></g><g data-paper-data="{&quot;index&quot;:null}" fill="#fde6d9"><path d="M255.803,181.6279c-4.19903,-0.23477 -4.84554,-0.06395 -6.97617,-1.20067c-0.7257,-0.38717 -0.31565,-1.78329 -0.31565,-1.78329c0.21591,-1.77549 -0.07239,-3.60838 2.48373,-2.85c1.92676,0.57166 3.70057,0.61949 5.43044,0.71622c0.62596,0.035 2.31971,-0.0726 2.95313,-0.10076c1.88827,-0.08392 2.25041,1.16531 1.86617,2.94647c-0.30263,1.40282 -1.24263,2.50679 -5.44166,2.27202z" data-paper-data="{&quot;origRot&quot;:0,&quot;origPos&quot;:null}"/><path d="M257.58375,180.99777c-0.73716,-0.20872 -0.81513,-1.62314 -0.81513,-1.62314c-0.35961,-1.73199 0.17334,-2.02689 1.38114,-2.61469c1.39187,-0.67738 3.23084,-0.74598 5.58625,-1.00537c2.35542,-0.25938 5.55621,1.06041 5.43657,1.95824c-0.11184,0.83924 -1.53196,1.99693 -5.18325,2.69222c-3.65128,0.69527 -4.24126,1.20555 -6.40555,0.59275z" data-paper-data="{&quot;origRot&quot;:0,&quot;origPos&quot;:null}"/></g><g data-paper-data="{&quot;index&quot;:null}" fill="#fde6d9"><path d="M251.20829,177.58482c-4.19903,-0.23477 -4.84554,-0.06395 -6.97617,-1.20067c-0.7257,-0.38717 -0.31565,-1.78329 -0.31565,-1.78329c0.21591,-1.77549 -0.07239,-3.60838 2.48373,-2.85c1.92676,0.57166 3.70057,0.61949 5.43044,0.71622c0.62596,0.035 2.31971,-0.0726 2.95313,-0.10076c1.88827,-0.08392 2.25041,1.16531 1.86617,2.94647c-0.30263,1.40282 -1.24263,2.50679 -5.44166,2.27202z" data-paper-data="{&quot;origRot&quot;:0,&quot;origPos&quot;:null}"/><path d="M252.98905,176.95469c-0.73716,-0.20872 -0.81513,-1.62314 -0.81513,-1.62314c-0.35961,-1.73199 0.17334,-2.02689 1.38114,-2.61469c1.39187,-0.67738 3.23084,-0.74598 5.58625,-1.00537c2.35542,-0.25938 5.55621,1.06041 5.43657,1.95824c-0.11184,0.83924 -1.53196,1.99693 -5.18325,2.69222c-3.65128,0.69527 -4.24126,1.20555 -6.40555,0.59275z" data-paper-data="{&quot;origRot&quot;:0,&quot;origPos&quot;:null}"/></g></g><g data-paper-data="{&quot;origPos&quot;:null}" stroke="none" stroke-width="0" stroke-linecap="butt"><path d="M238.33966,73.19233l6.21258,-0.87537c0.68515,0.40534 -0.17336,2.43316 -1.91817,2.43726c-1.71158,0.00404 -4.57586,-0.54495 -4.57586,-0.54495l0.28143,-1.01695z" data-paper-data="{&quot;origPos&quot;:null,&quot;index&quot;:null}" fill="#f4d7c8"/><path d="M243.49788,73.76114c0.42726,-0.16873 0.83793,-0.15265 0.91725,0.03588c0.07932,0.18852 -0.20277,0.47815 -0.63003,0.6469c-0.42727,0.16872 -0.83793,0.15267 -0.91725,-0.03588c-0.07932,-0.18852 0.20277,-0.47816 0.63001,-0.64691z" data-paper-data="{&quot;origPos&quot;:null,&quot;origRot&quot;:0}" fill="url(#color-13)"/><path d="M238.21392,70.69881c0,0 -0.33076,-4.27423 -0.85662,-7.00996c-0.41076,-2.13694 -1.54335,-5.47565 -1.54335,-5.47565c0,0 2.45775,2.52388 2.86995,4.16066c0.63791,2.53309 0.1698,6.40544 0.1698,6.40544z" data-paper-data="{&quot;origPos&quot;:null}" fill="url(#color-14)"/><path d="M240.24038,73.61583c0.54969,0.01557 0.98795,0.19314 0.97891,0.39656c-0.00904,0.20342 -0.46198,0.35567 -1.01168,0.34009c-0.54967,-0.01561 -0.98795,-0.19312 -0.97891,-0.39655c0.00904,-0.20342 0.46198,-0.35568 1.01168,-0.34011z" data-paper-data="{&quot;origPos&quot;:null}" fill="url(#color-15)"/><path d="M243.23633,74.22285c-0.83199,-0.03142 -1.27049,-0.34736 -1.94072,-0.73114c-1.27358,-0.50322 -2.58795,-0.17897 -2.96328,0.75387c-0.32056,0.19007 -0.7847,-0.2742 -0.98443,-0.56299c-0.41098,-0.59422 -0.55132,-1.41947 -0.22103,-2.05907c0.25174,-0.48745 0.32931,-0.64191 0.84302,-1.15187c0.4491,-0.44583 1.37659,-6.08274 0.02473,-9.47409c-1.99994,-5.01717 -6.14018,-5.52447 -11.69368,-5.76313c-2.71406,-0.11664 -9.13567,2.62594 -9.13567,2.62594c0,0 2.32286,-5.0117 5.80198,-6.54856c5.14317,-2.27195 9.47102,-2.24244 15.11127,-1.85993c18.30665,0.27287 20.22128,5.48671 20.22128,5.48671c0,0 -5.47739,0.71433 -8.84983,1.69167c-4.13602,1.19862 -5.30256,2.74912 -5.93892,4.88925c-0.65944,2.21772 -0.76703,4.23085 -0.15237,6.86922c0.27753,1.19125 1.51597,1.75109 1.70613,2.95827c0.24747,1.57091 -0.99648,2.90728 -1.82848,2.87586z" data-paper-data="{&quot;origPos&quot;:null}" fill="url(#color-16)"/></g><path d="M252.5858,54.21754c3.48978,0.04588 6.62935,2.17362 7.8427,2.95768c0.56217,0.36324 -4.78602,-1.58535 -8.19637,-1.34869c-2.56137,0.17776 -3.59478,0.15602 -5.59642,1.68895c-0.56618,0.43365 -1.05631,0.43298 -1.41895,0.2469c-0.36266,-0.18608 -0.36026,-0.89124 0.20595,-1.32488c0,0 2.85156,-2.27658 7.16306,-2.21991z" data-paper-data="{&quot;origRot&quot;:0,&quot;origPos&quot;:null,&quot;index&quot;:null}" fill="#38301c" stroke="none" stroke-width="0" stroke-linecap="butt"/><path d="M225.07174,54.08519c5.24298,-0.38868 8.85678,1.6637 8.85678,1.6637c0.71641,0.38915 0.76388,1.09274 0.33433,1.30638c-0.42953,0.21367 -1.0259,0.25205 -1.74229,-0.1371c-2.53258,-1.3757 -3.78872,-1.27436 -6.91683,-1.25449c-4.16492,0.0265 -10.54987,2.38316 -9.88875,1.97734c1.42697,-0.87595 5.11299,-3.24128 9.35672,-3.55588z" data-paper-data="{&quot;origRot&quot;:0,&quot;origPos&quot;:null,&quot;index&quot;:null}" fill="#38301c" stroke="none" stroke-width="0" stroke-linecap="butt"/><g stroke-linecap="butt"><g stroke="#000000" stroke-width="0"><path d="M231.27139,63.72434c0.16577,1.01802 -0.06463,2.0139 -0.57114,2.80005c-0.50651,0.78615 -1.41802,1.07519 -2.35574,1.25518c-0.9377,0.18002 -1.72628,0.2173 -2.45044,-0.33266c-0.72415,-0.54992 -1.25513,-1.39968 -1.42094,-2.4177c-0.08915,-0.5475 -0.00135,-1.0886 0.12,-1.59408c2.97291,-1.12526 3.43259,-1.70547 6.612,-0.03458c0.02621,0.10587 0.04838,0.21383 0.06628,0.32378z" data-paper-data="{&quot;origPos&quot;:null}" fill="#898151"/><path d="M229.8817,61.3861c0.72414,0.54992 1.2551,1.39964 1.42085,2.41771c0.03516,0.21589 -0.00987,0.4308 -0.00919,0.64291c-0.52337,-0.11397 -0.67958,-1.01798 -3.40008,-1.05694c-2.4758,-0.03546 -3.03289,0.64973 -3.43559,0.83305c0.03986,-0.69867 0.25992,-1.35879 0.61779,-1.91423c0.50651,-0.78615 1.28925,-1.36264 2.22696,-1.54264c0.93771,-0.17996 1.85507,0.0702 2.57925,0.62015z" data-paper-data="{&quot;origPos&quot;:null}" fill="#4d461c"/></g><g stroke="none" stroke-width="1"><path d="M227.14308,62.14434c0.43535,-0.38229 0.98678,-0.55621 1.5505,-0.43108c0.56374,0.12511 1.03419,0.52584 1.33872,1.07238c0.30454,0.54655 0.44304,1.23885 0.34337,1.94655c-0.09969,0.7077 -0.41888,1.29841 -0.85419,1.68072c-0.43532,0.38229 -0.98677,0.55621 -1.55046,0.43108c-0.56371,-0.12511 -1.03423,-0.52585 -1.33875,-1.0724c-0.30454,-0.54655 -0.44302,-1.23882 -0.34336,-1.94649c0.09966,-0.7077 0.41885,-1.29844 0.85418,-1.68076z" data-paper-data="{&quot;origPos&quot;:null}" fill="#000000"/><path d="M229.14303,62.50952c0.13124,-0.17867 0.31522,-0.27727 0.52056,-0.25325c0.20531,0.02394 0.39373,0.16601 0.53209,0.37621c0.13839,0.21017 0.22667,0.48855 0.23209,0.78477c0.00542,0.29619 -0.07299,0.55508 -0.20422,0.7338c-0.13124,0.17867 -0.31522,0.27725 -0.52055,0.25325c-0.20533,-0.024 -0.3937,-0.16601 -0.53207,-0.37623c-0.13835,-0.21015 -0.22668,-0.4885 -0.2321,-0.78475c-0.00542,-0.29619 0.07303,-0.55513 0.20426,-0.73388z" data-paper-data="{&quot;origPos&quot;:null,&quot;origRot&quot;:0}" fill="#ffffff"/><path d="M226.25898,64.69961c0.11554,-0.07595 0.26192,-0.11051 0.4116,-0.08563c0.14969,0.02487 0.27455,0.1045 0.3554,0.2131c0.08083,0.10861 0.11761,0.24613 0.09114,0.38685c-0.02643,0.14069 -0.1112,0.25807 -0.22675,0.334c-0.11554,0.07595 -0.26189,0.11057 -0.41159,0.08566c-0.14967,-0.02486 -0.27449,-0.10446 -0.35533,-0.21307c-0.08083,-0.10858 -0.11762,-0.24617 -0.09114,-0.38688c0.02649,-0.14071 0.1112,-0.25802 0.22672,-0.33396z" data-paper-data="{&quot;origPos&quot;:null}" fill="#ffffff"/></g></g><g stroke-linecap="butt"><g data-paper-data="{&quot;origRot&quot;:0}" stroke="#000000" stroke-width="0"><path d="M250.05878,62.99602c0.02417,-0.10459 0.05153,-0.20698 0.08187,-0.30701c2.66349,-1.38219 2.97366,-0.79084 5.21914,0.50425c0.04976,0.49529 0.06976,1.02248 -0.05057,1.54321c-0.22378,0.96827 -0.72064,1.74853 -1.34273,2.2264c-0.62208,0.47787 -1.66951,0.50019 -2.3937,0.26009c-0.72422,-0.24009 -0.98982,-0.69763 -1.3182,-1.49057c-0.32837,-0.79294 -0.41957,-1.76811 -0.19582,-2.73638z" data-paper-data="{&quot;origPos&quot;:null}" fill="#898151"/><path d="M251.36957,60.84386c0.6221,-0.47787 1.36945,-0.65337 2.09366,-0.41333c0.72422,0.24006 1.28987,0.85082 1.61826,1.64377c0.23202,0.56024 0.34565,1.21143 0.31342,1.88691c-0.30134,-0.20518 -0.67887,-0.90453 -2.63755,-1.04672c-2.15225,-0.15626 -2.35805,0.70291 -2.7818,0.77537c0.01987,-0.20417 0.00389,-0.41424 0.05134,-0.61959c0.22374,-0.96829 0.72059,-1.74855 1.34265,-2.22642z" data-paper-data="{&quot;origPos&quot;:null}" fill="#4d461c"/></g><g data-paper-data="{&quot;index&quot;:null,&quot;origRot&quot;:0}" stroke="none" stroke-width="1"><path d="M251.89968,61.9491c0.38249,-0.33985 0.86159,-0.48776 1.34611,-0.36314c0.48455,0.12462 0.88382,0.49843 1.13729,1.00187c0.25348,0.50346 0.36106,1.13646 0.26279,1.77899c-0.09831,0.64253 -0.3841,1.17437 -0.76655,1.51423c-0.38247,0.33985 -0.86157,0.48776 -1.34609,0.36314c-0.48454,-0.12462 -0.88385,-0.49843 -1.13731,-1.00189c-0.25348,-0.50346 -0.36108,-1.13645 -0.26278,-1.77895c0.09827,-0.64254 0.38409,-1.17439 0.76656,-1.51426z" data-paper-data="{&quot;origPos&quot;:null}" fill="#000000"/><path d="M253.69827,62.32127c0.11641,-0.1602 0.27694,-0.24648 0.45383,-0.22072c0.17684,0.02569 0.33706,0.15861 0.45288,0.35265c0.11585,0.194 0.18726,0.44918 0.18682,0.719c-0.00043,0.26981 -0.07262,0.50406 -0.18901,0.66431c-0.11641,0.1602 -0.27694,0.24649 -0.45381,0.22073c-0.17686,-0.02575 -0.33703,-0.15864 -0.45288,-0.35268c-0.11582,-0.19398 -0.18726,-0.44912 -0.18683,-0.71899c0.00043,-0.26981 0.07265,-0.5041 0.18905,-0.66437z" data-paper-data="{&quot;origPos&quot;:null,&quot;origRot&quot;:0}" fill="#ffffff"/><path d="M251.17032,64.26085c0.10106,-0.06696 0.22804,-0.09566 0.35685,-0.07016c0.12881,0.02549 0.23522,0.10038 0.30316,0.20078c0.06791,0.10042 0.09729,0.22636 0.072,0.35398c-0.02525,0.12761 -0.10047,0.23288 -0.20155,0.29983c-0.10106,0.06696 -0.22801,0.09573 -0.35684,0.0702c-0.12879,-0.02547 -0.2352,-0.10032 -0.30311,-0.20074c-0.06791,-0.10041 -0.0973,-0.22639 -0.072,-0.35402c0.02531,-0.12763 0.10048,-0.23284 0.20154,-0.29981z" data-paper-data="{&quot;origPos&quot;:null}" fill="#ffffff"/></g></g><g fill="#fde6d9" stroke="none" stroke-width="0" stroke-linecap="butt"><g><path d="M298.02682,174.20507c-1.22833,2.56124 -1.89999,2.91821 -5.48316,6.33186c-0.49032,0.46711 -2.03075,1.85215 -2.55255,2.28382c-1.56542,1.29501 -2.11666,1.6199 -3.5843,0.04091c-1.31546,-1.41526 -1.50059,-2.53858 -0.05292,-3.85402c1.43864,-1.21901 2.94294,-5.74481 2.94627,-9.75791c0.00147,-1.76922 6.75229,1.97915 7.97264,3.26013c0,0 1.1724,0.82289 0.75403,1.69526z" data-paper-data="{&quot;origRot&quot;:0,&quot;origPos&quot;:null}"/><path d="M286.49696,185.76603c-3.10615,2.26895 -4.37918,1.7814 -5.31222,0.72289c-1.18467,-1.344 -1.53067,-2.59752 -0.0392,-3.45474c0.50031,-0.28755 1.85428,-1.02864 2.31732,-1.36687c1.27963,-0.93475 2.61741,-1.84903 3.81096,-3.28949c1.58341,-1.91096 2.27763,-0.19139 3.33025,1.23057c0,0 1.01215,0.99986 0.64845,1.69033c-1.0678,2.02718 -1.64942,2.19837 -4.75557,4.46732z" data-paper-data="{&quot;origRot&quot;:0,&quot;origPos&quot;:null}"/><path d="M284.81517,186.10021c-1.35534,1.59279 -2.06312,1.44397 -5.21335,2.64277c-3.15024,1.19879 -4.81868,0.90134 -5.32374,0.23402c-0.54032,-0.71391 1.25754,-3.42543 3.19527,-4.36157c1.93772,-0.93613 3.38368,-1.78227 4.79051,-1.88433c1.22078,-0.08857 1.77722,-0.09707 2.3663,1.57075c0,0 0.64665,1.25583 0.18502,1.79834z" data-paper-data="{&quot;origRot&quot;:0,&quot;origPos&quot;:null}"/></g><g><path d="M287.78269,182.88319c-3.43924,1.72276 -4.61387,1.03096 -5.35856,-0.16755c-0.94553,-1.52176 -1.07899,-2.81528 0.53392,-3.41346c0.54105,-0.20065 1.99912,-0.70709 2.51182,-0.9639c1.41686,-0.70973 2.88767,-1.38965 4.30345,-2.61237c1.87823,-1.6221 2.27785,0.18874 3.08024,1.7655c0,0 0.83243,1.15379 0.35933,1.77442c-1.38901,1.82216 -1.99097,1.89459 -5.4302,3.61735z" data-paper-data="{&quot;origRot&quot;:0,&quot;origPos&quot;:null}"/><path d="M286.06878,182.93401c-1.60058,1.34613 -2.27391,1.08206 -5.57926,1.74217c-3.30535,0.6601 -4.90142,0.09022 -5.28889,-0.65157c-0.41452,-0.79359 1.80788,-3.16963 3.87396,-3.77166c2.06607,-0.60203 3.63228,-1.19681 5.03657,-1.0643c1.21858,0.11499 1.76872,0.19883 2.07324,1.94121c0,0 0.42957,1.34564 -0.11559,1.80413z" data-paper-data="{&quot;origRot&quot;:0,&quot;origPos&quot;:null}"/></g><g><path d="M289.55875,179.63053c-3.43924,1.72276 -4.61387,1.03096 -5.35856,-0.16755c-0.94553,-1.52176 -1.07899,-2.81528 0.53392,-3.41346c0.54105,-0.20065 1.99912,-0.70709 2.51182,-0.9639c1.41686,-0.70973 2.88767,-1.38965 4.30345,-2.61237c1.87823,-1.6221 2.27785,0.18874 3.08024,1.7655c0,0 0.83243,1.15379 0.35933,1.77442c-1.38901,1.82216 -1.99097,1.89459 -5.4302,3.61735z" data-paper-data="{&quot;origRot&quot;:0,&quot;origPos&quot;:null}"/><path d="M287.84483,179.68136c-1.60058,1.34613 -2.27391,1.08206 -5.57926,1.74217c-3.30535,0.6601 -4.90142,0.09022 -5.28889,-0.65157c-0.41452,-0.79359 1.80788,-3.16963 3.87396,-3.77166c2.06607,-0.60203 3.63228,-1.19681 5.03657,-1.0643c1.21858,0.11499 1.76872,0.19883 2.07324,1.94121c0,0 0.42957,1.34564 -0.11559,1.80413z" data-paper-data="{&quot;origRot&quot;:0,&quot;origPos&quot;:null}"/></g><g><path d="M292.60559,173.82237c-3.43924,1.72276 -4.61387,1.03096 -5.35856,-0.16755c-0.94553,-1.52176 -1.07899,-2.81528 0.53392,-3.41346c0.54105,-0.20065 1.99912,-0.70709 2.51182,-0.9639c1.41686,-0.70973 2.88767,-1.38965 4.30345,-2.61237c1.87823,-1.6221 2.27785,0.18874 3.08024,1.7655c0,0 0.83243,1.15379 0.35933,1.77442c-1.38901,1.82216 -1.99097,1.89459 -5.4302,3.61735z" data-paper-data="{&quot;origRot&quot;:0,&quot;origPos&quot;:null}"/><path d="M290.89167,173.87319c-1.60058,1.34613 -2.27391,1.08206 -5.57926,1.74217c-3.30535,0.6601 -4.90142,0.09022 -5.28889,-0.65157c-0.41452,-0.79359 1.80788,-3.16963 3.87396,-3.77166c2.06607,-0.60203 3.63228,-1.19681 5.03657,-1.0643c1.21858,0.11499 1.76872,0.19883 2.07324,1.94121c0,0 0.42957,1.34564 -0.11559,1.80413z" data-paper-data="{&quot;origRot&quot;:0,&quot;origPos&quot;:null}"/></g></g><path d="M223.875,85.6037c0,0 1.10591,-5.50367 5.91444,-6.9553c3.7692,-1.13787 20.58556,-1.0447 20.58556,-1.0447l-2.5,7c0,0 -3.34053,-1.31914 -6.25823,-1.19757c-4.43124,0.18464 -17.74177,2.19757 -17.74177,2.19757z" fill="#ffffff" stroke="#000000" stroke-width="0.5" stroke-linecap="butt"/><path d="M232.625,78.1037v2.5" fill="none" stroke="#000000" stroke-width="0.5" stroke-linecap="round"/><path d="M234.875,78.3537v1.5" fill="none" stroke="#000000" stroke-width="0.5" stroke-linecap="round"/><path d="M230.375,78.8537v2.5" fill="none" stroke="#000000" stroke-width="0.5" stroke-linecap="round"/></g></g></svg>