<svg xmlns="http://www.w3.org/2000/svg" xmlns:xlink="http://www.w3.org/1999/xlink" version="1.1" width="233.42001" height="347.62267" viewBox="0,0,233.42001,347.62267"><g><g data-paper-data="{&quot;isPaintingLayer&quot;:true}" fill-rule="nonzero" stroke-linejoin="miter" stroke-miterlimit="10" stroke-dasharray="" stroke-dashoffset="0" style="mix-blend-mode: normal"><path d="M 69.116 258.8205 C 69.116 258.8205 68.3723 234.4835 70.8343 226.156 C 73.4779 217.214 90.89 207.1928 90.89 207.1928 " data-paper-data="{&quot;index&quot;:null}" fill="none" stroke="#000000" stroke-width="2" stroke-linecap="round"/><path d="M 115.5462 207.5261 C 115.5462 207.5261 134.625 216.7825 137.2686 225.8745 C 139.7306 234.3417 139.9869 258.8205 139.9869 258.8205 " data-paper-data="{&quot;index&quot;:null}" fill="none" stroke="#000000" stroke-width="2" stroke-linecap="round"/><path d="M 89.4836 276.4311 C 89.4836 276.4311 86.6348 338.3894 85.6637 340.3619 C 84.1159 343.5087 76.3119 341.1587 76.3119 341.1587 " data-paper-data="{&quot;origRot&quot;:0,&quot;index&quot;:null}" fill="none" stroke="#000000" stroke-width="2" stroke-linecap="round"/><path d="M 124.4971 337.9205 C 124.4971 337.9205 117.6113 342.5969 116.829 339.1781 C 116.3964 337.2901 114.734 280.8882 114.734 280.8882 " data-paper-data="{&quot;origRot&quot;:0,&quot;index&quot;:null}" fill="none" stroke="#000000" stroke-width="2" stroke-linecap="round"/><path d="M 105.2728 201.4421 C 111.7014 202.1109 117.2425 207.6308 121.0005 216.0072 C 124.7596 224.3849 126.7357 235.6186 126.0351 247.7152 C 125.3357 259.8124 122.0895 270.503 117.4108 278.003 C 112.7333 285.5013 106.6233 289.8085 100.1946 289.1396 C 93.7659 288.4708 88.2248 282.9515 84.4668 274.5751 C 80.7071 266.1973 78.7316 254.9637 79.4316 242.8671 C 79.6983 238.2623 80.0235 235.6748 80.9699 231.1584 C 82.5127 223.7957 87.2347 214.5405 87.6705 213.827 C 87.8159 213.5892 87.909 212.8158 88.0566 212.5794 C 92.734 205.081 98.844 200.7733 105.2727 201.4421 Z " data-paper-data="{&quot;origRot&quot;:0,&quot;index&quot;:null}" fill="#080064" stroke="#000000" stroke-width="2" stroke-linecap="butt"/><g data-paper-data="{&quot;origRot&quot;:0}" stroke-linecap="round"><path d="M 120.9635 199.748 L 103.4061 241.1716 L 93.8761 197.213 Z " fill="#ffffff" stroke-width="2" stroke="#000000"/><path d="M 101.7032 247.9813 L 104.1482 211.4585 L 100.3201 202.2384 L 109.1987 202.4173 L 106.1413 211.4987 L 108.2675 245.7284 L 105.0013 256.3957 Z " fill="#ac0000" stroke-width="2" stroke="#000000"/><path d="M 106.6322 209.7442 L 116.237 202.7475 L 115.0876 215.6424 Z " fill="#ffffff" stroke-width="2" stroke="#000000"/><path d="M 95.8344 215.7704 L 96.5584 204.2101 L 104.488 210.2169 Z " fill="#ffffff" stroke-width="2" stroke="#000000"/></g><path d="M 135.3688 334.2215 C 137.6363 335.6554 139.0962 337.6827 139.2088 339.9802 C 139.3214 342.2775 138.0141 344.8728 135.9442 345.9656 C 132.1343 347.6473 129.0813 348.4045 118.8068 346.5128 C 116.6326 345.3451 115.079 343.0458 114.9667 340.7542 C 114.8545 338.4627 116.1113 336.3427 118.2314 334.7687 C 120.3516 333.1948 123.3363 332.1677 126.6808 332.0609 C 130.0252 331.9541 133.1011 332.7877 135.3687 334.2215 Z " data-paper-data="{&quot;origRot&quot;:0,&quot;index&quot;:null}" fill="#000000" stroke="none" stroke-width="2" stroke-linecap="round"/><path d="M 76.5452 331.047 C 79.8604 331.457 82.7531 332.7346 84.7482 334.4688 C 86.7432 336.2029 87.8418 338.3927 87.5681 340.6253 C 87.2944 342.858 85.5882 344.9667 83.3455 345.9111 C 73.0039 346.8246 70.0244 345.8047 66.3582 343.8108 C 64.379 342.5522 63.2639 339.8927 63.5383 337.6544 C 63.8127 335.416 65.4066 333.565 67.7609 332.3686 C 70.1152 331.1722 73.2301 330.6371 76.5452 331.047 Z " data-paper-data="{&quot;origRot&quot;:0,&quot;index&quot;:null}" fill="#000000" stroke="none" stroke-width="2" stroke-linecap="round"/><path d="M 148.3119 131.1001 C 157.5403 140.5801 162.8411 152.9631 162.0186 165.9928 C 161.1966 179.022 154.4052 190.2532 144.0972 197.8745 C 133.7891 205.4936 119.9655 209.5022 105.079 208.0856 C 90.1924 206.6683 77.0369 200.093 67.8084 190.6136 C 58.5799 181.133 53.2791 168.7506 54.1011 155.7215 C 54.9237 142.6923 61.715 131.4599 72.0231 123.8398 C 82.331 116.2196 96.1542 112.2116 111.0413 113.6282 C 125.9273 115.0455 139.0834 121.6212 148.3119 131.1001 Z " data-paper-data="{&quot;origRot&quot;:0,&quot;index&quot;:null}" fill="#ffa200" stroke="#000000" stroke-width="2" stroke-linecap="butt"/><path d="M 53.104 158.7506 C 51.1468 156.7344 47.5997 156.3569 47.1568 154.2616 C 45.7296 147.505 47.7577 140.7006 48.0577 133.9297 C 48.1502 131.8467 46.6227 128.9915 48.3349 127.6742 C 53.6216 123.6076 60.0476 119.8921 67.1454 119.2471 C 69.6001 119.0239 69.8976 123.5729 69.491 125.7508 C 69.0421 128.156 67.2381 130.5271 64.8422 131.5929 C 62.8105 132.4967 59.9532 131.9539 57.848 130.9307 C 55.6162 129.8457 53.951 127.7763 52.8102 125.7422 C 51.7023 123.7655 51.5424 121.4799 51.3388 119.3206 C 51.1422 117.2268 50.8591 114.9972 51.616 113.0651 C 52.8872 109.8251 55.3385 107.1074 57.2777 104.1779 C 59.4116 100.9548 61.6113 97.7551 63.8483 94.5917 C 66.2908 91.1367 68.4828 87.491 71.3275 84.3061 C 72.824 82.6299 74.3716 80.466 76.7808 80.1112 C 81.3233 79.44 86.1112 80.9942 90.7692 81.4357 C 93.0985 81.6561 95.7562 80.9157 97.7634 82.0979 C 99.9214 83.3683 100.8613 85.8758 101.8924 87.9854 C 103.2955 90.8555 104.6103 93.8572 105.0085 96.9185 C 105.2827 99.0269 104.8149 101.2245 103.8572 103.0914 C 102.8345 105.0834 101.4285 107.1793 99.243 108.1512 C 97.196 109.0622 94.0096 109.735 92.2143 108.2712 C 90.4188 106.8069 90.6829 103.8106 91.6172 101.9323 C 94.678 95.779 99.0213 90.1683 103.7797 85.0229 C 105.5803 83.0754 108.268 81.7848 110.982 80.9934 C 113.1697 80.3554 115.673 80.5284 118.0108 80.8734 C 120.6835 81.268 123.3682 82.0332 125.8095 83.1822 C 128.3082 84.3584 130.3317 86.2681 132.6314 87.7545 C 134.5961 89.025 137.5967 89.5022 138.612 91.4618 C 140.2694 94.6587 139.699 98.3497 139.9104 101.7934 C 140.04 103.8883 140.8865 106.3609 139.6333 108.049 C 138.3698 109.7505 135.6055 110.0683 133.3751 110.5979 C 130.8237 111.2024 125.5504 112.8549 125.4376 111.4168 C 125.2695 109.2955 129.4122 105.1019 132.8125 103.4768 C 137.5547 101.2106 143.2907 100.6942 148.7573 100.2749 C 151.0798 100.0971 153.5516 100.774 155.717 101.7194 C 158.2498 102.8251 160.3132 104.7122 162.5378 106.2916 C 164.5663 107.7316 167.0353 108.8605 168.4844 110.7806 C 169.9231 112.6878 171.2366 115.1065 170.8299 117.2848 C 170.3811 119.69 168.3487 121.7388 166.1818 123.1269 C 164.2191 124.3847 161.4472 124.2502 159.0833 124.8109 C 156.72 125.3715 154.4544 126.3607 151.9854 126.4942 C 149.0939 126.6503 143.3666 127.2332 143.2422 125.6665 C 143.0845 123.6727 148.2324 120.8804 151.4228 119.3736 C 153.4894 118.3978 156.0886 118.4703 158.4862 118.4719 C 161.6843 118.4743 164.9007 119.079 168.1036 119.3823 C 170.4323 119.6033 173.3073 118.6 175.0972 120.0445 C 177.5991 122.064 177.5356 125.6335 179.1226 128.2786 C 180.5421 130.6434 182.8922 132.5789 184.0913 135.031 C 185.0795 137.0529 185.359 139.2928 185.5626 141.452 C 185.7593 143.5465 186.3038 145.8879 185.2855 147.7082 C 183.9329 150.1271 181.0838 151.5556 178.8883 153.3843 C 177.135 154.8445 175.6276 156.6864 173.4346 157.5799 C 171.3031 158.4472 168.772 158.7087 166.3713 158.4815 C 163.9699 158.2543 161.4828 157.5179 159.4462 156.2548 C 157.3506 154.9561 156.012 152.8487 154.4084 151.0669 C 152.666 149.1305 151.1476 147.0326 149.4051 145.0961 C 147.8016 143.3142 146.1113 141.5829 144.3673 139.9076 C 142.1827 137.8092 140.1435 135.5259 137.6156 133.7715 C 134.425 131.5576 130.6014 130.2013 127.3325 128.0862 C 124.8952 126.5107 123.0684 124.1888 120.5457 122.7322 C 117.5931 121.0273 114.328 119.7819 111.0672 118.6941 C 108.8216 117.945 106.4569 117.3408 104.1075 117.2497 C 101.7053 117.1564 99.2823 117.4985 97.0442 118.1514 C 94.4843 118.8975 92.239 120.2783 89.8766 121.3992 C 86.2655 123.1121 82.5246 124.6691 79.1084 126.6617 C 77.0983 127.8334 75.4243 129.4137 73.6546 130.8566 C 69.9637 133.8657 66.2198 136.8489 62.7132 140.0291 C 60.731 141.8266 58.7185 143.6543 57.1903 145.788 C 55.8846 147.6124 54.9888 149.6943 54.29 151.796 C 53.6306 153.7788 53.5221 155.9131 53.1387 157.9683 C 53.0428 158.483 53.6368 158.2772 53.1387 157.9683 Z " data-paper-data="{&quot;origRot&quot;:0,&quot;index&quot;:null}" fill="#000000" stroke="#000000" stroke-width="2" stroke-linecap="round"/><g><path d="M 122.4644 135.293 C 124.7861 135.3008 127.5783 140.0511 128.6327 143.3044 C 130.8204 150.0426 131.3126 157.1174 131.3348 163.8919 C 131.6683 170.0661 131.4182 176.2984 129.6921 181.857 C 128.6965 185.0584 126.2846 189.8363 123.963 189.8286 C 121.6413 189.8208 119.4537 186.7581 117.7947 181.8172 C 116.1363 176.8755 115.0059 170.0554 114.7992 162.5326 C 114.5925 155.0099 115.3483 148.196 116.7353 143.2645 C 118.1231 138.3339 120.1428 135.2852 122.4645 135.2931 Z " data-paper-data="{&quot;origRot&quot;:0,&quot;index&quot;:null}" fill="#000000" stroke="none" stroke-linecap="butt" stroke-width="2"/><path d="M 98.1408 135.6573 C 100.4625 135.6651 103.2547 140.4154 104.3091 143.6686 C 106.4967 150.4069 106.9889 157.4817 107.0112 164.2562 C 107.3447 170.4304 107.0946 176.6627 105.3685 182.2213 C 104.3729 185.4227 101.961 190.2006 99.6393 190.1928 C 97.3177 190.1851 95.13 187.1224 93.471 182.1815 C 91.8127 177.2398 90.6822 170.4197 90.4755 162.8969 C 90.2689 155.3742 91.0247 148.5603 92.4117 143.6288 C 93.7994 138.6981 95.8191 135.6495 98.1409 135.6574 Z " data-paper-data="{&quot;origRot&quot;:0,&quot;index&quot;:null}" fill="#000000" stroke="none" stroke-linecap="butt" stroke-width="2"/><path d="M 107.7662 184.1126 L 90.8112 183.8396 " fill="none" stroke="#000000" stroke-linecap="round" stroke-width="2"/><path d="M 115.578 183.9581 L 131.6453 183.9774 " data-paper-data="{&quot;index&quot;:null}" fill="none" stroke="#000000" stroke-linecap="round" stroke-width="2"/></g><path d="M95.16332,199.63003v-8.375h43v8.375z" fill="#ffa200" stroke="none" stroke-width="NaN" stroke-linecap="butt" transform="matrix(1,0,0,1,-6.65564,-7.07197)"/><path d="M 101.4271 199.542 C 101.0142 201.8633 97.3822 203.1587 93.3148 202.4352 C 89.2474 201.7117 86.2848 199.2434 86.6977 196.922 C 86.9285 195.6246 88.1649 194.6477 89.9209 194.1647 C 91.3067 193.7834 92.6642 195.6877 94.4582 196.0069 C 96.3059 196.3355 98.2774 195.0463 99.4562 195.9177 C 100.8724 196.9646 101.6524 198.2752 101.4271 199.542 Z " fill="#b10000" stroke="#000000" stroke-width="1.15" stroke-linecap="butt"/><text transform="matrix(1.0003,0,0,1.0003,1.0003000000000002,36.010799999999996)" font-size="40" xml:space="preserve" fill="#ffffff" fill-rule="nonzero" stroke="none" stroke-width="1" stroke-linecap="butt" stroke-linejoin="miter" stroke-miterlimit="10" stroke-dasharray="" stroke-dashoffset="0" font-family="&quot;ヒラギノ角ゴ Pro W3&quot;, &quot;Hiragino Kaku Gothic Pro&quot;, Osaka, &quot;メイリオ&quot;, Meiryo, &quot;ＭＳ Ｐゴシック&quot;, &quot;MS PGothic&quot;" font-weight="normal" text-anchor="start" style="mix-blend-mode: normal"><tspan x="0" dy="0">HehtorOCH</tspan></text></g></g></svg>