<svg version="1.1" xmlns="http://www.w3.org/2000/svg" xmlns:xlink="http://www.w3.org/1999/xlink" width="228.5" height="327.89814" viewBox="0,0,228.5,327.89814"><g transform="translate(-272.25,-197.8413)"><g data-paper-data="{&quot;isPaintingLayer&quot;:true}" fill-rule="nonzero" stroke-linejoin="miter" stroke-miterlimit="10" stroke-dasharray="" stroke-dashoffset="0" style="mix-blend-mode: normal"><path d="M272.25,389.04114l28.5,-120l200,-19.5v139.5z" fill="#4db494" stroke="none" stroke-width="NaN" stroke-linecap="butt"/><path d="M384.96347,328.54393v-9.74306h23.77305v9.74306z" fill="#ffd5a1" stroke="#525252" stroke-width="1" stroke-linecap="butt"/><path d="M386.01187,320.52652c0,0 17.33821,-2.82577 21.0888,-2.95829c1.70263,0 -0.93728,8.12846 -0.93728,10.13434c0,0.27005 -20.32726,-0.05859 -20.32726,-0.05859l0.17575,-7.11747z" fill="#e7c091" stroke="none" stroke-width="0" stroke-linecap="butt"/><path d="M326.26729,280.47291c-9.39702,-33.91791 12.22132,-69.51376 48.28594,-79.50553c36.06462,-9.99177 72.91856,9.40422 82.31558,43.32213c9.39702,33.91791 -12.22132,69.51376 -48.28594,79.50553c-36.06462,9.99177 -72.91856,-9.40422 -82.31558,-43.32213z" data-paper-data="{&quot;index&quot;:null}" fill="#e7c091" stroke="#525252" stroke-width="1" stroke-linecap="butt"/><path d="M330.04456,287.01869c-1.89229,-5.70431 -2.85526,-6.10413 -3.69568,-9.52621c-1.52963,-6.2286 -1.17378,-15.37185 -1.17378,-15.37185c0,0 12.41545,5.44795 20.80691,5.37371c6.1198,-0.05414 25.10756,-4.34298 25.10756,-4.34298c3.77807,-9.24602 -5.32483,-7.91797 -5.32483,-7.91797c8.22261,-4.74695 38.87141,2.46557 28.63853,-3.13197c-9.35381,-5.11668 -3.47545,-5.65308 -3.47545,-5.65308c11.84945,-5.71476 37.01871,-4.43827 32.93246,-6.59037c-9.83697,-5.18078 -0.70531,-4.24516 -0.70531,-4.24516c23.56228,-6.52798 25.77193,4.30825 24.85922,27.09452c-0.97045,24.22793 -20.60516,56.61764 -44.63676,61.12325c-13.80391,2.58806 -21.89668,2.84673 -35.1663,-1.75356c-19.37694,-6.71757 -31.70946,-15.59301 -38.1666,-35.05831z" data-paper-data="{&quot;index&quot;:null}" fill="#ffd5a1" stroke="none" stroke-width="0" stroke-linecap="butt"/><path d="M374.92672,201.60534c14.09419,-3.90482 33.46761,-3.39321 46.66801,2.90305c11.74698,5.60303 25.04623,12.84649 28.52112,25.38887c1.92375,6.94365 -22.47417,-1.61775 -29.49503,-3.23729c-9.94281,-2.29359 -13.67816,-4.35846 -22.58532,-1.59654c-8.32675,2.58193 25.42335,12.59299 17.02193,14.92062c0,0 -33.3093,-4.05466 -47.95116,-3.24968c-14.64183,0.80492 25.76622,11.24423 15.76001,13.87026c0,0 -29.19804,1.33141 -37.11252,-0.46961c-7.9145,-1.80099 21.67898,10.01524 16.00006,12.19935c0,0 -36.53319,2.14437 -39.25595,-4.21967c0,0 -1.4158,-7.21329 0.65312,-11.62517c4.67257,-9.96378 9.35235,-16.13588 17.02684,-24.0233c11.32403,-11.6382 19.10016,-16.52538 34.74895,-20.86091z" data-paper-data="{&quot;index&quot;:null}" fill="#ffef4d" stroke="#716a22" stroke-width="1" stroke-linecap="butt"/><path d="M405.97049,253.40625c2.28154,-0.63211 6.51025,7.44274 9.44505,18.03571c2.9348,10.59294 3.46435,19.69267 1.18279,20.32478c-2.28154,0.63211 -6.51025,-7.44274 -9.44505,-18.03571c-2.9348,-10.59294 -3.46435,-19.69267 -1.18279,-20.32478z" data-paper-data="{&quot;index&quot;:null}" fill="#000000" stroke="#1c1c1c" stroke-width="1" stroke-linecap="butt"/><path d="M394.04835,257.3448c2.28158,-0.63212 6.51025,7.44274 9.44505,18.03571c2.9348,10.59296 3.46436,19.69269 1.1828,20.3248c-2.28156,0.63211 -6.51027,-7.44276 -9.44507,-18.03572c-2.9348,-10.59294 -3.46433,-19.69267 -1.18278,-20.32478z" data-paper-data="{&quot;index&quot;:null}" fill="#000000" stroke="#1c1c1c" stroke-width="1" stroke-linecap="butt"/><path d="M396.44735,309.99209l34.80109,-9.64171" fill="none" stroke="#000000" stroke-width="1" stroke-linecap="round"/><path d="M363.92239,505.73028v-73.2678h25.46186v73.2678z" data-paper-data="{&quot;index&quot;:null}" fill="#4d87ff" stroke="#0046d1" stroke-width="1" stroke-linecap="butt"/><path d="M401.33573,506.27703v-73.2678h25.46187v73.2678z" data-paper-data="{&quot;index&quot;:null}" fill="#4d87ff" stroke="#0046d1" stroke-width="1" stroke-linecap="butt"/><path d="M363.41498,444.60192v-115.63868h63.75518v115.63864z" data-paper-data="{&quot;index&quot;:null}" fill="#e80000" stroke="#740000" stroke-width="1" stroke-linecap="butt"/><path d="M434.51237,513.48828c0.53577,14.29795 -13.08742,11.44298 -20.45504,11.44298c-7.36763,0 -14.05175,-5.00112 -14.05175,-10.73151c0,-5.73035 0.99226,-11.08722 8.3599,-11.08722c7.36763,0 25.71947,-1.03052 26.14691,10.37573z" data-paper-data="{&quot;index&quot;:null}" fill="#c58d3b" stroke="#1c1100" stroke-width="1" stroke-linecap="butt"/><path d="M457.9754,510.95369z" data-paper-data="{&quot;index&quot;:null}" fill="#c58d3b" stroke="#784800" stroke-width="1" stroke-linecap="butt"/><path d="M356.04665,513.56394c0.42739,-11.40625 18.77923,-10.37574 26.14686,-10.37574c7.36763,0 8.3599,5.35688 8.3599,11.08722c0,5.73039 -6.68411,10.73149 -14.05175,10.73149c-7.36761,0 -20.99082,2.855 -20.45504,-11.44295z" data-paper-data="{&quot;index&quot;:null}" fill="#c58d3b" stroke="#1c1100" stroke-width="1" stroke-linecap="butt"/><g data-paper-data="{&quot;index&quot;:null}" stroke-width="1" stroke-linecap="butt"><path d="M438.16845,336.00829c-4.17255,-0.45363 -7.17791,-4.29064 -6.71265,-8.57015c0.46526,-4.27953 4.22496,-7.38106 8.39751,-6.92743c4.17255,0.45363 7.17789,4.29066 6.71264,8.57017c-0.46526,4.27951 -4.22495,7.38104 -8.3975,6.92741z" data-paper-data="{&quot;origPos&quot;:null}" fill="#ffd4a0" stroke="#e7c091"/><path d="M448.01256,331.18498l-9.44166,112.09378c0,0 -13.61238,3.82478 -16.67414,-1.19302c-6.96129,-11.40857 -4.94413,-21.27683 -3.5156,-34.0612c2.33047,-20.85625 10.60175,-79.20337 10.60175,-79.20337z" data-paper-data="{&quot;origRot&quot;:0,&quot;origPos&quot;:null}" fill="#e80000" stroke="#740000"/></g><path d="M413.21213,347.59581v-17.74314h7.79445v17.74314z" data-paper-data="{&quot;index&quot;:null}" fill="#e80000" stroke="none" stroke-width="0" stroke-linecap="butt"/><path d="M400.22153,255.45965l-13.5,3.75" fill="none" stroke="#000000" stroke-width="1" stroke-linecap="round"/><g data-paper-data="{&quot;index&quot;:null}" stroke-width="1" stroke-linecap="butt"><path d="M344.51542,327.9183c-1.30531,-4.10207 0.8788,-8.4592 4.87832,-9.73188c3.99953,-1.27268 8.29996,1.02104 9.60526,5.1231c1.3053,4.10206 -0.87879,8.45918 -4.87832,9.73185c-3.99954,1.27268 -8.29997,-1.02102 -9.60527,-5.12308z" data-paper-data="{&quot;origPos&quot;:null}" fill="#ffd4a0" stroke="#e7c091"/><path d="M361.69716,324.17426c0,0 19.68613,55.54513 26.10931,75.52401c3.93728,12.24658 7.87275,21.51823 3.31399,34.08141c-2.00506,5.52559 -16.10571,4.47838 -16.10571,4.47838l-31.49961,-107.99044z" data-paper-data="{&quot;origRot&quot;:0,&quot;origPos&quot;:null}" fill="#e80000" stroke="#740000"/></g></g></g></svg>