<svg version="1.1" xmlns="http://www.w3.org/2000/svg" xmlns:xlink="http://www.w3.org/1999/xlink" width="529.87058" height="521.42771" viewBox="0,0,529.87058,521.42771"><g transform="translate(41.3006,-39.32023)"><g data-paper-data="{&quot;isPaintingLayer&quot;:true}" fill-rule="nonzero" stroke-width="2.5" stroke-linejoin="miter" stroke-miterlimit="10" stroke-dasharray="" stroke-dashoffset="0" style="mix-blend-mode: normal"><path d="M279.21362,225.02365l157.49404,-31.75272l-171.46524,78.74692z" data-paper-data="{&quot;index&quot;:null}" fill="#534786" stroke="#453b70" stroke-linecap="round"/><path d="M235.82768,239.6707c0,0 34.48191,-41.68709 64.55727,-42.0999c30.07535,-0.41281 76.59069,40.16243 76.59069,40.16243c0,0 21.81029,-15.78781 36.7051,-18.00068c25.96431,-3.85738 67.99142,2.44644 67.99142,2.44644c0,0 -42.88142,9.38038 -68.67127,19.11733c-8.59662,3.24572 -24.03878,11.35746 -24.03878,11.35746c0,0 20.19978,-0.67934 27.96139,1.62316c15.62499,4.63512 33.79808,19.98909 33.79808,19.98909c0,0 -28.34602,-6.26043 -48.79957,-5.08141c-14.65932,0.84501 -32.68746,8.0117 -32.68746,8.0117c0,0 12.31415,0.15179 20.98681,4.12911c14.88614,6.82687 30.89433,25.81098 30.89433,25.81098c0,0 -25.09081,-10.86441 -43.07782,-14.05736c-11.62817,-2.06425 -28.15789,0.16486 -28.15789,0.16486c0,0 15.35121,3.13241 24.15332,8.37694c12.34089,7.35319 25.37337,24.32471 25.37337,24.32471c0,0 -20.64107,-10.75958 -36.42673,-13.75357c-8.68451,-1.64715 -26.27493,1.86111 -26.27493,1.86111c0,0 -15.31436,4.27243 -20.95394,12.5573c-14.41382,21.17515 -13.47928,53.16081 -13.47928,53.16081c0,0 -4.73373,-35.79853 -0.64984,-60.16152c2.40254,-14.33287 17.27041,-38.99168 17.27041,-38.99168c0,0 -14.53407,-38.53916 -35.77332,-49.00914c-21.23936,-10.47008 -47.29155,8.06172 -47.29155,8.06172z" data-paper-data="{&quot;index&quot;:null,&quot;origRot&quot;:0}" fill="#c40000" stroke="#990000" stroke-linecap="round"/><path d="M239.90655,282.87071l99.01703,274.59361l-85.7467,-144.95276l21.43668,141.89038l-79.62194,-137.8072l-162.30626,105.14179l115.34973,-153.11912l-158.22309,95.95465l204.15882,-154.13991z" fill="#c40000" stroke="#990000" stroke-linecap="round"/><path d="M232.80256,268.33252l-171.46524,-78.74692l157.49393,31.75272z" fill="#534786" stroke="#453b70" stroke-linecap="round"/><g><path d="M273.00948,230.89289c0,0 -15.14175,41.87655 5.83312,59.78934c20.97487,17.91279 71.45559,45.20658 71.45559,45.20658c0,0 -73.84271,-11.61255 -134.16144,-21.87419c-60.31883,-10.26174 1.15207,-36.41458 -21.14504,-38.6443c-22.2971,-2.22972 -91.14232,21.87419 -91.14232,21.87419c0,0 54.64056,-22.3117 80.27954,-38.92584c9.93049,-6.43488 10.86278,-20.13435 10.86278,-20.13435z" data-paper-data="{&quot;origPos&quot;:null}" fill="#c40000" stroke="#990000" stroke-linecap="round"/><path d="M216.8658,270.9955c0,-15.30232 12.405,-27.70721 27.70731,-27.70721c15.30232,0 27.70721,12.405 27.70721,27.70721c0,15.30232 -12.40489,27.70721 -27.70721,27.70721c-15.30232,0 -27.70731,-12.405 -27.70731,-27.70721z" data-paper-data="{&quot;origPos&quot;:null}" fill="#88ffd9" stroke="none" stroke-linecap="butt"/><path d="M186.97113,257.87105l16.04106,1.45831l6.56217,-17.49937l16.04106,9.47879" fill="none" stroke="#88ffd9" stroke-linecap="round"/><path d="M201.55379,288.49487l8.74974,11.66625l-6.56217,9.47879" fill="none" stroke="#88ffd9" stroke-linecap="round"/><path d="M224.15723,291.41148l-12.3954,7.29133" fill="none" stroke="#88ffd9" stroke-linecap="round"/><path d="M256.23926,300.89017l13.12455,2.91651l10.20794,14.58276" fill="none" stroke="#88ffd9" stroke-linecap="round"/><path d="M275.19694,310.36906l12.3953,-5.10397" fill="none" stroke="#88ffd9" stroke-linecap="round"/></g><g><path d="M288.19958,87.98303c0,0 56.55659,6.04272 86.58346,33.30058c30.0269,27.25776 35.13171,38.83072 32.85913,75.1272c-2.27258,36.29647 -14.91126,62.34777 -42.63855,81.06574c-17.99547,12.14814 -45.37254,-32.19506 -45.37254,-32.19506c0,0 -96.07695,5.98167 -155.84462,-26.76521c-25.30796,-13.86634 -13.73958,-87.22019 -13.73958,-87.22019c0,0 -13.04389,-75.68967 47.93647,-88.80552c61.11148,-13.14407 90.21627,45.49236 90.21627,45.49236z" data-paper-data="{&quot;origPos&quot;:null}" fill="#534786" stroke="#453b70" stroke-linecap="round"/><g data-paper-data="{&quot;origPos&quot;:null}" fill="#94004c" stroke="#410022"><path d="M321.75816,147.26796c5.56154,-19.44986 25.83717,-30.70851 45.28703,-25.14697c19.44986,5.56154 30.70851,25.83717 25.14697,45.28703c-5.56154,19.44986 -25.8372,30.7086 -45.28706,25.14706c-19.44986,-5.56154 -30.70848,-25.83727 -25.14694,-45.28713z" stroke-linecap="butt"/><path d="M347.1671,123.93138l-20.71284,48.41171" stroke-linecap="round"/><path d="M368.03481,123.02846l-27.06714,64.08168" stroke-linecap="round"/><path d="M384.85757,138.45587l-19.97134,52.37092" stroke-linecap="round"/><path d="M391.45176,159.07745l-63.01003,-24.26262" stroke-linecap="round"/><path d="M388.72651,175.16052l-66.55603,-27.15016" stroke-linecap="round"/><path d="M377.42429,186.29298l-55.99908,-24.75598" data-paper-data="{&quot;origPos&quot;:null}" stroke-linecap="round"/></g><path d="M198.9614,67.99552l46.97468,-9.57151l-17.53092,17.99073z" data-paper-data="{&quot;origPos&quot;:null}" fill="#b58b8b" stroke="#735858" stroke-linecap="round"/><path d="M169.8606,95.50694c6.26432,-21.90764 29.10223,-34.58898 51.00987,-28.32466c21.90764,6.26432 34.58908,29.10226 28.32478,51.0098c-6.26432,21.90764 -29.10226,34.58908 -51.0099,28.32476c-21.90764,-6.26432 -34.58908,-29.10226 -28.32476,-51.0099z" data-paper-data="{&quot;origPos&quot;:null}" fill="#ffe9e5" stroke="#bfafac" stroke-linecap="butt"/><path d="M239.83861,160.19671l11.10799,-35.7529l23.23524,82.73279l-32.94925,-8.53676z" data-paper-data="{&quot;origPos&quot;:null}" fill="#b58b8b" stroke="#735858" stroke-linecap="round"/><path d="M230.60407,177.02084c2.58324,-9.03414 12.001,-14.26354 21.03504,-11.68033c9.03414,2.58324 14.26344,12.00098 11.68023,21.03501c-2.58324,9.03414 -12.00087,14.26347 -21.03491,11.68026c-9.03414,-2.58324 -14.26357,-12.0009 -11.68035,-21.03494z" data-paper-data="{&quot;origPos&quot;:null}" fill="#ffe3de" stroke="#bfa39e" stroke-linecap="butt"/><path d="M333.52211,227.89168l-20.09427,-16.36286l51.07326,-51.75261l-9.47229,36.22062z" data-paper-data="{&quot;origPos&quot;:null,&quot;index&quot;:null}" fill="#b58b8b" stroke="#735858" stroke-linecap="round"/><path d="M345.59722,234.62334c-12.64777,-3.61653 -19.96891,-16.80128 -16.35238,-29.44905c3.61653,-12.64777 16.80118,-19.96894 29.44895,-16.3524c12.64777,3.61653 19.96903,16.80121 16.3525,29.44898c-3.61653,12.64777 -16.80131,19.969 -29.44908,16.35247z" data-paper-data="{&quot;origPos&quot;:null}" fill="#ffe9e5" stroke="#bfafac" stroke-linecap="butt"/><path d="M306.98366,196.7531c0,0 22.85688,5.85711 28.03539,37.3696c1.98916,12.10422 -30.35579,14.4277 -30.35579,14.4277l-0.98584,-18.39332l-18.97162,5.19227l3.46675,-12.12396l-12.20692,-0.99228z" data-paper-data="{&quot;origPos&quot;:null}" fill="#534786" stroke="#534786" stroke-linecap="round"/><path d="M306.57144,196.01073c0,0 22.85688,5.85711 28.03539,37.3696c1.98916,12.10422 -30.35579,14.4277 -30.35579,14.4277l-0.98584,-18.39332l-18.97162,5.19227l3.46675,-12.12396l-12.20692,-0.99228" data-paper-data="{&quot;origPos&quot;:null}" fill="none" stroke="#453b70" stroke-linecap="round"/><path d="M374.1243,189.09666l16.74161,9.15892l5.94299,-20.78387l14.34933,10.97285l5.94296,-20.78376c0,0 11.42078,24.3276 3.45661,35.96226c-7.96416,11.63466 -33.48867,7.911 -33.48867,7.911z" data-paper-data="{&quot;origPos&quot;:null}" fill="#534786" stroke="#534786" stroke-linecap="round"/><path d="M375.03187,188.10708l16.74161,9.15892l5.94299,-20.78387l14.3493,10.97295l5.94299,-20.78387c0,0 11.42078,24.3276 3.45661,35.96226c-7.96416,11.63466 -33.48876,7.91097 -33.48876,7.91097" data-paper-data="{&quot;origPos&quot;:null}" fill="none" stroke="#453b70" stroke-linecap="round"/></g><path d="M204.16784,211.03593c0,0 -30.56186,-9.38712 -47.42467,7.23753c-16.8627,16.62465 -18.52394,57.7797 -18.52394,57.7797c0,0 21.87531,18.72381 28.66829,31.57132c11.54671,21.83826 18.32458,57.30656 18.32458,57.30656c0,0 -9.18337,-30.65332 -29.53096,-46.21349c-7.96117,-6.08812 -23.84187,-5.3216 -23.84187,-5.3216c0,0 -17.8004,2.20839 -25.52465,6.50603c-14.04021,7.81173 -30.24399,24.52264 -30.24399,24.52264c0,0 7.02623,-20.21162 16.42448,-31.07624c6.70325,-7.74905 20.28757,-15.55537 20.28757,-15.55537c0,0 -16.39079,3.08851 -26.77778,8.7088c-16.06699,8.6937 -36.46123,26.90517 -36.46123,26.90517c0,0 9.21706,-23.05882 21.19669,-34.22518c6.97937,-6.50552 18.61949,-10.52663 18.61949,-10.52663c0,0 -19.36773,-1.12634 -33.54758,2.68704c-19.78462,5.32069 -44.71803,20.18722 -44.71803,20.18722c0,0 12.4148,-20.29482 25.78587,-29.61365c6.642,-4.6291 26.02841,-10.34401 26.02841,-10.34401c0,0 -17.21079,-2.8375 -26.39202,-3.21152c-27.54378,-1.12206 -71.19784,3.4755 -71.19784,3.4755c0,0 37.90515,-19.21512 63.7635,-23.72856c14.83408,-2.58924 40.50582,5.52893 40.50582,5.52893c0,0 31.37503,-53.15673 60.05087,-62.23384c28.67584,-9.07721 74.52899,19.63355 74.52899,19.63355z" data-paper-data="{&quot;origRot&quot;:0}" fill="#c40000" stroke="#990000" stroke-linecap="round"/></g></g></svg>