<svg version="1.1" xmlns="http://www.w3.org/2000/svg" xmlns:xlink="http://www.w3.org/1999/xlink" width="131.8376" height="124.61798" viewBox="0,0,131.8376,124.61798"><g transform="translate(-174.0812,-117.69101)"><g data-paper-data="{&quot;isPaintingLayer&quot;:true}" fill-rule="nonzero" stroke-linejoin="miter" stroke-miterlimit="10" stroke-dasharray="" stroke-dashoffset="0" style="mix-blend-mode: normal"><path d="M291.80611,213.01174v0" fill="#ffffff" stroke="none" stroke-width="1" stroke-linecap="butt"/><path d="M189.98032,213.01174" fill="#ffffff" stroke="none" stroke-width="1" stroke-linecap="butt"/><path d="M305.9188,198.89904c0,32.69144 -29.47589,43.2313 -65.9188,43.2313c-36.44291,0 -65.9188,-10.53986 -65.9188,-43.2313c0,-15.36319 4.2874,-33.04872 13.75541,-47.34006l-7.68159,-25.90305c-1.42913,-4.82333 3.57283,-9.46801 8.21752,-7.50295l25.54577,10.7185c7.50295,-3.39419 16.07776,-5.35925 26.08169,-5.35925c9.8253,0 18.4001,2.1437 25.90305,5.53789l25.72441,-10.7185c4.64469,-1.96506 9.64665,2.67963 8.21752,7.50295l-7.86024,26.26034c9.46801,14.1127 13.93406,31.61959 13.93406,46.80414z" fill="#ff7319" stroke="none" stroke-width="1" stroke-linecap="butt"/><path d="M291.62747,219.62149c0,17.14961 -23.04478,22.6875 -51.62746,22.6875c-28.58268,0 -51.62746,-5.53789 -51.62746,-22.6875c0,-17.14961 15.36319,-39.47982 51.62746,-39.47982c35.37106,0 51.62746,22.33022 51.62746,39.47982z" fill="#ffffff" stroke="none" stroke-width="1" stroke-linecap="butt"/><path d="M234.28347,188.0019c0,-2.32234 2.50098,-3.03691 5.71654,-3.03691c3.21555,0 5.71654,0.71457 5.71654,3.03691c0,2.32234 -1.78642,5.18061 -5.71654,5.18061c-3.93012,0 -5.71654,-2.85827 -5.71654,-5.18061z" fill="#945600" stroke="#000000" stroke-width="1.5" stroke-linecap="butt"/><path d="M259.65059,195.50485c0,5.35925 -4.46604,9.8253 -9.8253,9.8253c-5.35925,0 -9.8253,-4.2874 -9.8253,-9.8253c0,-0.35728 0,-0.35728 0,-0.35728c0,-0.35728 0,-0.53593 0,-0.53593c0,0 0,0.17864 0,0.53593c0,0 0,0 0,0.35728c0,5.35925 -4.46604,9.8253 -9.8253,9.8253c-5.35925,0 -9.8253,-4.2874 -9.8253,-9.8253" fill="none" stroke="#000000" stroke-width="2.5" stroke-linecap="round"/><path d="M223.02904,168.17267c0,-3.05849 2.4794,-5.53789 5.53789,-5.53789c3.05849,0 5.53789,2.4794 5.53789,5.53789c0,3.05849 -2.4794,5.53789 -5.53789,5.53789c-3.05849,0 -5.53789,-2.4794 -5.53789,-5.53789z" fill="#000000" stroke="none" stroke-width="1" stroke-linecap="butt"/><path d="M245.89518,168.17267c0,-3.05849 2.4794,-5.53789 5.53789,-5.53789c3.05849,0 5.53789,2.4794 5.53789,5.53789c0,3.05849 -2.4794,5.53789 -5.53789,5.53789c-3.05849,0 -5.53789,-2.4794 -5.53789,-5.53789z" fill="#000000" stroke="none" stroke-width="1" stroke-linecap="butt"/><path d="M199.80561,138.69678c-3.57283,3.21555 -6.78839,6.25246 -9.46801,10.89715l-6.96703,-24.11663c-0.53593,-2.85827 2.1437,-5.35925 5.00197,-4.46604l23.04478,9.64665c-5.35925,2.1437 -8.21752,5.00197 -11.61171,8.03888z" fill="#77500c" stroke="none" stroke-width="1" stroke-linecap="butt"/><path d="M269.29725,130.6579l23.04478,-9.64665c2.85827,-0.89321 5.53789,1.60778 5.00197,4.46604l-6.78839,24.29528c-2.85827,-4.64469 -5.89518,-7.68159 -9.64665,-10.89715c-3.39419,-3.21555 -6.4311,-6.07382 -11.61171,-8.21752z" fill="#77500c" stroke="none" stroke-width="1" stroke-linecap="butt"/></g></g></svg>