<svg version="1.1" xmlns="http://www.w3.org/2000/svg" xmlns:xlink="http://www.w3.org/1999/xlink" width="118.58363" height="414.76374" viewBox="0,0,118.58363,414.76374"><defs><linearGradient x1="224.88782" y1="63.82615" x2="224.88782" y2="97.65675" gradientUnits="userSpaceOnUse" id="color-1"><stop offset="0" stop-color="#d2a991"/><stop offset="1" stop-color="#fde6d9"/></linearGradient><linearGradient x1="289.17043" y1="149.20932" x2="277.01838" y2="157.57065" gradientUnits="userSpaceOnUse" id="color-2"><stop offset="0" stop-color="#fde6d9"/><stop offset="1" stop-color="#fde6d9"/></linearGradient><radialGradient cx="229.57119" cy="79.84542" r="43.92048" gradientUnits="userSpaceOnUse" id="color-3"><stop offset="0" stop-color="#fde6d9"/><stop offset="1" stop-color="#f7d9c8"/></radialGradient><linearGradient x1="239.47739" y1="-1811.67808" x2="239.47739" y2="1499.20589" gradientUnits="userSpaceOnUse" id="color-4"><stop offset="0" stop-color="#2a221e"/><stop offset="1" stop-color="#2a221e" stop-opacity="0"/></linearGradient><linearGradient x1="223.1" y1="70.3" x2="256.1" y2="70.3" gradientUnits="userSpaceOnUse" id="color-5"><stop offset="0" stop-color="#fde6d9"/><stop offset="1" stop-color="#fadecf"/></linearGradient><radialGradient cx="257.73221" cy="132.51071" r="27.45021" gradientUnits="userSpaceOnUse" id="color-6"><stop offset="0" stop-color="#4187ff"/><stop offset="1" stop-color="#0066ff"/></radialGradient><linearGradient x1="259.25122" y1="123.4673" x2="259.25122" y2="129.82595" gradientUnits="userSpaceOnUse" id="color-7"><stop offset="0" stop-color="#737373"/><stop offset="1" stop-color="#000000"/></linearGradient><linearGradient x1="242.84828" y1="125.02164" x2="276.85524" y2="125.02164" gradientUnits="userSpaceOnUse" id="color-8"><stop offset="0" stop-color="#ff7c7c"/><stop offset="1" stop-color="#fa1414"/></linearGradient><linearGradient x1="246.00876" y1="119.04142" x2="273.60682" y2="119.04142" gradientUnits="userSpaceOnUse" id="color-9"><stop offset="0" stop-color="#ff7c7c"/><stop offset="1" stop-color="#fa1414"/></linearGradient><linearGradient x1="250.08976" y1="113.74131" x2="273.82455" y2="113.74131" gradientUnits="userSpaceOnUse" id="color-10"><stop offset="0" stop-color="#ff7c7c"/><stop offset="1" stop-color="#fa1414"/></linearGradient><linearGradient x1="172.86611" y1="156.47765" x2="245.83966" y2="150.20416" gradientUnits="userSpaceOnUse" id="color-11"><stop offset="0" stop-color="#fde6d9"/><stop offset="1" stop-color="#f7d9c8"/></linearGradient><linearGradient x1="-75.52818" y1="181.24449" x2="440.54407" y2="136.87812" gradientUnits="userSpaceOnUse" id="color-12"><stop offset="0" stop-color="#000000"/><stop offset="1" stop-color="#000000" stop-opacity="0"/></linearGradient><linearGradient x1="235.99616" y1="156.12879" x2="255.455" y2="158.98298" gradientUnits="userSpaceOnUse" id="color-13"><stop offset="0" stop-color="#fde6d9"/><stop offset="1" stop-color="#fde6d9"/></linearGradient><linearGradient x1="243.49786" y1="73.76113" x2="243.7851" y2="74.44392" gradientUnits="userSpaceOnUse" id="color-14"><stop offset="0" stop-color="#ecc6b1"/><stop offset="1" stop-color="#ecc6b1" stop-opacity="0"/></linearGradient><linearGradient x1="236.09888" y1="65.20683" x2="238.92649" y2="65.20683" gradientUnits="userSpaceOnUse" id="color-15"><stop offset="0" stop-color="#f4d7c8" stop-opacity="0"/><stop offset="1" stop-color="#f4d7c8"/></linearGradient><linearGradient x1="240.24038" y1="73.61583" x2="240.20766" y2="74.35249" gradientUnits="userSpaceOnUse" id="color-16"><stop offset="0" stop-color="#ecc6b1"/><stop offset="1" stop-color="#ecc6b1" stop-opacity="0"/></linearGradient><linearGradient x1="236.12211" y1="45.82454" x2="235.02647" y2="70.46281" gradientUnits="userSpaceOnUse" id="color-17"><stop offset="0" stop-color="#f9ddce" stop-opacity="0"/><stop offset="1" stop-color="#f9ddce"/></linearGradient></defs><g transform="translate(-171.36126,-15.56387)"><g data-paper-data="{&quot;isPaintingLayer&quot;:true}" fill-rule="nonzero" stroke-linejoin="miter" stroke-miterlimit="10" stroke-dasharray="" stroke-dashoffset="0" style="mix-blend-mode: normal"><g data-paper-data="{&quot;origRot&quot;:0}" stroke="none" stroke-width="0" stroke-linecap="butt"><path d="M247.7228,102.75897c-0.00033,-5.11752 -2.86488,-15.09755 4.97958,-14.71286c7.43959,0.36486 19.18713,9.4445 27.16442,26.93848c2.33038,5.11042 5.68236,17.80101 7.99175,22.9213c4.18488,9.27861 -12.06279,20.65502 -18.11549,12.52699c-4.97829,-6.68522 -4.89154,-5.77909 -14.6853,-27.53155c-4.11311,-9.13544 -7.33436,-10.13689 -7.33499,-20.14233z" data-paper-data="{&quot;origPos&quot;:null,&quot;origRot&quot;:0}" fill="#2152a6"/><path d="M254.90823,87.88838c7.38894,1.95801 17.55253,10.87568 24.69432,26.53735c2.33038,5.11042 5.68236,17.80101 7.99175,22.92132c2.39405,5.30802 -1.89876,11.30256 -7.14437,13.93932c-7.31288,-15.28008 -14.58921,-30.57765 -21.61651,-45.99526c-2.0338,-4.46207 -2.86025,-11.43574 -3.92515,-17.40272z" data-paper-data="{&quot;origPos&quot;:null,&quot;origRot&quot;:0}" fill="#000000"/></g><g><path d="M225.42616,337.3616c-0.02714,-7.54374 2.51377,-10.9758 3.76359,-17.93977c1.9524,-10.87862 2.70297,-26.99407 2.70297,-26.99407c1.08124,-13.3372 28.67828,-8.9667 25.17966,3.97229c-4.31258,15.94925 -2.20955,44.94595 -3.18478,58.59846c-2.01581,28.21983 -2.2686,40.19881 -2.2686,40.19881l-19.4855,-2.29647c0,0 -1.62803,-17.17911 -2.76753,-24.54958c-1.77273,-11.46635 -3.91261,-23.44596 -3.93977,-30.98971z" data-paper-data="{&quot;origPos&quot;:null}" fill="#252525" stroke="#000000" stroke-width="0" stroke-linecap="butt"/><path d="M259.08295,273.78766c-1.03052,25.15431 -4.26388,24.10254 -4.34139,37.52292c-2.06421,9.35878 -23.92755,-1.33028 -23.92755,-1.33028c0,0 -11.075,-58.75615 -2.69933,-94.39349c1.84165,-7.83595 18.88916,1.30448 22.29432,1.70203c0,0 5.25175,3.98533 7.51652,10.47366c0,0 2.24562,19.46296 1.15741,46.02517z" data-paper-data="{&quot;origPos&quot;:null,&quot;origRot&quot;:0,&quot;index&quot;:null}" fill="#000000" stroke="#000000" stroke-width="0" stroke-linecap="butt"/><g data-paper-data="{&quot;origPos&quot;:null,&quot;index&quot;:null}" stroke="none" stroke-linecap="round"><path d="M230.61104,417.86841c0.40334,-5.13508 -0.6066,-15.57088 0.172,-20.61536c0.52909,-3.42099 -1.36041,-10.66303 1.46173,-11.39445c1.11491,-0.28895 6.65816,2.81322 11.25785,2.34823c4.47224,-0.45212 8.6934,-4.63981 9.31648,-2.61498c1.27315,4.13743 0.96996,13.70817 2.34166,14.74572c8.11412,6.12342 16.05432,10.00265 13.31322,19.79149c-1.69964,6.06956 -12.82404,7.96998 -12.82404,7.96998c0,0 -25.04643,-8.99063 -25.03889,-10.23062z" data-paper-data="{&quot;origPos&quot;:null}" fill="#000000" stroke-width="1"/><path d="M230.71264,412.79158c0,0 7.03339,2.08113 13.20095,7.06132c6.78485,5.47865 16.5278,6.52884 16.5278,6.52884l-5.18729,1.67091l-24.4027,-9.37868z" data-paper-data="{&quot;origPos&quot;:null,&quot;origRot&quot;:0}" fill="#111111" stroke-width="1.16035"/></g></g><g><path d="M192.01323,317.82423c1.9524,-10.87862 0.33957,-30.70796 0.33957,-30.70796c1.08124,-13.3372 32.72981,-4.91516 29.23119,8.02382c-4.31258,15.94925 -0.52142,39.20626 -1.49665,52.85879c-2.01581,28.21983 -3.95674,45.93849 -3.95674,45.93849l-19.4855,-2.29647c0,0 -2.8344,-14.854 -3.44277,-24.54958c-0.60837,-9.69559 -1.18909,-49.26708 -1.18909,-49.26708z" data-paper-data="{&quot;origPos&quot;:null}" fill="#252525" stroke="#000000" stroke-width="0" stroke-linecap="butt"/><path d="M224.27226,276.15105c-2.45298,25.0609 -4.38869,23.42729 -4.47534,36.84767c-0.04298,6.65776 -27.12324,-0.65503 -27.12324,-0.65503c0,0 -12.37946,-58.75615 -3.01726,-94.39349c2.05857,-7.83595 21.114,1.30447 24.92024,1.70202c0,0 12.9605,3.6477 15.49202,10.13603c0,0 -3.22955,20.13821 -5.79643,46.3628z" data-paper-data="{&quot;origPos&quot;:null,&quot;origRot&quot;:0,&quot;index&quot;:null}" fill="#000000" stroke="#000000" stroke-width="0" stroke-linecap="butt"/><g data-paper-data="{&quot;origPos&quot;:null,&quot;index&quot;:null,&quot;origRot&quot;:0}" stroke="none" stroke-linecap="round"><path d="M191.27345,417.25003c0.99874,-5.05313 1.21124,-15.53555 2.57214,-20.45499c0.92397,-3.33606 -0.10911,-10.74891 2.77901,-11.14662c1.14097,-0.15712 6.28516,3.56962 10.9077,3.64357c4.49446,0.07189 9.17467,-3.59561 9.55766,-1.51199c0.78256,4.25757 -0.63339,13.72784 0.60813,14.91811c7.34561,7.02688 14.7799,11.80459 10.91725,21.20752c-2.39506,5.83026 -13.6651,6.42198 -13.6651,6.42198c0,0 -23.82869,-11.84686 -23.67678,-13.07755z" data-paper-data="{&quot;origPos&quot;:null}" fill="#000000" stroke-width="1"/><path d="M191.96571,412.21959c0,0 6.7431,2.88622 12.28858,8.55091c6.1005,6.23167 15.6548,8.40957 15.6548,8.40957l-5.34661,1.05532l-23.14414,-12.15728z" data-paper-data="{&quot;origPos&quot;:null,&quot;origRot&quot;:0}" fill="#111111" stroke-width="1.16035"/></g></g><g stroke-linecap="butt"><g data-paper-data="{&quot;origPos&quot;:null}" stroke="none"><path d="M201.5967,76.32191c0.9145,-5.69495 1.70118,-7.06721 3.59643,-8.08367c1.89524,-1.01646 8.46404,-2.23201 15.76255,-2.29886c7.29851,-0.06685 5.22172,-2.57649 12.25252,0.54065c7.0308,3.11714 6.27375,4.0716 6.98327,7.98762c0.70949,3.91601 8.40826,13.34604 4.50696,14.68405c-3.86272,1.32479 -28.93769,5.55275 -47.26618,0.32809c0.289,-2.58858 0.45903,-5.10571 0.26725,-7.62584c0.01359,-0.03819 0.02702,-0.07641 0.04031,-0.11466l0.25,-0.26542c0,0 0.42493,-0.82072 0.74139,-1.9749c1.51899,-0.93282 2.6713,-1.96793 2.86547,-3.17706z" data-paper-data="{&quot;origPos&quot;:null}" fill="#000000" stroke-width="0"/><g data-paper-data="{&quot;origPos&quot;:null}"><path d="M200.6643,90.63228c-1.30091,-0.45355 -2.36307,-0.88214 -3.21676,-1.29005c0.21885,-1.98789 0.36485,-3.93435 0.32774,-5.87319c2.85348,-1.62525 6.57654,-3.3671 6.91261,-5.82888c0.16491,-1.20805 0.26031,-1.88914 0.53174,-3.0753c0.4793,-2.09453 1.16267,-3.23701 2.95143,-4.25655c1.8746,-1.06849 6.96676,-2.16113 13.27321,-2.2189c6.30645,-0.05778 6.09538,-1.9506 12.01957,0.86101c5.92421,2.81163 3.69085,2.96905 4.30355,6.88598c0.61268,3.91692 7.65407,13.18487 3.88019,14.68978c-3.77388,1.50495 -25.33481,5.56194 -40.98325,0.10611z" data-paper-data="{&quot;origPos&quot;:null}" fill="#09162e" stroke-width="0"/><g data-paper-data="{&quot;origPos&quot;:null}" fill="none" stroke-width="1" font-family="sans-serif" font-weight="normal" font-size="12" text-anchor="start"/></g></g><path d="M237.24247,92.28192c0,0 -8.97138,5.37481 -13.506,5.37481c-3.90388,0 -15.09015,-5.797 -15.09015,-5.797c0,0 2.22484,-2.85262 3.01615,-5.14268c0.6727,-1.9468 1.76554,-5.96513 1.76554,-8.06029c0,-2.23101 -3.64276,-13.95323 -3.64276,-13.95323l27.41693,-0.8774z" data-paper-data="{&quot;origPos&quot;:null}" fill="url(#color-1)" stroke="none" stroke-width="0"/><g data-paper-data="{&quot;origPos&quot;:null}" fill="#b2bbc1" stroke="none" stroke-width="0"><path d="M192.79786,166.02748l62.33092,-1.28968c0,0 -1.20099,16.28212 -0.90883,26.43347c0.26485,9.20239 1.06159,14.82632 2.3184,23.93579c1.75352,13.67784 -11.75777,19.23737 -25.45477,19.66682c-14.33732,0.44954 -43.00054,-2.48174 -41.00248,-15.27193c0,0 2.16824,-19.31397 2.8097,-31.94002c0.41879,-8.24304 -0.09295,-21.53444 -0.09295,-21.53444z" data-paper-data="{&quot;origPos&quot;:null}"/><path d="M193.01968,167.47637c0,0 -1.08399,-11.8936 -2.5054,-19.45989c-3.45983,-18.417 -4.60051,-28.72115 -6.81252,-47.27653c-0.24752,-4.47047 4.57841,-13.99118 12.66699,-15.1516c4.98111,-0.7146 16.23974,-3.03312 16.23974,-3.03312c0,0 0.38342,5.37607 3.11656,7.76054c4.97438,4.33979 12.00623,4.26863 12.00623,4.26863c0,0 6.91047,-2.64904 8.8458,-6.19341c1.04395,-1.91192 0.34294,-7.78763 0.34294,-7.78763c0,0 15.71648,8.27315 21.03815,18.91442c5.32167,10.64128 3.33969,19.40713 2.36597,31.77065c-0.97374,12.36352 -4.96322,35.75211 -4.96322,35.75211l-62.34122,0.43581z" data-paper-data="{&quot;origPos&quot;:null}"/></g><path d="M257.93301,226.06436c0,7.55169 -13.00085,16.10438 -29.24726,16.10438c-16.24641,0 -40.13181,-7.33727 -40.13181,-14.88896c0,-5.07496 1.63266,-10.96499 1.63266,-10.96499c0,0 27.87955,4.26003 40.46431,4.2134c13.202,-0.04891 25.61104,-4.45823 25.61104,-4.45823c0,0 1.67107,2.44271 1.67107,9.99439z" data-paper-data="{&quot;origPos&quot;:null}" fill="#000000" stroke="none" stroke-width="0"/><g data-paper-data="{&quot;origPos&quot;:null,&quot;index&quot;:null}"><path d="M238.48889,165.25863c-0.41604,-20.4441 -0.59415,-56.0041 -0.59415,-56.0041c-0.04961,-9.23833 4.70944,-12.86826 5.2789,-21.02903c1.10065,-2.66862 -2.26466,-3.1911 -1.00405,-5.64235c2.94548,0.53327 7.67784,2.40421 11.56245,4.91333c3.88993,2.51255 7.96548,13.43206 8.00165,20.17031c0.09363,17.44208 -0.56403,13.96374 -3.58826,43.70818c-3.121,30.6963 0.47016,67.82115 0.47016,67.82115c0,0 -5.98232,4.11316 -9.04562,5.21255c-3.61153,1.29615 -8.59466,6.88374 -9.36651,-0.53366c0,0 -1.22595,-34.60536 -1.71458,-58.61635z" data-paper-data="{&quot;origPos&quot;:null}" fill="#255dbc" stroke="#000000" stroke-width="0"/><path d="M241.06301,136.0204l-3.34823,11.55874c0,0 0.51419,-13.08358 -0.76108,-21.61419c-0.91775,-6.13912 -0.70575,-10.07606 -0.40875,-16.37184c0.15851,-3.36026 2.2032,-8.63519 2.2032,-8.63519l21.70979,-0.37764c0,0 2.12288,5.97256 1.85639,10.66425c-0.37432,6.5907 -1.81025,17.90788 -1.81025,17.90788z" data-paper-data="{&quot;origPos&quot;:null}" fill="#09162e" stroke="none" stroke-width="0"/><path d="M238.10566,104.54973c0,0 0.35751,-3.15021 1.4443,-6.22842c2.49566,-7.06883 2.9154,-16.59743 2.9154,-16.59743l10.44527,5.61149l-0.68249,16.33946z" data-paper-data="{&quot;origPos&quot;:null}" fill="#09162e" stroke="none" stroke-width="0"/><path d="M254.82675,125.42399c0,0 -0.21336,1.50897 -1.15215,1.16603c-0.93879,-0.34295 -0.72542,-1.85192 -0.72542,-1.85192l0.51826,-1.27033c0.18537,-1.19189 0.81084,-4.79773 0.67727,-5.2987c-0.33923,-1.27227 -1.10404,-2.02834 -0.96273,-3.61074c0.04389,-0.49141 0.72203,-4.32429 1.56561,-4.18913c0.04418,0.00708 0.07797,0.03751 0.10489,0.08392c0.10091,-0.06841 0.41967,0.15621 0.34236,0.03563l-1.00737,-0.40482c-0.42871,-0.15639 -0.74876,-0.77266 -0.74876,-1.50911c0,-0.51272 0.1551,-0.96719 0.39403,-1.24877l1.01794,-1.22716l0.04096,0.08777c0.10993,-0.09465 0.21433,-0.1764 0.31895,-0.24966l-0.01577,-0.10139l0.23349,-0.09383v-0.36503h1.02692c0.03809,0 0.07566,0.00355 0.11261,0.01047c0.28452,0.03612 0.66393,0.25319 0.81145,1.10141c0.00681,0.0374 0.01276,0.07539 0.01784,0.11391c0.12065,0.86461 -0.15154,1.34508 -0.3927,1.59281c-0.09966,0.11145 -0.21303,0.19341 -0.33524,0.23799l-0.32905,0.13221c0.28762,0.52217 0.50252,1.06761 0.46273,1.38053c-0.3278,2.57768 -1.62534,2.77501 -1.97742,4.67485c-0.02709,0.14617 0.24177,-0.20072 0.28198,-0.06258c0.27211,0.93512 0.66184,2.05637 0.77019,3.50758c0.15733,2.10747 -0.22847,4.13528 -0.5422,6.1525l-0.50864,1.20561zM255.04019,112.06324c0.01181,0.03392 0.02514,0.06502 0.04049,0.09228c0.04962,0.08809 0.01648,0.02979 -0.04049,-0.09228z" data-paper-data="{&quot;origPos&quot;:null}" fill="#ffffff" stroke="none" stroke-width="0.5"/><path d="M238.48436,101.14707v-1.03165h20.15304l0.23105,1.03165z" data-paper-data="{&quot;origPos&quot;:null}" fill="#ffffff" stroke="none" stroke-width="0"/><path d="M237.33121,106.94232l-0.80174,2.99667l0.21312,-3.40791l1.7397,-6.43372l0.58863,0.41123z" data-paper-data="{&quot;origPos&quot;:null,&quot;origRot&quot;:0}" fill="#ffffff" stroke="none" stroke-width="0"/></g><g data-paper-data="{&quot;origPos&quot;:null}"><path d="M221.65977,166.08396c-0.79001,24.01099 -2.77209,58.61635 -2.77209,58.61635c-1.24791,7.4174 -9.30449,1.82981 -15.14352,0.53366c-4.95265,-1.09939 -14.62469,-5.21254 -14.62469,-5.21254c0,0 3.2925,-37.95017 0.76015,-67.82115c-2.53235,-29.87099 -6.80169,-34.31289 -6.65032,-51.75496c0.05848,-6.73826 5.61142,-12.08689 11.90054,-14.59946c6.28053,-2.50912 9.53286,-1.90413 14.29504,-2.4374c2.03813,2.45125 2.88121,2.97372 4.6607,5.64235c0.92071,8.16077 8.61498,11.79068 8.53479,21.02901c0,0 -0.28794,35.56 -0.9606,56.0041z" data-paper-data="{&quot;origPos&quot;:null}" fill="#255dbc" stroke="#000000" stroke-width="0"/><path d="M187.60278,130.31533c0,0 -1.77569,-11.99244 -2.38088,-18.58313c-0.43081,-4.69169 3.10246,-10.66425 3.10246,-10.66425l32.37044,0.71527c0,0 3.30577,5.27493 3.56205,8.63519c0.48018,6.29578 0.82294,10.23273 -0.66086,16.37184c-2.06181,8.53061 -1.23048,21.61419 -1.23048,21.61419l-5.41333,-11.55874z" data-paper-data="{&quot;origPos&quot;:null}" fill="#09162e" stroke="none" stroke-width="0"/><path d="M201.60175,102.47438l-1.77869,-18.70285l9.20623,-3.28561c0,0 6.33429,11.59188 10.3692,18.66071c1.75707,3.07822 2.3351,6.22842 2.3351,6.22842z" data-paper-data="{&quot;origPos&quot;:null}" fill="#09162e" stroke="none" stroke-width="0"/><path d="M194.69929,125.42404l-0.82237,-1.20561c-0.50724,-2.01722 -1.13098,-4.04503 -0.8766,-6.1525c0.17516,-1.45121 0.80529,-2.57246 1.24521,-3.50758c0.06499,-0.13814 0.49969,0.20875 0.45589,0.06258c-0.56923,-1.89983 -2.66706,-2.09717 -3.19704,-4.67485c-0.06434,-0.31292 0.28311,-0.85836 0.74812,-1.38053l-0.53199,-0.13221c-0.19759,-0.04458 -0.3809,-0.12653 -0.54201,-0.23799c-0.38991,-0.24773 -0.82997,-0.7282 -0.63489,-1.59281c0.0082,-0.03851 0.01783,-0.07651 0.02883,-0.11391c0.23849,-0.84822 0.85192,-1.06528 1.31194,-1.10141c0.05973,-0.00692 0.12048,-0.01047 0.18206,-0.01047h1.66029v0.36503l0.37752,0.09383l-0.0255,0.10139c0.16916,0.07326 0.33795,0.15501 0.51568,0.24966l0.06622,-0.08777l1.64579,1.22716c0.3863,0.28159 0.63708,0.73606 0.63708,1.24877c0,0.73644 -0.51745,1.35271 -1.21057,1.50911l-1.62868,0.40482c-0.12497,0.12058 0.39037,-0.10404 0.55351,-0.03563c0.04353,-0.04641 0.09817,-0.07684 0.16959,-0.08392c1.36387,-0.13516 2.46027,3.69772 2.53123,4.18913c0.22847,1.58241 -1.00806,2.33847 -1.55651,3.61074c-0.21595,0.50097 0.79526,4.10681 1.09498,5.2987l0.83791,1.27033c0,0 0.34496,1.50897 -1.17285,1.85192c-1.5178,0.34294 -1.86276,-1.16603 -1.86276,-1.16603zM194.28872,113.80612c0.02483,-0.02726 0.0464,-0.05836 0.06549,-0.09228c-0.09213,0.12206 -0.14571,0.18037 -0.06549,0.09228z" data-paper-data="{&quot;origPos&quot;:null}" fill="#ffffff" stroke="none" stroke-width="0.5"/><path d="M188.16476,101.97237l0.37356,-1.03165h32.58289v1.03165z" data-paper-data="{&quot;origPos&quot;:null}" fill="#ffffff" stroke="none" stroke-width="0"/><path d="M220.17293,101.3339l0.95166,-0.41123l2.8127,6.43372l0.34455,3.40791l-1.29624,-2.99667z" data-paper-data="{&quot;origPos&quot;:null,&quot;origRot&quot;:0}" fill="#ffffff" stroke="none" stroke-width="0"/><path d="M187.36587,131.93806c0,0 -8.7531,-28.10005 -3.02213,-38.06749c6.63493,-11.53964 13.22493,-8.66577 13.22493,-8.66577c0,0 -3.70962,10.28761 -6.56634,16.7407c-2.85672,6.45309 -3.63647,29.99257 -3.63647,29.99257z" data-paper-data="{&quot;origPos&quot;:null}" fill="#000000" stroke="none" stroke-width="0"/></g></g><path d="M282.24286,162.72232c-3.78928,4.90873 -7.60142,-3.95705 -8.00026,-6.16572c-0.39212,-2.17138 1.10887,-4.87836 2.44768,-6.19725c3.12408,-3.07761 5.68927,-3.03985 9.06297,-5.52541c2.67077,-1.96769 3.56524,3.05421 4.109,4.68806c0.73162,2.1983 -3.52403,7.89514 -7.61935,13.20033z" data-paper-data="{&quot;origRot&quot;:0}" fill="url(#color-2)" stroke="none" stroke-width="0" stroke-linecap="butt"/><path d="M234.55262,16.67566c16.88353,-0.45442 22.72652,11.80311 24.40569,17.10316c2.06239,6.50962 0.90707,23.45971 -0.15619,30.76327c-1.89475,13.55275 -10.8364,26.31681 -19.26319,28.3518c-3.63351,-0.23921 -27.25694,-6.1625 -30.31363,-11.47367c-7.32527,-12.72804 -9.8719,-16.89097 -10.32955,-31.5693c-0.51003,-16.35866 9.91268,-32.83245 35.65687,-33.17527z" data-paper-data="{&quot;origPos&quot;:null}" fill="url(#color-3)" stroke="none" stroke-width="0" stroke-linecap="butt"/><path d="M262.68647,53.44048c-6.23221,-8.29486 -6.42062,-16.11312 -17.07313,-15.75889c-11.51007,0.38275 -28.3536,9.02602 -35.48619,17.70029c-2.552,3.10361 0.23701,11.61499 0.23701,11.61499l-3.04723,0.47932c0,0 -2.02059,-2.49151 -3.0582,-4.48981c-2.12167,-4.08606 -3.70355,9.12784 -3.70355,9.12784c0,0 -5.48521,-24.58224 -1.92045,-36.34194c3.7807,-12.47202 17.20154,-19.93003 32.74421,-20.19079c15.54267,-0.26077 24.32068,2.27012 30.58976,14.49115c0,0 4.90506,7.8221 3.89674,13.18747z" data-paper-data="{&quot;origPos&quot;:null}" fill="#3d3021" stroke="none" stroke-width="0" stroke-linecap="butt"/><path d="M238.4656,40.46006c-10.84633,0.36067 -21.44647,3.99835 -28.16774,12.17237c-2.49522,3.03457 -4.36447,10.8461 -4.36447,10.8461c0,0 -2.27708,-20.98961 1.74026,-27.40439c2.48146,-7.32997 6.92609,-7.10848 6.92609,-7.10848c0,0 6.72242,-11.42963 23.86587,-12.67291c4.31549,0.03498 10.08199,0.79486 13.58507,3.31542c2.86264,2.05974 2.70004,3.82521 5.27027,6.2398c-5.33513,3.86163 -11.90698,14.38104 -18.85534,14.61209z" data-paper-data="{&quot;origPos&quot;:null}" fill="#453725" stroke="none" stroke-width="0" stroke-linecap="butt"/><g data-paper-data="{&quot;origPos&quot;:null}" stroke="none" stroke-width="0" stroke-linecap="butt"><path d="M216.00745,46.37311l-4.45084,-2.18152l6.38006,0.4594l-1.287,-1.2788c0,0 3.8014,1.55383 9.34125,0.35838c7.53307,-1.62559 18.01484,-6.71823 23.53444,-7.26907c4.21117,-0.42028 7.27607,0.11045 9.62505,3.73817c1.21099,1.87022 1.61697,5.43924 1.61697,5.43924c0,0 -0.30372,2.10094 0.53041,3.61116c-0.32217,0.94492 -0.20589,2.52394 -0.35561,3.53927l-1.33672,-4.99401c0,0 -1.35112,-3.9945 -1.51377,-3.92546c-0.48796,0.2071 -0.17926,3.31489 -0.17926,3.31489c0,0 -1.0627,-4.29211 -1.58737,-5.65027c-1.29771,0.66382 -0.16805,1.5717 -2.54998,1.96447c-8.7774,1.44727 -12.45568,7.73033 -21.33982,7.73033c-13.66895,0 -21.5575,-3.84934 -21.5575,-3.84934z" data-paper-data="{&quot;origPos&quot;:null}" fill="url(#color-4)"/><path d="M213.84281,43.42858l-4.55249,-3.18193l6.5258,0.67007l-1.3164,-1.86522c0,0 3.88824,2.26641 9.55463,0.52273c10.09424,-3.1062 3.64524,-13.63262 26.55089,-16.89246c11.62641,-1.65463 5.60586,10.26785 7.33804,17.40078c0.45036,1.85452 -0.1437,4.37532 -0.1437,4.37532l-0.44443,-2.72046c0,0 -0.54391,-0.95363 -2.89988,-0.27961c-2.02448,0.57918 -3.81428,-0.10786 -3.81428,-0.10786c0,0 1.42509,0.18405 3.86899,-1.06377c1.61286,-0.78677 0.11025,-1.48377 -0.06298,-1.01518c-12.85035,2.47073 -12.99129,10.3913 -23.61279,10.3913c-13.98116,0 -21.15073,-4.76513 -21.15073,-4.76513z" data-paper-data="{&quot;origPos&quot;:null}" fill="#3b2f20"/></g><path d="M207.23186,65.57623c0.9519,4.62948 2.30565,8.88466 -1.35882,10.48864c-2.02245,0.88525 -6.01599,-2.48206 -7.05212,-7.5211c-1.03613,-5.03903 0.46434,-6.72006 3.32298,-7.60532c2.85866,-0.88525 4.05183,-0.40126 5.08793,4.63778z" data-paper-data="{&quot;origRot&quot;:0,&quot;origPos&quot;:null}" fill="#f6d8c8" stroke="none" stroke-width="0" stroke-linecap="butt"/><g data-paper-data="{&quot;origPos&quot;:null,&quot;origRot&quot;:0}" stroke="none" stroke-width="0" stroke-linecap="butt"><path d="M224.17614,68.43978c-4.18022,-0.80423 -6.05167,-1.60775 -6.25513,-4.87461c-0.07813,-1.25456 0.06824,-2.13424 0.85412,-2.95199c0.73671,-0.7666 2.32218,-1.57234 3.32425,-1.76284c2.39971,-0.45619 4.26976,-0.56831 6.39396,-0.15965c4.93553,1.65621 5.3765,5.71348 5.3765,5.71348c0,0 -0.54069,1.44611 -1.42354,2.32846c-2.95924,2.95748 -8.27015,1.70712 -8.27015,1.70712z" data-paper-data="{&quot;origPos&quot;:null}" fill="#000000"/><path d="M232.05788,67.3584c-1.01402,1.20834 -2.58395,1.45181 -2.58395,1.45181c-1.85673,-0.06739 -2.97284,-0.00032 -4.78493,-0.31943c-1.86252,-0.32801 -3.18613,-0.35117 -4.39291,-1.59991c-1.20772,-1.24969 -1.83621,-2.60824 -1.57831,-3.73841c0.12728,-0.55778 0.04762,-1.91538 1.64975,-2.50352c1.18023,-0.43326 2.09873,-1.30667 3.11837,-1.43634c2.41442,-0.30699 2.83367,-0.38072 5.21468,0.07739c3.74376,1.77361 4.88525,5.42518 4.88525,5.42518c0,0 -0.51392,1.43493 -1.52795,2.64325z" data-paper-data="{&quot;origPos&quot;:null}" fill="#ffffff"/></g><g stroke="#000000" stroke-width="0" stroke-linecap="butt"><path d="M232.26039,65.45416c0.22614,1.38875 -0.08816,2.74731 -0.77914,3.81975c-0.69097,1.07245 -1.93442,1.46674 -3.21364,1.71228c-1.27918,0.24558 -2.35495,0.29643 -3.34282,-0.4538c-0.98786,-0.75018 -1.71222,-1.9094 -1.93841,-3.29816c-0.12161,-0.74688 -0.00184,-1.48504 0.1637,-2.1746c4.05556,-1.53505 4.68264,-2.32656 9.0199,-0.04717c0.03575,0.14442 0.066,0.2917 0.09042,0.44169z" data-paper-data="{&quot;origPos&quot;:null}" fill="#898151"/><path d="M230.36462,62.2644c0.98785,0.75018 1.71217,1.90935 1.93829,3.29817c0.04796,0.29451 -0.01346,0.58769 -0.01254,0.87704c-0.71396,-0.15548 -0.92706,-1.3887 -4.63829,-1.44185c-3.37742,-0.04838 -4.13739,0.88634 -4.68673,1.13643c0.05438,-0.9531 0.35457,-1.85362 0.84277,-2.61134c0.69097,-1.07245 1.75876,-1.85888 3.03796,-2.10442c1.2792,-0.24549 2.53063,0.09576 3.51854,0.84599z" data-paper-data="{&quot;origPos&quot;:null}" fill="#4d461c"/></g><path d="M226.0567,68.62437c-1.35086,0 -3.4159,0.10517 -3.4159,0.10517v-0.43827c0,0 2.1006,-0.01013 3.4159,-0.01013c1.70646,0 4.32707,0.01013 4.32707,0.01013v0.43828c0,0 -2.65616,-0.10517 -4.32707,-0.10517z" data-paper-data="{&quot;origPos&quot;:null}" fill="#000000" stroke="none" stroke-width="0" stroke-linecap="butt"/><path d="M225.91754,58.96241c-1.26587,0.01567 -4.48965,1.23487 -4.48965,1.23487c0,0 -3.26872,1.36435 -2.76122,0.61401c0.49962,-0.73872 1.67881,-1.35337 3.02823,-1.86116c1.69469,-0.6377 3.05671,-0.94251 4.89596,-0.90882c2.84138,0.44812 4.5074,1.65718 5.65053,3.03489c-0.14878,0.17396 -1.58685,-0.78669 -1.69844,-0.58499c-0.43727,-0.32195 -0.87386,-0.62087 -1.4593,-0.92954c-0.93116,-0.49094 -1.90023,-0.61494 -3.1661,-0.59926z" data-paper-data="{&quot;origPos&quot;:null,&quot;origRot&quot;:0}" fill="#000000" stroke="#000000" stroke-width="0" stroke-linecap="butt"/><g stroke="none" stroke-width="1" stroke-linecap="butt"><path d="M226.62866,63.29876c0.59389,-0.52151 1.34614,-0.75876 2.11515,-0.58807c0.76904,0.17067 1.41082,0.71734 1.82624,1.46291c0.41544,0.74559 0.60438,1.69 0.46842,2.65543c-0.136,0.96543 -0.57142,1.77126 -1.16526,2.29279c-0.59385,0.52151 -1.34612,0.75877 -2.1151,0.58807c-0.769,-0.17067 -1.41087,-0.71735 -1.82629,-1.46294c-0.41544,-0.74559 -0.60435,-1.68996 -0.4684,-2.65535c0.13595,-0.96543 0.57138,-1.7713 1.16525,-2.29285z" data-paper-data="{&quot;origPos&quot;:null}" fill="#000000"/><path d="M229.35694,63.79693c0.17903,-0.24373 0.43002,-0.37825 0.71014,-0.34548c0.28008,0.03266 0.53712,0.22646 0.72586,0.51322c0.18879,0.28671 0.30922,0.66647 0.31661,1.07056c0.0074,0.40406 -0.09957,0.75722 -0.27859,1.00103c-0.17903,0.24373 -0.43002,0.37822 -0.71012,0.34547c-0.2801,-0.03274 -0.53708,-0.22647 -0.72584,-0.51324c-0.18874,-0.28668 -0.30923,-0.6664 -0.31663,-1.07053c-0.0074,-0.40406 0.09962,-0.75729 0.27864,-1.00114z" data-paper-data="{&quot;origPos&quot;:null,&quot;origRot&quot;:0}" fill="#ffffff"/><path d="M225.4226,66.7846c0.15761,-0.10361 0.35731,-0.15075 0.56149,-0.11681c0.2042,0.03393 0.37453,0.14256 0.48483,0.29071c0.11027,0.14816 0.16044,0.33577 0.12433,0.52773c-0.03605,0.19192 -0.1517,0.35205 -0.30933,0.45563c-0.15761,0.10361 -0.35726,0.15083 -0.56148,0.11686c-0.20417,-0.03391 -0.37445,-0.1425 -0.48473,-0.29066c-0.11027,-0.14812 -0.16045,-0.33582 -0.12433,-0.52777c0.03614,-0.19195 0.1517,-0.35199 0.30929,-0.45558z" data-paper-data="{&quot;origPos&quot;:null}" fill="#ffffff"/></g><g data-paper-data="{&quot;origPos&quot;:null,&quot;origRot&quot;:0}" stroke="none" stroke-width="0" stroke-linecap="butt"><path d="M247.01127,66.81826c-0.77207,-0.78377 -1.29963,-2.1082 -1.29963,-2.1082c0,0 0.11391,-3.80193 4.03207,-5.56299c1.70472,-0.47439 3.23397,-0.45206 5.21525,-0.13228c0.82733,0.13354 2.16681,0.81503 2.81292,1.49735c0.68923,0.72783 0.86155,1.5415 0.87372,2.71455c-0.55212,3.05179 -2.61103,4.11859 -4.7981,4.81953c0,0 -4.24831,1.39916 -6.83623,-1.22796z" data-paper-data="{&quot;origPos&quot;:null}" fill="#000000"/><path d="M246.8711,62.04098c0.76162,-1.37851 1.36824,-1.47802 2.74007,-2.32613c1.9108,-0.53177 2.2566,-0.48146 4.24082,-0.3014c1.74128,0.35271 3.66922,2.08571 3.87003,3.45085c0.27827,1.04231 0.09855,2.34912 -0.80921,3.56731c-0.90707,1.21724 -1.98326,1.29704 -3.47981,1.68471c-1.45602,0.37717 -2.36874,0.3637 -3.87631,0.50815c0,0 -1.29286,-0.15796 -2.19141,-1.23991c-0.89855,-1.08192 -1.73725,-2.63691 -1.73725,-2.63691z" data-paper-data="{&quot;origPos&quot;:null}" fill="#ffffff"/></g><g data-paper-data="{&quot;origRot&quot;:0}" stroke="#000000" stroke-width="0" stroke-linecap="butt"><path d="M249.36355,65.14269c0.03297,-0.14268 0.07029,-0.28236 0.11168,-0.41882c3.63346,-1.88555 4.05658,-1.07884 7.1198,0.68788c0.06788,0.67566 0.09517,1.39484 -0.06898,2.10521c-0.30527,1.32089 -0.98308,2.3853 -1.83171,3.03719c-0.84863,0.6519 -2.2775,0.68234 -3.26542,0.35481c-0.98796,-0.32753 -1.35028,-0.95169 -1.79825,-2.03339c-0.44796,-1.0817 -0.57237,-2.41201 -0.26713,-3.7329z" data-paper-data="{&quot;origPos&quot;:null}" fill="#898151"/><path d="M251.15169,62.20678c0.84865,-0.6519 1.86817,-0.89131 2.85611,-0.56386c0.98796,0.32749 1.75961,1.16067 2.20758,2.24238c0.31651,0.76426 0.47152,1.6526 0.42756,2.57407c-0.41108,-0.2799 -0.9261,-1.23394 -3.59807,-1.42791c-2.93604,-0.21317 -3.21678,0.95889 -3.79486,1.05774c0.02711,-0.27852 0.00531,-0.56509 0.07004,-0.84523c0.30522,-1.32091 0.98301,-2.38533 1.83161,-3.03722z" data-paper-data="{&quot;origPos&quot;:null}" fill="#4d461c"/></g><g data-paper-data="{&quot;index&quot;:null,&quot;origRot&quot;:0}" stroke="none" stroke-width="1" stroke-linecap="butt"><path d="M251.87486,63.71451c0.52178,-0.46362 1.17536,-0.66539 1.83633,-0.49538c0.66101,0.17 1.20568,0.67995 1.55146,1.36673c0.34579,0.6868 0.49255,1.55033 0.35849,2.42685c-0.13411,0.87652 -0.52398,1.60204 -1.0457,2.06567c-0.52175,0.46361 -1.17533,0.66539 -1.8363,0.49538c-0.66099,-0.17 -1.20572,-0.67995 -1.55148,-1.36675c-0.34579,-0.6868 -0.49257,-1.55032 -0.35848,-2.4268c0.13406,-0.87653 0.52397,-1.60207 1.04572,-2.06571z" data-paper-data="{&quot;origPos&quot;:null}" fill="#000000"/><path d="M254.32844,64.22222c0.15881,-0.21854 0.37779,-0.33624 0.6191,-0.3011c0.24124,0.03505 0.45981,0.21637 0.61781,0.48107c0.15804,0.26465 0.25545,0.61276 0.25485,0.98084c-0.00059,0.36807 -0.09906,0.68762 -0.25784,0.90624c-0.15881,0.21854 -0.37779,0.33626 -0.61907,0.30111c-0.24127,-0.03513 -0.45977,-0.21641 -0.6178,-0.48111c-0.158,-0.26462 -0.25545,-0.61268 -0.25487,-0.98082c0.00059,-0.36807 0.09911,-0.68768 0.25789,-0.90632z" data-paper-data="{&quot;origPos&quot;:null,&quot;origRot&quot;:0}" fill="#ffffff"/><path d="M250.87988,66.86814c0.13787,-0.09135 0.31109,-0.13049 0.48681,-0.09571c0.17572,0.03477 0.32088,0.13693 0.41356,0.2739c0.09264,0.13699 0.13272,0.30879 0.09822,0.48289c-0.03445,0.17408 -0.13706,0.31769 -0.27495,0.40902c-0.13787,0.09135 -0.31105,0.13059 -0.48679,0.09577c-0.17569,-0.03475 -0.32086,-0.13686 -0.41349,-0.27385c-0.09264,-0.13698 -0.13273,-0.30884 -0.09822,-0.48294c0.03453,-0.17411 0.13707,-0.31763 0.27493,-0.40899z" data-paper-data="{&quot;origPos&quot;:null}" fill="#ffffff"/></g><path d="M248.61873,68.5803l-0.02083,-0.46538c0,0 1.4202,0.05308 3.05133,-0.00536c1.25722,-0.04506 3.26557,-0.42383 3.26557,-0.42383l0.02085,0.46538c0,0 -1.8121,0.35686 -3.10331,0.40313c-1.59715,0.05723 -3.2136,0.02607 -3.2136,0.02607z" data-paper-data="{&quot;origPos&quot;:null,&quot;origRot&quot;:0}" fill="#000000" stroke="none" stroke-width="0" stroke-linecap="butt"/><path d="M223.1,71.8v-3h33v3z" fill="url(#color-5)" stroke="none" stroke-width="0" stroke-linecap="butt"/><path d="M246.68956,61.71245c0.79101,-1.33666 2.02336,-2.56069 4.28566,-3.18557c1.48992,-0.17213 2.62609,-0.31021 4.06546,0.13734c1.14612,0.35636 2.64382,1.76324 2.64382,1.76324c0,0 -1.50212,-0.3148 -2.38632,-0.50317c-1.12419,-0.23947 -2.47184,-0.43463 -3.50116,-0.35141c-1.02932,0.08322 -1.71559,0.29903 -2.73937,1.13567c-1.04207,0.85157 -2.87894,3.00671 -2.87894,3.00671z" data-paper-data="{&quot;origPos&quot;:null,&quot;origRot&quot;:0}" fill="#000000" stroke="#000000" stroke-width="0" stroke-linecap="butt"/><g><g data-paper-data="{&quot;index&quot;:null}"><path d="M253.88994,134.87911l-7.83787,-40.40981l-3.07685,-5.86078l-6.47385,-7.11367l4.30147,-0.83431l5.9937,6.90674l3.55699,6.06773l7.83786,40.40983z" fill="#ffffff" stroke="none" stroke-width="0" stroke-linecap="butt"/><path d="M246.00562,95.05659l-3.23248,-6.00295l4.72541,-0.79025l3.31111,5.86142z" fill="#e9e9e9" stroke="none" stroke-width="0" stroke-linecap="butt"/><path d="M245.83229,94.87187l-0.53328,-1.06802l4.66418,-1.1059l0.68668,1.07575z" fill="#f3f3f3" stroke="none" stroke-width="0" stroke-linecap="butt"/><path d="M243.56144,90.72722l-0.53329,-1.068l4.66418,-1.1059l0.68667,1.07573z" fill="#f3f3f3" stroke="none" stroke-width="0" stroke-linecap="butt"/><path d="M244.76142,92.89619l-0.53329,-1.068l4.66418,-1.1059l0.6867,1.07572z" fill="#f3f3f3" stroke="none" stroke-width="0" stroke-linecap="butt"/><path d="M239.91724,81.95108l5.21042,6.26197l0.88688,1.11657l0.54655,1.13254l0.85587,0.88834l0.44191,0.96304l0.51335,0.67777l0.40091,1.12131l7.57989,39.07988" fill="none" stroke="#ff0000" stroke-width="0.5" stroke-linecap="round"/></g><path d="M247.24044,179.28206l-5.65213,-51.15175l35.60839,0.42392l-5.79342,51.15175c0,0 -4.40995,3.36751 -12.71611,3.32437c-9.03748,-0.04695 -11.44674,-3.74828 -11.44674,-3.74828z" fill="url(#color-6)" stroke="none" stroke-width="0.5" stroke-linecap="butt"/><g stroke="none" stroke-width="0.5" stroke-linecap="butt"><path d="M262.5019,152.57336c0.81123,1.74079 3.1046,1.99144 3.43252,3.88377c0.92182,5.31933 -1.19276,9.61529 -3.88947,14.29211c-4.0888,7.09113 -13.28801,9.71507 -13.28801,9.71507c0,0 -1.10952,-0.7289 -1.51721,-1.60376c-0.5035,-1.08041 -0.70855,-1.85523 -0.33742,-2.98795c0.59103,-1.80388 6.14239,-2.47337 9.27255,-5.29671c0,0 6.35455,-6.69804 6.95815,-12.18382c0.26066,-2.36897 -1.47171,-7.62246 -0.63111,-5.8187z" data-paper-data="{&quot;origRot&quot;:0,&quot;origPos&quot;:null}" fill="#ff0000"/><path d="M258.43388,150.6643c0.65305,1.40133 2.4992,1.60311 2.7632,3.12644c0.74206,4.28207 -0.96018,7.74031 -3.13104,11.50517c-3.2915,5.70838 -10.69687,7.82064 -10.69687,7.82064c0,0 -0.89316,-0.58676 -1.22137,-1.29103c-0.40531,-0.86974 -0.57039,-1.49347 -0.27163,-2.40531c0.4758,-1.45213 4.94464,-1.99105 7.46443,-4.26385c0,0 5.11544,-5.39194 5.60132,-9.80801c0.20983,-1.90701 -1.18472,-6.13609 -0.50805,-4.68406z" data-paper-data="{&quot;origRot&quot;:0,&quot;origPos&quot;:null}" fill="#ff0000"/><path d="M260.41211,153.34905c0.65305,1.40133 2.4992,1.60312 2.7632,3.12645c0.74206,4.28207 -0.96019,7.74031 -3.13104,11.50517c-3.2915,5.70838 -10.69686,7.82065 -10.69686,7.82065c0,0 -0.89316,-0.58677 -1.22136,-1.29103c-0.40531,-0.86974 -0.57038,-1.49346 -0.27163,-2.40531c0.4758,-1.45213 4.94463,-1.99106 7.46442,-4.26386c0,0 5.11544,-5.39193 5.60133,-9.80801c0.20983,-1.90701 -1.18472,-6.13609 -0.50805,-4.68406z" data-paper-data="{&quot;origRot&quot;:0,&quot;origPos&quot;:null}" fill="#0700c3"/><path d="M257.58606,146.91455c0.65305,1.04448 2.4992,1.19487 2.7632,2.33027c0.74206,3.19161 -0.96019,5.7692 -3.13104,8.57532c-3.2915,4.2547 -10.69686,5.82908 -10.69686,5.82908c0,0 -0.89316,-0.43734 -1.22136,-0.96226c-0.40531,-0.64825 -0.57039,-1.11315 -0.27163,-1.79278c0.4758,-1.08234 4.94464,-1.48404 7.46443,-3.17805c0,0 5.11544,-4.01885 5.60133,-7.31034c0.20983,-1.42138 -1.18472,-4.5735 -0.50806,-3.49124z" data-paper-data="{&quot;origRot&quot;:0,&quot;origPos&quot;:null}" fill="#ff0000"/><path d="M268.38069,155.21665c0.19493,0.64276 2.63436,3.06969 2.57213,5.40578c-0.07997,3.00165 -0.26552,4.7727 -1.61739,7.45387c-1.17023,2.32094 -2.17875,3.42352 -3.53985,5.63795c-3.14953,5.12409 -8.41472,9.6252 -8.41472,9.6252c0,0 -0.49225,-0.00821 -0.59021,-0.33125c-0.12099,-0.39893 -0.12453,-0.7379 0.22816,-1.46083c0.56165,-1.15129 3.61415,-3.3857 5.66939,-5.935c0,0 4.56811,-6.32402 6.08215,-11.7487c1.51404,-5.42469 -0.59164,-9.31303 -0.38966,-8.64701z" data-paper-data="{&quot;origRot&quot;:0,&quot;origPos&quot;:null}" fill="#ff0000"/><path d="M273.25036,154.48264c0.47507,0.6737 0.88831,1.27781 1.2486,1.86095c-0.29175,0.83137 -0.58716,1.74915 -0.83228,2.66535c-0.07319,-0.21121 -0.14917,-0.41917 -0.22802,-0.6233c-1.47351,-3.81443 -3.99245,-5.83883 -5.04759,-6.50362c1.10451,0.38708 3.71952,0.98431 4.85929,2.60062z" data-paper-data="{&quot;origRot&quot;:0,&quot;origPos&quot;:null}" fill="#ff0000"/><path d="M268.39109,151.88201c-0.20058,-0.07029 -0.35133,-0.13365 -0.4344,-0.19492c-0.15343,-0.11317 0.0363,-0.0559 0.4344,0.19492z" data-paper-data="{&quot;origRot&quot;:0,&quot;origPos&quot;:null}" fill="#4b88c4"/></g><path d="M270.24387,150.79653c-1.88733,0.35559 -2.69729,2.51574 -4.61194,2.36556c-5.38205,-0.42215 -9.02174,-3.53337 -12.88648,-7.3028c-5.85984,-5.71531 -6.12754,-15.27768 -6.12754,-15.27768c0,0 0.98062,-0.89482 1.92914,-1.07353c1.17137,-0.2207 1.97282,-0.22778 2.97859,0.41192c1.60172,1.01873 0.87766,6.56324 2.83931,10.29435c0,0 4.91869,7.8135 10.08485,9.75486c2.23094,0.83836 7.74966,0.45887 5.79405,0.82731z" data-paper-data="{&quot;origRot&quot;:0,&quot;index&quot;:null}" fill="#ff0000" stroke="none" stroke-width="0.5" stroke-linecap="butt"/><path d="M261.76033,147.83572c-1.50201,0.36629 -2.06107,2.13729 -3.6066,2.09818c-4.3445,-0.10996 -7.40292,-2.45588 -10.67034,-5.32128c-4.95416,-4.34463 -5.5769,-12.02015 -5.5769,-12.02015c0,0 0.75014,-0.76111 1.50502,-0.9452c0.93222,-0.22734 1.5762,-0.2672 2.41197,0.20418c1.331,0.75067 0.98526,5.23861 2.72119,8.15433c0,0 4.28702,6.07142 8.52269,7.41184c1.82913,0.57885 6.2493,0.03857 4.69294,0.4181z" data-paper-data="{&quot;origRot&quot;:0,&quot;index&quot;:null}" fill="#ff0000" stroke="none" stroke-width="0.5" stroke-linecap="butt"/><path d="M262.703,146.68264c-1.51118,0.32637 -2.11694,2.08196 -3.66089,2.00193c-4.34006,-0.22499 -7.33528,-2.65107 -10.52568,-5.60201c-4.83735,-4.47431 -5.2566,-12.16362 -5.2566,-12.16362c0,0 0.77007,-0.74099 1.52954,-0.90501c0.93792,-0.20257 1.58271,-0.22536 2.40571,0.26798c1.31064,0.78566 0.84618,5.26288 2.50427,8.22354c0,0 4.12472,6.18283 8.32342,7.63496c1.81316,0.62709 6.24608,0.20407 4.68021,0.54224z" data-paper-data="{&quot;origRot&quot;:0,&quot;index&quot;:null}" fill="#0700c3" stroke="none" stroke-width="0.5" stroke-linecap="butt"/><path d="M260.9233,151.66262c-0.92712,0.81109 -0.78151,2.65763 -1.86036,3.09911c-3.03264,1.24101 -5.8485,-0.02893 -8.96459,-1.72505c-4.7247,-2.57172 -7.4586,-9.63175 -7.4586,-9.63175c0,0 0.28948,-0.95142 0.75542,-1.35906c0.5754,-0.50339 1.00807,-0.74042 1.72662,-0.55372c1.14431,0.29729 2.25273,4.64511 4.3265,6.86286c0,0 4.7824,4.40994 8.10926,4.3653c1.43666,-0.01926 4.32638,-1.89813 3.36572,-1.0577z" data-paper-data="{&quot;origRot&quot;:0,&quot;index&quot;:null}" fill="#ff0000" stroke="none" stroke-width="0.5" stroke-linecap="butt"/><path d="M259.99684,148.77943c-1.0011,-2.83091 -1.46262,-4.55083 -1.16147,-7.53839c0.26069,-2.58617 0.80705,-3.97696 1.2841,-6.53208c0.2315,-1.23995 0.55969,-2.48767 0.93385,-3.68536c0.48086,0.03161 0.99462,0.06825 1.52851,0.10054c-0.08555,0.23284 -0.16651,0.46615 -0.24164,0.69912c0,0 -1.99819,7.54109 -1.4675,13.14804c0.38531,4.07094 2.26178,6.70194 3.09743,7.62767c-0.95839,-0.67178 -3.31388,-1.95495 -3.97326,-3.81955z" data-paper-data="{&quot;origRot&quot;:0,&quot;index&quot;:null}" fill="#ff0000" stroke="none" stroke-width="0.5" stroke-linecap="butt"/><path d="M263.97009,152.59897c0.17404,0.12199 0.302,0.22381 0.36538,0.30529c0.11704,0.15049 -0.05008,0.04399 -0.36538,-0.30529z" data-paper-data="{&quot;origRot&quot;:0,&quot;index&quot;:null}" fill="#4b88c4" stroke="none" stroke-width="0.5" stroke-linecap="butt"/><path d="M271.60723,140.0473c0.5849,-1.11462 3.79626,-5.19864 4.31105,-6.06713c0.86841,0.28551 -0.86212,3.65896 0.08214,3.82904c-3.69463,3.88555 -7.12862,8.57873 -8.12396,12.26422c-0.93325,-2.63747 2.32752,-7.35198 3.73077,-10.02612z" data-paper-data="{&quot;origRot&quot;:0,&quot;index&quot;:null}" fill="#ff0000" stroke="none" stroke-width="0.5" stroke-linecap="butt"/><path d="M269.93492,156.16035c0.08307,-0.06127 0.23384,-0.12462 0.4344,-0.19492c-0.39811,0.25083 -0.58785,0.30809 -0.4344,0.19492z" data-paper-data="{&quot;origRot&quot;:0}" fill="#4b88c4" stroke="none" stroke-width="0.5" stroke-linecap="butt"/><g stroke="none" stroke-width="0.5" stroke-linecap="butt"><path d="M277.90323,126.78793c0,2.22413 -8.47732,4.02714 -18.93463,4.02714c-10.4573,0 -18.93463,-1.80301 -18.93463,-4.02714c0,-2.22413 8.47732,-4.02713 18.93463,-4.02713c10.4573,0 18.93463,1.80301 18.93463,4.02713z" data-paper-data="{&quot;origPos&quot;:null}" fill="#d1d1d1"/><path d="M259.25122,129.82595c-9.59887,0 -17.38028,-1.42344 -17.38028,-3.17932c0,-1.75589 7.78142,-3.17932 17.38028,-3.17932c9.59886,0 17.38028,1.42343 17.38028,3.17932c0,1.75589 -7.78142,3.17932 -17.38028,3.17932z" data-paper-data="{&quot;origPos&quot;:null}" fill="url(#color-7)"/><g data-paper-data="{&quot;origPos&quot;:null}"><path d="M255.06622,107.97136c1.36678,-1.75634 4.11435,-4.14521 4.11435,-4.14521c2.448,0 4.05724,2.53054 6.21849,3.68019c3.98491,2.11971 4.45371,2.78714 6.45404,6.8333c0.90444,1.82946 3.78928,7.5814 3.78928,9.62222c0,5.65787 -9.84438,4.45105 -15.19009,4.45105c-5.34571,0 -16.17922,1.34812 -16.17922,-4.30975c0,-5.65787 7.83157,-12.32608 10.79314,-16.13181z" data-paper-data="{&quot;origPos&quot;:null}" fill="#ee3838"/><path d="M276.85524,125.02164c0,2.62733 -7.61272,4.75722 -17.00347,4.75722c-9.39076,0 -18.22811,-1.94147 -18.22811,-4.56879c0,-1.54475 1.126,-6.02719 2.54471,-6.63835c4.25612,-1.8335 8.19275,3.18122 14.08196,3.48257c5.88921,0.30136 13.58247,-3.69114 18.00616,-1.84063c1.47456,0.61684 0.59876,2.18067 0.59876,4.808z" data-paper-data="{&quot;origPos&quot;:null}" fill="url(#color-8)"/><path d="M275.01986,120.31315c0.8354,1.96172 -7.59106,2.58893 -15.21206,2.58893c-7.621,0 -14.79287,-1.57557 -14.79287,-3.70778c0,-1.25363 0.91379,-4.89131 2.06513,-5.3873c3.45401,-1.48796 6.64877,2.5817 11.4281,2.82626c4.77933,0.24455 11.02274,-2.9955 14.61276,-1.49376c1.19668,0.50058 1.05115,3.18273 1.89895,5.17363z" data-paper-data="{&quot;origPos&quot;:null}" fill="url(#color-9)"/><path d="M273.25933,114.30653c0,1.83372 -4.74801,2.75503 -11.30219,2.75503c-6.55418,0 -12.72212,-1.35503 -12.72212,-3.18875c0,-1.07814 0.78588,-4.2066 1.77605,-4.63316c2.97051,-1.27967 5.63307,1.86343 9.63996,0.92339c2.11035,-0.4951 -4.52546,0.61126 -5.48701,-1.33145c-0.41836,-0.84524 2.63716,-5.06354 3.14036,-5.86118c0.49312,-0.78167 3.89635,1.72118 6.35712,3.08795c2.46079,1.36678 2.75431,2.30981 5.21256,3.33813c1.02915,0.43051 3.38526,3.07631 3.38526,4.91003z" data-paper-data="{&quot;origPos&quot;:null}" fill="url(#color-10)"/></g></g><g stroke-linecap="butt"><g data-paper-data="{&quot;origPos&quot;:null,&quot;origRot&quot;:0}"><path d="M265.89599,143.43902l-0.60781,-7.32045l6.66226,-0.56691l0.60781,7.32044z" data-paper-data="{&quot;origPos&quot;:null}" fill="#237859" stroke="none" stroke-width="0.5"/><path d="M267.59583,142.78805c0,0 -0.11308,-0.00089 -0.12975,-0.08401c-0.05007,-0.24939 -0.33146,-2.11027 -0.55212,-3.44291c-0.1331,-0.80381 -0.45703,-2.57668 -0.31114,-2.72933c0.05537,-0.05793 0.13196,-0.09074 0.13196,-0.09074l3.80108,-0.32346c0,0 0.11828,0.01943 0.17141,0.0652c0.16041,0.1345 0.1309,2.17788 0.1501,2.53998c0.07899,1.49024 0.02989,3.41251 0.0261,3.66849c-0.00127,0.08532 -0.06707,0.12275 -0.06707,0.12275z" data-paper-data="{&quot;origPos&quot;:null}" fill="#ffffff" stroke="none" stroke-width="0.5"/><path d="M267.3348,138.63811l-0.12189,-1.46811l2.81971,-0.23994l0.12189,1.46811z" data-paper-data="{&quot;origPos&quot;:null}" fill="#eb7816" stroke="#ffffff" stroke-width="0.5"/><path d="M268.6561,142.90035c0,0 -0.23132,-2.66223 0.03998,-3.71485c0.32858,-1.27481 1.49714,-2.24888 1.49714,-2.24888l0.14598,1.50656c0,0 -0.63228,0.50171 -0.71467,1.22325c-0.10808,0.94666 0.13041,3.1404 0.13041,3.1404z" data-paper-data="{&quot;origPos&quot;:null}" fill="#e0001f" stroke="#ffffff" stroke-width="0.5"/><g data-paper-data="{&quot;origPos&quot;:null}"><path d="M267.48943,141.33887l-0.12188,-1.46811l3.27584,-0.27876l0.12189,1.46811z" data-paper-data="{&quot;origPos&quot;:null}" fill="#ffffff" stroke="#ffffff" stroke-width="0.5"/><text transform="translate(267.42865,141.10977) rotate(-4.84835) scale(0.02395,0.03717) skewX(-0.15694)" font-size="40" xml:space="preserve" data-paper-data="{&quot;origPos&quot;:null}" fill="#237859" fill-rule="nonzero" stroke="#237859" stroke-width="1" stroke-linecap="butt" stroke-linejoin="miter" stroke-miterlimit="10" stroke-dasharray="" stroke-dashoffset="0" font-family="&quot;ヒラギノ角ゴ Pro W3&quot;, &quot;Hiragino Kaku Gothic Pro&quot;, Osaka, &quot;メイリオ&quot;, Meiryo, &quot;ＭＳ Ｐゴシック&quot;, &quot;MS PGothic&quot;" font-weight="normal" text-anchor="start" style="mix-blend-mode: normal"><tspan x="0" dy="0">ELEVEN</tspan></text></g></g><text transform="translate(265.77469,135.63335) rotate(-3.56954) scale(0.04136,0.04136)" font-size="40" xml:space="preserve" data-paper-data="{&quot;origPos&quot;:null,&quot;origRot&quot;:-0.46784}" fill="#ffffff" fill-rule="nonzero" stroke="none" stroke-width="1" stroke-linecap="butt" stroke-linejoin="miter" stroke-miterlimit="10" stroke-dasharray="" stroke-dashoffset="0" font-family="Sans Serif" font-weight="normal" text-anchor="start" style="mix-blend-mode: normal"><tspan x="0" dy="0">Only At</tspan></text><g data-paper-data="{&quot;origPos&quot;:null}" fill="#ffffff" stroke-width="1" font-family="Marker" font-weight="normal" font-size="40" text-anchor="start"><text transform="translate(244.93344,155.94299) rotate(-13.23559) scale(0.19566,0.19566)" font-size="40" xml:space="preserve" data-paper-data="{&quot;origPos&quot;:null,&quot;origRot&quot;:2.72593}" fill="#ffffff" fill-rule="nonzero" stroke="#ffffff" stroke-width="1" stroke-linecap="butt" stroke-linejoin="miter" stroke-miterlimit="10" stroke-dasharray="" stroke-dashoffset="0" font-family="Marker" font-weight="normal" text-anchor="start" style="mix-blend-mode: normal"><tspan x="0" dy="0">SLURPEE</tspan></text><text transform="translate(246.01476,155.58087) rotate(-13.23861) scale(0.17758,0.17758)" font-size="40" xml:space="preserve" data-paper-data="{&quot;origPos&quot;:null,&quot;origRot&quot;:2.72593}" fill="#ffffff" fill-rule="nonzero" stroke="#252152" stroke-width="1" stroke-linecap="butt" stroke-linejoin="miter" stroke-miterlimit="10" stroke-dasharray="" stroke-dashoffset="0" font-family="Marker" font-weight="normal" text-anchor="start" style="mix-blend-mode: normal"><tspan x="0" dy="0">SLURPEE</tspan></text></g></g></g><g stroke="none" stroke-width="0" stroke-linecap="butt"><path d="M241.52936,161.33362l-8.9572,0.77004l-1.11473,-12.96663l8.78697,-0.34124c0,0 2.34186,0.8407 2.53768,3.11826c0.12958,1.50725 -1.25271,9.41955 -1.25271,9.41955z" data-paper-data="{&quot;origPos&quot;:null}" fill="#000000"/><path d="M213.70728,148.77541c11.36191,0.57505 20.28265,-0.13812 28.95711,2.99556c4.64306,1.67734 4.8079,4.75622 0.37452,6.94634c-8.51105,4.20457 -20.5346,4.31589 -31.05384,4.7214c-9.43227,0.36361 -11.43329,3.39882 -30.38969,3.25663c-12.19952,0.26677 -11.34469,-23.54399 0.84109,-23.02885c12.18578,0.51514 19.90892,4.53387 31.27082,5.10892z" data-paper-data="{&quot;origPos&quot;:null}" fill="url(#color-11)"/><g data-paper-data="{&quot;origPos&quot;:null}"><path d="M239.58271,160.82963l-6.98706,1.31771l-1.32585,-13.01343l10.01751,-0.19333c0,0 -3.02894,2.45712 -3.12868,5.54183z" data-paper-data="{&quot;origPos&quot;:null}" fill="url(#color-12)"/><path d="M236.98365,161.89248c0,0 -38.90819,6.00846 -53.34043,4.91627c-8.79952,-0.66593 -11.41466,-1.81128 -11.22259,-10.40895c-0.05713,-8.14456 3.85164,-12.10448 9.74148,-13.15468c5.88985,-1.05019 58.56355,6.03863 58.56355,6.03863c0,0 -5.41244,0.92382 -5.55785,4.40617c-0.1543,3.69617 1.81581,8.20252 1.81581,8.20252z" data-paper-data="{&quot;origPos&quot;:null,&quot;origRot&quot;:0}" fill="#1e4994"/></g></g><g fill="#fde6d9" stroke="none" stroke-width="0" stroke-linecap="butt"><path d="M288.02682,154.95507c-1.22833,2.56124 -1.89999,2.91821 -5.48316,6.33186c-0.49032,0.46711 -2.03075,1.85215 -2.55255,2.28382c-1.56542,1.29501 -2.11666,1.6199 -3.5843,0.04091c-1.31546,-1.41526 -1.50059,-2.53858 -0.05292,-3.85402c1.43864,-1.21901 2.94294,-5.74481 2.94627,-9.75791c0.00147,-1.76922 6.75229,1.97915 7.97264,3.26013c0,0 1.1724,0.82289 0.75403,1.69526z" data-paper-data="{&quot;origRot&quot;:0,&quot;origPos&quot;:null}"/><path d="M276.49696,166.51603c-3.10615,2.26895 -4.37918,1.7814 -5.31222,0.72289c-1.18467,-1.344 -1.53067,-2.59752 -0.0392,-3.45474c0.50031,-0.28755 1.85428,-1.02864 2.31732,-1.36687c1.27963,-0.93475 2.61741,-1.84903 3.81096,-3.28949c1.58341,-1.91096 2.27763,-0.19139 3.33025,1.23057c0,0 1.01215,0.99986 0.64845,1.69033c-1.0678,2.02718 -1.64942,2.19837 -4.75557,4.46732z" data-paper-data="{&quot;origRot&quot;:0,&quot;origPos&quot;:null}"/><path d="M274.81517,166.85021c-1.35534,1.59279 -2.06312,1.44397 -5.21335,2.64277c-3.15024,1.19879 -4.81868,0.90134 -5.32374,0.23402c-0.54032,-0.71391 1.25754,-3.42543 3.19527,-4.36157c1.93772,-0.93613 3.38368,-1.78227 4.79051,-1.88433c1.22078,-0.08857 1.77722,-0.09707 2.3663,1.57075c0,0 0.64665,1.25583 0.18502,1.79834z" data-paper-data="{&quot;origRot&quot;:0,&quot;origPos&quot;:null}"/></g><g fill="#fde6d9" stroke="none" stroke-width="0" stroke-linecap="butt"><path d="M277.78269,163.63319c-3.43924,1.72276 -4.61387,1.03096 -5.35856,-0.16755c-0.94553,-1.52176 -1.07899,-2.81528 0.53392,-3.41346c0.54105,-0.20065 1.99912,-0.70709 2.51182,-0.9639c1.41686,-0.70973 2.88767,-1.38965 4.30345,-2.61237c1.87823,-1.6221 2.27785,0.18874 3.08024,1.7655c0,0 0.83243,1.15379 0.35933,1.77442c-1.38901,1.82216 -1.99097,1.89459 -5.4302,3.61735z" data-paper-data="{&quot;origRot&quot;:0,&quot;origPos&quot;:null}"/><path d="M276.06878,163.68401c-1.60058,1.34613 -2.27391,1.08206 -5.57926,1.74217c-3.30535,0.6601 -4.90142,0.09022 -5.28889,-0.65157c-0.41452,-0.79359 1.80788,-3.16963 3.87396,-3.77166c2.06607,-0.60203 3.63228,-1.19681 5.03657,-1.0643c1.21858,0.11499 1.76872,0.19883 2.07324,1.94121c0,0 0.42957,1.34564 -0.11559,1.80413z" data-paper-data="{&quot;origRot&quot;:0,&quot;origPos&quot;:null}"/></g><g fill="#fde6d9" stroke="none" stroke-width="0" stroke-linecap="butt"><path d="M279.55875,160.38053c-3.43924,1.72276 -4.61387,1.03096 -5.35856,-0.16755c-0.94553,-1.52176 -1.07899,-2.81528 0.53392,-3.41346c0.54105,-0.20065 1.99912,-0.70709 2.51182,-0.9639c1.41686,-0.70973 2.88767,-1.38965 4.30345,-2.61237c1.87823,-1.6221 2.27785,0.18874 3.08024,1.7655c0,0 0.83243,1.15379 0.35933,1.77442c-1.38901,1.82216 -1.99097,1.89459 -5.4302,3.61735z" data-paper-data="{&quot;origRot&quot;:0,&quot;origPos&quot;:null}"/><path d="M277.84483,160.43136c-1.60058,1.34613 -2.27391,1.08206 -5.57926,1.74217c-3.30535,0.6601 -4.90142,0.09022 -5.28889,-0.65157c-0.41452,-0.79359 1.80788,-3.16963 3.87396,-3.77166c2.06607,-0.60203 3.63228,-1.19681 5.03657,-1.0643c1.21858,0.11499 1.76872,0.19883 2.07324,1.94121c0,0 0.42957,1.34564 -0.11559,1.80413z" data-paper-data="{&quot;origRot&quot;:0,&quot;origPos&quot;:null}"/></g><g fill="#fde6d9" stroke="none" stroke-width="0" stroke-linecap="butt"><path d="M282.60559,154.57237c-3.43924,1.72276 -4.61387,1.03096 -5.35856,-0.16755c-0.94553,-1.52176 -1.07899,-2.81528 0.53392,-3.41346c0.54105,-0.20065 1.99912,-0.70709 2.51182,-0.9639c1.41686,-0.70973 2.88767,-1.38965 4.30345,-2.61237c1.87823,-1.6221 2.27785,0.18874 3.08024,1.7655c0,0 0.83243,1.15379 0.35933,1.77442c-1.38901,1.82216 -1.99097,1.89459 -5.4302,3.61735z" data-paper-data="{&quot;origRot&quot;:0,&quot;origPos&quot;:null}"/><path d="M280.89167,154.62319c-1.60058,1.34613 -2.27391,1.08206 -5.57926,1.74217c-3.30535,0.6601 -4.90142,0.09022 -5.28889,-0.65157c-0.41452,-0.79359 1.80788,-3.16963 3.87396,-3.77166c2.06607,-0.60203 3.63228,-1.19681 5.03657,-1.0643c1.21858,0.11499 1.76872,0.19883 2.07324,1.94121c0,0 0.42957,1.34564 -0.11559,1.80413z" data-paper-data="{&quot;origRot&quot;:0,&quot;origPos&quot;:null}"/></g><g data-paper-data="{&quot;origRot&quot;:0}" stroke="none" stroke-width="0" stroke-linecap="butt"><path d="M199.9274,101.06276c2.84243,9.59319 0.03854,11.46869 -1.30919,21.39631c-3.2091,23.63872 -3.38338,22.74528 -6.25685,30.56952c-3.49362,9.51289 -22.30416,3.22221 -20.92829,-6.86307c0.75926,-5.56545 0.36703,-18.68538 1.14923,-24.24735c2.67755,-19.03963 11.36085,-31.08307 18.39011,-33.54684c7.41178,-2.59785 7.50115,7.78478 8.955,12.69147z" data-paper-data="{&quot;origPos&quot;:null,&quot;origRot&quot;:0}" fill="#2152a6"/><path d="M188.81262,88.84688c0.67452,6.0236 1.86371,12.94468 1.18164,17.80072c-2.35672,16.77891 -4.98628,33.51348 -7.65589,50.24166c-5.77862,-1.03752 -11.59785,-5.56517 -10.81075,-11.33467c0.75926,-5.56545 0.36703,-18.68538 1.14923,-24.24735c2.39711,-17.04543 9.60779,-28.48348 16.13578,-32.46038z" data-paper-data="{&quot;origPos&quot;:null,&quot;origRot&quot;:0}" fill="#000000"/></g><g stroke="none" stroke-width="0" stroke-linecap="butt"><path d="M249.10989,166.31198c-7.13245,-3.39512 -14.58662,-7.10311 -14.03929,-9.57417c0.40678,-1.83657 0.53661,-7.14116 4.84331,-6.38665c5.44018,0.95307 9.13126,-0.20797 14.3482,1.43366c2.2357,0.70351 5.02601,2.69383 4.96213,4.98979c-0.06497,2.33539 -3.51488,12.67876 -10.11433,9.53736z" data-paper-data="{&quot;origRot&quot;:0,&quot;index&quot;:null}" fill="url(#color-13)"/><g data-paper-data="{&quot;index&quot;:null}" fill="#fde6d9"><path d="M246.44225,164.8212c-0.87782,-0.51151 -0.21813,-1.84478 -0.21813,-1.84478c0.45284,-1.74718 4.79685,-8.58614 5.773,-7.08891c2.21418,3.39616 6.13584,6.41151 8.17329,6.6626c2.09915,0.32784 2.54228,1.37948 2.07313,3.292c-0.52342,2.13377 -1.22576,2.15795 -3.42545,1.91134c-0.73322,-0.08221 -2.95878,-0.41861 -3.68164,-0.54792c-5.28258,-0.94502 -6.11693,-0.88261 -8.69421,-2.38438z" data-paper-data="{&quot;origRot&quot;:0,&quot;origPos&quot;:null}"/><path d="M263.75813,168.35023c-4.19903,-0.23477 -4.84554,-0.06395 -6.97617,-1.20067c-0.7257,-0.38717 -0.31565,-1.78329 -0.31565,-1.78329c0.21591,-1.77549 -0.07239,-3.60838 2.48373,-2.85c1.92676,0.57166 3.70057,0.61949 5.43044,0.71622c0.62596,0.035 2.31971,-0.0726 2.95313,-0.10076c1.88827,-0.08392 2.25041,1.16531 1.86617,2.94647c-0.30263,1.40282 -1.24263,2.50679 -5.44166,2.27202z" data-paper-data="{&quot;origRot&quot;:0,&quot;origPos&quot;:null}"/><path d="M265.53888,167.7201c-0.73716,-0.20872 -0.81513,-1.62314 -0.81513,-1.62314c-0.35961,-1.73199 0.17334,-2.02689 1.38114,-2.61469c1.39187,-0.67738 3.23084,-0.74598 5.58625,-1.00537c2.35542,-0.25938 5.55621,1.06041 5.43657,1.95824c-0.11184,0.83924 -1.53196,1.99693 -5.18325,2.69222c-3.65128,0.69527 -4.24126,1.20555 -6.40555,0.59275z" data-paper-data="{&quot;origRot&quot;:0,&quot;origPos&quot;:null}"/></g><g data-paper-data="{&quot;index&quot;:null}" fill="#fde6d9"><path d="M259.13474,165.1365c-4.19903,-0.23477 -4.84554,-0.06395 -6.97617,-1.20067c-0.7257,-0.38717 -0.31565,-1.78329 -0.31565,-1.78329c0.21591,-1.77549 -0.07239,-3.60838 2.48373,-2.85c1.92676,0.57166 3.70057,0.61949 5.43044,0.71622c0.62596,0.035 2.31971,-0.0726 2.95313,-0.10076c1.88827,-0.08392 2.25041,1.16531 1.86617,2.94647c-0.30263,1.40282 -1.24263,2.50679 -5.44166,2.27202z" data-paper-data="{&quot;origRot&quot;:0,&quot;origPos&quot;:null}"/><path d="M260.9155,164.50637c-0.73716,-0.20872 -0.81513,-1.62314 -0.81513,-1.62314c-0.35961,-1.73199 0.17334,-2.02689 1.38114,-2.61469c1.39187,-0.67738 3.23084,-0.74598 5.58625,-1.00537c2.35542,-0.25938 5.55621,1.06041 5.43657,1.95824c-0.11184,0.83924 -1.53196,1.99693 -5.18325,2.69222c-3.65128,0.69527 -4.24126,1.20555 -6.40555,0.59275z" data-paper-data="{&quot;origRot&quot;:0,&quot;origPos&quot;:null}"/></g><g data-paper-data="{&quot;index&quot;:null}" fill="#fde6d9"><path d="M256.303,160.8779c-4.19903,-0.23477 -4.84554,-0.06395 -6.97617,-1.20067c-0.7257,-0.38717 -0.31565,-1.78329 -0.31565,-1.78329c0.21591,-1.77549 -0.07239,-3.60838 2.48373,-2.85c1.92676,0.57166 3.70057,0.61949 5.43044,0.71622c0.62596,0.035 2.31971,-0.0726 2.95313,-0.10076c1.88827,-0.08392 2.25041,1.16531 1.86617,2.94647c-0.30263,1.40282 -1.24263,2.50679 -5.44166,2.27202z" data-paper-data="{&quot;origRot&quot;:0,&quot;origPos&quot;:null}"/><path d="M258.08375,160.24777c-0.73716,-0.20872 -0.81513,-1.62314 -0.81513,-1.62314c-0.35961,-1.73199 0.17334,-2.02689 1.38114,-2.61469c1.39187,-0.67738 3.23084,-0.74598 5.58625,-1.00537c2.35542,-0.25938 5.55621,1.06041 5.43657,1.95824c-0.11184,0.83924 -1.53196,1.99693 -5.18325,2.69222c-3.65128,0.69527 -4.24126,1.20555 -6.40555,0.59275z" data-paper-data="{&quot;origRot&quot;:0,&quot;origPos&quot;:null}"/></g><g data-paper-data="{&quot;index&quot;:null}" fill="#fde6d9"><path d="M251.70829,156.83482c-4.19903,-0.23477 -4.84554,-0.06395 -6.97617,-1.20067c-0.7257,-0.38717 -0.31565,-1.78329 -0.31565,-1.78329c0.21591,-1.77549 -0.07239,-3.60838 2.48373,-2.85c1.92676,0.57166 3.70057,0.61949 5.43044,0.71622c0.62596,0.035 2.31971,-0.0726 2.95313,-0.10076c1.88827,-0.08392 2.25041,1.16531 1.86617,2.94647c-0.30263,1.40282 -1.24263,2.50679 -5.44166,2.27202z" data-paper-data="{&quot;origRot&quot;:0,&quot;origPos&quot;:null}"/><path d="M253.48905,156.20469c-0.73716,-0.20872 -0.81513,-1.62314 -0.81513,-1.62314c-0.35961,-1.73199 0.17334,-2.02689 1.38114,-2.61469c1.39187,-0.67738 3.23084,-0.74598 5.58625,-1.00537c2.35542,-0.25938 5.55621,1.06041 5.43657,1.95824c-0.11184,0.83924 -1.53196,1.99693 -5.18325,2.69222c-3.65128,0.69527 -4.24126,1.20555 -6.40555,0.59275z" data-paper-data="{&quot;origRot&quot;:0,&quot;origPos&quot;:null}"/></g></g><g data-paper-data="{&quot;origPos&quot;:null}" stroke="none" stroke-width="0" stroke-linecap="butt"><path d="M238.33966,73.19233l6.21258,-0.87537c0.68515,0.40534 -0.17336,2.43316 -1.91817,2.43726c-1.71158,0.00404 -4.57586,-0.54495 -4.57586,-0.54495l0.28143,-1.01695z" data-paper-data="{&quot;origPos&quot;:null,&quot;index&quot;:null}" fill="#f4d7c8"/><path d="M243.49788,73.76114c0.42726,-0.16873 0.83793,-0.15265 0.91725,0.03588c0.07932,0.18852 -0.20277,0.47815 -0.63003,0.6469c-0.42727,0.16872 -0.83793,0.15267 -0.91725,-0.03588c-0.07932,-0.18852 0.20277,-0.47816 0.63001,-0.64691z" data-paper-data="{&quot;origPos&quot;:null,&quot;origRot&quot;:0}" fill="url(#color-14)"/><path d="M238.21392,70.69881c0,0 -0.33076,-4.27423 -0.85662,-7.00996c-0.41076,-2.13694 -1.54335,-5.47565 -1.54335,-5.47565c0,0 2.45775,2.52388 2.86995,4.16066c0.63791,2.53309 0.1698,6.40544 0.1698,6.40544z" data-paper-data="{&quot;origPos&quot;:null}" fill="url(#color-15)"/><path d="M240.24038,73.61583c0.54969,0.01557 0.98795,0.19314 0.97891,0.39656c-0.00904,0.20342 -0.46198,0.35567 -1.01168,0.34009c-0.54967,-0.01561 -0.98795,-0.19312 -0.97891,-0.39655c0.00904,-0.20342 0.46198,-0.35568 1.01168,-0.34011z" data-paper-data="{&quot;origPos&quot;:null}" fill="url(#color-16)"/><path d="M243.23633,74.22285c-0.83199,-0.03142 -1.27049,-0.34736 -1.94072,-0.73114c-1.27358,-0.50322 -2.58795,-0.17897 -2.96328,0.75387c-0.32056,0.19007 -0.7847,-0.2742 -0.98443,-0.56299c-0.41098,-0.59422 -0.55132,-1.41947 -0.22103,-2.05907c0.25174,-0.48745 0.32931,-0.64191 0.84302,-1.15187c0.4491,-0.44583 1.37659,-6.08274 0.02473,-9.47409c-1.99994,-5.01717 -6.14018,-5.52447 -11.69368,-5.76313c-2.71406,-0.11664 -9.13567,2.62594 -9.13567,2.62594c0,0 2.32286,-5.0117 5.80198,-6.54856c5.14317,-2.27195 9.47102,-2.24244 15.11127,-1.85993c18.30665,0.27287 20.22128,5.48671 20.22128,5.48671c0,0 -5.47739,0.71433 -8.84983,1.69167c-4.13602,1.19862 -5.30256,2.74912 -5.93892,4.88925c-0.65944,2.21772 -0.76703,4.23085 -0.15237,6.86922c0.27753,1.19125 1.51597,1.75109 1.70613,2.95827c0.24747,1.57091 -0.99648,2.90728 -1.82848,2.87586z" data-paper-data="{&quot;origPos&quot;:null}" fill="url(#color-17)"/></g><path d="M252.5858,54.21754c3.48978,0.04588 6.62935,2.17362 7.8427,2.95768c0.56217,0.36324 -4.78602,-1.58535 -8.19637,-1.34869c-2.56137,0.17776 -3.59478,0.15602 -5.59642,1.68895c-0.56618,0.43365 -1.05631,0.43298 -1.41895,0.2469c-0.36266,-0.18608 -0.36026,-0.89124 0.20595,-1.32488c0,0 2.85156,-2.27658 7.16306,-2.21991z" data-paper-data="{&quot;origRot&quot;:0,&quot;origPos&quot;:null,&quot;index&quot;:null}" fill="#38301c" stroke="none" stroke-width="0" stroke-linecap="butt"/><path d="M225.07174,54.08519c5.24298,-0.38868 8.85678,1.6637 8.85678,1.6637c0.71641,0.38915 0.76388,1.09274 0.33433,1.30638c-0.42953,0.21367 -1.0259,0.25205 -1.74229,-0.1371c-2.53258,-1.3757 -3.78872,-1.27436 -6.91683,-1.25449c-4.16492,0.0265 -10.54987,2.38316 -9.88875,1.97734c1.42697,-0.87595 5.11299,-3.24128 9.35672,-3.55588z" data-paper-data="{&quot;origRot&quot;:0,&quot;origPos&quot;:null,&quot;index&quot;:null}" fill="#38301c" stroke="none" stroke-width="0" stroke-linecap="butt"/><path d="M236.75,81.32551l4,-0.83333" fill="none" stroke="#000000" stroke-width="0.5" stroke-linecap="round"/></g></g></svg>