<svg version="1.1" xmlns="http://www.w3.org/2000/svg" xmlns:xlink="http://www.w3.org/1999/xlink" width="571" height="900.71666" viewBox="0,0,571,900.71666"><g transform="translate(-55.5,290)"><g data-paper-data="{&quot;isPaintingLayer&quot;:true}" fill="#368c52" fill-rule="nonzero" stroke="none" stroke-width="0" stroke-linecap="butt" stroke-linejoin="miter" stroke-miterlimit="10" stroke-dasharray="" stroke-dashoffset="0" style="mix-blend-mode: normal"><path d="M113.5,610.71666v-327h159v327z"/><path d="M333.5,477.71666v-263h165v263z"/><path d="M263.5,226.71666v-122h23v122z"/><path d="M314.5,228.71666v-184h172v184z"/><path d="M265.06597,116.71666v-191.91667h38.86804v191.91667z"/><path d="M93.75,113.71666v-15h209.75v15z"/><path d="M417,449.76667v-602.80001h154v602.80001z"/><path d="M355,70.96666v-64h27v64z"/><path d="M356,-89.81247v47.52913h27v-47.52913z"/><path d="M264.5,-73.80001v-16h100v16z"/><path d="M96.5,-147v-143h530v143z"/><path d="M299.5,-83.5v-31.80001h25v31.80001z"/><path d="M185.75,29.71666v-218h36v218z"/><path d="M55.5,461.71666v-474h58v474z"/></g></g></svg>