<svg version="1.1" xmlns="http://www.w3.org/2000/svg" xmlns:xlink="http://www.w3.org/1999/xlink" width="235.63012" height="308.77428" viewBox="0,0,235.63012,308.77428"><g transform="translate(-85.9466,-88.55877)"><g data-paper-data="{&quot;isPaintingLayer&quot;:true}" stroke-linejoin="miter" stroke-miterlimit="10" stroke-dasharray="" stroke-dashoffset="0" style="mix-blend-mode: normal"><path d="M135.71989,176.25372l0.33709,5.05797c-0.74569,0.49238 -3.52309,2.35402 -4.26348,2.85235c-0.39087,0.2622 -0.80835,0.49455 -1.21517,0.73883l-0.13304,-0.14944c0.19108,-0.34155 0.35951,-0.68438 0.55589,-1.01997c0.49503,-0.85862 0.98472,-1.72318 1.4964,-2.57518c0.33467,-0.55511 0.70194,-1.08564 1.04721,-1.62878c0.24854,-0.34924 0.46668,-0.71912 0.65196,-1.10548c0.42746,-0.77631 0.93818,-1.50406 1.52311,-2.17031z" id="Shape" fill="#000000" fill-rule="evenodd" stroke="none" stroke-width="1" stroke-linecap="butt"/><path d="M153.60322,165.88484c0,0 -1.9958,-1.29886 -3.00974,-1.91792c1.95743,-1.07205 3.96955,-2.04057 6.02803,-2.9015l0.1224,0.1375c-0.07289,0.17205 -3.14071,4.6819 -3.14071,4.6819z" id="Shape" fill="#000000" fill-rule="evenodd" stroke="none" stroke-width="1" stroke-linecap="butt"/><path d="M265.60213,395.50601l-5.7856,-0.3045l-7.95341,-104.02891" id="ID0.819343286100775" fill="none" fill-rule="nonzero" stroke="#000000" stroke-width="3.65408" stroke-linecap="round"/><path d="M311.9729,361.00541l-3.1887,4.07793l-75.56172,-59.08466" id="ID0.20713123539462686" fill="none" fill-rule="nonzero" stroke="#000000" stroke-width="3.65408" stroke-linecap="round"/><path d="M182.42254,234.91138c-9.14442,4.04414 -21.20039,4.03087 -31.28691,0.84188c-4.94472,-2.30139 -8.99501,-9.77747 -8.11582,-15.19549c1.17577,-6.17943 8.18049,-11.70639 14.11633,-12.42204c14.83695,-1.7686 36.02259,-3.13683 44.6243,4.82082c5.28961,4.94902 -10.41392,18.01243 -19.33789,21.95483z" id="ID0.9234384978190064" fill="#99b2ff" fill-rule="nonzero" stroke="#80a0d5" stroke-width="3.23007" stroke-linecap="round"/><path d="M87.56164,303.96893c0,0 19.65461,-27.2745 30.51223,-39.74057c14.28549,-17.4125 44.91297,-49.88886 44.91297,-49.88886" id="ID0.620068640448153" fill="none" fill-rule="nonzero" stroke="#000000" stroke-width="3.23007" stroke-linecap="round"/><path d="M275.42208,271.78746l0.25899,9.62673l-4.17656,5.89261l-57.93296,30.94164l-7.72726,-0.7555l-3.99316,-5.19105l-44.07594,-98.52262l59.83241,-31.95614z" id="ID0.0465886271558702" fill="#99b2ff" fill-rule="nonzero" stroke="#80a0d5" stroke-width="3.23007" stroke-linecap="round"/><path d="M243.87618,263.00259l15.33593,15.00122" id="ID0.9324376778677106" fill="none" fill-rule="nonzero" stroke="#80a0d5" stroke-width="3.23007" stroke-linecap="round"/><path d="M199.08799,195.75042l25.92312,32.53869" id="ID0.26887480774894357" fill="none" fill-rule="nonzero" stroke="#80a0d5" stroke-width="3.23007" stroke-linecap="round"/><path d="M221.39839,223.81035l5.35572,6.5994" id="ID0.5418036822229624" fill="none" fill-rule="nonzero" stroke="#ffffff" stroke-width="3.23007" stroke-linecap="round"/><path d="M215.46021,298.93027l-1.97501,-19.69602" id="ID0.643622487783432" fill="none" fill-rule="nonzero" stroke="#80a0d5" stroke-width="3.23007" stroke-linecap="round"/><path d="M188.00314,201.67077l12.62709,39.64003" id="ID0.26887480774894357" fill="none" fill-rule="nonzero" stroke="#80a0d5" stroke-width="3.23007" stroke-linecap="round"/><path d="M201.4234,243.93872l-2.50645,-8.12118" id="ID0.5418036822229624" fill="none" fill-rule="nonzero" stroke="#ffffff" stroke-width="3.23007" stroke-linecap="round"/><path d="M211.3079,189.33462c0,0 38.47078,-5.13308 57.52202,-6.11853c17.17727,-1.28926 51.13177,-0.70331 51.13177,-0.70331" id="ID0.620068640448153" fill="none" fill-rule="nonzero" stroke="#000000" stroke-width="3.23007" stroke-linecap="round"/><path d="M189.82888,97.3115c14.11061,4.28541 26.58854,13.94697 34.07543,27.96489c7.48684,14.01783 8.57756,29.76125 4.29219,43.87194c-4.28541,14.11061 -13.94705,26.58858 -27.96489,34.07543c-14.01783,7.48684 -29.76125,8.57756 -43.87194,4.29219c-14.11065,-4.28549 -26.58858,-13.94705 -34.07543,-27.96489c-7.48689,-14.01792 -8.57759,-29.76133 -4.29219,-43.87194c4.28544,-14.11075 13.94705,-26.58858 27.96489,-34.07543c14.01783,-7.48684 29.76129,-8.57768 43.87194,-4.29219z" id="ID0.9739120420999825" fill="#ffcfa0" fill-rule="nonzero" stroke="#000000" stroke-width="3.23007" stroke-linecap="butt"/><path d="M189.23255,89.87373c9.88199,1.05252 15.96067,11.28948 25.25956,13.00566c8.03536,1.47115 20.27965,-5.75117 23.9864,-2.14284c2.76666,2.79659 -6.96402,12.04561 -12.99204,16.01928c-10.43017,7.03553 -23.62751,8.9813 -35.22268,16.23205c-2.89876,1.81225 2.55729,4.79193 0.57707,5.64605c-7.91477,3.41359 -17.47772,1.61101 -25.54928,4.71427c-2.29577,0.86893 1.58519,5.34195 -0.39078,6.1631c-7.69376,3.15644 -17.3972,1.00525 -25.96169,3.94209c-1.61401,0.59312 -1.05236,3.58289 -0.53222,5.2462c1.55644,4.85214 5.64276,9.32953 4.71607,13.95473c-0.52666,2.88435 -6.79204,-2.01116 -8.68035,-0.2265c-2.57671,5.2405 1.66193,19.94849 -1.92004,16.90363c-9.97919,-8.61027 -18.14548,-24.04375 -23.25656,-38.88515c-2.02512,-7.38639 0.16282,-16.57843 5.033,-22.53574c10.68476,-13.0047 26.23613,-24.59931 42.4167,-32.57839c9.45659,-4.753 21.6133,-6.64021 32.51686,-5.45842z" id="ID0.8410323518328369" fill="#1c1a12" fill-rule="nonzero" stroke="#000000" stroke-width="2.62991" stroke-linecap="round"/><g id="ID0.9027861910872161" fill="none" fill-rule="nonzero" stroke="#000000" stroke-width="8.61573" stroke-linecap="round"><path d="M207.52064,140.35217l19.32994,36.19203" id="ID0.3690347820520401"/><path d="M186.75682,151.7821l19.32994,36.19203" id="ID0.3690347820520401"/></g><g id="ID0.46843624534085393" fill-rule="nonzero" stroke="#80a0d5" stroke-linecap="round"><path d="M110.0069,106.34903c6.35321,-4.41955 13.20973,-4.77413 18.96162,-3.47422c6.69357,1.50246 16.47735,1.70989 18.10557,10.27201c1.33014,9.70277 -6.75681,21.56837 -11.27006,31.92854c-4.76863,10.9446 -7.64435,25.91305 -15.74673,31.75691c-7.46502,4.98525 -14.02009,-3.10936 -19.3477,-7.34394c-4.66843,-3.71314 -9.44199,-8.40891 -10.67956,-16.0486c-1.23749,-7.63972 -0.05421,-16.96293 3.84405,-26.15196c3.89817,-9.18898 9.77951,-16.51916 16.13281,-20.93876z" id="ID0.10736241936683655" fill="#99b2ff" stroke-width="2.69275"/><path d="M130.37,111.16566c2.44744,-5.0149 4.61182,-10.35114 5.72994,-10.396c5.95155,-0.8603 13.05094,-2.26232 12.9542,8.00039c-0.11971,7.54154 -7.63724,23.35585 -12.23432,35.92453c-3.09119,8.44906 -5.92764,17.66525 -9.76005,24.96804c-3.29664,5.58409 -5.72827,10.20237 -7.17055,10.99411c-5.71407,1.12515 -12.91479,4.20135 -12.79958,-5.64576c0.12931,-7.77171 8.84464,-24.82785 13.37522,-37.25446c3.484,-9.5556 5.98709,-18.15401 9.90513,-26.59086z" id="ID0.10736241936683655" fill="#99b2ff" stroke-width="2.32204"/><path d="M131.39879,111.58845l15.22375,5.49844" id="ID0.6224880712106824" fill="none" stroke-width="3.23007"/><path d="M139.15189,131.446l-13.80526,-6.05221" id="ID0.2976824454963207" fill="none" stroke-width="3.23007"/><path d="M133.22119,147.65576l-13.80526,-6.05221" id="ID0.684330917429179" fill="none" stroke-width="3.23007"/><path d="M128.15513,161.89331l-14.7914,-6.48451" id="ID0.20857495116069913" fill="none" stroke-width="3.23007"/><path d="M122.41374,172.308l-13.80535,-6.05216" id="ID0.1698142634704709" fill="none" stroke-width="3.23007"/></g><path d="M199.4411,196.7608c0.27122,4.6389 -4.63695,8.69929 -10.96271,9.06914c-6.32577,0.36985 -11.67368,-3.09089 -11.9449,-7.72979c-0.27122,-4.6389 8.09311,-2.00558 14.41887,-2.37543c6.32577,-0.36985 8.21753,-3.60281 8.48876,1.03608z" fill="none" fill-rule="nonzero" stroke="#000000" stroke-width="3" stroke-linecap="butt"/></g></g></svg>