<svg version="1.1" xmlns="http://www.w3.org/2000/svg" xmlns:xlink="http://www.w3.org/1999/xlink" width="198.88519" height="424.46411" viewBox="0,0,198.88519,424.46411"><g transform="translate(-159.3648,-16.03262)"><g data-paper-data="{&quot;isPaintingLayer&quot;:true}" fill-rule="nonzero" stroke-linejoin="miter" stroke-miterlimit="10" stroke-dasharray="" stroke-dashoffset="0" style="mix-blend-mode: normal"><path d="M334.19978,238.10811c0.03109,-0.04843 0.06216,-0.09686 0.09321,-0.1453c0.44379,-0.6921 0.87387,-1.39223 1.29143,-2.09963c0.71456,-1.55254 1.42107,-3.11006 2.03732,-4.7123c2.53416,-6.58881 5.47879,-13.31519 7.84581,-20.10175c0.0165,-0.16586 0.03285,-0.3316 0.04903,-0.49722c-2.9488,8.14857 -6.45288,16.41783 -11.92896,22.46405c-1.15331,1.27339 -2.59629,2.41986 -4.06978,3.52151l-0.85523,4.27616l-4.44452,-0.8889c-0.59088,0.02016 -1.26731,-0.19065 -1.88887,-0.94284c-0.01512,-0.01812 -0.02998,-0.03646 -0.04459,-0.05502c-0.9107,-1.14591 -0.60003,-2.16213 -0.19899,-2.79733c0.15654,-0.27001 0.36215,-0.50803 0.60463,-0.70185l3.86381,-3.13935l0.11425,0.14062c1.36711,-1.032 2.69232,-2.10776 3.76632,-3.29358c3.3746,-3.72594 5.45637,-9.0161 7.33994,-13.59294c2.42487,-5.89213 4.78914,-11.83808 6.96564,-17.82623c0.83626,-2.29842 1.51357,-4.63787 2.17681,-6.98673l-0.00589,-0.00168l0.68549,-2.40418v-0.00001l0.67035,-2.35107c0.28009,-1.07452 1.25709,-1.86762 2.41933,-1.86762c1.29239,0 2.35573,0.98067 2.48648,2.23847l0.27813,2.35688c0.58166,0.55162 0.26815,1.58681 0.28184,2.38833c0.01361,0.79715 -0.01621,1.60495 -0.07019,2.41673c0.4473,-0.67707 1.2152,-1.12374 2.08741,-1.12374c1.38071,0 2.5,1.11929 2.5,2.5c0,0.00198 0,0.00396 -0.00001,0.00594l-0.00898,4.42279l-0.0045,-0.00001c-0.00501,0.83972 -0.01176,1.67943 -0.01993,2.51913c-0.21761,13.01757 -5.72214,23.40313 -13.03327,33.8073c-1.91401,2.72374 -4.00444,5.34423 -6.00655,8.00415c-0.50115,0.6658 -0.69412,1.80883 -1.50634,1.99523l-1.48917,1.97248c-0.45529,0.61655 -1.18715,1.01641 -2.0124,1.01641c-1.38071,0 -2.5,-1.11929 -2.5,-2.5c0,-0.09914 0.00577,-0.19693 0.01699,-0.29306c-0.5706,-0.45819 -0.93586,-1.16162 -0.93586,-1.95036c0,-0.52532 0.16203,-1.0128 0.43883,-1.41519l0.98104,-1.47156c-0.20271,-0.5657 0.65079,-1.01096 1,-1.5c0.33461,-0.46859 0.68052,-0.92894 1.02991,-1.38674zM350.13761,217.03557c1.11014,-2.74909 1.96827,-5.59212 2.49333,-8.57291c-0.67876,1.78791 -1.3435,3.58635 -2.00819,5.38716c-0.13202,1.07818 -0.29179,2.14266 -0.48515,3.18574z" fill="#ffe9cc" stroke="none" stroke-width="0.5" stroke-linecap="butt"/><g fill="#ffe9cc" stroke="#000000" stroke-width="2.5" stroke-linecap="round"><path d="M275.82224,166.31501l49.47105,53.96563l-13.91721,12.5676l-45.87262,-49.93947" data-paper-data="{&quot;index&quot;:null}"/><path d="M316.62283,213.42375c13.2177,4.09467 41.47433,41.02648 26.60933,46.42715c-11.98154,4.35307 -11.33598,-6.3165 -15.47244,-12.38615c-2.89444,-4.24715 -6.454,-6.68335 -6.454,-6.68335c0,0 9.57498,20.21667 4.16735,17.16818c-3.80662,-2.14594 -19.20222,-33.3427 -19.20222,-33.3427" data-paper-data="{&quot;index&quot;:null}"/></g><path d="M223.49243,28.97507c5.78117,9.63964 -6.82882,18.22681 -22.62144,27.69809c-15.79263,9.47128 -32.51242,16.27469 -38.2936,6.63506c-5.78117,-9.63964 1.56548,-32.07201 17.35812,-41.54329c15.79263,-9.47128 37.77574,-2.42949 43.55692,7.21016z" data-paper-data="{&quot;origRot&quot;:0}" fill="#2c1500" stroke="#000000" stroke-width="2.5" stroke-linecap="butt"/><path d="M315.38368,414.4696c14.31002,14.79694 -26.31732,11.03526 -38.62627,5.77285c-12.36366,-28.92278 -25.12152,-124.66385 -34.80576,-134.08809c-4.7988,-4.66995 4.71455,134.63924 1.79621,140.66586c-33.59484,20.15325 -52.15841,15.35582 -37.32193,-11.2148c5.71249,-28.64011 3.30498,-49.60005 -2.44222,-78.2332c-6.01307,-29.95777 -12.4272,-57.6312 -6.47389,-87.60092c4.69887,-23.65473 15.88303,-29.45023 39.91637,-31.45624c0,0 31.88848,1.71859 40.39527,24.793c5.75815,15.61884 10.09131,42.02294 14.09906,90.03833z" fill="#ffffff" stroke="#000000" stroke-width="2.5" stroke-linecap="butt"/><path d="M280.20586,155.74731c3.51507,27.10525 -38.30087,25.69951 -49.39678,26.53838c-7.08477,0.53562 -47.76269,17.02281 -50.08481,-10.2106c-0.66676,-7.81958 8.97028,-11.94608 16.67461,-13.44059c12.40515,-2.40641 9.77145,6.51702 17.34565,-3.59783c1.23403,-1.64798 -0.8869,-15.09242 0.00737,-16.94685c2.68284,-5.56331 4.46737,-5.54923 13.9093,-6.65968c0,0 4.34532,-1.30534 7.31726,4.63256c1.92844,3.85302 4.14386,16.12964 5.92435,20.05321c0,0 3.77073,-6.28622 16.61932,-5.00754c-3.34558,-0.37541 -6.66034,-5.67817 23.18373,3.63891z" data-paper-data="{&quot;origRot&quot;:0}" fill="#ffe9cc" stroke="#000000" stroke-width="2.5" stroke-linecap="butt"/><path d="M203.08852,218.4277c0.08186,0.69603 0.00718,1.27688 -0.16684,1.29732c-0.17399,0.02046 -0.38143,-0.52719 -0.46329,-1.22321c-0.08186,-0.69603 -0.00716,-1.27688 0.16686,-1.29732c0.17399,-0.02046 0.38143,0.5272 0.46328,1.22321z" data-paper-data="{&quot;origRot&quot;:0}" fill="#e7e69d" stroke="none" stroke-width="2.5" stroke-linecap="butt"/><path d="M278.01368,99.94135c-0.26905,29.99517 -41.75205,49.08663 -53.94043,48.32419c-7.78232,-0.48683 -53.46289,-20.57774 -51.87768,-50.5322c2.87461,-54.3195 24.82124,-53.8071 54.04211,-53.19739c29.22085,0.60972 52.30117,-3.142 51.776,55.40539z" data-paper-data="{&quot;origRot&quot;:0}" fill="#ffe9cc" stroke="#000000" stroke-width="2.5" stroke-linecap="butt"/><path d="M281.30263,92.52287c-0.01019,0.48803 -4.91222,-18.74253 -3.98535,-18.56299c-14.51296,7.09891 -12.98334,6.59464 -28.56367,10.86943c-50.60469,13.88444 14.11559,-14.61006 -4.41663,-14.97538c-0.06871,-0.00135 -48.53538,17.79218 -48.60412,17.79075c-2.64924,-0.05527 -23.43846,30.17875 -25.92859,29.27274c-7.47033,-2.71807 -3.97068,-69.44188 18.13931,-78.43918c28.54664,-11.61656 47.80222,-10.8075 65.85129,-4.51085c28.77624,10.03897 27.74243,47.30932 27.50777,58.55551z" data-paper-data="{&quot;origRot&quot;:0}" fill="#2c1500" stroke="#000000" stroke-width="2.5" stroke-linecap="butt"/><path d="M239.89473,99.31845c0.8632,10.34165 -8.36494,19.55387 -20.61163,20.57607c-12.24669,1.02221 -22.87434,-6.53269 -23.73754,-16.87434c-0.8632,-10.34165 0.15004,-23.28786 12.04289,-20.19166c35.60008,9.26817 31.44309,6.14828 32.30628,16.48992z" fill="#ffffff" stroke="#000000" stroke-width="2" stroke-linecap="butt"/><path d="M271.35232,115.54841c0,0 -42.71193,34.85914 -66.19498,7.50997" fill="none" stroke="#000000" stroke-width="2.5" stroke-linecap="round"/><path d="M269.08947,76.42733c8.99626,-4.83977 11.74241,7.79265 12.60561,18.1343c0.8632,10.34164 -6.45847,19.39474 -16.35339,20.22065c-9.89492,0.82591 -18.61611,-6.88812 -19.4793,-17.22976c-0.8632,-10.34164 -3.70235,-6.6378 23.22708,-21.12518z" data-paper-data="{&quot;index&quot;:null}" fill="#ffffff" stroke="#000000" stroke-width="2" stroke-linecap="butt"/><path d="M232.48923,97.78637c-0.06815,-0.81645 0.53847,-1.53355 1.35491,-1.6017c0.81645,-0.06815 1.53355,0.53847 1.6017,1.35491c0.06815,0.81645 -0.53847,1.53355 -1.35491,1.6017c-0.81645,0.06815 -1.53355,-0.53847 -1.6017,-1.35491z" fill="#000000" stroke="none" stroke-width="0" stroke-linecap="butt"/><path d="M275.88449,89.9192c-0.06815,-0.81645 0.53847,-1.53355 1.35491,-1.6017c0.81645,-0.06815 1.53355,0.53847 1.6017,1.35491c0.06815,0.81645 -0.53847,1.53355 -1.35492,1.6017c-0.81645,0.06815 -1.53355,-0.53847 -1.6017,-1.35491z" fill="#000000" stroke="none" stroke-width="0" stroke-linecap="butt"/><path d="M196.03442,255.82095c0,0 -12.55692,-43.38871 -15.68071,-57.3398c-0.37435,-1.67184 -0.9169,-28.78807 -0.9169,-28.78807c0,0 -2.48408,3.08918 8.0874,5.00436c3.91317,0.94091 9.17944,0.12011 10.48583,-3.68665c1.46852,-4.27926 -4.04695,-13.35913 0.25003,-11.94335c9.41673,-4.3209 16.80097,-7.27455 16.80097,-7.27455c0,0 1.01372,20.4092 13.84982,18.89958c14.3277,-1.68506 9.32464,-19.39924 12.02951,-21.41624c0.88,0.28998 18.10813,0.03565 19.20577,0.20579c0.36587,0.0567 3.4732,10.12078 5.39609,12.18538c3.71978,3.99397 9.59812,0.2608 12.08919,-1.84678c3.83917,-3.24818 7.3385,-6.48524 7.315,-5.93424c0.89407,0.66986 -7.42477,29.62799 -7.01628,33.1943c2.44453,21.34107 3.95466,59.7722 3.95466,59.7722c0,0 -14.39484,9.3328 -27.05233,10.65501c-4.21916,0.44072 -58.7981,-1.68699 -58.7981,-1.68699z" data-paper-data="{&quot;origRot&quot;:0}" fill="#fffeae" stroke="#000000" stroke-width="2.5" stroke-linecap="butt"/><path d="M215.879,173.87437l6.16109,9.86362c0,0 -5.05529,18.50761 -10.79988,21.8797c-5.20613,3.05601 -17.21441,5.98515 -17.21441,5.98515l-4.92636,-23.3781" fill="#fffeae" stroke="#000000" stroke-width="2.5" stroke-linecap="round"/><path d="M181.43502,216.41837c0.38902,0.02971 0.70506,0.3361 1.00968,0.68579c0.67404,0.45028 1.35455,0.89098 2.03833,1.3261c1.3143,0.83642 2.62882,1.69595 3.94525,2.5683l-0.02427,-0.19166c-0.01635,-0.11549 -0.0248,-0.23351 -0.0248,-0.35351c0,-1.38071 1.11929,-2.5 2.5,-2.5c0.45693,0 0.88523,0.12258 1.25381,0.33666l2.22174,1.2343c7.98066,4.43278 16.05361,8.62853 24.25669,12.63003c0.88231,0.4304 1.76601,0.88633 2.65344,1.34926c6.40813,1.16526 12.49752,2.13642 18.80417,4.44886c7.54419,2.7662 15.23631,5.88757 23.28935,6.22312c1.30753,0.05448 2.60934,0.59572 3.90462,0.40905c4.04579,-0.58306 8.75165,-4.13049 12.36894,-5.93914c0,0 2.23607,-1.11803 3.3541,1.11803c1.11803,2.23607 -1.11803,3.3541 -1.11803,3.3541c-2.33786,1.16893 -5.06283,2.98441 -7.79422,4.34419c0.57145,0.17522 1.13406,0.35959 1.68403,0.55455c0.78544,0.27843 1.91624,0.29308 2.2699,1.04765l2.21875,1.02404c0.88482,0.38498 1.5035,1.26699 1.5035,2.29351c0,1.38071 -1.11929,2.5 -2.5,2.5c-0.10795,0 -0.2143,-0.00684 -0.31864,-0.02012l-0.21137,-0.02399c-0.15222,0.02896 -0.30934,0.04411 -0.46999,0.04411c-0.19039,0 -0.3758,-0.02128 -0.554,-0.0616l-0.96805,-0.19877c1.24918,0.54491 2.34124,1.16666 2.66456,1.8304l2.10444,1.26267c0.15396,0.08877 0.29757,0.19347 0.42858,0.31185c0.51619,0.04718 1.03197,0.09713 1.54711,0.15108c1.50594,0.15773 3.92489,-0.53486 4.45584,0.88318c0.62295,1.66374 0.60257,3.50162 0.90385,5.25242l-3.91152,0.93689l-0.0565,-0.23588c-4.9796,0.30054 -10.14327,-1.30534 -15.07348,-2.5973c-2.12417,-0.35002 -4.24424,-0.8609 -6.33046,-1.44723c-6.36967,-1.32352 -12.83326,-2.5034 -19.0753,-4.2421c-9.82496,-2.73671 -19.62012,-7.27082 -28.6575,-11.91164c-2.56761,-1.3185 -5.06853,-2.67521 -7.52161,-4.07425c-2.11401,-0.89434 -4.23508,-1.82538 -6.12838,-3.00149c-1.12976,-0.7018 -2.20561,-1.66944 -3.24507,-2.68339c-4.03649,-2.59275 -8.00478,-5.32501 -11.99908,-8.21744c-2.23543,-1.61876 -4.45715,-3.24464 -6.64459,-4.92729c-0.66052,-0.50809 -1.86518,-0.69911 -1.98156,-1.52428l-1.96032,-1.50794c-0.60549,-0.45624 -0.99696,-1.18135 -0.99696,-1.9979c0,-1.38071 1.11929,-2.5 2.5,-2.5c0.54758,0 1.05405,0.17605 1.46588,0.47464l1.77252,1.25072c0.14845,0.10441 0.29734,0.2082 0.44663,0.31141zM267.75701,256.36821c-1.55312,-0.6111 -3.12786,-0.86526 -4.73646,-1.02341c1.5724,0.37372 3.15046,0.71833 4.73646,1.02341zM196.88108,226.61007c0.03123,0.03299 0.06258,0.06606 0.09405,0.0992c0.24014,0.15858 0.48046,0.31686 0.72097,0.47477l0.36959,0.06465c-0.39511,-0.21233 -0.78998,-0.4252 -1.18461,-0.63862z" fill="#ffe9cc" stroke="none" stroke-width="0.5" stroke-linecap="butt"/><g fill="#ffe9cc" stroke="#000000" stroke-width="2.5" stroke-linecap="round"><path d="M221.53012,192.89971l56.10813,38.08053l-10.39841,15.60468l-60.617,-41.05185"/><path d="M270.84478,229.61896c0,0 33.11204,10.67037 35.7913,14.12245c3.80617,4.90398 -17.59292,-1.6132 -17.59292,-1.6132c0,0 2.93033,3.16524 7.55494,5.40782c6.60907,3.20488 17.0697,1.00672 14.51466,13.49584c-3.16991,15.49473 -43.83522,-7.06027 -49.8179,-19.53749"/></g></g></g></svg>