<svg version="1.1" xmlns="http://www.w3.org/2000/svg" xmlns:xlink="http://www.w3.org/1999/xlink" width="523.33074" height="392.50078"><defs><linearGradient x1="254.49999" y1="-16.0003" x2="254.49999" y2="376.50047" gradientUnits="userSpaceOnUse" id="color-1"><stop offset="0" stop-color="#0c9eff"/><stop offset="1" stop-color="#ffffff"/></linearGradient></defs><g transform="translate(7.16539,16.00031)"><g data-paper-data="{&quot;isPaintingLayer&quot;:true}" fill="url(#color-1)" fill-rule="nonzero" stroke="none" stroke-width="none" stroke-linecap="butt" stroke-linejoin="miter" stroke-miterlimit="10" stroke-dasharray="" stroke-dashoffset="0" font-family="none" font-weight="none" font-size="none" text-anchor="none" style="mix-blend-mode: normal"><g data-paper-data="{&quot;origPos&quot;:null}"><path d="M516.16536,375.18006c0,0.88391 -0.4365,1.32041 -1.32041,1.32041c-312.41395,0 -485.96634,0 -520.679,0c-0.89482,0 -1.33133,-0.4365 -1.33133,-1.32041c0,-233.90942 0,-363.86638 0,-389.84904c0,-0.88391 0.4365,-1.33133 1.33133,-1.33133c312.40304,0 485.96634,0 520.679,0c0.88391,0 1.32041,0.44742 1.32041,1.33133c0,233.90942 0,363.85547 0,389.84904z" id="buCemc0V7 1" stroke="none" stroke-width="1"/><g stroke-opacity="0" stroke="#000000" stroke-width="0.23"><path d="M516.16536,375.18006c0,0.88391 -0.4365,1.32041 -1.32041,1.32041c-312.41395,0 -485.96634,0 -520.679,0c-0.89482,0 -1.33133,-0.4365 -1.33133,-1.32041c0,-233.90942 0,-363.86638 0,-389.84904c0,-0.88391 0.4365,-1.33133 1.33133,-1.33133c312.40304,0 485.96634,0 520.679,0c0.88391,0 1.32041,0.44742 1.32041,1.33133c0,233.90942 0,363.85547 0,389.84904z" id="buCemc0V7 2"/></g></g></g></g></svg>