<svg version="1.1" xmlns="http://www.w3.org/2000/svg" xmlns:xlink="http://www.w3.org/1999/xlink" width="163.05575" height="391.83742" viewBox="0,0,163.05575,391.83742"><g transform="translate(-170.23293,-30.4984)"><g data-paper-data="{&quot;isPaintingLayer&quot;:true}" fill-rule="nonzero" stroke="none" stroke-linecap="round" stroke-miterlimit="10" stroke-dasharray="" stroke-dashoffset="0" style="mix-blend-mode: normal"><path d="M225.60171,149.87379c0,0 -0.07041,30.69116 7.47307,57.38264c4.79293,16.95909 17.01972,32.89368 20.2764,36.41835c12.0248,13.0143 28.37116,24.56469 28.37116,24.56469c0,0 -17.51714,-7.5505 -30.73422,-19.79948c-4.16957,-3.86417 -13.55484,-16.72117 -18.8823,-31.26058c-6.43174,-17.55315 -8.50432,-37.5743 -8.66064,-47.39075c-0.184,-11.55392 2.15653,-19.91487 2.15653,-19.91487z" data-paper-data="{&quot;index&quot;:null}" fill="#000000" stroke-width="9.375" stroke-linejoin="round"/><path d="M218.5627,280.63973c-0.62788,-0.0045 -1.31392,-7.41497 -1.77132,-19.64669c-0.28082,-7.49137 -0.56599,-18.29203 -0.31904,-29.16465c0.23376,-9.41688 0.65877,-19.69648 1.34871,-30.51941c0.99204,-15.56337 2.362,-29.57444 3.9136,-41.88237c0.05073,0.1057 0.09939,0.20611 0.14613,0.29668c0.02065,0.03983 0.04246,0.07447 0.05538,0.10326c0.02253,0.0503 0.03506,0.0986 0.04764,0.14528c0.02399,0.08972 0.04048,0.17105 0.05086,0.24205v0c-0.00055,-0.02019 -0.096,-0.11357 -0.2555,-0.29588c-0.59394,-0.65374 -1.24463,-1.31316 -1.88636,-1.96836c-2.47601,-2.52758 -4.84123,-4.88441 -7.02348,-7.08637c-10.39123,-10.48508 -16.64533,-17.19851 -16.13035,-17.73644c0.43304,-0.45215 7.52971,5.34993 18.53793,15.18828c2.25208,2.0129 4.86046,4.35925 7.41954,6.75324c0.66574,0.62192 1.37899,1.2879 2.08234,2.00105c0.13424,0.1267 0.34234,0.34076 0.59913,0.66337v0c0.03918,0.11014 0.08352,0.23025 0.13166,0.36221c0.02448,0.06795 0.05208,0.13926 0.07208,0.21388c0.01207,0.04308 0.01613,0.08228 0.02257,0.11929c0.01471,0.08581 0.03368,0.17047 0.05507,0.26043c-1.06669,12.66506 -2.06447,26.29397 -3.00123,42.40023c-0.64101,11.00308 -1.15294,21.44964 -1.59943,31.00438c-0.4652,9.44504 -0.78312,22.77448 -0.99507,28.96603c-0.41743,12.19135 -0.87626,19.58588 -1.50084,19.58052z" data-paper-data="{&quot;index&quot;:null}" fill="#000000" stroke-width="9.375" stroke-linejoin="round"/><path d="M238.2402,144.2798c0,0 -15.63977,26.40739 -22.68923,53.23356c-4.47905,17.04469 -2.03314,36.98016 -1.01637,41.67008c3.75425,17.31685 11.97499,35.56608 11.97499,35.56608c0,0 -11.25987,-15.39727 -16.42983,-32.65994c-1.63096,-5.44582 -3.19087,-21.28731 -0.40061,-36.51855c3.36863,-18.38838 11.74582,-36.6904 16.59405,-45.2275c5.70634,-10.04812 11.96701,-16.06374 11.96701,-16.06374z" data-paper-data="{&quot;index&quot;:null}" fill="#000000" stroke-width="9.375" stroke-linejoin="round"/><path d="M268.39461,325.23322c-3.72117,2.46838 -7.42886,4.87475 -11.11631,7.21897c-14.2304,9.0482 -27.44149,16.84303 -40.0544,23.69933v0c-6.77698,3.68566 -12.70992,6.7574 -18.93184,9.51706c-2.41407,1.07292 -4.73987,2.0396 -7.22761,2.8578c-0.91554,0.30313 -1.87603,0.58507 -2.91004,0.8097c-0.64318,-0.28028 -1.47629,-0.57435 -2.45872,-0.98031c1.95228,-0.22031 3.76503,-0.1778 5.33637,0.08728c1.6871,0.73235 3.05959,1.60745 4.18206,2.35882c8.09007,5.3696 12.90381,8.36455 12.63052,8.59502c-0.4507,0.38011 -6.03872,-2.06609 -14.89879,-7.05008c-1.19498,-0.66489 -2.50191,-1.39041 -3.8541,-1.87301c-1.09784,-0.80368 -2.37264,-1.51016 -3.76837,-2.14052c0.31896,-0.40207 0.78375,-0.94569 1.39788,-1.51754c0.73155,-0.18779 1.46969,-0.44448 2.26854,-0.74121c2.16666,-0.80906 4.22931,-1.77451 6.51314,-2.88887c5.88207,-2.87728 11.40656,-5.97403 18.01326,-9.78406v0c12.27873,-7.08617 24.99229,-14.8542 39.14443,-23.95369c3.63994,-2.3402 7.30691,-4.73465 11.00067,-7.18451c26.37547,-17.49395 -45.31511,-61.72948 -45.31511,-61.72948c0,0 84.66783,42.78529 50.04847,64.6993z" data-paper-data="{&quot;index&quot;:null}" fill="#000000" stroke-width="9.375" stroke-linejoin="round"/><path d="M221.79288,239.58807c0.62137,0.04169 0.92467,11.53041 -0.23422,30.03991c-1.17566,18.77907 -3.81964,43.70998 -9.30992,71.68469c-0.83562,4.25585 -1.70688,8.4326 -2.61097,12.52825c-3.21887,14.58998 -6.56852,27.49795 -10.14905,39.26656v0c-1.9165,6.30548 -3.68714,11.66595 -5.85513,16.83729c-0.82759,1.98147 -1.6699,3.83128 -2.7211,5.596c-0.37883,0.64094 -0.80432,1.28301 -1.32138,1.89672c-0.56099,-0.05433 -1.27955,-0.04722 -2.18508,-0.10607c1.03222,-0.92136 1.95677,-1.30216 2.61474,-1.50338c1.48766,0.3061 2.88894,0.8051 4.05038,1.21278c8.86186,3.08382 14.03178,4.73658 13.95146,5.14125c-0.10355,0.52147 -5.49431,-0.2642 -14.64894,-2.65229c-1.2051,-0.31068 -2.54989,-0.68532 -3.7758,-0.8409c-0.93681,-0.47752 -1.78531,-1.02161 -2.31806,-1.29875c-0.09318,-0.48687 -0.1603,-1.18435 -0.12704,-1.9743c0.32971,-0.43601 0.62062,-0.95186 0.92891,-1.53378c0.84643,-1.61111 1.52012,-3.34498 2.24189,-5.31504c1.8767,-5.14508 3.37433,-10.36284 5.1045,-16.72413v0c3.22351,-11.86721 6.27194,-24.54155 9.40418,-39.15807c0.87196,-4.0694 1.72376,-8.21429 2.55287,-12.43794c5.47691,-27.90304 8.5884,-52.24982 10.68176,-70.9979c2.04415,-18.31213 2.98194,-29.71049 3.72602,-29.66091z" data-paper-data="{&quot;index&quot;:null}" fill="#000000" stroke-width="9.375" stroke-linejoin="round"/><g><path d="M212.32942,147.15182c-19.29533,-4.24996 -47.84241,-26.81499 -41.08273,-57.8321c4.93864,-1.68283 18.27998,-0.70652 24.36666,6.53119c2.38644,-35.38876 34.27252,-70.25303 83.59514,-64.78307c1.12258,37.29166 38.86634,36.49741 53.04344,26.96485c5.74373,17.03772 -13.33582,47.82192 -33.60743,47.00575" data-paper-data="{&quot;index&quot;:null}" fill="#000000" stroke-width="9.375" stroke-linejoin="round"/><path d="M310.96911,122.37391c-1.82727,29.00655 -26.43725,51.24084 -55.45752,49.63256c-29.01953,-1.60861 -51.24049,-26.4372 -49.63221,-55.45715c1.60859,-29.01956 26.40628,-48.74913 55.4568,-49.63258c29.95069,-0.91073 51.50613,25.72022 49.63293,55.45717z" data-paper-data="{&quot;index&quot;:null}" fill="#f2f2f2" stroke-width="9.0943" stroke-linejoin="round"/><path d="M222.60722,81.68333c38.01619,-33.49516 89.12183,-12.07372 88.30644,40.61244c-1.37572,21.83131 -15.65701,39.82455 -35.01044,46.70592c-41.6079,10.17453 -85.43966,-34.47079 -53.296,-87.31832z" data-paper-data="{&quot;index&quot;:null}" fill="#ffffff" stroke-width="9.09417" stroke-linejoin="round"/><path d="M301.45214,88.41873c-0.32178,0.18288 -3.30901,-6.5387 -13.07608,-13.06363v0c-4.09192,-2.73895 -9.41802,-5.21965 -15.90869,-6.52226c-5.25554,-1.0552 -11.14885,-1.31353 -17.44977,-0.46455c-5.58408,0.75413 -11.4144,2.37738 -17.14503,5.04446c-5.21261,2.42867 -10.34412,5.72827 -14.90065,9.97445c-4.24785,3.95899 -8.01774,8.77276 -10.75373,14.28697c-2.71676,5.46352 -4.40463,11.64011 -4.80343,18.06998c-0.44851,7.07535 0.67039,14.39071 3.00107,21.54591c2.31583,7.1616 7.11973,13.6122 13.22556,18.75959c0.27242,0.22963 0.54807,0.45626 0.82626,0.68019c6.32576,5.09795 13.7199,8.66208 21.30694,10.74941c8.49134,2.32207 17.2123,2.77593 25.32617,1.23424c8.86456,-1.677 16.86062,-5.82809 22.89418,-11.51092v0c6.4374,-6.03593 10.62408,-13.78061 12.80778,-21.40919c2.48659,-8.6842 2.58934,-17.39602 1.51962,-24.94985c-1.34079,-9.39659 -4.42641,-17.06645 -7.94617,-22.94448c-3.69077,-6.14485 -7.62226,-9.97564 -10.61404,-12.367c-2.94961,-2.35819 -4.78768,-3.30459 -4.69994,-3.48781c0.05944,-0.12212 2.09809,0.399 5.38586,2.5364c3.29252,2.14001 7.7177,5.89992 11.82478,12.12209c3.93609,5.94562 7.47396,13.86534 9.13938,23.65638c1.34952,7.88443 1.45301,17.07313 -1.02043,26.42079c-2.18389,8.24988 -6.57588,16.67735 -13.54614,23.41508v0c-6.55595,6.30968 -15.21795,10.94097 -24.90855,12.84731c-8.82239,1.72958 -18.23277,1.31294 -27.36045,-1.16377c-8.15548,-2.20157 -16.11625,-6.03094 -22.99541,-11.5631c-0.30211,-0.24323 -0.6017,-0.48914 -0.89874,-0.73811c-6.69131,-5.58699 -11.95136,-12.76094 -14.60007,-20.87923c-2.4737,-7.63213 -3.61626,-15.52523 -3.09095,-23.24507c0.48631,-7.02705 2.3927,-13.74598 5.4248,-19.69473c3.06001,-5.98904 7.19783,-11.14335 11.83538,-15.33615c4.96747,-4.49135 10.49795,-7.92018 16.08557,-10.39328c6.13814,-2.7179 12.3531,-4.29868 18.27822,-4.95085c6.68609,-0.73774 12.92387,-0.27353 18.4478,1.0261c6.83047,1.60701 12.35354,4.47739 16.50282,7.56996v0c10.25768,7.65662 11.57397,14.92234 11.88621,14.7447z" data-paper-data="{&quot;index&quot;:null}" fill="#000000" stroke-width="9.375" stroke-linejoin="round"/><path d="M268.58428,106.12567c1.36621,0.07549 2.31049,3.09771 2.10835,6.74614c-0.20216,3.64809 -1.47492,6.54746 -2.84111,6.4716c-1.36552,-0.07546 -2.30981,-3.09769 -2.10767,-6.74611c0.20216,-3.64809 1.47457,-6.54747 2.84043,-6.47164z" data-paper-data="{&quot;index&quot;:null}" fill="#000000" stroke-width="9.375" stroke-linejoin="round"/><path d="M294.68796,113.25555c0.20217,-3.64842 1.47493,-6.54778 2.84043,-6.47196c1.36619,0.07585 2.31085,3.09809 2.10836,6.74614c-0.20213,3.64807 -1.47457,6.54746 -2.84077,6.47193c-1.3655,-0.07582 -2.31013,-3.09806 -2.108,-6.74612z" data-paper-data="{&quot;index&quot;:null}" fill="#000000" stroke-width="9.375" stroke-linejoin="round"/><path d="M263.80282,146.63847c-3.24216,0.51763 -5.22409,1.20648 -5.39449,0.83027c-0.13514,-0.29744 1.58139,-1.63767 4.94929,-2.69689c3.42304,-1.07663 8.18405,-1.70125 13.62075,-0.73586c0.05281,0.00889 0.10593,0.01816 0.15871,0.02777c5.50801,0.9896 9.75906,3.34449 12.54213,5.68952c2.7349,2.30502 3.74173,4.27243 3.49872,4.48461c-0.2836,0.24818 -1.83491,-1.19908 -4.63174,-2.93132c-2.89835,-1.79539 -6.82657,-3.62426 -11.897,-4.55763c-0.04865,-0.00874 -0.09692,-0.01783 -0.14522,-0.02623c-5.03539,-0.88587 -9.35173,-0.61939 -12.70115,-0.08424z" data-paper-data="{&quot;index&quot;:null}" fill="#000000" stroke-width="9.375" stroke-linejoin="round"/><path d="M266.6122,105.39166c-4.98956,-2.16323 -8.77349,-4.62123 -8.3993,-5.6141c0.4047,-1.0657 4.90517,-0.25254 9.9876,1.94507c5.03715,2.18238 8.7448,4.7862 8.33842,5.76709c-0.43968,1.05433 -4.89252,0.08076 -9.92668,-2.09803z" data-paper-data="{&quot;index&quot;:null}" fill="#000000" stroke-width="2.56181" stroke-linejoin="miter"/><path d="M308.61484,101.79867c0.26215,1.02803 -3.76994,3.05303 -8.96834,4.65151c-5.24429,1.60931 -9.77713,2.08477 -10.09749,0.98824c-0.29542,-1.01988 3.67671,-3.19815 8.92459,-4.81045c5.29372,-1.62237 9.85693,-1.93348 10.14122,-0.82928z" data-paper-data="{&quot;index&quot;:null}" fill="#000000" stroke-width="2.56181" stroke-linejoin="miter"/></g></g></g></svg>