<svg version="1.1" xmlns="http://www.w3.org/2000/svg" xmlns:xlink="http://www.w3.org/1999/xlink" width="436.18571" height="523.0074" viewBox="0,0,436.18571,523.0074"><defs><linearGradient x1="322.90419" y1="142.13572" x2="318.76579" y2="189.61932" gradientUnits="userSpaceOnUse" id="color-1"><stop offset="0" stop-color="#000000"/><stop offset="1" stop-color="#252525"/></linearGradient><linearGradient x1="279.92489" y1="54.48952" x2="277.58599" y2="81.32782" gradientUnits="userSpaceOnUse" id="color-2"><stop offset="0" stop-color="#252525"/><stop offset="1" stop-color="#000000"/></linearGradient><linearGradient x1="330.17399" y1="128.29462" x2="349.09679" y2="90.76072" gradientUnits="userSpaceOnUse" id="color-3"><stop offset="0" stop-color="#161616"/><stop offset="1" stop-color="#161616"/></linearGradient><linearGradient x1="394.68799" y1="122.04302" x2="403.33949" y2="104.88252" gradientUnits="userSpaceOnUse" id="color-4"><stop offset="0" stop-color="#161616"/><stop offset="1" stop-color="#000000"/></linearGradient><linearGradient x1="253.88269" y1="397.96152" x2="334.42769" y2="397.96152" gradientUnits="userSpaceOnUse" id="color-5"><stop offset="0" stop-color="#000000"/><stop offset="1" stop-color="#0e0e0e"/></linearGradient><linearGradient x1="293.96009" y1="421.57452" x2="293.96009" y2="433.33062" gradientUnits="userSpaceOnUse" id="color-6"><stop offset="0" stop-color="#000000"/><stop offset="1" stop-color="#666666"/></linearGradient><linearGradient x1="272.96031" y1="383.87848" x2="272.96031" y2="425.3224" gradientUnits="userSpaceOnUse" id="color-7"><stop offset="0" stop-color="#151515"/><stop offset="1" stop-color="#212121"/></linearGradient><linearGradient x1="305.98139" y1="387.31502" x2="305.98139" y2="404.98742" gradientUnits="userSpaceOnUse" id="color-8"><stop offset="0" stop-color="#292929"/><stop offset="1" stop-color="#292929"/></linearGradient><linearGradient x1="147.10449" y1="392.86722" x2="224.44579" y2="398.44072" gradientUnits="userSpaceOnUse" id="color-9"><stop offset="0" stop-color="#000000"/><stop offset="1" stop-color="#0e0e0e"/></linearGradient><linearGradient x1="183.97549" y1="419.40132" x2="183.18639" y2="430.35122" gradientUnits="userSpaceOnUse" id="color-10"><stop offset="0" stop-color="#000000"/><stop offset="1" stop-color="#666666"/></linearGradient><linearGradient x1="163.01147" y1="399.07637" x2="179.1391" y2="400.23857" gradientUnits="userSpaceOnUse" id="color-11"><stop offset="0" stop-color="#151515"/><stop offset="1" stop-color="#212121"/></linearGradient><linearGradient x1="287.18909" y1="172.29382" x2="290.92249" y2="224.54962" gradientUnits="userSpaceOnUse" id="color-12"><stop offset="0" stop-color="#ffffff"/><stop offset="1" stop-color="#cccccc"/></linearGradient><radialGradient cx="206.27089" cy="221.20442" r="3.544" gradientUnits="userSpaceOnUse" id="color-13"><stop offset="0" stop-color="#cccccc"/><stop offset="1" stop-color="#7f7f7f"/></radialGradient><radialGradient cx="203.95999" cy="224.13822" r="3.0625" gradientUnits="userSpaceOnUse" id="color-14"><stop offset="0" stop-color="#cccccc"/><stop offset="1" stop-color="#7f7f7f"/></radialGradient><radialGradient cx="202.52449" cy="228.24572" r="3.7995" gradientUnits="userSpaceOnUse" id="color-15"><stop offset="0" stop-color="#cccccc"/><stop offset="1" stop-color="#7f7f7f"/></radialGradient><radialGradient cx="204.26489" cy="232.18682" r="3.7995" gradientUnits="userSpaceOnUse" id="color-16"><stop offset="0" stop-color="#cccccc"/><stop offset="1" stop-color="#7f7f7f"/></radialGradient><radialGradient cx="207.29959" cy="235.90822" r="3.5725" gradientUnits="userSpaceOnUse" id="color-17"><stop offset="0" stop-color="#cccccc"/><stop offset="1" stop-color="#7f7f7f"/></radialGradient><radialGradient cx="208.78509" cy="240.15332" r="3.2895" gradientUnits="userSpaceOnUse" id="color-18"><stop offset="0" stop-color="#cccccc"/><stop offset="1" stop-color="#7f7f7f"/></radialGradient><radialGradient cx="210.22309" cy="243.73142" r="3.7714" gradientUnits="userSpaceOnUse" id="color-19"><stop offset="0" stop-color="#cccccc"/><stop offset="1" stop-color="#7f7f7f"/></radialGradient><radialGradient cx="210.99459" cy="248.39022" r="3.5443" gradientUnits="userSpaceOnUse" id="color-20"><stop offset="0" stop-color="#cccccc"/><stop offset="1" stop-color="#7f7f7f"/></radialGradient><radialGradient cx="211.92899" cy="252.57302" r="3.3173" gradientUnits="userSpaceOnUse" id="color-21"><stop offset="0" stop-color="#cccccc"/><stop offset="1" stop-color="#7f7f7f"/></radialGradient><radialGradient cx="213.93219" cy="256.49552" r="4.0259" gradientUnits="userSpaceOnUse" id="color-22"><stop offset="0" stop-color="#cccccc"/><stop offset="1" stop-color="#7f7f7f"/></radialGradient><radialGradient cx="217.30129" cy="259.76062" r="3.6297" gradientUnits="userSpaceOnUse" id="color-23"><stop offset="0" stop-color="#cccccc"/><stop offset="1" stop-color="#7f7f7f"/></radialGradient><radialGradient cx="219.17029" cy="262.97812" r="3.9984" gradientUnits="userSpaceOnUse" id="color-24"><stop offset="0" stop-color="#cccccc"/><stop offset="1" stop-color="#7f7f7f"/></radialGradient><radialGradient cx="209.91679" cy="214.33702" r="5.9934" gradientUnits="userSpaceOnUse" id="color-25"><stop offset="0" stop-color="#cccccc"/><stop offset="1" stop-color="#7f7f7f"/></radialGradient><radialGradient cx="220.17569" cy="216.15822" r="3.544" gradientUnits="userSpaceOnUse" id="color-26"><stop offset="0" stop-color="#cccccc"/><stop offset="1" stop-color="#7f7f7f"/></radialGradient><radialGradient cx="222.42229" cy="220.37472" r="3.544" gradientUnits="userSpaceOnUse" id="color-27"><stop offset="0" stop-color="#cccccc"/><stop offset="1" stop-color="#7f7f7f"/></radialGradient><radialGradient cx="223.57439" cy="225.15562" r="3.544" gradientUnits="userSpaceOnUse" id="color-28"><stop offset="0" stop-color="#cccccc"/><stop offset="1" stop-color="#7f7f7f"/></radialGradient><radialGradient cx="223.95469" cy="230.47792" r="3.544" gradientUnits="userSpaceOnUse" id="color-29"><stop offset="0" stop-color="#cccccc"/><stop offset="1" stop-color="#7f7f7f"/></radialGradient><radialGradient cx="224.47309" cy="235.46612" r="3.544" gradientUnits="userSpaceOnUse" id="color-30"><stop offset="0" stop-color="#cccccc"/><stop offset="1" stop-color="#7f7f7f"/></radialGradient><radialGradient cx="224.51919" cy="240.65032" r="3.544" gradientUnits="userSpaceOnUse" id="color-31"><stop offset="0" stop-color="#cccccc"/><stop offset="1" stop-color="#7f7f7f"/></radialGradient><radialGradient cx="224.23139" cy="245.69602" r="3.544" gradientUnits="userSpaceOnUse" id="color-32"><stop offset="0" stop-color="#cccccc"/><stop offset="1" stop-color="#7f7f7f"/></radialGradient><radialGradient cx="224.24289" cy="250.39642" r="3.544" gradientUnits="userSpaceOnUse" id="color-33"><stop offset="0" stop-color="#cccccc"/><stop offset="1" stop-color="#7f7f7f"/></radialGradient><radialGradient cx="224.12789" cy="255.59212" r="3.544" gradientUnits="userSpaceOnUse" id="color-34"><stop offset="0" stop-color="#cccccc"/><stop offset="1" stop-color="#7f7f7f"/></radialGradient><radialGradient cx="223.04489" cy="260.85692" r="3.544" gradientUnits="userSpaceOnUse" id="color-35"><stop offset="0" stop-color="#cccccc"/><stop offset="1" stop-color="#7f7f7f"/></radialGradient><radialGradient cx="222.43969" cy="277.22522" r="3.6297" gradientUnits="userSpaceOnUse" id="color-36"><stop offset="0" stop-color="#cccccc"/><stop offset="1" stop-color="#7f7f7f"/></radialGradient><radialGradient cx="222.26939" cy="281.39892" r="3.9984" gradientUnits="userSpaceOnUse" id="color-37"><stop offset="0" stop-color="#cccccc"/><stop offset="1" stop-color="#7f7f7f"/></radialGradient><radialGradient cx="223.85189" cy="285.76362" r="3.544" gradientUnits="userSpaceOnUse" id="color-38"><stop offset="0" stop-color="#cccccc"/><stop offset="1" stop-color="#7f7f7f"/></radialGradient><linearGradient x1="308.92659" y1="230.41762" x2="310.20599" y2="264.71042" gradientUnits="userSpaceOnUse" id="color-39"><stop offset="0" stop-color="#ff0000"/><stop offset="1" stop-color="#ff0000" stop-opacity="0"/></linearGradient><linearGradient x1="302.89679" y1="230.68252" x2="308.91479" y2="230.25252" gradientUnits="userSpaceOnUse" id="color-40"><stop offset="0" stop-color="#ff0000"/><stop offset="1" stop-color="#ff0000" stop-opacity="0"/></linearGradient><linearGradient x1="262.92609" y1="204.53982" x2="245.44949" y2="205.35722" gradientUnits="userSpaceOnUse" id="color-41"><stop offset="0" stop-color="#7f7f7f"/><stop offset="1" stop-color="#b2b2b2"/></linearGradient><linearGradient x1="265.72729" y1="216.13672" x2="253.14689" y2="217.03552" gradientUnits="userSpaceOnUse" id="color-42"><stop offset="0" stop-color="#000000"/><stop offset="1" stop-color="#353935"/></linearGradient><linearGradient x1="242.31199" y1="217.80962" x2="253.60189" y2="217.00302" gradientUnits="userSpaceOnUse" id="color-43"><stop offset="0" stop-color="#000000"/><stop offset="1" stop-color="#353935"/></linearGradient><radialGradient cx="228.35029" cy="211.82842" r="28.3845" gradientUnits="userSpaceOnUse" id="color-44"><stop offset="0" stop-color="#666666"/><stop offset="1" stop-color="#000000"/></radialGradient><radialGradient cx="227.34949" cy="221.34282" r="12.1979" gradientUnits="userSpaceOnUse" id="color-45"><stop offset="0" stop-color="#370000"/><stop offset="1" stop-color="#000000"/></radialGradient><radialGradient cx="233.11699" cy="224.91132" r="10.4041" gradientUnits="userSpaceOnUse" id="color-46"><stop offset="0" stop-color="#370000"/><stop offset="1" stop-color="#000000"/></radialGradient><radialGradient cx="225.66529" cy="214.40492" r="9.6266" gradientUnits="userSpaceOnUse" id="color-47"><stop offset="0" stop-color="#370000"/><stop offset="1" stop-color="#000000"/></radialGradient><radialGradient cx="236.96079" cy="218.28162" r="8.466" gradientUnits="userSpaceOnUse" id="color-48"><stop offset="0" stop-color="#370000"/><stop offset="1" stop-color="#000000"/></radialGradient><radialGradient cx="232.35539" cy="212.49972" r="6.3714" gradientUnits="userSpaceOnUse" id="color-49"><stop offset="0" stop-color="#370000"/><stop offset="1" stop-color="#000000"/></radialGradient><radialGradient cx="231.70169" cy="217.07212" r="3.1078" gradientUnits="userSpaceOnUse" id="color-50"><stop offset="0" stop-color="#ff0000"/><stop offset="1" stop-color="#000000"/></radialGradient><radialGradient cx="484.93471" cy="134.2719" r="96.27561" gradientUnits="userSpaceOnUse" id="color-51"><stop offset="0" stop-color="#ff0000"/><stop offset="1" stop-color="#ff0000" stop-opacity="0"/></radialGradient><radialGradient cx="483.27135" cy="132.96846" r="132.11501" gradientUnits="userSpaceOnUse" id="color-52"><stop offset="0" stop-color="#ff0000"/><stop offset="1" stop-color="#ff0000" stop-opacity="0"/></radialGradient><radialGradient cx="483.38211" cy="114.01326" r="134.25424" gradientUnits="userSpaceOnUse" id="color-53"><stop offset="0" stop-color="#ff0000"/><stop offset="1" stop-color="#ff0000" stop-opacity="0"/></radialGradient></defs><g transform="translate(-144.9131,89.67684)"><g data-paper-data="{&quot;isPaintingLayer&quot;:true}" fill-rule="nonzero" stroke-linejoin="miter" stroke-miterlimit="10" stroke-dasharray="" stroke-dashoffset="0" style="mix-blend-mode: normal"><g data-paper-data="{&quot;origRot&quot;:0,&quot;index&quot;:null}"><g data-paper-data="{&quot;origPos&quot;:null}" stroke-linecap="round"><path d="M233.04189,149.34392c-4.6177,-6.8686 10.7695,-16.6626 19.3682,-17.7078c11.5657,-1.3986 21.6563,7.9252 33.1208,11.2683c12.287,3.6024 27.4698,2.1362 36.9182,10.789c6.1467,5.6464 9.5688,20.5329 2.4639,23.7288c-12.9214,6.5516 -29.0748,0.085 -42.7348,-4.1225c-17.3471,-5.3415 -38.87,-9.9927 -49.1363,-23.9558z" data-paper-data="{&quot;origPos&quot;:null}" fill="#000000" stroke="#000000" stroke-width="1.5"/><g><path d="M330.92559,174.51772c-7.5685,-1.1722 -16.1188,3.4697 -23.0579,0.197c-3.9776,-1.9002 -6.7524,-9.3651 -3.6238,-11.908c6.7122,-5.9118 17.1617,-4.4833 25.5277,-6.9124c3.7423,-1.0844 7.169,-3.6239 10.8271,-4.4578c4.9709,-1.1318 11.3598,-4.5933 15.2701,-1.2772c4.1041,3.461 2.0493,10.7626 1.4372,16.1229c-0.5165,4.5082 -1.1232,10.2518 -4.566,13.4832c-2.895,2.24 -7.4954,0.7955 -11.1189,0.0454c-3.8487,-0.7961 -6.7729,-4.6818 -10.6956,-5.2931z" fill="#ffffff" stroke="#ffffff" stroke-width="2.41239"/><path d="M332.10679,155.84322c0,0 3.0696,-7.4551 5.7564,-10.3384c2.6354,-2.8293 6.0127,-5.1263 9.5692,-6.6592c2.8368,-0.9255 6.319,-1.7423 8.9787,-0.4645c2.1658,1.0496 2.2836,4.2883 3.0715,6.5561c0.2391,0.6866 -0.4188,2.14 -0.4188,2.14" fill="none" stroke="#353935" stroke-width="1.20619"/><path d="M333.38979,152.79962c1.5229,-3.8204 3.9152,-7.9064 7.5004,-10.0574c4.91,-2.9817 10.7381,-4.6938 16.0818,-3.6071c2.5852,0.2056 4.5957,5.2192 2.9527,6.7109c-2.5318,2.2736 -7.4294,-0.6315 -10.5846,0.9498c-2.5359,1.2757 -3.3334,4.5325 -5.5851,6.2835c-1.3601,1.6356 -3.0649,3.0353 -5.1266,3.7603c-1.4167,0.5084 -3.4644,1.1902 -4.4869,0.4016c-1.0223,-0.7884 -1.3057,-3.0462 -0.7518,-4.4416z" fill="#353935" stroke="none" stroke-width="1.20619"/><path d="M338.71929,174.08832c-2.9227,-1.6839 -3.5313,-4.8429 -4.1614,-7.5768c-0.6117,-2.5174 -0.0275,-5.3443 1.1495,-8.0447c0.5326,-1.8045 1.3541,-4.1387 3.8689,-5.1509c3.364,-1.311 8.7997,-2.6746 10.9675,-0.771c2.8577,2.5202 0.7022,6.7927 0.4955,10.2269c-0.2836,4.0572 1.9548,9.1994 -1.5932,12.8288c-2.1178,2.1361 -7.9729,0.0749 -10.7268,-1.5123z" fill="#000000" stroke="none" stroke-width="1.67373"/><g fill="#353935" stroke="none" stroke-width="0.54163"><path d="M344.40899,154.57042c-2.273,-1.4399 -2.4988,-4.8623 -0.5255,-6.5206c2.2878,-2.0207 6.783,-1.5228 10.1196,-1.7639c3.2261,-0.2193 7.1417,-1.1957 9.6722,0.168c2.2089,1.1917 3.2367,4.3303 1.4902,6.0054c-2.1237,2.035 -6.4794,2.0419 -9.8614,2.4725c-3.6409,0.2904 -8.2208,1.3336 -10.8952,-0.3614z"/><path d="M344.76789,162.59512c-2.273,-1.4399 -2.4988,-4.8623 -0.5254,-6.5206c2.2877,-2.0206 6.7829,-1.5227 10.1195,-1.7639c3.2261,-0.2192 7.1417,-1.1957 9.6722,0.168c2.2089,1.1917 3.2367,4.3304 1.4903,6.0055c-2.1238,2.035 -6.4795,2.0418 -9.8615,2.4724c-3.6409,0.2904 -8.2208,1.3336 -10.8952,-0.3614z"/><path d="M345.18629,171.07332c-2.273,-1.4398 -2.4988,-4.8623 -0.5254,-6.5205c2.2877,-2.0207 6.7829,-1.5228 10.1195,-1.7639c3.2261,-0.2193 7.1417,-1.1958 9.6722,0.168c2.2089,1.1916 3.2367,4.3303 1.4903,6.0054c-2.1238,2.035 -6.4795,2.0419 -9.8615,2.4725c-3.6409,0.2904 -8.2208,1.3336 -10.8952,-0.3614z"/><path d="M346.66939,179.75822c-2.273,-1.4399 -2.4988,-4.8623 -0.5255,-6.5205c2.2878,-2.0207 6.783,-1.5228 10.1196,-1.7639c3.2261,-0.2193 7.1417,-1.1958 9.6722,0.1679c2.2089,1.1917 3.2367,4.3304 1.4903,6.0055c-2.1238,2.035 -6.4795,2.0419 -9.8615,2.4725c-3.6409,0.2904 -8.2208,1.3335 -10.8952,-0.3614z"/></g></g><path d="M249.40489,101.23232c8.3936,-12.405 18.2288,-25.6832 31.9574,-31.6597c5.1536,-2.2819 13.7931,4.6079 13.1597,10.6239c-1.4231,12.867 -13.0781,22.5635 -18.7476,33.9963c-7.0073,12.9121 -7.0699,31.3847 -19.3819,39.063c-7.4614,4.6367 -22.1699,-4.8031 -23.4805,-14.149c-1.7403,-13.3477 8.5249,-26.08 16.4929,-37.8744z" data-paper-data="{&quot;origPos&quot;:null,&quot;origRot&quot;:0}" fill="#000000" stroke="#000000" stroke-width="1.5"/><path d="M299.25129,177.75492c-17.8075,-4.8633 -36.7649,-8.2515 -53.3761,-16.6588c-6.2771,-3.1829 -14.1304,-10.2377 -13.9208,-17.8893c0.7632,-5.9859 9.7163,-10.3923 15.924,-10.1772c12.0889,0.4272 22.0144,10.5821 33.9486,12.9742c12.094,3.0955 25.7417,-1.3804 37.4184,3.3235c5.6258,2.2795 7.7595,10.3153 8.0136,16.3852c0.1947,4.7583 -2.1123,12.0929 -6.9498,13.9129c-6.4825,2.438 -14.2711,-0.014 -21.0579,-1.8706z" fill="#ffffff" stroke="none" stroke-width="1.00573"/><path d="M252.89379,96.91682c6.84,-10.5212 15.3818,-21.2534 26.4775,-26.8234c5.0947,-2.5567 16.8746,0.5341 16.0245,6.0395c-1.9256,12.4183 -15.7971,19.7524 -21.4779,31.165c-7.3144,13.4185 -5.4172,33.0913 -17.283,42.8957c-6.448,5.3192 -22.3522,-2 -22.6762,-10.5252c-1.361,-15.4566 10.2278,-29.3438 18.9351,-42.7516z" data-paper-data="{&quot;origRot&quot;:0,&quot;origPos&quot;:null}" fill="#ffffff" stroke="none" stroke-width="1.00573"/></g><g data-paper-data="{&quot;origPos&quot;:null,&quot;index&quot;:null,&quot;origRot&quot;:0}"><path d="" data-paper-data="{&quot;origPos&quot;:null}" fill="#cccccc" stroke="none" stroke-width="1" stroke-linecap="butt"/><g data-paper-data="{&quot;origPos&quot;:null,&quot;origRot&quot;:0}"><g stroke-linecap="round"><path d="M384.09289,146.74692c0,0 -5.1257,11.187 -9.0092,15.8564c-2.7124,3.261 -6.6034,5.4374 -10.3541,7.4184c-3.8216,2.0187 -12.1785,4.4856 -12.1785,4.4856" fill="none" stroke="#000000" stroke-width="3.84489"/><path d="M327.03309,142.49572l37.8492,3.2986l-4.8232,31.4758l-6.197,15.4081l-34.9765,-4.4352l6.1083,-22.3497z" fill="url(#color-1)" stroke="none" stroke-width="0.42721"/></g><g stroke="none" stroke-width="0.42721" stroke-linecap="round"><path d="M306.22049,78.96982l91.7062,5.9124l21.4186,24.7485l-102.597,-8.2481z" fill="#252525"/><path d="M297.51739,59.48982l109.7186,6.0953l12.2354,10.7737l-7.9613,11.7875l-114.6556,-5.139l-18.4289,-11.3137z" fill="url(#color-2)"/><path d="M397.21019,77.19252l9.0975,-8.9149l7.5984,8.2897l-5.6568,9.2147z" fill="#ff0000"/></g><path d="M459.37889,111.73312l19.2685,1.6793l33.3288,15.3859l-36.0875,16.2699l-19.2686,-1.6794z" fill="#252525" stroke="none" stroke-width="0.42721" stroke-linecap="round"/><g fill="#000000" stroke="none"><path d="M277.70279,95.89932l28.6947,-3.0463l123.4218,7.983l11.7871,7.9612l17.2044,1.4995l7.9865,11.7905l0.8649,13.9432l-6.165,7.0901l-20.7049,-1.1112l-13.8264,15.4364l-114.804,-11.3923l-35.2797,14.9536l14.3064,-20.9415l-19.3857,-16.251l-28.7514,-12.2134l-37.9124,13.3374l-32.4415,38.0827l-13.3119,-14.3344l-0.0568,-15.2597l13.6464,-13.372l27.9496,-18.3658l36.6842,-7.204z" stroke-width="0.42721" stroke-linecap="round"/><path d="M459.35069,119.29892l20.6448,1.7991l-1.3193,15.1396l-20.6449,-1.7991z" stroke-width="0.42721" stroke-linecap="butt"/><path d="M472.80469,125.09522l18.5804,1.6192l-0.4262,4.8898l-18.5804,-1.6192z" stroke-width="0.60709" stroke-linecap="butt"/></g><g stroke-width="3.84489"><path d="M337.86349,113.04232l53.1778,-1.1352l0.4128,19.3372l-53.1776,1.1353z" fill="#ff0000" stroke="url(#color-3)" stroke-linecap="butt"/><path d="M446.30059,126.54122l-51.6126,-4.4982" fill="none" stroke="url(#color-4)" stroke-linecap="round"/></g><path d="M286.69949,143.83442c3.1143,8.549 -19.8345,14.2983 -31.3306,17.3777c-20.4896,4.7253 -42.0024,7.9634 -62.8947,5.6129c-7.0608,-0.7997 -20.9117,-8.952 -16.1243,-13.8864c16.4833,-17.8689 38.9621,-34.2779 62.7808,-36.1321c18.1623,-1.4111 42.8037,13.9512 47.5689,27.0279z" fill="none" stroke="#000000" stroke-width="4.2721" stroke-linecap="round"/></g></g></g><g data-paper-data="{&quot;index&quot;:null}"><path d="M278.27939,322.52312c7.1049,-8.4016 28.8657,-17.5406 31.5305,-7.2762c8.2108,31.7827 5.3844,68.1898 -7.438,98.3103c-4.5307,10.6654 -28.8884,8.3887 -34.7643,-1.6169c-9.0291,-16.0434 0.5271,-33.8621 2.5871,-50.6104c1.6331,-13.3593 -0.469,-28.9984 8.0847,-38.8068z" data-paper-data="{&quot;origPos&quot;:null}" fill="#ffffff" stroke="#000000" stroke-width="1" stroke-linecap="round"/><path d="M248.36589,224.48232l42.8491,-1.078c0,0 13.9376,18.6505 18.1497,41.2109c3.1871,17.0705 5.0265,52.8415 5.0265,52.8415l-40.9626,-4.8508c0,0 -11.5312,-38.1131 -15.3186,-45.5257c-11.3624,-22.2375 -9.7441,-42.5979 -9.7441,-42.5979z" data-paper-data="{&quot;origPos&quot;:null}" fill="#ffffff" stroke="#000000" stroke-width="1" stroke-linecap="round"/><g data-paper-data="{&quot;origPos&quot;:null}" stroke="none"><path d="M255.25439,431.69272c-2.3895,-0.7861 -0.9488,-4.3496 -0.8657,-6.5797c1.0839,-9.2186 1.7046,-18.3195 3.5296,-27.358c1.2398,-6.1295 4.0411,-25.551 10.3225,-34.1108c3.6493,-4.973 0.9835,15.8365 6.926,19.0467c10.8809,5.901 25.2698,0.7203 36.8813,4.6751c2.902,0.9869 -3.1895,15.3862 -0.5195,17.3151c5.9045,4.2561 15.646,0.703 20.7782,5.714c3.3833,3.3037 1.848,9.8523 1.2593,14.7178c-0.3359,2.767 -1.6213,6.4224 -1.6213,6.4224c0,0 -67.1531,3.2845 -76.6903,0.1574z" data-paper-data="{&quot;origPos&quot;:null}" fill="url(#color-5)" stroke-width="1" stroke-linecap="round"/><path d="M255.65039,431.86122c-3.4849,-2.221 -0.2968,-10.2867 -0.2968,-10.2867c0,0 13.8497,2.79 28.9726,3.4023c16.6364,0.6736 49.5734,-0.1074 49.5734,-0.1074c0,0 -0.3802,6.782 -3.2695,7.2329c-2.8893,0.451 -29.5458,1.744 -46.6757,1.0046c-9.3429,-0.4017 -25.7594,0.3759 -28.3039,-1.2457z" data-paper-data="{&quot;origPos&quot;:null}" fill="url(#color-6)" stroke-width="1.16035" stroke-linecap="round"/><g data-paper-data="{&quot;origPos&quot;:null}" stroke-linecap="butt"><g data-paper-data="{&quot;origPos&quot;:null}"><path d="M265.36668,424.88846c0,0 4.6709,-10.98001 6.10588,-18.27532c1.74491,-8.87086 5.97165,-22.73045 5.97165,-22.73045c0,0 0.56987,-0.05035 1.1661,0.19513c0.84321,0.3472 1.94367,1.3236 1.94367,1.3236l-10.34187,39.92096z" data-paper-data="{&quot;origPos&quot;:null}" fill="url(#color-7)" stroke-width="0"/><path d="M273.65749,404.23972c0.3076,0.1106 0.2672,0.3851 0.2449,0.4741c0.0731,0.2286 0.1405,0.4482 0.1712,0.6883c0.2945,2.3066 0.3832,3.0048 -1.3442,4.5046c-1.1076,0.9364 0.6503,0.7931 0.3181,2.334c-0.0683,0.3172 -1.2065,0.9367 -1.451,1.2189c-1.4695,1.6476 0.8141,2.2595 -0.8172,4.1423c-1.0249,1.1491 -2.7834,1.9539 -1.0653,3.4424c0.459,1.5635 -1.954,2.1487 -2.859,3.1934c0,0 -0.2572,0.2968 -0.5541,0.0396c-0.2968,-0.2572 -0.0397,-0.554 -0.0397,-0.554c0.6001,-0.6926 2.5758,-2.0747 2.8968,-2.1217c-1.9956,-1.7695 -0.1159,-3.1275 1.0276,-4.514c1.1256,-1.2992 -0.6124,-2.409 0.8172,-4.1424c0.3001,-0.3464 0.9559,-1.1093 1.338,-1.4127c-0.4675,-0.2774 -1.2464,-1.2053 -0.1264,-2.219c0.9972,-0.8658 1.2472,-2.5019 1.08,-3.8119c-0.028,-0.2188 -0.0888,-0.3882 -0.1561,-0.5983l0.0167,-0.4269c0,0 0.1329,-0.3696 0.5026,-0.2366z" data-paper-data="{&quot;origPos&quot;:null,&quot;origRot&quot;:0}" fill="#000000" stroke-width="0.5"/><path d="M273.90199,406.19892c-0.3146,-0.0886 -0.2936,-0.3652 -0.2777,-0.4556c-0.089,-0.2229 -0.1717,-0.4372 -0.2191,-0.6745c-0.4561,-2.2803 -0.5938,-2.9704 1.0239,-4.588c1.0389,-1.0122 -0.7046,-0.7454 -0.4817,-2.3059c0.0459,-0.3212 1.1377,-1.0193 1.3617,-1.318c1.35,-1.7469 -0.9711,-2.1966 0.5237,-4.1896c0.9414,-1.2183 2.6391,-2.1448 0.8205,-3.5088c-0.5679,-1.5273 1.7979,-2.2809 2.6272,-3.3866c0,0 0.2356,-0.3142 0.5499,-0.0786c0.3142,0.2357 0.0785,0.5499 0.0785,0.5499c-0.5498,0.7331 -2.4233,2.2508 -2.7403,2.3203c2.1152,1.6247 0.3358,3.1116 -0.7074,4.5751c-1.0313,1.3752 0.7805,2.3599 -0.5237,4.1896c-0.275,0.3667 -0.8754,1.1739 -1.2352,1.5034c0.4859,0.2439 1.3281,1.1147 0.2823,2.2047c-0.9339,0.9338 -1.0681,2.5834 -0.8091,3.8785c0.0432,0.2163 0.1159,0.381 0.1978,0.5857l0.0133,0.427c0,0 -0.1066,0.3781 -0.4846,0.2715z" data-paper-data="{&quot;origPos&quot;:null,&quot;index&quot;:null}" fill="#000000" stroke-width="0.5"/></g><path d="M271.44162,388.82422l6.0749,-5.5687l2.69998,1.18125l-3.71244,6.9187z" data-paper-data="{&quot;origPos&quot;:null}" fill="#333333" stroke-width="0"/></g><g data-paper-data="{&quot;origPos&quot;:null}" stroke-width="0.5" stroke-linecap="butt"><path d="M309.77899,403.37082c0.002,0.0758 -0.0047,0.1434 -0.0186,0.2036c0.0674,0.0947 0.1217,0.2298 0.1459,0.4218c0.0959,0.7584 -0.468,0.8872 -0.468,0.8872c-2.265,0.5177 -4.8509,-1.1049 -7.0394,-0.3709c-0.1192,0.0273 -0.2384,0.0546 -0.3577,0.0818l-0.5946,-0.0408c-0.12,0.0163 -0.2648,-0.0108 -0.3923,-0.1646c-0.0889,-0.0865 -0.1674,-0.2194 -0.196,-0.4232c-0.0445,-0.1986 -0.0203,-0.3652 0.0288,-0.4971c0.0615,-0.219 0.1836,-0.333 0.2972,-0.3923c1.2189,-0.9249 2.3264,-1.9636 3.4888,-2.973c-0.4274,-0.4823 -0.8236,-0.9844 -1.1658,-1.507l-0.5534,-0.0572c-0.315,-0.0325 -0.5507,-0.4023 -0.5265,-0.8259c0.0154,-0.2705 0.1331,-0.4975 0.2981,-0.6178l0.5456,-0.4118l0.0295,0.0706c0.4229,-0.2899 1.0211,-0.9918 1.671,-1.7531c-0.4535,-0.3311 -0.9012,-0.6899 -1.3718,-0.9312l-0.0005,0.0023l-0.6771,-0.3035c-0.2496,-0.1037 -0.4217,-0.4288 -0.4009,-0.7938c0.0155,-0.2705 0.1331,-0.4975 0.2982,-0.6178l0.5456,-0.4118l0.1083,0.2596c0.3058,-0.483 0.7139,-0.9167 1.1802,-1.3039c-0.6209,-0.5922 -1.1544,-1.1889 -1.4837,-1.7054c0.1427,-2.4546 4.6295,-2.2932 6.5948,-0.7384l0.1851,-0.0423l0.0983,-0.3966l0.6771,0.3035c0.2495,0.1037 0.4217,0.4288 0.4008,0.7938c-0.0208,0.365 -0.2279,0.6509 -0.4863,0.7022c-0.157,0.0359 -0.4507,0.103 -0.7036,0.1608c-0.143,0.0327 -0.2729,0.0624 -0.3577,0.0818c-0.6211,-0.0207 -1.4943,0.534 -2.3972,1.1627c0.6495,0.4742 1.2711,0.8606 1.7402,1.0708l0.3328,0.1492c0.2496,0.1037 0.4217,0.4288 0.4009,0.7938c-0.0242,0.4236 -0.2991,0.7407 -0.6141,0.7082l-0.7019,-0.0725l0.0021,-0.0363c-0.2512,0.2915 -0.5359,0.5916 -0.8405,0.8937c2.8733,1.5573 2.6205,2.9142 -0.5178,5.2827c-0.0418,0.0316 -0.0835,0.0633 -0.1251,0.0951c0.9251,0.9825 1.8015,1.9758 2.3063,2.3591l0.3375,0.2723c0,0 0.2565,-0.1372 0.2773,0.6316zM305.62759,401.10642c-0.7009,0.5965 -1.3817,1.2134 -2.0692,1.8142c1.5564,0.0777 3.139,0.6159 4.6864,0.5695c-0.8211,-0.7296 -1.7455,-1.5223 -2.6172,-2.3837zM308.15659,396.81682c-0.6091,-0.2698 -1.3305,-0.7244 -1.8144,-1.0018c-0.7876,0.7054 -1.5939,1.3783 -2.2353,1.9324c0.4739,0.1748 1.1034,0.7028 1.7668,1.3506c0.1806,-0.1443 0.3636,-0.2868 0.5495,-0.4272c0.4725,-0.3566 1.1526,-1.2371 1.7334,-1.854zM307.05059,389.43672c-0.9694,-0.0689 -1.9147,-0.2872 -2.492,-0.5593c0.3448,0.3983 0.7714,0.8183 1.2308,1.2251c0.4121,-0.2483 0.8395,-0.4698 1.2612,-0.6658zM307.01959,392.83592c-0.3377,-0.2358 -0.6884,-0.4987 -1.0368,-0.7773c-0.589,0.3962 -1.1476,0.7269 -1.6107,0.8446c0.5107,0.3409 1.0079,0.7311 1.5279,1.0319c0.3827,-0.4222 0.7636,-0.8104 1.1196,-1.0992z" data-paper-data="{&quot;origPos&quot;:null,&quot;origRot&quot;:0}" fill="url(#color-8)"/><path d="M311.05569,406.82742c-0.2363,0.1047 -0.4284,0.0948 -0.5794,0.0355l0.031,0.0304c-3.133,0 -6.1316,0.1477 -9.1813,-0.6147c-4.813,-1.2033 -0.5827,-6.5769 -0.5827,-9.6228c0.2251,-3.1065 0.9468,-5.9776 0.9468,-9.2314c0,0 0,-0.7693 0.7693,-0.7693c0.7693,0 0.7693,0.7693 0.7693,0.7693c0,2.2517 -1.4472,7.5247 -0.9469,9.2314c0,3.156 -3.5059,7.3994 -0.5827,8.1301c2.9226,0.7307 5.7987,0.5688 8.8082,0.5688l0.9401,0.4577c0,0 0.3116,0.7034 -0.3917,1.015z" data-paper-data="{&quot;origPos&quot;:null}" fill="#1a1a1a"/></g></g><g data-paper-data="{&quot;origPos&quot;:null}" stroke-linecap="round"><path d="M314.66059,315.40862c1.6395,7.5543 1.1965,19.1899 -5.9827,22.6372c-10.9662,5.5202 -25.9294,4.3755 -37.1898,-1.2936c-5.2712,-2.7229 -0.7826,-11.8554 -0.9702,-17.7864c0.2943,-4.9705 -2.8135,-12.0721 1.2936,-14.8759c8.1979,-5.5946 19.882,-7.8874 29.105,-5.3359c7.3086,1.8174 12.2241,9.6661 13.7441,16.6545z" data-paper-data="{&quot;origPos&quot;:null}" fill="#666666" stroke="#000000" stroke-width="1.5"/><path d="M313.63719,315.91762c1.3323,6.1379 0.9724,15.5915 -4.8605,18.3924c-8.9097,4.4848 -21.0672,3.5547 -30.2159,-1.051c-4.2827,-2.2123 -0.6358,-9.6325 -0.7884,-14.4513c0.2393,-4.0382 -2.2857,-9.8081 1.051,-12.0863c6.6608,-4.5453 16.1536,-6.4083 23.6472,-4.3351c5.9381,1.4766 9.9319,7.8536 11.1666,13.5313z" data-paper-data="{&quot;origPos&quot;:null}" fill="#ffffff" stroke="none" stroke-width="0.81248"/></g></g><g data-paper-data="{&quot;origRot&quot;:0,&quot;index&quot;:null}"><path d="M177.70929,354.63162c6.447,-13.876 10.8103,-32.5808 24.7941,-40.3629c8.6,-4.8338 28.9326,0.2467 28.4138,10.6397c-1.5172,30.0082 -14.565,60.8844 -34.3831,83.4426c-7.8122,8.885 -32.5446,5.9647 -36.1129,-5.0341c-5.0544,-15.6613 10.0802,-33.0679 17.2882,-48.6853z" data-paper-data="{&quot;origPos&quot;:null}" fill="#ffffff" stroke="#000000" stroke-width="1" stroke-linecap="round"/><path d="M207.88739,262.59442c3.9408,-19.5824 8.4759,-42.6681 8.4759,-42.6681c0,0 44.3171,-10.1498 46.5455,11.1798c2.2285,21.3296 -13.4638,76.4307 -34.2941,106.0847c-6.6652,9.4842 -28.9898,3.2324 -34.2272,-7.1766c-6.1763,-13.0497 1.4015,-23.9312 1.4015,-23.9312c0,0 9.6094,-30.9017 12.0984,-43.4886z" data-paper-data="{&quot;origPos&quot;:null}" fill="#ffffff" stroke="#000000" stroke-width="1" stroke-linecap="round"/><g data-paper-data="{&quot;origPos&quot;:null}" stroke="none"><path d="M171.90949,429.32922c-8.6752,-1.0013 -24.018,-1.379 -26.2791,-3.0602c-2.0691,-1.5384 0.8347,-12.0162 2.4568,-16.1506c3.5355,-9.0191 7.28,-18.6033 12.1456,-26.917c4.8267,-8.2452 9.3205,-19.6879 16.653,-22.926c3.0077,-1.3295 -4.6664,13.6931 -0.0774,16.7363c10.2909,6.8176 24.6945,2.2497 36.3416,7.3215c2.9111,1.2671 -5.6856,15.6211 -3.8352,19.2869c2.1298,4.1716 9.6528,3.2502 12.0795,7.2662c2.5245,4.1774 1.3621,9.6052 1.0335,14.371c-0.1948,2.3937 -3.1153,6.5473 -3.1153,6.5473c0,0 -31.4975,-0.637 -47.4029,-2.4755z" data-paper-data="{&quot;origPos&quot;:null}" fill="url(#color-9)" stroke-width="1.16035" stroke-linecap="round"/><path d="M146.28319,426.31612c-3.0968,-2.3026 0.414,-9.6011 0.414,-9.6011c0,0 12.7126,3.5283 26.7572,5.1136c15.4503,1.7441 48.8199,3.4177 48.8199,3.4177c0,0 -2.2755,6.1856 -4.9969,6.4117c-2.7215,0.2261 -28.8096,-0.4433 -44.715,-2.2818c-8.6752,-1.0013 -24.018,-1.3789 -26.2792,-3.0602z" data-paper-data="{&quot;origPos&quot;:null}" fill="url(#color-10)" stroke-width="1.16035" stroke-linecap="round"/><g data-paper-data="{&quot;origPos&quot;:null}" stroke-linecap="butt"><g data-paper-data="{&quot;origPos&quot;:null}"><path d="M161.45891,420.62043c0,0 5.80034,-11.3024 7.88245,-18.93955c2.53179,-9.28654 8.08085,-23.68083 8.08085,-23.68083c0,0 0.60904,-0.00987 1.22339,0.29645c0.86882,0.43324 1.96271,1.5543 1.96271,1.5543l-14.03717,41.60125z" data-paper-data="{&quot;origPos&quot;:null}" fill="url(#color-11)" stroke-width="0"/><path d="M171.29149,399.54052c0,0 0.1694,-0.3823 0.5517,-0.2129c0.3181,0.141 0.2542,0.4293 0.2238,0.5222c0.0601,0.2483 0.1149,0.4867 0.129,0.744c0.1363,2.472 0.1771,3.2201 -1.7721,4.6806c-1.2478,0.9097 0.6299,0.892 0.1593,2.5029c-0.0969,0.3317 -1.353,0.9024 -1.6341,1.1834c-1.6867,1.6371 0.6916,2.4616 -1.1848,4.3363c-1.1763,1.1417 -3.1053,1.8618 -1.3947,3.5739c0.3677,1.6955 -2.2394,2.1323 -3.2804,3.1723c0,0 -0.2959,0.2956 -0.5914,-0.0002c-0.2956,-0.2959 0.0002,-0.5914 0.0002,-0.5914c0.6902,-0.6896 2.894,-2.0061 3.2385,-2.0314c-1.9838,-2.0319 0.1163,-3.3301 1.4367,-4.7149c1.2947,-1.2934 -0.4661,-2.605 1.1848,-4.3363c0.3452,-0.3449 1.0999,-1.1048 1.5289,-1.3978c-0.4752,-0.3304 -1.2314,-1.3753 0.0355,-2.366c1.1253,-0.8432 1.516,-2.5614 1.4386,-3.9654c-0.0129,-0.2344 -0.0645,-0.4191 -0.1199,-0.6472z" data-paper-data="{&quot;origPos&quot;:null,&quot;origRot&quot;:0}" fill="#000000" stroke-width="0.5"/><path d="M171.69279,400.92182c-0.0774,-0.2434 -0.1488,-0.4774 -0.181,-0.733c-0.3098,-2.4563 -0.4032,-3.1997 1.4384,-4.7937c1.1807,-0.9953 -0.6912,-0.8455 -0.335,-2.4855c0.0733,-0.3376 1.2861,-0.9954 1.5468,-1.2954c1.5673,-1.7518 -0.8631,-2.4069 0.8767,-4.4089c1.093,-1.2217 2.9667,-2.0758 1.1398,-3.6633c-0.4861,-1.6654 2.0838,-2.2845 3.049,-3.3952c0,0 0.2743,-0.3157 0.59,-0.0414c0.3157,0.2743 0.0413,0.59 0.0413,0.59c-0.64,0.7364 -2.7456,2.2047 -3.0875,2.2542c2.1218,1.8872 0.1184,3.33 -1.1013,4.8043c-1.2004,1.3813 0.6482,2.5657 -0.8768,4.4089c-0.32,0.3683 -1.0194,1.1795 -1.4268,1.5019c0.4974,0.2962 1.3252,1.2853 0.1311,2.3627c-1.0631,0.9202 -1.3319,2.6617 -1.156,4.0567c0.0294,0.233 0.0939,0.4135 0.1652,0.6372l-0.0185,0.4545c0,0 -0.1421,0.3933 -0.5354,0.2512c-0.3273,-0.1183 -0.2838,-0.4104 -0.26,-0.5052z" data-paper-data="{&quot;origPos&quot;:null,&quot;index&quot;:null}" fill="#000000" stroke-width="0.5"/></g><path d="M170.66982,382.78813l6.87719,-5.44856l2.77675,1.46101l-4.47177,7.06295z" data-paper-data="{&quot;origPos&quot;:null}" fill="#333333" stroke-width="0"/></g><g data-paper-data="{&quot;origPos&quot;:null}" stroke-width="0.5" stroke-linecap="butt"><path d="M209.12969,402.96952c-0.0036,0.0796 -0.0158,0.1499 -0.0349,0.2119c0.0636,0.1044 0.1102,0.2501 0.1212,0.4532c0.0431,0.8022 -0.5577,0.8947 -0.5577,0.8947c-2.4133,0.3716 -5.0013,-1.5247 -7.3507,-0.9206c-0.1271,0.0197 -0.2541,0.0392 -0.3812,0.0587l-0.6202,-0.0876c-0.127,0.0079 -0.2768,-0.0314 -0.3988,-0.2022c-0.0866,-0.0974 -0.159,-0.2426 -0.1735,-0.4584c-0.0317,-0.2115 0.0063,-0.3844 0.0678,-0.5189c0.081,-0.2249 0.2176,-0.3352 0.3412,-0.3887c1.3475,-0.8774 2.5868,-1.8826 3.8815,-2.8529c-0.4115,-0.5378 -0.7889,-1.094 -1.1082,-1.6677l-0.5757,-0.1017c-0.3277,-0.0579 -0.5469,-0.4633 -0.4895,-0.9055c0.0366,-0.2823 0.1771,-0.5114 0.3591,-0.6251l0.6031,-0.3905l0.0255,0.0762c0.4653,-0.2718 1.1453,-0.9623 1.884,-1.7113c-0.4503,-0.3813 -0.8925,-0.7913 -1.3675,-1.0797l-0.0007,0.0023l-0.6868,-0.3692c-0.2538,-0.1276 -0.4097,-0.4813 -0.3602,-0.8624c0.0366,-0.2823 0.177,-0.5114 0.3591,-0.6251l0.6031,-0.3904l0.0939,0.2802c0.3571,-0.4831 0.8176,-0.9069 1.3357,-1.2776c-0.6061,-0.6677 -1.1204,-1.3334 -1.4265,-1.8997c0.3351,-2.5622 5.026,-2.054 6.9686,-0.2758l0.1972,-0.0304l0.1329,-0.4082l0.6868,0.3692c0.2538,0.1276 0.4097,0.4813 0.3603,0.8624c-0.0495,0.381 -0.2881,0.6651 -0.5628,0.6993c-0.1672,0.0258 -0.4802,0.074 -0.7496,0.1154c-0.1524,0.0235 -0.2908,0.0448 -0.3811,0.0587c-0.6495,-0.0686 -1.6067,0.4469 -2.6007,1.0377c0.645,0.5461 1.2673,0.9982 1.7432,1.2539l0.3377,0.1815c0.2537,0.1276 0.4096,0.4813 0.3602,0.8624c-0.0574,0.4423 -0.3695,0.7538 -0.6972,0.6959l-0.7303,-0.129l0.0049,-0.0379c-0.2853,0.2867 -0.6064,0.5797 -0.9485,0.8734c2.8942,1.8494 2.5267,3.2527 -0.9418,5.4984c-0.0462,0.0299 -0.0924,0.06 -0.1383,0.0902c0.8955,1.0998 1.7391,2.2072 2.2392,2.6471l0.3332,0.3108c0,0 0.2792,-0.1243 0.243,0.6831zM204.94909,400.28252c-0.7798,0.5723 -1.5399,1.1675 -2.306,1.7453c1.6256,0.199 3.2439,0.8828 4.8693,0.951c-0.8055,-0.8269 -1.7147,-1.7276 -2.5633,-2.6963zM207.92409,395.97712c-0.6182,-0.3288 -1.3399,-0.8599 -1.8262,-1.1872c-0.879,0.6799 -1.775,1.3243 -2.4891,1.8567c0.4836,0.2191 1.1035,0.8201 1.75,1.5492c0.2001,-0.1376 0.4027,-0.2732 0.6083,-0.4062c0.5222,-0.3381 1.3016,-1.2097 1.957,-1.8125zM207.32219,388.15762c-1.0109,-0.1455 -1.9853,-0.4456 -2.5699,-0.7744c0.3313,0.4434 0.7468,0.916 1.1976,1.3771c0.4507,-0.2292 0.9154,-0.4291 1.3723,-0.6027zM205.77629,392.78582c0.4331,-0.4136 0.8616,-0.7918 1.2566,-1.0676c-0.3361,-0.2727 -0.6839,-0.5747 -1.028,-0.8931c-0.6473,0.3708 -1.2579,0.6753 -1.7521,0.7637c0.5095,0.3959 1.0013,0.8424 1.5235,1.1971z" data-paper-data="{&quot;origPos&quot;:null,&quot;origRot&quot;:0}" fill="#292929"/><path d="M210.20669,406.68932c-0.2555,0.0918 -0.4562,0.067 -0.6099,-0.0065l0.0302,0.0342c-3.2841,-0.2367 -6.4384,-0.3084 -9.5776,-1.338c-4.9542,-1.6248 -0.114,-6.938 0.116,-10.1307c0.4707,-3.2393 1.4441,-6.1943 1.6898,-9.6051c0,0 0.0581,-0.8063 0.8645,-0.7482c0.8064,0.0581 0.7483,0.8645 0.7483,0.8645c-0.1701,2.3602 -2.0853,7.7782 -1.6898,9.605c-0.2384,3.3081 -4.2339,7.4913 -1.225,8.4781c3.0084,0.9867 6.0353,1.0342 9.1899,1.2616l0.9509,0.5507c0,0 0.2735,0.7608 -0.4873,1.0343z" data-paper-data="{&quot;origPos&quot;:null}" fill="#1a1a1a"/></g></g><g data-paper-data="{&quot;origPos&quot;:null}" stroke-linecap="round"><path d="M230.48289,300.73222c6.4593,3.8728 8.8685,12.8148 8.2813,19.9425c-0.6382,7.7037 -4.4601,18.7026 -12.3329,19.903c-12.1004,2.0771 -26.077,-3.3876 -35.1908,-12.0978c-4.2464,-4.1439 2.7138,-11.5674 4.2665,-17.2946c1.7329,-4.6678 0.8345,-12.3675 5.5814,-13.8495c9.4746,-2.9567 21.3187,-1.7374 29.3945,3.3964z" data-paper-data="{&quot;origPos&quot;:null}" fill="#666666" stroke="#000000" stroke-width="1.5"/><path d="M230.24629,304.20732c5.1766,3.1274 7.2053,10.4114 6.728,16.2024c-0.5182,6.2595 -3.6234,15.1958 -10.02,16.1712c-9.8313,1.6876 -21.1868,-2.7524 -28.5918,-9.8296c-3.45,-3.3667 2.1571,-9.4125 3.4664,-14.0512c1.3605,-3.8069 0.672,-10.072 4.5349,-11.2523c7.6843,-2.3488 17.261,-1.4216 23.8826,2.7595z" data-paper-data="{&quot;origPos&quot;:null}" fill="#ffffff" stroke="none" stroke-width="0.81248"/></g></g><g data-paper-data="{&quot;origRot&quot;:0,&quot;index&quot;:null}"><path d="M215.46066,222.17996c0,0 -1.34716,-36.59355 -5.33868,-59.59812c-2.75581,-15.88268 -16.45871,-57.84625 -5.45442,-91.47082c11.00425,-33.62453 78.48364,-24.85942 86.47868,-7.25912c7.99498,17.60028 2.72053,78.20089 2.76628,91.66286c0.08102,23.8238 2.1898,60.90378 2.1898,60.90378z" data-paper-data="{&quot;origPos&quot;:null}" fill="#000000" stroke="none" stroke-width="0" stroke-linecap="butt"/><path d="M204.89639,117.75342c-5.1389,-9.9396 -4.1635,-22.6079 -2.5688,-34.8134c1.268,-9.7041 3.6054,-20.8475 12.0014,-19.8652c8.396,0.9823 20.2834,5.8753 26.0953,11.9379c3.6094,3.7786 7.8838,32.8404 2.4429,38.7311c-4.8273,5.5841 -35.5952,8.5799 -37.9707,4.0096z" data-paper-data="{&quot;origPos&quot;:null,&quot;index&quot;:null}" fill="#ffffff" stroke="#000000" stroke-width="2" stroke-linecap="round"/><path d="M294.12429,77.30792c3.3138,11.855 6.0802,24.2558 2.4065,34.8251c-1.7016,4.8615 -32.5828,6.2703 -38.155,1.4291c-6.2231,-5.0573 -6.1236,-34.4317 -3.0881,-38.685c4.891,-6.8272 15.962,-13.3605 24.1331,-15.5264c8.1711,-2.1659 12.0689,8.532 14.7036,17.9573z" data-paper-data="{&quot;origPos&quot;:null}" fill="#ffffff" stroke="#000000" stroke-width="2" stroke-linecap="round"/><path d="M254.64829,126.21782c3.9951,-5.1162 33.4335,-6.9795 37.1298,-2.1664c5.1303,6.6883 2.81,16.8237 2.4542,25.2754c-0.5206,5.4646 -0.8525,12.2546 -5.0341,15.7599c-4.0362,3.4073 -29.3983,3.5593 -34.077,-0.4833c-3.989,-3.3754 -5.3127,-32.5671 -0.4729,-38.3856z" data-paper-data="{&quot;origPos&quot;:null}" fill="#ffffff" stroke="#000000" stroke-width="2" stroke-linecap="round"/><path d="M206.64169,125.24782c6.9412,-5.1322 36.1458,-2.0993 38.6736,1.2897c3.9007,5.1778 6.2858,33.5252 2.443,38.7311c-3.0445,4.0367 -29.4639,4.864 -34.4686,0.8415c-5.7201,-4.5972 -6.1142,-13.6081 -7.4885,-20.8631c-0.876,-6.5903 -4.4743,-16.0661 0.8407,-19.9992z" data-paper-data="{&quot;origPos&quot;:null}" fill="#ffffff" stroke="#000000" stroke-width="2" stroke-linecap="round"/><path d="M286.92069,219.97222l-69.567,2.7007l-3.0113,-45.1747l72.9846,-3.2691z" data-paper-data="{&quot;origPos&quot;:null}" fill="url(#color-12)" stroke="#000000" stroke-width="2" stroke-linecap="round"/><g fill="#000000" stroke="none"><path d="M271.70889,72.72672l5.3495,-0.1332l-0.1596,8.2367l7.8294,-0.3101l0.3366,4.7117l-7.9797,-0.053l1.7451,24.4264l-4.9775,0.1066l-1.3732,-24.4533l-7.7939,0.8061l-0.2924,-4.0917l8.2013,-0.3366z" stroke-width="0.15376" stroke-linecap="round"/><g stroke-width="0.12102" stroke-linecap="butt"><path d="M286.89769,108.18532c0.3458,-0.1031 0.3625,0.1311 0.3764,0.3262c0.0251,0.3513 -0.0808,0.5158 -0.315,0.5325c-1.7121,0.2008 -3.4267,0.3625 -5.1388,0.5633c-0.1171,0.0083 -0.1951,0.0139 -0.2732,0.0195c-0.0223,-0.3122 -0.0781,-0.5436 -0.0975,-0.8168c-0.0084,-0.1172 0.0975,-0.2816 0.2146,-0.29c0.2677,-0.0975 0.5381,-0.1561 0.8448,-0.2564c0.499,-0.1537 0.5687,-0.2764 0.5325,-0.7838c-0.0781,-1.0929 -0.0809,-2.2306 -0.198,-3.3207c-0.1562,-1.6368 -0.3932,-3.3071 -0.5494,-4.9439c-0.0669,-0.9368 -0.0531,-1.8403 -0.12,-2.7771c-0.0474,-0.6639 -0.0976,-1.3664 -0.1868,-2.0661c-0.0976,0.2815 -0.2007,0.5628 -0.3318,0.8475c-0.5223,1.1746 -1.1129,2.1214 -1.6967,3.162c-0.4756,0.8568 -1.1235,1.4503 -1.5864,2.232c-0.4087,0.6955 -0.7921,1.3833 -1.2687,2.0132c-0.3474,0.4528 -0.461,1.6086 -0.9467,1.3036c-2.1346,-1.4974 -3.1363,-3.4295 -4.7597,-5.1135c-0.959,-1.0173 -2.0484,-1.9941 -3.0001,-3.0031c-0.2379,-0.2515 -0.1729,-0.223 -0.2203,-0.3373l-0.0781,0.0055c0.0558,0.7807 0.1116,1.5616 0.1673,2.3422c0.1729,1.871 0.3486,3.7811 0.4824,5.6549c0.1004,1.4051 0.1255,2.8551 0.1869,4.2633c0.0252,0.3512 0.0892,0.6997 0.1534,1.0482c0.0585,0.2704 0.3039,0.4102 0.5799,0.4297c0.1979,0.025 0.354,0.0139 0.5492,-0.0001c0.2732,-0.0195 0.3234,0.1338 0.2983,0.3317c-0.0223,0.237 -0.0084,0.4322 0.0084,0.6664c0.0139,0.1951 -0.1032,0.2035 -0.2593,0.2146c-0.6608,0.0864 -1.3218,0.1729 -1.9463,0.2175c-0.6997,0.0892 -1.3636,0.1366 -2.0634,0.2259c-0.2341,0.0167 -0.354,-0.014 -0.3345,-0.29c0.0223,-0.237 -0.0334,-0.4684 -0.0474,-0.6635c-0.0167,-0.2342 0.0948,-0.3206 0.3262,-0.3764c0.3095,-0.0614 0.6189,-0.1227 0.8841,-0.2596c0.0752,-0.0447 0.1812,-0.2091 0.1756,-0.2872c-0.025,-0.9005 -0.092,-1.8376 -0.1171,-2.738c-0.0307,-0.9786 -0.0224,-1.9603 -0.0558,-2.9779c-0.0196,-0.2735 -0.0419,-0.5858 -0.1004,-0.8562c-0.184,-0.9283 -0.2147,-1.9072 -0.2873,-2.922c-0.1059,-1.4835 -0.2481,-2.9252 -0.3541,-4.4083c-0.0363,-0.5077 -0.0753,-1.0542 -0.1506,-1.5588c-0.1032,-0.3457 -0.3485,-0.4851 -0.7001,-0.4599c-0.0391,0.0027 -0.0781,0.0055 -0.0781,0.0055c-0.7053,0.0112 -0.8364,-0.1759 -0.7277,-0.8506c-0.0056,-0.0781 0.1422,-0.2063 0.2203,-0.2119c0.3122,-0.0223 0.6245,-0.0447 0.937,-0.067c0.9396,-0.0279 1.8739,-0.1338 2.7716,-0.198c0.5074,-0.0362 0.5824,0.2512 0.8196,0.4907c1.1047,1.0633 1.7397,2.0908 2.6017,3.1885c1.1508,1.2869 2.2247,2.6624 3.4423,3.9718c0.3049,0.3277 0.0616,0.3172 0.3513,-0.0251c1.3772,-1.5894 2.6822,-3.2629 3.852,-4.846c0.629,-0.8477 0.9883,-1.8858 1.6507,-2.7077c0.2924,-0.3629 0.4488,-0.8559 1.0736,-0.9005c1.0956,-0.0391 2.225,-0.159 3.3207,-0.198c0.2342,-0.0168 0.3206,0.0948 0.3374,0.329c0.0418,0.5857 0.0418,0.5857 -0.5799,0.6694c-0.6244,0.0446 -0.8308,-0.0979 -0.7638,0.8392c0.0557,0.7805 0.1087,1.5225 0.2035,2.3003c0.0195,0.2732 0.0781,0.5436 0.0976,0.8168c0.0948,1.3274 0.1869,2.6158 0.2816,3.9428c0.1199,1.6786 0.1981,3.321 0.318,4.9996c0.0669,0.9368 0.0948,1.8767 0.1255,2.8552c0.0363,0.5077 0.1674,0.6945 0.6775,0.6973c0.1561,-0.0112 0.3178,0.0557 0.4712,0.0055z"/></g></g><g><g><path d="M225.11969,289.52262c0,0 0.3502,0.481 0.3874,0.3357c0.1049,-0.4101 -0.029,-0.9692 -0.1033,-1.446c-0.0383,-0.2459 -0.1742,-0.4684 -0.2323,-0.7103c-0.1142,-0.4729 -0.1411,-0.9681 -0.2843,-1.4331c-0.0954,-0.3105 -0.2734,-0.5913 -0.4261,-0.878c-0.1266,-0.238 -0.3099,-0.448 -0.413,-0.6974c-0.1907,-0.4597 -0.4294,-0.9238 -0.4649,-1.4202c-0.0907,-1.2697 0.0796,-2.5488 0.0904,-3.8219c0.0025,-0.3182 -0.078,-0.4833 -0.0517,-0.7231c0.0476,-0.4369 0.2233,-0.8544 0.2709,-1.2913c0.0263,-0.2398 -0.0446,-0.451 -0.0517,-0.7228c-0.0281,-1.088 -0.0515,-3.267 -0.0515,-3.267" fill="none" stroke="#7f7f7f" stroke-width="0.89665" stroke-linecap="round"/><path d="M223.40329,261.91122c-0.6374,1.9967 -0.5245,6.6216 -1.5596,6.0967c-1.4328,-0.7257 -1.8421,-6.125 -3.6158,-8.7198c-0.9336,-1.3679 -3.3773,-1.2472 -4.1829,-2.694c-1.9936,-3.5804 -2.74,-7.7471 -3.8286,-11.6977c-0.7086,-2.5749 -0.5374,-5.4023 -1.5598,-7.8691c-0.634,-1.531 -2.6271,-2.2267 -3.261,-3.7575c-1.0224,-2.4668 -1.8489,-5.2129 -1.5598,-7.8694c0.1514,-1.3975 1.8433,-2.1269 2.7645,-3.1903c0.9217,-1.0635 2.0307,-1.9905 2.7649,-3.1904c0.7738,-1.2643 0.6338,-3.0838 1.7015,-4.1117c0.9839,-0.9463 2.5377,-1.1789 3.8993,-1.2762c1.3618,-0.0972 2.9327,-0.0879 4.041,0.7089c1.2031,0.8656 1.5134,2.5534 2.2687,3.828c0.7554,1.275 1.893,2.395 2.2687,3.8284c1.0121,3.8604 1.5592,7.8594 1.8435,11.8396c0.1903,2.6637 -0.1743,5.3516 -0.4253,8.0109c-0.1285,1.3602 -0.7209,2.6754 -0.7089,4.041c0.0348,3.976 1.062,7.939 0.851,11.9105c-0.0778,1.4802 -1.2495,2.7008 -1.7014,4.112z" fill="none" stroke="#7f7f7f" stroke-width="0.61539" stroke-linecap="round"/><path d="M207.05689,219.96752c0.5106,-0.0365 0.9873,0.1376 1.3458,0.4488c0.359,0.3106 0.5991,0.758 0.6356,1.2683c0.0365,0.5106 -0.1377,0.9873 -0.4489,1.3461c-0.3105,0.3587 -0.7577,0.5988 -1.2683,0.6353c-0.5103,0.0365 -0.9873,-0.1376 -1.3457,-0.4486c-0.3591,-0.3108 -0.5992,-0.7579 -0.6357,-1.2686c-0.0364,-0.5102 0.1376,-0.9873 0.4489,-1.3457c0.3105,-0.3591 0.7579,-0.5992 1.2683,-0.6357z" fill="url(#color-13)" stroke="none" stroke-width="0.13489" stroke-linecap="butt"/><path d="M204.01559,222.77842c0.5106,-0.0365 0.9873,0.1376 1.3458,0.4488c0.359,0.3105 0.5992,0.758 0.6356,1.2683c0.0365,0.5106 -0.1376,0.9873 -0.4488,1.3461c-0.3106,0.3587 -0.7577,0.5988 -1.2684,0.6353c-0.5102,0.0365 -0.9872,-0.1376 -1.3457,-0.4485c-0.3591,-0.3109 -0.5992,-0.7581 -0.6357,-1.2687c-0.0364,-0.5103 0.1376,-0.9873 0.4489,-1.3457c0.3105,-0.3591 0.758,-0.5992 1.2683,-0.6357z" fill="url(#color-14)" stroke="none" stroke-width="0.13489" stroke-linecap="butt"/><path d="M203.52029,227.19062c0.5106,-0.0365 0.9873,0.1376 1.3457,0.4488c0.3591,0.3105 0.5992,0.758 0.6356,1.2683c0.0365,0.5106 -0.1376,0.9873 -0.4488,1.3461c-0.3105,0.3587 -0.7577,0.5988 -1.2683,0.6353c-0.5103,0.0364 -0.9873,-0.1376 -1.3457,-0.4486c-0.3591,-0.3108 -0.5992,-0.758 -0.6357,-1.2686c-0.0365,-0.5103 0.1376,-0.9873 0.4489,-1.3458c0.3105,-0.359 0.7579,-0.5992 1.2682,-0.6356z" fill="url(#color-15)" stroke="none" stroke-width="0.13489" stroke-linecap="butt"/><path d="M205.24849,230.95772c0.5106,-0.0365 0.9873,0.1376 1.3458,0.4489c0.359,0.3105 0.5992,0.7579 0.6356,1.2683c0.0365,0.5105 -0.1376,0.9873 -0.4488,1.346c-0.3106,0.3588 -0.7577,0.5989 -1.2683,0.6353c-0.5103,0.0365 -0.9873,-0.1376 -1.3458,-0.4485c-0.3591,-0.3109 -0.5992,-0.758 -0.6357,-1.2686c-0.0364,-0.5103 0.1376,-0.9874 0.4489,-1.3458c0.3105,-0.3591 0.758,-0.5992 1.2683,-0.6356z" fill="url(#color-16)" stroke="none" stroke-width="0.13489" stroke-linecap="butt"/><path d="M208.08239,234.32162c0.5106,-0.0365 0.9873,0.1376 1.3458,0.4489c0.359,0.3105 0.5992,0.7579 0.6356,1.2683c0.0365,0.5106 -0.1376,0.9873 -0.4488,1.3461c-0.3106,0.3587 -0.7577,0.5988 -1.2684,0.6353c-0.5102,0.0364 -0.9872,-0.1377 -1.3457,-0.4486c-0.3591,-0.3109 -0.5992,-0.758 -0.6357,-1.2686c-0.0364,-0.5103 0.1376,-0.9873 0.4489,-1.3458c0.3105,-0.3591 0.758,-0.5992 1.2683,-0.6356z" fill="url(#color-17)" stroke="none" stroke-width="0.13489" stroke-linecap="butt"/><path d="M209.22299,238.94112c0.5106,-0.0364 0.9873,0.1376 1.3458,0.4489c0.359,0.3105 0.5991,0.758 0.6356,1.2683c0.0365,0.5106 -0.1377,0.9873 -0.4489,1.3461c-0.3105,0.3587 -0.7577,0.5988 -1.2683,0.6353c-0.5103,0.0364 -0.9873,-0.1376 -1.3457,-0.4486c-0.3591,-0.3108 -0.5992,-0.758 -0.6357,-1.2686c-0.0364,-0.5103 0.1376,-0.9873 0.4489,-1.3458c0.3105,-0.359 0.7579,-0.5992 1.2683,-0.6356z" fill="url(#color-18)" stroke="none" stroke-width="0.13489" stroke-linecap="butt"/><path d="M210.31749,242.91562c0.5106,-0.0365 0.9873,0.1376 1.3457,0.4489c0.3591,0.3105 0.5992,0.758 0.6357,1.2683c0.0364,0.5106 -0.1377,0.9873 -0.4489,1.3461c-0.3105,0.3587 -0.7577,0.5988 -1.2683,0.6353c-0.5103,0.0364 -0.9873,-0.1377 -1.3457,-0.4486c-0.3591,-0.3109 -0.5992,-0.758 -0.6357,-1.2686c-0.0365,-0.5103 0.1376,-0.9873 0.4489,-1.3458c0.3105,-0.359 0.7579,-0.5992 1.2682,-0.6356z" fill="url(#color-19)" stroke="none" stroke-width="0.13489" stroke-linecap="butt"/><path d="M211.44649,247.37412c0.5106,-0.0365 0.9873,0.1376 1.3458,0.4489c0.359,0.3105 0.5992,0.7579 0.6356,1.2682c0.0365,0.5106 -0.1376,0.9873 -0.4488,1.3461c-0.3106,0.3587 -0.7577,0.5988 -1.2683,0.6353c-0.5103,0.0365 -0.9873,-0.1376 -1.3458,-0.4485c-0.3591,-0.3109 -0.5992,-0.7581 -0.6357,-1.2687c-0.0364,-0.5102 0.1376,-0.9873 0.4489,-1.3457c0.3105,-0.3591 0.758,-0.5992 1.2683,-0.6357z" fill="url(#color-20)" stroke="none" stroke-width="0.13489" stroke-linecap="butt"/><path d="M212.54109,251.34862c0.5106,-0.0365 0.9873,0.1376 1.3457,0.4488c0.3591,0.3105 0.5992,0.758 0.6357,1.2683c0.0364,0.5106 -0.1377,0.9873 -0.4489,1.3461c-0.3105,0.3587 -0.7577,0.5988 -1.2683,0.6353c-0.5103,0.0364 -0.9873,-0.1376 -1.3457,-0.4486c-0.3591,-0.3108 -0.5992,-0.758 -0.6357,-1.2686c-0.0365,-0.5103 0.1376,-0.9873 0.4489,-1.3458c0.3105,-0.359 0.7579,-0.5991 1.2682,-0.6356z" fill="url(#color-21)" stroke="none" stroke-width="0.13489" stroke-linecap="butt"/><path d="M215.07569,255.05812c0.5106,-0.0365 0.9873,0.1376 1.3458,0.4488c0.359,0.3105 0.5992,0.758 0.6356,1.2683c0.0365,0.5106 -0.1376,0.9873 -0.4488,1.3461c-0.3106,0.3587 -0.7577,0.5988 -1.2684,0.6353c-0.5102,0.0364 -0.9872,-0.1376 -1.3457,-0.4486c-0.3591,-0.3108 -0.5992,-0.758 -0.6357,-1.2686c-0.0364,-0.5103 0.1376,-0.9873 0.4489,-1.3458c0.3105,-0.359 0.7579,-0.5992 1.2683,-0.6356z" fill="url(#color-22)" stroke="none" stroke-width="0.13489" stroke-linecap="butt"/><g stroke="none" stroke-width="0.13489" stroke-linecap="butt"><path d="M217.67059,258.56632c0.4611,-0.2219 0.9684,-0.2358 1.4164,-0.0788c0.4482,0.1567 0.8362,0.4839 1.0583,0.9454c0.2219,0.461 0.2358,0.9684 0.0785,1.4163c-0.1567,0.4482 -0.484,0.836 -0.9451,1.058c-0.4611,0.222 -0.9684,0.2358 -1.4164,0.0788c-0.4482,-0.1567 -0.8363,-0.4839 -1.0583,-0.945c-0.2219,-0.4611 -0.2358,-0.9688 -0.0785,-1.4167c0.1567,-0.4482 0.484,-0.836 0.945,-1.058z" fill="url(#color-23)"/><path d="M219.38719,262.17212c0.4611,-0.2219 0.9685,-0.2358 1.4164,-0.0788c0.4482,0.1567 0.8363,0.484 1.0583,0.9454c0.222,0.461 0.2359,0.9684 0.0785,1.4163c-0.1566,0.4483 -0.4839,0.8361 -0.945,1.058c-0.4611,0.222 -0.9684,0.2359 -1.4164,0.0789c-0.4483,-0.1567 -0.8364,-0.484 -1.0583,-0.9451c-0.222,-0.461 -0.2359,-0.9688 -0.0785,-1.4167c0.1566,-0.4482 0.4839,-0.836 0.945,-1.058z" fill="url(#color-24)"/></g><path d="M211.24579,212.24562c0.8632,-0.0617 1.6698,0.2328 2.276,0.7588c0.6072,0.5253 1.0134,1.2818 1.075,2.145c0.0617,0.8632 -0.2327,1.6698 -0.7591,2.276c-0.5253,0.6073 -1.2818,1.0134 -2.145,1.0751c-0.8632,0.0617 -1.6694,-0.2328 -2.2761,-0.7591c-0.6068,-0.5254 -1.013,-1.2819 -1.0747,-2.1451c-0.0617,-0.8632 0.2328,-1.6698 0.7588,-2.2761c0.5257,-0.6069 1.2819,-1.013 2.1451,-1.0747z" fill="url(#color-25)" stroke="none" stroke-width="0.22813" stroke-linecap="butt"/><path d="M220.96169,214.92142c0.5106,-0.0365 0.9873,0.1376 1.3458,0.4489c0.359,0.3105 0.5992,0.7579 0.6356,1.2682c0.0365,0.5106 -0.1376,0.9873 -0.4488,1.3461c-0.3106,0.3587 -0.7577,0.5988 -1.2684,0.6353c-0.5102,0.0365 -0.9872,-0.1376 -1.3457,-0.4485c-0.3591,-0.3109 -0.5992,-0.758 -0.6357,-1.2687c-0.0364,-0.5102 0.1376,-0.9873 0.4489,-1.3457c0.3105,-0.3591 0.758,-0.5992 1.2683,-0.6356z" fill="url(#color-26)" stroke="none" stroke-width="0.13489" stroke-linecap="butt"/><path d="M223.20819,219.13762c0.5106,-0.0364 0.9873,0.1376 1.3458,0.4489c0.3591,0.3105 0.5992,0.758 0.6356,1.2683c0.0365,0.5106 -0.1376,0.9873 -0.4488,1.3461c-0.3105,0.3587 -0.7577,0.5988 -1.2683,0.6353c-0.5103,0.0364 -0.9873,-0.1376 -1.3457,-0.4486c-0.3592,-0.3108 -0.5993,-0.758 -0.6357,-1.2686c-0.0365,-0.5103 0.1375,-0.9873 0.4488,-1.3458c0.3105,-0.359 0.758,-0.5992 1.2683,-0.6356z" fill="url(#color-27)" stroke="none" stroke-width="0.13489" stroke-linecap="butt"/><path d="M224.36039,223.91852c0.5106,-0.0364 0.9873,0.1376 1.3458,0.4489c0.359,0.3105 0.5992,0.758 0.6356,1.2683c0.0365,0.5106 -0.1376,0.9873 -0.4488,1.3461c-0.3106,0.3587 -0.7577,0.5988 -1.2684,0.6353c-0.5102,0.0364 -0.9872,-0.1376 -1.3457,-0.4486c-0.3591,-0.3109 -0.5992,-0.758 -0.6357,-1.2686c-0.0364,-0.5103 0.1376,-0.9873 0.4489,-1.3458c0.3105,-0.359 0.758,-0.5992 1.2683,-0.6356z" fill="url(#color-28)" stroke="none" stroke-width="0.13489" stroke-linecap="butt"/><path d="M224.74069,229.24102c0.5105,-0.0365 0.9873,0.1376 1.3457,0.4489c0.3591,0.3105 0.5992,0.758 0.6356,1.2683c0.0365,0.5106 -0.1376,0.9873 -0.4488,1.3461c-0.3105,0.3587 -0.7577,0.5988 -1.2683,0.6353c-0.5103,0.0364 -0.9873,-0.1376 -1.3457,-0.4486c-0.3591,-0.3109 -0.5992,-0.758 -0.6357,-1.2686c-0.0365,-0.5103 0.1376,-0.9873 0.4488,-1.3458c0.3105,-0.359 0.758,-0.5992 1.2683,-0.6356z" fill="url(#color-29)" stroke="none" stroke-width="0.13489" stroke-linecap="butt"/><path d="M225.25909,234.22922c0.5106,-0.0364 0.9873,0.1376 1.3457,0.4489c0.3591,0.3105 0.5992,0.758 0.6356,1.2683c0.0365,0.5106 -0.1376,0.9873 -0.4488,1.3461c-0.3105,0.3587 -0.7577,0.5988 -1.2683,0.6353c-0.5103,0.0364 -0.9873,-0.1376 -1.3457,-0.4486c-0.3591,-0.3109 -0.5992,-0.758 -0.6357,-1.2686c-0.0365,-0.5103 0.1376,-0.9873 0.4489,-1.3458c0.3105,-0.359 0.7579,-0.5992 1.2682,-0.6356z" fill="url(#color-30)" stroke="none" stroke-width="0.13489" stroke-linecap="butt"/><path d="M225.30539,239.41322c0.5106,-0.0365 0.9873,0.1376 1.3458,0.4489c0.359,0.3105 0.5992,0.7579 0.6356,1.2682c0.0365,0.5106 -0.1376,0.9873 -0.4489,1.3461c-0.3105,0.3588 -0.7577,0.5988 -1.2683,0.6353c-0.5102,0.0365 -0.9872,-0.1376 -1.3457,-0.4485c-0.3591,-0.3109 -0.5992,-0.758 -0.6357,-1.2687c-0.0364,-0.5102 0.1376,-0.9873 0.4489,-1.3457c0.3105,-0.3591 0.7579,-0.5992 1.2683,-0.6356z" fill="url(#color-31)" stroke="none" stroke-width="0.13489" stroke-linecap="butt"/><path d="M225.01739,244.45922c0.5106,-0.0365 0.9873,0.1376 1.3458,0.4489c0.359,0.3105 0.5991,0.7579 0.6356,1.2682c0.0365,0.5106 -0.1377,0.9873 -0.4489,1.3461c-0.3105,0.3588 -0.7577,0.5988 -1.2683,0.6353c-0.5103,0.0365 -0.9873,-0.1376 -1.3457,-0.4485c-0.3591,-0.3109 -0.5992,-0.758 -0.6357,-1.2687c-0.0364,-0.5102 0.1376,-0.9873 0.4489,-1.3457c0.3105,-0.3591 0.7579,-0.5992 1.2683,-0.6356z" fill="url(#color-32)" stroke="none" stroke-width="0.13489" stroke-linecap="butt"/><path d="M225.02889,249.15942c0.5106,-0.0365 0.9873,0.1376 1.3458,0.4489c0.359,0.3105 0.5992,0.7579 0.6356,1.2682c0.0365,0.5106 -0.1376,0.9873 -0.4488,1.3461c-0.3105,0.3587 -0.7577,0.5988 -1.2683,0.6353c-0.5103,0.0365 -0.9873,-0.1376 -1.3458,-0.4485c-0.3591,-0.3109 -0.5992,-0.758 -0.6356,-1.2687c-0.0365,-0.5102 0.1375,-0.9873 0.4488,-1.3458c0.3105,-0.359 0.758,-0.5991 1.2683,-0.6356z" fill="url(#color-33)" stroke="none" stroke-width="0.13489" stroke-linecap="butt"/><path d="M224.91389,254.35522c0.5106,-0.0365 0.9873,0.1376 1.3457,0.4489c0.3591,0.3105 0.5992,0.7579 0.6356,1.2682c0.0365,0.5106 -0.1376,0.9873 -0.4488,1.3461c-0.3105,0.3587 -0.7577,0.5989 -1.2683,0.6353c-0.5103,0.0365 -0.9873,-0.1376 -1.3457,-0.4485c-0.3591,-0.3109 -0.5992,-0.758 -0.6357,-1.2686c-0.0365,-0.5103 0.1376,-0.9874 0.4489,-1.3458c0.3105,-0.3591 0.7579,-0.5992 1.2682,-0.6356z" fill="url(#color-34)" stroke="none" stroke-width="0.13489" stroke-linecap="butt"/><path d="M223.83089,259.61992c0.5106,-0.0365 0.9873,0.1376 1.3458,0.4488c0.3591,0.3106 0.5992,0.758 0.6356,1.2683c0.0365,0.5106 -0.1376,0.9873 -0.4488,1.3461c-0.3105,0.3587 -0.7577,0.5988 -1.2683,0.6353c-0.5103,0.0364 -0.9873,-0.1376 -1.3457,-0.4486c-0.3592,-0.3108 -0.5993,-0.758 -0.6357,-1.2686c-0.0365,-0.5103 0.1376,-0.9873 0.4488,-1.3458c0.3105,-0.359 0.758,-0.5992 1.2683,-0.6356z" fill="url(#color-35)" stroke="none" stroke-width="0.13489" stroke-linecap="butt"/><path d="M222.60269,265.73892c1.0725,-0.0766 2.0835,0.4111 2.8514,1.2608c0.7681,0.8496 1.2923,2.061 1.3904,3.4326c0.098,1.3719 -0.2487,2.6455 -0.8882,3.5958c-0.6393,0.9499 -1.5707,1.5764 -2.6433,1.653c-1.0722,0.0766 -2.0836,-0.4111 -2.8514,-1.2604c-0.7677,-0.8497 -1.292,-2.0611 -1.39,-3.433c-0.098,-1.3715 0.2487,-2.6451 0.8879,-3.5954c0.6393,-0.9502 1.571,-1.5767 2.6432,-1.6533z" fill="#b2b2b2" stroke="none" stroke-width="0.11208" stroke-linecap="butt"/><path d="M222.80899,276.03102c0.4611,-0.2219 0.9684,-0.2358 1.4164,-0.0788c0.4482,0.1567 0.8363,0.4839 1.0583,0.9453c0.2219,0.4611 0.2358,0.9685 0.0785,1.4164c-0.1567,0.4482 -0.484,0.836 -0.9451,1.058c-0.4611,0.2219 -0.9684,0.2358 -1.4164,0.0788c-0.4482,-0.1567 -0.8363,-0.4839 -1.0583,-0.945c-0.2219,-0.4611 -0.2358,-0.9688 -0.0785,-1.4167c0.1567,-0.4483 0.484,-0.836 0.9451,-1.058z" fill="url(#color-36)" stroke="none" stroke-width="0.13489" stroke-linecap="butt"/><path d="M222.48639,280.59302c0.4611,-0.2219 0.9684,-0.2358 1.4164,-0.0788c0.4482,0.1567 0.8363,0.4839 1.0583,0.9454c0.2219,0.461 0.2358,0.9684 0.0785,1.4163c-0.1567,0.4482 -0.484,0.836 -0.9451,1.058c-0.461,0.222 -0.9684,0.2358 -1.4163,0.0788c-0.4483,-0.1567 -0.8364,-0.4839 -1.0584,-0.945c-0.2219,-0.4611 -0.2358,-0.9688 -0.0785,-1.4167c0.1567,-0.4482 0.484,-0.836 0.9451,-1.058z" fill="url(#color-37)" stroke="none" stroke-width="0.13489" stroke-linecap="butt"/><path d="M224.63789,284.52672c0.5106,-0.0365 0.9873,0.1376 1.3457,0.4489c0.3591,0.3105 0.5992,0.7579 0.6356,1.2682c0.0365,0.5106 -0.1376,0.9873 -0.4488,1.3461c-0.3105,0.3587 -0.7577,0.5988 -1.2683,0.6353c-0.5103,0.0365 -0.9873,-0.1376 -1.3457,-0.4485c-0.3591,-0.3109 -0.5992,-0.758 -0.6357,-1.2687c-0.0365,-0.5102 0.1376,-0.9873 0.4488,-1.3457c0.3106,-0.3591 0.758,-0.5992 1.2683,-0.6356z" fill="url(#color-38)" stroke="none" stroke-width="0.13489" stroke-linecap="butt"/><path d="M228.03759,292.22142l3.4089,-0.6069l0.0906,3.8091l-3.0473,0.5812l0.2198,10.7041l-4.1579,0.2971l-1.2785,-10.2654l-4.3514,0.1293l-0.0903,-3.8092l4.1576,-0.297l-0.2583,-3.6153l4.8808,-0.3487z" fill="#b2b2b2" stroke="none" stroke-width="0.11208" stroke-linecap="round"/><path d="M224.97169,291.44172l1.666,13.1446" fill="none" stroke="#7f7f7f" stroke-width="0.22417" stroke-linecap="round"/><path d="M221.91169,294.38562l6.3398,-0.2711" fill="none" stroke="#7f7f7f" stroke-width="0.22417" stroke-linecap="round"/></g><path d="M294.25179,228.04012l-78.9599,2.0749l-1.279,-13.3635l76.7249,-3.8605z" fill="#000000" stroke="none" stroke-width="1" stroke-linecap="round"/><g><g><g><path d="M304.07589,220.36022l6.1309,-7.1924l1.1601,41.174l-9.6217,-5.6636l-4.4774,-29.1933z" fill="#363a37" stroke="none" stroke-width="1.16316" stroke-linecap="round"/><path d="M300.63159,198.68002l0.6318,16.9346l-22.79,-4.8022l-1.5137,-29.1966z" fill="#000000" stroke="none" stroke-width="0.87338" stroke-linecap="round"/><path d="M308.92659,230.41772l1.2797,34.2927l-4.8658,0.1817l-1.28,-34.2927z" fill="url(#color-39)" stroke="url(#color-40)" stroke-width="0.20059" stroke-linecap="round"/><path d="M319.34309,205.52382c0.4094,0.6886 0.6818,1.6509 0.7219,2.7205c0.0398,1.0696 -0.1603,2.0494 -0.5172,2.7665c-0.3569,0.717 -0.8711,1.1713 -1.4548,1.1933c-0.5839,0.0216 -1.1304,-0.3933 -1.5397,-1.0815c-0.4098,-0.6886 -0.6822,-1.6508 -0.722,-2.7205c-0.0401,-1.0696 0.16,-2.0494 0.5169,-2.7665c0.357,-0.7171 0.8711,-1.1717 1.4551,-1.1933c0.5836,-0.0219 1.1301,0.393 1.5398,1.0815z" fill="#ff0000" stroke="none" stroke-width="0.78683" stroke-linecap="butt"/><path d="M301.83149,173.08292l9.249,9.2647l0.9076,12.9672l3.96,-7.4964l0.0928,13.8458l-3.5103,8.1862l0.4583,12.2776l-5.192,12.3472l-11.3211,-0.4255l-4.9944,-46.7313z" fill="#000000" stroke="none" stroke-width="0.87338" stroke-linecap="round"/><path d="M319.62699,183.72772l1.0941,25.538l-2.1179,-3.7367l-1.9649,0.356l-1.4102,3.8681l-0.9638,-25.8252z" fill="#000000" stroke="none" stroke-width="0.87338" stroke-linecap="round"/></g><path d="M306.49709,283.65012v0l-0.0327,-0.2081v0z" fill="#cccccc" stroke="none" stroke-width="0.65058" stroke-linecap="butt"/></g><path d="M318.85929,266.16032l-19.7572,0.2768l-8.8018,-18.8239l-8.2491,-36.0468l33.0287,1.6929z" fill="#353935" stroke="none" stroke-width="1" stroke-linecap="round"/></g><g stroke-width="1" stroke-linecap="butt"><path d="M284.40199,233.12082l-14.5155,1.037l-1.8437,-25.8054l14.5155,-1.037z" fill="#cccc00" stroke="#000000"/><path d="M273.30079,210.83952c0.3905,0.3384 0.6525,0.8287 0.6922,1.3835c0.0397,0.5548 -0.1499,1.0774 -0.4884,1.4679c-0.3385,0.3906 -0.8287,0.6526 -1.3836,0.6922c-0.5548,0.0397 -1.0773,-0.1499 -1.4679,-0.4884c-0.3905,-0.3384 -0.6525,-0.8287 -0.6921,-1.3835c-0.0397,-0.5548 0.1499,-1.0774 0.4884,-1.468c0.3384,-0.3905 0.8287,-0.6525 1.3835,-0.6921c0.5548,-0.0397 1.0774,0.1499 1.4679,0.4884z" fill="#ff0000" stroke="none"/></g><g stroke="none"><path d="M264.96409,248.11222l-17.4767,0.817l-2.0379,-43.572l17.4767,-0.8173z" fill="url(#color-41)" stroke-width="0.29645" stroke-linecap="butt"/><path d="M266.25549,248.85262l-11.3144,4.3244l-8.7663,-2.7526l-0.4167,-3.7759l20.3497,-0.9517z" fill="#666666" stroke-width="0.25105" stroke-linecap="round"/><path d="M262.71959,246.29752l-1.6758,0.0785l-1.9033,-40.6993l1.6758,-0.0782z" fill="#666666" stroke-width="0.29645" stroke-linecap="butt"/><path d="M259.12859,246.46562l-1.4363,0.0673l-1.9259,-41.1783l1.4363,-0.067z" fill="#666666" stroke-width="0.29645" stroke-linecap="butt"/><path d="M254.46809,199.09442c2.5616,-0.3166 5.2561,-1.1624 7.6905,-0.3598c1.552,0.367 2.8968,1.9951 2.8918,3.4638c-0.0036,1.2304 -1.0793,1.943 -2.9342,2.6815c-1.8548,0.7385 -4.439,1.2622 -7.3124,1.3965c-2.8729,0.1346 -5.4948,-0.1459 -7.4105,-0.708c-1.9157,-0.5618 -3.1253,-1.4046 -3.1714,-2.3957c-0.0466,-0.9913 1.0792,-1.9432 2.9338,-2.6817c1.8549,-0.7382 4.8271,-1.0893 7.3124,-1.3965z" fill="#b2b2b2" stroke-width="0.31402" stroke-linecap="round"/><path d="M249.79159,246.90242l-1.4363,0.067l-1.9037,-40.6994l1.4367,-0.067z" fill="#666666" stroke-width="0.29645" stroke-linecap="butt"/><path d="M239.18689,209.96892v0l-0.0113,-0.2394v0z" fill="#666666" stroke-width="0.29645" stroke-linecap="butt"/><path d="M264.45189,206.38802l-20.3497,0.9517l-0.179,-3.8304l19.1303,-1.3749l-1.4657,-5.6896l6.0145,5.4772z" fill="#666666" stroke-width="0.29645" stroke-linecap="round"/><path d="M255.84529,232.20472l-6.7034,0.3136l-0.5598,-11.9702l6.7034,-0.3136z" fill="#000000" stroke-width="0.29645" stroke-linecap="butt"/><path d="M250.83099,223.00482c0.6608,-0.031 1.2757,0.2894 1.7347,0.8334c0.4603,0.5426 0.7646,1.3077 0.8049,2.1666c0.0403,0.8592 -0.1915,1.6494 -0.5992,2.2326c-0.4063,0.5844 -0.9886,0.9609 -1.6494,0.9919c-0.6608,0.031 -1.2754,-0.2899 -1.7347,-0.8335c-0.4603,-0.5429 -0.7646,-1.308 -0.8049,-2.1669c-0.04,-0.8589 0.1918,-1.649 0.5992,-2.2325c0.4063,-0.5844 0.9886,-0.9609 1.6494,-0.9916z" fill="#ff0000" stroke-width="0.29645" stroke-linecap="butt"/><path d="M222.16049,227.80032c0.065,-0.0031 0.1054,-0.005 0.1054,-0.005c0,0 -0.0405,0.0019 -0.1054,0.005c-0.0653,0.003 -0.1551,0.0072 -0.2536,0.0119c-0.099,0.0045 -0.1888,0.0087 -0.254,0.012c-0.065,0.003 -0.1054,0.0049 -0.1054,0.0049c0,0 0.0405,-0.0019 0.1054,-0.0049c0.0653,-0.0034 0.1551,-0.0075 0.254,-0.012c0.0985,-0.0048 0.1884,-0.009 0.2536,-0.0119z" fill="#ff0000" stroke-width="0.29645" stroke-linecap="butt"/></g><g stroke="none" stroke-linecap="butt"><path d="M266.47619,226.62012l-12.5801,0.8988l-0.749,-10.4835l12.5801,-0.8987z" fill="url(#color-42)" stroke-width="0.81818"/><path d="M242.31199,217.80962l11.2898,-0.8066l0.749,10.4835l-11.2898,0.8066z" fill="url(#color-43)" stroke-width="0.79778"/></g><g stroke="none" stroke-linecap="butt"><g stroke-width="0.10389"><path d="M229.04939,208.00022c3.675,-0.2626 7.1115,0.9921 9.6952,3.2309c2.5839,2.2393 4.3143,5.4625 4.5769,9.1375c0.2626,3.675 -0.9921,7.1115 -3.2314,9.695c-2.2392,2.5838 -5.4624,4.3142 -9.1374,4.5768c-3.675,0.2626 -7.1115,-0.9921 -9.695,-3.2313c-2.5838,-2.2389 -4.3142,-5.4622 -4.5767,-9.1372c-0.2626,-3.675 0.992,-7.1114 3.2312,-9.6953c2.239,-2.5834 5.4622,-4.3139 9.1372,-4.5764z" fill="#000000"/><path d="M230.94089,233.31852c-6.9491,0.4965 -12.9696,-4.5209 -13.4472,-11.2067c-0.4777,-6.6858 4.7685,-12.5081 11.7178,-13.0046c6.9494,-0.4965 12.4975,4.6117 12.9752,11.2971c0.4776,6.6862 -4.2968,12.4177 -11.2458,12.9142z" fill="url(#color-44)"/><path d="M227.16059,215.26272c0.4213,-0.5654 4.6927,-1.5275 5.2141,-1.364c0.5217,0.1634 3.3358,3.2172 3.5922,3.9465c0.2566,0.7293 -2.2552,3.9128 -2.838,4.2048c-0.5826,0.2916 -4.9245,-0.9032 -5.3042,-1.3342c-0.3793,-0.4306 -1.0848,-4.8875 -0.6642,-5.4531z" fill="#000000"/><path d="M224.69729,228.16602c-0.7138,1.0913 -1.6286,3.0035 -2.9296,2.6004c-1.8856,-0.5906 -3.5547,-2.6835 -3.6839,-4.6542c-0.1008,-1.5331 1.9665,-2.4981 3.3654,-3.1032c1.8882,-0.8161 7.0358,-2.9761 6.0473,-0.9203z" fill="url(#color-45)"/><path d="M236.92939,228.25172c0.6272,1.4178 -0.535,4.4819 -0.535,4.4819l-4.8317,1.6946c-1.005,-0.2946 -1.0216,-2.2697 -0.7882,-3.463c0.3244,-2.2664 0.578,-5.7189 2.397,-6.5203c1.3756,-0.6031 3.1871,2.1442 3.7579,3.8068z" fill="url(#color-46)"/><path d="M220.19639,218.37392c-0.9758,0.2228 -2.8929,-0.8246 -2.8929,-0.8246l3.7417,-5.4476c0.8146,-0.6269 2.1898,-0.302 2.996,0.281c1.0894,0.6636 2.8368,2.0318 2.141,3.0973c-1.2078,1.8549 -3.7506,2.3854 -5.9857,2.8939z" fill="url(#color-47)"/><path d="M241.03549,215.24412c1.2215,2.3813 1.5043,5.3727 1.1658,8.0674c-0.0934,0.7346 -1.5044,-0.2812 -2.0872,-0.6928c-1.3587,-1.0782 -3.2196,-1.9986 -3.6142,-3.6826c-0.2652,-1.1246 1.2605,-2.4138 2.0739,-2.7922z" fill="url(#color-48)"/><path d="M228.93229,210.36612c-0.2675,-0.4442 -0.0116,-1.5466 -0.0116,-1.5466l3.7165,-0.1219l3.2613,1.4944c0,0 0.026,1.093 -0.3426,1.3758c-0.9809,0.7552 -2.2531,2.0449 -3.5284,1.8106c-1.368,-0.2686 -2.2461,-1.8416 -3.0953,-3.0123z" fill="url(#color-49)"/></g><path d="M232.65379,216.12792c0.3699,0.3208 0.6178,0.7823 0.6554,1.309c0.0376,0.5265 -0.1422,1.0185 -0.4627,1.3886c-0.3208,0.3698 -0.7822,0.6177 -1.3087,0.6554c-0.5267,0.0376 -1.0187,-0.1422 -1.3889,-0.4627c-0.3698,-0.3208 -0.6174,-0.7823 -0.655,-1.3087c-0.0376,-0.5268 0.1418,-1.0187 0.4623,-1.3889c0.3208,-0.3698 0.7823,-0.6175 1.3091,-0.6551c0.5264,-0.0375 1.0184,0.1419 1.3885,0.4624z" fill="url(#color-50)" stroke-width="0.2957"/></g></g></g><g data-paper-data="{&quot;origRot&quot;:0,&quot;index&quot;:null}"><path d="M268.82839,177.62162c-18.3637,-3.784 -42.1437,-5.4131 -53.0764,-18.7274c-5.5315,-6.5054 9.9283,-17.5514 19.2831,-19.7434c11.3373,-2.5993 22.3415,5.7151 34.0832,7.8925c12.5861,2.3529 27.5458,-0.6274 37.8136,7.0352c6.6816,5.0019 11.5782,19.4705 4.8293,23.3624c-12.1998,7.8134 -29.0294,3.084 -42.9328,0.1806z" data-paper-data="{&quot;origPos&quot;:null}" fill="#000000" stroke="#000000" stroke-width="1.5" stroke-linecap="round"/><path d="M197.41339,116.26782c-3.0804,-14.6697 -4.619,-31.1541 1.1534,-44.9697c2.1403,-5.2141 13.1447,-6.2208 16.8514,-1.4403c7.8786,10.272 6.1775,25.3375 9.9984,37.5134c3.8792,14.1695 15.1118,27.2419 13.0473,41.6093c-1.184,8.1629 -13.9816,17.7193 -19.9382,12.7649c-13.295,-10.3856 -17.737,-29.1498 -21.1122,-45.4777z" data-paper-data="{&quot;origPos&quot;:null}" fill="#000000" stroke="#000000" stroke-width="1.5" stroke-linecap="round"/><g><g fill="#363a36" stroke="none" stroke-width="0.60163" stroke-linecap="round"><path d="M331.54319,152.60882c-2.401,-1.7805 -2.3719,-5.59 -0.0513,-7.2662c2.6992,-2.0519 7.6382,-1.134 11.3543,-1.1293c3.5916,0.0201 8.0086,-0.7427 10.7007,0.9744c2.35,1.4999 3.2325,5.0608 1.1617,6.7739c-2.5186,2.0816 -7.3444,1.7342 -11.1259,1.9351c-4.0569,0.0253 -9.2157,0.8077 -12.0396,-1.288z"/><path d="M331.47329,161.31612c-2.4009,-1.7806 -2.3718,-5.5901 -0.0512,-7.2663c2.6991,-2.0519 7.6382,-1.134 11.3543,-1.1293c3.5916,0.0201 8.0085,-0.7427 10.7006,0.9744c2.3501,1.4999 3.2326,5.0608 1.1618,6.7739c-2.5186,2.0817 -7.3444,1.7343 -11.1259,1.9351c-4.057,0.0253 -9.2157,0.8077 -12.0396,-1.288z"/><path d="M331.02969,170.93312c-2.4009,-1.7806 -2.3718,-5.5901 -0.0512,-7.2663c2.6991,-2.0519 7.6382,-1.134 11.3543,-1.1293c3.5916,0.0201 8.0085,-0.7426 10.7006,0.9745c2.3501,1.4998 3.2326,5.0607 1.1618,6.7738c-2.5186,2.0817 -7.3444,1.7343 -11.1259,1.9352c-4.057,0.0253 -9.2157,0.8076 -12.0396,-1.288z"/><path d="M331.88899,180.59672c-2.4009,-1.7806 -2.3719,-5.5901 -0.0512,-7.2663c2.6991,-2.0519 7.6382,-1.134 11.3543,-1.1293c3.5916,0.0201 8.0085,-0.7426 10.7006,0.9744c2.35,1.4999 3.2325,5.0608 1.1617,6.7739c-2.5185,2.0817 -7.3444,1.7343 -11.1258,1.9352c-4.057,0.0252 -9.2158,0.8076 -12.0397,-1.288z"/></g><g stroke-width="1.83172" stroke-linecap="round"><path d="M310.37609,155.99392c9.9364,-5.3093 10.0447,-7.0764 10.8476,-7.7796c3.2054,-2.8122 6.7315,-5.7718 10.8827,-6.7435c3.9252,-0.9135 11.0438,0.1384 11.8909,1.0755c0.6777,1.0999 -5.4948,2.5884 -8.3199,3.6925c-1.8421,0.7237 -3.6933,1.4479 -5.5581,2.1161c-1.9382,0.6945 -3.892,1.3657 -5.8596,1.9783c-1.0617,0.3298 -2.4293,1.4106 -3.2308,0.8512z" fill="none" stroke="#353937"/><path d="M300.10539,155.51492c2.8094,-0.0751 5.6569,0.1655 8.4362,-0.2883c2.0037,-0.3264 3.9642,-0.9741 5.8695,-1.6823c3.9503,-1.4685 7.5769,-3.9246 11.6884,-4.8447c4.9293,-1.0958 10.6931,-2.5762 15.821,-0.9851c2.1809,0.7643 1.7452,4.4035 2.4579,6.8803c0.9066,3.2022 1.3471,6.5539 1.6708,9.8709c0.4322,4.4126 2.3863,9.3837 0.4602,13.4682c-1.4181,2.9021 -5.7023,3.1879 -8.8965,4.1564c-1.8862,0.5743 -3.951,0.3306 -5.9203,0.2024c-2.0079,-0.133 -4.0541,-0.3416 -5.9606,-0.9818c-1.8858,-0.632 -3.4283,-2.0669 -5.2813,-2.7831c-1.922,-0.7435 -3.9275,-1.4126 -5.9806,-1.5737c-5.9073,-0.4618 -11.8661,-0.2612 -17.7908,-0.2811c-1.9739,-0.0065 -4.4411,1.3372 -5.9201,0.2022c-3.1866,-10.8621 -3.8256,-15.9492 -1.0042,-20.7103c1.9002,-2.7646 6.9029,-0.4106 10.3503,-0.65z" fill="#ffffff" stroke="#ffffff"/></g><path d="M323.60149,151.49252c0.1155,-0.2294 0.2194,-0.4356 0.2964,-0.5887c0.0753,-0.1497 0.1223,-0.2426 0.1223,-0.2426c0,0 -0.047,0.0929 -0.1223,0.2426c-0.077,0.1532 -0.1808,0.3593 -0.2964,0.5887c-0.1154,0.2294 -0.2193,0.4355 -0.2963,0.5887c-0.0753,0.1496 -0.1223,0.2426 -0.1223,0.2426c0,0 0.047,-0.0929 0.1223,-0.2426c0.077,-0.1532 0.1808,-0.3594 0.2963,-0.5887z" fill="#eac18d" stroke="none" stroke-width="1.15123" stroke-linecap="butt"/><path d="M332.31059,176.02902c-3.3507,-0.1351 -7.5863,-0.3427 -9.7358,-3.2507c-3.068,-4.2078 -5.0481,-10.1382 -3.8988,-15.2253c0.6975,-2.7719 5.2352,-2.7203 8.0764,-3.3475c3.4473,-0.757 7.3893,-1.7803 10.9325,-0.6808c1.507,0.528 1.2059,3.0427 1.6986,4.7542c0.6262,2.2129 0.9306,4.5286 1.1543,6.8207c0.2986,3.0492 1.961,6.6844 0.3181,9.3065c-1.4218,2.2009 -5.4351,2.033 -8.5454,1.6229z" fill="#000000" stroke="#000000" stroke-width="1.26571" stroke-linecap="round"/></g><path d="M286.00639,180.75552c-18.2053,-3.0543 -37.4067,-4.5257 -54.7768,-11.2261c-6.5644,-2.5378 -15.0852,-8.7702 -15.6434,-16.4042c0.1595,-6.0323 8.626,-11.3136 14.824,-11.7217c12.0708,-0.7864 22.9639,8.3228 35.0779,9.5069c12.3433,1.868 25.4738,-3.953 37.563,-0.4429c5.826,1.7042 8.754,9.4857 9.6152,15.4996c0.6706,4.7149 -0.8898,12.2438 -5.5205,14.5394c-6.2056,3.0753 -14.2008,1.4162 -21.1394,0.249z" fill="#ffffff" stroke="none" stroke-width="1.00573" stroke-linecap="round"/><path d="M196.91149,111.09812c-3.0469,-12.1755 -3.608,-25.9862 0.5455,-37.6862c1.9076,-5.3716 12.5492,-11.2939 15.7461,-6.7319c7.2052,10.2959 2.2693,25.1904 6.0681,37.3595c4.008,14.7477 17.1472,27.5245 17.215,42.9231c0.0313,7.4752 -10.9513,20.4831 -16.3993,15.689c-14.0071,-12.838 -18.6985,-33.6728 -23.1753,-51.5535z" fill="#ffffff" stroke="none" stroke-width="1.00573" stroke-linecap="round"/></g><g data-paper-data="{&quot;origRot&quot;:0,&quot;index&quot;:null}"><g data-paper-data="{&quot;origPos&quot;:null}"><path d="M252.78859,-8.30248c8.5372,1.0756 17.8536,2.9223 24.3512,8.552c5.0343,4.3578 7.0972,12.0786 6.224,18.579c-1.237,14.2657 -2.8378,30.3436 -12.2919,41.1552c-6.8963,7.8731 -20.3443,11.223 -30.2434,8.5356c-9.4435,-2.5651 -15.758,-12.7181 -19.9975,-21.5373c-5.377,-10.8933 -7.5299,-23.5298 -5.5925,-35.3548c0.5666,-7.5628 6.0175,-15.091 12.5888,-18.7324c7.3312,-4.0652 16.7386,-2.6216 24.9612,-1.1971z" fill="#ffd499" stroke="none" stroke-width="1" stroke-linecap="butt"/><path d="M275.47309,63.51242c0,0 -56.9293,-4.8425 -63.8212,-16.2684c-9.787,-15.7498 -7.9134,-45.2221 -7.9134,-45.2221c0,0 -0.7691,-26.3032 0.2395,-26.3217c0.9759,-0.0179 32.9623,4.0127 32.9623,4.0127c0,0 21.076,2.5422 36.2559,13.946c12.1207,9.1056 19.7487,31.3195 22.895,42.4119c3.1462,11.0924 5.4519,28.3125 5.4519,28.3125z" data-paper-data="{&quot;origPos&quot;:null}" fill="#ffffff" stroke="#000000" stroke-width="2" stroke-linecap="round"/><g fill="#ff0000" stroke="none" stroke-linecap="butt"><path d="M205.76349,-0.88918l42.5969,4.094l-1.1208,11.6615l-41.4153,-4.0124z" data-paper-data="{&quot;origPos&quot;:null}" stroke-width="1.05383"/><path d="M205.99309,13.45222l25.0348,2.4168l-0.2958,3.0773l-24.4439,-2.376z" data-paper-data="{&quot;origPos&quot;:null}" stroke-width="0.50239"/></g><path d="M294.56499,34.94352l0.7946,8.7398l-46.9078,-5.1621l-18.7198,-9.3183l-4.1556,-11.1879l6.6495,-9.659l14.9661,-2.6481l35.1465,3.378z" fill="#000000" stroke="#000000" stroke-width="2" stroke-linecap="round"/><path d="M233.74589,7.84832c4.7843,-2.1915 15.0673,-2.2723 15.86,-1.7449c0.7464,0.4999 -7.9449,2.7965 -11.8824,4.5791c-2.837,1.5581 -7.2938,6.1251 -8.3658,5.4075c-0.9918,-0.6675 1.6559,-6.7194 4.3883,-8.2417z" fill="#ffffff" stroke="none" stroke-width="1" stroke-linecap="round"/></g><path d="M222.95149,22.55702l-11.9919,7.2184l-1.1415,-8.8281z" data-paper-data="{&quot;origPos&quot;:null}" fill="#000000" stroke="none" stroke-width="1" stroke-linecap="round"/></g><path d="M214.72049,109.84193c0,0 -8.68979,-15.11544 -9.71025,-22.81538c-1.24852,-9.42052 3.89632,-21.05364 3.89632,-21.05364c0,0 12.43691,-1.76498 20.0219,0.45216c5.12276,1.49746 12.54014,9.06609 12.54014,9.06609l1.71121,31.96077z" data-paper-data="{&quot;origRot&quot;:0,&quot;index&quot;:null}" fill="#ffffff" stroke="none" stroke-width="0" stroke-linecap="butt"/><path d="M481.77079,218.91388c-53.08078,-4.86308 -94.69469,-46.70114 -92.94747,-93.44739c1.74736,-46.74667 46.19414,-80.69942 99.27495,-75.83634c53.08078,4.86308 94.69469,46.70114 92.94747,93.44739c-1.74736,46.74667 -46.19414,80.69942 -99.27495,75.83634z" data-paper-data="{&quot;origRot&quot;:0,&quot;index&quot;:null}" fill="url(#color-51)" stroke="none" stroke-width="NaN" stroke-linecap="butt"/><path d="M505.98752,148.02574c-16.39479,111.09971 -39.85598,194.42203 -52.40175,186.10677c-12.54582,-8.3158 -9.42559,-105.12057 6.96934,-216.22064c16.39479,-111.09971 39.85598,-194.42204 52.40175,-186.10679c12.54582,8.3158 9.42559,105.12058 -6.96934,216.22064z" data-paper-data="{&quot;origRot&quot;:0,&quot;index&quot;:null}" fill="url(#color-52)" stroke="none" stroke-width="NaN" stroke-linecap="butt"/><path d="M460.57911,130.31492c-18.66176,-112.12891 -23.58091,-210.32475 -10.98718,-219.32782c12.59375,-9.00247 37.93138,74.59697 56.59308,186.7256c18.66171,112.12885 23.58091,210.32475 10.98718,219.32782c-12.5937,9.00255 -37.93131,-74.59709 -56.59301,-186.7257z" data-paper-data="{&quot;origRot&quot;:0,&quot;index&quot;:null}" fill="url(#color-53)" stroke="none" stroke-width="NaN" stroke-linecap="butt"/></g></g></svg>