<svg version="1.1" xmlns="http://www.w3.org/2000/svg" xmlns:xlink="http://www.w3.org/1999/xlink" width="54.40946" height="57.84635" viewBox="0,0,54.40946,57.84635"><g transform="translate(-212.79527,-152.79528)"><g data-paper-data="{&quot;isPaintingLayer&quot;:true}" fill-rule="nonzero" stroke-linecap="butt" stroke-linejoin="miter" stroke-miterlimit="10" stroke-dasharray="" stroke-dashoffset="0" style="mix-blend-mode: normal"><path d="M213.79527,180c0,-14.47248 11.73225,-26.20472 26.20472,-26.20472c14.47248,0 26.20474,11.73225 26.20474,26.20472c0,14.47248 -11.73226,26.20474 -26.20473,26.20474c-14.47248,0 -26.20472,-11.73226 -26.20472,-26.20473z" fill="#000000" stroke="#ffffff" stroke-width="2"/><g><text transform="translate(237.05847,205.38113) scale(0.20782,0.20782)" font-size="40" xml:space="preserve" fill="#000000" fill-rule="nonzero" stroke="#000000" stroke-width="2" stroke-linecap="butt" stroke-linejoin="miter" stroke-miterlimit="10" stroke-dasharray="" stroke-dashoffset="0" font-family="Sans Serif" font-weight="normal" text-anchor="start" style="mix-blend-mode: normal"><tspan x="0" dy="0">HP+</tspan></text><g stroke="none"><path d="M229.45995,210.64163v-2.53284h5.65017v2.53284z" fill="#000000" stroke-width="0"/><g><g fill="none" stroke-width="1" font-family="sans-serif" font-weight="normal" font-size="12" text-anchor="start"/><g fill="#000000"><path d="M229.45995,207.13462v-8.45661h5.65017v8.45661z" stroke-width="NaN"/><path d="M226.53745,200.79217l5.65017,-8.45661l5.84501,8.45661z" stroke-width="0"/></g><g fill="#66ff98"><path d="M230.23929,205.37283v-8.45661h5.65018v8.45661z" stroke-width="NaN"/><path d="M227.31678,199.03038l5.65018,-8.45661l5.84501,8.45661z" stroke-width="0"/></g></g><path d="M230.23929,209.47263v-2.53284h5.65018v2.53284z" fill="#66ff98" stroke-width="0"/></g><text transform="translate(238.03263,204.76286) scale(0.20121,0.20121)" font-size="40" xml:space="preserve" fill="#66ff98" fill-rule="nonzero" stroke="#66ff98" stroke-width="1" stroke-linecap="butt" stroke-linejoin="miter" stroke-miterlimit="10" stroke-dasharray="" stroke-dashoffset="0" font-family="Sans Serif" font-weight="normal" text-anchor="start" style="mix-blend-mode: normal"><tspan x="0" dy="0">HP+</tspan></text></g><g fill="#ffffff" stroke="none" stroke-width="0.5"><path d="M234.18249,180.93224c-0.44481,0.15227 -0.69146,-0.28812 -0.69146,-0.28812l-0.12754,-0.58808c0.14331,-0.45973 0.35884,-0.80117 0.61844,-1.08966c-2.22089,1.3226 -4.43595,2.64896 -6.68507,3.93378c-0.0499,0.13022 -0.12779,0.21578 -0.12779,0.21578l-0.21478,0.19012c-0.27416,0.59715 -0.99333,1.16131 -1.15589,1.77018c-0.29905,1.12018 0.51669,2.71603 1.25393,3.48586c0.45527,0.48357 0.98741,1.39975 1.80485,1.25883c1.15425,-0.19898 2.71589,-1.55648 3.75302,-2.13734c2.06725,-1.15782 4.13448,-2.31563 6.20173,-3.47345c-0.02927,0.00554 -0.05872,0.01025 -0.08832,0.01411c-1.81961,0.23673 -3.60609,-1.79566 -4.54112,-3.29201zM242.0266,174.59921c1.32473,0.10297 2.89211,1.8484 3.49734,2.92315c0.18058,0.32068 0.71666,1.21325 0.64166,1.506c-0.07618,0.2973 -1.43589,1.21964 -1.73476,1.50118c-1.02083,0.868 -2.50029,1.2302 -3.4624,2.10983c-0.27043,0.24725 -0.57637,0.57923 -0.91689,0.8765c0.22962,-0.12861 0.45924,-0.2572 0.68886,-0.38581c3.37749,-1.89166 6.71573,-3.68126 9.80754,-6.00324c1.16156,-0.87234 2.82001,-2.17067 3.2149,-3.60932c0.10511,-1.84832 -2.3063,-4.07535 -4.25238,-3.40832c-2.7303,0.93583 -5.4872,2.95786 -8.0458,4.49846c0.19057,-0.0191 0.37819,-0.0227 0.56194,-0.00842zM225.36886,183.58529c-0.05742,-0.04694 -0.11196,-0.11106 -0.16026,-0.1973c-0.29378,-0.52452 0.23075,-0.81831 0.23075,-0.81831c4.90587,-2.74767 9.61787,-5.73129 14.53993,-8.48802c2.82146,-1.58024 6.04521,-4.14612 9.15262,-5.11375c2.94182,-0.91607 5.85879,1.97422 5.8194,4.73205c-0.51942,1.81395 -2.19917,3.27247 -3.67717,4.38517c-3.13399,2.35941 -6.52066,4.17542 -9.94617,6.09397c-2.88491,1.61578 -5.76982,3.23154 -8.65473,4.84732c-0.97771,0.54759 -2.46633,1.81389 -3.59039,1.97554c-1.36327,0.19604 -2.0969,-0.75723 -2.90574,-1.61541c-0.98045,-1.0545 -1.98524,-3.08528 -1.54763,-4.59199c0.15053,-0.51827 0.45289,-0.85236 0.73939,-1.20927z"/><path d="M231.49787,182.62179c-0.16225,-0.28969 -0.05894,-0.65606 0.23075,-0.81831c0.28969,-0.16225 0.65606,-0.05894 0.81831,0.23075c0.16225,0.28969 0.05894,0.65605 -0.23075,0.8183c-0.28969,0.16225 -0.65605,0.05894 -0.8183,-0.23075z"/><path d="M230.77944,185.9527c-0.16225,-0.28969 -0.05894,-0.65605 0.23075,-0.8183c0.28969,-0.16225 0.65606,-0.05894 0.81831,0.23075c0.16225,0.28969 0.05894,0.65606 -0.23075,0.81831c-0.28969,0.16225 -0.65606,0.05894 -0.81831,-0.23075z"/><path d="M227.63735,184.95625c-0.16225,-0.28969 -0.05894,-0.65606 0.23075,-0.81831c0.28969,-0.16225 0.65605,-0.05894 0.8183,0.23075c0.16225,0.28969 0.05894,0.65606 -0.23075,0.81831c-0.28969,0.16225 -0.65605,0.05894 -0.8183,-0.23075z"/><path d="M247.17097,176.77217c-0.16225,-0.28969 -0.05894,-0.65605 0.23075,-0.8183c0.28969,-0.16225 0.65606,-0.05894 0.81831,0.23075c0.16225,0.28969 0.05894,0.65605 -0.23075,0.8183c-0.28969,0.16225 -0.65606,0.05894 -0.81831,-0.23075z"/><path d="M247.81596,173.31012c-0.16225,-0.28969 -0.05894,-0.65605 0.23075,-0.8183c0.28969,-0.16225 0.65605,-0.05894 0.8183,0.23075c0.16225,0.28969 0.05894,0.65606 -0.23075,0.81831c-0.28969,0.16225 -0.65606,0.05894 -0.81831,-0.23075z"/><path d="M251.48258,174.0128c-0.16225,-0.28969 -0.05894,-0.65606 0.23075,-0.81831c0.28969,-0.16225 0.65605,-0.05894 0.8183,0.23075c0.16225,0.28969 0.05894,0.65606 -0.23075,0.81831c-0.28969,0.16225 -0.65605,0.05894 -0.8183,-0.23075z"/></g><path d="M237.21147,176.26381c-0.66379,0 -0.66379,-0.66379 -0.66379,-0.66379l0.01981,-0.65884c0.28552,-1.10333 0.51955,-2.26484 0.60723,-3.42783c-2.60639,1.23599 -5.3359,1.86502 -7.96375,3.18685c0,0 -0.39157,0.19578 -0.69771,-0.04864c-0.86824,0.46075 -1.81774,0.96912 -2.75182,1.28947c0.35651,0.20067 0.65693,0.46838 0.77889,0.73254c0.60529,1.31104 -0.78424,2.41127 -1.67229,3.07786c0.25215,0.24375 0.41573,0.69222 0.37116,1.00418c-0.02376,0.16628 -0.28656,0.38626 -0.5002,0.53228c0.28153,-0.04513 0.53502,0.21497 0.82114,0.35629l0.03504,-0.07008c0,0 0.66379,0 0.66379,0.66379c0,0.66379 -0.66379,0.66379 -0.66379,0.66379l-0.62875,-0.07008c-0.52525,-0.26652 -1.3472,-0.218 -1.59991,-0.75003c-0.57396,-1.20836 0.11141,-1.17788 0.58129,-1.66767l-0.46204,-0.23102c-0.22453,-0.10644 -0.3798,-0.33515 -0.3798,-0.60014c0,-0.26498 0.15527,-0.49371 0.3798,-0.60014l0.61093,-0.30547c0.36674,-0.27239 1.38086,-0.88302 1.21711,-1.49552c-0.15687,-0.58678 -1.30449,-0.10986 -1.74351,-0.5296c-0.03236,-0.03093 -0.0629,-0.06329 -0.09187,-0.09687l-0.01209,0.01209l-0.49784,-0.49784v0c-0.12012,-0.12012 -0.19442,-0.28607 -0.19442,-0.46937c0,-0.3666 0.29718,-0.66379 0.66379,-0.66379h0.66379c0.52507,0.00448 1.11222,-0.16083 1.7108,-0.405c-0.05133,-0.13831 -0.05133,-0.25878 -0.05133,-0.25878c0,-1.1031 0,-2.47889 0,-3.63302c-0.02317,-0.13711 -0.02071,-0.29693 0.01355,-0.48317c0.00431,-0.02343 0.01078,-0.04648 0.01926,-0.06913c0.04889,-0.16865 0.17063,-0.39009 0.47375,-0.44725c0.47525,-0.26141 1.16791,-0.42746 1.51558,-0.49787c2.40496,-0.48707 4.81782,-0.67769 7.27088,-0.67769c0,0 0.66258,0 0.66379,0.66198c0.64446,0.00332 1.22268,0.02799 1.82542,0.14791v-0.1461h0.66379c0.21069,0 0.39844,0.09815 0.52004,0.25122c0.3097,0.17921 0.3097,0.57851 0.3097,0.57851l-0.32227,0.73514c-0.06056,0.03634 -0.12123,0.07219 -0.18198,0.10757c-0.04606,1.51817 -0.32364,3.0083 -0.6772,4.46263l0.01981,0.33685c0,0 0,0.66379 -0.66379,0.66379zM228.78322,173.01496c0,0 0.42107,-0.21054 0.73131,0.07761c1.82322,-0.80551 3.67829,-1.35692 5.49261,-2.0775c-0.45055,0.05734 -0.90344,0.10184 -1.36539,0.09942c-1.86014,0.48035 -3.81013,0.37695 -5.7233,0.33687c-0.19067,-0.004 -0.50178,0.01603 -0.82973,-0.00201c0,0.82467 0,1.64934 0,2.474c0.60984,-0.32119 1.19338,-0.65758 1.69451,-0.90839zM229.97335,170.12436c1.14927,-0.00285 2.25129,-0.03687 3.39839,-0.30193c-1.13984,0.04339 -2.2685,0.13659 -3.39839,0.30193z" fill="#ffffff" stroke="none" stroke-width="0.5"/><path d="M235.62336,173.93094c0.34152,0.5692 -0.22768,0.91071 -0.22768,0.91071l-0.85183,0.51053c-1.3719,0.68668 -2.63252,1.48276 -4.00529,2.16914c0,0 -0.59371,0.29685 -0.89056,-0.29685c-0.29685,-0.59371 0.29685,-0.89056 0.29685,-0.89056c1.35689,-0.67845 2.60237,-1.46736 3.96016,-2.14548l0.80764,-0.48516c0,0 0.5692,-0.34152 0.91071,0.22768z" fill="#ffffff" stroke="none" stroke-width="0.5"/><path d="M227.42061,179.25086c0,-0.3666 0.29718,-0.66379 0.66379,-0.66379c0.3666,0 0.66379,0.29718 0.66379,0.66379c0,0.3666 -0.29718,0.66379 -0.66379,0.66379c-0.3666,0 -0.66379,-0.29718 -0.66379,-0.66379z" fill="#ffffff" stroke="none" stroke-width="0.5"/></g></g></svg>