<svg version="1.1" xmlns="http://www.w3.org/2000/svg" xmlns:xlink="http://www.w3.org/1999/xlink" width="220.80727" height="342.4437" viewBox="0,0,220.80727,342.4437"><g transform="translate(-118.56983,-39.69675)"><g data-paper-data="{&quot;isPaintingLayer&quot;:true}" fill-rule="nonzero" stroke-linejoin="miter" stroke-miterlimit="10" stroke-dasharray="" stroke-dashoffset="0" style="mix-blend-mode: normal"><path d="M290.09136,366.81391l-64.41387,-47.81737l16.61738,-22.38497l64.41387,47.81737z" fill="#4d87ff" stroke="#0046d1" stroke-width="1" stroke-linecap="butt"/><path d="M318.73581,342.61747c12.91981,8.86035 1.51879,18.974 -3.2896,25.45129c-4.8084,6.4773 -13.56746,9.08978 -18.60537,5.34991c-5.03787,-3.73984 -9.09982,-8.1083 -4.29142,-14.5856c4.8084,-6.4773 15.87953,-23.28399 26.18634,-16.21558z" fill="#c58d3b" stroke="#1c1100" stroke-width="1" stroke-linecap="butt"/><g stroke-width="1" stroke-linecap="butt"><path d="M163.66494,337.63661c0,0 29.89699,-1.92151 40.25708,-9.24049c8.97611,-6.34126 18.34891,-32.16227 18.34891,-32.16227l22.90625,11.29554c0,0 -9.17035,36.49048 -18.45876,43.69826c-13.46395,10.44798 -54.55638,12.96125 -54.55638,12.96125z" fill="#4d87ff" stroke="#0046d1"/><path d="M166.08182,373.87575c-14.73147,5.3302 -16.30054,-9.82917 -18.75925,-17.51231c-2.45871,-7.68316 0.52597,-16.32249 6.50177,-18.23482c5.97575,-1.91232 11.89318,-2.66525 14.35189,5.0179c2.45871,7.68316 9.65771,26.47702 -2.09438,30.72923z" data-paper-data="{&quot;index&quot;:null}" fill="#c58d3b" stroke="#1c1100"/></g><g><path d="M221.20187,182.41608v-10.66789h26.02963v10.66789z" fill="#ffd5a1" stroke="#525252" stroke-width="1" stroke-linecap="butt"/><path d="M246.08358,173.63764l0.19243,7.79307c0,0 -22.25675,0.35983 -22.25675,0.06415c0,-2.19628 -2.8905,-11.09631 -1.02625,-11.09631c4.1066,0.14509 23.09058,3.23909 23.09058,3.23909z" fill="#e7c091" stroke="none" stroke-width="0" stroke-linecap="butt"/><path d="M240,179.74943c-40.97542,0 -74.19254,-31.23994 -74.19254,-69.77634c0,-38.5364 33.21712,-69.77634 74.19254,-69.77634c40.97542,0 74.19254,31.23994 74.19254,69.77634c0,38.5364 -33.21712,69.77634 -74.19254,69.77634z" data-paper-data="{&quot;index&quot;:null}" fill="#e7c091" stroke="#525252" stroke-width="1" stroke-linecap="butt"/><path d="M312.12048,117.98427c-1.12296,22.42694 -11.54128,35.39733 -30.02352,48.15015c-12.65692,8.73332 -21.27182,10.82621 -36.59393,12.13076c-26.67467,2.27114 -56.86144,-26.16566 -64.96818,-51.44664c-7.62436,-23.77665 -8.46064,-35.85672 18.31004,-35.85672c0,0 9.36197,-3.65677 0.4968,4.68557c-3.68257,3.46541 22.50221,-5.23944 36.67608,-2.67342c0,0 6.35951,-1.15247 -2.01459,6.98099c-9.16109,8.89784 21.07022,-7.67243 31.13422,-5.06735c0,0 -9.99338,1.25979 -3.3039,9.91148c0,0 21.28918,-1.02537 27.76246,-2.75729c8.87616,-2.37481 20.38397,-11.75285 20.38397,-11.75285c0,0 3.0484,9.54369 3.25523,16.56312c0.11362,3.85657 -0.7856,4.55996 -1.11471,11.13219z" data-paper-data="{&quot;index&quot;:null}" fill="#ffd5a1" stroke="none" stroke-width="0" stroke-linecap="butt"/><path d="M239.79233,40.97907c17.77963,0 27.41351,2.88357 42.76462,11.85345c10.40372,6.07906 17.14604,11.22362 24.9892,20.37117c3.47283,4.05047 4.08763,12.07564 4.08763,12.07564c-1.01253,7.51114 -40.18828,15.92849 -40.18828,15.92849c-6.63075,-0.64445 21.14118,-21.76393 13.31651,-17.54986c-7.82464,4.21409 -39.02287,11.34492 -39.02287,11.34492c-11.32598,0.15428 28.25974,-22.67381 12.57475,-19.24278c-15.68503,3.43098 -49.6468,17.44692 -49.6468,17.44692c-9.54541,0 23.14019,-20.42984 13.59923,-20.72c-10.20602,-0.31041 -13.54382,2.96037 -23.36471,8.28717c-6.93477,3.76136 -30.176,19.92756 -30.176,12.03842c0,-14.25023 11.91548,-25.78121 22.67261,-35.12747c12.08808,-10.50263 32.38084,-16.70605 48.39419,-16.70605z" data-paper-data="{&quot;index&quot;:null}" fill="#ffef4d" stroke="#716a22" stroke-width="1" stroke-linecap="butt"/><path d="M265.69159,120.0111c0,12.03537 -2.10144,21.79195 -4.69365,21.79195c-2.59223,0 -4.69365,-9.7566 -4.69365,-21.79195c0,-12.03537 2.10144,-21.79195 4.69365,-21.79195c2.59223,0 4.69365,9.7566 4.69365,21.79195z" data-paper-data="{&quot;index&quot;:null}" fill="#000000" stroke="#1c1c1c" stroke-width="1" stroke-linecap="butt"/><path d="M279.42292,120.68166c0,12.03537 -2.10144,21.79197 -4.69367,21.79197c-2.59223,0 -4.69365,-9.7566 -4.69365,-21.79197c0,-12.03537 2.10139,-21.79195 4.69365,-21.79195c2.59223,0 4.69367,9.7566 4.69367,21.79195z" data-paper-data="{&quot;index&quot;:null}" fill="#000000" stroke="#1c1c1c" stroke-width="1" stroke-linecap="butt"/><path d="M287.58869,155.14307h-39.53984" fill="none" stroke="#000000" stroke-width="1" stroke-linecap="round"/></g><g data-paper-data="{&quot;index&quot;:null}" stroke-width="1" stroke-linecap="butt"><path d="M334.32323,265.35312c4.15303,2.22892 5.75802,7.31838 3.58482,11.36759c-2.1732,4.04921 -7.30167,5.52483 -11.45468,3.29592c-4.15301,-2.22891 -5.75801,-7.31836 -3.58481,-11.36757c2.17321,-4.04923 7.30165,-5.52485 11.45467,-3.29594z" data-paper-data="{&quot;origPos&quot;:null}" fill="#ffd4a0" stroke="#e7c091"/><path d="M323.67357,281.39389c0,0 -38.57992,-16.79584 -56.05712,-36.06323c-17.4772,-19.26739 -27.4438,-32.80242 -20.95752,-48.84c6.48628,-16.03758 20.26293,-7.32164 20.26293,-7.32164c0,0 10.00489,29.22984 20.83855,41.23479c11.28047,12.50007 45.55804,32.34035 45.55804,32.34035z" data-paper-data="{&quot;origRot&quot;:0,&quot;origPos&quot;:null}" fill="#e80000" stroke="#740000"/></g><path d="M201.01849,309.49043v-126.61524h69.80692v126.61528z" fill="#e80000" stroke="#740000" stroke-width="1" stroke-linecap="butt"/><g data-paper-data="{&quot;index&quot;:null}" stroke-width="1" stroke-linecap="butt"><path d="M134.47504,270.7517c-2.5294,3.97718 -7.72344,5.2021 -11.60119,2.73594c-3.87775,-2.46616 -4.97079,-7.68956 -2.4414,-11.66672c2.52938,-3.97716 7.72342,-5.2021 11.60117,-2.73593c3.87777,2.46618 4.97081,7.68955 2.44142,11.66671z" data-paper-data="{&quot;origPos&quot;:null}" fill="#ffd4a0" stroke="#e7c091"/><path d="M119.26414,258.94704c0,0 19.5978,-37.23488 40.10271,-53.24218c20.50491,-16.0073 34.73871,-24.94761 50.25375,-17.29521c15.51504,7.6524 5.80595,20.74809 5.80595,20.74809c0,0 -29.88861,7.81999 -42.6605,17.73795c-13.29864,10.327 -35.61499,43.04654 -35.61499,43.04654z" data-paper-data="{&quot;origRot&quot;:0,&quot;origPos&quot;:null}" fill="#e80000" stroke="#740000"/></g><path d="M167.28917,382.14045z" fill="#c58d3b" stroke="#784800" stroke-width="1" stroke-linecap="butt"/><path d="M207.76712,203.27639v-19.42735h8.53431v19.42735z" fill="#e80000" stroke="none" stroke-width="0" stroke-linecap="butt"/></g></g></svg>