<svg version="1.1" xmlns="http://www.w3.org/2000/svg" xmlns:xlink="http://www.w3.org/1999/xlink" width="304.21874" height="339.73024" viewBox="0,0,304.21874,339.73024"><g transform="translate(-84.93883,-17.77693)"><g data-paper-data="{&quot;isPaintingLayer&quot;:true}" fill-rule="nonzero" stroke="none" stroke-linecap="round" stroke-miterlimit="10" stroke-dasharray="" stroke-dashoffset="0" style="mix-blend-mode: normal"><path d="M222.19962,151.30137c0,0 17.0344,25.53001 38.16504,43.49763c13.42587,11.41617 32.45541,17.84129 37.12327,18.95498c17.23538,4.11213 37.24476,4.6016 37.24476,4.6016c0,0 -18.75412,3.48473 -36.55352,0.67225c-5.61514,-0.88725 -20.57063,-6.33878 -33.09286,-15.44758c-15.11784,-10.99687 -27.98965,-26.47131 -33.58659,-34.53739c-6.58757,-9.49373 -9.3001,-17.7415 -9.3001,-17.7415z" data-paper-data="{&quot;index&quot;:null}" fill="#000000" stroke-width="9.375" stroke-linejoin="round"/><path d="M221.23078,272.68563c-0.62761,0.01886 -1.58887,-7.36095 -2.50102,-19.56719c-0.55933,-7.47574 -1.24612,-18.25831 -1.40384,-29.13259c-0.11674,-9.41906 -0.07446,-19.70735 0.21235,-30.54846c0.41234,-15.5895 1.2601,-29.64184 2.35273,-41.99897c0.05463,0.10374 0.10699,0.20227 0.15707,0.29104c0.02212,0.03903 0.0452,0.07284 0.05918,0.10113c0.02439,0.04943 0.0387,0.09723 0.05301,0.14341c0.02731,0.08877 0.04682,0.16943 0.05983,0.23999v0c-0.0013,-0.02016 -0.10016,-0.10992 -0.26633,-0.28617c-0.61785,-0.63119 -1.29262,-1.26595 -1.95828,-1.89682c-2.56833,-2.43371 -5.01959,-4.70092 -7.28225,-6.82017c-10.77412,-10.09123 -17.27365,-16.56734 -16.77904,-17.12406c0.41592,-0.46795 7.72353,5.0661 19.09015,14.48809c2.32541,1.92772 5.01927,4.17541 7.66565,6.47253c0.68842,0.59672 1.42595,1.23571 2.15534,1.92219c0.13886,0.12162 0.35478,0.32779 0.62339,0.64062v0c0.04325,0.10861 0.09203,0.22698 0.14504,0.35706c0.02699,0.06699 0.05723,0.13723 0.07999,0.21105c0.01366,0.0426 0.01918,0.08162 0.02699,0.11837c0.01789,0.0852 0.04,0.1691 0.06472,0.2582c-0.59477,12.69598 -1.08482,26.35257 -1.42172,42.48253c-0.23121,11.01931 -0.35414,21.47768 -0.44486,31.04242c-0.11349,9.45581 0.06471,22.78785 0.08325,28.983c0.03642,12.19844 -0.14699,19.60492 -0.77134,19.6228z" data-paper-data="{&quot;index&quot;:null}" fill="#000000" stroke-width="9.375" stroke-linejoin="round"/><path d="M219.04931,150.934c0,0 -30.14179,-5.7814 -57.77088,-3.33754c-17.55483,1.55277 -35.48664,10.60018 -39.55585,13.14395c-15.02495,9.39248 -29.4159,23.30347 -29.4159,23.30347c0,0 10.67885,-15.80578 25.17376,-26.51213c4.57268,-3.37751 18.95182,-10.20586 34.22873,-12.73417c18.44351,-3.05237 38.50057,-1.36241 48.17461,0.31102c11.38629,1.96963 19.16553,5.8254 19.16553,5.8254z" data-paper-data="{&quot;index&quot;:null}" fill="#000000" stroke-width="9.375" stroke-linejoin="round"/><path d="M159.67466,325.80601c-3.6119,-1.80681 -7.15059,-3.62548 -10.61441,-5.45121c-13.36913,-7.04524 -25.09477,-13.79573 -35.62594,-20.44362v0c-5.66042,-3.57135 -10.44034,-6.7516 -14.9299,-10.24687c-1.7444,-1.35538 -3.34909,-2.68444 -4.82099,-4.18087c-0.54397,-0.55002 -1.07378,-1.13954 -1.55475,-1.80156c0.17676,-0.55743 0.32756,-1.25555 0.57245,-2.09932c0.67715,1.3206 1.02591,2.63248 1.06962,3.8488c-0.46044,1.46119 -1.15152,2.74675 -1.75715,3.8105c-4.31309,7.65097 -6.65275,12.13407 -6.97376,12.01842c-0.52941,-0.1907 1.01888,-5.03755 4.7264,-13.1058c0.49176,-1.08565 1.0277,-2.27243 1.27847,-3.40736c0.6703,-1.06426 1.1917,-2.22146 1.60037,-3.43878c0.52545,0.08881 1.24324,0.23289 2.02572,0.47405c0.37298,0.45836 0.82549,0.89753 1.33666,1.36627c1.39123,1.26984 2.93691,2.41102 4.69976,3.65884c4.54843,3.21129 9.26726,6.0906 15.03131,9.49697v0c10.71847,6.32905 22.30481,12.73281 35.71491,19.70427c3.44886,1.79313 6.96512,3.58679 10.55004,5.38041c25.59894,12.8072 60.02638,-53.83151 60.02638,-53.83151c0,0 -29.94241,75.42193 -62.35517,58.24837z" data-paper-data="{&quot;index&quot;:null}" fill="#000000" stroke-width="9.375" stroke-linejoin="round"/><path d="M219.38852,270.45105c0.22907,-0.57911 11.26373,2.63317 28.53963,9.37766c17.52753,6.84261 40.46681,16.95845 65.43771,30.7128c3.79876,2.09283 7.51133,4.1955 11.13663,6.30473c12.91503,7.51202 24.18822,14.636 34.30588,21.63267v0c5.42149,3.74692 9.98739,7.06693 14.25206,10.70774c1.63501,1.39207 3.14014,2.75804 4.50057,4.29703c0.495,0.55613 0.97686,1.15706 1.40381,1.83655c-0.2227,0.51775 -0.43491,1.20429 -0.76692,2.04882c-0.56297,-1.2639 -0.6439,-2.26052 -0.63503,-2.94851c0.7449,-1.32361 1.6472,-2.50617 2.38944,-3.48813c5.63776,-7.50055 8.78742,-11.92088 9.14836,-11.72105c0.46511,0.25754 -1.92601,5.15245 -6.99036,13.14386c-0.66315,1.0531 -1.42979,2.21975 -1.95156,3.33993c-0.7403,0.74673 -1.51708,1.38906 -1.94339,1.81201c-0.4921,-0.05962 -1.17686,-0.20825 -1.91911,-0.48066c-0.3148,-0.4469 -0.71745,-0.88117 -1.17774,-1.35214c-1.27652,-1.29715 -2.72261,-2.46719 -4.37901,-3.75499c-4.32843,-3.35538 -8.8416,-6.37187 -14.37303,-9.95833v0c-10.32036,-6.68668 -21.46283,-13.45257 -34.42955,-20.89017c-3.61011,-2.07062 -7.29825,-4.14505 -11.06833,-6.22187c-24.90671,-13.71977 -47.14717,-24.10287 -64.36552,-31.81009c-16.81813,-7.52749 -27.38852,-11.8943 -27.11454,-12.58787z" data-paper-data="{&quot;index&quot;:null}" fill="#000000" stroke-width="9.375" stroke-linejoin="round"/><g><path d="M207.03562,136.52203c-19.44008,-3.52917 -48.8069,-25.01653 -43.20584,-56.26365c4.87261,-1.8654 18.24104,-1.38611 24.59277,5.62015c1.06821,-35.45304 31.63515,-71.47945 81.12712,-67.84824c2.50918,37.22408 40.19726,35.02619 54.0099,24.97279c6.37361,16.81224 -11.54745,48.28495 -31.83539,48.22352" data-paper-data="{&quot;index&quot;:null}" fill="#000000" stroke-width="9.375" stroke-linejoin="round"/><path d="M304.6852,108.09155c-0.74686,29.05445 -24.51262,52.18892 -53.57263,51.6614c-29.05929,-0.52787 -52.18857,-24.51258 -51.66104,-53.57227c0.52785,-29.05932 24.57437,-49.69778 53.57191,-51.6614c29.89607,-2.02436 52.42735,23.78621 51.66176,53.57227z" data-paper-data="{&quot;index&quot;:null}" fill="#f2f2f2" stroke-width="9.0943" stroke-linejoin="round"/><path d="M214.87066,70.71649c36.74374,-34.8863 88.61095,-15.38099 89.75623,37.29903c-0.56257,21.86738 -14.16456,40.37947 -33.24859,47.97609c-41.20057,11.71544 -86.66294,-31.26829 -56.50764,-85.27508z" data-paper-data="{&quot;index&quot;:null}" fill="#ffffff" stroke-width="9.09417" stroke-linejoin="round"/><path d="M293.91157,74.51394c-0.31475,0.19472 -3.54998,-6.41107 -13.55304,-12.56811v0c-4.19099,-2.58482 -9.60569,-4.86565 -16.14033,-5.92589c-5.29116,-0.85895 -11.19,-0.89785 -17.45497,0.18496c-5.55216,0.96135 -11.31805,2.80039 -16.94549,5.67882c-5.11865,2.62092 -10.12385,6.10914 -14.51925,10.5219c-4.09762,4.11428 -7.68581,9.06497 -10.21476,14.67715c-2.51162,5.56081 -3.96853,11.79592 -4.12784,18.23617c-0.18497,7.08714 1.20531,14.35581 3.80057,21.41934c2.58066,7.07049 7.62122,13.3379 13.91432,18.25457c0.28077,0.21934 0.56466,0.43555 0.85099,0.64898c6.51104,4.85908 14.03266,8.14566 21.6921,9.94928c8.57185,2.00456 17.30366,2.13365 25.35456,0.29117c8.79603,-2.00563 16.63212,-6.45133 22.45009,-12.35469v0c6.20839,-6.27124 10.10404,-14.16632 12.00242,-21.87086c2.16179,-8.7707 1.94036,-17.48031 0.59035,-24.98911c-1.68945,-9.3402 -5.05827,-16.88996 -8.79428,-22.63297c-3.91682,-6.00329 -7.98811,-9.68516 -11.06679,-11.96356c-3.0353,-2.24682 -4.90731,-3.12418 -4.82644,-3.31054c0.05486,-0.12425 2.11148,0.32067 5.47649,2.33427c3.36986,2.01604 7.93185,5.60871 12.26758,11.67378c4.15456,5.79507 7.98462,13.57769 10.01315,23.29999c1.64191,7.82877 2.08718,17.00725 -0.03678,26.44046c-1.87545,8.32542 -5.95087,16.91045 -12.66564,23.90283v0c-6.31667,6.54922 -14.80037,11.49955 -24.41334,13.7651c-8.75194,2.05661 -18.1713,1.99035 -27.3848,-0.14506c-8.23174,-1.89663 -16.32946,-5.42719 -23.40968,-10.69959c-0.31095,-0.23182 -0.61948,-0.46642 -0.92558,-0.70416c-6.89453,-5.33418 -12.41784,-12.30748 -15.36674,-20.3216c-2.75593,-7.53482 -4.19135,-15.37995 -3.9536,-23.11398c0.22454,-7.04028 1.87965,-13.82548 4.68833,-19.88292c2.83508,-6.09874 6.77828,-11.40342 11.25663,-15.76585c4.79694,-4.67305 10.19603,-8.30526 15.68777,-10.98452c6.03278,-2.94438 12.18462,-4.75528 18.08138,-5.62743c6.65402,-0.98597 12.90475,-0.75415 18.4732,0.33907c6.88553,1.35178 12.51156,4.0147 16.77302,6.95076v0c10.53543,7.2697 12.12112,14.48142 12.42653,14.29229z" data-paper-data="{&quot;index&quot;:null}" fill="#000000" stroke-width="9.375" stroke-linejoin="round"/><path d="M261.72522,93.43141c1.36807,0.02461 2.42414,3.00961 2.35787,6.66303c-0.0663,3.65309 -1.23031,6.5978 -2.59838,6.57282c-1.36738,-0.02461 -2.42346,-3.00961 -2.35719,-6.66303c0.0663,-3.65309 1.22996,-6.5978 2.5977,-6.57283z" data-paper-data="{&quot;index&quot;:null}" fill="#000000" stroke-width="9.375" stroke-linejoin="round"/><path d="M288.07609,99.58521c0.0663,-3.65342 1.23031,-6.59812 2.59769,-6.57315c1.36807,0.02497 2.42451,3.00997 2.35788,6.66303c-0.06627,3.65306 -1.22996,6.59779 -2.59803,6.57314c-1.36738,-0.02497 -2.42379,-3.00997 -2.35752,-6.66303z" data-paper-data="{&quot;index&quot;:null}" fill="#000000" stroke-width="9.375" stroke-linejoin="round"/><path d="M258.45428,134.09405c-3.22066,0.63789 -5.17559,1.4 -5.35987,1.03039c-0.14611,-0.29221 1.51937,-1.69537 4.84553,-2.87915c3.38062,-1.20323 8.11509,-2.00455 13.58394,-1.24209c0.0531,0.00692 0.10653,0.01421 0.15963,0.02185c5.54101,0.784 9.87673,2.97911 12.74512,5.21897c2.81876,2.20168 3.89809,4.13027 3.66314,4.35134c-0.27417,0.25856 -1.87825,-1.12999 -4.73759,-2.75697c-2.96314,-1.68632 -6.95668,-3.36778 -12.05832,-4.11187c-0.04894,-0.00692 -0.09752,-0.01421 -0.1461,-0.02081c-5.06486,-0.69792 -9.3683,-0.27105 -12.69549,0.38834z" data-paper-data="{&quot;index&quot;:null}" fill="#000000" stroke-width="9.375" stroke-linejoin="round"/><path d="M259.7272,92.77128c-5.06659,-1.9761 -8.93934,-4.29163 -8.60235,-5.29773c0.36477,-1.08002 4.89238,-0.43485 10.05305,1.57215c5.11485,1.99347 8.91681,4.45755 8.5472,5.45288c-0.40015,1.06996 -4.88613,0.26272 -9.99786,-1.72727z" data-paper-data="{&quot;index&quot;:null}" fill="#000000" stroke-width="2.56181" stroke-linejoin="miter"/><path d="M301.56709,87.61814c0.30021,1.01757 -3.65375,3.19117 -8.78908,4.98194c-5.18079,1.8033 -9.6928,2.44707 -10.05373,1.36322c-0.33316,-1.00818 3.55518,-3.33272 8.73945,-5.13914c5.2297,-1.81819 9.77817,-2.29885 10.10335,-1.20599z" data-paper-data="{&quot;index&quot;:null}" fill="#000000" stroke-width="2.56181" stroke-linejoin="miter"/></g></g></g></svg>