<svg version="1.1" xmlns="http://www.w3.org/2000/svg" xmlns:xlink="http://www.w3.org/1999/xlink" width="297.73067" height="417.04933" viewBox="0,0,297.73067,417.04933"><g transform="translate(-70.25669,-6.31271)"><g data-paper-data="{&quot;isPaintingLayer&quot;:true}" fill-rule="nonzero" stroke-linejoin="miter" stroke-miterlimit="10" stroke-dasharray="" stroke-dashoffset="0" style="mix-blend-mode: normal"><path d="M186.54965,420.86205v-134h43c0,0 -1.56425,46.49712 -0.00525,76.8977c0.78258,15.26018 6.00525,40.1023 6.00525,40.1023l5,17z" data-paper-data="{&quot;origPos&quot;:null,&quot;index&quot;:null}" fill="#616161" stroke="#000000" stroke-width="5" stroke-linecap="butt"/><g data-paper-data="{&quot;origPos&quot;:null,&quot;origRot&quot;:0}" stroke="#000000" stroke-width="5" stroke-linecap="round"><path d="M345.73192,154.36319c2.80673,-0.51414 5.34735,-1.46555 7.48949,-2.0541c1.83374,-0.50445 3.93541,-0.3027 5.69672,0.41528c1.69242,0.68988 3.01502,2.15999 4.14849,3.59387c1.09461,1.38576 2.26685,2.95959 2.42074,4.71849c0.31141,3.56221 -0.02172,7.2673 -1.07519,10.68444c-0.58527,1.89752 -2.27763,3.28414 -3.66711,4.70267c-1.23452,1.2604 -2.61223,2.43055 -4.15618,3.28457c-1.45677,0.80607 -3.51883,2.50728 -4.72682,1.63025c-1.2615,-0.91574 -0.05094,-3.48481 -0.21215,-5.21589c-0.52087,-5.61075 -0.72178,-11.297 -1.8346,-16.82103c-0.27846,-1.38061 -2.85097,-2.22084 -2.24955,-3.45531z" data-paper-data="{&quot;origPos&quot;:null,&quot;index&quot;:null}" id="ID0.8610531273297966" fill="#e1ba87"/><path d="M244.95941,161.92939c2.45296,-2.26084 6.62468,-0.50859 10.03468,-0.55247c6.37514,0.03941 12.82104,0.68816 19.31241,0.53133c6.89002,-0.17657 14.11291,-0.89276 20.48635,-1.67597c8.09523,-0.95647 16.13175,-2.56259 24.20751,-3.77416c7.92317,-1.17152 17.55962,-3.36931 26.26066,-3.58826c2.20483,-0.04925 3.68472,0.33539 3.92042,2.42504c0.94316,8.36047 4.1358,17.9582 -0.74906,24.40668c-4.71371,6.76793 -15.07748,6.87778 -22.99725,8.29168c-8.48776,1.50955 -17.25,1.55085 -25.86627,1.24964c-9.53346,-0.32929 -19.47032,-0.60985 -28.97565,-2.46573c-6.95932,-1.35816 -13.38603,-3.85083 -19.32569,-7.10779c-3.4835,-1.98602 -7.23253,-4.70089 -8.37994,-8.30827c-0.95852,-3.05168 -0.47216,-7.04027 2.07183,-9.43168z" data-paper-data="{&quot;origPos&quot;:null,&quot;index&quot;:null}" id="ID0.4585498459637165" fill="#cc7700"/></g><path d="M342.62597,338.45442l-125.82415,-46.08997l14.79006,-40.3764c0,0 43.12211,17.46174 72.20408,26.45427c14.59828,4.51398 39.72104,8.15453 39.72104,8.15453l17.68254,1.15231z" data-paper-data="{&quot;origPos&quot;:null,&quot;index&quot;:null,&quot;origRot&quot;:0}" fill="#353535" stroke="#000000" stroke-width="5" stroke-linecap="butt"/><path d="M263.04965,286.00001c-0.782,3.383 1.025,0.996 -5.5,1c-26.099,0.014 -51.71,0.549 -77.5,0c-6.456,-0.141 -6.136,7.9 -6.5,-0.5c-1.458,-33.601 0.11,-68.09 2.5,-102c0.938,-13.476 3.134,-26.295 7.4,-38.5c1.082,-3.305 2.823,-4.738 7.6,-5c19.107,-1.048 38.393,-1.237 57.5,0c4.777,0.309 10.441,0.527 12,4.5c4.279,10.904 3.004,23.297 3.5,35c0.842,20.069 0.637,42.026 0.25,63c-0.253,13.939 0.676,28.434 -1.25,42.5z" data-paper-data="{&quot;origPos&quot;:null,&quot;index&quot;:null}" id="ID0.6861933465115726" fill="#ff9400" stroke="#000000" stroke-width="5" stroke-linecap="round"/><g data-paper-data="{&quot;origPos&quot;:null,&quot;origRot&quot;:0}" stroke-width="5" stroke-linecap="round"><path d="M194.37817,150.63804c-2.52926,2.17522 -6.6383,0.28059 -10.04774,0.20719c-6.37005,-0.25848 -12.78982,-1.12842 -19.2827,-1.19478c-6.89205,-0.06041 -14.13528,0.40713 -20.53187,0.97077c-8.12338,0.67767 -16.21034,2.00668 -24.32297,2.93991c-7.95869,0.8985 -17.66501,2.76371 -26.36852,2.68352c-2.20513,-0.02659 -3.67095,-0.46184 -3.8347,-2.55833c-0.65526,-8.38798 -3.51612,-18.08978 1.58757,-24.36657c4.94351,-6.6019 15.30496,-6.35547 23.2686,-7.49632c8.53465,-1.21692 17.29312,-0.95703 25.89393,-0.35978c9.51657,0.65679 19.4379,1.27876 28.87385,3.46024c6.9085,1.59654 13.24574,4.30869 19.0699,7.76781c3.41321,2.10463 7.06666,4.94677 8.08938,8.59138c0.8531,3.08291 0.22992,7.05237 -2.39474,9.35496z" data-paper-data="{&quot;origPos&quot;:null,&quot;index&quot;:null,&quot;origRot&quot;:0}" id="ID0.4585498459637165" fill="#ff9400" stroke="#000000"/><path d="M94.25116,130.60822c0,0 12.38809,-2.96193 18.68272,-3.7691c7.28088,-0.93947 15.30478,-2.53181 22.9418,-1.86643c14.40856,1.26214 29.20251,3.71263 43.31647,8.3626c5.09819,1.44468 13.24525,9.57984 13.24525,9.57984" data-paper-data="{&quot;origPos&quot;:null,&quot;index&quot;:null,&quot;origRot&quot;:0}" id="ID0.497054744977504" fill="none" stroke="#cc7700"/><path d="M90.64805,154.96658c-2.85209,-0.08739 -5.53598,0.30853 -7.754,0.43358c-1.89881,0.10762 -3.91104,-0.53153 -5.48206,-1.60376c-1.50953,-1.03031 -2.49348,-2.74564 -3.30011,-4.38568c-0.77882,-1.585 -1.59392,-3.37009 -1.37456,-5.12207c0.44447,-3.54797 1.54919,-7.1002 3.29752,-10.21953c0.97117,-1.73205 2.91727,-2.7318 4.57388,-3.8265c1.47192,-0.97265 3.06492,-1.82698 4.75387,-2.33734c1.59372,-0.48172 3.9673,-1.71143 4.96387,-0.59998c1.04077,1.16049 -0.68283,3.41763 -0.88918,5.14387c-0.67048,5.59489 -1.66956,11.19624 -1.74296,16.83076c-0.01814,1.40835 2.32023,2.7706 1.47276,3.8511z" data-paper-data="{&quot;origPos&quot;:null,&quot;index&quot;:null,&quot;origRot&quot;:0}" id="ID0.8610531273297966" fill="#ffd499" stroke="#000000"/></g><path d="M205.10054,143.66668c1.927,2.599 0.05,6.6 -0.4,9.5c-0.376,2.469 -0.924,5.259 -2.418,7.069c-1.493,1.81 -3.556,2.931 -5.832,2.931c-2.276,0 -4.339,-1.121 -5.832,-2.931c-1.494,-1.81 -6.214,-5.22167 -6.418,-7.73567c-0.22,-2.68 -0.17133,-6.47433 1.56667,-8.83334c1.625,-1.718 8.22333,-0.258 10.68333,-0.5c2.859,-0.282 6.774,-1.511 8.65,0.5z" data-paper-data="{&quot;origPos&quot;:null,&quot;index&quot;:null}" id="ID0.6992864599451423" fill="#ff9400" stroke="none" stroke-width="1" stroke-linecap="round"/><path d="M285.2308,54.16597c8.82865,11.69957 13.19955,26.76213 11.01187,42.4049c-2.18768,15.64276 -10.52312,28.92832 -22.22269,37.75697c-11.69957,8.82865 -26.76213,13.19955 -42.4049,11.01187c-15.64276,-2.18768 -28.92832,-10.52312 -37.75697,-22.22269c-8.82865,-11.69957 -13.19955,-26.76213 -11.01187,-42.4049c2.18768,-15.64276 10.52312,-28.92832 22.22269,-37.75697c11.69957,-8.82865 26.76213,-13.19955 42.4049,-11.01187c15.64276,2.18768 28.92832,10.52312 37.75697,22.22269z" data-paper-data="{&quot;origPos&quot;:null}" id="ID0.9676602841354907" fill="#ffd499" stroke="#000000" stroke-width="6" stroke-linecap="round"/><path d="M209.92185,68.54897c13.49186,3.52465 26.56573,1.0203 39.47415,3.79997c15.08643,3.24885 30.34189,7.61387 44.48324,14.0465c3.52898,1.6103 -4.07169,2.3497 -6.2486,3.16505c-2.65836,0.9439 -6.41763,2.62644 -9.61099,1.93751c-7.6926,-1.6645 -15.00717,-7.02123 -22.97228,-9.01869c-3.06152,-0.53418 0.79953,2.75933 -2.85679,2.37723c-14.62612,-1.52952 -29.53304,-9.03655 -44.64074,-7.50527c-5.47328,0.6825 -8.76999,7.82978 -10.46101,13.43055c-2.0396,6.9091 -0.60948,14.8487 1.26582,21.63383c1.98921,7.19082 11.31962,19.75017 10.347,19.87466c-0.97262,0.12449 -14.59879,-10.54059 -17.87338,-18.40291c-4.75945,-11.10019 -5.92456,-23.94537 -5.09059,-35.80012c0.33773,-4.74697 4.77455,-8.25628 8.08091,-11.7904c2.40974,-2.57405 5.83776,-5.95282 8.98017,-5.51335c3.14242,0.43947 3.61499,6.85072 7.12311,7.76543z" data-paper-data="{&quot;origPos&quot;:null}" id="ID0.34282135451212525" fill="#e1ba87" stroke="none" stroke-width="1" stroke-linecap="round"/><path d="M181.46458,79.76159c-3.11967,-7.64881 0.15487,-18.57256 2.57092,-27.40808c2.29897,-8.3955 5.83995,-16.39415 10.82107,-23.22508c1.39714,-1.76652 1.87537,4.64754 4.11037,3.09917c8.95379,-6.21274 14.95743,-17.11327 23.83428,-22.41489c2.25596,-1.3445 -1.97606,6.72916 0.51601,7.14029c9.94871,1.61854 20.56355,-3.61975 30.25966,-1.57408c12.12982,2.56374 24.37564,6.14637 34.33723,14.39459c11.43987,9.54042 20.30452,22.56374 26.23445,36.2328c1.48199,3.4172 -8.14432,-1.66911 -9.01193,1.26399c-2.10772,7.11464 6.19226,19.85805 0.91435,22.34198c-6.33402,2.92389 -16.15673,-10.26673 -25.31489,-12.12307c-2.32424,-0.47045 0.86214,7.59663 -1.95989,6.79403c-11.11305,-2.96781 -19.68828,-12.89116 -30.87618,-15.67759c-2.79754,-0.69618 0.82872,7.38799 -1.81618,7.57143c-8.03238,0.85169 -15.80067,-3.17405 -23.77389,-5.09186c-4.57611,-1.09739 -8.70199,-4.37443 -13.58806,-3.91978c-5.61833,0.55721 -9.72008,4.94135 -15.39382,7.18716c-4.0046,1.64621 -10.33774,8.75859 -11.86351,5.40898z" data-paper-data="{&quot;origPos&quot;:null}" id="ID0.4199218852445483" fill="#8a541e" stroke="#000000" stroke-width="7" stroke-linecap="round"/><path d="M184.27633,74.09643c0,0 2.80536,-15.32313 4.95336,-22.78353c1.49888,-5.20153 2.9404,-10.57769 5.8953,-15.07881c1.0935,-1.19102 1.80155,1.33438 2.97109,0.41551c5.72153,-3.78603 10.44976,-8.51271 15.44745,-12.98562c1.86303,-1.6539 2.74912,-4.98629 5.07469,-5.60112c1.42993,-0.28267 0.24826,2.3258 1.10466,2.93125c1.67512,0.9532 1.66772,1.41765 4.10516,1.33141c9.75385,-0.34538 19.16013,-3.9382 28.63041,-2.55923c9.96915,1.45075 19.46459,5.41512 28.10243,10.24101c6.81322,4.01031 12.25619,9.98477 17.47687,15.82313c4.05195,4.53492 7.14915,10.22171 9.91065,15.77471c0.69154,1.38715 -1.00395,0.96222 -1.6933,1.27779c-1.82712,1.36105 -5.5177,1.44773 -5.82267,3.72948c-0.8244,6.17635 2.74095,18.30607 2.74095,18.30607" data-paper-data="{&quot;origPos&quot;:null}" id="ID0.6959539707750082" fill="none" stroke="#663b00" stroke-width="4" stroke-linecap="round"/><path d="M288.11544,100.60066c0.67467,0.89406 1.00842,2.04538 0.84125,3.24075c-0.16717,1.19537 -0.80398,2.21096 -1.69804,2.88563c-0.89406,0.67467 -2.04538,1.00842 -3.24075,0.84125c-1.19537,-0.16717 -2.21096,-0.80398 -2.88563,-1.69804c-0.67467,-0.89406 -1.00842,-2.04538 -0.84125,-3.24075c0.16717,-1.19537 0.80398,-2.21096 1.69804,-2.88563c0.89406,-0.67467 2.04538,-1.00842 3.24075,-0.84125c1.19537,0.16717 2.21096,0.80398 2.88563,1.69804z" data-paper-data="{&quot;origPos&quot;:null}" id="ID0.8793090796098113" fill="#000000" stroke="none" stroke-width="1" stroke-linecap="butt"/><path d="M244.90423,90.01502c0.67467,0.89406 1.00842,2.04538 0.84125,3.24075c-0.16717,1.19537 -0.80398,2.21096 -1.69804,2.88563c-0.89406,0.67467 -2.04538,1.00842 -3.24075,0.84125c-1.19537,-0.16717 -2.21096,-0.80398 -2.88563,-1.69804c-0.67467,-0.89406 -1.00842,-2.04538 -0.84125,-3.24075c0.16717,-1.19537 0.80398,-2.21096 1.69804,-2.88563c0.89406,-0.67467 2.04538,-1.00842 3.24075,-0.84125c1.19537,0.16717 2.21096,0.80398 2.88563,1.69804z" data-paper-data="{&quot;origPos&quot;:null}" id="ID0.8793090796098113" fill="#000000" stroke="none" stroke-width="1" stroke-linecap="butt"/><path d="M268.79589,122.80304c-1.60862,5.5408 -9.85438,8.01716 -18.41743,5.53111c-8.56305,-2.48605 -14.20073,-8.99309 -12.59211,-14.53388c1.60862,-5.5408 9.85438,-8.01716 18.41743,-5.53111c8.56305,2.48605 14.20073,8.99309 12.59211,14.53388z" data-paper-data="{&quot;origPos&quot;:null,&quot;origRot&quot;:0}" fill="none" stroke="#000000" stroke-width="3" stroke-linecap="butt"/></g></g></svg>