<svg xmlns="http://www.w3.org/2000/svg" xmlns:xlink="http://www.w3.org/1999/xlink" version="1.1" width="228.5" height="219.94531" viewBox="0,0,228.5,219.94531"><defs><linearGradient x1="398.05037" y1="519.49921" x2="336.61258" y2="519.49921" gradientUnits="userSpaceOnUse" id="color-1"><stop offset="0" stop-color="#000000"/><stop offset="1" stop-color="#0e0e0e"/></linearGradient><linearGradient x1="367.48035" y1="537.51058" x2="367.48035" y2="546.47791" gradientUnits="userSpaceOnUse" id="color-2"><stop offset="0" stop-color="#000000"/><stop offset="1" stop-color="#666666"/></linearGradient><linearGradient x1="383.49843" y1="508.75696" x2="383.49843" y2="540.36946" gradientUnits="userSpaceOnUse" id="color-3"><stop offset="0" stop-color="#151515"/><stop offset="1" stop-color="#212121"/></linearGradient><linearGradient x1="358.31074" y1="511.37821" x2="358.31074" y2="524.85844" gradientUnits="userSpaceOnUse" id="color-4"><stop offset="0" stop-color="#292929"/><stop offset="1" stop-color="#292929"/></linearGradient><linearGradient x1="419.7754" y1="336.11187" x2="419.7754" y2="376.07297" gradientUnits="userSpaceOnUse" id="color-5"><stop offset="0" stop-color="#ffffff"/><stop offset="1" stop-color="#cccccc"/></linearGradient><radialGradient cx="355.5512" cy="368.92637" r="2.7033" gradientUnits="userSpaceOnUse" id="color-6"><stop offset="0" stop-color="#cccccc"/><stop offset="1" stop-color="#7f7f7f"/></radialGradient><radialGradient cx="353.6336" cy="371.03297" r="2.336" gradientUnits="userSpaceOnUse" id="color-7"><stop offset="0" stop-color="#cccccc"/><stop offset="1" stop-color="#7f7f7f"/></radialGradient><radialGradient cx="352.3181" cy="374.08007" r="2.8982" gradientUnits="userSpaceOnUse" id="color-8"><stop offset="0" stop-color="#cccccc"/><stop offset="1" stop-color="#7f7f7f"/></radialGradient><radialGradient cx="353.4278" cy="377.17317" r="2.8982" gradientUnits="userSpaceOnUse" id="color-9"><stop offset="0" stop-color="#cccccc"/><stop offset="1" stop-color="#7f7f7f"/></radialGradient><radialGradient cx="355.5347" cy="380.16947" r="2.725" gradientUnits="userSpaceOnUse" id="color-10"><stop offset="0" stop-color="#cccccc"/><stop offset="1" stop-color="#7f7f7f"/></radialGradient><radialGradient cx="356.4341" cy="383.48007" r="2.5092" gradientUnits="userSpaceOnUse" id="color-11"><stop offset="0" stop-color="#cccccc"/><stop offset="1" stop-color="#7f7f7f"/></radialGradient><radialGradient cx="357.3337" cy="386.28057" r="2.8767" gradientUnits="userSpaceOnUse" id="color-12"><stop offset="0" stop-color="#cccccc"/><stop offset="1" stop-color="#7f7f7f"/></radialGradient><radialGradient cx="357.6674" cy="389.86727" r="2.7035" gradientUnits="userSpaceOnUse" id="color-13"><stop offset="0" stop-color="#cccccc"/><stop offset="1" stop-color="#7f7f7f"/></radialGradient><radialGradient cx="358.1509" cy="393.10037" r="2.5304" gradientUnits="userSpaceOnUse" id="color-14"><stop offset="0" stop-color="#cccccc"/><stop offset="1" stop-color="#7f7f7f"/></radialGradient><radialGradient cx="359.4617" cy="396.19367" r="3.0708" gradientUnits="userSpaceOnUse" id="color-15"><stop offset="0" stop-color="#cccccc"/><stop offset="1" stop-color="#7f7f7f"/></radialGradient><radialGradient cx="361.8476" cy="398.86097" r="2.7687" gradientUnits="userSpaceOnUse" id="color-16"><stop offset="0" stop-color="#cccccc"/><stop offset="1" stop-color="#7f7f7f"/></radialGradient><radialGradient cx="363.09473" cy="401.41057" r="3.04987" gradientUnits="userSpaceOnUse" id="color-17"><stop offset="0" stop-color="#cccccc"/><stop offset="1" stop-color="#7f7f7f"/></radialGradient><radialGradient cx="358.6985" cy="363.89967" r="4.5716" gradientUnits="userSpaceOnUse" id="color-18"><stop offset="0" stop-color="#cccccc"/><stop offset="1" stop-color="#7f7f7f"/></radialGradient><radialGradient cx="366.4049" cy="365.84297" r="2.7033" gradientUnits="userSpaceOnUse" id="color-19"><stop offset="0" stop-color="#cccccc"/><stop offset="1" stop-color="#7f7f7f"/></radialGradient><radialGradient cx="367.8849" cy="369.17307" r="2.7033" gradientUnits="userSpaceOnUse" id="color-20"><stop offset="0" stop-color="#cccccc"/><stop offset="1" stop-color="#7f7f7f"/></radialGradient><radialGradient cx="368.5016" cy="372.87317" r="2.7033" gradientUnits="userSpaceOnUse" id="color-21"><stop offset="0" stop-color="#cccccc"/><stop offset="1" stop-color="#7f7f7f"/></radialGradient><radialGradient cx="368.5016" cy="376.94327" r="2.7033" gradientUnits="userSpaceOnUse" id="color-22"><stop offset="0" stop-color="#cccccc"/><stop offset="1" stop-color="#7f7f7f"/></radialGradient><radialGradient cx="368.6247" cy="380.76667" r="2.7033" gradientUnits="userSpaceOnUse" id="color-23"><stop offset="0" stop-color="#cccccc"/><stop offset="1" stop-color="#7f7f7f"/></radialGradient><radialGradient cx="368.378" cy="384.71347" r="2.7033" gradientUnits="userSpaceOnUse" id="color-24"><stop offset="0" stop-color="#cccccc"/><stop offset="1" stop-color="#7f7f7f"/></radialGradient><radialGradient cx="367.8849" cy="388.53697" r="2.7033" gradientUnits="userSpaceOnUse" id="color-25"><stop offset="0" stop-color="#cccccc"/><stop offset="1" stop-color="#7f7f7f"/></radialGradient><radialGradient cx="367.6382" cy="392.11367" r="2.7033" gradientUnits="userSpaceOnUse" id="color-26"><stop offset="0" stop-color="#cccccc"/><stop offset="1" stop-color="#7f7f7f"/></radialGradient><radialGradient cx="367.2682" cy="396.06047" r="2.7033" gradientUnits="userSpaceOnUse" id="color-27"><stop offset="0" stop-color="#cccccc"/><stop offset="1" stop-color="#7f7f7f"/></radialGradient><radialGradient cx="366.1579" cy="400.00727" r="2.7033" gradientUnits="userSpaceOnUse" id="color-28"><stop offset="0" stop-color="#cccccc"/><stop offset="1" stop-color="#7f7f7f"/></radialGradient><radialGradient cx="364.80788" cy="412.42801" r="2.76867" gradientUnits="userSpaceOnUse" id="color-29"><stop offset="0" stop-color="#cccccc"/><stop offset="1" stop-color="#7f7f7f"/></radialGradient><radialGradient cx="364.45144" cy="415.59431" r="3.04987" gradientUnits="userSpaceOnUse" id="color-30"><stop offset="0" stop-color="#cccccc"/><stop offset="1" stop-color="#7f7f7f"/></radialGradient><radialGradient cx="365.41815" cy="419.00112" r="2.7033" gradientUnits="userSpaceOnUse" id="color-31"><stop offset="0" stop-color="#cccccc"/><stop offset="1" stop-color="#7f7f7f"/></radialGradient><linearGradient x1="433.1545" y1="381.51637" x2="432.264" y2="407.67707" gradientUnits="userSpaceOnUse" id="color-32"><stop offset="0" stop-color="#ff0000"/><stop offset="1" stop-color="#ff0000" stop-opacity="0"/></linearGradient><linearGradient x1="428.5526" y1="381.39007" x2="433.1545" y2="381.39007" gradientUnits="userSpaceOnUse" id="color-33"><stop offset="0" stop-color="#ff0000"/><stop offset="1" stop-color="#ff0000" stop-opacity="0"/></linearGradient><linearGradient x1="399.5625" y1="359.32707" x2="386.2211" y2="358.99897" gradientUnits="userSpaceOnUse" id="color-34"><stop offset="0" stop-color="#7f7f7f"/><stop offset="1" stop-color="#b2b2b2"/></linearGradient><linearGradient x1="401.0632" y1="368.30277" x2="391.4427" y2="368.30277" gradientUnits="userSpaceOnUse" id="color-35"><stop offset="0" stop-color="#000000"/><stop offset="1" stop-color="#353935"/></linearGradient><linearGradient x1="383.157" y1="368.30277" x2="391.7905" y2="368.30277" gradientUnits="userSpaceOnUse" id="color-36"><stop offset="0" stop-color="#000000"/><stop offset="1" stop-color="#353935"/></linearGradient><radialGradient cx="372.8596" cy="362.99307" r="21.6511" gradientUnits="userSpaceOnUse" id="color-37"><stop offset="0" stop-color="#666666"/><stop offset="1" stop-color="#000000"/></radialGradient><radialGradient cx="371.5811" cy="370.17747" r="9.3043" gradientUnits="userSpaceOnUse" id="color-38"><stop offset="0" stop-color="#370000"/><stop offset="1" stop-color="#000000"/></radialGradient><radialGradient cx="375.7752" cy="373.20617" r="7.936" gradientUnits="userSpaceOnUse" id="color-39"><stop offset="0" stop-color="#370000"/><stop offset="1" stop-color="#000000"/></radialGradient><radialGradient cx="370.6767" cy="364.80737" r="7.343" gradientUnits="userSpaceOnUse" id="color-40"><stop offset="0" stop-color="#370000"/><stop offset="1" stop-color="#000000"/></radialGradient><radialGradient cx="379.06" cy="368.37087" r="6.4577" gradientUnits="userSpaceOnUse" id="color-41"><stop offset="0" stop-color="#370000"/><stop offset="1" stop-color="#000000"/></radialGradient><radialGradient cx="375.8705" cy="363.72157" r="4.86" gradientUnits="userSpaceOnUse" id="color-42"><stop offset="0" stop-color="#370000"/><stop offset="1" stop-color="#000000"/></radialGradient><radialGradient cx="375.1245" cy="367.16487" r="2.3705" gradientUnits="userSpaceOnUse" id="color-43"><stop offset="0" stop-color="#ff0000"/><stop offset="1" stop-color="#000000"/></radialGradient><linearGradient x1="435.70882" y1="527.71739" x2="376.09814" y2="533.64816" gradientUnits="userSpaceOnUse" id="color-44"><stop offset="0" stop-color="#000000"/><stop offset="1" stop-color="#0e0e0e"/></linearGradient><linearGradient x1="416.03462" y1="561.10517" x2="421.76953" y2="567.70542" gradientUnits="userSpaceOnUse" id="color-45"><stop offset="0" stop-color="#000000"/><stop offset="1" stop-color="#666666"/></linearGradient><linearGradient x1="426.02216" y1="514.36822" x2="429.07379" y2="545.04062" gradientUnits="userSpaceOnUse" id="color-46"><stop offset="0" stop-color="#151515"/><stop offset="1" stop-color="#212121"/></linearGradient><linearGradient x1="397.15273" y1="520.30114" x2="398.91669" y2="538.03082" gradientUnits="userSpaceOnUse" id="color-47"><stop offset="0" stop-color="#292929"/><stop offset="1" stop-color="#292929"/></linearGradient><linearGradient x1="406.085" y1="184.16407" x2="407.3404" y2="195.50787" gradientUnits="userSpaceOnUse" id="color-48"><stop offset="0" stop-color="#000000"/><stop offset="1" stop-color="#ffffff"/></linearGradient><linearGradient x1="147.5254" y1="156.2244" x2="147.5254" y2="196.1855" gradientUnits="userSpaceOnUse" id="color-5-,0,0,1,-272.25,-179.88747"><stop offset="0" stop-color="#ffffff"/><stop offset="1" stop-color="#cccccc"/></linearGradient><radialGradient cx="83.3012" cy="189.0389" r="2.7033" gradientUnits="userSpaceOnUse" id="color-6-,0,0,1,-272.25,-179.88747"><stop offset="0" stop-color="#cccccc"/><stop offset="1" stop-color="#7f7f7f"/></radialGradient><radialGradient cx="81.3836" cy="191.1455" r="2.336" gradientUnits="userSpaceOnUse" id="color-7-,0,0,1,-272.25,-179.88747"><stop offset="0" stop-color="#cccccc"/><stop offset="1" stop-color="#7f7f7f"/></radialGradient><radialGradient cx="80.0681" cy="194.1926" r="2.8982" gradientUnits="userSpaceOnUse" id="color-8-,0,0,1,-272.25,-179.88747"><stop offset="0" stop-color="#cccccc"/><stop offset="1" stop-color="#7f7f7f"/></radialGradient><radialGradient cx="81.1778" cy="197.2857" r="2.8982" gradientUnits="userSpaceOnUse" id="color-9-,0,0,1,-272.25,-179.88747"><stop offset="0" stop-color="#cccccc"/><stop offset="1" stop-color="#7f7f7f"/></radialGradient><radialGradient cx="83.2847" cy="200.282" r="2.725" gradientUnits="userSpaceOnUse" id="color-10-,0,0,1,-272.25,-179.88747"><stop offset="0" stop-color="#cccccc"/><stop offset="1" stop-color="#7f7f7f"/></radialGradient><radialGradient cx="84.1841" cy="203.5926" r="2.5092" gradientUnits="userSpaceOnUse" id="color-11-,0,0,1,-272.25,-179.88747"><stop offset="0" stop-color="#cccccc"/><stop offset="1" stop-color="#7f7f7f"/></radialGradient><radialGradient cx="85.0837" cy="206.3931" r="2.8767" gradientUnits="userSpaceOnUse" id="color-12-,0,0,1,-272.25,-179.88747"><stop offset="0" stop-color="#cccccc"/><stop offset="1" stop-color="#7f7f7f"/></radialGradient><radialGradient cx="85.4174" cy="209.9798" r="2.7035" gradientUnits="userSpaceOnUse" id="color-13-,0,0,1,-272.25,-179.88747"><stop offset="0" stop-color="#cccccc"/><stop offset="1" stop-color="#7f7f7f"/></radialGradient><radialGradient cx="85.9009" cy="213.2129" r="2.5304" gradientUnits="userSpaceOnUse" id="color-14-,0,0,1,-272.25,-179.88747"><stop offset="0" stop-color="#cccccc"/><stop offset="1" stop-color="#7f7f7f"/></radialGradient><radialGradient cx="87.2117" cy="216.3062" r="3.0708" gradientUnits="userSpaceOnUse" id="color-15-,0,0,1,-272.25,-179.88747"><stop offset="0" stop-color="#cccccc"/><stop offset="1" stop-color="#7f7f7f"/></radialGradient><radialGradient cx="89.5976" cy="218.9735" r="2.7687" gradientUnits="userSpaceOnUse" id="color-16-,0,0,1,-272.25,-179.88747"><stop offset="0" stop-color="#cccccc"/><stop offset="1" stop-color="#7f7f7f"/></radialGradient><radialGradient cx="86.4485" cy="184.0122" r="4.5716" gradientUnits="userSpaceOnUse" id="color-18-,0,0,1,-272.25,-179.88747"><stop offset="0" stop-color="#cccccc"/><stop offset="1" stop-color="#7f7f7f"/></radialGradient><radialGradient cx="94.1549" cy="185.9555" r="2.7033" gradientUnits="userSpaceOnUse" id="color-19-,0,0,1,-272.25,-179.88747"><stop offset="0" stop-color="#cccccc"/><stop offset="1" stop-color="#7f7f7f"/></radialGradient><radialGradient cx="95.6349" cy="189.2856" r="2.7033" gradientUnits="userSpaceOnUse" id="color-20-,0,0,1,-272.25,-179.88747"><stop offset="0" stop-color="#cccccc"/><stop offset="1" stop-color="#7f7f7f"/></radialGradient><radialGradient cx="96.2516" cy="192.9857" r="2.7033" gradientUnits="userSpaceOnUse" id="color-21-,0,0,1,-272.25,-179.88747"><stop offset="0" stop-color="#cccccc"/><stop offset="1" stop-color="#7f7f7f"/></radialGradient><radialGradient cx="96.2516" cy="197.0558" r="2.7033" gradientUnits="userSpaceOnUse" id="color-22-,0,0,1,-272.25,-179.88747"><stop offset="0" stop-color="#cccccc"/><stop offset="1" stop-color="#7f7f7f"/></radialGradient><radialGradient cx="96.3747" cy="200.8792" r="2.7033" gradientUnits="userSpaceOnUse" id="color-23-,0,0,1,-272.25,-179.88747"><stop offset="0" stop-color="#cccccc"/><stop offset="1" stop-color="#7f7f7f"/></radialGradient><radialGradient cx="96.128" cy="204.826" r="2.7033" gradientUnits="userSpaceOnUse" id="color-24-,0,0,1,-272.25,-179.88747"><stop offset="0" stop-color="#cccccc"/><stop offset="1" stop-color="#7f7f7f"/></radialGradient><radialGradient cx="95.6349" cy="208.6495" r="2.7033" gradientUnits="userSpaceOnUse" id="color-25-,0,0,1,-272.25,-179.88747"><stop offset="0" stop-color="#cccccc"/><stop offset="1" stop-color="#7f7f7f"/></radialGradient><radialGradient cx="95.3882" cy="212.2262" r="2.7033" gradientUnits="userSpaceOnUse" id="color-26-,0,0,1,-272.25,-179.88747"><stop offset="0" stop-color="#cccccc"/><stop offset="1" stop-color="#7f7f7f"/></radialGradient><radialGradient cx="95.0182" cy="216.173" r="2.7033" gradientUnits="userSpaceOnUse" id="color-27-,0,0,1,-272.25,-179.88747"><stop offset="0" stop-color="#cccccc"/><stop offset="1" stop-color="#7f7f7f"/></radialGradient><radialGradient cx="93.9079" cy="220.1198" r="2.7033" gradientUnits="userSpaceOnUse" id="color-28-,0,0,1,-272.25,-179.88747"><stop offset="0" stop-color="#cccccc"/><stop offset="1" stop-color="#7f7f7f"/></radialGradient><linearGradient x1="160.9045" y1="201.6289" x2="160.014" y2="227.7896" gradientUnits="userSpaceOnUse" id="color-32-,0,0,1,-272.25,-179.88747"><stop offset="0" stop-color="#ff0000"/><stop offset="1" stop-color="#ff0000" stop-opacity="0"/></linearGradient><linearGradient x1="156.3026" y1="201.5026" x2="160.9045" y2="201.5026" gradientUnits="userSpaceOnUse" id="color-33-,0,0,1,-272.25,-179.88747"><stop offset="0" stop-color="#ff0000"/><stop offset="1" stop-color="#ff0000" stop-opacity="0"/></linearGradient><linearGradient x1="127.3125" y1="179.4396" x2="113.9711" y2="179.1115" gradientUnits="userSpaceOnUse" id="color-34-,0,0,1,-272.25,-179.88747"><stop offset="0" stop-color="#7f7f7f"/><stop offset="1" stop-color="#b2b2b2"/></linearGradient><linearGradient x1="128.8132" y1="188.4153" x2="119.1927" y2="188.4153" gradientUnits="userSpaceOnUse" id="color-35-,0,0,1,-272.25,-179.88747"><stop offset="0" stop-color="#000000"/><stop offset="1" stop-color="#353935"/></linearGradient><linearGradient x1="110.907" y1="188.4153" x2="119.5405" y2="188.4153" gradientUnits="userSpaceOnUse" id="color-36-,0,0,1,-272.25,-179.88747"><stop offset="0" stop-color="#000000"/><stop offset="1" stop-color="#353935"/></linearGradient><radialGradient cx="100.6096" cy="183.1056" r="21.6511" gradientUnits="userSpaceOnUse" id="color-37-,0,0,1,-272.25,-179.88747"><stop offset="0" stop-color="#666666"/><stop offset="1" stop-color="#000000"/></radialGradient><radialGradient cx="99.3311" cy="190.29" r="9.3043" gradientUnits="userSpaceOnUse" id="color-38-,0,0,1,-272.25,-179.88747"><stop offset="0" stop-color="#370000"/><stop offset="1" stop-color="#000000"/></radialGradient><radialGradient cx="103.5252" cy="193.3187" r="7.936" gradientUnits="userSpaceOnUse" id="color-39-,0,0,1,-272.25,-179.88747"><stop offset="0" stop-color="#370000"/><stop offset="1" stop-color="#000000"/></radialGradient><radialGradient cx="98.4267" cy="184.9199" r="7.343" gradientUnits="userSpaceOnUse" id="color-40-,0,0,1,-272.25,-179.88747"><stop offset="0" stop-color="#370000"/><stop offset="1" stop-color="#000000"/></radialGradient><radialGradient cx="106.81" cy="188.4834" r="6.4577" gradientUnits="userSpaceOnUse" id="color-41-,0,0,1,-272.25,-179.88747"><stop offset="0" stop-color="#370000"/><stop offset="1" stop-color="#000000"/></radialGradient><radialGradient cx="103.6205" cy="183.8341" r="4.86" gradientUnits="userSpaceOnUse" id="color-42-,0,0,1,-272.25,-179.88747"><stop offset="0" stop-color="#370000"/><stop offset="1" stop-color="#000000"/></radialGradient><radialGradient cx="102.8745" cy="187.2774" r="2.3705" gradientUnits="userSpaceOnUse" id="color-43-,0,0,1,-272.25,-179.88747"><stop offset="0" stop-color="#ff0000"/><stop offset="1" stop-color="#000000"/></radialGradient><linearGradient x1="133.835" y1="4.2766" x2="135.0904" y2="15.6204" gradientUnits="userSpaceOnUse" id="color-48-,0,0,1,-272.25,-179.88747"><stop offset="0" stop-color="#000000"/><stop offset="1" stop-color="#ffffff"/></linearGradient></defs><g><g data-paper-data="{&quot;isPaintingLayer&quot;:true}" fill-rule="nonzero" stroke-linejoin="miter" stroke-miterlimit="10" stroke-dasharray="" stroke-dashoffset="0" style="mix-blend-mode: normal"><path d="M272.25,389.04117l28.5,-120l200,-19.5v139.5z" fill="#4db494" stroke="none" stroke-width="NaN" stroke-linecap="butt" transform="matrix(1,0,0,1,-272.25,-179.88747)"/><path d="" data-paper-data="{&quot;index&quot;:null}" fill="#ffffff" stroke="#000000" stroke-width="1" stroke-linecap="round" transform="matrix(1,0,0,1,-272.25,-179.88747)"/><path d="M 92.8842 193.1021 L 125.5685 193.9243 Z " data-paper-data="{&quot;index&quot;:null}" fill="#ffffff" stroke="#000000" stroke-width="1" stroke-linecap="round"/><g data-paper-data="{&quot;index&quot;:null}"><path d="" data-paper-data="{&quot;origPos&quot;:null}" fill="url(#color-1)" stroke-width="1" stroke-linecap="round" stroke="none" transform="matrix(1,0,0,1,-272.25,-179.88747)"/><path d="" data-paper-data="{&quot;origPos&quot;:null}" fill="url(#color-2)" stroke-width="1.16035" stroke-linecap="round" stroke="none" transform="matrix(1,0,0,1,-272.25,-179.88747)"/><g data-paper-data="{&quot;origPos&quot;:null}" stroke-linecap="butt"><g data-paper-data="{&quot;origPos&quot;:null}"><path d="" data-paper-data="{&quot;origPos&quot;:null}" fill="url(#color-3)" stroke-width="0" stroke="none" transform="matrix(1,0,0,1,-272.25,-179.88747)"/><path d="" data-paper-data="{&quot;origPos&quot;:null,&quot;origRot&quot;:0}" fill="#000000" stroke-width="0.5" stroke="none" transform="matrix(1,0,0,1,-272.25,-179.88747)"/><path d="" data-paper-data="{&quot;origPos&quot;:null,&quot;index&quot;:null}" fill="#000000" stroke-width="0.5" stroke="none" transform="matrix(1,0,0,1,-272.25,-179.88747)"/></g><path d="" data-paper-data="{&quot;origPos&quot;:null}" fill="#333333" stroke-width="0" stroke="none" transform="matrix(1,0,0,1,-272.25,-179.88747)"/></g><g data-paper-data="{&quot;origPos&quot;:null}" stroke-linecap="butt"><path d="" data-paper-data="{&quot;origPos&quot;:null,&quot;origRot&quot;:0}" fill="url(#color-4)" stroke-width="0.5" stroke="none" transform="matrix(1,0,0,1,-272.25,-179.88747)"/><path d="" data-paper-data="{&quot;origPos&quot;:null}" fill="#1a1a1a" stroke-width="0.5" stroke="none" transform="matrix(1,0,0,1,-272.25,-179.88747)"/></g></g><g data-paper-data="{&quot;index&quot;:null}" stroke-linecap="round"><path d="" data-paper-data="{&quot;origPos&quot;:null}" fill="#666666" stroke="#000000" stroke-width="1.5" transform="matrix(1,0,0,1,-272.25,-179.88747)"/><path d="" data-paper-data="{&quot;origPos&quot;:null}" fill="#ffffff" stroke="none" stroke-width="0.81248" transform="matrix(1,0,0,1,-272.25,-179.88747)"/></g><path d="" data-paper-data="{&quot;index&quot;:null}" fill="#ffffff" stroke="#000000" stroke-width="1" stroke-linecap="round" transform="matrix(1,0,0,1,-272.25,-179.88747)"/><path d="M 151.8755 188.2981 C 151.8755 188.2981 109.8475 203.5522 115.3621 188.1514 C 120.8765 172.7508 151.8755 188.2981 151.8755 188.2981 Z " data-paper-data="{&quot;index&quot;:null}" fill="#ffffff" stroke="#000000" stroke-width="1" stroke-linecap="round"/><g data-paper-data="{&quot;index&quot;:null}" stroke-linecap="round"><path d="" data-paper-data="{&quot;origPos&quot;:null}" fill="#666666" stroke="#000000" stroke-width="1.5" transform="matrix(1,0,0,1,-272.25,-179.88747)"/><path d="" fill="#ffffff" stroke="none" stroke-width="0.81248" transform="matrix(1,0,0,1,-272.25,-179.88747)"/></g><path d="M 65.8046 94.9634 C 72.3047 85.5681 79.9114 75.5182 90.4298 71.0682 C 94.3788 69.3683 100.914 74.6918 100.3834 79.2755 C 99.1961 89.0783 90.2298 96.3821 85.8151 105.0576 C 80.3683 114.8505 80.1744 128.9398 70.7231 134.6989 C 64.9953 138.1765 53.8511 130.8601 52.9253 123.7214 C 51.7035 113.5269 59.6338 103.8965 65.8046 94.9635 Z " data-paper-data="{&quot;index&quot;:null}" fill="#000000" stroke="#000000" stroke-width="1.5" stroke-linecap="round"/><path d="M 68.4998 91.6997 C 73.8001 83.7287 80.4001 75.6104 88.9074 71.4498 C 92.8134 69.54 101.7739 71.9905 101.0819 76.1829 C 99.5151 85.6397 88.8768 91.124 84.4537 99.7839 C 78.7686 109.9607 80.0601 124.9809 70.932 132.3654 C 65.9721 136.3713 53.8992 130.6631 53.7193 124.158 C 52.8034 112.3579 61.7525 101.8572 68.4998 91.6995 Z " data-paper-data="{&quot;index&quot;:null}" fill="#ffffff" stroke="none" stroke-width="1.00573" stroke-linecap="round"/><path d="M362.48999,370.16819c0,0 0.96417,-27.91496 -0.82224,-45.63464c-1.23337,-12.23393 -9.37799,-44.90624 0.82224,-69.89088c10.20023,-24.98464 61.06457,-14.64778 66.19077,-0.82224c5.1262,13.82554 -2.18092,59.64603 -2.87787,69.89088c-1.23337,18.1304 -1.6445,46.45688 -1.6445,46.45688z" fill="#000000" stroke="none" stroke-width="0" stroke-linecap="butt" transform="matrix(1,0,0,1,-272.25,-179.88747)"/><path d="M 87.8168 83.6278 C 89.3089 76.3134 91.693 67.9623 98.0276 69.1661 C 104.3622 70.3698 113.1406 74.7387 117.2329 79.6672 C 119.7736 82.7383 121.4461 105.082 116.9862 109.2681 C 113.0098 113.2543 89.4377 113.8611 87.8787 110.2548 C 84.5092 102.413 85.9399 92.8275 87.8168 83.6278 Z " data-paper-data="{&quot;index&quot;:null}" fill="#ffffff" stroke="#000000" stroke-width="2" stroke-linecap="round"/><path d="M 157.9032 110.9595 C 156.3442 114.5659 132.7721 113.9593 128.7957 109.9728 C 124.3359 105.7868 126.0083 83.443 128.5491 80.372 C 132.6414 75.4437 141.4198 71.0746 147.7543 69.8708 C 154.0889 68.667 156.473 77.0184 157.9651 84.3326 C 159.8421 93.5325 161.2728 103.1177 157.9032 110.9595 Z " fill="#ffffff" stroke="#000000" stroke-width="2" stroke-linecap="round"/><path d="M 153.6392 119.7692 C 157.179 125.1368 154.8627 132.722 154.1326 139.1331 C 153.4394 143.2624 152.8178 148.4105 149.4458 150.8501 C 146.1897 153.2231 126.885 151.9601 123.545 148.63 C 120.6935 145.8451 121.2732 123.5631 125.2718 119.3992 C 128.5895 115.7238 151.0886 115.9063 153.6392 119.7692 Z " fill="#ffffff" stroke="#000000" stroke-width="2" stroke-linecap="round"/><path d="M 118.1535 119.135 C 120.8398 123.2865 121.1136 144.9839 117.9068 148.7359 C 115.371 151.6417 95.2252 150.835 91.6361 147.5025 C 87.5339 143.6938 87.7238 136.8166 87.0726 131.222 C 86.7643 126.1603 84.5417 118.7551 88.7993 116.0516 C 94.3594 112.5242 116.4144 116.4191 118.1535 119.135 Z " fill="#ffffff" stroke="#000000" stroke-width="2" stroke-linecap="round"/><path d="M 144.7296 192.4854 L 91.6536 190.7587 L 91.8181 156.2244 L 147.5252 157.7044 Z " fill="url(#color-5-,0,0,1,-272.25,-179.88747)" stroke="#000000" stroke-width="2" stroke-linecap="round"/><g><g><path d="" fill="none" stroke="#7f7f7f" stroke-width="0.89665" stroke-linecap="round" transform="matrix(1,0,0,1,-272.25,-179.88747)"/><path d="M 90.3282 218.6644 C 89.6923 217.5729 87.8264 217.5319 87.2921 216.3874 C 85.97 213.5548 85.6286 210.3441 85.0151 207.2792 C 84.616 205.2816 84.8999 203.1397 84.2561 201.2073 C 83.8569 200.008 82.3784 199.3703 81.9793 198.1712 C 81.3354 196.2388 80.8559 194.1046 81.2202 192.0991 C 81.4114 191.0441 82.7383 190.5811 83.497 189.8221 C 84.2561 189.0631 85.1503 188.418 85.7741 187.545 C 86.4315 186.6252 86.4238 185.2332 87.2921 184.5092 C 88.0921 183.8427 89.287 183.7502 90.3282 183.7502 C 91.3696 183.7502 92.5643 183.8427 93.3642 184.5092 C 94.2325 185.2332 94.3768 186.5342 94.8823 187.545 C 95.3877 188.5561 96.1924 189.4701 96.4003 190.5811 C 96.9605 193.5732 97.1593 196.6456 97.1593 199.6893 C 97.1593 201.7263 96.7358 203.7515 96.4003 205.7611 C 96.2286 206.789 95.7064 207.7575 95.6413 208.7972 C 95.4516 211.8241 96.0177 214.8952 95.6413 217.9054 C 95.5017 219.0272 91.5366 220.735 90.3282 218.6644 Z " fill="none" stroke="#7f7f7f" stroke-width="0.61539" stroke-linecap="round"/><path d="M 84.966 188.5552 C 85.2223 188.811 85.3807 189.1644 85.3807 189.5547 C 85.3807 189.9452 85.2223 190.2984 84.966 190.5545 C 84.7102 190.8105 84.357 190.9689 83.9665 190.9689 C 83.5762 190.9689 83.2228 190.8105 82.967 190.5545 C 82.7107 190.2984 82.5523 189.9452 82.5523 189.5547 C 82.5523 189.1644 82.7107 188.811 82.967 188.5552 C 83.2228 188.2989 83.5762 188.1405 83.9665 188.1405 C 84.357 188.1405 84.7102 188.2989 84.966 188.5552 Z " fill="url(#color-6-,0,0,1,-272.25,-179.88747)" stroke="none" stroke-width="0.13489" stroke-linecap="butt"/><path d="M 82.4993 190.5285 C 82.7556 190.7844 82.9139 191.1378 82.9139 191.5281 C 82.9139 191.9186 82.7556 192.2718 82.4993 192.5278 C 82.2435 192.7839 81.8902 192.9423 81.4998 192.9423 C 81.1095 192.9423 80.756 192.7839 80.5002 192.5278 C 80.2439 192.2718 80.0856 191.9186 80.0856 191.5281 C 80.0856 191.1378 80.2439 190.7844 80.5002 190.5285 C 80.756 190.2723 81.1095 190.1139 81.4998 190.1139 C 81.8902 190.1139 82.2435 190.2722 82.4993 190.5285 Z " fill="url(#color-7-,0,0,1,-272.25,-179.88747)" stroke="none" stroke-width="0.13489" stroke-linecap="butt"/><path d="M 81.8826 193.8587 C 82.1389 194.1145 82.2972 194.4679 82.2972 194.8582 C 82.2972 195.2487 82.1389 195.6019 81.8826 195.8579 C 81.6268 196.114 81.2735 196.2724 80.8831 196.2724 C 80.4928 196.2724 80.1393 196.114 79.8835 195.8579 C 79.6273 195.6019 79.4689 195.2487 79.4689 194.8582 C 79.4689 194.4679 79.6272 194.1145 79.8835 193.8587 C 80.1393 193.6024 80.4928 193.444 80.8831 193.444 C 81.2735 193.444 81.6268 193.6024 81.8826 193.8587 Z " fill="url(#color-8-,0,0,1,-272.25,-179.88747)" stroke="none" stroke-width="0.13489" stroke-linecap="butt"/><path d="M 82.9926 196.8187 C 83.2489 197.0745 83.4073 197.428 83.4073 197.8183 C 83.4073 198.2087 83.2489 198.562 82.9926 198.818 C 82.7368 199.0741 82.3836 199.2324 81.9931 199.2324 C 81.6029 199.2324 81.2494 199.0741 80.9936 198.818 C 80.7373 198.562 80.5789 198.2087 80.5789 197.8183 C 80.5789 197.428 80.7373 197.0745 80.9936 196.8187 C 81.2494 196.5624 81.6029 196.4041 81.9931 196.4041 C 82.3836 196.4041 82.7368 196.5624 82.9926 196.8187 Z " fill="url(#color-9-,0,0,1,-272.25,-179.88747)" stroke="none" stroke-width="0.13489" stroke-linecap="butt"/><path d="M 84.966 199.5321 C 85.2223 199.7879 85.3807 200.1414 85.3807 200.5317 C 85.3807 200.9221 85.2223 201.2754 84.966 201.5314 C 84.7102 201.7875 84.357 201.9458 83.9665 201.9458 C 83.5762 201.9458 83.2228 201.7875 82.967 201.5314 C 82.7107 201.2754 82.5523 200.9221 82.5523 200.5317 C 82.5523 200.1414 82.7107 199.7879 82.967 199.5321 C 83.2228 199.2758 83.5762 199.1175 83.9665 199.1175 C 84.357 199.1175 84.7102 199.2758 84.966 199.5321 Z " fill="url(#color-10-,0,0,1,-272.25,-179.88747)" stroke="none" stroke-width="0.13489" stroke-linecap="butt"/><path d="M 85.5827 203.1089 C 85.839 203.3647 85.9974 203.7182 85.9974 204.1084 C 85.9974 204.4989 85.839 204.8521 85.5827 205.1082 C 85.3269 205.3643 84.9737 205.5226 84.5832 205.5226 C 84.1929 205.5226 83.8394 205.3642 83.5836 205.1082 C 83.3274 204.8521 83.169 204.4989 83.169 204.1084 C 83.169 203.7182 83.3273 203.3647 83.5836 203.1089 C 83.8394 202.8526 84.1929 202.6942 84.5832 202.6942 C 84.9737 202.6942 85.3269 202.8526 85.5827 203.1089 Z " fill="url(#color-11-,0,0,1,-272.25,-179.88747)" stroke="none" stroke-width="0.13489" stroke-linecap="butt"/><path d="M 86.1994 206.1923 C 86.4557 206.4481 86.614 206.8016 86.614 207.1918 C 86.614 207.5823 86.4557 207.9356 86.1994 208.1916 C 85.9436 208.4477 85.5903 208.606 85.1999 208.606 C 84.8096 208.606 84.4561 208.4477 84.2003 208.1916 C 83.9441 207.9356 83.7857 207.5823 83.7857 207.1918 C 83.7857 206.8016 83.944 206.4481 84.2003 206.1923 C 84.4561 205.936 84.8096 205.7777 85.1999 205.7777 C 85.5903 205.7777 85.9436 205.936 86.1994 206.1923 Z " fill="url(#color-12-,0,0,1,-272.25,-179.88747)" stroke="none" stroke-width="0.13489" stroke-linecap="butt"/><path d="M 86.8161 209.6458 C 87.0723 209.9016 87.2307 210.255 87.2307 210.6453 C 87.2307 211.0358 87.0724 211.389 86.8161 211.6451 C 86.5603 211.9011 86.207 212.0595 85.8165 212.0595 C 85.4263 212.0595 85.0728 211.9011 84.817 211.6451 C 84.5607 211.389 84.4024 211.0358 84.4024 210.6453 C 84.4024 210.255 84.5607 209.9016 84.817 209.6458 C 85.0728 209.3895 85.4263 209.2311 85.8165 209.2311 C 86.207 209.2311 86.5603 209.3895 86.8161 209.6458 Z " fill="url(#color-13-,0,0,1,-272.25,-179.88747)" stroke="none" stroke-width="0.13489" stroke-linecap="butt"/><path d="M 87.4327 212.7292 C 87.689 212.985 87.8474 213.3385 87.8474 213.7287 C 87.8474 214.1192 87.689 214.4724 87.4327 214.7285 C 87.1769 214.9845 86.8237 215.1429 86.4332 215.1429 C 86.043 215.1429 85.6895 214.9845 85.4337 214.7285 C 85.1774 214.4724 85.019 214.1192 85.019 213.7287 C 85.019 213.3385 85.1774 212.985 85.4337 212.7292 C 85.6895 212.4729 86.043 212.3145 86.4332 212.3145 C 86.8237 212.3145 87.1769 212.4729 87.4327 212.7292 Z " fill="url(#color-14-,0,0,1,-272.25,-179.88747)" stroke="none" stroke-width="0.13489" stroke-linecap="butt"/><path d="M 89.1595 215.6893 C 89.4158 215.9451 89.5741 216.2985 89.5741 216.6888 C 89.5741 217.0793 89.4158 217.4325 89.1595 217.6886 C 88.9037 217.9446 88.5504 218.103 88.1599 218.103 C 87.7697 218.103 87.4162 217.9446 87.1604 217.6886 C 86.9041 217.4325 86.7458 217.0793 86.7458 216.6888 C 86.7458 216.2985 86.9041 215.9451 87.1604 215.6893 C 87.4162 215.433 87.7697 215.2746 88.1599 215.2746 C 88.5504 215.2746 88.9037 215.433 89.1595 215.6893 Z " fill="url(#color-15-,0,0,1,-272.25,-179.88747)" stroke="none" stroke-width="0.13489" stroke-linecap="butt"/><g stroke-linecap="butt"><path d="M 91.0253 218.102 C 91.3578 218.2455 91.6353 218.5157 91.7791 218.8788 C 91.9229 219.2416 89.0228 219.1708 89.1669 218.8386 C 89.3104 218.506 89.5805 218.2288 89.9434 218.085 C 90.3062 217.9412 90.693 217.9582 91.0253 218.102 Z " fill="url(#color-16-,0,0,1,-272.25,-179.88747)" stroke-width="0.13489" stroke="none"/><path d="" fill="url(#color-17)" stroke-width="0.13489" stroke="none" transform="matrix(1,0,0,1,-272.25,-179.88747)"/></g><path d="M 89.2638 183.1942 C 89.6972 183.6269 89.9651 184.2246 89.9651 184.8847 C 89.9651 185.5448 89.6972 186.1424 89.2638 186.5751 C 88.8311 187.0085 88.2334 187.2764 87.5733 187.2764 C 86.9132 187.2764 86.3158 187.0085 85.8829 186.5751 C 85.4497 186.1424 85.1818 185.5448 85.1818 184.8847 C 85.1818 184.2246 85.4497 183.6269 85.8829 183.1942 C 86.3158 182.761 86.9132 182.4931 87.5733 182.4931 C 88.2334 182.4931 88.8311 182.761 89.2638 183.1942 Z " fill="url(#color-18-,0,0,1,-272.25,-179.88747)" stroke="none" stroke-width="0.22813" stroke-linecap="butt"/><path d="M 95.8194 185.4717 C 96.0757 185.7275 96.2341 186.081 96.2341 186.4713 C 96.2341 186.8617 96.0757 187.215 95.8194 187.471 C 95.5636 187.7271 95.2104 187.8854 94.8199 187.8854 C 94.4296 187.8854 94.0762 187.7271 93.8204 187.471 C 93.5641 187.215 93.4057 186.8618 93.4057 186.4713 C 93.4057 186.081 93.5641 185.7275 93.8204 185.4717 C 94.0762 185.2155 94.4296 185.0571 94.8199 185.0571 C 95.2104 185.0571 95.5636 185.2154 95.8194 185.4717 Z " fill="url(#color-19-,0,0,1,-272.25,-179.88747)" stroke="none" stroke-width="0.13489" stroke-linecap="butt"/><path d="M 97.2997 188.8018 C 97.556 189.0576 97.7144 189.4111 97.7144 189.8014 C 97.7144 190.1918 97.556 190.5451 97.2997 190.8011 C 97.0439 191.0572 96.6907 191.2155 96.3002 191.2155 C 95.9099 191.2155 95.5564 191.0572 95.3006 190.8011 C 95.0444 190.5451 94.886 190.1918 94.886 189.8014 C 94.886 189.4111 95.0443 189.0576 95.3006 188.8018 C 95.5564 188.5455 95.9099 188.3872 96.3002 188.3872 C 96.6907 188.3872 97.0439 188.5455 97.2997 188.8018 Z " fill="url(#color-20-,0,0,1,-272.25,-179.88747)" stroke="none" stroke-width="0.13489" stroke-linecap="butt"/><path d="M 97.9164 192.5019 C 98.1727 192.7577 98.331 193.1112 98.331 193.5015 C 98.331 193.8919 98.1727 194.2452 97.9164 194.5012 C 97.6606 194.7573 97.3073 194.9156 96.9169 194.9156 C 96.5266 194.9156 96.1731 194.7573 95.9173 194.5012 C 95.661 194.2452 95.5027 193.892 95.5027 193.5015 C 95.5027 193.1112 95.661 192.7577 95.9173 192.5019 C 96.1731 192.2457 96.5266 192.0873 96.9169 192.0873 C 97.3073 192.0873 97.6606 192.2456 97.9164 192.5019 Z " fill="url(#color-21-,0,0,1,-272.25,-179.88747)" stroke="none" stroke-width="0.13489" stroke-linecap="butt"/><path d="M 97.9164 196.5721 C 98.1727 196.8279 98.331 197.1813 98.331 197.5716 C 98.331 197.9621 98.1727 198.3153 97.9164 198.5713 C 97.6606 198.8274 97.3073 198.9858 96.9169 198.9858 C 96.5266 198.9858 96.1731 198.8274 95.9173 198.5713 C 95.661 198.3153 95.5027 197.9621 95.5027 197.5716 C 95.5027 197.1813 95.661 196.8279 95.9173 196.5721 C 96.1731 196.3158 96.5266 196.1574 96.9169 196.1574 C 97.3073 196.1574 97.6606 196.3158 97.9164 196.5721 Z " fill="url(#color-22-,0,0,1,-272.25,-179.88747)" stroke="none" stroke-width="0.13489" stroke-linecap="butt"/><path d="M 98.0395 200.3955 C 98.2958 200.6513 98.4541 201.0048 98.4541 201.395 C 98.4541 201.7855 98.2958 202.1387 98.0395 202.3948 C 97.7837 202.6508 97.4304 202.8092 97.0399 202.8092 C 96.6497 202.8092 96.2962 202.6508 96.0404 202.3948 C 95.7841 202.1387 95.6258 201.7855 95.6258 201.395 C 95.6258 201.0048 95.7841 200.6513 96.0404 200.3955 C 96.2962 200.1392 96.6497 199.9808 97.0399 199.9808 C 97.4304 199.9808 97.7837 200.1392 98.0395 200.3955 Z " fill="url(#color-23-,0,0,1,-272.25,-179.88747)" stroke="none" stroke-width="0.13489" stroke-linecap="butt"/><path d="M 97.793 204.3423 C 98.0493 204.5981 98.2077 204.9516 98.2077 205.3418 C 98.2077 205.7323 98.0493 206.0855 97.793 206.3416 C 97.5372 206.5976 97.184 206.756 96.7935 206.756 C 96.4033 206.756 96.0498 206.5976 95.794 206.3416 C 95.5377 206.0855 95.3793 205.7323 95.3793 205.3418 C 95.3793 204.9516 95.5377 204.5981 95.794 204.3423 C 96.0498 204.086 96.4033 203.9276 96.7935 203.9276 C 97.184 203.9276 97.5372 204.086 97.793 204.3423 Z " fill="url(#color-24-,0,0,1,-272.25,-179.88747)" stroke="none" stroke-width="0.13489" stroke-linecap="butt"/><path d="M 97.2997 208.1657 C 97.556 208.4215 97.7144 208.775 97.7144 209.1652 C 97.7144 209.5557 97.556 209.909 97.2997 210.165 C 97.0439 210.4211 96.6907 210.5794 96.3002 210.5794 C 95.9099 210.5794 95.5564 210.4211 95.3006 210.165 C 95.0444 209.909 94.886 209.5557 94.886 209.1652 C 94.886 208.775 95.0443 208.4215 95.3006 208.1657 C 95.5564 207.9094 95.9099 207.7511 96.3002 207.7511 C 96.6907 207.7511 97.0439 207.9094 97.2997 208.1657 Z " fill="url(#color-25-,0,0,1,-272.25,-179.88747)" stroke="none" stroke-width="0.13489" stroke-linecap="butt"/><path d="M 97.0528 211.7425 C 97.3091 211.9983 97.4674 212.3518 97.4674 212.742 C 97.4674 213.1325 97.3091 213.4857 97.0528 213.7418 C 96.797 213.9978 96.4437 214.1562 96.0532 214.1562 C 95.663 214.1562 95.3095 213.9978 95.0537 213.7418 C 94.7974 213.4857 94.6391 213.1325 94.6391 212.742 C 94.6391 212.3518 94.7974 211.9983 95.0537 211.7425 C 95.3095 211.4862 95.663 211.3278 96.0532 211.3278 C 96.4437 211.3278 96.797 211.4862 97.0528 211.7425 Z " fill="url(#color-26-,0,0,1,-272.25,-179.88747)" stroke="none" stroke-width="0.13489" stroke-linecap="butt"/><path d="M 96.683 215.6893 C 96.9393 215.9451 97.0977 216.2985 97.0977 216.6888 C 97.0977 217.0793 96.9393 217.4325 96.683 217.6886 C 96.4272 217.9446 96.074 218.103 95.6835 218.103 C 95.2933 218.103 94.9398 217.9446 94.684 217.6886 C 94.4277 217.4325 94.2693 217.0793 94.2693 216.6888 C 94.2693 216.2985 94.4277 215.9451 94.684 215.6893 C 94.9398 215.433 95.2933 215.2746 95.6835 215.2746 C 96.074 215.2746 96.4272 215.433 96.683 215.6893 Z " fill="url(#color-27-,0,0,1,-272.25,-179.88747)" stroke="none" stroke-width="0.13489" stroke-linecap="butt"/><path d="M 94.5732 219.2214 C 94.9637 219.2214 94.183 219.2214 94.5732 219.2214 Z " fill="url(#color-28-,0,0,1,-272.25,-179.88747)" stroke="none" stroke-width="0.13489" stroke-linecap="butt"/><path d="" fill="#b2b2b2" stroke="none" stroke-width="0.11208" stroke-linecap="butt" transform="matrix(1,0,0,1,-272.25,-179.88747)"/><path d="" fill="url(#color-29)" stroke="none" stroke-width="0.13489" stroke-linecap="butt" transform="matrix(1,0,0,1,-272.25,-179.88747)"/><path d="" fill="url(#color-30)" stroke="none" stroke-width="0.13489" stroke-linecap="butt" transform="matrix(1,0,0,1,-272.25,-179.88747)"/><path d="" fill="url(#color-31)" stroke="none" stroke-width="0.13489" stroke-linecap="butt" transform="matrix(1,0,0,1,-272.25,-179.88747)"/><path d="" fill="#b2b2b2" stroke="none" stroke-width="0.11208" stroke-linecap="round" transform="matrix(1,0,0,1,-272.25,-179.88747)"/><path d="" fill="none" stroke="#7f7f7f" stroke-width="0.22417" stroke-linecap="round" transform="matrix(1,0,0,1,-272.25,-179.88747)"/><path d="" fill="none" stroke="#7f7f7f" stroke-width="0.22417" stroke-linecap="round" transform="matrix(1,0,0,1,-272.25,-179.88747)"/></g><path d="M 149.8686 199.0223 L 89.6802 196.3089 L 89.4335 186.0719 L 148.0185 187.3053 Z " fill="#000000" stroke="none" stroke-width="1" stroke-linecap="round"/><g><g><g><path d="M 157.7607 193.7131 L 162.8162 188.5742 L 154.4481 215.1318 L 152.6284 192.6771 Z " fill="#363a37" stroke="none" stroke-width="1.16316" stroke-linecap="round"/><path d="M 156.3186 177.0308 L 155.8788 189.9496 L 138.8003 185.0571 L 139.2357 162.761 Z " fill="#000000" stroke="none" stroke-width="0.87338" stroke-linecap="round"/><path d="M 160.9045 201.6289 L 157.1923 201.5026 Z " fill="url(#color-32-,0,0,1,-272.25,-179.88747)" stroke="url(#color-33-,0,0,1,-272.25,-179.88747)" stroke-width="0.20059" stroke-linecap="round"/><path d="M 170.5842 185.3639 C 170.5564 186.1799 170.3509 186.9145 170.0403 187.4407 C 169.7298 187.9669 169.3139 188.2846 168.8686 188.2695 C 168.4231 188.2542 168.0299 187.9089 167.7559 187.363 C 167.4816 186.8168 167.3267 186.0699 167.3545 185.2539 C 167.3822 184.4379 167.5876 183.7033 167.8982 183.1772 C 168.2088 182.651 168.6247 182.3331 169.0702 182.3484 C 169.5154 182.3634 169.9086 182.7087 170.1829 183.2549 C 170.457 183.801 170.6119 184.5479 170.5842 185.3639 Z " fill="#ff0000" stroke="none" stroke-width="0.78683" stroke-linecap="butt"/><path d="M 158.623 157.6208 L 165.1564 165.1725 L 165.1421 175.0878 L 168.5625 169.5995 L 167.8804 180.1389 L 164.7647 186.1765 L 164.446 195.5427 L 159.8246 204.6546 L 151.2342 203.7155 L 149.9744 167.8891 Z " fill="#000000" stroke="none" stroke-width="0.87338" stroke-linecap="round"/><path d="M 171.5835 166.687 L 171.0277 186.1767 L 169.6195 183.2186 L 168.1052 183.3827 L 166.822 186.249 L 167.4924 166.5479 Z " fill="#000000" stroke="none" stroke-width="0.87338" stroke-linecap="round"/></g><path d="" fill="#cccccc" stroke="none" stroke-width="0.65058" stroke-linecap="butt" transform="matrix(1,0,0,1,-272.25,-179.88747)"/></g><path d="M 145.7982 213.6993 L 141.4814 185.8252 L 166.5188 188.9086 Z " fill="#353935" stroke="none" stroke-width="1" stroke-linecap="round"/></g><g stroke-linecap="butt"><path d="M 142.0983 202.3524 L 130.998 202.3524 L 130.998 182.6185 L 142.0983 182.6185 Z " fill="#cccc00" stroke="#000000" stroke-width="1"/><path d="M 134.8634 184.7966 C 135.1422 185.0753 135.3148 185.4626 135.3148 185.8869 C 135.3148 186.3112 135.1422 186.6984 134.8634 186.9772 C 134.5847 187.2559 134.1974 187.4286 133.7731 187.4286 C 133.3488 187.4286 132.9615 187.2559 132.6828 186.9772 C 132.4041 186.6984 132.2314 186.3112 132.2314 185.8869 C 132.2314 185.4626 132.4041 185.0753 132.6828 184.7966 C 132.9615 184.5178 133.3488 184.3452 133.7731 184.3452 C 134.1974 184.3452 134.5847 184.5178 134.8634 184.7966 Z " fill="#ff0000" stroke="none" stroke-width="1"/></g><g><path d="M 126.4945 212.7018 L 113.1532 212.3735 L 113.9711 179.1115 L 127.3125 179.4396 Z " fill="url(#color-34-,0,0,1,-272.25,-179.88747)" stroke-width="0.29645" stroke-linecap="butt" stroke="none"/><path d="M 127.4368 213.3353 L 118.5933 216.0104 L 112.0732 213.4396 L 111.9615 210.5442 L 127.496 210.9262 Z " fill="#666666" stroke-width="0.25105" stroke-linecap="round" stroke="none"/><path d="M 124.8855 211.1991 L 123.6062 211.1677 L 124.3704 180.0987 L 125.6497 180.1303 Z " fill="#666666" stroke-width="0.29645" stroke-linecap="butt" stroke="none"/><path d="M 122.1442 211.1317 L 121.0477 211.1048 L 121.8208 179.6702 L 122.9173 179.6974 Z " fill="#666666" stroke-width="0.29645" stroke-linecap="butt" stroke="none"/><path d="M 127.0441 174.9812 C 128.2049 175.3448 129.1396 176.6566 129.056 177.7738 C 128.9864 178.7097 128.1292 179.1934 126.6778 179.6544 C 125.2264 180.1155 123.2318 180.3735 121.0383 180.3195 C 118.8452 180.2657 116.8656 179.9097 115.4386 179.3779 C 114.0116 178.8463 113.1371 178.1394 113.1559 177.3828 C 113.1744 176.626 114.0826 175.963 115.5338 175.5019 C 116.9852 175.0411 119.2657 174.9356 121.1733 174.8369 C 123.1395 174.7353 125.2355 174.2382 127.0441 174.9812 Z " fill="#b2b2b2" stroke-width="0.31402" stroke-linecap="round" stroke="none"/><path d="M 115.0165 210.9566 L 113.9201 210.9295 L 114.684 179.8604 L 115.7807 179.8875 Z " fill="#666666" stroke-width="0.29645" stroke-linecap="butt" stroke="none"/><path d="M 108.96 182.097 L 108.96 182.097 L 108.9555 182.2798 L 108.9555 182.2798 Z " fill="#666666" stroke-width="0.29645" stroke-linecap="butt" stroke="none"/><path d="M 128.3727 180.9287 L 112.8382 180.5466 L 112.9102 177.6226 L 127.5399 177.6164 L 126.7343 173.2079 L 131.0123 177.702 Z " fill="#666666" stroke-width="0.29645" stroke-linecap="round" stroke="none"/><path d="M 120.4212 200.1032 L 115.3039 199.9774 L 115.5286 190.8396 L 120.6459 190.9654 Z " fill="#000000" stroke-width="0.29645" stroke-linecap="butt" stroke="none"/><path d="M 118.3809 193.5594 C 118.7016 193.9973 118.8915 194.596 118.8755 195.2516 C 118.8595 195.9075 118.6402 196.4961 118.2983 196.9176 C 117.9574 197.3402 117.4939 197.595 116.9894 197.5827 C 116.485 197.5703 116.0348 197.2928 115.7149 196.8542 C 115.3942 196.4162 115.2043 195.8175 115.2203 195.1618 C 115.2366 194.5061 115.4559 193.9176 115.7975 193.4958 C 116.1384 193.0732 116.6019 192.8184 117.1064 192.831 C 117.6108 192.8433 118.0612 193.1206 118.3809 193.5594 Z " fill="#ff0000" stroke-width="0.29645" stroke-linecap="butt" stroke="none"/><path d="M 95.032 194.9211 C 95.0816 194.9223 95.1124 194.923 95.1124 194.923 C 95.1124 194.923 95.0816 194.9223 95.032 194.9211 C 94.9822 194.9198 94.9136 194.9181 94.8384 194.9164 C 94.7629 194.9144 94.6943 194.9127 94.6445 194.9117 C 94.5949 194.9105 94.5641 194.9097 94.5641 194.9097 C 94.5641 194.9097 94.5949 194.9105 94.6445 194.9117 C 94.6943 194.9127 94.7629 194.9144 94.8384 194.9164 C 94.9136 194.9181 94.9822 194.9198 95.032 194.9211 Z " fill="#ff0000" stroke-width="0.29645" stroke-linecap="butt" stroke="none"/></g><g stroke-linecap="butt"><path d="M 128.8132 196.4322 L 119.193 196.4322 L 119.193 188.4153 L 128.8132 188.4153 Z " fill="url(#color-35-,0,0,1,-272.25,-179.88747)" stroke-width="0.81818" stroke="none"/><path d="M 110.907 188.4153 L 119.5405 188.4153 L 119.5405 196.4322 L 110.907 196.4322 Z " fill="url(#color-36-,0,0,1,-272.25,-179.88747)" stroke-width="0.79778" stroke="none"/></g><g stroke-linecap="butt"><g><path d="M 108.5505 183.2161 C 110.3946 185.0603 111.536 187.6067 111.536 190.417 C 111.536 193.2274 110.3946 195.7738 108.5505 197.6177 C 106.7063 199.4618 104.1599 200.6032 101.3496 200.6032 C 98.5392 200.6032 95.9928 199.4618 94.1489 197.6177 C 92.3048 195.7738 91.1634 193.2274 91.1634 190.417 C 91.1634 187.6067 92.3048 185.0603 94.1489 183.2161 C 95.9928 181.3723 98.5392 180.2309 101.3496 180.2309 C 104.1599 180.2309 106.7063 181.3723 108.5505 183.2161 Z " fill="#000000" stroke-width="0.10389" stroke="none"/><path d="M 91.7905 190.3393 C 91.7905 185.2265 96.0984 181.0819 101.4127 181.0819 C 106.7271 181.0819 110.6706 185.27 110.6706 190.3825 C 110.6706 195.4956 106.7266 199.5968 101.4125 199.5968 C 96.0984 199.5968 91.7905 195.4522 91.7905 190.3393 Z " fill="url(#color-37-,0,0,1,-272.25,-179.88747)" stroke-width="0.10389" stroke="none"/><path d="M 103.559 184.8995 C 103.9471 185.0521 105.9222 187.5285 106.0776 188.0973 C 106.2332 188.6662 104.1491 190.9518 103.6898 191.1423 C 103.2307 191.3325 99.9921 190.1874 99.7267 189.8389 C 99.4615 189.4906 99.167 186.0613 99.5178 185.6538 C 99.869 185.2465 103.1713 184.7468 103.559 184.8995 Z " fill="#000000" stroke-width="0.10389" stroke="none"/><path d="M 96.9423 195.3372 C 96.3399 196.1288 95.5399 197.5338 94.572 197.1564 C 93.1694 196.6046 92.0132 194.9216 92.0221 193.4151 C 92.0288 192.2432 93.6541 191.6213 94.7513 191.237 C 96.2323 190.7187 100.2662 189.3551 99.4023 190.8655 Z " fill="url(#color-38-,0,0,1,-272.25,-179.88747)" stroke-width="0.10389" stroke="none"/><path d="M 105.5934 199.4483 L 101.8252 200.4749 C 101.0765 200.1962 101.1712 198.6925 101.4137 197.7973 C 101.7837 196.0905 102.1644 193.4775 103.5919 192.9667 C 104.6713 192.5826 105.9002 194.7713 106.2441 196.0674 C 106.6442 197.1801 105.5934 199.4483 105.5934 199.4483 Z " fill="url(#color-39-,0,0,1,-272.25,-179.88747)" stroke-width="0.10389" stroke="none"/><path d="M 91.8938 186.8578 L 95.0367 182.9164 C 95.6906 182.4838 96.7193 182.8057 97.3009 183.2931 C 98.0937 183.8573 99.3488 184.9932 98.7615 185.766 C 97.7417 187.1116 95.7782 187.377 94.05 187.6425 C 93.2955 187.7589 91.8938 186.8578 91.8938 186.8578 Z " fill="url(#color-40-,0,0,1,-272.25,-179.88747)" stroke-width="0.10389" stroke="none"/><path d="M 110.0752 186.3938 C 110.8751 188.272 110.9277 190.5633 110.5236 192.5952 C 110.4126 193.149 109.3943 192.2994 108.9733 191.9546 C 107.9982 191.0604 106.6323 190.2589 106.4237 188.9563 C 106.2831 188.0862 107.514 187.1883 108.1533 186.9446 Z " fill="url(#color-41-,0,0,1,-272.25,-179.88747)" stroke-width="0.10389" stroke="none"/><path d="M 101.207 180.8474 L 104.0413 180.9566 L 106.4414 182.2709 C 106.4414 182.2709 106.4017 183.1039 106.1059 183.2991 C 105.3186 183.8203 104.2805 184.7325 103.323 184.4848 C 102.2968 184.2061 101.7142 182.9616 101.1318 182.0247 C 100.9524 181.6722 101.207 180.8474 101.207 180.8474 Z " fill="url(#color-42-,0,0,1,-272.25,-179.88747)" stroke-width="0.10389" stroke="none"/></g><path d="M 103.6503 186.6106 C 103.9142 186.8748 104.0778 187.2394 104.0778 187.6422 C 104.0778 188.0448 103.9143 188.4094 103.6503 188.6736 C 103.3861 188.9375 103.0215 189.101 102.619 189.101 C 102.2161 189.101 101.8516 188.9375 101.5874 188.6736 C 101.3234 188.4094 101.1601 188.0448 101.1601 187.6422 C 101.1601 187.2394 101.3234 186.8748 101.5874 186.6106 C 101.8516 186.3467 102.2161 186.1834 102.619 186.1834 C 103.0215 186.1834 103.3861 186.3467 103.6503 186.6106 Z " fill="url(#color-43-,0,0,1,-272.25,-179.88747)" stroke-width="0.2957" stroke="none"/></g></g><path d="M 36.6863 22.0339 L 36.6863 22.0339 L 36.6863 21.7872 L 36.6863 21.7872 Z " fill="#cccccc" stroke="none" stroke-width="1" stroke-linecap="butt"/><path d="M 197.929 134.4909 C 189.5426 144.6078 171.3983 145.7661 157.3777 148.5873 C 146.7623 150.7526 133.9086 154.3003 124.6306 148.2971 C 119.4966 145.3047 123.2827 134.2858 128.3969 130.4941 C 136.2563 124.6859 147.6563 127.0123 157.2649 125.262 C 166.2289 123.6428 174.652 117.34 183.2906 119.3627 C 190.4183 121.0682 202.1713 129.5483 197.929 134.4909 Z " data-paper-data="{&quot;index&quot;:null}" fill="#000000" stroke="#000000" stroke-width="1.5" stroke-linecap="round"/><path d="M 154.4641 71.602 C 165.3567 75.0354 174.2076 84.0435 181.2423 93.0572 C 189.0981 103.0586 197.8493 114.8804 197.3607 127.7397 C 197.3173 133.6493 185.4503 136.4061 180.11 133.0797 C 170.7202 127.2136 168.6279 114.2343 162.278 105.0011 C 157.0613 96.7829 147.4433 90.3615 145.333 80.7151 C 144.3705 76.2024 150.3721 70.2838 154.4641 71.602 Z " data-paper-data="{&quot;index&quot;:null}" fill="#000000" stroke="#000000" stroke-width="1.5" stroke-linecap="round"/><path d="M 144.2638 150.9168 C 138.9667 151.7825 132.8626 153.0197 128.1401 150.652 C 124.616 148.8846 123.4524 143.1361 123.9808 139.5421 C 124.659 134.9582 126.92 129.0331 131.3699 127.7538 C 140.6036 125.1192 150.5986 129.6058 160.0203 128.2246 C 169.2647 127.3645 177.6059 120.4549 186.8104 121.0977 C 191.5364 121.4309 197.9758 125.4892 198.076 130.091 C 197.623 135.9121 191.1017 140.6358 186.0856 142.5483 C 172.8123 147.5974 158.1609 148.6519 144.2638 150.9168 Z " data-paper-data="{&quot;index&quot;:null}" fill="#ffffff" stroke="none" stroke-width="1.00573" stroke-linecap="round"/><path d="M 156.2421 71.9952 C 165.1054 75.3314 172.8788 82.4539 178.4761 90.2209 C 186.695 101.6283 196.5304 114.6144 197.1207 129.0954 C 197.2341 134.6298 184.2487 134.6303 179.907 130.9339 C 170.9653 123.3176 169.9836 109.3726 163.3599 99.78 C 158.1363 91.5781 147.0264 87.1261 144.5708 77.8603 C 143.4847 73.7525 152.1728 70.4641 156.2421 71.9952 Z " data-paper-data="{&quot;index&quot;:null}" fill="#ffffff" stroke="none" stroke-width="1.00573" stroke-linecap="round"/><path d="M421.41215,281.01344c0,0 -9.11329,-20.44069 -9.59706,-23.21133c-0.72453,-4.14955 11.75072,-6.1182 14.04212,-6.51828c1.87849,-0.328 6.3611,1.57141 6.3611,1.57141l4.17128,24.94402c0,0 -3.80933,-1.85644 -5.26621,-1.60205c-2.3511,0.41051 -9.71122,4.81623 -9.71122,4.81623z" fill="#ffffff" stroke="none" stroke-width="0" stroke-linecap="butt" transform="matrix(1,0,0,1,-272.25,-179.88747)"/><g data-paper-data="{&quot;index&quot;:null}"><path d="" data-paper-data="{&quot;origPos&quot;:null}" fill="url(#color-44)" stroke-width="1" stroke-linecap="round" stroke="none" transform="matrix(1,0,0,1,-272.25,-179.88747)"/><path d="" data-paper-data="{&quot;origPos&quot;:null,&quot;origRot&quot;:0}" fill="url(#color-45)" stroke-width="1.16035" stroke-linecap="round" stroke="none" transform="matrix(1,0,0,1,-272.25,-179.88747)"/><g data-paper-data="{&quot;origPos&quot;:null}" stroke-linecap="butt"><g data-paper-data="{&quot;origPos&quot;:null}"><path d="" data-paper-data="{&quot;origPos&quot;:null}" fill="url(#color-46)" stroke-width="0" stroke="none" transform="matrix(1,0,0,1,-272.25,-179.88747)"/><path d="" data-paper-data="{&quot;origPos&quot;:null,&quot;origRot&quot;:0}" fill="#000000" stroke-width="0.5" stroke="none" transform="matrix(1,0,0,1,-272.25,-179.88747)"/><path d="" data-paper-data="{&quot;origPos&quot;:null,&quot;index&quot;:null}" fill="#000000" stroke-width="0.5" stroke="none" transform="matrix(1,0,0,1,-272.25,-179.88747)"/></g><path d="" data-paper-data="{&quot;origPos&quot;:null}" fill="#333333" stroke-width="0" stroke="none" transform="matrix(1,0,0,1,-272.25,-179.88747)"/></g><g data-paper-data="{&quot;origPos&quot;:null}" stroke-linecap="butt"><path d="" data-paper-data="{&quot;origPos&quot;:null,&quot;origRot&quot;:0}" fill="url(#color-47)" stroke-width="0.5" stroke="none" transform="matrix(1,0,0,1,-272.25,-179.88747)"/><path d="" data-paper-data="{&quot;origPos&quot;:null}" fill="#1a1a1a" stroke-width="0.5" stroke="none" transform="matrix(1,0,0,1,-272.25,-179.88747)"/></g></g><g data-paper-data="{&quot;index&quot;:null}" stroke-linecap="butt"><path d="M394.67331,217.13556c0,0 22.95546,-7.57044 23.87691,3.76991c1.71833,21.14746 -9.35535,35.61137 -20.54,37.29722c-11.18468,1.68584 -20.99862,-6.14072 -21.92007,-17.48108c-0.92147,-11.34036 7.39849,-21.90021 18.58314,-23.58605z" data-paper-data="{&quot;origPos&quot;:null}" fill="#ffd499" stroke="none" stroke-width="0" transform="matrix(1,0,0,1,-272.25,-179.88747)"/><path d="M 88.6614 53.8903 C 89.7423 41.2382 90.4289 24.2071 104.4022 12.8189 C 110.9805 7.4574 129.1591 1.337 136.6377 1 C 144.7745 0.6334 146.7052 2.0498 152.3711 14.1869 C 158.0367 26.3243 158.5357 34.906 154.5287 48.0535 C 150.5218 61.201 142.146 70.4426 113.0054 70.8726 C 97.9744 71.0943 87.6515 65.7107 88.6614 53.8903 Z " data-paper-data="{&quot;origPos&quot;:null}" fill="#ffffff" stroke="#000000" stroke-width="2"/><path d="M401.99683,224.11936l5.05824,-14.98131l20.79018,-1.02917c0,0 -0.09805,4.22439 -0.4859,7.38201c-0.31786,2.58793 -1.32239,7.34017 -1.32239,7.34017z" data-paper-data="{&quot;origPos&quot;:null,&quot;origRot&quot;:0}" fill="#ff0000" stroke="none" stroke-width="0" transform="matrix(1,0,0,1,-272.25,-179.88747)"/><path d="M410.31734,230.70249l0.8379,-4.4866l14.05211,-1.16173l-2.06979,4.42609z" data-paper-data="{&quot;origPos&quot;:null,&quot;origRot&quot;:0}" fill="#ff0000" stroke="none" stroke-width="0" transform="matrix(1,0,0,1,-272.25,-179.88747)"/><path d="M408.00854,237.00441c-6.72181,5.3435 -45.60681,0.08762 -45.60681,0.08762c0,0 -1.30128,-7.67538 -0.25109,-12.79642c1.59193,-7.76255 7.02122,-20.21617 7.02122,-20.21617c0,0 29.47231,2.96477 39.09803,3.03335c4.52858,0.03226 8.48461,4.4087 8.79493,8.92675c0.61567,8.96417 -2.0227,15.37347 -9.05631,20.96487z" data-paper-data="{&quot;origPos&quot;:null}" fill="#000000" stroke="none" stroke-width="0" transform="matrix(1,0,0,1,-272.25,-179.88747)"/><path d="M 137.9298 8.9446 C 136.0048 11.3105 129.9223 19.3207 129.3342 19.3858 C 127.9763 19.536 126.5779 18.0442 126.5786 16.9726 C 126.5791 15.9011 130.4282 8.8314 132.5467 6.8222 C 134.6651 4.8131 137.6523 2.9278 139.4602 2.5296 C 139.4602 2.5296 143.0984 1.5787 143.648 3.3641 C 144.1976 5.1495 139.8551 6.5788 137.9298 8.9446 Z " data-paper-data="{&quot;origPos&quot;:null}" fill="url(#color-48-,0,0,1,-272.25,-179.88747)" stroke="none" stroke-width="0.5"/><path d="M412.95428,236.14216l0.89099,-4.75486l8.40963,-0.89076z" data-paper-data="{&quot;origPos&quot;:null}" fill="#000000" stroke="none" stroke-width="0" transform="matrix(1,0,0,1,-272.25,-179.88747)"/><path d="M406.90426,209.0398c3.54206,-0.01448 5.45682,7.33368 5.46405,9.1047c0.00725,1.77102 -2.89457,-5.66175 -6.43661,-5.64727c-3.54204,0.01446 -6.40723,-0.29951 -6.41445,-2.07053c-0.00725,-1.77102 3.845,-1.37242 7.38704,-1.3869z" data-paper-data="{&quot;origPos&quot;:null,&quot;origRot&quot;:0}" fill="#ffffff" stroke="none" stroke-width="0" transform="matrix(1,0,0,1,-272.25,-179.88747)"/></g><g><path d="M 141.1598 79.6285 L 145.237 79.8179 L 144.668 86.076 L 150.6417 86.2657 L 150.6417 89.8689 L 144.5732 89.3948 L 144.5732 108.0741 L 140.7804 107.8847 L 141.0648 89.2051 L 135.0911 89.3948 L 135.0911 86.2657 L 141.3492 86.4554 Z " stroke-width="0.15376" stroke-linecap="round" fill="#000000" stroke="none"/><g stroke-linecap="butt"><path d="M 151.0571 107.7009 C 151.0571 107.9696 150.9675 108.089 150.7884 108.089 C 149.4749 108.1487 148.1616 108.1785 146.8481 108.2382 C 146.7585 108.2382 146.6988 108.2382 146.6391 108.2382 C 146.6391 107.9994 146.6093 107.8203 146.6093 107.6114 C 146.6093 107.5219 146.6988 107.4025 146.7884 107.4025 C 146.9973 107.3428 147.2062 107.3129 147.445 107.2532 C 147.833 107.1634 147.8927 107.0739 147.8927 106.6859 C 147.8927 105.8501 147.9524 104.9843 147.9226 104.1486 C 147.8927 102.8947 147.8032 101.6111 147.7733 100.3572 C 147.7733 99.6409 147.833 98.9541 147.833 98.2378 C 147.833 97.7301 147.833 97.1929 147.8032 96.6556 C 147.7136 96.8646 147.6199 97.073 147.5047 97.2824 C 147.0434 98.1477 146.5427 98.836 146.0419 99.596 C 145.6334 100.222 145.1083 100.6384 144.7136 101.208 C 144.3648 101.7149 144.0357 102.2174 143.6388 102.6708 C 143.35 102.9964 143.2007 103.8696 142.848 103.6111 C 141.305 102.3558 140.6481 100.8313 139.5043 99.4618 C 138.8299 98.6357 138.0544 97.8332 137.3851 97.0138 C 137.2179 96.8095 137.2658 96.8347 137.2359 96.7452 L 137.1762 96.7452 C 137.1762 97.3421 137.1762 97.9393 137.1762 98.5363 C 137.2061 99.9692 137.2359 101.432 137.2359 102.8649 C 137.2359 103.9394 137.1762 105.044 137.1464 106.1188 C 137.1464 106.3874 137.1762 106.656 137.2061 106.9246 C 137.2359 107.1336 137.415 107.2532 137.6239 107.2831 C 137.7732 107.3129 137.8926 107.3129 138.0418 107.3129 C 138.2507 107.3129 138.2806 107.4323 138.2507 107.5815 C 138.2209 107.7606 138.2209 107.9099 138.2209 108.089 C 138.2209 108.2382 138.1311 108.2382 138.012 108.2382 C 137.5043 108.268 136.9969 108.2979 136.5193 108.2979 C 135.9818 108.3277 135.4744 108.3277 134.9372 108.3576 C 134.7581 108.3576 134.6685 108.3277 134.6984 108.1188 C 134.7282 107.9397 134.6984 107.7606 134.6984 107.6114 C 134.6984 107.4323 134.7879 107.3726 134.967 107.3428 C 135.2058 107.3129 135.4446 107.2831 135.6538 107.1933 C 135.7135 107.1634 135.803 107.0441 135.803 106.9844 C 135.8328 106.2979 135.8328 105.5813 135.8627 104.8948 C 135.8925 104.1486 135.9522 103.4022 135.9818 102.6261 C 135.9818 102.417 135.9818 102.1782 135.952 101.9692 C 135.8624 101.2529 135.8923 100.5065 135.8923 99.7304 C 135.8923 98.596 135.8624 97.4914 135.8624 96.3572 C 135.8624 95.9689 135.8624 95.551 135.8326 95.163 C 135.7729 94.8944 135.5938 94.775 135.3249 94.775 C 135.2951 94.775 135.2652 94.775 135.2652 94.775 C 134.728 94.7452 134.6384 94.5957 134.7578 94.0883 C 134.7578 94.0286 134.8772 93.939 134.9369 93.939 C 135.1757 93.939 135.4145 93.939 135.6535 93.939 C 136.3698 93.9689 137.0864 93.939 137.7729 93.939 C 138.1609 93.939 138.2024 94.1618 138.3699 94.3569 C 139.1526 95.2259 139.5798 96.0422 140.176 96.9243 C 140.9817 97.966 141.7239 99.0708 142.5791 100.1333 C 142.7932 100.3992 142.6087 100.378 142.8478 100.1333 C 143.982 98.9988 145.0658 97.7965 146.0419 96.6556 C 146.5666 96.0449 146.8964 95.2745 147.445 94.6852 C 147.6872 94.425 147.833 94.0584 148.3108 94.0584 C 149.1466 94.0883 150.0124 94.0584 150.8481 94.0883 C 151.0272 94.0883 151.0869 94.1778 151.0869 94.3569 C 151.0869 94.8049 151.0869 94.8049 150.6093 94.8347 C 150.1318 94.8347 149.9825 94.7151 149.9825 95.4317 C 149.9825 96.0286 149.9825 96.596 150.0124 97.1929 C 150.0124 97.4018 150.0422 97.6108 150.0422 97.8197 C 150.0422 98.8348 150.0422 99.82 150.0422 100.8348 C 150.0422 102.1185 150.0124 103.3723 150.0124 104.656 C 150.0124 105.3724 149.9825 106.0889 149.9527 106.8351 C 149.9527 107.2234 150.0422 107.3726 150.4303 107.4025 C 150.5496 107.4025 150.669 107.4622 150.7884 107.4323 C 151.0571 107.3726 151.0571 107.5517 151.0571 107.701 Z " stroke-width="0.12102" fill="#000000" stroke="none"/></g></g><path d="M 88.8448 146.2421 C 75.4791 142.6307 58.9483 139.6567 50.7514 129.285 C 47.049 124.1716 58.5186 116.2968 65.0459 115.2718 C 73.8253 113.8984 81.7651 120.738 90.5935 122.9823 C 100.0556 125.4021 111.5908 123.8811 119.0233 130.2264 C 123.8591 134.3675 126.8628 145.6249 121.5316 148.2497 C 111.8554 153.5873 99.3698 149.0867 88.8448 146.2421 Z " data-paper-data="{&quot;index&quot;:null}" fill="#000000" stroke="#000000" stroke-width="1.5" stroke-linecap="round"/><path d="M 101.9782 149.1847 C 88.274 145.9503 73.7326 143.8709 60.8465 137.9029 C 55.977 135.6432 49.8028 130.4739 49.7595 124.6354 C 50.1823 120.052 56.8901 116.4552 61.6282 116.4543 C 70.855 116.4588 78.6911 123.9368 87.8524 125.4432 C 97.154 127.4818 107.4389 123.7074 116.465 126.9831 C 120.8144 128.5713 122.6541 134.6403 123.009 139.2608 C 123.2839 142.883 121.7199 148.5357 118.0806 150.0516 C 113.2037 152.0822 107.2011 150.4199 101.9782 149.1847 Z " data-paper-data="{&quot;index&quot;:null}" fill="#ffffff" stroke="none" stroke-width="1.00573" stroke-linecap="round"/><g data-paper-data="{&quot;index&quot;:null}"><g stroke-linecap="round"><path d="M 112.0257 127.6729 C 113.8029 128.9417 113.8413 131.8472 112.0174 133.2155 C 109.8724 134.826 105.9341 134.2513 102.8395 134.2494 C 99.9544 134.1119 96.2748 134.3976 94.3448 132.8207 C 92.7582 131.5226 93.4161 128.8028 95.2022 127.6488 C 97.2483 126.3275 100.6207 126.8906 103.3601 126.8598 C 106.1945 126.8404 109.9579 126.1193 112.0255 127.673 Z " stroke-width="0.60163" fill="#363a36" stroke="none"/><path d="M 110.3337 134.0441 C 112.1107 135.3127 112.1492 138.2182 110.3254 139.5867 C 108.1804 141.1972 104.242 140.6222 101.1476 140.6202 C 98.2623 140.4831 94.5828 140.7688 92.6529 139.1915 C 91.0661 137.8936 91.7239 135.1738 93.5101 134.0198 C 95.5563 132.6987 98.9285 133.2615 101.6681 133.231 C 104.5025 133.2116 108.2661 132.4903 110.3336 134.0438 Z " stroke-width="0.60163" fill="#363a36" stroke="none"/><path d="M 110.7128 141.3777 C 112.4902 142.6464 112.5285 145.552 110.7048 146.9204 C 108.5598 148.5307 104.6214 147.9559 101.5269 147.9541 C 98.6416 147.8169 94.9622 148.1023 93.0321 146.5254 C 91.4453 145.2274 92.1034 142.5075 93.8895 141.3535 C 95.9356 140.0322 99.308 140.5953 102.0476 140.5647 C 104.8819 140.5453 108.6454 139.8242 110.7128 141.3777 Z " stroke-width="0.60163" fill="#363a36" stroke="none"/><path d="M 111.4282 149.2345 C 113.2055 150.503 113.2438 153.4086 111.4201 154.777 C 109.2751 156.3875 105.3367 155.8125 102.2421 155.8107 C 99.3569 155.6735 92.8185 150.3642 94.6048 149.2101 C 96.6508 147.8891 100.0231 148.4519 102.7626 148.4214 C 105.5972 148.4019 109.3606 147.6808 111.4282 149.2345 Z " stroke-width="0.60163" fill="#363a36" stroke="none"/></g><g stroke-linecap="round"><path d="M 120.9662 130.5429 C 120.3573 130.9732 119.3095 130.1545 118.4984 129.9073 C 116.9948 129.4487 115.5018 128.9449 114.0203 128.4233 C 112.595 127.9218 111.18 127.3771 109.7716 126.8331 C 107.6123 126.0029 102.8976 124.894 103.41 124.0519 C 104.0522 123.3337 109.4775 122.5009 112.4754 123.1809 C 115.6458 123.9044 118.348 126.1468 120.8048 128.2782 C 121.4203 128.8113 121.5105 130.1586 129.1123 134.166 Z " fill="#363a36" stroke="#353937" stroke-width="1.83172"/><path d="M 142.0797 134.1144 C 144.7104 134.2824 148.5161 132.4654 149.9774 134.5661 C 152.1498 138.1857 151.684 142.0687 149.2995 150.3676 C 148.1764 151.2395 146.2886 150.225 144.7832 150.2384 C 140.2639 150.2788 135.718 150.1512 131.2141 150.5287 C 129.6487 150.6603 128.1219 151.1793 126.6589 151.7545 C 125.2487 152.3086 124.0782 153.4098 122.6424 153.8999 C 121.191 154.3962 119.631 154.5642 118.1002 154.6741 C 116.5986 154.7802 115.0246 154.9749 113.5835 154.5448 C 111.1429 153.8197 107.8739 153.6201 106.7798 151.4124 C 105.2934 148.3052 106.7626 144.505 107.0735 141.1373 C 107.3063 138.606 107.6281 136.0475 108.306 133.601 C 108.8391 131.7089 108.4912 128.9348 110.1516 128.3427 C 114.0562 127.1072 118.4588 128.2117 122.2233 129.0266 C 125.3634 129.7109 128.1401 131.569 131.1596 132.6722 C 132.6158 133.2044 134.114 133.6901 135.6436 133.9304 C 137.7657 134.2646 139.9365 134.0691 142.0797 134.1143 Z " fill="#ffffff" stroke="#ffffff" stroke-width="1.83172"/></g><path d="M 124.3691 131.5941 C 124.4271 131.708 124.4634 131.7787 124.4634 131.7787 C 124.4634 131.7787 124.4271 131.708 124.3691 131.5941 C 124.3098 131.4778 124.2296 131.3208 124.1407 131.1465 C 124.0514 130.972 123.9715 130.8152 123.9121 130.6987 C 123.854 130.5848 123.8176 130.5141 123.8176 130.5141 C 123.8176 130.5141 123.854 130.5848 123.9121 130.6987 C 123.9715 130.8152 124.0514 130.972 124.1407 131.1465 C 124.2296 131.3208 124.3098 131.4778 124.3691 131.5941 Z " fill="#eac18d" stroke="none" stroke-width="1.15123" stroke-linecap="butt"/><path d="M 117.6022 149.8992 C 115.2314 150.2251 112.1711 150.3703 111.0772 148.6974 C 109.8128 146.7045 111.0652 143.9246 111.2801 141.5975 C 111.4411 139.8482 111.6632 138.0806 112.1315 136.39 C 112.5002 135.0825 112.2597 133.1655 113.4069 132.7566 C 116.105 131.9028 119.116 132.6666 121.7488 133.2293 C 123.9187 133.6956 127.3796 133.6369 127.9235 135.7483 C 128.8217 139.6236 127.3367 144.1555 125.0145 147.3781 C 123.3872 149.6054 120.1573 149.7817 117.6022 149.8992 Z " fill="#000000" stroke="#000000" stroke-width="1.26571" stroke-linecap="round"/></g><g data-paper-data="{&quot;index&quot;:null}"><g stroke-linecap="round"><path d="M 113.4654 131.0952 C 115.8255 130.0374 119.3361 131.5733 122.096 132.2192 C 124.7607 132.8553 128.1741 133.0522 129.8772 134.7935 C 131.3637 136.314 131.4036 139.112 129.5691 140.0269 C 127.3381 141.1378 123.8129 140.0451 120.9688 139.5409 C 117.9505 138.8581 113.9826 138.5473 112.2471 136.5022 C 110.7711 134.7643 111.4514 131.9393 113.4652 131.0951 Z " stroke-width="0.60163" fill="#363a36" stroke="none"/><path d="M 113.7059 136.6825 C 116.0659 135.6249 119.5767 137.1609 122.3365 137.8069 C 125.0014 138.4427 128.4147 138.6399 130.1179 140.3809 C 131.6045 141.9015 131.6443 144.6994 129.8097 145.6142 C 127.5787 146.7254 124.0535 145.6328 121.2094 145.1282 C 118.1912 144.4455 114.2232 144.135 112.4877 142.0898 C 111.0118 140.3517 111.6921 137.5267 113.7058 136.6827 Z " stroke-width="0.60163" fill="#363a36" stroke="none"/><path d="M 120.844 141.3749 C 123.5089 142.0108 126.9223 142.2077 128.6254 143.949 C 130.112 145.4695 130.152 148.2676 128.3174 149.1824 C 126.0863 150.2933 122.5611 149.201 119.7171 148.6964 C 116.6987 148.0136 112.7309 147.7028 110.9952 145.6578 C 109.5195 143.9199 110.1996 141.0948 112.2136 140.2507 C 114.5735 139.1931 118.0842 140.729 120.844 141.3749 Z " stroke-width="0.60163" fill="#363a36" stroke="none"/><path d="M 119.9085 143.3787 C 122.5734 144.0146 125.9867 144.2117 127.6897 145.9526 C 129.1764 147.4733 121.6254 151.2046 118.7813 150.7 C 115.763 150.0172 111.795 149.7067 110.0595 147.6615 C 108.5838 145.9236 109.2639 143.0984 111.2778 142.2545 C 113.6378 141.1968 117.1485 142.7326 119.9085 143.3787 Z " stroke-width="0.60163" fill="#363a36" stroke="none"/></g><g stroke-linecap="round"><path d="M 95.8655 135.1472 C 104.1655 132.9208 104.5515 131.6269 105.2697 131.2431 C 108.1372 129.7081 111.2685 128.119 114.5204 128.1149 C 117.5945 128.1149 122.7011 130.1273 123.1685 130.9698 C 123.4819 131.9044 118.6387 131.9428 116.3492 132.2747 C 114.8554 132.4937 113.3549 132.7118 111.854 132.8856 C 110.2939 133.0665 107.7263 136.2275 106.1586 136.3422 C 105.3128 136.4037 92.1099 133.4703 91.6113 132.916 Z " fill="#363a36" stroke="#353937" stroke-width="1.83172"/><path d="M 89.5481 127.4724 C 91.093 127.5765 92.6615 127.4343 94.1994 127.2375 C 97.3881 126.8296 102.5071 124.1318 105.7208 124.1592 C 109.5723 124.1973 112.6102 127.5942 116.1447 129.6629 C 117.6329 130.6076 116.1799 131.236 116.2812 133.1992 C 116.4011 135.7351 116.1489 138.3014 115.8159 140.8215 C 115.374 144.1745 115.9661 148.2055 113.8292 150.9069 C 112.2738 152.8178 109.0415 152.2893 106.5011 152.4565 C 105.0005 152.5571 103.5086 152.019 102.0677 151.5834 C 100.5991 151.1375 99.1149 150.6285 97.8093 149.8234 C 96.5175 149.0278 95.6196 147.6949 94.3669 146.8426 C 93.0675 145.958 91.6933 145.114 90.1959 144.6394 C 85.887 143.2748 81.4255 142.3936 77.0272 141.3544 C 75.562 141.0083 73.4966 141.58 72.5941 140.4812 C 72.1048 131.8605 72.5095 127.9706 75.4289 124.9213 C 77.3187 123.1959 80.6282 125.8098 83.2308 126.228 C 85.3309 126.658 87.4047 127.329 89.5481 127.4724 Z " fill="#ffffff" stroke="#ffffff" stroke-width="1.83172"/></g><path d="M 101.3819 127.3023 C 101.5076 127.1519 101.6202 127.0167 101.7039 126.9162 C 101.7858 126.818 101.8369 126.7571 101.8369 126.7571 C 101.8369 126.7571 101.7858 126.818 101.7039 126.9162 C 101.6202 127.0167 101.5076 127.1519 101.3819 127.3023 C 101.2566 127.4527 101.1437 127.588 101.0601 127.6883 C 100.9784 127.7866 100.9273 127.8475 100.9273 127.8475 C 100.9273 127.8475 100.9784 127.7866 101.0601 127.6883 C 101.1437 127.588 101.2566 127.4527 101.3819 127.3023 Z " fill="#eac18d" stroke="none" stroke-width="1.15123" stroke-linecap="butt"/><path d="M 98.9388 135.9384 C 97.3871 132.2819 96.9415 135.5338 98.6748 131.9532 C 99.6723 130.0145 103.0344 130.8374 105.2538 130.8627 C 107.9459 130.8964 111.0512 130.8177 113.4935 132.2472 C 114.5218 132.8998 113.8418 131.598 113.6117 133.3396 C 113.3065 135.6566 113.9128 138.6446 112.2389 140.3085 C 110.802 141.6979 107.8496 140.8792 105.6097 140.0369 C 103.1439 139.3571 100.0331 138.4706 98.9388 135.9384 Z " fill="#000000" stroke="#000000" stroke-width="1.26571" stroke-linecap="round"/></g></g></g></svg>