<svg version="1.1" xmlns="http://www.w3.org/2000/svg" xmlns:xlink="http://www.w3.org/1999/xlink" width="219.30141" height="277.42684" viewBox="0,0,219.30141,277.42684"><g transform="translate(-200.20327,-122.52077)"><g data-paper-data="{&quot;isPaintingLayer&quot;:true}" fill-rule="nonzero" stroke-linejoin="miter" stroke-miterlimit="10" stroke-dasharray="" stroke-dashoffset="0" style="mix-blend-mode: normal"><path d="M268.63958,285.86362c-0.01582,-0.13415 -0.42516,1.29494 -0.63665,2.75689c-0.11521,0.7923 -0.02421,1.60435 -0.07099,2.40354c-0.0526,0.88655 -0.21948,1.77027 -0.22664,2.65804c-0.00744,0.85396 0.19094,1.70509 0.1835,2.55906c-0.00717,0.88777 -0.21353,1.76973 -0.22664,2.65804c-0.02475,1.65303 0.00338,3.31322 0.11237,4.96273c0.16363,2.47711 -0.54483,5.27822 0.70576,7.4228c1.20258,2.06074 4.24792,2.31713 5.95179,3.98801c1.20583,1.18176 1.97636,2.78962 2.57258,4.36922c0.62124,1.64383 1.15606,3.42222 1.03138,5.17491c-0.11508,1.61314 -1.2422,2.9949 -1.72564,4.53812c-0.25328,0.81002 -0.57188,1.65844 -0.48101,2.50253c0.09128,0.85004 0.8752,1.51658 1.00339,2.36122c0.24841,1.6341 0.19419,3.31241 0.11237,4.96273c-0.04111,0.84734 -0.40893,1.65722 -0.48101,2.50239c-0.07965,0.93307 0.03529,1.87724 0.02786,2.81369c-0.0073,0.80096 0.07951,1.61746 -0.07113,2.40354c-0.1735,0.89927 -0.50859,1.76973 -0.89115,2.60138c-0.33185,0.72131 -0.6687,1.48724 -1.2445,2.03572c-0.57986,0.55295 -1.38568,0.80988 -2.10672,1.15904c-0.7685,0.37201 -1.54971,0.73483 -2.36135,1.00353c-0.79947,0.26491 -1.62774,0.46464 -2.4602,0.59338c-0.8449,0.1309 -1.70604,0.23367 -2.55906,0.1835c-0.84774,-0.04976 -1.69251,-0.22786 -2.50253,-0.48114c-0.76404,-0.23922 -1.48318,-0.61583 -2.19137,-0.99c-0.70292,-0.37107 -1.44559,-0.71171 -2.03572,-1.2445c-0.63003,-0.56836 -0.84531,-1.56553 -1.56905,-2.00787c-0.72374,-0.44247 -1.65479,-0.43138 -2.50253,-0.48114c-0.85288,-0.05017 -1.70509,0.19094 -2.55906,0.18337c-0.88777,-0.00703 -1.78609,-0.05855 -2.65804,-0.22651c-0.80447,-0.15484 -1.56499,-0.49115 -2.34688,-0.73564c-0.78189,-0.24436 -1.60083,-0.39825 -2.34688,-0.73551c-0.72442,-0.32685 -1.41462,-0.74876 -2.03572,-1.2445c-0.6403,-0.51035 -1.17459,-1.14592 -1.7247,-1.7535c-0.63287,-0.69859 -1.22895,-1.4322 -1.82355,-2.16338c-0.5355,-0.65883 -1.20001,-1.24396 -1.56905,-2.008c-0.36701,-0.75836 -0.48804,-1.62395 -0.59352,-2.4602c-0.21528,-1.69481 -0.33577,-3.41005 -0.36687,-5.11825c-0.01636,-0.88804 0.21948,-1.77027 0.22664,-2.65791c0.00744,-0.85396 -0.16403,-1.70563 -0.18337,-2.55919c-0.01799,-0.80096 0.08898,-1.60259 0.07099,-2.40354c-0.01934,-0.85356 -0.23367,-1.70604 -0.18337,-2.55906c0.04976,-0.84774 0.27438,-1.6794 0.48101,-2.50253c0.19892,-0.79419 0.48276,-1.56743 0.73564,-2.34688c0.53483,-1.65019 0.86303,-3.3903 1.62666,-4.94826c1.1374,-2.31794 2.95649,-4.27375 4.04467,-6.6163c0.41245,-0.88737 0.27559,-1.93998 0.38215,-2.91241c0.09669,-0.88331 0.19432,-1.77027 0.22664,-2.65804c0.03435,-0.93686 -0.06856,-1.87791 -0.02786,-2.81355c0.1478,-3.37326 0.30832,-6.75816 0.59527,-10.12317c0.07208,-0.84531 0.36552,-1.66141 0.48114,-2.50253c0.12103,-0.87952 0.10548,-1.77838 0.22651,-2.65791c0.11562,-0.84112 0.32117,-1.66898 0.48114,-2.50253c0.15997,-0.83341 0.25031,-1.68575 0.48101,-2.50239c0.47222,-1.66898 1.09197,-3.29808 1.62679,-4.94826c0.25274,-0.77959 0.32996,-1.63558 0.73551,-2.34688c1.18081,-2.07345 2.26155,-4.30566 3.98801,-5.95179c0.66316,-0.63206 1.803,-0.51562 2.71457,-0.43787c1.78366,0.152 3.59598,0.45585 5.25942,1.11766c1.66087,0.66154 3.16758,1.70563 4.58058,2.80017c0.74484,0.57702 1.45952,1.29494 1.82355,2.16351c1.36093,3.24953 2.669,6.5856 3.2928,10.05299c0.24422,1.36161 -0.48385,2.72877 -0.74997,4.08591z" data-paper-data="{&quot;index&quot;:null,&quot;origPos&quot;:null}" id="ID0.7612559353001416" fill="#ff9400" stroke="#ff9400" stroke-width="1.76445" stroke-linecap="round"/><g data-paper-data="{&quot;index&quot;:null}" id="ID0.863757252227515" stroke-linecap="round"><path d="M281.0765,267.20621c0.67492,-0.34983 0.9727,0.83165 1.1608,2.03653c0.12062,0.77012 0.13888,1.5773 0.06058,2.3742c-0.07776,0.7919 -0.10494,1.65844 -0.52509,2.35446c-0.42029,0.69602 -1.14836,1.17932 -1.8391,1.56121c-0.68561,0.37945 -1.69414,0.04841 -2.2003,0.67506c-0.48128,0.59514 0.03232,1.5063 -0.15849,2.24195c-0.19081,0.73564 -0.39162,1.59096 -0.96309,2.09008c-0.60149,0.52509 -1.45505,0.5493 -2.2003,0.67506c-0.70778,0.119 -1.41651,0.03584 -2.12389,0.05342c-0.70751,0.01771 -1.43436,0.15457 -2.12389,0.05355c-0.78879,-0.11697 -1.50793,-0.47776 -2.26629,-0.70048c-0.6779,-0.1996 -1.38108,-0.3355 -2.04735,-0.56823c-0.65139,-0.22759 -1.30008,-0.47763 -1.89955,-0.81299c-1.85911,-1.03828 -3.61532,-2.26683 -5.47444,-3.30511c-0.5996,-0.33537 -1.29589,-0.48466 -1.89955,-0.81299c-1.27223,-0.69196 -2.45047,-1.55566 -3.72269,-2.24763c-0.60366,-0.32833 -1.29643,-0.48344 -1.89955,-0.81286c-1.34552,-0.73496 -2.70091,-1.4771 -3.94163,-2.37988c-0.56782,-0.41353 -0.97161,-1.03138 -1.45627,-1.54701c-0.48466,-0.51576 -1.08291,-0.93443 -1.45627,-1.54714c-0.38946,-0.6399 -0.747,-1.36202 -0.79406,-2.14918c-0.04679,-0.78162 0.22678,-1.60096 0.52509,-2.35446c0.27938,-0.70616 0.65072,-1.41841 1.18203,-1.95783c0.5351,-0.54375 1.46019,-0.56363 1.91023,-1.18419c1.39569,-1.92768 1.96906,-4.41344 3.47495,-6.25051c0.51008,-0.623 1.45573,-0.64517 2.20043,-0.67506c1.53403,-0.06234 3.06562,0.09304 4.53798,0.40217c1.37216,0.28885 2.6694,0.83436 3.9469,1.38122c0.628,0.26829 1.19406,0.66492 1.75174,1.05762c0.56201,0.39554 1.01232,0.92253 1.60407,1.30252c2.36568,1.51766 4.82007,2.91011 7.22632,4.36286c0.60163,0.36336 1.13767,0.76039 1.75174,1.05762c1.23761,0.59892 2.53377,1.08507 3.7991,1.62598c0.63246,0.27086 1.28791,0.49967 1.89968,0.81286c0.60731,0.31062 1.2065,0.64842 1.75174,1.05775c0.21528,0.162 0.41583,0.3566 0.50913,0.64139z" id="ID0.021321910433471203" fill="#990072" stroke="#990072" stroke-width="1.60471"/><path d="M310.45073,246.50334c-0.31319,0.38391 -1.54728,0.62462 -2.46724,1.18189c-0.73605,0.44517 -1.51104,0.83882 -2.21017,1.337c-0.74091,0.52779 -1.34714,1.22503 -2.1009,1.737c-0.64003,0.43503 -1.4111,0.67344 -2.0625,1.09237c-0.69061,0.44463 -1.26641,1.04261 -1.9531,1.49224c-1.43774,0.94065 -3.02356,1.67818 -4.42033,2.67427c-1.48142,1.05708 -2.80192,2.31686 -4.20194,3.47401c-0.69967,0.57796 -1.35593,1.21421 -2.1009,1.737c-0.87817,0.61569 -1.87115,1.0729 -2.76271,1.67128c-0.68128,0.45694 -1.30995,0.98703 -1.9531,1.49224c-1.35688,1.06695 -2.55824,2.35053 -4.05414,3.22938c-1.42787,0.83828 -2.96596,1.65938 -4.63886,1.87426c-0.78473,0.10061 -1.4702,-0.66451 -2.20408,-0.99677c-0.73375,-0.33212 -1.49035,-0.62191 -2.20395,-0.99677c-0.70859,-0.37161 -1.32834,-0.8019 -2.05628,-1.24139c-2.91065,-1.75742 -5.82846,-3.51904 -8.73911,-5.27633c-0.72793,-0.43949 -1.51604,-0.65613 -2.05628,-1.24153c-1.11807,-1.2107 -2.44993,-2.47156 -2.82113,-4.04088c-0.18066,-0.76498 0.96012,-1.20218 1.4391,-1.80259c0.47898,-0.60041 0.96472,-1.19812 1.4391,-1.80272c0.53307,-0.67857 0.92996,-1.48223 1.58677,-2.04735c0.58459,-0.50332 1.4487,-0.62408 2.0625,-1.09237c0.70156,-0.53686 1.14836,-1.34903 1.84383,-1.89211c1.96297,-1.53186 4.02263,-2.96109 6.1165,-4.32162c1.36918,-0.8898 2.90537,-1.53592 4.27266,-2.42951c0.76255,-0.49859 1.40123,-1.1589 2.1009,-1.737c0.69967,-0.57796 1.33822,-1.23828 2.1009,-1.737c1.36729,-0.89359 2.80138,-1.70279 4.27266,-2.42937c0.86532,-0.42732 1.85357,-0.60947 2.72417,-1.02679c0.77905,-0.37255 1.40691,-1.01259 2.21017,-1.33713c0.76242,-0.30764 1.61922,-0.35808 2.42883,-0.53726c0.94389,-0.20879 1.9101,-0.35213 2.83343,-0.62678c0.93213,-0.27735 1.79353,-0.74443 2.7243,-1.02665c0.78973,-0.23922 1.59461,-0.49182 2.4287,-0.53726c0.87898,-0.04774 1.77,0.1309 2.64736,0.26261c0.83868,0.12563 1.6917,0.23719 2.49942,0.50724c0.85694,0.28628 1.6656,0.71982 2.46115,1.15187c1.05437,0.57256 2.27007,0.9873 3.08428,1.86236c0.67817,0.72861 0.84031,1.7869 1.16972,2.70983c0.27925,0.78297 0.49534,1.58933 0.65572,2.39949c0.21569,1.08791 0.45829,2.18948 0.46938,3.28875c0.00893,0.82421 -0.36201,1.6034 -0.41096,2.42342c-0.04179,0.6921 0.53361,1.52578 0.14158,2.08914z" id="ID0.17367316223680973" fill="#cc0099" stroke="#cc0099" stroke-width="1.73425"/></g><path d="M285.28601,227.64634c0.42597,-0.58148 0.99528,-1.06424 1.35228,-1.69035c0.55038,-0.96282 0.66667,-2.17041 1.35228,-3.04263c0.59771,-0.76133 1.44829,-1.38473 2.36649,-1.69035c0.85464,-0.28533 1.81882,-0.16633 2.70456,0c0.94524,0.17715 1.80394,0.67614 2.70456,1.01421c0.90062,0.33807 1.8959,0.49358 2.70456,1.01421c0.80325,0.51657 1.35228,1.35228 2.02842,2.02842c0.78838,0.78838 1.70793,1.46722 2.36649,2.36649c0.595,0.81137 0.87898,1.81611 1.35228,2.70456c0.42732,0.80055 0.92496,1.56594 1.35228,2.36649c0.4733,0.88845 0.98716,1.76608 1.35228,2.70456c0.42597,1.09535 1.451,2.28941 1.01421,3.3807c-0.43003,1.07642 -2.0433,1.10211 -3.04263,1.69035c-0.91549,0.53821 -1.69035,1.37392 -2.70456,1.69035c-0.86005,0.2691 -1.97568,0.53009 -2.70456,0c-0.77756,-0.56525 -0.20284,-2.18799 -1.01421,-2.70456c-0.76539,-0.48682 -1.80935,0.18932 -2.70456,0.33807c-1.808,0.30156 -3.63087,0.56931 -5.40912,1.01421c-1.83099,0.45707 -3.53621,1.45641 -5.40912,1.69035c-0.9209,0.11494 -2.36243,0.09331 -2.70456,-0.67614c-0.33401,-0.75187 1.0061,-1.52672 1.35228,-2.36649c0.4476,-1.08723 0.77215,-2.22991 1.01421,-3.3807c0.2096,-0.99798 1.0088,-2.45574 0.33807,-3.04263c-0.68155,-0.59636 -2.51659,1.20218 -3.04263,0.67614c-0.48817,-0.48817 0.54767,-1.86344 1.01421,-2.70456c0.66803,-1.20082 1.55377,-2.27318 1.01421,-3.04263z" data-paper-data="{&quot;index&quot;:null}" id="ID0.9057894707657397" fill="#995900" stroke="#995900" stroke-width="2" stroke-linecap="round"/><g data-paper-data="{&quot;index&quot;:null}" id="ID0.2699596635065973" stroke-width="2" stroke-linecap="round"><path d="M353.2381,241.16914c-0.1501,0.81407 -0.20149,2.48279 -0.33807,4.05684c-0.09196,1.06424 -0.65856,2.03518 -1.01421,3.04263c-0.32049,0.90738 -0.58419,1.82152 -1.01421,2.70456c-1.7201,3.5308 -3.497,7.04944 -5.40912,10.48017c-1.91753,3.4402 -4.11228,6.733 -6.08526,10.1421c-0.5044,0.87087 -0.82895,1.84451 -1.35228,2.70456c-1.05478,1.73362 -2.03248,3.55379 -3.3807,5.07105c-1.37933,1.55107 -3.19409,2.66399 -4.73298,4.05684c-0.82624,0.74781 -1.51996,1.64167 -2.36649,2.36649c-1.52132,1.30495 -3.1116,2.53958 -4.73298,3.71877c-0.8587,0.62475 -1.82693,1.09264 -2.70456,1.69035c-1.59975,1.09129 -3.12106,2.30699 -4.73298,3.3807c-0.75457,0.50305 -1.59434,0.87493 -2.36649,1.35228c-1.59299,0.98581 -3.10213,2.12038 -4.73298,3.04263c-0.96553,0.54497 -2.05952,0.83977 -3.04263,1.35228c-1.60921,0.83977 -3.10889,1.89319 -4.73298,2.70456c-0.86005,0.43003 -1.79718,0.69372 -2.70456,1.01421c-1.00745,0.35565 -2.03518,0.65856 -3.04263,1.01421c-0.90738,0.32049 -1.79718,0.69372 -2.70456,1.01421c-1.00745,0.35565 -1.98109,0.8925 -3.04263,1.01421c-2.91011,0.33266 -5.86078,0.33807 -8.78982,0.33807c-0.90738,0 -1.82423,-0.11765 -2.70456,-0.33807c-0.93307,-0.23394 -1.79718,-0.69372 -2.70456,-1.01421c-1.00745,-0.35565 -2.06358,-0.58554 -3.04263,-1.01421c-0.83165,-0.36376 -1.56594,-0.92496 -2.36649,-1.35228c-0.88845,-0.4733 -1.93782,-0.70048 -2.70456,-1.35228c-1.51726,-1.29008 -2.86954,-2.79652 -4.05684,-4.39491c-1.7512,-2.35702 -3.3212,-4.86415 -4.73298,-7.43754c-0.51387,-0.93578 -0.72888,-2.01355 -1.01421,-3.04263c-0.27722,-1.00069 -0.55443,-2.01219 -0.67614,-3.04263c-0.10548,-0.89386 -0.0568,-1.80529 0,-2.70456c0.0568,-0.90603 0.05139,-1.84316 0.33807,-2.70456c0.28668,-0.8614 0.92496,-1.56594 1.35228,-2.36649c0.4733,-0.88845 0.79379,-1.86615 1.35228,-2.70456c0.57607,-0.86411 1.38744,-1.54971 2.02842,-2.36649c0.59771,-0.76133 1.04261,-1.64708 1.69035,-2.36649c1.38473,-1.53889 2.93174,-2.93174 4.39491,-4.39491c0.67614,-0.67614 1.29143,-1.42125 2.02842,-2.02842c1.18189,-0.97364 2.46115,-1.83099 3.71877,-2.70456c2.79516,-1.94187 5.63225,-3.84048 8.45175,-5.74719c1.0088,-0.6829 2.00949,-1.38338 3.04263,-2.02842c0.76945,-0.48141 1.60651,-0.85599 2.36649,-1.35228c1.83099,-1.19406 3.61465,-2.47062 5.40912,-3.71877c0.79514,-0.55308 1.54566,-1.17648 2.36649,-1.69035c0.98311,-0.61394 2.05952,-1.07642 3.04263,-1.69035c0.82083,-0.51387 1.54295,-1.18054 2.36649,-1.69035c1.54295,-0.95606 3.12377,-1.86479 4.73298,-2.70456c0.98311,-0.51251 2.02977,-0.90197 3.04263,-1.35228c1.01286,-0.45031 1.97703,-1.04802 3.04263,-1.35228c2.88847,-0.82489 5.80534,-1.68359 8.78982,-2.02842c2.9074,-0.33537 5.86213,0 8.78982,0c0.90062,0 1.8107,-0.11224 2.70456,0c0.9209,0.11494 1.81882,0.39892 2.70456,0.67614c0.9182,0.28668 1.78231,0.7424 2.70456,1.01421c0.99528,0.29344 2.03248,0.43814 3.04263,0.67614c0.90332,0.21231 1.79177,0.5044 2.70456,0.67614c0.8925,0.16768 1.8107,0.17985 2.70456,0.33807c1.02232,0.17985 2.03248,0.43814 3.04263,0.67614c0.90332,0.21231 1.83775,0.34348 2.70456,0.67614c0.61258,0.2353 1.47128,0.39487 1.69035,1.01421z" id="ID0.7598415482789278" fill="#00cc44" stroke="#00cc44"/><path d="M352.90003,241.50721c-0.14469,0.34213 -0.63828,1.72551 -1.01421,3.04263c-0.52874,1.84992 -1.19812,3.67415 -2.02842,5.40912c-0.41785,0.87357 -1.16702,1.55242 -1.69035,2.36649c-0.49088,0.76404 -0.96823,1.5443 -1.35228,2.36649c-0.40704,0.87222 -0.51928,1.87967 -1.01421,2.70456c-0.53415,0.8898 -1.4253,1.52132 -2.02842,2.36649c-0.52739,0.73835 -0.90197,1.57811 -1.35228,2.36649c-0.45031,0.78838 -0.8614,1.60245 -1.35228,2.36649c-0.52333,0.81407 -1.06424,1.62679 -1.69035,2.36649c-0.61664,0.72888 -1.27114,1.44559 -2.02842,2.02842c-0.71941,0.55308 -1.45911,1.35228 -2.36649,1.35228c-0.90738,0 -1.57811,-0.90197 -2.36649,-1.35228c-0.78838,-0.45031 -1.60245,-0.8614 -2.36649,-1.35228c-0.81407,-0.52333 -1.57811,-1.1278 -2.36649,-1.69035c-0.78838,-0.56255 -2.01895,-0.78703 -2.36649,-1.69035c-0.33266,-0.86681 0.1474,-1.94187 0.67614,-2.70456c0.55173,-0.79649 1.59569,-1.10346 2.36649,-1.69035c1.59434,-1.21435 3.31579,-2.30158 4.73298,-3.71877c1.41719,-1.41719 2.57474,-3.08726 3.71877,-4.73298c0.66127,-0.95201 1.24951,-1.97027 1.69035,-3.04263c0.35295,-0.8587 0.39892,-1.81882 0.67614,-2.70456c0.28668,-0.9182 0.72753,-1.78636 1.01421,-2.70456c0.27722,-0.88574 0.21501,-1.8986 0.67614,-2.70456c0.4733,-0.82895 1.15079,-1.65249 2.02842,-2.02842c0.8276,-0.3543 1.8107,-0.11224 2.70456,0c0.9209,0.11494 1.81882,0.39892 2.70456,0.67614c0.9182,0.28668 1.81611,0.64369 2.70456,1.01421c0.46518,0.19338 1.28061,0.17715 1.35228,0.67614z" id="ID0.8940488370135427" fill="#cc0099" stroke="#cc0099"/></g><path d="M344.71197,304.68534c-0.12766,0.04395 1.35566,0.14145 2.82924,0.03854c0.79879,-0.05517 1.57311,-0.31603 2.36406,-0.43949c0.87763,-0.13645 1.77663,-0.16038 2.64574,-0.34145c0.83625,-0.1735 1.62612,-0.54754 2.46223,-0.72104c0.86911,-0.18107 1.77487,-0.16606 2.64574,-0.34145c1.62084,-0.32576 3.23749,-0.70494 4.82642,-1.16066c2.38623,-0.68439 5.27389,-0.58513 7.10502,-2.26155c1.75945,-1.61165 1.36513,-4.64224 2.63735,-6.6612c0.89967,-1.42868 2.3078,-2.52227 3.7254,-3.43939c1.47493,-0.95525 3.09983,-1.85465 4.83913,-2.10374c1.60096,-0.22921 3.19016,0.57986 4.80073,0.7255c0.84518,0.076 1.74174,0.20785 2.54756,-0.05977c0.8115,-0.26924 1.29697,-1.17648 2.09522,-1.48061c1.54444,-0.58878 3.19625,-0.89115 4.82642,-1.16066c0.83679,-0.13928 1.70617,0.04882 2.54756,-0.05977c0.92861,-0.11981 1.82707,-0.43205 2.74391,-0.623c0.78432,-0.16254 1.56391,-0.42015 2.36406,-0.43949c0.91563,-0.02083 1.83734,0.12225 2.73107,0.32008c0.77526,0.1716 1.59515,0.33861 2.25317,0.78527c0.66316,0.44963 1.0848,1.18284 1.57879,1.81354c0.52631,0.67235 1.04639,1.35891 1.48075,2.09522c0.42827,0.72536 0.79893,1.49251 1.10103,2.27886c0.30683,0.79798 0.58959,1.61787 0.72104,2.46223c0.1309,0.83895 0.13577,1.70225 0.05977,2.54756c-0.07194,0.79744 -0.2879,1.58 -0.50359,2.35121c-0.2138,0.76566 -0.38946,1.56364 -0.78513,2.25317c-0.42205,0.73605 -1.35106,1.15769 -1.63017,1.95864c-0.27911,0.80109 -0.07113,1.70861 0.05964,2.5477c0.13158,0.84423 0.54767,1.62598 0.72117,2.46223c0.18107,0.86911 0.32103,1.75796 0.34132,2.64574c0.01907,0.81894 -0.14848,1.63355 -0.22191,2.44939c-0.07329,0.81583 -0.0503,1.64884 -0.22191,2.44939c-0.16592,0.77729 -0.43219,1.54106 -0.78513,2.25317c-0.36322,0.73388 -0.87127,1.39055 -1.34849,2.05682c-0.54889,0.76634 -1.13957,1.50428 -1.72835,2.24032c-0.53036,0.66289 -0.96161,1.43612 -1.63017,1.95864c-0.66356,0.51928 -1.48372,0.82083 -2.27873,1.10103c-1.61084,0.56931 -3.2617,1.05018 -4.92446,1.44221c-0.86451,0.20406 -1.77663,0.16038 -2.64574,0.34145c-0.83625,0.1735 -1.63207,0.52144 -2.46223,0.72104c-0.77905,0.18716 -1.58514,0.25247 -2.36406,0.43949c-0.83016,0.19973 -1.618,0.58973 -2.46237,0.72117c-0.83895,0.1309 -1.69941,0.08749 -2.54756,0.05977c-0.8184,-0.02623 -1.6341,-0.13996 -2.44939,-0.22191c-1.72605,-0.17323 -3.49619,-0.12563 -5.18045,-0.54213c-2.50632,-0.6207 -4.80289,-1.98447 -7.32273,-2.55189c-0.95471,-0.21515 -1.95445,0.14131 -2.92742,0.24328c-0.88372,0.0925 -1.77122,0.18486 -2.64574,0.34132c-0.9228,0.16471 -1.82071,0.46464 -2.74378,0.623c-3.3281,0.56972 -6.67026,1.12956 -10.01972,1.56175c-0.84139,0.10845 -1.70117,-0.00541 -2.54756,0.05964c-0.88534,0.06802 -1.7604,0.27343 -2.64574,0.34132c-0.84639,0.06518 -1.69914,0.03962 -2.54756,0.05977c-0.84842,0.02015 -1.70049,0.11237 -2.54756,0.05964c-1.73119,-0.10791 -3.45454,-0.36877 -5.18059,-0.54199c-0.81529,-0.08195 -1.66831,0.0238 -2.44939,-0.22191c-2.27643,-0.71495 -4.687,-1.29859 -6.66133,-2.63722c-0.75809,-0.51441 -0.88561,-1.65289 -1.00272,-2.56041c-0.22908,-1.77527 -0.31576,-3.61086 -0.02123,-5.3768c0.2948,-1.76324 0.99622,-3.45683 1.76662,-5.06956c0.40622,-0.85018 0.9566,-1.70076 1.72835,-2.24032c2.88779,-2.01814 5.8712,-4.00302 9.12789,-5.34678c1.27899,-0.52712 2.7692,-0.10507 4.15204,-0.13225z" data-paper-data="{&quot;index&quot;:null}" id="ID0.7612559353001416" fill="#ffd499" stroke="#ffd499" stroke-width="1.76445" stroke-linecap="round"/><path d="M368.45125,176.93583c-0.31508,-0.04192 -0.45031,-0.02299 -0.67614,0c-0.90332,0.0906 -1.82423,0.11765 -2.70456,0.33807c-0.93307,0.23394 -1.79718,0.69372 -2.70456,1.01421c-1.00745,0.35565 -2.04059,0.64504 -3.04263,1.01421c-1.13727,0.41921 -2.284,0.83571 -3.3807,1.35228c-0.82083,0.38675 -1.56459,0.92766 -2.36649,1.35228c-1.11293,0.58824 -2.26642,1.10481 -3.3807,1.69035c-1.02503,0.53956 -1.92024,1.39961 -3.04263,1.69035c-1.97298,0.51116 -4.07307,0.35159 -6.08526,0.67614c-1.48345,0.23935 -2.96961,0.53956 -4.39491,1.01421c-0.95471,0.31779 -1.73498,1.08318 -2.70456,1.35228c-1.08994,0.30291 -2.27183,0.1163 -3.3807,0.33807c-1.71334,0.34213 -3.41992,0.77756 -5.07105,1.35228c-0.95065,0.33131 -1.77013,0.9777 -2.70456,1.35228c-1.32253,0.52874 -2.68157,0.98176 -4.05684,1.35228c-1.55647,0.41921 -3.16974,0.6234 -4.73298,1.01421c-1.13997,0.28533 -2.25966,0.65991 -3.3807,1.01421c-1.01827,0.32184 -2.02436,0.69237 -3.04263,1.01421c-1.12104,0.3543 -2.24884,0.69913 -3.3807,1.01421c-0.89386,0.24882 -1.79583,0.48547 -2.70456,0.67614c-1.23193,0.25964 -2.51254,0.31508 -3.71877,0.67614c-1.06154,0.31914 -1.97027,1.06965 -3.04263,1.35228c-1.09399,0.28804 -2.2556,0.21366 -3.3807,0.33807c-0.90197,0.10007 -1.80259,0.238 -2.70456,0.33807c-1.1251,0.12441 -2.26236,0.16363 -3.3807,0.33807c-2.48684,0.3881 -4.95475,0.93848 -7.43754,1.35228c-0.89521,0.14875 -1.80935,0.18932 -2.70456,0.33807c-1.13186,0.18932 -2.27454,0.36917 -3.3807,0.67614c-0.92631,0.25693 -1.78636,0.72753 -2.70456,1.01421c-0.88574,0.27722 -1.80394,0.45031 -2.70456,0.67614c-0.90062,0.22583 -1.79177,0.5044 -2.70456,0.67614c-0.8925,0.16768 -1.82423,0.11765 -2.70456,0.33807c-0.93307,0.23394 -1.76608,0.80596 -2.70456,1.01421c-1.10481,0.24476 -2.25155,0.27587 -3.3807,0.33807c-0.89927,0.05003 -1.80394,0 -2.70456,0c-1.01286,0 -2.03518,0.11224 -3.04263,0c-1.03179,-0.11494 -2.10415,-0.23124 -3.04263,-0.67614c-1.24139,-0.58824 -2.50037,-1.31036 -3.3807,-2.36649c-0.87087,-1.04531 -1.69035,-2.35838 -1.69035,-3.71877c0,-1.7796 0.89386,-3.47942 1.69035,-5.07105c0.57337,-1.14809 1.59569,-2.01625 2.36649,-3.04263c0.9182,-1.22517 1.75526,-2.51659 2.70456,-3.71877c0.74105,-0.93983 1.51996,-1.85803 2.36649,-2.70456c1.07101,-1.07101 2.17988,-2.11902 3.3807,-3.04263c1.73227,-1.33335 3.5592,-2.55446 5.40912,-3.71877c1.19406,-0.75187 2.43816,-1.43747 3.71877,-2.02842c1.65113,-0.76269 3.45913,-1.1873 5.07105,-2.02842c0.99798,-0.52063 1.74985,-1.43206 2.70456,-2.02842c0.85329,-0.53415 1.81476,-0.88169 2.70456,-1.35228c1.02503,-0.54226 2.38272,-0.73699 3.04263,-1.69035c0.51251,-0.74105 -0.05274,-1.80529 0,-2.70456c0.0595,-1.01827 0.16092,-2.03924 0.33807,-3.04263c0.16092,-0.91414 0.39892,-1.81882 0.67614,-2.70456c0.28668,-0.9182 0.5639,-1.85398 1.01421,-2.70456c0.56931,-1.07642 1.13592,-2.21368 2.02842,-3.04263c0.73835,-0.68561 1.87426,-0.78162 2.70456,-1.35228c0.98581,-0.67749 1.73903,-1.65925 2.70456,-2.36649c0.73158,-0.53686 1.55512,-0.9466 2.36649,-1.35228c0.99122,-0.49629 2.02031,-0.92226 3.04263,-1.35228c1.11698,-0.47059 2.25019,-0.91279 3.3807,-1.35228c0.89656,-0.34889 1.82287,-0.62881 2.70456,-1.01421c0.92226,-0.40298 1.78231,-0.9493 2.70456,-1.35228c0.88169,-0.3854 1.85127,-0.56931 2.70456,-1.01421c1.74579,-0.91144 3.32526,-2.13119 5.07105,-3.04263c0.85329,-0.4449 1.78636,-0.72753 2.70456,-1.01421c0.88574,-0.27722 1.8391,-0.33942 2.70456,-0.67614c1.17243,-0.45572 2.20827,-1.23463 3.3807,-1.69035c0.86546,-0.33672 1.80935,-0.43138 2.70456,-0.67614c2.8195,-0.76945 5.68634,-1.4226 8.45175,-2.36649c1.86074,-0.63557 3.56867,-1.67683 5.40912,-2.36649c0.86952,-0.3259 1.84857,-0.31643 2.70456,-0.67614c1.29954,-0.54767 2.43275,-1.44964 3.71877,-2.02842c0.97364,-0.43814 2.02436,-0.69237 3.04263,-1.01421c1.12104,-0.3543 2.26507,-0.64233 3.3807,-1.01421c0.91279,-0.30426 1.80394,-0.67614 2.70456,-1.01421c0.90062,-0.33807 1.75661,-0.85058 2.70456,-1.01421c2.3408,-0.40298 4.75191,-0.32049 7.09947,-0.67614c1.37662,-0.20825 2.69915,-0.70589 4.05684,-1.01421c1.11969,-0.25423 2.23938,-0.54903 3.3807,-0.67614c0.89521,-0.10007 1.8107,-0.11224 2.70456,0c0.9209,0.11494 1.92429,0.17444 2.70456,0.67614c0.87357,0.5612 1.32388,1.6038 2.02842,2.36649c0.64774,0.70183 1.47263,1.25086 2.02842,2.02842c0.58554,0.81948 0.90197,1.80394 1.35228,2.70456c0.45031,0.90062 1.0683,1.73903 1.35228,2.70456c0.28804,0.9777 0.27857,2.02436 0.33807,3.04263c0.05274,0.89927 -0.33401,1.86885 0,2.70456c0.3854,0.96418 1.08723,1.927 2.02842,2.36649c0.9182,0.42867 2.02977,0 3.04263,0c0.90062,0 1.80394,0 2.70456,0c0.90062,0 1.8107,-0.11224 2.70456,0c0.9209,0.11494 1.78231,0.56796 2.70456,0.67614c1.0061,0.119 2.03653,-0.119 3.04263,0c0.92226,0.10818 1.78366,0.5612 2.70456,0.67614c0.89386,0.11224 1.8107,-0.11224 2.70456,0c0.9209,0.11494 1.80124,0.46383 2.70456,0.67614c1.01015,0.238 2.06358,0.33131 3.04263,0.67614c0.9493,0.33537 1.80394,0.90197 2.70456,1.35228c1.12645,0.56255 2.25425,1.1278 3.3807,1.69035c0.90062,0.45031 1.88508,0.76674 2.70456,1.35228c0.77756,0.55579 1.41178,1.29954 2.02842,2.02842c0.62611,0.7397 1.33064,1.46722 1.69035,2.36649c0.33672,0.84247 0.39487,1.79853 0.33807,2.70456c-0.05815,0.92631 -0.39892,1.81882 -0.67614,2.70456c-0.28668,0.9182 -0.5612,1.85533 -1.01421,2.70456c-0.45572,0.85464 -1.0061,1.68224 -1.69035,2.36649c-0.68425,0.68425 -1.57811,1.1278 -2.36649,1.69035c-0.78838,0.56255 -1.55242,1.16702 -2.36649,1.69035c-0.76404,0.49088 -1.53484,0.98852 -2.36649,1.35228c-0.97905,0.42867 -2.00273,0.76945 -3.04263,1.01421c-0.88304,0.20825 -1.82423,0.11765 -2.70456,0.33807c-0.93307,0.23394 -1.78636,0.72753 -2.70456,1.01421c-0.88574,0.27722 -1.81882,0.39892 -2.70456,0.67614c-0.9182,0.28668 -1.80394,0.67614 -2.70456,1.01421c-0.90062,0.33807 -1.78636,0.72753 -2.70456,1.01421c-0.88574,0.27722 -1.81341,0.4138 -2.70456,0.67614c-1.02503,0.30156 -2.03518,0.65856 -3.04263,1.01421c-0.90738,0.32049 -1.79718,0.69372 -2.70456,1.01421c-1.00745,0.35565 -1.98785,0.84788 -3.04263,1.01421c-1.11157,0.1758 -2.25425,0 -3.3807,0c-1.23869,0 -2.48414,0.09736 -3.71877,0c-1.41178,-0.11224 -2.94391,-0.45978 -3.04263,-0.33807z" data-paper-data="{&quot;index&quot;:null}" id="ID0.2503355722874403" fill="#ffffff" stroke="#ffffff" stroke-width="2" stroke-linecap="round"/><path d="M372.89376,168.3594c0.39432,5.32717 -0.84179,11.27342 -0.95228,17.1415c-0.0476,2.53701 0,5.0816 0,7.61848c0,1.26844 -1.02476,4.09119 0,3.80924c2.39218,-0.66086 4.17679,-4.4682 7.047,-5.33299c4.52351,-1.72172 9.56698,-2.86643 14.47521,-2.09495c3.98247,0.51224 8.36507,2.02261 10.85624,5.42805c2.25898,3.01126 2.40178,7.45282 1.71415,11.14211c-0.46464,2.47981 -2.92917,4.49106 -5.23765,5.80899c-3.2283,1.95986 -6.95762,3.15609 -10.85638,3.71404c-4.89674,0.70089 -10.41256,-2.07034 -14.85602,0c-3.1235,1.60178 -2.52173,6.75383 -4.57111,9.42796c-3.47969,4.53866 -6.54801,10.37253 -11.90385,12.37999c-11.88668,4.45685 -24.92198,6.11758 -37.61624,6.19006c-5.21291,0.02853 -9.36116,-3.15027 -13.4276,-5.80913c-2.83979,-1.82463 -4.43575,-4.50066 -6.09473,-7.14234c-1.57703,-2.48738 -0.82665,-5.95193 -2.66643,-8.09461c-0.88764,-0.97716 -2.27413,-0.3543 -3.3331,0c-3.21883,1.06844 -5.3196,4.65482 -8.47555,4.38058c-7.31949,-0.64571 -16.93596,-0.19622 -20.95088,-6.09473c-4.35772,-6.78047 -0.35808,-16.08456 1.14281,-23.90304c0.70278,-3.66441 2.6264,-7.72328 5.42819,-10.47544c2.88739,-2.79219 6.93666,-4.66253 11.04678,-5.80899c4.11391,-0.96566 8.64499,1.05897 13.04666,-0.38094c2.78069,-0.90278 4.25874,-4.05305 6.6662,-5.71392c2.21882,-1.52943 4.59572,-2.92363 7.1422,-3.80924c1.19812,-0.41704 2.16757,0.36958 3.80924,0c6.56721,-1.47412 12.8848,-4.11783 19.52246,-5.23765c6.58425,-1.11049 13.32469,-1.60948 19.99847,-1.42855c5.13299,0.13915 10.20688,1.34849 15.23695,2.38082c1.25708,0.25707 3.11592,-0.02285 3.3331,1.42841z" data-paper-data="{&quot;index&quot;:null}" id="ID0.7223125267773867" fill="#ffd499" stroke="#ffd499" stroke-width="2.8169" stroke-linecap="round"/><path d="M364.3341,175.11688c1.49346,2.82059 2.41734,6.71529 2.41734,11.01446c0,4.29917 -0.92388,8.19387 -2.41734,11.01446c-1.49332,2.82045 -3.55609,4.56679 -5.83157,4.56679c-2.27548,0 -4.33839,-1.74633 -5.83171,-4.56679c-1.49332,-2.82059 -2.4172,-6.71529 -2.4172,-11.01446c0,-4.29917 0.92388,-8.19387 2.4172,-11.01446c1.49332,-2.82045 3.55623,-4.56679 5.83171,-4.56679c2.27548,0 4.33825,1.74633 5.83157,4.56679z" data-paper-data="{&quot;index&quot;:null}" id="ID0.572308739181608" fill="#ffffff" stroke="none" stroke-width="0.9037" stroke-linecap="butt"/><path d="M298.43302,179.14897c1.38487,-2.38461 4.41736,-3.6187 6.61968,-5.42819c1.15593,-0.95038 2.29279,-3.10443 3.46752,-2.85683c1.08439,0.22854 0.69981,2.54066 1.05072,3.80924c0.34889,1.26844 0.53807,2.58637 1.05086,3.80924c0.61353,1.45695 1.48156,2.82261 2.31159,4.19018c0.71238,1.17324 1.23152,2.51592 2.31172,3.4283c1.099,0.92942 2.73823,1.15417 3.99274,1.90455c2.46507,1.47426 5.62995,2.46467 7.14518,4.76151c0.72293,1.0971 -1.12645,2.34851 -1.68115,3.52364c-0.59892,1.26655 -1.00042,2.62829 -1.78636,3.80924c-0.76918,1.15796 -1.66641,2.30456 -2.83695,3.14256c-1.22733,0.87993 -2.64371,1.78082 -4.20302,1.90469c-1.46682,0.11616 -2.79922,-0.84004 -4.20302,-1.23801c-1.50049,-0.42664 -3.17962,-0.49331 -4.51824,-1.23801c-1.20421,-0.67046 -2.04898,-1.79421 -2.83708,-2.85696c-0.80271,-1.08372 -1.4395,-2.28549 -1.8913,-3.5235c-1.40799,-3.84927 -2.75297,-7.74613 -3.67766,-11.71345c-0.4119,-1.77135 -1.24613,-3.82641 -1.36594,-4.19018z" data-paper-data="{&quot;index&quot;:null}" id="ID0.2513223886489868" fill="#995900" stroke="#995900" stroke-width="2.96607" stroke-linecap="round"/><path d="M380.08086,218.3156c1.64437,0.05274 3.94731,-0.70183 4.93582,0.40568c0.85599,0.97905 -0.6207,3.09131 -1.35228,4.19207c-0.54226,0.8019 -1.45911,1.35093 -2.36649,1.69035c-0.95471,0.35835 -2.06493,0.05003 -3.04263,0.33807c-0.96553,0.28398 -1.81611,0.87898 -2.70456,1.35228c-0.80055,0.42732 -1.57811,0.90197 -2.36649,1.35228c-0.78838,0.45031 -1.47128,1.20353 -2.36649,1.35228c-1.88778,0.31508 -3.85941,0.31508 -5.74719,0c-0.89521,-0.14875 -1.62815,-0.82489 -2.36649,-1.35228c-0.84518,-0.60312 -1.3631,-1.76067 -2.36649,-2.02842c-0.89656,-0.23935 -1.81882,0.39892 -2.70456,0.67614c-0.9182,0.28668 -1.75932,0.83706 -2.70456,1.01421c-0.88574,0.16633 -1.8107,0.11224 -2.70456,0c-0.9209,-0.11494 -1.85398,-0.30426 -2.70456,-0.67614c-0.97364,-0.42597 -1.99597,-0.89927 -2.70456,-1.69035c-1.24951,-1.39691 -2.17582,-3.07238 -3.04263,-4.73298c-0.49358,-0.9466 -0.89115,-1.98109 -1.01421,-3.04263c-0.21907,-1.90131 -0.07708,-3.83507 0,-5.74719c0.03651,-0.90738 0.17039,-1.81206 0.33807,-2.70456c0.17174,-0.91279 0.33131,-1.84316 0.67614,-2.70456c0.33672,-0.84247 0.87087,-1.59704 1.35228,-2.36649c0.64504,-1.03314 1.19947,-2.15013 2.02842,-3.04263c0.65856,-0.70995 1.45911,-1.35093 2.36649,-1.69035c0.95471,-0.35835 2.17447,-0.87222 3.04263,-0.33807c0.94389,0.58148 0.80866,2.07575 1.35228,3.04263c0.47465,0.84382 0.97635,1.71199 1.69035,2.36649c0.66938,0.61394 1.54836,0.96012 2.36649,1.35228c1.77419,0.84788 3.56867,1.67683 5.40912,2.36649c0.86952,0.3259 1.78366,0.5612 2.70456,0.67614c0.89386,0.11224 2.00137,-0.56255 2.70456,0c0.72482,0.58013 0.33131,1.84316 0.67614,2.70456c0.33672,0.84247 0.90197,1.57811 1.35228,2.36649c0.45031,0.78838 0.73835,1.69711 1.35228,2.36649c0.6545,0.714 1.48886,1.28737 2.36649,1.69035c1.09264,0.50711 2.26236,0.55849 3.3807,0.67614c0.73835,0.15416 1.44694,0.119 2.16365,0.13523z" data-paper-data="{&quot;index&quot;:null}" id="ID0.6166942031122744" fill="#663b00" stroke="#663b00" stroke-width="2" stroke-linecap="round"/><path d="M366.5256,184.45856c0.56255,1.39014 0.91144,3.30768 0.91144,5.42535c0,2.11767 -0.34889,4.0352 -0.91144,5.42535c-0.56255,1.38879 -1.34011,2.24884 -2.19881,2.24884c-0.8587,0 -1.63626,-0.86005 -2.19881,-2.24884c-0.56255,-1.39014 -0.91144,-3.30768 -0.91144,-5.42535c0,-2.11767 0.34889,-4.0352 0.91144,-5.42535c0.56255,-1.38879 1.34011,-2.24884 2.19881,-2.24884c0.8587,0 1.63626,0.86005 2.19881,2.24884z" data-paper-data="{&quot;index&quot;:null}" id="ID0.1892412044107914" fill="#995900" stroke="none" stroke-width="1" stroke-linecap="round"/><path d="M369.8729,198.03248c0,0 -0.02515,-0.92685 0.10615,-1.36269c0.11521,-0.38188 0.37891,-0.7067 0.61542,-1.028c0.43273,-0.58743 0.89453,-1.15809 1.38987,-1.6936c0.3451,-0.37309 1.12767,-1.02692 1.12767,-1.02692" data-paper-data="{&quot;index&quot;:null}" id="ID0.9068403104320168" fill="none" stroke="#ff9400" stroke-width="0.72566" stroke-linecap="round"/><g data-paper-data="{&quot;index&quot;:null}" id="ID0.12245760392397642" fill="none" stroke="#ff9400" stroke-width="1.6338" stroke-linecap="round"><path d="M271.42419,194.26881c0,0 1.57203,-1.26262 2.48549,-1.65695c0.73902,-0.31927 1.58852,-0.27181 2.37515,-0.44193c0.74118,-0.16025 1.45816,-0.44517 2.20936,-0.55241c0.8019,-0.11481 1.62057,-0.09168 2.43032,-0.11048c0.73564,-0.01758 1.48683,-0.13915 2.20936,0c0.7378,0.14145 1.4272,0.49277 2.09887,0.82854c0.7301,0.36566 1.3896,0.86384 2.09887,1.27047c0.67168,0.38432 1.43382,0.62854 2.04357,1.10468c0.58554,0.45734 1.14457,1.00082 1.49143,1.65695c0.35457,0.6706 0.28601,1.49914 0.55227,2.20936c0.28831,0.76999 0.96107,1.39961 1.10468,2.20936c0.28831,1.63058 0.25964,3.31741 0.16579,4.97112c-0.09168,1.61503 -0.33036,3.23452 -0.71806,4.80533c-0.40663,1.6437 -0.99866,3.24561 -1.65708,4.80533c-0.39432,0.93348 -0.92455,1.81165 -1.49129,2.65128c-0.43084,0.63855 -0.77878,1.47588 -1.49129,1.76743c-1.43058,0.58554 -3.04236,0.82408 -4.5845,0.71806c-1.23058,-0.08398 -3.47969,-1.27033 -3.47969,-1.27033" id="ID0.5088158850558102"/><path d="M290.20372,198.41139c0,0 -0.93672,2.14864 -1.76743,2.92742c-0.70819,0.66383 -1.79515,0.75782 -2.65128,1.21516c-0.76553,0.40866 -1.49454,0.88818 -2.20936,1.38081c-0.35457,0.24409 -0.9942,0.82854 -0.9942,0.82854" id="ID0.15313750924542546"/></g><path d="M351.75059,156.17833c-0.23935,-0.50981 0.57472,-1.00069 1.01421,-1.35228c0.70859,-0.56661 1.6633,-0.77891 2.36649,-1.35228c0.77756,-0.63422 1.38744,-1.45776 2.02842,-2.23126c0.66667,-0.80461 1.14268,-1.77554 1.89319,-2.50172c0.66397,-0.64233 1.41313,-1.81882 2.29888,-1.55512c0.99528,0.2975 1.03855,1.80394 1.55512,2.70456c0.45166,0.78703 0.92496,1.56594 1.35228,2.36649c0.4733,0.88845 0.81813,1.85127 1.35228,2.70456c0.52874,0.84382 1.28196,1.53349 1.82558,2.36649c0.51792,0.79244 0.87222,1.68629 1.35228,2.50172c0.48817,0.82895 0.67614,2.0433 1.55512,2.4341c0.83977,0.37323 1.82152,-0.28668 2.70456,-0.54091c0.92496,-0.2664 2.28265,-1.43612 2.70456,-1.01421c0.42326,0.42326 -0.5044,1.88914 -1.01421,2.70456c-0.63422,1.01421 -1.61597,1.77284 -2.36649,2.70456c-0.64639,0.80325 -1.11428,1.75526 -1.82558,2.50172c-0.6518,0.68561 -1.35498,2.11361 -2.23126,1.75796c-2.67211,-1.08453 -4.49363,-3.62817 -6.7614,-5.40912c-0.77215,-0.60582 -1.60921,-1.13321 -2.36649,-1.75796c-1.42801,-1.17784 -2.84655,-2.38001 -4.19207,-3.65116c-1.13456,-1.07236 -2.58015,-1.96892 -2.56933,-1.89319z" data-paper-data="{&quot;index&quot;:null}" id="ID0.8964866125024855" fill="#663b00" stroke="#663b00" stroke-width="2" stroke-linecap="round"/><g data-paper-data="{&quot;index&quot;:null}" id="ID0.863757252227515" stroke-linecap="round"><path d="M336.71729,289.88003c-0.07275,-0.86708 1.30671,-0.66194 2.66264,-0.33077c0.86681,0.21123 1.72767,0.547 2.53526,0.98027c0.80258,0.43057 1.70631,0.84044 2.25682,1.59055c0.55065,0.75011 0.74118,1.73214 0.84085,2.62991c0.09926,0.89142 -0.69413,1.81138 -0.2545,2.62194c0.41704,0.77026 1.60583,0.6284 2.29928,1.1535c0.69331,0.52523 1.50874,1.1136 1.78474,1.93701c0.29033,0.86654 -0.05964,1.7792 -0.2545,2.62207c-0.18553,0.80014 -0.58527,1.51239 -0.87777,2.26764c-0.2925,0.75538 -0.46762,1.58352 -0.87763,2.26764c-0.47059,0.78202 -1.1681,1.38338 -1.737,2.0867c-0.50913,0.62854 -0.96201,1.31158 -1.5009,1.91334c-0.52712,0.58811 -1.07669,1.1635 -1.69468,1.64965c-1.91483,1.50766 -3.98558,2.82289 -5.9004,4.33068c-0.61799,0.48601 -1.08196,1.1562 -1.69454,1.64965c-1.29075,1.0399 -2.7216,1.90496 -4.01235,2.94486c-0.61258,0.49345 -1.08115,1.15728 -1.69454,1.64965c-1.36837,1.09846 -2.74878,2.20422 -4.24832,3.11809c-0.68682,0.41799 -1.51726,0.57296 -2.27535,0.85829c-0.75809,0.2852 -1.46357,0.73321 -2.27535,0.85829c-0.84734,0.12995 -1.7677,0.19013 -2.62004,-0.10629c-0.84653,-0.29439 -1.5919,-0.94376 -2.25696,-1.59055c-0.62327,-0.60582 -1.21245,-1.31144 -1.54877,-2.1101c-0.33929,-0.80474 0.04665,-1.79096 -0.41109,-2.53945c-1.423,-2.32268 -3.79734,-4.02168 -5.07605,-6.42103c-0.43408,-0.81299 -0.04152,-1.82193 0.2545,-2.62207c0.60893,-1.64829 1.4468,-3.19841 2.42112,-4.61804c0.90873,-1.32294 2.05574,-2.45371 3.19544,-3.56299c0.55984,-0.54565 1.22787,-0.96931 1.88819,-1.38582c0.66505,-0.42002 1.42003,-0.66397 2.0817,-1.12212c2.64438,-1.83207 5.19533,-3.81302 7.78859,-5.71649c0.64869,-0.476 1.30387,-0.86776 1.88819,-1.38582c1.17716,-1.04423 2.26088,-2.20002 3.38908,-3.29929c0.56444,-0.54903 1.09454,-1.14092 1.69454,-1.64951c0.59527,-0.50508 1.21584,-0.98973 1.88819,-1.38582c0.26586,-0.15632 0.55957,-0.28263 0.9017,-0.25599z" id="ID0.021321910433471203" fill="#990072" stroke="#990072" stroke-width="1.83666"/><path d="M327.85512,249.81805c0.26789,0.4998 -0.02042,1.90955 0.16363,3.12688c0.14672,0.97351 0.22177,1.96554 0.44071,2.92349c0.23165,1.01502 0.70183,1.96229 0.9113,2.98394c0.1781,0.86762 0.09087,1.78731 0.24706,2.6598c0.16592,0.92537 0.54456,1.79677 0.71766,2.72011c0.36146,1.93295 0.44328,3.93311 0.88128,5.84712c0.46545,2.03031 1.21584,3.97963 1.8226,5.96788c0.30305,0.99366 0.68669,1.96703 0.9113,2.98394c0.26437,1.19893 0.31075,2.44911 0.55078,3.6544c0.18323,0.9209 0.46681,1.81841 0.71779,2.72025c0.5305,1.90293 1.35837,3.73703 1.62896,5.70419c0.25774,1.87751 0.44896,3.86387 -0.05991,5.7261c-0.23881,0.87344 -1.3489,1.26127 -2.02274,1.89049c-0.67371,0.62922 -1.31266,1.30116 -2.02261,1.89035c-0.7044,0.58527 -1.43179,1.05086 -2.21625,1.62679c-3.13715,2.30253 -6.28215,4.61073 -9.41931,6.91326c-0.78446,0.5758 -1.36012,1.31333 -2.21625,1.62666c-1.77108,0.64896 -3.68916,1.50157 -5.51068,1.20366c-0.88777,-0.14564 -0.84801,-1.54336 -1.27182,-2.31362c-0.4238,-0.77012 -0.84166,-1.54633 -1.27168,-2.31348c-0.48249,-0.86181 -1.15715,-1.63464 -1.46547,-2.57731c-0.27465,-0.83895 -0.02218,-1.80516 -0.24706,-2.6598c-0.25869,-0.97729 -0.92023,-1.80678 -1.18825,-2.78056c-0.75511,-2.74797 -1.35945,-5.553 -1.87615,-8.36399c-0.33793,-1.83802 -0.34483,-3.74541 -0.68763,-5.58316c-0.19148,-1.02516 -0.60839,-1.99042 -0.9113,-2.98408c-0.30305,-0.99352 -0.71982,-1.95878 -0.9113,-2.98394c-0.34294,-1.83775 -0.56715,-3.70903 -0.68777,-5.58329c-0.07072,-1.10224 0.17147,-2.22653 0.11346,-3.33013c-0.05098,-0.98703 -0.45126,-1.932 -0.44071,-2.92349c0.01014,-0.94105 0.33374,-1.86845 0.50061,-2.80274c0.19459,-1.08926 0.46816,-2.17311 0.58405,-3.26968c0.11684,-1.10698 0.00216,-2.22261 0.11346,-3.33026c0.09466,-0.93956 0.18161,-1.90131 0.50061,-2.8026c0.33618,-0.94971 0.91685,-1.8126 1.4418,-2.68171c0.50183,-0.83098 0.99487,-1.68318 1.63545,-2.41801c0.67939,-0.77959 1.49319,-1.44342 2.29982,-2.09374c1.06871,-0.86235 2.04167,-1.96446 3.32431,-2.44005c1.0683,-0.39608 2.2579,-0.10183 3.378,-0.04408c0.95011,0.04949 1.89711,0.1758 2.8237,0.36268c1.2445,0.25058 2.51524,0.47884 3.68172,0.95065c0.87465,0.35322 1.53497,1.08777 2.37988,1.50022c0.71279,0.34862 1.84694,0.10724 2.2698,0.76931z" id="ID0.17367316223680973" fill="#cc0099" stroke="#cc0099" stroke-width="1.98493"/></g><path d="M291.28027,300.0861c2.06777,3.02924 3.99396,6.14652 5.68377,9.53723c3.51606,7.12909 6.15869,14.66872 9.22499,22.02242c0.76066,1.83951 0.78838,2.82559 0.93929,4.28686c0.09358,1.06641 -0.55214,2.03167 -0.91536,3.1193c-0.63246,1.86696 -1.2633,3.85576 -2.54377,5.35976c-1.8702,2.19651 -3.96732,4.56138 -6.6969,5.49526c-2.80382,0.95931 -5.96004,0.24598 -8.89598,-0.15768c-0.96986,-0.13361 -1.69305,-0.99082 -2.57285,-1.41935c-1.00556,-0.49101 -2.20395,-0.64477 -3.08185,-1.33862c-1.55052,-1.22422 -2.96704,-2.67724 -4.07429,-4.31269c-2.3151,-3.41789 -4.21749,-7.11624 -6.13976,-10.76956c-2.42775,-4.61182 -5.00087,-9.19226 -6.91786,-14.03829c-1.42868,-3.61356 -3.17637,-7.3706 -3.08523,-11.25286c0.0925,-4.12459 1.51482,-8.41254 3.10943,-12.33753c1.53281,-3.78057 2.74283,-8.67163 6.31988,-11.17565c1.53578,-0.94538 2.88266,2.6717 4.28849,4.01776c0.67817,0.67127 1.42801,0.93145 2.27805,1.20502c0.97946,0.96593 1.97501,1.8625 3.1573,2.47481c0.96539,0.5017 2.09887,0.8514 2.86765,1.63355c2.35757,2.38745 4.86185,4.93001 7.05498,7.65026z" data-paper-data="{&quot;index&quot;:null}" id="ID0.4583347821608186" fill="#00cc44" stroke="#00cc44" stroke-width="2.15608" stroke-linecap="round"/><path d="M306.38645,348.88759c-1.76432,4.83346 -3.91566,9.47867 -5.8263,14.35689c-2.52052,6.36113 -5.12474,12.70819 -7.4796,19.39562c-0.58865,1.67209 -0.14983,1.92768 -0.55917,2.78651c-0.47343,0.99528 -1.04734,2.07088 -2.03085,2.65399c-1.61746,0.95741 -3.5208,1.64897 -5.45077,1.77811c-2.81842,0.18837 -5.91217,0.33672 -8.47704,-0.84558c-2.63478,-1.21448 -4.37828,-3.73175 -6.17722,-5.9069c-0.59406,-0.7186 -0.52063,-1.74038 -0.85004,-2.58948c-0.37566,-0.97121 -0.79568,-1.94025 -1.26479,-2.86994c-0.81177,-1.59677 -3.41045,-2.78921 -3.32918,-4.61249c0.21109,-4.64738 2.15175,-9.24419 3.70403,-13.72159c1.65938,-4.75367 2.8314,-9.88206 5.23765,-14.4099c2.29577,-4.30931 4.98072,-8.58766 8.31788,-12.26789c1.43518,-1.55634 3.15257,-3.02613 5.17288,-3.63506c3.53473,-0.63936 7.50434,-1.02138 10.78592,0.04855c2.80706,0.92496 4.54258,3.80626 6.33043,5.95314c1.69671,4.42385 3.3665,5.57694 3.63222,7.75249c0.23151,2.1316 -1.03436,4.21668 -1.73606,6.13354z" data-paper-data="{&quot;index&quot;:null}" id="ID0.4583347821608186" fill="#00cc44" stroke="#00cc44" stroke-width="2.04487" stroke-linecap="round"/><path d="M267.55789,374.92115c1.27195,-0.46262 3.93933,0.74943 6.59575,0.91401c2.12835,0.13171 4.26793,-0.10426 6.39913,-0.05855c0.99798,0.0211 1.99123,0.21988 2.9903,0.2568c1.06465,0.03922 2.13687,0.02583 3.1995,-0.02921c1.13997,-0.05869 2.28616,-0.1286 3.40883,-0.31522c1.12266,-0.18648 2.29969,-0.31576 3.31052,-0.80136c0.90468,-0.43476 1.52632,-1.25965 2.28928,-1.88805c0.76296,-0.62827 1.41178,-1.4084 2.28928,-1.88792c0.91603,-0.49994 2.003,-0.66762 3.00287,-1.00163c0.99988,-0.33388 1.93822,-1.03558 3.00287,-1.0015c2.00151,0.06437 4.10863,0.37147 5.86957,1.28588c2.62518,1.36161 4.84779,3.37516 6.96411,5.37518c0.78595,0.74281 1.15931,1.79637 1.62382,2.74526c0.44747,0.91252 0.69007,1.90644 1.10684,2.83113c0.39135,0.86762 1.31361,1.60773 1.31631,2.54499c0.00473,1.87764 -0.54659,3.75812 -1.29332,5.49134c-0.78649,1.82707 -1.93214,3.53202 -3.2498,5.06267c-0.73388,0.85153 -1.79434,1.42476 -2.80625,1.97379c-1.0061,0.54619 -2.09806,0.96877 -3.21207,1.28764c-1.00109,0.28601 -2.05628,0.42516 -3.10118,0.51535c-1.06059,0.09182 -2.13687,-0.02583 -3.19963,0.02921c-1.13984,0.05882 -2.27291,0.20987 -3.40869,0.31522c-1.13592,0.10534 -2.26723,0.29142 -3.40883,0.31535c-1.16729,0.02407 -2.34053,-0.08749 -3.50714,-0.17093c-1.99407,-0.14402 -3.9849,-0.4092 -5.98059,-0.5136c-1.06492,-0.05625 -2.15648,0.24679 -3.1995,0.02921c-1.23625,-0.25896 -2.32065,-0.97621 -3.4947,-1.42936c-0.94903,-0.36579 -1.94796,-0.62394 -2.87928,-1.02895c-1.02273,-0.44409 -1.92984,-1.1255 -2.97772,-1.51523c-0.98798,-0.36741 -2.0982,-0.37891 -3.08861,-0.74294c-1.99935,-0.7351 -4.08903,-1.3938 -5.85713,-2.54418c-1.66723,-1.0848 -3.01031,-2.58515 -4.2939,-4.06022c-0.70562,-0.81042 -1.24058,-1.76473 -1.62382,-2.74526c-0.36349,-0.9305 -0.91969,-1.98474 -0.59014,-2.917c0.31995,-0.90643 1.52645,-1.25965 2.28941,-1.88792c0.76296,-0.62827 1.6199,-1.17175 2.28928,-1.88805c0.73104,-0.78067 0.78757,-2.39218 1.88332,-2.5742z" data-paper-data="{&quot;index&quot;:null}" id="ID0.32529750699177384" fill="#003fff" stroke="#003fff" stroke-width="2.13262" stroke-linecap="round"/><path d="M276.9753,288.12951c1.22517,3.26495 2.29982,6.57911 3.09429,10.09234c1.63626,7.37858 2.37325,14.93905 3.54352,22.42338c0.28682,1.87088 0.08966,2.78786 -0.10129,4.17151c-0.15443,1.00596 -0.96891,1.75161 -1.55012,2.67386c-1.00596,1.58136 -2.03789,3.27563 -3.56042,4.37544c-2.22355,1.60583 -4.69471,3.31606 -7.42672,3.56191c-2.80612,0.25234 -5.5599,-1.11955 -8.18021,-2.15594c-0.86546,-0.3424 -1.3397,-1.29751 -2.05547,-1.89211c-0.81772,-0.68074 -1.88981,-1.09345 -2.54377,-1.93268c-1.15525,-1.48088 -2.13525,-3.14297 -2.7884,-4.90364c-1.36567,-3.67969 -2.28698,-7.52517 -3.23682,-11.3336c-1.20015,-4.80776 -2.54148,-9.61945 -3.21694,-14.52822c-0.50291,-3.66008 -1.26803,-7.5249 -0.3067,-11.08978c1.01746,-3.78828 3.29997,-7.42713 5.65956,-10.69167c2.26994,-3.14527 4.49268,-7.38899 8.36196,-8.89341c1.6322,-0.52604 2.05858,3.1189 3.05291,4.6797c0.47465,0.77323 1.10833,1.18297 1.83153,1.62774c0.68628,1.11333 1.40313,2.16622 2.35675,2.99895c0.77824,0.68141 1.74606,1.2606 2.27927,2.15662c1.63788,2.73769 3.37624,5.65172 4.78707,8.6596z" data-paper-data="{&quot;index&quot;:null}" id="ID0.4583347821608186" fill="#00cc44" stroke="#00cc44" stroke-width="2.04998" stroke-linecap="round"/><path d="M269.06528,338.01404c-5.05591,1.69711 -10.19011,2.98462 -15.3715,4.59951c-6.77384,2.08386 -13.58663,4.09592 -20.52978,6.50893c-1.73592,0.60352 -1.68183,1.09427 -2.6383,1.32361c-1.10738,0.2664 -2.34201,0.50751 -3.41748,0.13117c-1.7673,-0.61948 -3.48767,-1.62125 -4.75989,-2.9953c-1.85776,-2.00651 -3.84859,-4.24575 -4.42155,-6.91975c-0.58865,-2.74662 0.43665,-5.63752 1.14592,-8.35587c0.23435,-0.89778 1.12239,-1.4825 1.62436,-2.2625c0.57499,-0.89142 1.12131,-1.81503 1.60556,-2.75081c0.828,-1.61205 0.243,-4.31783 1.79745,-5.39844c3.96421,-2.75135 8.93113,-4.16732 13.56513,-5.80128c4.92663,-1.72646 9.8684,-4.05481 15.0598,-5.07646c4.94407,-0.96823 10.09761,-1.62382 15.15162,-1.413c2.15148,0.10697 4.40221,0.48114 6.12502,1.62274c2.66264,2.26412 5.37531,5.01737 6.47391,8.16101c0.93186,2.69536 -0.39879,5.80818 -1.09143,8.50043c-2.62748,4.04954 -2.57109,6.03049 -4.20667,7.59332c-1.62003,1.50955 -4.10593,1.86114 -6.11217,2.53269z" data-paper-data="{&quot;index&quot;:null}" id="ID0.4583347821608186" fill="#00cc44" stroke="#00cc44" stroke-width="2.0438" stroke-linecap="round"/><path d="M226.80787,346.83443c-1.07398,4.9699 0.86587,7.35938 2.24681,9.6899c2.24722,3.79504 5.32636,7.0754 7.53626,10.89302c0.55241,0.9539 0.4618,1.72389 0.25207,2.56068c-0.83652,3.34784 -1.62301,6.81833 -3.34351,9.80931c-2.01503,3.50105 -4.51662,6.88351 -7.69529,9.37604c-1.46506,1.14836 -3.64602,0.88818 -5.50621,0.9731c-0.9017,0.04138 -1.46168,0.49034 -2.64465,-0.60149c-4.73474,-4.36624 -8.3529,-9.68949 -12.22421,-14.74053c-1.22665,-1.53403 -1.07669,-3.69565 -1.82666,-5.42224c-0.75173,-1.61341 -0.93429,-3.36217 -1.35769,-5.03738c-0.69778,-2.51673 -1.19014,-4.79613 -1.14119,-7.2132c0.0687,-7.05836 0.84193,-14.06115 2.25114,-20.90585c0.33956,-3.29118 0.38783,-7.27337 2.95865,-9.34061c2.11456,-1.70266 5.44144,-0.16768 8.15087,-0.37147c3.41789,-0.25639 6.94626,-1.94566 10.24285,-1.0084c2.17149,0.61786 3.70471,3.01707 4.3872,5.1699c0.86749,2.73634 0.5017,5.79574 -0.01325,8.6197c-0.61799,3.39531 -3.33837,6.35815 -3.34338,9.80944z" data-paper-data="{&quot;index&quot;:null}" id="ID0.492208783980459" fill="#003fff" stroke="#003fff" stroke-width="1.79395" stroke-linecap="round"/></g></g></svg>