<svg version="1.1" xmlns="http://www.w3.org/2000/svg" xmlns:xlink="http://www.w3.org/1999/xlink" width="228.32185" height="290.91434" viewBox="0,0,228.32185,290.91434"><defs><linearGradient x1="314.31978" y1="217.3072" x2="301.46365" y2="275.00016" gradientUnits="userSpaceOnUse" id="color-1"><stop offset="0" stop-color="#7f2626"/><stop offset="1" stop-color="#401a1a"/></linearGradient><linearGradient x1="297.40286" y1="186.51692" x2="282.12272" y2="255.08782" gradientUnits="userSpaceOnUse" id="color-2"><stop offset="0" stop-color="#401a1a"/><stop offset="1" stop-color="#7f2626"/></linearGradient><linearGradient x1="185.41036" y1="187.88574" x2="171.74919" y2="249.19129" gradientUnits="userSpaceOnUse" id="color-3"><stop offset="0" stop-color="#401a1a"/><stop offset="1" stop-color="#7f2626"/></linearGradient><linearGradient x1="238.89991" y1="131.60883" x2="220.51897" y2="214.09488" gradientUnits="userSpaceOnUse" id="color-4"><stop offset="0" stop-color="#7f2626"/><stop offset="1" stop-color="#401a1a"/></linearGradient><linearGradient x1="158.73698" y1="221.89646" x2="142.41458" y2="295.14462" gradientUnits="userSpaceOnUse" id="color-5"><stop offset="0" stop-color="#7f2626"/><stop offset="1" stop-color="#401a1a"/></linearGradient></defs><g transform="translate(-118.15721,-130.35886)"><g data-paper-data="{&quot;isPaintingLayer&quot;:true}" fill-rule="nonzero" stroke-linejoin="miter" stroke-miterlimit="10" stroke-dasharray="" stroke-dashoffset="0" style="mix-blend-mode: normal"><g stroke="#000000" stroke-width="0.5" stroke-linecap="round"><path d="M243.4954,264.38101l49.24813,112.05734l-132.04208,-1.42748l59.2405,-111.34359z" fill="#804040"/><path d="M167.83886,358.59482h115.62604c0,0 16.8144,16.1221 9.27863,17.12978c-7.53576,1.00769 -80.8411,5.15141 -132.04208,-0.71374c-17.51206,-2.00604 7.13741,-16.41604 7.13741,-16.41604z" fill="#ffffff"/></g><path d="M282.20523,212.34858c0,0 21.38873,1.51958 29.75412,4.78255c7.23799,2.82319 10.22765,10.81252 10.22765,10.81252l-13.58044,-0.93694c0,0 2.84343,5.63938 4.7492,7.66332c5.47876,5.81839 14.17281,12.43171 14.17281,12.43171c0,0 -5.02516,3.33034 -8.55167,3.25323c-5.39902,-0.11802 -12.59242,-5.87569 -12.59242,-5.87569c0,0 13.21823,6.4889 18.36481,12.31078c8.13816,9.20592 8.68751,23.80312 8.68751,23.80312c0,0 -11.61339,0.10421 -19.32765,-3.36854c-10.21866,-4.6002 -26.62325,-17.31744 -26.62325,-17.31744l-2.08352,7.47498l-6.2675,-24.37871z" fill="url(#color-1)" stroke="#000000" stroke-width="0.5" stroke-linecap="round"/><g data-paper-data="{&quot;origRot&quot;:0}" stroke="#000000" stroke-width="0.5" stroke-linecap="butt"><path d="M291.80475,207.91684c9.23379,5.28693 8.66328,22.62247 2.88488,21.23953c-7.8863,-1.88739 -26.37735,-7.18854 -24.96181,-13.10329c1.41554,-5.91471 14.39569,-12.53426 22.07697,-8.13625z" fill="#7f2626"/><path d="M265.11517,231.12112c0,0 -2.16079,-8.14384 -0.96337,-13.14715c1.19741,-5.00331 4.55169,-1.84626 4.55169,-1.84626l29.63551,13.55083c0,0 4.58198,4.59829 2.98059,7.17161c-1.6014,2.57332 -6.79664,-1.03949 -6.79664,-1.03949l-16.28325,24.45866c0,0 -12.96343,2.74146 -14.8232,2.39255c-1.85979,-0.34888 -7.52886,-11.93557 -7.52886,-11.93557z" fill="#ffffff"/><path d="M240.03072,284.41663l15.17404,-32.23942c0,0 11.87115,-3.28836 13.46277,-2.57605c1.59159,0.71228 8.8117,11.81046 8.8117,11.81046l-12.28853,18.45831z" fill="#ffffff"/></g><g data-paper-data="{&quot;origRot&quot;:0}" stroke="#000000" stroke-width="0.5" stroke-linecap="butt"><path d="M272.96331,414.53204c-3.96683,5.35306 -29.01945,7.47992 -31.15348,-0.0249c-1.96273,-6.9023 -2.51939,-49.59703 -2.51939,-49.59703c0,0 8.8533,-8.94246 12.98229,-8.72565c3.51555,0.18457 12.00892,8.75409 12.00892,8.75409c0,0 10.27747,45.17295 8.68163,49.59352z" fill="#ffffff"/><path d="M252.85991,320.71378l11.05633,42.72154c0,0 -8.61286,6.00573 -10.20535,6.35281c-3.28621,0.82154 -14.42111,-6.48908 -14.42111,-6.48908l0.57345,-43.37144z" fill="#f3c69d"/></g><g data-paper-data="{&quot;index&quot;:null,&quot;origRot&quot;:0}" stroke-linecap="butt"><g data-paper-data="{&quot;origRot&quot;:0,&quot;index&quot;:null}" stroke="#000000" stroke-width="0.5"><path d="M226.60592,419.65296c-5.34378,3.97933 -29.94312,-1.21967 -29.81881,-9.021c0.11434,-7.17501 11.91168,-48.21126 11.91168,-48.21126c0,0 11.05862,-6.00453 14.94911,-4.60454c3.31244,1.192 8.96904,11.84927 8.96904,11.84927c0,0 -3.2065,46.21624 -6.01101,49.98754z" fill="#ffffff"/><path d="M234.45405,319.03036l-1.75286,49.09039c0,0 -9.9803,3.26242 -11.6052,3.13478c-3.38347,-0.16253 -11.93255,-10.37742 -11.93255,-10.37742l13.07476,-41.35772z" fill="#f3c69d"/></g><g fill="none" stroke="none" stroke-width="1" font-family="sans-serif" font-weight="normal" font-size="12" text-anchor="start"/></g><g stroke="#000000" stroke-width="0.5"><path d="M207.77969,351.55939l11.012,-31.4046l38.33808,0.40783l8.97275,30.99677z" fill="#ffffff" stroke-linecap="butt"/><g data-paper-data="{&quot;origRot&quot;:0}" stroke-linecap="round"><path d="M221.73107,263.67192l30.59531,-0.7872l9.19218,61.13314l-48.24489,-1.39077z" fill="#ffffff"/><path d="M252.2755,263.79269l-15.75489,10.69629l-14.99096,-9.60838z" fill="#804040"/><path d="M236.60932,274.09092l2.05052,48.92817l-25.43659,-0.23611l8.52706,-57.01748z" fill="#ffffff"/></g></g><path d="M298.24091,224.85386c-6.41311,28.77941 -45.42219,44.57555 -87.12925,35.28167c-41.70703,-9.29388 -59.17195,-37.67453 -52.75885,-66.45391c6.41311,-28.77941 36.9072,-61.24728 79.02706,-54.05209c44.99043,7.68553 67.27417,56.44492 60.86107,85.22433z" data-paper-data="{&quot;origRot&quot;:0}" fill="#f3c69d" stroke="#000000" stroke-width="0.5" stroke-linecap="butt"/><path d="M192.94141,202.9596l-2.11301,-10.50923l35.20132,9.56508l4.12518,9.46894c0,0 -18.32086,-8.69728 -30.80234,-11.90995c-2.44879,-0.6303 -6.41114,3.38516 -6.41114,3.38516z" data-paper-data="{&quot;origRot&quot;:0}" fill="#000000" stroke="#000000" stroke-width="0.5" stroke-linecap="round"/><path d="M193.97148,219.46105l36.60475,-4.12808l-2.85025,2.28985l-35.61428,4.93378z" data-paper-data="{&quot;origRot&quot;:0}" fill="#000000" stroke="#000000" stroke-width="0.5" stroke-linecap="round"/><path d="M252.17809,216.64824l32.2642,4.84967l-4.08911,2.59879l-31.14954,-4.60129z" data-paper-data="{&quot;origRot&quot;:0}" fill="#000000" stroke="#000000" stroke-width="0.5" stroke-linecap="round"/><path d="M299.18984,225.77567c-4.59287,14.97577 -12.36037,25.78355 -23.63899,27.32512c-11.27862,1.54157 10.10691,-14.18029 13.15139,-25.89167c3.80769,-14.64728 2.86164,-47.84331 2.86164,-47.84331c0,0 14.26934,24.74811 7.62595,46.40987z" data-paper-data="{&quot;origRot&quot;:0}" fill="url(#color-2)" stroke="#000000" stroke-width="0.5" stroke-linecap="round"/><path d="M181.23044,186.9543l-1.52124,29.32873l20.68955,23.4139l-12.07681,-0.184l4.72499,14.42428c0,0 -19.31563,-3.53102 -29.43425,-21.3394c-10.36024,-13.16972 -6.94056,-34.81965 -6.94056,-34.81965z" data-paper-data="{&quot;origRot&quot;:0}" fill="url(#color-3)" stroke="#000000" stroke-width="0.5" stroke-linecap="round"/><path d="M251.66793,242.42282c0,7.1375 -6.62465,12.92359 -14.79658,12.92359c-8.17192,0 -14.79657,-5.78609 -14.79657,-12.92359c0,-7.1375 6.62465,-12.9236 14.79657,-12.9236c8.17192,0 14.79658,5.7861 14.79658,12.9236z" fill="#ffa6a6" stroke="#000000" stroke-width="0.5" stroke-linecap="butt"/><path d="M152.64582,198.97025c0,0 13.5956,-66.23616 70.37809,-68.3061c57.23398,-2.08638 74.95045,55.56228 74.95045,55.56228l-44.18999,-6.08644l-6.58126,-17.34508l-10.71614,18.08697c0,0 -23.92985,-0.60679 -38.14397,2.45984c-18.50599,3.99258 -45.69721,15.6285 -45.69721,15.6285z" data-paper-data="{&quot;origRot&quot;:0}" fill="url(#color-4)" stroke="#000000" stroke-width="0.5" stroke-linecap="round"/><path d="M183.46128,242.03087c-0.69136,4.97686 -1.6681,16.08078 -5.1411,23.9652c-3.78771,8.59884 -13.4635,18.27097 -13.4635,18.27097l-7.77775,-13.85094l-27.04213,21.97032c0,0 -2.84591,-10.08864 -2.37425,-16.03491c0.51972,-6.55254 4.91456,-15.99174 4.91456,-15.99174l-13.80549,5.69859c0,0 11.26614,-18.3822 22.58014,-25.7566c5.09343,-3.31989 19.46178,-1.6462 19.46178,-1.6462l-16.14199,-8.19346l26.7672,-5.73522c0,0 10.07157,2.0819 11.94957,4.78492c2.81394,4.05008 0.7643,7.54222 0.07294,12.51907z" fill="url(#color-5)" stroke="#000000" stroke-width="0.5" stroke-linecap="round"/><path d="M194.19392,186.74518c0,0 9.30558,-3.60608 15.99254,-3.72139c6.23758,-0.10755 17.12504,3.1504 17.12504,3.1504" fill="none" stroke="#000000" stroke-width="0.5" stroke-linecap="round"/><path d="M248.20547,187.49437c0,0 10.88743,-3.25791 17.12502,-3.1504c6.68698,0.11528 15.99254,3.72136 15.99254,3.72136" data-paper-data="{&quot;index&quot;:null}" fill="none" stroke="#000000" stroke-width="0.5" stroke-linecap="round"/><path d="M230.3159,212.26778l-32.77722,-5.99355" fill="none" stroke="#000000" stroke-width="0.5" stroke-linecap="round"/><path d="M281.2956,201.20307c-12.48149,3.21267 -30.80235,11.90995 -30.80235,11.90995l4.12518,-9.46894l35.20132,-9.56508l-2.11301,10.50922c0,0 -3.96236,-4.01546 -6.41114,-3.38515z" data-paper-data="{&quot;origRot&quot;:0,&quot;index&quot;:null}" fill="#000000" stroke="#000000" stroke-width="0.5" stroke-linecap="round"/><path d="M250.33225,213.89641l32.77722,-5.99355" data-paper-data="{&quot;index&quot;:null}" fill="none" stroke="#000000" stroke-width="0.5" stroke-linecap="round"/><g data-paper-data="{&quot;index&quot;:null,&quot;origRot&quot;:0}" stroke="#000000"><g><path d="M297.37761,195.62371l41.53526,-17.51921c0,0 4.28555,3.45434 5.19648,6.26007c0.44908,1.38322 -1.03282,4.67951 -1.03282,4.67951l-34.10582,8.14339l32.23318,-7.80345c0,0 4.70886,2.64298 4.73899,4.75859c0.04113,2.89124 -15.94208,2.66174 -17.07436,4.40594c-0.73619,1.13406 16.62123,-2.60132 16.62123,-2.60132c0,0 1.61976,3.68557 0.6877,7.47274c-0.51773,2.10366 -1.74796,12.89419 -3.54483,14.10443c-12.29896,8.28378 -38.92085,-10.43095 -38.92085,-10.43095z" data-paper-data="{&quot;index&quot;:null,&quot;origRot&quot;:0}" fill="#ffffff" stroke-width="0.025" stroke-linecap="round"/><g data-paper-data="{&quot;origRot&quot;:0}" fill="#8ceeff" stroke-width="0.015" stroke-linecap="butt"><path d="M276.0348,230.76198c-3.80631,-1.85163 -0.10542,-8.78895 1.81543,-12.73755c1.92086,-3.94859 14.25108,-5.73226 18.05742,-3.88064c3.80631,1.85163 -1.80246,10.09115 -5.27617,12.6471c-3.53676,2.60239 -10.79033,5.8227 -14.59664,3.97108z" data-paper-data="{&quot;origRot&quot;:0}"/><path d="M294.84889,228.22086c-1.44195,-4.06451 -1.46332,-14.03186 2.72643,-13.42961c4.18973,0.60226 13.39684,8.99542 12.77208,13.34174c-0.62475,4.34638 -1.45241,12.16548 -5.64216,11.5632c-4.18973,-0.60226 -8.38822,-7.33705 -9.85636,-11.47536z" data-paper-data="{&quot;origRot&quot;:0,&quot;index&quot;:null}"/><path d="M292.27801,215.89034c-1.95981,-1.09332 -3.50253,-7.03072 -2.29289,-9.199c1.20963,-2.16825 5.23335,0.74163 7.19312,1.83497c1.95981,1.09332 2.0481,3.24937 0.83849,5.41766c-1.20963,2.16825 -3.77895,3.03968 -5.73874,1.94636z" data-paper-data="{&quot;origRot&quot;:0}"/><path d="M296.97353,213.72767c0.21489,-2.47353 1.49743,-4.20892 3.73314,-4.01469c2.2357,0.19424 7.19903,0.04231 6.98415,2.51586c-0.21489,2.47353 -4.82256,6.52346 -7.05827,6.32923c-2.2357,-0.19424 -3.87392,-2.35686 -3.65902,-4.8304z" data-paper-data="{&quot;origRot&quot;:0,&quot;index&quot;:null}"/></g><path d="M288.61359,194.64274c-7.54117,-12.74773 -9.93424,-25.2826 -5.34507,-27.99742c4.58918,-2.7148 14.42279,5.41844 21.96396,18.16616c7.54117,12.74773 9.93424,25.28263 5.34507,27.99742c-4.58918,2.7148 -14.42279,-5.41844 -21.96396,-18.16616z" data-paper-data="{&quot;origRot&quot;:0}" fill="#ffffff" stroke-width="0.5" stroke-linecap="butt"/><path d="M302.40698,206.90019c0,0 -35.43728,23.70961 -44.13077,27.00708c-4.3812,1.6618 -11.15687,-9.1331 -14.7147,-15.78335c-4.54791,-8.50099 -10.67001,-20.77175 -6.05525,-23.03971c18.39865,-9.04208 49.27255,-18.21007 49.27255,-18.21007z" data-paper-data="{&quot;origRot&quot;:0}" fill="#ffffff" stroke-width="0.5" stroke-linecap="butt"/><path d="M236.72915,195.97498c0,0 11.71306,10.7414 16.04299,18.80687c3.57064,6.65115 4.20123,18.90255 4.20123,18.90255" fill="none" stroke-width="0.5" stroke-linecap="round"/><path d="M290.44954,178.88948c-1.31646,-1.22057 -1.48412,-3.18018 -0.37451,-4.37697c1.10961,-1.19679 3.07631,-1.17751 4.39277,0.04307c1.31646,1.22057 1.48412,3.18018 0.37451,4.37697c-1.10961,1.19679 -3.07632,1.17749 -4.39277,-0.04307z" fill="#fff08d" stroke-width="0.5" stroke-linecap="butt"/><path d="M295.53034,188.83881c-1.49597,-1.38699 -1.67422,-3.6271 -0.39819,-5.00333c1.27604,-1.37627 3.52317,-1.3676 5.01915,0.01938c1.49597,1.38699 1.67423,3.62712 0.39817,5.00336c-1.27604,1.37627 -3.52317,1.3676 -5.01913,-0.01942z" fill="#8ceeff" stroke-width="0.5" stroke-linecap="butt"/><path d="M302.25211,200.71258c-1.61564,-1.49797 -1.80096,-3.92499 -0.41398,-5.42095c1.38699,-1.49597 3.82109,-1.49433 5.43673,0.00362c1.61564,1.49797 1.80098,3.92501 0.41396,5.42098c-1.38699,1.49597 -3.82111,1.49429 -5.43674,-0.00365z" fill="#ff8c8c" stroke-width="0.5" stroke-linecap="butt"/></g><path d="M284.1386,177.9719l15.51447,30.39015l-5.49356,3.1257l-16.22926,-31.48545z" fill="#ff8c8c" stroke-width="0.5" stroke-linecap="round"/></g><g data-paper-data="{&quot;origRot&quot;:0,&quot;index&quot;:null}" stroke="#000000" stroke-width="0.5" stroke-linecap="butt"><path d="M261.98722,196.16207c10.18971,3.06338 13.55167,20.07936 7.61022,20.03808c-8.10881,-0.05631 -27.31951,-1.04146 -27.27728,-7.1231c0.04224,-6.08159 11.19062,-15.46331 19.66708,-12.915z" fill="#7f2626"/><path d="M241.23213,224.7977c0,0 -3.94533,-7.44484 -3.9096,-12.5893c0.03573,-5.14447 4.01669,-2.82715 4.01669,-2.82715l31.9312,6.50285c0,0 5.50263,3.44384 4.52422,6.31249c-0.97843,2.86866 -6.85573,0.5234 -6.85573,0.5234l-10.33451,27.50578c0,0 -12.00847,5.60018 -13.89898,5.68062c-1.8905,0.08041 -10.03145,-9.92534 -10.03145,-9.92534z" fill="#ffffff"/><path d="M228.84107,282.3833l7.49558,-34.83457c0,0 10.82088,-5.88607 12.53228,-5.55191c1.7114,0.33417 11.25281,9.51352 11.25281,9.51352l-20.13693,39.46817z" fill="#ffffff"/></g><path d="M314.53363,244.13537c2.70405,6.84797 5.6343,13.6304 8.7303,20.28057c2.25374,4.84099 4.73607,8.60412 4.73607,14.06231c0,0 0,2.5 -2.5,2.5c-0.03933,0 -0.07805,-0.00062 -0.11615,-0.00184c0.13585,0.55615 0.25361,1.1197 0.34914,1.69289c0.274,1.64399 1.62898,3.4737 0.82199,4.93197l0.40325,2.41953c0.02742,0.14831 0.04176,0.30121 0.04176,0.45746c0,1.38071 -1.11929,2.5 -2.5,2.5c-0.88153,0 -1.6565,-0.45626 -2.10163,-1.14551l-1.97849,-2.96774l0.07828,-0.05218c-1.79634,-3.24721 -3.04019,-6.83594 -4.48187,-10.24354c-0.90032,-2.12802 -1.79529,-4.2576 -2.68529,-6.38881c-0.45647,0.49078 -1.10788,0.79778 -1.83099,0.79778c-0.53913,0 -1.0384,-0.17066 -1.44674,-0.4609c2.04777,3.70631 4.06352,7.5582 4.90582,11.41136c0.49829,2.27945 -4.01994,3.76472 -4.69132,3.85284c-0.82625,0.10845 -1.19038,-1.16687 -1.76777,-1.76777c-2.20298,-2.29268 -3.18545,-4.23448 -4.63159,-7.00348c-8.34962,-15.98739 -16.50396,-32.29452 -23.26744,-49.03366c-3.28148,-8.12144 -6.26321,-16.45298 -9.8649,-24.43609c-1.42805,-3.16527 -3.36754,-6.14191 -4.63988,-9.3755c-1.14632,-2.91331 -1.76624,-6.18185 -2.62639,-9.19238c-0.22893,-0.80127 -1.05586,-1.65666 -0.6868,-2.40381l-0.67094,-2.34829c-0.07283,-0.23453 -0.11205,-0.48384 -0.11205,-0.74232c0,-1.38071 1.11929,-2.5 2.5,-2.5c0.99801,0 1.85943,0.58479 2.26029,1.43041l1.50364,3.00729l-0.00166,0.00083c2.81773,5.66301 5.602,11.36062 8.78744,16.81718c-0.13477,-0.43755 -0.27018,-0.87473 -0.40636,-1.31149c-0.24734,-0.79331 -0.39367,-1.61412 -0.48543,-2.44422h-0.15793c0,0 0,-1.25 0,-2.5v-2.5c0,-1.38071 1.11929,-2.5 2.5,-2.5c1.09231,0 2.02101,0.70054 2.36132,1.67684l0.85732,2.28618c1.23359,0.71135 1,2.66667 1.5,4c1.06753,2.84674 2.37732,5.59735 3.61194,8.37523c1.46367,3.29326 2.90404,6.59511 4.3281,9.90344c-0.06293,-0.18475 -0.1258,-0.36953 -0.1886,-0.55432c-0.96972,-2.85329 -1.27983,-5.422 -1.64067,-8.39658c-0.17275,-1.42403 -1.36877,-3.30215 -0.32939,-4.29078v-1.5c0,-0.29709 0.05182,-0.58208 0.14692,-0.84642l-0.91696,-2.1048c-0.1476,-0.31894 -0.22996,-0.67424 -0.22996,-1.04878c0,-1.38071 1.11929,-2.5 2.5,-2.5c1.03935,0 1.93056,0.63424 2.30771,1.53681l0.99217,2.23238c0.77723,0.30058 0.6769,1.52302 1.01535,2.28453v0c0.48332,1.08747 0.9645,2.17571 1.44366,3.26479c3.07474,5.15948 5.42529,10.57536 7.91862,16.08661c2.42327,5.35639 5.09957,10.66639 7.10891,16.19208c1.00414,2.76139 2.04864,5.51671 3.1296,8.26166c0.06121,0.09472 0.12243,0.18943 0.18364,0.28415zM282.02583,216.66556c-0.97482,-1.3827 -1.95,-2.76523 -2.92459,-4.14827c2.07945,5.18561 4.05035,10.42538 6.1356,15.58623c2.58905,6.40771 5.38442,12.75121 8.31733,19.03717c-3.01587,-7.46162 -6.20246,-14.9006 -8.87757,-22.47565c-0.93394,-2.64461 -1.80835,-5.31551 -2.65077,-7.99948zM298.88385,221.91455c0.47895,1.35598 0.9554,2.71292 1.43013,4.07052c0.06142,-0.00452 0.12345,-0.00682 0.18602,-0.00682c0.04795,0 0.09558,0.00135 0.14286,0.00401c-0.58634,-1.35591 -1.17267,-2.71181 -1.75901,-4.06772zM310.67984,248.18516c0.30962,1.05134 0.59979,2.10921 0.8674,3.17528c0.82677,1.4141 1.64775,2.83117 2.45583,4.25457c-1.13773,-2.63643 -2.26323,-5.27689 -3.35772,-7.93033c0.01165,0.16706 0.02321,0.33388 0.03449,0.50048z" fill="#ffffff" stroke="none" stroke-width="0.5" stroke-linecap="butt"/></g></g></svg>