<svg version="1.1" xmlns="http://www.w3.org/2000/svg" xmlns:xlink="http://www.w3.org/1999/xlink" width="152.47616" height="421.68904" viewBox="0,0,152.47616,421.68904"><defs><linearGradient x1="280.74982" y1="135.34392" x2="270.0675" y2="207.80346" gradientUnits="userSpaceOnUse" id="color-1"><stop offset="0" stop-color="#fde6d9"/><stop offset="1" stop-color="#f7d9c8"/></linearGradient><linearGradient x1="320.51753" y1="-111.09399" x2="244.97183" y2="401.3431" gradientUnits="userSpaceOnUse" id="color-2"><stop offset="0" stop-color="#000000"/><stop offset="1" stop-color="#000000" stop-opacity="0"/></linearGradient><linearGradient x1="277.82916" y1="200.89974" x2="273.09777" y2="218.36478" gradientUnits="userSpaceOnUse" id="color-3"><stop offset="0" stop-color="#f7dac9"/><stop offset="1" stop-color="#fde6d9"/></linearGradient><linearGradient x1="232.92404" y1="48.37441" x2="231.21049" y2="82.16158" gradientUnits="userSpaceOnUse" id="color-4"><stop offset="0" stop-color="#d2a991"/><stop offset="1" stop-color="#fde6d9"/></linearGradient><radialGradient cx="235.15288" cy="59.08637" r="43.92048" gradientUnits="userSpaceOnUse" id="color-5"><stop offset="0" stop-color="#fde6d9"/><stop offset="1" stop-color="#f7d9c8"/></radialGradient><linearGradient x1="249.36985" y1="53.71529" x2="249.62213" y2="54.41175" gradientUnits="userSpaceOnUse" id="color-6"><stop offset="0" stop-color="#ecc6b1"/><stop offset="1" stop-color="#ecc6b1" stop-opacity="0"/></linearGradient><linearGradient x1="242.41365" y1="44.7972" x2="245.23763" y2="44.94043" gradientUnits="userSpaceOnUse" id="color-7"><stop offset="0" stop-color="#f4d7c8" stop-opacity="0"/><stop offset="1" stop-color="#f4d7c8"/></linearGradient><linearGradient x1="246.12391" y1="53.40518" x2="246.05392" y2="54.13924" gradientUnits="userSpaceOnUse" id="color-8"><stop offset="0" stop-color="#ecc6b1"/><stop offset="1" stop-color="#ecc6b1" stop-opacity="0"/></linearGradient><linearGradient x1="243.41858" y1="25.44097" x2="241.07639" y2="49.99212" gradientUnits="userSpaceOnUse" id="color-9"><stop offset="0" stop-color="#f9ddce" stop-opacity="0"/><stop offset="1" stop-color="#f9ddce"/></linearGradient><linearGradient x1="340.85378" y1="-1829.50745" x2="173.15444" y2="1477.12673" gradientUnits="userSpaceOnUse" id="color-10"><stop offset="0" stop-color="#2a221e"/><stop offset="1" stop-color="#2a221e" stop-opacity="0"/></linearGradient><linearGradient x1="178.19043" y1="134.85986" x2="177.03633" y2="208.09349" gradientUnits="userSpaceOnUse" id="color-11"><stop offset="0" stop-color="#fde6d9"/><stop offset="1" stop-color="#f7d9c8"/></linearGradient><linearGradient x1="178.72391" y1="-114.76553" x2="170.562" y2="403.14597" gradientUnits="userSpaceOnUse" id="color-12"><stop offset="0" stop-color="#000000"/><stop offset="1" stop-color="#000000" stop-opacity="0"/></linearGradient><linearGradient x1="170.36125" y1="202.58564" x2="173.53665" y2="220.39939" gradientUnits="userSpaceOnUse" id="color-13"><stop offset="0" stop-color="#f7dac9"/><stop offset="1" stop-color="#fde6d9"/></linearGradient></defs><g transform="translate(-137.97477,5.03212)"><g data-paper-data="{&quot;isPaintingLayer&quot;:true}" fill-rule="nonzero" stroke-linejoin="miter" stroke-miterlimit="10" stroke-dasharray="" stroke-dashoffset="0" style="mix-blend-mode: normal"><g stroke="none" stroke-width="0" stroke-linecap="butt"><path d="M271.95947,204.85505c-2.26151,-0.33339 -2.95881,-2.7219 -2.95881,-2.7219l0.87287,-8.75016l12.87529,1.89813l-1.31121,8.89411c0,0 -7.98148,0.90046 -9.47814,0.67982z" data-paper-data="{&quot;origPos&quot;:null}" fill="#000000"/><path d="M270.58778,175.64357c0.11426,-11.37587 -3.42929,-19.32826 -3.20532,-31.52286c0.22396,-12.1946 24.04278,-11.60554 23.03752,0.5554c-1.00635,18.9302 -4.1572,20.7437 -5.0915,30.13661c-1.04196,10.47535 -1.88138,22.47007 -6.5938,30.71082c-2.45466,4.29257 -5.51789,3.94153 -6.91089,-0.7946c-2.60247,-8.84836 -1.35025,-17.70953 -1.23601,-29.0854z" data-paper-data="{&quot;origPos&quot;:null}" fill="url(#color-1)"/><g data-paper-data="{&quot;origPos&quot;:null}"><path d="M274.80315,200.39575c-3.08508,-0.08728 -5.72116,2.78725 -5.72116,2.78725l0.79978,-9.98741l12.90921,2.1117l-1.73853,6.8944z" data-paper-data="{&quot;origPos&quot;:null}" fill="url(#color-2)"/><path d="M282.27083,199.67177c0,0 -4.37874,-2.23948 -8.07748,-2.30934c-3.48476,-0.06582 -4.73475,5.28072 -4.73475,5.28072c0,0 -3.88515,-53.00638 -2.48011,-58.8218c1.40506,-5.81542 5.59449,-9.47714 13.72062,-8.92678c8.59352,0.32908 9.57836,3.00879 9.71002,11.8325c0.21598,14.47186 -8.13832,52.94469 -8.13832,52.94469z" data-paper-data="{&quot;origPos&quot;:null,&quot;origRot&quot;:0}" fill="#1e4994"/></g></g><g data-paper-data="{&quot;origRot&quot;:0}" stroke="none" stroke-width="0" stroke-linecap="butt"><path d="M257.47973,93.42708c1.09331,-4.99937 0.42769,-15.361 8.00872,-13.30883c7.18976,1.94629 16.72557,13.32665 20.78007,32.12127c1.18444,5.49037 1.74698,18.60412 2.90879,24.09965c2.10535,9.95858 -16.19815,17.60002 -20.37404,8.36627c-3.43464,-7.59466 -3.54354,-6.69092 -8.4625,-30.03382c-2.06582,-9.80338 -4.99865,-11.47009 -2.86108,-21.24453z" data-paper-data="{&quot;origPos&quot;:null,&quot;origRot&quot;:0}" fill="#2152a6"/><path d="M267.67705,80.43556c6.79981,3.49182 14.82289,14.37546 18.45276,31.20154c1.18444,5.49037 1.74698,18.60412 2.90879,24.09967c1.20441,5.69701 -4.27029,10.63569 -9.95819,12.09054c-3.87855,-16.48987 -7.71767,-32.98902 -11.28784,-49.55221c-1.03327,-4.79362 -0.35033,-11.7828 -0.11547,-17.83952z" data-paper-data="{&quot;origPos&quot;:null,&quot;origRot&quot;:0}" fill="#000000"/></g><g stroke="none" stroke-width="0" stroke-linecap="butt"><g data-paper-data="{&quot;origPos&quot;:null,&quot;origRot&quot;:0,&quot;index&quot;:null}" fill="#ead0c0"><path d="M268.71208,207.89884c1.38231,0.60984 5.49286,4.41831 5.49286,4.41831c0,0 -2.63376,3.34981 -3.29843,4.81589c-0.38326,0.84538 -1.17297,1.44638 -1.53447,2.30109c-0.60147,1.42208 -1.50134,2.14224 -3.01862,1.49335c-1.69279,-0.72395 -1.23474,-1.13633 -1.05153,-2.78629c0.05924,-0.53352 1.17046,-2.3456 1.50056,-3.83769c0.62909,-2.84355 1.90963,-6.40465 1.90963,-6.40465z" data-paper-data="{&quot;origRot&quot;:0,&quot;origPos&quot;:null,&quot;index&quot;:null}"/><path d="M267.31237,223.46039c-1.55116,2.53878 -2.65712,2.53832 -3.70031,2.02302c-1.32453,-0.65425 -1.99702,-1.47767 -1.17515,-2.52612c0.27568,-0.35171 1.0341,-1.27625 1.26534,-1.65472c0.63904,-1.04591 1.32796,-2.09312 1.73538,-3.48624c0.54049,-1.84816 1.62586,-0.7803 2.8783,-0.0317c0,0 1.08239,0.45 1.04169,1.05922c-0.1195,1.78866 -0.49411,2.07777 -2.04526,4.61653z" data-paper-data="{&quot;origRot&quot;:0,&quot;origPos&quot;:null,&quot;index&quot;:null}"/><path d="M263.68012,222.45499c0.50955,-0.24812 1.47488,0.44816 1.47488,0.44816c1.31569,0.7249 1.23914,1.13565 1.01293,2.0247c-0.26069,1.02452 -1.14608,1.94933 -2.16781,3.22285c-1.02176,1.27351 -2.67898,1.2118 -3.20619,0.68803c-0.49281,-0.48959 -1.35814,-0.85256 0.03384,-2.97888c1.39197,-2.1263 1.35639,-2.67637 2.85238,-3.40487z" data-paper-data="{&quot;origRot&quot;:0,&quot;origPos&quot;:null,&quot;index&quot;:null}"/></g><g data-paper-data="{&quot;origRot&quot;:0,&quot;origPos&quot;:null}" fill="#efd6c8"><path d="M279.16842,216.81173c-0.941,2.67772 -1.53609,3.10984 -4.59439,6.90783c-0.41849,0.51971 -2.22674,2.44219 -2.763,2.81625c-1.65843,1.15681 -1.89742,1.88686 -3.37992,0.49799c-1.3288,-1.24486 -0.95398,-2.62666 0.28654,-4.09809c0.74558,-0.88438 1.0419,-2.07896 1.76841,-2.98119c1.25994,-1.56466 0.40624,-4.47189 0.20957,-7.01643c-0.13524,-1.74998 6.41262,1.16254 7.64286,2.28576c0,0 1.15042,0.67585 0.82993,1.58787z" data-paper-data="{&quot;origRot&quot;:0,&quot;origPos&quot;:null}"/><path d="M273.44186,224.05997c-0.59265,2.21313 -1.09051,2.51563 -3.49506,5.44225c-2.40456,2.9266 -3.65597,2.75424 -4.70469,1.94927c-1.33154,-1.02207 -1.88199,-2.15389 -0.68381,-3.3344c0.40192,-0.396 1.4966,-1.43169 1.85505,-1.86798c0.99061,-1.20569 2.03803,-2.40525 2.85534,-4.08011c1.08427,-2.22194 2.03939,-0.721 3.26526,0.40759c0,0 1.10979,0.72961 0.90794,1.48341z" data-paper-data="{&quot;origRot&quot;:0,&quot;origPos&quot;:null}"/><path d="M268.95005,229.27512c-0.53719,2.02115 -1.19408,2.20176 -3.40351,4.66611c-2.20942,2.46434 -3.2833,2.18072 -3.96742,1.80897c-0.73188,-0.39771 -0.70321,-2.85589 0.57953,-4.54906c1.28274,-1.69314 2.18332,-3.08827 3.3363,-3.80222c1.0005,-0.61955 1.46879,-0.8735 2.60808,0.35367c0,0 1.02999,0.83413 0.84703,1.52254z" data-paper-data="{&quot;origRot&quot;:0,&quot;origPos&quot;:null}"/></g><g fill="#f6ded1"><path d="M279.65823,214.81249c-0.142,2.83313 -0.60283,3.42936 -2.50714,7.98837c-0.26058,0.62385 -1.48155,3.01316 -1.90133,3.53589c-1.29817,1.61659 -1.31953,2.3835 -3.19271,1.53208c-1.67897,-0.76315 -1.71512,-2.19039 -0.92236,-3.97413c0.47647,-1.07207 0.41781,-2.29726 0.8702,-3.38026c0.78451,-1.87818 -0.91406,-4.36598 -1.85681,-6.71605c-0.64837,-1.61625 6.67732,-0.90938 8.22315,-0.23061c0,0 1.33537,0.27976 1.28699,1.24474z" data-paper-data="{&quot;origRot&quot;:0,&quot;origPos&quot;:null}"/><path d="M275.88849,224.71592c0.01612,2.28895 -0.39541,2.71971 -1.98293,6.20502c-1.58751,3.48528 -2.8767,3.67395 -4.13748,3.19892c-1.6008,-0.60314 -2.45623,-1.53236 -1.58933,-3.00274c0.2908,-0.49322 1.09451,-1.7956 1.33115,-2.31516c0.65401,-1.43583 1.36606,-2.8819 1.71991,-4.71844c0.46943,-2.43645 1.82738,-1.26784 3.35237,-0.53272c0,0 1.30079,0.38551 1.3063,1.16514z" data-paper-data="{&quot;origRot&quot;:0,&quot;origPos&quot;:null}"/><path d="M269.28848,237.28463c-2.35951,2.28342 -3.66023,2.11716 -4.34346,1.68526c-0.73089,-0.46205 -0.38323,-3.13742 0.9976,-4.72649c1.38081,-1.58906 2.35887,-2.91187 3.56629,-3.52932c1.04775,-0.53581 1.53662,-0.75042 2.64902,0.57911c0,0 1.01717,0.92568 0.80155,1.60087c-0.63303,1.98232 -1.31152,2.10712 -3.67102,4.39057z" data-paper-data="{&quot;origRot&quot;:0,&quot;origPos&quot;:null}"/></g><path d="M281.9826,216.36592c0.3273,6.89581 -10.15559,5.13729 -12.25578,4.14629c-2.06474,-0.97426 -2.79167,-4.18616 -2.58192,-6.36086c0.48944,-5.07459 2.90022,-7.62566 4.08511,-12.57783c0.938,-3.92038 5.70175,-1.65466 7.48623,-1.17122c2.40098,0.65045 2.91266,8.51085 3.26639,15.96361z" data-paper-data="{&quot;origRot&quot;:0,&quot;origPos&quot;:null}" fill="url(#color-3)"/><g data-paper-data="{&quot;origPos&quot;:null,&quot;origRot&quot;:0,&quot;index&quot;:null}" fill="#fde6d9"><path d="M273.58919,215.93956c-1.16408,1.97349 -0.81035,2.43864 -1.55751,5.35522c-0.74716,2.91659 -1.87129,3.88512 -3.85974,3.49507c-1.98849,-0.39007 -2.37472,-2.30196 -1.62755,-5.21856c0.33881,-1.32256 0.84029,-3.39304 1.20966,-4.65941c0.35526,-1.21795 1.57511,-0.98773 3.12357,-0.68395c0,0 3.27899,0.74974 2.71158,1.71165z" data-paper-data="{&quot;origPos&quot;:null}"/><path d="M270.46723,228.26747c-0.60582,2.36487 -2.47743,4.46411 -4.8792,4.05767c-1.38309,-0.23407 -0.73433,-3.19281 -0.12851,-5.55768c0.27707,-1.08158 0.40841,-3.52053 0.78778,-4.57882c0.33984,-0.94802 1.66358,-0.40807 2.80174,-0.18481c0,0 2.2047,0.27344 2.14439,1.13741c-0.09404,1.34717 -0.12037,2.76136 -0.72619,5.12623z" data-paper-data="{&quot;origPos&quot;:null}"/></g><g fill="#fde6d9"><path d="M282.0121,216.8547c0.37223,2.81606 0.0051,3.48223 -1.12808,8.2997c-0.15507,0.65921 -0.68735,2.66119 -0.88816,3.30795c-0.60243,1.94028 -0.88628,2.51374 -2.97851,1.99434c-1.87529,-0.46553 -2.64457,-1.30477 -2.15188,-3.19777c0.53785,-1.80732 -0.67765,-6.41908 -2.86943,-9.78078c-0.96627,-1.48204 6.73552,-2.03549 8.45774,-1.63038c0,0 1.43157,0.04782 1.55836,1.00698z" data-paper-data="{&quot;origRot&quot;:0,&quot;origPos&quot;:null}"/><path d="M278.68109,232.83901c-1.35978,3.59823 -2.69222,3.88621 -4.05223,3.51023c-1.72681,-0.4774 -2.70198,-1.33767 -1.92206,-2.87097c0.26163,-0.51434 0.98995,-1.87522 1.19265,-2.41162c0.56017,-1.48237 1.18023,-2.97939 1.39179,-4.83808c0.28067,-2.4658 1.80224,-1.40577 3.46112,-0.79089c0,0 1.39417,0.28362 1.46726,1.06059c0.21457,2.28114 -0.17876,2.74254 -1.53854,6.34076z" data-paper-data="{&quot;origRot&quot;:0,&quot;origPos&quot;:null}"/><path d="M277.4558,234.03849c-0.2637,2.0747 -0.93766,2.33716 -2.91956,5.06354c-1.98191,2.72637 -3.54144,3.38973 -4.32922,3.10722c-0.84277,-0.30224 -0.82035,-3.55556 0.29004,-5.39897c1.11039,-1.8434 1.85828,-3.34255 2.9803,-4.19732c0.97364,-0.74174 1.43485,-1.05315 2.8401,0.02106c0,0 1.22815,0.6978 1.13833,1.40444z" data-paper-data="{&quot;origRot&quot;:0,&quot;origPos&quot;:null}"/></g></g><path d="M242.29316,308.11804c2.07353,-7.25322 5.46927,-9.84248 8.60793,-16.18343c4.90303,-9.90538 10.10925,-25.17516 10.10925,-25.17516c4.75057,-12.50928 30.04077,-0.63057 23.07917,10.82342c-8.58123,14.11877 -14.63175,42.55505 -19.36826,55.39669c-9.7904,26.54375 -13.36723,37.97905 -13.36723,37.97905l-18.07642,-7.629c0,0 3.21765,-16.95343 4.17454,-24.34983c1.48866,-11.50668 2.76755,-23.60852 4.84106,-30.86176z" fill="#252525" stroke="#000000" stroke-width="0" stroke-linecap="butt"/><path d="M271.32661,237.41228c10.33134,22.95789 6.96906,23.46371 12.90346,35.50096c2.3406,9.29351 -21.99483,9.51445 -21.99483,9.51445c0,0 -36.19005,-47.59434 -44.6419,-83.21369c-1.85839,-7.83199 17.47718,-7.28356 20.70045,-8.45134c0,0 6.4798,1.21489 11.40791,6.00459c0,0 10.71531,16.40219 21.62489,40.64505z" data-paper-data="{&quot;origRot&quot;:0,&quot;index&quot;:null}" fill="#000000" stroke="#000000" stroke-width="0" stroke-linecap="butt"/><g data-paper-data="{&quot;index&quot;:null}" stroke="none" stroke-linecap="round"><path d="M220.26608,380.3242c3.06034,-4.1432 7.72743,-13.53171 11.05819,-17.3994c2.25971,-2.62237 4.49003,-9.76681 7.27155,-8.89352c1.09886,0.345 4.1598,5.91112 8.30838,7.95136c4.03365,1.98369 9.83161,0.66515 9.28845,2.71286c-1.10989,4.18418 -6.43317,12.14368 -5.8186,13.75004c3.64288,9.49024 8.3261,16.98441 0.81901,23.8385c-4.65478,4.24986 -15.09887,-0.02624 -15.09887,-0.02624c0,0 -16.49086,-20.88556 -15.82811,-21.93359z" data-paper-data="{&quot;origPos&quot;:null}" fill="#000000" stroke-width="1"/><path d="M223.03959,376.07071c0,0 4.86566,5.48863 7.46218,12.97857c2.85639,8.23959 10.56659,14.28779 10.56659,14.28779l-5.28545,-1.32814l-15.7393,-20.87404z" data-paper-data="{&quot;origPos&quot;:null,&quot;origRot&quot;:0}" fill="#111111" stroke-width="1.16035"/></g><path d="M176.44011,311.2168c6.21557,-9.13909 12.82236,-27.90486 12.82236,-27.90486c6.42178,-11.73928 31.89236,8.84743 23.42522,19.23806c-10.43703,12.80803 -16.45113,35.59161 -22.9046,47.66205c-13.33932,24.94965 -22.33147,40.33989 -22.33147,40.33989l-16.85889,-10.03674c0,0 3.46396,-14.71992 6.85894,-23.82204c3.39498,-9.10212 18.98843,-45.47635 18.98843,-45.47635z" fill="#252525" stroke="#000000" stroke-width="0" stroke-linecap="butt"/><path d="M221.55481,260.39559c-3.71919,24.90449 -5.56967,23.17493 -6.33596,36.57369c-0.38015,6.64704 -27.05525,-2.02801 -27.05525,-2.02801c0,0 -9.38752,-59.30776 1.76773,-94.42516c2.45283,-7.72162 21.02083,2.37224 24.80204,2.96207c0,0 12.7591,4.29948 14.95874,10.9077c0,0 -4.24542,19.94878 -8.13731,46.00969z" data-paper-data="{&quot;origRot&quot;:0,&quot;index&quot;:null}" fill="#000000" stroke="#000000" stroke-width="0" stroke-linecap="butt"/><g data-paper-data="{&quot;index&quot;:null,&quot;origRot&quot;:0}" stroke="none" stroke-linecap="round"><path d="M138.17987,393.35087c2.97102,-4.20769 7.43624,-13.69389 10.68352,-17.63193c2.2031,-2.67009 4.2801,-9.86062 7.07966,-9.04702c1.10598,0.32141 4.28528,5.8208 8.47656,7.77184c4.07516,1.89697 9.84358,0.45471 9.34435,2.51358c-1.02014,4.20697 -6.17197,12.2785 -5.52317,13.87135c3.84501,9.41015 8.68745,16.80243 1.32868,23.81554c-4.56282,4.34844 -15.09599,0.29673 -15.09599,0.29673c0,0 -16.9338,-20.52805 -16.29362,-21.59005z" data-paper-data="{&quot;origPos&quot;:null}" fill="#000000" stroke-width="1"/><path d="M140.86175,389.03902c0,0 4.98194,5.3833 7.73807,12.81599c3.03197,8.17662 10.86977,14.05851 10.86977,14.05851l-5.31265,-1.21478l-16.18217,-20.53261z" data-paper-data="{&quot;origPos&quot;:null,&quot;origRot&quot;:0}" fill="#111111" stroke-width="1.16035"/></g><g stroke-linecap="butt"><g data-paper-data="{&quot;origPos&quot;:null}" stroke="none"><path d="M209.02989,59.67441c1.20178,-5.64132 2.05696,-6.97197 4.00126,-7.89113c1.94429,-0.91916 8.56623,-1.80043 15.85876,-1.49752c7.29253,0.30291 5.34552,-2.3087 12.20941,1.16056c6.86389,3.46926 6.05947,4.38415 6.56973,8.33108c0.51023,3.94692 7.72148,13.7548 3.75741,14.89348c-3.92486,1.12744 -29.1818,4.0799 -47.22213,-2.06641c0.41974,-2.57062 0.71705,-5.07591 0.65316,-7.60252c0.01551,-0.03745 0.03086,-0.07494 0.04607,-0.11247l0.26312,-0.25242c0,0 0.46595,-0.79814 0.84047,-1.93481c1.56429,-0.85468 2.76755,-1.8301 3.02271,-3.02784z" data-paper-data="{&quot;origPos&quot;:null}" fill="#000000" stroke-width="0"/><g data-paper-data="{&quot;origPos&quot;:null}"><path d="M207.37385,73.91919c-1.27627,-0.51886 -2.31536,-1.0007 -3.14729,-1.45133c0.31926,-1.97425 0.56366,-3.91082 0.6248,-5.84905c2.93214,-1.47863 6.73865,-3.02967 7.19898,-5.47127c0.22589,-1.19815 0.35566,-1.87353 0.68682,-3.04442c0.58477,-2.06756 1.32514,-3.17396 3.16324,-4.10159c1.92631,-0.97217 7.06728,-1.80548 13.36856,-1.54375c6.30128,0.26172 6.18636,-1.63936 11.96053,1.46871c5.77419,3.10809 3.53573,3.15218 3.94924,7.09512c0.4135,3.94293 6.97642,13.55563 3.13116,14.86746c-3.84526,1.31187 -25.58401,4.27157 -40.93602,-1.96987z" data-paper-data="{&quot;origPos&quot;:null}" fill="#09162e" stroke-width="0"/><g data-paper-data="{&quot;origPos&quot;:null}" fill="none" stroke-width="1" font-family="sans-serif" font-weight="normal" font-size="12" text-anchor="start"/></g></g><path d="M243.82152,77.41943c0,0 -9.2321,4.9135 -13.7609,4.68382c-3.89887,-0.19774 -14.77716,-6.55389 -14.77716,-6.55389c0,0 2.36647,-2.73627 3.27276,-4.98331c0.77044,-1.91023 2.06541,-5.86805 2.17153,-7.96052c0.113,-2.22815 -2.93134,-14.11983 -2.93134,-14.11983l27.42618,0.51242z" data-paper-data="{&quot;origPos&quot;:null}" fill="url(#color-4)" stroke="none" stroke-width="0"/><g data-paper-data="{&quot;origPos&quot;:null}" fill="#b2bbc1" stroke="none" stroke-width="0"><path d="M195.69867,148.81917l62.31624,1.86909c0,0 -2.02415,16.20039 -2.24654,26.35351c-0.2016,9.20399 0.30926,14.86106 1.10305,24.0225c1.05847,13.7491 -12.71707,18.61714 -26.41824,18.35227c-14.34169,-0.27724 -42.81964,-4.65657 -40.17631,-17.32914c0,0 3.14373,-19.17936 4.42389,-31.75671c0.83577,-8.21125 0.99791,-21.51151 0.99791,-21.51151z" data-paper-data="{&quot;origPos&quot;:null}"/><path d="M195.84682,150.27743c0,0 -0.48018,-11.93324 -1.51652,-19.56181c-2.52255,-18.5686 -3.13985,-28.9173 -4.40918,-47.56091c-0.02077,-4.47727 5.2812,-13.74132 13.41817,-14.49056c5.01091,-0.46138 16.37253,-2.20667 16.37253,-2.20667c0,0 0.11062,5.38859 2.71948,7.90844c4.74818,4.58618 11.77461,4.87128 11.77461,4.87128c0,0 7.03578,-2.29562 9.14815,-5.73741c1.13945,-1.85659 0.73695,-7.76026 0.73695,-7.76026c0,0 15.27726,9.05859 20.05311,19.95574c4.77585,10.89717 2.35241,19.55138 0.75372,31.84971c-1.59871,12.29833 -6.76773,35.45483 -6.76773,35.45483l-62.28327,-2.72239z" data-paper-data="{&quot;origPos&quot;:null}"/></g><path d="M257.70929,212.07814c-0.3825,7.542 -13.79986,15.4252 -30.02542,14.60231c-16.22556,-0.8229 -39.70866,-9.36057 -39.32616,-16.90256c0.25705,-5.06845 2.18595,-10.86822 2.18595,-10.86822c0,0 27.62799,5.66669 40.19896,6.25755c13.18753,0.61985 25.80398,-3.15528 25.80398,-3.15528c0,0 1.5452,2.52422 1.1627,10.0662z" data-paper-data="{&quot;origPos&quot;:null}" fill="#000000" stroke="none" stroke-width="0"/><g data-paper-data="{&quot;origPos&quot;:null,&quot;index&quot;:null}"><path d="M241.37,150.3656c0.62001,-20.43893 2.24327,-55.96231 2.24327,-55.96231c0.41838,-9.22898 5.35518,-12.61321 6.33726,-20.73466c1.23441,-2.60945 -2.10012,-3.30171 -0.71697,-5.68596c2.91469,0.68178 7.54621,2.79001 11.29874,5.49267c3.75767,2.70635 7.27491,13.81828 6.96973,20.54971c-0.78995,17.42443 -1.27058,13.91725 -5.79751,43.47033c-4.67179,30.49882 -2.96565,67.75791 -2.96565,67.75791c0,0 -6.18298,3.80487 -9.29803,4.74769c-3.67255,1.11156 -8.9323,6.43958 -9.32746,-1.0074c0,0 0.52842,-34.62304 1.25659,-58.62796z" data-paper-data="{&quot;origPos&quot;:null}" fill="#255dbc" stroke="#000000" stroke-width="0"/><path d="M245.42176,121.29528l-3.92939,11.37431c0,0 1.17623,-13.04074 0.33468,-21.625c-0.60562,-6.17772 -0.19448,-10.09887 0.42102,-16.37153c0.32851,-3.34792 2.63775,-8.51251 2.63775,-8.51251l21.70105,0.72247c0,0 1.81764,6.07242 1.31385,10.74459c-0.70766,6.56328 -2.71498,17.7932 -2.71498,17.7932z" data-paper-data="{&quot;origPos&quot;:null}" fill="#09162e" stroke="none" stroke-width="0"/><path d="M244.06222,89.71521c0,0 0.51661,-3.12806 1.75792,-6.14727c2.8505,-6.93335 3.75233,-16.42846 3.75233,-16.42846l10.14764,6.13335l-1.50922,16.28392z" data-paper-data="{&quot;origPos&quot;:null}" fill="#09162e" stroke="none" stroke-width="0"/><path d="M259.70455,111.40962c0,0 -0.28952,1.49623 -1.20973,1.10618c-0.92021,-0.39006 -0.63069,-1.88629 -0.63069,-1.88629l0.58194,-1.24245c0.2455,-1.18097 1.05281,-4.7505 0.94478,-5.25759c-0.27435,-1.28782 -0.99989,-2.08166 -0.77861,-3.65487c0.06872,-0.48856 0.94013,-4.28217 1.77578,-4.10445c0.04376,0.00931 0.07597,0.04141 0.1005,0.08913c0.10425,-0.06321 0.41122,0.17727 0.34012,0.05293l-0.98557,-0.45532c-0.42024,-0.1779 -0.70866,-0.80959 -0.67136,-1.5451c0.02597,-0.51206 0.20389,-0.95809 0.45678,-1.22721l1.07879,-1.17403l0.03646,0.08973c0.11458,-0.08896 0.22299,-0.16532 0.33119,-0.23318l-0.01061,-0.10206l0.23794,-0.08188l0.01849,-0.36456l1.0256,0.05201c0.03804,0.00193 0.07538,0.00738 0.11194,0.01616c0.28233,0.05048 0.65025,0.28649 0.75462,1.1411c0.00491,0.0377 0.00893,0.07594 0.01205,0.11467c0.0767,0.86961 -0.21948,1.33568 -0.47287,1.57087c-0.10518,0.10626 -0.22255,0.18237 -0.34686,0.2207l-0.33532,0.11537c0.2608,0.53607 0.4478,1.09169 0.39221,1.4022c-0.45794,2.55777 -1.76381,2.68912 -2.21167,4.56869c-0.03446,0.14461 0.25163,-0.18822 0.28479,-0.04822c0.2244,0.9477 0.55683,2.08725 0.59154,3.54209c0.05038,2.11273 -0.43763,4.1184 -0.85313,6.11714l-0.56905,1.1783zM260.59445,98.07683c0.01008,0.03447 0.02181,0.06621 0.03576,0.09421c0.04509,0.09049 0.01495,0.03059 -0.03576,-0.09421z" data-paper-data="{&quot;origPos&quot;:null}" fill="#ffffff" stroke="none" stroke-width="0.5"/><path d="M244.61279,86.3361l0.05225,-1.03033l20.12717,1.02077l0.1785,1.04203z" data-paper-data="{&quot;origPos&quot;:null}" fill="#ffffff" stroke="none" stroke-width="0"/><path d="M243.16758,92.0655l-0.9525,2.95221l0.38546,-3.39274l2.06334,-6.33734l0.56705,0.44052z" data-paper-data="{&quot;origPos&quot;:null,&quot;origRot&quot;:0}" fill="#ffffff" stroke="none" stroke-width="0"/></g><g data-paper-data="{&quot;origPos&quot;:null}"><path d="M224.52068,150.33746c-2.00517,23.94016 -5.7375,58.4007 -5.7375,58.4007c-1.62201,7.34467 -9.38523,1.35618 -15.15111,-0.23406c-4.89061,-1.34884 -14.3419,-5.9466 -14.3419,-5.9466c0,0 5.21049,-37.73469 4.19438,-67.69559c-1.01611,-29.96091 -5.05498,-34.61336 -4.02035,-52.02537c0.3997,-6.72665 6.21643,-11.78715 12.62474,-13.97795c6.39956,-2.18778 9.61707,-1.41884 14.40015,-1.71021c1.91136,2.55134 2.72689,3.11584 4.36893,5.87118c0.50618,8.19693 8.00671,12.2119 7.4587,21.43431c0,0 -2.08872,35.49977 -3.79603,55.88356z" data-paper-data="{&quot;origPos&quot;:null}" fill="#255dbc" stroke="#000000" stroke-width="0"/><path d="M192.31912,112.88972c0,0 -1.16598,-12.06699 -1.43657,-18.67987c-0.19262,-4.70749 3.63863,-10.49342 3.63863,-10.49342l32.29266,2.35394c0,0 3.03435,5.4356 3.1201,8.80453c0.16068,6.31202 0.30359,10.26128 -1.48926,16.31735c-2.49125,8.41523 -2.32368,21.52412 -2.32368,21.52412l-4.82092,-11.81809z" data-paper-data="{&quot;origPos&quot;:null}" fill="#09162e" stroke="none" stroke-width="0"/><path d="M207.71029,85.79357l-0.82909,-18.76894l9.36083,-2.81509c0,0 5.73902,11.89784 9.41071,19.16197c1.5989,3.16327 2.01663,6.3387 2.01663,6.3387z" data-paper-data="{&quot;origPos&quot;:null}" fill="#09162e" stroke="none" stroke-width="0"/><path d="M199.65427,108.36416l-0.76025,-1.24572c-0.40441,-2.04032 -0.92464,-4.09712 -0.56384,-6.189c0.24844,-1.44048 0.93455,-2.52837 1.42127,-3.44001c0.0719,-0.13467 0.48848,0.23379 0.45214,0.08559c-0.47227,-1.92622 -2.55741,-2.22957 -2.95615,-4.83078c-0.04841,-0.31578 0.32622,-0.84292 0.81708,-1.34087l-0.52461,-0.15899c-0.19508,-0.05453 -0.374,-0.14566 -0.52926,-0.26514c-0.37686,-0.26716 -0.79202,-0.7693 -0.5534,-1.62292c0.01014,-0.03805 0.02168,-0.07551 0.03456,-0.1123c0.28115,-0.83505 0.90478,-1.02076 1.36604,-1.03355c0.06,-0.00389 0.12086,-0.00435 0.18236,-0.00124l1.65816,0.0841l-0.01849,0.36456l0.37228,0.11283l-0.0306,0.09997c0.16523,0.08173 0.32966,0.17193 0.50237,0.27546l0.07058,-0.0843l1.58152,1.30895c0.37154,0.3008 0.59898,0.76738 0.57301,1.27944c-0.0373,0.73549 -0.5853,1.32476 -1.28545,1.44586l-1.64709,0.32181c-0.13092,0.1141 0.39514,-0.08413 0.5546,-0.00755c0.04582,-0.04415 0.10194,-0.07177 0.17362,-0.07522c1.36897,-0.06591 2.26982,3.81759 2.3158,4.31196c0.14803,1.59195 -1.12521,2.28441 -1.7374,3.52727c-0.24105,0.48939 0.58623,4.14182 0.82519,5.34736l0.77249,1.31114c0,0 0.26809,1.52451 -1.26515,1.79014c-1.53322,0.26562 -1.80131,-1.25888 -1.80131,-1.25888zM199.83268,96.74035c0.02618,-0.02597 0.0493,-0.05593 0.07008,-0.08884c-0.09819,0.11724 -0.15466,0.17276 -0.07008,0.08884z" data-paper-data="{&quot;origPos&quot;:null}" fill="#ffffff" stroke="none" stroke-width="0.5"/><path d="M194.31597,84.61161l0.42533,-1.0114l32.54107,1.65035l-0.05225,1.03033z" data-paper-data="{&quot;origPos&quot;:null}" fill="#ffffff" stroke="none" stroke-width="0"/><path d="M226.3154,85.5952l0.97127,-0.3625l2.48322,6.56793l0.17149,3.42099l-1.14279,-3.05848z" data-paper-data="{&quot;origPos&quot;:null,&quot;origRot&quot;:0}" fill="#ffffff" stroke="none" stroke-width="0"/><path d="M192.00032,114.49837c0,0 -7.31857,-28.50733 -1.0901,-38.1717c7.21091,-11.18876 13.64688,-7.98479 13.64688,-7.98479c0,0 -4.22594,10.08651 -7.40584,16.38662c-3.17991,6.30011 -5.15095,29.76988 -5.15095,29.76988z" data-paper-data="{&quot;origPos&quot;:null}" fill="#000000" stroke="none" stroke-width="0"/></g></g><g stroke-linecap="butt"><path d="M243.32752,-3.74999c16.88488,0.40133 22.09951,12.93908 23.50807,18.31738c1.73002,6.60573 -0.28235,23.47554 -1.71418,30.71587c-2.57878,13.43938 -12.15546,25.73416 -20.67451,27.33971c-3.61673,-0.42294 -26.90982,-7.53518 -29.69357,-12.99436c-6.67118,-13.08273 -9.00369,-17.36931 -8.71728,-32.05198c0.31921,-16.3635 11.56295,-32.28822 37.29146,-31.32663z" fill="url(#color-5)" stroke="none" stroke-width="0"/><g stroke="none" stroke-width="0"><path d="M244.24708,52.88595l6.24894,-0.55957c0.66374,0.43952 -0.29638,2.42126 -2.03916,2.33697c-1.70959,-0.08266 -4.54238,-0.77602 -4.54238,-0.77602l0.33258,-1.00139z" data-paper-data="{&quot;origPos&quot;:null,&quot;index&quot;:null}" fill="#f4d7c8"/><path d="M249.36987,53.7153c0.43526,-0.14687 0.84459,-0.11001 0.91426,0.08229c0.06967,0.1923 -0.22673,0.46727 -0.66199,0.61416c-0.43527,0.14686 -0.84459,0.11003 -0.91426,-0.08229c-0.06967,-0.1923 0.22673,-0.46728 0.66197,-0.61417z" data-paper-data="{&quot;origPos&quot;:null,&quot;origRot&quot;:0}" fill="url(#color-6)"/><path d="M244.2478,50.38926c0,0 -0.11384,-4.2855 -0.50046,-7.04435c-0.30199,-2.155 -1.26402,-5.54679 -1.26402,-5.54679c0,0 2.32676,2.64513 2.65552,4.30069c0.50879,2.56215 -0.15486,6.40582 -0.15486,6.40582z" data-paper-data="{&quot;origPos&quot;:null}" fill="url(#color-7)"/><path d="M246.12391,53.40518c0.5482,0.04339 0.9769,0.24293 0.95757,0.44563c-0.01933,0.2027 -0.4794,0.33181 -1.02761,0.28841c-0.54817,-0.04343 -0.9769,-0.24291 -0.95757,-0.44562c0.01933,-0.2027 0.4794,-0.33182 1.02761,-0.28843z" data-paper-data="{&quot;origPos&quot;:null}" fill="url(#color-8)"/><path d="M249.08527,54.16317c-0.82933,-0.07352 -1.25127,-0.41127 -1.9012,-0.8285c-1.24646,-0.56708 -2.57556,-0.30982 -2.99766,0.60281c-0.32978,0.17359 -0.7698,-0.31359 -0.95465,-0.61213c-0.38035,-0.61427 -0.47871,-1.44557 -0.11645,-2.06762c0.27611,-0.47407 0.3614,-0.62441 0.90028,-1.10769c0.47111,-0.42251 1.68292,-6.00521 0.50457,-9.46068c-1.74325,-5.11203 -5.85248,-5.82838 -11.38676,-6.34803c-2.70467,-0.25396 -9.25695,2.15984 -9.25695,2.15984c0,0 2.57373,-4.88761 6.12622,-6.24628c5.25164,-2.00853 9.57244,-1.75985 15.18608,-1.09214c18.26933,1.19977 19.91742,6.50389 19.91742,6.50389c0,0 -5.50654,0.43598 -8.92416,1.24125c-4.19142,0.98759 -5.435,2.47701 -6.17894,4.58216c-0.77092,2.18147 -0.98034,4.18657 -0.50011,6.85269c0.21684,1.20378 1.42533,1.82563 1.5541,3.04089c0.16758,1.58143 -1.14246,2.85308 -1.9718,2.77955z" data-paper-data="{&quot;origPos&quot;:null}" fill="url(#color-9)"/></g><path d="M259.43602,34.6571c3.48298,0.22258 6.51074,2.50661 7.68282,3.35112c0.54305,0.39125 -4.69958,-1.82573 -8.11754,-1.76211c-2.56709,0.0478 -3.59807,-0.02626 -5.67478,1.40332c-0.58742,0.40442 -1.07688,0.37892 -1.42963,0.17471c-0.35277,-0.20421 -0.31466,-0.90834 0.27279,-1.31275c0,0 2.96321,-2.12922 7.26631,-1.85424z" data-paper-data="{&quot;origRot&quot;:0,&quot;index&quot;:null}" fill="#38301c" stroke="none" stroke-width="0"/><path d="M269.56309,34.39264c-5.80407,-8.59988 -5.59623,-16.41765 -16.25301,-16.60343c-11.51468,-0.20074 -28.77438,7.5783 -36.33718,15.88016c-2.70593,2.97037 -0.3516,11.61209 -0.3516,11.61209l-3.0676,0.32436c0,0 -1.8918,-2.59066 -2.82686,-4.63895c-1.91198,-4.18828 -4.16113,8.92854 -4.16113,8.92854c0,0 -4.23306,-24.82852 -0.07723,-36.39256c4.40757,-12.26452 18.18893,-19.03317 33.72486,-18.50635c15.53593,0.52682 24.17448,3.49907 29.81651,16.02195c0,0 4.50257,8.06051 3.22378,13.36792z" fill="#3d3021" stroke="none" stroke-width="0"/><path d="M246.03078,20.20208c-10.85068,-0.18917 -21.62146,2.90693 -28.74813,10.73002c-2.64572,2.90429 -4.90823,10.61111 -4.90823,10.61111c0,0 -1.21101,-21.078 3.12608,-27.28107c2.84954,-7.19487 7.27725,-6.74854 7.27725,-6.74854c0,0 7.29271,-11.07446 24.47713,-11.44781c4.30818,0.25352 10.02879,1.3045 13.3997,3.99926c2.75464,2.20209 2.50282,3.95706 4.94745,6.49873c-5.52388,3.58644 -12.62011,13.75948 -19.57125,13.63829z" fill="#453725" stroke="none" stroke-width="0"/><g stroke="none" stroke-width="0"><path d="M223.30195,24.97001l-4.33463,-2.40416l6.3486,0.78197l-1.22058,-1.34235c0,0 3.71782,1.74438 9.31111,0.83106c7.60574,-1.24195 18.332,-5.79714 23.87242,-6.0677c4.22705,-0.20644 7.26114,0.47885 9.42335,4.22089c1.11471,1.92916 1.33939,5.51416 1.33939,5.51416c0,0 -0.40974,2.08286 0.34682,3.63339c-0.36962,0.92739 -0.33347,2.51027 -0.53442,3.51672l-1.08205,-5.05531c0,0 -1.14706,-4.05781 -1.313,-3.9971c-0.49782,0.18212 -0.34693,3.30156 -0.34693,3.30156c0,0 -0.84394,-4.34043 -1.29914,-5.72342c-1.32967,0.59724 -0.24744,1.56117 -2.64621,1.83279c-8.83944,1.00083 -12.83124,7.08952 -21.70398,6.63953c-13.6514,-0.69235 -21.33486,-4.93631 -21.33486,-4.93631z" data-paper-data="{&quot;origPos&quot;:null}" fill="url(#color-10)"/><path d="M221.28923,21.91962l-4.38548,-3.40843l6.48348,0.99975l-1.22024,-1.9295c0,0 3.76845,2.46044 9.51589,1.00601c10.23862,-2.59093 4.33107,-13.43049 27.37243,-15.52595c11.6953,-1.06362 5.07859,10.53861 6.44726,17.75012c0.35585,1.87495 -0.36513,4.36243 -0.36513,4.36243l-0.30607,-2.73948c0,0 -0.49491,-0.97996 -2.882,-0.42613c-2.05122,0.47589 -3.80392,-0.30092 -3.80392,-0.30092c0,0 1.41394,0.256 3.9179,-0.86644c1.65064,-0.70407 0.18526,-1.47628 -0.01148,-1.01707c-12.959,1.81668 -13.50094,9.71994 -24.10881,9.18195c-13.96321,-0.70816 -20.88222,-5.83032 -20.88222,-5.83032z" data-paper-data="{&quot;origPos&quot;:null}" fill="#3b2f20"/></g><path d="M213.56497,43.70399c0.71619,4.67175 1.85267,8.99004 -1.88834,10.40635c-2.06469,0.78167 -5.88255,-2.78359 -6.66212,-7.86864c-0.77957,-5.08504 0.80412,-6.68791 3.70393,-7.42725c2.89983,-0.73932 4.06695,-0.19552 4.84649,4.88954z" data-paper-data="{&quot;origRot&quot;:0}" fill="#f6d8c8" stroke="none" stroke-width="0"/><g data-paper-data="{&quot;origPos&quot;:null,&quot;origRot&quot;:0}" stroke="none" stroke-width="0"><path d="M230.34246,47.42211c-4.13412,-1.01493 -5.96247,-1.91221 -6.0002,-5.18518c-0.01449,-1.25691 0.17625,-2.12804 1.00254,-2.90494c0.77459,-0.7283 2.39884,-1.4527 3.40927,-1.5922c2.41974,-0.33406 4.29306,-0.35131 6.39384,0.16441c4.84531,1.90407 5.08021,5.97847 5.08021,5.97847c0,0 -0.61324,1.41687 -1.53965,2.25337c-3.10524,2.8038 -8.346,1.28604 -8.346,1.28604z" data-paper-data="{&quot;origPos&quot;:null}" fill="#000000"/><path d="M238.26885,46.74133c-1.07392,1.15543 -2.65417,1.31907 -2.65417,1.31907c-1.85093,-0.16135 -2.96901,-0.1509 -4.76261,-0.56138c-1.84352,-0.42193 -3.16425,-0.5121 -4.30623,-1.82036c-1.14287,-1.30926 -1.70174,-2.6979 -1.38693,-3.81355c0.15537,-0.55062 0.14457,-1.91051 1.77444,-2.41675c1.20066,-0.37292 2.16222,-1.19869 3.18712,-1.27655c2.42687,-0.1843 2.84932,-0.2367 5.20407,0.34142c3.64912,1.96096 4.60419,5.66566 4.60419,5.66566c0,0 -0.58594,1.40706 -1.65987,2.56247z" data-paper-data="{&quot;origPos&quot;:null}" fill="#ffffff"/></g><path d="M232.21125,47.70171c-1.34913,-0.06842 -3.41684,-0.06798 -3.41684,-0.06798l0.0222,-0.43771c0,0 2.09842,0.09628 3.41203,0.1629c1.70427,0.08643 4.321,0.22929 4.321,0.22929l-0.0222,0.43772c0,0 -2.64742,-0.23957 -4.31619,-0.32421z" data-paper-data="{&quot;origPos&quot;:null}" fill="#000000" stroke="none" stroke-width="0"/><path d="M232.56166,38.04511c-1.26504,-0.04847 -4.54643,1.00588 -4.54643,1.00588c0,0 -3.33363,1.19704 -2.78878,0.47336c0.5364,-0.71247 1.7452,-1.2666 3.11861,-1.70539c1.72481,-0.55104 3.10053,-0.78648 4.93571,-0.65967c2.81504,0.59146 4.41768,1.88336 5.48956,3.3172c-0.1574,0.1662 -1.54497,-0.86606 -1.66663,-0.67027c-0.4204,-0.34368 -0.84129,-0.66433 -1.41034,-1.00226c-0.9051,-0.53747 -1.86664,-0.7104 -3.13168,-0.75886z" data-paper-data="{&quot;origPos&quot;:null,&quot;origRot&quot;:0}" fill="#000000" stroke="#000000" stroke-width="0"/><path d="M231.96398,33.1313c5.25594,-0.12262 8.76114,2.11017 8.76114,2.11017c0.69578,0.42494 0.70755,1.13003 0.26773,1.32164c-0.4398,0.19164 -1.03735,0.19976 -1.73311,-0.22517c-2.45965,-1.50221 -3.71931,-1.46463 -6.84441,-1.60322c-4.16092,-0.18449 -10.65704,1.84574 -9.97621,1.47393c1.46951,-0.80255 5.2706,-2.97814 9.52482,-3.07739z" data-paper-data="{&quot;origRot&quot;:0,&quot;origPos&quot;:null,&quot;index&quot;:null}" fill="#38301c" stroke="none" stroke-width="0"/><g data-paper-data="{&quot;origPos&quot;:null,&quot;origRot&quot;:0}" stroke="none" stroke-width="0"><path d="M253.23041,46.95929c-0.73138,-0.82187 -1.19118,-2.17132 -1.19118,-2.17132c0,0 0.30634,-3.79128 4.30867,-5.35162c1.72656,-0.38744 3.25272,-0.28768 5.21526,0.13205c0.8195,0.17527 2.12275,0.92373 2.73347,1.63791c0.65148,0.76181 0.78237,1.58316 0.7351,2.75532c-0.70599,3.01991 -2.81629,3.98105 -5.03605,4.57032c0,0 -4.31373,1.18218 -6.76526,-1.57265z" data-paper-data="{&quot;origPos&quot;:null}" fill="#000000"/><path d="M253.33239,42.18104c0.83047,-1.33816 1.44135,-1.40682 2.85437,-2.18436c1.93528,-0.4343 2.27809,-0.36654 4.25064,-0.08621c1.72118,0.44045 3.55887,2.26888 3.69027,3.64244c0.22512,1.05507 -0.02056,2.3511 -0.98886,3.52174c-0.96756,1.16973 -2.04641,1.19492 -3.56068,1.50629c-1.47326,0.30294 -2.38412,0.24325 -3.89707,0.31116c0,0 -1.2832,-0.22324 -2.12579,-1.34932c-0.8426,-1.12604 -1.60146,-2.72152 -1.60146,-2.72152z" data-paper-data="{&quot;origPos&quot;:null}" fill="#ffffff"/></g><path d="M254.74656,48.80049l0.00277,-0.46584c0,0 1.41569,0.12495 3.04768,0.1492c1.25789,0.01868 3.28285,-0.25788 3.28285,-0.25788l-0.00275,0.46584c0,0 -1.82785,0.26462 -3.11975,0.24543c-1.598,-0.02374 -3.2108,-0.13674 -3.2108,-0.13674z" data-paper-data="{&quot;origPos&quot;:null,&quot;origRot&quot;:0}" fill="#000000" stroke="none" stroke-width="0"/><path d="M253.16773,41.84374c0.8577,-1.29488 2.15046,-2.45492 4.44151,-2.96441c1.49673,-0.09644 2.63843,-0.1768 4.05329,0.34308c1.1266,0.41395 2.55112,1.89489 2.55112,1.89489c0,0 -1.48425,-0.39048 -2.35777,-0.62339c-1.11062,-0.2961 -2.44665,-0.55927 -3.47887,-0.5283c-1.03221,0.03098 -1.72853,0.21175 -2.79338,0.99546c-1.08387,0.7977 -3.02754,2.85703 -3.02754,2.85703z" data-paper-data="{&quot;origPos&quot;:null,&quot;origRot&quot;:0}" fill="#000000" stroke="#000000" stroke-width="0"/><g><g data-paper-data="{&quot;origPos&quot;:null}" stroke="#000000" stroke-width="0"><path d="M237.61673,39.90626c0.15551,1.39842 -0.2272,2.73932 -0.97161,3.77538c-0.7444,1.03608 -2.00623,1.36688 -3.29624,1.54731c-1.28998,0.18047 -2.36694,0.17677 -3.31554,-0.62253c-0.94859,-0.79925 -1.61331,-1.99367 -1.76887,-3.39211c-0.08362,-0.75208 0.07338,-1.48323 0.27364,-2.16352c4.12811,-1.32766 4.79447,-2.08639 9.01071,0.40976c0.02839,0.14605 0.05114,0.29467 0.06793,0.4457z" data-paper-data="{&quot;origPos&quot;:null}" fill="#898151"/><path d="M237.6537,40.01668c0.03298,0.29656 -0.04321,0.58625 -0.05695,0.87528c-0.70517,-0.19144 -0.85553,-1.43387 -4.55931,-1.67493c-3.37063,-0.21939 -4.17697,0.67564 -4.73828,0.89758c0.10259,-0.94912 0.18221,-0.70078 0.70816,-1.4328c0.19849,-0.54286 1.27839,-0.75463 2.56839,-0.93506c1.28999,-0.18038 5.9225,0.87144 6.07799,2.26993z" data-paper-data="{&quot;origPos&quot;:null}" fill="#4d461c"/></g><g data-paper-data="{&quot;origPos&quot;:null}" stroke="none" stroke-width="1"><path d="M232.1014,37.46837c0.61954,-0.49076 3.5149,0.3077 3.89202,1.07335c0.37714,0.76568 0.518,1.71844 0.33332,2.67575c-0.18473,0.9573 -0.6604,1.74004 -1.2799,2.23083c-0.6195,0.49076 -1.38282,0.68961 -2.14217,0.48018c-0.75937,-0.2094 -1.37272,-0.78789 -1.74985,-1.55357c-0.37714,-0.76568 -0.51798,-1.7184 -0.3333,-2.67567c0.18468,-0.9573 0.66036,-1.74009 1.27989,-2.23089z" data-paper-data="{&quot;origPos&quot;:null}" fill="#000000"/><path d="M236.20553,38.76001c0.17403,0.2959 0.29615,0.26562 0.28306,0.66957c-0.01308,0.40392 -0.1378,0.7512 -0.32894,0.98563c-0.19115,0.23435 -0.44863,0.35595 -0.72671,0.30906c-0.27808,-0.04689 -0.52492,-0.25338 -0.69891,-0.54935c-0.17398,-0.29587 -0.27508,-0.68121 -0.262,-1.08519c0.01308,-0.40392 -0.07524,-0.6579 0.1159,-0.89237c0,0 1.44362,0.26669 1.6176,0.56265z" data-paper-data="{&quot;origPos&quot;:null,&quot;origRot&quot;:0}" fill="#ffffff"/><path d="M230.72033,40.88865c0.16266,-0.09549 0.36449,-0.13246 0.56669,-0.08822c0.20222,0.04423 0.36683,0.16135 0.46948,0.31489c0.10262,0.15356 0.14323,0.34347 0.09744,0.53335c-0.04572,0.18985 -0.16934,0.34391 -0.33201,0.43938c-0.16266,0.09549 -0.36444,0.13254 -0.56668,0.08827c-0.20219,-0.04421 -0.36675,-0.16128 -0.46939,-0.31484c-0.10263,-0.15352 -0.14323,-0.34352 -0.09744,-0.53339c0.04582,-0.18987 0.16933,-0.34385 0.33197,-0.43933z" data-paper-data="{&quot;origPos&quot;:null}" fill="#ffffff"/></g></g><g><g data-paper-data="{&quot;origPos&quot;:null,&quot;origRot&quot;:0}" stroke="#000000" stroke-width="0"><path d="M255.03153,40.6304c3.7243,-1.69909 3.92095,-1.45354 6.89075,0.46607c0.03357,0.67823 0.0244,1.39787 -0.17552,2.09901c-0.37178,1.30373 -1.10264,2.33244 -1.9832,2.94051c-0.88056,0.60808 -2.30914,0.56611 -3.2792,0.18896c-0.9701,-0.37715 -1.30034,-1.01886 -1.69295,-2.12186c-0.3926,-1.103 -0.54975,-1.87083 -0.17799,-3.17456c0,0 0.36985,-0.26395 0.4181,-0.39813z" data-paper-data="{&quot;origPos&quot;:null}" fill="#898151"/><path d="M256.58988,39.53726c1.06061,-0.35468 2.68783,-0.20258 3.65792,0.17449c0.9701,0.37711 1.73039,0.34791 1.79246,1.19019c0.04973,0.67473 -0.03261,0.32519 -0.12319,1.24325c-0.39638,-0.30036 -0.86241,-1.27926 -3.52113,-1.60832c-2.92147,-0.36161 -3.39149,1.30902 -3.97383,1.37846c0.04118,-0.27679 0.02866,-0.46018 0.10749,-0.73668c0.37173,-1.30375 0.99967,-1.2867 2.06028,-1.64138z" data-paper-data="{&quot;origPos&quot;:null}" fill="#4d461c"/></g><g data-paper-data="{&quot;index&quot;:null,&quot;origPos&quot;:null,&quot;origRot&quot;:0}" stroke="none" stroke-width="1"><path d="M257.2836,39.37015c0.54459,-0.4366 1.20228,-0.50109 1.85379,-0.29782c0.65155,0.20326 1.1855,0.42841 1.49605,1.13182c0.31056,0.70343 0.41339,1.57329 0.23511,2.44189c-0.17833,0.8686 -0.60445,1.57344 -1.14899,2.01005c-0.54456,0.43659 -1.20752,0.605 -1.85903,0.40173c-0.65153,-0.20326 -1.16973,-0.74015 -1.48026,-1.44358c-0.31056,-0.70343 -0.41341,-1.57328 -0.2351,-2.44184c0.17828,-0.86861 0.60444,-1.57347 1.14901,-2.01009z" data-paper-data="{&quot;origPos&quot;:null}" fill="#000000"/><path d="M260.94506,40.03606c0.14443,0.27232 0.22409,0.62491 0.20484,0.99249c-0.01923,0.36757 -0.11688,0.34882 -0.28653,0.55911c-0.16968,0.21022 -0.39434,0.31669 -0.63353,0.26937c-0.23918,-0.04731 -0.4651,0.09348 -0.60952,-0.17888c-0.14439,-0.27228 -0.22409,-0.62483 -0.20486,-0.99247c0.01923,-0.36757 -0.06935,-0.90665 0.1003,-1.11696c0,0 1.2849,0.19498 1.42929,0.46734z" data-paper-data="{&quot;origPos&quot;:null,&quot;origRot&quot;:0}" fill="#ffffff"/><path d="M256.1407,42.26152c0.14232,-0.08425 0.3173,-0.11457 0.49103,-0.07093c0.17373,0.04363 0.31353,0.15301 0.39916,0.2945c0.08558,0.14151 0.11691,0.31512 0.07364,0.48725c-0.04322,0.17211 -0.15298,0.31034 -0.29531,0.39457c-0.14232,0.08425 -0.31727,0.11467 -0.49102,0.07099c-0.1737,-0.0436 -0.31352,-0.15294 -0.39909,-0.29444c-0.08558,-0.1415 -0.11692,-0.31517 -0.07363,-0.4873c0.0433,-0.17214 0.15298,-0.31028 0.29529,-0.39454z" data-paper-data="{&quot;origPos&quot;:null}" fill="#ffffff"/></g></g><path d="M251.7485,63.30637c-0.11811,2.32888 -3.98843,3.80286 -8.24782,3.58684c-4.2594,-0.21602 -7.1952,-1.81268 -7.07709,-4.14156c0.11811,-2.32888 4.58267,-4.55151 8.84206,-4.33549c4.2594,0.21602 6.60096,2.56132 6.48285,4.8902z" fill="#884744" stroke="#000000" stroke-width="0.75"/></g><g stroke="none" stroke-width="0" stroke-linecap="butt"><path d="M166.40098,202.67749l0.14167,-8.98912l13.01285,0.20508l-0.55101,8.77632c0,0 -1.0737,2.24461 -3.35938,2.2086c-1.51262,-0.02384 -9.2441,-2.20086 -9.2441,-2.20086z" data-paper-data="{&quot;origPos&quot;:null}" fill="#000000"/><path d="M181.71409,176.27132c-1.72353,11.24514 -1.91808,20.19223 -5.91471,28.50445c-2.13924,4.44917 -5.21898,4.30114 -6.94854,-0.33137c-3.3204,-8.89334 -2.21265,-20.86627 -1.55003,-31.37244c0.59415,-9.42056 -2.22265,-11.71887 -0.16011,-30.56327c0.97093,-12.16374 24.57247,-8.90029 22.82505,3.17055c-1.74742,12.07084 -6.52814,19.34695 -8.25167,30.59207z" data-paper-data="{&quot;origPos&quot;:null}" fill="url(#color-11)"/><g data-paper-data="{&quot;origPos&quot;:null}"><path d="M167.09966,200.79194l-0.60284,-7.08463l13.0808,-0.00022l-0.82286,9.98553c0,0 -2.13751,-3.26235 -5.19623,-3.67419z" data-paper-data="{&quot;origPos&quot;:null}" fill="url(#color-12)"/><path d="M166.30567,198.09855c0,0 -2.03449,-39.31679 0.51467,-53.56404c1.55427,-8.68673 2.95874,-11.17234 11.49268,-10.10995c8.10842,0.76856 11.65183,5.05851 12.09973,11.02445c0.44789,5.96595 -11.9425,57.65008 -11.9425,57.65008c0,0 -0.37056,-5.4782 -3.82025,-5.97577c-3.6615,-0.52809 -8.34431,0.9752 -8.34431,0.9752z" data-paper-data="{&quot;origPos&quot;:null,&quot;origRot&quot;:0}" fill="#1e4994"/></g></g><g data-paper-data="{&quot;origRot&quot;:0}" stroke="none" stroke-width="0" stroke-linecap="butt"><path d="M202.42694,93.03394c1.76783,9.84802 -1.22568,11.40307 -3.65934,21.12168c-5.79482,23.14103 -5.86957,22.23383 -9.58786,29.69371c-4.52077,9.0699 -22.52341,0.74439 -20.04441,-9.12781c1.36802,-5.44786 2.42415,-18.5311 3.81458,-23.97298c4.75963,-18.62854 14.71737,-29.64161 21.97534,-31.31566c7.65294,-1.76516 6.59748,8.56407 7.50169,13.60111z" data-paper-data="{&quot;origPos&quot;:null,&quot;origRot&quot;:0}" fill="#2152a6"/><path d="M192.72622,79.66749c0.00654,6.06124 0.4257,13.07123 -0.78741,17.82251c-4.1916,16.41695 -8.6495,32.75977 -13.14648,49.09182c-5.62907,-1.66807 -10.91385,-6.80949 -9.49568,-12.45709c1.36802,-5.44786 2.42415,-18.5311 3.81458,-23.97298c4.26112,-16.6774 12.68848,-27.25107 19.615,-30.48428z" data-paper-data="{&quot;origPos&quot;:null,&quot;origRot&quot;:0}" fill="#000000"/></g><g stroke="none" stroke-width="0" stroke-linecap="butt"><g data-paper-data="{&quot;origPos&quot;:null,&quot;origRot&quot;:0}" fill="#fde6d9"><path d="M175.58102,216.0455c-0.48446,-0.91439 1.9866,-1.6608 1.9866,-1.6608c1.16955,-0.30439 2.0914,-0.53554 2.42678,0.62552c0.34872,1.20719 0.84048,3.1819 1.16875,4.44312c0.72389,2.78131 0.5278,4.61244 -0.9741,5.00334c-1.50191,0.39091 -2.41289,-0.52477 -3.13678,-3.30607c-0.72389,-2.78131 -0.47732,-3.22915 -1.47127,-5.10513z" data-paper-data="{&quot;origPos&quot;:null}"/><path d="M177.79017,222.90815c-0.09116,-0.82536 1.58234,-1.10671 1.58234,-1.10671c0.85967,-0.22373 1.84487,-0.75187 2.15442,0.15128c0.34555,1.00821 0.57312,3.33849 0.84157,4.36993c0.58696,2.25517 1.23774,5.07768 0.19113,5.31394c-1.81745,0.4103 -3.35957,-1.57949 -3.94652,-3.83467c-0.58696,-2.25517 -0.68077,-3.60683 -0.82294,-4.89376z" data-paper-data="{&quot;origPos&quot;:null}"/></g><g data-paper-data="{&quot;origPos&quot;:null,&quot;origRot&quot;:0}" fill="#ead0c0"><path d="M165.96657,216.91903c0.40821,-0.77023 1.78018,-0.36073 1.78018,-0.36073c1.75487,0.19905 9.80357,1.48661 8.44224,2.43463c-1.97942,1.37847 -5.63669,4.10932 -5.78983,5.93222c-0.08831,1.05114 -0.71813,1.97274 -0.77891,3.0267c-0.10113,1.75358 -0.80496,2.8423 -2.72314,2.64616c-2.14006,-0.21882 -1.79979,-0.82296 -2.24668,-2.68407c-0.14451,-0.60181 -0.15683,-3.02531 -0.10594,-3.63079c0.37175,-4.42478 0.22361,-5.10273 1.42209,-7.36411z" data-paper-data="{&quot;origRot&quot;:0,&quot;origPos&quot;:null}"/><path d="M165.35899,230.20466c-0.39088,-0.58727 0.39582,-1.70781 0.39582,-1.70781c0.77878,-1.52569 1.21184,-3.26915 2.80069,-1.74498c1.19767,1.14887 2.46788,1.77625 3.68913,2.43313c0.44192,0.2377 1.70851,0.69885 2.17796,0.88221c1.39945,0.5466 1.22447,1.78945 0.32157,3.26476c-0.71112,1.16196 -1.77997,1.84516 -4.74433,0.25073c-2.96435,-1.59443 -3.49328,-1.65379 -4.64087,-3.37802z" data-paper-data="{&quot;origRot&quot;:0,&quot;origPos&quot;:null}"/><path d="M170.87546,233.78632c-0.51145,-0.38319 -0.29981,-1.76768 -0.29981,-1.76768c0.06163,-1.76046 0.5165,-1.91376 1.53197,-2.18344c1.17021,-0.31076 2.55859,0.07628 4.36961,0.40649c1.81102,0.33019 2.59516,2.06694 2.33431,2.90408c-0.24382,0.78254 -0.16917,1.87612 -3.03252,1.64723c-2.86335,-0.22887 -3.40196,0.11826 -4.90357,-1.00671z" data-paper-data="{&quot;origRot&quot;:0,&quot;origPos&quot;:null}"/></g><g data-paper-data="{&quot;origPos&quot;:null,&quot;origRot&quot;:0}" fill="#efd6c8"><path d="M166.33583,215.29438c0.35855,-0.8986 1.75799,-0.59328 1.75799,-0.59328c1.76895,0.0304 9.09876,2.45894 7.79801,3.6582c-1.89135,1.74374 -4.56615,3.29589 -4.60116,5.33441c-0.02019,1.17549 -0.59067,2.26606 -0.58314,3.4417c0.01253,1.95604 -0.62115,3.23999 -2.55333,3.23056c-2.15571,-0.0105 -1.85437,-0.71754 -2.42226,-2.73337c-0.18363,-0.65183 -0.35315,-3.33862 -0.34151,-4.01574c0.08503,-4.94823 -0.10719,-5.68417 0.94543,-8.32249z" data-paper-data="{&quot;origRot&quot;:0,&quot;origPos&quot;:null}"/><path d="M166.07168,228.92458c-0.19925,-0.75452 1.01169,-1.50137 1.01169,-1.50137c1.34524,-1.14905 2.40812,-2.66865 3.52161,-0.45074c0.83933,1.67182 1.93746,2.86335 2.97431,4.06175c0.3752,0.43363 1.528,1.46001 1.9509,1.85263c1.26069,1.17045 0.64185,2.3142 -0.81455,3.35759c-1.14704,0.82176 -2.49709,1.01076 -5.01392,-1.89816c-2.51684,-2.9089 -3.0451,-3.20644 -3.63005,-5.42171z" data-paper-data="{&quot;origRot&quot;:0,&quot;origPos&quot;:null}"/><path d="M171.87742,236.18148c-0.65245,-0.28588 -0.6204,-1.69808 -0.6204,-1.69808c-0.19998,-1.75744 0.3041,-1.99324 1.44063,-2.44769c1.30971,-0.5237 2.98013,-0.39545 5.13211,-0.40142c2.15199,-0.00597 4.07124,1.54677 3.89772,2.42513c-0.1622,0.82103 -0.64869,1.91741 -4.00591,2.21766c-3.35722,0.30025 -3.92855,0.74371 -5.84416,-0.0956z" data-paper-data="{&quot;origRot&quot;:0,&quot;origPos&quot;:null}"/></g><g data-paper-data="{&quot;origPos&quot;:null,&quot;origRot&quot;:0}" fill="#f6ded1"><path d="M166.95421,215.19335c0.40561,-0.87838 1.78694,-0.49936 1.78694,-0.49936c1.76488,0.12401 8.95579,2.9373 7.59335,4.06598c-1.98104,1.64114 -4.73428,3.04948 -4.87718,5.0833c-0.08242,1.17275 -0.70982,2.23162 -0.76456,3.40598c-0.09106,1.95395 -0.79183,3.20254 -2.72082,3.09081c-2.15211,-0.12465 -1.81376,-0.81472 -2.27411,-2.85778c-0.14887,-0.66066 -0.17586,-3.35265 -0.12838,-4.02819c0.34693,-4.93678 0.19395,-5.68187 1.3848,-8.26075z" data-paper-data="{&quot;origRot&quot;:0,&quot;origPos&quot;:null}"/><path d="M165.94428,228.75142c-0.06178,-0.77795 1.26272,-1.29736 1.26272,-1.29736c1.52825,-0.89133 2.8446,-2.19752 3.54561,0.18315c0.52843,1.79449 1.39695,3.16246 2.204,4.52621c0.29204,0.49347 1.2438,1.70863 1.59007,2.17025c1.03226,1.37613 0.21977,2.39147 -1.39904,3.15903c-1.27496,0.60455 -2.6371,0.55026 -4.59609,-2.76013c-1.95901,-3.31037 -2.42591,-3.69716 -2.60731,-5.98116z" data-paper-data="{&quot;origRot&quot;:0,&quot;origPos&quot;:null}"/><path d="M170.89308,237.30518c-0.55063,-0.45189 -0.13728,-1.80263 -0.13728,-1.80263c0.28352,-1.74591 0.8326,-1.83636 2.04972,-1.96602c1.40259,-0.14938 2.97585,0.42649 5.04901,1.00365c2.07317,0.57712 3.80409,2.64997 3.39916,3.4485c-0.37852,0.74642 -1.44776,1.61173 -4.76079,0.99144c-3.31306,-0.6203 -3.98316,-0.34815 -5.5998,-1.67492z" data-paper-data="{&quot;origRot&quot;:0,&quot;origPos&quot;:null}"/></g><g data-paper-data="{&quot;origPos&quot;:null,&quot;origRot&quot;:0}" fill="#fde6d9"><path d="M165.37716,218.60949c0.09258,-0.96306 1.52153,-1.06178 1.52153,-1.06178c1.7067,-0.46612 9.42331,-0.18704 8.51039,1.32843c-2.0708,3.43753 -3.12144,8.08965 -2.51965,9.87668c0.5597,1.87428 -0.17921,2.74036 -2.03675,3.27231c-2.07241,0.59349 -2.37648,0.0305 -3.04759,-1.88712c-0.22371,-0.6392 -0.82689,-2.62096 -1.0053,-3.27427c-1.30386,-4.7741 -1.69446,-5.42678 -1.42266,-8.2543z" data-paper-data="{&quot;origRot&quot;:0,&quot;origPos&quot;:null}"/><path d="M167.59827,228.85156c-0.08762,-0.77545 1.21888,-1.33864 1.21888,-1.33864c1.49774,-0.94168 2.76991,-2.29093 3.54975,0.06509c0.58783,1.77591 1.5014,3.11421 2.35338,4.45038c0.3083,0.4835 1.29996,1.66631 1.66141,2.11613c1.0775,1.34103 0.29922,2.38283 -1.29316,3.20384c-1.25415,0.64662 -2.61733,0.6377 -4.68538,-2.60565c-2.06805,-3.24335 -2.54757,-3.61442 -2.80483,-5.89112z" data-paper-data="{&quot;origRot&quot;:0,&quot;origPos&quot;:null}"/><path d="M171.84813,235.66569c-0.23268,-0.67328 0.8265,-1.60786 0.8265,-1.60786c1.15537,-1.33928 1.6706,-1.12898 2.77557,-0.60243c1.27332,0.6068 2.31247,1.92092 3.77694,3.49777c1.46447,1.57685 2.15288,4.75657 1.3899,5.22504c-0.71321,0.43791 -2.37554,0.10809 -4.87394,-2.15447c-2.49839,-2.26256 -3.2118,-2.38137 -3.89492,-4.35806z" data-paper-data="{&quot;origRot&quot;:0,&quot;origPos&quot;:null}"/></g><path d="M165.22448,217.56152c0.90552,-7.37433 1.51278,-14.60938 3.84982,-15.02596c1.73695,-0.30962 6.61515,-2.35718 7.20975,1.62958c0.50792,3.40552 4.27568,11.00104 4.87993,14.39079c0,0 -16.73392,5.47515 -15.93951,-0.9944z" data-paper-data="{&quot;origRot&quot;:0,&quot;origPos&quot;:null}" fill="url(#color-13)"/></g></g></g></svg>