<svg version="1.1" xmlns="http://www.w3.org/2000/svg" xmlns:xlink="http://www.w3.org/1999/xlink" width="219.40024" height="207.38555" viewBox="0,0,219.40024,207.38555"><g transform="translate(-130.29988,-76.30722)"><g data-paper-data="{&quot;isPaintingLayer&quot;:true}" fill-rule="nonzero" stroke-linejoin="miter" stroke-miterlimit="10" stroke-dasharray="" stroke-dashoffset="0" style="mix-blend-mode: normal"><path d="M326.21419,234.93717v0" fill="#ffffff" stroke="none" stroke-width="1" stroke-linecap="butt"/><path d="M156.75872,234.93717" fill="#ffffff" stroke="none" stroke-width="1" stroke-linecap="butt"/><path d="M349.70012,211.45123c0,54.40412 -49.0529,71.94425 -109.70012,71.94425c-60.64722,0 -109.70012,-17.54013 -109.70012,-71.94425c0,-25.56697 7.13497,-54.9987 22.89135,-78.78193l-12.78348,-43.10709c-2.37832,-8.02684 5.94581,-15.75639 13.67535,-12.48619l42.51251,17.83742c12.48619,-5.64852 26.75613,-8.91871 43.40438,-8.91871c16.35097,0 30.6209,3.56748 43.10709,9.216l42.8098,-17.83742c7.72955,-3.27019 16.05368,4.45935 13.67535,12.48619l-13.08077,43.70167c15.75639,23.48593 23.18864,52.62038 23.18864,77.89006z" fill="#ff7319" stroke="none" stroke-width="1" stroke-linecap="butt"/><path d="M325.91689,245.93691c0,28.53987 -38.35045,37.75587 -85.91689,37.75587c-47.56645,0 -85.91689,-9.216 -85.91689,-37.75587c0,-28.53987 25.56697,-65.70115 85.91689,-65.70115c58.86348,0 85.91689,37.16129 85.91689,65.70115z" fill="#ffffff" stroke="none" stroke-width="1" stroke-linecap="butt"/><path d="M230.48671,193.31653c0,-3.86477 4.16206,-5.05393 9.51329,-5.05393c5.35123,0 9.51329,1.18916 9.51329,5.05393c0,3.86477 -2.9729,8.62142 -9.51329,8.62142c-6.54039,0 -9.51329,-4.75664 -9.51329,-8.62142z" fill="#945600" stroke="#000000" stroke-width="1.5" stroke-linecap="butt"/><path d="M223.64903,222.15369c8.91871,0 16.35097,-7.43226 16.35097,-16.35097c0,-0.59458 0,-0.59458 0,-0.59458c0,-0.59458 0,-0.89187 0,-0.89187c0,0 0,0.29729 0,0.89187c0,0 0,0 0,0.59458c0,9.216 7.43226,16.35097 16.35097,16.35097" fill="none" stroke="#000000" stroke-width="2.5" stroke-linecap="round"/><path d="M211.75742,160.3173c0,-5.08985 4.12615,-9.216 9.216,-9.216c5.08985,0 9.216,4.12615 9.216,9.216c0,5.08985 -4.12615,9.216 -9.216,9.216c-5.08985,0 -9.216,-4.12615 -9.216,-9.216z" fill="#000000" stroke="none" stroke-width="1" stroke-linecap="butt"/><path d="M249.81058,160.3173c0,-5.08985 4.12615,-9.216 9.216,-9.216c5.08985,0 9.216,4.12615 9.216,9.216c0,5.08985 -4.12615,9.216 -9.216,9.216c-5.08985,0 -9.216,-4.12615 -9.216,-9.216z" fill="#000000" stroke="none" stroke-width="1" stroke-linecap="butt"/><path d="M173.10968,111.26441c-5.94581,5.35123 -11.29703,10.40516 -15.75639,18.13471l-11.59432,-40.13419c-0.89187,-4.75664 3.56748,-8.91871 8.32413,-7.43226l38.35045,16.05368c-8.91871,3.56748 -13.67535,8.32413 -19.32387,13.37806z" fill="#77500c" stroke="none" stroke-width="1" stroke-linecap="butt"/><path d="M288.75561,97.88634l38.35045,-16.05368c4.75664,-1.48645 9.216,2.67561 8.32413,7.43226l-11.29703,40.43148c-4.75664,-7.72955 -9.81058,-12.78348 -16.05368,-18.13471c-5.64852,-5.35123 -10.70245,-10.10787 -19.32387,-13.67535z" fill="#77500c" stroke="none" stroke-width="1" stroke-linecap="butt"/></g></g></svg>