<svg version="1.1" xmlns="http://www.w3.org/2000/svg" xmlns:xlink="http://www.w3.org/1999/xlink" width="179.19141" height="387.67901" viewBox="0,0,179.19141,387.67901"><g transform="translate(-118.67468,-35.31787)"><g data-paper-data="{&quot;isPaintingLayer&quot;:true}" fill-rule="nonzero" stroke="none" stroke-linecap="round" stroke-miterlimit="10" stroke-dasharray="" stroke-dashoffset="0" style="mix-blend-mode: normal"><path d="M220.23078,270.68563c-0.62761,0.01886 -1.58887,-7.36095 -2.50102,-19.56719c-0.55933,-7.47574 -1.24612,-18.25831 -1.40384,-29.13259c-0.11674,-9.41906 -0.07446,-19.70735 0.21235,-30.54846c0.41234,-15.5895 1.2601,-29.64184 2.35273,-41.99897c0.05463,0.10374 0.10699,0.20227 0.15707,0.29104c0.02212,0.03903 0.0452,0.07284 0.05918,0.10113c0.02439,0.04943 0.0387,0.09723 0.05301,0.14341c0.02731,0.08877 0.04682,0.16943 0.05983,0.23999v0c-0.0013,-0.02016 -0.10016,-0.10992 -0.26633,-0.28617c-0.61785,-0.63119 -1.29262,-1.26595 -1.95828,-1.89682c-2.56833,-2.43371 -5.01959,-4.70092 -7.28225,-6.82017c-10.77412,-10.09123 -17.27365,-16.56734 -16.77904,-17.12406c0.41592,-0.46795 7.72353,5.0661 19.09015,14.48809c2.32541,1.92772 5.01927,4.17541 7.66565,6.47253c0.68842,0.59672 1.42595,1.23571 2.15534,1.92219c0.13886,0.12162 0.35478,0.32779 0.62339,0.64062v0c0.04325,0.10861 0.09203,0.22698 0.14504,0.35706c0.02699,0.06699 0.05723,0.13723 0.07999,0.21105c0.01366,0.0426 0.01918,0.08162 0.02699,0.11837c0.01789,0.0852 0.04,0.1691 0.06472,0.2582c-0.59477,12.69598 -1.08482,26.35257 -1.42172,42.48253c-0.23121,11.01931 -0.35414,21.47768 -0.44486,31.04242c-0.11349,9.45581 0.06471,22.78785 0.08325,28.983c0.03642,12.19844 -0.14699,19.60492 -0.77134,19.6228z" data-paper-data="{&quot;index&quot;:null}" fill="#000000" stroke-width="9.375" stroke-linejoin="round"/><path d="M219.38236,172.18109c0.47965,0.12292 -0.01431,3.76892 -0.76387,10.06423c-0.84451,7.09072 -1.62334,14.47509 -2.41127,26.04234c-0.72062,10.61705 -1.16287,21.0042 -1.60188,33.93399c-0.00748,0.23056 -0.12227,3.65836 -0.13007,3.88892c-0.41689,12.57273 -0.17235,25.13734 0.0439,35.01556c0.41559,18.90967 0.90533,31.41313 -0.01918,31.47069c-0.79736,0.04878 -2.80929,-12.36819 -4.12305,-31.37248c-0.69428,-10.04212 -1.24904,-22.46722 -0.87346,-35.37685c0.0374,-1.29197 0.07805,-2.59369 0.12293,-3.90322c0.42925,-12.66346 1.12515,-23.7696 2.23762,-34.13171c1.19312,-11.13345 2.6571,-19.54769 4.23101,-26.0742c1.50269,-6.23255 2.8545,-9.66784 3.28733,-9.55727z" data-paper-data="{&quot;index&quot;:null}" fill="#000000" stroke-width="9.375" stroke-linejoin="round"/><path d="M256.14117,170.35154c-0.4877,-0.2163 2.2229,-7.65871 6.44322,-19.71291c4.56718,-13.04513 9.5718,-27.75736 15.64493,-47.3791c0.40191,-1.29846 0.79952,-2.58814 1.19203,-3.86972c3.863,-12.60048 7.06391,-23.76053 9.84267,-33.77389c5.05724,-18.23322 7.95044,-30.39382 8.43541,-30.29748c0.75386,0.14957 -1.04453,12.59848 -5.50174,31.12371c-2.41436,10.03693 -5.48713,21.53444 -9.29616,34.09172c-0.39051,1.28698 -0.78751,2.58288 -1.19097,3.88597c-5.91423,19.11116 -11.69867,34.93872 -16.71832,47.19347c-4.8568,11.85689 -8.41147,18.93299 -8.85106,18.73822z" data-paper-data="{&quot;index&quot;:null}" fill="#000000" stroke-width="9.37509" stroke-linejoin="round"/><path d="M219.58723,241.23338c0.62371,-0.02016 2.0838,11.41897 2.74588,30.0106c0.67314,18.92365 0.44453,43.94944 -2.30721,72.47166c-0.38763,4.01997 -0.81264,7.97588 -1.27116,11.86447c-1.76837,15.00806 -3.8525,28.37654 -6.27027,40.59351v0c-1.29782,6.56586 -2.5472,12.1695 -4.19492,17.61542c-0.6377,2.11502 -1.30107,4.09021 -2.16835,6.00166c-0.31771,0.70533 -0.67737,1.41164 -1.12223,2.09844c-0.58371,0.03544 -1.28937,0.14568 -2.16477,0.22048c0.9889,-1.10661 2.08771,-1.90365 3.20701,-2.38168c1.52903,-0.0956 2.97709,0.08715 4.18744,0.2699c8.68999,1.27441 13.71447,1.8461 13.72195,2.18722c0.01236,0.56257 -5.06707,0.86012 -13.92876,0.3008c-1.18986,-0.06862 -2.48996,-0.14211 -3.63917,0.03186c-1.23408,-0.24291 -2.50135,-0.31347 -3.78421,-0.25722c-0.10601,-0.52225 -0.22959,-1.24385 -0.28584,-2.06072c0.29364,-0.51282 0.54079,-1.09295 0.79444,-1.73845c0.68484,-1.75471 1.19409,-3.6073 1.7248,-5.70087c1.36156,-5.39877 2.35208,-10.83721 3.45869,-17.44047v0c2.05291,-12.27713 3.86356,-25.39098 5.54836,-40.41075c0.43347,-3.86291 0.84321,-7.7889 1.22823,-11.77895c2.74881,-28.49165 3.49479,-52.91032 3.74323,-71.92339c0.24161,-18.47879 0.02862,-29.94913 0.77688,-29.97352z" data-paper-data="{&quot;index&quot;:null}" fill="#000000" stroke-width="9.375" stroke-linejoin="round"/><path d="M218.61167,241.23338c0.61461,-0.10048 3.51853,11.01931 6.59253,29.30852c3.11888,18.55554 6.20458,43.43564 7.20941,71.92631c0.15251,4.33443 0.25235,8.59992 0.30178,12.79387c0.17788,14.93977 -0.15349,28.27117 -0.96841,40.54538v0c-0.43478,6.57594 -0.94207,12.19844 -1.87926,17.72696c-0.35608,2.11762 -0.75638,4.11037 -1.37944,6.06768c-0.22341,0.71021 -0.49201,1.43212 -0.85622,2.14721c-0.55867,0.07447 -1.25685,0.24454 -2.15209,0.39283c0.79606,-1.13166 1.61,-1.71244 2.2051,-2.05779c1.5183,-0.03967 2.99629,0.12813 4.21997,0.26146c9.33061,0.99117 14.74076,1.42692 14.75441,1.83926c0.01756,0.53136 -5.4108,0.9902 -14.86856,0.74305c-1.24417,-0.02894 -2.6389,-0.08846 -3.86811,0.03837c-1.02077,-0.25234 -1.97064,-0.58956 -2.5524,-0.7385c-0.20129,-0.45299 -0.42502,-1.11702 -0.572,-1.89389c0.2221,-0.49949 0.38828,-1.06791 0.5564,-1.70463c0.45852,-1.76121 0.72094,-3.60276 0.97654,-5.68525c0.65948,-5.43682 0.93329,-10.85834 1.17393,-17.44632v0c0.44485,-12.28917 0.53591,-25.32464 0.26763,-40.2706c-0.07479,-4.1611 -0.18633,-8.39114 -0.33787,-12.69273c-1.00158,-28.41783 -3.49935,-52.8352 -5.71746,-71.56894c-2.16705,-18.29799 -3.84177,-29.61159 -3.10587,-29.73224z" data-paper-data="{&quot;index&quot;:null}" fill="#000000" stroke-width="9.375" stroke-linejoin="round"/><path d="M281.6852,122.09155c-0.74686,29.05445 -24.51262,52.18892 -53.57263,51.6614c-29.05929,-0.52787 -52.18857,-24.51258 -51.66104,-53.57227c0.52785,-29.05932 24.57437,-49.69778 53.57191,-51.6614c29.89607,-2.02436 52.42735,23.78621 51.66176,53.57227z" data-paper-data="{&quot;index&quot;:null}" fill="#f2f2f2" stroke-width="9.0943" stroke-linejoin="round"/><path d="M191.87066,84.71649c36.74374,-34.8863 88.61095,-15.38099 89.75623,37.29903c-0.56257,21.86738 -14.16456,40.37947 -33.24859,47.97609c-41.20057,11.71544 -86.66294,-31.26829 -56.50764,-85.27508z" data-paper-data="{&quot;index&quot;:null}" fill="#ffffff" stroke-width="9.09417" stroke-linejoin="round"/><path d="M270.91157,88.51394c-0.31475,0.19472 -3.54998,-6.41107 -13.55304,-12.56811v0c-4.19099,-2.58482 -9.60569,-4.86565 -16.14033,-5.92589c-5.29116,-0.85895 -11.19,-0.89785 -17.45497,0.18496c-5.55216,0.96135 -11.31805,2.80039 -16.94549,5.67882c-5.11865,2.62092 -10.12385,6.10914 -14.51925,10.5219c-4.09762,4.11428 -7.68581,9.06497 -10.21476,14.67715c-2.51162,5.56081 -3.96853,11.79592 -4.12784,18.23617c-0.18497,7.08714 1.20531,14.35581 3.80057,21.41934c2.58066,7.07049 7.62122,13.3379 13.91432,18.25457c0.28077,0.21934 0.56466,0.43555 0.85099,0.64898c6.51104,4.85908 14.03266,8.14566 21.6921,9.94928c8.57185,2.00456 17.30366,2.13365 25.35456,0.29117c8.79603,-2.00563 16.63212,-6.45133 22.45009,-12.35469v0c6.20839,-6.27124 10.10404,-14.16632 12.00242,-21.87086c2.16179,-8.7707 1.94036,-17.48031 0.59035,-24.98911c-1.68945,-9.3402 -5.05827,-16.88996 -8.79428,-22.63297c-3.91682,-6.00329 -7.98811,-9.68516 -11.06679,-11.96356c-3.0353,-2.24682 -4.90731,-3.12418 -4.82644,-3.31054c0.05486,-0.12425 2.11148,0.32067 5.47649,2.33427c3.36986,2.01604 7.93185,5.60871 12.26758,11.67378c4.15456,5.79507 7.98462,13.57769 10.01315,23.29999c1.64191,7.82877 2.08718,17.00725 -0.03678,26.44046c-1.87545,8.32542 -5.95087,16.91045 -12.66564,23.90283v0c-6.31667,6.54922 -14.80037,11.49955 -24.41334,13.7651c-8.75194,2.05661 -18.1713,1.99035 -27.3848,-0.14506c-8.23174,-1.89663 -16.32946,-5.42719 -23.40968,-10.69959c-0.31095,-0.23182 -0.61948,-0.46642 -0.92558,-0.70416c-6.89453,-5.33418 -12.41784,-12.30748 -15.36674,-20.3216c-2.75593,-7.53482 -4.19135,-15.37995 -3.9536,-23.11398c0.22454,-7.04028 1.87965,-13.82548 4.68833,-19.88292c2.83508,-6.09874 6.77828,-11.40342 11.25663,-15.76585c4.79694,-4.67305 10.19603,-8.30526 15.68777,-10.98452c6.03278,-2.94438 12.18462,-4.75528 18.08138,-5.62743c6.65402,-0.98597 12.90475,-0.75415 18.4732,0.33907c6.88553,1.35178 12.51156,4.0147 16.77302,6.95076v0c10.53543,7.2697 12.12112,14.48142 12.42653,14.29229z" data-paper-data="{&quot;index&quot;:null}" fill="#000000" stroke-width="9.375" stroke-linejoin="round"/><path d="M234.70555,118.43138c1.94193,0.01996 3.44099,2.44117 3.34692,5.40454c-0.09411,2.96311 -1.74638,5.35163 -3.68831,5.33137c-1.94095,-0.01996 -3.44002,-2.44117 -3.34595,-5.40454c0.09411,-2.96311 1.74589,-5.35163 3.68735,-5.33138z" data-paper-data="{&quot;index&quot;:null}" fill="#000000" stroke-width="9.375" stroke-linejoin="round"/><path d="M261.11577,150.63712c0.11901,0.16458 -1.2375,0.95491 -3.94661,1.62168c-1.3812,0.33996 -6.21761,1.32487 -10.99013,0.83161c-4.74161,-0.49006 -9.42016,-2.45515 -10.58449,-3.0839c-2.29584,-1.2401 -3.17494,-2.32638 -2.98357,-2.4509c0.09536,-0.06219 1.90499,0.8784 4.20357,1.53746c3.08414,0.8843 8.44097,3.16867 16.47643,2.47848c5.94222,-0.51039 7.6747,-1.14263 7.82479,-0.93444z" data-paper-data="{&quot;index&quot;:null}" fill="#000000" stroke-width="9.375" stroke-linejoin="round"/><path d="M275.20555,118.43138c1.94193,0.01996 3.44099,2.44116 3.34692,5.40454c-0.09411,2.96311 -1.74639,5.35163 -3.68832,5.33137c-1.94095,-0.01996 -3.44002,-2.44116 -3.34595,-5.40454c0.09411,-2.96311 1.74588,-5.35164 3.68734,-5.33138z" data-paper-data="{&quot;index&quot;:null}" fill="#000000" stroke-width="9.375" stroke-linejoin="round"/><path d="M196.75,110.85832c0,0 2.10271,11.09564 -0.29637,22.54268c-3.20021,15.26959 -16.70363,59.95732 -16.70363,59.95732c0,0 -17.69155,-13.42191 -20.42044,-27.32503c-1.61794,-8.24304 -1.57956,-19.17497 -1.57956,-19.17497l-22.5,22.5c0,0 -3.3767,-33.03509 4.39274,-50.20473c7.41718,-16.39119 11.60726,-14.79527 11.60726,-14.79527c0,0 -32.83473,-1.5382 -32.57377,-1.86496c25.90087,-32.43166 59.89764,-47.52166 102.07377,-45.63503c74.17609,7.29882 61.5,63 61.5,63l-11,-12l-8,15.5l-12.5,-16.5l-6.5,14l-12.5,-13.5l-8.5,13.5l-9.5,-13.5l-8.5,15.5l-8.5,-12z" fill="#000000" stroke-width="0" stroke-linejoin="miter"/><path d="M194.25,101.85832c0,0 0.10271,20.59564 -2.29637,32.04268c-3.20021,15.26958 -14.70363,51.95732 -14.70363,51.95732c0,0 -11.69155,-6.92191 -14.42044,-20.82503c-1.61794,-8.24304 -2.07956,-26.17497 -2.07956,-26.17497l-23.5,22.5c0,0 -1.3767,-25.03509 6.39274,-42.20473c7.41718,-16.39119 18.60726,-17.29527 18.60726,-17.29527c0,0 -35.83473,-1.5382 -35.57377,-1.86496c25.90087,-32.43166 70.89764,-41.52166 95.07377,-39.13503c64.17609,5.79882 58.5,52.5 58.5,52.5l-9.5,-12l-8,15.5l-12.5,-16.5l-6.5,14l-12.5,-13.5l-8.5,13.5l-9.5,-13.5l-8.5,15.5l-10.5,-14.5z" fill="#754200" stroke-width="0" stroke-linejoin="miter"/></g></g></svg>