<svg xmlns="http://www.w3.org/2000/svg" xmlns:xlink="http://www.w3.org/1999/xlink" version="1.1" width="268.28079" height="311.5952" viewBox="0,0,268.28079,311.5952"><g><g data-paper-data="{&quot;isPaintingLayer&quot;:true}" fill-rule="nonzero" stroke-linejoin="miter" stroke-miterlimit="10" stroke-dasharray="" stroke-dashoffset="0" style="mix-blend-mode: normal"><g data-paper-data="{&quot;index&quot;:null}" stroke-linecap="butt"><path d="M 218.3802 202.6506 C 194.8196 197.8886 178.5295 186.2793 181.9953 176.7205 C 185.4611 167.1618 207.3704 163.2733 230.9311 168.0353 C 254.4917 172.7974 270.7818 184.4068 267.316 193.9655 C 263.8502 203.5243 241.9408 207.4127 218.3802 202.6506 Z " data-paper-data="{&quot;origRot&quot;:0,&quot;index&quot;:null}" fill="#d6bbff" stroke="#9d85c1" stroke-width="1"/><path d="M 182.0495 176.4744 C 186.3132 157.5845 231.1708 166.9471 231.1708 166.9471 L 224.793 204.6179 C 224.793 204.6179 177.0363 198.6856 182.0496 176.4744 Z " data-paper-data="{&quot;origRot&quot;:0,&quot;index&quot;:null}" fill="#ff9400" stroke="#000000" stroke-width="5"/></g><path d="M 89.802 281.333 C 89.802 281.333 101.3312 257.3197 107.5822 244.2998 C 112.8067 233.418 146.4078 221.3601 155.0221 203.418 C 163.9474 184.8279 170.0384 222.7902 158.4745 250.961 C 152.6698 265.102 147.2574 290.0604 147.2574 290.0604 L 145.0115 307.8399 Z " data-paper-data="{&quot;index&quot;:null}" fill="#616161" stroke="#000000" stroke-width="5" stroke-linecap="butt"/><path d="M 54.7383 282.8962 C 54.7383 282.8962 59.2145 256.6374 61.6414 242.4001 C 63.6699 230.5007 92.6558 209.6621 96.0003 190.0422 C 99.4655 169.7139 115.7676 204.5345 112.402 234.7999 C 110.7126 249.9922 112.3771 275.4764 112.3771 275.4764 L 115.1104 293.1875 Z " data-paper-data="{&quot;index&quot;:null}" fill="#616161" stroke="#000000" stroke-width="5" stroke-linecap="butt"/><g data-paper-data="{&quot;index&quot;:null}" stroke-linecap="butt"><path d="M 47.1822 180.0169 C 23.1492 180.4603 2.2977 172.6917 0.6091 162.6652 C -1.0795 152.6387 17.0342 144.1513 41.0672 143.7079 C 65.1002 143.2646 85.9517 151.0333 87.6403 161.0597 C 89.3289 171.0862 71.2152 179.5737 47.1822 180.017 Z " data-paper-data="{&quot;origRot&quot;:0,&quot;index&quot;:null}" fill="#d6bbff" stroke="#9d85c1" stroke-width="1"/><path d="M 40.52 180.7978 L 41.0272 142.5943 C 41.0272 142.5943 86.8375 141.4591 87.6312 160.8079 C 88.5646 183.5587 40.5201 180.7978 40.5201 180.7978 Z " data-paper-data="{&quot;origRot&quot;:0,&quot;index&quot;:null}" fill="#ff9400" stroke="#000000" stroke-width="5"/></g><path d="M 32.1346 240.8401 L 87.8496 161.9324 L 172.6252 174.5419 L 199.7978 267.579 Z " data-paper-data="{&quot;index&quot;:null}" fill="#ff9400" stroke="#000000" stroke-width="5" stroke-linecap="butt"/><g><g stroke-linecap="butt"><g data-paper-data="{&quot;index&quot;:null}"><path d="M 235.9231 142.7854 C 195.2662 216.4642 178.6915 178.1623 165.7583 169.7829 C 152.8251 161.4036 162.0791 114.8724 178.1195 90.1146 C 194.16 65.3568 217.6479 52.0793 230.5811 60.4587 C 243.5144 68.8381 257.2483 107.0475 235.9231 142.7854 Z " data-paper-data="{&quot;origRot&quot;:0,&quot;origPos&quot;:null,&quot;index&quot;:null}" fill="#d6bbff" stroke="#9d85c1" stroke-width="1"/><path d="M 31.4993 58.8864 C 53.1245 11.6829 96.3187 14.1692 107.9139 22.0151 C 119.5092 29.8609 109.4907 76.0872 93.9573 101.0472 C 78.4239 126.0073 77.4962 147.422 65.9009 139.5762 C 54.3057 131.7303 18.9017 98.1043 31.4993 58.8864 Z " data-paper-data="{&quot;origRot&quot;:0,&quot;origPos&quot;:null}" fill="#d6bbff" stroke="#9d85c1" stroke-width="1"/><path d="M 68.7544 87.9649 C 80.6778 41.8745 125.9359 13.7183 169.8413 25.0764 C 213.7467 36.4345 239.6733 83.0057 227.7499 129.0961 C 215.8266 175.1866 170.5685 203.3428 126.6631 191.9847 C 82.7577 180.6266 56.8311 134.0554 68.7545 87.965 Z " data-paper-data="{&quot;origPos&quot;:null,&quot;origRot&quot;:0}" fill="#d6bbff" stroke="#9d85c1" stroke-width="1"/><path d="M 158.8866 105.6211 C 161.5331 95.3907 171.7992 89.1981 181.8164 91.7895 C 191.8336 94.3808 197.8088 104.775 195.1622 115.0053 C 192.5157 125.2358 182.2497 131.4284 172.2324 128.8369 C 162.2152 126.2455 156.24 115.8514 158.8865 105.621 Z " data-paper-data="{&quot;origPos&quot;:null,&quot;origRot&quot;:0}" fill="#000000" stroke="none" stroke-width="1"/><path d="M 173.7972 106.1495 C 175.1756 100.8211 180.4397 97.5744 185.5549 98.8976 C 190.6701 100.2209 193.6993 105.6131 192.321 110.9415 C 190.9426 116.2697 185.6785 119.5165 180.5633 118.1932 C 175.4481 116.87 172.4188 111.4778 173.7972 106.1495 Z " data-paper-data="{&quot;origRot&quot;:0}" fill="#ffffff" stroke="none" stroke-width="1"/><path d="M 186.3449 131.8954 C 189.2563 129.6423 195.8452 131.3872 201.0618 135.7926 C 206.2783 140.1981 208.1471 145.5958 205.2358 147.8489 C 202.3245 150.1019 195.7355 148.3571 190.519 143.9516 C 185.3024 139.5461 183.4337 134.1484 186.3449 131.8953 Z " data-paper-data="{&quot;origPos&quot;:null,&quot;origRot&quot;:0}" fill="#ffc0bb" stroke="none" stroke-width="1"/><path d="M 64.9376 82.6197 C 72.014 64.7339 103.9128 27.9501 111.8917 31.1211 C 119.8706 34.2923 100.9082 76.2174 93.8318 94.1032 C 86.7555 111.989 77.6175 141.5088 69.6386 138.3377 C 61.6597 135.1667 57.8614 100.5056 64.9377 82.6198 Z " data-paper-data="{&quot;origRot&quot;:0,&quot;origPos&quot;:null}" fill="#d6bbff" stroke="none" stroke-width="1"/><g data-paper-data="{&quot;origPos&quot;:null,&quot;origRot&quot;:0}"><path d="M 207.5837 182.6243 C 204.956 204.5588 195.0145 216.3377 161.0366 197.5399 C 148.0944 190.3797 130.8404 165.4136 125.5927 152.3406 C 120.345 139.2675 128.4492 116.3576 128.4492 116.3576 L 159.0047 124.1706 C 159.0047 124.1706 153.941 148.936 166.0162 155.973 C 180.4678 164.3948 210.2114 160.6898 207.5838 182.6243 Z " data-paper-data="{&quot;origPos&quot;:null,&quot;origRot&quot;:0}" stroke="#9d85c1" stroke-width="1" fill="#d6bbff"/><path d="M 129.6145 136.4541 L 129.2355 112.6618 L 157.9487 121.0247 L 155.7397 143.1846 Z " data-paper-data="{&quot;origRot&quot;:0,&quot;origPos&quot;:null}" stroke="none" stroke-width="1" fill="#d6bbff"/></g><path d="M 90.8627 99.2344 C 94.0672 97.0572 101.5426 99.0314 107.5594 103.6439 C 113.5763 108.2563 115.8562 113.7605 112.6517 115.9377 C 109.4472 118.1149 101.9718 116.1407 95.9549 111.5282 C 89.938 106.9157 87.6582 101.4116 90.8627 99.2344 Z " data-paper-data="{&quot;origPos&quot;:null,&quot;origRot&quot;:0}" fill="#ffc0bb" stroke="none" stroke-width="1"/><path d="M 127.8156 74.5259 C 137.8328 77.1173 143.808 87.5114 141.1615 97.7418 C 138.515 107.9721 128.2489 114.1647 118.2317 111.5733 C 108.2144 108.9819 102.2393 98.5878 104.8858 88.3574 C 107.5324 78.127 117.7983 71.9344 127.8156 74.5258 Z " data-paper-data="{&quot;origPos&quot;:null,&quot;origRot&quot;:0}" fill="#000000" stroke="none" stroke-width="1"/><path d="M 119.3728 89.0379 C 120.7512 83.7096 126.0153 80.4628 131.1305 81.7861 C 136.2457 83.1094 139.2749 88.5016 137.8965 93.8299 C 136.5181 99.1583 131.254 102.405 126.1389 101.0817 C 121.0236 99.7584 117.9944 94.3663 119.3728 89.0379 Z " data-paper-data="{&quot;origRot&quot;:0}" fill="#ffffff" stroke="none" stroke-width="1"/></g><path d="M 100.8891 55.2654 C 93.3979 62.2352 80.7541 75.8235 77.086 84.96 C 74.9769 90.2133 70.6185 119.385 55.051 113.5645 C 48.4249 111.0871 47.0944 105.2213 48.8215 99.8952 C 56.9297 74.8914 66.7684 66.761 80.0837 47.4838 C 82.4017 44.128 93.1314 30.164 98.0385 32.3946 C 99.5862 32.2493 101.1901 32.4429 102.7439 33.0239 C 108.2388 35.0784 111.0278 41.1983 108.9734 46.6932 C 109.8954 48.8749 102.7489 53.535 100.8891 55.2654 Z " fill="#d6bbff" stroke="none" stroke-width="0.5"/></g><path d="M 87.414 68.38 C 85.1705 60.43 89.6477 49.9416 93.0379 41.4322 C 96.2626 33.347 100.677 25.7952 106.3917 19.565 C 107.9779 17.966 107.7348 24.3933 110.1292 23.105 C 119.7223 17.9339 126.9089 7.7743 136.3236 3.5 C 138.7159 2.4166 133.6064 9.9656 136.0368 10.6532 C 145.7416 13.3756 156.8763 9.3589 166.2824 12.4775 C 178.0488 16.3834 189.8164 21.3148 198.7917 30.6266 C 209.0913 41.3881 216.4418 55.3222 220.8038 69.5693 C 221.8938 73.131 212.8976 66.9987 211.707 69.8162 C 208.8159 76.65 215.6366 90.2427 210.1138 92.12 C 203.4922 94.3162 195.2083 80.1086 186.3156 77.2384 C 184.0587 76.5107 186.3217 84.8838 183.6073 83.7703 C 172.8965 79.5767 165.4864 68.7555 154.6809 64.7338 C 151.9789 63.7287 154.6771 72.1681 152.0283 72.0542 C 143.951 72.001 136.6824 67.1307 128.9741 64.3322 C 124.5496 62.7292 120.8167 59.0108 115.9104 58.9154 C 110.265 58.84 105.6981 62.7373 99.8086 64.3336 C 95.6449 65.521 88.5551 71.8795 87.414 68.3801 Z " fill="#8a541e" stroke="#000000" stroke-width="7" stroke-linecap="round"/><path d="M 91.9989 60.1768 C 91.9989 60.1768 96.984 45.4181 100.1851 38.3453 C 102.4182 33.4142 104.6197 28.302 108.1926 24.2739 C 109.4464 23.253 109.783 25.8541 111.0728 25.1134 C 117.2803 22.1918 122.6406 18.1961 128.2309 14.4904 C 130.3129 13.1223 131.6701 9.9525 134.06 9.6794 C 135.5158 9.6058 133.9704 12.0167 134.7306 12.7392 C 136.2508 13.924 136.1765 14.3825 138.6009 14.6485 C 148.3027 15.7129 158.1287 13.5137 167.3012 16.2435 C 176.9571 19.1163 185.7818 24.4081 193.6337 30.4288 C 199.7976 35.3795 204.3224 42.0762 208.6469 48.6062 C 212.0028 53.6779 214.2478 59.7518 216.1799 65.6449 C 216.6643 67.1172 215.0477 66.4523 214.3201 66.6652 C 212.3159 67.7486 208.6513 67.3024 208.0206 69.5163 C 206.3144 75.5093 208.0939 88.0263 208.0939 88.0263 " fill="none" stroke="#663b00" stroke-width="4" stroke-linecap="round"/></g></g></g></svg>