<svg version="1.1" xmlns="http://www.w3.org/2000/svg" xmlns:xlink="http://www.w3.org/1999/xlink" width="111.29488" height="96.07282" viewBox="0,0,111.29488,96.07282"><g transform="translate(-215.04682,-116.59995)"><g data-paper-data="{&quot;isPaintingLayer&quot;:true}" fill-rule="nonzero" stroke-linejoin="miter" stroke-miterlimit="10" stroke-dasharray="" stroke-dashoffset="0" style="mix-blend-mode: normal"><path d="M218.58382,208.93927v-6.0915h44.99848v6.0915z" fill="#6c4e00" stroke="none" stroke-width="0" stroke-linecap="butt"/><path d="M237.05481,204.81277v-13.36199h13.36199v13.36199z" fill="#6c4e00" stroke="none" stroke-width="0" stroke-linecap="butt"/><g data-paper-data="{&quot;origRot&quot;:0}" stroke="none" stroke-width="0" stroke-linecap="butt"><path d="M262.8213,193.09733c-22.46756,9.59291 -42.81704,13.55042 -46.63756,5.87547c-3.82052,-7.67495 12.4796,-20.48261 32.80224,-33.66891c1.71332,-1.11169 17.48963,26.23317 13.83531,27.79345z" data-paper-data="{&quot;origPos&quot;:null,&quot;origRot&quot;:0}" fill="#9c9c9c"/><path d="M249.16302,165.37163c3.18531,-1.08255 16.95254,25.99189 13.76723,27.07443c-3.18531,1.08255 -8.75313,-3.16083 -11.21505,-10.40485c-2.46192,-7.24402 -5.73749,-15.58704 -2.55218,-16.66958z" data-paper-data="{&quot;origPos&quot;:null}" fill="#000000"/></g><path d="M224.08581,206.38477v-17.68499h14.934v17.68499z" fill="#8d6400" stroke="none" stroke-width="0" stroke-linecap="butt"/><path d="M215.04682,212.67277v-7.2705h41.65798v7.2705z" fill="#8d6400" stroke="none" stroke-width="0" stroke-linecap="butt"/><g data-paper-data="{&quot;index&quot;:null,&quot;origRot&quot;:0}" stroke-width="1.5"><path d="M304.05124,150.49111c-0.12457,-0.50416 0.37958,-0.62873 0.37958,-0.62873l0.29657,0.31997c-0.00352,-0.01044 -0.00704,-0.02089 -0.01057,-0.03132c0.00438,-0.00649 0.00877,-0.01309 0.0131,-0.01973c0.03794,0.06842 0.26551,-0.00843 0.5219,-0.12427c0.00989,-0.15226 0.08177,-0.34149 0.35174,-0.43258c0.49207,-0.16601 0.65808,0.32607 0.65808,0.32607c0.43934,1.30225 0.93313,2.65083 1.62332,3.83698c0.21878,0.376 0.55301,0.76675 0.7753,1.18296c0.35216,0.65939 0.15346,1.28063 -0.27632,1.74054c-0.00087,0.00389 -0.00199,0.00481 -0.0033,0.00352c-0.05171,0.05509 -0.10674,0.10785 -0.16454,0.15808c-0.00386,0.00547 -0.008,0.01074 -0.01246,0.01578c-0.00306,0.00345 -0.00531,0.00342 -0.00707,0.001c-0.23707,0.20153 -0.51865,0.36081 -0.80778,0.46362c-0.17461,0.06208 -0.70117,0.26713 -0.87103,0.17361c-1.29113,-0.71091 -0.84105,-2.08221 -1.30779,-3.22028c-0.38183,-1.13177 -0.76365,-2.26353 -1.14547,-3.3953l0.3323,0.00524c-0.13741,-0.03525 -0.28556,-0.1322 -0.34559,-0.37512z" data-paper-data="{&quot;origPos&quot;:null}" fill="#ffffff" stroke="none" stroke-linecap="butt"/><path d="M295.32003,146.9321c0.00219,-0.06556 0.01239,-0.12256 0.02853,-0.17213c-0.30801,-0.03774 -0.6318,0.02002 -1.05331,0.16222l-0.50748,0.1248c0,0 -0.51726,-0.04622 -0.47103,-0.56349c0.00817,-0.0914 0.03104,-0.16521 0.06317,-0.22478c-0.60142,0.07542 -1.12469,0.23836 -1.60129,-0.05864c-0.16284,0.45832 0.05164,-0.14122 -0.10889,-0.19387c0.3482,-0.14597 0.89423,-0.3277 1.03947,-0.35544c1.37845,-0.26336 2.99753,-0.1534 4.30324,-0.07103c0.58547,0.03694 1.09771,0.19105 1.70754,0.15354c0.43865,-0.1428 0.90381,-0.23078 1.31843,-0.42907c0.15682,-0.07499 0.28349,-0.22003 0.33809,-0.36241c0.02084,-0.05436 -0.2399,0.01018 -0.18779,-0.02868c0.46492,-0.34672 1.45242,-0.35389 1.69046,-0.97459c0.02085,-0.05435 -0.23987,0.01013 -0.18776,-0.02872c0.35172,-0.2623 1.22157,-0.41126 1.65304,-0.55683v0c0.57318,-0.19338 1.14828,-0.38641 1.72146,-0.57979c0.16933,0.50192 0.34026,1.00433 0.50959,1.50624c0.33866,1.00383 0.68143,2.01021 1.02009,3.01404c0.04577,0.13565 0.1729,0.24425 0.19006,0.38744c0.01181,0.09851 -0.10385,0.27831 -0.07795,0.35033c-0.1083,0.06257 -0.25313,0.1258 -0.37225,0.16599c-0.56271,0.18984 -1.12468,0.3804 -1.68692,0.57071c0.01286,0.3571 -0.35995,0.48287 -0.35995,0.48287c-0.89665,0.3025 -1.86081,0.62778 -2.78064,0.93811c-0.24234,0.25814 -0.45382,0.59103 -0.65018,1.04467c-0.10974,0.25354 0.37276,1.08343 0.4582,1.33666c0.48917,1.44998 0.97659,2.90072 1.46577,4.3507c0.15412,0.45681 0.78403,1.6605 0.69291,1.96473c-0.02097,0.07004 -0.52438,0.77511 -0.59412,0.92174c-0.22324,0.08092 -0.70068,0.30862 -0.87093,0.34115c-0.7267,0.13884 -1.35126,0.15898 -2.06963,0.40133c-0.00614,0.00207 -0.01272,0.00404 -0.01962,0.00592c-0.59205,-0.8332 -1.19953,-1.78787 -1.36367,-2.7865c-0.05565,-0.33855 0.06763,-0.70599 0.01223,-1.0446c-0.05428,-0.33183 -0.27537,-0.61639 -0.34284,-0.94511c-0.09231,-0.44971 -0.05194,-0.92953 -0.13925,-1.38046c-0.03526,-0.18211 -0.2825,-0.29486 -0.28532,-0.48279c-0.01102,-0.73436 0.29041,-1.59644 0.33978,-2.35865c0.088,-1.35865 0.16876,-2.90193 -0.58403,-4.02659c-0.43227,0.0189 -0.85322,0.02484 -1.28672,0.00092l-0.44879,-0.06352c0,0 -0.51904,-0.01733 -0.50169,-0.53637z" fill="#ffffff" stroke="none" stroke-linecap="butt"/><path d="M304.76124,143.78009c0.132,0.39127 0.26401,0.78255 0.39601,1.17382c0.48506,1.43776 1.55609,3.3088 0.8296,4.77508c-0.1338,0.27004 -0.47871,0.37101 -0.74471,0.51266c-0.61194,0.32586 -1.40847,0.47518 -2.0667,0.69724c-0.26256,0.08858 -0.62755,0.13321 -0.86192,0.2486c-0.02422,0.01192 -0.04928,0.03587 -0.07406,0.06374c0.00588,0.01743 0.01176,0.03485 0.01764,0.05229c0.13281,0.39366 0.26562,0.78732 0.39843,1.18098c0.36523,1.08256 0.73044,2.16512 1.09567,3.24768c0.40478,1.1998 1.0285,2.55862 0.13544,3.7145c-0.1783,0.23077 -0.35867,0.46493 -0.57942,0.6555c-0.43966,0.37957 -1.35444,0.32407 -1.83787,0.40081c-0.26497,0.04206 -0.6206,0.31979 -0.88573,0.29882c-0.51293,-0.04058 -1.15334,-0.14527 -1.43116,-0.57836c-0.6789,-1.05836 -1.25398,-2.21034 -1.48102,-3.46743c-0.02444,-0.13531 0.06802,-0.27641 0.03848,-0.4107c-0.22859,-1.03918 -0.67594,-2.10909 -0.76627,-3.17839c-0.04688,-0.5549 0.11912,-1.21969 0.11704,-1.79527c-0.00218,-0.60029 0.0895,-1.23423 -0.0979,-1.7897c-0.11068,-0.32804 -0.22135,-0.65611 -0.33203,-0.98415c-0.0086,-0.0255 -0.02637,-0.05684 -0.04618,-0.08948c-0.41877,-0.06527 -0.74843,-0.1998 -1.16217,-0.35343c-0.33414,-0.12407 -0.74995,0.00295 -1.1205,-0.00916c-0.57014,-0.01863 -1.1351,-0.16434 -1.5852,-0.51181c-0.18618,-0.19882 -0.39678,-0.3773 -0.55853,-0.59645c-0.80585,-1.09182 0.47987,-2.08017 1.33805,-2.36969c1.3953,-0.47073 2.9769,-0.22258 4.39261,-0.02846c0.34497,0.0473 0.45728,0.15217 0.77344,0.16522c0.24493,-0.27952 0.69433,-0.71187 0.90842,-0.65147c0.05707,0.0161 -0.11741,0.20104 -0.07237,0.16249c0.3009,-0.25759 0.50659,-0.61974 0.82529,-0.85496c0.281,-0.2074 0.84751,-0.28593 1.18098,-0.39843c0.59048,-0.19921 1.18098,-0.39843 1.77146,-0.59764c0.19683,-0.0664 0.39366,-0.13281 0.59048,-0.19921c0.09329,-0.03147 0.18837,-0.04428 0.28119,-0.04042c0.23601,0.0005 0.55766,0.09003 0.70593,0.52951c0.13005,0.38546 -0.00912,0.63755 -0.1718,0.79042c0.00632,0.01874 0.01264,0.03746 0.01896,0.0562l0.12225,-0.03019c0,0 -0.01289,0.09264 -0.06185,0.20925zM303.23281,144.12334c-0.41006,0.13834 -0.82012,0.27669 -1.23018,0.41503c-0.30868,0.10414 -0.93661,0.18925 -1.18098,0.39843c-0.0362,0.03099 0.15128,-0.01163 0.13877,0.03434c-0.14298,0.52505 -0.86393,0.48124 -1.18693,0.75775c-0.0362,0.03099 0.15128,-0.01163 0.13877,0.03434c-0.0328,0.12044 -0.11776,0.23947 -0.22884,0.29643c-0.29367,0.15061 -0.62816,0.20277 -0.94224,0.30416c-0.44478,0.00161 -0.8261,-0.1584 -1.2568,-0.21996c-0.96056,-0.1373 -2.14945,-0.31638 -3.1458,-0.1582c-0.10499,0.01666 -0.49522,0.14568 -0.74288,0.25439c0.12024,0.05369 -0.02304,0.54898 0.07306,0.16064c0.45905,0.35437 0.93623,0.07906 1.53171,0.12825c0.6363,0.05257 1.0767,0.41829 1.65816,0.53376c0.02767,0.0055 -0.04745,-0.07481 -0.02022,-0.08217c0.10569,-0.02858 0.23896,-0.06427 0.32845,-0.0012c1.41047,0.99423 1.44615,2.82868 1.4518,4.38667c0.00238,0.65704 -0.1771,1.37967 -0.13189,2.01566c0.01156,0.16275 0.19714,0.27158 0.23217,0.43094c0.08675,0.3946 0.07934,0.80635 0.1697,1.20014c0.06605,0.28786 0.24098,0.54468 0.29751,0.83456c0.05769,0.29579 -0.01462,0.60732 0.04326,0.90308c0.17072,0.87242 0.66158,1.72886 1.13738,2.47975c0.00496,-0.00127 0.00965,-0.00265 0.01405,-0.00413c0.51394,-0.17338 0.9683,-0.15907 1.49357,-0.24246c0.12306,-0.01953 0.46034,-0.19222 0.61978,-0.25095c0.04366,-0.12336 0.3759,-0.70772 0.38772,-0.76727c0.05137,-0.25864 -0.47094,-1.33202 -0.60693,-1.73508c-0.43163,-1.27939 -0.86326,-2.55878 -1.29489,-3.83817c-0.07538,-0.22345 -0.46598,-0.96715 -0.39843,-1.18098c0.3989,-1.26249 0.99215,-1.37607 2.09574,-1.74839c0.59048,-0.19921 1.18098,-0.39843 1.77146,-0.59764c0.08522,-0.02875 0.17118,-0.06411 0.24734,-0.11277c-0.02261,-0.06363 0.05327,-0.213 0.03964,-0.29884c-0.0198,-0.12476 -0.11797,-0.22461 -0.15834,-0.34429c-0.29882,-0.88573 -0.59764,-1.77146 -0.89646,-2.6572c-0.14941,-0.44287 -0.29882,-0.88573 -0.44823,-1.3286zM293.40377,146.3432c-0.00695,0.00596 -0.00565,0.00919 0.00091,0.01086c0.0067,-0.00948 0.01376,-0.01859 0.02116,-0.02729c-0.00861,0.00576 -0.01601,0.01124 -0.02207,0.01643z" data-paper-data="{&quot;origPos&quot;:null}" fill="#dadada" stroke="none" stroke-linecap="butt"/><path d="M305.61888,147.8994c0.54882,-0.55282 1.10164,-0.004 1.10164,-0.004l-0.02888,0.10685c0.18962,0.04252 0.32234,0.16189 0.40961,0.27599c0.0593,0.07152 0.10672,0.15493 0.13819,0.24821l0.26562,0.78732l-0.01593,0.00537c0.33578,1.12412 0.6419,2.31929 1.14481,3.34071c0.06073,0.12336 0.21689,0.18098 0.27942,0.30345c0.39157,0.7669 0.60504,1.66835 0.88027,2.48416c0.64403,1.90895 -0.91213,3.09787 -2.6656,3.10423c-0.49559,0.0018 -1.14084,0.03423 -1.53203,-0.33944c-0.9681,-0.92476 -1.2189,-2.09908 -1.23118,-3.38558c-0.00393,-1.08348 -0.47124,-2.24648 -0.82596,-3.29793c-0.10364,-0.3072 -0.41807,-0.86156 -0.39843,-1.18098c0.05921,-0.96285 0.23166,-1.15028 1.04519,-1.6132c0.23879,-0.13588 0.79814,-0.12663 0.92714,-0.38021c0.08734,-0.06601 0.17469,-0.13201 0.26205,-0.19802l0.02696,0.09178c0.03279,-0.11252 0.09978,-0.23054 0.21713,-0.34875zM304.72143,150.16035c0.03148,0.09331 0.06296,0.18661 0.09443,0.27992c0.13281,0.39366 0.26562,0.78732 0.39843,1.18098c0.23378,0.69297 0.341,1.32781 0.46721,2.0347c0.07182,0.40224 0.23974,0.74352 0.24127,1.16513c-0.00384,0.78156 0.20445,1.21742 0.44352,1.91216c0.0124,0.03605 -0.10355,0.05423 -0.07862,0.08305c0.06406,0.07407 0.1944,0.06078 0.26323,0.13042c0.02313,0.0234 -0.11771,0.04305 -0.08544,0.04945c0.65382,0.12984 1.16149,-0.02548 1.69949,-0.24451c0.02612,-0.01064 0.01501,0.09876 0.03369,0.07762c0.06486,-0.07336 0.06078,-0.19439 0.13042,-0.26323c0.0234,-0.02313 0.04305,0.11771 0.04945,0.08544c0.05384,-0.27112 0.02291,-0.45688 -0.06112,-0.70594c-0.21577,-0.63957 -0.35563,-1.45107 -0.64703,-2.0429c-0.13312,-0.27038 -0.37561,-0.47631 -0.51266,-0.74471c-0.53926,-1.05615 -0.84444,-2.33594 -1.19609,-3.50673c-0.29415,0.16906 -1.1501,0.62846 -1.22717,0.48947c-0.00432,0.00664 -0.00867,0.01322 -0.01304,0.01971z" data-paper-data="{&quot;origPos&quot;:null}" fill="#dadada" stroke="none" stroke-linecap="butt"/><path d="M321.15496,148.6549c1.01254,2.19659 0.22464,4.01284 0.22464,4.01284c0,0 -2.42322,3.73916 -4.25098,-2.5594z" data-paper-data="{&quot;origPos&quot;:null}" fill="#ffffff" stroke="#dadada" stroke-linecap="round"/><path d="M314.68661,150.37869c0.92634,2.47743 -0.11453,4.39928 -0.11453,4.39928c0,0 -3.03361,3.8941 -4.49394,-3.12594z" data-paper-data="{&quot;origPos&quot;:null,&quot;origRot&quot;:0}" fill="#ffffff" stroke="#dadada" stroke-linecap="round"/><path d="M317.02388,149.90526l-2.09645,-4.48122l-1.78215,0.41614l1.20677,3.94339l-4.94446,1.15657l-0.7368,-3.91684l-2.6892,1.12649l-1.72571,-4.89859l13.43024,-3.94634l3.65615,8.88773z" data-paper-data="{&quot;origPos&quot;:null}" fill="#0062b3" stroke="#00577c" stroke-linecap="round"/><path d="M311.85352,139.29669c3.04376,-1.02687 5.71933,-1.24245 5.97604,-0.48152c0.25672,0.76094 -2.00262,2.21026 -5.04638,3.23713c-3.04376,1.02687 -5.71933,1.24245 -5.97605,0.48152c-0.25672,-0.76094 2.00262,-2.21025 5.04638,-3.23713z" data-paper-data="{&quot;origPos&quot;:null}" fill="#0062b3" stroke="#00577c" stroke-linecap="butt"/><path d="M312.90885,140.47528c-4.78305,1.61366 -9.96861,-0.95564 -11.58228,-5.7387c-1.61366,-4.78305 0.95564,-9.96861 5.7387,-11.58228c4.78305,-1.61366 9.96861,0.95564 11.58227,5.7387c1.61366,4.78305 -0.95564,9.96861 -5.7387,11.58227z" data-paper-data="{&quot;origPos&quot;:null}" fill="#ffffff" stroke="#dadada" stroke-linecap="butt"/><path d="M320.41952,123.91056c0.33202,0.98415 0.66404,1.9683 0.99606,2.95243c0.01046,0.031 0.02204,0.06869 0.0345,0.11139c0.20334,-0.03908 0.44145,-0.14241 0.54073,0.01077c0.27206,0.41977 0.44162,0.90468 0.5704,1.38805c0.00543,0.02038 -0.00564,0.05673 -0.02685,0.10293c0.0161,0.00718 0.03176,0.01433 0.04687,0.02149c0.09504,-0.03206 0.19008,-0.06413 0.28511,-0.09619c0.50892,-0.1717 0.87332,-0.54784 1.35282,-0.74306c0.02612,-0.01064 0.01716,0.10048 0.03368,0.07762c0.17211,-0.23808 0.26085,-0.52647 0.39127,-0.7897c0.03967,-0.08005 0.03766,-0.25726 0.10802,-0.2657c-0.09524,-0.28229 -0.19047,-0.56458 -0.28571,-0.84688c-0.08454,-0.25057 -0.10415,-0.52361 -0.2154,-0.76352c-0.18727,-0.4038 -0.4965,-0.69682 -0.64548,-1.13838c-0.04398,-0.47014 -0.51877,-0.74468 -0.85963,-1.00781c-0.08688,-0.06707 -0.28544,-0.1033 -0.3011,-0.19003c-0.24924,0.08409 -0.49848,0.16817 -0.74771,0.25226c-0.26937,0.09088 -0.73446,0.16035 -0.96035,0.2818c-0.15471,0.08318 -0.30627,0.18305 -0.4562,0.28953c0.06252,0.09418 0.11894,0.21606 0.12963,0.35783zM322.77388,130.07688c-0.06426,-0.00396 -0.12803,-0.0117 -0.19146,-0.02199c0.24494,0.64806 0.46184,1.30153 0.55967,1.92567c0.10343,0.65983 -0.146,1.36791 -0.01839,2.02004c0.17088,0.87322 0.83526,2.06451 0.24607,2.96305c-0.15047,0.22947 -0.36311,0.41151 -0.54467,0.61727c-1.1542,0.87221 -2.15197,-0.17341 -2.73792,-1.08185c-0.60913,-0.94436 -1.04406,-2.36402 -1.07738,-3.47879c-0.01154,-0.38603 0.12757,-0.76558 0.12549,-1.15177c-0.00017,-0.03003 -0.04881,0.08565 -0.06616,0.06114c-0.06003,-0.08476 -0.08291,-0.19273 -0.0996,-0.29525c-0.1018,-0.6251 -0.10284,-0.95465 -0.30121,-1.54263c-0.03836,-0.1137 -0.07672,-0.2274 -0.11508,-0.34111c-0.24675,-0.27717 -0.42734,-0.65083 -0.71398,-0.88057c-0.64414,-0.51628 -1.59284,-0.40655 -2.28289,-0.92715c-0.52701,-0.39758 -0.52444,-1.23497 -0.89189,-1.72122c-0.1879,-0.24865 -0.62852,-1.00587 -0.71446,-1.08185c-0.05561,-0.04917 -0.19483,-0.04499 -0.24632,-0.08084c-0.15565,0.04568 -0.31987,0.07419 -0.47261,0.12571c-0.82677,0.27893 -1.67109,0.6788 -2.56315,0.62393c-0.24921,-0.01533 -0.20784,-0.14353 -0.38286,-0.20658c-0.32937,-0.11866 -0.68337,-0.17466 -0.99708,-0.33009c-0.09856,-0.04884 -0.28906,-0.09909 -0.30169,-0.18983c-0.38026,0.12829 -0.76053,0.25657 -1.14079,0.38487c-0.09842,0.0332 -0.19528,0.12781 -0.29525,0.0996c-0.05707,-0.0161 0.11741,-0.20104 0.07237,-0.16249c-0.26518,0.227 -0.41676,0.56885 -0.68537,0.7918c-0.0845,0.07014 -0.71305,0.3962 -0.83703,0.4754c-0.09226,0.05894 -0.15306,0.2085 -0.26205,0.19802c-0.07372,-0.00709 0.05607,-0.28624 0.02059,-0.22123c-0.24943,0.457 -0.13727,1.03592 -0.24633,1.52379c-0.19856,0.88828 -1.0935,1.9251 -1.92044,2.20408c0.02413,-0.05416 0.11741,-0.20104 0.07237,-0.16249c-0.31324,0.26813 -0.45587,0.76911 -0.86669,0.93636c-0.02612,0.01064 -0.015,-0.09876 -0.03368,-0.07762c-0.06486,0.07336 -0.06078,0.1944 -0.13043,0.26323c-0.0234,0.02313 -0.04304,-0.11771 -0.04944,-0.08543c-0.08085,0.40713 0.04787,0.81787 -0.12154,1.2236c-0.04198,0.10055 -0.08369,0.20175 -0.12785,0.30178c0.2025,0.16009 0.28208,0.39594 0.28208,0.39594c0.42056,1.24659 0.84112,2.49317 1.26169,3.73975c0.15762,0.46717 0.62749,1.28602 0.59764,1.77146c-0.0179,0.29108 -0.11369,0.57206 -0.17053,0.85809c-0.44309,0.89428 -0.95473,1.37292 -2.00538,1.42324c-0.10936,0.00524 -0.23035,0.0498 -0.32845,0.0012c-0.29909,-0.14819 -0.56382,-0.36022 -0.82233,-0.57137c-0.36743,-0.30012 -0.46747,-0.93566 -0.61346,-1.36841c-0.23493,-0.69635 -0.40612,-1.49108 -0.71515,-2.1617c-0.01579,-0.03428 -0.03195,-0.06824 -0.0485,-0.10184c-0.13152,-0.26712 -0.35953,-0.49458 -0.49565,-0.81933c-0.05798,-0.17185 -0.13616,-0.34165 -0.2484,-0.48411l-0.23122,-0.36045c0,0 0.32237,0.62942 -0.03599,-0.06224c-0.0918,-0.17717 -0.04815,-0.31469 0.06755,-0.42124c-0.41508,-1.23036 -0.83017,-2.46072 -1.24526,-3.69108c-0.31698,-0.93956 -0.81881,-1.94741 -0.75674,-2.95681c0.00703,-0.1143 0.15959,-0.17688 0.18731,-0.28799c0.08617,-0.34556 0.0776,-0.70986 0.15969,-1.05642c0.15636,-0.66012 0.47266,-1.13787 0.82445,-1.68159c0.55421,-0.85658 0.94092,-1.65439 1.98684,-2.00726c1.60744,-0.5423 3.21488,-1.0846 4.82231,-1.6269c0.86467,-0.29172 1.8246,-0.76918 2.73976,-0.7725c0.51122,-0.00185 1.09095,0.05812 1.59287,-0.0315c0.29226,-0.05218 0.56333,-0.20155 0.85772,-0.23988c0.75786,-0.09865 1.58758,0.06857 2.34995,0.05917c0.5774,-0.00712 1.0436,-0.22766 1.61414,-0.26309c0.48538,-0.03013 1.52784,0.13295 1.94567,0.28058c0.33986,0.12009 0.82748,0.65614 1.08292,0.87349c0.20404,0.18838 0.42509,0.35987 0.61212,0.56516c0.09614,0.10552 0.18478,0.22547 0.23122,0.36045c0.0124,0.03605 -0.10355,0.05423 -0.07862,0.08305c0.20486,0.23688 0.56261,0.28743 0.80211,0.48921c0.02315,0.0195 0.04594,0.03945 0.0684,0.05982c0.91179,-0.57753 1.72731,-1.00854 2.76883,-1.35993c0.18444,-0.06223 0.69916,-0.33435 0.88573,-0.29882c1.27475,0.24273 2.23019,1.16094 2.70172,2.32219c0.0863,0.2558 0.29284,0.45499 0.41223,0.69711c0.23374,0.47403 0.37951,0.99985 0.54825,1.50003c0.07447,0.22073 0.31295,0.65586 0.29882,0.88573c-0.09628,1.56563 -1.27388,2.74118 -2.68146,3.26139c-0.21122,0.07806 -0.66361,0.31248 -0.88573,0.29882zM321.57236,136.21073c0.01975,0.01078 0.04352,0.01683 0.06931,0.02023c-0.05602,-0.01777 -0.09931,-0.0366 -0.06931,-0.02023z" data-paper-data="{&quot;origPos&quot;:null}" fill="#000000" stroke="none" stroke-linecap="butt"/><path d="M320.40174,123.9094c-0.01069,-0.14177 -0.06667,-0.26422 -0.12919,-0.35841c0.14993,-0.10647 0.30274,-0.20763 0.45746,-0.29081c0.22588,-0.12145 0.69399,-0.19273 0.96337,-0.28361c0.24924,-0.08409 0.50135,-0.16883 0.75058,-0.25292c0.01566,0.08673 0.21536,0.12292 0.30224,0.18999c0.34086,0.26314 0.82059,0.53908 0.86457,1.0092c0.14896,0.44156 0.46297,0.74063 0.65024,1.14443c0.11125,0.2399 0.13114,0.51762 0.21568,0.76817c0.09524,0.28229 0.18931,0.56789 0.28456,0.85018c-0.07037,0.00846 -0.06902,0.18669 -0.10869,0.26675c-0.13042,0.26323 -0.22156,0.55401 -0.39367,0.79208c-0.01652,0.02286 -0.00751,-0.0883 -0.03363,-0.07767c-0.47949,0.1952 -0.84931,0.57331 -1.35822,0.74501c-0.09504,0.03206 -0.19109,0.06414 -0.28613,0.09621c-0.01511,-0.00716 -0.03093,-0.01433 -0.04704,-0.0215c0.02121,-0.0462 0.03236,-0.08254 0.02693,-0.10293c-0.1288,-0.48336 -0.30236,-0.96927 -0.57442,-1.38905c-0.09929,-0.15319 -0.33969,-0.05133 -0.54302,-0.01227c-0.01246,-0.04269 -0.02446,-0.08076 -0.03491,-0.11176c-0.33202,-0.98415 -0.66533,-1.98188 -0.99735,-2.96601z" data-paper-data="{&quot;noHover&quot;:false,&quot;origItem&quot;:[&quot;Path&quot;,{&quot;applyMatrix&quot;:true,&quot;segments&quot;:[[[145.29997,134.00786],[0,0],[-0.16943,-0.66313]],[[145.34059,132.17618],[-0.1402,0.52581],[-0.84774,-0.25496]],[[142.81415,131.55756],[0.8337,0.14134],[-1.21724,-0.20637]],[[138,131.75],[1.36856,0],[-1.26627,0]],[[134.2012,131.75],[1.26627,0],[0.06203,0.41971]],[[133.12019,133.08013],[0.29307,-0.43961],[-1.14988,1.72482]],[[130.75,139],[-0.52288,-2.21214],[0,2.24333]],[[129.55756,145.18585],[0.2328,-2.13008],[-0.1383,1.26546]],[[129.75,149],[0,-1.273],[0,1.4342]],[[129.75,153.3026],[0,-1.4342],[0.334,-0.06973]],[[130.65165,154.34835],[-0.30411,-0.30411],[1,1]],[[133.65165,157.34835],[-1.15142,-0.82111],[0.11055,0.07884]],[[133.68585,156.94244],[-0.13553,-0.00831],[2.48752,0.15255]],[[141,158.25],[-2.58557,0],[0.48284,0]],[[142.44853,158.25],[-0.48284,0],[0.05793,-0.05591]],[[142.62923,158.07984],[-0.0624,0.0575],[-0.16786,-0.17809]],[[142.34835,157.65165],[0.00659,0.10133],[-0.15637,-2.403]],[[142.81414,150.44244],[-0.595,2.33342],[0.21713,-0.85153]],[[145.26403,149.56116],[-0.9876,0.13469],[-0.00883,-0.21393]],[[145.25,149],[0,0.15752],[0,-5]],[[145.25,134],[0,5],[0,0]]],&quot;closed&quot;:true}]}" fill="#ffffff" stroke="none" stroke-linecap="butt"/><path d="M316.99484,117.94513l1.27242,4.93101l-5.19324,-1.60901z" data-paper-data="{&quot;origPos&quot;:null,&quot;origRot&quot;:0}" fill="#ffffff" stroke="#000000" stroke-linecap="round"/><path d="M298.46331,122.14983l5.00069,2.13348l-4.16075,2.93634z" data-paper-data="{&quot;origPos&quot;:null,&quot;origRot&quot;:0,&quot;index&quot;:null}" fill="#ffffff" stroke="#000000" stroke-linecap="round"/><path d="M313.57741,130.11025c-0.40765,0.13752 -0.84959,-0.08145 -0.98713,-0.48909c-0.13752,-0.40765 0.08145,-0.84959 0.48909,-0.98713c0.40765,-0.13752 0.84959,0.08145 0.98713,0.4891c0.13752,0.40765 -0.08145,0.84959 -0.48909,0.98713z" fill="#000000" stroke="none" stroke-linecap="butt"/><path d="M307.73893,132.29921c-0.40765,0.13752 -0.84959,-0.08145 -0.98713,-0.4891c-0.13752,-0.40765 0.08145,-0.84959 0.48909,-0.98713c0.40765,-0.13752 0.84959,0.08145 0.98713,0.48909c0.13752,0.40765 -0.08145,0.84959 -0.4891,0.98713z" fill="#000000" stroke="none" stroke-linecap="butt"/><path d="M311.58544,133.30345c-0.13589,0.04585 -0.2832,-0.02715 -0.32905,-0.16303c-0.04585,-0.13589 0.02715,-0.2832 0.16303,-0.32905c0.13589,-0.04585 0.2832,0.02715 0.32905,0.16303c0.04585,0.13589 -0.02715,0.2832 -0.16303,0.32905z" fill="#000000" stroke="none" stroke-linecap="butt"/><path d="M315.45094,135.01378c-1.492,3.42166 -2.0797,-0.55167 -3.67812,0.14472c-1.59841,0.69641 -1.34504,4.34725 -4.19743,1.85455" data-paper-data="{&quot;origPos&quot;:null}" fill="none" stroke="#000000" stroke-linecap="round"/><path d="M300.34319,130.09859c0.4495,0.324 0.58592,0.38613 1.04174,1.07442c0.25462,0.3845 0.32283,0.89809 0.4338,1.35857c0.26011,1.07943 0.47765,2.62053 0.04533,3.42112c-0.68418,0.84854 -1.73388,1.27386 -2.77293,1.3761c-0.13857,0.01363 -0.29333,-0.11466 -0.43206,-0.10178c-0.30744,0.02856 -0.57726,0.21548 -0.88952,0.21788c-1.37099,0.01055 -3.01666,-0.6023 -4.0888,-2.14008c-0.19158,-0.27479 -0.41366,-1.22612 -0.51066,-1.51364c-0.16223,-0.57247 -0.44161,-1.25407 -0.34392,-1.84353c0.09506,-0.57358 0.22348,-1.13863 0.43116,-1.63437c0.13168,-0.31431 0.54936,-0.19623 0.84177,-0.225c0.41614,-0.04095 0.89649,0.16105 1.31222,0.11137c0.35563,-0.0425 0.69019,-0.19958 1.05839,-0.16401c0.12967,0.01253 0.27584,0.06054 0.38809,0.1756c0.04285,0.04392 -0.12888,0.13921 -0.07982,0.1404c0.36998,0.00895 0.6783,-0.24736 1.0386,-0.2914c0.38529,-0.04709 0.62458,0.03682 1.02254,-0.09743c0,0 0.32393,-0.10928 0.64383,0.11698l-0.05334,-0.3162c0,0 0.53195,-0.17947 0.9057,0.39774zM299.78372,131.86275c-0.12298,0.12185 -0.24825,0.16412 -0.24825,0.16412c-0.51106,0.17242 -1.00216,0.07443 -1.5251,0.149c-0.19496,0.0278 -0.33393,0.25245 -0.53604,0.23983c-0.4099,-0.02558 -0.82981,-0.30796 -1.24409,-0.3864c-0.06201,-0.01175 0.20404,0.07479 0.17266,0.1348c-0.05497,0.10513 -0.19138,0.08563 -0.29525,0.0996c-0.47416,0.06378 -0.98099,0.03089 -1.4731,-0.0218c-0.06557,-0.00702 -0.13277,-0.0126 -0.19775,-0.00938c0.00626,0.00568 0.01247,0.01209 0.01861,0.01928c0.21747,0.25467 0.02332,0.73235 0.19089,1.04134c0.11769,0.34883 0.23538,0.69767 0.35306,1.0465c0.05926,-0.04137 0.18647,0.16443 0.27457,0.22792c0.28967,0.2088 0.56616,0.47689 0.86902,0.62641c0.02908,0.01435 -0.0584,-0.10727 -0.03096,-0.11398c0.45863,-0.11215 1.07754,0.24008 1.55926,0.2635c0.11656,0.00567 0.17774,-0.16936 0.29146,-0.18055c0.30372,-0.02989 0.63056,0.07845 0.93461,0.05021c0.32817,-0.03049 0.79481,-0.32713 1.12653,-0.43904c0.19683,-0.0664 0.44256,-0.03486 0.59048,-0.19921c0.03393,-0.0377 -0.09904,-0.04223 -0.14856,-0.06336c0.06747,-0.12494 0.19328,-0.21102 0.20239,-0.37482c0.00545,-0.098 -0.13573,0.21559 -0.18866,0.12823c-0.20373,-0.33621 -0.16605,-1.35222 -0.26184,-1.75085c-0.03134,-0.13041 -0.08948,-0.25504 -0.14736,-0.37924c-0.05735,0.05428 -0.18844,-0.15967 -0.27858,-0.22464l-0.00802,-0.04751zM293.95368,132.37734c0.03146,-0.00395 0.06325,-0.01635 0.09509,-0.03296c-0.08636,0.02391 -0.15191,0.04009 -0.09509,0.03296z" data-paper-data="{&quot;origPos&quot;:null}" fill="#000000" stroke="none" stroke-linecap="butt"/><path d="M299.5439,132.02079c0,0 0.1253,-0.04223 0.24828,-0.16408l0.00812,0.04765c0.09014,0.06497 0.22189,0.28003 0.27924,0.22574c0.05788,0.12419 0.11663,0.25023 0.14797,0.38064c0.09579,0.39862 0.05826,1.42097 0.26198,1.75718c0.05294,0.08736 0.19427,-0.22679 0.18882,-0.12879c-0.00912,0.16379 -0.13534,0.25121 -0.20281,0.37615c0.04951,0.02112 0.18248,0.02567 0.14855,0.06337c-0.14794,0.16435 -0.39429,0.13416 -0.59112,0.20057c-0.33172,0.11192 -0.80135,0.41191 -1.12952,0.44239c-0.30406,0.02825 -0.63488,-0.07835 -0.9386,-0.04846c-0.11371,0.01119 -0.17662,0.18642 -0.29319,0.18074c-0.48172,-0.02342 -1.10794,-0.37832 -1.56657,-0.26616c-0.02745,0.00671 0.06037,0.12863 0.0313,0.11428c-0.30287,-0.14952 -0.58207,-0.42104 -0.87175,-0.62983c-0.08809,-0.0635 -0.21577,-0.27043 -0.27504,-0.22906c-0.11769,-0.34883 -0.23595,-0.70157 -0.35364,-1.0504c-0.16756,-0.30899 0.02722,-0.78984 -0.19025,-1.04451c-0.00614,-0.0072 -0.01233,-0.01364 -0.01859,-0.01932c0.06498,-0.00323 0.13224,0.00217 0.19782,0.00919c0.49212,0.05269 1.00038,0.08307 1.47454,0.01928c0.10386,-0.01397 0.24131,0.00437 0.29628,-0.10077c0.03138,-0.06002 -0.23479,-0.14644 -0.17278,-0.13469c0.41428,0.07845 0.84015,0.35791 1.25005,0.38349c0.20212,0.01262 0.34564,-0.21161 0.5406,-0.23941c0.52293,-0.07457 1.01923,0.02721 1.5303,-0.1452z" data-paper-data="{&quot;noHover&quot;:false,&quot;origItem&quot;:[&quot;Path&quot;,{&quot;applyMatrix&quot;:true,&quot;segments&quot;:[[[251.61509,138.51709],[0.74848,0.36659],[0,0]],[[251.65165,138.74616],[0,0],[-0.31117,0.43507]],[[250.72662,140.19953],[0.34516,0.15936],[-0.07288,0.65558]],[[250.63803,142.15615],[-0.05775,-0.64306],[0.17652,1.96567]],[[252.13803,150.54536],[0.4119,-1.84708],[-0.10703,0.47995]],[[251.08013,150.25078],[-0.1757,-0.43863],[0.29365,0.73306]],[[252.58013,151.64898],[-0.5,-0.46607],[-0.19338,0.17253]],[[252,152.16658],[-0.21281,-0.11974],[0.9277,0.522]],[[255,152.16658],[-1,0],[1.6853,0]],[[260.81415,152.43565],[-1.54378,0.36595],[1.43039,-0.33907]],[[265,150.76838],[-1.43134,0.33106],[0.53589,-0.12395]],[[266.60728,151.1434],[-0.52296,0.20523],[2.16124,-0.84814]],[[273.31415,147.54194],[-2.26455,0.19418],[0.13553,-0.01162]],[[273.34835,148.10949],[-0.11055,0.11023],[1.15142,-1.14808]],[[276.34835,143.91489],[-1,1.3982],[0.30411,-0.4252]],[[277.25,142.45271],[-0.334,-0.0975],[0,-1.77226]],[[277.25,137.13592],[0,1.77226],[0.28884,-1.66727]],[[276.51821,132.09221],[-0.60005,1.49632],[0.01695,-0.04226]],[[276.57342,131.97563],[-0.01983,0.03553],[-0.30134,0.08528]],[[275.68585,132.3227],[0.28831,-0.13294],[-2.16368,0.99767]],[[269,134.68907],[2.261,-0.43874],[-0.49525,0.0961]],[[267.5,134.68907],[0.41257,0.39495],[-0.23551,-0.22546]],[[268.08013,133.80846],[0.26479,-0.14899],[-1.76895,0.99536]],[[263,137.48547],[1.83034,-0.74747],[-0.90253,0.36857]],[[260.18585,137.2164],[0.93204,-0.1732],[-2.50007,0.46458]],[[253,138.88367],[2.59648,0],[0,0]]],&quot;closed&quot;:true}]}" fill="#ffffff" stroke="none" stroke-linecap="butt"/></g></g></g></svg>