<svg version="1.1" xmlns="http://www.w3.org/2000/svg" xmlns:xlink="http://www.w3.org/1999/xlink" width="222.61258" height="353.70758" viewBox="0,0,222.61258,353.70758"><g transform="translate(-125.09638,-47.04837)"><g data-paper-data="{&quot;isPaintingLayer&quot;:true}" fill-rule="nonzero" stroke-linejoin="miter" stroke-miterlimit="10" stroke-dasharray="" stroke-dashoffset="0" style="mix-blend-mode: normal"><path d="M192.29128,62.01618c-0.24234,-1.36536 4.31183,-3.69988 7.0037,-4.46294c2.27584,-0.52035 4.98424,-0.35069 7.01833,0.83839c2.37119,1.40457 3.7603,3.98069 4.79488,6.56648c0.03366,6.37111 -2.76917,2.13177 -4.91652,0.84491c-1.8289,-0.83548 -3.76765,-1.94791 -5.80637,-2.51657c-2.59742,-0.72527 -7.84884,0.06746 -8.09402,-1.27026z" data-paper-data="{&quot;origPos&quot;:null,&quot;index&quot;:null}" id="ID0.5775998127646744" fill="#666600" stroke="#666600" stroke-width="2.23893" stroke-linecap="round"/><g data-paper-data="{&quot;origPos&quot;:null,&quot;index&quot;:null}" id="ID0.09386339038610458" stroke-linecap="round"><path d="M202.43189,368.25533l20.02117,-194.34422l30.47529,-0.11967l21.54119,192.58775z" id="ID0.017299960367381573" fill="#006622" stroke="#006622" stroke-width="3.31787"/><path d="M264.64876,360.75883l-13.94726,-118.55186" id="ID0.031035076826810837" fill="none" stroke="#01902d" stroke-width="10.8155"/><path d="M275.93031,368.82774l-32.20896,0.1266l-0.0286,-7.26352l32.20904,-0.1265z" id="ID0.9768607504665852" fill="#006622" stroke="none" stroke-width="1.30791"/></g><path d="M159.18996,231.30245c-3.19654,3.45124 -7.77517,5.76333 -12.97812,6.11486c-5.20293,0.35152 -10.051,-1.32385 -13.68267,-4.31368c-3.63001,-2.98855 -6.0439,-7.29304 -6.37544,-12.20136c-0.33155,-4.90832 1.48129,-9.49837 4.67634,-12.94799c3.19662,-3.45114 7.77528,-5.76341 12.97812,-6.11486c5.20293,-0.35152 10.051,1.32385 13.68267,4.31368c3.63012,2.98847 6.0439,7.29304 6.37544,12.20136c0.33173,4.90835 -1.48129,9.49837 -4.67634,12.94799z" data-paper-data="{&quot;origPos&quot;:null,&quot;index&quot;:null}" id="ID0.07061211299151182" fill="#ffd499" stroke="#000000" stroke-width="2.11469" stroke-linecap="butt"/><path d="M291.42768,90.67905c14.37364,15.69171 23.31623,37.40468 23.41056,61.40416c0.09426,23.99938 -8.67755,45.78189 -22.9274,61.58605c-14.2481,15.80403 -33.97263,25.62984 -55.78197,25.71541c-21.80925,0.08566 -41.61038,-9.58474 -55.9822,-25.27648c-14.37355,-15.6916 -23.31633,-37.4046 -23.41059,-61.40398c-0.09426,-23.99938 8.67755,-45.78189 22.9274,-61.58605c14.2482,-15.80411 33.97263,-25.62984 55.78188,-25.71551c21.80944,-0.08563 41.61038,9.58474 55.98231,25.2764z" data-paper-data="{&quot;origPos&quot;:null,&quot;index&quot;:null}" id="ID0.3367121433839202" fill="#f0c690" stroke="#f0c690" stroke-width="3.8323" stroke-linecap="butt"/><path d="M280.34404,115.04081c12.8394,12.48531 20.8246,29.7674 20.89963,48.87412c0.07511,19.10683 -7.77413,36.45118 -20.51505,49.03688c-12.73937,12.58708 -30.37187,20.41695 -49.86472,20.49355c-19.49295,0.07668 -37.18637,-7.61453 -50.02435,-20.10108c-12.8394,-12.48531 -20.8246,-29.7674 -20.89963,-48.87412c-0.07511,-19.10683 7.77413,-36.45118 20.51495,-49.0368c12.73948,-12.58716 30.37197,-20.41704 49.86483,-20.49363c19.49295,-0.07668 37.18637,7.61453 50.02435,20.10108z" data-paper-data="{&quot;origPos&quot;:null,&quot;index&quot;:null}" id="ID0.05769371194764972" fill="#ffd499" stroke="none" stroke-width="1.03711" stroke-linecap="butt"/><path d="M225.54391,48.4042c0.63939,1.83592 -4.97283,5.81129 -7.27266,8.67951c-1.56272,1.94571 -2.98601,4.13363 -4.31732,6.09899c-1.35977,2.62298 -1.43231,8.6879 -5.63496,2.09374c-0.65233,-3.29221 -0.92051,-6.78202 0.58009,-9.66767c1.42187,-2.68204 4.22254,-4.54761 6.9905,-5.84086c2.9951,-1.19828 9.09029,-2.91965 9.65437,-1.36371z" data-paper-data="{&quot;origPos&quot;:null,&quot;index&quot;:null}" id="ID0.5775998127646744" fill="#525200" stroke="#525200" stroke-width="2.71167" stroke-linecap="round"/><g data-paper-data="{&quot;origPos&quot;:null,&quot;index&quot;:null}" id="ID0.5728061054833233" fill="none" stroke="#000000" stroke-width="12.6636" stroke-linecap="round"><path d="M277.22326,219.06411l-0.2371,-60.35291" id="ID0.46364903124049306"/><path d="M238.41273,219.31814l-0.2371,-60.35291" id="ID0.46364903124049306"/></g><path d="M310.50911,114.08674l-152.77142,0.60013l11.03538,-19.20947l14.51776,-16.57952l14.54646,-9.30982l10.3955,-5.32798l13.18084,-3.35631l13.18864,-1.37361l24.11187,3.87066l10.22668,4.71834l5.28742,2.49062l11.14181,7.88705l10.46028,11.19426l8.37459,10.54142z" data-paper-data="{&quot;origPos&quot;:null,&quot;index&quot;:null}" id="ID0.5693852878175676" fill="#666600" stroke="none" stroke-width="1.00499" stroke-linecap="round"/><path d="M296.62745,104.36021c2.87342,-0.01128 5.38823,1.28081 7.37533,2.97278c3.10054,2.62085 6.48528,5.81696 8.64554,9.52133c2.46516,5.6318 4.1167,11.72148 4.93096,17.82504c0.73866,5.57374 2.42562,18.55914 -1.32131,17.18861c-6.68878,-3.5452 -12.08014,-19.08428 -19.55,-27.02018c-1.87872,-1.99774 -5.48208,-1.12576 -7.37552,-2.97281c-1.89325,-1.84701 -3.06993,-4.40402 -3.08097,-7.23001c-0.01122,-2.82602 1.14545,-5.39221 3.02416,-7.25411c1.8788,-1.86179 4.47828,-3.01928 7.35181,-3.03064z" data-paper-data="{&quot;origPos&quot;:null,&quot;index&quot;:null}" id="ID0.16118840454146266" fill="#525200" stroke="none" stroke-width="1.00499" stroke-linecap="round"/><path d="M285.12685,105.54967c2.02162,2.32512 3.27865,5.54142 3.29259,9.09698c0.01392,3.55556 -1.21778,6.78164 -3.22104,9.12257c-2.00188,2.34073 -4.77389,3.7964 -7.83904,3.80846c-3.06514,0.01206 -5.84836,-1.42177 -7.86863,-3.74691c-2.02154,-2.32503 -3.27868,-5.54123 -3.29261,-9.09679c-0.014,-3.55567 1.21778,-6.78164 3.22104,-9.12257c2.0018,-2.34084 4.77389,-3.7964 7.83904,-3.80846c3.06514,-0.01206 5.84847,1.42169 7.86866,3.74672z" data-paper-data="{&quot;origPos&quot;:null,&quot;index&quot;:null}" id="ID0.839914002455771" fill="#525200" stroke="none" stroke-width="1.00499" stroke-linecap="butt"/><path d="M237.68181,64.93086c1.32197,1.20148 2.14304,2.86537 2.15029,4.70465c0.00724,1.83929 -0.80074,3.50956 -2.11323,4.72125c-1.31173,1.21247 -3.12702,1.96633 -5.13352,1.97415c-2.00661,0.00791 -3.82777,-0.73158 -5.14887,-1.93371c-1.32197,-1.20148 -2.14304,-2.86537 -2.15029,-4.70465c-0.00724,-1.83929 0.80074,-3.50956 2.11323,-4.72125c1.31173,-1.21247 3.12702,-1.96633 5.13352,-1.97415c2.00661,-0.00791 3.82777,0.73158 5.14887,1.93371z" data-paper-data="{&quot;origPos&quot;:null,&quot;index&quot;:null}" id="ID0.2688980521634221" fill="#525200" stroke="none" stroke-width="0.59905" stroke-linecap="butt"/><path d="M268.30337,107.50104c1.51423,1.48901 2.45565,3.55127 2.46455,5.82997c0.00898,2.27881 -0.91615,4.34843 -2.41858,5.84929c-1.50378,1.50221 -3.58341,2.4356 -5.88196,2.44459c-2.29848,0.00909 -4.38531,-0.90796 -5.90089,-2.39832c-1.51423,-1.48901 -2.45554,-3.55135 -2.46455,-5.82997c-0.00898,-2.27881 0.91626,-4.34851 2.41858,-5.84929c1.50378,-1.50221 3.58341,-2.4356 5.88196,-2.44459c2.29848,-0.00909 4.38542,0.90788 5.90089,2.39832z" data-paper-data="{&quot;origPos&quot;:null,&quot;index&quot;:null}" id="ID0.7480932525359094" fill="#666600" stroke="none" stroke-width="1.00499" stroke-linecap="butt"/><path d="M253.18528,97.25834c2.20928,2.38379 3.58334,5.68288 3.59769,9.32963c0.01435,3.64676 -1.33372,6.9567 -3.52425,9.35771c-2.19045,2.40111 -5.22347,3.8947 -8.57615,3.90788c-3.35256,0.0131 -6.39718,-1.45666 -8.60646,-3.84045c-2.20939,-2.38371 -3.58334,-5.68288 -3.59769,-9.32963c-0.01435,-3.64676 1.3338,-6.9566 3.52425,-9.35771c2.19053,-2.401 5.22347,-3.8947 8.57615,-3.90788c3.35256,-0.0131 6.39718,1.45666 8.60646,3.84045z" data-paper-data="{&quot;origPos&quot;:null,&quot;index&quot;:null}" id="ID0.26692162407562137" fill="#666600" stroke="none" stroke-width="1.00499" stroke-linecap="butt"/><path d="M233.86198,110.88108c0.88453,1.01305 1.43455,2.41461 1.44055,3.96509c0.00611,1.55041 -0.53278,2.95636 -1.40935,3.97622c-0.87503,1.02124 -2.08787,1.65512 -3.4295,1.66045c-1.34153,0.00525 -2.55931,-0.61922 -3.44239,-1.63351c-0.88445,-1.01294 -1.43447,-2.41451 -1.44058,-3.9649c-0.00608,-1.5506 0.53288,-2.95644 1.40927,-3.97633c0.87522,-1.02121 2.08797,-1.6552 3.42958,-1.66034c1.34164,-0.00533 2.55933,0.61903 3.44242,1.63332z" data-paper-data="{&quot;origPos&quot;:null,&quot;index&quot;:null}" id="ID0.8134746439754963" fill="#666600" stroke="none" stroke-width="1.00499" stroke-linecap="butt"/><path d="M224.5615,104.30184c2.02136,2.26555 3.27813,5.39983 3.29171,8.86431c0.01369,3.4644 -1.21848,6.60843 -3.22191,8.8899c-2.00217,2.28 -4.77424,3.69857 -7.83939,3.71063c-3.06514,0.01206 -5.84839,-1.38478 -7.86839,-3.64899c-2.02128,-2.26544 -3.27802,-5.39991 -3.29163,-8.8642c-0.01358,-3.46448 1.2184,-6.60854 3.22191,-8.8899c2.00209,-2.2801 4.77427,-3.69876 7.83949,-3.71071c3.06514,-0.01206 5.8482,1.38476 7.8682,3.64897z" data-paper-data="{&quot;origPos&quot;:null,&quot;index&quot;:null}" id="ID0.7768734325654805" fill="#525200" stroke="none" stroke-width="1.00499" stroke-linecap="butt"/><path d="M206.05588,112.20905c0.82047,0.62599 1.32936,1.49103 1.33321,2.44799c0.00374,0.95704 -0.49839,1.8261 -1.31391,2.45846c-0.81417,0.63101 -1.94041,1.02414 -3.18622,1.02893c-1.24571,0.0049 -2.37497,-0.37925 -3.19408,-1.00389c-0.82057,-0.62591 -1.32955,-1.49106 -1.33321,-2.44799c-0.00374,-0.95704 0.49839,-1.8261 1.31391,-2.45846c0.81417,-0.63101 1.9403,-1.02406 3.18614,-1.02904c1.24579,-0.00479 2.37505,0.37935 3.19416,1.004z" data-paper-data="{&quot;origPos&quot;:null,&quot;index&quot;:null}" id="ID0.8043623631820083" fill="#666600" stroke="none" stroke-width="1.00499" stroke-linecap="butt"/><path d="M199.19366,109.47226c0.7979,0.72993 1.29358,1.74118 1.29801,2.8591c0.00444,1.11791 -0.48334,2.13302 -1.27555,2.86924c-0.79214,0.737 -1.88776,1.19504 -3.09898,1.19981c-1.21122,0.00476 -2.31025,-0.44466 -3.10821,-1.17556c-0.798,-0.72985 -1.29368,-1.7411 -1.29812,-2.85902c-0.00436,-1.1178 0.48342,-2.13291 1.27563,-2.86913c0.79214,-0.737 1.88768,-1.19515 3.0989,-1.19991c1.21122,-0.00476 2.31034,0.44477 3.10831,1.17548z" data-paper-data="{&quot;origPos&quot;:null,&quot;index&quot;:null}" id="ID0.4881145376712084" fill="#525200" stroke="none" stroke-width="0.70785" stroke-linecap="butt"/><path d="M166.6915,104.28789c1.97381,-1.70772 4.47831,-3.01947 7.35184,-3.03083c2.8735,-0.01117 5.48197,1.12584 7.37541,2.97289c1.89325,1.84701 3.06993,4.40402 3.08105,7.23012c0.01114,2.82591 -1.14554,5.3921 -3.02424,7.254c-1.87872,1.8619 -5.48884,1.01816 -7.35181,3.03064c-7.40726,7.99436 -12.67649,23.57522 -19.33709,27.17295c-3.73615,1.39993 -2.15113,-11.59838 -1.45639,-17.1778c0.76621,-6.10968 2.37007,-12.2121 4.79082,-17.86311c2.13123,-3.72126 5.49064,-6.94374 8.57041,-9.58887z" data-paper-data="{&quot;origPos&quot;:null,&quot;index&quot;:null}" id="ID0.16118840454146266" fill="#666600" stroke="none" stroke-width="1.00499" stroke-linecap="round"/><path d="M189.51948,108.71101c1.83087,1.84736 2.96862,4.40447 2.97966,7.23046c0.01122,2.82602 -1.10641,5.39205 -2.92274,7.25359c-1.81491,1.86166 -4.32833,3.01887 -7.10594,3.0298c-2.77762,0.01093 -5.3001,-1.12649 -7.12962,-2.97384c-1.83079,-1.84725 -2.96862,-4.40447 -2.97966,-7.23046c-0.01114,-2.82591 1.1066,-5.39202 2.92274,-7.25359c1.81491,-1.86166 4.32833,-3.01887 7.10603,-3.02969c2.77773,-0.01101 5.3001,1.12649 7.12954,2.97374z" data-paper-data="{&quot;origPos&quot;:null,&quot;index&quot;:null}" id="ID0.22436008881777525" fill="#666600" stroke="none" stroke-width="1.00499" stroke-linecap="butt"/><path d="M341.97528,228.94327c-3.19654,3.45124 -7.77517,5.76333 -12.97812,6.11486c-5.20293,0.35152 -10.051,-1.32385 -13.68267,-4.31368c-3.63001,-2.98855 -6.0439,-7.29304 -6.37544,-12.20136c-0.33155,-4.90832 1.48129,-9.49837 4.67634,-12.94799c3.19662,-3.45114 7.77528,-5.76341 12.97812,-6.11486c5.20293,-0.35152 10.051,1.32385 13.68267,4.31368c3.63012,2.98847 6.0439,7.29304 6.37544,12.20136c0.33173,4.90835 -1.48129,9.49837 -4.67634,12.94799z" data-paper-data="{&quot;origPos&quot;:null,&quot;index&quot;:null}" id="ID0.07061211299151182" fill="#ffd499" stroke="#000000" stroke-width="2.11469" stroke-linecap="butt"/><path d="M262.15656,74.33698c2.26622,2.05947 3.67386,4.91188 3.68632,8.06485c0.01236,3.15305 -1.37287,6.01654 -3.6228,8.09366c-2.24858,2.07847 -5.36061,3.37084 -8.80032,3.38436c-3.43979,0.01341 -6.56185,-1.25439 -8.82666,-3.3151c-2.26622,-2.05947 -3.67386,-4.91188 -3.68621,-8.06493c-0.01236,-3.15305 1.37276,-6.01646 3.62269,-8.09358c2.2486,-2.07866 5.36061,-3.37084 8.80032,-3.38436c3.43982,-0.0136 6.56188,1.2542 8.82666,3.3151z" data-paper-data="{&quot;origPos&quot;:null,&quot;index&quot;:null}" id="ID0.2688980521634221" fill="#525200" stroke="none" stroke-width="1.02694" stroke-linecap="butt"/><path d="M184.7612,96.79303c2.26622,2.05947 3.67386,4.91188 3.68632,8.06485c0.01236,3.15305 -1.37287,6.01654 -3.6228,8.09366c-2.24858,2.07847 -5.36061,3.37084 -8.80032,3.38436c-3.43979,0.01341 -6.56185,-1.25439 -8.82666,-3.3151c-2.26622,-2.05947 -3.67386,-4.91188 -3.68621,-8.06493c-0.01236,-3.15305 1.37276,-6.01646 3.62269,-8.09358c2.2486,-2.07866 5.36061,-3.37084 8.80032,-3.38436c3.43982,-0.0136 6.56188,1.2542 8.82666,3.3151z" data-paper-data="{&quot;origPos&quot;:null,&quot;index&quot;:null}" id="ID0.2688980521634221" fill="#525200" stroke="none" stroke-width="1.02694" stroke-linecap="butt"/><path d="M191.21468,87.34725c0.61809,0.56169 1.00192,1.33952 1.00528,2.1996c0.00339,0.85987 -0.37434,1.64073 -0.988,2.20726c-0.61322,0.56689 -1.46196,0.91932 -2.40011,0.92303c-0.93815,0.00371 -1.7895,-0.34207 -2.40723,-0.90418c-0.61801,-0.56158 -1.00192,-1.33952 -1.00539,-2.19951c-0.00339,-0.85987 0.37444,-1.64081 0.98811,-2.20734c0.61322,-0.56689 1.46196,-0.91932 2.4,-0.92295c0.93815,-0.00371 1.78961,0.34199 2.40734,0.9041z" data-paper-data="{&quot;origPos&quot;:null,&quot;index&quot;:null}" id="ID0.2688980521634221" fill="#525200" stroke="none" stroke-width="0.28008" stroke-linecap="butt"/><g id="ID0.8685846459120512" stroke-linecap="butt"><path d="M297.58943,370.82471c4.4095,-0.64754 7.82083,0.07944 9.18531,2.33407c1.36436,2.25458 0.42598,5.61393 -2.19308,9.21993c-2.61746,3.60634 -6.91593,7.45832 -12.2711,10.699c-5.35509,3.24085 -10.76154,5.26206 -15.1705,5.90792c-4.40945,0.64741 -7.82083,-0.07944 -9.18531,-2.33407c-1.36448,-2.25463 -0.42592,-5.61406 2.19308,-9.21993c2.61734,-3.6064 6.91593,-7.45832 12.27102,-10.69918c5.35516,-3.24067 10.76149,-5.26193 15.17057,-5.90774z" id="ID0.19497378217056394" fill="#c90101" stroke="#000000" stroke-width="3.54063"/><path d="M291.65486,377.15094c3.33683,-0.29781 5.98462,0.47873 7.14716,2.39961c1.16242,1.92083 0.62204,4.62668 -1.18962,7.44477c-1.81112,2.81889 -4.89485,5.75047 -8.81908,8.12527c-3.92415,2.37496 -7.95178,3.74673 -11.28912,4.04361c-3.33683,0.29781 -5.98474,-0.47878 -7.14716,-2.39961c-1.16242,-1.92083 -0.62216,-4.62673 1.18962,-7.44477c1.81112,-2.81889 4.89472,-5.75053 8.81895,-8.12531c3.92428,-2.37491 7.95178,-3.74673 11.28924,-4.04356z" id="ID0.13423143420368433" fill="#ff0202" stroke="none" stroke-width="0.93464"/><path d="M298.03047,370.27573c4.4095,-0.64754 7.82083,0.07944 9.18531,2.33407c1.36436,2.25458 0.42598,5.61393 -2.19308,9.21993c-2.61746,3.60634 -6.91593,7.45832 -12.2711,10.699c-5.35509,3.24085 -10.76154,5.26206 -15.1705,5.90792c-4.40945,0.64741 -7.82083,-0.07944 -9.18531,-2.33407c-1.36448,-2.25463 -0.42592,-5.61406 2.19308,-9.21993c2.61734,-3.6064 6.91593,-7.45832 12.27102,-10.69918c5.35516,-3.24067 10.76149,-5.26193 15.17057,-5.90774z" id="ID0.19497378217056394" fill="none" stroke="#000000" stroke-width="3.54063"/></g><g data-paper-data="{&quot;origPos&quot;:null,&quot;origRot&quot;:0}" id="ID0.8721039635129273" stroke-linecap="butt"><path d="M209.97206,340.42575c2.71008,3.53814 3.73371,6.87248 2.42714,9.16116c-1.30659,2.28854 -4.69832,3.10217 -9.12285,2.56717c-4.42405,-0.53344 -9.88018,-2.4163 -15.31603,-5.51977c-5.43594,-3.10332 -9.83114,-6.84461 -12.53949,-10.38309c-2.70995,-3.53816 -3.73371,-6.87248 -2.42714,-9.16116c1.30658,-2.28868 4.69846,-3.10219 9.12285,-2.56717c4.42404,0.53331 9.88018,2.4163 15.31614,5.51962c5.43582,3.10347 9.83101,6.84462 12.53937,10.38324z" id="ID0.19497378217056394" fill="#c90101" stroke="#000000" stroke-width="3.54063"/><path d="M201.5583,338.31643c1.88287,2.77091 2.4919,5.46216 1.37875,7.41209c-1.11316,1.94979 -3.74032,2.79341 -7.08374,2.58076c-3.34387,-0.21178 -7.40505,-1.48078 -11.38844,-3.75495c-3.98349,-2.27403 -7.14071,-5.12631 -9.02301,-7.89811c-1.88287,-2.77091 -2.49191,-5.4623 -1.37875,-7.41209c1.11316,-1.94979 3.7403,-2.79355 7.08374,-2.58076c3.34387,0.21178 7.40504,1.48064 11.38841,3.75482c3.98351,2.27416 7.14071,5.12631 9.02302,7.89825z" id="ID0.13423143420368433" fill="#ff0202" stroke="none" stroke-width="0.93464"/><path d="M209.77122,340.45047c2.71008,3.53814 3.73371,6.87248 2.42714,9.16116c-1.30659,2.28854 -4.69832,3.10217 -9.12285,2.56717c-4.42405,-0.53344 -9.88018,-2.4163 -15.31603,-5.51977c-5.43594,-3.10332 -9.83114,-6.84461 -12.53949,-10.38309c-2.70995,-3.53816 -3.73371,-6.87248 -2.42714,-9.16116c1.30658,-2.28868 4.69846,-3.10219 9.12285,-2.56717c4.42404,0.53331 9.88018,2.4163 15.31614,5.51962c5.43582,3.10347 9.83101,6.84462 12.53937,10.38324z" id="ID0.19497378217056394" fill="none" stroke="#000000" stroke-width="3.54063"/></g></g></g></svg>