<svg version="1.1" xmlns="http://www.w3.org/2000/svg" xmlns:xlink="http://www.w3.org/1999/xlink" width="397.16924" height="399.2215" viewBox="0,0,397.16924,399.2215"><g transform="translate(-52.73282,19.61073)"><g data-paper-data="{&quot;isPaintingLayer&quot;:true}" fill-rule="nonzero" stroke-linejoin="miter" stroke-miterlimit="10" stroke-dasharray="" stroke-dashoffset="0" style="mix-blend-mode: normal"><g data-paper-data="{&quot;index&quot;:null}" stroke="none" stroke-width="0" stroke-linecap="butt"><path d="M426.58472,15.94928c-8.05703,9.27763 -16.57941,15.06971 -19.03525,12.93697c-2.45584,-2.13274 2.08482,-11.38266 10.14185,-20.66032c8.05704,-9.27765 14.10013,-16.15171 19.03525,-12.93699c5.111,3.32929 -2.08481,11.38268 -10.14184,20.66034z" fill="#a6a6a6"/><path d="M402.04141,22.5383c-2.91539,-1.44233 -0.86163,-11.53991 4.58718,-22.55357c5.44881,-11.01367 9.55701,-19.19256 15.14471,-17.33042c5.78685,1.92849 0.86162,11.53991 -4.58718,22.55357c-5.44881,11.01367 -12.22932,18.77275 -15.14471,17.33041z" fill="#a6a6a6"/><g data-paper-data="{&quot;origRot&quot;:0,&quot;index&quot;:null}" fill="#e5e5e5"><path d="M410.08132,1.9693c0,0 16.08486,-27.02124 25.88889,-17.50749c5.38043,5.22113 -20.41218,31.12015 -20.57326,33.59433c-0.18219,2.79844 3.90947,11.86087 7.59839,14.19103c8.59632,5.42999 16.10303,2.21273 15.22562,9.07512c-2.89856,22.67046 -51.21401,6.85973 -61.66647,1.24582c-9.52297,-5.11467 33.52684,-40.59881 33.52684,-40.59881z" data-paper-data="{&quot;origPos&quot;:null}"/></g></g><g data-paper-data="{&quot;index&quot;:null}"><g><g data-paper-data="{&quot;origPos&quot;:null}" fill="none" stroke="none" stroke-width="1" stroke-linecap="butt" font-family="sans-serif" font-weight="normal" font-size="12" text-anchor="start"/><g data-paper-data="{&quot;origPos&quot;:null,&quot;origRot&quot;:0}"><path d="M393.40907,82.22494c-10.36298,6.16295 -12.65201,0.7644 -37.40041,12.69817c-18.14927,8.75164 -30.685,10.62711 -41.82472,-8.94907c-10.17016,-20.07564 -1.92293,-29.38234 16.11052,-39.18114c26.77274,-14.54746 16.69108,-16.32237 33.22028,-24.08478c16.89018,-7.93192 26.57748,-6.90606 39.60648,16.15686c11.82319,24.45416 7.73406,32.98447 -9.71216,43.35994z" data-paper-data="{&quot;index&quot;:null,&quot;origPos&quot;:null}" fill="#e50000" stroke="none" stroke-width="0" stroke-linecap="butt"/><path d="M407.9409,54.29885c2.54284,10.8206 1.4918,18.61872 -15.79482,28.67734c-7.15422,4.16286 -15.21782,3.29515 -27.42335,8.12241c-13.28526,5.25427 -23.74582,9.90779 -28.29071,12.3573" data-paper-data="{&quot;origPos&quot;:null}" fill="none" stroke="#8d0000" stroke-width="2" stroke-linecap="round"/></g></g><g data-paper-data="{&quot;origRot&quot;:0}"><path d="M291.31012,77.21323c28.85431,-29.12145 31.60838,-27.93848 48.16321,-11.02441c17.28899,17.66418 17.0368,20.44512 -12.22395,48.73086c-31.5533,30.50187 -46.79001,32.93815 -58.46823,20.4598c-12.31398,-13.15771 -8.57304,-26.77629 22.52893,-58.16623z" data-paper-data="{&quot;origPos&quot;:null,&quot;index&quot;:null}" fill="#e50000" stroke="none" stroke-width="0" stroke-linecap="butt"/><path d="M346.08694,97.32495c0,0 -18.09097,19.17445 -41.54424,37.17644" data-paper-data="{&quot;origPos&quot;:null}" fill="none" stroke="#8d0000" stroke-width="2" stroke-linecap="round"/></g></g><g data-paper-data="{&quot;index&quot;:null}" stroke="none" stroke-width="0" stroke-linecap="butt"><path d="M82.27079,332.95283l4.32696,-6.26133l67.5164,46.65793l-4.32696,6.26133z" data-paper-data="{&quot;origPos&quot;:null}" fill="#585858"/><path d="M92.81607,318.80953c0,0 35.02774,-8.51066 44.29002,-6.05375c10.87489,2.88466 12.84323,3.91633 20.69778,9.17487c7.14031,4.78034 13.57833,11.61995 12.51516,19.00299c-4.35696,18.76984 -17.02436,34.28446 -17.02436,34.28446l-67.86583,-46.76949z" data-paper-data="{&quot;origPos&quot;:null}" fill="#bebebe"/><path d="M92.07783,319.22428c0,0 36.6066,-10.25636 43.48003,-9.36923c5.52238,0.71277 25.69531,14.83339 25.69531,14.83339l-25.82296,24.05763l-43.35239,-29.52181z" data-paper-data="{&quot;origPos&quot;:null}" fill="#7f7f7f"/></g><path d="M207.88073,317.50443c-14.15435,17.76756 -11.97573,19.71841 -18.45868,28.86271c-9.49666,13.39517 -14.90317,25.73072 -36.40659,9.30641c-10.50639,-8.02481 -1.65555,-25.90148 -21.35583,-41.13098c-6.73277,-5.20483 -19.72658,1.06974 -12.75484,-7.90189c3.93857,-5.06839 10.04902,-9.96257 19.95729,-9.57115c11.10695,-4.49934 18.81085,-11.52118 31.06776,-19.18975c11.63986,-7.2825 15.43905,-8.61321 33.74857,7.23906c18.89081,16.35554 10.06316,23.01215 4.20232,32.38559z" data-paper-data="{&quot;index&quot;:null}" fill="#101099" stroke="none" stroke-width="0" stroke-linecap="butt"/><path d="M178.18977,305.81677c-16.00766,-19.42528 -19.77522,-20.83175 14.15171,-48.78966c39.52988,-32.57512 42.45894,-31.20518 58.82363,-11.34661c16.43789,19.94736 15.75931,23.48532 -23.21834,55.64747c-33.44255,27.59494 -34.42908,23.08925 -49.75701,4.48882z" data-paper-data="{&quot;index&quot;:null,&quot;origRot&quot;:0}" fill="#101099" stroke="none" stroke-width="0" stroke-linecap="butt"/><g stroke="none" stroke-width="0" stroke-linecap="butt"><path d="M404.02904,338.07021l-6.70723,-3.59721l45.87302,-85.53319l6.70723,3.59721z" data-paper-data="{&quot;origPos&quot;:null}" fill="#585858"/><path d="M445.01873,250.00351l-46.13371,85.79313c0,0 -31.5939,-17.07702 -33.45932,-22.12226c-1.97142,-5.33191 2.65187,-15.76385 6.92755,-24.47301c4.34971,-8.86001 6.47407,-11.76251 12.09781,-19.87382c2.37121,-3.56174 50.18102,-24.99648 50.18102,-24.99648z" data-paper-data="{&quot;origPos&quot;:null}" fill="#bebebe"/><path d="M434.71499,244.05559l-16.79031,31.52137l-45.70539,13.61472c0,0 10.39359,-20.49199 13.97365,-22.94147c3.40428,-2.3292 48.52205,-22.19462 48.52205,-22.19462z" data-paper-data="{&quot;origPos&quot;:null}" fill="#7f7f7f"/></g><path d="M316.21178,272.51392c9.05926,-22.46026 13.04708,-23.00965 26.72752,-21.84055c14.40567,1.23108 24.46482,3.96418 36.40114,2.8999c8.63811,-4.86932 16.30854,-3.30241 22.12584,-0.5895c10.29733,4.80215 -4.12801,5.14772 -7.74416,12.85122c-10.58095,22.54068 5.45169,34.40942 -0.23564,46.34408c-11.64027,24.4266 -22.07971,15.91694 -36.64218,8.33066c-9.94117,-5.17883 -8.8927,-7.90883 -29.59479,-17.26056c-9.49215,-5.66658 -20.38459,-7.56192 -11.03772,-30.73523z" data-paper-data="{&quot;index&quot;:null}" fill="#101099" stroke="none" stroke-width="0" stroke-linecap="butt"/><path d="M345.62605,279.06827c-5.41175,24.58248 -4.19422,28.41529 -47.12844,18.96347c-50.02469,-11.01274 -50.7536,-14.16311 -45.22115,-39.29391c5.55722,-25.24318 8.76021,-26.8919 58.11921,-16.05897c42.34967,9.29457 39.41234,12.85073 34.2304,36.38941z" data-paper-data="{&quot;index&quot;:null,&quot;origRot&quot;:0}" fill="#101099" stroke="none" stroke-width="0" stroke-linecap="butt"/><path d="M167.64702,137.62282c9.80969,-22.07093 43.32302,-38.59803 60.83382,-29.21865c17.51078,9.37938 17.86797,30.92616 8.05828,52.99709c-9.80969,22.07093 -23.97968,50.89344 -53.76408,40.94746c-29.7844,-9.94596 -24.93773,-42.65498 -15.12804,-64.72589z" data-paper-data="{&quot;origRot&quot;:0}" fill="#8d0000" stroke="none" stroke-width="0" stroke-linecap="butt"/><g><path d="M253.55671,279.1965c-40.84957,-0.02632 -49.5641,-19.73598 -49.5641,-38.17546c0,-18.43948 2.9067,-15.47213 50.69424,-17.10265c42.31577,-1.50056 45.66318,1.73522 45.6894,18.64646c0.026,14.7536 -17.24454,36.28269 -46.81952,36.63165z" data-paper-data="{&quot;origPos&quot;:null}" fill="#101099" stroke="none" stroke-width="0" stroke-linecap="butt"/><g data-paper-data="{&quot;origPos&quot;:null}"><g data-paper-data="{&quot;origPos&quot;:null}"><g data-paper-data="{&quot;origPos&quot;:null}" fill="#e50000" stroke="none" stroke-width="0" stroke-linecap="butt"><path d="M303.41143,234.78605c-2.83416,4.67423 -5.65558,3.12557 -15.35446,1.39433c-13.06922,-1.96974 -9.39971,-1.69879 -22.48864,-1.69879c-14.33286,0 -31.18873,1.73851 -44.87235,6.20643c-8.89962,2.90589 -15.56941,0.69175 -19.22197,-2.78996c-4.47645,-5.01805 -4.80135,-9.35746 1.26596,-14.49903c4.25908,-7.11212 4.63817,-14.32787 5.7213,-22.75401c0.89887,-6.9927 32.73327,-12.60195 47.96918,-13.1147c15.23591,-0.51274 35.80451,1.56057 37.70902,17.34346c0.73002,10.01833 1.04002,11.20047 5.39214,17.27736c5.0791,3.9355 6.55899,6.68595 3.87983,12.63487z" data-paper-data="{&quot;origPos&quot;:null}"/><path d="M293.81267,134.5215c0,26.83272 2.62715,70.79916 -2.87977,82.15035c-4.61511,9.51286 -24.3155,9.25164 -40.39194,9.25164c-21.3954,0 -35.16446,-1.3538 -39.81714,-7.60687c-4.96424,-6.67184 -2.86335,-63.54848 -2.86335,-85.28118c0,-18.83407 20.01996,-27.53443 43.57398,-27.53443c23.55401,0 42.37824,10.18647 42.37824,29.02052z" data-paper-data="{&quot;origPos&quot;:null}"/></g><path d="M267.55104,132.25098v84.2281" data-paper-data="{&quot;origPos&quot;:null}" fill="none" stroke="#000000" stroke-width="2" stroke-linecap="round"/><path d="M216.3506,224.57044c0,0 28.33665,-7.10516 52.5873,-6.94531c20.21667,0.13326 26.9619,4.93108 26.9619,4.93108" data-paper-data="{&quot;origPos&quot;:null}" fill="none" stroke="#8d0000" stroke-width="2" stroke-linecap="round"/></g><path d="M289.55919,118.35506c-0.61158,6.23168 -11.34871,15.56022 -27.26305,15.89849c-20.72129,0.44044 -53.42828,-4.91153 -52.65334,-20.43122c0.27797,-5.56707 4.98549,-10.01267 43.67254,-9.6744c30.3467,0.26533 36.24388,3.55849 36.24388,14.20715z" data-paper-data="{&quot;origPos&quot;:null}" fill="#8d0000" stroke="none" stroke-width="0" stroke-linecap="butt"/></g></g><g><path d="M254.65322,6.39428c30.71304,0 54.39309,25.21286 54.39309,55.8138c0,30.60094 -23.68005,57.03156 -54.39309,57.03156c-30.71304,0 -56.8286,-25.21286 -56.8286,-55.8138c0,-30.60094 26.11556,-57.03156 56.8286,-57.03156z" data-paper-data="{&quot;origPos&quot;:null}" fill="#661800" stroke="none" stroke-width="0" stroke-linecap="butt"/><g data-paper-data="{&quot;origPos&quot;:null}"><path d="M208.16103,68.62515c0,-28.20694 21.03155,-51.07318 49.44817,-51.07318c28.41661,0 48.44585,22.36877 48.44585,50.57573c0,28.20696 -17.26262,50.75882 -45.94004,51.0732c-28.4131,-0.44274 -51.95398,-22.36879 -51.95398,-50.57575z" data-paper-data="{&quot;origPos&quot;:null}" fill="#ffceb3" stroke="none" stroke-width="0" stroke-linecap="butt"/><path d="M269.31695,74.01916c0,13.56304 -7.33436,24.55807 -16.38172,24.55807c-9.04738,0 -16.3817,-10.99504 -16.3817,-24.55807c0,-13.56304 5.16166,-24.55807 16.3817,-24.55807c11.22004,0 16.38172,10.99504 16.38172,24.55807z" data-paper-data="{&quot;origPos&quot;:null}" fill="#ffffff" stroke="none" stroke-width="0" stroke-linecap="butt"/><path d="M305.26947,74.01916c0,13.56304 -4.67322,24.55807 -10.43791,24.55807c-5.76469,0 -10.43789,-10.99504 -10.43789,-24.55807c0,-13.56304 3.28885,-24.55807 10.43789,-24.55807c7.14906,0 10.43791,10.99504 10.43791,24.55807z" data-paper-data="{&quot;origPos&quot;:null}" fill="#ffffff" stroke="none" stroke-width="0" stroke-linecap="butt"/><g data-paper-data="{&quot;origPos&quot;:null}"><path d="M298.47498,104.78344c0.25538,2.51814 -18.90438,1.71876 -18.90438,1.71876l5.28147,-23.27072c0,0 13.01594,19.22869 13.62291,21.55196z" data-paper-data="{&quot;origPos&quot;:null}" fill="#ffceb3" stroke="none" stroke-width="0" stroke-linecap="butt"/><path d="M285.90746,84.26919c0,0 12.05197,17.09853 12.07474,20.96159c0.01238,2.10158 -17.47674,1.77395 -17.47674,1.77395" data-paper-data="{&quot;origPos&quot;:null}" fill="none" stroke="#b37959" stroke-width="2" stroke-linecap="round"/></g></g><path d="M237.32585,111.10311l-3.07363,-12.2903c0,0 7.86157,-7.42339 13.28237,-4.38775c4.48014,2.50888 16.76532,13.79438 16.76532,13.79438z" fill="#ffffff" stroke="#b37959" stroke-width="2" stroke-linecap="round"/><path d="M232.39534,18.23356c13.67515,0 11.29807,12.69035 11.29807,26.92594c0,14.23558 -9.86814,39.57706 -34.09716,34.70604c-8.87703,-1.78168 -9.44737,-18.43678 -6.08878,-32.27053c3.65327,-15.04744 15.21271,-29.36145 28.88786,-29.36145z" data-paper-data="{&quot;origPos&quot;:null}" fill="#661800" stroke="none" stroke-width="0" stroke-linecap="butt"/><path d="M290.8443,81.62299c0,-1.76826 1.43346,-3.20172 3.20173,-3.20172c1.76827,0 3.20173,1.43346 3.20173,3.20172c0,1.76826 -1.43346,3.20172 -3.20173,3.20172c-1.76826,0 -3.20173,-1.43346 -3.20173,-3.20172z" fill="none" stroke="#000000" stroke-width="2" stroke-linecap="butt"/><path d="M254.53518,0.09897c11.77852,-6.77709 29.69171,-9.87302 29.69171,-9.87302c0,0 -2.49847,6.91113 -3.21993,13.64018c-0.815,7.60137 0.84784,6.42125 0.84784,13.43101c0,11.87285 -39.86405,11.30621 -39.99792,1.43318c-0.12699,-9.36556 2.17832,-12.58993 12.67826,-18.63136z" data-paper-data="{&quot;origPos&quot;:null}" fill="#661800" stroke="none" stroke-width="0" stroke-linecap="butt"/><path d="M310.24947,32.79666c0,12.42984 9.50302,16.85433 19.13494,24.71096c5.05032,4.11946 15.56397,4.42638 19.81347,5.73054c-4.37572,13.68626 -28.6447,19.84615 -42.56939,21.16577c-16.98079,0.82548 -34.70096,-5.75867 -49.75732,-13.65388c-17.17387,-12.65883 -19.68705,-27.34056 -19.68705,-44.04217c0,-16.7016 12.06688,-24.55807 31.45869,-24.55807c19.39179,0 41.60665,13.94523 41.60665,30.64685z" data-paper-data="{&quot;origPos&quot;:null}" fill="#661800" stroke="none" stroke-width="0" stroke-linecap="butt"/><path d="M232.48071,77.25685c2.02793,9.53876 -1.39437,18.34851 -7.64389,19.67717c-6.24954,1.32865 -12.95972,-5.32697 -14.98765,-14.86573c-2.02793,-9.53876 1.39437,-18.34851 7.64389,-19.67717c6.24954,-1.32863 12.95972,5.32697 14.98765,14.86573z" data-paper-data="{&quot;origPos&quot;:null,&quot;origRot&quot;:0}" fill="#ffceb3" stroke="none" stroke-width="0" stroke-linecap="butt"/><path d="M221.87329,46.25889c0,-6.83756 3.51337,-12.88791 10.35092,-12.88791c6.83756,0 10.09722,5.03556 10.09722,11.87312c0,9.33812 -0.85271,17.49992 -5.30958,25.70581c-4.51185,8.30712 -14.67854,19.95691 -16.86372,18.18414c-1.38,-1.11954 2.89686,-6.31958 3.64219,-22.63327c0.39352,-7.37213 -1.91703,-13.40432 -1.91703,-20.24188z" data-paper-data="{&quot;origPos&quot;:null}" fill="#661800" stroke="none" stroke-width="0" stroke-linecap="butt"/><path d="M267.81789,53.1924c0,0 0.05421,14.65372 -0.61978,14.70635c-2.1877,0.17081 -15.56939,-9.78895 -24.20921,-24.77906c-6.55323,-11.36988 -6.88801,-41.25752 -6.88801,-41.25752" fill="none" stroke="#000000" stroke-width="2.5" stroke-linecap="round"/><path d="M311.87686,5.55645c0,0 -0.24483,29.88764 -5.03686,41.25752c-6.31784,14.99011 -16.10318,24.94987 -17.70292,24.77906c-0.49287,-0.05263 -0.45321,-14.70635 -0.45321,-14.70635" data-paper-data="{&quot;index&quot;:null}" fill="none" stroke="#000000" stroke-width="2.5" stroke-linecap="round"/><path d="M256.28991,79.08586c0,-1.76826 1.43346,-3.20173 3.20173,-3.20173c1.76826,0 3.20173,1.43346 3.20173,3.20173c0,1.76826 -1.43346,3.20173 -3.20173,3.20173c-1.76826,0 -3.20173,-1.43346 -3.20173,-3.20173z" fill="none" stroke="#000000" stroke-width="2" stroke-linecap="butt"/></g><g data-paper-data="{&quot;index&quot;:null}" stroke="none" stroke-width="0" stroke-linecap="butt"><path d="M64.58765,13.94927c-8.05703,-9.27766 -15.25283,-17.33104 -10.14184,-20.66033c4.93512,-3.21472 10.97821,3.65934 19.03525,12.93699c8.05703,9.27766 12.59769,18.52759 10.14185,20.66032c-2.45584,2.13274 -10.97823,-3.65934 -19.03525,-12.93697z" fill="#a6a6a6"/><path d="M89.13097,20.53829c-2.91539,1.44234 -9.6959,-6.31674 -15.14471,-17.33041c-5.4488,-11.01365 -10.37403,-20.62507 -4.58719,-22.55356c5.58769,-1.86214 9.6959,6.31675 15.14471,17.33042c5.44881,11.01366 7.50256,21.11124 4.58718,22.55357z" fill="#a6a6a6"/><g data-paper-data="{&quot;origRot&quot;:0,&quot;index&quot;:null}" fill="#e5e5e5"><path d="M114.61789,40.56811c-10.45247,5.61391 -58.76791,21.42464 -61.66648,-1.24582c-0.8774,-6.86238 6.6293,-3.64512 15.22563,-9.07512c3.68892,-2.33017 7.78058,-11.39259 7.59839,-14.19103c-0.16108,-2.47417 -25.95369,-28.3732 -20.57326,-33.59432c9.80403,-9.51375 25.8889,17.50749 25.8889,17.50749c0,0 43.04981,35.48415 33.52684,40.59881z" data-paper-data="{&quot;origPos&quot;:null}"/></g></g><g><g><g data-paper-data="{&quot;origPos&quot;:null}" fill="none" stroke="none" stroke-width="1" stroke-linecap="butt" font-family="sans-serif" font-weight="normal" font-size="12" text-anchor="start"/><g data-paper-data="{&quot;origPos&quot;:null,&quot;origRot&quot;:0}"><path d="M97.76332,80.22492c-17.44622,-10.37547 -21.53535,-18.90579 -9.71216,-43.35994c13.02899,-23.06292 22.7163,-24.08878 39.60648,-16.15686c16.5292,7.76241 6.44755,9.53732 33.22028,24.08478c18.03346,9.7988 26.28069,19.1055 16.11052,39.18114c-11.13971,19.57617 -23.67544,17.7007 -41.82472,8.94907c-24.74841,-11.93377 -27.03744,-6.53522 -37.40041,-12.69817z" data-paper-data="{&quot;index&quot;:null,&quot;origPos&quot;:null}" fill="#e50000" stroke="none" stroke-width="0" stroke-linecap="butt"/><path d="M154.74036,101.4559c-4.54489,-2.44951 -15.00545,-7.10303 -28.29071,-12.3573c-12.20553,-4.82726 -20.26912,-3.95955 -27.42335,-8.12241c-17.28662,-10.05862 -18.33767,-17.85674 -15.79482,-28.67734" data-paper-data="{&quot;origPos&quot;:null}" fill="none" stroke="#8d0000" stroke-width="2" stroke-linecap="round"/></g></g><g data-paper-data="{&quot;origRot&quot;:0}"><path d="M199.86229,75.21326c31.10197,31.38994 34.84291,45.00852 22.52893,58.16623c-11.67822,12.47835 -26.91493,10.04207 -58.46823,-20.4598c-29.26075,-28.28574 -29.51293,-31.06668 -12.22395,-48.73086c16.55482,-16.91407 19.3089,-18.09704 48.16321,11.02441z" data-paper-data="{&quot;origPos&quot;:null,&quot;index&quot;:null}" fill="#e50000" stroke="none" stroke-width="0" stroke-linecap="butt"/><path d="M186.62968,132.50139c-23.45327,-18.00199 -41.54425,-37.17644 -41.54425,-37.17644" data-paper-data="{&quot;origPos&quot;:null}" fill="none" stroke="#8d0000" stroke-width="2" stroke-linecap="round"/></g></g></g></g></svg>