<svg version="1.1" xmlns="http://www.w3.org/2000/svg" xmlns:xlink="http://www.w3.org/1999/xlink" width="224.46326" height="428.21883" viewBox="0,0,224.46326,428.21883"><g transform="translate(-171.29215,-9.57772)"><g data-paper-data="{&quot;isPaintingLayer&quot;:true}" fill-rule="nonzero" stroke-linejoin="miter" stroke-miterlimit="10" stroke-dasharray="" stroke-dashoffset="0" style="mix-blend-mode: normal"><path d="M246.92717,237.03967c0,0 32.20993,13.14472 34.62037,16.7896c3.42427,5.17786 -17.42048,-2.93948 -17.42048,-2.93948c0,0 2.68248,3.37784 7.12419,5.96384c6.34769,3.69567 16.94462,2.29516 13.45211,14.55522c-4.33301,15.21053 -43.1755,-10.35619 -48.19713,-23.25025" fill="#ffe9cc" stroke="#000000" stroke-width="2.5" stroke-linecap="round"/><path d="M236.89314,286.48119c-4.39373,-5.05293 -6.50092,134.56482 -9.91043,140.32781c-35.15474,17.28903 -53.25494,10.96413 -36.25976,-14.28033c8.07494,-28.0657 7.4192,-49.15326 4.07359,-78.16523c-3.50038,-30.35412 -7.59044,-58.46517 0.83508,-87.83584c6.65016,-23.18191 18.27762,-28.02704 42.39454,-28.02704c0,0 31.63502,4.36508 38.19303,28.06711c4.43904,16.04367 -30.45927,50.11063 -39.32605,39.91352z" fill="#ffffff" stroke="#000000" stroke-width="2.5" stroke-linecap="butt"/><path d="M216.11262,249.56324c0,0 18.15752,-5.27856 29.27756,-5.45698c15.06569,-0.24172 52.92968,4.138 52.92968,4.138l87.06144,-13.57821c0,0 1.60471,-6.42785 4.93485,-1.16922c3.33016,5.25864 4.76785,8.95988 3.97674,15.2415c-0.99753,7.92052 -9.4303,27.51664 -9.4303,27.51664l-137.03536,14.18838" fill="#ffffff" stroke="#000000" stroke-width="2.5" stroke-linecap="round"/><path d="M249.09527,173.92489c0,0 -3.21621,2.47721 -6.31981,11.35626c-2.72513,7.79637 -4.63152,22.91981 -4.63152,22.91981l24.59757,32.4956l-12.20588,6.51796l-27.30309,-33.64421c0,0 -2.74176,-11.24981 -1.853,-21.12374c0.98277,-10.91869 3.71576,-19.32777 3.71576,-19.32777" fill="#ffe9cc" stroke="#000000" stroke-width="2.5" stroke-linecap="round"/><path d="M249.8896,175.66685c-7.03371,-1.00392 -27.75346,12.53605 -24.15151,-14.55781c1.03422,-7.77951 -5.29845,-11.44844 2.54692,-11.24736c12.63224,0.32376 2.21425,3.97894 11.79044,-4.26577c1.5602,-1.34328 2.38674,-14.92887 3.65967,-16.54698c3.81882,-4.85435 5.55838,-4.45598 15.01774,-3.50535c0,0 4.52454,-0.33814 6.14685,6.10074c0.65011,2.58025 -3.51679,12.23476 -0.54762,17.16374c1.83869,3.05232 7.04771,-1.63077 19.31875,2.38706c-0.9341,-0.31888 5.16137,8.86167 2.03795,11.95959c-7.52995,7.46846 -28.03298,13.62345 -35.81919,12.51214z" data-paper-data="{&quot;origRot&quot;:0}" fill="#ffe9cc" stroke="#000000" stroke-width="2.5" stroke-linecap="butt"/><path d="M200.08349,239.97908c0,0 22.52533,-40.76107 22.48176,-55.05753c-0.01246,-4.0854 -2.42349,-16.62931 -2.27384,-27.33365c0.14964,-10.70433 -1.07262,-13.91739 2.81825,-11.60877c10.12668,-2.1898 33.01943,0.83419 33.01943,0.83419c0,0 10.3878,15.03394 23.24759,16.32631c14.35414,1.44252 1.23934,-10.61973 4.31535,-12.00635c0.79682,0.47282 0.88001,-1.57898 1.91518,-1.17627c0.18995,0.07389 13.2261,3.48037 16.91041,7.39665c3.00816,3.19753 -6.94332,26.34805 -7.64782,33.15127c-2.21246,21.36638 -9.0207,59.21977 -9.0207,59.21977c0,0 -16.06799,6.01101 -28.71298,4.57414c-4.215,-0.47897 -57.05265,-14.31982 -57.05265,-14.31982z" data-paper-data="{&quot;origRot&quot;:0}" fill="#fffeae" stroke="#000000" stroke-width="2.5" stroke-linecap="butt"/><path d="M236.13991,225.8684c0.52743,0.4615 0.8615,0.94249 0.74609,1.07434c-0.11536,0.13185 -0.63646,-0.13536 -1.16389,-0.59684c-0.52743,-0.4615 -0.86148,-0.9425 -0.74609,-1.07436c0.11536,-0.13185 0.63647,0.13537 1.16389,0.59686z" data-paper-data="{&quot;origRot&quot;:0}" fill="#e7e69d" stroke="none" stroke-width="2.5" stroke-linecap="butt"/><path d="M234.44981,166.44236c0,0 -17.06166,23.78047 -23.63473,35.72034c-5.44599,9.89255 -13.0622,30.93907 -13.0622,30.93907l-17.60529,-2.67758c0,0 9.92507,-25.1555 16.54414,-37.33035c7.45752,-13.71705 25.98638,-40.89845 25.98638,-40.89845" fill="#ffe9cc" stroke="#000000" stroke-width="2.5" stroke-linecap="round"/><path d="M247.43921,163.4945l-6.99067,9.29411c0,0 -19.08795,1.93331 -24.29916,-2.21574c-4.72273,-3.76014 -11.77151,-13.91364 -11.77151,-13.91364l18.32097,-13.5219" fill="#fffeae" stroke="#000000" stroke-width="2.5" stroke-linecap="round"/><path d="M196.69636,231.89982c0,0 0.17973,15.33494 -2.45352,17.58342c-3.74076,3.19414 -3.59677,-7.85896 -4.61555,-4.18624c-0.68148,2.4567 4.51507,5.08126 4.45868,9.47315c-0.06409,4.99139 -5.67959,11.60105 -12.31028,10.93094c-15.46474,-1.56289 -9.04542,-35.17246 1.36015,-40.46042" fill="#ffe9cc" stroke="#000000" stroke-width="2.5" stroke-linecap="round"/><g stroke-linecap="butt"><path d="M271.67499,26.7432c4.28484,10.39157 -9.46098,17.00997 -26.48548,24.02983c-17.02451,7.01986 -34.56952,11.26371 -38.85439,0.87214c-4.28484,-10.39157 6.31304,-31.48349 23.33756,-38.50334c17.02451,-7.01986 37.71745,3.20981 42.00231,13.60139z" data-paper-data="{&quot;origRot&quot;:0}" fill="#2c1500" stroke="#000000" stroke-width="2.5"/><path d="M315.04771,105.02211c-4.72244,29.62231 -48.58148,42.33877 -60.52131,39.77396c-7.62362,-1.63764 -49.81232,-28.29234 -43.79438,-57.67884c10.91294,-53.28958 32.53989,-49.52226 61.34588,-44.57797c28.80597,4.94429 52.18754,4.66325 42.96981,62.48285z" data-paper-data="{&quot;origRot&quot;:0}" fill="#ffe9cc" stroke="#000000" stroke-width="2.5"/><path d="M319.40232,98.17459c-0.08259,0.4811 -2.07313,-19.26433 -1.18322,-18.94909c-15.40658,4.86394 -13.81901,4.59252 -29.86154,6.5051c-52.10589,6.21202 16.12954,-12.35077 -2.14272,-15.46535c-0.06775,-0.01154 -50.64011,10.38383 -50.70787,10.37221c-2.61162,-0.44825 -27.66199,26.36157 -29.98987,25.09566c-6.98361,-3.79777 6.39036,-69.26114 29.5917,-74.87369c29.9557,-7.24647 48.87738,-3.58559 65.79064,5.32272c26.96539,14.20283 20.4058,50.90597 18.5029,61.99248z" data-paper-data="{&quot;origRot&quot;:0}" fill="#2c1500" stroke="#000000" stroke-width="2.5"/><path d="M262.61596,94.27464c0.31097,-4.71576 2.93087,-8.3825 5.85172,-8.18989c2.92085,0.19261 5.03658,4.17162 4.72561,8.88738c-0.31097,4.71576 -2.93087,8.3825 -5.85172,8.18989c-2.92085,-0.19261 -5.03658,-4.17162 -4.72561,-8.88738z" fill="#000000" stroke="none" stroke-width="0"/><path d="M291.8469,96.63758c0.31097,-4.71576 2.93088,-8.38251 5.85173,-8.18991c2.92085,0.19261 5.03657,4.17165 4.72561,8.8874c-0.31097,4.71576 -2.93087,8.3825 -5.85172,8.18989c-2.92085,-0.19261 -5.03659,-4.17161 -4.72562,-8.88738z" fill="#000000" stroke="none" stroke-width="0"/></g><path d="M259.5,112.40379l17,7" fill="none" stroke="#000000" stroke-width="2.5" stroke-linecap="round"/></g></g></svg>