<svg xmlns="http://www.w3.org/2000/svg" xmlns:xlink="http://www.w3.org/1999/xlink" version="1.1" width="71.98822" height="29.29095" viewBox="0,0,71.98822,29.29095"><defs><radialGradient cx="213.87503" cy="179.99999" r="35.99489" gradientUnits="userSpaceOnUse" id="color-1"><stop offset="0" stop-color="#fff700"/><stop offset="1" stop-color="#fff700" stop-opacity="0"/></radialGradient></defs><g><g data-paper-data="{&quot;isPaintingLayer&quot;:true}" fill-rule="nonzero" stroke-linecap="butt" stroke-linejoin="miter" stroke-miterlimit="10" stroke-dasharray="" stroke-dashoffset="0" style="mix-blend-mode: normal"><path d="M249.86308,180.30519c-0.36117,8.08668 -16.76634,14.50559 -36.64202,14.33703c-19.87566,-0.16856 -35.69529,-6.86074 -35.3341,-14.94743c0.36117,-8.08668 16.76635,-14.50558 36.64202,-14.33703c19.87564,0.16855 35.69526,6.86074 35.33407,14.94743z" data-paper-data="{&quot;index&quot;:null,&quot;origRot&quot;:0}" fill="url(#color-1)" stroke="none" stroke-width="0" transform="matrix(1,0,0,1,-177.8809,-165.35451)"/><path d="M 34.6701 19.2127 C 34.6701 19.2127 33.4612 19.56 30.6996 20.3963 C 27.9069 21.242 23.7205 21.2581 20.9497 20.7449 C 18.5368 20.298 18.6448 19.392 19.4946 18.3808 C 20.5857 17.0825 23.0404 16.164 23.0404 16.164 C 23.0404 16.164 8.2338 15.9773 9.7043 14.3887 C 10.2871 13.759 10.8663 13.3715 14.4168 13.0903 C 19.8227 12.6622 26.203 12.4438 26.203 12.4438 C 26.203 12.4438 25.9207 11.1857 27.4009 10.0371 C 28.703 9.0268 31.4837 8.0997 35.4288 8.2105 C 38.074 8.2848 40.5191 8.9759 41.8494 9.5724 C 44.7587 10.877 44.5765 12.96 44.5765 12.96 C 44.5765 12.96 52.7655 12.774 57.9993 13.0839 C 60.857 13.2531 62.1212 13.5801 62.3385 14.143 C 62.6246 14.8837 61.7006 15.6882 57.8162 15.993 C 53.3441 16.3438 46.8187 16.1229 46.8187 16.1229 C 46.8187 16.1229 48.972 17.1561 49.8067 18.2422 C 50.5224 19.1736 49.1189 20.1599 47.0921 20.5314 C 45.4163 20.8386 41.2663 20.7961 39.2483 20.444 C 35.9793 19.8735 34.6701 19.2127 34.6701 19.2127 Z " data-paper-data="{&quot;index&quot;:null,&quot;origRot&quot;:0}" fill="#fbff00" stroke="#e3b000" stroke-width="2.5"/></g></g></svg>