<svg version="1.1" xmlns="http://www.w3.org/2000/svg" xmlns:xlink="http://www.w3.org/1999/xlink" width="350.89652" height="322.04621" viewBox="0,0,350.89652,322.04621"><g transform="translate(-48.75084,-15.45735)"><g data-paper-data="{&quot;isPaintingLayer&quot;:true}" fill-rule="nonzero" stroke-linejoin="miter" stroke-miterlimit="10" stroke-dasharray="" stroke-dashoffset="0" style="mix-blend-mode: normal"><g data-paper-data="{&quot;index&quot;:null}" stroke-linecap="butt"><g><path d="M149.87369,137.71283c-6.57731,-0.27355 -0.73278,-15.11355 5.9837,-18.60558c1.19434,-0.62097 7.66163,0.1665 8.44013,0.20218c24.02907,1.10058 28.7821,-0.29172 28.7821,-0.29172c0,0 9.61689,5.57315 10.45783,9.69783c0.59836,2.93493 -5.62695,12.55628 -5.62695,12.55628c0,0 -25.30063,-2.11797 -35.17741,-3.8868c-2.32896,-0.4171 -4.59395,0.67157 -12.85945,0.32784z" fill="#d9bb9a" stroke="#917c67" stroke-width="4"/><path d="M144.14531,135.48003c-2.69291,-0.56534 6.4907,-14.93075 6.64772,-15.67861c0.157,-0.74787 2.79772,0.22486 5.49062,0.79019c2.6929,0.56533 5.72615,0.56632 5.56915,1.31416c-0.02616,0.12459 -10.15669,13.54612 -11.16607,13.65319c-2.66574,0.28276 -4.29709,0.39223 -6.54141,-0.07895z" fill="#d9bb9a" stroke="none" stroke-width="0"/><path d="M196.17954,125.31522c10.42188,0.74219 5.99627,6.97341 5.84789,9.43976c-0.14839,2.46635 -8.67159,2.56861 -19.09347,1.82641c-10.42187,-0.7422 -12.19359,-1.77472 -19.51823,-2.52192c-4.93438,-0.50338 -11.41723,-0.45933 -16.97309,-0.26532c-9.45567,0.3302 2.79145,-12.00539 3.15622,-12.13041c0.33138,-0.1136 7.63182,2.03811 8.30047,2.1736c7.682,1.55645 17.81498,3.93237 20.26022,3.61003c5.40118,-0.71204 14.01084,-2.41766 18.01999,-2.13213z" fill="#ffdbb5" stroke="none" stroke-width="0"/></g><path d="M190.53988,145.86528c-9.62409,-1.6081 -44.06009,-6.87355 -44.06009,-6.87355c0,0 2.74966,-8.26232 4.81223,-11.66779c1.79633,-2.96592 -0.70697,-10.6475 -0.70697,-10.6475c0,0 27.60056,1.0986 35.27002,1.70929c7.62998,0.60751 28.2487,2.95526 28.2487,2.95526c0,0 7.74513,15.1424 1.14096,22.01576c-6.6042,6.87336 -15.2982,4.0803 -24.70484,2.50854z" fill="#403328" stroke="#292018" stroke-width="4"/></g><g data-paper-data="{&quot;index&quot;:null}" stroke-linecap="butt"><g fill="#d9bb9a" stroke="#917c67" stroke-width="4"><path d="M99.39873,138.87816c-2.9255,-3.16564 18.50391,-11.54881 18.50391,-11.54881c2.67501,-2.0553 8.58478,-5.34612 16.22432,-6.67118c8.15095,-1.41379 8.26026,-0.54427 10.51538,-1.26015c3.93431,-0.68701 14.05239,17.31072 11.33823,18.30714c-5.08233,0.90357 -19.12653,9.8069 -29.30331,12.42872c-12.7537,3.28572 -5.52263,1.25401 -6.04265,-0.28943c-0.50662,-1.50367 6.5429,-1.49375 5.86638,-3.96928c-0.27016,-0.98854 -2.93419,-0.21697 -7.89303,2.05988c-2.42137,1.11177 -6.12725,4.66482 -8.06046,5.35823c-4.71611,1.69166 -3.69497,-4.2038 -5.74108,-4.39709c-2.54463,-0.24037 -2.71032,-3.85637 -3.07361,-6.048c-0.35919,-2.16687 -1.56884,-3.14204 -2.33403,-3.97005z"/></g><path d="M132.58571,131.19645c-3.98062,-5.98574 -7.11668,-11.78503 -7.11668,-11.78503l22.40636,-2.66606l11.01554,20.10509l-21.34291,8.62425c0,0 -0.72711,-7.90968 -4.96232,-14.27826z" fill="#403328" stroke="#292018" stroke-width="4"/><path d="M143.33519,120.36173l8.41934,-2.19901l11.90733,15.56322l-9.34869,2.33679z" fill="#403328" stroke="none" stroke-width="0"/></g><g data-paper-data="{&quot;index&quot;:null}"><path d="M371.04294,320.08418c-1.71705,2.51321 -4.39939,2.5113 -6.26792,5.33862c-1.04942,1.58792 0.03375,3.5643 -0.62096,5.54354c-0.67849,2.05115 -3.08142,4.08553 -3.40507,4.53722c-1.74773,2.43932 -11.18833,-5.79445 -11.18833,-5.79445c0,0 -6.28167,-6.80561 -7.75047,-7.76194c-2.81142,-1.83053 -12.12473,-7.23081 -12.12473,-7.23081l15.18409,-30.28375l12.06985,2.74488c0,0 5.8914,-1.18226 8.05285,-4.90065c2.85858,-4.91771 9.4987,-13.25952 13.40291,-14.33206c8.13649,-2.23519 8.97096,-3.47146 10.05714,-1.73976c0,0 3.11989,1.90881 4.58656,3.33897c1.47776,1.44099 4.24693,5.27468 4.24693,5.27468c0,0 -19.10983,34.82496 -26.24288,45.26548z" fill="#403328" stroke="#292018" stroke-width="4" stroke-linecap="butt"/><path d="M388.82263,276.47585l2.53771,-4.4568l2.48179,2.63232c0,0 -3.26817,5.91655 -5.94252,10.9746c-2.34654,4.43805 -18.99769,35.92105 -19.60917,33.34753c-0.0724,-0.30471 -4.67187,1.35056 -6.79902,4.87755c-1.12965,1.87304 -0.46495,4.22198 -0.61588,6.05838c-0.1318,1.60373 -1.14434,2.83013 -1.14434,2.83013c0,0 -4.50564,-1.03787 -3.72272,-3.01787c1.41792,-3.58594 9.41351,-14.12221 16.1846,-25.21873c7.82848,-12.82939 16.62954,-28.02716 16.62954,-28.02716z" fill="#775f4a" stroke="none" stroke-width="0" stroke-linecap="butt"/><path d="M357.04292,287.94286c0,0 -0.64133,6.45871 -2.06408,9.55084c-1.72457,3.74809 -3.38276,4.3221 -3.38276,4.3221l-10.55379,-2.54928l13.57522,-9.98667" fill="none" stroke="#292018" stroke-width="4" stroke-linecap="round"/><path d="M348.12975,286.65659l2.91545,13.55219" fill="none" stroke="#292018" stroke-width="4" stroke-linecap="round"/></g><g data-paper-data="{&quot;index&quot;:null}" stroke-linecap="butt"><g fill="#465b9c"><path d="M293.77088,270.56559c-2.80051,4.81585 -12.79378,13.31745 -12.79378,13.31745c0,0 -12.99395,-4.69061 -21.33051,-8.12984c-7.92253,-3.2684 -31.51635,-17.45939 -31.51635,-17.45939l17.18949,-35.33469c0,0 28.86714,15.79424 35.13022,20.22716c2.9626,2.09688 9.44662,5.18196 12.63847,6.96074c3.51281,1.95765 4.78902,5.29401 4.78902,5.29401c0,0 -1.42956,10.52115 -4.10652,15.12454z" stroke="#2e3c67" stroke-width="4"/><path d="M233.67677,253.15467l-4.06605,-2.13474l11.96074,-22.51074l4.06604,2.13475z" stroke="none" stroke-width="0"/></g><path d="M276.00852,248.23685c3.84811,2.22242 6.81927,4.06688 9.0848,5.64142c3.10354,2.15697 7.27309,2.72967 8.16873,4.15135c1.48561,2.35816 0.89161,5.31433 -0.47541,7.68132c-0.93059,1.61128 -3.68321,4.18098 -7.45335,4.21761c-7.54455,0.07333 -22.31318,-4.84285 -34.81944,-10.60512c-21.04913,-9.69844 -33.56047,-14.36455 -26.31531,-27.28393c3.13352,-5.5876 14.52645,-1.55832 27.42777,4.54013c5.48742,2.5939 19.05154,8.57856 24.38221,11.65722z" fill="#5671c0" stroke="none" stroke-width="0"/></g><g data-paper-data="{&quot;index&quot;:null}" stroke-linecap="butt"><g fill="#465b9c"><path d="M343.86129,300.98274c-3.133,4.60646 -11.64227,14.14058 -11.64227,14.14058l-3.476,-3.55957l-2.84424,0.35629l-3.4938,-2.15839c0,0 -12.36161,-6.18185 -15.55794,-7.77271c-7.67244,-3.81872 -30.7086,-21.90305 -30.7086,-21.90305l18.68088,-26.90936c0,0 19.72541,11.59916 26.6395,14.92671c4.20761,2.02499 19.94798,12.00113 19.94798,12.00113l3.78225,0.93127l0.99061,2.83238l4.47893,0.94636c0,0 -3.80252,11.76511 -6.7973,16.16837z" stroke="#2e3c67" stroke-width="4"/><path d="M284.52114,274.67659c0,0 -3.63495,5.36968 -4.13434,5.34041c-1.29228,-0.07571 -6.29413,-2.07985 -6.29413,-2.07985l16.73867,-25.09705l5.22104,3.1643z" stroke="none" stroke-width="0"/></g><path d="M312.14535,269.29375c8.92332,5.50685 23.76918,10.81745 23.48614,13.63515c-0.08886,0.88448 3.68676,0.21336 4.28877,2.12579c0.60201,1.91242 -0.13383,3.91118 -1.44633,6.9037c-1.24802,2.84548 -4.14691,5.56479 -5.62633,6.40561c-3.8062,2.16316 -7.83576,-4.28189 -10.72576,-6.06539c-5.12599,-3.16341 -24.92003,-15.75429 -41.29098,-23.54565c-3.39513,-1.61584 1.97647,-4.77388 3.46284,-8.91835c1.77097,-2.46175 3.54792,-4.6928 7.62862,-3.09637c4.64537,1.81735 15.47267,9.62391 20.22304,12.55552z" fill="#5671c0" stroke="none" stroke-width="0"/></g><g data-paper-data="{&quot;index&quot;:null}" stroke-width="4" stroke-linecap="butt"><g data-paper-data="{&quot;index&quot;:null}" fill="#403328" stroke="#292018"><g><path d="M244.61878,243.36585c-2.26473,1.85656 -5.69889,-0.08831 -5.69889,-0.08831c0,0 5.13203,-50.68713 6.35533,-68.85145c1.13351,-16.83112 2.20713,-25.69163 2.20713,-25.69163c0,0 -0.97304,-3.6928 0.90864,-8.39674c1.14447,-2.86098 3.72464,-2.67845 5.68378,-0.51843c1.95913,2.16 2.20567,3.96876 3.15431,12.01833c0.33723,2.86154 -0.04517,11.2801 -0.46654,14.45413c-0.76493,5.76193 -3.80788,25.75127 -3.80788,25.75127l-3.97121,42.98473c0,0 -2.09993,6.48156 -4.36467,8.33812z"/></g><path d="M246.08797,139.59648c-1.63572,1.82101 -3.84125,-9.38418 -3.84125,-9.38418l15.7483,0.90695l-1.02199,12.56772c0,0 -9.18144,-5.98711 -10.88505,-4.09049z"/></g><path d="M256.55741,163.73459c-0.1916,1.94646 -0.77265,3.45004 -1.29781,3.35834c-0.52516,-0.09169 -0.79558,-1.74394 -0.60397,-3.6904c0.1916,-1.94646 0.77265,-3.45004 1.29781,-3.35834c0.52516,0.09169 0.79558,1.74393 0.60397,3.6904z" fill="#dfbd28" stroke="#dfbd28"/><path d="M253.71323,185.18002c-0.1916,1.94644 -0.77265,3.45004 -1.29781,3.35834c-0.52516,-0.09169 -0.79558,-1.74394 -0.60397,-3.6904c0.1916,-1.94644 0.77265,-3.45004 1.29781,-3.35834c0.52516,0.09169 0.79558,1.74394 0.60397,3.6904z" fill="#dfbd28" stroke="#dfbd28"/><path d="M251.31656,207.08665c-0.1916,1.94644 -0.77265,3.45004 -1.29781,3.35834c-0.52516,-0.09169 -0.79558,-1.74394 -0.60397,-3.6904c0.1916,-1.94644 0.77265,-3.45004 1.29781,-3.35834c0.52516,0.09169 0.79558,1.74394 0.60397,3.6904z" fill="#dfbd28" stroke="#dfbd28"/><path d="M249.39299,227.22447c-0.1916,1.94644 -0.77265,3.45004 -1.29781,3.35834c-0.52516,-0.09169 -0.79558,-1.74394 -0.60397,-3.6904c0.1916,-1.94644 0.77265,-3.45004 1.29781,-3.35834c0.52516,0.09169 0.79558,1.74394 0.60397,3.6904z" fill="#dfbd28" stroke="#dfbd28"/></g><g><g><g><path d="M244.93943,267.96355c0,0 -19.13661,-3.04059 -26.35145,-7.07319c-7.1874,-4.01725 -16.28078,-12.68354 -16.28078,-12.68354l15.68303,-32.64358c0,0 7.52066,1.75396 13.52989,3.92534c6.42468,2.32149 23.85519,9.58337 23.85519,9.58337l2.57694,4.29544z" fill="#465b9c" stroke="#2e3c67" stroke-width="4" stroke-linecap="butt"/><path d="M225.03368,228.2919c0,0 7.35458,6.08905 9.88624,8.66203c1.88822,1.91902 3.94764,5.39753 3.94764,5.39753" fill="none" stroke="#2e3c67" stroke-width="4" stroke-linecap="round"/><path d="M249.04937,266.28578l-10.2203,-3.03542l13.17514,-31.97736l10.28386,3.70171z" fill="#465b9c" stroke="none" stroke-width="0" stroke-linecap="butt"/></g><g fill="none" stroke="none" stroke-width="1" stroke-linecap="butt" font-family="sans-serif" font-weight="normal" font-size="12" text-anchor="start"/><g fill="none" stroke="none" stroke-width="1" stroke-linecap="butt" font-family="sans-serif" font-weight="normal" font-size="12" text-anchor="start"/></g><path d="M258.45606,241.95022c2.82692,1.11002 -4.3223,13.4344 -6.27378,18.40429c-1.04379,2.65828 -10.09996,-5.78757 -12.37296,-7.80177c-2.70329,-2.39549 1.26009,-6.74462 3.21158,-11.7145c1.95148,-4.96989 12.60826,0.00197 15.43518,1.112z" fill="#5671c0" stroke="none" stroke-width="0" stroke-linecap="butt"/></g><path d="M204.06634,176.03814l8.04529,-24.09228c0,0 -11.32857,-5.04754 -7.8296,-10.81174c3.49898,-5.76416 2.21013,-7.29593 7.41845,-8.20129c10.60095,-1.84273 7.86931,-6.10432 16.95912,-5.51686c7.23784,0.46778 19.892,5.92709 21.21283,25.82485c0.49218,7.41445 -8.40281,40.60117 -8.40281,40.60117l-1.66579,32.56051c0,0 -8.42915,10.46241 -31.88059,8.37205c-21.85358,-1.94793 -17.59962,-8.80563 -17.59962,-8.80563z" fill="#95d2a1" stroke="#67916f" stroke-width="4" stroke-linecap="butt"/><g data-paper-data="{&quot;index&quot;:null}"><path d="M98.64358,205.80508c2.86901,-1.01646 5.03382,0.56742 8.21045,-0.61331c1.78409,-0.66314 2.07534,-2.89796 3.77158,-4.10994c1.75785,-1.256 4.89822,-1.4812 5.42601,-1.65502c2.85022,-0.93868 5.6161,11.27891 5.6161,11.27891c0,0 1.05761,9.20093 1.67947,10.8396c1.1903,3.13657 5.52488,12.99111 5.52488,12.99111l-30.12527,15.49612l-8.12685,-9.33649c0,0 -5.45456,-2.52072 -9.39337,-0.79328c-5.20921,2.28462 -15.49181,5.10335 -19.27703,3.66627c-7.88854,-2.99492 -9.29163,-2.48891 -9.14717,-4.52793c0,0 -1.3932,-3.38176 -1.73384,-5.40177c-0.3432,-2.03528 -0.31773,-6.76444 -0.31773,-6.76444c0,0 35.97409,-16.8472 47.89275,-21.06982z" fill="#403328" stroke="#292018" stroke-width="4" stroke-linecap="butt"/><path d="M58.56218,230.52928l-4.67821,2.10172l-0.45116,-3.58955c0,0 6.12915,-2.84955 11.27239,-5.35616c4.5128,-2.19937 36.53012,-17.79841 35.50575,-15.35965c-0.12129,0.28876 4.56912,1.66542 8.36731,0.07228c2.01707,-0.84604 2.86599,-3.13486 4.07117,-4.52868c1.05248,-1.21722 2.59353,-1.61022 2.59353,-1.61022c0,0 3.02593,3.49595 1.22574,4.63289c-3.26031,2.0591 -15.93191,5.85021 -27.94527,10.81605c-13.8894,5.74132 -29.96127,12.82131 -29.96127,12.82131z" fill="#775f4a" stroke="none" stroke-width="0" stroke-linecap="butt"/><path d="M90.98787,240.01699c0,0 4.3279,-4.83691 7.30078,-6.49442c3.60357,-2.00915 5.28111,-1.49447 5.28111,-1.49447l7.01807,8.28422l-16.85281,0.05586" fill="none" stroke="#292018" stroke-width="4" stroke-linecap="round"/><path d="M103.06659,233.65072l-5.64037,12.66285" fill="none" stroke="#292018" stroke-width="4" stroke-linecap="round"/></g><path d="M243.67161,162.73192c-0.55713,6.03699 -9.07301,37.69115 -8.81521,41.25264c0.88685,12.25213 -10.00906,8.55289 -15.0198,8.27738c-4.06416,-0.22346 -6.45294,3.87449 -10.37937,-0.17305c-3.04667,-3.14066 -0.1625,-21.32629 2.46221,-33.85501c0.75791,-3.61775 1.87706,-17.49719 2.05853,-20.30484c0.19563,-3.027 -10.31463,-6.7275 -11.60184,-9.91524c-0.47126,-1.16704 -3.93259,-5.10918 -3.95676,-6.2911c-0.04731,-2.31422 7.9708,-2.83535 12.62598,-4.03332c4.65516,-1.19798 11.01642,-8.82388 17.69154,-8.39249c6.87609,0.44438 9.4317,4.32565 13.31804,12.82138c3.88633,8.49574 2.17388,14.57663 1.61673,20.61362z" fill="#a6eab4" stroke="none" stroke-width="0" stroke-linecap="butt"/><g stroke-linecap="butt"><path d="M220.16905,108.03912l22.34818,12.56596l-0.37447,6.44266l1.46637,12.3989c0,0 -7.65132,1.30649 -16.60938,0.62259c-8.67386,-0.66223 -13.70378,-10.08595 -13.70378,-10.08595z" fill="#d9bb9a" stroke="#917c67" stroke-width="4"/><path d="M234.05359,128.46734c-0.07961,1.23183 -2.40278,2.93771 -5.1212,2.76202c-2.71842,-0.17569 -4.8027,-2.16641 -4.72309,-3.39825c0.07961,-1.23183 2.29297,-1.23832 5.01138,-1.06262c2.71842,0.17569 4.91252,0.46702 4.8329,1.69885z" fill="#ffdbb5" stroke="none" stroke-width="0"/></g><g data-paper-data="{&quot;index&quot;:null}" stroke-linecap="butt"><g fill="#465b9c"><path d="M143.62333,275.59665c-2.34957,-5.05121 -3.61013,-18.11083 -3.61013,-18.11083c0,0 11.27805,-7.97811 18.8664,-12.85085c7.21145,-4.63073 32.34455,-15.87265 32.34455,-15.87265l24.15952,25.63978c0,0 -3.72289,6.32316 -11.57578,11.45438c-10.38499,6.78575 -25.99579,12.98466 -30.10582,14.46714c-3.41428,1.23152 -9.6528,4.78695 -12.9372,6.38842c-3.61466,1.7625 -7.08152,0.90178 -7.08152,0.90178c0,0 -7.81409,-7.18877 -10.06,-12.01716z" stroke="#2e3c67" stroke-width="4"/><path d="M192.26877,236.25121l4.07629,-2.11513l11.62859,22.68409l-4.07629,2.11512z" stroke="none" stroke-width="0"/></g><path d="M172.09816,273.79199c-4.02359,1.8862 -7.23568,3.26905 -9.82285,4.22737c-3.54417,1.31279 -6.39813,4.406 -8.07659,4.32785c-2.78408,-0.12959 -4.86966,-2.30724 -6.02988,-4.78218c-0.7898,-1.68477 -1.32401,-5.41237 0.80168,-8.52631c4.25378,-6.23143 16.73164,-15.53652 28.61004,-22.50173c19.99237,-11.72306 30.97438,-19.31923 37.43061,-5.9881c2.79231,5.7657 -7.02774,12.80848 -19.40781,19.9056c-5.26571,3.01866 -17.93142,10.72458 -23.5052,13.3375z" fill="#5671c0" stroke="none" stroke-width="0"/></g><g data-paper-data="{&quot;index&quot;:null}" stroke-linecap="butt"><g fill="#465b9c"><path d="M106.53305,232.45149c3.6105,-4.24259 13.09626,-12.80569 13.09626,-12.80569l3.07279,3.91293l2.86608,-0.04817l3.24126,2.52181c0,0 11.62464,7.47615 14.63123,9.40171c7.21697,4.62214 14.13814,16.27623 14.13814,16.27623l-7.43276,33.54703c0,0 -18.36274,-13.65438 -24.87862,-17.70658c-3.96527,-2.466 -18.54076,-14.07797 -18.54076,-14.07797l-3.66008,-1.33286l-0.68007,-2.92252l-4.35111,-1.42283c0,0 5.04642,-11.28764 8.49765,-15.34307z" stroke="#2e3c67" stroke-width="4"/><path d="M151.44708,258.30684c0,0 -2.80833,-6.2807 -2.315,-6.19786c1.27663,0.21434 13.70045,2.41172 13.70045,2.41172c0,0 -5.18115,14.1856 -5.39959,20.49147c-0.1766,5.09823 -0.47908,13.83014 -0.47908,13.83014l-19.64402,-18.11757z" stroke="none" stroke-width="0"/></g><path d="M134.65492,267.36931c-8.27894,-6.43508 -22.46714,-13.31234 -21.88255,-16.08323c0.18351,-0.86978 -3.6424,-0.60883 -4.03513,-2.57493c-0.39272,-1.96608 0.55392,-3.87408 2.1808,-6.70797c1.54697,-2.69466 4.72163,-5.08625 6.28296,-5.76298c4.01686,-1.74104 7.3295,5.1002 10.0108,7.18434c2.67815,2.08169 18.93532,12.05837 26.35686,14.79478c5.75757,2.12289 8.82738,0.72396 8.82738,0.72396c0,0 4.18797,13.20014 2.26428,17.16059c-2.02559,2.2569 -7.36563,7.95045 -11.25083,5.92417c-4.42283,-2.30666 -14.34725,-11.23296 -18.75459,-14.65873z" fill="#5671c0" stroke="none" stroke-width="0"/></g><g><g><g><g><path d="M181.52025,240.32691c0,0 5.86748,-18.46695 10.93344,-24.99778c5.04666,-6.50601 14.97508,-14.20151 14.97508,-14.20151l35.5489,19.99712l-24.56318,35.33535l-4.63243,1.90578z" fill="#465b9c" stroke="#2e3c67" stroke-width="4" stroke-linecap="butt"/><path d="M223.72209,226.57609c0,0 -7.12018,6.36155 -10.04273,8.4801c-2.17975,1.58009 -5.92708,3.09629 -5.92708,3.09629" fill="none" stroke="#2e3c67" stroke-width="4" stroke-linecap="round"/><path d="M182.56471,244.6415l4.52933,-9.6516l30.06743,18.05033l-11.61688,12.03911z" fill="#465b9c" stroke="none" stroke-width="0" stroke-linecap="butt"/></g><g stroke="#281a0d" stroke-width="4" stroke-linecap="butt"><path d="M200.73096,204.63152c0,0 1.76387,-3.59738 2.86272,-4.88653c1.18742,-1.39305 3.95909,-2.234 3.95909,-2.234l9.20727,4.91382c0,0 1.04241,5.00135 0.21368,6.43463c-0.82871,1.43328 -5.18601,2.16507 -5.18601,2.16507z" fill="#3f2b1a"/><path d="M210.62441,211.33543l6.77291,-7.88645l9.36273,5.49547c0,0 1.04241,5.00135 0.21369,6.43464c-0.82871,1.43328 -5.18602,2.16506 -5.18602,2.16506z" fill="#67472a"/><path d="M221.75889,218.01925l6.48208,-7.80873l9.65356,5.41774c0,0 1.0424,5.00136 0.21369,6.43463c-0.82871,1.43328 -5.18601,2.16506 -5.18601,2.16506z" fill="#3f2b1a"/><path d="M233.55878,225.42088l5.61094,-9.14326l6.45605,3.68466c0,0 -1.2215,3.84211 -1.97835,5.31462c-0.75684,1.4725 -4.13497,2.61134 -4.13497,2.61134z" fill="#67472a"/></g><path d="M204.6626,208.7104l7.46884,-10.43211l5.41721,2.96079l-5.81032,11.39105z" fill="#465b9c" stroke="#2e3c67" stroke-width="4" stroke-linecap="butt"/><g fill="none" stroke="none" stroke-width="1" stroke-linecap="butt" font-family="sans-serif" font-weight="normal" font-size="12" text-anchor="start"/></g><path d="M198.79865,260.65442c-1.52018,2.62918 -10.97052,-11.61559 -15.59279,-14.28818c-2.47234,-1.4295 12.56587,-6.45447 14.89726,-8.4008c2.77273,-2.31477 6.48043,2.2543 11.10269,4.92689c4.62226,2.67258 -1.887,12.46625 -3.40719,15.09544z" fill="#5671c0" stroke="none" stroke-width="0" stroke-linecap="butt"/></g><path d="M240.63403,229.51178l5.61094,-9.14326l3.31149,1.86649c0,0 0.08873,4.59968 -0.66812,6.07219c-0.75684,1.4725 -4.28648,2.87338 -4.28648,2.87338z" fill="#67472a" stroke="#281a0d" stroke-width="4" stroke-linecap="butt"/></g><g stroke="#292018" stroke-width="4"><g fill="#403328" stroke-linecap="butt"><g><path d="M188.06011,230.50017l10.2282,-34.77476l2.13134,-19.1487l3.9123,-27.53055l-2.07167,-4.73153c0,0 -8.39159,3.10502 -6.58511,0.73297c1.80649,-2.37204 8.24501,-10.50311 14.34903,-14.44104c2.39039,-1.54214 7.4478,0.71749 7.4478,0.71749l7.13767,3.47829l14.3306,3.62305c0,0 1.1782,3.52835 0.68345,10.75022c-0.35054,5.11695 -0.86913,11.11803 -1.70686,18.06346c-3.37535,17.79516 -7.28201,69.68113 -7.28201,69.68113c0,0 -7.06452,9.35334 -13.87994,8.22403c-2.09493,-0.34713 -17.18743,1.49469 -23.21577,-1.72345c-7.28388,-3.8884 -5.47897,-12.92064 -5.47897,-12.92064z"/></g><path d="M211.96881,128.72934l-0.87501,-9.36027l26.61573,12.34808l0.69126,6.80358c0,0 -10.52548,-0.9716 -12.99022,-3.21889c-2.56706,-2.34056 -13.44175,-6.5725 -13.44175,-6.5725z"/></g><path d="M230.49152,162.13541l1.28168,-9.10366" fill="none" stroke-linecap="round"/><path d="M228.98025,182.83734l0.30707,-7.43334" fill="none" stroke-linecap="round"/><path d="M227.25824,204.56566l0.6746,-7.75626" fill="none" stroke-linecap="round"/><path d="M226.39279,217.5095l-0.73037,8.61929" fill="none" stroke-linecap="round"/></g><g><path d="M201.36039,96.46627c2.18488,-6.08088 4.05246,-24.62007 4.05246,-24.62007l80.46317,-1.22876c0,0 0.96923,19.71676 2.77708,26.40927c1.17834,4.3621 2.81473,5.16145 2.81473,5.16145c0,0 -3.10845,5.74269 -6.33965,5.87131c-1.03474,0.04119 -3.24996,0.11592 -4.715,0.21948c-0.58441,0.04131 -0.7388,9.14833 -0.7388,9.14833c0,0 -3.85441,3.84153 -7.28839,4.03138c-1.4245,0.07875 -6.21671,-0.54239 -7.72239,-0.41544c-1.6968,0.14307 -5.12104,1.76517 -7.73425,2.74878c-4.22335,1.58966 -10.01539,1.31889 -10.01539,1.31889c0,0 -4.82912,-1.53492 -8.32412,-3.08593c-2.88833,-1.28177 -4.26741,-2.61577 -6.56115,-2.73776c-1.5368,-0.08174 -13.0781,2.94968 -13.92985,2.94047c-2.07136,-0.02238 -10.60149,-3.93236 -10.60149,-3.93236c0,0 1.70761,-6.76924 0.44086,-6.82996c-1.69126,-0.08107 -3.78658,-3.54053 -4.75092,-3.63676c-2.98165,-0.29757 -5.47018,-5.53185 -5.47018,-5.53185c0,0 2.0322,-1.3466 3.64327,-5.83047z" data-paper-data="{&quot;index&quot;:null}" fill="#14161a" stroke="#14161a" stroke-width="4" stroke-linecap="butt"/><path d="M207.89829,83.66339c-0.40052,-26.4485 15.33652,-41.74579 38.53961,-42.09716c23.20309,-0.35137 39.3961,14.46238 39.79663,40.91088c0.40053,26.44851 -21.86034,44.92182 -32.43733,45.28979c-24.28729,0.84496 -45.49839,-17.655 -45.89891,-44.10351z" data-paper-data="{&quot;index&quot;:null}" fill="#d9bb9a" stroke="#917c67" stroke-width="4" stroke-linecap="butt"/><path d="M280.18537,83.10095c0.32041,21.1588 -15.62798,38.64241 -26.3608,38.80495c-21.04357,0.63059 -39.29953,-16.64697 -39.61994,-37.80579c-0.32041,-21.1588 11.4747,-35.83283 32.84958,-36.15652c21.10883,-0.31966 32.81076,13.99855 33.13118,35.15735z" fill="#ffdbb5" stroke="none" stroke-width="0" stroke-linecap="butt"/><path d="M267.67091,100.80432c0,1.35197 -2.83371,4.51021 -6.06667,4.51021c-3.23296,0 -5.04661,-1.54386 -5.04661,-2.89582c0,-1.35197 1.81365,-2.00009 5.04661,-2.00009c3.23296,0 6.06667,-0.96627 6.06667,0.38571z" fill="#d9bb9a" stroke="none" stroke-width="0" stroke-linecap="butt"/><path d="M256.52126,120.09585c-5.30883,-0.05362 -10.41328,-5.31456 -9.58832,-9.65042c0.82496,-4.33586 7.06984,2.95897 10.88155,2.85345c3.72007,-0.10299 11.06068,-7.01939 10.19215,-2.64059c-1.16429,5.86991 -6.17655,9.49118 -11.48538,9.43756z" fill="none" stroke="#d9bb9a" stroke-width="4" stroke-linecap="round"/><g data-paper-data="{&quot;index&quot;:null}" stroke="none" stroke-width="0" stroke-linecap="butt"><path d="M285.08985,88.81744c0,7.34765 -4.52588,13.30411 -10.10884,13.30411c-5.58295,0 -10.10884,-5.95645 -10.10884,-13.30409c0,-7.34765 4.52589,-13.30409 10.10884,-13.30409c5.58296,0 10.10884,5.95645 10.10884,13.30409z" fill="#d3f0f1"/><path d="M273.99237,76.52893c4.63385,0 8.39034,5.4563 8.39034,12.18696c0,6.73066 -3.75649,12.18695 -8.39034,12.18695c-4.63385,0 -8.39033,-5.45628 -8.39033,-12.18695c0,-6.73066 3.75648,-12.18696 8.39033,-12.18696z" fill="#ffffff"/></g><g data-paper-data="{&quot;index&quot;:null}" stroke="none" stroke-width="0" stroke-linecap="butt"><g data-paper-data="{&quot;index&quot;:null}"><path d="M280.96513,88.46748c0,5.75608 -3.30789,10.42228 -7.38836,10.42228c-4.08048,0 -7.38834,-4.6662 -7.38834,-10.42228c0,-5.75607 3.30786,-10.42228 7.38834,-10.42228c4.08048,0 7.38836,4.66622 7.38836,10.42228z" fill="#41563d"/><path d="M273.20541,95.46325c-3.77251,0 -6.45936,-5.06148 -6.45936,-8.24021c0,-3.17873 1.38539,-8.86673 7.38835,-8.86673c3.77251,0 6.83075,5.68801 6.83075,8.86673c0,3.17872 -3.98722,8.24021 -7.75973,8.24021z" fill="#5f7d59"/></g><path d="M267.45382,84.98391c0,-2.41714 1.95947,-4.37662 4.37661,-4.37662c2.41714,0 4.37662,1.95948 4.37662,4.37662c0,2.41715 -1.95948,4.37662 -4.37662,4.37662c-2.41714,0 -4.37661,-1.95947 -4.37661,-4.37662z" fill="#8ebb85"/><path d="M271.17861,89.36053c0,-1.33714 1.08397,-2.42111 2.42111,-2.42111c1.33714,0 2.42111,1.08397 2.42111,2.42111c0,1.33714 -1.08397,2.42112 -2.42111,2.42112c-1.33714,0 -2.42111,-1.08398 -2.42111,-2.42112z" fill="#8ebb85"/></g><g data-paper-data="{&quot;index&quot;:null}" stroke="none" stroke-width="0" stroke-linecap="butt"><path d="M237.23954,74.66189c6.61848,0 11.98384,5.95645 11.98384,13.30411c0,7.34765 -5.36535,13.30409 -11.98384,13.30409c-6.61848,0 -11.98384,-5.95644 -11.98384,-13.30409c0,-7.34765 5.36536,-13.30409 11.98384,-13.30409z" fill="#d3f0f1"/><path d="M248.35811,87.86442c0,6.73068 -4.45324,12.18695 -9.94658,12.18695c-5.49334,0 -9.94659,-5.45629 -9.94659,-12.18695c0,-6.73066 4.45325,-12.18696 9.94659,-12.18696c5.49334,0 9.94658,5.45629 9.94658,12.18696z" fill="#ffffff"/></g><g data-paper-data="{&quot;index&quot;:null}" stroke="none" stroke-width="0" stroke-linecap="butt"><g data-paper-data="{&quot;index&quot;:null}"><path d="M241.24751,77.44374c4.08048,0 7.38834,4.66622 7.38834,10.42228c0,5.75608 -3.30786,10.42228 -7.38834,10.42228c-4.08048,0 -7.38836,-4.6662 -7.38836,-10.42228c0,-5.75607 3.30787,-10.42228 7.38836,-10.42228z" fill="#41563d"/><path d="M233.85916,86.62158c0,-3.17873 3.05822,-8.86673 6.83073,-8.86673c6.00296,0 7.38836,5.688 7.38836,8.86673c0,3.17872 -2.68685,8.24021 -6.45936,8.24021c-3.77251,0 -7.75973,-5.06148 -7.75973,-8.24021z" fill="#5f7d59"/></g><path d="M242.99385,88.75907c-2.41714,0 -4.37662,-1.95948 -4.37662,-4.37662c0,-2.41714 1.95948,-4.37663 4.37662,-4.37663c2.41714,0 4.37661,1.95948 4.37661,4.37663c0,2.41714 -1.95947,4.37662 -4.37661,4.37662z" fill="#8ebb85"/><path d="M241.22457,91.18018c-1.33714,0 -2.42111,-1.08397 -2.42111,-2.42111c0,-1.33714 1.08397,-2.42112 2.42111,-2.42112c1.33714,0 2.42111,1.08398 2.42111,2.42112c0,1.33714 -1.08397,2.42111 -2.42111,2.42111z" fill="#8ebb85"/></g><path d="M215.59986,93.62109c1.09632,5.50304 2.42271,8.5522 0.97113,9.49895c-1.45157,0.94675 -7.63373,-2.9083 -8.73006,-8.41134c-1.09632,-5.50304 3.03111,-10.18512 4.75992,-10.30615c3.14667,-0.22028 1.90269,3.71548 2.999,9.21853z" data-paper-data="{&quot;index&quot;:null}" fill="#d9bb9a" stroke="#917c67" stroke-width="4" stroke-linecap="butt"/><g data-paper-data="{&quot;index&quot;:null}"><g><path d="M208.1823,86.04764c-0.2517,2.72179 -4.90107,4.74779 -4.90107,4.74779c0,0 -2.8907,1.39784 -4.12019,-1.26406c-1.00133,-2.16795 -5.00771,-5.65669 -5.00771,-5.65669c0,0 1.5981,-2.713 3.62326,-5.78559c0.52334,-0.79402 -3.42687,-3.02077 -4.49228,-4.60501c-1.06541,-1.58423 -3.05504,-9.49932 -3.05504,-9.49932c0,0 6.93426,-2.60051 8.53518,-7.14746c0.79436,-2.25614 0.78096,-5.89801 1.35982,-7.32998c3.29808,-8.15869 1.40507,-9.94624 5.63434,-14.21642c0.44198,-0.44626 8.36584,-5.95541 8.76103,-6.35817c6.88319,-7.01498 8.12106,-7.38702 18.6329,-8.5002c11.11537,-1.17709 19.30128,-4.94484 25.9671,-1.66432c4.35262,2.14211 15.22367,7.37415 22.74042,9.8657c7.19181,7.56308 10.14894,12.42335 10.97686,22.04161c0.26559,3.08544 -2.25536,5.26221 -0.94869,8.47167c0.59273,1.45587 8.17698,12.48139 8.17698,12.48139c0,0 -1.54574,3.73141 -3.69798,5.19673c-2.13237,1.4518 -4.4804,1.05796 -4.99716,2.21145c-1.12731,2.51628 -0.02337,5.07585 -0.39278,6.92853c-0.26875,1.34784 -0.83145,2.07221 -1.72648,3.33588c-1.5108,2.13305 -1.57484,-1.15468 -1.49367,-3.32539c0.15174,-4.05759 -0.8306,-6.93928 -0.82094,-6.28916c-1.56519,0.8086 -0.28242,0.77174 -7.16859,-0.39509c-0.38303,-0.0649 -1.71498,-2.891 -3.21259,-4.07086c-1.49761,-1.17985 -2.74555,-5.44895 -2.74555,-5.44895c0,0 -10.36656,4.95607 -14.88613,5.37673c-6.52047,0.60689 -14.02239,2.90134 -17.7498,2.5339c-9.11155,-0.89821 -13.17978,-1.94894 -16.78955,-2.02292c-3.35984,-0.06886 -9.24177,3.34428 -11.36311,2.41206c0,0 -4.5082,4.40332 -4.8386,7.97614z" fill="#252931" stroke="#14161a" stroke-width="4" stroke-linecap="butt"/><path d="M273.35208,61.54136c-23.51317,9.99639 -46.00322,6.42932 -64.92305,8.41716c-3.9167,0.41151 -5.21615,-2.77623 -5.21615,-2.77623c0,0 6.49239,-7.41453 6.49239,-17.34855c0,-4.7811 5.90099,-14.87932 14.28582,-20.32021c6.96976,-4.52264 21.43085,-5.41125 28.51783,-6.95172c4.58971,-0.99765 4.44464,2.68597 8.60338,2.68597c11.8049,0 10.80487,7.2576 14.68243,14.75982c2.82226,5.46048 0.91764,20.10515 -2.44266,21.53376z" fill="#494c5e" stroke="none" stroke-width="0" stroke-linecap="butt"/><path d="M263.3474,33.68527c0,-1.34766 -5.50229,1.73445 -6.12478,-0.049c-0.45687,-1.30893 1.88721,-3.35055 2.46358,-5.32945c0.16587,-0.56949 -0.67585,-2.74609 -2.79262,-3.97745c-1.7618,-1.02486 -4.86475,-1.13328 -4.76468,-1.53846c0.4065,-1.64601 9.11488,-0.2811 10.04773,-0.2811c3.70322,0 17.13568,10.12191 17.13568,13.94269c0,0.23179 4.92637,19.47604 -0.9876,27.62633c-0.854,1.17693 -8.31243,1.18803 -8.73357,-0.88277c-0.1324,-0.65105 -4.52612,-1.73279 -3.44991,-3.84698c1.4662,-2.8803 9.80645,-5.67078 9.51694,-6.43845c-0.82669,-2.19208 -13.41091,4.61709 -14.59702,1.42954c-1.18611,-3.18756 12.91312,-11.50015 10.79672,-13.8509c-3.08815,1.22893 -10.72835,6.55753 -11.8099,5.22289c-3.27748,-4.04444 3.29941,-8.20613 3.29941,-12.0269z" fill="#252931" stroke="none" stroke-width="0" stroke-linecap="butt"/><path d="M219.43074,66.29933c-0.62985,1.19142 1.82742,0.07778 3.68888,0.56425c1.86145,0.48648 8.13703,1.08749 6.70262,2.56759c-0.75639,0.78048 -10.8243,-0.15325 -11.43592,0.53238c-1.12866,1.26521 -3.71937,2.37455 -4.54407,1.93859c-1.98468,-1.04918 -10.72625,2.11715 -12.2112,-3.02013c-0.96462,-3.33711 4.79091,-9.59853 5.49409,-10.92867c0.10833,-0.20491 1.34116,-18.4562 10.37861,-22.89768c1.30503,-0.64136 9.60693,-3.12566 9.01143,-1.09811c-0.18722,0.63745 -5.18352,7.11579 -7.12304,8.48191c-2.64234,1.86114 -5.09575,3.451 -5.19859,4.26497c-0.29364,2.32431 13.85132,-0.74376 13.4102,1.3514c-0.7007,3.32813 -15.77041,6.95024 -14.76901,8.32254c1.14181,1.56471 8.03733,-1.17263 15.08063,-2.66657c5.45487,-1.15703 11.59469,-1.22749 11.45075,-0.12934c-0.13362,1.01948 -1.59923,3.67817 -3.41974,4.59264c-5.29674,2.66066 -15.18673,5.61041 -16.51565,8.12423z" fill="#252931" stroke="none" stroke-width="0" stroke-linecap="butt"/><path d="M281.20663,63.35855c0,0 -5.43155,6.01353 -6.38658,6.41869c-1.90975,0.8102 -5.84246,1.69166 -5.84246,1.69166" fill="none" stroke="#14161a" stroke-width="4" stroke-linecap="round"/><path d="M237.92201,35.91809c-0.58497,-3.11982 2.41086,-6.00688 6.16621,-6.711c3.75533,-0.70413 9.18963,-1.72592 9.7746,1.39389c0.58497,3.11982 -4.53951,7.7098 -8.29485,8.41392c-3.75533,0.70412 -7.06099,0.023 -7.64596,-3.0968z" fill="#686c85" stroke="none" stroke-width="0" stroke-linecap="butt"/><path d="M224.68928,41.65881c-0.33774,-1.80131 2.42335,-3.80399 4.5916,-4.21054c2.16824,-0.40654 4.41262,0.29841 4.75035,2.09972c0.33774,1.80131 -1.5719,2.95253 -3.74014,3.35908c-2.16824,0.40654 -5.26408,0.55306 -5.60181,-1.24825z" fill="#686c85" stroke="none" stroke-width="0" stroke-linecap="butt"/><path d="M250.42555,42.82999c-0.60615,-1.72954 0.57279,-2.42842 2.65466,-3.15805c2.08187,-0.72964 3.51833,-1.95888 4.12449,-0.22933c0.60615,1.72954 -1.1075,3.15622 -3.18937,3.88585c-2.08187,0.72964 -2.9836,1.23108 -3.58976,-0.49847z" fill="#686c85" stroke="none" stroke-width="0" stroke-linecap="butt"/></g><path d="M290.16898,72.05561c-1.5668,0.32776 0.15295,3.45773 -0.92422,3.45773c-1.13372,0 -2.99038,-2.03999 -4.30596,-3.55331c-1.68568,-1.93906 -2.47645,-3.0756 -2.47645,-4.26414c0,-1.29163 0.25472,-0.31382 1.69877,-0.63713c0.92177,-0.20638 2.13086,-4.74309 3.13856,-4.74309c0.96005,0 0.77375,2.15976 2.11811,4.05396c0.21382,0.30127 1.21152,-6.11276 2.25839,-3.77296c0.58078,1.29808 4.22421,4.46145 5.34561,8.32672c1.1214,3.86527 -3.78682,-1.93503 -4.93217,-1.05901c-1.14535,0.87601 1.83819,2.25592 1.83819,3.30745c0,0 -1.56356,-1.57545 -3.75883,-1.11622z" fill="#494c5e" stroke="none" stroke-width="0" stroke-linecap="butt"/><path d="M283.20542,42.6878c0.4727,0.99045 -0.93347,2.62155 -4.54147,4.34355c-3.608,1.722 -4.92894,2.31506 -5.40166,1.32462c-0.47271,-0.99043 1.21733,-3.18929 4.82534,-4.91129c3.608,-1.722 4.64506,-1.74732 5.11778,-0.75689z" fill="#494c5e" stroke="none" stroke-width="0" stroke-linecap="butt"/></g><path d="M225.47589,72.09056c0.16072,-2.99826 2.84902,-4.92506 8.34211,-4.75908c5.49309,0.16597 17.35032,2.10576 17.18959,5.10402c-0.16072,2.99826 -7.14716,2.02307 -12.64025,1.85711c-5.49309,-0.16597 -13.05218,0.79621 -12.89146,-2.20204z" data-paper-data="{&quot;index&quot;:null}" fill="#424956" stroke="#14161a" stroke-width="4" stroke-linecap="butt"/><path d="M290.75669,72.34058c0.16073,2.99826 -7.39837,2.03607 -12.89146,2.20204c-5.49309,0.16596 -12.47952,1.14114 -12.64024,-1.85712c-0.16073,-2.99826 11.6965,-4.93804 17.18959,-5.10402c5.49309,-0.16598 8.18139,1.76083 8.34211,4.75908z" data-paper-data="{&quot;index&quot;:null}" fill="#424956" stroke="#14161a" stroke-width="4" stroke-linecap="butt"/></g><g stroke-linecap="butt"><g><g><path d="M146.81216,147.0432c8.02932,-1.99168 10.70365,-6.72351 12.90194,-7.59846c9.32264,-3.71053 33.68694,-10.85121 33.68694,-10.85121c0,0 8.0256,8.18015 8.02696,11.17544c0.00189,4.20954 -9.48071,8.32742 -9.48071,8.32742c0,0 -4.83249,-3.26106 -28.15466,2.62825c-0.75561,0.19083 -5.86103,8.37364 -7.15553,8.00437c-7.27967,-2.07659 -17.66377,-6.42346 -11.27443,-8.00834z" fill="#d9bb9a" stroke="#917c67" stroke-width="4"/><path d="M148.27722,143.64563c1.01037,-0.09719 13.62299,11.02429 13.67356,11.14113c0.30356,0.70128 -2.66808,1.30954 -5.19328,2.40259c-2.52518,1.09307 -4.91768,2.57476 -5.22122,1.87349c-0.30357,-0.70129 -12.1774,-12.9371 -9.65222,-14.03017c2.10454,-0.91097 3.72478,-1.13035 6.39317,-1.38705z" fill="#d9bb9a" stroke="none" stroke-width="0"/><path d="M194.89988,144.5736c-3.8708,1.08245 -12.64763,1.13513 -18.08203,1.51894c-2.46024,0.17374 -11.91239,4.53033 -19.12719,7.59334c-0.628,0.26662 -7.3498,3.83642 -7.69721,3.79146c-0.3824,-0.04948 -14.85134,-9.68322 -5.52101,-11.25288c5.4822,-0.92229 11.84262,-2.17711 16.57629,-3.65822c7.02673,-2.19859 8.55586,-3.56492 18.61809,-6.37873c10.06225,-2.8138 18.43332,-4.4201 19.07253,-2.03339c0.6392,2.38669 6.22276,7.60564 -3.83949,10.41948z" fill="#ffdbb5" stroke="none" stroke-width="0"/></g><path d="M185.25993,125.56878c8.90148,-3.42329 22.823,-5.02592 22.823,-5.02592l5.1739,24.33578c0,0 -19.7312,6.4284 -27.08504,8.55124c-7.39189,2.13384 -15.72225,1.25361 -15.72225,1.25361c0,0 -17.57676,-0.54454 -19.93055,-3.09073c-2.70261,-2.92355 3.28931,-16.18753 3.28931,-16.18753c0,0 22.34431,-6.33399 31.45159,-9.83641z" fill="#403328" stroke="#292018" stroke-width="4"/></g><g><g><path d="M114.11862,165.55498c1.26689,-3.12649 11.19102,-7.69466 17.10922,-12.70399c6.31436,-5.34467 6.84869,-4.65007 8.43135,-6.40886c3.0455,-2.58374 20.88092,7.81776 19.04436,10.05083c-3.92603,3.35153 -13.50643,15.88542 -20.95661,23.29728c-9.33669,9.28866 -4.23437,2.32968 -5.46404,1.26172c-1.19796,-1.04044 5.163,-4.99775 3.32662,-6.79041c-1.09135,-1.0654 -5.14868,7.60026 -9.16091,12.40532c-3.21134,3.84589 -7.17243,4.32316 -9.03497,5.19201c-2.31632,1.08053 -3.49337,-1.40229 -4.91594,-3.10861c-1.40645,-1.68705 -3.06528,-2.58986 -4.14429,-2.91669c-4.1253,-1.24961 1.93723,-10.83189 5.76516,-20.27858z" fill="#d9bb9a" stroke="#917c67" stroke-width="4"/><path d="M152.73296,155.57778c-0.3647,0.12516 0.29681,1.46289 -6.87078,8.76692c-1.76592,1.79954 -2.56844,3.53398 -4.16406,4.53388c-3.14362,1.96998 -5.69505,1.15392 -7.16092,0.48763c-1.84479,-0.83856 -9.64882,10.35954 -13.6788,15.35423c-3.91465,4.85176 -3.47735,-2.36532 -4.52627,-1.67972c-4.53011,2.96097 -1.60895,-6.20284 -4.68602,-2.94888c-3.77396,3.99096 2.20434,-8.54012 5.95851,-14.06859c1.40021,-2.06194 6.70268,-3.31406 10.75269,-6.14187c4.05002,-2.82778 5.15143,-4.4342 12.8191,-9.97731c4.50527,-3.25696 14.00299,4.83416 11.55652,5.6737z" fill="#ffdbb5" stroke="none" stroke-width="0"/></g><path d="M123.12968,156.15768l32.32326,-21.60521l20.06385,11.95619l-28.77836,26.01434c0,0 -4.63032,-6.45381 -11.50628,-9.80299c-6.46262,-3.14785 -12.10246,-6.56234 -12.10246,-6.56234z" fill="#403328" stroke="#292018" stroke-width="4"/><path d="M152.98467,140.74493c0,0 0.31751,-2.20734 1.35161,-3.24301c1.01502,-1.01654 4.79681,-2.9147 4.79681,-2.9147l24.51556,12.2756l-13.06502,7.55272c0,0 -6.75729,0.17507 -8.64061,-1.28786c-3.22549,-2.50551 -8.95834,-12.38274 -8.95834,-12.38274z" fill="#403328" stroke="none" stroke-width="0"/></g><path d="M209.59107,143.19395c-3.24932,-0.18016 -3.47911,-20.67153 -3.47911,-20.67153c0,0 10.96273,-1.00822 11.97841,-0.64615c1.0757,0.38347 4.61418,3.11815 4.61418,3.11815c0,0 -0.84962,9.78674 -4.0545,14.73871c-2.65561,4.10328 -7.5866,3.54246 -9.05899,3.46082z" fill="#403328" stroke="none" stroke-width="NaN"/></g></g></g></svg>