<svg version="1.1" xmlns="http://www.w3.org/2000/svg" xmlns:xlink="http://www.w3.org/1999/xlink" width="22.125" height="24.625" viewBox="0,0,22.125,24.625"><g transform="translate(-228.9375,-166.4375)"><g data-paper-data="{&quot;isPaintingLayer&quot;:true}" fill-rule="nonzero" stroke="#000000" stroke-linejoin="miter" stroke-miterlimit="10" stroke-dasharray="" stroke-dashoffset="0" style="mix-blend-mode: normal"><path d="M237.125,171.3125v-3.875h5.75v3.875z" fill="#ffffff" stroke-width="2" stroke-linecap="butt"/><path d="M229.9375,180c0,-5.55737 4.50513,-10.0625 10.0625,-10.0625c5.55737,0 10.0625,4.50513 10.0625,10.0625c0,5.55737 -4.50513,10.0625 -10.0625,10.0625c-5.55737,0 -10.0625,-4.50513 -10.0625,-10.0625z" fill="#ffffff" stroke-width="2" stroke-linecap="butt"/><path d="M240,189.17857v-18.35714c0,0 -5.60254,0.62858 -6.93138,1.97283c-1.67539,1.69482 -2.32442,7.39031 -2.32442,7.39031c0,0 1.20101,5.63875 2.51586,6.91641c1.68002,1.6325 6.73995,2.07759 6.73995,2.07759z" fill="#000000" stroke-width="0.5" stroke-linecap="round"/></g></g></svg>