<svg version="1.1" xmlns="http://www.w3.org/2000/svg" xmlns:xlink="http://www.w3.org/1999/xlink" width="438" height="481.10844" viewBox="0,0,438,481.10844"><g transform="translate(70.24916,31.95824)"><g data-paper-data="{&quot;isPaintingLayer&quot;:true}" fill-rule="nonzero" stroke-linejoin="miter" stroke-miterlimit="10" stroke-dasharray="" stroke-dashoffset="0" style="mix-blend-mode: normal"><g data-paper-data="{&quot;index&quot;:null}" stroke-width="1" stroke-linecap="butt"><path d="M207.3776,145.9828c2.75098,-3.82725 8.00617,-4.7555 11.73774,-2.07328c3.73157,2.68222 4.52647,7.95922 1.7755,11.78645c-2.75098,3.82724 -8.00614,4.75549 -11.73771,2.07327c-3.73159,-2.68222 -4.5265,-7.9592 -1.77552,-11.78644z" data-paper-data="{&quot;origPos&quot;:null}" fill="#ffd4a0" stroke="#e7c091"/><path d="M221.8942,158.6315c0,0 -35.93612,53.59085 -49.29163,72.28899c-8.18661,11.46153 -13.76073,20.97755 -27.77712,25.18168c-6.16476,1.84907 -14.45863,-11.2235 -14.45863,-11.2235l74.29316,-98.23955z" data-paper-data="{&quot;origRot&quot;:0,&quot;origPos&quot;:null}" fill="#e80000" stroke="#740000"/></g><path d="" data-paper-data="{&quot;index&quot;:null}" id="ID0.7014842056669295" fill="none" stroke="#000000" stroke-width="4" stroke-linecap="round"/><text transform="translate(8.50003,62.71666) scale(1.10672,1.10672)" font-size="40" xml:space="preserve" fill="#ffffff" fill-rule="nonzero" stroke="none" stroke-width="1" stroke-linecap="butt" stroke-linejoin="miter" stroke-miterlimit="10" stroke-dasharray="" stroke-dashoffset="0" font-family="&quot;ヒラギノ角ゴ Pro W3&quot;, &quot;Hiragino Kaku Gothic Pro&quot;, Osaka, &quot;メイリオ&quot;, Meiryo, &quot;ＭＳ Ｐゴシック&quot;, &quot;MS PGothic&quot;" font-weight="normal" text-anchor="start" style="mix-blend-mode: normal"><tspan x="0" dy="0">menitoine</tspan></text><path d="M93.2002,233.28406v-10.66789h26.02963v10.66789z" fill="#ffd5a1" stroke="#525252" stroke-width="1" stroke-linecap="butt"/><path d="M118.08191,224.50562l0.19243,7.79307c0,0 -22.25675,0.35983 -22.25675,0.06415c0,-2.19628 -2.8905,-11.09631 -1.02625,-11.09631c4.1066,0.14509 23.09058,3.23909 23.09058,3.23909z" fill="#e7c091" stroke="none" stroke-width="0" stroke-linecap="butt"/><path d="M114.38942,427.28921v-80.22249h27.87874v80.22249z" fill="#4d87ff" stroke="#0046d1" stroke-width="1" stroke-linecap="butt"/><path d="M73.42474,427.88786v-80.22249h27.87875v80.22249z" fill="#4d87ff" stroke="#0046d1" stroke-width="1" stroke-linecap="butt"/><path d="M73.01681,360.35841v-126.61524h69.80692v126.61528z" fill="#e80000" stroke="#740000" stroke-width="1" stroke-linecap="butt"/><path d="M64.97765,435.78358c0.46801,-12.48895 20.56183,-11.36061 28.62881,-11.36061c8.06698,0 9.15343,5.86536 9.15343,12.13964c0,6.27433 -7.31858,11.75016 -15.38556,11.75016c-8.06696,0 -22.98329,3.12597 -22.39666,-12.52916z" data-paper-data="{&quot;index&quot;:null}" fill="#c58d3b" stroke="#1c1100" stroke-width="1" stroke-linecap="butt"/><path d="M39.2875,433.00843z" fill="#c58d3b" stroke="#784800" stroke-width="1" stroke-linecap="butt"/><path d="M150.89151,435.86648c0.58664,15.65513 -14.3297,12.52913 -22.39666,12.52913c-8.06698,0 -15.38556,-5.47581 -15.38556,-11.75014c0,-6.27428 1.08645,-12.13964 9.15343,-12.13964c8.06698,0 28.1608,-1.12833 28.62876,11.36062z" fill="#c58d3b" stroke="#1c1100" stroke-width="1" stroke-linecap="butt"/><g data-paper-data="{&quot;index&quot;:null}" stroke-width="1" stroke-linecap="butt"><path d="M-4.66893,163.38019c-3.31758,3.18004 -8.65106,2.99956 -11.91261,-0.40307c-3.26157,-3.40264 -3.21616,-8.73898 0.10142,-11.919c3.31758,-3.18004 8.65106,-2.99954 11.91261,0.40309c3.26155,3.40263 3.21616,8.73896 -0.10142,11.91898z" data-paper-data="{&quot;origPos&quot;:null}" fill="#ffd4a0" stroke="#e7c091"/><path d="M-1.78459,151.72912l87.36238,86.82337c0,0 -6.37433,14.10849 -12.73779,13.14414c-14.4681,-2.19257 -21.32429,-10.83073 -31.04046,-21.02796c-15.85084,-16.6356 -58.96189,-64.64408 -58.96189,-64.64408z" data-paper-data="{&quot;origRot&quot;:0,&quot;origPos&quot;:null}" fill="#e80000" stroke="#740000"/></g><path d="M79.76545,254.14437v-19.42735h8.53431v19.42735z" fill="#e80000" stroke="none" stroke-width="0" stroke-linecap="butt"/><path d="M136.86948,251.30226v-18.97833h8.5343v18.97837z" fill="#e80000" stroke="none" stroke-width="0" stroke-linecap="butt"/><g><path d="M140.72068,224.43167c-37.34291,16.8669 -80.47473,2.06973 -96.33764,-33.05039c-15.86291,-35.12011 1.55004,-77.26391 38.89295,-94.13081c37.34291,-16.8669 80.47474,-2.06972 96.33765,33.05039c15.86291,35.12011 -1.55004,77.26391 -38.89295,94.13081z" data-paper-data="{&quot;index&quot;:null}" fill="#e7c091" stroke="#525252" stroke-width="1" stroke-linecap="butt"/><path d="M181.02293,138.45477c8.20829,20.90102 4.05263,37.01011 -7.54164,56.24031c-7.93993,13.16913 -14.92961,18.62267 -28.3564,26.11868c-23.37506,13.05002 -62.5913,-0.43992 -80.3859,-20.1427c-16.73575,-18.53037 -22.47047,-29.1953 1.92697,-40.21503c0,0 7.02677,-7.18631 2.3815,4.06569c-1.92963,4.67407 18.35064,-14.03764 32.32424,-17.53356c0,0 5.32133,-3.66809 1.03762,7.1914c-4.68629,11.88006 16.04409,-15.66549 26.28825,-17.43404c0,0 -8.58888,5.26173 1.0689,10.39282c0,0 18.97979,-9.69783 24.16629,-13.94084c7.11173,-5.81802 13.73904,-19.1017 13.73904,-19.1017c0,0 6.70666,7.44281 9.7846,13.75482c1.69105,3.46791 1.16108,4.4791 3.56651,10.60417z" data-paper-data="{&quot;index&quot;:null}" fill="#ffd5a1" stroke="none" stroke-width="0" stroke-linecap="butt"/><path d="M83.40875,98.04892c16.20345,-7.31871 26.17025,-8.65641 43.85279,-6.80076c11.98377,1.25762 20.24606,3.17073 31.15936,8.27883c4.83228,2.26185 8.696,9.32252 8.696,9.32252c2.16907,7.26206 -30.06883,31.05929 -30.06883,31.05929c-6.3082,2.14212 10.30821,-28.53698 4.91186,-21.47558c-5.39631,7.0614 -30.89349,26.40234 -30.89349,26.40234c-10.25841,4.80276 16.42117,-32.29644 3.539,-22.71309c-12.88223,9.58332 -38.06381,36.33657 -38.06381,36.33657c-8.6992,3.92922 12.67916,-28.14401 3.86458,-24.48106c-9.42902,3.91826 -11.12455,8.27303 -17.88212,17.17022c-4.77169,6.2825 -19.298,30.58245 -22.54544,23.39269c-5.86588,-12.98693 0.24673,-28.4005 6.20298,-41.34621c6.69322,-14.54744 22.63346,-28.55411 37.22721,-35.14576z" data-paper-data="{&quot;index&quot;:null}" fill="#ffef4d" stroke="#716a22" stroke-width="1" stroke-linecap="butt"/><path d="M139.54432,159.41366c4.95417,10.96842 7.05518,20.72509 4.69277,21.79214c-2.36243,1.06705 -8.29371,-6.9596 -13.24787,-17.928c-4.95418,-10.96842 -7.05518,-20.7251 -4.69277,-21.79214c2.36243,-1.06705 8.29371,6.9596 13.24787,17.92801z" data-paper-data="{&quot;index&quot;:null}" fill="#000000" stroke="#1c1c1c" stroke-width="1" stroke-linecap="butt"/><path d="M152.33438,154.37248c4.95417,10.96842 7.05518,20.72512 4.69275,21.79217c-2.36243,1.06705 -8.2937,-6.9596 -13.24788,-17.92802c-4.95417,-10.96842 -7.05522,-20.72508 -4.69277,-21.79214c2.36243,-1.06705 8.29373,6.95959 13.24789,17.928z" data-paper-data="{&quot;index&quot;:null}" fill="#000000" stroke="#1c1c1c" stroke-width="1" stroke-linecap="butt"/><path d="M169.0669,188.29137c0,0 -14.0504,8.778 -21.0413,9.82729c-7.85631,1.17918 -23.80403,-3.09629 -23.80403,-3.09629" fill="none" stroke="#000000" stroke-width="1" stroke-linecap="round"/></g><path d="M119.74447,188.89316c0,0 4.30784,0.59067 4.40537,6.60805c0.05023,3.09902 -3.18166,4.40537 -3.18166,4.40537" fill="none" stroke="#000000" stroke-width="1" stroke-linecap="round"/><path d="M-70.24916,417.04177v-449h438v449z" fill="none" stroke="none" stroke-width="0" stroke-linecap="butt"/></g></g></svg>