<svg version="1.1" xmlns="http://www.w3.org/2000/svg" xmlns:xlink="http://www.w3.org/1999/xlink" width="285.35786" height="494.15938" viewBox="0,0,285.35786,494.15938"><g transform="translate(-125.74893,88.26576)"><g data-paper-data="{&quot;isPaintingLayer&quot;:true}" fill-rule="nonzero" stroke-linejoin="miter" stroke-miterlimit="10" stroke-dasharray="" stroke-dashoffset="0" style="mix-blend-mode: normal"><g data-paper-data="{&quot;index&quot;:null}" stroke-linecap="butt"><g><g><path d="M242.45033,118.4918c0.33354,1.30416 -1.90197,7.42364 -2.11349,8.17372c-6.52838,23.15141 -6.25177,28.09644 -6.25177,28.09644c0,0 -7.61139,8.10009 -11.81926,7.98244c-2.99413,-0.08371 -10.95051,-8.33124 -10.95051,-8.33124c0,0 7.80794,-24.15871 11.77341,-33.37581c0.93507,-2.1734 0.38916,-4.62643 2.60089,-12.59794c1.75999,-6.34336 14.88509,2.71836 16.76074,10.05238z" fill="#d9bb9a" stroke="#917c67" stroke-width="4"/><path d="M229.16488,103.36772c1.16209,-2.49416 13.06677,9.71165 13.75944,10.0344c0.69266,0.32272 -0.85427,2.67356 -2.01636,5.16775c-1.16209,2.49416 -1.85187,5.44794 -2.54451,5.12522c-0.11539,-0.05376 -10.88585,-12.96741 -10.7609,-13.97472c0.32998,-2.6603 0.59382,-4.27392 1.56235,-6.35262z" fill="#d9bb9a" stroke="none" stroke-width="0"/><path d="M216.72703,159.90236c-2.36823,-0.70459 -0.53237,-9.02833 2.55707,-19.0094c3.08945,-9.98106 4.49728,-11.47204 6.88828,-18.43567c1.61071,-4.69115 3.03998,-11.01467 4.11266,-16.46943c1.82561,-9.28366 11.05785,5.44474 11.09679,5.82835c0.03539,0.3485 -3.71792,6.96961 -4.00168,7.59004c-3.26026,7.12787 -7.87512,16.45662 -8.11645,18.91116c-0.53309,5.42177 -0.82711,14.19384 -2.01557,18.03344c-3.08945,9.98106 -8.15289,4.25609 -10.52111,3.55152z" fill="#ffdbb5" stroke="none" stroke-width="0"/></g><path d="M235.48502,112.17982c2.48051,2.42292 7.58271,8.61597 7.58271,8.61597c0,0 -4.39036,19.74342 -6.72667,27.07386c-2.32426,7.29269 -9.29279,26.83965 -9.29279,26.83965l-25.50008,-4.45057c0,0 3.30064,-15.26279 6.96739,-24.06677c3.75153,-9.00752 16.97358,-41.22034 16.97358,-41.22034c0,0 7.14772,4.4262 9.99583,7.20821z" fill="#403328" stroke="#292018" stroke-width="4"/></g><g><path d="M242.59176,69.8454c3.12474,-6.70657 7.05396,-13.28427 11.15666,-11.37276c1.34883,0.62844 1.12679,0.58879 1.96248,2.22839c0.82743,1.62333 1.86982,0.08574 2.49615,2.25266c0.24575,0.85024 0.82946,0.31998 0.95176,2.39844c0.08424,1.43174 -1.11847,2.9016 -1.19891,4.64845c-0.11886,2.5815 -0.10468,5.89512 -0.51093,6.76708c-3.12474,6.70657 -8.9837,10.59372 -13.0864,8.6822c-4.10269,-1.91153 -4.8955,-8.89788 -1.77079,-15.60445z" fill="#917c67" stroke="none" stroke-width="NaN"/><g><path d="M251.13932,56.43506c1.50535,1.69603 -7.56162,18.15317 -7.58556,23.23612c-0.02179,4.62293 1.32783,5.91252 3.89213,6.89438c2.39665,0.91764 5.90427,-11.32657 7.35054,-10.67395c1.48453,0.66989 8.0673,-3.4217 3.53832,8.94526c-3.61388,9.86815 -11.37177,24.63764 -12.77275,29.60592c-1.25957,2.60252 -18.17028,-9.24324 -17.09813,-13.09049c0.93507,-2.1734 0.08059,-2.36806 2.2923,-10.33956c2.07297,-7.47136 2.06882,-18.3964 4.3782,-20.85541c6.97781,-7.4299 13.14363,-16.94607 16.00491,-13.72226z" fill="#d9bb9a" stroke="#917c67" stroke-width="4"/><path d="M232.243,101.2815c1.82561,-9.28366 2.82365,-10.95626 3.69711,-15.81795c0.87344,-4.86168 -0.20837,-10.20154 1.0784,-12.33611c3.45004,-5.72317 11.70879,-14.34839 9.66344,-9.25064c-1.66767,4.15638 -6.09753,11.6647 -6.89095,17.01819c-0.37285,2.51558 -0.73723,6.58457 2.2861,9.19583c1.2186,1.05252 8.09101,0.04447 7.61738,3.72397c-0.2404,1.86764 -1.47982,3.32233 -2.37522,5.67925c-3.63419,9.56643 -5.12599,9.52541 -5.08704,9.90902c0.26129,2.57328 -11.06187,-2.66684 -9.9892,-8.1216z" fill="#ffdbb5" stroke="none" stroke-width="0"/></g><path d="M241.39519,90.51955c5.91926,4.84335 13.71848,6.34794 13.71848,6.34794l-10.68955,20.38704l-18.27994,-14.31881l4.22629,-20.66171c0,0 5.4613,3.69335 11.0247,8.24554z" fill="#403328" stroke="#292018" stroke-width="4"/><path d="M244.09227,112.62132l-3.24846,9.07225l-14.31142,-13.3859l3.01959,-8.16105z" fill="#403328" stroke="none" stroke-width="0"/></g></g><path d="M216.89464,85.10739l83.83667,-136.18647l7.14315,-1.88381l-58.3244,164.15758z" fill="#ffffff" stroke="none" stroke-width="0" stroke-linecap="butt"/><path d="M255.87452,-51.39266l-4.92079,-10.48684l25.88665,9.68742l1.43553,-4.03741l-31.69902,-15.10066l-3.18822,-16.93561c0,0 79.4804,37.5701 97.47919,45.05031c6.75417,2.80702 15.39812,1.86083 15.39812,1.86083c0,0 1.468,15.20546 -1.43972,21.78901c-3.25232,7.36381 -19.03292,23.60016 -19.03292,23.60016c0,0 -4.54704,-13.61763 -11.57221,-17.59927c-14.20838,-8.053 -68.34665,-37.8279 -68.34665,-37.8279z" fill="#ffffff" stroke="none" stroke-width="0" stroke-linecap="butt"/><path d="M302.57985,-68.59369l13.84049,-12.7814l-1.87955,18.71837l-8.52781,1.99284z" fill="#ffffff" stroke="none" stroke-width="0" stroke-linecap="butt"/><g data-paper-data="{&quot;index&quot;:null}"><path d="M407.53811,335.21753c1.86889,3.09336 0.70499,3.91592 0.70499,3.91592c0,0 -10.14786,14.91411 -22.12373,26.30613c-2.64212,2.51332 -5.28414,-0.28204 -8.54658,0.63957c-2.57498,0.72743 -1.98012,-0.40265 -2.64796,0.20482c-2.21987,2.01916 -2.722,1.35727 -2.722,1.35727c0,0 -11.71072,-11.55392 -12.94662,-12.79668c-2.36565,-2.37876 -9.51908,-10.4987 -9.51908,-10.4987l21.19019,-26.43176l10.37172,5.2453c0,0 5.99785,4.76381 13.09655,4.35812c4.28044,-0.24461 11.21194,4.50463 13.14252,7.70004z" fill="#403328" stroke="#292018" stroke-width="4" stroke-linecap="butt"/><path d="M395.28839,343.04811l8.63704,-7.24255l0.79772,2.92146c0,0 -6.62946,9.25596 -10.30391,13.64169c-3.22405,3.84813 -9.31853,9.52812 -9.31853,9.52812c0,0 -1.03716,2.66533 -2.97885,0.86904c-1.94169,-1.79629 13.16657,-19.71779 13.16657,-19.71779z" fill="#775f4a" stroke="none" stroke-width="0" stroke-linecap="butt"/><path d="M377.31701,350.21984c0,0 3.75053,-6.35785 7.35667,-10.59709c3.26132,-3.83387 10.8641,-9.88215 10.8641,-9.88215" fill="none" stroke="#292018" stroke-width="4" stroke-linecap="round"/><path d="M382.09549,323.89619c0,0 -1.97989,6.18113 -4.0187,8.90668c-2.47134,3.30375 -9.76303,9.517 -9.76303,9.517l-9.78577,-4.70323l16.838,-7.6217" fill="none" stroke="#292018" stroke-width="4" stroke-linecap="round"/><path d="M367.68389,340.64974l3.32654,-16.13409l6.76304,4.44422" fill="none" stroke="#292018" stroke-width="4" stroke-linecap="round"/></g><g data-paper-data="{&quot;index&quot;:null}"><path d="M368.53221,373.34765c1.86889,3.09336 0.70499,3.91592 0.70499,3.91592c0,0 -10.14786,14.91411 -22.12373,26.30613c-2.64212,2.51332 -5.28414,-0.28204 -8.54658,0.63957c-2.57498,0.72743 -1.98012,-0.40265 -2.64796,0.20482c-2.21987,2.01916 -2.722,1.35727 -2.722,1.35727c0,0 -11.71072,-11.55392 -12.94662,-12.79668c-2.36565,-2.37876 -9.51908,-10.4987 -9.51908,-10.4987l21.19019,-26.43176l10.37172,5.2453c0,0 5.99785,4.76381 13.09655,4.35812c4.28044,-0.24461 11.21194,4.50463 13.14252,7.70004z" fill="#403328" stroke="#292018" stroke-width="4" stroke-linecap="butt"/><path d="M356.28251,381.17824l8.63704,-7.24255l0.79772,2.92146c0,0 -6.62946,9.25596 -10.30391,13.64169c-3.22405,3.84813 -9.31853,9.52812 -9.31853,9.52812c0,0 -1.03716,2.66533 -2.97885,0.86904c-1.94169,-1.79629 13.16657,-19.71779 13.16657,-19.71779z" fill="#775f4a" stroke="none" stroke-width="0" stroke-linecap="butt"/><path d="M338.31112,388.34996c0,0 3.75053,-6.35785 7.35667,-10.59709c3.26132,-3.83387 10.8641,-9.88215 10.8641,-9.88215" fill="none" stroke="#292018" stroke-width="4" stroke-linecap="round"/><path d="M343.08959,362.02632c0,0 -1.97989,6.18113 -4.0187,8.90668c-2.47134,3.30375 -9.76303,9.517 -9.76303,9.517l-9.78577,-4.70323l16.838,-7.6217" fill="none" stroke="#292018" stroke-width="4" stroke-linecap="round"/><path d="M328.67799,378.77988l3.32654,-16.13409l6.76304,4.44422" fill="none" stroke="#292018" stroke-width="4" stroke-linecap="round"/></g><path d="M147.67252,120.71862c0.50368,-6.44183 -2.58461,-24.81712 -2.58461,-24.81712l77.28994,-22.40752c0,0 6.13524,18.76297 9.64422,24.74168c2.28712,3.89685 4.07641,4.2363 4.07641,4.2363c0,0 -1.48373,6.3592 -4.5666,7.3355c-0.98724,0.31265 -3.10431,0.96899 -4.49016,1.45529c-0.55282,0.19397 1.70026,9.01924 1.70026,9.01924c0,0 -2.70471,4.7221 -5.96702,5.81096c-1.35329,0.45167 -6.13965,1.1165 -7.55853,1.63607c-1.59898,0.58554 -4.47415,3.05334 -6.73538,4.69137c-3.65453,2.64728 -9.31288,3.91376 -9.31288,3.91376c0,0 -5.06295,-0.20689 -8.84328,-0.78116c-3.12413,-0.47457 -4.80622,-1.39761 -7.05091,-0.91031c-1.50396,0.3265 -11.83702,6.29461 -12.66106,6.51036c-2.00391,0.52475 -11.26326,-0.99695 -11.26326,-0.99695c0,0 -0.13824,-6.97993 -1.37616,-6.7044c-1.65276,0.36786 -4.58632,-2.41645 -5.54189,-2.25493c-2.95454,0.49939 -6.73551,-3.8932 -6.73551,-3.8932c0,0 1.60506,-1.83491 1.97647,-6.58495z" data-paper-data="{&quot;index&quot;:null}" fill="#14161a" stroke="#14161a" stroke-width="4" stroke-linecap="butt"/><path d="M195.22681,212.55561c0,0 -12.21138,-30.72495 -16.13582,-33.58168c-0.69692,-0.50734 -6.93865,-4.40844 -13.05572,-3.22869c-4.65558,0.89789 -9.66643,7.50925 -9.60549,4.59578c0.141,-6.74156 6.74587,-13.60241 10.80016,-16.9949c8.25204,-6.90506 16.45063,-19.36917 24.61208,-23.41395c8.92023,-4.4208 20.87087,-5.36394 34.93854,-7.00946c13.66959,-1.59897 14.3119,7.93333 14.3119,7.93333c0,0 -7.11234,12.00065 -7.18119,12.85158c-0.33325,4.11828 12.43689,31.73082 12.43689,31.73082l22.97562,30.19647c0,0 -7.05853,14.95017 -28.40278,24.88812c-19.88994,9.26085 -36.18506,8.71698 -36.18506,8.71698z" data-paper-data="{&quot;index&quot;:null}" fill="#95d2a1" stroke="#67916f" stroke-width="4" stroke-linecap="butt"/><path d="M228.29757,169.03622c0.63861,1.28856 2.87123,8.439 4.87834,11.39232c6.90483,10.15995 18.49023,22.27874 17.26614,24.37259c-3.00662,5.14294 -18.74737,10.93143 -23.22216,13.20294c-3.62945,1.84239 -16.51143,8.57086 -21.93721,7.03453c-4.21008,-1.19212 -4.74603,-14.29386 -8.75015,-26.45217c-1.15623,-3.51079 -5.40458,-9.17398 -6.65394,-11.69488c-1.34695,-2.71788 -11.3061,-12.97111 -14.01697,-15.08532c-0.99244,-0.77399 -3.60436,2.91167 -5.54289,3.02757c-1.68127,0.10051 -2.72893,-3.3219 -3.3419,-4.33274c-1.20018,-1.97925 1.28296,-6.73223 4.71191,-10.10091c3.42896,-3.36869 15.26494,-12.44262 21.25833,-15.41291c6.17384,-3.05971 19.43875,-7.55154 25.90391,-7.68522c1.21921,-0.02521 8.80616,-0.88579 9.31963,2.05863c0.37086,2.12668 2.24886,5.60962 0.67011,7.15993c-1.7371,1.70585 -6.95621,1.41694 -6.70699,2.39054c1.19494,4.66801 4.81972,17.41301 6.1638,20.12508z" data-paper-data="{&quot;index&quot;:null}" fill="#a6eab4" stroke="none" stroke-width="0" stroke-linecap="butt"/><g data-paper-data="{&quot;index&quot;:null}" stroke-linecap="butt"><path d="M175.30821,152.17733l-1.31314,-8.74698c0,0 12.77522,-5.11813 23.15057,-7.84604c10.37534,-2.72795 27.67142,-4.74554 27.67142,-4.74554l1.47377,5.38986z" fill="#292018" stroke="#292018" stroke-width="4"/><g><path d="M181.35922,138.52532l32.18562,-8.54957l3.94456,12.88497c0,0 -2.45167,10.02313 -11.14474,12.2915c-8.41726,2.19639 -24.39104,-3.51829 -24.39104,-3.51829z" fill="#d9bb9a" stroke="#917c67" stroke-width="4"/><path d="M210.17652,140.87696c0.32558,1.19071 -1.31604,3.55972 -3.94367,4.27819c-2.62762,0.71848 -5.24628,-0.48564 -5.57186,-1.67632c-0.32558,-1.19071 1.76519,-1.91708 4.39283,-2.63556c2.62762,-0.71848 4.79711,-1.15699 5.12269,0.0337z" fill="#ffdbb5" stroke="none" stroke-width="0"/></g></g><g data-paper-data="{&quot;index&quot;:null}" stroke-linecap="butt"><g fill="#465b9c"><path d="M245.21092,312.41691c-4.85611,-5.93022 -18.22079,-20.83117 -18.22079,-20.83117l23.02985,-23.01975c0,0 20.52195,18.35424 26.0298,24.9102c5.7957,6.89858 14.21015,17.82702 14.21015,17.82702c0,0 -4.71876,11.58278 -8.28983,15.46738c-3.41354,3.71325 -12.65987,8.22832 -12.65987,8.22832c0,0 -18.26356,-15.45543 -24.09929,-22.582z" stroke="#2e3c67" stroke-width="4"/><path d="M229.96536,292.20573l-3.24939,-3.24466l17.04697,-17.10061l3.24939,3.24466z" stroke="none" stroke-width="0"/></g><path d="M237.33094,296.25213c-9.68635,-10.47228 -16.98699,-20.07609 -12.80728,-24.47485c9.66409,-10.17059 17.90437,0.31265 33.47574,17.46468c9.25168,10.19082 18.43175,22.72078 20.7328,29.80009c1.14989,3.53765 -0.36052,6.78792 -1.55735,8.08162c-1.75814,1.90045 -4.30346,3.23216 -6.9491,2.46085c-1.595,-0.46498 -3.43337,-4.21648 -6.40109,-6.55462c-2.16638,-1.70683 -4.80373,-4.00306 -8.06571,-7.02077c-4.51873,-4.18036 -14.30803,-15.30272 -18.428,-19.75699z" fill="#5671c0" stroke="none" stroke-width="0"/></g><g data-paper-data="{&quot;index&quot;:null}" stroke-linecap="butt"><g fill="#465b9c"><path d="M309.87109,380.63069l-1.9425,-4.14524l-2.98361,-0.31882l-1.76901,-3.47034c0,0 -13.30181,-13.05164 -16.23267,-16.6868c-4.81614,-5.97343 -20.60668,-22.53518 -20.60668,-22.53518l21.94207,-24.32354c0,0 22.85973,18.30687 28.32697,24.9067c2.27764,2.74948 11.11481,13.37632 11.11481,13.37632l2.89803,2.90976l0.30149,2.85058l4.2583,2.573c0,0 -7.34318,10.45869 -11.11413,14.55933c-3.60458,3.91975 -14.19304,10.30421 -14.19304,10.30421z" stroke="#2e3c67" stroke-width="4"/><path d="M270.4785,333.13037l-3.83529,-3.8l18.82181,-21.50896c0,0 3.75785,3.79617 4.12618,5.03716c0.14234,0.47957 -4.25728,5.24295 -4.25728,5.24295z" stroke="none" stroke-width="0"/></g><path d="M269.04795,329.61402c-2.48467,-3.60929 0.50033,-4.08788 2.49351,-6.37344c3.69649,-2.39203 4.48558,-8.59697 6.83285,-5.65959c11.31831,14.16365 28.15561,28.85507 32.40429,33.12493c2.39537,2.4073 9.58934,4.86146 8.35084,9.06058c-0.4814,1.63218 -2.46825,5.07464 -4.9543,6.93847c-2.61448,1.96014 -4.39289,3.13227 -6.39219,2.98209c-1.99931,-0.15018 -2.2066,-3.97934 -3.04752,-3.6912c-2.67898,0.91795 -11.23417,-12.32634 -18.63028,-19.75927c-3.93738,-3.95696 -14.22873,-12.51379 -17.05724,-16.62253z" fill="#5671c0" stroke="none" stroke-width="0"/></g><path d="M150.60214,106.6447c-7.36218,-25.40635 3.78294,-44.31263 26.07177,-50.77141c22.28881,-6.45875 41.81559,3.5595 49.17775,28.96584c7.36217,25.40636 -9.23808,49.09686 -19.34351,52.24149c-23.20443,7.22086 -48.54385,-5.02958 -55.90602,-30.43592z" data-paper-data="{&quot;index&quot;:null}" fill="#d9bb9a" stroke="#917c67" stroke-width="4" stroke-linecap="butt"/><path d="M220.18124,87.03637c5.88972,20.32507 -4.8826,41.39601 -15.19252,44.38358c-20.13211,6.15853 -42.29863,-5.69222 -48.18836,-26.01731c-5.88972,-20.32507 1.61744,-37.59049 22.15008,-43.54037c20.27707,-5.87582 35.34109,4.84898 41.23083,25.17407z" fill="#ffdbb5" stroke="none" stroke-width="0" stroke-linecap="butt"/><path d="M209.40499,111.18716c0.35658,1.3041 -1.54381,5.09789 -4.66228,5.95061c-3.11848,0.85271 -5.2751,-0.15814 -5.63169,-1.46224c-0.35658,-1.3041 1.22191,-2.40761 4.34039,-3.26033c3.11848,-0.85271 5.59702,-2.53213 5.95358,-1.22803z" fill="#d9bb9a" stroke="none" stroke-width="0" stroke-linecap="butt"/><path d="M213.77472,120.20802c0,0 -5.57361,4.15478 -9.13478,5.23528c-3.64891,1.10714 -11.24884,0.11763 -11.24884,0.11763" fill="none" stroke="#d9bb9a" stroke-width="4" stroke-linecap="round"/><g data-paper-data="{&quot;index&quot;:null}" stroke-linecap="butt"><g fill="#465b9c"><path d="M299.79704,306.05182c0,0 -11.58157,-7.50495 -18.92541,-12.73013c-6.97909,-4.96562 -26.86537,-24.00698 -26.86537,-24.00698l21.62011,-25.24428c0,0 15.92031,12.1385 22.22468,16.5032c7.57623,5.24523 24.38868,22.26922 24.38868,22.26922c0,0 -3.91849,9.71535 -7.42648,13.48384z" stroke="#2e3c67" stroke-width="4"/><path d="M260.38844,265.70396l-3.48974,-2.98488l16.06505,-18.69157l3.48974,2.98488z" stroke="none" stroke-width="0"/></g><path d="M299.84715,273.11285c3.26198,3.01772 5.89171,5.3222 7.75855,7.35279c2.55738,2.78169 6.20965,5.16676 6.78668,6.73213c0.95713,2.59647 1.41126,2.93091 -0.38338,4.8708c-1.22168,1.32056 -5.76333,4.61218 -9.40519,3.76824c-7.28787,-1.68883 -19.16446,-11.30406 -30.06001,-19.71794c-18.33813,-14.16129 -29.45941,-21.53037 -19.8724,-32.16909c4.14636,-4.60123 13.63255,2.64013 24.84123,11.46685c4.76747,3.75434 20.3345,17.69619 20.3345,17.69619z" fill="#5671c0" stroke="none" stroke-width="0"/></g><g data-paper-data="{&quot;index&quot;:null}" stroke-linecap="butt"><g fill="#465b9c"><path d="M360.74312,334.36028c-3.66988,3.94244 -13.24136,11.76752 -13.24136,11.76752l-2.91856,-4.02114l-2.82288,-0.12512l-3.12228,-2.66734c0,0 -11.24064,-8.02882 -14.14811,-10.09749c-6.97909,-4.96562 -27.05326,-26.28351 -27.05326,-26.28351l21.80796,-22.96768c0,0 17.70595,14.49132 24.01034,18.85603c3.83657,2.65617 17.86967,14.91731 17.86967,14.91731l3.56695,1.52688l0.58998,2.90621l4.24479,1.6566c0,0 -5.2752,10.76325 -8.78319,14.53176z" stroke="#2e3c67" stroke-width="4"/><path d="M306.33608,299.08112c0,0 -4.26119,4.59848 -4.74461,4.48759c-1.25097,-0.2869 -5.32229,-3.74425 -5.32229,-3.74425l19.58333,-20.30192l4.21932,3.3849z" stroke="none" stroke-width="0"/></g><path d="M331.38237,300.67904c7.97523,6.80695 21.75589,14.40276 21.10497,17.08428c-0.20431,0.84173 3.56925,0.81597 3.90237,2.76721c0.33311,1.95122 -0.65076,3.76496 -2.32952,6.44553c-1.59626,2.54888 -4.78669,4.70276 -6.34221,5.27235c-4.00187,1.46543 -7.07686,-5.44112 -9.65979,-7.64567c-4.58135,-3.91026 -20.55084,-19.53971 -35.48986,-29.78962c-3.09815,-2.12571 2.91209,-3.27047 4.91368,-7.03772c2.05555,-2.09092 2.24727,-5.04616 6.01699,-2.82592c4.29138,2.52746 13.63768,12.10586 17.88334,15.72958z" fill="#5671c0" stroke="none" stroke-width="0"/></g><g data-paper-data="{&quot;index&quot;:null}"><g><g><path d="M225.86062,290.10633c0,0 -7.56479,-16.69572 -10.26471,-24.49779c-2.68966,-7.77237 -5.14556,-19.53708 -5.14556,-19.53708l57.50763,-28.02526c0,0 8.6266,10.26133 11.81516,15.96261c5.91636,10.57866 11.74021,24.43157 11.74021,24.43157l-30.01761,14.79598l-2.85777,-4.79271l-3.75937,1.24484l2.75947,5.08866z" fill="#465b9c" stroke="#2e3c67" stroke-width="4" stroke-linecap="butt"/><path d="M252.40122,244.99944c0,0 6.44197,12.60373 7.88457,16.48931c0.77875,2.09753 0.08666,4.98052 0.08666,4.98052" fill="none" stroke="#2e3c67" stroke-width="4" stroke-linecap="round"/><path d="M245.96216,255.79293l-3.02476,-6.10329l9.4638,-4.69021" fill="none" stroke="#2e3c67" stroke-width="4" stroke-linecap="round"/><path d="M223.64047,255.02035c0,0 1.52857,9.3666 1.75978,12.93162c0.17243,2.65891 -0.49645,6.5488 -0.49645,6.5488" fill="none" stroke="#2e3c67" stroke-width="4" stroke-linecap="round"/><path d="M282.40442,248.37954c0,0 -3.50043,-1.82358 -5.51182,-3.57114c-2.69682,-2.34308 -9.22446,-9.23215 -9.22446,-9.23215" data-paper-data="{&quot;index&quot;:null}" fill="none" stroke="#2e3c67" stroke-width="4" stroke-linecap="round"/><path d="M228.7071,291.94304l-3.95688,-9.89459l25.77748,-12.47006l3.65927,10.04207z" fill="#465b9c" stroke="none" stroke-width="0" stroke-linecap="butt"/><path d="M264.7597,274.97463l-4.19065,-9.77872l24.70592,-12.54914l4.74787,9.70056z" data-paper-data="{&quot;index&quot;:null}" fill="#465b9c" stroke="none" stroke-width="0" stroke-linecap="butt"/></g><g stroke="#281a0d" stroke-width="4" stroke-linecap="butt"><path d="M209.89334,253.47467c0,0 -2.00452,-3.46773 -2.48766,-5.08772c-0.52207,-1.75057 0.19829,-4.46848 0.19829,-4.46848l8.59203,-4.65411c0,0 4.54791,1.99598 5.28309,3.47945c0.73517,1.48343 -0.87201,5.42119 -0.87201,5.42119z" fill="#3f2b1a"/><path d="M220.27093,249.2819l-2.93002,-9.95139l9.13821,-4.44963c0,0 4.54791,1.99598 5.28309,3.47945c0.73517,1.48343 -0.87201,5.42119 -0.87201,5.42119z" fill="#67472a"/><path d="M231.25778,244.07446l-3.0141,-9.67216l9.22224,-4.72886c0,0 4.54791,1.99599 5.28309,3.47945c0.73517,1.48343 -0.87201,5.42118 -0.87201,5.42118z" fill="#3f2b1a"/><path d="M243.15726,238.73654l-4.52646,-9.72539l10.02575,-5.01528c0,0 4.62552,1.76439 5.42847,3.21199c0.80295,1.44759 -0.61076,5.47357 -0.61076,5.47357z" fill="#67472a"/><path d="M253.8544,232.95585l-3.80174,-9.60942l9.30102,-5.13125c0,0 4.62552,1.76439 5.42846,3.21198c0.80295,1.44759 -0.61076,5.47357 -0.61076,5.47357z" fill="#3f2b1a"/><path d="M264.65832,227.36803l-3.94848,-9.29912l7.24966,-4.35217c0,0 3.98156,2.08354 4.76984,3.53839c0.78827,1.45485 -0.04023,5.19082 -0.04023,5.19082z" fill="#67472a"/></g><path d="M215.15528,252.61147l-4.62683,-11.95883l5.11127,-2.69876l6.2339,11.16239z" fill="#465b9c" stroke="#2e3c67" stroke-width="4" stroke-linecap="butt"/><g fill="#67472a" stroke="#281a0d" stroke-width="4" stroke-linecap="butt"><path d="M263.71365,226.56906l1.04713,-10.17122l10.37111,-0.40998c0,0 3.20868,3.60797 3.25031,5.24223c0.04165,1.63426 -3.00048,4.5633 -3.00048,4.5633z"/></g><path d="M236.86662,244.6208c0,0 -3.28492,-3.93547 -4.37969,-6.14449c-1.07905,-2.17725 -2.14242,-7.01571 -2.14242,-7.01571l15.7135,-7.7875c0,0 3.96659,4.41337 5.11491,6.73044c1.00716,2.03221 1.4072,6.42979 1.4072,6.42979z" fill="none" stroke="#716b65" stroke-width="4" stroke-linecap="butt"/><path d="M263.57433,228.68725l-5.10691,-11.72091l5.24308,-2.4328l6.71398,10.92447z" data-paper-data="{&quot;index&quot;:null}" fill="#465b9c" stroke="#2e3c67" stroke-width="4" stroke-linecap="butt"/></g><path d="M248.74512,282.26557c1.3486,2.72119 -11.4211,6.65012 -15.89999,8.86981c-2.39564,1.18728 -5.46894,-10.14284 -5.85951,-13.13224c-0.46452,-3.55528 3.16724,-9.09278 7.64611,-11.31249c4.47888,-2.21969 12.76479,12.85375 14.11339,15.57491z" fill="#5671c0" stroke="none" stroke-width="0" stroke-linecap="butt"/><path d="M269.76118,273.5157c-1.3486,-2.72119 -8.32491,-18.44367 -3.84604,-20.66335c4.47888,-2.21969 11.08483,-1.75592 13.63261,0.76693c2.14222,2.12128 9.29678,11.42874 6.90114,12.616c-4.47888,2.21969 -15.33907,10.0016 -16.68769,7.28043z" data-paper-data="{&quot;index&quot;:null}" fill="#5671c0" stroke="none" stroke-width="0" stroke-linecap="butt"/></g><g data-paper-data="{&quot;index&quot;:null}" stroke="none" stroke-width="0" stroke-linecap="butt"><path d="M227.14511,93.9095c1.93795,7.08748 -1.66638,14.24813 -8.05052,15.99377c-6.38413,1.74563 -13.13052,-2.58477 -15.06846,-9.67225c-1.93795,-7.08748 1.66639,-14.24812 8.05053,-15.99376c6.38415,-1.74564 13.13052,2.58477 15.06846,9.67225z" fill="#d3f0f1"/><path d="M211.21398,85.526c5.29883,-1.44887 11.03349,2.63966 12.80872,9.13201c1.77522,6.49233 -1.08124,12.92996 -6.38005,14.37884c-5.29883,1.44887 -11.03348,-2.63965 -12.80871,-9.132c-1.77522,-6.49233 1.08123,-12.92997 6.38004,-14.37885z" fill="#ffffff"/></g><g data-paper-data="{&quot;index&quot;:null}" stroke="none" stroke-width="0" stroke-linecap="butt"><g data-paper-data="{&quot;index&quot;:null}"><path d="M227.30155,95.508c1.51817,5.55227 -0.44188,10.9257 -4.37786,12.00193c-3.936,1.07623 -8.35745,-2.55228 -9.87561,-8.10455c-1.51816,-5.55225 0.44185,-10.92569 4.37784,-12.00191c3.936,-1.07623 8.35747,2.55231 9.87564,8.10455z" fill="#41563d"/><path d="M221.66175,104.3027c-3.63893,0.99502 -7.56562,-3.17858 -8.40401,-6.24476c-0.8384,-3.06617 -1.00228,-8.91816 4.78812,-10.50146c3.63893,-0.99502 8.0891,3.68497 8.92749,6.75115c0.83839,3.06616 -1.67267,9.00007 -5.3116,9.99506z" fill="#5f7d59"/></g><path d="M213.34989,95.71142c-0.63753,-2.33154 0.73574,-4.73845 3.06731,-5.37598c2.33154,-0.63753 4.73845,0.73575 5.37598,3.06731c0.63753,2.33155 -0.73575,4.73845 -3.06731,5.37598c-2.33154,0.63753 -4.73844,-0.73575 -5.37597,-3.06731z" fill="#8ebb85"/><path d="M218.0971,98.95064c-0.35268,-1.28979 0.40701,-2.62129 1.69681,-2.97395c1.28979,-0.35268 2.62129,0.40701 2.97395,1.69681c0.35268,1.28979 -0.407,2.62129 -1.6968,2.97396c-1.28979,0.35268 -2.62129,-0.40702 -2.97396,-1.69681z" fill="#8ebb85"/></g><g data-paper-data="{&quot;index&quot;:null}" stroke="none" stroke-width="0" stroke-linecap="butt"><path d="M173.63838,93.86484c6.38413,-1.74563 13.13052,2.58477 15.06848,9.67226c1.93795,7.08748 -1.66637,14.24812 -8.05053,15.99376c-6.38413,1.74563 -13.13052,-2.58476 -15.06846,-9.67225c-1.93795,-7.08748 1.66639,-14.24812 8.05053,-15.99376z" fill="#d3f0f1"/><path d="M187.84544,103.66735c1.77522,6.49235 -1.08123,12.92996 -6.38004,14.37884c-5.29883,1.44887 -11.03349,-2.63966 -12.80872,-9.132c-1.77522,-6.49233 1.08124,-12.92997 6.38005,-14.37885c5.29883,-1.44887 11.03348,2.63966 12.80871,9.13201z" fill="#ffffff"/></g><g data-paper-data="{&quot;index&quot;:null}" stroke="none" stroke-width="0" stroke-linecap="butt"><g data-paper-data="{&quot;index&quot;:null}"><path d="M182.20336,96.21747c3.936,-1.07623 8.35745,2.55231 9.87561,8.10455c1.51817,5.55227 -0.44185,10.92569 -4.37784,12.00191c-3.936,1.07623 -8.35746,-2.55229 -9.87564,-8.10455c-1.51816,-5.55225 0.44186,-10.92569 4.37786,-12.00193z" fill="#41563d"/><path d="M177.4973,107.01903c-0.8384,-3.06617 0.6113,-9.35938 4.25026,-10.35437c5.7904,-1.58329 8.62696,3.53791 9.46536,6.60408c0.83839,3.06616 -0.41835,8.65708 -4.05727,9.65209c-3.63893,0.99502 -8.81993,-2.83562 -9.65834,-5.90179z" fill="#5f7d59"/></g><path d="M186.8723,106.67156c-2.33154,0.63753 -4.73845,-0.73575 -5.37598,-3.06731c-0.63753,-2.33154 0.73575,-4.73846 3.06732,-5.37599c2.33154,-0.63753 4.73845,0.73576 5.37597,3.06732c0.63753,2.33154 -0.73574,4.73845 -3.06731,5.37598z" fill="#8ebb85"/><path d="M185.80423,109.47358c-1.28979,0.35268 -2.62129,-0.40701 -2.97395,-1.69681c-0.35268,-1.28979 0.407,-2.62129 1.6968,-2.97396c1.28979,-0.35268 2.62129,0.40702 2.97396,1.69681c0.35268,1.28979 -0.40701,2.62129 -1.69681,2.97395z" fill="#8ebb85"/></g><g data-paper-data="{&quot;index&quot;:null}" stroke-linecap="butt"><g data-paper-data="{&quot;index&quot;:null}" fill="#403328"><g><path d="M279.28117,233.26323c-4.88542,3.18836 -23.25209,2.4911 -23.25209,2.4911c0,0 -22.46339,-45.81021 -31.29773,-61.71943c-8.18592,-14.74154 -11.88793,-22.89493 -11.88793,-22.89493c0,0 4.92148,-7.09436 4.62682,-12.50372c-0.17922,-3.29004 -2.0235,-4.91201 -0.76341,-5.90966c2.97949,-2.35899 5.40771,-1.2374 12.02245,-1.0412c6.61472,0.19618 15.18075,2.99244 17.52931,4.60039c2.34856,1.60793 -4.31082,4.44959 -4.31082,4.44959c0,0 -3.90926,5.77648 -6.6794,9.3394c-2.15186,2.76771 9.05919,24.0988 9.05919,24.0988l6.44804,13.10629l27.42608,33.62541c0,0 4.39565,10.19381 1.07953,12.35804z" stroke="#292018" stroke-width="4"/><path d="M242.5224,136.98559c0,0 2.91571,1.40123 3.75945,2.11829c0.79666,0.67706 1.77485,2.4839 1.77485,2.4839c0,0 -8.03824,11.80883 -9.61749,13.3753c-0.52261,0.51839 -4.17391,1.99899 -6.04618,-0.64325c-1.87227,-2.64224 -1.12199,-6.47216 -1.12199,-6.47216z" stroke="none" stroke-width="NaN"/></g><path d="M218.51599,140.10309c-1.04149,2.84165 -3.85386,7.26257 -3.85386,7.26257l-3.60339,-9.79585l5.90272,-10.21273l2.37718,3.46328c0,0 0.26206,6.32311 -0.82263,9.28273z" stroke="#292018" stroke-width="4"/></g><path d="M226.63098,159.68992c0.86959,1.75467 0.98978,3.46691 0.26845,3.8244c-0.72134,0.35748 -2.01105,-0.77514 -2.88065,-2.52982c-0.86959,-1.75467 -0.98978,-3.46691 -0.26845,-3.8244c0.72134,-0.35748 2.01104,0.77513 2.88065,2.52982z" fill="#dfbd28" stroke="#dfbd28" stroke-width="4"/><path d="M236.61407,179.25915c0.86959,1.75466 0.98978,3.46691 0.26845,3.8244c-0.72134,0.35748 -2.01105,-0.77514 -2.88065,-2.52982c-0.86959,-1.75466 -0.98978,-3.46691 -0.26845,-3.8244c0.72134,-0.35748 2.01105,0.77514 2.88065,2.52982z" fill="#dfbd28" stroke="#dfbd28" stroke-width="4"/><path d="M246.66063,198.21782c0.86959,1.75466 0.98978,3.46691 0.26845,3.8244c-0.72134,0.35748 -2.01105,-0.77514 -2.88065,-2.52982c-0.86959,-1.75466 -0.98978,-3.46691 -0.26845,-3.8244c0.72134,-0.35748 2.01105,0.77514 2.88065,2.52982z" fill="#dfbd28" stroke="#dfbd28" stroke-width="4"/><path d="M256.13687,216.10778c0.86959,1.75466 0.98978,3.46691 0.26845,3.8244c-0.72134,0.35748 -2.01105,-0.77514 -2.88065,-2.52982c-0.86959,-1.75466 -0.98978,-3.46691 -0.26845,-3.8244c0.72134,-0.35748 2.01105,0.77514 2.88065,2.52982z" fill="#dfbd28" stroke="#dfbd28" stroke-width="4"/></g><g data-paper-data="{&quot;index&quot;:null}" stroke="#292018" stroke-width="4"><path d="M204.66165,255.7702l-10.08925,-39.33464l-7.37592,-15.34906c0,0 -6.65492,-23.3188 -10.95377,-22.8896c-5.53396,0.55257 -14.02267,0.9204 -14.02267,0.9204c0,0 -8.1106,4.47828 -7.6184,1.46248c0.4922,-3.01582 5.07142,-12.32674 10.38866,-18.43632c5.31723,-6.10958 6.31683,-8.92999 10.93242,-10.33506c1.95204,-0.59423 1.8915,1.97174 4.72769,3.945c4.66318,3.24433 15.18852,2.68335 15.18852,2.68335c0,0 4.3222,7.84603 10.89683,23.38612c7.09541,16.77104 29.99791,62.36363 29.99791,62.36363c0,0 -7.74744,14.45003 -14.69886,17.12791c-4.71852,1.81769 -17.37314,-5.54425 -17.37314,-5.54425z" fill="#403328" stroke-linecap="butt"/><path d="M177.78375,152.44632l-2.85667,-5.11751l16.92221,0.52245l5.89432,8.6605c0,0 -6.34756,0.11866 -9.79102,-0.50027c-3.5864,-0.64464 -10.16885,-3.56519 -10.16885,-3.56519z" fill="#403328" stroke-linecap="butt"/><path d="M194.8807,170.5153l3.40184,8.5455" fill="none" stroke-linecap="round"/><path d="M203.28646,191.17514l3.46996,6.58128" fill="none" stroke-linecap="round"/><path d="M216.27409,217.63355l-3.2891,-7.057" fill="none" stroke-linecap="round"/><path d="M221.49949,229.52233l3.67313,7.83189" fill="none" stroke-linecap="round"/></g><path d="M158.57558,116.08363c2.50893,5.01902 4.59258,7.61038 3.44211,8.90646c-1.15047,1.29607 -8.13049,-0.79191 -10.63943,-5.81093c-2.50893,-5.01902 0.23745,-10.62393 1.87312,-11.19665c2.97714,-1.04241 2.81527,3.08209 5.32422,8.10112z" data-paper-data="{&quot;index&quot;:null}" fill="#d9bb9a" stroke="#917c67" stroke-width="4" stroke-linecap="butt"/><g data-paper-data="{&quot;index&quot;:null}"><g><path d="M151.50495,108.86962c0.47509,2.6918 -3.47529,5.87234 -3.47529,5.87234c0,0 -2.41966,2.11077 -4.3077,-0.1326c-1.53767,-1.82708 -6.32235,-4.1356 -6.32235,-4.1356c0,0 0.82596,-3.03845 1.96902,-6.53636c0.29538,-0.90393 -4.10226,-2.00995 -5.5478,-3.25712c-1.44552,-1.24715 -5.45233,-8.35719 -5.45233,-8.35719c0,0 6.00283,-4.33736 6.34781,-9.14555c0.17116,-2.38577 -0.8023,-5.89515 -0.62161,-7.42909c1.02942,-8.73967 -1.26802,-9.96464 1.68524,-15.19909c0.30862,-0.54704 6.49886,-7.95103 6.77383,-8.44376c4.78925,-8.58203 5.88516,-9.26739 15.73119,-13.11367c10.41133,-4.0671 17.31363,-9.86048 24.60864,-8.45424c4.76348,0.91826 16.62955,3.09778 24.53729,3.51854c8.93192,5.39843 13.06624,9.30665 16.40168,18.36597c1.06998,2.90615 -0.78758,5.67073 1.31931,8.4219c0.95573,1.24798 11.17942,9.88275 11.17942,9.88275c0,0 -0.50685,4.00698 -2.1964,5.98807c-1.67395,1.96282 -4.04271,2.20221 -4.23694,3.45116c-0.42371,2.72451 1.31623,4.90229 1.44854,6.78679c0.09627,1.371 -0.25546,2.21813 -0.7855,3.67312c-0.89471,2.45599 -1.82361,-0.69843 -2.31785,-2.81368c-0.92383,-3.95392 -2.63144,-6.4745 -2.45065,-5.84994c-1.2965,1.19279 -0.06887,0.81891 -7.01896,1.50962c-0.38658,0.03843 -2.41677,-2.3363 -4.17252,-3.07939c-1.75575,-0.74308 -4.0855,-4.53186 -4.0855,-4.53186c0,0 -8.69231,7.51477 -12.94091,9.11259c-6.12952,2.30518 -12.76063,6.49704 -16.45298,7.12572c-9.02582,1.53677 -13.22712,1.59626 -16.72858,2.47698c-3.25903,0.81975 -8.03247,5.6634 -10.32457,5.32369c0,0 -3.18719,5.43646 -2.56357,8.96989z" fill="#252931" stroke="#14161a" stroke-width="4" stroke-linecap="butt"/><path d="M207.90354,68.04248c-20.04402,15.84407 -42.67853,18.33509 -60.40413,25.24267c-3.66948,1.42997 -5.76368,-1.30215 -5.76368,-1.30215c0,0 4.3069,-8.86436 1.6868,-18.44663c-1.26102,-4.6118 1.76761,-15.90884 8.42048,-23.36857c5.53012,-6.20079 19.24477,-10.87206 25.67451,-14.22718c4.16406,-2.17286 4.99569,1.41858 9.00717,0.32171c11.38689,-3.11355 12.33647,4.15083 18.05546,10.36468c4.16254,4.52275 6.1879,19.15122 3.32339,21.41551z" fill="#494c5e" stroke="none" stroke-width="0" stroke-linecap="butt"/><path d="M190.90604,43.81149c-0.35544,-1.29994 -4.84999,3.12428 -5.92083,1.56817c-0.78592,-1.14209 0.93668,-3.72967 0.97071,-5.7905c0.00979,-0.59306 -1.37619,-2.4706 -3.74279,-3.10005c-1.96972,-0.5239 -4.99139,0.18993 -5.00174,-0.2273c-0.04203,-1.69493 8.718,-2.67521 9.6178,-2.92125c3.57208,-0.97672 19.19858,5.24394 20.20632,8.92944c0.06114,0.22357 9.88877,17.48706 6.33384,26.90857c-0.51334,1.3605 -7.70474,3.33838 -8.65715,1.45199c-0.29942,-0.59307 -4.82288,-0.47767 -4.34239,-2.80085c0.6546,-3.16502 7.96354,-8.05645 7.48181,-8.72057c-1.37557,-1.89642 -11.71827,7.99075 -13.70311,5.2289c-1.98483,-2.76185 9.4227,-14.49878 6.76122,-16.2081c-2.65467,1.99992 -8.6189,9.15495 -10.01418,8.15282c-4.22816,-3.03679 1.01821,-8.78577 0.01047,-12.47126z" fill="#252931" stroke="none" stroke-width="0" stroke-linecap="butt"/><path d="M157.14644,86.85379c-0.29331,1.31535 1.78323,-0.40696 3.70708,-0.42868c1.92385,-0.02172 8.13574,-1.09716 7.14248,0.70884c-0.52375,0.95234 -10.48145,2.7071 -10.89055,3.52977c-0.755,1.51809 -2.96138,3.27146 -3.87187,3.06844c-2.19112,-0.48856 -9.78805,4.87126 -12.57536,0.30753c-1.81062,-2.96452 2.08964,-10.52225 2.41709,-11.99076c0.05046,-0.22622 -3.57419,-18.15642 3.97181,-24.82427c1.08966,-0.96285 8.44235,-5.54883 8.40271,-3.43601c-0.01246,0.66425 -3.12317,8.23097 -4.6337,10.06028c-2.05788,2.49217 -4.00512,4.6728 -3.88963,5.48509c0.32979,2.31946 13.16468,-4.37074 13.29179,-2.23342c0.2019,3.39509 -13.37884,10.86359 -12.05097,11.92318c1.51407,1.20814 7.44344,-3.25096 13.84332,-6.54967c4.95654,-2.55479 10.86039,-4.24213 11.01118,-3.14491c0.13999,1.01863 -0.57249,3.96972 -2.08734,5.33198c-4.40744,3.96347 -13.16923,9.41728 -13.78806,12.1926z" fill="#252931" stroke="none" stroke-width="0" stroke-linecap="butt"/><path d="M215.95926,67.72368c0,0 -3.65315,7.23318 -4.46749,7.87588c-1.62845,1.28521 -5.18941,3.17272 -5.18941,3.17272" fill="none" stroke="#14161a" stroke-width="4" stroke-linecap="round"/><path d="M166.96984,52.67124c-1.38711,-2.85506 0.74117,-6.43006 4.17784,-8.09971c3.43665,-1.66968 8.40901,-4.08859 9.79613,-1.23352c1.38711,2.85506 -2.3453,8.63409 -5.78195,10.30376c-3.43664,1.66967 -6.8049,1.88453 -8.19201,-0.97051z" fill="#686c85" stroke="none" stroke-width="0" stroke-linecap="butt"/><path d="M155.71981,61.69883c-0.80088,-1.64844 1.33423,-4.30846 3.31847,-5.27248c1.98425,-0.96402 4.33508,-0.87599 5.13597,0.77245c0.80088,1.64844 -0.73751,3.26258 -2.72175,4.22661c-1.98425,0.96402 -4.93182,1.92188 -5.73267,0.27344z" fill="#686c85" stroke="none" stroke-width="0" stroke-linecap="butt"/><path d="M180.85367,56.04056c-1.04084,-1.50843 -0.088,-2.49351 1.72772,-3.74641c1.81571,-1.2529 2.87709,-2.81749 3.91796,-1.30904c1.04084,1.50843 -0.23582,3.33656 -2.05153,4.58946c-1.81571,1.2529 -2.55327,1.97442 -3.59413,0.46599z" fill="#686c85" stroke="none" stroke-width="0" stroke-linecap="butt"/></g><path d="M226.89812,73.74893c-1.42486,0.7294 1.05953,3.29496 0.02049,3.57906c-1.09358,0.29902 -3.42254,-1.17903 -5.09068,-2.29177c-2.13741,-1.42581 -3.19996,-2.31352 -3.51344,-3.45999c-0.34067,-1.24589 0.16293,-0.36989 1.47057,-1.06263c0.83471,-0.44219 0.80442,-5.13715 1.77642,-5.40294c0.92606,-0.25322 1.316,1.87922 3.11234,3.35174c0.28571,0.23421 -0.44363,-6.21584 1.18329,-4.23501c0.90259,1.09896 5.25134,3.18933 7.35251,6.62196c2.10115,3.43263 -4.16309,-0.86773 -5.03685,0.27935c-0.87374,1.14708 2.3681,1.69121 2.64545,2.70551c0,0 -1.92373,-1.10726 -3.92013,-0.0853z" fill="#494c5e" stroke="none" stroke-width="0" stroke-linecap="butt"/><path d="M212.43532,47.25767c0.7172,0.8307 -0.20898,2.77494 -3.23503,5.38756c-3.02606,2.61263 -4.14381,3.5331 -4.86101,2.70241c-0.71721,-0.83068 0.33305,-3.39742 3.3591,-6.01008c3.02606,-2.61263 4.01972,-2.91059 4.73693,-2.0799z" fill="#494c5e" stroke="none" stroke-width="0" stroke-linecap="butt"/></g><path d="M216.94732,87.55487c-5.10809,2.02705 -11.3446,5.32358 -12.51695,2.55932c-1.17234,-2.76423 9.31515,-8.62674 14.42325,-10.65379c5.1081,-2.02703 8.29194,-1.13112 9.46429,1.63311c1.17234,2.76423 -6.26248,4.43428 -11.37058,6.46135z" data-paper-data="{&quot;index&quot;:null}" fill="#424956" stroke="#14161a" stroke-width="4" stroke-linecap="butt"/><path d="M162.44594,98.64081c-0.39728,-2.97618 1.88773,-5.36744 7.31655,-6.22155c5.42883,-0.8541 17.44019,-1.14355 17.83743,1.83262c0.39728,2.97618 -6.64892,3.31157 -12.07773,4.16568c-5.42883,0.8541 -12.67901,3.1994 -13.07626,0.22324z" data-paper-data="{&quot;index&quot;:null}" fill="#424956" stroke="#14161a" stroke-width="4" stroke-linecap="butt"/><g data-paper-data="{&quot;index&quot;:null}" stroke-linecap="butt"><g><g><g><path d="M192.96755,123.67226c2.9384,-5.89082 14.09261,5.5095 14.53391,13.06667c0.07847,1.34384 -3.28396,6.92414 -3.63476,7.62006c-10.82725,21.47972 -17.23085,28.50947 -17.23085,28.50947c0,0 -3.28627,4.37553 -7.39433,3.45689c-2.9231,-0.65369 -9.159,-10.26818 -9.159,-10.26818c0,0 12.27555,-22.22425 17.92739,-30.51501c1.33272,-1.95496 1.26506,-4.46709 4.95765,-11.86989z" fill="#d9bb9a" stroke="#917c67" stroke-width="4"/><path d="M194.60084,125.29471c0.83168,-2.54842 1.39867,-4.08199 2.74613,-5.93761c1.61679,-2.2265 10.97288,12.02717 11.59123,12.47618c0.61832,0.44901 -1.34885,2.46134 -2.96565,4.68786c-1.61678,2.22651 -2.85762,4.99434 -3.47596,4.54535c-0.10299,-0.07479 -8.21064,-14.8068 -7.89571,-15.77173z" fill="#d9bb9a" stroke="none" stroke-width="0"/><path d="M185.35258,171.00036c-4.93772,9.20788 -8.81536,2.62173 -11.00555,1.47807c-2.1902,-1.14366 1.20068,-8.96397 6.13839,-18.17186c4.93773,-9.20788 6.60427,-10.40273 10.28044,-16.78197c2.47651,-4.29751 5.08645,-10.23194 7.18057,-15.3817c3.56402,-8.76449 9.81532,7.45526 9.78034,7.83924c-0.03179,0.34886 -4.97984,6.13183 -5.37682,6.6867c-4.56079,6.37452 -10.8714,14.65096 -11.57677,17.0143c-1.55813,5.22035 -3.52109,13.77499 -5.42056,17.31716z" fill="#ffdbb5" stroke="none" stroke-width="0"/></g><path d="M193.43267,120.22995c0,0 6.17147,5.70913 8.43625,8.98359c1.97245,2.85181 5.7988,9.90488 5.7988,9.90488c0,0 -8.86184,17.97331 -12.55436,24.72305c-3.6735,6.715 -14.49441,24.09198 -14.49441,24.09198l-23.14841,-8.18626c0,0 6.15314,-14.35221 11.43292,-22.29444c5.40184,-8.12584 24.52925,-37.2228 24.52925,-37.2228z" fill="#403328" stroke="#292018" stroke-width="4"/></g><g><path d="M216.92539,89.01386c4.34735,-5.98688 9.45984,-11.69367 13.12225,-9.0342c1.20409,0.87435 0.99369,0.79301 1.50108,2.56197c0.50237,1.75142 1.81908,0.44108 2.02029,2.68768c0.07896,0.88153 0.75312,0.4724 0.47646,2.53601c-0.19057,1.42151 -1.65173,2.63476 -2.06411,4.33418c-0.6094,2.51135 -1.22795,5.76675 -1.79319,6.54516c-4.34735,5.98687 -10.84056,8.68425 -14.50298,6.02478c-3.66243,-2.65945 -3.10716,-9.66868 1.24018,-15.65554z" fill="#917c67" stroke="none" stroke-width="NaN"/><g><path d="M209.5456,87.89668c8.26765,-5.96146 16.13645,-14.12578 18.32981,-10.41514c1.15395,1.95219 -10.88746,16.37613 -11.88117,21.36106c-0.90376,4.53382 0.17489,6.05726 2.50466,7.5105c2.17744,1.35824 7.95762,-9.99137 9.25274,-9.0747c1.32939,0.94092 8.5721,-1.81898 1.76588,9.45616c-5.43097,8.99696 -15.86528,22.01418 -18.1888,26.6237c-1.73314,2.31424 -16.07197,-12.54147 -14.2852,-16.11334c1.33271,-1.95498 0.53109,-2.30912 4.22367,-9.71192c3.4609,-6.93834 5.54212,-17.6633 8.27837,-19.63632z" fill="#d9bb9a" stroke="#917c67" stroke-width="4"/><path d="M209.02206,127.77572c-0.23464,2.57581 -10.34948,-4.7292 -8.25537,-9.87893c3.56403,-8.76452 4.86299,-10.21587 6.64831,-14.82147c1.78533,-4.60564 1.74264,-10.05375 3.41316,-11.9035c4.47898,-4.95948 14.23221,-11.84974 11.25144,-7.23611c-2.43032,3.76169 -8.21186,10.28642 -10.01252,15.39005c-0.84612,2.39816 -1.98045,6.32281 0.48887,9.46313c0.99529,1.26576 7.93377,1.58796 6.76653,5.10946c-0.59246,1.78741 -2.08675,2.97878 -3.41554,5.12148c-5.39332,8.69688 -6.84984,8.37189 -6.88483,8.75589z" fill="#ffdbb5" stroke="none" stroke-width="0"/></g><path d="M202.55655,98.88131c0,0 4.65594,4.66782 9.24821,10.19824c4.88597,5.88414 12.25465,8.84967 12.25465,8.84967l-14.3843,17.97191l-15.21085,-17.54464z" fill="#403328" stroke="#292018" stroke-width="4"/><path d="M210.23371,131.28978l-4.92036,8.28546l-11.49337,-15.87141l4.52177,-7.43467z" fill="#403328" stroke="none" stroke-width="0"/></g></g><path d="M159.64831,185.86651c0,0 -0.4125,-3.45118 -0.23498,-4.57933c0.16765,-1.06519 1.30291,-2.77834 1.30291,-2.77834c0,0 16.06972,3.00418 18.5089,3.90746c0.80719,0.29892 3.81359,4.09321 2.4182,7.03317c-1.39538,2.93996 -1.41416,4.01224 -1.41416,4.01224z" fill="#403328" stroke="none" stroke-width="NaN"/></g></g></g></svg>