<svg version="1.1" xmlns="http://www.w3.org/2000/svg" xmlns:xlink="http://www.w3.org/1999/xlink" width="125.15247" height="344.25793" viewBox="0,0,125.15247,344.25793"><defs><linearGradient x1="274.18586" y1="178.91809" x2="274.18586" y2="194.85792" gradientUnits="userSpaceOnUse" id="color-1"><stop offset="0" stop-color="#1f007b"/><stop offset="1" stop-color="#000304"/></linearGradient></defs><g transform="translate(-175.06921,-86.5898)"><g data-paper-data="{&quot;isPaintingLayer&quot;:true}" fill-rule="nonzero" stroke-width="2.5" stroke-linejoin="miter" stroke-miterlimit="10" stroke-dasharray="" stroke-dashoffset="0" style="mix-blend-mode: normal"><g data-paper-data="{&quot;index&quot;:null,&quot;origRot&quot;:0}" stroke-linecap="round"><path d="M225.99493,282.83225c0,0 -13.20101,26.07193 -18.89581,24.60154c-5.58993,-1.4433 -0.82826,-24.79139 -0.82826,-24.79139" data-paper-data="{&quot;origPos&quot;:null}" fill="#2e00b8" stroke="#2e00b8"/><path d="M242.67772,219.81779c0,0 1.3387,21.30658 0.03933,34.82202c-1.63598,17.01675 -7.56082,43.41295 -7.56082,43.41295l-44.84352,-15.18416c0,0 10.19596,-22.69996 17.67107,-36.81825c5.68798,-10.7429 16.05772,-26.88546 16.05772,-26.88546" data-paper-data="{&quot;origPos&quot;:null}" fill="#009fb8" stroke="#009fb8"/></g><path d="M244.11351,207.89741l1.14264,8.68406l10.96934,0.45706l-8.91259,11.4264l-22.62427,-14.16874l9.36965,1.5997l-0.45706,-7.54142z" fill="#3f00ff" stroke="#2e00b8" stroke-linecap="round"/><g data-paper-data="{&quot;origRot&quot;:0}"><path d="M209.67577,429.54512l6.44961,-27.22462l44.30979,-1.44465l0.70409,14.84483l9.80886,1.93481l-0.30474,9.90188z" data-paper-data="{&quot;origPos&quot;:null}" fill="#bb5500" stroke="#bb5500" stroke-linecap="butt"/><path d="M212.46045,410.10535c0,0 -1.09823,-4.68494 -0.52174,-7.72526c1.4226,-7.50247 5.64417,-19.28935 5.64417,-19.28935l36.74859,-3.19919c0,0 8.29295,14.12537 9.89133,21.68838c0.5328,2.52101 -0.28971,6.84723 -0.28971,6.84723c0,0 -6.20928,-0.68796 -9.58555,-2.42856c-2.66493,-1.37387 -5.89427,-5.55193 -5.89427,-5.55193c0,0 -0.84781,5.11733 -2.70465,7.36821c-2.37014,2.87314 -8.12646,5.76145 -8.12646,5.76145c0,0 -6.85376,-3.352 -10.19518,-6.17191c-1.39057,-1.17354 -1.92996,-4.06083 -1.92996,-4.06083c0,0 -1.85627,2.46499 -3.70493,3.42384c-3.23902,1.68 -9.33166,3.3379 -9.33166,3.3379z" data-paper-data="{&quot;origPos&quot;:null}" fill="#2e00b8" stroke="#2e00b8" stroke-linecap="butt"/><path d="M251.28226,266.79826l9.64024,127.36926l-47.28017,1.54149l12.15157,-121.71185" data-paper-data="{&quot;origPos&quot;:null}" fill="#306e7b" stroke="#306e7b" stroke-linecap="round"/><path d="M261.26798,416.19018l-25.67476,0.17008" fill="none" stroke="#bb5500" stroke-linecap="round"/></g><g data-paper-data="{&quot;origRot&quot;:0}"><path d="M189.78817,402.48753l17.75733,-21.62071l40.43687,18.17425l-5.89111,13.64404l7.96071,6.04849l-4.62511,8.7606z" data-paper-data="{&quot;origPos&quot;:null}" fill="#ff9b00" stroke="#bb5500" stroke-linecap="butt"/><path d="M200.83236,386.24916c0,0 1.07229,-4.69095 2.9262,-7.16862c4.57484,-6.11407 13.54666,-14.84664 13.54666,-14.84664l34.41594,13.27543c0,0 1.2419,16.33269 -0.64589,23.8287c-0.62926,2.49867 -3.26926,6.02333 -3.26926,6.02333c0,0 -5.27527,-3.34665 -7.54314,-6.39387c-1.79006,-2.40522 -2.85483,-7.57736 -2.85483,-7.57736c0,0 -3.01038,4.22416 -5.66745,5.43007c-3.39163,1.5393 -9.83159,1.60416 -9.83159,1.60416c0,0 -4.68348,-6.02286 -6.44577,-10.02428c-0.73339,-1.66524 0.05089,-4.49582 0.05089,-4.49582c0,0 -2.75065,1.39847 -4.83262,1.4474c-3.64779,0.0857 -9.84917,-1.10246 -9.84917,-1.10246z" data-paper-data="{&quot;origPos&quot;:null}" fill="#3f00ff" stroke="#2e00b8" stroke-linecap="butt"/><path d="M249.70875,254.66459c0,0 30.61862,40.32939 30.30205,58.78199c-0.40013,23.32402 -28.64269,79.7828 -28.64269,79.7828l-43.14764,-19.3926c0,0 31.5733,-39.56377 34.50452,-57.28793c2.88385,-17.43769 -17.057,-48.21164 -17.057,-48.21164" data-paper-data="{&quot;origPos&quot;:null}" fill="#5c8f99" stroke="#306e7b" stroke-linecap="round"/><path d="M242.00059,413.16342l-23.13752,-11.13001" fill="none" stroke="#bb5500" stroke-linecap="round"/></g><path d="M263.08133,230.5217c0,0 0.16656,14.94155 1.15079,26.26014c0.79949,9.19419 2.50566,26.3013 2.50566,26.3013h-45.24855c0,0 4.87808,-19.58611 5.80626,-32.85356c0.58799,-8.40475 -1.92128,-22.67875 -1.92128,-22.67875c0,0 -22.26455,-11.13667 -13.25462,-19.65341c8.85616,-8.37138 33.82215,15.76843 33.82215,15.76843c0,0 15.23659,-18.40183 22.88698,-11.25038c7.65039,7.15145 -5.74738,18.10622 -5.74738,18.10622z" fill="#00ffce" stroke="#009fb8" stroke-linecap="round"/><path d="M244.24235,251.96153l-1.14264,-20.33899" fill="none" stroke="#009fb8" stroke-linecap="round"/><path d="M257.58286,252.9186l-1.14264,-20.339" fill="none" stroke="#009fb8" stroke-linecap="round"/><g data-paper-data="{&quot;origRot&quot;:0}" stroke-linecap="round"><path d="M272.92148,276.05232c0,0 10.88695,21.19626 5.89407,24.09479c-5.08652,2.95292 -24.8348,-18.58817 -24.8348,-18.58817" data-paper-data="{&quot;origPos&quot;:null}" fill="#3f00ff" stroke="#2e00b8"/><path d="M238.67688,219.72743c0,0 14.34198,12.74446 22.71852,21.55335c11.00841,11.57663 26.95301,30.68201 26.95301,30.68201l-39.08067,26.72453c0,0 -12.82967,-23.81728 -18.99801,-39.76087c-4.89917,-12.6631 -9.36114,-33.54019 -9.36114,-33.54019" data-paper-data="{&quot;origPos&quot;:null}" fill="#00ffce" stroke="#009fb8"/></g><g><path d="M203.17938,171.86512c0,-22.9833 20.16638,-41.61495 45.04287,-41.61495c24.87649,0 29.10359,19.06747 33.5582,41.61495c5.82746,29.49635 -8.68171,41.61495 -33.5582,41.61495c-24.87649,0 -45.04287,-18.63165 -45.04287,-41.61495z" fill="#3f00ff" stroke="#2e00b8" stroke-linecap="butt"/><path d="M223.99039,203.82362c-12.0137,10.28092 -36.67875,6.85584 -36.67875,6.85584c0,0 1.19117,-7.93144 3.70882,-11.91095c1.6295,-2.57567 6.91773,-4.88586 6.91773,-4.88586c0,0 -5.65585,-2.60365 -7.74005,-4.92834c-4.87231,-5.4345 -10.08514,-14.9536 -10.08514,-14.9536c0,0 21.35608,-5.494 30.85128,4.79909" fill="#3f00ff" stroke="#2e00b8" stroke-linecap="round"/><path d="M205.75032,161.66018c0,0 -9.08535,2.87421 -12.04818,1.8616c-7.60571,-2.59942 -16.40356,-12.14536 -16.40356,-12.14536c0,0 7.02872,-2.343 11.52746,-1.4292c4.06312,0.82532 10.41123,5.8855 10.41123,5.8855c0,0 -4.91128,-4.81835 -6.29952,-8.56055c-1.68868,-4.55209 -1.5847,-12.69255 -1.5847,-12.69255c0,0 8.13753,3.21263 11.81013,7.02411c3.00079,3.11426 5.2896,10.72224 5.2896,10.72224c0,0 13.67687,-18.62535 11.25034,-33.92983c-2.41431,-15.22742 -27.28741,-28.11553 -27.28741,-28.11553c0,0 61.02439,-9.37333 83.2843,8.61697c22.25991,17.9903 7.09112,45.36852 7.09112,45.36852c0,0 5.28534,0.51104 8.44882,-0.25889c3.02446,-0.73609 7.40701,-3.60011 7.40701,-3.60011c0,0 -0.84213,6.7429 -2.47815,9.74228c-1.4808,2.7148 -5.74886,7.74011 -5.74886,7.74011" fill="#3f00ff" stroke="#2e00b8" stroke-linecap="round"/><path d="M224.3485,165.40254c10.50285,14.83939 -1.71396,56.56068 -1.71396,56.56068c0,0 -19.3199,-44.38121 -11.31214,-56.90348" fill="#3f00ff" stroke="#2e00b8" stroke-linecap="round"/><path d="M287.72359,157.34578c0,0 7.14586,5.66459 8.06027,10.86413c0.91441,5.19954 -4.28728,10.58989 -4.28728,10.58989c0,0 -8.11242,-2.90334 -12.42716,-5.85864c-5.45112,-3.73364 -12.59665,-11.28096 -12.59665,-11.28096c0,0 -0.64898,5.0074 -2.38079,7.55418c-2.81668,4.14217 -9.27414,9.58542 -9.27414,9.58542c0,0 -12.1953,-4.32611 -16.79681,-18.51077" fill="#3f00ff" stroke="#2e00b8" stroke-linecap="round"/><g fill="#ffffff" stroke-linecap="round"><path d="M280.95516,187.3696c0,0 4.05636,5.96458 -1.71396,9.42678c-5.77032,3.4622 -17.1396,1.88536 -17.1396,1.88536z" data-paper-data="{&quot;origPos&quot;:null}" stroke="none"/><path d="M261.24462,199.02453c0,0 -18.57242,-9.72381 -5.36794,-21.71819c6.68698,-6.07416 16.78984,-6.70199 22.5449,0.26152c3.04962,3.68999 3.39056,11.51571 3.39056,11.51571" data-paper-data="{&quot;origPos&quot;:null}" stroke="#2e00b8"/></g><path d="M277.87088,186.888c0,4.40166 -1.64984,7.96991 -3.68501,7.96991c-2.03518,0 -3.68501,-3.56825 -3.68501,-7.96991c0,-4.40166 1.64984,-7.96991 3.68501,-7.96991c2.03518,0 3.68501,3.56825 3.68501,7.96991z" fill="url(#color-1)" stroke="none" stroke-linecap="butt"/><path d="M268.42855,202.92771c0,-2.34113 1.05394,-6.17026 1.05394,-6.17026c0,0 6.39321,-1.71396 10.38882,-1.71396c3.64306,0 9.18433,1.71396 9.18433,1.71396c0,0 1.05394,4.27642 1.05394,6.68444c0,3.41136 -1.05394,8.22701 -1.05394,8.22701c0,0 -4.31478,1.19977 -7.07644,1.19977c-4.877,0 -12.4967,-1.19977 -12.4967,-1.19977c0,0 -1.05394,-5.26293 -1.05394,-8.74119z" fill="#ff9b00" stroke="#bb5500" stroke-linecap="butt"/><path d="M271.84114,207.34122l8.1984,2.2" fill="none" stroke="#bb5500" stroke-linecap="round"/></g></g></g></svg>