<svg version="1.1" xmlns="http://www.w3.org/2000/svg" xmlns:xlink="http://www.w3.org/1999/xlink" width="300.93601" height="286.82686" viewBox="0,0,300.93601,286.82686"><g transform="translate(-89.53202,-43.28546)"><g data-paper-data="{&quot;isPaintingLayer&quot;:true}" fill-rule="nonzero" stroke-linejoin="miter" stroke-miterlimit="10" stroke-dasharray="" stroke-dashoffset="0" style="mix-blend-mode: normal"><g><path d="M92.11649,272.29143v-31.8648h294.31484v31.8648z" data-paper-data="{&quot;origPos&quot;:null}" fill="#b9814a" stroke="none" stroke-width="0" stroke-linecap="butt"/><path d="M91.28366,240.78447v-193.44374h296.63228v193.44374z" data-paper-data="{&quot;origPos&quot;:null}" fill="#e29e5a" stroke="none" stroke-width="0" stroke-linecap="butt"/><path d="M119.47544,244.33731v-167.17658h95.32418v167.17658z" data-paper-data="{&quot;origPos&quot;:null}" fill="#3b2a07" stroke="#4a3409" stroke-width="9.5" stroke-linecap="butt"/><g data-paper-data="{&quot;origPos&quot;:null}" fill="none" stroke="#4a3409" stroke-width="9.5" stroke-linecap="round"><path d="M120.57168,106.21109h91.53603" data-paper-data="{&quot;origPos&quot;:null}"/><path d="M121.82412,134.32141h91.53603" data-paper-data="{&quot;origPos&quot;:null}"/></g><g data-paper-data="{&quot;origPos&quot;:null}" fill="none" stroke="#4a3409" stroke-width="9.5" stroke-linecap="round"><path d="M212.26391,162.27552h-91.53603" data-paper-data="{&quot;origPos&quot;:null}"/><path d="M121.98032,190.38584h91.53603" data-paper-data="{&quot;origPos&quot;:null}"/></g><g data-paper-data="{&quot;origPos&quot;:null}" fill="none" stroke="#4a3409" stroke-width="9.5" stroke-linecap="round"><path d="M120.33597,219.4362h91.53603" data-paper-data="{&quot;origPos&quot;:null}"/><path d="M213.12442,243.16155h-91.53603" data-paper-data="{&quot;origPos&quot;:null}"/></g><g data-paper-data="{&quot;origPos&quot;:null}" fill="#a60000" stroke="none" stroke-width="0" stroke-linecap="butt"><path d="M123.27141,103.45006v-19.27153h5.4812v19.27153z" data-paper-data="{&quot;origPos&quot;:null}"/><path d="M129.76907,103.50406v-16.99729h5.4812v16.99729z" data-paper-data="{&quot;origPos&quot;:null}"/><path d="M136.07723,103.55807v-18.70297h5.4812v18.70297z" data-paper-data="{&quot;origPos&quot;:null}"/><path d="M142.38536,103.42256v-16.99729h5.4812v16.99729z" data-paper-data="{&quot;origPos&quot;:null}"/><path d="M148.88304,103.47657v-20.59816h5.4812v20.59816z" data-paper-data="{&quot;origPos&quot;:null}"/><path d="M155.3807,103.53058v-19.082h5.4812v19.082z" data-paper-data="{&quot;origPos&quot;:null}"/><path d="M161.87838,103.58458v-15.67065h5.4812v15.67065z" data-paper-data="{&quot;origPos&quot;:null}"/><path d="M168.18653,103.63859v-17.56585h5.4812v17.56585z" data-paper-data="{&quot;origPos&quot;:null}"/><path d="M174.49468,103.6926v-18.70296h5.4812v18.70296z" data-paper-data="{&quot;origPos&quot;:null}"/><path d="M180.80283,103.74661v-21.73527h5.4812v21.73527z" data-paper-data="{&quot;origPos&quot;:null}"/><path d="M186.97645,103.66608v-16.99729h5.4812v16.99729z" data-paper-data="{&quot;origPos&quot;:null}"/><path d="M192.98706,103.61208v-18.70297h5.4812v18.70297z" data-paper-data="{&quot;origPos&quot;:null}"/><path d="M199.29521,103.47657v-16.99729h5.4812v16.99729z" data-paper-data="{&quot;origPos&quot;:null}"/><path d="M205.60336,103.53058v-20.59816h5.4812v20.59816z" data-paper-data="{&quot;origPos&quot;:null}"/></g><g data-paper-data="{&quot;origPos&quot;:null,&quot;index&quot;:null}" fill="#920000" stroke="none" stroke-width="0" stroke-linecap="butt"><path d="M205.65737,131.36342v-19.27153h5.4812v19.27153z" data-paper-data="{&quot;origPos&quot;:null}"/><path d="M199.1597,131.41743v-16.99729h5.4812v16.99729z" data-paper-data="{&quot;origPos&quot;:null}"/><path d="M192.85155,131.47144v-18.70297h5.4812v18.70297z" data-paper-data="{&quot;origPos&quot;:null}"/><path d="M186.54339,131.33592v-16.99729h5.4812v16.99729z" data-paper-data="{&quot;origPos&quot;:null}"/><path d="M180.04573,131.38993v-20.59816h5.4812v20.59816z" data-paper-data="{&quot;origPos&quot;:null}"/><path d="M173.54807,131.44394v-19.082h5.4812v19.082z" data-paper-data="{&quot;origPos&quot;:null}"/><path d="M167.05039,131.49795v-15.67065h5.4812v15.67065z" data-paper-data="{&quot;origPos&quot;:null}"/><path d="M160.74224,131.55196v-17.56585h5.4812v17.56585z" data-paper-data="{&quot;origPos&quot;:null}"/><path d="M154.4341,131.60596v-18.70296h5.4812v18.70296z" data-paper-data="{&quot;origPos&quot;:null}"/><path d="M148.12595,131.65997v-21.73527h5.4812v21.73527z" data-paper-data="{&quot;origPos&quot;:null}"/><path d="M141.95232,131.57945v-16.99729h5.4812v16.99729z" data-paper-data="{&quot;origPos&quot;:null}"/><path d="M135.94171,131.52544v-18.70297h5.4812v18.70297z" data-paper-data="{&quot;origPos&quot;:null}"/><path d="M129.63356,131.38993v-16.99729h5.4812v16.99729z" data-paper-data="{&quot;origPos&quot;:null}"/><path d="M123.32542,131.44394v-20.59816h5.4812v20.59816z" data-paper-data="{&quot;origPos&quot;:null}"/></g><g data-paper-data="{&quot;origPos&quot;:null}" fill="#810000" stroke="none" stroke-width="0" stroke-linecap="butt"><path d="M123.37942,159.4663v-19.27152h5.4812v19.27152z" data-paper-data="{&quot;origPos&quot;:null}"/><path d="M129.87709,159.52031v-16.99729h5.4812v16.99729z" data-paper-data="{&quot;origPos&quot;:null}"/><path d="M136.18523,159.57431v-18.70296h5.4812v18.70296z" data-paper-data="{&quot;origPos&quot;:null}"/><path d="M142.4934,159.4388v-16.99729h5.4812v16.99729z" data-paper-data="{&quot;origPos&quot;:null}"/><path d="M148.99106,159.49281v-20.59816h5.4812v20.59816z" data-paper-data="{&quot;origPos&quot;:null}"/><path d="M155.48872,159.54682v-19.082h5.4812v19.082z" data-paper-data="{&quot;origPos&quot;:null}"/><path d="M161.9864,159.60083v-15.67065h5.4812v15.67065z" data-paper-data="{&quot;origPos&quot;:null}"/><path d="M168.29455,159.65483v-17.56585h5.4812v17.56585z" data-paper-data="{&quot;origPos&quot;:null}"/><path d="M174.6027,159.70884v-18.70296h5.4812v18.70296z" data-paper-data="{&quot;origPos&quot;:null}"/><path d="M180.91085,159.76285v-21.73527h5.4812v21.73527z" data-paper-data="{&quot;origPos&quot;:null}"/><path d="M187.08447,159.68233v-16.99729h5.4812v16.99729z" data-paper-data="{&quot;origPos&quot;:null}"/><path d="M193.09508,159.62832v-18.70296h5.4812v18.70296z" data-paper-data="{&quot;origPos&quot;:null}"/><path d="M199.40323,159.49281v-16.99729h5.4812v16.99729z" data-paper-data="{&quot;origPos&quot;:null}"/><path d="M205.71137,159.54682v-20.59816h5.4812v20.59816z" data-paper-data="{&quot;origPos&quot;:null}"/></g><g data-paper-data="{&quot;origPos&quot;:null,&quot;index&quot;:null}" fill="#6e0000" stroke="none" stroke-width="0" stroke-linecap="butt"><path d="M205.57586,187.75871v-19.27153h5.4812v19.27152z" data-paper-data="{&quot;origPos&quot;:null}"/><path d="M199.0782,187.81271v-16.99729h5.4812v16.99729z" data-paper-data="{&quot;origPos&quot;:null}"/><path d="M192.77005,187.86672v-18.70297h5.4812v18.70297z" data-paper-data="{&quot;origPos&quot;:null}"/><path d="M186.46189,187.73121v-16.99729h5.4812v16.99729z" data-paper-data="{&quot;origPos&quot;:null}"/><path d="M179.96423,187.78521v-20.59816h5.4812v20.59816z" data-paper-data="{&quot;origPos&quot;:null}"/><path d="M173.46656,187.83922v-19.082h5.4812v19.082z" data-paper-data="{&quot;origPos&quot;:null}"/><path d="M166.96889,187.89324v-15.67065h5.4812v15.67065z" data-paper-data="{&quot;origPos&quot;:null}"/><path d="M160.66073,187.94724v-17.56585h5.4812v17.56585z" data-paper-data="{&quot;origPos&quot;:null}"/><path d="M154.3526,188.00125v-18.70296h5.4812v18.70296z" data-paper-data="{&quot;origPos&quot;:null}"/><path d="M148.04445,188.05525v-21.73527h5.4812v21.73527z" data-paper-data="{&quot;origPos&quot;:null}"/><path d="M141.87082,187.97473v-16.99729h5.4812v16.99729z" data-paper-data="{&quot;origPos&quot;:null}"/><path d="M135.86021,187.92073v-18.70297h5.4812v18.70297z" data-paper-data="{&quot;origPos&quot;:null}"/><path d="M129.55206,187.78521v-16.99729h5.4812v16.99729z" data-paper-data="{&quot;origPos&quot;:null}"/><path d="M123.24391,187.83922v-20.59816h5.4812v20.59816z" data-paper-data="{&quot;origPos&quot;:null}"/></g><g data-paper-data="{&quot;origPos&quot;:null}" fill="#670000" stroke="none" stroke-width="0" stroke-linecap="butt"><path d="M123.48743,216.99871v-19.27153h5.4812v19.27153z" data-paper-data="{&quot;origPos&quot;:null}"/><path d="M129.9851,217.05272v-16.99729h5.4812v16.99729z" data-paper-data="{&quot;origPos&quot;:null}"/><path d="M136.29325,217.10672v-18.70297h5.4812v18.70297z" data-paper-data="{&quot;origPos&quot;:null}"/><path d="M142.60141,216.97121v-16.99729h5.4812v16.99729z" data-paper-data="{&quot;origPos&quot;:null}"/><path d="M149.09908,217.02522v-20.59816h5.4812v20.59816z" data-paper-data="{&quot;origPos&quot;:null}"/><path d="M155.59674,217.07923v-19.082h5.4812v19.082z" data-paper-data="{&quot;origPos&quot;:null}"/><path d="M162.09441,217.13324v-15.67065h5.4812v15.67065z" data-paper-data="{&quot;origPos&quot;:null}"/><path d="M168.40256,217.18724v-17.56585h5.4812v17.56585z" data-paper-data="{&quot;origPos&quot;:null}"/><path d="M174.71071,217.24125v-18.70296h5.4812v18.70296z" data-paper-data="{&quot;origPos&quot;:null}"/><path d="M181.01885,217.29526v-21.73527h5.4812v21.73527z" data-paper-data="{&quot;origPos&quot;:null}"/><path d="M187.19248,217.21474v-16.99729h5.4812v16.99729z" data-paper-data="{&quot;origPos&quot;:null}"/><path d="M193.20309,217.16073v-18.70297h5.4812v18.70297z" data-paper-data="{&quot;origPos&quot;:null}"/><path d="M199.51124,217.02522v-16.99729h5.4812v16.99729z" data-paper-data="{&quot;origPos&quot;:null}"/><path d="M205.81939,217.07923v-20.59816h5.4812v20.59816z" data-paper-data="{&quot;origPos&quot;:null}"/></g><g data-paper-data="{&quot;origPos&quot;:null,&quot;index&quot;:null}" fill="#5a0000" stroke="none" stroke-width="0" stroke-linecap="butt"><path d="M205.44791,240.76051v-15.57471h5.4812v15.57471z" data-paper-data="{&quot;origPos&quot;:null}"/><path d="M198.95023,240.80416v-13.73674h5.4812v13.73674z" data-paper-data="{&quot;origPos&quot;:null}"/><path d="M192.64207,240.8478v-15.11522h5.4812v15.11522z" data-paper-data="{&quot;origPos&quot;:null}"/><path d="M186.33394,240.73829v-13.73674h5.4812v13.73674z" data-paper-data="{&quot;origPos&quot;:null}"/><path d="M179.83626,240.78194v-16.64686h5.4812v16.64686z" data-paper-data="{&quot;origPos&quot;:null}"/><path d="M173.3386,240.82559v-15.42155h5.4812v15.42155z" data-paper-data="{&quot;origPos&quot;:null}"/><path d="M166.84094,240.86923v-12.66459h5.4812v12.66459z" data-paper-data="{&quot;origPos&quot;:null}"/><path d="M160.53278,240.91288v-14.19623h5.4812v14.19623z" data-paper-data="{&quot;origPos&quot;:null}"/><path d="M154.22463,240.95653v-15.11522h5.4812v15.11522z" data-paper-data="{&quot;origPos&quot;:null}"/><path d="M147.91649,241.00018v-17.56585h5.4812v17.56585z" data-paper-data="{&quot;origPos&quot;:null}"/><path d="M141.74286,240.9351v-13.73674h5.4812v13.73674z" data-paper-data="{&quot;origPos&quot;:null}"/><path d="M135.73224,240.89145v-15.11522h5.4812v15.11522z" data-paper-data="{&quot;origPos&quot;:null}"/><path d="M129.42411,240.78194v-13.73674h5.4812v13.73674z" data-paper-data="{&quot;origPos&quot;:null}"/><path d="M123.11596,240.82559v-16.64686h5.4812v16.64686z" data-paper-data="{&quot;origPos&quot;:null}"/></g><path d="M263.78718,245.04163v-167.17658h95.32418v167.17658z" data-paper-data="{&quot;origPos&quot;:null}" fill="#3b2a07" stroke="#4a3409" stroke-width="9.5" stroke-linecap="butt"/><g data-paper-data="{&quot;origPos&quot;:null}" fill="none" stroke="#4a3409" stroke-width="9.5" stroke-linecap="round"><path d="M264.88343,106.91541h91.53603" data-paper-data="{&quot;origPos&quot;:null}"/><path d="M266.13586,135.02573h91.53603" data-paper-data="{&quot;origPos&quot;:null}"/></g><g data-paper-data="{&quot;origPos&quot;:null}" fill="none" stroke="#4a3409" stroke-width="9.5" stroke-linecap="round"><path d="M265.03963,162.97984h91.53603" data-paper-data="{&quot;origPos&quot;:null}"/><path d="M266.29206,191.09016h91.53603" data-paper-data="{&quot;origPos&quot;:null}"/></g><g data-paper-data="{&quot;origPos&quot;:null}" fill="none" stroke="#4a3409" stroke-width="9.5" stroke-linecap="round"><path d="M264.6477,220.14051h91.53603" data-paper-data="{&quot;origPos&quot;:null}"/><path d="M265.90015,243.86588h91.53603" data-paper-data="{&quot;origPos&quot;:null}"/></g><g data-paper-data="{&quot;origPos&quot;:null,&quot;index&quot;:null}" fill="#a60000" stroke="none" stroke-width="0" stroke-linecap="butt"><path d="M349.9151,104.15438v-19.27153h5.4812v19.27152z" data-paper-data="{&quot;origPos&quot;:null}"/><path d="M343.41743,104.20838v-16.99729h5.4812v16.99729z" data-paper-data="{&quot;origPos&quot;:null}"/><path d="M337.10928,104.26239v-18.70297h5.4812v18.70297z" data-paper-data="{&quot;origPos&quot;:null}"/><path d="M330.80113,104.12688v-16.99729h5.4812v16.99729z" data-paper-data="{&quot;origPos&quot;:null}"/><path d="M324.30346,104.18088v-20.59816h5.4812v20.59816z" data-paper-data="{&quot;origPos&quot;:null}"/><path d="M317.8058,104.23489v-19.082h5.4812v19.082z" data-paper-data="{&quot;origPos&quot;:null}"/><path d="M311.30812,104.28891v-15.67065h5.4812v15.67065z" data-paper-data="{&quot;origPos&quot;:null}"/><path d="M304.99998,104.34291v-17.56585h5.4812v17.56585z" data-paper-data="{&quot;origPos&quot;:null}"/><path d="M298.69183,104.39692v-18.70296h5.4812v18.70296z" data-paper-data="{&quot;origPos&quot;:null}"/><path d="M292.38368,104.45092v-21.73527h5.4812v21.73527z" data-paper-data="{&quot;origPos&quot;:null}"/><path d="M286.21006,104.3704v-16.99729h5.4812v16.99729z" data-paper-data="{&quot;origPos&quot;:null}"/><path d="M280.19944,104.3164v-18.70297h5.4812v18.70297z" data-paper-data="{&quot;origPos&quot;:null}"/><path d="M273.8913,104.18088v-16.99729h5.4812v16.99729z" data-paper-data="{&quot;origPos&quot;:null}"/><path d="M267.58315,104.23489v-20.59816h5.4812v20.59816z" data-paper-data="{&quot;origPos&quot;:null}"/></g><g data-paper-data="{&quot;origPos&quot;:null}" fill="#920000" stroke="none" stroke-width="0" stroke-linecap="butt"><path d="M267.63714,132.06774v-19.27153h5.4812v19.27153z" data-paper-data="{&quot;origPos&quot;:null}"/><path d="M274.13482,132.12174v-16.99729h5.4812v16.99729z" data-paper-data="{&quot;origPos&quot;:null}"/><path d="M280.44298,132.17575v-18.70296h5.4812v18.70296z" data-paper-data="{&quot;origPos&quot;:null}"/><path d="M286.75111,132.04024v-16.99729h5.4812v16.99729z" data-paper-data="{&quot;origPos&quot;:null}"/><path d="M293.24879,132.09425v-20.59816h5.4812v20.59816z" data-paper-data="{&quot;origPos&quot;:null}"/><path d="M299.74645,132.14826v-19.082h5.4812v19.082z" data-paper-data="{&quot;origPos&quot;:null}"/><path d="M306.24413,132.20226v-15.67065h5.4812v15.67065z" data-paper-data="{&quot;origPos&quot;:null}"/><path d="M312.55228,132.25627v-17.56585h5.4812v17.56585z" data-paper-data="{&quot;origPos&quot;:null}"/><path d="M318.86042,132.31028v-18.70296h5.4812v18.70296z" data-paper-data="{&quot;origPos&quot;:null}"/><path d="M325.16857,132.36429v-21.73527h5.4812v21.73527z" data-paper-data="{&quot;origPos&quot;:null}"/><path d="M331.3422,132.28377v-16.99729h5.4812v16.99729z" data-paper-data="{&quot;origPos&quot;:null}"/><path d="M337.35281,132.22976v-18.70296h5.4812v18.70296z" data-paper-data="{&quot;origPos&quot;:null}"/><path d="M343.66096,132.09425v-16.99729h5.4812v16.99729z" data-paper-data="{&quot;origPos&quot;:null}"/><path d="M349.96911,132.14826v-20.59816h5.4812v20.59816z" data-paper-data="{&quot;origPos&quot;:null}"/></g><g data-paper-data="{&quot;origPos&quot;:null,&quot;index&quot;:null}" fill="#810000" stroke="none" stroke-width="0" stroke-linecap="butt"><path d="M350.02311,160.17063v-19.27153h5.4812v19.27152z" data-paper-data="{&quot;origPos&quot;:null}"/><path d="M343.52545,160.22463v-16.99729h5.4812v16.99729z" data-paper-data="{&quot;origPos&quot;:null}"/><path d="M337.2173,160.27864v-18.70297h5.4812v18.70297z" data-paper-data="{&quot;origPos&quot;:null}"/><path d="M330.90914,160.14312v-16.99729h5.4812v16.99729z" data-paper-data="{&quot;origPos&quot;:null}"/><path d="M324.41148,160.19713v-20.59816h5.4812v20.59816z" data-paper-data="{&quot;origPos&quot;:null}"/><path d="M317.9138,160.25114v-19.082h5.4812v19.082z" data-paper-data="{&quot;origPos&quot;:null}"/><path d="M311.41614,160.30515v-15.67065h5.4812v15.67065z" data-paper-data="{&quot;origPos&quot;:null}"/><path d="M305.10799,160.35916v-17.56585h5.4812v17.56585z" data-paper-data="{&quot;origPos&quot;:null}"/><path d="M298.79983,160.41316v-18.70296h5.4812v18.70296z" data-paper-data="{&quot;origPos&quot;:null}"/><path d="M292.49168,160.46717v-21.73527h5.4812v21.73527z" data-paper-data="{&quot;origPos&quot;:null}"/><path d="M286.31807,160.38665v-16.99729h5.4812v16.99729z" data-paper-data="{&quot;origPos&quot;:null}"/><path d="M280.30746,160.33264v-18.70297h5.4812v18.70297z" data-paper-data="{&quot;origPos&quot;:null}"/><path d="M273.99931,160.19713v-16.99729h5.4812v16.99729z" data-paper-data="{&quot;origPos&quot;:null}"/><path d="M267.69115,160.25114v-20.59816h5.4812v20.59816z" data-paper-data="{&quot;origPos&quot;:null}"/></g><g data-paper-data="{&quot;origPos&quot;:null}" fill="#6e0000" stroke="none" stroke-width="0" stroke-linecap="butt"><path d="M267.55564,188.46302v-19.27152h5.4812v19.27153z" data-paper-data="{&quot;origPos&quot;:null}"/><path d="M274.05332,188.51703v-16.99729h5.4812v16.99729z" data-paper-data="{&quot;origPos&quot;:null}"/><path d="M280.36147,188.57104v-18.70297h5.4812v18.70297z" data-paper-data="{&quot;origPos&quot;:null}"/><path d="M286.66961,188.43553v-16.99729h5.4812v16.99729z" data-paper-data="{&quot;origPos&quot;:null}"/><path d="M293.16729,188.48954v-20.59816h5.4812v20.59816z" data-paper-data="{&quot;origPos&quot;:null}"/><path d="M299.66495,188.54354v-19.082h5.4812v19.082z" data-paper-data="{&quot;origPos&quot;:null}"/><path d="M306.16261,188.59755v-15.67065h5.4812v15.67065z" data-paper-data="{&quot;origPos&quot;:null}"/><path d="M312.47078,188.65156v-17.56585h5.4812v17.56585z" data-paper-data="{&quot;origPos&quot;:null}"/><path d="M318.77893,188.70557v-18.70296h5.4812v18.70296z" data-paper-data="{&quot;origPos&quot;:null}"/><path d="M325.08707,188.75958v-21.73527h5.4812v21.73527z" data-paper-data="{&quot;origPos&quot;:null}"/><path d="M331.26068,188.67906v-16.99729h5.4812v16.99729z" data-paper-data="{&quot;origPos&quot;:null}"/><path d="M337.27131,188.62505v-18.70297h5.4812v18.70297z" data-paper-data="{&quot;origPos&quot;:null}"/><path d="M343.57946,188.48954v-16.99729h5.4812v16.99729z" data-paper-data="{&quot;origPos&quot;:null}"/><path d="M349.88761,188.54354v-20.59816h5.4812v20.59816z" data-paper-data="{&quot;origPos&quot;:null}"/></g><g data-paper-data="{&quot;origPos&quot;:null,&quot;index&quot;:null}" fill="#670000" stroke="none" stroke-width="0" stroke-linecap="butt"><path d="M350.13113,217.70302v-19.27152h5.4812v19.27152z" data-paper-data="{&quot;origPos&quot;:null}"/><path d="M343.63346,217.75703v-16.99729h5.4812v16.99729z" data-paper-data="{&quot;origPos&quot;:null}"/><path d="M337.32531,217.81104v-18.70297h5.4812v18.70297z" data-paper-data="{&quot;origPos&quot;:null}"/><path d="M331.01716,217.67553v-16.99729h5.4812v16.99729z" data-paper-data="{&quot;origPos&quot;:null}"/><path d="M324.51948,217.72954v-20.59816h5.4812v20.59816z" data-paper-data="{&quot;origPos&quot;:null}"/><path d="M318.02182,217.78354v-19.082h5.4812v19.082z" data-paper-data="{&quot;origPos&quot;:null}"/><path d="M311.52416,217.83755v-15.67065h5.4812v15.67065z" data-paper-data="{&quot;origPos&quot;:null}"/><path d="M305.21601,217.89156v-17.56585h5.4812v17.56585z" data-paper-data="{&quot;origPos&quot;:null}"/><path d="M298.90786,217.94557v-18.70296h5.4812v18.70296z" data-paper-data="{&quot;origPos&quot;:null}"/><path d="M292.5997,217.99958v-21.73527h5.4812v21.73527z" data-paper-data="{&quot;origPos&quot;:null}"/><path d="M286.42609,217.91906v-16.99729h5.4812v16.99729z" data-paper-data="{&quot;origPos&quot;:null}"/><path d="M280.41548,217.86505v-18.70297h5.4812v18.70297z" data-paper-data="{&quot;origPos&quot;:null}"/><path d="M274.10733,217.72954v-16.99729h5.4812v16.99729z" data-paper-data="{&quot;origPos&quot;:null}"/><path d="M267.79918,217.78354v-20.59816h5.4812v20.59816z" data-paper-data="{&quot;origPos&quot;:null}"/></g><g data-paper-data="{&quot;origPos&quot;:null}" fill="#5a0000" stroke="none" stroke-width="0" stroke-linecap="butt"><path d="M267.42769,241.46483v-15.57471h5.4812v15.57471z" data-paper-data="{&quot;origPos&quot;:null}"/><path d="M273.92535,241.50848v-13.73674h5.4812v13.73674z" data-paper-data="{&quot;origPos&quot;:null}"/><path d="M280.23352,241.55213v-15.11522h5.4812v15.11522z" data-paper-data="{&quot;origPos&quot;:null}"/><path d="M286.54166,241.44261v-13.73674h5.4812v13.73674z" data-paper-data="{&quot;origPos&quot;:null}"/><path d="M293.03932,241.48626v-16.64686h5.4812v16.64686z" data-paper-data="{&quot;origPos&quot;:null}"/><path d="M299.537,241.5299v-15.42154h5.4812v15.42155z" data-paper-data="{&quot;origPos&quot;:null}"/><path d="M306.03466,241.57355v-12.66459h5.4812v12.66459z" data-paper-data="{&quot;origPos&quot;:null}"/><path d="M312.34283,241.6172v-14.19622h5.4812v14.19622z" data-paper-data="{&quot;origPos&quot;:null}"/><path d="M318.65097,241.66085v-15.11522h5.4812v15.11522z" data-paper-data="{&quot;origPos&quot;:null}"/><path d="M324.95912,241.7045v-17.56585h5.4812v17.56585z" data-paper-data="{&quot;origPos&quot;:null}"/><path d="M331.13273,241.63942v-13.73674h5.4812v13.73674z" data-paper-data="{&quot;origPos&quot;:null}"/><path d="M337.14335,241.59578v-15.11522h5.4812v15.11522z" data-paper-data="{&quot;origPos&quot;:null}"/><path d="M343.4515,241.48626v-13.73674h5.4812v13.73674z" data-paper-data="{&quot;origPos&quot;:null}"/><path d="M349.75966,241.5299v-16.64686h5.4812v16.64686z" data-paper-data="{&quot;origPos&quot;:null}"/></g><path d="M217.58891,247.07791v-172.65778l9.86616,6.57744l0.54812,163.88786z" fill="#4a2c00" stroke="none" stroke-width="0" stroke-linecap="butt"/><path d="M361.35253,247.78223v-172.65777l9.86616,6.57744l0.54812,163.88786z" data-paper-data="{&quot;origPos&quot;:null}" fill="#4a2c00" stroke="none" stroke-width="0" stroke-linecap="butt"/></g><g><path d="M289.16086,306.01068v-60.16878h8.68367v60.16878z" data-paper-data="{&quot;origPos&quot;:null}" fill="#000000" stroke="#000000" stroke-width="0.5" stroke-linecap="butt"/><path d="M274.99734,311.79323v-62.66204h11.17693v62.66204z" data-paper-data="{&quot;origPos&quot;:null}" fill="#000000" stroke="#000000" stroke-width="0.5" stroke-linecap="butt"/><path d="M225.13213,306.80671v-60.16878h8.68367v60.16878z" data-paper-data="{&quot;origPos&quot;:null}" fill="#000000" stroke="#000000" stroke-width="0.5" stroke-linecap="butt"/><path d="M298.50113,237.33691c0,4.39944 7.98883,8.73027 -10.13419,11.99848c-9.81774,1.77047 -29.69,1.06927 -44.35561,1.06927c-15.08579,0 -33.57425,0.64844 -43.48248,-1.20023c-17.50465,-3.26601 -11.00733,-7.53634 -11.00733,-11.86751c0,-3.24407 -4.25221,-6.48874 8.90125,-8.92899c11.13753,-2.06626 27.62762,-1.47361 44.53051,-1.47361c0,0 36.15702,-1.01537 47.70464,1.50334c10.79462,2.35448 7.84322,1.68215 7.84322,8.89926z" data-paper-data="{&quot;origPos&quot;:null}" fill="#191919" stroke="#000000" stroke-width="5" stroke-linecap="butt"/><path d="M302.65794,150.98191c0,26.16725 6.87646,51.92634 -8.72309,71.36512c-8.4507,10.53052 -25.55593,6.35982 -38.17949,6.35982c-12.98522,0 -28.89934,3.85684 -37.42792,-7.13877c-15.06729,-19.42573 -9.47466,-44.82506 -9.47466,-70.58617c0,-42.9263 20.08827,-61.87314 45.99185,-61.87314c25.90358,0 47.81332,18.94685 47.81332,61.87314z" data-paper-data="{&quot;origPos&quot;:null}" fill="#191919" stroke="#000000" stroke-width="5" stroke-linecap="butt"/><path d="M236.24159,219.76996l4.60893,-14.5948" data-paper-data="{&quot;origPos&quot;:null}" fill="none" stroke="#80a0d5" stroke-width="3.23007" stroke-linecap="round"/><path d="M265.43119,205.17516l5.37709,13.05856" data-paper-data="{&quot;origPos&quot;:null}" fill="none" stroke="#80a0d5" stroke-width="3.23007" stroke-linecap="round"/><path d="M210.34529,312.58926v-62.66204h11.17693v62.66204z" data-paper-data="{&quot;origPos&quot;:null}" fill="#000000" stroke="#000000" stroke-width="0.5" stroke-linecap="butt"/><path d="M258.26028,209.79465c0,3.15215 -3.90023,5.70748 -8.71141,5.70748c-4.81118,0 -8.71141,-2.55532 -8.71141,-5.70748c0,-3.15215 3.90023,-5.70748 8.71141,-5.70748c4.81118,0 8.71141,2.55532 8.71141,5.70748z" data-paper-data="{&quot;origPos&quot;:null}" fill="#444444" stroke="#000000" stroke-width="0.5" stroke-linecap="butt"/><g data-paper-data="{&quot;origPos&quot;:null}" fill="#3d2400" stroke="#352100" stroke-width="4" stroke-linecap="butt"><path d="M150.83838,306.35885v-84.78905h52.11131v84.78905z" data-paper-data="{&quot;origPos&quot;:null}"/><path d="M321.96065,306.35885v-84.78905h52.11131v84.78905z" data-paper-data="{&quot;origPos&quot;:null}"/><path d="M150.83838,230.75529v-28.96959h223.23358v28.96959z" data-paper-data="{&quot;origPos&quot;:null}"/></g><g data-paper-data="{&quot;origPos&quot;:null}" fill="#3d2400" stroke="#352100" stroke-width="4" stroke-linecap="butt"><path d="M135.44824,306.58267v-85.33821h54.20416v85.33821z" data-paper-data="{&quot;origPos&quot;:null}"/><path d="M313.44299,306.58267v-85.33821h54.20416v85.33821z" data-paper-data="{&quot;origPos&quot;:null}"/><path d="M135.44824,230.48944v-29.15722h232.19891v29.15722z" data-paper-data="{&quot;origPos&quot;:null}"/></g><g data-paper-data="{&quot;origPos&quot;:null}" fill="#4a2c00" stroke="#3f2600" stroke-width="4" stroke-linecap="butt"><path d="M122.20426,316.36676v-93.02643h56.10145v93.02643z" data-paper-data="{&quot;origPos&quot;:null}"/><path d="M306.42928,316.36676v-93.02643h56.10145v93.02643z" data-paper-data="{&quot;origPos&quot;:null}"/><path d="M122.20426,233.41819v-31.78403h240.32646v31.78403z" data-paper-data="{&quot;origPos&quot;:null}"/></g><g data-paper-data="{&quot;origPos&quot;:null}" fill="#4a2c00" stroke="#3f2600" stroke-width="4" stroke-linecap="butt"><path d="M108.16872,315.87714v-93.02643h57.3663v93.02643z" data-paper-data="{&quot;origPos&quot;:null}"/><path d="M296.54725,315.87714v-93.02643h57.3663v93.02643z" data-paper-data="{&quot;origPos&quot;:null}"/><path d="M108.16872,232.92857v-31.78403h245.74483v31.78403z" data-paper-data="{&quot;origPos&quot;:null}"/></g><path d="M358.19951,229.15175v-26.80255h14.33625v26.80255z" data-paper-data="{&quot;origPos&quot;:null}" fill="#4a2c00" stroke="none" stroke-width="0" stroke-linecap="butt"/><path d="M141.79066,195.34429l-7.13435,-41.20085h76.15914l4.45897,41.20085z" data-paper-data="{&quot;origPos&quot;:null}" fill="#4a4a4a" stroke="#404040" stroke-width="4" stroke-linecap="butt"/><path d="M141.07723,199.08982v-2.1403h92.03306v2.1403z" data-paper-data="{&quot;origPos&quot;:null}" fill="#404040" stroke="#404040" stroke-width="4" stroke-linecap="butt"/><g data-paper-data="{&quot;origPos&quot;:null,&quot;origRot&quot;:0}" fill="#424242" stroke="none" stroke-width="0" stroke-linecap="butt"><path d="M168.74068,175.151l-0.50326,-4.43437l5.45571,-0.26621l0.50326,4.43437z"/><path d="M175.71188,174.81085l-0.50326,-4.43437l5.45571,-0.26621l0.50326,4.43437z" data-paper-data="{&quot;origPos&quot;:null}"/><path d="M169.3418,180.4476l-0.50326,-4.43437l5.45571,-0.26621l0.50326,4.43437z" data-paper-data="{&quot;origPos&quot;:null}"/><path d="M176.31299,180.10745l-0.50326,-4.43437l5.45571,-0.26621l0.50326,4.43437z" data-paper-data="{&quot;origPos&quot;:null}"/></g></g><path d="M92.03203,327.61232v-59.04493h295.93601v59.04493z" fill="#ffffff" stroke="#000000" stroke-width="5" stroke-linecap="butt"/><path d="M92.50003,266.78546v-221h295v221z" fill="none" stroke="#000000" stroke-width="5" stroke-linecap="butt"/><text transform="translate(156.65603,306.29487) scale(0.8467,0.8467)" font-size="40" xml:space="preserve" fill="#000000" fill-rule="nonzero" stroke="none" stroke-width="1" stroke-linecap="butt" stroke-linejoin="miter" stroke-miterlimit="10" stroke-dasharray="" stroke-dashoffset="0" font-family="&quot;ヒラギノ角ゴ Pro W3&quot;, &quot;Hiragino Kaku Gothic Pro&quot;, Osaka, &quot;メイリオ&quot;, Meiryo, &quot;ＭＳ Ｐゴシック&quot;, &quot;MS PGothic&quot;" font-weight="normal" text-anchor="start" style="mix-blend-mode: normal"><tspan x="0" dy="0">The Desk</tspan></text></g></g></svg>