<svg version="1.1" xmlns="http://www.w3.org/2000/svg" xmlns:xlink="http://www.w3.org/1999/xlink" width="179.17031" height="179.17031" viewBox="0,0,179.17031,179.17031"><g transform="translate(-150.41484,-90.41484)"><g data-paper-data="{&quot;isPaintingLayer&quot;:true}" fill="#ff0064" fill-rule="nonzero" stroke="none" stroke-linecap="butt" stroke-linejoin="miter" stroke-miterlimit="10" stroke-dasharray="" stroke-dashoffset="0" style="mix-blend-mode: normal"><path d="M178.75,180c0,-33.8274 27.4226,-61.25 61.25,-61.25c33.8274,0 61.25,27.4226 61.25,61.25c0,33.8274 -27.42261,61.25 -61.25,61.25c-33.8274,0 -61.25,-27.4226 -61.25,-61.25zM240,211.32498c16.9137,0 30.625,-13.7113 30.625,-30.625c0,-16.9137 -13.7113,-30.625 -30.625,-30.625c-16.9137,0 -30.625,13.7113 -30.625,30.625c0,16.9137 13.7113,30.625 30.625,30.625z" stroke-width="0.5"/><path d="M223.41691,90.41484h33.16619l-16.58309,34.88443z" data-paper-data="{&quot;origRot&quot;:0}" stroke-width="0"/><path d="M240,234.70073l16.58309,34.88443h-33.16619z" data-paper-data="{&quot;origRot&quot;:0,&quot;index&quot;:null}" stroke-width="0"/><path d="M329.58516,163.4169v33.16619l-34.88443,-16.58309z" data-paper-data="{&quot;origRot&quot;:0}" stroke-width="0"/><path d="M185.29927,180l-34.88443,16.58309v-33.16619z" data-paper-data="{&quot;origRot&quot;:0,&quot;index&quot;:null}" stroke-width="0"/></g></g></svg>