<svg version="1.1" xmlns="http://www.w3.org/2000/svg" xmlns:xlink="http://www.w3.org/1999/xlink" width="124.39308" height="87.57306" viewBox="0,0,124.39308,87.57306"><g transform="translate(-215.04682,-125.09971)"><g data-paper-data="{&quot;isPaintingLayer&quot;:true}" fill-rule="nonzero" stroke-linejoin="miter" stroke-miterlimit="10" stroke-dasharray="" stroke-dashoffset="0" style="mix-blend-mode: normal"><path d="M218.58382,208.93927v-6.0915h44.99848v6.0915z" fill="#6c4e00" stroke="none" stroke-width="0" stroke-linecap="butt"/><path d="M237.05481,204.81277v-13.36199h13.36199v13.36199z" fill="#6c4e00" stroke="none" stroke-width="0" stroke-linecap="butt"/><g data-paper-data="{&quot;origRot&quot;:0}" stroke="none" stroke-width="0" stroke-linecap="butt"><path d="M262.8213,193.09733c-22.46756,9.59291 -42.81704,13.55042 -46.63756,5.87547c-3.82052,-7.67495 12.4796,-20.48261 32.80224,-33.66891c1.71332,-1.11169 17.48963,26.23317 13.83531,27.79345z" data-paper-data="{&quot;origPos&quot;:null,&quot;origRot&quot;:0}" fill="#9c9c9c"/><path d="M249.16302,165.37163c3.18531,-1.08255 16.95254,25.99189 13.76723,27.07443c-3.18531,1.08255 -8.75313,-3.16083 -11.21505,-10.40485c-2.46192,-7.24402 -5.73749,-15.58704 -2.55218,-16.66958z" data-paper-data="{&quot;origPos&quot;:null}" fill="#000000"/></g><path d="M224.08581,206.38477v-17.68499h14.934v17.68499z" fill="#8d6400" stroke="none" stroke-width="0" stroke-linecap="butt"/><path d="M215.04682,212.67277v-7.2705h41.65798v7.2705z" fill="#8d6400" stroke="none" stroke-width="0" stroke-linecap="butt"/><g data-paper-data="{&quot;index&quot;:null,&quot;origRot&quot;:0}" stroke-width="1.5"><path d="M317.54255,148.16759c0.03698,-0.39038 0.42735,-0.3534 0.42735,-0.3534l0.13155,0.30201c0.00009,-0.00832 0.00019,-0.01665 0.00028,-0.02496c0.00474,-0.00353 0.00952,-0.00714 0.01426,-0.01079c0.00997,0.05823 0.19133,0.06022 0.40294,0.04162c0.04503,-0.10605 0.14346,-0.22298 0.35858,-0.22055c0.3921,0.00443 0.38766,0.39654 0.38766,0.39654c-0.01173,1.03767 0.0038,2.12195 0.19981,3.13945c0.06213,0.32254 0.20286,0.68439 0.25747,1.03646c0.0865,0.55777 -0.21007,0.95095 -0.63108,1.17152c-0.00159,0.00255 -0.00262,0.00293 -0.00323,0.00169c-0.0506,0.02637 -0.10297,0.05024 -0.1567,0.07161c-0.00411,0.00294 -0.00838,0.00566 -0.01281,0.00814c-0.00304,0.00169 -0.00464,0.00112 -0.00528,-0.00105c-0.21922,0.08449 -0.45963,0.12777 -0.69134,0.12892c-0.13992,0.00069 -0.56634,0.01548 -0.66407,-0.09354c-0.74283,-0.82871 -0.08001,-1.69374 -0.12877,-2.62124c0.01019,-0.90183 0.02038,-1.80365 0.03057,-2.70548l0.23552,0.08663c-0.08914,-0.0594 -0.17053,-0.16545 -0.15272,-0.35355z" data-paper-data="{&quot;origPos&quot;:null}" fill="#ffffff" stroke="none" stroke-linecap="butt"/><path d="M312.20776,143.45326c0.01791,-0.04618 0.0394,-0.08426 0.06327,-0.11556c-0.2101,-0.10372 -0.45526,-0.14333 -0.79114,-0.14712l-0.3928,-0.03765c0,0 -0.35711,-0.16197 -0.19513,-0.51908c0.02862,-0.0631 0.06333,-0.11 0.10109,-0.14444c-0.44743,-0.09627 -0.86099,-0.11067 -1.12657,-0.44122c-0.23038,0.28602 0.07203,-0.08776 -0.02925,-0.16533c0.28457,-0.01718 0.71904,-0.01049 0.82946,0.00597c1.04808,0.15615 2.17453,0.63838 3.08454,1.02278c0.40804,0.17237 0.73466,0.40997 1.17863,0.53536c0.34824,0.00765 0.70169,0.06097 1.04664,0.02308c0.13047,-0.01433 0.25692,-0.08609 0.33135,-0.17395c0.02841,-0.03354 -0.17351,-0.05259 -0.12668,-0.06728c0.41782,-0.13113 1.12338,0.11008 1.44785,-0.2729c0.02842,-0.03353 -0.17347,-0.05262 -0.12665,-0.06731c0.31609,-0.0992 0.97317,0.01161 1.31698,0.0155v0c0.45673,0.00515 0.91474,0.01104 1.37147,0.0162c-0.00452,0.39994 -0.00802,0.80064 -0.01254,1.20057c-0.00904,0.79988 -0.01579,1.60261 -0.02482,2.40249c-0.00122,0.10809 0.06229,0.2172 0.03881,0.32353c-0.01616,0.07315 -0.14343,0.17244 -0.14294,0.23023c-0.09279,0.01758 -0.21178,0.02652 -0.3067,0.02544c-0.44839,-0.00507 -0.89642,-0.00943 -1.34459,-0.01406c-0.07991,0.25771 -0.37697,0.25434 -0.37697,0.25434c-0.71448,-0.00808 -1.48275,-0.01676 -2.2157,-0.02503c-0.2371,0.12352 -0.47085,0.30801 -0.72395,0.58233c-0.14146,0.15332 -0.00459,0.86512 -0.00687,1.0669c-0.01306,1.15539 -0.02756,2.31088 -0.04061,3.46627c-0.00411,0.364 0.14456,1.37897 0.00374,1.57306c-0.03242,0.04469 -0.56706,0.4216 -0.65334,0.5087c-0.17928,0.00198 -0.57634,0.04517 -0.70579,0.02589c-0.55254,-0.08232 -1.00267,-0.22376 -1.57509,-0.23023c-0.00489,-0.00006 -0.01007,-0.00029 -0.01546,-0.00068c-0.21411,-0.74149 -0.40892,-1.57338 -0.27679,-2.32602c0.04478,-0.25516 0.2243,-0.48628 0.26928,-0.74141c0.04409,-0.25003 -0.0425,-0.50797 -0.00858,-0.75907c0.04639,-0.34352 0.19485,-0.67541 0.2451,-1.01856c0.02029,-0.13858 -0.12778,-0.28061 -0.08292,-0.41525c0.17532,-0.52611 0.60519,-1.0653 0.8305,-1.5962c0.40162,-0.94633 0.84413,-2.02604 0.58816,-3.01534c-0.31278,-0.09436 -0.61427,-0.19513 -0.91724,-0.3203l-0.304,-0.15721c0,0 -0.36558,-0.14182 -0.22375,-0.5074z" fill="#ffffff" stroke="none" stroke-linecap="butt"/><path d="M319.72254,143.5619c-0.00353,0.31178 -0.00705,0.62356 -0.01057,0.93534c-0.01294,1.14565 0.28364,2.74626 -0.59986,3.61003c-0.16271,0.15908 -0.43371,0.145 -0.65862,0.1796c-0.51739,0.07959 -1.12231,-0.01268 -1.64681,-0.01861c-0.20921,-0.00236 -0.48047,-0.0616 -0.67628,-0.03783c-0.02023,0.00245 -0.04407,0.01327 -0.06868,0.02695c-0.00016,0.01389 -0.00031,0.02777 -0.00047,0.04167c-0.00354,0.31368 -0.00709,0.62736 -0.01063,0.94104c-0.00974,0.86262 -0.0195,1.72523 -0.02924,2.58785c-0.0108,0.95604 0.09476,2.08002 -0.83002,2.68103c-0.18463,0.11999 -0.37159,0.24188 -0.57645,0.32263c-0.40801,0.16084 -1.04611,-0.10689 -1.40979,-0.17279c-0.19933,-0.03612 -0.52206,0.0731 -0.70577,-0.00797c-0.35543,-0.15687 -0.78572,-0.39122 -0.87569,-0.76917c-0.21984,-0.92361 -0.34234,-1.88805 -0.19058,-2.84058c0.01633,-0.10253 0.11742,-0.18002 0.12987,-0.2831c0.0963,-0.79762 0.04436,-1.67171 0.24672,-2.4563c0.105,-0.40716 0.38913,-0.83953 0.53122,-1.25025c0.14818,-0.42836 0.37165,-0.85728 0.37665,-1.2999c0.00294,-0.26139 0.00591,-0.52281 0.00886,-0.7842c0.00023,-0.02032 -0.00461,-0.04709 -0.01059,-0.07529c-0.28217,-0.15098 -0.48355,-0.32908 -0.7401,-0.54177c-0.20719,-0.17177 -0.53521,-0.18496 -0.79627,-0.28602c-0.40168,-0.15549 -0.76797,-0.40026 -1.00207,-0.76016c-0.08309,-0.18813 -0.18867,-0.36786 -0.24927,-0.5644c-0.30197,-0.97913 0.86087,-1.36279 1.54469,-1.35506c1.11182,0.01256 2.17709,0.58393 3.13762,1.07541c0.23406,0.11976 0.28793,0.22251 0.51,0.31067c0.24428,-0.13811 0.6724,-0.33414 0.80991,-0.23769c0.03666,0.02571 -0.13382,0.11399 -0.09211,0.09775c0.27869,-0.10852 0.51562,-0.31531 0.80142,-0.40345c0.252,-0.07772 0.67533,0.00763 0.94104,0.01063c0.47051,0.00531 0.94104,0.01063 1.41155,0.01595c0.15684,0.00177 0.31368,0.00354 0.47051,0.00531c0.07433,0.00084 0.14529,0.01543 0.21048,0.04133c0.16808,0.05923 0.37497,0.20326 0.37102,0.55346c-0.00347,0.30715 -0.16553,0.45209 -0.3196,0.52046c-0.00017,0.01493 -0.00033,0.02985 -0.0005,0.04478l0.09466,0.00898c0,0 -0.0323,0.06281 -0.09627,0.1337zM318.54764,143.42527c-0.32675,-0.00369 -0.6535,-0.00738 -0.98024,-0.01107c-0.24596,-0.00278 -0.71471,-0.09875 -0.94104,-0.01063c-0.03353,0.01306 0.11072,0.02944 0.09033,0.05909c-0.23287,0.33852 -0.73574,0.12747 -1.03491,0.24396c-0.03353,0.01306 0.11072,0.02944 0.09033,0.05909c-0.05342,0.07765 -0.14366,0.14129 -0.23703,0.15418c-0.24686,0.03408 -0.49826,-0.01218 -0.74739,-0.01827c-0.31739,-0.1098 -0.54923,-0.31895 -0.84082,-0.47026c-0.65032,-0.33745 -1.45295,-0.76163 -2.20248,-0.89744c-0.07898,-0.01432 -0.38927,-0.0197 -0.59289,-0.004c0.0723,0.06826 -0.15336,0.3855 0.01199,0.13271c0.23876,0.36706 0.64751,0.28987 1.05963,0.47347c0.44036,0.19619 0.663,0.56667 1.04859,0.79401c0.01835,0.01082 -0.01516,-0.06515 0.00609,-0.0636c0.08245,0.006 0.18634,0.0138 0.23438,0.08107c0.75721,1.06039 0.32505,2.37666 -0.05954,3.48842c-0.1622,0.46885 -0.47036,0.93909 -0.59678,1.40362c-0.03235,0.11887 0.07276,0.24272 0.05797,0.36504c-0.0366,0.30286 -0.14459,0.59446 -0.17842,0.89764c-0.02473,0.22162 0.03587,0.44829 0.00386,0.66898c-0.03267,0.22519 -0.16191,0.42918 -0.19443,0.65439c-0.09595,0.66433 0.04025,1.39715 0.19203,2.05097c0.00385,0.00033 0.00754,0.00052 0.01105,0.00056c0.40952,0.00463 0.72976,0.12817 1.12492,0.19976c0.09257,0.01678 0.37602,-0.02217 0.5043,-0.02425c0.06189,-0.07702 0.44442,-0.41061 0.46771,-0.4501c0.10113,-0.17152 -0.00337,-1.06677 0.00025,-1.38795c0.01152,-1.01946 0.02303,-2.03892 0.03455,-3.05837c0.00202,-0.17805 -0.09085,-0.8055 0.01063,-0.94104c0.5992,-0.80025 1.05033,-0.73322 1.92971,-0.72328c0.47051,0.00531 0.94104,0.01063 1.41155,0.01595c0.0679,0.00077 0.13799,-0.00299 0.2044,-0.01867c-0.00024,-0.05099 0.09109,-0.13851 0.1028,-0.20309c0.01701,-0.09385 -0.02805,-0.1895 -0.02697,-0.28486c0.00797,-0.70577 0.01595,-1.41155 0.02392,-2.11734c0.00399,-0.35289 0.00797,-0.70577 0.01196,-1.05867zM310.98899,142.55557c-0.00644,0.00252 -0.00632,0.00514 -0.00206,0.00797c0.00714,-0.00508 0.01444,-0.00981 0.02189,-0.01417c-0.00757,0.00196 -0.01421,0.00402 -0.01983,0.0062z" data-paper-data="{&quot;origPos&quot;:null}" fill="#dadada" stroke="none" stroke-linecap="butt"/><path d="M319.30624,146.71157c0.52903,-0.25709 0.78611,0.27194 0.78611,0.27194l-0.04723,0.06895c0.12454,0.0776 0.18934,0.19578 0.22308,0.29886c0.02442,0.06576 0.03741,0.13703 0.03657,0.21137l-0.00709,0.62736l-0.01269,-0.00015c-0.0411,0.88489 -0.12105,1.81302 -0.01743,2.66641c0.01251,0.10306 0.10943,0.18308 0.12344,0.28596c0.08777,0.64423 0.01505,1.33992 0.0077,1.98998c-0.01718,1.52111 -1.42279,1.98026 -2.67403,1.5474c-0.35365,-0.12233 -0.82159,-0.26017 -1.00717,-0.62406c-0.45927,-0.90054 -0.34509,-1.80001 -0.03294,-2.71993c0.26746,-0.77315 0.22452,-1.71856 0.23399,-2.55639c0.00277,-0.24479 -0.08304,-0.7183 0.01063,-0.94104c0.28237,-0.67143 0.45202,-0.76199 1.14728,-0.88898c0.20407,-0.03728 0.60041,0.10884 0.75559,-0.0397c0.07871,-0.02526 0.15743,-0.0505 0.23615,-0.07576l-0.00368,0.07214c0.05143,-0.07202 0.12862,-0.13941 0.24174,-0.19439zM318.10268,148.09904c-0.00084,0.07436 -0.00168,0.1487 -0.00252,0.22305c-0.00354,0.31368 -0.00709,0.62736 -0.01063,0.94104c-0.00624,0.55217 -0.08818,1.03136 -0.17457,1.56663c-0.04915,0.30458 -0.0146,0.58969 -0.11868,0.89054c-0.19769,0.55604 -0.15796,0.91863 -0.16088,1.47339c-0.00015,0.02879 -0.08732,0.01282 -0.07675,0.03958c0.02718,0.06877 0.12338,0.0918 0.15507,0.15861c0.01064,0.02245 -0.09463,0.00132 -0.07322,0.01393c0.43358,0.25562 0.83412,0.27157 1.27218,0.24966c0.02127,-0.00107 -0.01394,0.07413 0.00465,0.06372c0.06452,-0.0361 0.0918,-0.12337 0.15861,-0.15507c0.02245,-0.01064 0.00132,0.09463 0.01393,0.07322c0.106,-0.17979 0.13029,-0.31989 0.13253,-0.51835c0.00576,-0.50963 0.1085,-1.12285 0.04846,-1.61732c-0.02743,-0.2259 -0.14888,-0.43315 -0.1796,-0.65862c-0.12087,-0.8872 -0.01914,-1.87541 0.02229,-2.79752c-0.2518,0.04712 -0.97642,0.16101 -0.99667,0.04273c-0.00474,0.00366 -0.00948,0.00726 -0.01421,0.01079z" data-paper-data="{&quot;origPos&quot;:null}" fill="#dadada" stroke="none" stroke-linecap="butt"/><path d="M330.19,151.12531c0.1737,1.81803 -0.84087,2.91589 -0.84087,2.91589c0,0 -2.65967,2.06037 -2.39116,-2.88439z" data-paper-data="{&quot;origPos&quot;:null}" fill="#ffffff" stroke="#dadada" stroke-linecap="round"/><path d="M325.15017,150.74035c0.04221,1.99667 -1.17898,3.1067 -1.17898,3.1067c0,0 -3.13333,2.01854 -2.423,-3.34875z" data-paper-data="{&quot;origPos&quot;:null,&quot;origRot&quot;:0}" fill="#ffffff" stroke="#dadada" stroke-linecap="round"/><path d="M326.93398,150.98596l-0.3763,-3.7166l-1.3739,-0.14797l-0.1236,3.11138l-3.8123,-0.40908l0.45192,-2.97523l-2.19752,0.13203l-0.00797,-3.92157l10.5558,0.53757l0.38871,7.24607z" data-paper-data="{&quot;origPos&quot;:null}" fill="#0062b3" stroke="#00577c" stroke-linecap="round"/><path d="M325.89538,142.13578c2.42536,0.0274 4.38596,0.54116 4.3791,1.14749c-0.00685,0.60634 -1.97855,1.07567 -4.40391,1.04826c-2.42536,-0.0274 -4.38596,-0.54116 -4.3791,-1.1475c0.00685,-0.60634 1.97855,-1.07566 4.40391,-1.04826z" data-paper-data="{&quot;origPos&quot;:null}" fill="#0062b3" stroke="#00577c" stroke-linecap="butt"/><path d="M326.3535,143.23897c-3.81128,-0.04306 -6.86603,-3.16763 -6.82297,-6.97892c0.04306,-3.81128 3.16763,-6.86603 6.97892,-6.82297c3.81128,0.04306 6.86603,3.16763 6.82296,6.97892c-0.04306,3.81128 -3.16763,6.86603 -6.97892,6.82296z" data-paper-data="{&quot;origPos&quot;:null}" fill="#ffffff" stroke="#dadada" stroke-linecap="butt"/><path d="M335.83809,133.30713c-0.00886,0.7842 -0.01773,1.5684 -0.02659,2.35259c-0.00028,0.0247 -0.00143,0.05445 -0.0032,0.08799c0.15466,0.02287 0.35013,0.00862 0.38268,0.14255c0.08918,0.36702 0.08907,0.7549 0.06028,1.13151c-0.00121,0.01588 -0.01817,0.03902 -0.04481,0.06666c0.00968,0.00913 0.01906,0.01814 0.02805,0.02701c0.07573,0.00086 0.15146,0.00171 0.22719,0.00257c0.40553,0.00458 0.75905,-0.17259 1.14947,-0.19212c0.02127,-0.00107 -0.01283,0.07589 0.00464,0.06372c0.18204,-0.12674 0.31722,-0.31014 0.47583,-0.4652c0.04824,-0.04716 0.09101,-0.17395 0.14326,-0.16241c0.00254,-0.22494 0.00508,-0.44987 0.00763,-0.67482c0.00225,-0.19967 0.05638,-0.39914 0.03694,-0.59787c-0.03274,-0.33449 -0.18003,-0.62045 -0.17606,-0.97231c0.08592,-0.34603 -0.18396,-0.66012 -0.36125,-0.93267c-0.04519,-0.06947 -0.17766,-0.14482 -0.16719,-0.21053c-0.19861,-0.00224 -0.3972,-0.00449 -0.5958,-0.00673c-0.21464,-0.00243 -0.56343,-0.06892 -0.75471,-0.03871c-0.13101,0.02069 -0.26393,0.05406 -0.39735,0.09255c0.02106,0.08271 0.03087,0.18365 0.00313,0.28735zM335.97786,138.289c-0.04481,-0.01885 -0.08833,-0.04027 -0.13096,-0.06343c0.01291,0.52295 0.00449,1.04277 -0.08147,1.51199c-0.09088,0.49605 -0.44526,0.93846 -0.51698,1.43505c-0.09603,0.66495 0.0803,1.67967 -0.56373,2.17308c-0.16447,0.126 -0.36143,0.2027 -0.54215,0.30405c-1.04014,0.3337 -1.49041,-0.66037 -1.6814,-1.45396c-0.19855,-0.82496 -0.1544,-1.94521 0.09992,-2.74799c0.08807,-0.278 0.28188,-0.51379 0.37673,-0.78954c0.00737,-0.02144 -0.05615,0.04886 -0.0624,0.02707c-0.02164,-0.07538 -0.01101,-0.15804 0.00267,-0.23526c0.08338,-0.47089 0.16484,-0.70601 0.17013,-1.17453c0.00102,-0.0906 0.00205,-0.1812 0.00307,-0.27181c-0.10672,-0.25908 -0.14221,-0.57043 -0.28919,-0.80566c-0.33028,-0.52861 -1.03377,-0.68706 -1.3957,-1.2302c-0.27642,-0.4148 -0.06571,-1.01095 -0.20629,-1.44914c-0.07189,-0.22407 -0.19703,-0.87364 -0.23933,-0.94922c-0.02737,-0.04891 -0.12763,-0.08066 -0.15538,-0.11905c-0.12232,-0.00627 -0.24647,-0.02692 -0.36817,-0.02829c-0.6588,-0.00745 -1.36026,0.06693 -1.98233,-0.19469c-0.17378,-0.07309 -0.11232,-0.15413 -0.22133,-0.24273c-0.20514,-0.16672 -0.44346,-0.29493 -0.62826,-0.48396c-0.05806,-0.05939 -0.18129,-0.14272 -0.16766,-0.21054c-0.303,-0.00343 -0.60601,-0.00685 -0.90902,-0.01027c-0.07842,-0.00089 -0.17105,0.04238 -0.23526,-0.00267c-0.03666,-0.02571 0.13382,-0.11399 0.09211,-0.09775c-0.24561,0.09563 -0.43891,0.30145 -0.68595,0.39334c-0.07772,0.02891 -0.607,0.1045 -0.71512,0.13002c-0.08045,0.01899 -0.16109,0.11042 -0.23615,0.07576c-0.05077,-0.02344 0.11136,-0.19001 0.06985,-0.15253c-0.29176,0.26347 -0.35623,0.70404 -0.55564,1.02452c-0.36308,0.58353 -1.25951,1.09922 -1.91844,1.09176c0.03071,-0.03258 0.13382,-0.11399 0.09211,-0.09775c-0.29012,0.11296 -0.51673,0.43442 -0.85124,0.45113c-0.02127,0.00107 0.01395,-0.07412 -0.00464,-0.06372c-0.06452,0.0361 -0.0918,0.12338 -0.15862,0.15507c-0.02245,0.01064 -0.00131,-0.09462 -0.01392,-0.07321c-0.15917,0.26998 -0.16989,0.59482 -0.39184,0.84172c-0.055,0.06119 -0.10997,0.12291 -0.16639,0.18318c0.10439,0.1646 0.10227,0.35254 0.10227,0.35254c-0.01122,0.99332 -0.02245,1.98664 -0.03366,2.97995c-0.0042,0.37226 0.12642,1.07304 -0.01595,1.41155c-0.08536,0.20298 -0.22372,0.37933 -0.33558,0.56901c-0.53885,0.52681 -1.02288,0.7403 -1.7842,0.51409c-0.07925,-0.02354 -0.17659,-0.02197 -0.23438,-0.08107c-0.17619,-0.18022 -0.31197,-0.39736 -0.44353,-0.61233c-0.187,-0.30554 -0.09976,-0.78343 -0.09587,-1.12826c0.00627,-0.55487 0.0825,-1.16396 0.02955,-1.71898c-0.0027,-0.02837 -0.00575,-0.0566 -0.00916,-0.08467c-0.0271,-0.22317 -0.13286,-0.44215 -0.14886,-0.70755c0.00154,-0.13693 -0.01182,-0.27745 -0.05627,-0.40697l-0.07487,-0.31456c0,0 0.07274,0.52898 -0.01012,-0.05333c-0.02123,-0.14917 0.04418,-0.23629 0.15322,-0.28336c0.01108,-0.98039 0.02216,-1.96078 0.03324,-2.94117c0.00846,-0.74867 -0.09779,-1.59212 0.19823,-2.29601c0.03352,-0.0797 0.15785,-0.08625 0.20533,-0.15852c0.1476,-0.22478 0.23237,-0.48655 0.37732,-0.71306c0.2761,-0.43145 0.62068,-0.69304 1.00702,-0.99278c0.60864,-0.47222 1.08324,-0.94434 1.91667,-0.93494c1.28085,0.01447 2.56172,0.02895 3.84256,0.04342c0.68899,0.00778 1.49222,-0.09305 2.14526,0.13286c0.36479,0.1262 0.763,0.31354 1.14306,0.37488c0.2213,0.03571 0.45175,-0.00312 0.67112,0.043c0.56472,0.11873 1.11433,0.44488 1.66,0.62834c0.41328,0.13896 0.80054,0.09807 1.21598,0.21513c0.35344,0.0996 1.05569,0.47585 1.31665,0.68529c0.21226,0.17036 0.42606,0.67402 0.55389,0.89264c0.09843,0.18515 0.21319,0.36251 0.29527,0.55546c0.04219,0.09918 0.07544,0.20678 0.07487,0.31456c-0.00015,0.02879 -0.08732,0.01282 -0.07675,0.03958c0.08691,0.21992 0.32926,0.34518 0.44962,0.54873c0.01164,0.01967 0.0229,0.03957 0.03383,0.05969c0.79387,-0.18415 1.48258,-0.2879 2.31251,-0.27853c0.14697,0.00166 0.58168,-0.06389 0.70577,0.00797c0.84794,0.49096 1.29982,1.38367 1.34621,2.32889c-0.0023,0.20383 0.09521,0.39731 0.1199,0.59965c0.04834,0.39613 0.02107,0.80723 0.01656,1.2058c-0.00198,0.17588 0.05944,0.54548 -0.00797,0.70577c-0.45914,1.09177 -1.59162,1.63582 -2.72454,1.65545c-0.17,0.00294 -0.55089,0.05717 -0.70577,-0.00797zM333.59154,142.36074c0.01139,0.01261 0.02681,0.02285 0.04435,0.03171c-0.03549,-0.02664 -0.06165,-0.05086 -0.04435,-0.03171z" data-paper-data="{&quot;origPos&quot;:null}" fill="#000000" stroke="none" stroke-linecap="butt"/><path d="M335.8257,133.30187c0.02775,-0.1037 0.01839,-0.20493 -0.00267,-0.28766c0.13341,-0.03848 0.26755,-0.07246 0.39856,-0.09314c0.19128,-0.03021 0.54267,0.03575 0.75732,0.03818c0.19861,0.00224 0.39942,0.00473 0.59801,0.00698c-0.01047,0.06572 0.12282,0.14133 0.16801,0.21079c0.17728,0.27256 0.45035,0.58888 0.36442,0.93489c-0.00398,0.35184 0.1452,0.64331 0.17794,0.97781c0.01944,0.19872 -0.03565,0.40161 -0.0379,0.60126c-0.00254,0.22494 -0.00674,0.45195 -0.00927,0.67688c-0.05226,-0.01152 -0.09576,0.11583 -0.144,0.163c-0.15861,0.15507 -0.2961,0.33957 -0.47814,0.4663c-0.01748,0.01217 0.01667,-0.06481 -0.00459,-0.06374c-0.39041,0.01951 -0.74829,0.19673 -1.15381,0.19216c-0.07573,-0.00086 -0.15219,-0.00195 -0.22791,-0.00281c-0.00898,-0.00887 -0.01847,-0.01793 -0.02816,-0.02706c0.02664,-0.02764 0.04365,-0.05075 0.04486,-0.06664c0.02878,-0.37661 0.02629,-0.76619 -0.06289,-1.13323c-0.03255,-0.13394 -0.22928,-0.12131 -0.38393,-0.1442c0.00177,-0.03353 0.00272,-0.06366 0.00299,-0.08836c0.00886,-0.7842 0.02019,-1.5784 0.02905,-2.36259z" data-paper-data="{&quot;noHover&quot;:false,&quot;origItem&quot;:[&quot;Path&quot;,{&quot;applyMatrix&quot;:true,&quot;segments&quot;:[[[145.29997,134.00786],[0,0],[-0.16943,-0.66313]],[[145.34059,132.17618],[-0.1402,0.52581],[-0.84774,-0.25496]],[[142.81415,131.55756],[0.8337,0.14134],[-1.21724,-0.20637]],[[138,131.75],[1.36856,0],[-1.26627,0]],[[134.2012,131.75],[1.26627,0],[0.06203,0.41971]],[[133.12019,133.08013],[0.29307,-0.43961],[-1.14988,1.72482]],[[130.75,139],[-0.52288,-2.21214],[0,2.24333]],[[129.55756,145.18585],[0.2328,-2.13008],[-0.1383,1.26546]],[[129.75,149],[0,-1.273],[0,1.4342]],[[129.75,153.3026],[0,-1.4342],[0.334,-0.06973]],[[130.65165,154.34835],[-0.30411,-0.30411],[1,1]],[[133.65165,157.34835],[-1.15142,-0.82111],[0.11055,0.07884]],[[133.68585,156.94244],[-0.13553,-0.00831],[2.48752,0.15255]],[[141,158.25],[-2.58557,0],[0.48284,0]],[[142.44853,158.25],[-0.48284,0],[0.05793,-0.05591]],[[142.62923,158.07984],[-0.0624,0.0575],[-0.16786,-0.17809]],[[142.34835,157.65165],[0.00659,0.10133],[-0.15637,-2.403]],[[142.81414,150.44244],[-0.595,2.33342],[0.21713,-0.85153]],[[145.26403,149.56116],[-0.9876,0.13469],[-0.00883,-0.21393]],[[145.25,149],[0,0.15752],[0,-5]],[[145.25,134],[0,5],[0,0]]],&quot;closed&quot;:true}]}" fill="#ffffff" stroke="none" stroke-linecap="butt"/><path d="M334.88541,128.20145l-0.32317,3.83161l-3.29975,-2.4421z" data-paper-data="{&quot;origPos&quot;:null,&quot;origRot&quot;:0}" fill="#ffffff" stroke="#000000" stroke-linecap="round"/><path d="M320.62958,126.57555l3.03171,2.76785l-3.69772,1.05481z" data-paper-data="{&quot;origPos&quot;:null,&quot;origRot&quot;:0,&quot;index&quot;:null}" fill="#ffffff" stroke="#000000" stroke-linecap="round"/><path d="M329.41542,136.01882c-0.32483,-0.00367 -0.58516,-0.26997 -0.58151,-0.59479c0.00367,-0.32483 0.26997,-0.58516 0.59479,-0.58151c0.32483,0.00367 0.58516,0.26997 0.5815,0.5948c-0.00367,0.32483 -0.26997,0.58516 -0.59479,0.58151z" fill="#000000" stroke="none" stroke-linecap="butt"/><path d="M324.70845,136.12249c-0.32483,-0.00367 -0.58516,-0.26997 -0.5815,-0.5948c0.00367,-0.32483 0.26997,-0.58516 0.59479,-0.58151c0.32483,0.00367 0.58516,0.26997 0.58151,0.59479c-0.00367,0.32483 -0.26997,0.58516 -0.5948,0.5815z" fill="#000000" stroke="none" stroke-linecap="butt"/><path d="M327.19928,137.79766c-0.10828,-0.00122 -0.19506,-0.08999 -0.19384,-0.19827c0.00122,-0.10828 0.08999,-0.19506 0.19827,-0.19384c0.10828,0.00122 0.19506,0.08999 0.19384,0.19827c-0.00122,0.10828 -0.08999,0.19506 -0.19827,0.19384z" fill="#000000" stroke="none" stroke-linecap="butt"/><path d="M329.52751,139.98078c-1.91681,2.06638 -1.34454,-0.91192 -2.65741,-0.81433c-1.31286,0.09761 -2.04296,2.76268 -3.45401,0.27469" data-paper-data="{&quot;origPos&quot;:null}" fill="none" stroke="#000000" stroke-linecap="round"/><path d="M319.9866,132.70937c0.23953,0.34303 0.32125,0.42134 0.47442,1.02557c0.08555,0.33753 0.00605,0.72057 -0.02972,1.07643c-0.08388,0.83417 -0.31325,1.98674 -0.82106,2.44947c-0.69926,0.43408 -1.55345,0.47536 -2.31946,0.28904c-0.10216,-0.02485 -0.18045,-0.15488 -0.28253,-0.18031c-0.22623,-0.05634 -0.46515,0.00958 -0.68829,-0.0666c-0.9797,-0.33446 -1.99967,-1.18172 -2.38018,-2.54509c-0.06799,-0.24362 0.01104,-0.97701 0.01363,-1.20611c0.02718,-0.44845 -0.00191,-1.0039 0.21475,-1.39963c0.21082,-0.38506 0.44329,-0.75573 0.71495,-1.05723c0.17225,-0.19116 0.44046,-0.00282 0.65603,0.04962c0.30679,0.07462 0.59874,0.3384 0.90741,0.40669c0.26405,0.05842 0.54167,0.02992 0.7952,0.14712c0.08929,0.04127 0.18148,0.11195 0.23278,0.22195c0.01958,0.04199 -0.12657,0.06707 -0.09191,0.08015c0.26145,0.09867 0.54511,-0.00709 0.81287,0.05139c0.28634,0.06255 0.43594,0.18203 0.75304,0.18563c0,0 0.25811,0.00292 0.42966,0.24397l0.04086,-0.23865c0,0 0.42388,0.00478 0.54626,0.50938zM319.14782,133.82709c-0.11804,0.05616 -0.21786,0.05504 -0.21786,0.05504c-0.40723,-0.0046 -0.73278,-0.19693 -1.12407,-0.27423c-0.14588,-0.02881 -0.30095,0.09662 -0.44184,0.03721c-0.28575,-0.12047 -0.51457,-0.42646 -0.79025,-0.5857c-0.04126,-0.02384 0.12676,0.1042 0.08943,0.13913c-0.0654,0.06121 -0.15775,0.01329 -0.23526,-0.00267c-0.35383,-0.07282 -0.70683,-0.22269 -1.04441,-0.38299c-0.04498,-0.02136 -0.09148,-0.0421 -0.13859,-0.05601c0.00304,0.00561 0.00587,0.01173 0.00845,0.01838c0.09146,0.23574 -0.16605,0.52775 -0.12371,0.78976c-0.00314,0.27796 -0.00627,0.55593 -0.00942,0.83389c0.05255,-0.0147 0.09188,0.1637 0.13883,0.23093c0.15436,0.22106 0.28453,0.48109 0.46308,0.6632c0.01715,0.01748 -0.01486,-0.09102 0.00637,-0.08896c0.35483,0.03447 0.70806,0.43988 1.04553,0.57673c0.08166,0.03311 0.16892,-0.07636 0.25275,-0.05597c0.22391,0.05446 0.42982,0.21319 0.65355,0.26891c0.24148,0.06013 0.64805,-0.03488 0.91236,-0.03189c0.15684,0.00177 0.3241,0.08555 0.47051,0.00531c0.03358,-0.0184 -0.06005,-0.0548 -0.09007,-0.08221c0.07925,-0.07221 0.19039,-0.10218 0.23773,-0.21664c0.02833,-0.06849 -0.15051,0.11979 -0.16644,0.04433c-0.06133,-0.29042 0.21896,-1.00512 0.25013,-1.31311c0.01019,-0.10076 -0.00015,-0.20408 -0.01042,-0.30703c-0.05441,0.02438 -0.09447,-0.16079 -0.14251,-0.22959l0.00614,-0.03586zM314.86453,132.73959c0.02341,0.00503 0.04916,0.00412 0.07599,0.00023c-0.06751,-0.0045 -0.11827,-0.00932 -0.07599,-0.00023z" data-paper-data="{&quot;origPos&quot;:null}" fill="#000000" stroke="none" stroke-linecap="butt"/><path d="M318.93749,133.87991c0,0 0.09983,0.00116 0.21787,-0.055l-0.0061,0.03599c0.04804,0.06879 0.08828,0.25492 0.1427,0.23053c0.01027,0.10295 0.0207,0.20742 0.01051,0.30819c-0.03117,0.30798 -0.31292,1.02722 -0.2516,1.31765c0.01594,0.07547 0.19502,-0.11317 0.16669,-0.04469c-0.04735,0.11446 -0.15912,0.14527 -0.23836,0.21748c0.03002,0.0274 0.12365,0.06381 0.09006,0.08222c-0.14643,0.08022 -0.31447,-0.00274 -0.47131,-0.00451c-0.26433,-0.00298 -0.67385,0.09367 -0.91533,0.03353c-0.22375,-0.05571 -0.43292,-0.2142 -0.65683,-0.26866c-0.08383,-0.02039 -0.17237,0.0888 -0.25403,0.05567c-0.33747,-0.13685 -0.69524,-0.54599 -1.05007,-0.58045c-0.02124,-0.00206 0.01094,0.10673 -0.0062,0.08925c-0.17855,-0.18211 -0.3098,-0.44526 -0.46417,-0.66632c-0.04694,-0.06723 -0.08632,-0.24655 -0.13888,-0.23185c0.00314,-0.27796 0.00684,-0.55885 0.00998,-0.83681c-0.04234,-0.26201 0.21642,-0.55611 0.12496,-0.79186c-0.00258,-0.00666 -0.00539,-0.0128 -0.00843,-0.0184c0.04711,0.01391 0.0937,0.03453 0.13869,0.05589c0.33758,0.1603 0.69222,0.30873 1.04606,0.38155c0.0775,0.01595 0.17089,0.06331 0.23628,0.00209c0.03734,-0.03495 -0.1308,-0.16293 -0.08954,-0.13909c0.27568,0.15925 0.50948,0.46464 0.79522,0.58512c0.1409,0.05941 0.29911,-0.06459 0.44499,-0.03577c0.39128,0.07729 0.71959,0.27363 1.12683,0.27824z" data-paper-data="{&quot;noHover&quot;:false,&quot;origItem&quot;:[&quot;Path&quot;,{&quot;applyMatrix&quot;:true,&quot;segments&quot;:[[[251.61509,138.51709],[0.74848,0.36659],[0,0]],[[251.65165,138.74616],[0,0],[-0.31117,0.43507]],[[250.72662,140.19953],[0.34516,0.15936],[-0.07288,0.65558]],[[250.63803,142.15615],[-0.05775,-0.64306],[0.17652,1.96567]],[[252.13803,150.54536],[0.4119,-1.84708],[-0.10703,0.47995]],[[251.08013,150.25078],[-0.1757,-0.43863],[0.29365,0.73306]],[[252.58013,151.64898],[-0.5,-0.46607],[-0.19338,0.17253]],[[252,152.16658],[-0.21281,-0.11974],[0.9277,0.522]],[[255,152.16658],[-1,0],[1.6853,0]],[[260.81415,152.43565],[-1.54378,0.36595],[1.43039,-0.33907]],[[265,150.76838],[-1.43134,0.33106],[0.53589,-0.12395]],[[266.60728,151.1434],[-0.52296,0.20523],[2.16124,-0.84814]],[[273.31415,147.54194],[-2.26455,0.19418],[0.13553,-0.01162]],[[273.34835,148.10949],[-0.11055,0.11023],[1.15142,-1.14808]],[[276.34835,143.91489],[-1,1.3982],[0.30411,-0.4252]],[[277.25,142.45271],[-0.334,-0.0975],[0,-1.77226]],[[277.25,137.13592],[0,1.77226],[0.28884,-1.66727]],[[276.51821,132.09221],[-0.60005,1.49632],[0.01695,-0.04226]],[[276.57342,131.97563],[-0.01983,0.03553],[-0.30134,0.08528]],[[275.68585,132.3227],[0.28831,-0.13294],[-2.16368,0.99767]],[[269,134.68907],[2.261,-0.43874],[-0.49525,0.0961]],[[267.5,134.68907],[0.41257,0.39495],[-0.23551,-0.22546]],[[268.08013,133.80846],[0.26479,-0.14899],[-1.76895,0.99536]],[[263,137.48547],[1.83034,-0.74747],[-0.90253,0.36857]],[[260.18585,137.2164],[0.93204,-0.1732],[-2.50007,0.46458]],[[253,138.88367],[2.59648,0],[0,0]]],&quot;closed&quot;:true}]}" fill="#ffffff" stroke="none" stroke-linecap="butt"/></g></g></g></svg>