<svg xmlns="http://www.w3.org/2000/svg" xmlns:xlink="http://www.w3.org/1999/xlink" version="1.1" width="255.19037" height="269.15683" viewBox="0,0,255.19037,269.15683"><g><g data-paper-data="{&quot;isPaintingLayer&quot;:true}" fill-rule="nonzero" stroke-linecap="butt" stroke-linejoin="miter" stroke-miterlimit="10" stroke-dasharray="" stroke-dashoffset="0" style="mix-blend-mode: normal"><g data-paper-data="{&quot;index&quot;:null}"><path d="M 127.0141 216.5002 L 184.7083 204.7131 L 198.0045 236.9206 L 147.6656 266.5246 Z " data-paper-data="{&quot;origPos&quot;:null}" fill="#d6bbff" stroke="#9d85c1" stroke-width="1"/><g data-paper-data="{&quot;origPos&quot;:null}"><path d="M 135.4147 233.2411 C 134.399 233.6605 132.2559 233.4949 132.2559 233.4949 C 132.2559 233.4949 129.9141 228.5208 128.5223 225.1494 C 127.0092 221.4842 124.5996 215.8737 124.5996 215.8737 C 124.5996 215.8737 126.6331 214.4805 127.5189 214.1148 C 131.682 212.3962 136.8244 215.2845 139.0048 220.5661 C 141.1852 225.8477 139.5779 231.5225 135.4148 233.2412 Z " data-paper-data="{&quot;origPos&quot;:null}" stroke-width="1" fill="#f7ffb5" stroke="none"/><path d="M 142.8143 251.1653 C 141.7985 251.5847 139.6555 251.4191 139.6555 251.4191 C 139.6555 251.4191 137.3137 246.445 135.9219 243.0736 C 134.4088 239.4084 131.9992 233.7978 131.9992 233.7978 C 131.9992 233.7978 134.0327 232.4046 134.9184 232.039 C 139.0815 230.3203 144.2239 233.2087 146.4043 238.4903 C 148.5847 243.7718 146.9774 249.4467 142.8144 251.1653 Z " data-paper-data="{&quot;origPos&quot;:null}" stroke-width="1" fill="#f7ffb5" stroke="none"/><path d="M 153.7137 256.1958 C 155.8941 261.4773 154.2868 267.1522 150.1237 268.8708 C 149.1079 269.2902 146.9649 269.1246 146.9649 269.1246 C 146.9649 269.1246 144.6231 264.1504 143.2312 260.779 C 141.7182 257.1139 139.3085 251.5033 139.3085 251.5033 C 139.3085 251.5033 141.3421 250.1101 142.2278 249.7445 C 146.3909 248.0258 151.5333 250.9141 153.7137 256.1957 Z " data-paper-data="{&quot;origPos&quot;:null}" stroke-width="1" fill="#f7ffb5" stroke="none"/></g></g><g data-paper-data="{&quot;index&quot;:null}"><path d="M 59.4772 211.5525 L 117.3508 200.6805 L 130.1353 233.0945 L 79.334 261.8976 Z " data-paper-data="{&quot;origPos&quot;:null}" fill="#d6bbff" stroke="#9d85c1" stroke-width="1"/><g data-paper-data="{&quot;origPos&quot;:null}"><path d="M 67.6117 228.4244 C 66.5894 228.8276 64.4493 228.6281 64.4493 228.6281 C 64.4493 228.6281 62.1865 223.6176 60.8482 220.2245 C 59.3934 216.5359 57.0729 210.8879 57.0729 210.8879 C 57.0729 210.8879 59.1282 209.5271 60.0197 209.1755 C 64.2095 207.5229 69.3055 210.4924 71.4019 215.8078 C 73.4984 221.1232 71.8015 226.7719 67.6117 228.4244 Z " data-paper-data="{&quot;origPos&quot;:null}" stroke-width="1" fill="#f7ffb5" stroke="none"/><path d="M 74.7265 246.4635 C 73.7042 246.8667 71.5641 246.6672 71.5641 246.6672 C 71.5641 246.6672 69.3013 241.6566 67.9631 238.2636 C 66.5082 234.5749 64.1877 228.9269 64.1877 228.9269 C 64.1877 228.9269 66.243 227.5661 67.1345 227.2145 C 71.3242 225.562 76.4203 228.5314 78.5168 233.8469 C 80.6132 239.1623 78.9163 244.811 74.7266 246.4635 Z " data-paper-data="{&quot;origPos&quot;:null}" stroke-width="1" fill="#f7ffb5" stroke="none"/><path d="M 85.5448 251.6659 C 87.6413 256.9814 85.9444 262.63 81.7546 264.2825 C 80.7323 264.6857 78.5922 264.4862 78.5922 264.4862 C 78.5922 264.4862 76.3294 259.4756 74.9911 256.0826 C 73.5363 252.394 71.2158 246.746 71.2158 246.746 C 71.2158 246.746 73.2711 245.3852 74.1626 245.0335 C 78.3524 243.381 83.4484 246.3504 85.5449 251.6659 Z " data-paper-data="{&quot;origPos&quot;:null}" stroke-width="1" fill="#f7ffb5" stroke="none"/></g></g><path d="M 4.5228 215.7648 C -2.652 192.3501 81.2362 148.0824 81.2362 148.0824 L 165.8455 148.8667 C 165.8455 148.8667 254.7358 194.195 254.6903 214.8326 C 254.6183 247.5247 192.35 233.4962 123.0182 233.6084 C 62.7909 233.7059 11.6975 239.1796 4.5228 215.7649 Z " data-paper-data="{&quot;index&quot;:null}" fill="#999bff" stroke="#7850c7" stroke-width="1"/><path d="M 97.775 190.5949 C 75.1856 182.379 58.5142 167.6412 60.5385 157.6771 C 62.5627 147.7129 82.516 146.2957 105.1054 154.5116 C 127.6948 162.7275 144.3662 177.4653 142.3419 187.4294 C 140.3176 197.3935 120.3644 198.8108 97.775 190.5949 Z " data-paper-data="{&quot;origRot&quot;:0,&quot;index&quot;:null}" fill="#d6bbff" stroke="#9d85c1" stroke-width="1"/><path d="M 211.7277 190.3908 C 205.6835 198.5669 183.5739 196.0557 162.3447 184.7819 C 141.1154 173.5082 128.8055 157.7409 134.8496 149.5647 C 140.8938 141.3886 163.0033 143.8997 184.2326 155.1735 C 205.4619 166.4473 217.7718 182.2146 211.7276 190.3907 Z " data-paper-data="{&quot;origRot&quot;:0,&quot;index&quot;:null}" fill="#d6bbff" stroke="#9d85c1" stroke-width="1"/><g><g><g data-paper-data="{&quot;index&quot;:null}"><path d="M 221.3602 88.0468 C 209.0808 171.298 180.1422 141.2263 165.0935 137.9069 C 150.0448 134.5875 142.4171 87.7623 148.7714 58.9548 C 155.1257 30.1473 172.4763 9.4851 187.525 12.8046 C 202.5737 16.1239 228.8191 47.1039 221.3602 88.0468 Z " data-paper-data="{&quot;origRot&quot;:0,&quot;origPos&quot;:null,&quot;index&quot;:null}" fill="#d6bbff" stroke="#9d85c1" stroke-width="1"/><path d="M 0.5 81.0518 C 4.2247 29.2642 45.5542 16.4662 59.1628 19.7544 C 72.7715 23.0427 79.5762 69.8501 73.7677 98.6694 C 67.9592 127.4887 74.5899 147.8722 60.9812 144.5839 C 47.3726 141.2957 2.4346 122.1978 0.5 81.0517 Z " data-paper-data="{&quot;origRot&quot;:0,&quot;origPos&quot;:null}" fill="#d6bbff" stroke="#9d85c1" stroke-width="1"/><path d="M 45.5794 95.2418 C 40.6064 47.8945 73.1379 5.6717 118.2405 0.9345 C 163.3432 -3.8027 203.9375 30.7396 208.9104 78.0868 C 213.8834 125.4341 181.352 167.6569 136.2493 172.3942 C 91.1467 177.1314 50.5524 142.5891 45.5794 95.2418 Z " data-paper-data="{&quot;origPos&quot;:null,&quot;origRot&quot;:0}" fill="#d6bbff" stroke="#9d85c1" stroke-width="1"/><path d="M 171.1079 95.2091 C 173.0458 92.0792 179.8286 91.406 186.2576 93.7056 C 192.6866 96.0052 196.3274 100.4067 194.3894 103.5366 C 192.4515 106.6665 185.6688 107.3397 179.2398 105.0401 C 172.8107 102.7405 169.17 98.339 171.1078 95.2091 Z " data-paper-data="{&quot;origPos&quot;:null,&quot;origRot&quot;:0}" fill="#ffc0bb" stroke="none" stroke-width="1"/><path d="M 40.1323 91.5718 C 40.4968 72.3404 57.4935 26.7148 66.0777 26.8908 C 74.6618 27.0668 71.5828 72.9777 71.2183 92.2091 C 70.8539 111.4404 72.6326 142.291 64.0484 142.115 C 55.4643 141.939 39.768 110.8032 40.1324 91.5718 Z " data-paper-data="{&quot;origRot&quot;:0,&quot;origPos&quot;:null}" fill="#d6bbff" stroke="none" stroke-width="1"/><g data-paper-data="{&quot;origPos&quot;:null,&quot;origRot&quot;:0}"><path d="M 208.7673 135.2875 C 213.9877 156.7532 208.8008 171.2677 170.3915 165.5596 C 155.7613 163.3854 130.8566 146.0429 121.363 135.6355 C 111.8693 125.2281 111.4371 100.9309 111.4371 100.9309 L 142.7938 97.5483 C 142.7938 97.5483 146.7238 122.5187 160.4987 124.8812 C 176.9845 127.7086 203.547 113.8218 208.7673 135.2875 Z " data-paper-data="{&quot;origPos&quot;:null,&quot;origRot&quot;:0}" stroke="#9d85c1" stroke-width="1" fill="#d6bbff"/><path d="M 119.5665 119.3466 L 110.8793 97.1937 L 140.7029 94.9714 L 146.3944 116.5016 Z " data-paper-data="{&quot;origRot&quot;:0,&quot;origPos&quot;:null}" stroke="none" stroke-width="1" fill="#d6bbff"/></g><path d="M 70.2342 98.0551 C 72.4733 94.8936 80.1667 94.1248 87.4178 96.338 C 94.669 98.5512 98.7321 102.9084 96.493 106.07 C 94.2539 109.2315 86.5605 110.0003 79.3094 107.7871 C 72.0582 105.5738 67.9951 101.2167 70.2342 98.0551 Z " data-paper-data="{&quot;origPos&quot;:null,&quot;origRot&quot;:0}" fill="#ffc0bb" stroke="none" stroke-width="1"/></g><path d="M 64.2274 53.3593 C 59.6515 62.5111 52.5671 79.6669 52.331 89.5094 C 52.1952 95.1686 58.3289 124.0193 41.7089 124.0193 C 34.6348 124.0193 31.3343 118.9908 31.0868 113.3972 C 29.925 87.1373 36.2933 76.0762 42.0143 53.3567 C 43.0103 49.4016 48.1703 32.5643 53.5477 32.9352 C 54.9466 32.257 56.5167 31.8767 58.1756 31.8767 C 64.042 31.8767 68.7977 36.6324 68.7977 42.4988 C 70.4253 44.2194 65.3634 51.0871 64.2274 53.3593 Z " fill="#d6bbff" stroke="none" stroke-width="0.5"/></g><path d="M 120.3628 87.4927 C 117.879 90.1296 115.2421 87.6458 115.2421 87.6458 L 114.6772 87.1026 C 105.7421 79.7118 95.9226 79.8014 87.6769 88.1941 C 87.6769 88.1941 85.1037 90.7438 82.554 88.1707 C 80.0044 85.5974 82.5775 83.0478 82.5775 83.0478 C 93.6688 72.2924 107.3009 71.6802 119.283 81.5102 L 120.2097 82.3721 C 120.2097 82.3721 122.8465 84.8559 120.3627 87.4928 Z " fill="#000000" stroke="none" stroke-width="0.5"/><path d="M 172.3628 87.826 C 169.879 90.4629 167.2421 87.9791 167.2421 87.9791 L 166.6772 87.4359 C 157.7421 80.0452 147.9226 80.1347 139.6769 88.5275 C 139.6769 88.5275 137.1037 91.0772 134.554 88.504 C 132.0043 85.9308 134.5775 83.3811 134.5775 83.3811 C 145.6688 72.6257 159.3009 72.0136 171.283 81.8435 L 172.2097 82.7054 C 172.2097 82.7054 174.8465 85.1892 172.3627 87.8261 Z " fill="#000000" stroke="none" stroke-width="0.5"/></g></g></g></svg>