<svg version="1.1" xmlns="http://www.w3.org/2000/svg" xmlns:xlink="http://www.w3.org/1999/xlink" width="275.26159" height="377.02726" viewBox="0,0,275.26159,377.02726"><g transform="translate(-80.43159,-11.50001)"><g data-paper-data="{&quot;isPaintingLayer&quot;:true}" fill-rule="nonzero" stroke-linejoin="miter" stroke-miterlimit="10" stroke-dasharray="" stroke-dashoffset="0" style="mix-blend-mode: normal"><path d="M96.35219,268.56971c0,0 33.36686,14.5871 63.86348,21.96931c20.33065,4.92138 52.31671,-31.22109 52.31671,-31.22109l12.19702,37.09207c0,0 -53.07924,33.0193 -82.99325,27.38214c-15.01594,-2.82968 -40.38948,-3.59826 -40.38948,-3.59826l-17.69916,0.86003z" data-paper-data="{&quot;origPos&quot;:null,&quot;index&quot;:null,&quot;origRot&quot;:0}" fill="#353535" stroke="#000000" stroke-width="5" stroke-linecap="butt"/><g data-paper-data="{&quot;origPos&quot;:null,&quot;origRot&quot;:0}" stroke="#000000" stroke-width="5" stroke-linecap="round"><path d="M151.964,231.14268c-1.67792,2.30796 -2.86157,4.74904 -4.00691,6.65256c-0.98001,1.62993 -2.64107,2.93323 -4.41167,3.62799c-1.70134,0.66759 -3.67294,0.51513 -5.48261,0.25848c-1.74834,-0.2486 -3.6826,-0.57986 -5.00706,-1.74744c-2.68216,-2.36481 -4.99612,-5.27758 -6.58986,-8.47863c-0.88479,-1.77771 -0.61554,-3.94896 -0.58763,-5.93443c0.02475,-1.76409 0.21543,-3.56159 0.74451,-5.2448c0.49902,-1.58837 0.81903,-4.24238 2.29863,-4.44037c1.54505,-0.20686 2.44016,2.48839 3.75073,3.63077c4.24661,3.7038 8.31358,7.68294 12.92905,10.91571c1.15378,0.80773 3.59612,-0.35794 4.01194,0.95077z" data-paper-data="{&quot;origPos&quot;:null,&quot;index&quot;:null}" id="ID0.8610531273297966" fill="#e1ba87"/><path d="M219.72033,156.16646c-0.21714,3.32885 -4.44651,4.93696 -6.88559,7.32042c-4.64373,4.36804 -9.75892,8.34362 -14.35149,12.93392c-4.86763,4.87952 -9.60416,10.37937 -13.67934,15.34194c-5.20253,6.27546 -9.91451,12.98086 -14.92701,19.42761c-4.92962,6.31252 -10.39216,14.54976 -16.54201,20.70894c-1.56266,1.55621 -2.89959,2.29827 -4.51138,0.94761c-6.44873,-5.40378 -15.37969,-10.15218 -16.28948,-18.19065c-1.25404,-8.15177 6.17512,-15.37863 10.93512,-21.86432c5.10535,-6.94666 11.42203,-13.0194 17.86922,-18.74344c7.13074,-6.33624 14.51999,-12.98596 22.68316,-18.19732c5.97623,-3.81594 12.34918,-6.44302 18.89652,-8.18074c3.89222,-0.9642 8.47936,-1.58372 11.79807,0.23726c2.79868,1.54883 5.19719,4.77258 5.00419,8.25876z" data-paper-data="{&quot;origPos&quot;:null,&quot;index&quot;:null}" id="ID0.4585498459637165" fill="#cc7700"/></g><path d="M315.8014,384.99822l-100.30848,-88.84937l28.51136,-32.18854c0,0 33.76919,32.00111 57.55989,50.99133c11.94222,9.53252 34.00122,22.09467 34.00122,22.09467l16.04098,7.52908z" data-paper-data="{&quot;origPos&quot;:null,&quot;index&quot;:null,&quot;origRot&quot;:0}" fill="#616161" stroke="#000000" stroke-width="5" stroke-linecap="butt"/><path d="M271.04965,284.00002c-0.782,3.383 1.025,0.996 -5.5,1c-26.099,0.014 -51.71,0.549 -77.5,0c-6.456,-0.141 -6.136,7.9 -6.5,-0.5c-1.458,-33.601 0.11,-68.09 2.5,-102c0.938,-13.476 3.134,-26.295 7.4,-38.5c1.082,-3.305 2.823,-4.738 7.6,-5c19.107,-1.048 38.393,-1.237 57.5,0c4.777,0.309 10.441,0.527 12,4.5c4.279,10.904 3.004,23.297 3.5,35c0.842,20.069 0.637,42.026 0.25,63c-0.253,13.939 0.676,28.434 -1.25,42.5z" data-paper-data="{&quot;origPos&quot;:null,&quot;index&quot;:null}" id="ID0.6861933465115726" fill="#ff9400" stroke="#000000" stroke-width="5" stroke-linecap="round"/><path d="M186.5,282.48507c0,0 -4.70296,-49.06894 -2.91271,-78.55541c1.52699,-25.15033 11.41271,-61.44459 11.41271,-61.44459" data-paper-data="{&quot;origPos&quot;:null}" fill="none" stroke="#cc7700" stroke-width="5" stroke-linecap="round"/><path d="M271.04965,284.00002c-0.782,3.383 1.025,0.996 -5.5,1c-26.099,0.014 -51.71,0.549 -77.5,0c-6.456,-0.141 -6.136,7.9 -6.5,-0.5c-1.458,-33.601 0.11,-68.09 2.5,-102c0.938,-13.476 3.134,-26.295 7.4,-38.5c1.082,-3.305 2.823,-4.738 7.6,-5c19.107,-1.048 38.393,-1.237 57.5,0c4.777,0.309 10.441,0.527 12,4.5c4.279,10.904 3.004,23.297 3.5,35c0.842,20.069 0.637,42.026 0.25,63c-0.253,13.939 0.676,28.434 -1.25,42.5z" data-paper-data="{&quot;origPos&quot;:null,&quot;index&quot;:null}" id="ID0.6861933465115726" fill="none" stroke="#000000" stroke-width="5" stroke-linecap="round"/><g data-paper-data="{&quot;origPos&quot;:null,&quot;origRot&quot;:0}" stroke-width="5" stroke-linecap="round"><path d="M209.30042,144.94857c3.33497,-0.08207 5.31563,3.9862 7.90802,6.20188c4.76666,4.23358 9.18465,8.97191 14.16803,13.13456c5.29611,4.41082 11.19832,8.63536 16.5061,12.24944c6.7165,4.61922 13.81723,8.71126 20.68723,13.12587c6.72886,4.34402 15.42248,9.04643 22.10811,14.61956c1.68991,1.41687 2.54883,2.68191 1.34806,4.40825c-4.80411,6.9071 -8.73304,16.22767 -16.65769,17.85417c-8.00655,1.97955 -15.87013,-4.77206 -22.75628,-8.93164c-7.37626,-4.46227 -13.99065,-10.20929 -20.26939,-16.11759c-6.94983,-6.53425 -14.23498,-13.29784 -20.15697,-20.96113c-4.33616,-5.61017 -7.52377,-11.72209 -9.84129,-18.08726c-1.30912,-3.7902 -2.33721,-8.30334 -0.82101,-11.77183c1.29181,-2.92632 4.28762,-5.60404 7.77707,-5.72427z" data-paper-data="{&quot;origPos&quot;:null,&quot;index&quot;:null,&quot;origRot&quot;:0}" id="ID0.4585498459637165" fill="#ff9400" stroke="#000000"/><path d="M274.11457,223.85193c0,0 -11.46373,-5.55165 -16.84679,-8.91268c-6.23018,-3.88313 -13.44885,-7.73141 -18.93849,-13.08218c-10.35285,-10.1004 -20.25153,-21.36459 -28.2312,-33.90058c-3.03117,-4.34634 -4.18569,-15.80158 -4.18569,-15.80158" data-paper-data="{&quot;origPos&quot;:null,&quot;index&quot;:null,&quot;origRot&quot;:0}" id="ID0.497054744977504" fill="none" stroke="#cc7700"/><path d="M292.32707,207.28033c2.15215,1.87359 4.48014,3.26659 6.27604,4.57425c1.5378,1.11903 2.69053,2.88788 3.22754,4.71253c0.51597,1.75328 0.19138,3.70396 -0.22277,5.48409c-0.40082,1.71992 -0.90027,3.61768 -2.17941,4.83479c-2.59059,2.46464 -5.69491,4.51451 -9.02326,5.8218c-1.84841,0.72564 -3.98771,0.26716 -5.96307,0.06548c-1.75513,-0.1792 -3.52906,-0.52664 -5.15945,-1.20109c-1.53855,-0.6363 -4.15432,-1.18747 -4.22188,-2.67875c-0.07072,-1.55723 2.69256,-2.21283 3.94532,-3.41826c4.06163,-3.90582 8.38169,-7.60858 12.00628,-11.92315c0.90581,-1.07856 -0.04147,-3.61358 1.29863,-3.91326z" data-paper-data="{&quot;origPos&quot;:null,&quot;index&quot;:null,&quot;origRot&quot;:0}" id="ID0.8610531273297966" fill="#ffd499" stroke="#000000"/></g><path d="M215.94965,141.6667c1.927,2.599 0.05,6.6 -0.4,9.5c-0.376,2.469 -0.924,5.259 -2.418,7.069c-1.493,1.81 -3.556,2.931 -5.832,2.931c-2.276,0 -4.339,-1.121 -5.832,-2.931c-1.494,-1.81 -6.214,-5.22167 -6.418,-7.73567c-0.22,-2.68 -0.17133,-6.47433 1.56667,-8.83334c1.625,-1.718 8.22333,-0.258 10.68333,-0.5c2.859,-0.282 6.774,-1.511 8.65,0.5z" data-paper-data="{&quot;origPos&quot;:null,&quot;index&quot;:null}" id="ID0.6992864599451423" fill="#ff9400" stroke="none" stroke-width="1" stroke-linecap="round"/><g data-paper-data="{&quot;index&quot;:null,&quot;origPos&quot;:null}"><path d="M282.27065,50.27902c10.364,10.364 16.779,24.676 16.779,40.471c0,15.795 -6.415,30.107 -16.779,40.471c-10.364,10.364 -24.676,16.779 -40.471,16.779c-15.795,0 -30.107,-6.415 -40.471,-16.779c-10.364,-10.364 -16.779,-24.676 -16.779,-40.471c0,-15.795 6.415,-30.107 16.779,-40.471c10.364,-10.364 24.676,-16.779 40.471,-16.779c15.795,0 30.107,6.415 40.471,16.779z" data-paper-data="{&quot;origPos&quot;:null}" id="ID0.9676602841354907" fill="#ffd499" stroke="#000000" stroke-width="6" stroke-linecap="round"/><path d="M209.67965,74.954c13.85,1.622 26.451,-2.669 39.62,-1.704c15.391,1.128 31.104,3.338 46,7.75c3.718,1.106 -3.707,2.891 -5.75,4c-2.502,1.303 -5.992,3.49 -9.25,3.25c-7.849,-0.583 -15.835,-4.875 -24,-5.75c-3.106,-0.105 1.174,2.622 -2.5,2.75c-14.697,0.511 -30.5,-4.859 -45.25,-1.25c-5.326,1.434 -7.601,8.969 -8.5,14.75c-1.063,7.125 1.453,14.79 4.25,21.25c2.966,6.846 13.946,17.992 13,18.25c-0.946,0.258 -15.918,-8.417 -20.25,-15.75c-6.251,-10.334 -9.184,-22.894 -10,-34.75c-0.323,-4.748 3.585,-8.838 6.37,-12.796c2.03,-2.883 4.957,-6.704 8.13,-6.704c3.173,0 4.529,6.284 8.13,6.704z" data-paper-data="{&quot;origPos&quot;:null}" id="ID0.34282135451212525" fill="#e1ba87" stroke="none" stroke-width="1" stroke-linecap="round"/><path d="M183.04965,90.00002c-4.149,-7.143 -2.419,-18.415 -1.25,-27.5c1.114,-8.633 3.513,-17.045 7.5,-24.5c1.139,-1.943 2.501,4.343 4.5,2.5c8.007,-7.393 12.443,-19.02 20.5,-25.5c2.048,-1.644 -1.025,6.938 1.5,7c10.077,0.225 19.864,-6.433 29.75,-5.75c12.368,0.859 24.992,2.711 36,9.5c12.651,7.864 23.234,19.534 31,32.25c1.941,3.179 -8.297,-0.525 -8.75,2.5c-1.102,7.338 8.883,18.809 4,22c-5.868,3.773 -17.423,-7.93 -26.75,-8.5c-2.367,-0.144 1.906,7.404 -1,7c-11.417,-1.4 -21.284,-10.04 -32.75,-11.25c-2.867,-0.302 1.844,7.202 -0.75,7.75c-7.837,1.956 -16.088,-0.955 -24.25,-1.75c-4.684,-0.453 -9.224,-3.127 -14,-2c-5.487,1.33 -8.942,6.24 -14.25,9.25c-3.738,2.185 -9.025,10.106 -11,7z" data-paper-data="{&quot;origPos&quot;:null}" id="ID0.4199218852445483" fill="#8a541e" stroke="#000000" stroke-width="7" stroke-linecap="round"/><path d="M185.04965,84.00002c0,0 0.656,-15.564 1.75,-23.25c0.764,-5.359 1.447,-10.883 3.75,-15.75c0.918,-1.331 1.969,1.072 3,0c5.142,-4.542 9.17,-9.878 13.5,-15c1.616,-1.896 2.032,-5.319 4.25,-6.25c1.377,-0.478 0.568,2.269 1.5,2.75c1.791,0.712 1.848,1.173 4.25,0.75c9.612,-1.693 18.43,-6.554 28,-6.5c10.074,0.056 20.027,2.667 29.25,6.25c7.303,3.028 13.521,8.191 19.5,13.25c4.641,3.93 8.496,9.133 12,14.25c0.877,1.278 -0.861,1.092 -1.5,1.5c-1.621,1.601 -5.264,2.198 -5.25,4.5c0.039,6.231 5.25,17.75 5.25,17.75" data-paper-data="{&quot;origPos&quot;:null}" id="ID0.6959539707750082" fill="none" stroke="#663b00" stroke-width="4" stroke-linecap="round"/><path d="M283.61765,93.53202c0.792,0.792 1.282,1.886 1.282,3.093c0,1.207 -0.49,2.301 -1.282,3.093c-0.792,0.792 -1.886,1.282 -3.093,1.282c-1.207,0 -2.301,-0.49 -3.093,-1.282c-0.792,-0.792 -1.282,-1.886 -1.282,-3.093c0,-1.207 0.49,-2.301 1.282,-3.093c0.792,-0.792 1.886,-1.282 3.093,-1.282c1.207,0 2.301,0.49 3.093,1.282z" data-paper-data="{&quot;origPos&quot;:null}" id="ID0.8793090796098113" fill="#000000" stroke="none" stroke-width="1" stroke-linecap="butt"/><path d="M275.01123,115.97853l18.88821,1.83887" data-paper-data="{&quot;origPos&quot;:null}" fill="none" stroke="#000000" stroke-width="3" stroke-linecap="round"/></g></g></g></svg>