<svg xmlns="http://www.w3.org/2000/svg" xmlns:xlink="http://www.w3.org/1999/xlink" version="1.1" width="250.79862" height="351.00826" viewBox="0,0,250.79862,351.00826"><g><g data-paper-data="{&quot;isPaintingLayer&quot;:true}" fill-rule="nonzero" stroke-linejoin="miter" stroke-miterlimit="10" stroke-dasharray="" stroke-dashoffset="0" style="mix-blend-mode: normal"><path d="M 143.6096 184.4644 C 143.6096 184.4644 170.4612 191.1425 182.753 197.6764 C 197.814 205.6824 227.3676 228.9877 227.3676 228.9877 " data-paper-data="{&quot;index&quot;:null}" fill="none" stroke="#000000" stroke-width="4" stroke-linecap="round"/><g data-paper-data="{&quot;index&quot;:null}"><path d="M 226.95 240.4886 C 224.2713 238.2478 224.2796 233.8255 226.9685 230.611 C 229.6574 227.3966 234.0087 226.6072 236.6874 228.848 C 239.3662 231.0888 239.3579 235.5111 236.669 238.7256 C 233.98 241.94 229.6287 242.7294 226.95 240.4886 Z " fill="#000000" stroke-linecap="butt" stroke-width="6" stroke="#000000"/><path d="M 239.7751 231.1787 L 246.2421 236.5884 C 246.2421 236.5884 247.005 239.0316 245.8867 238.729 C 244.4815 238.3489 238.4735 234.4868 238.4735 234.4868 " fill="none" stroke-linecap="round" stroke-width="6" stroke="#000000"/><path d="M 238.7079 236.1942 L 245.1749 241.6039 C 245.1749 241.6039 245.9378 244.0471 244.8194 243.7446 C 243.4143 243.3644 237.4063 239.5023 237.4063 239.5023 " fill="none" stroke-linecap="round" stroke-width="6" stroke="#000000"/><path d="M 236.3776 239.5238 L 242.8446 244.9335 C 242.8446 244.9335 243.6076 247.3767 242.4892 247.0742 C 241.0841 246.694 235.0761 242.8319 235.0761 242.8319 " fill="none" stroke-linecap="round" stroke-width="6" stroke="#000000"/><path d="M 226.7174 236.208 L 227.5718 244.5959 C 227.5718 244.5959 226.4127 246.8779 225.8231 245.8806 C 225.0823 244.6276 224.7622 237.316 224.7622 237.316 " fill="none" stroke-linecap="round" stroke-width="6" stroke="#000000"/></g><path d="M 105.0658 297.9914 C 105.0658 297.9914 91.0856 316.4914 70.7897 324.0682 C 52.9146 330.7412 25.3942 320.232 22.9428 322.2277 C 19.0316 325.4097 24.7816 335.3862 24.7816 335.3862 " data-paper-data="{&quot;origRot&quot;:0,&quot;index&quot;:null}" fill="none" stroke="#000000" stroke-width="4" stroke-linecap="round"/><path d="M 127.8884 262.3175 C 127.8884 262.3175 184.329 253.3505 184.9244 273.8707 C 185.5067 293.9393 170.237 315.4739 170.8483 318.1905 C 171.9534 323.1099 181.6817 316.381 181.6817 316.381 " data-paper-data="{&quot;origRot&quot;:0,&quot;index&quot;:null}" fill="none" stroke="#000000" stroke-width="4" stroke-linecap="round"/><path d="M 126.4298 178.8556 C 135.3518 180.7919 142.2429 189.5282 146.1677 202.0767 C 150.0938 214.6272 151.0536 230.9893 148.1142 248.1768 C 145.1763 265.3654 138.8885 280.1547 131.1041 290.1641 C 123.3218 300.1713 114.043 305.3979 105.121 303.4615 C 96.1989 301.5254 89.3077 292.7898 85.3829 280.2412 C 81.456 267.6906 80.497 251.3288 83.4355 234.1411 C 84.5544 227.5985 85.4295 223.9487 87.4889 217.6358 C 90.8462 207.3447 98.975 194.8325 99.7026 193.8789 C 99.9452 193.561 100.201 192.4696 100.4465 192.154 C 108.2288 182.1467 117.5076 176.9193 126.4298 178.8555 Z " data-paper-data="{&quot;origRot&quot;:0,&quot;index&quot;:null}" fill="#080064" stroke="#000000" stroke-width="4" stroke-linecap="butt"/><g data-paper-data="{&quot;origRot&quot;:0}" stroke-linecap="round"><path d="M 148.7439 178.8256 L 117.3857 235.3719 L 111.1049 171.0719 Z " fill="#ffffff" stroke-width="4" stroke="#000000"/><path d="M 113.8929 244.8481 L 123.231 193.0046 L 119.3442 179.2391 L 131.7868 180.8483 L 126.0242 193.3658 L 123.4778 242.6278 L 117.1656 257.3808 Z " fill="#ac0000" stroke-width="4" stroke="#000000"/><path d="M 126.9974 190.9322 L 141.6198 182.3933 L 137.9209 200.6537 Z " fill="#ffffff" stroke-width="4" stroke="#000000"/><path d="M 110.8559 197.9017 L 113.7415 181.4845 L 123.9091 191.2811 Z " fill="#ffffff" stroke-width="4" stroke="#000000"/></g><path d="M 197.0412 311.0585 C 200.2449 313.1218 202.3074 316.0388 202.4665 319.3446 C 202.6256 322.6503 200.7787 326.3847 197.8542 327.957 C 192.4716 330.3769 188.1582 331.4664 173.6425 328.7444 C 170.5708 327.0643 168.3759 323.7557 168.2173 320.4584 C 168.0586 317.1611 169.8342 314.1107 172.8296 311.8459 C 175.825 309.5811 180.0418 308.1033 184.7669 307.9496 C 189.492 307.7959 193.8375 308.9954 197.0412 311.0585 Z " data-paper-data="{&quot;origRot&quot;:0,&quot;index&quot;:null}" fill="#000000" stroke="none" stroke-width="4" stroke-linecap="round"/><path d="M 39.3931 342.8891 C 38.4635 346.5334 36.3788 349.3472 33.3356 350.471 C 30.2925 351.5948 26.2218 350.9431 23.837 348.6335 C 19.8914 344.2432 17.5246 340.4749 15.5364 325.913 C 16.1487 322.5065 18.5585 319.452 21.5938 318.3311 C 24.6292 317.2102 28.0379 317.9955 31.0925 320.1685 C 34.1473 322.3416 36.8472 325.9041 38.4672 330.3382 C 40.0871 334.7722 40.3225 339.2448 39.3931 342.889 Z " data-paper-data="{&quot;origRot&quot;:0,&quot;index&quot;:null}" fill="#000000" stroke="none" stroke-width="4" stroke-linecap="round"/><path d="M 198.1075 86.1601 C 209.538 101.1204 214.9822 119.6322 211.7207 138.1353 C 208.46 156.6377 197.1049 171.6595 181.3937 180.9842 C 165.6827 190.3057 145.6172 193.9294 124.9355 189.6347 C 104.2539 185.3392 86.8377 173.9331 75.4071 158.9737 C 63.9767 144.0126 58.5323 125.5016 61.793 106.9993 C 65.0546 88.497 76.4097 73.4734 92.1209 64.1504 C 107.8319 54.8274 127.8966 51.2043 148.5791 55.4991 C 169.2598 59.7946 186.6768 71.2014 198.1076 86.1601 Z " data-paper-data="{&quot;origRot&quot;:0,&quot;index&quot;:null}" fill="#ffa200" stroke="#000000" stroke-width="4" stroke-linecap="butt"/><path d="M 21.7381 228.9877 C 21.7381 228.9877 51.2917 205.6824 66.3527 197.6764 C 78.6445 191.1425 105.4961 184.4644 105.4961 184.4644 " fill="none" stroke="#000000" stroke-width="4" stroke-linecap="round"/><g><path d="M 176.4802 68.3494 C 179.7402 68.7142 182.9102 75.792 183.8761 80.5085 C 185.8822 90.2779 185.4534 100.2602 184.4121 109.7504 C 183.9031 118.4472 182.5649 127.1365 179.2603 134.6575 C 177.3549 138.9888 173.2105 145.3119 169.9506 144.9471 C 166.6907 144.5823 164.1027 139.96 162.5546 132.7881 C 161.0077 125.6151 160.4996 115.8922 161.4003 105.3261 C 162.301 94.76 164.4414 85.3335 167.1706 78.639 C 169.9005 71.9459 173.2202 67.9846 176.4802 68.3495 Z " data-paper-data="{&quot;origRot&quot;:0,&quot;index&quot;:null}" fill="#000000" stroke="none" stroke-width="4" stroke-linecap="butt"/><path d="M 142.256 65.1516 C 145.516 65.5164 148.6859 72.5942 149.6519 77.3107 C 151.6579 87.0801 151.2292 97.0624 150.1879 106.5526 C 149.6788 115.2494 148.3407 123.9387 145.036 131.4597 C 143.1307 135.791 138.9863 142.1141 135.7264 141.7493 C 132.4665 141.3845 129.8785 136.7622 128.3304 129.5903 C 126.7834 122.4173 126.2753 112.6944 127.176 102.1283 C 128.0767 91.5622 130.2172 82.1357 132.9463 75.4412 C 135.6763 68.748 138.9959 64.7868 142.256 65.1517 Z " data-paper-data="{&quot;origRot&quot;:0,&quot;index&quot;:null}" fill="#000000" stroke="none" stroke-width="4" stroke-linecap="butt"/><path d="M 126.2945 74.4407 L 127.9318 57.5013 L 187.4218 65.3748 L 185.7845 82.3142 C 185.7845 82.3142 170.8404 86.4074 162.6433 85.3225 C 151.7743 83.884 126.2945 74.4407 126.2945 74.4407 Z " fill="#ffa200" stroke="none" stroke-width="4" stroke-linecap="butt"/><path d="M 130.8836 74.4353 L 154.1102 86.6216 " fill="none" stroke="#000000" stroke-width="4" stroke-linecap="round"/><path d="M 160.8075 87.508 L 185.7735 81.7 " data-paper-data="{&quot;index&quot;:null}" fill="none" stroke="#000000" stroke-width="4" stroke-linecap="round"/><path d="M 121.7864 141.8956 L 123.0814 128.4982 L 182.5714 136.3718 L 181.2764 149.7691 C 181.2764 149.7691 166.4534 152.6089 158.2564 151.524 C 147.3874 150.0855 121.7864 141.8956 121.7864 141.8956 Z " fill="#ffa200" stroke="none" stroke-width="4" stroke-linecap="butt"/><path d="M 148.2925 129.7083 L 123.4589 126.4216 " fill="none" stroke="#000000" stroke-width="3.5" stroke-linecap="round"/><path d="M 183.0595 134.3097 L 157.2326 130.8915 " fill="none" stroke="#000000" stroke-width="3.5" stroke-linecap="round"/></g><path d="M 59.9431 110.8205 C 57.5198 107.6397 52.5983 106.5593 52.3149 103.4961 C 51.4024 93.6187 55.351 84.1997 56.8669 74.5652 C 57.3336 71.6012 55.6495 67.2863 58.2674 65.664 C 66.3508 60.6559 75.9779 56.3234 86.0521 56.4833 C 89.5362 56.5384 89.2188 63.0875 88.2955 66.1392 C 87.2763 69.5094 84.359 72.6243 80.8213 73.7829 C 77.8212 74.7653 73.8955 73.5537 71.1038 71.7699 C 68.1442 69.8784 66.1397 66.666 64.866 63.584 C 63.6293 60.5889 63.7742 57.2969 63.8373 54.1788 C 63.8995 51.1553 63.8623 47.9245 65.2377 45.2776 C 67.547 40.8392 71.4297 37.3273 74.6271 33.4348 C 78.1455 29.152 81.7526 24.9128 85.4061 20.7311 C 89.3955 16.1639 93.0638 11.2858 97.5745 7.1661 C 99.9475 4.9977 102.4711 2.14 105.9126 2 C 112.4018 1.7328 118.8759 4.6848 125.3476 6.026 C 128.5839 6.6962 132.4366 6.0427 135.065 8.0389 C 137.8909 10.1842 138.8059 13.9124 139.9132 17.0857 C 141.4201 21.403 142.7817 25.8949 142.8462 30.3323 C 142.8906 33.3885 141.8783 36.4591 140.2313 38.9821 C 138.4727 41.6742 136.159 44.4564 132.932 45.5126 C 129.9094 46.5031 125.3248 46.9792 123.0395 44.6127 C 120.7543 42.2455 121.6096 38.002 123.2255 35.459 C 128.5195 27.1283 135.5274 19.7689 143.0431 13.138 C 145.887 10.6282 149.8709 9.1928 153.8111 8.475 C 156.9872 7.8964 160.4756 8.5253 163.7036 9.3749 C 167.394 10.3465 171.0415 11.8497 174.285 13.8647 C 177.6047 15.9271 180.1384 18.9658 183.1285 21.4415 C 185.6828 23.5574 189.8205 24.6972 190.9299 27.6536 C 192.7413 32.4767 191.3434 37.6668 191.0837 42.6225 C 190.9271 45.6372 191.7164 49.3013 189.6833 51.5238 C 187.6335 53.7637 183.6991 53.7967 180.4806 54.2138 C 176.799 54.6892 169.1247 56.2479 169.1986 54.1746 C 169.3055 51.1162 175.8024 45.7522 180.8414 43.9471 C 187.8688 41.4301 196.0095 41.5662 203.756 41.8001 C 207.047 41.9 210.4097 43.2445 213.2985 44.9262 C 216.6776 46.8932 219.2709 49.9057 222.1405 52.5029 C 224.757 54.8708 228.0427 56.8612 229.7677 59.8272 C 231.4804 62.7733 232.9344 66.4314 232.011 69.4838 C 230.9918 72.8541 227.8058 75.4734 224.5377 77.1276 C 221.5774 78.6267 217.7056 78.0118 214.2944 78.453 C 210.8842 78.8943 207.5419 79.9632 204.0521 79.7776 C 199.9654 79.5601 191.8261 79.5203 191.9047 77.2615 C 192.0054 74.3869 199.6879 71.1795 204.4129 69.5116 C 207.4734 68.4315 211.1128 68.9314 214.4804 69.2993 C 218.9723 69.7901 223.3924 71.1451 227.8424 72.0669 C 231.0778 72.7378 235.2783 71.7417 237.5591 74.0797 C 240.747 77.3485 240.0808 82.442 241.8824 86.4656 C 243.4941 90.0629 246.4823 93.1883 247.7702 96.8769 C 248.8316 99.9181 248.8621 103.1632 248.799 106.2812 C 248.7368 109.3055 249.1232 112.7361 247.3985 115.1834 C 245.1077 118.4355 240.8747 120.0434 237.4952 122.3233 C 234.7963 124.1436 232.3811 126.5471 229.1563 127.4902 C 226.022 128.4053 222.4244 128.3933 219.089 127.7025 C 215.7526 127.0115 212.378 125.5796 209.7215 123.4633 C 206.9877 121.2871 205.4482 118.0702 203.4836 115.2782 C 201.3491 112.2441 199.5554 109.0133 197.4208 105.9791 C 195.4564 103.1872 193.3619 100.4543 191.183 97.7932 C 188.4535 94.4601 185.9582 90.8849 182.691 87.9912 C 178.5671 84.3396 173.4154 81.8177 169.1657 78.2954 C 165.9967 75.6715 163.806 72.0734 160.4979 69.6064 C 156.6261 66.7187 152.2411 64.4404 147.8365 62.3882 C 144.8034 60.9749 141.5793 59.7505 138.2941 59.2621 C 134.9348 58.7625 131.476 58.8823 128.2266 59.4744 C 124.5102 60.1509 121.1331 61.7829 117.6335 63.0252 C 112.2843 64.9237 106.7779 66.5795 101.6573 68.9074 C 98.6444 70.2762 96.0375 72.2804 93.3184 74.0734 C 87.6474 77.8129 81.9064 81.5072 76.4666 85.5194 C 73.3918 87.7869 70.2695 90.0933 67.7779 92.9107 C 65.649 95.3201 64.0541 98.16 62.7328 101.0583 C 61.4862 103.7925 60.9888 106.8273 60.1179 109.7072 C 59.9 110.4285 60.7677 110.2247 60.1179 109.7072 Z " data-paper-data="{&quot;origRot&quot;:0,&quot;index&quot;:null}" fill="#000000" stroke="#000000" stroke-width="4" stroke-linecap="round"/><g><path d="M 12.4367 238.7256 C 9.7478 235.5111 9.7395 231.0888 12.4183 228.848 C 15.097 226.6072 19.4483 227.3966 22.1372 230.611 C 24.8261 233.8255 24.8344 238.2478 22.1557 240.4886 C 19.477 242.7294 15.1256 241.94 12.4367 238.7256 Z " fill="#000000" stroke-linecap="butt" stroke-width="6" stroke="#000000"/><path d="M 10.6322 234.4868 C 10.6322 234.4868 4.6242 238.3489 3.219 238.729 C 2.1007 239.0316 2.8636 236.5884 2.8636 236.5884 L 9.3306 231.1787 " fill="none" stroke-linecap="round" stroke-width="6" stroke="#000000"/><path d="M 11.6994 239.5023 C 11.6994 239.5023 5.6914 243.3644 4.2863 243.7446 C 3.1679 244.0471 3.9308 241.6039 3.9308 241.6039 L 10.3978 236.1942 " fill="none" stroke-linecap="round" stroke-width="6" stroke="#000000"/><path d="M 14.0296 242.8319 C 14.0296 242.8319 8.0216 246.694 6.6165 247.0742 C 5.4981 247.3767 6.2611 244.9335 6.2611 244.9335 L 12.728 239.5238 " fill="none" stroke-linecap="round" stroke-width="6" stroke="#000000"/><path d="M 24.3435 237.316 C 24.3435 237.316 24.0234 244.6276 23.2826 245.8806 C 22.693 246.8779 21.5339 244.5959 21.5339 244.5959 L 22.3883 236.208 " fill="none" stroke-linecap="round" stroke-width="6" stroke="#000000"/></g><path d="M 117.8123 138.4532 C 117.8123 138.4532 123.9042 138.5647 126.7169 139.5708 C 129.377 140.5224 130.2814 143.8866 130.2814 143.8866 " fill="none" stroke="#000000" stroke-width="3" stroke-linecap="round"/></g></g></svg>