<svg xmlns="http://www.w3.org/2000/svg" xmlns:xlink="http://www.w3.org/1999/xlink" version="1.1" width="528.25276" height="312.23427" viewBox="0,0,528.25276,312.23427"><g><g data-paper-data="{&quot;isPaintingLayer&quot;:true}" fill-rule="nonzero" stroke-linejoin="miter" stroke-miterlimit="10" stroke-dasharray="" stroke-dashoffset="0" style="mix-blend-mode: normal"><g data-paper-data="{&quot;index&quot;:null}"><path d="M 272.6977 163.6587 C 272.6977 163.6587 331.9037 159.5373 353.5768 167.0239 C 369.2326 169.1565 401.2883 190.759 401.2883 190.759 " data-paper-data="{&quot;index&quot;:null}" fill="none" stroke-linecap="round" stroke-width="4" stroke="#000000"/><g data-paper-data="{&quot;index&quot;:null}"><path d="M 413.0807 199.2469 C 403.9554 200.764 393.4875 199.8989 389.6999 197.3147 C 385.9123 194.7305 390.2394 191.4057 399.3648 189.8885 C 408.4901 188.3713 418.958 189.2364 422.7457 191.8207 C 426.5333 194.4049 422.2062 197.7297 413.0808 199.2469 Z " fill="#000000" stroke-linecap="butt" stroke-width="4" stroke="#000000"/><path d="M 420.7549 192.5396 L 434.5716 196.0653 C 434.5716 196.0653 433.3584 198.2858 431.1603 197.6832 C 428.3987 196.926 414.6306 194.5923 414.6306 194.5923 " fill="none" stroke-linecap="round" stroke-width="4" stroke="#000000"/><path d="M 413.2292 195.1029 L 422.3732 201.3418 C 422.3732 201.3418 421.6934 203.436 419.4954 202.8333 C 416.7336 202.0761 407.1049 197.1555 407.1049 197.1555 " fill="none" stroke-linecap="round" stroke-width="4" stroke="#000000"/><path d="M 398.7176 197.7553 L 404.1272 204.8781 C 404.1272 204.8781 404.5145 206.7198 402.3164 206.1171 C 399.5546 205.3599 392.5934 199.808 392.5934 199.808 " fill="none" stroke-linecap="round" stroke-width="4" stroke="#000000"/><path d="M 389.98 195.1955 L 382.9978 202.0681 C 382.9978 202.0681 381.4155 203.1392 379.6694 202.3858 C 377.4754 201.4393 385.175 196.1197 385.175 196.1197 " fill="none" stroke-linecap="round" stroke-width="4" stroke="#000000"/></g></g><path d="M 262.2226 156.9231 C 262.2226 156.9231 250.5469 172.3351 272.4869 178.0161 C 288.2671 187.1866 284.2331 216.4865 284.2331 216.4865 " data-paper-data="{&quot;index&quot;:null}" fill="none" stroke="#000000" stroke-linecap="round" stroke-width="4"/><path d="M 222.3112 153.1653 C 245.7308 153.737 266.2005 160.2888 280.3487 170.4109 C 294.501 180.5345 302.332 194.2277 300.4776 209.0818 C 298.6274 223.9366 287.4338 237.1655 270.847 246.5391 C 254.2649 255.9105 232.2895 261.4258 208.8698 260.8541 C 185.4499 260.2825 164.9805 253.7313 150.8322 243.6091 C 136.6776 233.4855 128.8488 219.7924 130.701 204.9383 C 131.4069 199.2839 132.4414 196.0998 135.6245 190.5273 C 140.8136 181.4432 157.4568 169.9166 159.0014 169.0252 C 159.5163 168.7281 159.8107 167.7766 160.3339 167.4811 C 176.916 158.1096 198.8911 152.5936 222.3111 153.1652 Z " data-paper-data="{&quot;origRot&quot;:0,&quot;index&quot;:null}" fill="#080064" stroke="#000000" stroke-linecap="butt" stroke-width="4"/><g data-paper-data="{&quot;origRot&quot;:0,&quot;index&quot;:null}" stroke-linecap="round"><path d="M 279.0176 154.1767 L 209.5753 204.4537 L 180.8422 150.3293 Z " fill="#ffffff" stroke-width="4" stroke="#000000"/><path d="M 202.4634 212.7512 L 216.2808 168.0657 L 203.6012 156.6633 L 235.8688 157.1254 L 223.5245 168.1695 L 226.6419 210.1702 L 213.3244 223.1518 Z " fill="#ac0000" stroke-width="4" stroke="#000000"/><path d="M 225.5464 166.0331 L 261.4225 157.7227 L 255.5034 173.4916 Z " fill="#ffffff" stroke-width="4" stroke="#000000"/><path d="M 185.462 173.1217 L 189.654 158.9763 L 217.6842 166.5536 Z " fill="#ffffff" stroke-width="4" stroke="#000000"/></g><path d="M 37.3286 183.6347 C 37.3286 183.6347 77.5259 163.6167 93.8787 162.186 C 118.2831 155.7098 175.3778 162.3816 175.3778 162.3816 " data-paper-data="{&quot;index&quot;:null}" fill="none" stroke="#000000" stroke-linecap="round" stroke-width="4"/><path d="M 125.2039 59.4533 C 165.6509 50.8188 217.5851 46.7919 271.3756 49.4263 C 325.17 52.0618 370.7248 60.8645 400.8721 72.9581 C 431.0198 85.0516 445.7538 100.4356 437.9057 116.23 C 430.0557 132.0242 401.0959 145.2667 360.6475 153.9033 C 320.2002 162.5384 268.2686 166.565 214.4758 163.9303 C 160.6835 161.2949 115.1275 152.4914 84.9789 140.3992 C 54.8327 128.3042 40.0973 112.9216 47.9474 97.1274 C 55.7962 81.3324 84.7563 68.0892 125.204 59.4533 Z " data-paper-data="{&quot;origRot&quot;:0,&quot;index&quot;:null}" fill="#ffa200" stroke="#000000" stroke-linecap="butt" stroke-width="4"/><path d="M 50.7389 104.2754 C 43.1035 102.0245 30.1442 101.9502 27.9768 99.4372 C 20.9916 91.334 26.5182 82.7954 25.7901 74.4862 C 25.5668 71.93 19.2639 68.6065 25.1171 66.8096 C 43.1905 61.2618 65.4882 56.0189 91.044 54.4561 C 99.8823 53.9154 102.1808 59.4434 101.2907 62.15 C 100.3087 65.1389 94.4051 68.2341 86.006 69.7983 C 78.8832 71.1248 68.3802 70.7731 60.4746 69.7521 C 52.0935 68.6693 45.5023 66.3214 40.8213 63.9596 C 36.2751 61.6642 35.0827 58.8878 33.7656 56.2706 C 32.4913 53.7327 30.8673 51.0382 33.0925 48.5939 C 36.8315 44.4949 44.9887 40.9054 51.2326 37.1129 C 58.1034 32.9403 65.2192 28.7891 72.4796 24.6783 C 80.4071 20.1885 87.3752 15.493 96.833 11.2895 C 101.8081 9.0773 106.8378 6.2634 115.4757 5.5669 C 131.7619 4.2507 149.5346 5.6281 166.5381 5.6595 C 175.041 5.6747 184.4762 4.4796 192.0693 5.7057 C 200.2325 7.0232 204.3122 9.9856 208.6156 12.4518 C 214.4714 15.8071 220.0423 19.3326 222.3067 23.0311 C 223.8663 25.5785 222.7599 28.3158 219.7891 30.7022 C 216.616 33.2488 212.0814 35.9642 204.4198 37.3906 C 197.244 38.7276 185.8739 39.8977 178.9733 38.3042 C 172.0723 36.7102 172.226 33.0189 175.1088 30.621 C 184.5535 22.7656 198.7933 15.4333 214.6624 8.6247 C 220.667 6.0476 230.0636 4.1769 239.6895 2.9133 C 247.4487 1.8948 256.5695 1.833 265.136 1.9996 C 274.9302 2.1903 284.8673 2.8327 294.0251 3.9709 C 303.3981 5.1358 311.2456 7.2493 319.9805 8.8154 C 327.443 10.154 338.4481 10.4099 342.6539 12.6945 C 349.5193 16.4213 348.4414 20.9953 350.1314 25.1816 C 351.1628 27.7281 354.8944 30.6582 350.8045 32.8584 C 346.6807 35.076 336.7454 35.7662 328.8023 36.6568 C 319.7159 37.6742 301.0437 40.2696 300.249 38.524 C 299.0707 35.9493 312.9629 30.3713 324.8531 28.0138 C 341.4354 24.7262 362.0894 23.4691 381.7931 22.3601 C 390.1642 21.8894 399.306 22.447 407.4089 23.3664 C 416.8868 24.4416 424.8725 26.5231 433.3602 28.211 C 441.0994 29.7498 450.3522 30.8604 456.1197 33.0493 C 461.8466 35.2236 467.2564 38.0368 466.3664 40.7439 C 465.3845 43.7328 458.5666 46.4589 451.0842 48.3921 C 444.3068 50.1437 434.2226 50.2817 425.804 51.2251 C 417.3874 52.1682 409.4402 53.6246 400.526 54.0571 C 390.0865 54.5635 369.4814 55.901 368.6106 53.9995 C 367.504 51.5796 385.4161 47.6046 396.5772 45.4147 C 403.8063 43.9963 413.2479 43.8014 421.9397 43.5418 C 433.5332 43.1957 445.3546 43.584 457.0463 43.6051 C 465.547 43.6211 475.6994 42.0811 482.5754 43.6514 C 492.1863 45.8471 492.9134 50.2171 499.3754 53.2772 C 505.1553 56.0129 514.1932 58.1224 519.1973 60.9889 C 523.322 63.3525 524.9356 66.06 526.2528 68.6771 C 527.5276 71.2157 530.1293 74.0183 526.9262 76.3546 C 522.672 79.459 512.7272 81.5159 505.2592 83.9909 C 499.295 85.9671 494.3245 88.383 486.6148 89.7143 C 479.1208 91.0071 470.0159 91.603 461.2526 91.5872 C 452.4868 91.5715 443.2735 90.9427 435.5524 89.621 C 427.6075 88.2622 422.1903 85.8323 415.8993 83.8292 C 409.0636 81.6524 402.9971 79.2537 396.1614 77.0768 C 389.8708 75.0737 383.2793 73.1419 376.508 71.2843 C 368.026 68.9577 360.022 66.3892 350.388 64.5205 C 338.2285 62.1625 324.0044 60.9218 311.5877 58.6931 C 302.3302 57.0333 295.0856 54.3944 285.5502 52.8892 C 274.3899 51.1274 262.2202 49.9613 250.1082 48.9875 C 241.7675 48.3168 233.0332 47.8363 224.4926 47.9812 C 215.7597 48.1293 207.0681 48.8119 199.1301 49.8541 C 190.0507 51.0455 182.2821 52.9784 174.019 54.6062 C 161.3884 57.0941 148.2455 59.4054 136.3965 62.2138 C 129.4243 63.8655 123.78 65.9798 117.7518 67.9366 C 105.1791 72.0176 92.4081 76.0725 80.5495 80.3426 C 73.8463 82.7559 67.0414 85.2098 62.0737 87.9845 C 57.8302 90.3572 55.1411 92.9997 53.1717 95.6449 C 51.3134 98.1405 51.4924 100.7612 50.6536 103.3153 C 50.4441 103.9549 52.5421 103.6385 50.6536 103.3153 Z " data-paper-data="{&quot;origRot&quot;:0,&quot;index&quot;:null}" fill="#000000" stroke="#000000" stroke-linecap="round" stroke-width="4"/><g data-paper-data="{&quot;index&quot;:null}"><path d="M 22.3304 191.5351 C 13.8741 189.6324 10.8791 186.147 15.6411 183.7503 C 20.4031 181.3535 31.1187 180.9529 39.575 182.8556 C 48.0313 184.7584 51.0263 188.2438 46.2643 190.6405 C 41.5024 193.0372 30.7868 193.4378 22.3305 191.5351 Z " fill="#000000" stroke-linecap="butt" stroke-width="4" stroke="#000000"/><path d="M 22.607 186.8526 C 22.607 186.8526 8.0474 188.565 5.0145 189.1952 C 2.6005 189.6966 2.2625 187.4422 2.2625 187.4422 L 17.3346 184.55 " fill="none" stroke-linecap="round" stroke-width="4" stroke="#000000"/><path d="M 29.07 189.7226 C 29.07 189.7226 17.6067 194.1807 14.5735 194.8108 C 12.1595 195.3123 12.3013 193.2063 12.3013 193.2063 L 23.7976 187.42 " fill="none" stroke-linecap="round" stroke-width="4" stroke="#000000"/><path d="M 42.4242 192.9861 C 42.4242 192.9861 33.3597 198.1866 30.3265 198.8167 C 27.9124 199.3182 29.0138 197.5093 29.0138 197.5093 L 37.1519 190.6835 " fill="none" stroke-linecap="round" stroke-width="4" stroke="#000000"/><path d="M 51.2159 189.6533 C 51.2159 189.6533 56.7776 195.2637 54.2336 196.1063 C 52.2088 196.7769 51.0573 195.6459 51.0573 195.6459 L 46.812 188.5271 " fill="none" stroke-linecap="round" stroke-width="4" stroke="#000000"/></g><g data-paper-data="{&quot;index&quot;:null}"><g><path d="M 273.1311 76.3293 C 281.5212 76.6195 288.0825 80.3868 291.9066 86.2377 C 295.728 92.0895 296.8147 100.0253 294.253 108.6525 C 291.6911 117.2798 285.9615 124.9797 278.778 130.4508 C 271.5922 135.9209 262.9497 139.1622 254.5599 138.8719 C 246.1702 138.5817 238.6092 132.7744 235.7845 128.9634 C 230.8896 122.3465 231.4894 115.1448 234.184 108.0853 C 235.8989 100.295 239.384 92.2198 248.9133 84.7503 C 253.5076 81.1438 264.7415 76.039 273.1313 76.3293 Z " data-paper-data="{&quot;origRot&quot;:0,&quot;index&quot;:null}" fill="#000000" stroke="#000000" stroke-linecap="butt" stroke-width="4"/><path d="M 360.9209 79.8828 C 369.3112 80.173 375.8722 83.9402 379.6963 89.7911 C 383.5178 95.643 384.6045 103.5788 382.0427 112.2059 C 379.4809 120.8333 373.7513 128.5331 366.5677 134.0043 C 359.382 139.4743 350.7394 142.7156 342.3496 142.4254 C 333.9599 142.1351 326.3989 136.3279 323.5742 132.5169 C 318.6793 125.9 319.2792 118.6983 321.9737 111.6388 C 323.6887 103.8485 327.1737 95.7733 336.703 88.3038 C 341.2973 84.6972 352.5312 79.5925 360.921 79.8827 Z " data-paper-data="{&quot;origRot&quot;:0,&quot;index&quot;:null}" fill="#000000" stroke="#000000" stroke-linecap="butt" stroke-width="4"/><path d="M 406.7942 80.7233 C 406.7942 80.7233 379.0731 78.9522 367.9358 78.1434 C 355.2326 77.2209 336.4681 73.3313 336.4681 73.3313 " fill="none" stroke="#000000" stroke-linecap="round" stroke-width="4"/><path d="M 307.8514 69.6127 C 307.8514 69.6127 284.1534 75.171 271.1761 75.3247 C 259.7985 76.3821 236.8762 75.4065 236.8762 75.4065 " data-paper-data="{&quot;index&quot;:null}" fill="none" stroke="#000000" stroke-linecap="round" stroke-width="4"/><path d="M 208.4354 143.2853 L 211.6459 130.6816 L 398.4247 136.2739 L 363.4221 147.9257 Z " fill="#ffa200" stroke="none" stroke-linecap="butt" stroke-width="4"/><path d="M 318.9441 133.8941 L 374.5804 135.5599 " fill="none" stroke="#000000" stroke-linecap="round" stroke-width="4"/><path d="M 219.5938 130.9195 L 295.1001 133.1802 " fill="none" stroke="#000000" stroke-linecap="round" stroke-width="4"/></g><path d="M 220.257 112.5951 L 225.2511 92.9893 " fill="none" stroke="#000000" stroke-linecap="round" stroke-width="4"/><path d="M 399.7512 99.6251 L 399.8013 115.1486 " fill="none" stroke="#000000" stroke-linecap="round" stroke-width="4"/></g><path d="M 162.0528 148.9955 C 162.8795 144.761 180.9725 141.6462 202.4647 142.0385 C 223.9568 142.4308 237.826 147.1549 236.9993 151.3895 C 236.4585 154.1595 229.7629 156.0339 219.1801 156.8893 C 213.5851 157.3415 207.5024 154.4419 200.0695 154.3062 C 190.2368 154.1267 180.7974 156.3112 174.1783 155.0011 C 166.3295 153.4476 161.6043 151.2928 162.0528 148.9955 Z " data-paper-data="{&quot;index&quot;:null}" fill="#ffffff" stroke="#000000" stroke-linecap="butt" stroke-width="4"/><path d="M 196.9395 149.3404 L 163.3594 149.3404 " fill="none" stroke="#000000" stroke-linecap="round" stroke-width="4"/><path d="M 154.0268 254.7799 C 155.2374 254.2379 155.2907 253.3202 157.1327 253.053 C 163.6461 252.1089 171.2421 252.2235 177.8197 251.3298 C 185.319 250.3109 191.5286 248.3798 199.028 247.361 C 205.6055 246.4673 212.8998 244.9737 219.7149 245.6378 C 233.2102 246.9529 243.8491 250.4822 255.8979 252.9009 C 263.6436 254.4557 274.9772 254.8939 279.1587 257.57 C 285.7622 261.7959 288.281 267.0726 285.3373 271.7369 C 282.2305 276.66 270.6415 280.5574 262.0437 284.6885 C 253.37 288.856 244.8592 293.2008 233.5813 296.6024 C 226.55 298.7224 217.0516 299.7595 208.2356 300.9159 C 201.6264 301.7821 194.2314 301.8395 187.5486 302.6391 C 180.7308 303.4552 174.5355 304.7817 167.8932 305.7446 C 158.6813 307.0802 149.7881 308.8487 139.9629 309.5393 C 130.6934 310.1911 120.5833 310.6295 111.5224 309.7061 C 103.7789 308.9168 96.7397 306.975 92.3992 304.6923 C 87.8312 302.29 87.9404 299.186 86.2096 296.399 C 84.3321 293.3709 80.8571 290.3255 81.5729 287.2421 C 82.9711 281.2134 79.1201 273.5364 92.4652 269.4509 C 105.2027 265.5527 127.0562 268.8489 144.1772 268.0797 C 158.9705 267.4157 173.577 266.251 188.1357 265.1522 C 204.7565 263.8983 221.0829 262.1412 237.7844 261.0164 C 251.7726 260.0744 273.1516 255.8542 280.1901 258.9523 C 287.8767 262.3354 277.0716 269.9391 267.2346 273.979 C 257.5623 277.9507 241.1228 279.6651 226.3709 281.0532 C 217.7276 281.8672 203.977 282.247 199.4832 280.3567 C 195.9684 278.8766 205.3031 275.9453 210.3537 274.3126 C 216.8052 272.2256 224.1369 269.5572 233.1148 269.4803 C 240.2131 269.4197 246.481 271.8531 249.6536 273.9753 C 252.8879 276.1394 253.4867 279.0023 250.6742 281.2311 C 247.4561 283.7792 240.5665 285.9181 233.0819 287.101 C 226.5367 288.1351 218.3556 288.07 211.3632 287.442 C 203.6076 286.7453 195.1405 285.5252 190.6871 283.2916 C 182.7796 279.3234 178.242 274.5334 176.2336 269.814 C 175.2045 267.3957 178.1708 264.8253 181.935 262.7323 C 186.1993 260.3613 191.9812 258.0012 199.5272 256.8624 C 207.3994 255.6752 216.7639 256.3633 225.3833 256.1767 C 232.6079 256.0206 239.8826 255.6488 247.1018 255.8358 C 255.6545 256.0579 264.3593 256.4302 272.4366 257.3959 C 279.0543 258.1872 285.3957 259.4237 290.5282 261.0274 C 296.1131 262.7725 299.4877 265.1774 303.961 267.2493 C 308.4339 269.3212 315.544 270.9928 317.3938 273.4712 C 319.2436 275.9495 316.7558 278.6548 314.277 281.0715 C 311.9991 283.2925 307.4193 285.1877 303.4068 287.1156 C 298.7839 289.3359 293.8499 291.5043 288.3991 293.5043 C 283.4802 295.3102 278.1814 297.0341 272.3597 298.5107 C 265.2075 300.3244 257.4341 301.877 249.5986 303.3431 C 243.2825 304.5255 236.9684 305.8633 229.9431 306.4485 C 222.9178 307.0337 215.421 307.0518 208.2244 306.7895 C 200.9582 306.5249 193.4028 306.0788 187.0272 304.8848 C 164.2384 300.6182 140.9126 296.3296 121.3828 290.5327 C 115.5208 288.793 114.5391 285.7051 113.6405 283.1027 C 112.6133 280.122 112.4875 276.918 115.7255 274.1201 C 121.1552 269.427 130.7093 265.3645 139.0191 261.1685 C 143.4863 258.9134 149.1889 256.9476 185.0629 249.2582 Z " data-paper-data="{&quot;index&quot;:null}" fill="none" stroke="#000000" stroke-linecap="round" stroke-width="4"/></g></g></svg>