<svg version="1.1" xmlns="http://www.w3.org/2000/svg" xmlns:xlink="http://www.w3.org/1999/xlink" width="496.44183" height="378.4634" viewBox="0,0,496.44183,378.4634"><defs><linearGradient x1="239.58379" y1="-4.57164" x2="239.58379" y2="373.89176" gradientUnits="userSpaceOnUse" id="color-1"><stop offset="0" stop-color="#292929"/><stop offset="1" stop-color="#480000"/></linearGradient><radialGradient cx="11.43578" cy="206.8992" r="13" gradientUnits="userSpaceOnUse" id="color-2"><stop offset="0" stop-color="#cb2b56"/><stop offset="1" stop-color="#cb2b56" stop-opacity="0"/></radialGradient><radialGradient cx="83.43578" cy="225.8992" r="13" gradientUnits="userSpaceOnUse" id="color-3"><stop offset="0" stop-color="#cb2b56"/><stop offset="1" stop-color="#cb2b56" stop-opacity="0"/></radialGradient><radialGradient cx="158.43578" cy="197.8992" r="13" gradientUnits="userSpaceOnUse" id="color-4"><stop offset="0" stop-color="#cb2b56"/><stop offset="1" stop-color="#cb2b56" stop-opacity="0"/></radialGradient><radialGradient cx="240.63303" cy="230.73176" r="13" gradientUnits="userSpaceOnUse" id="color-5"><stop offset="0" stop-color="#cb2b56"/><stop offset="1" stop-color="#cb2b56" stop-opacity="0"/></radialGradient><radialGradient cx="313.52982" cy="199.51158" r="13" gradientUnits="userSpaceOnUse" id="color-6"><stop offset="0" stop-color="#cb2b56"/><stop offset="1" stop-color="#cb2b56" stop-opacity="0"/></radialGradient><radialGradient cx="408.25917" cy="208.27993" r="13" gradientUnits="userSpaceOnUse" id="color-7"><stop offset="0" stop-color="#cb2b56"/><stop offset="1" stop-color="#cb2b56" stop-opacity="0"/></radialGradient><radialGradient cx="184.65138" cy="224.07351" r="13" gradientUnits="userSpaceOnUse" id="color-8"><stop offset="0" stop-color="#cb2b56"/><stop offset="1" stop-color="#cb2b56" stop-opacity="0"/></radialGradient><radialGradient cx="355.29817" cy="252.93819" r="13" gradientUnits="userSpaceOnUse" id="color-9"><stop offset="0" stop-color="#cb2b56"/><stop offset="1" stop-color="#cb2b56" stop-opacity="0"/></radialGradient><radialGradient cx="476.93119" cy="207.00241" r="13" gradientUnits="userSpaceOnUse" id="color-10"><stop offset="0" stop-color="#cb2b56"/><stop offset="1" stop-color="#cb2b56" stop-opacity="0"/></radialGradient></defs><g transform="translate(6.51064,4.57164)"><g data-paper-data="{&quot;isPaintingLayer&quot;:true}" fill-rule="nonzero" stroke="none" stroke-width="0" stroke-linecap="butt" stroke-linejoin="miter" stroke-miterlimit="10" stroke-dasharray="" stroke-dashoffset="0" style="mix-blend-mode: normal"><path d="M-6.51064,373.89176v-378.4634h492.18886v378.4634z" fill="url(#color-1)"/><path d="M-1.56422,206.8992c0,-7.1797 5.8203,-13 13,-13c7.1797,0 13,5.8203 13,13c0,7.1797 -5.8203,13 -13,13c-7.1797,0 -13,-5.8203 -13,-13z" fill="url(#color-2)"/><path d="M70.43578,225.8992c0,-7.1797 5.8203,-13 13,-13c7.1797,0 13,5.8203 13,13c0,7.1797 -5.8203,13 -13,13c-7.1797,0 -13,-5.8203 -13,-13z" fill="url(#color-3)"/><path d="M145.43578,197.8992c0,-7.1797 5.8203,-13 13,-13c7.1797,0 13,5.8203 13,13c0,7.1797 -5.8203,13 -13,13c-7.1797,0 -13,-5.8203 -13,-13z" fill="url(#color-4)"/><path d="M227.63303,230.73176c0,-7.1797 5.8203,-13 13,-13c7.1797,0 13,5.8203 13,13c0,7.1797 -5.8203,13 -13,13c-7.1797,0 -13,-5.8203 -13,-13z" fill="url(#color-5)"/><path d="M300.52982,199.51158c0,-7.1797 5.8203,-13 13,-13c7.1797,0 13,5.8203 13,13c0,7.1797 -5.8203,13 -13,13c-7.1797,0 -13,-5.8203 -13,-13z" fill="url(#color-6)"/><path d="M395.25917,208.27993c0,-7.1797 5.8203,-13 13,-13c7.1797,0 13,5.8203 13,13c0,7.1797 -5.8203,13 -13,13c-7.1797,0 -13,-5.8203 -13,-13z" fill="url(#color-7)"/><path d="M171.65138,224.07351c0,-7.1797 5.8203,-13 13,-13c7.1797,0 13,5.8203 13,13c0,7.1797 -5.8203,13 -13,13c-7.1797,0 -13,-5.8203 -13,-13z" fill="url(#color-8)"/><path d="M342.29817,252.93819c0,-7.1797 5.8203,-13 13,-13c7.1797,0 13,5.8203 13,13c0,7.1797 -5.8203,13 -13,13c-7.1797,0 -13,-5.8203 -13,-13z" fill="url(#color-9)"/><path d="M463.93119,207.00241c0,-7.1797 5.8203,-13 13,-13c7.1797,0 13,5.8203 13,13c0,7.1797 -5.8203,13 -13,13c-7.1797,0 -13,-5.8203 -13,-13z" fill="url(#color-10)"/></g></g></svg>