<svg version="1.1" xmlns="http://www.w3.org/2000/svg" xmlns:xlink="http://www.w3.org/1999/xlink" width="363.69085" height="352" viewBox="0,0,363.69085,352"><defs><linearGradient x1="261.29319" y1="152.71758" x2="578.29319" y2="152.71758" gradientUnits="userSpaceOnUse" id="color-1"><stop offset="0" stop-color="#b3ceff"/><stop offset="1" stop-color="#86bdfd"/></linearGradient><linearGradient x1="414.02367" y1="99.00789" x2="414.02367" y2="158.62934" gradientUnits="userSpaceOnUse" id="color-2"><stop offset="0" stop-color="#869bfc"/><stop offset="1" stop-color="#869bfc" stop-opacity="0"/></linearGradient><linearGradient x1="375.99895" y1="184.24925" x2="375.99895" y2="249.32152" gradientUnits="userSpaceOnUse" id="color-3"><stop offset="0" stop-color="#fde6d9"/><stop offset="1" stop-color="#f7d9c8"/></linearGradient><linearGradient x1="372.9782" y1="-37.50955" x2="372.9782" y2="422.68441" gradientUnits="userSpaceOnUse" id="color-4"><stop offset="0" stop-color="#000000"/><stop offset="1" stop-color="#000000" stop-opacity="0"/></linearGradient><linearGradient x1="447.3056" y1="184.24925" x2="447.3056" y2="249.32152" gradientUnits="userSpaceOnUse" id="color-5"><stop offset="0" stop-color="#fde6d9"/><stop offset="1" stop-color="#f7d9c8"/></linearGradient><linearGradient x1="450.32631" y1="-37.50955" x2="450.32631" y2="422.68441" gradientUnits="userSpaceOnUse" id="color-6"><stop offset="0" stop-color="#000000"/><stop offset="1" stop-color="#000000" stop-opacity="0"/></linearGradient><linearGradient x1="411.66596" y1="123.37549" x2="411.66596" y2="153.43218" gradientUnits="userSpaceOnUse" id="color-7"><stop offset="0" stop-color="#d2a991"/><stop offset="1" stop-color="#fde6d9"/></linearGradient><radialGradient cx="411.79929" cy="122.47954" r="36.94222" gradientUnits="userSpaceOnUse" id="color-8"><stop offset="0" stop-color="#fde6d9"/><stop offset="1" stop-color="#f7d9c8"/></radialGradient><linearGradient x1="413.24074" y1="116.07408" x2="415.43115" y2="115.99907" gradientUnits="userSpaceOnUse" id="color-9"><stop offset="0" stop-color="#f4d7c8"/><stop offset="1" stop-color="#f4d7c8" stop-opacity="0"/></linearGradient><linearGradient x1="409.63536" y1="119.01785" x2="409.66089" y2="119.61144" gradientUnits="userSpaceOnUse" id="color-10"><stop offset="0" stop-color="#ecc6b1"/><stop offset="1" stop-color="#ecc6b1" stop-opacity="0"/></linearGradient><linearGradient x1="412.4974" y1="118.97429" x2="412.52293" y2="119.56787" gradientUnits="userSpaceOnUse" id="color-11"><stop offset="0" stop-color="#ecc6b1"/><stop offset="1" stop-color="#ecc6b1" stop-opacity="0"/></linearGradient><linearGradient x1="413.02053" y1="96.46515" x2="413.87452" y2="116.31814" gradientUnits="userSpaceOnUse" id="color-12"><stop offset="0" stop-color="#f9ddce" stop-opacity="0"/><stop offset="1" stop-color="#f9ddce"/></linearGradient><linearGradient x1="412.7256" y1="-1465.7414" x2="412.7256" y2="1319.09646" gradientUnits="userSpaceOnUse" id="color-13"><stop offset="0" stop-color="#2a221e"/><stop offset="1" stop-color="#2a221e" stop-opacity="0"/></linearGradient></defs><g transform="translate(-232.17824,23.28241)"><g data-paper-data="{&quot;isPaintingLayer&quot;:true}" fill-rule="nonzero" stroke-linejoin="miter" stroke-miterlimit="10" stroke-dasharray="" stroke-dashoffset="0" style="mix-blend-mode: normal"><path d="M261.29319,328.71759v-352h317v352z" fill="url(#color-1)" stroke="none" stroke-width="0" stroke-linecap="butt"/><path d="M232.17824,158.62934v-59.62145h363.69085v59.62145z" fill="url(#color-2)" stroke="none" stroke-width="0" stroke-linecap="butt"/><g><path d="" data-paper-data="{&quot;origPos&quot;:null}" fill="none" stroke="#000000" stroke-width="1.5" stroke-linecap="round"/><g data-paper-data="{&quot;origPos&quot;:null}"><g data-paper-data="{&quot;origPos&quot;:null}" stroke="none" stroke-width="0" stroke-linecap="butt"><path d="M366.47537,244.65919v-7.98734h11.56266l-0.36662,7.80404c0,0 -0.9224,2.00899 -2.95334,2.00899c-1.34406,0 -8.24268,-1.82569 -8.24268,-1.82569z" data-paper-data="{&quot;origPos&quot;:null}" fill="#000000"/><path d="M379.70888,220.98728c-1.37365,10.01358 -1.42121,17.96435 -4.85521,25.40435c-1.83807,3.98231 -4.57598,3.89393 -6.17728,-0.19709c-3.07413,-7.85381 -2.2577,-18.50529 -1.81615,-27.84758c0.39592,-8.37694 -2.13852,-10.37918 -0.57011,-27.14822c0.69223,-10.8191 21.70403,-8.25045 20.32072,2.49698c-1.3833,10.74743 -5.52833,17.27798 -6.90198,27.29158z" data-paper-data="{&quot;origPos&quot;:null}" fill="url(#color-3)"/><g data-paper-data="{&quot;origPos&quot;:null}"><path d="M367.06962,242.97443l-0.63471,-6.28508l11.62015,-0.18331l-0.59119,8.88203c0,0 -1.9445,-2.86814 -4.66744,-3.19116z" data-paper-data="{&quot;origPos&quot;:null}" fill="url(#color-4)"/><path d="M366.32659,240.59291c0,0 -2.35773,-34.89806 -0.29268,-47.59009c1.2591,-7.73849 2.47194,-9.96622 10.06783,-9.14193c7.21376,0.56923 10.42156,4.33054 10.90298,9.62405c0.48141,5.2935 -9.80189,51.37986 -9.80189,51.37986c0,0 -0.40587,-4.86131 -3.47734,-5.255c-3.26004,-0.41786 -7.39891,0.98313 -7.39891,0.98313z" data-paper-data="{&quot;origPos&quot;:null,&quot;origRot&quot;:0}" fill="#1e4994"/></g></g><g data-paper-data="{&quot;origPos&quot;:null}"><g data-paper-data="{&quot;origPos&quot;:null}" fill="#f4d5c2" stroke="none" stroke-linecap="round"><path d="M374.21894,265.62818c-0.83759,-0.57462 -0.49977,-1.93096 -0.63634,-2.91085c-0.1833,-1.32319 -0.25681,-2.60781 -0.44883,-3.90241c-0.06769,-0.45761 -0.76287,-1.02686 -0.44247,-1.3376c0.93694,-0.80505 2.29318,-1.0781 3.47444,-1.35359c0.29775,-0.0695 0.74401,-0.05115 0.80876,0.37245c0.25665,1.6836 -0.06309,3.40153 -0.05184,5.09296c0.00749,1.12098 0.60956,2.4321 -0.0099,3.366c-0.49002,0.73801 -1.91454,1.18486 -2.69381,0.67307z" data-paper-data="{&quot;origPos&quot;:null}" stroke-width="0.18506"/><path d="M375.67871,270.0079c-0.67315,-0.01555 -1.45573,-0.5951 -1.7403,-1.32552c-0.39926,-1.02772 -0.14278,-2.18278 -0.1764,-3.27303c-0.00849,-0.27684 -0.10855,-0.51869 0.04348,-0.56189c0.44623,-0.17408 0.9432,0.03642 1.40843,0.03459c0.60925,-0.00551 1.22802,-0.30275 1.82322,-0.13356c0.16789,0.04773 0.08412,0.31792 0.07255,0.59537c-0.04567,1.09983 0.10263,2.27086 -0.19728,3.2962c-0.18396,0.62873 -0.65779,1.37898 -1.23369,1.36784z" data-paper-data="{&quot;origPos&quot;:null}" stroke-width="0.20528"/></g><g><g data-paper-data="{&quot;origPos&quot;:null}" stroke-width="0" stroke-linecap="round"><path d="M374.36855,260.36449c-1.01199,0.32037 -1.97567,0.29517 -2.94687,0.20625c-0.64675,-0.06004 -1.23037,-0.68403 -1.8777,-0.56887c-2.33161,0.41432 -4.92431,3.49506 -7.14394,2.05909c-0.79892,-0.53111 0.59789,-4.08517 1.03812,-6.03771c0.54992,-2.43844 1.3309,-4.65228 2.03525,-6.91264c0.68053,-2.17485 1.35289,-5.05538 2.49289,-6.19911c1.2457,-1.35573 2.78355,-0.89045 4.19347,-0.89402c1.10613,0.21901 2.60928,-0.48897 3.27114,1.52402c1.21427,3.69895 1.44101,9.03082 1.57628,13.75735c0.0338,1.18172 -0.49903,1.24243 -0.84309,1.68259c-0.56076,0.70287 -1.18472,1.18937 -1.79557,1.38303z" data-paper-data="{&quot;origPos&quot;:null}" fill="#f7dac9" stroke="none"/><path d="M374.97772,253.64634c0,0 0.55628,0.02323 0.83238,0.05442c0.06904,0.00773 0.11269,0.01583 0.16307,0.05812c0.11493,0.09594 0.21697,0.24715 0.32941,0.35379c0.17411,0.1652 0.53064,0.46198 0.53064,0.46198" data-paper-data="{&quot;origPos&quot;:null}" fill="none" stroke="#dbb9a5"/><path d="M371.00522,259.60634c0,0 0.15395,-0.17413 0.22896,-0.26991c0.10186,-0.12984 0.19763,-0.29033 0.30192,-0.40754c0.10906,-0.12275 0.22159,-0.23504 0.33641,-0.3104c0.06284,-0.04109 0.1273,-0.02489 0.19077,-0.035c0.01596,-0.00258 0.02084,0.00137 0.02084,0.00137" data-paper-data="{&quot;origPos&quot;:null}" fill="none" stroke="#dbb9a5"/><path d="M373.34747,254.48941c0,0 -0.46912,0.744 -0.73553,0.90152c-0.54828,0.33539 -1.11731,0.46059 -1.67186,0.55546c-0.32124,0.05476 -0.89632,-0.0965 -0.89632,-0.0965" data-paper-data="{&quot;origPos&quot;:null}" fill="none" stroke="#dbb9a5"/></g><path d="M374.05281,253.99414c0.12702,0.24387 -0.11686,0.37089 -0.11686,0.37089l0.00112,-0.14799c-0.00721,0.46846 -0.24115,0.61522 -0.60994,0.8365c-1.28549,0.74703 -1.50914,1.17571 -3.0378,1.17571c0,0 -0.27496,0 -0.27496,-0.27496c0,-0.27496 0.27496,-0.27496 0.27496,-0.27496c1.49251,0 1.47776,-0.31383 2.75485,-1.09735c0.14793,-0.08876 0.3431,-0.21495 0.3431,-0.38747l0.2946,-0.3172c0,0 0.24387,-0.12702 0.3709,0.11686z" data-paper-data="{&quot;origPos&quot;:null}" fill="#f3d5c2" stroke="none" stroke-width="0.5" stroke-linecap="butt"/><path d="M376.76286,254.76695c-0.13251,0.24093 -0.37344,0.10842 -0.37344,0.10842l-0.28089,-0.32089c-0.09264,-0.37055 -0.67114,-0.45165 -1.05308,-0.45165c0,0 -0.27496,0 -0.27496,-0.27496c0,-0.27496 0.27496,-0.27496 0.27496,-0.27496c0.83902,0 1.35008,-0.07788 1.5866,0.86821l0.0124,-0.02759c0,0 0.24094,0.13251 0.10842,0.37344z" data-paper-data="{&quot;origPos&quot;:null}" fill="#f3d5c2" stroke="none" stroke-width="0.5" stroke-linecap="butt"/><path d="M371.01157,260.35904c-0.22526,-0.15768 -0.08825,-0.34823 -0.08825,-0.34823l0.07332,-0.14665c0.3033,-0.60658 0.35698,-1.47184 1.19916,-1.47184c0,0 0.27496,0 0.27496,0.27496c0,0.27496 -0.27496,0.27496 -0.27496,0.27496c-0.43011,0 -0.45149,0.65624 -0.70728,1.16784l-0.07332,0.14665c0,0 -0.17836,0.25998 -0.40362,0.1023z" data-paper-data="{&quot;origPos&quot;:null}" fill="#f3d5c2" stroke="none" stroke-width="0.5" stroke-linecap="butt"/></g><g data-paper-data="{&quot;origPos&quot;:null}" stroke="none"><g data-paper-data="{&quot;origPos&quot;:null}" stroke-linecap="round"><path d="M374.28418,277.66547c0.0296,0.82782 -0.55509,1.77984 -1.27976,2.15157c-0.62085,0.31605 -1.49236,-0.11739 -1.97286,-0.61204c-0.75704,-0.77968 -0.97834,-1.94922 -1.40998,-2.95024c-0.28338,-0.6569 -1.05848,-1.38149 -0.77234,-2.06828c0.25028,-0.59905 1.25426,-0.26846 1.83667,-0.50531c0.48209,-0.18419 0.85552,-0.8713 1.33505,-0.74888c0.49621,0.12682 0.63734,0.843 0.85396,1.29214c0.53696,1.11318 1.36516,2.20816 1.40924,3.44105z" data-paper-data="{&quot;origPos&quot;:null}" fill="#f7dac9" stroke-width="0.22643"/><path d="M371.7654,279.06978c0.21665,0.3292 0.65274,0.90718 0.51273,1.07384c-0.14106,0.17016 -0.6756,-0.17446 -0.95721,-0.51156c-0.37717,-0.45134 -0.616,-1.07057 -0.89878,-1.6184c-0.22002,-0.44761 -0.47793,-0.93135 -0.57102,-1.4084c-0.04757,-0.11926 0.12388,-0.10045 0.23171,-0.03528c0.24026,0.13874 0.50528,0.36579 0.68019,0.64034c0.3748,0.58882 0.7107,1.20446 1.00239,1.85946z" data-paper-data="{&quot;origPos&quot;:null}" fill="#f6eee9" stroke-width="0.25713"/></g><path d="M372.08062,271.51476c-0.20359,0.56096 -0.62678,-0.08648 -0.94623,-0.17357c-0.70109,-0.18636 -1.40693,-0.29373 -2.12342,-0.50889c-0.33556,-0.09711 -1.03874,0.3643 -1.03844,-0.19122c-0.00178,-2.1809 0.63357,-4.33678 0.94756,-6.50061c0.16057,-1.10912 -0.50336,-2.65424 0.35314,-3.39991c1.3444,-1.17007 3.45141,-1.28189 5.24194,-1.39835c0.45197,-0.02828 0.50674,0.55076 0.42096,0.92572c-0.26375,1.58993 -1.01222,3.04979 -1.4042,4.60219c-0.56559,2.24037 -0.66604,4.53657 -1.4513,6.64464z" data-paper-data="{&quot;origPos&quot;:null}" fill="#f7dac9" stroke-width="0.22697" stroke-linecap="round"/><path d="M372.48989,272.5004c0.11634,0.6959 0.54746,1.70541 -0.01957,2.12816c-0.87114,0.60451 -2.24585,0.63889 -3.1481,0.13412c-0.80867,-0.45397 -0.89473,-1.66938 -1.14391,-2.57752c-0.12606,-0.46989 -0.42709,-1.08772 -0.08796,-1.41778c0.58723,-0.56575 1.55634,-0.57132 2.35573,-0.67698c0.45546,-0.07382 1.0394,-0.21009 1.34546,0.14781c0.50352,0.59486 0.56107,1.444 0.69836,2.2622z" data-paper-data="{&quot;origPos&quot;:null}" fill="#f7dac9" stroke-width="0.22693" stroke-linecap="round"/><path d="M370.16196,274.47933c-0.02283,-0.27401 0.25118,-0.29684 0.25118,-0.29684l0.17613,0.00726c0.42792,-0.10698 0.82061,-0.14124 1.23988,-0.15118v-0.00368h0.36663c0.03475,0 0.06799,0.00645 0.09861,0.01821c0.07887,0.0268 0.17636,0.09304 0.17636,0.25675c0,0.16371 -0.09748,0.22996 -0.17636,0.25676c-0.03061,0.01176 -0.06386,0.0182 -0.09861,0.0182c-0.52426,0 -0.96596,0.01165 -1.47313,0.13844l-0.26382,0.00726c0,0 -0.27402,0.02283 -0.29685,-0.25118z" data-paper-data="{&quot;origPos&quot;:null}" fill="#f3d5c2" stroke-width="0.5" stroke-linecap="butt"/><path d="M370.76565,266.87951c0.09789,-0.25695 0.35484,-0.15906 0.35484,-0.15906l0.18877,0.06352c0.52169,0.13042 0.93015,0.26556 1.39462,0.54425c0,0 0.23579,0.14147 0.09431,0.37725c-0.14147,0.23578 -0.37725,0.09431 -0.37725,0.09431c-0.427,-0.25619 -0.76794,-0.36301 -1.24506,-0.48229l-0.25116,-0.08312c0,0 -0.25696,-0.09789 -0.15908,-0.35484z" data-paper-data="{&quot;origPos&quot;:null}" fill="#f3d5c2" stroke-width="0.5" stroke-linecap="butt"/></g><g data-paper-data="{&quot;origPos&quot;:null}" stroke="none"><g data-paper-data="{&quot;origPos&quot;:null}" stroke-linecap="round"><path d="M370.61063,278.26446c-0.00006,0.88304 -0.6198,1.89076 -1.35871,2.27793c-0.63304,0.32921 -1.49017,-0.14399 -1.95353,-0.67745c-0.72993,-0.8408 -0.9096,-2.09062 -1.3057,-3.16334c-0.26027,-0.70404 -1.01024,-1.48627 -0.69911,-2.21506c0.27219,-0.63549 1.26557,-0.27048 1.85728,-0.51558c0.48931,-0.19033 0.88801,-0.91827 1.36372,-0.78163c0.49227,0.14143 0.60784,0.90675 0.80863,1.38839c0.49776,1.19375 1.28759,2.37167 1.28742,3.68674z" data-paper-data="{&quot;origPos&quot;:null}" fill="#f7dac9" stroke-width="0.23422"/><path d="M368.44893,279.31191c0.10101,0.57237 0.22452,1.31155 -0.06767,1.56406c-0.2095,0.18782 -0.64214,-0.14168 -0.94002,-0.55746c-0.37469,-0.52955 -0.50738,-1.25242 -0.6952,-1.91244c-0.11729,-0.33425 -0.26602,-0.76028 -0.21273,-1.04581c0.10589,-0.34673 0.28919,-0.58409 0.58552,-0.54338c0.17637,0.02178 0.38785,0.4005 0.54246,0.69064c0.30668,0.57022 0.68515,1.2001 0.78762,1.80439z" data-paper-data="{&quot;origPos&quot;:null}" fill="#f6eee9" stroke-width="0.26632"/></g><path d="M367.80245,271.82683c-0.69537,-0.20756 -1.39817,-0.33094 -2.10795,-0.56936c-0.3325,-0.10777 -1.05325,0.3753 -1.03298,-0.21703c0.0767,-2.3254 0.79036,-4.6161 1.18257,-6.91927c0.20059,-1.18051 -0.40867,-2.83641 0.47579,-3.62062c1.38828,-1.23064 3.50206,-1.32333 5.29909,-1.4249c0.45353,-0.02449 0.48763,0.59373 0.3883,0.99241c-0.32128,1.69188 -1.12317,3.23906 -1.5715,4.88932c-0.64693,2.3816 -0.82998,4.82864 -1.69212,7.06635c-0.22396,0.59555 -0.62448,-0.10002 -0.9412,-0.1969z" data-paper-data="{&quot;origPos&quot;:null}" fill="#f7dac9" stroke-width="0.23556" stroke-linecap="round"/><path d="M368.92875,272.76105c0.09153,0.74339 0.487,1.82522 -0.096,2.26883c-0.89405,0.63355 -2.27173,0.65288 -3.15714,0.10333c-0.7934,-0.49421 -0.83591,-1.79135 -1.05278,-2.76275c-0.10922,-0.5026 -0.38842,-1.16515 -0.037,-1.51277c0.60833,-0.59576 1.5789,-0.58956 2.38313,-0.69213c0.45874,-0.07294 1.04831,-0.21089 1.34188,0.1746c0.48282,0.6405 0.50985,1.5467 0.61792,2.42087z" data-paper-data="{&quot;origPos&quot;:null}" fill="#f7dac9" stroke-width="0.23547" stroke-linecap="round"/><path d="M366.93627,274.99856c-0.02878,-0.27346 0.24467,-0.30224 0.24467,-0.30224l0.10874,0.0067c0.41108,-0.10278 0.88933,-0.15485 1.31321,-0.15485c0,0 0.27496,0 0.27496,0.27496c0,0.27496 -0.27496,0.27496 -0.27496,0.27496c-0.38691,0 -0.80518,0.04477 -1.17983,0.13843l-0.18455,0.00671c0,0 -0.27346,0.02878 -0.30224,-0.24466z" data-paper-data="{&quot;origPos&quot;:null}" fill="#f3d5c2" stroke-width="0.5" stroke-linecap="butt"/><path d="M365.69266,268.83465c0.04919,-0.27054 0.27052,-0.22578 0.27052,-0.22578h0.14665c0.51835,0.01995 0.9594,0.29329 1.4665,0.29329c0,0 0.27496,0 0.27496,0.27496c0,0.27496 -0.27496,0.27496 -0.27496,0.27496c-0.49534,0 -0.98267,-0.34297 -1.4665,-0.29329h-0.14665c0,0 -0.31971,-0.05363 -0.27052,-0.32415z" data-paper-data="{&quot;origPos&quot;:null}" fill="#f3d5c2" stroke-width="0.5" stroke-linecap="butt"/></g><g stroke="none"><g data-paper-data="{&quot;origPos&quot;:null}" stroke-linecap="round"><path d="M367.25914,276.72748c0.0247,0.76442 -0.56438,1.62663 -1.28977,1.9497c-0.62146,0.2745 -1.48884,-0.14925 -1.96549,-0.61878c-0.75098,-0.73999 -0.96513,-1.82499 -1.39002,-2.76022c-0.27907,-0.61384 -1.04833,-1.30343 -0.75875,-1.92911c0.25324,-0.54575 1.2533,-0.21333 1.83599,-0.41584c0.48218,-0.1566 0.85897,-0.78023 1.33685,-0.65414c0.49447,0.13054 0.63109,0.79504 0.84474,1.21529c0.52944,1.04174 1.34966,2.07452 1.38646,3.21309z" data-paper-data="{&quot;origPos&quot;:null}" fill="#f7dac9" stroke-width="0.21715"/><path d="M365.84291,277.69777c0.13029,0.50317 0.13573,1.12274 -0.15165,1.29538c-0.36948,0.16408 -1.00774,-0.03507 -1.45777,-0.47011c-0.42131,-0.40737 -0.54081,-1.0926 -0.74649,-1.66718c-0.12633,-0.29123 -0.27267,-0.62649 -0.24134,-0.90882c0.02974,-0.25971 0.21424,-0.40582 0.40285,-0.48403c0.18151,-0.07518 0.41855,-0.14366 0.66341,-0.00107c0.2463,0.14498 0.43471,0.44689 0.61497,0.70191c0.33432,0.49652 0.77744,0.99865 0.91602,1.53391z" data-paper-data="{&quot;origPos&quot;:null}" fill="#f6eee9" stroke-width="0.24591"/></g><path d="M365.0794,270.94202c-0.20647,0.51186 -0.62502,-0.09692 -0.9433,-0.18601c-0.69871,-0.19122 -1.40255,-0.30959 -2.11635,-0.52771c-0.3344,-0.09881 -1.03891,0.30759 -1.03533,-0.20491c0.01093,-2.01191 0.65764,-3.98331 0.98358,-5.97075c0.16667,-1.01878 -0.48698,-2.46244 0.37226,-3.12678c1.34859,-1.04248 3.45213,-1.08787 5.23981,-1.14617c0.45125,-0.01369 0.5026,0.52199 0.41484,0.86553c-0.27258,1.45942 -1.02808,2.78561 -1.42837,4.20694c-0.47163,1.67524 -0.51971,2.66904 -0.93504,4.35912c-0.16937,0.68914 -0.2807,1.07501 -0.55212,1.73072z" data-paper-data="{&quot;origPos&quot;:null}" fill="#f7dac9" stroke-width="0.21719" stroke-linecap="round"/><path d="M365.44467,271.89863c0.11209,0.64512 0.53651,1.58822 -0.03195,1.96263c-0.87294,0.53371 -2.24507,0.52776 -3.14278,0.0374c-0.80442,-0.44099 -0.88318,-1.56458 -1.1266,-2.40919c-0.12309,-0.43692 -0.41991,-1.01507 -0.07955,-1.3103c0.58934,-0.50575 1.55665,-0.48437 2.35506,-0.5599c0.45505,-0.05558 1.03864,-0.16532 1.34205,0.17327c0.49904,0.56254 0.55144,1.34746 0.68376,2.10606z" data-paper-data="{&quot;origPos&quot;:null}" fill="#f7dac9" stroke-width="0.21719" stroke-linecap="round"/><path d="M363.7109,273.90625c-0.03634,-0.27255 0.23621,-0.3089 0.23621,-0.3089l0.18963,-0.06753c0.32257,-0.08065 0.61663,-0.08153 0.94658,-0.08153c0,0 0.27496,0 0.27496,0.27496c0,0.27496 -0.27496,0.27496 -0.27496,0.27496c-0.28541,0 -0.53769,-0.00376 -0.8132,0.06511l-0.25032,0.07912c0,0 -0.27256,0.03634 -0.3089,-0.23621z" data-paper-data="{&quot;origPos&quot;:null}" fill="#f3d5c2" stroke-width="0.5" stroke-linecap="butt"/><path d="M363.02749,264.6164c0.16127,-0.2227 0.38398,-0.06144 0.38398,-0.06144l0.21343,0.06872c0.66932,0.45049 1.30744,0.96564 1.92775,1.48256c0,0 0.21123,0.17602 0.0352,0.38727c-0.17602,0.21124 -0.38727,0.0352 -0.38727,0.0352c-0.60608,-0.50506 -1.22887,-1.00873 -1.88274,-1.44881l-0.22891,-0.07954c0,0 -0.22271,-0.16127 -0.06144,-0.38398z" data-paper-data="{&quot;origPos&quot;:null}" fill="#f3d5c2" stroke-width="0.5" stroke-linecap="butt"/></g><g data-paper-data="{&quot;origPos&quot;:null}" stroke="none"><path d="M369.71421,260.88588c-0.69528,0.0295 -1.40466,0.05191 -2.0942,-0.05555c-0.45962,-0.11996 -1.09362,-0.20093 -1.28616,-0.61368c-0.64998,-1.39948 -1.28226,-2.99203 -0.98245,-4.50114c0.36646,-1.84039 1.66053,-3.47301 2.97768,-4.87197c0.32927,-0.34969 0.7397,0.50364 0.91405,0.8792c0.62709,1.34806 1.2435,2.82062 1.53925,4.30227c0.17785,0.87927 0.02792,1.95439 0.08452,2.92831c0.02924,0.56609 0.43858,1.17594 0.12788,1.64489c-0.19763,0.37576 -0.82353,0.26865 -1.2806,0.28766z" data-paper-data="{&quot;origPos&quot;:null}" fill="#f4d5c2" stroke-width="0.20673" stroke-linecap="round"/><g><path d="M370.62314,266.23498c-0.20869,0.48789 -0.83321,0.89238 -1.39211,0.87693c-0.5875,-0.01615 -1.23827,-0.38952 -1.46575,-0.92819c-0.80333,-1.87028 -1.70738,-3.94074 -1.32359,-5.93312c0.14634,-0.75922 1.62974,-0.18326 2.44863,-0.16631c0.6741,0.02996 1.60867,-0.24097 2.00588,0.27355c0.52428,0.67927 0.24655,1.67236 0.2228,2.50857c-0.06764,1.13195 -0.04775,2.32443 -0.49584,3.3686z" data-paper-data="{&quot;origPos&quot;:null}" fill="#f4d5c2" stroke-width="0.20673" stroke-linecap="round"/><path d="M370.3184,266.69153c-0.1599,0.36724 -0.59281,0.67015 -1.00111,0.728c-0.37594,0.05297 -0.86318,-0.08512 -1.06467,-0.38918c-0.38377,-0.57949 -0.47709,-1.30877 -0.5314,-1.99097c-0.03842,-0.47101 -0.02117,-0.98355 0.19591,-1.40333c0.13698,-0.21621 0.47983,-0.28952 0.74075,-0.28143c0.3682,0.0108 0.81696,0.06971 1.08737,0.32074c0.3619,0.38227 0.54759,0.91062 0.65439,1.42091c0.10878,0.52165 0.13356,1.10295 -0.08122,1.59525z" data-paper-data="{&quot;origPos&quot;:null}" fill="#f6eee9" stroke-width="0.29492" stroke-linecap="butt"/></g></g></g><g data-paper-data="{&quot;origPos&quot;:null,&quot;origRot&quot;:0}" stroke="none" stroke-width="0" stroke-linecap="butt"><path d="M392.78212,153.72528c2.2263,8.606 -0.32147,10.1843 -1.82601,18.95729c-3.58248,20.88942 -3.70954,20.09073 -6.50357,26.94879c-3.39703,8.33818 -19.90391,2.16928 -18.3695,-6.74282c0.84676,-4.91805 0.90539,-16.57947 1.77239,-21.49371c2.9679,-16.82234 11.05135,-27.24648 17.36908,-29.21608c6.66153,-2.07677 6.41889,7.1448 7.55758,11.54653z" data-paper-data="{&quot;origPos&quot;:null,&quot;origRot&quot;:0}" fill="#2152a6"/><path d="M383.29211,142.53405c0.4121,5.36932 1.25334,11.55145 0.49713,15.842c-2.61292,14.82499 -5.46672,29.60216 -8.35587,44.37241c-5.09869,-1.10043 -10.1252,-5.30103 -9.24739,-10.39938c0.84676,-4.91805 0.90539,-16.57947 1.77239,-21.49371c2.65705,-15.06039 9.41418,-24.99267 15.33376,-28.32131z" data-paper-data="{&quot;origPos&quot;:null,&quot;origRot&quot;:0}" fill="#000000"/></g></g><g data-paper-data="{&quot;origPos&quot;:null,&quot;index&quot;:null}"><g data-paper-data="{&quot;origPos&quot;:null}" stroke="none" stroke-width="0" stroke-linecap="butt"><path d="M448.5865,246.48486c-2.03095,0 -2.95334,-2.00899 -2.95334,-2.00899l-0.36662,-7.80404h11.56266v7.98734c0,0 -6.89863,1.82569 -8.24268,1.82569z" data-paper-data="{&quot;origPos&quot;:null}" fill="#000000"/><path d="M443.59564,220.98729c-1.37365,-10.0136 -5.51868,-16.54415 -6.90198,-27.29158c-1.3833,-10.74743 19.6285,-13.31607 20.32072,-2.49698c1.56841,16.76904 -0.96602,18.77128 -0.57011,27.14822c0.44155,9.34229 1.25798,19.99378 -1.81615,27.84758c-1.60129,4.09101 -4.33921,4.17939 -6.17728,0.19709c-3.434,-7.44 -3.48157,-15.39076 -4.85521,-25.40435z" data-paper-data="{&quot;origPos&quot;:null}" fill="url(#color-5)"/><g data-paper-data="{&quot;origPos&quot;:null}"><path d="M450.50813,242.1969c-2.72293,0.32304 -4.66744,3.19116 -4.66744,3.19116l-0.59119,-8.88203l11.62015,0.18331l-0.63471,6.28508z" data-paper-data="{&quot;origPos&quot;:null}" fill="url(#color-6)"/><path d="M456.97792,240.59291c0,0 -4.13887,-1.401 -7.39891,-0.98313c-3.07146,0.3937 -3.47734,5.255 -3.47734,5.255c0,0 -10.2833,-46.08636 -9.80189,-51.37986c0.48143,-5.2935 3.68922,-9.05483 10.90298,-9.62405c7.59589,-0.8243 8.80873,1.40344 10.06783,9.14193c2.06506,12.69201 -0.29268,47.59009 -0.29268,47.59009z" data-paper-data="{&quot;origPos&quot;:null,&quot;origRot&quot;:0}" fill="#1e4994"/></g></g><g data-paper-data="{&quot;origPos&quot;:null}"><g data-paper-data="{&quot;origPos&quot;:null}" fill="#f4d5c2" stroke="none" stroke-linecap="round"><path d="M449.0856,265.6282c-0.77927,0.51178 -2.2038,0.06494 -2.69381,-0.67307c-0.61946,-0.93391 -0.01739,-2.24502 -0.0099,-3.366c0.01124,-1.69143 -0.30851,-3.40936 -0.05184,-5.09296c0.06475,-0.42359 0.51101,-0.44195 0.80876,-0.37245c1.18126,0.2755 2.53749,0.54855 3.47444,1.35359c0.3204,0.31073 -0.37478,0.87998 -0.44247,1.3376c-0.19203,1.29461 -0.26553,2.57924 -0.44883,3.90241c-0.13657,0.9799 0.20126,2.33624 -0.63634,2.91085z" data-paper-data="{&quot;origPos&quot;:null}" stroke-width="0.18506"/><path d="M447.6258,270.00791c-0.5759,0.01114 -1.04972,-0.73911 -1.23369,-1.36784c-0.29991,-1.02535 -0.15161,-2.19637 -0.19728,-3.2962c-0.01157,-0.27745 -0.09534,-0.54765 0.07255,-0.59537c0.59519,-0.16919 1.21397,0.12805 1.82322,0.13356c0.46522,0.00182 0.9622,-0.20867 1.40843,-0.03459c0.15202,0.0432 0.05197,0.28505 0.04348,0.56189c-0.03361,1.09025 0.22287,2.2453 -0.1764,3.27303c-0.28457,0.73041 -1.06715,1.30997 -1.7403,1.32552z" data-paper-data="{&quot;origPos&quot;:null}" stroke-width="0.20528"/></g><g><g data-paper-data="{&quot;origPos&quot;:null}" stroke-width="0" stroke-linecap="round"><path d="M448.93602,260.36448c-0.61086,-0.19366 -1.23481,-0.68016 -1.79557,-1.38303c-0.34406,-0.44016 -0.87689,-0.50087 -0.84309,-1.68259c0.13526,-4.72653 0.362,-10.0584 1.57628,-13.75735c0.66186,-2.01299 2.16501,-1.305 3.27114,-1.52402c1.40991,0.00356 2.94777,-0.46171 4.19347,0.89402c1.14,1.14373 1.81237,4.02426 2.49289,6.19911c0.70435,2.26035 1.48533,4.4742 2.03525,6.91264c0.44023,1.95253 1.83705,5.5066 1.03812,6.03771c-2.21963,1.43598 -4.81233,-1.64476 -7.14394,-2.05909c-0.64734,-0.11515 -1.23096,0.50883 -1.8777,0.56887c-0.9712,0.08891 -1.93488,0.11411 -2.94687,-0.20625z" data-paper-data="{&quot;origPos&quot;:null}" fill="#f7dac9" stroke="none"/><path d="M446.47127,254.57465c0,0 0.35653,-0.29678 0.53064,-0.46198c0.11244,-0.10664 0.21448,-0.25785 0.32941,-0.35379c0.05037,-0.04229 0.09403,-0.05039 0.16307,-0.05812c0.2761,-0.03119 0.83238,-0.05442 0.83238,-0.05442" data-paper-data="{&quot;origPos&quot;:null}" fill="none" stroke="#dbb9a5"/><path d="M451.22038,258.58486c0,0 0.00489,-0.00396 0.02084,-0.00137c0.06347,0.01011 0.12793,-0.00609 0.19077,0.035c0.11483,0.07536 0.22736,0.18766 0.33641,0.3104c0.10428,0.11722 0.20005,0.27771 0.30192,0.40754c0.07502,0.09578 0.22896,0.26991 0.22896,0.26991" data-paper-data="{&quot;origPos&quot;:null}" fill="none" stroke="#dbb9a5"/><path d="M453.26075,255.84988c0,0 -0.57509,0.15127 -0.89632,0.0965c-0.55454,-0.09486 -1.12357,-0.22007 -1.67186,-0.55546c-0.26642,-0.15752 -0.73553,-0.90152 -0.73553,-0.90152" data-paper-data="{&quot;origPos&quot;:null}" fill="none" stroke="#dbb9a5"/></g><path d="M449.25176,253.99414c0.12702,-0.24388 0.3709,-0.11686 0.3709,-0.11686l0.2946,0.3172c0,0.17251 0.19517,0.29872 0.3431,0.38747c1.27709,0.78353 1.26234,1.09735 2.75485,1.09735c0,0 0.27496,0 0.27496,0.27496c0,0.27496 -0.27496,0.27496 -0.27496,0.27496c-1.52865,0 -1.7523,-0.42868 -3.0378,-1.17571c-0.36879,-0.22127 -0.60273,-0.36804 -0.60994,-0.8365l0.00112,0.14799c0,0 -0.24388,-0.12701 -0.11686,-0.37089z" data-paper-data="{&quot;origPos&quot;:null}" fill="#f3d5c2" stroke="none" stroke-width="0.5" stroke-linecap="butt"/><path d="M446.65005,254.3935l0.0124,0.02759c0.23653,-0.94608 0.74759,-0.86821 1.5866,-0.86821c0,0 0.27496,0 0.27496,0.27496c0,0.27496 -0.27496,0.27496 -0.27496,0.27496c-0.38194,0 -0.96044,0.08111 -1.05308,0.45165l-0.28089,0.32089c0,0 -0.24093,0.13251 -0.37344,-0.10842c-0.13252,-0.24093 0.10842,-0.37344 0.10842,-0.37344z" data-paper-data="{&quot;origPos&quot;:null}" fill="#f3d5c2" stroke="none" stroke-width="0.5" stroke-linecap="butt"/><path d="M452.29296,260.35904c-0.22526,0.15768 -0.40362,-0.1023 -0.40362,-0.1023l-0.07332,-0.14665c-0.25579,-0.5116 -0.27718,-1.16784 -0.70728,-1.16784c0,0 -0.27496,0 -0.27496,-0.27496c0,-0.27496 0.27496,-0.27496 0.27496,-0.27496c0.84218,0 0.89586,0.86527 1.19916,1.47184l0.07332,0.14665c0,0 0.13701,0.19055 -0.08825,0.34823z" data-paper-data="{&quot;origPos&quot;:null}" fill="#f3d5c2" stroke="none" stroke-width="0.5" stroke-linecap="butt"/></g><g data-paper-data="{&quot;origPos&quot;:null}" stroke="none"><g data-paper-data="{&quot;origPos&quot;:null}" stroke-linecap="round"><path d="M449.02035,277.66547c0.04408,-1.23289 0.87227,-2.32787 1.40924,-3.44105c0.21662,-0.44913 0.35776,-1.16531 0.85396,-1.29214c0.47953,-0.12243 0.85297,0.56468 1.33505,0.74888c0.58241,0.23686 1.58639,-0.09373 1.83667,0.50531c0.28615,0.68679 -0.48896,1.41139 -0.77234,2.06828c-0.43163,1.00102 -0.65294,2.17057 -1.40998,2.95024c-0.4805,0.49466 -1.352,0.92809 -1.97286,0.61204c-0.72467,-0.37173 -1.30936,-1.32376 -1.27976,-2.15157z" data-paper-data="{&quot;origPos&quot;:null}" fill="#f7dac9" stroke-width="0.22643"/><path d="M451.53913,279.06978c0.29168,-0.65499 0.62759,-1.27064 1.00239,-1.85946c0.17491,-0.27455 0.43994,-0.50161 0.68019,-0.64034c0.10783,-0.06516 0.27928,-0.08397 0.23171,0.03528c-0.09309,0.47705 -0.351,0.96079 -0.57102,1.4084c-0.28277,0.54783 -0.52162,1.16706 -0.89878,1.6184c-0.2816,0.3371 -0.81615,0.68172 -0.95721,0.51156c-0.14001,-0.16665 0.29608,-0.74463 0.51273,-1.07384z" data-paper-data="{&quot;origPos&quot;:null}" fill="#f6eee9" stroke-width="0.25713"/></g><path d="M451.2239,271.51475c-0.78525,-2.10806 -0.88571,-4.40426 -1.4513,-6.64464c-0.39198,-1.5524 -1.14045,-3.01226 -1.4042,-4.60219c-0.08578,-0.37496 -0.03101,-0.95399 0.42096,-0.92572c1.79053,0.11645 3.89753,0.22828 5.24194,1.39835c0.8565,0.74567 0.19258,2.2908 0.35314,3.39991c0.31399,2.16384 0.94934,4.31971 0.94756,6.50061c0.0003,0.55551 -0.70288,0.0941 -1.03844,0.19122c-0.71649,0.21516 -1.42233,0.32253 -2.12342,0.50889c-0.31945,0.08709 -0.74264,0.73453 -0.94623,0.17357z" data-paper-data="{&quot;origPos&quot;:null}" fill="#f7dac9" stroke-width="0.22697" stroke-linecap="round"/><path d="M450.81462,272.5004c0.13728,-0.81822 0.19484,-1.66734 0.69836,-2.2622c0.30606,-0.35789 0.88999,-0.22164 1.34546,-0.14781c0.79939,0.10565 1.7685,0.11123 2.35573,0.67698c0.33913,0.33006 0.0381,0.9479 -0.08796,1.41778c-0.24918,0.90814 -0.33524,2.12355 -1.14391,2.57752c-0.90227,0.50477 -2.27697,0.47039 -3.1481,-0.13412c-0.56703,-0.42274 -0.13591,-1.43226 -0.01957,-2.12816z" data-paper-data="{&quot;origPos&quot;:null}" fill="#f7dac9" stroke-width="0.22693" stroke-linecap="round"/><path d="M453.14257,274.47934c-0.02283,0.27401 -0.29685,0.25118 -0.29685,0.25118l-0.26382,-0.00726c-0.50717,-0.12679 -0.94887,-0.13844 -1.47313,-0.13844c-0.03475,0 -0.06799,-0.00644 -0.09861,-0.0182c-0.07888,-0.0268 -0.17636,-0.09305 -0.17636,-0.25676c0,-0.16371 0.09749,-0.22996 0.17636,-0.25675c0.03061,-0.01176 0.06386,-0.01821 0.09861,-0.01821h0.36663v0.00368c0.41928,0.00993 0.81195,0.04419 1.23988,0.15118l0.17613,-0.00726c0,0 0.27401,0.02283 0.25118,0.29684z" data-paper-data="{&quot;origPos&quot;:null}" fill="#f3d5c2" stroke-width="0.5" stroke-linecap="butt"/><path d="M452.53888,266.87953c0.09789,0.25695 -0.15908,0.35484 -0.15908,0.35484l-0.25116,0.08312c-0.47713,0.11928 -0.81806,0.2261 -1.24506,0.48229c0,0 -0.23579,0.14147 -0.37725,-0.09431c-0.14148,-0.23579 0.09431,-0.37725 0.09431,-0.37725c0.46448,-0.27869 0.87293,-0.41382 1.39462,-0.54425l0.18877,-0.06352c0,0 0.25695,-0.09789 0.35484,0.15906z" data-paper-data="{&quot;origPos&quot;:null}" fill="#f3d5c2" stroke-width="0.5" stroke-linecap="butt"/></g><g data-paper-data="{&quot;origPos&quot;:null}" stroke="none"><g data-paper-data="{&quot;origPos&quot;:null}" stroke-linecap="round"><path d="M452.69387,278.26446c-0.00017,-1.31508 0.78966,-2.49299 1.28742,-3.68674c0.20078,-0.48163 0.31636,-1.24695 0.80863,-1.38839c0.4757,-0.13663 0.87441,0.5913 1.36372,0.78163c0.59171,0.2451 1.5851,-0.11992 1.85728,0.51558c0.31113,0.7288 -0.43884,1.51102 -0.69911,2.21506c-0.3961,1.07272 -0.57577,2.32255 -1.3057,3.16334c-0.46336,0.53346 -1.32049,1.00667 -1.95353,0.67745c-0.73891,-0.38716 -1.35864,-1.39489 -1.35871,-2.27793z" data-paper-data="{&quot;origPos&quot;:null}" fill="#f7dac9" stroke-width="0.23422"/><path d="M454.8556,279.31191c0.10246,-0.60429 0.48093,-1.23417 0.78762,-1.80439c0.15461,-0.29014 0.36608,-0.66886 0.54246,-0.69064c0.29633,-0.04071 0.47964,0.19665 0.58552,0.54338c0.05327,0.28553 -0.09545,0.71156 -0.21273,1.04581c-0.18782,0.66002 -0.32051,1.38288 -0.6952,1.91244c-0.29786,0.41578 -0.73051,0.74528 -0.94002,0.55746c-0.29218,-0.25251 -0.16868,-0.99169 -0.06767,-1.56406z" data-paper-data="{&quot;origPos&quot;:null}" fill="#f6eee9" stroke-width="0.26632"/></g><path d="M455.50212,271.82684c-0.31673,0.09688 -0.71725,0.79244 -0.9412,0.1969c-0.86214,-2.23771 -1.04518,-4.68476 -1.69212,-7.06635c-0.44832,-1.65025 -1.25022,-3.19744 -1.5715,-4.88932c-0.09933,-0.39868 -0.06523,-1.0169 0.3883,-0.99241c1.79703,0.10157 3.91081,0.19426 5.29909,1.4249c0.88446,0.78421 0.2752,2.44011 0.47579,3.62062c0.3922,2.30317 1.10586,4.59388 1.18257,6.91927c0.02027,0.59232 -0.70048,0.10925 -1.03298,0.21703c-0.70977,0.23842 -1.41259,0.3618 -2.10795,0.56936z" data-paper-data="{&quot;origPos&quot;:null}" fill="#f7dac9" stroke-width="0.23556" stroke-linecap="round"/><path d="M454.37579,272.76102c0.10807,-0.87416 0.1351,-1.78036 0.61792,-2.42087c0.29356,-0.38549 0.88314,-0.24755 1.34188,-0.1746c0.80423,0.10257 1.77481,0.09639 2.38313,0.69213c0.35142,0.34762 0.07222,1.01018 -0.037,1.51277c-0.21687,0.9714 -0.25938,2.26854 -1.05278,2.76275c-0.8854,0.54955 -2.26308,0.53021 -3.15714,-0.10333c-0.58299,-0.44361 -0.18753,-1.52544 -0.096,-2.26883z" data-paper-data="{&quot;origPos&quot;:null}" fill="#f7dac9" stroke-width="0.23547" stroke-linecap="round"/><path d="M456.36823,274.99857c-0.02878,0.27345 -0.30224,0.24466 -0.30224,0.24466l-0.18455,-0.00671c-0.37465,-0.09365 -0.79292,-0.13843 -1.17983,-0.13843c0,0 -0.27496,0 -0.27496,-0.27496c0,-0.27496 0.27496,-0.27496 0.27496,-0.27496c0.42388,0 0.90212,0.05208 1.31321,0.15485l0.10874,-0.0067c0,0 0.27346,0.02878 0.24467,0.30224z" data-paper-data="{&quot;origPos&quot;:null}" fill="#f3d5c2" stroke-width="0.5" stroke-linecap="butt"/><path d="M457.34134,269.15879h-0.14665c-0.48383,-0.04968 -0.97116,0.29329 -1.4665,0.29329c0,0 -0.27496,0 -0.27496,-0.27496c0,-0.27496 0.27496,-0.27496 0.27496,-0.27496c0.50709,0 0.94816,-0.27334 1.4665,-0.29329h0.14665c0,0 0.22134,-0.04476 0.27052,0.22578c0.04919,0.27052 -0.27052,0.32415 -0.27052,0.32415z" data-paper-data="{&quot;origPos&quot;:null}" fill="#f3d5c2" stroke-width="0.5" stroke-linecap="butt"/></g><g stroke="none"><g data-paper-data="{&quot;origPos&quot;:null}" stroke-linecap="round"><path d="M456.04538,276.72748c0.03681,-1.13857 0.85701,-2.17135 1.38646,-3.21309c0.21365,-0.42025 0.35028,-1.08475 0.84474,-1.21529c0.47788,-0.12609 0.85468,0.49753 1.33685,0.65414c0.58269,0.2025 1.58274,-0.12992 1.83599,0.41584c0.28959,0.62568 -0.47967,1.31527 -0.75875,1.92911c-0.42489,0.93522 -0.63905,2.02023 -1.39002,2.76022c-0.47664,0.46953 -1.34402,0.89328 -1.96549,0.61878c-0.7254,-0.32307 -1.31448,-1.18528 -1.28977,-1.9497z" data-paper-data="{&quot;origPos&quot;:null}" fill="#f7dac9" stroke-width="0.21715"/><path d="M457.46167,277.69776c0.13857,-0.53526 0.5817,-1.03738 0.91602,-1.53391c0.18026,-0.25503 0.36866,-0.55694 0.61497,-0.70191c0.24485,-0.1426 0.48189,-0.07411 0.66341,0.00107c0.18861,0.07821 0.37311,0.22432 0.40285,0.48403c0.03133,0.28234 -0.115,0.61759 -0.24134,0.90882c-0.20569,0.57459 -0.32519,1.25981 -0.74649,1.66718c-0.45003,0.43504 -1.0883,0.63419 -1.45777,0.47011c-0.28739,-0.17264 -0.28194,-0.79221 -0.15165,-1.29538z" data-paper-data="{&quot;origPos&quot;:null}" fill="#f6eee9" stroke-width="0.24591"/></g><path d="M458.22513,270.942c-0.27141,-0.65571 -0.38274,-1.04157 -0.55212,-1.73072c-0.41533,-1.69008 -0.46341,-2.68388 -0.93504,-4.35912c-0.4003,-1.42132 -1.1558,-2.74752 -1.42837,-4.20694c-0.08776,-0.34354 -0.03642,-0.87922 0.41484,-0.86553c1.78768,0.0583 3.89122,0.10369 5.23981,1.14617c0.85924,0.66434 0.20559,2.10801 0.37226,3.12678c0.32593,1.98743 0.97264,3.95883 0.98358,5.97075c0.00357,0.51249 -0.70093,0.10609 -1.03533,0.20491c-0.7138,0.21813 -1.41763,0.33649 -2.11635,0.52771c-0.31828,0.08909 -0.73684,0.69786 -0.9433,0.18601z" data-paper-data="{&quot;origPos&quot;:null}" fill="#f7dac9" stroke-width="0.21719" stroke-linecap="round"/><path d="M457.85986,271.89861c0.13231,-0.7586 0.18471,-1.54352 0.68376,-2.10606c0.30341,-0.3386 0.887,-0.22885 1.34205,-0.17327c0.79842,0.07553 1.76571,0.05415 2.35506,0.5599c0.34036,0.29523 0.04353,0.87337 -0.07955,1.3103c-0.24341,0.84461 -0.32217,1.9682 -1.1266,2.40919c-0.8977,0.49035 -2.26983,0.4963 -3.14278,-0.0374c-0.56845,-0.37441 -0.14404,-1.31751 -0.03195,-1.96263z" data-paper-data="{&quot;origPos&quot;:null}" fill="#f7dac9" stroke-width="0.21719" stroke-linecap="round"/><path d="M459.28471,274.14246l-0.25032,-0.07912c-0.27551,-0.06887 -0.52778,-0.06511 -0.8132,-0.06511c0,0 -0.27496,0 -0.27496,-0.27496c0,-0.27496 0.27496,-0.27496 0.27496,-0.27496c0.32995,0 0.62401,0.00089 0.94658,0.08153l0.18963,0.06753c0,0 0.27255,0.03635 0.23621,0.3089c-0.03634,0.27255 -0.3089,0.23621 -0.3089,0.23621z" data-paper-data="{&quot;origPos&quot;:null}" fill="#f3d5c2" stroke-width="0.5" stroke-linecap="butt"/><path d="M460.27704,264.61639c0.16127,0.2227 -0.06144,0.38398 -0.06144,0.38398l-0.22891,0.07954c-0.65387,0.44008 -1.27666,0.94375 -1.88274,1.44881c0,0 -0.21124,0.17603 -0.38727,-0.0352c-0.17602,-0.21124 0.0352,-0.38727 0.0352,-0.38727c0.62031,-0.51692 1.25843,-1.03208 1.92775,-1.48256l0.21343,-0.06872c0,0 0.2227,-0.16126 0.38398,0.06144z" data-paper-data="{&quot;origPos&quot;:null}" fill="#f3d5c2" stroke-width="0.5" stroke-linecap="butt"/></g><g data-paper-data="{&quot;origPos&quot;:null}" stroke="none"><path d="M453.59035,260.88587c-0.45707,-0.01901 -1.08296,0.0881 -1.2806,-0.28766c-0.3107,-0.46895 0.09864,-1.07879 0.12788,-1.64489c0.0566,-0.97392 -0.09332,-2.04904 0.08452,-2.92831c0.29575,-1.48164 0.91216,-2.9542 1.53925,-4.30227c0.17435,-0.37556 0.58479,-1.22889 0.91405,-0.8792c1.31716,1.39895 2.61122,3.03158 2.97768,4.87197c0.29981,1.50912 -0.33247,3.10166 -0.98245,4.50114c-0.19254,0.41274 -0.82654,0.4937 -1.28616,0.61368c-0.68954,0.10747 -1.39893,0.08506 -2.0942,0.05555z" data-paper-data="{&quot;origPos&quot;:null}" fill="#f4d5c2" stroke-width="0.20673" stroke-linecap="round"/><g><path d="M452.68136,266.235c-0.4481,-1.04417 -0.4282,-2.23665 -0.49584,-3.3686c-0.02375,-0.83621 -0.30147,-1.8293 0.2228,-2.50857c0.3972,-0.51452 1.33178,-0.24359 2.00588,-0.27355c0.81889,-0.01695 2.30228,-0.5929 2.44863,0.16631c0.38378,1.99239 -0.52026,4.06285 -1.32359,5.93312c-0.22748,0.53866 -0.87825,0.91204 -1.46575,0.92819c-0.5589,0.01544 -1.18343,-0.38904 -1.39211,-0.87693z" data-paper-data="{&quot;origPos&quot;:null}" fill="#f4d5c2" stroke-width="0.20673" stroke-linecap="round"/><path d="M452.9861,266.69151c-0.21477,-0.4923 -0.18999,-1.0736 -0.08122,-1.59525c0.1068,-0.51029 0.29249,-1.03864 0.65439,-1.42091c0.2704,-0.25102 0.71916,-0.30993 1.08737,-0.32074c0.26092,-0.00809 0.60377,0.06521 0.74075,0.28143c0.21708,0.41979 0.23432,0.93232 0.19591,1.40333c-0.05432,0.6822 -0.14764,1.41149 -0.5314,1.99097c-0.2015,0.30406 -0.68874,0.44215 -1.06467,0.38918c-0.4083,-0.05785 -0.84121,-0.36077 -1.00111,-0.728z" data-paper-data="{&quot;origPos&quot;:null}" fill="#f6eee9" stroke-width="0.29492" stroke-linecap="butt"/></g></g></g><g data-paper-data="{&quot;origPos&quot;:null,&quot;origRot&quot;:0}" stroke="none" stroke-width="0" stroke-linecap="butt"><path d="M430.5224,153.72528c1.13869,-4.40174 0.89605,-13.6233 7.55758,-11.54653c6.31773,1.9696 14.40119,12.39374 17.36908,29.21608c0.867,4.91424 0.92564,16.57566 1.77239,21.49371c1.53441,8.9121 -14.97247,15.081 -18.3695,6.74282c-2.79403,-6.85806 -2.92109,-6.05937 -6.50357,-26.94879c-1.50454,-8.77299 -4.05231,-10.3513 -1.82601,-18.95729z" data-paper-data="{&quot;origPos&quot;:null,&quot;origRot&quot;:0}" fill="#2152a6"/><path d="M440.0124,142.53405c5.91957,3.32864 12.67671,13.26093 15.33376,28.32131c0.867,4.91424 0.92564,16.57566 1.77239,21.49371c0.87781,5.09835 -4.1487,9.29896 -9.24739,10.39938c-2.88916,-14.77025 -5.74296,-29.54742 -8.35587,-44.37241c-0.75621,-4.29055 0.08503,-10.47269 0.49713,-15.842z" data-paper-data="{&quot;origPos&quot;:null,&quot;origRot&quot;:0}" fill="#000000"/></g></g><g data-paper-data="{&quot;origPos&quot;:null}" stroke-linecap="butt"><g data-paper-data="{&quot;origPos&quot;:null}" stroke="none"><path d="M392.62948,134.47729c0.86261,-5.05965 1.60464,-6.27883 3.39236,-7.18191c1.7877,-0.90307 7.98375,-1.98302 14.8681,-2.04241c6.88435,-0.05939 4.92541,-2.28908 11.55726,0.48034c6.63184,2.76941 5.91774,3.6174 6.587,7.09658c0.66924,3.47917 7.93113,11.85725 4.25121,13.046c-3.64354,1.177 -27.29563,4.93333 -44.58406,0.29148c0.2726,-2.29981 0.43297,-4.53615 0.25209,-6.77515c0.01281,-0.03393 0.02548,-0.06788 0.03801,-0.10187l0.23581,-0.23581c0,0 0.40082,-0.72917 0.69933,-1.7546c1.4328,-0.82876 2.51972,-1.74841 2.70287,-2.82265z" data-paper-data="{&quot;origPos&quot;:null}" fill="#000000" stroke-width="0"/><g data-paper-data="{&quot;origPos&quot;:null}"><path d="M391.75,147.1913c-1.22708,-0.40296 -2.22898,-0.78374 -3.03423,-1.14614c0.20643,-1.76614 0.34415,-3.49545 0.30914,-5.21801c2.69155,-1.44395 6.20336,-2.99149 6.52035,-5.17865c0.15555,-1.07328 0.24555,-1.6784 0.50157,-2.73224c0.4521,-1.86088 1.0967,-2.87591 2.78394,-3.78172c1.76823,-0.94929 6.57143,-1.92005 12.52003,-1.97137c5.94859,-0.05133 5.74949,-1.73301 11.33751,0.76496c5.58803,2.49799 3.48141,2.63785 4.05934,6.11783c0.57791,3.47997 7.21974,11.71406 3.66001,13.05109c-3.55974,1.33707 -23.89718,4.94149 -38.65766,0.09427z" data-paper-data="{&quot;origPos&quot;:null}" fill="#09162e" stroke-width="0"/><g data-paper-data="{&quot;origPos&quot;:null}" fill="none" stroke-width="1" font-family="sans-serif" font-weight="normal" font-size="12" text-anchor="start"/></g></g><path d="M423.06875,137.80462c0,2.83701 1.00043,4.48394 1.95081,7.12718c0.43664,1.2144 1.96622,3.35851 1.96622,3.35851c0,0 -12.12854,5.14185 -16.40584,5.14185c-3.68235,0 -14.23385,-5.15033 -14.23385,-5.15033c0,0 2.09858,-2.53441 2.84499,-4.56899c0.63452,-1.72963 0.93211,-4.19983 0.93211,-6.06127c0,-1.98214 -2.04288,-13.49657 -2.04288,-13.49657l27.40097,-0.77952c0,0 -2.41254,8.89656 -2.41254,14.42917z" data-paper-data="{&quot;origPos&quot;:null}" fill="url(#color-7)" stroke="none" stroke-width="0"/><g data-paper-data="{&quot;origPos&quot;:null}" fill="#b2bbc1" stroke="none" stroke-width="0"><path d="M379.56384,219.30865c-0.26897,-16.15692 63.30272,-18.8176 62.82681,-0.41256c-0.54226,20.97044 0.40817,24.35205 2.42945,38.1512c0.92077,6.28607 -20.25613,17.82462 -33.17591,18.20616c-13.52374,0.39939 -35.42776,-7.70423 -33.54307,-19.06764c2.2574,-13.61057 1.46274,-36.87715 1.46274,-36.87715z" data-paper-data="{&quot;origPos&quot;:null}"/><path d="M380.50631,214.36331c0.66544,-15.62347 -4.42393,-45.5007 -6.0302,-58.1919c-0.53542,-4.2304 2.45715,-7.47071 2.45715,-7.47071c0,0 6.82599,-6.92491 10.76493,-7.45717c4.69845,-0.63489 10.18551,-0.86165 10.18551,-0.86165c0,0 1.82815,4.0431 4.4062,6.16158c2.84583,2.33853 9.85844,4.52571 9.85844,4.52571c0,0 6.54049,-2.4833 9.67078,-5.48069c2.38054,-2.27948 2.29614,-7.30735 2.29614,-7.30735c0,0 7.78767,2.5207 12.55783,2.47954c2.77563,-0.02395 4.94952,2.60288 8.07116,5.90695c3.12166,3.30409 3.86219,5.95201 3.61483,8.41796c-0.74209,7.3978 -7.64685,42.36799 -5.01623,59.99038c2.24481,15.03787 -63.6434,18.2317 -62.83652,-0.71267z" data-paper-data="{&quot;origPos&quot;:null}"/></g><path d="M445.76898,267.5155c0,6.70927 -20.19847,14.30789 -36.29565,14.30789c-16.09718,0 -32.44611,-6.51877 -32.44611,-13.22805c0,-4.50883 1.61765,-9.7418 1.61765,-9.7418c0,0 20.3064,3.78481 32.77555,3.74338c13.08073,-0.04346 32.69283,-3.9609 32.69283,-3.9609c0,0 1.65572,2.17021 1.65572,8.87949z" data-paper-data="{&quot;origPos&quot;:null}" fill="#000000" stroke="none" stroke-width="0"/><g data-paper-data="{&quot;origPos&quot;:null}"><path d="M419.26844,211.2931c-0.59415,-18.1635 -0.84848,-49.75666 -0.84848,-49.75666c-0.0783,-9.07409 6.97771,-12.05804 6.58798,-21.1241c0.41764,-1.05008 -1.29471,-2.56681 -1.40724,-4.02104c0.36689,0.1097 0.73692,0.22073 1.10818,0.33257c11.12177,3.35026 23.73103,5.71609 23.83143,17.35269c0.1337,15.49636 -4.69307,27.91953 -4.50063,43.41517c0.32959,26.53878 1.77129,60.98874 1.77129,60.98874c0,0 -6.3434,4.38756 -10.71799,5.36431c-5.15752,1.15156 -12.27375,6.11584 -13.376,-0.47413c0,0 -1.75074,-30.74502 -2.44854,-52.07751z" data-paper-data="{&quot;origPos&quot;:null}" fill="#255dbc" stroke="#000000" stroke-width="0"/><path d="M423.42653,187.51623l-4.7815,10.26933c0,0 0.73431,-11.62406 -1.08686,-19.20306c-1.31061,-5.45428 -1.00786,-8.95205 -0.58373,-14.54551c0.22637,-2.98542 3.1463,-7.67191 3.1463,-7.67191l28.59224,-0.63548c0,0 0.13867,6.50616 -0.24186,10.67447c-0.53456,5.85549 -2.10299,15.01031 -2.10299,15.01031z" data-paper-data="{&quot;origPos&quot;:null}" fill="#09162e" stroke="none" stroke-width="0"/><path d="M419.20326,157.35648c0,0 0.51057,-2.79879 2.06256,-5.53362c2.18686,-3.8536 3.9324,-6.25049 3.74209,-10.67728c0.47605,-1.19695 -1.55542,-3.00019 -1.73999,-4.62611c2.73618,0.73333 7.77586,1.57506 10.1056,2.34516c3.02548,1.00008 6.97224,3.19781 6.97224,3.19781l-0.97465,14.51674z" data-paper-data="{&quot;origPos&quot;:null}" fill="#09162e" stroke="none" stroke-width="0"/><path d="M441.43677,178.40463c-1.34064,-0.30469 -1.03595,-1.64534 -1.03595,-1.64534l0.74011,-1.12862c0.26474,-1.05893 1.15791,-4.26253 0.96717,-4.70761c-0.48444,-1.13033 -1.57664,-1.80207 -1.37483,-3.20795c0.06267,-0.43659 1.03113,-3.8419 2.23579,-3.72183c0.06309,0.00629 0.11135,0.03332 0.14979,0.07456c0.14412,-0.06078 0.59931,0.13878 0.48892,0.03165l-1.4386,-0.35966c-0.61224,-0.13894 -1.06928,-0.68647 -1.06928,-1.34076c0,-0.45551 0.22152,-0.85929 0.56274,-1.10947l1.4537,-1.09027l0.05848,0.07798c0.15698,-0.0841 0.30608,-0.15672 0.45549,-0.22181l-0.02253,-0.09008l0.33345,-0.08336v-0.32431h1.46648c0.0544,0 0.10807,0.00315 0.16081,0.0093c0.40633,0.03209 0.94816,0.22495 1.1588,0.97854c0.00973,0.03323 0.01824,0.06699 0.02548,0.1012c0.17231,0.76816 -0.2164,1.19503 -0.5608,1.41512c-0.14231,0.09902 -0.30422,0.17183 -0.47875,0.21144l-0.4699,0.11746c0.41072,0.46391 0.71763,0.94852 0.6608,1.22653c-0.46811,2.29013 -2.32109,2.46545 -2.82389,4.15337c-0.03868,0.12986 0.34527,-0.17833 0.40267,-0.0556c0.38858,0.83081 0.94515,1.82698 1.09987,3.1163c0.22468,1.87236 -0.32624,3.67396 -0.77429,5.46617l-0.72639,1.07112c0,0 -0.3047,1.34064 -1.64535,1.03595zM443.38696,164.76506c0.01686,0.03014 0.03592,0.05775 0.05784,0.08199c0.07085,0.07826 0.02355,0.02646 -0.05784,-0.08199z" data-paper-data="{&quot;origPos&quot;:null}" fill="#ffffff" stroke="none" stroke-width="0.5"/><path d="M419.74415,156.53313v-0.91656h28.77989l0.32996,0.91656z" data-paper-data="{&quot;origPos&quot;:null}" fill="#ffffff" stroke="none" stroke-width="0"/><path d="M418.09735,161.6819l-1.14494,2.66238l0.30435,-3.02775l2.48442,-5.71601l0.8406,0.36535z" data-paper-data="{&quot;origPos&quot;:null,&quot;origRot&quot;:0}" fill="#ffffff" stroke="none" stroke-width="0"/></g><g data-paper-data="{&quot;origPos&quot;:null,&quot;index&quot;:null}"><path d="M403.66878,211.29314c-0.6978,21.33249 -2.44854,52.07751 -2.44854,52.07751c-1.10225,6.58997 -8.21848,1.62569 -13.376,0.47413c-4.37459,-0.97675 -10.71799,-5.36431 -10.71799,-5.36431c0,0 1.44171,-34.44996 1.77129,-60.98874c0.19245,-15.49564 -4.63433,-27.91881 -4.50063,-43.41517c0.1004,-11.6366 12.70967,-14.00243 23.83143,-17.35269c0.37127,-0.11183 0.74129,-0.22287 1.10818,-0.33257c-0.11252,1.45424 -1.82488,2.97096 -1.40724,4.02104c-0.38974,9.06606 6.66628,12.05002 6.58798,21.1241c0,0 -0.25433,31.59317 -0.84848,49.75666z" data-paper-data="{&quot;origPos&quot;:null}" fill="#255dbc" stroke="#000000" stroke-width="0"/><path d="M376.56904,181.41438c0,0 -1.56843,-9.15481 -2.10299,-15.01031c-0.38053,-4.16831 -0.24186,-10.67447 -0.24186,-10.67447l28.59224,0.63548c0,0 2.91993,4.68649 3.1463,7.67191c0.42413,5.59347 0.72688,9.09123 -0.58373,14.54551c-1.82116,7.57899 -1.08686,19.20306 -1.08686,19.20306l-4.7815,-10.26933z" data-paper-data="{&quot;origPos&quot;:null}" fill="#09162e" stroke="none" stroke-width="0"/><path d="M383.5661,156.57918l-0.97465,-14.51674c0,0 3.94676,-2.19773 6.97224,-3.19781c2.32974,-0.77009 7.36943,-1.61184 10.1056,-2.34516c-0.18457,1.62593 -2.21604,3.42916 -1.73999,4.62611c-0.19031,4.42678 1.55523,6.82368 3.74209,10.67728c1.55199,2.73483 2.06256,5.53362 2.06256,5.53362z" data-paper-data="{&quot;origPos&quot;:null}" fill="#09162e" stroke="none" stroke-width="0"/><path d="M379.85507,177.36868l-0.72639,-1.07112c-0.44804,-1.79219 -0.99897,-3.59379 -0.77429,-5.46617c0.15472,-1.28932 0.71128,-2.28549 1.09987,-3.1163c0.05741,-0.12273 0.44137,0.18546 0.40268,0.0556c-0.50279,-1.6879 -2.35577,-1.86322 -2.82389,-4.15335c-0.05683,-0.27802 0.25007,-0.7626 0.6608,-1.22653l-0.4699,-0.11746c-0.17452,-0.03961 -0.33644,-0.11242 -0.47875,-0.21144c-0.3444,-0.2201 -0.7331,-0.64697 -0.56079,-1.41512c0.00724,-0.03421 0.01574,-0.06797 0.02546,-0.1012c0.21066,-0.75359 0.75249,-0.94645 1.15881,-0.97854c0.05276,-0.00615 0.10641,-0.0093 0.16081,-0.0093h1.4665v0.32431l0.33345,0.08336l-0.02253,0.09008c0.14942,0.06509 0.2985,0.13771 0.45549,0.22181l0.05849,-0.07798l1.4537,1.09027c0.3412,0.25017 0.56273,0.65395 0.56273,1.10947c0,0.65429 -0.45705,1.20181 -1.06928,1.34076l-1.43858,0.35966c-0.11039,0.10713 0.34481,-0.09244 0.48892,-0.03165c0.03844,-0.04124 0.0867,-0.06827 0.14979,-0.07456c1.20467,-0.12009 2.17312,3.28523 2.23579,3.72183c0.2018,1.40589 -0.8904,2.07761 -1.37483,3.20795c-0.19075,0.44508 0.70243,3.64868 0.96717,4.70761l0.74011,1.12862c0,0 0.3047,1.34064 -1.03595,1.64534c-1.34065,0.30469 -1.64535,-1.03595 -1.64535,-1.03595zM379.49241,164.84705c0.02193,-0.02422 0.04098,-0.05184 0.05784,-0.08199c-0.08138,0.10845 -0.1287,0.16025 -0.05784,0.08199z" data-paper-data="{&quot;origPos&quot;:null}" fill="#ffffff" stroke="none" stroke-width="0.5"/><path d="M374.08324,156.53313l0.32996,-0.91656h28.77989v0.91656z" data-paper-data="{&quot;origPos&quot;:null}" fill="#ffffff" stroke="none" stroke-width="0"/><path d="M402.35548,155.96588l0.8406,-0.36535l2.4844,5.71601l0.30435,3.02775l-1.14494,-2.66238z" data-paper-data="{&quot;origPos&quot;:null,&quot;origRot&quot;:0}" fill="#ffffff" stroke="none" stroke-width="0"/></g></g><g data-paper-data="{&quot;origPos&quot;:null}" stroke="none" stroke-width="0" stroke-linecap="butt"><path d="M391.10287,111.33979c0.80066,3.56806 1.93932,6.84762 -1.14293,8.08386c-1.70111,0.68228 -5.06014,-1.91299 -5.93164,-5.7967c-0.8715,-3.88371 0.39055,-5.17931 2.79501,-5.86161c2.40446,-0.68228 3.40806,-0.30926 4.27955,3.57445z" data-paper-data="{&quot;origRot&quot;:0,&quot;origPos&quot;:null}" fill="#f6d8c8"/><path d="M436.72954,108.14633c2.40446,0.68228 3.6665,1.97788 2.79502,5.86159c-0.87149,3.88371 -4.23053,6.47899 -5.93164,5.7967c-3.08224,-1.23623 -1.94358,-4.51581 -1.14292,-8.08386c0.87149,-3.88371 1.87508,-4.25673 4.27955,-3.57444z" data-paper-data="{&quot;origRot&quot;:0,&quot;origPos&quot;:null,&quot;index&quot;:null}" fill="#f6d8c8"/><path d="M384.01791,97.25066c-0.2015,-17.18011 10.33151,-28.06805 28.78172,-27.9592c21.65577,-0.02153 28.1818,12.1709 27.61571,28.10233c-0.09255,11.11835 -4.9579,24.20294 -9.73141,30.00038c-4.58886,4.62047 -15.57753,10.94237 -19.02814,10.90728c-3.06356,-0.03114 -14.49458,-5.85694 -18.35993,-11.01466c-4.22545,-5.63825 -8.84895,-16.27655 -9.27795,-30.03609z" data-paper-data="{&quot;origPos&quot;:null}" fill="url(#color-8)"/><g data-paper-data="{&quot;origPos&quot;:null}"><path d="M413.27949,118.75682l0.31001,-7.78466l0.5204,7.58295c0,0 -0.29092,0.68423 -0.47329,0.85404c-0.03415,0.01662 -0.35711,-0.65233 -0.35711,-0.65233z" data-paper-data="{&quot;origPos&quot;:null}" fill="url(#color-9)"/><path d="M408.01862,118.28549c-0.02564,-0.59606 0.42383,-1.1625 1.12591,-1.64619c0.10951,-0.07545 0.23282,-0.08316 0.36039,-0.04233c-0.2545,0.50688 -0.3961,1.06915 -0.3961,1.66106c0,0.36968 0.05524,0.72778 0.1587,1.06806c-0.67495,-0.02427 -1.22452,-0.47361 -1.2489,-1.04057z" data-paper-data="{&quot;origPos&quot;:null}" fill="#f9ddce"/><path d="M413.35018,118.64719l0.34157,0.61576c0,0 -1.41424,0.64604 -2.7483,0.64279c-1.35995,-0.00331 -2.73047,-0.82434 -2.19645,-1.15095c0,0 0.19264,0.15152 0.68412,0.15481c0.71542,0.15891 0.77907,0.58839 1.65555,0.56699c0.92319,-0.02254 1.00913,-0.25455 1.58463,-0.63446c0.39446,-0.05107 0.67887,-0.19494 0.67887,-0.19494z" data-paper-data="{&quot;origPos&quot;:null,&quot;index&quot;:null}" fill="#f4d7c8"/><path d="M410.42389,119.29191c0.00705,0.16391 -0.33454,0.30697 -0.76299,0.31954c-0.42844,0.01255 -0.78148,-0.11014 -0.78852,-0.27404c-0.00705,-0.16391 0.33454,-0.30698 0.76299,-0.31954c0.42844,-0.01255 0.78148,0.11014 0.78852,0.27404z" data-paper-data="{&quot;origPos&quot;:null}" fill="url(#color-10)"/><path d="M413.28593,119.24834c0.00705,0.16391 -0.33456,0.30696 -0.76299,0.31954c-0.42844,0.01255 -0.78148,-0.11014 -0.78852,-0.27406c-0.00705,-0.16391 0.33454,-0.30698 0.76299,-0.31954c0.42844,-0.01255 0.78148,0.11014 0.78852,0.27406z" data-paper-data="{&quot;origPos&quot;:null}" fill="url(#color-11)"/><path d="M408.72164,118.55432c0.0029,-0.24655 0.97392,-4.3308 0.90394,-7.32093c-0.01499,-0.64056 -1.21057,-4.74485 -3.12982,-6.29537c-1.56091,-1.261 -8.6122,-0.34615 -8.6122,-0.34615c0,0 -0.65672,-4.98402 13.61206,-5.20389c14.42801,-1.01156 14.00072,5.07559 14.00072,5.07559c0,0 -6.26088,-0.99821 -8.53659,0.91506c-2.45807,2.06657 -2.94,5.14669 -3.09738,5.73054c-0.4284,1.58932 -0.19759,3.50244 -0.33334,5.62201c0.02885,0.47279 1.04062,1.26114 0.42496,2.18141c-0.15567,0.2327 -0.37398,0.22424 -0.62383,0.07108c-0.22822,-0.13989 -0.55174,-0.18421 -0.80333,-0.08143c-0.52241,0.30924 -0.76855,0.7551 -1.41703,0.78042c-0.64849,0.02532 -0.72074,-0.43409 -1.26345,-0.67576c0,0 -0.47379,-0.14189 -0.71649,-0.09815c-0.31513,0.05679 -0.37013,0.32713 -0.3941,0.25834z" data-paper-data="{&quot;origPos&quot;:null}" fill="url(#color-12)"/><path d="M414.31369,118.19869c-0.02439,0.56698 -0.25115,1.07418 -0.92611,1.09845c0.10348,-0.34028 -0.1641,-0.75626 -0.1641,-1.12593c0,-0.59191 -0.1416,-1.15417 -0.3961,-1.66106c0.12757,-0.04083 0.25088,-0.03312 0.36039,0.04233c0.70209,0.4837 1.15156,1.05014 1.12592,1.64619z" data-paper-data="{&quot;origPos&quot;:null,&quot;index&quot;:null}" fill="#f9ddce"/></g></g><g data-paper-data="{&quot;origPos&quot;:null}" stroke="none" stroke-width="0" stroke-linecap="butt"><path d="M439.49811,85.50038c2.75627,7.85507 1.48186,14.50889 0.5485,20.53002c-0.31112,2.00704 -1.68282,5.68515 -1.68282,5.68515l-2.58824,1.10124c0,0 -0.7085,-9.50304 -3.09971,-12.68566c-5.24201,-6.97693 -4.72914,-12.05318 -13.68914,-11.75523c-9.68131,0.32194 -23.84867,7.59192 -29.84801,14.88799c-2.14653,2.61049 -1.37189,8.6697 -1.37189,8.6697l-2.87732,-0.85383c0,0 -3.44664,-18.73508 0.1392,-24.46087c2.22034,-7.43168 8.01809,-17.81443 27.48458,-17.65664c18.1284,0.14695 23.24575,5.88217 26.98486,16.53811z" data-paper-data="{&quot;origPos&quot;:null}" fill="#3d3021"/><path d="M438.40328,85.71271c2.59732,7.40209 1.39641,13.67221 0.51687,19.34614c-0.29319,1.89132 -1.58578,5.35729 -1.58578,5.35729c0,0 4.84834,-21.30562 -3.1945,-32.00848c-4.93972,-6.57459 -12.72203,11.76736 -21.16531,12.04813c-9.12302,0.30336 -18.03898,3.36307 -23.69235,10.23838c-2.09877,2.55242 -3.67103,9.12283 -3.67103,9.12283c0,0 -1.91529,-17.6547 1.46376,-23.05028c2.08719,-6.16535 5.82565,-5.97906 5.82565,-5.97906c0,0 5.65435,-9.61365 20.07396,-10.65939c17.08298,0.13849 21.90526,5.54296 25.42872,15.58442z" data-paper-data="{&quot;origPos&quot;:null}" fill="#453725"/><g data-paper-data="{&quot;origPos&quot;:null}"><path d="M391.91587,97.0954l-3.94635,-1.83492l5.6569,0.38641l-1.14112,-1.07562c0,0 3.37053,1.30696 8.28246,0.30144c6.67921,-1.3673 15.97291,-5.6508 20.86687,-6.11413c10.07838,-0.95418 9.96777,7.71927 9.96777,7.71927c0,0 0.60739,2.47268 1.14792,3.43229c0.63224,1.12244 1.44722,1.94682 1.78593,3.18973c0.97417,3.5746 1.388,9.18313 1.388,9.18313l-5.35208,-13.99134c0,0 -1.19797,-3.35983 -1.34219,-3.30177c-0.43264,0.17419 -0.15893,2.78821 -0.15893,2.78821c0,0 -1.22033,-4.67563 -1.56911,-5.06856c-1.11684,-0.152 2.11339,-0.20472 1.01322,0.04033c-2.45885,0.54768 -0.62368,1.53872 -3.11252,1.92803c-7.78251,1.21732 -11.04387,6.5021 -18.92102,6.5021c-12.11961,0 -19.11404,-3.23774 -19.11404,-3.23774z" data-paper-data="{&quot;origPos&quot;:null}" fill="url(#color-13)"/><path d="M389.9966,94.61871l-4.03648,-2.67637l5.78611,0.56362l-1.16719,-1.56886c0,0 3.44753,1.90631 8.47164,0.43968c8.95009,-2.61267 5.32065,-12.56649 25.63002,-15.30839c10.30859,-1.39173 2.88187,9.73633 4.41771,15.73595c0.39932,1.55986 -0.12741,3.68015 -0.12741,3.68015l-0.39405,-2.28822c0,0 -0.48227,-0.80211 -2.5712,-0.23518c-1.795,0.48717 -3.38194,-0.09073 -3.38194,-0.09073c0,0 1.26356,0.15481 3.43047,-0.89475c1.43005,-0.66176 0.09776,-1.24803 -0.05584,-0.85389c-11.39381,2.07817 -11.51876,8.74029 -20.93635,8.74029c-12.39644,0 -18.75337,-4.00803 -18.75337,-4.00803z" data-paper-data="{&quot;origPos&quot;:null}" fill="#3b2f20"/></g></g><path d="M398.8108,103.95209c4.41715,-0.20822 7.40926,1.59919 7.40926,1.59919c0.59357,0.34342 0.61755,0.93606 0.25155,1.10598c-0.36598,0.16994 -0.86829,0.18873 -1.46183,-0.15468c-2.09832,-1.21399 -3.15678,-1.15719 -5.78738,-1.21123c-3.50251,-0.07192 -8.92435,1.76518 -8.35929,1.43892c1.21962,-0.70423 4.37237,-2.60966 7.94766,-2.7782z" data-paper-data="{&quot;origRot&quot;:0,&quot;origPos&quot;:null,&quot;index&quot;:null}" fill="#38301c" stroke="none" stroke-width="0" stroke-linecap="butt"/><path d="M424.40214,103.07325c3.57872,0.06258 6.78652,1.8738 8.02646,2.54159c0.57449,0.30938 -4.89939,-1.36632 -8.39824,-1.19071c-2.62784,0.13191 -3.68753,0.10651 -5.74897,1.3821c-0.5831,0.36085 -1.08575,0.35693 -1.45661,0.19791c-0.37088,-0.159 -0.36444,-0.7521 0.21868,-1.11294c0,0 2.93727,-1.89523 7.35866,-1.81792z" data-paper-data="{&quot;origRot&quot;:0,&quot;origPos&quot;:null,&quot;index&quot;:null}" fill="#38301c" stroke="none" stroke-width="0" stroke-linecap="butt"/><g data-paper-data="{&quot;origPos&quot;:null}" stroke-linecap="butt"><g data-paper-data="{&quot;origPos&quot;:null,&quot;origRot&quot;:0}" stroke="none" stroke-width="0"><path d="M397.57735,115.80613c-3.51605,-0.67646 -5.09016,-1.3523 -5.26129,-4.10011c-0.06572,-1.05523 0.0574,-1.79514 0.71842,-2.48296c0.61967,-0.6448 1.95322,-1.32253 2.79608,-1.48275c2.01845,-0.38371 3.59137,-0.47802 5.37807,-0.13428c4.15135,1.39307 4.52226,4.80571 4.52226,4.80571c0,0 -0.45478,1.21635 -1.19736,1.95849c-2.48907,2.48759 -6.95616,1.43589 -6.95616,1.43589z" data-paper-data="{&quot;origPos&quot;:null}" fill="#000000"/><path d="M404.20681,114.89657c-0.8529,1.01636 -2.17341,1.22114 -2.17341,1.22114c-1.56173,-0.05669 -2.50051,-0.00027 -4.02468,-0.26869c-1.5666,-0.2759 -2.67991,-0.29538 -3.69495,-1.34572c-1.01584,-1.05113 -1.54448,-2.19382 -1.32754,-3.14444c0.10706,-0.46916 0.04006,-1.61106 1.38763,-2.10575c0.99272,-0.36443 1.76528,-1.09906 2.62291,-1.20813c2.03081,-0.25821 2.38345,-0.32023 4.38615,0.06509c3.14895,1.49181 4.10907,4.56319 4.10907,4.56319c0,0 -0.43227,1.20695 -1.28518,2.22328z" data-paper-data="{&quot;origPos&quot;:null}" fill="#ffffff"/></g><g data-paper-data="{&quot;origPos&quot;:null}"><g data-paper-data="{&quot;origPos&quot;:null}" stroke="#000000" stroke-width="0"><path d="M403.36781,111.10799c0.19021,1.1681 -0.07416,2.3108 -0.65535,3.21285c-0.58119,0.90206 -1.62707,1.23371 -2.70303,1.44024c-1.07594,0.20655 -1.98079,0.24933 -2.8117,-0.3817c-0.8309,-0.63099 -1.44018,-1.60603 -1.63044,-2.77413c-0.10229,-0.62821 -0.00155,-1.24908 0.13768,-1.82909c3.4112,-1.29116 3.93865,-1.95691 7.58679,-0.03967c0.03007,0.12147 0.05551,0.24536 0.07604,0.37152z" data-paper-data="{&quot;origPos&quot;:null}" fill="#898151"/><path d="M401.77325,108.42501c0.83089,0.63099 1.44014,1.606 1.63032,2.77414c0.04033,0.24773 -0.01133,0.4943 -0.01056,0.73768c-0.60053,-0.13078 -0.77977,-1.16805 -3.90134,-1.21276c-2.84081,-0.0407 -3.48003,0.74551 -3.94209,0.95587c0.04575,-0.80167 0.29823,-1.55912 0.70886,-2.19645c0.58119,-0.90206 1.47931,-1.56354 2.55528,-1.77006c1.07596,-0.20649 2.12855,0.08055 2.95949,0.71157z" data-paper-data="{&quot;origPos&quot;:null}" fill="#4d461c"/></g><path d="M399.15912,115.9614c-1.13623,0 -2.87316,0.08845 -2.87316,0.08845v-0.36863c0,0 1.76685,-0.00853 2.87316,-0.00853c1.43533,0 3.63957,0.00853 3.63957,0.00853v0.36863c0,0 -2.23414,-0.08845 -3.63957,-0.08845z" data-paper-data="{&quot;origPos&quot;:null}" fill="#000000" stroke="none" stroke-width="0"/><path d="M399.04206,107.83457c-1.06474,0.01319 -3.77632,1.03867 -3.77632,1.03867c0,0 -2.74937,1.14758 -2.32251,0.51645c0.42024,-0.62135 1.41208,-1.13834 2.54709,-1.56546c1.42543,-0.53638 2.57105,-0.79276 4.11807,-0.76442c2.38992,0.37692 3.79126,1.39388 4.75275,2.55269c-0.12514,0.14632 -1.33473,-0.6617 -1.42859,-0.49203c-0.3678,-0.2708 -0.73502,-0.52223 -1.22744,-0.78185c-0.78322,-0.41293 -1.59832,-0.51722 -2.66305,-0.50404z" data-paper-data="{&quot;origPos&quot;:null,&quot;origRot&quot;:0}" fill="#000000" stroke="#000000" stroke-width="0"/><g data-paper-data="{&quot;origPos&quot;:null}" stroke="none" stroke-width="1"><path d="M398.33756,109.29503c0.49953,-0.43865 1.13227,-0.63821 1.77909,-0.49465c0.64684,0.14355 1.18667,0.60338 1.53607,1.23048c0.34943,0.62713 0.50835,1.42149 0.39399,2.23352c-0.11439,0.81203 -0.48063,1.48984 -0.98011,1.9285c-0.4995,0.43865 -1.13224,0.63821 -1.77905,0.49463c-0.64682,-0.14355 -1.1867,-0.60338 -1.53612,-1.2305c-0.34943,-0.62713 -0.50832,-1.42146 -0.39398,-2.23347c0.11435,-0.81204 0.48059,-1.48987 0.98011,-1.92855z" data-paper-data="{&quot;origPos&quot;:null}" fill="#000000"/><path d="M400.63237,109.71405c0.15059,-0.20501 0.36171,-0.31815 0.5973,-0.29059c0.23558,0.02746 0.45177,0.19047 0.61052,0.43167c0.1588,0.24116 0.26009,0.56058 0.26631,0.90046c0.00623,0.33986 -0.08374,0.63691 -0.23432,0.84199c-0.15059,0.20501 -0.36171,0.31812 -0.5973,0.29058c-0.23559,-0.02754 -0.45173,-0.19048 -0.61051,-0.43168c-0.15875,-0.24112 -0.2601,-0.56052 -0.26633,-0.90045c-0.00623,-0.33986 0.08379,-0.63697 0.23437,-0.84207z" data-paper-data="{&quot;origPos&quot;:null,&quot;origRot&quot;:0}" fill="#ffffff"/><path d="M397.32313,112.22703c0.13257,-0.08714 0.30054,-0.12679 0.47227,-0.09825c0.17177,0.02854 0.31503,0.11992 0.40779,0.24452c0.09274,0.12461 0.13495,0.28242 0.10458,0.44388c-0.03032,0.16143 -0.1276,0.29612 -0.26019,0.38325c-0.13257,0.08714 -0.30049,0.12687 -0.47227,0.09829c-0.17172,-0.02852 -0.31496,-0.11986 -0.40771,-0.24448c-0.09274,-0.12459 -0.13496,-0.28247 -0.10458,-0.44392c0.0304,-0.16145 0.1276,-0.29606 0.26015,-0.3832z" data-paper-data="{&quot;origPos&quot;:null}" fill="#ffffff"/></g></g></g><g data-paper-data="{&quot;origPos&quot;:null}" stroke-linecap="butt"><g data-paper-data="{&quot;origPos&quot;:null,&quot;origRot&quot;:0}" stroke="none" stroke-width="0"><path d="M418.72366,114.37023c-0.74258,-0.74215 -1.19736,-1.95848 -1.19736,-1.95848c0,0 0.3709,-3.41263 4.52225,-4.80571c1.78669,-0.34374 3.35962,-0.24943 5.37807,0.13427c0.84285,0.16023 2.17641,0.83795 2.79608,1.48275c0.66102,0.68781 0.78414,1.42773 0.71842,2.48296c-0.17114,2.74779 -1.74525,3.42365 -5.26129,4.10011c0,0 -4.46709,1.05169 -6.95616,-1.43589z" data-paper-data="{&quot;origPos&quot;:null}" fill="#000000"/><path d="M417.76518,112.67328c0,0 0.96011,-3.0714 4.10905,-4.56319c2.0027,-0.38533 2.35536,-0.32331 4.38615,-0.06509c0.85763,0.10906 1.63018,0.8437 2.62291,1.20813c1.34758,0.4947 1.28058,1.63659 1.38763,2.10576c0.21695,0.95061 -0.31171,2.09328 -1.32755,3.14444c-1.01506,1.05034 -2.12834,1.06984 -3.69495,1.34572c-1.52418,0.26841 -2.46296,0.21199 -4.02468,0.26868c0,0 -1.32049,-0.20478 -2.17339,-1.22114c-0.8529,-1.01633 -1.28518,-2.22328 -1.28518,-2.22328z" data-paper-data="{&quot;origPos&quot;:null}" fill="#ffffff"/></g><g data-paper-data="{&quot;origPos&quot;:null}"><path d="M421.55199,108.33858c-0.49243,0.25961 -0.85964,0.51107 -1.22744,0.78186c-0.09384,-0.16966 -1.30345,0.63834 -1.42859,0.49203c0.9615,-1.1588 2.36283,-2.17574 4.75274,-2.55268c1.54701,-0.02834 2.69266,0.22803 4.11808,0.76442c1.13502,0.42711 2.12686,0.9441 2.54709,1.56546c0.42687,0.63113 -2.32251,-0.51645 -2.32251,-0.51645c0,0 -2.71157,-1.02547 -3.77631,-1.03867c-1.06474,-0.01319 -1.87986,0.09111 -2.66307,0.50404z" data-paper-data="{&quot;origPos&quot;:null,&quot;origRot&quot;:0}" fill="#000000" stroke="#000000" stroke-width="0"/><g data-paper-data="{&quot;origPos&quot;:null}" stroke="#000000" stroke-width="0"><path d="M419.88939,111.10801c0.02055,-0.12616 0.04597,-0.25008 0.07604,-0.37152c3.64813,-1.91725 4.17557,-1.25149 7.58679,0.03967c0.13923,0.58001 0.23998,1.20088 0.13769,1.82909c-0.19026,1.1681 -0.79954,2.14313 -1.63044,2.77413c-0.8309,0.63103 -1.73575,0.58825 -2.8117,0.3817c-1.07596,-0.20655 -2.12183,-0.53818 -2.70303,-1.44024c-0.58119,-0.90205 -0.84557,-2.04475 -0.65535,-3.21285z" data-paper-data="{&quot;origPos&quot;:null}" fill="#898151"/><path d="M421.48393,108.42501c0.83093,-0.63103 1.88352,-0.91807 2.95948,-0.71157c1.07597,0.20652 1.97409,0.86799 2.55528,1.77006c0.41065,0.63733 0.66313,1.39477 0.70886,2.19645c-0.46207,-0.21037 -1.10128,-0.99659 -3.94209,-0.95587c-3.12157,0.04471 -3.3008,1.08197 -3.90134,1.21276c0.00077,-0.24338 -0.05089,-0.48994 -0.01056,-0.73768c0.1902,-1.16813 0.79944,-2.14315 1.63032,-2.77414z" data-paper-data="{&quot;origPos&quot;:null}" fill="#4d461c"/></g><path d="M420.45843,116.04986v-0.36863c0,0 2.20424,-0.00853 3.63957,-0.00853c1.10631,0 2.87316,0.00853 2.87316,0.00853v0.36863c0,0 -1.73693,-0.08845 -2.87316,-0.08845c-1.40544,0 -3.63957,0.08845 -3.63957,0.08845z" data-paper-data="{&quot;origPos&quot;:null}" fill="#000000" stroke="none" stroke-width="0"/><g data-paper-data="{&quot;index&quot;:null,&quot;origPos&quot;:null}" stroke="none" stroke-width="1"><path d="M422.33072,109.29503c0.49953,-0.43865 1.13227,-0.63821 1.77908,-0.49465c0.64684,0.14355 1.18667,0.60338 1.53607,1.23048c0.34943,0.62713 0.50835,1.42149 0.39399,2.23352c-0.11439,0.81203 -0.48063,1.48984 -0.98011,1.9285c-0.4995,0.43865 -1.13224,0.63821 -1.77905,0.49463c-0.64682,-0.14355 -1.1867,-0.60338 -1.53612,-1.2305c-0.34943,-0.62713 -0.50832,-1.42146 -0.39398,-2.23347c0.11435,-0.81204 0.48059,-1.48987 0.98011,-1.92855z" data-paper-data="{&quot;origPos&quot;:null}" fill="#000000"/><path d="M424.7294,109.71405c0.15059,-0.20501 0.36169,-0.31815 0.5973,-0.29059c0.23558,0.02746 0.45177,0.19047 0.61052,0.43167c0.1588,0.24116 0.2601,0.56058 0.26632,0.90046c0.00623,0.33986 -0.08374,0.63691 -0.23432,0.84199c-0.15059,0.20501 -0.36171,0.31812 -0.5973,0.29058c-0.23559,-0.02754 -0.45173,-0.19048 -0.61051,-0.43168c-0.15875,-0.24112 -0.2601,-0.56052 -0.26633,-0.90045c-0.00623,-0.33986 0.08379,-0.63697 0.23437,-0.84207z" data-paper-data="{&quot;origPos&quot;:null,&quot;origRot&quot;:0}" fill="#ffffff"/><path d="M421.42014,112.22703c0.13257,-0.08714 0.30054,-0.12679 0.4723,-0.09825c0.17177,0.02854 0.315,0.11992 0.40778,0.24452c0.09274,0.12461 0.13495,0.28242 0.10459,0.44388c-0.03032,0.16143 -0.12761,0.29612 -0.2602,0.38325c-0.13257,0.08714 -0.30048,0.12687 -0.47227,0.09829c-0.17172,-0.02852 -0.31498,-0.11986 -0.40773,-0.24448c-0.09274,-0.12459 -0.13496,-0.28247 -0.10456,-0.44392c0.0304,-0.16145 0.1276,-0.29606 0.26015,-0.3832z" data-paper-data="{&quot;origPos&quot;:null}" fill="#ffffff"/></g></g></g><g data-paper-data="{&quot;origPos&quot;:null}" stroke="none" stroke-linecap="butt"><path d="M386.54846,109.2237c0,0 15.17156,-0.47137 24.98271,-0.47137c9.44547,0 20.88997,0.78195 24.19904,0.86708c1.10302,0.02838 2.82629,-0.39571 2.82629,-0.39571v3.61386c0,0 -1.91233,0.06935 -3.13649,0.01698c-3.67246,-0.15712 -14.46609,-0.80261 -23.73172,-0.80261c-9.62719,0 -14.88417,0.78562 -24.51135,0.78562c-0.24528,0 -0.6285,-3.61386 -0.6285,-3.61386z" data-paper-data="{&quot;origPos&quot;:null}" fill="#000000" stroke-width="0"/><g data-paper-data="{&quot;origPos&quot;:null}"><path d="M391.89067,117.55128c-1.03008,-0.67776 -1.54716,-2.84065 -2.13513,-5.16165c-0.57709,-2.27797 0.11414,-4.49784 0.56389,-5.52278c0.47686,-1.08671 4.7442,-1.72837 8.4847,-1.72837c3.80181,0 7.70455,0.4305 9.11319,1.88548c1.20747,1.24721 0.93481,3.27917 0.52747,5.0763c-0.63509,2.80185 -2.32126,4.87425 -3.04144,5.2939c-1.22957,0.71646 -3.64495,1.09987 -6.28497,1.09987c-2.88203,0 -5.97506,-0.11855 -7.22771,-0.94275z" data-paper-data="{&quot;origPos&quot;:null}" fill="#000000" stroke-width="0"/><path d="M395.56125,106.54738c0.63371,0.52809 0.10562,1.1618 0.10562,1.1618l-0.6475,0.3154c-1.25588,0.83725 -1.80288,1.83409 -2.36278,3.23385c0,0 -0.30636,0.76591 -1.07226,0.45954c-0.76591,-0.30637 -0.45954,-1.07226 -0.45954,-1.07226c0.68027,-1.70068 1.43485,-2.96413 2.97943,-3.99385l0.29524,0.00114c0,0 0.52809,-0.63371 1.1618,-0.10562z" data-paper-data="{&quot;origPos&quot;:null}" fill="#ffffff" stroke-width="0.5"/></g><g data-paper-data="{&quot;origPos&quot;:null}"><path d="M417.03052,117.55128c-1.03008,-0.67776 -1.54716,-2.84065 -2.13513,-5.16165c-0.57709,-2.27797 0.11414,-4.49784 0.56389,-5.52278c0.47686,-1.08671 4.7442,-1.72837 8.4847,-1.72837c3.80181,0 7.70455,0.4305 9.11319,1.88548c1.20747,1.24721 0.9348,3.27917 0.52746,5.0763c-0.63509,2.80185 -2.32127,4.87425 -3.04144,5.2939c-1.22957,0.71646 -3.64495,1.09987 -6.28495,1.09987c-2.88203,0 -5.97506,-0.11855 -7.22771,-0.94275z" data-paper-data="{&quot;origPos&quot;:null}" fill="#000000" stroke-width="0"/><path d="M420.70108,106.54738c0.63371,0.52809 0.10561,1.1618 0.10561,1.1618l-0.6475,0.3154c-1.25588,0.83725 -1.80288,1.83409 -2.36278,3.23385c0,0 -0.30636,0.76591 -1.07226,0.45954c-0.76591,-0.30637 -0.45954,-1.07226 -0.45954,-1.07226c0.68027,-1.70068 1.43486,-2.96413 2.97945,-3.99385l0.29524,0.00114c0,0 0.52809,-0.63371 1.1618,-0.10562z" data-paper-data="{&quot;origPos&quot;:null}" fill="#ffffff" stroke-width="0.5"/></g></g><path d="M416.94136,125.47484c0,0 -2.64738,0.79013 -4.84467,1.02768c-1.58408,0.17125 -4.84464,0.01981 -4.84464,0.01981" data-paper-data="{&quot;origPos&quot;:null}" fill="none" stroke="#ffffff" stroke-width="0.5" stroke-linecap="round"/><g data-paper-data="{&quot;origPos&quot;:null,&quot;origRot&quot;:0}" stroke-width="1.5" stroke-linecap="round"><path d="M416.94112,124.1979c1.0272,0.20546 -0.58666,1.2939 -1.26801,1.8922c-0.69966,0.55047 -1.65321,0.84429 -2.67231,1.17775c-1.22282,0.38224 -2.58164,0.73977 -3.86641,0.68655c-0.99067,-0.07016 -2.05004,-0.44861 -2.48211,-1.03137c-0.51362,-0.69243 -1.81188,-1.20012 -0.6936,-1.51975c1.11828,-0.31963 9.75558,-1.50625 9.75558,-1.50625z" data-paper-data="{&quot;origPos&quot;:null}" fill="#6a3a37" stroke="#000000"/><path d="M410.12242,125.76584c0.74074,-0.11295 1.49603,-0.08222 2.20297,0.02679c0.47607,0.06696 0.89229,0.27388 1.26145,0.48804c0.16634,0.09644 0.44044,0.26451 0.31716,0.41131c-0.22775,0.23441 -0.69068,0.2866 -1.06784,0.4043c-0.65196,0.20236 -1.31771,0.38749 -2.00427,0.50556c-0.50343,0.08656 -1.03686,0.1349 -1.5377,0.07177c-0.48312,-0.06102 -0.94779,-0.1945 -1.32657,-0.41003c-0.27469,-0.15654 -0.83199,-0.49684 -0.55237,-0.69176c0.71234,-0.49448 1.76466,-0.6562 2.70718,-0.80599z" data-paper-data="{&quot;origPos&quot;:null}" fill="#ab5e58" stroke="none"/><path d="M417.08008,124.28036c1.0272,0.20546 -0.66672,1.16129 -1.34808,1.75959c-0.69966,0.55047 -1.65321,0.84429 -2.67232,1.17774c-1.22282,0.38224 -2.58164,0.73978 -3.86641,0.68655c-0.99067,-0.07016 -2.05004,-0.44861 -2.48211,-1.03137c-0.51362,-0.69243 -1.72107,-1.22467 -0.60279,-1.54429c3.70322,-1.05845 8.64063,-1.20172 9.85028,-1.33646z" data-paper-data="{&quot;origPos&quot;:null}" fill="none" stroke="#000000"/></g><path d="M373.74395,166.32603c-0.75993,0.66494 -1.42487,-0.09499 -1.42487,-0.09499l-0.48416,-0.50873c-0.67852,-1.01778 -1.43215,-1.80833 -2.29729,-2.67347c0,0 -0.71401,-0.71401 0,-1.42803c0.71401,-0.71401 1.42803,0 1.42803,0c0.95632,0.95632 1.79503,1.84938 2.54961,2.98125l0.32366,0.29909c0,0 0.66494,0.75993 -0.09499,1.42487z" fill="#ffffff" stroke="none" stroke-width="0.5" stroke-linecap="butt"/><path d="M367.64033,203.52273c-0.79706,0.61994 -1.417,-0.17712 -1.417,-0.17712l-0.81857,-0.41798c-0.82743,-1.10324 -1.49956,-2.15487 -2.11489,-3.38554c0,0 -0.45159,-0.90317 0.45158,-1.35475c0.90317,-0.45159 1.35475,0.45158 1.35475,0.45158c0.56744,1.13487 1.16346,2.06268 1.92419,3.07699l0.79706,0.38983c0,0 0.61994,0.79706 -0.17712,1.417z" fill="#ffffff" stroke="none" stroke-width="0.5" stroke-linecap="butt"/></g><path d="M474.56452,11.99869h-56.77419" fill="none" stroke="#000000" stroke-width="0.5" stroke-linecap="round"/><path d="M476.18664,20.92035h-70.56221" fill="none" stroke="#000000" stroke-width="0.5" stroke-linecap="round"/><path d="M421.84563,29.03095h54.34101" fill="none" stroke="#000000" stroke-width="0.5" stroke-linecap="round"/><path d="M474.56453,36.33049h-29.19816" fill="none" stroke="#000000" stroke-width="0.5" stroke-linecap="round"/><path d="M416.16821,44.44109h58.39631" fill="none" stroke="#000000" stroke-width="0.5" stroke-linecap="round"/><g fill="none" stroke="#000000" stroke-width="2.5" stroke-linecap="round"><path d="M394.2696,61.47335l-9.73272,-21.08756l10.54378,-3.24424"/><path d="M397.51383,51.74063"/></g><path d="M387.98899,59.09385l9.30538,-4.17138l-1.12306,10.10757z" fill="#000000" stroke="#000000" stroke-width="2.5" stroke-linecap="round"/></g></g></svg>