<svg xmlns="http://www.w3.org/2000/svg" xmlns:xlink="http://www.w3.org/1999/xlink" version="1.1" width="521.36637" height="640.23227" viewBox="0,0,521.36637,640.23227"><defs><linearGradient x1="264.82055" y1="400.72578" x2="339.30123" y2="402.47248" gradientUnits="userSpaceOnUse" id="color-1"><stop offset="0" stop-color="#000000"/><stop offset="1" stop-color="#0e0e0e"/></linearGradient><linearGradient x1="301.36841" y1="423.42998" x2="301.11347" y2="434.30096" gradientUnits="userSpaceOnUse" id="color-2"><stop offset="0" stop-color="#000000"/><stop offset="1" stop-color="#666666"/></linearGradient><linearGradient x1="282.76724" y1="388.11677" x2="281.86846" y2="426.44037" gradientUnits="userSpaceOnUse" id="color-3"><stop offset="0" stop-color="#151515"/><stop offset="1" stop-color="#212121"/></linearGradient><linearGradient x1="313.22755" y1="392.01065" x2="312.84428" y2="408.35245" gradientUnits="userSpaceOnUse" id="color-4"><stop offset="0" stop-color="#292929"/><stop offset="1" stop-color="#292929"/></linearGradient><linearGradient x1="138.99147" y1="370.53471" x2="204.47067" y2="399.80415" gradientUnits="userSpaceOnUse" id="color-5"><stop offset="0" stop-color="#000000"/><stop offset="1" stop-color="#0e0e0e"/></linearGradient><linearGradient x1="162.66716" y1="405.24672" x2="158.5232" y2="414.5172" gradientUnits="userSpaceOnUse" id="color-6"><stop offset="0" stop-color="#000000"/><stop offset="1" stop-color="#666666"/></linearGradient><linearGradient x1="150.85985" y1="380.95618" x2="164.51398" y2="387.0596" gradientUnits="userSpaceOnUse" id="color-7"><stop offset="0" stop-color="#151515"/><stop offset="1" stop-color="#212121"/></linearGradient><linearGradient x1="284.45298" y1="177.59013" x2="286.91934" y2="225.98525" gradientUnits="userSpaceOnUse" id="color-8"><stop offset="0" stop-color="#ffffff"/><stop offset="1" stop-color="#cccccc"/></linearGradient><radialGradient cx="208.69928" cy="221.2941" r="3.27809" gradientUnits="userSpaceOnUse" id="color-9"><stop offset="0" stop-color="#cccccc"/><stop offset="1" stop-color="#7f7f7f"/></radialGradient><radialGradient cx="206.50694" cy="223.9636" r="2.8327" gradientUnits="userSpaceOnUse" id="color-10"><stop offset="0" stop-color="#cccccc"/><stop offset="1" stop-color="#7f7f7f"/></radialGradient><radialGradient cx="205.10181" cy="227.73506" r="3.5144" gradientUnits="userSpaceOnUse" id="color-11"><stop offset="0" stop-color="#cccccc"/><stop offset="1" stop-color="#7f7f7f"/></radialGradient><radialGradient cx="206.63689" cy="231.41248" r="3.5144" gradientUnits="userSpaceOnUse" id="color-12"><stop offset="0" stop-color="#cccccc"/><stop offset="1" stop-color="#7f7f7f"/></radialGradient><radialGradient cx="209.3731" cy="234.91114" r="3.3044" gradientUnits="userSpaceOnUse" id="color-13"><stop offset="0" stop-color="#cccccc"/><stop offset="1" stop-color="#7f7f7f"/></radialGradient><radialGradient cx="210.66667" cy="238.86492" r="3.04268" gradientUnits="userSpaceOnUse" id="color-14"><stop offset="0" stop-color="#cccccc"/><stop offset="1" stop-color="#7f7f7f"/></radialGradient><radialGradient cx="211.92899" cy="242.20097" r="3.48838" gradientUnits="userSpaceOnUse" id="color-15"><stop offset="0" stop-color="#cccccc"/><stop offset="1" stop-color="#7f7f7f"/></radialGradient><radialGradient cx="212.55458" cy="246.52393" r="3.27838" gradientUnits="userSpaceOnUse" id="color-16"><stop offset="0" stop-color="#cccccc"/><stop offset="1" stop-color="#7f7f7f"/></radialGradient><radialGradient cx="213.33959" cy="250.40968" r="3.0684" gradientUnits="userSpaceOnUse" id="color-17"><stop offset="0" stop-color="#cccccc"/><stop offset="1" stop-color="#7f7f7f"/></radialGradient><radialGradient cx="215.11812" cy="254.07489" r="3.72378" gradientUnits="userSpaceOnUse" id="color-18"><stop offset="0" stop-color="#cccccc"/><stop offset="1" stop-color="#7f7f7f"/></radialGradient><radialGradient cx="218.17216" cy="257.1579" r="3.35736" gradientUnits="userSpaceOnUse" id="color-19"><stop offset="0" stop-color="#cccccc"/><stop offset="1" stop-color="#7f7f7f"/></radialGradient><radialGradient cx="219.83978" cy="260.16862" r="3.69836" gradientUnits="userSpaceOnUse" id="color-20"><stop offset="0" stop-color="#cccccc"/><stop offset="1" stop-color="#7f7f7f"/></radialGradient><radialGradient cx="212.20051" cy="215.01217" r="5.54365" gradientUnits="userSpaceOnUse" id="color-21"><stop offset="0" stop-color="#cccccc"/><stop offset="1" stop-color="#7f7f7f"/></radialGradient><radialGradient cx="221.65326" cy="216.89006" r="3.27809" gradientUnits="userSpaceOnUse" id="color-22"><stop offset="0" stop-color="#cccccc"/><stop offset="1" stop-color="#7f7f7f"/></radialGradient><radialGradient cx="223.65126" cy="220.83162" r="3.27809" gradientUnits="userSpaceOnUse" id="color-23"><stop offset="0" stop-color="#cccccc"/><stop offset="1" stop-color="#7f7f7f"/></radialGradient><radialGradient cx="224.62646" cy="225.27458" r="3.27809" gradientUnits="userSpaceOnUse" id="color-24"><stop offset="0" stop-color="#cccccc"/><stop offset="1" stop-color="#7f7f7f"/></radialGradient><radialGradient cx="224.8777" cy="230.20372" r="3.27809" gradientUnits="userSpaceOnUse" id="color-25"><stop offset="0" stop-color="#cccccc"/><stop offset="1" stop-color="#7f7f7f"/></radialGradient><radialGradient cx="225.26291" cy="234.82646" r="3.27809" gradientUnits="userSpaceOnUse" id="color-26"><stop offset="0" stop-color="#cccccc"/><stop offset="1" stop-color="#7f7f7f"/></radialGradient><radialGradient cx="225.20772" cy="239.62143" r="3.27809" gradientUnits="userSpaceOnUse" id="color-27"><stop offset="0" stop-color="#cccccc"/><stop offset="1" stop-color="#7f7f7f"/></radialGradient><radialGradient cx="224.84635" cy="244.28219" r="3.27809" gradientUnits="userSpaceOnUse" id="color-28"><stop offset="0" stop-color="#cccccc"/><stop offset="1" stop-color="#7f7f7f"/></radialGradient><radialGradient cx="224.7683" cy="248.62916" r="3.27809" gradientUnits="userSpaceOnUse" id="color-29"><stop offset="0" stop-color="#cccccc"/><stop offset="1" stop-color="#7f7f7f"/></radialGradient><radialGradient cx="224.56389" cy="253.43181" r="3.27809" gradientUnits="userSpaceOnUse" id="color-30"><stop offset="0" stop-color="#cccccc"/><stop offset="1" stop-color="#7f7f7f"/></radialGradient><radialGradient cx="223.46303" cy="258.28006" r="3.27809" gradientUnits="userSpaceOnUse" id="color-31"><stop offset="0" stop-color="#cccccc"/><stop offset="1" stop-color="#7f7f7f"/></radialGradient><radialGradient cx="222.59446" cy="273.40563" r="3.35736" gradientUnits="userSpaceOnUse" id="color-32"><stop offset="0" stop-color="#cccccc"/><stop offset="1" stop-color="#7f7f7f"/></radialGradient><radialGradient cx="222.35816" cy="277.26221" r="3.69836" gradientUnits="userSpaceOnUse" id="color-33"><stop offset="0" stop-color="#cccccc"/><stop offset="1" stop-color="#7f7f7f"/></radialGradient><radialGradient cx="223.7392" cy="281.32834" r="3.27809" gradientUnits="userSpaceOnUse" id="color-34"><stop offset="0" stop-color="#cccccc"/><stop offset="1" stop-color="#7f7f7f"/></radialGradient><linearGradient x1="303.45827" y1="231.75165" x2="303.99432" y2="263.48868" gradientUnits="userSpaceOnUse" id="color-35"><stop offset="0" stop-color="#ff0000"/><stop offset="1" stop-color="#ff0000" stop-opacity="0"/></linearGradient><linearGradient x1="297.87708" y1="231.88273" x2="303.45045" y2="231.59871" gradientUnits="userSpaceOnUse" id="color-36"><stop offset="0" stop-color="#ff0000"/><stop offset="1" stop-color="#ff0000" stop-opacity="0"/></linearGradient><linearGradient x1="261.40675" y1="206.95245" x2="245.22948" y2="207.37861" gradientUnits="userSpaceOnUse" id="color-37"><stop offset="0" stop-color="#7f7f7f"/><stop offset="1" stop-color="#b2b2b2"/></linearGradient><linearGradient x1="263.77835" y1="217.72981" x2="252.12745" y2="218.32357" gradientUnits="userSpaceOnUse" id="color-38"><stop offset="0" stop-color="#000000"/><stop offset="1" stop-color="#353935"/></linearGradient><linearGradient x1="242.09302" y1="218.83495" x2="252.54874" y2="218.30209" gradientUnits="userSpaceOnUse" id="color-39"><stop offset="0" stop-color="#000000"/><stop offset="1" stop-color="#353935"/></linearGradient><radialGradient cx="229.29457" cy="213.0402" r="26.25461" gradientUnits="userSpaceOnUse" id="color-40"><stop offset="0" stop-color="#666666"/><stop offset="1" stop-color="#000000"/></radialGradient><radialGradient cx="228.18946" cy="221.81993" r="11.28262" gradientUnits="userSpaceOnUse" id="color-41"><stop offset="0" stop-color="#370000"/><stop offset="1" stop-color="#000000"/></radialGradient><radialGradient cx="233.45579" cy="225.22883" r="9.62338" gradientUnits="userSpaceOnUse" id="color-42"><stop offset="0" stop-color="#370000"/><stop offset="1" stop-color="#000000"/></radialGradient><radialGradient cx="226.76292" cy="215.37225" r="8.9043" gradientUnits="userSpaceOnUse" id="color-43"><stop offset="0" stop-color="#370000"/><stop offset="1" stop-color="#000000"/></radialGradient><radialGradient cx="237.13551" cy="219.1704" r="7.83074" gradientUnits="userSpaceOnUse" id="color-44"><stop offset="0" stop-color="#370000"/><stop offset="1" stop-color="#000000"/></radialGradient><radialGradient cx="232.98569" cy="213.73668" r="5.89331" gradientUnits="userSpaceOnUse" id="color-45"><stop offset="0" stop-color="#370000"/><stop offset="1" stop-color="#000000"/></radialGradient><radialGradient cx="232.2949" cy="217.95273" r="2.87457" gradientUnits="userSpaceOnUse" id="color-46"><stop offset="0" stop-color="#ff0000"/><stop offset="1" stop-color="#000000"/></radialGradient><linearGradient x1="647.69882" y1="31.0379" x2="549.24649" y2="-59.88009" gradientUnits="userSpaceOnUse" id="color-47"><stop offset="0" stop-color="#ff0000" stop-opacity="0"/><stop offset="1" stop-color="#ff0000"/></linearGradient><linearGradient x1="330.9146" y1="166.90376" x2="261.10437" y2="100.04282" gradientUnits="userSpaceOnUse" id="color-48"><stop offset="0" stop-color="#ff0000"/><stop offset="1" stop-color="#ff0000" stop-opacity="0"/></linearGradient><linearGradient x1="279.84101" y1="194.27794" x2="442.1665" y2="51.16607" gradientUnits="userSpaceOnUse" id="color-49"><stop offset="0" stop-color="#ff0000" stop-opacity="0"/><stop offset="1" stop-color="#ff0000"/></linearGradient><linearGradient x1="629.84118" y1="-112.23145" x2="495.30499" y2="6.38036" gradientUnits="userSpaceOnUse" id="color-50"><stop offset="0" stop-color="#ff0000" stop-opacity="0"/><stop offset="1" stop-color="#ff0000"/></linearGradient><radialGradient cx="494.63614" cy="1.22699" r="32.83141" gradientUnits="userSpaceOnUse" id="color-51"><stop offset="0" stop-color="#ff0000"/><stop offset="1" stop-color="#ff0000" stop-opacity="0"/></radialGradient><radialGradient cx="446.87372" cy="54.03076" r="32.83141" gradientUnits="userSpaceOnUse" id="color-52"><stop offset="0" stop-color="#ff0000"/><stop offset="1" stop-color="#ff0000" stop-opacity="0"/></radialGradient><linearGradient x1="137.8486" y1="606.4931" x2="212.3293" y2="608.2398" gradientUnits="userSpaceOnUse" id="color-1-,0,0,1,-126.97196,205.7673"><stop offset="0" stop-color="#000000"/><stop offset="1" stop-color="#0e0e0e"/></linearGradient><linearGradient x1="174.3964" y1="629.1973" x2="174.1415" y2="640.0683" gradientUnits="userSpaceOnUse" id="color-2-,0,0,1,-126.97196,205.7673"><stop offset="0" stop-color="#000000"/><stop offset="1" stop-color="#666666"/></linearGradient><linearGradient x1="186.2556" y1="597.778" x2="185.8723" y2="614.1197" gradientUnits="userSpaceOnUse" id="color-4-,0,0,1,-126.97196,205.7673"><stop offset="0" stop-color="#292929"/><stop offset="1" stop-color="#292929"/></linearGradient><linearGradient x1="12.0195" y1="576.302" x2="77.4987" y2="605.5714" gradientUnits="userSpaceOnUse" id="color-5-,0,0,1,-126.97196,205.7673"><stop offset="0" stop-color="#000000"/><stop offset="1" stop-color="#0e0e0e"/></linearGradient><linearGradient x1="35.6952" y1="611.014" x2="31.5512" y2="620.2845" gradientUnits="userSpaceOnUse" id="color-6-,0,0,1,-126.97196,205.7673"><stop offset="0" stop-color="#000000"/><stop offset="1" stop-color="#666666"/></linearGradient><linearGradient x1="157.481" y1="383.3574" x2="159.9474" y2="431.7526" gradientUnits="userSpaceOnUse" id="color-8-,0,0,1,-126.97196,205.7673"><stop offset="0" stop-color="#ffffff"/><stop offset="1" stop-color="#cccccc"/></linearGradient><radialGradient cx="81.7273" cy="427.0614" r="3.2781" gradientUnits="userSpaceOnUse" id="color-9-,0,0,1,-126.97196,205.7673"><stop offset="0" stop-color="#cccccc"/><stop offset="1" stop-color="#7f7f7f"/></radialGradient><radialGradient cx="79.535" cy="429.7309" r="2.8327" gradientUnits="userSpaceOnUse" id="color-10-,0,0,1,-126.97196,205.7673"><stop offset="0" stop-color="#cccccc"/><stop offset="1" stop-color="#7f7f7f"/></radialGradient><radialGradient cx="78.1299" cy="433.5024" r="3.5144" gradientUnits="userSpaceOnUse" id="color-11-,0,0,1,-126.97196,205.7673"><stop offset="0" stop-color="#cccccc"/><stop offset="1" stop-color="#7f7f7f"/></radialGradient><radialGradient cx="79.6649" cy="437.1798" r="3.5144" gradientUnits="userSpaceOnUse" id="color-12-,0,0,1,-126.97196,205.7673"><stop offset="0" stop-color="#cccccc"/><stop offset="1" stop-color="#7f7f7f"/></radialGradient><radialGradient cx="82.4011" cy="440.6784" r="3.3044" gradientUnits="userSpaceOnUse" id="color-13-,0,0,1,-126.97196,205.7673"><stop offset="0" stop-color="#cccccc"/><stop offset="1" stop-color="#7f7f7f"/></radialGradient><radialGradient cx="83.6947" cy="444.6322" r="3.0427" gradientUnits="userSpaceOnUse" id="color-14-,0,0,1,-126.97196,205.7673"><stop offset="0" stop-color="#cccccc"/><stop offset="1" stop-color="#7f7f7f"/></radialGradient><radialGradient cx="84.957" cy="447.9683" r="3.4884" gradientUnits="userSpaceOnUse" id="color-15-,0,0,1,-126.97196,205.7673"><stop offset="0" stop-color="#cccccc"/><stop offset="1" stop-color="#7f7f7f"/></radialGradient><radialGradient cx="85.5826" cy="452.2912" r="3.2784" gradientUnits="userSpaceOnUse" id="color-16-,0,0,1,-126.97196,205.7673"><stop offset="0" stop-color="#cccccc"/><stop offset="1" stop-color="#7f7f7f"/></radialGradient><radialGradient cx="86.3676" cy="456.177" r="3.0684" gradientUnits="userSpaceOnUse" id="color-17-,0,0,1,-126.97196,205.7673"><stop offset="0" stop-color="#cccccc"/><stop offset="1" stop-color="#7f7f7f"/></radialGradient><radialGradient cx="88.1462" cy="459.8422" r="3.7238" gradientUnits="userSpaceOnUse" id="color-18-,0,0,1,-126.97196,205.7673"><stop offset="0" stop-color="#cccccc"/><stop offset="1" stop-color="#7f7f7f"/></radialGradient><radialGradient cx="91.2002" cy="462.9252" r="3.3574" gradientUnits="userSpaceOnUse" id="color-19-,0,0,1,-126.97196,205.7673"><stop offset="0" stop-color="#cccccc"/><stop offset="1" stop-color="#7f7f7f"/></radialGradient><radialGradient cx="92.8678" cy="465.9359" r="3.6984" gradientUnits="userSpaceOnUse" id="color-20-,0,0,1,-126.97196,205.7673"><stop offset="0" stop-color="#cccccc"/><stop offset="1" stop-color="#7f7f7f"/></radialGradient><radialGradient cx="85.2286" cy="420.7795" r="5.5437" gradientUnits="userSpaceOnUse" id="color-21-,0,0,1,-126.97196,205.7673"><stop offset="0" stop-color="#cccccc"/><stop offset="1" stop-color="#7f7f7f"/></radialGradient><radialGradient cx="94.6813" cy="422.6574" r="3.2781" gradientUnits="userSpaceOnUse" id="color-22-,0,0,1,-126.97196,205.7673"><stop offset="0" stop-color="#cccccc"/><stop offset="1" stop-color="#7f7f7f"/></radialGradient><radialGradient cx="96.6793" cy="426.5989" r="3.2781" gradientUnits="userSpaceOnUse" id="color-23-,0,0,1,-126.97196,205.7673"><stop offset="0" stop-color="#cccccc"/><stop offset="1" stop-color="#7f7f7f"/></radialGradient><radialGradient cx="97.6545" cy="431.0419" r="3.2781" gradientUnits="userSpaceOnUse" id="color-24-,0,0,1,-126.97196,205.7673"><stop offset="0" stop-color="#cccccc"/><stop offset="1" stop-color="#7f7f7f"/></radialGradient><radialGradient cx="97.9057" cy="435.971" r="3.2781" gradientUnits="userSpaceOnUse" id="color-25-,0,0,1,-126.97196,205.7673"><stop offset="0" stop-color="#cccccc"/><stop offset="1" stop-color="#7f7f7f"/></radialGradient><radialGradient cx="98.291" cy="440.5938" r="3.2781" gradientUnits="userSpaceOnUse" id="color-26-,0,0,1,-126.97196,205.7673"><stop offset="0" stop-color="#cccccc"/><stop offset="1" stop-color="#7f7f7f"/></radialGradient><radialGradient cx="98.2358" cy="445.3887" r="3.2781" gradientUnits="userSpaceOnUse" id="color-27-,0,0,1,-126.97196,205.7673"><stop offset="0" stop-color="#cccccc"/><stop offset="1" stop-color="#7f7f7f"/></radialGradient><radialGradient cx="97.8744" cy="450.0495" r="3.2781" gradientUnits="userSpaceOnUse" id="color-28-,0,0,1,-126.97196,205.7673"><stop offset="0" stop-color="#cccccc"/><stop offset="1" stop-color="#7f7f7f"/></radialGradient><radialGradient cx="97.7963" cy="454.3965" r="3.2781" gradientUnits="userSpaceOnUse" id="color-29-,0,0,1,-126.97196,205.7673"><stop offset="0" stop-color="#cccccc"/><stop offset="1" stop-color="#7f7f7f"/></radialGradient><radialGradient cx="97.5919" cy="459.1991" r="3.2781" gradientUnits="userSpaceOnUse" id="color-30-,0,0,1,-126.97196,205.7673"><stop offset="0" stop-color="#cccccc"/><stop offset="1" stop-color="#7f7f7f"/></radialGradient><radialGradient cx="96.4911" cy="464.0474" r="3.2781" gradientUnits="userSpaceOnUse" id="color-31-,0,0,1,-126.97196,205.7673"><stop offset="0" stop-color="#cccccc"/><stop offset="1" stop-color="#7f7f7f"/></radialGradient><radialGradient cx="95.6225" cy="479.1729" r="3.3574" gradientUnits="userSpaceOnUse" id="color-32-,0,0,1,-126.97196,205.7673"><stop offset="0" stop-color="#cccccc"/><stop offset="1" stop-color="#7f7f7f"/></radialGradient><radialGradient cx="95.3862" cy="483.0295" r="3.6984" gradientUnits="userSpaceOnUse" id="color-33-,0,0,1,-126.97196,205.7673"><stop offset="0" stop-color="#cccccc"/><stop offset="1" stop-color="#7f7f7f"/></radialGradient><radialGradient cx="96.7672" cy="487.0956" r="3.2781" gradientUnits="userSpaceOnUse" id="color-34-,0,0,1,-126.97196,205.7673"><stop offset="0" stop-color="#cccccc"/><stop offset="1" stop-color="#7f7f7f"/></radialGradient><linearGradient x1="176.4863" y1="437.519" x2="177.0224" y2="469.256" gradientUnits="userSpaceOnUse" id="color-35-,0,0,1,-126.97196,205.7673"><stop offset="0" stop-color="#ff0000"/><stop offset="1" stop-color="#ff0000" stop-opacity="0"/></linearGradient><linearGradient x1="170.9051" y1="437.65" x2="176.4785" y2="437.366" gradientUnits="userSpaceOnUse" id="color-36-,0,0,1,-126.97196,205.7673"><stop offset="0" stop-color="#ff0000"/><stop offset="1" stop-color="#ff0000" stop-opacity="0"/></linearGradient><linearGradient x1="134.4348" y1="412.7197" x2="118.2575" y2="413.1459" gradientUnits="userSpaceOnUse" id="color-37-,0,0,1,-126.97196,205.7673"><stop offset="0" stop-color="#7f7f7f"/><stop offset="1" stop-color="#b2b2b2"/></linearGradient><linearGradient x1="136.8064" y1="423.4971" x2="125.1555" y2="424.0909" gradientUnits="userSpaceOnUse" id="color-38-,0,0,1,-126.97196,205.7673"><stop offset="0" stop-color="#000000"/><stop offset="1" stop-color="#353935"/></linearGradient><linearGradient x1="115.1211" y1="424.6023" x2="125.5768" y2="424.0694" gradientUnits="userSpaceOnUse" id="color-39-,0,0,1,-126.97196,205.7673"><stop offset="0" stop-color="#000000"/><stop offset="1" stop-color="#353935"/></linearGradient><radialGradient cx="102.3226" cy="418.8075" r="26.2546" gradientUnits="userSpaceOnUse" id="color-40-,0,0,1,-126.97196,205.7673"><stop offset="0" stop-color="#666666"/><stop offset="1" stop-color="#000000"/></radialGradient><radialGradient cx="101.2175" cy="427.5872" r="11.2826" gradientUnits="userSpaceOnUse" id="color-41-,0,0,1,-126.97196,205.7673"><stop offset="0" stop-color="#370000"/><stop offset="1" stop-color="#000000"/></radialGradient><radialGradient cx="106.4838" cy="430.9961" r="9.6234" gradientUnits="userSpaceOnUse" id="color-42-,0,0,1,-126.97196,205.7673"><stop offset="0" stop-color="#370000"/><stop offset="1" stop-color="#000000"/></radialGradient><radialGradient cx="99.791" cy="421.1395" r="8.9043" gradientUnits="userSpaceOnUse" id="color-43-,0,0,1,-126.97196,205.7673"><stop offset="0" stop-color="#370000"/><stop offset="1" stop-color="#000000"/></radialGradient><radialGradient cx="110.1636" cy="424.9377" r="7.8307" gradientUnits="userSpaceOnUse" id="color-44-,0,0,1,-126.97196,205.7673"><stop offset="0" stop-color="#370000"/><stop offset="1" stop-color="#000000"/></radialGradient><radialGradient cx="106.0137" cy="419.504" r="5.8933" gradientUnits="userSpaceOnUse" id="color-45-,0,0,1,-126.97196,205.7673"><stop offset="0" stop-color="#370000"/><stop offset="1" stop-color="#000000"/></radialGradient><radialGradient cx="105.3229" cy="423.72" r="2.8746" gradientUnits="userSpaceOnUse" id="color-46-,0,0,1,-126.97196,205.7673"><stop offset="0" stop-color="#ff0000"/><stop offset="1" stop-color="#000000"/></radialGradient></defs><g><g data-paper-data="{&quot;isPaintingLayer&quot;:true}" fill-rule="nonzero" stroke-linejoin="miter" stroke-miterlimit="10" stroke-dasharray="" stroke-dashoffset="0" style="mix-blend-mode: normal"><path d="M 168.8241 518.0284 C 175.8722 510.6865 196.4927 503.5179 198.3546 513.1484 C 204.0825 542.9662 199.3523 576.41 185.7608 603.4679 C 180.9571 613.0494 158.6045 609.5287 153.7632 599.9499 C 146.3629 584.6138 156.2226 568.7216 159.1 553.3808 C 161.3858 541.1437 160.3565 526.5844 168.8241 518.0283 Z " data-paper-data="{&quot;origRot&quot;:0}" fill="#ffffff" stroke="#000000" stroke-width="1" stroke-linecap="round"/><path d="M 161.6582 430.8893 C 161.6582 430.8893 177.7344 445.2194 185.7179 464.889 C 191.7587 479.7722 200.0312 511.8534 200.0312 511.8534 L 162.0092 515.0209 C 162.0092 515.0209 146.9602 491.4569 140.3225 475.134 C 133.6848 458.8111 121.9252 434.2102 121.9252 434.2102 Z " data-paper-data="{&quot;origRot&quot;:0}" fill="#ffffff" stroke="#000000" stroke-width="1" stroke-linecap="round"/><g data-paper-data="{&quot;origRot&quot;:0}"><path d="M 138.3856 637.7143 C 136.193 636.9356 137.6025 633.6717 137.7277 631.6112 C 138.9299 623.1102 139.7012 614.7081 141.5848 606.3896 C 142.8642 600.7485 145.8758 582.85 151.8699 575.071 C 155.3523 570.5515 152.4359 589.7364 157.8614 592.8338 C 167.795 598.5264 181.2129 594.0478 191.8644 597.9567 C 194.5265 598.9322 188.5814 612.1153 191.0085 613.9569 C 196.3762 618.0205 205.4613 614.9462 210.0984 619.6912 C 213.1553 622.8196 211.5936 628.8418 210.9437 633.3283 C 210.573 635.8796 209.3052 639.2319 209.3052 639.2319 C 209.3052 639.2319 147.1369 640.8128 138.3856 637.7143 Z " data-paper-data="{&quot;origPos&quot;:null}" fill="url(#color-1-,0,0,1,-126.97196,205.7673)" stroke-width="1" stroke-linecap="round" stroke="none"/><path d="M 138.7481 637.8787 C 135.5737 635.7494 138.6967 628.3601 138.6967 628.3601 C 138.6967 628.3601 151.4431 631.2404 165.4141 632.1345 C 180.7833 633.1182 211.2573 633.1103 211.2573 633.1103 C 211.2573 633.1103 210.7587 639.3734 208.0771 639.7277 C 205.3956 640.082 180.7181 640.6997 164.894 639.6445 C 156.2632 639.0704 141.0659 639.4334 138.7482 637.8787 Z " data-paper-data="{&quot;origPos&quot;:null}" fill="url(#color-2-,0,0,1,-126.97196,205.7673)" stroke-width="1.16035" stroke-linecap="round" stroke="none"/><g data-paper-data="{&quot;origPos&quot;:null}" stroke-linecap="butt"><g data-paper-data="{&quot;origPos&quot;:null}"><path d="M274.85601,425.87444c0,0 4.55731,-10.052 6.04246,-16.76692c1.80593,-8.1651 6.01497,-20.88954 6.01497,-20.88954c0,0 0.52807,-0.0342 1.07409,0.20574c0.77222,0.33935 1.76862,1.2661 1.76862,1.2661l-10.42891,36.69095z" data-paper-data="{&quot;origPos&quot;:null}" fill="url(#color-3)" stroke-width="0" stroke="none" transform="matrix(1,0,0,1,-126.97196,205.7673)"/><path d="M 155.9984 612.7275 C 156.2804 612.8364 156.2371 613.0893 156.2146 613.1712 C 156.2771 613.3841 156.3348 613.5887 156.3579 613.8113 C 156.5802 615.9507 156.6472 616.5982 155.0172 617.9476 C 153.9728 618.7896 155.6014 618.6952 155.2608 620.1129 C 155.1907 620.4047 154.1248 620.9529 153.8926 621.2085 C 152.498 622.7002 154.5965 623.3155 153.0471 625.0213 C 152.0745 626.0616 150.4309 626.7677 151.9874 628.1813 C 152.3779 629.6371 150.1339 630.1259 149.2743 631.0722 C 149.2743 631.0722 149.0301 631.3412 148.7611 631.0969 C 148.4922 630.8527 148.7365 630.5837 148.7365 630.5837 C 149.3063 629.9563 151.1632 628.7211 151.4611 628.6846 C 149.6541 627.0051 151.4218 625.7901 152.5093 624.5328 C 153.5783 623.3558 151.9952 622.2919 153.3548 620.72 C 153.6398 620.4062 154.2627 619.7149 154.6227 619.4427 C 154.1963 619.176 153.4962 618.3011 154.5539 617.388 C 155.4947 616.6091 155.7614 615.1015 155.6352 613.8865 C 155.6141 613.6836 155.5615 613.5256 155.5039 613.3299 L 155.5286 612.9355 C 155.5286 612.9355 155.6595 612.5966 155.9984 612.7276 Z " data-paper-data="{&quot;origPos&quot;:null,&quot;origRot&quot;:0}" fill="#000000" stroke-width="0.5" stroke="none"/><path d="M 156.182 614.5444 C 155.893 614.4556 155.9184 614.2003 155.9351 614.117 C 155.8577 613.9091 155.7858 613.7091 155.7471 613.4886 C 155.3748 611.3701 155.2624 610.729 156.7934 609.2682 C 157.776 608.3548 156.158 608.5637 156.398 607.1255 C 156.4474 606.8295 157.4721 606.2076 157.6857 605.9362 C 158.9719 604.3502 156.8354 603.884 158.2608 602.0734 C 159.1578 600.9673 160.7477 600.1473 159.0956 598.8466 C 158.6036 597.422 160.8077 596.7765 161.5985 595.772 C 161.5985 595.772 161.8232 595.4865 162.1087 595.7112 C 162.3942 595.9359 162.1694 596.2214 162.1694 596.2214 C 161.6451 596.8874 159.8797 598.2502 159.5851 598.3075 C 161.5058 599.8558 159.8281 601.1922 158.8318 602.5229 C 157.8483 603.7721 159.5023 604.722 158.2566 606.3857 C 157.9944 606.7187 157.4217 607.4522 157.0818 607.7491 C 157.5258 607.9851 158.2858 608.8086 157.295 609.7938 C 156.4112 610.6372 156.2513 612.1597 156.4628 613.3628 C 156.498 613.5638 156.5616 613.7176 156.6329 613.9088 L 156.636 614.3039 C 156.636 614.3039 156.5292 614.6512 156.1819 614.5444 Z " data-paper-data="{&quot;origPos&quot;:null,&quot;index&quot;:null}" fill="#000000" stroke-width="0.5" stroke="none"/></g><path d="M281.2556,392.65723l5.73825,-5.01767l2.47109,1.15084l-3.58298,6.31727z" data-paper-data="{&quot;origPos&quot;:null}" fill="#333333" stroke-width="0" stroke="none" transform="matrix(1,0,0,1,-126.97196,205.7673)"/></g><g data-paper-data="{&quot;origPos&quot;:null}" stroke-linecap="butt"><path d="M 189.419 612.7072 C 189.4193 612.7774 189.4116 612.8397 189.3974 612.8951 C 189.4577 612.9842 189.505 613.1103 189.5232 613.2883 C 189.5954 613.9917 189.0712 614.0986 189.0712 614.0986 C 186.9655 614.5282 184.6095 612.9717 182.5698 613.603 C 182.459 613.6256 182.3481 613.6483 182.2373 613.6708 L 181.6884 613.6203 C 181.577 613.6327 181.4437 613.6045 181.3291 613.4596 C 181.2489 613.3776 181.1791 613.2531 181.1571 613.0639 C 181.1202 612.8793 181.1462 612.7258 181.1945 612.6049 C 181.2561 612.4037 181.3715 612.3009 181.4778 612.2486 C 182.625 611.4198 183.6716 610.4832 184.7684 609.575 C 184.3837 609.1198 184.0282 608.6469 183.723 608.1562 L 183.2125 608.0914 C 182.922 608.0544 182.712 607.7074 182.7435 607.3162 C 182.7637 607.0664 182.8774 606.8591 183.0326 606.7513 L 183.5461 606.3824 L 183.5718 606.4483 C 183.9692 606.1894 184.5376 605.5534 185.155 604.8635 C 184.7428 604.5474 184.3367 604.2059 183.9067 603.9726 L 183.9061 603.9747 L 183.2866 603.6794 C 183.0581 603.5781 182.9059 603.2738 182.9332 602.9367 C 182.9533 602.6869 183.067 602.4796 183.2222 602.3718 L 183.7357 602.0029 L 183.8303 602.2453 C 184.1235 601.8053 184.5103 601.4131 184.9499 601.0651 C 184.3886 600.504 183.9082 599.9407 183.6149 599.4559 C 183.8001 597.1893 187.9456 597.4358 189.7292 598.9161 L 189.9013 598.881 L 190.0008 598.5165 L 190.6203 598.8117 C 190.8488 598.9131 191.001 599.2174 190.9737 599.5545 C 190.9465 599.8916 190.7489 600.1515 190.5089 600.1933 C 190.3629 600.2231 190.0898 600.2788 189.8547 600.3268 C 189.7218 600.3539 189.601 600.3785 189.5222 600.3946 C 188.9483 600.362 188.1288 600.856 187.2802 601.4178 C 187.8706 601.8703 188.4369 602.2412 188.8662 602.4458 L 189.1707 602.591 C 189.3992 602.6923 189.5514 602.9966 189.5242 603.3337 C 189.4927 603.7249 189.2315 604.0121 188.9409 603.9752 L 188.2935 603.8929 L 188.2962 603.8594 C 188.0576 604.1236 187.7878 604.3949 187.4996 604.6676 C 190.1227 606.17 189.8596 607.4193 186.9063 609.5414 C 186.8669 609.5696 186.8277 609.5981 186.7885 609.6266 C 187.6227 610.5552 188.4115 611.4928 188.87 611.8581 L 189.1761 612.1172 C 189.1761 612.1172 189.4163 611.9959 189.4189 612.7073 Z M 185.6293 610.5234 C 184.9682 611.0598 184.3253 611.6154 183.6766 612.1561 C 185.1141 612.2617 186.5659 612.7938 187.9977 612.7844 C 187.2543 612.0919 186.4166 611.3389 185.6293 610.5234 Z M 188.061 606.6116 C 187.5035 606.349 186.8464 605.9129 186.4049 605.6459 C 185.6612 606.2811 184.9011 606.8858 184.296 607.3843 C 184.7305 607.5563 185.301 608.0582 185.9005 608.6715 C 186.0706 608.5421 186.2429 608.4142 186.4179 608.2885 C 186.8625 607.9689 187.5105 607.1695 188.061 606.6116 Z M 187.1983 599.7631 C 186.3034 599.6784 185.434 599.456 184.906 599.1919 C 185.2162 599.5676 185.6016 599.9653 186.0175 600.3515 C 186.4041 600.1308 186.804 599.9352 187.1983 599.7631 Z M 187.0959 602.9058 C 186.7888 602.6803 186.4702 602.4297 186.154 602.1645 C 185.6008 602.5181 185.077 602.8117 184.6463 602.9105 C 185.1111 603.2369 185.5625 603.6084 186.0367 603.8979 C 186.3998 603.5158 186.7604 603.1651 187.0959 602.9057 Z " data-paper-data="{&quot;origPos&quot;:null,&quot;origRot&quot;:0}" fill="url(#color-4-,0,0,1,-126.97196,205.7673)" stroke-width="0.5" stroke="none"/><path d="M 190.5246 615.9313 C 190.3038 616.023 190.1264 616.0096 189.9881 615.9516 L 190.0161 615.9803 C 187.119 615.9124 184.343 615.9839 181.5394 615.2128 C 177.1149 613.9958 181.1432 609.1185 181.2092 606.3019 C 181.4848 603.4342 182.2144 600.7949 182.2849 597.786 C 182.2849 597.786 182.3016 597.0747 183.013 597.0914 C 183.7243 597.1081 183.7076 597.8194 183.7076 597.8194 C 183.6588 599.9016 182.2063 604.7462 182.6319 606.3353 C 182.5635 609.2536 179.2295 613.1015 181.9168 613.8407 C 184.6034 614.5797 187.2664 614.4924 190.0494 614.5577 L 190.9088 615.0013 C 190.9088 615.0013 191.1817 615.6585 190.5246 615.9313 Z " data-paper-data="{&quot;origPos&quot;:null}" fill="#1a1a1a" stroke-width="0.5" stroke="none"/></g></g><g data-paper-data="{&quot;origRot&quot;:0}" stroke-linecap="round"><path d="M 203.127 517.4094 C 204.7374 524.3759 204.4723 535.1429 197.8753 538.4206 C 187.8016 543.6625 173.9482 542.7898 163.4631 537.6866 C 158.554 535.2338 162.5919 526.7315 162.3447 521.2484 C 162.5551 516.6476 159.5924 510.1182 163.3561 507.4739 C 170.8686 502.1976 181.6464 499.9318 190.2084 502.177 C 196.9906 503.767 201.6344 510.9649 203.127 517.4095 Z " data-paper-data="{&quot;origPos&quot;:null}" fill="#666666" stroke="#000000" stroke-width="1.5"/><path d="M 202.1868 517.8929 C 203.4954 523.5532 203.2801 532.3011 197.9201 534.9641 C 189.7355 539.2227 178.4797 538.5137 169.961 534.3678 C 165.9726 532.3749 169.2532 525.4669 169.0521 521.0119 C 169.2232 517.2741 166.8162 511.9691 169.8739 509.8205 C 175.9779 505.5338 184.7343 503.6927 191.6908 505.517 C 197.2011 506.8088 200.9743 512.6571 202.1868 517.8929 Z " data-paper-data="{&quot;origPos&quot;:null}" fill="#ffffff" stroke="none" stroke-width="0.81248"/></g><path d="M 109.9654 526.5326 C 119.0871 526.7801 132.8131 540.4687 127.4656 548.4717 C 112.0102 571.5697 86.9903 589.8808 60.5469 598.3743 C 50.1265 601.7166 31.8824 587.653 34.2736 577.2283 C 37.6994 562.3969 57.9788 555.7683 71.1168 546.7953 C 82.8238 538.8431 95.1702 526.0686 109.9654 526.5327 Z " data-paper-data="{&quot;origRot&quot;:0}" fill="#ffffff" stroke="#000000" stroke-width="1" stroke-linecap="round"/><path d="M 90.7869 421.3885 C 90.7869 421.3885 125.5118 397.6685 134.6408 415.2794 C 143.7699 432.8903 148.886 485.6358 140.9761 518.2088 C 138.4437 528.6276 117.1095 530.7917 109.0814 523.6003 C 99.3523 514.4528 102.1981 502.5224 102.1981 502.5224 C 102.1981 502.5224 100.0253 472.6683 97.9133 460.9899 C 94.6865 442.7977 90.787 421.3885 90.787 421.3885 Z " data-paper-data="{&quot;origRot&quot;:0}" fill="#ffffff" stroke="#000000" stroke-width="1" stroke-linecap="round"/><g data-paper-data="{&quot;origRot&quot;:0}"><path d="M 0.1898 604.8756 C -1.1232 602.8847 4.7101 594.6924 7.426 591.6103 C 13.3479 584.8857 19.6299 577.7358 26.4855 572.0446 C 33.2855 566.4006 40.8058 557.8716 48.2032 557.3721 C 51.2379 557.166 39.822 567.803 42.8506 571.8978 C 49.6444 581.0748 63.6092 581.652 72.1334 589.7395 C 74.2641 591.7604 62.2573 601.5247 62.7084 605.2961 C 63.2427 609.5954 70.074 611.1701 70.9154 615.4278 C 71.7911 619.8569 69.0664 624.2085 67.2757 628.2481 C 66.3504 630.2676 62.4997 632.9565 62.4997 632.9565 C 62.4997 632.9565 35.3174 622.4559 22.0701 615.8347 C 14.8442 612.2247 1.6246 607.0512 0.1897 604.8755 Z " data-paper-data="{&quot;origPos&quot;:null}" fill="url(#color-5-,0,0,1,-126.97196,205.7673)" stroke-width="1.16035" stroke-linecap="round" stroke="none"/><path d="M 0.7425 605.1226 C -1.2227 602.1427 4.1344 596.9062 4.1344 596.9062 C 4.1344 596.9062 14.0723 603.9882 25.7818 609.8017 C 38.6633 616.1971 67.1458 628.19 67.1458 628.19 C 67.1458 628.19 63.2141 632.8491 60.7768 632.1862 C 58.3394 631.5234 35.8702 622.7029 22.6228 616.0818 C 15.3969 612.4717 2.1774 607.2982 0.7425 605.1226 Z " data-paper-data="{&quot;origPos&quot;:null}" fill="url(#color-6-,0,0,1,-126.97196,205.7673)" stroke-width="1.16035" stroke-linecap="round" stroke="none"/><g data-paper-data="{&quot;origPos&quot;:null}" stroke-linecap="butt"><g data-paper-data="{&quot;origPos&quot;:null}"><path d="M142.70661,399.19603c0,0 8.61196,-7.99441 12.83389,-13.97648c5.13373,-7.27407 14.50363,-18.03585 14.50363,-18.03585c0,0 0.53259,0.18376 0.96997,0.64407c0.61856,0.65102 1.21552,1.9711 1.21552,1.9711l-25.34109,31.7346z" data-paper-data="{&quot;origPos&quot;:null}" fill="url(#color-7)" stroke-width="0" stroke="none" transform="matrix(1,0,0,1,-126.97196,205.7673)"/><path d="M 31.4868 589.731 C 31.7188 589.954 31.5722 590.1845 31.5164 590.2557 C 31.4902 590.4905 31.4625 590.715 31.3936 590.9432 C 30.7313 593.1353 30.5307 593.7987 28.3748 594.4528 C 27.0027 594.8497 28.6408 595.4272 27.7229 596.6791 C 27.5339 596.9368 26.2616 597.0364 25.9285 597.1918 C 23.9451 598.0825 25.7524 599.5504 23.5291 600.5876 C 22.1459 601.2088 20.2414 601.2256 21.1879 603.2543 C 20.9722 604.8444 18.5676 604.4009 17.3342 604.9763 C 17.3342 604.9763 16.9837 605.1398 16.8201 604.7893 C 16.6566 604.4388 17.0071 604.2752 17.0071 604.2752 C 17.8249 603.8937 20.1566 603.4451 20.4641 603.5319 C 19.3811 601.139 21.6168 600.6735 23.2021 599.8865 C 24.7361 599.1709 23.6195 597.4747 25.6015 596.4908 C 26.0105 596.2999 26.9066 595.8776 27.3721 595.7584 C 27.0633 595.321 26.7359 594.1738 28.1502 593.7125 C 29.3947 593.3349 30.2769 591.9644 30.6531 590.7195 C 30.7158 590.5115 30.7293 590.3347 30.7532 590.1189 L 30.9398 589.7418 C 30.9398 589.7418 31.2078 589.4629 31.4867 589.731 Z " data-paper-data="{&quot;origPos&quot;:null,&quot;origRot&quot;:0}" fill="#000000" stroke-width="0.5" stroke="none"/><path d="M 30.9191 591.5906 C 30.6719 591.3845 30.8019 591.1443 30.8526 591.0694 C 30.8622 590.8333 30.874 590.6073 30.9267 590.3749 C 31.433 588.1416 31.5866 587.4658 33.691 586.6616 C 35.0318 586.1691 33.3571 585.7083 34.1847 584.3949 C 34.355 584.1246 35.6171 583.9357 35.9385 583.7572 C 37.8543 582.7291 35.9482 581.3921 38.093 580.201 C 39.4291 579.484 41.3277 579.3333 40.2408 577.3762 C 40.344 575.7748 42.7739 576.0481 43.9638 575.3873 C 43.9638 575.3873 44.3019 575.1995 44.4898 575.5376 C 44.6775 575.8757 44.3394 576.0636 44.3394 576.0636 C 43.5504 576.5018 41.2561 577.1133 40.9433 577.0484 C 42.192 579.3591 39.9947 579.9808 38.4687 580.8774 C 36.9888 581.6992 38.222 583.3126 36.3141 584.4335 C 35.9196 584.6526 35.0554 585.137 34.5994 585.2887 C 34.9383 585.7033 35.3456 586.8246 33.9673 587.3842 C 32.7524 587.8485 31.9688 589.2777 31.6812 590.546 C 31.6332 590.7579 31.6323 590.9351 31.6236 591.1521 L 31.464 591.5414 C 31.464 591.5414 31.2162 591.8384 30.9192 591.5907 Z " data-paper-data="{&quot;origPos&quot;:null,&quot;index&quot;:null}" fill="#000000" stroke-width="0.5" stroke="none"/></g><path d="M162.66163,369.21392l7.69954,-2.56513l1.95267,2.14705l-6.11814,4.72826z" data-paper-data="{&quot;origPos&quot;:null}" fill="#333333" stroke-width="0" stroke="none" transform="matrix(1,0,0,1,-126.97196,205.7673)"/></g><g data-paper-data="{&quot;origPos&quot;:null}" stroke-linecap="butt"><path d="M 62.7529 604.672 C 62.7247 604.7401 62.6919 604.7974 62.6557 604.8453 C 62.678 604.9561 62.6725 605.0976 62.6179 605.2774 C 62.4021 605.9885 61.8505 605.8792 61.8505 605.8792 C 59.6352 605.4402 57.984 602.9743 55.7506 602.7576 C 55.6339 602.7344 55.5174 602.7114 55.4007 602.6882 L 54.8892 602.4162 C 54.7762 602.3829 54.6585 602.3015 54.6063 602.1145 C 54.5618 602.0024 54.5448 601.8533 54.6002 601.6611 C 54.6395 601.4672 54.7271 601.3289 54.823 601.2314 C 54.9645 601.0614 55.118 601.0087 55.2424 601.0013 C 56.691 600.664 58.0859 600.1814 59.5179 599.7467 C 59.33 599.1492 59.1775 598.5464 59.0811 597.9469 L 58.6127 597.6767 C 58.3461 597.5229 58.2836 597.1012 58.4731 596.7349 C 58.5941 596.5009 58.7886 596.3462 58.9828 596.3048 L 59.6304 596.1558 L 59.6286 596.2301 C 60.1188 596.1407 60.9282 595.7552 61.8069 595.3373 C 61.5358 594.8636 61.2809 594.3675 60.959 593.9667 L 60.9576 593.9685 L 60.4771 593.4307 C 60.2968 593.2396 60.2729 592.8828 60.4362 592.5671 C 60.5573 592.3332 60.7517 592.1785 60.9459 592.1371 L 61.5935 591.9881 L 61.5867 592.2615 C 62.0497 591.9542 62.5839 591.7312 63.1513 591.5725 C 62.8352 590.8006 62.5984 590.0595 62.5111 589.4704 C 63.6115 587.3487 67.5292 589.2719 68.6566 591.4312 L 68.8377 591.4671 L 69.0822 591.1542 L 69.5627 591.692 C 69.743 591.8831 69.7668 592.2399 69.6035 592.5556 C 69.4402 592.8712 69.1431 593.0428 68.8934 592.9858 C 68.7399 592.9554 68.4526 592.8985 68.2052 592.8494 C 68.0654 592.8217 67.9383 592.7965 67.8554 592.7801 C 67.3123 592.5154 66.3174 592.6612 65.2667 592.8609 C 65.655 593.5394 66.0533 594.1289 66.3862 594.5016 L 66.6225 594.766 C 66.8028 594.9571 66.8266 595.3138 66.6633 595.6295 C 66.4738 595.9959 66.104 596.1681 65.8374 596.0143 L 65.2432 595.6715 L 65.2595 595.6401 C 64.9209 595.7993 64.5492 595.9526 64.159 596.0999 C 66.0911 598.6217 65.3285 599.7257 61.6039 600.5826 C 61.5543 600.5941 61.5047 600.6056 61.4551 600.6174 C 61.8864 601.8563 62.2701 603.0855 62.566 603.6259 L 62.7575 604.0014 C 62.7575 604.0014 63.0395 603.9814 62.7531 604.672 Z M 59.967 601.0158 C 59.1083 601.267 58.2595 601.5444 57.411 601.8049 C 58.7614 602.4912 59.9524 603.5967 61.3439 604.1693 C 60.9047 603.196 60.3988 602.1259 59.9669 601.0157 Z M 63.913 598.2121 C 63.4794 597.7311 63.0196 597.0415 62.7002 596.6034 C 61.7214 596.9169 60.7389 597.1942 59.9499 597.4315 C 60.3011 597.7747 60.6503 598.4929 60.9821 599.331 C 61.1996 599.2746 61.4185 599.2207 61.6392 599.1699 C 62.2 599.0409 63.1529 598.5293 63.913 598.2121 Z M 65.859 591.224 C 65.0261 590.7783 64.2737 590.2096 63.8693 589.7391 C 64.0173 590.2293 64.2293 590.7712 64.4757 591.3146 C 64.9399 591.2577 65.407 591.2306 65.8591 591.224 Z M 64.4831 594.2282 C 64.2771 593.885 64.0701 593.5126 63.8714 593.1271 C 63.1915 593.245 62.5646 593.3169 62.107 593.2377 C 62.4249 593.7428 62.7114 594.2863 63.0535 594.7596 C 63.5607 594.5367 64.0527 594.3433 64.4832 594.2282 Z " data-paper-data="{&quot;origPos&quot;:null,&quot;origRot&quot;:0}" fill="#292929" stroke-width="0.5" stroke="none"/><path d="M 62.5146 608.246 C 62.2634 608.2451 62.0968 608.1602 61.9864 608.0477 L 62.0018 608.087 C 59.2214 606.8441 56.5017 605.7857 54.0977 603.8993 C 50.3037 600.9221 56.1895 597.8315 57.3978 595.1285 C 58.83 592.4609 60.6093 590.1992 61.9001 587.3116 C 61.9001 587.3116 62.2053 586.6289 62.888 586.9341 C 63.5707 587.2392 63.2655 587.922 63.2655 587.922 C 62.3722 589.9203 58.9963 594.0257 58.7632 595.7388 C 57.5113 598.5395 52.7166 600.9145 55.0209 602.7227 C 57.3248 604.5305 59.9413 605.5278 62.6121 606.7216 L 63.2648 607.5007 C 63.2648 607.5007 63.2623 608.2485 62.5145 608.246 Z " data-paper-data="{&quot;origPos&quot;:null}" fill="#1a1a1a" stroke-width="0.5" stroke="none"/></g></g><g data-paper-data="{&quot;origRot&quot;:0}" stroke-linecap="round"><path d="M 140.9844 532.6085 C 138.954 539.4642 133.4193 548.7036 126.0638 548.3062 C 114.7148 547.9058 103.0887 540.322 96.4781 530.7161 C 93.4142 526.163 101.1165 520.753 103.6024 515.8596 C 106.0516 511.9594 106.6899 504.8177 111.2678 504.3706 C 120.4049 503.4796 130.9003 506.8168 137.2453 512.9883 C 142.3644 517.7132 142.86 526.2648 140.9843 532.6085 Z " data-paper-data="{&quot;origPos&quot;:null}" fill="#666666" stroke="#000000" stroke-width="1.5"/><path d="M 139.4135 532.0312 C 137.7641 537.6017 133.2673 545.1085 127.2909 544.7857 C 118.0701 544.4602 108.6244 538.2986 103.2532 530.4937 C 100.7638 526.7945 106.9812 522.3771 109.0414 518.4233 C 110.9912 515.2324 111.5489 509.4294 115.2695 509.0889 C 122.6708 508.4109 131.168 511.056 136.3759 516.0908 C 140.4738 519.8987 140.9375 526.8773 139.4134 532.0312 Z " data-paper-data="{&quot;origPos&quot;:null}" fill="#ffffff" stroke="none" stroke-width="0.81248"/></g><path d="M 138.1372 371.0355 C 131.9571 366.5172 142.2524 353.1516 149.4008 349.5332 C 159.018 344.6725 170.7311 349.6014 181.7544 348.8962 C 193.5747 348.1573 206.3163 342.0981 217.2594 346.6459 C 224.384 349.6193 232.0506 361.4869 226.879 366.505 C 217.7065 376.2741 201.6212 375.7404 188.4163 376.3856 C 171.6475 377.2065 151.4649 379.9435 138.1371 371.0356 Z " data-paper-data="{&quot;origRot&quot;:0}" fill="#000000" stroke="#000000" stroke-width="1.5" stroke-linecap="round"/><g data-paper-data="{&quot;origRot&quot;:0}"><path d="M 211.2029 369.5214 C 207.1451 369.1221 202.3798 363.5048 204.2993 360.3075 C 208.2736 353.0514 217.811 351.001 224.321 346.2524 C 227.2339 344.1302 229.4136 340.842 232.3319 338.9642 C 236.2983 336.4137 240.7635 331.3904 245.209 333.0419 C 249.8687 334.7584 250.3823 341.7558 251.5392 346.61 C 252.5106 350.6933 253.7927 355.8793 251.8169 359.7743 C 250.0051 362.6346 245.5494 362.8279 242.1619 363.3174 C 238.5639 363.8379 234.7967 361.38 231.1927 362.0845 C 224.2415 363.4499 218.2684 370.1809 211.2028 369.5214 Z " fill="#ffffff" stroke="#ffffff" stroke-width="2.41239" stroke-linecap="round"/><path d="M 226.3355 345.4722 C 226.3355 345.4722 226.6559 338.0218 228.0839 334.6677 C 229.4843 331.3768 231.6975 328.3151 234.3074 325.8613 C 236.4828 324.1627 239.2536 322.3551 241.9692 322.6283 C 244.1833 322.8586 245.3064 325.638 246.7062 327.3619 C 247.1305 327.8837 247.0163 329.3549 247.0163 329.3549 " fill="none" stroke="#353935" stroke-width="1.20619" stroke-linecap="round"/><path d="M 229.8458 331.3115 C 233.1762 327.1714 237.705 323.8461 242.6945 323.1073 C 245.0075 322.4715 248.3357 326.198 247.3769 328.0129 C 245.8916 330.7878 240.7171 329.8048 238.4714 332.174 C 236.6682 334.0825 237.0008 337.166 235.5943 339.3983 C 234.927 341.2493 233.8854 343.0036 232.3209 344.2837 C 231.249 345.1723 229.6831 346.4105 228.5454 346.0468 C 227.408 345.6833 226.4501 343.8091 226.4922 342.4211 C 226.6128 338.6188 227.4057 334.3117 229.8458 331.3114 Z " fill="#353935" stroke="none" stroke-width="1.20619" stroke-linecap="round"/><path d="M 231.8287 353.9775 C 230.5036 351.981 230.1208 349.3386 230.2935 346.6193 C 230.1881 344.8822 230.1669 342.5935 232.035 340.9208 C 234.5474 338.7207 238.8448 335.8222 241.3298 336.7945 C 244.609 338.0856 244.0808 342.4804 244.9831 345.5321 C 246.015 349.1496 249.5818 352.9162 247.6399 357.1904 C 246.4713 359.7154 240.7299 359.7679 237.8348 359.2552 C 234.7626 358.7118 233.238 356.1563 231.8286 353.9774 Z " fill="#000000" stroke="none" stroke-width="1.67373" stroke-linecap="round"/><g stroke-linecap="round"><path d="M 234.1214 334.9841 C 235.4741 332.5059 239.5402 331.5224 242.3659 330.2614 C 245.1024 329.0542 248.1998 326.9713 250.8301 327.3598 C 253.1265 327.7001 255.0093 330.1057 254.0183 332.1128 C 252.8127 334.5517 249.0269 335.9302 246.2216 337.3703 C 243.1468 338.7701 239.4927 341.1204 236.6329 340.4891 C 234.2025 339.9531 232.9278 337.048 234.1214 334.9841 Z " stroke-width="0.54163" fill="#353935" stroke="none"/><path d="M 236.9621 341.8496 C 238.3149 339.3715 242.3809 338.3879 245.2066 337.127 C 247.9431 335.9198 251.0406 333.8367 253.6708 334.2253 C 255.9672 334.5656 257.85 336.9712 256.859 338.9783 C 255.6534 341.4172 251.8676 342.7957 249.0622 344.2358 C 245.9874 345.6356 242.3334 347.9858 239.4735 347.3546 C 237.0432 346.8185 235.7684 343.9134 236.9621 341.8496 Z " stroke-width="0.54163" fill="#353935" stroke="none"/><path d="M 239.9974 349.0907 C 241.3502 346.6126 245.4162 345.6291 248.242 344.368 C 250.9784 343.1608 254.0759 341.0778 256.7061 341.4664 C 259.0025 341.8067 260.8854 344.2124 259.8944 346.2194 C 258.6887 348.6583 254.903 350.0368 252.0976 351.4769 C 249.0228 352.8767 245.3687 355.227 242.5089 354.5957 C 240.0786 354.0597 238.8038 351.1546 239.9975 349.0907 Z " stroke-width="0.54163" fill="#353935" stroke="none"/><path d="M 244.0237 356.176 C 245.3765 353.6979 249.4426 352.7144 252.2683 351.4534 C 255.0047 350.2462 258.1023 348.1632 260.7325 348.5518 C 263.0288 348.892 264.9117 351.2977 263.9207 353.3048 C 262.7151 355.7437 258.9293 357.1222 256.1239 358.5623 C 253.0492 359.962 249.3951 362.3123 246.5352 361.681 C 244.1049 361.145 242.8302 358.24 244.0238 356.1761 Z " stroke-width="0.54163" fill="#353935" stroke="none"/></g><path d="" fill="#eac18d" stroke="none" stroke-width="1.20619" stroke-linecap="butt" transform="matrix(1,0,0,1,-126.97196,205.7673)"/></g><path d="M 149.1739 288.0518 C 152.468 284.0112 162.4789 286.0742 164.4765 291.3007 C 168.6927 302.508 163.1426 315.3866 163.256 327.1897 C 162.8859 340.7733 170.5719 356.0335 163.6347 367.5228 C 159.4237 374.472 143.3397 372.8483 138.3441 365.6898 C 131.3179 355.4111 134.4501 340.6112 136.0808 327.5469 C 137.8068 313.8009 140.3556 298.7309 149.1739 288.0516 Z " data-paper-data="{&quot;origRot&quot;:0}" fill="#000000" stroke="#000000" stroke-width="1.5" stroke-linecap="round"/><path d="M 153.0006 377.2117 C 146.5389 376.4217 137.4865 372.7611 135.2577 366.041 C 134.0353 360.5949 140.4328 353.9419 145.899 352.1729 C 156.5465 348.7352 168.3779 354.4388 179.5101 352.7585 C 191.0029 351.6398 201.4612 343.4469 213.0977 343.8583 C 218.7084 344.0679 223.0959 350.3838 225.2296 355.5823 C 226.8984 359.6589 227.2032 366.7644 223.5698 369.8714 C 218.7006 374.0342 211.1547 374.3561 204.6676 374.88 C 187.6491 376.2619 170.0955 379.2888 153.0007 377.2116 Z " data-paper-data="{&quot;origRot&quot;:0}" fill="#ffffff" stroke="none" stroke-width="1.00573" stroke-linecap="round"/><path d="M 147.7502 289.3151 C 150.8807 285.0727 161.89 282.6873 163.4951 287.5835 C 167.1088 298.6312 158.7412 310.49 158.837 322.2813 C 158.4255 336.4112 168.2306 351.8403 162.552 364.896 C 159.4626 371.9835 143.2808 372.6094 139.4426 365.7145 C 131.8459 353.5378 135.5859 337.231 137.1504 322.5266 C 138.3842 310.9849 140.933 298.5563 147.7503 289.3151 Z " data-paper-data="{&quot;origRot&quot;:0}" fill="#ffffff" stroke="none" stroke-width="1.00573" stroke-linecap="round"/><g data-paper-data="{&quot;origRot&quot;:0}"><path d="M217.17919,222.36972c0,0 -0.5552,-33.866 -3.81229,-55.21527c-2.24874,-14.73982 -14.12879,-53.80509 -3.31781,-84.69239c10.81102,-30.88728 73.04847,-21.50804 80.10986,-5.08096c7.06139,16.42711 1.04006,72.36916 0.82827,84.81923c-0.37471,22.033 0.87569,56.36325 0.87569,56.36325z" data-paper-data="{&quot;origPos&quot;:null}" fill="#000000" stroke="none" stroke-width="0" stroke-linecap="butt" transform="matrix(1,0,0,1,-126.97196,205.7673)"/><path d="M 80.6901 299.1243 C 82.0458 290.1742 84.4177 279.9131 92.1635 280.98 C 99.9093 282.0469 110.8101 286.7961 116.0703 292.5123 C 119.3368 296.0747 122.7412 323.031 117.5985 328.3758 C 113.0289 333.4487 84.5192 335.6384 82.4086 331.3672 C 77.8439 322.0783 78.985 310.3816 80.6901 299.1243 Z " data-paper-data="{&quot;origPos&quot;:null,&quot;index&quot;:null}" fill="#ffffff" stroke="#000000" stroke-width="2" stroke-linecap="round"/><path d="M 167.2555 327.899 C 165.59 332.3627 137.0055 333.0827 131.9438 328.5005 C 126.2843 323.7062 126.9307 296.5435 129.8182 292.6675 C 134.47 286.4462 144.8315 280.6134 152.4287 278.7645 C 160.0259 276.9158 163.4287 286.8825 165.6872 295.6484 C 168.528 306.674 170.8522 318.1942 167.2555 327.899 Z " data-paper-data="{&quot;origPos&quot;:null}" fill="#ffffff" stroke="#000000" stroke-width="2" stroke-linecap="round"/><path d="M 162.6353 338.8311 C 167.2534 345.1131 164.9164 354.4421 164.4279 362.2513 C 163.8432 367.2949 163.4082 373.5679 159.4751 376.7305 C 155.6782 379.8052 132.2213 379.4672 127.9708 375.6404 C 124.3456 372.4437 123.6724 345.4232 128.2579 340.1337 C 132.049 335.4778 159.3079 334.3103 162.6353 338.831 Z " data-paper-data="{&quot;origPos&quot;:null}" fill="#ffffff" stroke="#000000" stroke-width="2" stroke-linecap="round"/><path d="M 119.6211 340.2532 C 123.1305 345.1151 124.8012 371.3749 121.1493 376.1166 C 118.2576 379.7922 93.8101 380.0587 89.2578 376.2443 C 84.0548 371.885 83.8603 363.5446 82.7264 356.8094 C 82.0406 350.6984 78.892 341.8676 83.8813 338.3307 C 90.3971 333.7156 117.3474 337.0714 119.6211 340.2532 Z " data-paper-data="{&quot;origPos&quot;:null}" fill="#ffffff" stroke="#000000" stroke-width="2" stroke-linecap="round"/><path d="M 156.3331 427.4441 L 91.9487 428.6287 L 90.0164 386.7956 L 157.5722 385.1499 Z " data-paper-data="{&quot;origPos&quot;:null}" fill="url(#color-8-,0,0,1,-126.97196,205.7673)" stroke="#000000" stroke-width="2" stroke-linecap="round"/><g><path d="M 145.0445 290.9886 L 149.994 290.9664 L 149.6911 298.5805 L 156.9372 298.4415 L 157.1596 302.8051 L 149.7812 302.6055 L 150.934 325.2272 L 146.3289 325.2319 L 145.5205 302.5923 L 138.2978 303.1907 L 138.1046 299.4013 L 145.6953 299.2448 Z " stroke-width="0.15376" stroke-linecap="round" fill="#000000" stroke="none"/><g stroke-linecap="butt"><path d="M 158.7635 324.3752 C 158.78 324.7005 158.6789 324.8506 158.4621 324.8617 C 156.875 325.015 155.2864 325.1322 153.6993 325.2856 C 153.5908 325.2911 153.5185 325.2948 153.4462 325.2985 C 153.4315 325.0094 153.3843 324.7943 153.3714 324.5413 C 153.3659 324.4328 153.4669 324.2827 153.5753 324.2772 C 153.8247 324.192 154.0759 324.1429 154.3614 324.0559 C 154.8257 323.9232 154.8925 323.8111 154.8686 323.3412 C 154.817 322.3291 154.8359 321.2768 154.7481 320.2666 C 154.6346 318.7499 154.4469 317.2009 154.3334 315.6843 C 154.2892 314.8167 154.3191 313.9814 154.2749 313.1138 C 154.2436 312.4991 154.2104 311.8484 154.1411 311.1996 C 154.0456 311.4581 153.9449 311.7163 153.8183 311.9771 C 153.3131 313.0535 152.7491 313.9179 152.1896 314.8692 C 151.7335 315.6526 151.1232 316.1893 150.6804 316.9034 C 150.2892 317.5388 149.9218 318.1677 149.469 318.7412 C 149.1393 319.1534 149.0125 320.2202 148.569 319.9288 C 146.6233 318.5038 145.7333 316.6981 144.2639 315.1101 C 143.3962 314.1513 142.4071 313.2274 141.5461 312.2763 C 141.3309 312.0392 141.3904 312.0668 141.3488 311.9602 L 141.2765 311.9639 C 141.3133 312.6868 141.3502 313.4101 141.387 314.133 C 141.5116 315.8665 141.638 317.6362 141.7264 319.3716 C 141.7928 320.6728 141.7886 322.0143 141.8188 323.3177 C 141.8354 323.643 141.8881 323.9665 141.9409 324.29 C 141.9899 324.5412 142.2142 324.675 142.469 324.6983 C 142.6516 324.7252 142.7962 324.7178 142.9769 324.7087 C 143.23 324.6957 143.2735 324.8385 143.2465 325.0211 C 143.2214 325.2399 143.2306 325.4206 143.2417 325.6374 C 143.2509 325.8182 143.1424 325.8237 142.9979 325.8311 C 142.3852 325.8985 141.7722 325.966 141.1939 325.9955 C 140.5451 326.0648 139.9303 326.0961 139.2815 326.1655 C 139.0646 326.1765 138.9543 326.1459 138.9776 325.891 C 139.0027 325.6723 138.9555 325.4572 138.9463 325.2765 C 138.9352 325.0596 139.04 324.9818 139.255 324.9346 C 139.5424 324.8837 139.8296 324.8329 140.0775 324.7112 C 140.1479 324.6714 140.249 324.5213 140.2453 324.449 C 140.239 323.6157 140.1949 322.748 140.1887 321.9147 C 140.1787 321.0092 140.205 320.1015 140.1932 319.1599 C 140.1803 318.9065 140.1656 318.6173 140.1165 318.3662 C 139.9639 317.5042 139.954 316.5984 139.906 315.6585 C 139.836 314.2846 139.7317 312.9487 139.6617 311.5752 C 139.6377 311.105 139.612 310.5989 139.5518 310.1309 C 139.463 309.8092 139.2387 309.6757 138.9131 309.6923 C 138.877 309.6941 138.8408 309.696 138.8408 309.696 C 138.1883 309.693 138.0706 309.5175 138.184 308.8956 C 138.1803 308.8233 138.3193 308.7075 138.3916 308.7038 C 138.6808 308.6891 138.97 308.6743 139.2594 308.6596 C 140.1288 308.6515 140.9948 308.5711 141.8261 308.5288 C 142.2961 308.5048 142.36 308.772 142.5749 308.998 C 143.5764 310.0021 144.1441 310.9643 144.9207 311.9958 C 145.9606 313.2076 146.9277 314.4998 148.029 315.7337 C 148.3047 316.0426 148.0799 316.0283 148.3543 315.7172 C 149.6578 314.2733 150.8963 312.7503 152.008 311.3084 C 152.6057 310.5364 152.9576 309.5831 153.5856 308.8356 C 153.8629 308.5054 154.0168 308.0525 154.5954 308.0231 C 155.6094 308.0076 156.6561 307.9181 157.6701 307.9026 C 157.887 307.8916 157.9648 307.9963 157.9758 308.2132 C 158.0035 308.7557 158.0035 308.7557 157.427 308.8213 C 156.8486 308.8508 156.6605 308.7151 156.7047 309.583 C 156.7415 310.3059 156.7766 310.993 156.8495 311.7141 C 156.8625 311.9671 156.9115 312.2183 156.9244 312.4713 C 156.987 313.7006 157.0478 314.8937 157.1104 316.1228 C 157.1896 317.6774 157.2309 319.1977 157.3101 320.7523 C 157.3543 321.6199 157.3624 322.4895 157.3723 323.395 C 157.3963 323.8653 157.5139 324.0405 157.9857 324.0527 C 158.1303 324.0453 158.2786 324.1102 158.4213 324.0667 C 158.7429 323.9778 158.754 324.1947 158.7632 324.3754 Z " stroke-width="0.12102" fill="#000000" stroke="none"/></g></g><g><g><path d="M 97.8687 490.5959 C 97.8687 490.5959 98.1834 491.0474 98.2207 490.9137 C 98.3254 490.5363 98.2121 490.0168 98.1524 489.5744 C 98.1216 489.3463 98.0002 489.138 97.951 488.9132 C 97.8543 488.4736 97.8388 488.0153 97.7152 487.5825 C 97.6327 487.2935 97.4735 487.0306 97.3376 486.7626 C 97.2251 486.54 97.0595 486.3424 96.9689 486.1098 C 96.8012 485.6811 96.5892 485.2474 96.5658 484.7877 C 96.5059 483.6119 96.6875 482.4321 96.7215 481.2551 C 96.7299 480.9608 96.6585 480.8067 96.6874 480.5853 C 96.7396 480.1822 96.91 479.7994 96.9622 479.3964 C 96.9911 479.1751 96.9295 478.9785 96.9281 478.7269 C 96.9226 477.7203 96.9421 475.7048 96.9421 475.7048 " fill="none" stroke="#7f7f7f" stroke-width="0.89665" stroke-linecap="round"/><path d="M 95.2451 470.6377 C 93.9339 469.9396 93.6573 464.9387 92.0659 462.5057 C 91.2284 461.223 88.9663 461.2886 88.2486 459.9355 C 86.4725 456.5867 85.861 452.7195 84.9288 449.0455 C 84.3221 446.651 84.5338 444.0395 83.6349 441.739 C 83.0775 440.3112 81.2475 439.6302 80.6902 438.2027 C 79.7912 435.9021 79.0787 433.347 79.3962 430.8959 C 79.5626 429.6064 81.1409 428.9638 82.0129 427.9977 C 82.8853 427.0317 83.9284 426.1953 84.63 425.0996 C 85.3694 423.945 85.2743 422.2598 86.2811 421.3294 C 87.2088 420.4728 88.6501 420.2871 89.9111 420.2228 C 91.1724 420.1586 92.6249 420.1968 93.6348 420.9547 C 94.731 421.7779 94.9861 423.3445 95.6606 424.5375 C 96.3351 425.7308 97.366 426.788 97.6864 428.1206 C 98.5495 431.7097 98.9799 435.4182 99.1678 439.1043 C 99.2935 441.5713 98.9056 444.05 98.6233 446.5045 C 98.4788 447.7599 97.9062 448.965 97.8914 450.2282 C 97.8486 453.9057 98.7237 457.59 98.4536 461.2587 C 98.3537 462.626 97.2471 463.7328 96.8025 465.0292 C 96.1754 466.8637 96.1925 471.1428 95.2452 470.6378 Z " fill="none" stroke="#7f7f7f" stroke-width="0.61539" stroke-linecap="round"/><path d="M 83.7135 426.3728 C 84.0397 426.6668 84.2533 427.0851 84.2774 427.5577 C 84.3015 428.0306 84.1315 428.4682 83.8369 428.7941 C 83.5429 429.12 83.1249 429.3335 82.652 429.3577 C 82.1794 429.3817 81.7415 429.2118 81.416 428.9175 C 81.0898 428.6232 80.8762 428.2052 80.8521 427.7323 C 80.828 427.2597 80.998 426.8218 81.2926 426.4962 C 81.5865 426.17 82.0048 425.9564 82.4775 425.9323 C 82.9503 425.9082 83.3879 426.0782 83.7136 426.3728 Z " fill="url(#color-9-,0,0,1,-126.97196,205.7673)" stroke="none" stroke-width="0.13489" stroke-linecap="butt"/><path d="M 80.8479 428.9149 C 81.1741 429.2089 81.3877 429.6272 81.4118 430.0998 C 81.4359 430.5727 81.2659 431.0103 80.9713 431.3362 C 80.6773 431.662 80.2593 431.8756 79.7864 431.8997 C 79.3138 431.9238 78.8759 431.7539 78.5504 431.4596 C 78.2242 431.1653 78.0106 430.7473 77.9865 430.2744 C 77.9624 429.8018 78.1324 429.3639 78.427 429.0383 C 78.7209 428.7121 79.1392 428.4985 79.6119 428.4744 C 80.0847 428.4503 80.5223 428.6203 80.848 428.9149 Z " fill="url(#color-10-,0,0,1,-126.97196,205.7673)" stroke="none" stroke-width="0.13489" stroke-linecap="butt"/><path d="M 80.3067 432.9859 C 80.6328 433.2798 80.8464 433.6981 80.8705 434.1707 C 80.8946 434.6436 80.7246 435.0812 80.43 435.4071 C 80.136 435.733 79.718 435.9466 79.2451 435.9707 C 78.7725 435.9947 78.3346 435.8248 78.0091 435.5305 C 77.6829 435.2362 77.4693 434.8182 77.4452 434.3453 C 77.4211 433.8727 77.5911 433.4348 77.8857 433.1092 C 78.1796 432.7831 78.598 432.5694 79.0706 432.5454 C 79.5434 432.5213 79.981 432.6912 80.3067 432.9859 Z " fill="url(#color-11-,0,0,1,-126.97196,205.7673)" stroke="none" stroke-width="0.13489" stroke-linecap="butt"/><path d="M 81.8338 436.5022 C 82.1599 436.7961 82.3735 437.2144 82.3976 437.6871 C 82.4217 438.1599 82.2517 438.5975 81.9571 438.9234 C 81.6631 439.2493 81.2451 439.4629 80.7722 439.487 C 80.2996 439.5111 79.8617 439.3411 79.5362 439.0468 C 79.21 438.7526 78.9964 438.3345 78.9723 437.8616 C 78.9482 437.389 79.1182 436.9512 79.4128 436.6255 C 79.7067 436.2994 80.1251 436.0858 80.5977 436.0617 C 81.0705 436.0376 81.5081 436.2076 81.8338 436.5022 Z " fill="url(#color-12-,0,0,1,-126.97196,205.7673)" stroke="none" stroke-width="0.13489" stroke-linecap="butt"/><path d="M 84.391 439.6665 C 84.7172 439.9604 84.9308 440.3788 84.9548 440.8514 C 84.979 441.3243 84.809 441.7618 84.5144 442.0877 C 84.2204 442.4136 83.8024 442.6272 83.3294 442.6513 C 82.8568 442.6754 82.419 442.5054 82.0934 442.2111 C 81.7672 441.9169 81.5536 441.4988 81.5295 441.0259 C 81.5055 440.5534 81.6754 440.1155 81.97 439.7898 C 82.264 439.4637 82.6823 439.2501 83.1549 439.226 C 83.6278 439.2019 84.0654 439.3719 84.391 439.6665 Z " fill="url(#color-13-,0,0,1,-126.97196,205.7673)" stroke="none" stroke-width="0.13489" stroke-linecap="butt"/><path d="M 85.3586 443.9601 C 85.6847 444.254 85.8983 444.6724 85.9224 445.145 C 85.9465 445.6179 85.7766 446.0555 85.4819 446.3813 C 85.188 446.7072 84.7699 446.9208 84.297 446.9449 C 83.8244 446.969 83.3865 446.799 83.061 446.5047 C 82.7348 446.2105 82.5212 445.7925 82.4971 445.3195 C 82.473 444.847 82.643 444.4091 82.9376 444.0834 C 83.2315 443.7573 83.6499 443.5437 84.1225 443.5196 C 84.5954 443.4955 85.033 443.6655 85.3586 443.9601 Z " fill="url(#color-14-,0,0,1,-126.97196,205.7673)" stroke="none" stroke-width="0.13489" stroke-linecap="butt"/><path d="M 86.2957 447.6562 C 86.6219 447.9502 86.8355 448.3685 86.8596 448.8411 C 86.8837 449.314 86.7137 449.7516 86.4191 450.0775 C 86.1251 450.4033 85.7071 450.6169 85.2342 450.6411 C 84.7616 450.6651 84.3237 450.4952 83.9981 450.2009 C 83.6719 449.9066 83.4584 449.4886 83.4343 449.0157 C 83.4102 448.5431 83.5801 448.1052 83.8747 447.7796 C 84.1687 447.4534 84.587 447.2398 85.0596 447.2157 C 85.5325 447.1916 85.9701 447.3616 86.2957 447.6562 Z " fill="url(#color-15-,0,0,1,-126.97196,205.7673)" stroke="none" stroke-width="0.13489" stroke-linecap="butt"/><path d="M 87.2557 451.8005 C 87.5819 452.0944 87.7955 452.5128 87.8196 452.9854 C 87.8437 453.4583 87.6737 453.8958 87.3791 454.2217 C 87.0851 454.5476 86.6671 454.7612 86.1942 454.7853 C 85.7216 454.8094 85.2837 454.6394 84.9581 454.3451 C 84.6319 454.0509 84.4184 453.6328 84.3943 453.1599 C 84.3702 452.6873 84.5401 452.2495 84.8347 451.9238 C 85.1287 451.5977 85.547 451.3841 86.0196 451.36 C 86.4925 451.3359 86.9301 451.5059 87.2557 451.8005 Z " fill="url(#color-16-,0,0,1,-126.97196,205.7673)" stroke="none" stroke-width="0.13489" stroke-linecap="butt"/><path d="M 88.1928 455.4966 C 88.519 455.7905 88.7326 456.2089 88.7567 456.6815 C 88.7808 457.1544 88.6108 457.5919 88.3162 457.9178 C 88.0222 458.2437 87.6042 458.4573 87.1313 458.4814 C 86.6587 458.5055 86.2208 458.3355 85.8953 458.0412 C 85.5691 457.747 85.3555 457.3289 85.3314 456.856 C 85.3073 456.3835 85.4773 455.9456 85.7719 455.62 C 86.0658 455.2938 86.4841 455.0802 86.9568 455.0561 C 87.4296 455.032 87.8672 455.202 88.1929 455.4966 Z " fill="url(#color-17-,0,0,1,-126.97196,205.7673)" stroke="none" stroke-width="0.13489" stroke-linecap="butt"/><path d="M 90.4668 458.9749 C 90.793 459.2688 91.0066 459.6872 91.0307 460.1598 C 91.0548 460.6327 90.8848 461.0702 90.5902 461.3961 C 90.2962 461.722 89.8782 461.9356 89.4053 461.9597 C 88.9327 461.9838 88.4948 461.8138 88.1692 461.5195 C 87.843 461.2253 87.6295 460.8072 87.6053 460.3343 C 87.5813 459.8618 87.7512 459.4239 88.0458 459.0983 C 88.3398 458.7721 88.7581 458.5585 89.2307 458.5344 C 89.7036 458.5103 90.1412 458.6803 90.4668 458.9749 Z " fill="url(#color-18-,0,0,1,-126.97196,205.7673)" stroke="none" stroke-width="0.13489" stroke-linecap="butt"/><g stroke-linecap="butt"><path d="M 92.8755 461.7815 C 93.287 461.9349 93.6398 462.2449 93.8364 462.6757 C 94.033 463.1063 94.0362 463.5758 93.8822 463.9871 C 93.7289 464.3986 93.4189 464.751 92.9883 464.9476 C 92.5577 465.1442 92.0883 465.1474 91.677 464.9938 C 91.2655 464.8405 90.9127 464.5304 90.7161 464.0999 C 90.5195 463.6693 90.5163 463.1996 90.6702 462.7883 C 90.8236 462.3767 91.1336 462.0243 91.5642 461.8277 C 91.9947 461.6311 92.4642 461.6279 92.8755 461.7815 Z " fill="url(#color-19-,0,0,1,-126.97196,205.7673)" stroke-width="0.13489" stroke="none"/><path d="M 94.395 465.1485 C 94.8065 465.3018 95.1593 465.6119 95.3559 466.0427 C 95.5524 466.4733 95.5557 466.9427 95.4017 467.354 C 95.2484 467.7656 94.9384 468.118 94.5078 468.3146 C 94.0772 468.5112 93.6077 468.5144 93.1965 468.3608 C 92.7849 468.2074 92.4322 467.8974 92.2356 467.4669 C 92.039 467.0363 92.0358 466.5665 92.1897 466.1553 C 92.3431 465.7437 92.6531 465.3913 93.0837 465.1947 C 93.5142 464.9981 93.9837 464.9949 94.3949 465.1485 Z " fill="url(#color-20-,0,0,1,-126.97196,205.7673)" stroke-width="0.13489" stroke="none"/></g><path d="M 88.5875 419.6151 C 89.1391 420.1124 89.5005 420.8196 89.5412 421.6191 C 89.5819 422.4185 89.2944 423.1588 88.7962 423.7096 C 88.299 424.2612 87.5917 424.6225 86.7923 424.6633 C 85.9929 424.704 85.2528 424.4165 84.7017 423.9183 C 84.1504 423.4211 83.7891 422.7138 83.7484 421.9144 C 83.7077 421.115 83.9952 420.3746 84.4931 419.8238 C 84.9906 419.2725 85.6976 418.9112 86.497 418.8705 C 87.2964 418.8298 88.0368 419.1173 88.5876 419.6152 Z " fill="url(#color-21-,0,0,1,-126.97196,205.7673)" stroke="none" stroke-width="0.22813" stroke-linecap="butt"/><path d="M 96.6676 421.9687 C 96.9937 422.2627 97.2073 422.681 97.2314 423.1536 C 97.2555 423.6265 97.0855 424.0641 96.7909 424.39 C 96.4969 424.7159 96.0789 424.9295 95.606 424.9536 C 95.1334 424.9776 94.6955 424.8077 94.37 424.5134 C 94.0438 424.2191 93.8302 423.8011 93.8061 423.3282 C 93.782 422.8556 93.952 422.4177 94.2466 422.0921 C 94.5405 421.7659 94.9588 421.5523 95.4315 421.5282 C 95.9043 421.5041 96.3419 421.6741 96.6676 421.9687 Z " fill="url(#color-22-,0,0,1,-126.97196,205.7673)" stroke="none" stroke-width="0.13489" stroke-linecap="butt"/><path d="M 98.6655 425.9103 C 98.9917 426.2042 99.2053 426.6225 99.2294 427.0951 C 99.2535 427.568 99.0835 428.0056 98.7889 428.3315 C 98.4949 428.6574 98.0769 428.871 97.6039 428.8951 C 97.1313 428.9192 96.6935 428.7492 96.3679 428.4549 C 96.0417 428.1606 95.8281 427.7426 95.804 427.2697 C 95.78 426.7971 95.9499 426.3592 96.2445 426.0336 C 96.5385 425.7075 96.9568 425.4939 97.4294 425.4698 C 97.9023 425.4457 98.3399 425.6156 98.6655 425.9103 Z " fill="url(#color-23-,0,0,1,-126.97196,205.7673)" stroke="none" stroke-width="0.13489" stroke-linecap="butt"/><path d="M 99.6407 430.3532 C 99.9669 430.6472 100.1805 431.0655 100.2046 431.5381 C 100.2287 432.011 100.0587 432.4486 99.7641 432.7745 C 99.4701 433.1003 99.0521 433.3139 98.5791 433.338 C 98.1065 433.3621 97.6687 433.1922 97.3431 432.8979 C 97.0169 432.6036 96.8033 432.1856 96.7792 431.7127 C 96.7552 431.2401 96.9251 430.8022 97.2197 430.4766 C 97.5137 430.1504 97.932 429.9368 98.4046 429.9127 C 98.8775 429.8886 99.3151 430.0586 99.6407 430.3532 Z " fill="url(#color-24-,0,0,1,-126.97196,205.7673)" stroke="none" stroke-width="0.13489" stroke-linecap="butt"/><path d="M 99.8919 435.2825 C 100.2181 435.5764 100.4317 435.9948 100.4558 436.4674 C 100.4799 436.9402 100.3099 437.3778 100.0153 437.7037 C 99.7213 438.0296 99.3033 438.2432 98.8303 438.2673 C 98.3578 438.2914 97.9199 438.1214 97.5943 437.8271 C 97.2681 437.5329 97.0546 437.1148 97.0304 436.6419 C 97.0064 436.1693 97.1763 435.7315 97.4709 435.4058 C 97.7649 435.0797 98.1832 434.8661 98.6558 434.842 C 99.1287 434.8179 99.5663 434.9879 99.8919 435.2825 Z " fill="url(#color-25-,0,0,1,-126.97196,205.7673)" stroke="none" stroke-width="0.13489" stroke-linecap="butt"/><path d="M 100.2772 439.9052 C 100.6033 440.1992 100.8169 440.6175 100.841 441.0901 C 100.8651 441.563 100.6952 442.0006 100.4005 442.3265 C 100.1066 442.6523 99.6885 442.8659 99.2156 442.89 C 98.743 442.9141 98.3051 442.7442 97.9796 442.4498 C 97.6534 442.1556 97.4398 441.7376 97.4157 441.2647 C 97.3916 440.7921 97.5616 440.3542 97.8562 440.0286 C 98.1501 439.7024 98.5685 439.4888 99.0411 439.4647 C 99.514 439.4406 99.9516 439.6106 100.2772 439.9052 Z " fill="url(#color-26-,0,0,1,-126.97196,205.7673)" stroke="none" stroke-width="0.13489" stroke-linecap="butt"/><path d="M 100.2222 444.7002 C 100.5484 444.9941 100.762 445.4125 100.7861 445.8851 C 100.8102 446.358 100.6402 446.7955 100.3456 447.1214 C 100.0516 447.4473 99.6336 447.6609 99.1607 447.685 C 98.6881 447.7091 98.2502 447.5391 97.9246 447.2448 C 97.5984 446.9506 97.3849 446.5325 97.3608 446.0596 C 97.3367 445.587 97.5066 445.1492 97.8012 444.8235 C 98.0952 444.4974 98.5135 444.2838 98.9861 444.2597 C 99.459 444.2356 99.8966 444.4056 100.2222 444.7002 Z " fill="url(#color-27-,0,0,1,-126.97196,205.7673)" stroke="none" stroke-width="0.13489" stroke-linecap="butt"/><path d="M 99.8606 449.361 C 100.1867 449.6549 100.4004 450.0733 100.4244 450.5459 C 100.4486 451.0188 100.2786 451.4564 99.9839 451.7822 C 99.69 452.1081 99.272 452.3217 98.799 452.3458 C 98.3264 452.3699 97.8886 452.1999 97.563 451.9056 C 97.2368 451.6114 97.0232 451.1934 96.9991 450.7205 C 96.975 450.2479 97.145 449.81 97.4396 449.4844 C 97.7335 449.1582 98.1519 448.9446 98.6245 448.9205 C 99.0974 448.8964 99.535 449.0664 99.8606 449.361 Z " fill="url(#color-28-,0,0,1,-126.97196,205.7673)" stroke="none" stroke-width="0.13489" stroke-linecap="butt"/><path d="M 99.7826 453.7079 C 100.1088 454.0018 100.3224 454.4202 100.3465 454.8928 C 100.3706 455.3657 100.2006 455.8033 99.906 456.1291 C 99.612 456.455 99.194 456.6686 98.721 456.6927 C 98.2485 456.7168 97.8106 456.5468 97.485 456.2525 C 97.1588 455.9583 96.9453 455.5403 96.9211 455.0674 C 96.8971 454.5948 97.067 454.1569 97.3616 453.8313 C 97.6556 453.5051 98.0739 453.2915 98.5465 453.2674 C 99.0194 453.2433 99.457 453.4133 99.7826 453.7079 Z " fill="url(#color-29-,0,0,1,-126.97196,205.7673)" stroke="none" stroke-width="0.13489" stroke-linecap="butt"/><path d="M 99.5781 458.5105 C 99.9043 458.8045 100.1179 459.2228 100.142 459.6954 C 100.1661 460.1683 99.9961 460.6059 99.7015 460.9318 C 99.4075 461.2577 98.9895 461.4713 98.5165 461.4954 C 98.0439 461.5195 97.6061 461.3495 97.2805 461.0552 C 96.9543 460.7609 96.7407 460.3429 96.7166 459.87 C 96.6926 459.3974 96.8625 458.9595 97.1571 458.6339 C 97.4511 458.3077 97.8694 458.0942 98.342 458.0701 C 98.8149 458.0459 99.2525 458.2159 99.5781 458.5105 Z " fill="url(#color-30-,0,0,1,-126.97196,205.7673)" stroke="none" stroke-width="0.13489" stroke-linecap="butt"/><path d="M 98.4773 463.3587 C 98.8034 463.6527 99.0171 464.071 99.0411 464.5436 C 99.0653 465.0165 98.8953 465.4541 98.6007 465.78 C 98.3067 466.1059 97.8887 466.3195 97.4157 466.3436 C 96.9431 466.3676 96.5053 466.1977 96.1797 465.9034 C 95.8535 465.6091 95.6399 465.1911 95.6158 464.7182 C 95.5917 464.2456 95.7617 463.8077 96.0563 463.4821 C 96.3502 463.1559 96.7686 462.9423 97.2412 462.9182 C 97.7141 462.8941 98.1517 463.0641 98.4773 463.3587 Z " fill="url(#color-31-,0,0,1,-126.97196,205.7673)" stroke="none" stroke-width="0.13489" stroke-linecap="butt"/><path d="M 98.6031 469.7736 C 99.2974 470.5738 99.7594 471.704 99.8241 472.9742 C 99.8889 474.2447 99.5443 475.416 98.9349 476.2827 C 98.3258 477.1491 97.4526 477.7108 96.4593 477.7614 C 95.4663 477.8121 94.5402 477.342 93.8462 476.542 C 93.1522 475.7418 92.6903 474.6116 92.6255 473.341 C 92.5608 472.0708 92.9055 470.8995 93.5145 470.0329 C 94.1236 469.1662 94.9971 468.6044 95.9901 468.5538 C 96.9834 468.5032 97.9092 468.9733 98.6032 469.7736 Z " fill="#b2b2b2" stroke="none" stroke-width="0.11208" stroke-linecap="butt"/><path d="M 97.2978 478.0293 C 97.7093 478.1826 98.0621 478.4926 98.2586 478.9235 C 98.4552 479.354 98.4585 479.8235 98.3045 480.2348 C 98.1512 480.6463 97.8411 480.9988 97.4106 481.1954 C 96.98 481.392 96.5105 481.3952 96.0993 481.2415 C 95.6877 481.0882 95.335 480.7782 95.1384 480.3476 C 94.9418 479.9171 94.9385 479.4473 95.0925 479.036 C 95.2458 478.6245 95.5559 478.272 95.9864 478.0755 C 96.417 477.8789 96.8865 477.8756 97.2977 478.0293 Z " fill="url(#color-32-,0,0,1,-126.97196,205.7673)" stroke="none" stroke-width="0.13489" stroke-linecap="butt"/><path d="M 96.9133 482.242 C 97.3249 482.3954 97.6776 482.7054 97.8742 483.1362 C 98.0708 483.5668 98.074 484.0363 97.9201 484.4476 C 97.7667 484.8591 97.4567 485.2116 97.0261 485.4081 C 96.5956 485.6047 96.1261 485.608 95.7148 485.4543 C 95.3033 485.301 94.9505 484.9909 94.754 484.5604 C 94.5574 484.1299 94.5541 483.6601 94.7081 483.2488 C 94.8614 482.8372 95.1714 482.4848 95.602 482.2882 C 96.0326 482.0916 96.502 482.0884 96.9133 482.242 Z " fill="url(#color-33-,0,0,1,-126.97196,205.7673)" stroke="none" stroke-width="0.13489" stroke-linecap="butt"/><path d="M 98.7535 486.4071 C 99.0796 486.701 99.2932 487.1194 99.3173 487.592 C 99.3414 488.0648 99.1714 488.5024 98.8768 488.8283 C 98.5829 489.1542 98.1648 489.3678 97.6919 489.3919 C 97.2193 489.416 96.7814 489.246 96.4559 488.9517 C 96.1297 488.6575 95.9161 488.2394 95.892 487.7665 C 95.8679 487.2939 96.0379 486.8561 96.3325 486.5304 C 96.6264 486.2043 97.0448 485.9907 97.5174 485.9666 C 97.9903 485.9425 98.4279 486.1125 98.7535 486.4071 Z " fill="url(#color-34-,0,0,1,-126.97196,205.7673)" stroke="none" stroke-width="0.13489" stroke-linecap="butt"/><path d="M 100.5162 493.1467 L 103.6801 492.6497 L 103.6919 496.174 L 100.8629 496.6539 L 100.8641 506.5569 L 97.0135 506.7531 L 96.0249 497.2359 L 91.9984 497.2733 L 91.9868 493.749 L 95.8372 493.5527 L 95.6666 490.2045 L 100.1868 489.9741 Z " fill="#b2b2b2" stroke="none" stroke-width="0.11208" stroke-linecap="round"/><path d="M 98.9883 504.5549 L 97.6957 492.3677 " fill="none" stroke="#7f7f7f" stroke-width="0.22417" stroke-linecap="round"/><path d="M 94.8103 495.0323 L 100.6783 494.9014 " fill="none" stroke="#7f7f7f" stroke-width="0.22417" stroke-linecap="round"/></g><path d="M 162.9603 435.0433 L 89.9014 435.472 L 88.9708 423.0897 L 159.9966 420.9676 Z " fill="#000000" stroke="none" stroke-width="1" stroke-linecap="round"/><g><g><g><path d="M 172.1903 428.1266 L 177.9957 421.591 L 178.2915 459.6893 L 169.5006 454.2702 L 165.9109 427.1886 Z " fill="#363a37" stroke="none" stroke-width="1.16316" stroke-linecap="round"/><path d="M 169.4143 408.0124 L 169.6789 423.6849 L 148.694 418.8138 L 147.8453 391.7852 Z " fill="#000000" stroke="none" stroke-width="0.87338" stroke-linecap="round"/><path d="M 176.4863 437.519 L 177.0225 469.2559 L 172.5193 469.3321 L 171.9828 437.5951 Z " fill="url(#color-35-,0,0,1,-126.97196,205.7673)" stroke="url(#color-36-,0,0,1,-126.97196,205.7673)" stroke-width="0.20059" stroke-linecap="round"/><path d="M 187.2052 417.2239 C 187.2218 418.2139 187.0183 419.1162 186.6747 419.7725 C 186.331 420.4289 185.847 420.8393 185.3068 420.8486 C 184.7663 420.8576 184.2688 420.4636 183.9033 419.8194 C 183.5373 419.1749 183.3036 418.2799 183.287 417.29 C 183.2701 416.3001 183.4736 415.3978 183.8173 414.7414 C 184.1609 414.085 184.645 413.6743 185.1854 413.6653 C 185.7256 413.656 186.223 414.05 186.589 414.6945 C 186.9546 415.339 187.1883 416.234 187.2052 417.2239 Z " fill="#ff0000" stroke="none" stroke-width="0.78683" stroke-linecap="butt"/><path d="M 171.0071 384.3636 L 179.3855 393.1058 L 179.9801 405.1147 L 183.7836 398.257 L 183.6081 411.0628 L 180.2074 418.567 L 180.3995 429.9296 L 175.3651 441.2498 L 164.9036 440.6427 L 161.1669 397.3328 Z " fill="#000000" stroke="none" stroke-width="0.87338" stroke-linecap="round"/><path d="M 187.2629 394.5434 L 187.7927 418.1807 L 185.9046 414.6852 L 184.0808 414.9773 L 182.7037 418.5278 L 182.2998 394.6273 Z " fill="#000000" stroke="none" stroke-width="0.87338" stroke-linecap="round"/></g><path d="M 173.2349 486.7009 L 173.2349 486.7009 L 173.2086 486.5078 L 173.2086 486.5078 Z " fill="#cccccc" stroke="none" stroke-width="0.65058" stroke-linecap="butt"/></g><path d="M 184.9973 470.7601 L 166.7212 470.6432 L 158.9368 453.0692 L 151.9886 419.5786 L 182.5005 421.7675 Z " fill="#353935" stroke="none" stroke-width="1" stroke-linecap="round"/></g><g stroke-linecap="butt"><path d="M 153.7557 439.5559 L 140.3126 440.2409 L 139.0947 416.3421 L 152.5377 415.657 Z " fill="#cccc00" stroke="#000000" stroke-width="1"/><path d="M 143.9102 418.7413 C 144.265 419.0617 144.498 419.52 144.5242 420.0338 C 144.5503 420.5476 144.3652 421.0273 144.0448 421.3821 C 143.7244 421.7369 143.2661 421.9699 142.7523 421.996 C 142.2385 422.0222 141.7588 421.837 141.404 421.5167 C 141.0492 421.1963 140.8162 420.738 140.79 420.2241 C 140.7639 419.7103 140.9491 419.2307 141.2694 418.8759 C 141.5898 418.5211 142.0481 418.2881 142.562 418.2619 C 143.0758 418.2357 143.5554 418.4209 143.9102 418.7413 Z " fill="#ff0000" stroke="none" stroke-width="1"/></g><g><path d="M 135.4972 453.0526 L 119.3198 453.4784 L 118.2575 413.1459 L 134.4348 412.7198 Z " fill="url(#color-37-,0,0,1,-126.97196,205.7673)" stroke-width="0.29645" stroke-linecap="butt" stroke="none"/><path d="M 136.6774 453.7617 L 126.1325 457.5473 L 118.0777 454.8363 L 117.7636 451.3366 L 136.6004 450.8406 Z " fill="#666666" stroke-width="0.25105" stroke-linecap="round" stroke="none"/><path d="M 133.4558 451.3321 L 131.9046 451.3731 L 130.9126 413.6996 L 132.4638 413.6589 Z " fill="#666666" stroke-width="0.29645" stroke-linecap="butt" stroke="none"/><path d="M 130.1318 451.4197 L 128.8022 451.4549 L 127.7984 413.3381 L 129.1279 413.3033 Z " fill="#666666" stroke-width="0.29645" stroke-linecap="butt" stroke="none"/><path d="M 133.8346 407.3369 C 135.263 407.7056 136.4758 409.2366 136.4435 410.5947 C 136.417 411.7324 135.4087 412.3711 133.6795 413.0191 C 131.9502 413.667 129.5505 414.1025 126.8908 414.1725 C 124.2314 414.2428 121.8121 413.9338 120.0511 413.3778 C 118.2901 412.8221 117.1875 412.0199 117.1635 411.1026 C 117.1391 410.1849 118.1982 409.3259 119.9272 408.6779 C 121.6565 408.0303 124.4118 407.7617 126.7159 407.5245 C 129.0908 407.28 131.5985 406.5487 133.8347 407.3369 Z " fill="#b2b2b2" stroke-width="0.31402" stroke-linecap="round" stroke="none"/><path d="M 121.489 451.6475 L 120.1594 451.6823 L 119.1671 414.0089 L 120.4969 413.9741 Z " fill="#666666" stroke-width="0.29645" stroke-linecap="butt" stroke="none"/><path d="M 112.3732 417.0707 L 112.3732 417.0707 L 112.3791 417.2924 L 112.3791 417.2924 Z " fill="#666666" stroke-width="0.29645" stroke-linecap="butt" stroke="none"/><path d="M 135.8109 414.4578 L 116.9742 414.9538 L 116.881 411.4081 L 134.598 410.4977 L 133.3499 405.2085 L 138.8086 410.387 Z " fill="#666666" stroke-width="0.29645" stroke-linecap="round" stroke="none"/><path d="M 127.3646 438.1698 L 121.1596 438.3333 L 120.8678 427.2531 L 127.0728 427.0896 Z " fill="#000000" stroke-width="0.29645" stroke-linecap="butt" stroke="none"/><path d="M 124.4897 430.3709 C 124.9051 430.8813 125.1721 431.5946 125.1931 432.3897 C 125.2142 433.185 124.9849 433.9113 124.5969 434.4429 C 124.2101 434.9757 123.6645 435.3129 123.0528 435.3291 C 122.4411 435.3453 121.8788 435.037 121.4643 434.5256 C 121.0489 434.0149 120.7819 433.3016 120.7609 432.5066 C 120.7402 431.7115 120.9694 430.9852 121.3571 430.4533 C 121.7439 429.9205 122.2895 429.5833 122.9012 429.5674 C 123.5129 429.5512 124.0755 429.8592 124.4897 430.3709 Z " fill="#ff0000" stroke-width="0.29645" stroke-linecap="butt" stroke="none"/><path d="M 96.2971 433.461 C 96.3572 433.4594 96.3946 433.4584 96.3946 433.4584 C 96.3946 433.4584 96.3572 433.4594 96.2971 433.461 C 96.2367 433.4626 96.1535 433.4648 96.0623 433.4673 C 95.9707 433.4695 95.8876 433.4717 95.8271 433.4736 C 95.767 433.4752 95.7296 433.4762 95.7296 433.4762 C 95.7296 433.4762 95.767 433.4752 95.8271 433.4736 C 95.8876 433.4717 95.9707 433.4696 96.0623 433.4673 C 96.1535 433.4647 96.2366 433.4626 96.2971 433.461 Z " fill="#ff0000" stroke-width="0.29645" stroke-linecap="butt" stroke="none"/></g><g stroke-linecap="butt"><path d="M 137.3012 433.206 L 125.6505 433.7997 L 125.1557 424.0908 L 136.8064 423.4971 Z " fill="url(#color-38-,0,0,1,-126.97196,205.7673)" stroke-width="0.81818" stroke="none"/><path d="M 115.1211 424.6023 L 125.5768 424.0694 L 126.0716 433.7783 L 115.6158 434.3112 Z " fill="url(#color-39-,0,0,1,-126.97196,205.7673)" stroke-width="0.79778" stroke="none"/></g><g stroke-linecap="butt"><g><path d="M 111.9463 418.4514 C 114.2935 420.571 115.8328 423.5843 116.0063 426.9878 C 116.1798 430.3913 114.9547 433.5456 112.8351 435.8924 C 110.7156 438.2396 107.7022 439.779 104.2987 439.9525 C 100.8953 440.1259 97.7409 438.9008 95.3941 436.7813 C 93.047 434.662 91.5076 431.6487 91.3341 428.2452 C 91.1607 424.8417 92.3857 421.6874 94.5053 419.3403 C 96.6245 416.9934 99.6379 415.454 103.0414 415.2806 C 106.4449 415.1071 109.5992 416.3322 111.9463 418.4514 Z " fill="#000000" stroke-width="0.10389" stroke="none"/><path d="M 92.0887 428.1123 C 91.7731 421.9204 96.7344 416.6352 103.1704 416.3072 C 109.6063 415.9792 114.6407 420.8077 114.9562 426.9993 C 115.2718 433.1915 110.7484 438.4017 104.3128 438.7296 C 97.8771 439.0576 92.4042 434.3041 92.0887 428.1123 Z " fill="url(#color-40-,0,0,1,-126.97196,205.7673)" stroke-width="0.10389" stroke="none"/><path d="M 106.0051 420.798 C 106.4845 420.959 109.0293 423.8361 109.2526 424.5154 C 109.4762 425.1946 107.0933 428.0913 106.5488 428.3503 C 106.0046 428.609 102.0118 427.4221 101.6688 427.0164 C 101.3262 426.611 100.7578 422.4761 101.1575 421.961 C 101.5577 421.4461 105.5261 420.637 106.005 420.798 Z " fill="#000000" stroke-width="0.10389" stroke="none"/><path d="M 98.6361 433.847 C 97.9554 434.8428 97.0733 436.5938 95.8778 436.1965 C 94.1451 435.6148 92.6411 433.6479 92.5589 431.8229 C 92.4946 430.4032 94.4246 429.5498 95.7297 429.0167 C 97.4913 428.2976 102.2923 426.3972 101.3394 428.2797 Z " fill="url(#color-41-,0,0,1,-126.97196,205.7673)" stroke-width="0.10389" stroke="none"/><path d="M 109.3669 438.2918 L 104.8668 439.7677 C 103.9429 439.4764 103.9648 437.6494 104.2033 436.5504 C 104.5461 434.4606 104.8457 431.2726 106.543 430.5658 C 107.8265 430.034 109.4499 432.6089 109.9464 434.1572 C 110.4996 435.4801 109.3669 438.2919 109.3669 438.2919 Z " fill="url(#color-42-,0,0,1,-126.97196,205.7673)" stroke-width="0.10389" stroke="none"/><path d="M 91.999 423.8896 L 95.5619 418.9224 C 96.3271 418.3581 97.5927 418.6844 98.3272 419.2388 C 99.3221 419.8731 100.9123 421.1713 100.2486 422.1435 C 99.0967 423.8361 96.7351 424.2787 94.6586 424.7068 C 93.7519 424.8943 91.9989 423.8896 91.9989 423.8896 Z " fill="url(#color-43-,0,0,1,-126.97196,205.7673)" stroke-width="0.10389" stroke="none"/><path d="M 113.9889 422.2056 C 115.0736 424.4308 115.2787 427.2025 114.9148 429.6881 C 114.8145 430.3656 113.5289 429.3996 112.9977 429.0079 C 111.7616 427.9853 110.058 427.0989 109.725 425.5342 C 109.501 424.4892 110.9363 423.3258 111.6955 422.9912 Z " fill="url(#color-44-,0,0,1,-126.97196,205.7673)" stroke-width="0.10389" stroke="none"/><path d="M 102.9068 416.0358 L 106.346 415.9932 L 109.3338 417.4367 C 109.3338 417.4367 109.3371 418.448 108.991 418.7026 C 108.0696 419.3824 106.8688 420.5512 105.6938 420.3103 C 104.4338 420.0361 103.6515 418.5649 102.8883 417.4663 C 102.6494 417.0504 102.9068 416.0358 102.9068 416.0358 Z " fill="url(#color-45-,0,0,1,-126.97196,205.7673)" stroke-width="0.10389" stroke="none"/></g><path d="M 106.2212 422.8647 C 106.5572 423.1683 106.7777 423.5998 106.8026 424.0876 C 106.8275 424.5752 106.6519 425.0268 106.3486 425.363 C 106.0449 425.6989 105.6135 425.9195 105.1259 425.9443 C 104.6381 425.9692 104.1864 425.7936 103.8502 425.4903 C 103.5143 425.1867 103.294 424.7552 103.2691 424.2677 C 103.2443 423.7799 103.4195 423.3283 103.7229 422.992 C 104.0265 422.656 104.458 422.4357 104.9458 422.4109 C 105.4334 422.386 105.885 422.5613 106.2212 422.8647 Z " fill="url(#color-46-,0,0,1,-126.97196,205.7673)" stroke-width="0.2957" stroke="none"/></g></g></g><g data-paper-data="{&quot;origRot&quot;:0}"><g data-paper-data="{&quot;origPos&quot;:null}"><path d="M 124.2562 213.1869 C 132.1864 213.8635 140.8654 215.2237 147.0799 220.1851 C 151.8947 224.0254 154.0885 231.0843 153.5233 237.1245 C 152.9106 250.3551 152.029 265.274 143.6935 275.6179 C 137.6127 283.1509 125.3086 286.747 116.0596 284.6315 C 107.2364 282.6121 101.0228 273.4633 96.7767 265.4702 C 91.4019 255.6024 88.9423 244.0036 90.2931 233.0028 C 90.5355 225.992 95.2932 218.8316 101.2311 215.2218 C 107.8555 211.1921 116.6037 212.1763 124.256 213.187 Z " fill="#ffd499" stroke="none" stroke-width="1" stroke-linecap="butt"/><path d="M 147.8925 278.7154 C 147.8925 278.7154 95.0976 276.3572 88.3031 266.0536 C 78.6719 251.8614 79.3074 224.553 79.3074 224.553 C 79.3074 224.553 77.6182 200.2718 78.5497 200.2172 C 79.4511 200.1643 109.1632 202.6998 109.1632 202.6998 C 109.1632 202.6998 128.7364 204.2655 143.1901 214.2404 C 154.7309 222.2052 162.607 242.4519 165.9274 252.5866 C 169.2477 262.7214 172.0191 278.5506 172.0191 278.5506 Z " data-paper-data="{&quot;origPos&quot;:null}" fill="#ffffff" stroke="#000000" stroke-width="2" stroke-linecap="round"/><g stroke-linecap="butt"><path d="M 81.0706 221.7873 L 120.5915 223.9868 L 119.9894 234.8062 L 81.5636 232.6382 Z " data-paper-data="{&quot;origPos&quot;:null}" stroke-width="1.05383" fill="#ff0000" stroke="none"/><path d="M 81.8163 235.0333 L 105.0436 236.3358 L 104.8847 239.1909 L 82.2049 237.9042 Z " data-paper-data="{&quot;origPos&quot;:null}" stroke-width="0.50239" fill="#ff0000" stroke="none"/></g><path d="M 164.4749 251.6016 L 165.5343 259.6495 L 121.9895 256.6233 C 121.9895 256.6233 100.9311 254.8182 100.0851 238.522 C 99.4328 225.9565 119.6048 226.3436 119.6048 226.3436 L 152.2133 228.1583 Z " fill="#000000" stroke="#000000" stroke-width="2" stroke-linecap="round"/><path d="M 107.2574 228.8219 C 111.5976 226.6185 121.0982 226.1614 121.8505 226.6193 C 122.5589 227.0536 114.6117 229.4995 111.0389 231.2934 C 108.4748 232.839 104.5257 237.2256 103.5082 236.6022 C 102.5667 236.0222 104.7887 230.3305 107.2573 228.8219 Z " fill="#ffffff" stroke="none" stroke-width="1" stroke-linecap="round"/></g><path d="M 97.828 242.8174 L 87.0134 249.9347 L 85.6301 241.818 Z " data-paper-data="{&quot;origPos&quot;:null}" fill="#000000" stroke="none" stroke-width="1" stroke-linecap="round"/></g><path d="M 149.3971 340.0513 C 143.1361 335.2362 154.985 322.2562 163.0229 318.4652 C 172.7755 313.9226 184.3363 319.3161 195.3782 319.0159 C 207.2176 318.7113 220.173 313.1238 230.9419 318.07 C 237.9526 321.3029 245.1786 333.4438 239.8262 338.2687 C 230.3013 347.6945 214.1641 346.6697 201.0267 346.7311 C 183.6847 346.858 161.8598 349.9812 149.3971 340.0513 Z " data-paper-data="{&quot;origRot&quot;:0}" fill="#000000" stroke="#000000" stroke-width="1.5" stroke-linecap="round"/><path d="M590.04198,-122.73102c0,0 38.40155,31.14084 54.87584,74.04728c10.05847,26.19672 -4.91935,75.64567 -8.49093,91.66729c-9.90323,44.42444 -94.91104,98.76466 -94.91104,98.76466c0,0 7.07456,-36.03657 3.98097,-64.76398c-1.5977,-14.8366 -12.2765,-26.74513 -14.64729,-32.79091c-7.67576,-19.57406 -32.42167,-34.12581 -32.42167,-34.12581c0,0 19.34154,-18.34735 30.48,-32.50366c18.27784,-23.23004 61.13411,-100.29484 61.13411,-100.29484z" data-paper-data="{&quot;origRot&quot;:0}" fill="url(#color-47)" stroke="none" stroke-width="0" stroke-linecap="butt" transform="matrix(1,0,0,1,-126.97196,205.7673)"/><path d="M 85.034 310.0567 C 82.007 305.8122 86.641 296.7019 92.2096 296.1558 C 104.1326 295.0496 115.0876 303.8043 126.5016 306.8126 C 139.5051 310.7575 155.2726 308.4057 165.5023 317.1009 C 171.3088 322.0498 172.484 336.7763 165.6707 338.9981 C 150.9902 344.2883 134.1128 338.5201 119.6682 333.1172 C 106.6669 328.3004 93.0047 321.3828 85.034 310.0568 Z " data-paper-data="{&quot;origRot&quot;:0}" fill="#000000" stroke="#000000" stroke-width="1.5" stroke-linecap="round"/><path d="M251.56972,151.92336c4.79356,-28.13589 58.92056,-103.44498 58.92056,-103.44498c0,0 13.57216,35.74726 25.21362,48.23808c10.16001,10.90125 40.79773,22.58936 40.79773,22.58936l-94.97295,99.16232c0,0 -34.81835,-38.02266 -29.95898,-66.54479z" data-paper-data="{&quot;index&quot;:null,&quot;origRot&quot;:0}" fill="url(#color-48)" stroke="none" stroke-width="0" stroke-linecap="butt" transform="matrix(1,0,0,1,-126.97196,205.7673)"/><g data-paper-data="{&quot;index&quot;:null,&quot;origRot&quot;:0}"><path d="M433.87866,162.6403c0,0 -13.9122,7.98203 -25.97006,9.4641c-12.28053,1.50953 -36.39393,-1.79848 -36.39393,-1.79848c0,0 -0.74052,5.74695 7.17708,9.42988c8.38519,3.90029 34.59686,10.00097 34.59686,10.00097c0,0 -20.8087,12.13805 -35.73455,11.98466c-8.16999,-0.08397 -23.44559,-12.5928 -23.44559,-12.5928c0,0 -7.1813,14.58806 -2.10934,21.11053c10.95902,14.09319 43.41589,16.34411 43.41589,16.34411c0,0 -27.73085,16.49053 -41.64484,10.19723c-13.39047,-6.05641 -30.6333,-29.15187 -30.6333,-29.15187c0,0 -2.45589,15.45366 4.09422,26.82599c9.71097,16.85987 35.48271,30.83063 35.48271,30.83063c0,0 -37.46318,-1.19495 -55.68718,-11.95929c-17.34888,-10.24719 -22.36466,-28.52948 -15.70816,-47.54734c15.12777,-43.22081 121.52359,-130.41305 121.52359,-130.41305c0,0 -25.41959,41.87803 -20.60656,61.84578c3.39677,14.09227 41.64303,25.42889 41.64303,25.42889z" data-paper-data="{&quot;origPos&quot;:null}" fill="#000000" stroke="none" stroke-width="NaN" stroke-linecap="butt" transform="matrix(1,0,0,1,-126.97196,205.7673)"/><path d="M562.44636,-202.50016c0,0 55.38783,13.89409 70.29036,35.0613c7.26663,10.32122 -6.56324,46.88634 -6.56324,46.88634l-115.42976,110.06869c0,0 25.14379,-29.4777 16.14127,-69.70562c-3.04462,-13.60441 -48.71411,-19.67265 -48.71411,-19.67265c0,0 34.86091,-22.69455 55.42328,-27.62114c18.21275,-4.36382 43.93311,3.81546 43.93311,3.81546c0,0 -8.86454,-17.52563 -19.3074,-23.50898c-16.00009,-9.16762 -48.44962,-15.31398 -48.44962,-15.31398c0,0 32.1706,-13.36407 50.87657,-11.5806c16.58215,1.58102 39.54472,20.20178 39.54472,20.20178c0,0 -0.95001,-14.28047 -7.73414,-23.02129c-7.94639,-10.238 -30.0114,-25.60913 -30.0114,-25.60913z" data-paper-data="{&quot;origPos&quot;:null}" fill="#000000" stroke="none" stroke-width="0" stroke-linecap="butt" transform="matrix(1,0,0,1,-126.97196,205.7673)"/><path d="M 179.2215 447.6339 C 150.3366 411.5227 185.6379 378.3253 185.6379 378.3253 L 476.5172 109.2761 C 476.5172 109.2761 507.2331 70.8775 498.0615 58.7833 " data-paper-data="{&quot;origPos&quot;:null}" fill="none" stroke="#000000" stroke-width="3" stroke-linecap="round"/><path d="M456.55974,68.94288c0,0 -53.32006,40.43914 -59.41182,62.93835c-4.33085,15.99559 42.02298,21.37067 32.21002,34.72462c-9.9574,13.55054 -48.81772,4.40379 -48.81772,4.40379c0,0 40.9597,5.95573 28.43946,23.58484c-12.7358,17.93246 -49.89621,8.79502 -49.89621,8.79502c0,0 50.47072,3.77498 41.11037,21.46154c-6.02681,11.38756 -15.62424,13.25379 -28.36029,15.20215c-24.65446,3.77153 -44.32657,-24.03964 -44.32657,-24.03964l37.09362,57.60065c0,0 -44.82356,-5.87319 -61.93918,-19.1672c-20.34393,-15.80143 -26.54084,-40.93708 -14.82278,-63.8771c37.40021,-73.21641 144.22217,-150.86577 144.22217,-150.86577z" data-paper-data="{&quot;origRot&quot;:0,&quot;origPos&quot;:null}" fill="url(#color-49)" stroke="none" stroke-width="0" stroke-linecap="butt" transform="matrix(1,0,0,1,-126.97196,205.7673)"/><path d="M483.37595,-8.35306c0,0 41.28318,-26.54542 42.96607,-53.67917c1.68288,-27.13429 -33.65863,-23.08808 -49.90741,-35.65177c-19.49705,-15.07539 86.92869,-37.0805 86.92869,-37.0805c0,0 -53.11817,-13.72029 -52.47378,-28.39141c0.72862,-16.58686 24.23933,-20.15117 40.81942,-19.28284c15.59037,0.81645 37.84927,14.78036 37.84927,14.78036l-23.07608,-38.10892c0,0 46.01547,12.15537 62.4983,34.30652c9.73425,13.08168 29.50894,22.01866 -12.10947,75.99773c-41.61838,53.97891 -113.19022,111.3438 -113.19022,111.3438z" data-paper-data="{&quot;origRot&quot;:0,&quot;origPos&quot;:null,&quot;index&quot;:null}" fill="url(#color-50)" stroke="none" stroke-width="0" stroke-linecap="butt" transform="matrix(1,0,0,1,-126.97196,205.7673)"/><path d="M504.6322,-6.59819c12.64847,12.99206 31.42111,10.20489 26.5868,14.91143c-4.22745,4.11571 -16.88453,0.54707 -20.58598,5.1415c-3.48338,4.32366 6.08645,15.56548 0.53481,15.65588c-10.10912,0.16468 -14.80234,-14.90292 -21.85497,-22.14726c-12.64857,-12.99212 -24.3825,-19.01082 -19.54821,-23.71729c4.88122,-4.75218 13.97959,6.24373 19.99009,3.03686c5.93231,-3.16523 4.20363,-19.60755 10.6955,-17.85647c8.47125,2.28495 -1.93845,18.68845 4.18206,24.97524z" data-paper-data="{&quot;origPos&quot;:null,&quot;origRot&quot;:0,&quot;index&quot;:null}" fill="url(#color-51)" stroke="none" stroke-width="0" stroke-linecap="butt" transform="matrix(1,0,0,1,-126.97196,205.7673)"/><path d="M436.87779,61.85589c-12.64847,-12.99206 -31.42107,-10.20493 -26.58679,-14.91139c4.22745,-4.11571 16.88454,-0.54696 20.58598,-5.1415c3.48338,-4.32366 -6.08658,-15.56546 -0.53489,-15.65592c10.10912,-0.16468 14.80238,14.90281 21.85507,22.14722c12.64857,12.99212 24.3825,19.01086 19.54821,23.71739c-4.88122,4.75218 -13.97959,-6.24373 -19.99009,-3.03686c-5.93231,3.16523 -4.20363,19.60755 -10.69546,17.85647c-8.47123,-2.28508 1.9384,-18.68845 -4.18211,-24.9752z" data-paper-data="{&quot;origPos&quot;:null,&quot;origRot&quot;:0}" fill="url(#color-52)" stroke="none" stroke-width="0" stroke-linecap="butt" transform="matrix(1,0,0,1,-126.97196,205.7673)"/><g data-paper-data="{&quot;origPos&quot;:null}" stroke-linecap="butt"><path d="M469.46303,27.87727c-14.68199,13.1228 -29.9794,19.96247 -34.16747,15.27689c-4.1882,-4.68578 4.31887,-19.12261 19.00095,-32.2454c14.68199,-13.1228 29.9794,-19.96247 34.16748,-15.27683c4.18806,4.6858 -4.31874,19.12251 -19.00097,32.24547z" data-paper-data="{&quot;origRot&quot;:0,&quot;origPos&quot;:null}" fill="#401616" stroke-width="0" stroke="none" transform="matrix(1,0,0,1,-126.97196,205.7673)"/><path d="M504.8616,12.51677c0,0 -10.98897,18.97886 -20.75038,28.17989c-10.90553,10.27934 -32.20629,21.73628 -32.20629,21.73628l-19.79424,-21.00005c0,0 20.07517,-11.83487 29.98012,-21.17121c10.76208,-10.14413 22.97656,-28.74493 22.97656,-28.74493z" data-paper-data="{&quot;origRot&quot;:0,&quot;origPos&quot;:null}" fill="#181818" stroke-width="0" stroke="none" transform="matrix(1,0,0,1,-126.97196,205.7673)"/></g></g><g data-paper-data="{&quot;origRot&quot;:0}"><g stroke-linecap="round"><path d="M 247.5223 297.2671 C 248.8316 294.4174 253.2618 293.0158 256.2964 291.4016 C 259.2363 289.8542 262.5087 287.3084 265.4532 287.5376 C 268.024 287.7383 270.2947 290.26 269.3508 292.5597 C 268.2018 295.3551 264.1123 297.1728 261.1138 298.9833 C 257.8141 300.7704 253.9448 303.6551 250.7278 303.1745 C 247.9932 302.7669 246.3582 299.6454 247.5222 297.2671 Z " stroke-width="0.60163" fill="#363a36" stroke="none"/><path d="M 251.2565 304.4031 C 252.5658 301.5534 256.996 300.1519 260.0306 298.5377 C 262.9705 296.9902 266.2428 294.4445 269.1873 294.6736 C 271.7582 294.8744 274.0288 297.396 273.0849 299.6957 C 271.9359 302.4911 267.8464 304.3088 264.8479 306.1193 C 261.5481 307.9064 257.6788 310.7911 254.4619 310.3105 C 251.7272 309.9029 250.0923 306.7814 251.2562 304.4031 Z " stroke-width="0.60163" fill="#363a36" stroke="none"/><path d="M 255.0819 312.4445 C 256.3912 309.5948 260.8214 308.1933 263.856 306.5791 C 266.7959 305.0316 270.0682 302.4859 273.0128 302.715 C 275.5836 302.9158 277.8542 305.4375 276.9103 307.7372 C 275.7613 310.5325 271.6719 312.3503 268.6734 314.1608 C 265.3737 315.9478 261.5043 318.8326 258.2873 318.352 C 255.5527 317.9443 253.9178 314.8229 255.0817 312.4446 Z " stroke-width="0.60163" fill="#363a36" stroke="none"/><path d="M 259.9908 319.9565 C 261.3001 317.1068 265.7303 315.7053 268.7649 314.0911 C 271.7047 312.5436 274.9771 309.9979 277.9216 310.227 C 280.4924 310.4278 282.7631 312.9495 281.8192 315.2491 C 280.6702 318.0445 276.5807 319.8622 273.5822 321.6727 C 270.2825 323.4598 266.4131 326.3445 263.1962 325.8639 C 260.4616 325.4562 258.8266 322.3348 259.9905 319.9565 Z " stroke-width="0.60163" fill="#363a36" stroke="none"/></g><g stroke-linecap="round"><path d="M 234.9281 315.1534 C 240.7251 306.4941 240.044 305.0049 240.3931 304.0816 C 241.7845 300.3909 243.3733 296.4404 246.3379 293.8399 C 249.1435 291.3853 255.4107 289.1443 256.51 289.5402 C 257.5419 290.1426 253.1529 294.0449 251.3281 296.176 C 250.1399 297.5687 248.9445 298.9657 247.7136 300.323 C 246.4343 301.7338 245.1321 303.1322 243.7931 304.4888 C 243.0703 305.2201 242.4249 306.6978 241.5272 306.5902 Z " fill="none" stroke="#353937" stroke-width="1.83172"/><path d="M 226.3378 319.2346 C 228.5979 317.95 231.0263 316.9065 233.0968 315.326 C 234.5899 314.1871 235.9078 312.805 237.1543 311.3974 C 239.7387 308.479 241.6287 304.8956 244.5834 302.3544 C 248.129 299.3139 252.188 295.5961 257.0655 294.6618 C 259.178 294.3358 260.407 297.4954 262.067 299.2063 C 264.2011 301.4249 266.0201 303.9682 267.7285 306.5342 C 270.0025 309.947 273.7617 313.153 273.9683 317.3247 C 274.0746 320.3105 270.7029 322.4092 268.5179 324.5904 C 267.2287 325.8803 265.4377 326.5805 263.7747 327.3333 C 262.0784 328.099 260.3177 328.8198 258.483 329.1274 C 256.6689 329.4329 254.7852 328.9334 252.9613 329.1558 C 251.0691 329.386 249.1411 329.7131 247.3955 330.4756 C 242.3736 332.6709 237.5982 335.4291 232.7546 337.9927 C 231.1409 338.8468 229.7126 341.0176 228.0115 340.7354 C 220.6814 333.2586 217.945 329.3855 218.1744 324.2716 C 218.5213 321.1881 223.6289 320.9308 226.3379 319.2344 Z " fill="#ffffff" stroke="#ffffff" stroke-width="1.83172"/></g><path d="M 243.7609 305.7215 C 243.7553 305.484 243.7502 305.2706 243.7464 305.1121 C 243.7426 304.9572 243.7406 304.8608 243.7406 304.8608 C 243.7406 304.8608 243.7427 304.9572 243.7464 305.1121 C 243.7502 305.2706 243.7553 305.4841 243.7609 305.7215 C 243.7665 305.959 243.7716 306.1724 243.7754 306.3309 C 243.7792 306.4858 243.7813 306.5822 243.7813 306.5822 C 243.7813 306.5822 243.7791 306.4858 243.7754 306.3309 C 243.7716 306.1724 243.7665 305.9589 243.7609 305.7215 Z " fill="#eac18d" stroke="none" stroke-width="1.15123" stroke-linecap="butt"/><path d="M 252.1912 323.5392 C 247.8554 321.4412 243.6573 317.4638 242.3802 312.8119 C 241.7425 310.2462 245.4681 308.3125 247.5135 306.5635 C 249.9972 304.4448 252.7685 301.8933 256.1387 301.2478 C 257.5984 301.0225 258.4476 303.2058 259.5949 304.388 C 261.0696 305.9211 262.3263 307.6784 263.5069 309.4515 C 265.0782 311.8098 268.0177 314.0527 267.8187 316.9078 C 267.6166 319.323 264.2684 320.9333 261.5517 321.9531 C 258.7585 323.3018 255.2115 324.9766 252.1911 323.5394 Z " fill="#000000" stroke="#000000" stroke-width="1.26571" stroke-linecap="round"/></g><path d="M 165.4531 346.6794 C 159.0247 345.6528 150.1127 341.6625 148.1321 334.8652 C 147.1104 329.378 153.7476 322.9642 159.2751 321.397 C 170.0416 318.3523 181.6558 324.4863 192.8422 323.2156 C 204.3682 322.5193 215.1201 314.7159 226.7337 315.554 C 232.333 315.9693 236.4857 322.442 238.4272 327.7154 C 239.9452 331.8505 239.9891 338.9623 236.2442 341.9339 C 231.2255 345.9152 223.6728 345.9599 217.1709 346.2454 C 200.1131 347.0019 182.4602 349.3826 165.4532 346.6794 Z " data-paper-data="{&quot;origRot&quot;:0}" fill="#ffffff" stroke="none" stroke-width="1.00573" stroke-linecap="round"/><path d="M 86.142 311.9669 C 82.8771 307.827 83.4844 296.5786 88.6307 296.3239 C 100.2406 295.7567 109.468 306.9593 120.8658 309.9816 C 134.3851 314.1107 150.8608 310.1206 162.9482 317.6547 C 168.8153 321.3134 173.5866 336.3198 167.1493 338.2225 C 150.1981 342.8619 131.577 336.2686 115.3741 330.9628 C 104.3418 327.3488 93.2543 320.9832 86.142 311.967 Z " data-paper-data="{&quot;origRot&quot;:0}" fill="#ffffff" stroke="none" stroke-width="1.00573" stroke-linecap="round"/><path d="M243.08641,127.39587c0,0 -12.41959,-9.11216 -18.69191,-12.61567c-7.67384,-4.28629 -13.4509,-14.53591 -13.4509,-14.53591c0,0 5.57217,-10.19559 11.41201,-14.59152c3.94409,-2.96887 13.65808,-4.27997 13.65808,-4.27997l24.63835,16.4134z" data-paper-data="{&quot;origRot&quot;:0}" fill="#ffffff" stroke="none" stroke-width="0" stroke-linecap="butt" transform="matrix(1,0,0,1,-126.97196,205.7673)"/></g></g></svg>