<svg version="1.1" xmlns="http://www.w3.org/2000/svg" xmlns:xlink="http://www.w3.org/1999/xlink" width="157.46178" height="411.81776" viewBox="0,0,157.46178,411.81776"><g transform="translate(-164.96413,-7.00001)"><g data-paper-data="{&quot;isPaintingLayer&quot;:true}" fill-rule="nonzero" stroke-linejoin="miter" stroke-miterlimit="10" stroke-dasharray="" stroke-dashoffset="0" style="mix-blend-mode: normal"><path d="M168.59427,416.12671c0,0 14.68358,-40.65108 18.00133,-67.62991c3.15272,-25.63687 -1.42154,-67.19128 -1.42154,-67.19128l46.44263,1.77934c0,0 -4.66916,45.97587 -8.53397,75.29536c-3.86481,29.31949 -6.43174,38.23865 -6.43174,38.23865l5.87127,16.7191z" data-paper-data="{&quot;origPos&quot;:null,&quot;index&quot;:null,&quot;origRot&quot;:0}" fill="#353535" stroke="#000000" stroke-width="5" stroke-linecap="butt"/><path d="M265.42397,386.58281c0,0 0.50495,-36.41257 -4.51793,-67.38534c-3.34851,-20.64807 -49.06718,-36.11378 -49.06718,-36.11378l29.45871,-25.6276c0,0 51.0204,36.11924 57.42581,65.87822c3.21534,14.93811 12.34737,38.62382 12.34737,38.62382l7.65687,15.98036z" data-paper-data="{&quot;origPos&quot;:null,&quot;index&quot;:null,&quot;origRot&quot;:0}" fill="#616161" stroke="#000000" stroke-width="5" stroke-linecap="butt"/><path d="M273.04965,282.00001c-0.782,3.383 1.025,0.996 -5.5,1c-26.099,0.014 -51.71,0.549 -77.5,0c-6.456,-0.141 -6.136,7.9 -6.5,-0.5c-1.458,-33.601 0.11,-68.09 2.5,-102c0.938,-13.476 3.134,-26.295 7.4,-38.5c1.082,-3.305 2.823,-4.738 7.6,-5c19.107,-1.048 38.393,-1.237 57.5,0c4.777,0.309 10.441,0.527 12,4.5c4.279,10.904 3.004,23.297 3.5,35c0.842,20.069 0.637,42.026 0.25,63c-0.253,13.939 0.676,28.434 -1.25,42.5z" data-paper-data="{&quot;origPos&quot;:null,&quot;index&quot;:null}" id="ID0.6861933465115726" fill="#ff9400" stroke="#000000" stroke-width="5" stroke-linecap="round"/><g data-paper-data="{&quot;origPos&quot;:null,&quot;origRot&quot;:0}" stroke-width="5" stroke-linecap="round"><path d="M224.14917,144.91049c2.66142,2.01135 1.67976,6.42837 2.32992,9.77607c1.09612,6.28036 1.60516,12.73877 2.91505,19.09849c1.40023,6.74858 3.39077,13.72861 5.29599,19.86083c2.38227,7.79573 5.39341,15.41795 8.02318,23.14905c2.56323,7.58801 6.44127,16.67934 8.2057,25.20251c0.44091,2.16077 0.32588,3.68551 -1.68841,4.28943c-8.05907,2.4164 -16.93518,7.26657 -24.15028,3.60757c-7.49892,-3.43361 -9.45191,-13.61232 -12.25304,-21.15385c-2.99638,-8.0835 -4.59681,-16.69842 -5.83417,-25.23069c-1.37305,-9.43988 -2.86583,-19.26797 -2.73168,-28.95187c0.0976,-7.08991 1.40648,-13.85773 3.55401,-20.28222c1.33423,-3.78143 3.33838,-7.95382 6.68383,-9.72503c2.83238,-1.4865 6.8438,-1.71791 9.64991,0.35971z" data-paper-data="{&quot;origPos&quot;:null,&quot;index&quot;:null,&quot;origRot&quot;:0}" id="ID0.4585498459637165" fill="#ff9400" stroke="#000000"/><path d="M225.77341,247.00836c0,0 -5.51771,-11.48011 -7.63936,-17.46111c-2.45976,-6.9169 -5.71491,-14.42172 -6.68159,-22.02649c-1.8172,-14.34912 -2.55461,-29.32651 -0.99843,-44.10503c0.33248,-5.28849 6.55822,-14.9733 6.55822,-14.9733" data-paper-data="{&quot;origPos&quot;:null,&quot;index&quot;:null,&quot;origRot&quot;:0}" id="ID0.497054744977504" fill="none" stroke="#cc7700"/><path d="M250.34241,245.37236c0.51847,2.80594 1.47368,5.34514 2.06551,7.4864c0.50722,1.83296 0.3086,3.93491 -0.40667,5.69733c-0.68733,1.69345 -2.15545,3.01828 -3.58751,4.15388c-1.38416,1.09676 -2.9562,2.27133 -4.71491,2.4279c-3.56164,0.31682 -7.26724,-0.01074 -10.68602,-1.05897c-1.89841,-0.58242 -3.28755,-2.27273 -4.70818,-3.66c-1.26225,-1.2326 -2.43451,-2.6086 -3.29088,-4.1512c-0.80823,-1.45558 -2.51263,-3.515 -1.63738,-4.7243c0.91381,-1.26289 3.48473,-0.05626 5.21552,-0.22009c5.61,-0.52932 11.2959,-0.73888 16.81822,-1.86014c1.38026,-0.28047 2.21653,-2.85425 3.45196,-2.25475z" data-paper-data="{&quot;origPos&quot;:null,&quot;index&quot;:null,&quot;origRot&quot;:0}" id="ID0.8610531273297966" fill="#ffd499" stroke="#000000"/></g><path d="M228.44965,139.16667c1.927,2.599 0.05,6.6 -0.4,9.5c-0.376,2.469 -0.924,5.259 -2.418,7.069c-1.493,1.81 -3.556,2.931 -5.832,2.931c-2.276,0 -4.339,-1.121 -5.832,-2.931c-1.494,-1.81 -6.214,-5.22167 -6.418,-7.73567c-0.22,-2.68 -0.17133,-6.47433 1.56667,-8.83334c1.625,-1.718 8.22333,-0.258 10.68333,-0.5c2.859,-0.282 6.774,-1.511 8.65,0.5z" data-paper-data="{&quot;origPos&quot;:null,&quot;index&quot;:null}" id="ID0.6992864599451423" fill="#ff9400" stroke="none" stroke-width="1" stroke-linecap="round"/><g data-paper-data="{&quot;index&quot;:null,&quot;origPos&quot;:null}"><path d="M285.77065,45.77901c10.364,10.364 16.779,24.676 16.779,40.471c0,15.795 -6.415,30.107 -16.779,40.471c-10.364,10.364 -24.676,16.779 -40.471,16.779c-15.795,0 -30.107,-6.415 -40.471,-16.779c-10.364,-10.364 -16.779,-24.676 -16.779,-40.471c0,-15.795 6.415,-30.107 16.779,-40.471c10.364,-10.364 24.676,-16.779 40.471,-16.779c15.795,0 30.107,6.415 40.471,16.779z" data-paper-data="{&quot;origPos&quot;:null}" id="ID0.9676602841354907" fill="#ffd499" stroke="#000000" stroke-width="6" stroke-linecap="round"/><path d="M213.17965,70.45401c13.85,1.622 26.451,-2.669 39.62,-1.704c15.391,1.128 31.104,3.338 46,7.75c3.718,1.106 -3.707,2.891 -5.75,4c-2.502,1.303 -5.992,3.49 -9.25,3.25c-7.849,-0.583 -15.835,-4.875 -24,-5.75c-3.106,-0.105 1.174,2.622 -2.5,2.75c-14.697,0.511 -30.5,-4.859 -45.25,-1.25c-5.326,1.434 -7.601,8.969 -8.5,14.75c-1.063,7.125 1.453,14.79 4.25,21.25c2.966,6.846 13.946,17.992 13,18.25c-0.946,0.258 -15.918,-8.417 -20.25,-15.75c-6.251,-10.334 -9.184,-22.894 -10,-34.75c-0.323,-4.748 3.585,-8.838 6.37,-12.796c2.03,-2.883 4.957,-6.704 8.13,-6.704c3.173,0 4.529,6.284 8.13,6.704z" data-paper-data="{&quot;origPos&quot;:null}" id="ID0.34282135451212525" fill="#e1ba87" stroke="none" stroke-width="1" stroke-linecap="round"/><path d="M186.54965,85.50001c-4.149,-7.143 -2.419,-18.415 -1.25,-27.5c1.114,-8.633 3.513,-17.045 7.5,-24.5c1.139,-1.943 2.501,4.343 4.5,2.5c8.007,-7.393 12.443,-19.02 20.5,-25.5c2.048,-1.644 -1.025,6.938 1.5,7c10.077,0.225 19.864,-6.433 29.75,-5.75c12.368,0.859 24.992,2.711 36,9.5c12.651,7.864 23.234,19.534 31,32.25c1.941,3.179 -8.297,-0.525 -8.75,2.5c-1.102,7.338 8.883,18.809 4,22c-5.868,3.773 -17.423,-7.93 -26.75,-8.5c-2.367,-0.144 1.906,7.404 -1,7c-11.417,-1.4 -21.284,-10.04 -32.75,-11.25c-2.867,-0.302 1.844,7.202 -0.75,7.75c-7.837,1.956 -16.088,-0.955 -24.25,-1.75c-4.684,-0.453 -9.224,-3.127 -14,-2c-5.487,1.33 -8.942,6.24 -14.25,9.25c-3.738,2.185 -9.025,10.106 -11,7z" data-paper-data="{&quot;origPos&quot;:null}" id="ID0.4199218852445483" fill="#8a541e" stroke="#000000" stroke-width="7" stroke-linecap="round"/><path d="M188.54965,79.50001c0,0 0.656,-15.564 1.75,-23.25c0.764,-5.359 1.447,-10.883 3.75,-15.75c0.918,-1.331 1.969,1.072 3,0c5.142,-4.542 9.17,-9.878 13.5,-15c1.616,-1.896 2.032,-5.319 4.25,-6.25c1.377,-0.478 0.568,2.269 1.5,2.75c1.791,0.712 1.848,1.173 4.25,0.75c9.612,-1.693 18.43,-6.554 28,-6.5c10.074,0.056 20.027,2.667 29.25,6.25c7.303,3.028 13.521,8.191 19.5,13.25c4.641,3.93 8.496,9.133 12,14.25c0.877,1.278 -0.861,1.092 -1.5,1.5c-1.621,1.601 -5.264,2.198 -5.25,4.5c0.039,6.231 5.25,17.75 5.25,17.75" data-paper-data="{&quot;origPos&quot;:null}" id="ID0.6959539707750082" fill="none" stroke="#663b00" stroke-width="4" stroke-linecap="round"/><path d="M298.76765,87.282c0.792,0.792 1.282,1.886 1.282,3.093c0,1.207 -0.49,2.301 -1.282,3.093c-0.792,0.792 -1.886,1.282 -3.093,1.282c-1.207,0 -2.301,-0.49 -3.093,-1.282c-0.792,-0.792 -1.282,-1.886 -1.282,-3.093c0,-1.207 0.49,-2.301 1.282,-3.093c0.792,-0.792 1.886,-1.282 3.093,-1.282c1.207,0 2.301,0.49 3.093,1.282z" data-paper-data="{&quot;origPos&quot;:null}" id="ID0.8793090796098113" fill="#000000" stroke="none" stroke-width="1" stroke-linecap="butt"/><path d="M258.11765,88.03201c0.792,0.792 1.282,1.886 1.282,3.093c0,1.207 -0.49,2.301 -1.282,3.093c-0.792,0.792 -1.886,1.282 -3.093,1.282c-1.207,0 -2.301,-0.49 -3.093,-1.282c-0.792,-0.792 -1.282,-1.886 -1.282,-3.093c0,-1.207 0.49,-2.301 1.282,-3.093c0.792,-0.792 1.886,-1.282 3.093,-1.282c1.207,0 2.301,0.49 3.093,1.282z" data-paper-data="{&quot;origPos&quot;:null}" id="ID0.8793090796098113" fill="#000000" stroke="none" stroke-width="1" stroke-linecap="butt"/><path d="M255.51123,106.47852l39.88821,-0.66113" data-paper-data="{&quot;origPos&quot;:null}" fill="none" stroke="#000000" stroke-width="3" stroke-linecap="round"/></g><path d="M189,280.48503c0,0 -4.70296,-49.06894 -2.91271,-78.55541c1.52699,-25.15033 11.41271,-61.44459 11.41271,-61.44459" data-paper-data="{&quot;origPos&quot;:null}" fill="none" stroke="#cc7700" stroke-width="5" stroke-linecap="round"/></g></g></svg>