<svg version="1.1" xmlns="http://www.w3.org/2000/svg" xmlns:xlink="http://www.w3.org/1999/xlink" width="56.3" height="65.83333" viewBox="0,0,56.3,65.83333"><g transform="translate(-211.85,-151.85)"><g data-paper-data="{&quot;isPaintingLayer&quot;:true}" fill-rule="nonzero" stroke-linejoin="miter" stroke-miterlimit="10" stroke-dasharray="" stroke-dashoffset="0" style="mix-blend-mode: normal"><path d="M213.1,206.9v-53.8h53.8v53.8z" fill="#ffac66" stroke="none" stroke-width="0" stroke-linecap="butt"/><path d="M213.1,206.9v-53.8h53.8v53.8z" fill="none" stroke="#000000" stroke-width="2.5" stroke-linecap="butt"/><path d="M266.9,206.9v9.53333h-53.8v-9.53333z" fill="#000000" stroke="#000000" stroke-width="2.5" stroke-linecap="butt"/><text transform="translate(225.48649,214.22522) scale(0.17868,0.20829)" font-size="40" xml:space="preserve" fill="#ffffff" fill-rule="nonzero" stroke="none" stroke-width="1" stroke-linecap="butt" stroke-linejoin="miter" stroke-miterlimit="10" stroke-dasharray="" stroke-dashoffset="0" font-family="&quot;ヒラギノ角ゴ Pro W3&quot;, &quot;Hiragino Kaku Gothic Pro&quot;, Osaka, &quot;メイリオ&quot;, Meiryo, &quot;ＭＳ Ｐゴシック&quot;, &quot;MS PGothic&quot;" font-weight="normal" text-anchor="start" style="mix-blend-mode: normal"><tspan x="0" dy="0">MEOWY</tspan></text><path d="M257.82173,191.35631v0" fill="#ffffff" stroke="none" stroke-width="1" stroke-linecap="butt"/><path d="M222.79282,191.35631" fill="#ffffff" stroke="none" stroke-width="1" stroke-linecap="butt"/><path d="M262.67661,186.50143c0,11.24612 -10.13995,14.87192 -22.67661,14.87192c-12.53666,0 -22.67661,-3.6258 -22.67661,-14.87192c0,-5.28506 1.4749,-11.36903 4.73198,-16.28537l-2.64253,-8.91086c-0.49163,-1.65926 1.22908,-3.25707 2.82689,-2.58108l8.78795,3.68725c2.58108,-1.16763 5.53088,-1.84363 8.97232,-1.84363c3.37998,0 6.32979,0.73745 8.91086,1.90508l8.84941,-3.68725c1.59781,-0.676 3.31853,0.92181 2.82689,2.58108l-2.70399,9.03377c3.25707,4.85488 4.79343,10.8774 4.79343,16.10101z" fill="#ff7319" stroke="none" stroke-width="1" stroke-linecap="butt"/><path d="M257.76027,193.63012c0,5.89961 -7.9276,7.80469 -17.76027,7.80469c-9.83268,0 -17.76027,-1.90508 -17.76027,-7.80469c0,-5.89961 5.28506,-13.58138 17.76027,-13.58138c12.16794,0 17.76027,7.68178 17.76027,13.58138z" fill="#ffffff" stroke="none" stroke-width="1" stroke-linecap="butt"/><path d="M238.03346,182.75272c0,-0.7989 0.86036,-1.04472 1.96654,-1.04472c1.10618,0 1.96654,0.24582 1.96654,1.04472c0,0.7989 -0.61454,1.78217 -1.96654,1.78217c-1.35199,0 -1.96654,-0.98327 -1.96654,-1.78217z" fill="#945600" stroke="#000000" stroke-width="1.5" stroke-linecap="butt"/><path d="M246.75997,185.3338c0,1.84363 -1.53636,3.37998 -3.37998,3.37998c-1.84363,0 -3.37998,-1.4749 -3.37998,-3.37998c0,-0.12291 0,-0.12291 0,-0.12291c0,-0.12291 0,-0.18436 0,-0.18436c0,0 0,0.06145 0,0.18436c0,0 0,0 0,0.12291c0,1.84363 -1.53636,3.37998 -3.37998,3.37998c-1.84363,0 -3.37998,-1.4749 -3.37998,-3.37998" fill="none" stroke="#000000" stroke-width="2.5" stroke-linecap="round"/><path d="M234.16185,175.9313c0,-1.05215 0.85294,-1.90508 1.90508,-1.90508c1.05215,0 1.90508,0.85294 1.90508,1.90508c0,1.05215 -0.85294,1.90508 -1.90508,1.90508c-1.05215,0 -1.90508,-0.85294 -1.90508,-1.90508z" fill="#000000" stroke="none" stroke-width="1" stroke-linecap="butt"/><path d="M242.02799,175.9313c0,-1.05215 0.85294,-1.90508 1.90508,-1.90508c1.05215,0 1.90508,0.85294 1.90508,1.90508c0,1.05215 -0.85294,1.90508 -1.90508,1.90508c-1.05215,0 -1.90508,-0.85294 -1.90508,-1.90508z" fill="#000000" stroke="none" stroke-width="1" stroke-linecap="butt"/><path d="M226.1728,165.79135c-1.22908,1.10618 -2.33526,2.1509 -3.25707,3.74871l-2.39671,-8.29632c-0.18436,-0.98327 0.73745,-1.84363 1.72072,-1.53636l7.9276,3.31853c-1.84363,0.73745 -2.82689,1.72072 -3.99452,2.76544z" fill="#77500c" stroke="none" stroke-width="1" stroke-linecap="butt"/><path d="M250.07849,163.02591l7.9276,-3.31853c0.98327,-0.30727 1.90508,0.55309 1.72072,1.53636l-2.33526,8.35778c-0.98327,-1.59781 -2.02799,-2.64253 -3.31853,-3.74871c-1.16763,-1.10618 -2.21235,-2.08944 -3.99452,-2.82689z" fill="#77500c" stroke="none" stroke-width="1" stroke-linecap="butt"/></g></g></svg>