<svg version="1.1" xmlns="http://www.w3.org/2000/svg" xmlns:xlink="http://www.w3.org/1999/xlink" width="277.31521" height="413.49543" viewBox="0,0,277.31521,413.49543"><defs><radialGradient cx="311.24584" cy="114.23212" r="20.05722" gradientUnits="userSpaceOnUse" id="color-1"><stop offset="0" stop-color="#ffff00"/><stop offset="1" stop-color="#ff9400"/></radialGradient></defs><g transform="translate(-72.3843,-10.50566)"><g data-paper-data="{&quot;isPaintingLayer&quot;:true}" fill-rule="nonzero" stroke-linejoin="miter" stroke-miterlimit="10" stroke-dasharray="" stroke-dashoffset="0" style="mix-blend-mode: normal"><g stroke="#000000" stroke-width="5" stroke-linecap="round"><path d="M333.13745,191.35935c2.69029,0.95101 5.3674,1.39032 7.5183,1.94601c1.84156,0.47514 3.564,1.69617 4.73431,3.19553c1.12455,1.4407 1.53999,3.37406 1.80944,5.18187c0.2597,1.74673 0.49311,3.69522 -0.24885,5.29737c-1.50286,3.24464 -3.63587,6.29242 -6.25035,8.73192c-1.45205,1.35449 -3.61004,1.71487 -5.52122,2.25365c-1.69807,0.47876 -3.47541,0.80797 -5.2396,0.78025c-1.66471,-0.02592 -4.29994,0.4233 -4.91117,-0.93862c-0.63837,-1.42212 1.69026,-3.04787 2.41202,-4.62954c2.34077,-5.12569 4.99665,-10.1576 6.78083,-15.50269c0.44562,-1.33606 -1.36743,-3.34519 -0.23137,-4.11657z" data-paper-data="{&quot;origPos&quot;:null,&quot;index&quot;:null}" fill="#e1ba87"/><path d="M241.96747,147.76598c3.2528,-0.74004 5.99899,2.85608 8.97846,4.51521c5.50981,3.20717 10.77771,6.97807 16.48601,10.07288c6.06389,3.27611 12.68505,6.24986 18.60282,8.74268c7.49738,3.19952 15.26717,5.80634 22.87462,8.77492c7.45517,2.92736 16.90714,5.81732 24.56289,9.95803c1.93685,1.05466 3.02898,2.12484 2.19338,4.05459c-3.34307,7.72081 -5.35089,17.63433 -12.79722,20.79611c-7.45689,3.52403 -16.50049,-1.53888 -24.07336,-4.25432c-8.1131,-2.91518 -15.73352,-7.24044 -23.05686,-11.79013c-8.10487,-5.03053 -16.58389,-10.2196 -23.90456,-16.5602c-5.36013,-4.64173 -9.69365,-10.00239 -13.22433,-15.78354c-2.03291,-3.45634 -3.93337,-7.67701 -3.13313,-11.37692c0.6875,-3.12391 3.09451,-6.34132 6.49125,-7.14931z" data-paper-data="{&quot;origPos&quot;:null,&quot;index&quot;:null}" fill="#cc7700"/></g><path d="M282.99583,416.92593l-51.2685,-123.80444l39.7283,-16.45184c0,0 16.3446,43.55782 29.41627,71.04885c6.5616,13.79968 20.8915,34.75345 20.8915,34.75345l11.12378,13.79353z" data-paper-data="{&quot;index&quot;:null}" fill="#353535" stroke="#000000" stroke-width="5" stroke-linecap="butt"/><path d="M245.50991,420.7348l-51.2685,-123.80444l39.7283,-16.45184c0,0 16.3446,43.55781 29.41627,71.04885c6.5616,13.79968 20.8915,34.75345 20.8915,34.75345l11.12378,13.79353z" data-paper-data="{&quot;index&quot;:null}" fill="#616161" stroke="#000000" stroke-width="5" stroke-linecap="butt"/><path d="M275.01491,290.30708c-0.65786,3.40931 1.06072,0.95788 -5.45978,1.20031c-26.08105,0.96769 -51.6554,2.4382 -77.44824,2.83196c-6.45684,0.09501 -5.84322,8.11895 -6.51393,-0.26214c-2.68486,-33.52528 -2.37818,-68.04855 -1.22891,-102.02323c0.44494,-13.50128 2.17105,-26.39196 5.98821,-38.7447c0.96051,-3.34233 2.64798,-4.83799 7.41222,-5.27438c19.05595,-1.7455 38.32216,-2.63912 57.4616,-2.10114c4.7851,0.13424 10.45329,0.14512 12.15642,4.0585c4.67459,10.74036 3.8533,23.17167 4.77662,34.84873c1.57479,20.02483 2.17227,41.97466 2.55195,62.94879c0.25652,13.93894 1.71457,28.39031 0.30385,42.51729z" data-paper-data="{&quot;index&quot;:null}" fill="#ff9400" stroke="#000000" stroke-width="5" stroke-linecap="round"/><path d="M209.76615,150.59807c2.02068,2.52684 0.29114,6.59377 -0.05259,9.50827c-0.28553,2.48109 -0.73121,5.28926 -2.15807,7.15264c-1.42586,1.86335 -3.44652,3.05899 -5.72101,3.14216c-2.27448,0.08317 -4.37706,-0.9617 -5.93521,-2.71593c-1.55915,-1.7542 -2.37897,-4.47105 -2.67469,-6.97592c-0.31778,-2.67017 -1.06184,-6.10628 0.5888,-8.52721c1.56114,-1.77623 4.84076,-1.43585 7.29028,-1.76758c2.84679,-0.38628 6.71426,-1.75752 8.66249,0.18359z" data-paper-data="{&quot;index&quot;:null}" fill="#ff9400" stroke="none" stroke-width="1" stroke-linecap="round"/><path d="M187.96339,290.4882c0,0 -2.99051,-32.29921 -2.32897,-60.95561c0.66154,-28.65639 5.42706,-73.24723 5.42706,-73.24723" data-paper-data="{&quot;index&quot;:null}" fill="none" stroke="#cc7700" stroke-width="5" stroke-linecap="round"/><g data-paper-data="{&quot;index&quot;:null}"><path d="M265.3305,46.77732c10.73579,9.97836 17.66949,24.04639 18.24666,39.83084c0.57717,15.78445 -5.31056,30.32131 -15.28892,41.0571c-9.97836,10.73579 -24.04639,17.66949 -39.83084,18.24666c-15.78445,0.57717 -30.32131,-5.31056 -41.0571,-15.28892c-10.73579,-9.97836 -17.66949,-24.04639 -18.24666,-39.83084c-0.57717,-15.78445 5.31056,-30.32131 15.28892,-41.0571c9.97836,-10.73579 24.04639,-17.66949 39.83084,-18.24666c15.78445,-0.57717 30.32131,5.31056 41.0571,15.28892z" data-paper-data="{&quot;origPos&quot;:null}" fill="#ffd499" stroke="#000000" stroke-width="6" stroke-linecap="round"/><path d="M193.68964,74.08843c13.90002,1.11482 26.3358,-3.63377 39.53127,-3.15064c15.42194,0.56484 31.2052,2.19918 46.25247,6.06391c3.75593,0.9694 -3.59889,3.02453 -5.6,4.20744c-2.45271,1.39356 -5.86047,3.70663 -9.12506,3.58584c-7.86506,-0.2958 -16.00257,-4.29311 -24.19408,-4.86916c-3.10776,0.00857 1.26903,2.57735 -2.39784,2.83951c-14.66851,1.04771 -30.65719,-3.74124 -45.26545,0.40434c-5.27004,1.62766 -7.26818,9.24077 -7.95534,15.05075c-0.80193,7.15909 1.99248,14.72703 5.02367,21.0805c3.21418,6.73305 14.59414,17.47037 13.6582,17.76277c-0.93594,0.2924 -16.21493,-7.82971 -20.81201,-14.99951c-6.62445,-10.09867 -10.01444,-22.54311 -11.26314,-34.36138c-0.49628,-4.73302 3.25965,-8.9631 5.89816,-13.02022c1.92329,-2.95525 4.70871,-6.88066 7.87959,-6.9966c3.17088,-0.11595 4.75561,6.11431 8.36954,6.40244z" data-paper-data="{&quot;origPos&quot;:null}" fill="#e1ba87" stroke="none" stroke-width="1" stroke-linecap="round"/><path d="M167.62722,90.09748c-4.40724,-6.98662 -3.0903,-18.3143 -2.25406,-27.43595c0.79779,-8.66794 2.8878,-17.16199 6.59972,-24.7577c1.06724,-1.98332 2.65803,4.24871 4.58835,2.33389c7.73151,-7.68065 11.73967,-19.46198 19.5545,-26.23207c1.98656,-1.71774 -0.77079,6.97082 1.75478,6.94051c10.07849,-0.14338 19.61566,-7.15457 29.52001,-6.83327c12.39112,0.40648 25.07437,1.79594 36.3231,8.17816c12.92992,7.39646 23.93228,18.67194 32.15776,31.09567c2.05586,3.10595 -8.31065,-0.22146 -8.65281,2.81806c-0.83312,7.37337 9.56438,18.47184 4.80124,21.83914c-5.72621,3.9849 -17.70114,-7.28804 -27.04274,-7.51684c-2.37068,-0.05741 2.17528,7.3294 -0.74354,7.03186c-11.46053,-0.98187 -21.63666,-9.25554 -33.13921,-10.04575c-2.87612,-0.19704 2.10594,7.12981 -0.4663,7.77223c-7.76029,2.24107 -16.11215,-0.36648 -24.29775,-0.8627c-4.69743,-0.28153 -9.33211,-2.78785 -14.06373,-1.48709c-5.43474,1.52961 -8.70801,6.56259 -13.90247,9.76454c-3.65566,2.32013 -8.64968,10.42904 -10.73686,7.39728z" data-paper-data="{&quot;origPos&quot;:null}" fill="#8a541e" stroke="#000000" stroke-width="7" stroke-linecap="round"/><path d="M169.40663,84.02841c0,0 0.08683,-15.57757 0.89924,-23.29843c0.56767,-5.38334 1.04835,-10.92861 3.17197,-15.87651c0.86875,-1.36365 2.00686,0.99934 2.998,-0.10962c4.97259,-4.72686 8.80292,-10.20649 12.94287,-15.48329c1.54564,-1.95379 1.83628,-5.3897 4.01878,-6.40112c1.35861,-0.528 0.65053,2.24673 1.59949,2.69335c1.81582,0.64608 1.88963,1.10469 4.27457,0.5942c9.54371,-2.04311 18.1782,-7.22309 27.74378,-7.51882c10.06932,-0.31216 20.11108,1.9334 29.45885,5.17699c7.40877,2.75912 13.81128,7.69145 19.97115,12.52859c4.78151,3.75778 8.82406,8.81645 12.5127,13.80198c0.92311,1.2451 -0.82052,1.12273 -1.44419,1.55381c-1.56141,1.65916 -5.18016,2.38889 -5.08206,4.68884c0.26666,6.22542 5.8951,17.5463 5.8951,17.5463" data-paper-data="{&quot;origPos&quot;:null}" fill="none" stroke="#663b00" stroke-width="4" stroke-linecap="round"/><path d="M257.35042,88.59985c0.82041,0.76253 1.35006,1.8379 1.39417,3.04409c0.0441,1.20619 -0.40559,2.31737 -1.16812,3.13778c-0.76253,0.82041 -1.8379,1.35006 -3.04409,1.39417c-1.20619,0.0441 -2.31737,-0.40559 -3.13778,-1.16812c-0.82041,-0.76253 -1.35006,-1.8379 -1.39417,-3.04409c-0.0441,-1.20619 0.40559,-2.31737 1.16812,-3.13778c0.76253,-0.82041 1.8379,-1.35006 3.04409,-1.39417c1.20619,-0.0441 2.31737,0.40559 3.13778,1.16812z" data-paper-data="{&quot;origPos&quot;:null}" fill="#000000" stroke="none" stroke-width="1" stroke-linecap="butt"/><path d="M216.75498,90.83477c0.82041,0.76253 1.35006,1.8379 1.39417,3.04409c0.0441,1.20619 -0.40559,2.31737 -1.16812,3.13778c-0.76253,0.82041 -1.8379,1.35006 -3.04409,1.39417c-1.20619,0.0441 -2.31737,-0.40559 -3.13778,-1.16812c-0.82041,-0.76253 -1.35006,-1.8379 -1.39417,-3.04409c-0.0441,-1.20619 0.40559,-2.31737 1.16812,-3.13778c0.76253,-0.82041 1.8379,-1.35006 3.04409,-1.39417c1.20619,-0.0441 2.31737,0.40559 3.13778,1.16812z" data-paper-data="{&quot;origPos&quot;:null}" fill="#000000" stroke="none" stroke-width="1" stroke-linecap="butt"/></g><g stroke-width="5" stroke-linecap="round"><path d="M342.42669,50.66513c0.69906,1.94118 1.74761,4.81169 2.4141,7.72748c0.47377,2.07443 0.23387,4.25879 0.23351,6.38615c-0.00187,4.26315 -0.07142,8.53878 -0.24255,12.79824c-0.0767,1.90413 -0.45941,3.79678 -0.50202,5.70251c-0.04722,2.12765 0.15573,4.25887 0.23351,6.38615c0.29376,8.0338 0.39698,16.10157 0.88217,24.12548c0.12173,2.00633 1.17495,3.76117 0.91715,5.65068c-0.50539,3.70463 -0.70248,7.95367 -3.15867,10.77327c-1.56012,1.79215 -4.70292,0.75748 -7.06979,0.96905c-2.11892,0.18978 -4.27252,0.48027 -6.38615,0.23351c-4.10155,-0.47809 -8.08634,-1.76624 -12.16649,-2.3972c-2.11652,-0.32757 -4.27035,-0.46908 -6.41209,-0.47607c-3.78327,-0.01225 -7.59493,-0.02354 -11.35318,0.41514c-2.16493,0.25255 -4.20239,1.19528 -6.33425,1.65269c-1.864,0.39924 -3.76901,0.61103 -5.65061,0.91715c-1.88167,0.30613 -3.75309,0.73547 -5.65068,0.91709c-2.11845,0.20255 -4.2588,0.15573 -6.38615,0.23351c-1.89027,0.06912 -4.29086,1.49557 -5.67656,0.20757c-1.3857,-1.28794 -0.37313,-3.79185 -0.20757,-5.67656c0.17059,-1.94165 0.92252,-3.80093 1.21154,-5.72845c0.28212,-1.88472 0.34837,-3.80267 0.50201,-5.70257c0.17209,-2.13357 0.4279,-4.27162 0.47607,-6.41209c0.04165,-1.89148 -0.13845,-3.78628 -0.20757,-5.67656c-0.06912,-1.89027 -0.13845,-3.78628 -0.20757,-5.67656c-0.06912,-1.89033 -0.37313,-3.79191 -0.20757,-5.67663c0.17059,-1.94165 1.04102,-3.78673 1.2116,-5.72845c0.16556,-1.88465 -0.13845,-3.78628 -0.20757,-5.67656c-0.21597,-5.90647 -0.43268,-11.83286 -0.64866,-17.73933c-0.13824,-3.78061 -2.054,-7.94387 -0.41514,-11.35318c1.06966,-2.22464 4.62248,-1.79183 7.01783,-2.38816c2.07715,-0.51791 4.2593,-0.53235 6.36027,-0.9431c2.36613,-0.46306 4.67413,-1.23384 7.04384,-1.67856c2.3358,-0.43787 4.70317,-0.75038 7.06972,-0.96905c1.88366,-0.17408 3.79096,-0.36031 5.67663,-0.20757c2.17346,0.17489 4.29348,0.79079 6.43804,1.18559c2.14456,0.3948 4.26452,1.01077 6.43804,1.18566c1.8856,0.15274 3.78762,-0.29626 5.67656,-0.20757c3.80779,0.17765 7.62428,0.51556 11.40508,1.00403c1.93328,0.25045 3.80436,0.89967 5.72845,1.21154c0.48174,0.07757 1.06125,-0.70814 1.41917,-0.05189z" fill="#ffffcc" stroke="#000000"/><path d="M268.61476,61.17988c-0.83845,-1.08774 0.58698,-2.75556 1.2764,-3.95458c1.00339,-1.74473 2.15393,-3.50771 3.73398,-4.75492c3.2002,-2.52565 6.57904,-5.06359 10.42306,-6.42058c3.80471,-1.34411 8.00639,-1.12121 12.02385,-1.50544c2.00095,-0.19108 3.96275,-0.16906 6.03132,-0.22054c8.27429,-0.20731 16.59871,-1.21939 24.84803,-0.55329c3.98787,0.32165 8.15283,1.29059 11.49589,3.48749c1.68894,1.10921 2.26242,3.57927 2.33626,5.59872c0.14488,3.96228 0.28557,8.35382 -1.70058,11.78578c-0.95432,1.64925 -3.74403,0.90569 -5.65061,0.91715c-5.81227,0.03347 -11.66039,-0.13635 -17.43646,-0.78342c-7.7879,-0.87198 -15.491,-2.53291 -23.22978,-3.76902c-1.93392,-0.30867 -3.79358,-0.76219 -5.71547,-0.85678c-2.24359,-0.10982 -4.51726,-0.07072 -6.74091,0.24649c-2.27322,0.32328 -4.39829,1.51228 -6.68908,1.66566c-1.68836,0.11288 -0.84156,-2.03436 -2.43473,0.56329z" fill="#ff0000" stroke="#000000"/><path d="M277.17245,81.47208c0,0 6.078,-1.04366 8.43707,-2.44011c1.76936,-0.73397 2.77992,-5.27423 3.41814,-3.6776c2.54038,6.36153 2.1456,19.81613 2.1456,19.81613" fill="none" stroke="#ff9400"/><path d="M308.26393,76.78259c0.39571,-0.48769 -0.42379,-0.28013 0,0c1.69656,1.12165 4.17778,1.55244 5.09677,3.36625c0.86223,1.70067 0.24095,3.94733 -0.50202,5.70251c-0.84887,2.00772 -1.96242,4.58785 -4.07584,5.12265c-2.05008,0.51835 -4.64927,-0.84462 -5.78034,-2.63071c-1.01955,-1.6111 -0.28719,-3.96696 0.50196,-5.70251c1.04185,-2.28762 3.17532,-3.90746 2.63077,-5.78034z" fill="none" stroke="#ff9400"/><path d="M326.73878,76.81751c0.80701,-0.27535 1.24267,1.26339 1.49694,2.07687c0.56816,1.81945 1.22207,3.7694 0.91715,5.65061c-0.30492,1.88122 -0.87209,4.403 -2.65665,5.07082c-1.89252,0.70863 -4.67316,-0.21426 -5.75446,-1.92118c-1.14609,-1.80827 -0.55807,-4.53689 0.47607,-6.41209c1.14212,-2.07101 3.28221,-3.70388 4.83731,-3.72949z" fill="none" stroke="#ff9400"/><path d="M283.80908,107.51868c0,0 4.49257,-3.24651 6.93999,-4.51691c1.99146,-1.03346 4.21638,-1.55103 6.30837,-2.36221c3.97368,-1.5408 7.72708,-3.86073 11.90703,-4.69854c6.03216,-1.20963 18.42297,-1.38419 18.42297,-1.38419" fill="none" stroke="#ff9400"/><path d="M319.99726,106.19543c1.48069,0.77573 3.02023,1.88046 3.6776,3.41814c0.74288,1.7392 0.8891,3.91227 0.20757,5.67656c-0.72305,1.87236 -2.45545,3.26727 -4.10178,4.41313c-1.65884,1.15342 -3.69356,1.6641 -5.59872,2.33626c-1.83785,0.64981 -3.67623,1.55549 -5.62474,1.62674c-1.94845,0.07125 -3.82083,-0.80814 -5.72845,-1.2116c-1.90756,-0.40346 -4.00154,-0.307 -5.72845,-1.21154c-1.77768,-0.93115 -4.51824,-2.15683 -4.41313,-4.10178c0.10701,-1.97065 3.13283,-2.61986 4.83731,-3.72949c1.77249,-1.15331 3.73528,-1.99955 5.57277,-3.04585c3.49271,-1.98791 6.53348,-5.10313 10.43602,-6.06582c2.17725,-0.53713 4.47763,0.85374 5.70251,0.50202z" fill="url(#color-1)" stroke="#ff9400"/></g><path d="M196.76111,123.28272c0,0 1.06549,-12.85974 7.19671,-15.27318c3.92548,-1.5452 25.8765,-5.04685 40.35561,-4.81687c8.13578,0.12922 13.14521,3.86124 13.14521,3.86124l0.98384,13.22288z" fill="#ffffff" stroke="#000000" stroke-width="3" stroke-linecap="round"/><path d="M213.7438,115.65705l-0.34715,-9.49365" fill="none" stroke="#000000" stroke-width="3" stroke-linecap="round"/><path d="M199.69373,102.07741l1.23864,5.87075" fill="none" stroke="#000000" stroke-width="3" stroke-linecap="round"/><path d="M176.25379,87.86012c0,0 24.30712,-6.36362 35.02646,-8.39397c8.49582,-1.60919 21.68599,-2.54953 21.68599,-2.54953c0,0 -13.01203,11.33943 -16.62214,14.48549c-1.7444,1.52017 -5.01635,-1.99946 -5.01635,-1.99946c0,0 -1.52158,4.87345 -3.92673,4.41353c-5.96602,-1.14084 -31.14724,-5.95606 -31.14724,-5.95606z" fill="#ffd499" stroke="none" stroke-width="0" stroke-linecap="round"/><g data-paper-data="{&quot;index&quot;:null}" stroke-width="5" stroke-linecap="round"><path d="M177.14769,169.08237c-1.74403,-3.35969 -1.01907,-7.93133 0.03449,-11.80037c1.88806,-6.50551 4.66117,-12.81632 8.61371,-18.70305c5.39799,-8.04101 12.21609,-15.27517 18.71489,-22.25815c5.87094,-6.3137 12.08752,-12.48885 19.14993,-17.43288c6.59357,-4.60935 13.98959,-11.87014 22.11029,-10.42869c8.01544,1.09462 12.55693,10.13257 17.81078,16.70407c1.31316,1.64248 0.54048,2.96195 -1.05122,4.48831c-6.29927,6.0064 -14.66008,11.27785 -21.08441,16.06074c-6.56044,4.86275 -13.37262,9.41901 -19.76626,14.47567c-5.05506,3.95985 -10.66255,8.56844 -15.65285,13.32247c-4.69483,4.48559 -8.78713,9.50787 -13.26098,14.04978c-2.43892,2.38356 -4.144,6.5748 -7.47702,6.71523c-3.48971,0.11263 -6.65734,-2.35943 -8.14134,-5.19312z" data-paper-data="{&quot;origPos&quot;:null,&quot;index&quot;:null}" fill="#ff9400" stroke="#000000"/><path d="M181.42815,167.31103c0,0 0.38836,-11.50672 3.12308,-16.04545c7.12628,-13.04003 16.25208,-24.939 25.90863,-35.70704c5.12075,-5.70481 12.06684,-10.02573 18.02432,-14.31551c5.14705,-3.71238 16.2152,-10.01585 16.2152,-10.01585" data-paper-data="{&quot;origPos&quot;:null,&quot;index&quot;:null}" fill="none" stroke="#cc7700"/><path d="M263.80282,104.19575c-1.3571,-0.20967 -0.5809,-2.8022 -1.55659,-3.81798c-3.90415,-4.06336 -8.46142,-7.46992 -12.77437,-11.09631c-1.33033,-1.11924 -4.13115,-1.58919 -4.1644,-3.14766c-0.03199,-1.49246 2.54123,-2.21679 4.03393,-2.95422c1.58181,-0.78162 3.32862,-1.24654 5.06791,-1.54234c1.95752,-0.33291 4.0615,-0.93297 5.95418,-0.33216c3.40808,1.08251 6.64214,2.92089 9.39127,5.20737c1.35742,1.12915 1.98226,2.98938 2.49684,4.67876c0.53191,1.74858 0.9858,3.67327 0.58784,5.45706c-0.41418,1.8564 -1.44644,3.69816 -2.90623,4.9172c-1.70475,1.42446 -3.9347,2.96955 -5.95717,4.98243z" data-paper-data="{&quot;origPos&quot;:null,&quot;index&quot;:null}" fill="#ffd499" stroke="#000000"/></g><path d="M73.5,110.75486c-3,-4 1,-7 1,-7c2.16758,-1.61653 3.89835,-3.83523 6.24754,-5.17421c5.17383,-2.94892 11.3639,-4.1038 16.72969,-6.39837c1.04695,-0.44771 1.80441,-1.41613 2.82601,-1.919c2.75828,-1.35774 7.37583,-2.91565 10.39585,-3.44386c3.24539,-0.56763 6.74934,-0.49533 10,-1c2.08323,-0.32342 3.92366,-1.63496 6,-2c3.32449,-0.58447 6.76982,-1.00498 10.18999,-1.0271c6.31217,-1.57804 12.58281,0.14752 18.81001,-0.9729c1.03743,-0.18666 1.95559,-0.85747 3,-1c4.69341,-0.64049 9.60489,0.3965 14.30822,-0.04023c1.69239,-0.15715 3.31014,-0.81765 5,-1c5.67823,-0.61272 11.7681,-0.02433 17.49269,-0.02433h2c0,0 4.25562,0 4.9147,3.92609c0.62607,0.08029 1.25425,0.13311 1.88621,0.13848l3.78023,1.19202c0,0 4.74342,1.58114 3.16228,6.32456c-1.58114,4.74342 -6.32456,3.16228 -6.32456,3.16228l-2.21977,-0.80798c-2.29294,0.02211 -4.53617,-0.6767 -6.81001,-0.9729c-3.97079,-0.51725 -8.37605,0.03746 -12.38908,0.03746c-6.12004,0 -12.557,-0.57245 -18.64555,-0.01258c-4.34666,0.3997 -8.59489,1.60132 -12.94204,1.99554c-1.53096,0.13884 -3.08505,-0.22943 -4.61149,-0.04753c-4.05133,0.48278 -7.73422,2.04648 -12,2c-3.95479,1.31826 -7.95336,1.33676 -12,2c-4.5296,0.7424 -9.57107,1.87035 -13.88749,3.68396c-1.61886,0.68019 -3.07827,1.75749 -4.76465,2.24685c-0.86468,0.25091 -1.84439,-0.36156 -2.69984,-0.08078c-0.89484,0.2937 -1.41117,1.28217 -2.25216,1.70612c-1.88252,0.94898 -4.10042,1.08565 -6,2c-1.5781,0.75961 -2.6592,2.28104 -4.02681,3.37513c-3.0211,2.41688 -3.89168,2.67533 -6.00969,5.90679c0,0 -2.7735,4.16025 -6.93375,1.38675c-3.49247,-2.32831 -2.09848,-5.63391 -1.56098,-6.63512c-0.56804,-0.32483 -1.13256,-0.81452 -1.66552,-1.52513z" fill="#ffd499" stroke="none" stroke-width="0.5" stroke-linecap="butt"/></g></g></svg>