<svg xmlns="http://www.w3.org/2000/svg" xmlns:xlink="http://www.w3.org/1999/xlink" version="1.1" width="223.16695" height="286.1302" viewBox="0,0,223.16695,286.1302"><g><g data-paper-data="{&quot;isPaintingLayer&quot;:true}" fill-rule="nonzero" stroke-linecap="butt" stroke-linejoin="miter" stroke-miterlimit="10" stroke-dasharray="" stroke-dashoffset="0" style="mix-blend-mode: normal"><g data-paper-data="{&quot;index&quot;:null}"><path d="M 121.7592 284.3306 L 128.921 226.3728 L 163.76 225.7751 L 175.8708 283.4022 Z " data-paper-data="{&quot;origPos&quot;:null}" fill="#d6bbff" stroke="#9d85c1" stroke-width="1"/><g data-paper-data="{&quot;origPos&quot;:null}"><path d="M 157.1701 282.346 C 157.0928 277.8427 161.6616 274.1127 167.3747 274.0147 C 173.0878 273.9167 177.7819 277.4878 177.8592 281.991 C 177.8756 282.9492 177.4052 285.3689 177.4052 285.3689 C 177.4052 285.3689 171.2991 285.3872 167.3345 285.4552 C 163.6877 285.5178 158.1926 285.3455 158.1926 285.3455 C 158.1926 285.3455 157.189 283.4448 157.1701 282.346 Z " data-paper-data="{&quot;origPos&quot;:null}" stroke-width="1" fill="#f7ffb5" stroke="none"/><path d="M 137.7815 282.6787 C 137.7042 278.1754 142.273 274.4454 147.9861 274.3474 C 153.6992 274.2494 158.3933 277.8205 158.4705 282.3237 C 158.487 283.2818 158.0166 285.7015 158.0166 285.7015 C 158.0166 285.7015 151.9105 285.7199 147.9459 285.7879 C 144.299 285.8505 138.8039 285.6782 138.8039 285.6782 C 138.8039 285.6782 137.8003 283.7775 137.7815 282.6787 Z " data-paper-data="{&quot;origPos&quot;:null}" stroke-width="1" fill="#f7ffb5" stroke="none"/><path d="M 128.834 274.6759 C 134.5471 274.5779 139.2411 278.1491 139.3184 282.6523 C 139.3348 283.6104 138.8645 286.0301 138.8645 286.0301 C 138.8645 286.0301 132.7584 286.0485 128.7938 286.1165 C 125.1469 286.1791 119.6518 286.0068 119.6518 286.0068 C 119.6518 286.0068 118.6482 284.1061 118.6293 283.0073 C 118.5521 278.504 123.1209 274.774 128.834 274.676 Z " data-paper-data="{&quot;origPos&quot;:null}" stroke-width="1" fill="#f7ffb5" stroke="none"/></g></g><g data-paper-data="{&quot;index&quot;:null}"><path d="M 84.7976 283.8828 L 91.9852 225.9282 L 126.8244 225.3459 L 138.9096 282.9784 Z " data-paper-data="{&quot;origPos&quot;:null}" fill="#d6bbff" stroke="#9d85c1" stroke-width="1"/><g data-paper-data="{&quot;origPos&quot;:null}"><path d="M 120.2094 281.9139 C 120.1341 277.4106 124.7046 273.6826 130.4177 273.5871 C 136.1308 273.4917 140.8233 277.0648 140.8985 281.5681 C 140.9145 282.5263 140.4431 284.9457 140.4431 284.9457 C 140.4431 284.9457 134.337 284.9614 130.3724 285.0277 C 126.7255 285.0886 121.2305 284.9139 121.2305 284.9139 C 121.2305 284.9139 120.2277 283.0127 120.2094 281.9139 Z " data-paper-data="{&quot;origPos&quot;:null}" stroke-width="1" fill="#f7ffb5" stroke="none"/><path d="M 100.8206 282.238 C 100.7454 277.7347 105.3158 274.0067 111.0289 273.9112 C 116.7421 273.8157 121.4346 277.3889 121.5098 281.8922 C 121.5258 282.8503 121.0544 285.2698 121.0544 285.2698 C 121.0544 285.2698 114.9483 285.2855 110.9836 285.3518 C 107.3367 285.4127 101.8417 285.238 101.8417 285.238 C 101.8417 285.238 100.839 283.3368 100.8206 282.238 Z " data-paper-data="{&quot;origPos&quot;:null}" stroke-width="1" fill="#f7ffb5" stroke="none"/><path d="M 91.8767 274.2313 C 97.5898 274.1358 102.2823 277.709 102.3575 282.2123 C 102.3735 283.1704 101.9021 285.5899 101.9021 285.5899 C 101.9021 285.5899 95.796 285.6056 91.8314 285.6718 C 88.1845 285.7328 82.6894 285.5581 82.6894 285.5581 C 82.6894 285.5581 81.6867 283.6569 81.6684 282.5581 C 81.5931 278.0548 86.1635 274.3268 91.8767 274.2313 Z " data-paper-data="{&quot;origPos&quot;:null}" stroke-width="1" fill="#f7ffb5" stroke="none"/></g></g><path d="M 183.0529 212.1168 C 173.1087 214.2369 163.8469 196.5067 162.3659 172.5153 C 160.885 148.5239 167.7458 127.3563 177.69 125.2363 C 187.6342 123.1162 196.896 140.8464 198.377 164.8378 C 199.8579 188.8292 192.9971 209.9968 183.053 212.1169 Z " data-paper-data="{&quot;origRot&quot;:0,&quot;index&quot;:null}" fill="#d6bbff" stroke="#9d85c1" stroke-width="1"/><path d="M 44.4027 241.1342 L 86.0657 153.9861 L 171.7547 152.1705 L 214.175 239.3186 Z " data-paper-data="{&quot;index&quot;:null}" fill="#999bff" stroke="#7850c7" stroke-width="1"/><path d="M 88.2873 174.0597 C 88.2094 198.0966 79.9982 216.3372 69.9473 214.8012 C 59.8963 213.2652 51.8116 192.5342 51.8895 168.4973 C 51.9674 144.4603 60.1786 126.2197 70.2295 127.7557 C 80.2805 129.2917 88.3652 150.0227 88.2873 174.0597 Z " data-paper-data="{&quot;origRot&quot;:0,&quot;index&quot;:null}" fill="#d6bbff" stroke="#9d85c1" stroke-width="1"/><g><g data-paper-data="{&quot;index&quot;:null}"><path d="M 221.3602 88.0468 C 209.0808 171.298 180.1422 141.2263 165.0934 137.9069 C 150.0448 134.5875 142.4171 87.7623 148.7714 58.9548 C 155.1257 30.1473 172.4763 9.4851 187.525 12.8046 C 202.5737 16.1239 228.8191 47.1039 221.3602 88.0468 Z " data-paper-data="{&quot;origRot&quot;:0,&quot;origPos&quot;:null,&quot;index&quot;:null}" fill="#d6bbff" stroke="#9d85c1" stroke-width="1"/><path d="M 0.5 81.0518 C 4.2247 29.2642 45.5542 16.4662 59.1628 19.7544 C 72.7715 23.0427 79.5762 69.8501 73.7677 98.6694 C 67.9592 127.4887 74.5899 147.8722 60.9812 144.5839 C 47.3726 141.2957 2.4346 122.1978 0.5 81.0517 Z " data-paper-data="{&quot;origRot&quot;:0,&quot;origPos&quot;:null}" fill="#d6bbff" stroke="#9d85c1" stroke-width="1"/><path d="M 45.5794 95.2418 C 40.6064 47.8945 73.1379 5.6717 118.2405 0.9345 C 163.3432 -3.8027 203.9375 30.7396 208.9104 78.0868 C 213.8834 125.4341 181.352 167.6569 136.2493 172.3942 C 91.1467 177.1314 50.5524 142.5891 45.5794 95.2418 Z " data-paper-data="{&quot;origPos&quot;:null,&quot;origRot&quot;:0}" fill="#d6bbff" stroke="#9d85c1" stroke-width="1"/><path d="M 136.1869 80.2149 C 135.0831 69.7055 142.5303 60.3098 152.8207 59.229 C 163.1111 58.1481 172.348 65.7915 173.4518 76.3008 C 174.5556 86.8102 167.1084 96.2059 156.818 97.2867 C 146.5276 98.3675 137.2907 90.7242 136.1869 80.2149 Z " data-paper-data="{&quot;origPos&quot;:null,&quot;origRot&quot;:0}" fill="#000000" stroke="none" stroke-width="1"/><path d="M 150.9619 75.2242 C 150.387 69.7506 154.1807 64.8659 159.4354 64.314 C 164.6901 63.7621 169.4158 67.7519 169.9908 73.2256 C 170.5657 78.6992 166.772 83.5838 161.5173 84.1358 C 156.2626 84.6877 151.5368 80.6978 150.9619 75.2242 Z " data-paper-data="{&quot;origRot&quot;:0}" fill="#ffffff" stroke="none" stroke-width="1"/><path d="M 171.1079 95.2091 C 173.0458 92.0792 179.8286 91.406 186.2576 93.7056 C 192.6866 96.0052 196.3274 100.4067 194.3894 103.5366 C 192.4515 106.6665 185.6688 107.3397 179.2398 105.0401 C 172.8107 102.7405 169.17 98.339 171.1078 95.2091 Z " data-paper-data="{&quot;origPos&quot;:null,&quot;origRot&quot;:0}" fill="#ffc0bb" stroke="none" stroke-width="1"/><path d="M 40.1323 91.5718 C 40.4968 72.3404 57.4935 26.7148 66.0777 26.8908 C 74.6618 27.0668 71.5828 72.9777 71.2183 92.2091 C 70.8539 111.4404 72.6326 142.291 64.0484 142.115 C 55.4643 141.939 39.768 110.8032 40.1324 91.5718 Z " data-paper-data="{&quot;origRot&quot;:0,&quot;origPos&quot;:null}" fill="#d6bbff" stroke="none" stroke-width="1"/><g data-paper-data="{&quot;origPos&quot;:null,&quot;origRot&quot;:0}"><path d="M 208.7673 135.2875 C 213.9877 156.7532 208.8008 171.2677 170.3915 165.5596 C 155.7613 163.3854 130.8566 146.0429 121.363 135.6355 C 111.8693 125.2281 111.4372 100.9309 111.4372 100.9309 L 142.7938 97.5483 C 142.7938 97.5483 146.7238 122.5187 160.4987 124.8812 C 176.9845 127.7086 203.547 113.8218 208.7673 135.2875 Z " data-paper-data="{&quot;origPos&quot;:null,&quot;origRot&quot;:0}" stroke="#9d85c1" stroke-width="1" fill="#d6bbff"/><path d="M 119.5665 119.3466 L 110.8793 97.1937 L 140.7029 94.9714 L 146.3944 116.5016 Z " data-paper-data="{&quot;origRot&quot;:0,&quot;origPos&quot;:null}" stroke="none" stroke-width="1" fill="#d6bbff"/></g><path d="M 70.2342 98.0551 C 72.4733 94.8936 80.1667 94.1248 87.4178 96.338 C 94.669 98.5512 98.7321 102.9084 96.493 106.07 C 94.2539 109.2315 86.5606 110.0003 79.3094 107.7871 C 72.0582 105.5738 67.9951 101.2167 70.2342 98.0551 Z " data-paper-data="{&quot;origPos&quot;:null,&quot;origRot&quot;:0}" fill="#ffc0bb" stroke="none" stroke-width="1"/><path d="M 96.1938 61.9701 C 106.4842 60.8893 115.7211 68.5327 116.8249 79.042 C 117.9288 89.5513 110.4816 98.947 100.1911 100.0278 C 89.9007 101.1087 80.6639 93.4654 79.56 82.956 C 78.4562 72.4466 85.9034 63.0509 96.1938 61.9701 Z " data-paper-data="{&quot;origPos&quot;:null,&quot;origRot&quot;:0}" fill="#000000" stroke="none" stroke-width="1"/><path d="M 94.5486 78.2561 C 93.9737 72.7825 97.7674 67.8978 103.0221 67.346 C 108.2768 66.794 113.0026 70.7839 113.5775 76.2575 C 114.1524 81.7312 110.3587 86.6158 105.104 87.1677 C 99.8493 87.7196 95.1235 83.7298 94.5486 78.2562 Z " data-paper-data="{&quot;origRot&quot;:0}" fill="#ffffff" stroke="none" stroke-width="1"/></g><path d="M 64.2274 53.3593 C 59.6515 62.5111 52.5671 79.6669 52.331 89.5094 C 52.1952 95.1686 58.3289 124.0193 41.7089 124.0193 C 34.6348 124.0193 31.3343 118.9908 31.0868 113.3972 C 29.925 87.1373 36.2933 76.0762 42.0143 53.3567 C 43.0103 49.4016 48.1703 32.5643 53.5477 32.9352 C 54.9466 32.257 56.5167 31.8767 58.1756 31.8767 C 64.042 31.8767 68.7977 36.6324 68.7977 42.4988 C 70.4253 44.2194 65.3634 51.0871 64.2274 53.3593 Z " fill="#d6bbff" stroke="none" stroke-width="0.5"/></g></g></g></svg>