<svg version="1.1" xmlns="http://www.w3.org/2000/svg" xmlns:xlink="http://www.w3.org/1999/xlink" width="550.25806" height="424.70968" viewBox="0,0,550.25806,424.70968"><defs><radialGradient cx="397.72221" cy="89.74147" r="23.06349" gradientUnits="userSpaceOnUse" id="color-1"><stop offset="0" stop-color="#ff9999"/><stop offset="1" stop-color="#ff0000"/></radialGradient><linearGradient x1="34.66218" y1="73.10519" x2="74.27961" y2="73.10519" gradientUnits="userSpaceOnUse" id="color-2"><stop offset="0" stop-color="#ffa48c"/><stop offset="1" stop-color="#ff8ca2"/></linearGradient><linearGradient x1="355.88365" y1="303.21824" x2="375.08513" y2="303.21824" gradientUnits="userSpaceOnUse" id="color-3"><stop offset="0" stop-color="#000000"/><stop offset="1" stop-color="#000000"/></linearGradient></defs><g transform="translate(40.54838,34.61288)"><g data-paper-data="{&quot;isPaintingLayer&quot;:true}" fill-rule="nonzero" stroke-linejoin="miter" stroke-miterlimit="10" stroke-dasharray="" stroke-dashoffset="0" style="mix-blend-mode: normal"><path d="M-39.54838,389.0968v-422.70968h548.25806v422.70968z" fill="#f5f5f5" stroke="#000000" stroke-width="2" stroke-linecap="butt"/><path d="M416.80863,123.21639l-18.87413,-27.62068" fill="none" stroke="#000000" stroke-width="5" stroke-linecap="round"/><path d="M430.61897,54.62504c0,0 1.38103,2.04853 1.38103,3.22241c0,4.60345 -0.98974,9.18388 -1.38103,13.81034c-0.23017,2.60095 0.20716,5.29396 -0.46034,7.82586c-1.335,4.90267 -2.83112,9.94344 -5.52414,14.27068c-1.28896,2.04853 -3.82086,3.08431 -5.98448,4.1431c-2.32474,1.10483 -4.99474,1.35802 -7.36551,2.30172c-2.69302,1.03578 -7.82586,3.68276 -7.82586,3.68276c1.84138,0.46034 -2.36939,3.3711 -4.60345,4.60345c-2.22162,1.2259 -4.60575,2.14935 -6.90517,3.22241c-2.29942,1.07306 -4.47455,2.49323 -6.90517,3.22241c-2.22208,0.66658 -4.59608,0.69742 -6.90517,0.92069c-2.44627,0.23662 -4.90911,0.38117 -7.36551,0.46034c-2.29804,0.07412 -4.63521,0.36597 -6.90517,0c-2.53696,-0.40925 -4.93535,-1.4662 -7.36551,-2.30172c-2.47711,-0.85164 -5.02236,-1.59049 -7.36551,-2.76207c-4.72774,-2.36387 -13.81034,-7.82586 -13.81034,-7.82586" fill="none" stroke="#000000" stroke-width="5" stroke-linecap="round"/><path d="M383.43364,44.9578c8.82665,0 16.82514,3.12068 22.61719,8.16237c5.7916,5.04215 9.37676,12.00487 9.37676,19.68848c0,7.68361 -3.58516,14.64632 -9.37676,19.68848c-5.79206,5.04169 -13.79054,8.16237 -22.61719,8.16237c-8.82665,0 -16.82514,-3.12068 -22.61719,-8.16237c-5.7916,-5.04215 -9.37676,-12.00487 -9.37676,-19.68848c0,-7.68361 3.58516,-14.64632 9.37676,-19.68848c5.79206,-5.04169 13.79054,-8.16237 22.61719,-8.16237z" fill="#ffffff" stroke="none" stroke-width="5" stroke-linecap="butt"/><path d="M385.04485,48.41038c8.82665,0 16.82514,3.12068 22.61719,8.16237c5.7916,5.04215 9.37676,12.00487 9.37676,19.68848c0,7.68361 -5.13929,18.85664 -9.37676,19.68848c-3.44706,0.66382 -3.11837,-11.77838 -5.58444,-17.38676c-1.57714,-3.48435 -3.28916,-7.44147 -6.44482,-9.66724c-5.78423,-4.063 -12.31698,-6.9733 -18.87413,-9.66724c-4.59884,-1.44594 -15.97718,-0.41937 -14.33099,-2.65573c2.49369,-3.3886 13.79054,-8.16237 22.61719,-8.16237z" fill="#7f7f7f" stroke="none" stroke-width="5" stroke-linecap="round"/><path d="M369.88377,48.37024c7.46693,-3.73349 15.70931,-4.16391 22.99352,-1.8429c7.28463,2.32078 13.61133,7.39231 17.24644,14.66248c3.63507,7.27018 3.89626,15.37445 1.38214,22.59463c-2.51376,7.21995 -7.80349,13.55563 -15.27046,17.28907c-7.46697,3.73349 -15.70931,4.16391 -22.99352,1.84294c-7.28463,-2.32078 -13.61138,-7.39235 -17.24644,-14.66253c-3.63511,-7.27018 -3.89631,-15.37445 -1.38214,-22.59463c2.51376,-7.21995 7.80349,-13.55558 15.27046,-17.28907z" fill="none" stroke="#000000" stroke-width="5" stroke-linecap="round"/><path d="M399.31553,67.97503l0.1381,0.1381" fill="none" stroke="#000000" stroke-width="5" stroke-linecap="round"/><path d="M369.39313,81.78537l0.1381,0.1381" fill="none" stroke="#000000" stroke-width="5" stroke-linecap="round"/><path d="M379.98106,85.00778c1.68808,-0.66566 3.87058,-0.04281 5.06379,-0.46034c1.88097,-0.65829 3.78219,-1.33408 5.52414,-2.30172c1.04682,-0.58142 1.91549,-1.45515 2.76207,-2.30172c0.6942,-0.6942 0.99987,-1.79673 1.84138,-2.30172c0.79962,-0.47968 1.8423,-0.61364 2.76207,-0.46034c1.01414,0.16895 1.89432,0.82908 2.76207,1.38103c0.82816,0.52709 1.86255,0.9635 2.30172,1.84138c0.41155,0.82264 0,1.8423 0,2.76207c0,0.91977 0.15099,1.85473 0,2.76207c-0.15928,0.95614 -0.54781,1.86716 -0.92069,2.76207c-0.39544,0.94923 -0.9856,1.81284 -1.38103,2.76207c-0.37288,0.89491 -0.36459,1.96797 -0.92069,2.76207c-0.563,0.80422 -1.39392,1.46758 -2.30172,1.84138c-1.75345,0.72182 -3.63074,1.27608 -5.52414,1.38103c-0.9681,0.05386 -1.8423,-0.6141 -2.76207,-0.92069c-0.91977,-0.30659 -2.07661,-0.23524 -2.76207,-0.92069c-0.8254,-0.8254 -0.89169,-2.16224 -1.38103,-3.22241c-0.43088,-0.93358 -0.89721,-1.85473 -1.38103,-2.76207c-0.74254,-1.39254 -2.68519,-2.73721 -2.30172,-4.1431z" fill="url(#color-1)" stroke="#000000" stroke-width="5" stroke-linecap="round"/><path d="M355.00129,79.76137c-0.52088,0.24048 -0.8474,0.85698 -1.35576,1.11638c-1.23303,0.5949 -2.32828,2.09305 -3.12247,1.82568c-1.86154,-0.89961 -2.95205,-2.923 -3.21638,-4.59691c-0.34116,-2.40908 0.61999,-5.33176 0.83106,-7.60162c0.15619,-1.69453 0.02803,-3.36424 0.37053,-5.07567c0.15532,-0.78208 0.84372,-1.37813 1.10151,-2.0698c0.39866,-1.11187 -0.44787,-2.42915 0.00806,-3.67401c1.87798,-2.09199 4.5088,-3.54682 6.4358,-5.53785c0.40151,-0.43793 -1.37123,1.55072 -0.84791,0.99637c2.01258,-2.12652 3.92794,-4.40789 5.90627,-6.5032c1.69545,-1.45805 3.30155,-2.9648 5.07613,-4.14991c2.57885,-1.59809 5.46116,-2.56707 8.13153,-3.89286c0.9252,-0.45952 1.89749,-0.76693 2.84484,-1.14985c0.9473,-0.38287 1.88134,-0.87585 2.84484,-1.1498c0.89427,-0.25393 1.78922,-0.23533 2.68551,-0.42237c1.04544,-0.21857 2.17108,-0.95043 3.13748,-0.79442c1.78526,0.2885 3.15746,1.37754 4.73386,2.06529c0.7882,0.34383 1.53704,0.76242 2.36691,1.0326c0.87383,0.28946 2.02045,-0.112 2.72165,0.1741c2.07634,1.51044 3.46764,3.67442 5.39036,5.07286c0.67606,0.49041 1.69342,0.53883 2.36691,1.0326c0.62565,0.45869 0.97588,1.1852 1.46311,1.77688c0.48723,0.59173 2.04402,1.01349 1.46311,1.77688c-1.18451,1.55735 -3.32502,2.22623 -5.10444,3.01042c-0.87249,0.38443 -1.78927,0.23528 -2.68556,0.42232c-1.04544,0.21857 -2.13361,0.30061 -3.13743,0.79446c-0.86071,0.42366 -1.43913,1.35493 -2.2596,1.86057c-0.8486,0.50371 -1.65379,0.59785 -2.11754,1.29633c-1.83328,1.31276 -2.71221,3.77717 -4.59866,4.59162c-1.82135,0.75078 -3.49075,-1.22599 -5.11507,-0.91655c-0.88925,0.18543 -1.57829,1.1684 -2.2596,1.86057c-1.38973,1.41211 -2.54414,3.01981 -3.93392,4.43192c-0.68131,0.69217 -1.46219,1.30296 -2.2596,1.86057c-0.8132,0.5688 -1.64895,1.17287 -2.55224,1.50519c-0.88515,0.32574 -1.8092,0.40262 -2.68551,0.42232c-0.87631,0.0197 -1.63003,-0.51711 -2.52623,-0.30516c-0.91411,0.21604 -2.1383,0.66055 -2.5522,1.50523c-1.11647,2.32239 0.23284,5.15185 -1.44949,7.12687c-0.97906,1.34821 -2.79636,-0.17456 -4.15885,-0.12365c-0.62782,0.03508 -1.31507,0.11679 -3.29676,1.52195z" fill="#251203" stroke="#190c02" stroke-width="5" stroke-linecap="round"/><path d="M9.10301,261.9917v-253.23621h222.06868v253.23621z" fill="#f5f5f5" stroke="#8e8e8e" stroke-width="3.5" stroke-linecap="butt"/><text transform="translate(17.82641,48.94723) scale(0.33747,0.33747)" font-size="40" xml:space="preserve" fill="#8e8e8e" fill-rule="nonzero" stroke="none" stroke-width="1" stroke-linecap="butt" stroke-linejoin="miter" stroke-miterlimit="10" stroke-dasharray="" stroke-dashoffset="0" font-family="&quot;ヒラギノ角ゴ Pro W3&quot;, &quot;Hiragino Kaku Gothic Pro&quot;, Osaka, &quot;メイリオ&quot;, Meiryo, &quot;ＭＳ Ｐゴシック&quot;, &quot;MS PGothic&quot;" font-weight="normal" text-anchor="start" style="mix-blend-mode: normal"><tspan x="0" dy="0">Joined: 21st October 2013</tspan></text><g stroke="none" stroke-linecap="butt"><path d="M75.38528,91.27755c-10.03632,0 -18.17236,-8.13604 -18.17236,-18.17236c0,-10.03632 8.13604,-18.17236 18.17236,-18.17236c10.03632,0 18.17236,8.13604 18.17236,18.17236c0,10.03632 -8.13604,18.17236 -18.17236,18.17236z" data-paper-data="{&quot;index&quot;:null}" fill="#ff8ca2" stroke-width="0"/><path d="M15.38415,73.10519c0,-10.03632 8.13604,-18.17236 18.17236,-18.17236c10.03632,0 18.17236,8.13604 18.17236,18.17236c0,10.03632 -8.13604,18.17236 -18.17236,18.17236c-10.03632,0 -18.17236,-8.13604 -18.17236,-18.17236z" fill="#ffa48c" stroke-width="0"/><path d="M34.66218,91.20379v-36.19726h39.61743v36.19726z" fill="url(#color-2)" stroke-width="0"/><text transform="translate(21.58212,77.43358) scale(0.3607,0.3607)" font-size="40" xml:space="preserve" fill="#c42d7b" fill-rule="nonzero" stroke="none" stroke-width="1" stroke-linecap="butt" stroke-linejoin="miter" stroke-miterlimit="10" stroke-dasharray="" stroke-dashoffset="0" font-family="&quot;ヒラギノ角ゴ Pro W3&quot;, &quot;Hiragino Kaku Gothic Pro&quot;, Osaka, &quot;メイリオ&quot;, Meiryo, &quot;ＭＳ Ｐゴシック&quot;, &quot;MS PGothic&quot;" font-weight="normal" text-anchor="start" style="mix-blend-mode: normal"><tspan x="0" dy="0">Animator</tspan></text></g><text transform="translate(15.20276,106.15928) scale(0.2979,0.2979)" font-size="40" xml:space="preserve" fill="#8e8e8e" fill-rule="nonzero" stroke="none" stroke-width="1" stroke-linecap="butt" stroke-linejoin="miter" stroke-miterlimit="10" stroke-dasharray="" stroke-dashoffset="0" font-family="&quot;ヒラギノ角ゴ Pro W3&quot;, &quot;Hiragino Kaku Gothic Pro&quot;, Osaka, &quot;メイリオ&quot;, Meiryo, &quot;ＭＳ Ｐゴシック&quot;, &quot;MS PGothic&quot;" font-weight="normal" text-anchor="start" style="mix-blend-mode: normal"><tspan x="0" dy="0">Notable Projects:</tspan></text><text transform="translate(15.20276,130.19153) scale(0.41023,0.43347)" font-size="40" xml:space="preserve" fill="#8e8e8e" fill-rule="nonzero" stroke="none" stroke-width="1" stroke-linecap="butt" stroke-linejoin="miter" stroke-miterlimit="10" stroke-dasharray="" stroke-dashoffset="0" font-family="&quot;ヒラギノ角ゴ Pro W3&quot;, &quot;Hiragino Kaku Gothic Pro&quot;, Osaka, &quot;メイリオ&quot;, Meiryo, &quot;ＭＳ Ｐゴシック&quot;, &quot;MS PGothic&quot;" font-weight="normal" text-anchor="start" style="mix-blend-mode: normal"><tspan x="0" dy="0">Food Shoot (March 2019)</tspan><tspan x="0" dy="46.150000000000006px">Hot Dog (March 2020)</tspan></text><text transform="translate(13.97295,178.99711) scale(0.29708,0.29708)" font-size="40" xml:space="preserve" fill="#8e8e8e" fill-rule="nonzero" stroke="none" stroke-width="1" stroke-linecap="butt" stroke-linejoin="miter" stroke-miterlimit="10" stroke-dasharray="" stroke-dashoffset="0" font-family="&quot;ヒラギノ角ゴ Pro W3&quot;, &quot;Hiragino Kaku Gothic Pro&quot;, Osaka, &quot;メイリオ&quot;, Meiryo, &quot;ＭＳ Ｐゴシック&quot;, &quot;MS PGothic&quot;" font-weight="normal" text-anchor="start" style="mix-blend-mode: normal"><tspan x="0" dy="0">A 2.0 icon, Dhilly's well-known for</tspan><tspan x="0" dy="46.150000000000006px">his comedy animations and a few </tspan><tspan x="0" dy="46.150000000000006px">games. He's had cameos in big </tspan><tspan x="0" dy="46.150000000000006px">projects like The Scratch Saga and </tspan><tspan x="0" dy="46.150000000000006px">The Unfamous.</tspan></text><text transform="translate(7.69514,344.82012) scale(1.4788,1.4788)" font-size="40" xml:space="preserve" fill="#8e8e8e" fill-rule="nonzero" stroke="none" stroke-width="1" stroke-linecap="butt" stroke-linejoin="miter" stroke-miterlimit="10" stroke-dasharray="" stroke-dashoffset="0" font-family="&quot;ヒラギノ角ゴ Pro W3&quot;, &quot;Hiragino Kaku Gothic Pro&quot;, Osaka, &quot;メイリオ&quot;, Meiryo, &quot;ＭＳ Ｐゴシック&quot;, &quot;MS PGothic&quot;" font-weight="normal" text-anchor="start" style="mix-blend-mode: normal"><tspan x="0" dy="0">10</tspan></text><text transform="translate(15.43462,35.42794) scale(0.13422,0.13422)" font-size="40" xml:space="preserve" fill="#8e8e8e" fill-rule="nonzero" stroke="none" stroke-width="1" stroke-linecap="butt" stroke-linejoin="miter" stroke-miterlimit="10" stroke-dasharray="" stroke-dashoffset="0" font-family="&quot;ヒラギノ角ゴ Pro W3&quot;, &quot;Hiragino Kaku Gothic Pro&quot;, Osaka, &quot;メイリオ&quot;, Meiryo, &quot;ＭＳ Ｐゴシック&quot;, &quot;MS PGothic&quot;" font-weight="normal" text-anchor="start" style="mix-blend-mode: normal"><tspan x="0" dy="0">@Dhilly</tspan></text><text transform="translate(16.61026,29.32808) scale(0.50346,0.50346)" font-size="40" xml:space="preserve" fill="#8e8e8e" fill-rule="nonzero" stroke="none" stroke-width="1" stroke-linecap="butt" stroke-linejoin="miter" stroke-miterlimit="10" stroke-dasharray="" stroke-dashoffset="0" font-family="&quot;ヒラギノ角ゴ Pro W3&quot;, &quot;Hiragino Kaku Gothic Pro&quot;, Osaka, &quot;メイリオ&quot;, Meiryo, &quot;ＭＳ Ｐゴシック&quot;, &quot;MS PGothic&quot;" font-weight="normal" text-anchor="start" style="mix-blend-mode: normal"><tspan x="0" dy="0">Dhilly</tspan></text><g stroke-linecap="butt"><text transform="translate(257.05438,104.77764) scale(0.61121,0.61121)" font-size="40" xml:space="preserve" fill="#8e8e8e" fill-rule="nonzero" stroke="none" stroke-width="1" stroke-linecap="butt" stroke-linejoin="miter" stroke-miterlimit="10" stroke-dasharray="" stroke-dashoffset="0" font-family="&quot;ヒラギノ角ゴ Pro W3&quot;, &quot;Hiragino Kaku Gothic Pro&quot;, Osaka, &quot;メイリオ&quot;, Meiryo, &quot;ＭＳ Ｐゴシック&quot;, &quot;MS PGothic&quot;" font-weight="normal" text-anchor="start" style="mix-blend-mode: normal"><tspan x="0" dy="0">2016</tspan></text><path d="M249.94926,123.02129v-118.51155h228.33349v118.51155z" fill="none" stroke="#8e8e8e" stroke-width="3.5"/></g><g stroke-linecap="butt"><text transform="translate(257.05438,223.3354) scale(0.61121,0.61121)" font-size="40" xml:space="preserve" fill="#8e8e8e" fill-rule="nonzero" stroke="none" stroke-width="1" stroke-linecap="butt" stroke-linejoin="miter" stroke-miterlimit="10" stroke-dasharray="" stroke-dashoffset="0" font-family="&quot;ヒラギノ角ゴ Pro W3&quot;, &quot;Hiragino Kaku Gothic Pro&quot;, Osaka, &quot;メイリオ&quot;, Meiryo, &quot;ＭＳ Ｐゴシック&quot;, &quot;MS PGothic&quot;" font-weight="normal" text-anchor="start" style="mix-blend-mode: normal"><tspan x="0" dy="0">2017</tspan></text><path d="M249.94926,241.57906v-118.51155h228.33349v118.51155z" fill="none" stroke="#8e8e8e" stroke-width="3.5"/></g><path d="M357.5236,238.16405l6.01777,-14.29221l5.64166,-8.65055" fill="none" stroke="#000000" stroke-width="2.5" stroke-linecap="round"/><path d="M375.95303,214.46907l6.39388,7.89832l4.88944,15.42054" fill="none" stroke="#000000" stroke-width="2.5" stroke-linecap="round"/><g stroke-width="2.5"><path d="M371.4409,137.42212c5.66246,-0.20735 10.87302,1.77848 14.71672,5.15448c3.84404,3.37597 6.32152,8.14178 6.51751,13.49406c0.19599,5.35228 -1.92625,10.28655 -5.51307,13.93464c-3.58652,3.64809 -8.63783,6.00972 -14.30029,6.21707c-5.66246,0.20735 -10.87302,-1.77851 -14.71672,-5.15448c-3.84404,-3.37597 -6.32152,-8.14178 -6.51751,-13.49406c-0.19599,-5.35228 1.92629,-10.28655 5.51307,-13.93464c3.58652,-3.64809 8.63787,-6.00972 14.30029,-6.21707z" fill="#ffffff" stroke="#000000" stroke-linecap="butt"/><path d="M370.31633,140.23264c4.71515,-0.17267 9.05667,1.55146 12.26177,4.47628c3.2051,2.92482 5.27382,7.05035 5.44338,11.68049c0.16955,4.63019 -1.59189,8.89596 -4.57448,12.04739c-2.9826,3.15143 -7.18638,5.18845 -11.90153,5.36112c-4.71515,0.17267 -9.05667,-1.55146 -12.26177,-4.47628c-3.2051,-2.92482 -5.27382,-7.05035 -5.44338,-11.68049c-0.16955,-4.63019 1.59185,-8.89596 4.57448,-12.04739c2.9826,-3.15143 7.18638,-5.18845 11.90153,-5.36112z" fill="#cccccc" stroke="none" stroke-linecap="round"/><path d="M357.71105,137.00008c0.6588,-0.28159 1.39729,-0.12178 2.1597,-0.38743c1.10434,-0.37502 2.24301,-0.67941 3.35348,-1.04784c1.32462,-0.43952 2.61739,-0.99041 3.95808,-1.37837c1.10212,-0.31879 2.24433,-0.49353 3.3648,-0.73992c1.12047,-0.24639 2.22142,-0.64593 3.36476,-0.73992c1.1295,-0.09286 2.28483,-0.02663 3.39861,0.18392c1.1802,0.22318 2.36653,0.55409 3.43242,1.10768c2.09655,1.0888 3.97523,2.56763 5.99742,3.78898c1.02419,0.61866 2.17633,1.03528 3.14703,1.73485c0.94189,0.67873 1.99685,1.35456 2.55372,2.3733c0.59884,1.09523 0.89699,2.43302 0.75121,3.67272c-0.17388,1.48304 -0.19656,4.54304 -1.69389,4.68728c-2.34366,-0.15714 -3.88902,-3.49734 -6.01585,-4.71331c-1.15793,-0.6591 -2.41858,-1.45322 -3.75163,-1.4044c-1.23917,0.0454 -2.18216,1.19769 -3.33095,1.66376c-1.0841,0.43994 -2.18426,1.00504 -3.35348,1.04784c-1.16925,0.0428 -2.25129,-0.79175 -3.42118,-0.79976c-1.2482,-0.00858 -2.4633,0.4414 -3.67268,0.75117c-1.13337,0.29036 -2.18742,0.95212 -3.35352,1.04788c-1.1433,0.09395 -2.26374,-0.50914 -3.40986,-0.49184c-0.74951,0.00308 -1.24613,0.25068 -1.53254,0.67282c-1.16346,0.90011 -1.5533,2.51445 -2.65869,3.18088c-1.93261,1.05627 -4.99539,2.25441 -6.4216,1.46856c-1.08094,-0.61968 0.58632,-3.27152 0.77005,-4.65347c0.14401,-1.13695 0.27874,-2.28277 0.49184,-3.40989c0.21724,-1.14947 0.32586,-2.35171 0.79976,-3.42114c0.30326,-0.6864 0.89307,-1.20197 1.46792,-1.59554c1.12604,-1.00388 2.3074,-1.90346 3.60506,-2.59881z" fill="#251203" stroke="#190c02" stroke-linecap="round"/><g><path d="M373.82514,163.92543c1.60133,0.00132 3.38992,-1.14962 5.00874,-0.54261c0.98793,0.44622 1.38356,1.99057 1.37367,3.18235c-0.01155,1.22454 -0.60701,2.38353 -1.69754,3.23594c-1.09016,0.85276 -2.61882,1.41192 -4.32591,1.47443c-1.70705,0.06255 -3.27254,-0.38337 -4.42216,-1.1541c-1.14992,-0.77035 -1.88435,-1.86592 -1.92967,-3.1031c-0.04528,-1.23714 0.58135,-2.76148 1.69754,-3.23591c1.36224,-0.57394 2.87066,0.26629 4.29533,0.143z" fill="#000000" stroke="#000000" stroke-linecap="round"/><path d="M372.48581,167.40461c0.82951,-0.03035 1.58895,0.15259 2.14564,0.47281c0.5571,0.3206 0.73815,0.80435 0.93005,1.29638c0.22469,0.56537 0.61603,1.42681 0.06195,1.69137c-0.77095,0.63266 -1.91982,0.35031 -3.00001,0.29803c-0.73251,-0.03415 -1.58892,-0.15255 -2.14564,-0.47277c-0.5571,-0.3206 -0.91105,-0.7781 -0.93005,-1.29642c-0.01899,-0.51828 0.30059,-1.00045 0.83275,-1.36092c0.53178,-0.36009 1.27581,-0.59809 2.10532,-0.62848z" fill="#ff0000" stroke="none" stroke-linecap="butt"/><path d="M369.71715,163.74238l9.38272,-0.71995l-0.27953,2.64477l-9.38272,0.71995z" fill="#ffffff" stroke="none" stroke-linecap="round"/><path d="M374.04471,163.77059c1.67787,0.00139 3.55203,-1.20461 5.24825,-0.56857c1.03521,0.46754 1.44976,2.0858 1.43941,3.33456c-0.01211,1.2831 -0.63608,2.49753 -1.77874,3.39068c-1.14229,0.89356 -2.74407,1.47951 -4.53281,1.54499c-1.78871,0.06552 -3.42904,-0.40172 -4.63365,-1.20931c-1.20495,-0.80721 -1.97447,-1.95517 -2.02193,-3.25148c-0.0475,-1.29634 0.60911,-2.89361 1.7787,-3.39071c1.42738,-0.60136 3.00795,0.27904 4.50077,0.14984z" fill="none" stroke="#000000" stroke-linecap="round"/></g><path d="M370.63091,147.52546c0.77765,-0.02851 1.51362,0.79852 2.07451,2.15775c0.56086,1.35919 0.94626,3.25024 1.02313,5.35014c0.07691,2.09994 -0.16914,4.01408 -0.62908,5.41069c-0.45998,1.39657 -1.13348,2.27521 -1.91113,2.30368c-0.77765,0.02847 -1.51362,-0.79852 -2.07448,-2.15775c-0.56089,-1.35919 -0.94629,-3.25024 -1.02317,-5.35014c-0.07691,-2.09994 0.16914,-4.01408 0.62912,-5.41069c0.45995,-1.39657 1.13345,-2.27521 1.91109,-2.30368z" fill="#000000" stroke="none" stroke-linecap="butt"/><path d="M374.6847,165.86312c0.00124,0.03381 0.00293,0.08082 0.00485,0.13269c0.00188,0.05186 0.00361,0.09884 0.00485,0.13265c0.00124,0.03423 0.00203,0.05525 0.00203,0.05525c0,0 -0.00079,-0.02102 -0.00203,-0.05525c-0.00124,-0.03381 -0.00297,-0.08078 -0.00485,-0.13265c-0.00192,-0.05186 -0.00361,-0.09888 -0.00485,-0.13269c-0.00128,-0.03419 -0.00203,-0.05525 -0.00203,-0.05525c0,0 0.00075,0.02106 0.00203,0.05525z" fill="#000000" stroke="none" stroke-linecap="butt"/><path d="M378.32237,146.9613c0.77765,-0.02851 1.51362,0.79852 2.07451,2.15775c0.56086,1.35919 0.94626,3.25024 1.02313,5.35014c0.07691,2.09994 -0.16914,4.01408 -0.62908,5.41069c-0.45998,1.39657 -1.13348,2.27521 -1.91113,2.30368c-0.77765,0.02847 -1.51362,-0.79852 -2.07448,-2.15775c-0.56089,-1.35919 -0.94629,-3.25024 -1.02317,-5.35014c-0.07691,-2.09994 0.16914,-4.01408 0.62912,-5.41069c0.45995,-1.39657 1.13345,-2.27521 1.91109,-2.30368z" fill="#000000" stroke="none" stroke-linecap="butt"/><path d="M370.0215,177.26943l3.75859,-0.13762l3.25565,37.51704l-7.87926,0.66489z" fill="#000000" stroke="none" stroke-linecap="round"/><path d="M396.56455,162.83637l-7.57645,8.9338l-17.82099,6.67439l-17.17517,-6.52195l-8.25089,-9.48329" fill="none" stroke="#000000" stroke-linecap="round"/></g><g stroke-width="1"><path d="M365.46808,335.75317l-9.58444,-10.85587l9.58444,-21.67906l9.61705,22.00506l-9.29105,10.20386z" fill="none" stroke="url(#color-3)" stroke-linecap="round"/><path d="M366.76361,255.99306c7.42565,0 14.15433,2.85056 19.0261,7.45563c4.87174,4.60576 7.8879,10.96603 7.8879,17.98485c0,7.01881 -3.01616,13.37844 -7.8879,17.98416c-4.87177,4.60576 -11.60044,7.45631 -19.0261,7.45631c-7.42565,0 -14.15365,-2.85056 -19.02607,-7.45631c-4.87177,-4.60573 -7.88793,-10.96535 -7.88793,-17.98416c0,-7.01881 3.01616,-13.37909 7.88793,-17.98485c4.87242,-4.60508 11.60041,-7.45563 19.02607,-7.45563z" fill="#ffffff" stroke="#000000" stroke-linecap="butt"/><path d="M379.69086,264.51472c4.74005,0.8287 10.06824,8.23416 10.39814,9.97433c0.26536,1.44419 -5.7109,-2.32764 -8.62142,-2.44304c-3.0677,-0.18843 -5.9906,1.64435 -8.86399,1.555c-2.47175,-0.07563 -4.61681,-2.31135 -7.08726,-2.22135c-2.16529,0.08214 -3.68316,2.24677 -5.75392,2.44369c-2.11313,0.20017 -4.31822,-1.8269 -6.42092,-1.111c-1.4305,0.34099 -1.51068,2.58126 -2.42285,3.75554c-1.52047,1.97098 -4.96369,2.84923 -4.88611,5.10842c0.16954,5.28124 2.78276,10.19144 5.53223,14.59768c2.18746,3.50321 9.77745,8.58559 9.30799,8.86399c-0.63568,0.1102 -10.52723,-3.43213 -13.72987,-7.30895c-3.68901,-4.47013 -6.04078,-10.48942 -5.95604,-16.35483c0.08217,-5.72914 1.44812,-13.23498 6.56828,-15.55742c9.68355,-4.38995 21.51215,-3.5795 31.93573,-1.30206z" fill="#e5e5e5" stroke="none" stroke-linecap="round"/><path d="M364.70997,307.14331l1.91346,-0.65266l1.0328,54.9677l-4.32277,-1.53221z" fill="#000000" stroke="none" stroke-linecap="round"/><path d="M367.05783,256.08597c7.42565,0 14.15433,2.85056 19.0261,7.45563c4.87174,4.60576 7.8879,10.96603 7.8879,17.98485c0,7.01881 -3.01616,13.37844 -7.8879,17.98416c-4.87177,4.60576 -11.60044,7.45631 -19.0261,7.45631c-7.42565,0 -14.15365,-2.85056 -19.02607,-7.45631c-4.87177,-4.60573 -7.88793,-10.96535 -7.88793,-17.98416c0,-7.01881 3.01616,-13.37909 7.88793,-17.98485c4.87242,-4.60508 11.60041,-7.45563 19.02607,-7.45563z" fill="none" stroke="#000000" stroke-linecap="butt"/><path d="M365.66106,278.37173c0.60245,0 1.1495,0.67938 1.54394,1.77737c0.39578,1.09796 0.64092,2.61388 0.64092,4.28691c0,1.67238 -0.24514,3.1883 -0.64092,4.28626c-0.39445,1.09796 -0.94149,1.77737 -1.54394,1.77737c-0.6031,0 -1.15012,-0.67941 -1.5446,-1.77737c-0.39575,-1.09796 -0.64092,-2.61388 -0.64092,-4.28626c0,-1.67303 0.24517,-3.18895 0.64092,-4.28691c0.39448,-1.09799 0.94149,-1.77737 1.5446,-1.77737z" fill="#000000" stroke="none" stroke-linecap="butt"/><path d="M370.71411,278.24134c0.60245,0 1.14946,0.67938 1.54394,1.77734c0.39575,1.09799 0.64092,2.61388 0.64092,4.28691c0,1.67241 -0.24517,3.1883 -0.64092,4.28629c-0.39448,1.09796 -0.94149,1.77734 -1.54394,1.77734c-0.6031,0 -1.15015,-0.67938 -1.5446,-1.77734c-0.39578,-1.09799 -0.64092,-2.61388 -0.64092,-4.28629c0,-1.67303 0.24514,-3.18892 0.64092,-4.28691c0.39445,-1.09796 0.94149,-1.77734 1.5446,-1.77734z" fill="#000000" stroke="none" stroke-linecap="butt"/><path d="M368.08732,292.0347c1.30321,0.00799 2.75002,-0.20385 3.98999,0.13937c0.53589,0.14733 0.66542,0.71553 0.55246,1.11487c-0.14302,0.5013 -0.50703,0.94248 -1.32653,1.2666c-0.82009,0.32449 -1.9514,0.52518 -3.20056,0.52518c-1.24919,0 -2.38051,-0.20069 -3.20059,-0.52518c-0.8195,-0.32411 -1.1927,-0.76449 -1.32653,-1.2666c-0.1154,-0.43759 -0.00369,-1.04717 0.58316,-1.1945c1.21296,-0.35316 2.62295,-0.0677 3.9286,-0.05974z" fill="#000000" stroke="#000000" stroke-linecap="round"/><path d="M364.40732,292.33335l0.15653,-0.77645l6.43126,0.09954l0.67951,0.57736l-0.60155,0.85604l-5.90763,-0.0398z" fill="#ffffff" stroke="none" stroke-linecap="round"/><path d="M368.19476,294.00564c0.49535,0 0.94409,0.06371 1.26942,0.16644c0.32473,0.10273 0.52608,0.24449 0.52608,0.40095c0,0.1565 -0.20134,0.29822 -0.52608,0.40095c-0.32532,0.10273 -0.77406,0.16644 -1.26942,0.16644c-0.49538,0 -0.94409,-0.06371 -1.26945,-0.16644c-0.32473,-0.10273 -0.52605,-0.24446 -0.52605,-0.40095c0,-0.15647 0.20131,-0.29822 0.52605,-0.40095c0.32535,-0.10273 0.77406,-0.16644 1.26945,-0.16644z" fill="#ff0000" stroke="none" stroke-linecap="butt"/><path d="M368.08732,292.05461c1.31916,0.03425 2.7316,-0.19468 3.95929,0.11946c0.55922,0.14293 0.66848,0.71989 0.55246,1.11487c-0.14795,0.5009 -0.50703,0.94248 -1.32653,1.2666c-0.82009,0.32449 -1.9514,0.52518 -3.20056,0.52518c-1.24919,0 -2.38051,-0.20069 -3.20059,-0.52518c-0.8195,-0.32411 -1.1927,-0.76449 -1.32653,-1.2666c-0.1154,-0.43759 -0.01595,-1.0428 0.58316,-1.1945c1.22891,-0.31138 2.64076,-0.03224 3.95929,-0.03983z" fill="none" stroke="#000000" stroke-linecap="round"/><path d="M369.36584,275.97626h7.58794v2.94226h-7.58794z" fill="#ffffff" stroke="none" stroke-linecap="round"/><path d="M349.02848,255.32476c0.90566,-0.57442 1.70174,-1.40965 2.6804,-1.77672c1.42266,-0.53072 2.94248,-0.78239 4.40101,-1.21141c1.73956,-0.51248 3.44322,-1.17164 5.20102,-1.61567c1.44484,-0.36447 2.93533,-0.53856 4.40101,-0.80717c1.46506,-0.26926 2.9125,-0.74003 4.40039,-0.80782c1.47026,-0.06783 2.96596,0.07433 4.40101,0.40359c1.52047,0.34883 3.04419,0.83913 4.40101,1.61564c2.66866,1.52635 5.03607,3.55277 7.60169,5.24928c1.29946,0.85936 2.77428,1.46048 4.0007,2.42285c1.18991,0.93431 2.52651,1.86995 3.20069,3.23067c0.725,1.46311 1.04776,3.22937 0.79999,4.84569c-0.29599,1.93384 -0.37227,5.93191 -2.42021,6.0571c-3.024,0.09586 -4.95979,-3.86963 -7.76209,-5.20886c-1.41226,-0.68199 -3.07615,-0.0743 -4.60052,-0.22231c-1.47875,-0.21321 -2.90404,-0.77979 -4.38081,-0.66635c-1.51198,-0.04175 -2.92619,0.8776 -4.44145,0.84824c-1.51784,-0.02933 -2.88314,-1.14491 -4.40036,-1.21141c-1.61958,-0.07108 -3.21698,0.45964 -4.80134,0.80782c-1.48395,0.32535 -2.88317,1.14166 -4.40101,1.21144c-1.48789,0.0678 -2.9125,-0.77589 -4.40039,-0.80785c-0.97277,-0.03193 -1.44549,0.38664 -2.02053,0.80785c-1.26294,0.85738 -2.13596,1.91687 -3.40085,2.54345c-2.30286,1.14166 -4.84504,3.46475 -6.88124,2.60474c-1.65479,-0.61354 -0.62004,-3.66358 -0.50009,-5.55245c0.0926,-1.49894 0.44989,-2.98095 0.80002,-4.44207c0.30123,-1.2675 0.52552,-2.50043 1.3203,-3.45236c0.58811,-0.95193 1.71215,-1.39463 2.6406,-1.99904c1.39922,-0.9265 2.70059,-1.97491 4.16107,-2.86685z" fill="#1f0f03" stroke="#0d0601" stroke-linecap="round"/></g><g stroke-linecap="butt"><text transform="translate(257.05438,341.89318) scale(0.61121,0.61121)" font-size="40" xml:space="preserve" fill="#8e8e8e" fill-rule="nonzero" stroke="none" stroke-width="1" stroke-linecap="butt" stroke-linejoin="miter" stroke-miterlimit="10" stroke-dasharray="" stroke-dashoffset="0" font-family="&quot;ヒラギノ角ゴ Pro W3&quot;, &quot;Hiragino Kaku Gothic Pro&quot;, Osaka, &quot;メイリオ&quot;, Meiryo, &quot;ＭＳ Ｐゴシック&quot;, &quot;MS PGothic&quot;" font-weight="normal" text-anchor="start" style="mix-blend-mode: normal"><tspan x="0" dy="0">2020</tspan></text><path d="M249.94926,360.13683v-118.51155h228.33349v118.51155z" fill="none" stroke="#8e8e8e" stroke-width="3.5"/></g><text transform="translate(5,356.4341) scale(0.24569,0.24569)" font-size="40" xml:space="preserve" fill="#b6b6b6" fill-rule="nonzero" stroke="none" stroke-width="1" stroke-linecap="butt" stroke-linejoin="miter" stroke-miterlimit="10" stroke-dasharray="" stroke-dashoffset="0" font-family="&quot;ヒラギノ角ゴ Pro W3&quot;, &quot;Hiragino Kaku Gothic Pro&quot;, Osaka, &quot;メイリオ&quot;, Meiryo, &quot;ＭＳ Ｐゴシック&quot;, &quot;MS PGothic&quot;" font-weight="normal" text-anchor="start" style="mix-blend-mode: normal"><tspan x="0" dy="0">Written by @The_Updator</tspan></text></g></g></svg>