<svg xmlns="http://www.w3.org/2000/svg" xmlns:xlink="http://www.w3.org/1999/xlink" version="1.1" width="228.37042" height="325.32024" viewBox="0,0,228.37042,325.32024"><g><g data-paper-data="{&quot;isPaintingLayer&quot;:true}" fill-rule="nonzero" stroke-linejoin="miter" stroke-miterlimit="10" stroke-dasharray="" stroke-dashoffset="0" style="mix-blend-mode: normal"><g><g data-paper-data="{&quot;index&quot;:null}" stroke-linecap="butt"><path d="M 72.7642 316.528 L 69.7996 266.2043 L 103.8689 258.897 L 125.2962 305.7721 Z " data-paper-data="{&quot;origPos&quot;:null}" fill="#000000" stroke="#000000" stroke-width="1"/><g data-paper-data="{&quot;origPos&quot;:null}" font-family="sans-serif" font-weight="normal" font-size="12" text-anchor="start"/></g><path d="M 125.8294 285.596 C 133.2022 287.4401 138.5054 291.2072 139.9936 296.5008 C 141.4818 301.7943 138.9563 308.727 133.4366 312.6558 C 123.1115 319.1168 114.5398 322.9144 83.4552 325.3202 C 76.4905 324.0363 70.7755 319.6957 69.2911 314.4156 C 67.8066 309.1356 70.4237 303.3468 75.8479 298.2604 C 81.2724 293.1739 89.5076 288.7911 99.262 286.3194 C 109.0161 283.8478 118.4565 283.752 125.8293 285.5959 Z " data-paper-data="{&quot;origRot&quot;:0,&quot;index&quot;:null}" fill="#000000" stroke="none" stroke-width="2.5" stroke-linecap="round"/></g><path d="M 172.1229 253.8926 C 166.0693 262.0618 147.3935 254.8956 130.4092 237.8863 C 113.4249 220.8771 104.5637 200.4659 110.6173 192.2967 C 116.6708 184.1275 135.3466 191.2937 152.3309 208.3029 C 169.3153 225.3122 178.1764 245.7234 172.1229 253.8926 Z " data-paper-data="{&quot;origRot&quot;:0,&quot;index&quot;:null}" fill="#000000" stroke="#000000" stroke-width="1" stroke-linecap="butt"/><g><path d="M 97.7566 179.9204 C 114.629 187.8348 127.0884 200.0848 133.5855 213.48 C 140.085 226.8779 140.6227 241.4205 133.6544 253.9212 C 126.6887 266.4238 113.5203 274.5373 97.8739 277.5474 C 82.2319 280.5571 64.1121 278.4627 47.2396 270.5482 C 30.3669 262.6337 17.9075 250.3844 11.4103 236.9891 C 4.9092 223.5905 4.373 209.0487 11.3398 196.5473 C 13.9924 191.7888 15.9509 189.3107 20.3801 185.4082 C 27.6005 179.0465 44.1019 174.1573 45.5659 173.8607 C 46.054 173.7619 46.6284 173.0167 47.1219 172.9219 C 62.7641 169.9121 80.8839 172.0058 97.7567 179.9204 Z " data-paper-data="{&quot;origRot&quot;:0,&quot;index&quot;:null}" fill="#080064" stroke="#000000" stroke-width="2.5" stroke-linecap="butt"/><g data-paper-data="{&quot;origRot&quot;:0}" stroke-linecap="round"><path d="M 140.3404 195.5848 L 76.0287 221.462 L 69.1281 162.5479 Z " fill="#ffffff" stroke-width="2.5" stroke="#000000"/><path d="M 68.6141 227.0377 L 90.5336 189.6633 L 84.2051 175.2633 L 107.8218 185.376 L 95.8352 191.9334 L 87.0803 231.8953 L 73.8682 239.961 Z " fill="#ac0000" stroke-width="2.5" stroke="#000000"/><path d="M 97.8847 190.5551 L 126.4636 193.5995 L 117.9611 206.4754 Z " fill="#ffffff" stroke-width="2.5" stroke="#000000"/><path d="M 66.5312 185.1125 L 73.3361 173.227 L 91.9639 188.6794 Z " fill="#ffffff" stroke-width="2.5" stroke="#000000"/></g><path d="M161.75524,347.18339l-0.26897,-7.06485l62.75254,23.60766l2.93355,6.74747c0,0 -15.69351,4.87054 -22.07095,2.69364c-3.20303,-1.09334 -30.71413,-10.50049 -34.85965,-12.85276c-6.26344,-3.55401 -8.48655,-13.13118 -8.48655,-13.13118z" fill="#080064" stroke="none" stroke-width="0" stroke-linecap="butt" transform="matrix(1,0,0,1,-157.71427,-121.28639)"/></g><g><g stroke-linecap="butt"><g data-paper-data="{&quot;index&quot;:null}"><path d="M 201.7982 164.1919 C 155.4179 234.4088 141.9376 194.9115 129.7108 185.5314 C 117.4839 176.1513 130.4043 130.5022 148.3605 107.0965 C 166.3166 83.6909 190.7849 72.3209 203.0117 81.701 C 215.2386 91.081 225.8944 130.2606 201.7982 164.1918 Z " data-paper-data="{&quot;origRot&quot;:0,&quot;origPos&quot;:null,&quot;index&quot;:null}" fill="#d6bbff" stroke="#9d85c1" stroke-width="1"/><path d="M 4.6837 64.322 C 29.9896 18.9851 72.8498 24.8942 83.7853 33.6362 C 94.7208 42.3782 81.0625 87.6627 63.5958 111.3102 C 46.1291 134.9577 43.5035 156.2311 32.568 147.4891 C 21.6325 138.7471 -10.989 102.4154 4.6837 64.3219 Z " data-paper-data="{&quot;origRot&quot;:0,&quot;origPos&quot;:null}" fill="#d6bbff" stroke="#9d85c1" stroke-width="1"/><path d="M 39.5116 96.2676 C 55.0579 51.2697 102.4092 26.797 145.2739 41.6063 C 188.1385 56.4156 210.2843 104.8989 194.738 149.8967 C 179.1917 194.8946 131.8404 219.3673 88.9758 204.558 C 46.1112 189.7487 23.9653 141.2654 39.5116 96.2676 Z " data-paper-data="{&quot;origPos&quot;:null,&quot;origRot&quot;:0}" fill="#d6bbff" stroke="#9d85c1" stroke-width="1"/><path d="M 153.2415 149.3986 C 156.3226 147.3839 162.7522 149.6466 167.6024 154.4524 C 172.4525 159.2583 173.8867 164.7874 170.8056 166.8021 C 167.7245 168.8168 161.295 166.5541 156.4448 161.7482 C 151.5946 156.9424 150.1605 151.4133 153.2415 149.3985 Z " data-paper-data="{&quot;origPos&quot;:null,&quot;origRot&quot;:0}" fill="#000000" stroke="none" stroke-width="1"/><path d="M 36.1314 90.6361 C 44.6059 73.3688 79.3254 39.2346 87.0273 43.0294 C 94.7291 46.8242 72.4967 87.1108 64.0222 104.3782 C 55.5478 121.6455 44.094 150.3462 36.3922 146.5515 C 28.6903 142.7567 27.6569 107.9035 36.1314 90.6361 Z " data-paper-data="{&quot;origRot&quot;:0,&quot;origPos&quot;:null}" fill="#d6bbff" stroke="none" stroke-width="1"/><g data-paper-data="{&quot;origPos&quot;:null,&quot;origRot&quot;:0}"><path d="M 170.3841 201.6541 C 166.0227 223.3107 155.1771 234.2627 122.7995 212.8257 C 110.4668 204.6602 95.2502 178.4027 91.0574 164.9541 C 86.8646 151.5055 96.7628 129.3117 96.7628 129.3117 L 126.6012 139.5268 C 126.6012 139.5268 119.5865 163.8118 131.0647 171.7855 C 144.8018 181.3286 174.7457 179.9976 170.3842 201.6541 Z " data-paper-data="{&quot;origPos&quot;:null,&quot;origRot&quot;:0}" stroke="#9d85c1" stroke-width="1" fill="#d6bbff"/><path d="M 96.3282 149.4373 L 97.8401 125.69 L 125.7983 136.3069 L 121.8364 158.2214 Z " data-paper-data="{&quot;origRot&quot;:0,&quot;origPos&quot;:null}" stroke="none" stroke-width="1" fill="#d6bbff"/></g><path d="M 60.655 109.2573 C 64.0222 107.3415 71.3172 109.9032 76.9487 114.979 C 82.5803 120.0548 84.4158 125.7226 81.0485 127.6384 C 77.6812 129.5542 70.3862 126.9926 64.7547 121.9168 C 59.1231 116.8409 57.2876 111.1731 60.6549 109.2573 Z " data-paper-data="{&quot;origPos&quot;:null,&quot;origRot&quot;:0}" fill="#000000" stroke="none" stroke-width="1"/></g><path d="M 74.1418 66.2236 C 66.1207 72.5763 52.4376 85.1175 48.0555 93.9339 C 45.5358 99.003 38.8743 127.7364 23.8182 120.6979 C 17.4098 117.7021 16.5494 111.7491 18.6941 106.577 C 28.7626 82.2962 39.2159 74.9728 54.0201 56.8142 C 56.5973 53.653 68.4023 40.5853 73.1166 43.1986 C 74.671 43.1767 76.2545 43.4971 77.7573 44.1996 C 83.0716 46.684 85.3658 53.0062 82.8814 58.3205 C 83.6272 60.5686 76.1332 64.6463 74.1418 66.2236 Z " fill="#d6bbff" stroke="none" stroke-width="0.5"/></g><g stroke-linecap="butt"><path d="M251.96236,194.72573l8.7153,-17.24698l28.11205,14.54891c-3.34997,7.16593 -6.69993,14.33185 -10.04991,21.49779c-10.51584,-6.22646 -26.77746,-18.79971 -26.77746,-18.79971z" stroke-width="0" fill="#d6bbff" stroke="none" transform="matrix(1,0,0,1,-157.71427,-121.28639)"/></g><g stroke-linecap="butt"><path d="M344.88657,219.40897l-8.7153,17.24698c0,0 -21.72091,-6.17304 -32.40482,-11.70231c-0.29011,-0.15015 -0.58845,-0.30878 -0.89426,-0.47529c3.25493,-6.96264 6.74562,-14.42957 10.09291,-21.58978z" stroke-width="0" fill="#d6bbff" stroke="none" transform="matrix(1,0,0,1,-157.71427,-121.28639)"/></g><path d="M 46.0268 100.7171 C 43.4576 97.8516 38.6537 96.9241 38.1462 94.1418 C 36.5111 85.1701 39.5742 76.5612 40.2872 67.7832 C 40.5068 65.0828 38.5594 61.1778 40.9459 59.6734 C 48.3145 55.0292 57.2159 50.9822 66.8917 51.0152 C 70.2381 51.0264 70.4374 56.9852 69.7865 59.7705 C 69.0681 62.8466 66.5092 65.7116 63.2049 66.8046 C 60.4027 67.7314 56.5437 66.6734 53.7286 65.0825 C 50.7443 63.3955 48.5743 60.4968 47.1154 57.7084 C 45.6987 54.9987 45.5845 52.0035 45.4051 49.1674 C 45.2323 46.4174 44.9481 43.4798 46.0638 41.0576 C 47.9375 36.9959 51.3918 33.7591 54.1595 30.1838 C 57.205 26.25 60.339 22.355 63.5218 18.5117 C 66.9973 14.314 70.1408 9.8373 74.1508 6.0407 C 76.2602 4.0425 78.4611 1.4158 81.7515 1.25 C 87.9556 0.9347 94.393 3.5468 100.7039 4.6942 C 103.8599 5.2675 107.5053 4.6303 110.1802 6.4162 C 113.0559 8.3355 114.2203 11.7154 115.5266 14.5886 C 117.3042 18.4977 118.9558 22.5671 119.359 26.6014 C 119.6367 29.3801 118.9018 32.1836 117.5161 34.4962 C 116.0363 36.9638 114.0309 39.5196 111.0167 40.516 C 108.1934 41.4504 103.8324 41.9345 101.4582 39.8081 C 99.084 37.681 99.578 33.8127 100.9325 31.4822 C 105.3698 23.8478 111.526 17.0774 118.2252 10.9639 C 120.7601 8.6499 124.4712 7.3002 128.1956 6.6035 C 131.1978 6.042 134.5923 6.5749 137.7541 7.3115 C 141.3688 8.1538 144.9832 9.4801 148.2495 11.2762 C 151.5925 13.1145 154.2567 15.8495 157.3153 18.0674 C 159.9282 19.9629 163.985 20.9532 165.2765 23.6292 C 167.3851 27.9948 166.4434 32.73 166.5756 37.2392 C 166.6572 39.9824 167.6962 43.3054 165.917 45.3491 C 164.123 47.4088 160.3516 47.4827 157.2963 47.8979 C 153.8014 48.3712 146.5598 49.8743 146.4712 47.9882 C 146.3385 45.2058 152.1579 40.2557 156.8526 38.558 C 163.4 36.1908 171.2193 36.2238 178.668 36.35 C 181.8326 36.4042 185.1616 37.5893 188.062 39.0862 C 191.4547 40.8372 194.174 43.5476 197.1263 45.8773 C 199.8184 48.0014 203.1232 49.7747 205.0061 52.4525 C 206.8755 55.1124 208.5517 58.4226 207.9007 61.2086 C 207.1824 64.2846 204.3277 66.702 201.3201 68.2427 C 198.5958 69.6389 194.8345 69.1229 191.5963 69.5622 C 188.359 70.0015 185.2352 71.0108 181.8734 70.881 C 177.9365 70.7288 170.126 70.7834 170.0276 68.7285 C 169.903 66.1134 177.0257 63.1111 181.4298 61.5417 C 184.2824 60.5253 187.8119 60.9394 191.0706 61.2363 C 195.4171 61.6326 199.7613 62.8154 204.1008 63.6039 C 207.2559 64.1779 211.2085 63.2253 213.5763 65.3258 C 216.8856 68.2627 216.6384 72.9018 218.6761 76.5405 C 220.4988 79.7937 223.6056 82.6024 225.1247 85.9421 C 226.3768 88.6958 226.6556 91.6463 226.835 94.4824 C 227.008 97.2332 227.6425 100.3484 226.1764 102.593 C 224.2291 105.5758 220.2924 107.0851 217.226 109.196 C 214.7771 110.8814 212.6453 113.0939 209.6245 113.9875 C 206.6884 114.8546 203.2365 114.8838 199.9838 114.2929 C 196.7303 113.7018 193.3831 112.4373 190.6721 110.5426 C 187.8824 108.5942 186.1581 105.6861 184.0589 103.1692 C 181.7779 100.434 179.8089 97.5161 177.5279 94.7808 C 175.4288 92.2639 173.2095 89.8022 170.9147 87.4067 C 168.0401 84.4062 165.3715 81.183 162.0149 78.5881 C 157.7782 75.3136 152.6425 73.0778 148.2951 69.9223 C 145.0534 67.5716 142.6753 64.3242 139.3122 62.1177 C 135.3761 59.5351 130.9946 57.5123 126.6117 55.6952 C 123.5935 54.4439 120.4067 53.3665 117.2177 52.959 C 113.957 52.5423 110.6484 52.6897 107.577 53.2645 C 104.0641 53.9211 100.9502 55.4428 97.6889 56.6114 C 92.7036 58.3975 87.5491 59.9646 82.8163 62.1386 C 80.0315 63.4169 77.6851 65.2684 75.2147 66.9293 C 70.0625 70.393 64.8397 73.8163 59.9303 77.5255 C 57.1553 79.6217 54.3377 81.7538 52.1644 84.3436 C 50.3076 86.5583 48.9962 89.1586 47.9517 91.8087 C 46.9661 94.3089 46.7225 97.0742 46.1087 99.7027 C 45.9551 100.3609 46.7717 100.166 46.1087 99.7027 Z " data-paper-data="{&quot;origRot&quot;:0,&quot;index&quot;:null}" fill="#000000" stroke="#000000" stroke-width="2.5" stroke-linecap="round"/></g><g><g data-paper-data="{&quot;index&quot;:null}" stroke-linecap="butt"><path d="M 3.526 289.2592 L 8.4913 239.0933 L 43.2851 237.2202 L 57.0949 286.876 Z " data-paper-data="{&quot;origPos&quot;:null}" fill="#000000" stroke="#000000" stroke-width="1"/><g data-paper-data="{&quot;origPos&quot;:null}" font-family="sans-serif" font-weight="normal" font-size="12" text-anchor="start"/></g><path d="M 60.786 267.0332 C 67.7783 270.0109 72.425 274.5631 73.0646 280.0247 C 73.704 285.4861 70.1224 291.9368 64.0548 294.9512 C 52.8441 299.7128 43.7829 302.1189 12.7057 299.6194 C 6.0285 297.259 1.0651 292.0757 0.4272 286.6281 C -0.2107 281.1806 3.2819 275.874 9.4368 271.7014 C 15.592 267.5286 24.4127 264.4918 34.434 263.5806 C 44.4551 262.6696 53.7936 264.0556 60.7859 267.0331 Z " data-paper-data="{&quot;origRot&quot;:0,&quot;index&quot;:null}" fill="#000000" stroke="none" stroke-width="2.5" stroke-linecap="round"/></g><path d="M 74.7903 157.6903 C 98.623 160.8178 115.6742 171.2772 112.8752 181.0521 C 110.0762 190.8269 88.4868 196.2155 64.6541 193.088 C 40.8213 189.9604 23.7701 179.501 26.5692 169.7262 C 29.3682 159.9514 50.9576 154.5628 74.7903 157.6903 Z " data-paper-data="{&quot;origRot&quot;:0,&quot;index&quot;:null}" fill="#000000" stroke="#000000" stroke-width="1" stroke-linecap="butt"/><path d="M 78.9394 94.7113 C 78.9394 80.1315 90.7587 68.3122 105.3385 68.3122 C 119.9183 68.3122 131.7376 80.1315 131.7376 94.7113 C 131.7376 109.2912 119.9183 121.1105 105.3385 121.1105 C 90.7587 121.1105 78.9394 109.2912 78.9394 94.7113 Z " fill="#ffffff" stroke="#000000" stroke-width="3" stroke-linecap="butt"/><path d="M 136.7377 120.0764 C 136.7377 105.4965 148.557 93.6773 163.1368 93.6773 C 177.7166 93.6773 189.5359 105.4965 189.5359 120.0764 C 189.5359 134.6562 177.7166 146.4755 163.1368 146.4755 C 148.5569 146.4755 136.7377 134.6562 136.7377 120.0764 Z " fill="#ffffff" stroke="#000000" stroke-width="3" stroke-linecap="butt"/></g></g></svg>