<svg version="1.1" xmlns="http://www.w3.org/2000/svg" xmlns:xlink="http://www.w3.org/1999/xlink" width="107.42851" height="54.87488" viewBox="0,0,107.42851,54.87488"><g transform="translate(-186.46473,-143.03461)"><g data-paper-data="{&quot;isPaintingLayer&quot;:true}" fill-rule="nonzero" stroke="none" stroke-width="0" stroke-linecap="butt" stroke-linejoin="miter" stroke-miterlimit="10" stroke-dasharray="" stroke-dashoffset="0" style="mix-blend-mode: normal"><path d="M221.18253,170.65105c0,-14.81636 12.01104,-26.82739 26.8274,-26.82739c14.81636,0 26.82739,12.01103 26.82739,26.82739c0,14.81636 -12.01103,26.82739 -26.82739,26.82739c-14.81636,0 -26.8274,-12.01103 -26.8274,-26.82739z" data-paper-data="{&quot;index&quot;:null}" fill="#020202"/><path d="M186.46473,152.4059l62.33424,-9.0133v54.51689l-62.33424,-9.0133z" data-paper-data="{&quot;index&quot;:null}" fill="#020202"/><path d="M186.46473,152.40591l44.85577,-6.48598l-0.93607,49.32689l-43.9197,-6.35063z" data-paper-data="{&quot;index&quot;:null}" fill="#baedff"/><path d="M244.66382,163.74694l39.05753,-1.9726l2.56439,-18.34521l7.10137,-0.39452c0,0 1.93966,24.11278 -1.77534,26.63014c-5.11261,3.4644 -46.94794,2.36712 -46.94794,2.36712z" data-paper-data="{&quot;index&quot;:null}" fill="#020202"/></g></g></svg>