<svg version="1.1" xmlns="http://www.w3.org/2000/svg" xmlns:xlink="http://www.w3.org/1999/xlink" width="686.2566" height="293.98607" viewBox="0,0,686.2566,293.98607"><g transform="translate(97.22616,-90.91055)"><g data-paper-data="{&quot;isPaintingLayer&quot;:true}" fill-rule="nonzero" stroke-linejoin="miter" stroke-miterlimit="10" stroke-dasharray="" stroke-dashoffset="0" style="mix-blend-mode: normal"><path d="M-6.36276,220.66265c-8.1938,0.061 -16.3866,0.1169 -24.5323,-0.0665c-6.1923,-0.1395 -13.81,0.0764 -18.2079,-0.9749c-4.398,-1.0513 -3.3567,-2.8758 -4.0781,-4.3525c-0.5231,-1.0709 1.1457,-2.1711 0.3725,-3.2333c-0.5343,-0.734 -3.6267,-1.2659 -4.1813,-1.999c-1.9008,-2.5128 -0.1052,-5.2057 7.8869,-7.1162c5.9195,-1.415 20.3897,-2.8069 29.5418,-1.796c0.0617,-0.1082 0.1264,-0.2182 0.0098,-0.3149c-1.016,-0.8416 -2.4877,-1.6481 -3.6465,-2.4791c-1.629,-1.1682 -4.5962,-2.2869 -4.716,-3.5179c-0.1613,-1.6574 -0.3778,-3.5803 3.8983,-4.8856c3.1772,-0.9699 10.1263,-0.492 15.0089,-0.8858c2.9529,-0.2382 5.575,-0.6664 8.3625,-0.9995c2.4767,-0.0191 5.0503,-0.1818 7.5339,-0.2112c7.5717,-4.1373 12.4999,-6.5175 30.0972,-7.7848c1.6227,-0.1169 21.5003,-0.1206 23.1229,0c2.8308,0.2103 5.6867,0.4645 8.3577,0.792c3.9259,-0.684 9.8319,-0.4144 14.513,-0.792c2.9529,-0.2382 5.2957,-0.867 8.3625,-0.9995c4.8416,-0.2093 9.9278,-0.2209 14.7604,0c2.1007,0.096 3.0485,0.8344 5.1635,0.9104c1.1377,0.0409 1.1452,-0.5082 2.1357,-0.6481c3.603,-0.5088 7.2345,-1.1446 11.3903,-1.2619c6.276,-0.177 13.0899,-0.1964 18.8815,0.4081c2.8561,0.2981 2.1888,1.4261 4.1812,1.999c0.4957,0.1425 0.2854,-0.4571 1.0425,-0.4971c2.7217,-0.1438 5.5749,0 8.3624,0c2.7312,0 18.6995,-0.0214 19.924,0.0891c2.2868,0.2063 4.425,0.4853 6.4966,0.7968c11.9829,-1.5104 32.6384,-3.0859 44.6605,-2.8849c5.2604,0.088 11.4263,-0.2471 15.6825,0.4971c1.3194,0.2307 2.4097,0.5118 3.3554,0.8248c5.7854,-0.7077 34.6356,-2.1494 42.6382,-0.8248c0.9014,0.1492 4.74,1.3469 7.8442,2.739c7.2594,-0.5056 16.3601,-0.2649 22.4669,-0.2376c3.8551,0.0172 7.8794,-0.1846 11.5614,0.089c5.3969,0.4011 11.0126,0.9301 15.0089,1.8854c3.8013,0.9086 6.2667,2.149 7.678,3.3958c1.0641,-0.1607 2.1787,-0.2957 3.3828,-0.3727c7.0733,-0.4524 31.2214,0.0877 34.9328,0.9749c0.6333,0.1514 1.1406,0.3193 1.5491,0.5002c10.7935,-0.6496 26.046,-0.7949 31.9008,0.4993c3.3312,0.7363 3.4541,1.9331 3.655,3.0967c2.037,0.0066 3.7481,0.0438 4.2068,0.0155c3.0176,-0.1863 5.2646,-0.9183 8.3625,-0.9995c6.0226,-0.158 12.851,-0.4054 18.1314,0.3048c5.9075,0.7945 8.2422,2.5738 12.5601,3.8228c1.9644,0.5682 4.6006,1.0361 6.8066,1.5639c11.9479,-0.5323 28.3906,1.5667 30.6126,4.4973c3.9465,0.2144 7.8808,0.5284 11.8335,0.692c1.3593,1.4508 3.1345,2.8829 4.0781,4.3525c0.0104,0.0162 0.0216,0.0326 0.0336,0.0491c5.5647,1.0367 9.1937,2.6463 12.1376,4.1837c1.6048,0.8381 0.8488,1.8491 0.3725,2.7637c-1.1538,2.2156 0.1415,4.6228 -7.683,4.5881c0.09,0.4543 -0.5151,0.9546 -0.6795,1.4089c-0.4543,1.2559 0.7708,2.6883 -2.0795,3.7488c-6.901,2.5678 -25.5404,3.5267 -36.9314,3.5776c-5.574,0.0249 -11.3943,0.3901 -16.725,0c-0.8406,-0.0616 0.0012,-0.8316 -0.2212,-0.6283c-0.8879,0.8115 0.4022,1.8269 -1.8039,2.4792c-6.9644,2.0591 -23.0409,3.0526 -33.3757,3.1036c-20.2703,1.7037 -41.7347,4.261 -63.9666,2.9524c-4.0633,-0.2391 -7.7873,-0.753 -11.3903,-1.2618c-0.9905,-0.1399 -0.9852,-0.6481 -2.1357,-0.6481c-1.1504,0 -1.1451,0.5082 -2.1357,0.6481c-3.603,0.5088 -7.3269,1.0227 -11.3902,1.2618c-6.7258,0.3959 -24.7493,0.3827 -31.4854,0c-6.0146,-0.3417 -10.544,-1.8536 -16.7202,-1.9183c-1.3849,-0.0145 -1.7971,0.5596 -3.1227,0.6565c-0.2231,0.0163 -0.4448,0.0159 -0.6658,0.0049v0.0166c0,1.8382 -6.2337,3.3284 -13.9235,3.3284c-5.5583,0 -10.3559,-0.7786 -12.5885,-1.9044l-1.1255,-0.5381c-0.9585,0.4455 -0.0125,1.1182 -1.528,1.4676c-7.9433,1.8315 -26.0623,3.6498 -37.1631,2.9309c-7.6317,-0.4943 -15.6022,-1.1096 -21.6088,-2.3388c-1.791,-0.3665 -1.0849,-1.034 -0.7146,-1.6559c-3.8722,0.3921 -5.8577,-0.2976 -9.8785,-0.0494c-6.035,0.3726 -10.6727,1.6428 -16.7249,1.999c-1.8773,0.1105 -16.7208,0.0891 -19.924,0.0891c-13.9374,0 -27.8749,0 -41.8123,0c-12.6498,-0.401 -18.4623,0.0415 -22.886,-2.2308c-7.3482,0.4189 -16.9773,0.2584 -20.0735,-0.0216c-5.8625,-0.5302 -8.4276,-2.5674 -14.5956,-2.8342c-5.4859,-0.2373 -11.3116,0.3186 -16.7249,0c-3.0279,-0.1782 -21.4913,-2.4635 -23.3714,-2.8848c-2.2736,-0.5095 -2.4515,-1.3793 -4.1813,-1.999c-2.6579,-0.9522 -10.3126,0.1469 -14.1995,-0.5217c-4.5451,-0.7819 -6.2099,-2.2279 -9.3148,-3.3418zM503.73144,218.40885c0.4133,0.0626 0.8307,0.1219 1.2715,0.1076c0.5071,-0.0164 -0.488,-0.0409 -1.2715,-0.1076zM20.47974,219.20695l-1.1388,-0.3788c-0.3957,0.2015 -0.865,0.38 -1.3859,0.5382c0.0232,0.031 0.1091,0.0546 0.2823,0.0676c0.7686,0.058 1.5047,-0.0906 2.2423,-0.227z" fill="#5f8777" stroke="none" stroke-width="0.5" stroke-linecap="butt"/><path d="M194.27595,302.52242v-177h10v177z" fill="#65532d" stroke="none" stroke-width="0" stroke-linecap="butt"/><path d="M-97.22616,215.06155h678.6491v160.8612h-678.6491z" fill="#e9ecea" stroke="none" stroke-width="1.04792" stroke-linecap="butt"/><path d="M418.68324,297.26355c0,12.7698 -57.4351,16.5847 -93.0931,16.5847c-35.658,0 -126.1262,-2.7254 -126.1262,-15.4952c0,-12.7697 91.9696,-24.2112 127.6277,-24.2112c35.658,0 91.5916,10.352 91.5916,23.1217z" fill="#e9ecea" stroke="#e9ecea" stroke-width="2" stroke-linecap="butt"/><path d="M-83.59776,242.21015h661.0694v7.1405h-661.0694z" fill="#95999c" stroke="#7e8184" stroke-width="2" stroke-linecap="round"/><path d="M227.21154,123.69055c0,-2.0731 5.378,-3.7537 12.012,-3.7537c6.6341,0 12.012,1.6806 12.012,3.7537c0,2.0731 -5.3779,3.7538 -12.012,3.7538c-6.634,0 -12.012,-1.6807 -12.012,-3.7538z" fill="#e9ecea" stroke="#e9ecea" stroke-width="2" stroke-linecap="butt"/><path d="M225.71004,130.44735c0,-2.4878 4.0335,-4.5045 9.009,-4.5045c4.9755,0 9.009,2.0167 9.009,4.5045c0,2.4878 -4.0335,4.5045 -9.009,4.5045c-4.9755,0 -9.009,-2.0167 -9.009,-4.5045z" fill="#e9ecea" stroke="#e9ecea" stroke-width="2" stroke-linecap="butt"/><path d="M337.49514,220.61035c-0.2416,0.0917 -0.4833,0.1756 -0.7235,-0.0999c-0.1827,-0.2095 -0.4073,0.1148 -0.537,-1.4645c-0.1297,-1.5793 -0.099,-4.3201 -0.1203,-6.5386c-0.0154,-1.6087 0.0338,-3.2615 0.011,-4.8572c-0.0158,-1.1026 -0.107,-1.9017 -0.1233,-3.003c-0.0561,-3.7748 -0.0031,-7.8203 0.2326,-10.6903c0.1746,-2.1257 0.6013,-4.2166 0.8713,-2.6981c0.0018,-0.1625 0.0037,-0.3278 0.0003,-0.473c-0.03,-1.2643 -0.0734,-2.4758 -0.1076,-3.7242c-0.048,-1.7549 -0.1356,-3.4355 -0.1391,-5.2848c-0.0047,-2.4899 -0.0111,-5.3785 0.115,-7.3394c0.0937,-1.457 0.2987,-0.739 0.4427,-1.3307c0.0871,-0.3579 0.1644,-1.001 0.2466,-1.5015c0.073,-0.0287 0.1489,-0.2731 0.2222,-0.3173c0.2233,-6.2152 0.3687,-9.7909 0.8877,-11.6947c0.0478,-0.1756 0.6341,-0.1812 0.6819,0c0.0835,0.316 0.1678,0.6978 0.2465,1.1898c0.1158,-1.0275 0.29,-0.6226 0.4281,-1.1898c0.0871,-0.3579 0.1562,-1.3024 0.2466,-1.5015c0.1428,-0.3144 0.2928,-0.3318 0.4353,0c0.062,0.1442 0.0899,1.2535 0.1523,1.3677c0.0336,0.0614 0.0338,-0.7635 0.063,-0.9736c0.1063,-0.7643 0.2134,-1.7196 0.336,-1.8956c0.1851,-0.2659 0.386,-0.2951 0.5568,0.613c0.0843,0.4478 0.0646,2.1424 0.1234,3.003c0.0146,0.2141 0.0084,-0.6867 0.0307,-0.7468c0.0803,-0.2161 0.1644,0 0.2466,0c0.0806,0 0.5515,-0.0322 0.5877,0.1338c0.0674,0.31 0.1305,0.7291 0.1916,1.1971c0.3534,-2.2691 0.9626,-4.6359 1.3172,-4.3339c0.1551,0.1322 0.337,-0.3712 0.4625,0.7468c0.0389,0.3465 0.0711,0.7689 0.099,1.2391c0.1706,-1.0632 1.0215,-3.2291 1.2575,-1.2391c0.0266,0.2241 0.1398,2.0234 0.2314,4.1146c0.2141,-0.7595 0.4825,-0.3979 0.6626,-0.3569c0.1137,0.0259 0.2324,-0.2772 0.341,0.1338c0.1591,0.6024 0.3248,1.3971 0.4426,2.8322c0.1121,1.3651 0.1848,3.2283 0.2265,5.1014c0.0314,-0.2414 0.0642,-0.4442 0.0997,-0.5599c0.2087,-0.6796 0.9209,0.1317 1.0303,1.4645c0.0187,0.2274 0.0337,0.4797 0.0457,0.7515c0.3183,-0.9759 0.7682,-1.1942 0.9409,0.75c0.0982,1.1062 0.1018,2.904 0.1078,4.6521c0.06,0.0098 0.1105,0.0657 0.124,0.0232c0.089,-0.2798 0.1553,-1.3795 0.2467,-1.5015c0.1776,-0.2372 0.379,-0.609 0.5347,0.4579c0.1743,1.1935 0.2431,3.8666 0.3705,5.7429c0.0579,0.8536 0.1357,1.5563 0.2007,2.3493c0.3524,-0.7996 0.8374,2.3535 0.9029,6.756c0.1164,0.3222 0.2324,0.7939 0.349,1.0396c0.0401,2.1795 0.0925,4.3309 0.1203,6.5385c0.0003,0.0244 0.0006,0.049 0.001,0.0738c0.1641,1.5574 0.2711,3.9754 0.358,6.285c0.0473,1.259 0.025,2.7777 0.0109,4.1518c-0.034,3.3284 0.0042,6.9446 -0.2265,6.8925c0.0026,0.6824 -0.0152,1.434 -0.0201,2.1165c-0.0134,1.8866 0.0227,4.0384 -0.0613,5.6316c-0.2036,3.8575 -0.7533,5.2979 -1.0893,5.3744c-0.1644,0.0374 -0.336,0.5861 -0.4932,0c-0.0248,-0.0925 0,-1.2492 -0.0066,-0.9438c-0.0261,1.2191 0.0119,2.7444 -0.0532,3.7243c-0.2054,3.0934 -0.6795,4.5858 -0.9843,4.6624c-0.5979,2.5594 -1.2309,6.401 -1.8866,4.4353c-0.1198,-0.3592 -0.2297,-1.1313 -0.3359,-1.8956c-0.0293,-0.2101 -0.0291,-0.9736 -0.063,-0.9736c-0.034,0 -0.0338,0.7635 -0.063,0.9736c-0.1063,0.7643 -0.2161,1.5364 -0.336,1.8956c-0.1983,0.5947 -0.7299,0.5749 -0.9286,0c-0.1774,-0.5133 -0.3109,-2.7845 -0.4931,-2.8818c-0.0408,-0.0218 -0.053,0.8407 -0.0921,0.9862c-0.0066,0.0245 -0.0131,0.024 -0.0196,0.0075v0.0249c0,2.7614 -0.1839,5 -0.4107,5c-0.1639,0 -0.3054,-1.1696 -0.3713,-2.8608l-0.0332,-0.8084c-0.0282,0.6692 -0.0003,1.6798 -0.045,2.2047c-0.2343,2.7513 -0.7687,5.4829 -1.0961,4.4029c-0.2251,-0.7425 -0.4601,-1.6669 -0.6373,-3.5134c-0.0528,-0.5505 -0.032,-1.5533 -0.0211,-2.4876c-0.1142,0.589 -0.1727,-0.4471 -0.2913,-0.0742c-0.178,0.5597 -0.3148,2.4679 -0.4933,3.003c-0.0554,0.166 -0.4932,0.1338 -0.5876,0.1338c-0.4111,0 -0.8221,0 -1.2332,0c-0.3731,-0.6024 -0.5445,0.0624 -0.675,-3.3512c-0.2167,0.6293 -0.5007,0.3882 -0.592,-0.0324c-0.1729,-0.7965 -0.2486,-3.8569 -0.4305,-4.2577c-0.1618,-0.3564 -0.3336,0.4787 -0.4933,0c-0.0893,-0.2677 -0.6338,-3.7007 -0.6893,-4.3337c-0.067,-0.7654 -0.0723,-2.072 -0.1233,-3.003c-0.0784,-1.4304 -0.3041,0.2207 -0.4188,-0.7838c-0.134,-1.1745 -0.1831,-3.3468 -0.2747,-5.0202zM352.53954,217.22455c0.0122,0.094 0.0245,0.1831 0.0375,0.1617c0.015,-0.0247 -0.0144,-0.0614 -0.0375,-0.1617zM338.28684,218.42355l-0.0336,-0.5691c-0.0117,0.3027 -0.0255,0.5709 -0.0409,0.8086c0.0007,0.0466 0.0032,0.082 0.0084,0.1016c0.0226,0.0871 0.0443,-0.1361 0.0661,-0.3411z" fill="#054700" stroke="none" stroke-width="0.5" stroke-linecap="butt"/><path d="M446.93524,139.45635v-37.539h12.0121v37.539z" fill="#735f34" stroke="#63522d" stroke-width="2.5" stroke-linecap="butt"/><path d="M220.25224,145.14235h111.7423v96.33h-111.7423z" fill="#735f34" stroke="#63522d" stroke-width="4.5" stroke-linecap="round"/><g fill="#a57d24" stroke-width="4.5"><path d="M264.79584,199.32305h24.3193v39.5465h-24.3193z" stroke="#a57d24" stroke-linecap="butt"/><path d="M284.28344,217.82855c0.7119,0 1.3568,0.377 1.8232,0.9862c0.4673,0.6092 0.7562,1.4505 0.7562,2.3795c0,0.9289 -0.2889,1.7703 -0.7562,2.3795c-0.4664,0.6092 -1.1113,0.9861 -1.8232,0.9861c-0.7118,0 -1.3567,-0.3769 -1.8232,-0.9861c-0.4672,-0.6092 -0.7561,-1.4506 -0.7561,-2.3795c0,-0.929 0.2889,-1.7704 0.7561,-2.3795c0.4665,-0.6092 1.1114,-0.9862 1.8232,-0.9862z" stroke="none" stroke-linecap="round"/></g><path d="M262.41934,195.39235h27.3848v44.8323h-27.3848z" fill="#554626" stroke="#42361e" stroke-width="4.5" stroke-linecap="butt"/><path d="M284.36924,216.24195c0.8016,0 1.5277,0.4242 2.053,1.1097c0.5261,0.6854 0.8514,1.6322 0.8514,2.6775c0,1.0452 -0.3253,1.992 -0.8514,2.6775c-0.5253,0.6854 -1.2514,1.1096 -2.053,1.1096c-0.8017,0 -1.5278,-0.4242 -2.0531,-1.1096c-0.5261,-0.6855 -0.8514,-1.6323 -0.8514,-2.6775c0,-1.0453 0.3253,-1.9921 0.8514,-2.6775c0.5253,-0.6855 1.2514,-1.1097 2.0531,-1.1097z" fill="#778747" stroke="none" stroke-width="4.5" stroke-linecap="round"/><path d="M228.97834,188.33045v-35.9923h22.9041v35.9923z" fill="#664a0c" stroke="#c5c5c5" stroke-width="4.5" stroke-linecap="butt"/><path d="M296.78004,188.51035v-35.9922h22.9042v35.9922z" fill="#664a0c" stroke="#c5c5c5" stroke-width="4.5" stroke-linecap="butt"/><path d="M209.89154,147.43015l25.6308,-23.4495l81.2552,0.5454l21.8135,23.9948z" fill="#735f34" stroke="#63522d" stroke-width="4.5" stroke-linecap="butt"/><g stroke-width="4.5"><path d="M361.80474,152.62345h134.3032v88.5398h-134.3032z" data-paper-data="{&quot;origPos&quot;:null}" fill="#735f34" stroke="#63522d" stroke-linecap="round"/><g data-paper-data="{&quot;origPos&quot;:null}" fill="#a57d24"><path d="M415.34174,202.42255h29.2294v36.3484h-29.2294z" stroke="#a57d24" stroke-linecap="butt"/><path d="M438.76404,219.43155c0.8556,0 1.6306,0.3465 2.1913,0.9064c0.5616,0.5599 0.9088,1.3333 0.9088,2.1871c0,0.8538 -0.3472,1.6271 -0.9088,2.1871c-0.5607,0.5599 -1.3357,0.9064 -2.1913,0.9064c-0.8557,0 -1.6307,-0.3465 -2.1913,-0.9064c-0.5616,-0.56 -0.9088,-1.3333 -0.9088,-2.1871c0,-0.8538 0.3472,-1.6272 0.9088,-2.1871c0.5606,-0.56 1.3356,-0.9064 2.1913,-0.9064z" stroke="none" stroke-linecap="round"/></g><g data-paper-data="{&quot;origPos&quot;:null}"><path d="M434.25964,240.19185c0,0 -1.1085,0.3356 -1.3159,0.0003c-0.7722,-1.4079 -0.8049,-3.0528 -1.0734,-4.5949c-0.3322,-1.3156 -0.7287,-3.979 -0.7287,-3.979" fill="none" stroke="#000000" stroke-linecap="round"/><path d="M429.44324,240.51465c0,0 -1.6057,0.652 -1.6933,-0.071c-0.4872,-2.7553 0.2943,-8.396 0.2943,-8.396" fill="none" stroke="#000000" stroke-linecap="round"/><path d="M429.38224,219.37105c1.0844,0.0305 2.0775,0.7929 2.8059,1.9998c0.7286,1.207 1.1925,2.8584 1.2183,4.6671c0.0261,1.8088 -0.3909,3.4354 -1.0856,4.6024c-0.6945,1.1667 -1.6665,1.8737 -2.7508,1.8431c-1.0844,-0.0305 -2.0775,-0.7928 -2.8059,-1.9996c-0.7288,-1.2071 -1.1925,-2.8585 -1.2185,-4.6672c-0.0258,-1.8087 0.3911,-3.4354 1.0857,-4.6024c0.6945,-1.1667 1.6666,-1.8738 2.7509,-1.8432z" fill="#001966" stroke="#000000" stroke-linecap="butt"/><path d="M416.70594,221.05375c0,0 4.4584,-0.875 6.6447,-1.2431c1.5208,-0.1573 4.4718,-0.332 4.4718,-0.332" fill="none" stroke="#000000" stroke-linecap="round"/><path d="M427.91234,218.69315l2.6706,-0.0383l0.1026,5.4567l-2.6706,0.0383z" fill="#ffffff" stroke="#000000" stroke-linecap="butt"/><path d="M428.98904,219.52185l0.5086,-0.0072l-0.2981,4.439z" fill="#660000" stroke="#000000" stroke-linecap="round"/><path d="M435.02504,239.46915c0.5734,0.2483 1.4432,1.187 0.9549,1.5497c-0.8193,0.6022 -2.4938,0.4351 -3.7739,0.2407c-0.4142,-0.0631 -0.5029,-0.6615 -0.4523,-1.033c0.0506,-0.3715 0.3163,-0.7908 0.7172,-0.9115c0.7404,-0.2118 1.7874,-0.248 2.5541,0.1541z" fill="#000000" stroke="none" stroke-linecap="round"/><path d="M435.14474,204.39445c0.3815,0 0.7271,0.0725 0.9774,0.1898c0.2503,0.1172 0.4052,0.2792 0.4052,0.4579c0,0.1787 -0.2117,0.4109 -0.4052,0.4579c-0.2888,0.0665 -0.5756,-0.2391 -0.8762,-0.2674c-0.367,0.0283 -0.7299,0.3374 -1.0785,0.2674c-0.1944,-0.0423 -0.4052,-0.2792 -0.4052,-0.4579c0,-0.1787 0.1549,-0.3407 0.4052,-0.4579c0.2503,-0.1173 0.5959,-0.1898 0.9773,-0.1898z" fill="#660000" stroke="#000000" stroke-linecap="round"/><path d="M431.12854,220.07875c0,0 3.2511,1.2516 3.6094,2.6322c0.7589,2.3003 -0.6309,7.1813 -0.6309,7.1813" fill="none" stroke="#000000" stroke-linecap="round"/><path d="M430.24914,239.18565c0.5735,0.2481 1.4438,1.1863 0.9557,1.5493c-0.8189,0.6025 -2.4935,0.4361 -3.7738,0.2422c-0.4142,-0.063 -0.5033,-0.6613 -0.4529,-1.0328c0.0505,-0.3716 0.316,-0.7909 0.7168,-0.9118c0.7403,-0.2121 1.7872,-0.2487 2.5542,0.1531z" fill="#000000" stroke="none" stroke-linecap="round"/><g fill="#000000" stroke="none" stroke-linecap="butt"><path d="M431.12034,202.55175c0.1171,-0.0159 0.2315,0.0148 0.3219,0.0772c0.0904,0.0626 0.1566,0.1567 0.1773,0.2678c0.0207,0.111 -0.0081,0.2181 -0.0713,0.3015c-0.0632,0.0833 -0.1608,0.1428 -0.2779,0.1587c-0.117,0.016 -0.2315,-0.0147 -0.3218,-0.0772c-0.0904,-0.0625 -0.1566,-0.1567 -0.1773,-0.2677c-0.0207,-0.111 0.0081,-0.2181 0.0713,-0.3016c0.0632,-0.0833 0.1608,-0.1428 0.2778,-0.1587z"/><path d="M432.27524,202.39985c0.1171,-0.0159 0.2315,0.0147 0.3218,0.0772c0.0904,0.0625 0.1567,0.1567 0.1773,0.2678c0.0207,0.111 -0.008,0.2181 -0.0713,0.3015c-0.0631,0.0833 -0.1608,0.1428 -0.2779,0.1587c-0.117,0.0159 -0.2315,-0.0148 -0.3217,-0.0772c-0.0904,-0.0625 -0.1567,-0.1567 -0.1774,-0.2678c-0.0206,-0.111 0.0081,-0.2181 0.0714,-0.3015c0.0631,-0.0833 0.1608,-0.1428 0.2778,-0.1587z"/><path d="M433.42214,202.24785c0.1171,-0.0159 0.2316,0.0148 0.3218,0.0773c0.0904,0.0625 0.1567,0.1566 0.1774,0.2677c0.0206,0.111 -0.0081,0.2181 -0.0714,0.3015c-0.0631,0.0833 -0.1608,0.1429 -0.2778,0.1588c-0.1171,0.0159 -0.2315,-0.0148 -0.3218,-0.0773c-0.0904,-0.0625 -0.1567,-0.1567 -0.1773,-0.2677c-0.0207,-0.111 0.008,-0.2181 0.0713,-0.3015c0.0631,-0.0833 0.1608,-0.1429 0.2778,-0.1588z"/></g><path d="M436.19234,207.86185c1.6107,1.3432 2.5778,3.1284 2.5181,5.0359c-0.0596,1.9074 -1.1349,3.5793 -2.8239,4.7397c-1.6891,1.1601 -3.9918,1.8087 -6.5061,1.6694c-2.5143,-0.1394 -4.7685,-1.0403 -6.3792,-2.3834c-1.6107,-1.3432 -2.5778,-3.1283 -2.5182,-5.0357c0.0597,-1.9075 1.135,-3.5795 2.824,-4.7398c1.6891,-1.1603 3.9917,-1.8088 6.5061,-1.6694c2.5142,0.1394 4.7685,1.0403 6.3792,2.3833z" fill="#ff9400" stroke="#000000" stroke-linecap="butt"/><path d="M420.33954,211.64115c-0.3456,-0.2856 -0.952,-0.3245 -1.04,-0.6285c-0.284,-0.9807 0.0203,-1.9842 0.0305,-2.9749c0.0032,-0.3048 -0.2743,-0.7149 0.0094,-0.9153c0.8759,-0.6184 1.9479,-1.1909 3.1529,-1.3177c0.4167,-0.0439 0.4949,0.6194 0.4388,0.9395c-0.0619,0.3535 -0.3549,0.7082 -0.7565,0.875c-0.3406,0.1414 -0.8305,0.0751 -1.1952,-0.0647c-0.3868,-0.1483 -0.6828,-0.443 -0.8895,-0.7349c-0.2006,-0.2838 -0.2416,-0.617 -0.2894,-0.9315c-0.0462,-0.3051 -0.1078,-0.6295 0.0094,-0.9153c0.1969,-0.4793 0.5981,-0.8876 0.9106,-1.3245c0.344,-0.4807 0.6993,-0.9583 1.0612,-1.4308c0.3951,-0.5161 0.7464,-1.0588 1.2117,-1.5372c0.2447,-0.2519 0.4953,-0.5751 0.9034,-0.638c0.7697,-0.1189 1.5946,0.0862 2.3906,0.1293c0.398,0.0215 0.8462,-0.0989 1.1953,0.0646c0.3752,0.1757 0.5505,0.5377 0.7388,0.8412c0.2563,0.4129 0.4984,0.8455 0.5847,1.291c0.0595,0.3068 -0.0069,0.63 -0.1587,0.9072c-0.1622,0.2957 -0.389,0.6084 -0.7553,0.7604c-0.3432,0.1426 -0.8818,0.2555 -1.1965,0.0499c-0.3146,-0.2057 -0.2878,-0.6447 -0.14,-0.9235c0.4841,-0.9131 1.19,-1.7528 1.9693,-2.5265c0.295,-0.2928 0.7449,-0.4937 1.2024,-0.6218c0.3688,-0.1033 0.7962,-0.0895 1.1964,-0.0498c0.4576,0.0453 0.9195,0.1448 1.3423,0.3015c0.4327,0.1604 0.7889,0.4301 1.1895,0.6367c0.3423,0.1766 0.8563,0.2326 1.0411,0.5142c0.3016,0.4595 0.2267,1.0014 0.2836,1.5036c0.0347,0.3055 0.1938,0.6629 -0.0094,0.9153c-0.2049,0.2544 -0.6738,0.3135 -1.0505,0.4012c-0.4309,0.1 -1.3191,0.3657 -1.347,0.1561c-0.0414,-0.3092 0.6388,-0.941 1.2081,-1.194c0.794,-0.3529 1.7678,-0.4547 2.6964,-0.5411c0.3945,-0.0366 0.8196,0.0509 1.1941,0.1791c0.4381,0.1499 0.8009,0.4162 1.1894,0.6367c0.3542,0.2011 0.7816,0.3547 1.0399,0.6286c0.2566,0.272 0.495,0.6194 0.4389,0.9396c-0.062,0.3534 -0.3957,0.6621 -0.7564,0.8749c-0.3267,0.1928 -0.7996,0.1858 -1.1989,0.2786c-0.3991,0.0928 -0.779,0.2478 -1.1987,0.2786c-0.4916,0.0361 -1.4635,0.1475 -1.4942,-0.0808c-0.0389,-0.2906 0.821,-0.7222 1.3553,-0.957c0.3461,-0.1521 0.7892,-0.1534 1.1976,-0.1642c0.5447,-0.0143 1.0962,0.0593 1.6436,0.0888c0.398,0.0216 0.8816,-0.1382 1.1952,0.0647c0.4383,0.2836 0.4491,0.8054 0.7354,1.1846c0.256,0.339 0.668,0.611 0.887,0.9638c0.1806,0.2908 0.2417,0.6168 0.2894,0.9314c0.0462,0.3051 0.1531,0.6447 -0.0093,0.9153c-0.2158,0.3597 -0.6924,0.5815 -1.0553,0.8588c-0.2898,0.2214 -0.5354,0.4974 -0.9035,0.638c-0.3578,0.1365 -0.7873,0.1864 -1.1976,0.1642c-0.4104,-0.0222 -0.8385,-0.1183 -1.193,-0.2935c-0.3648,-0.1801 -0.6055,-0.4819 -0.8894,-0.7349c-0.3085,-0.2749 -0.5798,-0.5745 -0.8882,-0.8494c-0.2839,-0.253 -0.5823,-0.4982 -0.8894,-0.735c-0.3849,-0.2965 -0.7459,-0.6208 -1.1871,-0.8655c-0.5568,-0.3088 -1.2163,-0.4894 -1.7858,-0.7834c-0.4247,-0.219 -0.7498,-0.5499 -1.1883,-0.7511c-0.5132,-0.2356 -1.0768,-0.4025 -1.6388,-0.5465c-0.387,-0.0991 -0.7934,-0.1766 -1.1941,-0.1791c-0.4098,-0.0026 -0.8204,0.0586 -1.1976,0.1642c-0.4315,0.1208 -0.8056,0.3328 -1.2012,0.5075c-0.6047,0.2668 -1.2324,0.5115 -1.8022,0.8183c-0.3354,0.1805 -0.6109,0.4191 -0.9036,0.638c-0.6104,0.4566 -1.2301,0.9097 -1.8081,1.3905c-0.3268,0.2717 -0.6585,0.548 -0.9059,0.8668c-0.2114,0.2725 -0.3513,0.5809 -0.4577,0.8912c-0.1003,0.2927 -0.1059,0.605 -0.1588,0.9071c-0.0132,0.0756 0.0868,0.0429 0,0z" fill="#000000" stroke="#000000" stroke-linecap="round"/><path d="M428.07234,209.26575c0.3905,-0.0055 0.7523,0.4056 1.0214,1.0742c0.2691,0.6687 0.4455,1.5948 0.4652,2.6192c0.0197,1.0244 -0.1211,1.955 -0.3643,2.6308c-0.2432,0.6758 -0.589,1.0969 -0.9795,1.1024c-0.3905,0.0054 -0.7523,-0.4057 -1.0215,-1.0743c-0.269,-0.6687 -0.4454,-1.5948 -0.4652,-2.6192c-0.0196,-1.0244 0.1211,-1.955 0.3643,-2.6309c0.2433,-0.6757 0.5891,-1.0968 0.9796,-1.1022z" fill="#000000" stroke="#000000" stroke-linecap="butt"/><path d="M431.24894,209.04675c0.3905,-0.0055 0.7523,0.4057 1.0214,1.0742c0.2691,0.6687 0.4455,1.5948 0.4653,2.6192c0.0196,1.0245 -0.1211,1.955 -0.3643,2.6309c-0.2433,0.6758 -0.5891,1.0968 -0.9796,1.1023c-0.3905,0.0055 -0.7523,-0.4057 -1.0215,-1.0743c-0.269,-0.6686 -0.4454,-1.5947 -0.4652,-2.6192c-0.0196,-1.0244 0.1211,-1.9549 0.3643,-2.6308c0.2433,-0.6758 0.5891,-1.0969 0.9796,-1.1023z" fill="#000000" stroke="#000000" stroke-linecap="butt"/><path d="M432.35974,204.31055c0,0 0.3471,-0.2551 0.6689,-0.2727c0.5054,-0.0172 1.4852,0.3066 1.4852,0.3066" fill="none" stroke="#000000" stroke-linecap="round"/><path d="M424.83264,201.85875c1.236,0.151 0.991,0.209 1.4344,0.4175c0.1108,0.0521 0.1196,0.3131 0.1196,0.3131" fill="none" stroke="#000000" stroke-linecap="round"/><path d="M426.29564,203.40415c0,0 0.4292,-0.2294 0.6276,-0.1566c0.2659,0.1014 0.6276,0.4698 0.6276,0.4698" fill="none" stroke="#000000" stroke-linecap="round"/><path d="M424.10504,207.55265h5.7603v0.7621l-2.7055,-0.4572l-3.0548,0.4572z" fill="#ff9400" stroke="none" stroke-linecap="round"/><path d="M433.81244,217.93665l-8.0681,0.1381" fill="none" stroke="#000000" stroke-linecap="round"/></g><path d="M412.48554,198.80975h32.9138v40.9003h-32.9138z" fill="#554626" stroke="#42361e" stroke-linecap="butt"/><path d="M438.86704,217.97325c0.9635,0 1.8362,0.3899 2.4675,1.0199c0.6324,0.63 1.0234,1.5003 1.0234,2.461c0,0.9607 -0.391,1.8309 -1.0234,2.461c-0.6313,0.63 -1.504,1.0198 -2.4675,1.0198c-0.9635,0 -1.8362,-0.3898 -2.4675,-1.0198c-0.6324,-0.6301 -1.0233,-1.5003 -1.0233,-2.461c0,-0.9607 0.3909,-1.831 1.0233,-2.461c0.6313,-0.63 1.504,-1.0199 2.4675,-1.0199z" fill="#778747" stroke="none" stroke-linecap="round"/><path d="M349.35224,154.72625l86.9128,-34.9124l67.7713,35.9149z" fill="#735f34" stroke="#735f34" stroke-linecap="butt"/><g><path d="M368.68114,161.54205h31.1283v28.8726h-31.1283z" fill="#98b5bd" stroke="#7f7f7f" stroke-linecap="round"/><path d="M383.11744,161.09095h3.158v28.4215h-3.158z" fill="#7f7f7f" stroke="none" stroke-linecap="butt"/><path d="M368.68114,176.42945h31.5795v2.2557h-31.5795z" fill="#7f7f7f" stroke="none" stroke-linecap="butt"/></g><g><path d="M410.83294,161.84225h31.1282v28.8727h-31.1282z" fill="#98b5bd" stroke="#7f7f7f" stroke-linecap="round"/><path d="M425.26924,161.39115h3.1579v28.4215h-3.1579z" fill="#7f7f7f" stroke="none" stroke-linecap="butt"/><path d="M410.83294,176.72975h31.5794v2.2557h-31.5794z" fill="#7f7f7f" stroke="none" stroke-linecap="butt"/></g><g><path d="M453.89444,161.23265h31.1283v28.8727h-31.1283z" fill="#98b5bd" stroke="#7f7f7f" stroke-linecap="round"/><path d="M468.33074,160.78155h3.158v28.4215h-3.158z" fill="#7f7f7f" stroke="none" stroke-linecap="butt"/><path d="M453.89444,176.12015h31.5795v2.2557h-31.5795z" fill="#7f7f7f" stroke="none" stroke-linecap="butt"/></g></g><path d="M428.42644,137.09645c0,3.1479 -2.2683,5.6997 -5.0665,5.6997c-2.7981,0 -5.0664,-2.5518 -5.0664,-5.6997c0,-3.1479 2.2683,-5.6998 5.0664,-5.6998c2.7982,0 5.0665,2.5519 5.0665,5.6998z" fill="#e9ecea" stroke="#e9ecea" stroke-width="4.5" stroke-linecap="butt"/><path d="M420.82674,143.42945c0,1.0493 -2.2683,1.9 -5.0664,1.9c-2.7981,0 -5.0665,-0.8506 -5.0665,-1.9c0,-1.0492 2.2684,-1.8999 5.0665,-1.8999c2.7981,0 5.0664,0.8506 5.0664,1.8999z" fill="#e9ecea" stroke="#e9ecea" stroke-width="4.5" stroke-linecap="butt"/><path d="M391.89484,142.46285c0,-1.0381 1.3092,-3.0493 5.7283,-5.1687c7.4922,-3.5932 21.5497,-7.4974 36.0699,-7.4974c23.0845,0 50.6644,13.6678 50.6644,16.4659c0,2.7981 -32.6464,2.5332 -55.7308,2.5332c-9.2631,0 -43.6055,4.4973 -49.5575,3.6349c-8.8809,-1.2867 12.8257,-8.2926 12.8257,-9.9679z" fill="#e9ecea" stroke="#e9ecea" stroke-width="4.5" stroke-linecap="butt"/><g><path d="M5.45304,115.89995h180.3081v125.336h-180.3081z" data-paper-data="{&quot;origPos&quot;:null}" fill="#735f34" stroke="#63522d" stroke-width="4.74992" stroke-linecap="round"/><path d="M133.19344,162.76425v-26.948h26.948v26.948z" fill="#3a4980" stroke="#e4e4e4" stroke-width="4.74992" stroke-linecap="butt"/><path d="M24.67924,163.11995v-28.0259h28.0259v28.0259z" fill="#3a4980" stroke="#e4e4e4" stroke-width="4.74992" stroke-linecap="butt"/><path d="M65.99594,163.47565v-28.0259h28.0259v28.0259z" fill="#3a4980" stroke="#e4e4e4" stroke-width="4.74992" stroke-linecap="butt"/><path d="M66.35164,209.10405v-28.0259h28.0259v28.0259z" fill="#3a4980" stroke="#e4e4e4" stroke-width="4.74992" stroke-linecap="butt"/><path d="M184.04954,115.76535c0,1.4968 -17.6426,-1.213 -31.2644,1.5733c-7.1502,1.4626 -18.4347,-2.6301 -24.2185,1.2811c-5.6194,3.8 -5.8047,15.5783 -8.2515,18.8391c-4.8388,6.4488 -6.2345,-17.7471 -13.169,-17.7471c-6.9775,0 -17.4386,-1.9234 -27.7971,-1.6071c-6.902,0.2107 -14.1971,8.0842 -21.4777,8.4547c-6.658,0.3389 -12.2259,-7.1915 -18.5477,-7.4006c-22.6452,-0.7489 -42.2109,3.1716 -42.2109,1.2526c0,-2.4446 2.782,-9.2771 33.8189,-10.6514c18.7263,-0.8292 65.8181,3.22 77.5244,3.22c11.2314,0 37.6907,-3.223 50.4046,-2.5092c22.5006,1.2632 25.1889,2.7901 25.1889,5.2945z" fill="#e9ecea" stroke="#e9ecea" stroke-width="4.5" stroke-linecap="butt"/></g><path d="M309.80314,141.96385v-37.539h12.012v37.539z" fill="#735f34" stroke="#63522d" stroke-width="2.5" stroke-linecap="butt"/><path d="M320.57464,140.05465c0,5.4599 -24.5569,-0.5087 -39.8028,-0.5087c-15.2459,0 -53.9264,6.4344 -53.9264,0.9745c0,-3.4052 1.3634,-12.9226 16.5744,-14.837c9.1776,-1.155 32.2568,4.4853 37.994,4.4853c5.5044,0 18.4719,-4.4895 24.7029,-3.4952c11.0273,1.7595 14.4579,9.8925 14.4579,13.3811z" fill="#e9ecea" stroke="#e9ecea" stroke-width="4.5" stroke-linecap="butt"/><path d="M324.07464,108.41265c0,3.7009 -3.859,-0.3449 -6.2548,-0.3449c-2.3959,0 -8.4744,4.3616 -8.4744,0.6606c0,-2.3082 0.2143,-8.7596 2.6046,-10.0573c1.4422,-0.7829 5.0691,3.0404 5.9706,3.0404c0.865,0 2.9028,-3.0432 3.882,-2.3693c1.7329,1.1927 2.272,6.7057 2.272,9.0705z" fill="#e9ecea" stroke="#e9ecea" stroke-width="4.5" stroke-linecap="butt"/><path d="M459.70534,102.90215c0,3.7009 -3.8591,-0.3449 -6.2549,-0.3449c-2.3959,0 -8.4744,4.3616 -8.4744,0.6606c0,-2.3083 0.2143,-8.7596 2.6046,-10.0573c1.4423,-0.7829 5.0691,3.0404 5.9707,3.0404c0.865,0 2.9028,-3.0432 3.8819,-2.3693c1.733,1.1927 2.2721,6.7057 2.2721,9.0705z" fill="#e9ecea" stroke="#e9ecea" stroke-width="4.5" stroke-linecap="butt"/><path d="M295.08044,240.80465c-0.548,0.0253 -1.0959,0.0485 -1.6407,-0.0276c-0.4141,-0.0579 -0.9235,0.0317 -1.2176,-0.4047c-0.2942,-0.4364 -0.2245,-1.1938 -0.2728,-1.8068c-0.035,-0.4446 0.0766,-0.9013 0.0249,-1.3423c-0.0357,-0.3047 -0.2425,-0.5255 -0.2796,-0.8298c-0.1271,-1.0431 -0.007,-2.1611 0.5275,-2.9542c0.3958,-0.5874 1.3636,-1.1652 1.9756,-0.7455c0.0041,-0.045 0.0085,-0.0906 0.0007,-0.1307c-0.068,-0.3494 -0.1664,-0.6842 -0.2439,-1.0292c-0.1089,-0.4849 -0.3074,-0.9493 -0.3154,-1.4604c-0.0108,-0.688 -0.0252,-1.4863 0.2607,-2.0281c0.2125,-0.4026 0.6772,-0.2043 1.0038,-0.3678c0.1975,-0.0988 0.3728,-0.2766 0.5592,-0.4149c0.1657,-0.0079 0.3378,-0.0754 0.5039,-0.0877c0.5063,-1.7175 0.8359,-2.7056 2.0128,-3.2317c0.1085,-0.0485 1.4378,-0.05 1.5463,0c0.1893,0.0874 0.3803,0.1929 0.559,0.3288c0.2625,-0.2839 0.6575,-0.172 0.9705,-0.3288c0.1975,-0.0988 0.3542,-0.3599 0.5593,-0.4149c0.3238,-0.0869 0.6639,-0.0917 0.9871,0c0.1405,0.0399 0.2039,0.3464 0.3453,0.378c0.0761,0.017 0.0766,-0.211 0.1429,-0.2691c0.2409,-0.2112 0.4838,-0.4751 0.7617,-0.5238c0.4197,-0.0735 0.8754,-0.0815 1.2627,0.1694c0.191,0.1237 0.1464,0.592 0.2797,0.8298c0.0331,0.0592 0.019,-0.1897 0.0697,-0.2063c0.182,-0.0598 0.3728,0 0.5592,0c0.1827,0 1.2506,-0.0089 1.3325,0.0369c0.1529,0.0857 0.2959,0.2015 0.4344,0.3308c0.8014,-0.627 2.1828,-1.281 2.9868,-1.1976c0.3518,0.0365 0.7641,-0.1026 1.0488,0.2064c0.0882,0.0958 0.1611,0.2125 0.2244,0.3424c0.3869,-0.2938 2.3163,-0.8923 2.8514,-0.3424c0.0603,0.0619 0.317,0.5591 0.5246,1.137c0.4855,-0.2099 1.0941,-0.1099 1.5025,-0.0986c0.2579,0.0071 0.527,-0.0766 0.7732,0.037c0.361,0.1664 0.7365,0.386 1.0038,0.7826c0.2542,0.3772 0.4191,0.8921 0.5135,1.4097c0.0711,-0.0667 0.1457,-0.1227 0.2262,-0.1547c0.473,-0.1878 2.088,0.0364 2.3362,0.4047c0.0423,0.0628 0.0762,0.1326 0.1036,0.2077c0.7218,-0.2697 1.7418,-0.33 2.1334,0.2072c0.2228,0.3057 0.231,0.8025 0.2444,1.2856c0.1362,0.0027 0.2507,0.0182 0.2814,0.0064c0.2017,-0.0773 0.352,-0.3812 0.5592,-0.4149c0.4028,-0.0656 0.8594,-0.1683 1.2126,0.1265c0.395,0.3298 0.5512,1.0685 0.84,1.587c0.1313,0.2359 0.3076,0.4301 0.4551,0.6492c0.7991,-0.221 1.8987,0.6504 2.0473,1.867c0.2639,0.089 0.527,0.2193 0.7914,0.2872c0.0909,0.6023 0.2096,1.1968 0.2727,1.8069c0.0007,0.0067 0.0015,0.0135 0.0023,0.0204c0.3721,0.4303 0.6148,1.0985 0.8117,1.7367c0.1073,0.3479 0.0567,0.7676 0.0249,1.1473c-0.0772,0.9198 0.0095,1.9191 -0.5138,1.9047c0.006,0.1886 -0.0345,0.3963 -0.0455,0.5849c-0.0304,0.5213 0.0516,1.1159 -0.139,1.5562c-0.4616,1.066 -1.7081,1.464 -2.4699,1.4851c-0.3728,0.0104 -0.762,0.162 -1.1185,0c-0.0562,-0.0255 0.0001,-0.3452 -0.0148,-0.2608c-0.0594,0.3369 0.0269,0.7584 -0.1206,1.0292c-0.4658,0.8548 -1.5409,1.2672 -2.2321,1.2884c-1.3556,0.7073 -2.791,1.7689 -4.2778,1.2257c-0.2718,-0.0993 -0.5208,-0.3127 -0.7618,-0.5239c-0.0662,-0.058 -0.0658,-0.269 -0.1428,-0.269c-0.0769,0 -0.0766,0.211 -0.1428,0.269c-0.241,0.2112 -0.49,0.4246 -0.7618,0.5239c-0.4498,0.1643 -1.6551,0.1588 -2.1056,0c-0.4022,-0.1419 -0.7051,-0.7695 -1.1182,-0.7964c-0.0926,-0.006 -0.1202,0.2323 -0.2088,0.2725c-0.0149,0.0068 -0.0298,0.0066 -0.0445,0.0021v0.0069c0,0.7631 -0.4169,1.3817 -0.9312,1.3817c-0.3717,0 -0.6926,-0.3232 -0.8419,-0.7906l-0.0752,-0.2234c-0.0641,0.185 -0.0009,0.4642 -0.1022,0.6093c-0.5312,0.7603 -1.743,1.5151 -2.4854,1.2167c-0.5103,-0.2052 -1.0434,-0.4607 -1.4451,-0.9709c-0.1198,-0.1522 -0.0725,-0.4293 -0.0478,-0.6875c-0.2589,0.1628 -0.3917,-0.1235 -0.6606,-0.0204c-0.4036,0.1546 -0.7138,0.6819 -1.1185,0.8298c-0.1256,0.0459 -1.1182,0.037 -1.3325,0.037c-0.932,0 -1.8641,0 -2.7962,0c-0.846,-0.1665 -1.2347,0.0172 -1.5306,-0.9261c-0.4914,0.1739 -1.1353,0.1073 -1.3424,-0.009c-0.3921,-0.2201 -0.5636,-1.0658 -0.9761,-1.1765c-0.3669,-0.0985 -0.7565,0.1322 -1.1185,0c-0.2025,-0.074 -1.4373,-1.0227 -1.563,-1.1976c-0.152,-0.2115 -0.1639,-0.5726 -0.2796,-0.8298c-0.1778,-0.3953 -0.6897,0.061 -0.9496,-0.2166c-0.304,-0.3246 -0.4153,-0.9249 -0.623,-1.3873zM329.19364,239.86905c0.0277,0.026 0.0556,0.0506 0.0851,0.0447c0.0339,-0.0068 -0.0327,-0.017 -0.0851,-0.0447zM296.87554,240.20035l-0.0761,-0.1572c-0.0265,0.0836 -0.0579,0.1577 -0.0927,0.2234c0.0015,0.0129 0.0073,0.0227 0.0188,0.0281c0.0514,0.0241 0.1007,-0.0377 0.15,-0.0943z" fill="#2c482a" stroke="none" stroke-width="0.5" stroke-linecap="butt"/><path d="M320.27594,225.85573c0,0.84584 -3.08999,-0.43096 -6.98538,-0.13857c-0.52862,0.03968 -3.81047,1.31793 -4.44999,2.72798c-0.802,1.76832 1.35775,4.74392 0.60203,4.74392c-2.28164,0 -3.72663,-6.80528 -5.44887,-7.04072c-2.65498,-0.36294 -4.7178,1.37736 -4.7178,0.70739c0,-1.10457 4.36768,-3 10.16667,-3c5.79899,0 10.83333,0.89543 10.83333,2z" fill="#e9ecea" stroke="none" stroke-width="0" stroke-linecap="butt"/><path d="M177.19114,123.00315c-0.7002,-0.0276 -1.3999,-0.059 -2.0771,-0.2668c-0.5148,-0.1579 -1.1781,-0.0659 -1.4702,-0.882c-0.2921,-0.816 -0.0628,-2.1553 -0.01,-3.2533c0.0383,-0.7961 0.2649,-1.5946 0.2813,-2.3865c0.0113,-0.5473 -0.2101,-0.9679 -0.2006,-1.5147c0.0328,-1.8741 0.3931,-3.8487 1.219,-5.1899c0.6117,-0.9934 1.9474,-1.8939 2.6461,-1.0656c0.0136,-0.0794 0.0276,-0.1601 0.0252,-0.2326c-0.0212,-0.6311 -0.0839,-1.2402 -0.1181,-1.8648c-0.048,-0.8779 -0.2135,-1.731 -0.1286,-2.642c0.1143,-1.2265 0.2444,-2.6497 0.7082,-3.5766c0.3445,-0.6887 0.8975,-0.2738 1.3423,-0.5216c0.269,-0.1499 0.5247,-0.4431 0.787,-0.6647c0.2117,0.0079 0.4427,-0.0895 0.6557,-0.0893c0.9622,-2.9908 1.5643,-4.7065 3.1558,-5.4872c0.1467,-0.0719 1.8342,0.1016 1.9626,0.2051c0.2241,0.1806 0.4468,0.3938 0.6483,0.6595c0.386,-0.4707 0.8665,-0.2191 1.293,-0.4567c0.269,-0.1499 0.5164,-0.5938 0.7869,-0.6646c0.4272,-0.1118 0.8598,-0.0752 1.2529,0.1309c0.1709,0.0896 0.1943,0.6438 0.3679,0.7187c0.0934,0.0403 0.1365,-0.3655 0.2314,-0.4601c0.3451,-0.3441 0.7024,-0.7819 1.0642,-0.8317c0.5464,-0.0751 1.1262,-0.0291 1.5711,0.4691c0.2194,0.2456 0.0757,1.0735 0.2005,1.5146c0.0311,0.1097 0.0595,-0.3353 0.1269,-0.3582c0.2421,-0.0822 0.4732,0.0495 0.7098,0.0742c0.2318,0.0242 1.5888,0.15 1.6842,0.2425c0.1782,0.1728 0.3381,0.398 0.4899,0.6466c1.1337,-1.0102 3.0086,-1.9915 4.0135,-1.7363c0.4397,0.1117 0.9889,-0.0813 1.2927,0.5065c0.0942,0.1822 0.165,0.3997 0.2211,0.6394c0.5457,-0.4718 3.1058,-1.2816 3.6827,-0.2316c0.065,0.1183 0.2984,1.0377 0.4543,2.0941c0.6553,-0.3093 1.4091,-0.0507 1.9253,0.0236c0.3259,0.047 0.6831,-0.0665 0.9745,0.1684c0.4271,0.3442 0.8629,0.785 1.1283,1.5266c0.2525,0.7053 0.366,1.644 0.3895,2.5781c0.1027,-0.1094 0.2077,-0.1992 0.3159,-0.2455c0.6353,-0.2716 2.6432,0.3417 2.8897,1.0303c0.0421,0.1175 0.0721,0.2462 0.0929,0.3835c0.9662,-0.3844 2.2721,-0.3566 2.6691,0.6519c0.2259,0.5738 0.1439,1.4595 0.0711,2.3214c0.1724,0.0229 0.3147,0.0656 0.3559,0.0487c0.2705,-0.1109 0.5177,-0.6321 0.7869,-0.6646c0.5234,-0.0633 1.1221,-0.1857 1.5155,0.3861c0.44,0.6396 0.5008,1.9755 0.7708,2.937c0.1229,0.4374 0.3105,0.8066 0.457,1.2163c1.0552,-0.2875 2.2888,1.4097 2.251,3.5956c0.3184,0.1935 0.6281,0.4604 0.951,0.6164c0.0033,1.0844 0.0434,2.1587 0.01,3.2533c-0.0003,0.012 -0.0006,0.0242 -0.0009,0.0365c0.3923,0.8157 0.576,2.0376 0.7071,3.2c0.0715,0.6337 -0.0707,1.3743 -0.1818,2.0461c-0.269,1.6274 -0.3449,3.4182 -1.0064,3.3232c-0.0274,0.3366 -0.1174,0.701 -0.1665,1.0353c-0.1355,0.9242 -0.1421,1.9939 -0.466,2.7525c-0.784,1.8368 -2.4401,2.3802 -3.4109,2.3168c-0.475,-0.031 -0.9973,0.1873 -1.4196,-0.1483c-0.0666,-0.053 0.0643,-0.6147 0.0297,-0.4664c-0.138,0.592 -0.1069,1.3539 -0.3445,1.8165c-0.7501,1.4602 -2.1914,2.052 -3.0726,1.998c-1.852,1.0796 -3.8713,2.7794 -5.6573,1.6151c-0.3264,-0.2128 -0.6028,-0.6257 -0.8694,-1.0337c-0.0732,-0.1122 -0.0335,-0.4878 -0.1312,-0.498c-0.0976,-0.0102 -0.1364,0.3655 -0.2313,0.4601c-0.3451,0.3441 -0.7009,0.691 -1.0642,0.8317c-0.6015,0.233 -2.1302,0.0634 -2.6724,-0.2792c-0.4842,-0.3059 -0.7519,-1.4636 -1.2711,-1.5662c-0.1164,-0.023 -0.1957,0.3977 -0.3157,0.4576c-0.0202,0.01 -0.039,0.0078 -0.0569,-0.0023l-0.0013,0.0123c-0.142,1.3587 -0.7861,2.4048 -1.4388,2.3366c-0.4718,-0.0493 -0.8189,-0.6673 -0.9215,-1.5192l-0.0539,-0.4077c-0.1158,0.3207 -0.0875,0.8264 -0.2431,1.0712c-0.8156,1.2833 -2.4939,2.4666 -3.3806,1.8368c-0.6096,-0.433 -1.2386,-0.9585 -1.6535,-1.9203c-0.1238,-0.2868 -0.0123,-0.7739 0.0672,-1.2303c-0.359,0.2555 -0.4742,-0.2719 -0.8347,-0.1241c-0.541,0.2219 -1.0327,1.1196 -1.5739,1.3292c-0.1679,0.0651 -1.4261,-0.0824 -1.698,-0.1108c-1.183,-0.1236 -2.366,-0.2472 -3.549,-0.3708c-1.0427,-0.4085 -1.5702,-0.133 -1.7702,-1.8518c-0.6561,0.2445 -1.461,0.0405 -1.7021,-0.194c-0.4567,-0.4439 -0.5171,-1.9724 -1.02,-2.2243c-0.4473,-0.224 -0.9847,0.1352 -1.4196,-0.1483c-0.2432,-0.1586 -1.6339,-2.0114 -1.7609,-2.3395c-0.1537,-0.3968 -0.1016,-1.0413 -0.2006,-1.5147c-0.152,-0.7273 -0.8866,0.0172 -1.1649,-0.5115c-0.3254,-0.6182 -0.355,-1.7018 -0.5326,-2.5527zM220.66104,125.86065c0.0302,0.0499 0.0611,0.0974 0.0996,0.0908c0.0443,-0.0076 -0.0383,-0.0346 -0.0996,-0.0908zM179.58184,122.16515l-0.0674,-0.29c-0.0491,0.1454 -0.1027,0.2732 -0.1592,0.3855c-0.0004,0.0231 0.0051,0.0413 0.0188,0.0525c0.0607,0.0497 0.1347,-0.0536 0.2078,-0.148z" fill="#2c482a" stroke="none" stroke-width="0.5" stroke-linecap="butt"/><path d="M206.27595,95.85575c0,0.84584 -3.08998,-0.43095 -6.98538,-0.13856c-0.52862,0.03968 -3.81047,1.31793 -4.44999,2.72798c-0.802,1.76832 1.35775,4.74392 0.60204,4.74392c-2.28164,0 -3.72663,-6.80529 -5.44887,-7.04072c-2.65497,-0.36295 -4.7178,1.37736 -4.7178,0.70738c0,-1.10457 4.36768,-3 10.16667,-3c5.79899,0 10.83333,0.89543 10.83333,2z" fill="#e9ecea" stroke="none" stroke-width="0" stroke-linecap="butt"/><path d="M413.96032,282.08508c0,6.29091 -13.4449,11.3907 -30.03003,11.3907c-16.58513,0 -30.03003,-5.09979 -30.03003,-11.3907c0,-6.29091 13.4449,-11.3907 30.03003,-11.3907c16.58513,0 30.03003,5.09979 30.03003,11.3907z" fill="#dfe1df" stroke="none" stroke-width="0" stroke-linecap="butt"/><path d="M186.74704,239.80465c-0.5479,0.0253 -1.0958,0.0485 -1.6406,-0.0276c-0.4141,-0.0579 -0.9236,0.0317 -1.2177,-0.4047c-0.2941,-0.4364 -0.2245,-1.1938 -0.2727,-1.8068c-0.035,-0.4446 0.0766,-0.9013 0.0249,-1.3423c-0.0357,-0.3047 -0.2425,-0.5255 -0.2796,-0.8298c-0.1271,-1.0431 -0.007,-2.1611 0.5274,-2.9542c0.3959,-0.5874 1.3636,-1.1652 1.9757,-0.7455c0.0041,-0.045 0.0085,-0.0906 0.0007,-0.1307c-0.068,-0.3494 -0.1664,-0.6842 -0.2439,-1.0292c-0.109,-0.4849 -0.3074,-0.9493 -0.3154,-1.4604c-0.0108,-0.688 -0.0253,-1.4863 0.2607,-2.0281c0.2125,-0.4026 0.6772,-0.2043 1.0038,-0.3678c0.1974,-0.0988 0.3728,-0.2766 0.5592,-0.4149c0.1656,-0.0079 0.3377,-0.0754 0.5038,-0.0877c0.5064,-1.7175 0.836,-2.7056 2.0128,-3.2317c0.1085,-0.0485 1.4379,-0.05 1.5464,0c0.1893,0.0874 0.3803,0.1929 0.5589,0.3288c0.2626,-0.2839 0.6576,-0.172 0.9706,-0.3288c0.1975,-0.0988 0.3542,-0.3599 0.5593,-0.4149c0.3238,-0.0869 0.6639,-0.0917 0.9871,0c0.1405,0.0399 0.2039,0.3464 0.3453,0.378c0.0761,0.017 0.0766,-0.211 0.1428,-0.2691c0.241,-0.2112 0.4839,-0.4751 0.7618,-0.5238c0.4197,-0.0735 0.8754,-0.0815 1.2627,0.1694c0.191,0.1237 0.1464,0.592 0.2796,0.8298c0.0332,0.0592 0.0191,-0.1897 0.0698,-0.2063c0.182,-0.0598 0.3728,0 0.5592,0c0.1827,0 1.2506,-0.0089 1.3324,0.0369c0.153,0.0857 0.296,0.2015 0.4345,0.3308c0.8014,-0.627 2.1828,-1.281 2.9867,-1.1976c0.3518,0.0365 0.7642,-0.1026 1.0488,0.2064c0.0883,0.0958 0.1612,0.2125 0.2244,0.3424c0.387,-0.2938 2.3163,-0.8923 2.8515,-0.3424c0.0603,0.0619 0.317,0.5591 0.5246,1.137c0.4855,-0.2099 1.0941,-0.1099 1.5025,-0.0986c0.2578,0.0071 0.527,-0.0766 0.7732,0.037c0.3609,0.1664 0.7365,0.386 1.0038,0.7826c0.2542,0.3772 0.419,0.8921 0.5134,1.4097c0.0712,-0.0667 0.1457,-0.1227 0.2263,-0.1547c0.473,-0.1878 2.0879,0.0364 2.3361,0.4047c0.0424,0.0628 0.0763,0.1326 0.1036,0.2077c0.7219,-0.2697 1.7419,-0.33 2.1334,0.2072c0.2228,0.3057 0.231,0.8025 0.2445,1.2856c0.1362,0.0027 0.2506,0.0182 0.2813,0.0064c0.2018,-0.0773 0.3521,-0.3812 0.5593,-0.4149c0.4027,-0.0656 0.8594,-0.1683 1.2125,0.1265c0.3951,0.3298 0.5512,1.0685 0.84,1.587c0.1314,0.2359 0.3077,0.4301 0.4552,0.6492c0.799,-0.221 1.8987,0.6504 2.0473,1.867c0.2639,0.089 0.527,0.2193 0.7913,0.2872c0.0909,0.6023 0.2097,1.1968 0.2728,1.8069c0.0007,0.0067 0.0014,0.0135 0.0022,0.0204c0.3722,0.4303 0.6149,1.0985 0.8117,1.7367c0.1074,0.3479 0.0568,0.7676 0.025,1.1473c-0.0772,0.9198 0.0094,1.9191 -0.5139,1.9047c0.0061,0.1886 -0.0344,0.3963 -0.0454,0.5849c-0.0304,0.5213 0.0515,1.1159 -0.1391,1.5562c-0.4615,1.066 -1.708,1.464 -2.4698,1.4851c-0.3728,0.0104 -0.762,0.162 -1.1185,0c-0.0562,-0.0255 0.0001,-0.3452 -0.0148,-0.2608c-0.0594,0.3369 0.0269,0.7584 -0.1207,1.0292c-0.4657,0.8548 -1.5409,1.2672 -2.232,1.2884c-1.3556,0.7073 -2.7911,1.7689 -4.2779,1.2257c-0.2717,-0.0993 -0.5207,-0.3127 -0.7617,-0.5239c-0.0663,-0.058 -0.0659,-0.269 -0.1428,-0.269c-0.077,0 -0.0766,0.211 -0.1429,0.269c-0.2409,0.2112 -0.49,0.4246 -0.7617,0.5239c-0.4498,0.1643 -1.6551,0.1588 -2.1056,0c-0.4023,-0.1419 -0.7052,-0.7695 -1.1182,-0.7964c-0.0926,-0.006 -0.1202,0.2323 -0.2089,0.2725c-0.0149,0.0068 -0.0297,0.0066 -0.0445,0.0021v0.0069c0,0.7631 -0.4169,1.3817 -0.9311,1.3817c-0.3717,0 -0.6926,-0.3232 -0.8419,-0.7906l-0.0753,-0.2234c-0.0641,0.185 -0.0008,0.4642 -0.1022,0.6093c-0.5312,0.7603 -1.7429,1.5151 -2.4853,1.2167c-0.5104,-0.2052 -1.0434,-0.4607 -1.4451,-0.9709c-0.1198,-0.1522 -0.0726,-0.4293 -0.0478,-0.6875c-0.259,0.1628 -0.3917,-0.1235 -0.6606,-0.0204c-0.4036,0.1546 -0.7138,0.6819 -1.1186,0.8298c-0.1255,0.0459 -1.1182,0.037 -1.3324,0.037c-0.9321,0 -1.8642,0 -2.7963,0c-0.8459,-0.1665 -1.2346,0.0172 -1.5305,-0.9261c-0.4914,0.1739 -1.1354,0.1073 -1.3424,-0.009c-0.3921,-0.2201 -0.5636,-1.0658 -0.9761,-1.1765c-0.3669,-0.0985 -0.7565,0.1322 -1.1185,0c-0.2025,-0.074 -1.4373,-1.0227 -1.563,-1.1976c-0.1521,-0.2115 -0.164,-0.5726 -0.2796,-0.8298c-0.1778,-0.3953 -0.6897,0.061 -0.9497,-0.2166c-0.3039,-0.3246 -0.4152,-0.9249 -0.6229,-1.3873zM220.86034,238.86905c0.0276,0.026 0.0556,0.0506 0.085,0.0447c0.0339,-0.0068 -0.0326,-0.017 -0.085,-0.0447zM188.54224,239.20035l-0.0762,-0.1572c-0.0264,0.0836 -0.0578,0.1577 -0.0927,0.2234c0.0016,0.0129 0.0073,0.0227 0.0189,0.0281c0.0514,0.0241 0.1006,-0.0377 0.15,-0.0943z" fill="#2c482a" stroke="none" stroke-width="0.5" stroke-linecap="butt"/><g data-paper-data="{&quot;index&quot;:null}" stroke-width="2"><g fill="none" stroke="#6f6d00" stroke-linecap="round"><path d="M250.01084,216.88665l13.569,20.5532l-0.5113,6.9761"/><path d="M267.58394,241.99935l-3.8586,-4.0789l5.3887,0.4673"/></g><path d="M234.93144,229.63805c12.3424,0 22.3479,10.4294 22.3479,23.2948c0,12.8654 -10.0055,23.2948 -22.3479,23.2948c-12.3424,0 -22.3478,-10.4294 -22.3478,-23.2948c0,-12.8654 10.0054,-23.2948 22.3478,-23.2948z" fill="#ffffff" stroke="#c4c6c5" stroke-linecap="butt"/><path d="M235.28424,207.20475c9.2825,0 16.8074,7.8438 16.8074,17.5196c0,9.6757 -7.5249,17.5195 -16.8074,17.5195c-9.2824,0 -16.8073,-7.8438 -16.8073,-17.5195c0,-9.6758 7.5249,-17.5196 16.8073,-17.5196z" fill="#ffffff" stroke="#c4c6c5" stroke-linecap="butt"/><path d="M235.36964,186.27815c7.757,0 14.0453,6.5547 14.0453,14.6404c0,8.0856 -6.2883,14.6404 -14.0453,14.6404c-7.757,0 -14.0453,-6.5548 -14.0453,-14.6404c0,-8.0857 6.2883,-14.6404 14.0453,-14.6404z" fill="#ffffff" stroke="#c4c6c5" stroke-linecap="butt"/><g data-paper-data="{&quot;index&quot;:null}" fill="none" stroke="#6f6d00" stroke-linecap="round"><path d="M207.17724,245.75335l-0.5114,-6.9761l13.5691,-20.5532"/><path d="M201.13174,239.72515l5.3886,-0.4673l-3.8585,4.0789"/></g><path d="M241.71114,193.36475c1.1094,0 2.0088,1.5739 2.0088,3.5154c0,1.9415 -0.8993,3.5154 -2.0088,3.5154c-1.1094,0 -2.0088,-1.5739 -2.0088,-3.5154c0,-1.9415 0.8994,-3.5154 2.0088,-3.5154z" fill="#000000" stroke="none" stroke-linecap="butt"/><path d="M233.51024,193.02825c1.1094,0 2.0088,1.5739 2.0088,3.5154c0,1.9415 -0.8994,3.5154 -2.0088,3.5154c-1.1094,0 -2.0088,-1.5739 -2.0088,-3.5154c0,-1.9415 0.8993,-3.5154 2.0088,-3.5154z" fill="#000000" stroke="none" stroke-linecap="butt"/><g fill="#ffa000" stroke="#000000" stroke-linecap="butt"><path d="M249.22234,207.94085c-1.6442,0 -4.9696,0.4215 -6.2,0.1159c-1.8382,-0.4567 -1.2631,-5.0448 0.2689,-5.5043c1.311,-0.3932 4.0402,0.3714 5.9311,0.3714c4.1008,0 8.2279,1.1231 8.2279,2.5085c0,1.3854 -4.1271,2.5085 -8.2279,2.5085z"/></g><path d="M234.37444,201.40545c3.3249,0 6.0204,2.321 6.0204,5.1842c0,2.8631 -2.6955,5.1842 -6.0204,5.1842c-3.325,0 -6.0204,-2.3211 -6.0204,-5.1842c0,-2.8632 2.6954,-5.1842 6.0204,-5.1842z" fill="#ffffff" stroke="none" stroke-linecap="butt"/></g><path d="M71.02594,147.10573c0,0.84584 1.16001,-4.68096 -2.73538,-4.38857c-0.52862,0.03968 -3.81047,1.31793 -4.44999,2.72798c-0.802,1.76832 1.35775,4.74392 0.60203,4.74392c-2.28164,0 -3.72663,-6.80528 -5.44887,-7.04072c-2.65498,-0.36294 -2.2178,-1.87264 -2.2178,-2.54261c0,-1.10457 1.86768,-8.75 7.66667,-8.75c5.79899,0 8.33333,11.64543 8.33333,12.75z" fill="#e9ecea" stroke="none" stroke-width="0" stroke-linecap="butt"/><path d="M94.639,211.79227c0,0.82925 -11.42816,-7.7485 -25.52552,-7.7485c-14.09736,0 -26.02552,4.07775 -26.02552,3.2485c0,-0.39631 1.22432,-6.34162 5.60775,-7.74278c4.78875,-1.53071 13.05762,1.49128 20.41778,1.49128c4.03834,0 12.85766,-0.68578 16.25204,0.49567c8.45498,2.94284 9.27349,9.66413 9.27349,10.25584z" fill="#e9ecea" stroke="none" stroke-width="0" stroke-linecap="butt"/><path d="M48.4899,384.89662v-55.55556h540.54054v55.55556z" fill="#eaedea" stroke="none" stroke-width="0" stroke-linecap="butt"/><path d="M102.64201,246.8223c0,0.82925 -15.42252,-7.7485 -34.44715,-7.7485c-19.02464,0 -35.12191,4.07776 -35.12191,3.2485c0,-0.3963 1.65224,-6.34163 7.56776,-7.74278c6.46251,-1.53071 17.62149,1.49128 27.55416,1.49128c5.44982,0 17.35163,-0.68578 21.93241,0.49567c11.41015,2.94284 12.51475,9.66414 12.51475,10.25584z" fill="#e9ecea" stroke="none" stroke-width="0" stroke-linecap="butt"/></g></g></svg>