<svg xmlns="http://www.w3.org/2000/svg" xmlns:xlink="http://www.w3.org/1999/xlink" version="1.1" width="350.18961" height="443.06367" viewBox="0,0,350.18961,443.06367"><defs><linearGradient x1="260.79815" y1="390.71863" x2="337.69289" y2="397.38104" gradientUnits="userSpaceOnUse" id="color-1"><stop offset="0" stop-color="#000000"/><stop offset="1" stop-color="#0e0e0e"/></linearGradient><linearGradient x1="297.10609" y1="416.57648" x2="296.13366" y2="427.79982" gradientUnits="userSpaceOnUse" id="color-2"><stop offset="0" stop-color="#000000"/><stop offset="1" stop-color="#666666"/></linearGradient><linearGradient x1="280.17612" y1="378.85186" x2="276.74802" y2="418.41758" gradientUnits="userSpaceOnUse" id="color-3"><stop offset="0" stop-color="#151515"/><stop offset="1" stop-color="#212121"/></linearGradient><linearGradient x1="311.41639" y1="384.86403" x2="309.95459" y2="401.73549" gradientUnits="userSpaceOnUse" id="color-4"><stop offset="0" stop-color="#292929"/><stop offset="1" stop-color="#292929"/></linearGradient><linearGradient x1="148.55322" y1="393.81627" x2="222.85813" y2="393.81627" gradientUnits="userSpaceOnUse" id="color-5"><stop offset="0" stop-color="#000000"/><stop offset="1" stop-color="#0e0e0e"/></linearGradient><linearGradient x1="185.62123" y1="416.63748" x2="185.62123" y2="427.15746" gradientUnits="userSpaceOnUse" id="color-6"><stop offset="0" stop-color="#000000"/><stop offset="1" stop-color="#666666"/></linearGradient><linearGradient x1="164.18436" y1="398.65523" x2="179.67885" y2="398.65523" gradientUnits="userSpaceOnUse" id="color-7"><stop offset="0" stop-color="#151515"/><stop offset="1" stop-color="#212121"/></linearGradient><linearGradient x1="295.9721" y1="184.08371" x2="287.61281" y2="233.58495" gradientUnits="userSpaceOnUse" id="color-8"><stop offset="0" stop-color="#ffffff"/><stop offset="1" stop-color="#cccccc"/></linearGradient><radialGradient cx="209.55102" cy="211.29739" r="3.39608" gradientUnits="userSpaceOnUse" id="color-9"><stop offset="0" stop-color="#cccccc"/><stop offset="1" stop-color="#7f7f7f"/></radialGradient><radialGradient cx="206.7349" cy="213.50569" r="2.93466" gradientUnits="userSpaceOnUse" id="color-10"><stop offset="0" stop-color="#cccccc"/><stop offset="1" stop-color="#7f7f7f"/></radialGradient><radialGradient cx="204.46787" cy="217.00514" r="3.64089" gradientUnits="userSpaceOnUse" id="color-11"><stop offset="0" stop-color="#cccccc"/><stop offset="1" stop-color="#7f7f7f"/></radialGradient><radialGradient cx="205.19573" cy="221.06888" r="3.64089" gradientUnits="userSpaceOnUse" id="color-12"><stop offset="0" stop-color="#cccccc"/><stop offset="1" stop-color="#7f7f7f"/></radialGradient><radialGradient cx="207.17862" cy="225.22116" r="3.42335" gradientUnits="userSpaceOnUse" id="color-13"><stop offset="0" stop-color="#cccccc"/><stop offset="1" stop-color="#7f7f7f"/></radialGradient><radialGradient cx="207.60019" cy="229.51025" r="3.1522" gradientUnits="userSpaceOnUse" id="color-14"><stop offset="0" stop-color="#cccccc"/><stop offset="1" stop-color="#7f7f7f"/></radialGradient><radialGradient cx="208.12876" cy="233.16753" r="3.61393" gradientUnits="userSpaceOnUse" id="color-15"><stop offset="0" stop-color="#cccccc"/><stop offset="1" stop-color="#7f7f7f"/></radialGradient><radialGradient cx="207.79197" cy="237.68016" r="3.39639" gradientUnits="userSpaceOnUse" id="color-16"><stop offset="0" stop-color="#cccccc"/><stop offset="1" stop-color="#7f7f7f"/></radialGradient><radialGradient cx="207.71452" cy="241.78644" r="3.17885" gradientUnits="userSpaceOnUse" id="color-17"><stop offset="0" stop-color="#cccccc"/><stop offset="1" stop-color="#7f7f7f"/></radialGradient><radialGradient cx="208.69128" cy="245.8924" r="3.85781" gradientUnits="userSpaceOnUse" id="color-18"><stop offset="0" stop-color="#cccccc"/><stop offset="1" stop-color="#7f7f7f"/></radialGradient><radialGradient cx="211.0888" cy="249.69555" r="3.4782" gradientUnits="userSpaceOnUse" id="color-19"><stop offset="0" stop-color="#cccccc"/><stop offset="1" stop-color="#7f7f7f"/></radialGradient><radialGradient cx="212.10029" cy="253.11471" r="3.83148" gradientUnits="userSpaceOnUse" id="color-20"><stop offset="0" stop-color="#cccccc"/><stop offset="1" stop-color="#7f7f7f"/></radialGradient><radialGradient cx="214.50114" cy="205.72888" r="5.74319" gradientUnits="userSpaceOnUse" id="color-21"><stop offset="0" stop-color="#cccccc"/><stop offset="1" stop-color="#7f7f7f"/></radialGradient><radialGradient cx="223.64076" cy="209.74824" r="3.39608" gradientUnits="userSpaceOnUse" id="color-22"><stop offset="0" stop-color="#cccccc"/><stop offset="1" stop-color="#7f7f7f"/></radialGradient><radialGradient cx="224.77756" cy="214.183" r="3.39608" gradientUnits="userSpaceOnUse" id="color-23"><stop offset="0" stop-color="#cccccc"/><stop offset="1" stop-color="#7f7f7f"/></radialGradient><radialGradient cx="224.76748" cy="218.89552" r="3.39608" gradientUnits="userSpaceOnUse" id="color-24"><stop offset="0" stop-color="#cccccc"/><stop offset="1" stop-color="#7f7f7f"/></radialGradient><radialGradient cx="223.91609" cy="223.93724" r="3.39608" gradientUnits="userSpaceOnUse" id="color-25"><stop offset="0" stop-color="#cccccc"/><stop offset="1" stop-color="#7f7f7f"/></radialGradient><radialGradient cx="223.26894" cy="228.69922" r="3.39608" gradientUnits="userSpaceOnUse" id="color-26"><stop offset="0" stop-color="#cccccc"/><stop offset="1" stop-color="#7f7f7f"/></radialGradient><radialGradient cx="222.13774" cy="233.5366" r="3.39608" gradientUnits="userSpaceOnUse" id="color-27"><stop offset="0" stop-color="#cccccc"/><stop offset="1" stop-color="#7f7f7f"/></radialGradient><radialGradient cx="220.72696" cy="238.16959" r="3.39608" gradientUnits="userSpaceOnUse" id="color-28"><stop offset="0" stop-color="#cccccc"/><stop offset="1" stop-color="#7f7f7f"/></radialGradient><radialGradient cx="219.67313" cy="242.54868" r="3.39608" gradientUnits="userSpaceOnUse" id="color-29"><stop offset="0" stop-color="#cccccc"/><stop offset="1" stop-color="#7f7f7f"/></radialGradient><radialGradient cx="218.38927" cy="247.3604" r="3.39608" gradientUnits="userSpaceOnUse" id="color-30"><stop offset="0" stop-color="#cccccc"/><stop offset="1" stop-color="#7f7f7f"/></radialGradient><radialGradient cx="216.18847" cy="252.01717" r="3.39608" gradientUnits="userSpaceOnUse" id="color-31"><stop offset="0" stop-color="#cccccc"/><stop offset="1" stop-color="#7f7f7f"/></radialGradient><radialGradient cx="211.91767" cy="267.12076" r="3.4782" gradientUnits="userSpaceOnUse" id="color-32"><stop offset="0" stop-color="#cccccc"/><stop offset="1" stop-color="#7f7f7f"/></radialGradient><radialGradient cx="210.81374" cy="270.96837" r="3.83148" gradientUnits="userSpaceOnUse" id="color-33"><stop offset="0" stop-color="#cccccc"/><stop offset="1" stop-color="#7f7f7f"/></radialGradient><radialGradient cx="211.29867" cy="275.39071" r="3.39608" gradientUnits="userSpaceOnUse" id="color-34"><stop offset="0" stop-color="#cccccc"/><stop offset="1" stop-color="#7f7f7f"/></radialGradient><linearGradient x1="303.04749" y1="243.12653" x2="296.47181" y2="275.34644" gradientUnits="userSpaceOnUse" id="color-35"><stop offset="0" stop-color="#ff0000"/><stop offset="1" stop-color="#ff0000" stop-opacity="0"/></linearGradient><linearGradient x1="297.37313" y1="242.00736" x2="303.07393" y2="242.9701" gradientUnits="userSpaceOnUse" id="color-36"><stop offset="0" stop-color="#ff0000"/><stop offset="1" stop-color="#ff0000" stop-opacity="0"/></linearGradient><linearGradient x1="266.07733" y1="208.61284" x2="249.61955" y2="205.41564" gradientUnits="userSpaceOnUse" id="color-37"><stop offset="0" stop-color="#7f7f7f"/><stop offset="1" stop-color="#b2b2b2"/></linearGradient><linearGradient x1="266.05883" y1="220.04522" x2="254.14169" y2="218.03276" gradientUnits="userSpaceOnUse" id="color-38"><stop offset="0" stop-color="#000000"/><stop offset="1" stop-color="#353935"/></linearGradient><linearGradient x1="243.87787" y1="216.29951" x2="254.57259" y2="218.10558" gradientUnits="userSpaceOnUse" id="color-39"><stop offset="0" stop-color="#000000"/><stop offset="1" stop-color="#353935"/></linearGradient><radialGradient cx="232.23277" cy="207.56818" r="27.19964" gradientUnits="userSpaceOnUse" id="color-40"><stop offset="0" stop-color="#666666"/><stop offset="1" stop-color="#000000"/></radialGradient><radialGradient cx="229.14602" cy="216.20042" r="11.68873" gradientUnits="userSpaceOnUse" id="color-41"><stop offset="0" stop-color="#370000"/><stop offset="1" stop-color="#000000"/></radialGradient><radialGradient cx="233.70799" cy="220.82934" r="9.96977" gradientUnits="userSpaceOnUse" id="color-42"><stop offset="0" stop-color="#370000"/><stop offset="1" stop-color="#000000"/></radialGradient><radialGradient cx="229.14916" cy="209.35908" r="9.2248" gradientUnits="userSpaceOnUse" id="color-43"><stop offset="0" stop-color="#370000"/><stop offset="1" stop-color="#000000"/></radialGradient><radialGradient cx="238.7885" cy="215.52695" r="8.1126" gradientUnits="userSpaceOnUse" id="color-44"><stop offset="0" stop-color="#370000"/><stop offset="1" stop-color="#000000"/></radialGradient><radialGradient cx="235.80993" cy="209.10049" r="6.10544" gradientUnits="userSpaceOnUse" id="color-45"><stop offset="0" stop-color="#370000"/><stop offset="1" stop-color="#000000"/></radialGradient><radialGradient cx="234.1657" cy="213.20973" r="2.97804" gradientUnits="userSpaceOnUse" id="color-46"><stop offset="0" stop-color="#ff0000"/><stop offset="1" stop-color="#000000"/></radialGradient><linearGradient x1="340.06088" y1="112.49653" x2="478.38911" y2="112.49653" gradientUnits="userSpaceOnUse" id="color-47"><stop offset="0" stop-color="#000000" stop-opacity="0"/><stop offset="1" stop-color="#000000"/></linearGradient><linearGradient x1="112.2449" y1="404.0982" x2="189.1397" y2="410.7606" gradientUnits="userSpaceOnUse" id="color-1-,0,0,1,-148.55323,13.37953"><stop offset="0" stop-color="#000000"/><stop offset="1" stop-color="#0e0e0e"/></linearGradient><linearGradient x1="148.5529" y1="429.956" x2="147.5804" y2="441.1793" gradientUnits="userSpaceOnUse" id="color-2-,0,0,1,-148.55323,13.37953"><stop offset="0" stop-color="#000000"/><stop offset="1" stop-color="#666666"/></linearGradient><linearGradient x1="131.6229" y1="392.2314" x2="128.1948" y2="431.7971" gradientUnits="userSpaceOnUse" id="color-3-,0,0,1,-148.55323,13.37953"><stop offset="0" stop-color="#151515"/><stop offset="1" stop-color="#212121"/></linearGradient><linearGradient x1="162.8632" y1="398.2436" x2="161.4014" y2="415.115" gradientUnits="userSpaceOnUse" id="color-4-,0,0,1,-148.55323,13.37953"><stop offset="0" stop-color="#292929"/><stop offset="1" stop-color="#292929"/></linearGradient><linearGradient x1="0" y1="407.1958" x2="74.3049" y2="407.1958" gradientUnits="userSpaceOnUse" id="color-5-,0,0,1,-148.55323,13.37953"><stop offset="0" stop-color="#000000"/><stop offset="1" stop-color="#0e0e0e"/></linearGradient><linearGradient x1="37.068" y1="430.017" x2="37.068" y2="440.537" gradientUnits="userSpaceOnUse" id="color-6-,0,0,1,-148.55323,13.37953"><stop offset="0" stop-color="#000000"/><stop offset="1" stop-color="#666666"/></linearGradient><linearGradient x1="15.6311" y1="412.0348" x2="31.1256" y2="412.0348" gradientUnits="userSpaceOnUse" id="color-7-,0,0,1,-148.55323,13.37953"><stop offset="0" stop-color="#151515"/><stop offset="1" stop-color="#212121"/></linearGradient><linearGradient x1="147.4189" y1="197.4632" x2="139.0596" y2="246.9645" gradientUnits="userSpaceOnUse" id="color-8-,0,0,1,-148.55323,13.37953"><stop offset="0" stop-color="#ffffff"/><stop offset="1" stop-color="#cccccc"/></linearGradient><radialGradient cx="60.9978" cy="224.6769" r="3.3961" gradientUnits="userSpaceOnUse" id="color-9-,0,0,1,-148.55323,13.37953"><stop offset="0" stop-color="#cccccc"/><stop offset="1" stop-color="#7f7f7f"/></radialGradient><radialGradient cx="58.1817" cy="226.8852" r="2.9347" gradientUnits="userSpaceOnUse" id="color-10-,0,0,1,-148.55323,13.37953"><stop offset="0" stop-color="#cccccc"/><stop offset="1" stop-color="#7f7f7f"/></radialGradient><radialGradient cx="55.9146" cy="230.3847" r="3.6409" gradientUnits="userSpaceOnUse" id="color-11-,0,0,1,-148.55323,13.37953"><stop offset="0" stop-color="#cccccc"/><stop offset="1" stop-color="#7f7f7f"/></radialGradient><radialGradient cx="56.6425" cy="234.4484" r="3.6409" gradientUnits="userSpaceOnUse" id="color-12-,0,0,1,-148.55323,13.37953"><stop offset="0" stop-color="#cccccc"/><stop offset="1" stop-color="#7f7f7f"/></radialGradient><radialGradient cx="58.6254" cy="238.6007" r="3.4234" gradientUnits="userSpaceOnUse" id="color-13-,0,0,1,-148.55323,13.37953"><stop offset="0" stop-color="#cccccc"/><stop offset="1" stop-color="#7f7f7f"/></radialGradient><radialGradient cx="59.047" cy="242.8898" r="3.1522" gradientUnits="userSpaceOnUse" id="color-14-,0,0,1,-148.55323,13.37953"><stop offset="0" stop-color="#cccccc"/><stop offset="1" stop-color="#7f7f7f"/></radialGradient><radialGradient cx="59.5755" cy="246.5471" r="3.6139" gradientUnits="userSpaceOnUse" id="color-15-,0,0,1,-148.55323,13.37953"><stop offset="0" stop-color="#cccccc"/><stop offset="1" stop-color="#7f7f7f"/></radialGradient><radialGradient cx="59.2387" cy="251.0597" r="3.3964" gradientUnits="userSpaceOnUse" id="color-16-,0,0,1,-148.55323,13.37953"><stop offset="0" stop-color="#cccccc"/><stop offset="1" stop-color="#7f7f7f"/></radialGradient><radialGradient cx="59.1613" cy="255.166" r="3.1789" gradientUnits="userSpaceOnUse" id="color-17-,0,0,1,-148.55323,13.37953"><stop offset="0" stop-color="#cccccc"/><stop offset="1" stop-color="#7f7f7f"/></radialGradient><radialGradient cx="60.138" cy="259.2719" r="3.8578" gradientUnits="userSpaceOnUse" id="color-18-,0,0,1,-148.55323,13.37953"><stop offset="0" stop-color="#cccccc"/><stop offset="1" stop-color="#7f7f7f"/></radialGradient><radialGradient cx="62.5356" cy="263.0751" r="3.4782" gradientUnits="userSpaceOnUse" id="color-19-,0,0,1,-148.55323,13.37953"><stop offset="0" stop-color="#cccccc"/><stop offset="1" stop-color="#7f7f7f"/></radialGradient><radialGradient cx="63.5471" cy="266.4942" r="3.8315" gradientUnits="userSpaceOnUse" id="color-20-,0,0,1,-148.55323,13.37953"><stop offset="0" stop-color="#cccccc"/><stop offset="1" stop-color="#7f7f7f"/></radialGradient><radialGradient cx="65.9479" cy="219.1084" r="5.7432" gradientUnits="userSpaceOnUse" id="color-21-,0,0,1,-148.55323,13.37953"><stop offset="0" stop-color="#cccccc"/><stop offset="1" stop-color="#7f7f7f"/></radialGradient><radialGradient cx="75.0875" cy="223.1278" r="3.3961" gradientUnits="userSpaceOnUse" id="color-22-,0,0,1,-148.55323,13.37953"><stop offset="0" stop-color="#cccccc"/><stop offset="1" stop-color="#7f7f7f"/></radialGradient><radialGradient cx="76.2243" cy="227.5625" r="3.3961" gradientUnits="userSpaceOnUse" id="color-23-,0,0,1,-148.55323,13.37953"><stop offset="0" stop-color="#cccccc"/><stop offset="1" stop-color="#7f7f7f"/></radialGradient><radialGradient cx="76.2142" cy="232.275" r="3.3961" gradientUnits="userSpaceOnUse" id="color-24-,0,0,1,-148.55323,13.37953"><stop offset="0" stop-color="#cccccc"/><stop offset="1" stop-color="#7f7f7f"/></radialGradient><radialGradient cx="75.3629" cy="237.3168" r="3.3961" gradientUnits="userSpaceOnUse" id="color-25-,0,0,1,-148.55323,13.37953"><stop offset="0" stop-color="#cccccc"/><stop offset="1" stop-color="#7f7f7f"/></radialGradient><radialGradient cx="74.7157" cy="242.0787" r="3.3961" gradientUnits="userSpaceOnUse" id="color-26-,0,0,1,-148.55323,13.37953"><stop offset="0" stop-color="#cccccc"/><stop offset="1" stop-color="#7f7f7f"/></radialGradient><radialGradient cx="73.5845" cy="246.9161" r="3.3961" gradientUnits="userSpaceOnUse" id="color-27-,0,0,1,-148.55323,13.37953"><stop offset="0" stop-color="#cccccc"/><stop offset="1" stop-color="#7f7f7f"/></radialGradient><radialGradient cx="72.1737" cy="251.5491" r="3.3961" gradientUnits="userSpaceOnUse" id="color-28-,0,0,1,-148.55323,13.37953"><stop offset="0" stop-color="#cccccc"/><stop offset="1" stop-color="#7f7f7f"/></radialGradient><radialGradient cx="71.1199" cy="255.9282" r="3.3961" gradientUnits="userSpaceOnUse" id="color-29-,0,0,1,-148.55323,13.37953"><stop offset="0" stop-color="#cccccc"/><stop offset="1" stop-color="#7f7f7f"/></radialGradient><radialGradient cx="69.836" cy="260.7399" r="3.3961" gradientUnits="userSpaceOnUse" id="color-30-,0,0,1,-148.55323,13.37953"><stop offset="0" stop-color="#cccccc"/><stop offset="1" stop-color="#7f7f7f"/></radialGradient><radialGradient cx="67.6352" cy="265.3967" r="3.3961" gradientUnits="userSpaceOnUse" id="color-31-,0,0,1,-148.55323,13.37953"><stop offset="0" stop-color="#cccccc"/><stop offset="1" stop-color="#7f7f7f"/></radialGradient><radialGradient cx="63.3644" cy="280.5003" r="3.4782" gradientUnits="userSpaceOnUse" id="color-32-,0,0,1,-148.55323,13.37953"><stop offset="0" stop-color="#cccccc"/><stop offset="1" stop-color="#7f7f7f"/></radialGradient><radialGradient cx="62.2605" cy="284.3479" r="3.8315" gradientUnits="userSpaceOnUse" id="color-33-,0,0,1,-148.55323,13.37953"><stop offset="0" stop-color="#cccccc"/><stop offset="1" stop-color="#7f7f7f"/></radialGradient><radialGradient cx="62.7454" cy="288.7702" r="3.3961" gradientUnits="userSpaceOnUse" id="color-34-,0,0,1,-148.55323,13.37953"><stop offset="0" stop-color="#cccccc"/><stop offset="1" stop-color="#7f7f7f"/></radialGradient><linearGradient x1="154.4943" y1="256.5061" x2="147.9186" y2="288.726" gradientUnits="userSpaceOnUse" id="color-35-,0,0,1,-148.55323,13.37953"><stop offset="0" stop-color="#ff0000"/><stop offset="1" stop-color="#ff0000" stop-opacity="0"/></linearGradient><linearGradient x1="148.8199" y1="255.3869" x2="154.5207" y2="256.3496" gradientUnits="userSpaceOnUse" id="color-36-,0,0,1,-148.55323,13.37953"><stop offset="0" stop-color="#ff0000"/><stop offset="1" stop-color="#ff0000" stop-opacity="0"/></linearGradient><linearGradient x1="117.5241" y1="221.9924" x2="101.0663" y2="218.7952" gradientUnits="userSpaceOnUse" id="color-37-,0,0,1,-148.55323,13.37953"><stop offset="0" stop-color="#7f7f7f"/><stop offset="1" stop-color="#b2b2b2"/></linearGradient><linearGradient x1="117.5056" y1="233.4247" x2="105.5885" y2="231.4123" gradientUnits="userSpaceOnUse" id="color-38-,0,0,1,-148.55323,13.37953"><stop offset="0" stop-color="#000000"/><stop offset="1" stop-color="#353935"/></linearGradient><linearGradient x1="95.3246" y1="229.679" x2="106.0194" y2="231.4851" gradientUnits="userSpaceOnUse" id="color-39-,0,0,1,-148.55323,13.37953"><stop offset="0" stop-color="#000000"/><stop offset="1" stop-color="#353935"/></linearGradient><radialGradient cx="83.6795" cy="220.9477" r="27.1996" gradientUnits="userSpaceOnUse" id="color-40-,0,0,1,-148.55323,13.37953"><stop offset="0" stop-color="#666666"/><stop offset="1" stop-color="#000000"/></radialGradient><radialGradient cx="80.5928" cy="229.5799" r="11.6887" gradientUnits="userSpaceOnUse" id="color-41-,0,0,1,-148.55323,13.37953"><stop offset="0" stop-color="#370000"/><stop offset="1" stop-color="#000000"/></radialGradient><radialGradient cx="85.1548" cy="234.2089" r="9.9698" gradientUnits="userSpaceOnUse" id="color-42-,0,0,1,-148.55323,13.37953"><stop offset="0" stop-color="#370000"/><stop offset="1" stop-color="#000000"/></radialGradient><radialGradient cx="80.5959" cy="222.7386" r="9.2248" gradientUnits="userSpaceOnUse" id="color-43-,0,0,1,-148.55323,13.37953"><stop offset="0" stop-color="#370000"/><stop offset="1" stop-color="#000000"/></radialGradient><radialGradient cx="90.2353" cy="228.9065" r="8.1126" gradientUnits="userSpaceOnUse" id="color-44-,0,0,1,-148.55323,13.37953"><stop offset="0" stop-color="#370000"/><stop offset="1" stop-color="#000000"/></radialGradient><radialGradient cx="87.2567" cy="222.48" r="6.1054" gradientUnits="userSpaceOnUse" id="color-45-,0,0,1,-148.55323,13.37953"><stop offset="0" stop-color="#370000"/><stop offset="1" stop-color="#000000"/></radialGradient><radialGradient cx="85.6125" cy="226.5893" r="2.978" gradientUnits="userSpaceOnUse" id="color-46-,0,0,1,-148.55323,13.37953"><stop offset="0" stop-color="#ff0000"/><stop offset="1" stop-color="#000000"/></radialGradient></defs><g><g data-paper-data="{&quot;isPaintingLayer&quot;:true}" fill-rule="nonzero" stroke-linejoin="miter" stroke-miterlimit="10" stroke-dasharray="" stroke-dashoffset="0" style="mix-blend-mode: normal"><path d="M 163.6654 133.848 L 166.03 97.7715 C 166.03 97.7715 190.576 102.486 218.3958 104.3093 C 250.677 106.4252 287.3154 110.897 299.9948 111.728 C 308.4472 112.282 313.321 124.8568 312.9626 130.324 C 312.6523 135.0587 312.8946 143.629 305.4176 143.1389 C 293.0998 142.3316 248.4081 141.4727 215.068 139.2874 C 187.1778 137.4594 163.6654 133.8479 163.6654 133.8479 Z " data-paper-data="{&quot;origRot&quot;:0}" fill="#ffffff" stroke="#000000" stroke-width="2.5" stroke-linecap="butt"/><path d="M 149.5766 332.804 C 158.1085 326.6091 180.4479 323.0776 180.5819 333.2386 C 180.9594 364.6922 170.0086 397.927 151.1923 423.0268 C 144.5386 431.9166 122.3916 424.2312 119.2101 413.5771 C 114.4741 396.5836 127.4395 382.1853 133.1842 367.07 C 137.757 355.0112 139.3751 339.9769 149.5767 332.804 Z " data-paper-data="{&quot;origRot&quot;:0}" fill="#ffffff" stroke="#000000" stroke-width="2.5" stroke-linecap="round"/><path d="M 94.3625 254.6296 L 133.2797 241.4965 C 133.2797 241.4965 151.3245 254.6177 161.5754 274.0748 C 169.3317 288.7971 181.1554 321.0193 181.1554 321.0193 L 142.2845 328.1906 C 142.2845 328.1906 120.9253 296.5718 115.3572 290.8602 C 98.6528 273.7256 94.3626 254.6296 94.3626 254.6296 Z " data-paper-data="{&quot;origRot&quot;:0}" fill="#ffffff" stroke="#000000" stroke-width="2.5" stroke-linecap="round"/><g data-paper-data="{&quot;origPos&quot;:null}"><path d="M 110.7644 436.4141 C 108.5482 435.466 110.2183 432.1832 110.4821 430.0609 C 112.2795 421.3498 113.6248 412.7128 116.1148 404.2348 C 117.8054 398.4856 122.0862 380.176 128.7909 372.5238 C 132.6863 368.078 128.4199 387.7239 133.8276 391.2801 C 143.7272 397.8137 157.8925 394.058 168.6507 398.794 C 171.3396 399.9763 164.3331 413.2191 166.7225 415.2815 C 172.0074 419.8331 181.6013 417.2468 186.0864 422.4552 C 189.0431 425.889 187.0357 432.0139 186.0712 436.6102 C 185.5216 439.224 183.9921 442.6074 183.9921 442.6074 C 183.9921 442.6074 119.6107 440.1883 110.7644 436.4141 Z " data-paper-data="{&quot;origPos&quot;:null}" fill="url(#color-1-,0,0,1,-148.55323,13.37953)" stroke-linecap="round" stroke-width="2.5" stroke="none"/><path d="M 111.1285 436.6077 C 107.9852 434.1991 111.696 426.7626 111.696 426.7626 C 111.696 426.7626 124.6872 430.5718 139.074 432.4073 C 154.9008 434.4264 186.4097 436.4053 186.4097 436.4053 C 186.4097 436.4053 185.4857 442.8485 182.6901 443.04 C 179.8944 443.2315 154.339 442.261 138.0467 440.1382 C 129.1604 438.9819 113.4236 438.3663 111.1286 436.6077 Z " data-paper-data="{&quot;origPos&quot;:null}" fill="url(#color-2-,0,0,1,-148.55323,13.37953)" stroke-linecap="round" stroke-width="2.5" stroke="none"/><g data-paper-data="{&quot;origPos&quot;:null}" stroke-linecap="butt"><g data-paper-data="{&quot;origPos&quot;:null}"><path d="M 120.9812 430.7547 C 120.9812 430.7547 126.3486 420.6587 128.322 413.8127 C 130.7216 405.4882 135.9032 392.6064 135.9032 392.6064 C 135.9032 392.6064 136.4514 392.6054 137.0003 392.8891 C 137.7766 393.2903 138.7464 394.3135 138.7464 394.3135 L 125.5711 431.5698 Z " data-paper-data="{&quot;origPos&quot;:null}" fill="url(#color-3-,0,0,1,-148.55323,13.37953)" stroke-width="2.5" stroke="none"/><path d="M 130.6043 411.7276 C 130.8887 411.8586 130.8275 412.1173 130.7989 412.2005 C 130.8497 412.4247 130.8959 412.6399 130.9053 412.8717 C 130.9957 415.0981 131.0226 415.772 129.2494 417.0609 C 128.1146 417.8634 129.8047 417.8719 129.3601 419.3155 C 129.2686 419.6127 128.1307 420.11 127.874 420.3591 C 126.3348 421.8105 128.4643 422.5836 126.7512 424.2462 C 125.6777 425.2583 123.9323 425.8812 125.4494 427.4444 C 125.7583 428.975 123.4062 429.3341 122.4558 430.2566 C 122.4558 430.2566 122.1857 430.5187 121.9236 430.2486 C 121.6615 429.9785 121.9315 429.7164 121.9315 429.7164 C 122.5617 429.1048 124.5622 427.9487 124.8725 427.9305 C 123.1137 426.0761 125.0205 424.9351 126.227 423.706 C 127.409 422.5589 125.8415 421.3556 127.3498 419.819 C 127.6649 419.5131 128.354 418.839 128.744 418.581 C 128.3206 418.2774 127.6537 417.3272 128.8068 416.4521 C 129.8304 415.708 130.2044 414.1667 130.1531 412.9023 C 130.1446 412.6911 130.1005 412.5243 130.0537 412.3182 L 130.1049 411.912 C 130.1049 411.912 130.2624 411.5702 130.6042 411.7277 Z " data-paper-data="{&quot;origPos&quot;:null,&quot;origRot&quot;:0}" fill="#000000" stroke-width="2.5" stroke="none"/><path d="M 130.6756 413.6182 C 130.3826 413.5075 130.4255 413.2452 130.4482 413.1602 C 130.3817 412.9401 130.3205 412.7286 130.2948 412.4981 C 130.048 410.2835 129.9736 409.6133 131.6518 408.2027 C 132.7273 407.3224 131.0408 407.4329 131.3827 405.9615 C 131.4531 405.6587 132.5532 405.0825 132.7917 404.8159 C 134.225 403.2599 132.0463 402.6386 133.6382 400.8595 C 134.6377 399.7743 136.3351 399.0302 134.7117 397.5776 C 134.2959 396.0725 136.6169 395.5488 137.5 394.5618 C 137.5 394.5618 137.751 394.2813 138.0314 394.5323 C 138.312 394.7833 138.0609 395.0637 138.0609 395.0637 C 137.4754 395.7182 135.5612 397.0121 135.2529 397.0522 C 137.1379 398.7782 135.3161 400.0505 134.1992 401.3615 C 133.1008 402.589 134.7491 403.6789 133.3526 405.3179 C 133.0598 405.6451 132.4198 406.3661 132.049 406.651 C 132.4927 406.924 133.2247 407.8249 132.1361 408.779 C 131.1673 409.5933 130.9028 411.1571 131.0429 412.4149 C 131.0663 412.6249 131.122 412.7882 131.1833 412.9904 L 131.1607 413.3992 C 131.1607 413.3992 131.0277 413.7513 130.6756 413.6182 Z " data-paper-data="{&quot;origPos&quot;:null,&quot;index&quot;:null}" fill="#000000" stroke-width="2.5" stroke="none"/></g><path d="M 129.7639 396.8274 L 136.0241 392.0135 L 138.504 393.3646 L 134.3875 399.6626 Z " data-paper-data="{&quot;origPos&quot;:null}" fill="#333333" stroke-width="2.5" stroke="none"/></g><g data-paper-data="{&quot;origPos&quot;:null}" stroke-linecap="butt"><path d="M 165.1605 413.8858 C 165.1562 413.9584 165.1441 414.0224 165.1259 414.0786 C 165.1825 414.1747 165.2231 414.3081 165.2304 414.4934 C 165.2591 415.2253 164.7101 415.3017 164.7101 415.3017 C 162.505 415.6086 160.1705 413.8456 158.0205 414.3654 C 157.9044 414.3815 157.7883 414.3977 157.6722 414.4138 L 157.108 414.3257 C 156.992 414.3313 156.8561 414.2935 156.747 414.1361 C 156.6694 414.0461 156.6053 413.9128 156.5949 413.7159 C 156.5689 413.5226 156.6057 413.3655 156.6635 413.2437 C 156.7403 413.0396 156.8663 412.9409 156.9797 412.8938 C 158.2199 412.1116 159.3631 411.2115 160.5563 410.344 C 160.1882 409.8482 159.8514 409.3361 159.5679 408.8089 L 159.0444 408.7086 C 158.7464 408.6514 158.5519 408.2789 158.61 407.8765 C 158.6472 407.6196 158.7783 407.4126 158.9458 407.3114 L 159.5008 406.9634 L 159.523 407.0332 C 159.9508 406.7914 160.5799 406.1709 161.2633 405.4978 C 160.8578 405.1442 160.4601 404.7646 160.0308 404.4953 L 160.03 404.4974 L 159.4087 404.1517 C 159.1791 404.032 159.0416 403.7075 159.0917 403.3607 C 159.1289 403.1038 159.26 402.8968 159.4275 402.7956 L 159.9825 402.4476 L 160.0644 402.7043 C 160.3963 402.2685 160.8218 401.8883 161.299 401.5572 C 160.7552 400.9404 160.2952 400.3266 160.0235 399.8063 C 160.3628 397.4748 164.6329 398 166.3806 399.6469 L 166.5608 399.6218 L 166.6874 399.2514 L 167.3087 399.597 C 167.5383 399.7167 167.6758 400.0413 167.6257 400.3881 C 167.5756 400.7349 167.3543 400.9906 167.1034 401.0182 C 166.9505 401.0395 166.6645 401.0793 166.4183 401.1136 C 166.2791 401.133 166.1526 401.1506 166.0701 401.162 C 165.4788 401.0909 164.5994 401.5482 163.6853 402.0737 C 164.2662 402.5802 164.8276 403.0005 165.2581 403.24 L 165.5635 403.41 C 165.7931 403.5296 165.9306 403.8542 165.8805 404.201 C 165.8224 404.6034 165.5337 404.8833 165.2357 404.8262 L 164.5716 404.6989 L 164.5766 404.6645 C 164.3127 404.922 164.016 405.185 163.7002 405.4481 C 166.3145 407.1725 165.9609 408.4471 162.769 410.4486 C 162.7264 410.4753 162.684 410.5021 162.6416 410.5291 C 163.4436 411.5436 164.1981 412.5644 164.6483 412.972 L 164.9479 413.2598 C 164.9479 413.2598 165.2042 413.1501 165.1605 413.8858 Z M 161.3846 411.3808 C 160.6661 411.8923 159.9652 412.4248 159.2592 412.9416 C 160.7386 413.1445 162.205 413.7892 163.686 413.8729 C 162.9625 413.1084 162.1456 412.2752 161.3847 411.3808 Z M 164.1538 407.4948 C 163.5946 407.1868 162.9436 406.6932 162.5045 406.3883 C 161.6942 406.9965 160.8689 407.5722 160.2107 408.0482 C 160.6487 408.2543 161.2059 408.8104 161.7857 409.4837 C 161.97 409.3609 162.1565 409.24 162.3457 409.1213 C 162.8262 408.82 163.5483 408.0356 164.1538 407.4947 Z M 163.7084 400.3576 C 162.7886 400.2116 161.9042 399.925 161.3756 399.6175 C 161.6718 400.0262 162.0444 400.4625 162.4493 400.8889 C 162.8633 400.6859 163.2895 400.5098 163.7084 400.3576 Z M 163.3976 403.6002 C 163.0948 403.3471 162.7817 403.0671 162.4722 402.7723 C 161.8771 403.1018 161.3164 403.3713 160.8646 403.4454 C 161.3239 403.8132 161.7663 404.2267 162.2378 404.557 C 162.6381 404.1855 163.0339 403.8464 163.3976 403.6002 Z " data-paper-data="{&quot;origPos&quot;:null,&quot;origRot&quot;:0}" fill="url(#color-4-,0,0,1,-148.55323,13.37953)" stroke-width="2.5" stroke="none"/><path d="M 166.0934 417.2914 C 165.8592 417.3718 165.6766 417.3465 165.5374 417.2774 L 165.5645 417.309 C 162.5734 417.0498 159.6986 416.9428 156.8501 415.9626 C 152.3547 414.4158 156.8378 409.6357 157.0897 406.7278 C 157.5617 403.7807 158.4881 401.0994 158.7572 397.993 C 158.7572 397.993 158.8209 397.2586 159.5553 397.3223 C 160.2897 397.3859 160.2261 398.1203 160.2261 398.1203 C 160.0398 400.27 158.2221 405.1843 158.5586 406.8551 C 158.2975 409.868 154.5995 413.6291 157.3298 414.5685 C 160.0595 415.5078 162.8186 415.5912 165.6917 415.8401 L 166.5513 416.3548 C 166.5513 416.3548 166.7906 417.0521 166.0934 417.2914 Z " data-paper-data="{&quot;origPos&quot;:null}" fill="#1a1a1a" stroke-width="2.5" stroke="none"/></g></g><g data-paper-data="{&quot;origRot&quot;:0}" stroke-linecap="round"><path d="M 188.7703 327.2895 C 190.5961 334.4685 190.5655 345.6264 183.8069 349.1707 C 173.4919 354.8283 159.1235 354.2383 148.1481 349.1903 C 143.0079 346.7611 146.9975 337.8634 146.6171 332.1899 C 146.7308 327.4199 143.5143 320.7241 147.3526 317.9 C 155.0141 312.2649 166.1258 309.6738 175.0447 311.8052 C 182.1053 313.2984 187.0783 320.6484 188.7703 327.2895 Z " data-paper-data="{&quot;origPos&quot;:null}" fill="#666666" stroke="#000000" stroke-width="2.5"/><path d="M 187.8075 327.8115 C 189.2911 333.6445 189.2663 342.71 183.7751 345.5897 C 175.3944 350.186 163.7202 349.7067 154.8031 345.6056 C 150.6269 343.6319 153.8682 336.4025 153.559 331.7929 C 153.6515 327.9176 151.0382 322.4775 154.1565 320.1827 C 160.3815 315.6046 169.4093 313.4992 176.6558 315.2311 C 182.3924 316.4442 186.4329 322.416 187.8074 327.8115 Z " data-paper-data="{&quot;origPos&quot;:null}" fill="#ffffff" stroke="none" stroke-width="2.5"/></g><path d="M 60.0168 329.0279 C 68.6638 325.2073 87.5912 331.9209 86.1416 341.7866 C 81.9378 370.2703 66.6559 398.5228 45.6803 418.2192 C 37.4125 425.9765 14.0899 420.919 11.6968 410.1 C 8.3144 394.6973 24.3494 379.4845 32.6593 365.2501 C 40.0834 352.6068 45.9635 335.1662 60.0168 329.0279 Z " data-paper-data="{&quot;origRot&quot;:0}" fill="#ffffff" stroke="#000000" stroke-width="2.5" stroke-linecap="round"/><path d="M 67.5141 227.8363 C 67.5141 227.8363 109.2705 215.4084 112.7116 235.6686 C 116.1527 255.9289 104.5308 309.5852 86.4323 339.2222 C 80.6411 348.7012 58.9085 344.0939 53.2607 334.4615 C 46.5529 322.3616 53.131 311.4904 53.131 311.4904 C 53.131 311.4904 60.4223 281.3493 62.0295 269.1598 C 64.5953 250.1914 67.5141 227.8363 67.5141 227.8363 Z " data-paper-data="{&quot;origRot&quot;:0}" fill="#ffffff" stroke="#000000" stroke-width="2.5" stroke-linecap="round"/><g><path d="M 0.8916 439.2221 C -1.1918 437.8943 0.8618 427.6797 2.1274 423.6165 C 4.8854 414.7527 7.8042 405.3344 11.882 397.0532 C 15.9273 388.8402 19.4342 377.594 26.2195 373.9941 C 29.0026 372.5163 22.7025 387.4031 27.2982 389.9956 C 37.6036 395.8029 51.0556 390.4449 62.537 394.4902 C 65.4066 395.5008 58.1787 409.8121 60.1998 413.1884 C 62.5227 417.0288 69.6496 415.63 72.2455 419.3012 C 74.9462 423.12 74.209 428.3878 74.2232 432.9655 C 74.2018 435.2667 71.6966 439.4379 71.6966 439.4379 C 71.6966 439.4379 41.5481 440.9985 26.2194 440.3369 C 17.8589 439.9774 3.1686 440.6732 0.8916 439.2221 Z " data-paper-data="{&quot;origPos&quot;:null}" fill="url(#color-5-,0,0,1,-148.55323,13.37953)" stroke-linecap="round" stroke-width="2.5" stroke="none"/><path d="M 1.5188 439.2221 C -1.5997 437.2346 1.2532 430.017 1.2532 430.017 C 1.2532 430.017 13.6466 432.5137 27.1794 433.0616 C 42.0665 433.6644 74.0757 432.9655 74.0757 432.9655 C 74.0757 432.9655 72.3269 439.0343 69.7414 439.4379 C 67.1559 439.8414 42.1754 440.9985 26.8467 440.3369 C 18.4862 439.9774 3.7958 440.6732 1.5189 439.2221 Z " data-paper-data="{&quot;origPos&quot;:null}" fill="url(#color-6-,0,0,1,-148.55323,13.37953)" stroke-linecap="round" stroke-width="2.5" stroke="none"/><g data-paper-data="{&quot;origPos&quot;:null}" stroke-linecap="butt"><g data-paper-data="{&quot;origPos&quot;:null}"><path d="M 15.6311 432.7331 C 15.6311 432.7331 20.3965 421.531 21.8605 414.0882 C 23.6407 405.0379 27.9529 390.898 27.9529 390.898 C 27.9529 390.898 28.5343 390.8466 29.1426 391.0971 C 30.0029 391.4513 31.1256 392.4474 31.1256 392.4474 L 20.5746 433.1758 Z " data-paper-data="{&quot;origPos&quot;:null}" fill="url(#color-7-,0,0,1,-148.55323,13.37953)" stroke-width="2.5" stroke="none"/><path d="M 24.0896 411.6667 C 24.4034 411.7795 24.3622 412.0595 24.3395 412.1504 C 24.414 412.3835 24.4828 412.6076 24.5141 412.8526 C 24.8145 415.2059 24.9051 415.9181 23.1427 417.4483 C 22.0128 418.4037 23.8062 418.2574 23.4673 419.8295 C 23.3975 420.1531 22.2363 420.7852 21.9869 421.0731 C 20.4876 422.754 22.8175 423.3783 21.1532 425.2992 C 20.1076 426.4715 18.3135 427.2926 20.0663 428.8112 C 20.5346 430.4063 18.0728 431.0034 17.1495 432.0692 C 17.1495 432.0692 16.8871 432.372 16.5842 432.1096 C 16.2814 431.8472 16.5438 431.5444 16.5438 431.5444 C 17.1559 430.8377 19.1716 429.4277 19.4991 429.3797 C 17.4631 427.5744 19.3809 426.189 20.5475 424.7744 C 21.6958 423.449 19.9227 422.3168 21.3812 420.5483 C 21.6874 420.1949 22.3564 419.4165 22.7463 419.107 C 22.2693 418.8239 21.4746 417.8773 22.6173 416.8431 C 23.6347 415.9598 23.8897 414.2906 23.7191 412.9541 C 23.6906 412.7308 23.6285 412.558 23.5599 412.3437 L 23.577 411.9081 C 23.577 411.9081 23.7126 411.5311 24.0897 411.6667 Z " data-paper-data="{&quot;origPos&quot;:null,&quot;origRot&quot;:0}" fill="#000000" stroke-width="2.5" stroke="none"/><path d="M 24.339 413.6655 C 24.0181 413.5751 24.0395 413.2929 24.0557 413.2006 C 23.965 412.9733 23.8806 412.7546 23.8322 412.5125 C 23.3669 410.1861 23.2264 409.482 24.8768 407.8317 C 25.9367 406.7991 24.158 407.0712 24.3854 405.4792 C 24.4322 405.1515 25.5461 404.4392 25.7746 404.1346 C 27.1519 402.3523 24.7838 401.8935 26.3088 399.8602 C 27.2693 398.6173 29.0013 397.672 27.1459 396.2804 C 26.5666 394.7222 28.9802 393.9534 29.8263 392.8253 C 29.8263 392.8253 30.0667 392.5048 30.3873 392.7452 C 30.7079 392.9856 30.4674 393.3062 30.4674 393.3062 C 29.9065 394.0542 27.9951 395.6025 27.6717 395.6734 C 29.8297 397.331 28.0142 398.848 26.95 400.3411 C 25.8978 401.744 27.7462 402.7487 26.4157 404.6154 C 26.1352 404.9895 25.5226 405.813 25.1554 406.1492 C 25.6512 406.398 26.5105 407.2864 25.4435 408.3984 C 24.4907 409.3512 24.3538 411.0342 24.618 412.3554 C 24.6621 412.5761 24.7362 412.7441 24.8198 412.953 L 24.8334 413.3886 C 24.8334 413.3886 24.7246 413.7743 24.339 413.6656 Z " data-paper-data="{&quot;origPos&quot;:null,&quot;index&quot;:null}" fill="#000000" stroke-width="2.5" stroke="none"/></g><path d="M 21.8289 395.9394 L 28.0267 390.2581 L 30.7813 391.4632 L 26.9937 398.5218 Z " data-paper-data="{&quot;origPos&quot;:null}" fill="#333333" stroke-width="2.5" stroke="none"/></g><g data-paper-data="{&quot;origPos&quot;:null}" stroke-linecap="butt"><path d="M 59.978 412.5793 C 59.9801 412.6557 59.9733 412.7237 59.9593 412.7843 C 60.0273 412.8798 60.0819 413.0158 60.1063 413.2091 C 60.2028 413.9728 59.6349 414.1026 59.6349 414.1026 C 57.354 414.624 54.7498 412.9899 52.5459 413.7291 C 52.4258 413.7566 52.3057 413.784 52.1857 413.8114 L 51.5868 413.7704 C 51.466 413.7867 51.3202 413.7595 51.1917 413.6047 C 51.1023 413.5175 51.0231 413.3837 50.9944 413.1784 C 50.9495 412.9784 50.9739 412.8106 51.0234 412.6778 C 51.0853 412.4573 51.2083 412.3425 51.3227 412.2828 C 52.5503 411.3514 53.6655 410.3053 54.8361 409.2887 C 54.4058 408.803 54.0067 408.2974 53.6621 407.7711 L 53.1048 407.7136 C 52.7876 407.6808 52.5502 407.3084 52.5746 406.8818 C 52.5901 406.6094 52.7086 406.3808 52.8748 406.2596 L 53.4243 405.8449 L 53.4539 405.9159 C 53.8799 405.624 54.4823 404.9172 55.1368 404.1505 C 54.6801 403.817 54.2292 403.4556 53.7553 403.2127 L 53.7548 403.215 L 53.0729 402.9094 C 52.8216 402.805 52.6482 402.4776 52.6692 402.11 C 52.6848 401.8376 52.8032 401.609 52.9694 401.4878 L 53.5189 401.073 L 53.628 401.3345 C 53.936 400.8481 54.3469 400.4113 54.8166 400.0213 C 54.1913 399.425 53.6539 398.8241 53.3224 398.3039 C 53.4661 395.832 57.9846 395.9945 59.9638 397.5603 L 60.1502 397.5177 L 60.2491 397.1183 L 60.931 397.4239 C 61.1823 397.5284 61.3557 397.8557 61.3347 398.2233 C 61.3137 398.591 61.1052 398.8789 60.845 398.9305 C 60.6869 398.9666 60.3911 399.0343 60.1364 399.0925 C 59.9924 399.1254 59.8615 399.1553 59.7762 399.1748 C 59.1507 399.154 58.2714 399.7126 57.362 400.3457 C 58.0162 400.8232 58.6421 401.2124 59.1145 401.4241 L 59.4497 401.5743 C 59.701 401.6788 59.8744 402.0061 59.8534 402.3737 C 59.829 402.8004 59.5522 403.1196 59.235 403.0869 L 58.5281 403.0139 L 58.5302 402.9774 C 58.2772 403.271 57.9905 403.5731 57.6837 403.8774 C 60.5773 405.4457 60.3227 406.8122 57.1623 409.1975 C 57.1202 409.2292 57.0782 409.2612 57.0363 409.2932 C 57.9679 410.2827 58.8505 411.283 59.3589 411.669 L 59.6987 411.9432 C 59.6987 411.9432 59.957 411.8051 59.9781 412.5793 Z M 55.7973 410.299 C 55.0913 410.8997 54.4058 411.521 53.7134 412.126 C 55.2808 412.2042 56.8746 412.7463 58.4329 412.6995 C 57.606 411.9647 56.6751 411.1665 55.7973 410.299 Z M 58.3441 405.9791 C 57.7306 405.7074 57.0043 405.2496 56.5169 404.9703 C 55.7237 405.6806 54.9117 406.3582 54.2658 406.9163 C 54.7431 407.0924 55.377 407.6241 56.0451 408.2764 C 56.2269 408.1311 56.4112 407.9876 56.5985 407.8463 C 57.0743 407.4872 57.7592 406.6004 58.3441 405.9791 Z M 57.2303 398.5469 C 56.2541 398.4775 55.3021 398.2577 54.7207 397.9837 C 55.0679 398.3847 55.4975 398.8077 55.9601 399.2174 C 56.3752 398.9673 56.8055 398.7443 57.2303 398.5469 Z M 57.1991 401.97 C 56.859 401.7325 56.5058 401.4678 56.155 401.1872 C 55.5618 401.5862 54.9992 401.9192 54.5329 402.0378 C 55.0472 402.3811 55.548 402.774 56.0716 403.077 C 56.457 402.6518 56.8406 402.2609 57.1991 401.97 Z " data-paper-data="{&quot;origPos&quot;:null,&quot;origRot&quot;:0}" fill="#292929" stroke-width="2.5" stroke="none"/><path d="M 61.2636 416.0603 C 61.0256 416.1658 60.8322 416.1558 60.6802 416.0961 L 60.7114 416.1268 C 57.5562 416.1268 54.5365 416.2755 51.4652 415.5077 C 46.6182 414.2959 50.8784 408.8844 50.8784 405.817 C 51.1051 402.6885 51.8319 399.7971 51.8319 396.5203 C 51.8319 396.5203 51.8319 395.7456 52.6066 395.7456 C 53.3813 395.7456 53.3813 396.5203 53.3813 396.5203 C 53.3813 398.7879 51.924 404.0982 52.4278 405.817 C 52.4278 408.9952 48.8971 413.2686 51.841 414.0045 C 54.7842 414.7403 57.6806 414.5773 60.7114 414.5773 L 61.6581 415.0382 C 61.6581 415.0382 61.9719 415.7465 61.2636 416.0604 Z " data-paper-data="{&quot;origPos&quot;:null}" fill="#1a1a1a" stroke-width="2.5" stroke="none"/></g></g><g data-paper-data="{&quot;origRot&quot;:0}" stroke-linecap="round"><path d="M 91.5407 328.9214 C 91.8995 336.3201 89.6464 347.2482 82.3173 349.3748 C 71.0818 352.864 57.1189 349.4233 47.3695 342.2899 C 42.8161 338.885 48.4986 330.9605 49.2562 325.3251 C 50.3177 320.6734 48.4998 313.471 52.8238 311.4683 C 61.4546 307.4725 72.8595 307.1471 81.175 311.0127 C 87.7968 313.8828 91.2058 322.0762 91.5408 328.9213 Z " data-paper-data="{&quot;origPos&quot;:null}" fill="#666666" stroke="#000000" stroke-width="2.5"/><path d="M 89.8071 328.894 C 90.099 334.9056 88.2684 343.7844 82.3135 345.5124 C 73.1849 348.3472 61.8406 345.5516 53.9191 339.7557 C 50.2197 336.9894 54.7892 330.5433 55.452 325.9724 C 56.2676 322.1852 54.8287 316.3195 58.3507 314.7142 C 65.3567 311.5202 74.571 311.2013 81.3856 314.3441 C 86.6953 316.6667 89.5351 323.3326 89.8071 328.8941 Z " data-paper-data="{&quot;origPos&quot;:null}" fill="#ffffff" stroke="none" stroke-width="2.5"/></g><g data-paper-data="{&quot;origRot&quot;:0}"><path d="M 69.3334 227.6666 C 69.3334 227.6666 76.3671 193.2891 77.8609 170.9654 C 78.8923 155.5528 75.6378 113.3768 93.4997 84.5611 C 111.3615 55.7455 172.2066 79.1902 175.6645 97.3887 C 179.1224 115.5873 160.4859 170.8182 157.4795 183.363 C 152.1591 205.5638 145.7243 240.5668 145.7243 240.5668 Z " data-paper-data="{&quot;origPos&quot;:null}" fill="#000000" stroke="none" stroke-linecap="butt" stroke-width="2.5"/><path d="M 88.6418 95.0452 C 92.0203 86.2969 96.7206 76.4506 104.3156 79.2668 C 111.9107 82.083 121.8709 89.3313 125.9092 96.2926 C 128.4141 100.6283 125.8118 128.6561 119.4116 132.9086 C 113.652 137.0146 84.3254 132.8355 83.1486 128.042 C 80.6151 117.6233 84.3924 106.0487 88.6418 95.0453 Z " data-paper-data="{&quot;origPos&quot;:null,&quot;index&quot;:null}" fill="#ffffff" stroke="#000000" stroke-linecap="round" stroke-width="2.5"/><path d="M 169.743 143.5632 C 167.0574 147.7044 137.9847 142.0218 133.8929 136.252 C 129.2439 130.1337 135.9897 102.8056 139.7794 99.5328 C 145.8796 94.2837 157.6677 90.7081 165.7664 90.5421 C 173.8651 90.376 175.0714 101.2198 175.3898 110.5924 C 175.7903 122.3811 175.5573 134.5542 169.743 143.5632 Z " data-paper-data="{&quot;origPos&quot;:null}" fill="#ffffff" stroke="#000000" stroke-linecap="round" stroke-width="2.5"/><path d="M 162.6182 153.584 C 165.8802 160.9735 161.4243 169.8851 159.1787 177.674 C 157.4563 182.6441 155.6093 188.8912 150.9219 191.2078 C 146.3921 193.4662 122.7428 187.8635 119.3021 183.0397 C 116.3524 178.9934 121.7315 151.5131 127.5558 147.1916 C 132.4344 143.3328 160.2667 148.2654 162.6182 153.5841 Z " data-paper-data="{&quot;origPos&quot;:null}" fill="#ffffff" stroke="#000000" stroke-linecap="round" stroke-width="2.5"/><path d="M 118.7935 145.3753 C 121.2527 151.0799 117.0531 178.0145 112.2959 181.9914 C 108.5468 185.0605 83.7602 179.847 80.0115 174.9681 C 75.7266 169.3921 77.4005 160.9127 77.7642 153.8463 C 78.4411 147.5116 77.237 137.8737 83.0766 135.4153 C 90.7019 132.2088 117.2075 141.6473 118.7936 145.3754 Z " data-paper-data="{&quot;origPos&quot;:null}" fill="#ffffff" stroke="#000000" stroke-linecap="round" stroke-width="2.5"/><path d="M 136.3704 241.7962 L 70.9845 228.5545 L 78.4123 185.81 L 147.1092 199.2965 Z " data-paper-data="{&quot;origPos&quot;:null}" fill="url(#color-8-,0,0,1,-148.55323,13.37953)" stroke="#000000" stroke-linecap="round" stroke-width="2.5"/><g><path d="M 155.5563 101.2496 L 160.5674 102.3372 L 158.5533 109.9703 L 165.9135 111.455 L 165.1598 115.9183 L 157.7417 114.0616 L 153.8343 137.2004 L 149.1756 136.1723 L 153.4354 113.0927 L 145.9959 112.0781 L 146.6504 108.202 L 154.3629 109.7461 Z " stroke-linecap="round" stroke-width="2.5" fill="#000000" stroke="none"/><g stroke-linecap="butt"><path d="M 161.9442 138.0945 C 161.888 138.4272 161.7521 138.5564 161.5303 138.519 C 159.8907 138.3181 158.2577 138.0804 156.618 137.8795 C 156.5071 137.8608 156.4331 137.8483 156.3592 137.8358 C 156.4092 137.54 156.4096 137.312 156.4533 137.0532 C 156.4721 136.9423 156.608 136.8132 156.7189 136.8319 C 156.9902 136.8016 157.2552 136.8084 157.5635 136.7843 C 158.0629 136.7543 158.1556 136.6559 158.2367 136.1752 C 158.4116 135.14 158.6666 134.0799 158.8044 133.0384 C 159.0297 131.479 159.1874 129.8701 159.4127 128.3107 C 159.5625 127.4233 159.7801 126.5851 159.93 125.6977 C 160.0362 125.0689 160.1486 124.4034 160.2239 123.7316 C 160.0693 123.9717 159.9096 124.2103 159.7231 124.4456 C 158.9707 125.4211 158.2064 126.1689 157.4271 127.0055 C 156.7902 127.6956 156.0525 128.1015 155.4445 128.7245 C 154.9064 129.2795 154.3936 129.8331 153.8071 130.3117 C 153.3812 130.6547 153.0137 131.7052 152.6305 131.311 C 150.982 129.4333 150.4869 127.4075 149.3568 125.4718 C 148.6942 124.3074 147.901 123.1511 147.2435 121.996 C 147.079 121.7081 147.133 121.7492 147.1148 121.6321 L 147.0408 121.6196 C 146.916 122.3591 146.791 123.0988 146.6662 123.8383 C 146.4034 125.6195 146.1344 127.4378 145.8347 129.2128 C 145.6099 130.5438 145.3049 131.8997 145.043 133.2248 C 144.9869 133.5575 144.9677 133.8965 144.9484 134.2355 C 144.9417 134.5006 145.1385 134.6863 145.3911 134.7669 C 145.5696 134.8351 145.7176 134.8601 145.9024 134.8913 C 146.1612 134.935 146.1733 135.0892 146.1051 135.2678 C 146.0307 135.4834 145.9994 135.6683 145.9619 135.8901 C 145.9307 136.075 145.8198 136.0562 145.6719 136.0313 C 145.0372 135.9621 144.4021 135.8929 143.8104 135.793 C 143.1387 135.7176 142.5098 135.6114 141.8381 135.5359 C 141.6162 135.4985 141.5116 135.4428 141.5922 135.1902 C 141.6666 134.9746 141.6672 134.7465 141.6984 134.5617 C 141.7358 134.3398 141.8592 134.2846 142.0874 134.285 C 142.3894 134.298 142.6914 134.311 142.9693 134.2435 C 143.0496 134.219 143.1854 134.0898 143.1979 134.0159 C 143.3785 133.1718 143.5284 132.2841 143.709 131.4399 C 143.902 130.5219 144.1321 129.6097 144.3314 128.6547 C 144.3752 128.3955 144.4252 128.0997 144.4319 127.8347 C 144.4708 126.9286 144.6639 126.0102 144.8263 125.0489 C 145.0636 123.6436 145.2577 122.2691 145.4949 120.8641 C 145.5761 120.3832 145.6636 119.8655 145.7078 119.3787 C 145.69 119.0334 145.4931 118.8481 145.1601 118.7918 C 145.1231 118.7855 145.0861 118.7793 145.0861 118.7793 C 144.4269 118.6299 144.3472 118.4261 144.6013 117.8225 C 144.6138 117.7486 144.7804 117.6626 144.8543 117.6751 C 145.1502 117.7251 145.4459 117.775 145.742 117.825 C 146.6231 118.0119 147.517 118.1247 148.3674 118.2684 C 148.848 118.3495 148.8527 118.6342 149.0195 118.9109 C 149.8073 120.1511 150.1657 121.2516 150.7197 122.469 C 151.4998 123.9279 152.1882 125.4518 153.0253 126.9468 C 153.2349 127.3209 153.0108 127.2561 153.3581 127.0029 C 155.0004 125.8349 156.5945 124.5723 158.0423 123.3633 C 158.82 122.7165 159.3897 121.8312 160.1926 121.216 C 160.5471 120.9443 160.8043 120.5207 161.3962 120.6206 C 162.4252 120.8324 163.504 120.9765 164.533 121.1883 C 164.7549 121.2258 164.8101 121.3492 164.7727 121.571 C 164.6789 122.1259 164.6789 122.1259 164.0811 122.063 C 163.4896 121.9631 163.3297 121.7836 163.1798 122.6713 C 163.0549 123.4108 162.9363 124.1136 162.8483 124.8592 C 162.8046 125.118 162.7979 125.3831 162.7542 125.6419 C 162.5419 126.8992 162.3358 128.1196 162.1235 129.3768 C 161.8549 130.9669 161.5557 132.5139 161.2871 134.104 C 161.1373 134.9914 160.9504 135.8728 160.7574 136.7909 C 160.6762 137.2719 160.7559 137.4755 161.2303 137.5936 C 161.3782 137.6186 161.5136 137.7175 161.6677 137.7055 C 162.0129 137.6878 161.9755 137.9096 161.9443 138.0945 Z " stroke-width="2.5" fill="#000000" stroke="none"/></g></g><g><g><path d="M 63.0744 292.5576 C 63.0744 292.5576 63.2915 293.0848 63.3591 292.958 C 63.5496 292.5998 63.5516 292.0489 63.5904 291.5882 C 63.6104 291.3505 63.5343 291.1126 63.535 290.8742 C 63.5358 290.4079 63.6228 289.9408 63.5949 289.4754 C 63.5764 289.1645 63.4742 288.8629 63.397 288.5614 C 63.333 288.3111 63.2099 288.0741 63.1705 287.8185 C 63.097 287.3473 62.9798 286.8611 63.0593 286.3909 C 63.2624 285.1881 63.7107 284.0356 64.009 282.8528 C 64.0835 282.5571 64.0459 282.3851 64.1247 282.1677 C 64.2679 281.7718 64.5261 281.4227 64.6694 281.0268 C 64.7482 280.8095 64.73 280.5967 64.785 280.342 C 65.0053 279.3226 65.477 277.2885 65.477 277.2885 " fill="none" stroke="#7f7f7f" stroke-linecap="round" stroke-width="2.5"/><path d="M 64.8971 271.783 C 63.7275 270.7828 64.5691 265.6627 63.5053 262.845 C 62.9459 261.3598 60.6432 260.9188 60.2208 259.3892 C 59.1755 255.6038 59.4242 251.5552 59.3054 247.6302 C 59.2289 245.0723 60.0286 242.4784 59.6353 239.95 C 59.3918 238.3809 57.6936 237.2817 57.4501 235.7129 C 57.0568 233.1844 56.9092 230.4404 57.78 228.0324 C 58.2375 226.7654 59.978 226.4695 61.0767 225.688 C 62.1757 224.9065 63.4183 224.2945 64.3737 223.3437 C 65.3804 222.3418 65.6621 220.6158 66.8892 219.9006 C 68.0196 219.2423 69.5191 219.3777 70.8089 219.5955 C 72.099 219.8134 73.5595 220.1779 74.411 221.1708 C 75.3351 222.2493 75.2417 223.891 75.6564 225.249 C 76.0711 226.6072 76.8766 227.9077 76.9017 229.3274 C 76.9698 233.1511 76.5734 236.9984 75.9367 240.7688 C 75.5106 243.2921 74.5623 245.7122 73.7263 248.1315 C 73.2986 249.3689 72.4492 250.4593 72.151 251.7336 C 71.2828 255.4435 71.3417 259.3662 70.2458 263.0162 C 69.8381 264.3766 68.4707 265.2479 67.7302 266.4595 C 66.6845 268.1743 65.7421 272.5061 64.8972 271.783 Z " fill="none" stroke="#7f7f7f" stroke-linecap="round" stroke-width="2.5"/><path d="M 63.1611 224.4259 C 63.4251 224.7964 63.5474 225.2674 63.4657 225.7508 C 63.384 226.2345 63.1139 226.639 62.7429 226.9025 C 62.3725 227.1662 61.9017 227.2885 61.4181 227.2068 C 60.9347 227.1252 60.5299 226.855 60.2666 226.4844 C 60.0027 226.1136 59.8804 225.6429 59.9621 225.1592 C 60.0437 224.6758 60.3139 224.271 60.6848 224.0078 C 61.0553 223.7438 61.5263 223.6216 62.0097 223.7032 C 62.4934 223.7849 62.8979 224.055 63.1611 224.4259 Z " fill="url(#color-9-,0,0,1,-148.55323,13.37953)" stroke="none" stroke-linecap="butt" stroke-width="2.5"/><path d="M 59.6927 226.3544 C 59.9567 226.7249 60.0789 227.1959 59.9972 227.6793 C 59.9156 228.163 59.6455 228.5675 59.2745 228.831 C 58.9041 229.0947 58.4333 229.217 57.9496 229.1353 C 57.4662 229.0537 57.0615 228.7835 56.7982 228.4129 C 56.5342 228.0421 56.412 227.5714 56.4937 227.0877 C 56.5753 226.6043 56.8454 226.1995 57.2164 225.9363 C 57.5868 225.6723 58.0578 225.5501 58.5413 225.6317 C 59.025 225.7134 59.4294 225.9835 59.6927 226.3544 Z " fill="url(#color-10-,0,0,1,-148.55323,13.37953)" stroke="none" stroke-linecap="butt" stroke-width="2.5"/><path d="M 58.2322 230.3505 C 58.4962 230.721 58.6184 231.192 58.5367 231.6754 C 58.455 232.1591 58.185 232.5635 57.8139 232.8271 C 57.4435 233.0908 56.9728 233.213 56.4891 233.1313 C 56.0057 233.0497 55.601 232.7796 55.3377 232.409 C 55.0737 232.0382 54.9514 231.5675 55.0331 231.0837 C 55.1148 230.6003 55.3849 230.1956 55.7558 229.9323 C 56.1263 229.6684 56.5973 229.5461 57.0807 229.6278 C 57.5644 229.7095 57.9689 229.9796 58.2321 230.3505 Z " fill="url(#color-11-,0,0,1,-148.55323,13.37953)" stroke="none" stroke-linecap="butt" stroke-width="2.5"/><path d="M 58.9882 234.2494 C 59.2521 234.6199 59.3744 235.0909 59.2927 235.5743 C 59.211 236.058 58.9409 236.4625 58.5699 236.726 C 58.1995 236.9897 57.7287 237.112 57.2451 237.0303 C 56.7617 236.9487 56.3569 236.6785 56.0936 236.3079 C 55.8297 235.9371 55.7074 235.4664 55.7891 234.9827 C 55.8707 234.4993 56.1409 234.0945 56.5118 233.8313 C 56.8823 233.5673 57.3533 233.4451 57.8367 233.5267 C 58.3204 233.6084 58.7249 233.8785 58.9881 234.2494 Z " fill="url(#color-12-,0,0,1,-148.55323,13.37953)" stroke="none" stroke-linecap="butt" stroke-width="2.5"/><path d="M 60.8649 238.0235 C 61.1289 238.3939 61.2511 238.865 61.1694 239.3484 C 61.0878 239.8321 60.8177 240.2365 60.4466 240.5001 C 60.0763 240.7638 59.6055 240.886 59.1218 240.8043 C 58.6384 240.7227 58.2337 240.4526 57.9704 240.0819 C 57.7064 239.7111 57.5842 239.2404 57.6659 238.7567 C 57.7475 238.2733 58.0176 237.8686 58.3885 237.6053 C 58.759 237.3413 59.23 237.2191 59.7135 237.3008 C 60.1972 237.3825 60.6016 237.6525 60.8649 238.0235 Z " fill="url(#color-13-,0,0,1,-148.55323,13.37953)" stroke="none" stroke-linecap="butt" stroke-width="2.5"/><path d="M 60.8806 242.5832 C 61.1446 242.9536 61.2668 243.4246 61.1851 243.9081 C 61.1035 244.3918 60.8334 244.7962 60.4624 245.0598 C 60.092 245.3234 59.6212 245.4457 59.1375 245.364 C 58.6541 245.2824 58.2494 245.0122 57.9861 244.6416 C 57.7221 244.2708 57.5999 243.8001 57.6816 243.3164 C 57.7632 242.833 58.0333 242.4283 58.4043 242.165 C 58.7747 241.901 59.2457 241.7788 59.7292 241.8605 C 60.2129 241.9421 60.6173 242.2122 60.8806 242.5832 Z " fill="url(#color-14-,0,0,1,-148.55323,13.37953)" stroke="none" stroke-linecap="butt" stroke-width="2.5"/><path d="M 60.9995 246.5317 C 61.2635 246.9021 61.3858 247.3731 61.3041 247.8566 C 61.2224 248.3403 60.9523 248.7447 60.5813 249.0083 C 60.2109 249.2719 59.7401 249.3942 59.2565 249.3125 C 58.7731 249.2309 58.3683 248.9607 58.105 248.5901 C 57.8411 248.2193 57.7188 247.7486 57.8005 247.2649 C 57.8821 246.7815 58.1523 246.3768 58.5232 246.1135 C 58.8937 245.8495 59.3647 245.7273 59.8481 245.809 C 60.3318 245.8906 60.7362 246.1607 60.9995 246.5317 Z " fill="url(#color-15-,0,0,1,-148.55323,13.37953)" stroke="none" stroke-linecap="butt" stroke-width="2.5"/><path d="M 61.041 250.9386 C 61.305 251.309 61.4272 251.78 61.3456 252.2635 C 61.2639 252.7472 60.9938 253.1516 60.6228 253.4152 C 60.2524 253.6788 59.7816 253.8011 59.298 253.7194 C 58.8146 253.6378 58.4098 253.3676 58.1465 252.997 C 57.8826 252.6262 57.7603 252.1555 57.842 251.6718 C 57.9236 251.1884 58.1937 250.7837 58.5647 250.5204 C 58.9352 250.2564 59.4062 250.1342 59.8896 250.2159 C 60.3733 250.2976 60.7777 250.5676 61.041 250.9386 Z " fill="url(#color-16-,0,0,1,-148.55323,13.37953)" stroke="none" stroke-linecap="butt" stroke-width="2.5"/><path d="M 61.1599 254.8871 C 61.4239 255.2576 61.5461 255.7286 61.4645 256.2121 C 61.3828 256.6958 61.1127 257.1002 60.7417 257.3638 C 60.3713 257.6274 59.9005 257.7497 59.4169 257.668 C 58.9335 257.5864 58.5287 257.3162 58.2654 256.9456 C 58.0015 256.5748 57.8792 256.1041 57.9609 255.6204 C 58.0425 255.137 58.3126 254.7322 58.6836 254.469 C 59.0541 254.205 59.5251 254.0828 60.0085 254.1645 C 60.4922 254.2461 60.8966 254.5162 61.1599 254.8871 Z " fill="url(#color-17-,0,0,1,-148.55323,13.37953)" stroke="none" stroke-linecap="butt" stroke-width="2.5"/><path d="M 62.6798 258.9151 C 62.9438 259.2856 63.066 259.7566 62.9843 260.2401 C 62.9027 260.7238 62.6326 261.1282 62.2615 261.3918 C 61.8912 261.6554 61.4204 261.7777 60.9367 261.696 C 60.4533 261.6144 60.0486 261.3442 59.7853 260.9736 C 59.5213 260.6028 59.3991 260.1321 59.4808 259.6484 C 59.5624 259.165 59.8325 258.7602 60.2035 258.497 C 60.5739 258.233 61.0449 258.1108 61.5284 258.1925 C 62.0121 258.2741 62.4165 258.5442 62.6798 258.9151 Z " fill="url(#color-18-,0,0,1,-148.55323,13.37953)" stroke="none" stroke-linecap="butt" stroke-width="2.5"/><g stroke-linecap="butt"><path d="M 64.4865 262.2941 C 64.8684 262.5415 65.1556 262.9342 65.2579 263.414 C 65.3601 263.8936 65.2581 264.3691 65.0102 264.7506 C 64.7628 265.1325 64.3702 265.4194 63.8906 265.5217 C 63.4111 265.6239 62.9356 265.5219 62.554 265.2743 C 62.1721 265.0269 61.8849 264.6342 61.7826 264.1547 C 61.6804 263.6751 61.7825 263.1993 62.0304 262.8178 C 62.2778 262.4359 62.6704 262.149 63.1499 262.0467 C 63.6295 261.9445 64.105 262.0465 64.4866 262.2941 Z " fill="url(#color-19-,0,0,1,-148.55323,13.37953)" stroke-width="2.5" stroke="none"/><path d="M 65.2682 266.0404 C 65.6501 266.2878 65.9373 266.6804 66.0396 267.1603 C 66.1418 267.6399 66.0398 268.1154 65.7919 268.4969 C 65.5445 268.8788 65.1519 269.1657 64.6723 269.268 C 64.1928 269.3702 63.7173 269.2682 63.3357 269.0206 C 62.9538 268.7732 62.6666 268.3805 62.5643 267.901 C 62.4621 267.4214 62.5642 266.9456 62.8121 266.564 C 63.0595 266.1822 63.4521 265.8953 63.9316 265.793 C 64.4112 265.6908 64.8867 265.7928 65.2683 266.0404 Z " fill="url(#color-20-,0,0,1,-148.55323,13.37953)" stroke-width="2.5" stroke="none"/></g><path d="M 69.6064 218.6841 C 70.0528 219.3107 70.2596 220.1071 70.1215 220.9249 C 69.9835 221.7425 69.5266 222.4269 68.8992 222.8722 C 68.2726 223.3186 67.4762 223.5254 66.6585 223.3873 C 65.8408 223.2493 65.1568 222.7924 64.7112 222.1651 C 64.2651 221.5385 64.0583 220.7421 64.1963 219.9244 C 64.3344 219.1068 64.7913 218.4224 65.4183 217.9771 C 66.0452 217.5311 66.8413 217.3242 67.6589 217.4622 C 68.4766 217.6003 69.1609 218.0572 69.6063 218.6842 Z " fill="url(#color-21-,0,0,1,-148.55323,13.37953)" stroke="none" stroke-linecap="butt" stroke-width="2.5"/><path d="M 77.2509 222.8768 C 77.5149 223.2473 77.6371 223.7183 77.5554 224.2017 C 77.4738 224.6854 77.2037 225.0899 76.8326 225.3534 C 76.4623 225.6171 75.9915 225.7394 75.5078 225.6577 C 75.0244 225.576 74.6197 225.3059 74.3564 224.9353 C 74.0924 224.5645 73.9702 224.0938 74.0519 223.6101 C 74.1335 223.1267 74.4036 222.7219 74.7745 222.4587 C 75.145 222.1947 75.616 222.0724 76.0995 222.1541 C 76.5832 222.2358 76.9876 222.5059 77.2509 222.8768 Z " fill="url(#color-22-,0,0,1,-148.55323,13.37953)" stroke="none" stroke-linecap="butt" stroke-width="2.5"/><path d="M 78.3877 227.3114 C 78.6517 227.6819 78.7739 228.1529 78.6922 228.6363 C 78.6105 229.12 78.3405 229.5245 77.9694 229.788 C 77.5991 230.0517 77.1283 230.174 76.6446 230.0923 C 76.1612 230.0107 75.7565 229.7405 75.4932 229.3699 C 75.2292 228.9991 75.1069 228.5284 75.1886 228.0447 C 75.2703 227.5613 75.5404 227.1565 75.9113 226.8933 C 76.2818 226.6293 76.7528 226.5071 77.2362 226.5887 C 77.7199 226.6704 78.1244 226.9405 78.3876 227.3114 Z " fill="url(#color-23-,0,0,1,-148.55323,13.37953)" stroke="none" stroke-linecap="butt" stroke-width="2.5"/><path d="M 78.3776 232.0239 C 78.6416 232.3944 78.7638 232.8654 78.6822 233.3488 C 78.6005 233.8325 78.3304 234.237 77.9594 234.5005 C 77.589 234.7642 77.1182 234.8865 76.6345 234.8047 C 76.1512 234.7231 75.7464 234.453 75.4831 234.0824 C 75.2192 233.7116 75.0969 233.2409 75.1786 232.7571 C 75.2602 232.2738 75.5303 231.869 75.9013 231.6058 C 76.2717 231.3418 76.7428 231.2195 77.2262 231.3012 C 77.7099 231.3829 78.1143 231.653 78.3776 232.0239 Z " fill="url(#color-24-,0,0,1,-148.55323,13.37953)" stroke="none" stroke-linecap="butt" stroke-width="2.5"/><path d="M 77.5262 237.0658 C 77.7901 237.4362 77.9124 237.9073 77.8307 238.3907 C 77.749 238.8744 77.4789 239.2788 77.1079 239.5424 C 76.7375 239.8061 76.2668 239.9283 75.7831 239.8466 C 75.2997 239.765 74.8949 239.4949 74.6316 239.1242 C 74.3677 238.7534 74.2454 238.2827 74.3271 237.799 C 74.4087 237.3156 74.6789 236.9109 75.0498 236.6476 C 75.4203 236.3836 75.8913 236.2614 76.3747 236.3431 C 76.8584 236.4248 77.2629 236.6948 77.5261 237.0658 Z " fill="url(#color-25-,0,0,1,-148.55323,13.37953)" stroke="none" stroke-linecap="butt" stroke-width="2.5"/><path d="M 76.879 241.8278 C 77.143 242.1982 77.2653 242.6692 77.1836 243.1527 C 77.1019 243.6364 76.8318 244.0408 76.4608 244.3044 C 76.0904 244.568 75.6196 244.6903 75.136 244.6086 C 74.6526 244.527 74.2478 244.2568 73.9845 243.8862 C 73.7206 243.5154 73.5983 243.0447 73.68 242.561 C 73.7616 242.0776 74.0318 241.6729 74.4027 241.4096 C 74.7732 241.1456 75.2442 241.0234 75.7276 241.1051 C 76.2113 241.1867 76.6157 241.4568 76.879 241.8278 Z " fill="url(#color-26-,0,0,1,-148.55323,13.37953)" stroke="none" stroke-linecap="butt" stroke-width="2.5"/><path d="M 75.7481 246.6652 C 76.0121 247.0357 76.1343 247.5067 76.0526 247.9901 C 75.971 248.4738 75.7009 248.8782 75.3299 249.1418 C 74.9595 249.4055 74.4887 249.5277 74.005 249.446 C 73.5216 249.3644 73.1169 249.0943 72.8536 248.7236 C 72.5897 248.3529 72.4674 247.8822 72.5491 247.3984 C 72.6307 246.915 72.9008 246.5103 73.2718 246.247 C 73.6422 245.983 74.1132 245.8608 74.5967 245.9425 C 75.0804 246.0242 75.4848 246.2943 75.7481 246.6652 Z " fill="url(#color-27-,0,0,1,-148.55323,13.37953)" stroke="none" stroke-linecap="butt" stroke-width="2.5"/><path d="M 74.3371 251.2982 C 74.6011 251.6687 74.7233 252.1397 74.6416 252.6231 C 74.56 253.1068 74.2899 253.5113 73.9188 253.7748 C 73.5485 254.0385 73.0777 254.1608 72.594 254.079 C 72.1106 253.9974 71.7059 253.7273 71.4426 253.3567 C 71.1786 252.9859 71.0564 252.5152 71.1381 252.0314 C 71.2197 251.5481 71.4898 251.1433 71.8607 250.88 C 72.2312 250.6161 72.7022 250.4938 73.1857 250.5755 C 73.6694 250.6572 74.0738 250.9273 74.3371 251.2982 Z " fill="url(#color-28-,0,0,1,-148.55323,13.37953)" stroke="none" stroke-linecap="butt" stroke-width="2.5"/><path d="M 73.2832 255.6772 C 73.5472 256.0477 73.6695 256.5187 73.5878 257.0022 C 73.5061 257.4859 73.236 257.8903 72.865 258.1539 C 72.4946 258.4175 72.0238 258.5398 71.5402 258.4581 C 71.0568 258.3765 70.652 258.1063 70.3887 257.7357 C 70.1248 257.3649 70.0025 256.8942 70.0842 256.4105 C 70.1658 255.9271 70.436 255.5223 70.8069 255.2591 C 71.1774 254.9951 71.6484 254.8729 72.1318 254.9546 C 72.6155 255.0362 73.02 255.3063 73.2832 255.6772 Z " fill="url(#color-29-,0,0,1,-148.55323,13.37953)" stroke="none" stroke-linecap="butt" stroke-width="2.5"/><path d="M 71.9994 260.4889 C 72.2633 260.8594 72.3856 261.3304 72.3039 261.8139 C 72.2222 262.2976 71.9521 262.702 71.5811 262.9656 C 71.2107 263.2292 70.7399 263.3515 70.2563 263.2698 C 69.7729 263.1882 69.3681 262.918 69.1048 262.5474 C 68.8409 262.1766 68.7186 261.7059 68.8003 261.2222 C 68.8819 260.7388 69.1521 260.334 69.523 260.0708 C 69.8935 259.8068 70.3645 259.6846 70.8479 259.7663 C 71.3316 259.8479 71.7361 260.118 71.9993 260.4889 Z " fill="url(#color-30-,0,0,1,-148.55323,13.37953)" stroke="none" stroke-linecap="butt" stroke-width="2.5"/><path d="M 69.7986 265.1457 C 70.0626 265.5162 70.1848 265.9872 70.1032 266.4706 C 70.0215 266.9543 69.7514 267.3587 69.3804 267.6223 C 69.01 267.886 68.5392 268.0082 68.0556 267.9265 C 67.5722 267.8449 67.1674 267.5748 66.9041 267.2042 C 66.6402 266.8334 66.5179 266.3627 66.5996 265.8789 C 66.6812 265.3955 66.9513 264.9908 67.3223 264.7275 C 67.6927 264.4635 68.1638 264.3413 68.6472 264.423 C 69.1309 264.5047 69.5353 264.7748 69.7986 265.1457 Z " fill="url(#color-31-,0,0,1,-148.55323,13.37953)" stroke="none" stroke-linecap="butt" stroke-width="2.5"/><path d="M 68.4872 271.662 C 69.0099 272.6271 69.2237 273.8738 69.0042 275.173 C 68.7847 276.4726 68.1735 277.5799 67.3628 278.3199 C 66.5524 279.0596 65.5433 279.4319 64.5273 279.2604 C 63.5116 279.0888 62.6804 278.4057 62.1579 277.441 C 61.6354 276.4759 61.4216 275.2292 61.6411 273.9297 C 61.8605 272.6304 62.4718 271.5231 63.2822 270.7831 C 64.0926 270.0431 65.1021 269.6708 66.1178 269.8423 C 67.1338 270.0139 67.9647 270.697 68.4872 271.662 Z " fill="#b2b2b2" stroke="none" stroke-linecap="butt" stroke-width="2.5"/><path d="M 65.3153 279.7193 C 65.6972 279.9667 65.9844 280.3593 66.0867 280.8392 C 66.1889 281.3188 66.0869 281.7943 65.839 282.1758 C 65.5916 282.5577 65.199 282.8446 64.7194 282.9469 C 64.2399 283.0491 63.7643 282.9471 63.3828 282.6995 C 63.0009 282.4521 62.7137 282.0594 62.6114 281.5799 C 62.5092 281.1003 62.6113 280.6245 62.8592 280.243 C 63.1066 279.8611 63.4992 279.5742 63.9787 279.4719 C 64.4583 279.3697 64.9338 279.4717 65.3154 279.7193 Z " fill="url(#color-32-,0,0,1,-148.55323,13.37953)" stroke="none" stroke-linecap="butt" stroke-width="2.5"/><path d="M 63.9817 283.8941 C 64.3636 284.1415 64.6508 284.5341 64.753 285.014 C 64.8553 285.4935 64.7533 285.9691 64.5053 286.3506 C 64.2579 286.7325 63.8653 287.0194 63.3858 287.1216 C 62.9062 287.2239 62.4307 287.1219 62.0491 286.8742 C 61.6673 286.6268 61.38 286.2342 61.2778 285.7546 C 61.1755 285.2751 61.2776 284.7992 61.5255 284.4177 C 61.7729 284.0358 62.1655 283.7489 62.6451 283.6467 C 63.1246 283.5444 63.6002 283.6464 63.9817 283.8941 Z " fill="url(#color-33-,0,0,1,-148.55323,13.37953)" stroke="none" stroke-linecap="butt" stroke-width="2.5"/><path d="M 64.9087 288.5193 C 65.1727 288.8898 65.295 289.3608 65.2133 289.8442 C 65.1316 290.3279 64.8615 290.7324 64.4905 290.9959 C 64.1201 291.2596 63.6493 291.3819 63.1657 291.3002 C 62.6823 291.2185 62.2775 290.9484 62.0142 290.5778 C 61.7503 290.207 61.628 289.7363 61.7097 289.2526 C 61.7913 288.7692 62.0615 288.3644 62.4324 288.1012 C 62.8029 287.8372 63.2739 287.7149 63.7573 287.7966 C 64.241 287.8783 64.6455 288.1484 64.9087 288.5193 Z " fill="url(#color-34-,0,0,1,-148.55323,13.37953)" stroke="none" stroke-linecap="butt" stroke-width="2.5"/><path d="M 65.1801 295.7313 L 68.4916 295.9382 L 67.7132 299.5055 L 64.7443 299.3564 L 62.5245 309.3728 L 58.5858 308.7076 L 59.7204 298.86 L 55.6395 297.9949 L 56.4182 294.4277 L 60.3566 295.0928 L 60.935 291.6681 L 65.5585 292.4488 Z " fill="#b2b2b2" stroke="none" stroke-linecap="round" stroke-width="2.5"/><path d="M 62.502 294.3109 L 61.0761 306.9272 " fill="none" stroke="#7f7f7f" stroke-linecap="round" stroke-width="2.5"/><path d="M 64.9505 297.5423 L 58.9861 296.3588 " fill="none" stroke="#7f7f7f" stroke-linecap="round" stroke-width="2.5"/></g><path d="M 141.3689 250.9686 L 67.379 235.0168 L 69.2149 222.2843 L 141.5282 236.0673 Z " fill="#000000" stroke="none" stroke-linecap="round" stroke-width="2.5"/><g><g><g><path d="M 152.2556 246.0429 L 159.5931 240.7346 L 151.3478 279.3346 L 143.6717 271.8819 L 146.1148 243.6858 Z " fill="#363a37" stroke="none" stroke-linecap="round" stroke-width="2.5"/><path d="M 153.959 225.0762 L 150.7117 240.9872 L 130.5794 231.3541 L 135.7828 203.8263 Z " fill="#000000" stroke="none" stroke-linecap="round" stroke-width="2.5"/><path d="M 154.4943 256.5061 L 147.9187 288.726 L 143.347 287.793 L 149.9223 255.5731 Z " fill="url(#color-35-,0,0,1,-148.55323,13.37953)" stroke="url(#color-36-,0,0,1,-148.55323,13.37953)" stroke-linecap="round" stroke-width="2.5"/><path d="M 169.8873 238.3831 C 169.6821 239.388 169.2739 240.255 168.7791 240.8419 C 168.2843 241.4287 167.7027 241.7352 167.1543 241.6234 C 166.6057 241.5113 166.1909 241.0013 165.9656 240.2678 C 165.74 239.5339 165.7044 238.5762 165.9097 237.5713 C 166.1146 236.5662 166.5228 235.6993 167.0176 235.1124 C 167.5124 234.5256 168.094 234.2187 168.6426 234.3309 C 169.191 234.4427 169.6059 234.9527 169.8314 235.6866 C 170.0566 236.4204 170.0923 237.378 169.8873 238.3831 Z " fill="#ff0000" stroke="none" stroke-linecap="butt" stroke-width="2.5"/><path d="M 160.8738 201.5145 L 167.3873 212.2357 L 165.2954 224.5151 L 170.6804 218.4322 L 167.6308 231.345 L 162.5083 238.1722 L 160.1543 249.7077 L 152.5235 260.0282 L 142.0787 257.068 L 148.0125 212.425 Z " fill="#000000" stroke="none" stroke-linecap="round" stroke-width="2.5"/><path d="M 175.0323 215.4562 L 170.2669 239.4825 L 169.1413 235.5237 L 167.2311 235.4101 L 165.0419 238.6923 L 169.9936 214.4281 Z " fill="#000000" stroke="none" stroke-linecap="round" stroke-width="2.5"/></g><path d="M 140.1755 305.5207 L 140.1755 305.5207 L 140.1922 305.3196 L 140.1922 305.3196 Z " fill="#cccccc" stroke="none" stroke-linecap="butt" stroke-width="2.5"/></g><path d="M 155.6473 292.0359 L 137.1886 287.8188 L 133.2567 268.2982 L 133.7402 232.8665 L 164.1099 241.9235 Z " fill="#353935" stroke="none" stroke-linecap="round" stroke-width="2.5"/></g><g stroke-linecap="butt"><path d="M 131.0471 253.4683 L 117.2967 251.1463 L 121.4247 226.7012 L 135.1751 229.0232 Z " fill="#cccc00" stroke="#000000" stroke-width="2.5"/><path d="M 125.7573 230.2078 C 126.0442 230.6114 126.1771 231.1273 126.0884 231.6529 C 125.9996 232.1784 125.7047 232.6221 125.3011 232.9091 C 124.8975 233.196 124.3817 233.3289 123.8561 233.2402 C 123.3305 233.1514 122.8868 232.8565 122.5999 232.4529 C 122.3129 232.0493 122.18 231.5334 122.2688 231.0078 C 122.3575 230.4823 122.6524 230.0386 123.056 229.7517 C 123.4596 229.4647 123.9755 229.3318 124.5011 229.4206 C 125.0267 229.5093 125.4703 229.8042 125.7573 230.2078 Z " fill="#ff0000" stroke="none" stroke-width="2.5"/></g><g><path d="M 109.5529 263.0245 L 93.0952 259.8269 L 101.0664 218.7951 L 117.5242 221.9924 Z " fill="url(#color-37-,0,0,1,-148.55323,13.37953)" stroke-linecap="butt" stroke-width="2.5" stroke="none"/><path d="M 110.5876 264.0062 L 99.0732 265.4701 L 91.5343 260.9216 L 92.0016 257.3115 L 111.1648 261.0344 Z " fill="#666666" stroke-linecap="round" stroke-width="2.5" stroke="none"/><path d="M 107.874 260.8264 L 106.296 260.52 L 113.7418 222.1935 L 115.3199 222.5002 Z " fill="#666666" stroke-linecap="butt" stroke-width="2.5" stroke="none"/><path d="M 104.4924 260.1694 L 103.1398 259.9068 L 110.6731 221.1293 L 112.0257 221.3923 Z " fill="#666666" stroke-linecap="butt" stroke-width="2.5" stroke="none"/><path d="M 118.1242 216.4134 C 119.4862 217.1067 120.3695 218.9272 120.0323 220.2936 C 119.7503 221.4384 118.5873 221.8582 116.6929 222.1257 C 114.7985 222.3932 112.2738 222.2955 109.568 221.7698 C 106.8625 221.2444 104.4848 220.3894 102.8284 219.4321 C 101.1719 218.4751 100.2365 217.4164 100.418 216.4832 C 100.5993 215.5495 101.8631 214.9182 103.7571 214.6507 C 105.6514 214.3835 108.4985 214.7298 110.882 215.0066 C 113.339 215.2919 116.0393 215.1147 118.1242 216.4134 Z " fill="#b2b2b2" stroke-linecap="round" stroke-width="2.5" stroke="none"/><path d="M 95.6997 258.4615 L 94.3472 258.1985 L 101.7927 219.872 L 103.1456 220.1351 Z " fill="#666666" stroke-linecap="butt" stroke-width="2.5" stroke="none"/><path d="M 94.1908 221.6707 L 94.1908 221.6707 L 94.2345 221.4452 L 94.2345 221.4452 Z " fill="#666666" stroke-linecap="butt" stroke-width="2.5" stroke="none"/><path d="M 118.5261 224.0589 L 99.3629 220.3359 L 100.0638 216.7288 L 118.1874 219.7815 L 118.1113 214.1519 L 122.4709 220.614 Z " fill="#666666" stroke-linecap="round" stroke-width="2.5" stroke="none"/><path d="M 104.6653 246.1476 L 98.3527 244.9212 L 100.5426 233.649 L 106.8552 234.8753 Z " fill="#000000" stroke-linecap="butt" stroke-width="2.5" stroke="none"/><path d="M 103.5066 237.6148 C 103.8122 238.2242 103.9223 239.0055 103.7653 239.8144 C 103.6082 240.6235 103.2134 241.3068 102.7017 241.7575 C 102.1911 242.2096 101.5636 242.4283 100.9413 242.3074 C 100.319 242.1866 99.8194 241.7487 99.5148 241.1385 C 99.2093 240.5287 99.0992 239.7474 99.2562 238.9385 C 99.4135 238.1298 99.8082 237.4466 100.3197 236.9955 C 100.8304 236.5434 101.4579 236.3246 102.0801 236.4458 C 102.7024 236.5666 103.2023 237.0043 103.5065 237.6147 Z " fill="#ff0000" stroke-linecap="butt" stroke-width="2.5" stroke="none"/><path d="M 74.2987 234.4173 C 74.3598 234.4292 74.3979 234.4365 74.3979 234.4365 C 74.3979 234.4365 74.3599 234.4292 74.2987 234.4173 C 74.2373 234.4054 74.1526 234.3889 74.0598 234.371 C 73.9667 234.3527 73.8821 234.3362 73.8207 234.3246 C 73.7596 234.3127 73.7215 234.3053 73.7215 234.3053 C 73.7215 234.3053 73.7595 234.3127 73.8207 234.3246 C 73.8822 234.3362 73.9668 234.3527 74.0598 234.371 C 74.1527 234.3888 74.2373 234.4053 74.2987 234.4173 Z " fill="#ff0000" stroke-linecap="butt" stroke-width="2.5" stroke="none"/></g><g stroke-linecap="butt"><path d="M 115.8286 243.3556 L 103.9117 241.3432 L 105.5887 231.4124 L 117.5056 233.4248 Z " fill="url(#color-38-,0,0,1,-148.55323,13.37953)" stroke-width="2.5" stroke="none"/><path d="M 95.3246 229.679 L 106.0194 231.485 L 104.3423 241.4158 L 93.6476 239.6098 Z " fill="url(#color-39-,0,0,1,-148.55323,13.37953)" stroke-width="2.5" stroke="none"/></g><g stroke-linecap="butt"><g><path d="M 93.4931 222.7459 C 95.3918 225.4161 96.2729 228.8092 95.685 232.2905 C 95.0972 235.7718 93.1506 238.6873 90.4805 240.5856 C 87.8104 242.4843 84.4173 243.3654 80.936 242.7775 C 77.4547 242.1897 74.5392 240.2431 72.6409 237.573 C 70.7422 234.9032 69.861 231.5101 70.4489 228.0288 C 71.0368 224.5475 72.9833 221.632 75.6535 219.7334 C 78.3233 217.835 81.7164 216.9538 85.1976 217.5417 C 88.6789 218.1296 91.5944 220.0761 93.4931 222.746 Z " fill="#000000" stroke-width="2.5" stroke="none"/><path d="M 71.2418 228.0636 C 72.3114 221.7302 78.5147 217.4973 85.0977 218.609 C 91.6808 219.7207 95.6898 225.7335 94.6203 232.0666 C 93.5507 238.4003 87.8071 242.6555 81.2244 241.5439 C 74.6416 240.4323 70.1723 234.397 71.2418 228.0637 Z " fill="url(#color-40-,0,0,1,-148.55323,13.37953)" stroke-width="2.5" stroke="none"/><path d="M 86.9577 223.7869 C 87.4064 224.0572 89.3351 227.5379 89.4086 228.275 C 89.4824 229.0122 86.4226 231.4076 85.8138 231.5474 C 85.2054 231.687 81.4332 229.5911 81.1773 229.1038 C 80.9216 228.6169 81.2742 224.3073 81.7939 223.876 C 82.3142 223.445 86.5094 223.5167 86.9578 223.787 Z " fill="#000000" stroke-width="2.5" stroke="none"/><path d="M 76.578 235.3323 C 75.6662 236.1868 74.3813 237.76 73.2613 237.09 C 71.6392 236.113 70.5592 233.7863 70.8853 231.9221 C 71.1387 230.4717 73.2822 230.0414 74.7217 229.7948 C 76.6647 229.4626 81.9468 228.6174 80.5608 230.3076 Z " fill="url(#color-41-,0,0,1,-148.55323,13.37953)" stroke-width="2.5" stroke="none"/><path d="M 86.4345 242.2346 L 81.552 242.7181 C 80.6829 242.2162 81.1148 240.3733 81.6024 239.3152 C 82.4178 237.2784 83.4359 234.1212 85.311 233.7869 C 86.7285 233.537 87.793 236.5054 87.9478 238.1827 C 88.2106 239.6447 86.4345 242.2346 86.4345 242.2346 Z " fill="url(#color-42-,0,0,1,-148.55323,13.37953)" stroke-width="2.5" stroke="none"/><path d="M 72.0982 223.7725 L 76.8158 219.5476 C 77.7164 219.1485 78.9233 219.7624 79.5418 220.4878 C 80.4059 221.3525 81.723 223.0222 80.8338 223.8566 C 79.2891 225.3101 76.8013 225.2282 74.605 225.1954 C 73.6459 225.1818 72.0982 223.7724 72.0982 223.7724 Z " fill="url(#color-43-,0,0,1,-148.55323,13.37953)" stroke-width="2.5" stroke="none"/><path d="M 94.7171 227.0011 C 95.3152 229.495 94.901 232.3443 93.9754 234.7767 C 93.722 235.4395 92.6384 234.1742 92.1889 233.6589 C 91.1681 232.3472 89.6439 231.0688 89.6579 229.4114 C 89.6657 228.3043 91.3783 227.4495 92.2213 227.2814 Z " fill="url(#color-44-,0,0,1,-148.55323,13.37953)" stroke-width="2.5" stroke="none"/><path d="M 84.892 218.2754 L 88.3801 219.0036 L 91.0783 221.1338 C 91.0783 221.1338 90.8549 222.1573 90.4477 222.3372 C 89.3633 222.8181 87.8867 223.7309 86.7522 223.2239 C 85.5394 222.6639 85.078 221.0004 84.5526 219.7181 C 84.4042 219.244 84.892 218.2754 84.892 218.2754 Z " fill="url(#color-45-,0,0,1,-148.55323,13.37953)" stroke-width="2.5" stroke="none"/></g><path d="M 86.7128 225.9256 C 86.9845 226.3081 87.1108 226.7939 87.0265 227.2929 C 86.9423 227.7916 86.6635 228.209 86.2813 228.4811 C 85.8988 228.7528 85.413 228.8791 84.9143 228.7948 C 84.4153 228.7106 83.9979 228.4317 83.7259 228.0495 C 83.4541 227.6671 83.3282 227.1812 83.4124 226.6826 C 83.4967 226.1836 83.7752 225.7662 84.1574 225.4941 C 84.5399 225.2224 85.0257 225.0964 85.5247 225.1807 C 86.0233 225.2649 86.4408 225.5434 86.7128 225.9256 Z " fill="url(#color-46-,0,0,1,-148.55323,13.37953)" stroke-width="2.5" stroke="none"/></g></g></g><g data-paper-data="{&quot;origRot&quot;:0}"><g data-paper-data="{&quot;origPos&quot;:null}"><path d="M 145.1521 17.6732 C 153.3064 18.8956 162.1899 20.8742 168.2879 26.4135 C 173.0127 30.7015 174.8154 38.1444 173.8327 44.352 C 172.3268 57.9907 170.4316 73.3572 161.1315 83.502 C 154.3479 90.8893 141.3895 93.796 131.9666 90.9988 C 122.9775 88.3291 117.1565 78.4606 113.2937 69.9165 C 108.3874 59.3598 106.6093 47.2057 108.7312 35.9211 C 109.4441 28.6887 114.8353 21.5993 121.2124 18.2587 C 128.3271 14.5291 137.3069 16.1237 145.152 17.6732 Z " fill="#ffd499" stroke="none" stroke-linecap="butt" stroke-width="2.5"/><path d="M 165.2687 86.9813 C 165.2687 86.9813 110.8398 81.0619 104.4944 69.961 C 95.4727 54.6527 97.9305 26.4606 97.9305 26.4606 C 97.9305 26.4606 97.7852 1.245 98.7518 1.25 C 99.6872 1.2547 130.2392 5.8354 130.2392 5.8354 C 130.2392 5.8354 150.3726 8.7448 164.6583 20.011 C 176.0651 29.0067 182.8731 50.459 185.6377 61.1562 C 188.4023 71.8534 190.224 88.4019 190.224 88.4019 Z " data-paper-data="{&quot;origPos&quot;:null}" fill="#ffffff" stroke="#000000" stroke-linecap="round" stroke-width="2.5"/><g stroke-linecap="butt"><path d="M 99.9357 23.7174 L 140.6512 28.5974 L 139.3152 39.7438 L 99.7299 34.9686 Z " data-paper-data="{&quot;origPos&quot;:null}" stroke-width="2.5" fill="#ff0000" stroke="none"/><path d="M 99.8332 37.4616 L 123.7619 40.3398 L 123.4093 43.2813 L 100.0457 40.4554 Z " data-paper-data="{&quot;origPos&quot;:null}" stroke-width="2.5" fill="#ff0000" stroke="none"/></g><path d="M 184.201 60.0419 L 184.7657 68.4325 L 139.9445 62.4324 C 139.9445 62.4324 118.2913 59.1775 118.4912 42.2732 C 118.6454 29.2388 139.4755 30.9691 139.4755 30.9691 L 173.0696 34.9955 Z " fill="#000000" stroke="#000000" stroke-linecap="round" stroke-width="2.5"/><path d="M 126.5462 32.7172 C 131.1788 30.7253 141.0316 30.8793 141.7792 31.4023 C 142.4829 31.898 134.1051 33.9027 130.293 35.5218 C 127.54 36.9506 123.1677 41.2256 122.1569 40.514 C 121.2218 39.8523 123.8944 34.1142 126.5462 32.7172 Z " fill="#ffffff" stroke="none" stroke-linecap="round" stroke-width="2.5"/></g><path d="M 115.8744 46.5653 L 104.224 53.2108 L 103.329 44.7278 Z " data-paper-data="{&quot;origPos&quot;:null}" fill="#000000" stroke="none" stroke-linecap="round" stroke-width="2.5"/></g><g data-paper-data="{&quot;origRot&quot;:0}"><path d="M 19.1155 101.8002 C 20.677 93.7679 38.1939 98.7343 45.4306 104.4263 C 54.158 111.359 54.516 124.5704 59.9095 134.6632 C 65.6766 145.493 76.8561 154.9096 77.2615 167.1799 C 77.5136 175.174 69.6108 187.4943 62.6603 184.7699 C 49.5134 180.3105 42.9871 164.8822 36.8442 152.737 C 28.6925 136.7259 15.6878 117.9489 19.1156 101.8001 Z " data-paper-data="{&quot;origPos&quot;:null}" fill="#000000" stroke="#000000" stroke-linecap="round" stroke-width="2.5"/><path d="M 105.2471 78.6085 C 110.3353 80.4196 111.8003 90.9068 107.3933 94.6726 C 97.9201 102.6817 83.4223 101.7397 71.9419 105.9516 C 58.5559 110.3103 46.555 121.6571 32.7089 120.3356 C 24.8416 119.5741 15.1115 107.7599 19.5825 101.8327 C 28.9175 88.6341 46.6759 83.5275 62.1507 79.5531 C 76.0519 75.9364 91.7602 73.7127 105.2471 78.6086 Z " data-paper-data="{&quot;origRot&quot;:0}" fill="#000000" stroke="#000000" stroke-linecap="round" stroke-width="2.5"/><g><g stroke-linecap="round"><path d="M 98.4924 180.3409 C 101.6431 181.1342 103.9103 185.3808 106.1296 188.1656 C 108.2629 190.8664 111.4761 193.7169 111.8009 196.7594 C 112.0838 199.4159 109.9459 202.2065 107.4247 201.681 C 104.3598 201.0406 101.7332 197.2201 99.3208 194.5093 C 96.8752 191.4873 93.2036 188.0932 93.0833 184.7256 C 92.9801 181.8631 95.8494 179.6062 98.4924 180.3409 Z " stroke-width="2.5" fill="#363a36" stroke="none"/><path d="M 91.9321 185.4969 C 95.0828 186.2902 97.35 190.5368 99.5693 193.3216 C 101.7026 196.0224 104.9158 198.8729 105.2406 201.9154 C 105.5235 204.5718 103.3856 207.3625 100.8644 206.837 C 97.7995 206.1966 95.1729 202.3761 92.7605 199.6653 C 90.3149 196.6433 86.6433 193.2491 86.523 189.8816 C 86.4198 187.0191 89.2891 184.7622 91.9321 185.4968 Z " stroke-width="2.5" fill="#363a36" stroke="none"/><path d="M 84.4672 190.9175 C 87.6178 191.7108 89.885 195.9574 92.1043 198.7421 C 94.2377 201.443 97.4508 204.2934 97.7757 207.3359 C 98.0586 209.9924 95.9206 212.783 93.3994 212.2575 C 90.3345 211.6171 87.7079 207.7966 85.2955 205.0858 C 82.8499 202.0638 79.1783 198.6697 79.058 195.3021 C 78.9549 192.4397 81.8241 190.1827 84.4671 190.9174 Z " stroke-width="2.5" fill="#363a36" stroke="none"/><path d="M 77.7467 197.3411 C 80.8974 198.1344 83.1645 202.381 85.3838 205.1658 C 87.5172 207.8666 90.7303 210.7171 91.0552 213.7596 C 91.3381 216.4161 89.2001 219.2067 86.6789 218.6812 C 83.614 218.0408 80.9874 214.2203 78.575 211.5095 C 76.1294 208.4875 72.4579 205.0934 72.3376 201.7258 C 72.2344 198.8633 75.1037 196.6064 77.7467 197.3411 Z " stroke-width="2.5" fill="#363a36" stroke="none"/></g><g stroke-linecap="round"><path d="M 77.8878 170.9043 C 87.8061 175.1671 89.1938 174.1911 90.2005 174.3716 C 94.2231 175.0891 98.548 175.9585 101.7585 178.485 C 104.7903 180.8772 108.2608 186.8356 108.066 188.0303 C 107.648 189.1956 102.8416 185.465 100.3251 184.0105 C 98.6814 183.0643 97.0319 182.1117 95.4163 181.1152 C 93.7369 180.0796 92.0657 179.0185 90.4302 177.9118 C 89.5484 177.3144 87.921 176.9371 87.8605 176.0023 Z " fill="none" stroke="#353937" stroke-width="2.5"/><path d="M 72.1028 162.9287 C 73.8396 164.987 75.3627 167.2626 77.3648 169.0719 C 78.8078 170.3767 80.4653 171.4571 82.1351 172.4598 C 85.5976 174.5387 89.6055 175.7845 92.7537 178.3122 C 96.5226 181.3469 101.0785 184.7764 102.9547 189.5671 C 103.6871 191.6569 100.702 193.5076 99.2741 195.5227 C 97.419 198.1167 95.1734 200.4515 92.8838 202.6779 C 89.8389 205.641 87.2863 210.0775 83.0764 211.0787 C 80.0555 211.753 77.2788 208.7167 74.6431 206.9048 C 73.0849 205.8362 72.0322 204.1448 70.9503 202.5938 C 69.8489 201.0111 68.781 199.3544 68.12 197.5442 C 67.465 195.7544 67.6166 193.7412 67.0444 191.9257 C 66.4512 190.042 65.7526 188.1404 64.6451 186.507 C 61.4573 181.8083 57.7428 177.4675 54.2136 173.0201 C 53.0378 171.5384 50.5561 170.4951 50.5211 168.7091 C 56.7467 159.826 60.1728 156.3048 65.4248 155.5691 C 68.6312 155.3379 69.8613 160.4913 72.1027 162.9289 Z " fill="#ffffff" stroke="#ffffff" stroke-width="2.5"/></g><path d="M 88.5506 178.243 C 88.3935 178.2762 88.2958 178.2966 88.2958 178.2966 C 88.2958 178.2966 88.3935 178.2762 88.5506 178.243 C 88.7114 178.2091 88.9278 178.1634 89.1686 178.1127 C 89.4094 178.0619 89.6259 178.0163 89.7866 177.9824 C 89.9437 177.9492 90.0415 177.9287 90.0415 177.9287 C 90.0415 177.9287 89.9437 177.9491 89.7866 177.9824 C 89.6259 178.0163 89.4095 178.0619 89.1686 178.1127 C 88.9278 178.1635 88.7114 178.209 88.5506 178.243 Z " fill="#eac18d" stroke="none" stroke-linecap="butt" stroke-width="2.5"/><path d="M 72.6192 190.0763 C 73.9342 185.2627 77.1894 180.2329 81.6852 178.0504 C 84.1776 176.9145 86.8533 180.3424 89.0224 182.0943 C 91.6511 184.2223 94.7751 186.5613 96.0715 189.8715 C 96.5776 191.3156 94.515 192.5943 93.5284 193.987 C 92.2464 195.7796 90.6948 197.3926 89.1127 198.9312 C 87.0086 200.9787 85.2815 204.3977 82.3358 204.7362 C 79.8376 204.9883 77.5628 201.8833 76.0092 199.3096 C 74.1062 196.7203 71.7279 193.4252 72.6192 190.0765 Z " fill="#000000" stroke="#000000" stroke-linecap="round" stroke-width="2.5"/></g><path d="M 20.4118 119.749 C 18.385 113.3167 17.954 103.2098 23.3351 98.2254 C 27.9465 94.7366 36.9646 97.9157 40.9776 102.3116 C 48.7867 110.8779 48.4831 124.4817 54.8429 134.2588 C 60.8277 144.6167 73.0398 150.9648 77.6433 162.1148 C 79.8524 167.4956 75.7784 174.3424 71.7914 178.5844 C 68.6629 181.9067 62.093 185.2421 57.6045 183.1485 C 51.5903 180.3424 48.0499 173.3645 44.7732 167.4717 C 36.17 152.0157 25.7859 136.7607 20.4119 119.7489 Z " fill="#ffffff" stroke="none" stroke-linecap="round" stroke-width="2.5"/><path d="M 103.1732 77.6426 C 108.4016 79.2239 114.555 89.14 110.334 92.4078 C 100.8072 99.7734 86.3257 95.7273 74.8509 99.9178 C 60.9174 104.4259 49.2863 117.5843 34.5503 118.3507 C 27.3966 118.7211 14.4455 108.8015 18.7862 103.3684 C 30.4363 89.3763 50.1651 83.9368 67.0761 78.8372 C 78.5914 75.3662 91.7851 74.2001 103.1733 77.6426 Z " data-paper-data="{&quot;origRot&quot;:0}" fill="#ffffff" stroke="none" stroke-linecap="round" stroke-width="2.5"/></g><path d="M 92.6317 117.8226 C 92.6317 117.8226 81.9225 106.5933 82.4329 99.1677 C 83.0574 90.083 90.1078 80.1399 90.1078 80.1399 C 90.1078 80.1399 102.1237 80.8547 108.8237 84.3836 C 113.3488 86.7669 118.8705 95.2893 118.8705 95.2893 L 114.3812 125.6295 Z " data-paper-data="{&quot;origRot&quot;:0}" fill="#ffffff" stroke="none" stroke-width="2.5" stroke-linecap="butt"/><path d="M 234.4149 112.6056 C 220.8448 111.7162 196.6824 103.9214 196.6824 103.9214 L 280.1059 110.4245 C 280.1059 110.4245 247.985 113.4951 234.4149 112.6056 Z " data-paper-data="{&quot;origRot&quot;:0}" fill="#000000" stroke="none" stroke-width="2.5" stroke-linecap="butt"/><path d="M 346.9365 126.6514 C 347.8331 133.3149 335.7853 140.6593 322.1552 142.4934 C 308.5251 144.3275 293.8044 136.7886 292.9077 130.1249 C 292.1191 124.2648 293.3559 120.117 298.7214 117.632 C 303.1965 115.5595 305.4125 116.9554 310.343 117.0639 C 313.9881 117.1442 318.6805 112.8541 322.3185 113.0942 C 336.0416 113.9996 346.0398 119.9878 346.9364 126.6514 Z " data-paper-data="{&quot;origRot&quot;:0}" fill="#ffffff" stroke="none" stroke-width="2.5" stroke-linecap="butt"/><path d="M 338.2607 129.6536 C 338.8476 134.0152 335.7617 136.2516 327.7048 137.3358 C 319.6479 138.42 316.6159 137.29 318.1482 133.1644 C 320.9362 127.9521 320.5892 128.2395 328.6461 127.1554 C 336.7029 126.0712 337.6738 125.2921 338.2608 129.6536 Z " data-paper-data="{&quot;origRot&quot;:0}" fill="#000000" stroke="none" stroke-width="2.5" stroke-linecap="butt"/><path d="M 315.9744 142.0979 C 314.7149 141.4026 313.5499 139.5593 313.8263 138.3536 C 314.1028 137.1474 316.0331 136.4053 317.3911 135.9188 C 319.358 135.2 321.4717 135.1977 323.4739 135.5799 C 326.2063 135.5046 328.7794 137.4289 331.4325 136.829 C 334.73 136.078 336.5853 130.9465 339.843 131.0873 C 341.9669 131.1907 343.5319 136.1247 341.7441 137.8508 C 338.4515 141.9085 333.0966 144.1901 327.648 144.9733 C 323.6854 145.5646 319.4275 143.9976 315.9743 142.098 Z " data-paper-data="{&quot;index&quot;:null,&quot;origRot&quot;:0}" fill="#353935" stroke="none" stroke-width="2.5" stroke-linecap="round"/><path d="M 340.5134 117.0061 C 341.5107 119.1773 341.0802 123.4832 341.0874 126.6739 C 341.0868 129.759 341.4662 133.4973 340.6443 135.9309 C 339.9262 138.0551 338.2098 139.0666 337.3775 137.4103 C 336.3666 135.3961 336.5219 131.2281 336.415 127.9957 C 336.3926 124.5142 336.0019 120.141 337.0062 117.5668 C 337.8594 115.3791 339.6984 115.1325 340.5133 117.0062 Z " data-paper-data="{&quot;origRot&quot;:0}" fill="#353935" stroke="none" stroke-width="2.5" stroke-linecap="round"/><path d="M 336.0317 117.87 C 337.029 120.0411 336.5986 124.3471 336.6057 127.5378 C 336.6052 130.6229 336.9846 134.3611 336.1626 136.7947 C 335.4446 138.9189 333.7281 139.9304 332.8959 138.2741 C 331.8849 136.2599 332.0403 132.0919 331.9334 128.8595 C 331.911 125.3781 331.5202 121.0048 332.5245 118.4306 C 333.3777 116.2429 335.2167 115.9963 336.0316 117.87 Z " data-paper-data="{&quot;origRot&quot;:0}" fill="#353935" stroke="none" stroke-width="2.5" stroke-linecap="round"/><path d="M 345.047 116.626 C 346.0443 118.7972 345.6139 123.1031 345.621 126.2938 C 345.6205 129.379 345.9998 133.1172 345.1779 135.5507 C 344.4598 137.675 342.7434 138.6865 341.9111 137.0301 C 340.9002 135.016 341.0555 130.848 340.9487 127.6155 C 340.9263 124.1341 340.5355 119.7608 341.5398 117.1867 C 342.393 114.9989 344.232 114.7524 345.047 116.626 Z " data-paper-data="{&quot;origRot&quot;:0}" fill="#353935" stroke="none" stroke-width="2.5" stroke-linecap="round"/><path d="M 341.0105 116.2475 C 341.2292 117.873 339.2356 120.2986 329.8359 121.5635 C 320.4362 122.8284 316.77 118.7173 316.5512 117.0918 C 316.3325 115.4663 319.4203 113.7484 328.82 112.4835 C 338.2197 111.2186 340.7917 114.622 341.0105 116.2475 Z " data-paper-data="{&quot;origRot&quot;:0}" fill="#000000" stroke="none" stroke-width="2.5" stroke-linecap="butt"/><path d="M 350.1027 125.43 C 350.1021 128.5151 350.4815 132.2534 349.6596 134.687 C 348.9415 136.8112 347.2251 137.8226 346.3928 136.1663 C 345.3819 134.1522 345.5372 129.9841 345.4303 126.7517 C 345.4079 123.2703 343.4115 119.741 344.4159 117.1668 C 345.2691 114.9791 346.4897 116.3361 347.3046 118.2097 C 347.3046 118.2097 350.0955 122.2393 350.1026 125.43 Z " data-paper-data="{&quot;origRot&quot;:0}" fill="#353935" stroke="none" stroke-width="2.5" stroke-linecap="round"/><path d="M 346.1529 115.5478 C 346.3396 116.9356 344.1663 119.5105 340.08 120.0603 C 335.9937 120.6102 326.8495 122.9878 328.0974 122.3525 C 331.2783 120.7334 335.9756 118.142 337.669 116.8606 C 339.4969 115.4774 337.7856 112.345 340.7173 112.9021 C 344.7679 113.6719 345.9661 114.16 346.1528 115.5477 Z " data-paper-data="{&quot;origRot&quot;:0}" fill="#ffffff" stroke="none" stroke-width="2.5" stroke-linecap="butt"/><path d="M 233.3046 133.4953 C 246.8747 134.3847 271.0371 142.1795 271.0371 142.1795 L 187.6136 135.6764 C 187.6136 135.6764 219.7345 132.6058 233.3046 133.4953 Z " data-paper-data="{&quot;index&quot;:null,&quot;origRot&quot;:0}" fill="#000000" stroke="none" stroke-width="2.5" stroke-linecap="butt"/><path d="M340.06088,127.46983v-29.9466h138.32823v29.9466z" fill="url(#color-47)" stroke="none" stroke-width="NaN" stroke-linecap="butt" transform="matrix(1,0,0,1,-148.55323,13.37953)"/></g></g></svg>