<svg version="1.1" xmlns="http://www.w3.org/2000/svg" xmlns:xlink="http://www.w3.org/1999/xlink" width="327.72042" height="490.27775" viewBox="0,0,327.72042,490.27775"><defs><linearGradient x1="244.75818" y1="-6.22731" x2="244.75818" y2="124.09086" gradientUnits="userSpaceOnUse" id="color-1"><stop offset="0" stop-color="#3b2103"/><stop offset="1" stop-color="#000000"/></linearGradient><linearGradient x1="362.15561" y1="59.4743" x2="362.15561" y2="133.83455" gradientUnits="userSpaceOnUse" id="color-2"><stop offset="0" stop-color="#3fbf5b"/><stop offset="1" stop-color="#52f75b"/></linearGradient><linearGradient x1="372.5931" y1="88.63071" x2="382.38664" y2="88.63071" gradientUnits="userSpaceOnUse" id="color-3"><stop offset="0" stop-color="#00ab09"/><stop offset="1" stop-color="#185723"/></linearGradient><linearGradient x1="355.82244" y1="88.63071" x2="365.61598" y2="88.63071" gradientUnits="userSpaceOnUse" id="color-4"><stop offset="0" stop-color="#1a5125"/><stop offset="1" stop-color="#00ac09"/></linearGradient></defs><g transform="translate(-64.08072,55.5394)"><g data-paper-data="{&quot;isPaintingLayer&quot;:true}" fill-rule="nonzero" stroke-linejoin="miter" stroke-miterlimit="10" stroke-dasharray="" stroke-dashoffset="0" style="mix-blend-mode: normal"><g data-paper-data="{&quot;index&quot;:null,&quot;origRot&quot;:0}" stroke-width="0.5" stroke-linecap="butt"><path d="M324.46743,310.32236c-8.97061,3.02422 -18.84437,-2.24157 -22.05372,-11.76133c-3.20932,-9.51984 1.46105,-19.6887 10.43164,-22.71295c8.97056,-3.02423 18.84432,2.24158 22.05368,11.76134c3.20937,9.51981 -1.46107,19.6887 -10.43164,22.71295z" data-paper-data="{&quot;origPos&quot;:null}" fill="#fff8d5" stroke="#45433a"/><path d="M262.84375,170.33163c16.77227,-6.80988 25.83306,-1.61 31.94853,5.01229c5.72738,6.20202 20.13132,32.64419 28.49809,55.22c8.36675,22.57582 13.38143,60.51662 13.38143,60.51662c0,0 -9.03223,5.34807 -16.9742,6.45122c-7.94197,1.10313 -18.6887,-1.49764 -18.6887,-1.49764c0,0 0.28789,-28.98974 -6.58156,-52.25665c-6.86947,-23.26693 -26.77246,-56.56163 -26.77246,-56.56163z" data-paper-data="{&quot;origRot&quot;:0,&quot;origPos&quot;:null}" fill="#67ff26" stroke="#183b09"/></g><path d="M196.30542,387.76963l26.3323,-111.12941l22.84058,0.13977l-26.3323,111.12941z" data-paper-data="{&quot;origRot&quot;:0,&quot;index&quot;:null}" fill="#00c7c6" stroke="#004040" stroke-width="0.5" stroke-linecap="butt"/><g data-paper-data="{&quot;index&quot;:null}" stroke="#1b1600" stroke-width="0.5"><path d="M221.39682,431.12716c-17.47824,2.89097 -33.14147,3.36118 -33.14147,3.36118c-18.37775,0 -24.98442,-16.5779 -13.21531,-25.58449c4.02536,-3.08052 11.57694,-6.92845 11.57694,-6.92845c0,0 8.98132,-24.70222 8.73928,-35.65865c-0.08288,-3.75131 31.4411,-5.28595 32.07564,1.61159c1.10152,11.97344 -5.01562,63.03016 -6.0351,63.19877z" data-paper-data="{&quot;origPos&quot;:null}" fill="#907900" stroke-linecap="butt"/><path d="M180.8924,405.09316c0,0 0.91036,-1.8795 5.36787,-2.74869c4.45749,-0.86921 13.90787,0.78676 13.90787,0.78676" data-paper-data="{&quot;origPos&quot;:null}" fill="none" stroke-linecap="round"/></g><path d="M203.1636,362.97913l14.65093,-64.3681l4.32323,-0.24018c0,0 -5.91653,19.19648 -8.93586,31.47755c-2.19787,8.93975 -7.15616,32.89055 -7.15616,32.89055z" fill="#00e4e4" stroke="none" stroke-width="0" stroke-linecap="butt"/><g data-paper-data="{&quot;index&quot;:null,&quot;origRot&quot;:0}" stroke-width="0.5" stroke-linecap="butt"><path d="M114.71734,87.60731c6.82288,-6.56247 17.99952,-6.01264 24.96373,1.22791c6.96421,7.24064 7.0788,18.43015 0.25595,24.99263c-6.82284,6.56246 -17.99948,6.01262 -24.96369,-1.22793c-6.96424,-7.2406 -7.07878,-18.43016 -0.25595,-24.99263z" data-paper-data="{&quot;origPos&quot;:null}" fill="#fff8d5" stroke="#45433a"/><path d="M230.17794,187.92546c-12.26367,13.31486 -22.67693,12.4778 -31.03328,9.09766c-7.82603,-3.16562 -32.13476,-20.9349 -49.33379,-37.78316c-17.19901,-16.84828 -37.92184,-49.02303 -37.92184,-49.02303c0,0 5.88714,-8.69049 12.59933,-13.07665c6.7122,-4.38613 17.54134,-6.61906 17.54134,-6.61906c0,0 12.10812,26.34163 28.2478,44.45376c16.13971,18.11213 48.34551,39.73279 48.34551,39.73279z" data-paper-data="{&quot;origRot&quot;:0,&quot;origPos&quot;:null}" fill="#67ff26" stroke="#183b09"/></g><path d="M249.36507,156.46239c-77.39066,-1.90696 -78.09973,-50.33027 -78.09973,-50.33027c0,0 18.8597,-37.6857 62.15536,-37.6857c43.29566,0 82.14878,29.95544 82.14878,29.95544c0,0 -3.84229,60.6555 -66.20441,58.06053z" data-paper-data="{&quot;index&quot;:null}" fill="#2b1702" stroke="#0f0801" stroke-width="1" stroke-linecap="butt"/><path d="M253.96737,397.59923v-117.53801h22.84099v117.53801z" data-paper-data="{&quot;index&quot;:null}" fill="#00c7c6" stroke="#004040" stroke-width="0.5" stroke-linecap="butt"/><path d="M254.58001,365.4681l0.35881,-66.01343l4.16854,-1.17103c0,0 -0.98658,48.06749 -1.30992,55.97934c-0.13251,3.24229 -0.45575,10.34627 -0.45575,10.34627z" data-paper-data="{&quot;origRot&quot;:0}" fill="#00e4e4" stroke="none" stroke-width="0" stroke-linecap="butt"/><g data-paper-data="{&quot;index&quot;:null}" stroke="#1b1600" stroke-width="0.5"><path d="M248.44721,430.67186c-1.01946,-0.16861 0.15337,-51.22533 1.25488,-63.19879c0.63454,-6.8975 32.62798,-4.08163 32.54512,-0.33029c-0.24204,10.95643 0.70927,34.37735 0.70927,34.37735c0,0 7.82217,3.84791 11.84753,6.92845c11.76911,9.00659 5.16248,25.58449 -13.21531,25.58449c0,0 -15.66326,-0.47024 -33.14147,-3.3612z" data-paper-data="{&quot;origPos&quot;:null}" fill="#907900" stroke-linecap="butt"/><path d="M269.6758,402.67604c0,0 9.45045,-1.65599 13.90787,-0.78676c4.45753,0.86919 5.36787,2.74873 5.36787,2.74873" data-paper-data="{&quot;origPos&quot;:null}" fill="none" stroke-linecap="round"/></g><path d="M227.80945,176.03469c0,0 0,-8.463 0,-13.87975c0,-10.40439 0,-26.65993 0,-26.65993h35.32745v40.53968z" data-paper-data="{&quot;index&quot;:null}" fill="#fff8d5" stroke="#514f44" stroke-width="0.5" stroke-linecap="butt"/><path d="M262.49109,153.69102v14.61241l-17.73927,0.74822l-3.37679,-17.24839z" data-paper-data="{&quot;index&quot;:null}" fill="#d4ceb2" stroke="#000000" stroke-width="0" stroke-linecap="butt"/><path d="M218.26237,166.16845c5.84676,-0.2012 18.28287,0.36938 28.93246,0.46479c10.64961,0.09541 29.09328,-0.72524 29.09328,-0.72524c0,0 3.99514,123.97461 0.50292,127.37902c-4.39569,4.28519 -27.36769,6.68752 -39.13541,6.68752c-17.18406,0 -20.10138,-0.39785 -22.05943,-5.81291c-2.6983,-7.46222 2.6662,-127.99318 2.6662,-127.99318z" data-paper-data="{&quot;index&quot;:null}" fill="#67ff26" stroke="#183b09" stroke-width="0.5" stroke-linecap="butt"/><path d="M243.04473,299.1178l0.11696,-132.27199l4.05394,-0.00026c0,0 -0.05313,61.39849 -0.08713,100.69665c-0.01163,13.44788 -0.02981,31.57562 -0.02981,31.57562z" data-paper-data="{&quot;index&quot;:null}" fill="#82a19f" stroke="#2b3434" stroke-width="0.25" stroke-linecap="butt"/><path d="M211.0399,190.82381l5.19514,-24.244l11.33486,1.73171v22.51229z" data-paper-data="{&quot;index&quot;:null}" fill="#67ff26" stroke="none" stroke-width="0" stroke-linecap="butt"/><path d="M322.82977,83.65576c0,39.81323 -34.65317,72.08822 -77.4,72.08822c-42.7468,0 -77.4,-32.27501 -77.4,-72.08822c0,-39.81323 34.65317,-72.08822 77.4,-72.08822c42.7468,0 77.4,32.27499 77.4,72.08822z" data-paper-data="{&quot;index&quot;:null}" fill="#fff8d5" stroke="#514f44" stroke-width="0.5" stroke-linecap="butt"/><path d="M302.92252,65.68061l20.32294,11.79585c0,0 -22.47732,4.12758 -26.10569,-0.5021c-3.6284,-4.62968 -11.51257,-19.90625 -19.99085,-23.03097c-8.95896,-3.30187 -13.69163,1.12359 -23.15459,1.4991c-8.60316,0.34141 -13.74195,-3.50175 -22.02582,-0.97867c-4.6091,1.40382 -17.11212,11.89893 -17.11212,11.89893l0.05363,-13.86259c0,0 0.78828,13.17416 -4.39366,19.13258c-5.18193,5.95845 -15.46039,3.69649 -15.46039,3.69649l7.51846,-13.35965c0,0 -3.7284,4.78889 -7.3405,12.61084c-3.61208,7.82196 12.03412,-49.92364 14.85142,-54.61642c5.09024,-8.47872 60.9225,7.96962 74.00613,7.08221c8.90278,-0.60383 18.83102,38.63439 18.83102,38.63439z" data-paper-data="{&quot;index&quot;:null}" fill="#8a7967" stroke="#000000" stroke-width="0" stroke-linecap="butt"/><path d="M170.36332,102.03493v-19.72941h150.75291v19.72941z" data-paper-data="{&quot;index&quot;:null}" fill="#000000" stroke="#000000" stroke-width="0" stroke-linecap="butt"/><path d="M299.49321,70.15619c-3.16854,-5.96666 -7.26886,-19.90625 -16.39628,-23.03097c-9.64489,-3.30187 -14.73986,1.12356 -24.92736,1.49908c-9.26185,0.34141 -14.79405,-3.50175 -23.71216,-0.97867c-8.91811,2.52308 -18.42228,11.89893 -18.42228,11.89893l0.05776,-13.86259c0,0 0.84863,13.17416 -4.73005,19.13261c-5.5787,5.95845 -16.64407,3.69649 -16.64407,3.69649l8.0941,-13.35965c0,0 -4.01386,4.78889 -7.9025,12.61084c-3.88864,7.82196 -11.23277,18.51577 -17.87236,30.05855c-6.63962,11.54279 3.62684,33.45968 3.62684,33.45968c0,0 -10.90667,-22.90419 -11.90918,-25.39794c-0.10488,-0.26095 -3.68173,-10.12991 -3.65023,-18.59456c0.06433,-17.28812 0.57183,-36.1885 0.57183,-36.1885c0,0 2.43476,-17.1453 5.46778,-21.83806c5.47995,-8.47872 8.988,-10.53416 16.21676,-15.61704c7.22874,-5.08286 21.66336,-10.72209 23.22158,-7.92368c1.69659,3.04688 -12.60743,6.94058 -12.51638,6.91174c5.72845,-1.81435 23.89371,-12.6723 43.45281,-12.00874c19.55909,0.66353 57.32037,13.09191 55.70867,16.1421c-1.17668,1.62417 -12.82075,-3.87268 -12.82075,-3.87268c0,0 24.75868,10.99058 29.33497,24.60744c4.73359,14.08495 7.97476,21.99322 9.52689,36.77104c0.80053,7.62196 0.81028,11.99824 -0.26501,19.58629c-3.15263,22.24734 -5.58728,16.42901 -5.58728,16.42901c0,0 -14.77215,-9.48722 -13.18672,-23.365c0,0 -1.56881,-10.79904 -4.73737,-16.76572z" data-paper-data="{&quot;index&quot;:null}" fill="url(#color-1)" stroke="#0f0801" stroke-width="1" stroke-linecap="butt"/><path d="M266.29562,113.88501c0,-5.7026 0,-23.72027 0,-41.05352c0,-1.26055 2.64631,-3.22997 2.64631,-3.22997c0,0 13.51638,-3.36079 22.47031,-3.36079c1.42156,0 3.64258,2.3101 3.64258,3.78868c0,17.22427 0,38.75946 0,44.13501c0,1.79181 -2.22104,4.59138 -3.64258,4.59138c0,0 -17.31823,0 -21.52415,0c-1.402,0 -3.59243,-2.96989 -3.59243,-4.87075z" data-paper-data="{&quot;index&quot;:null}" fill="#000000" stroke="#00360a" stroke-width="0" stroke-linecap="butt"/><path d="M245.38502,134.61337h19.9072" data-paper-data="{&quot;index&quot;:null}" fill="none" stroke="#000000" stroke-width="0.5" stroke-linecap="round"/><path d="M245.33139,113.2444c0,1.90086 -2.19043,4.87075 -3.59243,4.87075c-4.20592,0 -21.52415,0 -21.52415,0c-1.42154,0 -3.64258,-2.79955 -3.64258,-4.59138c0,-5.37555 0,-26.91075 0,-44.13501c0,-1.47859 2.22102,-3.78868 3.64258,-3.78868c8.95395,0 22.47031,3.36079 22.47031,3.36079c0,0 2.64631,1.96943 2.64631,3.22997c0,17.33326 0,35.35092 0,41.05352z" data-paper-data="{&quot;index&quot;:null}" fill="#000000" stroke="#00360a" stroke-width="0" stroke-linecap="butt"/><path d="M269.84966,192.26809v-25.33819l11.13874,-0.60097l4.53712,25.16178z" data-paper-data="{&quot;index&quot;:null}" fill="#67ff26" stroke="none" stroke-width="0" stroke-linecap="butt"/><path d="M116.1302,106.69496c0,0 24.83802,37.55388 39.63007,50.75752c19.42722,17.34107 49.54885,40.02228 49.54885,40.02228c0,0 -1.10922,4.73269 -16.99262,-7.64449c-18.08062,-14.08937 -12.12208,-7.68561 -33.94125,-27.42563c-16.38506,-14.82372 -41.73107,-51.60857 -41.73107,-51.60857z" data-paper-data="{&quot;index&quot;:null,&quot;origRot&quot;:0}" fill="#b7ff97" stroke="none" stroke-width="0" stroke-linecap="butt"/><path d="M216.08524,293.95154c0,0 -0.6176,-9.49727 -0.6176,-15.37833c0,-17.64325 2.09301,-87.19201 2.09301,-87.19201l1.70869,0.17155l0.58331,106.10443z" fill="#b7ff97" stroke="none" stroke-width="0" stroke-linecap="butt"/><path d="M187.51762,401.27058c0,0 4.33538,-14.7653 6.80278,-24.83075c0.90699,-3.69993 1.84368,-10.44129 1.84368,-10.44129l2.4704,-0.72055l-8.16611,36.23277z" fill="#b19300" stroke="none" stroke-width="0" stroke-linecap="butt"/><path d="M171.21973,414.13734c4.30308,-6.75252 16.81257,-11.40853 16.81257,-11.40853c0,0 -11.28592,7.49888 -13.93042,11.64871c-2.6445,4.14983 -1.68126,14.10977 -1.68126,12.84961c0,-1.26016 -5.50397,-6.33727 -1.20089,-13.08979z" fill="#b19300" stroke="none" stroke-width="0" stroke-linecap="butt"/><path d="M249.03787,430.46955l1.20089,-64.60827l2.88217,-0.48038c0,0 -1.60461,3.46842 -1.86301,17.52536c-0.21026,11.43847 -0.05843,47.80345 -0.05843,47.80345z" fill="#b19300" stroke="none" stroke-width="0" stroke-linecap="butt"/><path d="M215.20687,431.17292c0,0 2.85039,-22.67098 4.18069,-37.36589c1.3303,-14.69494 3.73838,-29.64417 3.73838,-29.64417l4.43302,3.70564c0,0 -1.53025,17.64658 -2.41305,28.9413c-1.02936,13.16964 -4.33942,33.74553 -4.33942,33.74553z" fill="#665500" stroke="none" stroke-width="0" stroke-linecap="butt"/><path d="M267.65178,295.86613c0,0 3.2258,-6.2566 3.90692,-25.94133c0.72488,-20.9486 4.73954,-78.17647 4.73954,-78.17647c0,0 1.44108,42.61587 1.44108,69.89221c0,12.65399 -1.44108,32.42423 -1.44108,32.42423z" fill="#56d420" stroke="none" stroke-width="0" stroke-linecap="butt"/><g stroke="#000000"><path d="M65.31289,5.41295l45.02204,-59.28321l44.35506,60.17158l-44.72938,64.47454z" data-paper-data="{&quot;origRot&quot;:0,&quot;origPos&quot;:null}" fill="#00ffb7" stroke-width="2" stroke-linecap="butt"/><path d="M109.35061,-51.53903l0.84711,119.01878" data-paper-data="{&quot;origPos&quot;:null}" fill="none" stroke-width="1" stroke-linecap="round"/></g><g><path d="M332.51007,100.65909c0,-18.32231 29.64553,-46.07937 29.64553,-46.07937c0,0 29.64553,26.75514 29.64553,46.07937c0,19.32422 -13.27275,33.17546 -29.64552,33.17546c-16.37277,0 -29.64553,-14.85316 -29.64553,-33.17547z" data-paper-data="{&quot;origPos&quot;:null,&quot;index&quot;:null}" fill="url(#color-2)" stroke="#0066ff" stroke-width="0" stroke-linecap="butt"/><g data-paper-data="{&quot;origPos&quot;:null}" stroke="#ffffff" stroke-width="0" stroke-linecap="butt"><path d="M377.48988,100.56559c-2.70441,0 -4.89678,-5.34343 -4.89678,-11.93487c0,-6.59146 -0.23896,-11.93487 4.89678,-11.93487c5.13572,0 4.89676,5.34343 4.89676,11.93487c0,6.59144 -2.19235,11.93487 -4.89676,11.93487z" data-paper-data="{&quot;origPos&quot;:null,&quot;index&quot;:null}" fill="url(#color-3)"/><path d="M360.71922,100.56557c-2.70441,0 -4.89678,-5.34343 -4.89678,-11.93487c0,-3.35009 -0.23896,-11.93487 4.89678,-11.93487c5.13572,0 4.89676,5.34343 4.89676,11.93487c0,6.59144 -2.19235,11.93487 -4.89676,11.93487z" data-paper-data="{&quot;origPos&quot;:null,&quot;index&quot;:null}" fill="url(#color-4)"/></g><path d="M373.95519,102.70288c0,0 -2.87995,8.53167 -4.24074,8.54697c-1.91237,0.02149 -4.14632,-8.45273 -4.14632,-8.45273z" data-paper-data="{&quot;origPos&quot;:null}" fill="none" stroke="#268436" stroke-width="2.5" stroke-linecap="round"/></g></g></g></svg>