<svg version="1.1" xmlns="http://www.w3.org/2000/svg" xmlns:xlink="http://www.w3.org/1999/xlink" width="182.15995" height="345.84242" viewBox="0,0,182.15995,345.84242"><g transform="translate(-141.52176,-74.86303)"><g data-paper-data="{&quot;isPaintingLayer&quot;:true}" fill-rule="nonzero" stroke="none" stroke-linecap="round" stroke-miterlimit="10" stroke-dasharray="" stroke-dashoffset="0" style="mix-blend-mode: normal"><path d="M217.56208,256.19433c0.44502,-7.48342 -1.16274,-17.34747 0.13459,-28.14525c1.14342,-9.35013 2.56063,-19.54043 4.29407,-30.2459c2.49259,-15.39446 5.21122,-29.20736 7.94591,-41.30752c0.04027,0.1101 0.07899,0.21475 0.11675,0.30943c0.01671,0.04163 0.03506,0.07822 0.04514,0.10813c0.01756,0.05225 0.02535,0.10153 0.03337,0.14921c0.01519,0.09162 0.02375,0.17417 0.02721,0.24584v0c0.0014,-0.02015 -0.08457,-0.12232 -0.22569,-0.31921c-0.52793,-0.70812 -1.1118,-1.42738 -1.68714,-2.14157c-2.21995,-2.75519 -4.34613,-5.32973 -6.30519,-7.73243c-9.32846,-11.44091 -14.90395,-18.72774 -14.33935,-19.21334c0.47475,-0.40815 6.977,6.05308 16.9821,16.90997c2.04685,2.22127 4.41607,4.8089 6.73163,7.43916c0.60247,0.68339 1.24797,1.41524 1.87905,2.19306c0.12136,0.13909 0.30777,0.37227 0.53217,0.71821v0c0.02835,0.11342 0.06086,0.23725 0.096,0.37324c0.0178,0.06999 0.03838,0.14365 0.05106,0.21985c0.00784,0.04405 0.0081,0.08345 0.01092,0.12091c0.00634,0.08682 0.01703,0.17292 0.02963,0.26453c-2.28659,12.50253 -4.59782,25.97104 -7.08789,41.9112c-1.70217,10.88951 -3.22204,21.23758 -4.59052,30.70435c-1.3765,9.35578 -2.98207,22.59197 -3.79185,28.73401c-1.08143,8.20204 -0.2208,2.46882 -0.8114,-0.56955c-0.28023,-1.44168 -0.30473,3.20563 -0.07055,-0.7263z" data-paper-data="{&quot;index&quot;:null}" fill="#000000" stroke-width="9.375" stroke-linejoin="round"/><path d="M237.12741,154.18612c0.43858,0.22984 -0.87992,3.66478 -3.05593,9.61944c-2.45117,6.70695 -4.90592,13.71479 -8.33061,24.79151c-3.14086,10.16741 -5.95797,20.17503 -9.35617,32.65799c-0.06026,0.22268 -0.9596,3.53239 -1.02017,3.75498c-3.29461,12.14055 -5.94365,24.42517 -8.00295,34.08877c-3.94048,18.4992 -6.33681,30.78066 -7.24982,30.62425c-0.78724,-0.13573 0.10777,-12.68276 3.19584,-31.48045c1.63171,-9.93296 3.94676,-22.15307 7.27859,-34.63101c0.33326,-1.2488 0.67192,-2.50635 1.01651,-3.77055c3.32749,-12.22601 6.55669,-22.87508 10.02034,-32.70432c3.71936,-10.56142 7.07756,-18.41415 10.10899,-24.40439c2.89456,-5.72052 4.99954,-8.75327 5.39539,-8.54623z" data-paper-data="{&quot;index&quot;:null}" fill="#000000" stroke-width="9.375" stroke-linejoin="round"/><path d="M230.82253,159.41315c0.53271,0.02919 0.63902,7.94915 0.97007,20.71648c0.35834,13.81689 0.89918,29.3476 2.1829,49.84755c0.08494,1.35659 0.17076,2.70345 0.25849,4.04089c0.85895,13.15131 1.82584,24.72099 2.78058,35.06883c1.74088,18.84132 3.35047,31.2373 2.86287,31.31928c-0.75788,0.12763 -3.49335,-12.14945 -5.89883,-31.0509c-1.3038,-10.24057 -2.51023,-22.0803 -3.40432,-35.17207c-0.09152,-1.34181 -0.18013,-2.69426 -0.26525,-4.05571c-1.25115,-19.96619 -1.45861,-36.81638 -1.11349,-50.05483c0.33403,-12.80869 1.14685,-20.68564 1.62696,-20.65951z" data-paper-data="{&quot;index&quot;:null}" fill="#000000" stroke-width="9.37509" stroke-linejoin="round"/><g><path d="M318.07883,158.40865c-7.62763,28.04529 -36.20886,44.87171 -64.31165,37.4558c-28.10201,-7.41606 -44.87138,-36.20874 -37.45554,-64.31122c7.41606,-28.10204 35.67706,-42.43721 64.31096,-37.45597c29.52114,5.13569 45.27587,35.55989 37.45625,64.31139z" data-paper-data="{&quot;index&quot;:null}" fill="#f2f2f2" stroke-width="9.0943" stroke-linejoin="round"/><path d="M239.71421,100.76724c43.97944,-25.15878 89.72818,6.10969 78.32604,57.55371c-5.74127,21.10773 -23.3516,35.8586 -43.69396,38.70416c-42.80424,1.59247 -76.75397,-50.96077 -34.6321,-96.25783z" data-paper-data="{&quot;index&quot;:null}" fill="#ffffff" stroke-width="9.09417" stroke-linejoin="round"/><path d="M315.5903,123.23288c-0.35199,0.11438 -1.92535,-7.07087 -10.17938,-15.42797v0c-3.45696,-3.50644 -8.17482,-7.00828 -14.27052,-9.59053c-4.93564,-2.09133 -10.65638,-3.53044 -16.99922,-3.96693c-5.6216,-0.38513 -11.6593,0.03152 -17.80945,1.49069c-5.59474,1.3299 -11.28531,3.52924 -16.60318,6.7715c-4.95771,3.02308 -9.61926,6.97963 -13.40903,11.83039c-3.76074,4.80496 -6.65716,10.51548 -8.34185,16.73351c-1.8633,6.84031 -2.23955,14.23118 -1.39659,21.70902c0.82711,7.48114 4.23451,14.76657 9.17945,21.03747c0.22062,0.27976 0.44503,0.55722 0.67246,0.83256c5.17033,6.26674 11.69587,11.24606 18.70757,14.81763c7.85026,3.9835 16.30144,6.18322 24.55956,6.30605c9.02068,0.14137 17.68857,-2.31553 24.74238,-6.66777v0c7.52046,-4.61686 13.18013,-11.36046 16.85445,-18.39347c4.18346,-8.00608 6.03742,-16.51896 6.50985,-24.1335c0.57777,-9.47417 -0.9011,-17.60809 -3.16585,-24.07422c-2.37855,-6.76192 -5.45864,-11.30556 -7.90793,-14.25011c-2.41465,-2.90356 -4.02465,-4.20053 -3.90183,-4.36233c0.0828,-0.10766 1.97485,0.81309 4.76519,3.56844c2.79447,2.75887 6.37239,7.33243 9.14317,14.25387c2.65895,6.61612 4.53054,15.08582 4.19138,25.0117c-0.26489,7.9947 -2.0128,17.01622 -6.3169,25.67481c-3.79954,7.64156 -9.79776,15.01267 -17.98141,20.20973v0c-7.69168,4.86115 -17.10851,7.65439 -26.9845,7.57143c-8.98997,-0.08137 -18.12393,-2.38339 -26.56639,-6.64642c-7.54553,-3.79786 -14.57271,-9.15105 -20.19775,-15.95449c-0.24698,-0.29905 -0.49095,-0.60023 -0.7318,-0.90387c-5.42997,-6.81934 -9.1386,-14.90513 -10.09925,-23.39037c-0.88706,-7.97381 -0.41771,-15.93536 1.65053,-23.39151c1.8906,-6.7854 5.11022,-12.98316 9.27749,-18.19998c4.20273,-5.25066 9.29323,-9.46674 14.67972,-12.64039c5.76975,-3.39972 11.87714,-5.64533 17.84816,-6.94329c6.55954,-1.42695 12.96547,-1.72459 18.90061,-1.17093c6.69777,0.62298 12.71448,2.33307 17.86382,4.71785c6.36729,2.94881 11.19966,6.872 14.64164,10.73637v0c8.50684,9.56438 8.33393,16.94635 8.67553,16.83518z" data-paper-data="{&quot;index&quot;:null}" fill="#000000" stroke-width="9.375" stroke-linejoin="round"/><path d="M296.65822,155.5788c1.8816,0.48071 2.76256,3.18872 1.96721,6.04492c-0.79533,2.85593 -2.96771,4.78355 -4.84925,4.30256c-1.88064,-0.48048 -2.76161,-3.18849 -1.96626,-6.04469c0.79533,-2.85593 2.96725,-4.78368 4.84831,-4.30279z" data-paper-data="{&quot;index&quot;:null}" fill="#000000" stroke-width="9.375" stroke-linejoin="round"/><path d="M297.60579,187.37311c-4.48945,-1.60245 -8.56724,-4.62272 -9.54887,-5.51007c-1.93551,-1.75 -2.5314,-3.01403 -2.31593,-3.08952c0.1074,-0.03775 1.64178,1.3058 3.71801,2.49205c2.78578,1.59165 11.64926,4.88574 11.64926,4.88574c0,0 1.01627,2.8347 -3.50245,1.2218z" data-paper-data="{&quot;index&quot;:null}" fill="#000000" stroke-width="9.375" stroke-linejoin="round"/><path d="M238.24362,127.31983c0,0 -0.59336,11.27753 -5.64312,21.82695c-6.73603,14.07223 -30.46888,54.27281 -30.46888,54.27281c0,0 -13.9966,-17.24047 -13.34454,-31.39387c0.38659,-8.39142 3.02085,-19.00129 3.02085,-19.00129l-27.20098,16.5108c0,0 4.56775,-32.89155 16.1936,-47.72398c11.09873,-14.15994 14.78973,-11.61431 14.78973,-11.61431c0,0 -31.52936,-9.29437 -31.19824,-9.54978c32.86385,-25.35024 69.47216,-31.932 109.99274,-20.08005c70.31875,24.7111 44.7732,75.8064 44.7732,75.8064l-7.8344,-14.26963l-11.45315,13.1558l-8.22243,-18.99715l-9.63975,12.05509l-8.93511,-16.08303l-11.46373,11.09427l-6.02099,-15.37035l-11.93883,13.03703l-5.40596,-13.67573z" fill="#000000" stroke-width="0" stroke-linejoin="miter"/><path d="M237.95323,117.98359c0,0 -4.79292,20.03045 -9.84267,30.57986c-6.73603,14.07222 -26.62566,46.97695 -26.62566,46.97695c0,0 -9.7125,-9.5012 -9.06044,-23.65458c0.38659,-8.39142 4.19808,-25.91968 4.19808,-25.91968l-28.17235,16.27325c0,0 4.61003,-24.64546 16.23587,-39.47787c11.09873,-14.15994 22.18324,-12.37984 22.18324,-12.37984c0,0 -34.44347,-10.00704 -34.11235,-10.26246c32.86385,-25.35024 78.73191,-23.49062 101.64899,-15.42904c60.96135,20.87845 44.35345,64.89431 44.35345,64.89431l-6.37733,-13.91329l-11.45315,13.1558l-8.22243,-18.99715l-9.63975,12.05509l-8.93511,-16.08303l-11.46373,11.09427l-6.02099,-15.37035l-11.93883,13.03703l-6.7548,-16.57928z" fill="#754200" stroke-width="0" stroke-linejoin="miter"/><path d="M297.20298,155.5472c-4.45211,-3.12314 -7.66392,-6.2924 -7.09756,-7.18963c0.6109,-0.96244 4.85563,0.73983 9.39178,3.91534c4.49486,3.15148 7.60262,6.44822 7.00714,7.32724c-0.64288,0.94427 -4.80867,-0.90554 -9.30132,-4.0529z" data-paper-data="{&quot;index&quot;:null}" fill="#000000" stroke-width="2.56181" stroke-linejoin="miter"/></g><path d="M219.09103,330.51238c-3.73403,1.53861 -7.42895,3.01424 -11.08005,4.42876c-14.09088,5.46041 -26.88055,9.87451 -38.8087,13.45491v0c-6.4099,1.92563 -11.94677,3.44378 -17.53066,4.53611c-2.16757,0.42618 -4.22358,0.76426 -6.31866,0.89227c-0.772,0.0493 -1.56453,0.06197 -2.37966,-0.00977c-0.30447,-0.49927 -0.73214,-1.07131 -1.20789,-1.80994c1.44074,0.35608 2.65932,0.95418 3.60557,1.71966c0.80002,1.30653 1.31616,2.67178 1.72104,3.82695c2.94032,8.27616 4.78639,12.98405 4.48841,13.15029c-0.4914,0.27419 -3.13132,-4.07551 -6.78396,-12.16874c-0.49617,-1.08364 -1.03962,-2.267 -1.73117,-3.2012c-0.36283,-1.20431 -0.89351,-2.35726 -1.54354,-3.46466c0.41193,-0.33809 0.99181,-0.78499 1.68739,-1.21695c0.59062,0.01953 1.21895,-0.03353 1.90812,-0.11144c1.8712,-0.21592 3.74674,-0.6328 5.84527,-1.14351c5.40832,-1.32314 10.67805,-2.99276 17.03154,-5.10487v0c11.81058,-3.93098 24.24722,-8.46761 38.30935,-14.00737c3.61669,-1.42463 7.27802,-2.89972 10.98439,-4.42666c26.46578,-10.90378 -1.20453,-80.61977 -1.20453,-80.61977c0,0 37.24031,72.09837 3.00775,85.27598z" data-paper-data="{&quot;index&quot;:null}" fill="#000000" stroke-width="9.375" stroke-linejoin="round"/><path d="M216.99946,238.88406c0.61937,-0.07613 3.10174,11.18545 5.43221,29.64232c2.37133,18.78655 4.39304,43.7316 4.21611,72.3857c-0.02473,4.03854 -0.09246,8.01664 -0.19959,11.9307c-0.41224,15.10626 -1.28633,28.60796 -2.59622,40.99279v0c-0.7024,6.65594 -1.44306,12.34919 -2.59462,17.92117c-0.44501,2.16378 -0.92816,4.19059 -1.62013,6.17226c-0.25303,0.73103 -0.54774,1.46681 -0.92907,2.19082c-0.57816,0.08777 -1.27106,0.26099 -2.13619,0.41416c0.88544,-1.19102 1.90816,-2.08359 2.97995,-2.66029c1.51425,-0.23265 2.97287,-0.1808 4.19476,-0.10757c8.76937,0.48817 13.8249,0.60592 13.863,0.945c0.06287,0.55918 -4.96925,1.31208 -13.84534,1.55153c-1.19121,0.03861 -2.49265,0.08227 -3.62157,0.35884c-1.25092,-0.131 -2.51939,-0.08738 -3.79201,0.08396c-0.15252,-0.51061 -0.34047,-1.21818 -0.46991,-2.02669c0.24636,-0.53714 0.44036,-1.13714 0.63496,-1.80282c0.52435,-1.80916 0.86502,-3.70003 1.2054,-5.83282c0.87078,-5.4993 1.36848,-11.00476 1.87708,-17.68075v0c0.94109,-12.41196 1.5657,-25.63548 1.89366,-40.74588c0.0845,-3.88624 0.13971,-7.83317 0.16453,-11.84167c0.17676,-28.62339 -1.2751,-53.01027 -2.73661,-71.96872c-1.4203,-18.42571 -2.66342,-29.83048 -1.92038,-29.92202z" data-paper-data="{&quot;index&quot;:null}" fill="#000000" stroke-width="9.375" stroke-linejoin="round"/></g></g></svg>