<svg version="1.1" xmlns="http://www.w3.org/2000/svg" xmlns:xlink="http://www.w3.org/1999/xlink" width="271.08674" height="274.6036" viewBox="0,0,271.08674,274.6036"><defs><linearGradient x1="158.89582" y1="106.73678" x2="158.89582" y2="289.91855" gradientUnits="userSpaceOnUse" id="color-1"><stop offset="0" stop-color="#00167d"/><stop offset="1" stop-color="#00167d" stop-opacity="0"/></linearGradient><linearGradient x1="368.94835" y1="202.67912" x2="266.35839" y2="50.91991" gradientUnits="userSpaceOnUse" id="color-2"><stop offset="0" stop-color="#00167d"/><stop offset="1" stop-color="#00167d" stop-opacity="0"/></linearGradient><linearGradient x1="318.81362" y1="124.49911" x2="297.21236" y2="306.40279" gradientUnits="userSpaceOnUse" id="color-3"><stop offset="0" stop-color="#00167d"/><stop offset="1" stop-color="#00167d" stop-opacity="0"/></linearGradient><linearGradient x1="177.77665" y1="174.25695" x2="291.1722" y2="30.39238" gradientUnits="userSpaceOnUse" id="color-4"><stop offset="0" stop-color="#00167d"/><stop offset="1" stop-color="#00167d" stop-opacity="0"/></linearGradient><linearGradient x1="291.97914" y1="251.37279" x2="137.15468" y2="153.47004" gradientUnits="userSpaceOnUse" id="color-5"><stop offset="0" stop-color="#000000"/><stop offset="1" stop-color="#000000" stop-opacity="0"/></linearGradient><linearGradient x1="288.03937" y1="107.46155" x2="282.49901" y2="290.5595" gradientUnits="userSpaceOnUse" id="color-6"><stop offset="0" stop-color="#000000"/><stop offset="1" stop-color="#000000" stop-opacity="0"/></linearGradient><linearGradient x1="141.14469" y1="215.40091" x2="228.68233" y2="54.48874" gradientUnits="userSpaceOnUse" id="color-7"><stop offset="0" stop-color="#000000"/><stop offset="1" stop-color="#000000" stop-opacity="0"/></linearGradient><linearGradient x1="160.25202" y1="95.86704" x2="343.13022" y2="85.32495" gradientUnits="userSpaceOnUse" id="color-8"><stop offset="0" stop-color="#000000"/><stop offset="1" stop-color="#000000" stop-opacity="0"/></linearGradient><linearGradient x1="302.06487" y1="255.25983" x2="119.18327" y2="265.743" gradientUnits="userSpaceOnUse" id="color-9"><stop offset="0" stop-color="#000000"/><stop offset="1" stop-color="#000000" stop-opacity="0"/></linearGradient><linearGradient x1="287.41695" y1="217.37697" x2="104.68482" y2="230.20404" gradientUnits="userSpaceOnUse" id="color-10"><stop offset="0" stop-color="#005669"/><stop offset="1" stop-color="#005669" stop-opacity="0"/></linearGradient><linearGradient x1="243.35786" y1="103.45752" x2="363.22175" y2="241.97902" gradientUnits="userSpaceOnUse" id="color-11"><stop offset="0" stop-color="#005669"/><stop offset="1" stop-color="#005669" stop-opacity="0"/></linearGradient><linearGradient x1="206.86259" y1="224.67546" x2="207.6682" y2="41.49544" gradientUnits="userSpaceOnUse" id="color-12"><stop offset="0" stop-color="#005669"/><stop offset="1" stop-color="#005669" stop-opacity="0"/></linearGradient><linearGradient x1="197.56055" y1="139.46948" x2="360.73506" y2="222.71405" gradientUnits="userSpaceOnUse" id="color-13"><stop offset="0" stop-color="#005669"/><stop offset="1" stop-color="#005669" stop-opacity="0"/></linearGradient><linearGradient x1="153.38312" y1="233.89905" x2="323.05896" y2="302.93291" gradientUnits="userSpaceOnUse" id="color-14"><stop offset="0" stop-color="#00167d"/><stop offset="1" stop-color="#00167d" stop-opacity="0"/></linearGradient><linearGradient x1="321.41203" y1="75.49045" x2="142.17993" y2="113.32455" gradientUnits="userSpaceOnUse" id="color-15"><stop offset="0" stop-color="#00167d"/><stop offset="1" stop-color="#00167d" stop-opacity="0"/></linearGradient><linearGradient x1="230.10242" y1="92.46588" x2="390.45377" y2="181.02667" gradientUnits="userSpaceOnUse" id="color-16"><stop offset="0" stop-color="#00167d"/><stop offset="1" stop-color="#00167d" stop-opacity="0"/></linearGradient><linearGradient x1="223.04049" y1="241.85595" x2="132.51723" y2="82.60426" gradientUnits="userSpaceOnUse" id="color-17"><stop offset="0" stop-color="#00167d"/><stop offset="1" stop-color="#00167d" stop-opacity="0"/></linearGradient><linearGradient x1="337.50895" y1="165.13544" x2="188.47741" y2="271.6491" gradientUnits="userSpaceOnUse" id="color-18"><stop offset="0" stop-color="#000000"/><stop offset="1" stop-color="#000000" stop-opacity="0"/></linearGradient><linearGradient x1="202.72347" y1="114.55037" x2="370.23371" y2="188.68451" gradientUnits="userSpaceOnUse" id="color-19"><stop offset="0" stop-color="#000000"/><stop offset="1" stop-color="#000000" stop-opacity="0"/></linearGradient><linearGradient x1="247.34581" y1="291.29254" x2="131.28703" y2="149.56772" gradientUnits="userSpaceOnUse" id="color-20"><stop offset="0" stop-color="#000000"/><stop offset="1" stop-color="#000000" stop-opacity="0"/></linearGradient><linearGradient x1="143.8259" y1="228.54648" x2="202.98051" y2="55.17896" gradientUnits="userSpaceOnUse" id="color-21"><stop offset="0" stop-color="#000000"/><stop offset="1" stop-color="#000000" stop-opacity="0"/></linearGradient><linearGradient x1="344.9103" y1="157.25821" x2="285.69984" y2="330.60667" gradientUnits="userSpaceOnUse" id="color-22"><stop offset="0" stop-color="#000000"/><stop offset="1" stop-color="#000000" stop-opacity="0"/></linearGradient><linearGradient x1="304.30032" y1="156.54961" x2="247.31725" y2="330.64294" gradientUnits="userSpaceOnUse" id="color-23"><stop offset="0" stop-color="#005669"/><stop offset="1" stop-color="#005669" stop-opacity="0"/></linearGradient><linearGradient x1="182.17598" y1="154.42858" x2="355.65624" y2="95.6054" gradientUnits="userSpaceOnUse" id="color-24"><stop offset="0" stop-color="#005669"/><stop offset="1" stop-color="#005669" stop-opacity="0"/></linearGradient><linearGradient x1="280.703" y1="233.9152" x2="111.33236" y2="164.13582" gradientUnits="userSpaceOnUse" id="color-25"><stop offset="0" stop-color="#005669"/><stop offset="1" stop-color="#005669" stop-opacity="0"/></linearGradient><linearGradient x1="198.27368" y1="210.4207" x2="336.87453" y2="90.64853" gradientUnits="userSpaceOnUse" id="color-26"><stop offset="0" stop-color="#005669"/><stop offset="1" stop-color="#005669" stop-opacity="0"/></linearGradient><linearGradient x1="248.41016" y1="257.239" x2="346.81551" y2="174.85436" gradientUnits="userSpaceOnUse" id="color-27"><stop offset="0" stop-color="#00167d"/><stop offset="1" stop-color="#00167d" stop-opacity="0"/></linearGradient><linearGradient x1="205.48089" y1="101.24931" x2="170.09482" y2="224.61325" gradientUnits="userSpaceOnUse" id="color-28"><stop offset="0" stop-color="#00167d"/><stop offset="1" stop-color="#00167d" stop-opacity="0"/></linearGradient><linearGradient x1="186.03028" y1="163.34259" x2="293.46404" y2="93.13697" gradientUnits="userSpaceOnUse" id="color-29"><stop offset="0" stop-color="#00167d"/><stop offset="1" stop-color="#00167d" stop-opacity="0"/></linearGradient><linearGradient x1="276.19052" y1="216.72953" x2="147.90759" y2="220.51537" gradientUnits="userSpaceOnUse" id="color-30"><stop offset="0" stop-color="#00167d"/><stop offset="1" stop-color="#00167d" stop-opacity="0"/></linearGradient><linearGradient x1="266.25549" y1="120.69761" x2="283.29318" y2="247.90042" gradientUnits="userSpaceOnUse" id="color-31"><stop offset="0" stop-color="#000000"/><stop offset="1" stop-color="#000000" stop-opacity="0"/></linearGradient><linearGradient x1="190.71816" y1="187.53705" x2="291.57023" y2="108.16641" gradientUnits="userSpaceOnUse" id="color-32"><stop offset="0" stop-color="#000000"/><stop offset="1" stop-color="#000000" stop-opacity="0"/></linearGradient><linearGradient x1="314.76802" y1="217.90404" x2="188.95653" y2="243.24781" gradientUnits="userSpaceOnUse" id="color-33"><stop offset="0" stop-color="#000000"/><stop offset="1" stop-color="#000000" stop-opacity="0"/></linearGradient><linearGradient x1="241.96099" y1="261.39903" x2="154.04969" y2="167.89798" gradientUnits="userSpaceOnUse" id="color-34"><stop offset="0" stop-color="#000000"/><stop offset="1" stop-color="#000000" stop-opacity="0"/></linearGradient><linearGradient x1="263.80763" y1="113.53138" x2="351.68882" y2="207.06075" gradientUnits="userSpaceOnUse" id="color-35"><stop offset="0" stop-color="#000000"/><stop offset="1" stop-color="#000000" stop-opacity="0"/></linearGradient><linearGradient x1="250.04474" y1="138.43777" x2="339.11783" y2="230.83272" gradientUnits="userSpaceOnUse" id="color-36"><stop offset="0" stop-color="#005669"/><stop offset="1" stop-color="#005669" stop-opacity="0"/></linearGradient><linearGradient x1="208.66235" y1="213.34077" x2="229.16834" y2="86.65082" gradientUnits="userSpaceOnUse" id="color-37"><stop offset="0" stop-color="#005669"/><stop offset="1" stop-color="#005669" stop-opacity="0"/></linearGradient><linearGradient x1="290.1942" y1="178.42918" x2="191.42747" y2="260.38025" gradientUnits="userSpaceOnUse" id="color-38"><stop offset="0" stop-color="#005669"/><stop offset="1" stop-color="#005669" stop-opacity="0"/></linearGradient><linearGradient x1="248.60502" y1="221.74698" x2="219.93754" y2="96.65095" gradientUnits="userSpaceOnUse" id="color-39"><stop offset="0" stop-color="#005669"/><stop offset="1" stop-color="#005669" stop-opacity="0"/></linearGradient><linearGradient x1="295.55514" y1="195.5516" x2="266.99169" y2="120.60427" gradientUnits="userSpaceOnUse" id="color-40"><stop offset="0" stop-color="#00167d"/><stop offset="1" stop-color="#00167d" stop-opacity="0"/></linearGradient><linearGradient x1="194.65363" y1="189.05097" x2="260.29117" y2="235.14518" gradientUnits="userSpaceOnUse" id="color-41"><stop offset="0" stop-color="#00167d"/><stop offset="1" stop-color="#00167d" stop-opacity="0"/></linearGradient><linearGradient x1="227.35641" y1="213.22019" x2="207.83022" y2="135.42749" gradientUnits="userSpaceOnUse" id="color-42"><stop offset="0" stop-color="#00167d"/><stop offset="1" stop-color="#00167d" stop-opacity="0"/></linearGradient><linearGradient x1="277.30178" y1="170.87034" x2="253.33968" y2="247.41308" gradientUnits="userSpaceOnUse" id="color-43"><stop offset="0" stop-color="#00167d"/><stop offset="1" stop-color="#00167d" stop-opacity="0"/></linearGradient><linearGradient x1="218.55217" y1="157.12658" x2="297.16324" y2="173.04094" gradientUnits="userSpaceOnUse" id="color-44"><stop offset="0" stop-color="#000000"/><stop offset="1" stop-color="#000000" stop-opacity="0"/></linearGradient><linearGradient x1="242.60412" y1="215.39236" x2="216.32052" y2="139.61542" gradientUnits="userSpaceOnUse" id="color-45"><stop offset="0" stop-color="#000000"/><stop offset="1" stop-color="#000000" stop-opacity="0"/></linearGradient><linearGradient x1="285.87393" y1="148.32461" x2="275.14957" y2="227.81022" gradientUnits="userSpaceOnUse" id="color-46"><stop offset="0" stop-color="#000000"/><stop offset="1" stop-color="#000000" stop-opacity="0"/></linearGradient><linearGradient x1="296.69518" y1="200.21033" x2="223.5159" y2="233.03964" gradientUnits="userSpaceOnUse" id="color-47"><stop offset="0" stop-color="#000000"/><stop offset="1" stop-color="#000000" stop-opacity="0"/></linearGradient><linearGradient x1="213.81955" y1="157.10886" x2="287.00943" y2="124.30315" gradientUnits="userSpaceOnUse" id="color-48"><stop offset="0" stop-color="#000000"/><stop offset="1" stop-color="#000000" stop-opacity="0"/></linearGradient><linearGradient x1="225.71971" y1="170.3243" x2="298.48293" y2="136.58288" gradientUnits="userSpaceOnUse" id="color-49"><stop offset="0" stop-color="#005669"/><stop offset="1" stop-color="#005669" stop-opacity="0"/></linearGradient><linearGradient x1="261.50951" y1="210.06341" x2="190.86861" y2="172.07879" gradientUnits="userSpaceOnUse" id="color-50"><stop offset="0" stop-color="#005669"/><stop offset="1" stop-color="#005669" stop-opacity="0"/></linearGradient><linearGradient x1="257.53977" y1="154.77738" x2="285.77336" y2="229.84961" gradientUnits="userSpaceOnUse" id="color-51"><stop offset="0" stop-color="#005669"/><stop offset="1" stop-color="#005669" stop-opacity="0"/></linearGradient><linearGradient x1="274.63174" y1="188.18824" x2="194.88999" y2="179.57315" gradientUnits="userSpaceOnUse" id="color-52"><stop offset="0" stop-color="#005669"/><stop offset="1" stop-color="#005669" stop-opacity="0"/></linearGradient><linearGradient x1="189.515" y1="131.53817" x2="189.515" y2="261.62734" gradientUnits="userSpaceOnUse" id="color-53"><stop offset="0" stop-color="#00167d"/><stop offset="1" stop-color="#00167d" stop-opacity="0"/></linearGradient><linearGradient x1="338.68683" y1="199.673" x2="265.83108" y2="91.89901" gradientUnits="userSpaceOnUse" id="color-54"><stop offset="0" stop-color="#00167d"/><stop offset="1" stop-color="#00167d" stop-opacity="0"/></linearGradient><linearGradient x1="303.08293" y1="144.15234" x2="287.74248" y2="273.33385" gradientUnits="userSpaceOnUse" id="color-55"><stop offset="0" stop-color="#00167d"/><stop offset="1" stop-color="#00167d" stop-opacity="0"/></linearGradient><linearGradient x1="202.92348" y1="179.48859" x2="283.45294" y2="77.32109" gradientUnits="userSpaceOnUse" id="color-56"><stop offset="0" stop-color="#00167d"/><stop offset="1" stop-color="#00167d" stop-opacity="0"/></linearGradient><linearGradient x1="284.02603" y1="234.25351" x2="174.07521" y2="164.72646" gradientUnits="userSpaceOnUse" id="color-57"><stop offset="0" stop-color="#000000"/><stop offset="1" stop-color="#000000" stop-opacity="0"/></linearGradient><linearGradient x1="281.22813" y1="132.05287" x2="277.29357" y2="262.08252" gradientUnits="userSpaceOnUse" id="color-58"><stop offset="0" stop-color="#000000"/><stop offset="1" stop-color="#000000" stop-opacity="0"/></linearGradient><linearGradient x1="176.90879" y1="208.70756" x2="239.07489" y2="94.43346" gradientUnits="userSpaceOnUse" id="color-59"><stop offset="0" stop-color="#000000"/><stop offset="1" stop-color="#000000" stop-opacity="0"/></linearGradient><linearGradient x1="190.47813" y1="123.81886" x2="320.35172" y2="116.33225" gradientUnits="userSpaceOnUse" id="color-60"><stop offset="0" stop-color="#000000"/><stop offset="1" stop-color="#000000" stop-opacity="0"/></linearGradient><linearGradient x1="291.18857" y1="237.01394" x2="161.31256" y2="244.45872" gradientUnits="userSpaceOnUse" id="color-61"><stop offset="0" stop-color="#000000"/><stop offset="1" stop-color="#000000" stop-opacity="0"/></linearGradient><linearGradient x1="280.78612" y1="210.11089" x2="151.01628" y2="219.22022" gradientUnits="userSpaceOnUse" id="color-62"><stop offset="0" stop-color="#005669"/><stop offset="1" stop-color="#005669" stop-opacity="0"/></linearGradient><linearGradient x1="249.49693" y1="129.20935" x2="334.61999" y2="227.58239" gradientUnits="userSpaceOnUse" id="color-63"><stop offset="0" stop-color="#005669"/><stop offset="1" stop-color="#005669" stop-opacity="0"/></linearGradient><linearGradient x1="223.57931" y1="215.29401" x2="224.15142" y2="85.20609" gradientUnits="userSpaceOnUse" id="color-64"><stop offset="0" stop-color="#005669"/><stop offset="1" stop-color="#005669" stop-opacity="0"/></linearGradient><linearGradient x1="216.97334" y1="154.78376" x2="332.85405" y2="213.90109" gradientUnits="userSpaceOnUse" id="color-65"><stop offset="0" stop-color="#005669"/><stop offset="1" stop-color="#005669" stop-opacity="0"/></linearGradient><linearGradient x1="286.56559" y1="194.17234" x2="266.28081" y2="140.94742" gradientUnits="userSpaceOnUse" id="color-66"><stop offset="0" stop-color="#00167d"/><stop offset="1" stop-color="#00167d" stop-opacity="0"/></linearGradient><linearGradient x1="214.90894" y1="189.55583" x2="261.52237" y2="222.2903" gradientUnits="userSpaceOnUse" id="color-67"><stop offset="0" stop-color="#00167d"/><stop offset="1" stop-color="#00167d" stop-opacity="0"/></linearGradient><linearGradient x1="238.13327" y1="206.71995" x2="224.26648" y2="151.47435" gradientUnits="userSpaceOnUse" id="color-68"><stop offset="0" stop-color="#00167d"/><stop offset="1" stop-color="#00167d" stop-opacity="0"/></linearGradient><linearGradient x1="273.60269" y1="176.64459" x2="256.58564" y2="231.00252" gradientUnits="userSpaceOnUse" id="color-69"><stop offset="0" stop-color="#00167d"/><stop offset="1" stop-color="#00167d" stop-opacity="0"/></linearGradient><linearGradient x1="231.88082" y1="166.88426" x2="287.70761" y2="178.18607" gradientUnits="userSpaceOnUse" id="color-70"><stop offset="0" stop-color="#000000"/><stop offset="1" stop-color="#000000" stop-opacity="0"/></linearGradient><linearGradient x1="248.96164" y1="208.26254" x2="230.29598" y2="154.44846" gradientUnits="userSpaceOnUse" id="color-71"><stop offset="0" stop-color="#000000"/><stop offset="1" stop-color="#000000" stop-opacity="0"/></linearGradient><linearGradient x1="279.6903" y1="160.63342" x2="272.07426" y2="217.08127" gradientUnits="userSpaceOnUse" id="color-72"><stop offset="0" stop-color="#000000"/><stop offset="1" stop-color="#000000" stop-opacity="0"/></linearGradient><linearGradient x1="287.3752" y1="197.48081" x2="235.40587" y2="220.79502" gradientUnits="userSpaceOnUse" id="color-73"><stop offset="0" stop-color="#000000"/><stop offset="1" stop-color="#000000" stop-opacity="0"/></linearGradient><linearGradient x1="228.51989" y1="166.87168" x2="280.49669" y2="143.57423" gradientUnits="userSpaceOnUse" id="color-74"><stop offset="0" stop-color="#000000"/><stop offset="1" stop-color="#000000" stop-opacity="0"/></linearGradient><linearGradient x1="236.97094" y1="176.25682" x2="288.64481" y2="152.29486" gradientUnits="userSpaceOnUse" id="color-75"><stop offset="0" stop-color="#005669"/><stop offset="1" stop-color="#005669" stop-opacity="0"/></linearGradient><linearGradient x1="262.38759" y1="204.47812" x2="212.22092" y2="177.50279" gradientUnits="userSpaceOnUse" id="color-76"><stop offset="0" stop-color="#005669"/><stop offset="1" stop-color="#005669" stop-opacity="0"/></linearGradient><linearGradient x1="259.56842" y1="165.21594" x2="279.61888" y2="218.52957" gradientUnits="userSpaceOnUse" id="color-77"><stop offset="0" stop-color="#005669"/><stop offset="1" stop-color="#005669" stop-opacity="0"/></linearGradient><linearGradient x1="271.70654" y1="188.94315" x2="215.07679" y2="182.82502" gradientUnits="userSpaceOnUse" id="color-78"><stop offset="0" stop-color="#005669"/><stop offset="1" stop-color="#005669" stop-opacity="0"/></linearGradient><radialGradient cx="244.98179" cy="182.41799" r="57.51319" gradientUnits="userSpaceOnUse" id="color-79"><stop offset="0" stop-color="#000000"/><stop offset="1" stop-color="#030837"/></radialGradient><radialGradient cx="244.98179" cy="182.41799" r="57.51319" gradientUnits="userSpaceOnUse" id="color-80"><stop offset="0" stop-color="#000000"/><stop offset="1" stop-color="#030837"/></radialGradient><linearGradient x1="227.88899" y1="199.42817" x2="227.88899" y2="212.90436" gradientUnits="userSpaceOnUse" id="color-81"><stop offset="0" stop-color="#1f0524"/><stop offset="1" stop-color="#1f0524" stop-opacity="0"/></linearGradient></defs><g transform="translate(-101.45663,-41.6982)"><g data-paper-data="{&quot;isPaintingLayer&quot;:true}" fill-rule="nonzero" stroke-linejoin="miter" stroke-miterlimit="10" stroke-dasharray="" stroke-dashoffset="0" style="mix-blend-mode: normal"><g><g data-paper-data="{&quot;origPos&quot;:null}" stroke="#000000" stroke-width="0" stroke-linecap="round"><g data-paper-data="{&quot;origPos&quot;:null}"><path d="M143.06491,195.71078c6.07221,31.10149 61.93289,94.20777 61.93289,94.20777c0,0 -84.11874,-62.04188 -91.59088,-100.31382c-7.47214,-38.27193 55.82681,-82.86795 55.82681,-82.86795c0,0 -32.24101,57.87251 -26.16882,88.974z" data-paper-data="{&quot;origPos&quot;:null}" fill="url(#color-1)"/><path d="M360.38373,208.46884c0,0 -5.7007,-66.00162 -28.14952,-88.36733c-22.44879,-22.36573 -104.06962,-43.36242 -104.06962,-43.36242c0,0 104.43546,4.28912 132.05982,31.81124c27.62439,27.52209 0.15934,99.91848 0.15934,99.91848z" data-paper-data="{&quot;origPos&quot;:null,&quot;origRot&quot;:0}" fill="url(#color-2)"/><path d="M308.54786,123.28003c0,0 57.59842,51.74924 45.66531,88.87302c-11.93314,37.12375 -102.78112,88.81327 -102.78112,88.81327c0,0 62.9126,-56.07874 72.61001,-86.24716c9.69741,-30.16844 -15.4942,-91.43911 -15.4942,-91.43911z" data-paper-data="{&quot;origPos&quot;:null,&quot;origRot&quot;:0,&quot;index&quot;:null}" fill="url(#color-3)"/><path d="M185.89569,180.65646c0,0 -22.1064,-74.20829 7.45354,-99.64023c29.55994,-25.43194 134.02984,-22.08521 134.02984,-22.08521c0,0 -82.93591,14.98189 -106.95764,35.649c-24.02172,20.66714 -34.52576,86.07643 -34.52576,86.07643z" data-paper-data="{&quot;origPos&quot;:null,&quot;origRot&quot;:0,&quot;index&quot;:null}" fill="url(#color-4)"/><path d="M297.50433,242.63523c0,0 -71.52295,29.66537 -99.87667,2.89526c-28.35374,-26.77011 -35.83344,-131.02565 -35.83344,-131.02565c0,0 23.48205,80.94083 46.52356,102.69541c23.04152,21.75459 89.18657,25.435 89.18657,25.435z" data-paper-data="{&quot;origPos&quot;:null,&quot;origRot&quot;:0,&quot;index&quot;:null}" fill="url(#color-5)"/><path d="M277.70618,107.14886c0,0 61.92119,46.49009 53.29495,84.51852c-8.62627,38.02843 -94.583,97.49774 -94.583,97.49774c0,0 57.74379,-61.3879 64.75386,-92.2915c7.01008,-30.9036 -23.46582,-89.72478 -23.46582,-89.72478z" data-paper-data="{&quot;origPos&quot;:null,&quot;origRot&quot;:0,&quot;index&quot;:null}" fill="url(#color-6)"/><path d="M150.22583,220.34111c0,0 -34.29241,-69.4233 -9.43954,-99.47175c24.85287,-30.04843 128.39336,-44.34974 128.39336,-44.34974c0,0 -79.22645,28.74007 -99.423,53.15877c-20.19655,24.4187 -19.53081,90.6627 -19.53081,90.6627z" data-paper-data="{&quot;origPos&quot;:null,&quot;origRot&quot;:0,&quot;index&quot;:null}" fill="url(#color-7)"/><path d="M160.84697,106.18781c0,0 40.87926,-65.76055 79.51779,-60.50334c38.63853,5.25721 105.41862,85.66605 105.41862,85.66605c0,0 -66.21649,-52.13636 -97.61589,-56.4086c-31.3994,-4.27224 -87.32052,31.24589 -87.32052,31.24589z" data-paper-data="{&quot;origPos&quot;:null,&quot;origRot&quot;:0,&quot;index&quot;:null}" fill="url(#color-8)"/><path d="M301.47324,244.93884c0,0 -40.90046,65.74739 -79.53729,60.47772c-38.63683,-5.26967 -105.39101,-85.69999 -105.39101,-85.69999c0,0 66.19969,52.15769 97.5977,56.44006c31.39801,4.28237 87.33057,-31.21776 87.33057,-31.21776z" data-paper-data="{&quot;origPos&quot;:null,&quot;origRot&quot;:0,&quot;index&quot;:null}" fill="url(#color-9)"/><path d="M286.69307,207.06444c0,0 -40.05413,66.26637 -78.75534,61.49252c-38.7012,-4.77385 -106.4811,-84.34173 -106.4811,-84.34173c0,0 66.86297,51.30463 98.31329,55.18409c31.45035,3.87945 86.92315,-32.33488 86.92315,-32.33488z" data-paper-data="{&quot;origPos&quot;:null,&quot;origRot&quot;:0,&quot;index&quot;:null}" fill="url(#color-10)"/><path d="M235.54037,110.22207c0,0 77.04764,-7.69594 96.44023,26.13454c19.39259,33.83048 -3.62103,135.78896 -3.62103,135.78896c0,0 0.94846,-84.2729 -14.81082,-111.76506c-15.75931,-27.49216 -78.00837,-50.15846 -78.00837,-50.15846z" data-paper-data="{&quot;origPos&quot;:null,&quot;origRot&quot;:0,&quot;index&quot;:null}" fill="url(#color-11)"/><path d="M217.20042,224.72091c0,0 -63.10224,-44.87399 -55.46184,-83.11268c7.64041,-38.2387 92.0312,-99.91003 92.0312,-99.91003c0,0 -56.1377,62.86003 -62.34662,93.93449c-6.20892,31.07448 25.77726,89.08823 25.77726,89.08823z" data-paper-data="{&quot;origPos&quot;:null,&quot;origRot&quot;:0,&quot;index&quot;:null}" fill="url(#color-12)"/><path d="M192.86264,148.67826c0,0 68.49062,-36.11931 99.18683,-12.0711c30.69621,24.04821 47.73515,127.17355 47.73515,127.17355c0,0 -30.8286,-78.43736 -55.77372,-97.98c-24.94512,-19.54264 -91.14824,-17.12245 -91.14824,-17.12245z" data-paper-data="{&quot;origPos&quot;:null,&quot;origRot&quot;:0,&quot;index&quot;:null}" fill="url(#color-13)"/></g><g data-paper-data="{&quot;origPos&quot;:null,&quot;origRot&quot;:0}"><path d="M229.83109,282.09347c31.09675,6.09639 110.60188,-21.86348 110.60188,-21.86348c0,0 -89.16854,54.53559 -127.43464,47.03367c-38.26609,-7.50192 -55.71923,-82.94034 -55.71923,-82.94034c0,0 41.45524,51.67372 72.55199,57.77014z" data-paper-data="{&quot;origPos&quot;:null}" fill="url(#color-14)"/><path d="M323.54723,85.60551c0,0 -63.2837,-19.59296 -92.46045,-7.22804c-29.17677,12.3649 -79.38499,80.05504 -79.38499,80.05504c0,0 43.33042,-95.11907 79.23384,-110.33472c35.90342,-15.21568 92.61157,37.50767 92.61157,37.50767z" data-paper-data="{&quot;origPos&quot;:null,&quot;origRot&quot;:0}" fill="url(#color-15)"/><path d="M225.1045,101.51532c0,0 69.64032,-33.84951 99.52985,-8.80576c29.88951,25.04377 43.53103,128.67326 43.53103,128.67326c0,0 -28.23485,-79.40791 -52.52439,-99.75959c-24.28956,-20.35171 -90.53646,-20.10791 -90.53646,-20.10791z" data-paper-data="{&quot;origPos&quot;:null,&quot;origRot&quot;:0,&quot;index&quot;:null}" fill="url(#color-16)"/><path d="M232.02791,236.74724c0,0 -77.06794,-7.48962 -89.48484,-44.45439c-12.4169,-36.96477 30.05358,-132.47088 30.05358,-132.47088c0,0 -17.37793,82.46715 -7.28741,112.50637c10.09054,30.03922 66.71867,64.41893 66.71867,64.41893z" data-paper-data="{&quot;origPos&quot;:null,&quot;origRot&quot;:0,&quot;index&quot;:null}" fill="url(#color-17)"/><path d="M331.49781,156.72478c0,0 0.52403,77.42928 -34.9577,93.60389c-35.48173,16.17463 -134.86936,-16.18686 -134.86936,-16.18686c0,0 83.82251,8.75263 112.65658,-4.39163c28.83404,-13.14423 57.17051,-73.02544 57.17051,-73.02544z" data-paper-data="{&quot;origPos&quot;:null,&quot;origRot&quot;:0,&quot;index&quot;:null}" fill="url(#color-18)"/><path d="M198.53968,124.00386c0,0 66.398,-39.83552 98.37172,-17.5139c31.97372,22.32164 54.66474,124.35239 54.66474,124.35239c0,0 -35.10048,-76.62098 -61.08374,-94.76053c-25.98326,-18.13955 -91.95272,-12.07799 -91.95272,-12.07799z" data-paper-data="{&quot;origPos&quot;:null,&quot;origRot&quot;:0,&quot;index&quot;:null}" fill="url(#color-19)"/><path d="M255.34408,284.74272c0,0 -77.22817,5.6012 -95.69513,-28.74334c-18.46692,-34.34451 7.30644,-135.6406 7.30644,-135.6406c0,0 -3.2362,84.21609 11.77087,112.12598c15.00706,27.90989 76.61779,52.25794 76.61779,52.25794z" data-paper-data="{&quot;origPos&quot;:null,&quot;origRot&quot;:0,&quot;index&quot;:null}" fill="url(#color-20)"/><path d="M153.60995,231.88489c0,0 -45.5063,-62.64775 -26.0754,-96.45624c19.4309,-33.8085 119.07796,-65.36205 119.07796,-65.36205c0,0 -73.2467,41.68628 -89.03712,69.16056c-15.79042,27.47428 -3.96547,92.65774 -3.96547,92.65774z" data-paper-data="{&quot;origPos&quot;:null,&quot;origRot&quot;:0,&quot;index&quot;:null}" fill="url(#color-21)"/><path d="M335.1273,153.91663c0,0 45.48613,62.66243 26.04431,96.46464c-19.44181,33.80222 -119.099,65.32369 -119.099,65.32369c0,0 73.26012,-41.66268 89.05939,-69.13186c15.79927,-27.46918 3.9953,-92.65643 3.9953,-92.65643z" data-paper-data="{&quot;origPos&quot;:null,&quot;origRot&quot;:0,&quot;index&quot;:null}" fill="url(#color-22)"/><path d="M294.47531,153.33372c0,0 46.28577,62.07407 27.27898,96.1228c-19.00681,34.0487 -118.25168,66.84528 -118.25168,66.84528c0,0 72.71992,-42.59853 88.1657,-70.26803c15.44578,-27.6695 2.807,-92.70005 2.807,-92.70005z" data-paper-data="{&quot;origPos&quot;:null,&quot;origRot&quot;:0,&quot;index&quot;:null}" fill="url(#color-23)"/><path d="M185.49571,164.21896c0,0 21.90765,-74.26723 60.55209,-79.48066c38.64444,-5.21343 124.41266,54.52745 124.41266,54.52745c0,0 -77.70204,-32.6376 -109.10625,-28.40095c-31.40421,4.23668 -75.85853,53.35412 -75.85853,53.35412z" data-paper-data="{&quot;origPos&quot;:null,&quot;origRot&quot;:0,&quot;index&quot;:null}" fill="url(#color-24)"/><path d="M284.64097,224.35672c0,0 -65.34614,41.53853 -97.88616,20.05082c-32.54001,-21.48772 -57.86084,-122.89785 -57.86084,-122.89785c0,0 37.06934,75.68812 63.51278,93.14994c26.44349,17.46185 92.23419,9.69707 92.23419,9.69707z" data-paper-data="{&quot;origPos&quot;:null,&quot;origRot&quot;:0,&quot;index&quot;:null}" fill="url(#color-25)"/><path d="M205.03302,218.24267c0,0 -7.64488,-77.05274 26.19842,-96.42293c33.8433,-19.37019 135.78655,3.71095 135.78655,3.71095c0,0 -84.27225,-1.00428 -111.77485,14.73681c-27.50257,15.7411 -50.21012,77.97514 -50.21012,77.97514z" data-paper-data="{&quot;origPos&quot;:null,&quot;origRot&quot;:0,&quot;index&quot;:null}" fill="url(#color-26)"/></g><g data-paper-data="{&quot;origPos&quot;:null,&quot;origRot&quot;:0}"><path d="M303.32689,225.72799c13.97682,-17.24965 22.7546,-75.63963 22.7546,-75.63963c0,0 4.50285,73.09149 -12.69633,94.31804c-17.19917,21.22655 -69.62441,7.27904 -69.62441,7.27904c0,0 45.58928,-8.70783 59.5661,-25.95748z" data-paper-data="{&quot;origPos&quot;:null}" fill="url(#color-27)"/><path d="M212.44302,103.24636c0,0 -32.89227,32.74615 -34.81095,54.86448c-1.91872,22.11831 23.5102,75.40819 23.5102,75.40819c0,0 -44.66495,-58.0318 -42.30389,-85.24947c2.36103,-27.2177 53.60461,-45.02317 53.60461,-45.02317z" data-paper-data="{&quot;origPos&quot;:null,&quot;origRot&quot;:0}" fill="url(#color-28)"/><path d="M189.99234,169.40564c0,0 1.89528,-54.21573 27.20501,-64.50139c25.30973,-10.28563 93.93558,15.27098 93.93558,15.27098c0,0 -58.41999,-8.57571 -78.98782,-0.21712c-20.56783,8.35859 -42.15274,49.44754 -42.15274,49.44754z" data-paper-data="{&quot;origPos&quot;:null,&quot;origRot&quot;:0,&quot;index&quot;:null}" fill="url(#color-29)"/><path d="M275.97686,209.48984c0,0 -29.92256,45.25019 -56.87896,40.8084c-26.95643,-4.44179 -72.14308,-62.06824 -72.14308,-62.06824c0,0 45.34809,37.81523 67.25406,41.42483c21.90598,3.6096 61.768,-20.16496 61.768,-20.16496z" data-paper-data="{&quot;origPos&quot;:null,&quot;origRot&quot;:0,&quot;index&quot;:null}" fill="url(#color-30)"/><path d="M259.07674,121.65911c0,0 48.10317,25.08038 46.4741,52.35167c-1.62904,27.27129 -54.27124,78.17756 -54.27124,78.17756c0,0 32.92059,-49.01708 34.24442,-71.17896c1.32383,-22.16188 -26.44729,-59.35029 -26.44729,-59.35029z" data-paper-data="{&quot;origPos&quot;:null,&quot;origRot&quot;:0,&quot;index&quot;:null}" fill="url(#color-31)"/><path d="M195.19747,193.22867c0,0 -2.87407,-54.17266 21.43441,-66.64166c24.30848,-12.46897 94.91383,6.96117 94.91383,6.96117c0,0 -58.94745,-3.41126 -78.70161,6.72159c-19.75417,10.13286 -37.64663,52.9589 -37.64663,52.9589z" data-paper-data="{&quot;origPos&quot;:null,&quot;origRot&quot;:0,&quot;index&quot;:null}" fill="url(#color-32)"/><path d="M313.33774,210.80383c0,0 -21.87148,49.64451 -49.19093,49.80759c-27.31944,0.16308 -81.56864,-49.02703 -81.56864,-49.02703c0,0 51.07068,29.63486 73.27166,29.50234c22.20098,-0.13252 57.48788,-30.28291 57.48788,-30.28291z" data-paper-data="{&quot;origPos&quot;:null,&quot;origRot&quot;:0,&quot;index&quot;:null}" fill="url(#color-33)"/><path d="M247.23773,256.43774c0,0 -53.71175,7.61494 -68.26496,-15.50607c-14.55321,-23.12105 -1.39137,-95.15861 -1.39137,-95.15861c0,0 1.77268,59.01946 13.59928,77.80865c11.82658,18.78919 56.05705,32.85603 56.05705,32.85603z" data-paper-data="{&quot;origPos&quot;:null,&quot;origRot&quot;:0,&quot;index&quot;:null}" fill="url(#color-34)"/><path d="M258.52928,118.49101c0,0 53.7142,-7.59765 68.25997,15.52808c14.54576,23.1257 1.36073,95.15903 1.36073,95.15903c0,0 -1.75368,-59.02004 -13.57419,-77.81303c-11.82054,-18.79298 -56.04648,-32.87409 -56.04648,-32.87409z" data-paper-data="{&quot;origPos&quot;:null,&quot;origRot&quot;:0,&quot;index&quot;:null}" fill="url(#color-35)"/><path d="M244.83039,143.46465c0,0 53.61238,-8.28568 68.45343,14.65161c14.84107,22.93731 2.58064,95.13378 2.58064,95.13378c0,0 -2.51024,-58.9927 -14.57075,-77.63259c-12.0605,-18.6399 -56.46335,-32.1528 -56.46335,-32.1528z" data-paper-data="{&quot;origPos&quot;:null,&quot;origRot&quot;:0,&quot;index&quot;:null}" fill="url(#color-36)"/><path d="M215.81216,214.49803c0,0 -38.78586,-37.92886 -29.33379,-63.56156c9.45207,-25.6327 74.57445,-59.12482 74.57445,-59.12482c0,0 -45.69802,37.39159 -53.37919,58.22187c-7.68118,20.83031 8.13853,64.46454 8.13853,64.46454z" data-paper-data="{&quot;origPos&quot;:null,&quot;origRot&quot;:0,&quot;index&quot;:null}" fill="url(#color-37)"/><path d="M285.56927,172.85527c0,0 4.27342,54.08031 -19.70463,67.17343c-23.97808,13.09313 -95.06207,-4.50544 -95.06207,-4.50544c0,0 59.01596,1.88638 78.50158,-8.75368c19.48565,-10.64009 36.26512,-53.91432 36.26512,-53.91432z" data-paper-data="{&quot;origPos&quot;:null,&quot;origRot&quot;:0,&quot;index&quot;:null}" fill="url(#color-38)"/><path d="M255.66484,220.12912c0,0 -50.20646,-20.54881 -51.09314,-47.85435c-0.88668,-27.30552 46.84918,-82.83869 46.84918,-82.83869c0,0 -28.27167,51.83775 -27.55112,74.02744c0.72056,22.1897 31.79504,56.66558 31.79504,56.66558z" data-paper-data="{&quot;origPos&quot;:null,&quot;origRot&quot;:0,&quot;index&quot;:null}" fill="url(#color-39)"/></g><g data-paper-data="{&quot;origPos&quot;:null,&quot;origRot&quot;:0}"><path d="M288.15855,156.68011c-7.33405,-11.77809 -40.02912,-28.88716 -40.02912,-28.88716c0,0 44.09065,12.26732 53.11554,26.76084c9.02489,14.49353 -9.91953,42.60981 -9.91953,42.60981c0,0 4.1671,-28.70539 -3.16693,-40.48348z" data-paper-data="{&quot;origPos&quot;:null}" fill="url(#color-40)"/><path d="M197.25497,185.34667c0,0 12.624,26.1151 25.29622,31.76542c12.67222,5.65032 49.34072,1.51384 49.34072,1.51384c0,0 -43.39772,14.52972 -58.99151,7.57671c-15.59379,-6.95298 -15.64545,-40.85597 -15.64545,-40.85597z" data-paper-data="{&quot;origPos&quot;:null,&quot;origRot&quot;:0}" fill="url(#color-41)"/><path d="M231.74667,212.11824c0,0 -31.63515,-12.19148 -32.54151,-29.24109c-0.90636,-17.04962 28.20342,-52.36384 28.20342,-52.36384c0,0 -16.99584,32.7541 -16.25929,46.60937c0.73655,13.85527 20.59738,34.99557 20.59738,34.99557z" data-paper-data="{&quot;origPos&quot;:null,&quot;origRot&quot;:0,&quot;index&quot;:null}" fill="url(#color-42)"/><path d="M272.98209,169.51804c0,0 20.6159,26.91466 12.48729,41.92921c-8.12861,15.01455 -51.39348,29.9352 -51.39348,29.9352c0,0 31.59642,-19.06189 38.20211,-31.26337c6.60567,-12.2015 0.70407,-40.60104 0.70407,-40.60104z" data-paper-data="{&quot;origPos&quot;:null,&quot;origRot&quot;:0,&quot;index&quot;:null}" fill="url(#color-43)"/><path d="M217.65403,161.56303c0,0 24.63732,-23.28989 40.41225,-16.7583c15.77493,6.53158 35.09174,48.02058 35.09174,48.02058c0,0 -22.22856,-29.45474 -35.04798,-34.76259c-12.81943,-5.30785 -40.45603,3.50032 -40.45603,3.50032z" data-paper-data="{&quot;origPos&quot;:null,&quot;origRot&quot;:0,&quot;index&quot;:null}" fill="url(#color-44)"/><path d="M246.8806,213.90903c0,0 -32.58372,-9.36569 -34.98413,-26.26981c-2.40039,-16.90412 23.49508,-54.63867 23.49508,-54.63867c0,0 -14.05321,34.12032 -12.10253,47.85736c1.95068,13.73704 23.59159,33.05114 23.59159,33.05114z" data-paper-data="{&quot;origPos&quot;:null,&quot;origRot&quot;:0,&quot;index&quot;:null}" fill="url(#color-45)"/><path d="M281.38809,147.71941c0,0 24.8556,23.05678 19.3727,39.22615c-5.48292,16.16938 -45.61564,38.16566 -45.61564,38.16566c0,0 27.93341,-24.1125 32.38908,-37.25245c4.45566,-13.13994 -6.14612,-40.13934 -6.14612,-40.13934z" data-paper-data="{&quot;origPos&quot;:null,&quot;origRot&quot;:0,&quot;index&quot;:null}" fill="url(#color-46)"/><path d="M294.84246,196.08044c0,0 -6.47139,33.27968 -23.0998,37.15363c-16.62838,3.87393 -56.48904,-18.61169 -56.48904,-18.61169c0,0 35.22154,11.00606 48.73452,7.8579c13.51298,-3.14813 30.85432,-26.39984 30.85432,-26.39984z" data-paper-data="{&quot;origPos&quot;:null,&quot;origRot&quot;:0,&quot;index&quot;:null}" fill="url(#color-47)"/><path d="M215.67098,161.2394c0,0 6.48212,-33.27759 23.11175,-37.14617c16.62963,-3.86859 56.48302,18.62987 56.48302,18.62987c0,0 -35.21798,-11.01741 -48.73198,-7.87362c-13.514,3.14379 -30.8628,26.38993 -30.8628,26.38993z" data-paper-data="{&quot;origPos&quot;:null,&quot;origRot&quot;:0,&quot;index&quot;:null}" fill="url(#color-48)"/><path d="M227.62391,174.43069c0,0 6.05494,-33.35795 22.6336,-37.43945c16.57866,-4.08147 56.71723,17.90416 56.71723,17.90416c0,0 -35.35633,-10.56496 -48.82891,-7.24816c-13.47257,3.31679 -30.52193,26.78345 -30.52193,26.78345z" data-paper-data="{&quot;origPos&quot;:null,&quot;origRot&quot;:0,&quot;index&quot;:null}" fill="url(#color-49)"/><path d="M263.65316,206.07678c0,0 -30.32338,15.16274 -43.53289,4.34515c-13.2095,-10.81759 -19.69199,-56.12156 -19.69199,-56.12156c0,0 12.75256,34.62745 23.4872,43.41829c10.73463,8.79084 39.73767,8.35811 39.73767,8.35811z" data-paper-data="{&quot;origPos&quot;:null,&quot;origRot&quot;:0,&quot;index&quot;:null}" fill="url(#color-50)"/><path d="M253.30306,156.37074c0,0 32.81495,8.52031 35.65149,25.35673c2.83654,16.83642 -22.07487,55.22776 -22.07487,55.22776c0,0 13.16653,-34.47219 10.86145,-48.15419c-2.30511,-13.68203 -24.43804,-32.43027 -24.43804,-32.43027z" data-paper-data="{&quot;origPos&quot;:null,&quot;origRot&quot;:0,&quot;index&quot;:null}" fill="url(#color-51)"/><path d="M275.11796,183.68801c0,0 -22.39031,25.45764 -38.69924,20.40496c-16.30893,-5.05268 -39.36056,-44.58869 -39.36056,-44.58869c0,0 24.84398,27.2849 38.09733,31.39094c13.25336,4.10602 39.96244,-7.20721 39.96244,-7.20721z" data-paper-data="{&quot;origPos&quot;:null,&quot;origRot&quot;:0,&quot;index&quot;:null}" fill="url(#color-52)"/></g></g><g data-paper-data="{&quot;origPos&quot;:null}" stroke="#000000" stroke-width="0" stroke-linecap="round"><path d="M178.27246,194.72433c4.31227,22.08717 43.98253,66.903 43.98253,66.903c0,0 -59.73813,-44.05994 -65.04458,-71.2393c-5.30645,-27.17936 39.64622,-58.84987 39.64622,-58.84987c0,0 -22.89642,41.09899 -18.58417,63.18617z" data-paper-data="{&quot;origPos&quot;:null}" fill="url(#color-53)"/><path d="M332.60456,203.78465c0,0 -4.04843,-46.872 -19.99079,-62.75533c-15.94234,-15.88335 -73.90654,-30.79445 -73.90654,-30.79445c0,0 74.16635,3.04598 93.78418,22.59121c19.61786,19.54521 0.11316,70.95855 0.11316,70.95855z" data-paper-data="{&quot;origPos&quot;:null,&quot;origRot&quot;:0}" fill="url(#color-54)"/><path d="M295.79256,143.28659c0,0 40.90435,36.75047 32.42988,63.11445c-8.47449,26.36397 -72.99149,63.07203 -72.99149,63.07203c0,0 44.67829,-39.82513 51.56504,-61.24966c6.88675,-21.42455 -11.00342,-64.93679 -11.00342,-64.93679z" data-paper-data="{&quot;origPos&quot;:null,&quot;origRot&quot;:0,&quot;index&quot;:null}" fill="url(#color-55)"/><path d="M208.68935,184.03329c0,0 -15.69918,-52.70009 5.29323,-70.76094c20.99242,-18.06085 95.18322,-15.68413 95.18322,-15.68413c0,0 -58.89813,10.6396 -75.95751,25.31666c-17.05937,14.67707 -24.51896,61.12842 -24.51896,61.12842z" data-paper-data="{&quot;origPos&quot;:null,&quot;origRot&quot;:0,&quot;index&quot;:null}" fill="url(#color-56)"/><path d="M287.94982,228.0484c0,0 -50.79306,21.06729 -70.92885,2.05612c-20.13581,-19.01117 -25.44764,-93.04975 -25.44764,-93.04975c0,0 16.67611,57.4813 33.03938,72.93063c16.36327,15.44934 63.33713,18.06303 63.33713,18.06303z" data-paper-data="{&quot;origPos&quot;:null,&quot;origRot&quot;:0,&quot;index&quot;:null}" fill="url(#color-57)"/><path d="M273.88988,131.83081c0,0 43.97423,33.01561 37.84818,60.02205c-6.12607,27.00644 -67.16948,69.23942 -67.16948,69.23942c0,0 41.00758,-43.5955 45.98589,-65.54214c4.97831,-21.94664 -16.66459,-63.71935 -16.66459,-63.71935z" data-paper-data="{&quot;origPos&quot;:null,&quot;origRot&quot;:0,&quot;index&quot;:null}" fill="url(#color-58)"/><path d="M183.35788,212.21592c0,0 -24.35325,-49.30195 -6.70363,-70.6413c17.64963,-21.33932 91.18039,-31.49561 91.18039,-31.49561c0,0 -56.26381,20.41017 -70.60668,37.75147c-14.34287,17.34129 -13.87009,64.38543 -13.87009,64.38543z" data-paper-data="{&quot;origPos&quot;:null,&quot;origRot&quot;:0,&quot;index&quot;:null}" fill="url(#color-59)"/><path d="M190.90064,131.14831c0,0 29.03099,-46.70081 56.47071,-42.96732c27.43971,3.73349 74.86455,60.83698 74.86455,60.83698c0,0 -47.0246,-37.02539 -69.32333,-40.05938c-22.29873,-3.03399 -62.01193,22.18972 -62.01193,22.18972z" data-paper-data="{&quot;origPos&quot;:null,&quot;origRot&quot;:0,&quot;index&quot;:null}" fill="url(#color-60)"/><path d="M290.76841,229.68435c0,0 -29.04605,46.69146 -56.48455,42.94913c-27.4385,-3.74233 -74.84494,-60.86108 -74.84494,-60.86108c0,0 47.01266,37.04053 69.31041,40.08172c22.29775,3.04119 62.01906,-22.16975 62.01906,-22.16975z" data-paper-data="{&quot;origPos&quot;:null,&quot;origRot&quot;:0,&quot;index&quot;:null}" fill="url(#color-61)"/><path d="M280.27203,202.78729c0,0 -28.44502,47.06002 -55.92924,43.6698c-27.48422,-3.39022 -75.61908,-59.89649 -75.61908,-59.89649c0,0 47.4837,36.43472 69.8186,39.18977c22.33492,2.75505 61.72973,-22.96308 61.72973,-22.96308z" data-paper-data="{&quot;origPos&quot;:null,&quot;origRot&quot;:0,&quot;index&quot;:null}" fill="url(#color-62)"/><path d="M243.94523,134.0133c0,0 54.71649,-5.46538 68.48842,18.55982c13.77193,24.0252 -2.57153,96.43248 -2.57153,96.43248c0,0 0.67357,-59.84762 -10.51812,-79.37157c-11.1917,-19.52395 -55.39877,-35.62075 -55.39877,-35.62075z" data-paper-data="{&quot;origPos&quot;:null,&quot;origRot&quot;:0,&quot;index&quot;:null}" fill="url(#color-63)"/><path d="M230.92085,215.32629c0,0 -44.81297,-31.86791 -39.38702,-59.02367c5.42594,-27.15576 65.35728,-70.95254 65.35728,-70.95254c0,0 -39.867,44.64095 -44.27635,66.70893c-4.40935,22.06799 18.3061,63.26729 18.3061,63.26729z" data-paper-data="{&quot;origPos&quot;:null,&quot;origRot&quot;:0,&quot;index&quot;:null}" fill="url(#color-64)"/><path d="M213.63703,161.32351c0,0 48.6396,-25.65065 70.43896,-8.57246c21.79936,17.07818 33.89981,90.31413 33.89981,90.31413c0,0 -21.89337,-55.70342 -39.60851,-69.58191c-17.71513,-13.87849 -64.73024,-12.15975 -64.73024,-12.15975z" data-paper-data="{&quot;origPos&quot;:null,&quot;origRot&quot;:0,&quot;index&quot;:null}" fill="url(#color-65)"/></g><g data-paper-data="{&quot;origPos&quot;:null,&quot;origRot&quot;:0}" stroke="#000000" stroke-width="0" stroke-linecap="round"><path d="M281.31276,166.5672c-5.20838,-8.36438 -28.42725,-20.51464 -28.42725,-20.51464c0,0 31.31161,8.71181 37.72077,19.0046c6.40916,10.29278 -7.04449,30.25997 -7.04449,30.25997c0,0 2.95932,-20.38555 -2.24904,-28.74993z" data-paper-data="{&quot;origPos&quot;:null}" fill="url(#color-66)"/><path d="M216.75632,186.92517c0,0 8.96512,18.54601 17.96448,22.55867c8.99937,4.01266 35.04002,1.07507 35.04002,1.07507c0,0 -30.81952,10.31848 -41.89367,5.38071c-11.07416,-4.93776 -11.11084,-29.01446 -11.11084,-29.01446z" data-paper-data="{&quot;origPos&quot;:null,&quot;origRot&quot;:0}" fill="url(#color-67)"/><path d="M241.25108,205.93738c0,0 -22.46616,-8.65796 -23.10982,-20.76599c-0.64366,-12.10803 20.02907,-37.18693 20.02907,-37.18693c0,0 -12.06984,23.2608 -11.54677,33.10032c0.52307,9.83952 14.62752,24.85261 14.62752,24.85261z" data-paper-data="{&quot;origPos&quot;:null,&quot;origRot&quot;:0,&quot;index&quot;:null}" fill="url(#color-68)"/><path d="M270.53501,175.68424c0,0 14.64068,19.11384 8.86803,29.77663c-5.77265,10.66279 -36.49782,21.25891 -36.49782,21.25891c0,0 22.43865,-13.53708 27.12978,-22.20213c4.69111,-8.66507 0.50001,-28.83341 0.50001,-28.83341z" data-paper-data="{&quot;origPos&quot;:null,&quot;origRot&quot;:0,&quot;index&quot;:null}" fill="url(#color-69)"/><path d="M231.24298,170.03487c0,0 17.49655,-16.53964 28.69934,-11.90115c11.2028,4.6385 24.92091,34.1025 24.92091,34.1025c0,0 -15.78593,-20.9177 -24.88983,-24.68715c-9.1039,-3.76945 -28.73043,2.4858 -28.73043,2.4858z" data-paper-data="{&quot;origPos&quot;:null,&quot;origRot&quot;:0,&quot;index&quot;:null}" fill="url(#color-70)"/><path d="M251.99864,207.20914c0,0 -23.13979,-6.65118 -24.84448,-18.65588c-1.70467,-12.0047 16.68536,-38.80244 16.68536,-38.80244c0,0 -9.98009,24.23104 -8.59479,33.9866c1.3853,9.75556 16.75391,23.47174 16.75391,23.47174z" data-paper-data="{&quot;origPos&quot;:null,&quot;origRot&quot;:0,&quot;index&quot;:null}" fill="url(#color-71)"/><path d="M276.50467,160.20363c0,0 17.65155,16.3741 13.7578,27.85701c-3.89377,11.48292 -32.3946,27.10389 -32.3946,27.10389c0,0 19.83731,-17.12384 23.00157,-26.45536c3.16425,-9.33152 -4.36475,-28.50553 -4.36475,-28.50553z" data-paper-data="{&quot;origPos&quot;:null,&quot;origRot&quot;:0,&quot;index&quot;:null}" fill="url(#color-72)"/><path d="M286.05947,194.54791c0,0 -4.59575,23.63404 -16.40465,26.38519c-11.80888,2.75113 -40.11651,-13.21736 -40.11651,-13.21736c0,0 25.01308,7.81611 34.60952,5.5804c9.59644,-2.23569 21.91164,-18.74823 21.91164,-18.74823z" data-paper-data="{&quot;origPos&quot;:null,&quot;origRot&quot;:0,&quot;index&quot;:null}" fill="url(#color-73)"/><path d="M229.8347,169.80504c0,0 4.60337,-23.63256 16.41315,-26.37989c11.80977,-2.74733 40.11223,13.23027 40.11223,13.23027c0,0 -25.01055,-7.82418 -34.60771,-5.59157c-9.59716,2.23261 -21.91767,18.74118 -21.91767,18.74118z" data-paper-data="{&quot;origPos&quot;:null,&quot;origRot&quot;:0,&quot;index&quot;:null}" fill="url(#color-74)"/><path d="M238.32323,179.17303c0,0 4.30001,-23.68963 16.07358,-26.58816c11.77357,-2.89852 40.27856,12.7149 40.27856,12.7149c0,0 -25.10881,-7.50285 -34.67655,-5.14739c-9.56774,2.35547 -21.67559,19.02065 -21.67559,19.02065z" data-paper-data="{&quot;origPos&quot;:null,&quot;origRot&quot;:0,&quot;index&quot;:null}" fill="url(#color-75)"/><path d="M263.90993,201.64695c0,0 -21.53459,10.76804 -30.91551,3.08577c-9.38092,-7.68227 -13.98455,-39.85553 -13.98455,-39.85553c0,0 9.05642,24.59118 16.67977,30.83412c7.62335,6.24294 28.22028,5.93564 28.22028,5.93564z" data-paper-data="{&quot;origPos&quot;:null,&quot;origRot&quot;:0,&quot;index&quot;:null}" fill="url(#color-76)"/><path d="M256.55966,166.3475c0,0 23.30401,6.05082 25.31842,18.00744c2.01441,11.95663 -15.67679,39.22079 -15.67679,39.22079c0,0 9.3504,-24.48092 7.71342,-34.19739c-1.63701,-9.71649 -17.35503,-23.03082 -17.35503,-23.03082z" data-paper-data="{&quot;origPos&quot;:null,&quot;origRot&quot;:0,&quot;index&quot;:null}" fill="url(#color-77)"/><path d="M272.05181,185.74725c0,0 -15.9008,18.07911 -27.48283,14.49087c-11.58202,-3.58823 -27.95247,-31.6653 -27.95247,-31.6653c0,0 17.64331,19.37676 27.05537,22.29273c9.41206,2.91595 28.3799,-5.1183 28.3799,-5.1183z" data-paper-data="{&quot;origPos&quot;:null,&quot;origRot&quot;:0,&quot;index&quot;:null}" fill="url(#color-78)"/></g><path d="M187.46862,182.41799c0,-31.76366 25.74953,-57.51319 57.51319,-57.51319c31.76366,0 57.51319,25.74953 57.51319,57.51319c0,31.76366 -25.74953,57.51319 -57.51319,57.51319c-31.76366,0 -57.51319,-25.74953 -57.51319,-57.51319z" data-paper-data="{&quot;origPos&quot;:null}" fill="url(#color-79)" stroke="#000000" stroke-width="0" stroke-linecap="butt"/><path d="M187.46862,182.41799c0,-31.76366 25.74953,-57.51319 57.51319,-57.51319c31.76366,0 57.51319,25.74953 57.51319,57.51319c0,31.76366 -25.74953,57.51319 -57.51319,57.51319c-31.76366,0 -57.51319,-25.74953 -57.51319,-57.51319z" data-paper-data="{&quot;origPos&quot;:null}" fill="url(#color-80)" stroke="#000000" stroke-width="0" stroke-linecap="butt"/><path d="M241.19072,153.86806z" data-paper-data="{&quot;origPos&quot;:null}" fill="none" stroke="#988033" stroke-width="0.5" stroke-linecap="butt"/><path d="M146.91344,155.67499z" data-paper-data="{&quot;origPos&quot;:null}" fill="none" stroke="#988033" stroke-width="0.5" stroke-linecap="butt"/><path d="M228.39372,212.90184c-0.88499,0.0447 -0.85235,-0.52042 -0.85235,-0.52042l-0.19861,-0.43998c-0.8351,-1.96473 -0.70691,-3.92328 -0.70691,-6.00928c0,-1.93452 -0.12668,-3.88493 0.25351,-5.78587c0,0 0.17379,-0.86891 1.0427,-0.69513c0.86891,0.17378 0.69513,1.04269 0.69513,1.04269c-0.39636,1.98177 -0.21909,4.06655 -0.21909,6.08813c0,1.55746 -0.17602,3.19251 0.54997,4.63031l0.19861,0.43998c0,0 0.12204,1.20487 -0.76295,1.24956z" data-paper-data="{&quot;origPos&quot;:null,&quot;index&quot;:null}" fill="url(#color-81)" stroke="none" stroke-width="0.5" stroke-linecap="butt"/></g></g></g></svg>