<svg version="1.1" xmlns="http://www.w3.org/2000/svg" xmlns:xlink="http://www.w3.org/1999/xlink" width="281.44854" height="394.89826" viewBox="0,0,281.44854,394.89826"><g transform="translate(-98.86368,-7.62149)"><g data-paper-data="{&quot;isPaintingLayer&quot;:true}" fill-rule="nonzero" stroke-linejoin="miter" stroke-miterlimit="10" stroke-dasharray="" stroke-dashoffset="0" style="mix-blend-mode: normal"><path d="M312.65533,193.36057c0,0 -2.55961,3.15104 -3.53593,12.50607c-0.85727,8.2143 0.76888,23.37045 0.76888,23.37045l31.41731,25.9607l-10.37769,9.15265l-34.31456,-26.45567c0,0 -5.25777,-10.31656 -6.66581,-20.1299c-1.55704,-10.85169 -0.83318,-19.66407 -0.83318,-19.66407" fill="#ffe9cc" stroke="#000000" stroke-width="2.5" stroke-linecap="round"/><path d="M336.03946,249.81201c0,0 33.92513,7.70381 36.89886,10.90573c4.22446,4.5486 -17.66665,-0.05288 -17.66665,-0.05288c0,0 3.19847,2.89402 8.00309,4.71933c6.86633,2.60856 17.09189,-0.50501 15.65004,12.16099c-1.78885,15.71417 -44.28752,-3.16063 -51.34895,-15.06062" fill="#ffe9cc" stroke="#000000" stroke-width="2.5" stroke-linecap="round"/><path d="M208.41667,282.90486l-7.5,-59l69.5,2.5v56.5z" fill="#ffffff" stroke="#000000" stroke-width="2.5" stroke-linecap="butt"/><path d="M254.48553,251.95355c0,0 41.68177,-5.88669 62.45913,11.37097c20.77736,17.25766 17.18177,47.18773 18.65661,66.5108c0.96642,12.66196 -2.88268,26.15727 -2.30506,36.94808c0.01429,0.26686 14.96415,8.89969 11.0028,13.53927c-11.48754,13.45439 -54.56327,5.35901 -55.17003,3.94172c-6.82186,-15.93492 4.66307,-36.53191 5.33321,-51.5098c0.44398,-9.92316 -1.70356,-29.6144 -1.70356,-29.6144c0,0 -22.15324,-12.62392 -33.2869,-16.42672c-10.21362,-3.48855 -30.99329,-5.52873 -30.99329,-5.52873" data-paper-data="{&quot;index&quot;:null}" fill="#ffffff" stroke="#000000" stroke-width="2.5" stroke-linecap="round"/><path d="M228.68312,254.33631c0,0 10.70139,40.71243 -4.01883,63.35843c-14.72022,22.64598 -44.86536,22.5609 -63.88514,26.27629c-12.46322,2.43461 -26.31499,0.18352 -36.96509,2.01406c-0.26338,0.04527 -7.09621,15.89886 -12.16561,12.50486c-14.7008,-9.84229 -11.67765,-53.56773 -10.34067,-54.33543c15.0319,-8.63142 36.8264,0.37637 51.7804,-0.70256c9.90734,-0.71481 29.21443,-5.14122 29.21443,-5.14122c0,0 9.95778,-23.47281 12.43792,-34.9736c2.27521,-10.55042 1.88124,-31.42629 1.88124,-31.42629" fill="#ffffff" stroke="#000000" stroke-width="2.5" stroke-linecap="round"/><path d="M308.27403,32.81401c1.55459,11.13229 -13.40836,14.10904 -31.64638,16.65593c-18.23803,2.54689 -36.28697,2.27572 -37.84158,-8.85657c-1.55459,-11.13229 13.97384,-28.91014 32.21188,-31.45702c18.23803,-2.54689 35.72148,12.52537 37.27608,23.65768z" data-paper-data="{&quot;origRot&quot;:0}" fill="#2c1500" stroke="#000000" stroke-width="2.5" stroke-linecap="butt"/><path d="M316.39251,172.89705c-7.35638,26.32364 -50.75157,7.46043 -61.29302,3.89663c-6.73075,-2.2755 -61.58035,-2.76053 -53.07578,-28.73597c2.44192,-7.45838 23.88857,-7.72536 31.56432,-6.09041c12.35914,2.6325 6.44783,9.81724 17.37238,3.46643c1.77989,-1.03472 5.08131,-14.23896 6.62913,-15.59649c4.6435,-4.07259 6.28064,-3.36228 15.40575,-0.69479c0,0 4.50991,0.49648 4.92517,7.12359c0.26946,4.30023 -2.48863,16.46644 -2.38293,20.7738c0,0 5.92738,-4.31289 17.25468,1.88498c-2.93287,-1.65292 -0.22994,-6.26627 23.60031,13.9722z" data-paper-data="{&quot;origRot&quot;:0}" fill="#ffe9cc" stroke="#000000" stroke-width="2.5" stroke-linecap="butt"/><path d="M194.35434,230.89303c0,0 13.61151,-42.44459 16.18778,-56.50708c0.7362,-4.01854 -18.28081,-12.76933 -17.74172,-14.59963c1.61726,-5.49089 8.2523,-13.66508 15.26046,-17.72853c2.23946,-1.29849 1.17819,4.94258 10.1607,10.83651c3.23435,2.39525 8.40263,3.69763 11.09271,0.70404c3.02396,-3.36515 1.4952,-13.87835 4.89727,-10.896c10.35646,-0.29754 18.30778,-0.13079 18.30778,-0.13079c0,0 -7.04222,19.18254 5.36317,22.80895c13.84694,4.04778 16.16389,-14.21295 19.44187,-15.01259c0.69671,0.6108 16.65438,7.10896 17.59826,7.6945c0.31462,0.19517 -0.75787,10.67328 0.20534,13.32513c1.86328,5.12999 8.73304,3.99074 11.84962,3.02417c4.80321,-1.48967 9.28924,-3.10191 9.0523,-2.6039c0.56121,0.96598 5.25812,14.11751 6.97246,19.33141c-6.34271,11.57373 -24.46333,1.92274 -26.40225,8.48176c-6.08933,20.59944 -19.71706,56.56494 -19.71706,56.56494c0,0 -16.89727,2.96563 -29.06502,-0.76348c-4.05591,-1.24305 -53.4637,-24.52948 -53.4637,-24.52948z" data-paper-data="{&quot;origRot&quot;:0}" fill="#fffeae" stroke="#000000" stroke-width="2.5" stroke-linecap="butt"/><path d="M215.45978,199.22954c-0.19664,0.67268 -0.49235,1.17816 -0.66053,1.12897c-0.16815,-0.04915 -0.14509,-0.63432 0.05154,-1.30699c0.19664,-0.67268 0.49237,-1.17815 0.66055,-1.12897c0.16815,0.04915 0.14509,0.63433 -0.05155,1.30699z" data-paper-data="{&quot;origRot&quot;:0}" fill="#e7e69d" stroke="none" stroke-width="2.5" stroke-linecap="butt"/><path d="M330.72856,119.44296c-11.96892,27.50505 -57.61391,28.86812 -68.53522,23.40343c-6.97329,-3.48923 -41.17073,-39.83334 -28.00622,-66.78659c23.87256,-48.87712 43.87394,-39.82934 70.53313,-27.84941c26.65917,11.97992 49.37039,17.54565 26.00831,71.23257z" data-paper-data="{&quot;origRot&quot;:0}" fill="#ffe9cc" stroke="#000000" stroke-width="2.5" stroke-linecap="butt"/><path d="M336.65493,113.89956c-0.20009,0.44524 2.80241,-19.17182 3.58543,-18.64437c-16.13306,0.86321 -14.528,0.99677 -30.53997,-1.1567c-52.00664,-6.99442 18.70242,-7.93241 1.7865,-15.51054c-0.06272,-0.02809 -51.6289,-2.58877 -51.69161,-2.61694c-2.41699,-1.08612 -33.36781,18.62008 -35.3059,16.81304c-5.81421,-5.42114 23.48096,-65.47203 47.34882,-65.11396c30.81625,0.46232 48.22462,8.73158 62.37801,21.58063c22.56523,20.48568 7.04942,54.3886 2.43873,64.64888z" data-paper-data="{&quot;origRot&quot;:0}" fill="#2c1500" stroke="#000000" stroke-width="2.5" stroke-linecap="butt"/><path d="M292.32408,98.4416c1.47854,-4.48876 4.93097,-7.38524 7.71123,-6.46946c2.78025,0.91578 3.8355,5.29702 2.35696,9.78579c-1.47854,4.48876 -4.93097,7.38524 -7.71123,6.46946c-2.78025,-0.91578 -3.8355,-5.29702 -2.35696,-9.78579z" fill="#000000" stroke="none" stroke-width="0" stroke-linecap="butt"/><path d="M324.41194,107.09008c1.47854,-4.48876 4.93099,-7.38525 7.71124,-6.46948c2.78025,0.91578 3.83549,5.29705 2.35695,9.78581c-1.47854,4.48876 -4.93097,7.38524 -7.71123,6.46946c-2.78025,-0.91578 -3.83551,-5.29702 -2.35697,-9.78579z" fill="#000000" stroke="none" stroke-width="0" stroke-linecap="butt"/><path d="M206.68314,166.36238c0,0 -2.7071,-3.02528 -11.79041,-5.46725c-7.9757,-2.1442 -23.19843,-2.93286 -23.19843,-2.93286l-30.59802,26.92148l-7.39824,-11.69332l31.54449,-29.70416c0,0 11.01763,-3.56191 20.93018,-3.40196c10.9614,0.17687 19.54876,2.28383 19.54876,2.28383" fill="#ffe9cc" stroke="#000000" stroke-width="2.5" stroke-linecap="round"/><path d="M211.86448,173.23241l-11.53718,1.46406c0,0 -14.68941,-12.34134 -15.34582,-18.9701c-0.59488,-6.00742 1.7741,-18.13864 1.7741,-18.13864l22.46552,3.71487" fill="#fffeae" stroke="#000000" stroke-width="2.5" stroke-linecap="round"/><path d="M147.24638,180.5346c0,0 -12.96659,32.28204 -16.59809,34.7126c-5.15886,3.45282 2.8432,-17.43644 2.8432,-17.43644c0,0 -3.36297,2.70111 -5.9244,7.15702c-3.66055,6.36801 -2.20152,16.95704 -14.48067,13.5323c-15.23423,-4.24892 10.11752,-43.23205 22.98364,-48.32483" fill="#ffe9cc" stroke="#000000" stroke-width="2.5" stroke-linecap="round"/><path d="M301.39082,127.45715c-1.12908,2.72052 -4.43993,3.93173 -7.39498,2.70532c-2.95505,-1.22642 -4.43529,-4.42605 -3.30621,-7.14657c1.12908,-2.72052 4.43993,-3.93173 7.39498,-2.70532c2.95505,1.22642 4.43529,4.42605 3.30621,7.14657z" fill="#2c1500" stroke="none" stroke-width="0" stroke-linecap="butt"/><path d="M164.825,394.57071c0.3024,0.62003 0.41296,1.4786 -0.31456,2.46289c-0.13047,0.17652 -0.26499,0.32609 -0.40184,0.45208l0.62684,0.39288c0.72449,0.43781 1.20883,1.23295 1.20883,2.1412c0,1.38071 -1.11929,2.5 -2.5,2.5c-0.41989,0 -0.81561,-0.10352 -1.16302,-0.28642l-4.42715,-2.21358l0.01065,-0.02131c-3.40789,-1.78929 -6.59063,-3.68276 -9.78352,-5.9634c-6.80461,-4.98153 -12.52491,-11.5028 -18.60026,-17.51902c-3.14549,-2.31801 -6.31998,-4.59683 -9.48412,-6.89222c-2.59782,-1.88456 -5.25414,-3.51713 -7.40542,-5.80381l-0.17156,0.11438l-1.98104,-2.97156c-0.27681,-0.40239 -0.43883,-0.88987 -0.43883,-1.41519c0,-1.38071 1.11929,-2.5 2.5,-2.5c0.57191,0 1.09897,0.19204 1.5202,0.51515l1.97658,1.48244c1.00222,-0.16954 1.88996,0.42228 1.88996,0.42228c2.73861,1.82574 5.74351,3.50189 8.3205,5.547c1.62229,1.28746 3.13326,2.69438 4.62532,4.12321c0.21247,-0.05871 0.43628,-0.09008 0.66743,-0.09008c0.34826,0 0.67989,0.07121 0.98112,0.19986l2.26855,0.90742c0.27947,-0.07251 0.55693,-0.0327 0.83036,0.06742c0.28474,-0.11275 0.59512,-0.1747 0.91997,-0.1747c0.69036,0 1.31536,0.27982 1.76777,0.73223l1.18243,1.18243c2.91324,2.90091 5.9164,5.30265 9.07875,7.46322c2.42566,1.55433 4.91667,3.03415 7.37428,4.54122c1.15751,0.65453 2.33892,1.30354 3.54688,1.95689c1.18561,0.64127 2.36615,1.33573 3.55841,2.001c0.16989,0.0285 0.33695,0.07298 0.49149,0.12299c1.05091,0.34015 1.93047,0.93717 2.81883,1.48857c0.70382,0.15054 1.52108,0.1627 1.78846,0.76176l2.26712,0.90685c0.94948,0.35452 1.62559,1.26971 1.62559,2.34282c0,1.38071 -1.11929,2.5 -2.5,2.5c-0.29691,0 -0.58173,-0.05176 -0.84593,-0.14675l-2.67059,-0.8902c-0.38185,0.03599 -0.77187,-0.18437 -1.15848,-0.43997z" fill="#ffffff" stroke="none" stroke-width="0.5" stroke-linecap="butt"/></g></g></svg>