<svg version="1.1" xmlns="http://www.w3.org/2000/svg" xmlns:xlink="http://www.w3.org/1999/xlink" width="241.51361" height="435.18853" viewBox="0,0,241.51361,435.18853"><defs><linearGradient x1="230.36392" y1="281.06122" x2="230.36392" y2="398.59923" gradientUnits="userSpaceOnUse" id="color-1"><stop offset="0" stop-color="#00c7c6"/><stop offset="1" stop-color="#67ff26"/></linearGradient><linearGradient x1="221.37589" y1="364.26185" x2="221.37589" y2="435.03307" gradientUnits="userSpaceOnUse" id="color-2"><stop offset="0" stop-color="#907900"/><stop offset="1" stop-color="#67ff26"/></linearGradient><linearGradient x1="265.38786" y1="280.06122" x2="265.38786" y2="397.59923" gradientUnits="userSpaceOnUse" id="color-3"><stop offset="0" stop-color="#00c7c6"/><stop offset="1" stop-color="#67ff26"/></linearGradient><linearGradient x1="274.37589" y1="363.26185" x2="274.37589" y2="434.03307" gradientUnits="userSpaceOnUse" id="color-4"><stop offset="0" stop-color="#907900"/><stop offset="1" stop-color="#67ff26"/></linearGradient><linearGradient x1="245.42977" y1="11.56754" x2="245.42977" y2="155.74398" gradientUnits="userSpaceOnUse" id="color-5"><stop offset="0" stop-color="#fff8d5"/><stop offset="1" stop-color="#67ff26"/></linearGradient><linearGradient x1="244.75818" y1="-6.22731" x2="244.75818" y2="124.09086" gradientUnits="userSpaceOnUse" id="color-6"><stop offset="0" stop-color="#000000"/><stop offset="1" stop-color="#67ff26"/></linearGradient><linearGradient x1="272.71386" y1="66.24073" x2="272.71386" y2="118.7558" gradientUnits="userSpaceOnUse" id="color-7"><stop offset="0" stop-color="#000000"/><stop offset="1" stop-color="#00ff16"/></linearGradient><linearGradient x1="220.00497" y1="65.60008" x2="220.00497" y2="118.11515" gradientUnits="userSpaceOnUse" id="color-8"><stop offset="0" stop-color="#000000"/><stop offset="1" stop-color="#00ff16"/></linearGradient><linearGradient x1="343.25221" y1="115.12649" x2="343.25221" y2="189.48674" gradientUnits="userSpaceOnUse" id="color-9"><stop offset="0" stop-color="#3fbf5b"/><stop offset="1" stop-color="#52f75b"/></linearGradient><linearGradient x1="354.59132" y1="131.11288" x2="354.59132" y2="154.98262" gradientUnits="userSpaceOnUse" id="color-10"><stop offset="0" stop-color="#000000"/><stop offset="1" stop-color="#00ff16"/></linearGradient><linearGradient x1="334.3249" y1="131.61226" x2="334.3249" y2="155.482" gradientUnits="userSpaceOnUse" id="color-11"><stop offset="0" stop-color="#000000"/><stop offset="1" stop-color="#00ff16"/></linearGradient></defs><g transform="translate(-131.38413,-0.09454)"><g data-paper-data="{&quot;isPaintingLayer&quot;:true}" fill-rule="nonzero" stroke-linejoin="miter" stroke-miterlimit="10" stroke-dasharray="" stroke-dashoffset="0" style="mix-blend-mode: normal"><path d="M218.94343,398.59923v-117.53801h22.84099v117.53801z" data-paper-data="{&quot;index&quot;:null}" fill="url(#color-1)" stroke="#004040" stroke-width="0.5" stroke-linecap="butt"/><path d="M238.4101,365.60925c0,0 -0.32324,-7.10398 -0.45575,-10.34627c-0.32334,-7.91185 -1.30992,-55.97934 -1.30992,-55.97934l4.16854,1.17103l0.35881,66.01343z" data-paper-data="{&quot;origRot&quot;:0,&quot;index&quot;:null}" fill="#00e4e4" stroke="none" stroke-width="0" stroke-linecap="butt"/><g data-paper-data="{&quot;index&quot;:null}" stroke="#1b1600" stroke-width="0.5"><path d="M247.30456,431.67187c-17.47821,2.89096 -33.14147,3.3612 -33.14147,3.3612c-18.37779,0 -24.98442,-16.5779 -13.21531,-25.58449c4.02536,-3.08054 11.84753,-6.92845 11.84753,-6.92845c0,0 0.95131,-23.42092 0.70927,-34.37735c-0.08286,-3.75134 31.91058,-6.56721 32.54512,0.33029c1.10151,11.97346 2.27434,63.03018 1.25488,63.19879z" data-paper-data="{&quot;origPos&quot;:null}" fill="url(#color-2)" stroke-linecap="butt"/><path d="M206.80025,405.63801c0,0 0.91034,-1.87954 5.36787,-2.74873c4.45742,-0.86923 13.90787,0.78676 13.90787,0.78676" data-paper-data="{&quot;origPos&quot;:null}" fill="none" stroke-linecap="round"/></g><path d="M244.5523,431.70971c0,0 0.15183,-36.36498 -0.05843,-47.80345c-0.2584,-14.05694 -1.86301,-17.52536 -1.86301,-17.52536l2.88217,0.48038l1.20089,64.60827z" data-paper-data="{&quot;index&quot;:null}" fill="#b19300" stroke="none" stroke-width="0" stroke-linecap="butt"/><g data-paper-data="{&quot;index&quot;:null,&quot;origRot&quot;:0}" stroke-width="0.5" stroke-linecap="butt"><path d="M340.42014,53.71206c8.68286,3.7716 12.47713,14.29885 8.47464,23.51334c-4.00248,9.21445 -14.28596,13.6269 -22.96882,9.85531c-8.68288,-3.77161 -12.47708,-14.29882 -8.47464,-23.51334c4.00247,-9.21445 14.28596,-13.62688 22.96886,-9.8553z" data-paper-data="{&quot;origPos&quot;:null}" fill="#fff8d5" stroke="#45433a"/><path d="M273.40609,171.57639c0,0 22.64581,-31.4934 31.45718,-54.09647c8.81135,-22.60306 10.97467,-51.51341 10.97467,-51.51341c0,0 10.92809,-1.68316 18.74841,0.08727c7.82032,1.77046 16.36822,7.86278 16.36822,7.86278c0,0 -8.20345,37.3812 -18.44834,59.1691c-10.24491,21.78788 -26.83217,46.91804 -33.06324,52.6138c-6.65329,6.08172 -16.12116,10.49719 -32.25785,2.29411z" data-paper-data="{&quot;origRot&quot;:0,&quot;origPos&quot;:null}" fill="#67ff26" stroke="#183b09"/></g><g data-paper-data="{&quot;index&quot;:null,&quot;origRot&quot;:0}" stroke-width="0.5" stroke-linecap="butt"><path d="M138.96982,68.38614c7.85962,-5.27675 18.77059,-2.79275 24.37037,5.54801c5.59976,8.34084 3.76784,19.37997 -4.09175,24.65673c-7.85957,5.27675 -18.77055,2.79274 -24.37034,-5.54802c-5.5998,-8.34081 -3.76782,-19.37998 4.09175,-24.65673z" data-paper-data="{&quot;origPos&quot;:null}" fill="#fff8d5" stroke="#45433a"/><path d="M235.2375,187.24494c-14.39119,10.98074 -24.50048,8.34656 -32.14216,3.5655c-7.15672,-4.47763 -28.00712,-26.20141 -42.0161,-45.7825c-14.00895,-19.5811 -28.82431,-54.86787 -28.82431,-54.86787c0,0 7.30798,-7.53501 14.68034,-10.68782c7.37237,-3.15277 18.42478,-3.46957 18.42478,-3.46957c0,0 7.34557,28.04515 20.09166,48.68675c12.74611,20.64161 40.70401,47.53069 40.70401,47.53069z" data-paper-data="{&quot;origRot&quot;:0,&quot;origPos&quot;:null}" fill="#67ff26" stroke="#183b09"/></g><path d="M249.36507,156.46239c-77.39066,-1.90696 -78.09973,-50.33027 -78.09973,-50.33027c0,0 18.8597,-37.6857 62.15536,-37.6857c43.29566,0 82.14878,29.95544 82.14878,29.95544c0,0 -3.84229,60.6555 -66.20441,58.06053z" data-paper-data="{&quot;index&quot;:null}" fill="#2b1702" stroke="#0f0801" stroke-width="1" stroke-linecap="butt"/><path d="M253.96737,397.59923v-117.53801h22.84099v117.53801z" data-paper-data="{&quot;index&quot;:null}" fill="url(#color-3)" stroke="#004040" stroke-width="0.5" stroke-linecap="butt"/><path d="M254.58001,365.4681l0.35881,-66.01343l4.16854,-1.17103c0,0 -0.98658,48.06749 -1.30992,55.97934c-0.13251,3.24229 -0.45575,10.34627 -0.45575,10.34627z" data-paper-data="{&quot;origRot&quot;:0}" fill="#00e4e4" stroke="none" stroke-width="0" stroke-linecap="butt"/><g data-paper-data="{&quot;index&quot;:null}" stroke="#1b1600" stroke-width="0.5"><path d="M248.44721,430.67186c-1.01946,-0.16861 0.15337,-51.22533 1.25488,-63.19879c0.63454,-6.8975 32.62798,-4.08163 32.54512,-0.33029c-0.24204,10.95643 0.70927,34.37735 0.70927,34.37735c0,0 7.82217,3.84791 11.84753,6.92845c11.76911,9.00659 5.16248,25.58449 -13.21531,25.58449c0,0 -15.66326,-0.47024 -33.14147,-3.3612z" data-paper-data="{&quot;origPos&quot;:null}" fill="url(#color-4)" stroke-linecap="butt"/><path d="M269.6758,402.67604c0,0 9.45045,-1.65599 13.90787,-0.78676c4.45753,0.86919 5.36787,2.74873 5.36787,2.74873" data-paper-data="{&quot;origPos&quot;:null}" fill="none" stroke-linecap="round"/></g><path d="M227.80945,176.03469c0,0 0,-8.463 0,-13.87975c0,-10.40439 0,-26.65993 0,-26.65993h35.32745v40.53968z" data-paper-data="{&quot;index&quot;:null}" fill="#fff8d5" stroke="#514f44" stroke-width="0.5" stroke-linecap="butt"/><path d="M262.49109,153.69102v14.61241l-17.73927,0.74822l-3.37679,-17.24839z" data-paper-data="{&quot;index&quot;:null}" fill="#d4ceb2" stroke="#000000" stroke-width="0" stroke-linecap="butt"/><path d="M218.26237,166.16845c5.84676,-0.2012 18.28287,0.36938 28.93246,0.46479c10.64961,0.09541 29.09328,-0.72524 29.09328,-0.72524c0,0 3.99514,123.97461 0.50292,127.37902c-4.39569,4.28519 -27.36769,6.68752 -39.13541,6.68752c-17.18406,0 -20.10138,-0.39785 -22.05943,-5.81291c-2.6983,-7.46222 2.6662,-127.99318 2.6662,-127.99318z" data-paper-data="{&quot;index&quot;:null}" fill="#67ff26" stroke="#183b09" stroke-width="0.5" stroke-linecap="butt"/><path d="M243.04473,299.1178l0.11696,-132.27199l4.05394,-0.00026c0,0 -0.05313,61.39849 -0.08713,100.69665c-0.01163,13.44788 -0.02981,31.57562 -0.02981,31.57562z" data-paper-data="{&quot;index&quot;:null}" fill="#82a19f" stroke="#2b3434" stroke-width="0.25" stroke-linecap="butt"/><path d="M211.0399,190.82381l5.19514,-24.244l11.33486,1.73171v22.51229z" data-paper-data="{&quot;index&quot;:null}" fill="#67ff26" stroke="none" stroke-width="0" stroke-linecap="butt"/><path d="M322.82977,83.65576c0,39.81323 -34.65317,72.08822 -77.4,72.08822c-42.7468,0 -77.4,-32.27501 -77.4,-72.08822c0,-39.81323 34.65317,-72.08822 77.4,-72.08822c42.7468,0 77.4,32.27499 77.4,72.08822z" data-paper-data="{&quot;index&quot;:null}" fill="url(#color-5)" stroke="#514f44" stroke-width="0.5" stroke-linecap="butt"/><path d="M302.92252,65.68061l20.32294,11.79585c0,0 -22.47732,4.12758 -26.10569,-0.5021c-3.6284,-4.62968 -11.51257,-19.90625 -19.99085,-23.03097c-8.95896,-3.30187 -13.69163,1.12359 -23.15459,1.4991c-8.60316,0.34141 -13.74195,-3.50175 -22.02582,-0.97867c-4.6091,1.40382 -17.11212,11.89893 -17.11212,11.89893l0.05363,-13.86259c0,0 0.78828,13.17416 -4.39366,19.13258c-5.18193,5.95845 -15.46039,3.69649 -15.46039,3.69649l7.51846,-13.35965c0,0 -3.7284,4.78889 -7.3405,12.61084c-3.61208,7.82196 12.03412,-49.92364 14.85142,-54.61642c5.09024,-8.47872 60.9225,7.96962 74.00613,7.08221c8.90278,-0.60383 18.83102,38.63439 18.83102,38.63439z" data-paper-data="{&quot;index&quot;:null}" fill="#8a7967" stroke="#000000" stroke-width="0" stroke-linecap="butt"/><path d="M170.36332,102.03493v-19.72941h150.75291v19.72941z" data-paper-data="{&quot;index&quot;:null}" fill="#000000" stroke="#000000" stroke-width="0" stroke-linecap="butt"/><path d="M299.49321,70.15619c-3.16854,-5.96666 -7.26886,-19.90625 -16.39628,-23.03097c-9.64489,-3.30187 -14.73986,1.12356 -24.92736,1.49908c-9.26185,0.34141 -14.79405,-3.50175 -23.71216,-0.97867c-8.91811,2.52308 -18.42228,11.89893 -18.42228,11.89893l0.05776,-13.86259c0,0 0.84863,13.17416 -4.73005,19.13261c-5.5787,5.95845 -16.64407,3.69649 -16.64407,3.69649l8.0941,-13.35965c0,0 -4.01386,4.78889 -7.9025,12.61084c-3.88864,7.82196 -11.23277,18.51577 -17.87236,30.05855c-6.63962,11.54279 3.62684,33.45968 3.62684,33.45968c0,0 -10.90667,-22.90419 -11.90918,-25.39794c-0.10488,-0.26095 -3.68173,-10.12991 -3.65023,-18.59456c0.06433,-17.28812 0.57183,-36.1885 0.57183,-36.1885c0,0 2.43476,-17.1453 5.46778,-21.83806c5.47995,-8.47872 8.988,-10.53416 16.21676,-15.61704c7.22874,-5.08286 21.66336,-10.72209 23.22158,-7.92368c1.69659,3.04688 -12.60743,6.94058 -12.51638,6.91174c5.72845,-1.81435 23.89371,-12.6723 43.45281,-12.00874c19.55909,0.66353 57.32037,13.09191 55.70867,16.1421c-1.17668,1.62417 -12.82075,-3.87268 -12.82075,-3.87268c0,0 24.75868,10.99058 29.33497,24.60744c4.73359,14.08495 7.97476,21.99322 9.52689,36.77104c0.80053,7.62196 0.81028,11.99824 -0.26501,19.58629c-3.15263,22.24734 -5.58728,16.42901 -5.58728,16.42901c0,0 -14.77215,-9.48722 -13.18672,-23.365c0,0 -1.56881,-10.79904 -4.73737,-16.76572z" data-paper-data="{&quot;index&quot;:null}" fill="url(#color-6)" stroke="#0f0801" stroke-width="1" stroke-linecap="butt"/><path d="M258.33426,113.88501c0,-5.7026 0,-23.72027 0,-41.05352c0,-1.26055 2.64631,-3.22997 2.64631,-3.22997c0,0 13.51638,-3.36079 22.47031,-3.36079c1.42156,0 3.64258,2.3101 3.64258,3.78868c0,17.22427 0,38.75946 0,44.13501c0,1.79181 -2.22104,4.59138 -3.64258,4.59138c0,0 -17.31823,0 -21.52415,0c-1.402,0 -3.59243,-2.96989 -3.59243,-4.87075z" data-paper-data="{&quot;index&quot;:null}" fill="url(#color-7)" stroke="#00360a" stroke-width="0" stroke-linecap="butt"/><path d="M234.43816,135.60854h19.9072" data-paper-data="{&quot;index&quot;:null}" fill="none" stroke="#000000" stroke-width="0.5" stroke-linecap="round"/><path d="M234.38453,113.2444c0,1.90086 -2.19043,4.87075 -3.59243,4.87075c-4.20592,0 -21.52415,0 -21.52415,0c-1.42154,0 -3.64258,-2.79955 -3.64258,-4.59138c0,-5.37555 0,-26.91075 0,-44.13501c0,-1.47859 2.22102,-3.78868 3.64258,-3.78868c8.95395,0 22.47031,3.36079 22.47031,3.36079c0,0 2.64631,1.96943 2.64631,3.22997c0,17.33326 0,35.35092 0,41.05352z" data-paper-data="{&quot;index&quot;:null}" fill="url(#color-8)" stroke="#00360a" stroke-width="0" stroke-linecap="butt"/><path d="M269.84966,192.26809v-25.33819l11.13874,-0.60097l4.53712,25.16178z" data-paper-data="{&quot;index&quot;:null}" fill="#67ff26" stroke="none" stroke-width="0" stroke-linecap="butt"/><path d="M137.04367,87.42884c0,0 17.933,41.29926 30.20508,56.87285c16.11761,20.45367 41.83872,48.02492 41.83872,48.02492c0,0 -1.9149,4.46787 -15.40536,-10.48152c-15.35666,-17.01741 -10.6018,-9.6755 -28.65801,-32.90733c-13.55926,-17.44589 -32.12618,-58.07612 -32.12618,-58.07612z" data-paper-data="{&quot;index&quot;:null}" fill="#b7ff97" stroke="none" stroke-width="0" stroke-linecap="butt"/><path d="M216.08524,293.95154c0,0 -0.6176,-9.49727 -0.6176,-15.37833c0,-17.64325 2.09301,-87.19201 2.09301,-87.19201l1.70869,0.17155l0.58331,106.10443z" fill="#b7ff97" stroke="none" stroke-width="0" stroke-linecap="butt"/><path d="M249.03787,430.46955l1.20089,-64.60827l2.88217,-0.48038c0,0 -1.60461,3.46842 -1.86301,17.52536c-0.21026,11.43847 -0.05843,47.80345 -0.05843,47.80345z" fill="#b19300" stroke="none" stroke-width="0" stroke-linecap="butt"/><path d="M267.65178,295.86613c0,0 3.2258,-6.2566 3.90692,-25.94133c0.72488,-20.9486 4.73954,-78.17647 4.73954,-78.17647c0,0 1.44108,42.61587 1.44108,69.89221c0,12.65399 -1.44108,32.42423 -1.44108,32.42423z" fill="#56d420" stroke="none" stroke-width="0" stroke-linecap="butt"/><g><path d="M313.60668,156.31128c0,-18.32231 29.64553,-46.07937 29.64553,-46.07937c0,0 29.64553,26.75514 29.64553,46.07937c0,19.32422 -13.27275,33.17546 -29.64552,33.17546c-16.37277,0 -29.64553,-14.85316 -29.64553,-33.17547z" data-paper-data="{&quot;origPos&quot;:null,&quot;index&quot;:null}" fill="url(#color-9)" stroke="#0066ff" stroke-width="0" stroke-linecap="butt"/><g data-paper-data="{&quot;index&quot;:null}"><g data-paper-data="{&quot;origPos&quot;:null}" stroke="#ffffff" stroke-width="0" stroke-linecap="butt"><path d="M354.59133,154.98262c-2.70441,0 -4.89678,-5.34343 -4.89678,-11.93487c0,-3.92115 -0.08456,-4.15458 0.9281,-6.33023c0.68963,-1.48162 1.88811,-5.60464 3.96868,-5.60464c5.13572,0 4.89676,5.34343 4.89676,11.93487c0,6.59144 -2.19235,11.93487 -4.89676,11.93487z" data-paper-data="{&quot;index&quot;:null}" fill="url(#color-10)"/><path d="M334.32491,155.482c-2.70441,0 -4.89678,-5.34343 -4.89678,-11.93487c0,-3.35009 -0.23896,-11.93487 4.89678,-11.93487c2.19316,0 3.15648,3.72112 3.82652,5.35108c0.89899,2.18691 1.07024,2.80717 1.07024,6.58379c0,6.59144 -2.19235,11.93487 -4.89676,11.93487z" data-paper-data="{&quot;index&quot;:null}" fill="url(#color-11)"/></g><path d="M344.81422,166.36719l-7.38827,-1.65364" fill="none" stroke="#268436" stroke-width="2.5" stroke-linecap="round"/></g></g></g></g></svg>