<svg version="1.1" xmlns="http://www.w3.org/2000/svg" xmlns:xlink="http://www.w3.org/1999/xlink" width="235.93821" height="423.22657" viewBox="0,0,235.93821,423.22657"><defs><linearGradient x1="265.18536" y1="79.89922" x2="270.80732" y2="6.87259" gradientUnits="userSpaceOnUse" id="color-1"><stop offset="0" stop-color="#fde6d9"/><stop offset="1" stop-color="#f7d9c8"/></linearGradient><linearGradient x1="249.41632" y1="329.02661" x2="289.17514" y2="-187.42103" gradientUnits="userSpaceOnUse" id="color-2"><stop offset="0" stop-color="#000000"/><stop offset="1" stop-color="#000000" stop-opacity="0"/></linearGradient><linearGradient x1="277.20573" y1="13.25478" x2="277.58903" y2="-4.83573" gradientUnits="userSpaceOnUse" id="color-3"><stop offset="0" stop-color="#f7dac9"/><stop offset="1" stop-color="#fde6d9"/></linearGradient><linearGradient x1="192.40101" y1="75.3511" x2="199.46039" y2="2.44938" gradientUnits="userSpaceOnUse" id="color-4"><stop offset="0" stop-color="#fde6d9"/><stop offset="1" stop-color="#f7d9c8"/></linearGradient><linearGradient x1="164.95928" y1="323.46412" x2="214.8835" y2="-192.10014" gradientUnits="userSpaceOnUse" id="color-5"><stop offset="0" stop-color="#000000"/><stop offset="1" stop-color="#000000" stop-opacity="0"/></linearGradient><linearGradient x1="193.00029" y1="7.51304" x2="194.34571" y2="-10.53144" gradientUnits="userSpaceOnUse" id="color-6"><stop offset="0" stop-color="#f7dac9"/><stop offset="1" stop-color="#fde6d9"/></linearGradient><linearGradient x1="231.37859" y1="73.38903" x2="229.29531" y2="107.15543" gradientUnits="userSpaceOnUse" id="color-7"><stop offset="0" stop-color="#d2a991"/><stop offset="1" stop-color="#fde6d9"/></linearGradient><radialGradient cx="231.41649" cy="77.26043" r="43.92048" gradientUnits="userSpaceOnUse" id="color-8"><stop offset="0" stop-color="#fde6d9"/><stop offset="1" stop-color="#f7d9c8"/></radialGradient><linearGradient x1="245.93722" y1="72.77502" x2="246.14614" y2="73.48569" gradientUnits="userSpaceOnUse" id="color-9"><stop offset="0" stop-color="#ecc6b1"/><stop offset="1" stop-color="#ecc6b1" stop-opacity="0"/></linearGradient><linearGradient x1="239.5434" y1="63.44549" x2="242.3532" y2="63.76235" gradientUnits="userSpaceOnUse" id="color-10"><stop offset="0" stop-color="#f4d7c8" stop-opacity="0"/><stop offset="1" stop-color="#f4d7c8"/></linearGradient><linearGradient x1="242.71654" y1="72.26561" x2="242.60148" y2="72.99397" gradientUnits="userSpaceOnUse" id="color-11"><stop offset="0" stop-color="#ecc6b1"/><stop offset="1" stop-color="#ecc6b1" stop-opacity="0"/></linearGradient><linearGradient x1="241.73837" y1="44.18788" x2="237.88877" y2="68.54821" gradientUnits="userSpaceOnUse" id="color-12"><stop offset="0" stop-color="#f9ddce" stop-opacity="0"/><stop offset="1" stop-color="#f9ddce"/></linearGradient><linearGradient x1="453.2155" y1="-1801.24017" x2="82.21345" y2="1488.79177" gradientUnits="userSpaceOnUse" id="color-13"><stop offset="0" stop-color="#2a221e"/><stop offset="1" stop-color="#2a221e" stop-opacity="0"/></linearGradient></defs><g transform="translate(-182.09337,33.0238)"><g data-paper-data="{&quot;isPaintingLayer&quot;:true}" fill-rule="nonzero" stroke-linejoin="miter" stroke-miterlimit="10" stroke-dasharray="" stroke-dashoffset="0" style="mix-blend-mode: normal"><g data-paper-data="{&quot;origRot&quot;:0,&quot;index&quot;:null}" stroke="none" stroke-width="0" stroke-linecap="butt"><g data-paper-data="{&quot;origPos&quot;:null}"><path d="M271.9997,10.16667c1.50836,0.11612 9.09254,2.76098 9.09254,2.76098l-0.69007,8.96372l-12.97606,-0.99897l1.08567,-8.72632c0,0 1.20872,-2.1749 3.48792,-1.99943z" data-paper-data="{&quot;origPos&quot;:null}" fill="#000000"/><path d="M264.19591,38.34989c2.40671,-11.11895 3.14701,-20.0375 7.64355,-28.09028c2.40681,-4.3103 5.47176,-3.97457 6.91535,0.75487c2.77138,9.07944 0.93489,20.96241 -0.36776,31.40855c-1.16804,9.36672 1.50321,11.83268 -1.70569,30.51605c-1.71156,12.08179 -25.06992,7.38383 -22.58898,-4.55784c2.48093,-11.94168 7.69686,-18.9124 10.10355,-30.03137z" data-paper-data="{&quot;origPos&quot;:null}" fill="url(#color-1)"/><g data-paper-data="{&quot;origPos&quot;:null}"><path d="M280.27979,14.76698l0.16929,7.1082l-13.05642,-0.7982l1.43082,-9.91669c0,0 1.9344,3.38673 4.96226,3.98451z" data-paper-data="{&quot;origPos&quot;:null}" fill="url(#color-2)"/><path d="M280.9079,17.50381c0,0 -0.3691,39.36771 -3.78313,53.43276c-2.08157,8.57567 -3.63514,10.97092 -12.08833,9.38962c-8.04637,-1.26205 -11.32133,-5.76028 -11.40427,-11.74245c-0.08292,-5.98217 15.43909,-56.81364 15.43909,-56.81364c0,0 0.03551,5.49061 3.44839,6.19778c3.62245,0.75061 8.38829,-0.46406 8.38829,-0.46406z" data-paper-data="{&quot;origPos&quot;:null,&quot;origRot&quot;:0}" fill="#1e4994"/></g></g><g data-paper-data="{&quot;origPos&quot;:null,&quot;origRot&quot;:0}"><path d="M243.71347,112.7044c-1.75492,-9.85033 1.24064,-11.40145 3.68704,-21.11685c5.82516,-23.13341 5.89874,-22.22612 9.62682,-29.68111c4.53267,-9.06394 22.52438,-0.71483 20.03243,9.15412c-1.37516,5.44606 -2.44846,18.52792 -3.84601,23.96794c-4.78405,18.62228 -14.75624,29.62229 -22.0164,31.28683c-7.65527,1.7551 -6.58625,-8.57272 -7.48384,-13.6109z" data-paper-data="{&quot;origPos&quot;:null,&quot;origRot&quot;:0}" fill="#2152a6"/><path d="M253.3967,126.08355c0.00141,-6.06127 -0.40855,-13.07176 0.81079,-17.82145c4.21311,-16.41143 8.69247,-32.74839 13.21087,-49.07454c5.62687,1.67546 10.90489,6.8238 9.47932,12.46953c-1.37516,5.44608 -2.44846,18.52794 -3.84601,23.96796c-4.28301,16.6718 -12.72424,27.23442 -19.655,30.45852z" data-paper-data="{&quot;origPos&quot;:null,&quot;origRot&quot;:0}" fill="#000000"/></g><g data-paper-data="{&quot;origPos&quot;:null}"><g data-paper-data="{&quot;origPos&quot;:null,&quot;origRot&quot;:0,&quot;index&quot;:null}" fill="#ead0c0"><path d="M270.43115,3.96966c0,0 -0.22487,-3.77766 -0.02694,-6.68322c0.10385,-1.52464 -0.45154,-3.57645 -0.35799,-4.10505c0.28929,-1.6347 -0.03396,-2.15947 1.79426,-2.37692c1.63866,-0.1949 2.29906,0.7497 2.4753,2.28365c0.10593,0.92195 0.69421,1.72118 0.82364,2.64031c0.22448,1.59399 1.80724,5.55034 1.80724,5.55034c0,0 -5.01737,2.49541 -6.51552,2.69089z" data-paper-data="{&quot;origRot&quot;:0,&quot;origPos&quot;:null,&quot;index&quot;:null}"/><path d="M273.47449,-11.35543c0.77267,2.87304 1.05059,3.25601 0.66108,5.00584c-0.13267,0.59598 -1.29801,0.72265 -1.29801,0.72265c-1.41267,0.36522 -2.75502,1.08385 -2.75266,-0.84172c0.00177,-1.45147 -0.36404,-2.6504 -0.68236,-3.83403c-0.11518,-0.42831 -0.58225,-1.52914 -0.74762,-1.94429c-0.49301,-1.23761 0.3843,-1.83808 1.83953,-2.09246c1.14613,-0.20036 2.20738,0.11093 2.98004,2.98399z" data-paper-data="{&quot;origRot&quot;:0,&quot;origPos&quot;:null,&quot;index&quot;:null}"/><path d="M269.70614,-11.41461c-1.23,-1.12064 -1.04082,-1.63837 -1.777,-4.07081c-0.73619,-2.43246 0.19636,-2.5368 0.80719,-2.86764c0.65348,-0.35393 2.2609,0.05398 2.88226,1.56386c0.62135,1.50988 1.21016,2.64674 1.1715,3.70321c-0.03355,0.91676 -0.07587,1.33244 -1.54255,1.6571c0,0 -1.12245,0.39595 -1.5414,0.01427z" data-paper-data="{&quot;origRot&quot;:0,&quot;origPos&quot;:null,&quot;index&quot;:null}"/></g><g data-paper-data="{&quot;origRot&quot;:0,&quot;origPos&quot;:null}" fill="#efd6c8"><path d="M282.97576,-1.63453c0.05043,0.96539 -1.24385,1.28956 -1.24385,1.28956c-1.49696,0.73092 -8.60027,1.6797 -7.97725,0.0388c0.90591,-2.38592 2.54446,-4.93465 1.77664,-6.791c-0.44274,-1.07043 -0.39033,-2.30008 -0.8564,-3.35876c-0.77547,-1.76144 -0.74561,-3.19285 0.8802,-4.01269c1.81387,-0.91468 1.83739,-0.14687 3.10251,1.4305c0.40909,0.51005 1.60213,2.86426 1.85716,3.48086c1.86376,4.50602 2.31292,5.08836 2.461,7.92274z" data-paper-data="{&quot;origRot&quot;:0,&quot;origPos&quot;:null}"/><path d="M279.52448,-10.20303c-0.01881,0.78013 -1.28925,1.16734 -1.28925,1.16734c-1.49428,0.73729 -2.83374,1.90816 -3.24775,-0.52931c-0.31208,-1.83732 -0.97891,-3.28348 -1.58951,-4.71951c-0.22094,-0.51962 -0.9793,-1.82188 -1.25331,-2.31511c-0.81685,-1.47036 0.03031,-2.40114 1.59594,-3.00645c1.2331,-0.47673 2.48235,-0.28938 3.9645,3.19633c1.48214,3.48571 1.87455,3.91628 1.81936,6.20672z" data-paper-data="{&quot;origRot&quot;:0,&quot;origPos&quot;:null}"/><path d="M276.68477,-16.4728c-0.01849,0.71206 -1.24184,1.22205 -1.24184,1.22205c-1.439,0.85627 -1.81671,0.48063 -2.60202,-0.39581c-0.90499,-1.01 -1.37582,-2.6024 -2.1293,-4.58845c-0.75348,-1.98607 -0.0881,-4.35267 0.72621,-4.52795c0.76116,-0.16384 1.87145,-0.13327 3.29666,2.85391c1.42521,2.98719 2.00456,3.34564 1.95028,5.43625z" data-paper-data="{&quot;origRot&quot;:0,&quot;origPos&quot;:null}"/></g><g fill="#f6ded1"><path d="M282.88222,0.42168c-0.22558,0.93949 -1.58566,0.8315 -1.58566,0.8315c-1.67447,0.21554 -8.90237,-1.17115 -7.82472,-2.5391c1.56694,-1.98904 3.89787,-3.8972 3.67457,-5.92036c-0.12878,-1.1666 0.27285,-2.32557 0.11787,-3.48848c-0.25784,-1.93487 0.17914,-3.29405 2.00514,-3.55301c2.03722,-0.28891 1.84154,0.45293 2.63141,2.36989c0.25541,0.61986 0.7534,3.25644 0.82758,3.92845c0.54205,4.91092 0.81613,5.61286 0.15381,8.37115z" data-paper-data="{&quot;origRot&quot;:0,&quot;origPos&quot;:null}"/><path d="M282.05678,-10.14275c-0.22503,0.74646 -1.58175,0.74969 -1.58175,0.74969c-1.67035,0.27547 -3.30264,1.01394 -3.06628,-1.45604c0.17816,-1.86181 -0.09743,-3.44996 -0.3202,-5.01191c-0.0806,-0.5652 -0.48464,-2.0413 -0.62461,-2.59649c-0.41729,-1.65512 0.66537,-2.30554 2.37126,-2.43301c1.34355,-0.1004 2.52729,0.444 3.06805,4.23544c0.54074,3.79145 0.81418,4.32075 0.15352,6.51234z" data-paper-data="{&quot;origRot&quot;:0,&quot;origPos&quot;:null}"/><path d="M279.26708,-24.06217c1.6202,2.85592 2.236,3.16691 2.28461,5.24728c0.01656,0.70859 -1.22029,1.31003 -1.22029,1.31003c-1.44204,0.96208 -1.85059,0.61837 -2.70484,-0.19105c-0.98442,-0.93275 -1.54996,-2.47761 -2.42688,-4.39144c-0.87694,-1.91384 -0.45641,-4.57873 0.37509,-4.81603c0.77725,-0.22181 2.07211,-0.01469 3.69232,2.84121z" data-paper-data="{&quot;origRot&quot;:0,&quot;origPos&quot;:null}"/></g><path d="M285.55021,-0.41354c-2.44009,7.05086 -5.14662,14.44832 -7.63358,14.39564c-1.84839,-0.03916 -7.05761,0.79195 -6.85256,-3.23386c0.25902,-5.08536 -1.33495,-8.21251 -0.37418,-13.2193c0.41173,-2.14564 2.01452,-5.02241 4.27016,-5.37519c2.29437,-0.35884 12.84788,0.90873 10.59015,7.43268z" data-paper-data="{&quot;origRot&quot;:0,&quot;origPos&quot;:null}" fill="url(#color-3)"/><g data-paper-data="{&quot;origPos&quot;:null,&quot;origRot&quot;:0,&quot;index&quot;:null}" fill="#fde6d9"><path d="M277.37694,-2.37035c0.27327,1.08284 -3.0841,0.87794 -3.0841,0.87794c-1.5713,-0.14501 -2.80659,-0.26796 -2.80414,-1.53665c0.00256,-1.31913 0.10501,-3.44702 0.15273,-4.81145c0.10523,-3.00894 1.01471,-4.73444 3.03251,-4.5482c2.01778,0.18624 2.82332,1.43236 2.7181,4.44129c-0.10523,3.00893 -0.57573,3.3555 -0.01511,5.57709z" data-paper-data="{&quot;origPos&quot;:null}"/><path d="M277.8564,-15.07837c-0.08533,2.43974 -0.45868,3.80401 -0.74818,5.12306c-0.18566,0.84593 -2.37804,0.48686 -2.37804,0.48686c-1.15494,-0.10659 -2.57719,0.03834 -2.63604,-0.96703c-0.06569,-1.12231 0.49575,-3.49938 0.53478,-4.61521c0.08533,-2.43975 0.29685,-5.46138 1.68984,-5.29611c2.41895,0.28702 3.62297,2.82869 3.53764,5.26843z" data-paper-data="{&quot;origPos&quot;:null}"/></g><g fill="#fde6d9"><path d="M285.71631,-0.87424c-0.392,0.88453 -1.779,0.5269 -1.779,0.5269c-1.76657,-0.09675 -9.00008,-2.79865 -7.65525,-3.94824c3.05047,-2.6076 5.51659,-6.68977 5.50998,-8.5754c0.06087,-1.9551 1.03551,-2.54348 2.96598,-2.46156c2.15379,0.09139 2.26449,0.72161 2.2956,2.75302c0.01036,0.67713 -0.04323,2.74797 -0.08026,3.42417c-0.27066,4.94154 -0.10619,5.68418 -1.25708,8.28114z" data-paper-data="{&quot;origRot&quot;:0,&quot;origPos&quot;:null}"/><path d="M287.02578,-17.14933c0.29042,3.83561 0.53775,4.38916 -0.3111,6.51733c-0.28913,0.72486 -1.70671,0.60401 -1.70671,0.60401c-1.76493,0.12237 -3.5236,0.71054 -3.09786,-1.7344c0.32093,-1.84296 0.14798,-3.45406 0.02835,-5.03422c-0.04329,-0.57178 -0.35849,-2.08278 -0.46454,-2.65001c-0.31611,-1.69097 0.86201,-2.24149 2.65336,-2.2128c1.41085,0.0226 2.60809,0.67447 2.8985,4.51009z" data-paper-data="{&quot;origRot&quot;:0,&quot;origPos&quot;:null}"/><path d="M286.18826,-18.6455c-0.113,0.70331 -1.48804,1.02664 -1.48804,1.02664c-1.65105,0.63455 -2.00579,0.20578 -2.73088,-0.78033c-0.8356,-1.13638 -1.1306,-2.78555 -1.67637,-4.86719c-0.54577,-2.08165 0.34972,-5.20938 1.24352,-5.26181c0.83546,-0.04901 2.14479,1.02703 3.27785,4.2015c1.13306,3.17447 1.70571,3.61625 1.37393,5.68116z" data-paper-data="{&quot;origRot&quot;:0,&quot;origPos&quot;:null}"/></g></g></g><g><path d="M324.80936,316.49083c-5.99837,-4.57475 -7.17169,-8.68067 -11.9323,-13.91475c-7.43667,-8.17632 -19.75815,-18.59036 -19.75815,-18.59036c-9.91699,-8.9835 10.36302,-28.20378 18.49138,-17.54603c10.01942,13.13728 34.29378,29.13687 44.52538,38.22843c21.1488,18.79231 30.49354,26.29134 30.49354,26.29134l-13.69318,14.05188c0,0 -14.61416,-9.17599 -21.15287,-12.76312c-10.17237,-5.58056 -20.97543,-11.18271 -26.97381,-15.75745z" data-paper-data="{&quot;origPos&quot;:null}" fill="#252525" stroke="#000000" stroke-width="0" stroke-linecap="butt"/><path d="M294.90474,251.06806c19.3183,16.14325 16.51427,18.06632 27.10877,26.3046c6.16338,7.33897 -15.6335,18.1629 -15.6335,18.1629c0,0 -53.33867,-27.01717 -76.49424,-55.37191c-5.09145,-6.23465 12.54324,-14.18342 14.93318,-16.64133c0,0 6.35998,-1.7362 12.88481,0.42118c0,0 16.80143,10.07778 37.20098,27.12458z" data-paper-data="{&quot;origPos&quot;:null,&quot;origRot&quot;:0,&quot;index&quot;:null}" fill="#000000" stroke="#000000" stroke-width="0" stroke-linecap="butt"/><g data-paper-data="{&quot;origPos&quot;:null,&quot;index&quot;:null}" stroke="none" stroke-linecap="round"><path d="M391.80653,361.4309c-3.82613,-3.44855 -12.71656,-9.00607 -16.24221,-12.69698c-2.39032,-2.50389 -9.28415,-5.41806 -8.14465,-8.10153c0.45017,-1.06012 6.28745,-3.56556 8.72125,-7.49621c2.36635,-3.82174 1.61759,-9.72041 3.60282,-8.98079c4.0565,1.51132 11.46091,7.58302 13.11939,7.12749c9.79938,-2.70322 17.71325,-6.63587 23.80524,1.50186c3.77731,5.04581 -1.49365,15.02483 -1.49365,15.02483c0,0 -22.38951,14.3828 -23.36817,13.62132z" data-paper-data="{&quot;origPos&quot;:null}" fill="#000000" stroke-width="1"/><path d="M387.84274,358.25711c0,0 5.93556,-4.30915 13.64241,-6.16539c8.4782,-2.04202 15.24717,-9.12785 15.24717,-9.12785l-1.83557,5.13133l-22.305,13.63592z" data-paper-data="{&quot;origPos&quot;:null,&quot;origRot&quot;:0}" fill="#111111" stroke-width="1.16035"/></g></g><g><path d="M252.92063,312.41385c-5.40519,-9.64055 -19.25093,-23.92689 -19.25093,-23.92689c-7.64014,-10.98537 22.14898,-24.59313 27.66949,-12.37914c6.80487,15.05559 24.51069,30.60439 32.43306,41.76588c16.37556,23.07083 26.13605,37.98562 26.13605,37.98562l-16.50498,10.60869c0,0 -11.62743,-9.6684 -18.25816,-16.76824c-6.63074,-7.09985 -32.22453,-37.28591 -32.22453,-37.28591z" data-paper-data="{&quot;origPos&quot;:null}" fill="#252525" stroke="#000000" stroke-width="0" stroke-linecap="butt"/><path d="M251.34851,259.73722c14.03068,20.90947 11.49796,20.87811 19.95893,31.2957c4.19743,5.16809 -21.35941,16.72947 -21.35941,16.72947c0,0 -46.89491,-37.50205 -62.31136,-70.96851c-3.38977,-7.35862 17.13206,-12.40948 20.32366,-14.52115c0,0 12.32533,-5.41908 18.403,-2.01776c0,0 10.30297,17.60188 24.98516,39.48227z" data-paper-data="{&quot;origPos&quot;:null,&quot;origRot&quot;:0,&quot;index&quot;:null}" fill="#000000" stroke="#000000" stroke-width="0" stroke-linecap="butt"/><g data-paper-data="{&quot;origPos&quot;:null,&quot;index&quot;:null,&quot;origRot&quot;:0}" stroke="none" stroke-linecap="round"><path d="M315.52874,389.65543c-2.4398,-4.53641 -8.93668,-12.76543 -11.01189,-17.42874c-1.40643,-3.16306 -6.91456,-8.23042 -4.93722,-10.37275c0.78116,-0.84634 7.12136,-1.23758 10.73764,-4.11783c3.51607,-2.80046 4.79941,-8.60632 6.41915,-7.24082c3.30969,2.79021 8.23417,11.00242 9.94916,11.13257c10.13708,0.75809 18.91341,-0.27687 21.90589,9.43808c1.85545,6.02375 -6.47069,13.6421 -6.47069,13.6421c0,0 -25.92728,5.99421 -26.59202,4.94741z" data-paper-data="{&quot;origPos&quot;:null}" fill="#000000" stroke-width="1"/><path d="M312.86671,385.3313c0,0 7.0407,-2.05626 14.92222,-1.20611c8.67036,0.93526 17.43163,-3.45428 17.43163,-3.45428l-3.45778,4.21232l-25.59596,5.31953z" data-paper-data="{&quot;origPos&quot;:null,&quot;origRot&quot;:0}" fill="#111111" stroke-width="1.16035"/></g></g><g data-paper-data="{&quot;origRot&quot;:0,&quot;index&quot;:null}" stroke="none" stroke-width="0" stroke-linecap="butt"><g data-paper-data="{&quot;origPos&quot;:null}"><path d="M188.28517,6.6395c0,0 7.92673,-1.29696 9.4325,-1.15115c2.27532,0.22034 3.09074,2.57113 3.09074,2.57113l-0.4359,8.78279l-12.95387,-1.25437l0.8665,-8.94838z" data-paper-data="{&quot;origPos&quot;:null}" fill="#000000"/><path d="M205.31454,65.91934c0.38382,12.19062 -23.43477,12.78885 -23.03657,0.59291c0.06206,-18.95683 3.11866,-20.92504 3.58388,-30.35284c0.51882,-10.51426 0.75968,-22.53591 5.05571,-31.00117c2.23776,-4.40953 5.31469,-4.21152 6.9419,0.44934c3.04003,8.70772 2.23079,17.62026 2.68338,28.9877c0.4526,11.36743 4.38788,19.13343 4.7717,31.32405z" data-paper-data="{&quot;origPos&quot;:null}" fill="url(#color-4)"/><g data-paper-data="{&quot;origPos&quot;:null}"><path d="M195.09964,10.08386c3.0856,-0.0665 5.57522,-3.06878 5.57522,-3.06878l-0.30125,10.01485l-12.99839,-1.46599l1.39291,-6.97246z" data-paper-data="{&quot;origPos&quot;:null}" fill="url(#color-5)"/><path d="M187.67736,11.17896c0,0 4.48486,2.01856 8.18248,1.90409c3.48371,-0.10788 4.4658,-5.51006 4.4658,-5.51006c0,0 6.52088,52.74703 5.40729,58.62522c-1.1136,5.87818 -5.1154,9.74406 -13.25888,9.59918c-8.59924,0.09942 -9.71634,-2.52792 -10.28743,-11.33409c-0.93662,-14.44317 5.49071,-53.28436 5.49071,-53.28436z" data-paper-data="{&quot;origPos&quot;:null,&quot;origRot&quot;:0}" fill="#1e4994"/></g></g><g data-paper-data="{&quot;origPos&quot;:null,&quot;origRot&quot;:0}"><path d="M208.62311,112.66429c-1.75324,4.80785 -2.4818,15.16527 -9.71954,12.11594c-6.8642,-2.89195 -14.78939,-15.44725 -16.28941,-34.61563c-0.43821,-5.59958 0.76119,-18.67046 0.34609,-24.2721c-0.75221,-10.15087 18.41001,-15.27126 21.3112,-5.56129c2.3862,7.98634 2.61517,7.10533 4.36252,30.8968c0.73383,9.99177 3.41691,12.03637 -0.01087,21.43632z" data-paper-data="{&quot;origPos&quot;:null,&quot;origRot&quot;:0}" fill="#2152a6"/><path d="M196.77717,124.1726c-6.27071,-4.37134 -12.76335,-16.23172 -14.10626,-33.39241c-0.43821,-5.59958 0.76119,-18.67046 0.34609,-24.2721c-0.43032,-5.80702 5.65667,-9.96773 11.48822,-10.64744c1.63443,16.86083 3.22849,33.72556 4.5475,50.61776c0.38174,4.88883 -1.23139,11.72354 -2.27556,17.69417z" data-paper-data="{&quot;origPos&quot;:null,&quot;origRot&quot;:0}" fill="#000000"/></g><g data-paper-data="{&quot;origPos&quot;:null}"><g data-paper-data="{&quot;origPos&quot;:null,&quot;origRot&quot;:0}" fill="#fde6d9"><path d="M196.82268,-6.40826c0.7978,-1.96742 0.50691,-2.38784 0.9439,-5.22839c0.43699,-2.84055 1.25002,-3.84421 2.78392,-3.60824c1.5339,0.23596 1.91539,2.03763 1.4784,4.87818c-0.19817,1.28809 -0.48635,3.3026 -0.71036,4.53902c-0.21544,1.18917 -1.15603,1.05307 -2.35049,0.86933c0,0 -2.53421,-0.49097 -2.14536,-1.44993z" data-paper-data="{&quot;origPos&quot;:null}"/><path d="M198.32174,-13.46018c0.01042,-1.29472 -0.03386,-2.6489 0.32047,-4.95211c0.35431,-2.30321 1.68585,-4.43966 3.53563,-4.21651c1.06522,0.12849 0.70516,3.00258 0.35084,5.30579c-0.16206,1.0534 -0.15121,3.39475 -0.39233,4.43289c-0.21601,0.92997 -1.24985,0.50487 -2.12783,0.36982c0,0 -1.69345,-0.10953 -1.68678,-0.93988z" data-paper-data="{&quot;origPos&quot;:null}"/></g><g data-paper-data="{&quot;origPos&quot;:null,&quot;origRot&quot;:0}" fill="#ead0c0"><path d="M187.16928,-6.29853c-1.42247,-2.12762 -1.34412,-2.81714 -2.16439,-7.18108c-0.11225,-0.59716 -0.34673,-3.00931 -0.26423,-3.62271c0.25511,-1.89694 -0.14491,-2.4633 1.96176,-2.89885c1.88824,-0.39039 2.69925,0.62102 2.97837,2.35519c0.16775,1.0423 0.88812,1.895 1.08298,2.93168c0.33792,1.79784 4.2542,4.14218 6.36367,5.31198c1.45076,0.80451 -6.42504,2.90476 -8.15053,3.28143c0,0 -1.32316,0.54705 -1.80765,-0.17762z" data-paper-data="{&quot;origRot&quot;:0,&quot;origPos&quot;:null}"/><path d="M185.21232,-19.45325c0.96609,-1.8321 1.48623,-1.94499 4.27286,-3.83292c2.78664,-1.88793 3.91949,-1.3171 4.74521,-0.23357c1.0484,1.37573 1.34899,2.59431 0.01246,3.28053c-0.44836,0.23019 -1.66142,0.81789 -2.07684,1.09935c-1.14803,0.77779 -2.34778,1.53123 -3.42226,2.79605c-1.42543,1.67799 -2.03373,-0.01232 -2.96379,-1.4508c0,0 -0.89669,-1.03463 -0.56763,-1.65864z" data-paper-data="{&quot;origRot&quot;:0,&quot;origPos&quot;:null}"/><path d="M190.3355,-23.57786c1.3793,-1.272 1.95043,-0.98151 4.77561,-1.50068c2.82516,-0.51918 2.86223,0.57631 3.18446,1.32996c0.34472,0.80624 -0.25855,2.61379 -2.02654,3.12663c-1.768,0.51285 -3.10976,1.03922 -4.30553,0.84921c-1.03765,-0.1649 -1.50576,-0.2711 -1.74629,-2.01613c0,0 -0.35148,-1.35576 0.1183,-1.78902z" data-paper-data="{&quot;origRot&quot;:0,&quot;origPos&quot;:null}"/></g><g data-paper-data="{&quot;origPos&quot;:null,&quot;origRot&quot;:0}" fill="#efd6c8"><path d="M187.70202,-4.71989c-1.31573,-2.51745 -1.19944,-3.26912 -1.78777,-8.183c-0.08051,-0.67241 -0.1854,-3.36251 -0.06908,-4.02964c0.35973,-2.06317 -0.01202,-2.73585 2.13141,-2.96576c1.92118,-0.20609 2.68228,1.00668 2.86894,2.95383c0.11221,1.1703 0.79074,2.19713 0.93049,3.36445c0.24236,2.02437 3.06127,3.29616 5.12032,4.83829c1.41609,1.06061 -5.62842,4.22273 -7.38508,4.43305c0,0 -1.36109,0.44621 -1.80925,-0.41122z" data-paper-data="{&quot;origRot&quot;:0,&quot;origPos&quot;:null}"/><path d="M186.05162,-18.25237c0.35639,-2.26332 0.85162,-2.61309 3.05924,-5.7631c2.20762,-3.15002 3.5699,-3.09945 4.79463,-2.39873c1.55504,0.88971 2.28712,1.96452 1.15213,3.25723c-0.38073,0.43364 -1.42306,1.57204 -1.75216,2.04162c-0.90947,1.29773 -1.88059,2.59486 -2.54536,4.34344c-0.88191,2.31975 -2.09398,0.91625 -3.5492,-0.08988c0,0 -1.28068,-0.61969 -1.15928,-1.39058z" data-paper-data="{&quot;origRot&quot;:0,&quot;origPos&quot;:null}"/><path d="M191.08842,-26.0626c1.82022,-1.02997 2.43373,-0.64697 5.80407,-0.69006c3.37034,-0.04309 3.96592,0.99807 4.21086,1.79833c0.26204,0.85612 -1.48917,2.59617 -3.63059,2.80932c-2.14141,0.21314 -3.7901,0.51078 -5.14631,0.12313c-1.17689,-0.3364 -1.70236,-0.51966 -1.68233,-2.28832c0,0 -0.17564,-1.4016 0.44431,-1.75242z" data-paper-data="{&quot;origRot&quot;:0,&quot;origPos&quot;:null}"/></g><g data-paper-data="{&quot;origPos&quot;:null,&quot;origRot&quot;:0}" fill="#f6ded1"><path d="M188.3275,-4.68229c-1.44721,-2.44425 -1.37087,-3.20104 -2.21858,-8.07686c-0.116,-0.6672 -0.3632,-3.34796 -0.28237,-4.02034c0.24997,-2.07931 -0.15687,-2.73136 1.97136,-3.07445c1.9076,-0.30753 2.73184,0.86323 3.02134,2.79776c0.174,1.16268 0.90595,2.15217 1.10733,3.31044c0.34922,2.00871 3.23152,3.12944 5.36934,4.56038c1.47026,0.98412 -5.39688,4.51484 -7.13997,4.81788c0,0 -1.33556,0.51767 -1.82849,-0.31486z" data-paper-data="{&quot;origRot&quot;:0,&quot;origPos&quot;:null}"/><path d="M185.94248,-18.06714c-0.05206,-2.2906 0.37303,-2.72291 1.98486,-6.21552c1.6118,-3.49262 2.96134,-3.6853 4.29122,-3.21369c1.68854,0.59878 2.60018,1.52612 1.71337,3.00019c-0.29747,0.49447 -1.12058,1.80022 -1.36087,2.32085c-0.66402,1.43883 -1.38877,2.88811 -1.73177,4.72707c-0.45502,2.43967 -1.8975,1.27427 -3.50855,0.54316c0,0 -1.3705,-0.38188 -1.38823,-1.16207z" data-paper-data="{&quot;origRot&quot;:0,&quot;origPos&quot;:null}"/><path d="M189.99482,-27.08029c1.47318,-1.48446 2.16749,-1.28194 5.4002,-2.23629c3.23267,-0.95433 4.38444,-0.20237 4.83699,0.50163c0.48412,0.75315 -1.02679,2.99145 -3.03043,3.77662c-2.00364,0.78521 -3.51009,1.51825 -4.9206,1.51243c-1.224,-0.00508 -1.77944,-0.03916 -2.23922,-1.74714c0,0 -0.54872,-1.30164 -0.04695,-1.80724z" data-paper-data="{&quot;origRot&quot;:0,&quot;origPos&quot;:null}"/></g><g data-paper-data="{&quot;origPos&quot;:null,&quot;origRot&quot;:0}" fill="#fde6d9"><path d="M186.41083,-7.92012c-0.55824,-2.78516 -0.23612,-3.47422 0.57496,-8.35625c0.11097,-0.66808 0.50926,-2.70095 0.66674,-3.3596c0.47241,-1.97598 0.71758,-2.567 2.83964,-2.18757c1.90204,0.34008 2.72529,1.12644 2.3593,3.04796c-0.41675,1.83901 1.10204,6.35999 3.51203,9.56886c1.06246,1.41466 -6.58564,2.47787 -8.33093,2.18792c0,0 -1.43159,0.04726 -1.62172,-0.90137z" data-paper-data="{&quot;origRot&quot;:0,&quot;origPos&quot;:null}"/><path d="M187.57777,-18.33517c0.02416,-2.29107 0.46341,-2.70901 2.19053,-6.14605c1.72712,-3.43704 3.0823,-3.58469 4.39577,-3.06911c1.66769,0.65464 2.54798,1.6118 1.6126,3.05555c-0.31378,0.48427 -1.17988,1.7619 -1.43735,2.27427c-0.71153,1.41596 -1.48411,2.84031 -1.8881,4.66684c-0.53594,2.42318 -1.93886,1.21044 -3.52468,0.42613c0,0 -1.35705,-0.42726 -1.34883,-1.2076z" data-paper-data="{&quot;origRot&quot;:0,&quot;origPos&quot;:null}"/><path d="M191.11184,-25.54652c0.47833,-2.03596 1.17596,-2.22678 3.43102,-4.73193c2.25508,-2.50514 3.87522,-3.00247 4.62929,-2.63945c0.80671,0.38835 0.44559,3.62164 -0.85075,5.33938c-1.29634,1.71773 -2.1963,3.13081 -3.40123,3.8641c-1.04562,0.63631 -1.53676,0.89796 -2.82247,-0.31674c0,0 -1.14882,-0.8219 -0.9859,-1.51537z" data-paper-data="{&quot;origRot&quot;:0,&quot;origPos&quot;:null}"/></g><path d="M186.36562,-6.86211c-1.4489,-6.35506 15.75547,-2.61192 15.75547,-2.61192c-0.25603,3.43366 -3.23096,11.37328 -3.38955,14.81282c-0.18565,4.02658 -5.24695,2.48627 -7.0064,2.35509c-2.36731,-0.1765 -3.70797,-7.31214 -5.35951,-14.55597z" data-paper-data="{&quot;origRot&quot;:0,&quot;origPos&quot;:null}" fill="url(#color-6)"/></g></g><g stroke-linecap="butt"><g data-paper-data="{&quot;origPos&quot;:null}" stroke="none"><path d="M207.36219,84.42682c1.26346,-5.62783 2.13315,-6.94904 4.08739,-7.84686c1.95424,-0.89782 8.58542,-1.70656 15.8742,-1.32385c7.28878,0.38272 5.37047,-2.25005 12.19597,1.29413c6.8255,3.54418 6.01112,4.45021 6.47814,8.40249c0.467,3.95227 7.57046,13.83849 3.59417,14.93372c-3.93697,1.08441 -29.22471,3.76024 -47.19668,-2.58316c0.44786,-2.56587 0.77257,-5.06775 0.73634,-7.59491c0.01592,-0.03728 0.03167,-0.0746 0.04729,-0.11196l0.26587,-0.24952c0,0 0.47466,-0.793 0.8616,-1.9255c1.57355,-0.83751 2.78741,-1.7997 3.05567,-2.99458z" data-paper-data="{&quot;origPos&quot;:null}" fill="#000000" stroke-width="0"/><g data-paper-data="{&quot;origPos&quot;:null}"><path d="M205.55033,98.65262c-1.27051,-0.5328 -2.30426,-1.02598 -3.13121,-1.48569c0.34085,-1.97064 0.60643,-3.90442 0.68879,-5.84186c2.94815,-1.44645 6.7714,-2.95573 7.25843,-5.39214c0.23899,-1.1956 0.37615,-1.86952 0.72011,-3.03672c0.60737,-2.06104 1.3598,-3.15927 3.20795,-4.06672c1.93684,-0.95103 7.08662,-1.72802 13.38466,-1.39733c6.29804,0.33068 6.20393,-1.57155 11.94374,1.59954c5.73983,3.1711 3.50101,3.1907 3.87135,7.13792c0.37032,3.94721 6.82763,13.63118 2.96824,14.90084c-3.85939,1.2697 -25.62923,3.99128 -40.91201,-2.41782z" data-paper-data="{&quot;origPos&quot;:null}" fill="#09162e" stroke-width="0"/><g data-paper-data="{&quot;origPos&quot;:null}" fill="none" stroke-width="1" font-family="sans-serif" font-weight="normal" font-size="12" text-anchor="start"/></g></g><path d="M241.9575,102.55159c0,0 -9.28533,4.81216 -13.81135,4.53292c-3.89647,-0.2404 -14.70454,-6.71524 -14.70454,-6.71524c0,0 2.39628,-2.7102 3.32711,-4.94719c0.79131,-1.90168 2.12952,-5.84509 2.25854,-7.93627c0.13738,-2.22678 -2.77661,-14.15107 -2.77661,-14.15107l27.41893,0.81259z" data-paper-data="{&quot;origPos&quot;:null}" fill="url(#color-7)" stroke="none" stroke-width="0"/><g data-paper-data="{&quot;origPos&quot;:null}" fill="#b2bbc1" stroke="none" stroke-width="0"><path d="M193.05602,173.42032l62.29205,2.55108c0,0 -2.20136,16.17726 -2.53487,26.32734c-0.30233,9.20123 0.14658,14.86355 0.84005,24.03313c0.90792,13.75986 -12.92008,18.47682 -26.61753,18.062c-14.33779,-0.4342 -42.76611,-5.12498 -39.98423,-17.76786c0,0 3.35347,-19.1438 4.77122,-31.70638c0.9256,-8.20161 1.23331,-21.4993 1.23331,-21.4993z" data-paper-data="{&quot;origPos&quot;:null}"/><path d="M193.18819,174.88012c0,0 -0.34953,-11.93778 -1.30231,-19.57724c-2.31915,-18.5951 -2.82314,-28.94994 -3.88832,-47.60632c0.02824,-4.47723 5.43129,-13.68269 13.57598,-14.34282c5.01566,-0.40651 16.3957,-2.02733 16.3957,-2.02733c0,0 0.05164,5.38948 2.63275,7.93773c4.6977,4.63787 11.72058,4.99987 11.72058,4.99987c0,0 7.06048,-2.21847 9.2104,-5.63694c1.1597,-1.84401 0.82185,-7.75173 0.82185,-7.75173c0,0 15.1772,9.22526 19.83348,20.17404c4.65629,10.94879 2.13827,19.57596 0.40506,31.85605c-1.73323,12.28009 -7.1554,35.37863 -7.1554,35.37863l-62.24974,-3.40396z" data-paper-data="{&quot;origPos&quot;:null}"/></g><path d="M254.37051,237.35425c-0.46503,7.53736 -13.96788,15.27323 -30.18345,14.27278c-16.21558,-1.00045 -39.60382,-9.79464 -39.13879,-17.332c0.31251,-5.06533 2.30478,-10.84364 2.30478,-10.84364c0,0 27.56431,5.96875 40.12806,6.69718c13.17996,0.76416 25.83697,-2.87265 25.83697,-2.87265c0,0 1.51748,2.54098 1.05245,10.07833z" data-paper-data="{&quot;origPos&quot;:null}" fill="#000000" stroke="none" stroke-width="0"/><g data-paper-data="{&quot;origPos&quot;:null,&quot;index&quot;:null}"><path d="M238.70768,175.46656c0.84369,-20.43092 2.85568,-55.9344 2.85568,-55.9344c0.51938,-9.22385 5.49292,-12.55383 6.56384,-20.66405c1.26289,-2.59578 -2.06386,-3.3245 -0.65469,-5.69347c2.90705,0.71364 7.51522,2.87245 11.23795,5.61602c3.72783,2.74732 7.12322,13.89708 6.74439,20.62477c-0.98062,17.41474 -1.42284,13.90251 -6.27298,43.40427c-5.00534,30.44585 -3.70713,67.72139 -3.70713,67.72139c0,0 -6.22425,3.73697 -9.34944,4.64563c-3.68449,1.07129 -9.00225,6.34142 -9.31587,-1.10943c0,0 0.90736,-34.61518 1.89824,-58.61069z" data-paper-data="{&quot;origPos&quot;:null}" fill="#255dbc" stroke="#000000" stroke-width="0"/><path d="M243.07739,146.44233l-4.05366,11.33062c0,0 1.31889,-13.02709 0.57136,-21.62004c-0.53796,-6.18398 -0.08393,-10.1004 0.6002,-16.36594c0.36513,-3.34412 2.73077,-8.48313 2.73077,-8.48313l21.69184,0.95996c0,0 1.75106,6.09195 1.19617,10.75833c-0.77946,6.55514 -2.90957,17.76242 -2.90957,17.76242z" data-paper-data="{&quot;origPos&quot;:null}" fill="#09162e" stroke="none" stroke-width="0"/><path d="M242.0636,114.84927c0,0 0.55082,-3.12222 1.8251,-6.12766c2.92622,-6.90173 3.93193,-16.3864 3.93193,-16.3864l10.07989,6.24406l-1.68737,16.26642z" data-paper-data="{&quot;origPos&quot;:null}" fill="#09162e" stroke="none" stroke-width="0"/><path d="M257.46753,136.7136c0,0 -0.30588,1.49297 -1.22177,1.09287c-0.91589,-0.40011 -0.61,-1.89308 -0.61,-1.89308l0.5955,-1.236c0.25841,-1.17821 1.10474,-4.73869 1.00228,-5.24694c-0.26024,-1.29075 -0.97704,-2.09248 -0.73856,-3.66317c0.07407,-0.48777 0.98695,-4.27162 1.8206,-4.08477c0.04366,0.00979 0.07551,0.04224 0.09952,0.09022c0.10493,-0.06207 0.40925,0.18176 0.33952,0.05664l-0.98053,-0.46609c-0.41827,-0.18249 -0.69976,-0.8173 -0.65441,-1.55235c0.03157,-0.51175 0.21436,-0.9558 0.47018,-1.22214l1.09158,-1.16215l0.03548,0.09013c0.11555,-0.0877 0.22479,-0.16287 0.33372,-0.22955l-0.0095,-0.10217l0.23882,-0.07927l0.02248,-0.36434l1.02497,0.06324c0.03802,0.00235 0.0753,0.0082 0.11175,0.01738c0.28176,0.05357 0.64708,0.29359 0.74209,1.14929c0.00449,0.03775 0.00809,0.07603 0.01079,0.11479c0.06718,0.8704 -0.23408,1.3332 -0.49004,1.5656c-0.10633,0.1051 -0.22454,0.17992 -0.34926,0.21689l-0.33657,0.1117c0.25492,0.53889 0.43582,1.09653 0.37684,1.4064c-0.48591,2.5526 -1.79314,2.66966 -2.26154,4.54421c-0.03604,0.14422 0.25367,-0.18545 0.2853,-0.0451c0.21401,0.9501 0.53395,2.09322 0.55273,3.54835c0.02725,2.11316 -0.48269,4.11336 -0.92004,6.10744l-0.58192,1.172zM258.50332,123.39135c0.0097,0.03458 0.02109,0.06644 0.03473,0.0946c0.0441,0.09098 0.01461,0.03075 -0.03473,-0.0946z" data-paper-data="{&quot;origPos&quot;:null}" fill="#ffffff" stroke="none" stroke-width="0.5"/><path d="M242.65112,111.47639l0.06353,-1.02969l20.11479,1.24101l0.16708,1.04392z" data-paper-data="{&quot;origPos&quot;:null}" fill="#ffffff" stroke="none" stroke-width="0"/><path d="M241.14329,117.18963l-0.98475,2.94161l0.42257,-3.38832l2.13258,-6.31438l0.56219,0.4467z" data-paper-data="{&quot;origPos&quot;:null,&quot;origRot&quot;:0}" fill="#ffffff" stroke="none" stroke-width="0"/></g><g data-paper-data="{&quot;origPos&quot;:null}"><path d="M221.85967,175.25399c-2.2671,23.91677 -6.3764,58.3344 -6.3764,58.3344c-1.7023,7.32648 -9.39951,1.25337 -15.14764,-0.39988c-4.87555,-1.40229 -14.27595,-6.10323 -14.27595,-6.10323c0,0 5.62321,-37.6754 4.9351,-67.64563c-0.6881,-29.97024 -4.67581,-34.66662 -3.45065,-52.06626c0.47331,-6.72187 6.34508,-11.7184 12.77698,-13.83892c6.42312,-2.11761 9.63202,-1.31349 14.418,-1.55249c1.88332,2.57211 2.69262,3.1455 4.3044,5.91865c0.41643,8.20198 7.87257,12.29881 7.22364,21.51467c0,0 -2.47716,35.47478 -4.40748,55.83866z" data-paper-data="{&quot;origPos&quot;:null}" fill="#255dbc" stroke="#000000" stroke-width="0"/><path d="M190.06993,137.45603c0,0 -1.03383,-12.07903 -1.23202,-18.69448c-0.14108,-4.70932 3.75327,-10.45296 3.75327,-10.45296l32.26496,2.70727c0,0 2.97467,5.46849 3.02354,8.83815c0.09158,6.3134 0.19125,10.26399 -1.66778,16.30007c-2.58321,8.38746 -2.55914,21.4974 -2.55914,21.4974l-4.69127,-11.87015z" data-paper-data="{&quot;origPos&quot;:null}" fill="#09162e" stroke="none" stroke-width="0"/><path d="M205.75677,110.52997l-0.6236,-18.77689l9.39108,-2.71246c0,0 5.60845,11.95994 9.2004,19.26383c1.56418,3.18058 1.94713,6.36039 1.94713,6.36039z" data-paper-data="{&quot;origPos&quot;:null}" fill="#09162e" stroke="none" stroke-width="0"/><path d="M197.45418,133.01102l-0.74657,-1.25396c-0.38206,-2.04463 -0.87974,-4.107 -0.49607,-6.1948c0.26419,-1.43767 0.96217,-2.51799 1.45884,-3.42424c0.07337,-0.13388 0.48589,0.23912 0.45117,0.09053c-0.45116,-1.93128 -2.53286,-2.25743 -2.9031,-4.86285c-0.04495,-0.31629 0.33543,-0.8393 0.83171,-1.33184l-0.52284,-0.16472c-0.19447,-0.05666 -0.37239,-0.14975 -0.52633,-0.27092c-0.37391,-0.27127 -0.78355,-0.77793 -0.5356,-1.62888c0.01056,-0.03793 0.02251,-0.07527 0.03579,-0.11192c0.29027,-0.83192 0.9159,-1.0108 1.37727,-1.01853c0.06004,-0.00323 0.1209,-0.00303 0.18236,0.00076l1.65714,0.10224l-0.02248,0.36434l0.37103,0.1169l-0.0317,0.09963c0.16433,0.08354 0.32776,0.17553 0.49933,0.28094l0.0715,-0.08353l1.5671,1.32618c0.36823,0.30484 0.59054,0.77389 0.55897,1.28563c-0.04535,0.73504 -0.59977,1.31828 -1.3012,1.4317l-1.65052,0.30376c-0.13216,0.11266 0.39604,-0.0798 0.55465,-0.00148c0.04631,-0.04364 0.10272,-0.07065 0.17444,-0.07332c1.3696,-0.05092 2.2279,3.8422 2.26846,4.33705c0.13059,1.59348 -1.15015,2.27196 -1.7759,3.50804c-0.24639,0.48672 0.54086,4.14799 0.76661,5.35607l0.75809,1.31952c0,0 0.25138,1.52735 -1.28466,1.77618c-1.53604,0.24882 -1.78742,-1.27852 -1.78742,-1.27852zM197.75982,121.38987c0.02646,-0.02568 0.04991,-0.05539 0.07105,-0.08807c-0.09947,0.11616 -0.15654,0.17105 -0.07105,0.08807z" data-paper-data="{&quot;origPos&quot;:null}" fill="#ffffff" stroke="none" stroke-width="0.5"/><path d="M192.37619,109.20147l0.43638,-1.00669l32.52105,2.00644l-0.06353,1.02969z" data-paper-data="{&quot;origPos&quot;:null}" fill="#ffffff" stroke="none" stroke-width="0"/><path d="M224.36293,110.53526l0.97518,-0.35185l2.41118,6.59471l0.13404,3.42266l-1.10925,-3.0708z" data-paper-data="{&quot;origPos&quot;:null,&quot;origRot&quot;:0}" fill="#ffffff" stroke="none" stroke-width="0"/><path d="M189.73355,139.06109c0,0 -7.0061,-28.58573 -0.67222,-38.18135c7.33294,-11.10916 13.73347,-7.83494 13.73347,-7.83494c0,0 -4.33609,10.03965 -7.58476,16.30458c-3.24868,6.26493 -5.4765,29.71172 -5.4765,29.71172z" data-paper-data="{&quot;origPos&quot;:null}" fill="#000000" stroke="none" stroke-width="0"/></g></g><g stroke-linecap="butt"><path d="M243.44505,15.04671c16.82812,1.44033 21.26079,14.2754 22.33548,19.73023c1.31996,6.69973 -1.72743,23.4136 -3.6024,30.55202c-3.40148,13.25507 -13.71709,24.93679 -22.31884,26.0147c-3.58382,-0.64485 -26.39474,-9.17797 -28.83703,-14.79822c-5.85289,-13.46871 -7.91701,-17.89079 -6.72699,-32.52796c1.32626,-16.31279 13.5293,-31.5149 39.14977,-28.97079z" fill="url(#color-8)" stroke="none" stroke-width="0"/><g stroke="none" stroke-width="0"><path d="M240.87525,71.63179l6.27154,-0.1737c0.63541,0.47956 -0.44492,2.39841 -2.1792,2.20696c-1.70126,-0.18778 -4.48597,-1.05426 -4.48597,-1.05426l0.39361,-0.97901z" data-paper-data="{&quot;origPos&quot;:null,&quot;index&quot;:null}" fill="#f4d7c8"/><path d="M245.93724,72.77503c0.44348,-0.11979 0.84976,-0.05779 0.90746,0.13843c0.0577,0.19623 -0.25507,0.45242 -0.69855,0.57223c-0.44349,0.11978 -0.84976,0.05781 -0.90746,-0.13843c-0.0577,-0.19623 0.25507,-0.45243 0.69853,-0.57224z" data-paper-data="{&quot;origPos&quot;:null,&quot;origRot&quot;:0}" fill="url(#color-9)"/><path d="M241.02971,69.13989c0,0 0.15028,-4.28438 -0.06572,-7.0618c-0.16871,-2.16951 -0.92005,-5.6141 -0.92005,-5.6141c0,0 2.15946,2.78339 2.38565,4.45605c0.35005,2.58862 -0.54903,6.38413 -0.54903,6.38413z" data-paper-data="{&quot;origPos&quot;:null}" fill="url(#color-10)"/><path d="M242.71654,72.26561c0.54449,0.07707 0.96009,0.30263 0.92831,0.50375c-0.03178,0.20112 -0.49892,0.30166 -1.04342,0.22458c-0.54446,-0.0771 -0.96009,-0.30261 -0.92831,-0.50374c0.03178,-0.20112 0.49892,-0.30167 1.04342,-0.2246z" data-paper-data="{&quot;origPos&quot;:null}" fill="url(#color-11)"/><path d="M245.6256,73.20452c-0.82323,-0.12445 -1.22357,-0.48754 -1.84657,-0.944c-1.20917,-0.64276 -2.55159,-0.46783 -3.02909,0.41707c-0.33984,0.15295 -0.74903,-0.3604 -0.91514,-0.66976c-0.3418,-0.63653 -0.38878,-1.47231 0.01109,-2.07087c0.30478,-0.45617 0.39917,-0.60097 0.96678,-1.05015c0.49623,-0.3927 2.04952,-5.89018 1.0862,-9.41165c-1.42515,-5.20968 -5.48246,-6.17771 -10.97424,-7.03717c-2.6839,-0.42003 -9.37238,1.5857 -9.37238,1.5857c0,0 2.86982,-4.71985 6.49924,-5.85718c5.36536,-1.68132 9.66264,-1.16704 15.22451,-0.15492c18.16078,2.32251 19.47911,7.71805 19.47911,7.71805c0,0 -5.52294,0.09606 -8.98366,0.68935c-4.24428,0.72761 -5.57722,2.13762 -6.44938,4.19297c-0.90379,2.12986 -1.23629,4.11826 -0.92115,6.80889c0.1423,1.21485 1.3102,1.90994 1.36389,3.13082c0.06988,1.58875 -1.31598,2.77731 -2.13922,2.65285z" data-paper-data="{&quot;origPos&quot;:null}" fill="url(#color-12)"/></g><path d="M257.15788,54.37287c3.46266,0.43664 6.34403,2.90278 7.46188,3.81786c0.51793,0.42395 -4.57823,-2.11166 -7.99362,-2.25864c-2.56516,-0.11037 -3.58962,-0.24778 -5.75043,1.05121c-0.61121,0.36748 -1.09817,0.31189 -1.43768,0.08634c-0.33953,-0.22555 -0.25813,-0.92599 0.35311,-1.29346c0,0 3.0887,-1.94271 7.3667,-1.40327z" data-paper-data="{&quot;origRot&quot;:0,&quot;index&quot;:null}" fill="#38301c" stroke="none" stroke-width="0"/><path d="M267.28202,54.73253c-5.26348,-8.94097 -4.57462,-16.73111 -15.19973,-17.57277c-11.48047,-0.90943 -29.18644,5.792 -37.24611,13.6124c-2.88371,2.7981 -1.066,11.5684 -1.066,11.5684l-3.08175,0.13484c0,0 -1.72868,-2.70224 -2.53583,-4.80422c-1.65044,-4.29807 -4.70305,8.65535 -4.70305,8.65535c0,0 -2.6961,-25.04207 2.16395,-36.32825c5.15445,-11.96983 19.32646,-17.87698 34.80047,-16.39447c15.474,1.48252 23.91313,4.98108 28.7733,17.82763c0,0 3.99766,8.32248 2.39447,13.54107z" fill="#3d3021" stroke="none" stroke-width="0"/><path d="M244.66822,39.11979c-10.81844,-0.85699 -21.75943,1.56997 -29.35432,8.93936c-2.81954,2.73586 -5.55234,10.28873 -5.55234,10.28873c0,0 0.08926,-21.11257 4.8001,-27.03679c3.28719,-7.00574 7.67901,-6.2876 7.67901,-6.2876c0,0 7.96083,-10.60436 25.13563,-9.91879c4.28439,0.51833 9.92943,1.91959 13.128,4.81682c2.61381,2.36754 2.2544,4.10367 4.53787,6.79106c-5.73425,3.23948 -13.44346,12.95623 -20.37395,12.40722z" fill="#453725" stroke="none" stroke-width="0"/><g stroke="none" stroke-width="0"><path d="M221.68892,42.47904l-4.17836,-2.66652l6.2884,1.17143l-1.1356,-1.41497c0,0 3.60335,1.97001 9.24226,1.40286c7.66778,-0.77124 18.65419,-4.65726 24.20076,-4.58613c4.23174,0.05425 7.21787,0.92508 9.14555,4.79316c0.9938,1.99414 0.99729,5.58617 0.99729,5.58617c0,0 -0.53722,2.05368 0.12242,3.64785c-0.42603,0.90287 -0.48742,2.48497 -0.74996,3.47714l-0.76869,-5.11235c0,0 -0.89501,-4.12074 -1.06437,-4.07037c-0.50809,0.15112 -0.54958,3.27393 -0.54958,3.27393c0,0 -0.57506,-4.38416 -0.94423,-5.79256c-1.36392,0.51423 -0.34311,1.54297 -2.75405,1.66636c-8.88429,0.4546 -13.24346,6.28592 -22.07165,5.29041c-13.58286,-1.53168 -20.99039,-6.24073 -20.99039,-6.24073z" data-paper-data="{&quot;origPos&quot;:null}" fill="url(#color-13)"/><path d="M219.86786,39.3105l-4.16727,-3.67202l6.40961,1.3971l-1.09911,-2.00098c0,0 3.60979,2.68783 9.43588,1.59008c10.37874,-1.95552 5.14989,-13.1383 28.27656,-13.8109c11.7386,-0.34141 4.41999,10.83135 5.34198,18.11345c0.23972,1.8933 -0.63307,4.33167 -0.63307,4.33167l-0.13679,-2.75313c0,0 -0.43363,-1.00858 -2.85029,-0.60279c-2.07663,0.34867 -3.77817,-0.53459 -3.77817,-0.53459c0,0 1.39549,0.34258 3.96382,-0.62353c1.69086,-0.60109 0.27582,-1.46207 0.05117,-1.01585c-13.04628,1.01522 -14.07387,8.87011 -24.62848,7.67992c-13.8931,-1.56666 -20.48356,-7.10517 -20.48356,-7.10517z" data-paper-data="{&quot;origPos&quot;:null}" fill="#3b2f20"/></g><path d="M210.81679,60.57787c0.42715,4.70699 1.29555,9.08707 -2.52557,10.27032c-2.10891,0.65304 -5.69997,-3.14055 -6.16493,-8.26396c-0.46496,-5.1234 1.21443,-6.6257 4.15427,-7.18507c2.93985,-0.55935 4.07127,0.05529 4.5362,5.17871z" data-paper-data="{&quot;origRot&quot;:0}" fill="#f6d8c8" stroke="none" stroke-width="0"/><g data-paper-data="{&quot;origPos&quot;:null,&quot;origRot&quot;:0}" stroke="none" stroke-width="0"><path d="M227.33347,65.32208c-4.06378,-1.26758 -5.8334,-2.27575 -5.66951,-5.54483c0.06294,-1.25542 0.30696,-2.11315 1.17952,-2.83769c0.81797,-0.67922 2.48374,-1.30222 3.50085,-1.37924c2.43572,-0.18442 4.30655,-0.08628 6.37158,0.55783c4.71886,2.19883 4.70242,6.27996 4.70242,6.27996c0,0 -0.69933,1.37642 -1.67549,2.15428c-3.272,2.60726 -8.40935,0.76966 -8.40935,0.76966z" data-paper-data="{&quot;origPos&quot;:null}" fill="#000000"/><path d="M235.28674,65.1307c-1.14303,1.08711 -2.73036,1.15312 -2.73036,1.15312c-1.83748,-0.27502 -2.95408,-0.33344 -4.719,-0.85359c-1.81404,-0.53465 -3.12671,-0.70598 -4.18596,-2.08208c-1.06008,-1.37715 -1.53237,-2.79757 -1.14946,-3.89172c0.18898,-0.54001 0.26194,-1.89798 1.91989,-2.30289c1.22135,-0.29828 2.23193,-1.06327 3.25968,-1.07787c2.43361,-0.0345 2.85849,-0.06079 5.17317,0.66124c3.52144,2.18195 4.24656,5.93843 4.24656,5.93843c0,0 -0.67147,1.36831 -1.81452,2.45539z" data-paper-data="{&quot;origPos&quot;:null}" fill="#ffffff"/></g><path d="M229.1815,65.71623c-1.34236,-0.15137 -3.40617,-0.27826 -3.40617,-0.27826l0.04911,-0.43551c0,0 2.08851,0.22532 3.39552,0.3727c1.69571,0.19121 4.29868,0.49494 4.29868,0.49494l-0.04911,0.43552c0,0 -2.62764,-0.40214 -4.28803,-0.58938z" data-paper-data="{&quot;origPos&quot;:null}" fill="#000000" stroke="none" stroke-width="0"/><path d="M230.12589,56.09954c-1.25965,-0.12628 -4.59974,0.724 -4.59974,0.724c0,0 -3.40102,0.98948 -2.81264,0.30073c0.57926,-0.67809 1.81988,-1.15673 3.21771,-1.51011c1.75547,-0.44378 3.14308,-0.59406 4.96697,-0.35448c2.77328,0.76369 4.29332,2.15182 5.27487,3.64895c-0.16734,0.15619 -1.48871,-0.95955 -1.62219,-0.77163c-0.39844,-0.36892 -0.79878,-0.71488 -1.34594,-1.08721c-0.87029,-0.59219 -1.81935,-0.824 -3.07901,-0.95027z" data-paper-data="{&quot;origPos&quot;:null,&quot;origRot&quot;:0}" fill="#000000" stroke="#000000" stroke-width="0"/><path d="M229.83194,51.15825c5.25352,0.20127 8.61457,2.64567 8.61457,2.64567c0.66829,0.46698 0.63662,1.17146 0.18584,1.33562c-0.45077,0.16419 -1.04768,0.1355 -1.71596,-0.33147c-2.36248,-1.65082 -3.62206,-1.69088 -6.7327,-2.02165c-4.14166,-0.44037 -10.75047,1.18598 -10.04804,0.8568c1.51614,-0.71054 5.44399,-2.64793 9.69625,-2.48502z" data-paper-data="{&quot;origRot&quot;:0,&quot;origPos&quot;:null,&quot;index&quot;:null}" fill="#38301c" stroke="none" stroke-width="0"/><g data-paper-data="{&quot;origPos&quot;:null,&quot;origRot&quot;:0}" stroke="none" stroke-width="0"><path d="M250.20649,66.26957c-0.67938,-0.86535 -1.05521,-2.24055 -1.05521,-2.24055c0,0 0.53922,-3.76522 4.63004,-5.07614c1.74714,-0.28038 3.26426,-0.08683 5.19723,0.45295c0.80715,0.2254 2.06184,1.05269 2.62742,1.80313c0.60333,0.80048 0.68339,1.62833 0.56403,2.79536c-0.89061,2.9707 -3.0561,3.80007 -5.30793,4.25153c0,0 -4.37834,0.9143 -6.65558,-1.98627z" data-paper-data="{&quot;origPos&quot;:null}" fill="#000000"/><path d="M250.60252,61.50667c0.9113,-1.28448 1.52525,-1.31539 2.98346,-2.00444c1.95835,-0.3143 2.29634,-0.22556 4.24788,0.17571c1.69079,0.5456 3.4124,2.48373 3.45897,3.86277c0.15972,1.06693 -0.1653,2.34537 -1.20385,3.45416c-1.03776,1.10793 -2.11611,1.06664 -3.64668,1.28417c-1.48912,0.21164 -2.39457,0.09598 -3.90884,0.07059c0,0 -1.26702,-0.30184 -2.03867,-1.47766c-0.77166,-1.17579 -1.43083,-2.81497 -1.43083,-2.81497z" data-paper-data="{&quot;origPos&quot;:null}" fill="#ffffff"/></g><path d="M251.60638,68.20064l0.03145,-0.46479c0,0 1.40531,0.21189 3.03271,0.33659c1.25435,0.0961 3.2925,-0.05523 3.2925,-0.05523l-0.03143,0.46479c0,0 -1.84068,0.15156 -3.12894,0.05285c-1.59351,-0.1221 -3.19629,-0.3342 -3.19629,-0.3342z" data-paper-data="{&quot;origPos&quot;:null,&quot;origRot&quot;:0}" fill="#000000" stroke="none" stroke-width="0"/><path d="M250.45894,61.15987c0.93581,-1.23961 2.29755,-2.31784 4.61563,-2.68528c1.49983,-0.00409 2.64431,-0.01399 4.02447,0.59203c1.09897,0.48254 2.42959,2.04839 2.42959,2.04839c0,0 -1.45739,-0.48114 -2.31491,-0.7674c-1.09028,-0.36393 -2.40757,-0.70887 -3.43974,-0.74152c-1.03216,-0.03264 -1.73829,0.10491 -2.84938,0.82156c-1.13094,0.72944 -3.19773,2.66517 -3.19773,2.66517z" data-paper-data="{&quot;origPos&quot;:null,&quot;origRot&quot;:0}" fill="#000000" stroke="#000000" stroke-width="0"/><g><g data-paper-data="{&quot;origPos&quot;:null}" stroke="#000000" stroke-width="0"><path d="M235.05676,58.26844c0.0691,1.40534 -0.39545,2.72013 -1.20225,3.70838c-0.80679,0.98827 -2.08659,1.24074 -3.38527,1.34139c-1.29865,0.10069 -2.37333,0.03068 -3.27091,-0.82552c-0.89757,-0.85615 -1.48748,-2.08923 -1.55663,-3.4946c-0.03715,-0.7558 0.16458,-1.4759 0.40635,-2.14256c4.20203,-1.07093 4.91385,-1.78719 8.96838,0.96386c0.01934,0.14752 0.0329,0.29726 0.04036,0.44904z" data-paper-data="{&quot;origPos&quot;:null}" fill="#898151"/><path d="M235.08686,58.38093c0.01466,0.29803 -0.07923,0.58248 -0.11074,0.87011c-0.69204,-0.2345 -0.76561,-1.48383 -4.44752,-1.95251c-3.35072,-0.42654 -4.21065,0.41714 -4.78456,0.6041c0.16084,-0.941 0.22502,-0.68823 0.79505,-1.38647c0.23154,-0.52961 1.32243,-0.67448 2.6211,-0.77513c1.29865,-0.1006 5.8576,1.23449 5.92667,2.6399z" data-paper-data="{&quot;origPos&quot;:null}" fill="#4d461c"/></g><g data-paper-data="{&quot;origPos&quot;:null}" stroke="none" stroke-width="1"><path d="M229.70202,55.49555c0.64858,-0.45168 3.48928,0.52356 3.81854,1.31098c0.32927,0.78745 0.4112,1.74708 0.16792,2.6912c-0.24333,0.94411 -0.7663,1.69607 -1.41484,2.14778c-0.64855,0.45168 -1.42266,0.60315 -2.16767,0.34735c-0.74503,-0.25576 -1.3216,-0.87093 -1.65086,-1.65838c-0.32927,-0.78745 -0.41118,-1.74704 -0.1679,-2.69112c0.24328,-0.94411 0.76626,-1.69612 1.41484,-2.14784z" data-paper-data="{&quot;origPos&quot;:null}" fill="#000000"/><path d="M233.71883,57.03747c0.15548,0.30606 0.27923,0.28335 0.24129,0.68573c-0.03793,0.40235 -0.1838,0.74129 -0.38901,0.9635c-0.20522,0.22213 -0.4697,0.32765 -0.74436,0.26372c-0.27466,-0.06393 -0.50832,-0.28522 -0.66375,-0.59135c-0.15543,-0.30602 -0.23261,-0.69686 -0.19468,-1.09926c0.03793,-0.40235 -0.03458,-0.66128 0.17063,-0.88354c0,0 1.42446,0.35508 1.57988,0.66119z" data-paper-data="{&quot;origPos&quot;:null,&quot;origRot&quot;:0}" fill="#ffffff"/><path d="M228.11296,58.82429c0.16823,-0.08529 0.37196,-0.10976 0.57105,-0.05316c0.19911,0.0566 0.3562,0.18363 0.4492,0.3432c0.09297,0.15959 0.12181,0.35164 0.06441,0.53834c-0.05732,0.18667 -0.1902,0.33283 -0.35844,0.4181c-0.16823,0.08529 -0.37191,0.10985 -0.57104,0.05321c-0.19908,-0.05658 -0.35612,-0.18356 -0.44911,-0.34315c-0.09298,-0.15955 -0.1218,-0.35169 -0.06441,-0.53838c0.05743,-0.18669 0.19018,-0.33277 0.35839,-0.41805z" data-paper-data="{&quot;origPos&quot;:null}" fill="#ffffff"/></g></g><g><g data-paper-data="{&quot;origPos&quot;:null,&quot;origRot&quot;:0}" stroke="#000000" stroke-width="0"><path d="M252.39392,60.0636c3.82186,-1.46652 4.00302,-1.20933 6.84897,0.88951c-0.00826,0.67901 -0.06173,1.39672 -0.30444,2.08422c-0.45136,1.27836 -1.24418,2.26011 -2.16051,2.8128c-0.91633,0.5527 -2.33962,0.42284 -3.28461,-0.01333c-0.94503,-0.43617 -1.23513,-1.097 -1.55907,-2.22208c-0.32393,-1.12508 -0.4335,-1.90113 0.01784,-3.1795c0,0 0.3854,-0.24067 0.44182,-0.37163z" data-paper-data="{&quot;origPos&quot;:null}" fill="#898151"/><path d="M254.01663,59.0685c1.08044,-0.2887 2.6952,-0.03668 3.64023,0.39941c0.94504,0.43613 1.70568,0.45381 1.71577,1.29831c0.00809,0.67651 -0.05257,0.32256 -0.19951,1.2333c-0.37713,-0.3242 -0.782,-1.32994 -3.41541,-1.8221c-2.89366,-0.54083 -3.46566,1.09769 -4.05117,1.13114c0.05815,-0.27373 0.05694,-0.45754 0.15265,-0.72866c0.45131,-1.27838 1.07701,-1.2227 2.15745,-1.51139z" data-paper-data="{&quot;origPos&quot;:null}" fill="#4d461c"/></g><g data-paper-data="{&quot;index&quot;:null,&quot;origPos&quot;:null,&quot;origRot&quot;:0}" stroke="none" stroke-width="1"><path d="M254.71932,58.94443c0.57044,-0.40224 1.23086,-0.4261 1.86861,-0.1831c0.6378,0.243 1.15687,0.5006 1.42351,1.2218c0.26665,0.72122 0.31572,1.59576 0.08429,2.45173c-0.23148,0.85597 -0.70019,1.53323 -1.27059,1.93548c-0.57041,0.40223 -1.24248,0.52949 -1.88024,0.28649c-0.63778,-0.243 -1.12193,-0.81078 -1.38856,-1.53199c-0.26665,-0.72122 -0.31574,-1.59575 -0.08429,-2.45168c0.23143,-0.85598 0.70019,-1.53326 1.27061,-1.93552z" data-paper-data="{&quot;origPos&quot;:null}" fill="#000000"/><path d="M258.33283,59.83454c0.12739,0.2807 0.18518,0.63752 0.14333,1.00322c-0.04183,0.36569 -0.13814,0.34096 -0.32042,0.5404c-0.1823,0.19937 -0.41309,0.29181 -0.64892,0.22985c-0.23581,-0.06195 -0.46997,0.06466 -0.59735,-0.21607c-0.12735,-0.28065 -0.18519,-0.63744 -0.14336,-1.0032c0.04183,-0.36569 -0.01339,-0.9092 0.16889,-1.10866c0,0 1.27045,0.27373 1.3978,0.55447z" data-paper-data="{&quot;origPos&quot;:null,&quot;origRot&quot;:0}" fill="#ffffff"/><path d="M253.40054,61.75993c0.14724,-0.07533 0.32375,-0.09481 0.49447,-0.04056c0.17071,0.05425 0.30351,0.17203 0.38027,0.31852c0.0767,0.14651 0.09728,0.32172 0.0435,0.49086c-0.05374,0.16912 -0.1718,0.30033 -0.31905,0.37564c-0.14724,0.07533 -0.32373,0.09492 -0.49446,0.04062c-0.17069,-0.05421 -0.30351,-0.17196 -0.3802,-0.31846c-0.0767,-0.1465 -0.09729,-0.32177 -0.04348,-0.49091c0.05382,-0.16915 0.1718,-0.30027 0.31903,-0.37561z" data-paper-data="{&quot;origPos&quot;:null}" fill="#ffffff"/></g></g><path d="M247.72074,82.49437c-0.2613,2.31719 -4.21504,3.55004 -8.45304,3.07214c-4.23801,-0.4779 -7.06992,-2.25232 -6.80862,-4.5695c0.2613,-2.31719 4.85425,-4.26067 9.09226,-3.78277c4.23801,0.4779 6.43071,2.96294 6.16941,5.28013z" fill="#884744" stroke="#000000" stroke-width="0.75"/></g></g></g></svg>