<svg version="1.1" xmlns="http://www.w3.org/2000/svg" xmlns:xlink="http://www.w3.org/1999/xlink" width="29.92485" height="29.82027" viewBox="0,0,29.92485,29.82027"><defs><radialGradient cx="237.91921" cy="186.05981" r="5.53642" gradientUnits="userSpaceOnUse" id="color-1"><stop offset="0" stop-color="#ffff00"/><stop offset="1" stop-color="#ff9400"/></radialGradient></defs><g transform="translate(-225.05492,-165.13016)"><g data-paper-data="{&quot;isPaintingLayer&quot;:true}" fill-rule="nonzero" stroke-width="1" stroke-linecap="round" stroke-linejoin="miter" stroke-miterlimit="10" stroke-dasharray="" stroke-dashoffset="0" style="mix-blend-mode: normal"><path d="M254.46547,175.65894c-0.11756,0.55725 -0.28792,1.38343 -0.55457,2.16479c-0.1898,0.55584 -0.56312,1.03393 -0.87192,1.53338c-0.61911,1.00074 -1.25592,1.99459 -1.91424,2.96989c-0.29433,0.43596 -0.65887,0.82484 -0.94542,1.26611c-0.31985,0.49272 -0.58148,1.0226 -0.87192,1.53338c-1.09689,1.92901 -2.24344,3.83834 -3.29395,5.7928c-0.26256,0.48876 -0.26993,1.05366 -0.60468,1.45991c-0.65629,0.79652 -1.31918,1.76562 -2.30509,2.07123c-0.62639,0.1944 -1.2142,-0.50463 -1.80065,-0.79843c-0.52507,-0.26294 -1.0729,-0.50726 -1.53338,-0.87192c-0.89368,-0.70748 -1.6424,-1.58822 -2.50888,-2.32848c-0.44943,-0.38406 -0.93463,-0.72986 -1.4365,-1.0423c-0.88656,-0.55191 -1.77991,-1.10769 -2.72603,-1.55009c-0.54499,-0.25488 -1.1602,-0.32919 -1.72715,-0.53116c-0.49561,-0.17675 -0.97366,-0.40348 -1.45988,-0.60466c-0.48626,-0.20119 -0.98798,-0.37195 -1.45991,-0.60469c-0.52681,-0.25987 -1.02259,-0.58147 -1.53338,-0.87192c-0.45387,-0.25809 -1.22456,-0.27152 -1.363,-0.77504c-0.13847,-0.50351 0.46266,-0.94449 0.77504,-1.363c0.32183,-0.43116 0.76821,-0.7586 1.11579,-1.16924c0.33975,-0.40159 0.63364,-0.84232 0.94544,-1.26614c0.35002,-0.476 0.72037,-0.94091 1.0423,-1.4365c0.28427,-0.43808 0.51696,-0.90913 0.77504,-1.363c0.25809,-0.45387 0.51696,-0.90913 0.77504,-1.363c0.2581,-0.4539 0.46267,-0.94451 0.77506,-1.36303c0.32183,-0.43116 0.79397,-0.73807 1.1158,-1.16923c0.31237,-0.41849 0.51696,-0.90913 0.77504,-1.363c0.80643,-1.4182 1.61559,-2.8412 2.42202,-4.25941c0.51618,-0.90777 0.67053,-2.16333 1.55009,-2.72603c0.574,-0.36713 1.34541,0.25008 1.99439,0.45768c0.56289,0.17982 1.07736,0.49311 1.63028,0.70155c0.62278,0.23464 1.27657,0.3886 1.89752,0.62806c0.612,0.23616 1.21323,0.50633 1.80063,0.79842c0.46756,0.23249 0.94243,0.46554 1.36303,0.77506c0.48496,0.35648 0.89337,0.80875 1.33962,1.21267c0.44625,0.40392 0.85465,0.85621 1.33961,1.21268c0.42058,0.30951 0.93234,0.48009 1.363,0.77504c0.8683,0.59431 1.7154,1.22748 2.53226,1.89086c0.4176,0.33937 0.76272,0.76333 1.16924,1.11579c0.10186,0.08813 0.35196,-0.01227 0.34076,0.19377z" fill="#ffffcc" stroke="#000000"/><path d="M235.60817,167.41627c-0.03903,-0.37708 0.53771,-0.56183 0.8736,-0.74332c0.4888,-0.26406 1.0148,-0.51104 1.5668,-0.57461c1.11795,-0.12863 2.27961,-0.23421 3.37913,0.00501c1.08843,0.23653 2.04265,0.89862 3.04173,1.39141c0.49756,0.24551 0.955,0.53538 1.44818,0.82348c1.97293,1.15209 4.07441,2.12248 5.91474,3.47603c0.8897,0.65425 1.72703,1.48617 2.19318,2.48716c0.23559,0.50555 0.0118,1.16875 -0.26392,1.65363c-0.54099,0.95139 -1.14524,2.00295 -2.10965,2.52057c-0.46341,0.24876 -1.01054,-0.33067 -1.45988,-0.60466c-1.3696,-0.83563 -2.71812,-1.72417 -3.98048,-2.71434c-1.70209,-1.33493 -3.2698,-2.84279 -4.9075,-4.25609c-0.40931,-0.35313 -0.78015,-0.72949 -1.21767,-1.03061c-0.51086,-0.35138 -1.05041,-0.67215 -1.61857,-0.92036c-0.58068,-0.25398 -1.25221,-0.28319 -1.81235,-0.57961c-0.41281,-0.21851 0.09762,-0.5998 -0.65343,-0.22107z" fill="#ff0000" stroke="#000000"/><path d="M234.67274,173.42287c0,0 1.5786,0.63698 2.33518,0.65143c0.52197,0.08444 1.41813,-0.83499 1.33629,-0.36748c-0.32669,1.86238 -2.37192,4.9643 -2.37192,4.9643" fill="none" stroke="#ff9400"/><path d="M242.65371,176.83375c0.16368,-0.05709 -0.05885,-0.12728 0,0c0.23559,0.50958 0.75567,0.9708 0.70824,1.53005c-0.04434,0.52445 -0.51626,0.96182 -0.94542,1.26611c-0.49068,0.34823 -1.12658,0.79246 -1.70043,0.61134c-0.55659,-0.17579 -0.96911,-0.87302 -0.97548,-1.45654c-0.0056,-0.52624 0.50825,-0.97313 0.94541,-1.26612c0.57661,-0.38594 1.31263,-0.45669 1.45655,-0.97547z" fill="none" stroke="#ff9400"/><path d="M246.98664,179.52301c0.22946,0.05246 0.10844,0.47699 0.0501,0.70491c-0.13063,0.50967 -0.26006,1.06242 -0.60466,1.45988c-0.3446,0.39747 -0.84373,0.9073 -1.35968,0.80512c-0.54722,-0.10826 -1.06618,-0.72847 -1.07238,-1.2862c-0.00669,-0.59091 0.52735,-1.14627 1.0423,-1.4365c0.56872,-0.32054 1.30818,-0.39337 1.67705,-0.17371z" fill="none" stroke="#ff9400"/><path d="M232.45118,180.50185c0,0 1.52601,-0.11033 2.28504,-0.05347c0.61758,0.04634 1.21511,0.2477 1.82403,0.36081c1.15664,0.21489 2.37462,0.21484 3.47768,0.62471c1.59193,0.59136 4.52668,2.34852 4.52668,2.34852" fill="none" stroke="#ff9400"/><path d="M241.14038,185.44277c0.2351,0.39703 0.43627,0.87983 0.36748,1.33629c-0.07795,0.51617 -0.35898,1.04764 -0.77504,1.363c-0.44148,0.33471 -1.05069,0.41083 -1.60356,0.44097c-0.55689,0.0301 -1.10877,-0.14527 -1.65363,-0.26392c-0.52584,-0.11412 -1.08894,-0.16826 -1.5568,-0.43429c-0.46785,-0.26603 -0.77988,-0.74424 -1.16923,-1.1158c-0.38935,-0.37156 -0.89503,-0.6528 -1.16924,-1.11579c-0.28228,-0.47662 -0.7479,-1.16211 -0.44097,-1.60356c0.31112,-0.44719 1.1158,-0.16053 1.67705,-0.17371c0.58356,-0.01358 1.16723,0.07256 1.75052,0.09354c1.10859,0.0401 2.27466,-0.2501 3.3307,0.09018c0.58918,0.18984 0.92747,0.85025 1.26611,0.94542z" fill="url(#color-1)" stroke="#ff9400"/></g></g></svg>