<svg version="1.1" xmlns="http://www.w3.org/2000/svg" xmlns:xlink="http://www.w3.org/1999/xlink" width="228.5" height="196.58849" viewBox="0,0,228.5,196.58849"><g transform="translate(-272.25,-199.7787)"><g data-paper-data="{&quot;isPaintingLayer&quot;:true}" fill-rule="nonzero" stroke-linejoin="miter" stroke-miterlimit="10" stroke-dasharray="" stroke-dashoffset="0" style="mix-blend-mode: normal"><path d="M272.25,389.04116l28.5,-120l200,-19.5v139.5z" fill="#4db494" stroke="none" stroke-width="NaN" stroke-linecap="butt"/><g><g data-paper-data="{&quot;origPos&quot;:null,&quot;origRot&quot;:0}"><path d="M378.61144,388.48014c-9.58679,-6.28573 -12.92176,-10.09575 -13.98275,-17.87608c-1.11032,-8.14188 8.75306,-17.10397 15.78992,-21.76866c7.7237,-5.12001 15.29248,-4.72504 24.20922,2.47677c7.02962,5.67761 7.78656,5.5816 8.9308,12.78557c0.82185,5.1742 -0.58829,8.2328 -4.30373,13.69774c-3.71544,5.46496 -5.65315,8.98568 -11.90739,11.76208c-6.6086,2.93371 -12.68939,2.88718 -18.73607,-1.07744z" data-paper-data="{&quot;origPos&quot;:null}" fill="#a6a6a6" stroke="none" stroke-width="0" stroke-linecap="butt"/><path d="M398.239,376.67697c-2.01909,2.40028 -5.83017,4.81867 -7.68509,0.48589c-1.856,-4.3352 4.74198,-10.36948 7.12914,-9.34826c4.52746,0.79203 11.57887,7.88043 7.12631,13.27444" data-paper-data="{&quot;origPos&quot;:null}" fill="none" stroke="#5b5b5b" stroke-width="2" stroke-linecap="round"/><path d="M394.48821,369.50905c-0.00846,-4.21609 4.54707,-7.30952 6.93422,-6.2883c7.3759,3.83403 8.97315,6.87079 7.74993,12.37591" data-paper-data="{&quot;origPos&quot;:null}" fill="none" stroke="#5b5b5b" stroke-width="2" stroke-linecap="round"/><path d="M397.85579,364.65688c-0.00846,-4.21609 4.54706,-7.30951 6.93421,-6.28829c7.37592,3.83403 7.05005,6.06862 7.43924,12.42655" data-paper-data="{&quot;origPos&quot;:null}" fill="none" stroke="#5b5b5b" stroke-width="2" stroke-linecap="round"/><path d="M400.58881,360.16327c-0.00846,-4.21609 3.17958,-6.92724 5.56674,-5.90604c5.82696,2.49274 6.86407,5.93954 7.25326,12.29748" data-paper-data="{&quot;origPos&quot;:null}" fill="none" stroke="#5b5b5b" stroke-width="2" stroke-linecap="round"/><path d="M374.92182,370.30763c2.9874,-3.42143 5.61189,-1.80279 9.19381,-3.70462c3.1571,-1.67628 6.36055,-7.30427 9.62832,-5.63188c2.86322,1.46537 2.81303,3.29331 1.12309,6.21378c-2.3019,3.97802 -2.56687,4.45027 -5.10106,8.07352c-3.1445,4.49584 -7.2513,5.56195 -12.39241,4.38083" data-paper-data="{&quot;origPos&quot;:null}" fill="none" stroke="#5b5b5b" stroke-width="2" stroke-linecap="round"/></g><path d="M348.77473,373.78995c-7.50776,-5.67811 -4.27842,-8.92294 -20.19493,-23.30309c-11.6724,-10.54573 -16.71993,-19.05739 -5.84574,-32.8767c11.52082,-13.26532 20.67864,-10.04276 33.07409,0.11083c18.40247,15.07417 16.71704,7.26195 27.1971,16.92757c10.70894,9.87672 12.81987,17.18321 -0.01909,33.3953c-14.19995,15.74991 -21.57195,15.30526 -34.21143,5.74607z" data-paper-data="{&quot;index&quot;:null,&quot;origPos&quot;:null,&quot;origRot&quot;:0}" fill="#8d0000" stroke="none" stroke-width="0" stroke-linecap="butt"/></g><path d="M365.52255,340.32953c-30.67263,9.14143 -32.11613,7.29958 -37.12136,-10.48717c-5.2272,-18.57556 -4.01288,-20.38608 26.62515,-28.80279c33.03844,-9.07613 44.38824,-5.03827 47.7143,7.88348c3.50712,13.62523 -4.15614,21.55295 -37.21806,31.40648z" data-paper-data="{&quot;index&quot;:null,&quot;origRot&quot;:0}" fill="#8d0000" stroke="none" stroke-width="0" stroke-linecap="butt"/><g data-paper-data="{&quot;index&quot;:null}" fill="none" stroke="none" stroke-width="1" stroke-linecap="butt" font-family="sans-serif" font-weight="normal" font-size="12" text-anchor="start"/><g fill="none" stroke="none" stroke-width="1" stroke-linecap="butt" font-family="sans-serif" font-weight="normal" font-size="12" text-anchor="start"/><path d="M466.65376,314.85389c7.65859,17.23113 11.44246,42.7676 -11.81071,50.53258c-23.25317,7.76499 -34.31592,-14.73722 -41.97451,-31.96836c-7.65859,-17.23114 -7.37972,-34.05307 6.29123,-41.37571c13.67097,-7.32264 39.83538,5.58034 47.49397,22.81148z" data-paper-data="{&quot;origRot&quot;:0}" fill="#8d0000" stroke="none" stroke-width="0" stroke-linecap="butt"/><g data-paper-data="{&quot;origPos&quot;:null}"><g data-paper-data="{&quot;origPos&quot;:null}"><g data-paper-data="{&quot;origPos&quot;:null}" fill="#e50000" stroke="none" stroke-width="0" stroke-linecap="butt"><path d="M360.66022,390.7108c-2.09166,-4.64442 -0.93629,-6.79174 3.02905,-9.86425c3.39777,-4.74433 3.63979,-5.66725 4.20973,-13.48872c1.48688,-12.32196 17.54513,-13.94063 29.44006,-13.54033c11.89493,0.40031 36.74857,4.77955 37.45033,10.23886c0.84562,6.57843 1.14158,12.21188 4.46671,17.76443c4.73685,4.01411 4.48319,7.40196 0.98836,11.31963c-2.85161,2.71823 -8.05883,4.44684 -15.00691,2.17817c-10.68303,-3.48818 -23.84269,-4.84546 -35.03259,-4.84546c-10.21874,0 -7.3539,-0.21154 -17.55725,1.32627c-7.57208,1.35161 -9.77481,2.56067 -11.98748,-1.08858z" data-paper-data="{&quot;origPos&quot;:null}"/><path d="M368.15412,312.43266c0,-14.70406 14.69639,-22.6568 33.08539,-22.6568c18.38901,0 34.01893,6.79252 34.01893,21.49659c0,16.96708 1.6402,61.37162 -2.23546,66.58043c-3.63242,4.88188 -14.38216,5.93881 -31.0859,5.93881c-12.55114,0 -27.93156,0.20394 -31.53466,-7.22291c-4.29934,-8.86206 -2.24828,-43.18739 -2.24828,-64.13614z" data-paper-data="{&quot;origPos&quot;:null}"/></g><path d="M388.65703,310.66v65.75827" data-paper-data="{&quot;origPos&quot;:null}" fill="none" stroke="#000000" stroke-width="2" stroke-linecap="round"/><path d="M366.52468,381.16279c0,0 5.26611,-3.74574 21.0496,-3.84978c18.93288,-0.1248 41.05578,5.42232 41.05578,5.42232" data-paper-data="{&quot;origPos&quot;:null}" fill="none" stroke="#8d0000" stroke-width="2" stroke-linecap="round"/></g><path d="M371.47487,299.81124c0,-8.31359 4.60403,-10.88461 28.2962,-11.09176c30.20362,-0.26409 33.87886,3.20666 34.09588,7.55296c0.60501,12.11648 -24.92988,16.29485 -41.10734,15.95099c-12.42459,-0.26409 -20.80724,-7.54704 -21.28472,-12.41221z" data-paper-data="{&quot;origPos&quot;:null}" fill="#8d0000" stroke="none" stroke-width="0" stroke-linecap="butt"/></g><g><path d="M443.0936,256.92707c0,23.89066 -20.38885,43.57476 -44.36703,43.57476c-23.97818,0 -42.46559,-20.63482 -42.46559,-44.52548c0,-23.89066 18.48741,-43.57476 42.46559,-43.57476c23.97818,0 44.36703,20.63482 44.36703,44.52548z" data-paper-data="{&quot;origPos&quot;:null}" fill="#661800" stroke="none" stroke-width="0" stroke-linecap="butt"/><g data-paper-data="{&quot;origPos&quot;:null}"><path d="M394.46246,300.47159c-22.38894,-0.24544 -35.86615,-17.85205 -35.86615,-39.87369c0,-22.02164 15.63716,-39.48531 37.82248,-39.48531c22.18533,0 38.60501,17.85205 38.60501,39.87368c0,22.02164 -18.37876,39.13967 -40.56133,39.48533z" data-paper-data="{&quot;origPos&quot;:null}" fill="#ffceb3" stroke="none" stroke-width="0" stroke-linecap="butt"/><path d="M400.06783,246.02456c8.75967,0 12.78946,8.584 12.78946,19.17289c0,10.58888 -5.72603,19.17289 -12.78946,19.17289c-7.06342,0 -12.78948,-8.584 -12.78948,-19.17289c0,-10.58888 4.02981,-19.17289 12.78948,-19.17289z" data-paper-data="{&quot;origPos&quot;:null}" fill="#ffffff" stroke="none" stroke-width="0" stroke-linecap="butt"/><path d="M367.35866,246.02456c5.58137,0 8.14903,8.584 8.14903,19.17289c0,10.58888 -3.64844,19.17289 -8.14903,19.17289c-4.50059,0 -8.14905,-8.584 -8.14905,-19.17289c0,-10.58888 2.56766,-19.17289 8.14905,-19.17289z" data-paper-data="{&quot;origPos&quot;:null}" fill="#ffffff" stroke="none" stroke-width="0" stroke-linecap="butt"/><g data-paper-data="{&quot;origPos&quot;:null}"><path d="M375.14982,272.38966l4.12333,18.16784c0,0 -14.95834,0.62409 -14.75896,-1.34186c0.47387,-1.81382 10.63563,-16.82597 10.63563,-16.82597z" data-paper-data="{&quot;origPos&quot;:null}" fill="#ffceb3" stroke="none" stroke-width="0" stroke-linecap="butt"/><path d="M378.54329,290.94983c0,0 -13.65405,0.25579 -13.64438,-1.38495c0.01778,-3.01595 9.42695,-16.36506 9.42695,-16.36506" data-paper-data="{&quot;origPos&quot;:null}" fill="none" stroke="#b37959" stroke-width="2" stroke-linecap="round"/></g></g><path d="M382.73348,297.01327c0,0 5.74564,-4.00378 9.24336,-5.9625c4.23211,-2.36997 11.71573,-3.68877 11.71573,-3.68877" fill="none" stroke="#b37959" stroke-width="2" stroke-linecap="round"/><path d="M408.15827,258.26982c1.98984,0 3.60294,4.21432 3.60294,9.41291c0,5.19861 -1.61309,9.4129 -3.60294,9.4129c-1.98983,0 -3.60292,-4.2143 -3.60292,-9.4129c0,-5.19861 1.61308,-9.41291 3.60292,-9.41291z" fill="#000000" stroke="none" stroke-width="0" stroke-linecap="butt"/><path d="M372.12674,258.26982c1.98984,0 3.60294,4.21432 3.60294,9.41291c0,5.19861 -1.61309,9.4129 -3.60294,9.4129c-1.98983,0 -3.60292,-4.2143 -3.60292,-9.4129c0,-5.19861 1.61308,-9.41291 3.60292,-9.41291z" fill="#000000" stroke="none" stroke-width="0" stroke-linecap="butt"/><path d="M416.10367,221.64471c10.67642,0 19.70106,11.17518 22.55323,22.92297c2.62211,10.80024 2.17683,23.80315 -4.75361,25.19414c-18.916,3.80289 -26.62022,-15.98163 -26.62022,-27.09558c0,-11.11396 -1.85583,-21.02153 8.82059,-21.02153z" data-paper-data="{&quot;origPos&quot;:null}" fill="#661800" stroke="none" stroke-width="0" stroke-linecap="butt"/><path d="M398.81875,207.48673c8.19748,4.71664 9.99727,7.23396 9.89813,14.54581c-0.10451,7.70804 -31.22704,8.15042 -31.22704,-1.11891c0,-5.47264 1.29821,-4.5513 0.66192,-10.48581c-0.56326,-5.25348 -2.51385,-10.64911 -2.51385,-10.64911c0,0 13.98512,2.41704 23.18081,7.70803z" data-paper-data="{&quot;origPos&quot;:null}" fill="#661800" stroke="none" stroke-width="0" stroke-linecap="butt"/><path d="M355.32166,233.01436c0,-13.03923 17.34351,-23.9265 32.483,-23.9265c15.13951,0 24.56032,6.13368 24.56032,19.17289c0,13.03922 -1.96208,24.50149 -15.37001,34.38445c-11.75475,6.16392 -25.58918,11.30428 -38.84636,10.65981c-10.87124,-1.03025 -29.81843,-5.83938 -33.23463,-16.52447c3.31766,-1.01818 11.52584,-1.2578 15.4687,-4.47393c7.5198,-6.1338 14.93896,-9.58807 14.93896,-19.29226z" data-paper-data="{&quot;origPos&quot;:null}" fill="#661800" stroke="none" stroke-width="0" stroke-linecap="butt"/><path d="M427.73812,256.11926c4.8791,1.03731 7.55095,7.91522 5.96771,15.36229c-1.58324,7.44707 -6.82199,12.64322 -11.70111,11.60592c-4.8791,-1.03731 -7.55095,-7.91522 -5.96771,-15.36229c1.58324,-7.44707 6.82199,-12.64321 11.70111,-11.60592z" data-paper-data="{&quot;origPos&quot;:null,&quot;origRot&quot;:0}" fill="#ffceb3" stroke="none" stroke-width="0" stroke-linecap="butt"/><path d="M424.3184,243.52456c0,5.3382 -1.80388,10.04763 -1.49666,15.80317c0.58189,12.73637 3.92091,16.79613 2.84352,17.67017c-1.70601,1.38403 -9.64331,-7.71115 -13.16579,-14.19666c-3.47955,-6.40647 -4.14528,-12.77853 -4.14528,-20.06895c0,-5.3382 2.54487,-9.26954 7.88307,-9.26954c5.33819,0 8.08113,4.72361 8.08113,10.06181z" data-paper-data="{&quot;origPos&quot;:null}" fill="#661800" stroke="none" stroke-width="0" stroke-linecap="butt"/><path d="M414.74892,215.5931c0,0 -0.26137,23.33378 -5.37758,32.21043c-6.74525,11.70303 -17.19256,19.47878 -18.90053,19.34542c-0.5262,-0.04109 -0.48387,-11.48149 -0.48387,-11.48149" data-paper-data="{&quot;origPos&quot;:null}" fill="none" stroke="#000000" stroke-width="2.5" stroke-linecap="round"/><path d="M371.96599,255.66746c0,0 0.03096,11.4404 -0.35383,11.48149c-1.24894,0.13335 -8.88852,-7.6424 -13.82096,-19.34542c-3.74122,-8.87665 -3.93236,-32.21043 -3.93236,-32.21043" data-paper-data="{&quot;origPos&quot;:null,&quot;index&quot;:null}" fill="none" stroke="#000000" stroke-width="2.5" stroke-linecap="round"/></g><g><g data-paper-data="{&quot;origPos&quot;:null}"><path d="M393.25247,348.01352c1.73238,-6.23254 5.11971,-7.51205 12.0024,-7.36075c3.44796,-6.46566 7.67613,-3.44859 19.93708,-2.68443c8.94485,1.2623 14.19208,10.3038 16.95329,18.70295c2.43767,7.41498 3.44321,15.2446 -0.68774,19.7777c-3.08653,3.38701 -16.44997,8.18673 -25.53674,9.51187c-5.78092,0.84301 -19.85784,-9.9181 -21.95386,-18.14894c-1.14625,-4.50119 -2.44682,-13.56585 -0.71442,-19.7984z" data-paper-data="{&quot;origPos&quot;:null}" fill="#e5e5e5" stroke="none" stroke-width="0" stroke-linecap="butt"/><path d="M405.45275,341.54971c0,0 5.69894,6.47001 2.59311,9.13669c-3.71612,3.19066 -5.02664,2.41221 -6.10851,1.35299c-2.41106,-2.3606 0.33231,-4.7121 -1.15255,-5.00804c-2.40289,-0.47893 -1.9152,5.0392 -1.9152,5.0392" data-paper-data="{&quot;origPos&quot;:null}" fill="none" stroke="#989898" stroke-width="2" stroke-linecap="round"/></g><g data-paper-data="{&quot;origPos&quot;:null,&quot;origRot&quot;:0}"><path d="M429.32103,333.07058c8.09098,-4.81078 9.87769,-0.59589 29.20002,-9.91102c14.17006,-6.83126 23.95704,-8.29458 32.65262,6.98964c7.9386,15.67411 1.49919,22.93941 -12.58052,30.58822c-20.90295,11.35555 -13.03217,12.74197 -25.93734,18.80104c-13.18701,6.19139 -20.74998,5.3898 -30.92029,-12.61673c-9.22883,-19.0926 -6.03578,-25.75207 7.58551,-33.85114z" data-paper-data="{&quot;index&quot;:null,&quot;origPos&quot;:null}" fill="#e50000" stroke="none" stroke-width="0" stroke-linecap="butt"/><path d="M417.97381,354.87191c-1.98447,-8.448 -1.16334,-14.53606 12.33331,-22.38776c5.58572,-3.2495 11.88104,-2.5715 21.41044,-6.33935c10.37239,-4.10116 18.53946,-7.7335 22.0879,-9.64555" data-paper-data="{&quot;origPos&quot;:null}" fill="none" stroke="#8d0000" stroke-width="2" stroke-linecap="round"/></g></g><g data-paper-data="{&quot;origRot&quot;:0}"><path d="M467.11277,305.70238c25.37992,19.49961 24.73315,21.74856 13.25222,36.22643c-11.99009,15.11993 -14.16877,15.19675 -38.94115,-4.69946c-26.71324,-21.45504 -30.09133,-33.01838 -21.56891,-43.28496c8.98641,-10.8255 19.90089,-9.2606 47.25784,11.75796z" data-paper-data="{&quot;origPos&quot;:null,&quot;index&quot;:null}" fill="#e50000" stroke="none" stroke-width="0" stroke-linecap="butt"/><path d="M456.89542,350.09837c0,0 -16.6221,-12.13616 -32.8608,-28.54047" data-paper-data="{&quot;origPos&quot;:null}" fill="none" stroke="#8d0000" stroke-width="2" stroke-linecap="round"/></g></g></g></svg>