<svg version="1.1" xmlns="http://www.w3.org/2000/svg" xmlns:xlink="http://www.w3.org/1999/xlink" width="251.51441" height="408.97967" viewBox="0,0,251.51441,408.97967"><g transform="translate(-113.55175,-2.74011)"><g data-paper-data="{&quot;isPaintingLayer&quot;:true}" fill-rule="nonzero" stroke-linejoin="miter" stroke-miterlimit="10" stroke-dasharray="" stroke-dashoffset="0" style="mix-blend-mode: normal"><g><path d="M252.38452,181.46727c-38.44446,-25.66568 -45.12779,-38.84113 -35.25955,-54.9031c9.35878,-15.23266 25.48503,-15.92332 64.20627,8.73771c35.90792,22.86928 36.7482,25.66681 22.72372,47.38843c-13.42895,20.79923 -16.00421,22.58784 -51.67042,-1.22303z" data-paper-data="{&quot;origPos&quot;:null,&quot;index&quot;:null,&quot;origRot&quot;:0}" fill="#8d0000" stroke="none" stroke-width="0" stroke-linecap="butt"/><g data-paper-data="{&quot;origPos&quot;:null,&quot;index&quot;:null}" stroke="none" stroke-width="0" stroke-linecap="butt"><path d="M131.96773,411.71978v-7.96158h85.85023v7.96158z" data-paper-data="{&quot;origPos&quot;:null}" fill="#585858"/><path d="M132.63156,393.27718c0,0 25.08245,-28.15519 34.51441,-31.54918c11.07411,-3.98491 13.38154,-4.26766 23.26821,-4.41347c8.98762,-0.13257 18.59553,1.92466 22.07134,8.91055c7.41306,18.74384 5.73851,39.62861 5.73851,39.62861l-86.21727,0.1118z" data-paper-data="{&quot;origPos&quot;:null}" fill="#bebebe"/><path d="M132.24293,394.07314c0,0 25.40299,-30.59644 31.84563,-33.92067c5.17628,-2.6708 30.93408,-2.51599 30.93408,-2.51599l-7.91523,36.06029l-54.8645,0.37634z" data-paper-data="{&quot;origPos&quot;:null}" fill="#7f7f7f"/></g><path d="M230.87648,323.7245c-1.61433,23.70788 1.42071,24.09107 1.27984,35.81582c-0.20634,17.17518 2.47698,31.00605 -25.79581,29.65999c-13.81387,-0.65769 -16.82846,-21.30543 -42.83897,-22.69561c-8.88934,-0.4751 -16.33989,12.65209 -15.67571,0.78524c0.37521,-6.70399 2.72307,-14.54969 11.48261,-20.10534c6.88252,-10.47735 9.33632,-21.10168 15.3237,-34.99026c5.68597,-13.18938 8.16403,-16.59394 33.34807,-13.84074c25.98357,2.84061 22.34549,13.81892 22.87626,25.37089z" data-paper-data="{&quot;origPos&quot;:null,&quot;index&quot;:null}" fill="#101099" stroke="none" stroke-width="0" stroke-linecap="butt"/><path d="M198.37465,331.32382c-25.328,-7.19695 -29.40669,-6.16672 -16.83695,-50.40296c14.64559,-51.54176 17.98096,-52.10476 43.87389,-44.74727c26.00873,7.39038 27.52882,10.83859 13.11287,61.69655c-12.36877,43.63581 -15.89729,40.34504 -40.14981,33.4537z" data-paper-data="{&quot;origPos&quot;:null,&quot;index&quot;:null,&quot;origRot&quot;:0}" fill="#101099" stroke="none" stroke-width="0" stroke-linecap="butt"/><g data-paper-data="{&quot;origPos&quot;:null}" stroke="none" stroke-width="0" stroke-linecap="butt"><path d="M263.22706,411.71978v-7.96158h101.52906v7.96158z" data-paper-data="{&quot;origPos&quot;:null}" fill="#585858"/><path d="M364.67729,405.96547l-101.89756,-0.1118c0,0 0.12227,-37.56796 3.85096,-41.78201c3.94056,-4.45349 15.84307,-5.34912 25.98557,-5.71344c10.31816,-0.37065 14.04414,0.15267 24.302,1.32665c4.45574,0.42496 47.85296,33.90114 47.85296,33.90114z" data-paper-data="{&quot;origPos&quot;:null}" fill="#bebebe"/><path d="M365.06615,393.52626l-37.35935,0.10618l-35.14785,-35.40248c0,0 24.02929,-0.55001 28.05736,1.53924c3.83028,1.98668 44.44984,33.75706 44.44984,33.75706z" data-paper-data="{&quot;origPos&quot;:null}" fill="#7f7f7f"/></g><path d="M280.2429,298.35361c25.18404,-2.7532 27.6621,0.65136 33.34807,13.84074c5.98738,13.88858 8.44118,24.51291 15.3237,34.99026c8.75954,5.55565 11.1074,13.40135 11.48261,20.10534c0.66419,11.86685 -6.78636,-1.26035 -15.67571,-0.78524c-26.01051,1.39018 -29.02511,22.03792 -42.83897,22.69561c-28.27279,1.34606 -25.58946,-12.48481 -25.79581,-29.65999c-0.14087,-11.72475 2.89417,-12.10794 1.27984,-35.81582c0.53077,-11.55197 -3.10731,-22.53028 22.87626,-25.37089z" data-paper-data="{&quot;origPos&quot;:null,&quot;index&quot;:null}" fill="#101099" stroke="none" stroke-width="0" stroke-linecap="butt"/><path d="M288.74338,328.70979c-25.33707,7.16491 -28.26839,10.18226 -40.78219,-34.06986c-14.58043,-51.56023 -12.03663,-53.78975 13.86558,-61.11448c26.01805,-7.35747 29.12151,-5.21991 43.53857,45.63775c12.36974,43.63551 7.63925,42.68592 -16.62197,49.54661z" data-paper-data="{&quot;origPos&quot;:null,&quot;index&quot;:null,&quot;origRot&quot;:0}" fill="#101099" stroke="none" stroke-width="0" stroke-linecap="butt"/><path d="M121.44206,139.39116c10.26158,-23.08764 45.31872,-40.37606 63.63616,-30.56462c18.31742,9.81144 18.69106,32.35079 8.42948,55.43843c-10.26158,23.08764 -25.08432,53.23787 -56.24075,42.83373c-31.15643,-10.40412 -26.0865,-44.6199 -15.82492,-67.70752z" data-paper-data="{&quot;origPos&quot;:null,&quot;origRot&quot;:0}" fill="#8d0000" stroke="none" stroke-width="0" stroke-linecap="butt"/><g data-paper-data="{&quot;origPos&quot;:null,&quot;origRot&quot;:0}"><path d="M254.08989,269.44944c-38.91215,17.65818 -55.74301,2.66125 -63.7252,-14.89855c-7.98223,-17.55978 -3.92964,-15.9923 40.87225,-38.23162c39.64744,-19.74692 44.23586,-18.11454 51.5815,-2.02145c6.41138,14.03849 -0.71552,42.01666 -28.72851,55.15162z" data-paper-data="{&quot;origPos&quot;:null}" fill="#101099" stroke="none" stroke-width="0" stroke-linecap="butt"/><g data-paper-data="{&quot;origPos&quot;:null}"><g data-paper-data="{&quot;origPos&quot;:null}"><g data-paper-data="{&quot;origPos&quot;:null}" fill="#e50000" stroke="none" stroke-width="0" stroke-linecap="butt"><path d="M282.34147,205.57622c-0.67552,5.67809 -4.03272,5.4247 -14.01834,7.97457c-13.2984,3.78173 -9.68667,2.45125 -22.15117,8.11728c-13.64909,6.20449 -28.94823,15.15676 -40.04495,25.33501c-7.21714,6.61981 -14.5272,7.39856 -19.51268,5.66408c-6.43514,-2.84086 -8.623,-6.8326 -5.07087,-14.35534c0.97713,-8.61653 -1.78545,-15.65214 -4.40154,-24.14517c-2.17105,-7.0482 25.71644,-26.17055 40.00352,-33.25427c14.2871,-7.08368 34.77194,-14.0132 43.41779,0.19231c5.03201,9.22439 5.83894,10.21591 12.61405,14.11891c6.5404,1.54907 9.14034,3.52766 9.16418,10.35255z" data-paper-data="{&quot;origPos&quot;:null}"/><path d="M262.61686,193.72799c-0.27694,11.05685 -19.15054,19.33612 -34.46004,26.29541c-20.37469,9.26178 -34.07289,13.93306 -41.2105,9.99237c-7.61558,-4.20458 -30.23605,-59.27725 -39.64385,-79.97317c-8.15302,-17.93556 7.14557,-34.88722 29.57588,-45.08344c22.43033,-10.19623 38.96096,-2.09071 52.13803,12.55581c15.55577,17.29048 33.9309,63.01947 33.60051,76.21301z" data-paper-data="{&quot;origPos&quot;:null}"/></g><path d="M210.70095,112.91018c0,0 10.10012,5.96844 21.50502,30.72213c14.97407,32.50037 23.96944,55.09572 23.96944,55.09572" data-paper-data="{&quot;origPos&quot;:null}" fill="none" stroke="#000000" stroke-width="2" stroke-linecap="round"/><path d="M195.01185,233.53547c0,0 31.54147,-21.11858 54.7044,-31.46415c19.30988,-8.62464 20.17784,-4.88983 20.17784,-4.88983" data-paper-data="{&quot;origPos&quot;:null}" fill="none" stroke="#8d0000" stroke-width="2" stroke-linecap="round"/></g><path d="M218.74862,100.69625c2.11521,6.19912 -4.07149,19.73059 -19.08018,26.94185c-19.5421,9.38942 -53.0055,18.4512 -58.98581,3.33645c-2.14521,-5.42179 0.4133,-11.69316 37.40111,-28.11814c29.01379,-12.88402 36.05522,-12.30078 40.66489,-2.16013z" data-paper-data="{&quot;origPos&quot;:null}" fill="#8d0000" stroke="none" stroke-width="0" stroke-linecap="butt"/></g></g><g data-paper-data="{&quot;origPos&quot;:null,&quot;origRot&quot;:0,&quot;index&quot;:null}"><path d="M139.14115,140.61234c11.90693,-13.33585 29.32312,-7.99593 55.2771,29.87088c26.6685,38.90933 44.36405,46.27315 33.08587,57.38513c-18.41791,18.14647 -46.28778,2.76795 -67.62298,-20.61004c-28.90802,-31.67589 -33.29514,-52.58407 -20.73999,-66.64597z" data-paper-data="{&quot;origPos&quot;:null,&quot;index&quot;:null}" fill="#e50000" stroke="none" stroke-width="0" stroke-linecap="butt"/><path d="M186.46908,160.46947c24.9682,18.25116 44.3574,37.85993 44.3574,37.85993" data-paper-data="{&quot;origPos&quot;:null}" fill="none" stroke="#8d0000" stroke-width="2" stroke-linecap="round"/></g><path d="M235.0558,218.68753c-21.05274,-2.76377 -28.50652,-9.27243 -27.24653,-37.65807c2.99355,-27.54678 11.87954,-32.53467 31.38842,-31.88951c19.09192,0.63136 10.13638,6.50208 41.87571,9.42235c21.37883,1.96702 33.14946,7.50397 31.66924,30.99881c-2.61836,23.4154 -15.44038,26.79177 -36.49795,25.87899c-28.71412,-1.24468 -28.68371,4.88913 -41.18889,3.24747z" data-paper-data="{&quot;index&quot;:null,&quot;origPos&quot;:null,&quot;origRot&quot;:0}" fill="#8d0000" stroke="none" stroke-width="0" stroke-linecap="butt"/><g data-paper-data="{&quot;origPos&quot;:null}"><path d="M236.06723,18.29567c28.17071,9.48816 38.98712,32.70811 23.45291,74.90931c-3.52492,10.32139 -9.61561,14.7586 -17.61133,22.17641c-2.97058,2.75589 -4.32579,5.18808 -7.64445,7.51312c-0.02749,0.53402 4.16356,8.11132 -21.04848,2.45856c-43.4001,-16.39911 -47.49269,-51.27964 -40.3157,-71.95781c12.03476,-34.72207 34.99635,-44.58774 63.16704,-35.09958z" data-paper-data="{&quot;origPos&quot;:null}" fill="#ffceb3" stroke="none" stroke-width="0" stroke-linecap="butt"/><g data-paper-data="{&quot;origPos&quot;:null,&quot;origRot&quot;:0}"><path d="M239.93858,108.33586l8.75043,-24.71562l17.19475,30.30325z" data-paper-data="{&quot;origPos&quot;:null}" fill="#ffceb3" stroke="none" stroke-width="0" stroke-linecap="butt"/><path d="M250.81182,84.50943c0,0 14.8836,26.91652 14.34789,29.36308c-0.48534,2.14419 -24.23599,-4.88423 -24.23599,-4.88423" data-paper-data="{&quot;origPos&quot;:null}" fill="none" stroke="#b37959" stroke-width="2" stroke-linecap="round"/></g><path d="M243.33539,84.56155c-4.52863,13.44568 -9.82641,18.13465 -21.5001,14.20284c-7.58006,-2.55303 -16.21066,-13.71792 -8.4974,-32.47132c6.12094,-16.63029 15.49665,-19.38593 24.89704,-16.21979c9.40035,3.16614 12.60143,13.8241 8.07281,27.26978z" data-paper-data="{&quot;origPos&quot;:null}" fill="#ffffff" stroke="none" stroke-width="0" stroke-linecap="butt"/><path d="M180.65165,62.91037c-10.73787,24.42191 9.78809,49.10855 9.78809,49.10855c0,0 -23.20657,-12.32505 -27.69461,-36.80957c-3.68632,-20.11077 3.72088,-37.75295 13.22622,-51.64711c22.89202,-24.95451 53.99114,-22.46292 73.42491,-14.21326c-0.29384,0.19774 -10.92042,40.26791 -10.92042,40.26791c0,0 -44.87858,-3.5957 -57.82419,13.29348z" data-paper-data="{&quot;origPos&quot;:null}" fill="#661800" stroke="none" stroke-width="0" stroke-linecap="butt"/><path d="M249.46631,3.54391c13.93943,-2.78566 36.76444,2.56337 36.76444,2.56337c0,0 -8.81756,3.58006 -11.77957,10.00999c-3.34601,7.26346 -1.30351,6.64877 -3.64405,13.59786c-3.96429,11.7701 -43.29416,-2.10203 -40.13032,-11.93432c3.00122,-9.32691 6.36319,-11.75364 18.78945,-14.23691z" data-paper-data="{&quot;origPos&quot;:null}" fill="#661800" stroke="none" stroke-width="0" stroke-linecap="butt"/><path d="M204.34277,70.31667c-0.75624,11.1088 -7.26945,19.71259 -14.54763,19.21714c-7.27818,-0.49546 -12.56524,-9.90261 -11.80899,-21.01143c0.75624,-11.1088 7.26945,-19.71259 14.54763,-19.21714c7.27818,0.49549 12.56526,9.90263 11.80899,21.01143z" data-paper-data="{&quot;origPos&quot;:null,&quot;origRot&quot;:0}" fill="#ffceb3" stroke="none" stroke-width="0" stroke-linecap="butt"/><path d="M200.36345,35.429c2.28302,-6.7784 10.838,-9.45525 17.61638,-7.17223c6.77838,2.28302 17.08826,11.31376 14.80524,18.09216c-3.11794,9.2573 -12.9223,16.24431 -20.0805,22.89106c-7.24652,6.72876 -25.9406,14.81167 -27.51495,12.32463c-0.99424,-1.57062 6.4265,-4.47504 12.61243,-20.39871c2.85162,-7.17695 0.27838,-18.95851 2.5614,-25.73691z" data-paper-data="{&quot;origPos&quot;:null}" fill="#661800" stroke="none" stroke-width="0" stroke-linecap="butt"/><path d="M238.97329,82.358c-1.15715,4.74574 -3.66116,8.2266 -5.59287,7.77468c-1.93173,-0.4519 -2.55968,-4.66542 -1.40253,-9.41118c1.15715,-4.74574 3.66116,-8.2266 5.59289,-7.77468c1.93173,0.4519 2.55966,4.66542 1.40251,9.41118z" data-paper-data="{&quot;origPos&quot;:null,&quot;origRot&quot;:0}" fill="#000000" stroke="none" stroke-width="0" stroke-linecap="butt"/><path d="M288.96794,54.21864c3.55158,18.56538 2.35956,22.70656 13.06815,29.64503c10.94838,7.09383 20.95599,6.30145 25.63868,5.65429c-7.45824,13.04972 -30.59916,16.28614 -50.08906,11.79197c-31.88078,-7.35138 -32.57238,-14.1659 -43.35972,-31.55268c-9.42617,-19.70176 -8.46766,-49.54536 -8.46766,-49.54536c0,0 8.20845,-9.39502 28.04885,-5.17095c10.49593,2.23463 31.25917,18.78274 35.16076,39.17767z" data-paper-data="{&quot;origPos&quot;:null,&quot;origRot&quot;:0}" fill="#661800" stroke="none" stroke-width="0" stroke-linecap="butt"/><path d="M247.3027,66.76089c0,0 -4.83907,14.54501 -5.52478,14.37213c-2.2258,-0.56113 -10.31307,-17.07896 -13.87302,-34.82415c-2.70018,-13.45957 5.09418,-41.02416 5.09418,-41.02416" data-paper-data="{&quot;origPos&quot;:null}" fill="none" stroke="#000000" stroke-width="2.5" stroke-linecap="round"/><path d="M299.60119,23.93542c0,0 -7.62632,27.14418 -15.72711,38.0875c-10.68015,14.42778 -23.83293,26.1621 -25.59231,25.86774c-0.54202,-0.0907 2.99362,-14.67178 2.99362,-14.67178" data-paper-data="{&quot;origPos&quot;:null,&quot;index&quot;:null,&quot;origRot&quot;:0}" fill="none" stroke="#000000" stroke-width="2.5" stroke-linecap="round"/><path d="M264.45034,88.72726c-1.15715,4.74574 -3.66116,8.2266 -5.59287,7.77468c-1.93173,-0.4519 -2.55966,-4.66542 -1.40251,-9.41118c1.15715,-4.74574 3.66116,-8.2266 5.59289,-7.77468c1.93173,0.4519 2.55966,4.66542 1.40251,9.41118z" data-paper-data="{&quot;origPos&quot;:null,&quot;origRot&quot;:0}" fill="#000000" stroke="none" stroke-width="0" stroke-linecap="butt"/><g data-paper-data="{&quot;origPos&quot;:null}" stroke="#585858" stroke-width="1.5" stroke-linecap="round"><path d="M234.44511,124.18969c-36.83885,-0.66351 -50.13364,-21.44201 -50.9164,-40.91412c-1.11445,-27.72378 25.08364,-35.73627 25.08364,-35.73627c0,0 -4.92287,30.06136 -0.74773,39.64927c10.59019,24.31977 38.51017,26.5087 38.51017,26.5087" data-paper-data="{&quot;origPos&quot;:null}" fill="#ffffff"/><path d="M205.13706,78.05711l-21.18648,5.23829" data-paper-data="{&quot;origPos&quot;:null}" fill="none"/><path d="M213.18258,98.37531l-14.30309,13.54018" data-paper-data="{&quot;origPos&quot;:null}" fill="none"/><path d="M227.93723,122.97405l7.10678,-10.55064" data-paper-data="{&quot;origPos&quot;:null}" fill="none"/></g></g><g data-paper-data="{&quot;origPos&quot;:null,&quot;origRot&quot;:0}"><path d="M305.66311,157.19299c0.10713,-4.24915 3.63859,-7.60689 7.88774,-7.49976c4.24915,0.10715 7.60689,3.63859 7.49976,7.88774c-0.10713,4.24915 -2.85385,10.17521 -7.103,10.06806c-4.24915,-0.10715 -8.39163,-6.20691 -8.2845,-10.45603z" data-paper-data="{&quot;origPos&quot;:null}" fill="#e5e5e5" stroke="#989898" stroke-width="1.5" stroke-linecap="butt"/><path d="M299.53669,147.48159c0.10713,-4.24915 3.63861,-7.60689 7.88774,-7.49976c4.24915,0.10715 7.60689,3.63859 7.49974,7.88774c-0.10713,4.24915 -3.63859,7.60689 -7.88774,7.49976c-4.24915,-0.10715 -7.60689,-3.63859 -7.49976,-7.88774z" data-paper-data="{&quot;origPos&quot;:null}" fill="#e5e5e5" stroke="#989898" stroke-width="1.5" stroke-linecap="butt"/><path d="M290.21328,138.22051c0.10713,-4.24915 3.63859,-7.60689 7.88774,-7.49976c4.24915,0.10715 7.60689,3.63859 7.49976,7.88774c-0.10713,4.24915 -3.63861,7.60689 -7.88774,7.49976c-4.24915,-0.10715 -7.60689,-3.63859 -7.49974,-7.88774z" data-paper-data="{&quot;origPos&quot;:null}" fill="#e5e5e5" stroke="#989898" stroke-width="1.5" stroke-linecap="butt"/><path d="M278.52065,127.91499c2.30467,-3.57144 7.56738,-4.27619 11.75458,-1.57416c4.18719,2.70203 5.71325,7.7877 3.40857,11.35911c-2.30467,3.57144 -7.56738,4.27619 -11.75458,1.57414c-4.18719,-2.70203 -5.71325,-7.78767 -3.40857,-11.35911z" data-paper-data="{&quot;origPos&quot;:null,&quot;origRot&quot;:0}" fill="#e5e5e5" stroke="#989898" stroke-width="1.5" stroke-linecap="butt"/><path d="M273.81755,141.88358c-8.31484,-7.15105 -16.8864,-10.95908 -13.61869,-14.79862c3.26771,-3.83954 16.93926,-0.6596 25.2541,6.49147c8.31486,7.15105 10.32243,13.30725 7.05472,17.14682c-3.26771,3.83954 -10.37529,-1.68858 -18.69013,-8.83964z" data-paper-data="{&quot;origRot&quot;:0,&quot;origPos&quot;:null}" fill="#e5e5e5" stroke="#989898" stroke-width="1.5" stroke-linecap="butt"/><path d="M308.09298,185.50101l-40.42772,-43.82151c0,0 16.6802,-13.88242 33.64014,-2.16313c31.53551,23.25186 6.78757,45.98464 6.78757,45.98464z" data-paper-data="{&quot;origPos&quot;:null}" fill="#e5e5e5" stroke="none" stroke-width="0" stroke-linecap="butt"/><path d="M319.8623,162.59493l-9.39576,18.87696" data-paper-data="{&quot;origPos&quot;:null}" fill="none" stroke="#989898" stroke-width="1.5" stroke-linecap="round"/></g><g data-paper-data="{&quot;origPos&quot;:null,&quot;origRot&quot;:0}"><path d="M257.63729,146.40852c22.55546,-10.64422 33.59201,-9.78868 47.9926,14.72244c12.20603,24.87647 6.08088,34.51551 -13.76357,45.98129c-19.4203,11.22071 -13.71272,0.8007 -47.02997,17.89036c-22.44165,11.51119 -37.25455,14.1246 -48.73703,-6.4324c-10.30173,-21.19094 0.64436,-31.90458 22.18348,-44.09958c29.37085,-16.62914 25.95667,-21.73946 39.35445,-28.06212z" data-paper-data="{&quot;index&quot;:null,&quot;origPos&quot;:null}" fill="#e50000" stroke="none" stroke-width="0" stroke-linecap="butt"/><path d="M195.90503,188.12302c5.63699,-2.91213 17.68306,-10.15545 32.36362,-19.71503c13.48742,-8.78264 18.57294,-16.81364 27.73569,-21.22902c22.13985,-10.66879 30.2618,-7.36928 38.60235,0.95758" data-paper-data="{&quot;origPos&quot;:null}" fill="none" stroke="#8d0000" stroke-width="2" stroke-linecap="round"/></g><g data-paper-data="{&quot;origPos&quot;:null,&quot;origRot&quot;:0}"><path d="M185.04673,164.59989c-8.19486,-7.28873 -17.09864,-10.81418 -13.02739,-15.3916c4.07125,-4.5774 18.64293,-2.19272 26.83779,5.09598c8.19486,7.28873 9.6068,14.00569 5.53555,18.58308c-4.07125,4.5774 -11.15109,-0.99876 -19.34595,-8.28747z" data-paper-data="{&quot;origRot&quot;:0,&quot;origPos&quot;:null}" fill="#e5e5e5" stroke="#989898" stroke-width="1.5" stroke-linecap="butt"/><g data-paper-data="{&quot;origPos&quot;:null}" fill="#e5e5e5" stroke-linecap="butt"><g data-paper-data="{&quot;origPos&quot;:null,&quot;origRot&quot;:0}" stroke="#989898" stroke-width="1.5"><g data-paper-data="{&quot;origPos&quot;:null}"><path d="M180.02723,173.20434c-10.47499,3.24894 -10.77552,7.19336 -14.00567,1.34234c-2.96073,-5.363 0.40124,-8.18314 10.87624,-11.43208c10.47499,-3.24894 18.87312,-6.18436 20.68787,-0.33335c1.81475,5.85102 -7.08345,7.17414 -17.55844,10.42308z" data-paper-data="{&quot;origRot&quot;:0,&quot;origPos&quot;:null}"/><path d="M189.27815,183.25376c-9.35456,5.72482 -13.39084,12.95155 -16.58857,7.72638c-3.19773,-5.22517 1.71974,-11.01205 11.07432,-16.73687c9.35456,-5.72482 16.77305,-10.6351 19.97078,-5.40994c3.19773,5.22517 -5.10195,8.69561 -14.4565,14.42043z" data-paper-data="{&quot;origRot&quot;:0,&quot;origPos&quot;:null}"/></g><g data-paper-data="{&quot;origRot&quot;:0,&quot;origPos&quot;:null}"><path d="M199.27125,192.56825c-7.67175,7.83744 -10.78724,15.15082 -15.16498,10.86562c-4.37774,-4.2852 -0.05592,-10.41778 7.61583,-18.25522c7.67175,-7.83744 13.66527,-14.41183 18.04301,-10.12664c4.37774,4.2852 -2.82209,9.67879 -10.49385,17.51623z" data-paper-data="{&quot;origRot&quot;:0,&quot;origPos&quot;:null}"/><path d="M212.18703,197.0127c-5.50911,9.48317 -8.08094,15.73706 -13.37795,12.65984c-5.29702,-3.07722 -1.26557,-8.48316 4.24354,-17.96633c5.50911,-9.48317 9.70206,-17.32949 14.99908,-14.25226c5.29702,3.07722 -0.35557,10.07558 -5.86469,19.55875z" data-paper-data="{&quot;origRot&quot;:0,&quot;origPos&quot;:null}"/></g></g><path d="M178.7617,161.49972l25.1454,-5.31084l17.80831,3.11746l10.54505,12.29507l-18.68302,22.20876z" data-paper-data="{&quot;origPos&quot;:null,&quot;origRot&quot;:0}" stroke="none" stroke-width="0"/></g><path d="M179.47412,161.79865c0,0 18.60421,-6.30306 30.43458,-4.77259c12.48658,1.61535 27.08501,10.09422 19.02008,19.76278c-7.05612,8.45919 -15.11889,16.95867 -15.11889,16.95867" data-paper-data="{&quot;origPos&quot;:null}" fill="none" stroke="#989898" stroke-width="1.5" stroke-linecap="round"/><path d="M184.87466,160.70827c0,0 11.38353,5.20324 17.45834,9.48234c6.42081,4.52281 14.56017,13.07151 14.56017,13.07151" data-paper-data="{&quot;origPos&quot;:null}" fill="none" stroke="#989898" stroke-width="1.5" stroke-linecap="round"/></g><path d="M281.4765,209.29009c0,0 -50.53491,24.32996 -67.1394,26.08705c-22.54506,2.38573 -38.13035,-12.99467 -38.13035,-12.99467" data-paper-data="{&quot;origPos&quot;:null}" fill="none" stroke="#8d0000" stroke-width="2" stroke-linecap="round"/></g></g></g></svg>