<svg version="1.1" xmlns="http://www.w3.org/2000/svg" xmlns:xlink="http://www.w3.org/1999/xlink" width="270.26159" height="385.0272" viewBox="0,0,270.26159,385.0272"><g transform="translate(-83.4316,-3.50001)"><g data-paper-data="{&quot;isPaintingLayer&quot;:true}" fill-rule="nonzero" stroke-linejoin="miter" stroke-miterlimit="10" stroke-dasharray="" stroke-dashoffset="0" style="mix-blend-mode: normal"><g data-paper-data="{&quot;origPos&quot;:null,&quot;origRot&quot;:0}" stroke="#000000" stroke-width="5" stroke-linecap="round"><path d="M333.00508,193.72711c2.70487,0.90871 5.38854,1.30598 7.54789,1.82788c1.84878,0.44621 3.59016,1.64007 4.78384,3.12089c1.147,1.42289 1.59271,3.3495 1.89047,5.15286c0.28705,1.74244 0.55099,3.68703 -0.16575,5.30063c-1.4518,3.26781 -3.53675,6.34866 -6.11266,8.82886c-1.43063,1.3771 -3.58271,1.77126 -5.4852,2.33995c-1.69035,0.50533 -3.46232,0.86237 -5.22672,0.86232c-1.66491,0.00019 -4.29277,0.49067 -4.92528,-0.86149c-0.6606,-1.41194 1.64225,-3.074 2.33912,-4.6668c2.26011,-5.16176 4.83675,-10.2347 6.5369,-15.60711c0.42462,-1.34288 -1.41971,-3.32334 -0.2959,-4.11243z" data-paper-data="{&quot;origPos&quot;:null,&quot;index&quot;:null}" id="ID0.8610531273297966" fill="#e1ba87"/><path d="M241.16274,151.56871c3.2408,-0.79096 6.04304,2.76165 9.04816,4.37387c5.55942,3.12038 10.88581,6.80821 16.64193,9.81314c6.11451,3.18062 12.78149,6.05018 18.73762,8.44991c7.54663,3.08156 15.35634,5.56623 23.00941,8.41515c7.50016,2.8101 16.99628,5.55149 24.71602,9.57165c1.95315,1.02416 3.06193,2.07708 2.25668,4.01969c-3.2216,7.77228 -5.07371,17.71607 -12.46955,20.99422c-7.40071,3.64053 -16.52259,-1.27995 -24.1371,-3.87631c-8.15782,-2.7876 -15.84512,-6.99284 -23.2389,-11.42713c-8.18276,-4.90283 -16.7421,-9.95829 -24.16129,-16.18333c-5.43226,-4.55711 -9.8493,-9.84916 -13.4702,-15.57423c-2.08686,-3.42404 -4.05327,-7.61438 -3.31114,-11.32639c0.63843,-3.13431 2.9947,-6.38906 6.37835,-7.25022z" data-paper-data="{&quot;origPos&quot;:null,&quot;index&quot;:null}" id="ID0.4585498459637165" fill="#cc7700"/></g><path d="M313.8014,384.99815l-100.30848,-88.84937l28.51136,-32.18854c0,0 33.76919,32.00111 57.55989,50.99133c11.94222,9.53252 34.00122,22.09467 34.00122,22.09467l16.04098,7.52908z" data-paper-data="{&quot;origPos&quot;:null,&quot;index&quot;:null,&quot;origRot&quot;:0}" fill="#353535" stroke="#000000" stroke-width="5" stroke-linecap="butt"/><path d="M99.35219,269.56969c0,0 33.36686,14.5871 63.86348,21.96931c20.33065,4.92138 52.31671,-31.22109 52.31671,-31.22109l12.19702,37.09207c0,0 -53.07924,33.0193 -82.99325,27.38214c-15.01594,-2.82968 -40.38948,-3.59826 -40.38948,-3.59826l-17.69916,0.86003z" data-paper-data="{&quot;origPos&quot;:null,&quot;index&quot;:null,&quot;origRot&quot;:0}" fill="#616161" stroke="#000000" stroke-width="5" stroke-linecap="butt"/><path d="M263.04965,286.00001c-0.782,3.383 1.025,0.996 -5.5,1c-26.099,0.014 -51.71,0.549 -77.5,0c-6.456,-0.141 -6.136,7.9 -6.5,-0.5c-1.458,-33.601 0.11,-68.09 2.5,-102c0.938,-13.476 3.134,-26.295 7.4,-38.5c1.082,-3.305 2.823,-4.738 7.6,-5c19.107,-1.048 38.393,-1.237 57.5,0c4.777,0.309 10.441,0.527 12,4.5c4.279,10.904 3.004,23.297 3.5,35c0.842,20.069 0.637,42.026 0.25,63c-0.253,13.939 0.676,28.434 -1.25,42.5z" data-paper-data="{&quot;origPos&quot;:null,&quot;index&quot;:null}" id="ID0.6861933465115726" fill="#ff9400" stroke="#000000" stroke-width="5" stroke-linecap="round"/><path d="M182.40516,168.28736l7.66667,-8.66667" data-paper-data="{&quot;origPos&quot;:null}" fill="none" stroke="#cc7700" stroke-width="5" stroke-linecap="round"/><g data-paper-data="{&quot;origPos&quot;:null,&quot;origRot&quot;:0}" stroke-width="5" stroke-linecap="round"><path d="M198.99155,152.56797c-0.25687,3.32607 -4.50517,4.88356 -6.97254,7.23766c-4.69555,4.31232 -9.85785,8.22652 -14.50484,12.76164c-4.92561,4.82104 -9.72744,10.26396 -13.86161,15.17748c-5.27712,6.21294 -10.06877,12.86164 -15.15792,19.24805c-5.00459,6.25317 -10.56515,14.42457 -16.78812,20.50998c-1.58108,1.53736 -2.92677,2.26344 -4.52232,0.89365c-6.38379,-5.4804 -15.25742,-10.33511 -16.07113,-18.38393c-1.15663,-8.16613 6.3583,-15.30378 11.19537,-21.73215c5.18794,-6.88523 11.57667,-12.8821 18.09178,-18.5287c7.20594,-6.25068 14.67407,-12.81167 22.89889,-17.92522c6.02133,-3.74431 12.42524,-6.29507 18.99278,-7.95452c3.90351,-0.91764 8.4977,-1.48231 11.79436,0.37812c2.78008,1.58217 5.13988,4.8343 4.9053,8.31794z" data-paper-data="{&quot;origPos&quot;:null,&quot;index&quot;:null,&quot;origRot&quot;:0}" id="ID0.4585498459637165" fill="#ff9400" stroke="#000000"/><path d="M113.91682,209.03833c0,0 6.6866,-10.841 10.57667,-15.8551c4.49546,-5.80385 9.05659,-12.59462 14.93695,-17.51278c11.09909,-9.27415 23.30986,-17.97834 36.59107,-24.64434c4.63157,-2.57434 16.14483,-2.56015 16.14483,-2.56015" data-paper-data="{&quot;origPos&quot;:null,&quot;index&quot;:null,&quot;origRot&quot;:0}" id="ID0.497054744977504" fill="none" stroke="#cc7700"/><path d="M128.55416,228.83885c-2.08236,1.95086 -3.70447,4.12543 -5.18767,5.77932c-1.26934,1.41627 -3.14606,2.3835 -5.0158,2.73253c-1.7966,0.33534 -3.70426,-0.18557 -5.43316,-0.77828c-1.67035,-0.57333 -3.50761,-1.26283 -4.5886,-2.6589c-2.18896,-2.82738 -3.91314,-6.12374 -4.87583,-9.56759c-0.53427,-1.91252 0.13899,-3.99423 0.54014,-5.93892c0.35643,-1.72788 0.88214,-3.45737 1.71859,-5.01088c0.78918,-1.46601 1.60302,-4.01233 3.09345,-3.92817c1.55636,0.08771 1.9281,2.90326 3.00014,4.27191c3.47338,4.43711 6.71851,9.1107 10.64288,13.15452c0.98105,1.01061 3.59913,0.32553 3.76123,1.68913z" data-paper-data="{&quot;origPos&quot;:null,&quot;index&quot;:null,&quot;origRot&quot;:0}" id="ID0.8610531273297966" fill="#ffd499" stroke="#000000"/></g><path d="M207.94965,143.66667c1.927,2.599 0.05,6.6 -0.4,9.5c-0.376,2.469 -0.924,5.259 -2.418,7.069c-1.493,1.81 -3.556,2.931 -5.832,2.931c-2.276,0 -4.339,-1.121 -5.832,-2.931c-1.494,-1.81 -6.214,-5.22167 -6.418,-7.73567c-0.22,-2.68 -0.17133,-6.47433 1.56667,-8.83334c1.625,-1.718 8.22333,-0.258 10.68333,-0.5c2.859,-0.282 6.774,-1.511 8.65,0.5z" data-paper-data="{&quot;origPos&quot;:null,&quot;index&quot;:null}" id="ID0.6992864599451423" fill="#ff9400" stroke="none" stroke-width="1" stroke-linecap="round"/><g data-paper-data="{&quot;index&quot;:null}"><path d="M262.27065,42.27901c10.364,10.364 16.779,24.676 16.779,40.471c0,15.795 -6.415,30.107 -16.779,40.471c-10.364,10.364 -24.676,16.779 -40.471,16.779c-15.795,0 -30.107,-6.415 -40.471,-16.779c-10.364,-10.364 -16.779,-24.676 -16.779,-40.471c0,-15.795 6.415,-30.107 16.779,-40.471c10.364,-10.364 24.676,-16.779 40.471,-16.779c15.795,0 30.107,6.415 40.471,16.779z" data-paper-data="{&quot;origPos&quot;:null}" id="ID0.9676602841354907" fill="#ffd499" stroke="#000000" stroke-width="6" stroke-linecap="round"/><path d="M189.67965,66.95401c13.85,1.622 26.451,-2.669 39.62,-1.704c15.391,1.128 31.104,3.338 46,7.75c3.718,1.106 -3.707,2.891 -5.75,4c-2.502,1.303 -5.992,3.49 -9.25,3.25c-7.849,-0.583 -15.835,-4.875 -24,-5.75c-3.106,-0.105 1.174,2.622 -2.5,2.75c-14.697,0.511 -30.5,-4.859 -45.25,-1.25c-5.326,1.434 -7.601,8.969 -8.5,14.75c-1.063,7.125 1.453,14.79 4.25,21.25c2.966,6.846 13.946,17.992 13,18.25c-0.946,0.258 -15.918,-8.417 -20.25,-15.75c-6.251,-10.334 -9.184,-22.894 -10,-34.75c-0.323,-4.748 3.585,-8.838 6.37,-12.796c2.03,-2.883 4.957,-6.704 8.13,-6.704c3.173,0 4.529,6.284 8.13,6.704z" data-paper-data="{&quot;origPos&quot;:null}" id="ID0.34282135451212525" fill="#e1ba87" stroke="none" stroke-width="1" stroke-linecap="round"/><path d="M163.04965,82.00001c-4.149,-7.143 -2.419,-18.415 -1.25,-27.5c1.114,-8.633 3.513,-17.045 7.5,-24.5c1.139,-1.943 2.501,4.343 4.5,2.5c8.007,-7.393 12.443,-19.02 20.5,-25.5c2.048,-1.644 -1.025,6.938 1.5,7c10.077,0.225 19.864,-6.433 29.75,-5.75c12.368,0.859 24.992,2.711 36,9.5c12.651,7.864 23.234,19.534 31,32.25c1.941,3.179 -8.297,-0.525 -8.75,2.5c-1.102,7.338 8.883,18.809 4,22c-5.868,3.773 -17.423,-7.93 -26.75,-8.5c-2.367,-0.144 1.906,7.404 -1,7c-11.417,-1.4 -21.284,-10.04 -32.75,-11.25c-2.867,-0.302 1.844,7.202 -0.75,7.75c-7.837,1.956 -16.088,-0.955 -24.25,-1.75c-4.684,-0.453 -9.224,-3.127 -14,-2c-5.487,1.33 -8.942,6.24 -14.25,9.25c-3.738,2.185 -9.025,10.106 -11,7z" data-paper-data="{&quot;origPos&quot;:null}" id="ID0.4199218852445483" fill="#8a541e" stroke="#000000" stroke-width="7" stroke-linecap="round"/><path d="M165.04965,76.00001c0,0 0.656,-15.564 1.75,-23.25c0.764,-5.359 1.447,-10.883 3.75,-15.75c0.918,-1.331 1.969,1.072 3,0c5.142,-4.542 9.17,-9.878 13.5,-15c1.616,-1.896 2.032,-5.319 4.25,-6.25c1.377,-0.478 0.568,2.269 1.5,2.75c1.791,0.712 1.848,1.173 4.25,0.75c9.612,-1.693 18.43,-6.554 28,-6.5c10.074,0.056 20.027,2.667 29.25,6.25c7.303,3.028 13.521,8.191 19.5,13.25c4.641,3.93 8.496,9.133 12,14.25c0.877,1.278 -0.861,1.092 -1.5,1.5c-1.621,1.601 -5.264,2.198 -5.25,4.5c0.039,6.231 5.25,17.75 5.25,17.75" data-paper-data="{&quot;origPos&quot;:null}" id="ID0.6959539707750082" fill="none" stroke="#663b00" stroke-width="4" stroke-linecap="round"/><path d="M252.76765,83.782c0.792,0.792 1.282,1.886 1.282,3.093c0,1.207 -0.49,2.301 -1.282,3.093c-0.792,0.792 -1.886,1.282 -3.093,1.282c-1.207,0 -2.301,-0.49 -3.093,-1.282c-0.792,-0.792 -1.282,-1.886 -1.282,-3.093c0,-1.207 0.49,-2.301 1.282,-3.093c0.792,-0.792 1.886,-1.282 3.093,-1.282c1.207,0 2.301,0.49 3.093,1.282z" data-paper-data="{&quot;origPos&quot;:null}" id="ID0.8793090796098113" fill="#000000" stroke="none" stroke-width="1" stroke-linecap="butt"/><path d="M212.11765,84.53201c0.792,0.792 1.282,1.886 1.282,3.093c0,1.207 -0.49,2.301 -1.282,3.093c-0.792,0.792 -1.886,1.282 -3.093,1.282c-1.207,0 -2.301,-0.49 -3.093,-1.282c-0.792,-0.792 -1.282,-1.886 -1.282,-3.093c0,-1.207 0.49,-2.301 1.282,-3.093c0.792,-0.792 1.886,-1.282 3.093,-1.282c1.207,0 2.301,0.49 3.093,1.282z" data-paper-data="{&quot;origPos&quot;:null}" id="ID0.8793090796098113" fill="#000000" stroke="none" stroke-width="1" stroke-linecap="butt"/><path d="M209.51123,102.97852l39.88821,-0.66113" data-paper-data="{&quot;origPos&quot;:null}" fill="none" stroke="#000000" stroke-width="3" stroke-linecap="round"/></g></g></g></svg>