<svg version="1.1" xmlns="http://www.w3.org/2000/svg" xmlns:xlink="http://www.w3.org/1999/xlink" width="369.67373" height="392.52752" viewBox="0,0,369.67373,392.52752"><g transform="translate(-110.57583,-17.67246)"><g data-paper-data="{&quot;isPaintingLayer&quot;:true}" fill-rule="nonzero" stroke-linejoin="miter" stroke-miterlimit="10" stroke-dasharray="" stroke-dashoffset="0" style="mix-blend-mode: normal"><g data-paper-data="{&quot;origPos&quot;:null,&quot;origRot&quot;:0,&quot;index&quot;:null}" stroke="#000000" stroke-width="5" stroke-linecap="round"><path d="M331.54136,216.09755c0.08041,-1.37084 2.73472,-0.84317 3.65378,-1.91039c3.67613,-4.27074 6.63675,-9.12961 9.83932,-13.76592c0.98852,-1.4302 1.19163,-4.26291 2.73999,-4.44329c1.48275,-0.17285 2.44711,2.32039 3.32227,3.73674c0.92768,1.50085 1.55555,3.19587 2.0144,4.89943c0.51647,1.91732 1.31264,3.9552 0.89336,5.89616c-0.7555,3.49511 -2.28004,6.88842 -4.29651,9.84141c-0.99577,1.45803 -2.78868,2.25587 -4.4218,2.92776c-1.69057,0.69483 -3.56377,1.32857 -5.37716,1.10096c-1.88722,-0.23685 -3.81829,-1.09048 -5.16984,-2.42854c-1.57922,-1.56243 -3.32807,-3.63643 -5.52313,-5.45955z" data-paper-data="{&quot;origPos&quot;:null,&quot;index&quot;:null}" id="ID0.8610531273297966" fill="#e1ba87"/><path d="M245.06868,160.53186c-1.0464,-3.33104 0.48344,-7.04654 2.81395,-9.23747c2.76742,-2.58285 7.36574,-3.11318 11.37551,-3.13818c6.77365,0.07016 13.59753,1.04523 20.32999,3.27025c9.19589,3.03831 17.9963,7.66136 26.4689,12.04433c7.65923,3.95814 15.27795,8.28642 21.93813,13.76023c6.21186,5.11222 15.19321,10.28475 15.98731,18.49409c1.09978,8.01469 -6.38508,14.81808 -11.30278,21.64474c-1.22912,1.70631 -2.7077,1.31671 -4.60575,0.19372c-7.47833,-4.45316 -14.80281,-11.08968 -21.13636,-15.99224c-6.44698,-5.01221 -12.66646,-10.34921 -19.25537,-15.14856c-5.17273,-3.80489 -11.11882,-7.96746 -17.03906,-11.49652c-5.58236,-3.31658 -11.51971,-5.90857 -17.09688,-8.99712c-2.95136,-1.70868 -7.44664,-2.22461 -8.47763,-5.39721z" data-paper-data="{&quot;origPos&quot;:null,&quot;index&quot;:null}" id="ID0.4585498459637165" fill="#cc7700"/></g><g data-paper-data="{&quot;origRot&quot;:0,&quot;origPos&quot;:null,&quot;index&quot;:null}" stroke-width="1.5" stroke-linecap="butt"><path d="M288.04791,211.18188c0,0 -5.40395,-7.73906 -3.80723,-11.3704c1.57049,-3.57175 11.92294,-7.08654 11.92294,-7.08654c0,0 12.58012,0.28674 23.03567,1.88655c9.42506,1.44214 15.95695,2.70117 24.7169,5.26695c9.01186,2.63947 14.58821,2.39225 24.33694,3.76069c24.20741,3.3978 88.96574,9.67263 88.96574,9.67263l-8.62165,15.643c0,0 -61.99384,-8.21762 -79.89472,-11.44366c0,0 -27.04598,-3.00873 -40.83583,-3.42263c-10.63752,-0.31923 -15.01097,-0.75314 -25.58792,-1.30545c-6.13864,-0.3205 -14.23075,-1.60113 -14.23075,-1.60113z" data-paper-data="{&quot;origPos&quot;:null,&quot;origRot&quot;:0,&quot;index&quot;:null}" fill="#9e813f" stroke="#655328"/><path d="M461.91769,211.05852c0,0 7.34897,3.2168 6.8487,6.64117c-0.70401,4.81911 -4.90191,1.63249 -7.51539,5.7551c-2.58542,4.07833 -2.37867,12.03137 -1.99646,16.83127c1.325,16.64046 19.84565,40.262 19.84565,40.262c0,0 -19.95681,10.31009 -26.17597,12.01199c-7.47944,2.04677 -19.87344,1.30509 -19.87344,1.30509c0,0 0.35375,-15.37841 -1.22806,-16.44273c-2.04765,-1.37774 -8.24822,16.03712 -8.24822,16.03712c0,0 -6.88993,-1.42575 -11.13168,-3.48409c-4.79684,-2.32777 -12.02871,-7.75482 -12.02871,-7.75482c0,0 -12.50289,-9.77696 -15.10395,-18.81228c-2.60102,-9.03525 -0.46348,-35.26473 -0.46348,-35.26473l17.3476,5.23037c0,0 4.60458,12.28878 10.01681,13.4647c3.15897,0.68637 8.68859,-6.96221 9.80693,-9.98228c3.93278,-10.62021 2.04795,-19.70875 4.2744,-30.80388c0,0 17.74812,-6.45157 26.3249,-5.24636c5.32646,0.74848 9.30033,10.25241 9.30033,10.25241z" data-paper-data="{&quot;origPos&quot;:null,&quot;origRot&quot;:0,&quot;index&quot;:null}" fill="#b8b8b8" stroke="#8f8f8f"/></g><path d="M113.94391,381.68291l61.44951,-119.07964l38.21212,19.71887c0,0 -22.71266,40.60251 -35.26828,68.33305c-6.30254,13.9199 -13.05345,38.39095 -13.05345,38.39095l-3.35257,17.40001z" data-paper-data="{&quot;origPos&quot;:null,&quot;index&quot;:null,&quot;origRot&quot;:0}" fill="#353535" stroke="#000000" stroke-width="5" stroke-linecap="butt"/><path d="M286.95401,388.04745l-81.78124,-106.15003l34.06307,-26.24324c0,0 27.13841,37.78803 46.92711,60.91883c9.93334,11.61096 29.23189,28.10256 29.23189,28.10256l14.33606,10.41526z" data-paper-data="{&quot;origPos&quot;:null,&quot;index&quot;:null,&quot;origRot&quot;:0}" fill="#616161" stroke="#000000" stroke-width="5" stroke-linecap="butt"/><path d="M259.27245,279.69196c-1.1844,3.26396 0.89736,1.11238 -5.58047,0.3292c-25.91009,-3.13455 -51.39859,-5.69304 -76.93401,-9.34921c-6.39184,-0.91879 -7.0442,7.10209 -6.39221,-1.28048c2.6061,-33.5315 8.32323,-67.57946 14.7865,-100.9535c2.55683,-13.26443 6.28321,-25.7249 11.9904,-37.32613c1.4728,-3.15034 3.37395,-4.36285 8.14767,-4.04666c19.09389,1.26462 38.26184,3.40357 57.08007,6.93651c4.70484,0.88302 10.30117,1.7827 11.36951,5.91476c2.93235,11.34056 0.17163,23.48925 -0.74778,35.16662c-1.58517,20.02401 -4.43745,41.79593 -7.35182,62.57007c-1.93268,13.80668 -2.75907,28.30789 -6.36785,42.03883z" data-paper-data="{&quot;origPos&quot;:null,&quot;index&quot;:null,&quot;origRot&quot;:0}" id="ID0.6861933465115726" fill="#ff9400" stroke="#000000" stroke-width="5" stroke-linecap="round"/><g data-paper-data="{&quot;origPos&quot;:null,&quot;origRot&quot;:0,&quot;index&quot;:null}" stroke-width="5" stroke-linecap="round"><path d="M214.94546,135.61508c3.32276,-0.29676 5.56141,3.63542 8.29118,5.67946c5.02952,3.91766 9.74363,8.3615 14.98486,12.19443c5.56929,4.0604 11.73142,7.8959 17.26104,11.16049c7.00016,4.17687 14.34978,7.80289 21.48996,11.7657c6.99475,3.90145 15.97331,8.03396 23.00412,13.16476c1.77768,1.30505 2.71634,2.5121 1.62929,4.31224c-4.34911,7.20228 -7.66934,16.75665 -15.47274,18.89033c-7.86237,2.49132 -16.14464,-3.73963 -23.28447,-7.44689c-7.64845,-3.97774 -14.61938,-9.28665 -21.26574,-14.77814c-7.3564,-6.07288 -15.06219,-12.35305 -21.46563,-19.61886c-4.68862,-5.31913 -8.2634,-11.21297 -10.98619,-17.4156c-1.55061,-3.69797 -2.86735,-8.13552 -1.57777,-11.69446c1.10058,-3.00346 3.91763,-5.86863 7.3921,-6.21344z" data-paper-data="{&quot;origPos&quot;:null,&quot;index&quot;:null,&quot;origRot&quot;:0}" id="ID0.4585498459637165" fill="#ff9400" stroke="#000000"/><path d="M284.70868,210.17849c0,0 -11.7976,-4.80151 -17.38602,-7.80872c-6.46743,-3.47365 -13.91904,-6.84883 -19.74203,-11.8348c-10.98212,-9.41236 -21.58598,-20.01537 -30.35677,-32.01118c-3.30491,-4.14201 -5.1951,-15.49906 -5.1951,-15.49906" data-paper-data="{&quot;origPos&quot;:null,&quot;index&quot;:null,&quot;origRot&quot;:0}" id="ID0.497054744977504" fill="none" stroke="#cc7700"/><path d="M301.81566,192.46789c2.26839,1.73103 4.68128,2.97115 6.55772,4.1604c1.60669,1.01762 2.871,2.70851 3.52446,4.49479c0.62784,1.7164 0.42963,3.68394 0.13103,5.48706c-0.28918,1.74218 -0.66532,3.66817 -1.86337,4.96517c-2.42642,2.62644 -5.3922,4.87205 -8.62939,6.39107c-1.79782,0.84323 -3.96222,0.52354 -5.94648,0.44954c-1.76304,-0.06574 -3.55566,-0.29818 -5.22611,-0.86616c-1.57635,-0.53586 -4.22221,-0.91734 -4.38571,-2.40117c-0.17091,-1.54943 2.54438,-2.38174 3.71689,-3.66537c3.80154,-4.15941 7.87404,-8.13282 11.21312,-12.67195c0.83445,-1.13468 -0.27423,-3.60338 1.04379,-3.98879z" data-paper-data="{&quot;origPos&quot;:null,&quot;index&quot;:null,&quot;origRot&quot;:0}" id="ID0.8610531273297966" fill="#ffd499" stroke="#000000"/></g><path d="M224.81528,141.88974c1.5994,2.81248 -0.74656,6.55783 -1.54311,9.38237c-0.6711,2.40561 -1.55167,5.10913 -3.25311,6.72568c-1.70045,1.61667 -3.88361,2.48062 -6.14299,2.20605c-2.25938,-0.27457 -4.17208,-1.63625 -5.43583,-3.61314c-1.26474,-1.97701 -5.5387,-5.93316 -5.43794,-8.45341c0.10491,-2.68697 0.61095,-6.44772 2.62084,-8.57983c1.82038,-1.50942 8.1944,0.7359 10.66563,0.79243c2.87214,0.06495 6.90681,-0.68278 8.52651,1.53984z" data-paper-data="{&quot;origPos&quot;:null,&quot;index&quot;:null,&quot;origRot&quot;:0}" id="ID0.6992864599451423" fill="#ff9400" stroke="none" stroke-width="1" stroke-linecap="round"/><g data-paper-data="{&quot;origRot&quot;:0}"><path d="M333.4381,86.63295c3.47519,14.23896 1.52542,29.80122 -6.67672,43.29964c-8.20214,13.4984 -21.11642,22.39822 -35.35538,25.87342c-14.23896,3.47519 -29.80122,1.52542 -43.29964,-6.67672c-13.4984,-8.20214 -22.39822,-21.11642 -25.87342,-35.35538c-3.47519,-14.23896 -1.52542,-29.80122 6.67672,-43.29964c8.20214,-13.4984 21.11642,-22.39822 35.35538,-25.87342c14.23896,-3.47519 29.80122,-1.52542 43.29964,6.67672c13.4984,8.20214 22.39822,21.11642 25.87342,35.35538z" data-paper-data="{&quot;origPos&quot;:null,&quot;origRot&quot;:0}" id="ID0.9676602841354907" fill="#ffd499" stroke="#000000" stroke-width="6" stroke-linecap="round"/><path d="M258.58842,70.02465c10.99393,8.57829 23.99101,11.45472 34.74412,19.11791c12.5674,8.95633 24.8481,19.00456 35.28714,30.51034c2.60307,2.8759 -4.66926,0.54565 -6.9911,0.43251c-2.81483,-0.18571 -6.93307,-0.12901 -9.59274,-2.02595c-6.40501,-4.57411 -11.00107,-12.38908 -17.5245,-17.37683c-2.59986,-1.70264 -0.35826,2.8504 -3.56453,1.05193c-12.82542,-7.19525 -23.54209,-19.99074 -38.02154,-24.56597c-5.29625,-1.54022 -11.1533,3.7178 -14.92358,8.19141c-4.60836,5.53703 -6.43851,13.39406 -7.40279,20.36722c-1.0203,7.39079 2.57525,22.61793 1.63283,22.34718c-0.94243,-0.27076 -9.23269,-15.45918 -9.12688,-23.97551c0.0242,-12.0775 4.0399,-24.33434 9.49921,-34.89022c2.18954,-4.22537 7.6532,-5.69132 12.0886,-7.6276c3.23193,-1.40966 7.71755,-3.15514 10.4292,-1.50744c2.71165,1.6477 0.60729,7.72216 3.4666,9.95104z" data-paper-data="{&quot;origPos&quot;:null,&quot;origRot&quot;:0}" id="ID0.34282135451212525" fill="#e1ba87" stroke="none" stroke-width="1" stroke-linecap="round"/><path d="M228.01723,69.05437c0.16354,-8.25893 7.49539,-16.99362 13.21214,-24.1506c5.43503,-6.79928 11.85346,-12.7424 19.13203,-17.04305c1.98237,-1.06903 -0.11791,5.01026 2.54748,4.47329c10.68186,-2.16013 20.51062,-9.79301 30.76111,-11.14693c2.60393,-0.34146 -4.47877,5.39694 -2.35311,6.76113c8.49496,5.42514 20.31635,4.81747 28.41025,10.53482c10.12362,7.15664 19.95038,15.29484 25.83237,26.81301c6.72789,13.29006 9.71202,28.75887 9.74561,43.65873c0.00796,3.7247 -6.818,-4.75719 -8.77597,-2.40726c-4.75229,5.6988 -2.17585,20.687 -8.00591,20.87835c-6.97406,0.17723 -10.77175,-15.82452 -18.44662,-21.15502c-1.94806,-1.35221 -2.21593,7.31722 -4.4896,5.46291c-9.02997,-7.12514 -12.97567,-19.63268 -22.14618,-26.62089c-2.29332,-1.74689 -2.16402,7.1124 -4.66543,6.23368c-7.71322,-2.39806 -13.25289,-9.17043 -19.8153,-14.08824c-3.76771,-2.81947 -6.25901,-7.46223 -10.92583,-8.97921c-5.37984,-1.71271 -10.88217,0.68925 -16.98145,0.50521c-4.32912,-0.0738 -12.96067,3.95002 -13.0356,0.27004z" data-paper-data="{&quot;origPos&quot;:null,&quot;origRot&quot;:0}" id="ID0.4199218852445483" fill="#8a541e" stroke="#000000" stroke-width="7" stroke-linecap="round"/><path d="M232.84216,64.96534c0,0 8.6428,-12.96034 13.56896,-18.9607c3.43577,-4.18307 6.888,-8.5492 11.38352,-11.51263c1.47568,-0.66076 1.12604,1.9386 2.56381,1.55785c6.75295,-1.21141 12.96619,-3.67989 19.32641,-5.80863c2.36559,-0.78115 4.49863,-3.49043 6.87759,-3.13429c1.425,0.30656 -0.69285,2.23404 -0.14613,3.12908c1.16085,1.53852 0.97018,1.96208 3.2426,2.84791c9.09357,3.54455 19.15369,3.96941 27.30416,8.98513c8.58016,5.27915 15.73014,12.67897 21.75151,20.53038c4.66875,6.38007 7.30157,14.0213 9.78414,21.44954c1.9254,5.76859 2.51802,12.21693 2.85536,18.40949c0.08584,1.54759 -1.30287,0.48611 -2.06084,0.50297c-2.21668,0.52645 -5.64001,-0.85511 -6.82344,1.11944c-3.20235,5.34527 -4.73068,17.8954 -4.73068,17.8954" data-paper-data="{&quot;origPos&quot;:null,&quot;origRot&quot;:0}" id="ID0.6959539707750082" fill="none" stroke="#663b00" stroke-width="4" stroke-linecap="round"/><path d="M296.63809,135.13511c-2.56671,5.16722 -8.89713,0.56086 -16.88283,-3.40587c-7.9857,-3.96672 -14.60264,-5.79168 -12.03595,-10.95888c2.56671,-5.16722 8.00362,-1.56361 15.98932,2.40311c7.9857,3.96672 15.49615,6.79443 12.92947,11.96163z" data-paper-data="{&quot;origPos&quot;:null,&quot;origRot&quot;:0}" fill="none" stroke="#000000" stroke-width="3" stroke-linecap="butt"/><path d="M261.96224,89.23863l14.46911,18.11631" data-paper-data="{&quot;origRot&quot;:0,&quot;origPos&quot;:null}" fill="none" stroke="#000000" stroke-width="3" stroke-linecap="round"/><path d="M303.17381,124.1324l17.09686,-0.90967" data-paper-data="{&quot;origRot&quot;:0,&quot;origPos&quot;:null}" fill="none" stroke="#000000" stroke-width="3" stroke-linecap="round"/></g><path d="M410.42163,101.70473c0.1788,-0.0281 0.33207,0.05756 0.46758,0.21012c0.59743,-0.3694 1.30269,-0.69091 2.13381,-0.9456c5.48976,-1.68235 8.06469,2.12604 8.97027,4.00412c-1.56551,-3.7624 -3.48309,-7.39651 -4.48714,-11.39271c-0.44877,-1.78613 -0.90876,-3.57245 -1.23828,-5.38438c-0.08496,-0.46719 -0.43236,-1.22821 0,-1.42456c0,-0.71228 0,-1.42456 0,-1.42456c0,-4.14214 3.35786,-7.5 7.5,-7.5c2.91015,0 5.43318,1.65747 6.67658,4.0799l3.28778,6.10588c5.83045,10.8262 12.09035,21.60766 16.50468,33.08492c6.53748,17.45211 10.44736,37.06897 11.41637,55.67855c0.85619,16.44284 -2.84398,32.72837 -2.84398,49.10706c0,0 0,7.5 -7.5,7.5c-7.5,0 -7.5,-7.5 -7.5,-7.5c0,-3.27449 0.14687,-6.54551 0.37555,-9.81484c-0.74449,-0.72312 -1.3394,-1.59941 -1.73386,-2.57802c-0.02147,0.44347 -0.12306,0.83575 -0.48545,0.91602l-0.4368,1.74721c-0.75794,3.33991 -3.74486,5.83319 -7.31412,5.83319c-3.68663,0 -6.752,-2.65996 -7.3816,-6.16537l-0.73618,-3.68088c-0.2047,-0.6765 -0.48384,-1.3377 -0.7452,-1.9911c-2.97358,-8.43617 -3.44363,-17.61397 -5.11847,-26.38114c-3.1971,-16.73572 -6.25724,-34.72149 -12.06109,-50.76731c-1.8736,-5.17992 -4.08189,-9.89576 -6.25615,-14.98151c-0.472,-1.10405 -0.8686,-2.2412 -1.30637,-3.35976c-0.40262,-0.81221 -0.80078,-1.6267 -1.20291,-2.43915c-0.54769,-0.51984 -1.44325,-0.9603 -1.10773,-1.50012l-1.3791,-1.8388c-0.96934,-1.26371 -1.54546,-2.84488 -1.54546,-4.56061c0,-4.14214 3.35786,-7.5 7.5,-7.5c2.07107,0 3.94607,0.83947 5.3033,2.1967l0,0c0,0 0,0 0,0l1.89941,1.89941l-0.12089,0.12089c0.15791,0.21373 0.31298,0.42926 0.46545,0.64646zM422.39261,105.95746l0.25254,3.02138c0.70369,4.92582 1.19076,10.00113 1.99851,14.99165c-0.24683,-4.94718 0.27783,-9.95834 -1.15094,-14.84519c-0.31447,-1.07558 -0.68989,-2.12814 -1.10012,-3.16784z" fill="#b8b8b8" stroke="none" stroke-width="0.5" stroke-linecap="butt"/></g></g></svg>