<svg version="1.1" xmlns="http://www.w3.org/2000/svg" xmlns:xlink="http://www.w3.org/1999/xlink" width="217.62153" height="320.14034" viewBox="0,0,217.62153,320.14034"><defs><linearGradient x1="325.3694" y1="191.37232" x2="328.0811" y2="250.4181" gradientUnits="userSpaceOnUse" id="color-1"><stop offset="0" stop-color="#7f2626"/><stop offset="1" stop-color="#401a1a"/></linearGradient><linearGradient x1="227.81184" y1="191.7924" x2="228.868" y2="214.78925" gradientUnits="userSpaceOnUse" id="color-2"><stop offset="0" stop-color="#3a5946"/><stop offset="1" stop-color="#5f7f7f"/></linearGradient><linearGradient x1="278.43759" y1="177.578" x2="279.49375" y2="200.57494" gradientUnits="userSpaceOnUse" id="color-3"><stop offset="0" stop-color="#3a5946"/><stop offset="1" stop-color="#5f7f7f"/></linearGradient><linearGradient x1="300.975" y1="166.09116" x2="304.19799" y2="236.26996" gradientUnits="userSpaceOnUse" id="color-4"><stop offset="0" stop-color="#401a1a"/><stop offset="1" stop-color="#7f2626"/></linearGradient><linearGradient x1="193.25492" y1="196.76001" x2="196.13641" y2="259.5031" gradientUnits="userSpaceOnUse" id="color-5"><stop offset="0" stop-color="#401a1a"/><stop offset="1" stop-color="#7f2626"/></linearGradient><linearGradient x1="230.12773" y1="128.43272" x2="234.00478" y2="212.85296" gradientUnits="userSpaceOnUse" id="color-6"><stop offset="0" stop-color="#7f2626"/><stop offset="1" stop-color="#401a1a"/></linearGradient><linearGradient x1="176.42626" y1="236.572" x2="179.8691" y2="311.53773" gradientUnits="userSpaceOnUse" id="color-7"><stop offset="0" stop-color="#7f2626"/><stop offset="1" stop-color="#401a1a"/></linearGradient></defs><g transform="translate(-143.09637,-101.29369)"><g data-paper-data="{&quot;isPaintingLayer&quot;:true}" fill-rule="nonzero" stroke-linejoin="miter" stroke-miterlimit="10" stroke-dasharray="" stroke-dashoffset="0" style="mix-blend-mode: normal"><g stroke="#000000" stroke-width="0.5" stroke-linecap="round"><path d="M243.4954,264.381l49.24813,112.05734l-132.04208,-1.42748l59.2405,-111.34359z" fill="#804040"/><path d="M167.83886,358.59481h115.62604c0,0 16.8144,16.1221 9.27863,17.12978c-7.53576,1.00769 -80.8411,5.15141 -132.04208,-0.71374c-17.51206,-2.00604 7.13741,-16.41604 7.13741,-16.41604z" fill="#ffffff"/></g><path d="M293.07771,195.00267c0,0 21.03948,-4.13848 29.9676,-3.18171c7.72487,0.8278 12.70367,7.75449 12.70367,7.75449l-13.35138,2.65458c0,0 4.22187,4.69718 6.59142,6.15098c6.81202,4.17934 16.93528,8.28325 16.93528,8.28325c0,0 -3.97683,4.53081 -7.40031,5.38052c-5.24127,1.30093 -13.6921,-2.37049 -13.6921,-2.37049c0,0 14.45673,2.79827 20.94909,7.06803c10.26619,6.75159 14.62157,20.69471 14.62157,20.69471c0,0 -11.18024,3.14388 -19.53495,1.81403c-11.06705,-1.76162 -30.23094,-9.73558 -30.23094,-9.73558l-0.05187,7.75975l-12.43697,-21.88435z" fill="url(#color-1)" stroke="#000000" stroke-width="0.5" stroke-linecap="round"/><g data-paper-data="{&quot;origRot&quot;:0}" stroke="#000000" stroke-width="0.5" stroke-linecap="butt"><path d="M298.25024,332.01164c-8.0603,6.94594 -24.21623,0.63466 -20.98782,-4.35331c4.40606,-6.80753 15.56276,-22.47755 20.66844,-19.173c5.10565,3.30454 7.02446,17.74825 0.31939,23.52635z" fill="#7f2626"/><path d="M285.25915,299.11781c0,0 8.39857,0.67474 12.71748,3.47008c4.3189,2.79533 0.225,4.90672 0.225,4.90672l-22.64694,23.43085c0,0 -5.86176,2.78903 -7.75487,0.42204c-1.8931,-2.36699 3.24367,-6.06247 3.24367,-6.06247l-17.63953,-23.49931c0,0 1.73231,-13.13641 2.68067,-14.77381c0.94835,-1.63743 13.76159,-3.1241 13.76159,-3.1241z" fill="#ffffff"/><path d="M243.36003,257.71606l25.34553,25.04467c0,0 -0.85287,12.28861 -2.05458,13.55215c-1.20168,1.26353 -14.07085,4.37538 -14.07085,4.37538l-13.3121,-17.73429z" fill="#ffffff"/></g><path d="M249.18911,421.0869c-6.5062,1.43541 -26.80415,-13.40205 -23.48882,-20.46498c3.04914,-6.4959 30.64992,-39.07422 30.64992,-39.07422c0,0 12.54876,-0.93658 15.52177,1.93688c2.53133,2.44653 3.31532,14.48644 3.31532,14.48644c0,0 -21.89294,40.82794 -25.99824,43.11589z" fill="#ffffff" stroke="#000000" stroke-width="0.5" stroke-linecap="butt"/><path d="M292.79461,330.10112l-19.33316,48.07419c0,0 -15.52709,-13.41416 -16.62921,-14.61491c-2.36529,-2.42477 15.33984,-22.72643 15.33984,-22.72643l-26.24624,-4.35565c0,0 -3.65186,-16.09665 7.5775,-17.98014c6.15445,-1.03228 39.29127,11.60294 39.29127,11.60294z" fill="#f3c69d" stroke="#000000" stroke-width="0.5" stroke-linecap="butt"/><g data-paper-data="{&quot;index&quot;:null,&quot;origRot&quot;:0}" stroke-linecap="butt"><g data-paper-data="{&quot;origRot&quot;:0,&quot;index&quot;:null}" stroke="#000000" stroke-width="0.5"><path d="M159.45418,405.98536c-6.59592,-0.9407 -20.39097,-21.96102 -14.80658,-27.40994c5.13606,-5.01146 42.41921,-25.82294 42.41921,-25.82294c0,0 12.07845,3.52964 13.85317,7.26412c1.51101,3.17962 -1.9828,14.72812 -1.9828,14.72812c0,0 -34.83573,30.54005 -39.483,31.24066z" fill="#ffffff"/><path d="M235.91422,340.10392l-35.82899,33.60391c0,0 -9.38132,-4.71599 -10.44457,-5.95134c-2.2867,-2.49906 -1.15731,-15.77141 -1.15731,-15.77141l38.4162,-20.13966z" fill="#f3c69d"/></g><g fill="none" stroke="none" stroke-width="1" font-family="sans-serif" font-weight="normal" font-size="12" text-anchor="start"/></g><g stroke="#000000" stroke-width="0.5"><path d="M206.77969,344.55938l11.012,-31.4046l38.33808,0.40783l8.97275,30.99677z" fill="#ffffff" stroke-linecap="butt"/><g data-paper-data="{&quot;origRot&quot;:0}" stroke-linecap="round"><path d="M220.73107,256.67191l30.59531,-0.7872l9.19218,61.13314l-48.24489,-1.39077z" fill="#ffffff"/><path d="M251.2755,256.79268l-15.75489,10.69629l-14.99096,-9.60838z" fill="#804040"/><path d="M235.60932,267.09091l2.05052,48.92817l-25.43659,-0.23611l8.52706,-57.01748z" fill="#ffffff"/></g></g><path d="M311.83004,202.86876c1.35271,29.45425 -32.15374,54.92078 -74.83877,56.88111c-42.68501,1.96032 -66.9768,-20.85181 -68.32951,-50.30603c-1.35271,-29.45425 19.56746,-68.77852 62.1009,-72.87238c45.43219,-4.37289 79.7147,36.84305 81.06741,66.29729z" data-paper-data="{&quot;origRot&quot;:0}" fill="#f3c69d" stroke="#000000" stroke-width="0.5" stroke-linecap="butt"/><path d="M206.32454,206.17155c0,0 8.78077,-9.48416 13.4045,-11.03935c8.67045,-2.91636 17.8606,0.85327 17.8606,0.85327c0,0 6.71489,4.75114 7.55783,9.56153c0.84294,4.81038 -2.73078,12.26381 -2.73078,12.26381c0,0 -23.07743,10.77038 -28.31223,9.5162c-3.4068,-0.81623 -7.77993,-21.15545 -7.77993,-21.15545z" data-paper-data="{&quot;index&quot;:null,&quot;origRot&quot;:0}" fill="#ffffff" stroke="#000000" stroke-width="0" stroke-linecap="butt"/><path d="M240.72285,202.72217c0.29164,6.35042 -5.01594,11.75302 -11.85484,12.06712c-6.83888,0.31409 -12.61938,-4.57932 -12.91103,-10.92973c-0.29164,-6.35042 5.01599,-11.75306 11.85486,-12.06714c6.83888,-0.31409 12.61937,4.57935 12.91101,10.92977z" data-paper-data="{&quot;origRot&quot;:0}" fill="url(#color-2)" stroke="#000000" stroke-width="0.5" stroke-linecap="butt"/><path d="M296.4922,203.79406c-3.72834,3.87253 -29.78838,4.79761 -29.78838,4.79761c0,0 -5.95013,-3.9614 -7.21968,-6.97939c-1.86055,-4.42274 -0.80087,-12.08648 -0.80087,-12.08648c0,0 13.60491,-8.15253 22.44686,-10.44997c4.7152,-1.22517 12.2917,1.42384 12.2917,1.42384c0,0 5.49682,20.77413 3.07037,23.29436z" data-paper-data="{&quot;origRot&quot;:0}" fill="#ffffff" stroke="#000000" stroke-width="0" stroke-linecap="butt"/><path d="M291.34859,188.50783c0.29164,6.35042 -5.01594,11.75305 -11.85484,12.06712c-6.83888,0.31406 -12.61938,-4.57932 -12.91104,-10.92976c-0.29164,-6.35042 5.01601,-11.75307 11.85489,-12.06715c6.83888,-0.31406 12.61934,4.57936 12.91098,10.92978z" data-paper-data="{&quot;origRot&quot;:0}" fill="url(#color-3)" stroke="#000000" stroke-width="0.5" stroke-linecap="butt"/><path d="M204.47293,209.33357l3.93445,-13.89896l23.72069,-6.23374l8.97498,8.73331l-10.9422,-1.78384l-16.90217,5.34899z" data-paper-data="{&quot;origRot&quot;:0}" fill="#000000" stroke="#000000" stroke-width="0.5" stroke-linecap="round"/><path d="M255.44465,194.43062l5.10142,-13.38096l24.83528,-6.85651l9.98481,5.82898l-11.48643,-1.18728l-19.70176,6.62078z" data-paper-data="{&quot;origRot&quot;:0}" fill="#000000" stroke="#000000" stroke-width="0.5" stroke-linecap="round"/><path d="M212.23448,228.98292l34.24378,-13.57617l-2.15058,2.95674l-33.07679,14.09416z" data-paper-data="{&quot;origRot&quot;:0}" fill="#000000" stroke="#000000" stroke-width="0.5" stroke-linecap="round"/><path d="M265.22664,207.02075l32.40755,-3.77471l-3.26519,3.57953l-31.26676,3.72231z" data-paper-data="{&quot;origRot&quot;:0}" fill="#000000" stroke="#000000" stroke-width="0.5" stroke-linecap="round"/><path d="M312.98737,203.50968c-0.50794,15.65599 -5.17179,28.12157 -15.65229,32.56486c-10.4805,4.44328 6.03774,-16.33328 5.90683,-28.4332c-0.16372,-15.13323 -9.7758,-46.92126 -9.7758,-46.92126c0,0 20.25597,20.14395 19.52125,42.78962z" data-paper-data="{&quot;origRot&quot;:0}" fill="url(#color-4)" stroke="#000000" stroke-width="0.5" stroke-linecap="round"/><path d="M188.97699,196.95648l6.21758,28.70244l26.10219,17.17393l-11.70299,2.98718l8.33978,12.68201c0,0 -19.56593,1.65408 -33.99767,-12.88036c-13.44934,-9.99457 -15.82257,-31.78405 -15.82257,-31.78405z" data-paper-data="{&quot;origRot&quot;:0}" fill="url(#color-5)" stroke="#000000" stroke-width="0.5" stroke-linecap="round"/><path d="M164.5401,216.04317c0,0 -4.23684,-67.48421 50.01889,-84.36178c54.68713,-17.01175 86.89142,33.97967 86.89142,33.97967l-44.24068,5.70634l-10.89658,-15.0143l-5.60192,20.26308c0,0 -23.2526,5.68528 -36.16637,12.36958c-16.81301,8.70259 -40.00478,27.05739 -40.00478,27.05739z" data-paper-data="{&quot;origRot&quot;:0}" fill="url(#color-6)" stroke="#000000" stroke-width="0.5" stroke-linecap="round"/><path d="M205.5628,249.52373c0.637,4.98411 2.6042,15.95595 1.31869,24.47494c-1.402,9.29092 -8.20506,21.16061 -8.20506,21.16061l-11.13561,-11.32873l-20.33974,28.28899c0,0 -5.3902,-8.9903 -6.49326,-14.85237c-1.21555,-6.45975 0.55215,-16.72076 0.55215,-16.72076l-11.82971,9.1172c0,0 6.05534,-20.69213 15.04148,-30.77368c4.04545,-4.53862 18.35027,-6.68867 18.35027,-6.68867l-17.725,-3.67709l24.32886,-12.5492c0,0 10.26517,-0.63013 12.78588,1.4863c3.77694,3.17115 2.71404,7.07836 3.35104,12.06246z" fill="url(#color-7)" stroke="#000000" stroke-width="0.5" stroke-linecap="round"/><g data-paper-data="{&quot;origRot&quot;:0,&quot;index&quot;:null}" stroke="#000000" stroke-width="0.5" stroke-linecap="butt"><path d="M183.17593,346.40374c-7.96683,-3.85666 -9.83204,-18.3074 -5.7495,-22.81522c4.08257,-4.50785 18.89812,7.76085 24.90856,13.20424c4.40395,3.98844 -9.58197,14.2471 -19.15906,9.61095z" fill="#7f2626"/><path d="M198.23004,292.58858c0,0 12.764,-1.86289 14.10201,-0.52491c1.33801,1.33801 6.39455,13.58532 6.39455,13.58532l-10.99352,27.24909c0,0 5.91514,2.24811 4.69539,5.02277c-1.21975,2.77465 -7.60203,1.5891 -7.60203,1.5891l-27.91675,-16.80903c0,0 -4.49954,-0.98599 -1.04609,-4.79919c3.45345,-3.8132 11.39505,-6.62786 11.39505,-6.62786z" fill="#ffffff"/><path d="M231.10526,261.68628l-11.86523,42.69013c0,0 -13.2365,0.30694 -14.72302,-0.60454c-1.48652,-0.91148 -5.47499,-12.56607 -5.47499,-12.56607l18.04172,-30.72666z" fill="#ffffff"/></g><path d="M201.43265,193.35756c0,0 8.0354,-5.91861 14.45846,-7.78222c5.99142,-1.73836 17.35215,-1.44735 17.35215,-1.44735" fill="none" stroke="#000000" stroke-width="0.5" stroke-linecap="round"/><path d="M251.02615,179.89087c0,0 9.65321,-5.99713 15.701,-7.52795c6.4835,-1.64109 16.40885,-0.59957 16.40885,-0.59957" data-paper-data="{&quot;index&quot;:null}" fill="none" stroke="#000000" stroke-width="0.5" stroke-linecap="round"/><g data-paper-data="{&quot;index&quot;:null,&quot;origRot&quot;:0}" stroke="#000000"><g><path d="M190.46399,163.01818l12.39334,43.34173c0,0 -3.94496,3.83869 -6.83994,4.40535c-1.42722,0.27936 -4.52122,-1.58847 -4.52122,-1.58847l-3.97975,-34.83795l3.86765,32.93801c0,0 -3.19046,4.35657 -5.29432,4.13188c-2.87519,-0.30711 -0.72385,-16.14654 -2.31912,-17.4805c-1.03723,-0.86731 0.58214,16.81349 0.58214,16.81349c0,0 -3.85372,1.16445 -7.50119,-0.21661c-2.02606,-0.76713 -12.59012,-3.287 -13.57532,-5.21646c-6.74346,-13.20648 15.03905,-37.38267 15.03905,-37.38267z" data-paper-data="{&quot;index&quot;:null,&quot;origRot&quot;:0}" fill="#ffffff" stroke-width="0.025" stroke-linecap="round"/><g data-paper-data="{&quot;origRot&quot;:0}" fill="#8ceeff" stroke-width="0.015" stroke-linecap="butt"><path d="M158.14959,137.60178c2.29624,-3.55581 8.73777,0.95304 12.4265,3.33513c3.68873,2.38209 3.97556,14.83736 1.67933,18.39319c-2.29624,3.55581 -9.80089,-3.00377 -11.92022,-6.75983c-2.15785,-3.82424 -4.48183,-11.41263 -2.18559,-14.96846z" data-paper-data="{&quot;origRot&quot;:0}"/><path d="M158.40806,156.58495c4.2085,-0.94233 14.10599,0.23597 13.00389,4.32279c-1.1021,4.08681 -10.54227,12.21693 -14.78183,11.07365c-4.2396,-1.14327 -11.90228,-2.9059 -10.80015,-6.99272c1.1021,-4.08681 8.29319,-7.44429 12.57811,-8.40373z" data-paper-data="{&quot;origRot&quot;:0,&quot;index&quot;:null}"/><path d="M170.95836,155.51666c1.32122,-1.81398 7.40113,-2.63096 9.40808,-1.16918c2.00693,1.46177 -1.36605,5.10607 -2.68729,6.92002c-1.32122,1.81398 -3.47224,1.64217 -5.47919,0.18042c-2.00693,-1.46177 -2.56282,-4.11729 -1.24159,-5.93126z" data-paper-data="{&quot;origRot&quot;:0}"/><path d="M172.54024,160.43832c2.4297,0.511 3.99812,1.99307 3.53625,4.18915c-0.46187,2.19608 -0.90837,7.14162 -3.33807,6.63062c-2.4297,-0.511 -5.89567,-5.57257 -5.4338,-7.76866c0.46187,-2.19608 2.80594,-3.56212 5.23563,-3.05112z" data-paper-data="{&quot;origRot&quot;:0,&quot;index&quot;:null}"/></g><path d="M192.49252,154.43591c13.56261,-5.95225 26.29438,-6.81942 28.43719,-1.93689c2.14279,4.88253 -7.11477,13.66588 -20.67739,19.61813c-13.56261,5.95225 -26.29441,6.81943 -28.43719,1.93689c-2.14279,-4.88253 7.11477,-13.66588 20.67739,-19.61813z" data-paper-data="{&quot;origRot&quot;:0}" fill="#ffffff" stroke-width="0.5" stroke-linecap="butt"/><path d="M178.6642,166.65393c0,0 -19.27261,-38.03304 -21.49991,-47.06018c-1.12247,-4.54935 10.40938,-9.97667 17.43947,-12.70832c8.98652,-3.49181 21.90486,-8.0927 23.60098,-3.23854c6.76218,19.35309 12.14804,51.10593 12.14804,51.10593z" data-paper-data="{&quot;origRot&quot;:0}" fill="#ffffff" stroke-width="0.5" stroke-linecap="butt"/><path d="M197.41398,102.76822c0,0 -12.07294,10.33527 -20.60086,13.66308c-7.03252,2.74426 -19.27076,1.89589 -19.27076,1.89589" fill="none" stroke-width="0.5" stroke-linecap="round"/><path d="M207.91035,158.15433c1.37012,-1.16 3.33567,-1.09061 4.39023,0.15496c1.05456,1.24557 0.79873,3.19566 -0.57141,4.35566c-1.37012,1.16 -3.33567,1.09061 -4.39023,-0.15496c-1.05456,-1.24557 -0.79871,-3.19566 0.57141,-4.35566z" fill="#fff08d" stroke-width="0.5" stroke-linecap="butt"/><path d="M197.42188,162.00086c1.55694,-1.31817 3.80222,-1.22555 5.01488,0.20683c1.2127,1.4324 0.93366,3.66214 -0.62327,4.98034c-1.55694,1.31817 -3.80225,1.22555 -5.01492,-0.20685c-1.2127,-1.4324 -0.93366,-3.66214 0.62331,-4.98032z" fill="#8ceeff" stroke-width="0.5" stroke-linecap="butt"/><path d="M184.82548,167.24483c1.68152,-1.42363 4.1132,-1.31552 5.43138,0.24141c1.31817,1.55694 1.02362,3.97316 -0.65787,5.39678c-1.68152,1.42363 -4.11322,1.31553 -5.43141,-0.24144c-1.31817,-1.55694 -1.02359,-3.97316 0.6579,-5.39679z" fill="#ff8c8c" stroke-width="0.5" stroke-linecap="butt"/></g><path d="M209.58075,151.99969l-32.03636,11.74443l-2.44186,-5.82979l33.20972,-12.3222z" fill="#ff8c8c" stroke-width="0.5" stroke-linecap="round"/></g><path d="M260.63849,244.16314c-12.8391,6.83044 -21.14377,-6.10946 -21.3825,-11.30728c-0.23873,-5.1978 16.48505,-8.4736 23.88799,-8.81359c7.40295,-0.33999 9.46678,13.75159 -2.50548,20.12089z" data-paper-data="{&quot;origRot&quot;:0}" fill="#ffa6a6" stroke="#000000" stroke-width="0.5" stroke-linecap="butt"/></g></g></svg>