<svg version="1.1" xmlns="http://www.w3.org/2000/svg" xmlns:xlink="http://www.w3.org/1999/xlink" width="213.1717" height="317.16865" viewBox="0,0,213.1717,317.16865"><defs><linearGradient x1="321.80794" y1="198.97077" x2="322.34547" y2="258.07634" gradientUnits="userSpaceOnUse" id="color-1"><stop offset="0" stop-color="#7f2626"/><stop offset="1" stop-color="#401a1a"/></linearGradient><linearGradient x1="219.37996" y1="202.84493" x2="219.58933" y2="225.86506" gradientUnits="userSpaceOnUse" id="color-2"><stop offset="0" stop-color="#3a5946"/><stop offset="1" stop-color="#5f7f7f"/></linearGradient><linearGradient x1="269.85537" y1="189.28236" x2="270.06473" y2="212.30259" gradientUnits="userSpaceOnUse" id="color-3"><stop offset="0" stop-color="#3a5946"/><stop offset="1" stop-color="#5f7f7f"/></linearGradient><linearGradient x1="298.36018" y1="172.80923" x2="298.99905" y2="243.05909" gradientUnits="userSpaceOnUse" id="color-4"><stop offset="0" stop-color="#401a1a"/><stop offset="1" stop-color="#7f2626"/></linearGradient><linearGradient x1="189.5847" y1="199.4942" x2="190.15586" y2="262.30083" gradientUnits="userSpaceOnUse" id="color-5"><stop offset="0" stop-color="#401a1a"/><stop offset="1" stop-color="#7f2626"/></linearGradient><linearGradient x1="228.94636" y1="132.56975" x2="229.71489" y2="217.07548" gradientUnits="userSpaceOnUse" id="color-6"><stop offset="0" stop-color="#7f2626"/><stop offset="1" stop-color="#401a1a"/></linearGradient><linearGradient x1="171.30271" y1="238.66009" x2="171.98516" y2="313.70174" gradientUnits="userSpaceOnUse" id="color-7"><stop offset="0" stop-color="#7f2626"/><stop offset="1" stop-color="#401a1a"/></linearGradient></defs><g transform="translate(-141.89186,-104.10453)"><g data-paper-data="{&quot;isPaintingLayer&quot;:true}" fill-rule="nonzero" stroke-linejoin="miter" stroke-miterlimit="10" stroke-dasharray="" stroke-dashoffset="0" style="mix-blend-mode: normal"><g stroke="#000000" stroke-width="0.5" stroke-linecap="round"><path d="M243.4954,264.381l49.24813,112.05734l-132.04208,-1.42748l59.2405,-111.34359z" fill="#804040"/><path d="M167.83886,358.59481h115.62604c0,0 16.8144,16.1221 9.27863,17.12978c-7.53576,1.00769 -80.8411,5.15141 -132.04208,-0.71374c-17.51206,-2.00604 7.13741,-16.41604 7.13741,-16.41604z" fill="#ffffff"/></g><g data-paper-data="{&quot;origRot&quot;:0}" stroke="#000000" stroke-width="0.5" stroke-linecap="butt"><path d="M285.98914,348.10599c-9.57709,4.63615 -23.56302,-5.62251 -19.15906,-9.61095c6.01044,-5.44339 20.82599,-17.71208 24.90856,-13.20424c4.08254,4.50782 2.21734,18.95856 -5.7495,22.81522z" fill="#7f2626"/><path d="M281.90643,312.97617c0,0 7.9416,2.81465 11.39505,6.62786c3.45345,3.8132 -1.04609,4.79919 -1.04609,4.79919l-27.91675,16.80903c0,0 -6.38227,1.18555 -7.60203,-1.5891c-1.21975,-2.77465 4.69539,-5.02277 4.69539,-5.02277l-10.99352,-27.24909c0,0 5.05657,-12.24734 6.39458,-13.58532c1.33801,-1.33801 14.10198,0.52491 14.10198,0.52491z" fill="#ffffff"/><path d="M252.08136,262.18142l18.04172,30.72666c0,0 -3.98847,11.65459 -5.47502,12.56607c-1.48652,0.91148 -14.72302,0.60454 -14.72302,0.60454l-8.29653,-20.56416z" fill="#ffffff"/></g><g data-paper-data="{&quot;origRot&quot;:0}" stroke="#000000" stroke-width="0.5" stroke-linecap="butt"><path d="M272.96331,414.53203c-3.96683,5.35306 -29.01945,7.47992 -31.15348,-0.0249c-1.96273,-6.9023 -2.51939,-49.59703 -2.51939,-49.59703c0,0 8.8533,-8.94246 12.98229,-8.72565c3.51555,0.18457 12.00892,8.75409 12.00892,8.75409c0,0 10.27747,45.17295 8.68163,49.59352z" fill="#ffffff"/><path d="M252.85991,320.71378l11.05633,42.72154c0,0 -8.61286,6.00573 -10.20535,6.35281c-3.28621,0.82154 -14.42111,-6.48908 -14.42111,-6.48908l0.57345,-43.37144z" fill="#f3c69d"/></g><g data-paper-data="{&quot;index&quot;:null,&quot;origRot&quot;:0}" stroke-linecap="butt"><g data-paper-data="{&quot;origRot&quot;:0,&quot;index&quot;:null}" stroke="#000000" stroke-width="0.5"><path d="M226.60592,419.65295c-5.34378,3.97933 -29.94312,-1.21967 -29.81881,-9.021c0.11434,-7.17501 11.91168,-48.21126 11.91168,-48.21126c0,0 11.05862,-6.00453 14.94911,-4.60454c3.31244,1.192 8.96904,11.84927 8.96904,11.84927c0,0 -3.2065,46.21624 -6.01101,49.98754z" fill="#ffffff"/><path d="M234.45405,319.03035l-1.75286,49.09039c0,0 -9.9803,3.26242 -11.6052,3.13478c-3.38347,-0.16253 -11.93255,-10.37742 -11.93255,-10.37742l13.07476,-41.35772z" fill="#f3c69d"/></g><g fill="none" stroke="none" stroke-width="1" font-family="sans-serif" font-weight="normal" font-size="12" text-anchor="start"/></g><g stroke="#000000" stroke-width="0.5"><path d="M207.77969,351.55938l11.012,-31.4046l38.33808,0.40783l8.97275,30.99677z" fill="#ffffff" stroke-linecap="butt"/><g data-paper-data="{&quot;origRot&quot;:0}" stroke-linecap="round"><path d="M221.73107,263.67191l30.59531,-0.7872l9.19218,61.13314l-48.24489,-1.39077z" fill="#ffffff"/><path d="M252.2755,263.79268l-15.75489,10.69629l-14.99096,-9.60838z" fill="#804040"/><path d="M236.60932,274.09091l2.05052,48.92817l-25.43659,-0.23611l8.52706,-57.01748z" fill="#ffffff"/></g></g><path d="M237.24459,327.21762c-4.65749,7.52675 -19.22352,7.89215 -23.28641,3.36661c-4.06291,-4.52557 9.66789,-17.99727 15.70195,-23.41446c4.42123,-3.96927 13.18328,10.99978 7.58443,20.04785z" fill="#7f2626" stroke="#000000" stroke-width="0.5" stroke-linecap="butt"/><path d="M185.26829,306.69539c0,0 -0.53699,-12.88804 0.9318,-14.08098c1.46883,-1.19293 14.1722,-4.95983 14.1722,-4.95983l25.97045,13.74432c0,0 2.84598,-5.65184 5.4801,-4.15252c2.63411,1.49932 0.79686,7.72535 0.79686,7.72535l-19.59767,26.03497c0,0 -1.44464,4.37391 -4.88147,0.54572c-3.43683,-3.82819 -5.41771,-12.01766 -5.41771,-12.01766z" fill="#ffffff" stroke="#000000" stroke-width="0.5" stroke-linecap="butt"/><path d="M223.65443,264.3765l-20.79835,39.12365c0,0 -12.99084,-2.55678 -14.24563,-3.76758c-1.25479,-1.2108 -2.63417,-13.4515 -2.63417,-13.4515l24.24753,-26.10916z" fill="#ffffff" stroke="#000000" stroke-width="0.5" stroke-linecap="butt"/><g stroke="#000000"><path d="M289.40456,201.41062c0,0 21.1775,-3.36162 30.06437,-2.07702c7.68919,1.11144 12.40978,8.21662 12.40978,8.21662l-13.44001,2.16158c0,0 4.0462,4.84932 6.36066,6.38932c6.65365,4.42713 16.61906,8.90071 16.61906,8.90071c0,0 -4.14083,4.38143 -7.59325,5.10462c-5.28559,1.10722 -13.59562,-2.87263 -13.59562,-2.87263c0,0 14.34399,3.32825 20.67487,7.83398c10.01084,7.12472 13.8503,21.21864 13.8503,21.21864c0,0 -11.28833,2.73042 -19.58847,1.09409c-10.99474,-2.16759 -29.85229,-10.84121 -29.85229,-10.84121l-0.33733,7.75259l-11.6234,-22.3271z" fill="url(#color-1)" stroke-width="0.5" stroke-linecap="round"/><path d="M307.85479,209.96129c0.26814,29.48407 -34.15255,53.70063 -76.88081,54.08921c-42.72823,0.38857 -66.1643,-23.30183 -66.43245,-52.78587c-0.26814,-29.48407 22.08463,-68.01206 64.73989,-70.53829c45.56232,-2.69844 78.30524,39.75088 78.5734,69.23495z" data-paper-data="{&quot;origRot&quot;:0}" fill="#f3c69d" stroke-width="0.5" stroke-linecap="butt"/><path d="M202.29921,209.38021c0,0 9.12376,-9.15469 13.80157,-10.53871c8.77188,-2.59539 17.81712,1.5098 17.81712,1.5098c0,0 6.53554,4.99497 7.20093,9.83311c0.66539,4.83814 -3.18013,12.15504 -3.18013,12.15504c0,0 -23.45806,9.91405 -28.64317,8.46813c-3.37446,-0.94101 -6.99633,-21.42736 -6.99633,-21.42736z" data-paper-data="{&quot;index&quot;:null,&quot;origRot&quot;:0}" fill="#ffffff" stroke-width="0" stroke-linecap="butt"/><path d="M231.88012,214.2423c0.05781,6.35685 -5.44495,11.56052 -12.29077,11.6228c-6.8458,0.06227 -12.44236,-5.04049 -12.50018,-11.39734c-0.05781,-6.35685 5.44499,-11.56057 12.2908,-11.62282c6.8458,-0.06227 12.44235,5.04053 12.50015,11.39738z" data-paper-data="{&quot;origRot&quot;:0}" fill="url(#color-2)" stroke-width="0.5" stroke-linecap="butt"/><path d="M292.49329,210.32167c-3.86829,3.73274 -29.94472,3.69843 -29.94472,3.69843c0,0 -5.80036,-4.17763 -6.95802,-7.24028c-1.69657,-4.48819 -0.35566,-12.10776 -0.35566,-12.10776c0,0 13.89564,-7.64647 22.81612,-9.61706c4.75708,-1.05087 12.23099,1.8751 12.23099,1.8751c0,0 4.7288,20.96229 2.21128,23.39155z" data-paper-data="{&quot;origRot&quot;:0}" fill="#ffffff" stroke-width="0" stroke-linecap="butt"/><path d="M282.3555,200.67979c0.05781,6.35685 -5.44495,11.56055 -12.29077,11.6228c-6.84581,0.06224 -12.44236,-5.04049 -12.50018,-11.39737c-0.05781,-6.35685 5.44502,-11.56057 12.29083,-11.62283c6.84581,-0.06224 12.44232,5.04053 12.50012,11.39738z" data-paper-data="{&quot;origRot&quot;:0}" fill="url(#color-3)" stroke-width="0.5" stroke-linecap="butt"/><path d="M200.33251,212.47197l4.44314,-13.7448l23.93398,-5.35682l8.6476,9.0576l-10.86916,-2.18521l-17.08753,4.72352z" data-paper-data="{&quot;origRot&quot;:0}" fill="#000000" stroke-width="0.5" stroke-linecap="round"/><path d="M251.81802,199.4544l5.59026,-13.18422l25.07072,-5.93816l9.7636,6.19238l-11.43497,-1.60907l-19.93201,5.89145z" data-paper-data="{&quot;origRot&quot;:0}" fill="#000000" stroke-width="0.5" stroke-linecap="round"/><path d="M207.36589,232.39357l34.72007,-12.30712l-2.25791,2.87562l-33.57293,12.86769z" data-paper-data="{&quot;origRot&quot;:0}" fill="#000000" stroke-width="0.5" stroke-linecap="round"/><path d="M261.13019,212.3959l32.52449,-2.57985l-3.39468,3.45698l-31.38254,2.56946z" data-paper-data="{&quot;origRot&quot;:0}" fill="#000000" stroke-width="0.5" stroke-linecap="round"/><path d="M308.98776,210.64437c-1.08359,15.62671 -6.2029,27.91226 -16.83978,31.96695c-10.63688,4.05469 6.63456,-16.10009 6.94892,-28.19663c0.39315,-15.129 -8.04291,-47.24916 -8.04291,-47.24916c0,0 19.50115,20.87554 17.93377,43.47886z" data-paper-data="{&quot;origRot&quot;:0}" fill="url(#color-4)" stroke-width="0.5" stroke-linecap="round"/><path d="M185.30243,199.53315l5.15738,28.91176l25.45267,18.12263l-11.80497,2.5546l7.86755,12.98025c0,0 -19.61354,0.93311 -33.50077,-14.12245c-13.07253,-10.48261 -14.6425,-32.34465 -14.6425,-32.34465z" data-paper-data="{&quot;origRot&quot;:0}" fill="url(#color-5)" stroke-width="0.5" stroke-linecap="round"/><path d="M160.17987,217.70787c0,0 -1.75117,-67.5944 53.08876,-82.46443c55.27598,-14.98825 85.58245,37.15347 85.58245,37.15347l-44.42067,4.07482l-10.33682,-15.40503l-6.34363,20.04327c0,0 -23.44603,4.82595 -36.59698,11.03062c-17.1218,8.07813 -40.97316,25.56726 -40.97316,25.56726z" data-paper-data="{&quot;origRot&quot;:0}" fill="url(#color-6)" stroke-width="0.5" stroke-linecap="round"/><path d="M199.94302,252.67502c0.4532,5.00417 2.0154,16.04095 0.41735,24.50689c-1.74287,9.23305 -8.97802,20.84441 -8.97802,20.84441l-10.71128,-11.73075l-21.36675,27.52152c0,0 -5.05579,-9.18253 -5.94243,-15.08121c-0.97707,-6.50009 1.16694,-16.68912 1.16694,-16.68912l-12.15713,8.6758c0,0 6.81252,-20.45534 16.16349,-30.19945c4.20969,-4.38671 18.58393,-6.00902 18.58393,-6.00902l-17.57772,-4.32672l24.77409,-11.64562c0,0 10.28141,-0.25204 12.72254,1.95569c3.65771,3.30796 2.45179,7.17342 2.90498,12.17758z" fill="url(#color-7)" stroke-width="0.5" stroke-linecap="round"/><path d="M197.88206,196.39492c0,0 8.24771,-5.61897 14.73499,-7.24501c6.05132,-1.51676 17.39365,-0.80797 17.39365,-0.80797" fill="none" stroke-width="0.5" stroke-linecap="round"/><path d="M247.93744,184.76193c0,0 9.86732,-5.63792 15.96733,-6.9452c6.53949,-1.40144 16.4198,0.00454 16.4198,0.00454" data-paper-data="{&quot;index&quot;:null}" fill="none" stroke-width="0.5" stroke-linecap="round"/><g data-paper-data="{&quot;index&quot;:null,&quot;origRot&quot;:0}"><g><path d="M188.03704,165.67254l10.79037,43.76835c0,0 -4.08352,3.69096 -6.99739,4.15072c-1.43653,0.22666 -4.45972,-1.75373 -4.45972,-1.75373l-2.69534,-34.96079l2.65322,33.05801c0,0 -3.34858,4.23624 -5.44275,3.9343c-2.86194,-0.41269 -0.12931,-16.16223 -1.67442,-17.55399c-1.00462,-0.90488 -0.03683,16.82352 -0.03683,16.82352c0,0 -3.89395,1.02188 -7.48814,-0.49244c-1.99647,-0.84116 -12.46067,-3.74798 -13.37421,-5.71238c-6.25302,-13.44564 16.40421,-36.80406 16.40421,-36.80406z" data-paper-data="{&quot;index&quot;:null,&quot;origRot&quot;:0}" fill="#ffffff" stroke-width="0.025" stroke-linecap="round"/><g data-paper-data="{&quot;origRot&quot;:0}" fill="#8ceeff" stroke-width="0.015" stroke-linecap="butt"><path d="M156.67961,139.08446c2.42551,-3.46892 8.69679,1.27387 12.29538,3.79005c3.59859,2.51619 3.42699,14.97358 1.00149,18.44252c-2.42551,3.46892 -9.68374,-3.36232 -11.66345,-7.19381c-2.01569,-3.90104 -4.05891,-11.56979 -1.63341,-15.03874z" data-paper-data="{&quot;origRot&quot;:0}"/><path d="M156.2395,158.06429c4.24032,-0.78686 14.08776,0.75478 12.83605,4.79829c-1.25171,4.04349 -10.98461,11.8208 -15.17923,10.52232c-4.19467,-1.29847 -11.78731,-3.34183 -10.53557,-7.38533c1.25171,-4.04349 8.56146,-7.13414 12.87878,-7.93528z" data-paper-data="{&quot;origRot&quot;:0,&quot;index&quot;:null}"/><path d="M168.82061,157.45847c1.38707,-1.76414 7.49292,-2.35689 9.44473,-0.82225c1.95179,1.53462 -1.55298,5.05236 -2.94006,6.81646c-1.38707,1.76414 -3.5303,1.51332 -5.48212,-0.02129c-1.95179,-1.53462 -2.4096,-4.20879 -1.02253,-5.97293z" data-paper-data="{&quot;origRot&quot;:0}"/><path d="M170.22034,162.43499c2.40925,0.60005 3.92208,2.13881 3.37973,4.31642c-0.54236,2.1776 -1.1705,7.10337 -3.57976,6.50333c-2.40925,-0.60005 -5.68666,-5.7857 -5.14431,-7.96331c0.54236,-2.1776 2.93509,-3.45648 5.34434,-2.85643z" data-paper-data="{&quot;origRot&quot;:0,&quot;index&quot;:null}"/></g><path d="M190.37995,157.17071c13.77242,-5.44924 26.52747,-5.84741 28.48919,-0.88935c1.96171,4.95806 -7.61273,13.39487 -21.38515,18.84411c-13.77242,5.44924 -26.5275,5.84742 -28.48919,0.88935c-1.96171,-4.95806 7.61273,-13.39487 21.38515,-18.84411z" data-paper-data="{&quot;origRot&quot;:0}" fill="#ffffff" stroke-width="0.5" stroke-linecap="butt"/><path d="M176.11148,168.8717c0,0 -17.8603,-38.71635 -19.75397,-47.81932c-0.95434,-4.58756 10.76939,-9.58694 17.89522,-12.0581c9.1089,-3.15883 22.18777,-7.28133 23.70415,-2.36805c6.04559,19.58878 10.25959,51.51827 10.25959,51.51827z" data-paper-data="{&quot;origRot&quot;:0}" fill="#ffffff" stroke-width="0.5" stroke-linecap="butt"/><path d="M197.19897,105.71906c0,0 -12.44501,9.8841 -21.08959,12.89591c-7.12872,2.48367 -19.32746,1.18561 -19.32746,1.18561" fill="none" stroke-width="0.5" stroke-linecap="round"/><path d="M205.65054,161.45385c1.41187,-1.10881 3.37354,-0.96715 4.38156,0.31637c1.00802,1.28352 0.68062,3.22288 -0.73127,4.33169c-1.41187,1.10881 -3.37354,0.96715 -4.38156,-0.31637c-1.00802,-1.28352 -0.6806,-3.22288 0.73127,-4.33169z" fill="#fff08d" stroke-width="0.5" stroke-linecap="butt"/><path d="M195.02765,164.91189c1.60438,-1.26 3.84473,-1.08483 5.00388,0.39119c1.15918,1.47604 0.79829,3.69401 -0.80608,4.95404c-1.60438,1.26 -3.84476,1.08484 -5.00391,-0.39121c-1.15918,-1.47604 -0.79829,-3.69401 0.80612,-4.95402z" fill="#8ceeff" stroke-width="0.5" stroke-linecap="butt"/><path d="M182.24685,169.68888c1.73276,-1.3608 4.15881,-1.16331 5.41882,0.44107c1.26,1.60438 0.87675,4.00813 -0.85598,5.36893c-1.73276,1.3608 -4.15884,1.16331 -5.41885,-0.4411c-1.26,-1.60438 -0.87672,-4.00813 0.85601,-5.36893z" fill="#ff8c8c" stroke-width="0.5" stroke-linecap="butt"/></g><path d="M207.54624,155.36483l-32.44676,10.55783l-2.22573,-5.91569l33.64058,-11.09204z" fill="#ff8c8c" stroke-width="0.5" stroke-linecap="round"/></g><path d="M249.07483,252.44176c-14.42073,1.88148 -17.64693,-13.15182 -16.04334,-18.10185c1.60358,-4.95001 18.4116,-2.1382 25.46162,0.14571c7.05004,2.28391 4.02883,16.20169 -9.41828,17.95616z" data-paper-data="{&quot;origRot&quot;:0}" fill="#ffa6a6" stroke-width="0.5" stroke-linecap="butt"/></g></g></g></svg>