<svg xmlns="http://www.w3.org/2000/svg" xmlns:xlink="http://www.w3.org/1999/xlink" version="1.1" width="243.07226" height="432.73202" viewBox="0,0,243.07226,432.73202"><defs><linearGradient x1="244.81789" y1="398.26576" x2="320.49077" y2="398.26576" gradientUnits="userSpaceOnUse" id="color-1"><stop offset="0" stop-color="#000000"/><stop offset="1" stop-color="#0e0e0e"/></linearGradient><linearGradient x1="282.47102" y1="420.45035" x2="282.47102" y2="431.49536" gradientUnits="userSpaceOnUse" id="color-2"><stop offset="0" stop-color="#000000"/><stop offset="1" stop-color="#666666"/></linearGradient><linearGradient x1="262.74156" y1="385.03459" x2="262.74156" y2="423.97162" gradientUnits="userSpaceOnUse" id="color-3"><stop offset="0" stop-color="#151515"/><stop offset="1" stop-color="#212121"/></linearGradient><linearGradient x1="293.76515" y1="388.26325" x2="293.76515" y2="404.86662" gradientUnits="userSpaceOnUse" id="color-4"><stop offset="0" stop-color="#292929"/><stop offset="1" stop-color="#292929"/></linearGradient><linearGradient x1="146.09674" y1="374.16338" x2="211.66486" y2="405.9145" gradientUnits="userSpaceOnUse" id="color-5"><stop offset="0" stop-color="#000000"/><stop offset="1" stop-color="#0e0e0e"/></linearGradient><linearGradient x1="169.0546" y1="410.14073" x2="164.55931" y2="419.42377" gradientUnits="userSpaceOnUse" id="color-6"><stop offset="0" stop-color="#000000"/><stop offset="1" stop-color="#666666"/></linearGradient><linearGradient x1="157.82225" y1="385.11269" x2="171.49487" y2="391.73361" gradientUnits="userSpaceOnUse" id="color-7"><stop offset="0" stop-color="#151515"/><stop offset="1" stop-color="#212121"/></linearGradient><linearGradient x1="278.11501" y1="188.60168" x2="277.49512" y2="237.81777" gradientUnits="userSpaceOnUse" id="color-8"><stop offset="0" stop-color="#ffffff"/><stop offset="1" stop-color="#cccccc"/></linearGradient><radialGradient cx="198.50749" cy="228.01969" r="3.32965" gradientUnits="userSpaceOnUse" id="color-9"><stop offset="0" stop-color="#cccccc"/><stop offset="1" stop-color="#7f7f7f"/></radialGradient><radialGradient cx="196.11305" cy="230.58436" r="2.87725" gradientUnits="userSpaceOnUse" id="color-10"><stop offset="0" stop-color="#cccccc"/><stop offset="1" stop-color="#7f7f7f"/></radialGradient><radialGradient cx="194.44555" cy="234.31683" r="3.56966" gradientUnits="userSpaceOnUse" id="color-11"><stop offset="0" stop-color="#cccccc"/><stop offset="1" stop-color="#7f7f7f"/></radialGradient><radialGradient cx="195.76455" cy="238.14353" r="3.56966" gradientUnits="userSpaceOnUse" id="color-12"><stop offset="0" stop-color="#cccccc"/><stop offset="1" stop-color="#7f7f7f"/></radialGradient><radialGradient cx="198.31267" cy="241.86646" r="3.35638" gradientUnits="userSpaceOnUse" id="color-13"><stop offset="0" stop-color="#cccccc"/><stop offset="1" stop-color="#7f7f7f"/></radialGradient><radialGradient cx="199.36903" cy="245.95771" r="3.09053" gradientUnits="userSpaceOnUse" id="color-14"><stop offset="0" stop-color="#cccccc"/><stop offset="1" stop-color="#7f7f7f"/></radialGradient><radialGradient cx="200.43356" cy="249.42078" r="3.54323" gradientUnits="userSpaceOnUse" id="color-15"><stop offset="0" stop-color="#cccccc"/><stop offset="1" stop-color="#7f7f7f"/></radialGradient><radialGradient cx="200.78897" cy="253.84321" r="3.32995" gradientUnits="userSpaceOnUse" id="color-16"><stop offset="0" stop-color="#cccccc"/><stop offset="1" stop-color="#7f7f7f"/></radialGradient><radialGradient cx="201.33426" cy="257.8327" r="3.11666" gradientUnits="userSpaceOnUse" id="color-17"><stop offset="0" stop-color="#cccccc"/><stop offset="1" stop-color="#7f7f7f"/></radialGradient><radialGradient cx="202.90078" cy="261.66275" r="3.78235" gradientUnits="userSpaceOnUse" id="color-18"><stop offset="0" stop-color="#cccccc"/><stop offset="1" stop-color="#7f7f7f"/></radialGradient><radialGradient cx="205.79789" cy="264.98481" r="3.41015" gradientUnits="userSpaceOnUse" id="color-19"><stop offset="0" stop-color="#cccccc"/><stop offset="1" stop-color="#7f7f7f"/></radialGradient><radialGradient cx="207.2942" cy="268.14424" r="3.75652" gradientUnits="userSpaceOnUse" id="color-20"><stop offset="0" stop-color="#cccccc"/><stop offset="1" stop-color="#7f7f7f"/></radialGradient><radialGradient cx="202.46164" cy="221.87755" r="5.63083" gradientUnits="userSpaceOnUse" id="color-21"><stop offset="0" stop-color="#cccccc"/><stop offset="1" stop-color="#7f7f7f"/></radialGradient><radialGradient cx="211.92261" cy="224.39052" r="3.32965" gradientUnits="userSpaceOnUse" id="color-22"><stop offset="0" stop-color="#cccccc"/><stop offset="1" stop-color="#7f7f7f"/></radialGradient><radialGradient cx="213.69382" cy="228.51485" r="3.32965" gradientUnits="userSpaceOnUse" id="color-23"><stop offset="0" stop-color="#cccccc"/><stop offset="1" stop-color="#7f7f7f"/></radialGradient><radialGradient cx="214.39594" cy="233.08146" r="3.32965" gradientUnits="userSpaceOnUse" id="color-24"><stop offset="0" stop-color="#cccccc"/><stop offset="1" stop-color="#7f7f7f"/></radialGradient><radialGradient cx="214.3328" cy="238.09419" r="3.32965" gradientUnits="userSpaceOnUse" id="color-25"><stop offset="0" stop-color="#cccccc"/><stop offset="1" stop-color="#7f7f7f"/></radialGradient><radialGradient cx="214.42526" cy="242.80503" r="3.32965" gradientUnits="userSpaceOnUse" id="color-26"><stop offset="0" stop-color="#cccccc"/><stop offset="1" stop-color="#7f7f7f"/></radialGradient><radialGradient cx="214.06021" cy="247.66202" r="3.32965" gradientUnits="userSpaceOnUse" id="color-27"><stop offset="0" stop-color="#cccccc"/><stop offset="1" stop-color="#7f7f7f"/></radialGradient><radialGradient cx="213.39344" cy="252.36326" r="3.32965" gradientUnits="userSpaceOnUse" id="color-28"><stop offset="0" stop-color="#cccccc"/><stop offset="1" stop-color="#7f7f7f"/></radialGradient><radialGradient cx="213.03408" cy="256.76463" r="3.32965" gradientUnits="userSpaceOnUse" id="color-29"><stop offset="0" stop-color="#cccccc"/><stop offset="1" stop-color="#7f7f7f"/></radialGradient><radialGradient cx="212.51723" cy="261.61981" r="3.32965" gradientUnits="userSpaceOnUse" id="color-30"><stop offset="0" stop-color="#cccccc"/><stop offset="1" stop-color="#7f7f7f"/></radialGradient><radialGradient cx="211.08876" cy="266.46347" r="3.32965" gradientUnits="userSpaceOnUse" id="color-31"><stop offset="0" stop-color="#cccccc"/><stop offset="1" stop-color="#7f7f7f"/></radialGradient><radialGradient cx="209.23317" cy="281.73991" r="3.41015" gradientUnits="userSpaceOnUse" id="color-32"><stop offset="0" stop-color="#cccccc"/><stop offset="1" stop-color="#7f7f7f"/></radialGradient><radialGradient cx="208.74501" cy="285.63396" r="3.75652" gradientUnits="userSpaceOnUse" id="color-33"><stop offset="0" stop-color="#cccccc"/><stop offset="1" stop-color="#7f7f7f"/></radialGradient><radialGradient cx="209.88283" cy="289.84479" r="3.32965" gradientUnits="userSpaceOnUse" id="color-34"><stop offset="0" stop-color="#cccccc"/><stop offset="1" stop-color="#7f7f7f"/></radialGradient><linearGradient x1="293.88854" y1="244.72932" x2="292.38587" y2="276.93505" gradientUnits="userSpaceOnUse" id="color-35"><stop offset="0" stop-color="#ff0000"/><stop offset="1" stop-color="#ff0000" stop-opacity="0"/></linearGradient><linearGradient x1="288.22256" y1="244.50237" x2="293.8905" y2="244.57376" gradientUnits="userSpaceOnUse" id="color-36"><stop offset="0" stop-color="#ff0000"/><stop offset="1" stop-color="#ff0000" stop-opacity="0"/></linearGradient><linearGradient x1="252.86059" y1="216.87986" x2="236.43451" y2="216.2689" gradientUnits="userSpaceOnUse" id="color-37"><stop offset="0" stop-color="#7f7f7f"/><stop offset="1" stop-color="#b2b2b2"/></linearGradient><linearGradient x1="254.56978" y1="227.95754" x2="242.72124" y2="227.80831" gradientUnits="userSpaceOnUse" id="color-38"><stop offset="0" stop-color="#000000"/><stop offset="1" stop-color="#353935"/></linearGradient><linearGradient x1="232.51658" y1="227.67976" x2="243.14969" y2="227.81369" gradientUnits="userSpaceOnUse" id="color-39"><stop offset="0" stop-color="#000000"/><stop offset="1" stop-color="#353935"/></linearGradient><radialGradient cx="219.91661" cy="220.98065" r="26.66754" gradientUnits="userSpaceOnUse" id="color-40"><stop offset="0" stop-color="#666666"/><stop offset="1" stop-color="#000000"/></radialGradient><radialGradient cx="218.2304" cy="229.80925" r="11.46006" gradientUnits="userSpaceOnUse" id="color-41"><stop offset="0" stop-color="#370000"/><stop offset="1" stop-color="#000000"/></radialGradient><radialGradient cx="223.34899" cy="233.60428" r="9.77473" gradientUnits="userSpaceOnUse" id="color-42"><stop offset="0" stop-color="#370000"/><stop offset="1" stop-color="#000000"/></radialGradient><radialGradient cx="217.19999" cy="223.18135" r="9.04433" gradientUnits="userSpaceOnUse" id="color-43"><stop offset="0" stop-color="#370000"/><stop offset="1" stop-color="#000000"/></radialGradient><radialGradient cx="227.46963" cy="227.7002" r="7.95389" gradientUnits="userSpaceOnUse" id="color-44"><stop offset="0" stop-color="#370000"/><stop offset="1" stop-color="#000000"/></radialGradient><radialGradient cx="223.61336" cy="221.92461" r="5.98601" gradientUnits="userSpaceOnUse" id="color-45"><stop offset="0" stop-color="#370000"/><stop offset="1" stop-color="#000000"/></radialGradient><radialGradient cx="222.6413" cy="226.15377" r="2.91978" gradientUnits="userSpaceOnUse" id="color-46"><stop offset="0" stop-color="#ff0000"/><stop offset="1" stop-color="#000000"/></radialGradient><linearGradient x1="111.7895" y1="397.7468" x2="187.4624" y2="397.7468" gradientUnits="userSpaceOnUse" id="color-1-,0,0,1,-133.02836,-0.51901"><stop offset="0" stop-color="#000000"/><stop offset="1" stop-color="#0e0e0e"/></linearGradient><linearGradient x1="149.4427" y1="419.9313" x2="149.4427" y2="430.9764" gradientUnits="userSpaceOnUse" id="color-2-,0,0,1,-133.02836,-0.51901"><stop offset="0" stop-color="#000000"/><stop offset="1" stop-color="#666666"/></linearGradient><linearGradient x1="129.7132" y1="384.5156" x2="129.7132" y2="423.4526" gradientUnits="userSpaceOnUse" id="color-3-,0,0,1,-133.02836,-0.51901"><stop offset="0" stop-color="#151515"/><stop offset="1" stop-color="#212121"/></linearGradient><linearGradient x1="160.7368" y1="387.7442" x2="160.7368" y2="404.3476" gradientUnits="userSpaceOnUse" id="color-4-,0,0,1,-133.02836,-0.51901"><stop offset="0" stop-color="#292929"/><stop offset="1" stop-color="#292929"/></linearGradient><linearGradient x1="13.0684" y1="373.6444" x2="78.6365" y2="405.3955" gradientUnits="userSpaceOnUse" id="color-5-,0,0,1,-133.02836,-0.51901"><stop offset="0" stop-color="#000000"/><stop offset="1" stop-color="#0e0e0e"/></linearGradient><linearGradient x1="36.0262" y1="409.6217" x2="31.531" y2="418.9048" gradientUnits="userSpaceOnUse" id="color-6-,0,0,1,-133.02836,-0.51901"><stop offset="0" stop-color="#000000"/><stop offset="1" stop-color="#666666"/></linearGradient><linearGradient x1="24.7939" y1="384.5937" x2="38.4665" y2="391.2146" gradientUnits="userSpaceOnUse" id="color-7-,0,0,1,-133.02836,-0.51901"><stop offset="0" stop-color="#151515"/><stop offset="1" stop-color="#212121"/></linearGradient><linearGradient x1="145.0866" y1="188.0827" x2="144.4668" y2="237.2988" gradientUnits="userSpaceOnUse" id="color-8-,0,0,1,-133.02836,-0.51901"><stop offset="0" stop-color="#ffffff"/><stop offset="1" stop-color="#cccccc"/></linearGradient><radialGradient cx="65.4791" cy="227.5007" r="3.3296" gradientUnits="userSpaceOnUse" id="color-9-,0,0,1,-133.02836,-0.51901"><stop offset="0" stop-color="#cccccc"/><stop offset="1" stop-color="#7f7f7f"/></radialGradient><radialGradient cx="63.0847" cy="230.0653" r="2.8773" gradientUnits="userSpaceOnUse" id="color-10-,0,0,1,-133.02836,-0.51901"><stop offset="0" stop-color="#cccccc"/><stop offset="1" stop-color="#7f7f7f"/></radialGradient><radialGradient cx="61.4172" cy="233.7978" r="3.5697" gradientUnits="userSpaceOnUse" id="color-11-,0,0,1,-133.02836,-0.51901"><stop offset="0" stop-color="#cccccc"/><stop offset="1" stop-color="#7f7f7f"/></radialGradient><radialGradient cx="62.7362" cy="237.6245" r="3.5697" gradientUnits="userSpaceOnUse" id="color-12-,0,0,1,-133.02836,-0.51901"><stop offset="0" stop-color="#cccccc"/><stop offset="1" stop-color="#7f7f7f"/></radialGradient><radialGradient cx="65.2843" cy="241.3474" r="3.3564" gradientUnits="userSpaceOnUse" id="color-13-,0,0,1,-133.02836,-0.51901"><stop offset="0" stop-color="#cccccc"/><stop offset="1" stop-color="#7f7f7f"/></radialGradient><radialGradient cx="66.3407" cy="245.4387" r="3.0905" gradientUnits="userSpaceOnUse" id="color-14-,0,0,1,-133.02836,-0.51901"><stop offset="0" stop-color="#cccccc"/><stop offset="1" stop-color="#7f7f7f"/></radialGradient><radialGradient cx="67.4052" cy="248.9018" r="3.5432" gradientUnits="userSpaceOnUse" id="color-15-,0,0,1,-133.02836,-0.51901"><stop offset="0" stop-color="#cccccc"/><stop offset="1" stop-color="#7f7f7f"/></radialGradient><radialGradient cx="67.7606" cy="253.3242" r="3.33" gradientUnits="userSpaceOnUse" id="color-16-,0,0,1,-133.02836,-0.51901"><stop offset="0" stop-color="#cccccc"/><stop offset="1" stop-color="#7f7f7f"/></radialGradient><radialGradient cx="68.3059" cy="257.3137" r="3.1167" gradientUnits="userSpaceOnUse" id="color-17-,0,0,1,-133.02836,-0.51901"><stop offset="0" stop-color="#cccccc"/><stop offset="1" stop-color="#7f7f7f"/></radialGradient><radialGradient cx="69.8724" cy="261.1437" r="3.7824" gradientUnits="userSpaceOnUse" id="color-18-,0,0,1,-133.02836,-0.51901"><stop offset="0" stop-color="#cccccc"/><stop offset="1" stop-color="#7f7f7f"/></radialGradient><radialGradient cx="72.7695" cy="264.4658" r="3.4101" gradientUnits="userSpaceOnUse" id="color-19-,0,0,1,-133.02836,-0.51901"><stop offset="0" stop-color="#cccccc"/><stop offset="1" stop-color="#7f7f7f"/></radialGradient><radialGradient cx="74.2658" cy="267.6252" r="3.7565" gradientUnits="userSpaceOnUse" id="color-20-,0,0,1,-133.02836,-0.51901"><stop offset="0" stop-color="#cccccc"/><stop offset="1" stop-color="#7f7f7f"/></radialGradient><radialGradient cx="69.4333" cy="221.3585" r="5.6308" gradientUnits="userSpaceOnUse" id="color-21-,0,0,1,-133.02836,-0.51901"><stop offset="0" stop-color="#cccccc"/><stop offset="1" stop-color="#7f7f7f"/></radialGradient><radialGradient cx="78.8942" cy="223.8715" r="3.3296" gradientUnits="userSpaceOnUse" id="color-22-,0,0,1,-133.02836,-0.51901"><stop offset="0" stop-color="#cccccc"/><stop offset="1" stop-color="#7f7f7f"/></radialGradient><radialGradient cx="80.6655" cy="227.9958" r="3.3296" gradientUnits="userSpaceOnUse" id="color-23-,0,0,1,-133.02836,-0.51901"><stop offset="0" stop-color="#cccccc"/><stop offset="1" stop-color="#7f7f7f"/></radialGradient><radialGradient cx="81.3676" cy="232.5624" r="3.3296" gradientUnits="userSpaceOnUse" id="color-24-,0,0,1,-133.02836,-0.51901"><stop offset="0" stop-color="#cccccc"/><stop offset="1" stop-color="#7f7f7f"/></radialGradient><radialGradient cx="81.3044" cy="237.5752" r="3.3296" gradientUnits="userSpaceOnUse" id="color-25-,0,0,1,-133.02836,-0.51901"><stop offset="0" stop-color="#cccccc"/><stop offset="1" stop-color="#7f7f7f"/></radialGradient><radialGradient cx="81.3969" cy="242.286" r="3.3296" gradientUnits="userSpaceOnUse" id="color-26-,0,0,1,-133.02836,-0.51901"><stop offset="0" stop-color="#cccccc"/><stop offset="1" stop-color="#7f7f7f"/></radialGradient><radialGradient cx="81.0319" cy="247.143" r="3.3296" gradientUnits="userSpaceOnUse" id="color-27-,0,0,1,-133.02836,-0.51901"><stop offset="0" stop-color="#cccccc"/><stop offset="1" stop-color="#7f7f7f"/></radialGradient><radialGradient cx="80.3651" cy="251.8442" r="3.3296" gradientUnits="userSpaceOnUse" id="color-28-,0,0,1,-133.02836,-0.51901"><stop offset="0" stop-color="#cccccc"/><stop offset="1" stop-color="#7f7f7f"/></radialGradient><radialGradient cx="80.0057" cy="256.2456" r="3.3296" gradientUnits="userSpaceOnUse" id="color-29-,0,0,1,-133.02836,-0.51901"><stop offset="0" stop-color="#cccccc"/><stop offset="1" stop-color="#7f7f7f"/></radialGradient><radialGradient cx="79.4889" cy="261.1008" r="3.3296" gradientUnits="userSpaceOnUse" id="color-30-,0,0,1,-133.02836,-0.51901"><stop offset="0" stop-color="#cccccc"/><stop offset="1" stop-color="#7f7f7f"/></radialGradient><radialGradient cx="78.0604" cy="265.9445" r="3.3296" gradientUnits="userSpaceOnUse" id="color-31-,0,0,1,-133.02836,-0.51901"><stop offset="0" stop-color="#cccccc"/><stop offset="1" stop-color="#7f7f7f"/></radialGradient><radialGradient cx="76.2048" cy="281.2209" r="3.4101" gradientUnits="userSpaceOnUse" id="color-32-,0,0,1,-133.02836,-0.51901"><stop offset="0" stop-color="#cccccc"/><stop offset="1" stop-color="#7f7f7f"/></radialGradient><radialGradient cx="75.7167" cy="285.115" r="3.7565" gradientUnits="userSpaceOnUse" id="color-33-,0,0,1,-133.02836,-0.51901"><stop offset="0" stop-color="#cccccc"/><stop offset="1" stop-color="#7f7f7f"/></radialGradient><radialGradient cx="76.8545" cy="289.3258" r="3.3296" gradientUnits="userSpaceOnUse" id="color-34-,0,0,1,-133.02836,-0.51901"><stop offset="0" stop-color="#cccccc"/><stop offset="1" stop-color="#7f7f7f"/></radialGradient><linearGradient x1="160.8602" y1="244.2103" x2="159.3575" y2="276.416" gradientUnits="userSpaceOnUse" id="color-35-,0,0,1,-133.02836,-0.51901"><stop offset="0" stop-color="#ff0000"/><stop offset="1" stop-color="#ff0000" stop-opacity="0"/></linearGradient><linearGradient x1="155.1942" y1="243.9834" x2="160.8621" y2="244.0548" gradientUnits="userSpaceOnUse" id="color-36-,0,0,1,-133.02836,-0.51901"><stop offset="0" stop-color="#ff0000"/><stop offset="1" stop-color="#ff0000" stop-opacity="0"/></linearGradient><linearGradient x1="119.8322" y1="216.3608" x2="103.4062" y2="215.7499" gradientUnits="userSpaceOnUse" id="color-37-,0,0,1,-133.02836,-0.51901"><stop offset="0" stop-color="#7f7f7f"/><stop offset="1" stop-color="#b2b2b2"/></linearGradient><linearGradient x1="121.5414" y1="227.4385" x2="109.6929" y2="227.2893" gradientUnits="userSpaceOnUse" id="color-38-,0,0,1,-133.02836,-0.51901"><stop offset="0" stop-color="#000000"/><stop offset="1" stop-color="#353935"/></linearGradient><linearGradient x1="99.4882" y1="227.1607" x2="110.1213" y2="227.2947" gradientUnits="userSpaceOnUse" id="color-39-,0,0,1,-133.02836,-0.51901"><stop offset="0" stop-color="#000000"/><stop offset="1" stop-color="#353935"/></linearGradient><radialGradient cx="86.8882" cy="220.4616" r="26.6675" gradientUnits="userSpaceOnUse" id="color-40-,0,0,1,-133.02836,-0.51901"><stop offset="0" stop-color="#666666"/><stop offset="1" stop-color="#000000"/></radialGradient><radialGradient cx="85.202" cy="229.2902" r="11.4601" gradientUnits="userSpaceOnUse" id="color-41-,0,0,1,-133.02836,-0.51901"><stop offset="0" stop-color="#370000"/><stop offset="1" stop-color="#000000"/></radialGradient><radialGradient cx="90.3206" cy="233.0853" r="9.7747" gradientUnits="userSpaceOnUse" id="color-42-,0,0,1,-133.02836,-0.51901"><stop offset="0" stop-color="#370000"/><stop offset="1" stop-color="#000000"/></radialGradient><radialGradient cx="84.1716" cy="222.6623" r="9.0443" gradientUnits="userSpaceOnUse" id="color-43-,0,0,1,-133.02836,-0.51901"><stop offset="0" stop-color="#370000"/><stop offset="1" stop-color="#000000"/></radialGradient><radialGradient cx="94.4413" cy="227.1812" r="7.9539" gradientUnits="userSpaceOnUse" id="color-44-,0,0,1,-133.02836,-0.51901"><stop offset="0" stop-color="#370000"/><stop offset="1" stop-color="#000000"/></radialGradient><radialGradient cx="90.585" cy="221.4056" r="5.986" gradientUnits="userSpaceOnUse" id="color-45-,0,0,1,-133.02836,-0.51901"><stop offset="0" stop-color="#370000"/><stop offset="1" stop-color="#000000"/></radialGradient><radialGradient cx="89.6129" cy="225.6348" r="2.9198" gradientUnits="userSpaceOnUse" id="color-46-,0,0,1,-133.02836,-0.51901"><stop offset="0" stop-color="#ff0000"/><stop offset="1" stop-color="#000000"/></radialGradient></defs><g><g data-paper-data="{&quot;isPaintingLayer&quot;:true}" fill-rule="nonzero" stroke-linejoin="miter" stroke-miterlimit="10" stroke-dasharray="" stroke-dashoffset="0" style="mix-blend-mode: normal"><g><g><path d="M 166.1969 168.9953 C 158.5249 170.2625 156.1568 153.2905 158.6179 145.5335 C 161.9343 135.1028 173.8398 130.1158 181.1694 121.6213 C 189.0415 112.5251 193.7114 98.9764 204.7928 94.2766 C 212.0165 91.2257 226.0748 94.1083 226.0347 101.4276 C 226.5936 115.0272 214.7651 126.3106 205.8401 136.3443 C 194.5076 149.087 182.136 165.6678 166.1969 168.9953 Z " data-paper-data="{&quot;origRot&quot;:0}" fill="#000000" stroke="#000000" stroke-linecap="round" stroke-width="2.5"/><g data-paper-data="{&quot;origRot&quot;:0}"><path d="M 217.0712 114.9397 C 213.8954 117.598 206.4327 117.0576 205.4798 113.3915 C 203.0455 105.3484 208.3429 96.9746 209.5304 88.8766 C 210.0636 85.2551 209.2298 81.3357 209.9441 77.8839 C 210.916 73.1938 210.4499 66.3829 214.8095 64.3344 C 219.3686 62.1767 224.8076 66.7815 229.1502 69.3956 C 232.802 71.5957 237.4742 74.3549 238.893 78.5581 C 239.6781 81.9063 236.649 85.2746 234.5943 88.0789 C 232.4124 91.058 227.9506 92.0413 225.8978 95.1555 C 221.9434 101.1669 222.5752 110.2857 217.0712 114.9398 Z " fill="#ffffff" stroke="#ffffff" stroke-linecap="round" stroke-width="2.5"/><path d="M 210.3976 86.8609 C 210.3976 86.8609 205.2234 81.329 203.8071 77.9079 C 202.417 74.5517 201.7714 70.7691 201.8486 67.1313 C 202.1643 64.3457 202.8245 61.0509 204.9543 59.2762 C 206.6962 57.8346 209.5103 58.9973 211.756 59.2086 C 212.4361 59.2721 213.4215 60.4014 213.4215 60.4014 " fill="none" stroke="#353935" stroke-linecap="round" stroke-width="2.5"/><path d="M 202.6269 74.2431 C 201.9939 68.8834 202.8041 63.2343 205.8175 59.091 C 207.0017 56.9616 212.0711 57.1992 212.705 59.1853 C 213.6606 62.2361 209.2671 65.2888 209.3877 68.6024 C 209.4888 71.2674 211.9613 73.2195 212.5794 75.8271 C 213.4468 77.6276 213.978 79.6308 213.7933 81.6756 C 213.6752 83.0849 213.4591 85.101 212.3862 85.6673 C 211.3136 86.2335 209.2733 85.5949 208.2968 84.5771 C 205.6256 81.785 203.0666 78.1464 202.6269 74.2431 Z " fill="#353935" stroke="none" stroke-linecap="round" stroke-width="2.5"/><path d="M 220.472 88.9278 C 218.0818 88.4685 215.8936 86.8665 214.0447 84.807 C 212.7102 83.6478 211.0356 82.0352 211.1516 79.491 C 211.3434 76.1043 212.2985 70.9265 214.7712 69.8163 C 218.0399 68.3571 220.8507 71.8661 223.7053 73.3825 C 227.0623 75.2075 232.3304 75.3005 234.0484 79.7487 C 235.0479 82.3921 231.0021 86.5924 228.5711 88.3269 C 225.9917 90.168 223.0544 89.4557 220.472 88.9278 Z " fill="#000000" stroke="none" stroke-linecap="round" stroke-width="2.5"/><g stroke-linecap="round"><path d="M 208.331 73.7552 C 207.4963 71.0116 209.6755 67.3639 210.7711 64.418 C 211.8422 61.5752 212.5352 57.8476 214.6879 56.2168 C 216.568 54.7938 219.6515 55.1397 220.402 57.2859 C 221.3127 59.8949 219.6194 63.6204 218.6682 66.679 C 217.496 69.904 216.601 74.2254 214.109 75.8499 C 211.9917 77.2308 208.9785 76.0887 208.331 73.7552 Z " stroke-width="2.5" fill="#353935" stroke="none"/><path d="M 215.3296 76.579 C 214.495 73.8354 216.6741 70.1877 217.7697 67.2418 C 218.8409 64.3989 219.5338 60.6713 221.6865 59.0406 C 223.5666 57.6176 226.6502 57.9635 227.4006 60.1097 C 228.3114 62.7187 226.6181 66.4442 225.6668 69.5027 C 224.4947 72.7278 223.5996 77.0492 221.1076 78.6737 C 218.9903 80.0546 215.9771 78.9125 215.3296 76.579 Z " stroke-width="2.5" fill="#353935" stroke="none"/><path d="M 222.7391 79.5289 C 221.9045 76.7853 224.0837 73.1375 225.1793 70.1916 C 226.2504 67.3488 226.9433 63.6212 229.096 61.9904 C 230.9761 60.5675 234.0597 60.9133 234.8101 63.0595 C 235.7209 65.6685 234.0276 69.3941 233.0763 72.4526 C 231.9042 75.6777 231.0092 79.999 228.5172 81.6235 C 226.3998 83.0045 223.3866 81.8624 222.7392 79.5289 Z " stroke-width="2.5" fill="#353935" stroke="none"/><path d="M 230.7405 81.6493 C 229.9059 78.9057 232.085 75.2579 233.1806 72.312 C 234.2518 69.4692 234.9447 65.7416 237.0974 64.1108 C 238.9775 62.6879 242.0611 63.0337 242.8115 65.18 C 243.7223 67.7889 242.029 71.5145 241.0777 74.573 C 239.9056 77.7981 239.0105 82.1194 236.5185 83.7439 C 234.4012 85.1249 231.388 83.9828 230.7405 81.6493 Z " stroke-width="2.5" fill="#353935" stroke="none"/></g><path d="" fill="#eac18d" stroke="none" stroke-linecap="butt" stroke-width="2.5" transform="matrix(1,0,0,1,-133.02836,-0.51901)"/></g><path d="M 135.8742 91.5229 C 137.1107 86.374 147.1825 83.8552 151.312 87.76 C 160.1053 96.1626 160.6946 110.3945 165.9947 121.1488 C 171.6359 133.7456 185.3897 144.3305 184.0977 157.9014 C 183.3024 166.1164 167.8649 171.7109 160.1407 167.3576 C 149.184 161.0421 145.5356 146.1159 141.2768 133.4395 C 136.805 120.097 132.5037 105.1804 135.8742 91.5228 Z " data-paper-data="{&quot;origRot&quot;:0}" fill="#000000" stroke="#000000" stroke-linecap="round" stroke-width="2.5"/><path d="M 181.2476 162.6113 C 176.0785 166.7347 166.9853 170.6947 160.5273 167.5306 C 155.7089 164.5431 155.4356 155.1721 158.0411 149.9504 C 163.1222 139.7847 175.6734 135.2631 182.3736 125.9961 C 189.7372 116.8671 191.2358 103.4564 199.8113 95.3116 C 203.9542 91.3925 211.6546 92.7037 216.9417 94.8544 C 221.0845 96.5441 226.4534 101.3773 226.1218 106.2218 C 225.6767 112.7135 220.5427 118.4138 216.3082 123.4901 C 205.2047 136.8129 194.9135 151.6937 181.2477 162.6114 Z " data-paper-data="{&quot;origRot&quot;:0}" fill="#ffffff" stroke="none" stroke-linecap="round" stroke-width="2.5"/><path d="M 135.1272 93.306 C 136.1251 88.0444 145.1524 81.0142 148.7771 84.7894 C 156.9486 93.3112 154.5101 107.8501 159.7887 118.6012 C 165.6327 131.7162 181.4004 141.5228 181.9501 155.9735 C 182.2424 163.8212 167.7058 171.5181 161.157 166.8965 C 148.8425 159.0949 145.087 142.5217 140.0456 128.3731 C 136.0938 117.2651 132.9553 104.7664 135.1272 93.306 Z " data-paper-data="{&quot;origRot&quot;:0}" fill="#ffffff" stroke="none" stroke-linecap="round" stroke-width="2.5"/></g><path d="M 137.0807 326.5004 C 144.0629 318.8773 164.8312 311.1069 166.9512 320.8419 C 173.4777 350.9839 169.4708 385.0569 156.3137 412.8565 C 151.6639 422.7005 128.8822 419.6577 123.738 410.0461 C 115.8582 394.6494 125.4918 378.2769 128.0483 362.6306 C 130.0781 350.15 128.6862 335.3903 137.0807 326.5004 Z " data-paper-data="{&quot;origPos&quot;:null,&quot;origRot&quot;:0}" fill="#ffffff" stroke="#000000" stroke-linecap="round" stroke-width="2.5"/><path d="M 107.7535 235.4441 L 148.0057 234.2507 C 148.0057 234.2507 161.1788 251.7141 165.2312 272.8918 C 168.2974 288.9161 170.1764 322.5152 170.1764 322.5152 L 131.6715 318.1305 C 131.6715 318.1305 120.6773 282.3718 117.0877 275.4238 C 106.319 254.5795 107.7536 235.4441 107.7536 235.4441 Z " data-paper-data="{&quot;origRot&quot;:0}" fill="#ffffff" stroke="#000000" stroke-linecap="round" stroke-width="2.5"/><g data-paper-data="{&quot;origPos&quot;:null}"><path d="M 113.0783 429.4375 C 110.8334 428.699 112.1869 425.3511 112.2649 423.2558 C 113.2833 414.5949 113.8664 406.0445 115.5811 397.5528 C 116.7458 391.794 119.3778 373.5473 125.2791 365.5053 C 128.7078 360.8331 126.2031 380.3838 131.7862 383.3998 C 142.0089 388.9439 155.5274 384.0766 166.4365 387.7921 C 169.163 388.7194 163.44 402.2476 165.9485 404.0599 C 171.4958 408.0585 180.648 404.7203 185.4698 409.4282 C 188.6485 412.5321 187.206 418.6846 186.6529 423.2558 C 186.3373 425.8554 185.1297 429.2897 185.1297 429.2897 C 185.1297 429.2897 122.0387 432.3755 113.0784 429.4375 Z " data-paper-data="{&quot;origPos&quot;:null}" fill="url(#color-1-,0,0,1,-133.02836,-0.51901)" stroke-linecap="round" stroke-width="2.5" stroke="none"/><path d="M 113.4504 429.5959 C 110.1762 427.5092 113.1715 419.9314 113.1715 419.9314 C 113.1715 419.9314 126.1834 422.5526 140.3915 423.1279 C 156.0216 423.7607 186.9662 423.027 186.9662 423.027 C 186.9662 423.027 186.609 429.3987 183.8945 429.8224 C 181.1799 430.2461 156.1359 431.4609 140.0422 430.7662 C 131.2644 430.3888 115.841 431.1194 113.4504 429.5958 Z " data-paper-data="{&quot;origPos&quot;:null}" fill="url(#color-2-,0,0,1,-133.02836,-0.51901)" stroke-linecap="round" stroke-width="2.5" stroke="none"/><g data-paper-data="{&quot;origPos&quot;:null}" stroke-linecap="butt"><g data-paper-data="{&quot;origPos&quot;:null}"><path d="M 122.5789 423.0449 C 122.5789 423.0449 126.9673 412.7291 128.3154 405.8751 C 129.9548 397.5408 133.9259 384.5196 133.9259 384.5196 C 133.9259 384.5196 134.4613 384.4723 135.0214 384.703 C 135.8136 385.0291 136.8475 385.9465 136.8475 385.9465 L 127.1312 423.4526 Z " data-paper-data="{&quot;origPos&quot;:null}" fill="url(#color-3-,0,0,1,-133.02836,-0.51901)" stroke-width="2.5" stroke="none"/><path d="M 130.3682 403.6452 C 130.6571 403.7491 130.6192 404.007 130.5983 404.0907 C 130.6669 404.3054 130.7302 404.5117 130.759 404.7373 C 131.0357 406.9044 131.1191 407.5603 129.4962 408.9694 C 128.4556 409.8492 130.1072 409.7145 129.7951 411.1622 C 129.7309 411.4602 128.6615 412.0423 128.4319 412.3074 C 127.0512 413.8553 129.1967 414.4302 127.6641 416.1992 C 126.7012 417.2787 125.049 418.0348 126.6632 419.4333 C 127.0944 420.9022 124.8274 421.452 123.9771 422.4335 C 123.9771 422.4335 123.7355 422.7124 123.4566 422.4708 C 123.1777 422.2292 123.4193 421.9502 123.4193 421.9502 C 123.983 421.2995 125.8392 420.001 126.1408 419.9569 C 124.2659 418.2944 126.0319 417.0185 127.1063 415.7159 C 128.1638 414.4954 126.5309 413.4527 127.8741 411.8242 C 128.156 411.4987 128.7721 410.7819 129.1311 410.4969 C 128.6919 410.2362 127.9601 409.3645 129.0123 408.4122 C 129.9492 407.5987 130.1841 406.0616 130.027 404.8308 C 130.0007 404.6252 129.9436 404.4661 129.8804 404.2687 L 129.8961 403.8676 C 129.8961 403.8676 130.021 403.5204 130.3682 403.6453 Z " data-paper-data="{&quot;origPos&quot;:null,&quot;origRot&quot;:0}" fill="#000000" stroke-width="2.5" stroke="none"/><path d="M 130.5979 405.4859 C 130.3024 405.4026 130.3221 405.1427 130.337 405.0578 C 130.2534 404.8484 130.1757 404.6471 130.1311 404.4241 C 129.7027 402.2818 129.5733 401.6334 131.0931 400.1136 C 132.0692 399.1627 130.4312 399.4133 130.6406 397.9472 C 130.6837 397.6455 131.7094 396.9896 131.9199 396.709 C 133.1882 395.0677 131.0076 394.6452 132.4119 392.7728 C 133.2964 391.6282 134.8913 390.7577 133.1827 389.4762 C 132.6492 388.0413 134.872 387.3333 135.651 386.2944 C 135.651 386.2944 135.8724 385.9992 136.1677 386.2206 C 136.4629 386.442 136.2415 386.7373 136.2415 386.7373 C 135.7249 387.426 133.9647 388.8519 133.6669 388.9172 C 135.6542 390.4436 133.9824 391.8406 133.0023 393.2156 C 132.0334 394.5075 133.7356 395.4327 132.5103 397.1517 C 132.2519 397.4962 131.6879 398.2546 131.3498 398.5642 C 131.8063 398.7933 132.5976 399.6114 131.615 400.6355 C 130.7376 401.5129 130.6115 403.0627 130.8549 404.2794 C 130.8955 404.4826 130.9637 404.6373 131.0407 404.8297 L 131.0532 405.2309 C 131.0532 405.2309 130.953 405.5861 130.5979 405.4859 Z " data-paper-data="{&quot;origPos&quot;:null,&quot;index&quot;:null}" fill="#000000" stroke-width="2.5" stroke="none"/></g><path d="M 128.2863 389.1622 L 133.9938 383.9303 L 136.5304 385.0401 L 133.0425 391.5403 Z " data-paper-data="{&quot;origPos&quot;:null}" fill="#333333" stroke-width="2.5" stroke="none"/></g><g data-paper-data="{&quot;origPos&quot;:null}" stroke-linecap="butt"><path d="M 164.3046 402.8288 C 164.3066 402.9001 164.3002 402.9636 164.2872 403.0201 C 164.3506 403.1091 164.4015 403.236 164.4243 403.4164 C 164.5143 404.1289 163.9846 404.25 163.9846 404.25 C 161.8566 404.7364 159.4271 403.2119 157.371 403.9015 C 157.259 403.9271 157.147 403.9527 157.035 403.9783 L 156.4763 403.94 C 156.3636 403.9552 156.2275 403.9298 156.1077 403.7854 C 156.0242 403.704 155.9504 403.5792 155.9236 403.3877 C 155.8817 403.2011 155.9045 403.0446 155.9506 402.9207 C 156.0084 402.7149 156.1231 402.6078 156.2299 402.5522 C 157.375 401.6832 158.4155 400.7073 159.5076 399.7589 C 159.1061 399.3058 158.7338 398.8341 158.4123 398.3431 L 157.8924 398.2894 C 157.5965 398.2588 157.375 397.9114 157.3977 397.5134 C 157.4122 397.2593 157.5228 397.046 157.6778 396.933 L 158.1905 396.5461 L 158.2181 396.6124 C 158.6154 396.3401 159.1775 395.6807 159.788 394.9654 C 159.362 394.6543 158.9414 394.3172 158.4993 394.0905 L 158.4987 394.0926 L 157.8626 393.8076 C 157.6282 393.7101 157.4664 393.4047 157.486 393.0618 C 157.5006 392.8077 157.6111 392.5944 157.7661 392.4813 L 158.2788 392.0945 L 158.3805 392.3383 C 158.6679 391.8846 159.0513 391.4771 159.4894 391.1133 C 158.906 390.5569 158.4047 389.9963 158.0954 389.5111 C 158.2295 387.205 162.4449 387.3566 164.2913 388.8173 L 164.4652 388.7776 L 164.5575 388.405 L 165.1936 388.6901 C 165.4281 388.7876 165.5898 389.093 165.5702 389.4359 C 165.5506 389.7789 165.3561 390.0475 165.1134 390.0957 C 164.9658 390.1294 164.6899 390.1925 164.4523 390.2468 C 164.318 390.2775 164.1959 390.3054 164.1162 390.3236 C 163.5327 390.3042 162.7123 390.8253 161.864 391.4159 C 162.4743 391.8614 163.0582 392.2245 163.4989 392.422 L 163.8116 392.5622 C 164.0461 392.6596 164.2078 392.9651 164.1883 393.308 C 164.1655 393.706 163.9072 394.0038 163.6113 393.9733 L 162.9519 393.9051 L 162.9538 393.8711 C 162.7179 394.145 162.4503 394.4269 162.1641 394.7107 C 164.8636 396.1738 164.6262 397.4486 161.6777 399.6739 C 161.6384 399.7035 161.5992 399.7334 161.5602 399.7632 C 162.4293 400.6863 163.2527 401.6195 163.7269 401.9796 L 164.044 402.2354 C 164.044 402.2354 164.285 402.1066 164.3046 402.8288 Z M 160.4044 400.7015 C 159.7459 401.2619 159.1063 401.8414 158.4604 402.4059 C 159.9227 402.4789 161.4095 402.9846 162.8632 402.941 C 162.0918 402.2555 161.2234 401.5108 160.4044 400.7015 Z M 162.7804 396.6713 C 162.2081 396.4179 161.5304 395.9908 161.0758 395.7302 C 160.3358 396.3928 159.5783 397.025 158.9757 397.5456 C 159.421 397.7099 160.0123 398.2059 160.6356 398.8145 C 160.8053 398.679 160.9772 398.5451 161.1519 398.4132 C 161.5958 398.0782 162.2348 397.2509 162.7804 396.6713 Z M 161.7413 389.7376 C 160.8305 389.6729 159.9424 389.4678 159.4 389.2122 C 159.7239 389.5863 160.1248 389.981 160.5564 390.3632 C 160.9436 390.1299 161.345 389.9218 161.7413 389.7376 Z M 161.7122 392.9312 C 161.3949 392.7096 161.0655 392.4627 160.7381 392.2009 C 160.1848 392.5732 159.6599 392.8838 159.2249 392.9944 C 159.7046 393.3148 160.1718 393.6813 160.6603 393.964 C 161.0199 393.5673 161.3777 393.2025 161.7122 392.9312 Z " data-paper-data="{&quot;origPos&quot;:null,&quot;origRot&quot;:0}" fill="url(#color-4-,0,0,1,-133.02836,-0.51901)" stroke-width="2.5" stroke="none"/><path d="M 165.5041 406.0763 C 165.282 406.1747 165.1016 406.1654 164.9598 406.1097 L 164.9889 406.1383 C 162.0454 406.1383 159.2282 406.277 156.3629 405.5607 C 151.8411 404.4303 155.8155 399.3817 155.8155 396.5201 C 156.027 393.6015 156.705 390.904 156.705 387.847 C 156.705 387.847 156.705 387.1243 157.4278 387.1243 C 158.1505 387.1243 158.1505 387.847 158.1505 387.847 C 158.1505 389.9625 156.7909 394.9165 157.261 396.5201 C 157.261 399.4851 153.9671 403.4718 156.7135 404.1584 C 159.4593 404.8449 162.1614 404.6928 164.9889 404.6928 L 165.8721 405.1228 C 165.8721 405.1228 166.1648 405.7836 165.504 406.0763 Z " data-paper-data="{&quot;origPos&quot;:null}" fill="#1a1a1a" stroke-width="2.5" stroke="none"/></g></g><g data-paper-data="{&quot;origPos&quot;:null}" stroke-linecap="round"><path d="M 171.9973 320.5641 C 173.4111 327.6878 172.8003 338.6104 165.9988 341.7286 C 155.6053 346.7307 141.5686 345.4051 131.0858 339.8915 C 126.1797 337.2455 130.5489 328.7418 130.4719 323.1674 C 130.8315 318.5032 128.031 311.7803 131.9359 309.2152 C 139.7302 304.0969 150.7442 302.1386 159.3652 304.6896 C 166.2003 306.5191 170.6864 313.974 171.9973 320.5641 Z " data-paper-data="{&quot;origPos&quot;:null}" fill="#666666" stroke="#000000" stroke-width="2.5"/><path d="M 171.0274 321.0251 C 172.1763 326.8131 171.6801 335.6875 166.154 338.221 C 157.7096 342.2847 146.3049 341.2077 137.788 336.7283 C 133.802 334.5785 137.3519 327.6693 137.2891 323.1402 C 137.5814 319.3509 135.306 313.8886 138.4785 311.8043 C 144.8115 307.6461 153.7598 306.0548 160.7643 308.1276 C 166.3176 309.614 169.9626 315.671 171.0274 321.0251 Z " data-paper-data="{&quot;origPos&quot;:null}" fill="#ffffff" stroke="none" stroke-width="2.5"/></g><path d="M 90.7508 323.2434 C 99.8673 321.5717 116.3851 332.2889 112.7535 341.3659 C 102.2508 367.5684 81.2373 391.0246 56.7452 405.0241 C 47.0928 410.5362 26.0064 400.3961 26.191 389.534 C 26.4774 374.0754 45.2361 363.225 56.4054 351.5462 C 66.3673 341.1827 75.9507 325.8927 90.7508 323.2434 Z " fill="#ffffff" stroke="#000000" stroke-linecap="round" stroke-width="2.5"/><path d="M 73.1207 230.9234 C 73.1207 230.9234 110.2296 209.7706 118.0208 228.3517 C 125.8121 246.9327 126.6461 300.7527 115.9547 333.0773 C 112.5325 343.4165 90.7558 343.8498 83.2209 335.9079 C 74.125 325.8455 77.9889 314.0019 77.9889 314.0019 C 77.9889 314.0019 78.2487 283.5992 77.0727 271.6023 C 75.3047 252.919 73.1207 230.9234 73.1207 230.9234 Z " data-paper-data="{&quot;origRot&quot;:0}" fill="#ffffff" stroke="#000000" stroke-linecap="round" stroke-width="2.5"/><g><path d="M 0.1701 402.286 C -1.101 400.224 5.0759 392.0881 7.929 389.0433 C 14.1503 382.4003 20.7503 375.3367 27.8873 369.7717 C 34.9665 364.2529 42.8667 355.8276 50.3923 355.5504 C 53.4797 355.4355 41.5592 365.8799 44.5067 370.1313 C 51.1188 379.6594 65.2786 380.6796 73.6815 389.1553 C 75.7818 391.2733 63.2885 400.8133 63.6292 404.6562 C 64.038 409.0377 70.9246 410.8487 71.6465 415.1976 C 72.3979 419.7214 69.4963 424.0548 67.5528 428.1003 C 66.5506 430.1218 62.5576 432.732 62.5576 432.732 C 62.5576 432.732 35.2872 421.2264 22.0435 414.0925 C 14.8196 410.2028 1.5593 404.5395 0.1701 402.286 Z " data-paper-data="{&quot;origPos&quot;:null}" fill="url(#color-5-,0,0,1,-133.02836,-0.51901)" stroke-linecap="round" stroke-width="2.5" stroke="none"/><path d="M 0.7236 402.554 C -1.179 399.4676 4.4226 394.3178 4.4226 394.3178 C 4.4226 394.3178 14.2919 401.8167 25.9993 408.0828 C 38.8785 414.9761 67.4227 428.0373 67.4227 428.0373 C 67.4227 428.0373 63.2862 432.6452 60.8323 431.8965 C 58.3783 431.1478 35.8406 421.4944 22.597 414.3605 C 15.3731 410.4708 2.1127 404.8075 0.7236 402.554 Z " data-paper-data="{&quot;origPos&quot;:null}" fill="url(#color-6-,0,0,1,-133.02836,-0.51901)" stroke-linecap="round" stroke-width="2.5" stroke="none"/><g data-paper-data="{&quot;origPos&quot;:null}" stroke-linecap="butt"><g data-paper-data="{&quot;origPos&quot;:null}"><path d="M 15.9493 402.8583 C 15.9493 402.8583 24.9411 395.0096 29.4134 389.0675 C 34.8515 381.8421 44.6988 371.2074 44.6988 371.2074 C 44.6988 371.2074 45.2338 371.4105 45.6636 371.8914 C 46.2713 372.5716 46.8364 373.9304 46.8364 373.9304 L 20.1224 405.3613 Z " data-paper-data="{&quot;origPos&quot;:null}" fill="url(#color-7-,0,0,1,-133.02836,-0.51901)" stroke-width="2.5" stroke="none"/><path d="M 32.4151 387.8833 C 32.6437 388.1169 32.4878 388.3464 32.4289 388.4169 C 32.395 388.6545 32.36 388.8816 32.2829 389.1111 C 31.5424 391.316 31.318 391.9833 29.109 392.5804 C 27.7037 392.9407 29.3487 393.5779 28.3779 394.8204 C 28.1781 395.0761 26.8833 395.1377 26.5402 395.2851 C 24.499 396.1278 26.2881 397.6742 23.9987 398.6581 C 22.5751 399.2457 20.641 399.2037 21.5389 401.2927 C 21.2705 402.9004 18.843 402.3753 17.5729 402.9212 C 17.5729 402.9212 17.2119 403.0763 17.0568 402.7154 C 16.9016 402.3544 17.2626 402.1993 17.2626 402.1993 C 18.1047 401.8373 20.4859 401.4543 20.7954 401.552 C 19.7702 399.089 22.0545 398.6859 23.6884 397.9362 C 25.2681 397.2573 24.1872 395.5005 26.23 394.5632 C 26.6512 394.3822 27.5741 393.9813 28.0504 393.8747 C 27.7505 393.4211 27.4537 392.2462 28.9039 391.8219 C 30.1792 391.4771 31.1175 390.1132 31.538 388.8609 C 31.6083 388.6518 31.6274 388.4727 31.6584 388.2543 L 31.8596 387.8773 C 31.8596 387.8773 32.1403 387.6025 32.4151 387.8832 Z " data-paper-data="{&quot;origPos&quot;:null,&quot;origRot&quot;:0}" fill="#000000" stroke-width="2.5" stroke="none"/><path d="M 31.7811 389.7536 C 31.5365 389.5367 31.676 389.2969 31.7297 389.2224 C 31.7468 388.983 31.7658 388.7539 31.8265 388.5196 C 32.41 386.268 32.5869 385.5866 34.7485 384.8355 C 36.125 384.3773 34.4391 383.8573 35.3201 382.5497 C 35.5014 382.2805 36.7886 382.128 37.1205 381.9568 C 39.0974 380.9726 37.2039 379.5559 39.4184 378.4133 C 40.7971 377.7269 42.7293 377.6329 41.6867 375.6121 C 41.8413 373.9896 44.2997 374.3425 45.5283 373.7086 C 45.5283 373.7086 45.8774 373.5285 46.0576 373.8776 C 46.2378 374.2268 45.8886 374.4069 45.8886 374.4069 C 45.074 374.8272 42.7257 375.3768 42.4101 375.3012 C 43.6061 377.686 41.3558 378.2488 39.7787 379.1116 C 38.2508 379.9 39.4526 381.5764 37.4808 382.6551 C 37.0734 382.8652 36.181 383.3302 35.7133 383.47 C 36.0444 383.9014 36.4231 385.0525 35.0063 385.5778 C 33.7585 386.0114 32.9185 387.438 32.5871 388.7168 C 32.5317 388.9304 32.5253 389.1103 32.5098 389.3303 L 32.3356 389.7206 C 32.3356 389.7206 32.0749 390.0145 31.781 389.7537 Z " data-paper-data="{&quot;origPos&quot;:null,&quot;index&quot;:null}" fill="#000000" stroke-width="2.5" stroke="none"/></g><path d="M 37.1406 373.0392 L 45.0374 370.6743 L 46.9531 372.9147 L 40.5947 377.5249 Z " data-paper-data="{&quot;origPos&quot;:null}" fill="#333333" stroke-width="2.5" stroke="none"/></g><g data-paper-data="{&quot;origPos&quot;:null}" stroke-linecap="butt"><path d="M 63.6938 404.024 C 63.663 404.0923 63.6279 404.1494 63.5897 404.197 C 63.6089 404.3102 63.5989 404.4536 63.5379 404.6345 C 63.2967 405.3498 62.7401 405.2216 62.7401 405.2216 C 60.5046 404.707 58.9049 402.1523 56.6442 401.8628 C 56.5265 401.8357 56.4088 401.8086 56.2911 401.7815 L 55.7802 401.4894 C 55.6666 401.4522 55.5496 401.3658 55.5024 401.1743 C 55.4608 401.0592 55.4481 400.9073 55.5104 400.7139 C 55.5563 400.5182 55.6495 400.3806 55.7499 400.2845 C 55.8988 400.1164 56.0564 400.0677 56.1828 400.0639 C 57.6641 399.7665 59.0952 399.32 60.5625 398.9232 C 60.3904 398.3107 60.2543 397.694 60.175 397.0823 L 59.7078 396.7934 C 59.4419 396.6289 59.3916 396.1989 59.5954 395.8328 C 59.7255 395.5991 59.9277 395.448 60.1262 395.4121 L 60.7883 395.2809 L 60.7841 395.3563 C 61.2847 395.2807 62.1183 394.9144 63.0234 394.5175 C 62.7629 394.0281 62.5195 393.5166 62.2052 393.0997 L 62.2037 393.1015 L 61.7325 392.5405 C 61.5554 392.3409 61.5423 391.978 61.7179 391.6625 C 61.8481 391.4288 62.0503 391.2777 62.2487 391.2418 L 62.9108 391.1106 L 62.8954 391.3879 C 63.375 391.0903 63.9243 390.8805 64.5053 390.7371 C 64.2084 389.9436 63.991 389.1838 63.9207 388.5831 C 65.1038 386.4632 69.0215 388.5375 70.099 390.7648 L 70.2817 390.8069 L 70.5396 390.4968 L 71.0107 391.0578 C 71.1878 391.2573 71.2009 391.6203 71.0253 391.9357 C 70.8497 392.2512 70.5427 392.4161 70.291 392.3505 C 70.1361 392.3148 69.8462 392.2481 69.5966 392.1906 C 69.4554 392.1581 69.3272 392.1286 69.2435 392.1094 C 68.7004 391.8237 67.6858 391.9409 66.6129 392.111 C 66.986 392.8119 67.3721 393.4228 67.6985 393.8114 L 67.9301 394.0872 C 68.1072 394.2868 68.1203 394.6497 67.9447 394.9652 C 67.7409 395.3312 67.3602 395.4947 67.0942 395.3302 L 66.5017 394.9637 L 66.5191 394.9324 C 66.1705 395.0834 65.7883 395.2275 65.3876 395.3649 C 67.2708 397.9852 66.4623 399.0823 62.6542 399.8366 C 62.6035 399.8467 62.5527 399.8569 62.5021 399.8673 C 62.9014 401.1385 63.2528 402.3984 63.5364 402.9562 L 63.7191 403.3434 C 63.7191 403.3434 64.0061 403.3319 63.6938 404.024 Z M 60.979 400.2254 C 60.0993 400.4538 59.229 400.7091 58.3595 400.9471 C 59.7091 401.6859 60.8839 402.8453 62.2789 403.4698 C 61.8633 402.4681 61.3829 401.3659 60.979 400.2254 Z M 65.0723 397.5017 C 64.647 396.9998 64.2017 396.2854 63.891 395.8307 C 62.8875 396.1185 61.8815 396.3696 61.073 396.586 C 61.419 396.9453 61.7511 397.6854 62.0619 398.5465 C 62.2845 398.496 62.5084 398.4481 62.7341 398.4034 C 63.3074 398.2899 64.2907 397.8 65.0723 397.5017 Z M 67.2653 390.4674 C 66.4335 389.989 65.6873 389.3882 65.2914 388.898 C 65.4264 389.4003 65.6248 389.9572 65.858 390.5164 C 66.3311 390.473 66.8061 390.4601 67.2653 390.4674 Z M 65.775 393.4747 C 65.5765 393.1198 65.3779 392.7353 65.1882 392.3378 C 64.4943 392.4364 63.8555 392.4899 63.3934 392.3952 C 63.7004 392.918 63.9745 393.4786 64.307 393.9698 C 64.8289 393.7593 65.3344 393.5782 65.775 393.4747 Z " data-paper-data="{&quot;origPos&quot;:null,&quot;origRot&quot;:0}" fill="#292929" stroke-width="2.5" stroke="none"/><path d="M 63.3407 407.6451 C 63.0857 407.6364 62.9192 407.545 62.8106 407.4274 L 62.8251 407.4677 C 60.0409 406.1195 57.3127 404.9604 54.9306 402.9705 C 51.1713 399.83 57.2429 396.8751 58.5537 394.1684 C 60.0906 391.5047 61.9674 389.2638 63.3676 386.3723 C 63.3676 386.3723 63.6987 385.6886 64.3823 386.0197 C 65.0659 386.3507 64.7349 387.0343 64.7349 387.0343 C 63.7659 389.0353 60.2108 393.0985 59.9209 394.8305 C 58.5628 397.635 53.6213 399.8972 55.9045 401.8046 C 58.1873 403.7115 60.8127 404.8053 63.4871 406.1004 L 64.1256 406.9117 C 64.1256 406.9117 64.0999 407.6708 63.3407 407.645 Z " data-paper-data="{&quot;origPos&quot;:null}" fill="#1a1a1a" stroke-width="2.5" stroke="none"/></g></g><g data-paper-data="{&quot;origRot&quot;:0}" stroke-linecap="round"><path d="M 119.6848 327.3047 C 119.2938 334.5567 116.0022 344.9894 108.6411 346.3297 C 97.3336 348.6077 84.06 343.8538 75.2655 335.9203 C 71.1656 332.1435 77.5012 324.9837 78.8045 319.5632 C 80.3055 315.1327 79.2536 307.9261 83.6714 306.4058 C 92.4892 303.3729 103.6452 304.1975 111.3683 308.8003 C 117.5391 312.2626 120.0435 320.5951 119.6848 327.3047 Z " data-paper-data="{&quot;origPos&quot;:null}" fill="#666666" stroke="#000000" stroke-width="2.5"/><path d="M 117.9967 327.1044 C 117.6794 332.9968 115.005 341.4731 109.0241 342.5622 C 99.837 344.4129 89.0528 340.5505 81.9071 334.1044 C 78.5761 331.036 83.6783 325.2066 84.7823 320.8149 C 85.957 317.2029 85.141 311.3379 88.7368 310.1249 C 95.8897 307.7113 104.9085 308.3229 111.24 312.0704 C 116.1861 314.8674 118.2883 321.6531 117.9967 327.1044 Z " data-paper-data="{&quot;origPos&quot;:null}" fill="#ffffff" stroke="none" stroke-width="2.5"/></g><g data-paper-data="{&quot;origPos&quot;:null}"><path d="M 74.0057 229.1377 C 74.0057 229.1377 75.6262 194.7726 73.701 172.9213 C 72.3717 157.8349 62.8477 117.4694 75.7978 86.8565 C 88.748 56.2437 151.2322 69.7636 157.3311 86.8706 C 163.4301 103.9777 153.7198 160.2968 152.7025 172.9036 C 150.9023 195.2138 149.9565 230.0944 149.9565 230.0944 Z " data-paper-data="{&quot;origPos&quot;:null}" fill="#000000" stroke="none" stroke-linecap="butt" stroke-width="2.5"/><path d="M 72.6757 97.7466 C 74.627 88.7614 77.6929 78.513 85.4758 80.0938 C 93.2588 81.6746 104.0025 87.1916 108.9662 93.3251 C 112.0477 97.1468 113.7609 124.6913 108.2032 129.7776 C 103.2441 134.6254 74.2032 135.0071 72.3391 130.5413 C 68.3108 120.8311 70.2216 109.0479 72.6758 97.7466 Z " data-paper-data="{&quot;origPos&quot;:null,&quot;index&quot;:null}" fill="#ffffff" stroke="#000000" stroke-linecap="round" stroke-width="2.5"/><path d="M 158.5701 132.4957 C 156.5942 136.9131 127.5721 135.8001 122.7367 130.8289 C 117.3088 125.6042 119.7152 98.1116 122.8921 94.3687 C 128.0086 88.3622 138.8879 83.1176 146.7082 81.7333 C 154.5285 80.349 157.3353 90.6714 159.0596 99.7028 C 161.2284 111.0624 162.8417 122.89 158.5701 132.4956 Z " data-paper-data="{&quot;origPos&quot;:null}" fill="#ffffff" stroke="#000000" stroke-linecap="round" stroke-width="2.5"/><path d="M 153.182 143.2794 C 157.4583 149.9451 154.4879 159.2511 153.4892 167.1356 C 152.5714 172.2106 151.726 178.5413 147.5352 181.4936 C 143.4881 184.3657 119.7321 182.5107 115.6703 178.3576 C 112.2015 174.8834 113.2611 147.4498 118.2503 142.3837 C 122.3935 137.9085 150.1006 138.4823 153.182 143.2794 Z " data-paper-data="{&quot;origPos&quot;:null}" fill="#ffffff" stroke="#000000" stroke-linecap="round" stroke-width="2.5"/><path d="M 109.4877 141.9479 C 112.7317 147.1026 112.7324 173.8294 108.7247 178.4005 C 105.5565 181.9399 80.7574 180.634 76.3888 176.4739 C 71.3956 171.7196 71.7362 163.2525 71.021 156.3521 C 70.7198 150.1133 68.0974 140.9587 73.383 137.695 C 80.2854 133.4369 107.388 138.5761 109.4877 141.9479 Z " data-paper-data="{&quot;origPos&quot;:null}" fill="#ffffff" stroke="#000000" stroke-linecap="round" stroke-width="2.5"/><path d="M 141.0808 232.6983 L 75.7393 229.7484 L 76.4775 187.2185 L 145.0635 189.9055 Z " data-paper-data="{&quot;origPos&quot;:null}" fill="url(#color-8-,0,0,1,-133.02836,-0.51901)" stroke="#000000" stroke-linecap="round" stroke-width="2.5"/><g><path d="M 138.4349 93.6485 L 143.4536 93.9451 L 142.6556 101.6437 L 150.0099 101.97 L 149.954 106.4077 L 142.4875 105.7296 L 142.1977 128.7351 L 137.5294 128.443 L 138.1694 105.4416 L 130.8093 105.5825 L 130.8578 101.7288 L 138.5624 102.0595 Z " stroke-linecap="round" stroke-width="2.5" fill="#000000" stroke="none"/><g stroke-linecap="butt"><path d="M 150.1891 128.3762 C 150.1849 128.707 150.0728 128.8527 149.8522 128.8499 C 148.2336 128.903 146.6157 128.9194 144.997 128.9726 C 144.8867 128.9712 144.8132 128.9703 144.7397 128.9693 C 144.7434 128.6753 144.7094 128.4542 144.7126 128.1969 C 144.714 128.0866 144.8261 127.941 144.9364 127.9424 C 145.1947 127.8721 145.4525 127.8386 145.7474 127.7687 C 146.2267 127.6642 146.3016 127.5548 146.3076 127.0769 C 146.3206 126.0477 146.4076 124.9822 146.3838 123.9525 C 146.3665 122.4078 146.2761 120.8254 146.2588 119.2807 C 146.2699 118.3985 146.3541 117.5536 146.3652 116.6714 C 146.3731 116.0461 146.3814 115.3845 146.353 114.7223 C 146.2395 114.9782 146.1208 115.2335 145.9756 115.4896 C 145.3941 116.5482 144.7667 117.3881 144.1382 118.3163 C 143.6254 119.081 142.9721 119.5857 142.4772 120.2811 C 142.0398 120.9 141.6267 121.5137 141.1308 122.066 C 140.77 122.4625 140.5727 123.5356 140.142 123.2118 C 138.2614 121.6418 137.4758 119.7541 136.0886 118.0497 C 135.2708 117.0218 134.3278 116.0214 133.5163 115.0018 C 133.3134 114.7477 133.372 114.7794 133.3366 114.6687 L 133.2631 114.6678 C 133.2538 115.403 133.2446 116.1385 133.2353 116.8737 C 133.2499 118.639 133.2639 120.441 133.2417 122.2058 C 133.225 123.5291 133.1344 124.8886 133.0809 126.2118 C 133.0768 126.5427 133.1094 126.874 133.1419 127.2053 C 133.1755 127.4631 133.3942 127.6132 133.651 127.6532 C 133.8344 127.6923 133.9814 127.6941 134.1652 127.6964 C 134.4225 127.6997 134.4574 127.8472 134.4184 128.0305 C 134.3788 128.2506 134.3765 128.4344 134.3737 128.655 C 134.3714 128.8388 134.2611 128.8374 134.1141 128.8355 C 133.4887 128.8644 132.863 128.8933 132.2748 128.8859 C 131.6127 128.9143 130.9875 128.9065 130.3253 128.9349 C 130.1048 128.9321 129.9949 128.8939 130.0349 128.6371 C 130.0745 128.417 130.0405 128.196 130.0428 128.0122 C 130.0456 127.7916 130.1568 127.7195 130.3778 127.6855 C 130.6723 127.6524 130.9669 127.6194 131.2259 127.5121 C 131.2999 127.4762 131.412 127.3306 131.4129 127.2571 C 131.4604 126.412 131.4715 125.5295 131.5189 124.6845 C 131.5672 123.7659 131.6523 122.8475 131.7011 121.8922 C 131.7044 121.6346 131.7081 121.3405 131.6746 121.0828 C 131.5754 120.1991 131.6237 119.2803 131.6358 118.3245 C 131.6534 116.9273 131.6337 115.5664 131.6513 114.1695 C 131.6574 113.6914 131.6638 113.1767 131.6331 112.6984 C 131.5637 112.3666 131.3451 112.2168 131.0139 112.2126 C 130.9772 112.2122 130.9404 112.2117 130.9404 112.2117 C 130.2792 112.1666 130.1712 111.9811 130.3261 111.358 C 130.327 111.2845 130.4755 111.1761 130.549 111.177 C 130.8431 111.1807 131.1371 111.1844 131.4315 111.1881 C 132.3133 111.236 133.1963 111.2104 134.0418 111.221 C 134.5197 111.227 134.5673 111.502 134.7705 111.7449 C 135.721 112.8273 136.2346 113.8392 136.9551 114.9349 C 137.9312 116.2304 138.8282 117.6026 139.865 118.9244 C 140.1246 119.2552 139.8977 119.2262 140.1959 118.9285 C 141.6103 117.5489 142.9639 116.085 144.1838 114.6951 C 144.8394 113.951 145.2576 113.0073 145.9424 112.2901 C 146.2447 111.9733 146.43 111.5241 147.0184 111.5315 C 148.0472 111.5812 149.1141 111.5579 150.1429 111.6076 C 150.3634 111.6104 150.4356 111.7216 150.4328 111.9422 C 150.4258 112.4939 150.4258 112.4939 149.8372 112.5232 C 149.2491 112.5158 149.0671 112.3662 149.056 113.2487 C 149.0467 113.9839 149.0379 114.6827 149.0654 115.4183 C 149.0622 115.6756 149.0957 115.9334 149.0925 116.1908 C 149.0767 117.4409 149.0614 118.6543 149.0457 119.9042 C 149.0258 121.4851 148.9696 123.0289 148.9497 124.6099 C 148.9385 125.4921 148.8907 126.3742 148.8423 127.2928 C 148.8363 127.771 148.9443 127.9561 149.4217 127.9989 C 149.5687 128.0008 149.7149 128.0761 149.8624 128.0412 C 150.1941 127.9719 150.1913 128.1924 150.189 128.3762 Z " stroke-width="2.5" fill="#000000" stroke="none"/></g></g><g><g><path d="M 77.7454 292.9449 C 77.7454 292.9449 78.0353 293.4229 78.0816 293.2898 C 78.2122 292.914 78.1308 292.38 78.0988 291.9278 C 78.0823 291.6945 77.9726 291.4756 77.9372 291.2445 C 77.8676 290.7927 77.8813 290.3271 77.7839 289.8804 C 77.719 289.5821 77.5745 289.3053 77.4541 289.0249 C 77.3543 288.7921 77.1993 288.5811 77.1224 288.3395 C 76.9801 287.894 76.7931 287.4408 76.799 286.9732 C 76.8141 285.7775 77.0742 284.5933 77.1846 283.4024 C 77.2121 283.1046 77.1497 282.9437 77.1932 282.7212 C 77.2721 282.316 77.4695 281.939 77.5485 281.5337 C 77.592 281.3112 77.5423 281.1079 77.557 280.8529 C 77.6164 279.8321 77.7661 277.7903 77.7661 277.7903 " fill="none" stroke="#7f7f7f" stroke-linecap="round" stroke-width="2.5"/><path d="M 76.3726 272.5446 C 75.0884 271.7524 75.1304 266.6653 73.6741 264.0964 C 72.9079 262.7422 70.6105 262.6628 69.9703 261.2449 C 68.3858 257.7358 68.0152 253.7762 67.3072 249.9919 C 66.8466 247.5256 67.2295 244.892 66.4666 242.502 C 65.9936 241.0187 64.1825 240.2105 63.7095 238.7275 C 62.9466 236.3375 62.3891 233.7016 62.8689 231.2373 C 63.1208 229.9409 64.7621 229.3912 65.7084 228.4682 C 66.6549 227.5452 67.7662 226.7646 68.5481 225.6991 C 69.372 224.5764 69.3842 222.862 70.4648 221.9838 C 71.4604 221.1753 72.9334 221.0799 74.2158 221.0961 C 75.4984 221.1122 76.9683 221.2447 77.9432 222.078 C 79.0014 222.9831 79.1589 224.5876 79.7657 225.8404 C 80.3726 227.0935 81.3494 228.2316 81.5883 229.6032 C 82.2318 233.297 82.429 237.0839 82.3818 240.8326 C 82.3502 243.3414 81.7971 245.829 81.3528 248.2989 C 81.1254 249.5622 80.4672 250.7468 80.3709 252.0264 C 80.0903 255.7514 80.7399 259.5425 80.2296 263.244 C 80.0402 264.6235 78.8471 265.6741 78.3129 266.9597 C 77.5589 268.7787 77.3004 273.1175 76.3726 272.5446 Z " fill="none" stroke="#7f7f7f" stroke-linecap="round" stroke-width="2.5"/><path d="M 67.5369 226.9307 C 67.8486 227.2498 68.0382 227.6876 68.0321 228.1682 C 68.026 228.6491 67.8255 229.0817 67.5059 229.3931 C 67.1869 229.7045 66.7494 229.894 66.2684 229.8879 C 65.7878 229.8819 65.3549 229.6814 65.0439 229.362 C 64.7322 229.0427 64.5426 228.6052 64.5487 228.1243 C 64.5547 227.6437 64.7553 227.2108 65.0749 226.8997 C 65.3939 226.588 65.8317 226.3985 66.3123 226.4045 C 66.7933 226.4106 67.2258 226.6111 67.5369 226.9307 Z " fill="url(#color-9-,0,0,1,-133.02836,-0.51901)" stroke="none" stroke-linecap="butt" stroke-width="2.5"/><path d="M 64.4683 229.3229 C 64.78 229.6419 64.9695 230.0797 64.9635 230.5603 C 64.9574 231.0412 64.7569 231.4738 64.4373 231.7852 C 64.1182 232.0966 63.6807 232.2861 63.1998 232.2801 C 62.7192 232.274 62.2863 232.0735 61.9752 231.7542 C 61.6635 231.4348 61.474 230.9973 61.48 230.5164 C 61.4861 230.0358 61.6866 229.6029 62.0062 229.2918 C 62.3253 228.9802 62.7631 228.7906 63.2437 228.7967 C 63.7246 228.8027 64.1572 229.0033 64.4683 229.3229 Z " fill="url(#color-10-,0,0,1,-133.02836,-0.51901)" stroke="none" stroke-linecap="butt" stroke-width="2.5"/><path d="M 63.6571 233.4146 C 63.9688 233.7336 64.1583 234.1714 64.1523 234.6521 C 64.1462 235.133 63.9457 235.5656 63.6261 235.8769 C 63.3071 236.1883 62.8696 236.3779 62.3886 236.3718 C 61.908 236.3658 61.4751 236.1652 61.1641 235.8459 C 60.8524 235.5266 60.6628 235.0891 60.6689 234.6082 C 60.6749 234.1275 60.8755 233.6947 61.1951 233.3836 C 61.5141 233.0719 61.9519 232.8823 62.4325 232.8884 C 62.9134 232.8945 63.346 233.095 63.6571 233.4146 Z " fill="url(#color-11-,0,0,1,-133.02836,-0.51901)" stroke="none" stroke-linecap="butt" stroke-width="2.5"/><path d="M 64.9784 237.0775 C 65.2901 237.3965 65.4797 237.8343 65.4736 238.3149 C 65.4675 238.7958 65.267 239.2284 64.9474 239.5398 C 64.6284 239.8512 64.1909 240.0407 63.71 240.0347 C 63.2293 240.0286 62.7964 239.8281 62.4854 239.5088 C 62.1737 239.1894 61.9841 238.7519 61.9902 238.271 C 61.9963 237.7904 62.1968 237.3575 62.5164 237.0464 C 62.8354 236.7347 63.2732 236.5452 63.7538 236.5513 C 64.2348 236.5573 64.6673 236.7578 64.9784 237.0775 Z " fill="url(#color-12-,0,0,1,-133.02836,-0.51901)" stroke="none" stroke-linecap="butt" stroke-width="2.5"/><path d="M 67.3666 240.4499 C 67.6783 240.7689 67.8679 241.2067 67.8618 241.6874 C 67.8557 242.1683 67.6552 242.6009 67.3356 242.9123 C 67.0166 243.2236 66.5791 243.4132 66.0982 243.4071 C 65.6175 243.4011 65.1846 243.2005 64.8736 242.8812 C 64.5619 242.5619 64.3723 242.1244 64.3784 241.6435 C 64.3845 241.1629 64.585 240.73 64.9046 240.4189 C 65.2236 240.1072 65.6614 239.9177 66.142 239.9237 C 66.623 239.9298 67.0556 240.1303 67.3666 240.4499 Z " fill="url(#color-13-,0,0,1,-133.02836,-0.51901)" stroke="none" stroke-linecap="butt" stroke-width="2.5"/><path d="M 68.0707 244.8646 C 68.3824 245.1837 68.5719 245.6215 68.5658 246.1021 C 68.5598 246.583 68.3593 247.0156 68.0396 247.327 C 67.7206 247.6384 67.2831 247.8279 66.8022 247.8218 C 66.3216 247.8158 65.8887 247.6153 65.5776 247.2959 C 65.2659 246.9766 65.0764 246.5391 65.0824 246.0582 C 65.0885 245.5776 65.289 245.1447 65.6086 244.8336 C 65.9276 244.5219 66.3655 244.3324 66.8461 244.3384 C 67.327 244.3445 67.7596 244.545 68.0707 244.8646 Z " fill="url(#color-14-,0,0,1,-133.02836,-0.51901)" stroke="none" stroke-linecap="butt" stroke-width="2.5"/><path d="M 68.7823 248.6718 C 69.094 248.9908 69.2836 249.4286 69.2775 249.9092 C 69.2715 250.3901 69.0709 250.8227 68.7513 251.1341 C 68.4323 251.4455 67.9948 251.635 67.5139 251.629 C 67.0332 251.6229 66.6004 251.4224 66.2893 251.1031 C 65.9776 250.7837 65.788 250.3462 65.7941 249.8653 C 65.8002 249.3847 66.0007 248.9518 66.3203 248.6407 C 66.6393 248.329 67.0771 248.1395 67.5577 248.1456 C 68.0387 248.1516 68.4713 248.3521 68.7823 248.6718 Z " fill="url(#color-15-,0,0,1,-133.02836,-0.51901)" stroke="none" stroke-linecap="butt" stroke-width="2.5"/><path d="M 69.4883 252.9346 C 69.7999 253.2536 69.9895 253.6914 69.9834 254.172 C 69.9774 254.653 69.7768 255.0856 69.4572 255.3969 C 69.1382 255.7083 68.7007 255.8979 68.2198 255.8918 C 67.7392 255.8858 67.3063 255.6852 66.9952 255.3659 C 66.6835 255.0466 66.494 254.6091 66.5 254.1282 C 66.5061 253.6475 66.7066 253.2146 67.0262 252.9036 C 67.3452 252.5919 67.7831 252.4023 68.2637 252.4084 C 68.7446 252.4145 69.1772 252.615 69.4883 252.9346 Z " fill="url(#color-16-,0,0,1,-133.02836,-0.51901)" stroke="none" stroke-linecap="butt" stroke-width="2.5"/><path d="M 70.2 256.7417 C 70.5116 257.0607 70.7012 257.4985 70.6951 257.9792 C 70.6891 258.4601 70.4885 258.8927 70.1689 259.204 C 69.8499 259.5154 69.4124 259.705 68.9315 259.6989 C 68.4509 259.6929 68.018 259.4923 67.7069 259.173 C 67.3952 258.8537 67.2057 258.4162 67.2117 257.9353 C 67.2178 257.4547 67.4183 257.0218 67.7379 256.7107 C 68.0569 256.399 68.4948 256.2095 68.9754 256.2155 C 69.4563 256.2216 69.8889 256.4221 70.2 256.7417 Z " fill="url(#color-17-,0,0,1,-133.02836,-0.51901)" stroke="none" stroke-linecap="butt" stroke-width="2.5"/><path d="M 72.2808 260.4142 C 72.5925 260.7332 72.782 261.171 72.7759 261.6516 C 72.7699 262.1325 72.5694 262.5651 72.2497 262.8765 C 71.9307 263.1879 71.4932 263.3774 71.0123 263.3714 C 70.5317 263.3653 70.0988 263.1648 69.7877 262.8455 C 69.476 262.5261 69.2865 262.0886 69.2925 261.6077 C 69.2986 261.1271 69.4991 260.6942 69.8187 260.3831 C 70.1378 260.0714 70.5756 259.8819 71.0562 259.888 C 71.5371 259.894 71.9697 260.0945 72.2808 260.4142 Z " fill="url(#color-18-,0,0,1,-133.02836,-0.51901)" stroke="none" stroke-linecap="butt" stroke-width="2.5"/><g stroke-linecap="butt"><path d="M 74.5415 263.4145 C 74.9488 263.5965 75.2863 263.9335 75.4578 264.3829 C 75.6293 264.832 75.6024 265.3081 75.4198 265.7151 C 75.2378 266.1224 74.9008 266.4597 74.4517 266.6312 C 74.0026 266.8027 73.5265 266.7757 73.1195 266.5934 C 72.7122 266.4115 72.3746 266.0745 72.2031 265.6254 C 72.0316 265.1762 72.0586 264.6998 72.2412 264.2928 C 72.4231 263.8855 72.7601 263.5483 73.2092 263.3768 C 73.6584 263.2053 74.1345 263.2322 74.5415 263.4145 Z " fill="url(#color-19-,0,0,1,-133.02836,-0.51901)" stroke-width="2.5" stroke="none"/><path d="M 75.8647 266.9255 C 76.272 267.1075 76.6095 267.4445 76.781 267.8939 C 76.9525 268.343 76.9256 268.8191 76.743 269.2261 C 76.561 269.6334 76.224 269.9707 75.7749 270.1422 C 75.3258 270.3137 74.8497 270.2867 74.4427 270.1044 C 74.0354 269.9225 73.6978 269.5855 73.5263 269.1364 C 73.3548 268.6872 73.3818 268.2108 73.5644 267.8039 C 73.7464 267.3965 74.0833 267.0593 74.5325 266.8878 C 74.9816 266.7163 75.4577 266.7432 75.8647 266.9255 Z " fill="url(#color-20-,0,0,1,-133.02836,-0.51901)" stroke-width="2.5" stroke="none"/></g><path d="M 72.9132 220.3948 C 73.4403 220.9344 73.761 221.6747 73.7507 222.4877 C 73.7405 223.3006 73.4013 224.0326 72.8608 224.5587 C 72.3212 225.0858 71.5809 225.4065 70.768 225.3962 C 69.955 225.386 69.2233 225.0468 68.6969 224.5063 C 68.1701 223.9667 67.8494 223.2264 67.8597 222.4135 C 67.8699 221.6005 68.2091 220.8685 68.7493 220.3424 C 69.2892 219.8156 70.0292 219.4949 70.8422 219.5052 C 71.6551 219.5154 72.3871 219.8546 72.9132 220.3948 Z " fill="url(#color-21-,0,0,1,-133.02836,-0.51901)" stroke="none" stroke-linecap="butt" stroke-width="2.5"/><path d="M 80.9521 223.3016 C 81.2638 223.6206 81.4533 224.0584 81.4472 224.539 C 81.4412 225.0199 81.2407 225.4525 80.921 225.7639 C 80.602 226.0753 80.1645 226.2649 79.6836 226.2588 C 79.203 226.2527 78.7701 226.0522 78.459 225.7329 C 78.1473 225.4135 77.9578 224.9761 77.9638 224.4951 C 77.9699 224.0145 78.1704 223.5816 78.49 223.2706 C 78.8091 222.9589 79.2469 222.7693 79.7275 222.7754 C 80.2084 222.7814 80.641 222.982 80.9521 223.3016 Z " fill="url(#color-22-,0,0,1,-133.02836,-0.51901)" stroke="none" stroke-linecap="butt" stroke-width="2.5"/><path d="M 82.7233 227.4258 C 83.0349 227.7448 83.2245 228.1826 83.2184 228.6632 C 83.2124 229.1441 83.0118 229.5767 82.6922 229.8881 C 82.3732 230.1995 81.9357 230.3891 81.4548 230.383 C 80.9742 230.3769 80.5413 230.1764 80.2302 229.8571 C 79.9185 229.5377 79.729 229.1003 79.735 228.6193 C 79.7411 228.1387 79.9416 227.7058 80.2612 227.3948 C 80.5802 227.0831 81.0181 226.8935 81.4987 226.8996 C 81.9796 226.9056 82.4122 227.1062 82.7233 227.4258 Z " fill="url(#color-23-,0,0,1,-133.02836,-0.51901)" stroke="none" stroke-linecap="butt" stroke-width="2.5"/><path d="M 83.4254 231.9924 C 83.737 232.3114 83.9266 232.7492 83.9205 233.2298 C 83.9145 233.7108 83.7139 234.1434 83.3943 234.4547 C 83.0753 234.7661 82.6378 234.9557 82.1569 234.9496 C 81.6763 234.9436 81.2434 234.743 80.9323 234.4237 C 80.6206 234.1044 80.4311 233.6669 80.4371 233.186 C 80.4432 232.7053 80.6437 232.2724 80.9633 231.9614 C 81.2823 231.6497 81.7202 231.4601 82.2008 231.4662 C 82.6817 231.4723 83.1143 231.6728 83.4254 231.9924 Z " fill="url(#color-24-,0,0,1,-133.02836,-0.51901)" stroke="none" stroke-linecap="butt" stroke-width="2.5"/><path d="M 83.3622 237.0052 C 83.6739 237.3243 83.8635 237.7621 83.8574 238.2427 C 83.8513 238.7236 83.6508 239.1562 83.3312 239.4676 C 83.0122 239.779 82.5747 239.9685 82.0937 239.9624 C 81.6131 239.9564 81.1802 239.7559 80.8692 239.4365 C 80.5575 239.1172 80.3679 238.6797 80.374 238.1988 C 80.38 237.7182 80.5806 237.2853 80.9002 236.9742 C 81.2192 236.6625 81.657 236.473 82.1376 236.479 C 82.6185 236.4851 83.0511 236.6856 83.3622 237.0052 Z " fill="url(#color-25-,0,0,1,-133.02836,-0.51901)" stroke="none" stroke-linecap="butt" stroke-width="2.5"/><path d="M 83.4547 241.7161 C 83.7664 242.0351 83.956 242.4729 83.9499 242.9535 C 83.9438 243.4344 83.7433 243.867 83.4237 244.1784 C 83.1047 244.4898 82.6672 244.6793 82.1863 244.6733 C 81.7056 244.6672 81.2727 244.4667 80.9617 244.1474 C 80.65 243.828 80.4604 243.3905 80.4665 242.9096 C 80.4726 242.429 80.6731 241.9961 80.9927 241.685 C 81.3117 241.3734 81.7495 241.1838 82.2301 241.1899 C 82.7111 241.1959 83.1437 241.3965 83.4547 241.7161 Z " fill="url(#color-26-,0,0,1,-133.02836,-0.51901)" stroke="none" stroke-linecap="butt" stroke-width="2.5"/><path d="M 83.0899 246.5731 C 83.4016 246.8921 83.5911 247.3299 83.5851 247.8105 C 83.579 248.2914 83.3785 248.724 83.0589 249.0354 C 82.7399 249.3468 82.3024 249.5364 81.8214 249.5303 C 81.3408 249.5242 80.9079 249.3237 80.5969 249.0044 C 80.2852 248.685 80.0956 248.2476 80.1017 247.7666 C 80.1077 247.286 80.3083 246.8531 80.6279 246.5421 C 80.9469 246.2304 81.3847 246.0408 81.8653 246.0469 C 82.3462 246.0529 82.7788 246.2535 83.0899 246.5731 Z " fill="url(#color-27-,0,0,1,-133.02836,-0.51901)" stroke="none" stroke-linecap="butt" stroke-width="2.5"/><path d="M 82.4229 251.2744 C 82.7346 251.5934 82.9241 252.0312 82.9181 252.5118 C 82.912 252.9927 82.7115 253.4253 82.3919 253.7367 C 82.0728 254.0481 81.6353 254.2376 81.1544 254.2316 C 80.6738 254.2255 80.2409 254.025 79.9298 253.7057 C 79.6181 253.3863 79.4286 252.9488 79.4346 252.4679 C 79.4407 251.9873 79.6412 251.5544 79.9608 251.2433 C 80.2799 250.9317 80.7177 250.7421 81.1983 250.7482 C 81.6792 250.7542 82.1118 250.9548 82.4229 251.2744 Z " fill="url(#color-28-,0,0,1,-133.02836,-0.51901)" stroke="none" stroke-linecap="butt" stroke-width="2.5"/><path d="M 82.0635 255.6757 C 82.3752 255.9947 82.5648 256.4325 82.5587 256.9131 C 82.5527 257.3941 82.3521 257.8267 82.0325 258.138 C 81.7135 258.4494 81.276 258.639 80.7951 258.6329 C 80.3145 258.6268 79.8816 258.4263 79.5705 258.107 C 79.2588 257.7877 79.0693 257.3502 79.0753 256.8693 C 79.0814 256.3886 79.2819 255.9557 79.6015 255.6447 C 79.9205 255.333 80.3583 255.1434 80.839 255.1495 C 81.3199 255.1556 81.7525 255.3561 82.0635 255.6757 Z " fill="url(#color-29-,0,0,1,-133.02836,-0.51901)" stroke="none" stroke-linecap="butt" stroke-width="2.5"/><path d="M 81.5466 260.5309 C 81.8583 260.8499 82.0479 261.2877 82.0418 261.7683 C 82.0358 262.2492 81.8352 262.6818 81.5156 262.9932 C 81.1966 263.3046 80.7591 263.4941 80.2782 263.4881 C 79.7975 263.482 79.3647 263.2815 79.0536 262.9622 C 78.7419 262.6428 78.5523 262.2053 78.5584 261.7244 C 78.5645 261.2438 78.765 260.8109 79.0846 260.4998 C 79.4036 260.1882 79.8414 259.9986 80.3221 260.0047 C 80.803 260.0107 81.2356 260.2113 81.5466 260.5309 Z " fill="url(#color-30-,0,0,1,-133.02836,-0.51901)" stroke="none" stroke-linecap="butt" stroke-width="2.5"/><path d="M 80.1182 265.3744 C 80.4299 265.6934 80.6195 266.1312 80.6134 266.6119 C 80.6073 267.0928 80.4068 267.5254 80.0872 267.8367 C 79.7682 268.1481 79.3307 268.3377 78.8498 268.3316 C 78.3691 268.3256 77.9362 268.125 77.6252 267.8057 C 77.3135 267.4864 77.1239 267.0489 77.13 266.568 C 77.1361 266.0874 77.3366 265.6545 77.6562 265.3434 C 77.9752 265.0317 78.413 264.8422 78.8936 264.8482 C 79.3746 264.8543 79.8072 265.0548 80.1182 265.3744 Z " fill="url(#color-31-,0,0,1,-133.02836,-0.51901)" stroke="none" stroke-linecap="butt" stroke-width="2.5"/><path d="M 79.8321 271.8851 C 80.4844 272.7411 80.8798 273.9165 80.8635 275.2083 C 80.8472 276.5003 80.4223 277.6654 79.7488 278.5047 C 79.0755 279.3436 78.1542 279.8568 77.144 279.8441 C 76.1342 279.8313 75.2257 279.2951 74.5738 278.4395 C 73.9219 277.5835 73.5265 276.4081 73.5427 275.1161 C 73.559 273.8243 73.9839 272.6592 74.6572 271.8199 C 75.3304 270.9807 76.2521 270.4675 77.2619 270.4802 C 78.2721 270.493 79.1802 271.0292 79.8321 271.8851 Z " fill="#b2b2b2" stroke="none" stroke-linecap="butt" stroke-width="2.5"/><path d="M 77.9767 280.1696 C 78.384 280.3516 78.7216 280.6886 78.8931 281.138 C 79.0646 281.5871 79.0376 282.0632 78.8551 282.4702 C 78.6731 282.8775 78.3361 283.2148 77.887 283.3863 C 77.4378 283.5578 76.9617 283.5308 76.5548 283.3485 C 76.1475 283.1666 75.8099 282.8296 75.6384 282.3804 C 75.4669 281.9313 75.4939 281.4549 75.6764 281.0479 C 75.8584 280.6406 76.1954 280.3034 76.6445 280.1318 C 77.0936 279.9604 77.5697 279.9873 77.9767 280.1696 Z " fill="url(#color-32-,0,0,1,-133.02836,-0.51901)" stroke="none" stroke-linecap="butt" stroke-width="2.5"/><path d="M 77.3155 284.4153 C 77.7228 284.5972 78.0603 284.9342 78.2318 285.3836 C 78.4033 285.8328 78.3764 286.3089 78.1938 286.7159 C 78.0118 287.1232 77.6748 287.4604 77.2257 287.6319 C 76.7766 287.8034 76.3005 287.7765 75.8935 287.5942 C 75.4862 287.4122 75.1486 287.0752 74.9771 286.6261 C 74.8056 286.177 74.8326 285.7006 75.0152 285.2936 C 75.1971 284.8863 75.5341 284.549 75.9832 284.3775 C 76.4324 284.206 76.9085 284.233 77.3155 284.4153 Z " fill="url(#color-33-,0,0,1,-133.02836,-0.51901)" stroke="none" stroke-linecap="butt" stroke-width="2.5"/><path d="M 78.9123 288.7558 C 79.2239 289.0749 79.4135 289.5127 79.4074 289.9933 C 79.4014 290.4742 79.2008 290.9068 78.8812 291.2182 C 78.5622 291.5295 78.1247 291.7191 77.6438 291.713 C 77.1632 291.707 76.7303 291.5065 76.4192 291.1871 C 76.1075 290.8678 75.918 290.4303 75.924 289.9494 C 75.9301 289.4688 76.1306 289.0359 76.4502 288.7248 C 76.7692 288.4131 77.2071 288.2236 77.6877 288.2296 C 78.1686 288.2357 78.6012 288.4362 78.9123 288.7558 Z " fill="url(#color-34-,0,0,1,-133.02836,-0.51901)" stroke="none" stroke-linecap="butt" stroke-width="2.5"/><path d="M 80.2646 295.7013 L 83.5038 295.4015 L 83.2886 298.9748 L 80.39 299.2789 L 79.7528 309.3174 L 75.8368 309.2681 L 75.4483 299.5569 L 71.3643 299.3353 L 71.5798 295.762 L 75.4955 295.8113 L 75.5384 292.4063 L 80.1352 292.4642 Z " fill="#b2b2b2" stroke="none" stroke-linecap="round" stroke-width="2.5"/><path d="M 77.9803 307.167 L 77.4557 294.7298 " fill="none" stroke="#7f7f7f" stroke-linecap="round" stroke-width="2.5"/><path d="M 74.3591 297.2449 L 80.3158 297.4904 " fill="none" stroke="#7f7f7f" stroke-linecap="round" stroke-width="2.5"/></g><path d="M 147.3087 240.8288 L 73.2228 236.5533 L 73.0778 223.9416 L 145.2119 226.3694 Z " fill="#000000" stroke="none" stroke-linecap="round" stroke-width="2.5"/><g><g><g><path d="M 157.111 234.4125 L 163.4172 228.1618 L 161.2608 266.8003 L 152.6989 260.7403 L 150.8061 233.0569 Z " fill="#363a37" stroke="none" stroke-linecap="round" stroke-width="2.5"/><path d="M 155.5936 213.8442 L 154.8516 229.7481 L 133.8936 223.4576 L 134.7757 196.0045 Z " fill="#000000" stroke="none" stroke-linecap="round" stroke-width="2.5"/><path d="M 160.8602 244.2103 L 159.3576 276.4161 L 154.788 276.2029 L 156.2902 243.9972 Z " fill="url(#color-35-,0,0,1,-133.02836,-0.51901)" stroke="url(#color-36-,0,0,1,-133.02836,-0.51901)" stroke-linecap="round" stroke-width="2.5"/><path d="M 173.0341 224.3286 C 172.9871 225.3332 172.7227 226.2347 172.332 226.8779 C 171.9414 227.5211 171.4242 227.906 170.8761 227.8805 C 170.3276 227.8548 169.8488 227.4234 169.5197 226.7468 C 169.1903 226.0699 169.0111 225.1476 169.0581 224.1431 C 169.1048 223.1385 169.3693 222.237 169.7599 221.5938 C 170.1506 220.9506 170.6677 220.5654 171.2162 220.5912 C 171.7643 220.6166 172.2432 221.048 172.5726 221.7249 C 172.9016 222.4018 173.0808 223.3241 173.0341 224.3286 Z " fill="#ff0000" stroke="none" stroke-linecap="butt" stroke-width="2.5"/><path d="M 158.7329 189.9746 L 166.6623 199.3766 L 166.4908 211.588 L 170.7885 204.8818 L 169.785 217.8515 L 165.854 225.239 L 165.3162 236.7695 L 159.4831 247.92 L 148.9177 246.6302 L 147.922 202.4868 Z " fill="#000000" stroke="none" stroke-linecap="round" stroke-width="2.5"/><path d="M 174.5548 201.3416 L 173.568 225.3364 L 171.8794 221.6714 L 170.0119 221.8499 L 168.387 225.3602 L 169.5184 201.1067 Z " fill="#000000" stroke="none" stroke-linecap="round" stroke-width="2.5"/></g><path d="M 154.3937 293.8554 L 154.3937 293.8554 L 154.3794 293.658 L 154.3794 293.658 Z " fill="#cccccc" stroke="none" stroke-linecap="butt" stroke-width="2.5"/></g><path d="M 167.3446 278.4549 L 148.826 277.1581 L 142.0681 258.8419 L 137.1839 224.4452 L 167.9721 228.6311 Z " fill="#353935" stroke="none" stroke-linecap="round" stroke-width="2.5"/></g><g stroke-linecap="butt"><path d="M 137.6873 244.8097 L 124.0162 244.6375 L 124.3223 220.3332 L 137.9934 220.5054 Z " fill="#cccc00" stroke="#000000" stroke-width="2.5"/><path d="M 129.049 223.0756 C 129.388 223.4233 129.5947 223.9029 129.5881 224.4255 C 129.5815 224.948 129.3628 225.4223 129.0152 225.7613 C 128.6676 226.1002 128.1879 226.3069 127.6654 226.3003 C 127.1429 226.2937 126.6686 226.0751 126.3296 225.7275 C 125.9906 225.3798 125.784 224.9002 125.7905 224.3776 C 125.7971 223.8551 126.0158 223.3808 126.3634 223.0418 C 126.711 222.7029 127.1907 222.4962 127.7132 222.5028 C 128.2358 222.5094 128.7101 222.728 129.049 223.0756 Z " fill="#ff0000" stroke="none" stroke-width="2.5"/></g><g><path d="M 118.3089 257.314 L 101.8828 256.7026 L 103.4062 215.7499 L 119.8323 216.3609 Z " fill="url(#color-37-,0,0,1,-133.02836,-0.51901)" stroke-linecap="butt" stroke-width="2.5" stroke="none"/><path d="M 119.4596 258.1088 L 108.5264 261.2663 L 100.5362 257.999 L 100.4434 254.4312 L 119.5698 255.1428 Z " fill="#666666" stroke-linecap="round" stroke-width="2.5" stroke="none"/><path d="M 116.3505 255.4383 L 114.7754 255.3798 L 116.1986 217.127 L 117.7736 217.1858 Z " fill="#666666" stroke-linecap="butt" stroke-width="2.5" stroke="none"/><path d="M 112.9754 255.3128 L 111.6254 255.2627 L 113.0651 216.5598 L 114.4151 216.6102 Z " fill="#666666" stroke-linecap="butt" stroke-width="2.5" stroke="none"/><path d="M 119.5709 210.8656 C 120.9949 211.3315 122.1257 212.9616 122.0054 214.3362 C 121.9052 215.4878 120.842 216.0702 119.0472 216.6155 C 117.2525 217.1608 114.792 217.4477 112.0914 217.3471 C 109.3911 217.2468 106.9586 216.7777 105.2093 216.1006 C 103.4601 215.4238 102.3941 214.5395 102.4289 213.6081 C 102.4634 212.6763 103.5923 211.8737 105.3867 211.3285 C 107.1814 210.7835 109.9917 210.6888 112.3426 210.5969 C 114.7658 210.5022 117.3549 209.9226 119.5709 210.8657 Z " fill="#b2b2b2" stroke-linecap="round" stroke-width="2.5" stroke="none"/><path d="M 104.1997 254.9865 L 102.8497 254.9361 L 104.2725 216.6833 L 105.6228 216.7337 Z " fill="#666666" stroke-linecap="butt" stroke-width="2.5" stroke="none"/><path d="M 97.18 219.5741 L 97.18 219.5741 L 97.1883 219.3491 L 97.1883 219.3491 Z " fill="#666666" stroke-linecap="butt" stroke-width="2.5" stroke="none"/><path d="M 121.1151 218.2113 L 101.9888 217.4998 L 102.1228 213.8996 L 120.1409 214.1189 L 119.2168 208.6769 L 124.4162 214.2782 Z " fill="#666666" stroke-linecap="round" stroke-width="2.5" stroke="none"/><path d="M 111.0246 241.7032 L 104.7242 241.4689 L 105.1427 230.2183 L 111.4431 230.4526 Z " fill="#000000" stroke-linecap="butt" stroke-width="2.5" stroke="none"/><path d="M 108.6131 233.6123 C 109.0013 234.1565 109.2259 234.8968 109.196 235.704 C 109.1661 236.5116 108.8868 237.2331 108.4592 237.7469 C 108.0328 238.2621 107.458 238.5687 106.837 238.5457 C 106.2159 238.5227 105.6657 238.1739 105.2785 237.6288 C 104.8904 237.0843 104.6657 236.344 104.6956 235.5367 C 104.7259 234.7295 105.0051 234.008 105.4324 233.4938 C 105.8588 232.9787 106.4336 232.672 107.0547 232.6954 C 107.6757 232.7184 108.2262 233.0668 108.6131 233.6123 Z " fill="#ff0000" stroke-linecap="butt" stroke-width="2.5" stroke="none"/><path d="M 79.8356 234.9271 C 79.8966 234.9294 79.9346 234.9308 79.9346 234.9308 C 79.9346 234.9308 79.8966 234.9294 79.8356 234.9271 C 79.7743 234.9248 79.6898 234.9217 79.5972 234.9184 C 79.5043 234.9148 79.4198 234.9116 79.3585 234.9096 C 79.2975 234.9073 79.2595 234.9059 79.2595 234.9059 C 79.2595 234.9059 79.2975 234.9073 79.3585 234.9096 C 79.4198 234.9116 79.5043 234.9148 79.5972 234.9184 C 79.6898 234.9217 79.7743 234.9248 79.8356 234.9271 Z " fill="#ff0000" stroke-linecap="butt" stroke-width="2.5" stroke="none"/></g><g stroke-linecap="butt"><path d="M 121.4171 237.3121 L 109.5687 237.1629 L 109.6931 227.2893 L 121.5414 227.4385 Z " fill="url(#color-38-,0,0,1,-133.02836,-0.51901)" stroke-width="2.5" stroke="none"/><path d="M 99.4882 227.1607 L 110.1213 227.2947 L 109.997 237.1683 L 99.3639 237.0343 Z " fill="url(#color-39-,0,0,1,-133.02836,-0.51901)" stroke-width="2.5" stroke="none"/></g><g stroke-linecap="butt"><g><path d="M 96.6666 220.7211 C 98.9092 223.0209 100.2754 226.1748 100.2318 229.636 C 100.1882 233.0973 98.743 236.2157 96.4432 238.458 C 94.1433 240.7007 90.9895 242.0669 87.5282 242.0233 C 84.067 241.9797 80.9486 240.5345 78.7062 238.2346 C 76.4636 235.9351 75.0974 232.7812 75.141 229.32 C 75.1846 225.8588 76.6298 222.7403 78.9296 220.4977 C 81.2292 218.2554 84.3831 216.8892 87.8443 216.9328 C 91.3055 216.9764 94.424 218.4216 96.6666 220.7211 Z " fill="#000000" stroke-width="2.5" stroke="none"/><path d="M 75.9144 229.234 C 75.9937 222.937 81.3637 217.8994 87.9088 217.9818 C 94.454 218.0642 99.2459 223.2834 99.1666 229.58 C 99.0872 235.8773 94.1661 240.8671 87.6213 240.7847 C 81.0764 240.7023 75.8351 235.5309 75.9144 229.234 Z " fill="url(#color-40-,0,0,1,-133.02836,-0.51901)" stroke-width="2.5" stroke="none"/><path d="M 90.4929 222.7168 C 90.9684 222.9109 93.3625 225.9914 93.5451 226.6944 C 93.728 227.3974 91.1257 230.1801 90.557 230.4075 C 89.9887 230.6346 86.0178 229.1741 85.6964 228.7407 C 85.3752 228.3076 85.0656 224.0796 85.504 223.5831 C 85.9429 223.087 90.0177 222.5227 90.4929 222.7168 Z " fill="#000000" stroke-width="2.5" stroke="none"/><path d="M 82.1817 235.4692 C 81.4276 236.4348 80.4206 238.1528 79.2343 237.673 C 77.5154 236.9716 76.1176 234.8808 76.1519 233.0256 C 76.1783 231.5824 78.1897 230.8417 79.547 230.3854 C 81.379 229.7701 86.3683 228.1532 85.2809 230 Z " fill="url(#color-41-,0,0,1,-133.02836,-0.51901)" stroke-width="2.5" stroke="none"/><path d="M 92.7728 240.6666 L 88.116 241.8726 C 87.1983 241.5177 87.3383 239.6672 87.6508 238.5684 C 88.133 236.4721 88.6423 233.2599 90.4083 232.6528 C 91.7437 232.1966 93.2233 234.9113 93.6267 236.5128 C 94.1022 237.8895 92.7728 240.6666 92.7728 240.6666 Z " fill="url(#color-42-,0,0,1,-133.02836,-0.51901)" stroke-width="2.5" stroke="none"/><path d="M 76.0958 224.9477 L 80.0277 220.1423 C 80.8398 219.6195 82.1016 220.032 82.8104 220.6413 C 83.7781 221.3484 85.3062 222.7669 84.5709 223.7096 C 83.2941 225.351 80.8717 225.6474 78.7391 225.9475 C 77.808 226.0792 76.0958 224.9477 76.0958 224.9477 Z " fill="url(#color-43-,0,0,1,-133.02836,-0.51901)" stroke-width="2.5" stroke="none"/><path d="M 98.4951 224.6583 C 99.4512 226.9839 99.4804 229.8067 98.9512 232.3029 C 98.8059 232.9832 97.565 231.9211 97.0518 231.4898 C 95.8647 230.3734 94.195 229.3652 93.9582 227.7575 C 93.7985 226.6839 95.3284 225.5971 96.1197 225.3068 Z " fill="url(#color-44-,0,0,1,-133.02836,-0.51901)" stroke-width="2.5" stroke="none"/><path d="M 87.6591 217.6897 L 91.1481 217.8682 L 94.0838 219.5241 C 94.0838 219.5241 94.0219 220.5494 93.6546 220.7851 C 92.6768 221.4149 91.3843 222.5222 90.2087 222.2024 C 88.9492 221.8431 88.251 220.3014 87.5482 219.1385 C 87.3328 218.7016 87.6591 217.6897 87.6591 217.6897 Z " fill="url(#color-45-,0,0,1,-133.02836,-0.51901)" stroke-width="2.5" stroke="none"/></g><path d="M 90.5787 224.8256 C 90.8996 225.1551 91.0954 225.6067 91.0891 226.1028 C 91.0829 226.5986 90.8758 227.0451 90.5467 227.3664 C 90.2172 227.6873 89.7656 227.8831 89.2698 227.8769 C 88.7737 227.8706 88.3272 227.6635 88.0059 227.3344 C 87.685 227.0049 87.4895 226.5533 87.4957 226.0575 C 87.502 225.5614 87.7088 225.1149 88.0379 224.7937 C 88.3674 224.4727 88.819 224.2772 89.3151 224.2835 C 89.8109 224.2897 90.2574 224.4965 90.5786 224.8257 Z " fill="url(#color-46-,0,0,1,-133.02836,-0.51901)" stroke-width="2.5" stroke="none"/></g></g></g><g data-paper-data="{&quot;origRot&quot;:0}"><g data-paper-data="{&quot;origPos&quot;:null}"><path d="M 117.2691 13.7292 C 125.3152 14.5129 134.1136 16.0001 140.365 21.1148 C 145.2084 25.0739 147.3506 32.27 146.7029 38.3978 C 145.9195 51.8281 144.8426 66.9698 136.2506 77.3741 C 129.9829 84.951 117.4423 88.4537 108.0744 86.1924 C 99.1376 84.0339 92.9381 74.6663 88.7229 66.4963 C 83.3841 56.4087 81.0272 44.5984 82.533 33.4418 C 82.8646 26.3242 87.784 19.1096 93.8588 15.5156 C 100.636 11.5034 109.5091 12.6096 117.269 13.7293 Z " fill="#ffd499" stroke="none" stroke-linecap="butt" stroke-width="2.5"/><path d="M 140.4777 80.5713 C 140.4777 80.5713 86.885 77.5335 80.1096 66.9858 C 70.5004 52.4541 71.4784 24.726 71.4784 24.726 C 71.4784 24.726 70.0584 0.0441 71.0051 0 C 71.9212 -0.0427 102.0676 2.8942 102.0676 2.8942 C 102.0676 2.8942 121.9282 4.7227 136.4866 15.0298 C 148.1111 23.2598 155.8641 43.9193 159.113 54.2531 C 162.362 64.587 164.9841 80.6977 164.9841 80.6977 Z " data-paper-data="{&quot;origPos&quot;:null}" fill="#ffffff" stroke="#000000" stroke-linecap="round" stroke-width="2.5"/><g stroke-linecap="butt"><path d="M 73.3028 21.9385 L 113.4157 24.6534 L 112.6724 35.6349 L 73.6714 32.9652 Z " data-paper-data="{&quot;origPos&quot;:null}" stroke-width="2.5" fill="#ff0000" stroke="none"/><path d="M 73.8989 35.4009 L 97.474 37.0066 L 97.2779 39.9044 L 74.2587 38.3214 Z " data-paper-data="{&quot;origPos&quot;:null}" stroke-width="2.5" fill="#ff0000" stroke="none"/></g><path d="M 157.6498 53.2349 L 158.6278 61.4218 L 114.4382 57.818 C 114.4382 57.818 93.072 55.7283 92.4113 39.1666 C 91.9018 26.3966 112.3848 27.0352 112.3848 27.0352 L 145.4817 29.2753 Z " fill="#000000" stroke="#000000" stroke-linecap="round" stroke-width="2.5"/><path d="M 99.8139 29.402 C 104.2489 27.2169 113.9038 26.8683 114.6623 27.3426 C 115.3765 27.7923 107.2751 30.1797 103.6246 31.9582 C 101.0015 33.4967 96.9371 37.904 95.9113 37.2585 C 94.9622 36.6579 97.2883 30.9042 99.8139 29.402 Z " fill="#ffffff" stroke="none" stroke-linecap="round" stroke-width="2.5"/></g><path d="M 90.0666 43.5018 L 78.996 50.5989 L 77.6898 42.3383 Z " data-paper-data="{&quot;origPos&quot;:null}" fill="#000000" stroke="none" stroke-linecap="round" stroke-width="2.5"/></g><g data-paper-data="{&quot;origRot&quot;:0}"><path d="M 38.0473 158.6807 C 33.2728 152.2335 48.4621 142.8551 57.3694 141.3909 C 68.1609 139.6702 77.9512 148.1586 88.8203 150.9409 C 100.4698 153.9411 114.6809 152.0919 123.8221 159.9228 C 129.7696 165.0334 133.446 178.9052 126.8741 182.1273 C 114.9449 188.6814 99.4676 183.1856 86.6181 179.5863 C 69.6431 174.8799 47.4549 171.8515 38.0473 158.6807 Z " data-paper-data="{&quot;origPos&quot;:null}" fill="#000000" stroke="#000000" stroke-linecap="round" stroke-width="2.5"/><path d="M 78.3047 81.0432 C 82.9832 78.563 91.5366 84.4473 91.3417 90.1273 C 90.8609 102.2803 80.5809 112.14 76.0254 123.2302 C 70.3142 135.7955 70.5735 151.9862 60.4504 161.1234 C 54.6909 166.3081 39.7057 165.5219 38.3798 158.3645 C 35.0166 142.8755 43.0817 126.6532 50.4537 112.8318 C 57.0423 100.3852 65.8348 87.5541 78.3047 81.0432 Z " data-paper-data="{&quot;origRot&quot;:0}" fill="#000000" stroke="#000000" stroke-linecap="round" stroke-width="2.5"/><g><g stroke-linecap="round"><path d="M 147.3959 153.2845 C 150.0555 151.5315 154.6274 152.7037 158.1105 152.9427 C 161.476 153.1883 165.6646 152.7521 168.0797 154.5316 C 170.1879 156.0859 170.7903 159.4796 168.7411 160.9547 C 166.2488 162.747 161.747 162.1167 158.1896 162.0662 C 154.3851 161.8338 149.4999 162.2415 146.9851 160.0988 C 144.847 158.2782 145.1147 154.7092 147.3958 153.2844 Z " stroke-width="2.5" fill="#363a36" stroke="none"/><path d="M 146.7806 161.442 C 149.4403 159.689 154.0122 160.8612 157.4953 161.1002 C 160.8608 161.3458 165.0494 160.9096 167.4645 162.6892 C 169.5727 164.2435 170.1751 167.6371 168.1258 169.1122 C 165.6335 170.9045 161.1318 170.2742 157.5744 170.2238 C 153.7699 169.9913 148.8847 170.3991 146.3699 168.2564 C 144.2317 166.4358 144.4995 162.8667 146.7806 161.4419 Z " stroke-width="2.5" fill="#363a36" stroke="none"/><path d="M 145.7577 170.4289 C 148.4174 168.6759 152.9892 169.8481 156.4723 170.0871 C 159.8379 170.3327 164.0264 169.8965 166.4415 171.6761 C 168.5497 173.2304 169.1521 176.624 167.1029 178.0991 C 164.6106 179.8914 160.1089 179.2611 156.5514 179.2107 C 152.747 178.9782 147.8617 179.3859 145.3469 177.2433 C 143.2088 175.4227 143.4765 171.8536 145.7576 170.4288 Z " stroke-width="2.5" fill="#363a36" stroke="none"/><path d="M 145.953 179.5416 C 148.6127 177.7886 153.1846 178.9608 156.6677 179.1998 C 160.0332 179.4454 164.2218 179.0092 166.6369 180.7888 C 168.7451 182.3431 169.3475 185.7367 167.2982 187.2119 C 164.8059 189.0041 160.3042 188.3738 156.7468 188.3234 C 152.9423 188.091 148.0571 188.4987 145.5423 186.356 C 143.4041 184.5354 143.6719 180.9663 145.953 179.5415 Z " stroke-width="2.5" fill="#363a36" stroke="none"/></g><g stroke-linecap="round"><path d="M 126.9299 161.9357 C 136.5792 157.5861 136.7923 155.9365 137.5893 155.3281 C 140.7715 152.8944 144.2637 150.3427 148.2163 149.6939 C 151.9534 149.0854 158.5598 150.5209 159.2948 151.4528 C 159.8606 152.5266 153.9807 153.5322 151.2628 154.3888 C 149.4903 154.9509 147.7093 155.5129 145.919 156.0215 C 144.0583 156.5502 142.1844 157.0561 140.3014 157.506 C 139.2854 157.7481 137.9352 158.675 137.2192 158.1 Z " fill="none" stroke="#353937" stroke-width="2.5"/><path d="M 117.3324 160.8383 C 119.9707 160.9452 122.6246 161.3505 125.2585 161.1006 C 127.1574 160.9212 129.0361 160.4378 130.8667 159.8942 C 134.6625 158.767 138.217 156.6937 142.1292 156.0907 C 146.8191 155.3747 152.3154 154.3509 157.0217 156.1661 C 159.0178 157.0201 158.3796 160.404 158.8914 162.7707 C 159.539 165.8296 159.7404 168.9993 159.8344 172.129 C 159.961 176.2926 161.4789 181.0759 159.4156 184.783 C 157.903 187.4139 153.869 187.4113 150.8136 188.1175 C 149.0093 188.5368 147.0892 188.1781 145.2513 187.9336 C 143.3776 187.6821 141.4727 187.3574 139.7259 186.637 C 137.9981 185.9255 136.6428 184.483 134.951 183.6947 C 133.1962 182.8765 131.3586 182.1226 129.4442 181.8419 C 123.9359 181.0361 118.3376 180.848 112.7851 180.4554 C 110.9352 180.3245 108.5376 181.4284 107.2229 180.2711 C 104.9215 169.8879 104.6437 165.0791 107.589 160.7942 C 109.5448 158.3226 114.0857 160.8451 117.3323 160.8383 Z " fill="#ffffff" stroke="#ffffff" stroke-width="2.5"/></g><path d="M 139.2963 159.0843 C 139.2163 159.2198 139.1663 159.3041 139.1663 159.3041 C 139.1663 159.3041 139.2163 159.2199 139.2963 159.0843 C 139.3781 158.9456 139.4885 158.7589 139.6112 158.5512 C 139.734 158.3435 139.8443 158.1568 139.9262 158.0181 C 140.0062 157.8825 140.0561 157.7983 140.0561 157.7983 C 140.0561 157.7983 140.0062 157.8825 139.9262 158.0181 C 139.8443 158.1568 139.734 158.3435 139.6112 158.5512 C 139.4885 158.7589 139.3782 158.9456 139.2963 159.0843 Z " fill="#eac18d" stroke="none" stroke-linecap="butt" stroke-width="2.5"/><path d="M 137.3049 178.4393 C 134.6947 174.3014 133.213 168.6173 134.6115 163.9212 C 135.4403 161.3669 139.6906 161.7018 142.3936 161.2931 C 145.6728 160.8013 149.4326 160.0909 152.6845 161.3452 C 154.0638 161.9353 153.6228 164.2735 153.9766 165.909 C 154.424 168.0228 154.5631 170.2128 154.6281 172.3755 C 154.7156 175.2526 156.0443 178.7652 154.3388 181.1193 C 152.867 183.0927 149.1156 182.6819 146.2259 182.1012 C 143.0936 181.763 139.1363 181.301 137.3049 178.4393 Z " fill="#000000" stroke="#000000" stroke-linecap="round" stroke-width="2.5"/></g><path d="M 51.8844 169.6272 C 45.8912 166.8339 38.2975 160.4538 38.2561 153.2625 C 38.7865 147.6181 47.0562 143.2019 52.8919 143.2107 C 64.2566 143.2355 73.8926 152.4621 85.1733 154.3368 C 96.6258 156.8671 109.3017 152.2395 120.4123 156.293 C 125.7659 158.2583 128.0194 165.7375 128.447 171.4292 C 128.778 175.8911 126.8399 182.8501 122.3542 184.7097 C 116.3431 187.2007 108.9533 185.1407 102.5227 183.6085 C 85.6502 179.5962 67.7439 177.0046 51.8844 169.6272 Z " fill="#ffffff" stroke="none" stroke-linecap="round" stroke-width="2.5"/><path d="M 76.2331 81.9034 C 80.8383 79.1696 92.0828 81.2855 91.6511 86.5013 C 90.6695 98.267 78.1556 106.0597 73.5883 117.1317 C 67.6227 130.192 69.4368 147.3147 60.2343 158.4777 C 55.7657 163.8958 40.0179 166.693 38.9631 159.9571 C 36.5588 142.2687 45.6879 124.4012 53.1971 108.7963 C 58.3115 98.1714 66.2037 87.8588 76.2331 81.9034 Z " data-paper-data="{&quot;origRot&quot;:0}" fill="#ffffff" stroke="none" stroke-linecap="round" stroke-width="2.5"/></g><path d="M 68.8035 125.1028 C 68.8035 125.1028 69.5123 109.4728 68.9418 102.1977 C 68.2437 93.297 73.6547 82.6416 73.6547 82.6416 C 73.6547 82.6416 85.4112 81.6105 92.4159 84.0715 C 97.1466 85.7337 103.7252 93.2069 103.7252 93.2069 L 103.7252 123.2774 Z " data-paper-data="{&quot;origPos&quot;:null}" fill="#ffffff" stroke="none" stroke-linecap="butt" stroke-width="2.5"/></g></g></g></svg>