<svg version="1.1" xmlns="http://www.w3.org/2000/svg" xmlns:xlink="http://www.w3.org/1999/xlink" width="234.19589" height="430.92747" viewBox="0,0,234.19589,430.92747"><defs><linearGradient x1="244.75819" y1="-6.22731" x2="244.75819" y2="124.09086" gradientUnits="userSpaceOnUse" id="color-1"><stop offset="0" stop-color="#3b2103"/><stop offset="1" stop-color="#000000"/></linearGradient><linearGradient x1="369.15561" y1="48.4743" x2="369.15561" y2="122.83455" gradientUnits="userSpaceOnUse" id="color-2"><stop offset="0" stop-color="#3fbf5b"/><stop offset="1" stop-color="#52f75b"/></linearGradient><linearGradient x1="386.5931" y1="88.63071" x2="396.38664" y2="88.63071" gradientUnits="userSpaceOnUse" id="color-3"><stop offset="0" stop-color="#00ab09"/><stop offset="1" stop-color="#185723"/></linearGradient><linearGradient x1="369.82244" y1="88.63071" x2="379.61598" y2="88.63071" gradientUnits="userSpaceOnUse" id="color-4"><stop offset="0" stop-color="#1a5125"/><stop offset="1" stop-color="#00ac09"/></linearGradient></defs><g transform="translate(-164.60524,-0.09454)"><g data-paper-data="{&quot;isPaintingLayer&quot;:true}" fill-rule="nonzero" stroke-linejoin="miter" stroke-miterlimit="10" stroke-dasharray="" stroke-dashoffset="0" style="mix-blend-mode: normal"><g data-paper-data="{&quot;origRot&quot;:0}" stroke-linecap="butt"><path d="M203.79296,372.60312l46.26389,-108.05015l20.99722,8.99039l-46.26389,108.05015z" data-paper-data="{&quot;index&quot;:null}" fill="#00c7c6" stroke="#004040" stroke-width="0.5"/><path d="M217.00321,343.3068l26.31326,-60.54349l4.29298,0.56426c0,0 -19.82668,43.79908 -23.23809,50.945c-1.398,2.92842 -4.49133,9.33172 -4.49133,9.33172z" data-paper-data="{&quot;origRot&quot;:0}" fill="#00e4e4" stroke="none" stroke-width="0"/></g><g data-paper-data="{&quot;index&quot;:null,&quot;origRot&quot;:0}" stroke-width="0.5" stroke-linecap="butt"><path d="M184.23532,298.58598c-8.39623,-4.3727 -11.441,-15.14064 -6.80061,-24.05096c4.64037,-8.91026 15.20862,-12.58884 23.60485,-8.21613c8.39624,4.3727 11.44096,15.14061 6.80062,24.05096c-4.64037,8.91027 -15.20863,12.58882 -23.60489,8.21613z" data-paper-data="{&quot;origPos&quot;:null}" fill="#fff8d5" stroke="#45433a"/><path d="M259.36976,185.72459c0,0 -24.80386,29.8234 -35.1825,51.75109c-10.37862,21.92766 -14.56907,50.6144 -14.56907,50.6144c0,0 -11.01938,0.91071 -18.69589,-1.40511c-7.6765,-2.31587 -15.77493,-8.99405 -15.77493,-8.99405c0,0 10.81116,-36.71199 22.56245,-57.72573c11.75131,-21.01373 30.06426,-44.91557 36.68034,-50.15917c7.06439,-5.59892 16.81925,-9.33785 32.33931,-0.02061z" data-paper-data="{&quot;origRot&quot;:0,&quot;origPos&quot;:null}" fill="#67ff26" stroke="#183b09"/></g><path d="M249.36508,156.46239c-77.39066,-1.90696 -78.09973,-50.33027 -78.09973,-50.33027c0,0 18.8597,-37.6857 62.15536,-37.6857c43.29566,0 82.14878,29.95544 82.14878,29.95544c0,0 -3.84229,60.6555 -66.20441,58.06053z" data-paper-data="{&quot;index&quot;:null}" fill="#2b1702" stroke="#0f0801" stroke-width="1" stroke-linecap="butt"/><path d="M227.80946,176.03469c0,0 0,-8.463 0,-13.87975c0,-10.40439 0,-26.65993 0,-26.65993h35.32745v40.53968z" data-paper-data="{&quot;index&quot;:null}" fill="#fff8d5" stroke="#514f44" stroke-width="0.5" stroke-linecap="butt"/><g data-paper-data="{&quot;origRot&quot;:0}" stroke-linecap="butt"><path d="M264.72618,372.7053l-54.9551,-100.1153l17.04255,-15.20734l54.9551,100.1153z" data-paper-data="{&quot;origRot&quot;:0,&quot;index&quot;:null}" fill="#00c7c6" stroke="#004040" stroke-width="0.5"/><path d="M253.19713,349.71217l-32.27708,-57.58552l3.04705,-3.07628c0,0 8.4779,18.21086 14.46993,29.34802c4.36178,8.10707 16.73777,29.20352 16.73777,29.20352z" fill="#00e4e4" stroke="none" stroke-width="0"/></g><path d="M262.49109,153.69102v14.61241l-17.73927,0.74822l-3.37679,-17.24839z" data-paper-data="{&quot;index&quot;:null}" fill="#d4ceb2" stroke="#000000" stroke-width="0" stroke-linecap="butt"/><path d="M218.26238,166.16845c5.84676,-0.2012 18.28287,0.36938 28.93246,0.46479c10.64961,0.09541 29.09328,-0.72524 29.09328,-0.72524c0,0 3.99514,123.97461 0.50292,127.37902c-4.39569,4.28519 -27.36769,6.68752 -39.13541,6.68752c-17.18406,0 -20.10138,-0.39785 -22.05943,-5.81291c-2.6983,-7.46222 2.6662,-127.99318 2.6662,-127.99318z" data-paper-data="{&quot;index&quot;:null}" fill="#67ff26" stroke="#183b09" stroke-width="0.5" stroke-linecap="butt"/><path d="M267.04474,299.1178l0.11696,-132.27199l4.05394,-0.00026c0,0 -0.05313,61.39849 -0.08713,100.69665c-0.01163,13.44788 -0.02981,31.57562 -0.02981,31.57562z" data-paper-data="{&quot;index&quot;:null}" fill="#82a19f" stroke="#2b3434" stroke-width="0.25" stroke-linecap="butt"/><path d="M322.82978,83.65576c0,39.81323 -34.65317,72.08822 -77.4,72.08822c-42.7468,0 -77.4,-32.27501 -77.4,-72.08822c0,-39.81323 34.65317,-72.08822 77.4,-72.08822c42.7468,0 77.4,32.27499 77.4,72.08822z" data-paper-data="{&quot;index&quot;:null}" fill="#fff8d5" stroke="#514f44" stroke-width="0.5" stroke-linecap="butt"/><path d="M302.92253,65.68061l20.32294,11.79585c0,0 -22.47732,4.12758 -26.10569,-0.5021c-3.6284,-4.62968 -11.51257,-19.90625 -19.99085,-23.03097c-8.95896,-3.30187 -13.69163,1.12359 -23.15459,1.4991c-8.60316,0.34141 -13.74195,-3.50175 -22.02582,-0.97867c-4.6091,1.40382 -17.11212,11.89893 -17.11212,11.89893l0.05363,-13.86259c0,0 0.78828,13.17416 -4.39366,19.13258c-5.18193,5.95845 -15.46039,3.69649 -15.46039,3.69649l7.51846,-13.35965c0,0 -3.7284,4.78889 -7.3405,12.61084c-3.61208,7.82196 12.03412,-49.92364 14.85142,-54.61642c5.09024,-8.47872 60.9225,7.96962 74.00613,7.08221c8.90278,-0.60383 18.83102,38.63439 18.83102,38.63439z" data-paper-data="{&quot;index&quot;:null}" fill="#8a7967" stroke="#000000" stroke-width="0" stroke-linecap="butt"/><path d="M170.36333,102.03493v-19.72941h150.75291v19.72941z" data-paper-data="{&quot;index&quot;:null}" fill="#000000" stroke="#000000" stroke-width="0" stroke-linecap="butt"/><path d="M299.49322,70.15619c-3.16854,-5.96666 -7.26886,-19.90625 -16.39628,-23.03097c-9.64489,-3.30187 -14.73986,1.12356 -24.92736,1.49908c-9.26185,0.34141 -14.79405,-3.50175 -23.71216,-0.97867c-8.91811,2.52308 -18.42228,11.89893 -18.42228,11.89893l0.05776,-13.86259c0,0 0.84863,13.17416 -4.73005,19.13261c-5.5787,5.95845 -16.64407,3.69649 -16.64407,3.69649l8.0941,-13.35965c0,0 -4.01386,4.78889 -7.9025,12.61084c-3.88864,7.82196 -11.23277,18.51577 -17.87236,30.05855c-6.63962,11.54279 3.62684,33.45968 3.62684,33.45968c0,0 -10.90667,-22.90419 -11.90918,-25.39794c-0.10488,-0.26095 -3.68173,-10.12991 -3.65023,-18.59456c0.06433,-17.28812 0.57183,-36.1885 0.57183,-36.1885c0,0 2.43476,-17.1453 5.46778,-21.83806c5.47995,-8.47872 8.988,-10.53416 16.21676,-15.61704c7.22874,-5.08286 21.66336,-10.72209 23.22158,-7.92368c1.69659,3.04688 -12.60743,6.94058 -12.51638,6.91174c5.72845,-1.81435 23.89371,-12.6723 43.45281,-12.00874c19.55909,0.66353 57.32037,13.09191 55.70867,16.1421c-1.17668,1.62417 -12.82075,-3.87268 -12.82075,-3.87268c0,0 24.75868,10.99058 29.33497,24.60744c4.73359,14.08495 7.97476,21.99322 9.52689,36.77104c0.80053,7.62196 0.81028,11.99824 -0.26501,19.58629c-3.15263,22.24734 -5.58728,16.42901 -5.58728,16.42901c0,0 -14.77215,-9.48722 -13.18672,-23.365c0,0 -1.56881,-10.79904 -4.73737,-16.76572z" data-paper-data="{&quot;index&quot;:null}" fill="url(#color-1)" stroke="#0f0801" stroke-width="1" stroke-linecap="butt"/><path d="M291.29562,113.88501c0,-5.7026 0,-23.72027 0,-41.05352c0,-1.26055 2.64631,-3.22997 2.64631,-3.22997c0,0 13.51638,-3.36079 22.47031,-3.36079c1.42156,0 3.64258,2.3101 3.64258,3.78868c0,17.22427 0,38.75946 0,44.13501c0,1.79181 -2.22104,4.59138 -3.64258,4.59138c0,0 -17.31823,0 -21.52415,0c-1.402,0 -3.59243,-2.96989 -3.59243,-4.87075z" data-paper-data="{&quot;index&quot;:null}" fill="#000000" stroke="#00360a" stroke-width="0" stroke-linecap="butt"/><path d="M268.38503,134.61337h19.9072" data-paper-data="{&quot;index&quot;:null}" fill="none" stroke="#000000" stroke-width="0.5" stroke-linecap="round"/><path d="M276.3314,113.2444c0,1.90086 -2.19043,4.87075 -3.59243,4.87075c-4.20592,0 -21.52415,0 -21.52415,0c-1.42154,0 -3.64258,-2.79955 -3.64258,-4.59138c0,-5.37555 0,-26.91075 0,-44.13501c0,-1.47859 2.22102,-3.78868 3.64258,-3.78868c8.95395,0 22.47031,3.36079 22.47031,3.36079c0,0 2.64631,1.96943 2.64631,3.22997c0,17.33326 0,35.35092 0,41.05352z" data-paper-data="{&quot;index&quot;:null}" fill="#000000" stroke="#00360a" stroke-width="0" stroke-linecap="butt"/><path d="M216.08525,293.95154c0,0 -0.6176,-9.49727 -0.6176,-15.37833c0,-17.64325 2.09301,-87.19201 2.09301,-87.19201l1.70869,0.17155l0.58331,106.10443z" fill="#b7ff97" stroke="none" stroke-width="0" stroke-linecap="butt"/><path d="M267.65179,295.86613c0,0 3.2258,-6.2566 3.90692,-25.94133c0.72488,-20.9486 4.73954,-78.17647 4.73954,-78.17647c0,0 1.44108,42.61587 1.44108,69.89221c0,12.65399 -1.44108,32.42423 -1.44108,32.42423z" fill="#56d420" stroke="none" stroke-width="0" stroke-linecap="butt"/><g data-paper-data="{&quot;index&quot;:null,&quot;origRot&quot;:0}"><g data-paper-data="{&quot;index&quot;:null}" stroke="#1b1600" stroke-width="0.5"><path d="M260.45812,422.88507c-1.00929,-0.22159 -4.45339,-51.52799 -2.72846,-63.42762c0.99367,-6.85502 32.39459,-3.67721 32.11603,0.06466c-0.81353,10.92887 6.86631,36.06616 6.86631,36.06616c0,0 7.34047,4.23681 11.19957,7.52323c11.283,9.60856 3.82011,25.81906 -14.53259,24.8599c0,0 -15.61734,-1.28704 -32.92088,-5.08628z" data-paper-data="{&quot;origPos&quot;:null}" fill="#907900" stroke-linecap="butt"/><path d="M283.11899,396.03529c0,0 9.52393,-1.16049 13.92997,-0.05982c4.40607,1.10065 5.21709,3.0251 5.21709,3.0251" data-paper-data="{&quot;origPos&quot;:null}" fill="none" stroke-linecap="round"/></g><path d="M292.8901,394.92327l-6.26395,-36.60958l2.42943,0.8485c0,0 0.58358,6.78106 1.29623,10.52329c1.93871,10.1805 5.49757,25.15195 5.49757,25.15195z" fill="#b19300" stroke="none" stroke-width="0" stroke-linecap="butt"/><path d="M309.5711,421.54652c-0.06577,1.25844 1.41599,-8.63765 -1.00833,-12.91986c-2.42431,-4.2822 -13.30347,-12.35988 -13.30347,-12.35988c0,0 12.24944,5.30256 16.19423,12.27045c3.9448,6.9679 -1.81666,11.75084 -1.88242,13.00927z" fill="#b19300" stroke="none" stroke-width="0" stroke-linecap="butt"/><path d="M261.07747,422.34487c0,0 -2.23167,-20.72061 -2.5723,-33.92602c-0.29212,-11.32539 -0.89928,-29.0278 -0.89928,-29.0278l4.62038,-3.46922c0,0 1.62458,15.05454 2.18613,29.79887c0.56155,14.74431 2.22483,37.53316 2.22483,37.53316z" fill="#665500" stroke="none" stroke-width="0" stroke-linecap="butt"/></g><g data-paper-data="{&quot;origRot&quot;:0}"><g data-paper-data="{&quot;index&quot;:null,&quot;origRot&quot;:0}" stroke="#1b1600" stroke-width="0.5"><path d="M169.76407,403.76433c-0.72267,-0.73857 30.40088,-41.22917 38.36641,-50.23625c4.58865,-5.18868 28.73114,15.99268 26.44704,18.96965c-6.67112,8.69471 -19.7469,28.14897 -19.7469,28.14897c0,0 4.03524,7.7272 5.46144,12.59128c4.16987,14.2212 -10.95772,23.68851 -25.78177,12.82617c0,0 -12.35649,-9.63721 -24.74619,-22.29979z" data-paper-data="{&quot;origPos&quot;:null}" fill="#907900" stroke-linecap="butt"/><path d="M203.43482,393.72944c0,0 8.6018,4.25 11.68351,7.58575c3.08183,3.33577 2.70522,5.38993 2.70522,5.38993" data-paper-data="{&quot;origPos&quot;:null}" fill="none" stroke-linecap="round"/></g><path d="M170.36009,403.95026l39.15595,-51.40509l2.60877,1.31604c0,0 -3.34436,1.84931 -11.86127,13.03531c-6.93041,9.10232 -28.30177,38.52511 -28.30177,38.52511z" data-paper-data="{&quot;origRot&quot;:0}" fill="#b19300" stroke="none" stroke-width="0" stroke-linecap="butt"/></g><g data-paper-data="{&quot;origRot&quot;:0}" stroke-linecap="butt"><g data-paper-data="{&quot;index&quot;:null,&quot;origRot&quot;:0}" stroke-width="0.5"><path d="M285.7299,306.73473c-8.49788,4.1717 -18.97568,0.24295 -23.40284,-8.7752c-4.42711,-9.01812 -1.12724,-19.71066 7.37064,-23.88237c8.49788,-4.17172 18.97564,-0.24294 23.40284,8.7752c4.42711,9.01812 1.12723,19.71066 -7.37066,23.8824z" data-paper-data="{&quot;origPos&quot;:null}" fill="#fff8d5" stroke="#45433a"/><path d="M239.34762,179.3316c0,0 9.32314,37.65297 20.83501,59.0075c11.51188,21.3545 32.13527,41.73008 32.13527,41.73008c0,0 -5.79669,9.41565 -12.21128,14.22656c-6.4146,4.81089 -16.59306,7.37646 -16.59306,7.37646c0,0 -23.16408,-30.46435 -33.12633,-52.38292c-9.96223,-21.9186 -18.36226,-50.834 -18.6651,-59.2706c-0.32337,-9.00829 2.44586,-19.08142 19.1482,-26.06105z" data-paper-data="{&quot;origRot&quot;:0,&quot;origPos&quot;:null}" fill="#67ff26" stroke="#183b09"/></g><path d="M263.22709,300.76466c0,0 -25.9183,-36.3839 -34.25564,-56.84609c-11.10244,-27.24849 -7.11838,-19.46134 -14.18653,-41.2664c-6.20919,-19.15524 -1.38221,-18.58163 -1.38221,-18.58163c0,0 11.03165,36.05623 20.69617,60.23736c7.35865,18.41171 34.17321,54.58076 34.17321,54.58076z" fill="#b7ff97" stroke="none" stroke-width="0"/></g><path d="M211.03991,190.82381l5.19514,-24.244l11.33486,1.73171v22.51229z" data-paper-data="{&quot;index&quot;:null}" fill="#67ff26" stroke="none" stroke-width="0" stroke-linecap="butt"/><g><path d="M339.51008,89.65909c0,-18.32231 29.64553,-46.07937 29.64553,-46.07937c0,0 29.64553,26.75514 29.64553,46.07937c0,19.32422 -13.27275,33.17546 -29.64552,33.17546c-16.37277,0 -29.64553,-14.85316 -29.64553,-33.17547z" data-paper-data="{&quot;origPos&quot;:null,&quot;index&quot;:null}" fill="url(#color-2)" stroke="#0066ff" stroke-width="0" stroke-linecap="butt"/><g data-paper-data="{&quot;index&quot;:null}"><g data-paper-data="{&quot;origPos&quot;:null}" stroke="#ffffff" stroke-width="0" stroke-linecap="butt"><path d="M391.48988,100.56559c-2.70441,0 -4.89678,-5.34343 -4.89678,-11.93487c0,-6.59146 -0.23896,-11.93487 4.89678,-11.93487c5.13572,0 4.89676,5.34343 4.89676,11.93487c0,6.59144 -2.19235,11.93487 -4.89676,11.93487z" data-paper-data="{&quot;origPos&quot;:null,&quot;index&quot;:null}" fill="url(#color-3)"/><path d="M374.71922,100.56557c-2.70441,0 -4.89678,-5.34343 -4.89678,-11.93487c0,-3.35009 -0.23896,-11.93487 4.89678,-11.93487c5.13572,0 4.89676,5.34343 4.89676,11.93487c0,6.59144 -2.19235,11.93487 -4.89676,11.93487z" data-paper-data="{&quot;origPos&quot;:null,&quot;index&quot;:null}" fill="url(#color-4)"/></g><path d="M387.95519,109.70288c0,0 -2.87995,1.53167 -4.24074,1.54697c-1.91237,0.02149 -4.14632,-1.45273 -4.14632,-1.45273" data-paper-data="{&quot;origPos&quot;:null}" fill="none" stroke="#268436" stroke-width="2.5" stroke-linecap="round"/></g></g></g></g></svg>