<svg version="1.1" xmlns="http://www.w3.org/2000/svg" xmlns:xlink="http://www.w3.org/1999/xlink" width="156.36275" height="315.71237" viewBox="0,0,156.36275,315.71237"><defs><radialGradient cx="218.49704" cy="389.10709" r="13.52819" gradientUnits="userSpaceOnUse" id="color-1"><stop offset="0" stop-color="#000000"/><stop offset="1" stop-color="#000000"/></radialGradient><radialGradient cx="278.79636" cy="333.7559" r="13.18356" gradientUnits="userSpaceOnUse" id="color-2"><stop offset="0" stop-color="#000000"/><stop offset="1" stop-color="#000000"/></radialGradient><radialGradient cx="211.92325" cy="283.01704" r="8.75328" gradientUnits="userSpaceOnUse" id="color-3"><stop offset="0" stop-color="#000000"/><stop offset="1" stop-color="#000000"/></radialGradient><radialGradient cx="284.28231" cy="284.51704" r="8.75328" gradientUnits="userSpaceOnUse" id="color-4"><stop offset="0" stop-color="#000000"/><stop offset="1" stop-color="#000000"/></radialGradient></defs><g transform="translate(-176.53357,-77.61865)"><g data-paper-data="{&quot;isPaintingLayer&quot;:true}" fill-rule="nonzero" stroke-linejoin="miter" stroke-miterlimit="10" stroke-dasharray="" stroke-dashoffset="0" style="mix-blend-mode: normal"><g data-paper-data="{&quot;origPos&quot;:null}"><path d="M228.7432,392.331l-10.82074,0.00002l-0.00008,-84.1754" id="ID0.43897221656516194" fill="none" stroke="url(#color-1)" stroke-width="2" stroke-linecap="round"/><path d="M288.93762,392.2662l-10.82074,0.00001l-0.00008,-84.1754" id="ID0.43897221656516194" fill="none" stroke="url(#color-2)" stroke-width="2" stroke-linecap="round"/><path d="M217.98707,211.28936l60.25921,-0.00006l0.0001,96.22024l-60.25921,0.00005z" id="ID0.7297499743290246" fill="#0251ff" stroke="#0344b1" stroke-width="2" stroke-linecap="butt"/><g id="ID0.9996707611717284" stroke-width="1"><path d="M238.3502,253.01164c-2.1291,0.14617 -3.81336,-4.90801 -6.50543,-4.82696c-2.83751,0.13812 -4.13059,5.09139 -6.66898,5.34945c-1.37658,0.13891 -1.24156,-2.91397 -1.16346,-4.44074c0.1146,-2.18833 0.36446,-4.50779 1.61086,-6.26509c1.12772,-1.58949 3.1763,-3.82718 5.03166,-3.14807c3.59673,1.31684 6.34874,4.73334 8.27222,8.0676c0.88191,1.52618 0.82749,5.15055 -0.57686,5.26381z" id="ID0.10925169289112091" fill="#f5291b" stroke="#bb270e" stroke-linecap="round"/><path d="M246.92265,261.37654c2.12159,3.21185 3.9461,7.20147 3.51487,11.00734c-0.22261,1.96315 -3.14032,2.79433 -5.06638,3.09188c-2.12923,0.32862 -4.31545,-0.4855 -6.32387,-1.36194c-1.40042,-0.61313 -4.19121,-1.85807 -3.45118,-3.02709c1.36634,-2.15481 6.3748,-1.09549 7.76766,-3.57146c1.27676,-2.37144 -2.49008,-6.13871 -1.40691,-7.97752c0.72952,-1.20534 3.99537,0.36732 4.96582,1.8388z" id="ID0.10925169289112091" fill="#f5291b" stroke="#bb270e" stroke-linecap="round"/><path d="M271.32001,238.60292c2.01906,3.26743 1.94481,7.40366 0.19422,11.44738c-1.7517,4.04441 -5.17861,7.99564 -9.86557,10.89188c-4.68696,2.89624 -9.75379,4.1936 -14.15456,3.95102c-4.39967,-0.24327 -8.13219,-2.02716 -10.15125,-5.29458c-2.01906,-3.26743 -1.94481,-7.40366 -0.19421,-11.44738c1.75169,-4.04441 5.17862,-7.99563 9.86558,-10.89187c4.68696,-2.89624 9.75379,-4.1936 14.15457,-3.95103c4.39967,0.24327 8.13218,2.02716 10.15124,5.29458z" id="ID0.44616582430899143" fill="#e5e5e5" stroke="#b2b2b2" stroke-linecap="round"/><path d="M273.85747,237.8837c1.10479,1.89695 1.10484,4.37851 0.8231,6.53788c-0.31214,2.48453 -1.31742,4.86122 -2.55669,7.01793c-0.75021,1.30457 -1.79135,2.85479 -3.28957,3.10504c-1.03751,0.18768 -1.58913,-0.85624 -2.38577,-2.1256c-3.18543,-5.07811 -6.15358,-10.37475 -8.78808,-15.70905c-0.65776,-1.33219 -1.59731,-2.83033 -0.57784,-3.16619c3.50934,-1.15292 7.58067,-1.15345 11.21737,-0.19146c2.29617,0.57252 4.32834,2.42335 5.55748,4.53144z" id="ID0.34605008317157626" fill="#f5291b" stroke="#ae1f0a" stroke-linecap="round"/><path d="M258.13169,247.24088c1.01108,1.63623 1.26361,3.52979 0.85251,5.26665c-0.40931,1.73728 -1.48222,3.31785 -3.11845,4.32894c-1.63622,1.01108 -3.52979,1.26361 -5.26665,0.85252c-1.73728,-0.40931 -3.31786,-1.48222 -4.32894,-3.11845c-1.01108,-1.63623 -1.26361,-3.52979 -0.85251,-5.26665c0.40931,-1.73728 1.48222,-3.31786 3.11845,-4.32894c1.63622,-1.01108 3.5298,-1.26361 5.26666,-0.85252c1.73728,0.40931 3.31785,1.48222 4.32894,3.11845z" id="ID0.569763976149261" fill="#bbddff" stroke="#b2b2b2" stroke-linecap="butt"/><path d="M255.17779,246.57651c0.32606,0.52767 0.40735,1.13767 0.2741,1.69795c-0.13146,0.5607 -0.47704,1.06989 -1.00471,1.39596c-0.52767,0.32607 -1.13766,0.40735 -1.69795,0.27411c-0.5607,-0.13146 -1.06989,-0.47704 -1.39596,-1.00471c-0.32606,-0.52767 -0.40736,-1.13767 -0.27411,-1.69795c0.13146,-0.5607 0.47704,-1.06989 1.00471,-1.39596c0.52767,-0.32607 1.13767,-0.40735 1.69795,-0.2741c0.5607,0.13146 1.06989,0.47704 1.39596,1.00471z" id="ID0.17324856109917164" fill="#d9e9ff" stroke="none" stroke-linecap="butt"/><path d="M232.87407,257.5104c0.28983,0.5087 0.06338,1.22307 -0.11719,1.77123c-0.17301,0.52817 -0.46403,1.03888 -0.97618,1.35536c-0.51215,0.31648 -1.10542,0.39509 -1.64887,0.26675c-0.54345,-0.12833 -1.03889,-0.46403 -1.35536,-0.97618c-0.31647,-0.51215 -0.39509,-1.10542 -0.26675,-1.64888c0.12834,-0.54345 0.46403,-1.03888 0.97619,-1.35536c0.51215,-0.31648 1.10238,-0.37024 1.64887,-0.26676c0.61796,0.11753 1.38318,0.31716 1.73931,0.85383z" id="ID0.8451523161493242" fill="#f56d1b" stroke="#d55f18" stroke-linecap="round"/><path d="M233.78119,266.45209c0.28983,0.5087 0.06339,1.22307 -0.11718,1.77123c-0.17301,0.52817 -0.46403,1.03888 -0.97618,1.35536c-0.51215,0.31648 -1.10542,0.39509 -1.64888,0.26675c-0.54345,-0.12833 -1.03889,-0.46403 -1.35536,-0.97618c-0.31647,-0.51215 -0.39509,-1.10542 -0.26675,-1.64888c0.12834,-0.54345 0.46404,-1.03888 0.97619,-1.35536c0.51215,-0.31648 1.10238,-0.37024 1.64887,-0.26675c0.61796,0.11753 1.38317,0.31715 1.7393,0.85382z" id="ID0.8451523161493242" fill="#f56d1b" stroke="#d55f18" stroke-linecap="round"/><path d="M226.00581,263.34194c0.28983,0.5087 0.06338,1.22307 -0.11719,1.77123c-0.17301,0.52817 -0.46403,1.03888 -0.97618,1.35536c-0.51215,0.31648 -1.10542,0.39509 -1.64888,0.26675c-0.54345,-0.12833 -1.03888,-0.46403 -1.35536,-0.97618c-0.31647,-0.51215 -0.39509,-1.10542 -0.26676,-1.64887c0.12834,-0.54345 0.46403,-1.03888 0.97619,-1.35536c0.51215,-0.31648 1.10238,-0.37023 1.64887,-0.26675c0.61796,0.11753 1.38318,0.31715 1.73931,0.85382z" id="ID0.8451523161493242" fill="#f56d1b" stroke="#d55f18" stroke-linecap="round"/></g><path d="M208.26794,303.9347l4.21161,-57.10914l4.4708,-36.06529" data-paper-data="{&quot;origPos&quot;:null}" id="ID0.16875446680933237" fill="none" stroke="url(#color-3)" stroke-width="2" stroke-linecap="round"/><path d="M279.25521,212.26027l4.4708,36.06529l4.21161,57.10914" data-paper-data="{&quot;origPos&quot;:null}" id="ID0.16875446680933237" fill="none" stroke="url(#color-4)" stroke-width="2" stroke-linecap="round"/></g><g data-paper-data="{&quot;origPos&quot;:null}" id="ID0.4706640876829624" stroke-width="2"><path d="M247.79257,79.26658c19.03802,-0.00002 36.29031,7.73258 48.78148,20.22501c12.49246,12.49114 20.22509,29.74341 20.22511,48.78144c0.00002,19.03803 -7.73258,36.2903 -20.22502,48.78147c-12.49114,12.49246 -29.7434,20.22509 -48.78143,20.22511c-19.03803,0.00002 -36.29031,-7.73258 -48.78147,-20.22501c-12.49246,-12.49114 -20.2251,-29.74341 -20.22512,-48.78143c-0.00002,-19.03803 7.73259,-36.29031 20.22502,-48.78147c12.49114,-12.49246 29.7434,-20.22509 48.78143,-20.22511z" id="ID0.052302687894552946" fill="#ffffff" stroke="#cccccc" stroke-linecap="butt"/><path d="M179.82283,146.32933c-1.78963,0.84622 -2.41815,-3.41339 -2.26783,-5.50756c0.60129,-8.37797 0.90841,-17.20303 4.21164,-24.94602c3.58833,-7.86739 10.38789,-19.40089 19.43843,-24.62206c13.38272,-7.71189 29.1149,-10.88686 44.31967,-12.63504c11.30281,-1.1119 23.06696,0.86046 33.75812,4.21163c11.98835,3.75809 23.63977,9.47039 33.69334,17.04101c7.84536,6.16198 14.84582,14.19136 18.92012,23.32613c1.29331,2.89633 -2.21727,7.89979 -5.50756,7.77539c-5.2121,-0.20216 -8.35206,-6.27084 -12.95898,-8.81209c-1.04968,-0.66091 0.2812,1.05615 1.1663,2.13823c3.5391,4.327 9.50801,7.11446 11.20953,12.50539c0.80475,2.40518 -2.70324,5.43111 -5.37797,5.63716c-3.97711,0.30066 -7.21945,-3.36414 -11.01513,-4.73001c-13.36719,-4.72224 -26.29376,-11.86262 -40.49679,-13.54209c-19.18964,-2.2678 -38.96633,-0.46908 -57.99139,2.0735c-7.11447,0.9512 -13.71837,4.62118 -19.76242,8.61773c-4.50713,2.81728 -6.38098,9.11405 -11.33908,11.4687z" id="ID0.12275043269619346" fill="#0251ff" stroke="#0344b1" stroke-linecap="round"/></g><path d="M295.91173,148.14901c1.49546,2.84449 2.42074,6.77236 2.42074,11.10714c0,4.33478 -0.92527,8.26264 -2.42074,11.10713c-1.49546,2.84449 -3.56112,4.60562 -5.84061,4.60562c-2.27948,0 -4.34515,-1.76112 -5.84061,-4.60562c-1.49546,-2.84449 -2.42074,-6.77236 -2.42074,-11.10713c0,-4.33478 0.92527,-8.26264 2.42074,-11.10713c1.49546,-2.84449 3.56113,-4.60562 5.84061,-4.60562c2.27948,0 4.34514,1.76112 5.84061,4.60562z" data-paper-data="{&quot;origPos&quot;:null}" id="ID0.2136117359623313" fill="#000000" stroke="none" stroke-width="1" stroke-linecap="butt"/><path d="M250.42575,147.50106c1.49546,2.84449 2.42073,6.77236 2.42073,11.10714c0,4.33478 -0.92527,8.26264 -2.42073,11.10714c-1.49546,2.84449 -3.56113,4.60562 -5.84061,4.60562c-2.27948,0 -4.34514,-1.76112 -5.8406,-4.60561c-1.49546,-2.84449 -2.42073,-6.77236 -2.42073,-11.10713c0,-4.33478 0.92527,-8.26264 2.42073,-11.10713c1.49546,-2.84449 3.56112,-4.60561 5.8406,-4.60561c2.27948,0 4.34515,1.76112 5.84061,4.60562z" data-paper-data="{&quot;origPos&quot;:null}" id="ID0.2136117359623313" fill="#000000" stroke="none" stroke-width="1" stroke-linecap="butt"/><path d="M265.33873,194.10067c0,0 -10.86494,0.31862 -16.16558,-0.53262c-4.15224,-0.66958 -8.07641,-2.51872 -12.06159,-3.94827c-0.97789,-0.36823 -1.75244,-1.23708 -1.75244,-1.23708" data-paper-data="{&quot;origPos&quot;:null}" id="ID0.46204856457188725" fill="none" stroke="#000000" stroke-width="2" stroke-linecap="round"/></g></g></svg>