<svg version="1.1" xmlns="http://www.w3.org/2000/svg" xmlns:xlink="http://www.w3.org/1999/xlink" width="1031.92192" height="1031.92192" viewBox="0,0,1031.92192,1031.92192"><defs><linearGradient x1="-48.76914" y1="-69.26773" x2="-48.76914" y2="542.32763" gradientUnits="userSpaceOnUse" id="color-1"><stop offset="0" stop-color="#00167d"/><stop offset="1" stop-color="#00167d" stop-opacity="0"/></linearGradient><linearGradient x1="652.54057" y1="251.0583" x2="310.01989" y2="-255.62546" gradientUnits="userSpaceOnUse" id="color-2"><stop offset="0" stop-color="#00167d"/><stop offset="1" stop-color="#00167d" stop-opacity="0"/></linearGradient><linearGradient x1="485.154" y1="-9.96402" x2="413.03312" y2="597.36414" gradientUnits="userSpaceOnUse" id="color-3"><stop offset="0" stop-color="#00167d"/><stop offset="1" stop-color="#00167d" stop-opacity="0"/></linearGradient><linearGradient x1="14.26895" y1="156.16421" x2="392.86662" y2="-324.16144" gradientUnits="userSpaceOnUse" id="color-4"><stop offset="0" stop-color="#00167d"/><stop offset="1" stop-color="#00167d" stop-opacity="0"/></linearGradient><linearGradient x1="395.56078" y1="413.63356" x2="-121.35704" y2="86.76223" gradientUnits="userSpaceOnUse" id="color-5"><stop offset="0" stop-color="#000000"/><stop offset="1" stop-color="#000000" stop-opacity="0"/></linearGradient><linearGradient x1="382.40694" y1="-66.84792" x2="363.90914" y2="544.46759" gradientUnits="userSpaceOnUse" id="color-6"><stop offset="0" stop-color="#000000"/><stop offset="1" stop-color="#000000" stop-opacity="0"/></linearGradient><linearGradient x1="-108.03546" y1="293.53299" x2="184.22952" y2="-243.71009" gradientUnits="userSpaceOnUse" id="color-7"><stop offset="0" stop-color="#000000"/><stop offset="1" stop-color="#000000" stop-opacity="0"/></linearGradient><linearGradient x1="-44.24115" y1="-105.55891" x2="566.34068" y2="-140.75616" gradientUnits="userSpaceOnUse" id="color-8"><stop offset="0" stop-color="#000000"/><stop offset="1" stop-color="#000000" stop-opacity="0"/></linearGradient><linearGradient x1="429.23436" y1="426.61135" x2="-181.35882" y2="461.61188" gradientUnits="userSpaceOnUse" id="color-9"><stop offset="0" stop-color="#000000"/><stop offset="1" stop-color="#000000" stop-opacity="0"/></linearGradient><linearGradient x1="380.32884" y1="300.13053" x2="-229.7653" y2="342.95671" gradientUnits="userSpaceOnUse" id="color-10"><stop offset="0" stop-color="#005669"/><stop offset="1" stop-color="#005669" stop-opacity="0"/></linearGradient><linearGradient x1="233.22722" y1="-80.21631" x2="633.42097" y2="382.27025" gradientUnits="userSpaceOnUse" id="color-11"><stop offset="0" stop-color="#005669"/><stop offset="1" stop-color="#005669" stop-opacity="0"/></linearGradient><linearGradient x1="111.37919" y1="324.49825" x2="114.06891" y2="-287.09127" gradientUnits="userSpaceOnUse" id="color-12"><stop offset="0" stop-color="#005669"/><stop offset="1" stop-color="#005669" stop-opacity="0"/></linearGradient><linearGradient x1="80.32214" y1="40.01807" x2="625.11857" y2="317.94962" gradientUnits="userSpaceOnUse" id="color-13"><stop offset="0" stop-color="#005669"/><stop offset="1" stop-color="#005669" stop-opacity="0"/></linearGradient><linearGradient x1="-67.17458" y1="355.29337" x2="499.32806" y2="585.77913" gradientUnits="userSpaceOnUse" id="color-14"><stop offset="0" stop-color="#00167d"/><stop offset="1" stop-color="#00167d" stop-opacity="0"/></linearGradient><linearGradient x1="493.8294" y1="-173.59095" x2="-104.57906" y2="-47.27292" gradientUnits="userSpaceOnUse" id="color-15"><stop offset="0" stop-color="#00167d"/><stop offset="1" stop-color="#00167d" stop-opacity="0"/></linearGradient><linearGradient x1="188.97082" y1="-116.91448" x2="724.34147" y2="178.76651" gradientUnits="userSpaceOnUse" id="color-16"><stop offset="0" stop-color="#00167d"/><stop offset="1" stop-color="#00167d" stop-opacity="0"/></linearGradient><linearGradient x1="165.39291" y1="381.85935" x2="-136.84026" y2="-149.83982" gradientUnits="userSpaceOnUse" id="color-17"><stop offset="0" stop-color="#00167d"/><stop offset="1" stop-color="#00167d" stop-opacity="0"/></linearGradient><linearGradient x1="547.57275" y1="125.70991" x2="49.99595" y2="481.33078" gradientUnits="userSpaceOnUse" id="color-18"><stop offset="0" stop-color="#000000"/><stop offset="1" stop-color="#000000" stop-opacity="0"/></linearGradient><linearGradient x1="97.55976" y1="-43.18023" x2="656.83205" y2="204.33401" gradientUnits="userSpaceOnUse" id="color-19"><stop offset="0" stop-color="#000000"/><stop offset="1" stop-color="#000000" stop-opacity="0"/></linearGradient><linearGradient x1="246.54193" y1="546.91502" x2="-140.94757" y2="73.73342" gradientUnits="userSpaceOnUse" id="color-20"><stop offset="0" stop-color="#000000"/><stop offset="1" stop-color="#000000" stop-opacity="0"/></linearGradient><linearGradient x1="-99.08361" y1="337.42256" x2="98.41795" y2="-241.40563" gradientUnits="userSpaceOnUse" id="color-21"><stop offset="0" stop-color="#000000"/><stop offset="1" stop-color="#000000" stop-opacity="0"/></linearGradient><linearGradient x1="572.28389" y1="99.40993" x2="374.59587" y2="678.17448" gradientUnits="userSpaceOnUse" id="color-22"><stop offset="0" stop-color="#000000"/><stop offset="1" stop-color="#000000" stop-opacity="0"/></linearGradient><linearGradient x1="436.69794" y1="97.0441" x2="246.44657" y2="678.29557" gradientUnits="userSpaceOnUse" id="color-23"><stop offset="0" stop-color="#005669"/><stop offset="1" stop-color="#005669" stop-opacity="0"/></linearGradient><linearGradient x1="28.95714" y1="89.96254" x2="608.16174" y2="-106.43246" gradientUnits="userSpaceOnUse" id="color-24"><stop offset="0" stop-color="#005669"/><stop offset="1" stop-color="#005669" stop-opacity="0"/></linearGradient><linearGradient x1="357.91274" y1="355.34729" x2="-207.57092" y2="122.37244" gradientUnits="userSpaceOnUse" id="color-25"><stop offset="0" stop-color="#005669"/><stop offset="1" stop-color="#005669" stop-opacity="0"/></linearGradient><linearGradient x1="82.7031" y1="276.90539" x2="545.45459" y2="-122.98213" gradientUnits="userSpaceOnUse" id="color-26"><stop offset="0" stop-color="#005669"/><stop offset="1" stop-color="#005669" stop-opacity="0"/></linearGradient><linearGradient x1="250.09551" y1="433.21928" x2="578.64488" y2="158.15881" gradientUnits="userSpaceOnUse" id="color-27"><stop offset="0" stop-color="#00167d"/><stop offset="1" stop-color="#00167d" stop-opacity="0"/></linearGradient><linearGradient x1="106.76606" y1="-87.58894" x2="-11.37865" y2="324.29055" gradientUnits="userSpaceOnUse" id="color-28"><stop offset="0" stop-color="#00167d"/><stop offset="1" stop-color="#00167d" stop-opacity="0"/></linearGradient><linearGradient x1="41.82563" y1="119.72406" x2="400.51847" y2="-114.67389" gradientUnits="userSpaceOnUse" id="color-29"><stop offset="0" stop-color="#00167d"/><stop offset="1" stop-color="#00167d" stop-opacity="0"/></linearGradient><linearGradient x1="342.84677" y1="297.9689" x2="-85.45593" y2="310.60881" gradientUnits="userSpaceOnUse" id="color-30"><stop offset="0" stop-color="#00167d"/><stop offset="1" stop-color="#00167d" stop-opacity="0"/></linearGradient><linearGradient x1="309.67634" y1="-22.65622" x2="366.56067" y2="402.04024" gradientUnits="userSpaceOnUse" id="color-31"><stop offset="0" stop-color="#000000"/><stop offset="1" stop-color="#000000" stop-opacity="0"/></linearGradient><linearGradient x1="57.47722" y1="200.50295" x2="394.19554" y2="-64.49458" gradientUnits="userSpaceOnUse" id="color-32"><stop offset="0" stop-color="#000000"/><stop offset="1" stop-color="#000000" stop-opacity="0"/></linearGradient><linearGradient x1="471.64681" y1="301.89028" x2="51.5956" y2="386.5064" gradientUnits="userSpaceOnUse" id="color-33"><stop offset="0" stop-color="#000000"/><stop offset="1" stop-color="#000000" stop-opacity="0"/></linearGradient><linearGradient x1="228.56344" y1="447.10852" x2="-64.94908" y2="134.9333" gradientUnits="userSpaceOnUse" id="color-34"><stop offset="0" stop-color="#000000"/><stop offset="1" stop-color="#000000" stop-opacity="0"/></linearGradient><linearGradient x1="301.50358" y1="-46.58237" x2="594.91557" y2="265.6874" gradientUnits="userSpaceOnUse" id="color-35"><stop offset="0" stop-color="#000000"/><stop offset="1" stop-color="#000000" stop-opacity="0"/></linearGradient><linearGradient x1="255.55294" y1="36.57347" x2="552.94437" y2="345.05571" gradientUnits="userSpaceOnUse" id="color-36"><stop offset="0" stop-color="#005669"/><stop offset="1" stop-color="#005669" stop-opacity="0"/></linearGradient><linearGradient x1="117.38811" y1="286.65473" x2="185.85217" y2="-136.32943" gradientUnits="userSpaceOnUse" id="color-37"><stop offset="0" stop-color="#005669"/><stop offset="1" stop-color="#005669" stop-opacity="0"/></linearGradient><linearGradient x1="389.60134" y1="170.09418" x2="59.84542" y2="443.70708" gradientUnits="userSpaceOnUse" id="color-38"><stop offset="0" stop-color="#005669"/><stop offset="1" stop-color="#005669" stop-opacity="0"/></linearGradient><linearGradient x1="250.7461" y1="314.72083" x2="155.03298" y2="-102.94165" gradientUnits="userSpaceOnUse" id="color-39"><stop offset="0" stop-color="#005669"/><stop offset="1" stop-color="#005669" stop-opacity="0"/></linearGradient><linearGradient x1="407.5001" y1="227.2614" x2="312.13431" y2="-22.96786" gradientUnits="userSpaceOnUse" id="color-40"><stop offset="0" stop-color="#00167d"/><stop offset="1" stop-color="#00167d" stop-opacity="0"/></linearGradient><linearGradient x1="70.61671" y1="205.55752" x2="289.76305" y2="359.45387" gradientUnits="userSpaceOnUse" id="color-41"><stop offset="0" stop-color="#00167d"/><stop offset="1" stop-color="#00167d" stop-opacity="0"/></linearGradient><linearGradient x1="179.80262" y1="286.25214" x2="114.60985" y2="26.52294" gradientUnits="userSpaceOnUse" id="color-42"><stop offset="0" stop-color="#00167d"/><stop offset="1" stop-color="#00167d" stop-opacity="0"/></linearGradient><linearGradient x1="346.55697" y1="144.85722" x2="266.55387" y2="400.41314" gradientUnits="userSpaceOnUse" id="color-43"><stop offset="0" stop-color="#00167d"/><stop offset="1" stop-color="#00167d" stop-opacity="0"/></linearGradient><linearGradient x1="150.4076" y1="98.97045" x2="412.86912" y2="152.10428" gradientUnits="userSpaceOnUse" id="color-44"><stop offset="0" stop-color="#000000"/><stop offset="1" stop-color="#000000" stop-opacity="0"/></linearGradient><linearGradient x1="230.71068" y1="293.50444" x2="142.95671" y2="40.50533" gradientUnits="userSpaceOnUse" id="color-45"><stop offset="0" stop-color="#000000"/><stop offset="1" stop-color="#000000" stop-opacity="0"/></linearGradient><linearGradient x1="375.17711" y1="69.58301" x2="339.37131" y2="334.96438" gradientUnits="userSpaceOnUse" id="color-46"><stop offset="0" stop-color="#000000"/><stop offset="1" stop-color="#000000" stop-opacity="0"/></linearGradient><linearGradient x1="411.30639" y1="242.81567" x2="166.98018" y2="352.42403" gradientUnits="userSpaceOnUse" id="color-47"><stop offset="0" stop-color="#000000"/><stop offset="1" stop-color="#000000" stop-opacity="0"/></linearGradient><linearGradient x1="134.60663" y1="98.91129" x2="378.96824" y2="-10.61828" gradientUnits="userSpaceOnUse" id="color-48"><stop offset="0" stop-color="#000000"/><stop offset="1" stop-color="#000000" stop-opacity="0"/></linearGradient><linearGradient x1="174.33811" y1="143.03414" x2="417.27521" y2="30.38048" gradientUnits="userSpaceOnUse" id="color-49"><stop offset="0" stop-color="#005669"/><stop offset="1" stop-color="#005669" stop-opacity="0"/></linearGradient><linearGradient x1="293.83077" y1="275.71249" x2="57.97953" y2="148.89191" gradientUnits="userSpaceOnUse" id="color-50"><stop offset="0" stop-color="#005669"/><stop offset="1" stop-color="#005669" stop-opacity="0"/></linearGradient><linearGradient x1="280.57686" y1="91.12709" x2="374.84133" y2="341.77337" gradientUnits="userSpaceOnUse" id="color-51"><stop offset="0" stop-color="#005669"/><stop offset="1" stop-color="#005669" stop-opacity="0"/></linearGradient><linearGradient x1="337.64241" y1="202.6771" x2="71.40585" y2="173.9136" gradientUnits="userSpaceOnUse" id="color-52"><stop offset="0" stop-color="#005669"/><stop offset="1" stop-color="#005669" stop-opacity="0"/></linearGradient><linearGradient x1="53.46018" y1="13.53753" x2="53.46018" y2="447.87078" gradientUnits="userSpaceOnUse" id="color-53"><stop offset="0" stop-color="#00167d"/><stop offset="1" stop-color="#00167d" stop-opacity="0"/></linearGradient><linearGradient x1="551.50538" y1="241.02167" x2="308.25934" y2="-118.80711" gradientUnits="userSpaceOnUse" id="color-54"><stop offset="0" stop-color="#00167d"/><stop offset="1" stop-color="#00167d" stop-opacity="0"/></linearGradient><linearGradient x1="432.63339" y1="55.6529" x2="381.4157" y2="486.95572" gradientUnits="userSpaceOnUse" id="color-55"><stop offset="0" stop-color="#00167d"/><stop offset="1" stop-color="#00167d" stop-opacity="0"/></linearGradient><linearGradient x1="98.22754" y1="173.63127" x2="367.09406" y2="-167.47892" gradientUnits="userSpaceOnUse" id="color-56"><stop offset="0" stop-color="#00167d"/><stop offset="1" stop-color="#00167d" stop-opacity="0"/></linearGradient><linearGradient x1="369.00746" y1="356.47682" x2="1.91082" y2="124.34443" gradientUnits="userSpaceOnUse" id="color-57"><stop offset="0" stop-color="#000000"/><stop offset="1" stop-color="#000000" stop-opacity="0"/></linearGradient><linearGradient x1="359.66601" y1="15.25598" x2="346.52956" y2="449.39051" gradientUnits="userSpaceOnUse" id="color-58"><stop offset="0" stop-color="#000000"/><stop offset="1" stop-color="#000000" stop-opacity="0"/></linearGradient><linearGradient x1="11.37139" y1="271.18567" x2="218.92752" y2="-110.34526" gradientUnits="userSpaceOnUse" id="color-59"><stop offset="0" stop-color="#000000"/><stop offset="1" stop-color="#000000" stop-opacity="0"/></linearGradient><linearGradient x1="56.67582" y1="-12.2352" x2="490.28931" y2="-37.231" gradientUnits="userSpaceOnUse" id="color-60"><stop offset="0" stop-color="#000000"/><stop offset="1" stop-color="#000000" stop-opacity="0"/></linearGradient><linearGradient x1="392.92128" y1="365.69317" x2="-40.70029" y2="390.54931" gradientUnits="userSpaceOnUse" id="color-61"><stop offset="0" stop-color="#000000"/><stop offset="1" stop-color="#000000" stop-opacity="0"/></linearGradient><linearGradient x1="358.19026" y1="275.87101" x2="-75.07683" y2="306.28465" gradientUnits="userSpaceOnUse" id="color-62"><stop offset="0" stop-color="#005669"/><stop offset="1" stop-color="#005669" stop-opacity="0"/></linearGradient><linearGradient x1="253.72395" y1="5.76222" x2="537.92728" y2="334.20372" gradientUnits="userSpaceOnUse" id="color-63"><stop offset="0" stop-color="#005669"/><stop offset="1" stop-color="#005669" stop-opacity="0"/></linearGradient><linearGradient x1="167.19188" y1="293.17608" x2="169.10201" y2="-141.153" gradientUnits="userSpaceOnUse" id="color-64"><stop offset="0" stop-color="#005669"/><stop offset="1" stop-color="#005669" stop-opacity="0"/></linearGradient><linearGradient x1="145.1363" y1="91.14839" x2="532.03127" y2="288.52549" gradientUnits="userSpaceOnUse" id="color-65"><stop offset="0" stop-color="#005669"/><stop offset="1" stop-color="#005669" stop-opacity="0"/></linearGradient><linearGradient x1="377.48637" y1="222.65642" x2="309.76087" y2="44.95252" gradientUnits="userSpaceOnUse" id="color-66"><stop offset="0" stop-color="#00167d"/><stop offset="1" stop-color="#00167d" stop-opacity="0"/></linearGradient><linearGradient x1="138.24382" y1="207.24312" x2="293.8737" y2="316.53483" gradientUnits="userSpaceOnUse" id="color-67"><stop offset="0" stop-color="#00167d"/><stop offset="1" stop-color="#00167d" stop-opacity="0"/></linearGradient><linearGradient x1="215.7837" y1="264.54956" x2="169.48616" y2="80.09915" gradientUnits="userSpaceOnUse" id="color-68"><stop offset="0" stop-color="#00167d"/><stop offset="1" stop-color="#00167d" stop-opacity="0"/></linearGradient><linearGradient x1="334.20669" y1="164.13591" x2="277.39127" y2="345.62263" gradientUnits="userSpaceOnUse" id="color-69"><stop offset="0" stop-color="#00167d"/><stop offset="1" stop-color="#00167d" stop-opacity="0"/></linearGradient><linearGradient x1="194.90843" y1="131.54876" x2="381.29928" y2="169.2825" gradientUnits="userSpaceOnUse" id="color-70"><stop offset="0" stop-color="#000000"/><stop offset="1" stop-color="#000000" stop-opacity="0"/></linearGradient><linearGradient x1="251.93676" y1="269.69986" x2="189.61707" y2="90.02892" gradientUnits="userSpaceOnUse" id="color-71"><stop offset="0" stop-color="#000000"/><stop offset="1" stop-color="#000000" stop-opacity="0"/></linearGradient><linearGradient x1="354.5316" y1="110.67886" x2="329.10367" y2="299.14326" gradientUnits="userSpaceOnUse" id="color-72"><stop offset="0" stop-color="#000000"/><stop offset="1" stop-color="#000000" stop-opacity="0"/></linearGradient><linearGradient x1="380.18945" y1="233.70252" x2="206.67763" y2="311.54249" gradientUnits="userSpaceOnUse" id="color-73"><stop offset="0" stop-color="#000000"/><stop offset="1" stop-color="#000000" stop-opacity="0"/></linearGradient><linearGradient x1="183.68717" y1="131.50675" x2="357.22393" y2="53.72275" gradientUnits="userSpaceOnUse" id="color-74"><stop offset="0" stop-color="#000000"/><stop offset="1" stop-color="#000000" stop-opacity="0"/></linearGradient><linearGradient x1="211.90299" y1="162.84125" x2="384.42834" y2="82.83862" gradientUnits="userSpaceOnUse" id="color-75"><stop offset="0" stop-color="#005669"/><stop offset="1" stop-color="#005669" stop-opacity="0"/></linearGradient><linearGradient x1="296.76244" y1="257.06469" x2="129.26923" y2="167.00121" gradientUnits="userSpaceOnUse" id="color-76"><stop offset="0" stop-color="#005669"/><stop offset="1" stop-color="#005669" stop-opacity="0"/></linearGradient><linearGradient x1="287.34998" y1="125.97868" x2="354.29315" y2="303.97875" gradientUnits="userSpaceOnUse" id="color-77"><stop offset="0" stop-color="#005669"/><stop offset="1" stop-color="#005669" stop-opacity="0"/></linearGradient><linearGradient x1="327.87595" y1="205.19754" x2="138.80422" y2="184.77073" gradientUnits="userSpaceOnUse" id="color-78"><stop offset="0" stop-color="#005669"/><stop offset="1" stop-color="#005669" stop-opacity="0"/></linearGradient><radialGradient cx="238.64909" cy="183.41176" r="192.02129" gradientUnits="userSpaceOnUse" id="color-79"><stop offset="0" stop-color="#000000"/><stop offset="1" stop-color="#030837"/></radialGradient><radialGradient cx="238.64909" cy="183.41176" r="192.02129" gradientUnits="userSpaceOnUse" id="color-80"><stop offset="0" stop-color="#000000"/><stop offset="1" stop-color="#030837"/></radialGradient><linearGradient x1="181.58076" y1="240.20424" x2="181.58076" y2="285.19767" gradientUnits="userSpaceOnUse" id="color-81"><stop offset="0" stop-color="#1f0524"/><stop offset="1" stop-color="#1f0524" stop-opacity="0"/></linearGradient></defs><g transform="translate(275.96096,335.96096)"><g data-paper-data="{&quot;isPaintingLayer&quot;:true}" fill-rule="nonzero" stroke-linejoin="miter" stroke-miterlimit="10" stroke-dasharray="" stroke-dashoffset="0" style="mix-blend-mode: normal"><path d="M-275.96096,695.96096v-1031.92192h1031.92192v1031.92192z" fill="#000000" stroke="none" stroke-width="0" stroke-linecap="butt"/><g><g stroke="#000000" stroke-width="0" stroke-linecap="round"><g data-paper-data="{&quot;origPos&quot;:null}"><path d="M-101.62435,227.79286c20.2735,103.83963 206.7775,314.53477 206.7775,314.53477c0,0 -280.85017,-207.14139 -305.79767,-334.92125c-24.94749,-127.77983 186.39092,-276.67412 186.39092,-276.67412c0,0 -107.64418,193.22097 -87.37075,297.0606z" data-paper-data="{&quot;origPos&quot;:null}" fill="url(#color-1)"/><path d="M623.94557,270.38864c0,0 -19.03313,-220.36191 -93.98378,-295.03509c-74.95056,-74.67324 -347.46087,-144.77562 -347.46087,-144.77562c0,0 348.68231,14.32023 440.91273,106.2093c92.23051,91.88896 0.53199,333.60131 0.53199,333.60131z" data-paper-data="{&quot;origPos&quot;:null,&quot;origRot&quot;:0}" fill="url(#color-2)"/><path d="M450.87935,-14.03421c0,0 192.30585,172.77699 152.46436,296.72345c-39.84159,123.94636 -343.15891,296.52396 -343.15891,296.52396c0,0 210.04849,-187.23205 242.42557,-287.9564c32.37708,-100.72442 -51.73103,-305.29095 -51.73103,-305.29095z" data-paper-data="{&quot;origPos&quot;:null,&quot;origRot&quot;:0,&quot;index&quot;:null}" fill="url(#color-3)"/><path d="M41.37627,177.53048c0,0 -73.80741,-247.76181 24.88539,-332.67231c98.6928,-84.91051 447.4901,-73.73666 447.4901,-73.73666c0,0 -276.90102,50.02056 -357.1032,119.02256c-80.20215,69.0021 -115.27236,287.38638 -115.27236,287.38638z" data-paper-data="{&quot;origPos&quot;:null,&quot;origRot&quot;:0,&quot;index&quot;:null}" fill="url(#color-4)"/><path d="M414.00793,384.46116c0,0 -238.79617,99.04481 -333.46172,9.66651c-94.66562,-89.3783 -119.63836,-437.45991 -119.63836,-437.45991c0,0 78.40034,270.23997 155.32983,342.87275c76.92953,72.63281 297.77031,84.92072 297.77031,84.92072z" data-paper-data="{&quot;origPos&quot;:null,&quot;origRot&quot;:0,&quot;index&quot;:null}" fill="url(#color-5)"/><path d="M347.90715,-67.89191c0,0 206.73844,155.21809 177.93771,282.18493c-28.80083,126.96685 -315.78756,325.51911 -315.78756,325.51911c0,0 192.79121,-204.95792 216.19597,-308.13685c23.4048,-103.17893 -78.34615,-299.56725 -78.34615,-299.56725z" data-paper-data="{&quot;origPos&quot;:null,&quot;origRot&quot;:0,&quot;index&quot;:null}" fill="url(#color-6)"/><path d="M-77.71594,310.02701c0,0 -114.49327,-231.78599 -31.51612,-332.1098c82.97714,-100.32374 428.67139,-148.07202 428.67139,-148.07202c0,0 -264.51611,95.95547 -331.94704,177.48304c-67.43093,81.52757 -65.2082,302.69872 -65.2082,302.69872z" data-paper-data="{&quot;origPos&quot;:null,&quot;origRot&quot;:0,&quot;index&quot;:null}" fill="url(#color-7)"/><path d="M-42.25477,-71.1006c0,0 136.48501,-219.55704 265.48882,-202.00461c129.00381,17.55243 351.96482,286.01623 351.96482,286.01623c0,0 -221.0793,-174.06948 -325.91358,-188.33336c-104.83427,-14.26388 -291.54007,104.32174 -291.54007,104.32174z" data-paper-data="{&quot;origPos&quot;:null,&quot;origRot&quot;:0,&quot;index&quot;:null}" fill="url(#color-8)"/><path d="M427.25907,392.15231c0,0 -136.55579,219.5131 -265.55392,201.91907c-128.99813,-17.59403 -351.87264,-286.12955 -351.87264,-286.12955c0,0 221.02321,174.1407 325.85285,188.4384c104.82963,14.2977 291.57362,-104.22782 291.57362,-104.22782z" data-paper-data="{&quot;origPos&quot;:null,&quot;origRot&quot;:0,&quot;index&quot;:null}" fill="url(#color-9)"/><path d="M377.912,265.69972c0,0 -133.73012,221.24584 -262.9432,205.30722c-129.21305,-15.93862 -355.51216,-281.59468 -355.51216,-281.59468c0,0 223.23773,171.29256 328.24201,184.24505c105.00438,12.95246 290.21335,-107.95759 290.21335,-107.95759z" data-paper-data="{&quot;origPos&quot;:null,&quot;origRot&quot;:0,&quot;index&quot;:null}" fill="url(#color-10)"/><path d="M207.12669,-57.63127c0,0 257.24164,-25.6947 321.98836,87.2563c64.74672,112.951 -12.08966,453.36334 -12.08966,453.36334c0,0 3.16666,-281.36487 -49.4494,-373.1539c-52.61616,-91.78903 -260.44927,-167.4658 -260.44927,-167.4658z" data-paper-data="{&quot;origPos&quot;:null,&quot;origRot&quot;:0,&quot;index&quot;:null}" fill="url(#color-11)"/><path d="M145.89446,324.65c0,0 -210.68165,-149.82236 -185.17238,-277.4912c25.5093,-127.66888 307.26778,-333.5731 307.26778,-333.5731c0,0 -187.4289,209.87297 -208.15883,313.62236c-20.72994,103.74945 86.06344,297.44198 86.06344,297.44198z" data-paper-data="{&quot;origPos&quot;:null,&quot;origRot&quot;:0,&quot;index&quot;:null}" fill="url(#color-12)"/><path d="M64.63707,70.76375c0,0 228.67202,-120.5928 331.15853,-40.3022c102.48651,80.2906 159.37501,424.59877 159.37501,424.59877c0,0 -102.92852,-261.88155 -186.21366,-327.12924c-83.28514,-65.24769 -304.31981,-57.16732 -304.31981,-57.16732z" data-paper-data="{&quot;origPos&quot;:null,&quot;origRot&quot;:0,&quot;index&quot;:null}" fill="url(#color-13)"/></g><g data-paper-data="{&quot;origPos&quot;:null,&quot;origRot&quot;:0}"><path d="M188.06492,516.20176c103.8238,20.35423 369.27035,-72.99636 369.27035,-72.99636c0,0 -297.71011,182.07988 -425.47048,157.03295c-127.76033,-25.04692 -186.03174,-276.91581 -186.03174,-276.91581c0,0 138.40806,172.52485 242.23186,192.87918z" data-paper-data="{&quot;origPos&quot;:null}" fill="url(#color-14)"/><path d="M500.95827,-139.81944c0,0 -211.2875,-65.4157 -308.70093,-24.13251c-97.4135,41.28312 -265.04544,267.28255 -265.04544,267.28255c0,0 144.66878,-317.57736 264.54079,-368.37838c119.872,-50.80112 309.20548,125.22817 309.20548,125.22817z" data-paper-data="{&quot;origPos&quot;:null,&quot;origRot&quot;:0}" fill="url(#color-15)"/><path d="M172.28409,-86.7008c0,0 232.51057,-113.01454 332.30378,-29.4001c99.79315,83.61451 145.33857,429.6059 145.33857,429.6059c0,0 -94.26868,-265.12196 -175.36501,-333.07082c-81.0964,-67.94896 -302.27724,-67.13498 -302.27724,-67.13498z" data-paper-data="{&quot;origPos&quot;:null,&quot;origRot&quot;:0,&quot;index&quot;:null}" fill="url(#color-16)"/><path d="M195.39952,364.80272c0,0 -257.30942,-25.00586 -298.76616,-148.42142c-41.45674,-123.41557 100.34094,-442.28515 100.34094,-442.28515c0,0 -58.0203,275.33595 -24.33073,375.62894c33.68964,100.29299 222.75595,215.07773 222.75595,215.07773z" data-paper-data="{&quot;origPos&quot;:null,&quot;origRot&quot;:0,&quot;index&quot;:null}" fill="url(#color-17)"/><path d="M527.50315,97.62895c0,0 1.7496,258.51584 -116.71449,312.51857c-118.46409,54.0028 -450.29304,-54.04363 -450.29304,-54.04363c0,0 279.86114,29.22271 376.13045,-14.66249c96.26922,-43.8851 190.87718,-243.81258 190.87718,-243.81258z" data-paper-data="{&quot;origPos&quot;:null,&quot;origRot&quot;:0,&quot;index&quot;:null}" fill="url(#color-18)"/><path d="M83.5912,-11.61753c0,0 221.68532,-133.00024 328.43709,-58.47427c106.75177,74.52604 182.51107,415.17966 182.51107,415.17966c0,0 -117.1912,-255.81714 -203.94241,-316.38029c-86.75122,-60.56315 -307.00575,-40.32521 -307.00575,-40.32521z" data-paper-data="{&quot;origPos&quot;:null,&quot;origRot&quot;:0,&quot;index&quot;:null}" fill="url(#color-19)"/><path d="M273.24603,525.04691c0,0 -257.84439,18.70092 -319.50067,-95.96639c-61.65615,-114.66721 24.39427,-452.868 24.39427,-452.868c0,0 -10.80481,281.1752 39.29981,374.35892c50.10459,93.18372 255.80649,174.47541 255.80649,174.47541z" data-paper-data="{&quot;origPos&quot;:null,&quot;origRot&quot;:0,&quot;index&quot;:null}" fill="url(#color-20)"/><path d="M-66.41726,348.56863c0,0 -151.93347,-209.16423 -87.05885,-322.04181c64.87462,-112.87762 397.56974,-218.22656 397.56974,-218.22656c0,0 -244.55131,139.17944 -297.27134,230.90877c-52.72003,91.72934 -13.23965,309.35963 -13.23965,309.35963z" data-paper-data="{&quot;origPos&quot;:null,&quot;origRot&quot;:0,&quot;index&quot;:null}" fill="url(#color-21)"/><path d="M539.62105,88.25328c0,0 151.86613,209.21324 86.95505,322.06986c-64.91105,112.85665 -397.63999,218.09848 -397.63999,218.09848c0,0 244.59612,-139.10064 297.34569,-230.81295c52.74957,-91.71231 13.33925,-309.35525 13.33925,-309.35525z" data-paper-data="{&quot;origPos&quot;:null,&quot;origRot&quot;:0,&quot;index&quot;:null}" fill="url(#color-22)"/><path d="M403.89483,86.3071c0,0 154.53591,207.24886 91.07728,320.92855c-63.4587,113.67958 -394.81101,223.17867 -394.81101,223.17867c0,0 242.79253,-142.2252 294.3619,-234.60632c51.56936,-92.38112 9.37183,-309.50089 9.37183,-309.50089z" data-paper-data="{&quot;origPos&quot;:null,&quot;origRot&quot;:0,&quot;index&quot;:null}" fill="url(#color-23)"/><path d="M40.04084,122.65003c0,0 73.14384,-247.95859 202.16738,-265.36485c129.02354,-17.40626 415.38089,182.0527 415.38089,182.0527c0,0 -259.42651,-108.96829 -364.27684,-94.82324c-104.85033,14.14515 -253.27152,178.13526 -253.27152,178.13526z" data-paper-data="{&quot;origPos&quot;:null,&quot;origRot&quot;:0,&quot;index&quot;:null}" fill="url(#color-24)"/><path d="M371.06058,323.43406c0,0 -218.17344,138.68614 -326.81594,66.94437c-108.64247,-71.7418 -193.182,-410.32334 -193.182,-410.32334c0,0 123.7647,252.70257 212.05233,311.00295c88.2878,58.30049 307.94551,32.37595 307.94551,32.37595z" data-paper-data="{&quot;origPos&quot;:null,&quot;origRot&quot;:0,&quot;index&quot;:null}" fill="url(#color-25)"/><path d="M105.27074,303.02087c0,0 -25.52423,-257.25867 87.46958,-321.9306c112.99381,-64.67193 453.35529,12.38988 453.35529,12.38988c0,0 -281.3627,-3.35302 -373.18659,49.2023c-91.82379,52.55536 -167.63828,260.33832 -167.63828,260.33832z" data-paper-data="{&quot;origPos&quot;:null,&quot;origRot&quot;:0,&quot;index&quot;:null}" fill="url(#color-26)"/></g><g data-paper-data="{&quot;origPos&quot;:null,&quot;origRot&quot;:0}"><path d="M433.44791,328.01237c46.6649,-57.59201 75.97158,-252.54067 75.97158,-252.54067c0,0 15.03382,244.03311 -42.38968,314.90293c-57.42347,70.86982 -232.45745,24.30278 -232.45745,24.30278c0,0 152.21052,-29.07314 198.87542,-86.66514z" data-paper-data="{&quot;origPos&quot;:null}" fill="url(#color-27)"/><path d="M130.01076,-80.92132c0,0 -109.81857,109.33071 -116.22453,183.17795c-6.4061,73.84717 78.49432,251.76795 78.49432,251.76795c0,0 -149.12443,-193.75279 -141.24147,-284.62538c7.88285,-90.87268 178.97158,-150.32043 178.97158,-150.32043z" data-paper-data="{&quot;origPos&quot;:null,&quot;origRot&quot;:0}" fill="url(#color-28)"/><path d="M55.0539,139.96698c0,0 6.32784,-181.01195 90.83032,-215.35304c84.50248,-34.34099 313.626,50.98575 313.626,50.98575c0,0 -195.04886,-28.63202 -263.71939,-0.72491c-68.67053,27.90712 -140.73682,165.09223 -140.73682,165.09223z" data-paper-data="{&quot;origPos&quot;:null,&quot;origRot&quot;:0,&quot;index&quot;:null}" fill="url(#color-29)"/><path d="M342.13341,273.79749c0,0 -99.90349,151.07839 -189.90377,136.24843c-90.00037,-14.82996 -240.86662,-207.2294 -240.86662,-207.2294c0,0 151.40525,126.25503 224.54348,138.30652c73.13826,12.0515 206.22698,-67.32546 206.22698,-67.32546z" data-paper-data="{&quot;origPos&quot;:null,&quot;origRot&quot;:0,&quot;index&quot;:null}" fill="url(#color-30)"/><path d="M285.70839,-19.44603c0,0 160.60373,83.73674 155.1647,174.78835c-5.43893,91.05161 -181.19728,261.01415 -181.19728,261.01415c0,0 109.91312,-163.65503 114.33304,-237.64768c4.41992,-73.99264 -88.30049,-198.15488 -88.30049,-198.15488z" data-paper-data="{&quot;origPos&quot;:null,&quot;origRot&quot;:0,&quot;index&quot;:null}" fill="url(#color-31)"/><path d="M72.43245,219.50576c0,0 -9.59576,-180.86815 71.56381,-222.49883c81.15957,-41.63059 316.89212,23.2415 316.89212,23.2415c0,0 -196.80991,-11.38929 -262.76381,22.44161c-65.95394,33.83093 -125.69212,176.81573 -125.69212,176.81573z" data-paper-data="{&quot;origPos&quot;:null,&quot;origRot&quot;:0,&quot;index&quot;:null}" fill="url(#color-32)"/><path d="M466.87149,278.18456c0,0 -73.02307,165.74986 -164.23547,166.29434c-91.21237,0.54448 -272.33606,-163.68826 -272.33606,-163.68826c0,0 170.51146,98.94294 244.63465,98.50049c74.12319,-0.44245 191.93679,-101.10661 191.93679,-101.10661z" data-paper-data="{&quot;origPos&quot;:null,&quot;origRot&quot;:0,&quot;index&quot;:null}" fill="url(#color-33)"/><path d="M246.18108,430.54408c0,0 -179.32929,25.42427 -227.9186,-51.77066c-48.58931,-77.19506 -4.64542,-317.70937 -4.64542,-317.70937c0,0 5.91851,197.05033 45.40439,259.78245c39.48582,62.73212 187.15963,109.69757 187.15963,109.69757z" data-paper-data="{&quot;origPos&quot;:null,&quot;origRot&quot;:0,&quot;index&quot;:null}" fill="url(#color-34)"/><path d="M283.88057,-30.02348c0,0 179.33747,-25.36654 227.90194,51.84414c48.56444,77.21058 4.54312,317.71077 4.54312,317.71077c0,0 -5.85507,-197.05227 -45.32062,-259.79708c-39.46565,-62.74478 -187.12434,-109.75787 -187.12434,-109.75787z" data-paper-data="{&quot;origPos&quot;:null,&quot;origRot&quot;:0,&quot;index&quot;:null}" fill="url(#color-35)"/><path d="M238.14361,53.35689c0,0 178.99752,-27.66369 228.54785,48.91784c49.5504,76.5816 8.61607,317.62647 8.61607,317.62647c0,0 -8.38103,-196.96099 -48.64787,-259.19464c-40.26681,-62.23368 -188.51616,-107.34967 -188.51616,-107.34967z" data-paper-data="{&quot;origPos&quot;:null,&quot;origRot&quot;:0,&quot;index&quot;:null}" fill="url(#color-36)"/><path d="M141.25943,290.51851c0,0 -129.4957,-126.63441 -97.93775,-212.2152c31.55796,-85.58079 248.98432,-197.4021 248.98432,-197.4021c0,0 -152.57357,124.84061 -178.21896,194.38739c-25.64542,69.54688 27.17239,215.23001 27.17239,215.23001z" data-paper-data="{&quot;origPos&quot;:null,&quot;origRot&quot;:0,&quot;index&quot;:null}" fill="url(#color-37)"/><path d="M374.15993,151.48438c0,0 14.26782,180.55982 -65.78854,224.27427c-80.05645,43.71449 -317.38705,-15.04247 -317.38705,-15.04247c0,0 197.03864,6.29812 262.09596,-29.22622c65.05742,-35.52444 121.07962,-180.00562 121.07962,-180.00562z" data-paper-data="{&quot;origPos&quot;:null,&quot;origRot&quot;:0,&quot;index&quot;:null}" fill="url(#color-38)"/><path d="M274.31696,309.31923c0,0 -167.62606,-68.60703 -170.58645,-159.77299c-2.96039,-91.16589 156.41699,-276.57642 156.41699,-276.57642c0,0 -94.39161,173.0725 -91.98589,247.158c2.40576,74.08553 106.15521,189.19135 106.15521,189.19135z" data-paper-data="{&quot;origPos&quot;:null,&quot;origRot&quot;:0,&quot;index&quot;:null}" fill="url(#color-39)"/></g><g data-paper-data="{&quot;origPos&quot;:null,&quot;origRot&quot;:0}"><path d="M382.80485,97.4798c-24.48645,-39.32392 -133.64662,-96.44657 -133.64662,-96.44657c0,0 147.20699,40.95733 177.33871,89.34735c30.13172,48.39005 -33.11868,142.26286 -33.11868,142.26286c0,0 13.91284,-95.83969 -10.57354,-135.16361z" data-paper-data="{&quot;origPos&quot;:null}" fill="url(#color-40)"/><path d="M79.30189,193.18985c0,0 42.14819,87.1914 84.45737,106.05632c42.30918,18.86492 164.73558,5.05431 164.73558,5.05431c0,0 -144.89348,48.51088 -196.95701,25.29663c-52.06353,-23.21416 -52.23601,-136.40725 -52.23601,-136.40725z" data-paper-data="{&quot;origPos&quot;:null,&quot;origRot&quot;:0}" fill="url(#color-41)"/><path d="M194.46053,282.57302c0,0 -105.62138,-40.70412 -108.64747,-97.62825c-3.0261,-56.92416 94.16374,-174.82898 94.16374,-174.82898c0,0 -56.7446,109.35726 -54.28546,155.61633c2.45915,46.25907 68.76919,116.84093 68.76919,116.84093z" data-paper-data="{&quot;origPos&quot;:null,&quot;origRot&quot;:0,&quot;index&quot;:null}" fill="url(#color-42)"/><path d="M332.13467,140.34225c0,0 68.83102,89.86091 41.69175,139.99052c-27.13927,50.1296 -171.5892,99.9457 -171.5892,99.9457c0,0 105.49207,-63.6426 127.54672,-104.3801c22.05458,-40.73757 2.3507,-135.55611 2.3507,-135.55611z" data-paper-data="{&quot;origPos&quot;:null,&quot;origRot&quot;:0,&quot;index&quot;:null}" fill="url(#color-43)"/><path d="M147.40895,113.78258c0,0 82.25748,-77.75877 134.92579,-55.95152c52.66831,21.80721 117.16202,160.32799 117.16202,160.32799c0,0 -74.21527,-98.34157 -117.01591,-116.06307c-42.80068,-17.7215 -135.07196,11.68664 -135.07196,11.68664z" data-paper-data="{&quot;origPos&quot;:null,&quot;origRot&quot;:0,&quot;index&quot;:null}" fill="url(#color-44)"/><path d="M244.98871,288.552c0,0 -108.7884,-31.26956 -116.80274,-87.70793c-8.01427,-56.43838 78.44384,-182.42403 78.44384,-182.42403c0,0 -46.91994,113.9187 -40.40714,159.78304c6.5128,45.86433 78.76606,110.34899 78.76606,110.34899z" data-paper-data="{&quot;origPos&quot;:null,&quot;origRot&quot;:0,&quot;index&quot;:null}" fill="url(#color-45)"/><path d="M360.20008,67.5624c0,0 82.98626,76.98048 64.68031,130.96572c-18.30602,53.98527 -152.29853,127.42502 -152.29853,127.42502c0,0 93.26225,-80.50524 108.13855,-124.37605c14.87627,-43.87078 -20.52027,-134.01461 -20.52027,-134.01461z" data-paper-data="{&quot;origPos&quot;:null,&quot;origRot&quot;:0,&quot;index&quot;:null}" fill="url(#color-46)"/><path d="M405.12065,229.02706c0,0 -21.60626,111.11203 -77.12411,124.04612c-55.51775,12.93403 -188.60193,-62.1395 -188.60193,-62.1395c0,0 117.59538,36.74632 162.71164,26.23544c45.11626,-10.51077 103.01439,-88.14207 103.01439,-88.14207z" data-paper-data="{&quot;origPos&quot;:null,&quot;origRot&quot;:0,&quot;index&quot;:null}" fill="url(#color-47)"/><path d="M140.78807,112.70207c0,0 21.64208,-111.10505 77.16401,-124.02121c55.52193,-12.9162 188.58183,62.2002 188.58183,62.2002c0,0 -117.5835,-36.78421 -162.70316,-26.28793c-45.11966,10.49628 -103.04271,88.10898 -103.04271,88.10898z" data-paper-data="{&quot;origPos&quot;:null,&quot;origRot&quot;:0,&quot;index&quot;:null}" fill="url(#color-48)"/><path d="M180.69573,156.74429c0,0 20.21584,-111.37335 75.56759,-125.0004c55.35175,-13.62695 189.36379,59.77724 189.36379,59.77724c0,0 -118.04541,-35.2736 -163.02679,-24.19968c-44.98134,11.07388 -101.90463,89.42284 -101.90463,89.42284z" data-paper-data="{&quot;origPos&quot;:null,&quot;origRot&quot;:0,&quot;index&quot;:null}" fill="url(#color-49)"/><path d="M300.98785,262.40219c0,0 -101.24173,50.62437 -145.34478,14.5073c-44.10302,-36.11707 -65.74633,-187.37501 -65.74633,-187.37501c0,0 42.57742,115.61188 78.41753,144.96216c35.84008,29.35028 132.67354,27.90551 132.67354,27.90551z" data-paper-data="{&quot;origPos&quot;:null,&quot;origRot&quot;:0,&quot;index&quot;:null}" fill="url(#color-50)"/><path d="M266.43161,96.4469c0,0 109.56042,28.44706 119.03087,84.6594c9.47046,56.21234 -73.70214,184.39085 -73.70214,184.39085c0,0 43.95955,-115.0935 36.2635,-160.77407c-7.69615,-45.68067 -81.59214,-108.27607 -81.59214,-108.27607z" data-paper-data="{&quot;origPos&quot;:null,&quot;origRot&quot;:0,&quot;index&quot;:null}" fill="url(#color-51)"/><path d="M339.26577,187.65202c0,0 -74.75531,84.99631 -129.2065,68.12675c-54.45119,-16.86956 -131.41447,-148.86981 -131.41447,-148.86981c0,0 82.94746,91.09705 127.19688,104.80603c44.24946,13.70891 133.42399,-24.06296 133.42399,-24.06296z" data-paper-data="{&quot;origPos&quot;:null,&quot;origRot&quot;:0,&quot;index&quot;:null}" fill="url(#color-52)"/></g></g><g stroke="#000000" stroke-width="0" stroke-linecap="round"><path d="M15.92432,224.49937c14.39753,73.7432 146.84601,223.37138 146.84601,223.37138c0,0 -199.44978,-147.10446 -217.16661,-237.84914c-17.71683,-90.74468 132.36822,-196.48411 132.36822,-196.48411c0,0 -76.44508,137.21863 -62.04762,210.96187z" data-paper-data="{&quot;origPos&quot;:null}" fill="url(#color-53)"/><path d="M531.19829,254.74938c0,0 -13.51663,-156.49318 -66.74395,-209.52341c-53.22725,-53.03029 -246.75434,-102.8145 -246.75434,-102.8145c0,0 247.62178,10.16972 313.12051,75.42606c65.49883,65.25627 0.37781,236.91179 0.37781,236.91179z" data-paper-data="{&quot;origPos&quot;:null,&quot;origRot&quot;:0}" fill="url(#color-54)"/><path d="M408.29278,52.76239c0,0 136.56878,122.70008 108.27477,210.72242c-28.29408,88.02231 -243.69923,210.58079 -243.69923,210.58079c0,0 149.16897,-132.96555 172.162,-204.49638c22.99303,-71.53089 -36.7375,-216.80673 -36.7375,-216.80673z" data-paper-data="{&quot;origPos&quot;:null,&quot;origRot&quot;:0,&quot;index&quot;:null}" fill="url(#color-55)"/><path d="M117.47826,188.80482c0,0 -52.4154,-175.95163 17.67269,-236.25202c70.08812,-60.30039 317.79154,-52.36515 317.79154,-52.36515c0,0 -196.64524,35.5228 -253.60199,84.52562c-56.95671,49.00285 -81.86231,204.09159 -81.86231,204.09159z" data-paper-data="{&quot;origPos&quot;:null,&quot;origRot&quot;:0,&quot;index&quot;:null}" fill="url(#color-56)"/><path d="M382.10795,335.7596c0,0 -169.58456,70.3381 -236.81263,6.86484c-67.22813,-63.47326 -84.96292,-310.66845 -84.96292,-310.66845c0,0 55.67711,191.91482 110.30973,243.49604c54.63262,51.58125 211.46589,60.30767 211.46589,60.30767z" data-paper-data="{&quot;origPos&quot;:null,&quot;origRot&quot;:0,&quot;index&quot;:null}" fill="url(#color-57)"/><path d="M335.16554,14.51458c0,0 146.8183,110.23037 126.36504,200.39771c-20.45332,90.16734 -224.26109,231.17207 -224.26109,231.17207c0,0 136.91344,-145.55382 153.5347,-218.82783c16.62126,-73.27401 -55.63865,-212.74202 -55.63865,-212.74202z" data-paper-data="{&quot;origPos&quot;:null,&quot;origRot&quot;:0,&quot;index&quot;:null}" fill="url(#color-58)"/><path d="M32.90319,282.89915c0,0 -81.30905,-164.60614 -22.38164,-235.85257c58.92744,-71.24633 304.42715,-105.15549 304.42715,-105.15549c0,0 -187.84995,68.14415 -235.73699,126.04215c-47.88704,57.89797 -46.30855,214.96588 -46.30855,214.96588z" data-paper-data="{&quot;origPos&quot;:null,&quot;origRot&quot;:0,&quot;index&quot;:null}" fill="url(#color-59)"/><path d="M58.08647,12.23589c0,0 96.92678,-155.92162 188.54073,-143.45649c91.61392,12.46513 249.95288,203.11855 249.95288,203.11855c0,0 -157.00267,-123.61796 -231.45222,-133.74765c-74.44955,-10.12969 -207.04139,74.08559 -207.04139,74.08559z" data-paper-data="{&quot;origPos&quot;:null,&quot;origRot&quot;:0,&quot;index&quot;:null}" fill="url(#color-60)"/><path d="M391.51848,341.22161c0,0 -96.97706,155.89041 -188.58694,143.39576c-91.60988,-12.49465 -249.88741,-203.19901 -249.88741,-203.19901c0,0 156.96281,123.66851 231.40908,133.82224c74.44628,10.15373 207.0652,-74.01892 207.0652,-74.01892z" data-paper-data="{&quot;origPos&quot;:null,&quot;origRot&quot;:0,&quot;index&quot;:null}" fill="url(#color-61)"/><path d="M356.47385,251.41945c0,0 -94.97038,157.12093 -186.7329,145.80188c-91.76252,-11.31905 -252.47206,-199.9785 -252.47206,-199.9785c0,0 158.53549,121.64587 233.1058,130.84425c74.57038,9.19838 206.0992,-76.66764 206.0992,-76.66764z" data-paper-data="{&quot;origPos&quot;:null,&quot;origRot&quot;:0,&quot;index&quot;:null}" fill="url(#color-62)"/><path d="M235.18829,21.80134c0,0 182.68385,-18.24745 228.66468,61.96632c45.98082,80.21377 -8.58566,321.96248 -8.58566,321.96248c0,0 2.24887,-199.81534 -35.11721,-265.00063c-37.36612,-65.18529 -184.96181,-118.92824 -184.96181,-118.92824z" data-paper-data="{&quot;origPos&quot;:null,&quot;origRot&quot;:0,&quot;index&quot;:null}" fill="url(#color-63)"/><path d="M191.70334,293.28385c0,0 -149.61863,-106.3985 -131.50282,-197.06439c18.11578,-90.66588 218.21063,-236.89172 218.21063,-236.89172c0,0 -133.10534,149.0443 -147.82699,222.72343c-14.72165,73.67917 61.11921,211.23271 61.11921,211.23271z" data-paper-data="{&quot;origPos&quot;:null,&quot;origRot&quot;:0,&quot;index&quot;:null}" fill="url(#color-64)"/><path d="M133.99725,112.98289c0,0 162.39473,-85.64072 235.17701,-28.62117c72.78228,57.01952 113.18248,301.53494 113.18248,301.53494c0,0 -73.09616,-185.97895 -132.24231,-232.31555c-59.14612,-46.3366 -216.11711,-40.59818 -216.11711,-40.59818z" data-paper-data="{&quot;origPos&quot;:null,&quot;origRot&quot;:0,&quot;index&quot;:null}" fill="url(#color-65)"/></g><g data-paper-data="{&quot;origRot&quot;:0}" stroke="#000000" stroke-width="0" stroke-linecap="round"><path d="M359.94857,130.49018c-17.3894,-27.92645 -94.91105,-68.49294 -94.91105,-68.49294c0,0 104.54116,29.08642 125.93965,63.45132c21.39849,34.36486 -23.51968,101.03002 -23.51968,101.03002c0,0 9.88038,-68.06195 -7.50895,-95.98839z" data-paper-data="{&quot;origPos&quot;:null}" fill="url(#color-66)"/><path d="M144.41173,198.46004c0,0 29.93216,61.92021 59.97864,75.31742c30.04651,13.39721 116.98934,3.58937 116.98934,3.58937c0,0 -102.89821,34.45067 -139.87186,17.96476c-36.97368,-16.48587 -37.09615,-96.87159 -37.09615,-96.87159z" data-paper-data="{&quot;origPos&quot;:null,&quot;origRot&quot;:0}" fill="url(#color-67)"/><path d="M226.19324,261.93677c0,0 -75.00855,-28.90663 -77.15756,-69.33214c-2.14901,-40.4255 66.87175,-124.1573 66.87175,-124.1573c0,0 -40.298,77.66164 -38.5516,110.51319c1.74639,32.85155 48.83741,82.97628 48.83741,82.97628z" data-paper-data="{&quot;origPos&quot;:null,&quot;origRot&quot;:0,&quot;index&quot;:null}" fill="url(#color-68)"/><path d="M323.96452,160.92956c0,0 48.88135,63.81604 29.608,99.41627c-19.27335,35.60023 -121.85654,70.97786 -121.85654,70.97786c0,0 74.9167,-45.19672 90.57914,-74.12703c15.66237,-28.93037 1.6694,-96.26711 1.6694,-96.26711z" data-paper-data="{&quot;origPos&quot;:null,&quot;origRot&quot;:0,&quot;index&quot;:null}" fill="url(#color-69)"/><path d="M192.77885,142.06781c0,0 58.41634,-55.22147 95.81949,-39.73478c37.40318,15.48672 83.20431,113.85921 83.20431,113.85921c0,0 -52.70504,-69.83865 -83.10054,-82.42385c-30.39551,-12.58519 -95.92329,8.29943 -95.92329,8.29943z" data-paper-data="{&quot;origPos&quot;:null,&quot;origRot&quot;:0,&quot;index&quot;:null}" fill="url(#color-70)"/><path d="M262.07649,266.18284c0,0 -77.25762,-22.20653 -82.94913,-62.28704c-5.69144,-40.08051 55.70799,-129.55106 55.70799,-129.55106c0,0 -33.32087,80.90102 -28.69573,113.47225c4.62515,32.57123 55.93686,78.36592 55.93686,78.36592z" data-paper-data="{&quot;origPos&quot;:null,&quot;origRot&quot;:0,&quot;index&quot;:null}" fill="url(#color-71)"/><path d="M343.89563,109.2439c0,0 58.93385,54.66878 45.93365,93.00717c-13.00027,38.33843 -108.15698,90.4927 -108.15698,90.4927c0,0 66.23152,-57.17196 76.79614,-88.32743c10.56459,-31.15547 -14.57274,-95.17241 -14.57274,-95.17241z" data-paper-data="{&quot;origPos&quot;:null,&quot;origRot&quot;:0,&quot;index&quot;:null}" fill="url(#color-72)"/><path d="M375.79657,223.91035c0,0 -15.34399,78.90779 -54.77078,88.09315c-39.42672,9.18529 -133.93839,-44.12926 -133.93839,-44.12926c0,0 83.51204,26.09592 115.55201,18.63148c32.03997,-7.46438 73.15716,-62.59537 73.15716,-62.59537z" data-paper-data="{&quot;origPos&quot;:null,&quot;origRot&quot;:0,&quot;index&quot;:null}" fill="url(#color-73)"/><path d="M188.07697,141.30047c0,0 15.36943,-78.90285 54.79916,-88.07546c39.42969,-9.17261 133.9241,44.17236 133.9241,44.17236c0,0 -83.5036,-26.12286 -115.54597,-18.66877c-32.04237,7.45409 -73.17729,62.57183 -73.17729,62.57183z" data-paper-data="{&quot;origPos&quot;:null,&quot;origRot&quot;:0,&quot;index&quot;:null}" fill="url(#color-74)"/><path d="M216.41792,172.5777c0,0 14.35659,-79.09339 53.66542,-88.77082c39.30883,-9.67739 134.47943,42.45168 134.47943,42.45168c0,0 -83.83166,-25.05003 -115.77581,-17.18577c-31.94415,7.86429 -72.36905,63.50491 -72.36905,63.50491z" data-paper-data="{&quot;origPos&quot;:null,&quot;origRot&quot;:0,&quot;index&quot;:null}" fill="url(#color-75)"/><path d="M301.84513,247.61216c0,0 -71.89829,35.95163 -103.21869,10.30257c-31.3204,-25.64906 -46.6907,-133.06705 -46.6907,-133.06705c0,0 30.23699,82.10343 55.68933,102.94695c25.45234,20.84352 94.22003,19.81753 94.22003,19.81753z" data-paper-data="{&quot;origPos&quot;:null,&quot;origRot&quot;:0,&quot;index&quot;:null}" fill="url(#color-76)"/><path d="M277.30453,129.75666c0,0 77.80591,20.20208 84.53149,60.12207c6.72558,39.92002 -52.34065,130.94782 -52.34065,130.94782c0,0 31.21851,-81.7353 25.75306,-114.17602c-5.46554,-32.44078 -57.94384,-76.8938 -57.94384,-76.8938z" data-paper-data="{&quot;origPos&quot;:null,&quot;origRot&quot;:0,&quot;index&quot;:null}" fill="url(#color-77)"/><path d="M329.02871,194.52728c0,0 -53.08856,60.36136 -91.75788,48.38117c-38.66929,-11.98015 -93.32589,-105.72204 -93.32589,-105.72204c0,0 58.90633,64.69386 90.33071,74.42952c31.42437,9.73558 94.75296,-17.08865 94.75296,-17.08865z" data-paper-data="{&quot;origPos&quot;:null,&quot;origRot&quot;:0,&quot;index&quot;:null}" fill="url(#color-78)"/></g><path d="M46.62786,183.41176c0,-106.05044 85.97085,-192.02129 192.02129,-192.02129c106.05044,0 192.02129,85.97085 192.02129,192.02129c0,106.05044 -85.97085,192.02129 -192.02129,192.02129c-106.05044,0 -192.02129,-85.97085 -192.02129,-192.02129z" fill="url(#color-79)" stroke="#000000" stroke-width="0" stroke-linecap="butt"/><path d="M46.62786,183.41176c0,-106.05044 85.97085,-192.02129 192.02129,-192.02129c106.05044,0 192.02129,85.97085 192.02129,192.02129c0,106.05044 -85.97085,192.02129 -192.02129,192.02129c-106.05044,0 -192.02129,-85.97085 -192.02129,-192.02129z" fill="url(#color-80)" stroke="#000000" stroke-width="0" stroke-linecap="butt"/><path d="M225.99171,88.09112z" fill="none" stroke="#988033" stroke-width="0.5" stroke-linecap="butt"/><path d="M-88.77513,94.12398z" fill="none" stroke="#988033" stroke-width="0.5" stroke-linecap="butt"/><path d="M183.26592,285.18926c-2.95475,0.14924 -2.84577,-1.73754 -2.84577,-1.73754l-0.66311,-1.46898c-2.78818,-6.55971 -2.36019,-13.09879 -2.36019,-20.06339c0,-6.45885 -0.42295,-12.97075 0.8464,-19.31749c0,0 0.58024,-2.90106 3.4813,-2.32085c2.90106,0.58021 2.32085,3.48127 2.32085,3.48127c-1.32334,6.6166 -0.73148,13.57713 -0.73148,20.32665c0,5.19995 -0.58768,10.65894 1.8362,15.45938l0.66311,1.46898c0,0 0.40746,4.02274 -2.54729,4.17195z" data-paper-data="{&quot;index&quot;:null}" fill="url(#color-81)" stroke="none" stroke-width="0.5" stroke-linecap="butt"/></g></g></g></svg>