<svg version="1.1" xmlns="http://www.w3.org/2000/svg" xmlns:xlink="http://www.w3.org/1999/xlink" width="339.68617" height="434.6438" viewBox="0,0,339.68617,434.6438"><defs><linearGradient x1="363.1556" y1="43.4743" x2="363.1556" y2="117.83455" gradientUnits="userSpaceOnUse" id="color-1"><stop offset="0" stop-color="#3fbf5b"/><stop offset="1" stop-color="#52f75b"/></linearGradient><linearGradient x1="373.59309" y1="83.63071" x2="383.38663" y2="83.63071" gradientUnits="userSpaceOnUse" id="color-2"><stop offset="0" stop-color="#00ab09"/><stop offset="1" stop-color="#185723"/></linearGradient><linearGradient x1="356.82243" y1="83.63071" x2="366.61597" y2="83.63071" gradientUnits="userSpaceOnUse" id="color-3"><stop offset="0" stop-color="#1a5125"/><stop offset="1" stop-color="#00ac09"/></linearGradient><linearGradient x1="244.75818" y1="-6.22731" x2="244.75818" y2="124.09086" gradientUnits="userSpaceOnUse" id="color-4"><stop offset="0" stop-color="#3b2103"/><stop offset="1" stop-color="#000000"/></linearGradient></defs><g transform="translate(-73.09742,-0.09453)"><g data-paper-data="{&quot;isPaintingLayer&quot;:true}" fill-rule="nonzero" stroke-linejoin="miter" stroke-miterlimit="10" stroke-dasharray="" stroke-dashoffset="0" style="mix-blend-mode: normal"><g><path d="M279.45683,392.74914l-33.71436,-112.59896l21.88119,-6.55166l33.71436,112.59896z" data-paper-data="{&quot;index&quot;:null,&quot;origRot&quot;:0}" fill="#00c7c6" stroke="#004040" stroke-width="0.5" stroke-linecap="butt"/><path d="M270.8273,361.79246l-18.59143,-63.34241l3.65748,-2.31752c0,0 12.84246,46.33064 14.80212,54.00277c0.80307,3.14405 2.5311,10.04224 2.5311,10.04224z" data-paper-data="{&quot;origRot&quot;:0}" fill="#00e4e4" stroke="none" stroke-width="0" stroke-linecap="butt"/><g data-paper-data="{&quot;index&quot;:null,&quot;origRot&quot;:0}" stroke="#1b1600" stroke-width="0.5"><path d="M283.65512,426.01542c-1.02499,0.13089 -14.54644,-49.11679 -16.92566,-60.90307c-1.37059,-6.78967 30.08616,-13.26906 31.08281,-9.65159c2.91085,10.56546 10.5402,32.72934 10.5402,32.72934c0,0 8.5972,1.44252 13.33703,3.23899c13.85799,5.2523 12.28415,23.02861 -5.32139,28.30006c0,0 -15.13996,4.04234 -32.71296,6.28627z" data-paper-data="{&quot;origPos&quot;:null}" fill="#907900" stroke-linecap="butt"/><path d="M295.9614,393.10684c0,0 8.57833,-4.29715 13.09778,-4.743c4.51954,-0.44592 5.93075,1.09352 5.93075,1.09352" data-paper-data="{&quot;origPos&quot;:null}" fill="none" stroke-linecap="round"/></g><path d="M284.16292,425.65218l-17.38168,-62.23783l2.62327,-1.28691c0,0 -0.54231,3.78294 3.24221,17.32331c3.07956,11.01813 13.65587,45.81147 13.65587,45.81147z" data-paper-data="{&quot;origRot&quot;:0}" fill="#b19300" stroke="none" stroke-width="0" stroke-linecap="butt"/></g><g data-paper-data="{&quot;index&quot;:null,&quot;origRot&quot;:0}" stroke-width="0.5" stroke-linecap="butt"><path d="M385.0294,257.46858c-5.45711,7.73548 -16.53573,9.31152 -24.74475,3.52034c-8.20904,-5.79126 -10.43991,-16.75673 -4.98284,-24.49221c5.45707,-7.73547 16.53569,-9.31149 24.74472,-3.52031c8.20906,5.79121 10.4399,16.75674 4.98284,24.49221z" data-paper-data="{&quot;origPos&quot;:null}" fill="#fff8d5" stroke="#45433a"/><path d="M252.66488,180.82316c9.52118,-15.39579 19.90461,-16.54527 28.74974,-14.80825c8.28381,1.62678 35.51696,14.47268 55.59461,27.76019c20.07765,13.28753 46.51693,40.95727 46.51693,40.95727c0,0 -4.13542,9.64786 -9.89586,15.22543c-5.76045,5.57755 -15.97102,9.82022 -15.97102,9.82022c0,0 -16.87606,-23.573 -36.1528,-38.30208c-19.27677,-14.72908 -54.99331,-29.86167 -54.99331,-29.86167z" data-paper-data="{&quot;origRot&quot;:0,&quot;origPos&quot;:null}" fill="#67ff26" stroke="#183b09"/></g><path d="M196.30542,387.76963l26.3323,-111.12941l22.84058,0.13977l-26.3323,111.12941z" data-paper-data="{&quot;origRot&quot;:0,&quot;index&quot;:null}" fill="#00c7c6" stroke="#004040" stroke-width="0.5" stroke-linecap="butt"/><g data-paper-data="{&quot;index&quot;:null}" stroke="#1b1600" stroke-width="0.5"><path d="M221.39682,431.12716c-17.47824,2.89097 -33.14147,3.36118 -33.14147,3.36118c-18.37775,0 -24.98442,-16.5779 -13.21531,-25.58449c4.02536,-3.08052 11.57694,-6.92845 11.57694,-6.92845c0,0 8.98132,-24.70222 8.73928,-35.65865c-0.08288,-3.75131 31.4411,-5.28595 32.07564,1.61159c1.10152,11.97344 -5.01562,63.03016 -6.0351,63.19877z" data-paper-data="{&quot;origPos&quot;:null}" fill="#907900" stroke-linecap="butt"/><path d="M180.8924,405.09316c0,0 0.91036,-1.8795 5.36787,-2.74869c4.45749,-0.86921 13.90787,0.78676 13.90787,0.78676" data-paper-data="{&quot;origPos&quot;:null}" fill="none" stroke-linecap="round"/></g><path d="M203.1636,362.97913l14.65093,-64.3681l4.32323,-0.24018c0,0 -5.91653,19.19648 -8.93586,31.47755c-2.19787,8.93975 -7.15616,32.89055 -7.15616,32.89055z" fill="#00e4e4" stroke="none" stroke-width="0" stroke-linecap="butt"/><g data-paper-data="{&quot;index&quot;:null,&quot;origRot&quot;:0}" stroke-width="0.5" stroke-linecap="butt"><path d="M103.94191,259.05899c-5.88958,-7.41146 -4.28809,-18.48642 3.57712,-24.73664c7.86519,-6.25017 19.01569,-5.3089 24.90528,2.10257c5.8896,7.41147 4.28808,18.48638 -3.57712,24.73664c-7.86519,6.25017 -19.01569,5.30888 -24.90532,-2.1026z" data-paper-data="{&quot;origPos&quot;:null}" fill="#fff8d5" stroke="#45433a"/><path d="M218.50715,186.54911c0,0 -34.79484,17.14601 -53.19971,32.95108c-18.40484,15.80507 -33.90827,40.30266 -33.90827,40.30266c0,0 -10.43604,-3.65312 -16.50537,-8.89288c-6.06932,-5.23978 -10.74854,-14.63593 -10.74854,-14.63593c0,0 24.81729,-29.13335 44.10399,-43.54493c19.28672,-14.41155 45.74248,-28.79052 53.91996,-30.88735c8.73162,-2.23892 19.16371,-1.68383 29.54789,13.14357z" data-paper-data="{&quot;origRot&quot;:0,&quot;origPos&quot;:null}" fill="#67ff26" stroke="#183b09"/></g><path d="M249.36507,156.46239c-77.39066,-1.90696 -78.09973,-50.33027 -78.09973,-50.33027c0,0 18.8597,-37.6857 62.15536,-37.6857c43.29566,0 82.14878,29.95544 82.14878,29.95544c0,0 -3.84229,60.6555 -66.20441,58.06053z" data-paper-data="{&quot;index&quot;:null}" fill="#2b1702" stroke="#0f0801" stroke-width="1" stroke-linecap="butt"/><path d="M227.80945,176.03469c0,0 0,-8.463 0,-13.87975c0,-10.40439 0,-26.65993 0,-26.65993h35.32745v40.53968z" data-paper-data="{&quot;index&quot;:null}" fill="#fff8d5" stroke="#514f44" stroke-width="0.5" stroke-linecap="butt"/><path d="M262.49109,153.69102v14.61241l-17.73927,0.74822l-3.37679,-17.24839z" data-paper-data="{&quot;index&quot;:null}" fill="#d4ceb2" stroke="#000000" stroke-width="0" stroke-linecap="butt"/><path d="M218.26237,166.16845c5.84676,-0.2012 18.28287,0.36938 28.93246,0.46479c10.64961,0.09541 29.09328,-0.72524 29.09328,-0.72524c0,0 3.99514,123.97461 0.50292,127.37902c-4.39569,4.28519 -27.36769,6.68752 -39.13541,6.68752c-17.18406,0 -20.10138,-0.39785 -22.05943,-5.81291c-2.6983,-7.46222 2.6662,-127.99318 2.6662,-127.99318z" data-paper-data="{&quot;index&quot;:null}" fill="#67ff26" stroke="#183b09" stroke-width="0.5" stroke-linecap="butt"/><path d="M243.04473,299.1178l0.11696,-132.27199l4.05394,-0.00026c0,0 -0.05313,61.39849 -0.08713,100.69665c-0.01163,13.44788 -0.02981,31.57562 -0.02981,31.57562z" data-paper-data="{&quot;index&quot;:null}" fill="#82a19f" stroke="#2b3434" stroke-width="0.25" stroke-linecap="butt"/><path d="M211.0399,190.82381l5.19514,-24.244l11.33486,1.73171v22.51229z" data-paper-data="{&quot;index&quot;:null}" fill="#67ff26" stroke="none" stroke-width="0" stroke-linecap="butt"/><path d="M269.84966,192.26809v-25.33819l11.13874,-0.60097l4.53712,25.16178z" data-paper-data="{&quot;index&quot;:null}" fill="#67ff26" stroke="none" stroke-width="0" stroke-linecap="butt"/><path d="M104.9707,235.80046c0,0 30.01246,-33.08773 48.22321,-45.60097c24.25037,-16.66325 17.49319,-11.10872 37.28681,-22.66865c17.38822,-10.15514 17.85825,-5.31698 17.85825,-5.31698c0,0 -32.87019,18.4743 -54.43086,33.07799c-16.41646,11.11937 -46.0277,45.03686 -46.0277,45.03686z" data-paper-data="{&quot;origRot&quot;:0}" fill="#b7ff97" stroke="none" stroke-width="0" stroke-linecap="butt"/><path d="M216.08524,293.95154c0,0 -0.6176,-9.49727 -0.6176,-15.37833c0,-17.64325 2.09301,-87.19201 2.09301,-87.19201l1.70869,0.17155l0.58331,106.10443z" fill="#b7ff97" stroke="none" stroke-width="0" stroke-linecap="butt"/><path d="M187.51762,401.27058c0,0 4.33538,-14.7653 6.80278,-24.83075c0.90699,-3.69993 1.84368,-10.44129 1.84368,-10.44129l2.4704,-0.72055l-8.16611,36.23277z" fill="#b19300" stroke="none" stroke-width="0" stroke-linecap="butt"/><path d="M171.21973,414.13734c4.30308,-6.75252 16.81257,-11.40853 16.81257,-11.40853c0,0 -11.28592,7.49888 -13.93042,11.64871c-2.6445,4.14983 -1.68126,14.10977 -1.68126,12.84961c0,-1.26016 -5.50397,-6.33727 -1.20089,-13.08979z" fill="#b19300" stroke="none" stroke-width="0" stroke-linecap="butt"/><path d="M215.20687,431.17292c0,0 2.85039,-22.67098 4.18069,-37.36589c1.3303,-14.69494 3.73838,-29.64417 3.73838,-29.64417l4.43302,3.70564c0,0 -1.53025,17.64658 -2.41305,28.9413c-1.02936,13.16964 -4.33942,33.74553 -4.33942,33.74553z" fill="#665500" stroke="none" stroke-width="0" stroke-linecap="butt"/><path d="M267.65178,295.86613c0,0 3.2258,-6.2566 3.90692,-25.94133c0.72488,-20.9486 4.73954,-78.17647 4.73954,-78.17647c0,0 1.44108,42.61587 1.44108,69.89221c0,12.65399 -1.44108,32.42423 -1.44108,32.42423z" fill="#56d420" stroke="none" stroke-width="0" stroke-linecap="butt"/><g><path d="M333.51007,84.65909c0,-18.32231 29.64553,-46.07937 29.64553,-46.07937c0,0 29.64553,26.75514 29.64553,46.07937c0,19.32422 -13.27275,33.17546 -29.64552,33.17546c-16.37277,0 -29.64553,-14.85316 -29.64553,-33.17547z" data-paper-data="{&quot;origPos&quot;:null,&quot;index&quot;:null}" fill="url(#color-1)" stroke="#0066ff" stroke-width="0" stroke-linecap="butt"/><g data-paper-data="{&quot;index&quot;:null}"><g data-paper-data="{&quot;origPos&quot;:null}" stroke="#ffffff" stroke-width="0" stroke-linecap="butt"><path d="M378.48987,95.56559c-2.70441,0 -4.89678,-5.34343 -4.89678,-11.93487c0,-6.59146 -0.23896,-11.93487 4.89678,-11.93487c5.13572,0 4.89676,5.34343 4.89676,11.93487c0,6.59144 -2.19235,11.93487 -4.89676,11.93487z" data-paper-data="{&quot;origPos&quot;:null,&quot;index&quot;:null}" fill="url(#color-2)"/><path d="M361.71921,95.56557c-2.70441,0 -4.89678,-5.34343 -4.89678,-11.93487c0,-3.35009 -0.23896,-11.93487 4.89678,-11.93487c5.13572,0 4.89676,5.34343 4.89676,11.93487c0,6.59144 -2.19235,11.93487 -4.89676,11.93487z" data-paper-data="{&quot;origPos&quot;:null,&quot;index&quot;:null}" fill="url(#color-3)"/></g><path d="M374.95518,104.70288c0,0 -2.87995,1.53167 -4.24074,1.54697c-1.91237,0.02149 -4.14632,-1.45273 -4.14632,-1.45273" data-paper-data="{&quot;origPos&quot;:null}" fill="none" stroke="#268436" stroke-width="2.5" stroke-linecap="round"/></g></g><g><path d="M322.82977,83.65576c0,39.81323 -34.65317,72.08822 -77.4,72.08822c-42.7468,0 -77.4,-32.27501 -77.4,-72.08822c0,-39.81323 34.65317,-72.08822 77.4,-72.08822c42.7468,0 77.4,32.27499 77.4,72.08822z" data-paper-data="{&quot;index&quot;:null}" fill="#fff8d5" stroke="#514f44" stroke-width="0.5" stroke-linecap="butt"/><path d="M302.92251,65.68061l20.32294,11.79585c0,0 -22.47732,4.12758 -26.10569,-0.5021c-3.6284,-4.62968 -11.51257,-19.90625 -19.99085,-23.03097c-8.95896,-3.30187 -13.69163,1.12359 -23.15459,1.4991c-8.60316,0.34141 -13.74195,-3.50175 -22.02582,-0.97867c-4.6091,1.40382 -17.11212,11.89893 -17.11212,11.89893l0.05363,-13.86259c0,0 0.78828,13.17416 -4.39366,19.13258c-5.18193,5.95845 -15.46039,3.69649 -15.46039,3.69649l7.51846,-13.35965c0,0 -3.7284,4.78889 -7.3405,12.61084c-3.61208,7.82196 12.03412,-49.92364 14.85142,-54.61642c5.09024,-8.47872 60.9225,7.96962 74.00613,7.08221c8.90278,-0.60383 18.83102,38.63439 18.83102,38.63439z" data-paper-data="{&quot;index&quot;:null}" fill="#8a7967" stroke="#000000" stroke-width="0" stroke-linecap="butt"/><path d="M170.36332,102.03493v-19.72941h150.75291v19.72941z" data-paper-data="{&quot;index&quot;:null}" fill="#000000" stroke="#000000" stroke-width="0" stroke-linecap="butt"/><path d="M299.49321,70.15619c-3.16854,-5.96666 -7.26886,-19.90625 -16.39628,-23.03097c-9.64489,-3.30187 -14.73986,1.12356 -24.92736,1.49908c-9.26185,0.34141 -14.79405,-3.50175 -23.71216,-0.97867c-8.91811,2.52308 -18.42228,11.89893 -18.42228,11.89893l0.05776,-13.86259c0,0 0.84863,13.17416 -4.73005,19.13261c-5.5787,5.95845 -16.64407,3.69649 -16.64407,3.69649l8.0941,-13.35965c0,0 -4.01386,4.78889 -7.9025,12.61084c-3.88864,7.82196 -11.23277,18.51577 -17.87236,30.05855c-6.63962,11.54279 3.62684,33.45968 3.62684,33.45968c0,0 -10.90667,-22.90419 -11.90918,-25.39794c-0.10488,-0.26095 -3.68173,-10.12991 -3.65023,-18.59456c0.06433,-17.28812 0.57183,-36.1885 0.57183,-36.1885c0,0 2.43476,-17.1453 5.46778,-21.83806c5.47995,-8.47872 8.988,-10.53416 16.21676,-15.61704c7.22874,-5.08286 21.66336,-10.72209 23.22158,-7.92368c1.69659,3.04688 -12.60743,6.94058 -12.51638,6.91174c5.72845,-1.81435 23.89371,-12.6723 43.45281,-12.00874c19.55909,0.66353 57.32037,13.09191 55.70867,16.1421c-1.17668,1.62417 -12.82075,-3.87268 -12.82075,-3.87268c0,0 24.75868,10.99058 29.33497,24.60744c4.73359,14.08495 7.97476,21.99322 9.52689,36.77104c0.80053,7.62196 0.81028,11.99824 -0.26501,19.58629c-3.15263,22.24734 -5.58728,16.42901 -5.58728,16.42901c0,0 -14.77215,-9.48722 -13.18672,-23.365c0,0 -1.56881,-10.79904 -4.73737,-16.76572z" data-paper-data="{&quot;index&quot;:null}" fill="url(#color-4)" stroke="#0f0801" stroke-width="1" stroke-linecap="butt"/><path d="M266.29562,113.88501c0,-5.7026 0,-23.72027 0,-41.05352c0,-1.26055 2.64631,-3.22997 2.64631,-3.22997c0,0 13.51638,-3.36079 22.47031,-3.36079c1.42156,0 3.64258,2.3101 3.64258,3.78868c0,17.22427 0,38.75946 0,44.13501c0,1.79181 -2.22104,4.59138 -3.64258,4.59138c0,0 -17.31823,0 -21.52415,0c-1.402,0 -3.59243,-2.96989 -3.59243,-4.87075z" data-paper-data="{&quot;index&quot;:null}" fill="#000000" stroke="#00360a" stroke-width="0" stroke-linecap="butt"/><path d="M245.38502,134.61337h19.9072" data-paper-data="{&quot;index&quot;:null}" fill="none" stroke="#000000" stroke-width="0.5" stroke-linecap="round"/><path d="M245.33139,113.2444c0,1.90086 -2.19043,4.87075 -3.59243,4.87075c-4.20592,0 -21.52415,0 -21.52415,0c-1.42154,0 -3.64258,-2.79955 -3.64258,-4.59138c0,-5.37555 0,-26.91075 0,-44.13501c0,-1.47859 2.22102,-3.78868 3.64258,-3.78868c8.95395,0 22.47031,3.36079 22.47031,3.36079c0,0 2.64631,1.96943 2.64631,3.22997c0,17.33326 0,35.35092 0,41.05352z" data-paper-data="{&quot;index&quot;:null}" fill="#000000" stroke="#00360a" stroke-width="0" stroke-linecap="butt"/></g><g data-paper-data="{&quot;origRot&quot;:0,&quot;index&quot;:null}" fill="#fff400" stroke="#000000" stroke-width="1" stroke-linecap="butt"><path d="M388.54592,294.58263c0,0 -16.64595,-20.45766 -26.54238,-32.62026c-0.28702,-0.35273 -2.98659,1.58231 -3.26195,1.24391c-2.0093,-2.46942 -3.69321,-4.53891 -4.83285,-5.93952c-0.19535,-0.2401 2.19681,-2.55293 2.03455,-2.75235c-2.03593,-2.50213 -4.14245,-5.09102 -4.14245,-5.09102l4.88386,-4.60067l37.43549,46.00776l-5.57425,3.75216z" data-paper-data="{&quot;origRot&quot;:0}"/><path d="M393.97877,290.94552c0,0 -20.03258,-24.61978 -26.94273,-33.11227c-0.19931,-0.24497 -3.04397,1.65119 -3.25348,1.39371c-1.81501,-2.23062 -3.05807,-3.75832 -4.98629,-6.12809c-0.18124,-0.22274 2.27939,-2.59085 2.1028,-2.80789c-2.56308,-3.15 -4.35581,-5.35323 -4.35581,-5.35323l18.10142,-14.72872c0,0 2.13458,2.62338 4.43252,5.44751c0.41632,0.51164 -2.62407,2.93755 -2.17308,3.49184c2.25737,2.77427 2.49291,3.06377 4.67944,5.75097c0.37067,0.45554 3.59337,-1.74632 3.93744,-1.32345c6.86951,8.44252 26.55918,32.64089 26.55918,32.64089z" data-paper-data="{&quot;origRot&quot;:0}"/></g><g data-paper-data="{&quot;origRot&quot;:0,&quot;index&quot;:null}" fill="#fff400" stroke="#000000" stroke-width="1" stroke-linecap="butt"><path d="M97.33507,291.58264l-5.57425,-3.75216l37.4355,-46.00777l4.88387,4.60067c0,0 -2.10653,2.58889 -4.14246,5.09102c-0.16227,0.19943 2.2299,2.51225 2.03455,2.75235c-1.13964,1.40061 -2.82355,3.4701 -4.83285,5.93953c-0.27536,0.33841 -2.97494,-1.59663 -3.26196,-1.2439c-9.89643,12.1626 -26.54238,32.62025 -26.54238,32.62025z" data-paper-data="{&quot;origRot&quot;:0}"/><path d="M73.80082,273.2168c0,0 19.68967,-24.19836 26.55917,-32.64088c0.34407,-0.42288 3.56677,1.77898 3.93744,1.32344c2.18653,-2.6872 2.42207,-2.9767 4.67944,-5.75097c0.45099,-0.55428 -2.5894,-2.9802 -2.17307,-3.49184c2.29793,-2.82414 4.43252,-5.44751 4.43252,-5.44751l18.10142,14.72872c0,0 -1.79273,2.20322 -4.35582,5.35322c-0.17659,0.21704 2.28404,2.58515 2.1028,2.80789c-1.92822,2.36976 -3.17128,3.89747 -4.98629,6.12809c-0.20951,0.25747 -3.05416,-1.63869 -3.25348,-1.39371c-6.91015,8.49249 -26.94273,33.11227 -26.94273,33.11227z" data-paper-data="{&quot;origRot&quot;:0}"/></g></g></g></svg>