<svg version="1.1" xmlns="http://www.w3.org/2000/svg" xmlns:xlink="http://www.w3.org/1999/xlink" width="158.5" height="302.55367" viewBox="0,0,158.5,302.55367"><defs><linearGradient x1="240" y1="73.72317" x2="240" y2="376.27683" gradientUnits="userSpaceOnUse" id="color-1"><stop offset="0" stop-color="#995900" stop-opacity="0"/><stop offset="1" stop-color="#995900"/></linearGradient></defs><g transform="translate(-160.75,-73.72317)"><g data-paper-data="{&quot;isPaintingLayer&quot;:true}" fill-rule="nonzero" stroke-linecap="butt" stroke-linejoin="miter" stroke-miterlimit="10" stroke-dasharray="" stroke-dashoffset="0" style="mix-blend-mode: normal"><path d="M319.25,225c0,83.54788 -35.48143,151.27683 -79.25,151.27683c-43.76857,0 -79.25,-67.72895 -79.25,-151.27683c0,-83.54788 35.48143,-151.27683 79.25,-151.27683c43.76857,0 79.25,67.72895 79.25,151.27683z" fill="url(#color-1)" stroke="none" stroke-width="0"/><path d="M317,248.5c0,66.68838 -34.47407,120.75 -77,120.75c-42.52592,0 -77,-54.06162 -77,-120.75c0,-66.68838 34.47408,-120.75 77,-120.75c42.52593,0 77,54.06162 77,120.75z" fill="#995900" stroke="#663b00" stroke-width="2"/></g></g></svg>