<svg version="1.1" xmlns="http://www.w3.org/2000/svg" xmlns:xlink="http://www.w3.org/1999/xlink" width="1016.5" height="675" viewBox="0,0,1016.5,675"><g transform="translate(198.5,157.5)"><g data-paper-data="{&quot;isPaintingLayer&quot;:true}" fill-rule="nonzero" stroke="none" stroke-width="0" stroke-linecap="butt" stroke-linejoin="miter" stroke-miterlimit="10" stroke-dasharray="" stroke-dashoffset="0" style="mix-blend-mode: normal"><path d="M-198.5,517.5v-675h877v675z" fill="none"/><path d="" fill="#6f3615"/><path d="" fill="#6f3615"/><path d="" fill="#6f3615"/><path d="" fill="#6f3615"/><path d="" fill="#6f3615"/><path d="" fill="#6f3615"/><path d="" fill="#6f3615"/><path d="" fill="#6f3615"/><path d="" fill="#6f3615"/><path d="" fill="#6f3615"/><path d="" fill="#6f3615"/><path d="" fill="#6f3615"/><path d="" fill="#6f3615"/><path d="" fill="#6f3615"/><path d="" fill="#6f3615"/><path d="" fill="#6f3615"/><path d="" fill="#6f3615"/><path d="" fill="#6f3615"/><path d="" fill="#6f3615"/><path d="" fill="#6f3615"/><path d="" fill="#6f3615"/><path d="" fill="#6f3615"/><g fill="#5514c4"><path d="M177.72026,227.94527v-35.98785h76.11488v35.98785z"/><path d="M267.5,103.5v-238.5h211v238.5z"/><path d="M294.5,243.5v-94h60v94z"/><path d="M456.5,233.5v-322.5h60v322.5z"/><path d="M553.5,450v-263.5h22v263.5z"/><path d="M553.5,157.5v-246.5h22v246.5z"/><g><path d="M647.5,450.5v-287h22v287z"/><path d="M647.5,134.5v-246.5h22v246.5z"/></g><path d="M743.5,450.5v-328h22v328z"/><path d="M743.5,93.5v-246.5h22v246.5z"/><path d="M752,92.5v-14h66v14z"/></g></g></g></svg>