<svg xmlns="http://www.w3.org/2000/svg" xmlns:xlink="http://www.w3.org/1999/xlink" version="1.1" width="169.69437" height="244.66776" viewBox="0,0,169.69437,244.66776"><g><g data-paper-data="{&quot;isPaintingLayer&quot;:true}" fill-rule="nonzero" stroke-linejoin="miter" stroke-miterlimit="10" stroke-dasharray="" stroke-dashoffset="0" style="mix-blend-mode: normal"><path d="M 82.9478 135.0206 C 82.9478 141.54 69.3982 146.8249 52.6839 146.8249 C 45.1881 146.8249 43.3728 145.762 38.0866 144.0015 C 31.5856 141.8364 22.4199 138.6163 22.4199 135.0206 C 22.4199 132.4496 29.5713 130.0705 33.1491 128.1318 C 38.6434 125.1547 42.5612 123.2163 52.6838 123.2163 C 69.3982 123.2163 82.9478 128.5013 82.9478 135.0206 Z " fill="#2e2e2e" stroke="#000000" stroke-linecap="butt" stroke-width="3.5"/><g data-paper-data="{&quot;index&quot;:null}" stroke-linecap="butt"><path d="M 55.978 146.6183 C 60.4312 147.0785 61.9888 145.4374 62.4373 147.0507 C 62.8631 148.5821 60.3574 148.0254 56.9016 149.7585 C 52.2104 152.1113 45.2214 156.716 36.3459 158.1749 C 20.9324 160.7085 7.6238 159.8359 6.6201 156.2258 C 5.6165 152.6157 17.2981 147.6352 32.7116 145.1016 C 41.2368 143.7002 50.4666 146.0487 55.978 146.6183 Z " fill="#000000" stroke-width="3.5" stroke="#000000"/><path d="M 23.3581 154.2384 C 23.7261 158.1934 20.1423 161.6131 15.3537 161.8766 C 13.9431 161.9542 10.246 164.36 9.0229 163.9312 C 6.0938 162.9043 6.2763 157.9825 6.0167 155.1924 C 5.6488 151.2374 9.2324 147.8177 14.0211 147.5543 C 18.8098 147.2908 22.9901 150.2834 23.3581 154.2384 Z " fill="#ffc885" stroke-width="3.5" stroke="#000000"/></g><g stroke-linecap="butt"><path d="M 127.3778 159.9461 C 127.3778 186.6081 119.1246 208.2219 90.6747 208.2219 C 62.2249 208.2219 51.396 185.6178 51.396 158.9558 C 51.396 132.2938 62.2249 111.6703 90.6747 111.6703 C 119.1246 111.6703 127.3778 133.2841 127.3778 159.9461 Z " fill="#000000" stroke-width="3.5" stroke="#000000"/><path d="M 126.09 185.6932 C 126.09 188.8379 110.2246 191.3872 89.065 191.3872 C 67.9054 191.3872 53.3278 188.8379 53.3278 185.6932 C 53.3278 184.9039 51.0266 184.152 52.7369 183.4686 C 57.8407 181.4293 73.2163 179.9991 89.065 179.9991 C 100.62 179.9991 115.1036 180.7593 121.7795 181.9616 C 127.3285 182.961 126.09 184.2657 126.09 185.6931 Z " fill="#9c9c9c" stroke-width="3.5" stroke="#000000"/><path d="M 129.2993 164.8974 C 129.2993 168.0422 112.0553 170.5915 89.057 170.5915 C 66.0588 170.5915 50.2145 168.0422 50.2145 164.8974 C 50.2145 164.1081 47.7134 163.3563 49.5723 162.6729 C 55.1195 160.6335 71.8312 159.2034 89.057 159.2034 C 101.6161 159.2034 117.3583 159.9636 124.6143 161.1659 C 130.6455 162.1652 129.2993 163.47 129.2993 164.8974 Z " fill="#9c9c9c" stroke-width="3.5" stroke="#000000"/><path d="M 128.6574 142.6163 C 128.6574 145.761 111.6891 148.3103 89.0586 148.3103 C 66.4281 148.3103 50.8372 145.761 50.8372 142.6163 C 50.8372 141.827 48.376 141.0752 50.2052 140.3917 C 55.6638 138.3524 72.1083 136.9222 89.0587 136.9222 C 101.4169 136.9222 116.9074 137.6825 124.0474 138.8847 C 129.9821 139.8841 128.6575 141.1888 128.6575 142.6163 Z " fill="#9c9c9c" stroke-width="3.5" stroke="#000000"/></g><path d="M 167.0087 67.6878 C 167.0087 102.2333 130.0143 130.2379 84.3793 130.2379 C 38.7444 130.2379 1.75 102.2333 1.75 67.6878 C 1.75 33.1423 38.7444 5.1377 84.3793 5.1377 C 130.0143 5.1377 167.0087 33.1423 167.0087 67.6878 Z " fill="#ffc885" stroke="#000000" stroke-linecap="butt" stroke-width="3.5"/><path d="M 167.9443 30.7154 C 167.9443 39.9767 166.6931 41.9464 147.7898 40.8436 C 142.785 40.5516 134.5257 42.8212 125.9149 42.0973 C 124.245 41.9569 122.5619 37.4839 120.8867 37.601 C 117.2045 37.8585 113.5608 42.9066 110.1804 42.0446 C 107.6503 41.3994 105.2678 37.4828 103.1271 37.3471 C 98.233 37.0368 92.5748 46.7671 87.4894 46.8018 C 86.9426 46.8055 65.1373 38.8128 64.5962 38.8852 C 36.9906 42.5786 12.7731 82.313 5.7079 82.1571 C 1.407 82.0622 9.5416 45.6811 9.5416 39.628 C 9.5416 34.4725 13.1095 33.0333 18.2472 29.0021 C 19.6616 27.8924 18.0133 23.7902 20.2894 22.7408 C 21.1342 22.3512 25.7061 22.765 27.2448 21.3946 C 28.4578 20.3143 26.6689 17.4093 27.3588 17.0464 C 30.1131 15.5974 35.0424 15.643 38.2068 14.2204 C 51.2298 8.3657 65.7121 1.75 85.2015 1.75 C 130.8991 1.75 167.9444 14.7183 167.9444 30.7155 Z " fill="#000000" stroke="#000000" stroke-linecap="butt" stroke-width="3.5"/><path d="M 87.5201 52.9714 L 97.7578 56.7101 L 95.826 76.0204 " fill="none" stroke="#000000" stroke-linecap="round" stroke-width="3.5"/><path d="M 115.1435 75.0302 L 116.4313 56.7101 L 124.9407 52.5147 " fill="none" stroke="#000000" stroke-linecap="round" stroke-width="3.5"/><path d="M 64.2743 94.3405 L 52.0399 93.8453 L 62.3425 86.9134 L 52.0399 86.9134 " fill="none" stroke="#000000" stroke-linecap="round" stroke-width="3.5"/><path d="M 140.2561 92.3599 L 126.09 92.3599 L 137.6804 83.9426 L 127.3778 83.9426 " fill="none" stroke="#000000" stroke-linecap="round" stroke-width="3.5"/><path d="M 85.5234 111.6702 C 85.5234 110.5764 86.6766 109.6897 88.0991 109.6897 C 89.5216 109.6897 90.6747 110.5764 90.6747 111.6702 C 90.6747 112.7641 89.5216 113.6508 88.0991 113.6508 C 86.6766 113.6508 85.5234 112.7641 85.5234 111.6702 Z " fill="#000000" stroke="none" stroke-linecap="butt" stroke-width="3.5"/><g stroke-linecap="butt"><path d="M 32.5265 145.5345 C 16.9156 147.2074 3.7233 145.5995 3.0606 141.9432 C 2.398 138.2869 14.5159 133.9667 30.1268 132.2938 C 39.1159 131.3305 47.7315 133.8195 53.1863 134.7965 C 57.2045 135.5163 59.3115 134.3342 59.5926 135.8852 C 59.8887 137.5192 57.695 136.3867 53.7151 137.9903 C 48.7894 139.975 41.1609 144.6093 32.5265 145.5345 Z " fill="#000000" stroke-width="3.5" stroke="#000000"/><path d="M 13.8723 148.1453 C 9.2553 149.1572 4.3666 146.8862 2.9533 143.0729 C 1.9562 140.3828 -0.4045 135.8059 1.8913 134.0705 C 2.8499 133.3459 7.3941 134.6343 8.7541 134.3362 C 13.3711 133.3244 18.2598 135.5954 19.6731 139.4087 C 21.0865 143.2219 18.4894 147.1335 13.8723 148.1453 Z " fill="#ffc885" stroke-width="3.5" stroke="#000000"/></g><path d="M 120.2948 202.0327 C 120.2948 205.7243 106.7452 208.717 90.0308 208.717 C 73.3165 208.717 61.3303 209.8118 61.3303 206.1201 C 61.3303 204.4191 57.9865 197.044 62.7239 195.8642 C 68.2681 194.4834 81.0179 195.3483 90.0309 195.3483 C 99.8871 195.3483 112.7081 193.9348 118.2339 195.5458 C 122.0788 196.6667 120.2948 200.5179 120.2948 202.0327 Z " fill="#0035ff" stroke="#000000" stroke-linecap="butt" stroke-width="3.5"/><path d="M 72.0012 192.3775 C 72.0012 192.3775 75.7759 188.4332 75.3753 186.2774 C 74.9235 183.8454 69.4256 178.5137 69.4256 178.5137 L 108.0604 178.0186 C 108.0604 178.0186 103.553 181.7749 103.553 183.9602 C 103.553 186.228 108.0604 191.3872 108.0604 191.3872 Z " fill="#737373" stroke="#000000" stroke-linecap="round" stroke-width="3.5"/><path d="M 62.9505 207.1357 C 62.9505 207.1357 61.865 205.9109 61.865 205.0842 C 61.865 203.5599 61.865 198.5813 61.865 198.5813 L 119.9725 198.3031 C 119.9725 198.3031 115.6307 203.0035 115.6307 204.5278 C 115.6307 205.3544 113.2789 206.8575 113.2789 206.8575 Z " fill="#0035ff" stroke="none" stroke-linecap="butt" stroke-width="3.5"/><path d="M 125.2812 219.6645 C 125.2812 232.507 109.0302 242.9178 88.9835 242.9178 C 68.9368 242.9178 52.6858 232.5069 52.6858 219.6645 C 52.6858 206.8221 68.9368 196.4113 88.9835 196.4113 C 109.0302 196.4113 125.2812 206.8222 125.2812 219.6645 Z M 88.5518 229.7212 C 89.1332 229.7212 94.0606 229.6222 96.9752 227.1641 C 97.8664 226.4124 101.8037 227.4417 103.221 226.4612 C 106.8191 223.972 108.4952 219.2693 108.4952 218.8179 C 108.4952 218.465 108.5769 214.7054 106.0119 212.9141 C 105.0054 212.2112 103.7456 211.3922 102.6016 210.6181 C 101.5613 209.9141 100.6169 209.2473 100.046 208.7387 C 97.3568 206.3432 90.2956 208.4077 89.7024 208.4077 C 89.0665 208.4077 81.948 207.0289 78.9214 209.4848 C 77.8461 210.3573 74.6067 211.0482 72.6666 212.1991 C 69.67 213.9766 67.951 217.8115 67.951 218.1604 C 67.951 218.5215 68.938 222.1655 72.2062 224.3145 C 74.5332 225.8445 79.1512 225.8061 80.2642 226.9485 C 82.8298 229.5821 87.9593 229.7212 88.5518 229.7212 Z " fill="#0035ff" stroke="#000000" stroke-linecap="butt" stroke-width="3.5"/><path d="M 76.194 203.2585 C 76.6949 204.1488 78.5346 205.5136 77.8632 206.7519 C 76.9237 208.4847 72.9804 210.1584 70.4196 211.5991 C 68.2655 212.811 65.2266 215.6693 63.414 215.798 C 61.5318 215.9316 60.9054 213.2923 60.2932 212.2042 C 59.0915 210.068 61.6768 206.3339 66.0677 203.8636 C 70.4586 201.3933 74.9923 201.1224 76.194 203.2585 Z " fill="#000000" stroke="none" stroke-linecap="butt" stroke-width="3.5"/><path d="M 113.2247 234.8861 C 109.4685 238.2436 104.6406 241.4371 103.0072 239.6098 C 102.1752 238.6789 99.2561 233.8227 99.9906 232.0846 C 100.6979 230.4108 104.3847 228.4582 106.2275 226.811 C 108.4181 224.8529 111.276 221.6618 113.2193 221.3324 C 114.6082 221.097 118.8366 226.7363 119.5174 227.4979 C 121.1508 229.3253 116.981 231.5286 113.2247 234.8861 Z " data-paper-data="{&quot;index&quot;:null}" fill="#000000" stroke="none" stroke-linecap="butt" stroke-width="3.5"/></g></g></svg>