<svg version="1.1" xmlns="http://www.w3.org/2000/svg" xmlns:xlink="http://www.w3.org/1999/xlink" width="73.02595" height="70.08813" viewBox="0,0,73.02595,70.08813"><g transform="translate(-203.48703,-144.95595)"><g data-paper-data="{&quot;isPaintingLayer&quot;:true}" fill-rule="nonzero" stroke="none" stroke-linecap="butt" stroke-linejoin="miter" stroke-miterlimit="10" stroke-dasharray="" stroke-dashoffset="0" style="mix-blend-mode: normal"><g><path d="M214.45659,205.6349v-51.26978h51.08682v51.26978z" fill="#eb8a73" stroke-width="0"/><path d="M216.34519,203.73953v-47.47906h47.30961v47.47906z" fill="#eadfd8" stroke-width="0"/><path d="M219.58207,162.98458c-0.01667,0.02973 -0.03632,0.05914 -0.0595,0.08714c-0.29161,1.33583 0.15248,3.18363 0.15248,4.6074c0,4.02896 -1.18851,9.04008 -0.3635,12.83925c-1.42461,2.84923 1.66274,3.05659 3.63934,3.45192c3.67976,0.73595 7.93257,-0.0132 11.74303,-0.0132c0.74735,0.01866 2.28618,0.89455 2.99669,0.58752c0.73614,-0.31811 1.19415,-0.82416 2.14253,-0.94254c0.38617,-0.04821 0.88289,0.37379 1.16291,0.10352c2.19481,-2.11841 -0.45668,-7.78925 -0.45174,-10.34763c0.23454,-0.93818 0.17514,-1.83852 0.17514,-2.80096c0,-1.63518 0.1107,-3.43349 -0.15285,-5.0337c-0.08992,-0.54598 -1.35958,-0.65695 -1.81377,-0.8672c-3.07067,-1.42147 -5.89523,-0.79403 -8.99224,-1.56828c-3.55083,0.02606 -6.78541,-0.83173 -10.17853,-0.10322zM219.00311,161.8252c3.64189,-0.87583 7.1307,-0.00943 10.91134,0.01297c3.7374,0.93436 7.87597,-0.06264 11.29162,2.47423c1.51702,1.12673 0.99387,7.57545 0.5879,9.19938c0.00848,2.98159 2.9205,8.83963 -0.09201,11.23639c-1.65327,1.31534 -5.31492,0.40417 -7.00801,0.46797c-4.35858,0 -8.82895,0.65853 -13.0786,-0.19305c-2.293,-0.45949 -4.96707,-1.81863 -3.55532,-4.64211c-0.54746,-1.87044 0.1562,-4.06735 0.35903,-5.92893c0.4177,-3.83347 -1.03286,-8.6725 0.02923,-12.18812c0,0 0.14408,-0.43225 0.55482,-0.43871z" fill="#c1b2a9" stroke-width="0.5"/><path d="M260.31194,187.90944c-4.74826,1.18706 -8.72743,-1.65552 -13.477,-0.62311c-0.00009,2.18035 -0.1714,4.052 -1.35664,5.91081c-0.66903,1.04925 -2.65916,2.65123 -1.80756,4.16947c0.37635,0.67096 2.01644,1.02842 2.67278,1.17504c2.23318,0.49885 4.27968,1.63447 6.58042,2.14574c6.686,-0.00473 6.79074,-7.24432 7.65948,-12.77594zM251.49682,185.40052c3.07402,0.44006 5.34057,2.08943 8.66127,1.25927l0.64532,-0.00381c0.06216,-0.31393 0.12917,-0.61915 0.20262,-0.91368c0.93209,-4.37762 -0.88942,-7.73161 -1.32375,-11.85948c-4.14366,-0.05431 -8.19667,-1.21202 -12.55053,-0.45392c0.08722,0.88185 0.17218,1.765 0.24063,2.65206c0.2587,3.35227 -0.35874,6.60269 -0.50656,9.89461c1.46638,-0.36533 3.2515,-0.7725 4.63101,-0.57502zM260.43999,163.80664c-4.50386,-0.0885 -8.82185,-1.23244 -13.39792,-0.42888c-0.1197,0.02101 -0.3889,2.84979 -0.38699,3.04229c0,1.93624 0.16591,3.84634 0.35277,5.75678c4.36896,-0.70244 8.44647,0.41573 12.59633,0.4481c0.01473,-2.34749 1.2651,-4.68212 1.2651,-7.20715c-0.11692,-0.45395 -0.23196,-0.90839 -0.34565,-1.36317zM261.58127,163.25279l0.16383,0.49646c0.12613,0.50452 0.25059,1.00946 0.37382,1.5147c0,2.64744 -1.37898,5.23077 -1.2493,7.66161c0.24863,4.66043 2.36118,8.27809 1.36353,13.09869c-1.59155,6.35033 -0.76932,15.93689 -9.44548,15.91479c-2.21751,-0.48004 -8.88213,-1.64878 -10.16308,-3.87185c-1.64795,-2.86001 1.97361,-4.62466 2.61396,-6.99201c0.33206,-1.22761 0.33732,-2.51927 0.33732,-3.79057c0,-3.71193 0.83014,-7.33741 0.54174,-11.09983c-0.25024,-3.26459 -0.72161,-6.47717 -0.72161,-9.76474c0.00819,-0.99459 0.04736,-3.53766 1.05195,-4.15239c3.6382,-2.22624 10.63619,0.28882 14.50653,0.28524c0,0 0.62953,0 0.62953,0.62953c0,0.02438 -0.00094,0.04781 -0.00276,0.07033z" fill="#c1b2a9" stroke-width="0.5"/><path d="M230.46705,165.34087c0,0.62953 -0.62953,0.62953 -0.62953,0.62953h-0.17986c-1.87802,-0.01113 -10.42085,1.52527 -8.97755,-1.69821c0,0 0.3492,-0.52381 0.87302,-0.17461c0.5238,0.3492 0.17461,0.87302 0.17461,0.87302c-0.61508,0.15465 1.63448,0.20697 2.03608,0.11581c1.99853,-0.45374 3.90005,-0.36044 5.89386,-0.37508h0.17986c0,0 0.62953,0 0.62953,0.62953z" fill="#c1b2a9" stroke-width="0.5"/><path d="M236.04294,173.255c0,0.62953 -0.62953,0.62953 -0.62953,0.62953h-0.5396c-3.08696,-0.02266 -6.26446,0.61032 -9.35308,0.5396c-2.01092,-0.04604 -2.62613,-0.95995 -4.88359,-0.37854c0,0 -0.61074,0.15268 -0.76342,-0.45804c-0.15268,-0.61074 0.45804,-0.76342 0.45804,-0.76342c1.83859,-0.4484 2.76879,-0.21354 4.21143,0.40739c1.02426,0.44087 2.82971,-0.42125 3.88052,-0.42569c2.13652,-0.00903 4.3292,-0.16782 6.4501,-0.18038h0.5396c0,0 0.62953,0 0.62953,0.62953z" fill="#c1b2a9" stroke-width="0.5"/><path d="M234.85801,175.60381c0.3492,0.5238 -0.17459,0.87302 -0.17459,0.87302l-0.70637,0.43845c-2.34855,0.05864 -4.93708,0.71258 -7.25927,0.38368c-2.36985,-0.33564 -2.45701,-1.84291 -5.36116,-1.09494c0,0 -0.61074,0.15268 -0.76342,-0.45804c-0.15268,-0.61074 0.45806,-0.76342 0.45806,-0.76342c0.9602,-0.23418 2.82704,-0.67569 3.7524,-0.35157c1.0906,0.38199 0.95085,1.34478 2.03819,1.41504c2.25843,0.14595 4.50937,-0.42097 6.77034,-0.33578l0.37282,-0.28103c0,0 0.5238,-0.3492 0.87302,0.17461z" fill="#c1b2a9" stroke-width="0.5"/><path d="M235.29115,178.99153c0.19908,0.59722 -0.39815,0.79629 -0.39815,0.79629l-0.61522,0.19995c-1.80292,0.35472 -4.89825,0.62014 -6.73126,0.31038c-3.0744,-0.51954 -3.80333,-2.04362 -7.24888,-1.04184c0,0 -0.60531,0.17294 -0.77825,-0.43236c-0.17294,-0.60531 0.43236,-0.77825 0.43236,-0.77825c4.8354,-1.36027 8.95868,1.75065 14.0791,0.70747l0.46399,-0.15979c0,0 0.59722,-0.19907 0.79629,0.39815z" fill="#c1b2a9" stroke-width="0.5"/><path d="M224.97059,201.83804c-0.5238,0.3492 -0.87302,-0.17461 -0.87302,-0.17461l-0.41754,-0.64789c-0.12764,-0.61602 -0.3426,-1.21144 -0.51883,-1.75237c-0.62976,0.85827 -1.3815,1.74622 -2.12309,2.19652l0.16579,0.12435l-0.11546,0.15396c0.00606,0.01231 0.01186,0.02459 0.0174,0.03683l-0.0798,0.04637l-0.16903,0.22537l0.07258,0.07256l-0.5396,0.5396l-0.29595,-0.29595l-0.56167,0.32639c0.07465,-0.20971 0.15439,-0.41131 0.23863,-0.60597l-0.32978,-0.24734l0.2893,-0.38573c-0.53481,-0.47268 -1.28463,-0.90221 -1.31435,-1.5898c-0.00914,-0.21147 0.05093,-0.44451 0.15229,-0.67967c-0.01378,0.02512 -0.02681,0.05071 -0.03904,0.07684c0,0 -0.28152,0.56307 -0.84461,0.28152c-0.56307,-0.28152 -0.28154,-0.84461 -0.28154,-0.84461c0.5909,-1.13118 2.48817,-4.32267 3.51528,-1.65639c0.52187,1.35476 -1.12055,1.81693 -1.24365,2.85223c-0.02245,0.18886 0.35088,0.5544 0.73187,0.96343c0.84325,-1.39965 1.90765,-2.4979 2.87017,-3.94167l0.12991,0.10802c0.02187,-0.01161 0.0445,-0.02288 0.06794,-0.0338l-0.10191,-0.15287l0.07144,-0.04763l-0.05478,-0.21918l0.70577,-0.17643c0.053,-0.01448 0.10879,-0.02222 0.16638,-0.02222c0.34768,0 0.62953,0.28186 0.62953,0.62953c0,0.22198 -0.11489,0.41713 -0.28845,0.52921l-0.45317,0.30211c-0.00486,0.00729 -0.00974,0.01462 -0.01466,0.022c0.41386,0.788 0.55926,1.90723 0.70834,2.68297l0.30192,0.4313c0,0 0.3492,0.5238 -0.17461,0.87302z" fill="#c1b2a9" stroke-width="0.5"/><path d="M225.679,167.43665c0.17606,-0.06945 0.32718,-0.04304 0.44522,0.01373c0.13131,0.04602 0.2648,0.14268 0.33802,0.33857l0.39824,0.68207c-0.00069,0.0029 -0.00139,0.0058 -0.00212,0.00871c0.3644,0.31624 0.3079,0.87982 -0.61561,1.78046c-0.23103,0.00692 -0.64264,0.03566 -1.11807,0.04229c-0.55318,0.24669 -1.12481,0.28054 -1.5317,-0.09562c-0.43957,-0.0766 -0.83343,-0.20847 -1.09409,-0.4285c-0.83407,-0.47389 -1.05115,-1.20561 0.44264,-1.96139c0.32758,-0.16575 0.71344,-0.18327 1.07822,-0.22473c0.55182,-0.0627 1.11349,-0.0554 1.65925,-0.15561z" fill="#ebb0a3" stroke-width="0.5"/><path d="M255.10723,166.52201c-0.23621,0.24019 -0.60076,0.14905 -0.60076,0.14905c-1.77763,-0.50517 -3.54652,1.06771 -1.64307,2.472c1.3009,0.95975 3.75959,-0.2778 2.65897,-1.92873c-0.04736,-0.24388 -0.19958,-0.48184 -0.41514,-0.69232zM250.45743,165.18898c-0.05948,-0.20704 0.00715,-0.40693 0.00715,-0.40693l0.62441,-0.95126c4.33668,-1.05766 6.71782,1.20467 6.71782,5.28728c-0.07875,2.62955 -2.77825,1.94645 -4.66352,1.70402c-0.49302,-0.0634 -2.17262,0.25923 -2.46891,0.05126c-1.1825,-0.83008 -0.80298,-4.11376 -0.21696,-5.68436z" fill="#a9988e" stroke-width="0.5"/><path d="M253.49001,168.21873c0,-0.34768 0.28186,-0.62953 0.62953,-0.62953c0.34768,0 0.62953,0.28186 0.62953,0.62953c0,0.34768 -0.28186,0.62953 -0.62953,0.62953c-0.34768,0 -0.62953,-0.28186 -0.62953,-0.62953z" fill="#a9988e" stroke-width="0.5"/><path d="M255.64389,185.03176c-0.44514,0.44514 -0.8903,0 -0.8903,0l-0.43839,-0.45568c-0.29051,-0.43579 -0.58105,-0.87157 -0.87157,-1.30735c-0.06691,0.05486 -0.12176,0.08228 -0.12176,0.08228c-0.61995,0.30874 -1.15618,0.65672 -1.731,1.03993l-0.26379,0.28107c0,0 -0.44514,0.44514 -0.8903,0c-0.44514,-0.44514 0,-0.8903 0,-0.8903l0.45568,-0.43839c0.58938,-0.39293 1.14787,-0.7506 1.77591,-1.0726l-0.0777,-0.20227c0,-0.30082 0,-0.60166 0,-0.90247c-0.2914,-0.00698 -0.58403,0.01997 -0.86581,0.08086l-0.46399,0.15979c0,0 -0.59722,0.19907 -0.79631,-0.39815c-0.19907,-0.59722 0.39815,-0.79631 0.39815,-0.79631l0.61522,-0.19995c0.28217,-0.053 0.57057,-0.08368 0.85997,-0.09204c-1.68312,-1.38869 -2.44848,-3.75883 0.66388,-4.91736c0.53252,-0.19823 1.08923,-0.38777 1.65735,-0.39884c0,0 0.62953,0 0.62953,0.62953c0,0.05136 -0.00419,0.09852 -0.01189,0.14185c0.67452,0.10906 1.02648,0.40508 1.52495,1.12774c0.33525,0.5401 0.51657,1.21679 0.46241,1.85018c-0.12111,1.41585 -0.68065,2.18151 -1.4222,2.48704c0.2062,0.13334 0.41287,0.27429 0.62797,0.41908c0.08735,0.00393 0.61741,0.05152 0.61741,0.62918c0,0.62953 -0.62953,0.62953 -0.62953,0.62953l-0.52907,-0.10573c-0.69318,-0.46212 -1.2762,-0.95085 -2.07899,-1.15673c0,0.23835 0,0.47671 0,0.71505c0.27065,0.0433 0.43387,0.28814 0.43387,0.28814c0.35973,0.5396 0.71947,1.07919 1.07919,1.6188l0.28107,0.26379c0,0 0.44514,0.44514 0,0.8903zM254.92894,177.39193c0,-0.31385 0.22965,-0.57405 0.53008,-0.62173c-0.16765,-0.18891 -0.33387,-0.21112 -0.79989,-0.18767h-0.17987c0,0 -0.58,0 -0.62657,-0.55672c-0.13963,0.05044 -0.27765,0.10629 -0.41408,0.15789c-5.35758,2.0264 4.78607,5.21462 2.66005,1.5317c-0.11003,0.18337 -0.31079,0.30608 -0.54019,0.30608c-0.34768,0 -0.62953,-0.28186 -0.62953,-0.62953z" fill="#a9988e" stroke-width="0.5"/><path d="M253.49001,177.5718c0,-0.34768 0.28186,-0.62953 0.62953,-0.62953c0.34768,0 0.62953,0.28186 0.62953,0.62953c0,0.34768 -0.28186,0.62953 -0.62953,0.62953c-0.34768,0 -0.62953,-0.28186 -0.62953,-0.62953z" fill="#a9988e" stroke-width="0.5"/><path d="M250.66197,193.89478c0.58451,-0.23381 0.81831,0.3507 0.81831,0.3507l0.23873,0.71806c-0.00173,0.21683 -0.01286,0.42082 -0.0325,0.61161c1.14062,-0.73133 3.63395,-0.74705 5.27666,-1.09223c0.08963,-0.29827 0.41626,-0.40716 0.41626,-0.40716l0.4006,-0.12284c0.32774,-0.04218 0.65988,-0.11359 0.95724,-0.2577c0.05745,-0.06579 0.10677,-0.12027 0.14847,-0.16483c-0.28612,0.21221 -0.86661,0.49743 -1.45129,0.07774c-0.40391,-0.28993 -0.89104,-0.72807 -0.85276,-1.22379c0.03083,-0.39917 1.03673,-0.73884 1.40156,-0.84645c-1.06225,0.26264 -4.40967,0.48497 -6.72843,0.40609c0.31541,0.68798 -0.22194,1.6032 -1.47052,2.11089c0.00045,0.03937 -0.00226,0.08134 -0.00866,0.12604c-0.08903,0.6232 -0.71224,0.53417 -0.71224,0.53417c-1.33519,-0.20338 -0.7707,-0.12852 -0.39611,0.4577c0.05191,-0.11505 0.15212,-0.22568 0.334,-0.30362c0.57863,-0.24798 0.82661,0.33064 0.82661,0.33064c0.09526,0.2225 0.36199,0.61905 0.48587,0.9776c0.06315,-0.41657 0.14897,-0.93866 0.14614,-1.21386l-0.14867,-0.25045c0,0 -0.23381,-0.58451 0.3507,-0.81831zM250.79892,198.11122l-0.44324,-0.01879c-0.58922,-0.148 -1.94995,-0.19212 -2.40958,-0.5618c-1.203,-0.96755 -1.36112,-3.78511 0.58018,-4.06656c0.06809,-0.35172 0.45321,-0.46175 0.45321,-0.46175c1.10396,-0.31315 1.88639,-0.69754 0.28199,-0.70815l-0.60008,0.17145c-0.05906,0.01834 -0.12184,0.02822 -0.18692,0.02822c-0.34768,0 -0.62953,-0.28186 -0.62953,-0.62953c0,-0.25131 0.14726,-0.46824 0.36019,-0.56918l0.95631,-0.47816l0.11676,0.23354c0.02729,0.00096 0.05428,0.00212 0.081,0.00346c2.48037,-1.28144 6.15792,-1.46767 8.65817,-0.67314c1.37996,0.43852 1.27929,1.17805 0.85628,1.71416c0.51616,-0.00119 1.06281,0.12375 1.28071,0.38953c0.72914,0.8893 -0.20286,1.668 -0.6354,2.19771c-0.14069,0.07139 -0.28481,0.13763 -0.43166,0.19776c0.13432,0.19966 0.24602,0.41692 0.33874,0.64226c0.16369,0.0445 0.33763,0.16272 0.40967,0.45082c0.15268,0.61074 -0.45804,0.76342 -0.45804,0.76342l-0.22043,0.04885c-1.41705,1.24727 -4.72955,2.37412 -6.27787,1.98638c-0.57003,-0.14275 -1.17385,-0.46958 -1.56421,-0.90493c-0.18125,0.2444 -0.51627,0.2444 -0.51627,0.2444zM255.58721,196.70935c0.87422,-0.37202 1.78746,-0.58984 2.67212,-0.93108c-0.07119,-0.09374 -0.15351,-0.18055 -0.23856,-0.26318c-1.35764,0.54574 -2.45757,0.5851 -3.92492,0.84467c-0.67821,0.11998 -2.53546,0.06611 -2.00381,0.50394c0.63526,0.52315 1.87323,0.62702 3.10632,0.46054c-0.04734,-0.42797 0.38884,-0.6149 0.38884,-0.6149zM249.15796,196.61016c-0.08947,-0.13287 -0.17752,-0.28054 -0.26341,-0.44329c-0.00476,0.29549 0.05577,0.39135 0.26341,0.44329z" fill="#a9988e" stroke-width="0.5"/><path d="M251.52532,194.18873c0,-0.34768 0.28186,-0.62953 0.62953,-0.62953c0.34768,0 0.62953,0.28186 0.62953,0.62953c0,0.34768 -0.28186,0.62953 -0.62953,0.62953c-0.34768,0 -0.62953,-0.28186 -0.62953,-0.62953z" fill="#a9988e" stroke-width="0.5"/><path d="M254.1403,193.60762c0,-0.34768 0.28186,-0.62953 0.62953,-0.62953c0.34768,0 0.62953,0.28186 0.62953,0.62953c0,0.34768 -0.28186,0.62953 -0.62953,0.62953c-0.34768,0 -0.62953,-0.28186 -0.62953,-0.62953z" fill="#a9988e" stroke-width="0.5"/><path d="M203.48703,215.04407v-70.08813h73.02595v70.08813z" fill="none" stroke-width="0"/></g></g></g></svg>