<svg xmlns="http://www.w3.org/2000/svg" xmlns:xlink="http://www.w3.org/1999/xlink" version="1.1" width="237.96134" height="285.44645" viewBox="0,0,237.96134,285.44645"><g><g data-paper-data="{&quot;isPaintingLayer&quot;:true}" fill-rule="nonzero" stroke-linecap="butt" stroke-linejoin="miter" stroke-miterlimit="10" stroke-dasharray="" stroke-dashoffset="0" style="mix-blend-mode: normal"><g data-paper-data="{&quot;index&quot;:null}"><path d="M 199.9749 282.7586 L 161.6748 238.6735 L 184.5298 212.3721 L 235.473 241.9076 Z " data-paper-data="{&quot;origPos&quot;:null}" fill="#d6bbff" stroke="#9d85c1" stroke-width="1"/><g data-paper-data="{&quot;origPos&quot;:null}"><path d="M 222.1812 255.1045 C 218.7816 252.1504 219.0639 246.2591 222.8118 241.946 C 226.5597 237.633 232.3539 236.5313 235.7536 239.4855 C 236.477 240.1141 237.9613 242.082 237.9613 242.082 C 237.9613 242.082 233.8914 246.634 231.2906 249.627 C 228.8981 252.3802 225.0951 256.3504 225.0951 256.3504 C 225.0951 256.3504 223.0108 255.8254 222.1813 255.1045 Z " data-paper-data="{&quot;origPos&quot;:null}" stroke-width="1" fill="#f7ffb5" stroke="none"/><path d="M 209.462 269.7418 C 206.0623 266.7876 206.3447 260.8964 210.0925 256.5833 C 213.8404 252.2702 219.6347 251.1686 223.0344 254.1228 C 223.7577 254.7514 225.2421 256.7193 225.2421 256.7193 C 225.2421 256.7193 221.1722 261.2713 218.5713 264.2643 C 216.1789 267.0175 212.3758 270.9877 212.3758 270.9877 C 212.3758 270.9877 210.2915 270.4627 209.462 269.7418 Z " data-paper-data="{&quot;origPos&quot;:null}" stroke-width="1" fill="#f7ffb5" stroke="none"/><path d="M 197.5284 271.042 C 201.2763 266.7289 207.0706 265.6273 210.4702 268.5815 C 211.1936 269.2101 212.678 271.178 212.678 271.178 C 212.678 271.178 208.608 275.73 206.0072 278.723 C 203.6148 281.4762 199.8117 285.4465 199.8117 285.4465 C 199.8117 285.4465 197.7274 284.9214 196.8979 284.2006 C 193.4982 281.2464 193.7805 275.3551 197.5284 271.042 Z " data-paper-data="{&quot;origPos&quot;:null}" stroke-width="1" fill="#f7ffb5" stroke="none"/></g></g><g data-paper-data="{&quot;index&quot;:null}"><path d="M 31.6997 194.7781 L 89.3623 204.0201 L 88.7065 238.858 L 30.6811 248.8881 Z " data-paper-data="{&quot;origPos&quot;:null}" fill="#d6bbff" stroke="#9d85c1" stroke-width="1"/><g data-paper-data="{&quot;origPos&quot;:null}"><path d="M 32.4093 230.2374 C 36.9124 230.3222 40.4756 235.0222 40.3681 240.7351 C 40.2605 246.4481 36.5229 251.0106 32.0198 250.9258 C 31.0617 250.9078 28.6605 250.3507 28.6605 250.3507 C 28.6605 250.3507 28.8617 244.2479 28.9364 240.2834 C 29.005 236.6367 29.3749 231.1513 29.3749 231.1513 C 29.3749 231.1513 31.3105 230.2168 32.4092 230.2375 Z " data-paper-data="{&quot;origPos&quot;:null}" stroke-width="1" fill="#f7ffb5" stroke="none"/><path d="M 32.7742 210.8494 C 37.2773 210.9342 40.8406 215.6342 40.733 221.3471 C 40.6255 227.0601 36.8878 231.6226 32.3847 231.5379 C 31.4266 231.5198 29.0254 230.9627 29.0254 230.9627 C 29.0254 230.9627 29.2267 224.8599 29.3013 220.8954 C 29.37 217.2487 29.7398 211.7633 29.7398 211.7633 C 29.7398 211.7633 31.6754 210.8288 32.7742 210.8494 Z " data-paper-data="{&quot;origPos&quot;:null}" stroke-width="1" fill="#f7ffb5" stroke="none"/><path d="M 41.0936 202.1956 C 40.986 207.9085 37.2484 212.4711 32.7453 212.3863 C 31.7872 212.3682 29.3859 211.8111 29.3859 211.8111 C 29.3859 211.8111 29.5872 205.7083 29.6619 201.7439 C 29.7305 198.0971 30.1003 192.6118 30.1003 192.6118 C 30.1003 192.6118 32.0359 191.6772 33.1347 191.6979 C 37.6378 191.7827 41.2011 196.4826 41.0935 202.1956 Z " data-paper-data="{&quot;origPos&quot;:null}" stroke-width="1" fill="#f7ffb5" stroke="none"/></g></g><path d="M 124.9139 163.8684 C 125.517 174.0182 106.5973 180.5132 82.6555 178.3755 C 58.7137 176.2378 38.816 166.2768 38.2129 156.1271 C 37.6098 145.9773 56.5295 139.4823 80.4713 141.62 C 104.4132 143.7577 124.3108 153.7187 124.914 163.8684 Z " data-paper-data="{&quot;origRot&quot;:0,&quot;index&quot;:null}" fill="#d6bbff" stroke="#9d85c1" stroke-width="1"/><path d="M 44.4027 240.8008 L 86.0657 153.6527 L 171.7547 151.8372 L 214.175 238.9853 Z " data-paper-data="{&quot;index&quot;:null}" fill="#999bff" stroke="#7850c7" stroke-width="1"/><g><g data-paper-data="{&quot;index&quot;:null}"><path d="M 221.3602 88.0468 C 209.0808 171.298 180.1422 141.2263 165.0934 137.9069 C 150.0448 134.5875 142.4171 87.7623 148.7714 58.9548 C 155.1257 30.1473 172.4763 9.4851 187.525 12.8045 C 202.5737 16.1239 228.8191 47.1039 221.3602 88.0468 Z " data-paper-data="{&quot;origRot&quot;:0,&quot;origPos&quot;:null,&quot;index&quot;:null}" fill="#d6bbff" stroke="#9d85c1" stroke-width="1"/><path d="M 0.5 81.0518 C 4.2247 29.2642 45.5542 16.4662 59.1628 19.7544 C 72.7715 23.0427 79.5762 69.8501 73.7677 98.6694 C 67.9592 127.4887 74.5899 147.8722 60.9812 144.5839 C 47.3726 141.2957 2.4346 122.1978 0.5 81.0517 Z " data-paper-data="{&quot;origRot&quot;:0,&quot;origPos&quot;:null}" fill="#d6bbff" stroke="#9d85c1" stroke-width="1"/><path d="M 45.5794 95.2418 C 40.6064 47.8945 73.1379 5.6717 118.2405 0.9345 C 163.3432 -3.8027 203.9375 30.7396 208.9104 78.0868 C 213.8834 125.4341 181.352 167.6569 136.2493 172.3942 C 91.1467 177.1314 50.5524 142.5891 45.5794 95.2418 Z " data-paper-data="{&quot;origPos&quot;:null,&quot;origRot&quot;:0}" fill="#d6bbff" stroke="#9d85c1" stroke-width="1"/><path d="M 136.1869 80.2148 C 135.0831 69.7055 142.5303 60.3098 152.8207 59.229 C 163.1111 58.1481 172.348 65.7915 173.4518 76.3008 C 174.5556 86.8102 167.1084 96.2059 156.818 97.2867 C 146.5276 98.3675 137.2907 90.7242 136.1869 80.2148 Z " data-paper-data="{&quot;origPos&quot;:null,&quot;origRot&quot;:0}" fill="#000000" stroke="none" stroke-width="1"/><path d="M 150.9619 75.2242 C 150.387 69.7506 154.1807 64.8659 159.4354 64.314 C 164.6901 63.7621 169.4158 67.7519 169.9908 73.2256 C 170.5657 78.6992 166.772 83.5838 161.5173 84.1357 C 156.2626 84.6877 151.5368 80.6978 150.9619 75.2242 Z " data-paper-data="{&quot;origRot&quot;:0}" fill="#ffffff" stroke="none" stroke-width="1"/><path d="M 171.1079 95.2091 C 173.0458 92.0792 179.8286 91.406 186.2576 93.7056 C 192.6866 96.0052 196.3274 100.4066 194.3894 103.5366 C 192.4515 106.6665 185.6688 107.3397 179.2398 105.0401 C 172.8107 102.7405 169.17 98.339 171.1078 95.2091 Z " data-paper-data="{&quot;origPos&quot;:null,&quot;origRot&quot;:0}" fill="#ffc0bb" stroke="none" stroke-width="1"/><path d="M 40.1323 91.5718 C 40.4968 72.3404 57.4935 26.7148 66.0777 26.8908 C 74.6618 27.0668 71.5828 72.9777 71.2183 92.2091 C 70.8539 111.4404 72.6326 142.291 64.0484 142.115 C 55.4643 141.939 39.768 110.8031 40.1324 91.5718 Z " data-paper-data="{&quot;origRot&quot;:0,&quot;origPos&quot;:null}" fill="#d6bbff" stroke="none" stroke-width="1"/><g data-paper-data="{&quot;origPos&quot;:null,&quot;origRot&quot;:0}"><path d="M 208.7673 135.2875 C 213.9877 156.7532 208.8008 171.2677 170.3915 165.5596 C 155.7613 163.3854 130.8566 146.0429 121.363 135.6355 C 111.8693 125.2281 111.4372 100.9309 111.4372 100.9309 L 142.7938 97.5483 C 142.7938 97.5483 146.7238 122.5187 160.4987 124.8812 C 176.9845 127.7086 203.547 113.8218 208.7673 135.2875 Z " data-paper-data="{&quot;origPos&quot;:null,&quot;origRot&quot;:0}" stroke="#9d85c1" stroke-width="1" fill="#d6bbff"/><path d="M 119.5665 119.3466 L 110.8793 97.1937 L 140.7029 94.9714 L 146.3944 116.5016 Z " data-paper-data="{&quot;origRot&quot;:0,&quot;origPos&quot;:null}" stroke="none" stroke-width="1" fill="#d6bbff"/></g><path d="M 70.2342 98.0551 C 72.4733 94.8935 80.1667 94.1248 87.4178 96.338 C 94.669 98.5512 98.7321 102.9084 96.493 106.0699 C 94.2539 109.2315 86.5606 110.0003 79.3094 107.7871 C 72.0582 105.5738 67.9951 101.2167 70.2342 98.0551 Z " data-paper-data="{&quot;origPos&quot;:null,&quot;origRot&quot;:0}" fill="#ffc0bb" stroke="none" stroke-width="1"/><path d="M 96.1938 61.9701 C 106.4842 60.8893 115.7211 68.5327 116.8249 79.042 C 117.9288 89.5513 110.4816 98.947 100.1911 100.0278 C 89.9007 101.1087 80.6639 93.4653 79.56 82.956 C 78.4562 72.4466 85.9034 63.0509 96.1938 61.9701 Z " data-paper-data="{&quot;origPos&quot;:null,&quot;origRot&quot;:0}" fill="#000000" stroke="none" stroke-width="1"/><path d="M 94.5486 78.2561 C 93.9737 72.7825 97.7674 67.8978 103.0221 67.346 C 108.2768 66.794 113.0026 70.7839 113.5775 76.2575 C 114.1524 81.7312 110.3587 86.6158 105.104 87.1677 C 99.8493 87.7196 95.1235 83.7298 94.5486 78.2562 Z " data-paper-data="{&quot;origRot&quot;:0}" fill="#ffffff" stroke="none" stroke-width="1"/></g><path d="M 64.2274 53.3593 C 59.6515 62.5111 52.5671 79.6669 52.331 89.5094 C 52.1952 95.1686 58.3289 124.0193 41.7089 124.0193 C 34.6348 124.0193 31.3343 118.9908 31.0868 113.3972 C 29.925 87.1373 36.2933 76.0761 42.0143 53.3567 C 43.0103 49.4016 48.1703 32.5643 53.5477 32.9352 C 54.9466 32.257 56.5167 31.8767 58.1756 31.8767 C 64.042 31.8767 68.7977 36.6324 68.7977 42.4988 C 70.4253 44.2194 65.3634 51.0871 64.2274 53.3593 Z " fill="#d6bbff" stroke="none" stroke-width="0.5"/></g><path d="M 117.7648 185.2178 C 93.9087 182.2739 76.7775 171.9461 79.5012 162.15 C 82.2248 152.354 103.772 146.7992 127.6282 149.7431 C 151.4843 152.687 168.6155 163.0148 165.8919 172.8109 C 163.1682 182.6069 141.621 188.1617 117.7649 185.2178 Z " data-paper-data="{&quot;origRot&quot;:0,&quot;index&quot;:null}" fill="#d6bbff" stroke="#9d85c1" stroke-width="1"/></g></g></svg>