<svg xmlns="http://www.w3.org/2000/svg" xmlns:xlink="http://www.w3.org/1999/xlink" version="1.1" width="259.93707" height="334.22474" viewBox="0,0,259.93707,334.22474"><defs><radialGradient cx="242.69443" cy="364.23344" r="72" gradientUnits="userSpaceOnUse" id="color-1"><stop offset="0" stop-color="#7f26ff" stop-opacity="0"/><stop offset="1" stop-color="#7f26ff"/></radialGradient><radialGradient cx="304.69443" cy="327.23344" r="40.00752" gradientUnits="userSpaceOnUse" id="color-2"><stop offset="0" stop-color="#7f26ff" stop-opacity="0"/><stop offset="1" stop-color="#7f26ff"/></radialGradient><radialGradient cx="152.69443" cy="324.23344" r="42.50141" gradientUnits="userSpaceOnUse" id="color-3"><stop offset="0" stop-color="#7f26ff" stop-opacity="0"/><stop offset="1" stop-color="#7f26ff"/></radialGradient><radialGradient cx="123.69443" cy="241.23344" r="63" gradientUnits="userSpaceOnUse" id="color-4"><stop offset="0" stop-color="#7f26ff" stop-opacity="0"/><stop offset="1" stop-color="#7f26ff"/></radialGradient><radialGradient cx="210.69443" cy="152.23344" r="104.10854" gradientUnits="userSpaceOnUse" id="color-5"><stop offset="0" stop-color="#7f26ff" stop-opacity="0"/><stop offset="1" stop-color="#7f26ff"/></radialGradient><radialGradient cx="319.69443" cy="234.23344" r="58.75" gradientUnits="userSpaceOnUse" id="color-6"><stop offset="0" stop-color="#7f26ff" stop-opacity="0"/><stop offset="1" stop-color="#7f26ff"/></radialGradient><radialGradient cx="231.69443" cy="245.23344" r="84.75" gradientUnits="userSpaceOnUse" id="color-7"><stop offset="0" stop-color="#7f26ff" stop-opacity="0"/><stop offset="1" stop-color="#7f26ff"/></radialGradient><radialGradient cx="197.69443" cy="397.23344" r="30.59651" gradientUnits="userSpaceOnUse" id="color-8"><stop offset="0" stop-color="#7f26ff" stop-opacity="0"/><stop offset="1" stop-color="#7f26ff"/></radialGradient><radialGradient cx="230.69443" cy="420.23344" r="34.5588" gradientUnits="userSpaceOnUse" id="color-9"><stop offset="0" stop-color="#7f26ff" stop-opacity="0"/><stop offset="1" stop-color="#7f26ff"/></radialGradient><radialGradient cx="296.69443" cy="409.23344" r="34.5588" gradientUnits="userSpaceOnUse" id="color-10"><stop offset="0" stop-color="#7f26ff" stop-opacity="0"/><stop offset="1" stop-color="#7f26ff"/></radialGradient><radialGradient cx="273.69443" cy="392.23344" r="22.73555" gradientUnits="userSpaceOnUse" id="color-11"><stop offset="0" stop-color="#7f26ff" stop-opacity="0"/><stop offset="1" stop-color="#7f26ff"/></radialGradient><radialGradient cx="164.7768" cy="254.5538" r="72" gradientUnits="userSpaceOnUse" id="color-1-,0,0,1,-77.91766,-109.67968"><stop offset="0" stop-color="#7f26ff" stop-opacity="0"/><stop offset="1" stop-color="#7f26ff"/></radialGradient><radialGradient cx="226.7768" cy="217.5538" r="40.0075" gradientUnits="userSpaceOnUse" id="color-2-,0,0,1,-77.91766,-109.67968"><stop offset="0" stop-color="#7f26ff" stop-opacity="0"/><stop offset="1" stop-color="#7f26ff"/></radialGradient><radialGradient cx="74.7768" cy="214.5538" r="42.5014" gradientUnits="userSpaceOnUse" id="color-3-,0,0,1,-77.91766,-109.67968"><stop offset="0" stop-color="#7f26ff" stop-opacity="0"/><stop offset="1" stop-color="#7f26ff"/></radialGradient><radialGradient cx="45.7768" cy="131.5538" r="63" gradientUnits="userSpaceOnUse" id="color-4-,0,0,1,-77.91766,-109.67968"><stop offset="0" stop-color="#7f26ff" stop-opacity="0"/><stop offset="1" stop-color="#7f26ff"/></radialGradient><radialGradient cx="132.7768" cy="42.5538" r="104.1085" gradientUnits="userSpaceOnUse" id="color-5-,0,0,1,-77.91766,-109.67968"><stop offset="0" stop-color="#7f26ff" stop-opacity="0"/><stop offset="1" stop-color="#7f26ff"/></radialGradient><radialGradient cx="241.7768" cy="124.5538" r="58.75" gradientUnits="userSpaceOnUse" id="color-6-,0,0,1,-77.91766,-109.67968"><stop offset="0" stop-color="#7f26ff" stop-opacity="0"/><stop offset="1" stop-color="#7f26ff"/></radialGradient><radialGradient cx="153.7768" cy="135.5538" r="84.75" gradientUnits="userSpaceOnUse" id="color-7-,0,0,1,-77.91766,-109.67968"><stop offset="0" stop-color="#7f26ff" stop-opacity="0"/><stop offset="1" stop-color="#7f26ff"/></radialGradient><radialGradient cx="119.7768" cy="287.5538" r="30.5965" gradientUnits="userSpaceOnUse" id="color-8-,0,0,1,-77.91766,-109.67968"><stop offset="0" stop-color="#7f26ff" stop-opacity="0"/><stop offset="1" stop-color="#7f26ff"/></radialGradient><radialGradient cx="152.7768" cy="310.5538" r="34.5588" gradientUnits="userSpaceOnUse" id="color-9-,0,0,1,-77.91766,-109.67968"><stop offset="0" stop-color="#7f26ff" stop-opacity="0"/><stop offset="1" stop-color="#7f26ff"/></radialGradient><radialGradient cx="218.7768" cy="299.5538" r="34.5588" gradientUnits="userSpaceOnUse" id="color-10-,0,0,1,-77.91766,-109.67968"><stop offset="0" stop-color="#7f26ff" stop-opacity="0"/><stop offset="1" stop-color="#7f26ff"/></radialGradient><radialGradient cx="195.7768" cy="282.5538" r="22.7355" gradientUnits="userSpaceOnUse" id="color-11-,0,0,1,-77.91766,-109.67968"><stop offset="0" stop-color="#7f26ff" stop-opacity="0"/><stop offset="1" stop-color="#7f26ff"/></radialGradient></defs><g><g data-paper-data="{&quot;isPaintingLayer&quot;:true}" fill-rule="nonzero" stroke-linejoin="miter" stroke-miterlimit="10" stroke-dasharray="" stroke-dashoffset="0" style="mix-blend-mode: normal"><g><g data-paper-data="{&quot;index&quot;:null}" stroke-linecap="butt"><path d="M 188.2471 321.4246 L 164.2497 277.0918 L 192.0184 256.044 L 231.2808 289.4337 Z " data-paper-data="{&quot;origPos&quot;:null}" fill="#000000" stroke="#000000" stroke-width="1"/><g data-paper-data="{&quot;origPos&quot;:null}" font-family="sans-serif" font-weight="normal" font-size="12" text-anchor="start"/></g><path d="M 223.2193 270.9305 C 230.6793 269.4787 237.0788 270.6454 240.6688 274.8106 C 244.2587 278.9758 244.9068 286.3256 241.5704 292.2222 C 234.953 302.4479 228.7962 309.5182 201.6556 324.8618 C 194.8025 326.6483 187.7871 325.1363 184.2063 320.9817 C 180.6255 316.8272 180.5447 310.4749 183.3045 303.57 C 186.0644 296.6649 191.6686 289.207 199.4582 282.8369 C 207.2479 276.4671 215.7593 272.3824 223.2192 270.9305 Z " data-paper-data="{&quot;origRot&quot;:0,&quot;index&quot;:null}" fill="#000000" stroke="none" stroke-width="2.5" stroke-linecap="round"/></g><path d="M 251.7303 222.6053 C 249.706 232.5694 229.7527 233.9867 207.1634 225.7708 C 184.574 217.5549 167.9026 202.8171 169.9269 192.853 C 171.9512 182.8889 191.9044 181.4717 214.4938 189.6875 C 237.0832 197.9034 253.7546 212.6412 251.7303 222.6053 Z " data-paper-data="{&quot;origRot&quot;:0,&quot;index&quot;:null}" fill="#000000" stroke="#000000" stroke-width="1" stroke-linecap="butt"/><path d="M 77.341 231.7535 C 54.7516 239.9694 34.7984 238.5521 32.7741 228.588 C 30.7498 218.6239 47.4212 203.8861 70.0106 195.6702 C 92.6 187.4543 112.5533 188.8715 114.5775 198.8357 C 116.6018 208.7998 99.9304 223.5376 77.341 231.7535 Z " data-paper-data="{&quot;origRot&quot;:0,&quot;index&quot;:null}" fill="#000000" stroke="#000000" stroke-width="1" stroke-linecap="butt"/><g><path d="M 153.0352 187.0877 C 171.6716 187.112 188.1463 192.9328 199.7048 202.316 C 211.2667 211.7006 217.9125 224.647 216.8939 238.9224 C 215.8785 253.1984 207.3852 266.1252 194.486 275.4782 C 181.5904 284.829 164.2888 290.6053 145.6522 290.581 C 127.0155 290.5568 110.5411 284.7366 98.9825 275.3534 C 87.4189 265.9688 80.7748 253.0225 81.7918 238.7471 C 82.1795 233.313 82.9043 230.2387 85.264 224.8277 C 89.1108 216.0068 101.9888 204.5894 103.1895 203.7008 C 103.5897 203.4045 103.7945 202.4862 104.2015 202.1913 C 117.0971 192.8404 134.3984 187.0634 153.0353 187.0877 Z " data-paper-data="{&quot;origRot&quot;:0,&quot;index&quot;:null}" fill="#080064" stroke="#000000" stroke-width="2.5" stroke-linecap="butt"/><g data-paper-data="{&quot;origRot&quot;:0}" stroke-linecap="round"><path d="M 198.2456 183.2441 L 150.9445 233.9219 L 119.7435 183.474 Z " fill="#ffffff" stroke-width="2.5" stroke="#000000"/><path d="M 146.5889 242.1129 L 150.6179 198.9727 L 138.7866 188.6079 L 164.4636 187.7675 L 156.3821 198.784 L 165.3746 238.6931 L 156.8216 251.5951 Z " fill="#ac0000" stroke-width="2.5" stroke="#000000"/><path d="M 157.6549 196.6674 L 184.8338 187.3223 L 182.5843 202.5874 Z " fill="#ffffff" stroke-width="2.5" stroke="#000000"/><path d="M 126.947 205.0151 L 128.078 191.3661 L 151.4969 197.4757 Z " fill="#ffffff" stroke-width="2.5" stroke="#000000"/></g><path d="M165.5268,378.10563l-3.23559,-6.28613l66.84516,-5.18922l5.51502,4.87018c0,0 -12.15409,11.05833 -18.8533,11.7871c-3.36464,0.36602 -32.27079,3.49488 -37.02238,3.11958c-7.17915,-0.56704 -13.24894,-8.30151 -13.24894,-8.30151z" fill="#080064" stroke="none" stroke-width="0" stroke-linecap="butt" transform="matrix(1,0,0,1,-77.91766,-109.67968)"/></g><g><g stroke-linecap="butt"><g data-paper-data="{&quot;index&quot;:null}"><path d="M 240.6253 128.7782 C 228.346 212.0294 199.4073 181.9577 184.3586 178.6383 C 169.3099 175.3189 161.6823 128.4937 168.0366 99.6862 C 174.3909 70.8788 191.7415 50.2165 206.7902 53.536 C 221.8389 56.8553 248.0843 87.8353 240.6253 128.7782 Z " data-paper-data="{&quot;origRot&quot;:0,&quot;origPos&quot;:null,&quot;index&quot;:null}" fill="#d6bbff" stroke="#9d85c1" stroke-width="1"/><path d="M 19.7652 121.7832 C 23.4899 69.9956 64.8194 57.1976 78.428 60.4858 C 92.0367 63.7741 98.8414 110.5815 93.0329 139.4008 C 87.2244 168.2201 93.855 188.6036 80.2464 185.3153 C 66.6378 182.0271 21.6998 162.9292 19.7652 121.7831 Z " data-paper-data="{&quot;origRot&quot;:0,&quot;origPos&quot;:null}" fill="#d6bbff" stroke="#9d85c1" stroke-width="1"/><path d="M 64.8446 135.9732 C 59.8716 88.6259 92.4031 46.4031 137.5057 41.6659 C 182.6084 36.9287 223.2027 71.471 228.1756 118.8182 C 233.1486 166.1655 200.6172 208.3883 155.5145 213.1256 C 110.4119 217.8628 69.8176 183.3205 64.8446 135.9732 Z " data-paper-data="{&quot;origPos&quot;:null,&quot;origRot&quot;:0}" fill="#d6bbff" stroke="#9d85c1" stroke-width="1"/><path d="M 190.373 135.9405 C 192.311 132.8106 199.0938 132.1374 205.5228 134.437 C 211.9518 136.7366 215.5926 141.1381 213.6546 144.268 C 211.7167 147.3979 204.934 148.0711 198.5049 145.7715 C 192.0759 143.4719 188.4351 139.0704 190.373 135.9405 Z " data-paper-data="{&quot;origPos&quot;:null,&quot;origRot&quot;:0}" fill="#000000" stroke="none" stroke-width="1"/><path d="M 59.3975 132.3032 C 59.7619 113.0718 76.7587 67.4462 85.3429 67.6222 C 93.927 67.7982 90.8479 113.7091 90.4835 132.9405 C 90.1191 152.1718 91.8978 183.0224 83.3136 182.8464 C 74.7295 182.6704 59.0331 151.5345 59.3976 132.3032 Z " data-paper-data="{&quot;origRot&quot;:0,&quot;origPos&quot;:null}" fill="#d6bbff" stroke="none" stroke-width="1"/><g data-paper-data="{&quot;origPos&quot;:null,&quot;origRot&quot;:0}"><path d="M 228.0325 176.0189 C 233.2528 197.4846 228.066 211.9991 189.6567 206.291 C 175.0265 204.1168 150.1218 186.7743 140.6282 176.3669 C 131.1345 165.9595 130.7023 141.6623 130.7023 141.6623 L 162.0589 138.2797 C 162.0589 138.2797 165.989 163.2501 179.7639 165.6126 C 196.2497 168.44 222.8122 154.5532 228.0325 176.0189 Z " data-paper-data="{&quot;origPos&quot;:null,&quot;origRot&quot;:0}" stroke="#9d85c1" stroke-width="1" fill="#d6bbff"/><path d="M 138.8317 160.078 L 130.1445 137.9251 L 159.9681 135.7028 L 165.6596 157.233 Z " data-paper-data="{&quot;origRot&quot;:0,&quot;origPos&quot;:null}" stroke="none" stroke-width="1" fill="#d6bbff"/></g><path d="M 89.4994 138.7865 C 91.7385 135.625 99.4318 134.8562 106.683 137.0694 C 113.9342 139.2826 117.9972 143.6398 115.7582 146.8013 C 113.5191 149.9629 105.8257 150.7317 98.5746 148.5185 C 91.3233 146.3052 87.2603 141.9481 89.4994 138.7865 Z " data-paper-data="{&quot;origPos&quot;:null,&quot;origRot&quot;:0}" fill="#000000" stroke="none" stroke-width="1"/></g><path d="M 83.4926 94.0907 C 78.9166 103.2425 71.8323 120.3983 71.5961 130.2408 C 71.4604 135.9 77.5941 164.7507 60.9741 164.7507 C 53.9 164.7507 50.5995 159.7222 50.352 154.1286 C 49.1902 127.8687 55.5585 116.8076 61.2795 94.0881 C 62.2755 90.133 67.4355 73.2957 72.8129 73.6666 C 74.2118 72.9884 75.7819 72.6081 77.4408 72.6081 C 83.3072 72.6081 88.0628 77.3638 88.0628 83.2302 C 89.6905 84.9508 84.6286 91.8185 83.4925 94.0907 Z " fill="#d6bbff" stroke="none" stroke-width="0.5"/></g><g stroke-linecap="butt"><path d="M182.68031,201.79221l0.59117,-19.3149l31.62806,1.27453c0,7.9103 0,15.82059 0,23.7309c-12.16316,-1.18714 -32.21924,-5.69052 -32.21924,-5.69052z" stroke-width="0" fill="#d6bbff" stroke="none" transform="matrix(1,0,0,1,-77.91766,-109.67968)"/></g><g stroke-linecap="butt"><path d="M277.31345,184.79983l-0.59117,19.3149c0,0 -22.2912,3.60654 -34.31135,3.12216c-0.3264,-0.01316 -0.66384,-0.03052 -1.01139,-0.05185c0,-7.68589 0,-15.92846 0,-23.83245z" stroke-width="0" fill="#d6bbff" stroke="none" transform="matrix(1,0,0,1,-77.91766,-109.67968)"/></g><path d="M 72.6311 137.2448 C 69.0901 135.7371 64.3454 136.9313 62.7074 134.6257 C 57.4267 127.1907 56.5557 118.0947 53.4842 109.8408 C 52.5395 107.3015 49.1217 104.5887 50.6464 102.2152 C 55.3549 94.8874 61.7047 87.4515 70.484 83.3838 C 73.5203 81.9768 76.2243 87.2904 76.8142 90.0893 C 77.4661 93.1802 76.3614 96.8592 73.8309 99.2487 C 71.6849 101.2751 67.741 101.9509 64.5171 101.7019 C 61.0991 101.4375 57.9057 99.7304 55.4033 97.8223 C 52.9724 95.9675 51.6004 93.3026 50.2369 90.8093 C 48.9157 88.3913 47.4141 85.8505 47.3991 83.1837 C 47.3764 78.7107 49.1348 74.3157 50.1279 69.9047 C 51.221 65.0514 52.4105 60.1956 53.6662 55.366 C 55.037 50.0915 55.9888 44.7048 58.0136 39.5673 C 59.0783 36.8638 59.9597 33.5521 62.8702 32.0085 C 68.357 29.0955 75.2948 28.7356 81.4978 27.1023 C 84.5996 26.2852 87.6321 24.1641 90.8116 24.6492 C 94.2295 25.17 96.7157 27.7387 99.1159 29.7884 C 102.3817 32.5768 105.6013 35.5638 107.675 39.0478 C 109.1033 41.4474 109.6248 44.2983 109.3489 46.9801 C 109.0534 49.8422 108.319 53.0067 106.0105 55.1859 C 103.8486 57.228 100.103 59.5134 97.0517 58.5925 C 94.0001 57.6711 92.8094 53.9576 93.0494 51.2728 C 93.8361 42.4776 96.5457 33.7372 100.0255 25.3619 C 101.3419 22.1921 104.1322 19.3978 107.2111 17.1894 C 109.6929 15.4094 112.9937 14.4545 116.1699 13.7828 C 119.8012 13.015 123.6372 12.6858 127.3567 12.9297 C 131.1637 13.1793 134.7354 14.5286 138.4454 15.2425 C 141.6153 15.8531 145.7097 15.0322 148.0129 16.9094 C 151.7719 19.9713 152.9241 24.6596 154.9535 28.6886 C 156.1891 31.139 158.5377 33.7094 157.7913 36.3142 C 157.0385 38.9398 153.6532 40.604 151.0613 42.274 C 148.0957 44.1828 142.1721 48.6112 141.2931 46.9401 C 139.9945 44.4758 143.1699 37.527 146.704 34.0009 C 151.6327 29.0836 158.7302 25.8021 165.5315 22.762 C 168.4211 21.4708 171.9388 21.1346 175.2003 21.2624 C 179.0151 21.4118 182.6264 22.7156 186.2876 23.5757 C 189.6259 24.3598 193.3706 24.5667 196.2104 26.1951 C 199.0303 27.813 201.9506 30.1019 202.5408 32.9014 C 203.1927 35.9922 201.6304 39.391 199.5583 42.0605 C 197.6816 44.479 194.0557 45.6045 191.3084 47.3738 C 188.5617 49.1427 186.1593 51.38 183.0589 52.686 C 179.428 54.2154 172.3756 57.5727 171.4162 55.7527 C 170.1959 53.4365 175.3768 47.7003 178.7019 44.4135 C 180.8557 42.2847 184.2284 41.165 187.3061 40.054 C 191.4115 38.5722 195.8478 37.804 200.1129 36.6805 C 203.2141 35.8644 206.3914 33.3274 209.4259 34.2277 C 213.6676 35.4867 215.4083 39.7939 218.7952 42.2273 C 221.8241 44.4024 225.828 45.6311 228.6185 48.0132 C 230.9189 49.9775 232.421 52.5323 233.7846 55.0255 C 235.1063 57.4442 237.0003 59.9975 236.6228 62.6519 C 236.1219 66.1786 233.1948 69.2131 231.311 72.424 C 229.8063 74.9878 228.8121 77.895 226.4539 79.9837 C 224.1613 82.0127 221.0466 83.501 217.8498 84.3432 C 214.6521 85.1856 211.0844 85.4576 207.8261 84.8892 C 204.4738 84.3056 201.6802 82.4014 198.7126 81.0103 C 195.488 79.4985 192.4685 77.6891 189.2438 76.1772 C 186.2763 74.7861 183.2233 73.4959 180.13 72.2976 C 176.2551 70.7968 172.4727 69.0071 168.333 68.0779 C 163.1083 66.9058 157.509 67.0552 152.2343 66.0378 C 148.3022 65.2811 144.7726 63.3464 140.7916 62.7719 C 136.1321 62.0992 131.3063 62.1223 126.5663 62.3323 C 123.3022 62.477 119.959 62.8505 116.8976 63.8319 C 113.7672 64.8353 110.8323 66.3701 108.2934 68.1914 C 105.3891 70.2739 103.2127 72.9711 100.7532 75.411 C 96.9935 79.1402 92.9876 82.7427 89.6209 86.7165 C 87.6395 89.0539 86.2979 91.7248 84.7634 94.2755 C 81.5629 99.5953 78.2814 104.9083 75.4047 110.3475 C 73.7786 113.4217 72.1291 116.5464 71.257 119.8129 C 70.5129 122.6055 70.4261 125.5164 70.6022 128.3596 C 70.7682 131.0419 71.7186 133.6501 72.2756 136.2912 C 72.4153 136.9525 73.0725 136.4301 72.2756 136.2912 Z " data-paper-data="{&quot;origRot&quot;:0,&quot;index&quot;:null}" fill="#000000" stroke="#000000" stroke-width="2.5" stroke-linecap="round"/></g><g><path d="M 16.1752 203.1394 C 18.9433 198.6494 23.4042 195.7887 28.3749 194.7941 C 33.346 193.7997 38.8264 194.6714 43.6336 197.6457 C 48.4409 200.6201 51.6728 205.139 53.011 210.037 C 54.349 214.935 53.793 220.2117 51.0249 224.7017 C 48.2568 229.1917 43.7959 232.0523 38.8252 233.0469 C 33.8542 234.0414 28.3738 233.1696 23.5665 230.1953 C 18.7593 227.2209 15.5273 222.7021 14.1891 217.804 C 12.8512 212.9061 13.4071 207.6293 16.1752 203.1394 Z " fill="#ff9400" stroke="#000000" stroke-linecap="butt" stroke-width="1.5"/><path d="M 27.0913 215.1838 L 23.7568 213.6377 L 31.2552 195.9318 L 34.5896 197.478 Z " fill="#ff9400" stroke="none" stroke-linecap="butt" stroke-width="1.5"/><path d="M 25.8911 231.2651 C 24.836 231.4714 24.1531 232.5449 23.2996 232.2417 C 20.5476 231.2639 18.3049 229.1513 15.8113 227.6084 C 15.0441 227.1337 13.7399 227.0212 13.5071 226.1829 C 12.7887 223.5947 12.3758 220.7105 13.2172 218.2635 C 13.5082 217.4171 15.2597 218.2914 16.0147 218.8887 C 16.8483 219.5482 17.4623 220.6412 17.4964 221.6483 C 17.5252 222.5024 16.8855 223.3162 16.1805 223.7827 C 15.4328 224.2772 14.4026 224.3773 13.4656 224.3143 C 12.5549 224.2529 11.6735 223.8169 10.8325 223.4223 C 10.017 223.0394 9.1376 222.6556 8.5284 221.9967 C 7.5072 220.8916 6.8619 219.5137 6.0592 218.2575 C 5.1759 216.8751 4.3114 215.4763 3.4663 214.0733 C 2.5434 212.5409 1.5106 211.0494 0.75 209.444 C 0.3497 208.5993 -0.2256 207.6337 0.0088 206.774 C 0.4505 205.1528 1.7642 203.9267 2.6405 202.5052 C 3.0787 201.7945 3.2068 200.7717 3.9565 200.3708 C 4.7624 199.94 5.8463 200.1694 6.795 200.2842 C 8.0857 200.4404 9.4122 200.6534 10.621 201.1772 C 11.4537 201.5381 12.2066 202.1594 12.7607 202.8697 C 13.3518 203.6276 13.9234 204.5326 13.9544 205.4511 C 13.9836 206.3117 13.7497 207.492 12.9265 207.7637 C 12.1033 208.0354 11.0197 207.3096 10.4579 206.6049 C 8.6172 204.2954 7.1756 201.6844 5.9719 199.0379 C 5.5164 198.0362 5.4424 196.8862 5.5597 195.8343 C 5.6544 194.9862 6.1012 194.2085 6.5875 193.5217 C 7.1435 192.736 7.8403 192.026 8.6439 191.4769 C 9.4662 190.915 10.4913 190.6643 11.3999 190.2335 C 12.1762 189.8654 12.8133 188.9909 13.7034 189.0787 C 15.1553 189.2218 16.4525 190.1955 17.7765 190.8617 C 18.582 191.2668 19.6387 191.5193 20.0806 192.2873 C 20.5259 193.0616 20.2232 194.029 20.0813 194.8678 C 19.9188 195.8269 19.7338 197.8955 19.177 197.6254 C 18.3558 197.2271 17.4151 194.984 17.3247 193.5308 C 17.1986 191.5037 17.8803 189.5272 18.5573 187.6592 C 18.8449 186.8656 19.4761 186.2057 20.1612 185.703 C 20.9626 185.1149 21.9852 184.8464 22.9172 184.4596 C 23.7668 184.107 24.5672 183.5444 25.5086 183.483 C 26.4435 183.422 27.5512 183.511 28.3062 184.1082 C 29.1397 184.7677 29.5979 185.8665 29.7879 186.8678 C 29.9599 187.7749 29.4865 188.648 29.336 189.5368 C 29.1855 190.4256 29.2109 191.3737 28.8842 192.2058 C 28.5014 193.1797 27.8458 195.1679 27.2393 194.8738 C 26.4675 194.4995 26.2055 192.2285 26.1275 190.8688 C 26.077 189.988 26.5009 189.1578 26.8674 188.378 C 27.3564 187.3378 28.0742 186.4205 28.6767 185.4432 C 29.1149 184.7325 29.1775 183.5829 29.9927 183.3088 C 31.1318 182.9259 32.4609 183.7085 33.6952 183.7568 C 34.799 183.7999 35.8836 183.4482 36.9862 183.5816 C 37.8955 183.6916 38.7783 184.079 39.6192 184.4736 C 40.4347 184.8565 41.396 185.1793 41.9233 185.8992 C 42.624 186.8557 42.7252 188.0873 43.076 189.1924 C 43.3562 190.0745 43.8169 190.9581 43.8172 191.8624 C 43.8174 192.7412 43.5291 193.6206 43.0774 194.3532 C 42.6257 195.0858 41.9699 195.7378 41.1855 196.1312 C 40.3782 196.5358 39.3837 196.5213 38.4705 196.6628 C 37.4783 196.8163 36.4597 196.8627 35.4675 197.0162 C 34.5542 197.1577 33.6469 197.338 32.7525 197.5478 C 31.632 197.8106 30.4643 197.9867 29.4205 198.4348 C 28.1031 199.0003 27.0109 199.9548 25.7187 200.5672 C 24.7557 201.0237 23.6062 201.1226 22.6747 201.6324 C 21.5846 202.2292 20.619 203.0256 19.7133 203.8544 C 19.0896 204.4253 18.5021 205.0658 18.1094 205.8106 C 17.7078 206.5724 17.4663 207.434 17.3695 208.3014 C 17.2588 209.2936 17.434 210.319 17.4937 211.3268 C 17.5851 212.8676 17.5982 214.417 17.824 215.954 C 17.9569 216.8582 18.294 217.7402 18.5652 218.6241 C 19.1305 220.4673 19.6779 222.3223 20.3355 224.1423 C 20.7072 225.171 21.0855 226.2159 21.6528 227.1687 C 22.1376 227.9828 22.7821 228.7188 23.4635 229.3947 C 24.1066 230.0326 24.8907 230.5235 25.6031 231.0872 C 25.7813 231.228 25.7949 230.991 25.6031 231.0872 Z " fill="#000000" stroke="#000000" stroke-linecap="round" stroke-width="1.5"/><path d="M 27.5561 214.0164 L 29.8508 208.2458 " fill="none" stroke="#000000" stroke-linecap="round" stroke-width="1.5"/><path d="M 30.5603 206.5112 L 33.3831 199.8981 " fill="none" stroke="#000000" stroke-linecap="round" stroke-width="1.5"/><path d="M 43.8389 222.716 C 43.8389 222.716 42.7465 220.672 44.3163 218.9225 C 45.8405 217.2236 47.4295 219.0992 47.4295 219.0992 " fill="none" stroke="#000000" stroke-linecap="round" stroke-width="1.5"/><path d="M 29.5312 211.1955 L 38.7866 215.672 " fill="none" stroke="#000000" stroke-linecap="round" stroke-width="1.5"/><path d="M 42.1833 207.2391 L 32.928 202.7627 " fill="none" stroke="#000000" stroke-linecap="round" stroke-width="1.5"/></g><g><g data-paper-data="{&quot;index&quot;:null}" stroke-linecap="butt"><path d="M 113.9762 326.0438 L 97.2293 278.4958 L 127.9556 262.0639 L 161.4949 301.1987 Z " data-paper-data="{&quot;origPos&quot;:null}" fill="#000000" stroke="#000000" stroke-width="1"/><g data-paper-data="{&quot;origPos&quot;:null}" font-family="sans-serif" font-weight="normal" font-size="12" text-anchor="start"/></g><path d="M 156.4354 281.66 C 164.0307 281.3963 170.168 283.5523 173.0603 288.229 C 175.9524 292.9057 175.4397 300.2662 171.2197 305.5666 C 163.0804 314.6277 155.8909 320.6448 126.6796 331.5416 C 119.6311 332.231 112.9396 329.6374 110.0548 324.9726 C 107.1699 320.3079 108.0865 314.0215 111.8952 307.635 C 115.704 301.2482 122.4086 294.7616 131.1009 289.6922 C 139.7932 284.623 148.84 281.9238 156.4352 281.66 Z " data-paper-data="{&quot;origRot&quot;:0,&quot;index&quot;:null}" fill="#000000" stroke="none" stroke-width="2.5" stroke-linecap="round"/></g><path d="M 117.4295 98.4111 L 134.4296 118.9111 L 122.9295 139.4111 " fill="none" stroke="#000000" stroke-width="3" stroke-linecap="round"/><path d="M 178.4296 144.4111 L 166.9296 123.9111 L 183.9296 103.4111 " data-paper-data="{&quot;index&quot;:null}" fill="none" stroke="#000000" stroke-width="3" stroke-linecap="round"/><path d="M 219.9296 243.9797 C 219.9296 269.6609 187.6941 290.4797 147.9296 290.4797 C 108.1651 290.4797 75.9296 269.6609 75.9296 243.9797 C 75.9296 218.2985 108.1651 197.4797 147.9296 197.4797 C 187.6941 197.4797 219.9296 218.2985 219.9296 243.9797 Z " fill="url(#color-1-,0,0,1,-77.91766,-109.67968)" stroke="#8229ff" stroke-width="2.5" stroke-linecap="butt"/><path d="M 258.1739 223.3861 C 254.6668 235.0192 234.1416 239.1191 212.3295 232.5433 C 190.5174 225.9676 175.6782 211.2065 179.1852 199.5733 C 182.6923 187.9402 203.2175 183.8404 225.0296 190.4161 C 246.8417 196.9918 261.6809 211.753 258.1739 223.3861 Z " fill="url(#color-2-,0,0,1,-77.91766,-109.67968)" stroke="#8229ff" stroke-width="2.5" stroke-linecap="butt"/><path d="M 113.7266 196.0519 C 118.6499 207.4614 104.0397 224.7372 81.0939 234.6384 C 58.1482 244.5397 35.5558 243.317 30.6325 231.9075 C 25.7092 220.498 40.3194 203.2222 63.2652 193.321 C 86.2109 183.4197 108.8033 184.6424 113.7266 196.0519 Z " fill="url(#color-3-,0,0,1,-77.91766,-109.67968)" stroke="#8229ff" stroke-width="2.5" stroke-linecap="butt"/><path d="M 135.4296 120.9797 C 135.4296 155.7736 109.574 183.9797 77.6795 183.9797 C 45.7851 183.9797 19.9295 155.7737 19.9295 120.9797 C 19.9295 86.1858 45.7851 57.9797 77.6795 57.9797 C 109.574 57.9797 135.4296 86.1858 135.4296 120.9797 Z " fill="url(#color-4-,0,0,1,-77.91766,-109.67968)" stroke="#8229ff" stroke-width="2.5" stroke-linecap="butt"/><path d="M 81.6773 167.3757 C 77.5335 165.897 72.4064 168.0308 70.2766 165.2881 C 63.4101 156.4433 61.2357 144.9096 56.7216 134.7347 C 55.3332 131.6043 51.1669 128.5672 52.5511 125.3343 C 56.8258 115.3529 62.9145 105.0238 72.1553 98.6969 C 75.3511 96.5085 79.0666 102.9662 80.0943 106.4741 C 81.2296 110.3478 80.4861 115.1986 77.9836 118.5803 C 75.8614 121.4481 71.5578 122.8161 67.9337 122.9084 C 64.0914 123.0058 60.3083 121.2277 57.2682 119.104 C 54.3148 117.0395 52.4338 113.8027 50.5849 110.7847 C 48.7931 107.8577 46.7842 104.7965 46.4143 101.3844 C 45.7968 95.661 47.1738 89.8102 47.696 84.0367 C 48.2711 77.6841 48.9532 71.3161 49.7126 64.9732 C 50.5413 58.046 50.8884 51.0286 52.4637 44.1935 C 53.2917 40.5966 53.8351 36.2447 56.8729 33.8974 C 62.599 29.4685 70.2793 28.1231 76.9727 25.2413 C 80.3196 23.7997 83.4168 20.6976 87.0226 20.9132 C 90.8988 21.1441 94.0083 24.1156 96.9532 26.4335 C 100.9602 29.5868 104.9419 33.0002 107.7131 37.1959 C 109.6218 40.0857 110.5801 43.6688 110.6278 47.1373 C 110.6775 50.8391 110.2784 54.9839 107.9954 58.0681 C 105.8577 60.958 101.9879 64.3614 98.4672 63.5716 C 94.946 62.7811 93.128 58.1788 93.04 54.7113 C 92.7519 43.3514 94.6131 31.8165 97.3804 20.6507 C 98.4271 16.4249 101.1653 12.4919 104.3026 9.2721 C 106.8314 6.6768 110.3819 5.0336 113.8308 3.7686 C 117.7741 2.3227 122.0034 1.4121 126.1789 1.25 C 130.4526 1.0841 134.6098 2.3561 138.837 2.7969 C 142.4487 3.1744 146.9008 1.6013 149.7149 3.7108 C 154.3074 7.1513 156.2115 13.0063 159.0054 17.9054 C 160.7063 20.8849 163.6626 23.876 163.1761 27.3058 C 162.6851 30.7632 159.1345 33.3253 156.4685 35.7937 C 153.4178 38.6155 147.4057 45.0401 146.2053 43.0128 C 144.4326 40.0236 147.0498 30.7229 150.5196 25.7581 C 155.3588 18.8346 162.8302 13.7286 170.0037 8.9694 C 173.0516 6.948 176.9254 6.069 180.5753 5.8167 C 184.8445 5.5215 189.0398 6.7301 193.2318 7.3645 C 197.0542 7.9426 201.2529 7.7299 204.6317 9.4525 C 207.9871 11.1641 211.543 13.722 212.571 17.2306 C 213.7064 21.1044 212.416 25.6547 210.4613 29.3363 C 208.6911 32.6718 204.8012 34.575 201.9751 37.1904 C 199.1497 39.8052 196.7698 42.9756 193.4892 45.043 C 189.6472 47.4639 182.2359 52.661 180.9264 50.4535 C 179.2604 47.6439 184.2721 39.6399 187.5408 35.0081 C 189.6581 32.0082 193.2667 30.1448 196.5479 28.33 C 200.9247 25.9095 205.7647 24.3604 210.3669 22.3783 C 213.7133 20.938 216.9166 17.285 220.416 18.0506 C 225.3075 19.1215 227.8167 24.4136 231.9115 27.0969 C 235.5733 29.4952 240.196 30.5577 243.6198 33.2514 C 246.4422 35.4728 248.4537 38.5518 250.3026 41.5698 C 252.095 44.4976 254.5428 47.5249 254.4737 50.9711 C 254.3827 55.5499 251.5239 59.8079 249.8505 64.1586 C 248.5139 67.6327 247.7913 71.4812 245.4411 74.4559 C 243.1559 77.3457 239.8835 79.6482 236.4341 81.134 C 232.9837 82.6202 229.0455 83.4233 225.3408 83.1112 C 221.5294 82.7915 218.1655 80.7099 214.6757 79.3075 C 210.8837 77.7833 207.2807 75.8519 203.4885 74.3276 C 199.9989 72.9251 196.4273 71.6626 192.823 70.5231 C 188.3081 69.096 183.8579 67.2871 179.1237 66.6254 C 173.1487 65.791 166.9313 66.6964 160.9211 66.0665 C 156.441 65.5992 152.2532 63.5725 147.7427 63.3445 C 142.4634 63.0775 137.0909 63.7224 131.8389 64.5958 C 128.2221 65.1972 124.5475 66.1017 121.2673 67.7484 C 117.9132 69.4321 114.8472 71.7711 112.2602 74.4265 C 109.3009 77.4629 107.2336 81.1933 104.8169 84.6305 C 101.1227 89.884 97.1375 95.0067 93.9133 100.5232 C 92.0156 103.7682 90.8749 107.3586 89.5033 110.8197 C 86.6425 118.038 83.6905 125.2582 81.2063 132.5882 C 79.8019 136.7312 78.3782 140.9418 77.8392 145.2347 C 77.38 148.9046 77.6687 152.6422 78.2412 156.2596 C 78.7813 159.6723 80.1852 162.8901 81.1554 166.2002 C 81.3986 167.029 82.0615 166.2764 81.1554 166.2002 Z " data-paper-data="{&quot;origRot&quot;:0,&quot;index&quot;:null}" fill="url(#color-5-,0,0,1,-77.91766,-109.67968)" stroke="#8229ff" stroke-width="2.5" stroke-linecap="round"/><path d="M 247.9296 127.3984 C 247.9296 159.8452 235.9532 186.1484 221.1796 186.1484 C 206.4059 186.1484 234.9296 163.8452 234.9296 131.3984 C 234.9296 98.9517 206.4059 68.6484 221.1796 68.6484 C 235.9532 68.6484 247.9296 94.9517 247.9296 127.3984 Z " fill="url(#color-6-,0,0,1,-77.91766,-109.67968)" stroke="#8229ff" stroke-width="2.5" stroke-linecap="butt"/><path d="M 237.9296 132.0641 C 237.9296 141.5842 227.5572 153.8358 227.52 163.1528 C 227.45 180.6982 236.0223 194.2019 222.6052 204.2138 C 208.4278 214.7931 172.2926 216.0641 153.1795 216.0641 C 106.3734 216.0641 68.4295 178.456 68.4295 132.0641 C 68.4295 85.6722 106.3734 48.0641 153.1795 48.0641 C 199.9857 48.0641 237.9295 85.6722 237.9295 132.0641 Z " fill="url(#color-7-,0,0,1,-77.91766,-109.67968)" stroke="#8229ff" stroke-width="2.5" stroke-linecap="butt"/><path d="M 110.5868 322.9323 L 94.0831 274.9378 L 128.7724 264.0271 L 155.2761 290.0216 Z " fill="url(#color-8-,0,0,1,-77.91766,-109.67968)" stroke="#8229ff" stroke-width="2.5" stroke-linecap="butt"/><path d="M 175.6639 291.4258 C 179.7893 298.9266 168.0302 313.314 149.3993 323.5611 C 130.7683 333.8081 112.3207 336.0344 108.1953 328.5336 C 104.0698 321.0328 115.8289 306.6454 134.4598 296.3984 C 153.0908 286.1513 171.5385 283.9251 175.6639 291.4258 Z " fill="url(#color-9-,0,0,1,-77.91766,-109.67968)" stroke="#8229ff" stroke-width="2.5" stroke-linecap="butt"/><path d="M 245.1639 273.6329 C 249.2893 283.1724 237.5302 301.4703 218.8993 314.5024 C 200.2684 327.5346 181.8207 330.3659 177.6952 320.8265 C 173.5698 311.287 185.3289 292.9891 203.9598 279.957 C 222.5908 266.9248 241.0384 264.0935 245.1639 273.6329 Z " fill="url(#color-10-,0,0,1,-77.91766,-109.67968)" stroke="#8229ff" stroke-width="2.5" stroke-linecap="butt"/><path d="M 176.8938 311.9872 L 175.933 290.0179 L 207.2649 266.5161 L 215.3034 271.9253 Z " fill="url(#color-11-,0,0,1,-77.91766,-109.67968)" stroke="#8229ff" stroke-width="2.5" stroke-linecap="butt"/></g></g></svg>