<svg version="1.1" xmlns="http://www.w3.org/2000/svg" xmlns:xlink="http://www.w3.org/1999/xlink" width="538.82104" height="495.10427" viewBox="0,0,538.82104,495.10427"><g transform="translate(-112.69652,-13.84751)"><g data-paper-data="{&quot;isPaintingLayer&quot;:true}" fill-rule="nonzero" stroke-linejoin="miter" stroke-miterlimit="10" stroke-dasharray="" stroke-dashoffset="0" style="mix-blend-mode: normal"><g data-paper-data="{&quot;index&quot;:null}" stroke-linecap="butt"><g><g><path d="M356.99023,195.05941c-1.22798,-0.55149 -4.62255,-6.11229 -5.07754,-6.745c-14.04406,-19.52875 -18.08475,-22.39279 -18.08475,-22.39279c0,0 -1.59513,-11.00001 1.11811,-14.21844c1.93063,-2.2901 13.33874,-3.37653 13.33874,-3.37653c0,0 14.03498,21.15718 18.77507,30.00091c1.11772,2.08537 3.37673,3.18638 8.2349,9.88227c3.86591,5.32828 -11.3989,9.9509 -18.30453,6.84957z" fill="#d9bb9a" stroke="#917c67" stroke-width="4"/><path d="M377.09738,194.08779c1.22722,2.46276 -15.7369,4.17212 -16.42085,4.51293c-0.68394,0.34082 -1.55931,-2.33372 -2.78655,-4.7965c-1.22722,-2.46276 -3.10821,-4.84236 -2.42429,-5.18316c0.11394,-0.05677 16.92524,-0.43792 17.63541,0.2873c1.87554,1.91532 2.97347,3.12689 3.99628,5.17943z" fill="#d9bb9a" stroke="none" stroke-width="0"/><path d="M340.6196,149.14074c2.02641,-1.4137 7.39429,5.20757 13.27772,13.84189c5.88343,8.63432 6.17281,10.66442 10.13086,16.8727c2.66641,4.18229 6.72281,9.2395 10.32174,13.47657c6.12514,7.21122 -11.14758,5.25859 -11.47192,5.05009c-0.29467,-0.18941 -3.13615,-7.25004 -3.44473,-7.8585c-3.54504,-6.99059 -7.96797,-16.41188 -9.73776,-18.12968c-3.90924,-3.79443 -10.58826,-9.48883 -12.85156,-12.81033c-5.88343,-8.63432 1.74925,-9.02907 3.77565,-10.44276z" fill="#ffdbb5" stroke="none" stroke-width="0"/></g><path d="M366.26687,193.54253c-3.44058,0.43114 -11.46358,0.56461 -11.46358,0.56461c0,0 -12.70991,-15.73328 -16.98897,-22.12728c-4.25704,-6.36106 -15.20724,-23.98881 -15.20724,-23.98881l19.36639,-17.17569c0,0 9.88365,12.08969 14.48665,20.44238c4.70941,8.5458 21.67231,38.95549 21.67231,38.95549c0,0 -7.91505,2.83425 -11.86553,3.32927z" fill="#403328" stroke="#292018" stroke-width="4"/></g><g><path d="M394.95706,225.47344c3.2999,6.62214 5.99785,13.79334 1.9468,15.81205c-1.33184,0.66368 -1.16251,0.51468 -2.96571,0.14708c-1.78533,-0.36396 -1.23183,1.40931 -3.31713,0.54943c-0.81821,-0.33741 -0.76701,0.44954 -2.46912,-0.74953c-1.17249,-0.82598 -1.57313,-2.68243 -2.88954,-3.83355c-1.94539,-1.70108 -4.5464,-3.75414 -4.97544,-4.61512c-3.2999,-6.62214 -2.69099,-13.62689 1.36006,-15.64559c4.05104,-2.01869 10.01016,1.71314 13.31006,8.33527z" fill="#917c67" stroke="none" stroke-width="NaN"/><g><path d="M400.1231,240.51372c-2.2645,0.12109 -9.49041,-17.22346 -13.45178,-20.40853c-3.60284,-2.8968 -5.45237,-2.64437 -7.81785,-1.25c-2.2108,1.30321 5.18255,11.67445 3.77109,12.39929c-1.4488,0.74402 -2.34866,8.44234 -9.2018,-2.80435c-5.46842,-8.97424 -12.1896,-24.24342 -15.20346,-28.43429c-1.25125,-2.60652 18.54962,-8.45628 20.89135,-5.22098c1.11772,2.08537 1.80228,1.53817 6.66045,8.23406c4.55335,6.27577 13.10233,13.07811 13.58736,16.41647c1.46553,10.08689 5.06891,20.83819 0.76463,21.0683z" fill="#d9bb9a" stroke="#917c67" stroke-width="4"/><path d="M376.81191,197.79531c6.12514,7.21122 6.81188,9.03389 10.07096,12.74565c3.25908,3.71176 8.11021,6.19187 8.97848,8.52817c2.32797,6.26402 3.93062,18.09758 1.21689,13.32199c-2.2126,-3.89373 -5.32667,-12.03627 -9.02033,-15.99181c-1.73561,-1.8587 -4.69172,-4.67845 -8.61776,-3.94001c-1.58246,0.29763 -5.07494,6.30172 -7.65828,3.63911c-1.31126,-1.35146 -1.67715,-3.22721 -2.96314,-5.39585c-5.21974,-8.80217 -4.25835,-9.94363 -4.58271,-10.15211c-2.17579,-1.39857 8.977,-6.99217 12.57592,-2.75511z" fill="#ffdbb5" stroke="none" stroke-width="0"/></g><path d="M379.52954,211.65881c-7.47612,1.61341 -13.51151,6.77732 -13.51151,6.77732l-9.28942,-21.06193l22.58842,-5.38032l13.53048,16.17697c0,0 -6.29122,1.97154 -13.31794,3.48794z" fill="#403328" stroke="#292018" stroke-width="4"/><path d="M360.55977,200.00077l-5.07345,-8.19259l19.3865,-2.85698l4.50319,7.44593z" fill="#403328" stroke="none" stroke-width="0"/></g></g><g data-paper-data="{&quot;index&quot;:null}"><path d="M262.63507,389.11383c-1.72617,3.17521 -3.02391,2.58601 -3.02391,2.58601c0,0 -17.99731,-1.22734 -33.87776,-5.81109c-3.50357,-1.01126 -2.42501,-4.7033 -4.868,-7.05377c-1.92821,-1.85517 -0.6524,-1.91242 -1.51398,-2.18209c-2.86381,-0.89636 -2.54607,-1.66401 -2.54607,-1.66401c0,0 4.05863,-15.94244 4.50717,-17.63676c0.85853,-3.24311 4.25461,-13.51791 4.25461,-13.51791l33.51477,4.9419l0.7103,11.6009c0,0 -1.08287,7.58257 2.85206,13.50476c2.37272,3.57103 1.77391,11.95209 -0.00921,15.23208z" fill="#403328" stroke="#292018" stroke-width="4" stroke-linecap="butt"/><path d="M249.6903,382.49521l10.61286,3.79738l-2.11874,2.16385c0,0 -11.33687,-1.04785 -16.97787,-2.00459c-4.94953,-0.83946 -12.92973,-3.23141 -12.92973,-3.23141c0,0 -2.82427,0.45077 -2.25439,-2.13226c0.56988,-2.58304 23.6679,1.40703 23.6679,1.40703z" fill="#775f4a" stroke="none" stroke-width="0" stroke-linecap="butt"/><path d="M234.42479,370.60536c0,0 7.3816,0.02649 12.86166,0.99826c4.95605,0.87885 14.01581,4.38665 14.01581,4.38665" fill="none" stroke="#292018" stroke-width="4" stroke-linecap="round"/><path d="M259.55846,361.43653c0,0 -6.3349,1.41254 -9.71699,1.02917c-4.09956,-0.4647 -13.14461,-3.62068 -13.14461,-3.62068l-0.88228,-10.82143l15.08153,10.68437" fill="none" stroke="#292018" stroke-width="4" stroke-linecap="round"/><path d="M237.82031,357.45795l15.6056,-5.27638l-0.42062,8.08163" fill="none" stroke="#292018" stroke-width="4" stroke-linecap="round"/></g><g data-paper-data="{&quot;index&quot;:null}"><path d="M122.94969,301.20389c-3.58345,-0.46964 -3.50003,-1.89242 -3.50003,-1.89242c0,0 -5.32305,-17.23586 -6.75314,-33.70262c-0.31552,-3.63291 3.51746,-3.95338 4.83285,-7.0779c1.0382,-2.46614 1.55016,-1.29616 1.49214,-2.19708c-0.1928,-2.9946 0.63775,-2.97401 0.63775,-2.97401c0,0 16.33588,-1.94241 18.0782,-2.13279c3.33496,-0.36444 14.14379,-0.88812 14.14379,-0.88812l7.43379,33.0515l-10.57045,4.83229c0,0 -7.46511,1.71472 -11.57733,7.51521c-2.47964,3.49763 -10.5159,5.95106 -14.21759,5.46594z" fill="#403328" stroke="#292018" stroke-width="4" stroke-linecap="butt"/><path d="M124.4736,286.7453l0.27069,11.26852l-2.78075,-1.19946c0,0 -3.09672,-10.95595 -4.23133,-16.56388c-0.99552,-4.92052 -1.63156,-13.22718 -1.63156,-13.22718c0,0 -1.43572,-2.47355 1.17954,-2.87011c2.61526,-0.39657 7.19342,22.59213 7.19342,22.59213z" fill="#775f4a" stroke="none" stroke-width="0" stroke-linecap="butt"/><path d="M130.08245,268.22652c0,0 2.62828,6.89788 3.69103,12.36103c0.96112,4.94074 0.94386,14.65587 0.94386,14.65587" fill="none" stroke="#292018" stroke-width="4" stroke-linecap="round"/><path d="M147.67186,288.38539c0,0 -3.59497,-5.40393 -4.45276,-8.69782c-1.03976,-3.99265 -1.34553,-13.56759 -1.34553,-13.56759l9.78125,-4.71263l-4.55002,17.91385" fill="none" stroke="#292018" stroke-width="4" stroke-linecap="round"/><path d="M143.57172,266.66986l10.53259,12.66647l-7.6928,2.51208" fill="none" stroke="#292018" stroke-width="4" stroke-linecap="round"/></g><path d="M316.54385,56.49732c5.81444,-2.81834 20.11502,-14.76331 20.11502,-14.76331l58.37132,55.39513c0,0 -13.09651,14.77063 -16.48486,20.81852c-2.20848,3.94194 -1.59788,5.65774 -1.59788,5.65774c0,0 -6.23805,1.93071 -8.63755,-0.23717c-0.7684,-0.69423 -2.40401,-2.19007 -3.5236,-3.14065c-0.4466,-0.3792 -6.92611,6.02218 -6.92611,6.02218c0,0 -5.44161,0.05012 -8.02888,-2.21579c-1.07325,-0.93996 -4.06414,-4.73545 -5.22912,-5.69774c-1.31287,-1.08442 -4.89483,-2.31982 -7.45056,-3.44437c-4.13045,-1.81746 -8.081,-6.06175 -8.081,-6.06175c0,0 -2.37818,-4.47443 -3.79155,-8.02732c-1.16805,-2.93615 -1.2208,-4.85414 -2.77495,-6.54551c-1.04129,-1.13322 -11.41064,-7.03808 -12.01299,-7.64036c-1.46488,-1.46462 -4.82737,-10.22505 -4.82737,-10.22505c0,0 5.95472,-3.64414 5.09177,-4.57347c-1.15215,-1.24076 -0.23036,-5.17886 -0.85234,-5.92205c-1.92306,-2.29795 -0.04107,-7.77962 -0.04107,-7.77962c0,0 2.3943,0.45876 6.68172,-1.61941z" data-paper-data="{&quot;index&quot;:null}" fill="#14161a" stroke="#14161a" stroke-width="4" stroke-linecap="butt"/><path d="M261.29177,143.91958c0,0 20.35278,-26.05581 20.83666,-30.88572c0.08595,-0.85774 0.30106,-8.21514 -3.80629,-12.89917c-3.12602,-3.56491 -11.36289,-4.5512 -8.81743,-5.96989c5.89001,-3.28275 15.14717,-1.0466 20.1227,0.73955c10.12714,3.63553 25.02544,4.41762 32.63805,9.41939c8.32035,5.46678 15.16939,15.3054 23.69375,26.61655c8.28316,10.99107 0.37997,16.3592 0.37997,16.3592c0,0 -13.94972,-0.07859 -14.71894,0.2917c-3.72288,1.79207 -21.10707,26.75842 -21.10707,26.75842l-14.46076,35.07981c0,0 -16.46834,1.45736 -35.82472,-11.94678c-18.03754,-12.49083 -25.79703,-26.83016 -25.79703,-26.83016z" data-paper-data="{&quot;index&quot;:null}" fill="#95d2a1" stroke="#67916f" stroke-width="4" stroke-linecap="butt"/><path d="M315.55488,150.48673c-0.7897,1.20192 -5.83396,6.73986 -7.36946,9.96365c-5.28239,11.09042 -9.89188,27.20995 -12.31728,27.21079c-5.95732,0.00206 -18.90246,-10.661 -23.1228,-13.3762c-3.42304,-2.20227 -15.73587,-9.92319 -17.1498,-15.38214c-1.09712,-4.23584 9.94066,-11.31471 18.41272,-20.91063c2.44636,-2.7709 5.189,-9.29761 6.73394,-11.649c1.66565,-2.53509 5.48617,-16.30888 5.94203,-19.71636c0.16688,-1.24747 -4.33331,-1.64064 -5.4123,-3.2553c-0.93579,-1.40038 1.48913,-4.03294 2.05206,-5.07247c1.10226,-2.03542 6.45863,-2.29237 11.09781,-1.03393c4.6392,1.25846 18.44821,6.89209 24.03856,10.56516c5.75865,3.78365 16.33433,12.96457 19.71459,18.47729c0.63745,1.03959 5.21159,7.15348 2.92949,9.08359c-1.6483,1.39405 -3.70615,4.77385 -5.8415,4.1941c-2.34959,-0.63789 -4.73583,-5.28852 -5.45031,-4.58175c-3.42565,3.38868 -12.59566,12.95345 -14.25775,15.48315z" data-paper-data="{&quot;index&quot;:null}" fill="#a6eab4" stroke="none" stroke-width="0" stroke-linecap="butt"/><g data-paper-data="{&quot;index&quot;:null}" stroke-linecap="butt"><path d="M303.34693,96.23675l6.8866,-5.55056c0,0 10.86897,8.44199 18.46299,16.0196c7.59402,7.57761 18.06985,21.48738 18.06985,21.48738l-3.90786,3.99388z" fill="#292018" stroke="#292018" stroke-width="4"/><g><path d="M318.18602,94.56535l23.63284,23.46269l-9.12935,9.91145c0,0 -9.88927,2.94552 -16.2371,-3.41217c-6.14642,-6.15597 -9.28058,-22.82919 -9.28058,-22.82919z" fill="#d9bb9a" stroke="#917c67" stroke-width="4"/><path d="M330.7088,120.6258c-0.8633,0.88231 -3.73706,0.66173 -5.68413,-1.24342c-1.94708,-1.90515 -2.23017,-4.77343 -1.36687,-5.65573c0.8633,-0.88231 2.54609,0.55546 4.49316,2.46062c1.94708,1.90515 3.42114,3.55623 2.55784,4.43853z" fill="#ffdbb5" stroke="none" stroke-width="0"/></g></g><g data-paper-data="{&quot;index&quot;:null}" stroke-linecap="butt"><g fill="#465b9c"><path d="M200.34076,237.49128c2.66621,-7.18614 8.7785,-26.24639 8.7785,-26.24639l31.4988,8.2528c0,0 -5.47854,26.98175 -8.35571,35.0464c-3.02753,8.48614 -8.21089,21.26763 -8.21089,21.26763c0,0 -12.38031,1.77636 -17.53655,0.65577c-4.9288,-1.07114 -13.4952,-6.7718 -13.4952,-6.7718c0,0 4.11697,-23.56859 7.32108,-32.20443z" stroke="#2e3c67" stroke-width="4"/><path d="M210.0866,214.12597l1.15963,-4.44316l23.36854,6.07796l-1.15963,4.44316z" stroke="none" stroke-width="0"/></g><path d="M210.31364,222.52679c4.14733,-13.64895 8.74982,-24.80015 14.65723,-23.4139c13.65877,3.20522 8.77171,15.61157 1.83085,37.71322c-4.12391,13.13162 -10.30293,27.3827 -15.25124,32.9438c-2.47274,2.77899 -6.04088,3.11668 -7.7619,2.73698c-2.52817,-0.55778 -4.96296,-2.08221 -5.63327,-4.75522c-0.40413,-1.6115 1.90551,-5.09272 2.42494,-8.83497c0.37918,-2.73178 1.02928,-6.16773 1.98667,-10.50714c1.32624,-6.01127 5.98269,-20.07737 7.74671,-25.88278z" fill="#5671c0" stroke="none" stroke-width="0"/></g><g data-paper-data="{&quot;index&quot;:null}" stroke-linecap="butt"><g fill="#465b9c"><path d="M153.85997,250.81814l4.45138,1.06844l2.11078,-2.13265l3.81572,0.78291c0,0 18.49906,-2.25128 23.16851,-2.27348c7.67306,-0.0365 30.46798,-2.0425 30.46798,-2.0425l5.31716,32.32362c0,0 -28.56951,6.44143 -37.13833,6.59591c-3.56975,0.06435 -17.3882,0.33964 -17.3882,0.33964l-4.08209,0.44915l-2.41573,-1.54302l-4.66766,1.72227c0,0 -3.59128,-12.26414 -4.4429,-17.7696c-0.81406,-5.26257 0.80341,-17.52067 0.80341,-17.52067z" stroke="#2e3c67" stroke-width="4"/><path d="M215.55878,249.67219l5.36259,-0.62613l5.06456,28.12909c0,0 -5.31129,0.56799 -6.51089,0.08151c-0.46359,-0.188 -1.44083,-6.59825 -1.44083,-6.59825z" stroke="none" stroke-width="0"/></g><path d="M219.19928,250.7483c4.37086,0.31035 2.88235,2.94163 3.42479,5.9253c-0.43715,4.38119 3.91943,8.86941 0.15941,8.87094c-18.13045,0.0074 -40.11691,3.9984 -46.10462,4.65441c-3.3758,0.36985 -9.78234,4.4604 -12.29102,0.87249c-0.97512,-1.39459 -2.42558,-5.09517 -2.33093,-8.20087c0.09953,-3.26615 0.2932,-5.38727 1.65802,-6.85594c1.36484,-1.46868 4.48651,0.75855 4.78605,-0.07838c0.95421,-2.66628 16.64216,-1.08805 27.06553,-2.23003c5.54895,-0.60797 18.65709,-3.31123 23.63279,-2.95794z" fill="#5671c0" stroke="none" stroke-width="0"/></g><path d="M330.17082,51.91871c18.21097,-19.18448 40.15765,-19.11242 56.98805,-3.13605c16.83041,15.97637 18.04428,37.88954 -0.16669,57.07401c-18.21098,19.18449 -47.04183,16.81996 -54.85919,9.68576c-17.95057,-16.3818 -20.17315,-44.43924 -1.96217,-63.62372z" data-paper-data="{&quot;index&quot;:null}" fill="#d9bb9a" stroke="#917c67" stroke-width="4" stroke-linecap="butt"/><path d="M382.2322,102.072c-14.56877,15.34757 -38.19554,16.6904 -45.98063,9.30037c-15.48213,-14.26648 -16.44742,-39.38346 -1.87863,-54.73105c14.56877,-15.34757 33.26202,-17.58689 48.76635,-2.86933c15.31133,14.53436 13.66173,32.95243 -0.90706,48.30002z" fill="#ffdbb5" stroke="none" stroke-width="0" stroke-linecap="butt"/><path d="M355.94516,104.96675c-0.94553,0.96634 -5.17971,1.24191 -7.49051,-1.01911c-2.3108,-2.26103 -2.52739,-4.63293 -1.58188,-5.59926c0.94553,-0.96634 2.69512,-0.16118 5.00593,2.09985c2.3108,2.26103 5.012,3.55219 4.06646,4.51853z" fill="#d9bb9a" stroke="none" stroke-width="0" stroke-linecap="butt"/><path d="M350.3657,113.29383c0,0 -6.40072,-2.71258 -9.13169,-5.24066c-2.79827,-2.59036 -5.78211,-9.64974 -5.78211,-9.64974" fill="none" stroke="#d9bb9a" stroke-width="4" stroke-linecap="round"/><g data-paper-data="{&quot;index&quot;:null}" stroke-linecap="butt"><g fill="#465b9c"><path d="M233.40022,281.39151c0,0 0.62909,-13.78627 1.43047,-22.76359c0.76155,-8.53142 7.15416,-35.31148 7.15416,-35.31148l32.70694,5.91266c0,0 -2.43738,19.87104 -3.02099,27.51664c-0.70134,9.18802 -6.90498,32.29623 -6.90498,32.29623c0,0 -10.36437,1.52404 -15.38854,0.39928z" stroke="#2e3c67" stroke-width="4"/><path d="M248.32434,227.00165l0.81401,-4.5194l24.24586,4.42702l-0.81401,4.5194z" stroke="none" stroke-width="0"/></g><path d="M261.85592,264.80084c-0.95738,4.33942 -1.61844,7.77295 -2.42835,10.40968c-1.10947,3.61207 -1.32372,7.96887 -2.38344,9.25742c-1.75773,2.13732 -1.81706,2.69818 -4.39772,2.12881c-1.75675,-0.38759 -6.89133,-2.64534 -8.00202,-6.2149c-2.22266,-7.14319 0.07888,-22.24977 1.83892,-35.90292c2.96233,-22.97943 3.70659,-36.2998 17.73049,-33.39749c6.06531,1.25523 4.60559,13.09982 2.64732,27.23172c-0.83293,6.01084 -5.00522,26.48763 -5.00522,26.48763z" fill="#5671c0" stroke="none" stroke-width="0"/></g><g data-paper-data="{&quot;index&quot;:null}" stroke-linecap="butt"><g fill="#465b9c"><path d="M239.74385,348.29108c-5.25606,-1.17665 -16.84362,-5.48642 -16.84362,-5.48642l1.99688,-4.54973l-1.31754,-2.49967l0.72553,-4.0419c0,0 1.25343,-13.75655 1.57069,-17.31073c0.76155,-8.53142 9.0242,-36.62329 9.0242,-36.62329l30.83681,7.22446c0,0 -3.56642,22.60043 -4.15002,30.24604c-0.35516,4.65279 -3.85142,22.95686 -3.85142,22.95686l0.4834,3.84978l-2.21049,1.97684l0.71373,4.50035c0,0 -11.95395,0.88221 -16.97815,-0.24255z" stroke="#2e3c67" stroke-width="4"/><path d="M242.71897,283.51536c0,0 -6.12092,-1.35574 -6.26933,-1.82898c-0.3841,-1.22462 0.54402,-6.4846 0.54402,-6.4846l27.4125,6.6505l-0.79085,5.35113z" stroke="none" stroke-width="0"/></g><path d="M253.98796,305.94035c-1.84781,10.32106 -1.44479,26.05131 -4.08798,26.84363c-0.82969,0.24872 1.09816,3.49277 -0.41777,4.76564c-1.51594,1.27288 -3.57826,1.3396 -6.73968,1.24428c-3.00609,-0.09061 -6.47631,-1.75666 -7.75347,-2.81162c-3.28576,-2.71408 1.12259,-8.85592 1.72103,-12.1986c1.06148,-5.92891 6.48715,-27.60534 7.78999,-45.67568c0.2702,-3.74756 4.2934,0.86193 8.5558,0.68712c2.84276,0.7183 5.49031,-0.6086 5.47765,3.76634c-0.01439,4.98035 -3.56192,17.88437 -4.5456,23.37885z" fill="#5671c0" stroke="none" stroke-width="0"/></g><g data-paper-data="{&quot;index&quot;:null}"><g><g><path d="M209.82579,209.5229c0,0 10.59031,-14.96057 15.961,-21.23092c5.35027,-6.2465 14.26444,-14.30735 14.26444,-14.30735l53.23019,35.48363c0,0 -4.50042,12.62772 -7.81113,18.25893c-6.14298,10.4487 -15.15875,22.47102 -15.15875,22.47102l-27.92944,-18.43704l2.69354,-4.88689l-2.9729,-2.61616l-2.99864,4.95151z" fill="#465b9c" stroke="#2e3c67" stroke-width="4" stroke-linecap="butt"/><path d="M262.16142,209.65204c0,0 -7.62542,11.92502 -10.25066,15.13234c-1.41716,1.73139 -4.25505,2.58992 -4.25505,2.58992" fill="none" stroke="#2e3c67" stroke-width="4" stroke-linecap="round"/><path d="M249.59362,209.54499l3.74041,-5.69286l8.82738,5.79991" fill="none" stroke="#2e3c67" stroke-width="4" stroke-linecap="round"/><path d="M238.98815,189.88846c0,0 -7.31262,6.0494 -10.27292,8.04928c-2.20789,1.49156 -5.90314,2.8786 -5.90314,2.8786" fill="none" stroke="#2e3c67" stroke-width="4" stroke-linecap="round"/><path d="M274.39537,237.25545c0,0 -0.19372,-3.9422 0.29891,-6.56078c0.6605,-3.51093 3.31019,-12.62402 3.31019,-12.62402" data-paper-data="{&quot;index&quot;:null}" fill="none" stroke="#2e3c67" stroke-width="4" stroke-linecap="round"/><path d="M209.67793,212.90729l6.54205,-8.41197l23.78065,15.95186l-6.81964,8.22958z" fill="#465b9c" stroke="none" stroke-width="0" stroke-linecap="butt"/><path d="M242.53007,235.45621l6.32398,-8.55524l23.30777,14.98703l-5.97514,8.99671z" data-paper-data="{&quot;index&quot;:null}" fill="#465b9c" stroke="none" stroke-width="0" stroke-linecap="butt"/></g><g stroke="#281a0d" stroke-width="4" stroke-linecap="butt"><path d="M233.38005,177.24243c0,0 1.98081,-3.48133 3.13508,-4.71641c1.24732,-1.33464 3.95698,-2.08541 3.95698,-2.08541l8.35598,5.06569c0,0 0.57388,4.93337 -0.33527,6.31705c-0.90913,1.38366 -5.11951,1.98501 -5.11951,1.98501z" fill="#3f2b1a"/><path d="M242.23954,184.08225l7.10963,-7.55436l8.45532,5.64037c0,0 0.57388,4.93337 -0.33527,6.31705c-0.90913,1.38366 -5.11951,1.98501 -5.11951,1.98501z" fill="#67472a"/><path d="M252.28248,190.93555l6.82617,-7.48592l8.73876,5.57189c0,0 0.57387,4.93337 -0.33527,6.31705c-0.90913,1.38366 -5.11951,1.985 -5.11951,1.985z" fill="#3f2b1a"/><path d="M262.89894,198.51065l6.10838,-8.81815l9.39173,6.12078c0,0 0.81297,4.88339 -0.03101,6.30748c-0.84396,1.42406 -5.03279,2.23694 -5.03279,2.23694z" fill="#67472a"/><path d="M273.29036,204.8244l6.37426,-8.13406l9.12586,5.43669c0,0 0.81297,4.88339 -0.03101,6.30746c-0.84396,1.42406 -5.03279,2.23694 -5.03279,2.23694z" fill="#3f2b1a"/><path d="M283.56925,211.3277l6.03234,-8.10401l7.41748,4.05953c0,0 0.21231,4.48875 -0.64533,5.90382c-0.85764,1.41506 -4.50062,2.58661 -4.50062,2.58661z" fill="#67472a"/></g><path d="M236.78235,181.34823l7.98543,-10.03264l4.91051,3.0488l-6.48645,11.01755z" fill="#465b9c" stroke="#2e3c67" stroke-width="4" stroke-linecap="butt"/><g fill="#67472a" stroke="#281a0d" stroke-width="4" stroke-linecap="butt"><path d="M283.7818,210.10886l9.30782,-4.23259l5.59121,8.7445c0,0 -1.49376,4.59148 -2.88331,5.45272c-1.38954,0.86123 -5.45392,-0.28535 -5.45392,-0.28535z"/></g><path d="M254.64336,196.05256c0,0 1.73794,-4.82268 3.09175,-6.88314c1.33433,-2.03085 4.97352,-5.39205 4.97352,-5.39205l14.65678,9.63005c0,0 -1.80618,5.65237 -3.2262,7.81363c-1.24544,1.89555 -4.83908,4.4616 -4.83908,4.4616z" fill="none" stroke="#716b65" stroke-width="4" stroke-linecap="butt"/><path d="M281.88319,211.05829l7.53763,-10.32687l4.74752,3.29689l-6.03865,11.31177z" data-paper-data="{&quot;index&quot;:null}" fill="#465b9c" stroke="#2e3c67" stroke-width="4" stroke-linecap="butt"/></g><path d="M228.14983,225.31552c-1.6677,2.5382 -11.50745,-6.49956 -15.68513,-9.24447c-2.23455,-1.46816 5.99275,-9.84244 8.37574,-11.68917c2.83406,-2.19633 9.44763,-1.85808 13.62532,0.88681c4.17767,2.74489 -4.64824,17.50864 -6.31592,20.04682z" fill="#5671c0" stroke="none" stroke-width="0" stroke-linecap="butt"/><path d="M246.31501,239.03635c1.6677,-2.5382 11.71513,-16.49934 15.89279,-13.75445c4.17767,2.74489 7.11333,8.68085 6.22241,12.15391c-0.74913,2.92023 -5.16961,13.7957 -7.40414,12.32754c-4.17767,-2.74489 -16.37873,-8.18878 -14.71106,-10.72698z" data-paper-data="{&quot;index&quot;:null}" fill="#5671c0" stroke="none" stroke-width="0" stroke-linecap="butt"/></g><g data-paper-data="{&quot;index&quot;:null}" stroke="none" stroke-width="0" stroke-linecap="butt"><path d="M379.81652,111.55355c-5.13872,5.25181 -13.13941,5.75691 -17.87006,1.12814c-4.73063,-4.62876 -4.39983,-12.63856 0.73888,-17.89037c5.13872,-5.25181 13.1394,-5.75688 17.87005,-1.12814c4.73065,4.62877 4.39983,12.63856 -0.73888,17.89037z" fill="#d3f0f1"/><path d="M379.00742,93.56942c3.92642,3.84188 3.29349,10.85628 -1.41374,15.66712c-4.7072,4.81082 -11.70618,5.5963 -15.6326,1.75444c-3.92642,-3.84188 -3.2935,-10.85626 1.41374,-15.6671c4.7072,-4.81082 11.70618,-5.59631 15.6326,-1.75445z" fill="#ffffff"/></g><g data-paper-data="{&quot;index&quot;:null}" stroke="none" stroke-width="0" stroke-linecap="butt"><g data-paper-data="{&quot;index&quot;:null}"><path d="M380.95365,103.60443c-4.02562,4.11423 -9.65337,5.136 -12.56993,2.28225c-2.91656,-2.85376 -2.01751,-8.50239 2.00812,-12.61662c4.02561,-4.11421 9.65335,-5.13603 12.56991,-2.28227c2.91656,2.85376 2.01751,8.50242 -2.0081,12.61663z" fill="#41563d"/><path d="M370.51468,103.17784c-2.69645,-2.63837 -1.07708,-8.13523 1.14602,-10.40726c2.2231,-2.27204 7.19133,-5.36871 11.48202,-1.17042c2.69645,2.63837 0.90435,8.84278 -1.31876,11.11481c-2.2231,2.27203 -8.61286,3.10124 -11.3093,0.46287z" fill="#5f7d59"/></g><path d="M373.73258,91.66514c1.69046,-1.72768 4.46141,-1.75785 6.18909,-0.06737c1.72768,1.69046 1.75784,4.46142 0.06736,6.1891c-1.69047,1.72769 -4.46142,1.75784 -6.1891,0.06736c-1.72768,-1.69046 -1.75783,-4.46141 -0.06736,-6.18909z" fill="#8ebb85"/><path d="M373.33405,97.39835c0.93514,-0.95574 2.46803,-0.97243 3.42375,-0.03726c0.95574,0.93514 0.97243,2.46803 0.03726,3.42375c-0.93514,0.95574 -2.46803,0.97245 -3.42376,0.03727c-0.95574,-0.93514 -0.97242,-2.46804 -0.03726,-3.42377z" fill="#8ebb85"/></g><g data-paper-data="{&quot;index&quot;:null}" stroke="none" stroke-width="0" stroke-linecap="butt"><path d="M352.83456,65.34808c4.73063,4.62876 4.39983,12.63856 -0.73889,17.89039c-5.13872,5.25181 -13.1394,5.7569 -17.87005,1.12814c-4.73063,-4.62876 -4.39985,-12.63855 0.73888,-17.89037c5.13872,-5.25181 13.1394,-5.75688 17.87005,-1.12814z" fill="#d3f0f1"/><path d="M351.54824,82.56073c-4.70723,4.81083 -11.70617,5.59631 -15.6326,1.75444c-3.92642,-3.84188 -3.29349,-10.85628 1.41373,-15.66711c4.7072,-4.81082 11.70619,-5.5963 15.63261,-1.75444c3.92642,3.84188 3.29349,10.85627 -1.41374,15.66711z" fill="#ffffff"/></g><g data-paper-data="{&quot;index&quot;:null}" stroke="none" stroke-width="0" stroke-linecap="butt"><g data-paper-data="{&quot;index&quot;:null}"><path d="M355.42268,67.93597c2.91656,2.85376 2.01749,8.50241 -2.00812,12.61662c-4.02562,4.11423 -9.65335,5.13603 -12.56991,2.28227c-2.91656,-2.85376 -2.01752,-8.5024 2.0081,-12.61663c4.02561,-4.11421 9.65335,-5.13602 12.56993,-2.28225z" fill="#41563d"/><path d="M343.72308,69.32878c2.2231,-2.27204 8.38701,-4.19879 11.08344,-1.56038c4.2907,4.19828 1.30291,9.23275 -0.9202,11.50479c-2.2231,2.27203 -7.68341,4.01069 -10.37984,1.37232c-2.69645,-2.63837 -2.00651,-9.04466 0.21658,-11.31671z" fill="#5f7d59"/></g><path d="M348.7573,77.24508c-1.72768,-1.69046 -1.75784,-4.46142 -0.06736,-6.1891c1.69046,-1.72768 4.46143,-1.75785 6.18911,-0.06737c1.72768,1.69046 1.75783,4.46143 0.06735,6.1891c-1.69046,1.72768 -4.46141,1.75785 -6.18909,0.06737z" fill="#8ebb85"/><path d="M345.79943,77.73821c-0.95574,-0.93514 -0.97243,-2.46803 -0.03726,-3.42375c0.93514,-0.95574 2.46803,-0.97245 3.42376,-0.03727c0.95574,0.93514 0.97242,2.46804 0.03726,3.42377c-0.93514,0.95574 -2.46803,0.97243 -3.42375,0.03726z" fill="#8ebb85"/></g><g data-paper-data="{&quot;index&quot;:null}" stroke-linecap="butt"><g data-paper-data="{&quot;index&quot;:null}" fill="#403328"><g><path d="M285.86539,226.92607c-5.21904,-2.60661 -13.89226,-18.81143 -13.89226,-18.81143c0,0 28.19601,-42.5225 37.46636,-58.18168c8.58993,-14.50984 13.75783,-21.82252 13.75783,-21.82252c0,0 8.60863,0.66525 13.12875,-2.32078c2.7492,-1.81614 3.21783,-4.22706 4.71525,-3.64327c3.54072,1.38039 3.79889,4.04265 6.96993,9.85106c3.17105,5.80839 5.08332,14.61403 4.88149,17.45312c-0.20184,2.83908 -6.01747,-1.47376 -6.01747,-1.47376c0,0 -6.95997,-0.45708 -11.43411,-1.04881c-3.47555,-0.45965 -16.22541,19.98894 -16.22541,19.98894l-8.05614,12.18403l-15.17291,40.65269c0,0 -6.57875,8.9418 -10.12136,7.17248z" stroke="#292018" stroke-width="4"/><path d="M350.40198,146.57918c0,0 0.26299,3.22423 0.07015,4.31458c-0.18208,1.02954 -1.24763,2.78627 -1.24763,2.78627c0,0 -14.25172,-0.97463 -16.4013,-1.54665c-0.71135,-0.18929 -3.83316,-2.59312 -2.49807,-5.54344c1.33508,-2.9503 5.01968,-4.23682 5.01968,-4.23682z" stroke="none" stroke-width="NaN"/></g><path d="M335.58811,127.433c-2.97864,0.53608 -8.21467,0.34119 -8.21467,0.34119l6.63533,-8.057l11.79568,-0.06258l-1.78879,3.80073c0,0 -5.32529,3.41932 -8.42756,3.97768z" stroke="#292018" stroke-width="4"/></g><path d="M322.78027,144.32845c-1.07536,1.63666 -2.49253,2.60507 -3.16537,2.163c-0.67282,-0.44207 -0.34653,-2.12722 0.72883,-3.76389c1.07536,-1.63666 2.49253,-2.60507 3.16537,-2.163c0.67282,0.44207 0.34653,2.12721 -0.72883,3.76389z" fill="#dfbd28" stroke="#dfbd28" stroke-width="4"/><path d="M310.931,162.82741c-1.07535,1.63665 -2.49253,2.60507 -3.16537,2.163c-0.67282,-0.44207 -0.34653,-2.12722 0.72883,-3.76389c1.07535,-1.63665 2.49253,-2.60507 3.16537,-2.163c0.67282,0.44207 0.34653,2.12722 -0.72883,3.76389z" fill="#dfbd28" stroke="#dfbd28" stroke-width="4"/><path d="M299.64077,181.07284c-1.07535,1.63665 -2.49253,2.60507 -3.16537,2.163c-0.67282,-0.44207 -0.34653,-2.12722 0.72883,-3.76389c1.07535,-1.63665 2.49253,-2.60507 3.16537,-2.163c0.67282,0.44207 0.34653,2.12722 -0.72883,3.76389z" fill="#dfbd28" stroke="#dfbd28" stroke-width="4"/><path d="M288.98495,198.2863c-1.07535,1.63665 -2.49253,2.60507 -3.16537,2.163c-0.67282,-0.44207 -0.34653,-2.12722 0.72883,-3.76389c1.07535,-1.63665 2.49253,-2.60507 3.16537,-2.163c0.67282,0.44207 0.34653,2.12722 -0.72883,3.76389z" fill="#dfbd28" stroke="#dfbd28" stroke-width="4"/></g><g data-paper-data="{&quot;index&quot;:null}" stroke="#292018" stroke-width="4"><path d="M228.75677,173.88607l28.85565,-28.57199l9.52336,-14.11749c0,0 16.76632,-17.51984 14.22496,-21.01354c-3.27155,-4.49746 -7.6819,7.77702 -7.6819,7.77702c0,0 -8.15498,-24.15447 -5.30341,-25.2526c2.85157,-1.09813 13.20054,-1.84766 21.15902,-0.34352c7.95849,1.50411 10.89763,0.94263 14.44123,4.21689c1.49866,1.38477 -0.74667,2.62831 -1.01757,6.07277c-0.44538,5.66328 5.35403,14.46465 5.35403,14.46465c0,0 -4.5894,7.69278 -14.68228,21.21514c-10.89233,14.59347 -38.67879,57.38509 -38.67879,57.38509c0,0 -16.38457,0.61016 -22.20633,-4.03746c-3.95171,-3.15474 -3.98794,-17.79499 -3.98794,-17.79499z" fill="#403328" stroke-linecap="butt"/><path d="M304.36489,98.50929l2.97445,-5.04995l8.09467,14.86978l-4.4985,9.46102c0,0 -3.30789,-5.4188 -4.5126,-8.7035c-1.25471,-3.42105 -2.05801,-10.57737 -2.05801,-10.57737z" fill="#403328" stroke-linecap="butt"/><path d="M297.40297,122.39079l-5.6579,7.25162" fill="none" stroke-linecap="round"/><path d="M279.88766,146.39756l3.92817,-6.31851" fill="none" stroke-linecap="round"/><path d="M271.96771,158.24768l-4.4301,6.40263" fill="none" stroke-linecap="round"/><path d="M255.00993,182.28964l4.90499,-7.12542" fill="none" stroke-linecap="round"/></g><path d="M326.05039,63.56736c-3.06505,4.70009 -4.24949,7.80715 -5.94913,7.46867c-1.69965,-0.33849 -3.42233,-7.41752 -0.3573,-12.11762c3.06505,-4.70009 9.28968,-5.16008 10.61,-4.0375c2.40318,2.04324 -1.23853,3.98636 -4.30358,8.68646z" data-paper-data="{&quot;index&quot;:null}" fill="#d9bb9a" stroke="#917c67" stroke-width="4" stroke-linecap="butt"/><g data-paper-data="{&quot;index&quot;:null}"><g><path d="M328.70634,53.82152c-2.08343,1.7694 -6.82355,-0.03411 -6.82355,-0.03411c0,0 -3.04377,-1.02255 -2.06091,-3.78502c0.80049,-2.24986 0.37679,-7.54541 0.37679,-7.54541c0,0 3.03966,-0.82149 6.63602,-1.60131c0.92937,-0.20152 -0.33678,-4.55577 0.00969,-6.43326c0.34646,-1.87747 4.45988,-8.92636 4.45988,-8.92636c0,0 6.77506,2.99085 11.09933,0.8605c2.14565,-1.05706 4.68308,-3.66949 6.09831,-4.28816c8.06327,-3.52496 7.96038,-6.12653 13.96972,-6.22087c0.62801,-0.00986 10.1446,1.59411 10.70874,1.58261c9.82589,-0.20015 10.97087,0.39965 19.26286,6.95565c8.76805,6.93242 17.25407,9.96433 19.72423,16.97097c1.61295,4.57519 5.72404,15.9177 9.35423,22.95554c-0.14895,10.43552 -1.43444,15.97758 -7.56937,23.43136c-1.96803,2.3911 -5.29226,2.18391 -6.60291,5.39174c-0.59453,1.45514 -2.88451,14.63994 -2.88451,14.63994c0,0 -3.71447,1.58602 -6.27761,1.12817c-2.53949,-0.45361 -3.94232,-2.37726 -5.1184,-1.91419c-2.56556,1.01014 -3.56659,3.61168 -5.12634,4.67755c-1.13473,0.77544 -2.04352,0.89965 -3.56702,1.17691c-2.57165,0.46802 -0.31809,-1.9267 1.25805,-3.42148c2.9462,-2.79409 4.25944,-5.54082 3.81166,-5.06939c-1.68425,-0.5167 -0.7416,0.35409 -4.84751,-5.29587c-0.22839,-0.31426 0.79606,-3.26578 0.5508,-5.15648c-0.24527,-1.89069 1.84841,-5.81485 1.84841,-5.81485c0,0 -10.87574,-3.70764 -14.40035,-6.5678c-5.08503,-4.12643 -12.05178,-7.73305 -14.45901,-10.60251c-5.8844,-7.01434 -8.05736,-10.61054 -10.58576,-13.18797c-2.35333,-2.39899 -8.94456,-4.07303 -9.80884,-6.22296c0,0 -6.30185,-0.00557 -9.03671,2.31706z" fill="#252931" stroke="#14161a" stroke-width="4" stroke-linecap="butt"/><path d="M392.42611,81.88305c-23.79747,-9.29933 -37.37781,-27.57775 -52.2912,-39.38886c-3.0873,-2.44509 -1.78669,-5.63234 -1.78669,-5.63234c0,0 9.82599,-0.75905 16.77355,-7.8595c3.34375,-3.41734 14.62393,-6.50819 24.42226,-4.53305c8.1447,1.64182 19.1024,11.12029 25.24525,14.97565c3.97827,2.49682 1.29838,5.02827 4.27087,7.93677c8.43768,8.25597 2.64716,12.74404 0.17188,20.81818c-1.80164,5.87674 -13.40502,15.01215 -16.80594,13.68318z" fill="#494c5e" stroke="none" stroke-width="0" stroke-linecap="butt"/><path d="M404.75683,54.97563c0.94251,-0.96325 -5.14586,-2.6084 -4.34349,-4.3185c0.58887,-1.2551 3.69218,-1.07499 5.48812,-2.08633c0.51683,-0.29105 1.43747,-2.43547 0.78564,-4.79599c-0.54251,-1.96467 -2.68456,-4.21227 -2.32966,-4.4319c1.44171,-0.89221 6.71156,6.17374 7.37832,6.82615c2.64691,2.58992 5.16898,19.2189 2.49684,21.94986c-0.1621,0.16568 -10.09974,17.36607 -20.02687,19.05554c-1.43351,0.24396 -6.77227,-4.96429 -5.62504,-6.73895c0.36068,-0.55793 -2.02324,-4.40396 0.2246,-5.16244c3.06237,-1.0333 10.97524,2.80506 11.30519,2.0539c0.94218,-2.14497 -12.81464,-6.07903 -11.43316,-9.18693c1.38151,-3.10787 17.27263,0.81117 17.40397,-2.3492c-3.06677,-1.28136 -12.25434,-2.81599 -12.09398,-4.52636c0.48595,-5.18298 8.09739,-3.55791 10.76952,-6.28887z" fill="#252931" stroke="none" stroke-width="0" stroke-linecap="butt"/><path d="M350.55765,47.57298c-1.28342,0.41109 1.25176,1.33364 2.24205,2.9832c0.99027,1.64955 5.05548,6.46808 2.99508,6.52281c-1.08647,0.02886 -7.62962,-7.67972 -8.54627,-7.6174c-1.69157,0.11497 -4.31915,-0.90397 -4.60371,-1.79236c-0.68481,-2.13793 -9.14738,-5.98834 -6.61591,-10.69879c1.64439,-3.05986 10.13727,-3.51004 11.57012,-3.96901c0.22074,-0.07069 13.86628,-12.25383 23.43214,-9.10792c1.38133,0.45428 9.05266,4.48467 7.20902,5.51741c-0.57962,0.32468 -8.68153,1.46089 -11.02325,1.08091c-3.19026,-0.51768 -6.05577,-1.09717 -6.69853,-0.5873c-1.83544,1.45596 10.42056,9.15555 8.63997,10.3446c-2.82842,1.88876 -16.13284,-6.06156 -16.37684,-4.38036c-0.27819,1.91694 6.56486,4.7829 12.64396,8.64096c4.70812,2.98796 9.1459,7.2316 8.27502,7.91586c-0.8085,0.63522 -3.71547,1.51057 -5.65625,0.89098c-5.64669,-1.80264 -14.77864,-6.61101 -17.48659,-5.74363z" fill="#252931" stroke="none" stroke-width="0" stroke-linecap="butt"/><path d="M396.76935,88.67515c0,0 -8.08794,0.49959 -9.05392,0.12127c-1.93164,-0.75653 -5.35907,-2.87689 -5.35907,-2.87689" fill="none" stroke="#14161a" stroke-width="4" stroke-linecap="round"/><path d="M385.02216,38.78986c1.76378,-2.63904 5.92422,-2.60741 9.10082,-0.4843c3.17662,2.12308 7.77545,5.19331 6.01166,7.83235c-1.76378,2.63904 -8.63665,2.33587 -11.81327,0.21278c-3.17661,-2.12308 -5.06302,-4.92179 -3.29923,-7.56082z" fill="#686c85" stroke="none" stroke-width="0" stroke-linecap="butt"/><path d="M371.54905,33.63854c1.01837,-1.52371 4.39251,-1.02413 6.22662,0.20168c1.83411,1.22583 2.94527,3.29933 1.92691,4.82305c-1.01837,1.52371 -3.18845,1.01102 -5.02255,-0.2148c-1.83411,-1.22583 -4.14936,-3.28623 -3.13097,-4.80993z" fill="#686c85" stroke="none" stroke-width="0" stroke-linecap="butt"/><path d="M389.12525,52.47479c0.77635,-1.66014 2.10777,-1.33515 4.1061,-0.40066c1.99834,0.93447 3.88475,1.06048 3.10841,2.72062c-0.77635,1.66014 -2.99895,1.48141 -4.99728,0.54692c-1.99834,-0.93447 -2.99354,-1.20672 -2.21721,-2.86685z" fill="#686c85" stroke="none" stroke-width="0" stroke-linecap="butt"/></g><path d="M397.09285,101.15944c-1.34911,-0.86149 -2.3089,2.57843 -3.07882,1.82508c-0.81034,-0.79289 -0.71071,-3.54947 -0.59267,-5.55123c0.15127,-2.56487 0.3809,-3.93027 1.21213,-4.77981c0.90332,-0.92321 0.40153,-0.04617 1.65981,0.73266c0.80319,0.49714 4.84021,-1.89991 5.56049,-1.19517c0.68621,0.67141 -0.95742,2.08485 -1.32126,4.37895c-0.05787,0.36487 5.14101,-3.52186 4.2529,-1.11734c-0.49273,1.334 -0.1009,6.14315 -2.00261,9.69018c-1.90172,3.547 -1.35338,-4.03146 -2.78468,-4.20635c-1.43131,-0.17489 -0.26386,2.89802 -0.99926,3.64962c0,0 -0.01576,-2.21958 -1.90601,-3.42664z" fill="#494c5e" stroke="none" stroke-width="0" stroke-linecap="butt"/><path d="M412.65448,75.29836c-0.35483,1.03853 -2.50064,1.22095 -6.2838,-0.07156c-3.78317,-1.29251 -5.14209,-1.79242 -4.78729,-2.83095c0.35481,-1.03852 3.10058,-1.42822 6.88377,-0.13572c3.78317,1.29251 4.54212,1.99969 4.18733,3.03822z" fill="#494c5e" stroke="none" stroke-width="0" stroke-linecap="butt"/></g><path d="M380.15155,99.54257c-4.32915,-3.38527 -10.32384,-7.10342 -8.52999,-9.51124c1.79384,-2.4078 12.15003,3.68368 16.47918,7.06896c4.32915,3.38529 5.16366,6.58577 3.36982,8.99356c-1.79384,2.4078 -6.98984,-3.16601 -11.319,-6.55128z" data-paper-data="{&quot;index&quot;:null}" fill="#424956" stroke="#14161a" stroke-width="4" stroke-linecap="butt"/><path d="M343.0602,58.09947c2.36818,-1.84585 5.58606,-1.08117 9.06478,3.17325c3.4787,4.25443 9.79419,14.47555 7.42601,16.32137c-2.36818,1.84585 -6.21596,-4.06652 -9.69467,-8.32093c-3.4787,-4.25443 -9.16429,-9.32788 -6.79611,-11.17369z" data-paper-data="{&quot;index&quot;:null}" fill="#424956" stroke="#14161a" stroke-width="4" stroke-linecap="butt"/><g data-paper-data="{&quot;index&quot;:null}" stroke-linecap="butt"><g><g><g><path d="M328.50194,150.19482c4.21525,5.05645 -10.70444,10.69444 -17.80282,8.06422c-1.26226,-0.46773 -5.02286,-5.78784 -5.51936,-6.38854c-15.32469,-18.54081 -19.19165,-27.22816 -19.19165,-27.22816c0,0 -2.68779,-4.76662 -0.19696,-8.16011c1.77239,-2.41463 13.08169,-4.26528 13.08169,-4.26528c0,0 15.42505,20.16619 20.74875,28.67137c1.25532,2.00554 3.58322,2.95226 8.88039,9.30654z" fill="#d9bb9a" stroke="#917c67" stroke-width="4"/><path d="M326.36023,151.03921c2.00002,1.78497 3.17688,2.92 4.33529,4.89914c1.38994,2.37473 -15.42095,5.22024 -16.08047,5.60626c-0.65949,0.38599 -1.71262,-2.22364 -3.10257,-4.59839c-1.38997,-2.37474 -3.42664,-4.62252 -2.76715,-5.00853c0.10984,-0.0643 16.85756,-1.57436 17.61485,-0.89848z" fill="#d9bb9a" stroke="none" stroke-width="0"/><path d="M288.21428,124.21714c-6.45039,-8.21941 1.1385,-9.1262 3.06535,-10.67288c1.92684,-1.54667 7.72752,4.69892 14.17791,12.91831c6.45038,8.21942 6.87551,10.2255 11.24183,16.15374c2.94147,3.99366 7.32855,8.76682 11.20408,12.75248c6.59588,6.78329 -10.76901,5.99583 -11.10663,5.80962c-0.30674,-0.1692 -3.61628,-7.02287 -3.96505,-7.60923c-4.0068,-6.73654 -9.05287,-15.8393 -10.93411,-17.43427c-4.1554,-3.52312 -11.20198,-8.75582 -13.68336,-11.91773z" fill="#ffdbb5" stroke="none" stroke-width="0"/></g><path d="M331.46782,152.00299c0,0 -7.7067,3.35975 -11.61498,4.11916c-3.4038,0.66138 -11.39974,1.33373 -11.39974,1.33373c0,0 -12.90254,-15.33287 -17.60162,-21.42485c-4.67491,-6.06061 -16.24466,-22.94825 -16.24466,-22.94825l16.79209,-17.91339c0,0 10.67378,11.39815 15.82767,19.42263c5.27305,8.21 24.24122,37.41101 24.24122,37.41101z" fill="#403328" stroke="#292018" stroke-width="4"/></g><g><path d="M350.624,186.05284c3.73748,6.3854 6.91124,13.35909 3.005,15.64546c-1.28424,0.75168 -1.12527,0.59165 -2.9491,0.34605c-1.80574,-0.24315 -1.13437,1.4889 -3.2727,0.7711c-0.83905,-0.28165 -0.73505,0.50006 -2.51391,-0.58191c-1.22536,-0.7453 -1.74982,-2.57065 -3.14065,-3.63069c-2.05533,-1.56649 -4.78841,-3.44012 -5.27436,-4.27034c-3.73747,-6.3854 -3.60066,-13.41527 0.30557,-15.70162c3.90622,-2.28638 10.10265,1.03655 13.84012,7.42194z" fill="#917c67" stroke="none" stroke-width="NaN"/><g><path d="M354.61036,179.74266c2.14009,9.96559 6.45782,20.45041 2.17875,20.96926c-2.25125,0.27299 -10.62641,-16.54671 -14.79285,-19.45839c-3.78939,-2.64815 -5.61774,-2.27197 -7.88416,-0.72179c-2.11823,1.44883 5.95535,11.29977 4.59581,12.11784c-1.39553,0.83971 -1.77601,8.58109 -9.36944,-2.17963c-6.05916,-8.58647 -13.79127,-23.36946 -17.07993,-27.34831c-1.42358,-2.51652 17.93941,-9.68372 20.49325,-6.61311c1.25535,2.00553 1.90154,1.41358 7.19871,7.76784c4.9648,5.9556 13.95157,12.16803 14.65987,15.46624z" fill="#d9bb9a" stroke="#917c67" stroke-width="4"/><path d="M318.29749,163.25064c-2.26483,-1.24917 8.48681,-7.57963 12.36235,-3.59399c6.5959,6.78331 7.40355,8.5557 10.90473,12.04006c3.50119,3.48439 8.50798,5.63285 9.53131,7.9055c2.74369,6.09343 5.13793,17.79252 2.10941,13.21009c-2.46928,-3.73622 -6.12351,-11.65108 -10.07462,-15.34947c-1.85661,-1.73786 -4.99552,-4.35258 -8.86307,-3.35197c-1.55888,0.4033 -4.63996,6.62851 -7.39643,4.14552c-1.3991,-1.2603 -1.89022,-3.10721 -3.31905,-5.18452c-5.79946,-8.43149 -4.91697,-9.63496 -5.25461,-9.82119z" fill="#ffdbb5" stroke="none" stroke-width="0"/></g><path d="M347.35642,168.93113c0,0 -6.14451,2.38987 -13.05344,4.37507c-7.35082,2.11217 -13.02552,7.67 -13.02552,7.67l-10.68383,-20.39004l22.17578,-6.88616z" fill="#403328" stroke="#292018" stroke-width="4"/><path d="M314.59264,162.94933l-5.61255,-7.83314l19.15068,-4.15337l4.9934,7.12648z" fill="#403328" stroke="none" stroke-width="0"/></g></g><path d="M284.92013,94.7068c0,0 3.32639,1.00796 4.28831,1.62353c0.90824,0.58125 2.02138,2.30885 2.02138,2.30885c0,0 -9.20382,13.51115 -11.01047,15.38236c-0.59786,0.61922 -5.28001,1.84913 -7.41227,-0.60931c-2.13228,-2.45844 -3.10677,-2.90617 -3.10677,-2.90617z" fill="#403328" stroke="none" stroke-width="NaN"/></g><g fill="#ffffff" stroke="none" stroke-width="0" stroke-linecap="butt"><path d="M346.3007,150.55267l234.01736,309.44655l-11.84104,8.95472l-234.01737,-309.44656z"/><path d="M576.97828,366.97799l21.77963,5.85321l-29.16234,27.50878l6.97406,7.38963l41.79148,-29.53445l33.15644,16.79208c0,0 -104.23636,74.42807 -125.91112,92.60019c-8.13361,6.81919 -10.01944,21.36435 -10.01944,21.36435c0,0 -29.17824,-17.22745 -40.31019,-30.1516c-12.45124,-14.45586 -36.25666,-59.60863 -36.25666,-59.60863c0,0 27.50098,10.44298 37.95541,4.71155c21.14434,-11.59163 100.00272,-56.92514 100.00272,-56.92514z"/><path d="M590.88041,459.79525l12.47963,42.90452l-37.74052,-23.80111l4.79612,-20.20957z"/><path d="M343.9752,140.46667l9.49744,12.55868l-19.59159,14.81603l-9.49744,-12.55868z"/></g></g></g></svg>