<svg version="1.1" xmlns="http://www.w3.org/2000/svg" xmlns:xlink="http://www.w3.org/1999/xlink" width="206.76224" height="307.85973" viewBox="0,0,206.76224,307.85973"><g transform="translate(-115.93212,-107.02882)"><g data-paper-data="{&quot;isPaintingLayer&quot;:true}" fill-rule="nonzero" stroke-linejoin="miter" stroke-miterlimit="10" stroke-dasharray="" stroke-dashoffset="0" style="mix-blend-mode: normal"><path d="M265.13564,273.81939c0,0 -14.34014,-3.03524 -22.00772,-10.97944c-8.84535,-9.16446 -18.82488,-39.0423 -18.82488,-39.0423" data-paper-data="{&quot;origRot&quot;:0,&quot;index&quot;:null}" fill="none" stroke="#000000" stroke-width="9" stroke-linecap="round"/><g stroke-linecap="butt"><path d="M309.9307,261.89428l1.28839,-12.45205l4.39425,0.45466l-1.28839,12.45205z" fill="#ff9000" stroke="#d15600" stroke-width="3"/><path d="M249.37872,279.34762l4.01384,-38.7929l59.32229,6.13797l-1.88304,18.19914l-42.99329,-3.96439l-2.28098,20.09417z" fill="#00a2ff" stroke="#006bd2" stroke-width="3"/><text transform="translate(258.36806,252.95148) rotate(5.90727) scale(0.14293,0.17136) skewX(0)" font-size="40" xml:space="preserve" fill="#006bd2" fill-rule="nonzero" stroke="none" stroke-width="1" stroke-linecap="butt" stroke-linejoin="miter" stroke-miterlimit="10" stroke-dasharray="" stroke-dashoffset="0" font-family="Marker" font-weight="normal" text-anchor="start" style="mix-blend-mode: normal"><tspan x="0" dy="0">blaster</tspan></text></g><path d="M253.75251,280.47796c0,0 -23.36379,2.09972 -28.64808,-8.26785c-5.28429,-10.36755 -0.83393,-49.5747 -0.83393,-49.5747" data-paper-data="{&quot;origRot&quot;:0}" fill="none" stroke="#000000" stroke-width="9" stroke-linecap="round"/><path d="M223.07269,219.49482l21.78012,78.16034" data-paper-data="{&quot;origRot&quot;:0}" id="ID0.8172772801481187" fill="none" stroke="#000000" stroke-width="9" stroke-linecap="round"/><path d="M318.19436,392.40739l-11.9628,5.83996l-62.01194,-101.6417" data-paper-data="{&quot;origRot&quot;:0}" id="ID0.7014842056669295" fill="none" stroke="#000000" stroke-width="9" stroke-linecap="round"/><path d="M294.2862,405.58501l-11.86485,3.70185l-38.36807,-112.60405" data-paper-data="{&quot;origRot&quot;:0,&quot;index&quot;:null}" id="ID0.7014842056669295" fill="none" stroke="#000000" stroke-width="9" stroke-linecap="round"/><path d="M202.87497,148.7876c25.67973,-7.48239 52.42075,6.78155 59.72777,31.85942c7.30702,25.07786 -7.58699,51.47315 -33.26671,58.95554c-25.67973,7.48239 -52.42075,-6.78155 -59.72777,-31.85942c-7.30702,-25.07786 7.58699,-51.47315 33.26671,-58.95554z" data-paper-data="{&quot;index&quot;:null}" fill="#dbe6e9" stroke="#000000" stroke-width="9" stroke-linecap="butt"/><path d="M209.20107,155.62079c21.86789,-6.37172 44.80799,6.35304 51.23817,28.42155c6.43017,22.06853 -6.08455,45.12388 -27.95243,51.49559c-21.86789,6.37172 -44.80799,-6.35304 -51.23817,-28.42155c-6.43017,-22.06853 6.08455,-45.12388 27.95243,-51.49559z" data-paper-data="{&quot;index&quot;:null}" fill="#ffffff" stroke="none" stroke-width="0" stroke-linecap="butt"/><path d="M152.83443,195.79286l-12.1822,8.03596l-1.60364,-4.45603l-20.55139,-23.21243l26.89602,-10.16142c0,0 7.39928,-6.05234 10.96865,-11.4168c2.42292,-3.64145 4.38577,-11.65971 4.38577,-11.65971c0,0 5.8997,0.83002 8.00189,4.4118c1.16334,1.98214 0.36555,9.84509 0.36555,9.84509l8.01999,-13.4743c0,0 1.30215,-9.15797 5.73006,-10.06432c4.42791,-0.90636 15.39903,5.73939 15.39903,5.73939l-1.0299,-9.42405l4.15275,2.5516l0.13886,-5.00377l26.69521,-18.08781c0,0 6.51613,7.48651 5.94699,13.05674c-0.56913,5.57021 -8.21356,9.12655 -8.21356,9.12655c0,0 7.94985,-3.81108 12.16656,-6.72863c4.93702,-3.41593 11.28877,-9.50015 11.28877,-9.50015l5.3512,15.66079l16.43158,-21.24638c0,0 11.45467,21.58117 12.1799,34.91061c0.76016,13.97124 -4.52581,23.49723 -14.36481,35.15608c-2.79938,3.31715 -2.20604,8.37289 -2.20604,8.37289l-20.21612,-5.99128c0,0 -7.77876,12.04638 -14.75539,15.37012c-6.97662,3.32374 -16.14015,-3.66841 -16.14015,-3.66841c0,0 -2.36297,9.34344 -8.80047,11.90216c-6.43751,2.55875 -19.20762,2.42454 -19.20762,2.42454c0,0 -2.65631,8.38187 -5.70946,10.95522c-3.05317,2.57336 -21.59617,12.05939 -21.59617,12.05939c0,0 0.26464,-3.5951 0.37818,-7.34435c0.12337,-4.07382 -8.29804,1.2234 -8.29804,1.2234z" data-paper-data="{&quot;index&quot;:null,&quot;origRot&quot;:0}" fill="#5ef3a3" stroke="#2abc90" stroke-width="3" stroke-linecap="butt"/><path d="M235.70039,196.54822c1.71554,6.00488 2.06148,11.18576 0.77267,11.57185c-1.2888,0.38609 -3.72432,-4.16882 -5.43985,-10.1737c-1.71554,-6.00488 -2.06147,-11.18577 -0.77267,-11.57185c1.2888,-0.38609 3.72432,4.16883 5.43985,10.1737z" fill="#000000" stroke="#000000" stroke-width="2" stroke-linecap="butt"/><path d="M223.57089,200.15173c1.71554,6.00488 2.06147,11.18577 0.77267,11.57185c-1.2888,0.38609 -3.72432,-4.16882 -5.43985,-10.1737c-1.71554,-6.00488 -2.06147,-11.18577 -0.77267,-11.57185c1.2888,-0.38609 3.72432,4.16883 5.43985,10.1737z" fill="#000000" stroke="#000000" stroke-width="2" stroke-linecap="butt"/><g fill="#5ef3a3" stroke="#2abc90" stroke-width="2.5" stroke-linecap="butt"><path d="M257.28072,237.21533c0.08413,2.37775 5.68212,1.37751 2.47907,4.86044c-1.84984,2.01149 -3.84355,1.83372 -6.41265,2.76527c-7.7073,2.79462 -29.29812,10.15543 -48.84963,12.9266c-6.1001,0.86461 0.25593,-2.28403 -0.26792,-4.49598c-0.56943,-2.4044 -10.23801,0.99549 -3.7514,-5.97058c2.22328,-2.38764 35.95374,-13.71313 57.30894,-15.88729c9.10668,-0.92715 -0.60715,2.95384 -0.50639,5.80153z" data-paper-data="{&quot;origPos&quot;:null}"/><path d="M209.17811,260.85728c5.23829,0.82586 6.61675,18.2073 5.26182,26.10253c-1.35494,7.89524 -5.70434,5.59941 -10.94264,4.77354c-5.23829,-0.82586 -9.38187,0.13096 -8.02692,-7.76428c1.35494,-7.89524 8.46944,-23.93766 13.70773,-23.1118z" data-paper-data="{&quot;origPos&quot;:null,&quot;origRot&quot;:0,&quot;index&quot;:null}"/><path d="M199.40544,260.19552c3.38367,4.0832 -7.0751,18.03412 -13.31202,23.06119c-6.23693,5.02708 -7.98179,0.42885 -11.36546,-3.65434c-3.38367,-4.0832 -7.12483,-6.1052 -0.88789,-11.13227c6.23693,-5.02708 22.18171,-12.3578 25.56539,-8.27459z" data-paper-data="{&quot;origPos&quot;:null,&quot;origRot&quot;:0,&quot;index&quot;:null}"/></g><g data-paper-data="{&quot;index&quot;:null,&quot;origRot&quot;:0}" id="ID0.16701374808326364" stroke="#000000" stroke-linecap="round"><path d="M226.87628,226.03673c-2.34837,2.10897 -5.19316,3.12242 -7.97546,2.53857c-2.78237,-0.58378 -9.78336,-3.34657 -10.56249,-6.02112c-0.58419,-2.02811 -2.35633,-12.22258 7.21027,-12.03684c14.58203,0.28311 13.676,13.41008 11.32766,15.51939z" id="ID0.38423543982207775" fill="#ff9999" stroke-width="0.67374"/><path d="M227.48167,224.17529c1.11139,0.47693 -1.23619,2.28537 -2.30797,2.84073c-2.05071,1.0249 -4.54615,1.47391 -6.77597,1.22831c-1.70289,-0.18682 -4.0863,-1.48924 -6.47542,-2.91338c-2.38912,-1.42414 -4.52475,-2.71832 -3.25901,-2.88925c4.69522,-0.53865 14.68819,-0.02779 18.81838,1.7336z" id="ID0.38423543982207775" fill="#ffcccc" stroke-width="0.3318"/></g></g></g></svg>