<svg version="1.1" xmlns="http://www.w3.org/2000/svg" xmlns:xlink="http://www.w3.org/1999/xlink" width="164.30232" height="340.54905" viewBox="0,0,164.30232,340.54905"><g transform="translate(-158.9286,-90.68477)"><g data-paper-data="{&quot;isPaintingLayer&quot;:true}" fill-rule="nonzero" stroke-linejoin="miter" stroke-miterlimit="10" stroke-dasharray="" stroke-dashoffset="0" style="mix-blend-mode: normal"><path d="M293.90171,306.21051l-31.48744,-78.52261" data-paper-data="{&quot;origRot&quot;:0}" id="ID0.26897449884563684" fill="none" stroke="#000000" stroke-width="3.5" stroke-linecap="round"/><path d="M280.44603,428.75131l-5.61826,0.58025l-21.55789,-101.22534" data-paper-data="{&quot;origRot&quot;:0,&quot;index&quot;:null}" id="ID0.6604248438961804" fill="none" stroke="#000000" stroke-width="3.5" stroke-linecap="round"/><path d="M196.66614,292.22091c0,0 10.36877,-27.56237 19.48196,-38.93273c8.24009,-10.28102 32.84211,-26.3511 32.84211,-26.3511" data-paper-data="{&quot;origRot&quot;:0}" id="ID0.26897449884563684" fill="none" stroke="#000000" stroke-width="3.5" stroke-linecap="round"/><path d="M197.43176,421.06057l-4.35452,-3.59718l50.86007,-87.54559" data-paper-data="{&quot;origRot&quot;:0,&quot;index&quot;:null}" id="ID0.6604248438961804" fill="none" stroke="#000000" stroke-width="3.5" stroke-linecap="round"/><path d="M251.62814,228.20246l7.04739,-1.23273l-1.77691,107.52938l-14.65399,-1.44978z" data-paper-data="{&quot;origRot&quot;:0}" id="ID0.345300517976284" fill="#000000" stroke="none" stroke-width="0.33954" stroke-linecap="round"/><g><path d="M249.94771,111.81633c17.47913,-2.1823 34.1552,2.55026 46.97665,11.95959c12.82237,9.40922 21.7909,23.49401 23.85365,40.01561c2.06275,16.52159 -3.16742,32.37928 -13.28273,44.6523c-10.11441,12.27275 -25.11496,20.96019 -42.5941,23.14249c-17.47898,2.18228 -34.1552,-2.55026 -46.97663,-11.95943c-12.82237,-9.40922 -21.79092,-23.49418 -23.85367,-40.01577c-2.06275,-16.52159 3.16744,-32.37913 13.28274,-44.65216c10.11439,-12.27291 25.1151,-20.96037 42.59408,-23.14264z" data-paper-data="{&quot;origRot&quot;:0}" id="ID0.6853013150393963" fill="#ffffff" stroke="#000000" stroke-width="4.90582" stroke-linecap="butt"/><path d="M282.8815,128.07796c11.40127,0.55748 26.12107,16.42265 27.40824,20.42271c1.04889,3.32123 -14.12702,-3.80152 -21.01236,-3.21714c-7.27679,0.45775 -13.61739,5.63117 -20.40776,6.26463c-5.84063,0.54871 -11.54713,-4.08403 -17.335,-3.14521c-5.0739,0.82847 -8.00982,6.3705 -12.82737,7.44208c-4.91454,1.09241 -10.70107,-3.03032 -15.44028,-0.72702c-3.26757,1.22269 -2.79746,6.51996 -4.59964,9.55216c-3.00069,5.08563 -10.8469,8.16494 -10.00039,13.46058c1.95126,12.38145 9.54542,23.17226 17.31286,32.73672c6.17854,7.60219 25.53797,17.33526 24.51529,18.12913c-1.46398,0.44526 -25.78867,-4.98502 -34.46703,-13.1701c-9.99703,-9.43745 -17.30316,-22.91617 -18.82716,-36.74693c-1.48996,-13.51065 -0.48097,-31.58009 10.88935,-38.55252c21.50419,-13.17933 49.58607,-14.74795 74.79122,-12.4491z" data-paper-data="{&quot;origRot&quot;:0}" id="ID0.4079975080676377" fill="#e5e5e5" stroke="none" stroke-width="0.61935" stroke-linecap="round"/><path d="M249.42031,110.71316c17.47913,-2.1823 34.1552,2.55026 46.97665,11.95959c12.82237,9.40922 21.7909,23.49401 23.85365,40.01561c2.06275,16.52159 -3.16742,32.37928 -13.28273,44.6523c-10.11441,12.27275 -25.11496,20.96019 -42.5941,23.14249c-17.47898,2.18228 -34.1552,-2.55026 -46.97663,-11.95943c-12.82237,-9.40922 -21.79092,-23.49418 -23.85367,-40.01577c-2.06275,-16.52159 3.16744,-32.37913 13.28274,-44.65216c10.11439,-12.27291 25.1151,-20.96037 42.59408,-23.14264z" data-paper-data="{&quot;origRot&quot;:0}" id="ID0.6853013150393963" fill="none" stroke="#000000" stroke-width="4.90582" stroke-linecap="butt"/><path d="M208.00373,115.45575c1.96426,-1.61798 3.59189,-3.81864 5.78752,-4.97031c3.19304,-1.66618 6.69684,-2.70592 10.00334,-4.14497c3.94428,-1.71649 7.76051,-3.76941 11.76811,-5.33077c3.29448,-1.2831 6.75135,-2.13071 10.122,-3.19449c3.37065,-1.06379 6.63973,-2.59654 10.122,-3.19449c3.44017,-0.59068 7.00315,-0.69573 10.47803,-0.34291c3.68224,0.37447 7.41245,1.08074 10.83407,2.50884c6.73009,2.80894 12.89817,6.88403 19.4362,10.1233c3.31134,1.64093 6.96035,2.62183 10.12969,4.52754c3.07528,1.84887 6.4967,3.65857 8.48344,6.66382c2.13647,3.2308 3.41651,7.29347 3.30776,11.1715c-0.1286,4.63912 0.86738,14.07203 -3.91749,14.96963c-7.08884,1.11293 -12.81225,-7.6515 -19.8011,-9.9811c-3.5257,-1.18941 -7.26394,0.72923 -10.89549,0.82943c-3.54338,-0.06745 -7.06452,-0.98311 -10.50807,-0.28103c-3.57039,0.34539 -6.63024,2.9247 -10.20435,3.30142c-3.5824,0.37775 -7.12366,-1.8475 -10.71541,-1.55837c-3.83216,0.30855 -7.4375,2.02824 -11.06373,3.31207c-3.39812,1.20329 -6.45158,3.53554 -10.00332,4.14513c-3.48229,0.5978 -7.08475,-0.96904 -10.59672,-0.60773c-2.2988,0.21063 -3.28889,1.3354 -4.51842,2.49488c-2.72015,2.39007 -4.46377,5.13985 -7.25736,6.98794c-5.0862,3.36413 -10.38735,9.57975 -15.43274,8.15346c-4.07549,-0.95868 -2.5365,-8.44221 -2.809,-12.92324c-0.22214,-3.55569 0.18234,-7.15003 0.57801,-10.69121c0.33666,-3.07244 0.50171,-6.04021 2.09319,-8.51538c1.10464,-2.41329 3.62069,-3.78639 5.62805,-5.48115c3.02106,-2.59286 5.77652,-5.44294 8.95179,-7.97182z" data-paper-data="{&quot;origRot&quot;:0}" id="ID0.6779168676584959" fill="#1f0f03" stroke="#0d0601" stroke-width="6.78139" stroke-linecap="round"/><path d="M256.82866,163.80891c1.41842,-0.17709 2.90569,1.26075 4.15784,3.7294c1.25444,2.46821 2.27612,5.96477 2.7677,9.90205c0.49158,3.93728 0.36095,7.5777 -0.24812,10.27857c-0.60675,2.70074 -1.69482,4.46012 -3.11326,4.63722c-1.41842,0.17709 -2.90569,-1.26075 -4.15784,-3.7294c-1.25459,-2.46819 -2.27612,-5.96477 -2.7677,-9.90205c-0.49158,-3.93728 -0.36111,-7.57768 0.24812,-10.27857c0.60675,-2.70074 1.69482,-4.46012 3.11326,-4.63722z" data-paper-data="{&quot;origRot&quot;:0}" id="ID0.03663516929373145" fill="#000000" stroke="none" stroke-width="1.50572" stroke-linecap="butt"/><path d="M271.691,161.85773c1.41842,-0.17709 2.90569,1.26075 4.15784,3.7294c1.25444,2.46821 2.27612,5.96477 2.7677,9.90205c0.49158,3.93728 0.36095,7.5777 -0.24812,10.27857c-0.60675,2.70074 -1.69482,4.46012 -3.11326,4.63722c-1.41842,0.17709 -2.90569,-1.26075 -4.15784,-3.7294c-1.25459,-2.46819 -2.27612,-5.96477 -2.7677,-9.90205c-0.49158,-3.93728 -0.36111,-7.57768 0.24812,-10.27857c0.60675,-2.70074 1.69482,-4.46012 3.11326,-4.63722z" data-paper-data="{&quot;origRot&quot;:0}" id="ID0.03663516929373145" fill="#000000" stroke="none" stroke-width="1.50572" stroke-linecap="butt"/><path d="M158.9286,107.92943l0.76797,0.09106v0z" data-paper-data="{&quot;origRot&quot;:0}" id="ID0.2091269358061254" fill="#ffffff" stroke="none" stroke-width="1" stroke-linecap="butt"/><path d="M268.2094,203.36517c0,0 -12.84673,7.55852 -15.37065,-2.60085" data-paper-data="{&quot;origRot&quot;:0}" fill="none" stroke="#000000" stroke-width="2" stroke-linecap="round"/></g><path d="M244.7,169.54333v-14h36l0.2,8l-13.94332,8.14199z" fill="#ffffff" stroke="none" stroke-width="0" stroke-linecap="butt"/></g></g></svg>