<svg xmlns="http://www.w3.org/2000/svg" xmlns:xlink="http://www.w3.org/1999/xlink" version="1.1" width="250.30891" height="372.8258" viewBox="0,0,250.30891,372.8258"><g><g data-paper-data="{&quot;isPaintingLayer&quot;:true}" fill-rule="nonzero" stroke-linejoin="miter" stroke-miterlimit="10" stroke-dasharray="" stroke-dashoffset="0" style="mix-blend-mode: normal"><path d="M 134.9017 187.8789 C 134.9017 187.8789 162.5584 183.4412 171.6141 192.1254 C 180.4038 200.5545 191.0065 215.1514 191.0065 215.1514 " data-paper-data="{&quot;index&quot;:null}" fill="none" stroke="#000000" stroke-linecap="round" stroke-width="4"/><path d="M 81.6239 280.3881 C 81.6239 280.3881 25.8794 339.0933 23.0244 340.2852 C 18.4712 342.1877 12.4286 332.5243 12.4286 332.5243 " data-paper-data="{&quot;origRot&quot;:0,&quot;index&quot;:null}" fill="none" stroke="#000000" stroke-linecap="round" stroke-width="4"/><path d="M 146.6541 359.4108 C 146.6541 359.4108 138.4956 367.7465 136.4832 363.2405 C 135.371 360.7524 117.5904 283.3458 117.5904 283.3458 " data-paper-data="{&quot;origRot&quot;:0,&quot;index&quot;:null}" fill="none" stroke="#000000" stroke-linecap="round" stroke-width="4"/><path d="M 122.407 176.0184 C 131.079 178.5424 137.2678 187.5566 140.2602 200.0792 C 143.2537 212.6039 143.0507 228.6363 138.9403 245.1968 C 134.8312 261.7585 127.5837 275.7407 119.1949 284.953 C 110.8082 294.1631 101.2804 298.6024 92.6084 296.0784 C 83.9363 293.5545 77.7473 284.5411 74.755 272.0184 C 71.7607 259.4935 71.9644 243.4613 76.0741 226.9006 C 77.6387 220.5967 78.7593 217.0979 81.2363 211.085 C 85.2743 201.2831 94.1792 189.6534 94.9646 188.7748 C 95.2265 188.4819 95.5558 187.4352 95.8203 187.1447 C 104.207 177.9345 113.7349 173.4944 122.407 176.0183 Z " data-paper-data="{&quot;origRot&quot;:0,&quot;index&quot;:null}" fill="#080064" stroke="#000000" stroke-linecap="butt" stroke-width="4"/><g data-paper-data="{&quot;origRot&quot;:0}" stroke-linecap="round"><path d="M 144.4384 177.5768 L 109.5044 230.5171 L 107.825 167.3337 Z " fill="#ffffff" stroke-width="4" stroke="#000000"/><path d="M 105.3898 239.5143 L 118.2541 189.5958 L 115.3849 175.8885 L 127.5556 178.3438 L 120.9864 190.1469 L 115.0086 238.03 L 107.7396 251.9751 Z " fill="#ac0000" stroke-width="4" stroke="#000000"/><path d="M 122.1182 187.8417 L 137.1544 180.5509 L 132.2187 198.1041 Z " fill="#ffffff" stroke-width="4" stroke="#000000"/><path d="M 105.6926 193.4934 L 109.6958 177.6806 L 119.0447 187.9624 Z " fill="#ffffff" stroke-width="4" stroke="#000000"/></g><path d="M 160.5477 351.3362 C 164.0517 352.6965 166.6111 355.0964 167.3969 358.2373 C 168.1827 361.378 167.1031 365.3176 164.5644 367.3912 C 159.8015 370.7531 155.8225 372.632 141.2115 372.8258 C 137.9087 371.8075 135.1461 369.0575 134.3623 365.9248 C 133.5786 362.7921 134.7195 359.5224 137.1947 356.7707 C 139.67 354.0191 143.4812 351.7863 148.0387 350.7257 C 152.5962 349.6651 157.0437 349.9759 160.5477 351.3362 Z " data-paper-data="{&quot;origRot&quot;:0,&quot;index&quot;:null}" fill="#000000" stroke="none" stroke-linecap="round" stroke-width="4"/><path d="M 12.3991 316.1589 C 15.9913 317.06 19.7708 319.3598 22.8841 322.8429 C 25.9974 326.3261 27.8596 330.3378 28.3521 334.0064 C 28.8445 337.6749 27.9691 341.0003 25.6076 343.1087 C 23.246 345.2171 19.4898 345.8767 16.2493 344.8118 C 4.5021 336.2639 2.3087 332.4448 0.2964 326.9643 C -0.6208 323.8131 0.6733 319.9758 3.0408 317.862 C 5.4085 315.7482 8.8069 315.2579 12.3991 316.1589 Z " data-paper-data="{&quot;origRot&quot;:0,&quot;index&quot;:null}" fill="#000000" stroke="none" stroke-linecap="round" stroke-width="4"/><path d="M 199.6879 90.6766 C 209.9205 106.0863 213.9935 124.5354 209.4726 142.3565 C 204.9525 160.177 192.6861 174.0257 176.5197 182.0059 C 160.3538 189.9828 140.2896 192.0908 120.1739 186.4291 C 100.0583 180.7665 83.6664 168.3987 73.4336 152.9897 C 63.201 137.5791 59.1278 119.1309 63.6479 101.3104 C 68.1688 83.49 80.4354 69.6397 96.6016 61.6612 C 112.7677 53.6827 132.831 51.5753 152.9476 57.2372 C 173.0622 62.8997 189.4549 75.2683 199.6879 90.6765 Z " data-paper-data="{&quot;origRot&quot;:0,&quot;index&quot;:null}" fill="#ffa200" stroke="#000000" stroke-linecap="butt" stroke-width="4"/><path d="M 37.908 179.6109 C 37.908 179.6109 57.278 171.7681 66.399 168.9607 C 75.4323 166.1802 99.622 184.6254 99.622 184.6254 " fill="none" stroke="#000000" stroke-linecap="round" stroke-width="4"/><path d="M 61.5529 104.9071 C 59.3842 101.6312 54.6015 100.227 54.5371 97.218 C 54.3307 87.5159 58.8912 78.607 61.0653 69.3145 C 61.7344 66.4558 60.3752 62.1259 63.0738 60.7294 C 71.4061 56.4182 81.215 52.876 91.1493 53.7488 C 94.5852 54.0504 93.8113 60.4176 92.6852 63.3295 C 91.442 66.5452 88.3429 69.3768 84.7689 70.2555 C 81.738 71.0006 77.9475 69.5391 75.3169 67.6002 C 72.5282 65.5441 70.7751 62.2671 69.7344 59.1695 C 68.7241 56.1592 69.0986 52.9575 69.3801 49.9197 C 69.6541 46.9742 69.8446 43.8192 71.3885 41.3346 C 73.9804 37.1684 78.0605 34.0182 81.4908 30.4478 C 85.2655 26.5195 89.1246 22.64 93.0255 18.8199 C 97.2851 14.6476 101.2496 10.1491 105.9924 6.4505 C 108.4876 4.5037 111.18 1.895 114.5873 2.0033 C 121.0124 2.2043 127.1965 5.5451 133.4912 7.3142 C 136.639 8.1983 140.4886 7.8349 142.9431 9.9695 C 145.582 12.2637 146.2232 15.9663 147.0932 19.1412 C 148.2773 23.4608 149.3057 27.9403 149.0574 32.2744 C 148.8863 35.2595 147.6709 38.1834 145.8676 40.5278 C 143.9422 43.0294 141.4623 45.5793 138.2023 46.3802 C 135.1486 47.1316 130.5891 47.2699 128.4993 44.7984 C 126.4097 42.3261 127.5524 38.2467 129.3266 35.8805 C 135.1387 28.129 142.5747 21.4471 150.4607 15.5122 C 153.4449 13.2657 157.4789 12.1487 161.4192 11.7287 C 164.5955 11.3902 167.9951 12.252 171.1222 13.3106 C 174.6972 14.5211 178.1924 16.2473 181.2528 18.4441 C 184.3851 20.6925 186.6729 23.8376 189.4506 26.4659 C 191.8236 28.712 195.8284 30.1185 196.7157 33.0819 C 198.1648 37.9167 196.4198 42.8811 195.815 47.6978 C 195.4484 50.6281 195.97 54.2593 193.8065 56.283 C 191.6254 58.3226 187.7389 58.0749 184.5321 58.2529 C 180.8642 58.4547 173.1781 59.4296 173.3969 57.412 C 173.7174 54.4355 180.5086 49.6642 185.6102 48.2615 C 192.725 46.3057 200.7521 47.0177 208.3833 47.7971 C 211.6253 48.1287 214.8505 49.6798 217.5842 51.5261 C 220.7818 53.6857 223.1302 56.8095 225.7805 59.5477 C 228.1972 62.0442 231.3009 64.22 232.7954 67.2366 C 234.2791 70.2329 235.4572 73.9055 234.331 76.818 C 233.0879 80.0338 229.7584 82.3627 226.4157 83.7442 C 223.3878 84.9962 219.6086 84.1208 216.21 84.3086 C 212.8122 84.4965 209.4374 85.3016 206.0053 84.8723 C 201.9859 84.3693 193.9533 83.7514 194.1898 81.553 C 194.4913 78.7555 202.3013 76.1727 207.0833 74.8816 C 210.1807 74.0455 213.7385 74.7922 217.0373 75.3907 C 221.4373 76.1892 225.7058 77.8258 230.0341 79.0417 C 233.181 79.9265 237.3979 79.2535 239.4853 81.6969 C 242.4026 85.113 241.3868 90.0353 242.8825 94.0892 C 244.2206 97.7137 246.951 100.9758 247.963 104.6663 C 248.797 107.7091 248.5989 110.8774 248.3174 113.9152 C 248.0433 116.8615 248.1835 120.2361 246.3088 122.5013 C 243.8185 125.5113 239.5265 126.7789 236.0298 128.7629 C 233.2374 130.3469 230.684 132.5202 227.4341 133.2109 C 224.2754 133.8807 220.7246 133.613 217.4803 132.7018 C 214.2351 131.7902 211.0043 130.153 208.5305 127.8992 C 205.9846 125.5814 204.6909 122.3331 202.9478 119.4692 C 201.0538 116.3571 199.5102 113.0772 197.6162 109.9649 C 195.8732 107.101 193.9977 104.2856 192.0337 101.5342 C 189.5734 98.0879 187.3614 94.4221 184.3393 91.3663 C 180.5248 87.5101 175.6162 84.683 171.6684 80.944 C 168.7244 78.1584 166.8147 74.4919 163.7222 71.8495 C 160.1028 68.7566 155.934 66.2217 151.73 63.906 C 148.8349 62.3113 145.7381 60.8873 142.5291 60.177 C 139.2479 59.4506 135.8248 59.3213 132.5752 59.6679 C 128.8587 60.0635 125.41 61.4155 121.8677 62.3786 C 116.4532 63.8504 110.9007 65.0741 105.6817 66.9811 C 102.611 68.1023 99.8965 69.8722 97.086 71.4282 C 91.2244 74.6733 85.297 77.8693 79.6445 81.3969 C 76.4495 83.3906 73.2048 85.4187 70.5469 87.9904 C 68.2758 90.1897 66.5016 92.8471 64.9933 95.5808 C 63.5703 98.1598 62.8659 101.0855 61.8037 103.8334 C 61.5378 104.5216 62.4087 104.3846 61.8037 103.8334 Z " data-paper-data="{&quot;origRot&quot;:0,&quot;index&quot;:null}" fill="#000000" stroke="#000000" stroke-linecap="round" stroke-width="4"/><path d="M 115.7218 99.1881 L 131.0971 134.6914 L 98.9075 127.9574 " fill="none" stroke="#000000" stroke-linecap="round" stroke-width="4"/><path d="M 174.4443 153.5454 L 145.6101 138.6782 L 180.2416 120.731 " data-paper-data="{&quot;index&quot;:null}" fill="none" stroke="#000000" stroke-linecap="round" stroke-width="4"/><path d="M 124.0131 170.4446 C 123.296 172.4623 121.2389 173.8168 118.391 174.4376 C 114.6778 175.2469 111.3474 171.5192 106.1636 169.6768 C 100.9798 167.8344 95.0536 168.2722 92.6841 165.301 C 90.8668 163.0222 90.1259 160.6732 90.843 158.6556 C 92.495 154.0074 101.2596 152.8783 110.4193 156.1338 C 119.579 159.3892 125.6652 165.7964 124.0132 170.4446 Z " fill="#770000" stroke="#000000" stroke-linecap="butt" stroke-width="4"/></g></g></svg>