<svg version="1.1" xmlns="http://www.w3.org/2000/svg" xmlns:xlink="http://www.w3.org/1999/xlink" width="273.10187" height="303.18923" viewBox="0,0,273.10187,303.18923"><g transform="translate(-135.48435,-88.19462)"><g data-paper-data="{&quot;isPaintingLayer&quot;:true}" fill-rule="nonzero" stroke-linejoin="miter" stroke-miterlimit="10" stroke-dasharray="" stroke-dashoffset="0" style="mix-blend-mode: normal"><path d="M361.38592,239.53428l18.07671,-29.62572l-0.50213,23.09802l29.62572,-5.02131l-23.60016,14.5618l14.05966,16.57032l-34.1449,-10.04262" fill="#ffffff" stroke="none" stroke-width="0" stroke-linecap="round"/><path d="M318.28378,241.05705c0.67356,0.25638 11.07286,-18.15937 21.01696,-16.44154c8.19313,1.41535 -5.26123,13.94744 -2.07817,15.44538c0.89176,0.41966 31.44016,-9.2422 35.70788,-1.27901c6.51854,12.16304 -22.12708,15.70771 -22.12708,15.70771l-1.91295,9.09465c0,0 -0.36246,11.54231 -5.74297,13.50875c-5.38052,1.96643 -18.499,0.98369 -27.83133,-1.23823c-13.01873,-3.09958 -27.23826,-9.34994 -36.56389,-18.94819c-11.21789,-11.54583 -10.88926,-18.12924 -12.37762,-34.15835c-1.374,-14.79729 22.77204,18.47515 43.48826,16.55156z" data-paper-data="{&quot;index&quot;:null}" fill="#995900" stroke="#663b00" stroke-width="2" stroke-linecap="butt"/><path d="M324.03564,276.70122c0,0 -5.59079,-22.19034 -3.55188,-27.93536c2.03891,-5.74502 14.12024,-1.84307 14.12024,-1.84307" fill="none" stroke="#663b00" stroke-width="2" stroke-linecap="round"/><path d="M207.86088,323.10957c-7.80199,0 -14.12678,-6.88699 -14.12678,-15.3825c0,-8.49551 6.32478,-15.38248 14.12678,-15.38248c7.80199,0 14.12678,6.88699 14.12678,15.38248c0,8.49551 -6.32478,15.3825 -14.12678,15.3825z" fill="#995900" stroke="#663b00" stroke-width="2" stroke-linecap="butt"/><g data-paper-data="{&quot;index&quot;:null}" stroke-linecap="butt"><path d="M146.59973,326.34403c0,0 29.29362,-11.0994 55.84667,-19.6954c26.55305,-8.59601 25.73274,-14.74224 30.57136,0.20424c4.83861,14.94646 -44.44252,29.33695 -44.44252,29.33695c0,0 13.26022,21.61887 1.34982,36.21142c-6.3804,7.81723 -11.81709,12.10014 -21.88769,11.4665c-16.28424,-1.02462 -21.43763,-57.52371 -21.43763,-57.52371z" data-paper-data="{&quot;origPos&quot;:null}" fill="#995900" stroke="#663b00" stroke-width="2"/><path d="M151.9571,321.81648c6.36237,-2.05969 14.4619,5.35798 18.09086,16.56784c3.62896,11.20984 1.41312,21.96693 -4.94923,24.02661c-6.36237,2.05969 -14.46191,-5.35801 -18.09087,-16.56785c-3.62896,-11.20987 -1.41312,-21.96692 4.94924,-24.02661z" data-paper-data="{&quot;origPos&quot;:null}" fill="#ffffff" stroke="#e5e5e5" stroke-width="2"/><path d="M154.40911,370.81961c1.47508,-1.31246 8.04895,-0.4312 10.28463,3.39232c2.23565,3.82351 2.85226,7.98706 1.37718,9.29952c-1.47508,1.31246 -4.48323,-0.72313 -6.7189,-4.54666c-2.23565,-3.82351 -6.41797,-6.83273 -4.94291,-8.14519z" data-paper-data="{&quot;origPos&quot;:null,&quot;origRot&quot;:0}" fill="#ffffff" stroke="#e5e5e5" stroke-width="1"/><path d="M168.51583,362.95983c2.50736,-1.88839 7.13478,0.49438 10.33562,5.32206c3.20084,4.8277 3.76303,10.27218 1.25568,12.16057c-2.50736,1.88839 -7.13478,-0.49435 -10.33563,-5.32207c-3.20085,-4.82772 -3.76303,-10.27217 -1.25567,-12.16057z" data-paper-data="{&quot;origPos&quot;:null,&quot;origRot&quot;:0}" fill="#ffffff" stroke="#e5e5e5" stroke-width="1.5"/><path d="M176.57744,350.07342c2.16255,-2.27512 7.11889,-0.68604 11.07028,3.54934c3.95141,4.23539 5.40155,9.51322 3.23898,11.78836c-2.16255,2.27512 -7.11889,0.68603 -11.07029,-3.54936c-3.9514,-4.23537 -5.40155,-9.51323 -3.23897,-11.78833z" data-paper-data="{&quot;origPos&quot;:null,&quot;origRot&quot;:0}" fill="#ffffff" stroke="#e5e5e5" stroke-width="1.5"/></g><g data-paper-data="{&quot;index&quot;:null}" stroke-linecap="butt"><path d="M260.00068,339.69185c-13.94428,-24.1767 -19.78434,-22.09271 -6.17548,-29.94184c13.60884,-7.84911 37.95983,37.34764 37.95983,37.34764c0,0 18.37835,-17.47699 35.13381,-8.87151c8.9759,4.60996 14.29841,9.03397 15.77877,19.01531c2.39375,16.1399 -51.78853,32.96207 -51.78853,32.96207c0,0 -16.96414,-26.33497 -30.90842,-50.51167z" data-paper-data="{&quot;origPos&quot;:null}" fill="#995900" stroke="#663b00" stroke-width="2"/><path d="M285.36391,385.90813c-3.34118,-5.79296 2.22436,-15.26128 12.43101,-21.14812c10.20662,-5.88682 21.18929,-5.96295 24.53048,-0.16998c3.34118,5.79296 -2.22439,15.2613 -12.43101,21.14812c-10.20664,5.88684 -21.18929,5.96295 -24.53048,0.16998z" data-paper-data="{&quot;origPos&quot;:null}" fill="#ffffff" stroke="#e5e5e5" stroke-width="2"/><path d="M332.7783,373.29115c-1.59121,-1.16895 -2.10021,-7.78206 1.17303,-10.76594c3.27323,-2.98384 7.21666,-4.45515 8.80788,-3.28618c1.59121,1.16895 0.22769,4.53547 -3.04557,7.51932c-3.27323,2.98384 -5.34413,7.70174 -6.93534,6.5328z" data-paper-data="{&quot;origPos&quot;:null,&quot;origRot&quot;:0}" fill="#ffffff" stroke="#e5e5e5" stroke-width="1"/><path d="M322.14961,361.13359c-2.36975,-2.05843 -1.00435,-7.08102 3.04971,-11.21824c4.05406,-4.13721 9.26161,-5.82241 11.63136,-3.76398c2.36975,2.05843 1.00438,7.08101 -3.04971,11.21823c-4.05408,4.13723 -9.26162,5.82242 -11.63137,3.76399z" data-paper-data="{&quot;origPos&quot;:null,&quot;origRot&quot;:0}" fill="#ffffff" stroke="#e5e5e5" stroke-width="1.5"/><path d="M307.86539,355.93652c-2.67608,-1.64056 -2.15549,-6.81932 1.16276,-11.56707c3.31827,-4.74776 8.17766,-7.26664 10.85374,-5.62606c2.67608,1.64056 2.15549,6.81932 -1.16278,11.56708c-3.31825,4.74775 -8.17766,7.26664 -10.85372,5.62605z" data-paper-data="{&quot;origPos&quot;:null,&quot;origRot&quot;:0}" fill="#ffffff" stroke="#e5e5e5" stroke-width="1.5"/></g><path d="M183.00354,263.23278c-3.77277,14.03809 -5.20608,27.05201 -17.56451,34.7052c-4.5204,2.79933 -11.7679,0.13486 -16.90268,-1.24513c-5.30411,-1.4255 -13.00467,-11.37339 -11.95499,-16.76449c0.82755,-4.25029 4.92382,-16.31611 10.25209,-24.29349c7.43302,-11.12854 18.23776,-22.28739 30.47978,-27.6936c14.72603,-6.50315 20.78435,-3.90585 36.33077,0.27229c14.35169,3.85706 -25.24057,14.92686 -30.64044,35.01923z" fill="#995900" stroke="#663b00" stroke-width="2" stroke-linecap="butt"/><path d="M241.01814,321.56386c-19.10694,0 -40.93882,-15.80591 -40.93882,-55.9305c0,-40.12459 23.56169,-51.31768 42.66863,-51.31768c19.10694,0 40.36222,11.19309 40.36222,51.31768c0,40.12459 -22.98508,55.9305 -42.09203,55.9305z" fill="#995900" stroke="#663b00" stroke-width="2" stroke-linecap="butt"/><path d="M198.73395,156.6905c-16.55935,0 -29.98336,-14.28451 -29.98336,-31.90537c0,-17.62085 13.42401,-31.90537 29.98336,-31.90537c16.55935,0 29.98336,14.28451 29.98336,31.90537c0,17.62085 -13.42401,31.90537 -29.98336,31.90537z" fill="#995900" stroke="#663b00" stroke-width="2" stroke-linecap="butt"/><path d="M288.25855,153.00538c-16.55935,0 -29.98336,-14.28451 -29.98336,-31.90537c0,-17.62085 13.42401,-31.90539 29.98336,-31.90539c16.55935,0 29.98336,14.28454 29.98336,31.90539c0,17.62085 -13.42401,31.90537 -29.98336,31.90537z" fill="#995900" stroke="#663b00" stroke-width="2" stroke-linecap="butt"/><path d="M242.17142,270.68772c0,18.25775 -23.06943,39.42598 -34.25733,23.1183c-4.51709,-6.58416 16.57483,-13.76684 16.57483,-23.1183c0,-18.25775 3.95836,-33.05857 8.84124,-33.05857c4.88288,0 8.84124,14.80083 8.84124,33.05857z" fill="#ffffff" stroke="#e5e5e5" stroke-width="2" stroke-linecap="butt"/><path d="M270.41775,309.50453c-14.71507,2.22788 -22.67275,-18.10921 -22.67275,-33.05073c0,-15.92246 4.30257,-28.83016 9.61006,-28.83016c5.30749,0 9.61006,12.9077 9.61006,28.83016c0,15.92246 22.13748,30.22185 3.45263,33.05073z" fill="#ffffff" stroke="#e5e5e5" stroke-width="2" stroke-linecap="butt"/><path d="M244.8622,237.60713c-33.54331,0 -60.73552,-27.70852 -60.73552,-61.88873c0,-34.1802 27.19221,-61.88873 60.73552,-61.88873c33.54331,0 60.73552,27.70852 60.73552,61.88873c0,34.1802 -27.19221,61.88873 -60.73552,61.88873z" fill="#995900" stroke="#663b00" stroke-width="2" stroke-linecap="butt"/><path d="M233.47281,188.64028c-10.06299,0 -18.22066,-12.39141 -18.22066,-27.67695c0,-15.28554 8.15767,-27.67695 18.22066,-27.67695c10.06299,0 18.22066,12.39141 18.22066,27.67695c0,15.28556 -8.15767,27.67695 -18.22066,27.67695z" fill="#ffffff" stroke="none" stroke-width="0" stroke-linecap="butt"/><g stroke="none" stroke-width="1" stroke-linecap="butt"><path d="M235.50589,137.63298c3.89493,0 11.42361,8.15714 11.42361,8.15714l-6.23915,17.30075l5.95084,14.99433c0,0 -7.24038,9.31034 -11.13531,9.31034c-3.89493,0 -7.42672,-2.7867 -9.98211,-7.29223c-2.55807,-4.50283 -4.13971,-10.7245 -4.13971,-17.58905c0,-6.86455 1.58165,-13.08622 4.13971,-17.58905c2.55539,-4.50553 6.08718,-7.29223 9.98211,-7.29223z" data-paper-data="{&quot;origPos&quot;:null}" id="ID0.3999869367107749" fill="#3a2400"/><path d="M236.04873,142.50207c3.03745,0 8.13984,8.15517 8.13984,8.15517l-7.42824,10.41668l8.2285,13.99967c0,0 -5.90264,6.23555 -8.94009,6.23555c-3.03745,0 -5.7917,-2.17319 -7.78449,-5.68681c-1.99489,-3.51151 -3.22833,-8.36344 -3.22833,-13.71674c0,-5.3533 1.23345,-10.20523 3.22833,-13.71674c1.99281,-3.51361 4.74706,-5.68681 7.78449,-5.68681z" data-paper-data="{&quot;origPos&quot;:null}" id="ID0.3999869367107749" fill="#000000"/><path d="M238.79792,144.58144c2.04161,0 5.2291,5.06903 5.2291,5.06903l-5.90442,13.66632l5.90442,10.78333c0,0 -3.18749,5.06903 -5.2291,5.06903c-2.04161,0 -3.88956,-1.9369 -5.22912,-5.06903c-1.33956,-3.12828 -2.16803,-7.4517 -2.16803,-12.22484c0,-4.7731 0.82846,-9.09656 2.16803,-12.22482c1.33956,-3.13211 3.18751,-5.06903 5.22912,-5.06903z" data-paper-data="{&quot;origPos&quot;:null}" id="ID0.31420128559693694" fill="#ffffff"/></g><path d="M282.83004,188.17895c-10.06299,0 -18.22066,-12.39141 -18.22066,-27.67695c0,-15.28554 8.15767,-27.67695 18.22066,-27.67695c10.06299,0 18.22066,12.39141 18.22066,27.67695c0,15.28556 -8.15767,27.67695 -18.22066,27.67695z" fill="#ffffff" stroke="none" stroke-width="0" stroke-linecap="butt"/><g stroke="none" stroke-width="1" stroke-linecap="butt"><path d="M284.86312,137.1717c3.89493,0 11.42361,8.15714 11.42361,8.15714l-6.23915,17.30075l5.95084,14.99433c0,0 -7.24038,9.31034 -11.13531,9.31034c-3.89493,0 -7.42672,-2.7867 -9.98211,-7.29223c-2.55807,-4.50283 -4.13971,-10.7245 -4.13971,-17.58905c0,-6.86455 1.58165,-13.08622 4.13971,-17.58905c2.55539,-4.50553 6.08718,-7.29223 9.98211,-7.29223z" data-paper-data="{&quot;origPos&quot;:null}" id="ID0.3999869367107749" fill="#3a2400"/><path d="M285.40595,142.04079c3.03745,0 8.13984,8.15517 8.13984,8.15517l-7.42824,10.41668l8.22847,13.99967c0,0 -5.90264,6.23557 -8.94007,6.23557c-3.03745,0 -5.79168,-2.17319 -7.78451,-5.68681c-1.99491,-3.51151 -3.22833,-8.36344 -3.22833,-13.71674c0,-5.35328 1.23345,-10.20523 3.22833,-13.71674c1.99281,-3.51361 4.74706,-5.68681 7.78451,-5.68681z" data-paper-data="{&quot;origPos&quot;:null}" id="ID0.3999869367107749" fill="#000000"/><path d="M288.15515,144.12013c2.04161,0 5.2291,5.06903 5.2291,5.06903l-5.90442,13.66632l5.90442,10.78333c0,0 -3.18749,5.06903 -5.2291,5.06903c-2.04161,0 -3.88956,-1.9369 -5.22912,-5.06903c-1.33956,-3.12828 -2.16803,-7.4517 -2.16803,-12.22484c0,-4.7731 0.82846,-9.09656 2.16803,-12.22482c1.33956,-3.13211 3.18751,-5.06903 5.22912,-5.06903z" data-paper-data="{&quot;origPos&quot;:null}" id="ID0.31420128559693694" fill="#ffffff"/></g><path d="M243.03626,258.14063c-20.22152,0 -36.6143,-12.17011 -36.6143,-27.18271c0,-15.0126 14.96624,10.37886 35.18776,10.37886c20.22152,0 38.04084,-25.39146 38.04084,-10.37886c0,15.0126 -16.39278,27.18271 -36.6143,27.18271z" fill="#ffffff" stroke="#e5e5e5" stroke-width="2" stroke-linecap="butt"/><g stroke="none" stroke-width="0" stroke-linecap="butt"><path d="M257.16675,239.38696c-20.6992,0 -37.4792,-14.71477 -37.4792,-32.86638c0,-18.1516 16.78,-32.86638 37.4792,-32.86638c20.6992,0 37.4792,14.71477 37.4792,32.86638c0,18.1516 -16.78,32.86638 -37.4792,32.86638z" data-paper-data="{&quot;origPos&quot;:null}" fill="#ffffff"/><path d="M265.23917,200.17795c-10.82727,0 -19.60451,-5.93754 -19.60451,-13.26187c0,-7.32434 8.77724,-13.26187 19.60451,-13.26187c10.82727,0 19.60451,5.93754 19.60451,13.26187c0,7.32434 -8.77724,13.26187 -19.60451,13.26187z" data-paper-data="{&quot;origPos&quot;:null}" fill="#000000"/><path d="M272.1584,187.49268c-6.36897,0 -11.53206,-3.35599 -11.53206,-7.49584c0,-4.13985 5.16309,-7.49584 11.53206,-7.49584c6.36897,0 11.53206,3.35599 11.53206,7.49584c0,4.13985 -5.16309,7.49584 -11.53206,7.49584z" data-paper-data="{&quot;origPos&quot;:null}" fill="#ffffff"/></g><path d="M259.20617,199.20554l-7.30365,23.83292" fill="none" stroke="#000000" stroke-width="1.5" stroke-linecap="round"/><path d="M231.83334,230.6699c-12.97782,-6.0647 -19.0409,-34.78532 -5,-30.33333c8.12913,2.57753 13.13399,16.10344 20.67919,21.98392c5.48711,4.27648 14.98747,1.68274 14.98747,1.68274c0,0 -20.26795,11.52612 -30.66666,6.66667z" fill="none" stroke="#000000" stroke-width="2" stroke-linecap="round"/><path d="M226.5,200.6699l-3.66667,10.66667" fill="none" stroke="#000000" stroke-width="2" stroke-linecap="round"/><path d="M232.83333,205.33657l-3.66666,10.66666" fill="none" stroke="#000000" stroke-width="2" stroke-linecap="round"/></g></g></svg>