<svg version="1.1" xmlns="http://www.w3.org/2000/svg" xmlns:xlink="http://www.w3.org/1999/xlink" width="361.99841" height="418.26051" viewBox="0,0,361.99841,418.26051"><g transform="translate(-90.27212,-16.83128)"><g data-paper-data="{&quot;isPaintingLayer&quot;:true}" fill-rule="nonzero" stroke-linejoin="miter" stroke-miterlimit="10" stroke-dasharray="" stroke-dashoffset="0" style="mix-blend-mode: normal"><g data-paper-data="{&quot;index&quot;:null}" stroke="#131313" stroke-linecap="butt"><path d="M317.76889,209.35152l7.16349,-8.63516l45.40429,37.66602l-7.16341,8.63517z" fill="#222222" stroke-width="2"/><path d="M315.58147,212.141l5.02706,-6.16648l45.16992,37.93684l-5.02699,6.16649z" fill="#434343" stroke-width="2"/><path d="M404.98502,302.58158c-12.12561,-8.52921 -24.35776,-19.43278 -33.81005,-30.6802c-9.45228,-11.24742 -14.35105,-20.72817 -14.62957,-26.95883c-0.2785,-6.23062 4.06322,-9.21159 13.09101,-7.46004c9.02782,1.7516 21.0477,7.907 33.17326,16.43617c12.12561,8.52921 24.35777,19.43279 33.80999,30.68016c9.45228,11.24742 14.35106,20.72817 14.62961,26.95883c0.27852,6.23066 -4.0632,9.21163 -13.09102,7.46003c-9.02779,-1.75155 -21.04771,-7.907 -33.17324,-16.43613z" fill="#222222" stroke-width="2.04252"/><path d="M407.30569,304.03453c-11.63616,-8.59432 -23.84672,-19.35484 -33.8616,-30.23548c-10.01494,-10.88074 -15.95504,-19.83992 -17.46133,-25.52419c-1.50631,-5.68431 1.42114,-8.09406 9.14039,-5.87654c7.71927,2.21756 18.7819,8.64625 30.41812,17.24059c11.63614,8.59426 23.84673,19.35485 33.8616,30.23549c10.01494,10.88069 15.95501,19.83986 17.46133,25.52418c1.50629,5.68427 -1.42117,8.09401 -9.14042,5.8765c-7.71925,-2.21752 -18.78191,-8.64625 -30.41809,-17.24055z" fill="#434343" stroke-width="2"/></g><g stroke-linecap="butt"><path d="M315.21179,203.68565c0.087,4.23193 2.5959,11.44661 6.54452,13.44244c0.78942,0.39901 1.71189,-0.45241 2.54808,-0.74081c1.40531,-0.4847 2.90775,-0.62098 4.3545,-0.96267c3.81519,-0.90108 5.93422,-1.66292 8.92059,-4.11724c0.82821,-0.68067 1.91918,-1.11539 2.01667,-2.36395c0.16323,-2.0905 -0.90942,-4.25418 -1.83133,-6.0297c-1.65979,-2.40134 -1.61243,-2.47283 -3.74268,-4.86203c-0.87498,-0.98134 -3.54566,-4.47752 -5.33555,-4.94972c-3.18286,-0.83965 -5.46295,2.15191 -7.24567,4.10847c-2.01497,2.21145 -4.17392,4.29881 -6.22915,6.47521zM311.15899,204.82699c-1.09535,-1.16972 -0.07831,-2.56122 -0.07831,-2.56122l0.79267,-1.05909c4.40708,-4.7131 10.36948,-14.05182 17.8977,-12.09025c2.85483,0.74386 5.55628,4.18978 7.34034,6.19351c2.3632,2.65417 2.31413,2.74873 4.19615,5.48018c1.32209,2.57851 2.83701,5.75116 2.37084,8.78245c-0.42515,2.76452 -1.56004,3.31269 -3.45492,4.90808c-3.39346,2.85709 -6.29345,3.96166 -10.62323,4.96566c-3.27468,0.75934 -6.08899,2.72616 -9.44987,1.48721c-1.79151,-0.66042 -3.54449,-2.95975 -4.58358,-4.33131c-2.40002,-3.16794 -4.04471,-7.70037 -4.40778,-11.77523z" fill="#917c67" stroke="none" stroke-width="0.5"/><path d="M321.42076,197.17438c1.78272,-1.95656 4.08931,-4.95289 7.27217,-4.11323c1.78988,0.47218 4.48154,3.9782 5.35652,4.95954c2.13025,2.3892 2.09493,2.47918 3.75473,4.88052c0.92191,1.77552 1.99576,3.95947 1.83253,6.04998c-0.09749,1.24855 -1.19126,1.69222 -2.01947,2.37289c-2.98637,2.45432 -5.13398,3.23971 -8.94917,4.14079c-1.44675,0.34169 -2.96773,0.47795 -4.37304,0.96265c-0.83619,0.2884 -1.76642,1.13719 -2.55584,0.73818c-3.94865,-1.99583 -6.48056,-9.25786 -6.56756,-13.4898c2.05522,-2.1764 4.23416,-4.29004 6.24912,-6.50149z" data-paper-data="{&quot;noHover&quot;:false,&quot;origItem&quot;:[&quot;Path&quot;,{&quot;applyMatrix&quot;:true,&quot;segments&quot;:[[[428.86314,405.21783],[3.11931,5.11002],[-8.21198,-2.05682]],[[399.48319,410.78005],[5.92709,-6.5704],[-1.18496,1.31357]],[[399.57321,416.08647],[-0.11695,-1.76519],[0.19655,2.96659]],[[399.14174,424.9953],[0.10118,-2.97137],[-0.26682,7.83576]],[[402.39717,444.37354],[-3.16613,-7.05293],[0.87807,1.956]],[[405.89866,449.50778],[-2.35804,-0.84448],[3.94818,1.41395]],[[418.49674,449.14368],[-3.91082,0.84561],[5.50633,-1.9405]],[[429.8464,444.47746],[-5.73025,2.85472],[2.35363,-1.17254]],[[442.20259,436.78361],[-1.85209,3.20568],[3.29346,-5.70048]],[[438.08357,420.64202],[2.83836,4.46861],[-3.20813,-5.05077]]],&quot;closed&quot;:true}]}" fill="#d9bb9a" stroke="none" stroke-width="0.5"/><path d="M322.60531,198.66354c0.16952,-0.44529 0.50078,-0.75499 0.77734,-0.94877c0.23711,-0.22227 0.6264,-0.5079 1.12271,-0.58962c0.52799,-0.41676 1.056,-0.83353 1.58399,-1.25029c1.13508,-0.16861 2.28183,-0.73985 3.40526,-0.50585c1.61229,0.33585 3.32581,2.39366 4.25977,3.64882c0.83389,1.12071 2.12435,3.13886 2.54261,4.50041c0.61603,2.00532 0.77423,4.20622 -0.49468,6.08549c-0.55578,0.82311 -1.58169,1.20787 -2.43094,1.72282c-2.61905,1.58806 -6.38405,3.14506 -9.52405,2.82595c-4.64792,-0.47236 -7.50933,-4.6367 -6.02602,-9.09502c0.82949,-2.49316 3.11611,-4.36609 4.78401,-6.39393z" fill="#ffdbb5" stroke="none" stroke-width="0.5"/><path d="M319.91985,194.85159c-6.90369,3.29162 -11.58776,9.70654 -11.58776,9.70654l-13.88982,-18.35677l20.74241,-10.43727l16.892,12.62649c0,0 -5.66815,3.36728 -12.15685,6.46101z" fill="#403328" stroke="#292018" stroke-width="4"/></g><g stroke-linecap="butt"><g fill="#d9bb9a" stroke="none" stroke-width="0"><path d="M322.58478,184.02107c1.91805,1.97291 -13.7228,8.76021 -14.27072,9.29288c-0.5479,0.53267 -2.19516,-1.74899 -4.11322,-3.72192c-1.91805,-1.97291 -4.4336,-3.66778 -3.8857,-4.20045c0.09128,-0.08873 15.99045,-5.56425 16.88753,-5.08933c2.36918,1.25425 3.78355,2.07456 5.38209,3.71882z"/></g><path d="M312.10141,186.79527c-3.14652,1.45702 -10.74894,4.02403 -10.74894,4.02403c0,0 -16.89253,-11.12297 -22.91338,-15.91282c-5.98988,-4.7652 -21.78215,-18.22804 -21.78215,-18.22804l13.22592,-22.25166c0,0 13.09208,8.5114 20.01719,15.06871c7.08519,6.7089 32.49248,30.51981 32.49248,30.51981c0,0 -6.67826,5.10705 -10.29111,6.77999z" fill="#403328" stroke="#292018" stroke-width="4"/></g><g data-paper-data="{&quot;index&quot;:null}"><path d="M281.6227,429.17975c-1.08516,3.44733 -2.47181,3.11795 -2.47181,3.11795c0,0 -17.89861,2.24708 -34.36336,0.79408c-3.63248,-0.32055 -3.28202,-4.15091 -6.13044,-5.98921c-2.24822,-1.45094 -1.00708,-1.75179 -1.90438,-1.85122c-2.98256,-0.33049 -2.81795,-1.14482 -2.81795,-1.14482c0,0 0.92574,-16.42488 1.041,-18.17378c0.22061,-3.34757 1.58309,-14.08296 1.58309,-14.08296l33.84041,-1.57752l2.92202,11.24933c0,0 0.39146,7.64949 5.38915,12.70707c3.01356,3.04968 4.03323,11.39001 2.91228,14.95108z" fill="#403328" stroke="#292018" stroke-width="4" stroke-linecap="butt"/><path d="M267.64886,425.16661l11.14413,1.6915l-1.66442,2.53002c0,0 -11.32739,1.14586 -17.04716,1.28875c-5.01865,0.12537 -13.30946,-0.69167 -13.30946,-0.69167c0,0 -2.68539,0.98406 -2.62148,-1.66032c0.06391,-2.64438 23.49839,-3.15828 23.49839,-3.15828z" fill="#775f4a" stroke="none" stroke-width="0" stroke-linecap="butt"/><path d="M250.38643,416.42519c0,0 7.24966,-1.38968 12.81436,-1.48696c5.0326,-0.08797 14.59693,1.61718 14.59693,1.61718" fill="none" stroke="#292018" stroke-width="4" stroke-linecap="round"/><path d="M273.29506,402.60626c0,0 -5.9464,2.60127 -9.33922,2.87365c-4.11259,0.33015 -13.595,-1.03252 -13.595,-1.03252l-2.9413,-10.45133l16.85069,7.59359" fill="none" stroke="#292018" stroke-width="4" stroke-linecap="round"/><path d="M251.19742,402.87064l14.30397,-8.17138l1.13714,8.01228" fill="none" stroke="#292018" stroke-width="4" stroke-linecap="round"/></g><g data-paper-data="{&quot;index&quot;:null}"><path d="M121.78962,372.56572c-3.60598,0.24203 -3.80312,-1.16951 -3.80312,-1.16951c0,0 -8.59887,-15.85777 -13.22956,-31.7246c-1.02164,-3.50055 2.67414,-4.56626 3.35142,-7.88803c0.53457,-2.62182 1.26594,-1.57491 1.03244,-2.44698c-0.77616,-2.8987 0.04231,-3.04133 0.04231,-3.04133c0,0 15.63804,-5.1074 17.30923,-5.63569c3.19881,-1.01119 13.69519,-3.64381 13.69519,-3.64381l13.76935,30.95265l-9.41793,6.81088c0,0 -6.98405,3.14498 -9.87926,9.63912c-1.74579,3.9159 -9.14511,7.89723 -12.87006,8.14726z" fill="#403328" stroke="#292018" stroke-width="4" stroke-linecap="butt"/><path d="M120.44933,358.08894l2.47466,10.99677l-2.96194,-0.63102c0,0 -5.18457,-10.13622 -7.39661,-15.41287c-1.94089,-4.62986 -4.19313,-12.65061 -4.19313,-12.65061c0,0 -1.8928,-2.14407 0.59396,-3.04566c2.48675,-0.90159 11.48306,20.74339 11.48306,20.74339z" fill="#775f4a" stroke="none" stroke-width="0" stroke-linecap="butt"/><path d="M122.31867,338.82993c0,0 3.92962,6.24875 6.04281,11.39752c1.91112,4.65644 3.79886,14.18641 3.79886,14.18641" fill="none" stroke="#292018" stroke-width="4" stroke-linecap="round"/><path d="M143.51893,355.14914c0,0 -4.58466,-4.59426 -6.07157,-7.65604c-1.80235,-3.71132 -3.97937,-13.0405 -3.97937,-13.0405l8.6675,-6.53881l-0.94966,18.45823" fill="none" stroke="#292018" stroke-width="4" stroke-linecap="round"/><path d="M135.24098,334.65888l12.81149,10.35572l-7.051,3.97154" fill="none" stroke="#292018" stroke-width="4" stroke-linecap="round"/></g><path d="M194.5082,81.24611c4.12543,-4.97308 12.19595,-21.76762 12.19595,-21.76762l76.07042,26.25115c0,0 -5.80442,18.86793 -6.3842,25.77604c-0.37789,4.50262 0.88839,5.81154 0.88839,5.81154c0,0 -4.87858,4.34055 -7.96038,3.3609c-0.9869,-0.31372 -3.09511,-0.99798 -4.50783,-1.39961c-0.56354,-0.16021 -3.81061,8.34967 -3.81061,8.34967c0,0 -4.9324,2.29898 -8.22571,1.30784c-1.36614,-0.41116 -5.66024,-2.62742 -7.11912,-3.02091c-1.64407,-0.44343 -5.41607,-0.08465 -8.20804,-0.04993c-4.51226,0.0561 -9.86575,-2.1713 -9.86575,-2.1713c0,0 -4.01756,-3.08799 -6.77528,-5.73668c-2.27904,-2.18892 -3.12129,-3.91287 -5.23632,-4.80884c-1.41706,-0.6003 -13.30078,-1.68121 -14.09846,-1.97998c-1.93988,-0.72657 -8.62818,-7.30819 -8.62818,-7.30819c0,0 3.91116,-5.78284 2.74084,-6.2714c-1.56252,-0.65228 -2.35422,-4.61856 -3.22812,-5.0375c-2.70201,-1.29536 -3.2589,-7.06427 -3.2589,-7.06427c0,0 2.36935,-0.5739 5.41132,-4.24091z" data-paper-data="{&quot;index&quot;:null}" fill="#14161a" stroke="#14161a" stroke-width="4" stroke-linecap="butt"/><path d="M201.2041,188.89464c0,0 3.4975,-32.87717 1.35435,-37.23253c-0.38059,-0.77347 -4.08831,-7.13197 -10.05125,-8.93581c-4.53825,-1.37287 -12.051,2.14534 -10.64064,-0.40474c3.26347,-5.9007 12.30306,-8.89757 17.47059,-10.0124c10.51794,-2.26912 23.57672,-9.48296 32.68282,-9.26286c9.95269,0.24056 20.96824,4.96977 34.18436,10.06297c12.84216,4.94908 8.97264,13.68429 8.97264,13.68429c0,0 -11.88165,7.30939 -12.33876,8.03042c-2.21228,3.48956 -3.76622,33.87237 -3.76622,33.87237l6.275,37.421c0,0 -13.20724,9.94479 -36.72396,8.80269c-21.9144,-1.06428 -36.08253,-9.13214 -36.08253,-9.13214z" data-paper-data="{&quot;index&quot;:null}" fill="#95d2a1" stroke="#67916f" stroke-width="4" stroke-linecap="butt"/><path d="M250.73347,165.77636c-0.03475,1.43771 -1.38791,8.80537 -0.98657,12.35355c1.38065,12.20635 5.99167,28.32545 3.9335,29.60863c-5.0553,3.15176 -21.68097,0.94617 -26.69876,0.87314c-4.06986,-0.05924 -18.60313,-0.10197 -22.68973,-3.98773c-3.17096,-3.01513 2.45454,-14.85983 4.57142,-27.48427c0.61126,-3.64539 -0.51196,-10.63529 -0.44398,-13.44797c0.07329,-3.03243 -3.96701,-16.74337 -5.38185,-19.87656c-0.51797,-1.14706 -4.54549,0.89877 -6.31508,0.09882c-1.53474,-0.69379 -0.86855,-4.21044 -0.94041,-5.39041c-0.14068,-2.31042 4.26977,-5.36078 8.8728,-6.74567c4.60303,-1.3849 19.30256,-3.90492 25.98966,-3.74329c6.88842,0.16649 20.71928,2.36697 26.50323,5.25865c1.09075,0.54531 8.20593,3.31597 7.28953,6.16086c-0.66189,2.0548 -0.62142,6.01156 -2.74041,6.64861c-2.33155,0.70095 -6.81601,-1.98461 -7.04873,-1.00693c-1.11578,4.68757 -3.84152,17.65461 -3.91465,20.68059z" data-paper-data="{&quot;index&quot;:null}" fill="#a6eab4" stroke="none" stroke-width="0" stroke-linecap="butt"/><g data-paper-data="{&quot;index&quot;:null}" stroke-linecap="butt"><path d="M206.48229,127.49923l1.25233,-8.75591c0,0 13.70667,-1.23658 24.42844,-0.87223c10.72178,0.36435 27.86934,3.39526 27.86934,3.39526l-0.13502,5.58609z" fill="#292018" stroke="#292018" stroke-width="4"/><g><path d="M216.19666,116.158l33.28534,1.04673l0.08088,13.475c0,0 -5.225,8.89793 -14.20337,8.57614c-8.69352,-0.31159 -22.35538,-10.37008 -22.35538,-10.37008z" fill="#d9bb9a" stroke="#917c67" stroke-width="4"/><path d="M243.12691,126.68075c-0.02983,1.23405 -2.28225,3.03229 -5.00555,2.96647c-2.72329,-0.06582 -4.88623,-1.97079 -4.8564,-3.20483c0.02983,-1.23405 2.24111,-1.32986 4.96441,-1.26403c2.72329,0.06582 4.92736,0.26836 4.89754,1.5024z" fill="#ffdbb5" stroke="none" stroke-width="0"/></g></g><g data-paper-data="{&quot;index&quot;:null}" stroke-linecap="butt"><g fill="#465b9c"><path d="M188.96552,295.64255c1.23852,-7.56408 3.58184,-27.44276 3.58184,-27.44276l32.49685,2.05855c0,0 -0.2021,27.53157 -1.47917,35.99834c-1.34381,8.90925 -3.97963,22.44758 -3.97963,22.44758c0,0 -11.8098,4.11775 -17.08526,4.00688c-5.04272,-0.10598 -14.54343,-4.0579 -14.54343,-4.0579c0,0 -0.47959,-23.92066 1.0088,-33.01069z" stroke="#2e3c67" stroke-width="4"/><path d="M194.04929,270.84187l0.28596,-4.58308l24.10041,1.48335l-0.28596,4.58308z" stroke="none" stroke-width="0"/></g><path d="M195.88326,279.04319c1.45265,-14.19098 3.83107,-26.01787 9.89468,-25.79032c14.01994,0.52616 11.60297,13.63947 9.02974,36.66202c-1.52887,13.67877 -4.86004,28.85036 -8.64993,35.25724c-1.89386,3.20162 -5.33101,4.21738 -7.0929,4.17479c-2.58821,-0.06256 -5.27018,-1.09172 -6.44068,-3.58655c-0.70568,-1.50408 0.89342,-5.36363 0.68549,-9.13603c-0.15177,-2.75379 -0.17271,-6.25064 -0.06533,-10.69311c0.14874,-6.15404 2.02106,-20.85206 2.63893,-26.88803z" fill="#5671c0" stroke="none" stroke-width="0"/></g><g data-paper-data="{&quot;index&quot;:null}" stroke-linecap="butt"><g fill="#465b9c"><path d="M142.2218,317.09773l4.57448,0.17499l1.6517,-2.50509l3.89516,0.01963c0,0 17.69867,-5.83437 22.27317,-6.7716c7.51699,-1.5401 29.47624,-7.97619 29.47624,-7.97619l11.5511,30.6539c0,0 -26.7522,11.91755 -35.12447,13.74897c-3.48786,0.76296 -16.98418,3.74205 -16.98418,3.74205l-3.91482,1.24075l-2.67136,-1.03947l-4.23942,2.60394c0,0 -5.92601,-11.32205 -7.84045,-16.5537c-1.83,-5.00085 -2.64714,-17.33816 -2.64714,-17.33816z" stroke="#2e3c67" stroke-width="4"/><path d="M202.49858,303.87785l5.13575,-1.66531l10.48103,26.5903c0,0 -5.09686,1.59826 -6.36855,1.3564c-0.49145,-0.09346 -2.70647,-6.18772 -2.70647,-6.18772z" stroke="none" stroke-width="0"/></g><path d="M206.27938,304.21933c4.34686,-0.55261 3.40313,2.31944 4.51998,5.13889c0.43029,4.38187 5.58224,7.92887 1.89548,8.66753c-17.77715,3.56176 -38.55448,11.78582 -44.29738,13.603c-3.23779,1.0245 -8.71801,6.29168 -11.88144,3.26525c-1.22959,-1.17635 -3.37742,-4.52075 -3.8935,-7.58473c-0.54274,-3.22228 -0.76868,-5.34019 0.28173,-7.04794c1.0504,-1.70775 4.54817,-0.13576 4.67781,-1.01518c0.41298,-2.80162 16.10587,-4.32967 26.10307,-7.49302c5.32207,-1.68404 17.64586,-6.90473 22.59424,-7.5338z" fill="#5671c0" stroke="none" stroke-width="0"/></g><path d="M205.01594,71.43564c8.63201,-25.00344 28.63844,-34.02586 50.57379,-26.45305c21.93535,7.5728 32.11441,27.01625 23.48241,52.01969c-8.632,25.00345 -35.85395,34.78991 -45.92383,31.53327c-23.12283,-7.47802 -36.76438,-32.09646 -28.13237,-57.09991z" data-paper-data="{&quot;index&quot;:null}" fill="#d9bb9a" stroke="#917c67" stroke-width="4" stroke-linecap="butt"/><path d="M273.1722,95.52841c-6.90562,20.00275 -27.85543,31.00878 -38.00186,27.50591c-20.00006,-6.57474 -31.27952,-29.03732 -24.37391,-49.04008c6.90562,-20.00275 22.99354,-29.78184 43.20056,-22.80571c19.95551,6.88929 26.08082,24.33713 19.17522,44.33988z" fill="#ffdbb5" stroke="none" stroke-width="0" stroke-linecap="butt"/><path d="M251.38025,106.4631c-0.46049,1.27113 -4.20048,3.27533 -7.24013,2.17416c-3.03965,-1.10118 -4.219,-3.17046 -3.75851,-4.44158c0.46049,-1.27113 2.38645,-1.26275 5.4261,-0.16158c3.03965,1.10118 6.03303,1.15786 5.57254,2.42901z" fill="#d9bb9a" stroke="none" stroke-width="0" stroke-linecap="butt"/><path d="M235.74678,125.90128c-6.2156,-2.323 -4.36741,-16.43221 -4.36741,-16.43221c0,0 5.63925,5.19009 9.25898,6.38918c3.5327,1.17025 10.48212,0.98884 10.48212,0.98884c0,0 -9.15809,11.37721 -15.37369,9.05419z" fill="none" stroke="#d9bb9a" stroke-width="4" stroke-linecap="round"/><g data-paper-data="{&quot;index&quot;:null}" stroke-linecap="butt"><g fill="#465b9c"><path d="M234.12193,329.82123c0,0 -2.0266,-13.65101 -2.96183,-22.61536c-0.88878,-8.5191 0.24907,-36.02806 0.24907,-36.02806l33.23374,-0.46986c0,0 1.41887,19.96962 2.31241,27.58523c1.07381,9.15197 -0.58281,33.02099 -0.58281,33.02099c0,0 -9.87968,3.48349 -15.02632,3.34319z" stroke="#2e3c67" stroke-width="4"/><path d="M238.33779,273.57879l-0.06785,-4.59163l24.64482,-0.30519l0.06785,4.59163z" stroke="none" stroke-width="0"/></g><path d="M258.86753,308.08111c-0.10737,4.44247 -0.09765,7.93906 -0.38683,10.68217c-0.39614,3.75781 0.22918,8.07483 -0.56374,9.54268c-1.31519,2.43475 -1.26585,2.99658 -3.9078,2.93272c-1.79847,-0.04347 -7.27075,-1.27456 -9.04541,-4.56486c-3.55137,-6.5843 -4.18979,-21.85186 -5.08091,-35.58911c-1.49982,-23.12099 -3.32403,-36.33683 10.99615,-36.17798c6.19346,0.06869 7.03246,11.97335 7.82087,26.2185c0.33533,6.059 0.16768,26.95586 0.16768,26.95586z" fill="#5671c0" stroke="none" stroke-width="0"/></g><g data-paper-data="{&quot;index&quot;:null}" stroke-linecap="butt"><g fill="#465b9c"><path d="M252.79961,395.18784c-5.38418,-0.14676 -17.58316,-2.15419 -17.58316,-2.15419l1.08723,-4.84824l-1.7725,-2.20058l-0.06313,-4.10601c0,0 -1.40816,-13.74158 -1.77843,-17.29063c-0.88878,-8.5191 1.83284,-37.67417 1.83284,-37.67417l31.64994,1.17625c0,0 0.83424,22.86487 1.7278,30.48049c0.54378,4.63453 0.6229,23.26935 0.6229,23.26935l1.21277,3.6856l-1.79033,2.36408l1.56359,4.27992c0,0 -11.56285,3.15843 -16.7095,3.01814z" stroke="#2e3c67" stroke-width="4"/><path d="M243.29638,331.04399c0,0 -6.2673,-0.15666 -6.50374,-0.59266c-0.61184,-1.12822 -0.70974,-6.46857 -0.70974,-6.46857l28.1791,1.26969l0.2501,5.40348z" stroke="none" stroke-width="0"/></g><path d="M258.657,350.89146c0.16594,10.48385 3.57832,25.84481 1.13615,27.12934c-0.76659,0.40321 1.74764,3.21731 0.50398,4.7573c-1.24366,1.53999 -3.25491,2.00099 -6.37592,2.51377c-2.96768,0.48761 -6.69299,-0.48198 -8.14876,-1.2724c-3.74529,-2.03354 -0.59669,-8.90683 -0.65044,-12.30223c-0.09532,-6.02244 1.07239,-28.33703 -1.11459,-46.3218c-0.45354,-3.72981 4.37899,0.02252 8.52875,-0.96652c2.92774,0.15976 5.27167,-1.65026 6.09831,2.64588c0.94102,4.89066 -0.06582,18.2355 0.02252,23.81665z" fill="#5671c0" stroke="none" stroke-width="0"/></g><g data-paper-data="{&quot;index&quot;:null}"><g><g><path d="M192.20986,271.79002c0,0 1.07815,-18.29783 2.32112,-26.45975c1.23823,-8.13086 4.54204,-19.68614 4.54204,-19.68614l63.9426,1.97133c0,0 2.85724,13.09768 3.02478,19.62787c0.3109,12.11672 -0.98445,27.0881 -0.98445,27.0881l-33.45448,-0.88078l-0.2978,-5.57209l-3.90664,-0.64855l0.07302,5.78825z" fill="#465b9c" stroke="#2e3c67" stroke-width="4" stroke-linecap="butt"/><path d="M236.69908,244.22655c0,0 -0.16674,14.15363 -0.69903,18.26404c-0.28734,2.21889 -2.24209,4.44814 -2.24209,4.44814" fill="none" stroke="#2e3c67" stroke-width="4" stroke-linecap="round"/><path d="M225.97529,250.78105l0.16459,-6.80971l10.55919,0.25521" fill="none" stroke="#2e3c67" stroke-width="4" stroke-linecap="round"/><path d="M206.58007,239.70495c0,0 -3.00804,9.0012 -4.46319,12.26391c-1.08532,2.43346 -3.48831,5.56462 -3.48831,5.56462" fill="none" stroke="#2e3c67" stroke-width="4" stroke-linecap="round"/><path d="M261.67853,261.18665c0,0 -2.24891,-3.2436 -3.2154,-5.72665c-1.29584,-3.3292 -3.86549,-12.4652 -3.86549,-12.4652" data-paper-data="{&quot;index&quot;:null}" fill="none" stroke="#2e3c67" stroke-width="4" stroke-linecap="round"/><path d="M193.87392,274.74078l1.10477,-10.59902l28.61904,0.96515l-1.43682,10.59099z" fill="#465b9c" stroke="none" stroke-width="0" stroke-linecap="butt"/><path d="M233.68083,276.50866l0.84392,-10.60532l27.70751,0.39628l-0.31441,10.79555z" data-paper-data="{&quot;index&quot;:null}" fill="#465b9c" stroke="none" stroke-width="0" stroke-linecap="butt"/></g><g stroke="#281a0d" stroke-width="4" stroke-linecap="butt"><path d="M195.13334,231.93674c0,0 -0.15955,-4.00221 0.1671,-5.66086c0.35298,-1.79233 2.25587,-3.86233 2.25587,-3.86233l9.77085,-0.11871c0,0 3.09567,3.88386 3.05566,5.539c-0.04,1.65513 -3.29569,4.39183 -3.29569,4.39183z" fill="#3f2b1a"/><path d="M206.26965,233.05761l2.03997,-10.17122l10.15903,0.31652c0,0 3.09567,3.88386 3.05566,5.539c-0.04,1.65513 -3.29569,4.39183 -3.29569,4.39183z" fill="#67472a"/><path d="M218.41756,233.56414l1.83558,-9.96324l10.36339,0.10852c0,0 3.09567,3.88387 3.05566,5.539c-0.04,1.65513 -3.29569,4.39182 -3.29569,4.39182z" fill="#3f2b1a"/><path d="M231.4339,234.3801l0.5219,-10.71446l11.20786,0.22914c0,0 3.27217,3.71502 3.30883,5.36999c0.03666,1.65496 -3.08887,4.55981 -3.08887,4.55981z" fill="#67472a"/><path d="M243.59231,234.24443l1.10931,-10.27441l10.62046,-0.21091c0,0 3.27217,3.71502 3.30883,5.36998c0.03666,1.65496 -3.08887,4.55981 -3.08887,4.55981z" fill="#3f2b1a"/><path d="M255.75541,234.32916l0.83498,-10.06811l8.44227,-0.47648c0,0 2.55371,3.69765 2.57398,5.35223c0.02029,1.65456 -2.45231,4.57519 -2.45231,4.57519z" fill="#67472a"/></g><path d="M200.19209,233.62259l1.47291,-12.73781l5.77999,-0.00875l0.32017,12.78115z" fill="#465b9c" stroke="#2e3c67" stroke-width="4" stroke-linecap="butt"/><g fill="#67472a" stroke="#281a0d" stroke-width="4" stroke-linecap="butt"><path d="M255.29135,233.18223l5.66216,-8.51411l9.36941,4.46565c0,0 1.15994,4.68696 0.43593,6.15268c-0.72401,1.46572 -4.78,2.64163 -4.78,2.64163z"/></g><path d="M223.12707,236.65897c0,0 -1.07493,-5.0123 -1.01536,-7.47701c0.05871,-2.42925 1.37026,-7.20642 1.37026,-7.20642l17.53225,0.42375c0,0 1.45573,5.7526 1.39324,8.33785c-0.0548,2.26742 -1.74814,6.34558 -1.74814,6.34558z" fill="none" stroke="#716b65" stroke-width="4" stroke-linecap="butt"/><path d="M254.18189,234.992l0.93728,-12.75076l5.77282,0.28798l0.85581,12.79409z" data-paper-data="{&quot;index&quot;:null}" fill="#465b9c" stroke="#2e3c67" stroke-width="4" stroke-linecap="butt"/></g><path d="M216.11331,275.50526c-0.07338,3.03614 -13.20391,0.56807 -18.20119,0.44729c-2.67293,-0.0646 -0.11783,-11.5227 0.92828,-14.35018c1.24413,-3.36273 7.03639,-6.57264 12.03367,-6.45186c4.99727,0.12078 5.31262,17.31861 5.23924,20.35476z" fill="#5671c0" stroke="none" stroke-width="0" stroke-linecap="butt"/><path d="M238.78644,277.54605c0.07338,-3.03614 1.21922,-20.19866 6.21649,-20.07787c4.99727,0.12078 10.6277,3.60679 11.70792,7.0257c0.90828,2.87472 2.90684,14.44287 0.23392,14.37827c-4.99727,-0.12078 -18.2317,1.71006 -18.15832,-1.32608z" data-paper-data="{&quot;index&quot;:null}" fill="#5671c0" stroke="none" stroke-width="0" stroke-linecap="butt"/></g><g data-paper-data="{&quot;index&quot;:null}" stroke="none" stroke-width="0" stroke-linecap="butt"><path d="M275.83634,102.5736c-2.50267,6.90831 -9.57602,10.68111 -15.79876,8.4268c-6.22273,-2.25432 -9.23846,-9.68208 -6.73579,-16.59038c2.50267,-6.90831 9.57603,-10.68109 15.79876,-8.42678c6.22275,2.25432 9.23845,9.68207 6.73579,16.59037z" fill="#d3f0f1"/><path d="M267.6527,86.53888c5.16487,1.87107 7.49337,8.51793 5.20085,14.84613c-2.29252,6.3282 -8.33795,9.94142 -13.50281,8.07035c-5.16487,-1.87107 -7.49337,-8.51792 -5.20084,-14.84613c2.29253,-6.3282 8.33794,-9.94143 13.50281,-8.07035z" fill="#ffffff"/></g><g data-paper-data="{&quot;index&quot;:null}" stroke="none" stroke-width="0" stroke-linecap="butt"><g data-paper-data="{&quot;index&quot;:null}"><path d="M277.2562,102.08215c-1.96057,5.4119 -6.66001,8.67239 -10.49649,7.28254c-3.83649,-1.38985 -5.35721,-6.90372 -3.39664,-12.31561c1.96057,-5.41189 6.65998,-8.6724 10.49647,-7.28255c3.83649,1.38985 5.35723,6.90374 3.39666,12.31562z" fill="#41563d"/><path d="M267.57765,106.01658c-3.54693,-1.28495 -4.34914,-6.95894 -3.26644,-9.9476c1.0827,-2.98866 4.32263,-7.86467 9.96665,-5.82001c3.54694,1.28495 4.48493,7.6745 3.40222,10.66315c-1.0827,2.98865 -6.55549,6.38941 -10.10242,5.10446z" fill="#5f7d59"/></g><path d="M265.73932,94.20481c0.8233,-2.27261 3.33302,-3.44751 5.60562,-2.62421c2.2726,0.8233 3.44751,3.33302 2.62421,5.60563c-0.8233,2.27261 -3.33303,3.4475 -5.60563,2.62421c-2.2726,-0.8233 -3.4475,-3.33301 -2.6242,-5.60562z" fill="#8ebb85"/><path d="M267.75068,99.58843c0.45544,-1.25719 1.84381,-1.90714 3.10099,-1.4517c1.25719,0.45544 1.90713,1.8438 1.45169,3.10099c-0.45544,1.25719 -1.84381,1.90714 -3.10099,1.4517c-1.25719,-0.45544 -1.90713,-1.84381 -1.45168,-3.101z" fill="#8ebb85"/></g><g data-paper-data="{&quot;index&quot;:null}" stroke="none" stroke-width="0" stroke-linecap="butt"><path d="M232.14295,71.68898c6.22274,2.25432 9.23846,9.68207 6.73578,16.59039c-2.50267,6.90831 -9.57601,10.68109 -15.79876,8.42678c-6.22273,-2.25432 -9.23845,-9.68206 -6.73578,-16.59037c2.50267,-6.90831 9.57602,-10.68109 15.79875,-8.42678z" fill="#d3f0f1"/><path d="M238.0998,87.88914c-2.29253,6.32822 -8.33794,9.94142 -13.5028,8.07035c-5.16487,-1.87107 -7.49338,-8.51793 -5.20085,-14.84613c2.29253,-6.3282 8.33795,-9.94143 13.50281,-8.07035c5.16487,1.87107 7.49337,8.51792 5.20084,14.84613z" fill="#ffffff"/></g><g data-paper-data="{&quot;index&quot;:null}" stroke="none" stroke-width="0" stroke-linecap="butt"><g data-paper-data="{&quot;index&quot;:null}"><path d="M236.36536,76.86144c3.83649,1.38985 5.3572,6.90373 3.39664,12.31562c-1.96057,5.4119 -6.65998,8.6724 -10.49647,7.28255c-3.83649,-1.38985 -5.35722,-6.90372 -3.39665,-12.31562c1.96057,-5.41189 6.65999,-8.6724 10.49649,-7.28255z" fill="#41563d"/><path d="M226.29274,82.97396c1.0827,-2.98866 5.89544,-7.29489 9.44237,-6.00994c5.64401,2.04466 5.0092,7.86443 3.92649,10.85308c-1.0827,2.98865 -5.33288,6.83233 -8.87981,5.54738c-3.54693,-1.28495 -5.57176,-7.40186 -4.48906,-10.39052z" fill="#5f7d59"/></g><path d="M234.15318,88.09499c-2.2726,-0.8233 -3.4475,-3.33303 -2.62421,-5.60563c0.8233,-2.27261 3.33304,-3.44752 5.60564,-2.62422c2.2726,0.8233 3.44749,3.33302 2.62419,5.60563c-0.8233,2.27261 -3.33302,3.44751 -5.60563,2.62422z" fill="#8ebb85"/><path d="M231.66504,89.7687c-1.25718,-0.45544 -1.90713,-1.8438 -1.4517,-3.10099c0.45544,-1.25719 1.84381,-1.90715 3.101,-1.4517c1.25718,0.45544 1.90712,1.84382 1.45168,3.101c-0.45544,1.25719 -1.84381,1.90714 -3.10099,1.4517z" fill="#8ebb85"/></g><g data-paper-data="{&quot;index&quot;:null}" stroke-linecap="butt"><g data-paper-data="{&quot;index&quot;:null}" fill="#403328"><g><path d="M265.95214,246.35445c-5.80805,0.54722 -21.73812,-8.62087 -21.73812,-8.62087c0,0 1.44766,-51.00081 1.03607,-69.19367c-0.38138,-16.85755 0.13832,-25.79694 0.13832,-25.79694c0,0 7.65849,-3.98727 9.91616,-8.91179c1.37314,-2.99516 0.49608,-5.28927 2.07575,-5.58554c3.73516,-0.70056 5.36197,1.42258 11.12474,4.67584c5.76274,3.25326 12.04192,9.71607 13.37182,12.23254c1.32989,2.51647 -5.88673,1.93092 -5.88673,1.93092c0,0 -6.1491,3.29221 -10.2595,5.15572c-3.19299,1.4476 -3.20225,25.54538 -3.20225,25.54538l-0.39537,14.60121l8.61729,42.52765c0,0 -0.85577,11.06813 -4.79816,11.43958z" stroke="#292018" stroke-width="4"/><path d="M278.24448,144.03392c0,0 1.92807,2.59758 2.34093,3.625c0.38983,0.97012 0.41433,3.0246 0.41433,3.0246c0,0 -12.61178,6.70853 -14.73874,7.35963c-0.70386,0.21547 -4.62462,-0.17413 -5.05144,-3.38422c-0.42683,-3.21008 2.02029,-6.25029 2.02029,-6.25029z" stroke="none" stroke-width="NaN"/></g><path d="M255.54715,135.61623c-2.24472,2.03 -6.79194,4.6332 -6.79194,4.6332l1.37163,-10.34707l9.97872,-6.29024l0.49141,4.17179c0,0 -2.71195,5.71803 -5.04982,7.83231z" stroke="#292018" stroke-width="4"/></g><path d="M253.6099,156.72887c-0.04732,1.95776 -0.73813,3.52907 -1.54295,3.50961c-0.80482,-0.01945 -1.41891,-1.6223 -1.3716,-3.58006c0.04732,-1.95776 0.73813,-3.52907 1.54295,-3.50961c0.80482,0.01945 1.41892,1.62229 1.3716,3.58006z" fill="#dfbd28" stroke="#dfbd28" stroke-width="4"/><path d="M253.33414,178.69569c-0.04732,1.95775 -0.73813,3.52907 -1.54295,3.50961c-0.80482,-0.01945 -1.41891,-1.6223 -1.3716,-3.58006c0.04732,-1.95775 0.73813,-3.52907 1.54295,-3.50961c0.80482,0.01945 1.41891,1.6223 1.3716,3.58006z" fill="#dfbd28" stroke="#dfbd28" stroke-width="4"/><path d="M253.39881,200.1517c-0.04732,1.95775 -0.73813,3.52907 -1.54295,3.50961c-0.80482,-0.01945 -1.41891,-1.6223 -1.3716,-3.58006c0.04732,-1.95775 0.73813,-3.52907 1.54295,-3.50961c0.80482,0.01945 1.41891,1.6223 1.3716,3.58006z" fill="#dfbd28" stroke="#dfbd28" stroke-width="4"/><path d="M253.45631,220.39638c-0.04732,1.95775 -0.73813,3.52907 -1.54295,3.50961c-0.80482,-0.01945 -1.41891,-1.6223 -1.3716,-3.58006c0.04732,-1.95775 0.73813,-3.52907 1.54295,-3.50961c0.80482,0.01945 1.41891,1.6223 1.3716,3.58006z" fill="#dfbd28" stroke="#dfbd28" stroke-width="4"/></g><g data-paper-data="{&quot;index&quot;:null}" stroke="#292018" stroke-width="4"><path d="M189.43451,231.53257l9.38404,-39.50881l0.61834,-17.0181c0,0 4.96693,-23.73571 0.96258,-25.35727c-5.15489,-2.08745 -12.83873,-5.714 -12.83873,-5.714c0,0 -9.26294,0.18725 -7.42325,-2.25262c1.83968,-2.43987 10.22725,-8.54818 17.7775,-11.47966c7.55024,-2.93149 9.74802,-4.96218 14.48701,-4.05681c2.00422,0.38291 0.756,2.62564 2.34738,5.69245c2.61649,5.04231 12.19269,9.44616 12.19269,9.44616c0,0 0.1723,8.95612 -1.24411,25.77021c-1.52862,18.14596 -2.48634,69.15862 -2.48634,69.15862c0,0 -13.5841,9.18143 -20.98292,8.31499c-5.0222,-0.58812 -12.79415,-12.99518 -12.79415,-12.99518z" fill="#403328" stroke-linecap="butt"/><path d="M213.75204,127.5763l-0.1456,-5.85903l14.73308,8.34089l1.18444,10.40885c0,0 -5.6729,-2.85022 -8.43224,-5.00117c-2.87388,-2.24024 -7.33969,-7.88954 -7.33969,-7.88954z" fill="#403328" stroke-linecap="butt"/><path d="M220.47061,151.52741l-0.96787,9.14665" fill="none" stroke-linecap="round"/><path d="M218.29801,181.16507l-0.00688,-7.44002" fill="none" stroke-linecap="round"/><path d="M217.46701,203.18769l0.37466,-7.77683" fill="none" stroke-linecap="round"/><path d="M216.1609,224.78358l0.39556,-8.64142" fill="none" stroke-linecap="round"/></g><path d="M206.08905,83.74487c-0.84362,5.5474 -0.6351,8.86602 -2.32236,9.26174c-1.68724,0.39572 -6.18668,-5.33451 -5.34307,-10.88191c0.84362,-5.5474 6.319,-8.54369 7.98566,-8.06863c3.03354,0.86467 0.5234,4.14139 -0.32023,9.6888z" data-paper-data="{&quot;index&quot;:null}" fill="#d9bb9a" stroke="#917c67" stroke-width="4" stroke-linecap="butt"/><g data-paper-data="{&quot;index&quot;:null}"><g><path d="M204.47087,73.77406c-1.16371,2.4733 -6.22515,2.79456 -6.22515,2.79456c0,0 -3.19397,0.32965 -3.44328,-2.59186c-0.20304,-2.37938 -2.78156,-7.02412 -2.78156,-7.02412c0,0 2.42661,-2.00645 5.37724,-4.20553c0.7625,-0.56829 -2.19306,-4.00736 -2.65516,-5.85976c-0.4621,-1.85239 0.36319,-9.97189 0.36319,-9.97189c0,0 7.40538,-0.08314 10.4593,-3.81292c1.51532,-1.85067 2.74317,-5.27934 3.77516,-6.42852c5.87979,-6.54749 4.70882,-8.87293 10.13967,-11.44725c0.56756,-0.26903 9.89407,-2.74982 10.40281,-2.9939c8.86097,-4.25104 10.15155,-4.17921 20.41399,-1.64541c10.85165,2.67928 19.83142,1.92502 24.98128,7.27981c3.36273,3.49656 11.80168,12.11852 18.02033,17.02136c4.18573,9.56044 5.31059,15.13732 2.81294,24.46245c-0.80122,2.99141 -3.91285,4.17936 -3.77748,7.64198c0.06141,1.5707 3.43677,14.52022 3.43677,14.52022c0,0 -2.72426,2.9818 -5.24692,3.62643c-2.49936,0.63868 -4.57285,-0.53136 -5.45159,0.37714c-1.91697,1.98185 -1.75084,4.76439 -2.72921,6.38046c-0.71177,1.17571 -1.48755,1.6651 -2.75947,2.54836c-2.14699,1.49092 -1.08738,-1.62204 -0.2717,-3.6353c1.52472,-3.76329 1.58265,-6.80727 1.37029,-6.19273c-1.74702,0.22713 -0.52839,0.62941 -6.60537,-2.81315c-0.33802,-0.19148 -0.62773,-3.30227 -1.63393,-4.92169c-1.00619,-1.61941 -0.72543,-6.05829 -0.72543,-6.05829c0,0 -11.43477,1.12879 -15.82738,-0.01511c-6.33729,-1.65032 -14.17215,-2.0483 -17.55152,-3.66335c-8.26079,-3.94797 -11.72788,-6.32155 -15.0966,-7.62062c-3.13548,-1.20914 -9.82825,-0.00351 -11.50523,-1.60254c0,0 -5.73844,2.60449 -7.26601,5.85114z" fill="#252931" stroke="#14161a" stroke-width="4" stroke-linecap="butt"/><path d="M274.09089,72.93049c-25.51206,1.38988 -45.44235,-9.62421 -63.90795,-14.19947c-3.82267,-0.94715 -3.95865,-4.38688 -3.95865,-4.38688c0,0 8.62963,-4.75982 12.01324,-14.09984c1.62848,-4.49521 10.61616,-11.97968 20.35283,-14.23929c8.09345,-1.87825 21.99252,2.21184 29.18043,3.17736c4.65508,0.62529 3.26401,4.03925 7.17408,5.45575c11.09904,4.02085 7.6868,10.50386 8.77718,18.87821c0.79362,6.09526 -5.98521,19.21552 -9.63118,19.41416z" fill="#494c5e" stroke="none" stroke-width="0" stroke-linecap="butt"/><path d="M274.17245,43.33238c0.45902,-1.26708 -5.76405,-0.24339 -5.74187,-2.13222c0.01628,-1.38628 2.9156,-2.5074 4.13154,-4.17166c0.34992,-0.47893 0.29991,-2.81208 -1.27089,-4.69081c-1.30738,-1.56366 -4.18786,-2.72249 -3.95576,-3.06936c0.94284,-1.40913 8.6656,2.84031 9.54268,3.15805c3.48179,1.26135 12.66345,15.35323 11.36206,18.94555c-0.07895,0.21793 -2.0019,19.98943 -10.33831,25.63803c-1.2038,0.81568 -8.22005,-1.71429 -7.91067,-3.80471c0.09727,-0.65721 -3.66528,-3.17081 -1.93332,-4.79201c2.35958,-2.20868 11.15159,-1.99154 11.14087,-2.81192c-0.03062,-2.34258 -14.18162,-0.22685 -14.2111,-3.62781c-0.02948,-3.40096 16.05802,-6.41419 14.86886,-9.34523c-3.32207,0.1036 -12.3204,2.51126 -12.88269,0.88804c-1.70393,-4.91894 5.89719,-6.59164 7.19858,-10.18395z" fill="#252931" stroke="none" stroke-width="0" stroke-linecap="butt"/><path d="M221.77316,59.03791c-0.99799,0.90565 1.69166,0.69556 3.27611,1.78697c1.58444,1.09142 7.28007,3.794 5.4273,4.69703c-0.977,0.47618 -10.12486,-3.83093 -10.93344,-3.39462c-1.49212,0.80513 -4.30576,0.96571 -4.93266,0.27493c-1.50864,-1.66244 -10.80599,-1.6629 -10.45235,-6.99878c0.22971,-3.46612 7.77377,-7.39277 8.88797,-8.40387c0.17164,-0.15576 7.54729,-16.8958 17.55717,-17.99348c1.44544,-0.1585 10.09711,0.33344 8.84663,2.03692c-0.39315,0.53557 -7.29728,4.92475 -9.58613,5.54857c-3.11826,0.84985 -5.96649,1.50899 -6.34043,2.23926c-1.06777,2.08531 13.27642,4.01859 12.14804,5.83823c-1.79239,2.89045 -17.19473,1.16312 -16.72062,2.79445c0.54058,1.86006 7.95615,1.63507 15.08715,2.62947c5.52279,0.77013 11.31948,2.79516 10.81011,3.77862c-0.47287,0.91301 -2.75642,2.91352 -4.77955,3.15323c-5.88626,0.69745 -16.1896,0.10221 -18.29528,2.01307z" fill="#252931" stroke="none" stroke-width="0" stroke-linecap="butt"/><path d="M280.85683,77.31436c0,0 -7.15502,3.80392 -8.19095,3.85956c-2.07151,0.11128 -6.0693,-0.39948 -6.0693,-0.39948" fill="none" stroke="#14161a" stroke-width="4" stroke-linecap="round"/><path d="M249.50685,36.77158c0.51264,-3.13252 4.31269,-4.82654 8.08332,-4.20945c3.77062,0.61707 9.228,1.50734 8.71536,4.63985c-0.51264,3.13252 -6.89409,5.7026 -10.66471,5.08551c-3.77061,-0.61708 -6.64662,-2.38341 -6.13398,-5.5159z" fill="#686c85" stroke="none" stroke-width="0" stroke-linecap="butt"/><path d="M235.11003,37.66187c0.296,-1.80864 3.57412,-2.75111 5.75119,-2.39483c2.17706,0.35629 4.04713,1.78354 3.75113,3.59218c-0.296,1.80864 -2.48356,2.24057 -4.66063,1.8843c-2.17706,-0.35629 -5.1377,-1.27299 -4.84169,-3.08163z" fill="#686c85" stroke="none" stroke-width="0" stroke-linecap="butt"/><path d="M258.90849,47.52901c0.0192,-1.83258 1.36568,-2.08811 3.57158,-2.06501c2.20591,0.0231 3.97517,-0.64338 3.95598,1.18921c-0.01919,1.83258 -2.11632,2.59027 -4.32221,2.56717c-2.20591,-0.0231 -3.22451,0.14123 -3.20533,-1.69136z" fill="#686c85" stroke="none" stroke-width="0" stroke-linecap="butt"/></g><path d="M286.32098,88.54403c-1.58475,-0.22551 -1.03392,3.30307 -2.04668,2.93617c-1.06593,-0.38616 -2.11673,-2.93655 -2.8382,-4.80748c-0.92443,-2.39727 -1.2808,-3.7352 -0.87597,-4.85266c0.43994,-1.2144 0.34638,-0.20829 1.81421,-0.02041c0.93695,0.11992 3.61898,-3.7337 4.56643,-3.39046c0.90264,0.327 -0.00815,2.29416 0.61065,4.53301c0.09841,0.35608 3.22114,-5.3346 3.40845,-2.77813c0.10391,1.41828 2.45201,5.63348 2.18982,9.64959c-0.2622,4.01611 -2.9013,-3.10914 -4.27654,-2.67562c-1.37525,0.43352 0.95989,2.74713 0.60173,3.73578c0,0 -0.93345,-2.0138 -3.15388,-2.32977z" fill="#494c5e" stroke="none" stroke-width="0" stroke-linecap="butt"/><path d="M289.77673,58.56041c0.10708,1.09224 -1.77058,2.14684 -5.74937,2.53697c-3.97879,0.39013 -5.42274,0.4978 -5.52984,-0.59443c-0.1071,-1.09222 2.23084,-2.58395 6.20963,-2.97407c3.97879,-0.39013 4.96246,-0.06069 5.06957,1.03153z" fill="#494c5e" stroke="none" stroke-width="0" stroke-linecap="butt"/></g><path d="M274.07574,85.58135c-5.34236,-1.2887 -12.33859,-2.19072 -11.70285,-5.12521c0.63575,-2.93449 12.58476,-1.67827 17.92711,-0.38956c5.34236,1.28871 7.42728,3.85632 6.79152,6.79081c-0.63575,2.93449 -7.67343,0.01266 -13.01579,-1.27605z" data-paper-data="{&quot;index&quot;:null}" fill="#424956" stroke="#14161a" stroke-width="4" stroke-linecap="butt"/><path d="M225.93829,62.36349c1.39125,-2.66079 4.63692,-3.29729 9.56509,-0.86527c4.92817,2.43201 14.90927,9.12039 13.51802,11.78118c-1.39125,2.66079 -7.3419,-1.12748 -12.27009,-3.55947c-4.92817,-2.43201 -12.20428,-4.69563 -10.81303,-7.35642z" data-paper-data="{&quot;index&quot;:null}" fill="#424956" stroke="#14161a" stroke-width="4" stroke-linecap="butt"/><g data-paper-data="{&quot;index&quot;:null}" stroke-linecap="butt"><g><g><g><path d="M149.85919,126.94938c8.24564,0.66799 10.36073,2.02508 12.72321,1.89544c10.01888,-0.54971 35.3888,0.43725 35.3888,0.43725c0,0 5.004,10.30946 4.05177,13.14937c-1.33827,3.99114 -6.78275,4.54097 -6.78275,4.54097c0,0 -9.32836,1.84526 -33.31204,0.00375c-0.77706,-0.05965 -7.29208,-0.0677 -8.40168,-0.82983c-6.23989,-4.28596 -10.2288,-19.72852 -3.66729,-19.19697z" fill="#d9bb9a" stroke="#917c67" stroke-width="4"/><path d="M150.40317,129.18637c0.98874,0.2295 9.40478,14.78752 9.41552,14.91436c0.06452,0.76143 -2.94616,0.39206 -5.68794,0.62438c-2.74177,0.23232 -5.48148,0.87532 -5.54599,0.11391c-0.06452,-0.76144 -7.42549,-16.14064 -4.68372,-16.37296c2.28507,-0.19363 3.89085,0.11421 6.50212,0.72031z" fill="#d9bb9a" stroke="none" stroke-width="0"/><path d="M194.30491,144.90796c-4.01402,-0.20613 -12.35102,-2.95017 -17.62486,-4.31632c-2.38756,-0.61849 -12.73486,0.50245 -20.5494,1.10933c-0.6802,0.05284 -8.18872,1.29711 -8.50376,1.14389c-0.34675,-0.16864 -10.99615,-13.90727 -1.65154,-12.42502c5.4906,0.87091 11.91959,1.70615 16.87851,1.80901c7.36108,0.15269 9.24562,-0.65578 19.68013,-0.11998c10.43452,0.53581 18.88145,1.67794 18.72761,4.14396c-0.15384,2.46602 3.47783,9.19095 -6.95668,8.65513z" fill="#ffdbb5" stroke="none" stroke-width="0"/></g><path d="M146.67241,125.56726c0,0 34.79566,-1.3232 44.54411,-1.74421c9.52816,-0.41149 24.99423,1.74447 24.99423,1.74447l-4.96488,24.04608c0,0 -20.46894,0.27485 -28.11599,-0.05378c-7.68662,-0.33031 -27.65279,-2.04063 -27.65279,-2.04063c0,0 -4.05782,-6.92248 -5.47859,-10.08553c-1.63133,-3.63182 -3.32607,-11.86643 -3.32607,-11.86643z" fill="#403328" stroke="#292018" stroke-width="4"/></g><g><path d="M107.80543,129.53076c7.37237,-0.6247 13.65864,2.52496 14.04078,7.03495c0.38215,4.50998 -5.28453,8.67246 -12.6569,9.29717c-0.95854,0.08122 -4.06468,-1.07294 -6.52928,-1.85013c-1.66777,-0.5259 -3.46186,0.09723 -4.77705,-0.4748c-1.90929,-0.83043 -1.21047,-1.19588 -1.92413,-1.71933c-1.81879,-1.33407 -0.0163,-1.78336 -1.25554,-3.1191c-1.25163,-1.34911 -1.29083,-1.12696 -1.41648,-2.60972c-0.38216,-4.50999 7.14621,-5.93438 14.51858,-6.55908z" fill="#917c67" stroke="none" stroke-width="NaN"/><g><path d="M110.66577,122.63669c3.10377,-1.32159 13.35948,2.44365 21.08775,3.06973c8.24564,0.66799 8.13418,1.53724 10.49664,1.40762c3.98117,0.31794 9.28055,20.27316 6.40351,20.55971c-5.14686,-0.39517 -21.68438,1.80346 -32.19344,1.79891c-13.17016,-0.0057 -7.06236,-4.77735 -7.18018,-6.40175c-0.11478,-1.58257 12.5885,-0.6602 12.55208,-3.22626c-0.03897,-2.74558 -0.78504,-4.45666 -5.13286,-6.02783c-4.78044,-1.72751 -23.35307,1.11914 -24.42715,-0.87811c-2.04159,-3.79628 9.01561,-6.30884 18.39365,-10.30201z" fill="#d9bb9a" stroke="#917c67" stroke-width="4"/><path d="M145.06854,142.81241c-0.34675,-0.16864 -0.82186,1.24607 -11.05463,1.36448c-2.52111,0.02919 -4.31359,0.69201 -6.14981,0.2747c-3.61763,-0.82213 -0.30513,-6.92735 -0.87375,-8.43379c-1.41073,-3.73752 -5.35642,-4.79633 -7.84657,-5.31237c-5.29936,-1.09821 -13.87379,0.47581 -18.35024,0.6105c-5.49029,0.16523 5.45098,-4.61909 12.01209,-5.88776c2.44709,-0.47318 7.08802,2.38091 11.95322,3.23471c4.86518,0.8538 6.77915,0.49263 16.12377,1.97486c5.4906,0.87091 6.5119,13.30592 4.18592,12.17466z" fill="#ffdbb5" stroke="none" stroke-width="0"/></g><path d="M123.68185,122.33562l20.8536,3.14567l7.14985,22.09217l-22.82095,3.01702c0,0 1.27259,-7.84043 -1.23673,-15.06531c-2.35849,-6.79058 -3.94575,-13.18956 -3.94575,-13.18956z" fill="#403328" stroke="#292018" stroke-width="4"/><path d="M140.74364,127.72052l8.70173,-0.02524l7.64027,18.04508l-9.63603,-0.07361z" fill="#403328" stroke="none" stroke-width="0"/></g></g><path d="M216.179,152.13898c0,0 -0.92746,-0.53848 -4.16538,-0.8646c-3.23793,-0.32613 -4.93062,-4.86154 -4.76902,-5.70698c0.48834,-2.55479 6.22769,-17.86234 6.22769,-17.86234c0,0 2.0534,-0.08569 3.05177,0.3217c1.05737,0.43147 3.79789,2.56934 3.79789,2.56934z" fill="#403328" stroke="none" stroke-width="NaN"/></g><path d="M307.93788,193.81009l-7.19893,-6.40577l17.76696,-8.26643l6.43943,5.8527z" fill="#403328" stroke="none" stroke-width="0" stroke-linecap="butt"/></g></g></svg>