<svg xmlns="http://www.w3.org/2000/svg" xmlns:xlink="http://www.w3.org/1999/xlink" version="1.1" preserveAspectRatio="none" x="0px" y="0px" width="480px" height="360px" viewBox="0 0 480 360">
<defs>
<g id="Explosion_A_1_Layer0_0_FILL">
<path fill="#F1EAD2" stroke="none" d=" M 139.35 79.65 Q 96.85 102.15 78.55 111.8 88.55 121.35 97.45 130.55 117.7 104.85 139.35 79.65 Z" stroke-width="1"/>
</g>

<g id="Explosion_A_1_Layer0_1_FILL">
<path fill="#F1B300" stroke="none" d=" M 74.1 99 Q 57.45 110 41.95 129.75 35.940625 137.380859375 27.3 150.4 23.9330078125 157.0341796875 20.3 164.6 27.55 161.15 32.25 159.45 40.2 156.5 47.1 155.9 55.05 155.1 62.3 157.65 70.1 160.4 74.6 166.3 78.45 171.2 80 178.85 80.549609375 181.5693359375 80.95 185.85 85.7876953125 171.939453125 88.5 162.6 96.4 135.55 98 113.1 99.05 99.85 92.75 95.75 85.8 91.25 74.1 99 Z" stroke-width="1"/>

<path fill="#F1EAD2" stroke="none" d=" M 109.3 91.95 Q 107.5 84.8 102.2 82.05 95.15 78.5 83.7 84.15 62.6 94.8 45.5 119.1 37.5091796875 130.5046875 27.3 150.4 35.940625 137.380859375 41.95 129.75 57.45 110 74.1 99 85.8 91.25 92.75 95.75 99.05 99.85 98 113.1 96.4 135.55 88.5 162.6 85.7876953125 171.939453125 80.95 185.85 81.2392578125 188.9595703125 81.45 192.9 93.65 166 99.25 150.1 107.75 126 109.95 105.4 110.75 97.6 109.3 91.95 Z" stroke-width="1"/>
</g>

<g id="Explosion_A_1_Layer0_2_FILL">
<path fill="#F1EAD2" stroke="none" d=" M 8.75 107.8 Q 25.25 109.2 41.7 107.25 L 25.75 30.5 Q 15.85 71.05 8.75 107.8 Z" stroke-width="1"/>
</g>

<g id="Explosion_A_1_Layer0_3_FILL">
<path fill="#F1EAD2" stroke="none" d=" M 110.25 178.35 Q 110.8 184.05 110.8 192.9 134.3 188.3 158.05 185.3 128.8 180.7 110.25 178.35 Z" stroke-width="1"/>
</g>

<g id="Explosion_A_1_Layer0_4_FILL">
<path fill="#F1EAD2" stroke="none" d=" M -110.9 189.15 Q -129.7 192.25 -145.85 196.55 -128.5 197 -109.7 198.7 -96.1 200 -74.9 202.75 L -75.2 184.5 Q -95.35 186.6 -110.9 189.15 Z" stroke-width="1"/>
</g>

<g id="Explosion_A_1_Layer0_5_FILL">
<path fill="#F1EAD2" stroke="none" d=" M -61.6 158.6 Q -52.175390625 140.748046875 -48.25 133.4 -80.2447265625 115.6640625 -113.25 101 -89.75 132.7 -61.6 158.6 Z" stroke-width="1"/>
</g>

<g id="Explosion_A_1_Layer0_6_FILL">
<path fill="#F1B300" stroke="none" d=" M -46.1 96.35 Q -54.9 85.9 -63.5 85.6 -70.85 85.55 -76.65 92.05 -81.75 97.8 -83.85 106.1 -86.5 116.35 -85.65 129.05 -85 138.55 -82.1 152.1 -80.04765625 161.6080078125 -77.6 170.95 -77.0173828125 171.9392578125 -76.45 172.95 -72.7 179.55 -64.5 192.9 -67.5 183.55 -68.85 177.05 -70.65 168.25 -70.25 160.65 -69.85 152.45 -66.15 145.55 -62.35 138.45 -56.45 135.15 -46.8 129.65 -35.7 134.7 -29.37734375 137.5740234375 -23.75 143.2 -27.4775390625 131.039453125 -30.45 123.75 -37.1 107.3 -46.1 96.35 Z" stroke-width="1"/>

<path fill="#F1EAD2" stroke="none" d=" M -63.5 85.6 Q -54.9 85.9 -46.1 96.35 -37.1 107.3 -30.45 123.75 -27.4775390625 131.039453125 -23.75 143.2 -22.4984375 144.440625 -21.3 145.8 -27.7 117.4 -42.85 94.25 -52.85 78.8 -62.75 75.25 -68.1 73.35 -73.6 74.15 -79.5 75.05 -83.9 78.9 -88.3 82.95 -91.1 89.85 -93.5 96.05 -94.45 103.7 -95.75 115.3 -93.5 128.2 -91.45 139.75 -86.8 151.65 -83.2001953125 160.672265625 -77.6 170.95 -80.04765625 161.6080078125 -82.1 152.1 -85 138.55 -85.65 129.05 -86.5 116.35 -83.85 106.1 -81.75 97.8 -76.65 92.05 -70.85 85.55 -63.5 85.6 Z" stroke-width="1"/>
</g>

<g id="Explosion_A_1_Layer0_7_FILL">
<path fill="#F1B300" stroke="none" d=" M 16.15 142.25 Q 16.5646484375 139.737890625 16.85 137.25 18.65 121.75 15 108.25 12.8 99.8 8.3 93.85 3.05 86.9 -4 85.25 -12.15 83.4 -20.75 88.75 -27.85 93.1 -34.1 101.5 -42.05 112.05 -47.35 124.35 -48.570703125 127.1869140625 -49.65 130.05 -50.1421875 133.3591796875 -50.7 137.25 -47.15 131.6 -42.05 127.55 -36.75 123.35 -30.55 121.6 -24.1 119.65 -17.65 120.45 -10.8 121.25 -5.7 125 6.55 133.95 12.15 152.85 14.4759765625 147.6435546875 16.15 142.25 Z" stroke-width="1"/>

<path fill="#F1EAD2" stroke="none" d=" M 17.55 94.5 Q 13.95 82.75 5.9 77.55 -1.65 72.75 -11.95 74.25 -21.25 75.65 -29.15 82.7 -36.2 88.95 -41.05 98.6 -44.95 106.5 -47.35 117.4 -48.3494140625 121.8619140625 -49.65 130.05 -48.570703125 127.1869140625 -47.35 124.35 -42.05 112.05 -34.1 101.5 -27.85 93.1 -20.75 88.75 -12.15 83.4 -4 85.25 3.05 86.9 8.3 93.85 12.8 99.8 15 108.25 18.65 121.75 16.85 137.25 16.5646484375 139.737890625 16.15 142.25 19.1330078125 132.5568359375 20 122.25 21.3 106.9 17.55 94.5 Z" stroke-width="1"/>
</g>

<g id="Explosion_A_1_Layer0_8_FILL">
<path fill="#F1B300" stroke="none" d=" M 19.75 95.6 Q 17.1 92.55 14.85 90.95 11.85 88.8 8.85 88.75 4.7 88.65 1.25 92.15 -1.65 95.05 -3.5 99.75 -7.1 109.25 -6.75 124.95 -6.65 129.25 -6.3 137.9 -6.2884765625 138.256640625 -6.3 138.6 -5.499609375 141.7658203125 -4.5 145.5 -1.45 156.85 -0.5 161.25 -0.75 155.8 2.75 151.2 6.25 146.6 11.6 145.35 15.35 144.55 19.6 145.6 23.4 146.55 27 148.85 30.1 150.8 33.3 153.9 35.35 155.85 38.85 159.75 39.75 151.3 38.5 140.25 37.35 129.85 34.7 120.25 33.9533203125 117.5470703125 33.15 115.05 26.7146484375 103.7919921875 19.75 95.6 Z" stroke-width="1"/>

<path fill="#F1EAD2" stroke="none" d=" M 14.85 90.95 Q 17.1 92.55 19.75 95.6 26.7146484375 103.7919921875 33.15 115.05 31.3337890625 109.2587890625 29.3 104.7 25.65 96.5 20.75 90.75 15.1 83.9 9.25 83.25 3.65 82.6 -1.1 87.3 -5.25 91.3 -7.35 97.6 -11.55 110.8 -8.25 129.75 -7.56484375 133.393359375 -6.3 138.6 -6.2884765625 138.256640625 -6.3 137.9 -6.65 129.25 -6.75 124.95 -7.1 109.25 -3.5 99.75 -1.65 95.05 1.25 92.15 4.7 88.65 8.85 88.75 11.85 88.8 14.85 90.95 Z" stroke-width="1"/>
</g>

<g id="Explosion_A_1_Layer0_9_FILL">
<path fill="#F1EAD2" stroke="none" d=" M 128.35 114.75 Q 134 120.7 130.5 133.5 126.25 149.65 115.65 167.1 111.499609375 173.8890625 105.35 182.35 116.48046875 172.6427734375 124.15 161.65 135.25 145.7 138.4 128 139.9 119.45 139 114.15 137.9 107.75 133.2 104.25 129.25 101.45 123.5 101 118.5 100.65 112.95 102.1 100.55 105.4 88.1 115.55 82.3125 120.2232421875 74.15 128.65 79.0298828125 125.466796875 82.75 123.3 97.15 114.95 110.1 111.85 122.85 109.1 128.35 114.75 Z" stroke-width="1"/>

<path fill="#F1B300" stroke="none" d=" M 67.45 135.85 Q 73.25 132.75 76.05 131.55 80.95 129.4 85.1 128.75 90.05 127.85 94.65 128.95 99.6 130.1 102.85 133.35 106.7 137.2 107.7 143.7 108.5 148.75 107.6 155.75 105.05 173.8 96.7 189.35 101.2693359375 185.93984375 105.35 182.35 111.499609375 173.8890625 115.65 167.1 126.25 149.65 130.5 133.5 134 120.7 128.35 114.75 122.85 109.1 110.1 111.85 97.15 114.95 82.75 123.3 79.0298828125 125.466796875 74.15 128.65 70.9912109375 131.971484375 67.45 135.85 Z" stroke-width="1"/>
</g>

<g id="Explosion_A_1_Layer0_10_FILL">
<path fill="#F1B300" stroke="none" d=" M 34.85 91.05 Q 29.05 89.45 22.7 92.05 16.8 94.45 11.9 99.8 4.3 108.15 -1.5 119.6 -4.95 126.35 -11.05 141.75 -11.85 145.85 -12.5 150.15 -6.45 138.75 3.25 133.55 13 128.35 22.75 131.3 32.4 134.05 40 144.35 47.5 154.5 50.15 168.4 52.4 161.3 53.9 155.1 54.15 149.25 54.15 144.75 54.05 123.35 48.85 107.05 47.15 101.45 43.65 97.2 39.75 92.4 34.85 91.05 Z" stroke-width="1"/>

<path fill="#F1EAD2" stroke="none" d=" M 22.7 92.05 Q 29.05 89.45 34.85 91.05 39.75 92.4 43.65 97.2 47.15 101.45 48.85 107.05 54.05 123.35 54.15 144.75 54.15 149.25 53.9 155.1 55.6 148.1 56.3 142.3 57.85 129.2 55.7 114.4 54.15 103.5 50.55 95.8 47.05 88.25 41.95 84.3 34.75 78.8 25.95 81.3 18.1 83.55 10.75 91.6 1.7 101.55 -4.4 117.7 -8.55 128.65 -11.05 141.75 -4.95 126.35 -1.5 119.6 4.3 108.15 11.9 99.8 16.8 94.45 22.7 92.05 Z" stroke-width="1"/>
</g>

<g id="Explosion_A_1_Layer0_11_FILL">
<path fill="#DD5C00" stroke="none" d=" M 19.95 146.3 Q 18 140.05 14.8 135.6 11.05 130.35 5.95 128.2 1.25 126.1 -4.4 126.85 -9.7 127.5 -14.5 130.45 -22.5 135.45 -28.75 146.3 -36.65 159.85 -39.3 175.55 -39.5 176.65 -39.6 177.7 -39.05 187.35 -36.65 198.45 -35.65 187.65 -26.2 180.5 -16.75 173.35 -6.05 175.2 4.9 177.1 11.3 185.65 17.9 194.45 15.35 204.75 17.2 201.95 18 200.6 22.55 185.25 23.3 173.4 24.2 159.15 19.95 146.3 Z" stroke-width="1"/>

<path fill="#E59E52" stroke="none" d=" M 14.8 135.6 Q 18 140.05 19.95 146.3 24.2 159.15 23.3 173.4 22.55 185.25 18 200.6 21.75 194 23.65 188.9 25.8 182.95 26.7 176 29.1 157.95 24.45 141.8 21.5 131.5 16.05 124.75 9.55 116.85 0.85 115.8 -5.3 115.1 -11.75 117.9 -17.5 120.35 -22.55 125.2 -29.35 131.75 -33.6 141 -37.65 149.65 -39 159.7 -40.25 168 -39.6 177.7 -39.5 176.65 -39.3 175.55 -36.65 159.85 -28.75 146.3 -22.5 135.45 -14.5 130.45 -9.7 127.5 -4.4 126.85 1.25 126.1 5.95 128.2 11.05 130.35 14.8 135.6 Z" stroke-width="1"/>
</g>

<g id="Explosion_A_1_Layer0_12_FILL">
<path fill="#DD5C00" stroke="none" d=" M -19.5 143.85 Q -24.7 137.9 -31.45 134.75 -38.75 131.35 -45.85 132.25 -51.3 133 -56.35 136.25 -61.1 139.35 -64.6 144.1 -70.75 152.5 -72.85 165.1 -75 176.9 -73.65 189.05 -73.0841796875 193.93984375 -72 198.65 -70.2109375 202.2236328125 -68.1 205.9 -70.45 194.55 -65.5 183.3 -60.5 172.05 -50.5 166.25 -40.45 160.35 -28.2 161.6 -16 162.8 -7.35 170.5 -7.855859375 166.21640625 -8.8 162 -10.2119140625 158.700390625 -11.4 156.3 -15.15 148.9 -19.5 143.85 Z" stroke-width="1"/>

<path fill="#E59E52" stroke="none" d=" M -31.45 134.75 Q -24.7 137.9 -19.5 143.85 -15.15 148.9 -11.4 156.3 -10.2119140625 158.700390625 -8.8 162 -10.6208984375 153.7693359375 -14.1 145.85 -16.35 140.7 -18.45 137.4 -21.4 132.75 -25.05 129.8 -31 125.05 -38.5 123.9 -45.85 122.85 -53.1 124.85 -60.4 126.85 -66.1 131.5 -73.65 137.65 -77.5 147.75 -81.15 157.2 -80.75 167.75 -80.0521484375 182.2015625 -72 198.65 -73.0841796875 193.93984375 -73.65 189.05 -75 176.9 -72.85 165.1 -70.75 152.5 -64.6 144.1 -61.1 139.35 -56.35 136.25 -51.3 133 -45.85 132.25 -38.75 131.35 -31.45 134.75 Z" stroke-width="1"/>
</g>

<g id="Explosion_A_1_Layer0_13_FILL">
<path fill="#DD5C00" stroke="none" d=" M 74.15 117.75 Q 65.3 119.9 56.25 126.5 43.80625 135.5990234375 33.4 147.95 29.126171875 156.089453125 23.9 168.15 31.9 158.65 43.75 157.1 55.25 155.65 64.75 162.3 73.7 168.6 79.3 180.65 84.55 192.05 85.65 205.9 93.55 195.05 97.15 189.5 97.938671875 188.2615234375 98.65 187.05 99.45 184.638671875 100.05 182.5 106.25 160.3 103.75 142.1 101.6 126.1 92.35 120.1 84.85 115.2 74.15 117.75 Z" stroke-width="1"/>

<path fill="#E59E52" stroke="none" d=" M 56.25 126.5 Q 65.3 119.9 74.15 117.75 84.85 115.2 92.35 120.1 101.6 126.1 103.75 142.1 106.25 160.3 100.05 182.5 99.45 184.638671875 98.65 187.05 103.65625 178.8853515625 106.7 171.45 114.35 153 111.9 134.1 110.2 120.8 102.1 113.25 94.7 106.35 84.05 105.95 74.45 105.65 64.5 111.4 55.35 116.75 47.45 126.25 40.7 134.35 34.4 146.05 33.9041015625 146.9669921875 33.4 147.95 43.80625 135.5990234375 56.25 126.5 Z" stroke-width="1"/>
</g>

<g id="Explosion_A_1_Layer0_14_FILL">
<path fill="#E59E52" stroke="none" d=" M 114.45 163.95 Q 118.003125 163.35 121.1 163.35 126.25 163.35 130.7 165.05 135.5 166.85 138.5 170.35 141.7 174.25 142.6 180 143.35 185 142.35 190.75 141.6 194.75 139.45 201.05 138.795703125 202.9525390625 138.25 204.5 141.6119140625 200.095703125 143.95 194.9 147.6 186.9 148.25 178.25 149.2 169.1 145.1 164.25 141.8 160.1 135.55 159.25 130.25 158.55 124 160.25 119.03515625 161.6685546875 114.45 163.95 Z" stroke-width="1"/>

<path fill="#DD5C00" stroke="none" d=" M 121.1 163.35 Q 118.003125 163.35 114.45 163.95 109.6921875 166.3783203125 105.35 169.75 99.384765625 174.416796875 95 180.3 101.825 177.9775390625 109.55 178.75 120.05 179.8 127.75 186.1 133.45 190.75 135.5 196.5 136.55 199.75 136.35 203 136.1 206.5 134.35 209.1 136.4533203125 206.9265625 138.25 204.5 138.795703125 202.9525390625 139.45 201.05 141.6 194.75 142.35 190.75 143.35 185 142.6 180 141.7 174.25 138.5 170.35 135.5 166.85 130.7 165.05 126.25 163.35 121.1 163.35 Z" stroke-width="1"/>
</g>

<g id="Explosion_A_1_Layer0_15_FILL">
<path fill="#DD5C00" stroke="none" d=" M 39.55 137.4 Q 33.7 138.25 28.85 141.65 23.4 145.55 14.35 153.6 9.85 157.65 6.45 160.9 3.95 165.9 1.6 172.25 L 1.65 172.25 Q 10.45 170.55 19.6 170.6 34.65 170.7 48.8 175.25 60.3 179.15 64.55 185.4 64.9 175.9 64.1 168.4 63.15 159.4 60.45 152 56.9 142.25 50.8 139 45.85 136.5 39.55 137.4 Z" stroke-width="1"/>

<path fill="#E59E52" stroke="none" d=" M 63.95 141.1 Q 58.45 131 49.8 128.6 44.7 127.2 38.8 128.9 33.75 130.3 28.55 133.85 17.25 141.6 9.25 155.6 7.8 158.1 6.45 160.9 9.85 157.65 14.35 153.6 23.4 145.55 28.85 141.65 33.7 138.25 39.55 137.4 45.85 136.5 50.8 139 56.9 142.25 60.45 152 63.15 159.4 64.1 168.4 64.9 175.9 64.55 185.4 66.2 187.95 66.8 190.5 69.4 174.05 69.35 165.1 69.3 150.95 63.95 141.1 Z" stroke-width="1"/>
</g>

<g id="Explosion_A_1_Layer0_16_FILL">
<path fill="#DD5C00" stroke="none" d=" M 78.4 142.75 Q 74.4 144 70.25 147.1 59 155.75 51.65 171.4 48.259765625 178.6080078125 45.4 188.15 45.0259765625 192.2125 44.9 196.45 57.14375 187.3375 70.95 187.55 84.0470703125 187.7580078125 96.95 198.75 99.2990234375 187.2015625 99.85 180 100.95 165.8 97.25 155 93.95 145.1 87.25 142.6 83.25 141.2 78.4 142.75 Z" stroke-width="1"/>

<path fill="#E59E52" stroke="none" d=" M 70.25 147.1 Q 74.4 144 78.4 142.75 83.25 141.2 87.25 142.6 93.95 145.1 97.25 155 100.95 165.8 99.85 180 99.2990234375 187.2015625 96.95 198.75 97.741796875 199.416796875 98.5 200.1 103.9 181.4 102.35 161.35 101.75 151.6 98.75 145.25 96.85 141.25 94 138.4 90.85 135.25 87.1 134 82.75 132.55 77.9 133.45 73.35 134.3 69.25 137 62.9 141.15 57 150.85 51.25 160.75 48.3 171.8 46.2455078125 179.4359375 45.4 188.15 48.259765625 178.6080078125 51.65 171.4 59 155.75 70.25 147.1 Z" stroke-width="1"/>
</g>

<g id="Explosion_A_1_Layer0_17_FILL">
<path fill="#A22700" stroke="none" d=" M 7.45 187.25 Q 5.3 177.8 3.5 172 1 163.8 -2.3 157.35 -4.8 152.3 -8.15 149.2 -12.2 145.45 -16.7 145.45 -21.2 145.55 -25 149.3 -28.15 152.4 -30.45 157.45 -34.45 166.55 -35 176.7 -35.25 182.05 -34.6 188.35 -33.85 195.15 -32.3 199.9 -20.4703125 201.7181640625 -11 201.2 -1.5296875 200.7318359375 8.65 200.1 9.1 195.35 7.45 187.25 Z" stroke-width="1"/>
</g>

<g id="Explosion_A_1_Layer0_18_FILL">
<path fill="#A22700" stroke="none" d=" M -63.65 183.45 Q -65.2 189.6 -65.15 197.5 -65.15 202 -64.3 211.8 -24.7748046875 212.025 0 204.65 -5.55 179.05 -19.7 167.85 -25.65 163.2 -32.65 161.55 -40.15 159.85 -46.6 162.15 -53 164.45 -57.65 170.6 -61.85 176.2 -63.65 183.45 Z" stroke-width="1"/>
</g>

<g id="Explosion_A_1_Layer0_19_FILL">
<path fill="#A22700" stroke="none" d=" M 32.9 171.2 Q 25.6 167.25 16.75 168.8 8.15 170.3 1.9 176.2 -4 181.8 -6.65 190.3 -7.5 193 -8 197.95 -8.45 202.3 -8.4 205.7 1.975 208.30625 22.1 208.1 42.225 207.94375 51.45 206.45 49.55 197.35 49.35 196.45 48 190.85 46.15 186.7 44 181.7 40.75 177.8 37.2 173.55 32.9 171.2 Z" stroke-width="1"/>
</g>

<g id="Explosion_A_1_Layer0_20_FILL">
<path fill="#A22700" stroke="none" d=" M 36.15 162.55 Q 30.4 167.1 26.2 173.85 22.6 179.75 19.95 187.55 17.8 193.85 15.35 204.25 22.5837890625 206.07734375 42.95 208.05 63.3662109375 210.02265625 78.25 206.55 78.55 193.65 78.15 187.3 77.45 175.65 74.6 168.6 71.85 161.8 64.4 158.3 57.2 154.95 49.6 156.35 42.5 157.6 36.15 162.55 Z" stroke-width="1"/>
</g>

<g id="Explosion_A_1_Layer0_21_FILL">
<path fill="#A22700" stroke="none" d=" M 112.1 195.1 Q 113.55 187.55 112.6 180.05 111.95 175.05 110.1 171.45 107.8 167.1 104 165.45 101.05 164.2 97.35 164.65 94.1 165.05 90.75 166.7 80.4 171.5 73.05 182.6 66.8 192.1 62.65 206.85 81.8046875 211.04609375 107 209.2 110.65 202.65 112.1 195.1 Z" stroke-width="1"/>
</g>

<g id="Explosion_A_1_Layer0_22_FILL">
<path fill="#A22700" stroke="none" d=" M 115.75 178.6 Q 106.95 184.05 99.7 191.65 92.4 199.25 87.3 208.5 109.566796875 211.516796875 131.8 210.6 137.60859375 201.48203125 140.05 196.4 143.65 188.85 144.25 182.1 144.75 175.7 141.5 173.1 138.8 170.9 133.75 171.6 125.35 172.75 115.75 178.6 Z" stroke-width="1"/>
</g>
</defs>

<g>
<g>
<use xlink:href="#Explosion_A_1_Layer0_0_FILL" stroke-width="1" transform="matrix(1.152620350010693,0,0,1.152620350010693,219.14337768554688,56.202770996093754)"/>
</g>

<g>
<use xlink:href="#Explosion_A_1_Layer0_1_FILL" stroke-width="1" transform="matrix(1.152620350010693,0,0,1.152620350010693,209.4954833984375,51.378823852539064)"/>
</g>

<g>
<use xlink:href="#Explosion_A_1_Layer0_2_FILL" stroke-width="1" transform="matrix(0.9639985663816333,0,0,1.152620350010693,223.90626220703126,60.04971618652344)"/>
</g>

<g>
<use xlink:href="#Explosion_A_1_Layer0_3_FILL" stroke-width="1" transform="matrix(1.152620350010693,0,0,1.152620350010693,233.06565551757814,68.171044921875)"/>
</g>

<g>
<use xlink:href="#Explosion_A_1_Layer0_4_FILL" stroke-width="1" transform="matrix(1.152620350010693,0,0,1.152620350010693,244.5454284667969,57.72933654785157)"/>
</g>

<g>
<use xlink:href="#Explosion_A_1_Layer0_5_FILL" stroke-width="1" transform="matrix(1.152620350010693,0,0,1.152620350010693,219.14337768554688,50.52394714355469)"/>
</g>

<g>
<use xlink:href="#Explosion_A_1_Layer0_6_FILL" stroke-width="1" transform="matrix(1.152620350010693,0,0,1.152620350010693,238.50022888183594,59.19483947753906)"/>
</g>

<g>
<use xlink:href="#Explosion_A_1_Layer0_7_FILL" stroke-width="1" transform="matrix(1.152620350010693,0,0,1.152620350010693,217.00618591308594,81.72694702148438)"/>
</g>

<g>
<use xlink:href="#Explosion_A_1_Layer0_8_FILL" stroke-width="1" transform="matrix(1.152620350010693,0,0,1.152620350010693,215.66280822753907,59.56121520996094)"/>
</g>

<g>
<use xlink:href="#Explosion_A_1_Layer0_9_FILL" stroke-width="1" transform="matrix(1.152620350010693,0,0,1.152620350010693,207.052978515625,61.51521911621094)"/>
</g>

<g>
<use xlink:href="#Explosion_A_1_Layer0_10_FILL" stroke-width="1" transform="matrix(1.152620350010693,0,0,1.152620350010693,218.83806457519532,63.53028564453125)"/>
</g>

<g>
<use xlink:href="#Explosion_A_1_Layer0_11_FILL" stroke-width="1" transform="matrix(1.152620350010693,0,0,1.152620350010693,212.06011352539065,60.29396667480469)"/>
</g>

<g>
<use xlink:href="#Explosion_A_1_Layer0_12_FILL" stroke-width="1" transform="matrix(0.9445251654833555,-0.32439517974853516,0.3584969248622656,1.0438301926478744,140.9832214355469,68.04891967773438)"/>
</g>

<g>
<use xlink:href="#Explosion_A_1_Layer0_13_FILL" stroke-width="1" transform="matrix(0.8922358229756355,0.1606881683692336,-0.17731043975800276,0.984478248283267,293.63977661132816,82.03226013183594)"/>
</g>

<g>
<use xlink:href="#Explosion_A_1_Layer0_14_FILL" stroke-width="1" transform="matrix(1.1376379439607263,-0.18513706978410482,-0.3955616084858775,1.232135184109211,276.1758666992188,66.33916625976562)"/>
</g>

<g>
<use xlink:href="#Explosion_A_1_Layer0_15_FILL" stroke-width="1" transform="matrix(1.152620350010693,0,0,1.152620350010693,219.14337768554688,60.04971618652344)"/>
</g>

<g>
<use xlink:href="#Explosion_A_1_Layer0_16_FILL" stroke-width="1" transform="matrix(1.152620350010693,0,0,1.152620350010693,216.33449707031252,60.04971618652344)"/>
</g>

<g>
<use xlink:href="#Explosion_A_1_Layer0_17_FILL" stroke-width="1" transform="matrix(1.152620350010693,0,0,1.152620350010693,219.14337768554688,63.95772399902344)"/>
</g>

<g>
<use xlink:href="#Explosion_A_1_Layer0_18_FILL" stroke-width="1" transform="matrix(1.152620350010693,0,0,1.152620350010693,219.14337768554688,60.04971618652344)"/>
</g>

<g>
<use xlink:href="#Explosion_A_1_Layer0_19_FILL" stroke-width="1" transform="matrix(1.3106623720377684,0,0,1.3106623720377684,215.84599609375002,27.503338623046876)"/>
</g>

<g>
<use xlink:href="#Explosion_A_1_Layer0_20_FILL" stroke-width="1" transform="matrix(1.152620350010693,0,0,1.152620350010693,219.14337768554688,60.04971618652344)"/>
</g>

<g>
<use xlink:href="#Explosion_A_1_Layer0_21_FILL" stroke-width="1" transform="matrix(1.152620350010693,0,0,1.152620350010693,205.89278869628907,60.04971618652344)"/>
</g>

<g>
<use xlink:href="#Explosion_A_1_Layer0_22_FILL" stroke-width="1" transform="matrix(1.152620350010693,0,0,1.152620350010693,196.48914489746096,60.04971618652344)"/>
</g>
</g>
</svg>