<svg version="1.1" xmlns="http://www.w3.org/2000/svg" xmlns:xlink="http://www.w3.org/1999/xlink" width="74.63553" height="285.66446" viewBox="0,0,74.63553,285.66446"><defs><linearGradient x1="277.31776" y1="181.52786" x2="202.68295" y2="181.52786" gradientUnits="userSpaceOnUse" id="color-1"><stop offset="0" stop-color="#23ff8a"/><stop offset="1" stop-color="#23ff8a" stop-opacity="0"/></linearGradient><linearGradient x1="202.68224" y1="181.52786" x2="277.31705" y2="181.52786" gradientUnits="userSpaceOnUse" id="color-2"><stop offset="0" stop-color="#23ff8a"/><stop offset="1" stop-color="#23ff8a" stop-opacity="0"/></linearGradient></defs><g transform="translate(-202.68223,-37.16777)"><g data-paper-data="{&quot;isPaintingLayer&quot;:true}" fill-rule="nonzero" stroke="none" stroke-width="0" stroke-linecap="butt" stroke-linejoin="miter" stroke-miterlimit="10" stroke-dasharray="" stroke-dashoffset="0" style="mix-blend-mode: normal"><path d="M202.68295,308.74452c0,0 18.39591,-97.56635 18.39591,-140.49914c0,-41.85069 -18.3959,-113.93418 -18.3959,-113.93418c0,0 -0.65299,-18.96977 37.31739,-17c31.0263,1.60954 37.31742,17 37.31742,17c0,0 -17.34471,73.05651 -17.34471,115.70517c0,42.15674 17.34471,138.72815 17.34471,138.72815c0,0 -13.0346,12.87555 -39.31741,14c-32.27608,1.38085 -35.3174,-14 -35.3174,-14z" data-paper-data="{&quot;index&quot;:null}" fill="url(#color-1)"/><path d="M277.31704,308.74452c0,0 -3.04132,15.38085 -35.3174,14c-26.28281,-1.12445 -39.31741,-14 -39.31741,-14c0,0 17.34471,-96.57141 17.34471,-138.72815c0,-42.64866 -17.34471,-115.70517 -17.34471,-115.70517c0,0 6.29112,-15.39046 37.31742,-17c37.97038,-1.96977 37.31739,17 37.31739,17c0,0 -18.3959,72.08349 -18.3959,113.93418c0,42.93279 18.39591,140.49914 18.39591,140.49914z" data-paper-data="{&quot;index&quot;:null}" fill="url(#color-2)"/></g></g></svg>