<svg version="1.1" xmlns="http://www.w3.org/2000/svg" xmlns:xlink="http://www.w3.org/1999/xlink" width="604" height="401" viewBox="0,0,604,401"><defs><linearGradient x1="240" y1="-26.25" x2="240" y2="374.75" gradientUnits="userSpaceOnUse" id="color-1"><stop offset="0" stop-color="#00c0eb"/><stop offset="1" stop-color="#ffffff"/></linearGradient><radialGradient cx="393.81936" cy="181.69071" r="80.07989" gradientUnits="userSpaceOnUse" id="color-2"><stop offset="0" stop-color="#6fa5de"/><stop offset="1" stop-color="#5a6fb5"/></radialGradient><linearGradient x1="331.24346" y1="67.97296" x2="411.8999" y2="67.97296" gradientUnits="userSpaceOnUse" id="color-3"><stop offset="0" stop-color="#52779f"/><stop offset="1" stop-color="#5c89b8"/></linearGradient><linearGradient x1="411.43188" y1="67.97296" x2="455.60555" y2="67.97296" gradientUnits="userSpaceOnUse" id="color-4"><stop offset="0" stop-color="#5c89b8"/><stop offset="1" stop-color="#52779f"/></linearGradient></defs><g transform="translate(62,26.25)"><g data-paper-data="{&quot;isPaintingLayer&quot;:true}" fill-rule="nonzero" stroke-linecap="butt" stroke-linejoin="miter" stroke-miterlimit="10" stroke-dasharray="" stroke-dashoffset="0" style="mix-blend-mode: normal"><path d="M-62,374.75v-401h604v401z" data-paper-data="{&quot;origPos&quot;:null}" fill="url(#color-1)" stroke="none" stroke-width="0"/><g stroke-width="1"><path d="M350.11693,261.77061v-160.15978h87.40485v160.15978z" fill="url(#color-2)" stroke="#000000"/><path d="M331.43038,100.22234c0,-23.99523 0,-78.36297 0,-78.36297l80.17134,-4.82234c0,0 0,62.82173 0,82.58251c0,6.58693 1.6967,19.28935 -3.00459,19.28935c0,0 -60.35724,-2.41117 -73.97477,-2.41117c-4.53917,0 -3.19199,-8.27697 -3.19199,-16.27539z" fill="url(#color-3)" stroke="#000000"/><path d="M411.60173,100.22234c0,-23.99523 0,-83.1853 0,-83.1853l44.00382,4.82234c0,0 0,57.9994 0,77.76018c0,6.58693 -0.41481,16.87818 -2.99522,16.87818c0,0 -31.97268,2.41117 -39.44697,2.41117c-2.49143,0 -1.56164,-10.68814 -1.56164,-18.68655z" fill="url(#color-4)" stroke="#000000"/><g data-paper-data="{&quot;index&quot;:null}" stroke="#ffffff"><g data-paper-data="{&quot;origPos&quot;:null}" id="Group"><path d="M366.62068,84.2645c0,0 -0.73556,-26.15869 0.14711,-29.76981c0,0 3.16289,-6.16535 8.16467,-8.54341c0,0 3.53068,5.98919 5.00179,11.27378c0,0 -6.76713,25.89446 -7.79691,27.65598c0,0 -2.28022,1.49729 -3.75134,1.67345c0.07356,0.08808 -1.76533,-0.96884 -1.76533,-2.28999z" id="Shape" fill="#8644b3"/><path d="M374.93248,46.12744l-3.972,14.62068c-2.5009,-1.67346 -4.11913,-6.16535 -4.11913,-6.16535c0,0 3.16289,-6.16535 8.09113,-8.45533z" id="Shape" fill="#ea8be5"/><path d="M374.93248,46.12744l-3.972,14.62068c-2.5009,-1.67346 -4.11913,-6.16535 -4.11913,-6.16535c0,0 3.16289,-6.16535 8.09113,-8.45533z" id="Shape" fill="#ea8be5"/><path d="M379.78716,58.01774c-4.63401,1.67346 -8.90024,2.73036 -8.90024,2.73036l4.04557,-14.62068c0,-0.08808 0.07356,-0.08808 0.07356,-0.08808c0,0 3.53068,5.98919 4.92822,11.27378c0,0 0,0.17615 -0.14711,0.70462z" id="Shape" fill="#ad59c2"/><path d="M370.96047,60.83618l-2.5009,25.89446c0,0 -1.76533,-1.14499 -1.76533,-2.37807c0,0 -0.73556,-26.15869 0.14711,-29.76981z" id="Shape" fill="#ad59c2"/><path d="M370.88691,60.74811c0,0 -0.07356,1.40923 -0.22066,3.52305c-0.07356,1.05692 -0.22066,2.28999 -0.29422,3.61114c-0.14711,1.32115 -0.22066,2.73036 -0.36778,4.05151c-0.14711,1.40923 -0.29422,2.81844 -0.44133,4.05151c-0.14711,1.32115 -0.29422,2.55422 -0.36778,3.52306c-0.29422,2.02576 -0.44133,3.43497 -0.44133,3.43497c0,0 0.07356,-1.40923 0.22066,-3.52306c0.07356,-1.05692 0.22066,-2.28999 0.29422,-3.61114c0.14711,-1.32115 0.22066,-2.73036 0.36778,-4.05151c0.14711,-1.40923 0.29422,-2.81845 0.44133,-4.05151c0.14711,-1.32115 0.29422,-2.55422 0.36778,-3.52305c0.29422,-2.11382 0.44133,-3.43497 0.44133,-3.43497z" id="Shape" fill="#ea8be5"/><path d="M368.68024,83.73604l-0.29422,2.90652c0,0 -1.76533,-1.14499 -1.76533,-2.37807c0,0 1.17689,-0.26423 2.05955,-0.52846z" id="Shape" fill="#a546bd"/><path d="M372.13735,84.96911c0,0 -2.35378,1.49729 -3.75134,1.67346l0.29422,-2.90652c0.44133,-0.08808 0.80912,-0.17615 0.95622,-0.17615c0.58845,-0.08808 2.50089,1.40923 2.50089,1.40923z" id="Shape" fill="#7c36ab"/><path d="M368.45957,86.64256c0.662,-0.17615 1.324,-0.44038 1.91245,-0.70461c0.58845,-0.26423 1.17689,-0.61653 1.69178,-1.14499l-0.07356,0.08808c0.44133,-1.76153 0.95622,-3.52306 1.47111,-5.28458c0.51489,-1.76153 0.95622,-3.52306 1.47111,-5.19651c1.02978,-3.52306 2.05956,-6.95803 3.1629,-10.39301c-0.88267,3.52306 -1.8389,7.04611 -2.86867,10.56918c-0.51489,1.76153 -1.02978,3.52305 -1.47111,5.19651c-0.51489,1.76153 -1.02978,3.52306 -1.54467,5.19651c-0.58845,0.44039 -1.17689,0.79269 -1.83889,1.05692c-0.662,0.35231 -1.25044,0.52846 -1.91245,0.61654z" id="Shape" fill="#6b348f"/><path d="M366.7678,54.58276c0,0 3.38356,-0.3523 5.88446,-0.3523l-1.76533,6.51766c-2.42734,-1.76153 -4.11913,-6.16535 -4.11913,-6.16535z" id="Shape" fill="#e17de3"/><path d="M375.15314,54.49468c0.66201,0.26423 3.08933,1.58538 4.70756,2.55422c0,0.08808 0.07356,0.26423 0.07356,0.35231c0,0 -0.07356,0.17615 -0.14711,0.61653c-4.63401,1.67346 -8.90024,2.73036 -8.90024,2.73036l1.76533,-6.51766c1.17689,0 2.20667,0 2.5009,0.26423z" id="Shape" fill="#9b4dae"/><path d="M379.78716,57.92965c0,0 -0.44133,0.26423 -1.02977,0.52846c-0.66201,0.26423 -1.47111,0.61654 -2.35378,0.96884c-0.88267,0.26423 -1.76533,0.52846 -2.42734,0.70462c-0.66201,0.17615 -1.10333,0.17615 -1.10333,0.17615c0,0 0.07356,0 0.29422,-0.08808c0.22066,-0.08808 0.44133,-0.17615 0.80912,-0.26423c0.662,-0.26423 1.47111,-0.52846 2.35378,-0.88076c0.88267,-0.26423 1.76533,-0.61653 2.42734,-0.79269c0.58845,-0.26423 1.02977,-0.35231 1.02977,-0.35231z" id="Shape" fill="#6b348f"/></g><g data-paper-data="{&quot;origPos&quot;:null}"><path d="M396.23737,77.14388c-0.22397,2.89252 -0.95026,5.08778 -2.21407,6.68537c-0.73589,0.93097 -1.82693,1.66656 -3.64426,2.44811c-0.0352,0.01533 -0.07359,0.03064 -0.11199,0.04597c-0.87027,0.33331 -1.82053,0.50571 -2.82198,0.50571c-1.52618,0 -2.94356,-0.36013 -4.21378,-1.06889c-1.87813,-1.04974 -2.81239,-2.51707 -3.27632,-3.75454c-0.06719,-0.13409 -0.13758,-0.27201 -0.20477,-0.42142c-0.19198,-0.4176 -0.32635,-0.86967 -0.39034,-1.3409c-0.09278,-0.65897 -0.23997,-1.65124 -0.44153,-2.96915c-0.0384,-0.25286 -0.05758,-0.50571 -0.05758,-0.7624v-3.33311c0,-0.41376 0.02879,-1.01909 0.23676,-2.65882c0.20157,-1.60525 0.28796,-2.1033 0.44793,-2.59369c0.41913,-1.33708 1.67336,-5.26784 4.71291,-6.04556c0.99825,-0.25286 2.12129,-0.28734 3.18354,-0.14942c0.75189,-1.44435 2.09569,-2.30635 3.62187,-2.30635c2.64922,0 4.11459,2.0918 4.38975,4.16063c0.0288,0.21838 0.04159,0.44059 0.04159,0.66279v5.32147c0,0.00383 0,0.00766 0,0.00766c0,0.00383 0,0.00384 0,0.00767c0,0 0,0 0,0.00383c0,0.34863 -0.03839,0.68194 -0.10238,1.00759c0.61751,0.83902 0.95987,1.87342 0.97586,2.98063c0.01919,1.11104 -0.02559,2.31402 -0.13119,3.5668z" data-paper-data="{&quot;origPos&quot;:null}" id="ID0.6895651021040976" fill="#ffc100"/><path d="M392.84875,73.6491c0.01823,0.94361 -0.01888,1.96614 -0.11263,3.06645c-0.1507,1.93244 -0.5724,3.33617 -1.2667,4.21235c-0.31931,0.40457 -1.07888,0.86508 -2.27934,1.38152c-0.52568,0.20228 -1.10736,0.30343 -1.74502,0.30343c-1.01298,0 -1.92324,-0.2245 -2.72983,-0.67428c-0.88211,-0.49384 -1.42603,-1.13403 -1.6324,-1.92095c-0.07487,-0.11226 -0.15966,-0.26932 -0.25308,-0.47161c-0.09439,-0.6739 -0.24413,-1.68456 -0.4505,-3.03274v-3.33617c0,-0.31454 0.06558,-0.98843 0.19709,-2.02208c0.13086,-1.03288 0.21565,-1.60563 0.25341,-1.71827c0.65654,-2.08951 1.379,-3.23503 2.16672,-3.4377c0.35611,-0.08927 0.75029,-0.13484 1.1819,-0.13484c1.38827,0 2.6457,0.40457 3.77128,1.21332c0.07455,0.04522 0.16862,0.06743 0.28124,0.06743c0.01887,-0.06743 0.03743,-0.34787 0.05663,-0.84247c0.01855,0 0.01855,-0.39268 0,-1.17922c-0.01919,-0.53943 0.02529,-0.92101 0.13311,-1.1459c0.10718,-0.22412 0.32251,-0.33714 0.64438,-0.33714c0.55352,0 0.85747,0.20229 0.91122,0.60686c0,0.0226 0,0.85397 0,2.4937c0,1.23593 0,2.01097 0,2.32512c0,0.38235 0,0.55093 0,0.50533c-0.07551,0.33714 -0.20669,0.53905 -0.39418,0.60648c-0.50616,0.20228 -0.85364,0.21416 -1.04114,0.03372c-0.09407,0 -0.19677,-0.03372 -0.30971,-0.10114c-0.09407,-0.31415 -0.30011,-0.72946 -0.6191,-1.24666c-0.43194,-0.42641 -0.99474,-0.79726 -1.68839,-1.11218c-0.69462,-0.31415 -1.28557,-0.47162 -1.77318,-0.47162c-0.61943,0 -1.11632,0.57275 -1.49162,1.71866c-0.52568,1.57269 -0.75989,3.6055 -0.70357,6.09958c0.03744,1.10107 0.06559,1.79758 0.08478,2.08913c0.09342,0.92139 0.30011,1.70755 0.61911,2.35884c0.22525,0.44977 0.57208,0.82063 1.04145,1.11218c0.46874,0.29232 0.9285,0.4494 1.379,0.47161c2.23295,0.11263 3.53644,-1.06697 3.91238,-3.53845c0.20638,-1.3252 0.22493,-2.43738 0.05632,-3.33617c-0.03808,-0.17968 -0.01952,-0.42142 0.05631,-0.72485c0.07423,-0.30305 0.40314,-0.48847 0.98482,-0.5559c0.13118,0 0.29052,0.07317 0.47865,0.21913c0.18621,0.14712 0.28061,0.29845 0.28061,0.45552z" data-paper-data="{&quot;origPos&quot;:null}" id="ID0.5211598752066493" fill="#ffffff"/></g><g data-paper-data="{&quot;origPos&quot;:null}"><path d="M362.37863,80.70134c-0.94244,3.12691 -3.50424,5.02752 -7.61244,5.64942c-0.18674,0.02794 -0.37056,0.04543 -0.55438,0.05241c-0.23926,0.41925 -0.55146,0.7826 -0.9191,1.06559c-0.96286,0.73718 -1.86445,1.09704 -2.75437,1.09704c-1.82944,0 -3.79893,-1.63507 -3.79893,-5.22667c0,-0.24456 0.00875,-0.56251 0.02917,-1.00271c0.00875,-0.18867 0.0175,-0.33541 0.02042,-0.44371c-0.0496,-0.27252 -0.07586,-0.54852 -0.07586,-0.82802v-1.69098c0,-0.27601 0.02334,-0.55201 0.07002,-0.82802c0.00292,-0.23408 0.01167,-0.49612 0.02626,-0.7826c-0.07003,-0.30745 -0.12254,-0.66381 -0.12254,-1.0621c0,-0.18167 0.01167,-0.36335 0.0321,-0.54153c0.11087,-0.93633 0.45808,-1.87615 1.04456,-2.62732c-0.20132,-0.6743 -0.30636,-1.38702 -0.30636,-2.11722v-1.78182c0,-0.72321 0.11963,-1.6246 0.70609,-3.86759c0.2451,-0.96428 0.32387,-1.26474 0.43183,-1.54424c0.5748,-1.54424 1.44137,-2.31637 2.07162,-2.69719c1.02997,-0.6149 2.1358,-0.92935 3.2854,-0.92935c0.53104,0 1.03873,0.06639 1.52308,0.19216c0.21592,-0.17468 0.44642,-0.32143 0.69151,-0.44371c0.3122,-0.16071 0.64482,-0.27252 1.01246,-0.3424c0.9191,-0.18867 1.89072,0.04543 2.73686,0.66033c0.88991,0.64984 1.91113,1.99842 1.78568,4.77248c-0.02042,0.48913 -0.05544,1.14245 -0.10797,1.99494c-0.00292,0.02096 -0.00292,0.04193 -0.00583,0.06288c-0.04669,0.61839 -0.1138,1.54075 -0.20424,2.76007c0.02333,0.47165 0.01459,0.99922 -0.02042,1.6211c-0.01459,0.23757 -0.04669,0.47515 -0.09921,0.70575c-0.01167,0.05241 -0.02333,0.10132 -0.03502,0.14673c0.39389,0.60442 0.66234,1.20884 0.84615,1.73289c0.17215,0.41576 0.31803,0.8944 0.44642,1.47787c0.0496,0.2201 0.08169,0.44371 0.09629,0.67081c0.1313,1.96 0.06419,3.11643 -0.23925,4.09468z" data-paper-data="{&quot;origPos&quot;:null}" id="ID0.1519448710605502" fill="#ffc100"/><path d="M359.41884,76.91549c0.08549,1.27068 0.06798,2.08962 -0.05135,2.45856c-0.4966,1.68014 -2.16498,2.73492 -5.00455,3.16535c-0.95849,0.14359 -1.91639,-0.39934 -2.87488,-1.62879c0,0.18448 0.03413,0.73753 0.103,1.65988c0.05135,0.67604 0.04259,1.22911 -0.02568,1.65919c-0.42804,0.32772 -0.76999,0.49193 -1.02675,0.49193c-0.39389,0 -0.59027,-0.46083 -0.59027,-1.38318c0,-0.16386 0.00846,-0.42484 0.02568,-0.78329c0.01691,-0.35811 0.02567,-0.60931 0.02567,-0.75291c0,-0.34834 -0.02568,-0.59394 -0.07703,-0.73753v-1.69028c0,-0.04088 0.00846,-0.087 0.02568,-0.13835c0.01691,-0.05101 0.03413,-0.09713 0.05135,-0.13835c-0.01722,-0.2865 -0.00875,-0.72705 0.02568,-1.32134c0.03413,-0.36894 0.03413,-0.60407 0,-0.70679c-0.08578,-0.20439 -0.1281,-0.32736 -0.1281,-0.3686c0.06798,-0.57368 0.41929,-0.86051 1.05214,-0.86051c0.41052,0 0.65854,0.17434 0.74432,0.52231c0,0.32772 0.03413,0.80951 0.1027,1.44432c0.10301,0.73753 0.42775,1.47542 0.97541,2.2126c0.59873,0.84024 1.17177,1.22945 1.71972,1.16796c0.61593,-0.0814 1.23189,-0.25573 1.84782,-0.52231c0.85549,-0.36894 1.36873,-0.79903 1.54,-1.2906c0.11933,-0.36894 0.17944,-0.75779 0.17944,-1.16796c0,-1.24936 -0.38485,-2.18186 -1.15485,-2.79639c-0.34254,-0.26622 -0.97541,-0.48144 -1.89946,-0.64564c-0.53045,-0.0814 -0.85578,-0.12298 -0.97512,-0.12298c-0.82135,0.02062 -1.58727,-0.29697 -2.29716,-0.95276c-0.71019,-0.65543 -1.06498,-1.41392 -1.06498,-2.27444v-1.78217c0,-0.38885 0.1882,-1.30073 0.56489,-2.73491c0.17069,-0.67641 0.26493,-1.0345 0.28244,-1.07573c0.15377,-0.43009 0.35043,-0.71692 0.58996,-0.86052c0.58152,-0.34797 1.19745,-0.52231 1.84782,-0.52231c1.26601,0 2.19854,0.61456 2.79756,1.84366c0.05135,0.06148 0.13685,0.15372 0.25677,0.27671c0.01691,-0.2865 0.05135,-0.72705 0.1027,-1.32134c-0.01722,-0.26622 -0.03444,-0.52231 -0.05135,-0.76828c0,-0.2865 0.11933,-0.48109 0.35917,-0.58381c0.06828,-0.04088 0.16251,-0.07162 0.28244,-0.09224c0.17098,-0.04088 0.3551,0.01048 0.55204,0.15338c0.19636,0.14359 0.27777,0.57402 0.24363,1.29059c-0.01722,0.4507 -0.05135,1.08586 -0.1027,1.90515c-0.05135,0.67641 -0.12809,1.71089 -0.23109,3.1042c0.03413,0.32772 0.03413,0.77876 0,1.35208c-0.08578,0.3892 -0.34255,0.5838 -0.76999,0.5838c-0.22263,0 -0.4362,-0.07161 -0.64162,-0.21487c-0.1027,-0.38885 -0.15377,-0.55341 -0.15377,-0.49193c0.03384,-0.55307 -0.0601,-1.29059 -0.28244,-2.2126c-0.18848,-0.47096 -0.44904,-1.14177 -0.78283,-2.01276c-0.33379,-0.87065 -0.77437,-1.33707 -1.32174,-1.39855c-0.6845,-0.06148 -1.12917,0.21521 -1.33458,0.82977c-0.06828,0.26658 -0.16281,0.65613 -0.28214,1.16796c-0.20541,0.75814 -0.33379,1.48555 -0.38514,2.18186c-0.01722,0.22569 -0.03444,0.31792 -0.05135,0.27671c0.05135,0.41016 0.11116,0.81963 0.17973,1.22945c0.08549,0.51218 0.29528,0.90174 0.62877,1.16762c0.33379,0.26658 0.97074,0.43009 1.91201,0.49156c2.3097,0.16456 3.73823,1.12744 4.2859,2.889c0.0852,0.16421 0.17069,0.44056 0.25647,0.82942z" data-paper-data="{&quot;origPos&quot;:null}" id="ID0.570444684009999" fill="#ffffff"/></g></g><g data-paper-data="{&quot;index&quot;:null}" stroke="#ffffff"><g data-paper-data="{&quot;origPos&quot;:null}" id="Group"><path d="M433.14442,84.26451c0,0 -0.43215,-26.15869 0.08643,-29.76981c0,0 1.85823,-6.16535 4.79684,-8.5434c0,0 2.07432,5.98919 2.93861,11.27378c0,0 -3.97576,25.89446 -4.58077,27.65598c0,0 -1.33966,1.49729 -2.20395,1.67345c0.04321,0.08808 -1.03715,-0.96883 -1.03715,-2.28998z" id="Shape" fill="#8644b3"/><path d="M438.0277,46.12744l-2.33359,14.62068c-1.46931,-1.67346 -2.42003,-6.16535 -2.42003,-6.16535c0,0 1.85823,-6.16535 4.75362,-8.45533z" id="Shape" fill="#ea8be5"/><path d="M438.0277,46.12744l-2.33359,14.62068c-1.46931,-1.67346 -2.42003,-6.16535 -2.42003,-6.16535c0,0 1.85823,-6.16535 4.75362,-8.45533z" id="Shape" fill="#ea8be5"/><path d="M440.87987,58.01774c-2.72253,1.67346 -5.22899,2.73036 -5.22899,2.73036l2.37682,-14.62068c0,-0.08808 0.04321,-0.08808 0.04321,-0.08808c0,0 2.07432,5.98919 2.89539,11.27378c0,0 0,0.17614 -0.08643,0.70462z" id="Shape" fill="#ad59c2"/><path d="M435.6941,60.83618l-1.46931,25.89446c0,0 -1.03715,-1.14499 -1.03715,-2.37807c0,0 -0.43215,-26.15869 0.08643,-29.76981z" id="Shape" fill="#ad59c2"/><path d="M435.65088,60.74811c0,0 -0.04322,1.40922 -0.12964,3.52305c-0.04321,1.05692 -0.12964,2.28999 -0.17286,3.61114c-0.08643,1.32115 -0.12964,2.73036 -0.21608,4.05152c-0.08643,1.40923 -0.17286,2.81844 -0.25928,4.05151c-0.08643,1.32115 -0.17286,2.55422 -0.21608,3.52306c-0.17286,2.02576 -0.25928,3.43497 -0.25928,3.43497c0,0 0.04321,-1.40923 0.12964,-3.52305c0.04321,-1.05692 0.12964,-2.28999 0.17286,-3.61114c0.08643,-1.32115 0.12964,-2.73036 0.21608,-4.05151c0.08643,-1.40923 0.17286,-2.81845 0.25928,-4.05151c0.08643,-1.32115 0.17286,-2.55421 0.21608,-3.52305c0.17286,-2.11383 0.25928,-3.43498 0.25928,-3.43498z" id="Shape" fill="#ea8be5"/><path d="M434.35444,83.73604l-0.17286,2.90652c0,0 -1.03715,-1.14498 -1.03715,-2.37807c0,0 0.69144,-0.26423 1.21001,-0.52846z" id="Shape" fill="#a546bd"/><path d="M436.38553,84.96911c0,0 -1.38287,1.49729 -2.20395,1.67346l0.17286,-2.90652c0.25928,-0.08808 0.47536,-0.17614 0.56179,-0.17614c0.34572,-0.08808 1.4693,1.40922 1.4693,1.40922z" id="Shape" fill="#7c36ab"/><path d="M434.22479,86.64256c0.38893,-0.17615 0.77787,-0.44038 1.12359,-0.70461c0.34572,-0.26423 0.69144,-0.61653 0.99394,-1.14499l-0.04321,0.08808c0.25928,-1.76152 0.56178,-3.52306 0.8643,-5.28458c0.30251,-1.76152 0.56179,-3.52306 0.86429,-5.19651c0.605,-3.52306 1.21001,-6.95803 1.85823,-10.39302c-0.51858,3.52306 -1.08037,7.04611 -1.68538,10.56917c-0.30251,1.76152 -0.605,3.52305 -0.8643,5.19651c-0.30251,1.76152 -0.605,3.52306 -0.90751,5.19651c-0.34572,0.44039 -0.69144,0.79269 -1.08037,1.05692c-0.38893,0.35231 -0.73465,0.52846 -1.12359,0.61654z" id="Shape" fill="#6b348f"/><path d="M433.23086,54.58276c0,0 1.98788,-0.3523 3.45718,-0.3523l-1.03715,6.51766c-1.42609,-1.76152 -2.42003,-6.16535 -2.42003,-6.16535z" id="Shape" fill="#e17de3"/><path d="M438.15734,54.49468c0.38894,0.26423 1.81501,1.58538 2.76574,2.55422c0,0.08808 0.04321,0.26423 0.04321,0.35231c0,0 -0.04322,0.17615 -0.08643,0.61653c-2.72253,1.67346 -5.22899,2.73036 -5.22899,2.73036l1.03715,-6.51766c0.69144,0 1.29644,0 1.46931,0.26423z" id="Shape" fill="#9b4dae"/><path d="M440.87987,57.92965c0,0 -0.25929,0.26423 -0.605,0.52846c-0.38894,0.26423 -0.8643,0.61654 -1.38287,0.96884c-0.51858,0.26423 -1.03715,0.52846 -1.42609,0.70462c-0.38894,0.17615 -0.64822,0.17615 -0.64822,0.17615c0,0 0.04322,-0.00001 0.17286,-0.08808c0.12964,-0.08808 0.25928,-0.17614 0.47536,-0.26422c0.38893,-0.26423 0.8643,-0.52846 1.38287,-0.88076c0.51858,-0.26423 1.03715,-0.61653 1.42609,-0.79269c0.34572,-0.26423 0.605,-0.35231 0.605,-0.35231z" id="Shape" fill="#6b348f"/></g><g data-paper-data="{&quot;origPos&quot;:null}"><path d="M450.54455,77.14388c-0.13158,2.89252 -0.55829,5.08778 -1.3008,6.68537c-0.43234,0.93097 -1.07334,1.66656 -2.14105,2.44812c-0.02068,0.01532 -0.04323,0.03064 -0.06579,0.04596c-0.51129,0.33331 -1.06959,0.50571 -1.65795,0.50571c-0.89665,0 -1.72937,-0.36013 -2.47564,-1.06889c-1.10342,-1.04974 -1.65231,-2.51707 -1.92487,-3.75454c-0.03948,-0.13409 -0.08083,-0.27201 -0.12031,-0.42142c-0.11279,-0.4176 -0.19174,-0.86967 -0.22933,-1.3409c-0.05451,-0.65897 -0.14098,-1.65124 -0.25941,-2.96915c-0.02256,-0.25286 -0.03383,-0.50571 -0.03383,-0.7624v-3.33311c0,-0.41376 0.01691,-1.01909 0.1391,-2.65882c0.11842,-1.60525 0.16918,-2.10331 0.26317,-2.59369c0.24625,-1.33708 0.98311,-5.26784 2.76888,-6.04556c0.58648,-0.25286 1.24628,-0.28734 1.87036,-0.14942c0.44174,-1.44435 1.23124,-2.30635 2.12789,-2.30635c1.55645,0 2.41736,2.0918 2.57903,4.16063c0.01692,0.21838 0.02444,0.44059 0.02444,0.66279v5.32147c0,0.00383 0,0.00766 0,0.00766c0,0.00383 0,0.00384 0,0.00767c0,0 0,0 0,0.00383c0,0.34863 -0.02256,0.68194 -0.06015,1.00759c0.36279,0.83902 0.56393,1.87342 0.57333,2.98063c0.01128,1.11104 -0.01504,2.31402 -0.07707,3.5668z" data-paper-data="{&quot;origPos&quot;:null}" id="ID0.6895651021040976" fill="#ffc100"/><path d="M448.55371,73.6491c0.01072,0.94361 -0.01109,1.96614 -0.06617,3.06645c-0.08853,1.93243 -0.33629,3.33617 -0.7442,4.21235c-0.1876,0.40457 -0.63385,0.86508 -1.33914,1.38152c-0.30884,0.20228 -0.65059,0.30343 -1.02522,0.30343c-0.59514,0 -1.12992,-0.2245 -1.60381,-0.67428c-0.51825,-0.49383 -0.83781,-1.13403 -0.95905,-1.92095c-0.04399,-0.11225 -0.0938,-0.26932 -0.14869,-0.47161c-0.05545,-0.6739 -0.14343,-1.68456 -0.26467,-3.03274v-3.33617c0,-0.31454 0.03853,-0.98843 0.1158,-2.02207c0.07688,-1.03288 0.12669,-1.60563 0.14888,-1.71828c0.38573,-2.08951 0.81018,-3.23503 1.27297,-3.4377c0.20922,-0.08927 0.4408,-0.13484 0.69438,-0.13484c0.81563,0 1.55437,0.40457 2.21567,1.21332c0.0438,0.04522 0.09906,0.06743 0.16523,0.06743c0.01109,-0.06743 0.02199,-0.34787 0.03327,-0.84247c0.0109,0 0.0109,-0.39268 0,-1.17922c-0.01128,-0.53942 0.01486,-0.92101 0.0782,-1.1459c0.06297,-0.22412 0.18948,-0.33715 0.37858,-0.33715c0.3252,0 0.50377,0.20229 0.53535,0.60686c0,0.0226 0,0.85397 0,2.4937c0,1.23593 0,2.01097 0,2.32512c0,0.38234 0,0.55093 0,0.50533c-0.04436,0.33714 -0.12143,0.53905 -0.23158,0.60648c-0.29738,0.20228 -0.50153,0.21417 -0.61168,0.03372c-0.05526,0 -0.1156,-0.03372 -0.18196,-0.10115c-0.05526,-0.31415 -0.17632,-0.72946 -0.36373,-1.24666c-0.25376,-0.42641 -0.58442,-0.79726 -0.99195,-1.11218c-0.4081,-0.31415 -0.75529,-0.47162 -1.04176,-0.47162c-0.36392,0 -0.65585,0.57276 -0.87635,1.71866c-0.30884,1.57269 -0.44645,3.6055 -0.41336,6.09958c0.022,1.10107 0.03853,1.79758 0.04981,2.08913c0.05488,0.92139 0.17632,1.70755 0.36374,2.35884c0.13233,0.44978 0.3361,0.82063 0.61186,1.11218c0.27539,0.29231 0.5455,0.4494 0.81018,0.47161c1.31189,0.11263 2.07769,-1.06697 2.29857,-3.53845c0.12125,-1.3252 0.13215,-2.43738 0.03309,-3.33617c-0.02238,-0.17969 -0.01147,-0.42142 0.03308,-0.72485c0.04361,-0.30305 0.23685,-0.48847 0.57859,-0.5559c0.07707,0 0.17068,0.07317 0.28121,0.21913c0.1094,0.14712 0.16486,0.29845 0.16486,0.45552z" data-paper-data="{&quot;origPos&quot;:null}" id="ID0.5211598752066493" fill="#ffffff"/></g><g data-paper-data="{&quot;origPos&quot;:null}"><path d="M430.65217,80.70134c-0.55369,3.12691 -2.05878,5.02753 -4.47239,5.64942c-0.10971,0.02794 -0.2177,0.04543 -0.3257,0.05241c-0.14057,0.41925 -0.32399,0.7826 -0.53998,1.06559c-0.56569,0.73718 -1.09539,1.09704 -1.61823,1.09704c-1.07481,0 -2.23192,-1.63507 -2.23192,-5.22667c0,-0.24456 0.00514,-0.56251 0.01714,-1.00271c0.00514,-0.18867 0.01028,-0.33541 0.012,-0.44371c-0.02914,-0.27252 -0.04457,-0.54852 -0.04457,-0.82802v-1.69098c0,-0.27601 0.01371,-0.55201 0.04114,-0.82802c0.00171,-0.23408 0.00686,-0.49612 0.01543,-0.7826c-0.04114,-0.30745 -0.072,-0.66381 -0.072,-1.0621c0,-0.18167 0.00685,-0.36335 0.01886,-0.54154c0.06514,-0.93633 0.26913,-1.87615 0.61369,-2.62732c-0.11828,-0.6743 -0.17999,-1.38702 -0.17999,-2.11722v-1.78182c0,-0.72321 0.07029,-1.6246 0.41484,-3.86759c0.14399,-0.96428 0.19028,-1.26474 0.2537,-1.54424c0.3377,-1.54424 0.84682,-2.31636 1.2171,-2.69719c0.60512,-0.6149 1.25481,-0.92935 1.93021,-0.92935c0.31199,0 0.61027,0.06639 0.89483,0.19216c0.12686,-0.17468 0.26227,-0.32143 0.40627,-0.44371c0.18342,-0.1607 0.37884,-0.27252 0.59483,-0.3424c0.53998,-0.18867 1.11081,0.04543 1.60794,0.66032c0.52283,0.64984 1.12281,1.99843 1.04911,4.77248c-0.012,0.48913 -0.03257,1.14245 -0.06343,1.99495c-0.00171,0.02095 -0.00172,0.04193 -0.00342,0.06289c-0.02743,0.61839 -0.06686,1.54075 -0.11999,2.76006c0.01371,0.47165 0.00857,0.99922 -0.012,1.6211c-0.00857,0.23758 -0.02743,0.47515 -0.05829,0.70575c-0.00685,0.05241 -0.01371,0.10132 -0.02057,0.14674c0.23142,0.60442 0.38913,1.20883 0.49712,1.73289c0.10114,0.41576 0.18685,0.8944 0.26227,1.47787c0.02914,0.2201 0.04799,0.44371 0.05657,0.67081c0.07714,1.96 0.03772,3.11643 -0.14057,4.09468z" data-paper-data="{&quot;origPos&quot;:null}" id="ID0.1519448710605502" fill="#ffc100"/><path d="M428.91326,76.91549c0.05023,1.27068 0.03994,2.08962 -0.03017,2.45856c-0.29176,1.68014 -1.27195,2.73492 -2.94023,3.16535c-0.56312,0.14359 -1.1259,-0.39934 -1.68902,-1.62879c0,0.18447 0.02005,0.73752 0.06051,1.65988c0.03017,0.67604 0.02503,1.22911 -0.01509,1.65919c-0.25148,0.32772 -0.45238,0.49193 -0.60323,0.49193c-0.23142,0 -0.34679,-0.46083 -0.34679,-1.38318c0,-0.16386 0.00497,-0.42484 0.01509,-0.78329c0.00994,-0.35811 0.01509,-0.60931 0.01509,-0.75291c0,-0.34834 -0.01509,-0.59394 -0.04526,-0.73753v-1.69028c0,-0.04088 0.00497,-0.087 0.01509,-0.13835c0.00994,-0.05101 0.02005,-0.09713 0.03017,-0.13835c-0.01011,-0.28649 -0.00514,-0.72705 0.01509,-1.32134c0.02005,-0.36893 0.02005,-0.60407 0,-0.70679c-0.0504,-0.20439 -0.07526,-0.32736 -0.07526,-0.3686c0.03994,-0.57368 0.24634,-0.86051 0.61815,-0.86051c0.24119,0 0.3869,0.17435 0.4373,0.52232c0,0.32772 0.02005,0.80951 0.06034,1.44432c0.06051,0.73753 0.2513,1.47542 0.57306,2.2126c0.35176,0.84024 0.68843,1.22945 1.01035,1.16796c0.36187,-0.0814 0.72375,-0.25574 1.08562,-0.52232c0.50261,-0.36893 0.80414,-0.79903 0.90477,-1.2906c0.07011,-0.36893 0.10542,-0.75779 0.10542,-1.16796c0,-1.24936 -0.22611,-2.18186 -0.67849,-2.7964c-0.20125,-0.26622 -0.57306,-0.48144 -1.11595,-0.64564c-0.31164,-0.0814 -0.50278,-0.12297 -0.57289,-0.12297c-0.48255,0.02062 -0.93254,-0.29697 -1.3496,-0.95276c-0.41724,-0.65543 -0.62569,-1.41392 -0.62569,-2.27444v-1.78217c0,-0.38885 0.11056,-1.30073 0.33188,-2.73492c0.10029,-0.6764 0.15565,-1.03451 0.16594,-1.07573c0.09034,-0.43009 0.20588,-0.71692 0.34661,-0.86052c0.34165,-0.34797 0.70352,-0.52231 1.08561,-0.52231c0.7438,0 1.29167,0.61456 1.6436,1.84366c0.03017,0.06149 0.0804,0.15373 0.15085,0.27672c0.00994,-0.28649 0.03017,-0.72705 0.06034,-1.32134c-0.01011,-0.26622 -0.02023,-0.52231 -0.03017,-0.76828c0,-0.28649 0.07011,-0.48109 0.21102,-0.58381c0.04012,-0.04088 0.09548,-0.07162 0.16594,-0.09223c0.10046,-0.04088 0.20863,0.01048 0.32433,0.15337c0.11536,0.14359 0.16319,0.57403 0.14313,1.2906c-0.01011,0.4507 -0.03017,1.08586 -0.06034,1.90514c-0.03017,0.6764 -0.07525,1.71089 -0.13577,3.1042c0.02005,0.32772 0.02005,0.77877 0,1.35208c-0.0504,0.3892 -0.20125,0.5838 -0.45238,0.5838c-0.1308,0 -0.25628,-0.07161 -0.37696,-0.21487c-0.06034,-0.38885 -0.09034,-0.55342 -0.09034,-0.49193c0.01988,-0.55307 -0.03531,-1.29059 -0.16594,-2.21259c-0.11073,-0.47096 -0.26382,-1.14177 -0.45992,-2.01276c-0.19611,-0.87065 -0.45495,-1.33706 -0.77654,-1.39855c-0.40215,-0.06149 -0.6634,0.21521 -0.78408,0.82976c-0.04012,0.26658 -0.09565,0.65613 -0.16576,1.16796c-0.12068,0.75814 -0.19611,1.48555 -0.22628,2.18186c-0.01011,0.22569 -0.02023,0.31792 -0.03017,0.27671c0.03017,0.41016 0.06531,0.81963 0.1056,1.22945c0.05023,0.51218 0.17348,0.90174 0.36941,1.16762c0.19611,0.26658 0.57032,0.43009 1.12333,0.49156c1.35698,0.16456 2.19625,1.12743 2.51801,2.889c0.05006,0.16421 0.10028,0.44056 0.15068,0.82942z" data-paper-data="{&quot;origPos&quot;:null}" id="ID0.570444684009999" fill="#ffffff"/></g></g></g></g></g></svg>