<svg version="1.1" xmlns="http://www.w3.org/2000/svg" xmlns:xlink="http://www.w3.org/1999/xlink" width="228.5" height="233.00073" viewBox="0,0,228.5,233.00073"><g transform="translate(-272.25,-203.69461)"><g data-paper-data="{&quot;isPaintingLayer&quot;:true}" fill-rule="nonzero" stroke-linejoin="miter" stroke-miterlimit="10" stroke-dasharray="" stroke-dashoffset="0" style="mix-blend-mode: normal"><path d="M272.25,389.04112l28.5,-120l200,-19.5v139.5z" fill="#4db494" stroke="none" stroke-width="NaN" stroke-linecap="butt"/><path d="M397.33373,369.75269c0,-6.41666 4.77713,-11.61842 10.66999,-11.61842c5.89287,0 10.66999,5.20174 10.66999,11.61842c0,6.41668 -4.77713,11.61844 -10.66999,11.61844c-5.89287,0 -10.66999,-5.20176 -10.66999,-11.61844z" data-paper-data="{&quot;index&quot;:null}" fill="#995900" stroke="#663b00" stroke-width="2" stroke-linecap="butt"/><g data-paper-data="{&quot;index&quot;:null}" stroke-linecap="butt"><path d="M388.81996,431.03669c0,0 -1.16137,-23.63201 -1.16137,-44.71234c0,-21.08032 -4.60743,-21.92065 7.2585,-21.92065c11.86591,0 10.74257,38.76037 10.74257,38.76037c0,0 18.61971,-4.49946 26.33503,7.45381c4.13309,6.40337 5.94601,11.30642 3.14799,18.39562c-4.52444,11.46328 -46.32273,2.02318 -46.32273,2.02318z" data-paper-data="{&quot;origPos&quot;:null}" fill="#995900" stroke="#663b00" stroke-width="2"/><path d="M386.81279,426.13373c0,-5.05105 7.21441,-9.14571 16.11386,-9.14571c8.89943,0 16.11386,4.09467 16.11386,9.14571c0,5.05105 -7.21443,9.14571 -16.11386,9.14571c-8.89946,0 -16.11386,-4.09467 -16.11386,-9.14571z" data-paper-data="{&quot;origPos&quot;:null}" fill="#ffffff" stroke="#e5e5e5" stroke-width="2"/><path d="M422.59617,435.77123c-0.59997,-1.36528 1.56255,-5.88417 4.83017,-6.60124c3.2676,-0.71705 6.4029,-0.19158 7.00288,1.1737c0.59997,1.36528 -1.56255,3.05337 -4.83017,3.77043c-3.2676,0.71705 -6.4029,3.02238 -7.00288,1.65711z" data-paper-data="{&quot;origPos&quot;:null,&quot;origRot&quot;:0}" fill="#ffffff" stroke="#e5e5e5" stroke-width="1"/><path d="M420.22985,423.80593c-0.77369,-2.24105 2.015,-5.01195 6.22871,-6.18898c4.21372,-1.17703 8.25683,-0.31447 9.03052,1.92657c0.77369,2.24105 -2.01498,5.01195 -6.22871,6.18898c-4.21373,1.17703 -8.25683,0.31447 -9.03052,-1.92657z" data-paper-data="{&quot;origPos&quot;:null,&quot;origRot&quot;:0}" fill="#ffffff" stroke="#e5e5e5" stroke-width="1.5"/><path d="M412.84521,415.01524c-1.1318,-2.08324 1.16308,-5.27512 5.12576,-7.12928c3.9627,-1.85416 8.09262,-1.66844 9.22442,0.41481c1.1318,2.08324 -1.16308,5.27512 -5.12578,7.12928c-3.96269,1.85416 -8.09263,1.66844 -9.22441,-0.41481z" data-paper-data="{&quot;origPos&quot;:null,&quot;origRot&quot;:0}" fill="#ffffff" stroke="#e5e5e5" stroke-width="1.5"/></g><g data-paper-data="{&quot;index&quot;:null}" stroke-linecap="butt"><path d="M378.12102,385.88881c0,21.08032 -1.16137,44.71234 -1.16137,44.71234c0,0 -41.79829,9.44009 -46.32273,-2.02318c-2.79803,-7.08919 -0.9851,-11.99225 3.14799,-18.39562c7.71532,-11.95327 26.33503,-7.45381 26.33503,-7.45381c0,0 -1.12334,-38.76037 10.74257,-38.76037c11.86594,0 7.2585,0.84033 7.2585,21.92065z" data-paper-data="{&quot;origPos&quot;:null}" fill="#995900" stroke="#663b00" stroke-width="2"/><path d="M362.85294,434.84393c-8.89943,0 -16.11386,-4.09467 -16.11386,-9.14571c0,-5.05105 7.21443,-9.14571 16.11386,-9.14571c8.89946,0 16.11386,4.09467 16.11386,9.14571c0,5.05105 -7.21441,9.14571 -16.11386,9.14571z" data-paper-data="{&quot;origPos&quot;:null}" fill="#ffffff" stroke="#e5e5e5" stroke-width="2"/><path d="M336.1806,433.67861c-3.26761,-0.71705 -5.43014,-2.40515 -4.83017,-3.77043c0.59997,-1.36529 3.73528,-1.89076 7.00288,-1.1737c3.26761,0.71708 5.43014,5.23596 4.83017,6.60124c-0.59997,1.36528 -3.73528,-0.94005 -7.00288,-1.65711z" data-paper-data="{&quot;origPos&quot;:null,&quot;origRot&quot;:0}" fill="#ffffff" stroke="#e5e5e5" stroke-width="1"/><path d="M336.51924,425.29699c-4.21373,-1.17703 -7.00241,-3.94794 -6.22871,-6.18898c0.77369,-2.24104 4.81681,-3.1036 9.03052,-1.92657c4.21372,1.17703 7.00241,3.94794 6.22871,6.18898c-0.77369,2.24104 -4.81679,3.1036 -9.03052,1.92657z" data-paper-data="{&quot;origPos&quot;:null,&quot;origRot&quot;:0}" fill="#ffffff" stroke="#e5e5e5" stroke-width="1.5"/><path d="M343.70999,414.99456c-3.9627,-1.85415 -6.25758,-5.04604 -5.12578,-7.12928c1.1318,-2.08325 5.26172,-2.26897 9.22442,-0.41481c3.96269,1.85415 6.25757,5.04604 5.12576,7.12928c-1.13178,2.08325 -5.26172,2.26897 -9.22441,0.41481z" data-paper-data="{&quot;origPos&quot;:null,&quot;origRot&quot;:0}" fill="#ffffff" stroke="#e5e5e5" stroke-width="1.5"/></g><path d="M343.33266,293.56713c3.56314,15.30503 33.16749,24.67232 22.23533,27.21742c-11.84223,2.75697 -16.4818,4.56288 -27.43199,-0.7222c-9.10309,-4.39359 -16.97432,-13.09298 -22.30111,-21.6834c-3.81846,-6.15795 -6.6025,-15.37071 -7.11865,-18.60025c-0.6547,-4.09638 5.41224,-11.40912 9.45258,-12.34974c3.91132,-0.91059 9.45029,-2.73685 12.79112,-0.50829c9.13358,6.09275 9.88323,15.95317 12.37271,26.64646z" data-paper-data="{&quot;index&quot;:null}" fill="#995900" stroke="#663b00" stroke-width="2" stroke-linecap="butt"/><path d="M419.0854,283.37572c-0.68958,-10.95758 -2.80615,-20.61728 4.19043,-29.07848c2.55917,-3.09488 8.38933,-2.93798 12.39733,-3.19022c4.14018,-0.26055 12.05322,4.99945 12.60374,9.11114c0.43403,3.24161 0.41588,12.86581 -1.47117,19.86151c-2.63247,9.7591 -7.67065,20.35403 -15.12647,27.17903c-8.96869,8.20984 -13.93156,7.81388 -26.06647,8.57756c-11.20235,0.705 14.45959,-16.77724 13.47261,-32.46054z" data-paper-data="{&quot;index&quot;:null}" fill="#995900" stroke="#663b00" stroke-width="2" stroke-linecap="butt"/><path d="M351.16775,337.95921c0,-30.3062 16.05416,-38.76037 30.48568,-38.76037c14.43152,0 32.22772,8.45417 32.22772,38.76037c0,30.3062 -16.48967,42.24444 -30.92119,42.24444c-14.43152,0 -31.79221,-11.93824 -31.79221,-42.24444z" data-paper-data="{&quot;index&quot;:null}" fill="#995900" stroke="#663b00" stroke-width="2" stroke-linecap="butt"/><path d="M392.25081,231.57621c0,-13.30908 10.13919,-24.0982 22.6465,-24.0982c12.50732,0 22.6465,10.78913 22.6465,24.0982c0,13.30908 -10.13919,24.0982 -22.6465,24.0982c-12.50732,0 -22.6465,-10.78913 -22.6465,-24.0982z" data-paper-data="{&quot;index&quot;:null}" fill="#995900" stroke="#663b00" stroke-width="2" stroke-linecap="butt"/><path d="M324.63267,228.79283c0,-13.30907 10.13919,-24.09822 22.6465,-24.09822c12.50732,0 22.6465,10.78915 22.6465,24.09822c0,13.30908 -10.13919,24.0982 -22.6465,24.0982c-12.50732,0 -22.6465,-10.78913 -22.6465,-24.0982z" data-paper-data="{&quot;index&quot;:null}" fill="#995900" stroke="#663b00" stroke-width="2" stroke-linecap="butt"/><path d="M382.0889,341.77678c0,-13.79011 2.98976,-24.96922 6.67781,-24.96922c3.68805,0 6.67781,11.17909 6.67781,24.96922c0,7.06318 15.93078,12.48828 12.51901,17.46131c-8.45025,12.31723 -25.87464,-3.67118 -25.87464,-17.46131z" data-paper-data="{&quot;index&quot;:null}" fill="#ffffff" stroke="#e5e5e5" stroke-width="2" stroke-linecap="butt"/><path d="M363.36215,346.13192c0,-12.02627 3.24974,-21.77549 7.2585,-21.77549c4.00876,0 7.2585,9.74922 7.2585,21.77549c0,11.28537 -6.01045,26.64602 -17.12478,24.96329c-14.11271,-2.13666 2.60778,-12.93702 2.60778,-24.96329z" data-paper-data="{&quot;index&quot;:null}" fill="#ffffff" stroke="#e5e5e5" stroke-width="2" stroke-linecap="butt"/><path d="M334.18285,270.04623c0,-25.81639 20.53834,-46.7447 45.87368,-46.7447c25.33534,0 45.87368,20.92832 45.87368,46.7447c0,25.81639 -20.53834,46.7447 -45.87368,46.7447c-25.33534,0 -45.87368,-20.92832 -45.87368,-46.7447z" data-paper-data="{&quot;index&quot;:null}" fill="#995900" stroke="#663b00" stroke-width="2" stroke-linecap="butt"/><path d="M374.89686,258.90169c0,-11.5452 6.16151,-20.90447 13.76211,-20.90447c7.6006,0 13.76211,9.35926 13.76211,20.90447c0,11.5452 -6.16151,20.90447 -13.76211,20.90447c-7.6006,0 -13.76211,-9.35925 -13.76211,-20.90447z" data-paper-data="{&quot;index&quot;:null}" fill="#ffffff" stroke="none" stroke-width="0" stroke-linecap="butt"/><g data-paper-data="{&quot;index&quot;:null}" stroke="none" stroke-width="1" stroke-linecap="butt"><path d="M384.12339,238.78022c2.94185,0 5.60942,2.1048 7.53951,5.50784c1.93211,3.401 3.12673,8.10024 3.12673,13.28505c0,5.18481 -1.19462,9.88405 -3.12673,13.28505c-1.93009,3.40304 -4.59766,5.50784 -7.53951,5.50784c-2.94185,0 -8.41053,-7.03212 -8.41053,-7.03212l4.49468,-11.32525l-4.71244,-13.0673c0,0 5.68643,-6.16111 8.62828,-6.16111z" data-paper-data="{&quot;origPos&quot;:null}" id="ID0.3999869367107749" fill="#3a2400"/><path d="M383.71336,242.45784c2.29418,0 4.37447,1.64142 5.87964,4.29526c1.50674,2.65225 2.43837,6.31693 2.43837,10.36029c0,4.04336 -0.93162,7.70803 -2.43837,10.36029c-1.50516,2.65385 -3.58545,4.29526 -5.87964,4.29526c-2.29419,0 -6.75247,-4.70973 -6.75247,-4.70973l6.21501,-10.57398l-5.61057,-7.86774c0,0 3.85385,-6.15962 6.14804,-6.15962z" data-paper-data="{&quot;origPos&quot;:null}" id="ID0.3999869367107749" fill="#000000"/><path d="M381.6369,244.0284c1.54203,0 2.93779,1.46296 3.94957,3.82865c1.01178,2.36278 1.63752,5.6283 1.63752,9.23344c0,3.60516 -0.62575,6.87065 -1.63752,9.23345c-1.01177,2.36571 -2.40753,3.82865 -3.94957,3.82865c-1.54203,0 -3.94955,-3.82865 -3.94955,-3.82865l4.45962,-8.14467l-4.45962,-10.3222c0,0 2.40752,-3.82865 3.94955,-3.82865z" data-paper-data="{&quot;origPos&quot;:null}" id="ID0.31420128559693694" fill="#ffffff"/></g><path d="M337.61723,258.55325c0,-11.5452 6.16151,-20.90447 13.76211,-20.90447c7.6006,0 13.76211,9.35926 13.76211,20.90447c0,11.5452 -6.16151,20.90447 -13.76211,20.90447c-7.6006,0 -13.76211,-9.35925 -13.76211,-20.90447z" data-paper-data="{&quot;index&quot;:null}" fill="#ffffff" stroke="none" stroke-width="0" stroke-linecap="butt"/><g data-paper-data="{&quot;index&quot;:null}" stroke="none" stroke-width="1" stroke-linecap="butt"><path d="M346.84375,238.93182c2.94185,0 5.60942,2.1048 7.53951,5.50784c1.93211,3.401 3.12673,8.10024 3.12673,13.28505c0,5.18481 -1.19462,9.88405 -3.12673,13.28505c-1.93009,3.40304 -4.59766,5.50784 -7.53951,5.50784c-2.94185,0 -8.41053,-7.03212 -8.41053,-7.03212l4.49468,-11.32525l-4.71244,-13.0673c0,0 5.68643,-6.16111 8.62828,-6.16111z" data-paper-data="{&quot;origPos&quot;:null}" id="ID0.3999869367107749" fill="#3a2400"/><path d="M346.43374,242.60944c2.29419,0 4.37448,1.64142 5.87966,4.29526c1.50674,2.65225 2.43837,6.31694 2.43837,10.36029c0,4.04336 -0.93161,7.70803 -2.43837,10.36029c-1.50519,2.65385 -3.58547,4.29526 -5.87966,4.29526c-2.29418,0 -6.75246,-4.70974 -6.75246,-4.70974l6.21498,-10.57398l-5.61057,-7.86774c0,0 3.85385,-6.15962 6.14804,-6.15962z" data-paper-data="{&quot;origPos&quot;:null}" id="ID0.3999869367107749" fill="#000000"/><path d="M344.35727,244.17998c1.54203,0 2.93779,1.46296 3.94957,3.82865c1.01178,2.36278 1.63752,5.6283 1.63752,9.23344c0,3.60516 -0.62575,6.87065 -1.63752,9.23345c-1.01177,2.36571 -2.40753,3.82865 -3.94957,3.82865c-1.54203,0 -3.94955,-3.82865 -3.94955,-3.82865l4.45962,-8.14467l-4.45962,-10.3222c0,0 2.40752,-3.82865 3.94955,-3.82865z" data-paper-data="{&quot;origPos&quot;:null}" id="ID0.31420128559693694" fill="#ffffff"/></g><path d="M353.7808,311.76877c0,-11.33905 13.45897,7.83918 28.73234,7.83918c15.27336,0 26.5774,-19.17823 26.5774,-7.83918c0,11.33905 -12.38151,20.53117 -27.65487,20.53117c-15.27336,0 -27.65487,-9.19211 -27.65487,-20.53117z" data-paper-data="{&quot;index&quot;:null}" fill="#ffffff" stroke="#e5e5e5" stroke-width="2" stroke-linecap="butt"/><g data-paper-data="{&quot;index&quot;:null}" stroke="none" stroke-width="0" stroke-linecap="butt"><path d="M342.45475,293.31119c0,-13.70995 12.67397,-24.82405 28.30813,-24.82405c15.63415,0 28.30813,11.11411 28.30813,24.82405c0,13.70995 -12.67397,24.82405 -28.30813,24.82405c-15.63415,0 -28.30813,-11.11411 -28.30813,-24.82405z" data-paper-data="{&quot;origPos&quot;:null}" fill="#ffffff"/><path d="M349.85843,278.50387c0,-5.53208 6.62947,-10.01672 14.80733,-10.01672c8.17786,0 14.80733,4.48463 14.80733,10.01672c0,5.53208 -6.62947,10.01672 -14.80733,10.01672c-8.17786,0 -14.80733,-4.48463 -14.80733,-10.01672z" data-paper-data="{&quot;origPos&quot;:null}" fill="#000000"/><path d="M350.72946,273.27775c0,-3.12684 3.89969,-5.66163 8.71019,-5.66163c4.8105,0 8.71019,2.53479 8.71019,5.66163c0,3.12684 -3.89969,5.66163 -8.71019,5.66163c-4.8105,0 -8.71019,-2.53479 -8.71019,-5.66163z" data-paper-data="{&quot;origPos&quot;:null}" fill="#ffffff"/></g><path d="M369.2225,287.78612l5.51646,18.00106" data-paper-data="{&quot;index&quot;:null}" fill="none" stroke="#000000" stroke-width="1.5" stroke-linecap="round"/><path d="M360.55421,303.85833c-0.40499,-6.7498 6.5419,-3.90088 14.50575,-7.96784c2.36334,-1.20691 5.0628,-15.9352 11.53817,-15.81616c9.61745,0.1768 6.72501,23.40614 -3.54392,32.784c-10.26893,9.37786 -21.86854,1.52428 -22.5,-9z" fill="#000000" stroke="#000000" stroke-width="2" stroke-linecap="round"/><path d="M389.14689,281.89141c4.26704,0.33552 3.84887,5.40564 3.38348,11.32443c-0.4654,5.91879 -0.80179,10.44493 -5.06883,10.10941c-4.26704,-0.33552 -7.34887,-5.40564 -6.88348,-11.32443c0.4654,-5.91879 4.30179,-10.44493 8.56883,-10.10941z" fill="#ff001d" stroke="none" stroke-width="0" stroke-linecap="butt"/><path d="M360.55422,303.85833c-0.40499,-6.7498 6.5419,-3.90088 14.50574,-7.96784c2.36334,-1.20691 5.06281,-15.9352 11.53818,-15.81616c9.61745,0.1768 6.72501,23.40614 -3.54392,32.784c-10.26893,9.37786 -21.86854,1.52427 -22.5,-9z" fill="none" stroke="#000000" stroke-width="2" stroke-linecap="round"/></g></g></svg>