<svg version="1.1" xmlns="http://www.w3.org/2000/svg" xmlns:xlink="http://www.w3.org/1999/xlink" width="175.43343" height="317.61245" viewBox="0,0,175.43343,317.61245"><g transform="translate(-143.27276,-101.5794)"><g data-paper-data="{&quot;isPaintingLayer&quot;:true}" fill-rule="nonzero" stroke-linejoin="miter" stroke-miterlimit="10" stroke-dasharray="" stroke-dashoffset="0" style="mix-blend-mode: normal"><path d="M167.77359,286.03375c0,0 23.05849,-29.1456 36.20466,-38.3218c13.33646,-9.30901 43.25141,-17.13953 43.25141,-17.13953" data-paper-data="{&quot;origRot&quot;:0}" fill="none" stroke="#000000" stroke-width="9" stroke-linecap="round"/><path d="M314.20619,243.78391c0,0 -0.54469,13.977 -10.48984,12.49162c-17.30712,-2.58494 -69.13902,-15.62512 -69.13902,-15.62512" data-paper-data="{&quot;origRot&quot;:0,&quot;index&quot;:null}" fill="none" stroke="#000000" stroke-width="9" stroke-linecap="round"/><path d="M236.18884,293.65097l0.95405,-81.13262" data-paper-data="{&quot;origRot&quot;:0}" id="ID0.8172772801481187" fill="none" stroke="#000000" stroke-width="9" stroke-linecap="round"/><path d="M262.80936,412.79325l-13.3095,0.26626l-13.50543,-118.29675" data-paper-data="{&quot;origRot&quot;:0}" id="ID0.7014842056669295" fill="none" stroke="#000000" stroke-width="9" stroke-linecap="round"/><path d="M235.5762,414.69186l-12.32128,-1.63231l12.55614,-118.29677" data-paper-data="{&quot;origRot&quot;:0,&quot;index&quot;:null}" id="ID0.7014842056669295" fill="none" stroke="#000000" stroke-width="9" stroke-linecap="round"/><path d="M233.2331,138.65209c26.50901,-3.5647 50.82081,14.53168 54.30196,40.41939c3.48115,25.8877 -15.18662,49.76359 -41.69561,53.32828c-26.50901,3.5647 -50.82081,-14.53168 -54.30196,-40.41939c-3.48114,-25.8877 15.18662,-49.76359 41.69561,-53.32828z" data-paper-data="{&quot;index&quot;:null}" fill="#dbe6e9" stroke="#000000" stroke-width="9" stroke-linecap="butt"/><path d="M238.46816,146.35315c22.57408,-3.03556 43.35735,12.97142 46.42076,35.7526c3.06341,22.78118 -12.7531,43.70978 -35.32717,46.74534c-22.57407,3.03556 -43.35735,-12.97142 -46.42076,-35.7526c-3.06341,-22.78118 12.7531,-43.70978 35.32717,-46.74534z" data-paper-data="{&quot;index&quot;:null}" fill="#ffffff" stroke="none" stroke-width="0" stroke-linecap="butt"/><path d="M240.66823,213.68136c0,0 -4.558,0.79339 -6.97156,0.64086c-1.77292,-0.11204 -3.75579,-1.31878 -3.75579,-1.31878" id="ID0.6053896984085441" fill="none" stroke="#000000" stroke-width="2" stroke-linecap="round"/><path d="M176.73576,177.65978l-13.2454,6.12716l-0.9204,-4.6455l-16.85558,-26.02049l28.11164,-6.03213c0,0 8.21994,-4.87984 12.55018,-9.6513c2.9394,-3.23891 6.07735,-10.87427 6.07735,-10.87427c0,0 5.70967,1.7015 7.25354,5.557c0.85437,2.13361 -1.10837,9.78933 -1.10837,9.78933l9.94175,-12.12595c0,0 2.65479,-8.86093 7.16839,-9.09606c4.5136,-0.23514 14.36959,7.97405 14.36959,7.97405l0.38861,-9.47219l3.72527,3.14298l0.88433,-4.92696l29.09644,-13.89966c0,0 5.32541,8.37543 3.93105,13.79826c-1.39436,5.42282 -9.48404,7.79802 -9.48404,7.79802c0,0 8.42971,-2.5815 13.03475,-4.83683c5.39167,-2.64058 12.58057,-7.70832 12.58057,-7.70832l2.95316,16.28418l19.41939,-18.55513c0,0 8.10434,23.04942 6.83144,36.33775c-1.33418,13.92815 -7.98309,22.55822 -19.45243,32.61749c-3.26323,2.86203 -3.43134,7.9497 -3.43134,7.9497l-19.09509,-8.94228c0,0 -9.49004,10.75006 -16.88469,12.99497c-7.39465,2.24492 -15.41159,-6.03694 -15.41159,-6.03694c0,0 -3.73141,8.88594 -10.47876,10.45492c-6.74736,1.56898 -19.35433,-0.47022 -19.35433,-0.47022c0,0 -3.87789,7.89136 -7.28103,9.98006c-3.40313,2.0887 -23.15454,8.70006 -23.15454,8.70006c0,0 0.7984,-3.5153 1.47041,-7.20557c0.73018,-4.00975 -8.38769,-0.02916 -8.38769,-0.02916z" data-paper-data="{&quot;index&quot;:null,&quot;origRot&quot;:0}" fill="#5ef3a3" stroke="#2abc90" stroke-width="3" stroke-linecap="butt"/><path d="M263.23238,190.56717c0.83236,6.18989 -0.04701,11.41676 -1.96414,11.67456c-1.91713,0.2578 -4.14603,-4.5511 -4.97839,-10.74098c-0.83236,-6.18989 0.04702,-11.41676 1.96415,-11.67456c1.91713,-0.2578 4.14603,4.55111 4.97839,10.74098z" fill="#000000" stroke="#000000" stroke-width="2" stroke-linecap="butt"/><path d="M246.86373,192.76828c0.83236,6.18989 -0.04702,11.41676 -1.96415,11.67456c-1.91714,0.2578 -4.14604,-4.5511 -4.9784,-10.74098c-0.83236,-6.18989 0.04702,-11.41676 1.96416,-11.67456c1.91714,-0.2578 4.14603,4.55111 4.97839,10.74098z" fill="#000000" stroke="#000000" stroke-width="2" stroke-linecap="butt"/><g fill="#5ef3a3" stroke="#2abc90" stroke-width="2.5" stroke-linecap="butt"><path d="M265.02804,239.10073c-0.58438,2.30635 5.06992,2.91203 1.02042,5.35989c-2.33869,1.41371 -4.20306,0.68532 -6.93018,0.86099c-8.18136,0.52701 -30.96929,1.55411 -50.51544,-1.25471c-6.09842,-0.87635 0.88464,-2.12124 1.00048,-4.39142c0.12591,-2.4677 -10.10774,-1.90824 -1.93142,-6.78163c2.80244,-1.67037 38.35443,-3.10792 59.46524,0.77863c9.00246,1.65737 -1.40922,2.66607 -2.1091,5.42825z" data-paper-data="{&quot;origPos&quot;:null}"/><path d="M212.23229,248.34256c4.79813,2.25826 1.25927,19.33135 -2.25019,26.53234c-3.50946,7.20099 -7.04298,3.78012 -11.84111,1.52187c-4.79813,-2.25826 -9.04394,-2.49875 -5.53447,-9.69975c3.50946,-7.20099 14.82764,-20.61272 19.62577,-18.35446z" data-paper-data="{&quot;origPos&quot;:null,&quot;origRot&quot;:0,&quot;index&quot;:null}"/><path d="M203.0349,244.9734c2.10634,4.86673 -11.8375,15.33493 -19.2317,18.41657c-7.3942,3.08164 -7.78309,-1.8211 -9.88943,-6.68783c-2.10634,-4.86673 -5.1325,-7.85455 2.2617,-10.93619c7.3942,-3.08164 24.75309,-5.6593 26.85944,-0.79255z" data-paper-data="{&quot;origPos&quot;:null,&quot;origRot&quot;:0,&quot;index&quot;:null}"/></g><path d="M226.75,184.05019v-12l43,4l-16.5,10.5z" fill="#5ef3a3" stroke="none" stroke-width="0" stroke-linecap="butt"/></g></g></svg>