<svg version="1.1" xmlns="http://www.w3.org/2000/svg" xmlns:xlink="http://www.w3.org/1999/xlink" width="265.50989" height="328.32217" viewBox="0,0,265.50989,328.32217"><defs><radialGradient cx="397.91032" cy="144.27419" r="53.51498" gradientUnits="userSpaceOnUse" id="color-1"><stop offset="0" stop-color="#15ff00"/><stop offset="1" stop-color="#00b475"/></radialGradient></defs><g transform="translate(-158.74626,-67.19204)"><g data-paper-data="{&quot;isPaintingLayer&quot;:true}" fill-rule="nonzero" stroke-linejoin="miter" stroke-miterlimit="10" stroke-dasharray="" stroke-dashoffset="0" style="mix-blend-mode: normal"><path d="M179.4859,392.61193l31.17074,-89.81818" data-paper-data="{&quot;origRot&quot;:0,&quot;index&quot;:null}" fill="none" stroke="#000000" stroke-width="5" stroke-linecap="round"/><path d="M259.5642,300.634c0,0 9.7374,23.26634 11.90496,39.78393c2.5635,19.53497 0.2178,52.59628 0.2178,52.59628" data-paper-data="{&quot;origRot&quot;:0,&quot;index&quot;:null}" fill="none" stroke="#000000" stroke-width="5" stroke-linecap="round"/><path d="M313.92441,219.98528c0,0 -16.04812,12.20905 -22.17838,2.70414c-7.13337,-11.06023 -19.34048,-42.24634 -19.34048,-42.24634" data-paper-data="{&quot;origRot&quot;:0,&quot;index&quot;:null}" fill="none" stroke="#000000" stroke-width="5" stroke-linecap="round"/><path d="M174.20526,245.38874l25.80037,-63.67546" data-paper-data="{&quot;origRot&quot;:0,&quot;index&quot;:null}" fill="none" stroke="#000000" stroke-width="5" stroke-linecap="round"/><path d="M181.73886,307.76566l18.43964,-134.76096l73.74227,3.99202l3.78405,135.96401z" data-paper-data="{&quot;origRot&quot;:0,&quot;index&quot;:null}" fill="#0d9900" stroke="#000000" stroke-width="2" stroke-linecap="butt"/><path d="M216.84347,180.05311l-2.42222,44.74471" data-paper-data="{&quot;origRot&quot;:0,&quot;index&quot;:null}" fill="#0a6e00" stroke="#0a6e00" stroke-width="3.5" stroke-linecap="round"/><path d="M257.56884,183.57766l-2.42222,44.74471" data-paper-data="{&quot;origRot&quot;:0,&quot;index&quot;:null}" fill="#0a6e00" stroke="#0a6e00" stroke-width="3.5" stroke-linecap="round"/><path d="M260.11736,227.93152c-0.14754,2.72556 -2.47665,4.81545 -5.20223,4.66791c-2.72556,-0.14754 -4.81546,-2.47665 -4.66791,-5.20223c0.14756,-2.72558 2.47663,-4.81546 5.20221,-4.66794c2.72558,0.14754 4.81546,2.47665 4.66791,5.20223z" data-paper-data="{&quot;origRot&quot;:0,&quot;index&quot;:null}" fill="#0a6e00" stroke="#0a6e00" stroke-width="0.5" stroke-linecap="butt"/><path d="M213.9229,229.94038c-2.72556,-0.14754 -4.81546,-2.47665 -4.66791,-5.20223c0.14756,-2.72558 2.47663,-4.81546 5.20221,-4.66794c2.72558,0.14754 4.81548,2.47665 4.66794,5.20223c-0.14754,2.72558 -2.47665,4.81546 -5.20223,4.66794z" data-paper-data="{&quot;origRot&quot;:0,&quot;index&quot;:null}" fill="#0a6e00" stroke="#0a6e00" stroke-width="0.5" stroke-linecap="butt"/><path d="M292.16147,139.48528c-1.66106,30.68451 -27.88236,54.21265 -58.56688,52.55156c-30.68453,-1.66107 -54.21266,-27.88236 -52.55156,-58.5669c1.6611,-30.68451 27.88239,-54.21266 58.5669,-52.55156c30.68453,1.66107 54.21266,27.88239 52.55159,58.5669z" data-paper-data="{&quot;origRot&quot;:0,&quot;index&quot;:null}" fill="#ffe8bb" stroke="#000000" stroke-width="2" stroke-linecap="butt"/><path d="M207.81439,111.98211c0,0 -25.45872,17.15452 -25.86421,17.00854c-7.46723,-2.68807 -1.46227,-8.03494 0.74187,-14.04005c0.73475,-2.00169 5.55844,-10.45727 5.55844,-10.45727c0,0 15.21453,-12.36401 24.98183,-17.00479c13.38927,-6.36173 20.5637,-9.75208 35.30467,-8.18724c21.32698,2.26399 39.4761,29.24591 42.16746,33.0305c2.27937,3.20527 4.69393,16.35958 4.15512,20.25557c-0.41125,2.97351 -2.6612,13.67797 -5.62051,13.17461c-3.11582,-0.52998 -18.26348,-26.80572 -18.26348,-26.80572" data-paper-data="{&quot;origRot&quot;:0,&quot;index&quot;:null}" fill="#3b2c00" stroke="#000000" stroke-width="3" stroke-linecap="round"/><path d="M233.6144,173.62042c0,0 -3.06976,-0.51075 -5.06953,-1.48423c-1.655,-0.80561 -4.29539,-3.07447 -4.29539,-3.07447" data-paper-data="{&quot;origRot&quot;:0,&quot;index&quot;:null}" fill="none" stroke="#000000" stroke-width="5" stroke-linecap="round"/><path d="M261.52441,294.18624c0,0 -5.47548,-3.47161 -8.62451,-8.26817c-1.9647,-2.99264 -2.17647,-10.55287 -2.17647,-10.55287" data-paper-data="{&quot;origRot&quot;:0,&quot;index&quot;:null}" fill="none" stroke="#0a6e00" stroke-width="5" stroke-linecap="round"/><path d="M213.01047,273.32362c0,0 -1.02665,7.49322 -3.30295,10.25625c-3.64843,4.42857 -9.46665,7.28879 -9.46665,7.28879" data-paper-data="{&quot;index&quot;:null,&quot;origRot&quot;:0}" fill="none" stroke="#0a6e00" stroke-width="5" stroke-linecap="round"/><path d="M256.26942,156.50071v-11.43157" data-paper-data="{&quot;index&quot;:null}" fill="none" stroke="#000000" stroke-width="10" stroke-linecap="round"/><path d="M233.40628,143.79898v12.70173" data-paper-data="{&quot;index&quot;:null}" fill="none" stroke="#000000" stroke-width="10" stroke-linecap="round"/><path d="M243.56767,147.60951l-20.32279,-6.35087v-5.08069h43.18592v5.08069z" data-paper-data="{&quot;index&quot;:null}" fill="#ffe8bb" stroke="none" stroke-width="NaN" stroke-linecap="butt"/><path d="M270.58594,118.18381c0,0 -0.34689,19.13611 -8.44441,18.44691c-7.93527,-0.6754 -4.70783,-12.29858 -11.97997,-15.54523c-4.78545,-2.13643 -2.65819,15.46295 -7.83757,14.6636c-4.53892,-0.70054 -12.0406,-19.29729 -16.31364,-17.61379c-6.25452,2.46415 -9.81162,15.6698 -16.41369,14.40346c-7.78848,-1.49391 -1.3176,-21.05552 -1.3176,-21.05552" data-paper-data="{&quot;origRot&quot;:0,&quot;index&quot;:null}" fill="#3b2c00" stroke="#000000" stroke-width="3" stroke-linecap="round"/><g data-paper-data="{&quot;index&quot;:null}"><path d="M181.27217,237.00865l-17.70797,33.34018l-4.81794,-2.55895l17.70797,-33.34021z" data-paper-data="{&quot;origRot&quot;:0,&quot;index&quot;:null}" fill="#000000" stroke="none" stroke-width="0" stroke-linecap="butt"/><path d="M181.5159,236.75402l-4.66997,-2.78172l2.00409,-4.25884l4.91265,2.80651z" data-paper-data="{&quot;origRot&quot;:0,&quot;index&quot;:null}" fill="#000000" stroke="none" stroke-width="0" stroke-linecap="butt"/><path d="M204.74327,184.50906l-22.69851,47.53577l-3.4668,-1.59224l23.04764,-47.37166z" data-paper-data="{&quot;origRot&quot;:0,&quot;index&quot;:null}" fill="#116700" stroke="none" stroke-width="0" stroke-linecap="butt"/><path d="M222.32243,132.97077l0.27479,5.70099c0,0 -5.00501,14.39497 -8.0081,22.02508c-3.16569,8.04316 -10.52392,25.06011 -10.52392,25.06011l-3.93051,0.36581l20.05087,-48.50236z" data-paper-data="{&quot;origRot&quot;:0,&quot;index&quot;:null}" fill="#116700" stroke="none" stroke-width="0" stroke-linecap="butt"/><path d="M206.31625,185.33385l-22.69851,47.53577l-3.4668,-1.59224l23.04762,-47.37166z" data-paper-data="{&quot;origRot&quot;:0,&quot;index&quot;:null}" fill="#1fb800" stroke="none" stroke-width="0" stroke-linecap="butt"/><path d="M224.17019,139.49663c0,0 -5.00501,14.39499 -8.0081,22.02511c-3.16569,8.04316 -10.52392,25.06008 -10.52392,25.06008l-3.93051,0.36581l20.05089,-48.50237z" data-paper-data="{&quot;origRot&quot;:0,&quot;index&quot;:null}" fill="#1fb800" stroke="none" stroke-width="0" stroke-linecap="butt"/><path d="M223.73441,129.30968c0,0 1.26448,3.33649 1.40907,5.28829c0.1039,1.40294 -1.23011,5.89649 -1.23011,5.89649l-1.03477,0.02499l-1.17907,-1.66265c0,0 0.2717,-1.70224 0.35689,-2.71551c0.07414,-0.88213 0.12574,-3.02527 0.12574,-3.02527z" data-paper-data="{&quot;origRot&quot;:0,&quot;index&quot;:null}" fill="#1fb800" stroke="none" stroke-width="0" stroke-linecap="butt"/><path d="M185.03438,238.77668l-11.75612,-6.39856" data-paper-data="{&quot;origRot&quot;:0,&quot;index&quot;:null}" fill="none" stroke="#000000" stroke-width="2.5" stroke-linecap="round"/></g><g data-paper-data="{&quot;index&quot;:null}"><path d="M320.99131,211.60518l-17.70797,33.34018l-4.81794,-2.55895l17.70797,-33.34021z" data-paper-data="{&quot;origRot&quot;:0,&quot;index&quot;:null}" fill="#000000" stroke="none" stroke-width="0" stroke-linecap="butt"/><path d="M321.23503,211.35054l-4.66995,-2.78172l2.00407,-4.25884l4.91265,2.80651z" data-paper-data="{&quot;origRot&quot;:0,&quot;index&quot;:null}" fill="#000000" stroke="none" stroke-width="0" stroke-linecap="butt"/><path d="M344.46245,159.1056l-22.69853,47.53577l-3.46682,-1.59224l23.04764,-47.37166z" data-paper-data="{&quot;origRot&quot;:0,&quot;index&quot;:null}" fill="#116700" stroke="none" stroke-width="0" stroke-linecap="butt"/><path d="M362.04155,107.56726l0.27479,5.70099c0,0 -5.00501,14.39499 -8.0081,22.02511c-3.16566,8.04316 -10.52392,25.06011 -10.52392,25.06011l-3.9305,0.36583l20.05087,-48.50236z" data-paper-data="{&quot;origRot&quot;:0,&quot;index&quot;:null}" fill="#116700" stroke="none" stroke-width="0" stroke-linecap="butt"/><path d="M346.0354,159.93038l-22.69853,47.53577l-3.4668,-1.59224l23.04762,-47.37166z" data-paper-data="{&quot;origRot&quot;:0,&quot;index&quot;:null}" fill="#1fb800" stroke="none" stroke-width="0" stroke-linecap="butt"/><path d="M363.88932,114.09315c0,0 -5.00501,14.39499 -8.0081,22.02511c-3.16566,8.04319 -10.52392,25.06008 -10.52392,25.06008l-3.93051,0.36581l20.05089,-48.50237z" data-paper-data="{&quot;origRot&quot;:0,&quot;index&quot;:null}" fill="#1fb800" stroke="none" stroke-width="0" stroke-linecap="butt"/><path d="M363.45354,103.90619c0,0 1.26448,3.3365 1.40907,5.28831c0.10392,1.40294 -1.23011,5.89649 -1.23011,5.89649l-1.03477,0.02497l-1.17907,-1.66263c0,0 0.27171,-1.70226 0.35686,-2.71553c0.07417,-0.88211 0.12576,-3.02525 0.12576,-3.02525z" data-paper-data="{&quot;origRot&quot;:0,&quot;index&quot;:null}" fill="#1fb800" stroke="none" stroke-width="0" stroke-linecap="butt"/><path d="M324.75352,213.37319l-11.75614,-6.39856" data-paper-data="{&quot;origRot&quot;:0,&quot;index&quot;:null}" fill="none" stroke="#000000" stroke-width="2.5" stroke-linecap="round"/></g><path d="M424.25615,207.66885c0,77.5832 -7.74075,140.47681 -17.28946,140.47681c-9.5487,0 -17.28946,-62.89361 -17.28946,-140.47681c0,-77.5832 7.74075,-140.47681 17.28946,-140.47681c9.5487,0 17.28946,62.89361 17.28946,140.47681z" fill="url(#color-1)" stroke="none" stroke-width="0" stroke-linecap="butt"/></g></g></svg>