<svg version="1.1" xmlns="http://www.w3.org/2000/svg" xmlns:xlink="http://www.w3.org/1999/xlink" width="550.25806" height="431.31105" viewBox="0,0,550.25806,431.31105"><defs><linearGradient x1="34.66218" y1="73.10519" x2="74.27961" y2="73.10519" gradientUnits="userSpaceOnUse" id="color-1"><stop offset="0" stop-color="#ffa48c"/><stop offset="1" stop-color="#ff8ca2"/></linearGradient></defs><g transform="translate(40.54838,34.61288)"><g data-paper-data="{&quot;isPaintingLayer&quot;:true}" fill-rule="nonzero" stroke-linejoin="miter" stroke-miterlimit="10" stroke-dasharray="" stroke-dashoffset="0" style="mix-blend-mode: normal"><path d="M-39.54838,389.0968v-422.70968h548.25806v422.70968z" fill="#f5f5f5" stroke="#000000" stroke-width="2" stroke-linecap="butt"/><g stroke-width="1.5" stroke-linecap="butt"><path d="M406.10487,322.07847c9.70867,18.81831 -23.90635,8.66918 -29.62941,8.62444c-3.65418,-0.02856 -29.27012,7.46068 -29.29524,-6.59703c-0.00722,-4.03642 9.17005,-5.26152 13.18281,-5.69793c2.2897,-0.24901 9.47171,-0.70668 9.47171,-0.70668c0,0 -0.04571,-9.74876 0.30143,-10.33771c1.61308,-2.73667 2.52714,-2.65312 7.41405,-2.81834c0,0 2.28302,-0.48315 3.55225,2.68744c0.82358,2.05734 0.17719,8.28738 0.92192,10.37457c0,0 5.21091,0.43546 6.30699,0.40713c5.13419,-0.13275 15.38094,-0.57336 17.77348,4.06411z" data-paper-data="{&quot;origRot&quot;:0}" fill="#ffe9cc" stroke="#000000"/><path d="M376.34663,319.21981c-3.31916,0.1139 -6.3276,-4.93656 -6.3276,-7.15065c0,-2.21409 2.6923,-4.00895 6.01343,-4.00895c3.32112,0 5.61962,1.32361 5.61962,3.5377c0,0 -0.72766,7.46482 -5.30545,7.62189z" fill="#e3d0b6" stroke="none"/></g><path d="M405.84129,391.94134c-2.25713,-3.32328 1.14883,-10.2495 0.40904,-13.71726c-1.68467,-7.89683 -3.60459,-17.10673 -3.60459,-20.20717c0,-4.59282 0.47126,-13.98054 0.47126,-13.98054l10.68176,-0.31418c0,0 0.4422,9.50915 0.90748,14.03262c0.27653,2.68859 -0.48409,11.97922 -0.93666,20.25403c-0.32798,5.99673 -0.2721,8.28859 -1.4819,10.59115c-1.20981,2.30257 -4.18923,6.66462 -6.44637,3.34134z" data-paper-data="{&quot;index&quot;:null}" fill="#ffe9cc" stroke="#000000" stroke-width="1.5" stroke-linecap="butt"/><path d="M344.60137,391.40195c-1.20981,-2.30257 -1.15393,-4.59443 -1.4819,-10.59115c-0.45258,-8.27481 -1.2132,-17.56544 -0.93666,-20.25403c0.46527,-4.52347 0.90748,-14.03262 0.90748,-14.03262l10.68176,0.31417c0,0 0.47126,9.38772 0.47126,13.98054c0,3.10044 -1.91992,12.31034 -3.60459,20.20717c-0.7398,3.46776 2.66617,10.39398 0.40904,13.71726c-2.25712,3.32328 -5.23656,-1.03877 -6.44637,-3.34133z" fill="#ffe9cc" stroke="#000000" stroke-width="1.5" stroke-linecap="butt"/><path d="M365.94835,316.22077c0.0054,0.15963 -0.02257,0.29013 -0.06248,0.29148c-0.0399,0.00134 -0.07663,-0.12695 -0.08203,-0.28658c-0.0054,-0.15963 0.02258,-0.29013 0.06249,-0.29148c0.0399,-0.00134 0.07663,0.12696 0.08202,0.28659z" data-paper-data="{&quot;origRot&quot;:0}" fill="#e7e69d" stroke="none" stroke-width="1.5" stroke-linecap="butt"/><path d="M398.20363,287.07558c0,0 -1.00297,12.55873 -4.67945,17.05467c-5.1218,6.26344 -14.23479,10.52749 -18.21173,10.32599c-2.34367,-0.11875 -10.43292,-2.70765 -16.65907,-8.31864c-3.43895,-3.09918 -8.0783,-13.00046 -7.81581,-19.39561c0.26736,-6.514 -0.34292,-26.71996 21.91242,-27.47222c29.26712,-0.98926 25.45364,27.80581 25.45364,27.80581z" data-paper-data="{&quot;origRot&quot;:0}" fill="#ffe9cc" stroke="#000000" stroke-width="1.5" stroke-linecap="butt"/><path d="M363.46074,293.41991c0,2.21227 -0.80879,4.00566 -1.80648,4.00566c-0.99769,0 -1.80648,-1.79339 -1.80648,-4.00566c0,-2.21226 0.80879,-4.00566 1.80648,-4.00566c0.99769,0 1.80648,1.7934 1.80648,4.00566z" fill="#000000" stroke="#000000" stroke-width="1.5" stroke-linecap="butt"/><path d="M388.31489,293.29341c0,2.21227 -0.80879,4.00566 -1.80648,4.00566c-0.99769,0 -1.80648,-1.79339 -1.80648,-4.00566c0,-2.21226 0.80879,-4.00566 1.80648,-4.00566c0.99769,0 1.80648,1.7934 1.80648,4.00566z" fill="#000000" stroke="#000000" stroke-width="1.5" stroke-linecap="butt"/><g stroke-width="1.5" stroke-linecap="butt"><path d="M356.62672,353.01244c0.09828,-2.61461 -0.9074,-5.90185 -0.83216,-8.33282c0.10295,-3.3259 1.80416,-6.42008 1.54534,-8.2974c-0.07438,-0.53958 -2.06989,11.02034 -2.06989,11.02034c0,0 -3.90403,1.18682 -8.05303,0.75488c-3.73946,-0.3893 -7.70739,-2.38838 -8.68068,-2.60944c-1.97144,-0.44778 5.12826,-12.61586 5.11694,-12.97179c-0.09348,-2.94258 -0.68086,-5.49004 2.08885,-8.60275c0.88507,-0.99468 7.183,3.95285 12.20526,1.6167c1.96543,0.64967 -0.99725,-8.3042 1.14457,-7.39471c1.3659,-0.49382 3.3188,-0.57492 4.29452,-0.66011c2.60414,-0.22737 3.05711,0.47784 3.05711,0.47784c0,0 6.40109,7.04815 9.90308,6.82355c3.1744,0.06345 7.33716,-6.40238 8.80982,-7.32047c0.43863,0.18627 6.2581,-0.7523 7.00752,0.45586c0.63545,1.02443 0.4466,6.91052 1.45902,7.26185c6.15168,2.13472 12.51322,-3.75358 12.4776,-3.47217c0.42959,0.38158 5.26404,4.91742 4.38797,9.15825c-0.67005,3.2435 4.59856,6.36095 5.79524,13.37748c0.2381,1.39611 -4.15898,2.98808 -8.30121,2.97436c-4.14182,-0.0137 -8.02876,-1.63302 -8.02876,-1.63302c0,0 -1.58512,-11.6165 -1.53993,-10.14824c0.1065,3.45982 1.92134,5.39923 1.56603,9.81847c-0.09445,1.17482 -1.8926,5.16369 -1.91697,8.01431c-0.06957,8.13498 1.21904,14.03582 5.43533,26.87758c3.3107,10.08354 -8.07662,5.53559 -17.71514,5.49561c-1.54779,-0.00641 -3.54269,0.06282 -5.79465,0.15757c-11.77167,0.49531 -30.56693,1.6879 -29.23448,-3.58376c3.33967,-13.21289 5.58374,-21.57012 5.87271,-29.25798z" data-paper-data="{&quot;origRot&quot;:0}" fill="#fff983" stroke="#000000"/><g fill="#d8d26e" stroke="none"><path d="M398.4648,338.59273c0.04247,1.25593 -0.85414,2.53127 -2.41009,3.76372c-8.82064,6.9867 -38.831,12.59496 -39.07171,5.47511c-0.28316,-8.37578 7.33849,-3.57934 16.34472,-3.88383c9.00622,-0.30448 24.85392,-13.73077 25.1371,-5.35499z" data-paper-data="{&quot;origRot&quot;:0}"/><path d="M357.09975,360.56203c1.94781,-11.57055 0.04584,-11.46781 0.04584,-11.46781c0,0 23.05044,-4.88161 34.83291,-7.72842c3.07604,-0.74321 5.67685,-2.81152 6.55225,-2.88427c0.77936,-0.06476 0.75616,7.11085 0.75616,7.11085c0,0 -1.83693,6.63077 -1.68848,11.02175c0.11476,3.39469 5.9832,26.13745 5.9832,26.13745c0,0 0.5545,2.74067 -1.81824,3.01575c-3.14039,0.36409 -15.37518,-1.02238 -15.37518,-1.02238c0,0 -16.93599,0.82044 -23.29633,0.57968c-0.3569,-0.01351 -10.36446,0.22579 -10.88035,-1.92546c-0.7424,-3.0958 2.94039,-11.26659 4.88821,-22.83714z" data-paper-data="{&quot;origRot&quot;:0}"/></g></g><g fill="#2c1500" stroke="#000000" stroke-width="1.5" stroke-linecap="butt"><path d="M394.81613,258.60913c0,6.38291 -8.55355,11.55728 -19.10489,11.55728c-10.55134,0 -19.10489,-5.17437 -19.10489,-11.55728c0,-6.38291 8.55355,-11.55728 19.10489,-11.55728c10.55134,0 19.10489,5.17437 19.10489,11.55728z"/><path d="M394.14633,276.93621c0,0 4.21482,12.52945 1.0325,11.25877c-9.75968,-3.89699 -11.1479,-8.09289 -11.80836,-7.50198c-9.91303,8.8691 -20.14188,7.58413 -21.15883,5.61101c-0.77981,-1.51299 14.98958,-8.54649 16.12463,-8.29795c-12.37672,3.72608 -23.47791,12.92936 -25.39166,11.63079c-1.91215,-1.2975 5.35622,-8.53905 9.64183,-10.37662c-0.00803,-0.00007 -4.88649,2.8761 -6.9728,5.06849c-2.73081,2.86966 -2.84407,5.24006 -2.85114,5.24001c-0.19734,3.68811 4.95025,21.15679 2.21894,18.60902c-0.46076,-0.42979 -2.7397,-8.39204 -3.73733,-14.40638c-0.80303,-4.84122 -0.40717,-8.08849 -0.38267,-7.66547c0.03214,0.55509 -0.20458,4.2939 0.43067,7.71297c1.19954,6.45626 3.62747,14.19058 3.62747,14.19058c0,0 2.89641,3.77863 1.60933,3.51077c-5.12905,-1.06743 -7.71773,-18.24874 -8.52721,-23.77271c-0.57048,-3.89302 -0.10749,-24.22204 10.68614,-28.98402c13.93585,-6.14828 21.73687,-5.14265 30.62734,-2.01434c14.17437,4.98759 13.6973,22.64212 13.83415,28.69032c0.13846,6.11891 -2.19199,17.97767 -4.00136,22.88467c-0.6586,1.78608 -3.15152,3.14458 -3.28679,2.81466c-0.08912,-0.21734 0.91008,-3.04309 0.89435,-3.42526c-0.07033,-1.70976 1.65068,-8.0508 2.2657,-13.81942c0.46988,-4.40712 -0.09817,-8.82893 -0.27053,-8.52231c-0.18625,0.33136 0.43694,4.00749 0.09784,8.29877c-0.49807,6.30312 -1.98129,13.93338 -2.20565,14.24084c-0.86719,1.18842 -1.25824,-0.2812 -1.25824,-0.2812c0,0 1.45358,-14.51005 1.04516,-19.7187c-0.38722,-4.93847 -2.28349,-10.9753 -2.28349,-10.9753z" data-paper-data="{&quot;origRot&quot;:0}"/></g><path d="M380.72292,302.31245c0,0 -3.38512,1.48993 -5.67376,1.48308c-2.28864,-0.00685 -5.84089,-1.51756 -5.84089,-1.51756" fill="none" stroke="#000000" stroke-width="1.5" stroke-linecap="round"/><path d="M9.10301,261.9917v-253.23621h222.06868v253.23621z" fill="#f5f5f5" stroke="#8e8e8e" stroke-width="3.5" stroke-linecap="butt"/><text transform="translate(17.82641,48.94723) scale(0.33747,0.33747)" font-size="40" xml:space="preserve" fill="#8e8e8e" fill-rule="nonzero" stroke="none" stroke-width="1" stroke-linecap="butt" stroke-linejoin="miter" stroke-miterlimit="10" stroke-dasharray="" stroke-dashoffset="0" font-family="&quot;ヒラギノ角ゴ Pro W3&quot;, &quot;Hiragino Kaku Gothic Pro&quot;, Osaka, &quot;メイリオ&quot;, Meiryo, &quot;ＭＳ Ｐゴシック&quot;, &quot;MS PGothic&quot;" font-weight="normal" text-anchor="start" style="mix-blend-mode: normal"><tspan x="0" dy="0">Joined: 29 April 2017</tspan></text><g stroke="none" stroke-linecap="butt"><path d="M75.38528,91.27755c-10.03632,0 -18.17236,-8.13604 -18.17236,-18.17236c0,-10.03632 8.13604,-18.17236 18.17236,-18.17236c10.03632,0 18.17236,8.13604 18.17236,18.17236c0,10.03632 -8.13604,18.17236 -18.17236,18.17236z" data-paper-data="{&quot;index&quot;:null}" fill="#ff8ca2" stroke-width="0"/><path d="M15.38415,73.10519c0,-10.03632 8.13604,-18.17236 18.17236,-18.17236c10.03632,0 18.17236,8.13604 18.17236,18.17236c0,10.03632 -8.13604,18.17236 -18.17236,18.17236c-10.03632,0 -18.17236,-8.13604 -18.17236,-18.17236z" fill="#ffa48c" stroke-width="0"/><path d="M34.66218,91.20379v-36.19726h39.61743v36.19726z" fill="url(#color-1)" stroke-width="0"/><text transform="translate(21.58212,77.43358) scale(0.3607,0.3607)" font-size="40" xml:space="preserve" fill="#c42d7b" fill-rule="nonzero" stroke="none" stroke-width="1" stroke-linecap="butt" stroke-linejoin="miter" stroke-miterlimit="10" stroke-dasharray="" stroke-dashoffset="0" font-family="&quot;ヒラギノ角ゴ Pro W3&quot;, &quot;Hiragino Kaku Gothic Pro&quot;, Osaka, &quot;メイリオ&quot;, Meiryo, &quot;ＭＳ Ｐゴシック&quot;, &quot;MS PGothic&quot;" font-weight="normal" text-anchor="start" style="mix-blend-mode: normal"><tspan x="0" dy="0">Animator</tspan></text></g><text transform="translate(15.20276,106.15928) scale(0.2979,0.2979)" font-size="40" xml:space="preserve" fill="#8e8e8e" fill-rule="nonzero" stroke="none" stroke-width="1" stroke-linecap="butt" stroke-linejoin="miter" stroke-miterlimit="10" stroke-dasharray="" stroke-dashoffset="0" font-family="&quot;ヒラギノ角ゴ Pro W3&quot;, &quot;Hiragino Kaku Gothic Pro&quot;, Osaka, &quot;メイリオ&quot;, Meiryo, &quot;ＭＳ Ｐゴシック&quot;, &quot;MS PGothic&quot;" font-weight="normal" text-anchor="start" style="mix-blend-mode: normal"><tspan x="0" dy="0">Notable Projects:</tspan></text><text transform="translate(15.20276,130.19153) scale(0.33778,0.43347)" font-size="40" xml:space="preserve" fill="#8e8e8e" fill-rule="nonzero" stroke="none" stroke-width="1" stroke-linecap="butt" stroke-linejoin="miter" stroke-miterlimit="10" stroke-dasharray="" stroke-dashoffset="0" font-family="&quot;ヒラギノ角ゴ Pro W3&quot;, &quot;Hiragino Kaku Gothic Pro&quot;, Osaka, &quot;メイリオ&quot;, Meiryo, &quot;ＭＳ Ｐゴシック&quot;, &quot;MS PGothic&quot;" font-weight="normal" text-anchor="start" style="mix-blend-mode: normal"><tspan x="0" dy="0">Flowers vs. Weeds (Feb 2020)</tspan><tspan x="0" dy="46.150000000000006px">PLEASE SAVEEEE!! (May 2020)</tspan></text><text transform="translate(13.97295,178.99711) scale(0.29708,0.29708)" font-size="40" xml:space="preserve" fill="#8e8e8e" fill-rule="nonzero" stroke="none" stroke-width="1" stroke-linecap="butt" stroke-linejoin="miter" stroke-miterlimit="10" stroke-dasharray="" stroke-dashoffset="0" font-family="&quot;ヒラギノ角ゴ Pro W3&quot;, &quot;Hiragino Kaku Gothic Pro&quot;, Osaka, &quot;メイリオ&quot;, Meiryo, &quot;ＭＳ Ｐゴシック&quot;, &quot;MS PGothic&quot;" font-weight="normal" text-anchor="start" style="mix-blend-mode: normal"><tspan x="0" dy="0">An animator from scratch 3.0, </tspan><tspan x="0" dy="46.150000000000006px">7Sofa's animations are known for</tspan><tspan x="0" dy="46.150000000000006px">being expressive and over-the-top.</tspan></text><text transform="translate(7.69514,344.82012) scale(1.4788,1.4788)" font-size="40" xml:space="preserve" fill="#8e8e8e" fill-rule="nonzero" stroke="none" stroke-width="1" stroke-linecap="butt" stroke-linejoin="miter" stroke-miterlimit="10" stroke-dasharray="" stroke-dashoffset="0" font-family="&quot;ヒラギノ角ゴ Pro W3&quot;, &quot;Hiragino Kaku Gothic Pro&quot;, Osaka, &quot;メイリオ&quot;, Meiryo, &quot;ＭＳ Ｐゴシック&quot;, &quot;MS PGothic&quot;" font-weight="normal" text-anchor="start" style="mix-blend-mode: normal"><tspan x="0" dy="0">11</tspan></text><text transform="translate(15.43462,35.42794) scale(0.13422,0.13422)" font-size="40" xml:space="preserve" fill="#8e8e8e" fill-rule="nonzero" stroke="none" stroke-width="1" stroke-linecap="butt" stroke-linejoin="miter" stroke-miterlimit="10" stroke-dasharray="" stroke-dashoffset="0" font-family="&quot;ヒラギノ角ゴ Pro W3&quot;, &quot;Hiragino Kaku Gothic Pro&quot;, Osaka, &quot;メイリオ&quot;, Meiryo, &quot;ＭＳ Ｐゴシック&quot;, &quot;MS PGothic&quot;" font-weight="normal" text-anchor="start" style="mix-blend-mode: normal"><tspan x="0" dy="0">@7Sofa</tspan></text><text transform="translate(16.61026,29.32808) scale(0.50346,0.50346)" font-size="40" xml:space="preserve" fill="#8e8e8e" fill-rule="nonzero" stroke="none" stroke-width="1" stroke-linecap="butt" stroke-linejoin="miter" stroke-miterlimit="10" stroke-dasharray="" stroke-dashoffset="0" font-family="&quot;ヒラギノ角ゴ Pro W3&quot;, &quot;Hiragino Kaku Gothic Pro&quot;, Osaka, &quot;メイリオ&quot;, Meiryo, &quot;ＭＳ Ｐゴシック&quot;, &quot;MS PGothic&quot;" font-weight="normal" text-anchor="start" style="mix-blend-mode: normal"><tspan x="0" dy="0">Sofa</tspan></text><g stroke-linecap="butt"><text transform="translate(257.05438,341.89318) scale(0.61121,0.61121)" font-size="40" xml:space="preserve" fill="#8e8e8e" fill-rule="nonzero" stroke="none" stroke-width="1" stroke-linecap="butt" stroke-linejoin="miter" stroke-miterlimit="10" stroke-dasharray="" stroke-dashoffset="0" font-family="&quot;ヒラギノ角ゴ Pro W3&quot;, &quot;Hiragino Kaku Gothic Pro&quot;, Osaka, &quot;メイリオ&quot;, Meiryo, &quot;ＭＳ Ｐゴシック&quot;, &quot;MS PGothic&quot;" font-weight="normal" text-anchor="start" style="mix-blend-mode: normal"><tspan x="0" dy="0">2021</tspan></text><path d="M249.94926,360.13683v-118.51155h228.33349v118.51155z" fill="none" stroke="#8e8e8e" stroke-width="3.5"/></g><path d="M407.16155,82.07765l-7.827,5.31118" fill="none" stroke="#000000" stroke-width="1.5" stroke-linecap="round"/><path d="M395.6127,32.22491c3.83277,7.51201 4.12614,15.24174 4.12614,24.99756c0,9.75582 -2.79094,16.67227 -4.12614,24.99758c-0.85064,5.31796 -0.16798,18.25794 -1.68557,16.17555c-2.46679,-2.87703 -6.53695,-18.36303 -7.61253,-27.74889c-1.01304,-8.88389 1.24356,-17.92756 0.65484,-26.84848c-0.42236,-6.35785 -5.54454,-15.38318 -2.86493,-18.7448c1.64203,-2.42521 9.34196,2.94777 11.50818,7.17148z" fill="#402400" stroke="#281700" stroke-width="1.5" stroke-linecap="round"/><path d="M387.96927,31.4303c3.83277,7.51201 4.12614,15.24174 4.12614,24.99756c0,9.75582 -2.79094,16.67227 -4.12614,24.99758c-0.85064,5.31796 -0.16798,18.25794 -1.68557,16.17555c-2.46679,-2.87703 -6.53695,-18.36303 -7.61253,-27.74889c-1.01304,-8.88389 1.24356,-17.92756 0.65484,-26.84848c-0.42236,-6.35785 -5.54454,-15.38318 -2.86493,-18.7448c1.64203,-2.42521 9.34196,2.94777 11.50818,7.17148z" fill="#402400" stroke="#281700" stroke-width="1.5" stroke-linecap="round"/><path d="M388.76201,24.71674c3.52531,-1.74972 12.51041,-4.75709 11.14867,-1.65348c-3.54958,9.50207 -16.81765,16.24595 -20.97128,26.86485c-3.25653,8.32796 0.53663,17.95576 0.65484,26.84848c0.31792,7.35387 3.60457,18.62074 0.65484,21.93718c-1.98646,2.21566 -7.40396,-3.96245 -9.95293,-10.36384c-2.54864,-6.40139 -4.12614,-15.24176 -4.12614,-24.99758c0,-9.75582 -0.02848,-17.66203 4.12614,-24.99756c3.6193,-6.37783 11.62475,-10.2309 18.46588,-13.63805z" fill="#402400" stroke="#281700" stroke-width="1.5" stroke-linecap="round"/><path d="M374.21412,63.46057c5.78361,-2.49514 13.13202,-3.21186 19.00841,-0.55906c3.6524,1.60285 4.15836,7.24219 4.95504,11.26246c1.56037,7.9019 1.32557,16.24045 1.19472,24.51804c0.13085,7.14938 2.6159,15.56117 -1.19472,21.72269c-2.86301,4.63469 -10.18569,4.28136 -15.57739,3.99456c-5.01765,0.28679 -11.69463,0.40308 -14.45923,-3.99456c-3.87827,-6.15705 -2.30504,-14.45701 -2.31288,-21.72269c-0.08441,-8.29381 0.2119,-16.87329 2.2363,-25.15817c0.83916,-3.72006 2.41686,-8.44922 6.14976,-10.06327z" fill="#99b2ff" stroke="none" stroke-width="1.5" stroke-linecap="round"/><g fill="none" stroke="#cccccc" stroke-width="1.5" stroke-linecap="round"><path d="M383.62755,27.27421l16.1951,0.3155"/><path d="M384.35909,33.06354l16.1951,0.3155"/></g><path d="M405.13546,26.97793c3.83277,7.51201 4.12614,15.24174 4.12614,24.99756c0,9.75582 -2.79094,16.67227 -4.12614,24.99758c-0.85064,5.31796 -0.16798,18.25794 -1.68557,16.17555c-2.46679,-2.87703 -6.53695,-18.36303 -7.61253,-27.74889c-1.01304,-8.88389 1.24356,-17.92756 0.65484,-26.84848c-0.42236,-6.35785 -5.54454,-15.38318 -2.86493,-18.7448c1.64203,-2.42521 9.34196,2.94777 11.50818,7.17148z" fill="#402400" stroke="#281700" stroke-width="1.5" stroke-linecap="round"/><path d="M383.67204,23.38466c6.00718,0 11.45054,2.54996 15.39203,6.66921c3.94149,4.11961 6.38141,9.80854 6.38141,16.0865c0,6.27796 -2.43992,11.96689 -6.38141,16.0865c-3.94149,4.11928 -9.38485,6.66924 -15.39203,6.66924c-6.00718,0 -11.45057,-2.54996 -15.39206,-6.66924c-3.94149,-4.11961 -6.38141,-9.80854 -6.38141,-16.0865c0,-6.27796 2.43992,-11.96689 6.38141,-16.0865c3.94149,-4.11926 9.38487,-6.66921 15.39206,-6.66921z" fill="#ffffff" stroke="#000000" stroke-width="1.5" stroke-linecap="butt"/><path d="M379.25187,18.47334c6.71964,-1.49042 22.33726,0.15653 20.62748,4.91132c-2.95301,8.21301 -24.08014,9.91429 -30.4501,20.30005c-4.76234,7.77887 0.53663,17.95576 0.65484,26.84848c0.31792,7.35387 3.60457,18.62074 0.65484,21.93718c-1.98646,2.21566 -7.40396,-3.96245 -9.95293,-10.36384c-2.54864,-6.40139 -4.12614,-15.24176 -4.12614,-24.99758c0,-9.75582 -0.02848,-17.66203 4.12614,-24.99756c3.6193,-6.37783 10.83632,-11.92532 18.46588,-13.63805z" fill="#402400" stroke="#281700" stroke-width="1.5" stroke-linecap="round"/><path d="M376.41858,43.23915c0.813,0 1.5497,0.5504 2.08305,1.43934c0.5337,0.88929 0.86376,2.1171 0.86376,3.47196c0,1.35488 -0.33006,2.5827 -0.86376,3.47199c-0.53335,0.88893 -1.27005,1.43934 -2.08305,1.43934c-0.81298,0 -1.54967,-0.5504 -2.08302,-1.43934c-0.5337,-0.88929 -0.86376,-2.1171 -0.86376,-3.47199c0,-1.35486 0.33006,-2.58267 0.86376,-3.47196c0.53335,-0.88893 1.27005,-1.43934 2.08302,-1.43934z" fill="#000000" stroke="none" stroke-width="1.5" stroke-linecap="butt"/><path d="M396.72539,43.07518c0.813,0 1.5497,0.5504 2.08305,1.43934c0.5337,0.88929 0.86376,2.1171 0.86376,3.47196c0,1.35488 -0.33006,2.5827 -0.86376,3.47199c-0.53335,0.88893 -1.27005,1.43934 -2.08305,1.43934c-0.81298,0 -1.54967,-0.5504 -2.08302,-1.43934c-0.5337,-0.88929 -0.86376,-2.1171 -0.86376,-3.47199c0,-1.35486 0.33006,-2.58267 0.86376,-3.47196c0.53335,-0.88893 1.27005,-1.43934 2.08302,-1.43934z" fill="#000000" stroke="none" stroke-width="1.5" stroke-linecap="butt"/><path d="M391.9273,58.88076c0,0 -1.10436,1.09341 -1.75045,1.42223c-0.99347,0.44973 -2.07117,0.8296 -3.08066,0.87239c-1.17328,0.04379 -3.4686,-0.63592 -3.4686,-0.63592" fill="none" stroke="#000000" stroke-width="1.5" stroke-linecap="round"/><path d="M376.5831,84.16403l-5.5907,5.87023l-3.35443,-6.14978" fill="none" stroke="#000000" stroke-width="1.5" stroke-linecap="round"/><g stroke-linecap="butt"><text transform="translate(257.05438,104.77764) scale(0.61121,0.61121)" font-size="40" xml:space="preserve" fill="#8e8e8e" fill-rule="nonzero" stroke="none" stroke-width="1" stroke-linecap="butt" stroke-linejoin="miter" stroke-miterlimit="10" stroke-dasharray="" stroke-dashoffset="0" font-family="&quot;ヒラギノ角ゴ Pro W3&quot;, &quot;Hiragino Kaku Gothic Pro&quot;, Osaka, &quot;メイリオ&quot;, Meiryo, &quot;ＭＳ Ｐゴシック&quot;, &quot;MS PGothic&quot;" font-weight="normal" text-anchor="start" style="mix-blend-mode: normal"><tspan x="0" dy="0">2017</tspan></text><path d="M249.94926,123.02129v-118.51155h228.33349v118.51155z" fill="none" stroke="#8e8e8e" stroke-width="3.5"/></g><path d="M352.67893,201.18026c5.01099,0.33851 4.59165,-1.28621 4.38034,11.20265c-0.21129,12.48888 -2.1201,29.50646 -7.13109,29.16795c-5.04184,-0.34061 -4.52168,4.84056 -4.98094,-4.6789c-0.39068,-8.09773 -0.45527,-38.7525 4.55571,-38.41397z" data-paper-data="{&quot;index&quot;:null,&quot;origRot&quot;:0}" fill="#ffe9cc" stroke="#000000" stroke-width="2.5" stroke-linecap="butt"/><path d="M408.3175,159.81514c-0.08388,2.99569 -2.1896,41.85415 -5.08335,42.63353c-4.88825,1.31656 -1.06108,2.8631 -25.97786,5.07697c-9.60942,0.8538 -19.67755,9.52499 -19.51273,3.63871c0.16482,-5.88629 -10.1689,-60.22799 -0.52541,-59.95798c2.52543,0.07071 34.09983,-16.57759 36.40777,-15.54983c6.64178,2.9577 14.69157,24.1586 14.69157,24.1586z" data-paper-data="{&quot;origRot&quot;:0}" fill="#2c1500" stroke="#000000" stroke-width="2.5" stroke-linecap="butt"/><path d="M411.20951,198.91169c5.01099,-0.33852 4.94639,29.81625 4.5557,37.91398c-0.45926,9.51947 0.0609,6.3383 -4.98094,6.6789c-5.01099,0.33851 -6.9198,-18.17908 -7.13109,-30.66796c-0.21131,-12.48886 -0.63064,-10.86413 4.38034,-11.20264z" data-paper-data="{&quot;index&quot;:null,&quot;origRot&quot;:0}" fill="#ffe9cc" stroke="#000000" stroke-width="2.5" stroke-linecap="butt"/><path d="M409.75075,190.36472c0.65397,14.30389 -24.03039,12.03024 -29.85974,11.98468c-3.72205,-0.02909 -31.0938,8.71927 -31.11938,-5.59955c-0.00735,-4.11139 10.62039,-7.75929 14.70768,-8.2038c6.58116,-0.71574 4.81736,3.82811 9.21235,-1.12246c0.71606,-0.80658 0.19464,-7.91789 0.74232,-8.84705c1.64304,-2.78751 2.57407,-2.7024 7.55177,-2.87068c0,0 2.32543,-0.49213 3.61822,2.73736c0.83887,2.09556 1.46051,8.60131 2.21907,10.72726c0,0 2.24249,-3.11751 8.89459,-1.89007c-1.73025,-0.34178 -1.14144,-3.08031 14.03313,3.0843z" data-paper-data="{&quot;origRot&quot;:0}" fill="#ffe9cc" stroke="#000000" stroke-width="2.5" stroke-linecap="butt"/><path d="M358.53199,239.22431c0,0 -0.1837,-23.35062 -1.20659,-30.77013c-0.29231,-2.12022 -11.18909,-3.35762 -11.22083,-4.35671c-0.09522,-2.99724 1.86653,-8.15205 4.68769,-11.32257c0.9015,-1.01315 1.39632,2.26625 6.83188,3.72676c2.00193,0.66174 4.78704,0.46271 5.63494,-1.46775c0.95313,-2.17006 -1.53064,-7.1507 0.65097,-6.22432c5.10443,-1.84545 9.08821,-3.06568 9.08821,-3.06568c0,0 -0.36012,10.69912 6.40696,10.47034c7.55343,-0.25537 5.71341,-9.72135 7.21343,-10.65649c0.44678,0.18973 9.45208,0.80769 10.01771,0.94434c0.18854,0.04555 1.37222,5.43506 2.28613,6.59671c1.76794,2.24721 4.99949,0.5544 6.39183,-0.43735c2.14585,-1.52847 4.11378,-3.06594 4.0775,-2.77931c0.43757,0.38867 4.93018,6.16285 6.63775,8.47622c-1.25912,6.79845 -11.85742,4.96621 -11.74718,8.54765c0.34625,11.24797 -0.54002,31.37735 -0.54002,31.37735c0,0 -7.92174,4.24507 -14.5874,4.3838c-2.22189,0.04624 -30.62296,-3.4429 -30.62296,-3.4429z" data-paper-data="{&quot;origRot&quot;:0}" fill="#ff9849" stroke="#000000" stroke-width="2.5" stroke-linecap="butt"/><path d="M384.67911,186.09893c0,2.25521 -1.38117,4.08341 -4.76398,4.08341c-3.38281,0 -6.12512,-1.8282 -6.12512,-4.08341c0,-2.25521 2.74231,-4.08341 6.12512,-4.08341c3.38281,0 4.76398,1.8282 4.76398,4.08341z" fill="#e3d0b6" stroke="none" stroke-width="2.5" stroke-linecap="butt"/><path d="M402.76879,210.54577c0.28842,8.53135 -41.96385,17.94178 -42.25228,9.41042c-0.28842,-8.53135 6.03477,-2.36581 15.20828,-2.67594c9.17349,-0.31014 26.75558,-15.26582 27.04401,-6.73447z" data-paper-data="{&quot;origRot&quot;:0}" fill="#c7773a" stroke="none" stroke-width="2.5" stroke-linecap="butt"/><path d="M363.84413,220.00996c0.01241,0.36694 -0.05189,0.66692 -0.14363,0.67002c-0.09173,0.0031 -0.17616,-0.29185 -0.18857,-0.65878c-0.01241,-0.36694 0.0519,-0.66692 0.14364,-0.67002c0.09173,-0.0031 0.17616,0.29185 0.18856,0.65878z" data-paper-data="{&quot;origRot&quot;:0}" fill="#e7e69d" stroke="none" stroke-width="2.5" stroke-linecap="butt"/><path d="M360.47544,238.41584l0.04669,-18.29356l41.64403,-7.72694l0.8311,24.58293c0,0 -1.3349,3.53469 -12.06697,3.89752c-5.86261,0.1982 -30.45484,-2.45994 -30.45484,-2.45994z" data-paper-data="{&quot;origRot&quot;:0}" fill="#c7773a" stroke="none" stroke-width="2.5" stroke-linecap="butt"/><path d="M407.5497,159.71068c-0.48588,15.70703 -22.43236,25.2292 -28.80732,24.6897c-4.07043,-0.34448 -27.7648,-11.39253 -26.59006,-27.06311c2.13029,-28.41706 13.61906,-27.89629 28.91662,-27.24089c15.29756,0.6554 27.42914,-1.04415 26.48075,29.6143z" data-paper-data="{&quot;origRot&quot;:0}" fill="#ffe9cc" stroke="#000000" stroke-width="2.5" stroke-linecap="butt"/><path d="M365.85341,158.37806c-0.05224,1.21931 -0.95124,2.17106 -2.00799,2.12579c-1.05675,-0.04528 -1.87104,-1.07042 -1.8188,-2.28974c0.05224,-1.21931 0.95124,-2.17106 2.00798,-2.12579c1.05675,0.04528 1.87105,1.07043 1.81881,2.28974z" data-paper-data="{&quot;origRot&quot;:0}" fill="#000000" stroke="#000000" stroke-width="2.5" stroke-linecap="butt"/><path d="M409.35761,155.86305c-0.01094,0.25549 -0.84567,12.07322 -0.99201,12.28292c-0.43903,0.62912 -2.76726,-24.22418 -7.82258,-21.88751c-7.68288,3.55119 -9.35926,3.71957 -17.5687,5.77933c-26.66414,6.69007 7.56114,-7.48976 -2.14101,-7.89422c-0.50473,-0.02111 -15.59373,9.19128 -25.66125,8.75903c-1.38692,-0.05942 -3.19903,14.95811 -4.49282,14.45493c-3.88136,-1.50952 -1.28105,-36.41621 10.40264,-40.8743c15.08504,-5.75593 25.16095,-5.11075 34.54182,-1.60527c14.95625,5.58889 13.98616,25.09754 13.73392,30.9851z" data-paper-data="{&quot;origRot&quot;:0}" fill="#2c1500" stroke="#000000" stroke-width="2.5" stroke-linecap="butt"/><path d="M396.75123,157.6975c-0.05224,1.21931 -0.95124,2.17106 -2.00799,2.12579c-1.05675,-0.04528 -1.87104,-1.07042 -1.8188,-2.28974c0.05224,-1.21931 0.95124,-2.17106 2.00797,-2.12579c1.05675,0.04528 1.87105,1.07043 1.81881,2.28974z" data-paper-data="{&quot;origRot&quot;:0}" fill="#000000" stroke="#000000" stroke-width="2.5" stroke-linecap="butt"/><path d="M384.67968,165.29559c0,0 -2.72502,0.83818 -4.15615,0.87488c-1.52888,0.0392 -4.74329,-0.64668 -4.74329,-0.64668" fill="none" stroke="#000000" stroke-width="2.5" stroke-linecap="round"/><g stroke-linecap="butt"><text transform="translate(257.05438,223.3354) scale(0.61121,0.61121)" font-size="40" xml:space="preserve" fill="#8e8e8e" fill-rule="nonzero" stroke="none" stroke-width="1" stroke-linecap="butt" stroke-linejoin="miter" stroke-miterlimit="10" stroke-dasharray="" stroke-dashoffset="0" font-family="&quot;ヒラギノ角ゴ Pro W3&quot;, &quot;Hiragino Kaku Gothic Pro&quot;, Osaka, &quot;メイリオ&quot;, Meiryo, &quot;ＭＳ Ｐゴシック&quot;, &quot;MS PGothic&quot;" font-weight="normal" text-anchor="start" style="mix-blend-mode: normal"><tspan x="0" dy="0">2020</tspan></text><path d="M249.94926,241.57906v-118.51155h228.33349v118.51155z" fill="none" stroke="#8e8e8e" stroke-width="3.5"/></g><text transform="translate(5,356.4341) scale(0.24569,0.24569)" font-size="40" xml:space="preserve" fill="#b6b6b6" fill-rule="nonzero" stroke="none" stroke-width="1" stroke-linecap="butt" stroke-linejoin="miter" stroke-miterlimit="10" stroke-dasharray="" stroke-dashoffset="0" font-family="&quot;ヒラギノ角ゴ Pro W3&quot;, &quot;Hiragino Kaku Gothic Pro&quot;, Osaka, &quot;メイリオ&quot;, Meiryo, &quot;ＭＳ Ｐゴシック&quot;, &quot;MS PGothic&quot;" font-weight="normal" text-anchor="start" style="mix-blend-mode: normal"><tspan x="0" dy="0">Written by @The_Updator</tspan></text></g></g></svg>