<svg version="1.1" xmlns="http://www.w3.org/2000/svg" xmlns:xlink="http://www.w3.org/1999/xlink" width="306.1749" height="396.91993" viewBox="0,0,306.1749,396.91993"><g transform="translate(-67.04589,0.69071)"><g data-paper-data="{&quot;isPaintingLayer&quot;:true}" fill-rule="nonzero" stroke-linejoin="miter" stroke-miterlimit="10" stroke-dasharray="" stroke-dashoffset="0" style="mix-blend-mode: normal"><g stroke="#000000" stroke-width="5" stroke-linecap="round"><path d="M355.65734,191.35787c2.76712,0.69652 5.47349,0.88478 7.66678,1.23789c1.87778,0.3017 3.70638,1.35713 5.01115,2.74107c1.25375,1.3298 1.8473,3.2161 2.28382,4.99099c0.42113,1.71498 0.83486,3.63329 0.24522,5.29754c-1.19438,3.37042 -3.0345,6.60348 -5.41061,9.2757c-1.3197,1.48375 -3.43479,2.04339 -5.28753,2.75769c-1.64615,0.63472 -3.38514,1.1279 -5.14424,1.26448c-1.65989,0.12911 -4.24189,0.82163 -4.97721,-0.4775c-0.76795,-1.35654 1.39927,-3.19194 1.97071,-4.83392c1.8536,-5.32129 4.02967,-10.57853 5.30867,-16.06646c0.31935,-1.37174 -1.67281,-3.20342 -0.61347,-4.07717z" data-paper-data="{&quot;origPos&quot;:null,&quot;index&quot;:null}" fill="#e1ba87"/><path d="M260.82608,156.43825c3.16981,-1.03955 6.23874,2.2854 9.3597,3.66006c5.78436,2.68049 11.38034,5.94479 17.35187,8.49493c6.34246,2.69758 13.21163,5.04223 19.3357,6.97351c7.7626,2.4879 15.74127,4.36033 23.59197,6.60805c7.69525,2.22086 17.37514,4.21863 25.38303,7.62892c2.02659,0.86983 3.21358,1.83373 2.56119,3.83287c-2.61004,7.99842 -3.68656,18.05577 -10.80633,21.8968c-7.09657,4.2027 -16.57209,0.0034 -24.36481,-1.99552c-8.34919,-2.1475 -16.33906,-5.7448 -24.05402,-9.59322c-8.53786,-4.25444 -17.46299,-8.6319 -25.34196,-14.2637c-5.76884,-4.12275 -10.58243,-9.05686 -14.63581,-14.48434c-2.34575,-3.25215 -4.63075,-7.27763 -4.1783,-11.03596c0.3938,-3.17433 2.49094,-6.60178 5.79774,-7.72238z" data-paper-data="{&quot;origPos&quot;:null,&quot;index&quot;:null}" fill="#cc7700"/></g><path d="M154.38326,368.59242l59.34614,-120.14174l38.55295,19.04391c0,0 -21.99521,40.99562 -34.06128,68.94263c-6.05681,14.02856 -12.37638,38.61453 -12.37638,38.61453l-3.04609,17.45627z" data-paper-data="{&quot;index&quot;:null}" fill="#353535" stroke="#000000" stroke-width="5" stroke-linecap="butt"/><path d="M70.27352,298.72195l125.17433,-47.82664l15.34735,40.16789c0,0 -43.99297,15.13431 -71.83485,27.44106c-13.97578,6.17763 -35.31767,19.92285 -35.31767,19.92285l-14.09576,10.73824z" data-paper-data="{&quot;index&quot;:null}" fill="#616161" stroke="#000000" stroke-width="5" stroke-linecap="butt"/><path d="M256.49353,289.8993c-1.43666,3.16104 0.8074,1.17931 -5.5891,-0.10934c-25.58457,-5.15631 -50.79402,-9.70529 -75.96419,-15.35224c-6.30013,-1.41709 -7.57934,6.52795 -6.27214,-1.77769c5.22703,-33.22395 13.596,-66.71888 22.65598,-99.48345c3.58892,-13.02314 8.28076,-25.15309 14.87996,-36.27116c1.71526,-3.02517 3.70562,-4.08489 8.43987,-3.39541c18.93596,2.75774 37.87721,6.39291 56.36054,11.39037c4.62112,1.24917 10.1297,2.58486 10.87077,6.78794c2.0342,11.53556 -1.67051,23.4304 -3.50263,34.99974c-3.15022,19.83809 -7.7007,41.31937 -12.23483,61.80106c-3.00921,13.61265 -4.96998,28.00444 -9.64419,41.41016z" data-paper-data="{&quot;index&quot;:null}" fill="#ff9400" stroke="#000000" stroke-width="5" stroke-linecap="round"/><path d="M225.71378,138.80788c1.37397,2.92922 -1.25841,6.47911 -2.27397,9.23251c-0.85765,2.34559 -1.94746,4.97175 -3.7704,6.44992c-1.82196,1.47838 -4.06614,2.1685 -6.29705,1.71764c-2.2309,-0.45086 -4.03095,-1.95831 -5.13581,-4.0282c-1.10585,-2.07009 -1.26781,-4.90331 -0.96976,-7.4079c0.31525,-2.67047 0.3951,-6.18531 2.56596,-8.15327c1.93313,-1.36206 5.0423,-0.2644 7.50149,-0.01429c2.85821,0.28994 6.93908,-0.13917 8.37954,2.2036z" data-paper-data="{&quot;index&quot;:null}" fill="#ff9400" stroke="none" stroke-width="1" stroke-linecap="round"/><path d="M171.81188,269.72462c0,0 4.64322,-32.10332 11.98567,-59.81098c7.34246,-27.70767 22.4003,-69.94881 22.4003,-69.94881" data-paper-data="{&quot;index&quot;:null}" fill="none" stroke="#cc7700" stroke-width="5" stroke-linecap="round"/><g data-paper-data="{&quot;index&quot;:null}"><path d="M304.00949,50.85377c8.10558,12.21166 11.55834,27.51081 8.42945,42.99281c-3.12888,15.48199 -12.25187,28.23961 -24.46353,36.34519c-12.21166,8.10558 -27.51081,11.55834 -42.99281,8.42945c-15.48199,-3.12888 -28.23961,-12.25187 -36.34519,-24.46353c-8.10558,-12.21166 -11.55834,-27.51081 -8.42945,-42.99281c3.12888,-15.48199 12.25187,-28.23961 24.46353,-36.34519c12.21166,-8.10558 27.51081,-11.55834 42.99281,-8.42945c15.48199,3.12888 28.23961,12.25187 36.34519,24.46353z" data-paper-data="{&quot;origPos&quot;:null}" fill="#ffd499" stroke="#000000" stroke-width="6" stroke-linecap="round"/><path d="M227.96905,60.66c13.25423,4.33345 26.45554,2.62366 39.1724,6.17822c14.86255,4.1545 29.82638,9.43335 43.5532,16.70872c3.42522,1.82059 -4.20623,2.09938 -6.42843,2.7817c-2.71053,0.78155 -6.5646,2.23387 -9.71049,1.35323c-7.57797,-2.12628 -14.5555,-7.9152 -22.38536,-10.3903c-3.02365,-0.71819 0.63134,2.80261 -2.99522,2.20027c-14.50698,-2.41051 -28.93305,-10.80456 -44.10567,-10.18896c-5.50453,0.35054 -9.22707,7.28556 -11.25344,12.7739c-2.45335,6.77323 -1.50559,14.78474 -0.04371,21.67079c1.55107,7.29788 10.10553,20.39806 9.12717,20.46356c-0.97836,0.0655 -13.93519,-11.40345 -16.72874,-19.44927c-4.08003,-11.36749 -4.46685,-24.2596 -2.91809,-36.0423c0.62395,-4.71789 5.26471,-7.95269 8.77857,-11.28056c2.56088,-2.42374 6.18679,-5.5892 9.2969,-4.96065c3.11013,0.62854 3.19444,7.05664 6.64087,8.18165z" data-paper-data="{&quot;origPos&quot;:null}" fill="#e1ba87" stroke="none" stroke-width="1" stroke-linecap="round"/><path d="M198.88626,70.1326c-2.65179,-7.82333 1.27682,-18.52926 4.22234,-27.20265c2.80207,-8.24124 6.81989,-16.01132 12.20466,-22.52878c1.50132,-1.67887 1.59112,4.75237 3.9156,3.34187c9.31284,-5.66036 15.96415,-16.17821 25.14513,-20.93375c2.33309,-1.20573 -2.37906,6.59746 0.08362,7.15842c9.83274,2.21673 20.74469,-2.37059 30.29949,0.25723c11.95273,3.292 23.95971,7.60802 33.40471,16.4431c10.84249,10.21424 18.90402,23.7494 23.99717,37.7518c1.27279,3.5005 -8.02858,-2.15818 -9.07184,0.71714c-2.53377,6.97429 4.98103,20.19592 -0.43733,22.3564c-6.49912,2.53582 -15.50686,-11.22423 -24.5361,-13.63055c-2.29157,-0.61003 0.40155,7.63484 -2.36683,6.66318c-10.91342,-3.63389 -18.87337,-14.05725 -29.87244,-17.51461c-2.75036,-0.86395 0.38079,7.42457 -2.27037,7.44785c-8.06917,0.36477 -15.58001,-4.123 -23.42277,-6.51908c-4.50144,-1.37189 -8.42178,-4.89224 -13.32638,-4.73368c-5.64173,0.2167 -10.0009,4.345 -15.79997,6.24386c-4.09676,1.40123 -10.84808,8.11795 -12.16866,4.68225z" data-paper-data="{&quot;origPos&quot;:null}" fill="#8a541e" stroke="#000000" stroke-width="7" stroke-linecap="round"/><path d="M202.03519,64.64769c0,0 3.72612,-15.12562 6.32098,-22.4426c1.81044,-5.10146 3.57417,-10.38069 6.79566,-14.69503c1.16347,-1.12278 1.71762,1.44081 2.94055,0.59429c5.93984,-3.4334 10.94505,-7.86573 16.20388,-12.02849c1.95957,-1.53831 3.04539,-4.81107 5.40387,-5.28425c1.4444,-0.19575 0.10727,2.33656 0.92552,2.99264c1.61447,1.05268 1.57901,1.51584 4.01721,1.57703c9.75689,0.24462 19.36309,-2.77326 28.73274,-0.82458c9.86327,2.05048 19.10181,6.58137 27.43227,11.92037c6.55845,4.41468 11.63047,10.7071 16.48883,16.85025c3.77052,4.77146 6.51844,10.63502 8.93936,16.34473c0.60646,1.4264 -1.06026,0.8998 -1.76742,1.17313c-1.90602,1.24816 -5.5951,1.11168 -6.03738,3.37083c-1.1961,6.11525 1.6298,18.43823 1.6298,18.43823" data-paper-data="{&quot;origPos&quot;:null}" fill="none" stroke="#663b00" stroke-width="4" stroke-linecap="round"/><path d="M286.47334,89.65182c0.61941,0.93319 0.88299,2.10258 0.64389,3.28567c-0.2391,1.18308 -0.9361,2.15834 -1.86929,2.77775c-0.93319,0.61941 -2.10258,0.88299 -3.28567,0.64389c-1.18308,-0.2391 -2.15834,-0.9361 -2.77775,-1.86929c-0.61941,-0.93319 -0.88299,-2.10258 -0.64389,-3.28567c0.2391,-1.18308 0.9361,-2.15834 1.86929,-2.77775c0.93319,-0.61941 2.10258,-0.88299 3.28567,-0.64389c1.18308,0.2391 2.15834,0.9361 2.77775,1.86929z" data-paper-data="{&quot;origPos&quot;:null}" fill="#000000" stroke="none" stroke-width="1" stroke-linecap="butt"/><path d="M246.48032,82.33447c0.61941,0.93319 0.88299,2.10258 0.64389,3.28567c-0.2391,1.18308 -0.9361,2.15834 -1.86929,2.77775c-0.93319,0.61941 -2.10258,0.88299 -3.28567,0.64389c-1.18308,-0.2391 -2.15834,-0.9361 -2.77775,-1.86929c-0.61941,-0.93319 -0.88299,-2.10258 -0.64389,-3.28567c0.2391,-1.18308 0.9361,-2.15834 1.86929,-2.77775c0.93319,-0.61941 2.10258,-0.88299 3.28567,-0.64389c1.18308,0.2391 2.15834,0.9361 2.77775,1.86929z" data-paper-data="{&quot;origPos&quot;:null}" fill="#000000" stroke="none" stroke-width="1" stroke-linecap="butt"/></g><path d="M219.45485,109.20914c0,0 4.0423,-12.25431 10.56782,-13.16752c4.17795,-0.58469 26.33931,1.14237 40.36343,4.75088c7.88012,2.0276 11.87828,6.82731 11.87828,6.82731l-2.13465,13.08647z" fill="#ffffff" stroke="#000000" stroke-width="3" stroke-linecap="round"/><path d="M237.74966,105.76497l1.88188,-9.31174" fill="none" stroke="#000000" stroke-width="3" stroke-linecap="round"/><path d="M249.67843,98.48369l-1.18856,5.88109" fill="none" stroke="#000000" stroke-width="3" stroke-linecap="round"/><path d="M233.78902,76.1434c0,0 24.83929,3.78699 35.4859,6.16952c8.43817,1.88832 20.92158,6.25056 20.92158,6.25056c0,0 -16.43973,5.25652 -21.00083,6.71491c-2.20391,0.70469 -3.81374,-3.82321 -3.81374,-3.82321c0,0 -3.32782,3.87186 -5.35396,2.49672c-5.02587,-3.41108 -26.23895,-17.80849 -26.23895,-17.80849z" fill="#ffd499" stroke="none" stroke-width="0" stroke-linecap="round"/><g data-paper-data="{&quot;index&quot;:null}" stroke-width="5" stroke-linecap="round"><path d="M208.12859,134.84136c-0.34915,-3.76925 2.04538,-7.73053 4.47947,-10.91716c4.20074,-5.31415 9.14787,-10.1144 15.02763,-14.07731c8.03055,-5.41353 17.07239,-9.54449 25.7238,-13.56314c7.81761,-3.63536 15.90314,-7.01211 24.30812,-8.92974c7.84457,-1.78434 17.43175,-5.72214 24.41031,-1.32632c7.01179,4.0349 7.81198,14.11802 10.20161,22.18507c0.59728,2.01628 -0.61573,2.94723 -2.66532,3.76112c-8.09852,3.18928 -17.82956,4.92082 -25.58279,6.92969c-7.9094,2.03153 -15.93645,3.68429 -23.76444,5.95831c-6.17473,1.76259 -13.10566,3.91788 -19.51974,6.44048c-6.03921,2.38534 -11.72261,5.49487 -17.57838,8.01565c-3.15742,1.28856 -6.31643,4.52808 -9.45658,3.40195c-3.27482,-1.21094 -5.27713,-4.69457 -5.58368,-7.8786z" data-paper-data="{&quot;origPos&quot;:null,&quot;index&quot;:null}" fill="#ff9400" stroke="#000000"/><path d="M212.76099,134.81395c0,0 4.69657,-10.51179 8.94025,-13.6851c11.5155,-9.39252 24.45302,-16.97451 37.45589,-23.30893c6.89325,-3.35411 14.95565,-4.73842 22.09059,-6.46649c6.16666,-1.4987 18.79436,-3.16576 18.79436,-3.16576" data-paper-data="{&quot;origPos&quot;:null,&quot;index&quot;:null}" fill="none" stroke="#cc7700"/><path d="M312.84893,107.39988c-1.17799,-0.7057 0.51808,-2.81449 -0.00281,-4.1231c-2.08476,-5.23517 -5.02204,-10.10813 -7.65016,-15.09264c-0.81039,-1.53809 -3.22754,-3.02901 -2.67095,-4.48509c0.53287,-1.39446 3.18932,-1.09553 4.84989,-1.21598c1.75975,-0.12779 3.55297,0.09994 5.27548,0.48148c1.93863,0.42942 4.11362,0.66659 5.64028,1.93644c2.74876,2.28718 5.05144,5.20889 6.73606,8.36289c0.83175,1.55748 0.70938,3.51604 0.54929,5.27478c-0.16635,1.82011 -0.47135,3.77393 -1.51226,5.27618c-1.08331,1.5634 -2.7336,2.88028 -4.5452,3.45923c-2.1159,0.67691 -4.76375,1.26758 -7.39572,2.36976z" data-paper-data="{&quot;origPos&quot;:null,&quot;index&quot;:null}" fill="#ffd499" stroke="#000000"/></g></g></g></svg>