<svg version="1.1" xmlns="http://www.w3.org/2000/svg" xmlns:xlink="http://www.w3.org/1999/xlink" width="367.04986" height="285.77439" viewBox="0,0,367.04986,285.77439"><g transform="translate(-19.31508,-15.50236)"><g data-paper-data="{&quot;isPaintingLayer&quot;:true}" fill-rule="nonzero" stroke="none" stroke-linecap="round" stroke-miterlimit="10" stroke-dasharray="" stroke-dashoffset="0" style="mix-blend-mode: normal"><path d="M210.2417,275.34714c-0.60644,0.16274 -3.23973,-6.79796 -6.93562,-18.46693c-2.26422,-7.14653 -5.41326,-17.48186 -8.06852,-28.02816c-2.28059,-9.13954 -4.60639,-19.16159 -6.82142,-29.77788c-3.18528,-15.26618 -5.59319,-29.13662 -7.37279,-41.41365c0.07703,0.08839 0.15065,0.17223 0.21981,0.2471c0.0305,0.0329 0.06075,0.06049 0.08086,0.08481c0.03511,0.04249 0.06003,0.08572 0.08458,0.12736c0.047,0.0801 0.08455,0.15412 0.11344,0.21979v0c-0.0059,-0.01932 -0.12277,-0.08393 -0.32502,-0.21722c-0.74649,-0.47211 -1.5492,-0.93461 -2.34214,-1.39541c-3.05934,-1.77755 -5.96645,-3.42 -8.65597,-4.96185c-12.80673,-7.34181 -20.62183,-12.14891 -20.26857,-12.80449c0.29711,-0.55108 8.68188,3.15331 21.91124,9.70752c2.70653,1.34102 5.84524,2.90866 8.94911,4.53533c0.80724,0.42234 1.67199,0.87451 2.53975,1.37477c0.16311,0.08641 0.42068,0.23738 0.75405,0.48002v0c0.06708,0.09575 0.14179,0.19972 0.22329,0.31412c0.04168,0.05898 0.08726,0.12038 0.1264,0.18699c0.02309,0.03831 0.03745,0.07502 0.0535,0.10898c0.03701,0.0788 0.07783,0.15537 0.12238,0.23638c2.34206,12.49226 5.00703,25.89526 8.39008,41.67006c2.31013,10.77692 4.59658,20.98303 6.70879,30.31207c2.06499,9.22827 5.30562,22.1617 6.74893,28.1864c2.84185,11.86285 4.36732,19.11285 3.76383,19.27389z" data-paper-data="{&quot;index&quot;:null}" fill="#000000" stroke-width="9.375" stroke-linejoin="round"/><path d="M158.50291,138.19644c-0.17115,0.46463 -3.74786,-0.3982 -9.93404,-1.7852c-6.9678,-1.56249 -14.23441,-3.08956 -25.66119,-5.05182c-10.4884,-1.7985 -20.77645,-3.29665 -33.59424,-5.0506c-0.22859,-0.03093 -3.62687,-0.49433 -3.85543,-0.52558c-12.46484,-1.69557 -24.98899,-2.73234 -34.83785,-3.52358c-18.85363,-1.51302 -31.34192,-2.29963 -31.305,-3.22519c0.0327,-0.79818 12.59004,-1.53465 31.62928,-0.9055c10.06061,0.33239 22.47758,1.04633 35.28176,2.73515c1.28144,0.16882 2.57224,0.34187 3.87038,0.51993c12.55384,1.71712 23.5313,3.54085 33.72617,5.70318c10.95397,2.32114 19.17529,4.63473 25.50749,6.86533c6.04703,2.12982 9.32673,3.82457 9.17265,4.24389z" data-paper-data="{&quot;index&quot;:null}" fill="#000000" stroke-width="9.375" stroke-linejoin="round"/><path d="M182.78698,159.66893c0.04023,-0.53199 7.96067,-0.47415 20.73214,-0.54057c13.82134,-0.07195 29.35994,-0.29085 49.88208,-1.1495c1.35805,-0.0568 2.70639,-0.11471 4.04538,-0.1747c13.16629,-0.58624 24.75353,-1.31318 35.11891,-2.05329c18.87335,-1.35008 31.3,-2.70245 31.37188,-2.21326c0.11189,0.76036 -12.21923,3.24083 -31.16647,5.25413c-10.2654,1.09131 -22.12758,2.05215 -35.23507,2.67474c-1.34342,0.06369 -2.69741,0.12425 -4.06034,0.18115c-19.98784,0.83713 -36.83869,0.6954 -50.06715,0.07601c-12.79902,-0.59938 -20.65744,-1.57525 -20.62136,-2.0547z" data-paper-data="{&quot;index&quot;:null}" fill="#000000" stroke-width="9.37509" stroke-linejoin="round"/><path d="M205.05563,274.38869c0.01347,-0.62389 11.51463,-1.46579 30.11493,-1.12562c18.93244,0.347 43.9096,1.92309 72.24222,6.20695c3.99326,0.60357 7.92054,1.24102 11.77878,1.90829c14.89104,2.57408 28.12788,5.37517 40.1969,8.4474v0c6.48644,1.64955 12.01466,3.19891 17.36393,5.13754c2.07761,0.75068 4.0142,1.51947 5.87618,2.48843c0.6872,0.35523 1.37311,0.75242 2.03496,1.23362c0.00395,0.58477 0.07603,1.29534 0.10358,2.1735c-1.05175,-1.04706 -1.78845,-2.1872 -2.20551,-3.33063c-0.01312,-1.53196 0.24737,-2.96808 0.49503,-4.16683c1.74057,-8.60874 2.58204,-13.59514 2.92307,-13.58424c0.56242,0.01796 0.58598,5.10604 -0.44979,13.92474c-0.1326,1.18443 -0.276,2.4787 -0.16417,3.6356c-0.30902,1.2192 -0.44773,2.48084 -0.46066,3.76487c-0.52721,0.07773 -1.25441,0.16228 -2.07312,0.17444c-0.49627,-0.32084 -1.06225,-0.59887 -1.69314,-0.88691c-1.71528,-0.77835 -3.53776,-1.38663 -5.5997,-2.02933c-5.31761,-1.65034 -10.69481,-2.93232 -17.22889,-4.39296v0c-12.14875,-2.71113 -25.14606,-5.22542 -40.05328,-7.71669c-3.83396,-0.64089 -7.73218,-1.26147 -11.69571,-1.86082c-28.30226,-4.27928 -52.64531,-6.33929 -71.61741,-7.61135c-18.43895,-1.23647 -29.90412,-1.64153 -29.88819,-2.39003z" data-paper-data="{&quot;index&quot;:null}" fill="#000000" stroke-width="9.375" stroke-linejoin="round"/><path d="M206.21734,275.49991c-0.31989,-0.53434 8.94738,-7.33141 24.81692,-16.92843c16.10057,-9.73688 38.0929,-21.77343 64.20851,-33.20599c3.97323,-1.73896 7.90179,-3.40355 11.7824,-4.99491c13.82296,-5.67047 26.33837,-10.27486 38.04918,-14.04016v0c6.27341,-2.01896 11.68721,-3.61918 17.17204,-4.78512c2.09982,-0.44929 4.09986,-0.81146 6.14902,-0.95349c0.74256,-0.05402 1.51265,-0.07032 2.31162,0.00475c0.27509,0.49191 0.69047,1.0783 1.15821,1.8559c-1.34537,-0.32304 -2.18521,-0.86569 -2.72554,-1.29166c-0.59635,-1.39685 -0.98498,-2.83267 -1.31194,-4.01936c-2.51678,-9.03928 -4.10526,-14.22929 -3.72696,-14.39393c0.4875,-0.21212 2.91432,4.66518 6.16962,13.54849c0.43156,1.16729 0.89017,2.48581 1.46102,3.58178c0.14156,1.04193 0.17808,2.04922 0.25399,2.64492c-0.34694,0.35405 -0.8818,0.80672 -1.54985,1.22963c-0.54618,-0.02242 -1.13584,0.03256 -1.78971,0.11089c-1.80624,0.22272 -3.6149,0.65736 -5.64504,1.18712c-5.29726,1.39033 -10.43818,3.13354 -16.65125,5.33741v0c-11.58834,4.11484 -23.7401,8.83359 -37.5355,14.59037c-3.84074,1.60283 -7.73203,3.26524 -11.67508,4.9912c-26.04909,11.40269 -47.82789,22.72217 -64.42604,31.68734c-16.21189,8.75713 -26.11227,14.48291 -26.49561,13.84325z" data-paper-data="{&quot;index&quot;:null}" fill="#000000" stroke-width="9.375" stroke-linejoin="round"/><g><path d="M136.92549,139.55701c-19.69258,-1.60437 -51.02633,-20.10607 -48.51877,-51.75202c4.66603,-2.33457 18.01697,-3.16952 25.0256,3.17959c-2.41616,-35.38674 24.46775,-74.23896 74.07718,-75.48222c6.15008,36.79816 43.44056,30.91232 56.19992,19.55195c7.99273,16.10561 -6.75323,49.1851 -26.94927,51.11494" data-paper-data="{&quot;index&quot;:null}" fill="#000000" stroke-width="9.375" stroke-linejoin="round"/><path d="M231.31366,101.68083c2.10803,28.9875 -19.27269,54.34258 -48.2442,56.66942c-28.97083,2.32644 -54.34223,-19.27269 -56.66904,-48.24387c-2.32645,-28.97085 19.57861,-51.86952 48.24348,-56.66936c29.5531,-4.94847 54.50856,18.52639 56.66975,48.2438z" data-paper-data="{&quot;index&quot;:null}" fill="#f2f2f2" stroke-width="9.0943" stroke-linejoin="round"/><path d="M138.26483,73.3002c33.14278,-38.32379 86.6738,-24.00266 92.98335,28.31068c1.58612,21.81704 -10.13351,41.57461 -28.37993,51.00739c-39.85199,15.70214 -89.31316,-22.61262 -64.60342,-79.31804z" data-paper-data="{&quot;index&quot;:null}" fill="#ffffff" stroke-width="9.09417" stroke-linejoin="round"/><path d="M217.29687,69.32257c-0.29412,0.22468 -4.162,-6.03174 -14.721,-11.17741v0c-4.42442,-2.16106 -10.03682,-3.8995 -16.64396,-4.31334c-5.34992,-0.33556 -11.2241,0.20463 -17.35256,1.89703c-5.43102,1.50158 -10.9886,3.89758 -16.3064,7.31437c-4.83674,3.1106 -9.47546,7.07316 -13.41659,11.89597c-3.67408,4.49655 -6.75911,9.77548 -8.72511,15.60874c-1.95378,5.78045 -2.79177,12.12844 -2.31829,18.55323c0.51142,7.07109 2.60831,14.16823 5.88423,20.94298c3.26207,6.78311 8.89336,12.5256 15.63859,16.80096c0.30095,0.19073 0.60468,0.37803 0.91057,0.56234c6.95646,4.19665 14.76431,6.72923 22.56378,7.77248c8.72719,1.15368 17.42952,0.42524 25.26074,-2.19843c8.55674,-2.85915 15.91873,-8.05241 21.12928,-14.49821v0c5.56299,-6.85023 8.66504,-15.08952 9.79816,-22.94316c1.29064,-8.94051 0.21555,-17.58635 -1.86483,-24.92642c-2.5979,-9.12932 -6.69137,-16.31203 -10.97293,-21.66068c-4.48705,-5.58993 -8.90002,-8.85449 -12.18743,-10.81977c-3.24115,-1.9381 -5.19022,-2.62752 -5.12802,-2.82091c0.0424,-0.12904 2.13275,0.11191 5.67913,1.78556c3.55144,1.67561 8.44398,4.80323 13.35398,10.41354c4.70321,5.35939 9.27853,12.72857 12.25139,22.20487c2.40226,7.62986 3.74613,16.72033 2.55815,26.31645c-1.04938,8.46929 -4.26263,17.41282 -10.25879,25.03041v0c-5.64347,7.1375 -13.60041,12.89649 -22.94465,16.09448c-8.50787,2.90557 -17.88826,3.76399 -27.26685,2.54307c-8.37813,-1.07964 -16.78324,-3.79849 -24.3467,-8.35061c-0.3322,-0.20018 -0.66227,-0.40338 -0.99021,-0.60993c-7.38473,-4.63183 -13.5657,-11.02944 -17.28685,-18.71547c-3.48206,-7.22799 -5.68045,-14.8944 -6.20283,-22.61443c-0.46745,-7.02832 0.5138,-13.9432 2.71447,-20.24705c2.22288,-6.34753 5.62648,-12.01357 9.65511,-16.79443c4.31519,-5.12125 9.33177,-9.26576 14.53408,-12.47103c5.71471,-3.52221 11.65913,-5.92808 17.44185,-7.3747c6.52514,-1.63421 12.76846,-2.01693 18.4173,-1.47545c6.98496,0.66954 12.84515,2.76749 17.37418,5.27117v0c11.19799,6.2007 13.48376,13.22201 13.76913,13.00381z" data-paper-data="{&quot;index&quot;:null}" fill="#000000" stroke-width="9.375" stroke-linejoin="round"/><path d="M178.16581,92.19059c1.36388,-0.10976 2.7078,2.75719 3.00038,6.39948c0.29251,3.64196 -0.57689,6.68668 -1.94081,6.79609c-1.3632,0.1097 -2.70711,-2.75725 -2.99969,-6.39954c-0.29251,-3.64196 0.57654,-6.68666 1.94013,-6.79603z" data-paper-data="{&quot;index&quot;:null}" fill="#000000" stroke-width="9.375" stroke-linejoin="round"/><path d="M204.9934,95.72872c-0.29255,-3.64228 0.57686,-6.68701 1.94009,-6.79635c1.36392,-0.10941 2.70819,2.75751 3.00038,6.39948c0.29255,3.64193 -0.57654,6.68665 -1.94042,6.79636c-1.36323,0.10935 -2.70748,-2.75758 -3.00003,-6.39951z" data-paper-data="{&quot;index&quot;:null}" fill="#000000" stroke-width="9.375" stroke-linejoin="round"/><path d="M177.98408,116.49684c0.47158,-0.04326 0.94133,-0.05348 1.4019,-0.03332c6.82682,0.2984 13.64929,3.46452 18.05206,5.20503c0.00167,-0.00016 0.00167,-0.00016 0.00337,-0.00033c3.40455,1.32203 6.01943,2.20151 8.71429,2.74982c2.87146,0.58507 5.21314,0.6578 6.84224,0.63002c0.53214,-0.00974 0.85386,-0.02835 1.22605,-0.04375c-0.66316,0.24098 -1.59223,0.50665 -2.84385,0.67759c-0.198,0.02786 -0.33863,0.19926 -0.32004,0.38783c0.09271,0.85246 0.40042,2.35829 0.02924,4.40214c-0.37136,2.04232 -1.41686,4.60229 -4.08908,7.47713c-2.70311,2.80722 -6.60672,4.7939 -11.48476,5.97252c-0.00167,0.00016 -0.00337,0.00033 -0.00687,0.00068c-4.80536,1.23053 -10.91745,1.37207 -16.30914,-1.42968l-0.00368,-0.00287c-3.8096,-2.04355 -6.91485,-5.45481 -8.52461,-9.63551c-0.00185,-0.00152 -0.00399,-0.00455 -0.00417,-0.00622c-0.18739,-0.46231 -0.35528,-0.93658 -0.50197,-1.42265c-0.9513,-3.13624 -0.9708,-6.51034 0.31242,-9.57298l-0.00033,-0.00337c0.67361,-1.57468 1.81364,-2.98196 3.33179,-3.97691c1.31473,-0.81241 2.75685,-1.24517 4.17498,-1.37683zM178.25736,119.23213c-1.01507,0.11321 -2.00258,0.401 -2.79275,0.95153c-0.85824,0.54414 -1.51192,1.3915 -1.9928,2.34171c-0.04638,0.09144 -0.04972,0.19685 -0.0077,0.2896c0.04032,0.09277 0.12336,0.16342 0.22332,0.19462c3.66825,1.11858 11.10233,3.83712 20.17976,5.02144c4.7121,0.61356 8.86762,0.60262 12.66773,0.19673c0.14379,-0.01587 0.2678,-0.1085 0.31384,-0.23941c0.21475,-0.61198 0.38897,-1.19713 0.54631,-1.75916c0.02813,-0.10121 0.00883,-0.20932 -0.055,-0.29484c-0.06535,-0.08382 -0.16589,-0.13793 -0.27555,-0.14363c-0.39714,-0.02641 -0.75061,-0.03091 -1.14249,-0.07435c-2.83701,-0.30625 -5.73902,-1.0244 -9.24535,-2.16898c-4.56904,-1.46149 -11.48741,-4.37191 -17.39562,-4.37515c-0.33909,0.00211 -0.68327,0.0214 -1.02372,0.05991zM178.03031,130.23275c-1.56416,0.09021 -3.02039,0.34382 -4.36564,0.63572c-0.10156,0.02312 -0.19072,0.08438 -0.24275,0.17005c-0.05205,0.08707 -0.06441,0.19012 -0.03265,0.28374c0.05146,0.15261 0.09933,0.32348 0.16358,0.50091c0.00016,0.00167 0.00031,0.00321 0.00065,0.00657c1.36435,3.53356 3.96375,6.48429 7.12559,8.22402c3.92639,2.24373 8.75685,2.42562 12.90833,1.79467c0.10587,-0.01537 0.19886,-0.07223 0.25611,-0.15825c0.05923,-0.08469 0.07666,-0.18809 0.04808,-0.28541c-0.47,-1.62438 -1.26675,-4.15867 -3.41253,-6.63216l-0.00402,-0.00624c-1.43322,-1.70513 -3.6014,-3.16035 -6.26856,-3.90181c-0.12998,-0.0381 -0.26161,-0.07434 -0.40013,-0.10991c-1.956,-0.51457 -3.91902,-0.62619 -5.77604,-0.52192z" data-paper-data="{&quot;index&quot;:null}" fill="#000000" stroke-width="2.56361" stroke-linejoin="miter"/><path d="M176.11265,91.72972c-5.23606,-1.46935 -9.31735,-3.39365 -9.08072,-4.42796c0.25702,-1.1106 4.82609,-0.91287 10.1588,0.578c5.28579,1.48189 9.31121,3.56097 9.04106,4.58777c-0.29322,1.10407 -4.83677,0.74096 -10.11911,-0.73779z" data-paper-data="{&quot;index&quot;:null}" fill="#000000" stroke-width="2.56181" stroke-linejoin="miter"/><path d="M217.24487,82.49547c0.39862,0.98319 -3.32295,3.53433 -8.25774,5.82042c-4.97881,2.30302 -9.40586,3.38647 -9.87142,2.34328c-0.43049,-0.97061 3.21096,-3.66552 8.19294,-5.97198c5.02602,-2.32264 9.50537,-3.24734 9.93623,-2.19167z" data-paper-data="{&quot;index&quot;:null}" fill="#000000" stroke-width="2.56181" stroke-linejoin="miter"/></g></g></g></svg>