<svg version="1.1" xmlns="http://www.w3.org/2000/svg" xmlns:xlink="http://www.w3.org/1999/xlink" width="331.95226" height="345.98744" viewBox="0,0,331.95226,345.98744"><defs><radialGradient cx="383.91409" cy="144.27419" r="140.47681" gradientUnits="userSpaceOnUse" id="color-1"><stop offset="0" stop-color="#15ff00"/><stop offset="1" stop-color="#00b475"/></radialGradient></defs><g transform="translate(-121.11965,-67.19204)"><g data-paper-data="{&quot;isPaintingLayer&quot;:true}" fill-rule="nonzero" stroke-linejoin="miter" stroke-miterlimit="10" stroke-dasharray="" stroke-dashoffset="0" style="mix-blend-mode: normal"><g><path d="M196.96072,372.14312l73.39469,-73.73271" data-paper-data="{&quot;origRot&quot;:0,&quot;index&quot;:null}" fill="none" stroke="#000000" stroke-width="5" stroke-linecap="round"/><path d="M338.99295,280.62767l26.23792,-63.49642" data-paper-data="{&quot;origRot&quot;:0,&quot;index&quot;:null}" fill="none" stroke="#000000" stroke-width="5" stroke-linecap="round"/><g data-paper-data="{&quot;index&quot;:null}"><path d="M339.77897,298.50034l-6.30941,-37.22007l5.37861,-0.91176l6.30943,37.22004z" data-paper-data="{&quot;origRot&quot;:0,&quot;index&quot;:null}" fill="#000000" stroke="none" stroke-width="0" stroke-linecap="butt"/><path d="M346.10805,302.6331l-5.54645,1.11691l-0.56117,-4.67324l5.30831,-1.16979z" data-paper-data="{&quot;origRot&quot;:0,&quot;index&quot;:null}" fill="#000000" stroke="none" stroke-width="0" stroke-linecap="butt"/><path d="M347.4955,355.18191l-6.95939,-52.2191l3.79181,-0.41966l6.57635,52.26493z" data-paper-data="{&quot;origRot&quot;:0,&quot;index&quot;:null}" fill="#116700" stroke="none" stroke-width="0" stroke-linecap="butt"/><path d="M350.79724,404.17406l-3.75903,-52.3487l3.61541,1.58481c0,0 1.62582,18.46827 2.09793,27.09909c0.44784,8.18758 0.66573,23.42628 0.66573,23.42628l-2.05589,5.32449z" data-paper-data="{&quot;origRot&quot;:0,&quot;index&quot;:null}" fill="#116700" stroke="none" stroke-width="0" stroke-linecap="butt"/><path d="M349.24816,354.89435l-6.95938,-52.2191l3.79181,-0.41965l6.57635,52.26493z" data-paper-data="{&quot;origRot&quot;:0,&quot;index&quot;:null}" fill="#1fb800" stroke="none" stroke-width="0" stroke-linecap="butt"/><path d="M352.54994,403.88644l-3.75905,-52.34872l3.61541,1.58481c0,0 1.62583,18.46824 2.09794,27.09906c0.44784,8.18759 0.66573,23.42631 0.66573,23.42631z" data-paper-data="{&quot;origRot&quot;:0,&quot;index&quot;:null}" fill="#1fb800" stroke="none" stroke-width="0" stroke-linecap="butt"/><path d="M351.27399,409.07799c0,0 0.62584,-2.05037 0.83322,-2.91098c0.23819,-0.98855 0.51629,-2.68975 0.51629,-2.68975l1.64261,-1.20683l0.97427,0.34953c0,0 -0.14873,4.68503 -0.68909,5.98389c-0.7518,1.80699 -3.00253,4.57562 -3.00253,4.57562z" data-paper-data="{&quot;origRot&quot;:0,&quot;index&quot;:null}" fill="#1fb800" stroke="none" stroke-width="0" stroke-linecap="butt"/><path d="M349.28512,297.09506l-13.17286,2.37145" data-paper-data="{&quot;origRot&quot;:0,&quot;index&quot;:null}" fill="none" stroke="#000000" stroke-width="2.5" stroke-linecap="round"/></g><path d="M150.63891,322.25211l88.98198,-53.90269" data-paper-data="{&quot;origRot&quot;:0,&quot;index&quot;:null}" fill="none" stroke="#000000" stroke-width="5" stroke-linecap="round"/><path d="M253.86739,201.85826l63.03686,-27.32358" data-paper-data="{&quot;origRot&quot;:0,&quot;index&quot;:null}" fill="none" stroke="#000000" stroke-width="5" stroke-linecap="round"/><path d="M215.51286,251.62336l107.6195,-83.178l49.79065,54.54126l-92.61409,99.61507z" data-paper-data="{&quot;origRot&quot;:0,&quot;index&quot;:null}" fill="#0d9900" stroke="#000000" stroke-width="2" stroke-linecap="butt"/><path d="M330.07591,185.1543l-33.09407,30.21157" data-paper-data="{&quot;origRot&quot;:0,&quot;index&quot;:null}" fill="#0a6e00" stroke="#0a6e00" stroke-width="3.5" stroke-linecap="round"/><path d="M356.64835,216.21688l-33.09407,30.21157" data-paper-data="{&quot;origRot&quot;:0,&quot;index&quot;:null}" fill="#0a6e00" stroke="#0a6e00" stroke-width="3.5" stroke-linecap="round"/><path d="M327.37315,249.63427c-2.01587,1.8403 -5.14191,1.69796 -6.98223,-0.31793c-1.8403,-2.01587 -1.69797,-5.14192 0.31793,-6.98223c2.0159,-1.8403 5.14191,-1.69798 6.98223,0.31789c1.84031,2.01589 1.69797,5.14192 -0.31793,6.98223z" data-paper-data="{&quot;origRot&quot;:0,&quot;index&quot;:null}" fill="#0a6e00" stroke="#0a6e00" stroke-width="0.5" stroke-linecap="butt"/><path d="M293.02144,218.68392c-1.8403,-2.01587 -1.69797,-5.14192 0.31793,-6.98223c2.0159,-1.8403 5.14191,-1.69798 6.98223,0.31789c1.84031,2.01589 1.69798,5.14194 -0.31791,6.98225c-2.01589,1.84031 -5.14192,1.69797 -6.98225,-0.31791z" data-paper-data="{&quot;origRot&quot;:0,&quot;index&quot;:null}" fill="#0a6e00" stroke="#0a6e00" stroke-width="0.5" stroke-linecap="butt"/><path d="M412.22738,209.02242c-22.69485,20.71816 -57.88806,19.11569 -78.6062,-3.57919c-20.71816,-22.69487 -19.1157,-57.88807 3.5792,-78.60622c22.69488,-20.71813 57.88809,-19.11568 78.60622,3.5792c20.71816,22.69487 19.11568,57.88809 -3.57918,78.60624z" data-paper-data="{&quot;origRot&quot;:0,&quot;index&quot;:null}" fill="#ffe8bb" stroke="#000000" stroke-width="2" stroke-linecap="butt"/><path d="M371.35557,130.28012c0,0 -30.18138,-5.61322 -30.36822,-6.00158c-3.44086,-7.15162 4.58979,-6.75517 10.37133,-9.49257c1.9272,-0.91243 11.29468,-3.56103 11.29468,-3.56103c0,0 19.51755,1.84824 29.73633,5.38569c14.00819,4.84921 21.5013,7.46077 30.91681,18.91036c13.62219,16.56507 7.65049,48.52995 6.91678,53.1156c-0.62141,3.8837 -8.12083,14.9573 -11.23622,17.35801c-2.37775,1.83226 -11.48628,7.88887 -13.24384,5.45538c-1.85052,-2.56219 5.76663,-31.91939 5.76663,-31.91939" data-paper-data="{&quot;origRot&quot;:0,&quot;index&quot;:null}" fill="#3b2c00" stroke="#000000" stroke-width="3" stroke-linecap="round"/><path d="M359.80623,182.5561c0,0 3.02706,1.71938 4.3441,3.00524c1.59145,1.55371 3.10858,4.2708 3.10858,4.2708" data-paper-data="{&quot;origRot&quot;:0,&quot;index&quot;:null}" fill="none" stroke="#000000" stroke-width="5" stroke-linecap="round"/><path d="M281.93109,297.87002c0,0 -1.47118,-6.31416 -0.35445,-11.94233c0.69676,-3.51148 5.84557,-9.05149 5.84557,-9.05149" data-paper-data="{&quot;origRot&quot;:0,&quot;index&quot;:null}" fill="none" stroke="#0a6e00" stroke-width="5" stroke-linecap="round"/><path d="M261.95849,248.98294c0,0 -5.985,4.62408 -9.54527,4.99881c-5.70636,0.60062 -11.86066,-1.43827 -11.86066,-1.43827" data-paper-data="{&quot;index&quot;:null,&quot;origRot&quot;:0}" fill="none" stroke="#0a6e00" stroke-width="5" stroke-linecap="round"/><path d="M389.72683,180.71223l-8.01369,8.1524" data-paper-data="{&quot;index&quot;:null}" fill="none" stroke="#000000" stroke-width="10" stroke-linecap="round"/><path d="M374.31243,163.77904l-8.90409,9.05821" data-paper-data="{&quot;index&quot;:null}" fill="none" stroke="#000000" stroke-width="10" stroke-linecap="round"/><path d="M378.88777,173.61979l-10.0411,-18.77567l3.56163,-3.62328l30.79793,30.27393l-3.56163,3.62328z" data-paper-data="{&quot;index&quot;:null}" fill="#ffe8bb" stroke="none" stroke-width="NaN" stroke-linecap="butt"/><path d="M411.77347,178.70658c0,0 -13.66206,13.40369 -18.95365,7.23572c-5.18555,-6.0444 5.2641,-12.07096 2.35394,-19.48417c-1.91506,-4.87826 -12.73543,9.16394 -15.86873,4.96306c-2.74583,-3.68143 4.94095,-22.20244 0.71348,-23.99732c-6.1878,-2.6272 -17.98188,4.2968 -21.80241,-1.23443c-4.50708,-6.52521 13.82057,-15.93935 13.82057,-15.93935" data-paper-data="{&quot;origRot&quot;:0,&quot;index&quot;:null}" fill="#3b2c00" stroke="#000000" stroke-width="3" stroke-linecap="round"/><g data-paper-data="{&quot;index&quot;:null}"><path d="M236.80323,195.98555l37.32281,5.66984l-0.81934,5.39346l-37.32285,-5.66983z" data-paper-data="{&quot;origRot&quot;:0,&quot;index&quot;:null}" fill="#000000" stroke="none" stroke-width="0" stroke-linecap="butt"/><path d="M236.48226,195.83988l-1.07854,5.32761l-4.68218,-0.4809l1.02157,-5.5648z" data-paper-data="{&quot;origRot&quot;:0,&quot;index&quot;:null}" fill="#000000" stroke="none" stroke-width="0" stroke-linecap="butt"/><path d="M179.49351,191.22154l52.37009,5.67858l-0.35454,3.79845l-52.33083,-6.06236z" data-paper-data="{&quot;origRot&quot;:0,&quot;index&quot;:null}" fill="#116700" stroke="none" stroke-width="0" stroke-linecap="butt"/><path d="M125.04175,191.69881l5.28843,-2.14695c0,0 15.24019,-0.04363 23.43425,0.26366c8.63766,0.32396 27.1311,1.63264 27.1311,1.63264l1.6466,3.58767l-52.40549,-2.86024z" data-paper-data="{&quot;origRot&quot;:0,&quot;index&quot;:null}" fill="#116700" stroke="none" stroke-width="0" stroke-linecap="butt"/><path d="M179.75094,189.46418l52.37009,5.67858l-0.35454,3.79845l-52.33082,-6.06234z" data-paper-data="{&quot;origRot&quot;:0,&quot;index&quot;:null}" fill="#1fb800" stroke="none" stroke-width="0" stroke-linecap="butt"/><path d="M130.58769,187.79449c0,0 15.24021,-0.04364 23.43428,0.26365c8.63766,0.32396 27.13107,1.63265 27.13107,1.63265l1.6466,3.58767l-52.4055,-2.86025z" data-paper-data="{&quot;origRot&quot;:0,&quot;index&quot;:null}" fill="#1fb800" stroke="none" stroke-width="0" stroke-linecap="butt"/><path d="M121.11965,191.5787c0,0 2.7296,-2.2979 4.52344,-3.08059c1.2894,-0.56256 5.97119,-0.79166 5.97119,-0.79166l0.36621,0.96813l-1.17846,1.66308c0,0 -1.69619,0.30726 -2.6805,0.56238c-0.85692,0.22212 -2.89626,0.88305 -2.89626,0.88305z" data-paper-data="{&quot;origRot&quot;:0,&quot;index&quot;:null}" fill="#1fb800" stroke="none" stroke-width="0" stroke-linecap="butt"/><path d="M235.08076,205.06176l2.14506,-13.21161" data-paper-data="{&quot;origRot&quot;:0,&quot;index&quot;:null}" fill="none" stroke="#000000" stroke-width="2.5" stroke-linecap="round"/></g></g><path d="M453.07191,207.66885c0,77.5832 -20.31947,140.47681 -45.38482,140.47681c-25.06534,0 -45.38482,-62.89361 -45.38482,-140.47681c0,-77.5832 20.31947,-140.47681 45.38482,-140.47681c25.06534,0 45.38482,62.89361 45.38482,140.47681z" fill="url(#color-1)" stroke="none" stroke-width="0" stroke-linecap="butt"/></g></g></svg>