<svg version="1.1" xmlns="http://www.w3.org/2000/svg" xmlns:xlink="http://www.w3.org/1999/xlink" width="1093.64706" height="403.5" viewBox="0,0,1093.64706,403.5"><g transform="translate(58.99999,-43)"><g data-paper-data="{&quot;isPaintingLayer&quot;:true}" fill-rule="nonzero" stroke-linejoin="miter" stroke-miterlimit="10" stroke-dasharray="" stroke-dashoffset="0" style="mix-blend-mode: normal"><path d="M874.64707,246v-158l40,-45v203z" data-paper-data="{&quot;origPos&quot;:null}" fill="#1a0f0f" stroke="none" stroke-width="0" stroke-linecap="butt"/><path d="M976.14707,277v-194h51v194z" data-paper-data="{&quot;origPos&quot;:null}" fill="#1a0f0f" stroke="none" stroke-width="0" stroke-linecap="butt"/><path d="M499.64707,294v-63h527v63z" data-paper-data="{&quot;origPos&quot;:null}" fill="#1a0f0f" stroke="none" stroke-width="0" stroke-linecap="butt"/><path d="M789.64707,245v-182h76v182z" data-paper-data="{&quot;origPos&quot;:null}" fill="#1a0f0f" stroke="none" stroke-width="0" stroke-linecap="butt"/><path d="M463.14707,277v-194h99v194z" data-paper-data="{&quot;origPos&quot;:null}" fill="#1a0f0f" stroke="none" stroke-width="0" stroke-linecap="butt"/><path d="M570.64707,296v-241l51,59v182z" data-paper-data="{&quot;origPos&quot;:null}" fill="#1a0f0f" stroke="none" stroke-width="0" stroke-linecap="butt"/><path d="M742.64707,254v-184h34v184z" data-paper-data="{&quot;origPos&quot;:null}" fill="#1a0f0f" stroke="none" stroke-width="0" stroke-linecap="butt"/><path d="M701.64707,254v-184h34v184z" data-paper-data="{&quot;origPos&quot;:null}" fill="#1a0f0f" stroke="none" stroke-width="0" stroke-linecap="butt"/><path d="M627.64707,267v-129.16129l62,-52.83871v182z" data-paper-data="{&quot;origPos&quot;:null}" fill="#1a0f0f" stroke="none" stroke-width="0" stroke-linecap="butt"/><path d="M602.18844,202.54709c0.45291,-2.45863 4.2264,-1.31486 4.2264,-1.31486l1,1c0.0647,1.12382 2.90661,1.26777 3.73223,1.26777c5.03644,0.28208 9.59073,3.32649 14.5,4c5.42064,0.74366 11.52702,0 17,0c0,0 2.5,0 2.5,2.5c0,2.5 -2.5,2.5 -2.5,2.5c-5.44732,0 -11.61195,0.789 -17,0c-3.01547,-0.44157 -6.39772,-1.67106 -9.29057,-2.62829c-1.5486,-0.51243 -3.58869,-1.6648 -5.20943,-1.37171c-2.97454,0 -5.00845,-0.89943 -7.26777,-2.73223l-1,-1c0,0 -1.14377,0.23796 -0.69087,-2.22067z" data-paper-data="{&quot;origPos&quot;:null}" fill="#301d1d" stroke="none" stroke-width="0.5" stroke-linecap="butt"/><path d="M644.14611,223.06942c-0.06942,2.49904 -1.70847,2.30229 -1.70847,2.30229l-1.5,0.5c-3.6224,0.99361 -7.08291,0.03292 -10.69799,0.55705c-1.58994,0.23052 -3.10213,0.89674 -4.69923,1.07086c-3.46076,0.37729 -6.54317,-0.57204 -9.89334,-0.99961c-2.72959,-0.34837 -5.19954,-0.65875 -7.74558,-1.26326l-0.04499,0.13497l-1.18585,-0.39528l-0.79134,0.79134l-1.89335,-1.89335c-0.56727,-0.45893 -1.13493,-1.26957 -0.74103,-2.56933c0.01886,-0.06532 0.04032,-0.12954 0.06424,-0.19254c0.48844,-1.3386 1.50081,-1.61052 2.24213,-1.61075c0.03178,-0.0012 0.06371,-0.0018 0.09578,-0.0018c0.29656,0 0.58107,0.05164 0.84501,0.14641c5.78612,1.92361 12.97223,3.50046 19.06738,2.85323c1.19867,-0.12728 2.30092,-0.76374 3.49503,-0.9284c3.03807,-0.41895 7.58423,0.98104 10.30201,-0.44295l1.5,-0.5c0,0 3.35902,-0.05791 3.28961,2.44113z" fill="#301d1d" stroke="none" stroke-width="0.5" stroke-linecap="butt"/><path d="M603.14707,236c0,-2.5 2.5,-2.5 2.5,-2.5l2.79057,1.12829c1.57451,0.52484 3.60891,1.65213 5.20943,1.87171c9.03462,1.23946 18.59536,-0.00855 27.15507,-2.85361c0.26392,-0.09476 0.5484,-0.14639 0.84493,-0.14639c0.03207,0 0.064,0.0006 0.09578,0.0018c0.74132,0.00022 1.75369,0.27214 2.24213,1.61075c0.02393,0.063 0.04538,0.12722 0.06424,0.19254c0.41351,1.36449 -0.23268,2.18992 -0.82566,2.63529c-0.24581,0.19996 -0.53034,0.35414 -0.84062,0.44956l-2.94531,0.98177l-0.02232,-0.06697c-10.59693,3.01207 -22.07802,3.56057 -32.55882,0.06697l-1.20943,-0.87171c0,0 -2.5,0 -2.5,-2.5z" fill="#301d1d" stroke="none" stroke-width="0.5" stroke-linecap="butt"/><path d="M650.14424,249.88109c0.11891,2.49717 -2.37826,2.61608 -2.37826,2.61608l-1.32834,-0.12546c-0.5,0.16667 -1,0.33333 -1.5,0.5c-4.42663,1.47554 -8.68484,3.24663 -13.38941,3.62822c-5.10723,0.41425 -9.90954,-0.50566 -14.90116,-0.99993c-1.92127,-0.19024 -3.8763,0.12277 -5.79057,-0.12829c-1.06465,-0.13963 -1.9097,-0.39144 -2.80379,-0.58863l-0.19621,0.58863l-2.94531,-0.98177c-0.05438,-0.01672 -0.10796,-0.03525 -0.16069,-0.05551c-0.71716,-0.24366 -1.60343,-0.84591 -1.60343,-2.33442c0,-1.48852 0.88627,-2.09076 1.60343,-2.33442c0.27831,-0.10696 0.58059,-0.16558 0.89657,-0.16558h3v0.36521c1.24391,0.2668 2.45112,0.60795 3.79057,0.76308c1.39447,0.1615 2.81247,-0.26662 4.20943,-0.12829c1.82126,0.18034 3.57222,0.84589 5.39319,1.02913c7.66542,0.77135 14.20487,-1.03038 21.31624,-3.40084c0.5,-0.16667 1,-0.33333 1.5,-0.5l2.67166,-0.12546c0,0 2.49717,-0.11891 2.61608,2.37826z" fill="#301d1d" stroke="none" stroke-width="0.5" stroke-linecap="butt"/><g data-paper-data="{&quot;origPos&quot;:null}"><path d="M823.64707,294v-118h59v118z" fill="#301d1d" stroke="none" stroke-width="0" stroke-linecap="butt"/><path d="M848.4804,186.33333v53l-9.5,9v31.5" data-paper-data="{&quot;origPos&quot;:null}" fill="none" stroke="#ffaf00" stroke-width="2.5" stroke-linecap="round"/><path d="M838.9804,186.83333v51.5" data-paper-data="{&quot;origPos&quot;:null}" fill="none" stroke="#ffaf00" stroke-width="2.5" stroke-linecap="round"/><path d="M847.4804,280.33333v-29.5l11,-9v38" data-paper-data="{&quot;origPos&quot;:null}" fill="none" stroke="#ffaf00" stroke-width="2.5" stroke-linecap="round"/><path d="M858.9804,185.83333v47.5" data-paper-data="{&quot;origPos&quot;:null}" fill="none" stroke="#ffaf00" stroke-width="2.5" stroke-linecap="round"/><path d="M867.52802,279.33333v-93" data-paper-data="{&quot;origPos&quot;:null}" fill="none" stroke="#ffaf00" stroke-width="2.5" stroke-linecap="round"/></g><g stroke="none" stroke-width="0" stroke-linecap="butt"><path d="M667.64707,226c0,-14.35941 11.64059,-26 26,-26c14.35941,0 26,11.64059 26,26c0,14.35941 -11.64059,26 -26,26c-14.35941,0 -26,-11.64059 -26,-26z" data-paper-data="{&quot;origPos&quot;:null}" fill="#ffaf00"/><path d="M664.48041,298.66667v-71.5l59.5,-3v74.5z" data-paper-data="{&quot;origPos&quot;:null}" fill="#301d1d"/><path d="M702.64707,239c0,-3.86599 3.13401,-7 7,-7c3.86599,0 7,3.13401 7,7c0,3.86599 -3.13401,7 -7,7c-3.86599,0 -7,-3.13401 -7,-7z" fill="#ffaf00"/><path d="M702.98041,256.33333c0,-3.86599 3.13401,-7 7,-7c3.86599,0 7,3.134 7,7c0,3.86599 -3.13401,7 -7,7c-3.86599,0 -7,-3.13401 -7,-7z" data-paper-data="{&quot;origPos&quot;:null}" fill="#ffaf00"/></g><g data-paper-data="{&quot;origPos&quot;:null}" stroke="none" stroke-linecap="butt"><path d="M636.64707,304v-107l20,20v87z" data-paper-data="{&quot;origPos&quot;:null}" fill="#301d1d" stroke-width="0"/><path d="M644.14707,220.5c0,-1.38071 1.11929,-2.5 2.5,-2.5c1.38071,0 2.5,1.11929 2.5,2.5c0,1.38071 -1.11929,2.5 -2.5,2.5c-1.38071,0 -2.5,-1.11929 -2.5,-2.5z" fill="#ffaf00" stroke-width="0.5"/><path d="M644.14707,230.5c0,-1.38071 1.11929,-2.5 2.5,-2.5c1.38071,0 2.5,1.11929 2.5,2.5c0,1.38071 -1.11929,2.5 -2.5,2.5c-1.38071,0 -2.5,-1.11929 -2.5,-2.5z" fill="#ffaf00" stroke-width="0.5"/><path d="M644.14707,240.5c0,-1.38071 1.11929,-2.5 2.5,-2.5c1.38071,0 2.5,1.11929 2.5,2.5c0,1.38071 -1.11929,2.5 -2.5,2.5c-1.38071,0 -2.5,-1.11929 -2.5,-2.5z" data-paper-data="{&quot;origPos&quot;:null}" fill="#ffaf00" stroke-width="0.5"/></g><g data-paper-data="{&quot;origPos&quot;:null}" stroke="none" stroke-width="0" stroke-linecap="butt"><path d="M578.64707,299.33333v-108l34,-39v147z" data-paper-data="{&quot;origPos&quot;:null}" fill="#301d1d"/><g data-paper-data="{&quot;origPos&quot;:null}" fill="#ffaf00"><path d="M583.14707,213.97298v-9.97297h9.97298v9.97297z" data-paper-data="{&quot;origPos&quot;:null}"/><path d="M583.14707,226.86487v-9.97298h9.97298v9.97298z" data-paper-data="{&quot;origPos&quot;:null}"/><path d="M583.14707,240v-9.97297h9.97298v9.97297z" data-paper-data="{&quot;origPos&quot;:null}"/><path d="M598.14707,213.97298v-9.97297h9.97298v9.97297z" data-paper-data="{&quot;origPos&quot;:null}"/><path d="M598.14707,226.86487v-9.97298h9.97298v9.97298z" data-paper-data="{&quot;origPos&quot;:null}"/><path d="M598.14707,240v-9.97297h9.97298v9.97297z" data-paper-data="{&quot;origPos&quot;:null}"/></g><g data-paper-data="{&quot;origPos&quot;:null}" fill="#ffaf00"><path d="M583.14707,252.97298v-9.97297h9.97298v9.97297z" data-paper-data="{&quot;origPos&quot;:null}"/><path d="M583.14707,265.86487v-9.97298h9.97298v9.97298z" data-paper-data="{&quot;origPos&quot;:null}"/><path d="M583.14707,279v-9.97298h9.97298v9.97298z" data-paper-data="{&quot;origPos&quot;:null}"/><path d="M598.14707,252.97298v-9.97297h9.97298v9.97297z" data-paper-data="{&quot;origPos&quot;:null}"/><path d="M598.14707,265.86487v-9.97298h9.97298v9.97298z" data-paper-data="{&quot;origPos&quot;:null}"/><path d="M598.14707,279v-9.97298h9.97298v9.97298z" data-paper-data="{&quot;origPos&quot;:null}"/></g></g><g data-paper-data="{&quot;origPos&quot;:null}" fill="none" stroke="#301d1d" stroke-width="5" stroke-linecap="round"><path d="M742.14707,294l13,-76h47l13,76" data-paper-data="{&quot;origPos&quot;:null,&quot;index&quot;:null}"/><path d="M755.64707,218l55,48" data-paper-data="{&quot;origPos&quot;:null}"/><path d="M801.64707,219l-55,48" data-paper-data="{&quot;origPos&quot;:null,&quot;index&quot;:null}"/></g><path d="M755.14707,217.5v-113h47v113z" data-paper-data="{&quot;origPos&quot;:null}" fill="none" stroke="#301d1d" stroke-width="5" stroke-linecap="butt"/><path d="M756.39707,216.75l45,-35.5" data-paper-data="{&quot;origPos&quot;:null}" fill="none" stroke="#301d1d" stroke-width="5" stroke-linecap="round"/><path d="M756.89707,181.25l45,35.5" data-paper-data="{&quot;origPos&quot;:null,&quot;index&quot;:null}" fill="none" stroke="#301d1d" stroke-width="5" stroke-linecap="round"/><path d="M800.39707,144.75l-45,35.5" data-paper-data="{&quot;origPos&quot;:null}" fill="none" stroke="#301d1d" stroke-width="5" stroke-linecap="round"/><path d="M800.89707,180.25l-45,-35.5" data-paper-data="{&quot;origPos&quot;:null,&quot;index&quot;:null}" fill="none" stroke="#301d1d" stroke-width="5" stroke-linecap="round"/><path d="M755.89707,180.34259h46" data-paper-data="{&quot;origPos&quot;:null}" fill="none" stroke="#301d1d" stroke-width="5" stroke-linecap="round"/><path d="M756.89707,106.75l45,35.5" data-paper-data="{&quot;origPos&quot;:null,&quot;index&quot;:null}" fill="none" stroke="#301d1d" stroke-width="5" stroke-linecap="round"/><path d="M756.39707,142.25l45,-35.5" data-paper-data="{&quot;origPos&quot;:null,&quot;index&quot;:null}" fill="none" stroke="#301d1d" stroke-width="5" stroke-linecap="round"/><path d="M801.39707,142.34259h-46" data-paper-data="{&quot;origPos&quot;:null,&quot;index&quot;:null}" fill="none" stroke="#301d1d" stroke-width="5" stroke-linecap="round"/><path d="M776.14707,104.25v-33h6v33z" fill="#301d1d" stroke="none" stroke-width="0" stroke-linecap="butt"/><path d="M774.39707,69c0,-2.62335 2.12665,-4.75 4.75,-4.75c2.62335,0 4.75,2.12665 4.75,4.75c0,2.62335 -2.12665,4.75 -4.75,4.75c-2.62335,0 -4.75,-2.12665 -4.75,-4.75z" data-paper-data="{&quot;origPos&quot;:null}" fill="#ffaf00" stroke="none" stroke-width="0" stroke-linecap="butt"/><path d="M852.9804,175.33333v-25.5" data-paper-data="{&quot;origPos&quot;:null}" fill="none" stroke="#301d1d" stroke-width="5" stroke-linecap="round"/><g><path d="M847.37255,119.81778c5.54813,10.39862 16.25202,20.75278 22.18416,28.31379c0.45677,0.58219 1.18006,1.51646 2.05445,2.61096c-0.18356,0.13009 -0.37001,0.25755 -0.55931,0.3823c-9.06947,5.97692 -21.26698,3.46992 -27.2439,-5.59954c-5.50244,-8.34947 -3.8145,-19.35005 3.5646,-25.70751z" data-paper-data="{&quot;origRot&quot;:0,&quot;origPos&quot;:null,&quot;index&quot;:null}" fill="#301d1d" stroke="none" stroke-width="0" stroke-linecap="butt"/><path d="M855.9804,138.33333l13.5,-11" data-paper-data="{&quot;origPos&quot;:null}" fill="none" stroke="#301d1d" stroke-width="5" stroke-linecap="round"/><path d="M865.9804,126.58333c0,-2.34721 1.90279,-4.25 4.25,-4.25c2.34721,0 4.25,1.90279 4.25,4.25c0,2.34721 -1.90279,4.25 -4.25,4.25c-2.34721,0 -4.25,-1.90279 -4.25,-4.25z" data-paper-data="{&quot;origPos&quot;:null}" fill="#ffaf00" stroke="none" stroke-width="NaN" stroke-linecap="butt"/></g><path d="M493.64707,294v-157h56v157z" data-paper-data="{&quot;origPos&quot;:null}" fill="#301d1d" stroke="none" stroke-width="0" stroke-linecap="butt"/><path d="M891.64707,298v-147h33v147z" data-paper-data="{&quot;origPos&quot;:null}" fill="#301d1d" stroke="none" stroke-width="0" stroke-linecap="butt"/><path d="M939.64707,294v-157h90v157z" data-paper-data="{&quot;origPos&quot;:null}" fill="#301d1d" stroke="none" stroke-width="0" stroke-linecap="butt"/><path d="M950.64707,168v-12h12v12z" fill="#ffaf00" stroke="none" stroke-width="0" stroke-linecap="butt"/><path d="M950.64707,187v-12h12v12z" data-paper-data="{&quot;origPos&quot;:null}" fill="#ffaf00" stroke="none" stroke-width="0" stroke-linecap="butt"/><path d="M950.64707,207v-12h12v12z" data-paper-data="{&quot;origPos&quot;:null}" fill="#ffaf00" stroke="none" stroke-width="0" stroke-linecap="butt"/><path d="M533.56374,280v-132h9.16667v132z" fill="#ffaf00" stroke="none" stroke-width="0" stroke-linecap="butt"/><path d="M518.56373,280v-132h9.16667v132z" data-paper-data="{&quot;origPos&quot;:null}" fill="#ffaf00" stroke="none" stroke-width="0" stroke-linecap="butt"/><path d="M362.00001,246v-158l40,-45v203z" data-paper-data="{&quot;origPos&quot;:null}" fill="#1a0f0f" stroke="none" stroke-width="0" stroke-linecap="butt"/><path d="M463.50001,277v-194h51v194z" data-paper-data="{&quot;origPos&quot;:null}" fill="#1a0f0f" stroke="none" stroke-width="0" stroke-linecap="butt"/><path d="M-12.99999,294v-63h527v63z" data-paper-data="{&quot;origPos&quot;:null}" fill="#1a0f0f" stroke="none" stroke-width="0" stroke-linecap="butt"/><path d="M277.00001,245v-182h76v182z" data-paper-data="{&quot;origPos&quot;:null}" fill="#1a0f0f" stroke="none" stroke-width="0" stroke-linecap="butt"/><path d="M-49.49999,277v-194h99v194z" data-paper-data="{&quot;origPos&quot;:null}" fill="#1a0f0f" stroke="none" stroke-width="0" stroke-linecap="butt"/><path d="M58.00001,296v-241l51,59v182z" data-paper-data="{&quot;origPos&quot;:null}" fill="#1a0f0f" stroke="none" stroke-width="0" stroke-linecap="butt"/><path d="M230.00001,254v-184h34v184z" data-paper-data="{&quot;origPos&quot;:null}" fill="#1a0f0f" stroke="none" stroke-width="0" stroke-linecap="butt"/><path d="M189.00001,254v-184h34v184z" data-paper-data="{&quot;origPos&quot;:null}" fill="#1a0f0f" stroke="none" stroke-width="0" stroke-linecap="butt"/><path d="M115.00001,267v-129.16129l62,-52.83871v182z" data-paper-data="{&quot;origPos&quot;:null}" fill="#1a0f0f" stroke="none" stroke-width="0" stroke-linecap="butt"/><path d="M89.54138,202.54709c0.45291,-2.45863 4.2264,-1.31486 4.2264,-1.31486l1,1c0.0647,1.12382 2.90661,1.26777 3.73223,1.26777c5.03644,0.28208 9.59073,3.32649 14.5,4c5.42064,0.74366 11.52702,0 17,0c0,0 2.5,0 2.5,2.5c0,2.5 -2.5,2.5 -2.5,2.5c-5.44732,0 -11.61195,0.789 -17,0c-3.01547,-0.44157 -6.39772,-1.67106 -9.29057,-2.62829c-1.5486,-0.51243 -3.58869,-1.6648 -5.20943,-1.37171c-2.97454,0 -5.00845,-0.89943 -7.26777,-2.73223l-1,-1c0,0 -1.14377,0.23796 -0.69087,-2.22067z" data-paper-data="{&quot;origPos&quot;:null}" fill="#301d1d" stroke="none" stroke-width="0.5" stroke-linecap="butt"/><path d="M131.49905,223.06942c-0.06942,2.49904 -1.70847,2.30229 -1.70847,2.30229l-1.5,0.5c-3.6224,0.99361 -7.08291,0.03292 -10.69799,0.55705c-1.58994,0.23052 -3.10213,0.89674 -4.69923,1.07086c-3.46076,0.37729 -6.54317,-0.57204 -9.89334,-0.99961c-2.72959,-0.34837 -5.19954,-0.65875 -7.74558,-1.26326l-0.04499,0.13497l-1.18585,-0.39528l-0.79134,0.79134l-1.89335,-1.89335c-0.56727,-0.45893 -1.13493,-1.26957 -0.74103,-2.56933c0.01886,-0.06532 0.04032,-0.12954 0.06424,-0.19254c0.48844,-1.3386 1.50081,-1.61052 2.24213,-1.61075c0.03178,-0.0012 0.06371,-0.0018 0.09578,-0.0018c0.29656,0 0.58107,0.05164 0.84501,0.14641c5.78612,1.92361 12.97223,3.50046 19.06738,2.85323c1.19867,-0.12728 2.30092,-0.76374 3.49503,-0.9284c3.03807,-0.41895 7.58423,0.98104 10.30201,-0.44295l1.5,-0.5c0,0 3.35902,-0.05791 3.28961,2.44113z" fill="#301d1d" stroke="none" stroke-width="0.5" stroke-linecap="butt"/><path d="M90.50001,236c0,-2.5 2.5,-2.5 2.5,-2.5l2.79057,1.12829c1.57451,0.52484 3.60891,1.65213 5.20943,1.87171c9.03462,1.23946 18.59536,-0.00855 27.15507,-2.85361c0.26392,-0.09476 0.5484,-0.14639 0.84493,-0.14639c0.03207,0 0.064,0.0006 0.09578,0.0018c0.74132,0.00022 1.75369,0.27214 2.24213,1.61075c0.02393,0.063 0.04538,0.12722 0.06424,0.19254c0.41351,1.36449 -0.23268,2.18992 -0.82566,2.63529c-0.24581,0.19996 -0.53034,0.35414 -0.84062,0.44956l-2.94531,0.98177l-0.02232,-0.06697c-10.59693,3.01207 -22.07802,3.56057 -32.55882,0.06697l-1.20943,-0.87171c0,0 -2.5,0 -2.5,-2.5z" fill="#301d1d" stroke="none" stroke-width="0.5" stroke-linecap="butt"/><path d="M137.49718,249.88109c0.11891,2.49717 -2.37826,2.61608 -2.37826,2.61608l-1.32834,-0.12546c-0.5,0.16667 -1,0.33333 -1.5,0.5c-4.42663,1.47554 -8.68484,3.24663 -13.38941,3.62822c-5.10723,0.41425 -9.90954,-0.50566 -14.90116,-0.99993c-1.92127,-0.19024 -3.8763,0.12277 -5.79057,-0.12829c-1.06465,-0.13963 -1.9097,-0.39144 -2.80379,-0.58863l-0.19621,0.58863l-2.94531,-0.98177c-0.05438,-0.01672 -0.10796,-0.03525 -0.16069,-0.05551c-0.71716,-0.24366 -1.60343,-0.84591 -1.60343,-2.33442c0,-1.48852 0.88627,-2.09076 1.60343,-2.33442c0.27831,-0.10696 0.58059,-0.16558 0.89657,-0.16558h3v0.36521c1.24391,0.2668 2.45112,0.60795 3.79057,0.76308c1.39447,0.1615 2.81247,-0.26662 4.20943,-0.12829c1.82126,0.18034 3.57222,0.84589 5.39319,1.02913c7.66542,0.77135 14.20487,-1.03038 21.31624,-3.40084c0.5,-0.16667 1,-0.33333 1.5,-0.5l2.67166,-0.12546c0,0 2.49717,-0.11891 2.61608,2.37826z" fill="#301d1d" stroke="none" stroke-width="0.5" stroke-linecap="butt"/><g data-paper-data="{&quot;origPos&quot;:null}"><path d="M311.00001,294v-118h59v118z" fill="#301d1d" stroke="none" stroke-width="0" stroke-linecap="butt"/><path d="M335.83334,186.33333v53l-9.5,9v31.5" data-paper-data="{&quot;origPos&quot;:null}" fill="none" stroke="#ffaf00" stroke-width="2.5" stroke-linecap="round"/><path d="M326.33334,186.83333v51.5" data-paper-data="{&quot;origPos&quot;:null}" fill="none" stroke="#ffaf00" stroke-width="2.5" stroke-linecap="round"/><path d="M334.83334,280.33333v-29.5l11,-9v38" data-paper-data="{&quot;origPos&quot;:null}" fill="none" stroke="#ffaf00" stroke-width="2.5" stroke-linecap="round"/><path d="M346.33334,233.33333v-47.5" data-paper-data="{&quot;origPos&quot;:null}" fill="none" stroke="#ffaf00" stroke-width="2.5" stroke-linecap="round"/><path d="M354.88096,279.33333v-93" data-paper-data="{&quot;origPos&quot;:null}" fill="none" stroke="#ffaf00" stroke-width="2.5" stroke-linecap="round"/></g><g stroke="none" stroke-width="0" stroke-linecap="butt"><path d="M155.00001,226c0,-14.35941 11.64059,-26 26,-26c14.35941,0 26,11.64059 26,26c0,14.35941 -11.64059,26 -26,26c-14.35941,0 -26,-11.64059 -26,-26z" data-paper-data="{&quot;origPos&quot;:null}" fill="#ffaf00"/><path d="M151.83335,298.66667v-71.5l59.5,-3v74.5z" data-paper-data="{&quot;origPos&quot;:null}" fill="#301d1d"/><path d="M190.00001,239c0,-3.86599 3.13401,-7 7,-7c3.86599,0 7,3.13401 7,7c0,3.86599 -3.13401,7 -7,7c-3.86599,0 -7,-3.13401 -7,-7z" fill="#ffaf00"/><path d="M190.33335,256.33333c0,-3.86599 3.13401,-7 7,-7c3.86599,0 7,3.134 7,7c0,3.86599 -3.13401,7 -7,7c-3.86599,0 -7,-3.13401 -7,-7z" data-paper-data="{&quot;origPos&quot;:null}" fill="#ffaf00"/></g><g data-paper-data="{&quot;origPos&quot;:null}" stroke="none" stroke-linecap="butt"><path d="M124.00001,304v-107l20,20v87z" data-paper-data="{&quot;origPos&quot;:null}" fill="#301d1d" stroke-width="0"/><path d="M131.50001,220.5c0,-1.38071 1.11929,-2.5 2.5,-2.5c1.38071,0 2.5,1.11929 2.5,2.5c0,1.38071 -1.11929,2.5 -2.5,2.5c-1.38071,0 -2.5,-1.11929 -2.5,-2.5z" fill="#ffaf00" stroke-width="0.5"/><path d="M131.50001,230.5c0,-1.38071 1.11929,-2.5 2.5,-2.5c1.38071,0 2.5,1.11929 2.5,2.5c0,1.38071 -1.11929,2.5 -2.5,2.5c-1.38071,0 -2.5,-1.11929 -2.5,-2.5z" fill="#ffaf00" stroke-width="0.5"/><path d="M131.50001,240.5c0,-1.38071 1.11929,-2.5 2.5,-2.5c1.38071,0 2.5,1.11929 2.5,2.5c0,1.38071 -1.11929,2.5 -2.5,2.5c-1.38071,0 -2.5,-1.11929 -2.5,-2.5z" data-paper-data="{&quot;origPos&quot;:null}" fill="#ffaf00" stroke-width="0.5"/></g><g data-paper-data="{&quot;origPos&quot;:null}" stroke="none" stroke-width="0" stroke-linecap="butt"><path d="M66.00001,299.33333v-108l34,-39v147z" data-paper-data="{&quot;origPos&quot;:null}" fill="#301d1d"/><g data-paper-data="{&quot;origPos&quot;:null}" fill="#ffaf00"><path d="M70.50001,213.97298v-9.97297h9.97298v9.97297z" data-paper-data="{&quot;origPos&quot;:null}"/><path d="M70.50001,226.86487v-9.97298h9.97298v9.97298z" data-paper-data="{&quot;origPos&quot;:null}"/><path d="M70.50001,240v-9.97297h9.97298v9.97297z" data-paper-data="{&quot;origPos&quot;:null}"/><path d="M85.50001,213.97298v-9.97297h9.97298v9.97297z" data-paper-data="{&quot;origPos&quot;:null}"/><path d="M85.50001,226.86487v-9.97298h9.97298v9.97298z" data-paper-data="{&quot;origPos&quot;:null}"/><path d="M85.50001,240v-9.97297h9.97298v9.97297z" data-paper-data="{&quot;origPos&quot;:null}"/></g><g data-paper-data="{&quot;origPos&quot;:null}" fill="#ffaf00"><path d="M70.50001,252.97298v-9.97297h9.97298v9.97297z" data-paper-data="{&quot;origPos&quot;:null}"/><path d="M70.50001,265.86487v-9.97298h9.97298v9.97298z" data-paper-data="{&quot;origPos&quot;:null}"/><path d="M70.50001,279v-9.97298h9.97298v9.97298z" data-paper-data="{&quot;origPos&quot;:null}"/><path d="M85.50001,252.97298v-9.97297h9.97298v9.97297z" data-paper-data="{&quot;origPos&quot;:null}"/><path d="M85.50001,265.86487v-9.97298h9.97298v9.97298z" data-paper-data="{&quot;origPos&quot;:null}"/><path d="M85.50001,279v-9.97298h9.97298v9.97298z" data-paper-data="{&quot;origPos&quot;:null}"/></g></g><g data-paper-data="{&quot;origPos&quot;:null}" fill="none" stroke="#301d1d" stroke-width="5" stroke-linecap="round"><path d="M229.50001,294l13,-76h47l13,76" data-paper-data="{&quot;origPos&quot;:null,&quot;index&quot;:null}"/><path d="M243.00001,218l55,48" data-paper-data="{&quot;origPos&quot;:null}"/><path d="M289.00001,219l-55,48" data-paper-data="{&quot;origPos&quot;:null,&quot;index&quot;:null}"/></g><path d="M242.50001,217.5v-113h47v113z" data-paper-data="{&quot;origPos&quot;:null}" fill="none" stroke="#301d1d" stroke-width="5" stroke-linecap="butt"/><path d="M288.75001,181.25l-45,35.5" data-paper-data="{&quot;origPos&quot;:null}" fill="none" stroke="#301d1d" stroke-width="5" stroke-linecap="round"/><path d="M244.25001,181.25l45,35.5" data-paper-data="{&quot;origPos&quot;:null,&quot;index&quot;:null}" fill="none" stroke="#301d1d" stroke-width="5" stroke-linecap="round"/><path d="M287.75001,144.75l-45,35.5" data-paper-data="{&quot;origPos&quot;:null}" fill="none" stroke="#301d1d" stroke-width="5" stroke-linecap="round"/><path d="M243.25001,144.75l45,35.5" data-paper-data="{&quot;origPos&quot;:null,&quot;index&quot;:null}" fill="none" stroke="#301d1d" stroke-width="5" stroke-linecap="round"/><path d="M243.25001,180.34259h46" data-paper-data="{&quot;origPos&quot;:null}" fill="none" stroke="#301d1d" stroke-width="5" stroke-linecap="round"/><path d="M244.25001,106.75l45,35.5" data-paper-data="{&quot;origPos&quot;:null,&quot;index&quot;:null}" fill="none" stroke="#301d1d" stroke-width="5" stroke-linecap="round"/><path d="M243.75001,142.25l45,-35.5" data-paper-data="{&quot;origPos&quot;:null,&quot;index&quot;:null}" fill="none" stroke="#301d1d" stroke-width="5" stroke-linecap="round"/><path d="M288.75001,142.34259h-46" data-paper-data="{&quot;origPos&quot;:null,&quot;index&quot;:null}" fill="none" stroke="#301d1d" stroke-width="5" stroke-linecap="round"/><path d="M263.50001,104.25v-33h6v33z" fill="#301d1d" stroke="none" stroke-width="0" stroke-linecap="butt"/><path d="M261.75001,69c0,-2.62335 2.12665,-4.75 4.75,-4.75c2.62335,0 4.75,2.12665 4.75,4.75c0,2.62335 -2.12665,4.75 -4.75,4.75c-2.62335,0 -4.75,-2.12665 -4.75,-4.75z" data-paper-data="{&quot;origPos&quot;:null}" fill="#ffaf00" stroke="none" stroke-width="0" stroke-linecap="butt"/><path d="M340.33334,175.33333v-25.5" data-paper-data="{&quot;origPos&quot;:null}" fill="none" stroke="#301d1d" stroke-width="5" stroke-linecap="round"/><g><path d="M334.72549,119.81778c5.54813,10.39862 16.25202,20.75278 22.18416,28.31379c0.45677,0.58219 1.18006,1.51646 2.05445,2.61096c-0.18356,0.13009 -0.37001,0.25755 -0.55931,0.3823c-9.06947,5.97692 -21.26698,3.46992 -27.2439,-5.59954c-5.50244,-8.34947 -3.8145,-19.35005 3.5646,-25.70751z" data-paper-data="{&quot;origRot&quot;:0,&quot;origPos&quot;:null,&quot;index&quot;:null}" fill="#301d1d" stroke="none" stroke-width="0" stroke-linecap="butt"/><path d="M356.83334,127.33333l-13.5,11" data-paper-data="{&quot;origPos&quot;:null}" fill="none" stroke="#301d1d" stroke-width="5" stroke-linecap="round"/><path d="M353.33334,126.58333c0,-2.34721 1.90279,-4.25 4.25,-4.25c2.34721,0 4.25,1.90279 4.25,4.25c0,2.34721 -1.90279,4.25 -4.25,4.25c-2.34721,0 -4.25,-1.90279 -4.25,-4.25z" data-paper-data="{&quot;origPos&quot;:null}" fill="#ffaf00" stroke="none" stroke-width="NaN" stroke-linecap="butt"/></g><path d="M-18.99999,294v-157h56v157z" data-paper-data="{&quot;origPos&quot;:null}" fill="#301d1d" stroke="none" stroke-width="0" stroke-linecap="butt"/><path d="M379.00001,298v-147h33v147z" data-paper-data="{&quot;origPos&quot;:null}" fill="#301d1d" stroke="none" stroke-width="0" stroke-linecap="butt"/><path d="M427.00001,294v-157h90v157z" data-paper-data="{&quot;origPos&quot;:null}" fill="#301d1d" stroke="none" stroke-width="0" stroke-linecap="butt"/><path d="M453.64707,446.5v-158.5h581v158.5z" data-paper-data="{&quot;origPos&quot;:null}" fill="#301d1d" stroke="none" stroke-width="0" stroke-linecap="butt"/><path d="M-58.99999,446.5v-158.5h581v158.5z" data-paper-data="{&quot;origPos&quot;:null}" fill="#301d1d" stroke="none" stroke-width="0" stroke-linecap="butt"/><path d="M438.00001,168v-12h12v12z" fill="#ffaf00" stroke="none" stroke-width="0" stroke-linecap="butt"/><path d="M438.00001,187v-12h12v12z" data-paper-data="{&quot;origPos&quot;:null}" fill="#ffaf00" stroke="none" stroke-width="0" stroke-linecap="butt"/><path d="M438.00001,207v-12h12v12z" data-paper-data="{&quot;origPos&quot;:null}" fill="#ffaf00" stroke="none" stroke-width="0" stroke-linecap="butt"/><path d="M20.91668,280v-132h9.16667v132z" fill="#ffaf00" stroke="none" stroke-width="0" stroke-linecap="butt"/><path d="M5.91667,280v-132h9.16667v132z" data-paper-data="{&quot;origPos&quot;:null}" fill="#ffaf00" stroke="none" stroke-width="0" stroke-linecap="butt"/></g></g></svg>