<svg version="1.1" xmlns="http://www.w3.org/2000/svg" xmlns:xlink="http://www.w3.org/1999/xlink" width="156.36275" height="316.17077" viewBox="0,0,156.36275,316.17077"><defs><radialGradient cx="252.43924" cy="268.62071" r="8.75328" gradientUnits="userSpaceOnUse" id="color-1"><stop offset="0" stop-color="#000000"/><stop offset="1" stop-color="#000000"/></radialGradient><radialGradient cx="272.19936" cy="366.15375" r="13.52819" gradientUnits="userSpaceOnUse" id="color-2"><stop offset="0" stop-color="#000000"/><stop offset="1" stop-color="#000000"/></radialGradient><radialGradient cx="254.17227" cy="332.71062" r="13.18356" gradientUnits="userSpaceOnUse" id="color-3"><stop offset="0" stop-color="#000000"/><stop offset="1" stop-color="#000000"/></radialGradient><radialGradient cx="213.72811" cy="272.42355" r="8.75328" gradientUnits="userSpaceOnUse" id="color-4"><stop offset="0" stop-color="#000000"/><stop offset="1" stop-color="#000000"/></radialGradient></defs><g transform="translate(-185.53357,-76.28532)"><g data-paper-data="{&quot;isPaintingLayer&quot;:true}" fill-rule="nonzero" stroke-linejoin="miter" stroke-miterlimit="10" stroke-dasharray="" stroke-dashoffset="0" style="mix-blend-mode: normal"><path d="M279.1049,283.91269l-31.28411,-33.76268l-7.34903,-37.9595" data-paper-data="{&quot;origPos&quot;:null,&quot;origRot&quot;:0}" id="ID0.16875446680933237" fill="none" stroke="url(#color-1)" stroke-width="2" stroke-linecap="round"/><path d="M263.63339,305.3969c0,0 34.79284,13.11371 26.43488,27.92403c-7.78722,13.79896 -19.95378,35.35812 -19.95378,35.35812l9.4237,5.3181" data-paper-data="{&quot;origPos&quot;:null,&quot;origRot&quot;:0}" id="ID0.43897221656516194" fill="none" stroke="url(#color-2)" stroke-width="2" stroke-linecap="round"/><path d="M262.84811,391.45609l-10.81736,-0.27041l2.10357,-84.1491" data-paper-data="{&quot;origPos&quot;:null,&quot;origRot&quot;:0}" id="ID0.43897221656516194" fill="none" stroke="url(#color-3)" stroke-width="2" stroke-linecap="round"/><path d="M219.32041,208.95603l60.25921,-0.00006l0.0001,96.22024l-60.25921,0.00005z" data-paper-data="{&quot;origPos&quot;:null}" id="ID0.7297499743290246" fill="#0251ff" stroke="#0344b1" stroke-width="2" stroke-linecap="butt"/><g data-paper-data="{&quot;origPos&quot;:null}" id="ID0.9996707611717284" stroke-width="1"><path d="M252.32511,251.34498c-1.70266,0.14617 -3.04957,-4.90801 -5.20244,-4.82696c-2.26918,0.13812 -3.30326,5.09139 -5.33323,5.34945c-1.10086,0.13891 -0.99288,-2.91397 -0.93043,-4.44074c0.09165,-2.18833 0.29146,-4.50779 1.28822,-6.26509c0.90185,-1.58949 2.54011,-3.82718 4.02385,-3.14807c2.87633,1.31684 5.07713,4.73334 6.61535,8.0676c0.70527,1.52618 0.66175,5.15055 -0.46132,5.26381z" id="ID0.10925169289112091" fill="#f5291b" stroke="#bb270e" stroke-linecap="round"/><path d="M259.18056,259.70988c1.69665,3.21185 3.15572,7.20147 2.81087,11.00734c-0.17802,1.96315 -2.51134,2.79433 -4.05162,3.09188c-1.70276,0.32862 -3.45109,-0.4855 -5.05724,-1.36194c-1.11993,-0.61313 -3.35174,-1.85807 -2.75993,-3.02709c1.09267,-2.15481 5.09797,-1.09549 6.21185,-3.57146c1.02103,-2.37144 -1.99133,-6.13871 -1.12512,-7.97752c0.5834,-1.20534 3.19512,0.36732 3.9712,1.8388z" id="ID0.10925169289112091" fill="#f5291b" stroke="#bb270e" stroke-linecap="round"/><path d="M278.69129,236.93626c1.61466,3.26743 1.55528,7.40366 0.15532,11.44738c-1.40085,4.04441 -4.14137,7.99564 -7.88956,10.89188c-3.74819,2.89624 -7.80017,4.1936 -11.3195,3.95102c-3.51845,-0.24327 -6.50337,-2.02716 -8.11802,-5.29458c-1.61466,-3.26743 -1.55528,-7.40366 -0.15531,-11.44738c1.40084,-4.04441 4.14138,-7.99563 7.88957,-10.89187c3.74819,-2.89624 7.80017,-4.1936 11.31951,-3.95103c3.51845,0.24327 6.50336,2.02716 8.11802,5.29458z" id="ID0.44616582430899143" fill="#e5e5e5" stroke="#b2b2b2" stroke-linecap="round"/><path d="M280.72052,236.21704c0.88351,1.89695 0.88355,4.37851 0.65824,6.53788c-0.24962,2.48453 -1.05355,4.86122 -2.0446,7.01793c-0.59995,1.30457 -1.43255,2.85479 -2.63069,3.10504c-0.8297,0.18768 -1.27084,-0.85624 -1.90792,-2.1256c-2.54741,-5.07811 -4.92106,-10.37475 -7.02789,-15.70905c-0.52602,-1.33219 -1.27738,-2.83033 -0.4621,-3.16619c2.80644,-1.15292 6.06231,-1.15345 8.97061,-0.19146c1.83626,0.57252 3.4614,2.42335 4.44435,4.53144z" id="ID0.34605008317157626" fill="#f5291b" stroke="#ae1f0a" stroke-linecap="round"/><path d="M268.14451,245.57422c0.80857,1.63623 1.01052,3.52979 0.68176,5.26665c-0.32733,1.73728 -1.18534,3.31785 -2.49385,4.32894c-1.3085,1.01108 -2.8228,1.26361 -4.21178,0.85252c-1.38931,-0.40931 -2.65332,-1.48222 -3.46188,-3.11845c-0.80857,-1.63623 -1.01052,-3.52979 -0.68176,-5.26665c0.32733,-1.73728 1.18534,-3.31786 2.49385,-4.32894c1.3085,-1.01108 2.82281,-1.26361 4.21178,-0.85252c1.38931,0.40931 2.65331,1.48222 3.46188,3.11845z" id="ID0.569763976149261" fill="#bbddff" stroke="#b2b2b2" stroke-linecap="butt"/><path d="M265.78225,244.90985c0.26075,0.52767 0.32576,1.13767 0.2192,1.69795c-0.10513,0.5607 -0.38149,1.06989 -0.80347,1.39596c-0.42198,0.32607 -0.90979,0.40735 -1.35786,0.27411c-0.4484,-0.13146 -0.8556,-0.47704 -1.11636,-1.00471c-0.26075,-0.52767 -0.32577,-1.13767 -0.21921,-1.69795c0.10513,-0.5607 0.38149,-1.06989 0.80347,-1.39596c0.42198,-0.32607 0.9098,-0.40735 1.35786,-0.2741c0.4484,0.13146 0.8556,0.47704 1.11636,1.00471z" id="ID0.17324856109917164" fill="#d9e9ff" stroke="none" stroke-linecap="butt"/><path d="M247.94582,255.84374c0.23178,0.5087 0.05069,1.22307 -0.09372,1.77123c-0.13836,0.52817 -0.37109,1.03888 -0.78066,1.35536c-0.40957,0.31648 -0.88401,0.39509 -1.31861,0.26675c-0.4346,-0.12833 -0.83081,-0.46403 -1.08389,-0.97618c-0.25308,-0.51215 -0.31596,-1.10542 -0.21332,-1.64888c0.10263,-0.54345 0.37109,-1.03888 0.78067,-1.35536c0.40957,-0.31648 0.88158,-0.37024 1.31861,-0.26676c0.49419,0.11753 1.10614,0.31716 1.39094,0.85383z" id="ID0.8451523161493242" fill="#f56d1b" stroke="#d55f18" stroke-linecap="round"/><path d="M248.67125,264.78543c0.23178,0.5087 0.05069,1.22307 -0.09371,1.77123c-0.13836,0.52817 -0.37109,1.03888 -0.78066,1.35536c-0.40957,0.31648 -0.88401,0.39509 -1.31862,0.26675c-0.4346,-0.12833 -0.83081,-0.46403 -1.08389,-0.97618c-0.25308,-0.51215 -0.31596,-1.10542 -0.21332,-1.64888c0.10263,-0.54345 0.3711,-1.03888 0.78067,-1.35536c0.40957,-0.31648 0.88158,-0.37024 1.31861,-0.26675c0.49419,0.11753 1.10613,0.31715 1.39093,0.85382z" id="ID0.8451523161493242" fill="#f56d1b" stroke="#d55f18" stroke-linecap="round"/><path d="M242.45322,261.67528c0.23178,0.5087 0.05069,1.22307 -0.09372,1.77123c-0.13836,0.52817 -0.37109,1.03888 -0.78066,1.35536c-0.40957,0.31648 -0.88401,0.39509 -1.31862,0.26675c-0.4346,-0.12833 -0.8308,-0.46403 -1.08389,-0.97618c-0.25308,-0.51215 -0.31596,-1.10542 -0.21333,-1.64887c0.10263,-0.54345 0.37109,-1.03888 0.78067,-1.35536c0.40957,-0.31648 0.88158,-0.37023 1.31861,-0.26675c0.49419,0.11753 1.10614,0.31715 1.39094,0.85382z" id="ID0.8451523161493242" fill="#f56d1b" stroke="#d55f18" stroke-linecap="round"/></g><g data-paper-data="{&quot;origPos&quot;:null}"><g data-paper-data="{&quot;origPos&quot;:null}" id="ID0.4706640876829624" stroke-width="2"><path d="M256.79257,77.93325c19.03802,-0.00002 36.29031,7.73258 48.78148,20.22501c12.49246,12.49114 20.22509,29.74341 20.22511,48.78144c0.00002,19.03803 -7.73258,36.2903 -20.22502,48.78147c-12.49114,12.49246 -29.7434,20.22509 -48.78143,20.22511c-19.03803,0.00002 -36.29031,-7.73258 -48.78147,-20.22501c-12.49246,-12.49114 -20.2251,-29.74341 -20.22512,-48.78143c-0.00002,-19.03803 7.73259,-36.29031 20.22502,-48.78147c12.49114,-12.49246 29.7434,-20.22509 48.78143,-20.22511z" id="ID0.052302687894552946" fill="#ffffff" stroke="#cccccc" stroke-linecap="butt"/><path d="M188.82283,144.996c-1.78963,0.84622 -2.41815,-3.41339 -2.26783,-5.50756c0.60129,-8.37797 0.90841,-17.20303 4.21164,-24.94602c3.58833,-7.86739 10.38789,-19.40089 19.43843,-24.62206c13.38272,-7.71189 29.1149,-10.88686 44.31967,-12.63504c11.30281,-1.1119 23.06696,0.86046 33.75812,4.21163c11.98835,3.75809 23.63977,9.47039 33.69334,17.04101c7.84536,6.16198 14.84582,14.19136 18.92012,23.32613c1.29331,2.89633 -2.21727,7.89979 -5.50756,7.77539c-5.2121,-0.20216 -8.35206,-6.27084 -12.95898,-8.81209c-1.04968,-0.66091 0.2812,1.05615 1.1663,2.13823c3.5391,4.327 9.50801,7.11446 11.20953,12.50539c0.80475,2.40518 -2.70324,5.43111 -5.37797,5.63716c-3.97711,0.30066 -7.21945,-3.36414 -11.01513,-4.73001c-13.36719,-4.72224 -26.29376,-11.86262 -40.49679,-13.54209c-19.18964,-2.2678 -38.96633,-0.46908 -57.99139,2.0735c-7.11447,0.9512 -13.71837,4.62118 -19.76242,8.61773c-4.50713,2.81728 -6.38098,9.11405 -11.33908,11.4687z" id="ID0.12275043269619346" fill="#0251ff" stroke="#0344b1" stroke-linecap="round"/></g><path d="M313.91173,146.81568c1.49546,2.84449 2.42074,6.77236 2.42074,11.10714c0,4.33478 -0.92527,8.26264 -2.42074,11.10713c-1.49546,2.84449 -3.56112,4.60562 -5.84061,4.60562c-2.27948,0 -4.34515,-1.76112 -5.84061,-4.60562c-1.49546,-2.84449 -2.42074,-6.77236 -2.42074,-11.10713c0,-4.33478 0.92527,-8.26264 2.42074,-11.10713c1.49546,-2.84449 3.56113,-4.60562 5.84061,-4.60562c2.27948,0 4.34514,1.76112 5.84061,4.60562z" data-paper-data="{&quot;origPos&quot;:null}" id="ID0.2136117359623313" fill="#000000" stroke="none" stroke-width="1" stroke-linecap="butt"/><path d="M268.42575,146.16773c1.49546,2.84449 2.42073,6.77236 2.42073,11.10714c0,4.33478 -0.92527,8.26264 -2.42073,11.10714c-1.49546,2.84449 -3.56113,4.60562 -5.84061,4.60562c-2.27948,0 -4.34514,-1.76112 -5.8406,-4.60561c-1.49546,-2.84449 -2.42073,-6.77236 -2.42073,-11.10713c0,-4.33478 0.92527,-8.26264 2.42073,-11.10713c1.49546,-2.84449 3.56112,-4.60561 5.8406,-4.60561c2.27948,0 4.34515,1.76112 5.84061,4.60562z" data-paper-data="{&quot;origPos&quot;:null}" id="ID0.2136117359623313" fill="#000000" stroke="none" stroke-width="1" stroke-linecap="butt"/><path d="M283.33873,192.76734c0,0 -10.86494,0.31862 -16.16558,-0.53262c-4.15224,-0.66958 -8.07641,-2.51872 -12.06159,-3.94827c-0.97789,-0.36823 -1.75244,-1.23708 -1.75244,-1.23708" data-paper-data="{&quot;origPos&quot;:null}" id="ID0.46204856457188725" fill="none" stroke="#000000" stroke-width="2" stroke-linecap="round"/><path d="M248.16667,140.82222v-7.66667l66.00001,4.66667l11.66666,3l-39,12z" data-paper-data="{&quot;origPos&quot;:null}" fill="#ffffff" stroke="none" stroke-width="2" stroke-linecap="butt"/></g><path d="M208.57482,287.83023l20.83523,-49.87674l23.5413,-26.42205" data-paper-data="{&quot;origPos&quot;:null,&quot;origRot&quot;:0}" id="ID0.16875446680933237" fill="none" stroke="url(#color-4)" stroke-width="2" stroke-linecap="round"/></g></g></svg>