<svg version="1.1" xmlns="http://www.w3.org/2000/svg" xmlns:xlink="http://www.w3.org/1999/xlink" width="1053.93843" height="684.57484" viewBox="0,0,1053.93843,684.57484"><g transform="translate(134.26352,264.82194)"><g data-paper-data="{&quot;isPaintingLayer&quot;:true}" fill-rule="nonzero" stroke="none" stroke-width="0" stroke-linecap="butt" stroke-linejoin="miter" stroke-miterlimit="10" stroke-dasharray="" stroke-dashoffset="0" style="mix-blend-mode: normal"><path d="" fill="#6f3615"/><path d="" fill="#6f3615"/><path d="" fill="#6f3615"/><path d="" fill="#6f3615"/><path d="" fill="#6f3615"/><path d="" fill="#6f3615"/><path d="" fill="#6f3615"/><path d="" fill="#6f3615"/><path d="" fill="#6f3615"/><path d="" fill="#6f3615"/><path d="" fill="#6f3615"/><path d="" fill="#6f3615"/><path d="" fill="#6f3615"/><path d="" fill="#6f3615"/><path d="" fill="#6f3615"/><path d="" fill="#6f3615"/><path d="" fill="#6f3615"/><path d="" fill="#6f3615"/><path d="" fill="#6f3615"/><path d="" fill="#6f3615"/><path d="" fill="#6f3615"/><path d="" fill="#6f3615"/><g fill="#c0acff"><path d="M9.4711,419.7529v-243.47467h75v243.47467z"/><path d="M-125.6539,375.17806v-640h138.25v640z"/><path d="M51.8461,62.89472v-92h59v92z"/><path d="M96.84609,16.89472v-46h196v46z"/><path d="M94.84609,-13.10529v-108h32v108z"/><path d="M-134.26352,-158.82194v-95h919.10961v95z"/><path d="M191.8461,-17.10529v-92.71666h32v92.71666z"/><path d="M260.8461,-21.10528v-30h32v30z"/><path d="M145.06635,205.46416v-46.36881h83.11488v46.36881z"/><path d="M224.4711,204.95403v-99.30286h75v99.30286z"/><path d="M292.8461,206.06138v-161.66667h66v161.66667z"/><path d="M339.8461,205.89472v-297h69v297z"/><path d="M485.8461,377.89472v-469h69v469z"/><path d="M662.91815,397.04392v-566.06607h256.75676v566.06607z"/><path d="M533.89865,382.0289v-190.69069h346.84685v190.69069z"/><path d="M339.38776,-53.66572v-110h69v110z"/><path d="M25.38775,403.33429v-162h531v162z"/><path d="M145.38776,172.33429v-167h9v167z"/><path d="M83.38776,63.33428v-57h66v57z"/><path d="M53.38776,192.33429v-55h31v55z"/><path d="M51.38776,99.33429v-39h36v39z"/><path d="M-1.1539,-88.10528v-72h52v72z"/></g></g></g></svg>