<svg version="1.1" xmlns="http://www.w3.org/2000/svg" xmlns:xlink="http://www.w3.org/1999/xlink" width="247.60898" height="418.76048" viewBox="0,0,247.60898,418.76048"><g transform="translate(-68.4151,-15.29939)"><g data-paper-data="{&quot;isPaintingLayer&quot;:true}" fill-rule="nonzero" stroke-linejoin="miter" stroke-miterlimit="10" stroke-dasharray="" stroke-dashoffset="0" style="mix-blend-mode: normal"><g data-paper-data="{&quot;index&quot;:null}"><path d="M115.36643,376.13169c-0.57811,-2.98835 1.31033,-4.89328 0.61555,-8.21027c-0.39021,-1.86293 -2.55682,-2.48357 -3.50283,-4.34129c-0.98038,-1.92521 -0.73568,-5.06413 -0.82899,-5.61193c-0.50402,-2.95818 11.98917,-3.87481 11.98917,-3.87481c0,0 9.25587,0.32361 10.96884,-0.04744c3.2788,-0.7102 13.66872,-3.52979 13.66872,-3.52979l10.83974,32.09615l-10.44207,6.64672c0,0 -3.30449,5.01862 -2.18253,9.17068c1.48385,5.49123 2.74076,16.07881 0.75632,19.608c-4.13566,7.35492 -3.84413,8.8177 -5.83897,8.37135c0,0 -3.55146,0.87437 -5.59966,0.91055c-2.0637,0.03646 -6.73638,-0.69262 -6.73638,-0.69262c0,0 -11.30528,-38.08089 -13.7069,-50.49527z" fill="#403328" stroke="#292018" stroke-width="4" stroke-linecap="butt"/><path d="M133.84962,419.44653l1.38204,4.93893l-3.61671,-0.08812c0,0 -1.90555,-6.48501 -3.61876,-11.94405c-1.5032,-4.78989 -12.16312,-38.77231 -9.90399,-37.39637c0.26747,0.16291 2.32693,-4.27034 1.31686,-8.26335c-0.5364,-2.12053 -2.67338,-3.30066 -3.87228,-4.69988c-1.04702,-1.22192 -1.20625,-2.8043 -1.20625,-2.8043c0,0 3.90739,-2.47191 4.76373,-0.52254c1.55092,3.53046 3.41379,16.62518 6.53628,29.24385c3.61009,14.58923 8.21913,31.53584 8.21913,31.53584z" fill="#775f4a" stroke="none" stroke-width="0" stroke-linecap="butt"/><path d="M148.05783,388.79413c0,0 -4.13889,-4.99959 -5.33546,-8.18608c-1.45042,-3.86246 -0.69181,-5.44472 -0.69181,-5.44472l9.23649,-5.70689l-2.45309,16.67342" fill="none" stroke="#292018" stroke-width="4" stroke-linecap="round"/><path d="M155.24252,383.36465l-11.68232,-7.46225" fill="none" stroke="#292018" stroke-width="4" stroke-linecap="round"/></g><g data-paper-data="{&quot;index&quot;:null}" stroke-linecap="butt"><g fill="#465b9c"><path d="M190.65353,297.61748c1.05539,-7.5918 2.9177,-27.5213 2.9177,-27.5213l32.5371,1.27273c0,0 0.4632,27.52842 -0.60892,36.02357c-1.12814,8.93912 -3.43607,22.53719 -3.43607,22.53719c0,0 -11.70686,4.40191 -16.98345,4.41854c-5.04381,0.0159 -14.63723,-3.7053 -14.63723,-3.7053c0,0 -1.05744,-23.90209 0.21087,-33.02543z" stroke="#2e3c67" stroke-width="4"/><path d="M195.13656,272.7012l0.17514,-4.58865l24.12922,0.90058l-0.17514,4.58865z" stroke="none" stroke-width="0"/></g><path d="M197.16817,280.85581c1.10933,-14.22194 3.20129,-26.10284 9.26862,-26.02187c14.02856,0.18724 11.92915,13.35513 9.91296,36.43313c-1.19791,13.71172 -4.16151,28.95937 -7.79549,35.45595c-1.81595,3.24645 -5.22755,4.34496 -6.98995,4.34496c-2.58897,0 -5.29502,-0.96406 -6.52546,-3.42988c-0.74182,-1.48659 0.76356,-5.38365 0.46454,-9.14993c-0.21827,-2.74932 -0.32369,-6.24464 -0.32369,-10.68841c0,-6.15584 1.51662,-20.89481 1.98847,-26.94394z" fill="#5671c0" stroke="none" stroke-width="0"/></g><g data-paper-data="{&quot;index&quot;:null}" stroke-linecap="butt"><g fill="#465b9c"><path d="M137.47166,353.51618l4.36036,-1.39415l0.6993,-2.91798l3.66876,-1.30875c0,0 14.65162,-11.51577 18.63303,-13.95561c6.54241,-4.00923 24.99463,-17.54244 24.99463,-17.54244l32.67428,13.51413c0,0 -32.46024,31.68936 -39.70748,36.26389c-3.01918,1.90574 -14.6928,9.3052 -14.6928,9.3052l-3.25779,2.50041l-2.86569,-0.06705l-3.09848,3.89263c0,0 -9.42919,-8.62536 -13.01168,-12.89162c-3.42446,-4.07806 -8.39643,-15.39868 -8.39643,-15.39868z" stroke="#2e3c67" stroke-width="4"/><path d="M189.63702,319.63598l4.261,-3.31558l26.49378,8.16336c0,0 0.6098,5.37614 -0.66821,5.58206c-0.49388,0.07958 -17.08968,6.23241 -17.08968,6.23241z" stroke="none" stroke-width="0"/></g><path d="M195.92622,315.65445c3.89846,-2.00065 12.49919,2.00293 14.50989,4.27312c1.89759,3.97304 -3.17785,8.49791 -6.3923,10.44858c-15.49976,9.4059 -32.23156,24.21735 -37.01162,27.88259c-2.69496,2.06642 -6.05254,8.88571 -10.05787,7.11827c-1.55684,-0.687 -4.71568,-3.09942 -6.24488,-5.80421c-1.6082,-2.84454 -2.54227,-4.75872 -2.1366,-6.72219c0.40567,-1.96347 4.22976,-1.67735 4.05198,-2.54832c-0.56635,-2.77468 13.66683,-9.5584 21.98794,-15.93883c4.42979,-3.39667 16.85553,-16.4315 21.29347,-18.709z" fill="#5671c0" stroke="none" stroke-width="0"/></g><g data-paper-data="{&quot;index&quot;:null}"><path d="M286.5103,428.87683c-1.00155,3.47254 -2.39575,3.17677 -2.39575,3.17677c0,0 -17.83909,2.67891 -34.33414,1.62416c-3.63916,-0.23269 -3.38136,-4.0704 -6.27337,-5.83933c-2.28262,-1.39619 -1.04911,-1.72694 -1.94855,-1.80466c-2.98967,-0.25833 -2.84479,-1.0764 -2.84479,-1.0764c0,0 0.5286,-16.44245 0.60157,-18.19363c0.13966,-3.35192 1.24234,-14.1171 1.24234,-14.1171l33.79241,-2.39474l3.19298,11.17544c0,0 0.57618,7.6378 5.69462,12.57314c3.08637,2.97597 4.30727,11.28923 3.27269,14.87635z" fill="#403328" stroke="#292018" stroke-width="4" stroke-linecap="butt"/><path d="M272.44357,425.20251l11.18175,1.42173l-1.6028,2.5695c0,0 -11.2964,1.41923 -17.01104,1.70028c-5.01416,0.2466 -13.32229,-0.36987 -13.32229,-0.36987c0,0 -2.66083,1.04866 -2.66083,-1.59649c0,-2.64515 23.41522,-3.72515 23.41522,-3.72515z" fill="#775f4a" stroke="none" stroke-width="0" stroke-linecap="butt"/><path d="M254.97496,416.88075c0,0 7.21396,-1.56445 12.77469,-1.79616c5.029,-0.20955 14.63174,1.264 14.63174,1.264" fill="none" stroke="#292018" stroke-width="4" stroke-linecap="round"/><path d="M277.543,402.51231c0,0 -5.88181,2.74419 -9.26706,3.09847c-4.10341,0.42943 -13.61598,-0.70372 -13.61598,-0.70372l-3.19298,-10.37721l17.02925,7.18421" fill="none" stroke="#292018" stroke-width="4" stroke-linecap="round"/><path d="M255.4582,403.31056l14.10235,-8.51462l1.33041,7.98246" fill="none" stroke="#292018" stroke-width="4" stroke-linecap="round"/></g><path d="M212.17605,86.62806c3.25702,-5.58055 8.47368,-23.46843 8.47368,-23.46843l79.33835,13.46324c0,0 -2.64211,19.56295 -2.08486,26.47291c0.36321,4.50383 1.82642,5.58815 1.82642,5.58815c0,0 -4.10344,5.07964 -7.30393,4.61693c-1.0249,-0.14818 -3.21661,-0.47862 -4.67598,-0.64392c-0.58214,-0.06595 -2.39449,8.86026 -2.39449,8.86026c0,0 -4.49025,3.07434 -7.90128,2.63486c-1.41498,-0.18231 -6.0136,-1.66683 -7.51718,-1.81655c-1.69444,-0.16872 -5.35704,0.80182 -8.1058,1.29247c-4.4424,0.79293 -10.08797,-0.5294 -10.08797,-0.5294c0,0 -4.46829,-2.38972 -7.6219,-4.55199c-2.60619,-1.78693 -3.71891,-3.35002 -5.95196,-3.88821c-1.49613,-0.36059 -13.3967,0.51561 -14.23249,0.35125c-2.03256,-0.39969 -9.70676,-5.79948 -9.70676,-5.79948c0,0 2.91327,-6.3444 1.67882,-6.63508c-1.64813,-0.3881 -3.07754,-4.1716 -4.00815,-4.44206c-2.87741,-0.83625 -4.36982,-6.43653 -4.36982,-6.43653c0,0 2.24367,-0.95348 4.64531,-5.06843z" data-paper-data="{&quot;index&quot;:null}" fill="#14161a" stroke="#14161a" stroke-width="4" stroke-linecap="butt"/><path d="M209.78085,187.0129c0,0 8.66515,-31.90699 7.23955,-36.54701c-0.25316,-0.82403 -2.90602,-7.68989 -8.5076,-10.4162c-4.26324,-2.07494 -12.2387,0.20782 -10.44193,-2.08643c4.15762,-5.30874 13.55798,-6.83471 18.83689,-7.11625c10.74465,-0.57306 24.78189,-5.62552 33.73795,-3.96466c9.78871,1.81527 19.91525,8.23094 32.15685,15.35483c11.89521,6.92232 6.68986,14.93365 6.68986,14.93365c0,0 -12.89015,5.3334 -13.45576,5.97285c-2.7375,3.09473 -9.08824,32.847 -9.08824,32.847l0.26346,37.94255c0,0 -14.61674,7.72534 -37.65504,2.86969c-21.46857,-4.52482 -34.17858,-14.73668 -34.17858,-14.73668z" data-paper-data="{&quot;index&quot;:null}" fill="#95d2a1" stroke="#67916f" stroke-width="4" stroke-linecap="butt"/><path d="M262.34876,172.03864c-0.26222,1.41402 -2.76624,8.474 -2.93245,12.04094c-0.57183,12.27088 1.42558,28.9171 -0.80998,29.85778c-5.49101,2.31051 -21.5568,-2.50278 -26.49957,-3.37035c-4.009,-0.70366 -18.35171,-3.04977 -21.77065,-7.53422c-2.6529,-3.47969 4.77917,-14.28282 8.87059,-26.41203c1.18142,-3.5024 1.18048,-10.58196 1.69349,-13.3483c0.55308,-2.98247 -1.26258,-17.16052 -2.16285,-20.47838c-0.32959,-1.21467 -4.6305,0.16683 -6.25089,-0.90354c-1.40535,-0.92831 -0.1901,-4.29488 -0.074,-5.47132c0.22735,-2.3035 5.0656,-4.61611 9.82996,-5.25379c4.76437,-0.63769 19.6775,-0.79558 26.25442,0.42408c6.77491,1.25638 20.08205,5.62158 25.33447,9.3936c0.99051,0.71134 7.5765,4.57489 6.2207,7.23854c-0.97927,1.92389 -1.56655,5.83704 -3.75974,6.1301c-2.41318,0.32248 -6.41521,-3.04003 -6.79997,-2.1116c-1.84477,4.45141 -6.59165,16.82239 -7.14357,19.7985z" data-paper-data="{&quot;index&quot;:null}" fill="#a6eab4" stroke="none" stroke-width="0" stroke-linecap="butt"/><g data-paper-data="{&quot;index&quot;:null}" stroke-linecap="butt"><path d="M223.3661,126.97856l2.62454,-8.44666c0,0 13.72937,0.95192 24.25781,3.01134c10.52845,2.05942 26.97869,7.77034 26.97869,7.77034l-1.01885,5.49405z" fill="#292018" stroke="#292018" stroke-width="4"/><g><path d="M234.7555,117.32073l32.69849,6.31009l-2.05628,13.31743c0,0 -6.56949,7.95712 -15.3833,6.21609c-8.53419,-1.6858 -20.42876,-13.78286 -20.42876,-13.78286z" fill="#d9bb9a" stroke="#917c67" stroke-width="4"/><path d="M259.67709,131.97955c-0.22507,1.21371 -2.73408,2.63215 -5.41251,2.13545c-2.67842,-0.4967 -4.51202,-2.72046 -4.28694,-3.93417c0.22507,-1.21371 2.42359,-0.95776 5.10202,-0.46107c2.67842,0.4967 4.82251,1.04608 4.59743,2.25978z" fill="#ffdbb5" stroke="none" stroke-width="0"/></g></g><g data-paper-data="{&quot;index&quot;:null}"><path d="M220.93879,75.2319c4.42873,-26.07816 22.69122,-38.24955 45.56941,-34.36426c22.87818,3.8853 36.09864,21.4033 31.66992,47.48145c-4.42872,26.07817 -29.68478,40.18281 -40.15155,38.61603c-24.03421,-3.59768 -41.5165,-25.65507 -37.08777,-51.73324z" data-paper-data="{&quot;index&quot;:null}" fill="#d9bb9a" stroke="#917c67" stroke-width="4" stroke-linecap="butt"/><path d="M292.11661,87.85949c-3.543,20.86251 -22.41194,35.14505 -32.99447,33.34788c-20.80577,-3.217 -35.60536,-23.53366 -32.06236,-44.3962c3.543,-20.86251 17.81599,-33.13988 38.89156,-29.5607c20.81325,3.53462 29.70827,19.74649 26.16529,40.60902z" fill="#ffdbb5" stroke="none" stroke-width="0" stroke-linecap="butt"/><path d="M272.40521,102.2093c-0.24652,1.32931 -3.60858,3.91791 -6.78734,3.32842c-3.17876,-0.58949 -4.6805,-2.43817 -4.434,-3.76745c0.24652,-1.32931 2.14793,-1.63586 5.3267,-1.04638c3.17876,0.58949 6.14116,0.1561 5.89464,1.48542z" fill="#d9bb9a" stroke="none" stroke-width="0" stroke-linecap="butt"/><path d="M266.80525,112.83356l-15.07344,-4.65256" fill="none" stroke="#d9bb9a" stroke-width="4" stroke-linecap="round"/></g><g data-paper-data="{&quot;index&quot;:null}" stroke-linecap="butt"><g fill="#465b9c"><path d="M236.62261,330.69507c0,0 -2.35586,-13.59806 -3.50742,-22.53719c-1.09437,-8.49514 -0.62154,-36.02356 -0.62154,-36.02356l33.21268,-1.27274c0,0 1.90098,19.92951 2.97827,27.5213c1.29463,9.12335 0.21524,33.02543 0.21524,33.02543c0,0 -9.79262,3.72119 -14.94115,3.70529z" stroke="#2e3c67" stroke-width="4"/><path d="M239.47826,274.36718l-0.17878,-4.58865l24.63025,-0.90059l0.17878,4.58865z" stroke="none" stroke-width="0"/></g><path d="M260.83569,308.36337c0,4.44377 0.09421,7.9391 -0.12861,10.6884c-0.30523,3.76628 0.42422,8.06693 -0.333,9.55352c-1.25598,2.46582 -1.19307,3.02629 -3.8358,3.02629c-1.799,0 -7.29942,-1.09851 -9.15307,-4.34496c-3.70943,-6.49657 -4.71657,-21.74424 -5.93936,-35.45595c-2.05805,-23.078 -4.20106,-36.2459 10.11878,-36.43312c6.19331,-0.08098 7.31972,11.79993 8.4521,26.02187c0.48163,6.04913 0.81896,26.94394 0.81896,26.94394z" fill="#5671c0" stroke="none" stroke-width="0"/></g><g data-paper-data="{&quot;index&quot;:null}" stroke-linecap="butt"><g fill="#465b9c"><path d="M256.87428,395.59129c-5.38615,-0.01662 -17.63008,-1.7287 -17.63008,-1.7287l0.96977,-4.8731l-1.82515,-2.15711l-0.16232,-4.10329c0,0 -1.73978,-13.70354 -2.1957,-17.24261c-1.09437,-8.49514 0.92199,-37.70746 0.92199,-37.70746l31.66912,0.41115c0,0 1.38648,22.83804 2.46379,30.42984c0.6556,4.62004 1.18497,23.24751 1.18497,23.24751l1.30147,3.65522l-1.73268,2.40665l1.66655,4.24089c0,0 -11.48316,3.4369 -16.63169,3.42101z" stroke="#2e3c67" stroke-width="4"/><path d="M245.82393,331.69579c0,0 -6.26926,-0.00518 -6.51616,-0.43534c-0.63892,-1.11311 -0.86583,-6.44953 -0.86583,-6.44953l28.20155,0.58843l0.38059,5.39586z" stroke="none" stroke-width="0"/></g><path d="M261.65964,351.16631c0.41921,10.47678 4.20176,25.7508 1.79134,27.09397c-0.75662,0.42162 1.82487,3.17414 0.61878,4.74373c-1.20609,1.56959 -3.20561,2.07905 -6.31332,2.6671c-2.95503,0.55918 -6.70268,-0.32012 -8.17713,-1.07513c-3.79333,-1.94245 -0.81173,-8.88981 -0.94751,-12.28292c-0.24081,-6.01838 0.38737,-28.35467 -2.23353,-46.28134c-0.54353,-3.71776 4.37826,-0.0833 8.50291,-1.17232c2.93075,0.08897 5.23026,-1.77716 6.16046,2.49775c1.05892,4.86649 0.37482,18.23177 0.59799,23.80915z" fill="#5671c0" stroke="none" stroke-width="0"/></g><g data-paper-data="{&quot;index&quot;:null}"><g><g><path d="M193.32058,273.69352c0,0 0.63571,-18.31854 1.6811,-26.50811c1.0414,-8.15841 4.06504,-19.79014 4.06504,-19.79014l63.97156,0.42572c0,0 3.17288,13.02482 3.49816,19.54905c0.60358,12.10567 -0.32964,27.10398 -0.32964,27.10398l-33.46599,-0.07217l-0.43235,-5.56327l-3.92117,-0.55397l0.21286,5.7848z" fill="#465b9c" stroke="#2e3c67" stroke-width="4" stroke-linecap="butt"/><path d="M237.1308,245.06311c0,0 0.1753,14.15353 -0.25751,18.2756c-0.23364,2.22519 -2.13396,4.50102 -2.13396,4.50102" fill="none" stroke="#2e3c67" stroke-width="4" stroke-linecap="round"/><path d="M226.56852,251.87481v-6.8117h10.56227" fill="none" stroke="#2e3c67" stroke-width="4" stroke-linecap="round"/><path d="M206.91133,241.27059c0,0 -2.78967,9.07125 -4.16556,12.36817c-1.0262,2.45897 -3.35283,5.64728 -3.35283,5.64728" fill="none" stroke="#2e3c67" stroke-width="4" stroke-linecap="round"/><path d="M262.51276,261.41468c0,0 -2.32663,-3.18831 -3.35283,-5.64728c-1.3759,-3.29692 -4.16556,-12.36816 -4.16556,-12.36816" data-paper-data="{&quot;index&quot;:null}" fill="none" stroke="#2e3c67" stroke-width="4" stroke-linecap="round"/><path d="M195.05545,276.60321l0.84834,-10.62262l28.63401,0.27335l-1.18049,10.62262z" fill="#465b9c" stroke="none" stroke-width="0" stroke-linecap="butt"/><path d="M234.89346,277.40872l0.58742,-10.62262l27.709,-0.27333l-0.05347,10.8z" data-paper-data="{&quot;index&quot;:null}" fill="#465b9c" stroke="none" stroke-width="0" stroke-linecap="butt"/></g><g stroke="#281a0d" stroke-width="4" stroke-linecap="butt"><path d="M195.28024,233.78123c0,0 -0.25621,-3.99719 0.03027,-5.66324c0.30957,-1.80034 2.16189,-3.91571 2.16189,-3.91571l9.76513,-0.35477c0,0 3.18861,3.80793 3.18861,5.46355c0,1.65561 -3.18861,4.47018 -3.18861,4.47018z" fill="#3f2b1a"/><path d="M206.44038,234.63269l1.79361,-10.21754l10.16371,0.07096c0,0 3.18861,3.80793 3.18861,5.46355c0,1.65561 -3.18861,4.47018 -3.18861,4.47018z" fill="#67472a"/><path d="M218.59698,234.84555l1.5943,-10.00468l10.36299,-0.14192c0,0 3.18861,3.80794 3.18861,5.46355c0,1.65561 -3.18861,4.47017 -3.18861,4.47017z" fill="#3f2b1a"/><path d="M231.62924,235.34676l0.26286,-10.72394l11.21012,-0.04174c0,0 3.36098,3.63487 3.43762,5.28847c0.07664,1.65359 -2.97779,4.63311 -2.97779,4.63311z" fill="#67472a"/><path d="M243.78082,234.91734l0.86073,-10.29821l10.61226,-0.46747c0,0 3.36098,3.63487 3.43762,5.28846c0.07664,1.65359 -2.97779,4.63311 -2.97779,4.63311z" fill="#3f2b1a"/><path d="M255.94242,234.70815l0.59146,-10.08535l8.42829,-0.68033c0,0 2.64231,3.63487 2.70255,5.28847c0.06026,1.65359 -2.34104,4.63311 -2.34104,4.63311z" fill="#67472a"/></g><path d="M200.37825,235.34436l1.1647,-12.76968l5.77809,-0.14841l0.62891,12.76968z" fill="#465b9c" stroke="#2e3c67" stroke-width="4" stroke-linecap="butt"/><g fill="#67472a" stroke="#281a0d" stroke-width="4" stroke-linecap="butt"><path d="M255.45078,233.57277l5.45478,-8.64844l9.47458,4.23795c0,0 1.27285,4.65756 0.58447,6.14035c-0.68838,1.48279 -4.71478,2.75636 -4.71478,2.75636z"/></g><path d="M223.3799,237.82568c0,0 -1.19573,-4.98486 -1.19573,-7.45029c0,-2.42996 1.19573,-7.23743 1.19573,-7.23743h17.53737c0,0 1.5943,5.71575 1.5943,8.30175c0,2.26808 -1.5943,6.38597 -1.5943,6.38597z" fill="none" stroke="#716b65" stroke-width="4" stroke-linecap="butt"/><path d="M254.38537,235.40882l0.62891,-12.76968l5.77809,0.14841l1.1647,12.76968z" data-paper-data="{&quot;index&quot;:null}" fill="#465b9c" stroke="#2e3c67" stroke-width="4" stroke-linecap="butt"/></g><path d="M217.30682,276.8301c0,3.03703 -13.18633,0.88695 -18.18507,0.88695c-2.67371,0 -0.39622,-11.51649 0.58127,-14.36842c1.16251,-3.39181 6.87552,-6.74074 11.87426,-6.74074c4.99873,0 5.72954,17.18519 5.72954,20.22222z" fill="#5671c0" stroke="none" stroke-width="0" stroke-linecap="butt"/><path d="M240.02264,278.32244c0,-3.03703 0.73081,-20.22222 5.72954,-20.22222c4.99873,0 10.71175,3.34894 11.87426,6.74075c0.97748,2.85193 3.25497,14.36842 0.58127,14.36842c-4.99873,0 -18.18506,2.15009 -18.18506,-0.88694z" data-paper-data="{&quot;index&quot;:null}" fill="#5671c0" stroke="none" stroke-width="0" stroke-linecap="butt"/></g><g data-paper-data="{&quot;index&quot;:null}" stroke="none" stroke-width="0" stroke-linecap="butt"><path d="M295.89654,94.37441c-1.33975,7.22448 -7.70124,12.10278 -14.20877,10.89599c-6.50753,-1.20679 -10.69686,-8.0417 -9.35711,-15.26615c1.33975,-7.22448 7.70125,-12.10276 14.20877,-10.89597c6.50755,1.20679 10.69686,8.0417 9.35711,15.26615z" fill="#d3f0f1"/><path d="M285.20188,79.89311c5.40125,1.00164 8.78496,7.17847 7.55771,13.79629c-1.22725,6.61783 -6.60073,11.17066 -12.00198,10.16902c-5.40125,-1.00164 -8.78495,-7.17844 -7.55771,-13.79628c1.22725,-6.61783 6.60072,-11.17067 12.00197,-10.16903z" fill="#ffffff"/></g><g data-paper-data="{&quot;index&quot;:null}" stroke="none" stroke-width="0" stroke-linecap="butt"><g data-paper-data="{&quot;index&quot;:null}"><path d="M287.51514,93.9538c-1.04955,5.65959 -5.1528,9.64441 -9.16487,8.90039c-4.01207,-0.74402 -6.41367,-5.93515 -5.36412,-11.59473c1.04955,-5.65958 5.15277,-9.64441 9.16485,-8.9004c4.01207,0.74402 6.41368,5.93517 5.36414,11.59473z" fill="#41563d"/><path d="M278.60991,99.41741c-3.70927,-0.68787 -5.42818,-6.15441 -4.84858,-9.27985c0.5796,-3.12543 2.9789,-8.46548 8.88122,-7.37092c3.70927,0.68787 5.67911,6.83815 5.09951,9.96359c-0.5796,3.12542 -5.42287,7.37505 -9.13214,6.68719z" fill="#5f7d59"/></g><path d="M274.8655,88.06501c0.44074,-2.37662 2.72465,-3.94597 5.10127,-3.50523c2.37662,0.44074 3.94597,2.72466 3.50522,5.10127c-0.44074,2.37663 -2.72466,3.94597 -5.10127,3.50522c-2.37662,-0.44074 -3.94596,-2.72464 -3.50521,-5.10127z" fill="#8ebb85"/><path d="M277.72983,93.04743c0.24381,-1.31473 1.50726,-2.18287 2.82198,-1.93906c1.31473,0.24381 2.18287,1.50726 1.93906,2.82198c-0.24381,1.31473 -1.50726,2.18288 -2.82198,1.93907c-1.31473,-0.24381 -2.18287,-1.50727 -1.93906,-2.82199z" fill="#8ebb85"/></g><g data-paper-data="{&quot;index&quot;:null}" stroke="none" stroke-width="0" stroke-linecap="butt"><path d="M247.74233,71.04752c6.50753,1.20679 10.69686,8.0417 9.35711,15.26617c-1.33975,7.22448 -7.70124,12.10276 -14.20877,10.89597c-6.50753,-1.20679 -10.69686,-8.04169 -9.35711,-15.26615c1.33975,-7.22448 7.70125,-12.10276 14.20877,-10.89597z" fill="#d3f0f1"/><path d="M256.26721,86.05605c-1.22726,6.61785 -6.60072,11.17066 -12.00197,10.16902c-5.40125,-1.00164 -8.78496,-7.17846 -7.55772,-13.79628c1.22725,-6.61783 6.60073,-11.17067 12.00198,-10.16903c5.40125,1.00164 8.78495,7.17845 7.5577,13.79629z" fill="#ffffff"/></g><g data-paper-data="{&quot;index&quot;:null}" stroke="none" stroke-width="0" stroke-linecap="butt"><g data-paper-data="{&quot;index&quot;:null}"><path d="M244.53142,75.22715c4.01207,0.74402 6.41366,5.93517 5.36412,11.59473c-1.04955,5.65959 -5.15277,9.64441 -9.16485,8.9004c-4.01207,-0.74402 -6.41369,-5.93515 -5.36414,-11.59473c1.04955,-5.65958 5.15278,-9.64441 9.16487,-8.90039z" fill="#41563d"/><path d="M235.59347,82.90397c0.5796,-3.12543 4.62369,-8.16046 8.33295,-7.47259c5.90233,1.09456 6.22736,6.93982 5.64776,10.06526c-0.5796,3.12542 -4.14429,7.61216 -7.85357,6.92429c-3.70927,-0.68787 -6.70676,-6.39151 -6.12716,-9.51697z" fill="#5f7d59"/></g><path d="M244.18529,86.67121c-2.37662,-0.44074 -3.94597,-2.72466 -3.50522,-5.10127c0.44074,-2.37662 2.72466,-3.94598 5.10128,-3.50523c2.37662,0.44074 3.94596,2.72465 3.50521,5.10128c-0.44074,2.37662 -2.72465,3.94597 -5.10127,3.50523z" fill="#8ebb85"/><path d="M242.00421,88.72913c-1.31473,-0.24381 -2.18287,-1.50726 -1.93906,-2.82198c0.24381,-1.31473 1.50726,-2.18288 2.82198,-1.93907c1.31473,0.24381 2.18287,1.50727 1.93906,2.82199c-0.24381,1.31473 -1.50726,2.18287 -2.82198,1.93906z" fill="#8ebb85"/></g><g data-paper-data="{&quot;index&quot;:null}" stroke-width="4" stroke-linecap="butt"><g data-paper-data="{&quot;index&quot;:null}" fill="#403328" stroke="#292018"><g><path d="M264.60127,254.01036c-5.82135,-0.38043 -20.09661,-11.95791 -20.09661,-11.95791c0,0 9.5143,-50.1264 11.99196,-68.15446c2.29579,-16.70484 4.22606,-25.44881 4.22606,-25.44881c0,0 8.19373,-2.72279 11.20351,-7.22712c1.83059,-2.7396 1.32829,-5.14374 2.93496,-5.18586c3.79899,-0.09958 5.06865,2.2546 10.24282,6.38028c5.17414,4.12567 10.3494,11.50216 11.26356,14.19764c0.91415,2.69547 -6.11839,0.97331 -6.11839,0.97331c0,0 -6.59325,2.27579 -10.94709,3.46412c-3.3821,0.92312 -7.21137,24.71472 -7.21137,24.71472l-2.70504,14.35389l1.76658,43.35595c0,0 -2.59953,10.79252 -6.55096,10.5343z"/></g><path d="M271.88272,143.02299c-2.53814,1.64849 -7.44054,3.49791 -7.44054,3.49791l2.99457,-9.99879l10.8497,-4.62881l-0.17614,4.19693c0,0 -3.5841,5.21581 -6.22759,6.93274z"/></g><path d="M266.62308,163.56154c-0.35708,1.9255 -1.28825,3.36742 -2.07981,3.22064c-0.79157,-0.14679 -1.14379,-1.82672 -0.78671,-3.75222c0.35708,-1.9255 1.28825,-3.36742 2.07981,-3.22064c0.79157,0.14679 1.1438,1.82671 0.78671,3.75222z" fill="#dfbd28" stroke="#dfbd28"/><path d="M262.86849,185.20688c-0.35708,1.92549 -1.28825,3.36742 -2.07981,3.22064c-0.79157,-0.14679 -1.14379,-1.82672 -0.78671,-3.75222c0.35708,-1.92549 1.28825,-3.36742 2.07981,-3.22064c0.79157,0.14679 1.14379,1.82672 0.78671,3.75222z" fill="#dfbd28" stroke="#dfbd28"/><path d="M259.53101,206.40182c-0.35708,1.92549 -1.28825,3.36742 -2.07981,3.22064c-0.79157,-0.14679 -1.14379,-1.82672 -0.78671,-3.75222c0.35708,-1.92549 1.28825,-3.36742 2.07981,-3.22064c0.79157,0.14679 1.14379,1.82672 0.78671,3.75222z" fill="#dfbd28" stroke="#dfbd28"/><path d="M256.37847,226.39962c-0.35708,1.92549 -1.28825,3.36742 -2.07981,3.22064c-0.79157,-0.14679 -1.14379,-1.82672 -0.78671,-3.75222c0.35708,-1.92549 1.28825,-3.36742 2.07981,-3.22064c0.79157,0.14679 1.14379,1.82672 0.78671,3.75222z" fill="#dfbd28" stroke="#dfbd28"/></g><g data-paper-data="{&quot;index&quot;:null}" stroke="#292018" stroke-width="4"><path d="M191.40087,227.24588l15.52854,-37.5216l3.30833,-16.70488c0,0 8.66685,-22.64818 4.97019,-24.88403c-4.75879,-2.87823 -11.77057,-7.67701 -11.77057,-7.67701c0,0 -9.17548,-1.28355 -6.97228,-3.40091c2.2032,-2.11738 11.45304,-6.8188 19.37253,-8.5163c7.91948,-1.69751 10.41138,-3.35412 14.94693,-1.70894c1.91818,0.69579 0.33021,2.71228 1.41529,5.99259c1.78407,5.39333 10.54105,11.25958 10.54105,11.25958c0,0 -1.24966,8.87019 -5.31363,25.24712c-4.3859,17.67418 -13.41834,67.88996 -13.41834,67.88996c0,0 -14.86781,6.91189 -22.03573,4.8835c-4.86545,-1.37683 -10.5723,-14.85906 -10.5723,-14.85906z" fill="#403328" stroke-linecap="butt"/><path d="M231.89067,128.45911l0.78505,-5.80802l13.22453,10.57099l-0.48061,10.46499c0,0 -5.14932,-3.71347 -7.53279,-6.27465c-2.4824,-2.66749 -5.99618,-8.9533 -5.99618,-8.9533z" fill="#403328" stroke-linecap="butt"/><path d="M234.7274,153.17242l-2.40561,8.87756" fill="none" stroke-linecap="round"/><path d="M229.05658,174.74387l-1.17263,7.34703" fill="none" stroke-linecap="round"/><path d="M225.17505,196.08421l-1.60275,7.61909" fill="none" stroke-linecap="round"/><path d="M220.61964,216.34963l-1.76044,8.46943" fill="none" stroke-linecap="round"/></g><path d="M224.00958,87.20015c0.07453,5.61069 0.82271,8.85059 -0.77717,9.51678c-1.59986,0.6662 -6.97547,-4.25145 -7.05001,-9.86214c-0.07453,-5.61069 4.83742,-9.46169 6.55932,-9.26547c3.13408,0.35716 1.19333,4.00013 1.26784,9.61082z" data-paper-data="{&quot;index&quot;:null}" fill="#d9bb9a" stroke="#917c67" stroke-width="4" stroke-linecap="butt"/><g data-paper-data="{&quot;index&quot;:null}"><g><path d="M220.78331,77.62796c-0.74376,2.63026 -5.68461,3.77455 -5.68461,3.77455c0,0 -3.09712,0.84733 -3.82063,-1.99413c-0.58924,-2.31418 -3.89233,-6.47495 -3.89233,-6.47495c0,0 2.06599,-2.37613 4.61745,-5.02794c0.65935,-0.68529 -2.81862,-3.59498 -3.57731,-5.34692c-0.75868,-1.75194 -1.27175,-9.89712 -1.27175,-9.89712c0,0 7.29219,-1.29254 9.69534,-5.47136c1.19242,-2.07348 1.8433,-5.65674 2.67355,-6.95915c4.73042,-7.42056 3.19509,-9.52331 8.13207,-12.95075c0.51594,-0.35819 9.31149,-4.33017 9.77349,-4.65413c8.04689,-5.64232 9.33185,-5.78242 19.87044,-4.96024c11.14365,0.86938 19.87934,-1.3426 25.83525,3.09834c3.88907,2.89985 13.62388,10.02637 20.56032,13.84673c5.69222,8.74762 7.71357,14.06562 6.77384,23.67359c-0.30146,3.08214 -3.17705,4.76276 -2.47749,8.15667c0.31734,1.53954 5.76408,13.76312 5.76408,13.76312c0,0 -2.20021,3.38701 -4.58354,4.43533c-2.36134,1.03866 -4.5982,0.22328 -5.31662,1.26321c-1.56722,2.26855 -0.9485,4.9865 -1.64953,6.74077c-0.51001,1.27624 -1.19536,1.88586 -2.3058,2.96516c-1.8744,1.82182 -1.33789,-1.42247 -0.86229,-3.542c0.88905,-3.9619 0.44861,-6.97439 0.33957,-6.33341c-1.68639,0.50966 -0.4184,0.7073 -6.97638,-1.69557c-0.36477,-0.13366 -1.1591,-3.15525 -2.41646,-4.5884c-1.25737,-1.43314 -1.70598,-5.85822 -1.70598,-5.85822c0,0 -11.09645,2.98279 -15.61696,2.5723c-6.52182,-0.59221 -14.31634,0.2959 -17.91427,-0.74502c-8.79503,-2.54452 -12.60347,-4.31943 -16.13924,-5.05036c-3.29096,-0.68033 -9.69663,1.6031 -11.61242,0.29971c0,0 -5.23551,3.50749 -6.21183,6.96018z" fill="#252931" stroke="#14161a" stroke-width="4" stroke-linecap="butt"/><path d="M289.32899,65.41536c-24.94171,5.54149 -46.40432,-2.06655 -65.36945,-3.56182c-3.92607,-0.30955 -4.6225,-3.68079 -4.6225,-3.68079c0,0 7.73549,-6.10643 9.54683,-15.87392c0.87177,-4.70095 8.51511,-13.55392 17.75146,-17.37473c7.67756,-3.17597 22.05826,-1.4129 29.30731,-1.63532c4.69468,-0.14405 3.88037,3.45136 7.96941,4.20966c11.60701,2.15248 9.30041,9.10606 11.74504,17.18954c1.77931,5.88354 -2.76366,19.93544 -6.32812,20.72739z" fill="#494c5e" stroke="none" stroke-width="0" stroke-linecap="butt"/><path d="M284.57121,36.20203c0.24573,-1.32507 -5.7263,0.70211 -6.01317,-1.16496c-0.21055,-1.37028 2.46651,-2.95027 3.39404,-4.79091c0.26693,-0.5297 -0.1638,-2.82328 -2.02056,-4.41998c-1.5454,-1.32893 -4.57655,-2.00131 -4.40429,-2.38145c0.69981,-1.5443 9.01334,1.38559 9.93055,1.55569c3.64114,0.67523 15.00282,13.07669 14.30615,16.83343c-0.04227,0.22791 1.29258,20.04781 -6.00834,26.98314c-1.05427,1.00149 -8.3897,-0.34755 -8.4262,-2.46043c-0.01148,-0.66428 -4.1343,-2.52902 -2.69063,-4.41154c1.9668,-2.56467 10.67605,-3.78764 10.53137,-4.59523c-0.41314,-2.30607 -14.02795,2.09438 -14.61298,-1.25601c-0.58501,-3.3504 14.79356,-8.95282 13.14126,-11.65007c-3.26046,0.64524 -11.74418,4.49143 -12.56424,2.98195c-2.48509,-4.57425 4.74038,-7.46697 5.43705,-11.22367z" fill="#252931" stroke="none" stroke-width="0" stroke-linecap="butt"/><path d="M235.44401,60.26171c-0.83653,1.0566 1.7826,0.40968 3.52416,1.22741c1.74155,0.81773 7.80234,2.55293 6.12209,3.74668c-0.88602,0.62948 -10.6149,-2.12435 -11.34129,-1.56174c-1.34043,1.03821 -4.08998,1.65656 -4.82137,1.07754c-1.76011,-1.39348 -10.93247,0.12586 -11.45581,-5.19605c-0.33997,-3.45705 6.46077,-8.56407 7.39469,-9.74369c0.14388,-0.18173 4.68393,-17.90227 14.37971,-20.62143c1.40009,-0.39266 10.0158,-1.32156 9.06059,0.56341c-0.30032,0.59262 -6.3941,6.05136 -8.55019,7.04092c-2.93739,1.34814 -5.63957,2.46401 -5.88911,3.24558c-0.71253,2.2318 13.75474,1.79431 12.93898,3.77393c-1.29579,3.14458 -16.77332,3.9582 -16.03893,5.49008c0.83736,1.74667 8.11641,0.31253 15.31403,0.12789c5.5744,-0.14301 11.62414,0.90722 11.28237,1.96073c-0.31727,0.97803 -2.24309,3.3249 -4.19982,3.89211c-5.69308,1.65027 -15.95512,2.74726 -17.72014,4.97662z" fill="#252931" stroke="none" stroke-width="0" stroke-linecap="butt"/><path d="M296.72052,68.63427c0,0 -6.43698,4.92235 -7.44988,5.14657c-2.02547,0.44841 -6.05296,0.59801 -6.05296,0.59801" fill="none" stroke="#14161a" stroke-width="4" stroke-linecap="round"/><path d="M259.16492,33.76143c-0.00631,-3.17418 3.46572,-5.4666 7.2865,-5.47417c3.82077,-0.00758 9.35028,-0.02138 9.35657,3.1528c0.00631,3.17418 -5.86919,6.75283 -9.68996,6.76041c-3.82076,0.00757 -6.94682,-1.26486 -6.95312,-4.43903z" fill="#686c85" stroke="none" stroke-width="0" stroke-linecap="butt"/><path d="M245.10729,36.99309c-0.00364,-1.83269 3.07633,-3.29835 5.28236,-3.30274c2.20602,-0.00438 4.28424,1.098 4.28786,2.93069c0.00364,1.83269 -2.08391,2.61642 -4.28992,2.62081c-2.20602,0.00438 -5.27668,-0.41604 -5.28031,-2.24874z" fill="#686c85" stroke="none" stroke-width="0" stroke-linecap="butt"/><path d="M270.19856,42.83731c-0.28062,-1.81107 1.00598,-2.28328 3.18598,-2.62107c2.18001,-0.33781 3.81653,-1.28452 4.09716,0.52656c0.28062,1.81107 -1.66444,2.90138 -3.84444,3.23917c-2.18001,0.33781 -3.15806,0.66642 -3.43869,-1.14466z" fill="#686c85" stroke="none" stroke-width="0" stroke-linecap="butt"/></g><path d="M303.94683,78.8197c-1.6003,0.03657 -0.48009,3.42765 -1.5392,3.23125c-1.11471,-0.20672 -2.56829,-2.55105 -3.58588,-4.27887c-1.30385,-2.21392 -1.87413,-3.47558 -1.65742,-4.64421c0.23552,-1.26998 0.30767,-0.26211 1.78647,-0.3167c0.94395,-0.03485 2.95998,-4.27504 3.95079,-4.09131c0.94395,0.17505 0.36698,2.26464 1.34342,4.37222c0.1553,0.3352 2.30579,-5.78938 2.90848,-3.29793c0.33435,1.38221 3.33991,5.15689 3.73772,9.16183c0.39782,4.00495 -3.37051,-2.59307 -4.65639,-1.94058c-1.28588,0.65249 1.39604,2.55327 1.2043,3.58717c0,0 -1.25008,-1.83413 -3.49229,-1.78287z" fill="#494c5e" stroke="none" stroke-width="0" stroke-linecap="butt"/><path d="M302.45484,48.67448c0.28419,1.06003 -1.39583,2.40739 -5.25733,3.44266c-3.8615,1.03526 -5.26843,1.37752 -5.55263,0.31749c-0.2842,-1.06002 1.77845,-2.91386 5.63997,-3.94913c3.8615,-1.03526 4.88579,-0.87106 5.17,0.18896z" fill="#494c5e" stroke="none" stroke-width="0" stroke-linecap="butt"/></g><path d="M289.48077,84.21498c-5.48117,-0.39807 -12.53073,-0.14433 -12.38322,-3.14327c0.14752,-2.99894 12.14114,-3.71283 17.62231,-3.31476c5.48116,0.39808 7.95775,2.59036 7.81023,5.58929c-0.14752,2.99894 -7.56815,1.26683 -13.0493,0.86873z" data-paper-data="{&quot;index&quot;:null}" fill="#424956" stroke="#14161a" stroke-width="4" stroke-linecap="butt"/><path d="M235.58692,70.47641c0.93759,-2.85241 4.03555,-4.01091 9.295,-2.41719c5.25944,1.59372 16.19958,6.56059 15.262,9.413c-0.93759,2.85241 -7.42745,0.08782 -12.68688,-1.50587c-5.25944,-1.59372 -12.8077,-2.63751 -11.8701,-5.48993z" data-paper-data="{&quot;index&quot;:null}" fill="#424956" stroke="#14161a" stroke-width="4" stroke-linecap="butt"/><g data-paper-data="{&quot;index&quot;:null}" stroke-linecap="butt"><g><g><g><path d="M152.28843,167.63106c7.32655,-3.84167 9.83952,-3.82486 11.76712,-5.19689c8.17466,-5.81851 30.14588,-18.54142 30.14588,-18.54142c0,0 9.73877,6.04001 10.45148,8.94928c1.00161,4.08864 -3.30651,7.46279 -3.30651,7.46279c0,0 -6.89869,6.54456 -28.15484,17.8044c-0.68868,0.36482 -6.19978,3.83951 -7.54492,3.78827c-7.56456,-0.28824 -19.18833,-11.2094 -13.3582,-14.26643z" fill="#d9bb9a" stroke="#917c67" stroke-width="4"/><path d="M153.94363,169.23116c0.95837,-0.33438 15.85148,7.47338 15.92834,7.57485c0.46142,0.60911 -2.28073,1.90575 -4.47406,3.56727c-2.19333,1.66152 -4.16544,3.66904 -4.62687,3.05993c-0.46142,-0.60911 -14.90156,-9.67479 -12.70824,-11.3363c1.82796,-1.38475 3.34974,-1.98264 5.88081,-2.86575z" fill="#d9bb9a" stroke="none" stroke-width="0"/><path d="M199.45266,159.05964c-3.50298,1.97079 -12.01615,4.1065 -17.20389,5.76998c-2.34859,0.75309 -10.49559,7.22993 -16.77648,11.91882c-0.5467,0.40814 -6.22835,5.47224 -6.5765,5.51107c-0.3832,0.04276 -16.72618,-5.87895 -8.03562,-9.61965c5.10629,-2.19792 10.9867,-4.92745 15.23318,-7.49045c6.30351,-3.80453 7.46438,-5.49495 16.57042,-10.61804c9.10605,-5.12309 16.85612,-8.67156 18.04388,-6.50496c1.18774,2.16661 7.85106,5.91014 -1.25499,11.03322z" fill="#ffdbb5" stroke="none" stroke-width="0"/></g><path d="M148.85624,168.16577c0,0 28.70379,-19.71247 36.71865,-25.27768c7.83374,-5.43945 22.05846,-11.88186 22.05846,-11.88186l8.65316,22.97796c0,0 -17.15441,11.17046 -23.79365,14.97912c-6.6736,3.82836 -24.46386,13.05221 -24.46386,13.05221c0,0 -7.12908,-3.68279 -10.02025,-5.59711c-3.31965,-2.19802 -9.15251,-8.25267 -9.15251,-8.25267z" fill="#403328" stroke="#292018" stroke-width="4"/></g><g><path d="M118.12211,192.28556c5.89764,-4.46766 12.89419,-5.16468 15.62725,-1.55684c2.73305,3.60783 0.16764,10.15431 -5.72999,14.62195c-0.76679,0.58087 -4.00901,1.26519 -6.50751,1.92529c-1.69071,0.4467 -2.87416,1.93212 -4.2915,2.15144c-2.05758,0.31836 -1.66219,-0.36395 -2.54513,-0.42504c-2.25021,-0.15569 -0.96679,-1.49868 -2.72802,-1.96547c-1.77886,-0.47149 -1.69329,-0.26276 -2.59185,-1.44891c-2.73306,-3.60784 2.86909,-8.83478 8.76674,-13.30244z" fill="#917c67" stroke="none" stroke-width="NaN"/><g><path d="M116.85576,184.92986c1.91722,-2.77565 12.59787,-5.07354 19.46472,-8.67417c7.32655,-3.84167 7.69685,-3.04738 9.62444,-4.41939c3.53498,-1.85871 18.67787,12.17648 16.39919,13.95611c-4.56154,2.41635 -17.36488,13.11202 -26.25006,18.72399c-11.13507,7.03303 -8.52234,-0.26405 -9.48997,-1.57411c-0.94271,-1.27631 10.28757,-7.28504 8.88554,-9.43455c-1.50012,-2.29987 -3.04509,-3.34746 -7.55967,-2.35211c-4.9638,1.09439 -19.14103,13.42532 -21.11618,12.31113c-3.75429,-2.11781 4.2491,-10.15025 10.04198,-18.5369z" fill="#d9bb9a" stroke="#917c67" stroke-width="4"/><path d="M156.71601,183.59922c-0.3832,0.04276 -0.0288,1.49242 -8.61472,7.06067c-2.11535,1.3719 -3.27624,2.89 -5.0513,3.51852c-3.49713,1.23827 -3.95973,-5.69225 -5.24537,-6.66173c-3.18966,-2.40526 -7.09054,-1.19171 -9.47109,-0.29721c-5.06612,1.90361 -11.47251,7.81602 -15.18422,10.322c-4.55234,3.07354 2.13908,-6.81715 7.00688,-11.3956c1.81554,-1.70762 7.26343,-1.77523 11.83197,-3.65343c4.56853,-1.87817 5.99328,-3.20623 14.68386,-6.94695c5.10629,-2.19792 12.61455,7.76695 10.044,8.0537z" fill="#ffdbb5" stroke="none" stroke-width="0"/></g><path d="M127.69665,177.71989l19.3074,-8.48484l17.84896,14.85258l-17.67707,14.74514c0,0 -3.1141,-7.30714 -9.09592,-12.07301c-5.62223,-4.47938 -10.38336,-9.03989 -10.38336,-9.03989z" fill="#403328" stroke="#292018" stroke-width="4"/><path d="M144.99562,173.15401l7.34161,-4.67135l16.1008,11.16973l-8.18415,5.08706z" fill="#403328" stroke="none" stroke-width="0"/></g></g><path d="M221.80573,153.48259c0,0 -1.07168,0.04047 -3.9828,1.49509c-2.91112,1.45462 -6.76549,-1.47438 -7.08067,-2.27534c-0.95246,-2.42038 -4.28131,-18.426 -4.28131,-18.426c0,0 1.68984,-1.16972 2.7514,-1.35889c1.12431,-0.20033 4.58313,0.14223 4.58313,0.14223z" fill="#403328" stroke="none" stroke-width="NaN"/></g><g stroke-linecap="butt"><g><path d="M239.61398,193.70915c0.19295,-1.33221 4.60746,-6.12366 5.09086,-6.73498c14.91991,-18.86806 16.56389,-23.54002 16.56389,-23.54002c0,0 10.13875,-4.55528 13.97864,-2.83045c2.73232,1.22733 6.91057,11.89821 6.91057,11.89821c0,0 -16.48824,19.3066 -23.68977,26.29358c-1.69815,1.64755 -2.1363,4.12209 -7.24019,10.63261c-4.06143,5.18079 -12.69919,-8.22711 -11.61403,-15.71898z" fill="#d9bb9a" stroke="#917c67" stroke-width="4"/><path d="M246.07132,212.776c-2.03094,1.8565 -8.33428,-13.98557 -8.84985,-14.54962c-0.51557,-0.56402 1.81564,-2.14036 3.84658,-3.99687c2.03094,-1.8565 3.80232,-4.31877 4.3179,-3.75476c0.08589,0.09395 5.07013,16.15392 4.56787,17.03598c-1.32647,2.32951 -2.18985,3.718 -3.88249,5.26524z" fill="#d9bb9a" stroke="none" stroke-width="0"/><path d="M279.2697,165.35518c0.96923,0.78925 0.19618,2.96559 -1.67005,5.96305c-1.82282,2.92775 -4.68854,6.63888 -7.99228,10.60606c-6.6861,8.02883 -8.55868,8.86469 -13.44094,14.3758c-3.28903,3.71265 -7.03747,9.00214 -10.12302,13.62648c-5.25138,7.87033 -8.11836,-9.27434 -8.00695,-9.6435c0.10119,-0.33536 6.1097,-5.00697 6.61003,-5.47083c5.74793,-5.32887 13.59194,-12.16951 14.75753,-14.34308c2.57466,-4.80113 6.21544,-12.78739 8.7875,-15.87598c6.6861,-8.02883 9.16224,-0.79817 11.07818,0.76199z" fill="#ffdbb5" stroke="none" stroke-width="0"/></g><path d="M243.62066,202.21231c-1.35961,-3.18982 -3.69175,-10.86756 -3.69175,-10.86756c0,0 11.63693,-16.54265 16.60958,-22.41345c4.94708,-5.84057 18.88892,-21.21158 18.88892,-21.21158l21.83464,13.90362c0,0 -8.90977,12.8243 -15.67686,19.54457c-6.92351,6.87563 -31.50409,31.53906 -31.50409,31.53906c0,0 -4.89937,-6.83209 -6.46047,-10.49464z" fill="#403328" stroke="#292018" stroke-width="4"/></g><path d="M267.61163,158.63859l6.47206,-14.46983l14.68144,1.73063c0,0 6.79681,10.26748 6.75315,13.04389c-0.05983,3.80407 -7.07913,7.68455 -7.07913,7.68455z" fill="#403328" stroke="none" stroke-width="0" stroke-linecap="butt"/><g stroke-linecap="butt"><path d="M213.8777,222.66598c-6.94909,2.54013 -14.37661,4.42078 -15.93052,0.16973c-0.51087,-1.3976 -0.38171,-1.21267 0.18487,-2.9636c0.56096,-1.73354 -1.26301,-1.38145 -0.17574,-3.35772c0.42662,-0.77544 -0.36114,-0.8124 1.02044,-2.37004c0.9517,-1.07297 2.84128,-1.26387 4.13213,-2.44359c1.90759,-1.74337 4.23816,-4.09896 5.14164,-4.42922c6.94909,-2.54013 13.84212,-1.15315 15.39602,3.09789c1.55391,4.25105 -2.81975,9.75638 -9.76884,12.29651z" fill="#917c67" stroke="none" stroke-width="NaN"/><g><path d="M198.35478,226.12096c0.13244,-2.26386 18.17514,-7.50866 21.78247,-11.08973c3.28087,-3.25699 3.23643,-5.12314 2.1148,-7.62947c-1.0483,-2.34245 -12.17994,3.84708 -12.74274,2.36353c-0.57765,-1.52279 -8.12742,-3.27632 3.81392,-8.83127c9.52854,-4.43255 25.45252,-9.40741 29.9536,-11.93464c2.72989,-0.95251 6.33294,19.37758 2.85647,21.34354c-2.1971,0.87797 -1.72973,1.61933 -8.92604,5.69975c-6.74479,3.82441 -14.45884,11.56069 -17.83049,11.67006c-10.18744,0.3305 -21.27376,2.7113 -21.02199,-1.59177z" fill="#d9bb9a" stroke="#917c67" stroke-width="4"/><path d="M243.40822,207.72362c-7.84984,5.28195 -9.73776,5.76096 -13.79012,8.58537c-4.05236,2.82443 -7.05843,7.36842 -9.47704,7.97048c-6.48473,1.61424 -18.42322,1.88603 -13.37458,-0.27769c4.11636,-1.76417 12.55561,-3.94992 16.89872,-7.17898c2.0408,-1.5173 5.17292,-4.1402 4.8773,-8.12415c-0.11914,-1.60578 -5.69587,-5.7466 -2.76157,-8.01663c1.48938,-1.15221 3.39426,-1.30645 5.69288,-2.34235c9.32978,-4.20461 10.35679,-3.12186 10.60019,-3.42091c1.6327,-2.00608 5.94649,9.70135 1.33418,12.80485z" fill="#ffdbb5" stroke="none" stroke-width="0"/></g><path d="M229.328,208.87683c-0.76886,-7.6095 -5.22683,-14.18356 -5.22683,-14.18356l21.96718,-6.88047l2.8254,23.04782l-17.58614,11.64026c0,0 -1.25701,-6.47197 -1.97963,-13.62404z" fill="#403328" stroke="#292018" stroke-width="4"/><path d="M243.03057,191.32687l8.70769,-4.1273l0.67524,19.58425l-7.90203,3.64395z" fill="#403328" stroke="none" stroke-width="0"/></g><path d="M84.9611,258.18936l54.14553,-40.27323l103.06261,22.37741l71.96605,-13.93472c0,0 -54.67786,41.08207 -106.40215,47.99579c-51.72428,6.91372 -122.77204,-16.16525 -122.77204,-16.16525z" fill="#ffffff" stroke="none" stroke-width="NaN" stroke-linecap="butt"/><path d="M117.68251,265.60427l-49.26741,-4.80833l24.59193,-42.96087l88.94395,-2.09775z" fill="#f7b7ff" stroke="none" stroke-width="0" stroke-linecap="butt"/></g></g></svg>