<svg version="1.1" xmlns="http://www.w3.org/2000/svg" xmlns:xlink="http://www.w3.org/1999/xlink" width="274.58486" height="417.73164" viewBox="0,0,274.58486,417.73164"><g transform="translate(-99.14984,-19.0028)"><g data-paper-data="{&quot;isPaintingLayer&quot;:true}" fill-rule="nonzero" stroke-linejoin="miter" stroke-miterlimit="10" stroke-dasharray="" stroke-dashoffset="0" style="mix-blend-mode: normal"><path d="M292.10328,171.67609l33.48439,-65.10353l16.61086,8.70129l-36.52857,59.72836" data-paper-data="{&quot;index&quot;:null}" fill="#ffe9cc" stroke="#000000" stroke-width="2.5" stroke-linecap="round"/><path d="M325.47043,113.84359c-4.39428,-13.12113 9.08667,-57.62573 22.15119,-48.71203c10.53031,7.18465 1.4918,12.89096 -1.02007,19.79324c-1.75766,4.82978 -1.65679,9.14202 -1.65679,9.14202c0,0 10.82063,-19.57826 11.5036,-13.40822c0.48078,4.3433 -15.85457,35.05843 -15.85457,35.05843" data-paper-data="{&quot;index&quot;:null}" fill="#ffe9cc" stroke="#000000" stroke-width="2.5" stroke-linecap="round"/><path d="M192.11656,189.2005l-60.3905,-28.4711l8.48333,-16.72323l65.00509,31.97105" data-paper-data="{&quot;index&quot;:null}" fill="#ffe9cc" stroke="#000000" stroke-width="2.5" stroke-linecap="round"/><path d="M232.02697,30.03741c6.48639,9.17994 -5.44556,18.68676 -20.48505,29.31341c-15.0395,10.62665 -31.20323,18.6623 -37.68964,9.48237c-6.48639,-9.17994 -0.8392,-32.09922 14.20031,-42.72588c15.0395,-10.62665 37.48798,-5.24984 43.97438,3.93011z" data-paper-data="{&quot;origRot&quot;:0}" fill="#2c1500" stroke="#000000" stroke-width="2.5" stroke-linecap="butt"/><path d="M328.31665,361.15386c0,0 -11.21245,-49.5934 -31.36749,-69.45903c-20.15504,-19.86563 -38.53127,2.34018 -41.71004,-2.5692c-3.63935,-5.62068 -43.84326,131.45966 -48.02945,136.6858c-37.23699,12.17262 -54.04933,15.81346 -33.67245,-6.78966c11.94214,-26.65096 27.59537,-60.94565 28.36358,-90.13977c0.80375,-30.54471 5.6337,-57.22261 18.10647,-85.11626c9.84461,-22.01611 22.03795,-25.17767 45.91513,-21.7856c0,0 27.81215,-3.17746 30.97126,21.21135c2.13836,16.50853 25.13201,7.21189 34.88095,20.93382c7.51641,10.57958 19.75748,60.00009 40.3169,65.15363c5.24811,1.31552 -43.77485,31.87493 -43.77485,31.87493z" fill="#ffffff" stroke="#000000" stroke-width="2.5" stroke-linecap="butt"/><path d="M303.4788,150.80082c5.53379,26.76616 -41.67983,29.90271 -52.68183,31.56966c-7.02481,1.06435 -55.98991,25.78545 -60.34368,-1.1978c-1.25012,-7.74775 17.68625,-17.8197 25.25712,-19.88662c12.19026,-3.32807 10.23178,5.76744 17.02774,-4.8859c1.10723,-1.73571 -2.01394,-14.98372 -1.26097,-16.89987c2.25895,-5.7485 4.03954,-5.86801 13.37187,-7.68198c0,0 4.23544,-1.62689 7.64344,4.07194c2.2114,3.69789 5.3394,15.77428 7.40853,19.55359c0,0 3.28969,-6.55079 16.19794,-6.23729c-3.36429,-0.12397 -3.07784,-5.46315 27.37983,1.59426z" data-paper-data="{&quot;origRot&quot;:0}" fill="#ffe9cc" stroke="#000000" stroke-width="2.5" stroke-linecap="butt"/><path d="M221.62326,258.30207c0,0 -8.26141,-43.32004 -12.42055,-56.99821c-0.35157,-1.15618 -17.91595,-5.8661 -21.20612,-10.46009c-7.83287,-10.93689 -5.29793,-26.23648 -5.55162,-27.55596c-1.08074,-5.62116 17.94803,2.64009 17.94803,2.64009c0,0 -4.01259,10.99647 6.67257,12.11511c3.97262,0.6454 9.16269,-0.56722 10.18051,-4.46108c1.14413,-4.37716 -5.03541,-13.01879 -0.64452,-11.92856c9.06694,-5.01353 16.20942,-8.51155 16.20942,-8.51155c0,0 2.53831,20.27609 15.22543,17.81005c14.16141,-2.75263 7.84664,-20.04269 10.39297,-22.25647c0.89923,0.2233 18.06001,-1.31967 19.16731,-1.23216c0.36909,0.02916 4.2209,9.83246 6.29292,11.74736c4.00826,3.70438 9.59073,-0.45826 11.91707,-2.74637c3.58531,-3.5264 0.65933,-14.49729 0.67713,-13.94608c0.94169,0.60107 8.99825,-6.45436 12.91263,-2.60711c-0.2321,9.3019 1.45836,26.11468 -1.69127,36.25823c-1.31775,4.2439 -9.93942,5.47463 -9.56046,7.4562c4.03485,21.09827 8.41696,59.3086 8.41696,59.3086c0,0 -13.656,10.38394 -26.17904,12.64975c-4.17435,0.75525 -58.75946,2.71823 -58.75946,2.71823z" data-paper-data="{&quot;origRot&quot;:0}" fill="#fffeae" stroke="#000000" stroke-width="2.5" stroke-linecap="butt"/><path d="M225.85904,220.48575c0.13372,0.68795 0.10273,1.27276 -0.06928,1.30617c-0.17197,0.03343 -0.41982,-0.49716 -0.55354,-1.18511c-0.13372,-0.68795 -0.10271,-1.27276 0.0693,-1.30617c0.17197,-0.03343 0.41982,0.49717 0.55353,1.18511z" data-paper-data="{&quot;origRot&quot;:0}" fill="#e7e69d" stroke="none" stroke-width="2.5" stroke-linecap="butt"/><path d="M291.70648,96.72426c1.97656,29.93119 -37.96128,52.07371 -50.17254,52.2256c-7.79693,0.09697 -54.853,-16.51883 -55.51405,-46.50792c-1.19876,-54.3823 20.72468,-55.51384 49.90922,-57.09274c29.18453,-1.5789 51.91935,-7.04744 55.77737,51.37506z" data-paper-data="{&quot;origRot&quot;:0}" fill="#ffe9cc" stroke="#000000" stroke-width="2.5" stroke-linecap="butt"/><path d="M294.431,89.08044c0.02636,0.48742 -6.30115,-18.32233 -5.36344,-18.21267c-13.94098,8.16516 -12.45338,7.54783 -27.67009,12.97667c-49.42365,17.63279 12.98258,-15.6255 -5.52501,-14.60283c-0.06862,0.0038 -47.06769,21.3747 -47.13634,21.37842c-2.64594,0.14315 -21.11413,31.84827 -23.66508,31.13116c-7.6528,-2.15136 -9.15662,-68.94997 12.218,-79.57675c27.59719,-13.72043 46.85932,-14.35474 65.32902,-9.42655c29.44686,7.85718 31.20529,45.10038 31.81296,56.3326z" data-paper-data="{&quot;origRot&quot;:0}" fill="#2c1500" stroke="#000000" stroke-width="2.5" stroke-linecap="butt"/><path d="M135.22947,161.7069c0,0 -31.70012,-26.15559 -33.38435,-30.18781c-2.3926,-5.72812 16.56025,6.15395 16.56025,6.15395c0,0 -2.0015,-3.82095 -5.8795,-7.19395c-5.54209,-4.82042 -16.21366,-5.43182 -10.48416,-16.8195c7.10836,-14.1282 40.46768,18.26858 42.98239,31.87555" fill="#ffe9cc" stroke="#000000" stroke-width="2.5" stroke-linecap="round"/><path d="M210.58045,96.32218c0,-11.36479 9.21298,-20.57778 20.57778,-20.57778c11.3648,0 20.57778,9.21299 20.57778,20.57778c0,11.3648 -9.21298,20.57778 -20.57778,20.57778c-11.3648,0 -20.57778,-9.21299 -20.57778,-20.57778z" fill="#ffffff" stroke="#000000" stroke-width="2" stroke-linecap="butt"/><path d="M268.55893,121.28023c0.91776,5.75329 -5.65775,6.0153 -12.39988,7.09079c-6.74213,1.07549 -11.09778,2.5572 -12.01554,-3.19608c-0.91776,-5.75329 3.7039,-8.74155 10.44602,-9.81705c6.74213,-1.07549 13.05163,0.16906 13.96939,5.92234z" fill="none" stroke="#000000" stroke-width="2.5" stroke-linecap="butt"/><path d="M254.50468,88.678c0,-11.36479 9.21299,-20.57778 20.57778,-20.57778c11.3648,0 20.57778,9.21298 20.57778,20.57778c0,11.3648 -9.21298,20.57778 -20.57778,20.57778c-11.36479,0 -20.57778,-9.21299 -20.57778,-20.57778z" fill="#ffffff" stroke="#000000" stroke-width="2" stroke-linecap="butt"/><path d="M237.60428,95.45444c0,-1.02694 0.8325,-1.85944 1.85944,-1.85944c1.02694,0 1.85944,0.8325 1.85944,1.85944c0,1.02694 -0.8325,1.85944 -1.85944,1.85944c-1.02694,0 -1.85944,-0.8325 -1.85944,-1.85944z" fill="#000000" stroke="none" stroke-width="0" stroke-linecap="butt"/><path d="M261.44659,90.04158c0,-1.02694 0.8325,-1.85944 1.85944,-1.85944c1.02694,0 1.85944,0.8325 1.85944,1.85944c0,1.02694 -0.83249,1.85944 -1.85944,1.85944c-1.02694,0 -1.85944,-0.8325 -1.85944,-1.85944z" fill="#000000" stroke="none" stroke-width="0" stroke-linecap="butt"/></g></g></svg>