<svg xmlns="http://www.w3.org/2000/svg" xmlns:xlink="http://www.w3.org/1999/xlink" version="1.1" width="268.78726" height="292.63628" viewBox="0,0,268.78726,292.63628"><g><g data-paper-data="{&quot;isPaintingLayer&quot;:true}" fill-rule="nonzero" stroke-linejoin="miter" stroke-miterlimit="10" stroke-dasharray="" stroke-dashoffset="0" style="mix-blend-mode: normal"><g stroke-linecap="butt"><path d="M 50.8665 129.3679 C 73.7899 136.5997 88.7581 149.8697 84.299 159.0074 C 79.8399 168.1451 57.6419 169.6902 34.7185 162.4585 C 11.795 155.2267 -3.1732 141.9567 1.2859 132.819 C 5.745 123.6813 27.943 122.1362 50.8665 129.368 Z " data-paper-data="{&quot;origRot&quot;:0,&quot;index&quot;:null}" fill="#d6bbff" stroke="#9d85c1" stroke-width="1"/><path d="M177.63154,299.50639c-6.24116,18.33179 -49.85424,4.26882 -49.85424,4.26882l10.33345,-36.78296c0,0 46.85928,10.95919 39.52078,32.51414z" data-paper-data="{&quot;origRot&quot;:0,&quot;index&quot;:null}" fill="#99b2ff" stroke="none" stroke-width="0" transform="matrix(1,0,0,1,-93.41252,-140.26004)"/></g><g data-paper-data="{&quot;index&quot;:null}" stroke-linecap="butt"><path d="M 80.8342 244.9509 L 133.7327 220.2095 L 152.7578 249.4012 L 110.3838 290.2913 Z " data-paper-data="{&quot;origPos&quot;:null}" fill="#d6bbff" stroke="#9d85c1" stroke-width="1"/><g data-paper-data="{&quot;origPos&quot;:null}"><path d="M 101.338 273.8898 C 105.1112 271.4307 110.6992 273.3179 113.8191 278.1049 C 116.9389 282.8919 116.4092 288.7661 112.636 291.2253 C 111.8331 291.7485 109.5336 292.6363 109.5336 292.6363 C 109.5336 292.6363 106.2723 287.474 104.1073 284.1521 C 102.1158 281.0964 99.3407 276.3503 99.3407 276.3503 C 99.3407 276.3503 100.4173 274.4899 101.338 273.8899 Z " data-paper-data="{&quot;origPos&quot;:null}" stroke-width="1" fill="#f7ffb5" stroke="none"/><path d="M 90.7501 257.644 C 94.5233 255.1849 100.1113 257.0721 103.2312 261.8591 C 106.351 266.6462 105.8214 272.5204 102.0481 274.9795 C 101.2453 275.5027 98.9457 276.3905 98.9457 276.3905 C 98.9457 276.3905 95.6844 271.2283 93.5194 267.9063 C 91.5279 264.8506 88.7528 260.1045 88.7528 260.1045 C 88.7528 260.1045 89.8294 258.2441 90.7501 257.6441 Z " data-paper-data="{&quot;origPos&quot;:null}" stroke-width="1" fill="#f7ffb5" stroke="none"/><path d="M 92.7725 245.8114 C 95.8923 250.5985 95.3626 256.4727 91.5894 258.9318 C 90.7865 259.4551 88.487 260.3429 88.487 260.3429 C 88.487 260.3429 85.2257 255.1806 83.0607 251.8587 C 81.0692 248.8029 78.2941 244.0568 78.2941 244.0568 C 78.2941 244.0568 79.3707 242.1965 80.2913 241.5964 C 84.0646 239.1373 89.6526 241.0244 92.7725 245.8115 Z " data-paper-data="{&quot;origPos&quot;:null}" stroke-width="1" fill="#f7ffb5" stroke="none"/></g></g><g data-paper-data="{&quot;index&quot;:null}" stroke-linecap="butt"><path d="M 248.483 263.6795 L 196.6226 236.83 L 208.1647 203.953 L 266.41 212.6153 Z " data-paper-data="{&quot;origPos&quot;:null}" fill="#d6bbff" stroke="#9d85c1" stroke-width="1"/><g data-paper-data="{&quot;origPos&quot;:null}"><path d="M 258.9232 229.7844 C 254.6736 228.2925 252.763 222.7125 254.6558 217.3212 C 256.5485 211.9298 261.5279 208.7686 265.7775 210.2606 C 266.6817 210.578 268.7873 211.8596 268.7873 211.8596 C 268.7873 211.8596 266.6833 217.5919 265.3699 221.3332 C 264.1617 224.7746 262.0912 229.8677 262.0912 229.8677 C 262.0912 229.8677 259.9602 230.1485 258.9233 229.7844 Z " data-paper-data="{&quot;origPos&quot;:null}" stroke-width="1" fill="#f7ffb5" stroke="none"/><path d="M 252.4999 248.0812 C 248.2503 246.5892 246.3397 241.0092 248.2324 235.6179 C 250.1252 230.2265 255.1045 227.0654 259.3541 228.5573 C 260.2583 228.8747 262.3639 230.1564 262.3639 230.1564 C 262.3639 230.1564 260.26 235.8886 258.9465 239.6299 C 257.7383 243.0714 255.6678 248.1645 255.6678 248.1645 C 255.6678 248.1645 253.5368 248.4452 252.4999 248.0812 Z " data-paper-data="{&quot;origPos&quot;:null}" stroke-width="1" fill="#f7ffb5" stroke="none"/><path d="M 241.8873 253.6914 C 243.7801 248.3 248.7594 245.1389 253.009 246.6308 C 253.9132 246.9482 256.0188 248.2299 256.0188 248.2299 C 256.0188 248.2299 253.9149 253.9621 252.6014 257.7034 C 251.3932 261.1449 249.3227 266.238 249.3227 266.238 C 249.3227 266.238 247.1918 266.5188 246.1549 266.1547 C 241.9053 264.6628 239.9946 259.0828 241.8874 253.6914 Z " data-paper-data="{&quot;origPos&quot;:null}" stroke-width="1" fill="#f7ffb5" stroke="none"/></g></g><g stroke-linecap="round"><path d="M 121.9361 190.5918 C 107.2259 193.59 90.6888 193.2446 78.5516 190.4002 C 72.9961 188.4122 71.4336 182.2878 75.5358 177.9553 C 80.4519 173.0188 93.0183 168.7687 101.5464 168.358 C 122.8522 167.3477 152.6561 166.8357 160.207 173.4737 C 164.8208 177.6003 136.2893 187.6693 121.9361 190.5918 Z " fill="#99b2ff" stroke="#80a0d5" stroke-width="3.23007"/><path d="M 229.849 222.8279 L 225.0593 230.5764 L 216.1786 235.199 L 120.1411 258.4724 L 109.9409 257.6503 L 107.2356 253.3651 L 99.4072 172.914 L 198.5934 148.8776 Z " fill="#99b2ff" stroke="#80a0d5" stroke-width="3.23007"/><path d="M 192.419 210.366 L 179.3913 197.877 " fill="none" stroke="#80a0d5" stroke-width="3.23007"/><path d="M 183.9189 186.4489 L 165.7357 159.5631 " fill="none" stroke="#80a0d5" stroke-width="3.23007"/><path d="M 181.355 182.747 L 185.1774 188.2027 " fill="none" stroke="#ffffff" stroke-width="3.23007"/><path d="M 121.1947 225.9794 L 129.0112 210.0859 " fill="none" stroke="#80a0d5" stroke-width="3.23007"/><path d="M 147.3599 164.0162 L 143.5019 196.2435 " fill="none" stroke="#80a0d5" stroke-width="3.23007"/><path d="M 143.1859 198.3787 L 144.0868 191.7785 " fill="none" stroke="#ffffff" stroke-width="3.23007"/></g><g stroke-linecap="butt"><path d="M 70.9962 160.915 C 94.945 158.858 113.8427 165.4168 113.2054 175.5645 C 112.5681 185.7122 92.637 195.606 68.6881 197.663 C 44.7391 199.7199 25.8414 193.1611 26.4787 183.0134 C 27.1161 172.8658 47.0473 162.972 70.9961 160.915 Z " data-paper-data="{&quot;origRot&quot;:0,&quot;index&quot;:null}" fill="#d6bbff" stroke="#9d85c1" stroke-width="1"/><path d="M206.63513,316.07592c1.2216,19.32652 -44.45853,22.9588 -44.45853,22.9588l-4.47519,-37.94389c0,0 47.49733,-7.73949 48.93371,14.9851z" data-paper-data="{&quot;origRot&quot;:0,&quot;index&quot;:null}" fill="#99b2ff" stroke="none" stroke-width="0" transform="matrix(1,0,0,1,-93.41252,-140.26004)"/></g><g><g stroke-linecap="butt"><g><g data-paper-data="{&quot;index&quot;:null}"><path d="M 228.4181 72.3115 C 236.0914 156.1129 200.8844 133.7027 185.4772 134.021 C 170.07 134.3392 151.6287 90.6277 151.0195 61.134 C 150.4103 31.6403 162.4065 7.4729 177.8137 7.1547 C 193.2208 6.8364 226.0244 30.7637 228.418 72.3115 Z " data-paper-data="{&quot;origRot&quot;:0,&quot;origPos&quot;:null,&quot;index&quot;:null}" fill="#d6bbff" stroke="#9d85c1" stroke-width="1"/><path d="M 12.1233 117.5301 C 3.5462 66.3222 40.6989 44.1502 54.6992 44.1409 C 68.6995 44.1315 86.3368 88.0196 87.4793 117.3962 C 88.6217 146.7728 99.8665 165.0212 85.8662 165.0306 C 71.866 165.04 23.6942 157.0631 12.1233 117.5301 Z " data-paper-data="{&quot;origRot&quot;:0,&quot;origPos&quot;:null}" fill="#d6bbff" stroke="#9d85c1" stroke-width="1"/><path d="M 59.2766 120.704 C 43.2923 75.8598 64.9644 27.1629 107.6826 11.9364 C 150.4008 -3.2901 197.9885 20.7197 213.9728 65.5639 C 229.9571 110.408 208.2851 159.1049 165.5669 174.3314 C 122.8487 189.5579 75.2609 165.5481 59.2766 120.704 Z " data-paper-data="{&quot;origPos&quot;:null,&quot;origRot&quot;:0}" fill="#d6bbff" stroke="#9d85c1" stroke-width="1"/><path d="M 181.2662 91.1077 C 182.4125 87.6094 188.8459 85.3577 195.6357 86.0785 C 202.4255 86.7992 207.0004 90.2194 205.8542 93.7177 C 204.7079 97.216 198.2745 99.4677 191.4848 98.7469 C 184.6949 98.0262 180.12 94.606 181.2662 91.1077 Z " data-paper-data="{&quot;origPos&quot;:null,&quot;origRot&quot;:0}" fill="#ffc0bb" stroke="none" stroke-width="1"/><path d="M 53.1184 118.42 C 48.9433 99.6438 54.7162 51.2986 63.1003 49.4479 C 71.4844 47.5973 79.3049 92.9418 83.4801 111.718 C 87.6553 130.4942 96.6498 160.058 88.2657 161.9087 C 79.8816 163.7594 57.2937 137.1962 53.1185 118.42 Z " data-paper-data="{&quot;origRot&quot;:0,&quot;origPos&quot;:null}" fill="#d6bbff" stroke="none" stroke-width="1"/><g data-paper-data="{&quot;origPos&quot;:null,&quot;origRot&quot;:0}"><path d="M 227.3056 121.1892 C 237.4347 140.8215 235.8121 156.1494 197.139 159.648 C 182.4083 160.9806 154.1196 149.9915 142.4419 142.1128 C 130.7642 134.2341 124.6217 110.7222 124.6217 110.7222 L 154.2995 100.0496 C 154.2995 100.0496 164 123.392 177.9439 122.4438 C 194.6318 121.309 217.1765 101.5568 227.3056 121.1891 Z " data-paper-data="{&quot;origPos&quot;:null,&quot;origRot&quot;:0}" stroke="#9d85c1" stroke-width="1" fill="#d6bbff"/><path d="M 136.8596 126.7052 L 123.1994 107.2215 L 151.6606 98.0377 L 162.2628 117.6217 Z " data-paper-data="{&quot;origRot&quot;:0,&quot;origPos&quot;:null}" stroke="none" stroke-width="1" fill="#d6bbff"/></g><path d="M 83.9005 117.6314 C 85.332 114.0314 92.6279 111.4723 100.1963 111.9155 C 107.7648 112.3587 112.7397 115.6364 111.3082 119.2363 C 109.8767 122.8363 102.5809 125.3954 95.0124 124.9522 C 87.4439 124.509 82.469 121.2314 83.9005 117.6314 Z " data-paper-data="{&quot;origPos&quot;:null,&quot;origRot&quot;:0}" fill="#ffc0bb" stroke="none" stroke-width="1"/></g><path d="M 67.5359 75.6076 C 65.2441 85.5797 62.3996 103.9214 64.4882 113.5426 C 65.6891 119.0747 78.4452 145.6691 62.2927 149.5834 C 55.4176 151.2495 51.0256 147.1399 49.4677 141.7619 C 42.1539 116.5143 45.7379 104.2645 45.9471 80.8367 C 45.9835 76.7583 47.0329 59.1793 52.3464 58.2733 C 53.5461 57.2848 54.9825 56.5454 56.5948 56.1547 C 62.2961 54.773 68.0381 58.2748 69.4197 63.9762 C 71.4068 65.2651 68.1048 73.1318 67.5359 75.6076 Z " fill="#d6bbff" stroke="none" stroke-width="0.5"/></g><path d="M 130.1313 95.5598 C 128.3384 98.7075 125.1907 96.9146 125.1907 96.9146 L 124.5137 96.5198 C 114.0893 91.4413 104.5672 93.841 98.5301 103.9397 C 98.5301 103.9397 96.6297 107.0237 93.5458 105.1234 C 90.4618 103.2231 92.362 100.1391 92.362 100.1391 C 100.6083 87.0741 113.7127 83.2685 127.6728 89.9999 L 128.7764 90.6194 C 128.7764 90.6194 131.9241 92.4123 130.1312 95.5599 Z " fill="#000000" stroke="none" stroke-width="0.5"/><path d="M 180.747 83.6368 C 178.9541 86.7844 175.8064 84.9916 175.8064 84.9916 L 175.1295 84.5967 C 164.7051 79.5182 155.1829 81.918 149.1458 92.0166 C 149.1458 92.0166 147.2455 95.1006 144.1615 93.2004 C 141.0775 91.3 142.9778 88.2161 142.9778 88.2161 C 151.224 75.151 164.3284 71.3454 178.2885 78.0769 L 179.3922 78.6963 C 179.3922 78.6963 182.5399 80.4892 180.747 83.6369 Z " fill="#000000" stroke="none" stroke-width="0.5"/></g><path d="M 158.4947 6.3021 C 168.7794 8.8464 173.1523 19.9385 182.6823 23.0536 C 190.9198 25.7338 205.4003 20.4154 208.6034 24.5623 C 210.9732 27.7602 198.7504 35.4733 191.5363 38.5069 C 179.0214 43.9149 164.6034 43.8466 150.8068 49.2916 C 147.3578 50.6525 152.5476 54.4401 150.2697 54.9884 C 141.1651 57.1795 131.3721 53.9384 122.1642 55.7974 C 119.548 56.3125 122.7601 61.3449 120.4934 61.861 C 111.6761 63.8301 101.8048 60.2214 92.1071 61.8403 C 90.2714 62.1848 90.2591 65.2403 90.4728 66.9716 C 91.138 72.0282 94.5674 77.0961 92.6405 81.5506 C 91.4933 84.3363 85.834 78.5225 83.4641 80.0092 C 79.6589 84.8247 81.1658 100.0797 77.9805 96.5114 C 69.1321 86.4439 63.6 69.8726 61.1932 54.3529 C 60.5464 46.7075 64.7437 37.9072 71.1317 32.7273 C 85.1332 21.4277 104.018 12.2671 122.8348 6.7938 C 133.8503 3.5059 147.1508 3.4745 158.4946 6.3022 Z " fill="#1c1a12" stroke="#000000" stroke-width="2.62991" stroke-linecap="round"/><g stroke-linecap="round"><path d="M 70.667 3.5249 C 77.6802 0.252 84.4969 1.0705 89.9433 3.3311 C 96.2832 5.9517 105.8887 7.8225 106.0347 16.5369 C 105.6928 26.3244 95.703 36.6392 89.491 46.0793 C 82.9279 56.0517 77.5447 70.3116 68.5653 74.69 C 60.3603 78.3309 55.2797 69.2381 50.7512 64.1579 C 46.7835 59.7039 42.8795 54.2637 42.9612 46.5249 C 43.0431 38.786 45.7971 29.8006 51.2035 21.4098 C 56.6099 13.019 63.6538 6.7977 70.667 3.5249 Z " fill="#99b2ff" stroke-width="2.69275" stroke="#80a0d5"/><path d="M 89.9122 11.7395 C 93.1781 7.2147 96.2197 2.3251 97.3291 2.4714 C 103.3402 2.6374 110.5747 2.4651 108.7314 12.5613 C 107.3289 19.9723 97.2276 34.2751 90.5569 45.8771 C 86.0717 53.6762 81.707 62.2746 76.6867 68.8179 C 72.4871 73.7589 69.3044 77.8955 67.7483 78.43 C 61.9261 78.5654 54.3067 80.3702 56.0974 70.6866 C 57.5486 63.0505 69.0417 47.728 75.6226 36.2547 C 80.6833 27.4321 84.6144 19.3857 89.9122 11.7395 Z " fill="#99b2ff" stroke-width="2.32204" stroke="#80a0d5"/><path d="M 90.8539 12.3313 L 104.9187 20.3425 " fill="none" stroke-width="3.23007" stroke="#80a0d5"/><path d="M 95.1114 33.2193 L 82.5388 24.9041 " fill="none" stroke-width="3.23007" stroke="#80a0d5"/><path d="M 73.9338 39.8668 L 86.5064 48.182 " fill="none" stroke-width="3.23007" stroke="#80a0d5"/><path d="M 65.6186 52.4395 L 79.0894 61.3486 " fill="none" stroke-width="3.23007" stroke="#80a0d5"/><path d="M 71.658 70.6332 L 59.0852 62.3181 " fill="none" stroke-width="3.23007" stroke="#80a0d5"/></g></g></g></g></svg>