<svg version="1.1" xmlns="http://www.w3.org/2000/svg" xmlns:xlink="http://www.w3.org/1999/xlink" width="248.66667" height="336.61435" viewBox="0,0,248.66667,336.61435"><defs><linearGradient x1="257.63562" y1="108.47602" x2="277.87434" y2="108.47602" gradientUnits="userSpaceOnUse" id="color-1"><stop offset="0" stop-color="#7a003b"/><stop offset="1" stop-color="#aa85ae"/></linearGradient><linearGradient x1="258.1638" y1="100.21006" x2="283.40898" y2="100.21006" gradientUnits="userSpaceOnUse" id="color-2"><stop offset="0" stop-color="#7a003b"/><stop offset="1" stop-color="#b9aed1"/></linearGradient><linearGradient x1="244.58587" y1="94.46707" x2="244.58587" y2="110.40689" gradientUnits="userSpaceOnUse" id="color-3"><stop offset="0" stop-color="#6e1f27"/><stop offset="1" stop-color="#85527e"/></linearGradient><radialGradient cx="145.5" cy="96.12431" r="27" gradientUnits="userSpaceOnUse" id="color-4"><stop offset="0" stop-color="#ec00ff" stop-opacity="0"/><stop offset="1" stop-color="#ec00ff"/></radialGradient><radialGradient cx="340.16667" cy="97.12432" r="27" gradientUnits="userSpaceOnUse" id="color-5"><stop offset="0" stop-color="#ec00ff" stop-opacity="0"/><stop offset="1" stop-color="#ec00ff"/></radialGradient></defs><g transform="translate(-118.5,-20.84749)"><g data-paper-data="{&quot;isPaintingLayer&quot;:true}" fill-rule="nonzero" stroke-linejoin="miter" stroke-miterlimit="10" stroke-dasharray="" stroke-dashoffset="0" style="mix-blend-mode: normal"><g data-paper-data="{&quot;index&quot;:null}" stroke-width="2.5" stroke-linecap="round"><path d="M316.11928,110.75119c0,0 19.15368,-10.29195 22.87353,-4.91975c3.71986,5.37219 -20.26207,24.47108 -20.26207,24.47108" data-paper-data="{&quot;origPos&quot;:null}" fill="#4e3c82" stroke="#4e3c82"/><path d="M256.82872,132.83969c0,0 28.66956,-3.416 30.62991,-4.56184c2.17891,-1.27359 31.43749,-19.72115 31.43749,-19.72115l7.87935,17.90887c0,0 -19.43235,13.14614 -34.98012,20.22448c-15.54777,7.07834 -35.30525,4.51117 -35.30525,4.51117" data-paper-data="{&quot;origPos&quot;:null}" fill="#710042" stroke="#710042"/></g><g stroke-width="2.5"><path d="M191.27724,344.23318l8.06213,-25.77686l31.32838,8.95577l-3.87284,14.34803l8.74606,4.84391l-3.32051,9.33349z" data-paper-data="{&quot;origPos&quot;:null}" fill="#8f6320" stroke="#8f6320" stroke-linecap="butt"/><path d="M209.04973,303.89231l22.22928,1.67437c0,0 0.40455,15.40799 0.25955,20.41718c-0.08269,2.85611 -1.05328,7.00149 -1.05328,7.00149c0,0 -3.7067,-3.12135 -4.77069,-5.08428c-1.16502,-2.1493 -1.9439,-7.30322 -1.9439,-7.30322c0,0 -1.86735,5.1882 -3.37181,7.00109c-1.53364,1.84805 -5.74418,3.98375 -5.74418,3.98375c0,0 -2.59225,-4.75625 -3.17852,-7.24177c-0.65411,-2.7732 -0.56497,-8.62911 -0.56497,-8.62911c0,0 -2.10909,5.00572 -3.96897,6.89012c-2.00576,2.03222 -7.66103,4.89329 -7.66103,4.89329c0,0 -0.5185,-7.04474 0.1135,-10.40478c0.56832,-3.02145 3.50781,-8.84781 3.50781,-8.84781z" data-paper-data="{&quot;origPos&quot;:null}" fill="#4e3c82" stroke="#4e3c82" stroke-linecap="butt"/><path d="M262.98744,196.96663l-29.80269,124.20814l-29.8242,-13.20603l33.15836,-111.94915" data-paper-data="{&quot;origPos&quot;:null}" fill="#1c1111" stroke="#1c1111" stroke-linecap="round"/><path d="M226.77377,342.24648l-15.84151,-5.22195" fill="#e4a547" stroke="#8f6320" stroke-linecap="round"/></g><path d="M221.375,139.23477l-2,-8.75l39.75,1.5l-1,7.5z" fill="#710042" stroke="#710042" stroke-width="2.5" stroke-linecap="butt"/><path d="M244.11351,126.44639l5.14264,5.68406l6.96934,3.45706l-8.91259,11.4264l-22.62427,-14.16874l6.11965,-2.1503l2.79294,-3.79142z" data-paper-data="{&quot;origPos&quot;:null}" fill="#6851ac" stroke="#4e3c82" stroke-width="2.5" stroke-linecap="round"/><path d="M198.17938,86.9141c0,-22.9833 20.16638,-41.61495 45.04287,-41.61495c24.87649,0 35.10359,19.06747 39.5582,41.61495c5.82746,29.49635 -14.68171,41.61495 -39.5582,41.61495c-24.87649,0 -45.04287,-18.63165 -45.04287,-41.61495z" data-paper-data="{&quot;origPos&quot;:null}" fill="#6851ac" stroke="#4e3c82" stroke-width="2.5" stroke-linecap="butt"/><g stroke-width="2.5"><path d="M200.3454,308.2939l13.81922,-23.20504l28.39806,15.97571l-7.09413,13.05903l7.38457,6.73982l-5.39414,8.30922z" data-paper-data="{&quot;origPos&quot;:null}" fill="#e4a547" stroke="#8f6320" stroke-linecap="butt"/><path d="M226.98726,273.17327l21.23525,6.78297c0,0 -3.17908,15.0819 -4.48161,19.92094c-0.74266,2.7591 -2.64799,6.56646 -2.64799,6.56646c0,0 -2.88193,-3.89574 -3.4618,-6.05189c-0.63492,-2.36086 -0.19756,-7.55491 -0.19756,-7.55491c0,0 -3.01943,4.61383 -4.90324,6.02848c-1.92034,1.44208 -6.51132,2.5433 -6.51132,2.5433c0,0 -1.4188,-5.22767 -1.41277,-7.78141c0.00672,-2.84929 1.45123,-8.52494 1.45123,-8.52494c0,0 -3.21227,4.38027 -5.45839,5.78208c-2.42231,1.51177 -8.58684,2.9836 -8.58684,2.9836c0,0 1.12908,-6.97299 2.52294,-10.09492c1.25341,-2.80735 5.46372,-7.79333 5.46372,-7.79333z" data-paper-data="{&quot;origPos&quot;:null}" fill="#6851ac" stroke="#4e3c82" stroke-linecap="butt"/><path d="M235.5919,179.5111c0,0 48.20706,42.46395 38.35223,61.88926c-9.38568,18.50054 -27.48682,54.18049 -27.48682,54.18049l-25.94938,-19.76138c0,0 12.54527,-21.81175 20.38121,-35.43567c10.67577,-18.56135 -19.85686,-37.33776 -19.85686,-37.33776" data-paper-data="{&quot;origPos&quot;:null}" fill="#402626" stroke="#1c1111" stroke-linecap="round"/><path d="M235.33523,314.59182l-14.199,-8.75276" fill="#e4a547" stroke="#8f6320" stroke-linecap="round"/></g><path d="M242.81148,194.4642l18.5,6l-12.75,21.25" data-paper-data="{&quot;origPos&quot;:null}" fill="#402626" stroke="none" stroke-width="2.5" stroke-linecap="round"/><path d="M259.23212,171.08082c0.79949,9.19419 7.50566,30.5513 7.50566,30.5513h-45.24855c0,0 -3.12192,-26.33611 -2.19374,-39.60356c0.58799,-8.40475 -0.17128,-31.67875 -0.17128,-31.67875c0,0 10.40765,-0.29824 16.27288,2.29674c5.86523,2.59498 10.54465,14.56828 10.54465,14.56828c0,0 2.8411,-11.6878 6.42982,-14.199c3.58871,-2.5112 7.70978,-0.69516 7.70978,-0.69516c0,0 -1.83345,27.44156 -0.84922,38.76015z" fill="#9d0031" stroke="#710042" stroke-width="2.5" stroke-linecap="round"/><path d="M212.38842,119.5031c-35.36819,-2.39546 -28.75525,-41.49905 -28.75525,-41.49905c0,0 14.6095,15.59362 14.05086,14.70439c-9.70171,-15.44315 0.65353,-46.72728 0.65353,-46.72728c0,0 10.61396,14.61758 10.78322,14.05086c6.61725,-22.15558 46.07375,-37.25112 46.07375,-37.25112c0,0 -3.50508,23.26925 -3.26764,23.20025c23.85133,-6.93096 54.24286,12.74381 54.24286,12.74381c0,0 -25.5851,9.63752 -25.16084,9.80293c18.30616,7.13718 20.25938,37.25112 20.25938,37.25112l-18.62556,-18.29879" fill="#6851ac" stroke="#4e3c82" stroke-width="2.5" stroke-linecap="round"/><path d="M274,74.95278l-18.5,41.16667l3.33333,-18.16667z" fill="#ff8fbb" stroke="none" stroke-width="0" stroke-linecap="round"/><g data-paper-data="{&quot;index&quot;:null}"><path d="M277.87434,113.95294c0,0 -11.36928,1.57684 -17.1396,-1.88536c-5.77032,-3.4622 -1.71396,-9.42678 -1.71396,-9.42678z" data-paper-data="{&quot;origPos&quot;:null}" fill="url(#color-1)" stroke="none" stroke-width="2.5" stroke-linecap="round"/><path d="M258.1638,104.35477l1.77945,-6.96015c0,0 3.61248,-5.20348 16.71157,-10.20596c2.62614,-1.00291 4.83256,-1.2825 6.62763,-0.89995c0.19879,0.04236 0.80898,25.6739 -4.55112,28.00703" data-paper-data="{&quot;origPos&quot;:null}" fill="url(#color-2)" stroke="#4e3c82" stroke-width="2.5" stroke-linecap="round"/><path d="M264.05674,94.18929c2.03517,0 3.68501,3.56825 3.68501,7.96991c0,4.40166 -1.64983,7.96991 -3.68501,7.96991c-2.03517,0 -3.68501,-3.56825 -3.68501,-7.96991c0,-4.40166 1.64983,-7.96991 3.68501,-7.96991z" fill="#004e29" stroke="none" stroke-width="2.5" stroke-linecap="butt"/><path d="M263.73877,97.06086v8.27787" fill="none" stroke="#000000" stroke-width="0.5" stroke-linecap="round"/></g><path d="M245.52855,118.97669c0,-2.34113 1.19977,-6.17026 1.19977,-6.17026c0,0 7.27784,-1.71396 11.82632,-1.71396c4.14715,0 10.45516,1.71396 10.45516,1.71396c0,0 1.19977,4.27642 1.19977,6.68444c0,3.41136 -1.19977,8.22701 -1.19977,8.22701c0,0 -4.91181,1.19977 -8.05561,1.19977c-5.55183,0 -14.22587,-1.19977 -14.22587,-1.19977c0,0 -1.19977,-5.26293 -1.19977,-8.74119z" data-paper-data="{&quot;origPos&quot;:null}" fill="#e4a547" stroke="#8f6320" stroke-width="2.5" stroke-linecap="butt"/><path d="M265.89509,124.53853c0,0 -1.1837,-0.68016 -1.70319,-0.44648c-0.53105,0.23888 -1.44918,1.86453 -1.44918,1.86453l-2.4212,-1.75265l-2.41586,-0.08226l-2.61501,1.91298c0,0 -1.30395,-2.06371 -1.95983,-2.3499c-0.49659,-0.21668 -1.38969,0.71129 -1.38969,0.71129" fill="none" stroke="#8f6320" stroke-width="2.5" stroke-linecap="round"/><g stroke-width="2.5"><path d="M250.45516,102.41858c0,0 4.05636,5.96458 -1.71396,9.42678c-5.77032,3.4622 -17.1396,1.88536 -17.1396,1.88536z" data-paper-data="{&quot;origPos&quot;:null}" fill="#ffffff" stroke="none" stroke-linecap="round"/><path d="M230.74462,114.07351c-13.41139,-0.64306 -17.17924,-34.46076 2.0765,-27.10708c13.09909,5.00249 16.71156,10.20596 16.71156,10.20596l1.77945,6.96016" data-paper-data="{&quot;origPos&quot;:null}" fill="#ffffff" stroke="#4e3c82" stroke-linecap="round"/><path d="M248.27088,102.43698c0,4.40166 -1.64984,7.96991 -3.68501,7.96991c-2.03518,0 -3.68501,-3.56825 -3.68501,-7.96991c0,-4.40166 1.64984,-7.96991 3.68501,-7.96991c2.03518,0 3.68501,3.56825 3.68501,7.96991z" fill="url(#color-3)" stroke="none" stroke-linecap="butt"/></g><path d="M259.375,171.23477l-33.25,-0.5l-7.02002,-6.42655l-0.22998,-25.07345l6.5,17l34.25,-0.25z" fill="#9b8289" stroke="#714955" stroke-width="2.5" stroke-linecap="round"/><path d="M219.125,179.98477l38.0878,1.5l3.4122,-10.25l3.0255,17.82344l-3.80823,5.67656l-40.26042,-0.5z" data-paper-data="{&quot;index&quot;:null}" fill="#9b8289" stroke="#714955" stroke-width="2.5" stroke-linecap="round"/><path d="M247.125,170.48477l-5.25,-6.75l2.75,-6.25" fill="none" stroke="#714955" stroke-width="2.5" stroke-linecap="round"/><path d="M240.375,181.48477l6,6.5l-5,6.25" fill="none" stroke="#714955" stroke-width="2.5" stroke-linecap="round"/><g data-paper-data="{&quot;index&quot;:null}" stroke-width="2.5" stroke-linecap="round"><path d="M161.89159,127.29747c0,0 -23.93205,-19.16137 -20.19819,-24.52385c3.73386,-5.36248 22.86063,4.97939 22.86063,4.97939" data-paper-data="{&quot;origPos&quot;:null}" fill="#6851ac" stroke="#4e3c82"/><path d="M224.07754,148.3584c0,0 -19.76412,2.51564 -35.29336,-4.60323c-15.52926,-7.11887 -34.92726,-20.31564 -34.92726,-20.31564l7.92603,-17.88826c0,0 29.21036,18.5238 31.38594,19.80307c1.95735,1.15096 30.6179,4.64171 30.6179,4.64171" data-paper-data="{&quot;origPos&quot;:null}" fill="#9d0031" stroke="#710042"/></g><path d="M118.5,96.12431c0,-14.91169 12.08831,-27 27,-27c14.91169,0 27,12.08831 27,27c0,14.91169 -12.08831,27 -27,27c-14.91169,0 -27,-12.08831 -27,-27z" fill="url(#color-4)" stroke="none" stroke-width="2.5" stroke-linecap="butt"/><path d="M313.16667,97.12432c0,-14.91169 12.08831,-27 27,-27c14.91169,0 27,12.08831 27,27c0,14.91169 -12.08831,27 -27,27c-14.91169,0 -27,-12.08831 -27,-27z" fill="url(#color-5)" stroke="none" stroke-width="2.5" stroke-linecap="butt"/></g></g></svg>