<svg xmlns="http://www.w3.org/2000/svg" xmlns:xlink="http://www.w3.org/1999/xlink" version="1.1" width="250.14771" height="439.1075" viewBox="0,0,250.14771,439.1075"><defs><linearGradient x1="267.99154" y1="391.02395" x2="338.69178" y2="408.04013" gradientUnits="userSpaceOnUse" id="color-1"><stop offset="0" stop-color="#000000"/><stop offset="1" stop-color="#0e0e0e"/></linearGradient><linearGradient x1="298.18185" y1="420.21761" x2="295.69822" y2="430.53682" gradientUnits="userSpaceOnUse" id="color-2"><stop offset="0" stop-color="#000000"/><stop offset="1" stop-color="#666666"/></linearGradient><linearGradient x1="287.71262" y1="382.69263" x2="278.95704" y2="419.07103" gradientUnits="userSpaceOnUse" id="color-3"><stop offset="0" stop-color="#151515"/><stop offset="1" stop-color="#212121"/></linearGradient><linearGradient x1="315.97157" y1="392.68526" x2="312.23804" y2="408.19757" gradientUnits="userSpaceOnUse" id="color-4"><stop offset="0" stop-color="#292929"/><stop offset="1" stop-color="#292929"/></linearGradient><linearGradient x1="151.73617" y1="325.35632" x2="196.28625" y2="379.35972" gradientUnits="userSpaceOnUse" id="color-5"><stop offset="0" stop-color="#000000"/><stop offset="1" stop-color="#0e0e0e"/></linearGradient><linearGradient x1="157.37456" y1="365.9793" x2="149.72882" y2="372.28663" gradientUnits="userSpaceOnUse" id="color-6"><stop offset="0" stop-color="#000000"/><stop offset="1" stop-color="#666666"/></linearGradient><linearGradient x1="157.59109" y1="339.618" x2="166.88092" y2="350.87908" gradientUnits="userSpaceOnUse" id="color-7"><stop offset="0" stop-color="#151515"/><stop offset="1" stop-color="#212121"/></linearGradient><linearGradient x1="288.90945" y1="185.76255" x2="288.90945" y2="233.06133" gradientUnits="userSpaceOnUse" id="color-8"><stop offset="0" stop-color="#ffffff"/><stop offset="1" stop-color="#cccccc"/></linearGradient><radialGradient cx="212.89238" cy="224.60244" r="3.19969" gradientUnits="userSpaceOnUse" id="color-9"><stop offset="0" stop-color="#cccccc"/><stop offset="1" stop-color="#7f7f7f"/></radialGradient><radialGradient cx="210.62262" cy="227.0958" r="2.76495" gradientUnits="userSpaceOnUse" id="color-10"><stop offset="0" stop-color="#cccccc"/><stop offset="1" stop-color="#7f7f7f"/></radialGradient><radialGradient cx="209.06552" cy="230.70248" r="3.43034" gradientUnits="userSpaceOnUse" id="color-11"><stop offset="0" stop-color="#cccccc"/><stop offset="1" stop-color="#7f7f7f"/></radialGradient><radialGradient cx="210.37924" cy="234.36355" r="3.43033" gradientUnits="userSpaceOnUse" id="color-12"><stop offset="0" stop-color="#cccccc"/><stop offset="1" stop-color="#7f7f7f"/></radialGradient><radialGradient cx="212.87277" cy="237.91002" r="3.22537" gradientUnits="userSpaceOnUse" id="color-13"><stop offset="0" stop-color="#cccccc"/><stop offset="1" stop-color="#7f7f7f"/></radialGradient><radialGradient cx="213.93734" cy="241.8285" r="2.96989" gradientUnits="userSpaceOnUse" id="color-14"><stop offset="0" stop-color="#cccccc"/><stop offset="1" stop-color="#7f7f7f"/></radialGradient><radialGradient cx="215.00213" cy="245.14324" r="3.40494" gradientUnits="userSpaceOnUse" id="color-15"><stop offset="0" stop-color="#cccccc"/><stop offset="1" stop-color="#7f7f7f"/></radialGradient><radialGradient cx="215.39717" cy="249.38841" r="3.19996" gradientUnits="userSpaceOnUse" id="color-16"><stop offset="0" stop-color="#cccccc"/><stop offset="1" stop-color="#7f7f7f"/></radialGradient><radialGradient cx="215.96943" cy="253.21529" r="2.99502" gradientUnits="userSpaceOnUse" id="color-17"><stop offset="0" stop-color="#cccccc"/><stop offset="1" stop-color="#7f7f7f"/></radialGradient><radialGradient cx="217.52104" cy="256.87658" r="3.63472" gradientUnits="userSpaceOnUse" id="color-18"><stop offset="0" stop-color="#cccccc"/><stop offset="1" stop-color="#7f7f7f"/></radialGradient><radialGradient cx="220.34504" cy="260.03366" r="3.27706" gradientUnits="userSpaceOnUse" id="color-19"><stop offset="0" stop-color="#cccccc"/><stop offset="1" stop-color="#7f7f7f"/></radialGradient><radialGradient cx="221.82108" cy="263.05141" r="3.6099" gradientUnits="userSpaceOnUse" id="color-20"><stop offset="0" stop-color="#cccccc"/><stop offset="1" stop-color="#7f7f7f"/></radialGradient><radialGradient cx="216.61754" cy="218.65267" r="5.41106" gradientUnits="userSpaceOnUse" id="color-21"><stop offset="0" stop-color="#cccccc"/><stop offset="1" stop-color="#7f7f7f"/></radialGradient><radialGradient cx="225.73892" cy="220.95284" r="3.19969" gradientUnits="userSpaceOnUse" id="color-22"><stop offset="0" stop-color="#cccccc"/><stop offset="1" stop-color="#7f7f7f"/></radialGradient><radialGradient cx="227.49078" cy="224.89445" r="3.19967" gradientUnits="userSpaceOnUse" id="color-23"><stop offset="0" stop-color="#cccccc"/><stop offset="1" stop-color="#7f7f7f"/></radialGradient><radialGradient cx="228.22071" cy="229.27396" r="3.19969" gradientUnits="userSpaceOnUse" id="color-24"><stop offset="0" stop-color="#cccccc"/><stop offset="1" stop-color="#7f7f7f"/></radialGradient><radialGradient cx="228.22071" cy="234.09141" r="3.19969" gradientUnits="userSpaceOnUse" id="color-25"><stop offset="0" stop-color="#cccccc"/><stop offset="1" stop-color="#7f7f7f"/></radialGradient><radialGradient cx="228.36657" cy="238.61689" r="3.19969" gradientUnits="userSpaceOnUse" id="color-26"><stop offset="0" stop-color="#cccccc"/><stop offset="1" stop-color="#7f7f7f"/></radialGradient><radialGradient cx="228.07457" cy="243.28834" r="3.19969" gradientUnits="userSpaceOnUse" id="color-27"><stop offset="0" stop-color="#cccccc"/><stop offset="1" stop-color="#7f7f7f"/></radialGradient><radialGradient cx="227.49078" cy="247.8138" r="3.19967" gradientUnits="userSpaceOnUse" id="color-28"><stop offset="0" stop-color="#cccccc"/><stop offset="1" stop-color="#7f7f7f"/></radialGradient><radialGradient cx="227.19875" cy="252.04737" r="3.19969" gradientUnits="userSpaceOnUse" id="color-29"><stop offset="0" stop-color="#cccccc"/><stop offset="1" stop-color="#7f7f7f"/></radialGradient><radialGradient cx="226.76086" cy="256.71894" r="3.19969" gradientUnits="userSpaceOnUse" id="color-30"><stop offset="0" stop-color="#cccccc"/><stop offset="1" stop-color="#7f7f7f"/></radialGradient><radialGradient cx="225.44689" cy="261.39045" r="3.19969" gradientUnits="userSpaceOnUse" id="color-31"><stop offset="0" stop-color="#cccccc"/><stop offset="1" stop-color="#7f7f7f"/></radialGradient><radialGradient cx="223.84877" cy="276.09189" r="3.27704" gradientUnits="userSpaceOnUse" id="color-32"><stop offset="0" stop-color="#cccccc"/><stop offset="1" stop-color="#7f7f7f"/></radialGradient><radialGradient cx="223.42682" cy="279.83957" r="3.6099" gradientUnits="userSpaceOnUse" id="color-33"><stop offset="0" stop-color="#cccccc"/><stop offset="1" stop-color="#7f7f7f"/></radialGradient><radialGradient cx="224.57111" cy="283.87194" r="3.19969" gradientUnits="userSpaceOnUse" id="color-34"><stop offset="0" stop-color="#cccccc"/><stop offset="1" stop-color="#7f7f7f"/></radialGradient><linearGradient x1="304.74538" y1="239.50417" x2="303.69125" y2="270.46855" gradientUnits="userSpaceOnUse" id="color-35"><stop offset="0" stop-color="#ff0000"/><stop offset="1" stop-color="#ff0000" stop-opacity="0"/></linearGradient><linearGradient x1="299.29825" y1="239.3547" x2="304.74538" y2="239.3547" gradientUnits="userSpaceOnUse" id="color-36"><stop offset="0" stop-color="#ff0000"/><stop offset="1" stop-color="#ff0000" stop-opacity="0"/></linearGradient><linearGradient x1="264.98495" y1="213.24045" x2="249.19388" y2="212.8522" gradientUnits="userSpaceOnUse" id="color-37"><stop offset="0" stop-color="#7f7f7f"/><stop offset="1" stop-color="#b2b2b2"/></linearGradient><linearGradient x1="266.76137" y1="223.8642" x2="255.3744" y2="223.8642" gradientUnits="userSpaceOnUse" id="color-38"><stop offset="0" stop-color="#000000"/><stop offset="1" stop-color="#353935"/></linearGradient><linearGradient x1="245.56728" y1="223.8642" x2="255.78617" y2="223.8642" gradientUnits="userSpaceOnUse" id="color-39"><stop offset="0" stop-color="#000000"/><stop offset="1" stop-color="#353935"/></linearGradient><radialGradient cx="233.37902" cy="217.5796" r="25.62662" gradientUnits="userSpaceOnUse" id="color-40"><stop offset="0" stop-color="#666666"/><stop offset="1" stop-color="#000000"/></radialGradient><radialGradient cx="231.8656" cy="226.08331" r="11.01275" gradientUnits="userSpaceOnUse" id="color-41"><stop offset="0" stop-color="#370000"/><stop offset="1" stop-color="#000000"/></radialGradient><radialGradient cx="236.82993" cy="229.66798" r="9.39319" gradientUnits="userSpaceOnUse" id="color-42"><stop offset="0" stop-color="#370000"/><stop offset="1" stop-color="#000000"/></radialGradient><radialGradient cx="230.79528" cy="219.72711" r="8.6913" gradientUnits="userSpaceOnUse" id="color-43"><stop offset="0" stop-color="#370000"/><stop offset="1" stop-color="#000000"/></radialGradient><radialGradient cx="240.71796" cy="223.94494" r="7.64344" gradientUnits="userSpaceOnUse" id="color-44"><stop offset="0" stop-color="#370000"/><stop offset="1" stop-color="#000000"/></radialGradient><radialGradient cx="236.9426" cy="218.44189" r="5.75235" gradientUnits="userSpaceOnUse" id="color-45"><stop offset="0" stop-color="#370000"/><stop offset="1" stop-color="#000000"/></radialGradient><radialGradient cx="236.05975" cy="222.51742" r="2.80581" gradientUnits="userSpaceOnUse" id="color-46"><stop offset="0" stop-color="#ff0000"/><stop offset="1" stop-color="#000000"/></radialGradient><linearGradient x1="139.0037" y1="392.92" x2="209.7039" y2="409.9362" gradientUnits="userSpaceOnUse" id="color-1-,0,0,1,-128.98785,1.89604"><stop offset="0" stop-color="#000000"/><stop offset="1" stop-color="#0e0e0e"/></linearGradient><linearGradient x1="169.194" y1="422.1137" x2="166.7104" y2="432.4329" gradientUnits="userSpaceOnUse" id="color-2-,0,0,1,-128.98785,1.89604"><stop offset="0" stop-color="#000000"/><stop offset="1" stop-color="#666666"/></linearGradient><linearGradient x1="158.7248" y1="384.5887" x2="149.9692" y2="420.9671" gradientUnits="userSpaceOnUse" id="color-3-,0,0,1,-128.98785,1.89604"><stop offset="0" stop-color="#151515"/><stop offset="1" stop-color="#212121"/></linearGradient><linearGradient x1="186.9837" y1="394.5813" x2="183.2502" y2="410.0936" gradientUnits="userSpaceOnUse" id="color-4-,0,0,1,-128.98785,1.89604"><stop offset="0" stop-color="#292929"/><stop offset="1" stop-color="#292929"/></linearGradient><linearGradient x1="22.7483" y1="327.2524" x2="67.2984" y2="381.2558" gradientUnits="userSpaceOnUse" id="color-5-,0,0,1,-128.98785,1.89604"><stop offset="0" stop-color="#000000"/><stop offset="1" stop-color="#0e0e0e"/></linearGradient><linearGradient x1="28.3867" y1="367.8753" x2="20.741" y2="374.1827" gradientUnits="userSpaceOnUse" id="color-6-,0,0,1,-128.98785,1.89604"><stop offset="0" stop-color="#000000"/><stop offset="1" stop-color="#666666"/></linearGradient><linearGradient x1="28.6032" y1="341.514" x2="37.8931" y2="352.7751" gradientUnits="userSpaceOnUse" id="color-7-,0,0,1,-128.98785,1.89604"><stop offset="0" stop-color="#151515"/><stop offset="1" stop-color="#212121"/></linearGradient><linearGradient x1="159.9216" y1="187.6586" x2="159.9216" y2="234.9574" gradientUnits="userSpaceOnUse" id="color-8-,0,0,1,-128.98785,1.89604"><stop offset="0" stop-color="#ffffff"/><stop offset="1" stop-color="#cccccc"/></linearGradient><radialGradient cx="83.9045" cy="226.4985" r="3.1997" gradientUnits="userSpaceOnUse" id="color-9-,0,0,1,-128.98785,1.89604"><stop offset="0" stop-color="#cccccc"/><stop offset="1" stop-color="#7f7f7f"/></radialGradient><radialGradient cx="81.6348" cy="228.9918" r="2.7649" gradientUnits="userSpaceOnUse" id="color-10-,0,0,1,-128.98785,1.89604"><stop offset="0" stop-color="#cccccc"/><stop offset="1" stop-color="#7f7f7f"/></radialGradient><radialGradient cx="80.0777" cy="232.5985" r="3.4303" gradientUnits="userSpaceOnUse" id="color-11-,0,0,1,-128.98785,1.89604"><stop offset="0" stop-color="#cccccc"/><stop offset="1" stop-color="#7f7f7f"/></radialGradient><radialGradient cx="81.3914" cy="236.2596" r="3.4303" gradientUnits="userSpaceOnUse" id="color-12-,0,0,1,-128.98785,1.89604"><stop offset="0" stop-color="#cccccc"/><stop offset="1" stop-color="#7f7f7f"/></radialGradient><radialGradient cx="83.8849" cy="239.8061" r="3.2254" gradientUnits="userSpaceOnUse" id="color-13-,0,0,1,-128.98785,1.89604"><stop offset="0" stop-color="#cccccc"/><stop offset="1" stop-color="#7f7f7f"/></radialGradient><radialGradient cx="84.9495" cy="243.7245" r="2.9699" gradientUnits="userSpaceOnUse" id="color-14-,0,0,1,-128.98785,1.89604"><stop offset="0" stop-color="#cccccc"/><stop offset="1" stop-color="#7f7f7f"/></radialGradient><radialGradient cx="86.0143" cy="247.0393" r="3.4049" gradientUnits="userSpaceOnUse" id="color-15-,0,0,1,-128.98785,1.89604"><stop offset="0" stop-color="#cccccc"/><stop offset="1" stop-color="#7f7f7f"/></radialGradient><radialGradient cx="86.4093" cy="251.2844" r="3.2" gradientUnits="userSpaceOnUse" id="color-16-,0,0,1,-128.98785,1.89604"><stop offset="0" stop-color="#cccccc"/><stop offset="1" stop-color="#7f7f7f"/></radialGradient><radialGradient cx="86.9816" cy="255.1113" r="2.995" gradientUnits="userSpaceOnUse" id="color-17-,0,0,1,-128.98785,1.89604"><stop offset="0" stop-color="#cccccc"/><stop offset="1" stop-color="#7f7f7f"/></radialGradient><radialGradient cx="88.5332" cy="258.7726" r="3.6347" gradientUnits="userSpaceOnUse" id="color-18-,0,0,1,-128.98785,1.89604"><stop offset="0" stop-color="#cccccc"/><stop offset="1" stop-color="#7f7f7f"/></radialGradient><radialGradient cx="91.3572" cy="261.9297" r="3.2771" gradientUnits="userSpaceOnUse" id="color-19-,0,0,1,-128.98785,1.89604"><stop offset="0" stop-color="#cccccc"/><stop offset="1" stop-color="#7f7f7f"/></radialGradient><radialGradient cx="92.8332" cy="264.9475" r="3.6099" gradientUnits="userSpaceOnUse" id="color-20-,0,0,1,-128.98785,1.89604"><stop offset="0" stop-color="#cccccc"/><stop offset="1" stop-color="#7f7f7f"/></radialGradient><radialGradient cx="87.6297" cy="220.5487" r="5.4111" gradientUnits="userSpaceOnUse" id="color-21-,0,0,1,-128.98785,1.89604"><stop offset="0" stop-color="#cccccc"/><stop offset="1" stop-color="#7f7f7f"/></radialGradient><radialGradient cx="96.7511" cy="222.8489" r="3.1997" gradientUnits="userSpaceOnUse" id="color-22-,0,0,1,-128.98785,1.89604"><stop offset="0" stop-color="#cccccc"/><stop offset="1" stop-color="#7f7f7f"/></radialGradient><radialGradient cx="98.5029" cy="226.7905" r="3.1997" gradientUnits="userSpaceOnUse" id="color-23-,0,0,1,-128.98785,1.89604"><stop offset="0" stop-color="#cccccc"/><stop offset="1" stop-color="#7f7f7f"/></radialGradient><radialGradient cx="99.2329" cy="231.17" r="3.1997" gradientUnits="userSpaceOnUse" id="color-24-,0,0,1,-128.98785,1.89604"><stop offset="0" stop-color="#cccccc"/><stop offset="1" stop-color="#7f7f7f"/></radialGradient><radialGradient cx="99.2329" cy="235.9874" r="3.1997" gradientUnits="userSpaceOnUse" id="color-25-,0,0,1,-128.98785,1.89604"><stop offset="0" stop-color="#cccccc"/><stop offset="1" stop-color="#7f7f7f"/></radialGradient><radialGradient cx="99.3787" cy="240.5129" r="3.1997" gradientUnits="userSpaceOnUse" id="color-26-,0,0,1,-128.98785,1.89604"><stop offset="0" stop-color="#cccccc"/><stop offset="1" stop-color="#7f7f7f"/></radialGradient><radialGradient cx="99.0867" cy="245.1844" r="3.1997" gradientUnits="userSpaceOnUse" id="color-27-,0,0,1,-128.98785,1.89604"><stop offset="0" stop-color="#cccccc"/><stop offset="1" stop-color="#7f7f7f"/></radialGradient><radialGradient cx="98.5029" cy="249.7098" r="3.1997" gradientUnits="userSpaceOnUse" id="color-28-,0,0,1,-128.98785,1.89604"><stop offset="0" stop-color="#cccccc"/><stop offset="1" stop-color="#7f7f7f"/></radialGradient><radialGradient cx="98.2109" cy="253.9434" r="3.1997" gradientUnits="userSpaceOnUse" id="color-29-,0,0,1,-128.98785,1.89604"><stop offset="0" stop-color="#cccccc"/><stop offset="1" stop-color="#7f7f7f"/></radialGradient><radialGradient cx="97.773" cy="258.615" r="3.1997" gradientUnits="userSpaceOnUse" id="color-30-,0,0,1,-128.98785,1.89604"><stop offset="0" stop-color="#cccccc"/><stop offset="1" stop-color="#7f7f7f"/></radialGradient><radialGradient cx="96.459" cy="263.2865" r="3.1997" gradientUnits="userSpaceOnUse" id="color-31-,0,0,1,-128.98785,1.89604"><stop offset="0" stop-color="#cccccc"/><stop offset="1" stop-color="#7f7f7f"/></radialGradient><radialGradient cx="94.8609" cy="277.9879" r="3.277" gradientUnits="userSpaceOnUse" id="color-32-,0,0,1,-128.98785,1.89604"><stop offset="0" stop-color="#cccccc"/><stop offset="1" stop-color="#7f7f7f"/></radialGradient><radialGradient cx="94.439" cy="281.7356" r="3.6099" gradientUnits="userSpaceOnUse" id="color-33-,0,0,1,-128.98785,1.89604"><stop offset="0" stop-color="#cccccc"/><stop offset="1" stop-color="#7f7f7f"/></radialGradient><radialGradient cx="95.5833" cy="285.768" r="3.1997" gradientUnits="userSpaceOnUse" id="color-34-,0,0,1,-128.98785,1.89604"><stop offset="0" stop-color="#cccccc"/><stop offset="1" stop-color="#7f7f7f"/></radialGradient><linearGradient x1="175.7575" y1="241.4002" x2="174.7034" y2="272.3646" gradientUnits="userSpaceOnUse" id="color-35-,0,0,1,-128.98785,1.89604"><stop offset="0" stop-color="#ff0000"/><stop offset="1" stop-color="#ff0000" stop-opacity="0"/></linearGradient><linearGradient x1="170.3104" y1="241.2507" x2="175.7575" y2="241.2507" gradientUnits="userSpaceOnUse" id="color-36-,0,0,1,-128.98785,1.89604"><stop offset="0" stop-color="#ff0000"/><stop offset="1" stop-color="#ff0000" stop-opacity="0"/></linearGradient><linearGradient x1="135.9971" y1="215.1365" x2="120.206" y2="214.7482" gradientUnits="userSpaceOnUse" id="color-37-,0,0,1,-128.98785,1.89604"><stop offset="0" stop-color="#7f7f7f"/><stop offset="1" stop-color="#b2b2b2"/></linearGradient><linearGradient x1="137.7735" y1="225.7602" x2="126.3865" y2="225.7602" gradientUnits="userSpaceOnUse" id="color-38-,0,0,1,-128.98785,1.89604"><stop offset="0" stop-color="#000000"/><stop offset="1" stop-color="#353935"/></linearGradient><linearGradient x1="116.5794" y1="225.7602" x2="126.7983" y2="225.7602" gradientUnits="userSpaceOnUse" id="color-39-,0,0,1,-128.98785,1.89604"><stop offset="0" stop-color="#000000"/><stop offset="1" stop-color="#353935"/></linearGradient><radialGradient cx="104.3912" cy="219.4756" r="25.6266" gradientUnits="userSpaceOnUse" id="color-40-,0,0,1,-128.98785,1.89604"><stop offset="0" stop-color="#666666"/><stop offset="1" stop-color="#000000"/></radialGradient><radialGradient cx="102.8777" cy="227.9794" r="11.0128" gradientUnits="userSpaceOnUse" id="color-41-,0,0,1,-128.98785,1.89604"><stop offset="0" stop-color="#370000"/><stop offset="1" stop-color="#000000"/></radialGradient><radialGradient cx="107.8421" cy="231.564" r="9.3932" gradientUnits="userSpaceOnUse" id="color-42-,0,0,1,-128.98785,1.89604"><stop offset="0" stop-color="#370000"/><stop offset="1" stop-color="#000000"/></radialGradient><radialGradient cx="101.8074" cy="221.6232" r="8.6913" gradientUnits="userSpaceOnUse" id="color-43-,0,0,1,-128.98785,1.89604"><stop offset="0" stop-color="#370000"/><stop offset="1" stop-color="#000000"/></radialGradient><radialGradient cx="111.7301" cy="225.841" r="7.6434" gradientUnits="userSpaceOnUse" id="color-44-,0,0,1,-128.98785,1.89604"><stop offset="0" stop-color="#370000"/><stop offset="1" stop-color="#000000"/></radialGradient><radialGradient cx="107.9547" cy="220.3379" r="5.7523" gradientUnits="userSpaceOnUse" id="color-45-,0,0,1,-128.98785,1.89604"><stop offset="0" stop-color="#370000"/><stop offset="1" stop-color="#000000"/></radialGradient><radialGradient cx="107.0719" cy="224.4135" r="2.8058" gradientUnits="userSpaceOnUse" id="color-46-,0,0,1,-128.98785,1.89604"><stop offset="0" stop-color="#ff0000"/><stop offset="1" stop-color="#000000"/></radialGradient></defs><g><g data-paper-data="{&quot;isPaintingLayer&quot;:true}" fill-rule="nonzero" stroke-linejoin="miter" stroke-miterlimit="10" stroke-dasharray="" stroke-dashoffset="0" style="mix-blend-mode: normal"><g><path d="M 165.2123 313.9874 C 171.552 306.3394 191.1164 297.8956 193.6133 307.1386 C 201.3081 335.7589 199.0795 368.6522 187.7709 395.9586 C 183.7753 405.6275 161.7651 403.7883 156.3715 394.8074 C 148.0778 380.4037 156.5469 364.2322 158.258 349.0936 C 159.6138 337.0185 157.5773 322.9183 165.2124 313.9874 Z " data-paper-data="{&quot;origRot&quot;:0}" fill="#ffffff" stroke="#000000" stroke-linecap="round" stroke-width="2.5"/><path d="M 122.8542 236.5601 L 160.5222 227.691 C 160.5222 227.691 176.285 241.598 184.1755 260.7572 C 190.1459 275.254 198.3802 306.5262 198.3802 306.5262 L 161.284 309.8073 C 161.284 309.8073 144.0521 278.2559 139.3355 272.405 C 125.1857 254.8522 122.8542 236.5601 122.8542 236.5601 Z " data-paper-data="{&quot;origRot&quot;:0}" fill="#ffffff" stroke="#000000" stroke-linecap="round" stroke-width="2.5"/><g><path d="M 133.0816 422.8181 C 131.1503 421.6233 133.1677 418.7997 133.7117 416.8597 C 136.6107 408.9968 139.0782 401.1395 142.5897 393.5913 C 144.9729 388.4729 151.5349 372.017 158.8568 365.8306 C 163.1107 362.2363 156.3744 379.9391 160.9125 384.0124 C 169.2167 391.4909 182.9413 389.9832 192.2981 395.9077 C 194.637 397.3871 186.248 408.7395 188.1841 410.9967 C 192.4678 415.9799 201.7692 414.9192 205.2155 420.4019 C 207.4873 424.0166 204.7561 429.4404 203.2115 433.5869 C 202.3321 435.9447 200.4315 438.8818 200.4315 438.8818 C 200.4315 438.8818 140.7925 427.5779 133.0817 422.8181 Z " data-paper-data="{&quot;origPos&quot;:null}" fill="url(#color-1-,0,0,1,-128.98785,1.89604)" stroke-linecap="round" stroke-width="2.5" stroke="none"/><path d="M 133.3936 423.0497 C 130.8038 420.3639 135.3063 413.9576 135.3063 413.9576 C 135.3063 413.9576 146.8737 419.3325 160.0188 423.0649 C 174.4795 427.1708 203.5556 433.4437 203.5556 433.4437 C 203.5556 433.4437 201.7892 439.3163 199.1577 439.1018 C 196.5263 438.8872 172.8548 434.3906 157.9749 430.1227 C 149.8588 427.7963 135.2846 425.0107 133.3937 423.0497 Z " data-paper-data="{&quot;origPos&quot;:null}" fill="url(#color-2-,0,0,1,-128.98785,1.89604)" stroke-linecap="round" stroke-width="2.5" stroke="none"/><g data-paper-data="{&quot;origPos&quot;:null}" stroke-linecap="butt"><g data-paper-data="{&quot;origPos&quot;:null}"><path d="M 143.3954 418.9819 C 143.3954 418.9819 149.815 410.3308 152.6158 404.2303 C 156.0216 396.8124 162.6597 385.5397 162.6597 385.5397 C 162.6597 385.5397 163.1705 385.6159 163.642 385.9574 C 164.3088 386.4403 165.0685 387.5298 165.0685 387.5298 L 147.5569 420.3865 Z " data-paper-data="{&quot;origPos&quot;:null}" fill="url(#color-3-,0,0,1,-128.98785,1.89604)" stroke-width="2.5" stroke="none"/><path d="M 155.0352 402.6086 C 155.2817 402.7706 155.1883 403.003 155.15 403.0765 C 155.1658 403.2925 155.1786 403.4995 155.1548 403.7167 C 154.926 405.8037 154.8564 406.4352 153.0232 407.3868 C 151.8532 407.9748 153.4265 408.2203 152.8094 409.5027 C 152.6824 409.7667 151.5524 410.0701 151.2782 410.2661 C 149.6402 411.4019 151.5155 412.4214 149.6858 413.7295 C 148.5434 414.5216 146.8298 414.8565 148.0234 416.5261 C 148.096 417.9954 145.8543 417.9994 144.8392 418.7251 C 144.8392 418.7251 144.5508 418.9313 144.3445 418.6429 C 144.1383 418.3544 144.4267 418.1482 144.4267 418.1482 C 145.0998 417.667 147.126 416.8712 147.4177 416.8978 C 146.0398 414.9229 147.9767 414.128 149.2733 413.1526 C 150.5358 412.25 149.2446 410.9087 150.8658 409.6892 C 151.2024 409.4485 151.9392 408.9174 152.3387 408.7319 C 151.9869 408.3895 151.4992 407.4105 152.6965 406.7574 C 153.7547 406.2081 154.3198 404.8247 154.4498 403.6395 C 154.4715 403.4415 154.4539 403.28 154.4392 403.0814 L 154.5441 402.7102 C 154.5441 402.7102 154.7389 402.4139 155.0352 402.6086 Z " data-paper-data="{&quot;origPos&quot;:null,&quot;origRot&quot;:0}" fill="#000000" stroke-width="2.5" stroke="none"/><path d="M 154.8358 404.3799 C 154.5784 404.2356 154.6553 403.9973 154.6883 403.9213 C 154.6574 403.7069 154.6301 403.5013 154.6385 403.2829 C 154.7199 401.185 154.7448 400.5502 156.5066 399.472 C 157.6323 398.8031 156.0456 398.6689 156.571 397.3462 C 156.6791 397.074 157.7849 396.6918 158.0446 396.477 C 159.5986 395.2288 157.6563 394.3438 159.3894 392.9101 C 160.4731 392.0396 162.159 391.585 160.8509 390.0035 C 160.6751 388.5429 162.9109 388.3813 163.8724 387.5859 C 163.8724 387.5859 164.1456 387.3599 164.3717 387.6331 C 164.5977 387.9064 164.3245 388.1324 164.3245 388.1324 C 163.687 388.6597 161.7218 389.5961 161.4289 389.5901 C 162.9424 391.4631 161.0663 392.3923 159.8415 393.4566 C 158.6457 394.4458 160.028 395.6929 158.4966 397.0235 C 158.1778 397.2872 157.4803 397.8689 157.0947 398.0822 C 157.4698 398.3989 158.0251 399.3411 156.8768 400.0769 C 155.8598 400.6994 155.3935 402.119 155.3472 403.3105 C 155.3395 403.5095 155.3685 403.6694 155.3971 403.8664 L 155.3186 404.244 C 155.3186 404.244 155.1452 404.5534 154.8358 404.3799 Z " data-paper-data="{&quot;origPos&quot;:null,&quot;index&quot;:null}" fill="#000000" stroke-width="2.5" stroke="none"/></g><path d="M 156.3468 388.6091 L 162.8556 385.0044 L 164.9761 386.6117 L 160.2557 391.9004 Z " data-paper-data="{&quot;origPos&quot;:null}" fill="#333333" stroke-width="2.5" stroke="none"/></g><g data-paper-data="{&quot;origPos&quot;:null}" stroke-linecap="butt"><path d="M 186.9251 409.4769 C 186.9109 409.5439 186.8907 409.6018 186.8658 409.6517 C 186.905 409.7491 186.9241 409.8792 186.9048 410.0528 C 186.8287 410.7387 186.3065 410.7327 186.3065 410.7327 C 184.209 410.7086 182.282 408.738 180.2059 408.92 C 180.0955 408.9187 179.9851 408.9175 179.8747 408.9162 L 179.3613 408.7548 C 179.2526 408.7437 179.1312 408.6893 179.0517 408.5274 C 178.992 408.4327 178.9511 408.2995 178.9691 408.1145 C 178.972 407.9308 179.0284 407.7896 179.0994 407.6842 C 179.1997 407.5049 179.3309 407.4307 179.4432 407.4027 C 180.7085 406.8484 181.9 406.1705 183.1336 405.5301 C 182.8604 405.0164 182.6187 404.492 182.4287 403.961 L 181.955 403.7939 C 181.6854 403.6988 181.5566 403.3244 181.6673 402.9577 C 181.738 402.7235 181.8893 402.5492 182.0595 402.4784 L 182.6255 402.2322 L 182.6364 402.3004 C 183.0689 402.1353 183.7423 401.6456 184.4735 401.1146 C 184.1454 400.7282 183.8283 400.3186 183.4662 400.0074 L 183.4652 400.0093 L 182.935 399.5999 C 182.7379 399.4561 182.6555 399.1344 182.7509 398.8184 C 182.8216 398.5843 182.9728 398.4099 183.1431 398.3391 L 183.709 398.0929 L 183.7493 398.3437 C 184.1198 397.9843 184.5696 397.6899 185.0607 397.4484 C 184.6408 396.7975 184.2985 396.161 184.1186 395.638 C 184.7625 393.5136 188.6667 394.6032 190.0634 396.3831 L 190.2348 396.3851 L 190.4048 396.0578 L 190.935 396.4672 C 191.1321 396.6109 191.2146 396.9327 191.1192 397.2487 C 191.0237 397.5647 190.7816 397.7719 190.544 397.7623 C 190.3986 397.7606 190.1266 397.7575 189.8924 397.7548 C 189.76 397.7533 189.6397 397.7519 189.5612 397.751 C 189.0203 397.6017 188.1367 397.9041 187.2113 398.2652 C 187.6813 398.8186 188.1452 399.2891 188.5126 399.5728 L 188.7732 399.7741 C 188.9703 399.9178 189.0528 400.2396 188.9574 400.5556 C 188.8467 400.9223 188.5383 401.1425 188.2687 401.0474 L 187.6679 400.8355 L 187.6774 400.8041 C 187.3954 401.0069 187.082 401.2102 186.7508 401.411 C 188.9439 403.3849 188.4354 404.5226 185.1803 405.9386 C 185.1369 405.9575 185.0936 405.9765 185.0504 405.9957 C 185.6549 407.0535 186.2143 408.1106 186.5764 408.5536 L 186.8151 408.8639 C 186.8151 408.8639 187.0693 408.7977 186.9252 409.4769 Z M 183.7596 406.6124 C 183.0183 406.9879 182.2904 407.3855 181.56 407.7676 C 182.9098 408.1646 184.1852 408.9715 185.5532 409.2576 C 184.9866 408.4437 184.3427 407.5526 183.7596 406.6124 Z M 186.8857 403.3813 C 186.4079 403.0158 185.8709 402.4644 185.5047 402.1187 C 184.6643 402.5714 183.8144 402.9917 183.1343 403.3426 C 183.5134 403.5962 183.9544 404.1926 184.3999 404.9014 C 184.5888 404.8129 184.7796 404.7264 184.9725 404.6425 C 185.4625 404.4293 186.2455 403.8001 186.8857 403.3813 Z M 187.474 396.6696 C 186.6377 396.4043 185.854 396.013 185.4048 395.6522 C 185.6232 396.0746 185.909 396.5334 186.2263 396.9876 C 186.6405 396.8567 187.0624 396.7525 187.474 396.6696 Z M 186.7287 399.6468 C 186.4821 399.3684 186.2298 399.0636 185.9828 398.7454 C 185.3821 398.9688 184.8219 399.141 184.3906 399.1465 C 184.7668 399.5537 185.1209 400.0012 185.5137 400.3751 C 185.9388 400.0853 186.3551 399.825 186.7286 399.6468 Z " data-paper-data="{&quot;origPos&quot;:null,&quot;origRot&quot;:0}" fill="url(#color-4-,0,0,1,-128.98785,1.89604)" stroke-width="2.5" stroke="none"/><path d="M 187.3155 412.7807 C 187.086 412.8227 186.9194 412.7735 186.7995 412.6895 L 186.8203 412.7228 C 184.0702 412.0609 181.4069 411.557 178.891 410.2435 C 174.9205 408.1705 179.769 404.3474 180.4124 401.6738 C 181.2664 398.9946 182.5064 396.6269 183.1938 393.7707 C 183.1938 393.7707 183.3563 393.0955 184.0316 393.258 C 184.7068 393.4205 184.5443 394.0958 184.5443 394.0958 C 184.0686 396.0723 181.6844 400.395 181.763 401.9989 C 181.0962 404.769 177.1224 407.7531 179.5339 409.0122 C 181.9449 410.2709 184.5036 410.7365 187.1453 411.3723 L 187.8738 411.9726 C 187.8738 411.9726 187.9987 412.6558 187.3155 412.7808 Z " data-paper-data="{&quot;origPos&quot;:null}" fill="#1a1a1a" stroke-width="2.5" stroke="none"/></g></g><g data-paper-data="{&quot;origRot&quot;:0}" stroke-linecap="round"><path d="M 198.3601 306.2743 C 200.1754 313.0132 200.2948 323.5251 193.9747 326.9539 C 184.3323 332.4207 170.7884 332.0556 160.3817 327.4458 C 155.507 325.2255 159.1473 316.7902 158.7137 311.4504 C 158.7575 306.9552 155.6384 300.69 159.2168 297.9786 C 166.3597 292.5681 176.7934 289.9796 185.2239 291.8691 C 191.8954 293.1821 196.6779 300.0403 198.3601 306.2742 Z " data-paper-data="{&quot;origPos&quot;:null}" fill="#666666" stroke="#000000" stroke-width="2.5"/><path d="M 197.4599 306.7788 C 198.9351 312.2542 199.0321 320.7949 193.8972 323.5807 C 186.063 328.0221 175.0587 327.7255 166.6036 323.9804 C 162.6431 322.1764 165.6008 315.3228 165.2482 310.9843 C 165.284 307.3322 162.7498 302.2419 165.657 300.0387 C 171.4606 295.6431 179.9375 293.5398 186.7872 295.0752 C 192.2076 296.1419 196.0934 301.7141 197.46 306.7788 Z " data-paper-data="{&quot;origPos&quot;:null}" fill="#ffffff" stroke="none" stroke-width="2.5"/></g></g><g><path d="M 180.5598 174.4769 C 173.2465 176.0108 170.2708 159.8144 172.3128 152.2653 C 175.0653 142.1139 186.2891 136.8334 192.9748 128.3749 C 200.1563 119.3161 204.0792 106.1152 214.5238 101.1445 C 221.333 97.9166 234.9492 100.1026 235.2134 107.1313 C 236.3126 120.1648 225.4231 131.4872 217.2695 141.4894 C 206.9166 154.1922 195.7249 170.6229 180.5598 174.4768 Z " data-paper-data="{&quot;origRot&quot;:0}" fill="#000000" stroke="#000000" stroke-linecap="round" stroke-width="2.5"/><g data-paper-data="{&quot;origRot&quot;:0}"><path d="M 227.1668 120.4748 C 224.2278 123.1583 217.0407 122.9482 215.9741 119.4679 C 213.3043 111.8467 218.0438 103.588 218.8489 95.7642 C 219.211 92.2651 218.2484 88.5367 218.7914 85.1932 C 219.5305 80.6501 218.8012 74.1305 222.9021 71.9834 C 227.1898 69.7233 232.6022 73.9192 236.8796 76.2493 C 240.4765 78.2105 245.0764 80.6663 246.6124 84.6429 C 247.5047 87.825 244.7358 91.1842 242.8792 93.9615 C 240.9077 96.9119 236.6647 98.0406 234.8227 101.1153 C 231.2749 107.0503 232.2587 115.7789 227.1669 120.4749 Z " fill="#ffffff" stroke="#ffffff" stroke-linecap="round" stroke-width="2.5"/><path d="M 219.5981 93.7931 C 219.5981 93.7931 214.4016 88.6961 212.9003 85.4701 C 211.4269 82.3054 210.6505 78.7006 210.5742 75.2048 C 210.7621 72.5174 211.2596 69.3268 213.2309 67.5348 C 214.8437 66.0787 217.5935 67.0786 219.7583 67.1886 C 220.4139 67.2214 221.4067 68.2648 221.4067 68.2648 " fill="none" stroke="#353935" stroke-linecap="round" stroke-width="2.5"/><path d="M 211.6156 82.0005 C 210.7862 76.881 211.3303 71.4239 214.0521 67.3213 C 215.1009 65.228 219.9777 65.2463 220.6685 67.1269 C 221.7121 70.0164 217.6203 73.129 217.8732 76.3053 C 218.0805 78.8598 220.535 80.6316 221.2363 83.1096 C 222.1436 84.8023 222.7364 86.7035 222.6437 88.6744 C 222.5886 90.0322 222.4645 91.9768 221.4579 92.5649 C 220.4515 93.1528 218.4663 92.6241 217.4866 91.6874 C 214.8066 89.1173 212.1993 85.7298 211.6156 82.0005 Z " fill="#353935" stroke="none" stroke-linecap="round" stroke-width="2.5"/><path d="M 229.3558 95.3607 C 227.042 95.0186 224.8748 93.5711 223.0146 91.6703 C 221.6854 90.6126 220.011 89.1336 220.0171 86.6862 C 220.0611 83.4268 220.7639 78.4162 223.0919 77.2481 C 226.1698 75.7119 229.0135 78.9645 231.8169 80.3023 C 235.1153 81.9156 240.177 81.7869 242.0103 85.9865 C 243.0793 88.483 239.3688 92.6829 237.1067 94.4488 C 234.7064 96.3231 231.8569 95.7608 229.3558 95.3607 Z " fill="#000000" stroke="none" stroke-linecap="round" stroke-width="2.5"/><g stroke-linecap="round"><path d="M 217.0718 81.2961 C 216.157 78.6966 218.0982 75.1043 219.0282 72.2307 C 219.939 69.4571 220.45 65.8496 222.4494 64.1949 C 224.1955 62.751 227.1703 62.9555 227.9795 64.985 C 228.9619 67.4521 227.4903 71.099 226.7035 74.0747 C 225.7116 77.2195 225.031 81.4054 222.7058 83.0681 C 220.7301 84.4815 217.7899 83.5097 217.0718 81.2961 Z " stroke-width="2.5" fill="#353935" stroke="none"/><path d="M 223.9078 83.7176 C 222.9931 81.1181 224.9343 77.5258 225.8643 74.6522 C 226.775 71.8786 227.2861 68.2711 229.2854 66.6164 C 231.0316 65.1725 234.0064 65.377 234.8156 67.4065 C 235.798 69.8736 234.3264 73.5205 233.5396 76.4962 C 232.5477 79.6411 231.8671 83.8269 229.5418 85.4896 C 227.5661 86.903 224.626 85.9312 223.9078 83.7176 Z " stroke-width="2.5" fill="#353935" stroke="none"/><path d="M 231.1436 86.2432 C 230.2288 83.6437 232.17 80.0514 233.1 77.1778 C 234.0108 74.4042 234.5218 70.7967 236.5211 69.142 C 238.2673 67.6981 241.2421 67.9026 242.0513 69.932 C 243.0337 72.3992 241.5621 76.046 240.7753 79.0218 C 239.7834 82.1666 239.1028 86.3525 236.7775 88.0152 C 234.8018 89.4286 231.8617 88.4568 231.1436 86.2432 Z " stroke-width="2.5" fill="#353935" stroke="none"/><path d="M 238.9132 87.948 C 237.9984 85.3484 239.9397 81.7561 240.8696 78.8825 C 241.7804 76.1089 242.2915 72.5014 244.2908 70.8467 C 246.037 69.4028 249.0117 69.6073 249.821 71.6368 C 250.8033 74.1039 249.3317 77.7508 248.5449 80.7266 C 247.553 83.8714 246.8725 88.0572 244.5472 89.7199 C 242.5715 91.1333 239.6314 90.1615 238.9132 87.9479 Z " stroke-width="2.5" fill="#353935" stroke="none"/></g><path d="" fill="#eac18d" stroke="none" stroke-linecap="butt" stroke-width="2.5" transform="matrix(1,0,0,1,-128.98785,1.89604)"/></g><path d="M 152.3774 98.4395 C 153.7934 93.5519 163.5736 91.5819 167.3641 95.5139 C 175.4314 103.9709 175.3643 117.6588 179.9738 128.218 C 184.8289 140.561 197.5609 151.3334 195.7173 164.3032 C 194.5885 172.1537 179.5207 176.8376 172.2995 172.3152 C 162.0627 165.7656 159.2242 151.2751 155.6996 138.9172 C 152.0004 125.9104 148.5346 111.4001 152.3774 98.4395 Z " data-paper-data="{&quot;origRot&quot;:0}" fill="#000000" stroke="#000000" stroke-linecap="round" stroke-width="2.5"/><path d="M 194.7455 167.7251 C 189.9534 171.8977 181.387 176.0757 175.0559 173.3052 C 170.3064 170.6363 169.6562 161.6507 171.9417 156.5297 C 176.3994 146.5597 188.2625 141.6993 194.3118 132.5252 C 201.0038 123.456 201.8878 110.5188 209.784 102.3443 C 213.5994 98.4103 221.0466 99.3506 226.2115 101.1967 C 230.2589 102.6476 235.6134 107.0657 235.4954 111.7305 C 235.3366 117.9814 230.6433 123.6665 226.7879 128.7153 C 216.6789 141.9655 207.4141 156.678 194.7456 167.7251 Z " data-paper-data="{&quot;origRot&quot;:0}" fill="#ffffff" stroke="none" stroke-linecap="round" stroke-width="2.5"/><path d="M 151.5811 100.1181 C 152.7729 95.1116 161.7512 88.7645 165.0629 92.5496 C 172.5281 101.0934 169.5407 114.9413 174.1298 125.4965 C 179.1564 138.346 193.8564 148.4609 193.7415 162.3571 C 193.6731 169.9034 179.3766 176.6455 173.2957 171.9178 C 161.8214 163.8812 158.9534 147.805 154.7431 133.999 C 151.4435 123.1602 148.9865 111.0227 151.5811 100.1181 Z " data-paper-data="{&quot;origRot&quot;:0}" fill="#ffffff" stroke="none" stroke-linecap="round" stroke-width="2.5"/></g><path d="M 92.3906 224.7117 C 92.3906 224.7117 127.3751 203.242 135.4356 220.8463 C 143.4963 238.4506 145.9698 290.1169 136.7055 321.4958 C 133.74 331.5325 112.8377 332.6254 105.3539 325.2317 C 96.3049 315.8498 99.648 304.3544 99.648 304.3544 C 99.648 304.3544 98.9527 275.1455 97.4505 263.6595 C 95.1718 245.7698 92.3905 224.7117 92.3905 224.7117 Z " data-paper-data="{&quot;origRot&quot;:0}" fill="#ffffff" stroke="#000000" stroke-linecap="round" stroke-width="2.5"/><path d="M 122.0242 311.5167 C 130.541 314.1235 139.891 330.5733 132.7775 336.7103 C 112.2264 354.4172 83.9235 365.1315 56.8365 366.2395 C 46.1637 366.6717 32.6609 348.6933 37.6235 339.5086 C 44.7064 326.4477 65.5092 325.4898 80.2041 320.4678 C 93.287 316.0338 108.2265 307.2295 122.0242 311.5167 Z " data-paper-data="{&quot;origRot&quot;:0}" fill="#ffffff" stroke="#000000" stroke-linecap="round" stroke-width="2.5"/><g data-paper-data="{&quot;origRot&quot;:0}"><path d="M 0.0068 347.102 C -0.2773 344.7917 8.3777 340.16 12.0896 338.6437 C 20.1852 335.3338 28.7802 331.8083 37.2437 329.807 C 45.6382 327.8228 55.9143 323.6289 62.5988 326.4019 C 65.3415 327.5385 50.7448 331.8853 51.6159 336.7797 C 53.5739 347.7513 65.5333 354.3155 69.477 365.0854 C 70.463 367.7768 55.7283 371.1042 54.4863 374.5974 C 53.0878 378.5882 58.3775 382.9292 57.2657 387.017 C 56.1095 391.2693 51.8389 393.8919 48.5205 396.6469 C 46.8352 398.0111 42.3017 398.6911 42.3017 398.6911 C 42.3017 398.6911 23.0917 377.7155 14.3821 366.1782 C 9.6308 359.8864 0.3174 349.6269 0.0069 347.1021 Z " data-paper-data="{&quot;origPos&quot;:null}" fill="url(#color-5-,0,0,1,-128.98785,1.89604)" stroke-linecap="round" stroke-width="2.5" stroke="none"/><path d="M 0.3829 347.5579 C -0.0424 344.0998 6.9137 341.8458 6.9137 341.8458 C 6.9137 341.8458 12.5297 352.35 20.2452 362.5139 C 28.7328 373.695 48.432 396.5397 48.432 396.5397 C 48.432 396.5397 42.9728 398.9073 41.1294 397.2701 C 39.2859 395.6329 23.4677 378.1713 14.7582 366.634 C 10.0068 360.3422 0.6934 350.0828 0.3829 347.5579 Z " data-paper-data="{&quot;origPos&quot;:null}" fill="url(#color-6-,0,0,1,-128.98785,1.89604)" stroke-linecap="round" stroke-width="2.5" stroke="none"/><g data-paper-data="{&quot;origPos&quot;:null}" stroke-linecap="butt"><g data-paper-data="{&quot;origPos&quot;:null}"><path d="M 13.5601 353.9239 C 13.5601 353.9239 24.5586 350.671 30.8457 347.2726 C 38.4906 343.1402 51.3527 337.7966 51.3527 337.7966 C 51.3527 337.7966 51.7386 338.1883 51.9213 338.7806 C 52.1796 339.6182 52.1287 341.0314 52.1287 341.0314 L 16.2022 357.7821 Z " data-paper-data="{&quot;origPos&quot;:null}" fill="url(#color-7-,0,0,1,-128.98785,1.89604)" stroke-width="2.5" stroke="none"/><path d="M 33.9421 347.4408 C 34.0482 347.7365 33.82 347.8744 33.7404 347.9124 C 33.6156 348.1064 33.494 348.2907 33.3347 348.4603 C 31.8045 350.0896 31.3412 350.5825 29.1724 350.219 C 27.8005 349.9707 28.9821 351.1864 27.6364 351.8826 C 27.3594 352.0259 26.2038 351.561 25.845 351.5523 C 23.7245 351.4705 24.6676 353.538 22.2737 353.4802 C 20.7948 353.4231 19.1224 352.6115 19.0696 354.7959 C 18.1911 356.0926 16.2811 354.6614 14.953 354.6293 C 14.953 354.6293 14.5756 354.6202 14.5847 354.2428 C 14.5938 353.8653 14.9712 353.8744 14.9712 353.8744 C 15.8518 353.8957 18.0852 354.5152 18.3164 354.7245 C 18.4077 352.1624 20.5644 352.7256 22.292 352.7254 C 23.9437 352.7653 23.7035 350.7977 25.8633 350.7975 C 26.3037 350.8081 27.2705 350.8276 27.7293 350.9254 C 27.649 350.409 27.8605 349.2639 29.2972 349.4743 C 30.5492 349.6841 31.9153 348.8687 32.7843 347.9434 C 32.9295 347.7888 33.0179 347.6401 33.1325 347.4617 L 33.4593 347.213 C 33.4593 347.213 33.8146 347.0855 33.9422 347.4408 Z " data-paper-data="{&quot;origPos&quot;:null,&quot;origRot&quot;:0}" fill="#000000" stroke-width="2.5" stroke="none"/><path d="M 32.6389 348.8205 C 32.5123 348.533 32.7302 348.3794 32.8069 348.3358 C 32.9178 348.1336 33.0261 347.9412 33.173 347.7608 C 34.5848 346.0279 35.0123 345.5037 37.2013 345.7136 C 38.5872 345.8648 37.323 344.7353 38.6164 343.946 C 38.8826 343.7836 40.0681 344.1661 40.4265 344.1494 C 42.5476 344.0819 41.4613 342.0858 43.8534 341.975 C 45.3326 341.9279 47.058 342.6199 46.9569 340.4371 C 47.7421 339.0818 49.7479 340.3751 51.0751 340.3136 C 51.0751 340.3136 51.4522 340.2961 51.4697 340.6733 C 51.4872 341.0505 51.11 341.0679 51.11 341.0679 C 50.23 341.1086 47.9587 340.6478 47.7134 340.4553 C 47.8025 343.0175 45.6115 342.6076 43.8883 342.7293 C 42.2378 342.8058 42.6159 344.7515 40.4614 344.9037 C 40.0214 344.9241 39.0556 344.9726 38.5911 344.9074 C 38.7075 345.4169 38.577 346.574 37.1291 346.4652 C 35.8655 346.344 34.5602 347.2535 33.7584 348.2377 C 33.6245 348.4021 33.5468 348.5567 33.445 348.7427 L 33.1365 349.0138 C 33.1365 349.0138 32.791 349.166 32.6388 348.8205 Z " data-paper-data="{&quot;origPos&quot;:null,&quot;index&quot;:null}" fill="#000000" stroke-width="2.5" stroke="none"/></g><path d="M 44.017 336.3684 L 51.862 337.4665 L 52.6376 340.1911 L 45.2367 341.6704 Z " data-paper-data="{&quot;origPos&quot;:null}" fill="#333333" stroke-width="2.5" stroke="none"/></g><g data-paper-data="{&quot;origPos&quot;:null}" stroke-linecap="butt"><path d="M 54.796 374.071 C 54.7418 374.1183 54.6882 374.1541 54.6358 374.1803 C 54.6072 374.2869 54.541 374.4082 54.4152 374.5418 C 53.918 375.0699 53.4832 374.735 53.4832 374.735 C 51.7367 373.3898 51.363 370.5174 49.5043 369.3588 C 49.4124 369.288 49.3205 369.2172 49.2285 369.1464 L 48.8993 368.6866 C 48.815 368.6085 48.7473 368.4862 48.7829 368.3 C 48.7926 368.1828 48.8424 368.045 48.9743 367.901 C 49.0928 367.7485 49.2294 367.6656 49.3556 367.622 C 49.553 367.5348 49.7101 367.5554 49.8221 367.6027 C 51.235 367.9365 52.664 368.1198 54.1046 368.3611 C 54.1996 367.7571 54.3278 367.164 54.5037 366.5979 L 54.2114 366.1584 C 54.045 365.9082 54.1733 365.5124 54.498 365.2743 C 54.7053 365.1223 54.9425 365.0714 55.1302 365.1195 L 55.7611 365.2702 L 55.7272 365.3343 C 56.1947 365.4689 57.0696 365.4829 58.0192 365.4989 C 57.9878 364.9671 57.9801 364.4227 57.8726 363.9327 L 57.8706 363.9336 L 57.6838 363.2549 C 57.609 363.0096 57.743 362.6873 58.0228 362.4821 C 58.23 362.3301 58.4672 362.2792 58.655 362.3273 L 59.2858 362.478 L 59.1613 362.714 C 59.6994 362.6462 60.2632 362.683 60.8282 362.7905 C 60.8868 361.9785 61.0013 361.2277 61.1806 360.6749 C 63.0633 359.2973 65.6542 362.6787 65.7029 365.0559 L 65.8457 365.1658 L 66.1952 364.9983 L 66.382 365.6771 C 66.4567 365.9223 66.3227 366.2446 66.043 366.4498 C 65.7632 366.6549 65.4289 366.676 65.2354 366.5179 C 65.1144 366.4246 64.8879 366.2502 64.6929 366.1 C 64.5826 366.0151 64.4824 365.9379 64.417 365.8876 C 64.0571 365.4205 63.124 365.1163 62.1186 364.835 C 62.1637 365.5968 62.2562 366.285 62.3856 366.7552 L 62.4774 367.0889 C 62.5521 367.3342 62.4181 367.6565 62.1384 367.8617 C 61.8137 368.0997 61.4157 368.0899 61.2493 367.8398 L 60.8785 367.2823 L 60.9063 367.2619 C 60.5413 367.2541 60.1497 367.2268 59.7447 367.1863 C 60.3397 370.2296 59.194 370.8639 55.5656 369.9971 C 55.5172 369.9855 55.4688 369.9741 55.4204 369.9629 C 55.2599 371.2333 55.062 372.4745 55.0863 373.0753 L 55.0908 373.4867 C 55.0908 373.4867 55.346 373.5917 54.796 374.0711 Z M 53.9466 369.6653 C 53.0868 369.5124 52.2243 369.3867 51.3695 369.2462 C 52.2524 370.4323 52.814 371.9156 53.7822 373.0201 C 53.8205 371.9786 53.8425 370.8234 53.9466 369.6654 Z M 58.6133 368.9263 C 58.4429 368.3175 58.3402 367.5152 58.251 366.9935 C 57.2591 366.8428 56.2798 366.659 55.487 366.5241 C 55.6452 366.9766 55.6388 367.756 55.5652 368.6328 C 55.7798 368.6778 55.9946 368.7257 56.2096 368.7771 C 56.7559 368.9076 57.811 368.8737 58.6132 368.9263 Z M 63.347 363.6607 C 62.8122 362.9096 62.4011 362.0859 62.2517 361.4991 C 62.1684 361.9919 62.1185 362.5578 62.0982 363.1397 C 62.5288 363.2914 62.9489 363.4704 63.3471 363.6608 Z M 60.8405 365.6905 C 60.8092 365.3009 60.7898 364.8855 60.7834 364.4623 C 60.1378 364.2704 59.5584 364.0612 59.1927 363.7934 C 59.2515 364.3729 59.2662 364.9725 59.3599 365.5347 C 59.9 365.5599 60.4141 365.6042 60.8405 365.6904 Z " data-paper-data="{&quot;origPos&quot;:null,&quot;origRot&quot;:0}" fill="#292929" stroke-width="2.5" stroke="none"/><path d="M 53.0368 377.0924 C 52.8175 376.9827 52.7087 376.8361 52.661 376.6899 L 52.6575 376.7309 C 50.7657 374.4378 48.8471 372.3323 47.5637 369.6398 C 45.5384 365.3905 52.0256 365.2422 54.2549 363.4031 C 56.6646 361.6922 59.2017 360.4869 61.5833 358.5222 C 61.5833 358.5222 62.1463 358.0577 62.6108 358.6208 C 63.0753 359.1839 62.5123 359.6483 62.5123 359.6483 C 60.8642 361.0079 56.1311 363.1326 55.1839 364.5293 C 52.874 366.4348 47.6514 366.4309 48.8815 369.0116 C 50.1114 371.5919 51.9664 373.5992 53.7836 375.8019 L 54.0162 376.7663 C 54.0162 376.7663 53.6896 377.4191 53.0368 377.0924 Z " data-paper-data="{&quot;origPos&quot;:null}" fill="#1a1a1a" stroke-width="2.5" stroke="none"/></g></g><g data-paper-data="{&quot;origRot&quot;:0}" stroke-linecap="round"><path d="M 139.5298 318.4394 C 138.4612 325.3361 134.3141 334.9962 127.1472 335.5724 C 116.1169 336.6671 103.8805 330.8497 96.2316 322.4212 C 92.6732 318.4171 99.4172 312.1781 101.1827 307.12 C 103.0426 303.0274 102.7273 296.0358 107.0971 295.0055 C 115.8191 292.9504 126.4072 294.8078 133.3508 299.949 C 138.9195 303.8508 140.5158 312.0581 139.5298 318.4393 Z " data-paper-data="{&quot;origPos&quot;:null}" fill="#666666" stroke="#000000" stroke-width="2.5"/><path d="M 137.9349 318.0861 C 137.0669 323.6899 133.6975 331.5385 127.8744 332.0067 C 118.9126 332.8961 108.971 328.1695 102.7561 321.3213 C 99.8651 318.0681 105.3023 312.9831 106.7787 308.8896 C 108.248 305.5484 108.0297 299.8623 111.5842 299.047 C 118.6549 297.4246 127.2198 298.8736 132.9149 303.0635 C 137.3762 306.2118 138.7361 312.9016 137.9349 318.0862 Z " data-paper-data="{&quot;origPos&quot;:null}" fill="#ffffff" stroke="none" stroke-width="2.5"/></g><g><path d="M 92.1174 227.9683 C 92.1174 227.9683 93.2587 194.9276 91.1442 173.9542 C 89.6844 159.4739 80.0442 120.8022 92.1174 91.2299 C 104.1907 61.6576 164.3947 73.8925 170.4622 90.2567 C 176.5297 106.6209 167.8808 160.855 167.0559 172.981 C 165.5961 194.4405 165.1094 227.9683 165.1094 227.9683 Z " data-paper-data="{&quot;origPos&quot;:null}" fill="#000000" stroke="none" stroke-linecap="butt" stroke-width="2.5"/><path d="M 89.2493 101.7319 C 91.0154 93.0745 93.8374 83.1897 101.3351 84.6145 C 108.8328 86.0393 119.2232 91.2105 124.0669 97.044 C 127.0742 100.6791 129.0537 127.1255 123.7749 132.0802 C 119.0684 136.7984 91.1679 137.5167 89.3227 133.2481 C 85.3344 123.9664 87.0278 112.6209 89.2493 101.7319 Z " data-paper-data="{&quot;origPos&quot;:null,&quot;index&quot;:null}" fill="#ffffff" stroke="#000000" stroke-linecap="round" stroke-width="2.5"/><path d="M 172.205 134.0824 C 170.3598 138.3509 142.4593 137.6327 137.7528 132.9145 C 132.474 127.9598 134.4535 101.5133 137.4608 97.8783 C 142.3045 92.0448 152.6949 86.8736 160.1926 85.4488 C 167.6903 84.024 170.5122 93.9088 172.2784 102.5661 C 174.4999 113.4552 176.1933 124.8007 172.205 134.0824 Z " data-paper-data="{&quot;origPos&quot;:null}" fill="#ffffff" stroke="#000000" stroke-linecap="round" stroke-width="2.5"/><path d="M 167.1581 144.5096 C 171.3478 150.8628 168.6062 159.8409 167.742 167.4291 C 166.9216 172.3167 166.1858 178.41 162.1946 181.2976 C 158.3406 184.1063 135.4912 182.6115 131.5379 178.6699 C 128.1628 175.3736 128.8489 149.0001 133.5817 144.0717 C 137.5087 139.7214 164.1391 139.9374 167.158 144.5096 Z " data-paper-data="{&quot;origPos&quot;:null}" fill="#ffffff" stroke="#000000" stroke-linecap="round" stroke-width="2.5"/><path d="M 125.1565 143.759 C 128.336 148.6728 128.6602 174.3543 124.8646 178.7952 C 121.8631 182.2346 98.0181 181.2798 93.77 177.3353 C 88.9145 172.8273 89.1393 164.6873 88.3686 158.0654 C 88.0036 152.0742 85.373 143.3094 90.4123 140.1094 C 96.9933 135.9342 123.0982 140.5444 125.1565 143.759 Z " data-paper-data="{&quot;origPos&quot;:null}" fill="#ffffff" stroke="#000000" stroke-linecap="round" stroke-width="2.5"/><path d="M 156.6124 230.5779 L 93.7906 228.5341 L 93.9853 187.6586 L 159.9214 189.4104 Z " data-paper-data="{&quot;origPos&quot;:null}" fill="url(#color-8-,0,0,1,-128.98785,1.89604)" stroke="#000000" stroke-linecap="round" stroke-width="2.5"/><g><path d="M 152.3871 96.9981 L 157.213 97.2224 L 156.5395 104.6296 L 163.61 104.8542 L 163.61 109.1189 L 156.4273 108.5578 L 156.4273 130.667 L 151.938 130.4428 L 152.2747 108.3332 L 145.2041 108.5577 L 145.2041 104.8541 L 152.6113 105.0787 Z " stroke-linecap="round" stroke-width="2.5" fill="#000000" stroke="none"/><g stroke-linecap="butt"><path d="M 164.1019 130.2254 C 164.1019 130.5434 163.9959 130.6847 163.7839 130.6847 C 162.2292 130.7554 160.6747 130.7907 159.12 130.8613 C 159.014 130.8613 158.9434 130.8613 158.8727 130.8613 C 158.8727 130.5787 158.8374 130.3668 158.8374 130.1195 C 158.8374 130.0135 158.9434 129.8722 159.0494 129.8722 C 159.2967 129.8015 159.544 129.7662 159.8266 129.6955 C 160.2859 129.5892 160.3565 129.4833 160.3565 129.024 C 160.3565 128.0348 160.4272 127.01 160.3918 126.0208 C 160.3565 124.5368 160.2505 123.0173 160.2152 121.5333 C 160.2152 120.6854 160.2858 119.8725 160.2858 119.0247 C 160.2858 118.4238 160.2858 117.7879 160.2505 117.152 C 160.1445 117.3993 160.0336 117.646 159.8972 117.8939 C 159.3513 118.9181 158.7586 119.7327 158.1659 120.6323 C 157.6824 121.3733 157.0608 121.8661 156.5936 122.5403 C 156.1808 123.1403 155.7913 123.735 155.3215 124.2717 C 154.9796 124.6571 154.803 125.6906 154.3852 125.3846 C 152.5592 123.8988 151.7814 122.0944 150.4278 120.4734 C 149.6296 119.4956 148.7114 118.5459 147.9193 117.5759 C 147.7213 117.3342 147.7779 117.364 147.7426 117.258 L 147.672 117.258 C 147.672 117.9645 147.672 118.6714 147.672 119.378 C 147.7073 121.074 147.7426 122.8054 147.7426 124.5014 C 147.7426 125.7732 147.672 127.0807 147.6366 128.3528 C 147.6366 128.6707 147.672 128.9887 147.7073 129.3066 C 147.7426 129.5539 147.9546 129.6955 148.2019 129.7308 C 148.3785 129.7662 148.5198 129.7662 148.6965 129.7662 C 148.9438 129.7662 148.9791 129.9075 148.9438 130.0841 C 148.9085 130.2961 148.9085 130.4727 148.9085 130.6847 C 148.9085 130.8613 148.8025 130.8613 148.6612 130.8613 C 148.0606 130.8967 147.4597 130.932 146.8945 130.932 C 146.2586 130.9673 145.6577 130.9673 145.0218 131.0027 C 144.8098 131.0027 144.7038 130.9673 144.7391 130.72 C 144.7745 130.5081 144.7391 130.2961 144.7391 130.1195 C 144.7391 129.9075 144.8451 129.8368 145.0571 129.8015 C 145.3397 129.7662 145.6224 129.7308 145.8699 129.6246 C 145.9406 129.5893 146.0466 129.4479 146.0466 129.3773 C 146.0819 128.5647 146.0819 127.7166 146.1172 126.904 C 146.1526 126.0208 146.2232 125.1373 146.2586 124.2188 C 146.2586 123.9712 146.2586 123.6886 146.2232 123.4413 C 146.1173 122.5934 146.1526 121.7099 146.1526 120.7914 C 146.1526 119.4486 146.1173 118.1412 146.1173 116.7987 C 146.1173 116.3392 146.1173 115.8446 146.0819 115.3853 C 146.0113 115.0674 145.7993 114.926 145.4811 114.926 C 145.4458 114.926 145.4104 114.926 145.4104 114.926 C 144.7745 114.8907 144.6685 114.7138 144.8098 114.1132 C 144.8098 114.0425 144.9512 113.9366 145.0218 113.9366 C 145.3044 113.9366 145.5871 113.9366 145.87 113.9366 C 146.7179 113.9719 147.566 113.9366 148.3786 113.9366 C 148.8379 113.9366 148.8869 114.2002 149.0851 114.4312 C 150.0115 115.4598 150.5172 116.4259 151.2229 117.47 C 152.1765 118.7029 153.055 120.0107 154.0673 121.2682 C 154.3207 121.5829 154.1023 121.5578 154.3852 121.2682 C 155.7277 119.9254 157.0106 118.5024 158.1659 117.152 C 158.787 116.4291 159.1773 115.5173 159.8266 114.8198 C 160.1134 114.5117 160.2859 114.0779 160.8515 114.0779 C 161.8406 114.1132 162.8655 114.0779 163.8546 114.1132 C 164.0666 114.1132 164.1373 114.2192 164.1373 114.4311 C 164.1373 114.9614 164.1373 114.9613 163.572 114.9967 C 163.0068 114.9967 162.8301 114.8551 162.8301 115.7033 C 162.8301 116.4098 162.8301 117.0813 162.8654 117.7879 C 162.8654 118.0352 162.9008 118.2825 162.9008 118.5298 C 162.9008 119.7313 162.9008 120.8974 162.9008 122.0985 C 162.9008 123.6179 162.8654 125.102 162.8654 126.6214 C 162.8654 127.4693 162.8301 128.3175 162.7948 129.2007 C 162.7948 129.6602 162.9008 129.8369 163.36 129.8722 C 163.5014 129.8722 163.6427 129.9428 163.784 129.9075 C 164.1019 129.8368 164.1019 130.0488 164.1019 130.2255 Z " stroke-width="2.5" fill="#000000" stroke="none"/></g></g><g><g><path d="M 96.4831 289.2348 C 96.4831 289.2348 96.7675 289.6905 96.8104 289.5621 C 96.9313 289.1995 96.8466 288.6873 96.8104 288.2532 C 96.7917 288.0292 96.6837 287.8202 96.6469 287.5986 C 96.5745 287.1653 96.5821 286.7177 96.4831 286.2897 C 96.4171 286.0039 96.2749 285.7396 96.1558 285.4716 C 96.0571 285.2491 95.9056 285.0482 95.8288 284.817 C 95.6866 284.3907 95.5015 283.9575 95.5015 283.5081 C 95.5015 282.3589 95.7371 281.2179 95.8288 280.0722 C 95.8515 279.7858 95.7897 279.632 95.8288 279.4177 C 95.8997 279.0273 96.0848 278.6626 96.1558 278.2723 C 96.1949 278.058 96.1447 277.8632 96.1558 277.618 C 96.2005 276.6364 96.3196 274.6726 96.3196 274.6726 " fill="none" stroke="#7f7f7f" stroke-linecap="round" stroke-width="2.5"/><path d="M 94.9171 269.649 C 93.6736 268.9033 93.6523 264.0146 92.222 261.5638 C 91.4693 260.2719 89.2608 260.2234 88.6284 258.8686 C 87.0635 255.516 86.6594 251.7157 85.9333 248.088 C 85.4609 245.7237 85.7969 243.1885 85.0349 240.9012 C 84.5625 239.4817 82.8124 238.7269 82.34 237.3077 C 81.578 235.0204 81.0104 232.4943 81.4416 230.1206 C 81.6679 228.8719 83.2384 228.3238 84.1365 227.4254 C 85.0349 226.5271 86.0933 225.7636 86.8317 224.7303 C 87.6097 223.6415 87.6007 221.994 88.6284 221.137 C 89.5753 220.3481 90.9896 220.2386 92.222 220.2386 C 93.4547 220.2386 94.8687 220.3481 95.8155 221.137 C 96.8432 221.994 97.014 223.5338 97.6123 224.7303 C 98.2105 225.9271 99.1629 227.0088 99.4091 228.3238 C 100.0721 231.8654 100.3075 235.5019 100.3075 239.1045 C 100.3075 241.5155 99.8061 243.9126 99.4091 246.2913 C 99.2059 247.5079 98.5877 248.6542 98.5107 249.8848 C 98.2861 253.4675 98.9562 257.1025 98.5107 260.6654 C 98.3454 261.9933 97.2117 263.0172 96.7139 264.259 C 96.0114 266.016 95.8155 270.1882 94.9171 269.649 Z " fill="none" stroke="#7f7f7f" stroke-linecap="round" stroke-width="2.5"/><path d="M 85.8749 225.9259 C 86.1783 226.2287 86.3657 226.6471 86.3657 227.109 C 86.3657 227.5712 86.1783 227.9893 85.8749 228.2923 C 85.5722 228.5954 85.1541 228.7828 84.6919 228.7828 C 84.23 228.7828 83.8116 228.5954 83.5088 228.2923 C 83.2055 227.9893 83.018 227.5712 83.018 227.109 C 83.018 226.6471 83.2055 226.2287 83.5088 225.9259 C 83.8116 225.6226 84.23 225.4351 84.6919 225.4351 C 85.154 225.4351 85.5722 225.6226 85.8749 225.9259 Z " fill="url(#color-9-,0,0,1,-128.98785,1.89604)" stroke="none" stroke-linecap="butt" stroke-width="2.5"/><path d="M 82.9553 228.2617 C 83.2586 228.5644 83.4461 228.9828 83.4461 229.4447 C 83.4461 229.9069 83.2586 230.325 82.9553 230.6281 C 82.6525 230.9311 82.2344 231.1185 81.7722 231.1185 C 81.3103 231.1185 80.8919 230.9311 80.5891 230.6281 C 80.2858 230.325 80.0983 229.9069 80.0983 229.4447 C 80.0983 228.9828 80.2858 228.5644 80.5891 228.2617 C 80.8919 227.9583 81.3103 227.7708 81.7722 227.7708 C 82.2344 227.7708 82.6525 227.9583 82.9553 228.2617 Z " fill="url(#color-10-,0,0,1,-128.98785,1.89604)" stroke="none" stroke-linecap="butt" stroke-width="2.5"/><path d="M 82.2253 232.2032 C 82.5287 232.506 82.7161 232.9244 82.7161 233.3863 C 82.7161 233.8484 82.5287 234.2665 82.2253 234.5696 C 81.9226 234.8727 81.5045 235.0601 81.0423 235.0601 C 80.5804 235.0601 80.162 234.8727 79.8592 234.5696 C 79.5558 234.2665 79.3684 233.8484 79.3684 233.3863 C 79.3684 232.9244 79.5558 232.506 79.8592 232.2032 C 80.162 231.8998 80.5804 231.7124 81.0423 231.7124 C 81.5044 231.7124 81.9226 231.8998 82.2253 232.2032 Z " fill="url(#color-11-,0,0,1,-128.98785,1.89604)" stroke="none" stroke-linecap="butt" stroke-width="2.5"/><path d="M 83.5393 235.7068 C 83.8427 236.0096 84.0301 236.4279 84.0301 236.8898 C 84.0301 237.352 83.8427 237.7701 83.5393 238.0732 C 83.2365 238.3762 82.8184 238.5637 82.3562 238.5637 C 81.8944 238.5637 81.476 238.3762 81.1732 238.0732 C 80.8698 237.7701 80.6824 237.352 80.6824 236.8898 C 80.6824 236.428 80.8698 236.0096 81.1732 235.7068 C 81.476 235.4034 81.8944 235.216 82.3562 235.216 C 82.8184 235.216 83.2365 235.4034 83.5393 235.7068 Z " fill="url(#color-12-,0,0,1,-128.98785,1.89604)" stroke="none" stroke-linecap="butt" stroke-width="2.5"/><path d="M 85.8749 238.9185 C 86.1783 239.2212 86.3657 239.6396 86.3657 240.1015 C 86.3657 240.5637 86.1783 240.9818 85.8749 241.2849 C 85.5722 241.5879 85.1541 241.7754 84.6919 241.7754 C 84.23 241.7754 83.8116 241.5879 83.5088 241.2849 C 83.2055 240.9818 83.018 240.5637 83.018 240.1015 C 83.018 239.6396 83.2055 239.2212 83.5088 238.9185 C 83.8116 238.6151 84.23 238.4277 84.6919 238.4277 C 85.154 238.4277 85.5722 238.6151 85.8749 238.9185 Z " fill="url(#color-13-,0,0,1,-128.98785,1.89604)" stroke="none" stroke-linecap="butt" stroke-width="2.5"/><path d="M 86.6048 243.152 C 86.9082 243.4548 87.0957 243.8731 87.0957 244.335 C 87.0957 244.7972 86.9082 245.2153 86.6048 245.5184 C 86.3021 245.8214 85.884 246.0089 85.4218 246.0089 C 84.9599 246.0089 84.5415 245.8214 84.2387 245.5184 C 83.9354 245.2153 83.7479 244.7972 83.7479 244.335 C 83.7479 243.8732 83.9354 243.4548 84.2387 243.152 C 84.5415 242.8486 84.9599 242.6612 85.4218 242.6612 C 85.884 242.6612 86.3021 242.8486 86.6048 243.152 Z " fill="url(#color-14-,0,0,1,-128.98785,1.89604)" stroke="none" stroke-linecap="butt" stroke-width="2.5"/><path d="M 87.3348 246.8016 C 87.6381 247.1044 87.8256 247.5228 87.8256 247.9847 C 87.8256 248.4468 87.6381 248.8649 87.3348 249.168 C 87.032 249.4711 86.6139 249.6585 86.1517 249.6585 C 85.6898 249.6585 85.2714 249.4711 84.9687 249.168 C 84.6653 248.8649 84.4779 248.4468 84.4779 247.9847 C 84.4779 247.5228 84.6653 247.1044 84.9687 246.8016 C 85.2714 246.4982 85.6898 246.3108 86.1517 246.3108 C 86.6139 246.3108 87.032 246.4982 87.3348 246.8016 Z " fill="url(#color-15-,0,0,1,-128.98785,1.89604)" stroke="none" stroke-linecap="butt" stroke-width="2.5"/><path d="M 88.0647 250.8892 C 88.368 251.1919 88.5555 251.6103 88.5555 252.0722 C 88.5555 252.5344 88.368 252.9525 88.0647 253.2556 C 87.7619 253.5586 87.3438 253.7461 86.8816 253.7461 C 86.4197 253.7461 86.0013 253.5586 85.6986 253.2556 C 85.3952 252.9525 85.2078 252.5344 85.2078 252.0722 C 85.2078 251.6103 85.3952 251.1919 85.6986 250.8892 C 86.0013 250.5858 86.4197 250.3984 86.8816 250.3984 C 87.3438 250.3984 87.7619 250.5858 88.0647 250.8892 Z " fill="url(#color-16-,0,0,1,-128.98785,1.89604)" stroke="none" stroke-linecap="butt" stroke-width="2.5"/><path d="M 88.7946 254.5388 C 89.098 254.8416 89.2854 255.26 89.2854 255.7218 C 89.2854 256.184 89.098 256.6021 88.7946 256.9052 C 88.4918 257.2082 88.0737 257.3957 87.6116 257.3957 C 87.1497 257.3957 86.7313 257.2083 86.4285 256.9052 C 86.1251 256.6021 85.9377 256.184 85.9377 255.7218 C 85.9377 255.26 86.1251 254.8416 86.4285 254.5388 C 86.7313 254.2354 87.1497 254.048 87.6116 254.048 C 88.0737 254.048 88.4918 254.2354 88.7946 254.5388 Z " fill="url(#color-17-,0,0,1,-128.98785,1.89604)" stroke="none" stroke-linecap="butt" stroke-width="2.5"/><path d="M 90.8385 258.0424 C 91.1419 258.3452 91.3293 258.7636 91.3293 259.2255 C 91.3293 259.6877 91.1419 260.1058 90.8385 260.4088 C 90.5357 260.7119 90.1176 260.8993 89.6554 260.8993 C 89.1936 260.8993 88.7752 260.7119 88.4724 260.4088 C 88.169 260.1058 87.9816 259.6877 87.9816 259.2255 C 87.9816 258.7636 88.169 258.3452 88.4724 258.0424 C 88.7752 257.7391 89.1936 257.5516 89.6554 257.5516 C 90.1176 257.5516 90.5357 257.7391 90.8385 258.0424 Z " fill="url(#color-18-,0,0,1,-128.98785,1.89604)" stroke="none" stroke-linecap="butt" stroke-width="2.5"/><g stroke-linecap="butt"><path d="M 93.0471 260.8981 C 93.4407 261.068 93.7691 261.3877 93.9393 261.8175 C 94.1096 262.247 94.0894 262.7048 93.9189 263.0981 C 93.749 263.4916 93.4293 263.8198 92.9998 263.99 C 92.5703 264.1602 92.1125 264.1401 91.7192 263.9699 C 91.3256 263.7999 90.9972 263.4802 90.827 263.0508 C 90.6568 262.6213 90.6769 262.1632 90.8474 261.7699 C 91.0173 261.3763 91.337 261.0482 91.7665 260.8779 C 92.196 260.7077 92.6538 260.7279 93.0471 260.8981 Z " fill="url(#color-19-,0,0,1,-128.98785,1.89604)" stroke-width="2.5" stroke="none"/><path d="M 94.361 264.2558 C 94.7546 264.4257 95.0831 264.7454 95.2533 265.1752 C 95.4235 265.6047 95.4034 266.0625 95.2329 266.4558 C 95.0629 266.8493 94.7432 267.1775 94.3137 267.3477 C 93.8843 267.5179 93.4265 267.4978 93.0332 267.3276 C 92.6396 267.1576 92.3111 266.8379 92.1409 266.4085 C 91.9707 265.979 91.9909 265.5209 92.1614 265.1276 C 92.3313 264.734 92.651 264.4059 93.0805 264.2356 C 93.51 264.0654 93.9678 264.0856 94.3611 264.2558 Z " fill="url(#color-20-,0,0,1,-128.98785,1.89604)" stroke-width="2.5" stroke="none"/></g><path d="M 90.9619 219.5806 C 91.4749 220.0927 91.792 220.8001 91.792 221.5814 C 91.792 222.3627 91.4749 223.0702 90.9619 223.5823 C 90.4498 224.0953 89.7423 224.4123 88.961 224.4123 C 88.1797 224.4123 87.4726 224.0953 86.9602 223.5823 C 86.4475 223.0702 86.1304 222.3627 86.1304 221.5814 C 86.1304 220.8001 86.4475 220.0927 86.9602 219.5806 C 87.4726 219.0679 88.1797 218.7508 88.961 218.7508 C 89.7423 218.7508 90.4498 219.0679 90.9619 219.5806 Z " fill="url(#color-21-,0,0,1,-128.98785,1.89604)" stroke="none" stroke-linecap="butt" stroke-width="2.5"/><path d="M 98.7215 222.2763 C 99.0249 222.5791 99.2123 222.9975 99.2123 223.4594 C 99.2123 223.9216 99.0249 224.3397 98.7215 224.6428 C 98.4187 224.9458 98.0006 225.1333 97.5384 225.1333 C 97.0765 225.1333 96.6582 224.9458 96.3554 224.6428 C 96.052 224.3397 95.8646 223.9216 95.8646 223.4594 C 95.8646 222.9975 96.052 222.5791 96.3554 222.2763 C 96.6582 221.973 97.0765 221.7855 97.5384 221.7855 C 98.0006 221.7855 98.4187 221.973 98.7215 222.2763 Z " fill="url(#color-22-,0,0,1,-128.98785,1.89604)" stroke="none" stroke-linecap="butt" stroke-width="2.5"/><path d="M 100.4733 226.2178 C 100.7767 226.5206 100.9641 226.939 100.9641 227.4009 C 100.9641 227.863 100.7767 228.2811 100.4733 228.5842 C 100.1706 228.8873 99.7525 229.0747 99.2903 229.0747 C 98.8284 229.0747 98.41 228.8873 98.1072 228.5842 C 97.8039 228.2811 97.6164 227.863 97.6164 227.4009 C 97.6164 226.939 97.8039 226.5206 98.1072 226.2178 C 98.41 225.9144 98.8284 225.727 99.2903 225.727 C 99.7525 225.727 100.1706 225.9144 100.4733 226.2178 Z " fill="url(#color-23-,0,0,1,-128.98785,1.89604)" stroke="none" stroke-linecap="butt" stroke-width="2.5"/><path d="M 101.2032 230.5973 C 101.5066 230.9001 101.6941 231.3185 101.6941 231.7804 C 101.6941 232.2426 101.5066 232.6607 101.2032 232.9637 C 100.9005 233.2668 100.4824 233.4542 100.0202 233.4542 C 99.5583 233.4542 99.1399 233.2668 98.8371 232.9637 C 98.5338 232.6607 98.3463 232.2426 98.3463 231.7804 C 98.3463 231.3185 98.5338 230.9001 98.8371 230.5973 C 99.1399 230.294 99.5583 230.1065 100.0202 230.1065 C 100.4824 230.1065 100.9005 230.294 101.2032 230.5973 Z " fill="url(#color-24-,0,0,1,-128.98785,1.89604)" stroke="none" stroke-linecap="butt" stroke-width="2.5"/><path d="M 101.2032 235.4149 C 101.5066 235.7177 101.6941 236.1361 101.6941 236.598 C 101.6941 237.0601 101.5066 237.4783 101.2032 237.7813 C 100.9005 238.0844 100.4824 238.2718 100.0202 238.2718 C 99.5583 238.2718 99.1399 238.0844 98.8371 237.7813 C 98.5338 237.4783 98.3463 237.0601 98.3463 236.598 C 98.3463 236.1361 98.5338 235.7177 98.8371 235.4149 C 99.1399 235.1115 99.5583 234.9241 100.0202 234.9241 C 100.4824 234.9241 100.9005 235.1115 101.2032 235.4149 Z " fill="url(#color-25-,0,0,1,-128.98785,1.89604)" stroke="none" stroke-linecap="butt" stroke-width="2.5"/><path d="M 101.3491 239.9404 C 101.6525 240.2431 101.8399 240.6615 101.8399 241.1234 C 101.8399 241.5856 101.6525 242.0037 101.3491 242.3068 C 101.0464 242.6098 100.6283 242.7973 100.1661 242.7973 C 99.7042 242.7973 99.2858 242.6098 98.983 242.3068 C 98.6797 242.0037 98.4922 241.5856 98.4922 241.1234 C 98.4922 240.6615 98.6797 240.2431 98.983 239.9404 C 99.2858 239.637 99.7042 239.4496 100.1661 239.4496 C 100.6283 239.4496 101.0464 239.637 101.3491 239.9404 Z " fill="url(#color-26-,0,0,1,-128.98785,1.89604)" stroke="none" stroke-linecap="butt" stroke-width="2.5"/><path d="M 101.0574 244.6118 C 101.3607 244.9146 101.5482 245.333 101.5482 245.7949 C 101.5482 246.2571 101.3607 246.6752 101.0574 246.9782 C 100.7546 247.2813 100.3365 247.4688 99.8743 247.4688 C 99.4124 247.4688 98.994 247.2813 98.6913 246.9782 C 98.3879 246.6752 98.2005 246.2571 98.2005 245.7949 C 98.2005 245.333 98.3879 244.9146 98.6913 244.6118 C 98.994 244.3085 99.4124 244.121 99.8743 244.121 C 100.3365 244.121 100.7546 244.3085 101.0574 244.6118 Z " fill="url(#color-27-,0,0,1,-128.98785,1.89604)" stroke="none" stroke-linecap="butt" stroke-width="2.5"/><path d="M 100.4733 249.1373 C 100.7767 249.4401 100.9641 249.8585 100.9641 250.3204 C 100.9641 250.7826 100.7767 251.2007 100.4733 251.5037 C 100.1706 251.8068 99.7525 251.9943 99.2903 251.9943 C 98.8284 251.9943 98.41 251.8068 98.1072 251.5037 C 97.8039 251.2007 97.6164 250.7826 97.6164 250.3204 C 97.6164 249.8585 97.8039 249.4401 98.1072 249.1373 C 98.41 248.834 98.8284 248.6465 99.2903 248.6465 C 99.7525 248.6465 100.1706 248.834 100.4733 249.1373 Z " fill="url(#color-28-,0,0,1,-128.98785,1.89604)" stroke="none" stroke-linecap="butt" stroke-width="2.5"/><path d="M 100.1813 253.3709 C 100.4847 253.6737 100.6721 254.092 100.6721 254.5539 C 100.6721 255.0161 100.4847 255.4342 100.1813 255.7373 C 99.8786 256.0403 99.4605 256.2278 98.9983 256.2278 C 98.5364 256.2278 98.118 256.0403 97.8152 255.7373 C 97.5119 255.4342 97.3244 255.0161 97.3244 254.5539 C 97.3244 254.092 97.5119 253.6737 97.8152 253.3709 C 98.118 253.0675 98.5364 252.8801 98.9983 252.8801 C 99.4605 252.8801 99.8786 253.0675 100.1813 253.3709 Z " fill="url(#color-29-,0,0,1,-128.98785,1.89604)" stroke="none" stroke-linecap="butt" stroke-width="2.5"/><path d="M 99.7434 258.0424 C 100.0468 258.3452 100.2342 258.7636 100.2342 259.2255 C 100.2342 259.6877 100.0468 260.1058 99.7434 260.4088 C 99.4406 260.7119 99.0225 260.8993 98.5604 260.8993 C 98.0985 260.8993 97.6801 260.7119 97.3773 260.4088 C 97.0739 260.1058 96.8865 259.6877 96.8865 259.2255 C 96.8865 258.7636 97.0739 258.3452 97.3773 258.0424 C 97.6801 257.7391 98.0985 257.5516 98.5604 257.5516 C 99.0225 257.5516 99.4406 257.7391 99.7434 258.0424 Z " fill="url(#color-30-,0,0,1,-128.98785,1.89604)" stroke="none" stroke-linecap="butt" stroke-width="2.5"/><path d="M 98.4295 262.7138 C 98.7328 263.0166 98.9203 263.435 98.9203 263.8969 C 98.9203 264.3591 98.7328 264.7772 98.4295 265.0802 C 98.1267 265.3833 97.7086 265.5708 97.2464 265.5708 C 96.7845 265.5708 96.3661 265.3833 96.0634 265.0802 C 95.76 264.7772 95.5725 264.3591 95.5725 263.8969 C 95.5725 263.435 95.76 263.0166 96.0634 262.7138 C 96.3661 262.4105 96.7845 262.223 97.2464 262.223 C 97.7086 262.223 98.1267 262.4105 98.4295 262.7138 Z " fill="url(#color-31-,0,0,1,-128.98785,1.89604)" stroke="none" stroke-linecap="butt" stroke-width="2.5"/><path d="M 98.2334 268.9734 C 98.8705 269.788 99.2646 270.9126 99.2646 272.1541 C 99.2646 273.3958 98.8705 274.5205 98.2334 275.335 C 97.5966 276.1493 96.7175 276.6536 95.7467 276.6536 C 94.7762 276.6536 93.8968 276.1493 93.26 275.335 C 92.6232 274.5204 92.229 273.3958 92.229 272.1541 C 92.229 270.9126 92.6232 269.788 93.26 268.9734 C 93.8968 268.1588 94.7762 267.6545 95.7467 267.6545 C 96.7175 267.6545 97.5966 268.1588 98.2334 268.9734 Z " fill="#b2b2b2" stroke="none" stroke-linecap="butt" stroke-width="2.5"/><path d="M 96.5508 276.9563 C 96.9444 277.1263 97.2728 277.4459 97.443 277.8757 C 97.6133 278.3052 97.5931 278.763 97.4226 279.1563 C 97.2527 279.5499 96.933 279.8781 96.5035 280.0483 C 96.074 280.2185 95.6162 280.1983 95.2229 280.0281 C 94.8293 279.8582 94.5009 279.5385 94.3307 279.109 C 94.1605 278.6795 94.1806 278.2214 94.3511 277.8281 C 94.521 277.4345 94.8407 277.1064 95.2702 276.9362 C 95.6997 276.7659 96.1575 276.7861 96.5508 276.9563 Z " fill="url(#color-32-,0,0,1,-128.98785,1.89604)" stroke="none" stroke-linecap="butt" stroke-width="2.5"/><path d="M 95.9668 281.0439 C 96.3604 281.2139 96.6888 281.5336 96.859 281.9634 C 97.0292 282.3928 97.0091 282.8506 96.8386 283.2439 C 96.6687 283.6375 96.349 283.9657 95.9195 284.1359 C 95.49 284.3061 95.0322 284.286 94.6389 284.1157 C 94.2453 283.9458 93.9169 283.6261 93.7466 283.1966 C 93.5764 282.7671 93.5966 282.309 93.7671 281.9158 C 93.937 281.5222 94.2567 281.194 94.6862 281.0238 C 95.1157 280.8536 95.5735 280.8738 95.9668 281.044 Z " fill="url(#color-33-,0,0,1,-128.98785,1.89604)" stroke="none" stroke-linecap="butt" stroke-width="2.5"/><path d="M 97.5537 285.1954 C 97.857 285.4982 98.0445 285.9166 98.0445 286.3785 C 98.0445 286.8407 97.857 287.2588 97.5537 287.5618 C 97.2509 287.8649 96.8328 288.0524 96.3706 288.0524 C 95.9087 288.0524 95.4903 287.8649 95.1875 287.5618 C 94.8842 287.2588 94.6967 286.8407 94.6967 286.3785 C 94.6967 285.9166 94.8842 285.4982 95.1875 285.1954 C 95.4903 284.8921 95.9087 284.7046 96.3706 284.7046 C 96.8328 284.7046 97.2509 284.8921 97.5537 285.1954 Z " fill="url(#color-34-,0,0,1,-128.98785,1.89604)" stroke="none" stroke-linecap="butt" stroke-width="2.5"/><path d="M 98.9372 291.8529 L 102.0461 291.5256 L 101.8825 294.9617 L 99.101 295.289 L 98.6102 304.9427 L 94.8467 304.9427 L 94.3559 295.616 L 90.4289 295.4525 L 90.5927 292.0164 L 94.3559 292.0164 L 94.3559 288.744 L 98.7737 288.744 Z " fill="#b2b2b2" stroke="none" stroke-linecap="round" stroke-width="2.5"/><path d="M 96.881 302.8978 L 96.2264 290.9534 " fill="none" stroke="#7f7f7f" stroke-linecap="round" stroke-width="2.5"/><path d="M 99.008 293.5714 L 93.2813 293.4076 " fill="none" stroke="#7f7f7f" stroke-linecap="round" stroke-width="2.5"/></g><path d="M 162.6951 238.315 L 91.4549 235.1033 L 91.1629 222.9866 L 160.5053 224.4465 Z " fill="#000000" stroke="none" stroke-linecap="round" stroke-width="2.5"/><g><g><g><path d="M 172.0364 232.031 L 178.0203 225.9484 L 176.4159 263.1019 L 168.1155 257.3826 L 165.9617 230.8047 Z " fill="#363a37" stroke="none" stroke-linecap="round" stroke-width="2.5"/><path d="M 170.3295 212.2854 L 169.8089 227.5764 L 149.5945 221.7855 L 150.1098 195.3954 Z " fill="#000000" stroke="none" stroke-linecap="round" stroke-width="2.5"/><path d="M 175.7575 241.4002 L 174.7035 272.3646 L 170.31 272.2151 L 171.3637 241.2507 Z " fill="url(#color-35-,0,0,1,-128.98785,1.89604)" stroke="url(#color-36-,0,0,1,-128.98785,1.89604)" stroke-linecap="round" stroke-width="2.5"/><path d="M 187.2147 222.1488 C 187.1817 223.1146 186.9385 223.9841 186.5709 224.6068 C 186.2033 225.2296 185.7111 225.6057 185.1841 225.5879 C 184.6568 225.5698 184.1914 225.161 183.867 224.5149 C 183.5424 223.8685 183.359 222.9844 183.392 222.0185 C 183.4247 221.0527 183.6679 220.1832 184.0355 219.5605 C 184.4031 218.9377 184.8953 218.5614 185.4226 218.5795 C 185.9496 218.5973 186.415 219.006 186.7397 219.6524 C 187.0641 220.2989 187.2474 221.1829 187.2147 222.1488 Z " fill="#ff0000" stroke="none" stroke-linecap="butt" stroke-width="2.5"/><path d="M 173.057 189.3114 L 180.7901 198.2497 L 180.7731 209.9856 L 184.8216 203.4896 L 184.0143 215.9643 L 180.3264 223.1105 L 179.9492 234.1965 L 174.4792 244.9815 L 164.3114 243.87 L 162.8203 201.4651 Z " fill="#000000" stroke="none" stroke-linecap="round" stroke-width="2.5"/><path d="M 188.3977 200.0423 L 187.7399 223.1107 L 186.0731 219.6094 L 184.2807 219.8036 L 182.7618 223.1962 L 183.5554 199.8776 Z " fill="#000000" stroke="none" stroke-linecap="round" stroke-width="2.5"/></g><path d="M 170.1287 288.9925 L 170.1287 288.9925 L 170.1448 289.182 L 170.1448 289.182 Z " fill="#cccccc" stroke="none" stroke-linecap="butt" stroke-width="2.5"/></g><path d="M 182.4028 274.227 L 164.5927 273.2051 L 157.8775 255.687 L 152.768 222.6947 L 182.4028 226.3443 Z " fill="#353935" stroke="none" stroke-linecap="round" stroke-width="2.5"/></g><g stroke-linecap="butt"><path d="M 153.4982 242.2566 L 140.3596 242.2566 L 140.3596 218.8991 L 153.4982 218.8991 Z " fill="#cccc00" stroke="#000000" stroke-width="2.5"/><path d="M 144.9347 221.4771 C 145.2646 221.8071 145.469 222.2654 145.469 222.7676 C 145.469 223.2698 145.2646 223.7282 144.9347 224.0581 C 144.6048 224.388 144.1464 224.5924 143.6442 224.5924 C 143.142 224.5924 142.6836 224.3881 142.3537 224.0581 C 142.0238 223.7282 141.8194 223.2698 141.8194 222.7676 C 141.8194 222.2654 142.0238 221.8071 142.3537 221.4771 C 142.6836 221.1472 143.142 220.9428 143.6442 220.9428 C 144.1464 220.9428 144.6048 221.1472 144.9347 221.4771 Z " fill="#ff0000" stroke="none" stroke-width="2.5"/></g><g><path d="M 135.029 254.5064 L 119.2379 254.1178 L 120.2061 214.7482 L 135.9972 215.1365 Z " fill="url(#color-37-,0,0,1,-128.98785,1.89604)" stroke-linecap="butt" stroke-width="2.5" stroke="none"/><path d="M 136.1443 255.2562 L 125.6769 258.4226 L 117.9597 255.3797 L 117.8274 251.9526 L 136.2144 252.4048 Z " fill="#666666" stroke-linecap="round" stroke-width="2.5" stroke="none"/><path d="M 133.1245 252.7278 L 131.6103 252.6907 L 132.5148 215.9167 L 134.029 215.9541 Z " fill="#666666" stroke-linecap="butt" stroke-width="2.5" stroke="none"/><path d="M 129.8798 252.6481 L 128.582 252.6162 L 129.4971 215.4096 L 130.7949 215.4417 Z " fill="#666666" stroke-linecap="butt" stroke-width="2.5" stroke="none"/><path d="M 135.6795 209.8594 C 137.0535 210.2897 138.1597 211.8424 138.0607 213.1648 C 137.9784 214.2725 136.9638 214.845 135.2459 215.3907 C 133.5279 215.9364 131.1671 216.2418 128.5709 216.1779 C 125.975 216.1142 123.632 215.6929 121.9429 215.0634 C 120.2539 214.4342 119.2189 213.5974 119.2411 212.702 C 119.263 211.8062 120.338 211.0214 122.0556 210.4757 C 123.7736 209.9303 126.4728 209.8054 128.7306 209.6886 C 131.0579 209.5683 133.5387 208.98 135.6794 209.8594 Z " fill="#b2b2b2" stroke-linecap="round" stroke-width="2.5" stroke="none"/><path d="M 121.4434 252.4407 L 120.1456 252.4086 L 121.0498 215.6346 L 122.3479 215.6668 Z " fill="#666666" stroke-linecap="butt" stroke-width="2.5" stroke="none"/><path d="M 114.2749 218.2819 L 114.2749 218.2819 L 114.2697 218.4982 L 114.2697 218.4982 Z " fill="#666666" stroke-linecap="butt" stroke-width="2.5" stroke="none"/><path d="M 137.2522 216.8991 L 118.8653 216.4469 L 118.9505 212.9859 L 136.2666 212.9786 L 135.3127 207.7605 L 140.3766 213.0799 Z " fill="#666666" stroke-linecap="round" stroke-width="2.5" stroke="none"/><path d="M 127.8407 239.5943 L 121.7838 239.4454 L 122.0498 228.6298 L 128.1066 228.7787 Z " fill="#000000" stroke-linecap="butt" stroke-width="2.5" stroke="none"/><path d="M 125.4255 231.849 C 125.8051 232.3672 126.0299 233.0759 126.0109 233.8519 C 125.992 234.6283 125.7324 235.3249 125.3277 235.8239 C 124.9242 236.324 124.3756 236.6256 123.7786 236.611 C 123.1815 236.5964 122.6486 236.2679 122.27 235.7488 C 121.8904 235.2303 121.6656 234.5217 121.6846 233.7456 C 121.7038 232.9696 121.9634 232.273 122.3678 231.7737 C 122.7713 231.2736 123.3199 230.9719 123.917 230.9868 C 124.514 231.0014 125.0472 231.3296 125.4256 231.849 Z " fill="#ff0000" stroke-linecap="butt" stroke-width="2.5" stroke="none"/><path d="M 97.5602 233.4552 C 97.4709 233.4529 97.3897 233.4508 97.3307 233.4496 C 97.2721 233.4482 97.2355 233.4473 97.2355 233.4473 C 97.2355 233.4473 97.272 233.4482 97.3307 233.4496 C 97.3897 233.4508 97.4709 233.4529 97.5602 233.4552 C 97.6493 233.4572 97.7304 233.4593 97.7894 233.4607 C 97.8481 233.4622 97.8846 233.4631 97.8846 233.4631 C 97.8846 233.4631 97.8481 233.4622 97.7894 233.4607 C 97.7304 233.4593 97.6493 233.4572 97.5602 233.4552 Z " fill="#ff0000" stroke-linecap="butt" stroke-width="2.5" stroke="none"/></g><g stroke-linecap="butt"><path d="M 137.7735 235.2492 L 126.3868 235.2492 L 126.3868 225.7602 L 137.7735 225.7602 Z " fill="url(#color-38-,0,0,1,-128.98785,1.89604)" stroke-width="2.5" stroke="none"/><path d="M 116.5794 225.7602 L 126.7983 225.7602 L 126.7983 235.2492 L 116.5794 235.2492 Z " fill="url(#color-39-,0,0,1,-128.98785,1.89604)" stroke-width="2.5" stroke="none"/></g><g stroke-linecap="butt"><g><path d="M 113.7902 219.6066 C 115.973 221.7893 117.3239 224.8033 117.3239 228.1297 C 117.3239 231.4561 115.9729 234.4701 113.7902 236.6526 C 111.6074 238.8353 108.5935 240.1863 105.2671 240.1863 C 101.9407 240.1863 98.9267 238.8353 96.7442 236.6526 C 94.5615 234.4701 93.2105 231.4561 93.2105 228.1297 C 93.2105 224.8033 94.5615 221.7893 96.7442 219.6066 C 98.9267 217.4241 101.9407 216.0732 105.2671 216.0732 C 108.5935 216.0732 111.6074 217.4241 113.7902 219.6066 Z " fill="#000000" stroke-width="2.5" stroke="none"/><path d="M 93.9527 228.0377 C 93.9527 221.9861 99.0516 217.0804 105.3418 217.0804 C 111.6319 217.0804 116.2996 222.0375 116.2996 228.0888 C 116.2996 234.1407 111.6313 238.995 105.3415 238.995 C 99.0516 238.995 93.9527 234.0893 93.9527 228.0377 Z " fill="url(#color-40-,0,0,1,-128.98785,1.89604)" stroke-width="2.5" stroke="none"/><path d="M 107.8821 221.599 C 108.3414 221.7797 110.6791 224.7108 110.8631 225.3841 C 111.0473 226.0573 108.5805 228.7627 108.0368 228.9881 C 107.4935 229.2132 103.6602 227.8579 103.3461 227.4453 C 103.0322 227.0331 102.6836 222.9741 103.0988 222.4918 C 103.5146 222.0098 107.4231 221.4182 107.8821 221.599 Z " fill="#000000" stroke-width="2.5" stroke="none"/><path d="M 100.0504 233.9532 C 99.3374 234.8901 98.3905 236.5532 97.2448 236.1065 C 95.5847 235.4534 94.2163 233.4612 94.2268 231.6782 C 94.2346 230.291 96.1584 229.555 97.4571 229.1001 C 99.2101 228.4867 103.9846 226.8727 102.9622 228.6604 Z " fill="url(#color-41-,0,0,1,-128.98785,1.89604)" stroke-width="2.5" stroke="none"/><path d="M 110.2901 238.8192 L 105.83 240.0344 C 104.9439 239.7045 105.056 237.9246 105.343 236.8651 C 105.781 234.8449 106.2315 231.7521 107.9211 231.1474 C 109.1988 230.6928 110.6533 233.2835 111.0603 234.8175 C 111.5339 236.1345 110.2901 238.8192 110.2901 238.8192 Z " fill="url(#color-42-,0,0,1,-128.98785,1.89604)" stroke-width="2.5" stroke="none"/><path d="M 94.075 223.9168 L 97.795 219.2517 C 98.569 218.7396 99.7865 219.1207 100.475 219.6976 C 101.4134 220.3653 102.8989 221.7098 102.2037 222.6246 C 100.9967 224.2172 98.6726 224.5314 96.6271 224.8456 C 95.734 224.9834 94.075 223.9168 94.075 223.9168 Z " fill="url(#color-43-,0,0,1,-128.98785,1.89604)" stroke-width="2.5" stroke="none"/><path d="M 115.5949 223.3677 C 116.5417 225.5907 116.6039 228.3028 116.1257 230.7078 C 115.9943 231.3632 114.7891 230.3577 114.2907 229.9495 C 113.1365 228.8911 111.5199 227.9425 111.2729 226.4007 C 111.1065 225.3709 112.5634 224.3081 113.3202 224.0196 Z " fill="url(#color-44-,0,0,1,-128.98785,1.89604)" stroke-width="2.5" stroke="none"/><path d="M 105.0983 216.8027 L 108.4531 216.9321 L 111.2939 218.4877 C 111.2939 218.4877 111.2469 219.4737 110.8968 219.7046 C 109.9649 220.3215 108.7363 221.4012 107.6029 221.1081 C 106.3883 220.7782 105.6986 219.3052 105.0093 218.1963 C 104.797 217.7791 105.0984 216.8027 105.0984 216.8027 Z " fill="url(#color-45-,0,0,1,-128.98785,1.89604)" stroke-width="2.5" stroke="none"/></g><path d="M 107.99 223.6243 C 108.3024 223.937 108.496 224.3685 108.496 224.8453 C 108.496 225.3218 108.3024 225.7533 107.99 226.066 C 107.6773 226.3784 107.2458 226.572 106.7693 226.572 C 106.2926 226.572 105.861 226.3784 105.5483 226.066 C 105.2359 225.7533 105.0426 225.3218 105.0426 224.8453 C 105.0426 224.3685 105.2359 223.937 105.5483 223.6243 C 105.861 223.3119 106.2926 223.1186 106.7693 223.1186 C 107.2458 223.1186 107.6773 223.3119 107.99 223.6243 Z " fill="url(#color-46-,0,0,1,-128.98785,1.89604)" stroke-width="2.5" stroke="none"/></g></g></g><g data-paper-data="{&quot;origRot&quot;:0}"><g data-paper-data="{&quot;origPos&quot;:null}"><path d="M 141.8275 20.6538 C 149.3729 22.5027 157.5373 25.124 162.7817 30.8461 C 166.8454 35.276 167.896 42.4143 166.4394 48.1538 C 163.8523 60.8203 160.7512 75.0743 151.1522 83.7918 C 144.1516 90.1387 131.7435 91.7502 123.1435 88.3145 C 114.9396 85.0358 110.3278 75.2757 107.4391 66.9269 C 103.7449 56.6 103.1229 45.0436 106.0854 34.6388 C 107.377 27.9145 113.0455 21.7272 119.3163 19.1421 C 126.3126 16.2555 134.6003 18.5246 141.8274 20.6538 Z " fill="#ffd499" stroke="none" stroke-linecap="butt" stroke-width="2.5"/><path d="M 154.7342 87.4124 C 154.7342 87.4124 104.1773 77.1725 99.1796 66.2111 C 92.0332 51.0717 96.7664 24.8328 96.7664 24.8328 C 96.7664 24.8328 98.8011 1.1624 99.7076 1.2503 C 100.5848 1.3353 128.855 8.2634 128.855 8.2634 C 128.855 8.2634 147.4942 12.7265 159.9275 24.5266 C 169.8551 33.9487 174.3956 54.662 176.0685 64.9364 C 177.7413 75.2108 178.0256 90.8938 178.0256 90.8938 Z " data-paper-data="{&quot;origPos&quot;:null}" fill="#ffffff" stroke="#000000" stroke-linecap="round" stroke-width="2.5"/><g stroke-linecap="butt"><path d="M 98.884 22.4317 L 136.6641 30.5156 L 134.451 40.8585 L 97.7222 32.9701 Z " data-paper-data="{&quot;origPos&quot;:null}" stroke-width="2.5" fill="#ff0000" stroke="none"/><path d="M 97.6045 35.318 L 119.8072 40.0786 L 119.2232 42.8079 L 97.5461 38.1451 Z " data-paper-data="{&quot;origPos&quot;:null}" stroke-width="2.5" fill="#ff0000" stroke="none"/></g><path d="M 174.8164 63.7672 L 174.6238 71.6881 L 133.088 62.1997 C 133.088 62.1997 113.0526 57.2816 114.6957 41.4387 C 115.9625 29.2229 135.3569 32.6397 135.3569 32.6397 L 166.5291 39.3097 Z " fill="#000000" stroke="#000000" stroke-linecap="round" stroke-width="2.5"/><path d="M 123.0757 33.1665 C 127.5937 31.6966 136.8246 32.6893 137.4809 33.2443 C 138.0986 33.7701 130.0657 34.9296 126.3496 36.1205 C 123.6437 37.224 119.1735 40.8585 118.2864 40.1038 C 117.466 39.4025 120.4676 34.2489 123.0758 33.1666 Z " fill="#ffffff" stroke="none" stroke-linecap="round" stroke-width="2.5"/></g><path d="M 111.8709 45.2404 L 100.3681 50.4723 L 100.2587 42.4363 Z " data-paper-data="{&quot;origPos&quot;:null}" fill="#000000" stroke="none" stroke-linecap="round" stroke-width="2.5"/></g><g><path d="M 37.426 137.0471 C 35.9099 129.4881 52.9537 127.5425 61.2986 129.911 C 71.387 132.8269 76.4305 144.2117 84.7452 151.0753 C 93.6495 158.4474 106.7643 162.6496 111.5121 173.1973 C 114.5949 180.0734 112.1204 193.6402 105.0877 193.7553 C 92.0338 194.5776 80.821 183.4701 71.1181 175.0863 C 58.2801 164.053 40.2224 152.3474 37.426 137.0471 Z " data-paper-data="{&quot;origRot&quot;:0}" fill="#000000" stroke="#000000" stroke-linecap="round" stroke-width="2.5"/><path d="M 105.3413 85.3148 C 110.4266 85.1328 115.3535 93.8081 112.8027 98.6372 C 107.2894 108.9429 94.2657 113.1555 85.6752 120.8332 C 75.4668 129.3016 68.8998 143.4086 56.3148 147.0625 C 49.1605 149.1293 36.5342 142.1639 38.3901 135.4196 C 41.9791 120.6172 55.7566 109.9745 67.9277 101.1168 C 78.845 93.1192 91.8289 85.7135 105.3413 85.3148 Z " data-paper-data="{&quot;origRot&quot;:0}" fill="#000000" stroke="#000000" stroke-linecap="round" stroke-width="2.5"/><g data-paper-data="{&quot;origRot&quot;:0}"><g stroke-linecap="round"><path d="M 134.0981 177.2727 C 137.1278 176.8356 140.6245 179.7243 143.5558 181.3563 C 146.3823 182.9459 150.2032 184.279 151.5759 186.8141 C 152.7738 189.0278 151.9101 192.2253 149.5249 192.6703 C 146.6246 193.2099 142.9674 190.8212 139.8943 189.3229 C 136.6808 187.5652 132.2657 185.9224 130.9547 183.0309 C 129.8397 180.5734 131.5318 177.579 134.098 177.2726 Z " stroke-width="2.5" fill="#363a36" stroke="none"/><path d="M 130.2278 184.1153 C 133.2575 183.6783 136.7542 186.5669 139.6855 188.1989 C 142.5119 189.7885 146.3328 191.1217 147.7055 193.6567 C 148.9035 195.8704 148.0398 199.068 145.6545 199.513 C 142.7543 200.0526 139.0971 197.6639 136.024 196.1656 C 132.8105 194.4079 128.3954 192.7651 127.0844 189.8735 C 125.9693 187.416 127.6614 184.4217 130.2277 184.1153 Z " stroke-width="2.5" fill="#363a36" stroke="none"/><path d="M 125.6638 191.5125 C 128.6935 191.0755 132.1902 193.9642 135.1215 195.5961 C 137.9479 197.1857 141.7688 198.5189 143.1415 201.054 C 144.3395 203.2676 143.4758 206.4652 141.0905 206.9102 C 138.1903 207.4498 134.5331 205.0611 131.46 203.5627 C 128.2465 201.8051 123.8314 200.1623 122.5204 197.2707 C 121.4053 194.8132 123.0975 191.8188 125.6637 191.5124 Z " stroke-width="2.5" fill="#363a36" stroke="none"/><path d="M 122.1078 199.5172 C 125.1375 199.0802 128.6342 201.9689 131.5656 203.6008 C 134.392 205.1904 138.2129 206.5236 139.5856 209.0587 C 140.7835 211.2723 139.9198 214.4699 137.5346 214.9149 C 134.6344 215.4545 130.9771 213.0658 127.9041 211.5675 C 124.6905 209.8098 120.2754 208.167 118.9644 205.2755 C 117.8494 202.8179 119.5415 199.8236 122.1078 199.5172 Z " stroke-width="2.5" fill="#363a36" stroke="none"/></g><g stroke-linecap="round"><path d="M 112.7627 176.4284 C 122.9327 176.5911 123.7924 175.2436 124.7343 175.0404 C 128.4968 174.225 132.577 173.4337 136.2796 174.4856 C 139.7784 175.4844 144.9367 179.4339 145.1949 180.5448 C 145.2479 181.71 139.7233 180.1804 137.0094 179.8141 C 135.2381 179.5782 133.4595 179.3387 131.6947 179.0491 C 129.8603 178.7481 128.0239 178.4219 126.2023 178.0432 C 125.2198 177.8384 123.6666 178.0924 123.279 177.2996 Z " fill="none" stroke="#353937" stroke-width="2.5"/><path d="M 104.8649 171.55 C 107.1156 172.7217 109.2579 174.1593 111.6507 175.0189 C 113.3754 175.6392 115.2069 175.987 117.0211 176.2627 C 120.783 176.8344 124.7218 176.4846 128.3706 177.5598 C 132.7418 178.8546 137.9403 180.2115 141.291 183.7144 C 142.6777 185.2732 140.7393 187.955 140.2166 190.2225 C 139.5291 193.1474 138.4083 195.9863 137.2105 198.7465 C 135.6182 202.4191 134.9826 207.1995 131.6725 209.5797 C 129.2815 211.2493 125.7743 209.5977 122.8285 208.9626 C 121.0879 208.5896 119.5648 207.4925 118.0664 206.5284 C 116.5398 205.5437 115.0159 204.4825 113.7914 203.1417 C 112.5797 201.8166 111.9908 200.0079 110.8419 198.6307 C 109.6503 197.2017 108.3605 195.7947 106.8104 194.7679 C 102.3496 191.815 97.5579 189.3625 92.8897 186.7508 C 91.3345 185.8807 88.798 185.8603 88.1279 184.3164 C 90.3718 174.3457 92.0964 170.0501 96.4097 167.5279 C 99.1211 166.1782 102.0387 170.2285 104.8649 171.55 Z " fill="#ffffff" stroke="#ffffff" stroke-width="2.5"/></g><path d="M 124.683 179.0049 C 124.558 179.0901 124.4801 179.1429 124.4801 179.1429 C 124.4801 179.1429 124.558 179.0901 124.683 179.0049 C 124.8109 178.9177 124.9832 178.8005 125.1749 178.67 C 125.3665 178.5396 125.5388 178.4223 125.6667 178.3352 C 125.7917 178.25 125.8696 178.1972 125.8696 178.1972 C 125.8696 178.1972 125.7917 178.25 125.6667 178.3352 C 125.5388 178.4223 125.3665 178.5396 125.1749 178.67 C 124.9832 178.8005 124.8109 178.9178 124.683 179.0049 Z " fill="#eac18d" stroke="none" stroke-linecap="butt" stroke-width="2.5"/><path d="M 115.0377 195.0228 C 114.4596 190.357 115.4951 184.808 118.6313 181.2959 C 120.3965 179.4134 123.9558 181.4424 126.4734 182.1922 C 129.5264 183.1052 133.0864 184.0246 135.4017 186.445 C 136.3599 187.5221 135.0204 189.3752 134.6594 190.9422 C 134.1842 192.9635 133.4098 194.9248 132.5821 196.8322 C 131.4818 199.37 131.2012 202.968 128.7554 204.3179 C 126.6687 205.4323 123.5743 203.5412 121.2987 201.8547 C 118.7129 200.2799 115.4604 198.2602 115.0378 195.0228 Z " fill="#000000" stroke="#000000" stroke-linecap="round" stroke-width="2.5"/></g><path d="M 44.9839 152.2241 C 40.9139 147.3445 36.9186 138.6914 39.8229 132.4206 C 42.5919 127.7287 51.5893 127.2694 56.6608 129.663 C 66.5339 134.3312 71.1414 146.2949 80.1852 152.5375 C 89.1103 159.4204 102.0259 160.5787 110.0309 168.6466 C 113.8832 172.5446 112.785 179.9701 110.8297 185.0948 C 109.2932 189.1104 104.7625 194.3699 100.1013 194.153 C 93.8552 193.8616 88.2709 189.0487 83.305 185.0871 C 70.2723 174.6992 55.7597 165.1242 44.9839 152.2242 Z " data-paper-data="{&quot;origRot&quot;:0}" fill="#ffffff" stroke="none" stroke-linecap="round" stroke-width="2.5"/><path d="M 103.1894 85.1895 C 108.3176 84.7576 117.1521 91.3034 114.591 95.6319 C 108.8072 105.3927 94.7192 106.8812 86.1261 114.5383 C 75.4902 123.3278 69.8766 138.8928 57.2378 144.6843 C 51.1016 147.4944 36.3129 143.3074 38.2263 137.0411 C 43.5671 120.7394 58.9545 109.1205 71.9924 98.7784 C 80.8709 91.7374 92.02 86.1317 103.1894 85.1895 Z " data-paper-data="{&quot;origRot&quot;:0}" fill="#ffffff" stroke="none" stroke-linecap="round" stroke-width="2.5"/></g><path d="M 94.3672 131.1771 C 94.3672 131.1771 89.3965 116.9871 86.2799 110.7051 C 82.467 103.0194 83.472 91.5794 83.472 91.5794 C 83.472 91.5794 93.5846 86.4458 100.7121 86.1292 C 105.5259 85.9154 114.0703 90.2205 114.0703 90.2205 L 124.8493 117.0315 Z " data-paper-data="{&quot;origRot&quot;:0}" fill="#ffffff" stroke="none" stroke-linecap="butt" stroke-width="2.5"/></g></g></svg>