<svg version="1.1" xmlns="http://www.w3.org/2000/svg" xmlns:xlink="http://www.w3.org/1999/xlink" width="216.83852" height="341.77669" viewBox="0,0,216.83852,341.77669"><g transform="translate(-127.72172,-37.82096)"><g data-paper-data="{&quot;isPaintingLayer&quot;:true}" fill-rule="nonzero" stroke-linejoin="miter" stroke-miterlimit="10" stroke-dasharray="" stroke-dashoffset="0" style="mix-blend-mode: normal"><g stroke-width="1" stroke-linecap="butt"><path d="M159.42695,333.39862c0,0 29.89699,-1.92151 40.25708,-9.24049c8.97611,-6.34126 18.34891,-32.16227 18.34891,-32.16227l22.90625,11.29554c0,0 -9.17035,36.49048 -18.45876,43.69826c-13.46395,10.44798 -54.55638,12.96125 -54.55638,12.96125z" fill="#4d87ff" stroke="#0046d1"/><path d="M161.84383,369.63776c-14.73147,5.3302 -16.30054,-9.82917 -18.75925,-17.51231c-2.45871,-7.68316 0.52597,-16.32249 6.50177,-18.23482c5.97575,-1.91232 11.89318,-2.66525 14.35189,5.0179c2.45871,7.68316 9.65771,26.47702 -2.09438,30.72923z" data-paper-data="{&quot;index&quot;:null}" fill="#c58d3b" stroke="#1c1100"/></g><g data-paper-data="{&quot;index&quot;:null}" stroke-width="1" stroke-linecap="butt"><path d="M141.77563,239.72201c-3.72488,2.88809 -9.02725,2.2852 -11.84313,-1.34656c-2.81588,-3.63177 -2.07896,-8.91717 1.64591,-11.80524c3.72486,-2.88807 9.02723,-2.28522 11.84311,1.34656c2.81589,3.63179 2.07898,8.91717 -1.64588,11.80524z" data-paper-data="{&quot;origPos&quot;:null}" fill="#ffd4a0" stroke="#e7c091"/><path d="M131.4503,223.47058c0,0 31.03044,-28.41869 55.73921,-36.55266c24.70877,-8.13398 41.12677,-11.73671 53.14188,0.70968c12.01512,12.44639 -1.54911,21.48936 -1.54911,21.48936c0,0 -30.77264,-2.74331 -46.14524,2.27368c-16.00661,5.22391 -48.0693,28.4741 -48.0693,28.4741z" data-paper-data="{&quot;origRot&quot;:0,&quot;origPos&quot;:null}" fill="#e80000" stroke="#740000"/></g><path d="M296.02454,362.57592l-81.36582,-60.53133l33.56933,-9.67101l64.41387,47.81737z" fill="#4d87ff" stroke="#0046d1" stroke-width="1" stroke-linecap="butt"/><path d="M324.66899,338.37948c12.91981,8.86035 1.51879,18.974 -3.2896,25.45129c-4.8084,6.4773 -13.56746,9.08978 -18.60537,5.34991c-5.03787,-3.73984 -9.09982,-8.1083 -4.29142,-14.5856c4.8084,-6.4773 15.87953,-23.28399 26.18634,-16.21558z" fill="#c58d3b" stroke="#1c1100" stroke-width="1" stroke-linecap="butt"/><g><path d="M231.83616,179.47676l0.55582,-10.6534l25.99428,1.3562l-0.55582,10.6534z" fill="#ffd5a1" stroke="#525252" stroke-width="1" stroke-linecap="butt"/><path d="M257.14145,172.00663l-0.21387,7.79251c0,0 -22.24527,-0.80028 -22.22986,-1.09556c0.11443,-2.1933 -2.30843,-11.23184 -0.44671,-11.13471c4.09346,0.35886 22.89045,4.43776 22.89045,4.43776z" fill="#e7c091" stroke="none" stroke-width="0" stroke-linecap="butt"/><path d="M250.7477,177.79315c-40.91977,-2.13491 -72.4641,-35.0631 -70.45627,-73.54716c2.00783,-38.48406 36.8075,-67.95088 77.72727,-65.81597c40.91977,2.13491 72.4641,35.0631 70.45627,73.54716c-2.00783,38.48406 -36.8075,67.95088 -77.72727,65.81597z" data-paper-data="{&quot;index&quot;:null}" fill="#e7c091" stroke="#525252" stroke-width="1" stroke-linecap="butt"/><path d="M325.98832,119.86952c-2.28993,22.33797 -13.36988,34.74793 -32.49147,46.52046c-13.09475,8.06201 -21.807,9.7032 -37.17627,10.20766c-26.75677,0.87825 -55.42092,-29.09273 -62.19946,-54.76175c-6.37519,-24.1416 -6.58094,-36.24884 20.15338,-34.85403c0,0 9.53978,-3.16402 0.252,4.70509c-3.85812,3.26883 22.74463,-4.05991 36.76556,-0.75889c0,0 6.41092,-0.81956 -2.37558,6.86654c-9.61224,8.40844 21.44135,-6.5642 31.35595,-3.43831c0,0 -10.04544,0.7374 -3.81582,9.72588c0,0 21.31369,0.08524 27.86841,-1.30706c8.98784,-1.90912 20.96863,-10.67484 20.96863,-10.67484c0,0 2.54701,9.68956 2.38783,16.71023c-0.08747,3.85725 -1.02212,4.51284 -1.69321,11.05899z" data-paper-data="{&quot;index&quot;:null}" fill="#ffd5a1" stroke="none" stroke-width="0" stroke-linecap="butt"/><path d="M257.77055,39.20046c17.75548,0.92636 27.22604,4.30796 42.08894,14.06548c10.07286,6.61286 16.53798,12.10172 23.89388,21.64549c3.25707,4.22591 3.45291,12.27221 3.45291,12.27221c-1.4025,7.44818 -40.9636,13.81296 -40.9636,13.81296c-6.58817,-0.98905 22.24641,-20.63287 14.21281,-16.8322c-8.03358,3.80069 -39.56096,9.29633 -39.56096,9.29633c-11.31863,-0.43604 29.40271,-21.17062 13.56026,-18.56147c-15.84249,2.6091 -50.48839,14.83652 -50.48839,14.83652c-9.53245,-0.49734 24.1732,-19.19644 14.66032,-19.98331c-10.17598,-0.84174 -13.67967,2.25069 -23.76475,7.05856c-7.12133,3.39493 -31.17328,18.32826 -30.76224,10.44983c0.74247,-14.23087 13.24255,-25.12537 24.47203,-33.89847c12.61887,-9.85855 33.20728,-14.99625 49.19888,-14.16192z" data-paper-data="{&quot;index&quot;:null}" fill="#ffef4d" stroke="#716a22" stroke-width="1" stroke-linecap="butt"/><path d="M279.51689,119.47455c-0.62707,12.01902 -3.23399,21.65286 -5.82268,21.5178c-2.58871,-0.13506 -4.17893,-9.9879 -3.55187,-22.0069c0.62707,-12.01902 3.23399,-21.65286 5.82268,-21.5178c2.58871,0.13506 4.17893,9.9879 3.55187,22.0069z" data-paper-data="{&quot;index&quot;:null}" fill="#000000" stroke="#1c1c1c" stroke-width="1" stroke-linecap="butt"/><path d="M293.19463,120.85963c-0.62707,12.01902 -3.23399,21.65288 -5.8227,21.51782c-2.58871,-0.13506 -4.17893,-9.9879 -3.55187,-22.00692c0.62707,-12.01902 3.23394,-21.65286 5.82268,-21.5178c2.58871,0.13506 4.17895,9.9879 3.55189,22.0069z" data-paper-data="{&quot;index&quot;:null}" fill="#000000" stroke="#1c1c1c" stroke-width="1" stroke-linecap="butt"/><path d="M299.5538,155.69969l-39.48614,-2.06011" fill="none" stroke="#000000" stroke-width="1" stroke-linecap="round"/></g><path d="M205.05935,305.32691l6.59693,-126.44327l69.71211,3.63709l-6.59693,126.44331z" fill="#e80000" stroke="#740000" stroke-width="1" stroke-linecap="butt"/><path d="M167.28917,379.59766z" fill="#c58d3b" stroke="#784800" stroke-width="1" stroke-linecap="butt"/><path d="M217.33279,199.60876l1.01221,-19.40096l8.52272,0.44466l-1.01221,19.40096z" fill="#e80000" stroke="none" stroke-width="0" stroke-linecap="butt"/><g data-paper-data="{&quot;index&quot;:null}" stroke-width="1" stroke-linecap="butt"><path d="M336.9744,236.88872c4.64189,0.81767 7.75863,5.14948 6.9614,9.67533c-0.79723,4.52585 -5.20656,7.53192 -9.84843,6.71424c-4.64187,-0.81767 -7.75861,-5.14946 -6.96138,-9.67531c0.79724,-4.52587 5.20654,-7.53193 9.84841,-6.71427z" data-paper-data="{&quot;origPos&quot;:null}" fill="#ffd4a0" stroke="#e7c091"/><path d="M331.87802,255.45611c0,0 -41.89795,-3.88225 -64.52588,-16.71431c-22.62793,-12.83206 -36.32884,-22.56938 -35.18582,-39.83116c1.14302,-17.26179 16.95497,-13.29368 16.95497,-13.29368c0,0 18.64767,24.63221 32.6934,32.64498c14.62501,8.34324 53.38912,16.46315 53.38912,16.46315z" data-paper-data="{&quot;origRot&quot;:0,&quot;origPos&quot;:null}" fill="#e80000" stroke="#740000"/></g></g></g></svg>