<svg version="1.1" xmlns="http://www.w3.org/2000/svg" xmlns:xlink="http://www.w3.org/1999/xlink" width="506.43006" height="424.32569" viewBox="0,0,506.43006,424.32569"><g transform="translate(9.80843,16.77736)"><g data-paper-data="{&quot;isPaintingLayer&quot;:true}" fill-rule="nonzero" stroke-linejoin="miter" stroke-miterlimit="10" stroke-dasharray="" stroke-dashoffset="0" style="mix-blend-mode: normal"><path d="M-6.89269,335.8918v-352.66916h496.78537v352.66916z" fill="#cdc5df" stroke="none" stroke-width="0" stroke-linecap="butt"/><path d="M260.2431,77.92098c1.89947,4.72054 5.38498,8.68119 5.38498,8.68119c0,0 -3.12325,4.87043 -6.29336,5.30777c-1.02528,0.14143 -4.23406,1.88901 -6.03571,2.04346c-1.34944,0.11569 -2.92222,9.5444 -2.92222,9.5444c0,0 -6.03523,2.78833 -8.24491,2.89539c-0.90864,0.04403 -12.5332,-1.72307 -14.17,-1.57409c-2.443,0.22232 -3.58335,2.20851 -6.61431,3.69245c-3.66759,1.79559 -9.03752,3.12052 -9.03752,3.12052c0,0 -4.92692,-0.81919 -9.49796,-2.34607c-2.82833,-0.94479 -5.26541,-2.84544 -7.08202,-2.92997c-1.61198,-0.075 -15.82639,-45.84499 -16.93231,-45.8474c-3.45354,-0.00748 73.87393,-6.80312 73.87393,-6.80312c0,0 4.99549,17.81367 7.57145,24.2155z" data-paper-data="{&quot;index&quot;:null}" fill="#14161a" stroke="#14161a" stroke-width="4" stroke-linecap="butt"/><path d="M261.51927,177.50237c-3.17765,0 -3.17765,-3.17765 -3.17765,-3.17765v-0.63554c0,-19.43113 -4.67949,-38.21759 -6.52359,-57.54666c-0.69559,-7.29103 -3.05411,-20.74292 4.03003,-25.74384c3.75331,-2.64955 10.56222,-2.87162 14.96935,-3.98012c14.13025,-3.54803 29.32503,-4.61098 42.95339,-9.75695c4.01197,-1.5149 12.84718,-5.43853 16.7692,-3.55754c2.05472,0.98543 1.89337,4.15087 2.67312,6.29212c1.72265,4.73057 1.23912,5.66636 2.56165,10.87585c1.81011,7.13009 4.50497,14.22996 7.39392,20.98231c0.82742,1.93392 1.75023,3.82979 2.48133,5.80214c0.51333,1.38494 0.19293,3.21623 1.24556,4.25234c0.54438,0.53588 1.3096,-0.88059 2.06511,-0.99358c1.5316,-0.22908 3.09723,-0.00679 4.64588,-0.01018c8.57187,-0.3306 19.32064,-5.58005 27.7622,-3.01524c1.78805,0.54327 3.43925,1.8851 4.37946,3.50009c0.46526,0.79917 0.31332,8.05055 0.33466,8.97625c0.08621,3.73801 0.71868,7.46548 1.56647,11.10712c4.9067,21.07685 10.17712,42.08736 14.86942,63.21112c2.54289,9.7433 5.76832,19.55444 7.66884,29.43974c1.04353,5.42779 0.99704,11.33583 1.47538,16.83697c1.71106,19.6773 2.37994,39.58772 2.38412,59.33203c0,0 0,3.17765 -3.17765,3.17765c-3.17765,0 -3.17765,-3.17765 -3.17765,-3.17765c0.00382,-17.39383 -0.30079,-35.11229 -1.80968,-52.45004c-0.64381,-7.39767 -0.5407,-15.35221 -1.95719,-22.63773c-1.89488,-9.74603 -5.07777,-19.41798 -7.58395,-29.02925c-3.78616,-17.03116 -8.3761,-33.86377 -12.0908,-50.91086c-1.35228,-6.20569 -3.3681,-12.56701 -4.24443,-18.85202c-0.5216,-3.74086 0.6959,-8.60711 0.0581,-12.18111c-0.33849,-1.89681 -3.86292,-0.37332 -5.77809,-0.16215c-6.92136,0.76318 -13.56464,2.88965 -20.54926,3.18912c-1.4172,-0.00339 -2.83492,-0.04875 -4.25159,-0.01018c-1.85537,0.05054 -4.0601,1.36902 -5.56129,0.27748c-2.25201,-1.63745 -2.83396,-4.79889 -4.08094,-7.28841c-4.3315,-8.64759 -7.83409,-18.41196 -10.21956,-27.77019c-0.90774,-3.56105 -1.94021,-7.10377 -2.52261,-10.73226c-0.1378,-0.85855 0.97139,-2.38214 0.13097,-2.60533c-1.34068,-0.35607 -2.52262,1.16503 -3.83224,1.62229c-4.35578,1.52086 -9.2203,3.49167 -13.61946,4.71201c-12.21428,3.38833 -25.09668,4.62104 -37.41365,7.71776c-3.69845,0.9283 -9.48414,1.0338 -12.802,2.97206c-1.08199,0.63209 -1.8686,4.65266 -1.88872,4.85376c-0.46288,4.62681 0.02684,10.52983 0.46904,15.12847c1.87841,19.53399 6.55253,38.50776 6.55253,58.15256v0.63554c0,0 0,3.17765 -3.17765,3.17765z" fill="#b8b1c9" stroke="none" stroke-width="0.5" stroke-linecap="butt"/><path d="M-9.80843,365.9205v-48.60097h506.43006v48.60097z" fill="#5d5965" stroke="none" stroke-width="NaN" stroke-linecap="butt"/><path d="M287.57612,321.13276c-3.17765,0 -3.17765,-3.17765 -3.17765,-3.17765l0.16307,-0.26619c-2.35277,-7.1291 -3.16447,-14.84712 -4.42793,-22.2462c-3.15801,-18.49386 -5.21203,-37.39339 -6.20077,-56.13542c-0.70808,-13.51703 -2.12342,-27.52905 -5.32802,-40.69803c-0.84223,-3.46107 -2.10876,-6.83565 -3.54249,-10.09452c-0.37285,-0.84751 -0.4342,-2.0163 -1.22923,-2.49089c-0.67094,-0.40051 -1.53315,0.34216 -2.3138,0.37599c-4.2329,0.18359 -8.47377,0 -12.71064,0c-14.61725,0 -29.2345,0 -43.85175,0c-12.71063,0 -25.42132,0.00992 -38.13195,0c-3.89672,-0.00305 -7.77329,0.56174 -11.6573,0.87651c-1.44797,0.11734 -3.23222,-1.00223 -4.35732,-0.08329c-0.80407,0.65673 0.67776,1.98517 0.76183,3.01996c0.00658,0.08108 -0.00591,12.46013 -0.00166,12.60787c0.50246,17.44036 1.27273,34.74939 1.27273,52.21647c-0.05972,2.04537 0.51908,4.21266 -0.17913,6.13609c-0.69234,1.90734 -2.12793,3.59344 -3.7802,4.77127c-1.48622,1.05945 -3.49149,1.06668 -5.22226,1.64615c-5.01281,1.67834 -9.84252,3.92389 -14.85466,5.58622c-5.22652,1.73342 -8.87277,4.40899 -12.91767,-1.26532c-2.11182,-2.96253 -1.75783,-7.06599 -2.40807,-10.6456c-0.85853,-4.72626 -1.60572,-8.97085 -1.96379,-13.83385c-1.0892,-14.79245 -2.87494,-29.43787 -4.83582,-44.14442c-3.6834,-27.68211 -2.77442,-55.76272 -2.77442,-83.619c0,-7.78744 0.14917,-15.6111 -0.17977,-23.39359c-0.1013,-2.39687 -0.88588,-4.9971 0.07176,-7.19668c-2.66265,1.64888 -7.59003,0.51695 -10.38292,0.70478c-2.86012,0.19234 -5.70848,0.6465 -8.57502,0.65099c-11.01718,0.0173 -21.94606,0.26765 -32.94196,0.63379c-4.76837,0.15876 -9.69651,-0.36073 -14.4609,-0.00906c-4.63766,0.34232 -9.67225,2.12793 -14.1822,3.11108c-1.52993,0.33352 -3.05185,0.70511 -4.56537,1.10658c-0.55243,0.14654 -1.437,-0.00205 -1.62849,0.53644c-0.82017,2.30631 0.41247,4.88402 0.41247,7.33183c0,34.95328 5.03702,69.76429 7.62106,104.67881c0.58911,13.99274 0.22146,28.33493 1.43438,42.26192c0.72347,8.30711 2.66172,16.69458 3.81404,24.96673c1.86065,13.35679 3.01883,26.25072 3.01883,39.72488c0,0 0,3.17765 -3.17765,3.17765c-3.17765,0 -3.17765,-3.17765 -3.17765,-3.17765c0,-15.30295 -1.69628,-29.97627 -3.85179,-45.13095c-0.8945,-6.28893 -2.40671,-12.6892 -2.95712,-19.00928c-1.21837,-13.98959 -0.85867,-28.39097 -1.44765,-42.44516c-2.59761,-35.03712 -7.63173,-69.96886 -7.63173,-105.04695c0,-1.6138 -0.10145,-9.53398 0.41247,-10.46309c0.92797,-1.67762 2.98256,-2.48106 4.72682,-3.27675c4.75707,-2.17004 11.29051,-2.8185 16.40886,-3.97804c6.21048,-1.40692 12.71294,-0.50082 19.02019,-0.71081c12.54725,-0.41777 25.43403,0.35254 37.92458,-0.62184c6.27167,-0.48923 11.94021,-0.80131 18.21604,0.06924c4.3908,12.92328 2.43413,28.30617 2.43413,41.86044c0,25.47425 -0.66342,51.11157 2.71866,76.42372c1.97988,14.84909 3.77508,29.64038 4.87845,44.57602c0.35063,4.74647 1.05479,8.60782 1.89486,13.22415c0.47635,2.61764 0.20585,5.43471 1.24431,7.88431c1.00887,2.3798 10.5933,-2.85326 11.53754,-3.2099c3.64364,-1.37623 9.2868,-2.50562 12.82663,-4.26871c0.6122,-0.30492 1.16975,-0.91346 1.30406,-1.58407c0.26425,-1.31926 -0.11941,-2.68829 -0.17913,-4.03242c0,-17.39922 -0.76676,-34.63839 -1.26941,-52.01091c-0.12353,-4.26936 -0.24224,-8.54907 -0.00166,-12.81342c0.13497,-2.39255 -0.90873,-5.43053 0.76183,-7.14857c0.85026,-0.87444 12.16181,-2.85325 14.24237,-3.01023c14.72172,-1.1107 29.96689,-0.00973 44.73584,-0.00973c14.61725,0 29.2345,0 43.85175,0c4.23687,0 8.47597,-0.13646 12.71064,0c1.77439,0.05719 3.79108,-0.5387 5.31261,0.37599c4.42415,2.65976 6.80174,12.00315 7.93892,16.64909c3.31832,13.55702 4.77266,27.98456 5.50857,41.90364c0.9711,18.49528 3.00229,37.14959 6.11887,55.39967c1.20334,7.04646 1.9078,14.52996 4.19247,21.30625l0.16307,2.27592c0,0 0,3.17765 -3.17765,3.17765z" fill="#b8b1c9" stroke="none" stroke-width="0.5" stroke-linecap="butt"/><path d="M419.76691,294.44038c-3.17765,0 -3.17765,-3.17765 -3.17765,-3.17765c0,-13.76987 0,-29.44634 0,-43.21621c0,-9.38251 0.49094,-18.88862 -0.61239,-28.2161c-1.03518,-8.75118 -3.18783,-17.64072 -3.2008,-26.43969c-0.00889,-6.02295 -2.0928,-14.75615 4.50375,-18.18857c1.13758,-0.59192 2.52496,-0.27211 3.83455,-0.23621c-0.07638,-0.37656 -0.07638,-0.64122 -0.07638,-0.64122c0,-15.87388 1.24835,-32.28502 0.00615,-48.10303c-1.19418,-15.20653 -3.54707,-30.36222 -4.84103,-45.57964c-1.05582,-12.42015 -0.88492,-24.77476 -0.88492,-37.23705c0,-1.07052 -0.26932,-9.61926 0.8617,-10.43766c2.17998,-1.5774 8.83287,-1.2226 12.14343,-1.61912c5.76109,-0.68999 11.56196,-2.02889 17.40371,-1.92348c1.86653,0.03367 4.05297,-0.60007 5.58051,0.47311c3.80211,2.67125 3.38347,6.0468 3.41367,9.69394c0.0649,7.83701 0,15.67737 0,23.5147c0,43.72589 -1.20357,87.62552 1.26068,131.28973c1.10067,12.12602 4.42434,24.35261 4.45912,36.49087l0.54067,1.77143c0,0 0.77071,3.08278 -2.3121,3.85349c-3.08278,0.77071 -3.85349,-2.3121 -3.85349,-2.3121l-0.7304,-3.31283c0.03869,-11.93365 -3.35966,-24.09585 -4.44199,-36.02432c-2.47941,-43.81992 -1.27781,-87.87425 -1.27781,-131.75628c0,-7.83701 -0.07567,-15.67815 0,-23.5147c0.00228,-0.23518 0.37427,-3.86972 -0.39954,-4.28777c-0.61583,-0.33272 -1.35051,0.393 -2.04587,0.47311c-1.45697,0.16784 -2.93049,0.14183 -4.39161,0.26843c-5.41759,0.46934 -11.04661,2.10385 -16.49182,1.87256c-1.42121,-0.06037 -2.81278,-0.76838 -4.22519,-0.5993c-0.43737,0.05236 0.79994,0.56577 0.8617,1.00193c0.23757,1.67803 0,3.3895 0,5.08426c0,3.3895 0,6.77902 0,10.16852c0,8.91365 0.10686,17.646 0.86208,26.5302c1.2972,15.26357 3.67223,30.46867 4.85157,45.72307c1.23371,15.95769 0.00615,32.48658 0.00615,48.49792c0,0 0,2.77625 -2.595,3.13881c0.03429,0.20718 0.05285,0.43152 0.05285,0.67441c0,3.17765 -3.17765,3.17765 -3.17765,3.17765c-4.0523,-0.49968 -2.54212,2.50524 -2.54212,5.7198c0,3.28514 -0.31448,6.58391 -0.01546,9.85541c0.8759,9.58332 3.21938,19.07696 3.82151,28.72094c0.46286,7.41363 0.00717,15.00475 0.00717,22.43476c0,13.76987 0,27.53974 0,41.30962v1.90661c0,0 0,3.17765 -3.17765,3.17765z" fill="#b8b1c9" stroke="none" stroke-width="0.5" stroke-linecap="butt"/><g data-paper-data="{&quot;index&quot;:null}" stroke-linecap="butt"><g><path d="M219.56092,168.81855c-2.9643,6.37495 -15.20621,-5.4688 -15.89878,-13.52364c-0.12316,-1.43232 3.30293,-7.48822 3.65704,-8.24141c10.92938,-23.24825 11.50337,-28.5064 11.50337,-28.5064c0,0 9.43635,-7.2017 13.84889,-6.34137c3.13974,0.6122 10.0787,10.69358 10.0787,10.69358c0,0 -12.45372,24.08556 -18.24448,33.10209c-1.36548,2.12611 -1.21963,4.80599 -4.94476,12.81718z" fill="#d9bb9a" stroke="#917c67" stroke-width="4"/><path d="M215.01205,173.55355c-1.66077,2.42433 -12.0667,-12.51823 -12.73998,-12.97946c-0.67326,-0.46123 1.36789,-2.66717 3.02868,-5.09151c1.66076,-2.42432 2.90436,-5.41553 3.57762,-4.95431c0.11215,0.07684 9.19924,15.56663 8.89134,16.606c-0.8132,2.74498 -1.37353,4.39877 -2.75766,6.41925z" fill="#d9bb9a" stroke="none" stroke-width="0"/><path d="M226.30356,118.06965c5.0015,-9.97471 9.33413,-3.05717 11.70584,-1.90043c2.37172,1.15675 -1.01914,9.60479 -6.02063,19.57951c-5.00151,9.97469 -6.74568,11.29913 -10.48329,18.21708c-2.51792,4.66042 -5.1303,11.07228 -7.21501,16.63134c-3.54801,9.4611 -10.69695,-7.67134 -10.67085,-8.08231c0.02372,-0.37337 5.13665,-6.69207 5.54419,-7.29603c4.68216,-6.93886 11.17661,-15.95942 11.8604,-18.50312c1.51042,-5.6187 3.35533,-14.80889 5.27934,-18.64601z" fill="#ffdbb5" stroke="none" stroke-width="0"/></g><path d="M244.26106,132.0505c-5.52869,8.83316 -24.82912,40.63922 -24.82912,40.63922c0,0 -7.0224,-6.09671 -9.53614,-9.52606c-2.18929,-2.98669 -6.48083,-10.40418 -6.48083,-10.40418c0,0 5.74717,-29.69867 9.49138,-37.01264c3.72493,-7.27633 16.82057,-16.98349 16.82057,-16.98349c0,0 18.1074,-1.43542 22.18086,7.89386c4.07346,9.32931 -2.2429,16.7597 -7.64668,25.39328z" fill="#403328" stroke="#292018" stroke-width="4"/></g><g data-paper-data="{&quot;index&quot;:null}" stroke-linecap="butt"><g fill="#d9bb9a" stroke="#917c67" stroke-width="4"><path d="M147.94813,167.30679c0.50473,-1.09317 1.41252,-2.48223 1.06389,-4.80189c-0.35261,-2.34618 -1.37501,-6.07432 1.13096,-7.1565c2.01507,-0.87017 -0.96372,-6.52327 4.38458,-6.35767c2.19236,0.06787 7.1273,2.45718 9.95332,2.78929c5.7876,0.68017 8.74817,0.58675 8.69709,-0.50647c-0.12788,-2.73777 -7.28644,-0.40629 -7.26692,-2.10071c0.02006,-1.73924 -7.99526,-1.42213 6.0436,-2.28386c11.20228,-0.68763 28.40208,3.7328 33.8629,2.97714c3.08554,0.11853 -1.26709,21.73484 -5.49031,22.33245c-2.5268,0.01532 -2.35151,0.9347 -11.09785,2.18248c-8.19758,1.1695 -15.28514,-0.22764 -18.67959,-1.4348c0,0 -24.5314,-1.46001 -22.60172,-5.63945z"/></g><path d="M184.19335,164.18241c2.2055,-7.86468 0.33955,-16.13982 0.33955,-16.13982l24.52287,1.73343l8.7629,23.3861l-36.97456,5.33658c0,0 1.27629,-6.92436 3.34923,-14.31628z" fill="#403328" stroke="#292018" stroke-width="4"/><path d="M204.66446,152.08373l10.26714,-0.7045l3.69462,16.73225c0,0 2.33912,3.43445 -0.35583,3.91257c-3.65566,0.64857 -10.92176,-0.37413 -10.92176,-0.37413z" fill="#403328" stroke="none" stroke-width="0"/></g><g data-paper-data="{&quot;index&quot;:null}"><path d="M346.43631,383.21769c-11.7788,6.15211 -50.62638,22.03234 -50.62638,22.03234c0,0 -3.81736,-3.08066 -5.21103,-4.67154c-1.3832,-1.57895 -3.11981,-4.83819 -3.11981,-4.83819c-1.73981,-1.22838 -0.34604,-1.94676 2.79846,-9.81351c1.50885,-3.77476 11.00859,-9.62265 16.50943,-12.02372c4.15931,-1.81552 5.97215,-7.54988 5.97215,-7.54988l-1.78267,-12.20168l26.98002,-23.72191c0,0 11.53388,21.03648 13.2163,23.98317c0.87894,1.53946 7.52684,8.36173 7.52684,8.36173c0,0 7.8695,10.078 5.10985,11.59582c-0.51102,0.28106 -2.9016,2.48371 -5.14757,2.97602c-2.16721,0.47506 -4.16762,-0.7718 -5.95576,0.12875c-3.18379,1.60345 -3.43451,4.26173 -6.26986,5.74266z" fill="#403328" stroke="#292018" stroke-width="4" stroke-linecap="butt"/><path d="M298.37034,397.00884c0,0 16.99676,-7.38747 31.38234,-14.01905c12.44252,-5.73584 24.40446,-12.73431 28.3528,-13.82463c2.1801,-0.60205 2.85963,3.95397 2.85963,3.95397c0,0 -1.40007,0.89572 -3.11855,0.88556c-1.9678,-0.01163 -4.40397,-0.87652 -6.50295,0.07851c-3.95245,1.79833 -6.14674,6.21093 -5.82942,6.30942c2.68009,0.83185 -32.38061,14.56896 -37.32295,16.50474c-5.63277,2.20619 -12.23476,4.92549 -12.23476,4.92549l-2.5664,-2.69042z" fill="#775f4a" stroke="none" stroke-width="0" stroke-linecap="butt"/><path d="M315.21438,364.23678l11.90303,-12.57588l1.71745,10.68216c0,0 -0.76688,1.59281 -4.91661,2.97279c-3.42348,1.13845 -10.35469,1.20707 -10.35469,1.20707" fill="none" stroke="#292018" stroke-width="4" stroke-linecap="round"/><path d="M327.1772,361.65606l-14.14209,-4.07866" fill="none" stroke="#292018" stroke-width="4" stroke-linecap="round"/></g><g data-paper-data="{&quot;index&quot;:null}" stroke-linecap="butt"><g fill="#465b9c"><path d="M282.4673,297.0271c-5.42093,1.71953 -16.71994,0.76238 -16.71994,0.76238c0,0 -3.18073,-2.10628 -4.40417,-6.22312c-1.11165,-3.74071 -2.81912,-11.21678 -4.31566,-14.79253c-3.16375,-7.55929 -12.91203,-41.32211 -12.91203,-41.32211l40.82866,-9.69823c0,0 9.30373,27.89337 10.86769,36.91149c1.64572,9.48939 3.51247,24.12443 3.51247,24.12443c0,0 -11.18591,8.43878 -16.85701,10.23767z" stroke="#2e3c67" stroke-width="4"/><path d="M252.0517,237.57048l-1.27934,-4.73471l26.2457,-7.231l1.27934,4.73471z" stroke="none" stroke-width="0"/></g><path d="M263.32502,273.31923c-1.96906,-6.27244 -5.05205,-21.80274 -6.47935,-28.12578c-3.35572,-14.86593 -4.90558,-27.67833 1.64742,-29.64479c15.15146,-4.54677 17.10494,9.5795 22.31786,33.77549c3.09723,14.37596 4.7863,30.91324 2.95499,38.76006c-0.91513,3.92119 -4.23386,6.19264 -6.12981,6.78782c-2.78516,0.87434 -6.00463,0.80586 -8.11703,-1.29114c-1.27355,-1.26422 -0.90063,-5.74349 -2.42702,-9.48011c-1.11422,-2.72768 -2.34567,-6.25361 -3.76708,-10.78153z" fill="#5671c0" stroke="none" stroke-width="0"/></g><g data-paper-data="{&quot;index&quot;:null}" stroke-linecap="butt"><g fill="#465b9c"><path d="M324.6452,344.80437c-4.30388,3.7175 -16.31881,9.19529 -16.31881,9.19529l-1.55362,-4.63553l-3.1264,-0.70335l-1.45213,-3.89829c0,0 -12.51518,-15.47467 -15.17978,-19.68999c-4.37862,-6.92677 -19.10465,-26.42998 -19.10465,-26.42998l26.25559,-23.12054c0,0 22.01238,22.21973 27.00514,29.89074c2.07997,3.19574 10.15518,15.55151 10.15518,15.55151l2.71855,3.44168l-0.02896,3.06117l4.20288,3.25086c0,0 -9.07048,10.19738 -13.57299,14.08644z" stroke="#2e3c67" stroke-width="4"/><path d="M271.06118,299.60363l-3.99767,-5.15067l24.57124,-20.83768c0,0 2.73997,5.06049 2.97889,6.42217c0.09232,0.52619 -5.15826,5.04142 -5.15826,5.04142z" stroke="none" stroke-width="0"/></g><path d="M287.13457,315.04577c-3.69306,-4.67989 -13.30363,-15.20854 -15.80169,-19.91376c-2.1944,-4.13328 -0.04554,-6.29222 2.34878,-8.47312c4.21444,-2.08547 6.90563,-8.17168 9.03647,-4.76809c10.27473,16.41173 26.06129,35.86603 30.04636,40.91595c2.24675,2.84712 9.57873,6.33115 7.75092,10.63457c-0.71045,1.67271 -3.23963,5.0818 -6.10524,6.75501c-3.01367,1.75963 -5.04385,2.78554 -7.14661,2.38157c-2.10275,-0.40399 -1.85408,-4.49189 -2.78151,-4.28907c-2.95455,0.64603 -10.41032,-14.45214 -17.3475,-23.24307z" fill="#5671c0" stroke="none" stroke-width="0"/></g><g data-paper-data="{&quot;index&quot;:null}"><g><g><path d="M248.70291,235.85986l-4.02241,-3.5268c0,0 -4.3078,-19.70065 -5.52241,-26.89438c-1.13606,-6.72853 -1.54538,-14.96573 -1.54538,-14.96573l37.29221,-10.25654c0,0 7.37302,11.20765 10.22414,19.52614c2.86201,8.35025 2.40877,29.03892 2.40877,29.03892z" fill="#465b9c" stroke="#2e3c67" stroke-width="4" stroke-linecap="butt"/><path d="M261.78189,217.51822c0,0 -3.26264,-2.82722 -4.9192,-5.17725c-2.22104,-3.15085 -7.21737,-12.03998 -7.21737,-12.03998" fill="none" stroke="#2e3c67" stroke-width="4" stroke-linecap="round"/><path d="M249.56528,240.72241l-1.92921,-11.51215l36.114,-7.74821l1.24119,11.31831z" fill="#465b9c" stroke="none" stroke-width="0" stroke-linecap="butt"/></g><g fill="none" stroke="none" stroke-width="1" stroke-linecap="butt" font-family="sans-serif" font-weight="normal" font-size="12" text-anchor="start"/><g fill="none" stroke="none" stroke-width="1" stroke-linecap="butt" font-family="sans-serif" font-weight="normal" font-size="12" text-anchor="start"/></g><path d="M256.90082,238.23692c-0.62748,-3.18218 -3.8203,-15.32833 1.77415,-16.43148c5.59447,-1.10316 10.9202,-4.43878 12.92202,-1.14143c1.68321,2.7725 8.83168,13.89898 5.83934,14.48904c-5.59447,1.10316 -19.90805,6.26603 -20.53553,3.08386z" fill="#5671c0" stroke="none" stroke-width="0" stroke-linecap="butt"/></g><path d="M292.49248,188.27204c0,0 5.21735,6.85981 -17.81896,11.1447c-24.72066,4.59819 -32.93596,2.02414 -32.93596,2.02414l-6.87572,-42.1431c0,0 -12.81882,-34.38136 -13.04669,-42.31387c-0.61157,-21.28813 12.28863,-28.37419 19.93617,-29.60475c9.60432,-1.54543 7.13193,3.26201 18.589,4.14715c5.62894,0.43487 11.31603,3.32423 15.61991,9.09795c4.30389,5.77374 -14.13086,11.15742 -14.13086,11.15742l10.9941,24.79867z" data-paper-data="{&quot;index&quot;:null}" fill="#95d2a1" stroke="#67916f" stroke-width="4" stroke-linecap="butt"/><g data-paper-data="{&quot;index&quot;:null}" fill="#403328" stroke="#292018" stroke-width="4" stroke-linecap="butt"><g><path d="M240.41711,212.10052c-2.11398,-1.66272 -4.98036,-8.20036 -4.98036,-8.20036l-7.56511,-44.85349c0,0 -9.87659,-20.35524 -11.56818,-26.30608c-0.93183,-3.2781 -2.83183,-12.06548 -3.11448,-15.11134c-0.79507,-8.56809 -0.94777,-10.49756 0.16396,-13.01184c1.11172,-2.51429 3.0827,-3.03149 4.51705,-0.17321c2.35832,4.6995 2.30496,8.69806 2.30496,8.69806c0,0 2.52146,9.16399 6.60697,26.68591c1.06447,4.56526 7.5173,18.16854 7.5173,18.16854l10.53119,53.2919c0,0 -2.29931,2.47464 -4.41329,0.81191z"/></g><path d="M211.83629,109.04247l-3.18714,-13.06138l12.06946,-2.93944c0,0 0.41876,12.03868 -1.19947,10.33389c-1.68541,-1.77556 -7.68287,5.66692 -7.68287,5.66692z"/></g><path d="M230.85737,126.34961c-1.07874,-6.36992 -3.19442,-12.68216 -0.53768,-22.06827c2.65674,-9.3861 4.56786,-13.74461 10.67159,-14.83831c5.92534,-1.06173 12.34516,6.47369 16.62163,7.32723c4.27647,0.85353 11.49392,0.68348 11.67425,3.14889c0.09208,1.25912 -2.62278,5.76419 -2.93178,7.04787c-0.84399,3.50638 -9.88309,8.39117 -9.41705,11.59266c0.43228,2.96949 2.76777,17.62895 3.79326,21.40791c3.55139,13.08697 7.87881,32.16658 5.45752,35.7818c-3.12047,4.65917 -5.64998,0.51681 -9.2614,1.12157c-4.45257,0.74562 -13.83651,5.6639 -14.22231,-7.44613c-0.11215,-3.81088 -10.76929,-36.70528 -11.84802,-43.07521z" data-paper-data="{&quot;index&quot;:null}" fill="#a6eab4" stroke="none" stroke-width="0" stroke-linecap="butt"/><g data-paper-data="{&quot;index&quot;:null}" stroke-linecap="butt"><g fill="#465b9c"><path d="M202.15327,286.03771c0,0 -0.28679,-3.80284 2.16421,-7.30244c2.22704,-3.17984 6.98806,-9.12994 8.85519,-12.51134c3.94723,-7.14844 24.22001,-35.62434 24.22001,-35.62434l32.13484,26.18603c0,0 -15.99457,24.51026 -22.03656,31.29718c-6.35774,7.14162 -16.56782,17.62699 -16.56782,17.62699c0,0 -13.28244,-3.61278 -18.09591,-6.97171c-4.60116,-3.21076 -10.67396,-12.70038 -10.67396,-12.70038z" stroke="#2e3c67" stroke-width="4"/><path d="M240.53768,238.15595l2.89583,-3.92422l21.42912,16.21906l-2.89583,3.92422z" stroke="none" stroke-width="0"/></g><path d="M237.52428,246.62769c9.49097,-11.80044 18.48044,-20.91345 23.95558,-16.96311c12.65933,9.13378 2.8956,19.37408 -12.70215,38.38454c-9.26736,11.295 -21.05804,22.81216 -28.24038,26.20321c-3.58914,1.69458 -7.34998,0.47963 -8.9544,-0.64714c-2.35687,-1.65524 -4.24544,-4.23334 -3.89513,-7.18897c0.21119,-1.78189 3.9056,-4.24731 5.87935,-7.75132c1.44081,-2.55786 3.42924,-5.69976 6.07923,-9.60853c3.67095,-5.41472 13.84104,-17.40953 17.8779,-22.42869z" fill="#5671c0" stroke="none" stroke-width="0"/></g><g data-paper-data="{&quot;index&quot;:null}"><g><g><g><path d="M235.56216,238.79629l-0.26876,-5.34167l22.48942,-39.88836l34.87921,25.12206c0,0 -2.84665,13.10361 -6.75267,20.95338c-3.92093,7.87976 -18.79656,22.00369 -18.79656,22.00369z" fill="#465b9c" stroke="#2e3c67" stroke-width="4" stroke-linecap="butt"/><path d="M257.42273,235.34709c0,0 -0.24153,-4.30938 0.27972,-7.13606c0.69887,-3.78994 3.53911,-13.57348 3.53911,-13.57348" fill="none" stroke="#2e3c67" stroke-width="4" stroke-linecap="round"/><path d="M232.72868,242.80932l6.36755,-9.71363l30.57841,20.72734l-7.11936,8.79263z" fill="#465b9c" stroke="none" stroke-width="0" stroke-linecap="butt"/></g><g stroke="#281a0d" stroke-width="4" stroke-linecap="butt"><path d="M281.32846,219.02036c0,0 -1.25829,-4.53817 -0.271,-5.99447c0.98731,-1.45629 6.19486,-2.7433 6.19486,-2.7433l8.78216,6.62838c0,0 0.44452,3.05882 -0.34397,4.84265c-0.72968,1.65077 -3.34934,5.00099 -3.34934,5.00099z" fill="#3f2b1a"/><path d="M270.66907,212.36343c0,0 -1.25829,-4.53817 -0.271,-5.99447c0.98731,-1.45629 6.19486,-2.7433 6.19486,-2.7433l9.40313,6.5117l-4.44119,10.14754z" fill="#67472a"/><path d="M259.3459,204.68747c0,0 -1.2583,-4.53817 -0.271,-5.99446c0.9873,-1.45628 6.19486,-2.7433 6.19486,-2.7433l9.45973,6.82785l-4.4978,9.8314z" fill="#3f2b1a"/><path d="M252.92425,200.00873c0,0 -0.43383,-3.78032 0.62286,-5.18525c1.0567,-1.40494 4.15126,-4.3442 4.15126,-4.3442l6.38465,4.53813l-6.15298,9.60286z" fill="#67472a"/></g><path d="M279.8287,219.80396l8.19427,-10.82547l5.23314,3.86794l-6.54236,11.98561z" fill="#465b9c" stroke="#2e3c67" stroke-width="4" stroke-linecap="butt"/><g fill="none" stroke="none" stroke-width="1" stroke-linecap="butt" font-family="sans-serif" font-weight="normal" font-size="12" text-anchor="start"/></g><path d="M239.49686,246.32324c1.81109,-2.67139 8.17818,-13.43883 12.78204,-10.20552c4.60387,3.2333 10.59562,4.71518 9.64365,8.45057c-0.80046,3.14082 -3.74358,16.02705 -6.20607,14.29762c-4.60387,-3.2333 -18.03071,-9.87132 -16.21961,-12.54269z" fill="#5671c0" stroke="none" stroke-width="0" stroke-linecap="butt"/></g><path d="M247.5237,196.60893c0,0 -0.25334,-4.04657 0.80335,-5.45151c1.0567,-1.40494 5.45629,-3.4277 5.45629,-3.4277l3.25261,2.3385l-6.15298,9.60286z" fill="#67472a" stroke="#281a0d" stroke-width="4" stroke-linecap="butt"/></g><g data-paper-data="{&quot;index&quot;:null}" stroke-linecap="butt"><path d="M249.50209,97.06246c0,0 1.58719,11.29676 -4.91888,17.2212c-6.71926,6.11855 -13.5794,9.70041 -13.5794,9.70041l-6.18557,-11.68668l-4.11796,-5.37184l10.32369,-24.70829z" fill="#d9bb9a" stroke="#917c67" stroke-width="4"/><path d="M228.59687,105.75305c2.05792,-1.82905 3.82214,-3.18822 4.61588,-2.16607c0.79373,1.02215 0.31638,4.03857 -1.74154,5.86762c-2.05792,1.82905 -4.91712,1.7781 -5.71086,0.75594c-0.79373,-1.02214 0.7786,-2.62845 2.83651,-4.45749z" fill="#ffdbb5" stroke="none" stroke-width="0"/></g><g data-paper-data="{&quot;index&quot;:null}" stroke-linecap="butt"><path d="M251.65633,87.98179c0,0 -4.27606,3.04631 -5.75088,1.31214c-0.85798,-1.00889 -1.51879,-8.01523 -1.51879,-8.01523c0,0 -3.30891,0.31566 -4.65596,-0.2673c-1.35477,-0.58628 -4.23551,-1.06186 -4.23551,-1.06186c0,0 -1.62113,-7.68827 -6.7802,-10.42608c-3.12465,-1.65819 -5.87309,6.19788 -7.1198,6.52012c-3.64422,0.94193 -1.05626,-14.79187 -10.08142,-11.6745c-3.69207,1.27525 -6.56804,-3.55255 -13.33111,-2.62108c-4.68774,0.64564 -23.12402,1.42196 -23.12402,1.42196c0,0 -0.83539,4.35043 -2.06732,5.93607c-1.23194,1.58564 -3.05444,4.32009 -3.42723,4.47937c-6.702,2.86338 -6.2563,3.33 -8.04124,2.86431c-0.14858,-0.6783 -1.70125,1.05694 -0.55879,5.23956c0.61117,2.23757 -4.49325,-1.73252 -6.24994,-4.07872c-0.8053,-1.07554 -2.72358,-5.17257 -5.24062,-6.17111c-2.54051,-1.00783 -4.30802,-11.80107 -4.06136,-13.45688c0.54377,-3.65025 2.08415,-8.79418 1.6019,-12.06597c-1.50324,-10.1992 6.96548,-19.65853 12.41929,-29.2458c7.01902,-4.39191 17.52681,-11.10011 24.53484,-13.03364c7.46653,-2.06005 13.16713,-0.05105 24.73081,-1.49075c11.5637,-1.4397 15.32837,2.33634 25.58918,8.93157c5.33104,3.42654 5.29561,6.39289 10.62923,14.08576c0.93611,1.35019 0.97233,7.92873 2.32785,10.08425c2.73192,4.34418 6.80626,6.36826 6.80626,6.36826c0,0 -1.4245,7.16175 -2.11946,9.0643c-0.69494,1.90257 -5.401,3.46467 -4.6766,4.16485c2.80313,2.70951 5.78081,6.17893 5.78081,6.17893c0,0 -2.58816,4.77175 -3.07589,7.26585c-0.40501,2.07108 2.54497,3.08893 4.63263,5.00417c0.99923,0.91672 3.1905,3.5032 3.1905,3.5032c0,0 0.55886,4.58155 -1.16065,6.99475c-2.89019,4.05622 -4.96652,4.18955 -4.96652,4.18955z" fill="#252931" stroke="#14161a" stroke-width="4"/><path d="M159.65933,60.45227c-3.24586,-0.61073 -7.82546,-13.2853 -6.41828,-18.70742c1.93334,-7.44952 -0.3857,-13.71971 10.02333,-16.04643c3.667,-0.81968 2.80958,-4.07357 7.05415,-4.08919c6.55404,-0.02411 19.48119,-2.0825 26.52245,0.57392c8.47088,3.19578 15.67391,11.03131 16.62072,15.29176c1.96729,8.85224 9.16033,14.17977 9.16033,14.17977c0,0 -0.51451,3.09674 -4.04958,3.50201c-13.66118,1.56614 -20.47688,2.83131 -37.54811,2.65434c-4.2676,-0.04424 -16.82266,3.49587 -21.36499,2.6412z" fill="#494c5e" stroke="none" stroke-width="0"/><path d="M162.91658,33.44184c0.75664,3.40471 7.38002,5.81693 5.29103,10.06694c-0.68935,1.40248 -8.4814,-1.84002 -11.44776,-2.32646c-1.40061,2.5119 12.67764,7.14037 12.26305,10.21462c-0.41462,3.07419 -12.85926,-0.51313 -13.15409,1.60315c-0.10324,0.74115 7.80342,1.58389 9.66664,3.86158c1.36763,1.67184 -2.29232,3.50176 -2.28014,4.10803c0.03876,1.92832 -6.53997,3.38846 -7.52606,2.508c-6.8287,-6.09714 -6.29591,-24.21678 -6.34183,-24.42332c-0.75666,-3.40471 9.08298,-15.0719 12.34832,-15.80179c0.82255,-0.18388 8.2309,-3.11655 8.9153,-1.72991c0.16848,0.34132 -2.54609,1.04952 -3.89661,2.31002c-1.62263,1.51448 -1.93376,3.61999 -1.67473,4.09476c0.90008,1.6498 3.37134,3.00708 3.22769,4.26353c-0.1957,1.71194 -5.65774,0.04996 -5.39084,1.25085z" fill="#252931" stroke="none" stroke-width="0"/><path d="M208.09914,53.84864c-1.66961,-1.97816 -10.97432,-2.65741 -16.17166,-3.98436c-1.78635,-0.45609 -3.60517,-2.53636 -3.92489,-3.41849c-0.34438,-0.9502 5.08339,-2.09755 10.12236,-2.14167c6.50632,-0.05698 13.12857,1.0232 13.8255,-0.59617c0.61123,-1.42023 -13.39389,-1.67775 -14.67082,-4.50534c-0.80387,-1.78009 12.27609,-1.83403 11.55688,-3.84737c-0.25189,-0.70507 -2.73003,-1.63825 -5.42851,-2.77593c-1.98073,-0.83508 -7.66916,-5.6232 -7.9605,-6.15433c-0.92662,-1.6894 6.88561,-1.11191 8.16336,-0.7976c8.84838,2.17657 13.54985,18.1974 13.68594,18.35865c0.88343,1.0467 7.19839,5.49189 7.00871,8.65573c-0.29201,4.87056 -8.62695,3.77192 -10.16918,5.09804c-0.64087,0.55104 -3.14493,0.07312 -4.39067,-0.83188c-0.67509,-0.49043 -9.36759,2.32599 -10.18912,1.77958c-1.55788,-1.0362 3.85659,-2.80865 5.40161,-3.60905c1.54502,-0.80038 3.93224,-0.29234 3.14093,-1.22987z" fill="#252931" stroke="none" stroke-width="0"/><path d="M185.77771,30.4203c0.10203,2.89538 -2.67786,4.15384 -6.12859,4.26657c-3.45072,0.11274 -8.87825,-2.9674 -8.98027,-5.86278c-0.10205,-2.89539 4.89202,-3.05596 8.34275,-3.16867c3.45073,-0.11272 6.66406,1.86946 6.76611,4.76485z" fill="#686c85" stroke="none" stroke-width="0"/><path d="M198.58261,32.92772c0.05892,1.67173 -2.69987,2.15135 -4.69225,2.21643c-1.99235,0.06508 -3.90418,-0.58439 -3.9631,-2.25611c-0.0589,-1.67172 1.78047,-2.74227 3.77285,-2.80734c1.99236,-0.06509 4.82357,1.1753 4.88249,2.84704z" fill="#686c85" stroke="none" stroke-width="0"/><path d="M176.12145,39.04391c-0.19197,1.66066 -1.08638,1.39157 -3.06657,1.15171c-1.98019,-0.23984 -3.77376,-1.17342 -3.58177,-2.8341c0.19197,-1.66067 1.702,-0.84842 3.6822,-0.60856c1.98019,0.23984 3.15813,0.63026 2.96615,2.29093z" fill="#686c85" stroke="none" stroke-width="0"/><path d="M152.05414,48.35348c-3.52241,-0.82335 -3.72454,-4.13306 -0.20214,-3.3097c3.52239,0.82335 5.44808,2.44968 5.2274,3.42541c-0.22068,0.97574 -1.50288,0.70762 -5.02529,-0.11572z" fill="#494c5e" stroke="none" stroke-width="0"/><path d="M242.772,43.59109c0.24138,1.0302 -0.84955,1.43406 -3.21232,1.94831c-0.31012,0.06749 -1.07745,2.80551 -1.35656,3.8854c-0.42069,1.62768 -1.28529,1.83802 -1.92527,1.9101c-0.88577,0.09977 -1.67641,-2.46871 -2.45864,-2.28395c-0.74381,0.17569 -2.14064,10.58744 -3.06886,10.51869c-1.89186,-0.14018 -2.21048,-7.49906 -4.04567,-10.19343c-2.80767,-4.12212 -6.81335,-4.2431 -7.00932,-5.07951c-0.38692,-1.65132 7.58175,-0.96043 12.16106,-2.04205c1.43545,-0.33906 -9.08419,-1.93661 -6.80453,-2.5384c0.98929,-0.26118 6.46072,-1.597 11.10551,-1.6101c2.30978,-0.0065 5.75065,0.6681 6.03693,0.43228c2.17463,-1.79121 3.12117,2.4716 3.30799,3.26895z" fill="#494c5e" stroke="none" stroke-width="0"/><path d="M218.85416,24.30524c2.03523,-0.48074 5.52343,0.65206 5.74743,1.6081c0.224,0.95602 -0.66878,1.4154 -2.70404,1.89611c-2.03525,0.48073 -6.92037,-1.08133 -7.14437,-2.03737c-0.224,-0.95602 2.06571,-0.98614 4.10098,-1.46687z" fill="#494c5e" stroke="none" stroke-width="0"/><path d="M237.64758,57.09109c-0.04369,-1.73257 -0.08782,-3.20589 0.68751,-3.38901c0.77533,-0.18312 2.63028,2.53158 3.02592,4.22014c0.39562,1.68859 1.78666,4.13324 1.01132,4.31637c-0.77533,0.18312 -4.68008,-3.37602 -4.72475,-5.14749z" fill="#494c5e" stroke="none" stroke-width="0"/><path d="M236.1012,62.29742c-0.06024,-2.38857 -0.12107,-4.41963 0.94781,-4.6721c1.06886,-0.25248 3.62608,3.49002 4.17152,5.81787c0.54543,2.32789 2.46311,5.6981 1.39422,5.95057c-1.06889,0.25247 -6.45199,-4.65419 -6.51356,-7.09633z" fill="#494c5e" stroke="none" stroke-width="0"/></g><g data-paper-data="{&quot;index&quot;:null}" stroke-linecap="butt"><path d="M201.97394,118.31368c-8.14939,0.17954 -15.95627,1.1284 -25.03805,-8.27415c-3.06808,-3.17647 -5.15941,-6.28168 -5.15941,-6.28168c0,0 -4.45095,-4.9649 -5.45837,-8.30595c-1.00743,-3.34103 0.97653,-7.76845 -0.12448,-11.27332c-1.3547,-4.31243 -7.46398,-21.36974 -7.52856,-24.30155c-0.62219,-28.24253 16.50402,-33.06517 41.28097,-33.61104c24.77695,-0.54586 42.17908,15.15528 42.80129,43.39779c0.24612,11.17129 -8.0794,18.96609 -13.69703,26.86081c-4.05711,5.70166 -7.03446,12.73346 -11.2088,16.58159c-4.65815,4.29413 -10.5515,5.09035 -15.86757,5.20749z" data-paper-data="{&quot;index&quot;:null}" fill="#d9bb9a" stroke="#917c67" stroke-width="4"/><path d="M165.70897,66.75167c-0.49777,-22.59399 11.29181,-33.15847 33.83245,-33.65506c22.82475,-0.50285 35.99518,14.6896 36.49296,37.28359c0.2742,12.44628 -7.76379,22.19459 -15.62979,29.87484c-6.41336,6.26191 -11.93414,11.66236 -19.12317,11.82074c-5.191,0.11435 -12.76449,1.55958 -19.82675,-5.54644c-5.0387,-5.06992 -10.10399,-10.57453 -10.89967,-12.21554c-0.79567,-1.64099 1.25366,-8.0858 0.3359,-11.43653c-1.42403,-5.19907 -5.11414,-13.04915 -5.18192,-16.12564z" fill="#ffdbb5" stroke="none" stroke-width="0"/></g><path d="M224.36134,87.23114c0.20338,-6.41103 5.3026,-17.12416 8.837,-17.44879c3.53442,-0.32462 6.23474,4.60939 6.03136,11.0204c-0.20339,6.41102 -3.2335,11.87135 -6.76792,12.19596c-3.53441,0.32463 -8.30385,0.64342 -8.10045,-5.76759z" data-paper-data="{&quot;index&quot;:null}" fill="#d9bb9a" stroke="#917c67" stroke-width="4" stroke-linecap="butt"/><g data-paper-data="{&quot;index&quot;:null}" stroke="none" stroke-width="0" stroke-linecap="butt"><path d="M201.35373,68.47844c2.07466,7.56783 -1.76963,15.21771 -8.58645,17.08647c-6.81684,1.86878 -14.02479,-2.75121 -16.09945,-10.31905c-2.07466,-7.56782 1.76963,-15.21771 8.58645,-17.08647c6.81682,-1.86877 14.02479,2.75121 16.09945,10.31905z" fill="#d3f0f1"/><path d="M177.53042,74.89693c-1.90045,-6.93237 1.14561,-13.80953 6.80356,-15.36063c5.65796,-1.55108 11.78528,2.81131 13.68571,9.74367c1.90042,6.93236 -1.14564,13.80952 -6.80359,15.36062c-5.65794,1.55109 -11.78526,-2.81129 -13.6857,-9.74367z" fill="#ffffff"/></g><g data-paper-data="{&quot;index&quot;:null}" stroke="none" stroke-width="0" stroke-linecap="butt"><g data-paper-data="{&quot;index&quot;:null}"><path d="M188.98739,58.65033c4.20277,-1.15215 8.92728,2.71989 10.55254,8.64845c1.62523,5.92858 -0.46422,11.66858 -4.66697,12.82074c-4.20275,1.15215 -8.92725,-2.71987 -10.55252,-8.64844c-1.62525,-5.92856 0.4642,-11.66858 4.66694,-12.82074z" fill="#41563d"/><path d="M199.18853,66.01702c0.89755,3.27398 -1.78004,9.61294 -5.66557,10.67813c-3.88556,1.06518 -8.08208,-3.38929 -8.97959,-6.66328c-0.89752,-3.27397 -1.07666,-9.52359 5.10619,-11.21855c3.88555,-1.06521 8.64147,3.92974 9.53899,7.20373z" fill="#5f7d59"/></g><path d="M184.64016,67.52578c-0.68252,-2.48955 0.78241,-5.06105 3.27198,-5.74354c2.48956,-0.6825 5.06105,0.78243 5.74355,3.27201c0.6825,2.48956 -0.78243,5.06105 -3.27201,5.74355c-2.48956,0.68248 -5.06103,-0.78244 -5.74352,-3.27202z" fill="#8ebb85"/><path d="M192.88958,72.7919c-1.37724,0.37756 -2.79975,-0.43282 -3.17729,-1.81004c-0.37756,-1.37724 0.43282,-2.79976 1.81004,-3.1773c1.37724,-0.37756 2.79975,0.43283 3.17729,1.81005c0.37755,1.37723 -0.43282,2.79973 -1.81004,3.17728z" fill="#8ebb85"/></g><g data-paper-data="{&quot;index&quot;:null}" stroke-linecap="butt"><path d="M251.74882,96.97162c0,0 -4.78285,2.16544 -5.89594,0.17963c-0.64755,-1.15528 0.05385,-8.15767 0.05385,-8.15767c0,0 -3.30775,-0.32773 -4.51724,-1.15928c-1.21644,-0.8363 -3.95159,-1.85797 -3.95159,-1.85797c0,0 -0.10957,-7.85656 -4.64453,-11.53701c-2.74665,-2.22911 -6.95712,4.95029 -8.24256,5.0263c-3.75741,0.2222 1.81326,-14.71826 -7.64339,-13.39803c-3.86859,0.54006 -5.76058,-4.75137 -12.57641,-5.14029c-4.72431,-0.26958 -22.96477,-3.05965 -22.96477,-3.05965c0,0 -1.65787,4.10798 -3.17222,5.42659c-1.51434,1.31859 -3.82951,3.6507 -4.22599,3.73517c-7.1281,1.51855 -6.78065,2.0623 -8.44243,1.26146c-0.01511,-0.69422 -1.87299,0.70939 -1.55776,5.03375c0.16864,2.3134 -4.07529,-2.56571 -5.34708,-5.20639c-0.58301,-1.21054 -1.67603,-5.60038 -3.95355,-7.06515c-2.29876,-1.4784 -1.95378,-12.40996 -1.39272,-13.98723c1.23682,-3.4771 3.73935,-8.22791 3.89648,-11.53132c0.48985,-10.29774 10.62232,-17.94832 17.821,-26.30528c7.73365,-2.95738 19.33696,-7.51552 26.58622,-8.06269c7.72352,-0.58299 12.9303,2.48663 24.55472,3.30171c11.62443,0.81508 14.59111,5.24568 23.38908,13.69415c4.57103,4.38941 3.96478,7.29335 7.7164,15.86966c0.65846,1.50525 -0.5734,7.96752 0.34147,10.34381c1.84381,4.78911 5.45187,7.56022 5.45187,7.56022c0,0 -2.77757,6.75315 -3.82604,8.48616c-1.04846,1.73304 -5.9673,2.35923 -5.39137,3.18585c2.22862,3.19879 4.48211,7.17689 4.48211,7.17689c0,0 -3.45899,4.18372 -4.41807,6.53715c-0.79643,1.95425 1.90219,3.52137 3.58176,5.80293c0.8039,1.09205 2.45582,4.05224 2.45582,4.05224c0,0 -0.33428,4.60338 -2.4865,6.64011c-3.61751,3.42342 -5.68062,3.15423 -5.68062,3.15423z" fill="#252931" stroke="#14161a" stroke-width="4"/><path d="M166.77899,52.23407c-3.06739,-1.22462 -5.11937,-14.54404 -2.69394,-19.59348c3.33232,-6.9375 2.26469,-13.537 12.92699,-13.81478c3.75622,-0.09786 3.54174,-3.45598 7.70981,-2.65356c6.43591,1.23902 19.51745,1.70967 25.91502,5.67287c7.6965,4.76788 13.25504,13.84433 13.36331,18.20737c0.22499,9.06542 6.25691,15.67892 6.25691,15.67892c0,0 -1.10148,2.9396 -4.64841,2.65623c-13.70698,-1.0951 -20.63875,-1.16673 -37.35608,-4.62925c-4.17914,-0.86559 -17.18101,0.1894 -21.4736,-1.52437z" fill="#494c5e" stroke="none" stroke-width="0"/><path d="M175.17893,26.35718c0.08654,3.4867 6.1211,7.12976 3.25245,10.8977c-0.94664,1.24339 -7.96802,-3.43954 -10.7851,-4.48835c-1.85831,2.195 11.06452,9.44903 10.06541,12.38581c-0.99911,2.93673 -12.5195,-2.98093 -13.21653,-0.9611c-0.24409,0.70738 7.35208,3.0576 8.7416,5.65157c1.01991,1.904 -2.92402,2.99453 -3.02887,3.59179c-0.33347,1.89966 -7.07026,2.06502 -7.86824,1.01107c-5.52613,-7.29851 -1.51247,-24.97605 -1.51772,-25.18757c-0.08656,-3.4867 11.81651,-13.03965 15.1613,-13.12679c0.84257,-0.02197 8.67713,-1.47244 9.08155,0.02008c0.09956,0.36738 -2.70058,0.53933 -4.26865,1.51604c-1.884,1.1735 -2.59494,3.17962 -2.43224,3.6954c0.56538,1.7923 2.72885,3.60026 2.34583,4.80549c-0.52184,1.64217 -5.56138,-1.04098 -5.53084,0.18884z" fill="#252931" stroke="none" stroke-width="0"/><path d="M215.58356,55.08637c-1.25722,-2.26277 -10.25677,-4.72189 -15.1011,-7.02529c-1.66501,-0.79169 -3.04899,-3.18341 -3.19277,-4.1106c-0.15487,-0.99875 5.39227,-1.07892 10.34534,-0.15141c6.39541,1.19757 12.6855,3.53332 13.68135,2.07855c0.87339,-1.27587 -12.81974,-4.22673 -13.52801,-7.24736c-0.44587,-1.90161 12.39945,0.56539 12.0816,-1.54879c-0.11134,-0.7404 -2.36328,-2.13351 -4.79202,-3.76976c-1.78274,-1.20104 -6.44215,-6.99536 -6.6257,-7.57268c-0.58379,-1.83627 6.97083,0.23548 8.16409,0.79006c8.26328,3.84048 9.79017,20.46695 9.89265,20.65141c0.66523,1.19729 6.00551,6.77582 5.20984,9.84384c-1.22488,4.72306 -9.19202,2.03923 -10.96085,3.04339c-0.73502,0.41725 -3.1001,-0.53415 -4.14816,-1.66219c-0.56795,-0.61129 -9.64022,0.4777 -10.34109,-0.21675c-1.32907,-1.31692 4.32543,-2.01304 5.99572,-2.50079c1.67027,-0.48773 3.9149,0.47071 3.31904,-0.60171z" fill="#252931" stroke="none" stroke-width="0"/><path d="M198.1939,27.79657c-0.4577,2.8608 -3.42796,3.56012 -6.83576,3.00594c-3.4078,-0.55418 -8.14025,-4.62226 -7.68255,-7.48306c0.45768,-2.86081 5.38913,-2.05623 8.79692,-1.50203c3.4078,0.5542 6.17906,3.11831 5.72139,5.97911z" fill="#686c85" stroke="none" stroke-width="0"/><path d="M210.27585,32.72395c-0.26425,1.65176 -3.06375,1.5909 -5.03136,1.27092c-1.96757,-0.31998 -3.71846,-1.3256 -3.45421,-2.97737c0.26427,-1.65175 2.27543,-2.34788 4.24302,-2.02789c1.96758,0.31998 4.50677,2.08257 4.24252,3.73434z" fill="#686c85" stroke="none" stroke-width="0"/><path d="M187.05715,34.39829c-0.50831,1.59256 -1.33412,1.15621 -3.231,0.53934c-1.89689,-0.61684 -3.47699,-1.87847 -2.96866,-3.47106c0.50831,-1.59257 1.83357,-0.50463 3.73046,0.11224c1.89689,0.61684 2.97754,1.22688 2.46922,2.81946z" fill="#686c85" stroke="none" stroke-width="0"/><path d="M161.64718,38.89675c-3.2978,-1.48653 -2.85851,-4.77318 0.43928,-3.28664c3.29778,1.48653 4.87406,3.4534 4.46954,4.36833c-0.40453,0.91495 -1.61105,0.40483 -4.90885,-1.08171z" fill="#494c5e" stroke="none" stroke-width="0"/><path d="M251.58305,51.7009c0.03838,1.05741 -1.1099,1.24353 -3.5275,1.29294c-0.31731,0.00647 -1.59777,2.54538 -2.07969,3.55126c-0.72639,1.51614 -1.61531,1.55596 -2.2572,1.5034c-0.8884,-0.07274 -1.16939,-2.74544 -1.97255,-2.71483c-0.76372,0.0291 -4.14028,9.97669 -5.03786,9.7304c-1.82942,-0.50203 -0.72433,-7.78443 -2.00605,-10.7819c-1.96093,-4.58581 -5.86825,-5.47624 -5.89941,-6.33474c-0.06153,-1.69493 7.62475,0.51824 12.32666,0.33911c1.47388,-0.05615 -8.54091,-3.65045 -6.18802,-3.80178c1.02108,-0.06569 6.64736,-0.32239 11.20767,0.55961c2.26776,0.43862 5.5142,1.76348 5.84055,1.58723c2.47898,-1.3387 2.58653,3.02661 2.61624,3.84501z" fill="#494c5e" stroke="none" stroke-width="0"/><path d="M231.82884,28.16844c2.08973,-0.07963 5.29434,1.70396 5.32994,2.68525c0.03563,0.98127 -0.92893,1.26004 -3.01868,1.33965c-2.08974,0.07962 -6.5824,-2.39432 -6.61802,-3.37561c-0.03563,-0.98127 2.217,-0.56969 4.30675,-0.64931z" fill="#494c5e" stroke="none" stroke-width="0"/><path d="M243.95379,63.96076c0.29092,-1.70853 0.53145,-3.16275 1.32755,-3.19307c0.79608,-0.03032 2.09328,2.9909 2.1562,4.72405c0.06289,1.73317 0.9569,4.40002 0.1608,4.43034c-0.79608,0.03032 -3.942,-4.21442 -3.64453,-5.96131z" fill="#494c5e" stroke="none" stroke-width="0"/><path d="M241.43334,68.77163c0.40107,-2.35542 0.73267,-4.36016 1.83016,-4.40197c1.09748,-0.04183 2.88578,4.12322 2.97253,6.51255c0.08673,2.38936 1.3192,6.06588 0.22169,6.1077c-1.09751,0.04181 -5.43447,-5.81001 -5.0244,-8.21827z" fill="#494c5e" stroke="none" stroke-width="0"/></g><path d="M190.10835,54.15259c5.45386,-2.16841 10.10869,1.73742 10.10869,1.73742c1.254,2.95129 -6.68499,4.74007 -12.13883,6.90849c-5.45386,2.1684 -12.11194,5.69337 -13.36591,2.74208c-1.254,-2.95129 9.94219,-9.21959 15.39605,-11.388z" data-paper-data="{&quot;index&quot;:null}" fill="#424956" stroke="#14161a" stroke-width="4" stroke-linecap="butt"/><path d="M205.99588,89.81325c3.91977,1.10685 6.2656,2.00475 3.61709,8.33943c-1.29705,3.10228 -9.77484,6.25146 -12.59263,6.25146c-5.79722,0 -7.14999,-2.30498 -7.14999,-4.12949c0,-1.82453 -1.38553,-4.12949 4.4117,-4.12949c5.79722,0 7.79406,-7.43875 11.71383,-6.33189z" fill="#ffffff" stroke="#d9bb9a" stroke-width="4" stroke-linecap="butt"/><g data-paper-data="{&quot;index&quot;:null}" stroke="none" stroke-width="0" stroke-linecap="butt"><path d="M171.79788,77.95617c1.47985,5.55413 1.01841,11.2578 -1.03064,12.73948c-2.04907,1.48171 -4.90982,-1.81965 -6.38968,-7.37379c-1.47985,-5.55412 -1.01841,-11.2578 1.03064,-12.73948c2.04907,-1.4817 4.90982,1.81965 6.38968,7.37379z" fill="#d3f0f1"/><path d="M164.62499,83.05137c-1.35559,-5.08775 -1.07581,-10.20912 0.62491,-11.43895c1.70072,-1.2298 4.17836,1.89767 5.53394,6.98542c1.35559,5.08775 1.07579,10.20912 -0.62493,11.43895c-1.70071,1.22982 -4.17835,-1.89766 -5.53394,-6.98542z" fill="#ffffff"/></g><g data-paper-data="{&quot;index&quot;:null}" stroke="none" stroke-width="0" stroke-linecap="butt"><g data-paper-data="{&quot;index&quot;:null}"><path d="M166.68969,70.88858c1.26331,-0.91351 3.2272,1.87316 4.38651,6.22421c1.1593,4.35106 1.07498,8.61879 -0.18832,9.5323c-1.2633,0.91352 -3.22719,-1.87315 -4.3865,-6.2242c-1.1593,-4.35105 -1.07499,-8.61879 0.1883,-9.5323z" fill="#41563d"/><path d="M170.82554,76.17209c0.64021,2.40281 0.42519,7.12144 -0.74277,7.966c-1.16796,0.84456 -3.0192,-2.37991 -3.65941,-4.78274c-0.6402,-2.40281 -1.35689,-7.01255 0.50161,-8.35644c1.16795,-0.84458 3.26036,2.77037 3.90057,5.17319z" fill="#5f7d59"/></g><path d="M166.19152,77.50432c-0.48683,-1.82712 -0.27483,-3.74699 0.47351,-4.28812c0.74834,-0.54113 1.74964,0.50138 2.23648,2.32851c0.48683,1.82712 0.27482,3.74699 -0.47352,4.28813c-0.74834,0.54112 -1.74963,-0.50139 -2.23646,-2.32852z" fill="#8ebb85"/><path d="M169.46338,81.26688c-0.41398,0.29936 -0.9679,-0.27735 -1.23719,-1.28811c-0.26932,-1.01078 -0.15203,-2.07282 0.26195,-2.37217c0.41398,-0.29936 0.9679,0.27736 1.23719,1.28812c0.26932,1.01077 0.15203,2.0728 -0.26195,2.37216z" fill="#8ebb85"/></g><g data-paper-data="{&quot;index&quot;:null}" stroke-linecap="butt"><g fill="#465b9c"><path d="M199.16966,357.85248l1.67678,-4.56329l-1.93111,-2.5304l1.30002,-3.9301c0,0 0.05656,-19.89339 0.63487,-24.83898c0.9503,-8.12678 1.81333,-32.53318 1.81333,-32.53318l34.07265,-1.13881c0,0 2.97488,31.13462 2.03111,40.22596c-0.39318,3.78742 -1.8881,18.45209 -1.8881,18.45209l-0.06166,4.38317l-1.90488,2.34269l1.17795,5.17977c0,0 -13.1304,2.09798 -18.9268,2.23478c-5.54069,0.13077 -17.99417,-3.28372 -17.99417,-3.28372z" stroke="#2e3c67" stroke-width="4"/><path d="M204.45499,292.20157l0.14581,-6.51463l31.39495,-0.44897c0,0 -1.04122,5.64538 -1.69821,6.84756c-0.25386,0.46457 -7.00104,0.60867 -7.00104,0.60867z" stroke="none" stroke-width="0"/></g><path d="M207.10868,314.33236c0.08652,-5.95785 -0.70328,-20.18948 0.30233,-25.40702c0.88335,-4.58331 3.83602,-4.88221 6.9878,-5.04194c4.46916,1.07116 10.24761,-1.91203 9.76504,2.06806c-2.32686,19.19161 -2.358,44.23461 -2.45137,50.66354c-0.05264,3.62458 3.34769,10.97381 -0.68137,13.13089c-1.56608,0.83844 -5.57528,1.85978 -8.77106,1.32826c-3.36089,-0.55898 -5.52692,-1.05855 -6.86819,-2.70713c-1.3413,-1.64862 1.36124,-4.64352 0.53529,-5.0768c-2.63121,-1.38032 1.01899,-17.76637 1.18153,-28.95783z" fill="#5671c0" stroke="none" stroke-width="0"/></g><g stroke-width="4" stroke-linecap="butt"><g fill="#403328" stroke="#292018"><g><path d="M297.04004,192.75046c0,0 2.65063,9.43957 -3.86839,14.21264c-5.39531,3.9503 -19.92821,3.32105 -21.88302,3.87427c-6.35961,1.79981 -14.04161,-7.51821 -14.04161,-7.51821c0,0 -9.08624,-54.79454 -14.13681,-73.40813c-1.51542,-7.30708 -2.62976,-13.63868 -3.49283,-19.04553c-1.21811,-7.63102 -0.46394,-11.4842 -0.46394,-11.4842l13.24288,-5.11112l6.42255,-4.32439c0,0 4.57194,-2.84629 7.00319,-1.41781c6.2084,3.64766 13.16895,11.72188 15.13128,14.08365c1.96235,2.36177 -6.33363,-0.1995 -6.33363,-0.1995l-1.47863,5.2104l6.56913,28.91198l4.00859,20.16144l13.32129,36.05451z"/></g><path d="M263.77964,86.70421c0,0 -9.89572,5.4541 -12.09274,8.16724c-2.10945,2.60503 -12.01099,4.56368 -12.01099,4.56368l-0.04776,-7.29088l24.01356,-15.46405z"/></g><g fill="#dfbd28" stroke="#dfbd28"><path d="M247.75408,115.41786c0.48992,-0.14221 1.19422,1.40644 1.57311,3.45902c0.37889,2.05258 0.28888,3.83182 -0.20106,3.97401c-0.48992,0.14221 -1.19422,-1.40644 -1.57311,-3.45902c-0.37889,-2.05259 -0.28888,-3.83182 0.20106,-3.97401z"/><path d="M252.62538,137.97004c0.48992,-0.14221 1.19422,1.40646 1.57311,3.45902c0.37889,2.05258 0.28889,3.83182 -0.20105,3.97401c-0.48992,0.14221 -1.19423,-1.40646 -1.57312,-3.45902c-0.37889,-2.05258 -0.28888,-3.83182 0.20106,-3.97401z"/><path d="M257.11792,161.05055c0.48992,-0.14221 1.19422,1.40646 1.57311,3.45902c0.37889,2.05258 0.28888,3.83182 -0.20106,3.97401c-0.48992,0.14221 -1.19422,-1.40646 -1.57311,-3.45902c-0.37889,-2.05258 -0.28888,-3.83182 0.20106,-3.97401z"/><path d="M260.98197,182.29132c0.48992,-0.14221 1.19422,1.40646 1.57311,3.45902c0.37889,2.05258 0.28888,3.83182 -0.20106,3.97401c-0.48992,0.14221 -1.19422,-1.40646 -1.57311,-3.45902c-0.37889,-2.05258 -0.28888,-3.83182 0.20106,-3.97401z"/></g></g><g data-paper-data="{&quot;index&quot;:null}" stroke-linecap="butt"><g><path d="M320.21298,156.20471c4.647,5.27563 -11.11703,11.72808 -18.77151,9.12637c-1.36113,-0.46264 -5.53042,-6.033 -6.07793,-6.65987c-16.89888,-19.34839 -21.48347,-21.98641 -21.48347,-21.98641c0,0 -2.80403,-11.53457 -0.24348,-15.22975c1.82198,-2.6293 13.8417,-4.93358 13.8417,-4.93358c0,0 17.05328,21.08069 22.9838,30.0059c1.39843,2.10458 3.91112,3.04764 9.75085,9.67736z" fill="#d9bb9a" stroke="#917c67" stroke-width="4"/><path d="M322.72166,162.27261c1.55289,2.49481 -16.31129,6.02103 -17.00413,6.45229c-0.69284,0.43125 -1.89294,-2.32416 -3.44583,-4.81897c-1.55286,-2.4948 -3.79249,-4.8353 -3.09964,-5.26657c0.11542,-0.07183 17.9509,-2.17051 18.779,-1.47099c2.18704,1.84745 3.47638,3.02499 4.7706,5.10421z" fill="#d9bb9a" stroke="none" stroke-width="0"/><path d="M276.44825,129.64225c-7.12506,-8.5874 0.9503,-9.77597 2.96238,-11.48315c2.01211,-1.70718 8.3862,4.7919 15.51126,13.3793c7.12505,8.5874 7.63719,10.71669 12.4708,16.91863c3.25624,4.17807 8.07845,9.14626 12.33167,13.28864c7.23868,7.05003 -11.32247,6.71389 -11.68831,6.52488c-0.33239,-0.17172 -4.06471,-7.39237 -4.45406,-8.00822c-4.47327,-7.07534 -10.1248,-16.64655 -12.17949,-18.29465c-4.53854,-3.64045 -12.21332,-9.02198 -14.95423,-12.32544z" fill="#ffdbb5" stroke="none" stroke-width="0"/></g><path d="M296.46558,118.81429c5.86791,8.61157 27.24066,39.06377 27.24066,39.06377c0,0 -8.40428,3.98151 -12.55459,4.90576c-3.61461,0.80496 -12.13129,1.75506 -12.13129,1.75506c0,0 -15.0981,-15.44742 -20.29171,-21.8145c-5.16687,-6.33431 -18.58487,-23.97317 -18.58487,-23.97317l19.33636,-18.22378c0,0 11.2501,9.86988 16.98543,18.28684z" fill="#403328" stroke="#292018" stroke-width="4"/></g><g data-paper-data="{&quot;index&quot;:null}" stroke-linecap="butt"><g><path d="M335.13834,195.72391c-1.85232,10.72682 -1.75403,22.83615 -6.20051,21.64444c-1.16303,-0.31171 -3.17662,-0.42775 -5.40334,0.3098c-2.25218,0.74599 -4.71936,2.33471 -6.21147,0.04895c-1.19977,-1.83797 -4.52393,-4.5036 -5.2692,-9.80231c-0.93112,-6.62022 0.27287,-16.76781 -1.31759,-16.41655c-2.67624,0.59105 0.8633,7.76615 -0.80985,8.03471c-1.71739,0.27565 -1.01148,9.46414 -4.24526,-4.22435c-2.58038,-10.92269 -4.20605,-27.69232 -5.87826,-32.94546c-0.40728,-3.06084 21.63426,-2.44309 22.94049,1.61726c0.44428,2.48748 1.32053,2.15857 4.03578,10.56589c2.54489,7.87982 8.97227,17.61744 8.35923,21.16761z" fill="#d9bb9a" stroke="#917c67" stroke-width="4"/><path d="M305.73472,164.90831c-1.74598,-2.14051 11.43008,-4.12657 13.68102,1.36725c3.83099,9.35012 3.92465,11.42814 6.00454,16.27606c2.07988,4.84794 6.18405,8.97251 6.29196,11.63214c0.28932,7.13097 -1.35097,21.86772 -2.52482,16.12026c-0.9571,-4.68613 -3.47254,5.27298 -5.91287,0.03365c-0.56505,-1.21311 -4.23631,5.58002 -5.0526,-1.02756c-0.84034,-6.80222 -1.60755,-21.35889 -3.75364,-21.63807c-1.70528,-0.22185 -4.47966,-0.91971 -6.22088,-4.47862c-0.88381,-1.80642 -0.63414,-3.83209 -1.2217,-6.45982c-2.38483,-10.66561 -1.03075,-11.5062 -1.29102,-11.8253z" fill="#ffdbb5" stroke="none" stroke-width="0"/></g><path d="M332.26119,182.12035c0,0 -7.04053,-0.0816 -14.67713,-0.86887c-8.12502,-0.8376 -15.96295,2.4068 -15.96295,2.4068l-2.45705,-24.46097l24.47959,0.41856l8.61759,22.5045z" fill="#403328" stroke="#292018" stroke-width="4"/><path d="M302.18411,163.13283l-2.43818,-9.99827l20.62975,3.51916l2.10645,9.05132z" fill="#403328" stroke="none" stroke-width="0"/></g><path d="M271.02413,99.32672c0,0 4.22362,2.22961 5.07227,3.10557c0.8013,0.82708 3.44905,5.46456 3.44905,5.46456c0,0 -4.21986,2.17992 -8.69377,5.14094c-2.93499,1.9425 -6.24642,3.23876 -7.17226,3.83351c-0.77344,0.49683 -3.18632,2.26017 -4.79896,-0.81853c-1.61267,-3.0787 -3.81505,-3.61018 -3.81505,-3.61018z" data-paper-data="{&quot;index&quot;:null}" fill="#403328" stroke="none" stroke-width="NaN" stroke-linecap="butt"/><path d="M157.67063,64.12561c2.74682,-2.0468 8.76506,-4.91939 8.85374,-1.92462c0.0887,2.99475 -3.44788,4.85125 -6.1947,6.89806c-2.74681,2.04678 -6.45972,6.02694 -6.54841,3.03217c0,0 1.14254,-5.9588 3.88937,-8.0056z" data-paper-data="{&quot;index&quot;:null}" fill="#424956" stroke="#14161a" stroke-width="4" stroke-linecap="butt"/></g></g></svg>