<svg version="1.1" xmlns="http://www.w3.org/2000/svg" xmlns:xlink="http://www.w3.org/1999/xlink" width="178.76885" height="303.35791" viewBox="0,0,178.76885,303.35791"><g transform="translate(-147.11869,-110.66685)"><g data-paper-data="{&quot;isPaintingLayer&quot;:true}" fill-rule="nonzero" stroke-linejoin="miter" stroke-miterlimit="10" stroke-dasharray="" stroke-dashoffset="0" style="mix-blend-mode: normal"><g data-paper-data="{&quot;origRot&quot;:0}"><path d="M299.54611,221.71579l0.84363,34.82645l-13.21207,-17.5804l-13.99867,39.56671l-1.60255,-28.56209l-69.21652,96.86647l-32.00114,4.68418l104.94659,-143.30549z" data-paper-data="{&quot;origPos&quot;:null}" fill="#a7dfff" stroke="#00a0ff" stroke-width="5" stroke-linecap="round"/><path d="M272.62933,206.19196l-109.05541,141.10267l-4.3694,-33.06697l74.27645,-93.0433l-27.91364,6.2601l34.23835,-24.27393l-20.52074,-7.90758l33.7325,-8.70126z" data-paper-data="{&quot;origPos&quot;:null,&quot;index&quot;:null}" fill="#77cdff" stroke="#00a0ff" stroke-width="5" stroke-linecap="round"/><path d="M301.1716,151.18514c2.93263,-3.88127 10.28131,-3.27143 16.41371,1.36213c6.13241,4.63356 8.72632,11.53619 5.79372,15.41746c-2.93263,3.88127 -10.28131,3.27142 -16.41371,-1.36213c-6.13241,-4.63356 -8.72632,-11.53618 -5.79372,-15.41745z" data-paper-data="{&quot;origPos&quot;:null}" fill="#ffe566" stroke="none" stroke-width="NaN" stroke-linecap="butt"/><g data-paper-data="{&quot;origPos&quot;:null}"><path d="M322.45917,169.03608l-22.68201,30.01912c-0.14743,-0.09536 -0.29626,-0.18975 -0.44677,-0.2832l-1.1338,-0.69109c0,0 -2.07482,-1.41463 -3.56052,0.77061c-1.48575,2.18523 0.80991,3.74208 0.80991,3.74208l1.1338,0.6911c0.00038,0.00023 0.00075,0.00046 0.00115,0.00068l-3.43294,4.54344l-21.92631,-16.5672l18.34114,-24.27409c1.18171,0.9211 2.36834,1.83449 3.56247,2.73674c0,0 2.10831,1.59301 3.7013,-0.51529c1.59301,-2.10831 -0.51529,-3.7013 -0.51529,-3.7013c-1.19405,-0.90222 -2.3807,-1.81561 -3.56247,-2.73674l7.78404,-10.30202z" data-paper-data="{&quot;origPos&quot;:null}" fill="#9f6500" stroke="none" stroke-width="NaN" stroke-linecap="butt"/><path d="M276.68939,184.46352l18.34222,13.85909" fill="none" stroke="#000000" stroke-width="0.5" stroke-linecap="round"/><path d="M284.1765,174.55448l21.34535,16.45944" fill="none" stroke="#000000" stroke-width="0.5" stroke-linecap="round"/><path d="M296.87808,169.57906l15.65294,12.15832" fill="none" stroke="#000000" stroke-width="0.5" stroke-linecap="round"/><path d="M317.94723,174.5692l-21.02674,-16.88108" fill="none" stroke="#000000" stroke-width="0.5" stroke-linecap="round"/></g><path d="M320.97319,210.30621l-14.01841,18.55304l-62.40568,-47.15278l14.01841,-18.55304l12.92947,26.34625l23.70331,18.68121z" data-paper-data="{&quot;origPos&quot;:null}" fill="#ffe566" stroke="none" stroke-width="0" stroke-linecap="butt"/></g><path d="M252.86188,410.27476v-24.58844h14.75306c0,0 -0.27841,11.3515 1.24707,13.40514c4.57648,6.16089 13.50599,1.74649 13.50599,10.09049c0,4.69136 -14.75306,1.09282 -14.75306,1.09282z" data-paper-data="{&quot;index&quot;:null}" fill="#6f501e" stroke="#6f501e" stroke-width="7.5" stroke-linecap="butt"/><g><path d="M268.48544,298.99435c-2.73485,-7.84731 1.40965,-16.42585 9.25696,-19.1607c7.84733,-2.73485 16.42586,1.40961 19.1607,9.25694c2.73485,7.84731 -1.40964,16.42586 -9.25696,19.16072c-7.84733,2.73485 -16.42587,-1.40965 -19.16072,-9.25696z" data-paper-data="{&quot;origPos&quot;:null,&quot;index&quot;:null}" fill="#ffdfbd" stroke="#dcc0a3" stroke-width="2.5" stroke-linecap="butt"/><path d="M274.22146,213.40494c5.32385,-8.82846 28.86399,1.18298 45.26587,41.54241c16.40188,40.35941 -23.72594,60.68146 -31.80826,31.78806c-5.50146,-19.66712 5.46865,-14.07352 2.18975,-24.75549c-8.61449,-28.06424 -33.97132,-29.04815 -15.64736,-48.57498z" data-paper-data="{&quot;origPos&quot;:null,&quot;origRot&quot;:0,&quot;index&quot;:null}" fill="#328eff" stroke="#276cc1" stroke-width="5" stroke-linecap="round"/></g><path d="M208.50382,409.67051c0,0 -14.75306,3.59853 -14.75306,-1.09283c0,-8.34398 8.92951,-3.9296 13.50599,-10.09049c1.5255,-2.05363 1.24707,-13.40512 1.24707,-13.40512h14.75306v24.58844z" fill="#6f501e" stroke="#6f501e" stroke-width="7.5" stroke-linecap="butt"/><path d="M241.42441,385.82406v-78.41994h33.95009v78.41994z" fill="#7d7d7d" stroke="#4b4b4b" stroke-width="5" stroke-linecap="butt"/><path d="M199.75637,385.75681v-78.41993h33.95009v78.41993z" fill="#7d7d7d" stroke="#4b4b4b" stroke-width="5" stroke-linecap="butt"/><path d="M192.39161,210.66332c0,0 -7.53317,-16.5044 6.55965,-19.84399c14.09285,-3.33958 49.52729,-7.71151 71.33615,1.65367c15.55838,6.68111 4.09977,18.19033 4.09977,18.19033z" data-paper-data="{&quot;index&quot;:null}" fill="#328eff" stroke="#276cc1" stroke-width="5" stroke-linecap="butt"/><path d="M194.51198,309.27718c0,0 -3.68431,-80.30148 4.42109,-94.46596c7.47755,-13.06733 21.05767,6.55715 36.10997,6.2452c16.31951,-0.3382 31.63043,-22.61874 40.3505,-8.82013c5.80736,9.18954 0,97.04092 0,97.04092z" fill="#328eff" stroke="#276cc1" stroke-width="5" stroke-linecap="butt"/><path d="M250.54978,249.44385l0.40981,-18.44133" fill="none" stroke="#ededed" stroke-width="3.5" stroke-linecap="round"/><path d="M217.09299,249.94349l0.40981,-18.44133" fill="none" stroke="#ededed" stroke-width="3.5" stroke-linecap="round"/><path d="M212.5354,217.99937v-18.17046h45.42619v18.17046z" fill="#ffdfbd" stroke="#dcc0a3" stroke-width="1.5" stroke-linecap="butt"/><path d="M211.14401,297.11667c0,0 2.71789,-6.28826 2.71789,-10.31304c0,-4.14266 -0.60397,-10.61504 -0.60397,-10.61504l42.49631,0.90595c0,0 0,5.38229 0,9.40709c0,4.14266 3.32187,10.61504 3.32187,10.61504z" fill="none" stroke="#276cc1" stroke-width="3.5" stroke-linecap="butt"/><path d="M282.82643,204.84969c7.95434,7.91208 -30.00543,27.32992 -47.57795,27.97297c-17.23522,-1.24211 -54.94377,-19.29254 -46.6216,-27.97297c16.91397,-9.12212 21.08729,12.19334 46.6216,11.71516c26.00792,-0.48703 33.55258,-25.666 47.57795,-11.71516z" fill="#328eff" stroke="#276cc1" stroke-width="5" stroke-linecap="butt"/><path d="M190.9938,160.86434c0,-23.51253 19.06068,-42.57319 42.57318,-42.57319c23.51253,0 42.57318,19.06068 42.57318,42.57319c0,23.51253 -20.97334,44.96404 -42.57318,44.48587c-22.07261,-0.48864 -42.57318,-20.97336 -42.57318,-44.48587z" fill="#ffdfbd" stroke="#dcc0a3" stroke-width="5" stroke-linecap="butt"/><path d="M242.24396,170.03881l12.29422,12.70403l-10.65499,1.22942" fill="none" stroke="#dcc0a3" stroke-width="2" stroke-linecap="round"/><path d="M231.92162,171.51643l0.54641,-15.84589" fill="none" stroke="#000000" stroke-width="5" stroke-linecap="round"/><path d="M263.06993,171.10551l0.5464,-15.84589" fill="none" stroke="#000000" stroke-width="5" stroke-linecap="round"/><path d="M276.21457,150.0608l-14.97796,2.68879l-0.85005,-12.89011l-15.09581,9.62726l-0.39963,-7.51298l-14.72855,6.26494l0.38979,-7.61881l-17.89512,6.76523l-6.12903,-6.436l-15.62513,13.555c0,0 -2.52096,-4.76821 5.84044,-18.48054c1.89052,-2.39228 -2.14281,-8.18273 -2.14281,-8.18273l8.67218,-3.3354l2.31479,-8.76087l8.19021,3.32601c0,0 35.13697,0.1633 39.03783,0.47005c4.20402,0.33058 13.25599,7.08768 13.25599,7.08768c0,0 -7.32719,0.87238 -5.50874,1.53339c15.10246,5.48974 15.65162,21.89911 15.65162,21.89911z" data-paper-data="{&quot;origRot&quot;:0}" fill="#7e5d1d" stroke="#7e5d1d" stroke-width="7.5" stroke-linecap="round"/><path d="M203.25865,184.86282l-5.2309,-7.64515" fill="none" stroke="#ffffff" stroke-width="5" stroke-linecap="round"/><g data-paper-data="{&quot;index&quot;:null}"><path d="M185.36007,310.43696c-7.84733,-2.73484 -11.99181,-11.31341 -9.25696,-19.16072c2.73486,-7.84731 11.31337,-11.99179 19.1607,-9.25694c7.84732,2.73484 11.99181,11.31337 9.25697,19.1607c-2.73486,7.84733 -11.31339,11.99181 -19.16072,9.25696z" data-paper-data="{&quot;origPos&quot;:null,&quot;index&quot;:null}" fill="#ffdfbd" stroke="#dcc0a3" stroke-width="2.5" stroke-linecap="butt"/><path d="M183.1374,264.16557c-3.2789,10.68197 7.69123,5.08835 2.18975,24.75549c-8.08233,28.89338 -48.21014,8.57135 -31.80826,-31.78806c16.40188,-40.35941 39.94203,-50.37085 45.26587,-41.54241c18.32396,19.52683 -7.03286,20.51074 -15.64736,48.57498z" data-paper-data="{&quot;origPos&quot;:null,&quot;origRot&quot;:0,&quot;index&quot;:null}" fill="#328eff" stroke="#276cc1" stroke-width="5" stroke-linecap="round"/></g><path d="M231.39711,189.56115c0,0 2.46914,3.74387 5.18874,4.62116c4.45826,1.43815 13.20365,1.31187 13.20365,1.31187" fill="none" stroke="#000000" stroke-width="2" stroke-linecap="round"/></g></g></svg>