<svg version="1.1" xmlns="http://www.w3.org/2000/svg" xmlns:xlink="http://www.w3.org/1999/xlink" width="300.10108" height="454.41172" viewBox="0,0,300.10108,454.41172"><g transform="translate(-111.72336,30.9943)"><g data-paper-data="{&quot;isPaintingLayer&quot;:true}" fill-rule="nonzero" stroke-linejoin="miter" stroke-miterlimit="10" stroke-dasharray="" stroke-dashoffset="0" style="mix-blend-mode: normal"><g><g data-paper-data="{&quot;origPos&quot;:null,&quot;origRot&quot;:0}"><path d="M329.94021,284.46102c0.43882,9.25099 -3.46713,15.9898 -11.00445,21.37141c-7.13317,5.09304 -12.27837,4.93956 -20.72543,5.48205c-8.44704,0.54249 -12.73908,0.10773 -17.91258,-4.16625c-7.203,-5.95058 -6.60448,-6.72319 -8.29344,-18.17338c-2.1424,-14.52405 2.34749,-23.13121 13.0225,-28.32023c9.72571,-4.72759 26.0319,-9.77681 34.2917,-3.25327c7.89303,6.23383 9.92603,12.39257 10.62173,27.05967z" data-paper-data="{&quot;origPos&quot;:null}" fill="#a6a6a6" stroke="none" stroke-width="0" stroke-linecap="butt"/><path d="M304.73699,308.5534c-8.8485,1.40188 -12.07971,-10.99047 -10.00711,-16.50075c0.42688,-3.29819 11.37794,-6.65029 14.95282,-1.78141c3.5729,4.86611 -1.57533,7.49677 -5.53738,8.16223" data-paper-data="{&quot;origPos&quot;:null}" fill="none" stroke="#5b5b5b" stroke-width="2" stroke-linecap="round"/><path d="M295.83824,309.79245c-6.86948,-2.23314 -9.18027,-5.97155 -8.60998,-16.604c0.42688,-3.29817 6.80431,-6.31082 11.45013,-3.55773" data-paper-data="{&quot;origPos&quot;:null}" fill="none" stroke="#5b5b5b" stroke-width="2" stroke-linecap="round"/><path d="M288.5517,310.04016c-6.761,-4.56701 -9.43834,-5.66173 -8.86804,-16.2942c0.42688,-3.29817 6.80429,-6.31082 11.45011,-3.55773" data-paper-data="{&quot;origPos&quot;:null}" fill="none" stroke="#5b5b5b" stroke-width="2" stroke-linecap="round"/><path d="M283.10586,308.5819c-6.761,-4.56701 -9.88868,-7.9543 -8.84667,-16.00502c0.4269,-3.29817 5.49265,-5.05095 10.13847,-2.29786" data-paper-data="{&quot;origPos&quot;:null}" fill="none" stroke="#5b5b5b" stroke-width="2" stroke-linecap="round"/><path d="M320.99229,277.34186c-2.0427,6.44049 -5.8915,10.27743 -12.89784,10.82073c-5.64649,0.43786 -6.33994,0.42285 -12.22665,0.37355c-4.32175,-0.03619 -6.37105,-1.17041 -6.12436,-5.28285c0.28157,-4.69347 8.57531,-4.56502 12.47922,-6.95714c4.42922,-2.71401 4.35145,-6.66281 10.07023,-7.732" data-paper-data="{&quot;origPos&quot;:null}" fill="none" stroke="#5b5b5b" stroke-width="2" stroke-linecap="round"/></g><path d="M333.15075,241.98408c2.32045,20.16524 -1.98657,28.58763 -28.60346,34.0037c-26.24107,3.61379 -32.92807,-3.46999 -36.85519,-21.71204c-3.84318,-17.85216 3.67866,-10.90868 -0.97563,-41.02089c-3.13501,-20.28284 -0.73049,-32.48323 21.40179,-36.56052c22.32264,-3.00339 28.42814,8.10445 32.46632,27.8448c5.50645,26.91796 11.18785,25.46693 12.5662,37.44495z" data-paper-data="{&quot;index&quot;:null,&quot;origPos&quot;:null,&quot;origRot&quot;:0}" fill="#8d0000" stroke="none" stroke-width="0" stroke-linecap="butt"/></g><path d="M256.78399,179.86035c-17.91873,-40.39282 -16.57654,-54.45191 -0.39088,-62.37554c15.34999,-7.51451 28.72674,0.17678 47.3829,39.89981c17.30068,36.83695 16.54827,39.52602 -5.88901,49.89431c-21.4845,9.928 -24.47918,10.05517 -41.10299,-27.41856z" data-paper-data="{&quot;index&quot;:null,&quot;origRot&quot;:0}" fill="#8d0000" stroke="none" stroke-width="0" stroke-linecap="butt"/><g data-paper-data="{&quot;index&quot;:null}" stroke="none" stroke-width="0" stroke-linecap="butt"><path d="M137.60273,412.10148v-7.61097h82.06965v7.61097z" data-paper-data="{&quot;origPos&quot;:null}" fill="#585858"/><path d="M138.23733,394.47102c0,0 23.97789,-26.91532 32.9945,-30.15985c10.58644,-3.80942 12.79226,-4.07973 22.24355,-4.21912c8.59183,-0.12673 17.77664,1.83991 21.09938,8.51816c7.08661,17.91842 5.48581,37.88349 5.48581,37.88349l-82.42053,0.10688z" data-paper-data="{&quot;origPos&quot;:null}" fill="#bebebe"/><path d="M137.86581,395.23193c0,0 24.28432,-29.24907 30.44324,-32.42691c4.94833,-2.55319 29.57184,-2.40519 29.57184,-2.40519l-7.56667,34.47231l-52.44843,0.35977z" data-paper-data="{&quot;origPos&quot;:null}" fill="#7f7f7f"/></g><path d="M233.10253,327.98123c-1.54324,22.66385 1.35814,23.03018 1.22348,34.2386c-0.19726,16.41884 2.36791,29.64064 -24.65984,28.35386c-13.20555,-0.62873 -16.08739,-20.36721 -40.95248,-21.69617c-8.49789,-0.45418 -15.62034,12.09493 -14.9854,0.75067c0.35869,-6.40876 2.60316,-13.90896 10.97695,-19.21996c6.57943,-10.01596 8.92518,-20.17243 14.64889,-33.4494c5.43557,-12.60856 7.80452,-15.8632 31.87953,-13.23124c24.83933,2.71551 21.36146,13.21038 21.86886,24.25363z" data-paper-data="{&quot;index&quot;:null}" fill="#101099" stroke="none" stroke-width="0" stroke-linecap="butt"/><path d="M202.03198,335.2459c-24.21264,-6.88002 -28.11171,-5.89516 -16.0955,-48.18337c14.00064,-49.27202 17.18913,-49.81023 41.94182,-42.77673c24.86339,7.06493 26.31653,10.36129 12.53541,58.97962c-11.82408,41.71422 -15.19723,38.56837 -38.38173,31.9805z" data-paper-data="{&quot;index&quot;:null,&quot;origRot&quot;:0}" fill="#101099" stroke="none" stroke-width="0" stroke-linecap="butt"/><g stroke="none" stroke-width="0" stroke-linecap="butt"><path d="M264.97519,412.10148v-7.61097h97.05803v7.61097z" data-paper-data="{&quot;origPos&quot;:null}" fill="#585858"/><path d="M361.95786,406.60058l-97.41031,-0.10688c0,0 0.11688,-35.91358 3.68138,-39.94206c3.76703,-4.25738 15.14539,-5.11356 24.84124,-5.46184c9.86378,-0.35433 13.42568,0.14595 23.23182,1.26823c4.25953,0.40624 45.74566,32.40823 45.74566,32.40823z" data-paper-data="{&quot;origPos&quot;:null}" fill="#bebebe"/><path d="M362.3296,394.70913l-35.71416,0.1015l-33.60005,-33.84346c0,0 22.97111,-0.52579 26.8218,1.47145c3.66161,1.89919 42.49241,32.27051 42.49241,32.27051z" data-paper-data="{&quot;origPos&quot;:null}" fill="#7f7f7f"/></g><path d="M280.29501,303.7276c24.07501,-2.63196 26.44395,0.62268 31.87953,13.23124c5.72372,13.27697 8.06946,23.43344 14.64889,33.4494c8.3738,5.311 10.61826,12.8112 10.97695,19.21996c0.63494,11.34427 -6.48751,-1.20485 -14.9854,-0.75067c-24.86509,1.32896 -27.74693,21.06744 -40.95248,21.69617c-27.02774,1.28678 -24.46258,-11.93502 -24.65984,-28.35386c-0.13466,-11.20843 2.76672,-11.57475 1.22348,-34.2386c0.5074,-11.04326 -2.97047,-21.53812 21.86886,-24.25363z" data-paper-data="{&quot;index&quot;:null}" fill="#101099" stroke="none" stroke-width="0" stroke-linecap="butt"/><path d="M288.42116,332.74698c-24.2213,6.84939 -27.02354,9.73387 -38.98627,-32.56953c-13.93835,-49.28968 -11.50657,-51.42101 13.25499,-58.42319c24.8723,-7.03347 27.83909,-4.99004 41.62127,43.62801c11.82502,41.71394 7.30284,40.80616 -15.88999,47.36473z" data-paper-data="{&quot;index&quot;:null,&quot;origRot&quot;:0}" fill="#101099" stroke="none" stroke-width="0" stroke-linecap="butt"/><path d="M159.60771,134.17557c9.80969,-22.07093 43.32302,-38.59803 60.83382,-29.21865c17.51078,9.37938 17.86797,30.92616 8.05828,52.99709c-9.80969,22.07093 -23.97968,50.89344 -53.76408,40.94746c-29.7844,-9.94596 -24.93773,-42.65498 -15.12804,-64.72589z" data-paper-data="{&quot;origRot&quot;:0}" fill="#8d0000" stroke="none" stroke-width="0" stroke-linecap="butt"/><g><path d="M245.51739,275.74925c-40.84957,-0.02632 -49.5641,-19.73598 -49.5641,-38.17546c0,-18.43948 2.9067,-15.47213 50.69424,-17.10265c42.31577,-1.50056 45.66318,1.73522 45.6894,18.64646c0.026,14.7536 -17.24454,36.28269 -46.81952,36.63165z" data-paper-data="{&quot;origPos&quot;:null}" fill="#101099" stroke="none" stroke-width="0" stroke-linecap="butt"/><g data-paper-data="{&quot;origPos&quot;:null}"><g data-paper-data="{&quot;origPos&quot;:null}"><g data-paper-data="{&quot;origPos&quot;:null}" fill="#e50000" stroke="none" stroke-width="0" stroke-linecap="butt"><path d="M295.37211,231.3388c-2.83416,4.67423 -5.65558,3.12557 -15.35446,1.39433c-13.06922,-1.96974 -9.39971,-1.69879 -22.48864,-1.69879c-14.33286,0 -31.18873,1.73851 -44.87235,6.20643c-8.89962,2.90589 -15.56941,0.69175 -19.22197,-2.78996c-4.47645,-5.01805 -4.80135,-9.35746 1.26596,-14.49903c4.25908,-7.11212 4.63817,-14.32787 5.7213,-22.75401c0.89887,-6.9927 32.73327,-12.60195 47.96918,-13.1147c15.23591,-0.51274 35.80451,1.56057 37.70902,17.34346c0.73002,10.01833 1.04002,11.20047 5.39214,17.27736c5.0791,3.9355 6.55899,6.68595 3.87983,12.63487z" data-paper-data="{&quot;origPos&quot;:null}"/><path d="M285.77335,131.07425c0,26.83272 2.62715,70.79916 -2.87977,82.15035c-4.61511,9.51286 -24.3155,9.25164 -40.39194,9.25164c-21.3954,0 -35.16446,-1.3538 -39.81714,-7.60687c-4.96424,-6.67184 -2.86335,-63.54848 -2.86335,-85.28118c0,-18.83407 20.01996,-27.53443 43.57398,-27.53443c23.55401,0 42.37824,10.18647 42.37824,29.02052z" data-paper-data="{&quot;origPos&quot;:null}"/></g><path d="M259.51172,213.03183v-84.2281" data-paper-data="{&quot;origPos&quot;:null}" fill="none" stroke="#000000" stroke-width="2" stroke-linecap="round"/><path d="M208.31128,221.12319c0,0 28.33665,-7.10516 52.5873,-6.94531c20.21667,0.13326 26.9619,4.93108 26.9619,4.93108" data-paper-data="{&quot;origPos&quot;:null}" fill="none" stroke="#8d0000" stroke-width="2" stroke-linecap="round"/></g><path d="M281.51987,114.90781c-0.61158,6.23168 -11.34871,15.56022 -27.26305,15.89849c-20.72129,0.44044 -53.42828,-4.91153 -52.65334,-20.43122c0.27797,-5.56707 4.98549,-10.01267 43.67254,-9.6744c30.3467,0.26533 36.24388,3.55849 36.24388,14.20715z" data-paper-data="{&quot;origPos&quot;:null}" fill="#8d0000" stroke="none" stroke-width="0" stroke-linecap="butt"/></g></g><g><path d="M246.6139,2.94703c30.71304,0 54.39309,25.21286 54.39309,55.8138c0,30.60094 -23.68005,57.03156 -54.39309,57.03156c-30.71304,0 -56.8286,-25.21286 -56.8286,-55.8138c0,-30.60094 26.11556,-57.03156 56.8286,-57.03156z" data-paper-data="{&quot;origPos&quot;:null}" fill="#661800" stroke="none" stroke-width="0" stroke-linecap="butt"/><g data-paper-data="{&quot;origPos&quot;:null}"><path d="M200.12171,65.1779c0,-28.20694 21.03155,-51.07318 49.44817,-51.07318c28.41661,0 48.44585,22.36877 48.44585,50.57573c0,28.20696 -17.26262,50.75882 -45.94004,51.0732c-28.4131,-0.44274 -51.95398,-22.36879 -51.95398,-50.57575z" data-paper-data="{&quot;origPos&quot;:null}" fill="#ffceb3" stroke="none" stroke-width="0" stroke-linecap="butt"/><path d="M261.27763,70.57191c0,13.56304 -7.33436,24.55807 -16.38172,24.55807c-9.04738,0 -16.3817,-10.99504 -16.3817,-24.55807c0,-13.56304 5.16166,-24.55807 16.3817,-24.55807c11.22004,0 16.38172,10.99504 16.38172,24.55807z" data-paper-data="{&quot;origPos&quot;:null}" fill="#ffffff" stroke="none" stroke-width="0" stroke-linecap="butt"/><path d="M297.23016,70.57191c0,13.56304 -4.67322,24.55807 -10.43791,24.55807c-5.76469,0 -10.43789,-10.99504 -10.43789,-24.55807c0,-13.56304 3.28885,-24.55807 10.43789,-24.55807c7.14906,0 10.43791,10.99504 10.43791,24.55807z" data-paper-data="{&quot;origPos&quot;:null}" fill="#ffffff" stroke="none" stroke-width="0" stroke-linecap="butt"/><g data-paper-data="{&quot;origPos&quot;:null}"><path d="M290.43567,101.33619c0.25538,2.51814 -18.90438,1.71876 -18.90438,1.71876l5.28147,-23.27072c0,0 13.01594,19.22869 13.62291,21.55196z" data-paper-data="{&quot;origPos&quot;:null}" fill="#ffceb3" stroke="none" stroke-width="0" stroke-linecap="butt"/><path d="M277.86815,80.82194c0,0 12.05197,17.09853 12.07474,20.96159c0.01238,2.10158 -17.47674,1.77395 -17.47674,1.77395" data-paper-data="{&quot;origPos&quot;:null}" fill="none" stroke="#b37959" stroke-width="2" stroke-linecap="round"/></g></g><path d="M227.44433,95.11928c0,0 9.58558,1.68921 15.00638,4.72485c4.48014,2.50888 11.83959,7.63722 11.83959,7.63722" data-paper-data="{&quot;origPos&quot;:null}" fill="none" stroke="#b37959" stroke-width="2" stroke-linecap="round"/><path d="M255.79933,76.31699c0,6.65875 -2.06617,12.05674 -4.61489,12.05674c-2.54874,0 -4.61491,-5.39797 -4.61491,-12.05674c0,-6.65875 2.06617,-12.05676 4.61491,-12.05676c2.54874,0 4.61489,5.39799 4.61489,12.05676z" data-paper-data="{&quot;origPos&quot;:null}" fill="#000000" stroke="none" stroke-width="0" stroke-linecap="butt"/><path d="M289.14245,76.31699c0,6.65875 -2.06617,12.05674 -4.61489,12.05674c-2.54874,0 -4.61491,-5.39797 -4.61491,-12.05674c0,-6.65875 2.06617,-12.05676 4.61491,-12.05676c2.54874,0 4.61489,5.39799 4.61489,12.05676z" data-paper-data="{&quot;origPos&quot;:null}" fill="#000000" stroke="none" stroke-width="0" stroke-linecap="butt"/><path d="M224.35602,14.78631c13.67515,0 11.29807,12.69035 11.29807,26.92594c0,14.23558 -9.86814,39.57706 -34.09716,34.70604c-8.87703,-1.78168 -9.44737,-18.43678 -6.08878,-32.27053c3.65327,-15.04744 15.21271,-29.36145 28.88786,-29.36145z" data-paper-data="{&quot;origPos&quot;:null}" fill="#661800" stroke="none" stroke-width="0" stroke-linecap="butt"/><path d="M246.49586,-3.34828c11.77852,-6.77709 27.79833,-11.7664 27.79833,-11.7664c0,0 -0.60509,8.80451 -1.32655,15.53356c-0.815,7.60137 0.84784,6.42125 0.84784,13.43101c0,11.87285 -39.86405,11.30621 -39.99792,1.43318c-0.12699,-9.36556 2.17832,-12.58993 12.67826,-18.63136z" data-paper-data="{&quot;origPos&quot;:null}" fill="#661800" stroke="none" stroke-width="0" stroke-linecap="butt"/><path d="M302.21015,29.34941c0,12.42984 10.44971,10.22749 20.08163,18.08412c5.05032,4.11946 18.40404,14.83998 22.65354,16.14414c-4.37572,13.68626 -30.53808,10.37924 -44.46277,11.69886c-16.98079,0.82548 -36.59434,-0.07852 -51.6507,-7.97373c-17.17387,-12.65883 -19.68705,-27.34056 -19.68705,-44.04217c0,-16.7016 12.06688,-24.55807 31.45869,-24.55807c19.39179,0 41.60665,13.94523 41.60665,30.64685z" data-paper-data="{&quot;origPos&quot;:null}" fill="#661800" stroke="none" stroke-width="0" stroke-linecap="butt"/><path d="M224.44139,73.80961c2.02793,9.53876 -1.39437,18.34851 -7.64389,19.67717c-6.24954,1.32865 -12.95972,-5.32697 -14.98765,-14.86573c-2.02793,-9.53876 1.39437,-18.34851 7.64389,-19.67717c6.24954,-1.32863 12.95972,5.32697 14.98765,14.86573z" data-paper-data="{&quot;origPos&quot;:null,&quot;origRot&quot;:0}" fill="#ffceb3" stroke="none" stroke-width="0" stroke-linecap="butt"/><path d="M213.83397,42.81164c0,-6.83756 3.51337,-12.88791 10.35092,-12.88791c6.83756,0 10.09722,5.03556 10.09722,11.87312c0,9.33812 -0.85271,17.49992 -5.30958,25.70581c-4.51185,8.30712 -14.67854,19.95691 -16.86372,18.18414c-1.38,-1.11954 2.89686,-6.31958 3.64219,-22.63327c0.39352,-7.37213 -1.91703,-13.40432 -1.91703,-20.24188z" data-paper-data="{&quot;origPos&quot;:null}" fill="#661800" stroke="none" stroke-width="0" stroke-linecap="butt"/><path d="M257.80828,58.36518c0,0 0.05421,14.65372 -0.61978,14.70635c-2.1877,0.17081 -15.56939,-9.78895 -24.20921,-24.77906c-6.55323,-11.36988 -6.88801,-41.25752 -6.88801,-41.25752" data-paper-data="{&quot;origPos&quot;:null}" fill="none" stroke="#000000" stroke-width="2.5" stroke-linecap="round"/><path d="M304.08383,7.03495c0,0 -0.24483,29.88764 -5.03686,41.25752c-6.31784,14.99011 -16.10318,24.94987 -17.70292,24.77906c-0.49287,-0.05263 -0.45321,-14.70635 -0.45321,-14.70635" data-paper-data="{&quot;origPos&quot;:null,&quot;index&quot;:null}" fill="none" stroke="#000000" stroke-width="2.5" stroke-linecap="round"/></g><g><g data-paper-data="{&quot;origPos&quot;:null}"><path d="M188.06017,307.08262c-7.18861,4.12042 -18.85131,5.37136 -24.80077,5.37136c-10.87915,0 -28.6861,-14.07159 -29.46701,-21.51368c-1.22742,-11.6979 0.50618,-29.80256 3.73471,-34.70435c4.32098,-6.56046 14.35742,-7.78722 24.33186,-7.10526c11.29832,0.77246 24.17978,4.42768 28.57403,15.13155c4.82412,14.97748 9.90559,19.27206 2.9699,25.59562c2.36338,8.49537 1.84589,13.10437 -5.34272,17.22477z" data-paper-data="{&quot;origPos&quot;:null}" fill="#e5e5e5" stroke="none" stroke-width="0" stroke-linecap="butt"/><path d="M181.24881,301.3927c0,0 7.00358,-1.13889 5.64957,-3.97011c-0.8367,-1.74955 -2.88835,2.39898 -6.58059,0.1524c-1.65674,-1.00806 -3.03725,-2.38869 -0.25145,-8.00991c2.32831,-4.69806 12.16067,0.33068 12.16067,0.33068" data-paper-data="{&quot;origPos&quot;:null}" fill="none" stroke="#989898" stroke-width="2" stroke-linecap="round"/></g><g data-paper-data="{&quot;origPos&quot;:null,&quot;origRot&quot;:0}"><path d="M195.20719,257.58883c-5.74744,19.46761 -13.00427,25.53603 -39.62031,20.1157c-25.56554,-6.93226 -28.95113,-16.06648 -25.43433,-34.39204c3.44164,-17.93389 7.65045,-8.60245 15.13835,-38.13784c5.04366,-19.89431 12.02633,-30.1838 33.9913,-25.28442c21.7203,5.96223 22.99754,18.57295 18.99723,38.32099c-5.45484,26.92848 0.3417,27.81395 -3.07222,39.37761z" data-paper-data="{&quot;index&quot;:null,&quot;origPos&quot;:null}" fill="#e50000" stroke="none" stroke-width="0" stroke-linecap="butt"/><path d="M201.71531,197.13403c-1.25171,5.00893 -3.17883,16.29453 -4.99079,30.46571c-1.66471,13.01945 1.16677,20.61926 -1.10109,28.57973c-5.4798,19.23472 -12.7771,22.17834 -23.89054,22.38546" data-paper-data="{&quot;origPos&quot;:null}" fill="none" stroke="#8d0000" stroke-width="2" stroke-linecap="round"/></g></g><g data-paper-data="{&quot;origRot&quot;:0}"><path d="M165.14578,157.9937c22.74035,-37.88848 35.01391,-44.87562 50.8043,-36.19097c14.97511,8.23627 16.37567,23.60285 -5.39267,61.70945c-20.18676,35.33793 -22.81938,36.26882 -44.20492,23.87564c-20.47741,-11.86691 -22.30366,-14.2437 -1.20671,-49.39408z" data-paper-data="{&quot;origPos&quot;:null,&quot;index&quot;:null}" fill="#e50000" stroke="none" stroke-width="0" stroke-linecap="butt"/><path d="M223.9275,156.6742c-11.65498,27.17148 -25.7699,49.43607 -25.7699,49.43607" data-paper-data="{&quot;origPos&quot;:null}" fill="none" stroke="#8d0000" stroke-width="2" stroke-linecap="round"/></g><path d="M111.72336,423.41743v-454.41172h300.10108v454.41172z" fill="none" stroke="none" stroke-width="0" stroke-linecap="butt"/></g></g></svg>