<svg version="1.1" xmlns="http://www.w3.org/2000/svg" xmlns:xlink="http://www.w3.org/1999/xlink" width="19.88245" height="37.57858" viewBox="0,0,19.88245,37.57858"><g transform="translate(-383.4619,-303.69341)"><g data-paper-data="{&quot;isPaintingLayer&quot;:true}" fill-rule="nonzero" stroke-width="1" stroke-linecap="butt" stroke-linejoin="miter" stroke-miterlimit="10" stroke-dasharray="" stroke-dashoffset="0" style="mix-blend-mode: normal"><path d="M402.37234,327.6118c-0.39942,7.1722 -5.07387,9.19184 -6.02643,9.19184c-0.95255,0 -16.33428,-0.44755 -6.51342,-15.68497c0.56485,-0.76701 8.23928,-1.48125 9.19183,-1.48125c0.95255,0 3.74744,0.80217 3.34802,7.97437z" fill="#000000" stroke="none"/><path d="M389.12229,339.98932c0,-1.36718 2.03615,-3.93646 4.7481,-3.93646c2.71196,0 5.8844,-0.43379 5.8844,0.93338c0,1.36718 1.45391,3.53063 -1.25804,3.53063c-2.71196,0 -9.37446,0.83961 -9.37446,-0.52756z" fill="#b23226" stroke="#000000"/><path d="M392.08479,327.20597c1.0534,0 1.90735,0.92662 1.90735,2.06968c0,1.14306 -0.85395,2.06968 -1.90735,2.06968c-1.0534,0 -1.90735,-0.92662 -1.90735,-2.06968c0,-1.14306 0.85395,-2.06968 1.90735,-2.06968z" fill="#fecec7" stroke="#000000"/><path d="M383.9619,315.04104c0.15797,-2.10362 5.03866,-1.34881 5.03866,-1.6505c0,-1.66953 -0.74293,-4.36845 4.18557,-4.16328c1.99382,0.08301 5.04197,4.26358 6.42663,2.84945c3.30338,-3.37369 2.98729,1.60282 3.18568,2.45015c0.80604,3.44247 -9.22356,8.67862 -12.6413,6.99533c-2.04646,-1.00791 -6.36913,-4.16525 -6.19524,-6.48112z" fill="#fecec7" stroke="#000000"/><path d="M401.56072,311.36144c0,0.95255 -2.31431,0.58844 -3.26686,0.58844c-0.95255,0 -9.92231,-4.09991 -9.92231,-5.05246c0,-0.95255 0.77219,-2.53638 1.72474,-2.53638c0.33264,0 2.84852,-0.98277 4.50329,-0.21415c1.83117,0.85056 4.51025,2.85389 5.92305,4.60275c0.96648,1.19636 1.03808,2.36001 1.03808,2.61182z" fill="#25b32a" stroke="#000000"/><path d="M392.07497,314.63901c-0.28364,0.28334 -0.99533,0.28334 -1.27897,0c-0.28364,-0.28334 -0.28364,-2.61939 0,-2.90273c0.28364,-0.28334 0.99533,-0.28334 1.27897,0c0.28364,0.28334 0.28364,2.61939 0,2.90273z" fill="#000000" stroke="none"/><path d="M395.96195,329.8118c-5.935,-2.41103 -3.31116,-3.9257 -1.60358,-5.30412c3.41439,-2.75624 3.00324,-4.01591 4.66594,-4.09643c1.6627,-0.08053 2.95395,0.07623 3.2163,2.34806c0.26236,2.27182 0.45451,3.28709 -2.30302,5.5603c-1.51484,1.24878 -2.98901,1.893 -3.97564,1.49219z" fill="#25b32a" stroke="#000000"/><path d="M389.19923,327.99446c-1.3471,-1.25202 -1.3471,-3.28194 0,-4.53395c1.34711,-1.25201 4.1805,-1.25201 5.5276,0c1.3471,1.25202 1.3471,3.28194 0,4.53395c-1.34711,1.25201 -4.1805,1.25201 -5.5276,0z" fill="#85e3ff" stroke="#000000"/><path d="M394.49939,318.42272c-0.80721,0.68553 -3.85301,1.26734 -5.2259,1.43493c-0.08127,0.00992 -0.14395,1.26377 -0.55703,1.26377c-0.95254,0 -2.04939,-1.5624 -2.04939,-1.5624c0,0 2.10088,-0.61964 3.19672,-1.2569c1.10232,-0.64104 2.99205,-2.74043 2.99205,-2.74043c0,0 2.35068,2.26052 1.64358,2.86104z" fill="#000000" stroke="#000000"/><path d="M398.39529,312.01076c0,0.36042 -2.06193,-0.8941 -4.17247,-0.97856c-3.4672,-0.13874 -7.75497,0.67421 -8.34709,0.67421c-0.95254,0 -1.80589,-1.4215 -1.80589,-2.37405c0,-0.95255 4.3189,-2.18775 6.67944,-1.89674c1.25775,0.15504 3.09021,0.59988 4.49335,1.46887c1.86161,1.15291 3.15267,2.80564 3.15267,3.10628z" fill="#000000" stroke="#000000"/><path d="M399.12575,312.90357c0,0.95254 -1.25916,4.07849 -2.21172,4.07849c-0.95255,0 -1.96823,-0.77219 -1.96823,-1.72474c0,-0.48425 1.11336,-1.32319 1.45536,-2.11083c0.33074,-0.76169 -0.11775,-1.48068 0.35055,-1.48068c0.95255,0 2.37405,0.2852 2.37405,1.23776z" fill="#000000" stroke="#000000"/><path d="M387.29611,327.12481c0.56032,0 1.01454,0.92662 1.01454,2.06968c0,1.14306 -0.45423,2.06968 -1.01454,2.06968c-0.56032,0 -1.01454,-0.92662 -1.01454,-2.06968c0,-1.14306 0.45423,-2.06968 1.01454,-2.06968z" fill="#fecec7" stroke="#000000"/></g></g></svg>