<svg xmlns="http://www.w3.org/2000/svg" xmlns:xlink="http://www.w3.org/1999/xlink" version="1.1" width="434.80551" height="479.44885" viewBox="0,0,434.80551,479.44885"><defs><linearGradient x1="38.55973" y1="40.27007" x2="-47.89011" y2="83.51681" gradientUnits="userSpaceOnUse" id="color-1"><stop offset="0" stop-color="#ff0000"/><stop offset="1" stop-color="#ff0000" stop-opacity="0"/></linearGradient><linearGradient x1="267.19988" y1="402.5302" x2="341.70103" y2="402.5302" gradientUnits="userSpaceOnUse" id="color-2"><stop offset="0" stop-color="#000000"/><stop offset="1" stop-color="#0e0e0e"/></linearGradient><linearGradient x1="304.26999" y1="424.37128" x2="304.26999" y2="435.24526" gradientUnits="userSpaceOnUse" id="color-3"><stop offset="0" stop-color="#000000"/><stop offset="1" stop-color="#666666"/></linearGradient><linearGradient x1="284.84599" y1="389.50391" x2="284.84599" y2="427.83803" gradientUnits="userSpaceOnUse" id="color-4"><stop offset="0" stop-color="#151515"/><stop offset="1" stop-color="#212121"/></linearGradient><linearGradient x1="315.38923" y1="392.68256" x2="315.38923" y2="409.02885" gradientUnits="userSpaceOnUse" id="color-5"><stop offset="0" stop-color="#292929"/><stop offset="1" stop-color="#292929"/></linearGradient><linearGradient x1="258.18048" y1="250.80568" x2="242.72173" y2="296.73164" gradientUnits="userSpaceOnUse" id="color-6"><stop offset="0" stop-color="#ffffff"/><stop offset="1" stop-color="#cccccc"/></linearGradient><radialGradient cx="171.67567" cy="263.6735" r="3.27809" gradientUnits="userSpaceOnUse" id="color-7"><stop offset="0" stop-color="#cccccc"/><stop offset="1" stop-color="#7f7f7f"/></radialGradient><radialGradient cx="168.65691" cy="265.35265" r="2.8327" gradientUnits="userSpaceOnUse" id="color-8"><stop offset="0" stop-color="#cccccc"/><stop offset="1" stop-color="#7f7f7f"/></radialGradient><radialGradient cx="165.96621" cy="268.34574" r="3.5144" gradientUnits="userSpaceOnUse" id="color-9"><stop offset="0" stop-color="#cccccc"/><stop offset="1" stop-color="#7f7f7f"/></radialGradient><radialGradient cx="166.04523" cy="272.3299" r="3.5144" gradientUnits="userSpaceOnUse" id="color-10"><stop offset="0" stop-color="#cccccc"/><stop offset="1" stop-color="#7f7f7f"/></radialGradient><radialGradient cx="167.30731" cy="276.58842" r="3.3044" gradientUnits="userSpaceOnUse" id="color-11"><stop offset="0" stop-color="#cccccc"/><stop offset="1" stop-color="#7f7f7f"/></radialGradient><radialGradient cx="167.06029" cy="280.74107" r="3.04268" gradientUnits="userSpaceOnUse" id="color-12"><stop offset="0" stop-color="#cccccc"/><stop offset="1" stop-color="#7f7f7f"/></radialGradient><radialGradient cx="167.01083" cy="284.30762" r="3.48838" gradientUnits="userSpaceOnUse" id="color-13"><stop offset="0" stop-color="#cccccc"/><stop offset="1" stop-color="#7f7f7f"/></radialGradient><radialGradient cx="166.00695" cy="288.55867" r="3.27838" gradientUnits="userSpaceOnUse" id="color-14"><stop offset="0" stop-color="#cccccc"/><stop offset="1" stop-color="#7f7f7f"/></radialGradient><radialGradient cx="165.31183" cy="292.46152" r="3.0684" gradientUnits="userSpaceOnUse" id="color-15"><stop offset="0" stop-color="#cccccc"/><stop offset="1" stop-color="#7f7f7f"/></radialGradient><radialGradient cx="165.62178" cy="296.52366" r="3.72378" gradientUnits="userSpaceOnUse" id="color-16"><stop offset="0" stop-color="#cccccc"/><stop offset="1" stop-color="#7f7f7f"/></radialGradient><radialGradient cx="167.33199" cy="300.51204" r="3.35736" gradientUnits="userSpaceOnUse" id="color-17"><stop offset="0" stop-color="#cccccc"/><stop offset="1" stop-color="#7f7f7f"/></radialGradient><radialGradient cx="167.7789" cy="303.92465" r="3.69836" gradientUnits="userSpaceOnUse" id="color-18"><stop offset="0" stop-color="#cccccc"/><stop offset="1" stop-color="#7f7f7f"/></radialGradient><radialGradient cx="177.23729" cy="259.11389" r="5.54365" gradientUnits="userSpaceOnUse" id="color-19"><stop offset="0" stop-color="#cccccc"/><stop offset="1" stop-color="#7f7f7f"/></radialGradient><radialGradient cx="185.34215" cy="264.32847" r="3.27809" gradientUnits="userSpaceOnUse" id="color-20"><stop offset="0" stop-color="#cccccc"/><stop offset="1" stop-color="#7f7f7f"/></radialGradient><radialGradient cx="185.75493" cy="268.72823" r="3.27809" gradientUnits="userSpaceOnUse" id="color-21"><stop offset="0" stop-color="#cccccc"/><stop offset="1" stop-color="#7f7f7f"/></radialGradient><radialGradient cx="185.03228" cy="273.2192" r="3.27809" gradientUnits="userSpaceOnUse" id="color-22"><stop offset="0" stop-color="#cccccc"/><stop offset="1" stop-color="#7f7f7f"/></radialGradient><radialGradient cx="183.45783" cy="277.89682" r="3.27809" gradientUnits="userSpaceOnUse" id="color-23"><stop offset="0" stop-color="#cccccc"/><stop offset="1" stop-color="#7f7f7f"/></radialGradient><radialGradient cx="182.1204" cy="282.33862" r="3.27809" gradientUnits="userSpaceOnUse" id="color-24"><stop offset="0" stop-color="#cccccc"/><stop offset="1" stop-color="#7f7f7f"/></radialGradient><radialGradient cx="180.31008" cy="286.77907" r="3.27809" gradientUnits="userSpaceOnUse" id="color-25"><stop offset="0" stop-color="#cccccc"/><stop offset="1" stop-color="#7f7f7f"/></radialGradient><radialGradient cx="178.26415" cy="290.98233" r="3.27809" gradientUnits="userSpaceOnUse" id="color-26"><stop offset="0" stop-color="#cccccc"/><stop offset="1" stop-color="#7f7f7f"/></radialGradient><radialGradient cx="176.59695" cy="294.99763" r="3.27809" gradientUnits="userSpaceOnUse" id="color-27"><stop offset="0" stop-color="#cccccc"/><stop offset="1" stop-color="#7f7f7f"/></radialGradient><radialGradient cx="174.64496" cy="299.39045" r="3.27809" gradientUnits="userSpaceOnUse" id="color-28"><stop offset="0" stop-color="#cccccc"/><stop offset="1" stop-color="#7f7f7f"/></radialGradient><radialGradient cx="171.84233" cy="303.49692" r="3.27809" gradientUnits="userSpaceOnUse" id="color-29"><stop offset="0" stop-color="#cccccc"/><stop offset="1" stop-color="#7f7f7f"/></radialGradient><radialGradient cx="165.4857" cy="317.24937" r="3.35736" gradientUnits="userSpaceOnUse" id="color-30"><stop offset="0" stop-color="#cccccc"/><stop offset="1" stop-color="#7f7f7f"/></radialGradient><radialGradient cx="163.85112" cy="320.75036" r="3.69836" gradientUnits="userSpaceOnUse" id="color-31"><stop offset="0" stop-color="#cccccc"/><stop offset="1" stop-color="#7f7f7f"/></radialGradient><radialGradient cx="163.64431" cy="325.03967" r="3.27809" gradientUnits="userSpaceOnUse" id="color-32"><stop offset="0" stop-color="#cccccc"/><stop offset="1" stop-color="#7f7f7f"/></radialGradient><linearGradient x1="255.99231" y1="308.16316" x2="244.84866" y2="337.88427" gradientUnits="userSpaceOnUse" id="color-33"><stop offset="0" stop-color="#ff0000"/><stop offset="1" stop-color="#ff0000" stop-opacity="0"/></linearGradient><linearGradient x1="250.75215" y1="306.23769" x2="256.04116" y2="308.018" gradientUnits="userSpaceOnUse" id="color-34"><stop offset="0" stop-color="#ff0000"/><stop offset="1" stop-color="#ff0000" stop-opacity="0"/></linearGradient><linearGradient x1="225.96972" y1="269.66676" x2="210.7639" y2="264.12876" gradientUnits="userSpaceOnUse" id="color-35"><stop offset="0" stop-color="#7f7f7f"/><stop offset="1" stop-color="#b2b2b2"/></linearGradient><linearGradient x1="224.22242" y1="280.56278" x2="213.16596" y2="276.84115" gradientUnits="userSpaceOnUse" id="color-36"><stop offset="0" stop-color="#000000"/><stop offset="1" stop-color="#353935"/></linearGradient><linearGradient x1="203.64348" y1="273.63588" x2="213.56574" y2="276.97571" gradientUnits="userSpaceOnUse" id="color-37"><stop offset="0" stop-color="#000000"/><stop offset="1" stop-color="#353935"/></linearGradient><radialGradient cx="193.863" cy="263.55016" r="26.25461" gradientUnits="userSpaceOnUse" id="color-38"><stop offset="0" stop-color="#666666"/><stop offset="1" stop-color="#000000"/></radialGradient><radialGradient cx="189.61422" cy="271.31241" r="11.28262" gradientUnits="userSpaceOnUse" id="color-39"><stop offset="0" stop-color="#370000"/><stop offset="1" stop-color="#000000"/></radialGradient><radialGradient cx="193.26289" cy="276.41553" r="9.62338" gradientUnits="userSpaceOnUse" id="color-40"><stop offset="0" stop-color="#370000"/><stop offset="1" stop-color="#000000"/></radialGradient><radialGradient cx="190.65238" cy="264.79089" r="8.9043" gradientUnits="userSpaceOnUse" id="color-41"><stop offset="0" stop-color="#370000"/><stop offset="1" stop-color="#000000"/></radialGradient><radialGradient cx="198.90851" cy="272.12934" r="7.83074" gradientUnits="userSpaceOnUse" id="color-42"><stop offset="0" stop-color="#370000"/><stop offset="1" stop-color="#000000"/></radialGradient><radialGradient cx="197.04131" cy="265.55213" r="5.89331" gradientUnits="userSpaceOnUse" id="color-43"><stop offset="0" stop-color="#370000"/><stop offset="1" stop-color="#000000"/></radialGradient><radialGradient cx="194.85209" cy="269.2208" r="2.87457" gradientUnits="userSpaceOnUse" id="color-44"><stop offset="0" stop-color="#ff0000"/><stop offset="1" stop-color="#000000"/></radialGradient><linearGradient x1="138.78814" y1="288.87555" x2="88.0089" y2="146.81865" gradientUnits="userSpaceOnUse" id="color-45"><stop offset="0" stop-color="#ff0000" stop-opacity="0"/><stop offset="1" stop-color="#ff0000"/></linearGradient><linearGradient x1="30.6359" y1="-16.88987" x2="72.72198" y2="100.84765" gradientUnits="userSpaceOnUse" id="color-46"><stop offset="0" stop-color="#ff0000" stop-opacity="0"/><stop offset="1" stop-color="#ff0000"/></linearGradient><radialGradient cx="69.21209" cy="99.95069" r="22.88751" gradientUnits="userSpaceOnUse" id="color-47"><stop offset="0" stop-color="#ff0000"/><stop offset="1" stop-color="#ff0000" stop-opacity="0"/></radialGradient><radialGradient cx="91.07897" cy="144.5097" r="22.88751" gradientUnits="userSpaceOnUse" id="color-48"><stop offset="0" stop-color="#ff0000"/><stop offset="1" stop-color="#ff0000" stop-opacity="0"/></radialGradient><linearGradient x1="97.18308" y1="370.31317" x2="139.8857" y2="427.93881" gradientUnits="userSpaceOnUse" id="color-49"><stop offset="0" stop-color="#000000"/><stop offset="1" stop-color="#0e0e0e"/></linearGradient><linearGradient x1="100.78734" y1="412.17572" x2="92.62879" y2="418.22149" gradientUnits="userSpaceOnUse" id="color-50"><stop offset="0" stop-color="#000000"/><stop offset="1" stop-color="#666666"/></linearGradient><linearGradient x1="102.41347" y1="385.21651" x2="111.31806" y2="397.23293" gradientUnits="userSpaceOnUse" id="color-51"><stop offset="0" stop-color="#151515"/><stop offset="1" stop-color="#212121"/></linearGradient><radialGradient cx="77.55612" cy="130.41575" r="167.47142" gradientUnits="userSpaceOnUse" id="color-52"><stop offset="0" stop-color="#ff0000"/><stop offset="1" stop-color="#ff0000" stop-opacity="0"/></radialGradient><linearGradient x1="313.4895" y1="437.5337" x2="387.9907" y2="437.5337" gradientUnits="userSpaceOnUse" id="color-2-,0,0,1,46.28964,35.00352"><stop offset="0" stop-color="#000000"/><stop offset="1" stop-color="#0e0e0e"/></linearGradient><linearGradient x1="350.5596" y1="459.3748" x2="350.5596" y2="470.2488" gradientUnits="userSpaceOnUse" id="color-3-,0,0,1,46.28964,35.00352"><stop offset="0" stop-color="#000000"/><stop offset="1" stop-color="#666666"/></linearGradient><linearGradient x1="361.6789" y1="427.6861" x2="361.6789" y2="444.0324" gradientUnits="userSpaceOnUse" id="color-5-,0,0,1,46.28964,35.00352"><stop offset="0" stop-color="#292929"/><stop offset="1" stop-color="#292929"/></linearGradient><linearGradient x1="304.4701" y1="285.8092" x2="289.0114" y2="331.7352" gradientUnits="userSpaceOnUse" id="color-6-,0,0,1,46.28964,35.00352"><stop offset="0" stop-color="#ffffff"/><stop offset="1" stop-color="#cccccc"/></linearGradient><radialGradient cx="217.9653" cy="298.677" r="3.2781" gradientUnits="userSpaceOnUse" id="color-7-,0,0,1,46.28964,35.00352"><stop offset="0" stop-color="#cccccc"/><stop offset="1" stop-color="#7f7f7f"/></radialGradient><radialGradient cx="214.9466" cy="300.3562" r="2.8327" gradientUnits="userSpaceOnUse" id="color-8-,0,0,1,46.28964,35.00352"><stop offset="0" stop-color="#cccccc"/><stop offset="1" stop-color="#7f7f7f"/></radialGradient><radialGradient cx="212.2558" cy="303.3493" r="3.5144" gradientUnits="userSpaceOnUse" id="color-9-,0,0,1,46.28964,35.00352"><stop offset="0" stop-color="#cccccc"/><stop offset="1" stop-color="#7f7f7f"/></radialGradient><radialGradient cx="212.3349" cy="307.3334" r="3.5144" gradientUnits="userSpaceOnUse" id="color-10-,0,0,1,46.28964,35.00352"><stop offset="0" stop-color="#cccccc"/><stop offset="1" stop-color="#7f7f7f"/></radialGradient><radialGradient cx="213.5969" cy="311.5919" r="3.3044" gradientUnits="userSpaceOnUse" id="color-11-,0,0,1,46.28964,35.00352"><stop offset="0" stop-color="#cccccc"/><stop offset="1" stop-color="#7f7f7f"/></radialGradient><radialGradient cx="213.3499" cy="315.7446" r="3.0427" gradientUnits="userSpaceOnUse" id="color-12-,0,0,1,46.28964,35.00352"><stop offset="0" stop-color="#cccccc"/><stop offset="1" stop-color="#7f7f7f"/></radialGradient><radialGradient cx="213.3005" cy="319.3111" r="3.4884" gradientUnits="userSpaceOnUse" id="color-13-,0,0,1,46.28964,35.00352"><stop offset="0" stop-color="#cccccc"/><stop offset="1" stop-color="#7f7f7f"/></radialGradient><radialGradient cx="212.2966" cy="323.5622" r="3.2784" gradientUnits="userSpaceOnUse" id="color-14-,0,0,1,46.28964,35.00352"><stop offset="0" stop-color="#cccccc"/><stop offset="1" stop-color="#7f7f7f"/></radialGradient><radialGradient cx="211.6015" cy="327.465" r="3.0684" gradientUnits="userSpaceOnUse" id="color-15-,0,0,1,46.28964,35.00352"><stop offset="0" stop-color="#cccccc"/><stop offset="1" stop-color="#7f7f7f"/></radialGradient><radialGradient cx="211.9114" cy="331.5272" r="3.7238" gradientUnits="userSpaceOnUse" id="color-16-,0,0,1,46.28964,35.00352"><stop offset="0" stop-color="#cccccc"/><stop offset="1" stop-color="#7f7f7f"/></radialGradient><radialGradient cx="213.6216" cy="335.5156" r="3.3574" gradientUnits="userSpaceOnUse" id="color-17-,0,0,1,46.28964,35.00352"><stop offset="0" stop-color="#cccccc"/><stop offset="1" stop-color="#7f7f7f"/></radialGradient><radialGradient cx="214.0685" cy="338.9282" r="3.6984" gradientUnits="userSpaceOnUse" id="color-18-,0,0,1,46.28964,35.00352"><stop offset="0" stop-color="#cccccc"/><stop offset="1" stop-color="#7f7f7f"/></radialGradient><radialGradient cx="223.5269" cy="294.1174" r="5.5437" gradientUnits="userSpaceOnUse" id="color-19-,0,0,1,46.28964,35.00352"><stop offset="0" stop-color="#cccccc"/><stop offset="1" stop-color="#7f7f7f"/></radialGradient><radialGradient cx="231.6318" cy="299.332" r="3.2781" gradientUnits="userSpaceOnUse" id="color-20-,0,0,1,46.28964,35.00352"><stop offset="0" stop-color="#cccccc"/><stop offset="1" stop-color="#7f7f7f"/></radialGradient><radialGradient cx="232.0446" cy="303.7317" r="3.2781" gradientUnits="userSpaceOnUse" id="color-21-,0,0,1,46.28964,35.00352"><stop offset="0" stop-color="#cccccc"/><stop offset="1" stop-color="#7f7f7f"/></radialGradient><radialGradient cx="231.3219" cy="308.2227" r="3.2781" gradientUnits="userSpaceOnUse" id="color-22-,0,0,1,46.28964,35.00352"><stop offset="0" stop-color="#cccccc"/><stop offset="1" stop-color="#7f7f7f"/></radialGradient><radialGradient cx="229.7475" cy="312.9003" r="3.2781" gradientUnits="userSpaceOnUse" id="color-23-,0,0,1,46.28964,35.00352"><stop offset="0" stop-color="#cccccc"/><stop offset="1" stop-color="#7f7f7f"/></radialGradient><radialGradient cx="228.41" cy="317.3421" r="3.2781" gradientUnits="userSpaceOnUse" id="color-24-,0,0,1,46.28964,35.00352"><stop offset="0" stop-color="#cccccc"/><stop offset="1" stop-color="#7f7f7f"/></radialGradient><radialGradient cx="226.5997" cy="321.7826" r="3.2781" gradientUnits="userSpaceOnUse" id="color-25-,0,0,1,46.28964,35.00352"><stop offset="0" stop-color="#cccccc"/><stop offset="1" stop-color="#7f7f7f"/></radialGradient><radialGradient cx="224.5538" cy="325.9858" r="3.2781" gradientUnits="userSpaceOnUse" id="color-26-,0,0,1,46.28964,35.00352"><stop offset="0" stop-color="#cccccc"/><stop offset="1" stop-color="#7f7f7f"/></radialGradient><radialGradient cx="222.8866" cy="330.0011" r="3.2781" gradientUnits="userSpaceOnUse" id="color-27-,0,0,1,46.28964,35.00352"><stop offset="0" stop-color="#cccccc"/><stop offset="1" stop-color="#7f7f7f"/></radialGradient><radialGradient cx="220.9346" cy="334.394" r="3.2781" gradientUnits="userSpaceOnUse" id="color-28-,0,0,1,46.28964,35.00352"><stop offset="0" stop-color="#cccccc"/><stop offset="1" stop-color="#7f7f7f"/></radialGradient><radialGradient cx="218.132" cy="338.5004" r="3.2781" gradientUnits="userSpaceOnUse" id="color-29-,0,0,1,46.28964,35.00352"><stop offset="0" stop-color="#cccccc"/><stop offset="1" stop-color="#7f7f7f"/></radialGradient><radialGradient cx="211.7753" cy="352.2529" r="3.3574" gradientUnits="userSpaceOnUse" id="color-30-,0,0,1,46.28964,35.00352"><stop offset="0" stop-color="#cccccc"/><stop offset="1" stop-color="#7f7f7f"/></radialGradient><radialGradient cx="210.1408" cy="355.7539" r="3.6984" gradientUnits="userSpaceOnUse" id="color-31-,0,0,1,46.28964,35.00352"><stop offset="0" stop-color="#cccccc"/><stop offset="1" stop-color="#7f7f7f"/></radialGradient><radialGradient cx="209.9339" cy="360.0432" r="3.2781" gradientUnits="userSpaceOnUse" id="color-32-,0,0,1,46.28964,35.00352"><stop offset="0" stop-color="#cccccc"/><stop offset="1" stop-color="#7f7f7f"/></radialGradient><linearGradient x1="302.2819" y1="343.1667" x2="291.1383" y2="372.8878" gradientUnits="userSpaceOnUse" id="color-33-,0,0,1,46.28964,35.00352"><stop offset="0" stop-color="#ff0000"/><stop offset="1" stop-color="#ff0000" stop-opacity="0"/></linearGradient><linearGradient x1="297.0418" y1="341.2412" x2="302.3308" y2="343.0215" gradientUnits="userSpaceOnUse" id="color-34-,0,0,1,46.28964,35.00352"><stop offset="0" stop-color="#ff0000"/><stop offset="1" stop-color="#ff0000" stop-opacity="0"/></linearGradient><linearGradient x1="272.2594" y1="304.6703" x2="257.0535" y2="299.1323" gradientUnits="userSpaceOnUse" id="color-35-,0,0,1,46.28964,35.00352"><stop offset="0" stop-color="#7f7f7f"/><stop offset="1" stop-color="#b2b2b2"/></linearGradient><linearGradient x1="270.5121" y1="315.5663" x2="259.4556" y2="311.8447" gradientUnits="userSpaceOnUse" id="color-36-,0,0,1,46.28964,35.00352"><stop offset="0" stop-color="#000000"/><stop offset="1" stop-color="#353935"/></linearGradient><linearGradient x1="249.9331" y1="308.6394" x2="259.8554" y2="311.9792" gradientUnits="userSpaceOnUse" id="color-37-,0,0,1,46.28964,35.00352"><stop offset="0" stop-color="#000000"/><stop offset="1" stop-color="#353935"/></linearGradient><radialGradient cx="240.1526" cy="298.5537" r="26.2546" gradientUnits="userSpaceOnUse" id="color-38-,0,0,1,46.28964,35.00352"><stop offset="0" stop-color="#666666"/><stop offset="1" stop-color="#000000"/></radialGradient><radialGradient cx="235.9039" cy="306.3159" r="11.2826" gradientUnits="userSpaceOnUse" id="color-39-,0,0,1,46.28964,35.00352"><stop offset="0" stop-color="#370000"/><stop offset="1" stop-color="#000000"/></radialGradient><radialGradient cx="239.5525" cy="311.419" r="9.6234" gradientUnits="userSpaceOnUse" id="color-40-,0,0,1,46.28964,35.00352"><stop offset="0" stop-color="#370000"/><stop offset="1" stop-color="#000000"/></radialGradient><radialGradient cx="236.942" cy="299.7944" r="8.9043" gradientUnits="userSpaceOnUse" id="color-41-,0,0,1,46.28964,35.00352"><stop offset="0" stop-color="#370000"/><stop offset="1" stop-color="#000000"/></radialGradient><radialGradient cx="245.1981" cy="307.1329" r="7.8307" gradientUnits="userSpaceOnUse" id="color-42-,0,0,1,46.28964,35.00352"><stop offset="0" stop-color="#370000"/><stop offset="1" stop-color="#000000"/></radialGradient><radialGradient cx="243.331" cy="300.5556" r="5.8933" gradientUnits="userSpaceOnUse" id="color-43-,0,0,1,46.28964,35.00352"><stop offset="0" stop-color="#370000"/><stop offset="1" stop-color="#000000"/></radialGradient><radialGradient cx="241.1417" cy="304.2243" r="2.8746" gradientUnits="userSpaceOnUse" id="color-44-,0,0,1,46.28964,35.00352"><stop offset="0" stop-color="#ff0000"/><stop offset="1" stop-color="#000000"/></radialGradient><linearGradient x1="143.4727" y1="405.3167" x2="186.1753" y2="462.9423" gradientUnits="userSpaceOnUse" id="color-49-,0,0,1,46.28964,35.00352"><stop offset="0" stop-color="#000000"/><stop offset="1" stop-color="#0e0e0e"/></linearGradient><linearGradient x1="147.077" y1="447.1792" x2="138.9184" y2="453.225" gradientUnits="userSpaceOnUse" id="color-50-,0,0,1,46.28964,35.00352"><stop offset="0" stop-color="#000000"/><stop offset="1" stop-color="#666666"/></linearGradient></defs><g><g data-paper-data="{&quot;isPaintingLayer&quot;:true}" fill-rule="nonzero" stroke-linejoin="miter" stroke-miterlimit="10" stroke-dasharray="" stroke-dashoffset="0" style="mix-blend-mode: normal"><path d="M6.6161,-23.58494l61.43007,122.7981c0,0 -32.72334,2.11294 -45.65091,9.52518c-14.81259,8.49306 -38.34176,38.63351 -38.34176,38.63351c0,0 -29.45658,-87.94033 -25.72211,-116.23626c3.78572,-28.68435 48.2847,-54.72052 48.2847,-54.72052z" fill="url(#color-1)" stroke="none" stroke-width="0" stroke-linecap="butt" transform="matrix(1,0,0,1,46.28964,35.00352)"/><path d="M 338.3891 367.3906 C 345.2631 359.8855 365.7099 352.2354 367.797 361.8196 C 374.2225 391.4949 370.2776 425.0404 357.3243 452.4095 C 352.7465 462.1011 330.3175 459.1053 325.253 449.6427 C 317.4952 434.4843 326.9796 418.3653 329.4965 402.9613 C 331.4949 390.674 330.1245 376.1428 338.3891 367.3906 Z " data-paper-data="{&quot;origRot&quot;:0}" fill="#ffffff" stroke="#000000" stroke-width="1" stroke-linecap="round"/><path d="M 268.2596 332.197 L 297.2398 305.1419 C 297.2398 305.1419 318.333 309.4862 335.0989 322.5068 C 347.785 332.3588 371.0209 355.9751 371.0209 355.9751 L 339.7054 377.7705 C 339.7054 377.7705 308.3269 358.4847 301.1555 355.6824 C 279.6414 347.2755 268.2596 332.197 268.2596 332.197 Z " data-paper-data="{&quot;origRot&quot;:0}" fill="#ffffff" stroke="#000000" stroke-width="1" stroke-linecap="round"/><g><path d="M 314.7583 468.7338 C 312.5481 468.0067 313.8807 464.7106 313.9576 462.6478 C 314.9601 454.1209 315.5343 445.703 317.2223 437.3427 C 318.3691 431.6731 320.9602 413.7089 326.7702 405.7915 C 330.1457 401.1916 327.6799 420.4396 333.1766 423.4089 C 343.2409 428.8672 356.5501 424.0752 367.2903 427.7332 C 369.9746 428.6461 364.3402 441.9649 366.8099 443.7491 C 372.2713 447.6857 381.2818 444.3993 386.0289 449.0343 C 389.1584 452.0901 387.7382 458.1473 387.1937 462.6478 C 386.883 465.2071 385.694 468.5882 385.694 468.5882 C 385.694 468.5882 323.5799 471.6262 314.7584 468.7338 Z " data-paper-data="{&quot;origPos&quot;:null}" fill="url(#color-2-,0,0,1,46.28964,35.00352)" stroke-width="1" stroke-linecap="round" stroke="none"/><path d="M 315.1246 468.8897 C 311.9012 466.8353 314.8501 459.3748 314.8501 459.3748 C 314.8501 459.3748 327.6605 461.9555 341.6486 462.5219 C 357.0366 463.1449 387.5021 462.4226 387.5021 462.4226 C 387.5021 462.4226 387.1505 468.6956 384.478 469.1127 C 381.8055 469.5299 357.1492 470.7258 341.3047 470.042 C 332.6629 469.6704 317.4782 470.3896 315.1247 468.8897 Z " data-paper-data="{&quot;origPos&quot;:null}" fill="url(#color-3-,0,0,1,46.28964,35.00352)" stroke-width="1.16035" stroke-linecap="round" stroke="none"/><g data-paper-data="{&quot;origPos&quot;:null}" stroke-linecap="butt"><g data-paper-data="{&quot;origPos&quot;:null}"><path d="M277.82218,427.43666c0,0 4.32041,-10.1561 5.64771,-16.90397c1.61397,-8.20521 5.52354,-21.0248 5.52354,-21.0248c0,0 0.52712,-0.04657 1.0786,0.18049c0.77993,0.32114 1.79782,1.22428 1.79782,1.22428l-9.56583,36.92537z" data-paper-data="{&quot;origPos&quot;:null}" fill="url(#color-4)" stroke-width="0" stroke="none" transform="matrix(1,0,0,1,46.28964,35.00352)"/><path d="M 331.7805 443.3409 C 332.065 443.4431 332.0276 443.697 332.0071 443.7794 C 332.0746 443.9908 332.137 444.1939 332.1653 444.416 C 332.4377 446.5496 332.5198 447.1953 330.922 448.5826 C 329.8976 449.4488 331.5236 449.3162 331.2163 450.7415 C 331.1531 451.0349 330.1003 451.6079 329.8742 451.8689 C 328.5149 453.3929 330.6272 453.9589 329.1183 455.7004 C 328.1703 456.7632 326.5437 457.5077 328.1329 458.8845 C 328.5574 460.3307 326.3255 460.872 325.4884 461.8382 C 325.4884 461.8382 325.2505 462.1128 324.9759 461.875 C 324.7013 461.6371 324.9392 461.3625 324.9392 461.3625 C 325.4942 460.7218 327.3217 459.4434 327.6186 459.4 C 325.7727 457.7632 327.5114 456.5071 328.5691 455.2247 C 329.6102 454.023 328.0026 452.9965 329.325 451.3932 C 329.6026 451.0728 330.2091 450.3671 330.5626 450.0865 C 330.1302 449.8298 329.4097 448.9716 330.4457 448.034 C 331.368 447.2332 331.5993 445.7198 331.4446 444.5081 C 331.4188 444.3057 331.3625 444.149 331.3003 443.9547 L 331.3158 443.5598 C 331.3158 443.5598 331.4387 443.218 331.7806 443.3409 Z " data-paper-data="{&quot;origPos&quot;:null,&quot;origRot&quot;:0}" fill="#000000" stroke-width="0.5" stroke="none"/><path d="M 332.0066 445.153 C 331.7157 445.071 331.7351 444.8152 331.7498 444.7315 C 331.6675 444.5254 331.591 444.3272 331.5471 444.1077 C 331.1253 441.9986 330.9979 441.3602 332.4942 439.8639 C 333.4552 438.9278 331.8425 439.1745 332.0487 437.7311 C 332.0912 437.434 333.101 436.7883 333.3082 436.512 C 334.5569 434.8962 332.41 434.4803 333.7925 432.6368 C 334.6633 431.5099 336.2336 430.6529 334.5515 429.3913 C 334.0262 427.9786 336.2145 427.2816 336.9815 426.2588 C 336.9815 426.2588 337.1995 425.9682 337.4902 426.1861 C 337.7808 426.4041 337.5628 426.6948 337.5628 426.6948 C 337.0542 427.3729 335.3213 428.7767 335.0281 428.8409 C 336.9846 430.3437 335.3387 431.719 334.3738 433.0727 C 333.4199 434.3447 335.0957 435.2555 333.8894 436.948 C 333.6351 437.2871 333.0797 438.0337 332.7468 438.3386 C 333.1963 438.5641 333.9753 439.3695 333.008 440.3777 C 332.1442 441.2416 332.02 442.7674 332.2596 443.9652 C 332.2996 444.1653 332.3668 444.3177 332.4426 444.5071 L 332.4549 444.902 C 332.4549 444.902 332.3563 445.2517 332.0066 445.1531 Z " data-paper-data="{&quot;origPos&quot;:null,&quot;index&quot;:null}" fill="#000000" stroke-width="0.5" stroke="none"/></g><path d="M283.44122,394.07854l5.61905,-5.15083l2.49738,1.09261l-3.43387,6.39952z" data-paper-data="{&quot;origPos&quot;:null}" fill="#333333" stroke-width="0" stroke="none" transform="matrix(1,0,0,1,46.28964,35.00352)"/></g><g data-paper-data="{&quot;origPos&quot;:null}" stroke-linecap="butt"><path d="M 365.1915 442.5371 C 365.1934 442.6072 365.1871 442.6697 365.1743 442.7254 C 365.2367 442.8131 365.2868 442.938 365.3093 443.1155 C 365.3979 443.817 364.8763 443.9362 364.8763 443.9362 C 362.7813 444.4151 360.3895 442.9142 358.3652 443.5932 C 358.2549 443.6184 358.1446 443.6436 358.0344 443.6688 L 357.4844 443.6311 C 357.3734 443.6461 357.2394 443.621 357.1214 443.4788 C 357.0393 443.3987 356.9666 443.2759 356.9402 443.0873 C 356.899 442.9036 356.9214 442.7495 356.9668 442.6275 C 357.0237 442.4249 357.1366 442.3195 357.2417 442.2647 C 358.3692 441.4092 359.3935 440.4484 360.4687 439.5147 C 360.0734 439.0686 359.7069 438.6042 359.3903 438.1208 L 358.8785 438.068 C 358.5872 438.0379 358.3691 437.6958 358.3915 437.304 C 358.4058 437.0538 358.5146 436.8439 358.6672 436.7326 L 359.1719 436.3517 L 359.1992 436.4169 C 359.5904 436.1488 360.1437 435.4996 360.7448 434.7954 C 360.3253 434.4892 359.9113 434.1573 359.476 433.9341 L 359.4755 433.9362 L 358.8492 433.6555 C 358.6184 433.5595 358.4592 433.2589 358.4785 432.9212 C 358.4928 432.6711 358.6016 432.4611 358.7542 432.3498 L 359.2589 431.9689 L 359.3591 432.209 C 359.642 431.7623 360.0194 431.3611 360.4507 431.0029 C 359.8764 430.4552 359.3829 429.9032 359.0783 429.4255 C 359.2104 427.1551 363.3605 427.3044 365.1783 428.7425 L 365.3495 428.7034 L 365.4404 428.3366 L 366.0667 428.6172 C 366.2975 428.7132 366.4567 429.0139 366.4375 429.3515 C 366.4182 429.6892 366.2267 429.9536 365.9877 430.001 C 365.8424 430.0342 365.5707 430.0963 365.3369 430.1498 C 365.2046 430.18 365.0844 430.2075 365.006 430.2254 C 364.4314 430.2063 363.6238 430.7194 362.7886 431.3009 C 363.3895 431.7395 363.9643 432.0969 364.3983 432.2914 L 364.7061 432.4294 C 364.9369 432.5253 365.0962 432.826 365.0769 433.1636 C 365.0545 433.5554 364.8002 433.8487 364.5089 433.8186 L 363.8597 433.7516 L 363.8616 433.718 C 363.6293 433.9877 363.3659 434.2652 363.0841 434.5447 C 365.7418 435.9851 365.5081 437.2402 362.6052 439.431 C 362.5665 439.4602 362.528 439.4895 362.4895 439.519 C 363.3452 440.4278 364.1558 441.3465 364.6227 441.701 L 364.9349 441.9529 C 364.9349 441.9529 365.1722 441.826 365.1915 442.5371 Z M 361.3517 440.4427 C 360.7033 440.9945 360.0736 441.565 359.4377 442.1207 C 360.8773 442.1926 362.3412 442.6905 363.7724 442.6475 C 363.0129 441.9726 362.1579 441.2395 361.3517 440.4427 Z M 363.6909 436.475 C 363.1274 436.2254 362.4602 435.805 362.0126 435.5484 C 361.2841 436.2008 360.5383 436.8232 359.945 437.3357 C 360.3834 437.4974 360.9656 437.9858 361.5793 438.5849 C 361.7463 438.4515 361.9155 438.3197 362.0876 438.1898 C 362.5246 437.86 363.1537 437.0455 363.6909 436.4749 Z M 362.6678 429.6486 C 361.7712 429.5849 360.8968 429.383 360.3628 429.1313 C 360.6817 429.4997 361.0764 429.8882 361.5013 430.2645 C 361.8825 430.0348 362.2777 429.8299 362.6679 429.6486 Z M 362.6392 432.7928 C 362.3268 432.5746 362.0025 432.3315 361.6802 432.0738 C 361.1354 432.4402 360.6187 432.7461 360.1904 432.855 C 360.6627 433.1703 361.1227 433.5312 361.6036 433.8095 C 361.9576 433.419 362.3099 433.0598 362.6392 432.7928 Z " data-paper-data="{&quot;origPos&quot;:null,&quot;origRot&quot;:0}" fill="url(#color-5-,0,0,1,46.28964,35.00352)" stroke-width="0.5" stroke="none"/><path d="M 366.3723 445.7343 C 366.1538 445.8312 365.9761 445.822 365.8365 445.7672 L 365.8651 445.7953 C 362.9672 445.7953 360.1937 445.9319 357.3727 445.2267 C 352.9209 444.1137 356.8338 439.1434 356.8338 436.326 C 357.042 433.4526 357.7095 430.797 357.7095 427.7873 C 357.7095 427.7873 357.7095 427.0757 358.4211 427.0757 C 359.1326 427.0757 359.1326 427.7873 359.1326 427.7873 C 359.1326 429.87 357.7941 434.7473 358.2569 436.326 C 358.2569 439.2451 355.014 443.1701 357.7179 443.8461 C 360.4212 444.5219 363.0814 444.3722 365.8651 444.3722 L 366.7346 444.7955 C 366.7346 444.7955 367.0229 445.4461 366.3723 445.7343 Z " data-paper-data="{&quot;origPos&quot;:null}" fill="#1a1a1a" stroke-width="0.5" stroke="none"/></g></g><g data-paper-data="{&quot;origRot&quot;:0}" stroke-linecap="round"><path d="M 371.331 359.5824 C 373.3824 366.432 373.8045 377.1939 367.4299 380.8856 C 357.711 386.7593 343.8301 386.7718 333.041 382.3477 C 327.9854 380.2129 331.4729 371.4704 330.8765 366.0143 C 330.793 361.4095 327.4201 355.0822 331.0074 352.2033 C 338.1682 346.4587 348.7795 343.5101 357.4672 345.2047 C 364.337 346.359 369.4304 353.2461 371.331 359.5824 Z " data-paper-data="{&quot;origPos&quot;:null}" fill="#666666" stroke="#000000" stroke-width="1.5"/><path d="M 370.4236 360.1248 C 372.0905 365.6901 372.4334 374.434 367.2542 377.4334 C 359.3578 382.2053 348.0797 382.2155 339.314 378.6213 C 335.2066 376.8868 338.04 369.7836 337.5552 365.3506 C 337.4876 361.6095 334.7471 356.4687 337.6616 354.1294 C 343.4798 349.4623 352.101 347.0665 359.1596 348.4435 C 364.7412 349.3812 368.8796 354.9769 370.4235 360.1249 Z " data-paper-data="{&quot;origPos&quot;:null}" fill="#ffffff" stroke="none" stroke-width="0.81248"/></g><path d="M 222.3638 375.3942 C 231.4738 374.8709 246.3062 387.3521 241.6533 395.7779 C 228.2025 420.098 204.8175 440.4555 179.1853 451.1506 C 169.0842 455.3605 149.7182 442.887 151.2209 432.2976 C 153.3827 417.23 173.0302 408.9133 185.364 398.8635 C 196.3581 389.9516 207.5821 376.1806 222.3638 375.3942 Z " data-paper-data="{&quot;origRot&quot;:0}" fill="#ffffff" stroke="#000000" stroke-width="1" stroke-linecap="round"/><path d="M 230.2501 286.155 C 230.2501 286.155 270.3847 273.5983 273.9784 293.1065 C 277.5722 312.6146 267.0768 364.5579 250.0076 393.4059 C 244.5456 402.6326 223.5081 398.4781 217.9275 389.2574 C 211.2906 377.6692 217.4934 367.0882 217.4934 367.0882 C 217.4934 367.0882 224.1252 337.8991 225.5124 326.1126 C 227.7337 307.7705 230.2502 286.155 230.2502 286.155 Z " data-paper-data="{&quot;origRot&quot;:0}" fill="#ffffff" stroke="#000000" stroke-width="1" stroke-linecap="round"/><g data-paper-data="{&quot;origRot&quot;:0}" stroke-linecap="round"><path d="M 255.6704 386.5996 C 254.2259 393.6022 249.4908 403.2758 242.128 403.5007 C 230.7857 404.0595 218.561 397.4841 211.1632 388.4705 C 207.7259 384.1922 214.9442 378.1514 217.0081 373.0657 C 219.1195 368.9726 219.1526 361.8025 223.6765 360.9706 C 232.7058 359.3116 243.4454 361.7511 250.2887 367.365 C 255.7883 371.641 257.004 380.1202 255.6704 386.5996 Z " data-paper-data="{&quot;origPos&quot;:null}" fill="#666666" stroke="#000000" stroke-width="1.5"/><path d="M 254.0564 386.1569 C 252.883 391.8468 249.0359 399.7063 243.0537 399.8891 C 233.8383 400.343 223.9062 395.0007 217.8954 387.677 C 215.1027 384.2012 220.925 379.2746 222.6441 375.1611 C 224.3176 371.8171 224.3836 365.9877 228.0622 365.3344 C 235.3798 364.034 244.07 365.9526 249.6842 370.5298 C 254.089 373.9782 255.14 380.8927 254.0564 386.157 Z " data-paper-data="{&quot;origPos&quot;:null}" fill="#ffffff" stroke="none" stroke-width="0.81248"/></g><path d="M 308.0422 268.5598 C 302.0661 263.775 312.9374 250.8735 320.2375 247.5719 C 330.0585 243.1375 341.5443 248.5751 352.588 248.3537 C 364.4293 248.1337 377.4243 242.6389 388.1575 247.6619 C 395.1449 250.9448 402.2839 263.1371 396.8973 267.9236 C 387.3053 277.2812 371.259 276.0429 358.0384 276.1087 C 341.2498 276.1938 320.9666 278.0434 308.0421 268.5598 Z " data-paper-data="{&quot;origRot&quot;:0}" fill="#000000" stroke="#000000" stroke-width="1.5" stroke-linecap="round"/><g data-paper-data="{&quot;origRot&quot;:0}"><path d="M 381.104 270.2499 C 377.0676 269.6732 372.5531 263.8524 374.6109 260.7423 C 378.8995 253.6674 388.5176 252.0371 395.2295 247.5784 C 398.2326 245.586 400.5544 242.3965 403.5523 240.6484 C 407.6266 238.2742 412.3077 233.4514 416.6766 235.2962 C 421.2565 237.2154 421.463 244.2285 422.4059 249.1288 C 423.1974 253.2508 424.251 258.488 422.1063 262.2926 C 420.1708 265.0707 415.7109 265.0686 412.3052 265.409 C 408.688 265.7713 405.032 263.1507 401.4007 263.6964 C 394.3963 264.7558 388.1339 271.2185 381.1039 270.2499 Z " fill="#ffffff" stroke="#ffffff" stroke-width="2.41239" stroke-linecap="round"/><path d="M 397.2763 246.8873 C 397.2763 246.8873 397.923 239.458 399.4966 236.1698 C 401.0399 232.9434 403.3852 229.9817 406.1001 227.6447 C 408.3479 226.043 411.1953 224.3586 413.8963 224.7506 C 416.0983 225.0778 417.0983 227.9036 418.4212 229.6873 C 418.8223 230.2272 418.6436 231.6919 418.6436 231.6919 " fill="none" stroke="#353935" stroke-width="1.20619" stroke-linecap="round"/><path d="M 401.404 232.8941 C 404.9126 228.904 409.5828 225.7803 414.6 225.261 C 416.9386 224.7271 420.1002 228.596 419.0628 230.3671 C 417.4572 233.0743 412.3308 231.8653 409.9835 234.1339 C 408.0982 235.9615 408.2954 239.0566 406.7925 241.2251 C 406.0446 243.045 404.9271 244.752 403.3081 245.9623 C 402.1983 246.8031 400.5796 247.9714 399.4589 247.5583 C 398.3385 247.1453 397.4637 245.2309 397.5665 243.8461 C 397.8537 240.0527 398.8347 235.7845 401.4039 232.8941 Z " fill="#353935" stroke="none" stroke-width="1.20619" stroke-linecap="round"/><path d="M 402.3914 255.6252 C 401.155 253.5725 400.8885 250.9158 401.1803 248.2068 C 401.1511 246.4668 401.2303 244.1793 403.1698 242.5902 C 405.7762 240.5023 410.1966 237.7949 412.6366 238.8753 C 415.856 240.309 415.1357 244.6762 415.9034 247.7646 C 416.7757 251.4239 420.1739 255.3432 418.0466 259.5282 C 416.7684 261.9995 411.0303 261.8002 408.1605 261.1612 C 405.115 260.4836 403.7039 257.8638 402.3914 255.6252 Z " fill="#000000" stroke="none" stroke-width="1.67373" stroke-linecap="round"/><g stroke-linecap="round"><path d="M 405.5144 236.7504 C 406.9745 234.334 411.0798 233.5297 413.9581 232.3937 C 416.7448 231.3077 419.9306 229.3624 422.5413 229.866 C 424.8205 230.3066 426.5962 232.7924 425.5182 234.7541 C 424.2067 237.1378 420.3642 238.349 417.4984 239.6648 C 414.3653 240.9284 410.6116 243.1163 407.7822 242.3602 C 405.3777 241.7182 404.2315 238.76 405.5145 236.7504 Z " stroke-width="0.54163" fill="#353935" stroke="none"/><path d="M 408.0514 243.7339 C 409.5115 241.3175 413.6168 240.5132 416.4951 239.3772 C 419.2818 238.2912 422.4676 236.3459 425.0784 236.8494 C 427.3576 237.2901 429.1332 239.7759 428.0552 241.7376 C 426.7438 244.1212 422.9012 245.3325 420.0354 246.6483 C 416.9023 247.9119 413.1486 250.0998 410.3192 249.3437 C 407.9147 248.7017 406.7685 245.7435 408.0515 243.7339 Z " stroke-width="0.54163" fill="#353935" stroke="none"/><path d="M 410.7664 251.1012 C 412.2265 248.6847 416.3318 247.8804 419.2101 246.7444 C 421.9968 245.6584 425.1827 243.7131 427.7934 244.2166 C 430.0726 244.6573 431.8482 247.1431 430.7702 249.1048 C 429.4588 251.4885 425.6162 252.6997 422.7504 254.0155 C 419.6173 255.2791 415.8636 257.467 413.0343 256.7109 C 410.6298 256.0689 409.4835 253.1107 410.7665 251.1011 Z " stroke-width="0.54163" fill="#353935" stroke="none"/><path d="M 414.4783 258.3562 C 415.9384 255.9397 420.0437 255.1354 422.922 253.9994 C 425.7087 252.9134 428.8945 250.9681 431.5052 251.4716 C 433.7844 251.9123 435.5601 254.3981 434.482 256.3598 C 433.1706 258.7435 429.3281 259.9547 426.4623 261.2705 C 423.3291 262.5341 419.5755 264.722 416.7461 263.9659 C 414.3416 263.3239 413.1954 260.3657 414.4783 258.3561 Z " stroke-width="0.54163" fill="#353935" stroke="none"/></g><path d="" fill="#eac18d" stroke="none" stroke-width="1.20619" stroke-linecap="butt" transform="matrix(1,0,0,1,46.28964,35.00352)"/></g><path d="M 316.3842 192.9074 C 318.2258 188.0302 328.3739 186.8097 331.9269 191.1321 C 339.4817 200.4222 338.3055 214.3963 342.1587 225.5534 C 346.1183 238.5523 358.2498 250.5846 355.3173 263.6815 C 353.5292 271.6079 337.7613 275.1722 330.7523 269.9691 C 320.8274 262.4515 319.101 247.4225 316.5015 234.5161 C 313.776 220.9329 311.4107 205.833 316.3842 192.9073 Z " data-paper-data="{&quot;origRot&quot;:0}" fill="#000000" stroke="#000000" stroke-width="1.5" stroke-linecap="round"/><path d="M 322.6205 275.3816 C 316.1997 274.3091 307.3164 270.2553 305.3843 263.4439 C 304.4018 257.9495 311.0848 251.5833 316.6233 250.0556 C 327.4113 247.088 338.9813 253.3047 350.1765 252.114 C 361.7073 251.5001 372.5146 243.7736 384.1219 244.6947 C 389.7181 245.15 393.8245 251.6522 395.7282 256.9392 C 397.2166 261.0851 397.2097 268.1971 393.4437 271.1419 C 388.3966 275.0872 380.8439 275.078 374.3401 275.3171 C 357.2774 275.9516 339.6079 278.2061 322.6206 275.3816 Z " data-paper-data="{&quot;origRot&quot;:0}" fill="#ffffff" stroke="none" stroke-width="1.00573" stroke-linecap="round"/><path d="M 315.435 194.5572 C 317.0574 189.5405 326.7406 183.7847 329.8165 187.9185 C 336.7494 197.2484 332.5777 211.1496 336.4104 222.301 C 340.5042 235.8311 354.6988 247.351 353.4569 261.534 C 352.7763 269.2355 337.6297 274.9643 331.8018 269.6439 C 320.7335 260.5074 319.1053 243.8566 315.9226 229.4158 C 313.4299 218.0791 311.9028 205.4841 315.4351 194.5571 Z " data-paper-data="{&quot;origRot&quot;:0}" fill="#ffffff" stroke="none" stroke-width="1.00573" stroke-linecap="round"/><g data-paper-data="{&quot;origRot&quot;:0}"><path d="M179.16983,267.78487c0,0 11.90684,-31.70872 16.70852,-52.76443c3.31515,-14.53716 6.59392,-55.23703 27.98185,-80.00514c21.38794,-24.76811 75.84584,6.78829 76.38888,24.66056c0.54305,17.87226 -25.58017,67.70548 -30.34435,79.2099c-8.43111,20.35951 -19.86154,52.75514 -19.86154,52.75514z" data-paper-data="{&quot;origPos&quot;:null}" fill="#000000" stroke="none" stroke-width="0" stroke-linecap="butt" transform="matrix(1,0,0,1,46.28964,35.00352)"/><path d="M 263.9326 179.2785 C 268.477 171.4497 274.4477 162.7741 281.2621 166.6081 C 288.0765 170.442 296.4752 178.859 299.2718 186.1063 C 301.0037 190.6186 294.2823 216.9445 287.5373 220.0301 C 281.4254 223.0731 254.1 214.6517 253.7034 209.904 C 252.8644 199.5883 258.2167 189.1255 263.9326 179.2785 Z " data-paper-data="{&quot;origPos&quot;:null,&quot;index&quot;:null}" fill="#ffffff" stroke="#000000" stroke-width="2" stroke-linecap="round"/><path d="M 333.9074 237.8026 C 330.7206 241.3442 303.8647 231.5281 300.8368 225.4086 C 297.3306 218.8724 307.8962 193.8405 312.0042 191.2939 C 318.614 187.2128 330.3928 185.5876 338.1386 186.6547 C 345.8844 187.7217 345.3938 198.2418 344.2792 207.2252 C 342.8773 218.5242 340.8134 230.0939 333.9074 237.8026 Z " data-paper-data="{&quot;origPos&quot;:null}" fill="#ffffff" stroke="#000000" stroke-width="2" stroke-linecap="round"/><path d="M 325.599 246.2777 C 327.5907 253.8159 321.9944 261.6373 318.6751 268.7228 C 316.2811 273.2004 313.5752 278.8764 308.7561 280.3757 C 304.096 281.8433 282.3984 272.9239 279.8481 267.8047 C 277.6482 263.501 286.9341 238.1172 293.1403 234.8787 C 298.3751 231.9381 324.162 240.8516 325.599 246.2778 Z " data-paper-data="{&quot;origPos&quot;:null}" fill="#ffffff" stroke="#000000" stroke-width="2" stroke-linecap="round"/><path d="M 285.0618 231.8215 C 286.5431 237.6319 278.4642 262.6739 273.3274 265.7453 C 269.289 268.1039 246.4481 259.3835 243.6124 254.1651 C 240.3713 248.201 243.25 240.3707 244.6658 233.6892 C 246.2696 227.7526 246.5799 218.3824 252.5189 216.9223 C 260.2734 215.0192 284.1138 228.0275 285.0618 231.8214 Z " data-paper-data="{&quot;origPos&quot;:null}" fill="#ffffff" stroke="#000000" stroke-width="2" stroke-linecap="round"/><path d="M 287.2296 326.4012 L 226.8992 303.8846 L 240.4476 264.2591 L 303.8974 287.5101 Z " data-paper-data="{&quot;origPos&quot;:null}" fill="url(#color-6-,0,0,1,46.28964,35.00352)" stroke="#000000" stroke-width="2" stroke-linecap="round"/><g><path d="M 326.785 195.3177 L 331.3976 197.1127 L 328.3226 204.0847 L 335.1146 206.6136 L 333.7208 210.7546 L 326.9299 207.8622 L 319.7039 229.3298 L 315.4182 227.6448 L 322.9712 206.287 L 316.0325 204.1941 L 317.2429 200.598 L 324.3618 203.2369 Z " stroke-width="0.15376" stroke-linecap="round" fill="#000000" stroke="none"/><g stroke-linecap="butt"><path d="M 327.3 231.4093 C 327.1961 231.718 327.047 231.8206 326.8412 231.7513 C 325.3085 231.3118 323.7876 230.838 322.2549 230.3985 C 322.152 230.3639 322.0834 230.3408 322.0148 230.3177 C 322.1071 230.0433 322.1421 229.8259 322.2229 229.5858 C 322.2576 229.4829 322.4067 229.3803 322.5096 229.4149 C 322.7728 229.4272 323.0245 229.4737 323.322 229.4974 C 323.8027 229.5444 323.9059 229.4645 324.056 229.0186 C 324.3793 228.0581 324.7829 227.0861 325.0718 226.1141 C 325.5226 224.6616 325.9162 223.1517 326.367 221.6991 C 326.6441 220.8758 326.9784 220.1097 327.2555 219.2864 C 327.4519 218.703 327.6597 218.0855 327.8332 217.4566 C 327.6495 217.662 327.4611 217.8653 327.2477 218.0615 C 326.3828 218.8775 325.5411 219.4747 324.6716 220.1545 C 323.9599 220.7159 323.1953 220.9913 322.5214 221.4932 C 321.9244 221.9409 321.3519 222.3911 320.7203 222.7586 C 320.2624 223.021 319.7531 223.9669 319.4474 223.5332 C 318.1601 221.4937 317.9946 219.4875 317.2101 217.4712 C 316.7546 216.2609 316.1734 215.0386 315.7213 213.8379 C 315.6081 213.5385 315.6534 213.5859 315.6537 213.4715 L 315.5851 213.4484 C 315.3542 214.1344 315.1231 214.8208 314.8922 215.5068 C 314.3722 217.1652 313.8406 218.8578 313.2863 220.5046 C 312.8706 221.7396 312.3747 222.9859 311.9247 224.2096 C 311.8207 224.5183 311.7511 224.8386 311.6815 225.1588 C 311.635 225.4105 311.7945 225.6173 312.0231 225.7324 C 312.1831 225.8244 312.3203 225.8706 312.4918 225.9284 C 312.7319 226.0092 312.72 226.1579 312.628 226.3179 C 312.5245 226.5122 312.4667 226.6837 312.3974 226.8895 C 312.3397 227.061 312.2368 227.0264 312.0996 226.9802 C 311.5049 226.8183 310.9099 226.6562 310.3611 226.4714 C 309.7321 226.2979 309.1487 226.1015 308.5197 225.928 C 308.3138 225.8587 308.2225 225.7898 308.3376 225.5612 C 308.4412 225.3669 308.4762 225.1495 308.5339 224.978 C 308.6032 224.7722 308.7292 224.7383 308.9465 224.7733 C 309.2325 224.8313 309.5185 224.8894 309.7936 224.8671 C 309.8738 224.8559 310.0229 224.7533 310.046 224.6847 C 310.3458 223.9073 310.623 223.0838 310.9229 222.3064 C 311.2459 221.4604 311.6032 220.6256 311.9377 219.7452 C 312.0186 219.5048 312.111 219.2304 312.1576 218.9787 C 312.3318 218.1208 312.6548 217.2746 312.955 216.3826 C 313.3939 215.0788 313.7869 213.7978 314.2256 212.4943 C 314.3758 212.0481 314.5375 211.5679 314.6533 211.1104 C 314.6886 210.7786 314.5289 210.5721 314.2199 210.4681 C 314.1856 210.4565 314.1513 210.445 314.1513 210.445 C 313.5454 210.2028 313.5003 209.9964 313.8339 209.4594 C 313.857 209.3908 314.0288 209.3341 314.0974 209.3572 C 314.3718 209.4495 314.6463 209.5419 314.9209 209.6344 C 315.7327 209.9458 316.5677 210.1887 317.3567 210.4543 C 317.8027 210.6044 317.7641 210.8764 317.8811 211.1654 C 318.4444 212.467 318.6197 213.5703 318.9637 214.8147 C 319.4866 216.3236 319.9122 217.8805 320.4841 219.4323 C 320.6273 219.8208 320.4235 219.725 320.7928 219.5363 C 322.5352 218.6712 324.2459 217.7088 325.8091 216.7752 C 326.6483 216.2763 327.3254 215.5185 328.1838 215.0534 C 328.5629 214.8481 328.8722 214.4832 329.4214 214.668 C 330.3703 215.0257 331.3769 215.3263 332.3258 215.6839 C 332.5316 215.7532 332.5656 215.8791 332.4963 216.0849 C 332.3231 216.5998 332.3231 216.5998 331.7626 216.4493 C 331.2138 216.2646 331.0886 216.0694 330.8113 216.8929 C 330.5804 217.579 330.3609 218.231 330.1643 218.9286 C 330.0835 219.1688 330.037 219.4204 329.9561 219.6605 C 329.5635 220.8271 329.1823 221.9594 328.7897 223.1257 C 328.2931 224.601 327.7738 226.0304 327.2772 227.5057 C 327.0001 228.329 326.6886 229.141 326.3656 229.987 C 326.2155 230.4332 326.2606 230.6394 326.695 230.8238 C 326.8322 230.87 326.9464 230.9848 327.0951 230.9967 C 327.4269 231.032 327.3577 231.2378 327.2999 231.4093 Z " stroke-width="0.12102" fill="#000000" stroke="none"/></g></g><g><g><path d="M 209.6746 363.7035 C 209.6746 363.7035 209.8017 364.2389 209.8854 364.1282 C 210.1213 363.8156 210.2065 363.2907 210.3132 362.8573 C 210.3682 362.6338 210.3317 362.3955 210.3684 362.1683 C 210.4397 361.7239 210.5934 361.2918 210.6371 360.8438 C 210.6665 360.5447 210.6148 360.2417 210.5867 359.9425 C 210.5636 359.6942 210.4821 359.4497 210.4831 359.2001 C 210.4844 358.7397 210.4463 358.2585 210.5931 357.8222 C 210.9687 356.7064 211.5704 355.6755 212.0339 354.593 C 212.1496 354.3223 212.1398 354.1527 212.2478 353.9574 C 212.4443 353.6016 212.7432 353.308 212.9397 352.9521 C 213.0477 352.7569 213.0626 352.5514 213.1535 352.3168 C 213.5177 351.3783 214.2752 349.5105 214.2752 349.5105 " fill="none" stroke="#7f7f7f" stroke-width="0.89665" stroke-linecap="round"/><path d="M 214.5553 344.1743 C 213.5916 343.0438 215.1687 338.2901 214.5809 335.4429 C 214.2723 333.9425 212.1438 333.1736 211.9725 331.6515 C 211.5488 327.8847 212.3984 324.0627 212.879 320.3029 C 213.1931 317.8528 214.3479 315.5011 214.3556 313.0311 C 214.3609 311.4983 212.9083 310.1935 212.9134 308.6611 C 212.9211 306.1911 213.1956 303.5528 214.3901 301.389 C 215.0179 300.2504 216.7219 300.2316 217.8876 299.6528 C 219.0535 299.0741 220.3307 298.6787 221.3854 297.9168 C 222.4967 297.1139 223.0264 295.5112 224.3044 295.0151 C 225.4816 294.5585 226.8906 294.9144 228.0873 295.3172 C 229.2842 295.7201 230.6214 296.2886 231.2829 297.364 C 232.0007 298.532 231.6633 300.083 231.8531 301.4402 C 232.0428 302.7978 232.6141 304.1594 232.4233 305.5167 C 231.9096 309.1722 230.9495 312.78 229.7721 316.278 C 228.9841 318.6191 227.7139 320.7828 226.5509 322.9626 C 225.956 324.0775 224.9812 324.9885 224.5041 326.1582 C 223.1152 329.5636 222.5777 333.3121 220.9807 336.626 C 220.3862 337.8613 218.9508 338.485 218.0616 339.528 C 216.8052 341.0044 215.2514 344.9915 214.5553 344.1743 Z " fill="none" stroke="#7f7f7f" stroke-width="0.61539" stroke-linecap="round"/><path d="M 220.0657 298.7651 C 220.2613 299.1582 220.3065 299.6257 220.1555 300.0742 C 220.0045 300.523 219.6858 300.8677 219.2922 301.0628 C 218.8992 301.2581 218.432 301.3035 217.9832 301.1524 C 217.5347 301.0014 217.1897 300.6827 216.9948 300.2895 C 216.7993 299.8961 216.754 299.4288 216.905 298.9801 C 217.056 298.5316 217.3747 298.1866 217.7682 297.9917 C 218.1613 297.7961 218.6288 297.7509 219.0773 297.9019 C 219.5261 298.0529 219.8708 298.3716 220.0657 298.7651 Z " fill="url(#color-7-,0,0,1,46.28964,35.00352)" stroke="none" stroke-width="0.13489" stroke-linecap="butt"/><path d="M 216.4673 300.0787 C 216.663 300.4719 216.7082 300.9394 216.5572 301.3879 C 216.4062 301.8366 216.0875 302.1813 215.6939 302.3764 C 215.3009 302.5717 214.8337 302.6171 214.3849 302.4661 C 213.9364 302.3151 213.5914 301.9964 213.3965 301.6031 C 213.201 301.2097 213.1556 300.7425 213.3067 300.2937 C 213.4577 299.8452 213.7764 299.5003 214.1699 299.3054 C 214.563 299.1098 215.0305 299.0646 215.479 299.2155 C 215.9278 299.3666 216.2725 299.6852 216.4673 300.0787 Z " fill="url(#color-8-,0,0,1,46.28964,35.00352)" stroke="none" stroke-width="0.13489" stroke-linecap="butt"/><path d="M 214.4704 303.6673 C 214.666 304.0604 214.7112 304.528 214.5603 304.9764 C 214.4092 305.4252 214.0906 305.7699 213.697 305.965 C 213.3039 306.1603 212.8367 306.2057 212.3879 306.0546 C 211.9394 305.9037 211.5945 305.5849 211.3995 305.1917 C 211.204 304.7983 211.1587 304.3311 211.3097 303.8823 C 211.4607 303.4338 211.7794 303.0889 212.1729 302.894 C 212.5661 302.6984 213.0336 302.6532 213.4821 302.8041 C 213.9308 302.9552 214.2755 303.2738 214.4704 303.6673 Z " fill="url(#color-9-,0,0,1,46.28964,35.00352)" stroke="none" stroke-width="0.13489" stroke-linecap="butt"/><path d="M 214.6011 307.4987 C 214.7967 307.8918 214.8419 308.3593 214.691 308.8078 C 214.54 309.2566 214.2213 309.6013 213.8277 309.7964 C 213.4346 309.9917 212.9674 310.037 212.5186 309.886 C 212.0701 309.735 211.7252 309.4163 211.5302 309.0231 C 211.3347 308.6296 211.2894 308.1624 211.4404 307.7137 C 211.5914 307.2652 211.9102 306.9202 212.3036 306.7253 C 212.6968 306.5297 213.1643 306.4845 213.6128 306.6355 C 214.0615 306.7865 214.4062 307.1052 214.6011 307.4987 Z " fill="url(#color-10-,0,0,1,46.28964,35.00352)" stroke="none" stroke-width="0.13489" stroke-linecap="butt"/><path d="M 215.8193 311.3805 C 216.0149 311.7736 216.0601 312.2411 215.9092 312.6896 C 215.7582 313.1384 215.4395 313.4831 215.0459 313.6782 C 214.6528 313.8735 214.1856 313.9188 213.7368 313.7678 C 213.2883 313.6168 212.9434 313.2981 212.7484 312.9049 C 212.5529 312.5115 212.5076 312.0442 212.6586 311.5955 C 212.8096 311.147 213.1284 310.802 213.5218 310.6071 C 213.915 310.4115 214.3825 310.3663 214.831 310.5172 C 215.2797 310.6683 215.6244 310.987 215.8193 311.3805 Z " fill="url(#color-11-,0,0,1,46.28964,35.00352)" stroke="none" stroke-width="0.13489" stroke-linecap="butt"/><path d="M 215.1444 315.7297 C 215.34 316.1228 215.3852 316.5903 215.2343 317.0388 C 215.0832 317.4876 214.7645 317.8323 214.3709 318.0274 C 213.9779 318.2227 213.5107 318.2681 213.0619 318.117 C 212.6134 317.966 212.2684 317.6473 212.0735 317.2541 C 211.878 316.8607 211.8327 316.3935 211.9837 315.9447 C 212.1347 315.4962 212.4534 315.1512 212.8469 314.9564 C 213.24 314.7608 213.7076 314.7155 214.156 314.8665 C 214.6048 315.0175 214.9495 315.3362 215.1444 315.7297 Z " fill="url(#color-12-,0,0,1,46.28964,35.00352)" stroke="none" stroke-width="0.13489" stroke-linecap="butt"/><path d="M 214.6603 319.5119 C 214.8559 319.9051 214.9011 320.3726 214.7502 320.8211 C 214.5991 321.2698 214.2805 321.6145 213.8869 321.8096 C 213.4938 322.0049 213.0266 322.0503 212.5778 321.8993 C 212.1293 321.7483 211.7844 321.4296 211.5894 321.0364 C 211.3939 320.6429 211.3486 320.1757 211.4996 319.7269 C 211.6506 319.2784 211.9694 318.9335 212.3628 318.7386 C 212.756 318.543 213.2235 318.4978 213.672 318.6487 C 214.1207 318.7998 214.4654 319.1184 214.6603 319.5119 Z " fill="url(#color-13-,0,0,1,46.28964,35.00352)" stroke="none" stroke-width="0.13489" stroke-linecap="butt"/><path d="M 214.0331 323.7194 C 214.2287 324.1126 214.2739 324.5801 214.123 325.0286 C 213.9719 325.4773 213.6532 325.822 213.2596 326.0171 C 212.8666 326.2124 212.3994 326.2578 211.9506 326.1068 C 211.5021 325.9558 211.1571 325.6371 210.9622 325.2438 C 210.7667 324.8504 210.7214 324.3832 210.8724 323.9344 C 211.0234 323.4859 211.3421 323.141 211.7356 322.9461 C 212.1287 322.7505 212.5963 322.7053 213.0447 322.8562 C 213.4935 323.0073 213.8382 323.3259 214.0331 323.7194 Z " fill="url(#color-14-,0,0,1,46.28964,35.00352)" stroke="none" stroke-width="0.13489" stroke-linecap="butt"/><path d="M 213.549 327.5017 C 213.7446 327.8948 213.7899 328.3623 213.6389 328.8108 C 213.4879 329.2595 213.1692 329.6042 212.7756 329.7994 C 212.3825 329.9947 211.9153 330.04 211.4666 329.889 C 211.0181 329.738 210.6731 329.4193 210.4782 329.0261 C 210.2826 328.6326 210.2373 328.1654 210.3884 327.7166 C 210.5393 327.2681 210.8581 326.9232 211.2516 326.7283 C 211.6447 326.5327 212.1122 326.4875 212.5607 326.6384 C 213.0095 326.7895 213.3542 327.1081 213.549 327.5016 Z " fill="url(#color-15-,0,0,1,46.28964,35.00352)" stroke="none" stroke-width="0.13489" stroke-linecap="butt"/><path d="M 214.3885 331.5716 C 214.5841 331.9647 214.6293 332.4323 214.4784 332.8807 C 214.3273 333.3295 214.0087 333.6742 213.6151 333.8693 C 213.222 334.0646 212.7548 334.11 212.306 333.9589 C 211.8575 333.808 211.5126 333.4892 211.3176 333.096 C 211.1221 332.7026 211.0768 332.2354 211.2278 331.7866 C 211.3788 331.3381 211.6975 330.9931 212.091 330.7983 C 212.4842 330.6027 212.9517 330.5575 213.4002 330.7084 C 213.8489 330.8594 214.1936 331.1781 214.3885 331.5716 Z " fill="url(#color-16-,0,0,1,46.28964,35.00352)" stroke="none" stroke-width="0.13489" stroke-linecap="butt"/><g stroke-linecap="butt"><path d="M 215.5996 335.0662 C 215.9263 335.3599 216.1407 335.7776 216.1655 336.2506 C 216.1904 336.7232 216.0212 337.1612 215.7271 337.4873 C 215.4335 337.8139 215.0158 338.0281 214.5432 338.053 C 214.0705 338.0779 213.6326 337.9087 213.3064 337.6149 C 212.9797 337.3213 212.7653 336.9035 212.7404 336.4308 C 212.7155 335.9582 212.8848 335.52 213.1789 335.1938 C 213.4725 334.8672 213.8901 334.653 214.3628 334.6281 C 214.8355 334.6032 215.2734 334.7724 215.5996 335.0662 Z " fill="url(#color-17-,0,0,1,46.28964,35.00352)" stroke-width="0.13489" stroke="none"/><path d="M 215.7781 338.7559 C 216.1047 339.0495 216.3191 339.4673 216.3439 339.9403 C 216.3688 340.4129 216.1996 340.8508 215.9055 341.177 C 215.6119 341.5036 215.1942 341.7177 214.7216 341.7427 C 214.2489 341.7676 213.811 341.5984 213.4847 341.3046 C 213.1581 341.0109 212.9437 340.5932 212.9188 340.1205 C 212.8939 339.6479 213.0632 339.2096 213.3573 338.8835 C 213.6509 338.5569 214.0685 338.3427 214.5412 338.3178 C 215.0139 338.2929 215.4518 338.4621 215.778 338.7559 Z " fill="url(#color-18-,0,0,1,46.28964,35.00352)" stroke-width="0.13489" stroke="none"/></g><path d="M 227.0788 294.2664 C 227.4096 294.9313 227.4862 295.7219 227.2309 296.4805 C 226.9755 297.2391 226.4364 297.8224 225.771 298.152 C 225.1061 298.4827 224.3155 298.5594 223.5569 298.304 C 222.7982 298.0487 222.2152 297.5097 221.8854 296.8441 C 221.5549 296.1793 221.4783 295.3888 221.7336 294.6302 C 221.989 293.8715 222.5281 293.2883 223.1933 292.9586 C 223.8584 292.6282 224.6486 292.5515 225.4072 292.8068 C 226.1659 293.0622 226.7492 293.6013 227.0788 294.2665 Z " fill="url(#color-19-,0,0,1,46.28964,35.00352)" stroke="none" stroke-width="0.22813" stroke-linecap="butt"/><path d="M 233.7321 299.4201 C 233.9278 299.8132 233.973 300.2807 233.822 300.7292 C 233.671 301.1779 233.3523 301.5226 232.9587 301.7177 C 232.5657 301.913 232.0985 301.9584 231.6497 301.8074 C 231.2012 301.6564 230.8562 301.3377 230.6613 300.9445 C 230.4658 300.551 230.4204 300.0838 230.5715 299.6351 C 230.7225 299.1866 231.0412 298.8416 231.4347 298.6467 C 231.8278 298.4511 232.2953 298.4059 232.7438 298.5568 C 233.1926 298.7079 233.5373 299.0265 233.7321 299.42 Z " fill="url(#color-20-,0,0,1,46.28964,35.00352)" stroke="none" stroke-width="0.13489" stroke-linecap="butt"/><path d="M 234.145 303.8197 C 234.3406 304.2128 234.3858 304.6803 234.2348 305.1288 C 234.0838 305.5776 233.7651 305.9223 233.3715 306.1174 C 232.9785 306.3127 232.5113 306.3581 232.0625 306.207 C 231.614 306.0561 231.269 305.7373 231.0741 305.3441 C 230.8786 304.9507 230.8332 304.4835 230.9843 304.0347 C 231.1353 303.5862 231.454 303.2412 231.8475 303.0464 C 232.2406 302.8508 232.7081 302.8055 233.1566 302.9565 C 233.6054 303.1075 233.9501 303.4262 234.1449 303.8197 Z " fill="url(#color-21-,0,0,1,46.28964,35.00352)" stroke="none" stroke-width="0.13489" stroke-linecap="butt"/><path d="M 233.4223 308.3107 C 233.6179 308.7038 233.6632 309.1713 233.5122 309.6198 C 233.3612 310.0685 233.0425 310.4133 232.6489 310.6084 C 232.2558 310.8037 231.7886 310.849 231.3399 310.698 C 230.8914 310.547 230.5464 310.2283 230.3515 309.8351 C 230.1559 309.4417 230.1106 308.9744 230.2617 308.5257 C 230.4126 308.0772 230.7314 307.7322 231.1249 307.5373 C 231.518 307.3417 231.9855 307.2965 232.434 307.4475 C 232.8828 307.5985 233.2275 307.9172 233.4223 308.3107 Z " fill="url(#color-22-,0,0,1,46.28964,35.00352)" stroke="none" stroke-width="0.13489" stroke-linecap="butt"/><path d="M 231.8478 312.9884 C 232.0434 313.3815 232.0886 313.849 231.9377 314.2975 C 231.7866 314.7463 231.468 315.091 231.0744 315.2861 C 230.6813 315.4814 230.2141 315.5268 229.7653 315.3757 C 229.3168 315.2248 228.9719 314.906 228.7769 314.5128 C 228.5814 314.1194 228.5361 313.6522 228.6871 313.2034 C 228.8381 312.7549 229.1568 312.4099 229.5503 312.2151 C 229.9435 312.0195 230.411 311.9742 230.8595 312.1252 C 231.3082 312.2762 231.6529 312.5949 231.8478 312.9884 Z " fill="url(#color-23-,0,0,1,46.28964,35.00352)" stroke="none" stroke-width="0.13489" stroke-linecap="butt"/><path d="M 230.5104 317.4302 C 230.706 317.8233 230.7512 318.2908 230.6003 318.7393 C 230.4492 319.1881 230.1305 319.5328 229.7369 319.7279 C 229.3439 319.9232 228.8767 319.9686 228.4279 319.8175 C 227.9794 319.6666 227.6344 319.3478 227.4395 318.9546 C 227.244 318.5612 227.1987 318.094 227.3497 317.6452 C 227.5007 317.1967 227.8194 316.8517 228.2129 316.6569 C 228.6061 316.4613 229.0736 316.416 229.5221 316.567 C 229.9708 316.718 230.3155 317.0367 230.5104 317.4302 Z " fill="url(#color-24-,0,0,1,46.28964,35.00352)" stroke="none" stroke-width="0.13489" stroke-linecap="butt"/><path d="M 228.7003 321.8707 C 228.8959 322.2638 228.9411 322.7313 228.7902 323.1798 C 228.6392 323.6286 228.3205 323.9733 227.9269 324.1684 C 227.5338 324.3637 227.0666 324.4091 226.6179 324.258 C 226.1694 324.1071 225.8244 323.7883 225.6294 323.3951 C 225.4339 323.0017 225.3886 322.5345 225.5396 322.0857 C 225.6906 321.6372 226.0094 321.2922 226.4029 321.0974 C 226.796 320.9018 227.2635 320.8565 227.712 321.0075 C 228.1607 321.1585 228.5054 321.4772 228.7003 321.8707 Z " fill="url(#color-25-,0,0,1,46.28964,35.00352)" stroke="none" stroke-width="0.13489" stroke-linecap="butt"/><path d="M 226.6541 326.074 C 226.8497 326.4671 226.895 326.9346 226.744 327.3831 C 226.593 327.8318 226.2743 328.1766 225.8807 328.3717 C 225.4876 328.567 225.0204 328.6123 224.5717 328.4613 C 224.1232 328.3103 223.7782 327.9916 223.5833 327.5984 C 223.3877 327.205 223.3424 326.7377 223.4935 326.289 C 223.6444 325.8405 223.9632 325.4955 224.3567 325.3006 C 224.7498 325.105 225.2173 325.0598 225.6658 325.2108 C 226.1145 325.3618 226.4592 325.6805 226.6541 326.074 Z " fill="url(#color-26-,0,0,1,46.28964,35.00352)" stroke="none" stroke-width="0.13489" stroke-linecap="butt"/><path d="M 224.9869 330.0892 C 225.1825 330.4823 225.2278 330.9499 225.0768 331.3983 C 224.9258 331.8471 224.6071 332.1918 224.2135 332.3869 C 223.8205 332.5822 223.3532 332.6276 222.9045 332.4765 C 222.456 332.3256 222.111 332.0068 221.9161 331.6136 C 221.7206 331.2202 221.6752 330.753 221.8263 330.3042 C 221.9772 329.8557 222.296 329.5108 222.6895 329.3159 C 223.0826 329.1203 223.5501 329.0751 223.9986 329.226 C 224.4474 329.3771 224.7921 329.6957 224.9869 330.0892 Z " fill="url(#color-27-,0,0,1,46.28964,35.00352)" stroke="none" stroke-width="0.13489" stroke-linecap="butt"/><path d="M 223.0349 334.482 C 223.2305 334.8752 223.2758 335.3427 223.1248 335.7912 C 222.9738 336.2399 222.6551 336.5846 222.2615 336.7797 C 221.8685 336.975 221.4012 337.0204 220.9525 336.8694 C 220.504 336.7184 220.159 336.3996 219.9641 336.0064 C 219.7686 335.613 219.7232 335.1458 219.8743 334.697 C 220.0252 334.2485 220.344 333.9036 220.7375 333.7087 C 221.1306 333.5131 221.5981 333.4679 222.0466 333.6188 C 222.4954 333.7699 222.8401 334.0885 223.0349 334.482 Z " fill="url(#color-28-,0,0,1,46.28964,35.00352)" stroke="none" stroke-width="0.13489" stroke-linecap="butt"/><path d="M 220.2324 338.5884 C 220.428 338.9815 220.4732 339.4491 220.3223 339.8975 C 220.1712 340.3463 219.8526 340.691 219.4589 340.8861 C 219.0659 341.0814 218.5987 341.1268 218.1499 340.9757 C 217.7014 340.8248 217.3564 340.506 217.1615 340.1128 C 216.966 339.7194 216.9207 339.2522 217.0717 338.8034 C 217.2227 338.3549 217.5414 338.0099 217.9349 337.8151 C 218.328 337.6195 218.7956 337.5742 219.244 337.7252 C 219.6928 337.8762 220.0375 338.1949 220.2324 338.5884 Z " fill="url(#color-29-,0,0,1,46.28964,35.00352)" stroke="none" stroke-width="0.13489" stroke-linecap="butt"/><path d="M 217.9962 344.6022 C 218.3485 345.6013 218.3636 346.8221 217.9579 348.0276 C 217.5521 349.2333 216.8018 350.1965 215.917 350.7792 C 215.0325 351.3618 214.0142 351.564 213.0715 351.2468 C 212.1292 350.9296 211.4401 350.1526 211.088 349.1538 C 210.7359 348.1547 210.7207 346.9338 211.1266 345.7282 C 211.5324 344.5228 212.2826 343.5596 213.1672 342.9767 C 214.0517 342.3939 215.0704 342.1917 216.0127 342.5089 C 216.9553 342.8262 217.6441 343.6031 217.9962 344.6022 Z " fill="#b2b2b2" stroke="none" stroke-width="0.11208" stroke-linecap="butt"/><path d="M 213.7533 351.8035 C 214.0799 352.0971 214.2944 352.5149 214.3192 352.9878 C 214.3441 353.4605 214.1749 353.8984 213.8808 354.2246 C 213.5872 354.5512 213.1695 354.7653 212.6968 354.7903 C 212.2242 354.8152 211.7862 354.646 211.46 354.3522 C 211.1334 354.0585 210.919 353.6407 210.8941 353.1681 C 210.8691 352.6955 211.0384 352.2572 211.3325 351.9311 C 211.6262 351.6045 212.0438 351.3903 212.5165 351.3654 C 212.9891 351.3405 213.4271 351.5097 213.7533 351.8035 Z " fill="url(#color-30-,0,0,1,46.28964,35.00352)" stroke="none" stroke-width="0.13489" stroke-linecap="butt"/><path d="M 211.8503 355.5816 C 212.1769 355.8752 212.3913 356.293 212.4161 356.7659 C 212.441 357.2386 212.2719 357.6765 211.9778 358.0027 C 211.6841 358.3293 211.2665 358.5434 210.7938 358.5684 C 210.3211 358.5933 209.8832 358.4241 209.557 358.1302 C 209.2304 357.8366 209.0159 357.4188 208.991 356.9462 C 208.9661 356.4735 209.1354 356.0353 209.4295 355.7092 C 209.7231 355.3826 210.1408 355.1684 210.6135 355.1435 C 211.0861 355.1186 211.524 355.2877 211.8503 355.5816 Z " fill="url(#color-31-,0,0,1,46.28964,35.00352)" stroke="none" stroke-width="0.13489" stroke-linecap="butt"/><path d="M 212.0343 360.1312 C 212.2299 360.5244 212.2751 360.9919 212.1242 361.4404 C 211.9731 361.8891 211.6544 362.2338 211.2608 362.4289 C 210.8678 362.6242 210.4006 362.6696 209.9518 362.5186 C 209.5033 362.3676 209.1584 362.0489 208.9634 361.6557 C 208.7679 361.2622 208.7226 360.795 208.8736 360.3462 C 209.0246 359.8977 209.3433 359.5528 209.7368 359.3579 C 210.1299 359.1623 210.5975 359.1171 211.0459 359.268 C 211.4947 359.4191 211.8394 359.7377 212.0343 360.1312 Z " fill="url(#color-32-,0,0,1,46.28964,35.00352)" stroke="none" stroke-width="0.13489" stroke-linecap="butt"/><path d="M 211.2018 367.0476 L 214.3274 367.7459 L 213.0456 371.0289 L 210.2378 370.4375 L 206.6061 379.6506 L 202.9519 378.4205 L 205.5236 369.2042 L 201.764 367.762 L 203.0461 364.4791 L 206.7 365.709 L 207.7696 362.5316 L 212.0591 363.9754 Z " fill="#b2b2b2" stroke="none" stroke-width="0.11208" stroke-linecap="round"/><path d="M 205.5954 377.1 L 208.8637 365.2883 " fill="none" stroke="#7f7f7f" stroke-width="0.22417" stroke-linecap="round"/><path d="M 210.7089 368.7395 L 205.2019 366.7088 " fill="none" stroke="#7f7f7f" stroke-width="0.22417" stroke-linecap="round"/></g><path d="M 290.607 335.9018 L 222.4842 309.4998 L 226.1608 297.6394 L 293.0135 321.7202 Z " fill="#000000" stroke="none" stroke-width="1" stroke-linecap="round"/><g><g><g><path d="M 301.731 332.8531 L 309.5292 328.9029 L 295.8284 364.4536 L 289.6382 356.1874 L 296.2334 329.6771 Z " fill="#363a37" stroke="none" stroke-width="1.16316" stroke-linecap="round"/><path d="M 306.5271 313.1229 L 301.024 327.7999 L 283.289 315.5703 L 292.4145 290.1146 Z " fill="#000000" stroke="none" stroke-width="0.87338" stroke-linecap="round"/><path d="M 302.2819 343.1667 L 291.1384 372.8878 L 286.9213 371.3067 L 298.0645 341.5855 Z " fill="url(#color-33-,0,0,1,46.28964,35.00352)" stroke="url(#color-34-,0,0,1,46.28964,35.00352)" stroke-width="0.20059" stroke-linecap="round"/><path d="M 319.6986 328.2186 C 319.3509 329.1456 318.8306 329.9104 318.2701 330.3949 C 317.7096 330.8795 317.1088 331.0837 316.6029 330.8942 C 316.0968 330.7043 315.7785 330.1553 315.6747 329.4219 C 315.5707 328.6881 315.6817 327.7698 316.0294 326.8428 C 316.3768 325.9157 316.8971 325.1509 317.4576 324.6663 C 318.018 324.1818 318.619 323.9772 319.1251 324.1672 C 319.631 324.3567 319.9492 324.9057 320.0532 325.6395 C 320.1569 326.3731 320.046 327.2915 319.6986 328.2186 Z " fill="#ff0000" stroke="none" stroke-width="0.78683" stroke-linecap="butt"/><path d="M 316.6841 291.7071 L 321.2714 302.9134 L 317.4193 314.3031 L 323.4733 309.3188 L 318.6123 321.1675 L 312.6959 326.901 L 308.7064 337.542 L 299.8702 346.2262 L 290.3608 341.8238 L 302.7723 300.1624 Z " fill="#000000" stroke="none" stroke-width="0.87338" stroke-linecap="round"/><path d="M 328.0723 307.1404 L 319.8941 329.3242 L 319.42 325.3798 L 317.6161 324.9825 L 315.0326 327.7803 L 323.4244 305.3978 Z " fill="#000000" stroke="none" stroke-width="0.87338" stroke-linecap="round"/></g><path d="M 281.2155 387.7271 L 281.2155 387.7271 L 281.2619 387.5379 L 281.2619 387.5379 Z " fill="#cccccc" stroke="none" stroke-width="0.65058" stroke-linecap="butt"/></g><path d="M 298.0055 377.2126 L 281.0464 370.3995 L 280.2515 351.1951 L 286.0733 317.4904 L 313.6551 330.7196 Z " fill="#353935" stroke="none" stroke-width="1" stroke-linecap="round"/></g><g stroke-linecap="butt"><path d="M 280.3888 336.7231 L 267.6316 332.4291 L 275.2656 309.7495 L 288.0228 314.0436 Z " fill="#cccc00" stroke="#000000" stroke-width="1"/><path d="M 278.8652 313.748 C 279.0778 314.1762 279.1264 314.688 278.9623 315.1757 C 278.7981 315.6633 278.4499 316.0415 278.0217 316.2541 C 277.5935 316.4666 277.0816 316.5152 276.594 316.3511 C 276.1064 316.187 275.7281 315.8387 275.5156 315.4105 C 275.3031 314.9824 275.2545 314.4705 275.4186 313.9829 C 275.5827 313.4953 275.931 313.117 276.3591 312.9044 C 276.7873 312.6919 277.2992 312.6433 277.7868 312.8074 C 278.2744 312.9716 278.6527 313.3198 278.8652 313.748 Z " fill="#ff0000" stroke="none" stroke-width="1"/></g><g><path d="M 258.452 342.5811 L 243.2463 337.0427 L 257.0536 299.1323 L 272.2594 304.6704 Z " fill="url(#color-35-,0,0,1,46.28964,35.00352)" stroke-width="0.29645" stroke-linecap="butt" stroke="none"/><path d="M 259.2899 343.6736 L 248.0915 343.3271 L 241.5927 337.8502 L 242.5844 334.4794 L 260.2898 340.9279 Z " fill="#666666" stroke-width="0.25105" stroke-linecap="round" stroke="none"/><path d="M 257.1841 340.2316 L 255.726 339.7007 L 268.6232 304.2898 L 270.0812 304.8209 Z " fill="#666666" stroke-width="0.29645" stroke-linecap="butt" stroke="none"/><path d="M 254.0597 339.0938 L 252.81 338.6387 L 265.8587 302.811 L 267.1084 303.2664 Z " fill="#666666" stroke-width="0.29645" stroke-linecap="butt" stroke="none"/><path d="M 273.6757 299.4425 C 274.8691 300.3094 275.4358 302.1786 274.9076 303.4302 C 274.4656 304.4789 273.2933 304.7032 271.4469 304.6716 C 269.6004 304.64 267.2083 304.1649 264.7083 303.2543 C 262.2086 302.3441 260.0713 301.1692 258.637 300.006 C 257.2026 298.843 256.4711 297.6923 256.7853 296.83 C 257.0993 295.9674 258.3997 295.5568 260.2458 295.5883 C 262.0921 295.6202 264.7539 296.381 266.9843 297.0056 C 269.2834 297.6494 271.8845 297.889 273.6756 299.4425 Z " fill="#b2b2b2" stroke-width="0.31402" stroke-linecap="round" stroke="none"/><path d="M 245.9359 336.1352 L 244.6863 335.6798 L 257.5831 300.2687 L 258.8331 300.7242 Z " fill="#666666" stroke-width="0.29645" stroke-linecap="butt" stroke="none"/><path d="M 250.0638 300.8333 L 250.0638 300.8333 L 250.1396 300.6249 L 250.1396 300.6249 Z " fill="#666666" stroke-width="0.29645" stroke-linecap="butt" stroke="none"/><path d="M 272.902 306.792 L 255.1965 300.3434 L 256.4104 297.0107 L 273.2263 302.663 L 274.0055 297.2847 L 277.1839 304.1047 Z " fill="#666666" stroke-width="0.29645" stroke-linecap="round" stroke="none"/><path d="M 256.3461 325.7525 L 250.5136 323.6283 L 254.3068 313.2135 L 260.1392 315.3376 Z " fill="#000000" stroke-width="0.29645" stroke-linecap="butt" stroke="none"/><path d="M 256.5325 317.4426 C 256.7316 318.0698 256.7184 318.8314 256.4463 319.5787 C 256.1741 320.3263 255.6944 320.9179 255.1384 321.2701 C 254.5832 321.6239 253.9519 321.7374 253.3769 321.5281 C 252.8019 321.3188 252.3919 320.8257 252.1939 320.1979 C 251.9948 319.5703 252.0081 318.8088 252.2802 318.0615 C 252.5525 317.3143 253.0322 316.7227 253.588 316.3701 C 254.1433 316.0164 254.7745 315.9028 255.3494 316.1124 C 255.9244 316.3217 256.3348 316.8146 256.5324 317.4426 Z " fill="#ff0000" stroke-width="0.29645" stroke-linecap="butt" stroke="none"/><path d="M 229.1717 309.9752 C 229.2282 309.9958 229.2634 310.0086 229.2634 310.0086 C 229.2634 310.0086 229.2282 309.9958 229.1717 309.9752 C 229.1149 309.9545 229.0368 309.926 228.951 309.8949 C 228.865 309.8635 228.7868 309.835 228.73 309.8145 C 228.6734 309.7939 228.6383 309.7812 228.6383 309.7812 C 228.6383 309.7812 228.6734 309.7939 228.73 309.8145 C 228.7868 309.835 228.865 309.8635 228.951 309.8949 C 229.0368 309.926 229.1149 309.9545 229.1717 309.9752 Z " fill="#ff0000" stroke-width="0.29645" stroke-linecap="butt" stroke="none"/></g><g stroke-linecap="butt"><path d="M 267.4108 324.7798 L 256.3545 321.0583 L 259.4558 311.8447 L 270.512 315.5663 Z " fill="url(#color-36-,0,0,1,46.28964,35.00352)" stroke-width="0.81818" stroke="none"/><path d="M 249.9331 308.6394 L 259.8554 311.9793 L 256.7541 321.1928 L 246.8318 317.8529 Z " fill="url(#color-37-,0,0,1,46.28964,35.00352)" stroke-width="0.79778" stroke="none"/></g><g stroke-linecap="butt"><g><path d="M 249.2361 301.7527 C 250.6421 304.5855 250.9687 307.9535 249.8816 311.1834 C 248.7944 314.4132 246.4976 316.8982 243.6649 318.3039 C 240.8321 319.7099 237.4641 320.0366 234.2342 318.9494 C 231.0044 317.8623 228.5194 315.5655 227.1137 312.7328 C 225.7076 309.9003 225.3809 306.5323 226.4681 303.3024 C 227.5553 300.0726 229.8521 297.5876 232.6849 296.1816 C 235.5173 294.7758 238.8854 294.4491 242.1152 295.5363 C 245.345 296.6234 247.83 298.9202 249.2361 301.7527 Z " fill="#000000" stroke-width="0.10389" stroke="none"/><path d="M 227.2188 303.4556 C 229.1966 297.5796 235.7509 294.4828 241.8585 296.5387 C 247.9661 298.5945 250.8782 304.9332 248.9004 310.8089 C 246.9225 316.6852 240.8032 319.8728 234.6959 317.817 C 228.5886 315.7613 225.241 309.3316 227.2188 303.4556 Z " fill="url(#color-38-,0,0,1,46.28964,35.00352)" stroke-width="0.10389" stroke="none"/><path d="M 242.8482 301.7563 C 243.2351 302.0819 244.5471 305.692 244.5056 306.4058 C 244.4645 307.1198 241.185 308.9404 240.5835 308.9815 C 239.9823 309.0225 236.7033 306.4537 236.5331 305.9505 C 236.3631 305.4476 237.3512 301.3925 237.9119 301.0599 C 238.4732 300.7277 242.4617 301.4308 242.8482 301.7563 Z " fill="#000000" stroke-width="0.10389" stroke="none"/><path d="M 231.2061 311.1923 C 230.2076 311.869 228.7447 313.1743 227.7782 312.3662 C 226.3797 311.1894 225.7021 308.8079 226.2951 307.08 C 226.7561 305.7357 228.8646 305.6498 230.2742 305.6325 C 232.1768 305.6098 237.3403 305.6032 235.7632 307.0048 Z " fill="url(#color-39-,0,0,1,46.28964,35.00352)" stroke-width="0.10389" stroke="none"/><path d="M 239.5583 319.2637 L 234.8305 318.9859 C 234.0779 318.376 234.7685 316.6844 235.3935 315.7494 C 236.479 313.9311 237.9272 311.0753 239.7654 311.0404 C 241.1546 311.0166 241.7202 314.0074 241.6141 315.6299 C 241.6434 317.0635 239.5583 319.2637 239.5583 319.2637 Z " fill="url(#color-40-,0,0,1,46.28964,35.00352)" stroke-width="0.10389" stroke="none"/><path d="M 228.6844 299.4943 L 233.8211 296.1805 C 234.74 295.9362 235.7976 296.7041 236.2776 297.4893 C 236.9705 298.4443 237.9735 300.2353 236.9995 300.8963 C 235.307 302.0483 232.9477 301.5937 230.8589 301.2302 C 229.9466 301.0721 228.6844 299.4943 228.6844 299.4943 Z " fill="url(#color-41-,0,0,1,46.28964,35.00352)" stroke-width="0.10389" stroke="none"/><path d="M 249.7591 305.9945 C 249.9519 308.4625 249.1259 311.1162 247.8756 313.295 C 247.5338 313.8885 246.6921 312.5182 246.3416 311.959 C 245.5669 310.5541 244.3072 309.1047 244.5713 307.5268 C 244.7463 306.4725 246.5083 305.9168 247.3374 305.884 Z " fill="url(#color-42-,0,0,1,46.28964,35.00352)" stroke-width="0.10389" stroke="none"/><path d="M 241.7129 296.1894 L 244.9279 297.4115 L 247.1779 299.8504 C 247.1779 299.8504 246.81 300.7924 246.3946 300.9022 C 245.2881 301.1967 243.7423 301.8435 242.7376 301.1884 C 241.666 300.4711 241.4779 298.8155 241.1709 297.5135 C 241.1012 297.039 241.7129 296.1895 241.7129 296.1895 Z " fill="url(#color-43-,0,0,1,46.28964,35.00352)" stroke-width="0.10389" stroke="none"/></g><path d="M 242.2911 303.7581 C 242.4923 304.1639 242.5392 304.6461 242.3834 305.1091 C 242.2276 305.5717 241.8986 305.9275 241.4931 306.129 C 241.0874 306.3302 240.6051 306.3771 240.1424 306.2213 C 239.6795 306.0655 239.3237 305.7365 239.1222 305.331 C 238.9211 304.9253 238.8745 304.4431 239.0302 303.9804 C 239.186 303.5175 239.5147 303.1617 239.9203 302.9601 C 240.326 302.759 240.8082 302.7124 241.2711 302.8682 C 241.7338 303.0239 242.0896 303.3526 242.2911 303.7582 Z " fill="url(#color-44-,0,0,1,46.28964,35.00352)" stroke-width="0.2957" stroke="none"/></g></g></g><g data-paper-data="{&quot;origRot&quot;:0}"><g data-paper-data="{&quot;origPos&quot;:null}"><path d="M 335.1584 237.5058 C 335.1584 237.5058 294.2023 204.1073 294.8991 191.7848 C 295.6404 174.6492 312.4471 153.1158 312.4471 153.1158 C 312.4471 153.1158 325.582 132.6243 326.362 133.1363 C 327.1168 133.6318 349.4451 153.3975 349.4451 153.3975 C 349.4451 153.3975 364.2166 166.3345 369.8616 182.964 C 374.369 196.2422 368.6064 217.1887 365.2226 227.3024 C 361.8388 237.4162 354.6163 251.7717 354.6163 251.7717 Z " data-paper-data="{&quot;origPos&quot;:null}" fill="#ffffff" stroke="#000000" stroke-width="2" stroke-linecap="round"/><g stroke-linecap="butt"><path d="M 317.5124 148.4488 L 334.9121 189.7984 L 327.4722 188.6208 L 309.4325 160.9499 Z " data-paper-data="{&quot;origPos&quot;:null}" stroke-width="1.05383" fill="#ff0000" stroke="none"/><path d="M 308.2059 163.0226 L 326.0666 177.929 L 324.2353 180.1252 L 306.8046 165.5581 Z " data-paper-data="{&quot;origPos&quot;:null}" stroke-width="0.50239" fill="#ff0000" stroke="none"/></g><path d="M 364.645 225.6452 L 360.6923 232.7352 C 360.6923 232.7352 334.6072 234.1184 326.5573 222.8208 C 318.5075 211.5232 311.7369 190.3054 320.7832 176.7242 C 327.7584 166.2523 334.7137 187.1008 334.7137 187.1008 C 334.7137 187.1008 343.6178 204.913 354.1575 210.1452 C 364.6973 215.3774 369.7963 204.5167 369.7963 204.5167 Z " fill="#000000" stroke="#000000" stroke-width="2" stroke-linecap="round"/><path d="M 332.327 173.2208 C 337.1246 174.0429 345.0208 179.3458 345.3512 180.1622 C 345.6604 180.9334 337.8239 178.1534 333.8865 177.4607 C 330.9067 177.1707 325.12 178.3339 324.6756 177.2265 C 324.2662 176.1993 329.4459 172.9582 332.3271 173.2209 Z " fill="#ffffff" stroke="none" stroke-width="1" stroke-linecap="round"/></g><path d="M 314.4087 185.8239 L 303.4836 178.0812 L 307.2173 170.7428 Z " data-paper-data="{&quot;origPos&quot;:null}" fill="#000000" stroke="none" stroke-width="1" stroke-linecap="round"/></g><path d="M 230.3517 130.9799 C 237.1755 134.9573 227.0785 149.3422 219.5895 154.1272 C 210.4957 159.8763 198.3415 156.0009 187.4281 157.7066 C 175.7242 159.5183 163.5869 166.7121 152.2753 163.1794 C 144.9096 160.8668 136.1946 149.7464 140.888 144.2784 C 149.1332 133.715 165.2694 132.6738 178.2917 130.9378 C 195.4761 128.6006 216.7245 122.7201 230.3517 130.9799 Z " data-paper-data="{&quot;origRot&quot;:0}" fill="#000000" stroke="#000000" stroke-width="1.5" stroke-linecap="round"/><path d="M 288.7251 186.3861 C 289.9753 191.4472 282.3107 198.2093 276.9327 196.6654 C 265.4409 193.3009 258.482 181.1258 248.9793 174.1238 C 238.3441 165.6654 222.8193 162.0424 216.5128 150.19 C 212.9381 143.4499 217.2714 129.3263 224.424 129.7711 C 240.0208 130.2619 253.5858 141.8426 265.0236 152.1874 C 275.3356 161.4555 285.488 172.9201 288.7251 186.386 Z " data-paper-data="{&quot;origRot&quot;:0}" fill="#000000" stroke="#000000" stroke-width="1.5" stroke-linecap="round"/><g data-paper-data="{&quot;index&quot;:null,&quot;origRot&quot;:0}"><path d="M158.05834,180.95791c0,0 1.5781,11.06952 -0.57428,19.26045c-2.19213,8.34226 -10.55811,23.1038 -10.55811,23.1038c0,0 3.5305,1.96283 7.959,-2.2138c4.69003,-4.42345 15.40607,-19.82296 15.40607,-19.82296c0,0 2.48948,16.60822 -1.46229,26.23427c-2.16313,5.26909 -14.20631,11.93261 -14.20631,11.93261c0,0 7.59339,8.41573 13.12637,6.81472c11.95509,-3.45928 21.79004,-23.89677 21.79004,-23.89677c0,0 3.52138,22.21425 -4.14527,29.60035c-7.37823,7.10825 -26.78485,12.31324 -26.78485,12.31324c0,0 9.37366,5.57913 18.42879,4.2726c13.4246,-1.93694 29.12364,-15.02033 29.12364,-15.02033c0,0 -10.44334,23.95201 -22.11777,32.97519c-11.11375,8.5899 -24.24754,7.1193 -34.84509,-2.09997c-24.08438,-20.95206 -53.08696,-112.35678 -53.08696,-112.35678c0,0 20.55846,27.27022 34.73141,29.30721c10.00266,1.43765 27.21562,-20.40386 27.21562,-20.40386z" data-paper-data="{&quot;origPos&quot;:null}" fill="#000000" stroke="none" stroke-width="NaN" stroke-linecap="butt" transform="matrix(1,0,0,1,46.28964,35.00352)"/><path d="M-45.21545,3.45481c0,0 23.2935,-32.28196 40.84743,-36.46914c8.55937,-2.04167 28.66866,16.35186 28.66866,16.35186l41.48519,103.15952c0,0 -12.59939,-23.89107 -40.97384,-28.44424c-9.59576,-1.53975 -25.31303,26.46861 -25.31303,26.46861c0,0 -5.69872,-28.43286 -3.58182,-43.02026c1.87492,-12.92052 13.81019,-27.46543 13.81019,-27.46543c0,0 -13.63726,1.21705 -20.20734,6.43528c-10.06657,7.99517 -22.42221,27.42232 -22.42221,27.42232c0,0 -0.35087,-24.28248 5.63222,-35.93568c5.30381,-10.33025 23.28902,-20.39417 23.28902,-20.39417c0,0 -9.49295,-3.07073 -16.90429,-0.93344c-8.68097,2.50347 -24.33013,12.82488 -24.33013,12.82488z" data-paper-data="{&quot;origPos&quot;:null}" fill="#000000" stroke="none" stroke-width="0" stroke-linecap="butt" transform="matrix(1,0,0,1,46.28964,35.00352)"/><path d="M 222.697 319.0967 C 191.8568 328.4815 179.4702 297.0525 179.4702 297.0525 L 80.317 39.2413 C 80.317 39.2413 63.3788 9.4394 53.1796 12.2573 " data-paper-data="{&quot;origPos&quot;:null}" fill="none" stroke="#000000" stroke-width="3" stroke-linecap="round"/><path d="M103.23582,142.08616c0,0 12.42539,44.96669 25.42306,54.71873c9.2407,6.93317 24.68563,-21.69736 30.80057,-11.89597c6.20498,9.94569 -9.74839,32.75004 -9.74839,32.75004c0,0 14.42877,-24.98747 22.61345,-12.32941c8.32556,12.87596 -7.1831,34.58189 -7.1831,34.58189c0,0 15.47143,-31.70954 24.50894,-21.08289c5.81886,6.84205 4.55018,13.53887 2.52465,22.28931c-3.92111,16.93923 -27.00861,22.50024 -27.00861,22.50024l46.8752,-9.15401c0,0 -15.3726,27.51096 -28.39926,35.16343c-15.4836,9.09587 -33.36044,6.62126 -45.19139,-6.88816c-37.76032,-43.11725 -60.47313,-132.33494 -60.47313,-132.33494z" data-paper-data="{&quot;origRot&quot;:0,&quot;origPos&quot;:null}" fill="url(#color-45)" stroke="none" stroke-width="0" stroke-linecap="butt" transform="matrix(1,0,0,1,46.28964,35.00352)"/><path d="M60.10185,104.76993c0,0 -6.53485,-33.58575 -23.67177,-41.67894c-17.13726,-8.09331 -23.63883,15.83753 -35.96882,23.11715c-14.79488,8.73488 -1.57576,-65.86411 -1.57576,-65.86411c0,0 -22.59509,30.85702 -31.92955,26.65299c-10.5532,-4.75299 -6.79323,-20.8981 -1.95146,-31.41086c4.55268,-9.88523 19.34055,-20.69553 19.34055,-20.69553l-30.63468,5.10746c0,0 19.74846,-26.66131 38.34743,-31.61797c10.98393,-2.92727 21.87531,-13.42624 46.08912,27.45737c24.21376,40.8836 42.88899,102.03834 42.88899,102.03834z" data-paper-data="{&quot;origRot&quot;:0,&quot;origPos&quot;:null,&quot;index&quot;:null}" fill="url(#color-46)" stroke="none" stroke-width="0" stroke-linecap="butt" transform="matrix(1,0,0,1,46.28964,35.00352)"/><path d="M66.72466,91.45773c11.67808,-4.8376 14.71849,-17.71372 16.51855,-13.36835c1.5741,3.79989 -4.00374,11.07527 -1.98383,14.65815c1.90083,3.37171 11.65087,0.07608 10.27652,3.69449c-2.5026,6.58894 -13.47139,5.73918 -19.98304,8.43656c-11.67812,4.83763 -18.60431,10.88278 -20.4044,6.53745c-1.81751,-4.38755 7.65155,-7.44142 7.1262,-12.16139c-0.51852,-4.6586 -11.61248,-7.78301 -8.80295,-11.535c3.6662,-4.89604 11.60197,6.0789 17.2529,3.73804z" data-paper-data="{&quot;origPos&quot;:null,&quot;origRot&quot;:0,&quot;index&quot;:null}" fill="url(#color-47)" stroke="none" stroke-width="0" stroke-linecap="butt" transform="matrix(1,0,0,1,46.28964,35.00352)"/><path d="M93.56638,153.00259c-11.67808,4.8376 -14.71849,17.71373 -16.51854,13.36836c-1.5741,-3.79988 4.00375,-11.07527 1.9838,-14.65813c-1.90083,-3.3717 -11.65087,-0.07608 -10.27652,-3.69449c2.5026,-6.58893 13.47137,-5.7392 19.98302,-8.43659c11.67812,-4.83763 18.60434,-10.88279 20.40442,-6.53743c1.81751,4.38755 -7.65155,7.44141 -7.1262,12.16138c0.51852,4.6586 11.61248,7.78303 8.80294,11.53499c-3.66621,4.89604 -11.60196,-6.07888 -17.25291,-3.73801z" data-paper-data="{&quot;origPos&quot;:null,&quot;origRot&quot;:0}" fill="url(#color-48)" stroke="none" stroke-width="0" stroke-linecap="butt" transform="matrix(1,0,0,1,46.28964,35.00352)"/><g data-paper-data="{&quot;origPos&quot;:null}" stroke-linecap="butt"><path d="M79.97293,123.13092c4.70857,12.89494 5.18945,24.56653 1.07412,26.06926c-4.11543,1.50275 -11.26869,-7.73248 -15.97726,-20.62739c-4.70858,-12.89494 -5.18946,-24.56654 -1.0741,-26.06927c4.11543,-1.50275 11.26866,7.73242 15.9773,20.62741z" data-paper-data="{&quot;origRot&quot;:0,&quot;origPos&quot;:null}" fill="#401616" stroke-width="0" stroke="none" transform="matrix(1,0,0,1,46.28964,35.00352)"/><path d="M79.16233,96.24278c0,0 9.45407,12.01481 12.89298,20.71102c3.84193,9.71536 5.76331,26.46643 5.76331,26.46643l-18.70828,7.39814c0,0 -2.48247,-16.05494 -5.972,-24.87901c-3.7914,-9.58757 -12.6843,-22.29846 -12.6843,-22.29846z" data-paper-data="{&quot;origRot&quot;:0,&quot;origPos&quot;:null}" fill="#181818" stroke-width="0" stroke="none" transform="matrix(1,0,0,1,46.28964,35.00352)"/></g></g><g data-paper-data="{&quot;origRot&quot;:0}"><g stroke-linecap="round"><path d="M 133.5289 178.343 C 131.8039 180.962 127.2127 181.6778 123.969 182.8147 C 120.829 183.9001 117.2094 185.9219 114.3333 185.2503 C 111.8224 184.6633 109.959 181.8274 111.2397 179.6968 C 112.798 177.1072 117.1152 175.9285 120.3529 174.592 C 123.8848 173.3243 128.1457 171.0576 131.2531 172.0189 C 133.8946 172.8352 135.039 176.1679 133.529 178.343 Z " stroke-width="0.60163" fill="#363a36" stroke="none"/><path d="M 130.9163 170.7245 C 129.1913 173.3435 124.6001 174.0593 121.3563 175.1962 C 118.2164 176.2816 114.5968 178.3034 111.7207 177.6318 C 109.2097 177.0448 107.3464 174.2089 108.627 172.0783 C 110.1854 169.4887 114.5026 168.31 117.7403 166.9735 C 121.2722 165.7058 125.5331 163.4391 128.6405 164.4004 C 131.282 165.2167 132.4264 168.5494 130.9163 170.7245 Z " stroke-width="0.60163" fill="#363a36" stroke="none"/><path d="M 128.3503 162.1973 C 126.6253 164.8163 122.0341 165.5321 118.7904 166.669 C 115.6504 167.7544 112.0308 169.7762 109.1547 169.1046 C 106.6438 168.5176 104.7804 165.6817 106.0611 163.5511 C 107.6194 160.9615 111.9366 159.7828 115.1744 158.4464 C 118.7062 157.1786 122.9672 154.9119 126.0745 155.8732 C 128.7161 156.6895 129.8604 160.0222 128.3504 162.1973 Z " stroke-width="0.60163" fill="#363a36" stroke="none"/><path d="M 124.6333 154.0296 C 122.9083 156.6487 118.3171 157.3644 115.0734 158.5014 C 111.9334 159.5867 108.3139 161.6086 105.4377 160.937 C 102.9268 160.35 101.0634 157.514 102.3441 155.3834 C 103.9024 152.7939 108.2196 151.6151 111.4573 150.2787 C 114.9893 149.0109 119.2501 146.7442 122.3575 147.7056 C 124.9991 148.5219 126.1434 151.8546 124.6334 154.0296 Z " stroke-width="0.60163" fill="#363a36" stroke="none"/></g><g stroke-linecap="round"><path d="M 148.682 162.5659 C 141.6427 170.2494 142.0908 171.8244 141.6062 172.6844 C 139.673 176.1223 137.5052 179.7873 134.1816 181.9098 C 131.0373 183.912 124.5033 185.18 123.4765 184.6226 C 122.5474 183.871 127.4759 180.677 129.6018 178.8462 C 130.9869 177.6491 132.3797 176.4488 133.8016 175.2932 C 135.2794 174.092 136.778 172.9064 138.3067 171.7679 C 139.1317 171.1542 139.9931 169.7911 140.8642 170.0332 Z " fill="none" stroke="#353937" stroke-width="1.83172"/><path d="M 157.7904 159.83 C 155.3622 160.7583 152.8039 161.4227 150.5183 162.672 C 148.8702 163.5721 147.3585 164.7392 145.9136 165.9421 C 142.9178 168.4364 140.5078 171.6929 137.203 173.7583 C 133.2386 176.228 128.6642 179.2894 123.7016 179.4757 C 121.5641 179.4786 120.8268 176.1696 119.4444 174.2274 C 117.6701 171.7118 116.2565 168.9227 114.9556 166.128 C 113.2235 162.4107 109.9921 158.6733 110.4185 154.5182 C 110.7647 151.5507 114.4149 149.9858 116.9045 148.1599 C 118.3739 147.0797 120.2502 146.6582 122.0078 146.1654 C 123.8005 145.6649 125.6499 145.2186 127.5099 145.1918 C 129.3493 145.1641 131.1359 145.9425 132.9725 145.9984 C 134.8778 146.0568 136.833 146.0249 138.6739 145.535 C 143.9699 144.124 149.1073 142.1193 154.2828 140.3173 C 156.0071 139.717 157.7471 137.787 159.386 138.3231 C 165.5018 146.8219 167.6213 151.0642 166.6216 156.0846 C 165.8126 159.0803 160.7248 158.5625 157.7904 159.83 Z " fill="#ffffff" stroke="#ffffff" stroke-width="1.83172"/></g><path d="M 138.5249 170.5542 C 138.4946 170.7898 138.4673 171.0016 138.4471 171.1589 C 138.4275 171.3126 138.415 171.4082 138.415 171.4082 C 138.415 171.4082 138.4274 171.3126 138.4471 171.1589 C 138.4673 171.0016 138.4946 170.7898 138.5249 170.5542 C 138.5553 170.3187 138.5826 170.1069 138.6027 169.9496 C 138.6224 169.7959 138.6349 169.7003 138.6349 169.7003 C 138.6349 169.7003 138.6225 169.7959 138.6027 169.9496 C 138.5826 170.1069 138.5553 170.3187 138.5249 170.5542 Z " fill="#eac18d" stroke="none" stroke-width="1.15123" stroke-linecap="butt"/><path d="M 132.8848 151.667 C 136.8536 154.3962 140.4023 158.9626 140.9616 163.754 C 141.2041 166.3867 137.2291 167.735 134.9427 169.1547 C 132.1673 170.8737 129.0422 172.9769 125.6131 173.1056 C 124.1361 173.1077 123.6267 170.8211 122.6712 169.4791 C 121.4453 167.7407 120.4687 165.8136 119.5696 163.8825 C 118.3728 161.3137 115.8062 158.6524 116.4345 155.8602 C 116.9992 153.5033 120.5524 152.4175 123.3921 151.8201 C 126.357 150.9092 130.1164 149.7897 132.8848 151.667 Z " fill="#000000" stroke="#000000" stroke-width="1.26571" stroke-linecap="round"/></g><path d="M 213.5816 126.4532 C 220.0884 126.6517 229.4365 129.4731 232.2677 135.9625 C 233.9808 141.2746 228.2154 148.4823 222.9329 150.7416 C 212.6425 155.1342 200.3411 150.5312 189.408 153.2178 C 178.0648 155.3781 168.3957 164.4888 156.77 165.1383 C 151.1635 165.4403 146.2193 159.55 143.6213 154.5673 C 141.5885 150.6595 140.6381 143.6113 143.9735 140.1864 C 148.4436 135.5977 155.9289 134.5903 162.3414 133.4781 C 179.1635 130.5528 196.3687 125.9407 213.5816 126.4532 Z " data-paper-data="{&quot;origRot&quot;:0}" fill="#ffffff" stroke="none" stroke-width="1.00573" stroke-linecap="round"/><path d="M 288.3988 184.202 C 289.9088 189.2536 285.1999 199.4869 280.3218 197.8277 C 269.3196 194.0774 264.8688 180.2631 255.3863 173.2542 C 244.3393 164.4345 227.5526 162.0737 219.0913 150.6161 C 214.985 145.0531 216.0782 129.3445 222.7636 129.9474 C 240.2317 131.8798 255.1136 144.87 268.2219 155.7723 C 277.1466 163.1968 285.1088 173.1997 288.3989 184.202 Z " data-paper-data="{&quot;origRot&quot;:0}" fill="#ffffff" stroke="none" stroke-width="1.00573" stroke-linecap="round"/><path d="M210.10037,174.57749c0,0 0.60034,-15.39212 -0.0068,-22.55088c-0.74281,-8.75835 4.51783,-19.28232 4.51783,-19.28232c0,0 11.56783,-1.08854 18.47921,1.29066c4.66778,1.60688 11.19102,8.92316 11.19102,8.92316l0.18767,29.60426z" data-paper-data="{&quot;origRot&quot;:0}" fill="#ffffff" stroke="none" stroke-width="0" stroke-linecap="butt" transform="matrix(1,0,0,1,46.28964,35.00352)"/><g><path d="M 119.1478 424.4135 C 118.9802 422.0346 128.0821 417.7571 131.9606 416.4034 C 140.4198 413.4484 149.4013 410.2993 158.1671 408.7027 C 166.8613 407.12 177.5985 403.3766 184.2898 406.5699 C 187.0353 407.8789 171.8696 411.5484 172.5001 416.6024 C 173.9188 427.932 185.8049 435.2852 189.2659 446.5141 C 190.1313 449.3203 174.8787 451.9396 173.4218 455.4473 C 171.7784 459.4559 176.959 464.1791 175.6037 468.3021 C 174.1942 472.5912 169.6852 475.0469 166.1432 477.6887 C 164.3463 478.9946 159.6717 479.4488 159.6717 479.4488 C 159.6717 479.4488 141.1353 456.9647 132.839 444.6966 C 128.3131 438.0062 119.331 427.0133 119.1478 424.4135 Z " data-paper-data="{&quot;origPos&quot;:null}" fill="url(#color-49-,0,0,1,46.28964,35.00352)" stroke-width="1.16035" stroke-linecap="round" stroke="none"/><path d="M 119.5083 424.8999 C 119.2575 421.3392 126.4945 419.4038 126.4945 419.4038 C 126.4945 419.4038 131.6806 430.4501 139.0329 441.26 C 147.121 453.1519 166.0584 477.5743 166.0584 477.5743 C 166.0584 477.5743 160.3469 479.7058 158.548 477.9325 C 156.7492 476.1593 141.4957 457.4511 133.1995 445.1831 C 128.6735 438.4927 119.6914 427.4997 119.5083 424.9 Z " data-paper-data="{&quot;origPos&quot;:null}" fill="url(#color-50-,0,0,1,46.28964,35.00352)" stroke-width="1.16035" stroke-linecap="round" stroke="none"/><g data-paper-data="{&quot;origPos&quot;:null}" stroke-linecap="butt"><g data-paper-data="{&quot;origPos&quot;:null}"><path d="M86.36131,397.11172c0,0 11.42617,-2.7421 18.03967,-5.88407c8.04182,-3.82055 21.48597,-8.60241 21.48597,-8.60241c0,0 0.37398,0.42138 0.52932,1.03705c0.21966,0.87073 0.09235,2.31392 0.09235,2.31392l-37.64965,15.22373z" data-paper-data="{&quot;origPos&quot;:null}" fill="url(#color-51)" stroke-width="0" stroke="none" transform="matrix(1,0,0,1,46.28964,35.00352)"/><path d="M 153.8496 426.5683 C 153.9424 426.8765 153.7016 427.0054 153.6181 427.0401 C 153.4801 427.2319 153.3459 427.414 153.1739 427.579 C 151.5215 429.1644 151.0212 429.644 148.8216 429.1566 C 147.4313 428.8294 148.5754 430.1361 147.1615 430.7768 C 146.8704 430.9087 145.7129 430.3714 145.3463 430.3434 C 143.181 430.1467 144.0359 432.3123 141.5897 432.1256 C 140.0796 431.9884 138.4118 431.0689 138.2414 433.301 C 137.2735 434.5809 135.3956 433.0148 134.0385 432.9112 C 134.0385 432.9112 133.6528 432.8818 133.6823 432.4961 C 133.7117 432.1105 134.0974 432.1399 134.0974 432.1399 C 134.9972 432.2086 137.2491 432.9614 137.4745 433.1879 C 137.7045 430.5714 139.8811 431.2624 141.6486 431.3543 C 143.3364 431.4831 143.1955 429.4572 145.4052 429.5721 C 145.8552 429.6064 146.8433 429.6779 147.3075 429.8024 C 147.2529 429.2698 147.5303 428.1095 148.989 428.4013 C 150.2588 428.6827 151.6998 427.9212 152.6383 427.0208 C 152.795 426.8704 152.8934 426.7229 153.0202 426.5466 L 153.3678 426.3095 C 153.3678 426.3095 153.7381 426.198 153.8497 426.5683 Z " data-paper-data="{&quot;origPos&quot;:null,&quot;origRot&quot;:0}" fill="#000000" stroke-width="0.5" stroke="none"/><path d="M 152.4428 427.9104 C 152.3285 427.6096 152.5596 427.464 152.6405 427.4235 C 152.7646 427.2225 152.8858 427.0314 153.0457 426.8547 C 154.5825 425.1569 155.0478 424.6433 157.2762 424.9748 C 158.6861 425.2034 157.4528 423.9803 158.8182 423.2417 C 159.0992 423.0897 160.2917 423.5442 160.6593 423.5464 C 162.833 423.5902 161.8279 421.4901 164.2813 421.5042 C 165.7972 421.5348 167.5256 422.3347 167.5385 420.0961 C 168.414 418.7514 170.3974 420.1814 171.7585 420.1892 C 171.7585 420.1892 172.1452 420.1914 172.143 420.5782 C 172.1408 420.965 171.754 420.9628 171.754 420.9628 C 170.8516 420.9576 168.5523 420.3651 168.3115 420.1551 C 168.2662 422.7813 166.0464 422.2451 164.2768 422.2778 C 162.5841 422.2681 162.8673 424.279 160.6549 424.3199 C 160.2036 424.3173 159.2129 424.3155 158.7411 424.224 C 158.8331 424.7515 158.6379 425.9284 157.1623 425.74 C 155.8759 425.5486 154.492 426.4096 153.6192 427.3738 C 153.4734 427.5349 153.3857 427.6889 153.2717 427.8738 L 152.9417 428.1347 C 152.9417 428.1347 152.5801 428.272 152.4427 427.9104 Z " data-paper-data="{&quot;origPos&quot;:null,&quot;index&quot;:null}" fill="#000000" stroke-width="0.5" stroke="none"/></g><path d="M118.45774,380.77315l7.96785,1.54155l0.64843,2.82884l-7.65083,1.1192z" data-paper-data="{&quot;origPos&quot;:null}" fill="#333333" stroke-width="0" stroke="none" transform="matrix(1,0,0,1,46.28964,35.00352)"/></g><g data-paper-data="{&quot;origPos&quot;:null}" stroke-linecap="butt"><path d="M 173.7667 454.9253 C 173.7087 454.9708 173.652 455.0046 173.597 455.0286 C 173.562 455.1362 173.4879 455.2567 173.352 455.3867 C 172.8152 455.9005 172.3881 455.5346 172.3881 455.5346 C 170.673 454.0653 170.4437 451.1066 168.6038 449.8222 C 168.5135 449.7449 168.4232 449.6675 168.3329 449.5902 L 168.0206 449.1022 C 167.9385 449.0178 167.8758 448.8891 167.9221 448.7005 C 167.9383 448.5811 167.9966 448.4428 168.1392 448.3025 C 168.2685 448.1528 168.4127 448.0752 168.5441 448.0373 C 168.7507 447.9586 168.9104 447.988 169.0225 448.0424 C 170.4503 448.4592 171.9025 448.7229 173.3636 449.0465 C 173.493 448.4336 173.6557 447.8336 173.8658 447.2638 L 173.5902 446.7985 C 173.4333 446.5337 173.5857 446.1356 173.9305 445.9093 C 174.1507 445.7649 174.3961 445.7253 174.5856 445.7846 L 175.223 445.9724 L 175.185 446.0362 C 175.6561 446.1988 176.5505 446.2598 177.5212 446.3267 C 177.5174 445.7809 177.5385 445.2236 177.4546 444.7165 L 177.4525 444.7174 L 177.2976 444.0129 C 177.2342 443.758 177.3885 443.4354 177.6856 443.2404 C 177.9058 443.096 178.1512 443.0564 178.3407 443.1157 L 178.9781 443.3035 L 178.8381 443.5383 C 179.3922 443.4977 179.9671 443.5654 180.5395 443.7054 C 180.6427 442.8778 180.7999 442.1157 181.0127 441.5596 C 183.0124 440.2505 185.483 443.8481 185.4062 446.2829 L 185.5464 446.4029 L 185.9129 446.2502 L 186.0678 446.9546 C 186.1312 447.2095 185.977 447.5321 185.6798 447.7271 C 185.3827 447.9221 185.0396 447.9258 184.85 447.7537 C 184.7311 447.6519 184.5087 447.4613 184.3172 447.2973 C 184.2089 447.2045 184.1105 447.1202 184.0463 447.0652 C 183.703 446.5682 182.7644 446.2072 181.7508 445.8659 C 181.7564 446.6476 181.8143 447.3567 181.9216 447.8448 L 181.9978 448.191 C 182.0612 448.446 181.9069 448.7686 181.6098 448.9636 C 181.2649 449.1898 180.8582 449.1586 180.7013 448.8938 L 180.3517 448.3036 L 180.3812 448.2842 C 180.0081 448.2568 179.609 448.2081 179.1967 448.145 C 179.6434 451.2904 178.4374 451.8783 174.7712 450.7981 C 174.7224 450.7837 174.6735 450.7695 174.6246 450.7554 C 174.3926 452.0466 174.1241 453.3059 174.1168 453.922 L 174.0995 454.3431 C 174.0995 454.3431 174.3551 454.4641 173.7667 454.9253 Z M 173.1325 450.3725 C 172.2609 450.1703 171.3851 449.9956 170.518 449.8064 C 171.3581 451.0669 171.8537 452.6145 172.7855 453.7961 C 172.8801 452.7325 172.9642 451.5518 173.1324 450.3725 Z M 177.9463 449.8651 C 177.8045 449.2331 177.7421 448.4067 177.6787 447.8682 C 176.6719 447.6612 175.6798 447.421 174.8758 447.2408 C 175.0135 447.7121 174.9654 448.5093 174.8435 449.4023 C 175.0607 449.4599 175.2779 449.5203 175.4951 449.5843 C 176.0471 449.747 177.1284 449.7685 177.9464 449.8651 Z M 183.0701 444.73 C 182.5629 443.933 182.1863 443.0683 182.0646 442.46 C 181.9531 442.9598 181.872 443.536 181.8202 444.1303 C 182.2527 444.3084 182.673 444.514 183.0702 444.73 Z M 180.3975 446.673 C 180.3862 446.2728 180.3885 445.8468 180.4045 445.4135 C 179.7542 445.1827 179.1726 444.9378 178.8127 444.6443 C 178.8419 445.2404 178.8251 445.8546 178.891 446.4348 C 179.4423 446.4894 179.9659 446.5622 180.3975 446.6731 Z " data-paper-data="{&quot;origPos&quot;:null,&quot;origRot&quot;:0}" fill="#292929" stroke-width="0.5" stroke="none"/><path d="M 171.8059 457.9228 C 171.5874 457.7989 171.4839 457.6431 171.4428 457.4909 L 171.437 457.5327 C 169.6238 455.0858 167.773 452.8294 166.6034 450.0063 C 164.7576 445.5509 171.4027 445.7448 173.7816 443.9819 C 176.3381 442.3599 178.9981 441.2618 181.5394 439.3787 C 181.5394 439.3787 182.1402 438.9334 182.5854 439.5343 C 183.0307 440.1351 182.4298 440.5803 182.4298 440.5803 C 180.6712 441.8835 175.7155 443.805 174.672 445.1836 C 172.2072 447.0101 166.864 446.7278 167.9851 449.4338 C 169.1059 452.1393 170.8968 454.2918 172.6386 456.6423 L 172.8253 457.6413 C 172.8253 457.6413 172.4563 458.2918 171.8058 457.9228 Z " data-paper-data="{&quot;origPos&quot;:null}" fill="#1a1a1a" stroke-width="0.5" stroke="none"/></g></g><path d="M183.92847,95.06893c29.16634,87.77288 5.18581,174.75217 -53.56202,194.27368c-58.74783,19.52151 -130.01634,-35.80716 -159.18268,-123.58004c-29.16634,-87.77288 -5.18581,-174.75217 53.56202,-194.27368c58.74783,-19.52151 130.01634,35.80716 159.18268,123.58004z" fill="url(#color-52)" stroke="none" stroke-width="NaN" stroke-linecap="butt" transform="matrix(1,0,0,1,46.28964,35.00352)"/></g></g></svg>