<svg version="1.1" xmlns="http://www.w3.org/2000/svg" xmlns:xlink="http://www.w3.org/1999/xlink" width="177.75188" height="417.99844" viewBox="0,0,177.75188,417.99844"><g transform="translate(-163.81388,-16.7042)"><g data-paper-data="{&quot;isPaintingLayer&quot;:true}" fill-rule="nonzero" stroke-linejoin="miter" stroke-miterlimit="10" stroke-dasharray="" stroke-dashoffset="0" style="mix-blend-mode: normal"><g data-paper-data="{&quot;index&quot;:null}"><path d="M286.5103,428.87683c-1.00155,3.47254 -2.39575,3.17677 -2.39575,3.17677c0,0 -17.83909,2.67891 -34.33414,1.62416c-3.63916,-0.23269 -3.38136,-4.0704 -6.27337,-5.83933c-2.28262,-1.39619 -1.04911,-1.72694 -1.94855,-1.80466c-2.98967,-0.25833 -2.84479,-1.0764 -2.84479,-1.0764c0,0 0.5286,-16.44245 0.60157,-18.19363c0.13966,-3.35192 1.24234,-14.1171 1.24234,-14.1171l33.79241,-2.39474l3.19298,11.17544c0,0 0.57618,7.6378 5.69462,12.57314c3.08637,2.97597 4.30727,11.28923 3.27269,14.87635z" fill="#403328" stroke="#292018" stroke-width="4" stroke-linecap="butt"/><path d="M272.44357,425.20251l11.18175,1.42173l-1.6028,2.5695c0,0 -11.2964,1.41923 -17.01104,1.70028c-5.01416,0.2466 -13.32229,-0.36987 -13.32229,-0.36987c0,0 -2.66083,1.04866 -2.66083,-1.59649c0,-2.64515 23.41522,-3.72515 23.41522,-3.72515z" fill="#775f4a" stroke="none" stroke-width="0" stroke-linecap="butt"/><path d="M254.97496,416.88075c0,0 7.21396,-1.56445 12.77469,-1.79616c5.029,-0.20955 14.63174,1.264 14.63174,1.264" fill="none" stroke="#292018" stroke-width="4" stroke-linecap="round"/><path d="M277.543,402.51231c0,0 -5.88181,2.74419 -9.26706,3.09847c-4.10341,0.42943 -13.61598,-0.70372 -13.61598,-0.70372l-3.19298,-10.37721l17.02925,7.18421" fill="none" stroke="#292018" stroke-width="4" stroke-linecap="round"/><path d="M255.4582,403.31056l14.10235,-8.51462l1.33041,7.98246" fill="none" stroke="#292018" stroke-width="4" stroke-linecap="round"/></g><g data-paper-data="{&quot;index&quot;:null}"><path d="M229.6731,429.51961c-1.00155,3.47254 -2.39575,3.17677 -2.39575,3.17677c0,0 -17.83909,2.67891 -34.33414,1.62416c-3.63916,-0.23269 -3.38136,-4.0704 -6.27337,-5.83933c-2.28262,-1.39619 -1.04911,-1.72694 -1.94855,-1.80466c-2.98967,-0.25833 -2.84479,-1.0764 -2.84479,-1.0764c0,0 0.5286,-16.44245 0.60157,-18.19363c0.13966,-3.35192 1.24234,-14.1171 1.24234,-14.1171l33.79241,-2.39474l3.19298,11.17544c0,0 0.57618,7.6378 5.69462,12.57314c3.08637,2.97597 4.30727,11.28923 3.27269,14.87635z" fill="#403328" stroke="#292018" stroke-width="4" stroke-linecap="butt"/><path d="M215.60637,425.84529l11.18175,1.42173l-1.6028,2.5695c0,0 -11.2964,1.41923 -17.01104,1.70028c-5.01416,0.2466 -13.32229,-0.36987 -13.32229,-0.36987c0,0 -2.66083,1.04866 -2.66083,-1.59649c0,-2.64515 23.41522,-3.72515 23.41522,-3.72515z" fill="#775f4a" stroke="none" stroke-width="0" stroke-linecap="butt"/><path d="M198.13776,417.52353c0,0 7.21396,-1.56445 12.77469,-1.79616c5.029,-0.20955 14.63174,1.264 14.63174,1.264" fill="none" stroke="#292018" stroke-width="4" stroke-linecap="round"/><path d="M220.70579,403.15509c0,0 -5.88181,2.74419 -9.26706,3.09847c-4.10341,0.42943 -13.61598,-0.70372 -13.61598,-0.70372l-3.19298,-10.37721l17.02925,7.18421" fill="none" stroke="#292018" stroke-width="4" stroke-linecap="round"/><path d="M198.62099,403.95334l14.10235,-8.51462l1.33041,7.98246" fill="none" stroke="#292018" stroke-width="4" stroke-linecap="round"/></g><path d="M188.66185,87.81759c3.28815,-5.56227 8.60466,-23.42072 8.60466,-23.42072l79.26188,13.9063c0,0 -2.75137,19.54789 -2.23273,26.46085c0.33805,4.50579 1.79517,5.59827 1.79517,5.59827c0,0 -4.13176,5.05663 -7.32961,4.57605c-1.02406,-0.1539 -3.21389,-0.49657 -4.67231,-0.67003c-0.58177,-0.06919 -2.44396,8.84674 -2.44396,8.84674c0,0 -4.50735,3.04919 -7.91588,2.59067c-1.41394,-0.19021 -6.00419,-1.70041 -7.50692,-1.85852c-1.69347,-0.17818 -5.36144,0.77188 -8.11289,1.24715c-4.44676,0.76811 -10.08486,-0.58575 -10.08486,-0.58575c0,0 -4.45487,-2.41464 -7.59635,-4.59451c-2.59617,-1.80146 -3.70015,-3.37075 -5.93015,-3.9214c-1.4941,-0.36894 -13.39937,0.44076 -14.23423,0.27173c-2.03029,-0.41104 -9.6742,-5.85362 -9.6742,-5.85362c0,0 2.94867,-6.32803 1.71587,-6.6256c-1.64593,-0.39729 -3.05418,-4.18874 -3.98328,-4.46439c-2.87269,-0.85231 -4.33379,-6.46084 -4.33379,-6.46084c0,0 2.24896,-0.94093 4.67355,-5.04239z" data-paper-data="{&quot;index&quot;:null}" fill="#14161a" stroke="#14161a" stroke-width="4" stroke-linecap="butt"/><g stroke-linecap="butt"><g><path d="M300.05292,190.71348c-1.33508,-0.17206 -6.1951,-4.51094 -6.81392,-4.9847c-19.09953,-14.62244 -23.79667,-16.19299 -23.79667,-16.19299c0,0 -4.71359,-10.06612 -3.04914,-13.93258c1.18437,-2.75122 11.78846,-7.09615 11.78846,-7.09615c0,0 19.5626,16.18368 26.66157,23.27485c1.67395,1.67211 4.15506,2.07144 10.74476,7.07268c5.2438,3.97975 -8.02711,12.82656 -15.53507,11.85892z" fill="#d9bb9a" stroke="#917c67" stroke-width="4"/><path d="M319.01624,183.95817c1.8881,2.0016 -13.85326,8.5524 -14.40914,9.07676c-0.55587,0.52435 -2.16855,-1.78187 -4.05666,-3.78349c-1.8881,-2.0016 -4.37782,-3.73418 -3.82196,-4.25853c0.0926,-0.08735 16.07249,-5.32263 16.96232,-4.83426c2.35001,1.28981 3.75185,2.13133 5.32544,3.79951z" fill="#d9bb9a" stroke="none" stroke-width="0"/><path d="M271.08104,151.50693c1.52994,-1.94015 8.58587,2.84201 16.71848,9.40151c8.13262,6.55949 8.99771,8.41871 14.58464,13.21402c3.76373,3.23044 9.11131,6.89554 13.78344,9.90823c7.95165,5.12741 -9.146,8.26269 -9.51685,8.15709c-0.33692,-0.09592 -5.1021,-6.0305 -5.57373,-6.52349c-5.41828,-5.66372 -12.38101,-13.39957 -14.57257,-14.53096c-4.84088,-2.49912 -12.88321,-6.0143 -16.01173,-8.53765c-8.13262,-6.55949 -0.94163,-9.14861 0.5883,-11.08877z" fill="#ffdbb5" stroke="none" stroke-width="0"/></g><path d="M295.68388,198.76898c0,0 -14.72298,-19.70961 -20.67097,-24.58966c-5.91738,-4.85493 -21.50497,-18.55423 -21.50497,-18.55423l13.55976,-22.04982c0,0 12.96233,8.70774 19.78783,15.36867c6.98328,6.81491 32.02884,31.00602 32.02884,31.00602c0,0 5.05804,10.73508 1.60789,15.95746c-3.45015,5.22238 -24.80838,2.86156 -24.80838,2.86156z" fill="#403328" stroke="#292018" stroke-width="4"/></g><g data-paper-data="{&quot;index&quot;:null}" stroke-linecap="butt"><path d="M326.5048,151.74309c-1.718,7.19656 -6.6796,12.17854 -11.08204,11.12756c-4.40244,-1.05098 -6.57861,-7.73691 -4.86061,-14.93348c0.22337,-0.93566 2.29311,-3.52341 3.80376,-5.62012c1.02223,-1.41883 0.99296,-3.31781 1.94845,-4.38739c1.3871,-1.55271 1.51507,-0.77455 2.23587,-1.28813c1.83701,-1.30889 1.69858,0.54359 3.35547,-0.21442c1.67348,-0.76559 1.47484,-0.87247 2.92222,-0.52694c4.40244,1.05098 3.39491,8.64636 1.6769,15.84293z" fill="#917c67" stroke="none" stroke-width="NaN"/><g><path d="M332.15465,156.62051c0.28195,3.36161 -6.5086,11.91994 -9.52591,19.06236c-3.21928,7.62056 -4.00978,7.24222 -4.62732,9.52623c-1.55,3.6808 -22.1606,2.45717 -21.53076,-0.36469c1.98879,-4.76354 5.08542,-21.15663 8.3843,-31.1345c4.1342,-12.50446 6.75053,-5.20867 8.32998,-4.8113c1.53876,0.38713 -3.31953,12.16087 -0.87142,12.93075c2.61939,0.82373 4.47812,0.65169 7.33311,-2.98441c3.13907,-3.9979 6.25839,-22.52669 8.49166,-22.92051c4.24493,-0.74855 3.16446,10.53892 4.01636,20.69606z" fill="#d9bb9a" stroke="#917c67" stroke-width="4"/><path d="M315.08404,182.80578c-2.54828,4.94079 -14.67663,2.0123 -12.8732,0.1582c0.26884,-0.2764 -0.9256,-1.17106 2.16989,-10.92512c0.76264,-2.40317 0.69517,-4.31309 1.66709,-5.92591c1.91481,-3.17753 6.67379,1.88196 8.28256,1.81428c3.99137,-0.16791 6.23377,-3.58278 7.50444,-5.78562c2.70418,-4.68794 3.89756,-13.32357 5.173,-17.6166c1.56429,-5.26531 2.67737,6.62427 1.82522,13.25235c-0.31783,2.47208 -4.48297,5.98432 -6.81894,10.33659c-2.33596,4.35227 -2.59302,6.28297 -6.93004,14.69185z" fill="#ffdbb5" stroke="none" stroke-width="0"/></g><path d="M328.36002,169.0748l-7.19128,19.8162l-25.55328,-1.13639l4.28934,-22.61635c0,0 7.04624,3.66638 14.69358,3.54853c7.18763,-0.11079 13.76165,0.38801 13.76165,0.38801z" fill="#403328" stroke="#292018" stroke-width="4"/><path d="M319.8978,183.25504l-0.37066,9.27096l-23.86395,0.9314l3.09076,-9.1272z" fill="#403328" stroke="none" stroke-width="0"/></g><path d="M200.30921,190.60501c0,0 2.70207,-32.95208 0.45431,-37.25438c-0.39917,-0.76405 -4.25945,-7.0311 -10.26423,-8.69033c-4.5701,-1.26281 -11.99564,2.4359 -10.64731,-0.14751c3.11994,-5.97783 12.08448,-9.19225 17.22356,-10.43162c10.46004,-2.5226 23.3407,-10.04987 32.44946,-10.04987c9.9556,0 21.0822,4.46167 34.41753,9.23404c12.95799,4.63733 9.30067,13.46349 9.30067,13.46349c0,0 -11.70157,7.59435 -12.14112,8.32621c-2.12732,3.542 -2.94667,33.95348 -2.94667,33.95348l7.17737,37.25845c0,0 -12.96309,10.26101 -36.50054,9.68748c-21.93372,-0.53445 -36.29265,-8.25762 -36.29265,-8.25762z" data-paper-data="{&quot;index&quot;:null}" fill="#95d2a1" stroke="#67916f" stroke-width="4" stroke-linecap="butt"/><path d="M249.26551,166.29671c0,1.43813 -1.17474,8.83633 -0.68779,12.37378c1.67519,12.16943 6.67434,28.1724 4.64778,29.50494c-4.97767,3.27299 -21.65178,1.46977 -26.66987,1.518c-4.0701,0.03912 -18.60016,0.34756 -22.77946,-3.43832c-3.24289,-2.93763 2.09477,-14.9148 3.90599,-27.5867c0.523,-3.6591 -0.76879,-10.61981 -0.76879,-13.43332c0,-3.03332 -4.37042,-16.64263 -5.86055,-19.74072c-0.54554,-1.13421 -4.52245,1.00834 -6.31085,0.25138c-1.55106,-0.6565 -0.97003,-4.18822 -1.07038,-5.36611c-0.19647,-2.30635 4.13899,-5.46238 8.70721,-6.95809c4.56822,-1.49572 19.20257,-4.37018 25.89162,-4.37018c6.89043,0 20.77042,1.86564 26.62256,4.61672c1.10361,0.5188 8.28366,3.11672 7.43627,5.98293c-0.61205,2.07019 -0.47598,6.02482 -2.57896,6.71288c-2.31393,0.75708 -6.86197,-1.81934 -7.071,-0.83632c-1.00219,4.71316 -3.41381,17.74228 -3.41381,20.76914z" data-paper-data="{&quot;index&quot;:null}" fill="#a6eab4" stroke="none" stroke-width="0" stroke-linecap="butt"/><g data-paper-data="{&quot;index&quot;:null}" stroke-linecap="butt"><path d="M202.72024,129.09999l1.0404,-8.78361c0,0 13.67279,-1.56741 24.40023,-1.46224c10.72745,0.10517 27.94324,2.72087 27.94324,2.72087v5.58772z" fill="#292018" stroke="#292018" stroke-width="4"/><g><path d="M212.15773,117.52735l33.30091,0.24216l0.40645,13.46911c0,0 -5.00848,9.02158 -13.992,8.91683c-8.69851,-0.10144 -22.59942,-9.82688 -22.59942,-9.82688z" fill="#d9bb9a" stroke="#917c67" stroke-width="4"/><path d="M239.33438,127.39631c0,1.23441 -2.20831,3.08655 -4.93241,3.08655c-2.72409,0 -4.93242,-1.85215 -4.93242,-3.08655c0,-1.23441 2.20832,-1.38362 4.93242,-1.38362c2.72409,0 4.93241,0.14922 4.93241,1.38362z" fill="#ffdbb5" stroke="none" stroke-width="0"/></g></g><g data-paper-data="{&quot;index&quot;:null}" stroke-linecap="butt"><g fill="#465b9c"><path d="M190.65353,297.61748c1.05539,-7.5918 2.9177,-27.5213 2.9177,-27.5213l32.5371,1.27273c0,0 0.4632,27.52842 -0.60892,36.02357c-1.12814,8.93912 -3.43607,22.53719 -3.43607,22.53719c0,0 -11.70686,4.40191 -16.98345,4.41854c-5.04381,0.0159 -14.63723,-3.7053 -14.63723,-3.7053c0,0 -1.05744,-23.90209 0.21087,-33.02543z" stroke="#2e3c67" stroke-width="4"/><path d="M195.13656,272.7012l0.17514,-4.58865l24.12922,0.90058l-0.17514,4.58865z" stroke="none" stroke-width="0"/></g><path d="M197.16817,280.85581c1.10933,-14.22194 3.20129,-26.10284 9.26862,-26.02187c14.02856,0.18724 11.92915,13.35513 9.91296,36.43313c-1.19791,13.71172 -4.16151,28.95937 -7.79549,35.45595c-1.81595,3.24645 -5.22755,4.34496 -6.98995,4.34496c-2.58897,0 -5.29502,-0.96406 -6.52546,-3.42988c-0.74182,-1.48659 0.76356,-5.38365 0.46454,-9.14993c-0.21827,-2.74932 -0.32369,-6.24464 -0.32369,-10.68841c0,-6.15584 1.51662,-20.89481 1.98847,-26.94394z" fill="#5671c0" stroke="none" stroke-width="0"/></g><g data-paper-data="{&quot;index&quot;:null}" stroke-linecap="butt"><g fill="#465b9c"><path d="M184.49081,391.40489l1.72371,-4.2409l-1.79211,-2.40665l1.34611,-3.65522c0,0 0.54752,-18.62748 1.2256,-23.24751c1.11426,-7.5918 2.54829,-30.42984 2.54829,-30.42984l32.75546,-0.41115c0,0 2.08553,29.21231 0.95363,37.70746c-0.47155,3.53906 -2.27102,17.24261 -2.27102,17.24261l-0.1679,4.1033l-1.88775,2.1571l1.00303,4.8731c0,0 -12.66394,1.71207 -18.23484,1.7287c-5.32515,0.0159 -17.20221,-3.42101 -17.20221,-3.42101z" stroke="#2e3c67" stroke-width="4"/><path d="M192.60764,330.23159l0.18491,-5.39583l28.57046,-0.79023c0,0 -0.23469,5.33641 -0.89552,6.44952c-0.25537,0.43016 -6.73968,0.43534 -6.73968,0.43534z" stroke="none" stroke-width="0"/></g><path d="M194.21735,326.79357c0.9621,-4.27492 3.34049,-2.40878 6.37178,-2.49775c4.26614,1.08902 9.35676,-2.54544 8.79458,1.17232c-2.71079,17.92666 -2.06107,40.26295 -2.31014,46.28134c-0.14043,3.39311 2.94343,10.34047 -0.98001,12.28292c-1.52502,0.75501 -5.40122,1.6343 -8.45763,1.07513c-3.21432,-0.58807 -5.28242,-1.09753 -6.52988,-2.66712c-1.24746,-1.56959 1.4226,-4.3221 0.64002,-4.74372c-2.4931,-1.34316 1.41921,-16.61719 1.85279,-27.09397c0.23081,-5.57738 -0.47675,-18.94266 0.61849,-23.80915z" fill="#5671c0" stroke="none" stroke-width="0"/></g><g data-paper-data="{&quot;index&quot;:null}"><path d="M197.48812,76.47057c4.57436,-26.053 22.90457,-38.12218 45.76069,-34.10912c22.85612,4.01306 35.9785,21.60465 31.40414,47.65765c-4.57435,26.05301 -29.90882,40.01633 -40.36668,38.3911c-24.01373,-3.7319 -41.37252,-25.88662 -36.79815,-51.93963z" data-paper-data="{&quot;index&quot;:null}" fill="#d9bb9a" stroke="#917c67" stroke-width="4" stroke-linecap="butt"/><path d="M268.59428,89.49564c-3.6595,20.8424 -22.60794,35.01929 -33.18027,33.16302c-20.78748,-3.33319 -35.47332,-23.73222 -31.81382,-44.57464c3.6595,-20.8424 18.00086,-33.03981 39.05611,-29.34295c20.79318,3.65085 29.59748,19.91217 25.938,40.75457z" fill="#ffdbb5" stroke="none" stroke-width="0" stroke-linecap="butt"/><path d="M248.80302,103.7351c-0.25394,1.32791 -3.63042,3.89769 -6.80584,3.29045c-3.17542,-0.60724 -4.66681,-2.46427 -4.41288,-3.79217c0.25394,-1.32791 2.15704,-1.62384 5.33246,-1.0166c3.17542,0.60724 6.14019,0.19041 5.88625,1.51833z" fill="#d9bb9a" stroke="none" stroke-width="0" stroke-linecap="butt"/><path d="M238.09658,113.25787l10.65865,0.50062" fill="none" stroke="#d9bb9a" stroke-width="4" stroke-linecap="round"/></g><g data-paper-data="{&quot;index&quot;:null}" stroke-linecap="butt"><g fill="#465b9c"><path d="M236.62261,330.69507c0,0 -2.35586,-13.59806 -3.50742,-22.53719c-1.09437,-8.49514 -0.62154,-36.02356 -0.62154,-36.02356l33.21268,-1.27274c0,0 1.90098,19.92951 2.97827,27.5213c1.29463,9.12335 0.21524,33.02543 0.21524,33.02543c0,0 -9.79262,3.72119 -14.94115,3.70529z" stroke="#2e3c67" stroke-width="4"/><path d="M239.47826,274.36718l-0.17878,-4.58865l24.63025,-0.90059l0.17878,4.58865z" stroke="none" stroke-width="0"/></g><path d="M260.83569,308.36337c0,4.44377 0.09421,7.9391 -0.12861,10.6884c-0.30523,3.76628 0.42422,8.06693 -0.333,9.55352c-1.25598,2.46582 -1.19307,3.02629 -3.8358,3.02629c-1.799,0 -7.29942,-1.09851 -9.15307,-4.34496c-3.70943,-6.49657 -4.71657,-21.74424 -5.93936,-35.45595c-2.05805,-23.078 -4.20106,-36.2459 10.11878,-36.43312c6.19331,-0.08098 7.31972,11.79993 8.4521,26.02187c0.48163,6.04913 0.81896,26.94394 0.81896,26.94394z" fill="#5671c0" stroke="none" stroke-width="0"/></g><g data-paper-data="{&quot;index&quot;:null}" stroke-linecap="butt"><g fill="#465b9c"><path d="M256.87428,395.59129c-5.38615,-0.01662 -17.63008,-1.7287 -17.63008,-1.7287l0.96977,-4.8731l-1.82515,-2.15711l-0.16232,-4.10329c0,0 -1.73978,-13.70354 -2.1957,-17.24261c-1.09437,-8.49514 0.92199,-37.70746 0.92199,-37.70746l31.66912,0.41115c0,0 1.38648,22.83804 2.46379,30.42984c0.6556,4.62004 1.18497,23.24751 1.18497,23.24751l1.30147,3.65522l-1.73268,2.40665l1.66655,4.24089c0,0 -11.48316,3.4369 -16.63169,3.42101z" stroke="#2e3c67" stroke-width="4"/><path d="M245.82393,331.69579c0,0 -6.26926,-0.00518 -6.51616,-0.43534c-0.63892,-1.11311 -0.86583,-6.44953 -0.86583,-6.44953l28.20155,0.58843l0.38059,5.39586z" stroke="none" stroke-width="0"/></g><path d="M261.65964,351.16631c0.41921,10.47678 4.20176,25.7508 1.79134,27.09397c-0.75662,0.42162 1.82487,3.17414 0.61878,4.74373c-1.20609,1.56959 -3.20561,2.07905 -6.31332,2.6671c-2.95503,0.55918 -6.70268,-0.32012 -8.17713,-1.07513c-3.79333,-1.94245 -0.81173,-8.88981 -0.94751,-12.28292c-0.24081,-6.01838 0.38737,-28.35467 -2.23353,-46.28134c-0.54353,-3.71776 4.37826,-0.0833 8.50291,-1.17232c2.93075,0.08897 5.23026,-1.77716 6.16046,2.49775c1.05892,4.86649 0.37482,18.23177 0.59799,23.80915z" fill="#5671c0" stroke="none" stroke-width="0"/></g><g data-paper-data="{&quot;index&quot;:null}"><g><g><path d="M193.32058,273.69352c0,0 0.63571,-18.31854 1.6811,-26.50811c1.0414,-8.15841 4.06504,-19.79014 4.06504,-19.79014l63.97156,0.42572c0,0 3.17288,13.02482 3.49816,19.54905c0.60358,12.10567 -0.32964,27.10398 -0.32964,27.10398l-33.46599,-0.07217l-0.43235,-5.56327l-3.92117,-0.55397l0.21286,5.7848z" fill="#465b9c" stroke="#2e3c67" stroke-width="4" stroke-linecap="butt"/><path d="M237.1308,245.06311c0,0 0.1753,14.15353 -0.25751,18.2756c-0.23364,2.22519 -2.13396,4.50102 -2.13396,4.50102" fill="none" stroke="#2e3c67" stroke-width="4" stroke-linecap="round"/><path d="M226.56852,251.87481v-6.8117h10.56227" fill="none" stroke="#2e3c67" stroke-width="4" stroke-linecap="round"/><path d="M206.91133,241.27059c0,0 -2.78967,9.07125 -4.16556,12.36817c-1.0262,2.45897 -3.35283,5.64728 -3.35283,5.64728" fill="none" stroke="#2e3c67" stroke-width="4" stroke-linecap="round"/><path d="M262.51276,261.41468c0,0 -2.32663,-3.18831 -3.35283,-5.64728c-1.3759,-3.29692 -4.16556,-12.36816 -4.16556,-12.36816" data-paper-data="{&quot;index&quot;:null}" fill="none" stroke="#2e3c67" stroke-width="4" stroke-linecap="round"/><path d="M195.05545,276.60321l0.84834,-10.62262l28.63401,0.27335l-1.18049,10.62262z" fill="#465b9c" stroke="none" stroke-width="0" stroke-linecap="butt"/><path d="M234.89346,277.40872l0.58742,-10.62262l27.709,-0.27333l-0.05347,10.8z" data-paper-data="{&quot;index&quot;:null}" fill="#465b9c" stroke="none" stroke-width="0" stroke-linecap="butt"/></g><g stroke="#281a0d" stroke-width="4" stroke-linecap="butt"><path d="M195.28024,233.78123c0,0 -0.25621,-3.99719 0.03027,-5.66324c0.30957,-1.80034 2.16189,-3.91571 2.16189,-3.91571l9.76513,-0.35477c0,0 3.18861,3.80793 3.18861,5.46355c0,1.65561 -3.18861,4.47018 -3.18861,4.47018z" fill="#3f2b1a"/><path d="M206.44038,234.63269l1.79361,-10.21754l10.16371,0.07096c0,0 3.18861,3.80793 3.18861,5.46355c0,1.65561 -3.18861,4.47018 -3.18861,4.47018z" fill="#67472a"/><path d="M218.59698,234.84555l1.5943,-10.00468l10.36299,-0.14192c0,0 3.18861,3.80794 3.18861,5.46355c0,1.65561 -3.18861,4.47017 -3.18861,4.47017z" fill="#3f2b1a"/><path d="M231.62924,235.34676l0.26286,-10.72394l11.21012,-0.04174c0,0 3.36098,3.63487 3.43762,5.28847c0.07664,1.65359 -2.97779,4.63311 -2.97779,4.63311z" fill="#67472a"/><path d="M243.78082,234.91734l0.86073,-10.29821l10.61226,-0.46747c0,0 3.36098,3.63487 3.43762,5.28846c0.07664,1.65359 -2.97779,4.63311 -2.97779,4.63311z" fill="#3f2b1a"/><path d="M255.94242,234.70815l0.59146,-10.08535l8.42829,-0.68033c0,0 2.64231,3.63487 2.70255,5.28847c0.06026,1.65359 -2.34104,4.63311 -2.34104,4.63311z" fill="#67472a"/></g><path d="M200.37825,235.34436l1.1647,-12.76968l5.77809,-0.14841l0.62891,12.76968z" fill="#465b9c" stroke="#2e3c67" stroke-width="4" stroke-linecap="butt"/><g fill="#67472a" stroke="#281a0d" stroke-width="4" stroke-linecap="butt"><path d="M255.45078,233.57277l5.45478,-8.64844l9.47458,4.23795c0,0 1.27285,4.65756 0.58447,6.14035c-0.68838,1.48279 -4.71478,2.75636 -4.71478,2.75636z"/></g><path d="M223.3799,237.82568c0,0 -1.19573,-4.98486 -1.19573,-7.45029c0,-2.42996 1.19573,-7.23743 1.19573,-7.23743h17.53737c0,0 1.5943,5.71575 1.5943,8.30175c0,2.26808 -1.5943,6.38597 -1.5943,6.38597z" fill="none" stroke="#716b65" stroke-width="4" stroke-linecap="butt"/><path d="M254.38537,235.40882l0.62891,-12.76968l5.77809,0.14841l1.1647,12.76968z" data-paper-data="{&quot;index&quot;:null}" fill="#465b9c" stroke="#2e3c67" stroke-width="4" stroke-linecap="butt"/></g><path d="M217.30682,276.8301c0,3.03703 -13.18633,0.88695 -18.18507,0.88695c-2.67371,0 -0.39622,-11.51649 0.58127,-14.36842c1.16251,-3.39181 6.87552,-6.74074 11.87426,-6.74074c4.99873,0 5.72954,17.18519 5.72954,20.22222z" fill="#5671c0" stroke="none" stroke-width="0" stroke-linecap="butt"/><path d="M240.02264,278.32244c0,-3.03703 0.73081,-20.22222 5.72954,-20.22222c4.99873,0 10.71175,3.34894 11.87426,6.74075c0.97748,2.85193 3.25497,14.36842 0.58127,14.36842c-4.99873,0 -18.18506,2.15009 -18.18506,-0.88694z" data-paper-data="{&quot;index&quot;:null}" fill="#5671c0" stroke="none" stroke-width="0" stroke-linecap="butt"/></g><g data-paper-data="{&quot;index&quot;:null}" stroke="none" stroke-width="0" stroke-linecap="butt"><path d="M272.33776,96.03159c-1.38009,7.21688 -7.76873,12.05956 -14.26943,10.81643c-6.50068,-1.24313 -10.65177,-8.10133 -9.27168,-15.3182c1.38009,-7.21688 7.76874,-12.05954 14.26943,-10.81641c6.5007,1.24314 10.65177,8.10133 9.27168,15.3182z" fill="#d3f0f1"/><path d="M261.72417,81.49075c5.39557,1.0318 8.74472,7.22743 7.48052,13.8383c-1.2642,6.61087 -6.66304,11.1336 -12.0586,10.1018c-5.39557,-1.0318 -8.74471,-7.22741 -7.48051,-13.83829c1.2642,-6.61087 6.66303,-11.13362 12.0586,-10.10182z" fill="#ffffff"/></g><g data-paper-data="{&quot;index&quot;:null}" stroke="none" stroke-width="0" stroke-linecap="butt"><g data-paper-data="{&quot;index&quot;:null}"><path d="M272.6094,96.88306c-1.08115,5.65363 -5.20661,9.61547 -9.21445,8.84905c-4.00786,-0.76643 -6.3804,-5.97088 -5.29925,-11.62452c1.08115,-5.65362 5.20658,-9.61548 9.21443,-8.84905c4.00786,0.76643 6.38042,5.97091 5.29927,11.62452z" fill="#41563d"/><path d="M263.67379,102.29683c-3.70537,-0.70858 -5.39371,-6.18464 -4.79666,-9.3068c0.59705,-3.12216 3.02615,-8.44871 8.92227,-7.32119c3.70537,0.70858 5.64081,6.86978 5.04376,9.99192c-0.59705,3.12215 -5.46399,7.34464 -9.16936,6.63606z" fill="#5f7d59"/></g><path d="M259.99287,90.92369c0.45401,-2.37412 2.74664,-3.93068 5.12076,-3.47668c2.37412,0.45401 3.93068,2.74665 3.47668,5.12077c-0.45401,2.37413 -2.74665,3.93068 -5.12077,3.47668c-2.37412,-0.45401 -3.93067,-2.74664 -3.47667,-5.12077z" fill="#8ebb85"/><path d="M262.82932,95.92204c0.25115,-1.31334 1.51943,-2.17442 2.83277,-1.92327c1.31334,0.25115 2.17442,1.51943 1.92327,2.83277c-0.25115,1.31334 -1.51943,2.17443 -2.83277,1.92328c-1.31334,-0.25115 -2.17442,-1.51944 -1.92327,-2.83278z" fill="#8ebb85"/></g><g data-paper-data="{&quot;index&quot;:null}" stroke="none" stroke-width="0" stroke-linecap="butt"><path d="M224.31463,72.43602c6.50068,1.24313 10.65177,8.10133 9.27167,15.31822c-1.38009,7.21688 -7.76873,12.05954 -14.26943,10.81641c-6.50068,-1.24313 -10.65177,-8.10132 -9.27168,-15.3182c1.38009,-7.21688 7.76874,-12.05954 14.26943,-10.81641z" fill="#d3f0f1"/><path d="M232.75551,87.49195c-1.26421,6.61089 -6.66303,11.13361 -12.05859,10.10181c-5.39557,-1.0318 -8.74472,-7.22742 -7.48052,-13.83829c1.2642,-6.61087 6.66304,-11.13361 12.05861,-10.10181c5.39557,1.0318 8.74471,7.22742 7.48051,13.8383z" fill="#ffffff"/></g><g data-paper-data="{&quot;index&quot;:null}" stroke="none" stroke-width="0" stroke-linecap="butt"><g data-paper-data="{&quot;index&quot;:null}"><path d="M228.43625,76.45309c4.00786,0.76643 6.3804,5.9709 5.29925,11.62452c-1.08115,5.65363 -5.20658,9.61548 -9.21443,8.84905c-4.00786,-0.76643 -6.38042,-5.97089 -5.29927,-11.62452c1.08115,-5.65362 5.20659,-9.61548 9.21445,-8.84905z" fill="#41563d"/><path d="M219.45555,84.07985c0.59705,-3.12216 4.66921,-8.1345 8.37457,-7.42592c5.89612,1.12752 6.1885,6.9745 5.59145,10.09666c-0.59705,3.12215 -4.18677,7.58889 -7.89213,6.88031c-3.70537,-0.70858 -6.67094,-6.42889 -6.07388,-9.55104z" fill="#5f7d59"/></g><path d="M228.02618,87.89504c-2.37412,-0.45401 -3.93068,-2.74665 -3.47668,-5.12077c0.45401,-2.37412 2.74666,-3.93069 5.12078,-3.47669c2.37412,0.45401 3.93067,2.74665 3.47666,5.12078c-0.45401,2.37412 -2.74664,3.93068 -5.12076,3.47668z" fill="#8ebb85"/><path d="M225.83364,89.94074c-1.31334,-0.25115 -2.17442,-1.51943 -1.92327,-2.83277c0.25115,-1.31334 1.51943,-2.17443 2.83277,-1.92328c1.31334,0.25115 2.17442,1.51944 1.92327,2.83278c-0.25115,1.31334 -1.51943,2.17442 -2.83277,1.92327z" fill="#8ebb85"/></g><g data-paper-data="{&quot;index&quot;:null}" stroke-linecap="butt"><g data-paper-data="{&quot;index&quot;:null}" fill="#403328"><g><path d="M266.42674,246.48355c-5.79313,0.6874 -21.94008,-8.0931 -21.94008,-8.0931c0,0 0.21491,-51.0209 -0.63615,-69.1985c-0.7886,-16.84341 -0.48505,-25.79275 -0.48505,-25.79275c0,0 7.55991,-4.17116 9.69793,-9.14879c1.30037,-3.02746 0.36813,-5.29971 1.94018,-5.63407c3.71714,-0.79061 5.39478,1.2926 11.23447,4.40567c5.83967,3.11307 12.27317,9.42227 13.66349,11.90587c1.39031,2.4836 -5.83835,2.0726 -5.83835,2.0726c0,0 -6.06776,3.43983 -10.13193,5.40211c-3.15708,1.52433 -2.58407,25.6153 -2.58407,25.6153l-0.04245,14.6065l9.64236,42.30702c0,0 -0.58808,11.08558 -4.52035,11.55218z" stroke="#292018" stroke-width="4"/><path d="M276.24313,143.89588c0,0 1.99027,2.55023 2.42784,3.56738c0.41316,0.96042 0.48729,3.01371 0.48729,3.01371c0,0 -12.446,7.01131 -14.55661,7.71361c-0.69845,0.23241 -4.62748,-0.06234 -5.13174,-3.26117c-0.50427,-3.19883 1.86868,-6.29728 1.86868,-6.29728z" stroke="none" stroke-width="NaN"/></g><path d="M253.34903,136.02908c-2.19501,2.08365 -6.67801,4.79596 -6.67801,4.79596l1.12121,-10.37719l9.82382,-6.52952l0.59207,4.1587c0,0 -2.57299,5.78189 -4.85909,7.95204z" stroke="#292018" stroke-width="4"/></g><path d="M251.92249,157.18236c0,1.95833 -0.65264,3.54587 -1.4577,3.54587c-0.80506,0 -1.4577,-1.58754 -1.4577,-3.54587c0,-1.95833 0.65264,-3.54587 1.4577,-3.54587c0.80506,0 1.4577,1.58753 1.4577,3.54587z" fill="#dfbd28" stroke="#dfbd28" stroke-width="4"/><path d="M252.17759,179.14943c0,1.95832 -0.65264,3.54587 -1.4577,3.54587c-0.80506,0 -1.4577,-1.58754 -1.4577,-3.54587c0,-1.95832 0.65264,-3.54587 1.4577,-3.54587c0.80506,0 1.4577,1.58754 1.4577,3.54587z" fill="#dfbd28" stroke="#dfbd28" stroke-width="4"/><path d="M252.76068,200.59761c0,1.95832 -0.65264,3.54587 -1.4577,3.54587c-0.80506,0 -1.4577,-1.58754 -1.4577,-3.54587c0,-1.95832 0.65264,-3.54587 1.4577,-3.54587c0.80506,0 1.4577,1.58754 1.4577,3.54587z" fill="#dfbd28" stroke="#dfbd28" stroke-width="4"/><path d="M253.30733,220.83499c0,1.95832 -0.65264,3.54587 -1.4577,3.54587c-0.80506,0 -1.4577,-1.58754 -1.4577,-3.54587c0,-1.95832 0.65264,-3.54587 1.4577,-3.54587c0.80506,0 1.4577,1.58754 1.4577,3.54587z" fill="#dfbd28" stroke="#dfbd28" stroke-width="4"/></g><g data-paper-data="{&quot;index&quot;:null}" stroke="#292018" stroke-width="4"><path d="M189.57331,233.51488l8.42665,-39.72402l0.20695,-17.02807c0,0 4.39196,-23.8488 0.34959,-25.37313c-5.20382,-1.96228 -12.97305,-5.40211 -12.97305,-5.40211c0,0 -9.25571,0.41101 -7.47551,-2.0726c1.78019,-2.48361 10.01772,-8.7928 17.49493,-11.90586c7.4772,-3.11307 9.62527,-5.19627 14.38476,-4.40567c2.01289,0.33437 0.81922,2.60661 2.48424,5.63407c2.73756,4.97762 12.41738,9.14879 12.41738,9.14879c0,0 0.38866,8.94934 -0.62107,25.79275c-1.08972,18.1776 -0.81454,69.19851 -0.81454,69.19851c0,0 -13.35828,9.50698 -20.77588,8.81957c-5.03494,-0.4666 -13.10442,-12.68224 -13.10442,-12.68224z" fill="#403328" stroke-linecap="butt"/><path d="M211.37186,129.00138l-0.28713,-5.8538l14.93032,7.98246l1.4356,10.37719c0,0 -5.74011,-2.71231 -8.55062,-4.79596c-2.92717,-2.17014 -7.52818,-7.70989 -7.52818,-7.70989z" fill="#403328" stroke-linecap="butt"/><path d="M217.92061,161.95053l0.74658,-9.16737" fill="none" stroke-linecap="round"/><path d="M217.21136,182.46466l-0.18665,-7.43768" fill="none" stroke-linecap="round"/><path d="M216.91273,204.50093l0.18664,-7.78361" fill="none" stroke-linecap="round"/><path d="M216.31546,217.47363l-0.18664,8.64845" fill="none" stroke-linecap="round"/></g><path d="M200.492,88.4558c0.04319,5.61102 0.77325,8.85504 -0.83032,9.51229c-1.60356,0.65726 -6.95161,-4.29036 -6.9948,-9.90138c-0.04319,-5.61102 4.89021,-9.43452 6.61098,-9.22868c3.13204,0.37467 1.17096,4.00673 1.21413,9.61775z" data-paper-data="{&quot;index&quot;:null}" fill="#d9bb9a" stroke="#917c67" stroke-width="4" stroke-linecap="butt"/><g data-paper-data="{&quot;index&quot;:null}"><g><path d="M197.31925,78.86573c-0.75845,2.62607 -5.70561,3.74273 -5.70561,3.74273c0,0 -3.1018,0.83001 -3.80943,-2.01545c-0.57631,-2.31744 -3.8561,-6.4966 -3.8561,-6.4966c0,0 2.07923,-2.36455 4.64547,-5.00207c0.66316,-0.68159 -2.7985,-3.61067 -3.54738,-5.36682c-0.74889,-1.75615 -1.21643,-9.90407 -1.21643,-9.90407c0,0 7.29929,-1.25178 9.72576,-5.41711c1.20399,-2.06678 1.87487,-5.64635 2.71239,-6.94411c4.77181,-7.39401 3.24824,-9.50531 8.20429,-12.90511c0.51793,-0.3553 9.33553,-4.27808 9.79934,-4.59945c8.07829,-5.59728 9.36401,-5.73019 19.89784,-4.84914c11.13863,0.93163 19.88653,-1.23152 25.81754,3.24264c3.87281,2.92153 13.56765,10.10233 20.48264,13.96139c5.64326,8.77929 7.63486,14.10849 6.64147,23.71107c-0.31867,3.08041 -3.20361,4.74493 -2.52302,8.1427c0.30873,1.54129 5.6871,13.79511 5.6871,13.79511c0,0 -2.21909,3.37467 -4.60825,4.40966c-2.36711,1.02544 -4.59937,0.19759 -5.32359,1.23349c-1.57987,2.25976 -0.97634,4.98112 -1.68716,6.73144c-0.51713,1.27337 -1.20587,1.87916 -2.32232,2.95223c-1.88456,1.81132 -1.32993,-1.42993 -0.84249,-3.54676c0.91117,-3.95687 0.48757,-6.97178 0.37495,-6.33142c-1.68921,0.50022 -0.42235,0.70496 -6.96679,-1.73452c-0.36402,-0.13569 -1.14145,-3.16167 -2.39079,-4.60182c-1.24935,-1.44014 -1.67322,-5.86766 -1.67322,-5.86766c0,0 -11.11294,2.92074 -15.63108,2.48501c-6.51841,-0.62863 -14.31777,0.21591 -17.90983,-0.8451c-8.78067,-2.59362 -12.57914,-4.38978 -16.11077,-5.14045c-3.28711,-0.6987 -9.70543,1.5489 -11.61392,0.23483c0,0 -5.25503,3.47819 -6.25062,6.92536z" fill="#252931" stroke="#14161a" stroke-width="4" stroke-linecap="butt"/><path d="M265.93209,67.03629c-24.97228,5.40206 -46.39206,-2.32578 -65.34853,-3.92698c-3.92428,-0.33148 -4.60186,-3.70655 -4.60186,-3.70655c0,0 7.76949,-6.06312 9.63537,-15.82033c0.89802,-4.69601 8.59071,-13.50613 17.84825,-17.27528c7.69519,-3.13303 22.06581,-1.28964 29.31599,-1.47156c4.69541,-0.11782 3.86104,3.47299 7.94576,4.25412c11.5948,2.21728 9.24939,9.15788 11.64881,17.25489c1.7464,5.89339 -2.87499,19.91968 -6.44382,20.6917z" fill="#494c5e" stroke="none" stroke-width="0" stroke-linecap="butt"/><path d="M261.33762,37.79683c0.25313,-1.32367 -5.73014,0.6701 -6.00657,-1.19853c-0.20289,-1.37145 2.48295,-2.93645 3.42075,-4.77187c0.26988,-0.5282 -0.14803,-2.82416 -1.99584,-4.43119c-1.53795,-1.33753 -4.56531,-2.02684 -4.39091,-2.40602c0.70843,-1.54036 9.00545,1.43593 9.9217,1.61114c3.63731,0.69557 14.92953,13.16031 14.21188,16.91309c-0.04354,0.22766 1.18056,20.05471 -6.15901,26.94914c-1.05986,0.99558 -8.38763,-0.39442 -8.41232,-2.50746c-0.00776,-0.66433 -4.1201,-2.55208 -2.66594,-4.4265c1.9811,-2.55364 10.69704,-3.72793 10.55688,-4.53632c-0.40024,-2.30834 -14.03944,2.01598 -14.60573,-1.33762c-0.56629,-3.35361 14.84334,-8.87003 13.20614,-11.57646c-3.26401,0.62702 -11.76909,4.42574 -12.58071,2.91171c-2.45949,-4.58806 4.78202,-7.44036 5.49967,-11.19313z" fill="#252931" stroke="none" stroke-width="0" stroke-linecap="butt"/><path d="M212.07677,61.58167c-0.84242,1.05191 1.78029,0.41964 3.51724,1.24708c1.73695,0.82745 7.78795,2.59649 6.10106,3.78083c-0.88952,0.62452 -10.60286,-2.18362 -11.33238,-1.62508c-1.34621,1.0307 -4.09918,1.63369 -4.82732,1.05059c-1.75229,-1.40328 -10.933,0.06478 -11.4266,-5.25998c-0.32065,-3.4589 6.50851,-8.52783 7.44901,-9.70222c0.14489,-0.18092 4.78387,-17.87581 14.4947,-20.54076c1.40227,-0.38482 10.02303,-1.26558 9.0573,0.61403c-0.30362,0.59094 -6.4278,6.01554 -8.5894,6.99305c-2.94488,1.33171 -5.65325,2.43246 -5.90714,3.21262c-0.72498,2.22779 13.74449,1.87114 12.9177,3.84615c-1.31334,3.13729 -16.79517,3.86442 -16.06935,5.40039c0.82759,1.75132 8.11453,0.35787 15.31308,0.21345c5.57511,-0.11186 11.61888,0.97216 11.27124,2.02373c-0.32273,0.97624 -2.26163,3.31233 -4.2215,3.86858c-5.70221,1.61843 -15.97023,2.65807 -17.74766,4.87754z" fill="#252931" stroke="none" stroke-width="0" stroke-linecap="butt"/><path d="M273.30553,70.29644c0,0 -6.46439,4.88631 -7.47852,5.10488c-2.02794,0.43708 -6.05622,0.56418 -6.05622,0.56418" fill="none" stroke="#14161a" stroke-width="4" stroke-linecap="round"/><path d="M235.94536,35.21432c0.01143,-3.17417 3.49621,-5.44714 7.31697,-5.43337c3.82075,0.01376 9.35025,0.03086 9.33882,3.20502c-0.01143,3.17417 -5.90683,6.71994 -9.72758,6.70617c-3.82075,-0.01377 -6.93964,-1.30366 -6.92821,-4.4778z" fill="#686c85" stroke="none" stroke-width="0" stroke-linecap="butt"/><path d="M221.86988,38.3674c0.00661,-1.83269 3.09471,-3.28112 5.30073,-3.27317c2.20601,0.00795 4.27803,1.12191 4.27142,2.9546c-0.00661,1.83269 -2.09849,2.60474 -4.3045,2.59679c-2.20601,-0.00795 -5.27427,-0.44552 -5.26765,-2.27821z" fill="#686c85" stroke="none" stroke-width="0" stroke-linecap="butt"/><path d="M246.92812,44.35171c-0.27051,-1.81261 1.01872,-2.27761 3.20058,-2.60323c2.18186,-0.32562 3.82364,-1.26318 4.09416,0.54944c0.27051,1.81261 -1.68061,2.89203 -3.86248,3.21764c-2.18186,0.32562 -3.16173,0.64877 -3.43224,-1.16385z" fill="#686c85" stroke="none" stroke-width="0" stroke-linecap="butt"/></g><path d="M280.47482,80.52208c-1.60048,0.02764 -0.49923,3.42492 -1.55723,3.2226c-1.11354,-0.21294 -2.55399,-2.56536 -3.56191,-4.29885c-1.29147,-2.22117 -1.85469,-3.48601 -1.63145,-4.65339c0.2426,-1.26864 0.30913,-0.26039 1.78821,-0.30671c0.94413,-0.02957 2.98382,-4.25844 3.97358,-4.06916c0.94296,0.18032 0.35432,2.26665 1.31897,4.37965c0.15343,0.33607 2.3381,-5.77641 2.92686,-3.28162c0.32663,1.38406 3.31104,5.17547 3.68648,9.18257c0.37544,4.00711 -3.35597,-2.61186 -4.64548,-1.96656c-1.2895,0.64529 1.38175,2.56103 1.18424,3.59385c0,0 -1.23982,-1.84109 -3.48227,-1.80237z" fill="#494c5e" stroke="none" stroke-width="0" stroke-linecap="butt"/><path d="M279.15128,50.36901c0.27825,1.06161 -1.40926,2.39956 -5.27648,3.41323c-3.86722,1.01367 -5.27605,1.34807 -5.55432,0.28646c-0.27827,-1.06159 1.7947,-2.90388 5.66193,-3.91755c3.86722,-1.01367 4.89058,-0.84375 5.16886,0.21784z" fill="#494c5e" stroke="none" stroke-width="0" stroke-linecap="butt"/></g><path d="M265.97885,85.83646c-5.47885,-0.4287 -12.52974,-0.21433 -12.36547,-3.21241c0.16427,-2.99806 12.1617,-3.64495 17.64055,-3.21625c5.47885,0.42871 7.94315,2.63478 7.77888,5.63284c-0.16427,2.99806 -7.5751,1.22452 -13.05395,0.79581z" data-paper-data="{&quot;index&quot;:null}" fill="#424956" stroke="#14161a" stroke-width="4" stroke-linecap="butt"/><path d="M212.16258,71.797c0.95351,-2.84714 4.0579,-3.9883 9.30835,-2.36522c5.25045,1.62308 16.16267,6.65099 15.20916,9.49813c-0.95351,2.84714 -7.42782,0.04633 -12.67827,-1.57673c-5.25045,-1.62308 -12.79276,-2.70903 -11.83924,-5.55616z" data-paper-data="{&quot;index&quot;:null}" fill="#424956" stroke="#14161a" stroke-width="4" stroke-linecap="butt"/><g data-paper-data="{&quot;index&quot;:null}" stroke-linecap="butt"><g><g><g><path d="M173.57568,212.30188c1.36181,-8.15979 2.89262,-10.15276 2.96292,-12.51774c0.29817,-10.02951 3.42365,-35.22551 3.42365,-35.22551c0,0 10.69516,-4.11568 13.44452,-2.92707c3.86389,1.67047 3.95206,7.14194 3.95206,7.14194c0,0 1.05105,9.45085 -2.80887,33.1934c-0.12505,0.76924 -0.68314,7.26033 -1.53624,8.30161c-4.79751,5.85573 -20.52171,8.52655 -19.43805,2.03335z" fill="#d9bb9a" stroke="#917c67" stroke-width="4"/><path d="M175.8506,211.94871c0.31216,-0.96584 15.52879,-8.12265 15.65608,-8.12265c0.76415,0 0.1419,2.96875 0.1419,5.72035c0,2.7516 0.40938,5.53581 -0.35477,5.53581c-0.76416,0 -16.70995,6.03618 -16.70995,3.28458c0,-2.29325 0.44231,-3.8673 1.26673,-6.41809z" fill="#d9bb9a" stroke="none" stroke-width="0"/><path d="M195.22278,169.53114c-0.5443,3.98229 -3.98246,12.05783 -5.78902,17.19749c-0.81787,2.32682 -0.57458,12.73181 -0.62966,20.56969c-0.00479,0.68223 0.60107,8.269 0.4218,8.56997c-0.19731,0.33127 -14.78603,9.78266 -12.5201,0.59657c1.33138,-5.39746 2.70645,-11.73297 3.22764,-16.6655c0.77365,-7.3219 0.12719,-9.26797 1.54209,-19.61999c1.41491,-10.35202 3.26615,-18.67236 5.71038,-18.31086c2.44422,0.3615 9.45177,-2.68939 8.03686,7.66262z" fill="#ffdbb5" stroke="none" stroke-width="0"/></g><path d="M171.92942,215.36059c0,0 1.6194,-34.78314 2.02298,-44.53232c0.39446,-9.52888 3.84856,-24.75768 3.84856,-24.75768l23.54102,6.97741c0,0 -1.45437,20.41905 -2.42748,28.01106c-0.97813,7.63129 -4.36812,27.38175 -4.36812,27.38175c0,0 -7.24038,3.45885 -10.51209,4.60748c-3.75659,1.31887 -12.10489,2.31229 -12.10489,2.31229z" fill="#403328" stroke="#292018" stroke-width="4"/></g><g><path d="M172.59713,254.42342c0,-7.39879 3.66917,-13.39668 8.19532,-13.39668c4.52615,0 8.19532,5.9979 8.19532,13.39668c0,0.96197 -1.41229,3.95958 -2.3948,6.34976c-0.66484,1.61741 -0.19541,3.4577 -0.87644,4.7199c-0.98867,1.83236 -1.29381,1.10518 -1.87565,1.77209c-1.48286,1.69965 -1.77838,-0.13432 -3.21397,0.9877c-1.44997,1.13325 -1.23192,1.19107 -2.71999,1.19107c-4.52616,0 -5.30982,-7.62174 -5.30982,-15.02053z" fill="#917c67" stroke="none" stroke-width="NaN"/><g><path d="M165.96918,250.99121c-1.05481,-3.20427 3.56289,-13.10545 4.83925,-20.75327c1.36181,-8.15979 2.21854,-7.97534 2.28885,-10.34031c0.65295,-3.94011 20.98435,-7.53571 21.02696,-4.64474c-0.82833,5.09512 -0.03384,21.75921 -0.92568,32.23037c-1.11767,13.12265 -5.35657,6.63378 -6.98512,6.61403c-1.5866,-0.01925 0.40503,-12.59929 -2.15494,-12.77966c-2.73907,-0.19299 -4.50703,0.40595 -6.43969,4.60559c-2.12496,4.61752 -0.85661,23.36417 -2.93741,24.26579c-3.9551,1.71377 -5.5251,-9.51608 -8.71221,-19.19779z" fill="#d9bb9a" stroke="#917c67" stroke-width="4"/><path d="M188.97757,218.41478c-0.19731,0.33127 1.17222,0.92413 0.42624,11.13036c-0.18378,2.51457 0.32533,4.35661 -0.24552,6.15104c-1.12465,3.5353 -6.92837,-0.28085 -8.47746,0.15854c-3.84328,1.09012 -5.23145,4.93233 -5.9559,7.37002c-1.54172,5.18771 -0.69729,13.86443 -0.94102,18.33627c-0.29892,5.48463 -4.14236,-5.82152 -4.85253,-12.46632c-0.26487,-2.47831 2.97088,-6.86169 4.2324,-11.63743c1.26153,-4.77572 1.06324,-6.71334 3.32917,-15.89945c1.33138,-5.39746 13.80823,-5.3652 12.48461,-3.14304z" fill="#ffdbb5" stroke="none" stroke-width="0"/></g><path d="M166.76817,237.9962l4.89516,-20.51354l22.61696,-5.25903l1.07943,22.99419c0,0 -7.70498,-1.93003 -15.11594,-0.03968c-6.96546,1.77672 -13.47561,2.81805 -13.47561,2.81805z" fill="#403328" stroke="#292018" stroke-width="4"/><path d="M173.57441,221.44999l0.70956,-8.67279l18.62573,-6.0894l-0.88694,9.59541z" fill="#403328" stroke="none" stroke-width="0"/></g></g><path d="M204.27486,148.3457c0,0 -0.61486,0.87868 -1.21321,4.07751c-0.59835,3.19883 -5.26048,4.50255 -6.08926,4.27014c-2.50443,-0.7023 -17.27273,-7.71361 -17.27273,-7.71361c0,0 0.08799,-2.0533 0.57822,-3.01371c0.51921,-1.01717 2.88083,-3.56738 2.88083,-3.56738z" fill="#403328" stroke="none" stroke-width="NaN"/></g><path d="M309.84008,136.71671c-2.13021,-0.87879 -3.43059,-2.55686 -4.92266,-4.20994c-0.88526,-0.98079 -2.92863,-3.2735 -3.37837,-4.54669c-1.68606,-4.77316 2.68307,-9.97176 4.46287,-14.05423c0.20006,-0.4589 0.76605,-0.79044 0.7673,-1.29106c0.00613,-2.45489 -2.52412,-4.83446 -3.83684,-6.73455l-1.71484,-0.95269c-0.52598,-0.27919 -0.8842,-0.83252 -0.8842,-1.46951c0,-0.81726 0.58966,-1.49679 1.36675,-1.63636l2.18661,-0.43732l0.06063,0.30316c4.3166,-1.43812 9.42192,-1.75847 12.59099,1.99474c2.11096,2.50006 2.1888,4.49705 2.38956,7.45966c0.04223,0.62318 0.04534,1.09722 0.76423,1.07298c0.72477,-0.02444 1.03926,-1.39201 1.09765,-1.66859c0.3615,-1.71238 -0.15331,-3.45999 0.8462,-5.07168c0.9683,-1.56137 3.04551,-2.39796 4.80277,-2.341c1.29897,0.0421 3.14809,-0.30497 3.81359,0.81136c1.78426,2.99293 -1.89231,3.32309 -2.26222,5.25133c-0.1747,0.91067 0.20884,1.84275 0.31326,2.76413c0.0965,1.43753 0.61176,2.83206 1.16533,4.16223c0.19872,0.47751 0.20438,1.0444 0.49983,1.46892c0.35266,0.50673 0.91533,0.82882 1.3812,1.23391c0.16924,0.14716 0.34231,0.55439 0.52368,0.42245c0.22352,-0.1626 -0.01278,-0.55616 0.03448,-0.82849c0.12008,-0.69199 0.17352,-1.41625 0.46586,-2.05485c0.46669,-1.01946 0.83932,-2.24487 1.78104,-2.85337c1.05562,-0.6821 2.87455,-1.63453 3.70635,-0.69235c0.48473,0.54906 -0.45517,6.29417 -0.26377,7.62046c0.29869,2.06971 1.21149,4.00677 1.9593,5.95964c0.16251,0.42438 1.98315,4.14228 2.00646,5.11413c0.16475,6.87023 -7.39984,10.93778 -13.00569,12.17014c-1.46909,0.0037 -3.75594,0.12627 -5.26057,-0.26669c-0.37503,-0.09794 -0.73149,-0.22756 -1.0729,-0.38254c-4.47701,-1.16472 -9.08302,-2.81447 -12.1265,-6.22148c-0.08906,-0.02993 -0.17495,-0.06183 -0.25736,-0.09583z" fill="#f7b7ff" stroke="none" stroke-width="0.5" stroke-linecap="butt"/><path d="M298.81238,86.16566c0,-1.38071 1.11929,-2.5 2.5,-2.5c1.38071,0 2.5,1.11929 2.5,2.5c0,1.38071 -1.11929,2.5 -2.5,2.5c-1.38071,0 -2.5,-1.11929 -2.5,-2.5z" fill="#f7b7ff" stroke="none" stroke-width="0.5" stroke-linecap="butt"/><path d="M315.16667,81.12475c-2.5,0 -2.5,-2.5 -2.5,-2.5v-2.66667c0,0 0,-2.5 2.5,-2.5c2.5,0 2.5,2.5 2.5,2.5v2.66667c0,0 0,2.5 -2.5,2.5z" fill="#f7b7ff" stroke="none" stroke-width="0.5" stroke-linecap="butt"/><path d="M339.41777,92.95707c0.41374,0.61087 0.98085,1.88742 -0.2957,3.16397c-1.76777,1.76777 -3.53553,0 -3.53553,0l-1.04626,-1.79101c-0.23346,-1.97072 -0.23346,-3.98278 0,-5.95351c0,0 0.31009,-2.48069 2.79078,-2.17061c2.48069,0.31009 2.17061,2.79078 2.17061,2.79078c-0.17421,1.30731 -0.20217,2.64372 -0.08389,3.96037z" fill="#f7b7ff" stroke="none" stroke-width="0.5" stroke-linecap="butt"/></g></g></svg>