<svg xmlns="http://www.w3.org/2000/svg" xmlns:xlink="http://www.w3.org/1999/xlink" version="1.1" width="303.17533" height="591.37819" viewBox="0,0,303.17533,591.37819"><defs><linearGradient x1="273.00805" y1="400.74672" x2="347.4585" y2="397.99858" gradientUnits="userSpaceOnUse" id="color-1"><stop offset="0" stop-color="#000000"/><stop offset="1" stop-color="#0e0e0e"/></linearGradient><linearGradient x1="310.85859" y1="421.20553" x2="311.2597" y2="432.07211" gradientUnits="userSpaceOnUse" id="color-2"><stop offset="0" stop-color="#000000"/><stop offset="1" stop-color="#666666"/></linearGradient><linearGradient x1="290.16166" y1="387.07838" x2="291.57569" y2="425.38643" gradientUnits="userSpaceOnUse" id="color-3"><stop offset="0" stop-color="#151515"/><stop offset="1" stop-color="#212121"/></linearGradient><linearGradient x1="320.80135" y1="389.1282" x2="321.4043" y2="405.46338" gradientUnits="userSpaceOnUse" id="color-4"><stop offset="0" stop-color="#292929"/><stop offset="1" stop-color="#292929"/></linearGradient><linearGradient x1="188.17777" y1="363.36014" x2="255.30291" y2="388.62751" gradientUnits="userSpaceOnUse" id="color-5"><stop offset="0" stop-color="#000000"/><stop offset="1" stop-color="#0e0e0e"/></linearGradient><linearGradient x1="213.90372" y1="396.58118" x2="210.32638" y2="406.0847" gradientUnits="userSpaceOnUse" id="color-6"><stop offset="0" stop-color="#000000"/><stop offset="1" stop-color="#666666"/></linearGradient><linearGradient x1="200.65303" y1="373.0469" x2="214.65039" y2="378.31579" gradientUnits="userSpaceOnUse" id="color-7"><stop offset="0" stop-color="#151515"/><stop offset="1" stop-color="#212121"/></linearGradient><linearGradient x1="297.76673" y1="171.24817" x2="303.14713" y2="219.40648" gradientUnits="userSpaceOnUse" id="color-8"><stop offset="0" stop-color="#ffffff"/><stop offset="1" stop-color="#cccccc"/></linearGradient><radialGradient cx="224.78653" cy="219.44102" r="3.27809" gradientUnits="userSpaceOnUse" id="color-9"><stop offset="0" stop-color="#cccccc"/><stop offset="1" stop-color="#7f7f7f"/></radialGradient><radialGradient cx="222.75917" cy="222.23787" r="2.8327" gradientUnits="userSpaceOnUse" id="color-10"><stop offset="0" stop-color="#cccccc"/><stop offset="1" stop-color="#7f7f7f"/></radialGradient><radialGradient cx="221.58404" cy="226.08721" r="3.5144" gradientUnits="userSpaceOnUse" id="color-11"><stop offset="0" stop-color="#cccccc"/><stop offset="1" stop-color="#7f7f7f"/></radialGradient><radialGradient cx="223.33807" cy="229.66534" r="3.5144" gradientUnits="userSpaceOnUse" id="color-12"><stop offset="0" stop-color="#cccccc"/><stop offset="1" stop-color="#7f7f7f"/></radialGradient><radialGradient cx="226.28032" cy="232.99263" r="3.3044" gradientUnits="userSpaceOnUse" id="color-13"><stop offset="0" stop-color="#cccccc"/><stop offset="1" stop-color="#7f7f7f"/></radialGradient><radialGradient cx="227.80997" cy="236.86121" r="3.04268" gradientUnits="userSpaceOnUse" id="color-14"><stop offset="0" stop-color="#cccccc"/><stop offset="1" stop-color="#7f7f7f"/></radialGradient><radialGradient cx="229.27118" cy="240.11506" r="3.48838" gradientUnits="userSpaceOnUse" id="color-15"><stop offset="0" stop-color="#cccccc"/><stop offset="1" stop-color="#7f7f7f"/></radialGradient><radialGradient cx="230.15633" cy="244.39243" r="3.27838" gradientUnits="userSpaceOnUse" id="color-16"><stop offset="0" stop-color="#cccccc"/><stop offset="1" stop-color="#7f7f7f"/></radialGradient><radialGradient cx="231.17424" cy="248.22376" r="3.0684" gradientUnits="userSpaceOnUse" id="color-17"><stop offset="0" stop-color="#cccccc"/><stop offset="1" stop-color="#7f7f7f"/></radialGradient><radialGradient cx="233.17057" cy="251.77506" r="3.72378" gradientUnits="userSpaceOnUse" id="color-18"><stop offset="0" stop-color="#cccccc"/><stop offset="1" stop-color="#7f7f7f"/></radialGradient><radialGradient cx="236.40498" cy="254.66827" r="3.35736" gradientUnits="userSpaceOnUse" id="color-19"><stop offset="0" stop-color="#cccccc"/><stop offset="1" stop-color="#7f7f7f"/></radialGradient><radialGradient cx="238.25113" cy="257.57295" r="3.69836" gradientUnits="userSpaceOnUse" id="color-20"><stop offset="0" stop-color="#cccccc"/><stop offset="1" stop-color="#7f7f7f"/></radialGradient><radialGradient cx="227.90254" cy="212.95937" r="5.54365" gradientUnits="userSpaceOnUse" id="color-21"><stop offset="0" stop-color="#cccccc"/><stop offset="1" stop-color="#7f7f7f"/></radialGradient><radialGradient cx="237.45134" cy="214.26378" r="3.27809" gradientUnits="userSpaceOnUse" id="color-22"><stop offset="0" stop-color="#cccccc"/><stop offset="1" stop-color="#7f7f7f"/></radialGradient><radialGradient cx="239.68341" cy="218.07769" r="3.27809" gradientUnits="userSpaceOnUse" id="color-23"><stop offset="0" stop-color="#cccccc"/><stop offset="1" stop-color="#7f7f7f"/></radialGradient><radialGradient cx="240.92477" cy="222.45375" r="3.27809" gradientUnits="userSpaceOnUse" id="color-24"><stop offset="0" stop-color="#cccccc"/><stop offset="1" stop-color="#7f7f7f"/></radialGradient><radialGradient cx="241.4728" cy="227.35876" r="3.27809" gradientUnits="userSpaceOnUse" id="color-25"><stop offset="0" stop-color="#cccccc"/><stop offset="1" stop-color="#7f7f7f"/></radialGradient><radialGradient cx="242.1361" cy="231.94986" r="3.27809" gradientUnits="userSpaceOnUse" id="color-26"><stop offset="0" stop-color="#cccccc"/><stop offset="1" stop-color="#7f7f7f"/></radialGradient><radialGradient cx="242.37017" cy="236.73942" r="3.27809" gradientUnits="userSpaceOnUse" id="color-27"><stop offset="0" stop-color="#cccccc"/><stop offset="1" stop-color="#7f7f7f"/></radialGradient><radialGradient cx="242.29054" cy="241.41349" r="3.27809" gradientUnits="userSpaceOnUse" id="color-28"><stop offset="0" stop-color="#cccccc"/><stop offset="1" stop-color="#7f7f7f"/></radialGradient><radialGradient cx="242.47478" cy="245.75726" r="3.27809" gradientUnits="userSpaceOnUse" id="color-29"><stop offset="0" stop-color="#cccccc"/><stop offset="1" stop-color="#7f7f7f"/></radialGradient><radialGradient cx="242.56037" cy="250.5635" r="3.27809" gradientUnits="userSpaceOnUse" id="color-30"><stop offset="0" stop-color="#cccccc"/><stop offset="1" stop-color="#7f7f7f"/></radialGradient><radialGradient cx="241.75388" cy="255.46934" r="3.27809" gradientUnits="userSpaceOnUse" id="color-31"><stop offset="0" stop-color="#cccccc"/><stop offset="1" stop-color="#7f7f7f"/></radialGradient><radialGradient cx="241.79907" cy="270.61974" r="3.35736" gradientUnits="userSpaceOnUse" id="color-32"><stop offset="0" stop-color="#cccccc"/><stop offset="1" stop-color="#7f7f7f"/></radialGradient><radialGradient cx="241.79575" cy="274.48354" r="3.69836" gradientUnits="userSpaceOnUse" id="color-33"><stop offset="0" stop-color="#cccccc"/><stop offset="1" stop-color="#7f7f7f"/></radialGradient><radialGradient cx="243.4195" cy="278.459" r="3.27809" gradientUnits="userSpaceOnUse" id="color-34"><stop offset="0" stop-color="#cccccc"/><stop offset="1" stop-color="#7f7f7f"/></radialGradient><linearGradient x1="320.00369" y1="224.16498" x2="322.45271" y2="255.81192" gradientUnits="userSpaceOnUse" id="color-35"><stop offset="0" stop-color="#ff0000"/><stop offset="1" stop-color="#ff0000" stop-opacity="0"/></linearGradient><linearGradient x1="314.44057" y1="224.63241" x2="319.98668" y2="224.01279" gradientUnits="userSpaceOnUse" id="color-36"><stop offset="0" stop-color="#ff0000"/><stop offset="1" stop-color="#ff0000" stop-opacity="0"/></linearGradient><linearGradient x1="276.53318" y1="201.94688" x2="260.41105" y2="203.34785" gradientUnits="userSpaceOnUse" id="color-37"><stop offset="0" stop-color="#7f7f7f"/><stop offset="1" stop-color="#b2b2b2"/></linearGradient><linearGradient x1="279.55041" y1="212.56162" x2="267.95651" y2="213.8569" gradientUnits="userSpaceOnUse" id="color-38"><stop offset="0" stop-color="#000000"/><stop offset="1" stop-color="#353935"/></linearGradient><linearGradient x1="257.97119" y1="214.9725" x2="268.37574" y2="213.81007" gradientUnits="userSpaceOnUse" id="color-39"><stop offset="0" stop-color="#000000"/><stop offset="1" stop-color="#353935"/></linearGradient><radialGradient cx="244.84657" cy="209.96011" r="26.25461" gradientUnits="userSpaceOnUse" id="color-40"><stop offset="0" stop-color="#666666"/><stop offset="1" stop-color="#000000"/></radialGradient><radialGradient cx="244.27295" cy="218.79051" r="11.28262" gradientUnits="userSpaceOnUse" id="color-41"><stop offset="0" stop-color="#370000"/><stop offset="1" stop-color="#000000"/></radialGradient><radialGradient cx="249.73527" cy="221.87562" r="9.62338" gradientUnits="userSpaceOnUse" id="color-42"><stop offset="0" stop-color="#370000"/><stop offset="1" stop-color="#000000"/></radialGradient><radialGradient cx="242.46017" cy="212.44059" r="8.9043" gradientUnits="userSpaceOnUse" id="color-43"><stop offset="0" stop-color="#370000"/><stop offset="1" stop-color="#000000"/></radialGradient><radialGradient cx="253.04293" cy="215.60629" r="7.83074" gradientUnits="userSpaceOnUse" id="color-44"><stop offset="0" stop-color="#370000"/><stop offset="1" stop-color="#000000"/></radialGradient><radialGradient cx="248.57298" cy="210.43274" r="5.89331" gradientUnits="userSpaceOnUse" id="color-45"><stop offset="0" stop-color="#370000"/><stop offset="1" stop-color="#000000"/></radialGradient><radialGradient cx="248.1377" cy="214.68275" r="2.87457" gradientUnits="userSpaceOnUse" id="color-46"><stop offset="0" stop-color="#ff0000"/><stop offset="1" stop-color="#000000"/></radialGradient><linearGradient x1="248.29338" y1="209.00453" x2="353.87958" y2="67.41517" gradientUnits="userSpaceOnUse" id="color-47"><stop offset="0" stop-color="#ff0000" stop-opacity="0"/><stop offset="1" stop-color="#ff0000"/></linearGradient><linearGradient x1="476.30128" y1="-94.63738" x2="388.79092" y2="22.71256" gradientUnits="userSpaceOnUse" id="color-48"><stop offset="0" stop-color="#ff0000" stop-opacity="0"/><stop offset="1" stop-color="#ff0000"/></linearGradient><radialGradient cx="387.39034" cy="18.70914" r="26.79626" gradientUnits="userSpaceOnUse" id="color-49"><stop offset="0" stop-color="#ff0000"/><stop offset="1" stop-color="#ff0000" stop-opacity="0"/></radialGradient><radialGradient cx="358.12074" cy="68.91179" r="26.79626" gradientUnits="userSpaceOnUse" id="color-50"><stop offset="0" stop-color="#ff0000"/><stop offset="1" stop-color="#ff0000" stop-opacity="0"/></radialGradient><linearGradient x1="95.1552" y1="559.4374" x2="169.6057" y2="556.6893" gradientUnits="userSpaceOnUse" id="color-1-,0,0,1,-177.85282,158.6907"><stop offset="0" stop-color="#000000"/><stop offset="1" stop-color="#0e0e0e"/></linearGradient><linearGradient x1="133.0058" y1="579.8962" x2="133.4069" y2="590.7628" gradientUnits="userSpaceOnUse" id="color-2-,0,0,1,-177.85282,158.6907"><stop offset="0" stop-color="#000000"/><stop offset="1" stop-color="#666666"/></linearGradient><linearGradient x1="142.9485" y1="547.8189" x2="143.5515" y2="564.1541" gradientUnits="userSpaceOnUse" id="color-4-,0,0,1,-177.85282,158.6907"><stop offset="0" stop-color="#292929"/><stop offset="1" stop-color="#292929"/></linearGradient><linearGradient x1="10.325" y1="522.0508" x2="77.4501" y2="547.3182" gradientUnits="userSpaceOnUse" id="color-5-,0,0,1,-177.85282,158.6907"><stop offset="0" stop-color="#000000"/><stop offset="1" stop-color="#0e0e0e"/></linearGradient><linearGradient x1="36.0509" y1="555.2719" x2="32.4736" y2="564.7754" gradientUnits="userSpaceOnUse" id="color-6-,0,0,1,-177.85282,158.6907"><stop offset="0" stop-color="#000000"/><stop offset="1" stop-color="#666666"/></linearGradient><linearGradient x1="119.9139" y1="329.9389" x2="125.2943" y2="378.0972" gradientUnits="userSpaceOnUse" id="color-8-,0,0,1,-177.85282,158.6907"><stop offset="0" stop-color="#ffffff"/><stop offset="1" stop-color="#cccccc"/></linearGradient><radialGradient cx="46.9337" cy="378.1317" r="3.2781" gradientUnits="userSpaceOnUse" id="color-9-,0,0,1,-177.85282,158.6907"><stop offset="0" stop-color="#cccccc"/><stop offset="1" stop-color="#7f7f7f"/></radialGradient><radialGradient cx="44.9064" cy="380.9286" r="2.8327" gradientUnits="userSpaceOnUse" id="color-10-,0,0,1,-177.85282,158.6907"><stop offset="0" stop-color="#cccccc"/><stop offset="1" stop-color="#7f7f7f"/></radialGradient><radialGradient cx="43.7312" cy="384.7779" r="3.5144" gradientUnits="userSpaceOnUse" id="color-11-,0,0,1,-177.85282,158.6907"><stop offset="0" stop-color="#cccccc"/><stop offset="1" stop-color="#7f7f7f"/></radialGradient><radialGradient cx="45.4852" cy="388.356" r="3.5144" gradientUnits="userSpaceOnUse" id="color-12-,0,0,1,-177.85282,158.6907"><stop offset="0" stop-color="#cccccc"/><stop offset="1" stop-color="#7f7f7f"/></radialGradient><radialGradient cx="48.4275" cy="391.6833" r="3.3044" gradientUnits="userSpaceOnUse" id="color-13-,0,0,1,-177.85282,158.6907"><stop offset="0" stop-color="#cccccc"/><stop offset="1" stop-color="#7f7f7f"/></radialGradient><radialGradient cx="49.9571" cy="395.5519" r="3.0427" gradientUnits="userSpaceOnUse" id="color-14-,0,0,1,-177.85282,158.6907"><stop offset="0" stop-color="#cccccc"/><stop offset="1" stop-color="#7f7f7f"/></radialGradient><radialGradient cx="51.4184" cy="398.8058" r="3.4884" gradientUnits="userSpaceOnUse" id="color-15-,0,0,1,-177.85282,158.6907"><stop offset="0" stop-color="#cccccc"/><stop offset="1" stop-color="#7f7f7f"/></radialGradient><radialGradient cx="52.3035" cy="403.0831" r="3.2784" gradientUnits="userSpaceOnUse" id="color-16-,0,0,1,-177.85282,158.6907"><stop offset="0" stop-color="#cccccc"/><stop offset="1" stop-color="#7f7f7f"/></radialGradient><radialGradient cx="53.3214" cy="406.9145" r="3.0684" gradientUnits="userSpaceOnUse" id="color-17-,0,0,1,-177.85282,158.6907"><stop offset="0" stop-color="#cccccc"/><stop offset="1" stop-color="#7f7f7f"/></radialGradient><radialGradient cx="55.3177" cy="410.4658" r="3.7238" gradientUnits="userSpaceOnUse" id="color-18-,0,0,1,-177.85282,158.6907"><stop offset="0" stop-color="#cccccc"/><stop offset="1" stop-color="#7f7f7f"/></radialGradient><radialGradient cx="58.5522" cy="413.359" r="3.3574" gradientUnits="userSpaceOnUse" id="color-19-,0,0,1,-177.85282,158.6907"><stop offset="0" stop-color="#cccccc"/><stop offset="1" stop-color="#7f7f7f"/></radialGradient><radialGradient cx="60.3983" cy="416.2636" r="3.6984" gradientUnits="userSpaceOnUse" id="color-20-,0,0,1,-177.85282,158.6907"><stop offset="0" stop-color="#cccccc"/><stop offset="1" stop-color="#7f7f7f"/></radialGradient><radialGradient cx="50.0497" cy="371.6501" r="5.5437" gradientUnits="userSpaceOnUse" id="color-21-,0,0,1,-177.85282,158.6907"><stop offset="0" stop-color="#cccccc"/><stop offset="1" stop-color="#7f7f7f"/></radialGradient><radialGradient cx="59.5985" cy="372.9545" r="3.2781" gradientUnits="userSpaceOnUse" id="color-22-,0,0,1,-177.85282,158.6907"><stop offset="0" stop-color="#cccccc"/><stop offset="1" stop-color="#7f7f7f"/></radialGradient><radialGradient cx="61.8306" cy="376.7684" r="3.2781" gradientUnits="userSpaceOnUse" id="color-23-,0,0,1,-177.85282,158.6907"><stop offset="0" stop-color="#cccccc"/><stop offset="1" stop-color="#7f7f7f"/></radialGradient><radialGradient cx="63.0719" cy="381.1445" r="3.2781" gradientUnits="userSpaceOnUse" id="color-24-,0,0,1,-177.85282,158.6907"><stop offset="0" stop-color="#cccccc"/><stop offset="1" stop-color="#7f7f7f"/></radialGradient><radialGradient cx="63.62" cy="386.0495" r="3.2781" gradientUnits="userSpaceOnUse" id="color-25-,0,0,1,-177.85282,158.6907"><stop offset="0" stop-color="#cccccc"/><stop offset="1" stop-color="#7f7f7f"/></radialGradient><radialGradient cx="64.2833" cy="390.6406" r="3.2781" gradientUnits="userSpaceOnUse" id="color-26-,0,0,1,-177.85282,158.6907"><stop offset="0" stop-color="#cccccc"/><stop offset="1" stop-color="#7f7f7f"/></radialGradient><radialGradient cx="64.5173" cy="395.4301" r="3.2781" gradientUnits="userSpaceOnUse" id="color-27-,0,0,1,-177.85282,158.6907"><stop offset="0" stop-color="#cccccc"/><stop offset="1" stop-color="#7f7f7f"/></radialGradient><radialGradient cx="64.4377" cy="400.1042" r="3.2781" gradientUnits="userSpaceOnUse" id="color-28-,0,0,1,-177.85282,158.6907"><stop offset="0" stop-color="#cccccc"/><stop offset="1" stop-color="#7f7f7f"/></radialGradient><radialGradient cx="64.622" cy="404.448" r="3.2781" gradientUnits="userSpaceOnUse" id="color-29-,0,0,1,-177.85282,158.6907"><stop offset="0" stop-color="#cccccc"/><stop offset="1" stop-color="#7f7f7f"/></radialGradient><radialGradient cx="64.7075" cy="409.2542" r="3.2781" gradientUnits="userSpaceOnUse" id="color-30-,0,0,1,-177.85282,158.6907"><stop offset="0" stop-color="#cccccc"/><stop offset="1" stop-color="#7f7f7f"/></radialGradient><radialGradient cx="63.9011" cy="414.16" r="3.2781" gradientUnits="userSpaceOnUse" id="color-31-,0,0,1,-177.85282,158.6907"><stop offset="0" stop-color="#cccccc"/><stop offset="1" stop-color="#7f7f7f"/></radialGradient><radialGradient cx="63.9462" cy="429.3104" r="3.3574" gradientUnits="userSpaceOnUse" id="color-32-,0,0,1,-177.85282,158.6907"><stop offset="0" stop-color="#cccccc"/><stop offset="1" stop-color="#7f7f7f"/></radialGradient><radialGradient cx="63.9429" cy="433.1742" r="3.6984" gradientUnits="userSpaceOnUse" id="color-33-,0,0,1,-177.85282,158.6907"><stop offset="0" stop-color="#cccccc"/><stop offset="1" stop-color="#7f7f7f"/></radialGradient><radialGradient cx="65.5667" cy="437.1497" r="3.2781" gradientUnits="userSpaceOnUse" id="color-34-,0,0,1,-177.85282,158.6907"><stop offset="0" stop-color="#cccccc"/><stop offset="1" stop-color="#7f7f7f"/></radialGradient><linearGradient x1="142.1509" y1="382.8557" x2="144.5999" y2="414.5026" gradientUnits="userSpaceOnUse" id="color-35-,0,0,1,-177.85282,158.6907"><stop offset="0" stop-color="#ff0000"/><stop offset="1" stop-color="#ff0000" stop-opacity="0"/></linearGradient><linearGradient x1="136.5877" y1="383.3231" x2="142.1339" y2="382.7035" gradientUnits="userSpaceOnUse" id="color-36-,0,0,1,-177.85282,158.6907"><stop offset="0" stop-color="#ff0000"/><stop offset="1" stop-color="#ff0000" stop-opacity="0"/></linearGradient><linearGradient x1="98.6804" y1="360.6376" x2="82.5582" y2="362.0386" gradientUnits="userSpaceOnUse" id="color-37-,0,0,1,-177.85282,158.6907"><stop offset="0" stop-color="#7f7f7f"/><stop offset="1" stop-color="#b2b2b2"/></linearGradient><linearGradient x1="101.6976" y1="371.2523" x2="90.1037" y2="372.5476" gradientUnits="userSpaceOnUse" id="color-38-,0,0,1,-177.85282,158.6907"><stop offset="0" stop-color="#000000"/><stop offset="1" stop-color="#353935"/></linearGradient><linearGradient x1="80.1184" y1="373.6632" x2="90.5229" y2="372.5008" gradientUnits="userSpaceOnUse" id="color-39-,0,0,1,-177.85282,158.6907"><stop offset="0" stop-color="#000000"/><stop offset="1" stop-color="#353935"/></linearGradient><radialGradient cx="66.9938" cy="368.6508" r="26.2546" gradientUnits="userSpaceOnUse" id="color-40-,0,0,1,-177.85282,158.6907"><stop offset="0" stop-color="#666666"/><stop offset="1" stop-color="#000000"/></radialGradient><radialGradient cx="66.4201" cy="377.4812" r="11.2826" gradientUnits="userSpaceOnUse" id="color-41-,0,0,1,-177.85282,158.6907"><stop offset="0" stop-color="#370000"/><stop offset="1" stop-color="#000000"/></radialGradient><radialGradient cx="71.8825" cy="380.5663" r="9.6234" gradientUnits="userSpaceOnUse" id="color-42-,0,0,1,-177.85282,158.6907"><stop offset="0" stop-color="#370000"/><stop offset="1" stop-color="#000000"/></radialGradient><radialGradient cx="64.6073" cy="371.1313" r="8.9043" gradientUnits="userSpaceOnUse" id="color-43-,0,0,1,-177.85282,158.6907"><stop offset="0" stop-color="#370000"/><stop offset="1" stop-color="#000000"/></radialGradient><radialGradient cx="75.1901" cy="374.297" r="7.8307" gradientUnits="userSpaceOnUse" id="color-44-,0,0,1,-177.85282,158.6907"><stop offset="0" stop-color="#370000"/><stop offset="1" stop-color="#000000"/></radialGradient><radialGradient cx="70.7202" cy="369.1234" r="5.8933" gradientUnits="userSpaceOnUse" id="color-45-,0,0,1,-177.85282,158.6907"><stop offset="0" stop-color="#370000"/><stop offset="1" stop-color="#000000"/></radialGradient><radialGradient cx="70.2849" cy="373.3734" r="2.8746" gradientUnits="userSpaceOnUse" id="color-46-,0,0,1,-177.85282,158.6907"><stop offset="0" stop-color="#ff0000"/><stop offset="1" stop-color="#000000"/></radialGradient></defs><g><g data-paper-data="{&quot;isPaintingLayer&quot;:true}" fill-rule="nonzero" stroke-linejoin="miter" stroke-miterlimit="10" stroke-dasharray="" stroke-dashoffset="0" style="mix-blend-mode: normal"><path d="M 120.7394 469.2657 C 127.3319 461.5122 147.4825 453.1131 149.9218 462.6138 C 157.4376 492.0319 154.7328 525.7 142.7978 553.5284 C 138.5806 563.3822 116.0564 561.2158 110.6462 551.9464 C 102.3346 537.0845 111.2179 520.6267 113.1649 505.1403 C 114.7086 492.7876 112.8032 478.3168 120.7393 469.2657 Z " data-paper-data="{&quot;origRot&quot;:0}" fill="#ffffff" stroke="#000000" stroke-width="1" stroke-linecap="round"/><path d="M 128.18 381.4698 C 128.18 381.4698 141.945 398.0324 146.913 418.671 C 150.672 434.2873 154.0789 467.2422 154.0789 467.2422 L 116.0089 464.717 C 116.0089 464.717 104.6336 439.1762 100.4985 422.0474 C 96.3634 404.9185 88.3952 378.8417 88.3952 378.8417 Z " data-paper-data="{&quot;origRot&quot;:0}" fill="#ffffff" stroke="#000000" stroke-width="1" stroke-linecap="round"/><g data-paper-data="{&quot;origRot&quot;:0}"><path d="M 97.5741 590.5694 C 95.3386 589.9244 96.5486 586.5814 96.5493 584.5171 C 97.2367 575.9591 97.4999 567.5257 98.8784 559.1088 C 99.8153 553.4008 101.742 535.3533 107.256 527.2269 C 110.4596 522.5057 108.7054 541.8315 114.3078 544.596 C 124.5667 549.6793 137.69 544.3997 148.5579 547.659 C 151.274 548.4723 146.1347 561.9898 148.6685 563.6817 C 154.2714 567.4143 163.1546 563.7977 168.0694 568.2544 C 171.3095 571.1927 170.1138 577.2982 169.7356 581.8157 C 169.5195 584.3847 168.4561 587.8074 168.4561 587.8074 C 168.4561 587.8074 106.4963 593.1345 97.5741 590.5694 Z " data-paper-data="{&quot;origPos&quot;:null}" fill="url(#color-1-,0,0,1,-177.85282,158.6907)" stroke-width="1" stroke-linecap="round" stroke="none"/><path d="M 97.9458 590.7117 C 94.6488 588.7777 97.3205 581.2134 97.3205 581.2134 C 97.3205 581.2134 110.2174 583.3198 124.2169 583.3698 C 139.6174 583.4248 170.0355 581.5792 170.0355 581.5792 C 170.0355 581.5792 169.9155 587.8609 167.2602 588.3763 C 164.6049 588.8918 140.0096 590.9964 124.1506 590.8975 C 115.5009 590.8449 100.3532 592.1238 97.9459 590.7116 Z " data-paper-data="{&quot;origPos&quot;:null}" fill="url(#color-2-,0,0,1,-177.85282,158.6907)" stroke-width="1.16035" stroke-linecap="round" stroke="none"/><g data-paper-data="{&quot;origPos&quot;:null}" stroke-linecap="butt"><g data-paper-data="{&quot;origPos&quot;:null}"><path d="M284.54186,425.24441c0,0 3.94282,-10.30854 5.02031,-17.1008c1.31024,-8.25915 4.74425,-21.21426 4.74425,-21.21426c0,0 0.52505,-0.06598 1.08454,0.14059c0.79128,0.29216 1.84175,1.15714 1.84175,1.15714l-8.19724,37.2531z" data-paper-data="{&quot;origPos&quot;:null}" fill="url(#color-3)" stroke-width="0" stroke="none" transform="matrix(1,0,0,1,-177.85282,158.6907)"/><path d="M 113.648 564.5659 C 113.936 564.6577 113.9081 564.9127 113.8905 564.9958 C 113.9658 565.2046 114.0357 565.4053 114.0722 565.6261 C 114.4231 567.7482 114.529 568.3904 112.9834 569.8358 C 111.9916 570.7392 113.6116 570.5467 113.3571 571.9823 C 113.3048 572.2779 112.2738 572.8894 112.0575 573.1585 C 110.7553 574.7316 112.8871 575.2193 111.4435 577.0153 C 110.5354 578.1124 108.9373 578.9163 110.5762 580.2335 C 111.0538 581.6631 108.8433 582.2863 108.0425 583.2828 C 108.0425 583.2828 107.8149 583.5659 107.5317 583.3384 C 107.2485 583.1108 107.4761 582.8276 107.4761 582.8276 C 108.0071 582.1669 109.7861 580.822 110.0813 580.7676 C 108.1763 579.2001 109.8675 577.8807 110.8772 576.5601 C 111.8732 575.3209 110.2289 574.3544 111.4912 572.7034 C 111.7568 572.3729 112.3368 571.6453 112.6797 571.3519 C 112.2381 571.1114 111.4864 570.2803 112.4871 569.3051 C 113.3793 568.4708 113.5546 566.95 113.3553 565.7448 C 113.322 565.5435 113.26 565.389 113.1907 565.1971 L 113.1916 564.8019 C 113.1916 564.8019 113.3018 564.4557 113.648 564.566 Z " data-paper-data="{&quot;origPos&quot;:null,&quot;origRot&quot;:0}" fill="#000000" stroke-width="0.5" stroke="none"/><path d="M 113.9408 566.3685 C 113.647 566.2973 113.657 566.0409 113.6685 565.9568 C 113.5788 565.7539 113.495 565.5585 113.443 565.3408 C 112.9436 563.2487 112.7928 562.6154 114.2329 561.065 C 115.1587 560.094 113.5562 560.4 113.709 558.95 C 113.7405 558.6516 114.7258 557.969 114.9227 557.6853 C 116.1109 556.0245 113.9501 555.688 115.2638 553.7948 C 116.0924 552.6366 117.63 551.7222 115.9025 550.5235 C 115.3255 549.1312 117.4866 548.3539 118.2153 547.3035 C 118.2153 547.3035 118.4224 547.005 118.7209 547.2121 C 119.0195 547.4192 118.8123 547.7177 118.8123 547.7177 C 118.3291 548.4142 116.6492 549.8809 116.3585 549.9559 C 118.3691 551.3855 116.7751 552.8206 115.8608 554.209 C 114.9544 555.5153 116.6627 556.3637 115.5196 558.0995 C 115.278 558.4477 114.7506 559.2144 114.4291 559.5313 C 114.8866 559.7401 115.6948 560.5162 114.7653 561.5594 C 113.934 562.4545 113.8662 563.9839 114.1498 565.1721 C 114.1971 565.3706 114.2699 565.5203 114.3526 565.7068 L 114.3795 566.101 C 114.3795 566.101 114.2939 566.4541 113.9407 566.3685 Z " data-paper-data="{&quot;origPos&quot;:null,&quot;index&quot;:null}" fill="#000000" stroke-width="0.5" stroke="none"/></g><path d="M288.92659,391.70172l5.42521,-5.35459l2.536,0.99972l-3.19549,6.52185z" data-paper-data="{&quot;origPos&quot;:null}" fill="#333333" stroke-width="0" stroke="none" transform="matrix(1,0,0,1,-177.85282,158.6907)"/></g><g data-paper-data="{&quot;origPos&quot;:null}" stroke-linecap="butt"><path d="M 147.0066 562.5303 C 147.0111 562.6003 147.0071 562.663 146.9963 562.7191 C 147.0619 562.8044 147.1166 562.9274 147.1456 563.104 C 147.26 563.8017 146.7432 563.9401 146.7432 563.9401 C 144.6673 564.4959 142.2217 563.0843 140.2238 563.8374 C 140.1146 563.8667 140.0053 563.896 139.896 563.9252 L 139.345 563.9078 C 139.2346 563.9269 139.0999 563.9068 138.9767 563.7691 C 138.8917 563.6921 138.8145 563.572 138.7811 563.3846 C 138.7332 563.2025 138.7499 563.0476 138.7908 562.9241 C 138.8401 562.7195 138.9491 562.61 139.0521 562.5514 C 140.1472 561.6549 141.1354 560.6569 142.1754 559.6842 C 141.764 559.253 141.3806 558.8024 141.0464 558.331 L 140.533 558.2971 C 140.2407 558.2777 140.0102 557.944 140.0181 557.5516 C 140.0232 557.301 140.1241 557.0872 140.2726 556.9703 L 140.7629 556.5711 L 140.7925 556.6353 C 141.1736 556.3529 141.7026 555.6838 142.2772 554.9579 C 141.8468 554.6673 141.4207 554.3509 140.9775 554.1439 L 140.9771 554.1461 L 140.3409 553.8887 C 140.1067 553.8013 139.9364 553.5067 139.9433 553.1686 C 139.9483 552.9181 140.0493 552.7043 140.1978 552.5874 L 140.6881 552.1881 L 140.797 552.4244 C 141.0632 551.9675 141.4256 551.5527 141.8435 551.1788 C 141.2493 550.6526 140.7358 550.1193 140.4138 549.6531 C 140.462 547.3794 144.6148 547.3755 146.4845 548.7455 L 146.6541 548.7001 L 146.7314 548.3302 L 147.3676 548.5876 C 147.6018 548.675 147.7721 548.9696 147.7652 549.3077 C 147.7584 549.6459 147.5768 549.9172 147.3397 549.9734 C 147.1958 550.0119 146.9266 550.084 146.6948 550.1461 C 146.5638 550.1812 146.4447 550.213 146.367 550.2338 C 145.7922 550.2359 145.004 550.7784 144.1908 551.3903 C 144.8074 551.8065 145.3951 552.1425 145.8359 552.3208 L 146.1486 552.4474 C 146.3828 552.5348 146.5531 552.8293 146.5463 553.1674 C 146.5384 553.5598 146.295 553.8623 146.0027 553.8429 L 145.3515 553.7999 L 145.3522 553.7663 C 145.13 554.0443 144.877 554.3314 144.6058 554.621 C 147.3147 555.9624 147.1275 557.2253 144.3074 559.5217 C 144.2698 559.5523 144.2324 559.583 144.195 559.6139 C 145.0837 560.4905 145.9276 561.3788 146.4073 561.7158 L 146.7285 561.9559 C 146.7285 561.9559 146.961 561.8204 147.0064 562.5303 Z M 143.0921 560.579 C 142.4645 561.1542 141.8563 561.7476 141.2413 562.3264 C 142.6826 562.3451 144.1638 562.7887 145.5925 562.693 C 144.8086 562.0466 143.9271 561.3455 143.092 560.579 Z M 145.2833 556.5276 C 144.7111 556.2991 144.0288 555.9035 143.572 555.6636 C 142.868 556.3424 142.1458 556.9919 141.5718 557.526 C 142.0159 557.6714 142.6157 558.138 143.251 558.7141 C 143.413 558.5746 143.5773 558.4366 143.7444 558.3005 C 144.1689 557.9548 144.7676 557.1177 145.2834 556.5276 Z M 144.0092 549.7436 C 143.1108 549.713 142.2296 549.5435 141.6867 549.3117 C 142.019 549.668 142.4276 550.0417 142.8661 550.4021 C 143.2386 550.1585 143.626 549.9392 144.0092 549.7436 Z M 144.0965 552.8867 C 143.7764 552.6802 143.4433 552.4492 143.1117 552.2036 C 142.5807 552.5899 142.0757 552.9146 141.6517 553.0392 C 142.1353 553.3369 142.6083 553.6806 143.0991 553.9409 C 143.4385 553.5376 143.7773 553.1658 144.0965 552.8867 Z " data-paper-data="{&quot;origPos&quot;:null,&quot;origRot&quot;:0}" fill="url(#color-4-,0,0,1,-177.85282,158.6907)" stroke-width="0.5" stroke="none"/><path d="M 148.3046 565.6817 C 148.0897 565.7866 147.9118 565.784 147.7703 565.7343 L 147.7999 565.7614 C 144.904 565.8683 142.1374 566.1071 139.2923 565.5064 C 134.8025 564.5584 138.5293 559.4471 138.4254 556.6317 C 138.5275 553.7526 139.0966 551.0741 138.9856 548.0664 C 138.9856 548.0664 138.9593 547.3554 139.6704 547.3291 C 140.3815 547.3029 140.4077 548.014 140.4077 548.014 C 140.4845 550.0953 139.3268 555.0187 139.8475 556.5793 C 139.9552 559.4964 136.8593 563.5383 139.5863 564.1141 C 142.3126 564.6898 144.9655 564.442 147.7474 564.3393 L 148.6319 564.7303 C 148.6319 564.7303 148.944 565.3698 148.3045 565.6818 Z " data-paper-data="{&quot;origPos&quot;:null}" fill="#1a1a1a" stroke-width="0.5" stroke="none"/></g></g><g data-paper-data="{&quot;origRot&quot;:0}" stroke-linecap="round"><path d="M 154.3702 460.2108 C 156.6728 466.9801 157.4916 477.7192 151.2575 481.6435 C 141.7619 487.8717 127.891 488.3962 116.946 484.3731 C 111.8151 482.4263 114.9777 473.5611 114.1805 468.1306 C 113.9272 463.532 110.3231 457.3335 113.8019 454.3243 C 120.7459 448.3194 131.2412 444.9814 139.9855 446.3544 C 146.8932 447.2545 152.2372 453.949 154.3702 460.2109 Z " data-paper-data="{&quot;origPos&quot;:null}" fill="#666666" stroke="#000000" stroke-width="1.5"/><path d="M 153.4834 460.7863 C 155.3544 466.2864 156.0197 475.0117 150.9546 478.2 C 143.2396 483.26 131.9696 483.6862 123.0773 480.4178 C 118.9087 478.836 121.4781 471.6331 120.8302 467.221 C 120.6246 463.4849 117.6963 458.4487 120.5226 456.0036 C 126.1646 451.125 134.6916 448.4128 141.7962 449.5285 C 147.4085 450.2597 151.7505 455.6989 153.4834 460.7864 Z " data-paper-data="{&quot;origPos&quot;:null}" fill="#ffffff" stroke="none" stroke-width="0.81248"/></g><path d="M 96.4717 471.4463 C 105.5917 471.1432 120.1183 483.9791 115.2631 492.29 C 101.2287 516.278 77.3587 536.0647 51.4757 546.1374 C 41.2758 550.102 22.2168 537.1643 23.9749 526.6143 C 26.5001 511.6034 46.3428 503.7638 58.9158 494.0149 C 70.1219 485.3711 81.6754 471.8753 96.4717 471.4463 Z " data-paper-data="{&quot;origRot&quot;:0}" fill="#ffffff" stroke="#000000" stroke-width="1" stroke-linecap="round"/><path d="M 55.7526 377.3154 C 55.7526 377.3154 82.7511 345.0736 96.3106 359.552 C 109.87 374.0303 129.087 423.4163 130.2991 456.914 C 130.6845 467.6292 110.7349 475.4933 101.0585 470.7462 C 89.2148 464.5771 88.7213 452.3219 88.7213 452.3219 C 88.7213 452.3219 78.5404 424.1735 73.343 413.5042 C 65.3074 396.867 55.7527 377.3153 55.7527 377.3153 Z " data-paper-data="{&quot;origRot&quot;:0}" fill="#ffffff" stroke="#000000" stroke-width="1" stroke-linecap="round"/><g data-paper-data="{&quot;origRot&quot;:0}"><path d="M 0.2399 551.2858 C -1.1907 549.3778 4.1379 540.8486 6.663 537.6083 C 12.1686 530.5388 18.008 523.0231 24.5079 516.9288 C 30.9551 510.885 37.9474 501.918 45.3012 500.9733 C 48.3179 500.5846 37.5643 511.8906 40.8344 515.7954 C 48.1692 524.5459 62.1434 524.28 71.1398 531.8387 C 73.3885 533.7274 61.9924 544.198 62.6701 547.9353 C 63.4627 552.1946 70.3765 553.3544 71.4732 557.5537 C 72.6144 561.9218 70.1571 566.4299 68.6133 570.5701 C 67.8114 572.6418 64.1299 575.5579 64.1299 575.5579 C 64.1299 575.5579 36.3639 566.7157 22.7413 560.9055 C 15.3109 557.7378 1.8034 553.3709 0.2399 551.2858 Z " data-paper-data="{&quot;origPos&quot;:null}" fill="url(#color-5-,0,0,1,-177.85282,158.6907)" stroke-width="1.16035" stroke-linecap="round" stroke="none"/><path d="M 0.8065 551.4991 C -1.3348 548.6431 3.6968 543.0931 3.6968 543.0931 C 3.6968 543.0931 14.0436 549.5629 26.0825 554.6596 C 39.3262 560.2665 68.4801 570.52 68.4801 570.52 C 68.4801 570.52 64.8365 575.4076 62.3636 574.893 C 59.8907 574.3783 36.9305 566.929 23.3079 561.1188 C 15.8775 557.9511 2.37 553.5842 0.8065 551.499 Z " data-paper-data="{&quot;origPos&quot;:null}" fill="url(#color-6-,0,0,1,-177.85282,158.6907)" stroke-width="1.16035" stroke-linecap="round" stroke="none"/><g data-paper-data="{&quot;origPos&quot;:null}" stroke-linecap="butt"><g data-paper-data="{&quot;origPos&quot;:null}"><path d="M193.6146,391.74526c0,0 8.11417,-8.49921 11.96766,-14.725c4.68571,-7.57043 13.38956,-18.87768 13.38956,-18.87768c0,0 0.5427,0.15131 1.00705,0.5844c0.65669,0.61253 1.33218,1.89421 1.33218,1.89421l-23.38117,33.20507z" data-paper-data="{&quot;origPos&quot;:null}" fill="url(#color-7)" stroke-width="0" stroke="none" transform="matrix(1,0,0,1,-177.85282,158.6907)"/><path d="M 30.5666 534.2814 C 30.8116 534.49 30.6792 534.7289 30.6278 534.8033 C 30.6159 535.0393 30.6018 535.2651 30.5467 535.497 C 30.0179 537.7251 29.8576 538.3994 27.7451 539.1823 C 26.3995 539.6612 28.0694 540.1389 27.2286 541.4439 C 27.0556 541.7125 25.7916 541.8886 25.4684 542.0639 C 23.5424 543.0725 25.4349 544.4287 23.2782 545.5982 C 21.935 546.3016 20.035 546.4333 21.1021 548.4012 C 20.9827 550.0014 18.5557 549.7037 17.3592 550.3525 C 17.3592 550.3525 17.0192 550.5368 16.8348 550.1968 C 16.6505 549.8568 16.9905 549.6724 16.9905 549.6724 C 17.7838 549.2422 20.0842 548.6538 20.3964 548.7219 C 19.171 546.3987 21.3745 545.7992 22.9095 544.9181 C 24.3976 544.1112 23.1807 542.4854 25.0997 541.3838 C 25.4965 541.1686 26.3655 540.693 26.823 540.5459 C 26.4883 540.128 26.0924 539.0026 27.4762 538.4569 C 28.6957 538.0049 29.4937 536.5837 29.7941 535.3183 C 29.8442 535.107 29.847 534.9297 29.8578 534.7128 L 30.0213 534.3252 C 30.0213 534.3252 30.2721 534.0306 30.5666 534.2814 Z " data-paper-data="{&quot;origPos&quot;:null,&quot;origRot&quot;:0}" fill="#000000" stroke-width="0.5" stroke="none"/><path d="M 30.1122 536.1719 C 29.853 535.9811 29.9683 535.7334 30.0143 535.6556 C 30.0096 535.4194 30.0078 535.1931 30.0464 534.9579 C 30.4171 532.6981 30.5297 532.0143 32.5818 531.0846 C 33.8904 530.5122 32.191 530.1532 32.9378 528.7924 C 33.0916 528.5122 34.34 528.2476 34.65 528.05 C 36.5003 526.9083 34.5171 525.6886 36.5862 524.3704 C 37.8765 523.5741 39.7626 523.3091 38.5596 521.4212 C 38.5661 519.8165 41.008 519.9427 42.1559 519.2114 C 42.1559 519.2114 42.4821 519.0035 42.69 519.3297 C 42.8979 519.6559 42.5716 519.8638 42.5716 519.8638 C 41.8105 520.3487 39.5573 521.0976 39.2412 521.0516 C 40.627 523.2828 38.4711 524.0359 37.0019 525.0229 C 35.5743 525.9324 36.9025 527.4686 35.0658 528.7025 C 34.6852 528.945 33.8517 529.4806 33.4057 529.6595 C 33.769 530.0529 34.2432 531.1476 32.9011 531.7893 C 31.7164 532.326 31.0204 533.7999 30.8099 535.0833 C 30.7747 535.2976 30.7845 535.4746 30.7889 535.6917 L 30.653 536.0899 C 30.653 536.0899 30.4237 536.4013 30.1122 536.1719 Z " data-paper-data="{&quot;origPos&quot;:null,&quot;index&quot;:null}" fill="#000000" stroke-width="0.5" stroke="none"/></g><path d="M211.72519,360.61431l7.53083,-3.02479l2.0786,2.02538l-5.82186,5.08862z" data-paper-data="{&quot;origPos&quot;:null}" fill="#333333" stroke-width="0" stroke="none" transform="matrix(1,0,0,1,-177.85282,158.6907)"/></g><g data-paper-data="{&quot;origPos&quot;:null}" stroke-linecap="butt"><path d="M 62.6769 547.3097 C 62.6528 547.3793 62.6235 547.4385 62.5903 547.4885 C 62.6192 547.5978 62.6223 547.7393 62.5786 547.9221 C 62.4061 548.6449 61.849 548.5691 61.849 548.5691 C 59.6112 548.2644 57.8143 545.9026 55.5719 545.821 C 55.454 545.8049 55.3363 545.7889 55.2185 545.7729 L 54.6914 545.5322 C 54.5767 545.5058 54.4543 545.4316 54.3909 545.2481 C 54.3397 545.1389 54.3137 544.9911 54.3575 544.7959 C 54.385 544.6 54.4641 544.4566 54.554 544.3535 C 54.6849 544.1754 54.835 544.1135 54.9587 544.0985 C 56.3843 543.6745 57.7476 543.1087 59.1508 542.5884 C 58.9272 542.0033 58.7386 541.4109 58.6062 540.8182 L 58.1224 540.5767 C 57.847 540.4393 57.7591 540.0221 57.9262 539.6451 C 58.0329 539.4043 58.2177 539.2381 58.4091 539.1851 L 59.0465 538.9973 L 59.0492 539.0716 C 59.5332 538.9527 60.3178 538.5191 61.1697 538.049 C 60.8706 537.5925 60.5861 537.1127 60.2407 536.7321 L 60.2394 536.7339 L 59.7273 536.226 C 59.5358 536.0462 59.4905 535.6915 59.6345 535.3666 C 59.7412 535.1258 59.9259 534.9596 60.1173 534.9066 L 60.7547 534.7188 L 60.7644 534.9921 C 61.208 534.6574 61.7278 534.4026 62.2846 534.21 C 61.9225 533.4586 61.6415 532.7331 61.5188 532.1504 C 62.4892 529.9662 66.5158 531.6496 67.7714 533.737 L 67.9543 533.7619 L 68.1794 533.4348 L 68.6915 533.9427 C 68.883 534.1225 68.9283 534.4772 68.7844 534.8022 C 68.6404 535.1271 68.3542 535.3163 68.1015 535.2745 C 67.9464 535.2533 67.6562 535.2139 67.4063 535.1798 C 67.2651 535.1606 67.1367 535.1431 67.0529 535.1317 C 66.4949 534.9002 65.5106 535.1058 64.4738 535.3685 C 64.9024 536.0224 65.3355 536.5868 65.6903 536.9387 L 65.942 537.1884 C 66.1335 537.3682 66.1788 537.7229 66.0349 538.0478 C 65.8678 538.425 65.5091 538.6192 65.2337 538.4818 L 64.6199 538.1754 L 64.6342 538.1431 C 64.3059 538.3224 63.9441 538.4978 63.5635 538.6684 C 65.6442 541.0691 64.9495 542.217 61.2834 543.2971 C 61.2346 543.3115 61.1857 543.326 61.137 543.3408 C 61.6421 544.5514 62.0993 545.7552 62.4273 546.2767 L 62.641 546.64 C 62.641 546.64 62.9214 546.6031 62.6771 547.3096 Z M 59.6756 543.8281 C 58.8336 544.1307 58.003 544.4587 57.1718 544.7699 C 58.5611 545.3735 59.8166 546.4052 61.2402 546.8928 C 60.7431 545.9478 60.1735 544.9102 59.6755 543.828 Z M 63.4453 540.7916 C 62.9834 540.3376 62.483 539.677 62.1377 539.2589 C 61.1796 539.6309 60.2156 539.9669 59.4423 540.2514 C 59.8137 540.5728 60.2055 541.2686 60.5872 542.0851 C 60.8009 542.0157 61.0162 541.9487 61.2335 541.8847 C 61.7854 541.7221 62.7057 541.154 63.4453 540.7916 Z M 64.9664 533.6988 C 64.1081 533.3041 63.3228 532.7818 62.8908 532.3366 C 63.068 532.8169 63.3123 533.3451 63.591 533.8726 C 64.051 533.7878 64.5156 533.7327 64.9664 533.6988 Z M 63.7742 536.7805 C 63.5477 536.4503 63.3187 536.0911 63.0972 535.7183 C 62.4256 535.877 61.8041 535.9865 61.3426 535.9351 C 61.6904 536.4201 62.0092 536.9454 62.3791 537.3971 C 62.872 537.1441 63.3514 536.9213 63.7742 536.7805 Z " data-paper-data="{&quot;origPos&quot;:null,&quot;origRot&quot;:0}" fill="#292929" stroke-width="0.5" stroke="none"/><path d="M 62.6546 550.8915 C 62.4038 550.9058 62.2323 550.8311 62.1153 550.7255 L 62.1331 550.7637 C 59.2828 549.6908 56.5043 548.7983 53.9908 547.0603 C 50.0242 544.3174 55.7129 540.8774 56.756 538.1064 C 58.0247 535.3574 59.6644 532.9925 60.7787 530.0323 C 60.7787 530.0323 61.0421 529.3324 61.742 529.5959 C 62.4419 529.8593 62.1784 530.5592 62.1784 530.5592 C 61.4073 532.6077 58.2851 536.9093 58.1557 538.6334 C 57.075 541.5045 52.4323 544.1643 54.8414 545.8302 C 57.2501 547.4958 59.922 548.3334 62.6599 549.364 L 63.3584 550.1023 C 63.3584 550.1023 63.4011 550.8489 62.6545 550.8915 Z " data-paper-data="{&quot;origPos&quot;:null}" fill="#1a1a1a" stroke-width="0.5" stroke="none"/></g></g><g data-paper-data="{&quot;origRot&quot;:0}" stroke-linecap="round"><path d="M 127.8006 475.6405 C 126.1874 482.6062 121.22 492.1625 113.8539 492.2094 C 102.5014 492.4941 90.4391 485.6253 83.2613 476.4355 C 79.9283 472.0755 87.2904 466.2108 89.4766 461.1764 C 91.6862 457.1356 91.8926 449.9684 96.4352 449.246 C 105.5019 447.8056 116.1795 450.5038 122.8852 456.2815 C 128.2799 460.689 129.2903 469.1952 127.8006 475.6404 Z " data-paper-data="{&quot;origPos&quot;:null}" fill="#666666" stroke="#000000" stroke-width="1.5"/><path d="M 126.1978 475.159 C 124.8873 480.8188 120.8514 488.5831 114.8665 488.6212 C 105.6428 488.8524 95.8427 483.2717 90.0106 475.805 C 87.3027 472.2626 93.2423 467.4782 95.0603 463.4074 C 96.8141 460.1048 97.0209 454.2787 100.7142 453.7144 C 108.0611 452.5913 116.7024 454.7192 122.2044 459.4307 C 126.5245 462.9846 127.4082 469.9224 126.1977 475.159 Z " data-paper-data="{&quot;origPos&quot;:null}" fill="#ffffff" stroke="none" stroke-width="0.81248"/></g><path d="M 151.0807 306.1301 C 143.5209 307.3367 141.2801 290.6152 143.7443 282.9916 C 147.065 272.7402 158.8126 267.894 166.0739 259.5703 C 173.8725 250.657 178.5422 237.3432 189.477 232.7754 C 196.6051 229.8104 210.4301 232.7233 210.3516 239.9289 C 210.8293 253.3208 199.1239 264.3663 190.2837 274.1968 C 179.0589 286.6815 166.7906 302.9394 151.0808 306.1303 Z " data-paper-data="{&quot;origRot&quot;:0}" fill="#000000" stroke="#000000" stroke-width="1.5" stroke-linecap="round"/><g data-paper-data="{&quot;origRot&quot;:0}"><path d="M 201.455 253.1837 C 198.3142 255.7838 190.9701 255.2119 190.0514 251.5976 C 187.6978 243.6663 192.9577 235.4505 194.17 227.4843 C 194.7142 223.9217 193.9143 220.0586 194.6359 216.6641 C 195.6178 212.0519 195.1952 205.3441 199.4982 203.3506 C 203.9981 201.2506 209.3283 205.8131 213.5896 208.4099 C 217.173 210.5954 221.7581 213.3367 223.1325 217.4823 C 223.8877 220.7828 220.8875 224.0828 218.8497 226.8327 C 216.6858 229.7539 212.2878 230.6982 210.2503 233.7532 C 206.3251 239.6503 206.8985 248.6312 201.4549 253.1837 Z " fill="#ffffff" stroke="#ffffff" stroke-width="2.41239" stroke-linecap="round"/><path d="M 195.0346 225.5045 C 195.0346 225.5045 189.97 220.0308 188.5939 216.6551 C 187.2433 213.3434 186.6278 209.616 186.7232 206.0351 C 187.0489 203.2943 187.7165 200.054 189.8227 198.3182 C 191.5453 196.9083 194.3096 198.068 196.5194 198.2879 C 197.1886 198.354 198.1528 199.4711 198.1528 199.4711 " fill="none" stroke="#353935" stroke-width="1.20619" stroke-linecap="round"/><path d="M 187.4516 213.0407 C 186.857 207.7608 187.6848 202.2036 190.6736 198.1405 C 191.8509 196.0505 196.8404 196.3114 197.4539 198.2701 C 198.3784 201.2787 194.0367 204.2607 194.1378 207.5235 C 194.2231 210.1478 196.6468 212.0828 197.2414 214.6534 C 198.0858 216.4306 198.598 218.4055 198.4053 220.4177 C 198.2815 221.8045 198.058 223.7883 196.9987 224.34 C 195.9397 224.8917 193.9344 224.2521 192.9785 223.2449 C 190.3636 220.4818 187.8637 216.8859 187.4516 213.0407 Z " fill="#353935" stroke="none" stroke-width="1.20619" stroke-linecap="round"/><path d="M 204.9418 227.5931 C 202.5911 227.1282 200.4453 225.5392 198.6361 223.5019 C 197.3285 222.3536 195.6885 220.757 195.8162 218.2528 C 196.0231 214.9197 196.991 209.8273 199.4312 208.7475 C 202.6571 207.3283 205.4056 210.7979 208.2078 212.306 C 211.503 214.1206 216.6891 214.2403 218.3566 218.6288 C 219.3266 221.2365 215.321 225.3501 212.9185 227.0448 C 210.3693 228.8435 207.4812 228.1266 204.9417 227.5931 Z " fill="#000000" stroke="none" stroke-width="1.67373" stroke-linecap="round"/><g stroke-linecap="round"><path d="M 193.0699 212.5909 C 192.2628 209.8854 194.4276 206.3058 195.522 203.4114 C 196.5917 200.6184 197.2938 196.9523 199.4218 195.3583 C 201.2803 193.9674 204.3143 194.3244 205.0416 196.4413 C 205.9243 199.0147 204.2374 202.6735 203.2846 205.6795 C 202.1134 208.8484 201.2092 213.0979 198.7471 214.684 C 196.6552 216.0323 193.6948 214.8918 193.0699 212.5909 Z " stroke-width="0.54163" fill="#353935" stroke="none"/><path d="M 199.945 215.4083 C 199.138 212.7027 201.3028 209.1231 202.3972 206.2288 C 203.4669 203.4357 204.1689 199.7696 206.2969 198.1756 C 208.1555 196.7847 211.1895 197.1417 211.9168 199.2586 C 212.7995 201.832 211.1126 205.4908 210.1597 208.4968 C 208.9885 211.6657 208.0843 215.9152 205.6223 217.5013 C 203.5304 218.8496 200.5699 217.7091 199.945 215.4083 Z " stroke-width="0.54163" fill="#353935" stroke="none"/><path d="M 207.2239 218.3519 C 206.4169 215.6463 208.5816 212.0668 209.676 209.1724 C 210.7457 206.3793 211.4478 202.7132 213.5758 201.1192 C 215.4344 199.7283 218.4683 200.0853 219.1957 202.2022 C 220.0784 204.7756 218.3915 208.4344 217.4386 211.4404 C 216.2674 214.6093 215.3632 218.8588 212.9012 220.4449 C 210.8093 221.7931 207.8489 220.6526 207.224 218.3518 Z " stroke-width="0.54163" fill="#353935" stroke="none"/><path d="M 215.09 220.4821 C 214.283 217.7766 216.4478 214.197 217.5421 211.3026 C 218.6118 208.5096 219.3139 204.8434 221.4419 203.2494 C 223.3005 201.8585 226.3345 202.2156 227.0618 204.3324 C 227.9445 206.9059 226.2576 210.5646 225.3047 213.5706 C 224.1335 216.7395 223.2293 220.9891 220.7673 222.5752 C 218.6754 223.9234 215.715 222.7829 215.09 220.4821 Z " stroke-width="0.54163" fill="#353935" stroke="none"/></g><path d="" fill="#eac18d" stroke="none" stroke-width="1.20619" stroke-linecap="butt" transform="matrix(1,0,0,1,-177.85282,158.6907)"/></g><path d="M 99.9297 239.8604 C 99.3803 234.6762 107.8943 229.0207 113.012 231.2825 C 123.9386 236.1805 129.1749 249.1898 137.6356 257.4205 C 147.02 267.2482 163.2676 272.5363 166.5407 285.5522 C 168.5097 293.4355 156.0312 303.7126 147.4308 302.219 C 135.1848 299.9703 126.8818 287.3248 118.7537 276.9677 C 110.2087 266.0629 101.303 253.6416 99.9297 239.8603 Z " data-paper-data="{&quot;origRot&quot;:0}" fill="#000000" stroke="#000000" stroke-width="1.5" stroke-linecap="round"/><path d="M 165.9323 299.9253 C 160.8213 303.9572 151.8478 307.8073 145.5068 304.6578 C 140.7791 301.691 140.5599 292.4637 143.1529 287.3368 C 148.2095 277.3558 160.5903 272.9712 167.236 263.8836 C 174.5343 254.9353 176.0812 241.7404 184.5672 233.7676 C 188.6668 229.9313 196.2409 231.2634 201.4345 233.4088 C 205.5041 235.0945 210.764 239.8814 210.4118 244.6491 C 209.9389 251.0377 204.854 256.6224 200.6581 261.5974 C 189.6557 274.6544 179.4445 289.2498 165.9323 299.9253 Z " data-paper-data="{&quot;origRot&quot;:0}" fill="#ffffff" stroke="none" stroke-width="1.00573" stroke-linecap="round"/><path d="M 99.8243 241.7609 C 99.0163 236.5507 105.0747 227.0539 109.6815 229.3619 C 120.0705 234.5753 122.5988 248.8671 131.0387 257.102 C 140.7818 267.3437 158.6415 271.246 163.9131 284.4713 C 166.7702 291.6556 155.8202 303.5862 148.2218 301.4565 C 134.2265 298.2763 125.2814 284.1382 115.9422 272.6732 C 108.6158 263.67 101.5856 253.1087 99.8243 241.7608 Z " data-paper-data="{&quot;origRot&quot;:0}" fill="#ffffff" stroke="none" stroke-width="1.00573" stroke-linecap="round"/><g data-paper-data="{&quot;origRot&quot;:0}"><path d="M233.31587,220.00329c0,0 -2.59652,-33.77088 -7.13517,-54.88487c-3.13355,-14.57738 -17.34785,-52.85511 -8.41925,-84.33816c8.92865,-31.48303 71.61845,-25.87417 79.65764,-9.90283c8.03919,15.97137 5.40248,72.17472 5.94189,84.6149c0.9547,22.0155 4.27315,56.20786 4.27315,56.20786z" data-paper-data="{&quot;origPos&quot;:null}" fill="#000000" stroke="none" stroke-width="0" stroke-linecap="butt" transform="matrix(1,0,0,1,-177.85282,158.6907)"/><path d="M 38.183 250.49 C 38.9965 241.4744 40.7453 231.089 48.5413 231.6868 C 56.3374 232.2846 67.5047 236.3678 73.1 241.7564 C 76.5755 245.1154 81.5993 271.8172 76.7882 277.4624 C 72.5329 282.8017 44.2072 286.7068 41.8428 282.5706 C 36.7263 273.5739 37.1599 261.8296 38.183 250.49 Z " data-paper-data="{&quot;origPos&quot;:null,&quot;index&quot;:null}" fill="#ffffff" stroke="#000000" stroke-width="2" stroke-linecap="round"/><path d="M 126.3261 273.9919 C 124.9329 278.5479 96.4437 280.9904 91.115 276.7218 C 85.1767 272.2776 84.1838 245.1254 86.8322 241.0822 C 91.1004 234.5917 101.0913 228.1447 108.5632 225.841 C 116.0351 223.5375 120.0327 233.2808 122.8158 241.8946 C 126.3163 252.7289 129.331 264.0879 126.3261 273.9919 Z " data-paper-data="{&quot;origPos&quot;:null}" fill="#ffffff" stroke="#000000" stroke-width="2" stroke-linecap="round"/><path d="M 122.3736 285.1827 C 127.3622 291.1748 125.592 300.6278 125.5753 308.4522 C 125.2959 313.522 125.2399 319.8097 121.5047 323.2037 C 117.9002 326.5019 94.4656 327.5791 89.9921 324.0156 C 86.1806 321.0433 83.8792 294.1125 88.1373 288.5562 C 91.6408 283.6801 118.7797 280.8708 122.3736 285.1827 Z " data-paper-data="{&quot;origPos&quot;:null}" fill="#ffffff" stroke="#000000" stroke-width="2" stroke-linecap="round"/><path d="M 79.5234 289.1962 C 83.3197 293.8377 86.571 319.949 83.2116 324.9023 C 80.5469 328.7455 56.1599 330.4859 51.3859 326.953 C 45.9295 322.9154 45.2324 314.6019 43.6944 307.9474 C 42.6413 301.8888 38.9658 293.264 43.7327 289.4326 C 49.9583 284.433 77.062 286.1574 79.5234 289.1963 Z " data-paper-data="{&quot;origPos&quot;:null}" fill="#ffffff" stroke="#000000" stroke-width="2" stroke-linecap="round"/><path d="M 121.4268 374.0145 L 57.231 379.0797 L 52.7794 337.4393 L 120.113 331.7226 Z " data-paper-data="{&quot;origPos&quot;:null}" fill="url(#color-8-,0,0,1,-177.85282,158.6907)" stroke="#000000" stroke-width="2" stroke-linecap="round"/><g><path d="M 101.9296 238.4882 L 106.8688 238.1675 L 107.0255 245.786 L 114.2502 245.2103 L 114.7353 249.5525 L 107.3582 249.7982 L 109.8732 272.3093 L 105.2768 272.5916 L 103.1045 250.042 L 95.931 251.0749 L 95.5097 247.304 L 103.0771 246.69 Z " stroke-width="0.15376" stroke-linecap="round" fill="#000000" stroke="none"/><g stroke-linecap="butt"><path d="M 117.637 270.9866 C 117.6732 271.3104 117.5813 271.4663 117.3655 271.4904 C 115.7906 271.7392 114.2119 271.952 112.637 272.2008 C 112.529 272.2128 112.4571 272.2209 112.3851 272.229 C 112.353 271.9412 112.2929 271.7294 112.2648 271.4776 C 112.2527 271.3697 112.3445 271.2138 112.4524 271.2017 C 112.6962 271.1017 112.944 271.0375 113.2237 270.9334 C 113.6792 270.773 113.7391 270.6571 113.6869 270.1894 C 113.5744 269.1823 113.5297 268.1308 113.3812 267.1277 C 113.1764 265.6206 112.8957 264.0857 112.6909 262.5787 C 112.5945 261.7154 112.5739 260.8798 112.4775 260.0165 C 112.4092 259.4047 112.3368 258.7572 112.2285 258.1138 C 112.1487 258.3776 112.0638 258.6414 111.9532 258.9093 C 111.5138 260.0143 111.003 260.9111 110.5019 261.8944 C 110.0938 262.7039 109.517 263.2764 109.1181 264.0159 C 108.7659 264.6738 108.4371 265.3236 108.0198 265.9235 C 107.7155 266.3548 107.6532 267.4272 107.193 267.1632 C 105.1649 265.8581 104.1676 264.1094 102.6051 262.6129 C 101.6811 261.7081 100.6382 260.8456 99.7213 259.9481 C 99.4922 259.7244 99.5533 259.7484 99.5053 259.6445 L 99.4334 259.6525 C 99.5137 260.3719 99.5942 261.0916 99.6745 261.811 C 99.9034 263.5339 100.1364 265.2927 100.3293 267.0196 C 100.474 268.3145 100.5507 269.6537 100.6594 270.953 C 100.6956 271.2767 100.7678 271.5964 100.8399 271.9161 C 100.904 272.1639 101.1359 272.2839 101.3917 272.2918 C 101.5756 272.3077 101.7195 272.2916 101.8993 272.2715 C 102.1511 272.2434 102.2031 272.3833 102.1873 272.5671 C 102.1754 272.787 102.1955 272.9669 102.2196 273.1827 C 102.2397 273.3625 102.1318 273.3746 101.9879 273.3906 C 101.3805 273.4949 100.7726 273.5992 100.1972 273.6635 C 99.5537 273.7719 98.9419 273.8402 98.2985 273.9485 C 98.0826 273.9726 97.9707 273.9487 97.9786 273.6929 C 97.9904 273.4731 97.9303 273.2613 97.9103 273.0814 C 97.8862 272.8656 97.986 272.7816 98.1978 272.7216 C 98.4816 272.6534 98.7653 272.5853 99.0053 272.449 C 99.0732 272.4049 99.165 272.249 99.157 272.1771 C 99.1005 271.3457 99.0041 270.4822 98.9476 269.6508 C 98.8831 268.7476 98.8546 267.84 98.7861 266.9007 C 98.7579 266.6486 98.7258 266.3609 98.6616 266.1131 C 98.4573 265.2619 98.3928 264.3583 98.2882 263.4231 C 98.1355 262.0559 97.9508 260.7287 97.7981 259.3619 C 97.7458 258.894 97.6896 258.3904 97.6013 257.9268 C 97.4932 257.6111 97.2613 257.4914 96.9373 257.5276 C 96.9014 257.5316 96.8654 257.5356 96.8654 257.5356 C 96.2139 257.572 96.0858 257.4039 96.1614 256.7763 C 96.1534 256.7044 96.2852 256.5804 96.3571 256.5723 C 96.6449 256.5402 96.9327 256.5081 97.2207 256.4759 C 98.088 256.4154 98.9476 256.2829 99.7749 256.1905 C 100.2425 256.1383 100.3224 256.4011 100.5505 256.6137 C 101.6108 257.5556 102.2355 258.4818 103.0728 259.4646 C 104.184 260.6115 105.2273 261.843 106.4009 263.0083 C 106.6947 263.2999 106.4696 263.2992 106.7246 262.9721 C 107.9387 261.4523 109.0831 259.8574 110.1058 258.3511 C 110.6559 257.5444 110.9496 256.5716 111.5314 255.7876 C 111.7883 255.4413 111.9147 254.9799 112.4904 254.9156 C 113.5016 254.8391 114.541 254.6866 115.5522 254.61 C 115.768 254.5859 115.852 254.6857 115.8761 254.9016 C 115.9364 255.4414 115.9364 255.4414 115.3649 255.5417 C 114.7894 255.606 114.5935 255.4819 114.6899 256.3455 C 114.7703 257.0649 114.8467 257.7486 114.963 258.464 C 114.9912 258.7158 115.0552 258.9636 115.0834 259.2154 C 115.2201 260.4387 115.3527 261.6259 115.4893 262.849 C 115.6621 264.3959 115.795 265.911 115.9678 267.458 C 116.0643 268.3213 116.1248 269.1889 116.1893 270.0922 C 116.2415 270.5601 116.3695 270.7279 116.8412 270.7116 C 116.9851 270.6956 117.137 270.7514 117.2769 270.6994 C 117.5926 270.5913 117.6167 270.8071 117.6368 270.9869 Z " stroke-width="0.12102" fill="#000000" stroke="none"/></g></g><g><g><path d="M 66.8772 440.5771 C 66.8772 440.5771 67.2186 441.0088 67.2477 440.8731 C 67.3295 440.4902 67.1851 439.9784 67.0988 439.5405 C 67.0544 439.3145 66.9206 439.114 66.8579 438.8926 C 66.7349 438.4596 66.6917 438.0031 66.5423 437.5785 C 66.4425 437.295 66.2677 437.0422 66.1159 436.7828 C 65.9902 436.5675 65.813 436.3802 65.7086 436.1535 C 65.5153 435.7357 65.2775 435.3156 65.2264 434.8581 C 65.0957 433.688 65.2058 432.4994 65.1688 431.3225 C 65.1594 431.0283 65.0789 430.8787 65.0944 430.6561 C 65.1222 430.2505 65.2692 429.8582 65.297 429.4527 C 65.3125 429.23 65.2392 429.0375 65.2226 428.7865 C 65.1564 427.782 65.0543 425.769 65.0543 425.769 " fill="none" stroke="#7f7f7f" stroke-width="0.89665" stroke-linecap="round"/><path d="M 63.0549 420.8135 C 61.7039 420.1957 61.1262 415.2206 59.391 412.888 C 58.4777 411.6582 56.2236 411.8601 55.4256 410.5527 C 53.4508 407.3171 52.6072 403.4938 51.4551 399.8827 C 50.7052 397.5292 50.759 394.9097 49.7229 392.6676 C 49.0804 391.276 47.2127 390.7066 46.5703 389.3152 C 45.5343 387.0731 44.669 384.5656 44.838 382.0998 C 44.9264 380.8026 46.4631 380.066 47.2753 379.0491 C 48.0878 378.0322 49.0785 377.1345 49.7128 375.9984 C 50.3812 374.8013 50.1846 373.1249 51.1335 372.1355 C 52.0079 371.2245 53.4354 370.9522 54.6902 370.812 C 55.9453 370.6718 57.3974 370.6224 58.4513 371.318 C 59.5951 372.0736 59.9442 373.622 60.6894 374.7721 C 61.4346 375.9226 62.5274 376.9156 62.9276 378.2266 C 64.0056 381.7571 64.6589 385.4329 65.0687 389.1009 C 65.343 391.5558 65.1052 394.0534 64.9715 396.5205 C 64.903 397.7823 64.4041 399.0198 64.4655 400.2815 C 64.6445 403.9549 65.7402 407.5797 65.6918 411.2581 C 65.6746 412.6289 64.6368 413.8004 64.2712 415.1213 C 63.7558 416.9902 64.0309 421.2605 63.0549 420.8136 Z " fill="none" stroke="#7f7f7f" stroke-width="0.61539" stroke-linecap="round"/><path d="M 48.8748 377.3246 C 49.2181 377.5983 49.4565 378.003 49.5091 378.4733 C 49.5617 378.9439 49.4184 379.3909 49.1439 379.734 C 48.8702 380.077 48.4658 380.3154 47.9952 380.368 C 47.5249 380.4205 47.0776 380.2773 46.7348 380.0032 C 46.3915 379.7291 46.1531 379.3247 46.1005 378.8542 C 46.048 378.3839 46.1912 377.9365 46.4656 377.5937 C 46.7394 377.2505 47.1441 377.012 47.6144 376.9595 C 48.0849 376.9069 48.532 377.0502 48.8748 377.3246 Z " fill="url(#color-9-,0,0,1,-177.85282,158.6907)" stroke="none" stroke-width="0.13489" stroke-linecap="butt"/><path d="M 46.1677 380.0349 C 46.511 380.3086 46.7494 380.7133 46.802 381.1836 C 46.8546 381.6542 46.7113 382.1012 46.4369 382.4443 C 46.1631 382.7873 45.7587 383.0257 45.2881 383.0783 C 44.8178 383.1308 44.3705 382.9876 44.0278 382.7135 C 43.6844 382.4394 43.446 382.035 43.3934 381.5644 C 43.3409 381.0942 43.4841 380.6468 43.7586 380.304 C 44.0323 379.9607 44.437 379.7223 44.9073 379.6698 C 45.3779 379.6172 45.8249 379.7605 46.1677 380.0349 Z " fill="url(#color-10-,0,0,1,-177.85282,158.6907)" stroke="none" stroke-width="0.13489" stroke-linecap="butt"/><path d="M 45.8729 384.1311 C 46.2162 384.4048 46.4546 384.8095 46.5072 385.2798 C 46.5598 385.7504 46.4165 386.1974 46.1421 386.5405 C 45.8683 386.8835 45.4639 387.1219 44.9933 387.1745 C 44.523 387.227 44.0757 387.0838 43.733 386.8096 C 43.3896 386.5356 43.1512 386.1312 43.0986 385.6606 C 43.0461 385.1903 43.1893 384.743 43.4638 384.4002 C 43.7375 384.0569 44.1422 383.8185 44.6125 383.7659 C 45.0831 383.7133 45.5301 383.8566 45.8729 384.1311 Z " fill="url(#color-11-,0,0,1,-177.85282,158.6907)" stroke="none" stroke-width="0.13489" stroke-linecap="butt"/><path d="M 47.6093 387.5489 C 47.9526 387.8226 48.191 388.2273 48.2436 388.6976 C 48.2961 389.1682 48.1529 389.6152 47.8784 389.9583 C 47.6046 390.3013 47.2003 390.5397 46.7297 390.5923 C 46.2594 390.6448 45.812 390.5016 45.4693 390.2274 C 45.126 389.9534 44.8876 389.549 44.835 389.0784 C 44.7825 388.6081 44.9257 388.1608 45.2001 387.818 C 45.4739 387.4747 45.8786 387.2363 46.3489 387.1837 C 46.8194 387.1311 47.2665 387.2744 47.6093 387.5489 Z " fill="url(#color-12-,0,0,1,-177.85282,158.6907)" stroke="none" stroke-width="0.13489" stroke-linecap="butt"/><path d="M 50.3527 390.5532 C 50.696 390.827 50.9344 391.2316 50.987 391.702 C 51.0396 392.1725 50.8963 392.6196 50.6219 392.9626 C 50.3481 393.3056 49.9437 393.544 49.4731 393.5966 C 49.0028 393.6492 48.5555 393.5059 48.2127 393.2318 C 47.8694 392.9577 47.631 392.5534 47.5784 392.0828 C 47.5259 391.6125 47.6691 391.1651 47.9436 390.8223 C 48.2173 390.4791 48.622 390.2406 49.0923 390.1881 C 49.5629 390.1355 50.0099 390.2788 50.3527 390.5532 Z " fill="url(#color-13-,0,0,1,-177.85282,158.6907)" stroke="none" stroke-width="0.13489" stroke-linecap="butt"/><path d="M 51.5775 394.7806 C 51.9207 395.0544 52.1592 395.4591 52.2117 395.9294 C 52.2643 396.3999 52.121 396.847 51.8466 397.19 C 51.5728 397.5331 51.1684 397.7715 50.6978 397.8241 C 50.2276 397.8766 49.7802 397.7333 49.4375 397.4592 C 49.0942 397.1852 48.8558 396.7808 48.8032 396.3102 C 48.7506 395.8399 48.8939 395.3926 49.1683 395.0498 C 49.442 394.7065 49.8467 394.468 50.317 394.4155 C 50.7876 394.3629 51.2346 394.5062 51.5774 394.7806 Z " fill="url(#color-14-,0,0,1,-177.85282,158.6907)" stroke="none" stroke-width="0.13489" stroke-linecap="butt"/><path d="M 52.7358 398.4135 C 53.0791 398.6873 53.3175 399.092 53.3701 399.5623 C 53.4227 400.0328 53.2794 400.4799 53.0049 400.8229 C 52.7312 401.166 52.3268 401.4044 51.8562 401.457 C 51.3859 401.5095 50.9386 401.3662 50.5958 401.0921 C 50.2525 400.8181 50.0141 400.4137 49.9615 399.9431 C 49.909 399.4728 50.0522 399.0255 50.3266 398.6827 C 50.6004 398.3394 51.0051 398.101 51.4754 398.0484 C 51.9459 397.9958 52.393 398.1391 52.7358 398.4135 Z " fill="url(#color-15-,0,0,1,-177.85282,158.6907)" stroke="none" stroke-width="0.13489" stroke-linecap="butt"/><path d="M 53.944 402.4924 C 54.2873 402.7661 54.5257 403.1708 54.5783 403.6411 C 54.6308 404.1117 54.4875 404.5587 54.2131 404.9018 C 53.9393 405.2448 53.535 405.4832 53.0643 405.5358 C 52.5941 405.5883 52.1467 405.4451 51.804 405.1709 C 51.4607 404.8969 51.2223 404.4925 51.1697 404.0219 C 51.1172 403.5516 51.2604 403.1043 51.5348 402.7615 C 51.8086 402.4182 52.2133 402.1798 52.6836 402.1272 C 53.1541 402.0747 53.6012 402.2179 53.944 402.4924 Z " fill="url(#color-16-,0,0,1,-177.85282,158.6907)" stroke="none" stroke-width="0.13489" stroke-linecap="butt"/><path d="M 55.1023 406.1252 C 55.4456 406.399 55.684 406.8037 55.7366 407.274 C 55.7891 407.7446 55.6459 408.1916 55.3714 408.5346 C 55.0976 408.8777 54.6933 409.1161 54.2227 409.1687 C 53.7524 409.2212 53.305 409.0779 52.9623 408.8038 C 52.619 408.5298 52.3806 408.1254 52.328 407.6548 C 52.2755 407.1845 52.4187 406.7372 52.6931 406.3944 C 52.9669 406.0511 53.3716 405.8126 53.8419 405.7601 C 54.3124 405.7075 54.7595 405.8508 55.1023 406.1252 Z " fill="url(#color-17-,0,0,1,-177.85282,158.6907)" stroke="none" stroke-width="0.13489" stroke-linecap="butt"/><path d="M 57.5819 409.4601 C 57.9252 409.7338 58.1636 410.1385 58.2162 410.6088 C 58.2687 411.0794 58.1254 411.5264 57.851 411.8695 C 57.5772 412.2125 57.1729 412.4509 56.7022 412.5035 C 56.232 412.556 55.7846 412.4128 55.4419 412.1386 C 55.0986 411.8646 54.8602 411.4602 54.8076 410.9896 C 54.7551 410.5193 54.8983 410.072 55.1727 409.7292 C 55.4465 409.3859 55.8512 409.1475 56.3215 409.0949 C 56.792 409.0423 57.2391 409.1856 57.5819 409.4601 Z " fill="url(#color-18-,0,0,1,-177.85282,158.6907)" stroke="none" stroke-width="0.13489" stroke-linecap="butt"/><g stroke-linecap="butt"><path d="M 60.1555 412.1164 C 60.5755 412.2446 60.9463 412.5328 61.1685 412.951 C 61.3907 413.3689 61.4222 413.8373 61.2934 414.2572 C 61.1651 414.6772 60.8769 415.0477 60.459 415.2699 C 60.0411 415.4921 59.5726 415.5236 59.1529 415.3951 C 58.7328 415.2668 58.362 414.9787 58.1398 414.5607 C 57.9176 414.1428 57.886 413.6741 58.0149 413.2543 C 58.1432 412.8342 58.4314 412.4637 58.8493 412.2415 C 59.2672 412.0193 59.7356 411.9878 60.1554 412.1164 Z " fill="url(#color-19-,0,0,1,-177.85282,158.6907)" stroke-width="0.13489" stroke="none"/><path d="M 61.8752 415.3856 C 62.2952 415.5138 62.6661 415.802 62.8883 416.2202 C 63.1105 416.6381 63.142 417.1065 63.0131 417.5264 C 62.8849 417.9464 62.5967 418.3169 62.1787 418.5391 C 61.7608 418.7613 61.2924 418.7928 60.8726 418.6643 C 60.4526 418.536 60.0817 418.2479 59.8596 417.8299 C 59.6374 417.412 59.6058 416.9433 59.7347 416.5235 C 59.8629 416.1034 60.1511 415.7329 60.5691 415.5107 C 60.987 415.2885 61.4554 415.257 61.8752 415.3856 Z " fill="url(#color-20-,0,0,1,-177.85282,158.6907)" stroke-width="0.13489" stroke="none"/></g><path d="M 53.3324 370.2853 C 53.9129 370.7484 54.3163 371.4325 54.4051 372.2281 C 54.494 373.0236 54.2516 373.7799 53.7876 374.3597 C 53.3245 374.9403 52.6403 375.3437 51.8448 375.4325 C 51.0493 375.5214 50.2932 375.279 49.7131 374.815 C 49.1329 374.3519 48.7296 373.6676 48.6407 372.8722 C 48.5518 372.0767 48.7942 371.3203 49.2579 370.7405 C 49.7213 370.1602 50.4053 369.757 51.2008 369.6681 C 51.9963 369.5792 52.7526 369.8216 53.3324 370.2853 Z " fill="url(#color-21-,0,0,1,-177.85282,158.6907)" stroke="none" stroke-width="0.22813" stroke-linecap="butt"/><path d="M 61.5396 372.1474 C 61.8829 372.4211 62.1213 372.8258 62.1739 373.2961 C 62.2265 373.7667 62.0832 374.2137 61.8088 374.5568 C 61.535 374.8998 61.1306 375.1382 60.66 375.1908 C 60.1897 375.2433 59.7424 375.1001 59.3997 374.8259 C 59.0563 374.5519 58.8179 374.1475 58.7653 373.6769 C 58.7128 373.2066 58.856 372.7593 59.1305 372.4165 C 59.4042 372.0732 59.8089 371.8348 60.2792 371.7822 C 60.7498 371.7296 61.1968 371.8729 61.5396 372.1473 Z " fill="url(#color-22-,0,0,1,-177.85282,158.6907)" stroke="none" stroke-width="0.13489" stroke-linecap="butt"/><path d="M 63.7716 375.9612 C 64.1149 376.2349 64.3534 376.6396 64.4059 377.1099 C 64.4585 377.5805 64.3152 378.0275 64.0408 378.3706 C 63.767 378.7136 63.3626 378.952 62.892 379.0046 C 62.4217 379.0571 61.9744 378.9139 61.6317 378.6397 C 61.2883 378.3657 61.0499 377.9613 60.9973 377.4907 C 60.9448 377.0204 61.0881 376.5731 61.3625 376.2303 C 61.6362 375.887 62.0409 375.6486 62.5112 375.596 C 62.9818 375.5435 63.4288 375.6867 63.7716 375.9612 Z " fill="url(#color-23-,0,0,1,-177.85282,158.6907)" stroke="none" stroke-width="0.13489" stroke-linecap="butt"/><path d="M 65.013 380.3373 C 65.3563 380.611 65.5947 381.0157 65.6473 381.486 C 65.6999 381.9566 65.5566 382.4036 65.2822 382.7467 C 65.0084 383.0897 64.604 383.3281 64.1334 383.3807 C 63.6631 383.4332 63.2158 383.29 62.873 383.0158 C 62.5297 382.7418 62.2913 382.3374 62.2387 381.8668 C 62.1862 381.3965 62.3294 380.9492 62.6038 380.6064 C 62.8776 380.2631 63.2823 380.0247 63.7526 379.9721 C 64.2232 379.9195 64.6702 380.0628 65.013 380.3372 Z " fill="url(#color-24-,0,0,1,-177.85282,158.6907)" stroke="none" stroke-width="0.13489" stroke-linecap="butt"/><path d="M 65.561 385.2424 C 65.9043 385.5161 66.1427 385.9208 66.1953 386.3911 C 66.2479 386.8617 66.1046 387.3087 65.8302 387.6518 C 65.5564 387.9948 65.152 388.2332 64.6814 388.2858 C 64.2111 388.3383 63.7638 388.1951 63.421 387.9209 C 63.0777 387.6469 62.8393 387.2425 62.7867 386.7719 C 62.7342 386.3016 62.8774 385.8543 63.1519 385.5115 C 63.4256 385.1682 63.8303 384.9298 64.3006 384.8772 C 64.7712 384.8247 65.2182 384.9679 65.561 385.2424 Z " fill="url(#color-25-,0,0,1,-177.85282,158.6907)" stroke="none" stroke-width="0.13489" stroke-linecap="butt"/><path d="M 66.2244 389.8335 C 66.5676 390.1072 66.8061 390.5119 66.8586 390.9822 C 66.9112 391.4528 66.7679 391.8998 66.4935 392.2429 C 66.2197 392.5859 65.8153 392.8243 65.3447 392.8769 C 64.8744 392.9294 64.4271 392.7862 64.0844 392.512 C 63.7411 392.238 63.5027 391.8336 63.4501 391.363 C 63.3975 390.8927 63.5408 390.4454 63.8152 390.1026 C 64.0889 389.7593 64.4936 389.5209 64.9639 389.4683 C 65.4345 389.4158 65.8815 389.559 66.2243 389.8335 Z " fill="url(#color-26-,0,0,1,-177.85282,158.6907)" stroke="none" stroke-width="0.13489" stroke-linecap="butt"/><path d="M 66.4587 394.623 C 66.802 394.8968 67.0404 395.3014 67.093 395.7717 C 67.1455 396.2423 67.0023 396.6894 66.7278 397.0324 C 66.454 397.3754 66.0497 397.6139 65.5791 397.6664 C 65.1088 397.719 64.6615 397.5757 64.3187 397.3016 C 63.9754 397.0275 63.737 396.6232 63.6844 396.1526 C 63.6319 395.6823 63.7751 395.235 64.0495 394.8922 C 64.3233 394.5489 64.728 394.3104 65.1983 394.2579 C 65.6688 394.2053 66.1159 394.3486 66.4587 394.623 Z " fill="url(#color-27-,0,0,1,-177.85282,158.6907)" stroke="none" stroke-width="0.13489" stroke-linecap="butt"/><path d="M 66.3788 399.2972 C 66.7221 399.5709 66.9605 399.9756 67.0131 400.4459 C 67.0656 400.9165 66.9223 401.3635 66.6479 401.7066 C 66.3741 402.0496 65.9698 402.288 65.4991 402.3406 C 65.0289 402.3931 64.5815 402.2499 64.2388 401.9757 C 63.8955 401.7017 63.6571 401.2973 63.6045 400.8267 C 63.552 400.3564 63.6952 399.9091 63.9696 399.5663 C 64.2434 399.223 64.6481 398.9846 65.1184 398.932 C 65.5889 398.8794 66.036 399.0227 66.3788 399.2972 Z " fill="url(#color-28-,0,0,1,-177.85282,158.6907)" stroke="none" stroke-width="0.13489" stroke-linecap="butt"/><path d="M 66.5631 403.6409 C 66.9064 403.9146 67.1448 404.3193 67.1974 404.7896 C 67.2499 405.2602 67.1067 405.7072 66.8322 406.0503 C 66.5584 406.3933 66.1541 406.6317 65.6835 406.6843 C 65.2132 406.7368 64.7659 406.5936 64.4231 406.3194 C 64.0798 406.0454 63.8414 405.641 63.7888 405.1704 C 63.7363 404.7001 63.8795 404.2528 64.1539 403.91 C 64.4277 403.5667 64.8324 403.3283 65.3027 403.2757 C 65.7732 403.2231 66.2203 403.3664 66.5631 403.6409 Z " fill="url(#color-29-,0,0,1,-177.85282,158.6907)" stroke="none" stroke-width="0.13489" stroke-linecap="butt"/><path d="M 66.6486 408.4471 C 66.9919 408.7209 67.2303 409.1255 67.2829 409.5958 C 67.3354 410.0664 67.1921 410.5135 66.9177 410.8565 C 66.6439 411.1995 66.2396 411.438 65.7689 411.4905 C 65.2987 411.5431 64.8513 411.3998 64.5086 411.1257 C 64.1653 410.8516 63.9269 410.4472 63.8743 409.9767 C 63.8218 409.5064 63.965 409.059 64.2394 408.7162 C 64.5132 408.373 64.9179 408.1345 65.3882 408.082 C 65.8587 408.0294 66.3058 408.1727 66.6486 408.4471 Z " fill="url(#color-30-,0,0,1,-177.85282,158.6907)" stroke="none" stroke-width="0.13489" stroke-linecap="butt"/><path d="M 65.8422 413.3529 C 66.1854 413.6266 66.4239 414.0313 66.4764 414.5016 C 66.529 414.9722 66.3857 415.4192 66.1113 415.7623 C 65.8375 416.1053 65.4331 416.3437 64.9625 416.3963 C 64.4922 416.4488 64.0449 416.3056 63.7022 416.0314 C 63.3588 415.7574 63.1205 415.353 63.0679 414.8824 C 63.0153 414.4121 63.1586 413.9648 63.433 413.622 C 63.7067 413.2787 64.1114 413.0403 64.5817 412.9877 C 65.0523 412.9351 65.4993 413.0784 65.8421 413.3528 Z " fill="url(#color-31-,0,0,1,-177.85282,158.6907)" stroke="none" stroke-width="0.13489" stroke-linecap="butt"/><path d="M 66.3546 419.7484 C 67.0959 420.5054 67.6251 421.6056 67.7664 422.8696 C 67.9077 424.1339 67.6343 425.3238 67.0783 426.2257 C 66.5225 427.1273 65.6848 427.7407 64.6964 427.8511 C 63.7083 427.9615 62.7555 427.5481 62.0145 426.7914 C 61.2735 426.0345 60.7443 424.9342 60.603 423.6699 C 60.4618 422.4059 60.7352 421.216 61.2909 420.3142 C 61.8466 419.4124 62.6846 418.7989 63.6728 418.6885 C 64.6612 418.5781 65.6137 418.9914 66.3547 419.7484 Z " fill="#b2b2b2" stroke="none" stroke-width="0.11208" stroke-linecap="butt"/><path d="M 65.5495 428.0678 C 65.9695 428.1961 66.3404 428.4843 66.5625 428.9025 C 66.7847 429.3204 66.8163 429.7888 66.6874 430.2086 C 66.5592 430.6287 66.271 430.9992 65.853 431.2214 C 65.4351 431.4436 64.9667 431.4751 64.5469 431.3465 C 64.1268 431.2183 63.756 430.9301 63.5339 430.5122 C 63.3117 430.0943 63.2801 429.6256 63.409 429.2057 C 63.5372 428.7857 63.8254 428.4152 64.2433 428.193 C 64.6612 427.9708 65.1297 427.9393 65.5495 428.0678 Z " fill="url(#color-32-,0,0,1,-177.85282,158.6907)" stroke="none" stroke-width="0.13489" stroke-linecap="butt"/><path d="M 65.4198 432.2961 C 65.8398 432.4244 66.2107 432.7125 66.4329 433.1307 C 66.6551 433.5487 66.6866 434.0171 66.5577 434.4369 C 66.4295 434.857 66.1413 435.2275 65.7233 435.4497 C 65.3054 435.6719 64.837 435.7034 64.4172 435.5748 C 63.9972 435.4466 63.6263 435.1584 63.4042 434.7405 C 63.182 434.3226 63.1504 433.8538 63.2793 433.434 C 63.4075 433.014 63.6957 432.6435 64.1137 432.4213 C 64.5316 432.1991 65 432.1676 65.4198 432.2961 Z " fill="url(#color-33-,0,0,1,-177.85282,158.6907)" stroke="none" stroke-width="0.13489" stroke-linecap="butt"/><path d="M 67.5078 436.3426 C 67.8511 436.6163 68.0895 437.021 68.1421 437.4913 C 68.1946 437.9619 68.0514 438.4089 67.7769 438.752 C 67.5032 439.095 67.0988 439.3334 66.6282 439.386 C 66.1579 439.4385 65.7106 439.2953 65.3678 439.0211 C 65.0245 438.7471 64.7861 438.3427 64.7335 437.8721 C 64.681 437.4018 64.8242 436.9545 65.0986 436.6117 C 65.3724 436.2684 65.7771 436.03 66.2474 435.9774 C 66.7179 435.9249 67.165 436.0682 67.5078 436.3426 Z " fill="url(#color-34-,0,0,1,-177.85282,158.6907)" stroke="none" stroke-width="0.13489" stroke-linecap="butt"/><path d="M 69.6737 442.9636 L 72.8019 442.2767 L 73.0263 445.7939 L 70.2314 446.4436 L 70.8298 456.3284 L 66.9979 456.7565 L 65.4373 447.3162 L 61.4203 447.5964 L 61.1962 444.0792 L 65.0278 443.6511 L 64.6555 440.3193 L 69.1536 439.8167 Z " fill="#b2b2b2" stroke="none" stroke-width="0.11208" stroke-linecap="round"/><path d="M 68.8366 454.4432 L 66.8114 442.3562 " fill="none" stroke="#7f7f7f" stroke-width="0.22417" stroke-linecap="round"/><path d="M 69.9413 444.7053 L 64.092 445.19 " fill="none" stroke="#7f7f7f" stroke-width="0.22417" stroke-linecap="round"/></g><path d="M 128.5002 381.2003 L 55.6001 386.034 L 53.9245 373.7304 L 124.693 367.3288 Z " fill="#000000" stroke="none" stroke-width="1" stroke-linecap="round"/><g><g><g><path d="M 137.2963 373.7395 L 142.697 366.8657 L 145.2898 404.8768 L 136.188 399.9977 L 130.9717 373.1819 Z " fill="#363a37" stroke="none" stroke-width="1.16316" stroke-linecap="round"/><path d="M 133.3123 353.8293 L 134.5216 369.4573 L 113.2812 365.8606 L 110.8039 338.9324 Z " fill="#000000" stroke="none" stroke-width="0.87338" stroke-linecap="round"/><path d="M 142.1509 382.8557 L 144.6 414.5026 L 140.1096 414.8502 L 137.6601 383.2033 Z " fill="url(#color-35-,0,0,1,-177.85282,158.6907)" stroke="url(#color-36-,0,0,1,-177.85282,158.6907)" stroke-width="0.20059" stroke-linecap="round"/><path d="M 151.6263 361.9512 C 151.7026 362.9383 151.5539 363.8512 151.2505 364.5271 C 150.947 365.203 150.4886 365.6419 149.95 365.6837 C 149.411 365.7253 148.8907 365.3621 148.4869 364.7411 C 148.0828 364.1198 147.7956 363.2405 147.7193 362.2534 C 147.6427 361.2663 147.7914 360.3534 148.0949 359.6775 C 148.3983 359.0016 148.8567 358.5624 149.3956 358.5208 C 149.9342 358.479 150.4546 358.8423 150.8587 359.4635 C 151.2625 360.0848 151.5498 360.9641 151.6263 361.9512 Z " fill="#ff0000" stroke="none" stroke-width="0.78683" stroke-linecap="butt"/><path d="M 133.476 330.1275 L 142.3664 338.3486 L 143.6841 350.2997 L 147.0671 343.2251 L 147.6642 356.0182 L 144.7223 363.7138 L 145.5993 375.0442 L 141.2567 386.6474 L 130.7777 386.6723 L 124.4359 343.6665 Z " fill="#000000" stroke="none" stroke-width="0.87338" stroke-linecap="round"/><path d="M 150.3162 339.3084 L 152.2705 362.8708 L 150.175 359.4955 L 148.3722 359.8971 L 147.2117 363.5241 L 145.3671 339.6916 Z " fill="#000000" stroke="none" stroke-width="0.87338" stroke-linecap="round"/></g><path d="M 141.8714 432.1441 L 141.8714 432.1441 L 141.8335 431.9531 L 141.8335 431.9531 Z " fill="#cccccc" stroke="none" stroke-width="0.65058" stroke-linecap="butt"/></g><path d="M 152.651 415.5231 L 134.4011 416.5086 L 125.5711 399.436 L 116.6158 366.4253 L 147.2042 366.7702 Z " fill="#353935" stroke="none" stroke-width="1" stroke-linecap="round"/></g><g stroke-linecap="butt"><path d="M 119.5845 386.2597 L 106.2072 387.7542 L 103.5502 363.9723 L 116.9275 362.4778 Z " fill="#cccc00" stroke="#000000" stroke-width="1"/><path d="M 108.5017 366.0767 C 108.8752 366.3751 109.1354 366.8186 109.1925 367.3299 C 109.2496 367.8412 109.0937 368.3312 108.7953 368.7046 C 108.4969 369.0781 108.0534 369.3383 107.5421 369.3954 C 107.0308 369.4525 106.5409 369.2966 106.1674 368.9982 C 105.7939 368.6998 105.5337 368.2563 105.4766 367.7451 C 105.4195 367.2338 105.5754 366.7438 105.8738 366.3703 C 106.1722 365.9969 106.6157 365.7367 107.127 365.6796 C 107.6383 365.6224 108.1282 365.7784 108.5017 366.0767 Z " fill="#ff0000" stroke="none" stroke-width="1"/></g><g><path d="M 102.1731 400.833 L 86.0509 402.2336 L 82.5582 362.0385 L 98.6804 360.6376 Z " fill="url(#color-37-,0,0,1,-177.85282,158.6907)" stroke-width="0.29645" stroke-linecap="butt" stroke="none"/><path d="M 103.394 401.4696 L 93.0966 405.8842 L 84.8929 403.6639 L 84.3684 400.1896 L 103.1409 398.5585 Z " fill="#666666" stroke-width="0.25105" stroke-linecap="round" stroke="none"/><path d="M 100.0317 399.2387 L 98.4858 399.3732 L 95.2236 361.8281 L 96.7696 361.6939 Z " fill="#666666" stroke-width="0.29645" stroke-linecap="butt" stroke="none"/><path d="M 96.719 399.5266 L 95.394 399.6419 L 92.0933 361.655 L 93.4183 361.5401 Z " fill="#666666" stroke-width="0.29645" stroke-linecap="butt" stroke="none"/><path d="M 97.7567 355.3007 C 99.2046 355.5826 100.5076 357.0376 100.5572 358.3952 C 100.5994 359.5325 99.6315 360.2308 97.9445 360.9819 C 96.2574 361.7329 93.8883 362.3124 91.2377 362.5426 C 88.5874 362.7731 86.1539 362.6107 84.3625 362.1619 C 82.5713 361.7134 81.4222 360.9792 81.3429 360.0649 C 81.2633 359.1504 82.2686 358.229 83.9554 357.478 C 85.6425 356.7273 88.3766 356.293 90.6622 355.9172 C 93.0181 355.53 95.4771 354.6488 97.7567 355.3006 Z " fill="#b2b2b2" stroke-width="0.31402" stroke-linecap="round" stroke="none"/><path d="M 88.1057 400.2752 L 86.7806 400.3901 L 83.5182 362.8451 L 84.8435 362.7301 Z " fill="#666666" stroke-width="0.29645" stroke-linecap="butt" stroke="none"/><path d="M 76.9406 366.532 L 76.9406 366.532 L 76.9213 366.3111 L 76.9213 366.3111 Z " fill="#666666" stroke-width="0.29645" stroke-linecap="butt" stroke="none"/><path d="M 100.1588 362.2894 L 81.3863 363.9205 L 81.0794 360.3869 L 98.7092 358.4097 L 97.1445 353.2054 L 102.9055 358.0453 Z " fill="#666666" stroke-width="0.29645" stroke-linecap="round" stroke="none"/><path d="M 93.1579 386.4677 L 86.974 387.0051 L 86.0145 375.9626 L 92.1984 375.4252 Z " fill="#000000" stroke-width="0.29645" stroke-linecap="butt" stroke="none"/><path d="M 89.8178 378.8563 C 90.2632 379.3408 90.5728 380.0367 90.6417 380.829 C 90.7107 381.6217 90.5257 382.3605 90.1704 382.9145 C 89.8165 383.4696 89.2922 383.8392 88.6826 383.8922 C 88.073 383.9453 87.4931 383.6714 87.0485 383.186 C 86.603 382.7012 86.2935 382.0053 86.2246 381.213 C 86.156 380.4207 86.341 379.6818 86.696 379.1275 C 87.0499 378.5724 87.5742 378.2029 88.1838 378.1501 C 88.7934 378.0971 89.3735 378.3705 89.8179 378.8563 Z " fill="#ff0000" stroke-width="0.29645" stroke-linecap="butt" stroke="none"/><path d="M 61.8629 383.641 C 61.9228 383.6358 61.9601 383.6326 61.9601 383.6326 C 61.9601 383.6326 61.9228 383.6358 61.8629 383.641 C 61.8027 383.6463 61.7198 383.6534 61.6289 383.6615 C 61.5376 383.6692 61.4548 383.6764 61.3946 383.6819 C 61.3346 383.6871 61.2974 383.6904 61.2974 383.6904 C 61.2974 383.6904 61.3347 383.6871 61.3946 383.6819 C 61.4548 383.6764 61.5377 383.6693 61.6289 383.6615 C 61.7198 383.6534 61.8027 383.6463 61.8629 383.641 Z " fill="#ff0000" stroke-width="0.29645" stroke-linecap="butt" stroke="none"/></g><g stroke-linecap="butt"><path d="M 102.777 380.9137 L 91.1833 382.209 L 90.1039 372.5476 L 101.6976 371.2523 Z " fill="url(#color-38-,0,0,1,-177.85282,158.6907)" stroke-width="0.81818" stroke="none"/><path d="M 80.1184 373.6632 L 90.523 372.5008 L 91.6023 382.1622 L 81.1978 383.3246 Z " fill="url(#color-39-,0,0,1,-177.85282,158.6907)" stroke-width="0.79778" stroke="none"/></g><g stroke-linecap="butt"><g><path d="M 76.5785 367.715 C 79.0492 369.6891 80.7674 372.6042 81.1459 375.991 C 81.5243 379.3778 80.4916 382.6003 78.5175 385.0707 C 76.5434 387.5414 73.6283 389.2597 70.2415 389.6381 C 66.8546 390.0165 63.6322 388.9839 61.1618 387.0097 C 58.6911 385.0359 56.9728 382.1208 56.5944 378.734 C 56.216 375.3472 57.2487 372.1247 59.2228 369.654 C 61.1966 367.1837 64.1117 365.4653 67.4985 365.087 C 70.8854 364.7086 74.1078 365.7412 76.5785 367.715 Z " fill="#000000" stroke-width="0.10389" stroke="none"/><path d="M 57.3396 378.5558 C 56.6512 372.3942 61.2847 366.8194 67.6892 366.1039 C 74.0936 365.3884 79.41 369.9045 80.0984 376.0658 C 80.7868 382.2277 76.5859 387.7012 70.1817 388.4167 C 63.7776 389.1322 58.028 384.7174 57.3396 378.5558 Z " fill="url(#color-40-,0,0,1,-177.85282,158.6907)" stroke-width="0.10389" stroke="none"/><path d="M 70.7896 370.4156 C 71.2778 370.5474 73.9915 373.2658 74.2553 373.9304 C 74.5195 374.5949 72.3156 377.63 71.7877 377.9214 C 71.2601 378.2124 67.203 377.2685 66.8362 376.8842 C 66.4698 376.5002 65.6531 372.4071 66.0209 371.8688 C 66.3894 371.3307 70.3017 370.2838 70.7895 370.4156 Z " fill="#000000" stroke-width="0.10389" stroke="none"/><path d="M 64.2209 383.8853 C 63.6015 384.9204 62.8267 386.7213 61.6093 386.3968 C 59.8448 385.9206 58.2248 384.048 58.0327 382.2314 C 57.8829 380.8181 59.7579 379.8499 61.0285 379.239 C 62.7435 378.415 67.4212 376.2286 66.5836 378.1651 Z " fill="url(#color-41-,0,0,1,-177.85282,158.6907)" stroke-width="0.10389" stroke="none"/><path d="M 75.2003 387.6748 L 70.7973 389.4195 C 69.8576 389.1844 69.7693 387.3594 69.941 386.248 C 70.1571 384.1413 70.264 380.9411 71.9155 380.1332 C 73.1647 379.525 74.9404 381.9973 75.5293 383.5129 C 76.1613 384.8 75.2003 387.6749 75.2003 387.6749 Z " fill="url(#color-42-,0,0,1,-177.85282,158.6907)" stroke-width="0.10389" stroke="none"/><path d="M 56.9954 374.3462 L 60.2522 369.1732 C 60.9821 368.5638 62.2651 368.8132 63.0316 369.3223 C 64.063 369.8954 65.7285 371.0954 65.1247 372.1058 C 64.077 373.8648 61.7464 374.449 59.6994 375.0015 C 58.8057 375.2434 56.9954 374.3462 56.9954 374.3462 Z " fill="url(#color-43-,0,0,1,-177.85282,158.6907)" stroke-width="0.10389" stroke="none"/><path d="M 78.8438 371.3391 C 80.0607 373.4949 80.4326 376.2492 80.2192 378.7522 C 80.16 379.4345 78.8184 378.5478 78.2646 378.1889 C 76.969 377.2426 75.2151 376.4606 74.7883 374.9188 C 74.5017 373.8893 75.8642 372.6415 76.6019 372.2617 Z " fill="url(#color-44-,0,0,1,-177.85282,158.6907)" stroke-width="0.10389" stroke="none"/><path d="M 67.4097 365.8489 L 70.8401 365.599 L 73.9095 366.8597 C 73.9095 366.8597 73.9738 367.869 73.6436 368.1439 C 72.7649 368.8781 71.6368 370.1171 70.4495 369.9476 C 69.1753 369.7499 68.3056 368.3285 67.4776 367.2779 C 67.214 366.8773 67.4097 365.8489 67.4097 365.8489 Z " fill="url(#color-45-,0,0,1,-177.85282,158.6907)" stroke-width="0.10389" stroke="none"/></g><path d="M 71.1299 372.4655 C 71.4836 372.7483 71.7298 373.1657 71.784 373.6511 C 71.8382 374.1363 71.6902 374.5977 71.4077 374.9516 C 71.1249 375.3052 70.7075 375.5514 70.2223 375.6056 C 69.7369 375.6598 69.2755 375.5118 68.9216 375.2293 C 68.5679 374.9465 68.322 374.5291 68.2678 374.044 C 68.2136 373.5585 68.3613 373.0972 68.6438 372.7432 C 68.9267 372.3896 69.344 372.1437 69.8295 372.0895 C 70.3147 372.0353 70.776 372.183 71.1299 372.4655 Z " fill="url(#color-46-,0,0,1,-177.85282,158.6907)" stroke-width="0.2957" stroke="none"/></g></g></g><g data-paper-data="{&quot;origRot&quot;:0}"><g data-paper-data="{&quot;origPos&quot;:null}"><path d="M 72.0432 162.3503 C 79.9998 162.5473 88.745 163.3817 95.2475 167.9592 C 100.285 171.5022 102.9006 178.416 102.7006 184.4793 C 102.8869 197.7227 102.9067 212.6677 95.2102 223.4954 C 89.5946 231.3814 77.5298 235.713 68.1701 234.1591 C 59.2412 232.6754 52.4872 223.918 47.7667 216.1956 C 41.8067 206.6699 38.652 195.2405 39.3369 184.1782 C 39.1562 177.1656 43.4734 169.7313 49.1827 165.77 C 55.5521 161.3481 64.3437 161.803 72.0431 162.3503 Z " fill="#ffd499" stroke="none" stroke-width="1" stroke-linecap="butt"/><path d="M 99.5883 226.334 C 99.5883 226.334 46.7473 227.164 39.3437 217.2888 C 28.8742 203.7033 27.8617 176.4063 27.8617 176.4063 C 27.8617 176.4063 24.7113 152.2712 25.6378 152.1605 C 26.5343 152.0533 56.3453 152.7924 56.3453 152.7924 C 56.3453 152.7924 75.9773 153.1749 91.0062 162.26 C 103.0063 169.5143 112.0891 189.2491 116.0146 199.1652 C 119.9401 209.0813 123.6611 224.7145 123.6611 224.7145 Z " data-paper-data="{&quot;origPos&quot;:null}" fill="#ffffff" stroke="#000000" stroke-width="2" stroke-linecap="round"/><g stroke-linecap="butt"><path d="M 29.4549 173.5393 L 69.0366 173.3514 L 69.088 184.1875 L 30.6014 184.3408 Z " data-paper-data="{&quot;origPos&quot;:null}" stroke-width="1.05383" fill="#ff0000" stroke="none"/><path d="M 30.998 186.7163 L 54.2617 186.6156 L 54.2752 189.4751 L 31.5591 189.5585 Z " data-paper-data="{&quot;origPos&quot;:null}" stroke-width="0.50239" fill="#ff0000" stroke="none"/></g><path d="M 114.5054 198.2696 L 116.0482 206.2389 L 72.4002 205.8442 C 72.4002 205.8442 51.2712 205.3124 49.444 189.0968 C 48.0352 176.5936 68.1937 175.7635 68.1937 175.7635 L 100.8523 175.6084 Z " fill="#000000" stroke="#000000" stroke-width="2" stroke-linecap="round"/><path d="M 56.0182 178.9819 C 60.2177 176.5208 69.6734 175.4916 70.452 175.9032 C 71.1853 176.294 63.4001 179.2147 59.9419 181.2208 C 57.4757 182.9182 53.7983 187.535 52.7451 186.9741 C 51.7703 186.452 53.645 180.6366 56.0182 178.9818 Z " fill="#ffffff" stroke="none" stroke-width="1" stroke-linecap="round"/></g><path d="M 47.4501 193.5206 L 37.0844 201.2771 L 35.2141 193.2586 Z " data-paper-data="{&quot;origPos&quot;:null}" fill="#000000" stroke="none" stroke-width="1" stroke-linecap="round"/></g><path d="M 105.4717 288.6345 C 97.6079 287.896 100.7185 270.5985 105.5004 263.1076 C 111.3328 254.067 123.9896 252.4712 133.1735 246.3337 C 143.0299 239.7675 151.0159 228.1361 162.7643 226.5838 C 170.4195 225.584 183.0033 232.0077 181.0449 238.9425 C 178.0071 251.994 163.8054 259.7252 152.721 266.7771 C 138.1134 276.125 121.3089 290.3968 105.4717 288.6345 Z " data-paper-data="{&quot;origRot&quot;:0}" fill="#000000" stroke="#000000" stroke-width="1.5" stroke-linecap="round"/><path d="M 31.8337 244.3545 C 29.4617 239.712 35.3814 231.3796 40.9699 231.6558 C 52.9262 232.3097 62.4793 242.576 73.3288 247.2253 C 85.6133 253.0341 101.5553 253.0196 110.3996 263.1206 C 115.4178 268.8674 114.421 283.6071 107.3556 284.8059 C 92.0582 287.8865 76.2089 279.7061 62.7125 272.2437 C 50.558 265.5727 38.0576 256.7267 31.8337 244.3546 Z " data-paper-data="{&quot;origRot&quot;:0}" fill="#000000" stroke="#000000" stroke-width="1.5" stroke-linecap="round"/><g data-paper-data="{&quot;index&quot;:null,&quot;origRot&quot;:0}"><path d="M366.00078,157.84029c0,0 -9.76946,8.71388 -19.15062,11.92468c-9.55439,3.27017 -29.3693,4.68199 -29.3693,4.68199c0,0 0.37474,4.71444 7.31744,6.32485c7.35277,1.70539 29.313,2.17126 29.313,2.17126c0,0 -14.5788,13.1926 -26.52551,15.57935c-6.5393,1.30645 -20.84245,-6.11599 -20.84245,-6.11599c0,0 -3.28306,12.85841 1.8643,17.21509c11.12196,9.41352 37.42291,5.75479 37.42291,5.75479c0,0 -19.37565,17.83251 -31.54642,15.14538c-11.71285,-2.58599 -29.36694,-18.13298 -29.36694,-18.13298c0,0 0.63654,12.75534 7.77982,20.73698c10.59032,11.83304 33.52228,18.65854 33.52228,18.65854c0,0 -30.12183,5.34371 -46.48654,-0.18973c-15.57885,-5.26758 -22.65833,-19.02596 -20.53916,-35.33414c4.81612,-37.06261 75.13358,-124.5877 75.13358,-124.5877c0,0 -13.26166,37.72039 -6.06077,52.85897c5.08206,10.6841 37.53428,13.30866 37.53428,13.30866z" data-paper-data="{&quot;origPos&quot;:null}" fill="#000000" stroke="none" stroke-width="NaN" stroke-linecap="butt" transform="matrix(1,0,0,1,-177.85282,158.6907)"/><path d="M407.29913,-155.40273c0,0 46.57275,1.78535 62.03355,16.18577c7.5388,7.02168 2.64039,38.55037 2.64039,38.55037l-73.68676,107.31468c0,0 15.12616,-27.77016 1.17307,-58.38579c-4.71878,-10.35367 -42.21403,-7.52249 -42.21403,-7.52249c0,0 24.02728,-23.98623 39.62174,-31.37785c13.81243,-6.54712 35.72972,-4.33849 35.72972,-4.33849c0,0 -10.02624,-12.50703 -19.37259,-15.53019c-14.32009,-4.63214 -41.27005,-4.08581 -41.27005,-4.08581c0,0 23.44719,-16.08191 38.68703,-17.80224c13.50957,-1.525 34.97963,9.48659 34.97963,9.48659c0,0 -3.15949,-11.24581 -10.04732,-17.08629c-8.06776,-6.84095 -28.27467,-15.40802 -28.27467,-15.40802z" data-paper-data="{&quot;origPos&quot;:null}" fill="#000000" stroke="none" stroke-width="0" stroke-linecap="butt" transform="matrix(1,0,0,1,-177.85282,158.6907)"/><path d="M 99.488 401.2729 C 70.3475 377.2878 92.9608 344.8391 92.9608 344.8391 L 280.0479 81.0548 C 280.0479 81.0548 298.1246 45.223 288.7662 37.1056 " data-paper-data="{&quot;origPos&quot;:null}" fill="none" stroke="#000000" stroke-width="3" stroke-linecap="round"/><path d="M368.36367,79.19337c0,0 -35.78703,41.26171 -36.86994,60.25534c-0.76987,13.5034 37.15548,10.00352 31.56311,22.31873c-5.67473,12.49645 -38.24916,11.72414 -38.24916,11.72414c0,0 33.71474,-2.12923 26.67884,14.05555c-7.15706,16.46334 -38.37235,15.41264 -38.37235,15.41264c0,0 40.94442,-5.46989 36.44184,10.22956c-2.89903,10.10818 -10.25054,13.21216 -20.09493,16.90936c-19.05687,7.15702 -39.44399,-11.74793 -39.44399,-11.74793l39.30933,39.76828c0,0 -36.78687,2.84474 -52.69166,-4.8955c-18.90466,-9.20013 -28.07968,-28.23353 -22.57728,-48.52518c17.56188,-64.76374 89.824,-144.73876 89.824,-144.73876z" data-paper-data="{&quot;origRot&quot;:0,&quot;origPos&quot;:null}" fill="url(#color-47)" stroke="none" stroke-width="0" stroke-linecap="butt" transform="matrix(1,0,0,1,-177.85282,158.6907)"/><path d="M376.78651,12.95077c0,0 28.50922,-28.14152 25.29169,-50.09551c-3.21762,-21.9544 -30.76378,-12.78133 -45.85347,-20.08405c-18.10621,-8.76263 63.19411,-44.22931 63.19411,-44.22931c0,0 -44.73079,-2.02811 -46.68257,-13.85392c-2.20655,-13.37001 15.97168,-20.16928 29.35974,-22.2631c12.58886,-1.96889 32.7141,5.44167 32.7141,5.44167l-24.837,-26.55724c0,0 38.79491,1.97234 55.6833,16.89288c9.97373,8.81151 27.26974,12.62489 3.10481,62.73332c-24.16494,50.10836 -71.68374,107.9566 -71.68374,107.9566z" data-paper-data="{&quot;origRot&quot;:0,&quot;origPos&quot;:null,&quot;index&quot;:null}" fill="url(#color-48)" stroke="none" stroke-width="0" stroke-linecap="butt" transform="matrix(1,0,0,1,-177.85282,158.6907)"/><path d="M394.05843,10.77887c12.2862,8.25007 26.81088,2.86807 23.74105,7.43975c-2.68443,3.99781 -13.39332,3.27547 -15.57719,7.56723c-2.05521,4.03883 7.47789,11.40856 3.05914,12.41408c-8.04619,1.83101 -14.32768,-9.41406 -21.17834,-14.01435c-12.28628,-8.25009 -22.66969,-11.08443 -19.59995,-15.6561c3.09961,-4.61607 12.21483,2.63653 16.47617,-0.93517c4.20588,-3.52528 0.06099,-16.36675 5.54025,-16.0596c7.14992,0.40078 1.59363,15.25191 7.53884,19.24405z" data-paper-data="{&quot;origPos&quot;:null,&quot;origRot&quot;:0,&quot;index&quot;:null}" fill="url(#color-49)" stroke="none" stroke-width="0" stroke-linecap="butt" transform="matrix(1,0,0,1,-177.85282,158.6907)"/><path d="M351.45277,76.84207c-12.2862,-8.25007 -26.81086,-2.8681 -23.74104,-7.43971c2.68443,-3.99781 13.39332,-3.2754 15.57715,-7.56724c2.05521,-4.03883 -7.47796,-11.40853 -3.05922,-12.41409c8.04619,-1.83101 14.32772,9.41405 21.1784,14.01427c12.28628,8.25009 22.66967,11.08444 19.59992,15.65613c-3.09961,4.61607 -12.21483,-2.63653 -16.47615,0.93519c-4.20588,3.52528 -0.06099,16.36675 -5.54025,16.05958c-7.14993,-0.40087 -1.59367,-15.25189 -7.53885,-19.24403z" data-paper-data="{&quot;origPos&quot;:null,&quot;origRot&quot;:0}" fill="url(#color-50)" stroke="none" stroke-width="0" stroke-linecap="butt" transform="matrix(1,0,0,1,-177.85282,158.6907)"/><g data-paper-data="{&quot;origPos&quot;:null}" stroke-linecap="butt"><path d="M371.76552,44.22605c-9.52004,12.94915 -20.58784,20.98356 -24.7205,17.94534c-4.13275,-3.03834 0.2346,-15.99882 9.75467,-28.948c9.52004,-12.94915 20.58784,-20.98356 24.72051,-17.94526c4.13266,3.03832 -0.23449,15.99873 -9.75464,28.94804z" data-paper-data="{&quot;origRot&quot;:0,&quot;origPos&quot;:null}" fill="#401616" stroke-width="0" stroke="none" transform="matrix(1,0,0,1,-177.85282,158.6907)"/><path d="M397.45512,26.00694c0,0 -5.58598,17.00539 -11.83535,25.99507c-6.9819,10.04326 -22.06819,22.7746 -22.06819,22.7746l-19.3396,-13.44456c0,0 14.04394,-12.82715 20.38522,-21.94905c6.89005,-9.91116 13.51838,-26.82056 13.51838,-26.82056z" data-paper-data="{&quot;origRot&quot;:0,&quot;origPos&quot;:null}" fill="#181818" stroke-width="0" stroke="none" transform="matrix(1,0,0,1,-177.85282,158.6907)"/></g></g><g data-paper-data="{&quot;origRot&quot;:0}"><g stroke-linecap="round"><path d="M 173.3945 204.9421 C 173.858 201.8405 177.7223 199.2601 180.187 196.8644 C 182.5793 194.559 185.0128 191.2024 187.9046 190.6021 C 190.4296 190.0786 193.3129 191.8678 193.0471 194.3395 C 192.7224 197.3443 189.3013 200.2294 186.926 202.8037 C 184.2548 205.4393 181.3425 209.2878 178.119 209.7226 C 175.3791 210.093 172.9392 207.5506 173.3944 204.9422 Z " stroke-width="0.60163" fill="#363a36" stroke="none"/><path d="M 178.969 210.7552 C 179.4325 207.6536 183.2968 205.0732 185.7615 202.6775 C 188.1538 200.3721 190.5873 197.0155 193.4791 196.4152 C 196.0041 195.8917 198.8874 197.6809 198.6215 200.1526 C 198.2969 203.1574 194.8758 206.0425 192.5004 208.6168 C 189.8293 211.2524 186.9169 215.1009 183.6934 215.5357 C 180.9535 215.9061 178.5136 213.3637 178.9689 210.7553 Z " stroke-width="0.60163" fill="#363a36" stroke="none"/><path d="M 184.8834 217.4124 C 185.3469 214.3107 189.2112 211.7304 191.6759 209.3346 C 194.0682 207.0293 196.5017 203.6726 199.3935 203.0723 C 201.9185 202.5489 204.8018 204.3381 204.536 206.8097 C 204.2113 209.8145 200.7902 212.6996 198.4149 215.2739 C 195.7437 217.9095 192.8313 221.7581 189.6079 222.1928 C 186.868 222.5632 184.4281 220.0209 184.8833 217.4125 Z " stroke-width="0.60163" fill="#363a36" stroke="none"/><path d="M 191.6908 223.2592 C 192.1543 220.1576 196.0186 217.5772 198.4834 215.1815 C 200.8757 212.8761 203.3091 209.5195 206.2009 208.9192 C 208.7259 208.3957 211.6092 210.1849 211.3434 212.6566 C 211.0187 215.6613 207.5976 218.5465 205.2223 221.1207 C 202.5512 223.7564 199.6388 227.6049 196.4153 228.0397 C 193.6754 228.41 191.2355 225.8677 191.6907 223.2593 Z " stroke-width="0.60163" fill="#363a36" stroke="none"/></g><g stroke-linecap="round"><path d="M 166.2824 225.6291 C 169.4372 215.6976 168.3682 214.4571 168.4462 213.4731 C 168.7542 209.5409 169.1795 205.3041 171.3021 201.9807 C 173.3127 198.8416 178.7074 194.9432 179.8734 195.0171 C 181.0324 195.3082 177.9044 200.2788 176.7456 202.8339 C 175.9925 204.5025 175.2337 206.1773 174.4297 207.8237 C 173.5941 209.5351 172.7332 211.241 171.8251 212.9169 C 171.3347 213.8206 171.1266 215.4196 170.2345 215.5663 Z " fill="none" stroke="#353937" stroke-width="1.83172"/><path d="M 159.1693 231.942 C 160.9819 230.0787 163.0235 228.3999 164.5717 226.3051 C 165.6884 224.7954 166.569 223.1007 167.3739 221.4017 C 169.0428 217.8787 169.8597 213.9106 171.9894 210.6469 C 174.5473 206.7389 177.4098 202.0374 181.8339 199.7812 C 183.7719 198.8795 185.8325 201.5716 187.9036 202.7523 C 190.5712 204.2884 193.0268 206.2243 195.3825 208.2126 C 198.5173 210.8567 203.0209 212.8884 204.3817 216.8374 C 205.3157 219.6753 202.6622 222.6303 201.1713 225.3339 C 200.2925 226.9319 198.7675 228.1034 197.3802 229.2898 C 195.9643 230.4978 194.4742 231.6805 192.7979 232.4872 C 191.1407 233.286 189.1925 233.3311 187.5027 234.0528 C 185.7495 234.8011 183.9891 235.6525 182.525 236.8712 C 178.3135 240.3787 174.4958 244.3582 170.5582 248.1697 C 169.2463 249.4396 168.4794 251.9225 166.767 252.1253 C 157.644 246.9869 153.9369 244.0295 152.7323 239.0542 C 152.2064 235.9962 157.0401 234.3261 159.1692 231.942 Z " fill="#ffffff" stroke="#ffffff" stroke-width="1.83172"/></g><path d="M 172.1375 214.1098 C 172.066 213.8832 172.0017 213.6797 171.9538 213.5285 C 171.907 213.3807 171.8782 213.2888 171.8782 213.2888 C 171.8782 213.2888 171.9071 213.3807 171.9538 213.5285 C 172.0017 213.6797 172.066 213.8833 172.1375 214.1098 C 172.2091 214.3363 172.2734 214.5399 172.3213 214.691 C 172.3681 214.8388 172.3969 214.9307 172.3969 214.9307 C 172.3969 214.9307 172.368 214.8388 172.3213 214.691 C 172.2734 214.5399 172.2091 214.3362 172.1375 214.1098 Z " fill="#eac18d" stroke="none" stroke-width="1.15123" stroke-linecap="butt"/><path d="M 185.1982 228.8731 C 180.4497 228.0663 175.3096 225.4159 172.7869 221.3041 C 171.4596 219.0176 174.4989 216.1225 175.9761 213.8729 C 177.7712 211.1461 179.7219 207.9235 182.7788 206.3645 C 184.1179 205.7415 185.5418 207.6017 186.973 208.4174 C 188.8164 209.479 190.5129 210.8165 192.1408 212.1905 C 194.307 214.0177 197.7549 215.3527 198.3593 218.1502 C 198.8382 220.526 196.0712 223.0055 193.7462 224.7418 C 191.4393 226.8153 188.4995 229.412 185.1982 228.8732 Z " fill="#000000" stroke="#000000" stroke-width="1.26571" stroke-linecap="round"/></g><path d="M 122.5903 285.6882 C 116.6034 288.2447 106.9357 289.6166 101.6378 284.9199 C 97.8495 280.821 100.0486 271.8569 103.891 267.5855 C 111.3796 259.2722 124.4761 258.2746 133.2652 251.2389 C 142.6478 244.5082 147.5883 232.1758 157.8626 226.697 C 162.8221 224.065 169.7851 227.3296 174.2378 230.7575 C 177.7257 233.4479 181.5522 239.4426 179.9666 243.9526 C 177.8411 249.9959 171.4737 254.058 166.1237 257.764 C 152.0921 267.493 138.4224 278.9137 122.5904 285.6882 Z " data-paper-data="{&quot;origRot&quot;:0}" fill="#ffffff" stroke="none" stroke-width="1.00573" stroke-linecap="round"/><path d="M 32.6497 246.4065 C 30.027 241.8325 32.277 230.7948 37.405 231.2974 C 48.9727 232.4386 56.4578 244.873 67.2893 249.5337 C 80.0572 255.6004 96.9397 254.0691 107.7919 263.294 C 113.0591 267.7734 115.5786 283.3172 108.932 284.2555 C 91.4838 286.3594 74.0306 277.1071 58.7808 269.4831 C 48.3975 264.2905 38.3632 256.3681 32.6496 246.4066 Z " data-paper-data="{&quot;origRot&quot;:0}" fill="#ffffff" stroke="none" stroke-width="1.00573" stroke-linecap="round"/><path d="M219.63854,121.12494c0,0 -4.86544,-14.61523 -7.95771,-21.10017c-3.78326,-7.93392 -2.57122,-19.63691 -2.57122,-19.63691c0,0 10.44105,-5.09743 17.74745,-5.30795c4.93456,-0.14215 13.61854,4.40415 13.61854,4.40415l10.614,27.63677z" data-paper-data="{&quot;origRot&quot;:0}" fill="#ffffff" stroke="none" stroke-width="0" stroke-linecap="butt" transform="matrix(1,0,0,1,-177.85282,158.6907)"/></g></g></svg>