<svg version="1.1" xmlns="http://www.w3.org/2000/svg" xmlns:xlink="http://www.w3.org/1999/xlink" width="696" height="517" viewBox="0,0,696,517"><g transform="translate(173.75,85.78334)"><g data-paper-data="{&quot;isPaintingLayer&quot;:true}" fill="#c44b14" fill-rule="nonzero" stroke="none" stroke-width="0" stroke-linecap="butt" stroke-linejoin="miter" stroke-miterlimit="10" stroke-dasharray="" stroke-dashoffset="0" style="mix-blend-mode: normal"><path d="M158.47025,408.71666v-213.75924h83.11488v213.75924z"/><path d="M334.58513,230.71666v-35.75924h65.88512v35.75924z"/><path d="M104.25,431.21666v-363h59v363z"/><path d="M104.25,109.21666v-52h246v52z"/><path d="M385.25,373.21666v-455.21666h137v455.21666z"/><path d="M-19.75,-3.78334v-82h484v82z"/><path d="M294.25,73.21666v-35h18v35z"/><path d="M198.25,73.21666v-35h18v35z"/><path d="M246.25,33.21666v-42h18v42z"/><path d="M150.25,33.21666v-42h18v42z"/><path d="M-110.75,175.21666v-256h126v256z"/><path d="M-173.75,400.21666v-254h117v254z"/><path d="M-70.75,398.21666v-140h88v140z"/></g></g></svg>