<svg version="1.1" xmlns="http://www.w3.org/2000/svg" xmlns:xlink="http://www.w3.org/1999/xlink" width="1736" height="627.15174" viewBox="0,0,1736,627.15174"><defs><linearGradient x1="-111.82179" y1="168.49999" x2="-259.50005" y2="168.49999" gradientUnits="userSpaceOnUse" id="color-1"><stop offset="0" stop-color="#430a3b"/><stop offset="1" stop-color="#430a3b" stop-opacity="0"/></linearGradient><linearGradient x1="591.82169" y1="191.49999" x2="739.49995" y2="191.49999" gradientUnits="userSpaceOnUse" id="color-2"><stop offset="0" stop-color="#430a3b"/><stop offset="1" stop-color="#430a3b" stop-opacity="0"/></linearGradient></defs><g transform="translate(573.50005,133.57587)"><g data-paper-data="{&quot;isPaintingLayer&quot;:true}" fill-rule="nonzero" stroke-linecap="butt" stroke-linejoin="miter" stroke-miterlimit="10" stroke-dasharray="" stroke-dashoffset="0" style="mix-blend-mode: normal"><path d="M-573.50005,446.21666v-149h1736v149z" fill="#f7f7f7" stroke="none" stroke-width="0"/><g stroke-width="2"><path d="M364.85865,300.14973v-81.5395h43.7514v81.5395z" fill="#ce1515" stroke="#ab1111"/><path d="M414.28145,211.83693c0,6.2645 -12.3332,6.4817 -27.5471,6.4817c-15.2138,0 -27.5471,-0.2172 -27.5471,-6.4817c0,-6.2646 12.3333,-11.343 27.5471,-11.343c15.2139,0 27.5471,5.0784 27.5471,11.343z" fill="#ce1515" stroke="#ab1111"/><path d="M368.36525,237.48813v-10.8009h35.9288v10.8009z" fill="#000000" stroke="#ab1111"/><path d="M364.04845,305.82123v-17.0144h46.182v17.0144z" fill="#000000" stroke="none"/><path d="M414.54885,208.86343c0,6.2645 -12.3333,6.4817 -27.5471,6.4817c-15.2139,0 -27.5471,-0.2172 -27.5471,-6.4817c0,-6.2645 12.3332,-11.3429 27.5471,-11.3429c15.2138,0 27.5471,5.0784 27.5471,11.3429z" fill="#ce1515" stroke="#ab1111"/><path d="M361.63485,200.18803c0,-0.3059 9.7218,-1.1933 11.5736,-1.8179c3.1396,-1.0589 9.0303,-2.2094 15.1149,-2.2094c9.6734,0 21.2306,4.0278 21.2306,4.8524c0,0.8246 -13.6803,0.7465 -23.3537,0.7465c-3.8816,0 -6.4014,6.3351 -8.8955,6.081c-1.9978,-0.2036 2.4321,-3.81 -0.0338,-5.8186c-2.1276,-1.733 -15.6361,-1.6054 -15.6361,-1.834z" fill="#f7f7f7" stroke="#f7f7f7"/></g><g><path d="M42.90125,315.41993v-55.7789h18.7861v55.7789z" fill="#443a1b" stroke="#0f0d06" stroke-width="3.5"/><path d="M1.44208,271.72649l49.72414,-73.44221l53.27587,73.44222z" fill="#296127" stroke="none" stroke-width="0"/><path d="M9.21566,235.47021l40.96769,-73.44221l43.89395,73.44221z" fill="#296127" stroke="none" stroke-width="0"/><path d="M13.10245,203.61217l36.27673,-73.44221l38.86793,73.44221z" fill="#296127" stroke="none" stroke-width="0"/></g><path d="M-259.50005,470.57587v-604.15174h147.67826v604.15174z" data-paper-data="{&quot;index&quot;:null}" fill="url(#color-1)" stroke="none" stroke-width="0"/><path d="M591.82169,493.57587v-604.15174h147.67826v604.15174z" data-paper-data="{&quot;index&quot;:null}" fill="url(#color-2)" stroke="none" stroke-width="0"/></g></g></svg>