<svg version="1.1" xmlns="http://www.w3.org/2000/svg" xmlns:xlink="http://www.w3.org/1999/xlink" width="336.55603" height="405.891" viewBox="0,0,336.55603,405.891"><defs><radialGradient cx="77.45626" cy="113.4559" r="20.05722" gradientUnits="userSpaceOnUse" id="color-1"><stop offset="0" stop-color="#ffff00"/><stop offset="1" stop-color="#ff9400"/></radialGradient></defs><g transform="translate(-24.48502,-6.2375)"><g data-paper-data="{&quot;isPaintingLayer&quot;:true}" fill-rule="nonzero" stroke-linejoin="miter" stroke-miterlimit="10" stroke-dasharray="" stroke-dashoffset="0" style="mix-blend-mode: normal"><g stroke="#000000" stroke-width="5" stroke-linecap="round"><path d="M328.23996,129.29916c2.81664,-0.45674 5.37615,-1.35609 7.52986,-1.9008c1.84366,-0.46692 3.94077,-0.2223 5.68706,0.53148c1.67799,0.72428 2.97029,2.22108 4.07426,3.6778c1.0661,1.40781 2.20597,3.00525 2.32391,4.76692c0.23863,3.56782 -0.17006,7.26534 -1.29307,10.66027c-0.62389,1.88517 -2.34419,3.23697 -3.76234,4.62683c-1.25999,1.23494 -2.6613,2.37672 -4.22236,3.19904c-1.47292,0.77616 -3.56928,2.43493 -4.75912,1.53342c-1.24254,-0.9413 0.02021,-3.48512 -0.10563,-5.21913c-0.40624,-5.62022 -0.49102,-11.30939 -1.49086,-16.85498c-0.25023,-1.38601 -2.80505,-2.27857 -2.17855,-3.50051z" data-paper-data="{&quot;origPos&quot;:null,&quot;index&quot;:null}" fill="#e1ba87"/><path d="M227.33399,134.80673c2.4986,-2.21029 6.63368,-0.37325 10.04386,-0.34752c6.373,0.16953 12.80432,0.94973 19.29754,0.92543c6.8922,-0.03589 14.12819,-0.60449 20.51629,-1.25745c8.11307,-0.79103 16.18069,-2.23277 24.2795,-3.27923c7.94543,-1.00954 17.62474,-3.01017 26.32844,-3.05147c2.20537,-0.00423 3.67711,0.41054 3.87011,2.50456c0.77231,8.37798 3.76836,18.03888 -1.24711,24.3863c-4.85088,6.6703 -15.21473,6.56858 -23.16172,7.82052c-8.5168,1.33597 -17.27806,1.19841 -25.8864,0.72138c-9.52475,-0.52382 -19.45382,-1.00717 -28.91928,-3.05669c-6.93014,-1.49993 -13.30463,-4.12327 -19.17657,-7.5008c-3.44223,-2.05671 -7.13506,-4.84755 -8.2086,-8.4776c-0.89602,-3.07061 -0.32835,-7.04844 2.26392,-9.38742z" data-paper-data="{&quot;origPos&quot;:null,&quot;index&quot;:null}" fill="#cc7700"/></g><path d="M311.24413,398.53302l-71.63205,-113.24685l36.34041,-22.98641c0,0 23.53386,40.13212 41.10258,64.99103c8.81898,12.47843 26.51258,30.68127 26.51258,30.68127l13.31328,11.6943z" data-paper-data="{&quot;index&quot;:null}" fill="#353535" stroke="#000000" stroke-width="5" stroke-linecap="butt"/><path d="M274.957,408.67926l-71.63205,-113.24685l36.34041,-22.98641c0,0 23.53386,40.13211 41.10258,64.99103c8.81898,12.47843 26.51258,30.68127 26.51258,30.68127l13.31328,11.6943z" data-paper-data="{&quot;index&quot;:null}" fill="#616161" stroke="#000000" stroke-width="5" stroke-linecap="butt"/><path d="M281.78547,275.13037c-0.06677,3.47156 1.20854,0.76294 -5.17508,2.11388c-25.53391,5.4016 -50.48278,11.21223 -75.83058,15.99916c-6.34604,1.19482 -4.37294,8.99655 -6.4632,0.85264c-8.36321,-32.57621 -13.94892,-66.64599 -18.61082,-100.31893c-1.8642,-13.37936 -2.36187,-26.37557 -0.70737,-39.19834c0.37641,-3.45718 1.78407,-5.21872 6.40409,-6.46125c18.47907,-4.96989 37.31061,-9.13624 56.2614,-11.87035c4.73789,-0.68382 10.32489,-1.6398 12.67049,1.92578c6.43786,9.78576 7.74874,22.17501 10.65004,33.52353c4.96692,19.46287 9.29916,40.98922 13.25039,61.59131c2.63003,13.69097 6.53138,27.68195 7.55066,41.84256z" data-paper-data="{&quot;index&quot;:null}" fill="#ff9400" stroke="#000000" stroke-width="5" stroke-linecap="round"/><path d="M193.66548,148.59628c2.42203,2.1452 1.41143,6.44751 1.5698,9.37794c0.1418,2.49344 0.18158,5.33647 -0.90658,7.4159c-1.08718,2.07923 -2.87432,3.60197 -5.1013,4.07183c-2.22697,0.46986 -4.47695,-0.20111 -6.31145,-1.6639c-1.83548,-1.46259 -3.10665,-3.99982 -3.82524,-6.41755c-0.76852,-2.57685 -2.0877,-5.83572 -0.87413,-8.5027c1.23533,-2.01646 4.52496,-2.2404 6.88201,-2.98503c2.7392,-0.86614 6.31615,-2.87688 8.56689,-1.29648z" data-paper-data="{&quot;index&quot;:null}" fill="#ff9400" stroke="none" stroke-width="1" stroke-linecap="round"/><path d="M176.20481,157.3903c0,0 2.9092,44.7503 7.14466,73.09968c4.23546,28.34938 12.69074,59.66536 12.69074,59.66536" data-paper-data="{&quot;index&quot;:null}" fill="none" stroke="#cc7700" stroke-width="5" stroke-linecap="round"/><g data-paper-data="{&quot;index&quot;:null}"><path d="M230.70929,36.82016c12.2803,8.0012 21.5117,20.68059 24.77243,36.13535c3.26073,15.45476 -0.0615,30.78279 -8.0627,43.06309c-8.0012,12.2803 -20.68059,21.5117 -36.13535,24.77243c-15.45476,3.26073 -30.78279,-0.0615 -43.06309,-8.0627c-12.2803,-8.0012 -21.5117,-20.68059 -24.77243,-36.13535c-3.26073,-15.45476 0.0615,-30.78279 8.0627,-43.06309c8.0012,-12.2803 20.68059,-21.5117 36.13535,-24.77243c15.45476,-3.26073 30.78279,0.0615 43.06309,8.0627z" data-paper-data="{&quot;origPos&quot;:null}" fill="#ffd499" stroke="#000000" stroke-width="6" stroke-linecap="round"/><path d="M164.77589,75.94939c13.88651,-1.27214 25.33023,-8.07207 38.41477,-9.84648c15.29233,-2.07363 31.12309,-3.15504 46.60903,-1.91322c3.86623,0.31463 -3.03033,3.594 -4.80038,5.10087c-2.17911,1.79145 -5.14245,4.65182 -8.37981,5.08957c-7.80028,1.04991 -16.5003,-1.501 -24.67005,-0.67156c-3.06077,0.53847 1.69,2.32316 -1.87844,3.20686c-14.27492,3.53405 -30.8461,1.54211 -44.53332,8.11837c-4.91524,2.50261 -5.5857,10.34496 -5.2719,16.18702c0.43079,7.19097 4.47496,14.17145 8.54532,19.91488c4.3154,6.08623 17.35987,14.72541 16.48751,15.17315c-0.87236,0.44774 -17.31272,-4.94957 -23.06524,-11.2303c-8.24971,-8.82093 -13.71242,-20.50489 -16.95841,-31.93705c-1.29622,-4.57904 1.68325,-9.38771 3.59117,-13.83539c1.3911,-3.23997 3.46624,-7.58292 6.57089,-8.23795c3.10465,-0.65504 5.72872,5.21367 9.33885,4.88123z" data-paper-data="{&quot;origPos&quot;:null}" fill="#e1ba87" stroke="none" stroke-width="1" stroke-linecap="round"/><path d="M141.82563,96.1688c-5.53423,-6.13261 -6.1685,-17.51894 -6.9002,-26.64957c-0.6922,-8.67701 -0.08146,-17.40306 2.28064,-25.52055c0.71335,-2.13628 3.3437,3.73314 4.91917,1.51716c6.30831,-8.88672 8.24846,-21.17903 14.79417,-29.18274c1.6645,-2.03138 0.42937,7.00015 2.91277,6.53955c9.90638,-1.86015 18.10808,-10.39517 27.92212,-11.76775c12.27891,-1.71276 25.01331,-2.50677 37.18571,1.86349c14.00194,5.08292 26.76613,14.31677 36.98995,25.15564c2.55546,2.70982 -8.22666,1.19915 -8.04542,4.2525c0.4366,7.40743 12.5746,16.57002 8.45553,20.70034c-4.9627,4.90312 -18.68477,-4.16236 -27.92853,-2.79461c-2.34574,0.34775 3.39343,6.85103 0.46663,7.05565c-11.46008,0.98709 -22.89819,-5.42984 -34.36699,-4.24673c-2.86759,0.29637 3.29107,6.66619 0.86607,7.73789c-7.26439,3.53174 -15.9386,2.38679 -24.0889,3.29389c-4.67662,0.52373 -9.67085,-1.15543 -14.11131,0.93325c-5.09424,2.43409 -7.46119,7.95158 -12.03346,11.99253c-3.20641,2.90961 -6.7443,11.75144 -9.31796,9.12006z" data-paper-data="{&quot;origPos&quot;:null}" fill="#8a541e" stroke="#000000" stroke-width="7" stroke-linecap="round"/><path d="M142.5439,89.88517c0,0 -2.57118,-15.36416 -3.08745,-23.11045c-0.35877,-5.40128 -0.83087,-10.94729 0.41778,-16.18488c0.62345,-1.49184 2.14789,0.64243 2.93538,-0.61932c4.09358,-5.50568 6.93325,-11.55828 10.11259,-17.46384c1.18978,-2.18877 0.89017,-5.62391 2.8682,-6.99274c1.24866,-0.75197 1.02418,2.10287 2.0354,2.3811c1.89941,0.32693 2.05035,0.76623 4.31328,-0.14353c9.05544,-3.64084 16.67999,-10.21753 26.05499,-12.14033c9.86856,-2.02489 20.14618,-1.52484 29.91018,0.07698c7.77079,1.45514 14.9207,5.22327 21.81529,8.93899c5.35234,2.88725 10.19841,7.18235 14.68329,11.46575c1.12194,1.06942 -0.61702,1.24622 -1.15803,1.77735c-1.25557,1.90115 -4.69685,3.23736 -4.20793,5.48688c1.32449,6.08873 8.80123,16.28383 8.80123,16.28383" data-paper-data="{&quot;origPos&quot;:null}" fill="none" stroke="#663b00" stroke-width="4" stroke-linecap="round"/><path d="M229.9789,79.39095c0.93844,0.61144 1.64373,1.58072 1.89291,2.76172c0.24917,1.181 -0.00442,2.35259 -0.61586,3.29103c-0.61144,0.93844 -1.58072,1.64373 -2.76172,1.89291c-1.181,0.24917 -2.35259,-0.00442 -3.29103,-0.61586c-0.93844,-0.61144 -1.64373,-1.58072 -1.89291,-2.76172c-0.24917,-1.181 0.00442,-2.35259 0.61586,-3.29103c0.61144,-0.93844 1.58072,-1.64373 2.76172,-1.89291c1.181,-0.24917 2.35259,0.00442 3.29103,0.61586z" data-paper-data="{&quot;origPos&quot;:null}" fill="#000000" stroke="none" stroke-width="1" stroke-linecap="butt"/><path d="M190.35937,88.51662c0.93844,0.61144 1.64373,1.58072 1.89291,2.76172c0.24917,1.181 -0.00442,2.35259 -0.61586,3.29103c-0.61144,0.93844 -1.58072,1.64373 -2.76172,1.89291c-1.181,0.24917 -2.35259,-0.00442 -3.29103,-0.61586c-0.93844,-0.61144 -1.64373,-1.58072 -1.89291,-2.76172c-0.24917,-1.181 0.00442,-2.35259 0.61586,-3.29103c0.61144,-0.93844 1.58072,-1.64373 2.76172,-1.89291c1.181,-0.24917 2.35259,0.00442 3.29103,0.61586z" data-paper-data="{&quot;origPos&quot;:null}" fill="#000000" stroke="none" stroke-width="1" stroke-linecap="butt"/></g><g stroke-width="5" stroke-linecap="round"><path d="M97.33903,45.50236c1.01988,1.79352 2.54263,4.44314 3.69664,7.20255c0.82062,1.96324 0.95677,4.15651 1.31924,6.25276c0.72523,4.20101 1.3859,8.42586 1.94372,12.6521c0.24917,1.88931 0.19486,3.81951 0.47789,5.70458c0.31634,2.10453 0.87979,4.16992 1.31924,6.25276c1.65961,7.866 3.13726,15.79797 4.98381,23.62157c0.46212,1.95618 1.7992,3.50568 1.86743,5.41147c0.13383,3.73655 0.6643,7.95695 -1.27503,11.15414c-1.23161,2.03197 -4.50483,1.54846 -6.80094,2.16059c-2.05551,0.54838 -4.12801,1.20191 -6.25276,1.31924c-4.123,0.22843 -8.2691,-0.36125 -12.39708,-0.2871c-2.14138,0.0382 -4.28779,0.26609 -6.39934,0.62448c-3.72993,0.63316 -7.48767,1.27211 -11.11605,2.34533c-2.09014,0.61808 -3.93697,1.89448 -5.95959,2.70877c-1.7686,0.71129 -3.60958,1.24488 -5.41141,1.86742c-1.80189,0.62256 -3.57267,1.36478 -5.41148,1.86737c-2.05287,0.56088 -4.16985,0.87978 -6.25276,1.31924c-1.85079,0.39049 -3.97293,2.20546 -5.55799,1.17266c-1.58505,-1.03274 -1.01436,-3.67266 -1.17266,-5.55799c-0.16306,-1.9423 0.26076,-3.90258 0.21681,-5.85115c-0.04345,-1.90522 -0.30527,-3.80637 -0.47791,-5.70464c-0.19431,-2.13166 -0.30689,-4.28202 -0.62448,-6.39934c-0.28155,-1.87087 -0.78217,-3.7072 -1.17266,-5.55799c-0.39049,-1.85079 -0.78217,-3.7072 -1.17266,-5.55799c-0.3905,-1.85085 -1.01437,-3.67272 -1.17267,-5.55806c-0.16306,-1.9423 0.37995,-3.9088 0.21687,-5.85116c-0.15829,-1.88527 -0.78217,-3.7072 -1.17266,-5.55799c-1.22015,-5.7831 -2.44442,-11.58571 -3.66457,-17.36881c-0.78099,-3.70165 -3.37872,-7.47718 -2.34533,-11.11605c0.67458,-2.37448 4.24916,-2.55394 6.50772,-3.55005c1.95839,-0.86458 4.10611,-1.25097 6.10624,-2.01402c2.25249,-0.85982 4.39522,-2.01293 6.65437,-2.85529c2.2269,-0.82982 4.50629,-1.54151 6.80087,-2.16058c1.82637,-0.49278 3.67397,-1.00157 5.55806,-1.17267c2.17144,-0.19835 4.36545,0.04696 6.54592,0.07022c2.18047,0.02326 4.37443,0.26865 6.54593,0.07029c1.88402,-0.17108 3.6816,-0.93789 5.55799,-1.17266c3.7823,-0.47437 7.60051,-0.7923 11.40922,-0.9558c1.94767,-0.08294 3.90206,0.23766 5.85115,0.21681c0.48791,-0.00573 0.92493,-0.87876 1.38953,-0.29317z" fill="#ffffcc" stroke="#000000"/><path d="M26.40177,68.45158c-1.01168,-0.92881 0.10842,-2.8153 0.58325,-4.11433c0.69113,-1.8903 1.52414,-3.82367 2.86833,-5.32208c2.72257,-3.03444 5.61906,-6.11145 9.17533,-8.10415c3.51973,-1.97331 7.69787,-2.47026 11.59094,-3.53403c1.93905,-0.52954 3.87586,-0.84242 5.90534,-1.24594c8.11771,-1.61544 16.14756,-4.03241 24.38963,-4.78298c3.9843,-0.36319 8.25349,-0.11877 11.92225,1.47579c1.85337,0.80491 2.83971,3.14098 3.25689,5.11825c0.81852,3.87952 1.70612,8.18273 0.33438,11.90314c-0.65906,1.78784 -3.53471,1.53096 -5.41141,1.86742c-5.72141,1.02425 -11.51281,1.85431 -17.31461,2.20182c-7.82252,0.46901 -15.69603,0.14617 -23.53225,0.248c-1.95823,0.02568 -3.86799,-0.10403 -5.77786,0.13054c-2.22945,0.27443 -4.46314,0.70073 -6.60011,1.39253c-2.18478,0.70624 -4.07593,2.24025 -6.307,2.78207c-1.64437,0.39917 -1.17619,-1.86103 -2.30299,0.97028z" fill="#ff0000" stroke="#000000"/><path d="M38.29489,86.98699c0,0 5.81096,-2.06496 7.8973,-3.84329c1.61826,-1.02498 1.83968,-5.67107 2.74085,-4.20668c3.58811,5.83507 5.49378,19.15988 5.49378,19.15988" fill="none" stroke="#ff9400"/><path d="M68.13107,77.06359c0.30674,-0.54803 -0.46536,-0.20375 0,0c1.863,0.81587 4.38134,0.81718 5.59621,2.44768c1.13964,1.5287 0.91063,3.84841 0.47789,5.70458c-0.49402,2.12308 -1.15122,4.85532 -3.14246,5.74273c-1.93164,0.86039 -4.7252,-0.03932 -6.14432,-1.60634c-1.27938,-1.41361 -0.95954,-3.85986 -0.47795,-5.70457c0.63644,-2.43179 2.46239,-4.39176 1.6064,-6.14433z" fill="none" stroke="#ff9400"/><path d="M86.34121,73.94714c0.74823,-0.40895 1.43993,1.03295 1.82922,1.79114c0.87014,1.6959 1.84703,3.50575 1.86742,5.41141c0.02039,1.90566 -0.10839,4.48723 -1.75291,5.44962c-1.74394,1.02102 -4.64124,0.58588 -5.99781,-0.91162c-1.4377,-1.58631 -1.32365,-4.37524 -0.62448,-6.39934c0.77218,-2.23546 2.60243,-4.20939 4.13038,-4.49985z" fill="none" stroke="#ff9400"/><path d="M49.2765,111.52012c0,0 3.87306,-3.96515 6.06796,-5.63434c1.78603,-1.35796 3.89008,-2.2474 5.81308,-3.40349c3.65268,-2.19593 6.95543,-5.12201 10.93125,-6.66043c5.73748,-2.22068 17.91699,-4.50592 17.91699,-4.50592" fill="none" stroke="#ff9400"/><path d="M84.70882,104.04441c1.5913,0.51183 3.29669,1.33781 4.20668,2.74085c1.02861,1.58702 1.54331,3.70332 1.17266,5.55799c-0.39313,1.96824 -1.86225,3.63818 -3.28903,5.04803c-1.43782,1.41943 -3.35564,2.26965 -5.11825,3.25689c-1.7001,0.95373 -3.35708,2.15968 -5.26489,2.5622c-1.90775,0.40251 -3.90268,-0.14466 -5.85116,-0.21687c-1.94842,-0.07222 -3.99527,0.37995 -5.85115,-0.21681c-1.91044,-0.61433 -4.81989,-1.35465 -5.04803,-3.28903c-0.23065,-1.96003 2.64012,-3.11578 4.13038,-4.49985c1.54983,-1.43871 3.33954,-2.6073 4.97166,-3.95165c3.1025,-2.55446 5.56743,-6.14264 9.24861,-7.7568c2.05374,-0.90059 4.55763,0.07758 5.70458,-0.47789z" fill="url(#color-1)" stroke="#ff9400"/></g><path d="M176.19238,123.89911c0,0 -1.14333,-12.85305 4.48645,-16.2768c3.60444,-2.19205 24.63666,-9.38611 38.94286,-11.62889c8.03862,-1.26022 13.61115,1.56277 13.61115,1.56277l3.22457,12.86136z" fill="#ffffff" stroke="#000000" stroke-width="3" stroke-linecap="round"/><path d="M189.66452,104.19343l1.96119,9.29536" fill="none" stroke="#000000" stroke-width="3" stroke-linecap="round"/><path d="M199.69373,102.07741l1.23864,5.87075" fill="none" stroke="#000000" stroke-width="3" stroke-linecap="round"/><path d="M176.25378,87.86012c0,0 25.18122,4.81522 31.14724,5.95606c2.40515,0.45992 3.92673,-4.41353 3.92673,-4.41353c0,0 3.27195,3.51963 5.01635,1.99946c3.61011,-3.14606 16.62214,-14.48549 16.62214,-14.48549c0,0 -13.19017,0.94034 -21.68599,2.54953c-10.71934,2.03035 -35.02646,8.39397 -35.02646,8.39397z" fill="#ffd499" stroke="none" stroke-width="0" stroke-linecap="round"/><g data-paper-data="{&quot;index&quot;:null}" stroke-width="5" stroke-linecap="round"><path d="M181.39793,161.58118c-2.44232,2.8921 -6.94554,3.96283 -10.92425,4.46214c-6.73431,0.73176 -13.62565,0.57103 -20.57405,-0.84177c-9.49081,-1.92889 -18.77641,-5.47814 -27.70816,-8.82782c-8.07379,-3.02402 -16.1511,-6.4204 -23.41219,-11.06772c-6.77308,-4.34127 -16.30339,-8.41476 -18.06324,-16.47246c-2.04045,-7.82829 4.58684,-15.46953 8.66226,-22.83014c1.0186,-1.83972 2.53291,-1.62777 4.55042,-0.73732c7.95277,3.5371 16.01109,9.26029 22.88018,13.37899c6.99477,4.21414 13.80201,8.77777 20.91255,12.76383c5.5866,3.16606 11.98344,6.59585 18.27971,9.39958c5.93553,2.63275 12.13785,4.50399 18.0413,6.91097c3.13277,1.34738 7.65753,1.32778 9.05671,4.35615c1.43316,3.18384 0.35374,7.05422 -1.70125,9.50556z" data-paper-data="{&quot;origPos&quot;:null,&quot;index&quot;:null}" fill="#ff9400" stroke="#000000"/><path d="M178.12992,158.29788c0,0 -10.7875,4.0231 -16.02568,3.22299c-14.77131,-1.62312 -29.24905,-5.52964 -42.88321,-10.35761c-7.22508,-2.56225 -13.86572,-7.33933 -20.10106,-11.21415c-5.39281,-3.34536 -15.43644,-11.17884 -15.43644,-11.17884" data-paper-data="{&quot;origPos&quot;:null,&quot;index&quot;:null}" fill="none" stroke="#cc7700"/><path d="M88.39949,106.16751c0.32296,1.33468 -2.3698,1.60431 -2.93746,2.89332c-2.27031,5.15742 -3.68457,10.66861 -5.39515,16.03761c-0.52825,1.65633 0.10387,4.42506 -1.3245,5.04933c-1.36781,0.59797 -3.01753,-1.50549 -4.26787,-2.60486c-1.32513,-1.16494 -2.42027,-2.60305 -3.35616,-4.09862c-1.05332,-1.68322 -2.40944,-3.40012 -2.57471,-5.37898c-0.29699,-3.56352 0.1712,-7.25399 1.2384,-10.66672c0.5271,-1.68515 2.00919,-2.97135 3.37529,-4.09053c1.41424,-1.15775 3.02103,-2.31043 4.82195,-2.6218c1.87424,-0.32402 3.97033,-0.07096 5.65345,0.81457c1.96635,1.03379 4.24425,2.50727 6.87568,3.61075z" data-paper-data="{&quot;origPos&quot;:null,&quot;index&quot;:null}" fill="#ffd499" stroke="#000000"/></g></g></g></svg>