<svg version="1.1" xmlns="http://www.w3.org/2000/svg" xmlns:xlink="http://www.w3.org/1999/xlink" width="197.2034" height="341.7767" viewBox="0,0,197.2034,341.7767"><g transform="translate(-138.29249,-52.23013)"><g data-paper-data="{&quot;isPaintingLayer&quot;:true}" fill-rule="nonzero" stroke-linejoin="miter" stroke-miterlimit="10" stroke-dasharray="" stroke-dashoffset="0" style="mix-blend-mode: normal"><g stroke-width="1" stroke-linecap="butt"><path d="M163.66494,350.35057c0,0 29.89699,-1.92151 40.25708,-9.24049c8.97611,-6.34126 18.34891,-32.16227 18.34891,-32.16227l22.90625,11.29554c0,0 -9.17035,36.49048 -18.45876,43.69826c-13.46395,10.44798 -54.55638,12.96125 -54.55638,12.96125z" fill="#4d87ff" stroke="#0046d1"/><path d="M166.08182,386.58971c-14.73147,5.3302 -16.30054,-9.82917 -18.75925,-17.51231c-2.45871,-7.68316 0.52597,-16.32249 6.50177,-18.23482c5.97575,-1.91232 11.89318,-2.66525 14.35189,5.0179c2.45871,7.68316 9.65771,26.47702 -2.09438,30.72923z" data-paper-data="{&quot;index&quot;:null}" fill="#c58d3b" stroke="#1c1100"/></g><g data-paper-data="{&quot;index&quot;:null}" stroke-width="1" stroke-linecap="butt"><path d="M153.35837,272.40755c-3.17657,3.48213 -8.50397,3.79418 -11.89904,0.69702c-3.39507,-3.09717 -3.57217,-8.43075 -0.3956,-11.91286c3.17655,-3.4821 8.50395,-3.7942 11.89902,-0.69702c3.39508,3.09719 3.57219,8.43075 0.39563,11.91285z" data-paper-data="{&quot;origPos&quot;:null}" fill="#ffd4a0" stroke="#e7c091"/><path d="M140.40784,258.15957c0,0 25.71778,-33.30324 48.67318,-45.53985c22.95539,-12.23663 38.51626,-18.59191 52.48151,-8.38175c13.96526,10.21015 2.14582,21.438 2.14582,21.438c0,0 -30.7888,2.55553 -45.07798,10.12563c-14.8785,7.88232 -42.49656,36.26947 -42.49656,36.26947z" data-paper-data="{&quot;origRot&quot;:0,&quot;origPos&quot;:null}" fill="#e80000" stroke="#740000"/></g><path d="M290.09136,379.52787l-81.36582,-60.53133l33.56933,-9.67101l64.41387,47.81737z" fill="#4d87ff" stroke="#0046d1" stroke-width="1" stroke-linecap="butt"/><path d="M318.73581,355.33143c12.91981,8.86035 1.51879,18.974 -3.2896,25.45129c-4.8084,6.4773 -13.56746,9.08978 -18.60537,5.34991c-5.03787,-3.73984 -9.09982,-8.1083 -4.29142,-14.5856c4.8084,-6.4773 15.87953,-23.28399 26.18634,-16.21558z" fill="#c58d3b" stroke="#1c1100" stroke-width="1" stroke-linecap="butt"/><g><path d="M230.14097,193.88592l0.55582,-10.6534l25.99428,1.3562l-0.55582,10.6534z" fill="#ffd5a1" stroke="#525252" stroke-width="1" stroke-linecap="butt"/><path d="M255.44626,186.41579l-0.21387,7.79251c0,0 -22.24527,-0.80028 -22.22986,-1.09556c0.11443,-2.1933 -2.30843,-11.23184 -0.44671,-11.13471c4.09346,0.35886 22.89045,4.43776 22.89045,4.43776z" fill="#e7c091" stroke="none" stroke-width="0" stroke-linecap="butt"/><path d="M249.05251,192.20231c-40.91977,-2.13491 -72.4641,-35.0631 -70.45627,-73.54716c2.00783,-38.48406 36.8075,-67.95088 77.72727,-65.81597c40.91977,2.13491 72.4641,35.0631 70.45627,73.54716c-2.00783,38.48406 -36.8075,67.95088 -77.72727,65.81597z" data-paper-data="{&quot;index&quot;:null}" fill="#e7c091" stroke="#525252" stroke-width="1" stroke-linecap="butt"/><path d="M324.29313,134.27868c-2.28993,22.33797 -13.36988,34.74793 -32.49147,46.52046c-13.09475,8.06201 -21.807,9.7032 -37.17627,10.20766c-26.75677,0.87825 -55.42092,-29.09273 -62.19946,-54.76175c-6.37519,-24.1416 -6.58094,-36.24884 20.15338,-34.85403c0,0 9.53978,-3.16402 0.252,4.70509c-3.85812,3.26883 22.74463,-4.05991 36.76556,-0.75889c0,0 6.41092,-0.81956 -2.37558,6.86654c-9.61224,8.40844 21.44135,-6.5642 31.35595,-3.43831c0,0 -10.04544,0.7374 -3.81582,9.72588c0,0 21.31369,0.08524 27.86841,-1.30706c8.98784,-1.90912 20.96863,-10.67484 20.96863,-10.67484c0,0 2.54701,9.68956 2.38783,16.71023c-0.08747,3.85725 -1.02212,4.51284 -1.69321,11.05899z" data-paper-data="{&quot;index&quot;:null}" fill="#ffd5a1" stroke="none" stroke-width="0" stroke-linecap="butt"/><path d="M256.07536,53.60962c17.75548,0.92636 27.22604,4.30796 42.08894,14.06548c10.07286,6.61286 16.53798,12.10172 23.89388,21.64549c3.25707,4.22591 3.45291,12.27221 3.45291,12.27221c-1.4025,7.44818 -40.9636,13.81296 -40.9636,13.81296c-6.58817,-0.98905 22.24641,-20.63287 14.21281,-16.8322c-8.03358,3.80069 -39.56096,9.29633 -39.56096,9.29633c-11.31863,-0.43604 29.40271,-21.17062 13.56026,-18.56147c-15.84249,2.6091 -50.48839,14.83652 -50.48839,14.83652c-9.53245,-0.49734 24.1732,-19.19644 14.66032,-19.98331c-10.17598,-0.84174 -13.67967,2.25069 -23.76475,7.05856c-7.12133,3.39493 -31.17328,18.32826 -30.76224,10.44983c0.74247,-14.23087 13.24255,-25.12537 24.47203,-33.89847c12.61887,-9.85855 33.20728,-14.99625 49.19888,-14.16192z" data-paper-data="{&quot;index&quot;:null}" fill="#ffef4d" stroke="#716a22" stroke-width="1" stroke-linecap="butt"/><path d="M277.8217,133.88371c-0.62707,12.01902 -3.23399,21.65286 -5.82268,21.5178c-2.58871,-0.13506 -4.17893,-9.9879 -3.55187,-22.0069c0.62707,-12.01902 3.23399,-21.65286 5.82268,-21.5178c2.58871,0.13506 4.17893,9.9879 3.55187,22.0069z" data-paper-data="{&quot;index&quot;:null}" fill="#000000" stroke="#1c1c1c" stroke-width="1" stroke-linecap="butt"/><path d="M291.49944,135.26879c-0.62707,12.01902 -3.23399,21.65288 -5.8227,21.51782c-2.58871,-0.13506 -4.17893,-9.9879 -3.55187,-22.00692c0.62707,-12.01902 3.23394,-21.65286 5.82268,-21.5178c2.58871,0.13506 4.17895,9.9879 3.55189,22.0069z" data-paper-data="{&quot;index&quot;:null}" fill="#000000" stroke="#1c1c1c" stroke-width="1" stroke-linecap="butt"/><path d="M258.37247,168.04874l39.48614,2.06011" fill="none" stroke="#000000" stroke-width="1" stroke-linecap="round"/></g><path d="M203.36416,319.73607l6.59693,-126.44327l69.71211,3.63709l-6.59693,126.44331z" fill="#e80000" stroke="#740000" stroke-width="1" stroke-linecap="butt"/><path d="M165.59398,394.00682z" fill="#c58d3b" stroke="#784800" stroke-width="1" stroke-linecap="butt"/><path d="M215.6376,214.01792l1.01221,-19.40096l8.52272,0.44466l-1.01221,19.40096z" fill="#e80000" stroke="none" stroke-width="0" stroke-linecap="butt"/><g data-paper-data="{&quot;index&quot;:null}" stroke-width="1" stroke-linecap="butt"><path d="M328.84237,260.14056c4.51881,1.34018 7.12278,5.99829 5.8161,10.40414c-1.30668,4.40585 -6.02922,6.89105 -10.54801,5.55086c-4.51879,-1.34018 -7.12276,-5.99827 -5.81608,-10.40412c1.30669,-4.40586 6.02921,-6.89106 10.548,-5.55089z" data-paper-data="{&quot;origPos&quot;:null}" fill="#ffd4a0" stroke="#e7c091"/><path d="M321.6678,278.00804c0,0 -41.18477,-8.62117 -62.20685,-23.94296c-21.02208,-15.32179 -33.52692,-26.55385 -30.42853,-43.57371c3.0984,-17.01987 18.35659,-11.27956 18.35659,-11.27956c0,0 15.72587,26.59283 28.76939,36.15073c13.58147,9.9521 51.17088,22.4271 51.17088,22.4271z" data-paper-data="{&quot;origRot&quot;:0,&quot;origPos&quot;:null}" fill="#e80000" stroke="#740000"/></g></g></g></svg>