<svg version="1.1" xmlns="http://www.w3.org/2000/svg" xmlns:xlink="http://www.w3.org/1999/xlink" width="56.3" height="65.83333" viewBox="0,0,56.3,65.83333"><defs><linearGradient x1="241.48102" y1="198.45831" x2="250.19673" y2="198.45831" gradientUnits="userSpaceOnUse" id="color-1"><stop offset="0" stop-color="#7a003b"/><stop offset="1" stop-color="#aa85ae"/></linearGradient><linearGradient x1="241.70848" y1="194.89862" x2="252.58019" y2="194.89862" gradientUnits="userSpaceOnUse" id="color-2"><stop offset="0" stop-color="#7a003b"/><stop offset="1" stop-color="#b9aed1"/></linearGradient><linearGradient x1="234.99992" y1="192.59769" x2="234.99992" y2="199.46209" gradientUnits="userSpaceOnUse" id="color-3"><stop offset="0" stop-color="#6e1f27"/><stop offset="1" stop-color="#85527e"/></linearGradient></defs><g transform="translate(-211.85,-151.85)"><g data-paper-data="{&quot;isPaintingLayer&quot;:true}" fill-rule="nonzero" stroke-linejoin="miter" stroke-miterlimit="10" stroke-dasharray="" stroke-dashoffset="0" style="mix-blend-mode: normal"><path d="M213.1,206.9v-53.8h53.8v53.8z" fill="#571b32" stroke="none" stroke-width="0" stroke-linecap="butt"/><g stroke-width="1"><path d="M219.40777,189.60342c0,-9.89765 8.68455,-17.92128 19.39749,-17.92128c10.71294,0 15.11719,8.21131 17.03555,17.92128c2.50957,12.70246 -6.32261,17.92128 -17.03555,17.92128c-10.71294,0 -19.39749,-8.02363 -19.39749,-17.92128z" data-paper-data="{&quot;origPos&quot;:null}" fill="#6851ac" stroke="#4e3c82" stroke-linecap="butt"/><path d="M225.52682,203.63772c-15.23114,-1.03159 -12.38331,-17.87137 -12.38331,-17.87137c0,0 6.29151,6.71532 6.05093,6.33237c-4.17799,-6.65052 0.28144,-20.12288 0.28144,-20.12288c0,0 4.57085,6.29499 4.64374,6.05093c2.84969,-9.54119 19.84144,-16.04201 19.84144,-16.04201c0,0 -1.50945,10.02079 -1.40719,9.99108c10.27146,-2.98478 23.35943,5.48806 23.35943,5.48806c0,0 -11.0181,4.15035 -10.83539,4.22158c7.88346,3.07359 8.7246,16.04201 8.7246,16.04201l-8.02101,-7.88029" fill="#6851ac" stroke="#4e3c82" stroke-linecap="round"/><path d="M248.44213,183.84944l-7.96694,17.72823l1.43548,-7.82339z" fill="#ff8fbb" stroke="none" stroke-linecap="round"/><g data-paper-data="{&quot;index&quot;:null}"><path d="M250.19673,200.81692c0,0 -4.89613,0.67906 -7.38109,-0.81192c-2.48496,-1.49098 -0.73811,-4.0596 -0.73811,-4.0596z" data-paper-data="{&quot;origPos&quot;:null}" fill="url(#color-1)" stroke="none" stroke-linecap="round"/><path d="M241.70848,196.68352l0.76631,-2.99735c0,0 1.5557,-2.24085 7.19676,-4.39515c8.48324,-1.13087 5.77681,9.30775 1.36909,11.35934c-0.20152,0.0938 -0.32914,0.25077 -0.47484,0.31419" data-paper-data="{&quot;origPos&quot;:null}" fill="url(#color-2)" stroke="#4e3c82" stroke-linecap="round"/><path d="M244.60511,192.52113c0.87644,0 1.58693,1.53665 1.58693,3.4322c0,1.89555 -0.71049,3.4322 -1.58693,3.4322c-0.87644,0 -1.58693,-1.53665 -1.58693,-3.4322c0,-1.89555 0.71049,-3.4322 1.58693,-3.4322z" data-paper-data="{&quot;origPos&quot;:null}" fill="#004e29" stroke="none" stroke-linecap="butt"/><path d="M244.46818,193.97308v3.56482" fill="none" stroke="#000000" stroke-linecap="round"/></g><path d="M235.57814,202.72199c0,-1.0082 0.51668,-2.65719 0.51668,-2.65719c0,0 3.13417,-0.73811 5.09295,-0.73811c1.78595,0 4.50246,0.73811 4.50246,0.73811c0,0 0.51668,1.84162 0.51668,2.87862c0,1.46909 -0.51668,3.54292 -0.51668,3.54292c0,0 -2.11525,0.51668 -3.46911,0.51668c-2.39087,0 -6.1263,-0.51668 -6.1263,-0.51668c0,0 -0.51668,-2.26646 -0.51668,-3.76435z" fill="#e4a547" stroke="#8f6320" stroke-linecap="butt"/><path d="M243.87518,204.7583c0,0 -0.50975,-0.29291 -0.73347,-0.19227c-0.22869,0.10287 -0.62408,0.80295 -0.62408,0.80295l-1.04268,-0.75477l-1.04038,-0.03542l-1.12614,0.82382c0,0 -0.56154,-0.88873 -0.84399,-1.01197c-0.21385,-0.09331 -0.59846,0.30631 -0.59846,0.30631" fill="none" stroke="#8f6320" stroke-linecap="round"/><g><path d="M237.5275,196.02197c0,0 1.74685,2.56862 -0.73811,4.0596c-2.48496,1.49098 -7.38109,0.81192 -7.38109,0.81192z" data-paper-data="{&quot;origPos&quot;:null}" fill="#ffffff" stroke="none" stroke-linecap="round"/><path d="M229.03925,201.0411c-5.77555,-0.27693 -7.39816,-14.84036 0.89423,-11.67353c5.64106,2.1543 7.19675,4.39515 7.19675,4.39515l0.76631,2.99736" data-paper-data="{&quot;origPos&quot;:null}" fill="#ffffff" stroke="#4e3c82" stroke-linecap="round"/><path d="M236.58685,196.02989c0,1.89555 -0.7105,3.4322 -1.58693,3.4322c-0.87644,0 -1.58693,-1.53665 -1.58693,-3.4322c0,-1.89555 0.7105,-3.4322 1.58693,-3.4322c0.87644,0 1.58693,1.53665 1.58693,3.4322z" data-paper-data="{&quot;origPos&quot;:null}" fill="url(#color-3)" stroke="none" stroke-linecap="butt"/></g></g><path d="M213.1,206.9v-53.8h53.8v53.8z" fill="none" stroke="#000000" stroke-width="2.5" stroke-linecap="butt"/><path d="M266.9,206.9v9.53333h-53.8v-9.53333z" fill="#000000" stroke="#000000" stroke-width="2.5" stroke-linecap="butt"/><text transform="translate(215.98557,214.81836) scale(0.20022,0.20829)" font-size="40" xml:space="preserve" fill="#ffffff" fill-rule="nonzero" stroke="none" stroke-width="1" stroke-linecap="butt" stroke-linejoin="miter" stroke-miterlimit="10" stroke-dasharray="" stroke-dashoffset="0" font-family="&quot;ヒラギノ角ゴ Pro W3&quot;, &quot;Hiragino Kaku Gothic Pro&quot;, Osaka, &quot;メイリオ&quot;, Meiryo, &quot;ＭＳ Ｐゴシック&quot;, &quot;MS PGothic&quot;" font-weight="normal" text-anchor="start" style="mix-blend-mode: normal"><tspan x="0" dy="0">Christopher</tspan></text></g></g></svg>