<svg version="1.1" xmlns="http://www.w3.org/2000/svg" xmlns:xlink="http://www.w3.org/1999/xlink" width="578" height="472" viewBox="0,0,578,472"><g transform="translate(43,50.45122)"><g data-paper-data="{&quot;isPaintingLayer&quot;:true}" fill-rule="nonzero" stroke-linecap="butt" stroke-linejoin="miter" stroke-miterlimit="10" stroke-dasharray="" stroke-dashoffset="0" style="mix-blend-mode: normal"><path d="M-43,421.54879v-472l298,10l280,424z" fill="#ebebeb" stroke="none" stroke-width="0"/><g stroke="none"><g><g><g><g><g fill="#dadada" stroke-width="0.5"><path d="M77.81583,354.74726c0,-3.52021 2.8537,-6.37391 6.37391,-6.37391c3.52021,0 6.37391,2.8537 6.37391,6.37391c0,3.5202 -2.8537,6.37392 -6.37391,6.37392c-3.5202,0 -6.37391,-2.85371 -6.37391,-6.37392z"/><path d="M112.3766,355.03056c0,-3.5202 2.8537,-6.37391 6.37391,-6.37391c3.52021,0 6.37391,2.85371 6.37391,6.37391c0,3.52021 -2.8537,6.37391 -6.37391,6.37391c-3.52021,0 -6.37391,-2.8537 -6.37391,-6.37391z"/><path d="M146.37079,354.74726c0,-3.52021 2.8537,-6.37391 6.37391,-6.37391c3.52021,0 6.37391,2.8537 6.37391,6.37391c0,3.5202 -2.8537,6.37392 -6.37391,6.37392c-3.52021,0 -6.37391,-2.85371 -6.37391,-6.37392z"/><path d="M146.65407,388.1749c0,-3.52021 2.8537,-6.37391 6.37391,-6.37391c3.52021,0 6.37392,2.8537 6.37392,6.37391c0,3.5202 -2.85371,6.37391 -6.37392,6.37391c-3.52021,0 -6.37391,-2.8537 -6.37391,-6.37391z"/><path d="M112.0933,389.02475c0,-3.5202 2.8537,-6.37391 6.37391,-6.37391c3.52021,0 6.37391,2.85371 6.37391,6.37391c0,3.52021 -2.85371,6.37391 -6.37391,6.37391c-3.52021,0 -6.37391,-2.8537 -6.37391,-6.37391z"/><path d="M77.81583,388.45817c0,-3.52021 2.8537,-6.37391 6.37391,-6.37391c3.52021,0 6.37391,2.8537 6.37391,6.37391c0,3.5202 -2.8537,6.37392 -6.37391,6.37392c-3.5202,0 -6.37391,-2.85371 -6.37391,-6.37392z"/></g><g fill="none" stroke-width="1" font-family="sans-serif" font-weight="normal" font-size="12" text-anchor="start"/></g><g><g fill="#dadada" stroke-width="0.5"><path d="M-24.73334,355.31384c0,-3.5202 2.85371,-6.37392 6.37391,-6.37392c3.52021,0 6.37391,2.85371 6.37391,6.37392c0,3.52021 -2.85371,6.37391 -6.37391,6.37391c-3.52021,0 -6.37391,-2.8537 -6.37391,-6.37391z"/><path d="M9.82743,355.59713c0,-3.5202 2.85371,-6.37391 6.37391,-6.37391c3.52021,0 6.37391,2.85371 6.37391,6.37391c0,3.52021 -2.85371,6.37392 -6.37391,6.37392c-3.52021,0 -6.37391,-2.85371 -6.37391,-6.37392z"/><path d="M43.82163,355.31384c0,-3.5202 2.85371,-6.37392 6.37391,-6.37392c3.52021,0 6.37391,2.85371 6.37391,6.37392c0,3.52021 -2.85371,6.37391 -6.37391,6.37391c-3.5202,0 -6.37391,-2.8537 -6.37391,-6.37391z"/><path d="M44.10491,388.74147c0,-3.52021 2.85371,-6.37391 6.37391,-6.37391c3.52021,0 6.37391,2.8537 6.37391,6.37391c0,3.5202 -2.85371,6.37392 -6.37391,6.37392c-3.5202,0 -6.37391,-2.85371 -6.37391,-6.37392z"/><path d="M9.54413,389.59133c0,-3.5202 2.85371,-6.37391 6.37391,-6.37391c3.52021,0 6.37391,2.85371 6.37391,6.37391c0,3.52021 -2.85371,6.37391 -6.37391,6.37391c-3.52021,0 -6.37391,-2.8537 -6.37391,-6.37391z"/><path d="M-24.73334,389.02475c0,-3.5202 2.85371,-6.37391 6.37391,-6.37391c3.52021,0 6.37391,2.85371 6.37391,6.37391c0,3.52021 -2.85371,6.37391 -6.37391,6.37391c-3.52021,0 -6.37391,-2.8537 -6.37391,-6.37391z"/></g><g fill="none" stroke-width="1" font-family="sans-serif" font-weight="normal" font-size="12" text-anchor="start"/></g></g><g><g><g fill="#dadada" stroke-width="0.5"><path d="M283.48069,355.03054c0,-3.5202 2.8537,-6.37391 6.37391,-6.37391c3.52021,0 6.37392,2.8537 6.37392,6.37391c0,3.52021 -2.85371,6.37391 -6.37392,6.37391c-3.52021,0 -6.37391,-2.8537 -6.37391,-6.37391z"/><path d="M318.04148,355.31384c0,-3.5202 2.8537,-6.37392 6.37391,-6.37392c3.5202,0 6.37391,2.85371 6.37391,6.37392c0,3.52021 -2.85371,6.37391 -6.37391,6.37391c-3.52021,0 -6.37391,-2.8537 -6.37391,-6.37391z"/><path d="M352.0359,355.03054c0,-3.5202 2.8537,-6.37391 6.37391,-6.37391c3.5202,0 6.37391,2.8537 6.37391,6.37391c0,3.52021 -2.85371,6.37391 -6.37391,6.37391c-3.52021,0 -6.37391,-2.8537 -6.37391,-6.37391z"/><path d="M352.31895,388.45817c0,-3.52021 2.8537,-6.37391 6.37391,-6.37391c3.5202,0 6.37391,2.8537 6.37391,6.37391c0,3.5202 -2.8537,6.37392 -6.37391,6.37392c-3.52021,0 -6.37391,-2.85371 -6.37391,-6.37392z"/><path d="M317.75816,389.30803c0,-3.52021 2.85371,-6.37391 6.37392,-6.37391c3.52021,0 6.37391,2.8537 6.37391,6.37391c0,3.5202 -2.8537,6.37392 -6.37391,6.37392c-3.5202,0 -6.37392,-2.85371 -6.37392,-6.37392z"/><path d="M283.48069,388.74145c0,-3.52021 2.8537,-6.37391 6.37391,-6.37391c3.52021,0 6.37392,2.8537 6.37392,6.37391c0,3.5202 -2.85371,6.37391 -6.37392,6.37391c-3.52021,0 -6.37391,-2.85371 -6.37391,-6.37391z"/></g><g fill="none" stroke-width="1" font-family="sans-serif" font-weight="normal" font-size="12" text-anchor="start"/></g><g><g fill="#dadada" stroke-width="0.5"><path d="M180.93156,355.59711c0,-3.5202 2.85371,-6.37391 6.37392,-6.37391c3.5202,0 6.37391,2.8537 6.37391,6.37391c0,3.52021 -2.8537,6.37392 -6.37391,6.37392c-3.52021,0 -6.37392,-2.85371 -6.37392,-6.37392z"/><path d="M215.49231,355.88041c0,-3.5202 2.8537,-6.37391 6.37391,-6.37391c3.52021,0 6.37391,2.8537 6.37391,6.37391c0,3.52021 -2.8537,6.37391 -6.37391,6.37391c-3.52021,0 -6.37391,-2.8537 -6.37391,-6.37391z"/><path d="M249.4865,355.59711c0,-3.5202 2.85371,-6.37391 6.37392,-6.37391c3.52021,0 6.37391,2.8537 6.37391,6.37391c0,3.52021 -2.8537,6.37392 -6.37391,6.37392c-3.52021,0 -6.37392,-2.85371 -6.37392,-6.37392z"/><path d="M249.76978,389.02475c0,-3.5202 2.8537,-6.37391 6.37391,-6.37391c3.52021,0 6.37391,2.85371 6.37391,6.37391c0,3.52021 -2.8537,6.37391 -6.37391,6.37391c-3.52021,0 -6.37391,-2.8537 -6.37391,-6.37391z"/><path d="M215.20903,389.87461c0,-3.5202 2.8537,-6.37391 6.37391,-6.37391c3.5202,0 6.37391,2.8537 6.37391,6.37391c0,3.52021 -2.8537,6.37391 -6.37391,6.37391c-3.5202,0 -6.37391,-2.8537 -6.37391,-6.37391z"/><path d="M180.93156,389.30803c0,-3.52021 2.85371,-6.37391 6.37392,-6.37391c3.5202,0 6.37391,2.8537 6.37391,6.37391c0,3.5202 -2.8537,6.37392 -6.37391,6.37392c-3.52021,0 -6.37392,-2.85371 -6.37392,-6.37392z"/></g><g fill="none" stroke-width="1" font-family="sans-serif" font-weight="normal" font-size="12" text-anchor="start"/></g></g></g><g fill="#dadada" stroke-width="0.5"><g><g><g><path d="M77.81583,218.77048c0,-3.52021 2.8537,-6.37391 6.37391,-6.37391c3.52021,0 6.37391,2.8537 6.37391,6.37391c0,3.52021 -2.8537,6.37391 -6.37391,6.37391c-3.5202,0 -6.37391,-2.85371 -6.37391,-6.37391z"/><path d="M112.3766,219.05378c0,-3.52021 2.8537,-6.37391 6.37391,-6.37391c3.52021,0 6.37391,2.8537 6.37391,6.37391c0,3.52021 -2.8537,6.37391 -6.37391,6.37391c-3.52021,0 -6.37391,-2.8537 -6.37391,-6.37391z"/><path d="M146.37079,218.77048c0,-3.52021 2.8537,-6.37391 6.37391,-6.37391c3.52021,0 6.37391,2.8537 6.37391,6.37391c0,3.52021 -2.8537,6.37391 -6.37391,6.37391c-3.52021,0 -6.37391,-2.85371 -6.37391,-6.37391z"/><path d="M146.65407,252.19812c0,-3.52021 2.8537,-6.37391 6.37391,-6.37391c3.52021,0 6.37392,2.8537 6.37392,6.37391c0,3.5202 -2.85371,6.37391 -6.37392,6.37391c-3.52021,0 -6.37391,-2.8537 -6.37391,-6.37391z"/><path d="M112.0933,253.04797c0,-3.5202 2.8537,-6.37391 6.37391,-6.37391c3.52021,0 6.37391,2.8537 6.37391,6.37391c0,3.52021 -2.85371,6.37391 -6.37391,6.37391c-3.52021,0 -6.37391,-2.8537 -6.37391,-6.37391z"/><path d="M77.81583,252.4814c0,-3.52021 2.8537,-6.37391 6.37391,-6.37391c3.52021,0 6.37391,2.8537 6.37391,6.37391c0,3.5202 -2.8537,6.37391 -6.37391,6.37391c-3.5202,0 -6.37391,-2.85371 -6.37391,-6.37391z"/></g><g><path d="M78.38241,288.74188c0,-3.5202 2.8537,-6.37392 6.37391,-6.37392c3.52021,0 6.37392,2.85371 6.37392,6.37392c0,3.5202 -2.85371,6.37391 -6.37392,6.37391c-3.5202,0 -6.37391,-2.85371 -6.37391,-6.37391z"/><path d="M112.94315,289.02516c0,-3.5202 2.8537,-6.37391 6.37391,-6.37391c3.52021,0 6.37391,2.8537 6.37391,6.37391c0,3.5202 -2.8537,6.37391 -6.37391,6.37391c-3.52021,0 -6.37391,-2.85371 -6.37391,-6.37391z"/><path d="M146.93737,288.74188c0,-3.5202 2.85371,-6.37392 6.37391,-6.37392c3.5202,0 6.37391,2.85371 6.37391,6.37392c0,3.5202 -2.8537,6.37391 -6.37391,6.37391c-3.52021,0 -6.37391,-2.85371 -6.37391,-6.37391z"/><path d="M147.22064,322.1695c0,-3.52021 2.85371,-6.37391 6.37391,-6.37391c3.5202,0 6.37391,2.8537 6.37391,6.37391c0,3.52021 -2.85371,6.37391 -6.37391,6.37391c-3.52021,0 -6.37391,-2.8537 -6.37391,-6.37391z"/><path d="M112.65988,323.01935c0,-3.5202 2.85371,-6.37391 6.37391,-6.37391c3.52021,0 6.37391,2.8537 6.37391,6.37391c0,3.52021 -2.8537,6.37391 -6.37391,6.37391c-3.52021,0 -6.37391,-2.8537 -6.37391,-6.37391z"/><path d="M78.38241,322.45279c0,-3.5202 2.8537,-6.37392 6.37391,-6.37392c3.52021,0 6.37392,2.85371 6.37392,6.37392c0,3.5202 -2.85371,6.37391 -6.37392,6.37391c-3.5202,0 -6.37391,-2.85371 -6.37391,-6.37391z"/></g></g><g><g><path d="M-24.73334,219.33706c0,-3.52021 2.85371,-6.37391 6.37391,-6.37391c3.52021,0 6.37391,2.85371 6.37391,6.37391c0,3.52021 -2.85371,6.37391 -6.37391,6.37391c-3.52021,0 -6.37391,-2.8537 -6.37391,-6.37391z"/><path d="M9.82743,219.62036c0,-3.52021 2.85371,-6.37391 6.37391,-6.37391c3.52021,0 6.37391,2.8537 6.37391,6.37391c0,3.52021 -2.85371,6.37391 -6.37391,6.37391c-3.52021,0 -6.37391,-2.85371 -6.37391,-6.37391z"/><path d="M43.82163,219.33706c0,-3.52021 2.85371,-6.37391 6.37391,-6.37391c3.52021,0 6.37391,2.85371 6.37391,6.37391c0,3.52021 -2.85371,6.37391 -6.37391,6.37391c-3.5202,0 -6.37391,-2.8537 -6.37391,-6.37391z"/><path d="M44.10491,252.76469c0,-3.5202 2.85371,-6.37391 6.37391,-6.37391c3.52021,0 6.37391,2.8537 6.37391,6.37391c0,3.52021 -2.85371,6.37392 -6.37391,6.37392c-3.5202,0 -6.37391,-2.85371 -6.37391,-6.37392z"/><path d="M9.54413,253.61455c0,-3.52021 2.85371,-6.37391 6.37391,-6.37391c3.52021,0 6.37391,2.8537 6.37391,6.37391c0,3.5202 -2.85371,6.37391 -6.37391,6.37391c-3.52021,0 -6.37391,-2.8537 -6.37391,-6.37391z"/><path d="M-24.73334,253.04797c0,-3.5202 2.85371,-6.37391 6.37391,-6.37391c3.52021,0 6.37391,2.8537 6.37391,6.37391c0,3.52021 -2.85371,6.37391 -6.37391,6.37391c-3.52021,0 -6.37391,-2.8537 -6.37391,-6.37391z"/></g><g><path d="M-24.16676,289.30845c0,-3.5202 2.85371,-6.37391 6.37392,-6.37391c3.52021,0 6.37391,2.85371 6.37391,6.37391c0,3.52021 -2.8537,6.37391 -6.37391,6.37391c-3.52021,0 -6.37392,-2.8537 -6.37392,-6.37391z"/><path d="M10.39399,289.59173c0,-3.5202 2.85371,-6.37391 6.37391,-6.37391c3.52021,0 6.37391,2.85371 6.37391,6.37391c0,3.5202 -2.8537,6.37392 -6.37391,6.37392c-3.52021,0 -6.37391,-2.85371 -6.37391,-6.37392z"/><path d="M44.38818,289.30845c0,-3.5202 2.85371,-6.37391 6.37391,-6.37391c3.52021,0 6.37392,2.85371 6.37392,6.37391c0,3.52021 -2.85371,6.37391 -6.37392,6.37391c-3.5202,0 -6.37391,-2.8537 -6.37391,-6.37391z"/><path d="M44.67148,322.73607c0,-3.5202 2.85371,-6.37391 6.37391,-6.37391c3.52021,0 6.37391,2.8537 6.37391,6.37391c0,3.5202 -2.85371,6.37392 -6.37391,6.37392c-3.5202,0 -6.37391,-2.85371 -6.37391,-6.37392z"/><path d="M10.11071,323.58592c0,-3.5202 2.8537,-6.37391 6.37391,-6.37391c3.52021,0 6.37391,2.85371 6.37391,6.37391c0,3.52021 -2.85371,6.37392 -6.37391,6.37392c-3.52021,0 -6.37391,-2.85371 -6.37391,-6.37392z"/><path d="M-24.16676,323.01937c0,-3.52021 2.85371,-6.37391 6.37392,-6.37391c3.52021,0 6.37391,2.8537 6.37391,6.37391c0,3.52021 -2.8537,6.37391 -6.37391,6.37391c-3.52021,0 -6.37392,-2.8537 -6.37392,-6.37391z"/></g></g></g><g><g><g><path d="M283.48069,219.05376c0,-3.52021 2.8537,-6.37391 6.37391,-6.37391c3.52021,0 6.37392,2.8537 6.37392,6.37391c0,3.52021 -2.85371,6.37391 -6.37392,6.37391c-3.52021,0 -6.37391,-2.8537 -6.37391,-6.37391z"/><path d="M318.04148,219.33706c0,-3.52021 2.8537,-6.37391 6.37391,-6.37391c3.5202,0 6.37391,2.85371 6.37391,6.37391c0,3.52021 -2.85371,6.37391 -6.37391,6.37391c-3.52021,0 -6.37391,-2.8537 -6.37391,-6.37391z"/><path d="M352.0359,219.05376c0,-3.52021 2.8537,-6.37391 6.37391,-6.37391c3.5202,0 6.37391,2.8537 6.37391,6.37391c0,3.52021 -2.85371,6.37391 -6.37391,6.37391c-3.52021,0 -6.37391,-2.8537 -6.37391,-6.37391z"/><path d="M352.31895,252.4814c0,-3.52021 2.8537,-6.37391 6.37391,-6.37391c3.5202,0 6.37391,2.8537 6.37391,6.37391c0,3.5202 -2.8537,6.37391 -6.37391,6.37391c-3.52021,0 -6.37391,-2.85371 -6.37391,-6.37391z"/><path d="M317.75816,253.33125c0,-3.5202 2.85371,-6.37391 6.37392,-6.37391c3.52021,0 6.37391,2.8537 6.37391,6.37391c0,3.52021 -2.8537,6.37392 -6.37391,6.37392c-3.5202,0 -6.37392,-2.85371 -6.37392,-6.37392z"/><path d="M283.48069,252.76468c0,-3.52021 2.8537,-6.37391 6.37391,-6.37391c3.52021,0 6.37392,2.8537 6.37392,6.37391c0,3.5202 -2.85371,6.37391 -6.37392,6.37391c-3.52021,0 -6.37391,-2.8537 -6.37391,-6.37391z"/></g><g><path d="M284.04729,289.02516c0,-3.5202 2.85371,-6.37391 6.37392,-6.37391c3.5202,0 6.37391,2.8537 6.37391,6.37391c0,3.5202 -2.8537,6.37391 -6.37391,6.37391c-3.52021,0 -6.37392,-2.85371 -6.37392,-6.37391z"/><path d="M318.60803,289.30843c0,-3.5202 2.85371,-6.37392 6.37392,-6.37392c3.5202,0 6.37391,2.85371 6.37391,6.37392c0,3.52021 -2.8537,6.37391 -6.37391,6.37391c-3.52021,0 -6.37392,-2.8537 -6.37392,-6.37391z"/><path d="M352.60246,289.02516c0,-3.5202 2.8537,-6.37391 6.37391,-6.37391c3.5202,0 6.37391,2.8537 6.37391,6.37391c0,3.5202 -2.85371,6.37391 -6.37391,6.37391c-3.52021,0 -6.37391,-2.85371 -6.37391,-6.37391z"/><path d="M352.88557,322.45277c0,-3.52021 2.8537,-6.37391 6.37391,-6.37391c3.52021,0 6.37391,2.8537 6.37391,6.37391c0,3.52021 -2.8537,6.37392 -6.37391,6.37392c-3.5202,0 -6.37391,-2.85371 -6.37391,-6.37392z"/><path d="M318.32478,323.30262c0,-3.5202 2.8537,-6.37391 6.37391,-6.37391c3.5202,0 6.37391,2.8537 6.37391,6.37391c0,3.52021 -2.8537,6.37392 -6.37391,6.37392c-3.52021,0 -6.37391,-2.85371 -6.37391,-6.37392z"/><path d="M284.04729,322.73607c0,-3.5202 2.85371,-6.37391 6.37392,-6.37391c3.5202,0 6.37391,2.8537 6.37391,6.37391c0,3.5202 -2.8537,6.37392 -6.37391,6.37392c-3.52021,0 -6.37392,-2.85371 -6.37392,-6.37392z"/></g></g><g><g><path d="M180.93156,219.62034c0,-3.52021 2.85371,-6.37391 6.37392,-6.37391c3.5202,0 6.37391,2.8537 6.37391,6.37391c0,3.52021 -2.8537,6.37391 -6.37391,6.37391c-3.52021,0 -6.37392,-2.85371 -6.37392,-6.37391z"/><path d="M215.49231,219.90363c0,-3.52021 2.8537,-6.37391 6.37391,-6.37391c3.52021,0 6.37391,2.8537 6.37391,6.37391c0,3.52021 -2.8537,6.37391 -6.37391,6.37391c-3.52021,0 -6.37391,-2.8537 -6.37391,-6.37391z"/><path d="M249.4865,219.62034c0,-3.52021 2.85371,-6.37391 6.37392,-6.37391c3.52021,0 6.37391,2.8537 6.37391,6.37391c0,3.52021 -2.8537,6.37391 -6.37391,6.37391c-3.52021,0 -6.37392,-2.85371 -6.37392,-6.37391z"/><path d="M249.76978,253.04797c0,-3.5202 2.8537,-6.37391 6.37391,-6.37391c3.52021,0 6.37391,2.8537 6.37391,6.37391c0,3.52021 -2.8537,6.37391 -6.37391,6.37391c-3.52021,0 -6.37391,-2.8537 -6.37391,-6.37391z"/><path d="M215.20903,253.89783c0,-3.52021 2.8537,-6.37391 6.37391,-6.37391c3.5202,0 6.37391,2.8537 6.37391,6.37391c0,3.5202 -2.8537,6.37391 -6.37391,6.37391c-3.5202,0 -6.37391,-2.85371 -6.37391,-6.37391z"/><path d="M180.93156,253.33125c0,-3.5202 2.85371,-6.37391 6.37392,-6.37391c3.5202,0 6.37391,2.8537 6.37391,6.37391c0,3.52021 -2.8537,6.37392 -6.37391,6.37392c-3.52021,0 -6.37392,-2.85371 -6.37392,-6.37392z"/></g><g><path d="M181.49813,289.59173c0,-3.5202 2.8537,-6.37391 6.37391,-6.37391c3.5202,0 6.37391,2.85371 6.37391,6.37391c0,3.5202 -2.85371,6.37392 -6.37391,6.37392c-3.52021,0 -6.37391,-2.85371 -6.37391,-6.37392z"/><path d="M216.05886,289.87501c0,-3.5202 2.85371,-6.37391 6.37391,-6.37391c3.52021,0 6.37391,2.8537 6.37391,6.37391c0,3.52021 -2.8537,6.37391 -6.37391,6.37391c-3.5202,0 -6.37391,-2.8537 -6.37391,-6.37391z"/><path d="M250.05305,289.59173c0,-3.5202 2.85371,-6.37391 6.37392,-6.37391c3.52021,0 6.37391,2.85371 6.37391,6.37391c0,3.5202 -2.8537,6.37392 -6.37391,6.37392c-3.5202,0 -6.37392,-2.85371 -6.37392,-6.37392z"/><path d="M250.33637,323.01935c0,-3.5202 2.85371,-6.37391 6.37392,-6.37391c3.5202,0 6.37391,2.8537 6.37391,6.37391c0,3.52021 -2.8537,6.37391 -6.37391,6.37391c-3.52021,0 -6.37392,-2.8537 -6.37392,-6.37391z"/><path d="M215.77558,323.8692c0,-3.5202 2.8537,-6.37391 6.37391,-6.37391c3.52021,0 6.37392,2.8537 6.37392,6.37391c0,3.52021 -2.85371,6.37391 -6.37392,6.37391c-3.52021,0 -6.37391,-2.8537 -6.37391,-6.37391z"/><path d="M181.49813,323.30265c0,-3.5202 2.8537,-6.37392 6.37391,-6.37392c3.5202,0 6.37391,2.85371 6.37391,6.37392c0,3.52021 -2.85371,6.37391 -6.37391,6.37391c-3.52021,0 -6.37391,-2.8537 -6.37391,-6.37391z"/></g></g></g></g></g><g><g><g><g fill="#dadada" stroke-width="0.5"><g><path d="M-26.18418,115.74726c0,-3.5202 2.85371,-6.37391 6.37391,-6.37391c3.5202,0 6.37391,2.85371 6.37391,6.37391c0,3.5202 -2.85371,6.37391 -6.37391,6.37391c-3.5202,0 -6.37391,-2.85371 -6.37391,-6.37391z"/><path d="M8.37659,116.03056c0,-3.5202 2.85371,-6.37391 6.37391,-6.37391c3.5202,0 6.37391,2.85371 6.37391,6.37391c0,3.5202 -2.85371,6.37391 -6.37391,6.37391c-3.5202,0 -6.37391,-2.85371 -6.37391,-6.37391z"/><path d="M42.37079,115.74726c0,-3.5202 2.85371,-6.37391 6.37391,-6.37391c3.5202,0 6.37391,2.85371 6.37391,6.37391c0,3.5202 -2.85371,6.37391 -6.37391,6.37391c-3.5202,0 -6.37391,-2.85371 -6.37391,-6.37391z"/><path d="M42.65407,149.17488c0,-3.5202 2.85371,-6.37391 6.37391,-6.37391c3.5202,0 6.37391,2.85371 6.37391,6.37391c0,3.5202 -2.85371,6.37391 -6.37391,6.37391c-3.5202,0 -6.37391,-2.85371 -6.37391,-6.37391z"/><path d="M8.09329,150.02475c0,-3.5202 2.85371,-6.37391 6.37391,-6.37391c3.5202,0 6.37391,2.85371 6.37391,6.37391c0,3.5202 -2.85371,6.37391 -6.37391,6.37391c-3.5202,0 -6.37391,-2.85371 -6.37391,-6.37391z"/><path d="M-26.18418,149.45817c0,-3.5202 2.85371,-6.37391 6.37391,-6.37391c3.5202,0 6.37391,2.85371 6.37391,6.37391c0,3.5202 -2.85371,6.37391 -6.37391,6.37391c-3.5202,0 -6.37391,-2.85371 -6.37391,-6.37391z"/></g><g><path d="M-25.6176,185.71865c0,-3.5202 2.85371,-6.37391 6.37391,-6.37391c3.5202,0 6.37391,2.85371 6.37391,6.37391c0,3.5202 -2.85371,6.37391 -6.37391,6.37391c-3.5202,0 -6.37391,-2.85371 -6.37391,-6.37391z"/><path d="M8.94315,186.00193c0,-3.5202 2.85371,-6.37391 6.37391,-6.37391c3.5202,0 6.37391,2.85371 6.37391,6.37391c0,3.5202 -2.85371,6.37391 -6.37391,6.37391c-3.5202,0 -6.37391,-2.85371 -6.37391,-6.37391z"/><path d="M42.93734,185.71865c0,-3.5202 2.85371,-6.37391 6.37391,-6.37391c3.5202,0 6.37391,2.85371 6.37391,6.37391c0,3.5202 -2.85371,6.37391 -6.37391,6.37391c-3.5202,0 -6.37391,-2.85371 -6.37391,-6.37391z"/><path d="M43.22064,219.14627c0,-3.5202 2.85371,-6.37391 6.37391,-6.37391c3.5202,0 6.37391,2.85371 6.37391,6.37391c0,3.5202 -2.85371,6.37391 -6.37391,6.37391c-3.5202,0 -6.37391,-2.85371 -6.37391,-6.37391z"/><path d="M8.65988,219.99612c0,-3.5202 2.85371,-6.37391 6.37391,-6.37391c3.5202,0 6.37391,2.85371 6.37391,6.37391c0,3.5202 -2.85371,6.37391 -6.37391,6.37391c-3.5202,0 -6.37391,-2.85371 -6.37391,-6.37391z"/><path d="M-25.6176,219.42957c0,-3.5202 2.85371,-6.37391 6.37391,-6.37391c3.5202,0 6.37391,2.85371 6.37391,6.37391c0,3.5202 -2.85371,6.37391 -6.37391,6.37391c-3.5202,0 -6.37391,-2.85371 -6.37391,-6.37391z"/></g></g><g fill="none" stroke-width="1" font-family="sans-serif" font-weight="normal" font-size="12" text-anchor="start"><g/><g/></g></g><g fill="#dadada" stroke-width="0.5"><g><g><path d="M179.48071,116.03053c0,-3.5202 2.85371,-6.37391 6.37391,-6.37391c3.5202,0 6.37391,2.85371 6.37391,6.37391c0,3.5202 -2.85371,6.37391 -6.37391,6.37391c-3.5202,0 -6.37391,-2.85371 -6.37391,-6.37391z"/><path d="M214.04148,116.31383c0,-3.5202 2.85371,-6.37391 6.37391,-6.37391c3.5202,0 6.37391,2.85371 6.37391,6.37391c0,3.5202 -2.85371,6.37391 -6.37391,6.37391c-3.5202,0 -6.37391,-2.85371 -6.37391,-6.37391z"/><path d="M248.03567,116.03053c0,-3.5202 2.85371,-6.37391 6.37391,-6.37391c3.5202,0 6.37391,2.85371 6.37391,6.37391c0,3.5202 -2.85371,6.37391 -6.37391,6.37391c-3.5202,0 -6.37391,-2.85371 -6.37391,-6.37391z"/><path d="M248.31895,149.45817c0,-3.5202 2.85371,-6.37391 6.37391,-6.37391c3.5202,0 6.37391,2.85371 6.37391,6.37391c0,3.5202 -2.85371,6.37391 -6.37391,6.37391c-3.5202,0 -6.37391,-2.85371 -6.37391,-6.37391z"/><path d="M213.7582,150.30802c0,-3.5202 2.85371,-6.37391 6.37391,-6.37391c3.5202,0 6.37391,2.85371 6.37391,6.37391c0,3.5202 -2.85371,6.37391 -6.37391,6.37391c-3.5202,0 -6.37391,-2.85371 -6.37391,-6.37391z"/><path d="M179.48071,149.74145c0,-3.5202 2.85371,-6.37391 6.37391,-6.37391c3.5202,0 6.37391,2.85371 6.37391,6.37391c0,3.5202 -2.85371,6.37391 -6.37391,6.37391c-3.5202,0 -6.37391,-2.85371 -6.37391,-6.37391z"/></g><g><path d="M180.0473,186.00193c0,-3.5202 2.85371,-6.37391 6.37391,-6.37391c3.5202,0 6.37391,2.85371 6.37391,6.37391c0,3.5202 -2.85371,6.37391 -6.37391,6.37391c-3.5202,0 -6.37391,-2.85371 -6.37391,-6.37391z"/><path d="M214.60803,186.28521c0,-3.5202 2.85371,-6.37391 6.37391,-6.37391c3.5202,0 6.37391,2.85371 6.37391,6.37391c0,3.5202 -2.85371,6.37391 -6.37391,6.37391c-3.5202,0 -6.37391,-2.85371 -6.37391,-6.37391z"/><path d="M248.60222,186.00193c0,-3.5202 2.85371,-6.37391 6.37391,-6.37391c3.5202,0 6.37391,2.85371 6.37391,6.37391c0,3.5202 -2.85371,6.37391 -6.37391,6.37391c-3.5202,0 -6.37391,-2.85371 -6.37391,-6.37391z"/><path d="M248.88554,219.42955c0,-3.5202 2.85371,-6.37391 6.37391,-6.37391c3.5202,0 6.37391,2.85371 6.37391,6.37391c0,3.5202 -2.85371,6.37391 -6.37391,6.37391c-3.5202,0 -6.37391,-2.85371 -6.37391,-6.37391z"/><path d="M214.32476,220.2794c0,-3.5202 2.85371,-6.37391 6.37391,-6.37391c3.5202,0 6.37391,2.85371 6.37391,6.37391c0,3.5202 -2.85371,6.37391 -6.37391,6.37391c-3.5202,0 -6.37391,-2.85371 -6.37391,-6.37391z"/><path d="M180.0473,219.71285c0,-3.5202 2.85371,-6.37391 6.37391,-6.37391c3.5202,0 6.37391,2.85371 6.37391,6.37391c0,3.5202 -2.85371,6.37391 -6.37391,6.37391c-3.5202,0 -6.37391,-2.85371 -6.37391,-6.37391z"/></g></g><g><g><path d="M76.93154,116.59711c0,-3.5202 2.85371,-6.37391 6.37391,-6.37391c3.5202,0 6.37391,2.85371 6.37391,6.37391c0,3.5202 -2.85371,6.37391 -6.37391,6.37391c-3.5202,0 -6.37391,-2.85371 -6.37391,-6.37391z"/><path d="M111.49233,116.88041c0,-3.5202 2.85371,-6.37391 6.37391,-6.37391c3.5202,0 6.37391,2.85371 6.37391,6.37391c0,3.5202 -2.85371,6.37391 -6.37391,6.37391c-3.5202,0 -6.37391,-2.85371 -6.37391,-6.37391z"/><path d="M145.48651,116.59711c0,-3.5202 2.85371,-6.37391 6.37391,-6.37391c3.5202,0 6.37391,2.85371 6.37391,6.37391c0,3.5202 -2.85371,6.37391 -6.37391,6.37391c-3.5202,0 -6.37391,-2.85371 -6.37391,-6.37391z"/><path d="M145.76978,150.02475c0,-3.5202 2.85371,-6.37391 6.37391,-6.37391c3.5202,0 6.37391,2.85371 6.37391,6.37391c0,3.5202 -2.85371,6.37391 -6.37391,6.37391c-3.5202,0 -6.37391,-2.85371 -6.37391,-6.37391z"/><path d="M111.20903,150.8746c0,-3.5202 2.85371,-6.37391 6.37391,-6.37391c3.5202,0 6.37391,2.85371 6.37391,6.37391c0,3.5202 -2.85371,6.37391 -6.37391,6.37391c-3.5202,0 -6.37391,-2.85371 -6.37391,-6.37391z"/><path d="M76.93154,150.30802c0,-3.5202 2.85371,-6.37391 6.37391,-6.37391c3.5202,0 6.37391,2.85371 6.37391,6.37391c0,3.5202 -2.85371,6.37391 -6.37391,6.37391c-3.5202,0 -6.37391,-2.85371 -6.37391,-6.37391z"/></g><g><path d="M77.49811,186.56851c0,-3.5202 2.85371,-6.37391 6.37391,-6.37391c3.5202,0 6.37391,2.85371 6.37391,6.37391c0,3.5202 -2.85371,6.37391 -6.37391,6.37391c-3.5202,0 -6.37391,-2.85371 -6.37391,-6.37391z"/><path d="M112.05886,186.85179c0,-3.5202 2.85371,-6.37391 6.37391,-6.37391c3.5202,0 6.37391,2.85371 6.37391,6.37391c0,3.5202 -2.85371,6.37391 -6.37391,6.37391c-3.5202,0 -6.37391,-2.85371 -6.37391,-6.37391z"/><path d="M146.05306,186.56851c0,-3.5202 2.85371,-6.37391 6.37391,-6.37391c3.5202,0 6.37391,2.85371 6.37391,6.37391c0,3.5202 -2.85371,6.37391 -6.37391,6.37391c-3.5202,0 -6.37391,-2.85371 -6.37391,-6.37391z"/><path d="M146.33637,219.99612c0,-3.5202 2.85371,-6.37391 6.37391,-6.37391c3.5202,0 6.37391,2.85371 6.37391,6.37391c0,3.5202 -2.85371,6.37391 -6.37391,6.37391c-3.5202,0 -6.37391,-2.85371 -6.37391,-6.37391z"/><path d="M111.77559,220.84598c0,-3.5202 2.85371,-6.37391 6.37391,-6.37391c3.5202,0 6.37391,2.85371 6.37391,6.37391c0,3.5202 -2.85371,6.37391 -6.37391,6.37391c-3.5202,0 -6.37391,-2.85371 -6.37391,-6.37391z"/><path d="M77.49811,220.27942c0,-3.5202 2.85371,-6.37391 6.37391,-6.37391c3.5202,0 6.37391,2.85371 6.37391,6.37391c0,3.5202 -2.85371,6.37391 -6.37391,6.37391c-3.5202,0 -6.37391,-2.85371 -6.37391,-6.37391z"/></g></g></g></g><g><g><g fill="#dadada" stroke-width="0.5"><g><path d="M-26.18418,-20.22952c0,-3.5202 2.85371,-6.37391 6.37391,-6.37391c3.5202,0 6.37391,2.85371 6.37391,6.37391c0,3.5202 -2.85371,6.37391 -6.37391,6.37391c-3.5202,0 -6.37391,-2.85371 -6.37391,-6.37391z"/><path d="M8.37659,-19.94622c0,-3.5202 2.85371,-6.37391 6.37391,-6.37391c3.5202,0 6.37391,2.85371 6.37391,6.37391c0,3.5202 -2.85371,6.37391 -6.37391,6.37391c-3.5202,0 -6.37391,-2.85371 -6.37391,-6.37391z"/><path d="M42.37079,-20.22952c0,-3.5202 2.85371,-6.37391 6.37391,-6.37391c3.5202,0 6.37391,2.85371 6.37391,6.37391c0,3.5202 -2.85371,6.37391 -6.37391,6.37391c-3.5202,0 -6.37391,-2.85371 -6.37391,-6.37391z"/><path d="M42.65407,13.19812c0,-3.5202 2.85371,-6.37391 6.37391,-6.37391c3.5202,0 6.37391,2.85371 6.37391,6.37391c0,3.5202 -2.85371,6.37391 -6.37391,6.37391c-3.5202,0 -6.37391,-2.85371 -6.37391,-6.37391z"/><path d="M8.09329,14.04797c0,-3.5202 2.85371,-6.37391 6.37391,-6.37391c3.5202,0 6.37391,2.85371 6.37391,6.37391c0,3.5202 -2.85371,6.37391 -6.37391,6.37391c-3.5202,0 -6.37391,-2.85371 -6.37391,-6.37391z"/><path d="M-26.18418,13.4814c0,-3.5202 2.85371,-6.37391 6.37391,-6.37391c3.5202,0 6.37391,2.85371 6.37391,6.37391c0,3.5202 -2.85371,6.37391 -6.37391,6.37391c-3.5202,0 -6.37391,-2.85371 -6.37391,-6.37391z"/></g><g><path d="M-25.6176,49.74188c0,-3.5202 2.85371,-6.37391 6.37391,-6.37391c3.5202,0 6.37391,2.85371 6.37391,6.37391c0,3.5202 -2.85371,6.37391 -6.37391,6.37391c-3.5202,0 -6.37391,-2.85371 -6.37391,-6.37391z"/><path d="M8.94315,50.02516c0,-3.5202 2.85371,-6.37391 6.37391,-6.37391c3.5202,0 6.37391,2.85371 6.37391,6.37391c0,3.5202 -2.85371,6.37391 -6.37391,6.37391c-3.5202,0 -6.37391,-2.85371 -6.37391,-6.37391z"/><path d="M42.93734,49.74188c0,-3.5202 2.85371,-6.37391 6.37391,-6.37391c3.5202,0 6.37391,2.85371 6.37391,6.37391c0,3.5202 -2.85371,6.37391 -6.37391,6.37391c-3.5202,0 -6.37391,-2.85371 -6.37391,-6.37391z"/><path d="M43.22064,83.16948c0,-3.5202 2.85371,-6.37391 6.37391,-6.37391c3.5202,0 6.37391,2.85371 6.37391,6.37391c0,3.5202 -2.85371,6.37391 -6.37391,6.37391c-3.5202,0 -6.37391,-2.85371 -6.37391,-6.37391z"/><path d="M8.65988,84.01935c0,-3.5202 2.85371,-6.37391 6.37391,-6.37391c3.5202,0 6.37391,2.85371 6.37391,6.37391c0,3.5202 -2.85371,6.37391 -6.37391,6.37391c-3.5202,0 -6.37391,-2.85371 -6.37391,-6.37391z"/><path d="M-25.6176,83.45279c0,-3.5202 2.85371,-6.37391 6.37391,-6.37391c3.5202,0 6.37391,2.85371 6.37391,6.37391c0,3.5202 -2.85371,6.37391 -6.37391,6.37391c-3.5202,0 -6.37391,-2.85371 -6.37391,-6.37391z"/></g></g><g fill="none" stroke-width="1" font-family="sans-serif" font-weight="normal" font-size="12" text-anchor="start"><g/><g/></g></g><g fill="#dadada" stroke-width="0.5"><g><g><path d="M179.48071,-19.94624c0,-3.5202 2.85371,-6.37391 6.37391,-6.37391c3.5202,0 6.37391,2.85371 6.37391,6.37391c0,3.5202 -2.85371,6.37391 -6.37391,6.37391c-3.5202,0 -6.37391,-2.85371 -6.37391,-6.37391z"/><path d="M214.04148,-19.66294c0,-3.5202 2.85371,-6.37391 6.37391,-6.37391c3.5202,0 6.37391,2.85371 6.37391,6.37391c0,3.5202 -2.85371,6.37391 -6.37391,6.37391c-3.5202,0 -6.37391,-2.85371 -6.37391,-6.37391z"/><path d="M248.03567,-19.94624c0,-3.5202 2.85371,-6.37391 6.37391,-6.37391c3.5202,0 6.37391,2.85371 6.37391,6.37391c0,3.5202 -2.85371,6.37391 -6.37391,6.37391c-3.5202,0 -6.37391,-2.85371 -6.37391,-6.37391z"/><path d="M248.31895,13.4814c0,-3.5202 2.85371,-6.37391 6.37391,-6.37391c3.5202,0 6.37391,2.85371 6.37391,6.37391c0,3.5202 -2.85371,6.37391 -6.37391,6.37391c-3.5202,0 -6.37391,-2.85371 -6.37391,-6.37391z"/><path d="M213.7582,14.33125c0,-3.5202 2.85371,-6.37391 6.37391,-6.37391c3.5202,0 6.37391,2.85371 6.37391,6.37391c0,3.5202 -2.85371,6.37391 -6.37391,6.37391c-3.5202,0 -6.37391,-2.85371 -6.37391,-6.37391z"/><path d="M179.48071,13.76468c0,-3.5202 2.85371,-6.37391 6.37391,-6.37391c3.5202,0 6.37391,2.85371 6.37391,6.37391c0,3.5202 -2.85371,6.37391 -6.37391,6.37391c-3.5202,0 -6.37391,-2.85371 -6.37391,-6.37391z"/></g><g><path d="M180.0473,50.02516c0,-3.5202 2.85371,-6.37391 6.37391,-6.37391c3.5202,0 6.37391,2.85371 6.37391,6.37391c0,3.5202 -2.85371,6.37391 -6.37391,6.37391c-3.5202,0 -6.37391,-2.85371 -6.37391,-6.37391z"/><path d="M214.60803,50.30843c0,-3.5202 2.85371,-6.37391 6.37391,-6.37391c3.5202,0 6.37391,2.85371 6.37391,6.37391c0,3.5202 -2.85371,6.37391 -6.37391,6.37391c-3.5202,0 -6.37391,-2.85371 -6.37391,-6.37391z"/><path d="M248.60222,50.02516c0,-3.5202 2.85371,-6.37391 6.37391,-6.37391c3.5202,0 6.37391,2.85371 6.37391,6.37391c0,3.5202 -2.85371,6.37391 -6.37391,6.37391c-3.5202,0 -6.37391,-2.85371 -6.37391,-6.37391z"/><path d="M248.88554,83.45277c0,-3.5202 2.85371,-6.37391 6.37391,-6.37391c3.5202,0 6.37391,2.85371 6.37391,6.37391c0,3.5202 -2.85371,6.37391 -6.37391,6.37391c-3.5202,0 -6.37391,-2.85371 -6.37391,-6.37391z"/><path d="M214.32476,84.30263c0,-3.5202 2.85371,-6.37391 6.37391,-6.37391c3.5202,0 6.37391,2.85371 6.37391,6.37391c0,3.5202 -2.85371,6.37391 -6.37391,6.37391c-3.5202,0 -6.37391,-2.85371 -6.37391,-6.37391z"/><path d="M180.0473,83.73607c0,-3.5202 2.85371,-6.37391 6.37391,-6.37391c3.5202,0 6.37391,2.85371 6.37391,6.37391c0,3.5202 -2.85371,6.37391 -6.37391,6.37391c-3.5202,0 -6.37391,-2.85371 -6.37391,-6.37391z"/></g></g><g><g><path d="M76.93154,-19.37966c0,-3.5202 2.85371,-6.37391 6.37391,-6.37391c3.5202,0 6.37391,2.85371 6.37391,6.37391c0,3.5202 -2.85371,6.37391 -6.37391,6.37391c-3.5202,0 -6.37391,-2.85371 -6.37391,-6.37391z"/><path d="M111.49233,-19.09636c0,-3.5202 2.85371,-6.37391 6.37391,-6.37391c3.5202,0 6.37391,2.85371 6.37391,6.37391c0,3.5202 -2.85371,6.37391 -6.37391,6.37391c-3.5202,0 -6.37391,-2.85371 -6.37391,-6.37391z"/><path d="M145.48651,-19.37966c0,-3.5202 2.85371,-6.37391 6.37391,-6.37391c3.5202,0 6.37391,2.85371 6.37391,6.37391c0,3.5202 -2.85371,6.37391 -6.37391,6.37391c-3.5202,0 -6.37391,-2.85371 -6.37391,-6.37391z"/><path d="M145.76978,14.04797c0,-3.5202 2.85371,-6.37391 6.37391,-6.37391c3.5202,0 6.37391,2.85371 6.37391,6.37391c0,3.5202 -2.85371,6.37391 -6.37391,6.37391c-3.5202,0 -6.37391,-2.85371 -6.37391,-6.37391z"/><path d="M111.20903,14.89783c0,-3.5202 2.85371,-6.37391 6.37391,-6.37391c3.5202,0 6.37391,2.85371 6.37391,6.37391c0,3.5202 -2.85371,6.37391 -6.37391,6.37391c-3.5202,0 -6.37391,-2.85371 -6.37391,-6.37391z"/><path d="M76.93154,14.33125c0,-3.5202 2.85371,-6.37391 6.37391,-6.37391c3.5202,0 6.37391,2.85371 6.37391,6.37391c0,3.5202 -2.85371,6.37391 -6.37391,6.37391c-3.5202,0 -6.37391,-2.85371 -6.37391,-6.37391z"/></g><g><path d="M77.49811,50.59173c0,-3.5202 2.85371,-6.37391 6.37391,-6.37391c3.5202,0 6.37391,2.85371 6.37391,6.37391c0,3.5202 -2.85371,6.37391 -6.37391,6.37391c-3.5202,0 -6.37391,-2.85371 -6.37391,-6.37391z"/><path d="M112.05886,50.87501c0,-3.5202 2.85371,-6.37391 6.37391,-6.37391c3.5202,0 6.37391,2.85371 6.37391,6.37391c0,3.5202 -2.85371,6.37391 -6.37391,6.37391c-3.5202,0 -6.37391,-2.85371 -6.37391,-6.37391z"/><path d="M146.05306,50.59173c0,-3.5202 2.85371,-6.37391 6.37391,-6.37391c3.5202,0 6.37391,2.85371 6.37391,6.37391c0,3.5202 -2.85371,6.37391 -6.37391,6.37391c-3.5202,0 -6.37391,-2.85371 -6.37391,-6.37391z"/><path d="M146.33637,84.01935c0,-3.5202 2.85371,-6.37391 6.37391,-6.37391c3.5202,0 6.37391,2.85371 6.37391,6.37391c0,3.5202 -2.85371,6.37391 -6.37391,6.37391c-3.5202,0 -6.37391,-2.85371 -6.37391,-6.37391z"/><path d="M111.77559,84.8692c0,-3.5202 2.85371,-6.37391 6.37391,-6.37391c3.5202,0 6.37391,2.85371 6.37391,6.37391c0,3.5202 -2.85371,6.37391 -6.37391,6.37391c-3.5202,0 -6.37391,-2.85371 -6.37391,-6.37391z"/><path d="M77.49811,84.30265c0,-3.5202 2.85371,-6.37391 6.37391,-6.37391c3.5202,0 6.37391,2.85371 6.37391,6.37391c0,3.5202 -2.85371,6.37391 -6.37391,6.37391c-3.5202,0 -6.37391,-2.85371 -6.37391,-6.37391z"/></g></g></g></g></g><g fill="#dadada" stroke-width="0.5"><g><g><g><g><path d=""/><path d=""/><path d=""/><path d=""/><path d=""/><path d=""/></g><g><path d=""/><path d=""/><path d=""/><path d=""/><path d=""/><path d="M386.38242,183.42957c0,-3.5202 2.85371,-6.37391 6.37391,-6.37391c3.5202,0 6.37391,2.85371 6.37391,6.37391c0,3.5202 -2.85371,6.37391 -6.37391,6.37391c-3.5202,0 -6.37391,-2.85371 -6.37391,-6.37391z"/></g></g><g><g><path d="M283.26667,80.31382c0,-3.5202 2.85371,-6.37391 6.37391,-6.37391c3.5202,0 6.37391,2.85371 6.37391,6.37391c0,3.5202 -2.85371,6.37391 -6.37391,6.37391c-3.5202,0 -6.37391,-2.85371 -6.37391,-6.37391z"/><path d="M317.82746,80.59713c0,-3.5202 2.85371,-6.37391 6.37391,-6.37391c3.5202,0 6.37391,2.85371 6.37391,6.37391c0,3.5202 -2.85371,6.37391 -6.37391,6.37391c-3.5202,0 -6.37391,-2.85371 -6.37391,-6.37391z"/><path d="M317.54416,114.59133c0,-3.5202 2.85371,-6.37391 6.37391,-6.37391c3.5202,0 6.37391,2.85371 6.37391,6.37391c0,3.5202 -2.85371,6.37391 -6.37391,6.37391c-3.5202,0 -6.37391,-2.85371 -6.37391,-6.37391z"/><path d="M283.26667,114.02475c0,-3.5202 2.85371,-6.37391 6.37391,-6.37391c3.5202,0 6.37391,2.85371 6.37391,6.37391c0,3.5202 -2.85371,6.37391 -6.37391,6.37391c-3.5202,0 -6.37391,-2.85371 -6.37391,-6.37391z"/></g><g><path d="M283.83329,150.28523c0,-3.5202 2.85371,-6.37391 6.37391,-6.37391c3.5202,0 6.37391,2.85371 6.37391,6.37391c0,3.5202 -2.85371,6.37391 -6.37391,6.37391c-3.5202,0 -6.37391,-2.85371 -6.37391,-6.37391z"/><path d="M318.39401,150.5685c0,-3.5202 2.85371,-6.37391 6.37391,-6.37391c3.5202,0 6.37391,2.85371 6.37391,6.37391c0,3.5202 -2.85371,6.37391 -6.37391,6.37391c-3.5202,0 -6.37391,-2.85371 -6.37391,-6.37391z"/><path d="M352.38843,150.28523c0,-3.5202 2.85371,-6.37391 6.37391,-6.37391c3.5202,0 6.37391,2.85371 6.37391,6.37391c0,3.5202 -2.85371,6.37391 -6.37391,6.37391c-3.5202,0 -6.37391,-2.85371 -6.37391,-6.37391z"/><path d="M352.67148,183.71285c0,-3.5202 2.85371,-6.37391 6.37391,-6.37391c3.5202,0 6.37391,2.85371 6.37391,6.37391c0,3.5202 -2.85371,6.37391 -6.37391,6.37391c-3.5202,0 -6.37391,-2.85371 -6.37391,-6.37391z"/><path d="M318.11073,184.5627c0,-3.5202 2.85371,-6.37391 6.37391,-6.37391c3.5202,0 6.37391,2.85371 6.37391,6.37391c0,3.5202 -2.85371,6.37391 -6.37391,6.37391c-3.5202,0 -6.37391,-2.85371 -6.37391,-6.37391z"/><path d="M283.83329,183.99615c0,-3.5202 2.85371,-6.37391 6.37391,-6.37391c3.5202,0 6.37391,2.85371 6.37391,6.37391c0,3.5202 -2.85371,6.37391 -6.37391,6.37391c-3.5202,0 -6.37391,-2.85371 -6.37391,-6.37391z"/></g></g></g><g><g><g><path d=""/><path d=""/><path d=""/><path d=""/><path d=""/><path d=""/></g><g><path d=""/><path d=""/><path d=""/><path d=""/><path d=""/><path d=""/></g></g><g><g><path d=""/><path d=""/><path d=""/><path d=""/><path d=""/><path d=""/></g><g><path d=""/><path d=""/><path d=""/><path d=""/><path d=""/><path d=""/></g></g></g></g><g><g><g><g><path d=""/><path d=""/><path d=""/><path d=""/><path d=""/><path d=""/></g><g><path d=""/><path d=""/><path d=""/><path d=""/><path d=""/><path d=""/></g></g><g><g><path d=""/><path d=""/><path d=""/><path d=""/><path d=""/></g><g><path d=""/><path d=""/><path d="M283.83329,48.01937c0,-3.5202 2.85371,-6.37391 6.37391,-6.37391c3.5202,0 6.37391,2.85371 6.37391,6.37391c0,3.5202 -2.85371,6.37391 -6.37391,6.37391c-3.5202,0 -6.37391,-2.85371 -6.37391,-6.37391z"/></g></g></g><g><g><g><path d=""/><path d=""/><path d=""/><path d=""/><path d=""/><path d=""/></g><g><path d=""/><path d=""/><path d=""/><path d=""/><path d=""/><path d=""/></g></g><g><g><path d=""/><path d=""/><path d=""/><path d=""/><path d=""/><path d=""/></g><g><path d=""/><path d=""/><path d=""/><path d=""/><path d=""/><path d=""/></g></g></g></g></g><g fill="#dadada" stroke-width="0.5"><g><g><g><g><path d=""/><path d=""/><path d=""/><path d=""/><path d=""/><path d=""/></g><g><path d=""/><path d=""/><path d=""/><path d=""/><path d=""/><path d="M490.38241,357.42957c0,-3.5202 2.85371,-6.37391 6.37391,-6.37391c3.5202,0 6.37391,2.85371 6.37391,6.37391c0,3.5202 -2.85371,6.37391 -6.37391,6.37391c-3.5202,0 -6.37391,-2.85371 -6.37391,-6.37391z"/></g></g><g><g><path d="M387.26669,254.31383c0,-3.5202 2.85371,-6.37391 6.37391,-6.37391c3.5202,0 6.37391,2.85371 6.37391,6.37391c0,3.5202 -2.85371,6.37391 -6.37391,6.37391c-3.5202,0 -6.37391,-2.85371 -6.37391,-6.37391z"/><path d="M421.82746,254.59713c0,-3.5202 2.85371,-6.37391 6.37391,-6.37391c3.5202,0 6.37391,2.85371 6.37391,6.37391c0,3.5202 -2.85371,6.37391 -6.37391,6.37391c-3.5202,0 -6.37391,-2.85371 -6.37391,-6.37391z"/><path d="M421.54416,288.59133c0,-3.5202 2.85371,-6.37391 6.37391,-6.37391c3.5202,0 6.37391,2.85371 6.37391,6.37391c0,3.5202 -2.85371,6.37391 -6.37391,6.37391c-3.5202,0 -6.37391,-2.85371 -6.37391,-6.37391z"/><path d="M387.26669,288.02475c0,-3.5202 2.85371,-6.37391 6.37391,-6.37391c3.5202,0 6.37391,2.85371 6.37391,6.37391c0,3.5202 -2.85371,6.37391 -6.37391,6.37391c-3.5202,0 -6.37391,-2.85371 -6.37391,-6.37391z"/></g><g><path d="M387.83333,324.28523c0,-3.5202 2.85371,-6.37391 6.37391,-6.37391c3.5202,0 6.37391,2.85371 6.37391,6.37391c0,3.5202 -2.85371,6.37391 -6.37391,6.37391c-3.5202,0 -6.37391,-2.85371 -6.37391,-6.37391z"/><path d="M422.39403,324.56851c0,-3.5202 2.85371,-6.37391 6.37391,-6.37391c3.5202,0 6.37391,2.85371 6.37391,6.37391c0,3.5202 -2.85371,6.37391 -6.37391,6.37391c-3.5202,0 -6.37391,-2.85371 -6.37391,-6.37391z"/><path d="M456.38826,324.28523c0,-3.5202 2.85371,-6.37391 6.37391,-6.37391c3.5202,0 6.37391,2.85371 6.37391,6.37391c0,3.5202 -2.85371,6.37391 -6.37391,6.37391c-3.5202,0 -6.37391,-2.85371 -6.37391,-6.37391z"/><path d="M456.6715,357.71285c0,-3.5202 2.85371,-6.37391 6.37391,-6.37391c3.5202,0 6.37391,2.85371 6.37391,6.37391c0,3.5202 -2.85371,6.37391 -6.37391,6.37391c-3.5202,0 -6.37391,-2.85371 -6.37391,-6.37391z"/><path d="M422.1108,358.5627c0,-3.5202 2.85371,-6.37391 6.37391,-6.37391c3.5202,0 6.37391,2.85371 6.37391,6.37391c0,3.5202 -2.85371,6.37391 -6.37391,6.37391c-3.5202,0 -6.37391,-2.85371 -6.37391,-6.37391z"/><path d="M387.83333,357.99615c0,-3.5202 2.85371,-6.37391 6.37391,-6.37391c3.5202,0 6.37391,2.85371 6.37391,6.37391c0,3.5202 -2.85371,6.37391 -6.37391,6.37391c-3.5202,0 -6.37391,-2.85371 -6.37391,-6.37391z"/></g></g></g><g><g><g><path d=""/><path d=""/><path d=""/><path d=""/><path d=""/><path d=""/></g><g><path d=""/><path d=""/><path d=""/><path d=""/><path d=""/><path d=""/></g></g><g><g><path d=""/><path d=""/><path d=""/><path d=""/><path d=""/><path d=""/></g><g><path d=""/><path d=""/><path d=""/><path d=""/><path d=""/><path d=""/></g></g></g></g><g><g><g><g><path d=""/><path d=""/><path d=""/><path d=""/><path d=""/><path d=""/></g><g><path d=""/><path d=""/><path d=""/><path d=""/><path d=""/><path d=""/></g></g><g><g><path d=""/><path d=""/><path d=""/><path d=""/><path d=""/></g><g><path d=""/><path d=""/><path d="M387.83333,222.01937c0,-3.5202 2.85371,-6.37391 6.37391,-6.37391c3.5202,0 6.37391,2.85371 6.37391,6.37391c0,3.5202 -2.85371,6.37391 -6.37391,6.37391c-3.5202,0 -6.37391,-2.85371 -6.37391,-6.37391z"/></g></g></g><g><g><g><path d=""/><path d=""/><path d=""/><path d=""/><path d=""/><path d=""/></g><g><path d=""/><path d=""/><path d=""/><path d=""/><path d=""/><path d=""/></g></g><g><g><path d=""/><path d=""/><path d=""/><path d=""/><path d=""/><path d=""/></g><g><path d=""/><path d=""/><path d=""/><path d=""/><path d=""/><path d=""/></g></g></g></g></g></g><text transform="translate(6.5,48.96666) scale(1.2584,1.2584)" font-size="40" xml:space="preserve" fill="#ffffff" fill-rule="nonzero" stroke="#000000" stroke-width="1" stroke-linecap="butt" stroke-linejoin="miter" stroke-miterlimit="10" stroke-dasharray="" stroke-dashoffset="0" font-family="&quot;ヒラギノ角ゴ Pro W3&quot;, &quot;Hiragino Kaku Gothic Pro&quot;, Osaka, &quot;メイリオ&quot;, Meiryo, &quot;ＭＳ Ｐゴシック&quot;, &quot;MS PGothic&quot;" font-weight="normal" text-anchor="start" style="mix-blend-mode: normal"><tspan x="0" dy="0">Main Menu</tspan></text><path d="M44.5,288.16095v-41.60855h16.18088l5.47258,5.04949l8.85936,0.19135l6.90166,-5.24083h60.65096h45.45218v41.60855h-102.19125l-6.09733,7.03243h-16.42892l-4.573,-7.03243z" fill="#ffde29" stroke="none" stroke-width="0"/><path d="M47.73388,284.71277v-33.30956h14.94012l5.05294,4.04235l8.18002,0.15318l6.37243,-4.19553h56.00019h46.44572v33.30956h-98.83399l-5.62979,5.62979h-15.16914l-4.22234,-5.62979z" fill="#8a1fc4" stroke="none" stroke-width="0"/><text transform="translate(55.01752,276.57614) scale(0.53616,0.53616)" font-size="40" xml:space="preserve" fill="#ffffff" fill-rule="nonzero" stroke="#000000" stroke-width="1" stroke-linecap="butt" stroke-linejoin="miter" stroke-miterlimit="10" stroke-dasharray="" stroke-dashoffset="0" font-family="&quot;ヒラギノ角ゴ Pro W3&quot;, &quot;Hiragino Kaku Gothic Pro&quot;, Osaka, &quot;メイリオ&quot;, Meiryo, &quot;ＭＳ Ｐゴシック&quot;, &quot;MS PGothic&quot;" font-weight="normal" text-anchor="start" style="mix-blend-mode: normal"><tspan x="0" dy="0">Training</tspan></text><path d="M267.7399,-6.49951l25.6243,-17.53532l231.19295,343.46389l-25.6243,17.53531z" data-paper-data="{&quot;origRot&quot;:0}" fill="#ffffff" stroke="none" stroke-width="0"/><text transform="translate(298.07334,11.09828) rotate(56.32619) scale(0.26384,0.26384)" font-size="40" xml:space="preserve" data-paper-data="{&quot;origRot&quot;:17.27613}" fill="#000000" fill-rule="nonzero" stroke="none" stroke-width="1" stroke-linecap="butt" stroke-linejoin="miter" stroke-miterlimit="10" stroke-dasharray="" stroke-dashoffset="0" font-family="&quot;ヒラギノ角ゴ Pro W3&quot;, &quot;Hiragino Kaku Gothic Pro&quot;, Osaka, &quot;メイリオ&quot;, Meiryo, &quot;ＭＳ Ｐゴシック&quot;, &quot;MS PGothic&quot;" font-weight="normal" text-anchor="start" style="mix-blend-mode: normal"><tspan x="0" dy="0">Hone your skills and test out characters!</tspan></text><path d="M10.46817,138.3069v-44.46949c0,0 18.78328,-26.56313 58.24877,-28.18489c35.06047,-1.44075 62.63308,28.18489 62.63308,28.18489h62.00676v44.46949h-131.94703l-7.51598,7.51597h-20.25136l-5.63698,-7.51597z" fill="#f0b518" stroke="none" stroke-width="0"/><text transform="translate(22.8904,115.30165) scale(0.71579,0.71579)" font-size="40" xml:space="preserve" fill="#ffffff" fill-rule="nonzero" stroke="#000000" stroke-width="1" stroke-linecap="butt" stroke-linejoin="miter" stroke-miterlimit="10" stroke-dasharray="" stroke-dashoffset="0" font-family="&quot;ヒラギノ角ゴ Pro W3&quot;, &quot;Hiragino Kaku Gothic Pro&quot;, Osaka, &quot;メイリオ&quot;, Meiryo, &quot;ＭＳ Ｐゴシック&quot;, &quot;MS PGothic&quot;" font-weight="normal" text-anchor="start" style="mix-blend-mode: normal"><tspan x="0" dy="0">Fight</tspan></text><path d="M26.59199,229.88124v-45.8571c0,0 19.3694,-27.392 60.06636,-29.06437c36.15448,-1.4857 64.58747,29.06437 64.58747,29.06437h63.9416v45.8571h-136.06427l-7.7505,7.7505h-20.88328l-5.81287,-7.7505z" fill="#ff7887" stroke="none" stroke-width="0"/><text transform="translate(39.40184,208.20413) scale(0.5608,0.5608)" font-size="40" xml:space="preserve" fill="#ffffff" fill-rule="nonzero" stroke="#000000" stroke-width="1" stroke-linecap="butt" stroke-linejoin="miter" stroke-miterlimit="10" stroke-dasharray="" stroke-dashoffset="0" font-family="&quot;ヒラギノ角ゴ Pro W3&quot;, &quot;Hiragino Kaku Gothic Pro&quot;, Osaka, &quot;メイリオ&quot;, Meiryo, &quot;ＭＳ Ｐゴシック&quot;, &quot;MS PGothic&quot;" font-weight="normal" text-anchor="start" style="mix-blend-mode: normal"><tspan x="0" dy="0">Classic Mode</tspan></text><path d="M378.68973,208.52695c0,17.15372 -39.15718,19.76518 -71.34564,19.76518c-32.18845,0 -65.31642,-2.61146 -65.31642,-19.76517c0,-17.15372 33.12797,-19.76517 65.31642,-19.76517c32.18845,0 71.34564,2.61145 71.34564,19.76517z" fill="#00e9ff" stroke="none" stroke-width="0"/><text transform="translate(256.15594,213.67199) scale(0.48007,0.48007)" font-size="40" xml:space="preserve" fill="#ffffff" fill-rule="nonzero" stroke="#000000" stroke-width="1" stroke-linecap="butt" stroke-linejoin="miter" stroke-miterlimit="10" stroke-dasharray="" stroke-dashoffset="0" font-family="&quot;ヒラギノ角ゴ Pro W3&quot;, &quot;Hiragino Kaku Gothic Pro&quot;, Osaka, &quot;メイリオ&quot;, Meiryo, &quot;ＭＳ Ｐゴシック&quot;, &quot;MS PGothic&quot;" font-weight="normal" text-anchor="start" style="mix-blend-mode: normal"><tspan x="0" dy="0">How to Play</tspan></text><path d="M243.77009,318.83327v-44.43005h19.92792l6.73986,5.3919l10.91096,0.20432l8.49989,-5.59622h74.696h61.95174v44.43005h-131.82997l-7.5093,7.5093h-20.2334l-5.63198,-7.5093z" fill="#fe9929" stroke="none" stroke-width="0"/><text transform="translate(253.48537,307.98019) scale(0.71516,0.71516)" font-size="40" xml:space="preserve" fill="#ffffff" fill-rule="nonzero" stroke="#000000" stroke-width="1" stroke-linecap="butt" stroke-linejoin="miter" stroke-miterlimit="10" stroke-dasharray="" stroke-dashoffset="0" font-family="&quot;ヒラギノ角ゴ Pro W3&quot;, &quot;Hiragino Kaku Gothic Pro&quot;, Osaka, &quot;メイリオ&quot;, Meiryo, &quot;ＭＳ Ｐゴシック&quot;, &quot;MS PGothic&quot;" font-weight="normal" text-anchor="start" style="mix-blend-mode: normal"><tspan x="0" dy="0">☁ Online</tspan></text><path d="M217.73393,157.21463v-51.40046h23.05431l7.79727,6.2378l12.62271,0.23637l9.8334,-6.47419h61.68375v51.40046h-56.11014l-8.68741,8.68741h-23.40771l-6.51556,-8.68741z" fill="#c4411f" stroke="none" stroke-width="0"/><text transform="translate(228.9734,146.32132) scale(0.80733,0.80733)" font-size="40" xml:space="preserve" fill="#ffffff" fill-rule="nonzero" stroke="#000000" stroke-width="1" stroke-linecap="butt" stroke-linejoin="miter" stroke-miterlimit="10" stroke-dasharray="" stroke-dashoffset="0" font-family="&quot;ヒラギノ角ゴ Pro W3&quot;, &quot;Hiragino Kaku Gothic Pro&quot;, Osaka, &quot;メイリオ&quot;, Meiryo, &quot;ＭＳ Ｐゴシック&quot;, &quot;MS PGothic&quot;" font-weight="normal" text-anchor="start" style="mix-blend-mode: normal"><tspan x="0" dy="0">Bios</tspan></text></g></g></svg>