<svg version="1.1" xmlns="http://www.w3.org/2000/svg" xmlns:xlink="http://www.w3.org/1999/xlink" width="305.79183" height="126.25427"><defs><radialGradient cx="245.36741" cy="341.92382" r="192.5449" gradientUnits="userSpaceOnUse" id="color-1"><stop offset="0" stop-color="#e5e5e5"/><stop offset="1" stop-color="#ffffff"/></radialGradient></defs><g transform="translate(-87.61786,-255.08462)"><g data-paper-data="{&quot;isPaintingLayer&quot;:true}" fill-rule="nonzero" stroke-linejoin="miter" stroke-miterlimit="10" stroke-dasharray="" stroke-dashoffset="0" style="mix-blend-mode: normal"><path d="M169.72093,357.8893c0,0 -6.7266,16.05387 -13.51165,20.94959c-2.58539,2.17323 -9.45638,-3.62448 -9.45638,-3.62448" data-paper-data="{&quot;origPos&quot;:null,&quot;origRot&quot;:0}" id="ID0.38359898002818227" fill="none" stroke="#000000" stroke-width="5" stroke-linecap="round"/><path d="M347.32667,373.59238c0,0 -7.34228,5.18796 -9.73205,2.8013c-6.34084,-5.45881 -11.66784,-22.02979 -11.66784,-22.02979" data-paper-data="{&quot;origPos&quot;:null,&quot;origRot&quot;:0}" id="ID0.38359898002818227" fill="none" stroke="#000000" stroke-width="5" stroke-linecap="round"/><path d="M126.11786,298.69991c0,0 -19.457,-0.299 -27.2,-6c-5.682,-3.845 -8.8,-19.6 -8.8,-19.6" data-paper-data="{&quot;origPos&quot;:null,&quot;index&quot;:null}" id="ID0.7082497556693852" fill="none" stroke="#000000" stroke-width="5" stroke-linecap="round"/><path d="M390.9097,272.62236c0,0 -3.118,15.755 -8.8,19.6c-7.743,5.701 -27.2,6 -27.2,6" data-paper-data="{&quot;origPos&quot;:null,&quot;index&quot;:null}" id="ID0.7082497556693852" fill="none" stroke="#000000" stroke-width="5" stroke-linecap="round"/><g data-paper-data="{&quot;origPos&quot;:null}" id="ID0.7015885752625763" fill="#392000" stroke="#291700" stroke-width="5"><path d="M161.47501,358.98462c-11.326,-1.875 -22.479,-5.877 -32.95,-11.35c-3.194,-1.31 -5.324,-4.763 -6.8,-8.4c-1.765,-4.229 -1.67,-9.58 -2.25,-13.45c-0.155,-1.037 -0.922,4.608 0.4,3.6c4.864,-3.774 -4.476,-12.675 12.4,-14.4c67.504,-6.902 135.932,-10.159 203.6,-8.4c16.917,0.44 17.054,7.196 22.8,14c3.117,3.736 1.273,9.956 0.65,15.05c-0.12,2.859 -1.323,5.87 -2.85,8.4c-1.226,2.036 -2.442,4.379 -5.15,5.6c-10.951,4.015 -22.261,7.357 -33.85,9.35c-24.313,4.173 -49.199,8.355 -73.6,8.4c-27.581,0.051 -55.191,-3.9 -82.4,-8.4z" id="ID0.2127109868451953" stroke-linecap="round"/><path d="M239.72501,290.03462c33.107,0 63.107,3.765 84.83,9.848c21.724,6.082 35.17,14.482 35.17,23.752c0,9.27 -13.446,17.67 -35.17,23.752c-21.723,6.083 -51.723,9.848 -84.83,9.848c-33.107,0 -63.107,-3.765 -84.83,-9.848c-21.724,-6.082 -35.17,-14.482 -35.17,-23.752c0,-9.27 13.446,-17.67 35.17,-23.752c21.723,-6.083 51.723,-9.848 84.83,-9.848z" id="ID0.8203349513933063" stroke-linecap="butt"/></g><path d="M241.36801,308.68972c34.3645,-1.4704 68.4345,-15.5775 102.6206,-11.7493c8.7173,0.9905 8.3356,15.4576 9.6176,23.5978c-0.1725,3.2343 0.2221,5.0557 -1.636,6.3952c-8.5349,4.8673 -17.5744,8.9156 -27.1672,10.8074c-25.5283,5.013 -51.8438,8.1264 -77.6348,8.8244c-22.1739,0.6008 -44.4798,-1.747 -66.3811,-5.2054c-16.5928,-2.6206 -32.8952,-7.0595 -48.782,-12.3938c-3.972,-1.3336 -4.1247,-3.2155 -4.0156,-5.602c0.7525,-5.832 -2.45,-15.6727 6.3952,-16.806c35.3015,-4.8276 71.2286,3.6616 106.9833,2.1317z" data-paper-data="{&quot;origPos&quot;:null}" id="ID0.4619863573461771" fill="url(#color-1)" stroke="#cccccc" stroke-width="4.95752" stroke-linecap="round"/><g data-paper-data="{&quot;origPos&quot;:null}" id="ID0.2879840428940952" stroke="#291700"><path d="M161.67501,326.53462c-11.976,-2.201 -23.296,-7.404 -34.4,-12.4c-3.013,-1.357 -6.117,-3.686 -7.2,-6.8c-1.629,-4.697 -0.307,-10.162 -0.4,-14c0.093,-1.356 -0.922,4.608 0.4,3.6c4.864,-3.774 -4.476,-12.675 12.4,-14.4c67.504,-6.902 135.932,-10.159 203.6,-8.4c16.917,0.44 16.651,7.556 22.8,14c3.033,3.455 2.607,8.978 2.8,13.6c0.104,2.774 -0.893,5.99 -2.4,8.8c-0.724,1.375 -0.844,2.032 -4,3.2c-12.624,4.673 -24.734,10.179 -37.6,12.8c-24.346,4.473 -49.199,8.355 -73.6,8.4c-27.581,0.051 -55.321,-3.425 -82.4,-8.4z" id="ID0.2127109868451953" fill="#392000" stroke-width="5" stroke-linecap="round"/><path d="M239.97501,257.58462c33.107,0 63.107,3.765 84.83,9.848c21.724,6.082 35.17,14.482 35.17,23.752c0,9.27 -13.446,17.67 -35.17,23.752c-21.723,6.083 -51.723,9.848 -84.83,9.848c-33.107,0 -63.107,-3.765 -84.83,-9.848c-21.724,-6.082 -35.17,-14.482 -35.17,-23.752c0,-9.27 13.446,-17.67 35.17,-23.752c21.723,-6.083 51.723,-9.848 84.83,-9.848z" id="ID0.8203349513933063" fill="#392000" stroke-width="5" stroke-linecap="butt"/><path d="M205.07501,281.53462c2.593,0 4.943,0.874 6.645,2.286c1.702,1.412 2.491,3.479 2.755,5.514c0.223,1.741 -0.627,3.671 -1.6,5.2c-0.957,1.507 -2.517,3.043 -4.4,3.6c-2.605,0.845 -5.499,0.8 -8.4,0.4c-2.01,-0.278 -4.494,-0.71 -5.6,-2.4c-1.149,-1.756 -0.725,-4.363 0,-6.4c0.655,-2.261 2.037,-4.43 3.955,-5.914c1.85,-1.432 4.052,-2.286 6.645,-2.286z" id="ID0.793330445419997" fill="#ffffff" stroke-width="5" stroke-linecap="round"/><path d="M222.87501,298.33462c0,0 1.131,-6.422 1.45,-9.6c0.099,-2.968 -2.836,-7.867 -0.2,-8.8c4.468,-1.58 13.28,1.412 14.4,4.2c0.88,2.012 -11.016,2.15 -10.4,5.4c0.848,4.467 13.35,9.6 13.35,9.6" id="ID0.043922435492277145" fill="none" stroke-width="5" stroke-linecap="round"/><path d="M286.12001,282.82062c1.918,1.484 3.3,3.653 3.955,5.914c0.725,2.037 1.149,4.644 0,6.4c-1.106,1.69 -3.59,2.122 -5.6,2.4c-2.901,0.4 -5.795,0.445 -8.4,-0.4c-1.883,-0.557 -3.443,-2.093 -4.4,-3.6c-0.973,-1.529 -1.823,-3.459 -1.6,-5.2c0.264,-2.035 1.053,-4.102 2.755,-5.514c1.702,-1.412 4.052,-2.286 6.645,-2.286c2.593,0 4.795,0.854 6.645,2.286z" id="ID0.793330445419997" fill="#ffffff" stroke-width="5" stroke-linecap="round"/><path d="M304.07501,288.33462l39.6,-2.8" id="ID0.0021916357800364494" fill="none" stroke-width="3" stroke-linecap="round"/><path d="M299.67501,299.93462l19.2,11.2" id="ID0.4336887924000621" fill="none" stroke-width="3" stroke-linecap="round"/><path d="M280.87501,320.33462l-4.8,-12.8" id="ID0.009228594601154327" fill="none" stroke-width="3" stroke-linecap="round"/><path d="M254.07501,317.93462v-8.4" id="ID0.27423911774531007" fill="none" stroke-width="3" stroke-linecap="round"/><path d="M229.27501,312.73462l-6,10.4" id="ID0.7893168786540627" fill="none" stroke-width="3" stroke-linecap="round"/><path d="M188.07501,312.33462l18,-6.4" id="ID0.6057839347049594" fill="none" stroke-width="3" stroke-linecap="round"/><path d="M142.87501,301.13462l35.6,-3.2" id="ID0.709995178040117" fill="none" stroke-width="3" stroke-linecap="round"/><path d="M182.07501,288.33462l-42.4,-5.6" id="ID0.9885275894775987" fill="none" stroke-width="3" stroke-linecap="round"/><path d="M174.07501,270.33462l24.4,6.8" id="ID0.25665095215663314" fill="none" stroke-width="3" stroke-linecap="round"/><path d="M208.47501,266.33462l4.4,5.2" id="ID0.627319558057934" fill="none" stroke-width="3" stroke-linecap="round"/><path d="M231.27501,269.13462l-0.8,-4.8z" id="ID0.27489845687523484" fill="none" stroke-width="3" stroke-linecap="round"/><path d="M255.27501,264.73462l-2.4,6.4" id="ID0.20767192309722304" fill="none" stroke-width="3" stroke-linecap="round"/><path d="M284.07501,265.93462l-6.8,5.2" id="ID0.2626995458267629" fill="none" stroke-width="3" stroke-linecap="round"/><path d="M292.87501,277.53462l15.2,-4.4" id="ID0.2796305916272104" fill="none" stroke-width="3" stroke-linecap="round"/></g><path d="M206.55052,292.04483l0.3,0.3" data-paper-data="{&quot;origPos&quot;:null}" id="ID0.029519624542444944" fill="none" stroke="#000000" stroke-width="5" stroke-linecap="round"/><path d="M278.69235,291.53768l0.3,0.3" data-paper-data="{&quot;origPos&quot;:null}" id="ID0.8245234126225114" fill="none" stroke="#000000" stroke-width="5" stroke-linecap="round"/><path d="M214.97501,304.23462h48.5" data-paper-data="{&quot;origPos&quot;:null}" id="ID0.5374096846207976" fill="none" stroke="#000000" stroke-width="6" stroke-linecap="round"/><path d="M213.97501,308.23462v-8.5z" data-paper-data="{&quot;origPos&quot;:null}" id="ID0.5509637873619795" fill="none" stroke="#000000" stroke-width="6" stroke-linecap="round"/><path d="M265.97501,307.73462c0,0 0,-7 0.7,-8.4c0,0 -10.7,1.6 -15.15,-0.6c-2.55,-1.35 -4.2,-6.35 -2.2,-8.2c2.85,-2.75 12.2,-1.15 12.2,-1.2c-0.05,-0.1 -8.55,1.2 -11.8,-0.6c-1.85,-1.05 -2.6,-4.95 -1,-6.2c3.5,-2.75 13.15,-3 13.15,-3" data-paper-data="{&quot;origPos&quot;:null}" id="ID0.5785163878463209" fill="none" stroke="#291700" stroke-width="5" stroke-linecap="round"/><path d="M262.97501,298.73462c-0.166,4.495 -0.19,9.012 -0.5,13.5c-0.077,1.122 -0.5,1 -0.5,1" data-paper-data="{&quot;origPos&quot;:null}" id="ID0.6212077126838267" fill="none" stroke="#000000" stroke-width="6" stroke-linecap="round"/><path d="M214.47501,296.23462v16" data-paper-data="{&quot;origPos&quot;:null}" id="ID0.27379179932177067" fill="none" stroke="#000000" stroke-width="6" stroke-linecap="round"/></g></g></svg>