<svg xmlns="http://www.w3.org/2000/svg" xmlns:xlink="http://www.w3.org/1999/xlink" version="1.1" width="321.65518" height="385.87867" viewBox="0,0,321.65518,385.87867"><g><g data-paper-data="{&quot;isPaintingLayer&quot;:true}" fill-rule="nonzero" stroke-linejoin="miter" stroke-miterlimit="10" stroke-dasharray="" stroke-dashoffset="0" style="mix-blend-mode: normal"><path d="M 235.8535 168.8032 C 235.8535 168.8032 202.7286 180.8098 184.9763 183.1708 C 162.7295 186.1296 112.7872 185.1708 112.7872 185.1708 " data-paper-data="{&quot;index&quot;:null}" fill="none" stroke="#000000" stroke-width="4" stroke-linecap="round"/><g><g><path d="M 222.8462 174.945 C 226.3537 178.8484 226.5601 184.3822 223.3073 187.3052 C 220.0544 190.2281 214.5741 189.4332 211.0666 185.5297 C 207.5591 181.6263 207.3526 176.0925 210.6055 173.1695 C 213.8583 170.2466 219.3387 171.0415 222.8462 174.945 Z " fill="#000000" stroke-linecap="butt" stroke-width="2.5" stroke="#000000"/><path d="M 220.9836 181.8232 C 220.9836 181.8232 229.9623 178.1972 231.7038 177.6592 C 233.0899 177.231 230.6122 178.8488 230.6122 178.8488 L 222.7591 185.9053 " fill="none" stroke-linecap="round" stroke-width="2.5" stroke="#000000"/><path d="M 217.0645 175.8822 C 217.0645 175.8822 225.7759 168.6521 227.5175 168.1141 C 228.9036 167.6859 227.558 170.8867 227.558 170.8867 L 218.8401 179.9643 " fill="none" stroke-linecap="round" stroke-width="2.5" stroke="#000000"/><path d="M 213.3806 170.2029 C 213.3806 170.2029 233.221 161.4197 234.9626 160.8817 C 236.3487 160.4535 236.0306 165.0352 236.0306 165.0352 L 215.1562 174.285 " fill="none" stroke-linecap="round" stroke-width="2.5" stroke="#000000"/><path d="M 209.1152 174.6796 C 209.1152 174.6796 208.7352 166.2737 210.3117 165.3586 C 211.5664 164.6303 212.1294 167.4188 212.1294 167.4188 L 209.2743 176.399 " fill="none" stroke-linecap="round" stroke-width="2.5" stroke="#000000"/></g><path d="M 229.2668 173.1417 L 227.6267 165.8238 L 233.3631 164.5432 L 238.9745 170.9744 Z " fill="#e60000" stroke-linecap="butt" stroke-width="2.5" stroke="#000000"/><path d="M 226.5181 193.3985 C 226.5181 193.3985 240.4399 178.1094 242.7476 168.9718 C 245.1243 159.5611 247.6019 141.2788 247.6019 141.2788 L 257.9887 138.9508 C 257.9887 138.9508 252.1094 160.9929 247.7359 171.0035 C 243.6507 180.3541 230.3936 196.7996 230.3936 196.7996 Z " fill="#d7e600" stroke-linecap="butt" stroke-width="2.5" stroke="#000000"/><path d="M 206.5163 199.1977 L 202.6661 158.0192 L 228.2355 154.5509 L 232.0857 195.7295 Z " fill="#d7e600" stroke-linecap="butt" stroke-width="2.5" stroke="#000000"/><path d="M 312.6176 125.4256 C 313.8067 130.7518 304.0919 132.8403 291.7317 139.122 C 280.6403 144.7588 267.9198 154.6578 250.6727 158.5235 C 214.2054 166.6972 182.814 165.1308 180.5579 155.0251 C 178.3018 144.9192 206.0355 130.1009 242.5027 121.9272 C 261.1402 117.7498 277.7851 120.1087 290.5592 120.8593 C 302.7799 121.5772 311.5145 120.4846 312.6176 125.4256 Z " fill="#d7e600" stroke-linecap="butt" stroke-width="2.5" stroke="#000000"/><path d="M 320.1728 124.3726 C 321.1504 128.7518 318.9535 132.9719 315.2658 133.7984 C 311.5781 134.625 307.7961 131.745 306.8185 127.3658 C 305.8408 122.9866 308.0378 118.7666 311.7255 117.94 C 315.4132 117.1135 319.1952 119.9935 320.1728 124.3726 Z " fill="#ffabfc" stroke-linecap="butt" stroke-width="2.5" stroke="#000000"/><g stroke-linecap="butt"><path d="M 280.7065 94.1505 C 282.2105 100.8877 268.8146 109.6251 250.7858 113.666 C 232.7571 117.7069 216.9226 115.5211 215.4185 108.7839 C 213.9145 102.0467 227.3104 93.3093 245.3392 89.2684 C 263.368 85.2275 279.2024 87.4133 280.7065 94.1505 Z " fill="#ffabfc" stroke-width="2.5" stroke="#000000"/><path d="M 222.9738 107.731 C 224.1018 112.7838 222.359 117.4756 219.081 118.2103 C 215.8031 118.9451 212.2313 115.4445 211.1033 110.3915 C 209.9752 105.3386 211.7181 100.6468 214.996 99.9122 C 218.2739 99.1774 221.8457 102.678 222.9738 107.731 Z " fill="#88a8ff" stroke-width="2.5" stroke="#000000"/></g><path d="M 216.8899 107.8137 C 218.7699 116.2352 217.2492 123.7446 213.4932 124.5865 C 209.7372 125.4283 205.1683 119.2838 203.2882 110.8623 C 201.4081 102.4408 202.9288 94.9314 206.6849 94.0895 C 210.4408 93.2476 215.0098 99.3922 216.8899 107.8137 Z " fill="#d7e600" stroke-linecap="butt" stroke-width="2.5" stroke="#000000"/><path d="M 232.6752 171.8402 L 231.0456 164.7983 L 236.1011 163.7736 L 237.405 170.339 Z " fill="#000000" stroke-linecap="butt" stroke-width="2.5" stroke="#000000"/></g><path d="M 130.7478 264.4353 C 130.7478 264.4353 65.5853 363.5483 65.0682 366.6667 C 64.2419 371.6406 75.1549 375.3146 75.1549 375.3146 " data-paper-data="{&quot;origRot&quot;:0,&quot;index&quot;:null}" fill="none" stroke="#000000" stroke-width="4" stroke-linecap="round"/><path d="M 161.8156 253.046 C 161.8156 253.046 186.9588 252.4398 203.1847 265.0155 C 219.0536 277.3146 225.9847 302.7873 228.471 304.041 C 232.9723 306.3125 233.9556 294.5248 233.9556 294.5248 " data-paper-data="{&quot;origRot&quot;:0,&quot;index&quot;:null}" fill="none" stroke="#000000" stroke-width="4" stroke-linecap="round"/><path d="M 100.7425 167.6866 C 109.2349 164.3353 119.8201 167.7653 130.0593 176.0132 C 140.3007 184.2621 150.1958 197.3282 157.309 213.2485 C 164.4239 229.1688 167.4204 244.9574 166.5155 257.6052 C 165.611 270.2499 160.8046 279.7532 152.3122 283.1044 C 143.8198 286.4558 133.235 283.0265 122.9958 274.7785 C 112.7536 266.53 102.8593 253.4637 95.7454 237.5437 C 93.0377 231.4835 91.7358 227.9633 89.9375 221.5711 C 87.0061 211.1507 86.8058 196.2312 86.8804 195.034 C 86.9053 194.6349 86.5111 193.5855 86.5397 193.1867 C 87.4441 180.5418 92.25 171.0379 100.7425 167.6865 Z " data-paper-data="{&quot;origRot&quot;:0,&quot;index&quot;:null}" fill="#080064" stroke="#000000" stroke-width="4" stroke-linecap="butt"/><g data-paper-data="{&quot;origRot&quot;:0}" stroke-linecap="round"><path d="M 119.2729 155.255 L 124.6484 219.6904 L 83.677 169.7376 Z " fill="#ffffff" stroke-width="4" stroke="#000000"/><path d="M 127.0141 229.5088 L 105.9506 181.2255 L 95.0663 171.945 L 106.3032 166.3644 L 108.4731 179.9727 L 133.7464 222.3341 L 136.7025 238.1061 Z " fill="#ac0000" stroke-width="4" stroke="#000000"/><path d="M 107.9289 177.4089 L 115.3352 162.1814 L 122.4136 179.4157 Z " fill="#ffffff" stroke-width="4" stroke="#000000"/><path d="M 98.3875 192.1765 L 91.658 176.9264 L 105.556 179.416 Z " fill="#ffffff" stroke-width="4" stroke="#000000"/></g><path d="M 239.6022 279.2815 C 243.2308 278.118 246.7939 278.3782 249.448 280.3554 C 252.1021 282.3325 253.8128 286.1312 253.1694 289.3886 C 251.6189 295.0829 249.7203 299.1062 238.3969 308.5875 C 235.148 309.8924 231.1984 309.4858 228.5511 307.5137 C 225.9039 305.5415 224.676 302.2324 224.8297 298.4804 C 224.9835 294.7283 226.521 290.5329 229.4039 286.786 C 232.2868 283.0393 235.9737 280.4451 239.6022 279.2816 Z " data-paper-data="{&quot;origRot&quot;:0,&quot;index&quot;:null}" fill="#000000" stroke="none" stroke-width="4" stroke-linecap="round"/><path d="M 91.0743 371.2698 C 92.7892 374.617 93.0885 378.1062 91.5507 380.9626 C 90.013 383.819 86.5299 386.0244 83.2137 385.8712 C 77.3502 385.1909 73.082 383.9322 61.9546 374.331 C 60.1593 371.372 59.9444 367.4873 61.4782 364.6382 C 63.012 361.7891 66.0872 360.1221 69.8153 359.7296 C 73.5435 359.3372 77.9252 360.2211 82.0742 362.4732 C 86.223 364.7253 89.3594 367.9226 91.0743 371.2697 Z " data-paper-data="{&quot;origRot&quot;:0,&quot;index&quot;:null}" fill="#000000" stroke="none" stroke-width="4" stroke-linecap="round"/><path d="M 174.8341 65.1761 C 189.9847 76.353 200.3776 92.6108 202.4081 111.289 C 204.4392 129.9665 197.7263 147.5599 185.2406 160.8979 C 172.7543 174.2327 154.4967 183.3109 133.4381 184.9572 C 112.3793 186.6025 92.4723 180.5087 77.3218 169.3325 C 62.171 158.1547 51.7781 141.8978 49.7471 123.2205 C 47.7168 104.543 54.4293 86.9479 66.9154 73.6116 C 79.4013 60.2752 97.6584 51.1978 118.7178 49.5515 C 139.7757 47.9063 159.6837 54.0007 174.8341 65.176 Z " data-paper-data="{&quot;origRot&quot;:0,&quot;index&quot;:null}" fill="#ffa200" stroke="#000000" stroke-width="4" stroke-linecap="butt"/><path d="M 12.4156 205.7733 C 12.4156 205.7733 13.2714 167.4489 21.2452 166.8163 C 34.9877 165.726 86.7703 176.0341 86.7703 176.0341 " fill="none" stroke="#000000" stroke-width="4" stroke-linecap="round"/><g><path d="M 10.6883 210.6326 C 6.4981 210.6996 3.0559 207.9232 3 204.4313 C 2.9441 200.9394 6.2957 198.0543 10.486 197.9873 C 14.6763 197.9203 18.1185 200.6967 18.1744 204.1886 C 18.2302 207.6805 14.8786 210.5656 10.6883 210.6326 Z " fill="#000000" stroke-linecap="butt" stroke-width="6" stroke="#000000"/><path d="M 7.5209 205.905 C 7.5209 205.905 6.7418 213.0046 6.153 214.3359 C 5.6844 215.3955 4.2657 213.2651 4.2657 213.2651 L 4.1308 204.8349 " fill="none" stroke-linecap="round" stroke-width="6" stroke="#000000"/><path d="M 13.1545 206.6581 C 13.1545 206.6581 12.3754 213.7577 11.7866 215.089 C 11.318 216.1486 9.8993 214.0182 9.8993 214.0182 L 9.7644 205.588 " fill="none" stroke-linecap="round" stroke-width="6" stroke="#000000"/><path d="M 18.5071 207.4157 C 18.5071 207.4157 17.728 214.5154 17.1392 215.8466 C 16.6706 216.9062 15.2519 214.7758 15.2519 214.7758 L 15.117 206.3456 " fill="none" stroke-linecap="round" stroke-width="6" stroke="#000000"/><path d="M 18.4477 202.156 C 18.4477 202.156 20.611 209.1475 20.336 210.5769 C 20.1171 211.7146 18.2566 209.9569 18.2566 209.9569 L 16.2335 201.772 " fill="none" stroke-linecap="round" stroke-width="6" stroke="#000000"/></g><g stroke-linecap="butt"><path d="M 155.1112 78.3931 C 158.3435 77.8339 163.3624 83.7462 165.6059 88.0058 C 170.258 96.8276 172.6314 106.533 174.2793 115.9369 C 176.217 124.4304 177.3563 133.148 176.2814 141.2923 C 175.6601 145.9832 173.4445 153.2116 170.2123 153.7708 C 166.98 154.3301 163.2052 150.6134 159.7176 144.1582 C 156.2307 137.7016 153.03 128.5066 150.9469 118.1088 C 148.8638 107.7111 148.2892 98.0617 149.0421 90.8715 C 149.7962 83.6825 151.8788 78.9523 155.1112 78.3931 Z " data-paper-data="{&quot;origRot&quot;:0,&quot;index&quot;:null}" stroke-width="4" fill="#000000" stroke="none"/><path d="M 121.3539 84.8711 C 124.5861 84.3119 129.605 90.2241 131.8486 94.4838 C 136.5007 103.3056 138.8741 113.0111 140.522 122.4149 C 142.4596 130.9084 143.599 139.626 142.524 147.7704 C 141.9028 152.4612 139.6872 159.6896 136.455 160.2488 C 133.2227 160.8081 129.4478 157.0914 125.9602 150.6362 C 122.4733 144.1796 119.2726 134.9847 117.1895 124.5868 C 115.1065 114.1891 114.5318 104.5397 115.2848 97.3495 C 116.0389 90.1605 118.1215 85.4303 121.3539 84.8712 Z " data-paper-data="{&quot;origRot&quot;:0,&quot;index&quot;:null}" stroke-width="4" fill="#000000" stroke="none"/></g><path d="M 49.3158 128.3664 C 46.1012 125.988 41.0738 126.3237 39.947 123.4612 C 36.3148 114.2306 37.4786 104.0841 36.2463 94.4091 C 35.8674 91.4327 33.0463 87.759 35.1076 85.4707 C 41.4727 78.4061 49.5087 71.5597 59.2275 68.9025 C 62.5886 67.9833 64.111 74.3608 64.0759 77.5489 C 64.0375 81.0697 62.105 84.8748 59.0311 86.9744 C 56.4243 88.7549 52.3163 88.6867 49.1378 87.7527 C 45.7681 86.762 42.9469 84.2365 40.8638 81.6322 C 38.8406 79.1012 38.0612 75.8994 37.2518 72.8875 C 36.468 69.9668 35.5309 66.8746 36.1131 63.949 C 37.0924 59.0426 39.841 54.5869 41.8254 49.9568 C 44.0092 44.8625 46.2903 39.7853 48.6319 34.7503 C 51.1887 29.2513 53.3502 23.5435 56.5324 18.3288 C 58.2062 15.5844 59.8323 12.1361 63.098 11.0415 C 69.2549 8.9744 76.2956 10.0028 82.8844 9.4851 C 86.1792 9.2258 89.6967 7.5233 92.7777 8.7068 C 96.0899 9.9785 98.0087 13.3033 99.9574 16.0417 C 102.6091 19.7671 105.1699 23.7007 106.4699 27.9438 C 107.3652 30.8663 107.2498 34.0974 106.3722 36.9797 C 105.4345 40.0556 103.9889 43.3729 101.1848 45.2875 C 98.5585 47.082 94.2889 48.8183 91.4341 47.1834 C 88.5791 45.5478 88.2164 41.2342 89.0587 38.3414 C 91.8181 28.8645 96.4944 19.842 101.8615 11.3775 C 103.8923 8.1738 107.3175 5.6839 110.901 3.8953 C 113.7895 2.4535 117.3149 2.0841 120.6517 1.9994 C 124.4666 1.9027 128.3886 2.3286 132.0655 3.3586 C 135.8288 4.4128 139.1098 6.624 142.6718 8.1671 C 145.7151 9.4863 150.0065 9.4263 151.8967 11.9558 C 154.9818 16.0821 155.0875 21.456 156.2208 26.2874 C 156.9116 29.2261 158.6919 32.5244 157.3596 35.2259 C 156.0161 37.9488 152.2472 39.0783 149.2728 40.3767 C 145.8701 41.8604 138.9354 45.4985 138.428 43.4869 C 137.6773 40.5201 142.4196 33.5564 146.7548 30.4171 C 152.8009 26.0393 160.6563 23.8987 168.1605 21.962 C 171.3487 21.1397 174.9529 21.4926 178.1962 22.3015 C 181.9899 23.2476 185.3207 25.4169 188.801 27.1103 C 191.9743 28.6542 195.6848 29.6488 198.1689 32.0157 C 200.6355 34.367 203.0524 37.4742 203.0174 40.663 C 202.979 44.1838 200.6503 47.588 197.9735 50.0883 C 195.549 52.3538 191.6594 52.8436 188.5068 54.2191 C 185.3551 55.5943 182.4438 57.5533 179.0409 58.3487 C 175.0557 59.2801 167.2285 61.5128 166.6738 59.3217 C 165.9684 56.5333 172.4509 51.3097 176.523 48.3898 C 179.1606 46.4986 182.7949 45.9633 186.1315 45.3769 C 190.5819 44.595 195.2046 44.663 199.7351 44.3065 C 203.0291 44.0481 206.7849 41.9196 209.6275 43.5284 C 213.6008 45.7779 214.3822 50.855 217.2349 54.2162 C 219.7862 57.221 223.5278 59.3885 225.7937 62.5713 C 227.6614 65.1956 228.5961 68.3033 229.4055 71.3151 C 230.1896 74.2367 231.5177 77.4232 230.5444 80.2545 C 229.2519 84.0166 225.6356 86.7417 223.0264 89.874 C 220.9426 92.375 219.2939 95.3569 216.4603 97.1623 C 213.7058 98.9156 210.2477 99.9078 206.852 100.1751 C 203.4553 100.4424 199.8152 100.0089 196.6737 98.7178 C 193.4414 97.3908 191.0654 94.7312 188.3999 92.5982 C 185.5035 90.2801 182.8797 87.6781 179.9833 85.36 C 177.3179 83.227 174.5441 81.187 171.7093 79.2395 C 168.1582 76.8003 164.7645 74.0633 160.8197 72.1961 C 155.8407 69.8401 150.1899 68.8557 145.1262 66.659 C 141.351 65.0234 138.2434 62.1794 134.3784 60.7334 C 129.8546 59.0407 125.0081 58.0763 120.2058 57.3345 C 116.8988 56.8236 113.4612 56.5473 110.1701 56.9949 C 106.8049 57.4525 103.5168 58.5325 100.5617 60.0078 C 97.1816 61.6943 94.394 64.2036 91.38 66.3731 C 86.7728 69.6887 81.9471 72.815 77.6794 76.4792 C 75.168 78.6343 73.2238 81.2862 71.113 83.7667 C 66.7105 88.9399 62.2282 94.0893 58.1239 99.4599 C 55.8038 102.4953 53.4491 105.5812 51.8425 108.9819 C 50.4704 111.8896 49.7312 115.0618 49.271 118.2135 C 48.8367 121.187 49.2058 124.2401 49.1731 127.2486 C 49.1651 128.002 49.9414 127.5643 49.1731 127.2486 Z " data-paper-data="{&quot;origRot&quot;:0,&quot;index&quot;:null}" fill="#000000" stroke="#000000" stroke-width="4" stroke-linecap="round"/><path d="M 133.4753 175.9142 C 130.7048 181.5014 121.6967 183.182 113.355 179.6679 C 105.0134 176.1539 100.497 168.7758 103.2675 163.1886 C 104.851 159.9951 108.4724 158.0779 112.8423 157.6775 C 116.1178 157.3773 117.5566 162.4819 121.1304 163.9873 C 124.7134 165.4968 129.8481 163.1667 131.7452 165.6538 C 134.2648 168.9569 135.0557 172.727 133.4753 175.9142 Z " fill="#580000" stroke="#000000" stroke-width="2.5" stroke-linecap="butt"/></g></g></svg>