<svg version="1.1" xmlns="http://www.w3.org/2000/svg" xmlns:xlink="http://www.w3.org/1999/xlink" width="278.92408" height="255.69123" viewBox="0,0,278.92408,255.69123"><g transform="translate(-84.60708,-116.10425)"><g data-paper-data="{&quot;isPaintingLayer&quot;:true}" fill-rule="nonzero" stroke-linejoin="miter" stroke-miterlimit="10" stroke-dasharray="" stroke-dashoffset="0" style="mix-blend-mode: normal"><path d="M105.03913,260.30578l95.33503,-8.09985" data-paper-data="{&quot;origRot&quot;:0}" fill="none" stroke="#000000" stroke-width="9" stroke-linecap="round"/><path d="M222.40953,244.18973l56.3889,-77.29598" data-paper-data="{&quot;origRot&quot;:0,&quot;index&quot;:null}" fill="none" stroke="#000000" stroke-width="9" stroke-linecap="round"/><path d="M245.53803,296.22921l-47.77983,-65.5782" data-paper-data="{&quot;origRot&quot;:0}" id="ID0.8172772801481187" fill="none" stroke="#000000" stroke-width="9" stroke-linecap="round"/><path d="M349.61586,355.73297l-8.76926,10.01568l-96.52455,-69.71033" data-paper-data="{&quot;origRot&quot;:0}" id="ID0.7014842056669295" fill="none" stroke="#000000" stroke-width="9" stroke-linecap="round"/><path d="M353.23463,239.55369l4.51183,11.58109l-109.68774,46.04761" data-paper-data="{&quot;origRot&quot;:0,&quot;index&quot;:null}" id="ID0.7014842056669295" fill="none" stroke="#000000" stroke-width="9" stroke-linecap="round"/><path d="M168.24105,164.86732c24.74624,-10.15177 52.84375,1.2092 62.7576,25.37545c9.91384,24.16624 -2.11019,51.98649 -26.85641,62.13825c-24.74624,10.15177 -52.84375,-1.2092 -62.7576,-25.37545c-9.91384,-24.16624 2.11019,-51.98649 26.85641,-62.13825z" data-paper-data="{&quot;index&quot;:null}" fill="#dbe6e9" stroke="#000000" stroke-width="9" stroke-linecap="butt"/><path d="M175.25323,170.99443c21.07296,-8.64487 45.2283,1.58682 53.95248,22.85312c8.72418,21.2663 -1.28648,45.51407 -22.35944,54.15894c-21.07296,8.64487 -45.2283,-1.58682 -53.95248,-22.85312c-8.72418,-21.2663 1.28648,-45.51407 22.35944,-54.15894z" data-paper-data="{&quot;index&quot;:null}" fill="#ffffff" stroke="none" stroke-width="0" stroke-linecap="butt"/><path d="M123.44287,216.89302l-11.2657,9.27721l-2.06513,-4.26182l-22.88724,-20.91293l25.67288,-12.94426c0,0 6.71894,-6.79971 9.70198,-12.51104c2.02492,-3.8769 3.13026,-12.05759 3.13026,-12.05759c0,0 5.95437,0.20249 8.42295,3.54233c1.3661,1.84825 1.40292,9.75147 1.40292,9.75147l6.55259,-14.24572c0,0 0.328,-9.24427 4.63547,-10.61304c4.30747,-1.36878 15.91891,4.08152 15.91891,4.08152l-2.01911,-9.26264l4.39893,2.0989l-0.39021,-4.99047l24.63635,-20.80514c0,0 7.27012,6.75671 7.29226,12.35589c0.02213,5.59917 -7.20409,9.9427 -7.20409,9.9427c0,0 7.50304,-4.6291 11.38817,-7.97554c4.54878,-3.91808 10.22267,-10.63888 10.22267,-10.63888l6.97472,15.0083l14.0966,-22.86245c0,0 13.66913,20.2512 15.79761,33.42957c2.23096,13.8129 -2.01974,23.84373 -10.57285,36.47619c-2.43351,3.59415 -1.30972,8.559 -1.30972,8.559l-20.73568,-3.82343c0,0 -6.46346,12.80032 -13.05018,16.84205c-6.58672,4.04174 -16.43725,-1.94388 -16.43725,-1.94388c0,0 -1.36331,9.54069 -7.49468,12.76477c-6.13137,3.2241 -18.84429,4.43888 -18.84429,4.43888c0,0 -1.75652,8.61547 -4.52093,11.49679c-2.76441,2.88132 -20.20227,14.27207 -20.20227,14.27207c0,0 -0.1164,-3.60295 -0.39933,-7.34322c-0.30743,-4.06408 -8.1225,2.09265 -8.1225,2.09265z" data-paper-data="{&quot;index&quot;:null,&quot;origRot&quot;:0}" fill="#5ef3a3" stroke="#2abc90" stroke-width="3" stroke-linecap="butt"/><g fill="#5ef3a3" stroke="#2abc90" stroke-width="2.5" stroke-linecap="butt"><path d="M236.00622,235.26551c0.91173,2.19761 5.80463,-0.70024 4.0246,3.68405c-1.028,2.53205 -2.95764,3.06394 -5.03764,4.83642c-6.23997,5.31744 -23.88421,19.77515 -41.22613,29.21968c-5.4107,2.94671 -0.56039,-2.22895 -1.8259,-4.11724c-1.37562,-2.05258 -9.24057,4.51881 -5.60521,-4.27814c1.24601,-3.01517 28.87185,-25.43891 48.11229,-34.95609c8.20486,-4.0585 0.46606,2.97937 1.55798,5.61132z" data-paper-data="{&quot;origPos&quot;:null}"/><path d="M199.23341,274.25991c5.19568,-1.06145 12.57556,14.73575 14.07219,22.60535c1.49664,7.8696 -3.38141,7.24286 -8.57708,8.30431c-5.19568,1.06145 -8.74152,3.40916 -10.23816,-4.46045c-1.49664,-7.8696 -0.45264,-25.38776 4.74305,-26.44921z" data-paper-data="{&quot;origPos&quot;:null,&quot;origRot&quot;:0,&quot;index&quot;:null}"/><path d="M189.84814,277.06347c4.59962,2.63917 -0.30939,19.36984 -4.39014,26.26319c-4.08074,6.89335 -7.32581,3.19772 -11.92543,0.55855c-4.59962,-2.63917 -8.81204,-3.2225 -4.73129,-10.11585c4.08074,-6.89335 16.44722,-19.34508 21.04687,-16.7059z" data-paper-data="{&quot;origPos&quot;:null,&quot;origRot&quot;:0,&quot;index&quot;:null}"/></g><g data-paper-data="{&quot;index&quot;:null}" id="ID0.29213789757341146" stroke="#000000" stroke-linecap="round"><path d="M200.11804,236.04784c-1.3105,3.84484 -8.40677,6.26695 -13.45072,7.60987c-1.64395,0.60969 -4.26394,-0.36052 -4.87492,-2.25881c-0.79889,-2.5081 0.13723,-5.72392 2.01131,-7.64841c1.87415,-1.92452 4.63915,-2.62933 7.59243,-2.21341c2.95338,0.41615 9.55491,2.05648 8.72188,4.51077z" id="ID0.38423543982207775" fill="#ff9999" stroke-width="0.71253"/><path d="M181.41898,239.02207c4.68224,-1.21404 10.23884,-0.80692 15.07225,0.14651c1.05463,0.18299 -2.21002,1.52319 -3.27016,2.13234c-1.87146,1.07823 -3.89083,2.29197 -5.99794,2.52283c-1.60906,0.17696 -3.59196,-0.24487 -4.88038,-1.39525c-0.93534,-0.69132 -2.10818,-3.09356 -0.92378,-3.40642z" id="ID0.38423543982207775" fill="#ffcccc" stroke-width="0.3509"/></g><path d="M168.1882,215.86751l27.38136,4.16969l-23.01665,6.46983" fill="none" stroke="#000000" stroke-width="2" stroke-linecap="round"/><path d="M226.52743,203.28391l-20.92919,11.55829l16.56448,-22.19781" data-paper-data="{&quot;index&quot;:null}" fill="none" stroke="#000000" stroke-width="2" stroke-linecap="round"/></g></g></svg>