<svg xmlns="http://www.w3.org/2000/svg" xmlns:xlink="http://www.w3.org/1999/xlink" version="1.1" width="231.5554" height="371.23139" viewBox="0,0,231.5554,371.23139"><g><g data-paper-data="{&quot;isPaintingLayer&quot;:true}" fill-rule="nonzero" stroke-linejoin="miter" stroke-miterlimit="10" stroke-dasharray="" stroke-dashoffset="0" style="mix-blend-mode: normal"><path d="M 71.9611 287.3066 C 71.9611 287.3066 72.9199 295.7307 58.6242 309.4377 C 43.0688 324.3526 19.7522 301.7995 19.1165 303.2937 C 17.169 307.8668 12.1446 312.1397 12.1446 312.1397 " data-paper-data="{&quot;origRot&quot;:0,&quot;index&quot;:null}" fill="none" stroke="#000000" stroke-linecap="round" stroke-width="4"/><path d="M 153.9598 356.294 C 153.9598 356.294 147.9253 362.9044 144.0892 359.7436 C 143.1089 358.9364 138.2329 341.6108 130.0425 325.0377 C 120.5289 305.7869 110.6021 285.2736 110.6021 285.2736 " data-paper-data="{&quot;origRot&quot;:0,&quot;index&quot;:null}" fill="none" stroke="#000000" stroke-linecap="round" stroke-width="4"/><path d="M 162.7762 345.9492 C 166.4875 346.53 169.5111 348.336 170.9741 351.2523 C 172.4372 354.1685 172.2631 358.2718 170.2547 360.8565 C 166.369 365.1864 162.916 367.8904 148.7452 371.2314 C 145.3058 370.9432 142.0066 368.8371 140.5473 365.9283 C 139.0881 363.0196 139.4708 359.5612 141.2667 356.3241 C 143.0627 353.0869 146.2737 350.0715 150.4713 348.0467 C 154.6691 346.022 159.0648 345.3684 162.7761 345.9492 Z " data-paper-data="{&quot;origRot&quot;:0,&quot;index&quot;:null}" fill="#000000" stroke="none" stroke-linecap="round" stroke-width="4"/><path d="M 12.0675 325.9595 C 8.4277 326.6654 5.0417 325.9919 2.7587 323.7524 C 0.4757 321.513 -0.6574 317.61 0.3972 314.5119 C 2.6494 309.1463 5.0118 305.45 17.1549 297.5465 C 20.4492 296.658 24.1865 297.5199 26.4637 299.7536 C 28.7409 301.9873 29.476 305.3564 28.8252 308.9942 C 28.1743 312.6321 26.1356 316.5387 22.8653 319.8497 C 19.5949 323.1606 15.7074 325.2536 12.0676 325.9595 Z " data-paper-data="{&quot;origRot&quot;:0,&quot;index&quot;:null}" fill="#000000" stroke="none" stroke-linecap="round" stroke-width="4"/><path d="M 34.1757 222.8194 C 34.1757 222.8194 43.6555 189.3376 56.61 184.8265 C 69.2101 180.4387 89.7731 182.2991 89.7731 182.2991 " data-paper-data="{&quot;index&quot;:null}" fill="none" stroke="#000000" stroke-linecap="round" stroke-width="4"/><path d="M 181.7724 211.5187 C 181.7724 211.5187 156.1231 225.4932 154.9569 221.5462 C 145.2453 216.5876 128.2128 185.1356 128.2128 185.1356 " data-paper-data="{&quot;index&quot;:null}" fill="none" stroke="#000000" stroke-linecap="round" stroke-width="4"/><path d="M 109.6337 176.1392 C 118.4476 177.9611 125.3257 186.506 129.3167 198.8378 C 133.309 211.1715 134.4144 227.2913 131.684 244.2629 C 128.9552 261.2355 122.9007 275.8755 115.3245 285.8182 C 107.7503 295.7587 98.6544 301.0012 89.8405 299.1792 C 81.0265 297.3574 74.1484 288.8132 70.1574 276.4814 C 66.1643 264.1475 65.0597 248.028 67.7892 231.0563 C 68.8286 224.5958 69.6557 220.9895 71.6243 214.7464 C 74.8337 204.5691 82.725 192.1558 83.4331 191.2087 C 83.6691 190.893 83.9107 189.8146 84.1496 189.5011 C 91.7238 179.5605 100.8197 174.3173 109.6337 176.1391 Z " data-paper-data="{&quot;origRot&quot;:0,&quot;index&quot;:null}" fill="#080064" stroke="#000000" stroke-linecap="butt" stroke-width="4"/><g data-paper-data="{&quot;origRot&quot;:0}" stroke-linecap="round"><path d="M 141.0273 176.7468 L 110.6655 232.7935 L 103.8484 169.4697 Z " fill="#ffffff" stroke-width="4" stroke="#000000"/><path d="M 107.3146 242.1688 L 116.0154 190.9722 L 112.05 177.4404 L 124.3312 178.9057 L 118.7724 191.3011 L 116.7415 239.8868 L 110.6627 254.4913 Z " fill="#ac0000" stroke-width="4" stroke="#000000"/><path d="M 119.708 188.8927 L 134.0393 180.3331 L 130.5707 198.3696 Z " fill="#ffffff" stroke-width="4" stroke="#000000"/><path d="M 103.864 195.9201 L 106.5488 179.7084 L 116.667 189.2667 Z " fill="#ffffff" stroke-width="4" stroke="#000000"/></g><path d="M 179.3896 84.0654 C 190.803 98.7016 196.3497 116.897 193.3147 135.1685 C 190.2804 153.4393 179.2331 168.3578 163.8362 177.7027 C 148.4394 187.0444 128.6948 190.8118 108.2656 186.7794 C 87.8366 182.7462 70.5572 171.672 59.1437 157.0366 C 47.7304 142.3996 42.1834 124.205 45.2177 105.9343 C 48.2528 87.6636 59.3002 72.7434 74.6971 63.4002 C 90.0938 54.0569 109.8377 50.2902 130.2677 54.3227 C 150.6958 58.3558 167.976 69.4309 179.3896 84.0654 Z " data-paper-data="{&quot;origRot&quot;:0,&quot;index&quot;:null}" fill="#ffa200" stroke="#000000" stroke-linecap="butt" stroke-width="4"/><path d="M 95.901 168.2552 C 95.901 168.2552 101.9073 168.3058 104.6897 169.2702 C 107.3212 170.1824 108.2455 173.4898 108.2455 173.4898 " fill="none" stroke="#000000" stroke-linecap="round" stroke-width="4"/><g><path d="M 157.1444 90.3869 C 160.3615 90.7147 163.5553 97.661 164.5534 102.3009 C 166.6259 111.9118 166.3004 121.7562 165.3662 131.1214 C 164.9491 139.6994 163.7145 148.2781 160.53 155.7242 C 158.694 160.0124 154.6701 166.2859 151.453 165.958 C 148.2359 165.6301 145.6398 161.0988 144.044 154.0439 C 142.4492 146.988 141.8537 137.4085 142.6388 126.984 C 143.4239 116.5595 145.4422 107.2463 148.0674 100.6205 C 150.6933 93.9961 153.9272 90.0589 157.1444 90.3869 Z " data-paper-data="{&quot;origRot&quot;:0,&quot;index&quot;:null}" fill="#000000" stroke="none" stroke-linecap="butt" stroke-width="4"/><path d="M 123.3762 87.5675 C 126.5933 87.8954 129.7871 94.8416 130.7852 99.4815 C 132.8577 109.0924 132.5322 118.9368 131.598 128.302 C 131.1808 136.88 129.9463 145.4588 126.7619 152.9049 C 124.9258 157.193 120.9019 163.4665 117.6848 163.1386 C 114.4677 162.8107 111.8716 158.2794 110.2758 151.2246 C 108.681 144.1687 108.0855 134.5892 108.8706 124.1646 C 109.6557 113.7401 111.674 104.427 114.2992 97.8011 C 116.9251 91.1767 120.159 87.2395 123.3762 87.5675 Z " data-paper-data="{&quot;origRot&quot;:0,&quot;index&quot;:null}" fill="#000000" stroke="none" stroke-linecap="butt" stroke-width="4"/><path d="M 107.7322 96.8797 L 109.1814 80.1654 L 167.9014 87.348 L 166.4522 104.0623 C 166.4522 104.0623 151.7606 108.2427 143.6696 107.253 C 132.9413 105.9407 107.7322 96.8796 107.7322 96.8796 Z " fill="#ffa200" stroke="none" stroke-linecap="butt" stroke-width="4"/><path d="M 112.2559 96.8297 L 135.2705 108.6166 " fill="none" stroke="#000000" stroke-linecap="round" stroke-width="4"/><path d="M 166.4354 103.457 L 141.8812 109.4252 " data-paper-data="{&quot;index&quot;:null}" fill="none" stroke="#000000" stroke-linecap="round" stroke-width="4"/><path d="M 103.9446 163.4185 L 105.0908 150.1993 L 163.8108 157.3819 L 162.6646 170.6012 C 162.6646 170.6012 148.0802 173.5447 139.9893 172.5551 C 129.2609 171.2428 103.9446 163.4185 103.9446 163.4185 Z " fill="#ffa200" stroke="none" stroke-linecap="butt" stroke-width="4"/><path d="M 129.9549 151.1468 L 105.4428 148.1485 " fill="none" stroke="#000000" stroke-linecap="round" stroke-width="4"/><path d="M 164.2719 155.3444 L 138.7792 152.2262 " fill="none" stroke="#000000" stroke-linecap="round" stroke-width="4"/></g><path d="M 43.4313 109.7191 C 41.0115 106.6071 36.1496 105.59 35.8404 102.5732 C 34.8448 92.8452 38.6455 83.5219 40.0461 74.0097 C 40.4773 71.0834 38.7752 66.8462 41.3401 65.2216 C 49.2598 60.2061 58.7077 55.8417 68.6401 55.9013 C 72.0752 55.9217 71.826 62.3806 70.9455 65.3979 C 69.9736 68.7301 67.1281 71.829 63.652 73.0055 C 60.7042 74.0031 56.8225 72.8469 54.0532 71.1157 C 51.1174 69.2799 49.1101 66.1328 47.8245 63.107 C 46.5763 60.1666 46.6871 56.92 46.7189 53.8456 C 46.7509 50.8646 46.6827 47.6801 48.0128 45.0574 C 50.246 40.6598 54.0393 37.1601 57.1534 33.2918 C 60.58 29.0358 64.0946 24.8219 67.6553 20.6641 C 71.5436 16.123 75.1122 11.2787 79.5186 7.1737 C 81.8367 5.0131 84.2967 2.1715 87.6878 2 C 94.082 1.6735 100.4928 4.5205 106.8853 5.7796 C 110.0821 6.4088 113.8737 5.7271 116.4841 7.6694 C 119.2907 9.7566 120.2289 13.4228 121.3514 16.5402 C 122.8788 20.7814 124.2648 25.1961 124.3715 29.5697 C 124.445 32.582 123.4769 35.6188 121.878 38.1219 C 120.1706 40.7928 117.9168 43.5579 114.746 44.6305 C 111.7761 45.6363 107.2614 46.1502 104.9856 43.8396 C 102.7098 41.5284 103.5117 37.3369 105.0798 34.8144 C 110.2174 26.5508 117.054 19.2278 124.3982 12.6182 C 127.1773 10.1164 131.0905 8.6627 134.9677 7.9168 C 138.093 7.3156 141.5379 7.9015 144.7281 8.7077 C 148.3755 9.6295 151.9857 11.0759 155.2026 13.0306 C 158.4952 15.0314 161.0224 18.0022 163.994 20.4136 C 166.5325 22.4745 170.6225 23.5578 171.7448 26.4613 C 173.5773 31.1982 172.2498 36.328 172.0421 41.2157 C 171.917 44.189 172.7308 47.7933 170.7482 50.0039 C 168.7493 52.232 164.8713 52.3028 161.7026 52.7452 C 158.0781 53.2496 150.5281 54.8609 150.5809 52.8164 C 150.6564 49.8004 157.0087 44.4496 161.9584 42.6211 C 168.8614 40.0715 176.8875 40.1265 184.5261 40.2817 C 187.7712 40.3482 191.0991 41.6408 193.9632 43.2705 C 197.3133 45.1766 199.899 48.121 202.753 50.6533 C 205.3554 52.9621 208.6136 54.8922 210.343 57.7992 C 212.0599 60.6867 213.5289 64.2787 212.6483 67.2966 C 211.6764 70.6288 208.5612 73.2418 205.3557 74.9043 C 202.4522 76.4108 198.6294 75.8424 195.2711 76.3105 C 191.9137 76.7787 188.6294 77.8649 185.1875 77.7159 C 181.1568 77.5413 173.1329 77.5813 173.1885 75.3538 C 173.2597 72.5192 180.8017 69.2826 185.4433 67.5925 C 188.4497 66.4979 192.0421 66.9554 195.3654 67.2852 C 199.7981 67.7254 204.1686 69.0181 208.5642 69.8834 C 211.7601 70.5133 215.8911 69.4905 218.1623 71.7731 C 221.3365 74.9643 220.7294 79.9918 222.5445 83.9406 C 224.1683 87.471 227.1444 90.5229 228.4498 94.1464 C 229.5257 97.1341 229.5873 100.3326 229.5555 103.407 C 229.5236 106.3888 229.9378 109.7668 228.2615 112.1961 C 226.0349 115.4242 221.8778 117.0504 218.5686 119.3307 C 215.9259 121.1514 213.5684 123.5442 210.3987 124.5052 C 207.3179 125.4378 203.7714 125.4609 200.4767 124.8124 C 197.1811 124.1638 193.8406 122.785 191.2012 120.7247 C 188.4852 118.6061 186.9363 115.4499 184.9725 112.7168 C 182.8389 109.7466 181.0393 106.5793 178.9055 103.609 C 176.9419 100.8759 174.8507 98.2023 172.6768 95.6003 C 169.9538 92.3411 167.4592 88.8411 164.2103 86.0204 C 160.1096 82.461 155.0067 80.025 150.7831 76.5942 C 147.6337 74.0385 145.4392 70.5128 142.1542 68.1131 C 138.3094 65.3043 133.9646 63.1011 129.6028 61.1209 C 126.599 59.7572 123.409 58.5816 120.1657 58.1321 C 116.8494 57.6724 113.4409 57.824 110.2436 58.4394 C 106.5867 59.1424 103.2735 60.784 99.8358 62.0427 C 94.5811 63.9662 89.1693 65.652 84.1441 67.9966 C 81.1874 69.3753 78.6371 71.3763 75.9742 73.1703 C 70.4203 76.9117 64.7969 80.6093 59.4736 84.6173 C 56.4645 86.8825 53.4091 89.1864 50.9804 91.988 C 48.9053 94.3839 47.3607 97.1989 46.0864 100.0687 C 44.8841 102.7761 44.4233 105.7726 43.5929 108.62 C 43.3851 109.3331 44.2384 109.1238 43.5929 108.62 Z " data-paper-data="{&quot;origRot&quot;:0,&quot;index&quot;:null}" fill="#000000" stroke="#000000" stroke-linecap="round" stroke-width="4"/></g></g></svg>