<svg version="1.1" xmlns="http://www.w3.org/2000/svg" xmlns:xlink="http://www.w3.org/1999/xlink" width="308.19982" height="286.82684" viewBox="0,0,308.19982,286.82684"><g transform="translate(-88.956,-43.28551)"><g data-paper-data="{&quot;isPaintingLayer&quot;:true}" fill-rule="nonzero" stroke-linejoin="miter" stroke-miterlimit="10" stroke-dasharray="" stroke-dashoffset="0" style="mix-blend-mode: normal"><path d="M92.5,281.21666v-234h294v234z" fill="#ccd8ff" stroke="none" stroke-width="0" stroke-linecap="butt"/><g><path d="M98.03439,181.15508c-2.75738,0.02053 -5.51457,0.04007 -8.26646,0.03265c-0.00134,-1.61823 -0.00706,-3.30736 -0.01793,-5.07941c-0.01321,-2.15244 -0.1343,-4.31671 -0.28898,-6.48518c0.28627,0.02295 0.56562,0.04932 0.83699,0.07929c0.03617,-0.06342 0.07409,-0.1279 0.00574,-0.18458c-0.26046,-0.21575 -0.57202,-0.42757 -0.89698,-0.63837c-0.14827,-1.99287 -0.31772,-3.98853 -0.45077,-5.98107c2.08901,-0.24042 5.20727,-0.0915 7.52864,-0.27873c1.73087,-0.13962 3.26785,-0.39062 4.90177,-0.58587c1.45174,-0.0112 2.96029,-0.10656 4.41608,-0.1238c4.43823,-2.42512 7.32695,-3.8203 17.64179,-4.56314c0.95116,-0.06852 12.60263,-0.07069 13.55373,0c1.6593,0.12327 3.33332,0.27227 4.89895,0.46424c2.30121,-0.40093 5.76307,-0.2429 8.50695,-0.46424c1.73087,-0.13962 3.10413,-0.5082 4.90177,-0.58587c2.83796,-0.12268 5.81929,-0.12948 8.65197,0c1.23135,0.05627 1.78691,0.48909 3.02664,0.53364c0.66687,0.02397 0.67127,-0.29789 1.25186,-0.37989c2.11194,-0.29824 4.24058,-0.67092 6.67655,-0.73968c3.67874,-0.10375 7.67278,-0.11512 11.06759,0.23921c1.67413,0.17473 1.28299,0.83592 2.45085,1.17174c0.29056,0.08353 0.16729,-0.26793 0.61107,-0.29138c1.59535,-0.08429 3.26779,0 4.90171,0c1.60092,0 10.96091,-0.01254 11.67866,0.05223c1.34043,0.12092 2.59376,0.28446 3.80805,0.46705c7.0239,-0.88534 19.13135,-1.80883 26.17823,-1.69101c3.08344,0.05158 6.69765,-0.14484 9.19246,0.29138c0.77338,0.13523 1.41247,0.3 1.9668,0.48347c3.39117,-0.41483 20.30203,-1.25989 24.99283,-0.48347c0.52837,0.08746 2.7784,0.7895 4.59796,1.60549c4.25517,-0.29636 9.58965,-0.15527 13.16921,-0.13927c2.25971,0.01008 4.61859,-0.10821 6.77684,0.05217c3.16345,0.23511 6.45515,0.54519 8.79763,1.10515c2.22817,0.53259 3.67329,1.25966 4.50054,1.99048c0.62373,-0.0942 1.27707,-0.17333 1.98286,-0.21846c4.14609,-0.26518 18.30076,0.05141 20.47623,0.57145c0.37122,0.08874 0.66857,0.18716 0.90802,0.2932c6.32672,-0.38077 15.26714,-0.46594 18.69899,0.29267c1.95262,0.43159 2.02466,1.13311 2.14242,1.81516c1.19401,0.00387 2.19699,0.02567 2.46586,0.00909c1.7688,-0.1092 3.0859,-0.53827 4.90177,-0.58587c3.53021,-0.09261 7.53275,-0.23763 10.62791,0.17866c3.46274,0.4657 4.83125,1.50866 7.36224,2.24077c1.15145,0.33306 2.69669,0.60732 3.98976,0.9167c3.99343,-0.17791 0.84352,-2.35434 4.51634,-1.72485c-0.11576,5.50187 -2.8174,13.08406 -3.04821,18.61976c-1.83786,0.06738 6.91338,0.60203 5.38672,0.60885c-3.26726,0.0146 -6.67889,0.22866 -9.80354,0c-0.49273,-0.03611 0.0007,-0.48745 -0.12966,-0.36828c-0.52045,0.47567 0.23575,1.07086 -1.05738,1.45321c-4.08226,1.20696 -13.50567,1.78931 -19.56352,1.81921c-11.88165,0.99864 -24.46324,2.49763 -37.4947,1.73058c-2.38175,-0.14015 -4.56461,-0.44138 -6.67655,-0.73962c-0.58059,-0.082 -0.57749,-0.37989 -1.25186,-0.37989c-0.67432,0 -0.67121,0.29789 -1.25186,0.37989c-2.11194,0.29824 -4.29474,0.59947 -6.67649,0.73962c-3.9424,0.23206 -14.50707,0.22432 -18.4555,0c-3.52552,-0.20029 -6.18048,-1.08651 -9.80072,-1.12443c-0.81177,-0.0085 -1.05339,0.32802 -1.8304,0.38481c-0.13077,0.00955 -0.26072,0.00932 -0.39027,0.00287v0.00973c0,1.07748 -3.65395,1.95098 -8.16141,1.95098c-3.25806,0 -6.07022,-0.45638 -7.37888,-1.11628l-0.65972,-0.31541c-0.56183,0.26113 -0.00733,0.65544 -0.89565,0.86025c-4.65605,1.07355 -15.27669,2.13937 -21.78355,1.71798c-4.4734,-0.28974 -9.1454,-0.6504 -12.66623,-1.37091c-1.04981,-0.21483 -0.63593,-0.60609 -0.41887,-0.97062c-2.26973,0.22983 -3.43355,-0.17444 -5.79039,-0.02896c-3.53748,0.2184 -6.25592,0.96294 -9.80348,1.17174c-1.1004,0.06477 -9.80107,0.05223 -11.67866,0.05223c-8.16956,0 -16.33917,0 -24.50872,0c-7.41481,-0.23505 -10.82187,0.02433 -13.41487,-1.30761c-4.30723,0.24554 -9.95142,0.15146 -11.7663,-0.01266c-3.43637,-0.31078 -4.93993,-1.50491 -8.55537,-1.6613c-3.21562,-0.1391 -6.63041,0.18675 -9.80348,0c-1.77484,-0.10445 -12.59735,-1.44401 -13.69939,-1.69096c-1.33269,-0.29865 -1.43697,-0.80849 -2.45091,-1.17174c-1.55796,-0.55814 -6.04484,0.08611 -8.32319,-0.3058c-2.66416,-0.45832 -3.64,-1.30591 -5.45997,-1.95883zM113.7684,180.30181l-0.66752,-0.22204c-0.23194,0.11811 -0.50703,0.22274 -0.81236,0.31547c0.0136,0.01817 0.06395,0.032 0.16547,0.03962c0.45052,0.034 0.882,-0.05311 1.31435,-0.13306z" fill="#5f8777" stroke="none" stroke-width="0.5" stroke-linecap="butt"/><path d="M215.6409,229.13806v-103.75043h5.86161v103.75043z" fill="#65532d" stroke="none" stroke-width="0" stroke-linecap="butt"/><path d="M90.84853,272.16244c1.40166,-16.78688 -1.70958,-34.14317 -1.59853,-51.09399c0.1002,-15.29533 0.59015,-24.64528 0.50927,-43.19651l295.60606,-1.5c-0.17911,4.92299 2.60261,11.84576 2.38467,16.67995c-0.17681,3.92196 0.35862,10.01001 0.08636,13.98031c-1.2106,17.65389 -1.15091,35.45247 -0.08636,53.07614c0.28304,4.6858 -2.67306,7.17346 -2.04167,11.55411z" fill="#e9ecea" stroke="none" stroke-width="1.04792" stroke-linecap="butt"/><path d="M347.17962,226.05552c0,7.48515 -33.66619,9.7213 -54.56751,9.7213c-20.90132,0 -73.93021,-1.59752 -73.93021,-9.08268c0,-7.4851 53.90896,-14.19165 74.81033,-14.19165c20.90132,0 53.68739,6.06793 53.68739,13.55303z" fill="#e9ecea" stroke="#e9ecea" stroke-width="2" stroke-linecap="butt"/><path d="M92.62217,198.47086c0.02363,-1.36248 1.04566,-3.25237 1.06507,-4.68548h293.98679c-0.0987,1.30056 0.24208,3.22766 0.06552,4.68548z" fill="#95999c" stroke="#7e8184" stroke-width="2" stroke-linecap="round"/><path d="M234.94645,124.31386c0,-1.21517 3.15237,-2.20027 7.04096,-2.20027c3.88865,0 7.04096,0.9851 7.04096,2.20027c0,1.21517 -3.15231,2.20033 -7.04096,2.20033c-3.88859,0 -7.04096,-0.98516 -7.04096,-2.20033z" fill="#e9ecea" stroke="#e9ecea" stroke-width="2" stroke-linecap="butt"/><path d="M234.06633,128.27443c0,-1.45825 2.36428,-2.64036 5.28072,-2.64036c2.91644,0 5.28072,1.18211 5.28072,2.64036c0,1.45825 -2.36428,2.64036 -5.28072,2.64036c-2.91644,0 -5.28072,-1.18211 -5.28072,-2.64036z" fill="#e9ecea" stroke="#e9ecea" stroke-width="2" stroke-linecap="butt"/><path d="M299.59035,181.12443c-0.14162,0.05375 -0.28329,0.10293 -0.42409,-0.05856c-0.10709,-0.1228 -0.23874,0.06729 -0.31477,-0.85843c-0.07603,-0.92572 -0.05803,-2.53227 -0.07052,-3.83267c-0.00903,-0.94296 0.01981,-1.91176 0.00645,-2.8471c-0.00926,-0.6463 -0.06272,-1.1147 -0.07227,-1.76024c-0.03288,-2.21264 -0.00182,-4.58395 0.13634,-6.26623c0.10234,-1.246 0.35246,-2.4716 0.51072,-1.58152c0.00106,-0.09525 0.00217,-0.19214 0.00018,-0.27725c-0.01758,-0.74108 -0.04302,-1.45122 -0.06307,-2.18298c-0.02814,-1.02865 -0.07948,-2.01375 -0.08153,-3.09774c-0.00275,-1.45948 -0.00651,-3.15266 0.06741,-4.30207c0.05492,-0.85404 0.17509,-0.43317 0.25949,-0.78c0.05105,-0.20979 0.09636,-0.58675 0.14455,-0.88012c0.04279,-0.01682 0.08728,-0.16008 0.13024,-0.18599c0.13089,-3.64311 0.21612,-5.73904 0.52033,-6.85497c0.02802,-0.10293 0.37168,-0.10621 0.3997,0c0.04894,0.18523 0.09836,0.40902 0.14449,0.69741c0.06788,-0.60228 0.16999,-0.36494 0.25094,-0.69741c0.05105,-0.20979 0.09156,-0.76342 0.14455,-0.88012c0.0837,-0.18429 0.17163,-0.19449 0.25516,0c0.03634,0.08452 0.0527,0.73475 0.08927,0.80169c0.01969,0.03599 0.01981,-0.44753 0.03693,-0.57069c0.06231,-0.448 0.12509,-1.00796 0.19695,-1.11113c0.1085,-0.15586 0.22626,-0.17298 0.32637,0.35932c0.04941,0.26248 0.03787,1.25579 0.07233,1.76024c0.00856,0.1255 0.00492,-0.40252 0.018,-0.43774c0.04707,-0.12667 0.09636,0 0.14455,0c0.04724,0 0.32327,-0.01887 0.34449,0.07843c0.03951,0.18171 0.07649,0.42737 0.11231,0.70169c0.20715,-1.33006 0.56424,-2.71738 0.77209,-2.54036c0.09091,0.07749 0.19754,-0.21758 0.2711,0.43774c0.0228,0.2031 0.04168,0.4507 0.05803,0.72631c0.1,-0.62321 0.59876,-1.89277 0.7371,-0.72631c0.01559,0.13136 0.08195,1.18604 0.13564,2.41182c0.1255,-0.44519 0.28282,-0.23323 0.38839,-0.2092c0.06665,0.01518 0.13622,-0.16248 0.19988,0.07843c0.09326,0.3531 0.19038,0.81893 0.25943,1.66012c0.06571,0.80017 0.10832,1.8923 0.13277,2.99024c0.01841,-0.1415 0.03763,-0.26037 0.05844,-0.32819c0.12233,-0.39835 0.5398,0.0772 0.60392,0.85843c0.01096,0.13329 0.01975,0.28118 0.02679,0.4405c0.18657,-0.57203 0.45029,-0.69999 0.55152,0.43962c0.05756,0.64841 0.05967,1.70221 0.06319,2.72688c0.03517,0.00574 0.06477,0.03851 0.07268,0.0136c0.05217,-0.16401 0.09103,-0.80861 0.14461,-0.88012c0.1041,-0.13904 0.22215,-0.35697 0.31342,0.2684c0.10217,0.69958 0.1425,2.26645 0.21717,3.36626c0.03394,0.50035 0.07954,0.91224 0.11764,1.37707c0.20656,-0.46869 0.49085,1.37953 0.52924,3.9601c0.06823,0.18886 0.13622,0.46535 0.20457,0.60937c0.02351,1.27754 0.05422,2.5386 0.07052,3.83261c0.00018,0.0143 0.00035,0.02872 0.00059,0.04326c0.09619,0.91289 0.15891,2.33022 0.20985,3.68402c0.02773,0.73798 0.01465,1.62818 0.00639,2.43362c-0.01993,1.95098 0.00246,4.07065 -0.13277,4.04011c0.00152,0.4 -0.00891,0.84055 -0.01178,1.24061c-0.00785,1.10585 0.01331,2.36715 -0.03593,3.30102c-0.11934,2.26111 -0.44155,3.10542 -0.6385,3.15026c-0.09636,0.02192 -0.19695,0.34355 -0.28909,0c-0.01454,-0.05422 0,-0.73223 -0.00387,-0.55322c-0.0153,0.71459 0.00698,1.60866 -0.03118,2.18304c-0.1204,1.81323 -0.3983,2.68802 -0.57696,2.73292c-0.35047,1.50022 -0.72151,3.75201 -1.10585,2.5998c-0.07022,-0.21055 -0.13464,-0.66312 -0.19689,-1.11113c-0.01717,-0.12315 -0.01706,-0.57069 -0.03693,-0.57069c-0.01993,0 -0.01981,0.44753 -0.03693,0.57069c-0.06231,0.448 -0.12667,0.90058 -0.19695,1.11113c-0.11624,0.34859 -0.42784,0.33698 -0.54431,0c-0.10398,-0.30088 -0.18224,-1.63216 -0.28904,-1.6892c-0.02392,-0.01278 -0.03107,0.49279 -0.05399,0.57807c-0.00387,0.01436 -0.00768,0.01407 -0.01149,0.0044v0.0146c0,1.61862 -0.10779,2.9308 -0.24074,2.9308c-0.09607,0 -0.17901,-0.68557 -0.21764,-1.67689l-0.01946,-0.47385c-0.01653,0.39226 -0.00018,0.98463 -0.02638,1.29231c-0.13734,1.6127 -0.45058,3.21386 -0.64249,2.58081c-0.13194,-0.43522 -0.26969,-0.97707 -0.37356,-2.05942c-0.03095,-0.32268 -0.01876,-0.91048 -0.01237,-1.45813c-0.06694,0.34525 -0.10123,-0.26207 -0.17075,-0.04349c-0.10434,0.32807 -0.18452,1.44659 -0.28915,1.76024c-0.03247,0.0973 -0.28909,0.07843 -0.34443,0.07843c-0.24097,0 -0.48188,0 -0.72285,0c-0.2187,-0.3531 -0.31916,0.03658 -0.39566,-1.96434c-0.12702,0.36887 -0.29349,0.22755 -0.34701,-0.01899c-0.10135,-0.46688 -0.14572,-2.26076 -0.25234,-2.4957c-0.09484,-0.20891 -0.19554,0.2806 -0.28915,0c-0.05234,-0.15692 -0.37151,-2.1692 -0.40404,-2.54024c-0.03927,-0.44865 -0.04238,-1.21452 -0.07227,-1.76024c-0.04595,-0.83844 -0.17825,0.12937 -0.24548,-0.45943c-0.07855,-0.68845 -0.10733,-1.96176 -0.16102,-2.94264zM308.40879,179.13981c0.00715,0.0551 0.01436,0.10733 0.02198,0.09478c0.00879,-0.01448 -0.00844,-0.03599 -0.02198,-0.09478zM300.05441,179.84261l-0.01969,-0.33358c-0.00686,0.17743 -0.01495,0.33464 -0.02397,0.47397c0.00041,0.02732 0.00188,0.04807 0.00492,0.05955c0.01325,0.05105 0.02597,-0.07978 0.03875,-0.19994z" fill="#054700" stroke="none" stroke-width="0.5" stroke-linecap="butt"/><path d="M363.73983,133.55515v-22.00388h7.04102v22.00388z" fill="#735f34" stroke="#63522d" stroke-width="2.5" stroke-linecap="butt"/><path d="M230.86718,136.88806h65.49894v56.46485h-65.49894z" fill="#735f34" stroke="#63522d" stroke-width="4.5" stroke-linecap="round"/><g fill="#a57d24" stroke-width="4.5"><path d="M256.97688,168.64665h14.25502v23.1806h-14.25502z" stroke="#a57d24" stroke-linecap="butt"/><path d="M268.39975,179.49385c0.41729,0 0.7953,0.22098 1.06869,0.57807c0.27391,0.35709 0.44325,0.85023 0.44325,1.39477c0,0.54448 -0.16934,1.03768 -0.44325,1.39477c-0.27339,0.35709 -0.6514,0.57801 -1.06869,0.57801c-0.41723,0 -0.79524,-0.22092 -1.06869,-0.57801c-0.27385,-0.35709 -0.4432,-0.85028 -0.4432,-1.39477c0,-0.54454 0.16934,-1.03774 0.4432,-1.39477c0.27344,-0.35709 0.65146,-0.57807 1.06869,-0.57807z" stroke="none" stroke-linecap="round"/></g><path d="M255.58387,166.34263h16.05189v26.27893h-16.05189z" fill="#554626" stroke="#42361e" stroke-width="4.5" stroke-linecap="butt"/><path d="M268.45004,178.56384c0.46987,0 0.89548,0.24865 1.20339,0.65046c0.30838,0.40175 0.49906,0.95673 0.49906,1.56945c0,0.61266 -0.19068,1.16763 -0.49906,1.56945c-0.30791,0.40175 -0.73352,0.6504 -1.20339,0.6504c-0.46992,0 -0.89554,-0.24865 -1.20345,-0.6504c-0.30838,-0.40181 -0.49906,-0.95679 -0.49906,-1.56945c0,-0.61271 0.19068,-1.16769 0.49906,-1.56945c0.30791,-0.40181 0.73352,-0.65046 1.20345,-0.65046z" fill="#778747" stroke="none" stroke-width="4.5" stroke-linecap="round"/><path d="M235.98207,162.20322v-21.09727h13.42548v21.09727z" fill="#664a0c" stroke="#c5c5c5" stroke-width="4.5" stroke-linecap="butt"/><path d="M275.72476,162.30867v-21.09721h13.42554v21.09721z" fill="#664a0c" stroke="#c5c5c5" stroke-width="4.5" stroke-linecap="butt"/><path d="M224.79414,138.22908l15.02377,-13.74517l47.6286,0.31969l12.78621,14.06481z" fill="#735f34" stroke="#63522d" stroke-width="4.5" stroke-linecap="butt"/><g stroke-width="4.5"><path d="M313.83968,141.27318h75.22325l-2,51.39854l-73.22325,0.5z" data-paper-data="{&quot;origPos&quot;:null}" fill="#735f34" stroke="#63522d" stroke-linecap="round"/><g data-paper-data="{&quot;origPos&quot;:null}" fill="#a57d24"><path d="M345.22096,170.46346h17.13312v21.306h-17.13312z" stroke="#a57d24" stroke-linecap="butt"/><path d="M358.95019,180.43346c0.50152,0 0.95579,0.2031 1.28445,0.5313c0.32919,0.32819 0.5327,0.78153 0.5327,1.28199c0,0.50046 -0.20351,0.95374 -0.5327,1.28199c-0.32866,0.32819 -0.78293,0.5313 -1.28445,0.5313c-0.50158,0 -0.95585,-0.2031 -1.28445,-0.5313c-0.32919,-0.32825 -0.5327,-0.78153 -0.5327,-1.28199c0,-0.50046 0.20351,-0.9538 0.5327,-1.28199c0.3286,-0.32825 0.78288,-0.5313 1.28445,-0.5313z" stroke="none" stroke-linecap="round"/></g><g data-paper-data="{&quot;origPos&quot;:null}"><path d="M356.30989,192.60233c0,0 -0.64976,0.19672 -0.77133,0.00018c-0.45263,-0.82526 -0.4718,-1.78943 -0.62918,-2.69335c-0.19472,-0.77115 -0.42714,-2.33233 -0.42714,-2.33233" fill="none" stroke="#000000" stroke-linecap="round"/><path d="M353.48671,192.79155c0,0 -0.9412,0.38218 -0.99255,-0.04162c-0.28558,-1.61505 0.17251,-4.9214 0.17251,-4.9214" fill="none" stroke="#000000" stroke-linecap="round"/><path d="M353.45095,180.398c0.63563,0.01788 1.21775,0.46477 1.64471,1.1722c0.42708,0.7075 0.699,1.67548 0.71412,2.73567c0.0153,1.06025 -0.22913,2.0137 -0.63634,2.69775c-0.40709,0.68387 -0.97684,1.09829 -1.61241,1.08035c-0.63563,-0.01788 -1.21775,-0.46471 -1.64471,-1.17209c-0.42719,-0.70755 -0.699,-1.67554 -0.71424,-2.73573c-0.01512,-1.06019 0.22925,-2.0137 0.63639,-2.69775c0.40709,-0.68387 0.9769,-1.09835 1.61247,-1.08041z" fill="#001966" stroke="#000000" stroke-linecap="butt"/><path d="M346.0206,181.38433c0,0 2.61334,-0.51289 3.89486,-0.72866c0.89143,-0.0922 2.62119,-0.19461 2.62119,-0.19461" fill="none" stroke="#000000" stroke-linecap="round"/><path d="M352.58935,180.00064l1.5654,-0.02245l0.06014,3.1985l-1.5654,0.02245z" fill="#ffffff" stroke="#000000" stroke-linecap="butt"/><path d="M353.22047,180.48639l0.29812,-0.00422l-0.17473,2.60197z" fill="#660000" stroke="#000000" stroke-linecap="round"/><path d="M356.75854,192.17871c0.3361,0.14554 0.84595,0.69577 0.55972,0.90837c-0.48024,0.35299 -1.46177,0.25504 -2.21211,0.14109c-0.24279,-0.03699 -0.29478,-0.38775 -0.26512,-0.6055c0.02966,-0.21776 0.1854,-0.46354 0.42039,-0.53429c0.43399,-0.12415 1.0477,-0.14537 1.49711,0.09033z" fill="#000000" stroke="none" stroke-linecap="round"/><path d="M356.8287,171.61931c0.22362,0 0.4262,0.0425 0.57291,0.11125c0.14672,0.0687 0.23751,0.16366 0.23751,0.2684c0,0.10475 -0.12409,0.24085 -0.23751,0.2684c-0.16928,0.03898 -0.33739,-0.14015 -0.51359,-0.15674c-0.21512,0.01659 -0.42784,0.19777 -0.63217,0.15674c-0.11395,-0.02479 -0.23751,-0.16366 -0.23751,-0.2684c0,-0.10475 0.0908,-0.1997 0.23751,-0.2684c0.14672,-0.06876 0.34929,-0.11125 0.57285,-0.11125z" fill="#660000" stroke="#000000" stroke-linecap="round"/><path d="M354.47456,180.81283c0,0 1.90567,0.73364 2.11569,1.54289c0.44484,1.34835 -0.36981,4.2094 -0.36981,4.2094" fill="none" stroke="#000000" stroke-linecap="round"/><path d="M353.95909,192.01254c0.33616,0.14543 0.8463,0.69536 0.56019,0.90814c-0.48001,0.35316 -1.46159,0.25562 -2.21205,0.14197c-0.24279,-0.03693 -0.29501,-0.38763 -0.26547,-0.60539c0.0296,-0.21782 0.18523,-0.46359 0.42016,-0.53446c0.43393,-0.12432 1.04759,-0.14578 1.49717,0.08974z" fill="#000000" stroke="none" stroke-linecap="round"/><g fill="#000000" stroke="none" stroke-linecap="butt"><path d="M354.46976,170.53919c0.06864,-0.00932 0.1357,0.00868 0.18869,0.04525c0.05299,0.03669 0.09179,0.09185 0.10393,0.15697c0.01213,0.06506 -0.00475,0.12784 -0.04179,0.17673c-0.03705,0.04883 -0.09425,0.0837 -0.16289,0.09302c-0.06858,0.00938 -0.1357,-0.00862 -0.18863,-0.04525c-0.05299,-0.03664 -0.09179,-0.09185 -0.10393,-0.15692c-0.01213,-0.06506 0.00475,-0.12784 0.04179,-0.17679c0.03705,-0.04883 0.09425,-0.0837 0.16284,-0.09302z"/><path d="M355.14671,170.45015c0.06864,-0.00932 0.1357,0.00862 0.18863,0.04525c0.05299,0.03664 0.09185,0.09185 0.10393,0.15697c0.01213,0.06506 -0.00469,0.12784 -0.04179,0.17673c-0.03699,0.04883 -0.09425,0.0837 -0.16289,0.09302c-0.06858,0.00932 -0.1357,-0.00868 -0.18857,-0.04525c-0.05299,-0.03664 -0.09185,-0.09185 -0.10398,-0.15697c-0.01207,-0.06506 0.00475,-0.12784 0.04185,-0.17673c0.03699,-0.04883 0.09425,-0.0837 0.16284,-0.09302z"/><path d="M355.81898,170.36105c0.06864,-0.00932 0.13575,0.00868 0.18863,0.04531c0.05299,0.03664 0.09185,0.09179 0.10398,0.15692c0.01207,0.06506 -0.00475,0.12784 -0.04185,0.17673c-0.03699,0.04883 -0.09425,0.08376 -0.16284,0.09308c-0.06864,0.00932 -0.1357,-0.00868 -0.18863,-0.04531c-0.05299,-0.03664 -0.09185,-0.09185 -0.10393,-0.15692c-0.01213,-0.06506 0.00469,-0.12784 0.04179,-0.17673c0.03699,-0.04883 0.09425,-0.08376 0.16284,-0.09308z"/></g><path d="M357.44276,173.65176c0.94413,0.78733 1.511,1.83374 1.47601,2.95185c-0.03494,1.11804 -0.66523,2.09804 -1.65526,2.77823c-0.99008,0.68 -2.33984,1.06019 -3.81362,0.97854c-1.47378,-0.08171 -2.79511,-0.60978 -3.73924,-1.39706c-0.94413,-0.78733 -1.511,-1.83369 -1.47607,-2.95173c0.03499,-1.1181 0.66529,-2.09816 1.65532,-2.77828c0.99008,-0.68012 2.33978,-1.06025 3.81362,-0.97854c1.47373,0.08171 2.79511,0.60978 3.73924,1.397z" fill="#ff9400" stroke="#000000" stroke-linecap="butt"/><path d="M348.15048,175.86704c-0.20258,-0.16741 -0.55802,-0.19021 -0.60961,-0.3684c-0.16647,-0.57485 0.0119,-1.16306 0.01788,-1.74377c0.00188,-0.17866 -0.16078,-0.41905 0.00551,-0.53651c0.51342,-0.36248 1.14178,-0.69806 1.84811,-0.77238c0.24425,-0.02573 0.29009,0.36307 0.25721,0.5507c-0.03628,0.20721 -0.20803,0.41512 -0.44343,0.51289c-0.19965,0.08288 -0.48681,0.04402 -0.70058,-0.03792c-0.22673,-0.08693 -0.40023,-0.25967 -0.52139,-0.43077c-0.11758,-0.16635 -0.14162,-0.36166 -0.16963,-0.54601c-0.02708,-0.17884 -0.06319,-0.36899 0.00551,-0.53651c0.11542,-0.28095 0.35058,-0.52028 0.53376,-0.77637c0.20164,-0.28177 0.4099,-0.56172 0.62203,-0.83868c0.23159,-0.30252 0.43751,-0.62063 0.71025,-0.90105c0.14343,-0.14765 0.29033,-0.3371 0.52954,-0.37397c0.45117,-0.06969 0.93469,0.05053 1.40128,0.07579c0.23329,0.0126 0.49601,-0.05797 0.70064,0.03787c0.21993,0.10299 0.32268,0.31518 0.43306,0.49308c0.15023,0.24203 0.29214,0.4956 0.34273,0.75673c0.03488,0.17983 -0.00404,0.36928 -0.09302,0.53176c-0.09508,0.17333 -0.22802,0.35662 -0.44273,0.44572c-0.20117,0.08359 -0.51688,0.14976 -0.70134,0.02925c-0.18441,-0.12057 -0.1687,-0.3779 -0.08206,-0.54132c0.28376,-0.53522 0.69753,-1.02742 1.15433,-1.48093c0.17292,-0.17163 0.43663,-0.28939 0.7048,-0.36447c0.21618,-0.06055 0.4667,-0.05246 0.70128,-0.02919c0.26823,0.02655 0.53897,0.08488 0.7868,0.17673c0.25363,0.09402 0.46242,0.25211 0.69724,0.37321c0.20064,0.10352 0.50193,0.13634 0.61025,0.3014c0.17679,0.26934 0.13288,0.58698 0.16624,0.88135c0.02034,0.17907 0.1136,0.38857 -0.00551,0.53651c-0.1201,0.14912 -0.39496,0.18376 -0.61576,0.23517c-0.25258,0.05862 -0.7732,0.21436 -0.78956,0.0915c-0.02427,-0.18124 0.37444,-0.55158 0.70814,-0.69988c0.46541,-0.20686 1.03621,-0.26653 1.58052,-0.31717c0.23124,-0.02145 0.48042,0.02984 0.69993,0.10498c0.2568,0.08787 0.46946,0.24396 0.69718,0.37321c0.20762,0.11788 0.45814,0.20791 0.60955,0.36846c0.15041,0.15944 0.29015,0.36307 0.25727,0.55076c-0.03634,0.20715 -0.23194,0.3881 -0.44337,0.51283c-0.1915,0.11301 -0.46869,0.10891 -0.70275,0.1633c-0.23394,0.0544 -0.45662,0.14525 -0.70263,0.1633c-0.28816,0.02116 -0.85785,0.08646 -0.87584,-0.04736c-0.0228,-0.17034 0.48124,-0.42333 0.79442,-0.56096c0.20287,-0.08916 0.4626,-0.08992 0.70199,-0.09625c0.31928,-0.00838 0.64255,0.03476 0.96341,0.05205c0.23329,0.01266 0.51676,-0.08101 0.70058,0.03792c0.25691,0.16624 0.26324,0.47209 0.43106,0.69437c0.15006,0.19871 0.39156,0.35814 0.51992,0.56494c0.10586,0.17046 0.14168,0.36154 0.16963,0.54595c0.02708,0.17884 0.08974,0.3779 -0.00545,0.53651c-0.12649,0.21084 -0.40586,0.34085 -0.61858,0.50339c-0.16987,0.12978 -0.31383,0.29156 -0.5296,0.37397c-0.20973,0.08001 -0.46148,0.10926 -0.70199,0.09625c-0.24056,-0.01301 -0.4915,-0.06934 -0.69929,-0.17204c-0.21383,-0.10557 -0.35492,-0.28247 -0.52133,-0.43077c-0.18083,-0.16114 -0.33986,-0.33675 -0.52063,-0.49788c-0.16641,-0.1483 -0.34132,-0.29203 -0.52133,-0.43083c-0.22561,-0.1738 -0.43722,-0.36389 -0.69583,-0.50732c-0.32637,-0.18101 -0.71295,-0.28687 -1.04677,-0.4592c-0.24894,-0.12837 -0.4395,-0.32233 -0.69653,-0.44027c-0.30082,-0.1381 -0.63118,-0.23593 -0.9606,-0.32034c-0.22684,-0.05809 -0.46506,-0.10352 -0.69993,-0.10498c-0.24021,-0.00152 -0.48089,0.03435 -0.70199,0.09625c-0.25293,0.07081 -0.47221,0.19507 -0.7041,0.29748c-0.35445,0.15639 -0.72238,0.29982 -1.05638,0.47966c-0.1966,0.1058 -0.35809,0.24566 -0.52965,0.37397c-0.35779,0.26764 -0.72104,0.53323 -1.05984,0.81506c-0.19156,0.15926 -0.38599,0.32122 -0.531,0.50808c-0.12391,0.15973 -0.20592,0.3405 -0.26829,0.52239c-0.05879,0.17157 -0.06207,0.35463 -0.09308,0.53171c-0.00774,0.04431 0.05088,0.02515 0,0z" fill="#000000" stroke="#000000" stroke-linecap="round"/><path d="M352.68314,174.47467c0.2289,-0.00322 0.44097,0.23775 0.5987,0.62965c0.15774,0.39197 0.26113,0.93481 0.27268,1.53527c0.01155,0.60046 -0.07098,1.14594 -0.21354,1.54207c-0.14255,0.39613 -0.34525,0.64296 -0.57414,0.64618c-0.2289,0.00317 -0.44097,-0.23781 -0.59876,-0.62971c-0.15768,-0.39197 -0.26108,-0.93481 -0.27268,-1.53527c-0.01149,-0.60046 0.07098,-1.14594 0.21354,-1.54213c0.14261,-0.39607 0.34531,-0.6429 0.5742,-0.64607z" fill="#000000" stroke="#000000" stroke-linecap="butt"/><path d="M354.54514,174.3463c0.2289,-0.00322 0.44097,0.23781 0.5987,0.62965c0.15774,0.39197 0.26113,0.93481 0.27274,1.53527c0.01149,0.60052 -0.07098,1.14594 -0.21354,1.54213c-0.14261,0.39613 -0.34531,0.6429 -0.5742,0.64612c-0.2289,0.00322 -0.44097,-0.23781 -0.59876,-0.62971c-0.15768,-0.39191 -0.26108,-0.93475 -0.27268,-1.53527c-0.01149,-0.60046 0.07098,-1.14589 0.21354,-1.54207c0.14261,-0.39613 0.34531,-0.64296 0.5742,-0.64612z" fill="#000000" stroke="#000000" stroke-linecap="butt"/><path d="M355.19624,171.57013c0,0 0.20346,-0.14953 0.39208,-0.15985c0.29625,-0.01008 0.87057,0.17972 0.87057,0.17972" fill="none" stroke="#000000" stroke-linecap="round"/><path d="M350.78415,170.13298c0.72449,0.08851 0.58089,0.12251 0.84079,0.24472c0.06495,0.03054 0.0701,0.18353 0.0701,0.18353" fill="none" stroke="#000000" stroke-linecap="round"/><path d="M351.64171,171.03883c0,0 0.25158,-0.13447 0.36787,-0.09179c0.15586,0.05944 0.36787,0.27538 0.36787,0.27538" fill="none" stroke="#000000" stroke-linecap="round"/><path d="M350.35766,173.47052h3.37646v0.44671l-1.58586,-0.26799l-1.7906,0.26799z" fill="#ff9400" stroke="none" stroke-linecap="round"/><path d="M356.04776,179.55721l-4.7292,0.08095" fill="none" stroke="#000000" stroke-linecap="round"/></g><path d="M343.54677,168.34577h19.29277v23.97415h-19.29277z" fill="#554626" stroke="#42361e" stroke-linecap="butt"/><path d="M359.01057,179.57866c0.56477,0 1.07631,0.22854 1.44635,0.59783c0.37069,0.36928 0.59988,0.87942 0.59988,1.44254c0,0.56312 -0.22919,1.0732 -0.59988,1.44254c-0.37004,0.36928 -0.88159,0.59777 -1.44635,0.59777c-0.56477,0 -1.07631,-0.22849 -1.44635,-0.59777c-0.37069,-0.36934 -0.59982,-0.87942 -0.59982,-1.44254c0,-0.56312 0.22913,-1.07326 0.59982,-1.44254c0.37004,-0.36928 0.88159,-0.59783 1.44635,-0.59783z" fill="#778747" stroke="none" stroke-linecap="round"/><path d="M306.54052,142.50576l50.94486,-20.46427l31.76227,17.77681c-0.01298,0.25498 -1.02492,3.01012 -1.03588,3.26538z" fill="#735f34" stroke="#735f34" stroke-linecap="butt"/><g><path d="M317.87036,146.50092h18.24618v16.92398h-18.24618z" fill="#98b5bd" stroke="#7f7f7f" stroke-linecap="round"/><path d="M326.33235,146.2365h1.8511v16.65956h-1.8511z" fill="#7f7f7f" stroke="none" stroke-linecap="butt"/><path d="M317.87036,155.22732h18.51066v1.3222h-18.51066z" fill="#7f7f7f" stroke="none" stroke-linecap="butt"/></g><g><path d="M342.57808,146.67688h18.24613v16.92404h-18.24613z" fill="#98b5bd" stroke="#7f7f7f" stroke-linecap="round"/><path d="M351.04007,146.41246h1.85104v16.65956h-1.85104z" fill="#7f7f7f" stroke="none" stroke-linecap="butt"/><path d="M342.57808,155.40335h18.5106v1.3222h-18.5106z" fill="#7f7f7f" stroke="none" stroke-linecap="butt"/></g><g><path d="M367.81904,146.31956h18.24618v16.92404h-18.24618z" fill="#98b5bd" stroke="#7f7f7f" stroke-linecap="round"/><path d="M376.28103,146.05514h1.8511v16.65956h-1.8511z" fill="#7f7f7f" stroke="none" stroke-linecap="butt"/><path d="M367.81904,155.04602h18.51066v1.3222h-18.51066z" fill="#7f7f7f" stroke="none" stroke-linecap="butt"/></g></g><path d="M352.8907,132.17187c0,1.84518 -1.32959,3.34094 -2.96978,3.34094c-1.64014,0 -2.96972,-1.49576 -2.96972,-3.34094c0,-1.84518 1.32959,-3.341 2.96972,-3.341c1.64019,0 2.96978,1.49582 2.96978,3.341z" fill="#e9ecea" stroke="#e9ecea" stroke-width="4.5" stroke-linecap="butt"/><path d="M348.43605,135.88402c0,0.61506 -1.32959,1.11371 -2.96972,1.11371c-1.64014,0 -2.96978,-0.49859 -2.96978,-1.11371c0,-0.615 1.32965,-1.11365 2.96978,-1.11365c1.64014,0 2.96972,0.49859 2.96972,1.11365z" fill="#e9ecea" stroke="#e9ecea" stroke-width="4.5" stroke-linecap="butt"/><path d="M331.47731,135.31744c0,-0.60849 0.7674,-1.78738 3.3577,-3.02969c4.39163,-2.10619 12.63159,-4.39468 21.14276,-4.39468c13.53123,0 29.69748,8.01153 29.69748,9.65166c0,1.64014 -19.13603,1.48486 -32.6672,1.48486c-5.42966,0 -25.55983,2.63614 -29.04866,2.13064c-5.20563,-0.75421 7.51792,-4.8608 7.51792,-5.84279z" fill="#e9ecea" stroke="#e9ecea" stroke-width="4.5" stroke-linecap="butt"/><g><path d="M104.96034,119.74731h105.68951v73.46703h-105.68951z" data-paper-data="{&quot;origPos&quot;:null}" fill="#735f34" stroke="#63522d" stroke-width="4.74992" stroke-linecap="round"/><path d="M179.83674,147.21732v-15.79586h15.79586v15.79586z" fill="#3a4980" stroke="#e4e4e4" stroke-width="4.74992" stroke-linecap="butt"/><path d="M116.22999,147.42582v-16.42768h16.42768v16.42768z" fill="#3a4980" stroke="#e4e4e4" stroke-width="4.74992" stroke-linecap="butt"/><path d="M140.44821,147.63432v-16.42768h16.42768v16.42768z" fill="#3a4980" stroke="#e4e4e4" stroke-width="4.74992" stroke-linecap="butt"/><path d="M140.65671,174.37989v-16.42768h16.42768v16.42768z" fill="#3a4980" stroke="#e4e4e4" stroke-width="4.74992" stroke-linecap="butt"/><path d="M209.64658,119.66842c0,0.87737 -10.3414,-0.71101 -18.32596,0.92221c-4.19117,0.85732 -10.8057,-1.54166 -14.19593,0.75093c-3.29387,2.22741 -3.40249,9.13139 -4.8367,11.04274c-2.83631,3.78003 -3.65442,-10.40265 -7.71915,-10.40265c-4.08994,0 -10.22182,-1.12742 -16.29357,-0.94202c-4.04568,0.1235 -8.32178,4.73864 -12.58938,4.95581c-3.90266,0.19865 -7.16634,-4.21537 -10.87193,-4.33794c-13.27372,-0.43898 -24.74237,1.85907 -24.74237,0.73422c0,-1.43293 1.6307,-5.43787 19.82331,-6.24343c10.97662,-0.48604 38.57998,1.88744 45.44175,1.88744c6.5834,0 22.0928,-1.8892 29.54519,-1.47079c13.18897,0.74044 14.76474,1.63545 14.76474,3.10343z" fill="#e9ecea" stroke="#e9ecea" stroke-width="4.5" stroke-linecap="butt"/></g><path d="M283.35839,135.02495v-22.00388h7.04096v22.00388z" fill="#735f34" stroke="#63522d" stroke-width="2.5" stroke-linecap="butt"/><path d="M289.67222,133.90585c0,3.20038 -14.39429,-0.29818 -23.33083,-0.29818c-8.93655,0 -31.60953,3.77159 -31.60953,0.57121c0,-1.99599 0.79917,-7.57472 9.71526,-8.69687c5.37955,-0.67702 18.90767,2.62911 22.27059,2.62911c3.22646,0 10.8275,-2.63157 14.47987,-2.04875c6.46377,1.03135 8.47465,5.79859 8.47465,7.84347z" fill="#e9ecea" stroke="#e9ecea" stroke-width="4.5" stroke-linecap="butt"/><path d="M291.72378,115.35855c0,2.16932 -2.26199,-0.20217 -3.66632,-0.20217c-1.40438,0 -4.96736,2.5566 -4.96736,0.38722c0,-1.35298 0.12561,-5.13453 1.52671,-5.89519c0.84536,-0.45891 2.97131,1.78216 3.49973,1.78216c0.50703,0 1.70151,-1.7838 2.27548,-1.38879c1.01576,0.69911 1.33176,3.93062 1.33176,5.31677z" fill="#e9ecea" stroke="#e9ecea" stroke-width="4.5" stroke-linecap="butt"/><path d="M371.22516,112.12852c0,2.16932 -2.26205,-0.20217 -3.66638,-0.20217c-1.40438,0 -4.96736,2.5566 -4.96736,0.38722c0,-1.35303 0.12561,-5.13453 1.52671,-5.89519c0.84542,-0.45891 2.97131,1.78216 3.49979,1.78216c0.50703,0 1.70151,-1.7838 2.27542,-1.38879c1.01582,0.69911 1.33182,3.93062 1.33182,5.31677z" fill="#e9ecea" stroke="#e9ecea" stroke-width="4.5" stroke-linecap="butt"/><path d="M274.72852,192.96153c-0.32122,0.01483 -0.64237,0.02843 -0.96171,-0.01618c-0.24273,-0.03394 -0.54132,0.01858 -0.71371,-0.23722c-0.17245,-0.2558 -0.13159,-0.69976 -0.1599,-1.05908c-0.02052,-0.26061 0.0449,-0.52831 0.0146,-0.7868c-0.02093,-0.1786 -0.14214,-0.30803 -0.16389,-0.4864c-0.0745,-0.61142 -0.0041,-1.26675 0.3092,-1.73164c0.232,-0.34431 0.79929,-0.68299 1.15802,-0.43698c0.0024,-0.02638 0.00498,-0.05311 0.00041,-0.07661c-0.03986,-0.2048 -0.09754,-0.40105 -0.14296,-0.60328c-0.06383,-0.28423 -0.18019,-0.55644 -0.18488,-0.85603c-0.00633,-0.40328 -0.01477,-0.87121 0.15281,-1.18879c0.12456,-0.23599 0.39695,-0.11975 0.58839,-0.21559c0.11577,-0.05791 0.21852,-0.16213 0.32778,-0.2432c0.09713,-0.00463 0.19801,-0.0442 0.29537,-0.05141c0.29677,-1.00673 0.48997,-1.58592 1.17982,-1.8943c0.0636,-0.02843 0.84278,-0.02931 0.90638,0c0.11096,0.05123 0.22292,0.11307 0.32766,0.19273c0.15387,-0.16641 0.3854,-0.10082 0.56887,-0.19273c0.11577,-0.05791 0.20762,-0.21096 0.32784,-0.2432c0.1898,-0.05094 0.38915,-0.05375 0.5786,0c0.08236,0.02339 0.11952,0.20305 0.2024,0.22157c0.04461,0.00996 0.0449,-0.12368 0.08376,-0.15774c0.14121,-0.1238 0.28358,-0.27848 0.44648,-0.30703c0.24601,-0.04308 0.51313,-0.04777 0.74015,0.0993c0.11196,0.07251 0.08581,0.34701 0.16395,0.4864c0.0194,0.0347 0.01114,-0.11119 0.04086,-0.12092c0.10668,-0.03505 0.21852,0 0.32778,0c0.10709,0 0.73305,-0.00522 0.78106,0.02163c0.08962,0.05023 0.17344,0.11811 0.25463,0.1939c0.46975,-0.36752 1.27947,-0.75087 1.75074,-0.70199c0.20621,0.02139 0.44789,-0.06014 0.61477,0.12098c0.0517,0.05615 0.09443,0.12456 0.13153,0.2007c0.22679,-0.17221 1.35772,-0.52303 1.67138,-0.2007c0.03535,0.03628 0.18581,0.32772 0.3075,0.66646c0.28458,-0.12304 0.64132,-0.06442 0.88071,-0.0578c0.15117,0.00416 0.30891,-0.0449 0.45322,0.02169c0.2116,0.09754 0.43171,0.22626 0.58839,0.45873c0.149,0.2211 0.24566,0.52291 0.30099,0.82631c0.04168,-0.0391 0.0854,-0.07192 0.13259,-0.09068c0.27725,-0.11008 1.2239,0.02134 1.36939,0.23722c0.02479,0.03681 0.04467,0.07772 0.06073,0.12175c0.42309,-0.15809 1.02097,-0.19343 1.25052,0.12145c0.1306,0.17919 0.1354,0.47039 0.14326,0.75357c0.07984,0.00158 0.14695,0.01067 0.16495,0.00375c0.11823,-0.04531 0.20633,-0.22344 0.32778,-0.2432c0.23611,-0.03845 0.50375,-0.09865 0.71078,0.07415c0.23153,0.19332 0.32309,0.62631 0.49237,0.93024c0.07696,0.13828 0.1803,0.25211 0.26676,0.38054c0.4684,-0.12954 1.11294,0.38124 1.20005,1.09436c0.15469,0.05217 0.30891,0.12855 0.46389,0.16835c0.05328,0.35304 0.12286,0.70152 0.15985,1.05913c0.00041,0.00393 0.00088,0.00791 0.00135,0.01196c0.21811,0.25222 0.36037,0.6439 0.47579,1.01799c0.0629,0.20393 0.03324,0.44994 0.0146,0.6725c-0.04525,0.53915 0.00557,1.1249 -0.30117,1.11646c0.00352,0.11055 -0.02022,0.2323 -0.02667,0.34285c-0.01782,0.30557 0.03025,0.6541 -0.08148,0.91218c-0.27057,0.62485 -1.00122,0.85814 -1.44776,0.87051c-0.21852,0.0061 -0.44665,0.09496 -0.65562,0c-0.03294,-0.01495 0.00006,-0.20234 -0.00868,-0.15287c-0.03482,0.19748 0.01577,0.44454 -0.07069,0.60328c-0.27303,0.50105 -0.90321,0.74278 -1.30837,0.75521c-0.7946,0.41459 -1.63597,1.03686 -2.50748,0.71846c-0.15932,-0.05821 -0.30527,-0.18329 -0.44654,-0.30709c-0.0388,-0.034 -0.03857,-0.15768 -0.0837,-0.15768c-0.04508,0 -0.0449,0.12368 -0.0837,0.15768c-0.14126,0.1238 -0.28722,0.24888 -0.44654,0.30709c-0.26366,0.09631 -0.97015,0.09308 -1.23422,0c-0.23575,-0.08318 -0.4133,-0.45105 -0.65544,-0.46682c-0.05428,-0.00352 -0.07046,0.13617 -0.12239,0.15973c-0.00873,0.00399 -0.01747,0.00387 -0.02608,0.00123v0.00404c0,0.4473 -0.24437,0.8099 -0.54583,0.8099c-0.21788,0 -0.40597,-0.18945 -0.49349,-0.46342l-0.04408,-0.13095c-0.03757,0.10844 -0.00053,0.2721 -0.05991,0.35715c-0.31137,0.44566 -1.02168,0.88809 -1.45684,0.71318c-0.29912,-0.12028 -0.6116,-0.27004 -0.84706,-0.5691c-0.07022,-0.08921 -0.0425,-0.25164 -0.02802,-0.40299c-0.15176,0.09543 -0.2296,-0.07239 -0.38722,-0.01196c-0.23657,0.09062 -0.4184,0.3997 -0.65562,0.4864c-0.07362,0.0269 -0.65544,0.02169 -0.78106,0.02169c-0.5463,0 -1.09266,0 -1.63902,0c-0.49589,-0.0976 -0.72373,0.01008 -0.89718,-0.54284c-0.28804,0.10193 -0.66547,0.0629 -0.78686,-0.00528c-0.22983,-0.12901 -0.33036,-0.62473 -0.57215,-0.68962c-0.21506,-0.05774 -0.44343,0.07749 -0.65562,0c-0.1187,-0.04338 -0.84249,-0.59947 -0.91617,-0.70199c-0.0891,-0.12397 -0.09607,-0.33564 -0.16389,-0.4864c-0.10422,-0.23171 -0.40427,0.03576 -0.55662,-0.12696c-0.17819,-0.19027 -0.24343,-0.54214 -0.36518,-0.81318zM294.72434,192.41312c0.01624,0.01524 0.03259,0.02966 0.04988,0.0262c0.01987,-0.00399 -0.01917,-0.00996 -0.04988,-0.0262zM275.78074,192.60732l-0.04461,-0.09214c-0.01553,0.049 -0.03394,0.09244 -0.05434,0.13095c0.00088,0.00756 0.00428,0.01331 0.01102,0.01647c0.03013,0.01413 0.05903,-0.0221 0.08792,-0.05527z" fill="#2c482a" stroke="none" stroke-width="0.5" stroke-linecap="butt"/><path d="M289.49713,184.19906c0,0.4958 -1.81123,-0.25261 -4.09455,-0.08122c-0.30986,0.02326 -2.23355,0.77252 -2.60841,1.59903c-0.4701,1.03652 0.79586,2.7807 0.35289,2.7807c-1.33741,0 -2.1844,-3.98899 -3.19391,-4.12699c-1.55624,-0.21274 -2.76539,0.80735 -2.76539,0.41464c0,-0.64746 2.56016,-1.75848 5.9593,-1.75848c3.39914,0 6.35007,0.52487 6.35007,1.17232z" fill="#e9ecea" stroke="none" stroke-width="0" stroke-linecap="butt"/><path d="M205.62646,123.91093c-0.41043,-0.01618 -0.82057,-0.03458 -1.21751,-0.15639c-0.30176,-0.09255 -0.69056,-0.03863 -0.86177,-0.51699c-0.17122,-0.47831 -0.03681,-1.26335 -0.00586,-1.90696c0.02245,-0.46664 0.15527,-0.93469 0.16489,-1.39887c0.00662,-0.32081 -0.12315,-0.56734 -0.11758,-0.88786c0.01923,-1.09852 0.23042,-2.25596 0.71453,-3.04212c0.35855,-0.58229 1.14149,-1.11013 1.55104,-0.62461c0.00797,-0.04654 0.01618,-0.09384 0.01477,-0.13634c-0.01243,-0.36993 -0.04918,-0.72696 -0.06923,-1.09307c-0.02814,-0.51459 -0.12515,-1.01464 -0.07538,-1.54864c0.067,-0.71893 0.14326,-1.55315 0.41512,-2.09646c0.20193,-0.40369 0.52608,-0.16049 0.7868,-0.30574c0.15768,-0.08787 0.30756,-0.25973 0.46131,-0.38962c0.12409,0.00463 0.25949,-0.05246 0.38435,-0.05234c0.564,-1.75309 0.91693,-2.75876 1.84981,-3.21638c0.08599,-0.04214 1.07514,0.05955 1.1504,0.12022c0.13136,0.10586 0.2619,0.23083 0.38001,0.38657c0.22626,-0.27591 0.50791,-0.12843 0.75791,-0.2677c0.15768,-0.08787 0.30269,-0.34806 0.46125,-0.38956c0.25041,-0.06553 0.50398,-0.04408 0.7344,0.07673c0.10017,0.05252 0.11389,0.37737 0.21565,0.42127c0.05475,0.02362 0.08001,-0.21424 0.13564,-0.26969c0.20228,-0.2017 0.41172,-0.45832 0.62379,-0.48751c0.32028,-0.04402 0.66013,-0.01706 0.92092,0.27497c0.1286,0.14396 0.04437,0.62924 0.11753,0.8878c0.01823,0.0643 0.03488,-0.19654 0.07438,-0.20996c0.14191,-0.04818 0.27737,0.02901 0.41606,0.04349c0.13587,0.01419 0.93129,0.08792 0.98721,0.14214c0.10445,0.10129 0.19818,0.23329 0.28716,0.37901c0.66453,-0.59214 1.76352,-1.16734 2.35256,-1.01775c0.25773,0.06547 0.57965,-0.04765 0.75773,0.29689c0.05522,0.1068 0.09672,0.23429 0.1296,0.37479c0.31987,-0.27655 1.8205,-0.75122 2.15865,-0.13575c0.0381,0.06934 0.17491,0.60826 0.26629,1.22748c0.38411,-0.1813 0.82596,-0.02972 1.12854,0.01383c0.19103,0.02755 0.40041,-0.03898 0.57121,0.09871c0.25035,0.20176 0.5058,0.46014 0.66137,0.89483c0.14801,0.41342 0.21453,0.96365 0.22831,1.51118c0.0602,-0.06413 0.12175,-0.11676 0.18517,-0.1439c0.37239,-0.1592 1.54934,0.20029 1.69383,0.60392c0.02468,0.06887 0.04226,0.14431 0.05445,0.22479c0.56635,-0.22532 1.33182,-0.20902 1.56452,0.38212c0.13241,0.33634 0.08435,0.8555 0.04168,1.36071c0.10105,0.01342 0.18446,0.03845 0.20861,0.02855c0.15856,-0.06501 0.30346,-0.37051 0.46125,-0.38956c0.3068,-0.0371 0.65773,-0.10885 0.88833,0.22632c0.25791,0.37491 0.29355,1.15796 0.45181,1.72155c0.07204,0.25639 0.182,0.4728 0.26788,0.71295c0.61852,-0.16852 1.3416,0.82631 1.31945,2.1076c0.18663,0.11342 0.36817,0.26987 0.55744,0.36131c0.00193,0.63563 0.02544,1.26534 0.00586,1.90696c-0.00018,0.00703 -0.00035,0.01419 -0.00053,0.02139c0.22995,0.47813 0.33763,1.19436 0.41447,1.87571c0.04191,0.37145 -0.04144,0.80556 -0.10656,1.19934c-0.15768,0.95392 -0.20217,2.00361 -0.58991,1.94793c-0.01606,0.1973 -0.06882,0.4109 -0.0976,0.60685c-0.07942,0.54173 -0.08329,1.16875 -0.27315,1.61341c-0.45955,1.07666 -1.43029,1.39518 -1.99934,1.35802c-0.27843,-0.01817 -0.58458,0.10979 -0.83211,-0.08693c-0.03904,-0.03107 0.03769,-0.36031 0.01741,-0.27339c-0.08089,0.34701 -0.06266,0.7936 -0.20193,1.06476c-0.43968,0.85591 -1.28451,1.2028 -1.80104,1.17115c-1.08557,0.63282 -2.2692,1.62917 -3.31609,0.94671c-0.19132,-0.12473 -0.35334,-0.36676 -0.50961,-0.60591c-0.04291,-0.06577 -0.01964,-0.28593 -0.0769,-0.29191c-0.05721,-0.00598 -0.07995,0.21424 -0.13558,0.26969c-0.20228,0.2017 -0.41084,0.40504 -0.62379,0.48751c-0.35258,0.13658 -1.24864,0.03716 -1.56646,-0.16366c-0.28382,-0.17931 -0.44073,-0.8579 -0.74507,-0.91804c-0.06823,-0.01348 -0.11471,0.23312 -0.18505,0.26823c-0.01184,0.00586 -0.02286,0.00457 -0.03335,-0.00135l-0.00076,0.00721c-0.08323,0.79642 -0.46078,1.4096 -0.84337,1.36962c-0.27655,-0.0289 -0.48001,-0.39114 -0.54015,-0.8905l-0.03159,-0.23898c-0.06788,0.18798 -0.05129,0.4844 -0.1425,0.6279c-0.47807,0.75222 -1.46183,1.44582 -1.98157,1.07666c-0.35732,-0.25381 -0.72602,-0.56183 -0.96922,-1.1256c-0.07257,-0.16811 -0.00721,-0.45363 0.03939,-0.72115c-0.21043,0.14976 -0.27796,-0.15938 -0.48927,-0.07274c-0.31711,0.13007 -0.60533,0.65627 -0.92256,0.77912c-0.09842,0.03816 -0.83592,-0.0483 -0.9953,-0.06495c-0.69343,-0.07245 -1.38686,-0.1449 -2.08028,-0.21735c-0.61119,-0.23945 -0.92039,-0.07796 -1.03762,-1.08545c-0.38458,0.14332 -0.85638,0.02374 -0.9977,-0.11372c-0.2677,-0.2602 -0.3031,-1.15614 -0.59788,-1.3038c-0.26219,-0.1313 -0.57719,0.07925 -0.83211,-0.08693c-0.14255,-0.09297 -0.95773,-1.179 -1.03217,-1.37132c-0.09009,-0.23259 -0.05955,-0.61037 -0.11758,-0.88786c-0.0891,-0.42631 -0.51969,0.01008 -0.68282,-0.29982c-0.19074,-0.36236 -0.20809,-0.99753 -0.31219,-1.49629zM231.1068,125.58588c0.0177,0.02925 0.03581,0.05709 0.05838,0.05322c0.02597,-0.00445 -0.02245,-0.02028 -0.05838,-0.05322zM207.02779,123.41973l-0.03951,-0.16999c-0.02878,0.08523 -0.0602,0.16014 -0.09332,0.22596c-0.00023,0.01354 0.00299,0.02421 0.01102,0.03077c0.03558,0.02913 0.07896,-0.03142 0.1218,-0.08675z" fill="#2c482a" stroke="none" stroke-width="0.5" stroke-linecap="butt"/><path d="M222.67483,107.99819c0,0.4958 -1.81122,-0.25261 -4.09455,-0.08122c-0.30986,0.02326 -2.23355,0.77252 -2.60841,1.59903c-0.4701,1.03652 0.79586,2.7807 0.35289,2.7807c-1.33741,0 -2.1844,-3.98899 -3.19391,-4.12699c-1.55624,-0.21275 -2.76539,0.80735 -2.76539,0.41464c0,-0.64746 2.56016,-1.75848 5.9593,-1.75848c3.39914,0 6.35007,0.52487 6.35007,1.17232z" fill="#e9ecea" stroke="none" stroke-width="0" stroke-linecap="butt"/><path d="M344.41123,217.15849c0,3.68748 -7.88087,6.67678 -17.60242,6.67678c-9.72155,0 -17.60242,-2.9893 -17.60242,-6.67678c0,-3.68748 7.88087,-6.67678 17.60242,-6.67678c9.72155,0 17.60242,2.9893 17.60242,6.67678z" fill="#dfe1df" stroke="none" stroke-width="0" stroke-linecap="butt"/><path d="M211.22775,192.37537c-0.32116,0.01483 -0.64231,0.02843 -0.96166,-0.01618c-0.24273,-0.03394 -0.54138,0.01858 -0.71377,-0.23722c-0.17239,-0.2558 -0.13159,-0.69976 -0.15985,-1.05908c-0.02052,-0.26061 0.0449,-0.52831 0.0146,-0.7868c-0.02093,-0.1786 -0.14214,-0.30803 -0.16389,-0.4864c-0.0745,-0.61142 -0.0041,-1.26675 0.30914,-1.73164c0.23206,-0.34431 0.79929,-0.68299 1.15808,-0.43698c0.0024,-0.02638 0.00498,-0.05311 0.00041,-0.07661c-0.03986,-0.2048 -0.09754,-0.40105 -0.14296,-0.60328c-0.06389,-0.28423 -0.18019,-0.55644 -0.18488,-0.85603c-0.00633,-0.40328 -0.01483,-0.87121 0.15281,-1.18879c0.12456,-0.23599 0.39695,-0.11975 0.58839,-0.21559c0.11571,-0.05791 0.21852,-0.16213 0.32778,-0.2432c0.09707,-0.00463 0.19795,-0.0442 0.29531,-0.05141c0.29683,-1.00673 0.49003,-1.58592 1.17982,-1.8943c0.0636,-0.02843 0.84284,-0.02931 0.90644,0c0.11096,0.05123 0.22292,0.11307 0.32761,0.19273c0.15393,-0.16641 0.38546,-0.10082 0.56893,-0.19273c0.11577,-0.05791 0.20762,-0.21096 0.32784,-0.2432c0.1898,-0.05094 0.38915,-0.05375 0.5786,0c0.08236,0.02339 0.11952,0.20305 0.2024,0.22157c0.04461,0.00996 0.0449,-0.12368 0.0837,-0.15774c0.14126,-0.1238 0.28364,-0.27848 0.44654,-0.30703c0.24601,-0.04308 0.51313,-0.04777 0.74015,0.0993c0.11196,0.07251 0.08581,0.34701 0.16389,0.4864c0.01946,0.0347 0.0112,-0.11119 0.04091,-0.12092c0.10668,-0.03505 0.21852,0 0.32778,0c0.10709,0 0.73305,-0.00522 0.781,0.02163c0.08968,0.05023 0.1735,0.11811 0.25469,0.1939c0.46975,-0.36752 1.27947,-0.75087 1.75069,-0.70199c0.20621,0.02139 0.44794,-0.06014 0.61477,0.12098c0.05176,0.05615 0.09449,0.12456 0.13153,0.2007c0.22684,-0.17221 1.35772,-0.52303 1.67144,-0.2007c0.03535,0.03628 0.18581,0.32772 0.3075,0.66646c0.28458,-0.12304 0.64132,-0.06442 0.88071,-0.0578c0.15111,0.00416 0.30891,-0.0449 0.45322,0.02169c0.21155,0.09754 0.43171,0.22626 0.58839,0.45873c0.149,0.2211 0.2456,0.52291 0.30093,0.82631c0.04173,-0.0391 0.0854,-0.07192 0.13265,-0.09068c0.27725,-0.11008 1.22384,0.02134 1.36933,0.23722c0.02485,0.03681 0.04472,0.07772 0.06073,0.12175c0.42315,-0.15809 1.02103,-0.19343 1.25052,0.12145c0.1306,0.17919 0.1354,0.47039 0.14332,0.75357c0.07984,0.00158 0.14689,0.01067 0.16489,0.00375c0.11829,-0.04531 0.20639,-0.22344 0.32784,-0.2432c0.23605,-0.03845 0.50375,-0.09865 0.71072,0.07415c0.23159,0.19332 0.32309,0.62631 0.49237,0.93024c0.07702,0.13828 0.18036,0.25211 0.26682,0.38054c0.46834,-0.12954 1.11294,0.38124 1.20005,1.09436c0.15469,0.05217 0.30891,0.12855 0.46383,0.16835c0.05328,0.35304 0.12292,0.70152 0.1599,1.05913c0.00041,0.00393 0.00082,0.00791 0.00129,0.01196c0.21817,0.25222 0.36043,0.6439 0.47579,1.01799c0.06295,0.20393 0.03329,0.44994 0.01465,0.6725c-0.04525,0.53915 0.00551,1.1249 -0.30123,1.11646c0.00358,0.11055 -0.02016,0.2323 -0.02661,0.34285c-0.01782,0.30557 0.03019,0.6541 -0.08153,0.91218c-0.27051,0.62485 -1.00116,0.85814 -1.4477,0.87051c-0.21852,0.0061 -0.44665,0.09496 -0.65562,0c-0.03294,-0.01495 0.00006,-0.20234 -0.00868,-0.15287c-0.03482,0.19748 0.01577,0.44454 -0.07075,0.60328c-0.27298,0.50105 -0.90321,0.74278 -1.30831,0.75521c-0.7946,0.41459 -1.63603,1.03686 -2.50754,0.71846c-0.15926,-0.05821 -0.30521,-0.18329 -0.44648,-0.30709c-0.03886,-0.034 -0.03863,-0.15768 -0.0837,-0.15768c-0.04513,0 -0.0449,0.12368 -0.08376,0.15768c-0.14121,0.1238 -0.28722,0.24888 -0.44648,0.30709c-0.26366,0.09631 -0.97015,0.09308 -1.23422,0c-0.23581,-0.08318 -0.41336,-0.45105 -0.65544,-0.46682c-0.05428,-0.00352 -0.07046,0.13617 -0.12245,0.15973c-0.00873,0.00399 -0.01741,0.00387 -0.02608,0.00123v0.00404c0,0.4473 -0.24437,0.8099 -0.54577,0.8099c-0.21788,0 -0.40597,-0.18945 -0.49349,-0.46342l-0.04414,-0.13095c-0.03757,0.10844 -0.00047,0.2721 -0.05991,0.35715c-0.31137,0.44566 -1.02162,0.88809 -1.45679,0.71318c-0.29918,-0.12028 -0.6116,-0.27004 -0.84706,-0.5691c-0.07022,-0.08921 -0.04256,-0.25164 -0.02802,-0.40299c-0.15182,0.09543 -0.2296,-0.07239 -0.38722,-0.01196c-0.23657,0.09062 -0.4184,0.3997 -0.65568,0.4864c-0.07356,0.0269 -0.65544,0.02169 -0.781,0.02169c-0.54636,0 -1.09272,0 -1.63908,0c-0.49583,-0.0976 -0.72367,0.01008 -0.89712,-0.54284c-0.28804,0.10193 -0.66553,0.0629 -0.78686,-0.00528c-0.22983,-0.12901 -0.33036,-0.62473 -0.57215,-0.68962c-0.21506,-0.05774 -0.44343,0.07749 -0.65562,0c-0.1187,-0.04338 -0.84249,-0.59947 -0.91617,-0.70199c-0.08916,-0.12397 -0.09613,-0.33564 -0.16389,-0.4864c-0.10422,-0.23171 -0.40427,0.03576 -0.55668,-0.12696c-0.17813,-0.19027 -0.24337,-0.54214 -0.36512,-0.81318zM231.22362,191.82696c0.01618,0.01524 0.03259,0.02966 0.04982,0.0262c0.01987,-0.00399 -0.01911,-0.00996 -0.04982,-0.0262zM212.28002,192.02115l-0.04467,-0.09214c-0.01547,0.049 -0.03388,0.09244 -0.05434,0.13095c0.00094,0.00756 0.00428,0.01331 0.01108,0.01647c0.03013,0.01413 0.05897,-0.0221 0.08792,-0.05527z" fill="#2c482a" stroke="none" stroke-width="0.5" stroke-linecap="butt"/><g data-paper-data="{&quot;index&quot;:null}" stroke-width="2"><g fill="none" stroke="#6f6d00" stroke-linecap="round"><path d="M248.3105,178.94174l7.95361,12.04748l-0.2997,4.08912"/><path d="M258.61116,193.66182l-2.26176,-2.39089l3.15864,0.27391"/></g><path d="M239.47155,186.41611c7.23463,0 13.09946,6.1133 13.09946,13.65449c0,7.54119 -5.86483,13.65449 -13.09946,13.65449c-7.23463,0 -13.0994,-6.1133 -13.0994,-13.65449c0,-7.54119 5.86477,-13.65449 13.0994,-13.65449z" fill="#ffffff" stroke="#c4c6c5" stroke-linecap="butt"/><path d="M239.67835,173.26659c5.44104,0 9.85184,4.59773 9.85184,10.2693c0,5.67151 -4.4108,10.26924 -9.85184,10.26924c-5.44098,0 -9.85178,-4.59773 -9.85178,-10.26924c0,-5.67157 4.4108,-10.2693 9.85178,-10.2693z" fill="#ffffff" stroke="#c4c6c5" stroke-linecap="butt"/><path d="M239.7284,161.00024c4.54685,0 8.2328,3.84211 8.2328,8.58163c0,4.73946 -3.68595,8.58163 -8.2328,8.58163c-4.54685,0 -8.2328,-3.84217 -8.2328,-8.58163c0,-4.73952 3.68595,-8.58163 8.2328,-8.58163z" fill="#ffffff" stroke="#c4c6c5" stroke-linecap="butt"/><g data-paper-data="{&quot;index&quot;:null}" fill="none" stroke="#6f6d00" stroke-linecap="round"><path d="M223.20313,195.86226l-0.29976,-4.08912l7.95367,-12.04748"/><path d="M219.65949,192.32877l3.15859,-0.27391l-2.2617,2.39089"/></g><path d="M243.44554,165.15413c0.65029,0 1.17748,0.92256 1.17748,2.06059c0,1.13803 -0.52713,2.06059 -1.17748,2.06059c-0.65029,0 -1.17748,-0.92256 -1.17748,-2.06059c0,-1.13803 0.52719,-2.06059 1.17748,-2.06059z" fill="#000000" stroke="none" stroke-linecap="butt"/><path d="M238.6385,164.95689c0.65029,0 1.17748,0.92256 1.17748,2.06059c0,1.13803 -0.52719,2.06059 -1.17748,2.06059c-0.65029,0 -1.17748,-0.92256 -1.17748,-2.06059c0,-1.13803 0.52713,-2.06059 1.17748,-2.06059z" fill="#000000" stroke="none" stroke-linecap="butt"/><g fill="#ffa000" stroke="#000000" stroke-linecap="butt"><path d="M247.84831,173.69807c-0.96377,0 -2.91298,0.24707 -3.6342,0.06794c-1.07748,-0.2677 -0.74038,-2.95706 0.15762,-3.2264c0.76846,-0.23048 2.36821,0.2177 3.47658,0.2177c2.40373,0 4.82287,0.65832 4.82287,1.47038c0,0.81207 -2.41914,1.47038 -4.82287,1.47038z"/></g><path d="M239.14506,169.86727c1.94893,0 3.52892,1.36048 3.52892,3.03877c0,1.67824 -1.58,3.03877 -3.52892,3.03877c-1.94898,0 -3.52892,-1.36054 -3.52892,-3.03877c0,-1.6783 1.57994,-3.03877 3.52892,-3.03877z" fill="#ffffff" stroke="none" stroke-linecap="butt"/></g><path d="M143.3966,138.03891c0,0.4958 0.67995,-2.74379 -1.60337,-2.57241c-0.30986,0.02326 -2.23355,0.77252 -2.60841,1.59903c-0.4701,1.03652 0.79586,2.7807 0.35289,2.7807c-1.33741,0 -2.1844,-3.98899 -3.19391,-4.12699c-1.55624,-0.21274 -1.29999,-1.09767 -1.29999,-1.49038c0,-0.64746 1.09476,-5.12891 4.4939,-5.12891c3.39914,0 4.88467,6.82609 4.88467,7.47355z" fill="#e9ecea" stroke="none" stroke-width="0" stroke-linecap="butt"/><path d="M157.23764,175.95562c0,0.48607 -6.69874,-4.54187 -14.96205,-4.54187c-8.26332,0 -15.25514,2.39022 -15.25514,1.90414c0,-0.2323 0.71765,-3.71721 3.28704,-4.53851c2.80698,-0.89724 7.65386,0.87413 11.9681,0.87413c2.36712,0 7.53665,-0.40198 9.52631,0.29054c4.95598,1.72498 5.43575,5.66473 5.43575,6.01157z" fill="#e9ecea" stroke="none" stroke-width="0" stroke-linecap="butt"/><path d="M130.18686,277.42257v-32.56448h262.42746c0.13578,4.75859 0.34939,9.51074 0.63568,14.25024c0.28976,4.79701 2.94897,8.86235 3.5,13.3667c0.20004,1.63522 0.32573,3.28631 0.40582,4.94754z" fill="#eaedea" stroke="none" stroke-width="0" stroke-linecap="butt"/><path d="M161.92869,196.48884c0,0.48607 -9.04007,-4.54187 -20.19156,-4.54187c-11.15149,0 -20.58708,2.39022 -20.58708,1.90414c0,-0.2323 0.96848,-3.71721 4.43592,-4.53851c3.78807,-0.89724 10.32902,0.87413 16.15116,0.87413c3.19447,0 10.17084,-0.40198 12.85592,0.29054c6.68818,1.72498 7.33565,5.66474 7.33565,6.01157z" fill="#e9ecea" stroke="none" stroke-width="0" stroke-linecap="butt"/></g><g stroke-linecap="butt"><path d="M95.04405,309.85786c-0.78518,-15.59575 -1.92217,-70.69814 -1.68822,-82.65478h294.99639c2.16943,14.8583 -3.2255,69.98233 -2.27576,82.65478z" fill="#f7f7f7" stroke="none" stroke-width="0"/><g stroke-width="2"><path d="M323.53227,228.83014v-45.23241h24.27022v45.23241z" fill="#ce1515" stroke="#ab1111"/><path d="M350.94858,179.84038c0,3.47511 -6.8416,3.59559 -15.2812,3.59559c-8.43955,0 -15.2812,-0.12049 -15.2812,-3.59559c0,-3.47516 6.84165,-6.2923 15.2812,-6.2923c8.43961,0 15.2812,2.81714 15.2812,6.2923z" fill="#ce1515" stroke="#ab1111"/><path d="M325.47749,194.06987v-5.99158h19.93079v5.99158z" fill="#000000" stroke="#ab1111"/><path d="M323.08283,231.97629v-9.4384h25.61854v9.4384z" fill="#000000" stroke="none"/><path d="M351.09692,178.19089c0,3.47511 -6.84165,3.59559 -15.2812,3.59559c-8.43961,0 -15.2812,-0.12049 -15.2812,-3.59559c0,-3.47511 6.8416,-6.29225 15.2812,-6.29225c8.43955,0 15.2812,2.81714 15.2812,6.29225z" fill="#ce1515" stroke="#ab1111"/><path d="M321.74393,173.37838c0,-0.16969 5.39297,-0.66196 6.42022,-1.00844c1.74163,-0.5874 5.00938,-1.22562 8.38469,-1.22562c5.36613,0 11.77725,2.23434 11.77725,2.69177c0,0.45743 -7.58887,0.41411 -12.955,0.41411c-2.15324,0 -3.55105,3.51427 -4.9346,3.37331c-1.10824,-0.11294 1.34916,-2.11352 -0.01875,-3.22775c-1.18024,-0.96135 -8.67382,-0.89056 -8.67382,-1.01737z" fill="#f7f7f7" stroke="#f7f7f7"/></g><g><path d="M144.93282,237.30098v-30.94223h10.42121v30.94223z" fill="#443a1b" stroke="#0f0d06" stroke-width="3.5"/><path d="M121.93417,213.06292l27.58348,-40.7406l29.55373,40.74061z" fill="#296127" stroke="none" stroke-width="0"/><path d="M126.24641,192.95047l22.72601,-40.7406l24.34929,40.7406z" fill="#296127" stroke="none" stroke-width="0"/><path d="M128.40253,175.27785l20.12379,-40.7406l21.56121,40.7406z" fill="#296127" stroke="none" stroke-width="0"/></g></g><path d="M92.03205,327.61235v-59.04493h295.93601v59.04493z" fill="#ffffff" stroke="#000000" stroke-width="5" stroke-linecap="butt"/><path d="M92.50008,266.78551v-221h295v221z" fill="none" stroke="#000000" stroke-width="5" stroke-linecap="butt"/><text transform="translate(136.41767,307.1604) scale(0.8467,0.8467)" font-size="40" xml:space="preserve" fill="#000000" fill-rule="nonzero" stroke="none" stroke-width="1" stroke-linecap="butt" stroke-linejoin="miter" stroke-miterlimit="10" stroke-dasharray="" stroke-dashoffset="0" font-family="&quot; Pro W3&quot;, &quot;Hiragino Kaku Gothic Pro&quot;, Osaka, &quot;&quot;, Meiryo, &quot; &quot;, &quot;MS PGothic&quot;" font-weight="normal" text-anchor="start" style="mix-blend-mode: normal"><tspan x="0" dy="0">Winter Town</tspan></text></g></g></svg>