<svg version="1.1" xmlns="http://www.w3.org/2000/svg" xmlns:xlink="http://www.w3.org/1999/xlink" width="1730.78459" height="295.99366" viewBox="0,0,1730.78459,295.99366"><defs><linearGradient x1="245.36007" y1="171.6467" x2="245.36007" y2="448.63852" gradientUnits="userSpaceOnUse" id="color-1"><stop offset="0" stop-color="#acacac"/><stop offset="1" stop-color="#e6e6e6"/></linearGradient><linearGradient x1="240" y1="265.71666" x2="240" y2="329.71666" gradientUnits="userSpaceOnUse" id="color-2"><stop offset="0" stop-color="#acacac"/><stop offset="1" stop-color="#cdcdcd"/></linearGradient></defs><g transform="translate(620.03223,-152.64486)"><g data-paper-data="{&quot;isPaintingLayer&quot;:true}" fill-rule="nonzero" stroke-linecap="butt" stroke-linejoin="miter" stroke-miterlimit="10" stroke-dasharray="" stroke-dashoffset="0" style="mix-blend-mode: normal"><path d="M-620.03223,448.63852v-276.99182h1730.78459v276.99182z" fill="url(#color-1)" stroke="none" stroke-width="0"/><g stroke="#000000"><path d="M-177.80913,295.01747v-138.41765h149.08664v138.41765z" data-paper-data="{&quot;origPos&quot;:null}" fill="#d1c7b4" stroke-width="1"/><path d="M-129.23363,295.16142v-85.99003h48.3694v85.99003z" data-paper-data="{&quot;origPos&quot;:null}" fill="#dedede" stroke-width="0.5"/></g><g stroke="#000000"><path d="M12.21356,293.28999v-138.41764h149.08664v138.41764z" data-paper-data="{&quot;origPos&quot;:null}" fill="#d1c7b4" stroke-width="1"/><path d="M60.78903,293.43394v-85.99001h48.36941v85.99002z" data-paper-data="{&quot;origPos&quot;:null}" fill="#dedede" stroke-width="0.5"/></g><g stroke="#000000"><path d="M200.50873,293.28999v-138.41764h149.08664v138.41764z" data-paper-data="{&quot;origPos&quot;:null}" fill="#d1c7b4" stroke-width="1"/><path d="M249.08422,293.43394v-85.99001h48.36941v85.99002z" data-paper-data="{&quot;origPos&quot;:null}" fill="#dedede" stroke-width="0.5"/></g><g stroke="#000000"><path d="M390.53138,291.5625v-138.41764h149.08664v138.41764z" data-paper-data="{&quot;origPos&quot;:null}" fill="#d1c7b4" stroke-width="1"/><path d="M439.10687,291.70646v-85.99001h48.3694v85.99002z" data-paper-data="{&quot;origPos&quot;:null}" fill="#dedede" stroke-width="0.5"/></g><g stroke="#000000"><path d="M580.55404,291.5625v-138.41764h149.08664v138.41764z" data-paper-data="{&quot;origPos&quot;:null}" fill="#d1c7b4" stroke-width="1"/><path d="M629.12951,291.70646v-85.99001h48.3694v85.99002z" data-paper-data="{&quot;origPos&quot;:null}" fill="#dedede" stroke-width="0.5"/></g><g data-paper-data="{&quot;origRot&quot;:0}" fill="#ffffff" stroke="#0017e5" stroke-width="0.5"><path d="M248.33645,252.58415l-1.76132,-8.10286l12.15428,-2.64199l1.76132,8.10286z" data-paper-data="{&quot;origPos&quot;:null}"/><path d="M255.91123,251.36574l-1.13084,-5.2024l10.18198,-2.21327l1.13084,5.2024z" data-paper-data="{&quot;origPos&quot;:null}"/><path d="M242.3204,248.91614l-1.13084,-5.2024l7.16549,-1.55757l1.13084,5.2024z" data-paper-data="{&quot;origPos&quot;:null}"/><path d="M243.93239,256.03922l-1.08007,-4.96878l8.44171,-1.83498l1.08007,4.96878z" data-paper-data="{&quot;origPos&quot;:null}"/><path d="M256.91485,243.92537l-1.08008,-4.96878l2.6408,-0.57403l1.08007,4.96878z" data-paper-data="{&quot;origPos&quot;:null}"/><path d="M241.18503,252.87571l-1.08007,-4.96878l11.80623,-2.56633l1.08007,4.96878z" data-paper-data="{&quot;origPos&quot;:null}"/><path d="M256.89894,247.27087l-1.08007,-4.96878l10.58899,-2.30172l1.08008,4.96878z" data-paper-data="{&quot;origPos&quot;:null}"/><path d="M243.45851,253.46805l-1.68678,-7.7599l22.42801,-4.87519l1.68678,7.75991z" data-paper-data="{&quot;origPos&quot;:null}"/><path d="M257.03907,243.78567l-0.44288,-2.03739l2.37696,-0.51669l0.44288,2.03739z"/></g><path d="M211.5,270.71666v-65h59v65z" fill="#acacac" stroke="none" stroke-width="0"/><path d="M152.5,329.71666v-64h175v64z" fill="url(#color-2)" stroke="none" stroke-width="0"/></g></g></svg>