<svg version="1.1" xmlns="http://www.w3.org/2000/svg" xmlns:xlink="http://www.w3.org/1999/xlink" width="164.40426" height="386.12726" viewBox="0,0,164.40426,386.12726"><g transform="translate(-118.67468,-56.70114)"><g data-paper-data="{&quot;isPaintingLayer&quot;:true}" fill-rule="nonzero" stroke="none" stroke-linecap="round" stroke-miterlimit="10" stroke-dasharray="" stroke-dashoffset="0" style="mix-blend-mode: normal"><path d="M220.23078,270.68563c-0.62761,0.01886 -1.58887,-7.36095 -2.50102,-19.56719c-0.55933,-7.47574 -1.24612,-18.25831 -1.40384,-29.13259c-0.11674,-9.41906 -0.07446,-19.70735 0.21235,-30.54846c0.41234,-15.5895 1.2601,-29.64184 2.35273,-41.99897c0.05463,0.10374 0.10699,0.20227 0.15707,0.29104c0.02212,0.03903 0.0452,0.07284 0.05918,0.10113c0.02439,0.04943 0.0387,0.09723 0.05301,0.14341c0.02731,0.08877 0.04682,0.16943 0.05983,0.23999v0c-0.0013,-0.02016 -0.10016,-0.10992 -0.26633,-0.28617c-0.61785,-0.63119 -1.29262,-1.26595 -1.95828,-1.89682c-2.56833,-2.43371 -5.01959,-4.70092 -7.28225,-6.82017c-10.77412,-10.09123 -17.27365,-16.56734 -16.77904,-17.12406c0.41592,-0.46795 7.72353,5.0661 19.09015,14.48809c2.32541,1.92772 5.01927,4.17541 7.66565,6.47253c0.68842,0.59672 1.42595,1.23571 2.15534,1.92219c0.13886,0.12162 0.35478,0.32779 0.62339,0.64062v0c0.04325,0.10861 0.09203,0.22698 0.14504,0.35706c0.02699,0.06699 0.05723,0.13723 0.07999,0.21105c0.01366,0.0426 0.01918,0.08162 0.02699,0.11837c0.01789,0.0852 0.04,0.1691 0.06472,0.2582c-0.59477,12.69598 -1.08482,26.35257 -1.42172,42.48253c-0.23121,11.01931 -0.35414,21.47768 -0.44486,31.04242c-0.11349,9.45581 0.06471,22.78785 0.08325,28.983c0.03642,12.19844 -0.14699,19.60492 -0.77134,19.6228z" data-paper-data="{&quot;index&quot;:null}" fill="#000000" stroke-width="9.375" stroke-linejoin="round"/><path d="M212.38956,167.67995c0.3888,0.30661 -1.53915,3.44034 -4.77355,8.893c-3.64328,6.1415 -7.34541,12.57809 -12.74954,22.83565c-4.95784,9.41599 -9.56807,18.73448 -15.20487,30.37917c-0.1002,0.20779 -1.5931,3.29554 -1.69359,3.50319c-5.472,11.32716 -10.33592,22.91472 -14.13798,32.0345c-7.2767,17.45847 -11.89166,29.08939 -12.7603,28.76768c-0.74882,-0.27826 2.4393,-12.44645 8.93306,-30.35511c3.43132,-9.4632 7.95511,-21.04881 13.52575,-32.70074c0.55733,-1.16618 1.12157,-2.33996 1.69285,-3.51916c5.52004,-11.40512 10.65331,-21.27832 15.86622,-30.30254c5.59897,-9.69684 10.34457,-16.79768 14.42633,-22.12795c3.89761,-5.09032 6.52463,-7.68404 6.87562,-7.40769z" data-paper-data="{&quot;index&quot;:null}" fill="#000000" stroke-width="9.375" stroke-linejoin="round"/><path d="M226.16964,165.55227c0.52871,-0.07144 2.12147,7.68743 4.84592,20.16509c2.94849,13.50337 6.3983,28.65576 11.5116,48.54921c0.33835,1.31646 0.67576,2.62318 1.01327,3.92033c3.31511,12.75559 6.439,23.93744 9.32135,33.92147c5.25062,18.17847 9.16104,30.05111 8.69753,30.22327c-0.72039,0.26778 -5.71429,-11.27651 -11.62897,-29.38914c-3.20503,-9.8131 -6.61494,-21.21517 -9.95336,-33.90567c-0.34204,-1.3007 -0.68324,-2.6124 -1.02269,-3.93361c-4.981,-19.37535 -8.35134,-35.88632 -10.50019,-48.95377c-2.079,-12.64326 -2.76093,-20.53262 -2.28447,-20.59717z" data-paper-data="{&quot;index&quot;:null}" fill="#000000" stroke-width="9.37509" stroke-linejoin="round"/><path d="M220.66648,265.42849c0.58284,0.22297 -2.50121,11.33486 -9.09104,28.73202c-6.70822,17.70755 -16.61109,40.6918 -30.1943,65.92245c-1.91425,3.55613 -3.83816,7.03872 -5.76688,10.44627c-7.44275,13.15197 -14.54164,24.67003 -21.50217,34.99723v0c-3.73939,5.55084 -7.06147,10.23331 -10.68973,14.61609c-1.40705,1.70299 -2.78361,3.26713 -4.32348,4.69352c-0.56608,0.52724 -1.17121,1.03914 -1.84734,1.50006c-0.55188,-0.19339 -1.24517,-0.36504 -2.08122,-0.63511c1.3403,-0.63727 2.66204,-0.94655 3.87912,-0.95379c1.44673,0.50403 2.71101,1.23333 3.75613,1.87057c7.51827,4.54045 11.92923,7.01343 11.80402,7.33083c-0.20648,0.52345 -5.00475,-1.1694 -12.95826,-5.11706c-1.07043,-0.52408 -2.24061,-1.09534 -3.36751,-1.38002c-1.0437,-0.70189 -2.18474,-1.25774 -3.38927,-1.70271c0.10452,-0.52255 0.27005,-1.2357 0.53455,-2.0106c0.46933,-0.35908 0.92187,-0.79822 1.40572,-1.29511c1.31097,-1.35255 2.49795,-2.86334 3.79805,-4.58799c3.34616,-4.45014 6.36561,-9.08055 9.9432,-14.73992v0c6.64744,-10.52397 13.39558,-21.91318 20.76582,-35.10832c1.89569,-3.39357 3.79393,-6.85449 5.69418,-10.38405c13.56866,-25.2036 23.7134,-47.42774 31.30591,-64.86082c7.3793,-16.94314 11.62522,-27.60083 12.32453,-27.33352z" data-paper-data="{&quot;index&quot;:null}" fill="#000000" stroke-width="9.375" stroke-linejoin="round"/><path d="M219.76705,265.05067c0.60556,0.14539 -1.02366,11.52204 -5.27268,29.57448c-4.31079,18.31537 -11.10157,42.44887 -21.20914,69.1053c-1.53805,4.05524 -3.09796,8.02652 -4.67664,11.91232c-5.62194,13.84277 -11.09049,26.00545 -16.59543,37.00618v0c-2.94761,5.89437 -5.59282,10.88163 -8.59798,15.61575c-1.14841,1.81446 -2.28923,3.49666 -3.62171,5.05992c-0.48103,0.56826 -1.00825,1.12981 -1.62098,1.64804c-0.54391,-0.14771 -1.25347,-0.2613 -2.13628,-0.4713c1.17221,-0.73504 2.14756,-0.95527 2.82996,-1.0432c1.41518,0.55144 2.71284,1.27855 3.78939,1.87538c8.21859,4.52742 13.03777,7.02443 12.89066,7.40988c-0.1896,0.49669 -5.37203,-1.18259 -13.99599,-5.0733c-1.13587,-0.50853 -2.3987,-1.10356 -3.5811,-1.46268c-0.84338,-0.62798 -1.58852,-1.30675 -2.0672,-1.66937c-0.01015,-0.4956 0.04075,-1.19445 0.20611,-1.96762c0.39821,-0.37449 0.77156,-0.8342 1.17316,-1.35612c1.10483,-1.44619 2.05997,-3.04239 3.10214,-4.86338c2.71361,-4.75713 5.06572,-9.64951 7.839,-15.63017v0c5.16954,-11.15784 10.30192,-23.14076 15.84292,-37.02425c1.54258,-3.86533 3.07797,-7.80846 4.60419,-11.83305c10.08236,-26.58801 17.23598,-50.0672 22.44626,-68.19801c5.08859,-17.70929 7.92615,-28.78857 8.65134,-28.6148z" data-paper-data="{&quot;index&quot;:null}" fill="#000000" stroke-width="9.375" stroke-linejoin="round"/><path d="M281.6852,122.09155c-0.74686,29.05445 -24.51262,52.18892 -53.57263,51.6614c-29.05929,-0.52787 -52.18857,-24.51258 -51.66104,-53.57227c0.52785,-29.05932 24.57437,-49.69778 53.57191,-51.6614c29.89607,-2.02436 52.42735,23.78621 51.66176,53.57227z" data-paper-data="{&quot;index&quot;:null}" fill="#f2f2f2" stroke-width="9.0943" stroke-linejoin="round"/><path d="M191.87066,84.71649c36.74374,-34.8863 88.61095,-15.38099 89.75623,37.29903c-0.56257,21.86738 -14.16456,40.37947 -33.24859,47.97609c-41.20057,11.71544 -86.66294,-31.26829 -56.50764,-85.27508z" data-paper-data="{&quot;index&quot;:null}" fill="#ffffff" stroke-width="9.09417" stroke-linejoin="round"/><path d="M270.91157,88.51394c-0.31475,0.19472 -3.54998,-6.41107 -13.55304,-12.56811v0c-4.19099,-2.58482 -9.60569,-4.86565 -16.14033,-5.92589c-5.29116,-0.85895 -11.19,-0.89785 -17.45497,0.18496c-5.55216,0.96135 -11.31805,2.80039 -16.94549,5.67882c-5.11865,2.62092 -10.12385,6.10914 -14.51925,10.5219c-4.09762,4.11428 -7.68581,9.06497 -10.21476,14.67715c-2.51162,5.56081 -3.96853,11.79592 -4.12784,18.23617c-0.18497,7.08714 1.20531,14.35581 3.80057,21.41934c2.58066,7.07049 7.62122,13.3379 13.91432,18.25457c0.28077,0.21934 0.56466,0.43555 0.85099,0.64898c6.51104,4.85908 14.03266,8.14566 21.6921,9.94928c8.57185,2.00456 17.30366,2.13365 25.35456,0.29117c8.79603,-2.00563 16.63212,-6.45133 22.45009,-12.35469v0c6.20839,-6.27124 10.10404,-14.16632 12.00242,-21.87086c2.16179,-8.7707 1.94036,-17.48031 0.59035,-24.98911c-1.68945,-9.3402 -5.05827,-16.88996 -8.79428,-22.63297c-3.91682,-6.00329 -7.98811,-9.68516 -11.06679,-11.96356c-3.0353,-2.24682 -4.90731,-3.12418 -4.82644,-3.31054c0.05486,-0.12425 2.11148,0.32067 5.47649,2.33427c3.36986,2.01604 7.93185,5.60871 12.26758,11.67378c4.15456,5.79507 7.98462,13.57769 10.01315,23.29999c1.64191,7.82877 2.08718,17.00725 -0.03678,26.44046c-1.87545,8.32542 -5.95087,16.91045 -12.66564,23.90283v0c-6.31667,6.54922 -14.80037,11.49955 -24.41334,13.7651c-8.75194,2.05661 -18.1713,1.99035 -27.3848,-0.14506c-8.23174,-1.89663 -16.32946,-5.42719 -23.40968,-10.69959c-0.31095,-0.23182 -0.61948,-0.46642 -0.92558,-0.70416c-6.89453,-5.33418 -12.41784,-12.30748 -15.36674,-20.3216c-2.75593,-7.53482 -4.19135,-15.37995 -3.9536,-23.11398c0.22454,-7.04028 1.87965,-13.82548 4.68833,-19.88292c2.83508,-6.09874 6.77828,-11.40342 11.25663,-15.76585c4.79694,-4.67305 10.19603,-8.30526 15.68777,-10.98452c6.03278,-2.94438 12.18462,-4.75528 18.08138,-5.62743c6.65402,-0.98597 12.90475,-0.75415 18.4732,0.33907c6.88553,1.35178 12.51156,4.0147 16.77302,6.95076v0c10.53543,7.2697 12.12112,14.48142 12.42653,14.29229z" data-paper-data="{&quot;index&quot;:null}" fill="#000000" stroke-width="9.375" stroke-linejoin="round"/><path d="M234.70555,114.19321c1.94193,0.01996 3.44099,2.44117 3.34692,5.40454c-0.09411,2.96311 -1.74638,5.35163 -3.68831,5.33137c-1.94095,-0.01996 -3.44002,-2.44117 -3.34595,-5.40454c0.09411,-2.96311 1.74589,-5.35163 3.68735,-5.33138z" data-paper-data="{&quot;index&quot;:null}" fill="#000000" stroke-width="9.375" stroke-linejoin="round"/><path d="M275.20555,114.19321c1.94193,0.01996 3.44099,2.44116 3.34692,5.40454c-0.09411,2.96311 -1.74639,5.35163 -3.68832,5.33137c-1.94095,-0.01996 -3.44002,-2.44116 -3.34595,-5.40454c0.09411,-2.96311 1.74588,-5.35164 3.68734,-5.33138z" data-paper-data="{&quot;index&quot;:null}" fill="#000000" stroke-width="9.375" stroke-linejoin="round"/><path d="M196.75,110.85832c0,0 2.10271,11.09564 -0.29637,22.54268c-3.20021,15.26959 -16.70363,59.95732 -16.70363,59.95732c0,0 -17.69155,-13.42191 -20.42044,-27.32503c-1.61794,-8.24304 -1.57956,-19.17497 -1.57956,-19.17497l-22.5,22.5c0,0 -3.3767,-33.03509 4.39274,-50.20473c7.41718,-16.39119 11.60726,-14.79527 11.60726,-14.79527c0,0 -32.83473,-1.5382 -32.57377,-1.86496c25.90087,-32.43166 59.89764,-47.52166 102.07377,-45.63503c74.17609,7.29882 61.5,63 61.5,63l-11,-12l-8,15.5l-12.5,-16.5l-6.5,14l-12.5,-13.5l-8.5,13.5l-9.5,-13.5l-8.5,15.5l-8.5,-12z" fill="#000000" stroke-width="0" stroke-linejoin="miter"/><path d="M194.25,101.85832c0,0 0.10271,20.59564 -2.29637,32.04268c-3.20021,15.26958 -14.70363,51.95732 -14.70363,51.95732c0,0 -11.69155,-6.92191 -14.42044,-20.82503c-1.61794,-8.24304 -2.07956,-26.17497 -2.07956,-26.17497l-23.5,22.5c0,0 -1.3767,-25.03509 6.39274,-42.20473c7.41718,-16.39119 18.60726,-17.29527 18.60726,-17.29527c0,0 -35.83473,-1.5382 -35.57377,-1.86496c25.90087,-32.43166 70.89764,-41.52166 95.07377,-39.13503c64.17609,5.79882 58.5,52.5 58.5,52.5l-9.5,-12l-8,15.5l-12.5,-16.5l-6.5,14l-12.5,-13.5l-8.5,13.5l-9.5,-13.5l-8.5,15.5l-10.5,-14.5z" fill="#754200" stroke-width="0" stroke-linejoin="miter"/><g stroke-width="9.375" stroke-linejoin="round"><path d="M260.78343,127.08945c5.46669,1.91494 8.21236,7.69136 6.13098,12.89468c-2.08134,5.2028 -8.20673,7.87116 -13.67323,5.95568c-5.46393,-1.914 -8.20963,-7.69043 -6.12825,-12.89375c2.08134,-5.2028 8.20533,-7.87164 13.67052,-5.95663z" data-paper-data="{&quot;index&quot;:null}" fill="#000000"/><path d="M260.25745,129.28765c4.18616,1.46638 6.28868,5.88972 4.69484,9.87421c-1.5938,3.98409 -6.28437,6.0274 -10.47039,4.56061c-4.18404,-1.46566 -6.2866,-5.889 -4.69276,-9.87349c1.5938,-3.98409 6.2833,-6.02777 10.4683,-4.56134z" data-paper-data="{&quot;index&quot;:null}" fill="#ffffff"/></g></g></g></svg>