<svg version="1.1" xmlns="http://www.w3.org/2000/svg" xmlns:xlink="http://www.w3.org/1999/xlink" width="345.34349" height="319.986" viewBox="0,0,345.34349,319.986"><g transform="translate(-54.08387,-13.81703)"><g data-paper-data="{&quot;isPaintingLayer&quot;:true}" fill-rule="nonzero" stroke-linejoin="miter" stroke-miterlimit="10" stroke-dasharray="" stroke-dashoffset="0" style="mix-blend-mode: normal"><g data-paper-data="{&quot;index&quot;:null}" stroke-linecap="butt"><g><path d="M148.02304,138.29588c-6.58171,-0.13002 -1.06227,-15.09397 5.57644,-18.73167c1.18051,-0.64687 7.66344,-0.00066 8.44253,0.01803c24.04736,0.57618 28.76889,-0.91947 28.76889,-0.91947c0,0 9.73617,5.36205 10.66688,9.46741c0.66224,2.92118 -5.35172,12.67603 -5.35172,12.67603c0,0 -25.34081,-1.56559 -35.25382,-3.11856c-2.3375,-0.3662 -4.57821,0.77162 -12.84924,0.60826z" fill="#d9bb9a" stroke="#917c67" stroke-width="4"/><path d="M142.24732,136.18857c-2.7046,-0.50647 6.16347,-15.06878 6.30414,-15.81988c0.14065,-0.75112 2.80196,0.16378 5.50655,0.67024c2.70459,0.50646 5.73714,0.44128 5.59649,1.19237c-0.02344,0.12513 -9.8588,13.76444 -10.8656,13.8935c-2.65894,0.34084 -4.28751,0.48587 -6.54158,0.06375z" fill="#d9bb9a" stroke="none" stroke-width="0"/><path d="M194.04744,124.89117c10.43559,0.51468 6.14695,6.84096 6.05241,9.30996c-0.09456,2.469 -8.6135,2.75715 -19.04909,2.24246c-10.43558,-0.51469 -12.2294,-1.50832 -19.5686,-2.09557c-4.94419,-0.39563 -11.42453,-0.21018 -16.97484,0.10497c-9.44622,0.53638 2.52892,-12.06342 2.89087,-12.19637c0.32882,-0.1208 7.67446,1.87115 8.34591,1.99203c7.71412,1.38851 17.89652,3.54284 20.33414,3.16724c5.38436,-0.82969 13.95477,-2.7227 17.96919,-2.52469z" fill="#ffdbb5" stroke="none" stroke-width="0"/></g><path d="M188.85738,145.55935c-9.65688,-1.39779 -44.19954,-5.91084 -44.19954,-5.91084c0,0 2.56878,-8.32033 4.55658,-11.76998c1.73121,-3.0044 -0.93905,-10.62955 -0.93905,-10.62955c0,0 27.61796,0.49629 35.29891,0.93955c7.64142,0.44093 28.30644,2.33837 28.30644,2.33837c0,0 8.07358,14.96985 1.62091,21.98563c-6.4527,7.01578 -15.20556,4.41303 -24.64424,3.04682z" fill="#403328" stroke="#292018" stroke-width="4"/></g><g data-paper-data="{&quot;index&quot;:null}" stroke-linecap="butt"><g fill="#d9bb9a" stroke="#917c67" stroke-width="4"><path d="M97.58551,140.56194c-2.99386,-3.10107 18.2476,-11.94968 18.2476,-11.94968c2.62954,-2.11316 8.46612,-5.53211 16.07494,-7.02349c8.11817,-1.59125 8.24642,-0.72432 10.48539,-1.48922c3.91839,-0.77266 14.42664,17.00008 11.73486,18.05547c-5.06141,1.01421 -18.90806,10.22177 -29.02523,13.06495c-12.67899,3.56313 -5.49396,1.37418 -6.04753,-0.15755c-0.5393,-1.49226 6.50876,-1.63611 5.7784,-4.0963c-0.29166,-0.98241 -2.93822,-0.15292 -7.84622,2.23156c-2.39654,1.16432 -6.02404,4.79736 -7.94166,5.53278c-4.67809,1.79413 -3.78579,-4.1222 -5.83563,-4.27082c-2.54927,-0.18481 -2.79379,-3.79633 -3.2048,-5.97952c-0.40637,-2.15852 -1.637,-3.10707 -2.42007,-3.91819z"/></g><path d="M130.59703,132.15815c-4.11024,-5.89749 -7.37205,-11.62699 -7.37205,-11.62699l22.34287,-3.15417l11.45147,19.86003l-21.14971,9.08775c0,0 -0.89947,-7.89194 -5.27259,-14.16662z" fill="#403328" stroke="#292018" stroke-width="4"/><path d="M141.10762,121.09154l8.36937,-2.38214l12.24397,15.29979l-9.29549,2.54015z" fill="#403328" stroke="none" stroke-width="0"/></g><g data-paper-data="{&quot;index&quot;:null}"><path d="M371.42333,316.24945c-1.68381,2.5356 -4.36594,2.569 -6.19708,5.42068c-1.02842,1.6016 0.08068,3.56355 -0.54792,5.55124c-0.65142,2.05991 -3.02736,4.12575 -3.34504,4.58166c-1.71546,2.46213 -11.26365,-5.64663 -11.26365,-5.64663c0,0 -6.37073,-6.72231 -7.852,-7.65922c-2.83527,-1.79336 -12.21888,-7.07054 -12.21888,-7.07054l14.78404,-30.48105l12.10495,2.58572c0,0 5.87532,-1.25972 7.98763,-5.00625c2.79359,-4.95492 9.32329,-13.38343 13.21304,-14.50729c8.10635,-2.34212 8.92447,-3.58928 10.03337,-1.87203c0,0 3.14476,1.86757 4.63012,3.27829c1.4966,1.4214 4.31601,5.21831 4.31601,5.21831c0,0 -18.64964,35.07356 -25.64461,45.60708z" fill="#403328" stroke="#292018" stroke-width="4" stroke-linecap="butt"/><path d="M388.6273,272.4108l2.47881,-4.48983l2.51623,2.59942c0,0 -3.18999,5.95907 -5.7975,11.0519c-2.2879,4.46857 -18.52308,36.16807 -19.16839,33.60283c-0.0764,-0.30373 -4.65369,1.41196 -6.73421,4.96665c-1.10489,1.88775 -0.40932,4.22774 -0.53606,6.06597c-0.11067,1.60533 -1.10698,2.84496 -1.10698,2.84496c0,0 -4.51891,-0.97845 -3.76214,-2.96859c1.37058,-3.6043 9.22675,-14.24493 15.85115,-25.42965c7.65888,-12.93135 16.25908,-28.24369 16.25908,-28.24369z" fill="#775f4a" stroke="none" stroke-width="0" stroke-linecap="butt"/><path d="M357.00133,284.29525c0,0 -0.55623,6.4666 -1.93815,9.57719c-1.67507,3.77047 -3.32555,4.36627 -3.32555,4.36627l-10.58644,-2.4101l13.44256,-10.16455" fill="none" stroke="#292018" stroke-width="4" stroke-linecap="round"/><path d="M351.16563,296.63908l-3.09363,-13.51263" fill="none" stroke="#292018" stroke-width="4" stroke-linecap="round"/></g><g data-paper-data="{&quot;index&quot;:null}" stroke-linecap="butt"><g fill="#465b9c"><path d="M293.50598,267.75256c-2.73685,4.8523 -12.61733,13.48474 -12.61733,13.48474c0,0 -13.05458,-4.51912 -21.43571,-7.84829c-7.96487,-3.16381 -31.7435,-17.04291 -31.7435,-17.04291l16.72276,-35.55796c0,0 29.0726,15.41278 35.3935,19.76285c2.98995,2.05769 9.51403,5.05713 12.72903,6.79373c3.53829,1.91122 4.85831,5.2305 4.85831,5.2305c0,0 -1.29091,10.53906 -3.90702,15.1773z" stroke="#2e3c67" stroke-width="4"/><path d="M233.18783,251.1344l-4.09381,-2.08102l11.66331,-22.66627l4.0938,2.08103z" stroke="none" stroke-width="0"/></g><path d="M275.45116,245.65964c3.87704,2.17156 6.87223,3.97674 9.15829,5.52132c3.13167,2.11592 7.3084,2.63367 8.22269,4.04344c1.51653,2.33839 0.9615,5.30213 -0.37423,7.68691c-0.90929,1.62339 -3.62785,4.22911 -7.39717,4.31538c-7.54294,0.17266 -22.37501,-4.54864 -34.95606,-10.14575c-21.175,-9.42045 -33.74669,-13.92142 -26.67226,-26.93508c3.05968,-5.62838 14.50467,-1.74945 27.48517,4.1786c5.5211,2.52143 19.16284,8.32697 24.53358,11.33518z" fill="#5671c0" stroke="none" stroke-width="0"/></g><g data-paper-data="{&quot;index&quot;:null}" stroke-linecap="butt"><g fill="#465b9c"><path d="M343.99254,297.50755c-3.07208,4.64731 -11.45507,14.29264 -11.45507,14.29264l-3.52256,-3.51349l-2.8393,0.39371l-3.52192,-2.1122c0,0 -12.44193,-6.01855 -15.65893,-7.56719c-7.72205,-3.71737 -30.99433,-21.49682 -30.99433,-21.49682l18.32495,-27.15299c0,0 19.87642,11.33844 26.83372,14.57467c4.23391,1.96941 20.10426,11.73744 20.10426,11.73744l3.79418,0.88139l1.02782,2.81909l4.491,0.8873c0,0 -3.64728,11.81416 -6.58383,16.25647z" stroke="#2e3c67" stroke-width="4"/><path d="M284.31117,271.985c0,0 -3.56394,5.41707 -4.06367,5.39438c-1.29316,-0.05869 -6.32097,-1.9968 -6.32097,-1.9968l16.40678,-25.31526l5.26225,3.09529z" stroke="none" stroke-width="0"/></g><path d="M311.8621,266.23891c8.99506,5.38888 23.90955,10.50355 23.66363,13.32473c-0.07721,0.88558 3.68925,0.1648 4.31639,2.06913c0.62714,1.90433 -0.08232,3.9126 -1.35531,6.92214c-1.21045,2.86167 -4.07329,5.61891 -5.5415,6.47914c-3.77739,2.21309 -7.89146,-4.17835 -10.80469,-5.92364c-5.1672,-3.09564 -25.1253,-15.42481 -41.59742,-22.99995c-3.41611,-1.57099 1.91344,-4.79949 3.34512,-8.96317c1.7384,-2.48486 3.48583,-4.73911 7.58719,-3.19654c4.6689,1.75603 15.59804,9.41935 20.3866,12.28816z" fill="#5671c0" stroke="none" stroke-width="0"/></g><g data-paper-data="{&quot;index&quot;:null}" stroke-width="4" stroke-linecap="butt"><g data-paper-data="{&quot;index&quot;:null}" fill="#403328" stroke="#292018"><g><path d="M245.05017,241.85712c-2.22369,1.90552 -5.69946,0.03602 -5.69946,0.03602c0,0 4.02518,-50.78701 4.85198,-68.9737c0.76611,-16.85184 1.6462,-25.73366 1.6462,-25.73366c0,0 -1.05336,-3.6707 0.72527,-8.41456c1.08179,-2.88526 3.66533,-2.75906 5.67112,-0.64229c2.00578,2.11675 2.29171,3.9197 3.41571,11.94667c0.39957,2.8535 0.20089,11.2784 -0.15114,14.46087c-0.63906,5.77724 -3.24527,25.8282 -3.24527,25.8282l-3.03265,43.06113c0,0 -1.95805,6.52582 -4.18175,8.43134z"/></g><path d="M244.25551,138.08039c-1.59561,1.85626 -4.04503,-9.29816 -4.04503,-9.29816l15.76434,0.56322l-0.74761,12.58702c0,0 -9.30985,-5.78541 -10.97169,-3.85208z"/></g><path d="M255.24898,161.98439c-0.1491,1.95018 -0.69721,3.46607 -1.22425,3.38585c-0.52704,-0.08021 -0.83343,-1.72617 -0.68432,-3.67635c0.1491,-1.95018 0.69721,-3.46607 1.22425,-3.38585c0.52704,0.08021 0.83343,1.72616 0.68432,3.67635z" fill="#dfbd28" stroke="#dfbd28"/><path d="M252.87326,183.48675c-0.1491,1.95016 -0.69721,3.46607 -1.22425,3.38585c-0.52704,-0.08021 -0.83343,-1.72617 -0.68432,-3.67635c0.1491,-1.95016 0.69721,-3.46607 1.22425,-3.38585c0.52704,0.08021 0.83343,1.72617 0.68432,3.67635z" fill="#dfbd28" stroke="#dfbd28"/><path d="M250.95501,205.44045c-0.1491,1.95016 -0.69721,3.46607 -1.22425,3.38585c-0.52704,-0.08021 -0.83343,-1.72617 -0.68432,-3.67635c0.1491,-1.95016 0.69721,-3.46607 1.22425,-3.38585c0.52704,0.08021 0.83343,1.72617 0.68432,3.67635z" fill="#dfbd28" stroke="#dfbd28"/><path d="M249.47115,225.61544c-0.1491,1.95016 -0.69721,3.46607 -1.22425,3.38585c-0.52704,-0.08021 -0.83343,-1.72617 -0.68432,-3.67635c0.1491,-1.95016 0.69721,-3.46607 1.22425,-3.38585c0.52704,0.08021 0.83343,1.72617 0.68432,3.67635z" fill="#dfbd28" stroke="#dfbd28"/></g><g><g><g><path d="M244.82498,266.61408c0,0 -18.98832,-3.85989 -26.02326,-8.19872c-7.00818,-4.32231 -15.72086,-13.37125 -15.72086,-13.37125l17.07092,-31.9397c0,0 7.43837,2.07543 13.34877,4.50296c6.31902,2.59535 23.42146,10.59934 23.42146,10.59934l2.39003,4.40218z" fill="#465b9c" stroke="#2e3c67" stroke-width="4" stroke-linecap="butt"/><path d="M226.64191,226.1239c0,0 7.0862,6.39938 9.50499,9.07875c1.80404,1.99837 3.71212,5.56214 3.71212,5.56214" fill="none" stroke="#2e3c67" stroke-width="4" stroke-linecap="round"/><path d="M249.0032,265.11442l-10.08046,-3.47168l14.53673,-31.38183l10.11534,4.14009z" fill="#465b9c" stroke="none" stroke-width="0" stroke-linecap="butt"/></g><g fill="none" stroke="none" stroke-width="1" stroke-linecap="butt" font-family="sans-serif" font-weight="normal" font-size="12" text-anchor="start"/><g fill="none" stroke="none" stroke-width="1" stroke-linecap="butt" font-family="sans-serif" font-weight="normal" font-size="12" text-anchor="start"/></g><path d="M259.44667,241.20544c2.77662,1.23044 -4.89545,13.23631 -7.05864,18.11778c-1.15703,2.61098 -9.842,-6.21612 -12.02637,-8.32611c-2.59788,-2.50941 1.54868,-6.68426 3.71187,-11.56572c2.16319,-4.88147 12.59654,0.54362 15.37316,1.77407z" fill="#5671c0" stroke="none" stroke-width="0" stroke-linecap="butt"/></g><path d="M203.03877,175.42999l7.51786,-24.26204c0,0 -11.43598,-4.79923 -8.06357,-10.63838c3.37242,-5.83911 2.05046,-7.3424 7.23779,-8.36116c10.55823,-2.07353 7.73429,-6.27452 16.83475,-5.88547c7.24632,0.30979 20.01655,5.49178 21.77109,25.356c0.65379,7.40195 -7.51519,40.7748 -7.51519,40.7748l-0.95516,32.5891c0,0 -8.19893,10.64378 -31.69039,9.06546c-21.89087,-1.47078 -17.78751,-8.41964 -17.78751,-8.41964z" fill="#95d2a1" stroke="#67916f" stroke-width="4" stroke-linecap="butt"/><g data-paper-data="{&quot;index&quot;:null}"><path d="M105.65874,198.80288c2.93895,-0.7918 4.97495,0.95456 8.23329,0.02273c1.82999,-0.52334 2.29299,-2.729 4.07778,-3.80633c1.84962,-1.11646 4.998,-1.09841 5.53764,-1.23095c2.91421,-0.71571 4.72809,11.67902 4.72809,11.67902c0,0 0.34374,9.25513 0.83716,10.93695c0.94447,3.21914 4.50489,13.37906 4.50489,13.37906l-31.23224,13.12282l-7.38138,-9.93634c0,0 -5.24355,-2.93452 -9.30403,-1.51649c-5.37012,1.87541 -15.83973,3.89145 -19.50264,2.16628c-7.63363,-3.59532 -9.07161,-3.1992 -8.77008,-5.22097c0,0 -1.12781,-3.47927 -1.3114,-5.51956c-0.18497,-2.05571 0.20573,-6.76877 0.20573,-6.76877c0,0 37.16796,-14.01808 49.37717,-17.30744z" fill="#403328" stroke="#292018" stroke-width="4" stroke-linecap="butt"/><path d="M63.78729,220.35715l-4.82657,1.73407l-0.17254,-3.61367c0,0 6.33095,-2.3676 11.65244,-4.46943c4.66921,-1.84421 37.79579,-14.9235 36.58611,-12.57115c-0.14323,0.27853 4.42683,2.01339 8.33673,0.71839c2.07639,-0.6877 3.09958,-2.90412 4.40882,-4.20068c1.14336,-1.13229 2.71016,-1.40508 2.71016,-1.40508c0,0 2.74685,3.71924 0.86421,4.71373c-3.40962,1.8011 -16.3362,4.60209 -28.69725,8.62513c-14.29139,4.65129 -30.86213,10.46868 -30.86213,10.46868z" fill="#775f4a" stroke="none" stroke-width="0" stroke-linecap="butt"/><path d="M95.38324,232.32121c0,0 4.68859,-4.48815 7.78062,-5.91108c3.74799,-1.72479 5.38077,-1.08207 5.38077,-1.08207l6.35719,8.80158l-16.80677,-1.24608" fill="none" stroke="#292018" stroke-width="4" stroke-linecap="round"/><path d="M107.91762,226.90696l-6.60165,12.18933" fill="none" stroke="#292018" stroke-width="4" stroke-linecap="round"/></g><path d="M242.34438,161.26303c-0.42531,6.04771 -8.2487,37.88009 -7.91328,41.43511c1.15389,12.22987 -9.82012,8.76918 -14.83567,8.60303c-4.06807,-0.13476 -6.36689,4.01432 -10.38068,0.05339c-3.11445,-3.07346 -0.62765,-21.31767 1.72315,-33.90066c0.67882,-3.63342 1.49495,-17.53397 1.61514,-20.34491c0.12956,-3.03055 -10.45892,-6.50091 -11.81536,-9.65981c-0.4966,-1.15648 -4.0431,-5.02218 -4.09304,-6.2033c-0.09778,-2.31264 7.90706,-3.00854 12.535,-4.30777c4.62792,-1.29924 10.82133,-9.06208 17.50427,-8.77639c6.88415,0.29429 9.52381,4.11889 13.59454,12.52783c4.07072,8.40895 2.49132,14.52574 2.06599,20.57345z" fill="#a6eab4" stroke="none" stroke-width="0" stroke-linecap="butt"/><g stroke-linecap="butt"><path d="M217.65441,107.0959l22.61696,12.07549l-0.23385,6.4493l1.73648,12.36396c0,0 -7.621,1.47308 -16.59185,0.98474c-8.68624,-0.47287 -13.92052,-9.78463 -13.92052,-9.78463z" fill="#d9bb9a" stroke="#917c67" stroke-width="4"/><path d="M231.98124,127.2164c-0.05272,1.23327 -2.33813,2.98942 -5.05973,2.87307c-2.72161,-0.11635 -4.84881,-2.06113 -4.79609,-3.29442c0.05272,-1.23327 2.26541,-1.28804 4.98701,-1.17168c2.72161,0.11635 4.92154,0.35975 4.86881,1.59303z" fill="#ffdbb5" stroke="none" stroke-width="0"/></g><g data-paper-data="{&quot;index&quot;:null}" stroke-linecap="butt"><g fill="#465b9c"><path d="M145.11311,271.86034c-1.95237,-5.21761 -2.20039,-18.33558 -2.20039,-18.33558c0,0 11.86061,-7.08311 19.80269,-11.35513c7.5476,-4.05985 33.47398,-13.3268 33.47398,-13.3268l22.10681,27.42935c0,0 -4.20019,6.01669 -12.42598,10.526c-10.87812,5.96329 -26.92111,10.93784 -31.13337,12.09842c-3.49921,0.96411 -9.99372,4.02703 -13.39201,5.37001c-3.74,1.47802 -7.13002,0.35208 -7.13002,0.35208c0,0 -7.23546,-7.77088 -9.10169,-12.75833z" stroke="#2e3c67" stroke-width="4"/><path d="M196.65241,236.39003l4.22749,-1.79394l9.84164,23.51456l-4.22749,1.79393z" stroke="none" stroke-width="0"/></g><path d="M173.64227,272.26058c-4.15727,1.56977 -7.46657,2.70037 -10.12004,3.45598c-3.63499,1.0351 -6.71935,3.89862 -8.38676,3.69105c-2.76575,-0.34426 -4.67689,-2.6765 -5.64247,-5.23367c-0.6573,-1.74075 -0.90198,-5.49847 1.45789,-8.43891c4.72241,-5.88424 17.88176,-14.19768 30.26269,-20.22454c20.83817,-10.14374 32.37413,-16.86893 37.78132,-3.07891c2.3386,5.96416 -7.99612,12.22736 -20.88742,18.34699c-5.48315,2.6029 -18.70626,9.30744 -24.46522,11.48202z" fill="#5671c0" stroke="none" stroke-width="0"/></g><g data-paper-data="{&quot;index&quot;:null}" stroke-linecap="butt"><g fill="#465b9c"><path d="M111.46636,225.97908c3.92742,-3.95102 14.0463,-11.75582 14.0463,-11.75582l2.76136,4.13859l2.86123,0.17336l3.03679,2.76464c0,0 11.01242,8.35175 13.86129,10.50379c6.83838,5.16579 12.83866,17.31968 12.83866,17.31968l-10.00186,32.87266c0,0 -17.25315,-15.03199 -23.43656,-19.5754c-3.76294,-2.76493 -17.39793,-15.46807 -17.39793,-15.46807l-3.54619,-1.6116l-0.45229,-2.96632l-4.2282,-1.75468c0,0 5.90325,-10.86411 9.65742,-14.64084z" stroke="#2e3c67" stroke-width="4"/><path d="M154.24902,255.22653c0,0 -2.3148,-6.47886 -1.82933,-6.35816c1.25626,0.31231 13.47323,3.46279 13.47323,3.46279c0,0 -6.26142,13.743 -6.9663,20.01315c-0.56988,5.06936 -1.54594,13.75181 -1.54594,13.75181l-18.18585,-19.58082z" stroke="none" stroke-width="0"/></g><path d="M136.80701,262.96483c-7.75714,-7.05535 -21.37172,-15.00802 -20.57484,-17.72547c0.25015,-0.85301 -3.58449,-0.88837 -3.82417,-2.87892c-0.23968,-1.99054 0.85151,-3.81972 2.69244,-6.51947c1.75049,-2.56711 5.1004,-4.70634 6.70935,-5.26044c4.13935,-1.42556 6.91364,5.65113 9.42594,7.93615c2.50935,2.28234 17.94731,13.48498 25.1353,16.78648c5.57639,2.56129 8.74508,1.40366 8.74508,1.40366c0,0 3.15583,13.48419 0.93196,17.28422c-2.19387,2.09369 -7.95775,7.35774 -11.67482,5.03741c-4.23144,-2.6414 -13.43671,-12.30764 -17.56626,-16.06362z" fill="#5671c0" stroke="none" stroke-width="0"/></g><g><g><g><g><path d="M181.52025,240.32691c0,0 5.86748,-18.46695 10.93344,-24.99778c5.04666,-6.50601 14.97508,-14.20151 14.97508,-14.20151l35.5489,19.99712l-24.56318,35.33535l-4.63243,1.90578z" fill="#465b9c" stroke="#2e3c67" stroke-width="4" stroke-linecap="butt"/><path d="M223.72209,226.57609c0,0 -7.12018,6.36155 -10.04273,8.4801c-2.17975,1.58009 -5.92708,3.09629 -5.92708,3.09629" fill="none" stroke="#2e3c67" stroke-width="4" stroke-linecap="round"/><path d="M182.56471,244.6415l4.52933,-9.6516l30.06743,18.05033l-11.61688,12.03911z" fill="#465b9c" stroke="none" stroke-width="0" stroke-linecap="butt"/></g><g stroke="#281a0d" stroke-width="4" stroke-linecap="butt"><path d="M200.73096,204.63152c0,0 1.76387,-3.59738 2.86272,-4.88653c1.18742,-1.39305 3.95909,-2.234 3.95909,-2.234l9.20727,4.91382c0,0 1.04241,5.00135 0.21368,6.43463c-0.82871,1.43328 -5.18601,2.16507 -5.18601,2.16507z" fill="#3f2b1a"/><path d="M210.62441,211.33543l6.77291,-7.88645l9.36273,5.49547c0,0 1.04241,5.00135 0.21369,6.43464c-0.82871,1.43328 -5.18602,2.16506 -5.18602,2.16506z" fill="#67472a"/><path d="M221.75889,218.01925l6.48208,-7.80873l9.65356,5.41774c0,0 1.0424,5.00136 0.21369,6.43463c-0.82871,1.43328 -5.18601,2.16506 -5.18601,2.16506z" fill="#3f2b1a"/><path d="M233.55878,225.42088l5.61094,-9.14326l6.45605,3.68466c0,0 -1.2215,3.84211 -1.97835,5.31462c-0.75684,1.4725 -4.13497,2.61134 -4.13497,2.61134z" fill="#67472a"/></g><path d="M204.6626,208.7104l7.46884,-10.43211l5.41721,2.96079l-5.81032,11.39105z" fill="#465b9c" stroke="#2e3c67" stroke-width="4" stroke-linecap="butt"/><g fill="none" stroke="none" stroke-width="1" stroke-linecap="butt" font-family="sans-serif" font-weight="normal" font-size="12" text-anchor="start"/></g><path d="M198.79865,260.65442c-1.52018,2.62918 -10.97052,-11.61559 -15.59279,-14.28818c-2.47234,-1.4295 12.56587,-6.45447 14.89726,-8.4008c2.77273,-2.31477 6.48043,2.2543 11.10269,4.92689c4.62226,2.67258 -1.887,12.46625 -3.40719,15.09544z" fill="#5671c0" stroke="none" stroke-width="0" stroke-linecap="butt"/></g><path d="M240.63403,229.51178l5.61094,-9.14326l3.31149,1.86649c0,0 0.08873,4.59968 -0.66812,6.07219c-0.75684,1.4725 -4.28648,2.87338 -4.28648,2.87338z" fill="#67472a" stroke="#281a0d" stroke-width="4" stroke-linecap="butt"/></g><g stroke="#292018" stroke-width="4"><g fill="#403328" stroke-linecap="butt"><g><path d="M188.22432,230.2282l9.46723,-34.98959l1.71315,-19.19063l3.31085,-27.60934l-2.17438,-4.68522c0,0 -8.32186,3.28732 -6.56756,0.87643c1.75432,-2.41088 8.01395,-10.68046 14.03062,-14.7506c2.35618,-1.59391 7.46168,0.55486 7.46168,0.55486l7.21184,3.32177l14.40622,3.3096c0,0 1.25488,3.50181 0.91778,10.73275c-0.23884,5.12338 -0.62641,11.13434 -1.31244,18.09639c-2.98639,17.86455 -5.76034,69.82339 -5.76034,69.82339c0,0 -6.85882,9.50521 -13.69725,8.52483c-2.102,-0.30135 -17.15074,1.86924 -23.24784,-1.21664c-7.36696,-3.72859 -5.7595,-12.79805 -5.7595,-12.79805z"/></g><path d="M209.90743,127.96007l-1.07898,-9.33896l26.87874,11.76458l0.8395,6.78688c0,0 -10.54417,-0.74178 -13.05734,-2.93477c-2.6175,-2.28401 -13.58192,-6.27773 -13.58192,-6.27773z"/></g><path d="M230.23721,151.82471l-1.0828,9.12945" fill="none" stroke-linecap="round"/><path d="M228.23993,174.24586l-0.14486,7.43827" fill="none" stroke-linecap="round"/><path d="M226.84742,203.44484l0.50525,-7.76913" fill="none" stroke-linecap="round"/><path d="M226.26452,216.40448l-0.54219,8.63317" fill="none" stroke-linecap="round"/></g><g><path d="M198.59779,95.93607c2.05172,-6.12709 3.51446,-24.70261 3.51446,-24.70261l80.41722,-2.98359c0,0 1.39908,19.69093 3.35248,26.34241c1.27321,4.33536 2.92665,5.09882 2.92665,5.09882c0,0 -2.98245,5.80913 -6.21007,6.0082c-1.0336,0.06375 -3.24666,0.18678 -4.70909,0.32227c-0.58337,0.05405 -0.53907,9.16227 -0.53907,9.16227c0,0 -3.7697,3.92469 -7.19872,4.1894c-1.42244,0.1098 -6.22706,-0.40666 -7.72961,-0.24689c-1.69328,0.18005 -5.08132,1.87645 -7.67245,2.91683c-4.18767,1.6814 -9.98424,1.53704 -9.98424,1.53704c0,0 -4.86145,-1.42922 -8.38945,-2.90362c-2.9156,-1.21846 -4.32345,-2.52206 -6.61931,-2.59399c-1.53822,-0.0482 -13.01065,3.23425 -13.8624,3.24362c-2.07136,0.02281 -10.68474,-3.70018 -10.68474,-3.70018c0,0 1.55955,-6.80488 0.29177,-6.83795c-1.69263,-0.04416 -3.86291,-3.45709 -4.82912,-3.53226c-2.98743,-0.23246 -5.58954,-5.41121 -5.58954,-5.41121c0,0 2.00234,-1.39061 3.51522,-5.90855z" data-paper-data="{&quot;index&quot;:null}" fill="#14161a" stroke="#14161a" stroke-width="4" stroke-linecap="butt"/><path d="M204.85486,82.99363c-0.97734,-26.43347 14.42228,-42.07039 37.61219,-42.9278c23.18991,-0.85741 39.70219,13.5996 40.67954,40.03307c0.97735,26.43348 -20.87527,45.38797 -31.44172,45.98656c-24.26308,1.37453 -45.87267,-16.65835 -46.85001,-43.09184z" data-paper-data="{&quot;index&quot;:null}" fill="#d9bb9a" stroke="#917c67" stroke-width="4" stroke-linecap="butt"/><path d="M277.11248,80.85454c0.78187,21.14678 -14.78136,38.97411 -25.50809,39.37072c-21.02481,1.08946 -39.6533,-15.78578 -40.43516,-36.93258c-0.78187,-21.14678 10.69036,-36.0746 32.05309,-36.86446c21.09683,-0.78003 33.1083,13.27953 33.89018,34.4263z" fill="#ffdbb5" stroke="none" stroke-width="0" stroke-linecap="butt"/><path d="M264.98715,98.82667c0.02949,1.35165 -2.73466,4.57095 -5.96685,4.64147c-3.23219,0.07052 -5.07909,-1.43341 -5.10858,-2.78505c-0.02949,-1.35165 1.76959,-2.03917 5.00178,-2.10969c3.23219,-0.07052 6.04415,-1.09837 6.07364,0.25329z" fill="#d9bb9a" stroke="none" stroke-width="0" stroke-linecap="butt"/><path d="M254.26096,118.35682c-5.30874,0.06219 -10.52673,-5.08615 -9.79654,-9.43898c0.73019,-4.35282 7.1327,2.80405 10.9412,2.61541c3.71694,-0.18411 10.90494,-7.25898 10.13213,-2.86228c-1.03597,5.89391 -5.96805,9.62365 -11.27679,9.68584z" fill="none" stroke="#d9bb9a" stroke-width="4" stroke-linecap="round"/><g data-paper-data="{&quot;index&quot;:null}" stroke="none" stroke-width="0" stroke-linecap="butt"><path d="M282.14048,86.46269c0.16027,7.3459 -4.2346,13.39967 -9.81624,13.52145c-5.58162,0.12178 -10.23636,-5.73453 -10.39663,-13.08042c-0.16027,-7.3459 4.23461,-13.39965 9.81624,-13.52143c5.58163,-0.12178 10.23636,5.73453 10.39663,13.08042z" fill="#d3f0f1"/><path d="M270.7776,74.41917c4.63275,-0.10108 8.50736,5.27199 8.65417,12.00104c0.14681,6.72906 -3.48977,12.26599 -8.12251,12.36707c-4.63275,0.10108 -8.50735,-5.27197 -8.65416,-12.00103c-0.14681,-6.72906 3.48976,-12.266 8.1225,-12.36708z" fill="#ffffff"/></g><g data-paper-data="{&quot;index&quot;:null}" stroke="none" stroke-width="0" stroke-linecap="butt"><g data-paper-data="{&quot;index&quot;:null}"><path d="M278.00911,86.20279c0.12556,5.75471 -3.07976,10.49195 -7.15926,10.58096c-4.07951,0.08901 -7.48836,-4.50393 -7.61392,-10.25864c-0.12556,-5.7547 3.07973,-10.49195 7.15924,-10.58096c4.07951,-0.08901 7.48839,4.50395 7.61394,10.25864z" fill="#41563d"/><path d="M270.40383,93.36615c-3.77161,0.08229 -6.56823,-4.91938 -6.63756,-8.09735c-0.06934,-3.17797 1.19165,-8.89484 7.19318,-9.02578c3.77161,-0.08229 6.9532,5.53766 7.02253,8.71562c0.06934,3.17796 -3.80653,8.32522 -7.57814,8.40751z" fill="#5f7d59"/></g><path d="M264.42503,83.01476c-0.05272,-2.41656 1.86354,-4.41832 4.2801,-4.47104c2.41656,-0.05272 4.41832,1.86355 4.47104,4.28011c0.05272,2.41657 -1.86355,4.41832 -4.28011,4.47104c-2.41656,0.05272 -4.41831,-1.86354 -4.47103,-4.28011z" fill="#8ebb85"/><path d="M268.2444,87.30909c-0.02917,-1.33682 1.0309,-2.44418 2.36772,-2.47335c1.33682,-0.02917 2.44418,1.0309 2.47335,2.36772c0.02917,1.33682 -1.0309,2.44419 -2.36772,2.47336c-1.33682,0.02917 -2.44418,-1.03091 -2.47335,-2.36773z" fill="#8ebb85"/></g><g data-paper-data="{&quot;index&quot;:null}" stroke="none" stroke-width="0" stroke-linecap="butt"><path d="M233.99279,73.35426c6.61691,-0.14437 12.11092,5.69363 12.27119,13.03954c0.16027,7.3459 -5.07387,13.41796 -11.69079,13.56233c-6.61691,0.14437 -12.11092,-5.69362 -12.27119,-13.03952c-0.16027,-7.3459 5.07388,-13.41796 11.69079,-13.56233z" fill="#d3f0f1"/><path d="M245.39669,86.31112c0.14681,6.72908 -4.18635,12.28119 -9.67838,12.40101c-5.49203,0.11982 -10.06324,-5.23803 -10.21005,-11.96709c-0.14681,-6.72906 4.18636,-12.2812 9.67839,-12.40102c5.49203,-0.11982 10.06323,5.23803 10.21004,11.9671z" fill="#ffffff"/></g><g data-paper-data="{&quot;index&quot;:null}" stroke="none" stroke-width="0" stroke-linecap="butt"><g data-paper-data="{&quot;index&quot;:null}"><path d="M238.06048,76.04802c4.07951,-0.08901 7.48837,4.50395 7.61392,10.25864c0.12556,5.75471 -3.07973,10.49195 -7.15924,10.58096c-4.07951,0.08901 -7.48838,-4.50393 -7.61394,-10.25864c-0.12556,-5.7547 3.07974,-10.49195 7.15926,-10.58096z" fill="#41563d"/><path d="M230.87408,85.38484c-0.06934,-3.17797 2.86408,-8.93133 6.6357,-9.01362c6.00153,-0.13094 7.51067,5.52549 7.58001,8.70346c0.06934,3.17796 -2.50647,8.29686 -6.27808,8.37915c-3.77161,0.08229 -7.86829,-4.89101 -7.93763,-8.06899z" fill="#5f7d59"/></g><path d="M240.05323,87.32257c-2.41656,0.05272 -4.41832,-1.86355 -4.47104,-4.28011c-0.05272,-2.41656 1.86355,-4.41833 4.28011,-4.47105c2.41656,-0.05272 4.41831,1.86355 4.47104,4.28012c0.05272,2.41656 -1.86354,4.41832 -4.2801,4.47104z" fill="#8ebb85"/><path d="M238.33718,89.78169c-1.33682,0.02917 -2.44418,-1.0309 -2.47335,-2.36772c-0.02917,-1.33682 1.0309,-2.44419 2.36772,-2.47336c1.33682,-0.02917 2.44418,1.03091 2.47335,2.36773c0.02917,1.33682 -1.0309,2.44418 -2.36772,2.47335z" fill="#8ebb85"/></g><path d="M212.77181,92.78097c1.2161,5.47782 2.60868,8.49732 1.1781,9.47551c-1.43057,0.97819 -7.69535,-2.7411 -8.91146,-8.21891c-1.2161,-5.47782 2.80822,-10.24881 4.53398,-10.40752c3.14112,-0.28887 1.98328,3.67309 3.19937,9.15092z" data-paper-data="{&quot;index&quot;:null}" fill="#d9bb9a" stroke="#917c67" stroke-width="4" stroke-linecap="butt"/><g data-paper-data="{&quot;index&quot;:null}"><g><path d="M205.19081,85.37112c-0.19227,2.72663 -4.79634,4.85357 -4.79634,4.85357c0,0 -2.85952,1.46056 -4.14678,-1.17389c-1.04838,-2.14559 -5.12991,-5.54611 -5.12991,-5.54611c0,0 1.53854,-2.74721 3.4962,-5.86325c0.5059,-0.80525 -3.49195,-2.9453 -4.59166,-4.50593c-1.09971,-1.56061 -3.26152,-9.43042 -3.26152,-9.43042c0,0 6.87589,-2.75115 8.37724,-7.33194c0.74496,-2.27293 0.65212,-5.91364 1.19961,-7.3579c3.11933,-8.22869 1.18778,-9.97452 5.3229,-14.33594c0.43214,-0.45579 8.23395,-6.13648 8.62026,-6.54776c6.72854,-7.16345 7.958,-7.56241 18.44305,-8.90461c11.08705,-1.41927 19.18883,-5.36468 25.92462,-2.23034c4.39831,2.04666 15.3809,7.04033 22.95021,9.36732c7.35507,7.40441 10.41751,12.19902 11.45504,21.79693c0.33283,3.07891 -2.14004,5.31015 -0.76367,8.49035c0.62435,1.44259 8.44729,12.30006 8.44729,12.30006c0,0 -1.46398,3.76424 -3.58375,5.27616c-2.10019,1.49797 -4.45626,1.15544 -4.94773,2.31993c-1.07215,2.54027 0.08735,5.07515 -0.24156,6.93545c-0.23929,1.35338 -0.78605,2.08985 -1.6533,3.37275c-1.46391,2.1655 -1.59965,-1.12005 -1.56585,-3.29202c0.0632,-4.05993 -0.98177,-6.91951 -0.95793,-6.26976c-1.54718,0.84255 -0.26552,0.77772 -7.1755,-0.23863c-0.38435,-0.05653 -1.77763,-2.8529 -3.30062,-3.99982c-1.52299,-1.1469 -2.86375,-5.38777 -2.86375,-5.38777c0,0 -10.25599,5.18101 -14.76531,5.70016c-6.50568,0.74898 -13.95577,3.20652 -17.69031,2.92047c-9.12897,-0.69925 -13.21916,-1.66099 -16.82968,-1.65621c-3.36054,0.00444 -9.16662,3.54507 -11.30779,2.65935c0,0 -4.41108,4.50061 -4.66347,8.07979z" fill="#252931" stroke="#14161a" stroke-width="4" stroke-linecap="butt"/><path d="M269.81054,59.44913c-23.28953,10.5069 -45.85203,7.43125 -64.724,9.83131c-3.90679,0.49685 -5.27547,-2.66179 -5.27547,-2.66179c0,0 6.32911,-7.55438 6.11243,-17.48604c-0.10429,-4.77996 5.57503,-15.0045 13.83918,-20.62699c6.86945,-4.67359 21.30772,-5.87743 28.35941,-7.57212c4.56686,-1.09753 4.50217,2.58838 8.65992,2.49767c11.80209,-0.2575 10.96061,7.02019 15.00089,14.43604c2.9407,5.39762 1.35597,20.08035 -1.97237,21.58192z" fill="#494c5e" stroke="none" stroke-width="0" stroke-linecap="butt"/><path d="M259.20062,31.8179c-0.0294,-1.34734 -5.46315,1.85406 -6.12439,0.08461c-0.48531,-1.29865 1.81368,-3.39092 2.34674,-5.38192c0.15341,-0.57297 -0.73559,-2.73069 -2.87871,-3.91559c-1.78374,-0.98619 -4.88831,-1.0269 -4.7971,-1.43416c0.3705,-1.65449 9.10658,-0.47985 10.03921,-0.5002c3.70234,-0.08078 17.35239,9.74573 17.43573,13.5656c0.00506,0.23173 5.35002,19.36395 -0.38476,27.6413c-0.82812,1.19528 -8.28454,1.36906 -8.75075,-0.69206c-0.14657,-0.64801 -4.56284,-1.63365 -3.533,-3.77081c1.40302,-2.9116 9.68042,-5.88334 9.37424,-6.64451c-0.87431,-2.17353 -13.30701,4.90852 -14.56236,1.7476c-1.25536,-3.16093 12.6592,-11.77908 10.49202,-14.08311c-3.06061,1.296 -10.58276,6.78998 -11.69316,5.47925c-3.36492,-3.97199 3.11963,-8.27615 3.03629,-12.09601z" fill="#252931" stroke="none" stroke-width="0" stroke-linecap="butt"/><path d="M216.00581,65.38215c-0.60371,1.20488 1.82868,0.0379 3.70031,0.48365c1.87162,0.44576 8.15882,0.90974 6.75703,2.42078c-0.73919,0.79679 -10.82507,0.08289 -11.42159,0.7817c-1.10079,1.28953 -3.66669,2.45511 -4.5007,2.03725c-2.00709,-1.00564 -10.67752,2.35062 -12.27417,-2.75305c-1.03718,-3.31527 4.5804,-9.70075 5.2544,-11.04591c0.10383,-0.20722 0.93826,-18.48106 9.87668,-23.11862c1.29073,-0.66967 9.53647,-3.33447 8.98533,-1.29441c-0.17327,0.64138 -5.02707,7.22716 -6.93633,8.63527c-2.60111,1.91833 -5.01926,3.56133 -5.10432,4.37735c-0.24287,2.33016 13.8318,-1.04572 13.43649,1.05857c-0.62794,3.34262 -15.61505,7.29258 -14.58396,8.64271c1.17567,1.53943 8.00984,-1.34767 15.01888,-2.99489c5.42833,-1.27574 11.56516,-1.48011 11.4452,-0.37908c-0.11135,1.02215 -1.51862,3.71218 -3.31875,4.66614c-5.23744,2.77556 -15.06074,5.94034 -16.33451,8.48255z" fill="#252931" stroke="none" stroke-width="0" stroke-linecap="butt"/><path d="M277.70286,61.09456c0,0 -5.29909,6.13058 -6.24505,6.55647c-1.89162,0.85166 -5.80417,1.8187 -5.80417,1.8187" fill="none" stroke="#14161a" stroke-width="4" stroke-linecap="round"/><path d="M233.82998,34.60479c-0.65288,-3.10632 2.27926,-6.05804 6.01836,-6.84391c3.73908,-0.78588 9.1498,-1.92596 9.80268,1.18035c0.65288,3.10632 -4.37026,7.80698 -8.10935,8.59285c-3.73908,0.78587 -7.05881,0.17701 -7.71169,-2.92928z" fill="#686c85" stroke="none" stroke-width="0" stroke-linecap="butt"/><path d="M220.72562,40.63278c-0.37695,-1.79351 2.3398,-3.85594 4.49866,-4.30969c2.15886,-0.45374 4.41808,0.20209 4.79502,1.9956c0.37695,1.79351 -1.50712,2.98611 -3.66598,3.43986c-2.15886,0.45374 -5.25076,0.66775 -5.6277,-1.12576z" fill="#686c85" stroke="none" stroke-width="0" stroke-linecap="butt"/><path d="M246.48132,41.24231c-0.64373,-1.71591 0.51968,-2.44034 2.58514,-3.2152c2.06546,-0.77488 3.47476,-2.03516 4.11851,-0.31924c0.64373,1.71591 -1.03839,3.17963 -3.10385,3.95449c-2.06546,0.77488 -2.95604,1.29587 -3.59978,-0.42005z" fill="#686c85" stroke="none" stroke-width="0" stroke-linecap="butt"/></g><path d="M286.85278,69.59406c-1.55928,0.36186 0.22834,3.45357 -0.84858,3.47707c-1.13345,0.02473 -3.03417,-1.97428 -4.38244,-3.45854c-1.72758,-1.90183 -2.54295,-3.02085 -2.56887,-4.20911c-0.02817,-1.29132 0.24781,-0.3193 1.68447,-0.67403c0.91705,-0.22644 2.02689,-4.78844 3.03435,-4.81042c0.95982,-0.02094 0.82068,2.14237 2.20603,4.00679c0.22034,0.29653 1.0779,-6.13773 2.17555,-3.82132c0.60896,1.2851 4.32052,4.36825 5.52597,8.20814c1.20545,3.83989 -3.82813,-1.85197 -4.9541,-0.95117c-1.12597,0.90078 1.88696,2.21529 1.9099,3.26657c0,0 -1.59755,-1.54097 -3.78228,-1.03396z" fill="#494c5e" stroke="none" stroke-width="0" stroke-linecap="butt"/><path d="M279.25029,40.38513c0.49419,0.9799 -0.87606,2.64129 -4.44564,4.44158c-3.56958,1.80029 -4.87727,2.42202 -5.37148,1.44213c-0.4942,-0.97988 1.14747,-3.21508 4.71706,-5.01538c3.56958,-1.80029 4.60584,-1.84823 5.10005,-0.86834z" fill="#494c5e" stroke="none" stroke-width="0" stroke-linecap="butt"/></g><path d="M222.17585,71.04014c0.09528,-3.00105 2.74091,-4.98603 8.23632,-4.93991c5.4954,0.04611 17.39212,1.7268 17.29683,4.72785c-0.09528,3.00105 -7.10133,2.17849 -12.59673,2.13239c-5.4954,-0.04611 -13.03171,1.08072 -12.93643,-1.92032z" data-paper-data="{&quot;index&quot;:null}" fill="#424956" stroke="#14161a" stroke-width="4" stroke-linecap="butt"/><path d="M287.44657,69.86614c0.22609,2.99404 -7.3522,2.19696 -12.84036,2.48271c-5.48816,0.28574 -12.45166,1.41308 -12.67774,-1.58096c-0.22609,-2.99404 11.586,-5.192 17.07417,-5.47776c5.48816,-0.28576 8.21785,1.58195 8.44393,4.57598z" data-paper-data="{&quot;index&quot;:null}" fill="#424956" stroke="#14161a" stroke-width="4" stroke-linecap="butt"/></g><g stroke-linecap="butt"><g><g><path d="M145.16576,147.69082c7.98397,-2.16635 10.55445,-6.95539 12.73313,-7.87808c9.23949,-3.913 33.44223,-11.58343 33.44223,-11.58343c0,0 8.20212,8.00314 8.26882,10.99769c0.09371,4.2085 -9.29681,8.53224 -9.29681,8.53224c0,0 -4.90247,-3.15487 -28.09063,3.24176c-0.75127,0.20727 -5.67698,8.49949 -6.97923,8.15855c-7.32323,-1.91731 -17.79968,-6.03664 -11.44643,-7.76051z" fill="#d9bb9a" stroke="#917c67" stroke-width="4"/><path d="M146.55636,144.2621c1.00801,-0.11921 13.86022,10.72451 13.91333,10.84022c0.31878,0.69449 -2.63888,1.36743 -5.13964,2.5153c-2.50074,1.14789 -4.86035,2.68142 -5.17911,1.98693c-0.31879,-0.6945 -12.4567,-12.6684 -9.95596,-13.81629c2.08417,-0.95666 3.69924,-1.21133 6.36139,-1.52617z" fill="#d9bb9a" stroke="none" stroke-width="0"/><path d="M193.18817,144.17288c-3.84627,1.16663 -12.61986,1.41074 -18.0446,1.913c-2.45586,0.22736 -11.81074,4.78909 -18.95701,8.00875c-0.62203,0.28025 -7.26437,3.99583 -7.61268,3.95846c-0.38339,-0.04113 -15.05902,-9.35697 -5.76515,-11.12977c5.46078,-1.04165 11.79231,-2.43491 16.49255,-4.01892c6.9771,-2.35134 8.47606,-3.7507 18.47452,-6.78332c9.99848,-3.03262 18.33252,-4.82113 19.02364,-2.44893c0.69111,2.37218 6.38718,7.46809 -3.6113,10.50075z" fill="#ffdbb5" stroke="none" stroke-width="0"/></g><path d="M183.13596,125.38285c8.82469,-3.61664 22.70794,-5.52256 22.70794,-5.52256l5.7035,24.21713c0,0 -19.58628,6.85726 -26.89207,9.14c-7.34359,2.29457 -15.69116,1.59626 -15.69116,1.59626c0,0 -17.58446,-0.16101 -19.99323,-2.65525c-2.76574,-2.8639 2.93543,-16.25543 2.93543,-16.25543c0,0 22.20083,-6.81987 31.22955,-10.52012z" fill="#403328" stroke="#292018" stroke-width="4"/></g><g><g><path d="M112.88379,166.91133c1.19839,-3.15338 11.02052,-7.93694 16.82804,-13.07417c6.19628,-5.48113 6.74563,-4.79835 8.28955,-6.59125c2.98842,-2.64956 21.04648,7.36043 19.25907,9.63303c-3.85199,3.43637 -13.15671,16.17625 -20.44345,23.74886c-9.13186,9.49011 -4.18255,2.42149 -5.43522,1.38061c-1.22037,-1.01406 5.05276,-5.10918 3.17771,-6.86136c-1.11433,-1.04134 -4.98167,7.71076 -8.88814,12.60219c-3.12669,3.91502 -7.07642,4.47858 -8.91957,5.38785c-2.2922,1.1308 -3.52313,-1.32576 -4.98258,-3.00064c-1.44291,-1.65597 -3.12104,-2.52238 -4.20693,-2.8256c-4.15158,-1.15933 1.7005,-10.87157 5.32146,-20.39951z" fill="#d9bb9a" stroke="#917c67" stroke-width="4"/><path d="M151.27131,156.09422c-0.36188,0.13309 0.32865,1.45607 -6.67791,8.9147c-1.72625,1.83763 -2.49074,3.58916 -4.06417,4.62363c-3.0999,2.03808 -5.66852,1.27787 -7.14858,0.64371c-1.86264,-0.79812 -9.42055,10.56754 -13.34063,15.64895c-3.80789,4.93599 -3.52812,-2.28891 -4.56183,-1.58059c-4.46445,3.05908 -1.74387,-6.16627 -4.74923,-2.84596c-3.68601,4.07233 2.01753,-8.58617 5.65022,-14.19521c1.3549,-2.09199 6.6288,-3.45948 10.61616,-6.37495c3.98737,-2.91545 5.05348,-4.54551 12.59842,-10.25456c4.43315,-3.35446 14.1051,4.52757 11.67753,5.42027z" fill="#ffdbb5" stroke="none" stroke-width="0"/></g><path d="M121.68772,157.31971l31.8443,-22.30513l20.31987,11.5157l-28.20407,26.63589c0,0 -4.76999,-6.35127 -11.71737,-9.54967c-6.52975,-3.00613 -12.24272,-6.29679 -12.24272,-6.29679z" fill="#403328" stroke="#292018" stroke-width="4"/><path d="M151.19942,141.2594c0,0 0.26929,-2.21374 1.28055,-3.27172c0.9926,-1.03844 4.73209,-3.01864 4.73209,-3.01864l24.77749,11.73793l-12.89717,7.83591c0,0 -6.75186,0.32242 -8.66665,-1.09908c-3.27937,-2.43456 -9.22631,-12.18439 -9.22631,-12.18439z" fill="#403328" stroke="none" stroke-width="0"/></g><path d="M207.84577,142.4731c-3.25248,-0.10924 -3.92919,-20.59072 -3.92919,-20.59072c0,0 10.93813,-1.24711 11.96147,-0.90728c1.08381,0.35991 4.6811,3.01676 4.6811,3.01676c0,0 -0.63594,9.80294 -3.73204,14.82364c-2.56547,4.16023 -7.50752,3.7071 -8.98134,3.6576z" fill="#403328" stroke="none" stroke-width="NaN"/></g></g></g></svg>