<svg xmlns="http://www.w3.org/2000/svg" xmlns:xlink="http://www.w3.org/1999/xlink" version="1.1" width="390.6395" height="431.43488" viewBox="0,0,390.6395,431.43488"><defs><linearGradient x1="475.23264" y1="245.81786" x2="453.58979" y2="171.51572" gradientUnits="userSpaceOnUse" id="color-1"><stop offset="0" stop-color="#000000"/><stop offset="1" stop-color="#0e0e0e"/></linearGradient><linearGradient x1="490.18954" y1="202.99674" x2="502.99765" y2="200.08418" gradientUnits="userSpaceOnUse" id="color-2"><stop offset="0" stop-color="#000000"/><stop offset="1" stop-color="#666666"/></linearGradient><linearGradient x1="454.76312" y1="231.70787" x2="499.91563" y2="221.44026" gradientUnits="userSpaceOnUse" id="color-3"><stop offset="0" stop-color="#151515"/><stop offset="1" stop-color="#212121"/></linearGradient><linearGradient x1="449.63425" y1="200.39488" x2="468.88802" y2="196.01659" gradientUnits="userSpaceOnUse" id="color-4"><stop offset="0" stop-color="#292929"/><stop offset="1" stop-color="#292929"/></linearGradient><linearGradient x1="170.57557" y1="399.83215" x2="244.58535" y2="399.83215" gradientUnits="userSpaceOnUse" id="color-5"><stop offset="0" stop-color="#000000"/><stop offset="1" stop-color="#0e0e0e"/></linearGradient><linearGradient x1="207.49636" y1="422.56271" x2="207.49636" y2="433.04091" gradientUnits="userSpaceOnUse" id="color-6"><stop offset="0" stop-color="#000000"/><stop offset="1" stop-color="#666666"/></linearGradient><linearGradient x1="186.14464" y1="404.65189" x2="201.57757" y2="404.65189" gradientUnits="userSpaceOnUse" id="color-7"><stop offset="0" stop-color="#151515"/><stop offset="1" stop-color="#212121"/></linearGradient><linearGradient x1="240.94608" y1="181.70543" x2="250.27909" y2="230.8294" gradientUnits="userSpaceOnUse" id="color-8"><stop offset="0" stop-color="#ffffff"/><stop offset="1" stop-color="#cccccc"/></linearGradient><radialGradient cx="169.65954" cy="237.04378" r="3.3826" gradientUnits="userSpaceOnUse" id="color-9"><stop offset="0" stop-color="#cccccc"/><stop offset="1" stop-color="#7f7f7f"/></radialGradient><radialGradient cx="167.79419" cy="240.08122" r="2.923" gradientUnits="userSpaceOnUse" id="color-10"><stop offset="0" stop-color="#cccccc"/><stop offset="1" stop-color="#7f7f7f"/></radialGradient><radialGradient cx="166.88866" cy="244.13433" r="3.62643" gradientUnits="userSpaceOnUse" id="color-11"><stop offset="0" stop-color="#cccccc"/><stop offset="1" stop-color="#7f7f7f"/></radialGradient><radialGradient cx="168.97547" cy="247.67745" r="3.62643" gradientUnits="userSpaceOnUse" id="color-12"><stop offset="0" stop-color="#cccccc"/><stop offset="1" stop-color="#7f7f7f"/></radialGradient><radialGradient cx="172.26501" cy="250.86876" r="3.40976" gradientUnits="userSpaceOnUse" id="color-13"><stop offset="0" stop-color="#cccccc"/><stop offset="1" stop-color="#7f7f7f"/></radialGradient><radialGradient cx="174.14386" cy="254.72838" r="3.13967" gradientUnits="userSpaceOnUse" id="color-14"><stop offset="0" stop-color="#cccccc"/><stop offset="1" stop-color="#7f7f7f"/></radialGradient><radialGradient cx="175.90382" cy="257.96092" r="3.59958" gradientUnits="userSpaceOnUse" id="color-15"><stop offset="0" stop-color="#cccccc"/><stop offset="1" stop-color="#7f7f7f"/></radialGradient><radialGradient cx="177.15175" cy="262.29195" r="3.3829" gradientUnits="userSpaceOnUse" id="color-16"><stop offset="0" stop-color="#cccccc"/><stop offset="1" stop-color="#7f7f7f"/></radialGradient><radialGradient cx="178.5012" cy="266.15359" r="3.16622" gradientUnits="userSpaceOnUse" id="color-17"><stop offset="0" stop-color="#cccccc"/><stop offset="1" stop-color="#7f7f7f"/></radialGradient><radialGradient cx="180.83512" cy="269.64997" r="3.8425" gradientUnits="userSpaceOnUse" id="color-18"><stop offset="0" stop-color="#cccccc"/><stop offset="1" stop-color="#7f7f7f"/></radialGradient><radialGradient cx="184.39107" cy="272.37165" r="3.46438" gradientUnits="userSpaceOnUse" id="color-19"><stop offset="0" stop-color="#cccccc"/><stop offset="1" stop-color="#7f7f7f"/></radialGradient><radialGradient cx="186.51951" cy="275.21461" r="3.81626" gradientUnits="userSpaceOnUse" id="color-20"><stop offset="0" stop-color="#cccccc"/><stop offset="1" stop-color="#7f7f7f"/></radialGradient><radialGradient cx="172.35443" cy="230.12935" r="5.72037" gradientUnits="userSpaceOnUse" id="color-21"><stop offset="0" stop-color="#cccccc"/><stop offset="1" stop-color="#7f7f7f"/></radialGradient><radialGradient cx="182.28166" cy="230.71847" r="3.3826" gradientUnits="userSpaceOnUse" id="color-22"><stop offset="0" stop-color="#cccccc"/><stop offset="1" stop-color="#7f7f7f"/></radialGradient><radialGradient cx="184.87889" cy="234.46648" r="3.3826" gradientUnits="userSpaceOnUse" id="color-23"><stop offset="0" stop-color="#cccccc"/><stop offset="1" stop-color="#7f7f7f"/></radialGradient><radialGradient cx="186.50113" cy="238.87098" r="3.3826" gradientUnits="userSpaceOnUse" id="color-24"><stop offset="0" stop-color="#cccccc"/><stop offset="1" stop-color="#7f7f7f"/></radialGradient><radialGradient cx="187.45171" cy="243.87431" r="3.3826" gradientUnits="userSpaceOnUse" id="color-25"><stop offset="0" stop-color="#cccccc"/><stop offset="1" stop-color="#7f7f7f"/></radialGradient><radialGradient cx="188.49617" cy="248.54564" r="3.3826" gradientUnits="userSpaceOnUse" id="color-26"><stop offset="0" stop-color="#cccccc"/><stop offset="1" stop-color="#7f7f7f"/></radialGradient><radialGradient cx="189.11467" cy="253.45498" r="3.3826" gradientUnits="userSpaceOnUse" id="color-27"><stop offset="0" stop-color="#cccccc"/><stop offset="1" stop-color="#7f7f7f"/></radialGradient><radialGradient cx="189.40133" cy="258.27025" r="3.3826" gradientUnits="userSpaceOnUse" id="color-28"><stop offset="0" stop-color="#cccccc"/><stop offset="1" stop-color="#7f7f7f"/></radialGradient><radialGradient cx="189.93342" cy="262.72484" r="3.3826" gradientUnits="userSpaceOnUse" id="color-29"><stop offset="0" stop-color="#cccccc"/><stop offset="1" stop-color="#7f7f7f"/></radialGradient><radialGradient cx="190.40041" cy="267.66306" r="3.3826" gradientUnits="userSpaceOnUse" id="color-30"><stop offset="0" stop-color="#cccccc"/><stop offset="1" stop-color="#7f7f7f"/></radialGradient><radialGradient cx="189.95751" cy="272.77411" r="3.3826" gradientUnits="userSpaceOnUse" id="color-31"><stop offset="0" stop-color="#cccccc"/><stop offset="1" stop-color="#7f7f7f"/></radialGradient><radialGradient cx="191.19861" cy="288.3582" r="3.46438" gradientUnits="userSpaceOnUse" id="color-32"><stop offset="0" stop-color="#cccccc"/><stop offset="1" stop-color="#7f7f7f"/></radialGradient><radialGradient cx="191.49988" cy="292.33375" r="3.81626" gradientUnits="userSpaceOnUse" id="color-33"><stop offset="0" stop-color="#cccccc"/><stop offset="1" stop-color="#7f7f7f"/></radialGradient><radialGradient cx="193.48398" cy="296.29594" r="3.3826" gradientUnits="userSpaceOnUse" id="color-34"><stop offset="0" stop-color="#cccccc"/><stop offset="1" stop-color="#7f7f7f"/></radialGradient><linearGradient x1="267.9974" y1="234.3961" x2="273.01249" y2="266.76336" gradientUnits="userSpaceOnUse" id="color-35"><stop offset="0" stop-color="#ff0000"/><stop offset="1" stop-color="#ff0000" stop-opacity="0"/></linearGradient><linearGradient x1="262.31058" y1="235.31566" x2="267.96791" y2="234.24084" gradientUnits="userSpaceOnUse" id="color-36"><stop offset="0" stop-color="#ff0000"/><stop offset="1" stop-color="#ff0000" stop-opacity="0"/></linearGradient><linearGradient x1="221.5203" y1="214.96443" x2="205.04329" y2="217.67708" gradientUnits="userSpaceOnUse" id="color-37"><stop offset="0" stop-color="#7f7f7f"/><stop offset="1" stop-color="#b2b2b2"/></linearGradient><linearGradient x1="225.46157" y1="225.64763" x2="213.63518" y2="227.8945" gradientUnits="userSpaceOnUse" id="color-38"><stop offset="0" stop-color="#000000"/><stop offset="1" stop-color="#353935"/></linearGradient><linearGradient x1="203.44965" y1="229.82964" x2="214.06285" y2="227.81326" gradientUnits="userSpaceOnUse" id="color-39"><stop offset="0" stop-color="#000000"/><stop offset="1" stop-color="#353935"/></linearGradient><radialGradient cx="189.55098" cy="225.70749" r="27.0916" gradientUnits="userSpaceOnUse" id="color-40"><stop offset="0" stop-color="#666666"/><stop offset="1" stop-color="#000000"/></radialGradient><radialGradient cx="189.65711" cy="234.83798" r="11.6423" gradientUnits="userSpaceOnUse" id="color-41"><stop offset="0" stop-color="#370000"/><stop offset="1" stop-color="#000000"/></radialGradient><radialGradient cx="195.52031" cy="237.58142" r="9.93017" gradientUnits="userSpaceOnUse" id="color-42"><stop offset="0" stop-color="#370000"/><stop offset="1" stop-color="#000000"/></radialGradient><radialGradient cx="187.29126" cy="228.44771" r="9.18816" gradientUnits="userSpaceOnUse" id="color-43"><stop offset="0" stop-color="#370000"/><stop offset="1" stop-color="#000000"/></radialGradient><radialGradient cx="198.42911" cy="230.87035" r="8.08038" gradientUnits="userSpaceOnUse" id="color-44"><stop offset="0" stop-color="#370000"/><stop offset="1" stop-color="#000000"/></radialGradient><radialGradient cx="193.42221" cy="225.8999" r="6.0812" gradientUnits="userSpaceOnUse" id="color-45"><stop offset="0" stop-color="#370000"/><stop offset="1" stop-color="#000000"/></radialGradient><radialGradient cx="193.30948" cy="230.30689" r="2.96621" gradientUnits="userSpaceOnUse" id="color-46"><stop offset="0" stop-color="#ff0000"/><stop offset="1" stop-color="#000000"/></radialGradient><linearGradient x1="270.25082" y1="194.68826" x2="489.8115" y2="180.79199" gradientUnits="userSpaceOnUse" id="color-47"><stop offset="0" stop-color="#000000" stop-opacity="0"/><stop offset="1" stop-color="#000000"/></linearGradient><linearGradient x1="354.0361" y1="244.2119" x2="332.3933" y2="169.9097" gradientUnits="userSpaceOnUse" id="color-1-,0,0,1,-121.1965,-1.606"><stop offset="0" stop-color="#000000"/><stop offset="1" stop-color="#0e0e0e"/></linearGradient><linearGradient x1="368.993" y1="201.3907" x2="381.8012" y2="198.4782" gradientUnits="userSpaceOnUse" id="color-2-,0,0,1,-121.1965,-1.606"><stop offset="0" stop-color="#000000"/><stop offset="1" stop-color="#666666"/></linearGradient><linearGradient x1="333.5666" y1="230.1019" x2="378.7191" y2="219.8343" gradientUnits="userSpaceOnUse" id="color-3-,0,0,1,-121.1965,-1.606"><stop offset="0" stop-color="#151515"/><stop offset="1" stop-color="#212121"/></linearGradient><linearGradient x1="328.4377" y1="198.7889" x2="347.6915" y2="194.4106" gradientUnits="userSpaceOnUse" id="color-4-,0,0,1,-121.1965,-1.606"><stop offset="0" stop-color="#292929"/><stop offset="1" stop-color="#292929"/></linearGradient><linearGradient x1="49.3791" y1="398.2262" x2="123.3889" y2="398.2262" gradientUnits="userSpaceOnUse" id="color-5-,0,0,1,-121.1965,-1.606"><stop offset="0" stop-color="#000000"/><stop offset="1" stop-color="#0e0e0e"/></linearGradient><linearGradient x1="86.2999" y1="420.9567" x2="86.2999" y2="431.4349" gradientUnits="userSpaceOnUse" id="color-6-,0,0,1,-121.1965,-1.606"><stop offset="0" stop-color="#000000"/><stop offset="1" stop-color="#666666"/></linearGradient><linearGradient x1="64.9481" y1="403.0459" x2="80.3811" y2="403.0459" gradientUnits="userSpaceOnUse" id="color-7-,0,0,1,-121.1965,-1.606"><stop offset="0" stop-color="#151515"/><stop offset="1" stop-color="#212121"/></linearGradient><linearGradient x1="119.7496" y1="180.0994" x2="129.0826" y2="229.2234" gradientUnits="userSpaceOnUse" id="color-8-,0,0,1,-121.1965,-1.606"><stop offset="0" stop-color="#ffffff"/><stop offset="1" stop-color="#cccccc"/></linearGradient><radialGradient cx="48.463" cy="235.4378" r="3.3826" gradientUnits="userSpaceOnUse" id="color-9-,0,0,1,-121.1965,-1.606"><stop offset="0" stop-color="#cccccc"/><stop offset="1" stop-color="#7f7f7f"/></radialGradient><radialGradient cx="46.5977" cy="238.4752" r="2.923" gradientUnits="userSpaceOnUse" id="color-10-,0,0,1,-121.1965,-1.606"><stop offset="0" stop-color="#cccccc"/><stop offset="1" stop-color="#7f7f7f"/></radialGradient><radialGradient cx="45.6922" cy="242.5283" r="3.6264" gradientUnits="userSpaceOnUse" id="color-11-,0,0,1,-121.1965,-1.606"><stop offset="0" stop-color="#cccccc"/><stop offset="1" stop-color="#7f7f7f"/></radialGradient><radialGradient cx="47.779" cy="246.0714" r="3.6264" gradientUnits="userSpaceOnUse" id="color-12-,0,0,1,-121.1965,-1.606"><stop offset="0" stop-color="#cccccc"/><stop offset="1" stop-color="#7f7f7f"/></radialGradient><radialGradient cx="51.0685" cy="249.2628" r="3.4098" gradientUnits="userSpaceOnUse" id="color-13-,0,0,1,-121.1965,-1.606"><stop offset="0" stop-color="#cccccc"/><stop offset="1" stop-color="#7f7f7f"/></radialGradient><radialGradient cx="52.9474" cy="253.1224" r="3.1397" gradientUnits="userSpaceOnUse" id="color-14-,0,0,1,-121.1965,-1.606"><stop offset="0" stop-color="#cccccc"/><stop offset="1" stop-color="#7f7f7f"/></radialGradient><radialGradient cx="54.7073" cy="256.3549" r="3.5996" gradientUnits="userSpaceOnUse" id="color-15-,0,0,1,-121.1965,-1.606"><stop offset="0" stop-color="#cccccc"/><stop offset="1" stop-color="#7f7f7f"/></radialGradient><radialGradient cx="55.9552" cy="260.6859" r="3.3829" gradientUnits="userSpaceOnUse" id="color-16-,0,0,1,-121.1965,-1.606"><stop offset="0" stop-color="#cccccc"/><stop offset="1" stop-color="#7f7f7f"/></radialGradient><radialGradient cx="57.3047" cy="264.5476" r="3.1662" gradientUnits="userSpaceOnUse" id="color-17-,0,0,1,-121.1965,-1.606"><stop offset="0" stop-color="#cccccc"/><stop offset="1" stop-color="#7f7f7f"/></radialGradient><radialGradient cx="59.6386" cy="268.044" r="3.8425" gradientUnits="userSpaceOnUse" id="color-18-,0,0,1,-121.1965,-1.606"><stop offset="0" stop-color="#cccccc"/><stop offset="1" stop-color="#7f7f7f"/></radialGradient><radialGradient cx="63.1946" cy="270.7656" r="3.4644" gradientUnits="userSpaceOnUse" id="color-19-,0,0,1,-121.1965,-1.606"><stop offset="0" stop-color="#cccccc"/><stop offset="1" stop-color="#7f7f7f"/></radialGradient><radialGradient cx="65.323" cy="273.6086" r="3.8163" gradientUnits="userSpaceOnUse" id="color-20-,0,0,1,-121.1965,-1.606"><stop offset="0" stop-color="#cccccc"/><stop offset="1" stop-color="#7f7f7f"/></radialGradient><radialGradient cx="51.1579" cy="228.5233" r="5.7204" gradientUnits="userSpaceOnUse" id="color-21-,0,0,1,-121.1965,-1.606"><stop offset="0" stop-color="#cccccc"/><stop offset="1" stop-color="#7f7f7f"/></radialGradient><radialGradient cx="61.0852" cy="229.1125" r="3.3826" gradientUnits="userSpaceOnUse" id="color-22-,0,0,1,-121.1965,-1.606"><stop offset="0" stop-color="#cccccc"/><stop offset="1" stop-color="#7f7f7f"/></radialGradient><radialGradient cx="63.6824" cy="232.8605" r="3.3826" gradientUnits="userSpaceOnUse" id="color-23-,0,0,1,-121.1965,-1.606"><stop offset="0" stop-color="#cccccc"/><stop offset="1" stop-color="#7f7f7f"/></radialGradient><radialGradient cx="65.3046" cy="237.265" r="3.3826" gradientUnits="userSpaceOnUse" id="color-24-,0,0,1,-121.1965,-1.606"><stop offset="0" stop-color="#cccccc"/><stop offset="1" stop-color="#7f7f7f"/></radialGradient><radialGradient cx="66.2552" cy="242.2683" r="3.3826" gradientUnits="userSpaceOnUse" id="color-25-,0,0,1,-121.1965,-1.606"><stop offset="0" stop-color="#cccccc"/><stop offset="1" stop-color="#7f7f7f"/></radialGradient><radialGradient cx="67.2997" cy="246.9396" r="3.3826" gradientUnits="userSpaceOnUse" id="color-26-,0,0,1,-121.1965,-1.606"><stop offset="0" stop-color="#cccccc"/><stop offset="1" stop-color="#7f7f7f"/></radialGradient><radialGradient cx="67.9182" cy="251.849" r="3.3826" gradientUnits="userSpaceOnUse" id="color-27-,0,0,1,-121.1965,-1.606"><stop offset="0" stop-color="#cccccc"/><stop offset="1" stop-color="#7f7f7f"/></radialGradient><radialGradient cx="68.2048" cy="256.6642" r="3.3826" gradientUnits="userSpaceOnUse" id="color-28-,0,0,1,-121.1965,-1.606"><stop offset="0" stop-color="#cccccc"/><stop offset="1" stop-color="#7f7f7f"/></radialGradient><radialGradient cx="68.7369" cy="261.1188" r="3.3826" gradientUnits="userSpaceOnUse" id="color-29-,0,0,1,-121.1965,-1.606"><stop offset="0" stop-color="#cccccc"/><stop offset="1" stop-color="#7f7f7f"/></radialGradient><radialGradient cx="69.2039" cy="266.0571" r="3.3826" gradientUnits="userSpaceOnUse" id="color-30-,0,0,1,-121.1965,-1.606"><stop offset="0" stop-color="#cccccc"/><stop offset="1" stop-color="#7f7f7f"/></radialGradient><radialGradient cx="68.761" cy="271.1681" r="3.3826" gradientUnits="userSpaceOnUse" id="color-31-,0,0,1,-121.1965,-1.606"><stop offset="0" stop-color="#cccccc"/><stop offset="1" stop-color="#7f7f7f"/></radialGradient><radialGradient cx="70.0021" cy="286.7522" r="3.4644" gradientUnits="userSpaceOnUse" id="color-32-,0,0,1,-121.1965,-1.606"><stop offset="0" stop-color="#cccccc"/><stop offset="1" stop-color="#7f7f7f"/></radialGradient><radialGradient cx="70.3034" cy="290.7278" r="3.8163" gradientUnits="userSpaceOnUse" id="color-33-,0,0,1,-121.1965,-1.606"><stop offset="0" stop-color="#cccccc"/><stop offset="1" stop-color="#7f7f7f"/></radialGradient><radialGradient cx="72.2875" cy="294.6899" r="3.3826" gradientUnits="userSpaceOnUse" id="color-34-,0,0,1,-121.1965,-1.606"><stop offset="0" stop-color="#cccccc"/><stop offset="1" stop-color="#7f7f7f"/></radialGradient><linearGradient x1="146.8009" y1="232.7901" x2="151.816" y2="265.1574" gradientUnits="userSpaceOnUse" id="color-35-,0,0,1,-121.1965,-1.606"><stop offset="0" stop-color="#ff0000"/><stop offset="1" stop-color="#ff0000" stop-opacity="0"/></linearGradient><linearGradient x1="141.1141" y1="233.7097" x2="146.7714" y2="232.6348" gradientUnits="userSpaceOnUse" id="color-36-,0,0,1,-121.1965,-1.606"><stop offset="0" stop-color="#ff0000"/><stop offset="1" stop-color="#ff0000" stop-opacity="0"/></linearGradient><linearGradient x1="100.3238" y1="213.3584" x2="83.8468" y2="216.0711" gradientUnits="userSpaceOnUse" id="color-37-,0,0,1,-121.1965,-1.606"><stop offset="0" stop-color="#7f7f7f"/><stop offset="1" stop-color="#b2b2b2"/></linearGradient><linearGradient x1="104.2651" y1="224.0416" x2="92.4387" y2="226.2885" gradientUnits="userSpaceOnUse" id="color-38-,0,0,1,-121.1965,-1.606"><stop offset="0" stop-color="#000000"/><stop offset="1" stop-color="#353935"/></linearGradient><linearGradient x1="82.2531" y1="228.2236" x2="92.8664" y2="226.2073" gradientUnits="userSpaceOnUse" id="color-39-,0,0,1,-121.1965,-1.606"><stop offset="0" stop-color="#000000"/><stop offset="1" stop-color="#353935"/></linearGradient><radialGradient cx="68.3545" cy="224.1015" r="27.0916" gradientUnits="userSpaceOnUse" id="color-40-,0,0,1,-121.1965,-1.606"><stop offset="0" stop-color="#666666"/><stop offset="1" stop-color="#000000"/></radialGradient><radialGradient cx="68.4606" cy="233.232" r="11.6423" gradientUnits="userSpaceOnUse" id="color-41-,0,0,1,-121.1965,-1.606"><stop offset="0" stop-color="#370000"/><stop offset="1" stop-color="#000000"/></radialGradient><radialGradient cx="74.3238" cy="235.9754" r="9.9302" gradientUnits="userSpaceOnUse" id="color-42-,0,0,1,-121.1965,-1.606"><stop offset="0" stop-color="#370000"/><stop offset="1" stop-color="#000000"/></radialGradient><radialGradient cx="66.0948" cy="226.8417" r="9.1882" gradientUnits="userSpaceOnUse" id="color-43-,0,0,1,-121.1965,-1.606"><stop offset="0" stop-color="#370000"/><stop offset="1" stop-color="#000000"/></radialGradient><radialGradient cx="77.2326" cy="229.2644" r="8.0804" gradientUnits="userSpaceOnUse" id="color-44-,0,0,1,-121.1965,-1.606"><stop offset="0" stop-color="#370000"/><stop offset="1" stop-color="#000000"/></radialGradient><radialGradient cx="72.2257" cy="224.2939" r="6.0812" gradientUnits="userSpaceOnUse" id="color-45-,0,0,1,-121.1965,-1.606"><stop offset="0" stop-color="#370000"/><stop offset="1" stop-color="#000000"/></radialGradient><radialGradient cx="72.113" cy="228.7009" r="2.9662" gradientUnits="userSpaceOnUse" id="color-46-,0,0,1,-121.1965,-1.606"><stop offset="0" stop-color="#ff0000"/><stop offset="1" stop-color="#000000"/></radialGradient></defs><g><g data-paper-data="{&quot;isPaintingLayer&quot;:true}" fill-rule="nonzero" stroke-linejoin="miter" stroke-miterlimit="10" stroke-dasharray="" stroke-dashoffset="0" style="mix-blend-mode: normal"><g><path d="M 138.8539 159.9088 C 131.6617 163.1762 124.8605 147.1509 125.2282 138.8916 C 125.7296 127.7836 136.0934 119.7499 141.0428 109.4825 C 146.3656 98.4817 147.3721 83.9578 157.0033 76.4232 C 163.2851 71.5241 177.8374 70.6427 179.7293 77.8338 C 183.8658 91.0281 175.2388 105.2186 169.1304 117.4169 C 161.3749 132.9081 153.6129 152.4389 138.8539 159.9088 Z " data-paper-data="{&quot;origRot&quot;:0}" fill="#000000" stroke="#000000" stroke-linecap="round" stroke-width="2.5"/><g data-paper-data="{&quot;origRot&quot;:0}"><path d="M 174.5009 93.4548 C 172.0867 96.9006 164.6229 98.3395 162.7208 94.9944 C 158.2105 87.7461 161.198 78.1333 160.2263 69.8756 C 159.7938 66.182 157.9417 62.5569 157.7317 58.9821 C 157.4477 54.1244 155.1933 47.5657 158.9298 44.4057 C 162.8331 41.086 169.384 44.1684 174.334 45.5872 C 178.497 46.782 183.8087 48.2561 186.3096 52.0052 C 187.9632 55.0828 185.8803 59.1865 184.6045 62.4798 C 183.25 65.9781 179.1323 68.12 177.9401 71.7168 C 175.6468 78.6576 178.6727 87.4368 174.501 93.4549 Z " fill="#ffffff" stroke="#ffffff" stroke-linecap="round" stroke-width="2.5"/><path d="M 160.5453 67.6693 C 160.5453 67.6693 154.0095 63.6075 151.7174 60.6249 C 149.4681 57.6991 147.8367 54.1586 146.9526 50.5694 C 146.5273 47.7534 146.3057 44.3467 147.9268 42.0438 C 149.2554 40.1699 152.3228 40.5681 154.5817 40.1828 C 155.2657 40.0657 156.5304 40.9135 156.5304 40.9135 " fill="none" stroke="#353935" stroke-linecap="round" stroke-width="2.5"/><path d="M 149.5926 57.341 C 147.5574 52.25 146.8618 46.4942 148.7248 41.6343 C 149.3247 39.2329 154.3607 38.1284 155.5066 39.9095 C 157.249 42.6504 153.7443 46.8044 154.7369 50.0234 C 155.5393 52.6112 158.4799 53.8739 159.7744 56.269 C 161.1004 57.8065 162.15 59.6315 162.5084 61.6863 C 162.7643 63.1 163.0843 65.1349 162.1812 65.9736 C 161.2783 66.812 159.1082 66.7239 157.8816 65.9831 C 154.5244 63.9487 151.0539 61.0543 149.5926 57.341 Z " fill="#353935" stroke="none" stroke-linecap="round" stroke-width="2.5"/><path d="M 170.974 67.0388 C 168.5079 67.2189 165.9384 66.2246 163.5812 64.692 C 161.9662 63.9069 159.8978 62.7667 159.3403 60.2401 C 158.6349 56.8671 158.2057 51.5354 160.3386 49.7939 C 163.1603 47.4999 166.8436 50.2006 170.0442 50.9351 C 173.8191 51.8398 179.0119 50.541 181.871 54.4516 C 183.549 56.7812 180.6881 61.9693 178.761 64.3123 C 176.7162 66.7991 173.6467 66.8753 170.974 67.0388 Z " fill="#000000" stroke="none" stroke-linecap="round" stroke-width="2.5"/><g stroke-linecap="round"><path d="M 155.0598 55.3573 C 153.5171 52.886 154.6925 48.7324 154.99 45.5533 C 155.2907 42.4817 154.987 38.642 156.6686 36.4742 C 158.1376 34.5821 161.254 34.1078 162.5564 36.0153 C 164.1383 38.3345 163.4601 42.4362 163.3339 45.6877 C 163.0349 49.1609 163.297 53.6365 161.2809 55.8877 C 159.5681 57.8011 156.3107 57.4757 155.0598 55.3573 Z " stroke-width="2.5" fill="#353935" stroke="none"/><path d="M 162.6708 56.281 C 161.1281 53.8096 162.3035 49.656 162.601 46.4769 C 162.9018 43.4054 162.598 39.5656 164.2796 37.3978 C 165.7486 35.5057 168.865 35.0314 170.1674 36.9389 C 171.7493 39.2581 171.0711 43.3598 170.9449 46.6113 C 170.6459 50.0846 170.908 54.5601 168.8919 56.8114 C 167.1791 58.7248 163.9217 58.3994 162.6708 56.2809 Z " stroke-width="2.5" fill="#353935" stroke="none"/><path d="M 170.7182 57.2199 C 169.1755 54.7485 170.3508 50.5949 170.6484 47.4158 C 170.9491 44.3443 170.6454 40.5045 172.327 38.3367 C 173.796 36.4446 176.9123 35.9703 178.2148 37.8778 C 179.7967 40.197 179.1185 44.2987 178.9922 47.5502 C 178.6933 51.0235 178.9554 55.499 176.9393 57.7502 C 175.2264 59.6636 171.969 59.3382 170.7181 57.2198 Z " stroke-width="2.5" fill="#353935" stroke="none"/><path d="M 179.1273 57.1889 C 177.5846 54.7175 178.76 50.5639 179.0575 47.3848 C 179.3582 44.3133 179.0545 40.4735 180.7361 38.3057 C 182.2051 36.4136 185.3215 35.9393 186.6239 37.8468 C 188.2058 40.166 187.5276 44.2677 187.4014 47.5193 C 187.1024 50.9925 187.3645 55.468 185.3484 57.7193 C 183.6356 59.6327 180.3782 59.3073 179.1273 57.1888 Z " stroke-width="2.5" fill="#353935" stroke="none"/></g><path d="" fill="#eac18d" stroke="none" stroke-linecap="butt" stroke-width="2.5" transform="matrix(1,0,0,1,-121.1965,-1.606)"/></g><path d="M 95.5418 86.4569 C 96.1786 81.1151 106.0417 77.379 110.6714 80.8288 C 120.5403 88.2634 122.8232 102.5528 129.4466 112.7746 C 136.6328 124.8149 151.7654 133.8629 152.0718 147.7086 C 152.244 156.0914 137.332 163.5674 129.0222 160.0915 C 117.2182 155.0194 111.7664 140.3923 105.9656 128.1077 C 99.8709 115.1763 93.7615 100.6365 95.5418 86.4568 Z " data-paper-data="{&quot;origRot&quot;:0}" fill="#000000" stroke="#000000" stroke-linecap="round" stroke-width="2.5"/><path d="M 151.9348 149.6747 C 147.9517 155.0837 140.0757 161.3679 132.9053 159.9678 C 127.3901 158.3083 124.6493 149.1871 125.8276 143.3769 C 128.1301 132.0634 139.2504 124.3157 143.3784 113.4566 C 148.1937 102.5578 146.1255 89.006 152.3893 78.7529 C 155.4196 73.815 163.32 73.0696 169.0742 73.7845 C 173.5844 74.3491 180.1267 77.674 181.0796 82.5142 C 182.3558 89.0001 178.8231 95.947 176.0084 102.0444 C 168.6307 118.0442 162.4609 135.3583 151.9349 149.6747 Z " data-paper-data="{&quot;origRot&quot;:0}" fill="#ffffff" stroke="none" stroke-linecap="round" stroke-width="2.5"/><path d="M 94.9997 88.3446 C 95.3823 82.9175 103.6563 74.7534 107.7614 78.1324 C 117.0171 85.7611 116.2815 100.7193 122.8828 110.9405 C 130.335 123.4796 147.4073 131.5034 149.6762 146.0182 C 150.9022 153.9015 137.1486 163.3918 129.9929 159.5058 C 116.6426 153.0953 110.8874 136.8193 104.1223 123.1421 C 98.8173 112.4035 94.1679 100.1652 94.9997 88.3446 Z " data-paper-data="{&quot;origRot&quot;:0}" fill="#ffffff" stroke="none" stroke-linecap="round" stroke-width="2.5"/></g><path d="M 234.0566 234.6422 C 223.5089 229.3649 209.5993 210.4278 220.5159 206.206 C 254.3253 193.1715 295.1776 189.7439 330.7958 196.7678 C 343.4063 199.2458 345.1111 222.5333 335.0388 229.7319 C 318.8204 240.9048 297.4072 234.8964 278.482 235.7586 C 263.3882 236.4559 246.4154 241.0469 234.0566 234.6422 Z " data-paper-data="{&quot;origRot&quot;:0}" fill="#ffffff" stroke="#000000" stroke-width="2.5" stroke-linecap="round"/><path d="M 106.8641 258.594 L 95.4977 216.6663 C 95.4977 216.6663 129.9307 204.9254 155.4613 201.6031 C 174.7791 199.0892 214.9718 198.4413 214.9718 198.4413 L 207.1011 237.3972 C 207.1011 237.3972 163.7078 247.225 155.1765 250.6112 C 129.5827 260.7697 106.864 258.594 106.864 258.594 Z " data-paper-data="{&quot;origRot&quot;:0}" fill="#ffffff" stroke="#000000" stroke-width="2.5" stroke-linecap="round"/><g><path d="M 390.4171 234.5896 C 390.2027 236.9887 385.9333 236.5425 383.4812 237.0184 C 373.1464 238.3023 363.0645 239.9845 352.7268 240.5401 C 345.7156 240.915 323.8034 243.1424 312.7899 239.4686 C 306.3913 237.3341 329.7791 234.6379 331.6799 228.3606 C 335.1852 216.8612 325.6745 204.8711 326.8631 193.1797 C 327.1586 190.2581 344.4831 192.3101 345.8672 189.3692 C 348.9176 182.8679 342.429 174.7617 346.5093 168.7859 C 349.1996 164.8462 356.7467 164.6402 362.2058 163.9778 C 365.3107 163.6022 369.6385 163.8824 369.6385 163.8824 C 369.6385 163.8824 391.2613 225.0168 390.417 234.5895 Z " data-paper-data="{&quot;origPos&quot;:null}" fill="url(#color-1-,0,0,1,-121.1965,-1.606)" stroke-linecap="round" stroke-width="2.5" stroke="none"/><path d="M 390.4943 234.1826 C 389.0109 237.9477 379.3668 237.0049 379.3668 237.0049 C 379.3668 237.0049 378.685 223.5375 375.2885 209.4351 C 371.5521 193.9212 361.851 163.7306 361.851 163.7306 C 361.851 163.7306 369.3419 162.4011 370.6096 164.9548 C 371.8773 167.5084 380.4487 191.7785 384.2461 207.7638 C 386.3189 216.4821 391.5772 231.4335 390.4942 234.1825 Z " data-paper-data="{&quot;origPos&quot;:null}" fill="url(#color-2-,0,0,1,-121.1965,-1.606)" stroke-linecap="round" stroke-width="2.5" stroke="none"/><g data-paper-data="{&quot;origPos&quot;:null}" stroke-linecap="butt"><g data-paper-data="{&quot;origPos&quot;:null}"><path d="M 380.2868 226.9468 C 380.2868 226.9468 367.0692 225.3582 358.7355 225.8419 C 348.602 226.4299 332.3665 225.9645 332.3665 225.9645 C 332.3665 225.9645 332.1585 225.4512 332.2657 224.8404 C 332.4174 223.9766 333.1855 222.7195 333.1855 222.7195 L 379.4576 222.3695 Z " data-paper-data="{&quot;origPos&quot;:null}" fill="url(#color-3-,0,0,1,-121.1965,-1.606)" stroke-width="2.5" stroke="none"/><path d="M 355.5626 224.4143 C 355.6004 224.1032 355.9103 224.0725 356.0133 224.0709 C 356.2427 223.9469 356.4638 223.8303 356.7172 223.7425 C 359.151 222.8994 359.8878 222.6445 361.986 223.8666 C 363.3039 224.6562 362.6753 223.0701 364.4434 222.9948 C 364.8073 222.9793 365.7882 223.8758 366.1613 224.0314 C 368.3512 224.9788 368.4042 222.7206 370.8939 223.759 C 372.4211 224.4197 373.7705 225.8426 374.9305 223.8889 C 376.5106 223.0781 377.7966 225.1591 379.1779 225.7352 C 379.1779 225.7352 379.5704 225.8989 379.37 226.2364 C 379.1695 226.574 378.777 226.4103 378.777 226.4103 C 377.8612 226.0283 375.8245 224.5482 375.6871 224.2637 C 374.2955 226.543 372.3109 225.1455 370.4931 224.434 C 368.7752 223.7176 368.0331 225.5958 365.7605 224.7064 C 365.3024 224.5154 364.295 224.0995 363.8618 223.8221 C 363.6852 224.3222 362.8836 225.2706 361.4782 224.4885 C 360.267 223.7831 358.4173 223.9578 357.035 224.4367 C 356.8041 224.5166 356.6359 224.6147 356.4251 224.7288 L 355.9555 224.8192 C 355.9555 224.8192 355.5171 224.7881 355.5627 224.4142 Z " data-paper-data="{&quot;origPos&quot;:null,&quot;origRot&quot;:0}" fill="#000000" stroke-width="2.5" stroke="none"/><path d="M 357.6313 223.7034 C 357.6193 224.0155 357.3123 224.0647 357.2095 224.0725 C 356.9907 224.2097 356.7794 224.3391 356.5336 224.4417 C 354.1718 225.4273 353.457 225.7253 351.2599 224.6338 C 349.878 223.9262 350.6371 225.4684 348.8771 225.6494 C 348.5148 225.6866 347.4609 224.8524 347.0753 224.7198 C 344.8093 223.9073 344.9431 226.1598 342.37 225.2747 C 340.7897 224.7081 339.3241 223.3715 338.3268 225.3871 C 336.8154 226.2893 335.3587 224.2935 333.9312 223.8025 C 333.9312 223.8025 333.5255 223.663 333.6978 223.3147 C 333.8702 222.9665 334.2758 223.106 334.2758 223.106 C 335.2223 223.4316 337.3792 224.7839 337.54 225.0591 C 338.7418 222.7053 340.8399 223.9785 342.7147 224.5782 C 344.49 225.1889 345.076 223.2735 347.4199 224.0234 C 347.8932 224.1862 348.934 224.5401 349.3897 224.7904 C 349.5249 224.2817 350.2472 223.289 351.7158 223.9838 C 352.9842 224.6139 354.8174 224.329 356.1588 223.7693 C 356.3828 223.6758 356.5427 223.568 356.7438 223.4417 L 357.2054 223.3236 C 357.2054 223.3236 357.646 223.3283 357.6314 223.7034 Z " data-paper-data="{&quot;origPos&quot;:null,&quot;index&quot;:null}" fill="#000000" stroke-width="2.5" stroke="none"/></g><path d="M 339.363 230.2776 L 331.6637 226.0532 L 332.2251 223.2699 L 340.7605 224.9805 Z " data-paper-data="{&quot;origPos&quot;:null}" fill="#333333" stroke-width="2.5" stroke="none"/></g><g data-paper-data="{&quot;origPos&quot;:null}" stroke-linecap="butt"><path d="M 344.9098 191.3079 C 344.9919 191.2872 345.0674 191.2767 345.1367 191.2746 C 345.2218 191.1889 345.3543 191.1054 345.557 191.0355 C 346.3575 190.7592 346.6494 191.2474 346.6494 191.2474 C 347.822 193.2086 346.749 195.996 348.1368 197.833 C 348.1986 197.9363 348.2603 198.0395 348.322 198.1427 L 348.4374 198.7014 C 348.4873 198.8081 348.4967 198.9483 348.3635 199.1041 C 348.2931 199.2075 348.1695 199.3129 347.955 199.3897 C 347.7506 199.48 347.5626 199.499 347.4057 199.4863 C 347.1505 199.4839 346.9935 199.3995 346.8985 199.3093 C 345.5633 198.4141 344.1339 197.6498 342.7219 196.8276 C 342.3113 197.3413 341.8707 197.8312 341.3933 198.2764 L 341.4797 198.801 C 341.5289 199.0996 341.1894 199.4087 340.7214 199.4913 C 340.4225 199.5441 340.1436 199.4918 339.9682 199.3693 L 339.3729 198.968 L 339.4418 198.9234 C 339.0124 198.605 338.087 198.2271 337.0829 197.8162 C 336.844 198.3166 336.5734 198.8184 336.437 199.3123 L 336.4396 199.3123 L 336.2909 200.012 C 336.245 200.2679 335.9371 200.5073 335.5338 200.5785 C 335.2349 200.6312 334.956 200.5789 334.7806 200.4565 L 334.1853 200.0551 L 334.439 199.8909 C 333.8306 199.7284 333.2485 199.4594 332.7013 199.1252 C 332.223 199.8447 331.7162 200.4848 331.242 200.9165 C 328.5294 201.3929 327.4996 197.2139 328.6654 195.0157 L 328.5696 194.8554 L 328.1112 194.863 L 328.2598 194.1632 C 328.3058 193.9074 328.6137 193.668 329.017 193.5968 C 329.4203 193.5256 329.7874 193.6458 329.9127 193.8714 C 329.994 194.0073 330.1461 194.2617 330.277 194.4806 C 330.351 194.6044 330.4183 194.717 330.4622 194.7903 C 330.6066 195.3685 331.4455 196.0365 332.3731 196.7137 C 332.7152 195.997 332.9692 195.3279 333.0722 194.8431 L 333.1453 194.4991 C 333.1912 194.2432 333.4991 194.0039 333.9024 193.9326 C 334.3704 193.85 334.7897 194.0251 334.8389 194.3237 L 334.9485 194.9892 L 334.9085 194.9963 C 335.2936 195.1557 335.6971 195.3441 336.108 195.5503 C 337.0326 192.5139 338.5788 192.4108 342.0026 194.7191 C 342.0482 194.7499 342.094 194.7805 342.1398 194.8109 C 342.9617 193.7141 343.8084 192.6596 344.0903 192.0989 L 344.2963 191.7201 C 344.2963 191.7201 344.0779 191.5175 344.9099 191.3078 Z M 343.5584 195.6984 C 344.3966 196.1972 345.2516 196.6724 346.0909 197.1578 C 345.7573 195.7028 345.9185 194.1095 345.4522 192.6936 C 344.8778 193.6318 344.2627 194.6809 343.5584 195.6984 Z M 338.2054 194.4282 C 338.0752 195.057 337.7737 195.835 337.6015 196.3501 C 338.5816 196.902 339.5313 197.4791 340.3074 197.9334 C 340.3705 197.4529 340.7766 196.7415 341.3041 195.969 C 341.0984 195.8381 340.8939 195.7047 340.691 195.5679 C 340.1756 195.2204 339.0335 194.8111 338.2053 194.4282 Z M 330.462 197.2768 C 330.6474 198.1882 330.6637 199.1143 330.5223 199.7143 C 330.8636 199.2976 331.2065 198.7999 331.5264 198.2754 C 331.1451 197.9567 330.7889 197.6174 330.4621 197.2768 Z M 334.1738 196.4633 C 334.0075 196.8333 333.8154 197.2219 333.6055 197.6123 C 334.1954 198.0575 334.7058 198.4909 334.9584 198.8889 C 335.1927 198.3334 335.4841 197.778 335.6722 197.2239 C 335.1093 196.9754 334.584 196.7202 334.1738 196.4633 Z " data-paper-data="{&quot;origPos&quot;:null,&quot;origRot&quot;:0}" fill="url(#color-4-,0,0,1,-121.1965,-1.606)" stroke-width="2.5" stroke="none"/><path d="M 348.3327 189.2738 C 348.5103 189.4658 348.5511 189.6455 348.5271 189.7994 L 348.5519 189.7633 C 349.3937 192.6534 350.3604 195.383 350.3492 198.3853 C 350.3316 203.1233 343.3404 200.5522 340.022 201.3068 C 336.577 201.8687 333.255 201.9143 329.7101 202.7205 C 329.7101 202.7205 328.8719 202.9111 328.6652 202.2014 C 328.4585 201.4917 329.2966 201.3011 329.2966 201.3011 C 331.7499 200.7433 337.8835 200.7719 339.6086 199.8875 C 343.0469 199.1056 348.6121 201.2885 348.6228 198.4108 C 348.6335 195.5337 347.6843 192.9207 346.8757 190.1444 L 347.1217 189.1639 C 347.1217 189.1639 347.8043 188.7021 348.3327 189.2738 Z " data-paper-data="{&quot;origPos&quot;:null}" fill="#1a1a1a" stroke-width="2.5" stroke="none"/></g></g><g stroke-linecap="round"><path d="M 221.7264 196.1278 C 230.1835 194.338 243.2446 194.4153 247.1977 201.167 C 253.5216 211.4725 252.4141 225.7922 246.1864 236.7112 C 243.1934 241.8246 232.893 237.8105 226.2403 238.1659 C 220.6596 238.0326 212.7279 241.2106 209.5332 237.3728 C 203.1587 229.7123 200.4477 218.6255 203.2015 209.7442 C 205.1543 202.7126 213.9029 197.7865 221.7264 196.1278 Z " data-paper-data="{&quot;origPos&quot;:null}" fill="#666666" stroke="#000000" stroke-width="2.5"/><path d="M 222.3096 197.0897 C 229.181 195.6353 239.7928 195.6981 243.0047 201.1837 C 248.1423 209.5567 247.2426 221.1913 242.183 230.0626 C 239.7513 234.217 231.3822 230.9557 225.9769 231.2446 C 221.443 231.1361 214.9987 233.7182 212.4028 230.6003 C 207.2239 224.3761 205.0211 215.3685 207.2587 208.1527 C 208.8453 202.4397 215.9534 198.4372 222.3096 197.0897 Z " data-paper-data="{&quot;origPos&quot;:null}" fill="#ffffff" stroke="none" stroke-width="2.5"/></g><path d="M 102.9241 313.2556 C 110.9972 308.4094 130.5342 312.702 130.3227 322.6317 C 129.6933 351.3027 118.0868 381.1162 99.7943 403.1785 C 92.5832 411.8683 68.9074 409.7565 65.2032 399.3603 C 59.9539 384.5563 73.9186 367.5367 80.3696 352.4403 C 86.1421 339.0259 89.7949 321.0615 102.9242 313.2556 Z " fill="#ffffff" stroke="#000000" stroke-width="2.5" stroke-linecap="round"/><path d="M 57.4697 230.8348 C 57.4697 230.8348 86.3036 198.4063 99.846 213.7548 C 113.3884 229.1033 131.6974 280.6295 131.9221 315.217 C 131.9916 326.2808 111.1742 333.7812 101.3391 328.5887 C 89.312 321.8632 89.1783 309.2078 89.1783 309.2078 C 89.1783 309.2078 79.5391 279.8631 74.505 268.6995 C 66.7263 251.2934 57.4698 230.8348 57.4698 230.8348 Z " data-paper-data="{&quot;origRot&quot;:0}" fill="#ffffff" stroke="#000000" stroke-width="2.5" stroke-linecap="round"/><g data-paper-data="{&quot;origPos&quot;:null}"><path d="M 50.2672 430.1252 C 48.192 428.8027 50.2375 418.6287 51.4981 414.5816 C 54.2451 405.753 57.1523 396.3722 61.2139 388.1239 C 65.2432 379.9435 68.7362 368.742 75.4944 365.1564 C 78.2665 363.6844 71.9915 378.512 76.5689 381.0943 C 86.8333 386.8785 100.2319 381.5418 111.6677 385.571 C 114.5259 386.5776 107.3267 400.8321 109.3398 404.1949 C 111.6535 408.0201 118.752 406.6268 121.3377 410.2835 C 124.0276 414.0871 123.2934 419.334 123.3075 423.8935 C 123.2862 426.1856 120.791 430.3402 120.791 430.3402 C 120.791 430.3402 90.7622 431.8946 75.4944 431.2356 C 67.1671 430.8775 52.5351 431.5706 50.2672 430.1252 Z " data-paper-data="{&quot;origPos&quot;:null}" fill="url(#color-5-,0,0,1,-121.1965,-1.606)" stroke-linecap="round" stroke-width="2.5" stroke="none"/><path d="M 50.8919 430.1252 C 47.7858 428.1456 50.6273 420.9567 50.6273 420.9567 C 50.6273 420.9567 62.9715 423.4435 76.4505 423.9892 C 91.2785 424.5896 123.1606 423.8935 123.1606 423.8935 C 123.1606 423.8935 121.4187 429.9382 118.8435 430.3401 C 116.2682 430.7421 91.3869 431.8946 76.1191 431.2356 C 67.7918 430.8775 53.1598 431.5706 50.8919 430.1252 Z " data-paper-data="{&quot;origPos&quot;:null}" fill="url(#color-6-,0,0,1,-121.1965,-1.606)" stroke-linecap="round" stroke-width="2.5" stroke="none"/><g data-paper-data="{&quot;origPos&quot;:null}" stroke-linecap="butt"><g data-paper-data="{&quot;origPos&quot;:null}"><path d="M 64.9481 423.662 C 64.9481 423.662 69.6946 412.5044 71.1528 405.0912 C 72.9259 396.0768 77.221 381.9931 77.221 381.9931 C 77.221 381.9931 77.8001 381.9419 78.406 382.1914 C 79.2628 382.5442 80.3811 383.5364 80.3811 383.5364 L 69.872 424.103 Z " data-paper-data="{&quot;origPos&quot;:null}" fill="url(#color-7-,0,0,1,-121.1965,-1.606)" stroke-width="2.5" stroke="none"/><path d="M 73.373 402.6793 C 73.6855 402.7917 73.6445 403.0705 73.6219 403.1611 C 73.6962 403.3933 73.7647 403.6165 73.7958 403.8605 C 74.095 406.2044 74.1853 406.9138 72.4298 408.4379 C 71.3044 409.3895 73.0907 409.2438 72.7532 410.8097 C 72.6837 411.132 71.5271 411.7616 71.2787 412.0483 C 69.7853 413.7226 72.106 414.3443 70.4483 416.2577 C 69.4068 417.4253 67.6198 418.2431 69.3657 419.7557 C 69.8321 421.3445 67.3801 421.9392 66.4604 423.0007 C 66.4604 423.0007 66.1991 423.3023 65.8974 423.041 C 65.5958 422.7797 65.8571 422.478 65.8571 422.478 C 66.4669 421.7742 68.4745 420.3697 68.8007 420.322 C 66.7728 418.5238 68.683 417.1439 69.845 415.735 C 70.9887 414.4148 69.2226 413.2871 70.6754 411.5256 C 70.9803 411.1736 71.6467 410.3983 72.035 410.09 C 71.5599 409.8081 70.7684 408.8652 71.9065 407.8351 C 72.9199 406.9553 73.1739 405.2928 73.0039 403.9615 C 72.9755 403.7392 72.9137 403.567 72.8454 403.3536 L 72.8624 402.9198 C 72.8624 402.9198 72.9975 402.5442 73.373 402.6793 Z " data-paper-data="{&quot;origPos&quot;:null,&quot;origRot&quot;:0}" fill="#000000" stroke-width="2.5" stroke="none"/><path d="M 73.6214 404.6702 C 73.3018 404.5801 73.3231 404.299 73.3392 404.2071 C 73.2489 403.9807 73.1648 403.7629 73.1166 403.5217 C 72.6532 401.2046 72.5132 400.5033 74.1571 398.8595 C 75.2128 397.831 73.4411 398.1021 73.6676 396.5163 C 73.7143 396.1899 74.8237 395.4805 75.0513 395.1771 C 76.4231 393.4019 74.0645 392.9449 75.5834 390.9197 C 76.5401 389.6817 78.2652 388.7401 76.4172 387.3541 C 75.8402 385.8021 78.2442 385.0363 79.0869 383.9127 C 79.0869 383.9127 79.3264 383.5935 79.6457 383.8329 C 79.965 384.0724 79.7255 384.3917 79.7255 384.3917 C 79.1668 385.1367 77.263 386.6789 76.9409 386.7495 C 79.0903 388.4005 77.2821 389.9115 76.2221 391.3986 C 75.1741 392.796 77.0152 393.7967 75.6899 395.656 C 75.4105 396.0285 74.8004 396.8488 74.4347 397.1837 C 74.9284 397.4315 75.7843 398.3163 74.7215 399.4239 C 73.7725 400.3729 73.6362 402.0492 73.8994 403.3652 C 73.9433 403.585 74.0171 403.7524 74.1003 403.9604 L 74.1139 404.3943 C 74.1139 404.3943 74.0056 404.7785 73.6214 404.6702 Z " data-paper-data="{&quot;origPos&quot;:null,&quot;index&quot;:null}" fill="#000000" stroke-width="2.5" stroke="none"/></g><path d="M 71.1213 387.0144 L 77.2945 381.3557 L 80.0381 382.556 L 76.2656 389.5866 Z " data-paper-data="{&quot;origPos&quot;:null}" fill="#333333" stroke-width="2.5" stroke="none"/></g><g data-paper-data="{&quot;origPos&quot;:null}" stroke-linecap="butt"><path d="M 109.1189 403.5883 C 109.121 403.6643 109.1142 403.7321 109.1003 403.7925 C 109.168 403.8875 109.2223 404.023 109.2467 404.2155 C 109.3428 404.9763 108.7772 405.1055 108.7772 405.1055 C 106.5053 405.6248 103.9115 403.9972 101.7163 404.7335 C 101.5967 404.7609 101.4771 404.7882 101.3575 404.8155 L 100.761 404.7747 C 100.6406 404.7909 100.4954 404.7638 100.3675 404.6096 C 100.2784 404.5227 100.1996 404.3895 100.1709 404.185 C 100.1262 403.9858 100.1505 403.8186 100.1998 403.6864 C 100.2615 403.4667 100.384 403.3524 100.4979 403.293 C 101.7206 402.3653 102.8314 401.3233 103.9974 400.3108 C 103.5688 399.827 103.1713 399.3234 102.828 398.7992 L 102.2729 398.7419 C 101.957 398.7092 101.7205 398.3383 101.7448 397.9134 C 101.7603 397.6421 101.8783 397.4144 102.0438 397.2937 L 102.5911 396.8806 L 102.6207 396.9514 C 103.0449 396.6606 103.645 395.9566 104.2968 395.1929 C 103.8419 394.8608 103.3929 394.5009 102.9209 394.2589 L 102.9203 394.2612 L 102.2412 393.9568 C 101.9908 393.8528 101.8182 393.5267 101.8391 393.1605 C 101.8546 392.8893 101.9726 392.6615 102.1381 392.5408 L 102.6854 392.1277 L 102.7941 392.3881 C 103.1009 391.9037 103.5102 391.4687 103.9779 391.0802 C 103.3551 390.4862 102.8199 389.8877 102.4897 389.3696 C 102.6329 386.9075 107.1334 387.0694 109.1047 388.6289 L 109.2904 388.5865 L 109.3889 388.1887 L 110.0681 388.4931 C 110.3184 388.5971 110.4911 388.9232 110.4702 389.2894 C 110.4493 389.6555 110.2416 389.9423 109.9824 389.9937 C 109.825 390.0297 109.5303 390.0971 109.2767 390.155 C 109.1333 390.1878 109.0029 390.2176 108.9179 390.237 C 108.2948 390.2163 107.419 390.7727 106.5133 391.4033 C 107.1649 391.8789 107.7883 392.2666 108.2588 392.4774 L 108.5927 392.627 C 108.843 392.731 109.0157 393.0571 108.9948 393.4233 C 108.9705 393.8482 108.6947 394.1662 108.3788 394.1336 L 107.6747 394.0609 L 107.6768 394.0245 C 107.4249 394.3169 107.1393 394.6179 106.8337 394.9209 C 109.7158 396.483 109.4623 397.8441 106.3144 400.2199 C 106.2724 400.2515 106.2306 400.2833 106.1889 400.3153 C 107.1168 401.3008 107.9959 402.2971 108.5022 402.6816 L 108.8407 402.9547 C 108.8407 402.9547 109.098 402.8171 109.119 403.5883 Z M 104.9547 401.3171 C 104.2516 401.9154 103.5688 402.5341 102.8792 403.1368 C 104.4404 403.2147 106.0278 403.7546 107.5799 403.708 C 106.7563 402.9761 105.8291 402.1811 104.9547 401.3171 Z M 107.4915 397.0143 C 106.8804 396.7437 106.157 396.2877 105.6715 396.0095 C 104.8814 396.7169 104.0727 397.3919 103.4294 397.9477 C 103.9048 398.1231 104.5361 398.6527 105.2016 399.3025 C 105.3827 399.1578 105.5663 399.0148 105.7528 398.874 C 106.2267 398.5164 106.9089 397.6331 107.4915 397.0143 Z M 106.3821 389.6116 C 105.4097 389.5425 104.4615 389.3235 103.8824 389.0506 C 104.2282 389.4501 104.6562 389.8714 105.117 390.2795 C 105.5304 390.0304 105.959 389.8082 106.3821 389.6116 Z M 106.351 393.0211 C 106.0123 392.7846 105.6605 392.5209 105.311 392.2414 C 104.7202 392.6388 104.1598 392.9705 103.6954 393.0886 C 104.2076 393.4306 104.7064 393.8219 105.2279 394.1237 C 105.6119 393.7002 105.9939 393.3108 106.351 393.0211 Z " data-paper-data="{&quot;origPos&quot;:null,&quot;origRot&quot;:0}" fill="#292929" stroke-width="2.5" stroke="none"/><path d="M 110.3994 407.0555 C 110.1623 407.1605 109.9696 407.1506 109.8183 407.0911 L 109.8494 407.1216 C 106.7067 407.1216 103.699 407.2698 100.6399 406.505 C 95.8121 405.2981 100.0554 399.908 100.0554 396.8528 C 100.2812 393.7368 101.0051 390.8569 101.0051 387.5931 C 101.0051 387.5931 101.0051 386.8214 101.7767 386.8214 C 102.5483 386.8214 102.5483 387.5931 102.5483 387.5931 C 102.5483 389.8517 101.0968 395.1408 101.5986 396.8528 C 101.5986 400.0184 98.082 404.2748 101.0141 405.0078 C 103.9457 405.7407 106.8305 405.5784 109.8493 405.5784 L 110.7923 406.0374 C 110.7923 406.0374 111.1048 406.743 110.3993 407.0555 Z " data-paper-data="{&quot;origPos&quot;:null}" fill="#1a1a1a" stroke-width="2.5" stroke="none"/></g></g><g data-paper-data="{&quot;origRot&quot;:0}" stroke-linecap="round"><path d="M 134.0521 313.6231 C 134.9187 320.95 133.4334 331.9639 126.2976 334.5823 C 115.374 338.824 101.2628 336.3678 91.0835 329.952 C 86.3244 326.8827 91.4244 318.6168 91.7887 312.9649 C 92.5228 308.2697 90.2197 301.2384 94.3782 298.9504 C 102.6786 294.3849 113.9886 293.2753 122.5176 296.543 C 129.2951 298.9383 133.2473 306.8446 134.0521 313.6231 Z " data-paper-data="{&quot;origPos&quot;:null}" fill="#666666" stroke="#000000" stroke-width="2.5"/><path d="M 132.3276 313.7154 C 133.0321 319.6686 131.8253 328.6172 126.0275 330.7447 C 117.1523 334.1908 105.6875 332.1952 97.4167 326.9823 C 93.5501 324.4886 97.6462 317.7685 97.9896 313.1809 C 98.5389 309.3616 96.7047 303.6323 100.0937 301.7945 C 106.835 298.1378 115.9687 297.1857 122.9565 299.8386 C 128.3926 301.7804 131.6739 308.2081 132.3276 313.7154 Z " data-paper-data="{&quot;origPos&quot;:null}" fill="#ffffff" stroke="none" stroke-width="2.5"/></g><g><path d="M 57.2829 235.3437 C 57.2829 235.3437 51.9485 200.8028 45.6141 179.4374 C 41.2406 164.6863 23.5978 126.4246 30.3017 93.3289 C 37.0055 60.2331 101.947 61.0607 111.4776 76.8591 C 121.0082 92.6575 122.727 150.691 124.263 163.4477 C 126.9812 186.0234 133.0915 220.941 133.0915 220.941 Z " data-paper-data="{&quot;origPos&quot;:null}" fill="#000000" stroke="none" stroke-linecap="butt" stroke-width="2.5"/><path d="M 29.3951 104.802 C 29.5211 95.4621 30.5015 84.639 38.5696 84.6394 C 46.6379 84.6397 58.4495 87.9602 64.6312 93.0631 C 68.4718 96.245 75.7462 123.3214 71.2413 129.5089 C 67.2842 135.3378 38.4488 141.5891 35.6901 137.5199 C 29.7165 128.667 29.2365 116.5496 29.3951 104.802 Z " data-paper-data="{&quot;origPos&quot;:null,&quot;index&quot;:null}" fill="#ffffff" stroke="#000000" stroke-linecap="round" stroke-width="2.5"/><path d="M 121.9353 122.032 C 120.8611 126.8294 91.7423 131.5888 85.9232 127.6172 C 79.463 123.5129 76.3005 95.6553 78.7066 91.2867 C 82.5862 84.2723 92.3571 76.8514 99.863 73.8921 C 107.3689 70.9329 112.2502 80.6422 115.7928 89.2851 C 120.2486 100.1561 124.246 111.6052 121.9353 122.032 Z " data-paper-data="{&quot;origPos&quot;:null}" fill="#ffffff" stroke="#000000" stroke-linecap="round" stroke-width="2.5"/><path d="M 118.7511 133.8575 C 124.3561 139.6292 123.2803 149.4946 123.88 157.5462 C 123.9924 162.7843 124.4306 169.2579 120.8551 173.0445 C 117.4066 176.7221 93.3805 179.6781 88.497 176.3645 C 84.3412 173.607 79.8498 146.0804 83.7927 140.0279 C 87.0128 134.7349 114.7135 129.7045 118.7511 133.8575 Z " data-paper-data="{&quot;origPos&quot;:null}" fill="#ffffff" stroke="#000000" stroke-linecap="round" stroke-width="2.5"/><path d="M 74.9807 141.3657 C 79.2525 145.8417 84.6566 172.4503 81.5908 177.8114 C 79.1522 181.9758 54.1986 185.6893 49.0082 182.4308 C 43.0759 178.707 41.7032 170.2084 39.5961 163.4832 C 38.0348 157.3328 33.5732 148.7488 38.1756 144.431 C 44.1867 138.7962 72.2086 138.4332 74.9807 141.3657 Z " data-paper-data="{&quot;origPos&quot;:null}" fill="#ffffff" stroke="#000000" stroke-linecap="round" stroke-width="2.5"/><path d="M 124.7815 225.3279 L 59.1323 235.6012 L 51.2689 193.11 L 120.0951 181.9189 Z " data-paper-data="{&quot;origPos&quot;:null}" fill="url(#color-8-,0,0,1,-121.1965,-1.606)" stroke="#000000" stroke-linecap="round" stroke-width="2.5"/><g><path d="M 94.0352 87.4273 L 99.0916 86.7079 L 99.8537 94.5339 L 107.2414 93.3719 L 108.0829 97.8013 L 100.5123 98.6357 L 104.8749 121.5982 L 100.1681 122.2511 L 96.1551 99.222 L 88.856 100.8503 L 88.1252 97.0038 L 95.8625 95.7754 Z " stroke-linecap="round" stroke-width="2.5" fill="#000000" stroke="none"/><g stroke-linecap="butt"><path d="M 112.7584 119.6252 C 112.8212 119.9554 112.739 120.1231 112.5188 120.1649 C 110.9181 120.5451 109.3106 120.8885 107.7098 121.2686 C 107.5998 121.2895 107.5264 121.3035 107.453 121.3174 C 107.3972 121.0239 107.3187 120.8107 107.2699 120.5539 C 107.249 120.4438 107.3312 120.2762 107.4412 120.2552 C 107.6841 120.133 107.934 120.0476 108.2136 119.9184 C 108.6696 119.7174 108.7221 119.5934 108.6315 119.1164 C 108.4363 118.089 108.3075 117.0108 108.0756 115.9904 C 107.746 114.456 107.3362 112.8988 107.0066 111.3645 C 106.8393 110.4839 106.7523 109.6258 106.585 108.7452 C 106.4665 108.1211 106.341 107.4607 106.1788 106.8072 C 106.1175 107.0849 106.051 107.3631 105.9583 107.6474 C 105.5933 108.8189 105.1385 109.7819 104.7004 110.8331 C 104.3445 111.6981 103.7961 112.3326 103.444 113.1249 C 103.1336 113.8296 102.8464 114.5241 102.4644 115.1741 C 102.1854 115.6419 102.2059 116.7502 101.7116 116.5148 C 99.522 115.332 98.3581 113.6114 96.6325 112.195 C 95.6105 111.3369 94.4694 110.5317 93.4553 109.6807 C 93.202 109.4687 93.2667 109.4884 93.2091 109.3853 L 93.1357 109.3993 C 93.2752 110.1331 93.4146 110.8672 93.5541 111.6011 C 93.9254 113.3556 94.3037 115.1468 94.6384 116.9083 C 94.8893 118.2292 95.0739 119.601 95.2883 120.9292 C 95.351 121.2594 95.4504 121.5826 95.5499 121.9059 C 95.6354 122.1557 95.8835 122.261 96.1473 122.2489 C 96.3377 122.2507 96.4844 122.2228 96.6679 122.188 C 96.9247 122.1392 96.9893 122.279 96.9875 122.4694 C 96.9926 122.6966 97.0275 122.88 97.0693 123.1002 C 97.1042 123.2836 96.9941 123.3045 96.8473 123.3324 C 96.2305 123.4876 95.6134 123.6429 95.0264 123.7544 C 94.3729 123.9166 93.7488 124.0352 93.0954 124.1973 C 92.8752 124.2391 92.7582 124.2234 92.7461 123.9596 C 92.7409 123.7324 92.6624 123.5193 92.6275 123.3358 C 92.5857 123.1156 92.6818 123.0214 92.895 122.9428 C 93.1816 122.8504 93.4681 122.7579 93.7043 122.5987 C 93.7707 122.5481 93.8529 122.3804 93.839 122.307 C 93.7153 121.4562 93.548 120.5752 93.4243 119.7244 C 93.2867 118.8001 93.1858 117.8686 93.0413 116.9076 C 92.9924 116.6505 92.9366 116.3569 92.8511 116.1071 C 92.5738 115.2474 92.4361 114.3228 92.2549 113.3689 C 91.9899 111.9743 91.6952 110.6234 91.4304 109.2291 C 91.3397 108.7518 91.2421 108.2381 91.1148 107.7681 C 90.9787 107.4518 90.7306 107.3469 90.4001 107.4097 C 90.3634 107.4166 90.3267 107.4236 90.3267 107.4236 C 89.6593 107.5124 89.5143 107.3496 89.5425 106.6979 C 89.5286 106.6245 89.6544 106.4866 89.7278 106.4727 C 90.0214 106.4169 90.3149 106.3611 90.6087 106.3053 C 91.4963 106.1747 92.3702 105.9706 93.2141 105.8103 C 93.6911 105.7196 93.7941 105.9838 94.0455 106.1845 C 95.2107 107.07 95.9265 107.9736 96.8654 108.9188 C 98.0991 110.0112 99.2696 111.196 100.569 112.3023 C 100.8943 112.5792 100.6625 112.5962 100.8992 112.2396 C 102.0285 110.5801 103.0802 108.849 104.0136 107.2186 C 104.5159 106.3452 104.7415 105.3212 105.2782 104.4687 C 105.5152 104.0922 105.6088 103.6075 106.1962 103.4959 C 107.2305 103.3374 108.2879 103.0985 109.3222 102.94 C 109.5424 102.8982 109.6367 102.9943 109.6785 103.2145 C 109.7831 103.7651 109.7831 103.7651 109.203 103.9134 C 108.616 104.0249 108.4046 103.9127 108.5719 104.7936 C 108.7113 105.5274 108.8438 106.2248 109.02 106.9517 C 109.0687 107.2085 109.1542 107.4584 109.203 107.7153 C 109.4401 108.9631 109.6702 110.1742 109.9072 111.4217 C 110.207 112.9997 110.4632 114.548 110.763 116.126 C 110.9303 117.0066 111.061 117.8945 111.1985 118.8188 C 111.2892 119.296 111.4341 119.4586 111.9181 119.4047 C 112.0649 119.3768 112.2256 119.4223 112.3654 119.3577 C 112.6816 119.2216 112.7235 119.4417 112.7583 119.6252 Z " stroke-width="2.5" fill="#000000" stroke="none"/></g></g><g><g><path d="M 73.9061 298.113 C 73.9061 298.113 74.2914 298.5302 74.3106 298.3883 C 74.3646 297.9878 74.1756 297.4727 74.0524 297.0289 C 73.9888 296.8 73.8353 296.6042 73.7534 296.3813 C 73.5927 295.9456 73.5122 295.4792 73.325 295.0542 C 73.2001 294.7704 73.0002 294.524 72.8236 294.2691 C 72.6772 294.0575 72.4802 293.8788 72.3549 293.6538 C 72.1231 293.2391 71.8453 292.8257 71.7567 292.359 C 71.5299 291.1655 71.5495 289.9339 71.4186 288.7259 C 71.3858 288.424 71.2911 288.2764 71.2895 288.0461 C 71.2861 287.6267 71.4064 287.2114 71.4031 286.792 C 71.4014 286.5617 71.3109 286.3693 71.274 286.1125 C 71.1267 285.0842 70.8629 283.0211 70.8629 283.0211 " fill="none" stroke="#7f7f7f" stroke-linecap="round" stroke-width="2.5"/><path d="M 68.415 278.0804 C 66.9764 277.5512 65.9897 272.4781 64.0205 270.215 C 62.9839 269.0217 60.6806 269.4071 59.7565 268.1249 C 57.4696 264.9516 56.3001 261.0845 54.8301 257.4601 C 53.8729 255.0977 53.7217 252.3984 52.479 250.1732 C 51.7082 248.7921 49.7417 248.3536 48.971 246.9728 C 47.7282 244.7476 46.6403 242.236 46.6198 239.6856 C 46.6084 238.344 48.1314 237.465 48.8868 236.3547 C 49.6426 235.2444 50.5912 234.2426 51.1542 233.0238 C 51.7475 231.7395 51.413 230.0301 52.3113 228.9373 C 53.139 227.9311 54.5863 227.5384 55.8662 227.2952 C 57.1465 227.0519 58.6367 226.8866 59.7757 227.5191 C 61.0122 228.2064 61.4934 229.7719 62.3508 230.8965 C 63.2083 232.0214 64.4109 232.957 64.926 234.2742 C 66.3135 237.8216 67.2754 241.5519 67.9863 245.2935 C 68.462 247.7976 68.4144 250.3861 68.4713 252.9349 C 68.5004 254.2386 68.0846 255.551 68.2474 256.8444 C 68.7211 260.6097 70.1343 264.2527 70.3746 268.041 C 70.465 269.4527 69.4896 270.7399 69.2176 272.1278 C 68.8347 274.0912 69.4545 278.4631 68.415 278.0803 Z " fill="none" stroke="#7f7f7f" stroke-linecap="round" stroke-width="2.5"/><path d="M 50.3965 234.4543 C 50.7713 234.7089 51.0485 235.1065 51.1397 235.5862 C 51.2309 236.0662 51.1187 236.5374 50.8634 236.9121 C 50.6088 237.2866 50.2115 237.5637 49.7315 237.6549 C 49.2518 237.7461 48.7803 237.634 48.406 237.379 C 48.0311 237.124 47.754 236.7268 47.6628 236.2468 C 47.5716 235.7671 47.6837 235.2955 47.939 234.9212 C 48.1936 234.5464 48.5912 234.2692 49.0709 234.1781 C 49.5509 234.0869 50.0221 234.199 50.3965 234.4543 Z " fill="url(#color-9-,0,0,1,-121.1965,-1.606)" stroke="none" stroke-linecap="butt" stroke-width="2.5"/><path d="M 47.825 237.4563 C 48.1999 237.7109 48.4771 238.1084 48.5682 238.5881 C 48.6594 239.0682 48.5472 239.5394 48.292 239.914 C 48.0373 240.2885 47.6401 240.5657 47.1601 240.6569 C 46.6803 240.748 46.2088 240.6359 45.8346 240.3809 C 45.4597 240.126 45.1825 239.7287 45.0913 239.2487 C 45.0002 238.769 45.1123 238.2975 45.3676 237.9232 C 45.6222 237.5484 46.0198 237.2712 46.4995 237.18 C 46.9795 237.0888 47.4507 237.201 47.825 237.4563 Z " fill="url(#color-10-,0,0,1,-121.1965,-1.606)" stroke="none" stroke-linecap="butt" stroke-width="2.5"/><path d="M 47.8447 241.694 C 48.2195 241.9485 48.4967 242.3461 48.5879 242.8258 C 48.6791 243.3058 48.5669 243.7771 48.3116 244.1517 C 48.057 244.5262 47.6597 244.8033 47.1797 244.8946 C 46.7 244.9857 46.2285 244.8736 45.8542 244.6186 C 45.4793 244.3637 45.2022 243.9664 45.111 243.4864 C 45.0198 243.0067 45.132 242.5352 45.3873 242.1608 C 45.6418 241.786 46.0394 241.5088 46.5191 241.4177 C 46.9991 241.3265 47.4704 241.4386 47.8447 241.6939 Z " fill="url(#color-11-,0,0,1,-121.1965,-1.606)" stroke="none" stroke-linecap="butt" stroke-width="2.5"/><path d="M 49.9007 245.0735 C 50.2755 245.3281 50.5527 245.7256 50.6439 246.2053 C 50.7351 246.6853 50.6229 247.1566 50.3677 247.5312 C 50.113 247.9057 49.7157 248.1829 49.2357 248.2741 C 48.756 248.3652 48.2845 248.2531 47.9102 247.9981 C 47.5354 247.7432 47.2582 247.3459 47.167 246.8659 C 47.0759 246.3862 47.188 245.9147 47.4433 245.5404 C 47.6979 245.1655 48.0954 244.8883 48.5751 244.7972 C 49.0552 244.706 49.5264 244.8182 49.9007 245.0735 Z " fill="url(#color-12-,0,0,1,-121.1965,-1.606)" stroke="none" stroke-linecap="butt" stroke-width="2.5"/><path d="M 52.9602 247.9482 C 53.335 248.2028 53.6122 248.6004 53.7034 249.0801 C 53.7946 249.5601 53.6824 250.0313 53.4271 250.4059 C 53.1725 250.7804 52.7752 251.0576 52.2952 251.1488 C 51.8155 251.2399 51.344 251.1278 50.9697 250.8728 C 50.5948 250.6179 50.3177 250.2207 50.2265 249.7407 C 50.1353 249.261 50.2474 248.7894 50.5027 248.4151 C 50.7573 248.0403 51.1549 247.7631 51.6346 247.6719 C 52.1146 247.5807 52.5858 247.6929 52.9602 247.9482 Z " fill="url(#color-13-,0,0,1,-121.1965,-1.606)" stroke="none" stroke-linecap="butt" stroke-width="2.5"/><path d="M 54.5536 252.2011 C 54.9284 252.4557 55.2057 252.8532 55.2968 253.3329 C 55.388 253.813 55.2758 254.2842 55.0206 254.6588 C 54.7659 255.0333 54.3687 255.3105 53.8886 255.4017 C 53.4089 255.4928 52.9374 255.3807 52.5631 255.1257 C 52.1883 254.8708 51.9111 254.4735 51.8199 253.9935 C 51.7288 253.5138 51.8409 253.0423 52.0962 252.668 C 52.3508 252.2932 52.7483 252.016 53.2281 251.9248 C 53.7081 251.8336 54.1793 251.9458 54.5536 252.2011 Z " fill="url(#color-14-,0,0,1,-121.1965,-1.606)" stroke="none" stroke-linecap="butt" stroke-width="2.5"/><path d="M 56.0319 255.8475 C 56.4067 256.1021 56.6839 256.4997 56.775 256.9794 C 56.8662 257.4594 56.754 257.9306 56.4988 258.3052 C 56.2441 258.6797 55.8469 258.9569 55.3669 259.0481 C 54.8872 259.1392 54.4156 259.0271 54.0414 258.7721 C 53.6665 258.5172 53.3893 258.12 53.2981 257.64 C 53.207 257.1602 53.3191 256.6887 53.5744 256.3144 C 53.829 255.9396 54.2266 255.6624 54.7063 255.5712 C 55.1863 255.48 55.6575 255.5922 56.0318 255.8475 Z " fill="url(#color-15-,0,0,1,-121.1965,-1.606)" stroke="none" stroke-linecap="butt" stroke-width="2.5"/><path d="M 57.5965 259.9488 C 57.9713 260.2034 58.2485 260.6009 58.3397 261.0806 C 58.4309 261.5607 58.3187 262.0319 58.0635 262.4065 C 57.8088 262.781 57.4115 263.0582 56.9315 263.1494 C 56.4518 263.2405 55.9803 263.1284 55.606 262.8734 C 55.2312 262.6185 54.954 262.2212 54.8628 261.7412 C 54.7717 261.2615 54.8838 260.79 55.1391 260.4157 C 55.3937 260.0409 55.7912 259.7637 56.2709 259.6725 C 56.751 259.5813 57.2222 259.6935 57.5965 259.9488 Z " fill="url(#color-16-,0,0,1,-121.1965,-1.606)" stroke="none" stroke-linecap="butt" stroke-width="2.5"/><path d="M 59.0747 263.5952 C 59.4496 263.8498 59.7268 264.2473 59.8179 264.7271 C 59.9091 265.2071 59.7969 265.6783 59.5417 266.0529 C 59.287 266.4274 58.8898 266.7046 58.4098 266.7958 C 57.93 266.8869 57.4585 266.7748 57.0843 266.5198 C 56.7094 266.2649 56.4322 265.8677 56.341 265.3876 C 56.2499 264.9079 56.362 264.4364 56.6173 264.0621 C 56.8719 263.6873 57.2695 263.4101 57.7492 263.3189 C 58.2292 263.2277 58.7004 263.3399 59.0747 263.5952 Z " fill="url(#color-17-,0,0,1,-121.1965,-1.606)" stroke="none" stroke-linecap="butt" stroke-width="2.5"/><path d="M 61.8888 266.8307 C 62.2636 267.0853 62.5409 267.4829 62.632 267.9626 C 62.7232 268.4426 62.611 268.9138 62.3558 269.2885 C 62.1011 269.663 61.7039 269.9401 61.2239 270.0313 C 60.7441 270.1225 60.2726 270.0104 59.8984 269.7553 C 59.5235 269.5004 59.2463 269.1032 59.1551 268.6232 C 59.064 268.1435 59.1761 267.6719 59.4314 267.2976 C 59.686 266.9228 60.0836 266.6456 60.5633 266.5544 C 61.0433 266.4633 61.5145 266.5754 61.8888 266.8307 Z " fill="url(#color-18-,0,0,1,-121.1965,-1.606)" stroke="none" stroke-linecap="butt" stroke-width="2.5"/><g stroke-linecap="butt"><path d="M 64.7461 269.3608 C 65.1884 269.4596 65.5926 269.7268 65.8542 270.1396 C 66.1158 270.5521 66.1852 271.0315 66.0857 271.4736 C 65.9869 271.9159 65.7196 272.3198 65.3071 272.5814 C 64.8947 272.8429 64.4152 272.9123 63.9732 272.8131 C 63.5309 272.7143 63.1267 272.4471 62.8651 272.0346 C 62.6036 271.6222 62.5341 271.1424 62.6336 270.7003 C 62.7324 270.258 62.9997 269.8541 63.4122 269.5925 C 63.8246 269.331 64.3041 269.2616 64.7461 269.3608 Z " fill="url(#color-19-,0,0,1,-121.1965,-1.606)" stroke-width="2.5" stroke="none"/><path d="M 66.7733 272.5888 C 67.2156 272.6876 67.6198 272.9548 67.8814 273.3676 C 68.1429 273.7801 68.2124 274.2595 68.1129 274.7016 C 68.0141 275.1439 67.7468 275.5478 67.3343 275.8094 C 66.9218 276.0709 66.4424 276.1403 66.0003 276.0411 C 65.558 275.9423 65.1538 275.6751 64.8923 275.2626 C 64.6307 274.8502 64.5613 274.3704 64.6608 273.9283 C 64.7596 273.486 65.0269 273.0821 65.4394 272.8206 C 65.8518 272.559 66.3313 272.4896 66.7733 272.5888 Z " fill="url(#color-20-,0,0,1,-121.1965,-1.606)" stroke-width="2.5" stroke="none"/></g><path d="M 54.4277 226.8603 C 55.0615 227.291 55.5304 227.9632 55.6846 228.7746 C 55.8388 229.5861 55.6491 230.3834 55.2173 231.0165 C 54.7867 231.6503 54.1145 232.1192 53.303 232.2734 C 52.4916 232.4276 51.6946 232.2378 51.0612 231.8061 C 50.4276 231.3754 49.9587 230.7032 49.8046 229.8918 C 49.6504 229.0803 49.8401 228.283 50.2716 227.65 C 50.7026 227.0164 51.3744 226.5475 52.1859 226.3933 C 52.9974 226.2392 53.7947 226.4289 54.4277 226.8603 Z " fill="url(#color-21-,0,0,1,-121.1965,-1.606)" stroke="none" stroke-linecap="butt" stroke-width="2.5"/><path d="M 63.0187 228.129 C 63.3935 228.3836 63.6707 228.7812 63.7618 229.2609 C 63.853 229.7409 63.7409 230.2121 63.4856 230.5867 C 63.2309 230.9612 62.8337 231.2384 62.3537 231.3296 C 61.874 231.4207 61.4024 231.3086 61.0282 231.0536 C 60.6533 230.7987 60.3762 230.4015 60.2849 229.9215 C 60.1938 229.4418 60.3059 228.9702 60.5612 228.5959 C 60.8158 228.2211 61.2134 227.9439 61.6931 227.8527 C 62.1731 227.7615 62.6443 227.8737 63.0186 228.129 Z " fill="url(#color-22-,0,0,1,-121.1965,-1.606)" stroke="none" stroke-linecap="butt" stroke-width="2.5"/><path d="M 65.6158 231.8769 C 65.9906 232.1315 66.2678 232.5291 66.359 233.0088 C 66.4502 233.4888 66.338 233.96 66.0828 234.3346 C 65.8281 234.7091 65.4309 234.9863 64.9508 235.0775 C 64.4711 235.1687 63.9996 235.0565 63.6253 234.8015 C 63.2505 234.5466 62.9733 234.1494 62.8821 233.6694 C 62.791 233.1897 62.9031 232.7181 63.1584 232.3438 C 63.413 231.969 63.8105 231.6918 64.2902 231.6006 C 64.7703 231.5094 65.2415 231.6216 65.6158 231.8769 Z " fill="url(#color-23-,0,0,1,-121.1965,-1.606)" stroke="none" stroke-linecap="butt" stroke-width="2.5"/><path d="M 67.2381 236.2814 C 67.6129 236.536 67.8901 236.9336 67.9813 237.4133 C 68.0724 237.8933 67.9603 238.3645 67.705 238.7391 C 67.4504 239.1136 67.0531 239.3908 66.5731 239.482 C 66.0934 239.5731 65.6218 239.461 65.2476 239.206 C 64.8727 238.9511 64.5956 238.5539 64.5044 238.0739 C 64.4132 237.5941 64.5253 237.1226 64.7806 236.7483 C 65.0352 236.3735 65.4328 236.0963 65.9125 236.0051 C 66.3925 235.9139 66.8637 236.0261 67.2381 236.2814 Z " fill="url(#color-24-,0,0,1,-121.1965,-1.606)" stroke="none" stroke-linecap="butt" stroke-width="2.5"/><path d="M 68.1887 241.2849 C 68.5635 241.5395 68.8407 241.937 68.9318 242.4167 C 69.023 242.8968 68.9109 243.368 68.6556 243.7426 C 68.401 244.1171 68.0037 244.3943 67.5237 244.4855 C 67.044 244.5766 66.5724 244.4645 66.1982 244.2095 C 65.8233 243.9546 65.5462 243.5573 65.4549 243.0773 C 65.3638 242.5976 65.4759 242.1261 65.7312 241.7518 C 65.9858 241.377 66.3834 241.0998 66.8631 241.0086 C 67.3431 240.9174 67.8143 241.0296 68.1886 241.2849 Z " fill="url(#color-25-,0,0,1,-121.1965,-1.606)" stroke="none" stroke-linecap="butt" stroke-width="2.5"/><path d="M 69.2332 245.9562 C 69.608 246.2108 69.8852 246.6084 69.9763 247.0881 C 70.0675 247.5681 69.9554 248.0393 69.7001 248.4139 C 69.4455 248.7884 69.0482 249.0656 68.5682 249.1568 C 68.0885 249.2479 67.6169 249.1358 67.2427 248.8808 C 66.8678 248.6259 66.5907 248.2287 66.4994 247.7486 C 66.4083 247.2689 66.5204 246.7974 66.7757 246.4231 C 67.0303 246.0483 67.4279 245.7711 67.9076 245.6799 C 68.3876 245.5887 68.8588 245.7009 69.2331 245.9562 Z " fill="url(#color-26-,0,0,1,-121.1965,-1.606)" stroke="none" stroke-linecap="butt" stroke-width="2.5"/><path d="M 69.8519 250.8655 C 70.2267 251.1201 70.5039 251.5176 70.5951 251.9973 C 70.6863 252.4774 70.5741 252.9486 70.3188 253.3232 C 70.0642 253.6977 69.6669 253.9749 69.1869 254.0661 C 68.7072 254.1572 68.2357 254.0451 67.8614 253.7901 C 67.4866 253.5352 67.2094 253.1379 67.1182 252.6579 C 67.0271 252.1782 67.1392 251.7067 67.3945 251.3324 C 67.6491 250.9576 68.0466 250.6804 68.5263 250.5892 C 69.0064 250.498 69.4776 250.6102 69.8519 250.8655 Z " fill="url(#color-27-,0,0,1,-121.1965,-1.606)" stroke="none" stroke-linecap="butt" stroke-width="2.5"/><path d="M 70.1383 255.6809 C 70.5131 255.9355 70.7903 256.333 70.8815 256.8127 C 70.9727 257.2928 70.8605 257.764 70.6053 258.1386 C 70.3506 258.5131 69.9534 258.7903 69.4733 258.8815 C 68.9936 258.9726 68.5221 258.8605 68.1478 258.6055 C 67.773 258.3506 67.4958 257.9533 67.4046 257.4733 C 67.3135 256.9936 67.4256 256.5221 67.6809 256.1478 C 67.9355 255.773 68.333 255.4957 68.8127 255.4046 C 69.2928 255.3134 69.764 255.4256 70.1383 255.6809 Z " fill="url(#color-28-,0,0,1,-121.1965,-1.606)" stroke="none" stroke-linecap="butt" stroke-width="2.5"/><path d="M 70.6704 260.1354 C 71.0452 260.39 71.3224 260.7876 71.4136 261.2673 C 71.5048 261.7473 71.3926 262.2185 71.1373 262.5931 C 70.8827 262.9676 70.4854 263.2448 70.0054 263.336 C 69.5257 263.4271 69.0542 263.315 68.6799 263.06 C 68.305 262.8051 68.0279 262.4079 67.9367 261.9279 C 67.8455 261.4481 67.9577 260.9766 68.213 260.6023 C 68.4676 260.2275 68.8651 259.9503 69.3448 259.8591 C 69.8248 259.7679 70.2961 259.8801 70.6704 260.1354 Z " fill="url(#color-29-,0,0,1,-121.1965,-1.606)" stroke="none" stroke-linecap="butt" stroke-width="2.5"/><path d="M 71.1374 265.0736 C 71.5122 265.3282 71.7894 265.7258 71.8805 266.2055 C 71.9717 266.6855 71.8595 267.1567 71.6043 267.5313 C 71.3496 267.9058 70.9524 268.183 70.4724 268.2742 C 69.9927 268.3653 69.5211 268.2532 69.1469 267.9982 C 68.772 267.7433 68.4948 267.3461 68.4036 266.8661 C 68.3125 266.3863 68.4246 265.9148 68.6799 265.5405 C 68.9345 265.1657 69.3321 264.8885 69.8118 264.7973 C 70.2918 264.7061 70.763 264.8183 71.1373 265.0736 Z " fill="url(#color-30-,0,0,1,-121.1965,-1.606)" stroke="none" stroke-linecap="butt" stroke-width="2.5"/><path d="M 70.6945 270.1846 C 71.0693 270.4391 71.3465 270.8367 71.4377 271.3164 C 71.5289 271.7964 71.4167 272.2677 71.1614 272.6423 C 70.9068 273.0168 70.5095 273.2939 70.0295 273.3852 C 69.5498 273.4763 69.0783 273.3642 68.704 273.1092 C 68.3291 272.8543 68.052 272.457 67.9608 271.977 C 67.8696 271.4973 67.9818 271.0258 68.2371 270.6514 C 68.4917 270.2766 68.8892 269.9994 69.3689 269.9083 C 69.8489 269.8171 70.3202 269.9292 70.6945 270.1845 Z " fill="url(#color-31-,0,0,1,-121.1965,-1.606)" stroke="none" stroke-linecap="butt" stroke-width="2.5"/><path d="M 71.726 276.7243 C 72.5484 277.4446 73.1796 278.5349 73.4246 279.8243 C 73.6696 281.1139 73.4822 282.3598 72.9813 283.3315 C 72.4806 284.3029 71.667 285 70.6588 285.1916 C 69.6508 285.3831 68.638 285.0329 67.816 284.3129 C 66.9939 283.5925 66.3626 282.5022 66.1176 281.2125 C 65.8726 279.9232 66.0601 278.6774 66.5607 277.7057 C 67.0613 276.734 67.8752 276.0368 68.8831 275.8453 C 69.8914 275.6537 70.9039 276.0039 71.726 276.7244 Z " fill="#b2b2b2" stroke="none" stroke-linecap="butt" stroke-width="2.5"/><path d="M 71.5536 285.3473 C 71.9959 285.4462 72.4002 285.7134 72.6617 286.1262 C 72.9233 286.5386 72.9927 287.0181 72.8932 287.4602 C 72.7944 287.9025 72.5271 288.3064 72.1146 288.5679 C 71.7022 288.8295 71.2227 288.8989 70.7807 288.7997 C 70.3384 288.7009 69.9342 288.4336 69.6726 288.0212 C 69.4111 287.6087 69.3416 287.129 69.4411 286.6869 C 69.5399 286.2446 69.8072 285.8407 70.2197 285.5791 C 70.6322 285.3176 71.1116 285.2482 71.5537 285.3473 Z " fill="url(#color-32-,0,0,1,-121.1965,-1.606)" stroke="none" stroke-linecap="butt" stroke-width="2.5"/><path d="M 71.7537 289.7079 C 72.196 289.8068 72.6002 290.074 72.8618 290.4868 C 73.1233 290.8992 73.1927 291.3787 73.0932 291.8208 C 72.9944 292.2631 72.7271 292.667 72.3147 292.9285 C 71.9022 293.1901 71.4227 293.2595 70.9807 293.1603 C 70.5384 293.0615 70.1342 292.7942 69.8726 292.3818 C 69.6111 291.9693 69.5416 291.4896 69.6411 291.0475 C 69.74 290.6052 70.0072 290.2013 70.4197 289.9397 C 70.8322 289.6782 71.3116 289.6088 71.7537 289.7079 Z " fill="url(#color-33-,0,0,1,-121.1965,-1.606)" stroke="none" stroke-linecap="butt" stroke-width="2.5"/><path d="M 74.2209 293.7065 C 74.5957 293.9611 74.873 294.3586 74.9641 294.8383 C 75.0553 295.3184 74.9431 295.7896 74.6879 296.1642 C 74.4332 296.5387 74.036 296.8159 73.556 296.9071 C 73.0762 296.9982 72.6047 296.8861 72.2305 296.6311 C 71.8556 296.3762 71.5784 295.9789 71.4872 295.4989 C 71.3961 295.0192 71.5082 294.5477 71.7635 294.1734 C 72.0181 293.7986 72.4157 293.5213 72.8954 293.4302 C 73.3754 293.339 73.8466 293.4512 74.2209 293.7065 Z " fill="url(#color-34-,0,0,1,-121.1965,-1.606)" stroke="none" stroke-linecap="butt" stroke-width="2.5"/><path d="M 76.9715 300.3478 L 80.1358 299.3945 L 80.644 302.9955 L 77.8196 303.8843 L 79.2147 314.0073 L 75.306 314.7499 L 72.956 305.1602 L 68.8452 305.7653 L 68.3373 302.1642 L 72.2457 301.4216 L 71.6 298.023 L 76.1882 297.1513 Z " fill="#b2b2b2" stroke="none" stroke-linecap="round" stroke-width="2.5"/><path d="M 73.9786 299.9486 L 77.0154 312.2247 " fill="none" stroke="#7f7f7f" stroke-linecap="round" stroke-width="2.5"/><path d="M 71.4042 303.0786 L 77.3842 302.1187 " fill="none" stroke="#7f7f7f" stroke-linecap="round" stroke-width="2.5"/></g><path d="M 132.6257 232.1633 L 58.0027 242.8848 L 55.3086 230.3582 L 127.6149 218.1917 Z " fill="#000000" stroke="none" stroke-linecap="round" stroke-width="2.5"/><g><g><g><path d="M 141.0874 223.7936 L 146.102 216.2955 L 151.7668 255.1993 L 142.0176 250.8971 L 134.5363 223.7186 Z " fill="#363a37" stroke="none" stroke-linecap="round" stroke-width="2.5"/><path d="M 135.4184 203.6229 L 137.895 219.6066 L 115.7578 217.581 L 111.0858 190.0708 Z " fill="#000000" stroke="none" stroke-linecap="round" stroke-width="2.5"/><path d="M 146.8009 232.7901 L 151.8161 265.1573 L 147.2235 265.869 L 142.208 233.5018 Z " fill="url(#color-35-,0,0,1,-121.1965,-1.606)" stroke="url(#color-36-,0,0,1,-121.1965,-1.606)" stroke-linecap="round" stroke-width="2.5"/><path d="M 154.9015 210.535 C 155.0578 211.5446 154.9768 212.4957 154.7179 213.215 C 154.459 213.9344 154.022 214.422 153.4711 214.5075 C 152.9199 214.5928 152.3559 214.2601 151.8915 213.653 C 151.4267 213.0457 151.0619 212.1637 150.9056 211.1541 C 150.749 210.1445 150.83 209.1935 151.0889 208.4742 C 151.3477 207.7548 151.7848 207.2668 152.336 207.1816 C 152.8868 207.0961 153.4508 207.4288 153.9156 208.0361 C 154.38 208.6434 154.7449 209.5255 154.9015 210.535 Z " fill="#ff0000" stroke="none" stroke-linecap="butt" stroke-width="2.5"/><path d="M 133.718 179.2241 L 143.5132 186.9814 L 145.8113 199.1736 L 148.7342 191.6281 L 150.3573 204.7434 L 147.9372 212.893 L 149.7329 224.4813 L 146.1799 236.7618 L 135.4004 237.6137 L 125.4845 193.8667 Z " fill="#000000" stroke="none" stroke-linecap="round" stroke-width="2.5"/><path d="M 151.7681 187.3421 L 155.6367 211.4304 L 153.2147 208.123 L 151.3915 208.6783 L 150.4835 212.5016 L 146.7064 188.1265 Z " fill="#000000" stroke="none" stroke-linecap="round" stroke-width="2.5"/></g><path d="M 150.3458 283.3295 L 150.3458 283.3295 L 150.3998 283.5232 L 150.3998 283.5232 Z " fill="#cccccc" stroke="none" stroke-linecap="butt" stroke-width="2.5"/></g><path d="M 160.18 265.5724 L 141.481 268.0254 L 131.05 251.1563 L 119.2333 217.899 L 150.7317 215.8419 Z " fill="#353935" stroke="none" stroke-linecap="round" stroke-width="2.5"/></g><g stroke-linecap="butt"><path d="M 123.8516 238.0718 L 110.206 240.6643 L 105.5971 216.4055 L 119.2427 213.813 Z " fill="#cccc00" stroke="#000000" stroke-width="2.5"/><path d="M 110.8574 218.1802 C 111.2652 218.4577 111.5679 218.8935 111.667 219.4151 C 111.7661 219.9366 111.6443 220.453 111.3667 220.8608 C 111.0892 221.2685 110.6534 221.5713 110.1319 221.6703 C 109.6103 221.7694 109.0939 221.6476 108.6861 221.3701 C 108.2784 221.0925 107.9757 220.6567 107.8766 220.1352 C 107.7775 219.6136 107.8993 219.0972 108.1769 218.6895 C 108.4544 218.2817 108.8902 217.979 109.4117 217.8799 C 109.9333 217.7808 110.4497 217.9026 110.8574 218.1802 Z " fill="#ff0000" stroke="none" stroke-width="2.5"/></g><g><path d="M 107.0868 254.4386 L 90.6097 257.1509 L 83.8468 216.0711 L 100.3239 213.3585 Z " fill="url(#color-37-,0,0,1,-121.1965,-1.606)" stroke-linecap="butt" stroke-width="2.5" stroke="none"/><path d="M 108.3931 254.9973 L 98.1466 260.3513 L 89.5311 258.7137 L 88.7175 255.1805 L 107.9032 252.022 Z " fill="#666666" stroke-linecap="round" stroke-width="2.5" stroke="none"/><path d="M 104.7578 252.9671 L 103.1779 253.2274 L 96.8611 214.8559 L 98.4411 214.5959 Z " fill="#666666" stroke-linecap="butt" stroke-width="2.5" stroke="none"/><path d="M 101.3723 253.5246 L 100.0181 253.7476 L 93.6268 214.9246 L 94.981 214.7019 Z " fill="#666666" stroke-linecap="butt" stroke-width="2.5" stroke="none"/><path d="M 98.9526 207.9404 C 100.4646 208.1162 101.9199 209.5105 102.078 210.9034 C 102.2111 212.0702 101.2703 212.865 99.5938 213.7707 C 97.9172 214.6764 95.5255 215.4595 92.8165 215.9053 C 90.1079 216.3515 87.5913 216.3762 85.7129 216.0557 C 83.8345 215.7355 82.5945 215.0707 82.4408 214.1363 C 82.2868 213.2017 83.2485 212.1745 84.9247 211.2688 C 86.6013 210.3634 89.3801 209.701 91.7019 209.1342 C 94.0953 208.55 96.5558 207.4495 98.9526 207.9404 Z " fill="#b2b2b2" stroke-linecap="round" stroke-width="2.5" stroke="none"/><path d="M 92.5694 254.9739 L 91.2152 255.1966 L 84.8981 216.8252 L 86.2526 216.6024 Z " fill="#666666" stroke-linecap="butt" stroke-width="2.5" stroke="none"/><path d="M 78.3841 220.9114 L 78.3841 220.9114 L 78.4213 221.1372 L 78.4213 221.1372 Z " fill="#666666" stroke-linecap="butt" stroke-width="2.5" stroke="none"/><path d="M 101.9752 214.9414 L 82.7895 218.0998 L 82.1951 214.4884 L 100.1779 211.0641 L 98.1576 205.8329 L 104.4665 210.3583 Z " fill="#666666" stroke-linecap="round" stroke-width="2.5" stroke="none"/><path d="M 96.6786 240.3695 L 90.3587 241.41 L 88.5008 230.1245 L 94.8207 229.084 Z " fill="#000000" stroke-linecap="butt" stroke-width="2.5" stroke="none"/><path d="M 92.642 232.8019 C 93.1385 233.2652 93.5118 233.9568 93.6452 234.7665 C 93.7787 235.5766 93.6466 236.3513 93.3247 236.9494 C 93.0044 237.5484 92.4941 237.97 91.8711 238.0726 C 91.2481 238.1753 90.6299 237.9392 90.1342 237.4748 C 89.6377 237.0112 89.2643 236.3196 89.1309 235.5098 C 88.9978 234.7 89.1299 233.9253 89.4514 233.327 C 89.7718 232.7279 90.282 232.3064 90.9051 232.2041 C 91.5281 232.1014 92.1465 232.3371 92.642 232.8019 Z " fill="#ff0000" stroke-linecap="butt" stroke-width="2.5" stroke="none"/><path d="M 64.0184 239.9684 C 63.9251 239.9836 63.8404 239.9975 63.7789 240.0079 C 63.7177 240.018 63.6796 240.0243 63.6796 240.0243 C 63.6796 240.0243 63.7177 240.018 63.7789 240.0079 C 63.8404 239.9975 63.9251 239.9836 64.0184 239.9684 C 64.1113 239.953 64.196 239.9391 64.2575 239.929 C 64.3187 239.9189 64.3568 239.9126 64.3568 239.9126 C 64.3568 239.9126 64.3187 239.9189 64.2575 239.929 C 64.196 239.9391 64.1113 239.953 64.0184 239.9684 Z " fill="#ff0000" stroke-linecap="butt" stroke-width="2.5" stroke="none"/></g><g stroke-linecap="butt"><path d="M 106.1374 233.8967 L 94.3113 236.1436 L 92.4389 226.2885 L 104.2651 224.0416 Z " fill="url(#color-38-,0,0,1,-121.1965,-1.606)" stroke-width="2.5" stroke="none"/><path d="M 82.2531 228.2236 L 92.8663 226.2073 L 94.7387 236.0624 L 84.1255 238.0788 Z " fill="url(#color-39-,0,0,1,-121.1965,-1.606)" stroke-width="2.5" stroke="none"/></g><g stroke-linecap="butt"><g><path d="M 78.142 222.3829 C 80.8397 224.2192 82.8375 227.0829 83.4939 230.5376 C 84.1503 233.9924 83.3419 237.3892 81.5056 240.0866 C 79.6693 242.7843 76.8056 244.7821 73.3508 245.4385 C 69.896 246.0948 66.4992 245.2865 63.8018 243.4501 C 61.1042 241.6142 59.1064 238.7504 58.45 235.2957 C 57.7937 231.8409 58.602 228.4441 60.4383 225.7464 C 62.2743 223.0491 65.1381 221.0513 68.5928 220.395 C 72.0476 219.7386 75.4444 220.5469 78.142 222.3829 Z " fill="#000000" stroke-width="2.5" stroke="none"/><path d="M 59.2027 235.0537 C 58.0086 228.7685 62.3362 222.6675 68.8692 221.4263 C 75.4021 220.1851 81.228 224.4124 82.422 230.6972 C 83.6162 236.9827 79.7256 242.9454 73.193 244.1865 C 66.6604 245.4277 60.3967 241.3388 59.2026 235.0537 Z " fill="url(#color-40-,0,0,1,-121.1965,-1.606)" stroke-width="2.5" stroke="none"/><path d="M 72.3991 225.618 C 72.9117 225.715 75.9181 228.2979 76.242 228.9609 C 76.5662 229.6238 74.538 232.9203 74.0178 233.2617 C 73.4979 233.6027 69.2493 232.9514 68.8416 232.5849 C 68.4343 232.2187 67.2713 228.0719 67.6073 227.4891 C 67.944 226.9064 71.8867 225.5208 72.3991 225.6179 Z " fill="#000000" stroke-width="2.5" stroke="none"/><path d="M 66.7029 239.9943 C 66.1472 241.1081 65.492 243.0221 64.214 242.7842 C 62.3609 242.4335 60.5466 240.6345 60.2057 238.7806 C 59.9401 237.3384 61.7929 236.1943 63.052 235.4656 C 64.7515 234.4826 69.3919 231.8642 68.6827 233.9227 Z " fill="url(#color-41-,0,0,1,-121.1965,-1.606)" stroke-width="2.5" stroke="none"/><path d="M 78.298 243.0275 L 73.9055 245.1696 C 72.9201 245.0018 72.6854 243.1312 72.7743 241.9741 C 72.8306 239.7896 72.6882 236.4886 74.3237 235.5272 C 75.5609 234.8029 77.5829 237.2065 78.3083 238.7194 C 79.06 239.9938 78.2979 243.0275 78.2979 243.0275 Z " fill="url(#color-42-,0,0,1,-121.1965,-1.606)" stroke-width="2.5" stroke="none"/><path d="M 58.5166 230.7497 L 61.4596 225.1705 C 62.1624 224.486 63.5021 224.6414 64.331 225.1048 C 65.4373 225.6131 67.2455 226.7164 66.704 227.8036 C 65.7647 229.6959 63.4129 230.4807 61.3505 231.2106 C 60.45 231.53 58.5166 230.7496 58.5166 230.7496 Z " fill="url(#color-43-,0,0,1,-121.1965,-1.606)" stroke-width="2.5" stroke="none"/><path d="M 80.7585 225.933 C 82.1806 228.055 82.7803 230.8595 82.7581 233.4516 C 82.751 234.1583 81.3008 233.3518 80.7027 233.0262 C 79.2951 232.1547 77.429 231.4885 76.8682 229.9358 C 76.4921 228.8991 77.7956 227.5079 78.5246 227.059 Z " fill="url(#color-44-,0,0,1,-121.1965,-1.606)" stroke-width="2.5" stroke="none"/><path d="M 68.5615 221.1859 L 72.0712 220.6583 L 75.3286 221.7134 C 75.3286 221.7134 75.4744 222.7467 75.1564 223.0556 C 74.3102 223.8802 73.2472 225.244 72.0122 225.1632 C 70.6856 225.0602 69.6788 223.6665 68.744 222.6508 C 68.4412 222.2594 68.5615 221.1859 68.5615 221.1859 Z " fill="url(#color-45-,0,0,1,-121.1965,-1.606)" stroke-width="2.5" stroke="none"/></g><path d="M 72.9108 227.7001 C 73.297 227.9632 73.5832 228.3732 73.6773 228.8684 C 73.7713 229.3633 73.6554 229.8497 73.3927 230.2361 C 73.1296 230.6222 72.7196 230.9084 72.2247 231.0025 C 71.7295 231.0966 71.2431 230.9807 70.8567 230.7179 C 70.4705 230.4548 70.1846 230.0447 70.0906 229.5499 C 69.9965 229.0547 70.1121 228.5684 70.3749 228.182 C 70.638 227.7958 71.048 227.5099 71.5432 227.4158 C 72.0381 227.3218 72.5244 227.4374 72.9108 227.7002 Z " fill="url(#color-46-,0,0,1,-121.1965,-1.606)" stroke-width="2.5" stroke="none"/></g></g></g><g data-paper-data="{&quot;origRot&quot;:0}"><g data-paper-data="{&quot;origPos&quot;:null}"><path d="M 66.7984 10.951 C 75.0064 11.2292 84.0222 12.1724 90.6886 16.9569 C 95.8532 20.6601 98.4869 27.8186 98.2235 34.073 C 98.291 47.7399 98.1708 63.1608 90.1273 74.2608 C 84.2588 82.345 71.769 86.701 62.126 85.0094 C 52.9268 83.3944 46.0401 74.2947 41.2421 66.2819 C 35.182 56.3969 32.0345 44.574 32.8453 33.1659 C 32.7248 25.9284 37.2495 18.298 43.1779 14.2643 C 49.7917 9.7616 58.8589 10.3137 66.7982 10.951 Z " fill="#ffd499" stroke="none" stroke-linecap="butt" stroke-width="2.5"/><path d="M 94.6181 77.2311 C 94.6181 77.2311 40.087 77.5901 32.5407 67.3309 C 21.8658 53.2142 21.078 25.0386 21.078 25.0386 C 21.078 25.0386 18.0546 0.1055 19.0116 0 C 19.9376 -0.1021 50.6907 0.9411 50.6907 0.9411 C 50.6907 0.9411 70.9441 1.5205 86.366 11.0364 C 98.6798 18.6346 107.8661 39.0833 111.8232 49.352 C 115.7803 59.6207 119.4726 75.7867 119.4726 75.7867 Z " data-paper-data="{&quot;origPos&quot;:null}" fill="#ffffff" stroke="#000000" stroke-linecap="round" stroke-width="2.5"/><g stroke-linecap="butt"><path d="M 22.7489 22.0954 L 63.5925 22.274 L 63.5436 33.4555 L 23.8302 33.2514 Z " data-paper-data="{&quot;origPos&quot;:null}" stroke-width="2.5" fill="#ff0000" stroke="none"/><path d="M 24.2171 35.7064 L 48.2223 35.8215 L 48.2094 38.7721 L 24.7693 38.6443 Z " data-paper-data="{&quot;origPos&quot;:null}" stroke-width="2.5" fill="#ff0000" stroke="none"/></g><path d="M 110.2743 48.4135 L 111.7913 56.6512 L 66.7574 55.833 C 66.7574 55.833 44.9607 55.0854 43.228 38.3364 C 41.892 25.4218 62.7001 24.755 62.7001 24.755 L 96.3999 24.9024 Z " fill="#000000" stroke="#000000" stroke-linecap="round" stroke-width="2.5"/><path d="M 50.1067 27.9612 C 54.463 25.4613 64.2295 24.4883 65.0289 24.9205 C 65.7819 25.3306 57.7213 28.271 54.1342 30.3084 C 51.5735 32.0366 47.7356 36.7658 46.6541 36.1771 C 45.6533 35.6292 47.6424 29.6464 50.1067 27.9612 Z " fill="#ffffff" stroke="none" stroke-linecap="round" stroke-width="2.5"/></g><path d="M 41.1289 42.8821 L 30.3602 50.7881 L 28.5058 42.4967 Z " data-paper-data="{&quot;origPos&quot;:null}" fill="#000000" stroke="none" stroke-linecap="round" stroke-width="2.5"/></g><g data-paper-data="{&quot;origRot&quot;:0}"><path d="M 4.0143 170.1605 C -1.9977 164.6577 11.3294 152.3585 19.9278 149.1702 C 30.3553 145.3605 41.7651 151.9257 53.1436 152.5913 C 65.3426 153.3228 79.1551 148.7215 89.7901 154.757 C 96.7126 158.6993 103.0702 171.819 97.1418 176.3072 C 86.5176 185.1575 70.0173 182.6799 56.5054 181.5838 C 38.6648 180.1841 15.9511 181.4692 4.0143 170.1605 Z " data-paper-data="{&quot;origPos&quot;:null}" fill="#000000" stroke="#000000" stroke-linecap="round" stroke-width="2.5"/><path d="M 29.0958 84.9294 C 33.28 81.5484 42.9511 85.7567 43.8588 91.4586 C 45.7373 103.6709 37.399 115.4976 35.008 127.4406 C 31.7508 141.0789 35.1506 157.1739 26.8287 168.2497 C 22.0913 174.5374 6.9954 176.6608 4.2846 169.7807 C -2.0745 154.9875 2.8207 137.2458 7.4903 122.0328 C 11.6456 108.3427 17.924 93.8415 29.0958 84.9294 Z " data-paper-data="{&quot;origRot&quot;:0}" fill="#000000" stroke="#000000" stroke-linecap="round" stroke-width="2.5"/><g><g stroke-linecap="round"><path d="M 112.01 143.5634 C 114.3221 141.2992 119.1086 141.5812 122.6284 141.1437 C 126.0321 140.7356 130.1243 139.4879 132.878 140.794 C 135.2818 141.9349 136.541 145.2021 134.7837 147.0708 C 132.6461 149.3416 128.0347 149.5865 124.4774 150.2264 C 120.6385 150.7328 115.846 152.0872 112.9226 150.4385 C 110.4371 149.0378 110.0116 145.4267 112.01 143.5634 Z " stroke-width="2.5" fill="#363a36" stroke="none"/><path d="M 112.9793 151.8175 C 115.2914 149.5533 120.0779 149.8352 123.5976 149.3978 C 127.0014 148.9897 131.0936 147.742 133.8472 149.0481 C 136.2511 150.189 137.5102 153.4562 135.753 155.3249 C 133.6153 157.5957 129.004 157.8406 125.4467 158.4805 C 121.6078 158.9869 116.8153 160.3413 113.8918 158.6925 C 111.4064 157.2918 110.9809 153.6808 112.9792 151.8175 Z " stroke-width="2.5" fill="#363a36" stroke="none"/><path d="M 113.7028 160.9777 C 116.0149 158.7136 120.8014 158.9955 124.3212 158.558 C 127.7249 158.1499 131.8171 156.9023 134.5708 158.2083 C 136.9746 159.3492 138.2338 162.6165 136.4765 164.4851 C 134.3389 166.7559 129.7275 167.0008 126.1702 167.6407 C 122.3313 168.1471 117.5388 169.5015 114.6154 167.8528 C 112.1299 166.4521 111.7045 162.841 113.7028 160.9777 Z " stroke-width="2.5" fill="#363a36" stroke="none"/><path d="M 115.6657 170.027 C 117.9778 167.7629 122.7643 168.0448 126.284 167.6073 C 129.6878 167.1992 133.78 165.9516 136.5336 167.2576 C 138.9375 168.3985 140.1967 171.6658 138.4394 173.5344 C 136.3018 175.8052 131.6903 176.0501 128.1331 176.6901 C 124.2942 177.1964 119.5017 178.5508 116.5782 176.9021 C 114.0928 175.5014 113.6673 171.8904 115.6656 170.027 Z " stroke-width="2.5" fill="#363a36" stroke="none"/></g><g stroke-linecap="round"><path d="M 93.2798 156.1613 C 102.0583 149.9517 101.9507 148.2654 102.6274 147.504 C 105.3285 144.4597 108.3159 141.2375 112.1315 139.8237 C 115.7401 138.4919 122.6066 138.6416 123.5203 139.4282 C 124.2929 140.3893 118.6245 142.5329 116.0803 143.9144 C 114.4219 144.8188 112.7549 145.7248 111.0683 146.5793 C 109.3154 147.4676 107.5449 148.3356 105.7544 149.1496 C 104.7883 149.5881 103.6217 150.7744 102.7961 150.3399 Z " fill="none" stroke="#353937" stroke-width="2.5"/><path d="M 83.4962 156.9291 C 86.1479 156.5238 88.873 156.413 91.4511 155.6528 C 93.3099 155.1054 95.0895 154.2589 96.8096 153.3617 C 100.376 151.5011 103.5183 148.744 107.3026 147.3837 C 111.8404 145.7597 117.1227 143.6723 122.1681 144.5694 C 124.3243 145.0337 124.3444 148.5319 125.3139 150.7927 C 126.5532 153.7174 127.3691 156.8392 128.07 159.9419 C 129.0041 164.0693 131.4458 168.5447 130.1075 172.6417 C 129.1096 175.5587 125.0864 176.3388 122.1766 177.6359 C 120.4587 178.4041 118.4744 178.4189 116.5942 178.5316 C 114.6769 178.6444 112.7143 178.6902 110.8327 178.3107 C 108.9717 177.9365 107.3402 176.761 105.5002 176.3031 C 103.5916 175.8277 101.6129 175.4325 99.6493 175.524 C 94.0001 175.7892 88.381 176.6878 82.7678 177.3735 C 80.8977 177.602 78.721 179.168 77.1854 178.269 C 72.8759 168.3614 71.6659 163.6199 73.7716 158.7755 C 75.2424 155.9314 80.26 157.5658 83.4962 156.9291 Z " fill="#ffffff" stroke="#ffffff" stroke-width="2.5"/></g><path d="M 105.269 150.3257 C 105.3511 150.0948 105.4249 149.8872 105.4797 149.733 C 105.5331 149.5823 105.5666 149.4886 105.5666 149.4886 C 105.5666 149.4886 105.5331 149.5823 105.4797 149.733 C 105.4249 149.8872 105.3511 150.0948 105.269 150.3257 C 105.1869 150.5567 105.1131 150.7643 105.0584 150.9185 C 105.0049 151.0692 104.9715 151.1629 104.9715 151.1629 C 104.9715 151.1629 105.0049 151.0692 105.0584 150.9185 C 105.1131 150.7643 105.1869 150.5567 105.269 150.3257 Z " fill="#eac18d" stroke="none" stroke-linecap="butt" stroke-width="2.5"/><path d="M 106.8279 170.6057 C 103.4222 166.9858 100.8417 161.6051 101.3252 156.6508 C 101.6561 153.9428 105.9595 153.4522 108.5756 152.5202 C 111.7502 151.3935 115.3616 149.9556 118.8478 150.5755 C 120.3378 150.8963 120.3517 153.3135 121.0218 154.8758 C 121.8781 156.8969 122.4416 159.0538 122.9261 161.1978 C 123.5716 164.0499 125.5781 167.2949 124.3341 169.9733 C 123.2493 172.2267 119.4287 172.5449 116.4345 172.5265 C 113.2453 172.797 109.2094 173.1041 106.8279 170.6057 Z " fill="#000000" stroke="#000000" stroke-linecap="round" stroke-width="2.5"/></g><path d="M 19.9366 178.3917 C 13.4182 176.769 4.6078 171.8802 3.1713 164.717 C 2.6051 158.9854 9.9949 152.9771 15.8159 151.8536 C 27.1537 149.6734 38.5528 157.0045 50.1657 156.6853 C 62.0771 156.9865 73.8196 149.9125 85.6856 151.7989 C 91.4056 152.72 95.1039 159.741 96.6346 165.3338 C 97.8304 169.7191 97.2479 177.0346 93.1356 179.7593 C 87.6245 183.4096 79.8557 182.7892 73.1459 182.509 C 55.5421 181.7815 37.1831 182.6714 19.9367 178.3917 Z " fill="#ffffff" stroke="none" stroke-linecap="round" stroke-width="2.5"/><path d="M 27.1969 86.1891 C 31.2587 82.5695 42.8824 82.4977 43.4638 87.7827 C 44.7677 99.7059 33.8008 109.9048 31.3945 121.8321 C 27.9796 136.0132 33.1108 152.736 26.0999 165.6533 C 22.695 171.9233 7.534 177.7681 5.1752 171.2556 C -0.6543 154.0832 4.9826 134.4944 9.4431 117.4763 C 12.4817 105.8887 18.351 94.0738 27.1969 86.1891 Z " data-paper-data="{&quot;origRot&quot;:0}" fill="#ffffff" stroke="none" stroke-linecap="round" stroke-width="2.5"/></g><path d="M 25.594 129.9112 C 25.594 129.9112 25.3097 114.0189 24.2644 106.6794 C 22.9854 97.7 27.7878 86.5496 27.7878 86.5496 C 27.7878 86.5496 39.6413 84.7497 46.901 86.7955 C 51.8041 88.1771 58.9534 95.3319 58.9534 95.3319 L 60.883 125.8195 Z " fill="#ffffff" stroke="none" stroke-width="2.5" stroke-linecap="butt"/><path d="M271.26145,210.65631l-2.02128,-31.9361l219.56068,-13.89627l2.02128,31.9361z" fill="url(#color-47)" stroke="none" stroke-width="none" stroke-linecap="butt" transform="matrix(1,0,0,1,-121.1965,-1.606)"/></g></g></svg>