<svg version="1.1" xmlns="http://www.w3.org/2000/svg" xmlns:xlink="http://www.w3.org/1999/xlink" width="369.47838" height="391.94983" viewBox="0,0,369.47838,391.94983"><defs><radialGradient cx="19.24771" cy="137.46666" r="134.18808" gradientUnits="userSpaceOnUse" id="color-1"><stop offset="0" stop-color="#f091ff"/><stop offset="1" stop-color="#f091ff" stop-opacity="0"/></radialGradient></defs><g transform="translate(20.00457,-20.9829)"><g data-paper-data="{&quot;isPaintingLayer&quot;:true}" fill-rule="nonzero" stroke-linejoin="miter" stroke-miterlimit="10" stroke-dasharray="" stroke-dashoffset="0" style="mix-blend-mode: normal"><text transform="translate(8.50003,56.9937) scale(1.0003,1.0003)" font-size="40" xml:space="preserve" fill="#ffffff" fill-rule="nonzero" stroke="none" stroke-width="1" stroke-linecap="butt" stroke-linejoin="miter" stroke-miterlimit="10" stroke-dasharray="" stroke-dashoffset="0" font-family="&quot;ヒラギノ角ゴ Pro W3&quot;, &quot;Hiragino Kaku Gothic Pro&quot;, Osaka, &quot;メイリオ&quot;, Meiryo, &quot;ＭＳ Ｐゴシック&quot;, &quot;MS PGothic&quot;" font-weight="normal" text-anchor="start" style="mix-blend-mode: normal"><tspan x="0" dy="0">ArcanisHD</tspan></text><g data-paper-data="{&quot;index&quot;:null}"><path d="M347.47381,365.65423c1.24733,3.37609 -0.04536,3.96217 -0.04536,3.96217c0,0 -12.72365,12.68201 -26.57416,21.57628c-3.05572,1.96227 -5.11509,-1.26748 -8.47878,-0.97833c-2.65491,0.22822 -1.86104,-0.76538 -2.6282,-0.2966c-2.55001,1.55821 -2.91689,0.81662 -2.91689,0.81662c0,0 -9.28515,-13.49764 -10.26068,-14.94504c-1.86727,-2.77043 -7.3397,-12.05436 -7.3397,-12.05436l25.68473,-21.87434l9.15945,7.07638c0,0 4.97207,5.78467 11.99089,6.72005c4.23229,0.56402 10.12021,6.50967 11.4087,9.99715z" fill="#403328" stroke="#292018" stroke-width="4" stroke-linecap="butt"/><path d="M334.02379,371.01393l9.80637,-5.46256l0.23194,3.00696c0,0 -8.22077,7.80848 -12.63749,11.40828c-3.87534,3.15855 -10.90181,7.57002 -10.90181,7.57002c0,0 -1.51456,2.41213 -3.07649,0.29093c-1.56192,-2.12119 16.57747,-16.81363 16.57747,-16.81363z" fill="#775f4a" stroke="none" stroke-width="0" stroke-linecap="butt"/><path d="M315.10148,374.65552c0,0 4.86122,-5.5143 9.18365,-8.98365c3.90912,-3.1376 12.47985,-7.62621 12.47985,-7.62621" fill="none" stroke="#292018" stroke-width="4" stroke-linecap="round"/><path d="M324.71487,349.80707c0,0 -3.09633,5.67375 -5.60183,7.95679c-3.03703,2.76738 -11.33445,7.47573 -11.33445,7.47573l-8.68812,-6.43627l17.89826,-4.29438" fill="none" stroke="#292018" stroke-width="4" stroke-linecap="round"/><path d="M307.47599,363.48799l6.28118,-15.15529l5.78041,5.61571" fill="none" stroke="#292018" stroke-width="4" stroke-linecap="round"/></g><g data-paper-data="{&quot;index&quot;:null}"><path d="" fill="#403328" stroke="#292018" stroke-width="4" stroke-linecap="butt"/><path d="" fill="#775f4a" stroke="none" stroke-width="0" stroke-linecap="butt"/><path d="" fill="none" stroke="#292018" stroke-width="4" stroke-linecap="round"/><path d="" fill="none" stroke="#292018" stroke-width="4" stroke-linecap="round"/><path d="" fill="none" stroke="#292018" stroke-width="4" stroke-linecap="round"/></g><path d="M96.15112,150.63416c3.90878,-5.11154 11.27641,-22.14217 11.27641,-22.14217l76.73296,23.11817c0,0 -5.03082,19.00435 -5.33495,25.90138c-0.19823,4.49541 1.11351,5.74788 1.11351,5.74788c0,0 -4.6832,4.51185 -7.78853,3.65872c-0.99443,-0.27319 -3.1193,-0.87085 -4.54092,-1.21473c-0.56709,-0.13718 -3.46216,8.45908 -3.46216,8.45908c0,0 -4.81735,2.48245 -8.13361,1.62623c-1.37566,-0.35519 -5.73616,-2.39098 -7.20342,-2.72493c-1.6535,-0.37633 -5.39277,0.12964 -8.16965,0.27443c-4.48786,0.234 -9.90297,-1.77104 -9.90297,-1.77104c0,0 -4.11974,-2.91415 -6.9685,-5.44092c-2.35427,-2.08816 -3.26045,-3.77038 -5.40047,-4.57841c-1.43381,-0.54138 -13.30177,-1.14772 -14.10732,-1.41352c-1.95903,-0.64639 -8.87435,-6.93153 -8.87435,-6.93153c0,0 3.66357,-5.90885 2.47971,-6.34879c-1.5806,-0.58738 -2.52503,-4.50289 -3.41117,-4.88526c-2.73987,-1.18228 -3.52183,-6.90084 -3.52183,-6.90084c0,0 2.33504,-0.66463 5.21726,-4.43374z" data-paper-data="{&quot;index&quot;:null}" fill="#14161a" stroke="#14161a" stroke-width="4" stroke-linecap="butt"/><g data-paper-data="{&quot;index&quot;:null}" stroke-linecap="butt"><g><g><path d="M177.26985,202.32597c-0.66128,0.67569 -5.14984,1.56475 -5.67724,1.71126c-16.27795,4.52159 -19.14561,6.4905 -19.14561,6.4905c0,0 -7.63747,-1.61598 -9.10095,-4.18486c-1.04136,-1.82791 1.0089,-9.61102 1.0089,-9.61102c0,0 17.34914,-4.12071 24.32791,-5.1006c1.64561,-0.23107 2.91914,-1.4531 8.5108,-3.03166c4.44959,-1.25615 3.795,9.9266 0.0762,13.72639z" fill="#d9bb9a" stroke="#917c67" stroke-width="4"/><path d="M181.50522,188.83672c1.92093,-0.21173 -1.06601,11.38469 -1.00722,11.91816c0.0588,0.53347 -1.91639,0.46192 -3.83733,0.67364c-1.92093,0.21173 -3.94556,0.87455 -4.00436,0.34109c-0.00979,-0.08887 3.81559,-11.26247 4.46583,-11.55472c1.7173,-0.77182 2.78213,-1.20172 4.38308,-1.37817z" fill="#d9bb9a" stroke="none" stroke-width="0"/><path d="M143.03279,201.98177c-0.44044,-1.67852 5.22563,-3.61115 12.34364,-5.39546c7.118,-1.78433 8.52631,-1.48277 13.57829,-2.58625c3.40335,-0.74338 7.72044,-2.19084 11.38603,-3.53563c6.23858,-2.28872 0.763,8.6231 0.54691,8.78634c-0.19631,0.14831 -5.53935,0.30912 -6.01525,0.36497c-5.46749,0.64156 -12.75005,1.27234 -14.31151,2.02234c-3.44905,1.65666 -8.82213,4.67828 -11.56033,5.3647c-7.118,1.78433 -5.52733,-3.34249 -5.96778,-5.02101z" fill="#ffdbb5" stroke="none" stroke-width="0"/></g><path d="M178.51951,195.84344c-0.55014,2.3724 -2.40766,7.69315 -2.40766,7.69315c0,0 -13.45265,4.56254 -18.70488,5.83261c-5.2252,1.26352 -19.49986,4.20676 -19.49986,4.20676l-6.62517,-16.93033c0,0 10.36562,-3.58317 16.9875,-4.59177c6.77496,-1.03192 30.9329,-4.83891 30.9329,-4.83891c0,0 -0.05112,5.9045 -0.68279,8.6285z" fill="#403328" stroke="#292018" stroke-width="4"/></g><g><path d="M206.52391,184.67528c5.16519,-0.56932 10.54632,-0.60871 10.8946,2.55105c0.1145,1.03883 0.05735,0.89107 -0.62221,1.99051c-0.67283,1.08854 0.63024,1.15371 -0.44222,2.31971c-0.42081,0.4575 0.11032,0.61459 -1.09279,1.44577c-0.82876,0.57255 -2.1496,0.38644 -3.22757,0.97503c-1.59301,0.86981 -3.57702,2.08642 -4.24857,2.16044c-5.16519,0.56932 -9.63471,-1.53065 -9.98299,-4.69041c-0.34828,-3.15976 3.5566,-6.18278 8.72178,-6.75209z" fill="#917c67" stroke="none" stroke-width="NaN"/><g><path d="M217.69044,184.91722c-0.46932,1.522 -13.65419,2.07906 -16.71423,3.91783c-2.78311,1.67236 -3.0652,2.95269 -2.7197,4.85003c0.3229,1.77327 8.95194,-0.58512 9.08746,0.52102c0.1391,1.13539 4.99523,3.59533 -4.07985,5.38533c-7.24142,1.42834 -18.93595,2.15595 -22.42918,3.12627c-2.02151,0.19271 -1.07582,-14.27756 1.62457,-15.03657c1.64561,-0.23107 1.45093,-0.81497 7.04259,-2.39353c5.24083,-1.47952 11.79764,-5.46507 14.11574,-4.97525c7.00417,1.47998 14.96466,1.71193 14.0726,4.60488z" fill="#d9bb9a" stroke="#917c67" stroke-width="4"/><path d="M183.87981,189.92393c6.23858,-2.28872 7.60652,-2.2994 10.84344,-3.54756c3.23692,-1.24816 6.04804,-3.84437 7.79856,-3.85016c4.69346,-0.01551 12.88217,1.79765 9.07628,2.42836c-3.10309,0.51424 -9.22539,0.59238 -12.72837,2.06786c-1.64603,0.69332 -4.22152,1.95806 -4.68681,4.72499c-0.18755,1.11525 2.92315,4.87325 0.54165,5.93041c-1.20879,0.53659 -2.53392,0.32292 -4.27523,0.64471c-7.06769,1.30612 -7.58696,0.39565 -7.80304,0.55889c-1.44948,1.09502 -2.43205,-7.61274 1.23354,-8.9575z" fill="#ffdbb5" stroke="none" stroke-width="0"/></g><path d="M193.67695,191.4944c-0.74942,5.31913 1.19084,10.54957 1.19084,10.54957l-16.13559,1.01578l1.93108,-16.19385l13.94408,-4.99583c0,0 -0.22603,4.62495 -0.93041,9.62434z" fill="#403328" stroke="#292018" stroke-width="4"/><path d="M181.39253,201.17134l-6.63043,1.35753l2.81789,-13.47141l5.99997,-1.1627z" fill="#403328" stroke="none" stroke-width="0"/></g></g><path d="M128.67922,248.0911c0,0 -15.69827,-28.9428 -19.91584,-31.30496c-0.74899,-0.41951 -12.37683,-15.34657 -8.76774,-19.17933c7.34591,-7.80116 9.17951,-15.96896 16.77311,-20.93102c8.29959,-5.42338 20.0059,-7.76517 33.72281,-11.05115c13.32877,-3.193 15.08792,6.15736 15.08792,6.15736c0,0 -5.61805,12.70561 -5.58579,13.55518c0.15607,4.11169 16.03987,29.91087 16.03987,29.91087l26.28028,27.15094c0,0 -5.21705,15.61593 -25.1517,27.95999c-18.5764,11.503 -34.75411,12.88663 -34.75411,12.88663z" data-paper-data="{&quot;index&quot;:null}" fill="#95d2a1" stroke="#67916f" stroke-width="4" stroke-linecap="butt"/><g data-paper-data="{&quot;index&quot;:null}"><g><g><path d="M168.11613,321.16575c0,0 -9.44918,-15.61774 -13.03901,-23.01454c-3.57618,-7.36865 -7.39196,-18.7127 -7.39196,-18.7127l53.56242,-34.49406c0,0 9.74047,9.12982 13.56575,14.39161c7.09783,9.76321 14.49028,22.77506 14.49028,22.77506l-27.93855,18.17066l-3.39106,-4.40234l-3.5707,1.67425l3.32877,4.7066z" fill="#465b9c" stroke="#2e3c67" stroke-width="4" stroke-linecap="butt"/><path d="M189.04233,273.4318c0,0 7.85637,11.70373 9.74108,15.3759c1.01741,1.98233 0.67297,4.91481 0.67297,4.91481" fill="none" stroke="#2e3c67" stroke-width="4" stroke-linecap="round"/><path d="M183.9477,284.8643l-3.71072,-5.67864l8.80534,-5.75387" fill="none" stroke="#2e3c67" stroke-width="4" stroke-linecap="round"/><path d="M161.78357,286.7324c0,0 2.61599,9.08202 3.26499,12.58005c0.48404,2.60897 0.28128,6.53438 0.28128,6.53438" fill="none" stroke="#2e3c67" stroke-width="4" stroke-linecap="round"/><path d="M219.10988,273.23645c0,0 -3.67647,-1.39052 -5.87151,-2.88144c-2.94305,-1.99898 -10.2103,-8.04161 -10.2103,-8.04161" data-paper-data="{&quot;index&quot;:null}" fill="none" stroke="#2e3c67" stroke-width="4" stroke-linecap="round"/><path d="M171.1475,322.64635l-5.07951,-9.31779l24.01993,-15.3707l4.80262,9.49872z" fill="#465b9c" stroke="none" stroke-width="0" stroke-linecap="butt"/><path d="M204.79765,301.61583l-5.29704,-9.17565l22.95098,-15.32254l5.8388,9.03265z" data-paper-data="{&quot;index&quot;:null}" fill="#465b9c" stroke="none" stroke-width="0" stroke-linecap="butt"/></g><g stroke="#281a0d" stroke-width="4" stroke-linecap="butt"><path d="M148.00733,286.82494c0,0 -2.39109,-3.19272 -3.05986,-4.7377c-0.72267,-1.66951 -0.33084,-4.44208 -0.33084,-4.44208l7.94753,-5.61538c0,0 4.73262,1.4375 5.63452,2.81772c0.9019,1.38022 -0.22305,5.46362 -0.22305,5.46362z" fill="#3f2b1a"/><path d="M157.77492,281.4552l-4.07082,-9.49502l8.51173,-5.47759c0,0 4.73262,1.4375 5.63452,2.81772c0.9019,1.38022 -0.22305,5.46363 -0.22305,5.46363z" fill="#67472a"/><path d="M168.02535,275.01026l-4.12102,-9.209l8.56189,-5.76363c0,0 4.73262,1.4375 5.63452,2.81772c0.9019,1.38022 -0.22306,5.46362 -0.22306,5.46362z" fill="#3f2b1a"/><path d="M179.16285,268.32869l-5.62281,-9.08331l9.32268,-6.14158c0,0 4.78204,1.19933 5.74674,2.53611c0.9647,1.33679 0.04145,5.4846 0.04145,5.4846z" fill="#67472a"/><path d="M189.0592,261.35104l-4.89247,-9.05409l8.59236,-6.17082c0,0 4.78203,1.19933 5.74673,2.5361c0.9647,1.33678 0.04146,5.48461 0.04146,5.48461z" fill="#3f2b1a"/><path d="M199.08388,254.55153l-5.00099,-8.72995l6.65572,-5.15854c0,0 4.18291,1.59083 5.13393,2.93655c0.95104,1.34571 0.57229,5.13773 0.57229,5.13773z" fill="#67472a"/></g><path d="M153.10885,285.35088l-5.98541,-11.28005l4.73612,-3.27138l7.48067,10.30296z" fill="#465b9c" stroke="#2e3c67" stroke-width="4" stroke-linecap="butt"/><g fill="#67472a" stroke="#281a0d" stroke-width="4" stroke-linecap="butt"><path d="M198.05551,253.87283l-0.16387,-10.18138l10.20722,-1.62833c0,0 3.59837,3.18943 3.83225,4.80057c0.23388,1.61114 -2.42898,4.86628 -2.42898,4.86628z"/></g><path d="M173.63611,274.88915c0,0 -3.71237,-3.50429 -5.05543,-5.55962c-1.32374,-2.02576 -2.94581,-6.68493 -2.94581,-6.68493l14.62019,-9.5536c0,0 4.4428,3.89648 5.85154,6.05232c1.23555,1.89081 2.1497,6.19223 2.1497,6.19223z" fill="none" stroke="#716b65" stroke-width="4" stroke-linecap="butt"/><path d="M198.16752,255.98386l-6.43207,-10.98817l4.89781,-3.02393l7.92734,10.01109z" data-paper-data="{&quot;index&quot;:null}" fill="#465b9c" stroke="#2e3c67" stroke-width="4" stroke-linecap="butt"/></g><path d="M189.82116,310.71391c1.65445,2.53185 -10.50974,7.92276 -14.67699,10.64586c-2.22896,1.45652 -6.60401,-9.385 -7.34272,-12.29503c-0.87857,-3.4609 2.05978,-9.36497 6.22703,-12.08807c4.16724,-2.7231 14.13824,11.2054 15.79268,13.73724z" fill="#5671c0" stroke="none" stroke-width="0" stroke-linecap="butt"/><path d="M209.57139,299.5834c-1.65445,-2.53185 -10.40695,-17.25656 -6.23972,-19.97965c4.16724,-2.7231 10.75432,-3.04343 13.57117,-0.84909c2.36849,1.84505 10.54083,10.2052 8.31188,11.66172c-4.16724,2.7231 -13.98888,11.69888 -15.64332,9.16703z" data-paper-data="{&quot;index&quot;:null}" fill="#5671c0" stroke="none" stroke-width="0" stroke-linecap="butt"/></g><path d="M156.25,201.15697c0.78343,1.19891 3.83432,8.00643 6.16732,10.69019c8.02592,9.2326 20.91124,19.8503 19.94769,22.06517c-2.36669,5.44018 -17.24955,13.02024 -21.40665,15.79409c-3.37177,2.24982 -15.31686,10.42231 -20.86336,9.54288c-4.30376,-0.68239 -6.37861,-13.57501 -11.77178,-25.12574c-1.55732,-3.33535 -6.42612,-8.43449 -7.9588,-10.78001c-1.65242,-2.52875 -12.70963,-11.49347 -15.6396,-13.26447c-1.07267,-0.64836 -3.22088,3.30425 -5.12416,3.64745c-1.65069,0.29765 -3.09024,-2.96312 -3.81556,-3.89041c-1.4202,-1.81569 0.47484,-6.80851 3.46839,-10.54399c2.99353,-3.73549 13.62772,-14.10397 19.20412,-17.74788c5.74428,-3.75361 18.33178,-9.75952 24.70915,-10.65405c1.20265,-0.1687 8.60361,-1.9143 9.45856,0.93677c0.61751,2.05925 2.88526,5.28194 1.50691,7.00116c-1.5166,1.89168 -6.71165,2.2214 -6.35039,3.15476c1.73204,4.47512 6.81927,16.65073 8.46818,19.1741z" data-paper-data="{&quot;index&quot;:null}" fill="#a6eab4" stroke="none" stroke-width="0" stroke-linecap="butt"/><g data-paper-data="{&quot;index&quot;:null}" stroke-linecap="butt"><path d="M113.1971,199.3466l-3.9176,-7.88931c0,0 10.5446,-8.75503 19.54493,-14.5112c9.00034,-5.75618 24.77736,-12.954 24.77736,-12.954l3.04396,4.65826z" fill="#292018" stroke="#292018" stroke-width="4"/><g><path d="M115.08075,176.55122l27.89355,-17.93902l7.67623,11.00724c0,0 0.73921,10.24932 -6.80706,15.05584c-7.30686,4.65401 -24.19349,4.11892 -24.19349,4.11892z" fill="#d9bb9a" stroke="#917c67" stroke-width="4"/><path d="M142.79275,177.9805c0.67246,1.02908 -0.15956,3.77613 -2.43053,5.2601c-2.27096,1.48397 -5.12094,1.14291 -5.79338,0.11384c-0.67246,-1.02908 1.08725,-2.35647 3.35823,-3.84044c2.27096,-1.48397 4.19324,-2.56257 4.86569,-1.5335z" fill="#ffdbb5" stroke="none" stroke-width="0"/></g></g><g data-paper-data="{&quot;index&quot;:null}" stroke-linecap="butt"><g data-paper-data="{&quot;index&quot;:null}" fill="#403328"><g><path d="M214.23897,258.6568c-4.45504,3.7289 -22.69933,5.20512 -22.69933,5.20512c0,0 -27.61483,-42.65114 -38.2267,-57.34145c-9.83299,-13.61208 -14.45515,-21.23814 -14.45515,-21.23814c0,0 4.03012,-7.59564 3.1009,-12.90999c-0.56516,-3.23226 -2.58015,-4.6187 -1.45175,-5.75383c2.66814,-2.68404 5.20157,-1.86125 11.76574,-2.44722c6.56417,-0.58596 15.36449,1.16907 17.8765,2.48217c2.512,1.3131 -3.73813,4.90832 -3.73813,4.90832c0,0 -3.18458,6.1731 -5.50374,10.02296c-1.80154,2.99061 11.79988,22.76214 11.79988,22.76214l7.92161,12.19997l31.0855,30.01692c0,0 5.54869,9.56197 2.5247,12.09308z" stroke="#292018" stroke-width="4"/><path d="M166.53714,167.78606c0,0 3.04846,1.04181 3.96734,1.6514c0.86764,0.57558 2.04797,2.24696 2.04797,2.24696c0,0 -6.55627,12.62509 -7.93322,14.36033c-0.45567,0.57424 -3.89171,2.46888 -6.05467,0.07684c-2.16297,-2.39203 -1.87265,-6.26776 -1.87265,-6.26776z" stroke="none" stroke-width="NaN"/></g><path d="M143.16575,173.69955c-0.69481,2.93281 -2.95455,7.63609 -2.95455,7.63609l-4.71833,-9.26183l4.63272,-10.79499l2.75906,3.1444c0,0 1.00473,6.22178 0.2811,9.27632z" stroke="#292018" stroke-width="4"/></g><path d="M153.49991,192.1113c1.06681,1.63259 1.38755,3.31158 0.71641,3.75014c-0.67115,0.43857 -2.08005,-0.52937 -3.14686,-2.16196c-1.06681,-1.63259 -1.38756,-3.31158 -0.71642,-3.75014c0.67115,-0.43857 2.08005,0.52936 3.14687,2.16196z" fill="#dfbd28" stroke="#dfbd28" stroke-width="4"/><path d="M165.67929,210.28539c1.06681,1.63258 1.38755,3.31158 0.71641,3.75014c-0.67115,0.43857 -2.08005,-0.52937 -3.14686,-2.16196c-1.06681,-1.63258 -1.38755,-3.31158 -0.71641,-3.75014c0.67115,-0.43857 2.08005,0.52937 3.14686,2.16195z" fill="#dfbd28" stroke="#dfbd28" stroke-width="4"/><path d="M177.84943,227.84823c1.06681,1.63258 1.38756,3.31158 0.71642,3.75014c-0.67115,0.43857 -2.08005,-0.52937 -3.14686,-2.16196c-1.06681,-1.63258 -1.38756,-3.31158 -0.71642,-3.75014c0.67115,-0.43857 2.08005,0.52938 3.14686,2.16196z" fill="#dfbd28" stroke="#dfbd28" stroke-width="4"/><path d="M189.32961,244.42152c1.06681,1.63258 1.38756,3.31158 0.71642,3.75014c-0.67115,0.43857 -2.08005,-0.52937 -3.14686,-2.16195c-1.06681,-1.63258 -1.38755,-3.31158 -0.71641,-3.75014c0.67115,-0.43857 2.08004,0.52937 3.14686,2.16196z" fill="#dfbd28" stroke="#dfbd28" stroke-width="4"/></g><g data-paper-data="{&quot;index&quot;:null}" stroke-linecap="butt"><g fill="#465b9c"><path d="M178.92546,342.56308c-3.25585,-6.90391 -12.56005,-24.53284 -12.56005,-24.53284l27.8182,-16.66379c0,0 15.38245,22.697 19.11646,30.36312c3.92916,8.06675 9.41278,20.66017 9.41278,20.66017c0,0 -7.36157,10.04709 -11.75138,12.93541c-4.19616,2.7609 -14.22096,4.88477 -14.22096,4.88477c0,0 -13.90238,-19.35016 -17.81503,-27.64684z" stroke="#2e3c67" stroke-width="4"/><path d="M169.08947,319.34921l-2.35369,-3.92079l20.60615,-12.39378l2.35369,3.92078z" stroke="none" stroke-width="0"/></g><path d="M175.22542,325.04066c-6.8227,-12.46057 -11.55092,-23.50481 -6.44872,-26.74253c11.79704,-7.48606 17.22015,4.63514 28.11124,24.97267c6.4709,12.08348 12.30654,26.40927 12.81609,33.80484c0.25464,3.69569 -1.99105,6.46995 -3.4603,7.43004c-2.15831,1.41036 -4.93942,2.08081 -7.30846,0.69543c-1.42825,-0.8352 -2.29623,-4.90408 -4.59722,-7.88099c-1.67967,-2.1731 -3.67166,-5.02957 -6.09244,-8.73416c-3.35344,-5.13188 -10.11825,-18.24535 -13.02019,-23.5453z" fill="#5671c0" stroke="none" stroke-width="0"/></g><g data-paper-data="{&quot;index&quot;:null}" stroke-linecap="butt"><g fill="#465b9c"><path d="M184.53414,408.93076l-1.71828,-2.44476l1.4399,-3.60196c0,0 1.05394,-18.52852 1.85517,-23.1092c1.31664,-7.52713 3.36811,-30.22302 3.36811,-30.22302l32.619,0.48555c0,0 1.27807,29.13756 -0.0808,37.56348c-0.56611,3.51023 -2.73183,17.10282 -2.73183,17.10282l-0.27924,4.08021l-1.93816,2.09581z" stroke="#2e3c67" stroke-width="4"/><path d="M192.45377,352.42973l0.33148,-5.36645l28.46323,-0.00616c0,0 -0.37942,5.30594 -1.06768,6.39598c-0.26597,0.42125 -6.72118,0.24926 -6.72118,0.24926z" stroke="none" stroke-width="0"/></g><path d="M194.15014,349.05119c1.07456,-4.22936 3.39124,-2.30666 6.41129,-2.31242c4.21715,1.20066 9.38411,-2.27834 8.7229,1.40729c-3.18831,17.77177 -3.15173,40.02509 -3.56409,46.00954c-0.23249,3.37397 2.64766,10.37426 -1.31114,12.20077c-1.53877,0.70994 -5.42151,1.47937 -8.44886,0.83923c-3.18376,-0.67323 -5.22861,-1.2369 -6.42757,-2.83348c-1.19895,-1.59659 1.53426,-4.26375 0.76673,-4.70485c-2.44516,-1.40521 1.86678,-16.50349 2.58462,-26.92118c0.38214,-5.54593 0.0429,-18.87028 1.26615,-23.6849z" fill="#5671c0" stroke="none" stroke-width="0"/></g><path d="M105.89953,140.77726c7.60222,-25.22135 27.15399,-34.98943 49.2805,-28.32005c22.12652,6.66939 33.02331,25.61526 25.42111,50.83661c-7.60222,25.22136 -34.30385,36.03465 -44.4528,33.19166c-23.30442,-6.52817 -37.85103,-30.48686 -30.24881,-55.70822z" data-paper-data="{&quot;index&quot;:null}" fill="#d9bb9a" stroke="#917c67" stroke-width="4" stroke-linecap="butt"/><path d="M174.67202,162.06018c-6.08178,20.17708 -26.49398,31.95626 -36.72882,28.87127c-20.16133,-5.75263 -32.27234,-27.65935 -26.19055,-47.83644c6.08178,-20.17708 21.70443,-30.54336 42.08757,-24.39948c20.12942,6.0674 26.9136,23.18756 20.83183,43.36465z" fill="#ffdbb5" stroke="none" stroke-width="0" stroke-linecap="butt"/><path d="M153.41903,173.80163c-0.40803,1.28306 -4.05049,3.42511 -7.11867,2.44938c-3.06818,-0.97573 -4.32344,-2.98827 -3.91541,-4.27132c0.40803,-1.28306 2.32484,-1.35079 5.39303,-0.37506c3.06819,0.97573 6.04909,0.91394 5.64105,2.19701z" fill="#d9bb9a" stroke="none" stroke-width="0" stroke-linecap="butt"/><path d="M134.34318,186.26066c-6.09828,-1.98989 -11.18629,-9.1282 -7.21556,-13.27887c3.97073,-4.15067 12.34812,7.91372 12.34812,7.91372l8.8683,1.21057c0,0 -7.90257,6.14447 -14.00086,4.15458z" fill="#ffffff" stroke="#d9bb9a" stroke-width="4" stroke-linecap="round"/><g data-paper-data="{&quot;index&quot;:null}" stroke-linecap="butt"><g fill="#465b9c"><path d="M257.76178,321.98192c0,0 -12.88432,-4.7833 -21.15533,-8.26961c-7.8602,-3.31314 -31.318,-17.50872 -31.318,-17.50872l15.54028,-29.22476c0,0 18.10617,8.34617 25.18027,11.22153c8.50123,3.45543 28.5339,16.3567 28.5339,16.3567c0,0 -1.70203,10.29272 -4.29455,14.71628z" stroke="#2e3c67" stroke-width="4"/><path d="M210.70883,291.31015l-4.03915,-2.14451l11.56178,-21.65117l4.03915,2.14451z" stroke="none" stroke-width="0"/></g><path d="M250.66812,289.9553c3.8249,2.22582 6.88063,3.89549 9.13544,5.46437c3.08887,2.1492 7.15597,3.67547 8.05624,5.07185c1.49331,2.31616 2.00724,2.54274 0.68353,4.81743c-0.90109,1.54846 -4.60171,5.73263 -8.32449,5.70203c-7.44982,-0.06121 -21.07846,-6.83168 -33.49306,-12.64718c-20.89486,-9.78801 -33.30231,-14.53906 -26.29085,-26.9584c3.03244,-5.37135 13.82294,-0.38991 26.63143,5.75898c5.44793,2.61536 23.60175,12.79093 23.60175,12.79093z" fill="#5671c0" stroke="none" stroke-width="0"/></g><g data-paper-data="{&quot;index&quot;:null}" stroke-linecap="butt"><g fill="#465b9c"><path d="M304.05346,356.46158c-4.32908,3.16712 -15.15868,9.02404 -15.15868,9.02404l-2.09982,-4.48047l-2.73737,-0.6521l-2.5531,-3.19467c0,0 -9.48691,-9.96181 -11.9423,-12.53065c-5.89386,-6.16621 -21.52637,-30.78276 -21.52637,-30.78276l25.63885,-18.37047c0,0 14.5974,17.49557 19.94417,22.94744c3.25381,3.31777 14.67759,17.94291 14.67759,17.94291l3.20203,2.16269l0.03163,2.95306l3.84063,2.41678c0,0 -7.17913,9.53677 -11.31721,12.56416z" stroke="#2e3c67" stroke-width="4"/><path d="M257.46255,311.74762c0,0 -5.0305,3.69776 -5.4825,3.4986c-1.16964,-0.51535 -4.50269,-4.66074 -4.50269,-4.66074l22.96283,-16.18075l3.49139,4.10231z" stroke="none" stroke-width="0"/></g><path d="M281.65858,318.01063c6.52257,8.154 18.57497,18.16899 17.43513,20.66942c-0.35779,0.78488 3.33768,1.46784 3.29732,3.43871c-0.04037,1.97087 -1.34299,3.5601 -3.48788,5.86672c-2.03951,2.19331 -5.56403,3.70112 -7.19225,3.96631c-4.18893,0.68223 -5.90026,-6.6496 -8.01272,-9.29042c-3.74688,-4.68406 -16.43241,-22.96689 -29.11961,-35.79503c-2.63115,-2.6604 3.46182,-2.6521 6.12641,-5.96095c2.40276,-1.65922 3.14486,-4.51354 6.41508,-1.63467c3.72277,3.27726 11.06619,14.39908 14.53852,18.73991z" fill="#5671c0" stroke="none" stroke-width="0"/></g><g data-paper-data="{&quot;index&quot;:null}" stroke="none" stroke-width="0" stroke-linecap="butt"><path d="M177.92152,168.64526c-2.21757,6.97316 -9.10715,11.00672 -15.38832,9.00922c-6.28115,-1.9975 -9.57535,-9.26966 -7.35779,-16.2428c2.21757,-6.97316 9.10715,-11.0067 15.38831,-9.0092c6.28116,1.9975 9.57535,9.26967 7.35779,16.24281z" fill="#d3f0f1"/><path d="M169.14494,153.01255c5.21336,1.65793 7.79289,8.18015 5.76153,14.56777c-2.03135,6.38762 -7.90438,10.22178 -13.11774,8.56386c-5.21336,-1.65793 -7.79289,-8.18013 -5.76153,-14.56775c2.03135,-6.38762 7.90437,-10.2218 13.11773,-8.56387z" fill="#ffffff"/></g><g data-paper-data="{&quot;index&quot;:null}" stroke="none" stroke-width="0" stroke-linecap="butt"><g data-paper-data="{&quot;index&quot;:null}"><path d="M170.4506,165.95992c-1.73722,5.46271 -6.2848,8.89273 -10.1573,7.66122c-3.87251,-1.23152 -5.60348,-6.65822 -3.86626,-12.12092c1.73722,-5.46269 6.28477,-8.89274 10.15728,-7.66123c3.87251,1.23152 5.6035,6.65825 3.86629,12.12094z" fill="#41563d"/><path d="M160.97501,170.2572c-3.58023,-1.13857 -4.60255,-6.75298 -3.64319,-9.7697c0.95936,-3.01672 3.99081,-7.99669 9.68782,-6.18496c3.58023,1.13857 4.76593,7.45967 3.80657,10.47637c-0.95936,3.01671 -6.27095,6.61685 -9.85118,5.47829z" fill="#5f7d59"/></g><path d="M158.67931,158.57611c0.72951,-2.29394 3.18049,-3.56217 5.47442,-2.83266c2.29394,0.72951 3.56217,3.1805 2.83266,5.47444c-0.72951,2.29395 -3.1805,3.56217 -5.47444,2.83266c-2.29394,-0.72951 -3.56216,-3.18049 -2.83265,-5.47443z" fill="#8ebb85"/><path d="M160.89336,163.85382c0.40356,-1.26899 1.75943,-1.97056 3.02842,-1.56701c1.26899,0.40356 1.97057,1.75943 1.56701,3.02842c-0.40356,1.26899 -1.75943,1.97057 -3.02842,1.56701c-1.26899,-0.40356 -1.97056,-1.75944 -1.567,-3.02843z" fill="#8ebb85"/></g><g data-paper-data="{&quot;index&quot;:null}" stroke="none" stroke-width="0" stroke-linecap="butt"><path d="M133.22341,139.63789c6.28115,1.9975 9.57536,9.26966 7.35779,16.24282c-2.21757,6.97316 -9.10715,11.0067 -15.38831,9.0092c-6.28114,-1.9975 -9.57536,-9.26965 -7.35779,-16.2428c2.21757,-6.97316 9.10716,-11.00671 15.38831,-9.00921z" fill="#d3f0f1"/><path d="M139.79069,155.52317c-2.03136,6.38763 -7.90437,10.22179 -13.11772,8.56386c-5.21335,-1.65793 -7.79289,-8.18013 -5.76154,-14.56775c2.03136,-6.38762 7.90438,-10.2218 13.11773,-8.56387c5.21336,1.65793 7.79289,8.18013 5.76153,14.56776z" fill="#ffffff"/></g><g data-paper-data="{&quot;index&quot;:null}" stroke="none" stroke-width="0" stroke-linecap="butt"><g data-paper-data="{&quot;index&quot;:null}"><path d="M129.7898,140.76701c3.87251,1.23152 5.60348,6.65824 3.86626,12.12093c-1.73722,5.46271 -6.28477,8.89275 -10.15729,7.66123c-3.87251,-1.23152 -5.6035,-6.65823 -3.86628,-12.12094c1.73722,-5.46269 6.28478,-8.89274 10.1573,-7.66122z" fill="#41563d"/><path d="M120.0081,147.24722c0.95936,-3.01672 5.57838,-7.49182 9.15861,-6.35325c5.697,1.81173 5.29512,7.62795 4.33576,10.64467c-0.95936,3.01671 -5.03686,7.00931 -8.61708,5.87075c-3.58024,-1.13857 -5.83664,-7.14543 -4.87728,-10.16215z" fill="#5f7d59"/></g><path d="M128.03209,152.03268c-2.29394,-0.72951 -3.56217,-3.1805 -2.83266,-5.47444c0.72951,-2.29394 3.1805,-3.56218 5.47444,-2.83267c2.29394,0.72951 3.56215,3.1805 2.83264,5.47445c-0.72951,2.29394 -3.18049,3.56217 -5.47443,2.83266z" fill="#8ebb85"/><path d="M125.62229,153.79642c-1.26899,-0.40356 -1.97056,-1.75943 -1.56701,-3.02842c0.40355,-1.26899 1.75943,-1.97057 3.02842,-1.56702c1.26899,0.40356 1.97056,1.75944 1.567,3.02843c-0.40356,1.26899 -1.75943,1.97056 -3.02842,1.567z" fill="#8ebb85"/></g><g data-paper-data="{&quot;index&quot;:null}" stroke="#292018" stroke-width="4"><path d="M143.10458,289.71178l-14.61498,-37.70679l-9.10363,-14.30835c0,0 -41.97733,-52.92182 -37.43974,-59.59031c4.53757,-6.6685 16.08247,14.12418 20.48094,12.19049c1.86021,-0.81778 2.10291,1.72674 5.14021,3.34359c4.99379,2.65834 15.33574,0.86252 15.33574,0.86252c0,0 5.19922,7.24898 13.53302,21.84071c8.99391,15.74756 37.01731,58.13172 37.01731,58.13172c0,0 -5.95726,15.20261 -12.51548,18.67032c-4.45161,2.35384 -17.83337,-3.43395 -17.83337,-3.43395z" fill="#403328" stroke-linecap="butt"/><path d="M104.66297,188.14608l-3.42827,-4.72366l16.79531,-1.47874l6.84985,12.99321c0,0 -5.94259,-0.73551 -9.42068,-0.94151c-3.62247,-0.21456 -10.79622,-5.8493 -10.79622,-5.8493z" fill="#403328" stroke-linecap="butt"/><path d="M127.75141,214.60909l-4.3716,-8.04917" fill="none" stroke-linecap="round"/><path d="M138.33536,232.09726l-4.20734,-6.09882" fill="none" stroke-linecap="round"/><path d="M150.09081,250.63069l-4.08458,-6.59056" fill="none" stroke-linecap="round"/><path d="M161.21556,269.08241l-4.55571,-7.31153" fill="none" stroke-linecap="round"/></g><path d="M107.7737,152.66333c-0.62041,5.55344 -0.28188,8.84749 -1.94521,9.3079c-1.66333,0.46041 -6.36691,-5.06397 -5.7465,-10.61741c0.62041,-5.55344 5.95055,-8.75119 7.62778,-8.34429c3.05277,0.74063 0.68436,4.10034 0.06394,9.65379z" data-paper-data="{&quot;index&quot;:null}" fill="#d9bb9a" stroke="#917c67" stroke-width="4" stroke-linecap="butt"/><g data-paper-data="{&quot;index&quot;:null}"><g><path d="M105.76975,142.80544c-1.06033,2.5071 -6.08419,3.02663 -6.08419,3.02663c0,0 -3.16524,0.45417 -3.52869,-2.44312c-0.29599,-2.35966 -3.04525,-6.87974 -3.04525,-6.87974c0,0 2.33544,-2.09241 5.18472,-4.39719c0.73631,-0.59561 -2.34052,-3.90106 -2.87349,-5.7261c-0.53298,-1.82503 -0.03238,-9.93718 -0.03238,-9.93718c0,0 7.36568,-0.37516 10.2573,-4.20719c1.43479,-1.90141 2.52122,-5.3617 3.50275,-6.54599c5.59234,-6.74748 4.3353,-9.01523 9.63778,-11.79135c0.55414,-0.29013 9.73683,-3.12701 10.23343,-3.38997c8.64953,-4.58004 9.9366,-4.55953 20.24863,-2.44343c10.90409,2.23759 19.80991,1.13244 25.14591,6.25754c3.48427,3.34658 12.22218,11.59291 18.60385,16.22607c4.54267,9.34813 5.88222,14.85317 3.7651,24.23108c-0.67915,3.00834 -3.72858,4.31332 -3.45714,7.75356c0.12313,1.56056 3.99326,14.3131 3.99326,14.3131c0,0 -2.59312,3.07471 -5.07791,3.81579c-2.46185,0.73424 -4.57134,-0.34818 -5.40989,0.59056c-1.82928,2.04781 -1.5541,4.81009 -2.46384,6.45685c-0.66183,1.19803 -1.41447,1.71566 -2.64527,2.6448c-2.07757,1.56836 -1.14608,-1.57112 -0.41392,-3.60671c1.36861,-3.80499 1.30606,-6.83628 1.11901,-6.21638c-1.72946,0.295 -0.50095,0.64717 -6.68398,-2.53848c-0.34392,-0.1772 -0.75505,-3.26125 -1.82024,-4.83295c-1.06519,-1.5717 -0.96108,-5.99985 -0.96108,-5.99985c0,0 -11.33396,1.57478 -15.75014,0.60995c-6.3713,-1.39196 -14.18334,-1.47858 -17.60988,-2.95225c-8.37607,-3.60235 -11.91982,-5.82735 -15.32329,-6.98702c-3.16782,-1.07937 -9.78006,0.38461 -11.51193,-1.14033c0,0 -5.60737,2.81828 -6.99923,6.10929z" fill="#252931" stroke="#14161a" stroke-width="4" stroke-linecap="butt"/><path d="M175.0141,139.21686c-25.33172,2.39047 -45.59894,-7.78243 -64.15439,-11.60604c-3.84127,-0.79155 -4.11241,-4.209 -4.11241,-4.209c0,0 8.39924,-5.07718 11.39739,-14.50488c1.44297,-4.53741 10.0909,-12.34 19.69047,-14.97298c7.97948,-2.18861 21.97171,1.33252 29.1624,2.00946c4.65688,0.43841 3.40747,3.89049 7.35424,5.14562c11.20323,3.56279 8.06378,10.14867 9.47949,18.4388c1.03041,6.03395 -5.19699,19.35738 -8.81719,19.69901z" fill="#494c5e" stroke="none" stroke-width="0" stroke-linecap="butt"/><path d="M173.92648,109.76106c0.40673,-1.27897 -5.74531,-0.01458 -5.79783,-1.89499c-0.03854,-1.38011 2.80225,-2.61021 3.94648,-4.3143c0.3293,-0.4904 0.18738,-2.81011 -1.44987,-4.61756c-1.3627,-1.50435 -4.27478,-2.54373 -4.05752,-2.89805c0.88255,-1.43944 8.73516,2.48415 9.62046,2.76569c3.51447,1.11765 13.20744,14.77767 12.05431,18.40372c-0.06995,0.21998 -1.2027,19.97019 -9.27506,25.9202c-1.16567,0.85921 -8.24732,-1.38126 -8.02201,-3.47362c0.07084,-0.65783 -3.77247,-3.01048 -2.11304,-4.69212c2.26076,-2.29099 11.01811,-2.42211 10.97505,-3.23802c-0.12297,-2.32985 -14.12085,0.33427 -14.28448,-3.0488c-0.16362,-3.38308 15.72579,-7.01675 14.42672,-9.88642c-3.30165,0.23427 -12.16064,2.98542 -12.78427,1.39239c-1.88979,-4.82747 5.6079,-6.7921 6.76103,-10.41814z" fill="#252931" stroke="none" stroke-width="0" stroke-linecap="butt"/><path d="M122.40504,127.45852c-0.95732,0.94061 1.7108,0.62535 3.33057,1.64882c1.61975,1.02348 7.39409,3.48787 5.58608,4.45962c-0.9534,0.51242 -10.22635,-3.41228 -11.01373,-2.94619c-1.45298,0.86009 -4.24645,1.131 -4.89754,0.46836c-1.56687,-1.59469 -10.81852,-1.22801 -10.67733,-6.55161c0.09171,-3.45815 7.44363,-7.66338 8.5124,-8.7135c0.16465,-0.16178 6.843,-17.11075 16.7603,-18.5983c1.43208,-0.2148 10.06062,-0.06691 8.88355,1.67757c-0.37007,0.54846 -7.06692,5.18869 -9.31989,5.89982c-3.06937,0.96881 -5.87757,1.73718 -6.22083,2.47863c-0.98016,2.11722 13.36981,3.47457 12.31884,5.3298c-1.66943,2.94702 -17.06424,1.83639 -16.52805,3.44097c0.61137,1.82956 7.98158,1.31285 15.11678,2.02077c5.52605,0.54826 11.37419,2.33443 10.90616,3.33317c-0.4345,0.92719 -2.62781,3.00805 -4.63153,3.32646c-5.82978,0.92646 -16.10594,0.74101 -18.12582,2.72563z" fill="#252931" stroke="none" stroke-width="0" stroke-linecap="butt"/><path d="M181.91988,143.31198c0,0 -6.96964,4.06775 -7.99827,4.16403c-2.05694,0.19253 -6.05524,-0.15785 -6.05524,-0.15785" fill="none" stroke="#14161a" stroke-width="4" stroke-linecap="round"/><path d="M149.12309,104.20654c0.38643,-3.13735 4.1009,-4.97311 7.87736,-4.50795c3.77643,0.46515 9.24214,1.13553 8.85572,4.27289c-0.38643,3.13735 -6.63501,5.94679 -10.41145,5.48163c-3.77643,-0.46515 -6.70804,-2.10923 -6.32162,-5.24656z" fill="#686c85" stroke="none" stroke-width="0" stroke-linecap="butt"/><path d="M134.83223,105.66094c0.22312,-1.81144 3.4479,-2.87873 5.62834,-2.61017c2.18043,0.26857 4.09765,1.61495 3.87452,3.42638c-0.22312,1.81144 -2.38287,2.32764 -4.5633,2.05908c-2.18043,-0.26857 -5.16271,-1.06386 -4.93957,-2.87529z" fill="#686c85" stroke="none" stroke-width="0" stroke-linecap="butt"/><path d="M158.9033,114.5398c-0.05327,-1.82433 1.2765,-2.13178 3.47247,-2.1959c2.19597,-0.06413 3.93021,-0.79718 3.98349,1.02716c0.05327,1.82433 -2.00361,2.6611 -4.19958,2.72522c-2.19597,0.06413 -3.20308,0.26787 -3.25636,-1.55647z" fill="#686c85" stroke="none" stroke-width="0" stroke-linecap="butt"/></g><path d="M187.8006,154.27066c-1.58587,-0.16181 -0.89841,3.32765 -1.92067,3.00256c-1.07594,-0.34216 -2.22228,-2.83853 -3.01408,-4.67177c-1.01454,-2.34898 -1.422,-3.66626 -1.06329,-4.79422c0.38982,-1.2258 0.33645,-0.22096 1.80448,-0.09197c0.93708,0.08233 3.45374,-3.85823 4.41009,-3.5541c0.91111,0.28975 0.08248,2.2832 0.78664,4.4866c0.112,0.35045 2.99464,-5.43556 3.28198,-2.89906c0.15941,1.4072 2.66242,5.50894 2.5601,9.51565c-0.10232,4.00671 -3.00981,-2.97929 -4.36118,-2.49359c-1.35136,0.48568 1.06365,2.69571 0.74629,3.69365c0,0 -1.00839,-1.96705 -3.23037,-2.19377z" fill="#494c5e" stroke="none" stroke-width="0" stroke-linecap="butt"/><path d="M190.05535,124.29802c0.14969,1.08263 -1.67708,2.20621 -5.62091,2.75153c-3.94382,0.54532 -5.37642,0.70948 -5.52613,-0.37315c-0.1497,-1.08262 2.11783,-2.65935 6.06166,-3.20466c3.94382,-0.54532 4.93566,-0.25635 5.08537,0.82627z" fill="#494c5e" stroke="none" stroke-width="0" stroke-linecap="butt"/></g><path d="M174.75621,154.34007c-5.35274,1.14041 -12.02464,3.33953 -12.71584,0.43034c-0.69117,-2.90917 10.58158,-6.92045 15.93432,-8.06087c5.35274,-1.1404 8.32979,0.269 9.02096,3.17817c0.69117,2.90917 -6.88671,3.31193 -12.23946,4.45234z" data-paper-data="{&quot;index&quot;:null}" fill="#424956" stroke="#14161a" stroke-width="4" stroke-linecap="butt"/><path d="M126.26748,127.38707c2.27432,-1.94124 5.50959,-1.32299 9.15887,2.75563c3.64928,4.07862 10.38502,13.96776 8.1107,15.90901c-2.27432,1.94125 -6.3642,-3.77047 -10.0135,-7.84907c-3.64928,-4.07862 -9.53042,-8.87432 -7.2561,-10.81556z" data-paper-data="{&quot;index&quot;:null}" fill="#424956" stroke="#14161a" stroke-width="4" stroke-linecap="butt"/><g data-paper-data="{&quot;index&quot;:null}" stroke-linecap="butt"><g><g><g><path d="M57.49705,151.62745c6.50359,5.0572 7.52463,7.34208 9.56322,8.52364c8.6453,5.01081 29.23848,19.68079 29.23848,19.68079c0,0 -1.45923,11.31868 -3.80252,13.16441c-3.29323,2.59394 -8.12834,0.0801 -8.12834,0.0801c0,0 -8.77728,-3.55477 -27.74935,-18.17988c-0.61469,-0.47383 -6.03701,-4.03669 -6.54523,-5.27718c-2.85807,-6.97598 2.24851,-22.01618 7.42378,-17.99188z" fill="#d9bb9a" stroke="#917c67" stroke-width="4"/><path d="M56.72913,153.78767c0.6983,0.73086 -0.23788,17.45078 -0.29816,17.5623c-0.36187,0.66944 -2.66801,-1.28158 -5.07859,-2.58463c-2.41058,-1.30306 -5.04359,-2.26291 -4.68172,-2.93236c0.36188,-0.66945 2.62512,-17.49748 5.0357,-16.19442c2.00903,1.08599 3.17853,2.2189 5.02278,4.1491z" fill="#d9bb9a" stroke="none" stroke-width="0"/><path d="M84.7157,190.84627c-3.23098,-2.36271 -8.67749,-9.19902 -12.32463,-13.21563c-1.65113,-1.8184 -10.88178,-6.53267 -17.72217,-10.29264c-0.5954,-0.32727 -7.52882,-3.38931 -7.70759,-3.6889c-0.19678,-0.32973 -1.56813,-17.5862 5.40641,-11.25092c4.09803,3.72241 8.99716,7.92731 13.07156,10.71977c6.04807,4.14515 8.05911,4.50039 16.45809,10.64225c8.39898,6.14187 14.81145,11.70388 13.33727,13.67398c-1.47418,1.9701 -2.11992,9.55394 -10.51889,3.41207z" fill="#ffdbb5" stroke="none" stroke-width="0"/></g><path d="M55.59703,148.73673c0,0 17.53533,11.80566 25.88512,16.77606c8.16111,4.85808 28.19364,25.66458 28.19364,25.66458l-12.45683,13.15577c0,0 -18.16044,-11.26407 -24.3507,-15.71186c-6.2223,-4.4708 -53.94596,-14.87213 -53.94596,-14.87213c0,0 32.42499,-9.9026 32.96808,-13.31277c0.62356,-3.91557 3.7067,-11.69967 3.7067,-11.69967z" fill="#403328" stroke="#292018" stroke-width="4"/></g><g><g fill="none" stroke="none" stroke-width="1" font-family="sans-serif" font-weight="normal" font-size="12" text-anchor="start"/><path d="M38.21097,133.49578l15.653,14.0029l-6.10329,22.30437l-20.65555,-9.94353c0,0 5.33962,-5.83605 7.1931,-13.22373c1.74206,-6.94357 3.91275,-13.14002 3.91275,-13.14002z" fill="#403328" stroke="#292018" stroke-width="4"/><path d="M49.48332,147.29413l7.26189,4.72872l-3.48573,19.20103l-7.98616,-5.32104z" fill="#403328" stroke="none" stroke-width="0"/></g></g><path d="M98.98877,208.8091c0,0 -0.47861,-0.95477 -2.99762,-2.99381c-2.51901,-2.03904 -1.45337,-6.74075 -0.85728,-7.35676c1.80127,-1.86146 14.93732,-11.47914 14.93732,-11.47914c0,0 1.75716,1.04944 2.36638,1.93373c0.64523,0.93655 1.761,4.21317 1.761,4.21317z" fill="#403328" stroke="none" stroke-width="NaN"/></g><path d="M49.25357,121.35209c1.26404,-1.50347 2.71824,-2.82037 4.41585,-3.87181c3.91808,-2.42672 9.33236,-4.08424 12.37301,0.58187c2.27471,3.49072 0.6078,7.96531 -0.83356,11.24609c-2.31174,5.26193 -5.58516,10.64514 -6.19363,16.41716c0.00158,2.90769 0.77868,6.0299 0.29181,8.90933c-0.47831,2.82881 -1.75775,6.26518 -2.64642,9.00122c-1.01085,3.11221 -1.14145,4.84772 -3.6714,6.93579c-8.33346,6.87794 -21.63328,7.61383 -31.89302,8.31012c-3.89338,0.26423 -5.73793,0.68364 -9.7923,-0.71519c-4.11181,-1.41864 -6.50315,-5.72477 -8.51792,-9.24098c-4.66169,-8.19939 -6.69487,-18.17181 -8.60354,-27.31154c-1.06491,-5.09939 -1.85247,-10.99627 -3.97456,-15.77196c-2.41344,-5.43138 -10.97739,-6.65394 -10.15734,-13.81151c0.8788,-7.67033 12.66097,-10.02196 18.61613,-10.89543c1.13449,0.27605 2.32678,0.37645 3.40345,0.82816c1.34666,0.56499 2.65187,2.53589 3.95698,1.8806c1.92299,-0.96552 4.41339,-4.02091 5.96474,-5.32506c3.97101,-3.33825 10.03442,-8.57713 15.39204,-9.21666c4.80246,-0.57326 10.02104,1.73683 13.53291,4.80352c1.23506,1.0785 2.90593,3.57244 3.51015,5.07178c0.69873,1.73386 0.65069,3.68368 1.07912,5.50329c0.68979,2.92967 1.61214,5.8135 2.2671,8.77346c0.32759,2.63556 0.72752,5.33786 1.48042,7.89775zM46.0023,126.29799l-0.79145,-1.29071c-1.26446,-3.43086 -1.90762,-7.06572 -2.36434,-10.69957c-0.64178,-2.87471 -1.54681,-5.67251 -2.21659,-8.52079c-0.48452,-2.06048 -0.08752,-2.83633 -0.84247,-4.74515c-1.70346,-4.3071 -7.25931,-7.18092 -11.78069,-6.77842c-2.14297,0.19077 -3.86556,1.90329 -5.70236,3.02352c-3.36416,2.05174 -4.22377,2.63699 -7.08882,5.05407c-1.75275,1.4787 -5.18499,5.49202 -7.48634,6.20444c-4.02916,1.2473 -5.81766,-1.50071 -9.29329,-2.41546c-3.51803,0.57769 -6.7285,1.5722 -9.91184,3.22848c-1.39644,0.72656 -3.30877,1.29797 -3.49842,3.17034c-0.26623,2.62844 3.77776,4.34675 5.20428,5.52208c1.70418,1.40409 3.58547,3.68073 4.49474,5.64699c1.6901,3.65473 2.43303,8.06736 3.28581,11.98869c2.2135,10.1783 3.85309,21.60029 9.11667,30.75851c1.33219,2.33838 3.12696,6.15557 5.95819,7.04981c4.01835,1.26918 8.57414,0.33194 12.65071,0.05119c7.92762,-0.54596 17.47921,-2.0496 24.06438,-6.82546c1.41305,-1.02481 1.65318,-3.17576 2.09335,-4.5937c0.80929,-2.607 1.97869,-5.61605 2.4778,-8.29302c0.48645,-2.60909 -0.34992,-5.71601 -0.34872,-8.38492c0.63094,-5.47111 3.03281,-10.39541 5.35951,-15.34059c1.38402,-2.9416 3.44249,-6.13157 2.34544,-9.51943c-0.50666,-1.56465 -1.49407,-0.24956 -2.50021,0.14874c-2.24179,0.88746 -4.63391,1.87722 -6.21856,3.69438c-4.41911,5.06752 -6.13751,13.48671 -8.2099,19.70387c0,0 -0.79057,2.37171 -3.16228,1.58114c-2.37171,-0.79057 -1.58114,-3.16228 -1.58114,-3.16228c1.68985,-5.06955 3.25375,-11.10824 5.94655,-16.25674z" fill="#917c67" stroke="none" stroke-width="0.5" stroke-linecap="butt"/><path d="M40.10035,142.57732c0,0 -0.87736,2.32227 1.49435,3.11284c2.37171,0.79057 3.15917,-1.57547 3.15917,-1.57547c2.07238,-6.21715 3.78861,-14.59946 8.20772,-19.66698c1.58465,-1.81717 3.97744,-2.805 6.21923,-3.69246c1.00615,-0.3983 2.08746,-1.74779 2.59412,-0.18314c1.09705,3.38786 -0.95885,6.58895 -2.34287,9.53055c-2.3267,4.94518 -4.73135,9.89244 -5.36229,15.36355c-0.0012,2.66891 0.83044,5.78537 0.34399,8.39446c-0.49911,2.67697 -1.67506,5.69424 -2.48435,8.30124c-0.44018,1.41795 -0.68451,3.57271 -2.09755,4.59752c-6.58517,4.77587 -16.16537,6.29051 -24.09298,6.83648c-4.07656,0.28075 -8.64799,1.2164 -12.66634,-0.05279c-2.83123,-0.89424 -4.63582,-4.71518 -5.968,-7.05356c-5.26359,-9.15822 -6.93044,-20.62184 -9.14394,-30.80014c-0.85278,-3.92133 -1.59278,-8.35401 -3.28288,-12.00874c-0.90927,-1.96626 -2.78857,-4.24759 -4.49275,-5.65168c-1.42652,-1.17533 -5.4691,-2.89635 -5.20286,-5.52479c0.18965,-1.87237 2.10477,-2.44819 3.50121,-3.17476c3.18334,-1.65628 6.40126,-2.65913 9.9193,-3.23682c3.47564,0.91475 5.27123,3.65746 9.3004,2.41015c2.30135,-0.71242 5.74719,-4.73155 7.49994,-6.21025c2.86505,-2.41708 3.73564,-3.00391 7.0998,-5.05565c1.83679,-1.12023 3.56662,-2.83247 5.7096,-3.02324c4.52138,-0.4025 10.09367,2.47612 11.79713,6.78322c0.75494,1.90883 0.36172,2.68673 0.84624,4.74721c0.66978,2.84828 1.58386,5.65305 2.22565,8.52776c0.45672,3.63385 1.11108,7.28508 2.37554,10.71594l0.79259,1.29364c-2.6928,5.1485 -4.25928,11.22634 -5.94913,16.29588z" data-paper-data="{&quot;noHover&quot;:false,&quot;origItem&quot;:[&quot;Path&quot;,{&quot;applyMatrix&quot;:true,&quot;segments&quot;:[[[92.0046,252.59598],[-5.3856,10.297],[0,0]],[[90.4217,250.01456],[0,0],[-2.52892,-6.86172]],[[85.69301,228.61542],[0.91345,7.2677],[-1.28357,-5.74942]],[[81.25983,211.57385],[1.33956,5.69656],[-0.96905,-4.12097]],[[79.57489,202.08354],[1.50989,3.81766],[-3.40692,-8.61419]],[[56.01351,188.52669],[9.04276,-0.80499],[-4.28595,0.38154]],[[44.60879,194.57374],[3.67359,-2.24046],[-6.72832,4.10348]],[[30.43114,204.68187],[5.73011,-4.83416],[-3.5055,2.95739]],[[15.45846,217.09075],[4.6027,-1.42485],[-8.05833,2.49461]],[[-3.12813,212.25984],[6.95127,1.8295],[-7.03607,1.15538]],[[-22.95181,218.7168],[6.36668,-3.31256],[-2.79288,1.45313]],[[-29.94864,225.05748],[0.3793,-3.74474],[-0.53247,5.25688]],[[-19.54008,236.10164],[-2.85305,-2.35066],[3.40836,2.80818]],[[-10.5506,247.39561],[-1.81855,-3.93251],[3.3802,7.30946]],[[-3.97897,271.373],[-1.70556,-7.84267],[4.427,20.35661]],[[14.25438,332.89001],[-10.52718,-18.31644],[2.66437,4.67675]],[[26.17075,346.98963],[-5.66246,-1.78847],[8.03671,2.53837]],[[51.47216,347.09201],[-8.15313,0.5615],[15.85524,-1.09193]],[[99.60091,333.44109],[-13.17034,9.55173],[2.8261,-2.04962]],[[103.78761,324.25368],[-0.88035,2.83589],[1.61859,-5.214]],[[108.74321,307.66763],[-0.99822,5.35395],[0.97291,-5.21818]],[[108.04577,290.89779],[-0.00239,5.33782],[1.26189,-10.94222]],[[118.7648,260.21662],[-4.65341,9.89036],[2.76804,-5.8832]],[[123.45567,241.17776],[2.1941,6.77572],[-1.01332,-3.1293]],[[118.45524,241.47525],[2.01229,-0.79661],[-4.48358,1.77492]],[[106.01812,248.86401],[3.1693,-3.63433],[-8.83822,10.13503]],[[89.59832,288.27174],[4.14477,-12.43431],[0,0]],[[83.27377,291.43402],[4.74342,1.58114],[-4.74342,-1.58114]],[[80.11149,285.10946],[0,0],[3.3797,-10.13909]]],&quot;closed&quot;:true}]}" fill="#d9bb9a" stroke="none" stroke-width="0.5" stroke-linecap="butt"/><path d="M3.50672,136.2988c-0.0406,-0.14048 -0.05533,-0.22884 -0.05533,-0.22884l-0.09035,-1.21454c-1.8151,-3.6302 -3.62764,-7.25422 -5.43882,-10.87772c-0.93613,-1.87285 -2.12083,-3.16029 -2.44289,-5.35183c-0.23128,-1.57376 -0.80287,-3.38772 -0.01923,-4.77197c0.71435,-1.26184 2.57213,-1.33952 3.8582,-2.00928c4.72828,-1.56551 9.40472,-3.47879 14.11205,-5.13135c3.14004,-1.10235 5.21777,-2.79443 8.66515,-3.01374c1.45108,-0.09231 5.15457,-0.07365 6.64456,0.42271c9.3348,3.10968 10.27412,11.74734 10.7381,20.17216c0.1118,2.03001 0.35755,4.10636 -0.04553,6.09909c-0.43895,2.17009 -1.2031,4.2635 -1.69504,6.42219c-1.06768,2.16145 -4.42178,6.13255 -3.52814,8.8812c0.50635,1.55743 4.14301,3.19498 5.20046,3.95032c3.00272,2.14484 10.37886,5.66089 10.63696,10.19648c0.20459,3.59519 -2.90813,4.85074 -5.33904,5.96984c-7.48938,3.44784 -15.89691,4.7126 -24.04216,3.65207c-4.27023,-1.74365 -8.60288,-4.68294 -10.8777,-8.94684c-2.20383,-4.13084 -2.20518,-9.50273 -3.39573,-13.93771c-0.93313,-3.4761 -4.03545,-6.33392 -2.88549,-10.28225z" fill="#ffdbb5" stroke="none" stroke-width="0.5" stroke-linecap="butt"/><path d="M27.63321,120.60657c0,2.5 -2.5,2.5 -2.5,2.5l-0.09392,-0.01027c-5.06966,0.46079 -8.63271,0.53274 -12.9312,3.43356c0,0 -2.08013,1.38675 -3.46687,-0.69338c-1.38675,-2.08012 0.69338,-3.46688 0.69338,-3.46688c5.06469,-3.34184 9.33851,-3.71508 15.25202,-4.25277l0.5466,-0.01026c0,0 2.5,0 2.5,2.5z" fill="#917c67" stroke="none" stroke-width="0.5" stroke-linecap="butt"/><path d="M84.88572,143.57802c3.95709,3.94353 7.68996,7.97479 11.25063,12.25063c2.1037,2.52623 3.71186,5.45045 5.90653,7.89806c6.35212,7.08425 16.18572,11.53193 24.98778,14.3657c11.02794,3.55038 21.58058,8.129 33.01943,10.33483c15.87429,5.12124 32.07618,8.93211 48.25183,12.97602c8.83107,2.20777 18.15046,5.58289 27.21859,6.57832c8.4174,0.924 17.01274,-0.20042 25.49498,0.71731c0.18064,1.90816 1.0516,3.87679 0.54193,5.72448c-0.74718,2.70874 -4.65135,4.08706 -6.90924,4.51101c-5.04179,0.94667 -11.28384,0.03228 -16.40046,0.03228c-14.31783,0 -28.84227,0.70759 -43.13825,-0.00383c-3.01473,-0.15002 -5.98728,-0.81395 -9,-1c-4.22191,-0.26073 -8.27126,0.12607 -12.47684,-0.5642c-11.06996,-1.84499 -21.95683,-4.09399 -32.91799,-6.48947c-4.66803,-1.02016 -9.68721,-1.62522 -14.23759,-3.06426c-4.38494,-1.38671 -9.85343,-3.85297 -13.6911,-6.35014c-2.82333,-1.83714 -5.47643,-4.28911 -8.6366,-5.78232c-6.20193,-2.93046 -13.51635,-3.94289 -20.06274,-5.85976c-12.67136,-3.71337 -25.78815,-7.98933 -37.94599,-13.14309c-4.71001,-1.99659 -9.2685,-4.14229 -13.73621,-6.62933c-0.68968,-0.38393 -4.75567,-2.95984 -6.41509,-3.127c-3.42135,-0.34464 -3.39774,1.36792 -6.78488,2.82309c-5.87819,2.52537 -13.5193,2.85723 -18.77564,-1.59462c-0.92677,-0.78493 -0.8718,-2.26717 -1.3077,-3.40075c-2.00494,-1.90744 -4.23075,-3.81671 -5.24508,-6.52376c-1.18026,-3.14988 -0.12214,-9.00861 0.40338,-12.30051c0.69121,-4.32985 1.7518,-8.63643 2.50061,-12.89051c0.2057,-1.16862 -0.29538,-2.4597 0.15802,-3.55625c0.46013,-1.11283 1.65763,-1.75002 2.42106,-2.6813c1.14063,-1.39139 1.91481,-3.11744 3.28677,-4.28137c1.2874,-1.0922 2.98887,-1.57154 4.49988,-2.32464c4.57783,-2.28163 9.6731,-4.3666 14.75523,-5.23182c3.9307,-0.66918 8.7437,0.56011 12.62283,0.99113c0,0 1.16079,0.12898 1.80742,1.00402c0.46002,0.00903 0.90767,0.02171 1.31696,0.01297c0.28292,-0.00604 6.77296,2.25831 6.91387,2.34109c0.81291,0.47757 1.19232,1.51364 2,2c0.83385,0.50212 1.91278,0.44689 2.78405,0.88084c2.00155,0.9969 3.87868,2.29289 6,3l0.22512,0.26055l0.06326,-0.09488l2.96774,1.97849c0.48653,0.31421 0.85696,0.79276 1.03278,1.35713c9.12372,3.6223 17.3678,8.92869 25.25074,14.85587zM40.2367,122.96774c-0.59586,-0.11647 -1.18933,-0.17038 -1.7801,-0.31215c0.00795,0.32735 0.06461,0.61141 0.25289,0.78297c0.39372,0.35874 0.99566,-0.41382 1.52721,-0.47082z" fill="url(#color-1)" stroke="none" stroke-width="0.5" stroke-linecap="butt"/></g></g></svg>