<svg version="1.1" xmlns="http://www.w3.org/2000/svg" xmlns:xlink="http://www.w3.org/1999/xlink" width="90.19961" height="56.87758" viewBox="0,0,90.19961,56.87758"><g transform="translate(-191.94187,-147.82126)"><g data-paper-data="{&quot;isPaintingLayer&quot;:true}" fill-rule="nonzero" stroke-linejoin="miter" stroke-miterlimit="10" stroke-dasharray="" stroke-dashoffset="0" style="mix-blend-mode: normal"><path d="M222.10417,164.07385l-6.25,-8.125l12,1.25l-1,-7.25l10.625,7.625c0,0 5.11098,-5.80773 7.96838,-7.19035c1.98101,-0.95855 8.53162,-0.43465 8.53162,-0.43465c0,0 12.87976,10.16323 16.52816,16.97605c4.38282,8.18424 10.72184,27.14896 10.72184,27.14896c0,0 -13.63039,7.2669 -19.53678,8.53568c-5.27119,1.13233 -14.21322,-1.28568 -14.21322,-1.28568" data-paper-data="{&quot;index&quot;:null}" fill="#ffe3a8" stroke="#ffe3a8" stroke-width="1.5" stroke-linecap="round"/><path d="M226.60417,200.82385c0,0 -8.94204,2.41801 -14.21322,1.28568c-5.90638,-1.26878 -19.53678,-8.53568 -19.53678,-8.53568c0,0 6.33902,-18.96472 10.72185,-27.14895c3.64839,-6.81282 16.52815,-16.97604 16.52815,-16.97604c0,0 6.55061,-0.5239 8.53162,0.43465c2.8574,1.38261 7.96838,7.19035 7.96838,7.19035l10.625,-7.625l-1,7.25l12,-1.25l-6.25,8.125" fill="#ffe3a8" stroke="#ffe3a8" stroke-width="1.5" stroke-linecap="round"/><path d="M265.35417,180.38635c3.5,14.26835 -11.50069,23.5625 -25.6875,23.5625c-14.18681,0 -25.6875,-10.54929 -25.6875,-23.5625c0,-13.01321 11.50069,-23.5625 25.6875,-23.5625c14.18681,0 22.57252,10.86374 25.6875,23.5625z" fill="#ffe3a8" stroke="#ffe3a8" stroke-width="1.5" stroke-linecap="butt"/><g fill="#ffffff" stroke="none" stroke-width="0" stroke-linecap="round"><path d="M242.67399,183.02137c0,0 2.70667,4.64798 -1.14366,7.34594c-3.85033,2.69797 -11.43667,1.46919 -11.43667,1.46919z" data-paper-data="{&quot;origPos&quot;:null}"/><path d="M229.52182,192.10362c0,0 -12.39275,-7.5774 -3.58185,-16.92417c4.462,-4.73335 11.20329,-5.22261 15.04343,0.20379c2.03492,2.87547 2.26241,8.97375 2.26241,8.97375" data-paper-data="{&quot;origPos&quot;:null}"/></g><g data-paper-data="{&quot;index&quot;:null}" fill="#ffffff" stroke="none" stroke-width="0" stroke-linecap="round"><path d="M259.55183,192.3365c0,0 -7.17644,1.22878 -10.81874,-1.46919c-3.6423,-2.69797 -1.08187,-7.34594 -1.08187,-7.34594z" data-paper-data="{&quot;origPos&quot;:null}"/><path d="M247.1103,184.85699c0,0 0.21519,-6.09828 2.14016,-8.97375c3.63266,-5.4264 10.00971,-4.93714 14.23062,-0.20379c8.33484,9.34677 -3.38832,16.92417 -3.38832,16.92417" data-paper-data="{&quot;origPos&quot;:null}"/></g><path d="M251.13822,176.50959c1.04819,0 1.89793,2.53734 1.89793,5.66733c0,3.12998 -0.84973,5.66733 -1.89793,5.66733c-1.04819,0 -1.89793,-2.53734 -1.89793,-5.66733c0,-3.12998 0.84973,-5.66733 1.89793,-5.66733z" data-paper-data="{&quot;index&quot;:null}" fill="#ffe3a8" stroke="none" stroke-width="0" stroke-linecap="butt"/><path d="M239.63822,176.25959c1.04819,0 1.89793,2.53734 1.89793,5.66733c0,3.12998 -0.84973,5.66733 -1.89793,5.66733c-1.04819,0 -1.89793,-2.53734 -1.89793,-5.66733c0,-3.12998 0.84973,-5.66733 1.89793,-5.66733z" data-paper-data="{&quot;index&quot;:null}" fill="#ffe3a8" stroke="none" stroke-width="0" stroke-linecap="butt"/><path d="M252.85417,194.44885c0,3.03757 -3.3019,5.5 -7.375,5.5c-4.0731,0 -7.375,-2.46243 -7.375,-5.5c0,-3.03757 3.3019,-5.5 7.375,-5.5c4.0731,0 7.375,2.46243 7.375,5.5z" fill="#ffe3a8" stroke="#ffe3a8" stroke-width="1.5" stroke-linecap="butt"/></g></g></svg>