<svg xmlns="http://www.w3.org/2000/svg" xmlns:xlink="http://www.w3.org/1999/xlink" version="1.1" width="18.5954" height="40.95841" viewBox="0,0,18.5954,40.95841"><g><g data-paper-data="{&quot;isPaintingLayer&quot;:true}" fill-rule="nonzero" stroke-linecap="butt" stroke-linejoin="miter" stroke-miterlimit="10" stroke-dasharray="" stroke-dashoffset="0" style="mix-blend-mode: normal"><path d="M 10.387 40.3641 C 8.4164 40.8499 6.1995 41.229 4.5596 40.7079 C 1.8666 39.852 0.7099 37.0752 0.2851 34.5846 C -0.5768 29.5305 0.4772 23.0631 3.9703 19.195 C 4.7111 17.5293 4.7128 16.1092 5.0272 14.3468 L 5.1473 13.0256 C 5.1984 12.3821 5.7368 11.8759 6.3934 11.8759 C 7.0838 11.8759 7.6435 12.4356 7.6435 13.126 L 7.6435 14.7512 L 7.4921 14.7512 C 7.4822 14.8055 7.4725 14.8595 7.4629 14.9132 C 7.5651 15.3109 7.6572 15.7111 7.7403 16.1123 C 7.7428 16.1244 7.8507 16.3135 7.9597 16.5661 C 7.995 16.4566 8.0263 16.3463 8.0474 16.234 C 8.2636 15.0816 8.3671 13.9026 8.6934 12.7765 C 9.6393 9.5124 10.7795 5.9204 10.7687 2.5002 L 10.7687 1.2501 L 10.7687 1.2501 C 10.7687 0.5597 11.3284 0 12.0188 0 C 12.4382 0 12.8093 0.2065 13.0361 0.5234 L 14.402 2.386 L 14.3894 2.3952 C 14.4134 2.4212 14.4372 2.4474 14.4608 2.4738 C 17.1029 5.4254 15.845 10.4441 16.2581 13.9602 C 16.5296 16.2709 17.8822 18.353 18.2532 20.6764 C 18.8106 24.1676 18.5193 27.8486 18.5193 31.3775 C 18.5193 32.9398 18.829 34.9945 18.1742 36.4812 C 17.0729 38.9815 14.1036 39.6846 11.7227 40.3341 L 11.4141 40.4391 C 11.4141 40.4391 10.8631 40.6227 10.387 40.3641 Z " fill="#ff6114" stroke-width="0.5" stroke="none"/><path d="M 12.6439 13.001 C 13.02 13.001 13.283 13.1142 13.4668 13.2725 C 14.2484 13.4375 14.3802 14.3157 14.3802 14.3157 C 14.7396 16.7325 15.7156 18.9024 16.1239 21.2773 C 16.7263 24.7818 16.1159 29.5974 14.9393 32.9419 C 14.8233 33.2717 13.2696 35.8967 13.2237 35.9376 C 11.3722 37.5939 7.2036 37.2941 5.2528 36.0763 C 4.5811 35.6569 4.103 34.9871 3.528 34.4425 C 3.3931 33.5271 3.0898 32.1103 3.2891 31.1493 C 3.7262 29.0424 4.5975 27.415 4.7682 25.216 C 4.7682 25.0111 4.7682 24.0019 4.7682 24.0019 C 4.7682 23.3115 5.3279 22.7518 6.0183 22.7518 C 6.3636 22.7518 6.6761 22.8917 6.9023 23.1179 L 6.9023 23.1179 L 8.0274 24.243 L 8.0225 24.2479 C 8.0338 24.2562 8.0451 24.2645 8.0563 24.2729 C 8.2385 24.409 8.0998 24.805 8.3018 24.9095 C 8.7804 25.1571 8.8112 23.9557 9.1295 23.521 C 9.41 23.1379 9.9685 22.9747 10.1639 22.542 C 10.3364 22.1601 10.581 19.7751 10.6506 19.1205 C 10.8106 17.6155 11.1793 16.1832 11.4083 14.6861 L 11.3938 14.2511 C 11.3938 14.2511 11.3938 13.001 12.6439 13.001 Z " fill="#ffb314" stroke-width="0.5" stroke="none"/></g></g></svg>