<svg xmlns="http://www.w3.org/2000/svg" xmlns:xlink="http://www.w3.org/1999/xlink" version="1.1" width="505.52553" height="426" viewBox="0,0,505.52553,426"><defs><radialGradient cx="240" cy="219" r="199" gradientUnits="userSpaceOnUse" id="color-1"><stop offset="0" stop-color="#ad0f34"/><stop offset="1" stop-color="#ad0f34" stop-opacity="0"/></radialGradient><radialGradient cx="240" cy="219" r="100" gradientUnits="userSpaceOnUse" id="color-2"><stop offset="0" stop-color="#ad0f34"/><stop offset="1" stop-color="#ad0f34" stop-opacity="0"/></radialGradient><radialGradient cx="238.54203" cy="146.09472" r="61.68375" fx="238.54203" fy="146.09472" gradientUnits="userSpaceOnUse" id="color-3"><stop offset="0" stop-color="#efefef"/><stop offset="1" stop-color="#e2e2e2"/></radialGradient><radialGradient cx="251.3048" cy="154.0947" r="61.6838" fx="251.3048" fy="154.0947" gradientUnits="userSpaceOnUse" id="color-3-,0,0,1,12.76277,8"><stop offset="0" stop-color="#efefef"/><stop offset="1" stop-color="#e2e2e2"/></radialGradient></defs><g><g data-paper-data="{&quot;isPaintingLayer&quot;:true}" fill-rule="nonzero" stroke-miterlimit="10" stroke-dasharray="" stroke-dashoffset="0" style="mix-blend-mode: normal"><path d="M 0 0 L 505.5255 0 L 505.5255 419 L 0 419 Z " fill="#121804" stroke="none" stroke-width="1" stroke-linecap="butt" stroke-linejoin="miter"/><path d="M41,219c0,-109.90467 89.09533,-199 199,-199c109.90467,0 199,89.09533 199,199c0,109.90467 -89.09533,199 -199,199c-109.90467,0 -199,-89.09533 -199,-199z" fill="url(#color-1)" stroke="none" stroke-width="NaN" stroke-linecap="butt" stroke-linejoin="miter" transform="matrix(1,0,0,1,12.76277,8)"/><path d="M140,219c0,-55.22848 44.77152,-100 100,-100c55.22848,0 100,44.77152 100,100c0,55.22848 -44.77152,100 -100,100c-55.22848,0 -100,-44.77152 -100,-100z" fill="url(#color-2)" stroke="none" stroke-width="NaN" stroke-linecap="butt" stroke-linejoin="miter" transform="matrix(1,0,0,1,12.76277,8)"/><g><g stroke-linecap="butt" stroke-linejoin="miter"><g><path d="M 265.5278 215.9028 C 269.1614 225.03 270.9005 235.9556 270.745 248.6795 C 270.5138 261.4519 268.422 272.3161 264.4697 281.2721 C 262.6104 285.5152 260.4855 288.7745 258.095 291.0501 C 255.597 293.4584 253.0303 294.6397 250.395 294.5939 C 247.7196 294.5523 245.1998 293.3004 242.8357 290.8383 C 240.4801 288.4562 238.4476 285.1092 236.7382 280.7973 C 234.9931 276.5297 233.665 271.611 232.7538 266.0413 C 231.8257 260.3116 231.4148 254.3047 231.521 248.0206 C 231.6314 241.7766 232.2358 235.8043 233.3343 230.1036 C 234.4097 224.5672 235.8991 219.6954 237.8027 215.4881 C 239.6619 211.245 241.7847 207.9657 244.1711 205.65 C 246.6332 203.2859 249.1999 202.1047 251.871 202.1062 C 254.5464 202.1478 257.0662 203.3997 259.4303 205.8619 C 261.7459 208.2482 263.7784 211.5952 265.5278 215.9028 Z " stroke-width="1" fill="#989898" stroke="none"/></g><path d="M 251.8384 202.1109 C 254.5137 202.1525 257.0335 203.4043 259.3976 205.8665 C 261.7132 208.2527 263.7457 211.5997 265.495 215.9073 C 269.1286 225.0344 270.8677 235.9598 270.7123 248.6836 C 270.4811 261.4558 268.3894 272.3199 264.4371 281.2758 C 262.5779 285.5188 260.453 288.7781 258.0625 291.0537 C 255.5646 293.4621 252.9979 294.6433 250.3626 294.5975 C 247.6872 294.5559 245.1675 293.3041 242.8034 290.842 C 240.4478 288.4599 238.4153 285.113 236.706 280.8011 C 234.9609 276.5336 233.6327 271.615 232.7215 266.0453 C 231.7935 260.3156 231.3825 254.3088 231.4887 248.0248 C 231.5991 241.7809 232.2035 235.8086 233.302 230.108 C 234.3773 224.5717 235.8667 219.6999 237.7702 215.4927 C 239.6294 211.2496 241.7522 207.9703 244.1385 205.6547 C 246.6006 203.2906 249.1672 202.1093 251.8384 202.1109 Z " fill="none" stroke="#000000" stroke-width="4.59"/></g><g stroke-linecap="butt" stroke-linejoin="miter"><g><path d="M 258.3584 249.8038 L 243.7659 249.5823 L 244.4339 208.7183 L 259.0264 208.9397 Z " stroke-width="1" fill="#544b2b" stroke="none"/></g><path d="M 243.7335 249.5865 L 244.4014 208.7229 L 258.9937 208.9443 L 258.3258 249.8079 Z " fill="none" stroke="#000000" stroke-width="2"/></g><g stroke-linecap="butt" stroke-linejoin="miter"><g><path d="M 250.3071 266.1326 C 247.5116 266.1037 245.1436 265.1394 243.203 263.2396 C 241.2983 261.2956 240.3488 259.008 240.3546 256.3769 C 240.3962 253.7015 241.4311 251.4272 243.4594 249.554 C 245.4519 247.7251 247.8459 246.8251 250.6413 246.854 C 253.441 246.9229 255.8112 247.9073 257.7517 249.8071 C 259.6965 251.7469 260.646 254.0345 260.6002 256.6698 C 260.5586 259.3452 259.5236 261.6195 257.4954 263.4927 C 255.5029 265.3216 253.1068 266.2016 250.3071 266.1326 Z " stroke-width="1" fill="#544b2b" stroke="none"/></g><path d="M 260.5676 256.6738 C 260.526 259.3492 259.4911 261.6234 257.4628 263.4966 C 255.4703 265.3255 253.0743 266.2055 250.2746 266.1366 C 247.4792 266.1076 245.1112 265.1433 243.1706 263.2436 C 241.2659 261.2996 240.3164 259.012 240.3222 256.3809 C 240.3638 253.7055 241.3987 251.4313 243.427 249.5581 C 245.4194 247.7292 247.8134 246.8292 250.6088 246.8581 C 253.4085 246.9271 255.7786 247.9114 257.7191 249.8111 C 259.6639 251.7509 260.6134 254.0385 260.5676 256.6738 Z " fill="none" stroke="#000000" stroke-width="2"/></g><path d="M 264.8755 248.2698 C 242.4035 231.9322 230.7856 247.0257 228.8828 245.2084 C 226.2239 242.6578 224.436 239.9643 223.5191 237.1281 C 222.7424 234.7041 222.5839 232.0699 223.0437 229.2255 C 223.4447 226.5898 224.3243 223.9919 225.6824 221.4317 C 226.7536 219.3109 228.2124 217.082 230.059 214.7449 C 231.236 213.213 233.0189 211.1569 235.4076 208.5765 " fill="none" stroke="#000000" stroke-width="3.3" stroke-linecap="round" stroke-linejoin="round"/><g><g stroke-linecap="butt" stroke-linejoin="miter"><path d="M 241.335 255.0526 C 239.6849 256.2601 237.753 256.6022 235.5394 256.0789 C 233.2856 255.5155 231.6354 254.3282 230.589 252.5171 C 229.6231 250.7462 229.4621 248.7741 230.106 246.6007 C 230.75 244.4274 231.9775 242.8175 233.7887 241.7711 C 235.7205 240.7649 237.7128 240.5033 239.7654 240.9862 C 241.979 241.5497 243.4681 242.8376 244.2328 244.85 C 244.917 246.6209 245.0177 248.4521 244.5347 250.3437 C 244.0517 252.3159 242.9852 253.8855 241.335 255.0527 Z " stroke-width="1" fill="#000000" stroke="none"/></g><path d="M 244.5652 250.3467 C 244.0822 252.3188 243.0157 253.8885 241.3655 255.0557 C 239.7154 256.2631 237.7835 256.6052 235.5699 256.082 C 233.3161 255.5185 231.666 254.3312 230.6195 252.5201 C 229.6536 250.7492 229.4926 248.7771 230.1366 246.6038 C 230.7805 244.4304 232.0081 242.8205 233.8192 241.7741 C 235.7511 240.7679 237.7433 240.5063 239.7959 240.9893 C 242.0095 241.5527 243.4986 242.8406 244.2633 244.853 C 244.9475 246.6239 245.0482 248.4551 244.5652 250.3467 Z " fill="none" stroke="#000000" stroke-width="3.3" stroke-linecap="round" stroke-linejoin="round"/></g><path d="M 264.3407 210.6584 C 268.4272 215.9972 271.0006 219.5998 272.061 221.4664 C 275.4791 227.3914 276.6315 232.427 275.5183 236.5732 C 273.6905 243.4303 244.0054 244.1075 237.2715 245.5257 " fill="none" stroke="#000000" stroke-width="3.3" stroke-linecap="round" stroke-linejoin="round"/><g><g stroke-linecap="butt" stroke-linejoin="miter"><path d="M 273.0765 249.6415 C 273.2266 251.9299 272.3075 254.0494 270.3193 256.0002 C 268.9688 257.3131 267.2806 257.8571 265.2549 257.632 C 263.3041 257.4069 261.7098 256.5441 260.4718 255.0435 C 259.2338 253.5055 258.5961 251.8923 258.5586 250.2042 C 258.5211 248.5161 259.0838 246.9405 260.2467 245.4775 C 261.4097 243.9394 262.7789 243.0766 264.3545 242.889 C 265.3299 242.7764 266.3428 242.8515 267.3932 243.1141 C 268.5561 243.4142 269.5502 243.8831 270.3755 244.5208 C 272.0637 245.8338 272.964 247.5407 273.0765 249.6415 Z " stroke-width="1" fill="#000000" stroke="none"/></g><path d="M 260.4875 255.0928 C 259.2496 253.5547 258.6118 251.9416 258.5743 250.2535 C 258.5368 248.5653 259.0995 246.9898 260.2625 245.5267 C 261.4254 243.9887 262.7946 243.1258 264.3702 242.9383 C 265.3456 242.8257 266.3585 242.9008 267.4089 243.1633 C 268.5718 243.4635 269.5659 243.9324 270.3912 244.5701 C 272.0794 245.8831 272.9797 247.59 273.0922 249.6908 C 273.2423 251.9791 272.3232 254.0987 270.335 256.0494 C 268.9845 257.3624 267.2963 257.9063 265.2706 257.6812 C 263.3198 257.4562 261.7255 256.5933 260.4876 255.0928 Z " fill="none" stroke="#000000" stroke-width="3.3" stroke-linecap="round" stroke-linejoin="round"/></g><path d="M 233.1311 357.7924 C 232.7689 343.5047 232.9299 331.7122 233.6141 322.4151 C 234.6605 308.9726 236.9144 297.482 240.3756 287.9434 " fill="none" stroke="#000000" stroke-width="3.3" stroke-linecap="round" stroke-linejoin="round"/><g><g stroke-linecap="butt" stroke-linejoin="miter"><path d="M 235.4551 359.4914 C 235.9783 360.3768 236.3003 361.4635 236.421 362.7514 C 236.5418 364.0795 236.4009 365.3473 235.9984 366.5548 C 235.2337 369.7343 233.7043 372.1089 231.4103 373.6785 C 229.6796 375.0067 227.9087 375.4293 226.0976 374.9463 C 225.0914 374.7853 224.2261 374.3426 223.5017 373.6182 C 222.8175 373.0145 222.3546 372.2699 222.1131 371.3844 C 221.7107 370.016 221.7308 368.2854 222.1735 366.1926 C 222.576 364.2607 223.3809 362.4294 224.5883 360.6988 C 226.158 358.7267 227.9691 357.64 230.0217 357.4388 C 232.5975 356.9558 234.4087 357.64 235.4551 359.4914 Z " stroke-width="1" fill="#000000" stroke="none"/></g><path d="M 236.4515 362.8032 C 236.5722 364.1313 236.4314 365.3991 236.0289 366.6065 C 235.2642 369.7861 233.7348 372.1606 231.4407 373.7303 C 229.7101 375.0585 227.9392 375.481 226.1281 374.9981 C 225.1219 374.8371 224.2566 374.3944 223.5322 373.6699 C 222.848 373.0662 222.3851 372.3217 222.1436 371.4362 C 221.7412 370.0678 221.7613 368.3372 222.204 366.2443 C 222.6065 364.3125 223.4114 362.4812 224.6188 360.7506 C 226.1885 358.7785 227.9996 357.6918 230.0522 357.4906 C 232.628 357.0076 234.4391 357.6918 235.4856 359.5432 C 236.0088 360.4286 236.3307 361.5153 236.4515 362.8032 Z " fill="none" stroke="#000000" stroke-width="3.3" stroke-linecap="round" stroke-linejoin="round"/></g><path d="M 263.0147 285.3475 C 269.253 308.9323 270.8226 333.0806 267.7236 357.7924 " fill="none" stroke="#000000" stroke-width="3.3" stroke-linecap="round" stroke-linejoin="round"/><g><g stroke-linecap="butt" stroke-linejoin="miter"><path d="M 279.8881 366.2552 C 280.0088 367.7846 279.8277 369.2536 279.3447 370.6623 C 278.9423 371.749 278.4593 372.5539 277.8958 373.0771 C 277.0507 373.5601 276.1048 373.7412 275.0584 373.6205 C 273.3278 373.379 271.6978 372.6143 270.1684 371.3264 C 268.7597 370.1592 267.6529 368.6902 266.848 366.9193 C 265.7211 364.746 265.2582 362.8544 265.4595 361.2445 C 265.5802 360.2785 265.9424 359.373 266.5461 358.5278 C 267.1498 357.6423 267.9145 357.0789 268.8402 356.8374 C 269.8866 356.6764 271.094 356.7971 272.4624 357.1996 C 273.8711 357.5618 275.0785 358.1454 276.0847 358.9504 C 277.3726 359.8761 278.2581 360.9024 278.741 362.0293 C 279.385 363.3574 279.7673 364.7661 279.8881 366.2552 Z " stroke-width="1" fill="#000000" stroke="none"/></g><path d="M 279.9185 366.3094 C 280.0392 367.8388 279.8581 369.3078 279.3751 370.7164 C 278.9727 371.8031 278.4897 372.608 277.9262 373.1313 C 277.0811 373.6142 276.1352 373.7953 275.0888 373.6746 C 273.3582 373.4331 271.7282 372.6684 270.1988 371.3805 C 268.7901 370.2133 267.6833 368.7443 266.8784 366.9735 C 265.7515 364.8001 265.2886 362.9085 265.4899 361.2986 C 265.6106 360.3327 265.9728 359.4271 266.5765 358.5819 C 267.1802 357.6965 267.9449 357.133 268.8706 356.8915 C 269.917 356.7305 271.1245 356.8513 272.4929 357.2538 C 273.9015 357.616 275.1089 358.1996 276.1151 359.0045 C 277.403 359.9302 278.2885 360.9565 278.7714 362.0834 C 279.4154 363.4116 279.7977 364.8202 279.9185 366.3094 Z " fill="none" stroke="#000000" stroke-width="3.3" stroke-linecap="round" stroke-linejoin="round"/></g><g stroke-linecap="butt" stroke-linejoin="miter"><g><path d="M 312.9501 155.6363 C 312.7425 163.5809 310.9405 171.1328 307.5441 178.2919 C 304.2487 185.2391 299.6792 191.3383 293.8354 196.5895 C 287.9917 201.8406 281.3419 205.8551 273.8861 208.633 C 266.1575 211.5178 258.1186 212.8556 249.7695 212.6464 C 241.4204 212.4371 233.4698 210.6936 225.9177 207.4159 C 218.6215 204.2753 212.199 199.9187 206.6505 194.3461 C 201.1057 188.8136 196.8416 182.5112 193.858 175.439 C 190.8074 168.0902 189.3859 160.4435 189.5936 152.4989 C 189.8012 144.5542 191.6233 137.0004 195.0597 129.8375 C 198.3551 122.8902 202.9246 116.791 208.7684 111.5399 C 214.572 106.2926 221.2018 102.28 228.6577 99.5022 C 236.3863 96.6173 244.4251 95.2795 252.7742 95.4887 C 261.1234 95.698 269.0739 97.4415 276.626 100.7193 C 283.9223 103.8599 290.3647 108.2145 295.9533 113.7832 C 301.5019 119.3558 305.748 125.6801 308.6915 132.7562 C 311.7382 140.0649 313.1578 147.6916 312.9501 155.6363 Z " stroke-width="1" fill="url(#color-3-,0,0,1,12.76277,8)" stroke="none"/></g><path d="M 295.9421 113.7986 C 301.4907 119.371 305.7368 125.6952 308.6803 132.7711 C 311.7271 140.0798 313.1467 147.7063 312.9391 155.6509 C 312.7316 163.5954 310.9297 171.1472 307.5334 178.3062 C 304.2382 185.2534 299.6687 191.3526 293.8251 196.6037 C 287.9815 201.8549 281.3319 205.8694 273.8762 208.6473 C 266.1477 211.5322 258.1089 212.8701 249.7599 212.6609 C 241.4109 212.4518 233.4604 210.7083 225.9085 207.4307 C 218.6122 204.2902 212.1899 199.9338 206.6413 194.3614 C 201.0966 188.829 196.8324 182.5267 193.8488 175.4547 C 190.7982 168.106 189.3766 160.4594 189.5842 152.5148 C 189.7918 144.5703 191.6137 137.0166 195.05 129.8537 C 198.3453 122.9065 202.9147 116.8073 208.7583 111.5562 C 214.5618 106.3089 221.1914 102.2963 228.6472 99.5184 C 236.3756 96.6335 244.4144 95.2956 252.7634 95.5048 C 261.1124 95.7139 269.0629 97.4573 276.6149 100.735 C 283.9111 103.8754 290.3535 108.23 295.9421 113.7986 Z " fill="none" stroke="#000000" stroke-width="3"/></g><path d="M 278.3069 156.6293 C 278.1589 162.6679 277.125 167.902 275.2051 172.3317 C 273.2337 176.6451 270.9926 178.7807 268.4818 178.7388 C 265.8908 178.7045 263.7552 176.4634 262.0748 172.0154 C 260.3543 167.5713 259.5842 162.288 259.7647 156.1654 C 259.8973 149.9666 260.9313 144.7324 262.8664 140.463 C 264.8378 136.1496 267.079 134.014 269.5898 134.0559 C 272.1407 134.0941 274.2763 136.3352 275.9968 140.7793 C 277.6772 145.2272 278.4473 150.5105 278.3069 156.6293 Z " fill="#000000" stroke="none" stroke-width="1" stroke-linecap="butt" stroke-linejoin="miter"/><path d="M 242.6559 156.4777 C 242.447 162.7243 241.393 167.9604 239.4941 172.1859 C 237.5627 176.4954 235.3197 178.611 232.765 178.5328 C 230.2141 178.4947 228.0784 176.2536 226.3579 171.8095 C 224.6852 167.4417 223.9152 162.1584 224.0478 155.9595 C 224.2568 149.7129 225.3107 144.4768 227.2097 140.2513 C 229.0647 135.9895 231.3078 133.8739 233.9388 133.9043 C 236.4935 133.9825 238.6092 136.2255 240.2857 140.6334 C 241.9947 144.9573 242.7847 150.2387 242.6559 156.4777 Z " fill="#000000" stroke="none" stroke-width="1" stroke-linecap="butt" stroke-linejoin="miter"/><path d="M 289.7255 109.0585 L 285.6223 113.6978 " fill="none" stroke="#000000" stroke-width="0.85" stroke-linecap="round" stroke-linejoin="miter"/><path d="M 205.6985 125.7989 L 201.0361 121.4554 " fill="none" stroke="#000000" stroke-width="0.85" stroke-linecap="round" stroke-linejoin="miter"/><path d="M 190.2538 148.751 L 197.6415 150.5283 " fill="none" stroke="#000000" stroke-width="0.85" stroke-linecap="round" stroke-linejoin="miter"/><path d="M 198.915 184.0047 L 204.8984 179.3668 " fill="none" stroke="#000000" stroke-width="0.85" stroke-linecap="round" stroke-linejoin="miter"/><path d="M 222.4767 195.6914 L 217.54 203.0186 " fill="none" stroke="#000000" stroke-width="0.85" stroke-linecap="round" stroke-linejoin="miter"/><path d="M 252.8468 211.3335 L 253.0222 204.9487 " fill="none" stroke="#000000" stroke-width="0.85" stroke-linecap="round" stroke-linejoin="miter"/><path d="M 278.1686 197.1367 L 281.6911 204.1368 " fill="none" stroke="#000000" stroke-width="0.85" stroke-linecap="round" stroke-linejoin="miter"/><path d="M 304.5154 183.5085 L 299.3746 178.6044 " fill="none" stroke="#000000" stroke-width="0.85" stroke-linecap="round" stroke-linejoin="miter"/><path d="M 308.4966 132.1217 L 302.5378 135.1197 " fill="none" stroke="#000000" stroke-width="0.85" stroke-linecap="round" stroke-linejoin="miter"/><path d="M 250.9958 140.4596 L 281.1697 129.3557 " fill="none" stroke="#000000" stroke-width="2.75" stroke-linecap="round" stroke-linejoin="miter"/><g stroke-linecap="butt" stroke-linejoin="miter"><g><path d="M 279.5412 127.2638 L 276.9089 126.8339 L 287.2855 127.4544 L 279.2412 133.9824 C 281.6738 131.1602 282.7662 129.3431 282.5186 128.531 C 282.3564 128.032 281.364 127.6096 279.5412 127.2638 Z " stroke-width="1" fill="#000000" stroke="none"/></g><path d="M 287.3309 127.4363 L 279.2867 133.9641 C 281.7192 131.142 282.8116 129.325 282.564 128.5129 C 282.4019 128.0138 281.4094 127.5914 279.5866 127.2457 L 276.9543 126.8157 Z " fill="none" stroke="#000000" stroke-width="0.85"/></g><path d="M 217.8011 124.8236 L 250.9266 140.3544 " fill="none" stroke="#000000" stroke-width="2.75" stroke-linecap="round" stroke-linejoin="miter"/><g stroke-linecap="butt" stroke-linejoin="miter"><g><path d="M 218.1671 124.6593 C 217.9168 125.1394 218.2192 126.2939 219.0741 128.1227 C 219.478 129.0889 219.9173 129.9774 220.392 130.7882 L 213.8948 122.7107 L 224.0746 124.2571 C 223.2174 124.1477 222.3107 124.0782 221.3545 124.0487 C 219.4939 124.0133 218.4314 124.2169 218.1671 124.6593 Z " stroke-width="1" fill="#000000" stroke="none"/></g><path d="M 224.0479 124.2947 C 223.1907 124.1852 222.2841 124.1158 221.3279 124.0863 C 219.4672 124.0509 218.4048 124.2544 218.1404 124.6969 C 217.8901 125.177 218.1925 126.3315 219.0474 128.1603 C 219.4513 129.1265 219.8906 130.015 220.3653 130.8258 L 213.8681 122.7483 Z " fill="none" stroke="#000000" stroke-width="0.85"/></g><path d="M 312.2508 161.1146 L 303.6646 160.1196 " fill="none" stroke="#000000" stroke-width="0.85" stroke-linecap="round" stroke-linejoin="miter"/><path d="M 227.2728 109.8392 L 222.9171 102.3732 " fill="none" stroke="#000000" stroke-width="0.85" stroke-linecap="round" stroke-linejoin="miter"/><path d="M 255.4591 106.5264 L 255.6224 95.5942 " fill="none" stroke="#000000" stroke-width="0.85" stroke-linecap="round" stroke-linejoin="miter"/><path d="M 232.8293 193.5839 C 237.8199 190.4044 243.3941 188.7945 249.552 188.7542 C 255.7098 188.6737 261.2639 190.183 266.2143 193.282 " fill="none" stroke="#000000" stroke-width="2" stroke-linecap="round" stroke-linejoin="round"/></g></g></g></svg>