<svg version="1.1" xmlns="http://www.w3.org/2000/svg" xmlns:xlink="http://www.w3.org/1999/xlink" width="247.84436" height="418.47248" viewBox="0,0,247.84436,418.47248"><g transform="translate(-134.61434,-13.69337)"><g data-paper-data="{&quot;isPaintingLayer&quot;:true}" fill-rule="nonzero" stroke-linejoin="miter" stroke-miterlimit="10" stroke-dasharray="" stroke-dashoffset="0" style="mix-blend-mode: normal"><g data-paper-data="{&quot;index&quot;:null}"><path d="M232.36286,428.10799c-2.31712,2.77355 -3.47358,1.94056 -3.47358,1.94056c0,0 -17.40411,-4.74411 -32.07239,-12.36257c-3.23614,-1.68078 -1.45229,-5.08848 -3.38511,-7.87363c-1.52554,-2.19828 -0.26342,-2.00339 -1.0551,-2.4373c-2.63148,-1.44227 -2.16894,-2.13241 -2.16894,-2.13241c0,0 7.11579,-14.83237 7.8889,-16.40534c1.4798,-3.01082 6.83096,-12.41668 6.83096,-12.41668l31.88749,11.43895l-1.58592,11.51392c0,0 -2.55349,7.22133 0.13943,13.80192c1.6238,3.96804 -0.61219,12.0675 -3.00575,14.93257z" fill="#403328" stroke="#292018" stroke-width="4" stroke-linecap="butt"/><path d="M220.97321,419.07197l9.65834,5.81113l-2.50305,1.70471c0,0 -10.90916,-3.25777 -16.25168,-5.30561c-4.68765,-1.79682 -12.0413,-5.71202 -12.0413,-5.71202c0,0 -2.85776,-0.11368 -1.79083,-2.53411c1.06693,-2.42043 22.92852,6.0359 22.92852,6.0359z" fill="#775f4a" stroke="none" stroke-width="0" stroke-linecap="butt"/><path d="M208.34525,404.41119c0,0 7.23212,1.47822 12.4139,3.50913c4.68628,1.83671 12.87886,7.05836 12.87886,7.05836" fill="none" stroke="#292018" stroke-width="4" stroke-linecap="round"/><path d="M234.79156,400.36629c0,0 -6.48899,0.13862 -9.72955,-0.90265c-3.92802,-1.26217 -12.17539,-6.13597 -12.17539,-6.13597l1.26395,-10.78351l12.68476,13.44266" fill="none" stroke="#292018" stroke-width="4" stroke-linecap="round"/><path d="M214.26101,392.18877l16.33867,-2.10305l-2.00236,7.84093" fill="none" stroke="#292018" stroke-width="4" stroke-linecap="round"/></g><g data-paper-data="{&quot;index&quot;:null}"><path d="M177.88549,409.91617c-2.42322,2.68135 -3.54641,1.80401 -3.54641,1.80401c0,0 -17.20646,-5.41732 -31.56738,-13.60042c-3.16833,-1.80536 -1.25332,-5.1411 -3.07637,-7.99931c-1.43891,-2.25594 -0.18531,-2.01212 -0.95952,-2.47648c-2.57341,-1.54351 -2.08438,-2.21514 -2.08438,-2.21514c0,0 7.68719,-14.54444 8.52089,-16.08616c1.59576,-2.951 7.30864,-12.14165 7.30864,-12.14165l31.41855,12.6703l-2.03246,11.44354c0,0 -2.83238,7.11657 -0.39739,13.79691c1.46827,4.02818 -1.081,12.03456 -3.58416,14.80439z" fill="#403328" stroke="#292018" stroke-width="4" stroke-linecap="butt"/><path d="M166.85584,400.44409l9.42506,6.18232l-2.56745,1.60609c0,0 -10.77423,-3.67953 -16.03306,-5.93357c-4.61423,-1.97775 -11.81007,-6.17595 -11.81007,-6.17595c0,0 -2.85118,-0.22472 -1.69093,-2.60183c1.16024,-2.37711 22.67646,6.92296 22.67646,6.92296z" fill="#775f4a" stroke="none" stroke-width="0" stroke-linecap="butt"/><path d="M154.80755,385.30333c0,0 7.16917,1.75834 12.26805,3.98922c4.61131,2.01756 12.59464,7.55384 12.59464,7.55384" fill="none" stroke="#292018" stroke-width="4" stroke-linecap="round"/><path d="M181.39114,382.2899c0,0 -6.48948,-0.11383 -9.68709,-1.28032c-3.87596,-1.41397 -11.92757,-6.60479 -11.92757,-6.60479l1.68233,-10.7262l12.15242,13.92576" fill="none" stroke="#292018" stroke-width="4" stroke-linecap="round"/><path d="M161.19411,373.3202l16.4081,-1.46609l-2.30575,7.75714" fill="none" stroke="#292018" stroke-width="4" stroke-linecap="round"/></g><g stroke-linecap="butt"><g><path d="M313.28533,160.0913c-1.23787,0.52889 -7.62707,-0.74538 -8.40068,-0.83981c-23.87707,-2.91439 -28.72176,-1.88545 -28.72176,-1.88545c0,0 -9.16794,-6.28439 -9.6946,-10.46083c-0.37474,-2.97179 6.56026,-12.09488 6.56026,-12.09488c0,0 25.06803,4.02502 34.78279,6.53564c2.29076,0.59201 4.63157,-0.3223 12.84741,0.64549c6.5378,0.77011 -0.41213,15.12566 -7.37344,18.09986z" fill="#d9bb9a" stroke="#917c67" stroke-width="4"/><path d="M326.20192,144.65099c2.64243,0.76734 -7.60112,14.3972 -7.81424,15.13105c-0.2131,0.73383 -2.77269,-0.43574 -5.41514,-1.20309c-2.64243,-0.76734 -5.66693,-0.99772 -5.45382,-1.73154c0.0355,-0.12225 11.15189,-12.73935 12.16648,-12.76978c2.67949,-0.08037 4.31446,-0.06616 6.51674,0.57336z" fill="#d9bb9a" stroke="none" stroke-width="0"/><path d="M268.43069,140.99722c0.33446,-2.44806 8.84098,-1.90557 19.17691,-0.37742c10.33591,1.52812 12.02449,2.69165 19.27167,3.99059c4.88217,0.87504 11.34982,1.32134 16.90444,1.54798c9.45358,0.38573 -3.69126,11.75993 -4.06443,11.85702c-0.33902,0.08823 -7.45585,-2.60936 -8.11235,-2.795c-7.54231,-2.13288 -17.46664,-5.2682 -19.92923,-5.13169c-5.43955,0.30156 -14.15355,1.35129 -18.12965,0.76344c-10.33591,-1.52812 -5.45182,-7.40686 -5.11736,-9.85492z" fill="#ffdbb5" stroke="none" stroke-width="0"/></g><path d="M318.45895,152.24332c-2.01547,2.82158 -7.35623,8.81014 -7.35623,8.81014c0,0 -20.18241,-1.32219 -27.78374,-2.51102c-7.5622,-1.18271 -27.94438,-5.08281 -27.94438,-5.08281l0.50211,-25.88067c0,0 15.58789,0.92984 24.84875,3.20838c9.47494,2.33121 43.32978,10.47616 43.32978,10.47616c0,0 -3.28212,7.74008 -5.59629,10.97983z" fill="#403328" stroke="#292018" stroke-width="4"/></g><path d="M200.30921,190.60501c0,0 2.70207,-32.95208 0.45431,-37.25438c-0.39917,-0.76405 -4.25945,-7.0311 -10.26423,-8.69033c-4.5701,-1.26281 -11.99564,2.4359 -10.64731,-0.14751c3.11994,-5.97783 12.08448,-9.19225 17.22356,-10.43162c10.46004,-2.5226 23.3407,-10.04987 32.44946,-10.04987c9.9556,0 12.0822,-2.53833 25.41753,2.23404c12.95799,4.63733 6.30067,14.46349 6.30067,14.46349c0,0 0.29843,13.59435 -0.14112,14.32621c-2.12732,3.542 -2.94667,33.95348 -2.94667,33.95348l7.17737,37.25845c0,0 -12.96309,10.26101 -36.50054,9.68748c-21.93372,-0.53445 -36.29265,-8.25762 -36.29265,-8.25762z" data-paper-data="{&quot;index&quot;:null}" fill="#95d2a1" stroke="#67916f" stroke-width="4" stroke-linecap="butt"/><path d="M249.26551,166.29671c0,1.43813 -1.17474,8.83633 -0.68779,12.37378c1.67519,12.16943 6.67434,28.1724 4.64778,29.50494c-4.97767,3.27299 -21.65178,1.46977 -26.66987,1.518c-4.0701,0.03912 -18.60016,0.34756 -22.77946,-3.43832c-3.24289,-2.93763 2.09477,-14.9148 3.90599,-27.5867c0.523,-3.6591 -0.76879,-10.61981 -0.76879,-13.43332c0,-3.03332 -4.37042,-16.64263 -5.86055,-19.74072c-0.54554,-1.13421 -4.52245,1.00834 -6.31085,0.25138c-1.55106,-0.6565 -0.97003,-4.18822 -1.07038,-5.36611c-0.19647,-2.30635 4.13899,-5.46238 8.70721,-6.95809c4.56822,-1.49572 19.20257,-4.37018 25.89162,-4.37018c6.89043,0 20.77042,1.86564 26.62256,4.61672c1.10361,0.5188 8.28366,3.11672 7.43627,5.98293c-0.61205,2.07019 -0.47598,6.02482 -2.57896,6.71288c-2.31393,0.75708 -6.86197,-1.81934 -7.071,-0.83632c-1.00219,4.71316 -3.41381,17.74228 -3.41381,20.76914z" data-paper-data="{&quot;index&quot;:null}" fill="#a6eab4" stroke="none" stroke-width="0" stroke-linecap="butt"/><g data-paper-data="{&quot;index&quot;:null}" stroke-linecap="butt"><path d="M202.72024,129.09999l1.0404,-8.78361c0,0 13.67279,-1.56741 24.40023,-1.46224c10.72745,0.10517 27.94324,2.72087 27.94324,2.72087v5.58772z" fill="#292018" stroke="#292018" stroke-width="4"/><g><path d="M212.15773,117.52735l33.30091,0.24216l0.40645,13.46911c0,0 -5.00848,9.02158 -13.992,8.91683c-8.69851,-0.10144 -22.59942,-9.82688 -22.59942,-9.82688z" fill="#d9bb9a" stroke="#917c67" stroke-width="4"/><path d="M239.33438,127.39631c0,1.23441 -2.20831,3.08655 -4.93241,3.08655c-2.72409,0 -4.93242,-1.85215 -4.93242,-3.08655c0,-1.23441 2.20832,-1.38362 4.93242,-1.38362c2.72409,0 4.93241,0.14922 4.93241,1.38362z" fill="#ffdbb5" stroke="none" stroke-width="0"/></g></g><g data-paper-data="{&quot;index&quot;:null}" stroke-linecap="butt"><g fill="#465b9c"><path d="M190.71581,280.77094c2.19665,-7.3433 7.06548,-26.75844 7.06548,-26.75844l31.96594,6.20173c0,0 -3.72492,27.27918 -6.07537,35.51279c-2.47328,8.66392 -6.82054,21.75343 -6.82054,21.75343c0,0 -12.23977,2.57203 -17.45763,1.78673c-4.98766,-0.75065 -13.90429,-5.8863 -13.90429,-5.8863c0,0 2.58658,-23.78524 5.22639,-32.60994z" stroke="#2e3c67" stroke-width="4"/><path d="M198.93264,256.82512l0.87032,-4.50876l23.71223,4.55638l-0.87032,4.50876z" stroke="none" stroke-width="0"/></g><path d="M199.70162,265.19374c3.25737,-13.88826 7.13026,-25.31336 13.11484,-24.31144c13.83723,2.3166 9.76143,15.01261 4.26212,37.51632c-3.2674,13.3705 -8.51336,27.99082 -13.09225,33.85981c-2.28814,2.93284 -5.82704,3.50022 -7.56898,3.23244c-2.55891,-0.39338 -5.08706,-1.75741 -5.92855,-4.38155c-0.50733,-1.58204 1.5727,-5.20512 1.84941,-8.97311c0.202,-2.75056 0.6289,-6.22132 1.30409,-10.61349c0.93533,-6.08437 4.67382,-20.42177 6.05932,-26.32897z" fill="#5671c0" stroke="none" stroke-width="0"/></g><g data-paper-data="{&quot;index&quot;:null}" stroke-linecap="butt"><g fill="#465b9c"><path d="M153.99991,359.84539l3.40923,-3.05509l-0.55488,-2.94885l2.813,-2.69438c0,0 8.66262,-16.49975 11.29847,-20.3542c4.33134,-6.33376 15.63752,-26.22855 15.63752,-26.22855l29.61661,13.99805c0,0 -10.93921,27.16693 -15.68264,34.30476c-1.97611,2.9736 -9.60402,14.49924 -9.60402,14.49924l-1.95072,3.61386l-2.64263,1.11049l-1.2361,4.81926c0,0 -12.13164,-4.01621 -17.14532,-6.44483c-4.79251,-2.32148 -13.95851,-10.61976 -13.95851,-10.61976z" stroke="#2e3c67" stroke-width="4"/><path d="M188.12671,308.43121l2.53295,-4.76795l26.02196,11.82172c0,0 -2.55162,4.69272 -3.63373,5.40317c-0.41817,0.27456 -6.24769,-2.565 -6.24769,-2.565z" stroke="none" stroke-width="0"/></g><path d="M191.08132,306.04764c2.73972,-3.41973 4.05855,-0.69945 6.8217,0.55021c3.35616,2.84993 9.52512,1.81666 7.38919,4.9111c-10.29928,14.92107 -19.51277,35.27896 -22.37645,40.57824c-1.61452,2.98768 -1.89048,10.58372 -6.26837,10.6084c-1.70166,0.00958 -5.57075,-0.90045 -8.07218,-2.74359c-2.63066,-1.93838 -4.26573,-3.30334 -4.69831,-5.26106c-0.43258,-1.95771 3.17425,-3.26014 2.65591,-3.9823c-1.65132,-2.3006 8.5642,-14.31082 13.54928,-23.53578c2.65383,-4.91097 7.88039,-17.23227 10.99923,-21.12522z" fill="#5671c0" stroke="none" stroke-width="0"/></g><g data-paper-data="{&quot;index&quot;:null}" stroke-linecap="butt"><g fill="#465b9c"><path d="M225.03836,322.02772c0,0 0.50954,-13.79122 1.23305,-22.77513c0.68757,-8.5377 6.84772,-35.37219 6.84772,-35.37219l32.75695,5.62885c0,0 -2.26499,19.89143 -2.7823,27.5418c-0.62166,9.19375 -6.6247,32.35489 -6.6247,32.35489c0,0 -10.35076,1.61384 -15.38452,0.53269z" stroke="#2e3c67" stroke-width="4"/><path d="M239.49036,267.51052l0.7748,-4.5263l24.28333,4.21663l-0.7748,4.5263z" stroke="none" stroke-width="0"/></g><path d="M253.34915,305.19095c-0.91973,4.34755 -1.55099,7.7867 -2.338,10.43035c-1.07813,3.62156 -1.25458,7.98006 -2.30308,9.27774c-1.73914,2.15248 -1.79359,2.71383 -4.3791,2.16687c-1.76005,-0.37234 -6.91401,-2.58549 -8.0556,-6.14529c-2.28452,-7.12364 -0.11404,-22.24961 1.52756,-35.9175c2.76297,-23.00425 3.39172,-36.33057 17.44025,-33.54996c6.07597,1.2026 4.719,13.05939 2.88334,27.20776c-0.78079,6.01783 -4.77536,26.53003 -4.77536,26.53003z" fill="#5671c0" stroke="none" stroke-width="0"/></g><g data-paper-data="{&quot;index&quot;:null}" stroke-linecap="butt"><g fill="#465b9c"><path d="M218.67037,386.90938c-4.92186,-2.18772 -15.43504,-8.69297 -15.43504,-8.69297l2.85296,-4.06795l-0.80002,-2.71003l1.50654,-3.82017c0,0 3.93538,-13.2411 4.94568,-16.6634c2.42514,-8.21485 16.05305,-34.13213 16.05305,-34.13213l28.81283,13.15003c0,0 -7.94308,21.45707 -10.01946,28.83844c-1.2636,4.49198 -8.29263,21.75047 -8.29263,21.75047l-0.28344,3.86964l-2.55621,1.50331l-0.1856,4.55281c0,0 -11.89389,-1.48684 -16.59861,-3.57805z" stroke="#2e3c67" stroke-width="4"/><path d="M234.33119,323.98495c0,0 -5.73456,-2.53346 -5.78698,-3.02666c-0.13567,-1.27626 1.80916,-6.25084 1.80916,-6.25084l25.56834,11.9136l-1.82817,5.09097z" stroke="none" stroke-width="0"/></g><path d="M240.9681,348.18872c-3.84224,9.75581 -6.54184,25.25793 -9.28926,25.51474c-0.8624,0.08062 0.38954,3.64055 -1.34718,4.59031c-1.73672,0.94977 -3.77187,0.60943 -6.85275,-0.10598c-2.92953,-0.68024 -6.00413,-2.99646 -7.04878,-4.28206c-2.68758,-3.30748 2.84295,-8.46199 4.08733,-11.6216c2.20717,-5.60422 11.79138,-25.78955 16.6239,-43.2504c1.00221,-3.62115 4.0399,1.68976 8.2534,2.35694c2.64588,1.26354 5.50274,0.48346 4.62962,4.77039c-0.99395,4.88017 -7.01085,16.83407 -9.05628,22.02764z" fill="#5671c0" stroke="none" stroke-width="0"/></g><g data-paper-data="{&quot;index&quot;:null}"><g><g><path d="M193.32058,273.69352c0,0 0.63571,-18.31854 1.6811,-26.50811c1.0414,-8.15841 4.06504,-19.79014 4.06504,-19.79014l63.97156,0.42572c0,0 3.17288,13.02482 3.49816,19.54905c0.60358,12.10567 -0.32964,27.10398 -0.32964,27.10398l-33.46599,-0.07217l-0.43235,-5.56327l-3.92117,-0.55397l0.21286,5.7848z" fill="#465b9c" stroke="#2e3c67" stroke-width="4" stroke-linecap="butt"/><path d="M237.1308,245.06311c0,0 0.1753,14.15353 -0.25751,18.2756c-0.23364,2.22519 -2.13396,4.50102 -2.13396,4.50102" fill="none" stroke="#2e3c67" stroke-width="4" stroke-linecap="round"/><path d="M226.56852,251.87481v-6.8117h10.56227" fill="none" stroke="#2e3c67" stroke-width="4" stroke-linecap="round"/><path d="M206.91133,241.27059c0,0 -2.78967,9.07125 -4.16556,12.36817c-1.0262,2.45897 -3.35283,5.64728 -3.35283,5.64728" fill="none" stroke="#2e3c67" stroke-width="4" stroke-linecap="round"/><path d="M262.51276,261.41468c0,0 -2.32663,-3.18831 -3.35283,-5.64728c-1.3759,-3.29692 -4.16556,-12.36816 -4.16556,-12.36816" data-paper-data="{&quot;index&quot;:null}" fill="none" stroke="#2e3c67" stroke-width="4" stroke-linecap="round"/><path d="M195.05545,276.60321l0.84834,-10.62262l28.63401,0.27335l-1.18049,10.62262z" fill="#465b9c" stroke="none" stroke-width="0" stroke-linecap="butt"/><path d="M234.89346,277.40872l0.58742,-10.62262l27.709,-0.27333l-0.05347,10.8z" data-paper-data="{&quot;index&quot;:null}" fill="#465b9c" stroke="none" stroke-width="0" stroke-linecap="butt"/></g><g stroke="#281a0d" stroke-width="4" stroke-linecap="butt"><path d="M195.28024,233.78123c0,0 -0.25621,-3.99719 0.03027,-5.66324c0.30957,-1.80034 2.16189,-3.91571 2.16189,-3.91571l9.76513,-0.35477c0,0 3.18861,3.80793 3.18861,5.46355c0,1.65561 -3.18861,4.47018 -3.18861,4.47018z" fill="#3f2b1a"/><path d="M206.44038,234.63269l1.79361,-10.21754l10.16371,0.07096c0,0 3.18861,3.80793 3.18861,5.46355c0,1.65561 -3.18861,4.47018 -3.18861,4.47018z" fill="#67472a"/><path d="M218.59698,234.84555l1.5943,-10.00468l10.36299,-0.14192c0,0 3.18861,3.80794 3.18861,5.46355c0,1.65561 -3.18861,4.47017 -3.18861,4.47017z" fill="#3f2b1a"/><path d="M231.62924,235.34676l0.26286,-10.72394l11.21012,-0.04174c0,0 3.36098,3.63487 3.43762,5.28847c0.07664,1.65359 -2.97779,4.63311 -2.97779,4.63311z" fill="#67472a"/><path d="M243.78082,234.91734l0.86073,-10.29821l10.61226,-0.46747c0,0 3.36098,3.63487 3.43762,5.28846c0.07664,1.65359 -2.97779,4.63311 -2.97779,4.63311z" fill="#3f2b1a"/><path d="M255.94242,234.70815l0.59146,-10.08535l8.42829,-0.68033c0,0 2.64231,3.63487 2.70255,5.28847c0.06026,1.65359 -2.34104,4.63311 -2.34104,4.63311z" fill="#67472a"/></g><path d="M200.37825,235.34436l1.1647,-12.76968l5.77809,-0.14841l0.62891,12.76968z" fill="#465b9c" stroke="#2e3c67" stroke-width="4" stroke-linecap="butt"/><g fill="#67472a" stroke="#281a0d" stroke-width="4" stroke-linecap="butt"><path d="M255.45078,233.57277l5.45478,-8.64844l9.47458,4.23795c0,0 1.27285,4.65756 0.58447,6.14035c-0.68838,1.48279 -4.71478,2.75636 -4.71478,2.75636z"/></g><path d="M223.3799,237.82568c0,0 -1.19573,-4.98486 -1.19573,-7.45029c0,-2.42996 1.19573,-7.23743 1.19573,-7.23743h17.53737c0,0 1.5943,5.71575 1.5943,8.30175c0,2.26808 -1.5943,6.38597 -1.5943,6.38597z" fill="none" stroke="#716b65" stroke-width="4" stroke-linecap="butt"/><path d="M254.38537,235.40882l0.62891,-12.76968l5.77809,0.14841l1.1647,12.76968z" data-paper-data="{&quot;index&quot;:null}" fill="#465b9c" stroke="#2e3c67" stroke-width="4" stroke-linecap="butt"/></g><path d="M217.30682,276.8301c0,3.03703 -13.18633,0.88695 -18.18507,0.88695c-2.67371,0 -0.39622,-11.51649 0.58127,-14.36842c1.16251,-3.39181 6.87552,-6.74074 11.87426,-6.74074c4.99873,0 5.72954,17.18519 5.72954,20.22222z" fill="#5671c0" stroke="none" stroke-width="0" stroke-linecap="butt"/><path d="M240.02264,278.32244c0,-3.03703 0.73081,-20.22222 5.72954,-20.22222c4.99873,0 10.71175,3.34894 11.87426,6.74075c0.97748,2.85193 3.25497,14.36842 0.58127,14.36842c-4.99873,0 -18.18506,2.15009 -18.18506,-0.88694z" data-paper-data="{&quot;index&quot;:null}" fill="#5671c0" stroke="none" stroke-width="0" stroke-linecap="butt"/></g><g data-paper-data="{&quot;index&quot;:null}" stroke-linecap="butt"><g data-paper-data="{&quot;index&quot;:null}" fill="#403328"><g><path d="M266.42674,246.48355c-5.79313,0.6874 -21.94008,-8.0931 -21.94008,-8.0931c0,0 0.21491,-51.0209 -0.63615,-69.1985c-0.7886,-16.84341 -0.48505,-25.79275 -0.48505,-25.79275c0,0 7.55991,-4.17116 9.69793,-9.14879c1.30037,-3.02746 0.36813,-5.29971 1.94018,-5.63407c3.71714,-0.79061 1.39478,-2.2074 7.23447,0.90567c5.83967,3.11307 5.75738,20.9183 1.69321,22.88058c-3.15708,1.52433 -2.58407,25.6153 -2.58407,25.6153l-0.04245,14.6065l9.64236,42.30702c0,0 -0.58808,11.08558 -4.52035,11.55218z" stroke="#292018" stroke-width="4"/><path d="M274.74313,127.89588c0,0 6.99027,-0.44977 7.42784,0.56738c0.41316,0.96042 -1.01271,7.34704 -1.01271,7.34704c0,0 -16.446,13.67798 -18.55661,14.38028c-0.69845,0.23241 -3.12748,-15.06234 -3.63174,-18.26117c-0.50427,-3.19883 1.86868,-6.29728 1.86868,-6.29728z" stroke="none" stroke-width="NaN"/></g><path d="M253.34903,136.02908c-2.19501,2.08365 -6.67801,4.79596 -6.67801,4.79596l1.12121,-10.37719l9.82382,-6.52952l0.59207,4.1587c0,0 -2.57299,5.78189 -4.85909,7.95204z" stroke="#292018" stroke-width="4"/></g><path d="M251.92249,157.18236c0,1.95833 -0.65264,3.54587 -1.4577,3.54587c-0.80506,0 -1.4577,-1.58754 -1.4577,-3.54587c0,-1.95833 0.65264,-3.54587 1.4577,-3.54587c0.80506,0 1.4577,1.58753 1.4577,3.54587z" fill="#dfbd28" stroke="#dfbd28" stroke-width="4"/><path d="M252.17759,179.14943c0,1.95832 -0.65264,3.54587 -1.4577,3.54587c-0.80506,0 -1.4577,-1.58754 -1.4577,-3.54587c0,-1.95832 0.65264,-3.54587 1.4577,-3.54587c0.80506,0 1.4577,1.58754 1.4577,3.54587z" fill="#dfbd28" stroke="#dfbd28" stroke-width="4"/><path d="M252.76068,200.59761c0,1.95832 -0.65264,3.54587 -1.4577,3.54587c-0.80506,0 -1.4577,-1.58754 -1.4577,-3.54587c0,-1.95832 0.65264,-3.54587 1.4577,-3.54587c0.80506,0 1.4577,1.58754 1.4577,3.54587z" fill="#dfbd28" stroke="#dfbd28" stroke-width="4"/><path d="M253.30733,220.83499c0,1.95832 -0.65264,3.54587 -1.4577,3.54587c-0.80506,0 -1.4577,-1.58754 -1.4577,-3.54587c0,-1.95832 0.65264,-3.54587 1.4577,-3.54587c0.80506,0 1.4577,1.58754 1.4577,3.54587z" fill="#dfbd28" stroke="#dfbd28" stroke-width="4"/></g><g data-paper-data="{&quot;index&quot;:null}" stroke="#292018" stroke-width="4"><path d="M189.57331,233.51488l8.42665,-39.72402l0.20695,-17.02807c0,0 4.39196,-23.8488 0.34959,-25.37313c-5.20382,-1.96228 -12.97305,-5.40211 -12.97305,-5.40211c0,0 -9.25571,0.41101 -7.47551,-2.0726c1.78019,-2.48361 10.01772,-8.7928 17.49493,-11.90586c7.4772,-3.11307 9.62527,-5.19627 14.38476,-4.40567c2.01289,0.33437 0.81922,2.60661 2.48424,5.63407c2.73756,4.97762 12.41738,9.14879 12.41738,9.14879c0,0 0.38866,8.94934 -0.62107,25.79275c-1.08972,18.1776 -0.81454,69.19851 -0.81454,69.19851c0,0 -13.35828,9.50698 -20.77588,8.81957c-5.03494,-0.4666 -13.10442,-12.68224 -13.10442,-12.68224z" fill="#403328" stroke-linecap="butt"/><path d="M211.37186,129.00138l-0.28713,-5.8538l14.93032,7.98246l1.4356,10.37719c0,0 -5.74011,-2.71231 -8.55062,-4.79596c-2.92717,-2.17014 -7.52818,-7.70989 -7.52818,-7.70989z" fill="#403328" stroke-linecap="butt"/><path d="M218.66719,152.78316l-0.74658,9.16737" fill="none" stroke-linecap="round"/><path d="M217.21136,182.46466l-0.18665,-7.43768" fill="none" stroke-linecap="round"/><path d="M216.91273,204.50093l0.18664,-7.78361" fill="none" stroke-linecap="round"/><path d="M216.31546,217.47363l-0.18664,8.64845" fill="none" stroke-linecap="round"/></g><g stroke-linecap="butt"><g fill="none" stroke="none" stroke-width="1" font-family="sans-serif" font-weight="normal" font-size="12" text-anchor="start"/><path d="M177.47292,145.86392c7.13658,-6.32648 20.50097,-14.40362 20.50097,-14.40362l11.3061,21.79532c0,0 -6.25318,13.11807 -12.39621,17.68412c-6.1748,4.58968 -27.42681,1.99563 -30.5238,0.43612c-3.55598,-1.79063 3.81139,-19.03919 11.11295,-25.51194z" fill="#403328" stroke="#292018" stroke-width="4"/></g><path d="M208.70923,146.39224c0,0 -5.09325,7.28951 -7.54211,9.43278c-2.44887,2.14327 -6.91846,0.28374 -7.42589,-0.41154c-1.53336,-2.101 -8.80011,-16.7453 -8.80011,-16.7453c0,0 1.33926,-1.55889 2.31853,-2.01027c1.03715,-0.47804 4.47024,-1.02095 4.47024,-1.02095z" fill="#403328" stroke="none" stroke-width="NaN" stroke-linecap="butt"/><path d="M187.74092,89.49468c2.57635,-5.92564 5.6476,-24.3038 5.6476,-24.3038l80.37232,4.01522c0,0 -0.31718,19.73802 1.05088,26.53408c0.89169,4.42959 2.47254,5.33384 2.47254,5.33384c0,0 -3.47593,5.52801 -6.70864,5.44588c-1.03523,-0.0263 -3.25061,-0.09603 -4.71928,-0.08812c-0.58586,0.00315 -1.33315,9.08077 -1.33315,9.08077c0,0 -4.09646,3.58229 -7.53551,3.54805c-1.4266,-0.01421 -6.16818,-0.94619 -7.67893,-0.91759c-1.70252,0.03224 -5.22515,1.42784 -7.89688,2.23913c-4.31793,1.31117 -10.08003,0.66369 -10.08003,0.66369c0,0 -4.71888,-1.84623 -8.10542,-3.62161c-2.7987,-1.46719 -4.08796,-2.88819 -6.36888,-3.15934c-1.52821,-0.18167 -13.24247,2.09151 -14.09181,2.02683c-2.0655,-0.15726 -10.32282,-4.61459 -10.32282,-4.61459c0,0 2.14493,-6.64363 0.88483,-6.78674c-1.68239,-0.19107 -3.54791,-3.77967 -4.50393,-3.93851c-2.95593,-0.49116 -5.09822,-5.87643 -5.09822,-5.87643c0,0 2.1156,-1.21136 4.01533,-5.58076z" data-paper-data="{&quot;index&quot;:null}" fill="#14161a" stroke="#14161a" stroke-width="4" stroke-linecap="butt"/><path d="M195.09892,77.14487c1.32319,-26.41842 18.02327,-40.65811 41.19997,-39.49728c23.1767,1.16083 38.37035,16.99793 37.04717,43.41634c-1.32318,26.41843 -24.74012,43.40243 -35.31861,43.08063c-24.29075,-0.73891 -44.25171,-20.58127 -42.92852,-46.99969z" data-paper-data="{&quot;index&quot;:null}" fill="#d9bb9a" stroke="#917c67" stroke-width="4" stroke-linecap="butt"/><path d="M267.26911,81.29241c-1.05855,21.13473 -18.11195,37.54233 -28.83257,37.00539c-21.03995,-0.74153 -38.13168,-19.17159 -37.07312,-40.30634c1.05855,-21.13473 13.78448,-35.00926 35.13505,-33.93991c21.08482,1.05605 31.82921,16.10611 30.77066,37.24085z" fill="#ffdbb5" stroke="none" stroke-width="0" stroke-linecap="butt"/><path d="M249.20792,100.6103c-0.08807,1.3491 -3.12149,4.31604 -6.34758,4.10545c-3.22609,-0.21059 -4.93532,-1.86932 -4.84726,-3.21841c0.08807,-1.3491 1.94008,-1.8777 5.16618,-1.66711c3.22609,0.21059 6.11673,-0.56903 6.02866,0.78007z" fill="#d9bb9a" stroke="none" stroke-width="0" stroke-linecap="butt"/><path d="M250.39786,110.56292c0,0 -6.62363,2.11062 -10.34251,1.97107c-3.81049,-0.143 -10.67257,-3.55621 -10.67257,-3.55621" fill="none" stroke="#d9bb9a" stroke-width="4" stroke-linecap="round"/><g data-paper-data="{&quot;index&quot;:null}" stroke="none" stroke-width="0" stroke-linecap="butt"><path d="M271.61166,90.06039c-0.47863,7.33204 -6.22058,12.92635 -12.82502,12.49523c-6.60442,-0.43113 -11.57038,-6.72443 -11.09176,-14.05646c0.47863,-7.33204 6.22059,-12.92633 12.82502,-12.49521c6.60444,0.43113 11.57038,6.72443 11.09176,14.05646z" fill="#d3f0f1"/><path d="M259.28422,76.94101c5.48167,0.35784 9.57004,6.09263 9.13161,12.809c-0.43844,6.71636 -5.23765,11.87098 -10.71932,11.51315c-5.48167,-0.35784 -9.57003,-6.09261 -9.1316,-12.80899c0.43844,-6.71636 5.23764,-11.87099 10.71931,-11.51316z" fill="#ffffff"/></g><g data-paper-data="{&quot;index&quot;:null}" stroke="none" stroke-width="0" stroke-linecap="butt"><g data-paper-data="{&quot;index&quot;:null}"><path d="M272.35411,92.47687c-0.37495,5.74385 -3.97977,10.18467 -8.05158,9.91887c-4.07181,-0.2658 -7.06869,-5.13757 -6.69374,-10.88142c0.37495,-5.74384 3.97974,-10.18467 8.05156,-9.91887c4.07181,0.2658 7.06871,5.13759 6.69376,10.88142z" fill="#41563d"/><path d="M264.15518,98.95232c-3.7645,-0.24574 -6.11594,-5.47149 -5.90887,-8.64347c0.20706,-3.17198 1.96003,-8.75765 7.95024,-8.36662c3.7645,0.24574 6.44573,6.12088 6.23866,9.29285c-0.20706,3.17197 -4.51552,7.96298 -8.28002,7.71724z" fill="#5f7d59"/></g><path d="M259.09843,88.12058c0.15745,-2.41201 2.2404,-4.23968 4.65241,-4.08223c2.41201,0.15745 4.23968,2.24041 4.08223,4.65242c-0.15745,2.41202 -2.24041,4.23968 -4.65242,4.08223c-2.41201,-0.15745 -4.23967,-2.2404 -4.08222,-4.65242z" fill="#8ebb85"/><path d="M262.53021,92.73053c0.0871,-1.3343 1.23938,-2.34536 2.57368,-2.25826c1.3343,0.0871 2.34536,1.23938 2.25826,2.57368c-0.0871,1.3343 -1.23938,2.34537 -2.57368,2.25827c-1.3343,-0.0871 -2.34536,-1.23939 -2.25826,-2.57369z" fill="#8ebb85"/></g><g data-paper-data="{&quot;index&quot;:null}" stroke="none" stroke-width="0" stroke-linecap="butt"><path d="M221.04304,72.57366c6.60442,0.43113 11.57038,6.72443 11.09176,14.05648c-0.47863,7.33204 -6.22058,12.92634 -12.82502,12.49521c-6.60442,-0.43113 -11.57039,-6.72442 -11.09176,-14.05646c0.47863,-7.33204 6.22059,-12.92633 12.82502,-12.49521z" fill="#d3f0f1"/><path d="M231.27798,86.47242c-0.43844,6.71638 -5.23764,11.87098 -10.71931,11.51315c-5.48167,-0.35784 -9.57004,-6.09262 -9.13161,-12.80899c0.43844,-6.71636 5.23765,-11.87099 10.71932,-11.51316c5.48167,0.35784 9.57003,6.09262 9.1316,12.809z" fill="#ffffff"/></g><g data-paper-data="{&quot;index&quot;:null}" stroke="none" stroke-width="0" stroke-linecap="butt"><g data-paper-data="{&quot;index&quot;:null}"><path d="M225.33583,77.59015c4.07181,0.2658 7.06869,5.13759 6.69374,10.88142c-0.37495,5.74385 -3.97974,10.18467 -8.05156,9.91887c-4.07181,-0.2658 -7.06871,-5.13757 -6.69376,-10.88142c0.37495,-5.74384 3.97975,-10.18467 8.05158,-9.91887z" fill="#41563d"/><path d="M217.36532,86.26722c0.20706,-3.17198 3.6293,-8.64869 7.3938,-8.40294c5.99021,0.39103 7.00215,6.1572 6.79509,9.32918c-0.20706,3.17197 -3.21791,8.04769 -6.98241,7.80195c-3.7645,-0.24574 -7.41354,-5.5562 -7.20648,-8.72818z" fill="#5f7d59"/></g><path d="M226.34138,88.99521c-2.41201,-0.15745 -4.23968,-2.24041 -4.08223,-4.65242c0.15745,-2.41201 2.24041,-4.23969 4.65242,-4.08224c2.41201,0.15745 4.23967,2.24041 4.08222,4.65243c-0.15745,2.41201 -2.2404,4.23968 -4.65241,4.08223z" fill="#8ebb85"/><path d="M224.41814,91.29592c-1.3343,-0.0871 -2.34536,-1.23938 -2.25826,-2.57368c0.0871,-1.3343 1.23938,-2.34537 2.57368,-2.25827c1.3343,0.0871 2.34536,1.23939 2.25826,2.57369c-0.0871,1.3343 -1.23938,2.34536 -2.57368,2.25826z" fill="#8ebb85"/></g><path d="M199.55937,88.6676c0.73552,5.56277 1.86047,8.69185 0.35031,9.54203c-1.51016,0.85018 -7.42807,-3.39938 -8.1636,-8.96215c-0.73552,-5.56277 3.68813,-9.96604 5.42115,-9.9742c3.15434,-0.01484 1.65662,3.83153 2.39214,9.39431z" data-paper-data="{&quot;index&quot;:null}" fill="#d9bb9a" stroke="#917c67" stroke-width="4" stroke-linecap="butt"/><g data-paper-data="{&quot;index&quot;:null}"><g><path d="M195.22701,79.54256c-0.42846,2.69961 -5.19993,4.41845 -5.19993,4.41845c0,0 -2.97562,1.20657 -4.0291,-1.52976c-0.85798,-2.22857 -4.6286,-5.97088 -4.6286,-5.97088c0,0 1.77143,-2.60314 3.99244,-5.53728c0.57395,-0.75824 -3.22282,-3.23758 -4.18277,-4.88786c-0.95995,-1.65027 -2.42977,-9.67815 -2.42977,-9.67815c0,0 7.08893,-2.14329 8.98264,-6.5763c0.93964,-2.1996 1.1635,-5.83461 1.83441,-7.22583c3.82253,-7.92653 2.04998,-9.83359 6.54843,-13.81921c0.47011,-0.41652 8.73601,-5.39781 9.15659,-5.77397c7.32553,-6.55171 8.585,-6.84233 19.14703,-7.2684c11.16844,-0.45053 19.58239,-3.67705 26.02036,0.03071c4.20384,2.42109 14.71098,8.35016 22.04947,11.32606c6.68388,8.01549 9.31813,13.05807 9.51776,22.70983c0.06404,3.09619 -2.59335,5.10412 -1.49852,8.39188c0.49664,1.49139 7.34658,12.98753 7.34658,12.98753c0,0 -1.78552,3.6228 -4.02864,4.94481c-2.22241,1.30981 -4.5398,0.76386 -5.1306,1.88124c-1.28883,2.4375 -0.35396,5.06355 -0.84327,6.88823c-0.35598,1.32747 -0.96467,2.01365 -1.94011,3.21633c-1.64654,2.03011 -1.49628,-1.25481 -1.27388,-3.41562c0.41573,-4.03909 -0.37681,-6.97865 -0.40952,-6.32928c-1.61454,0.70493 -0.33209,0.7517 -7.12763,-0.86121c-0.37799,-0.08971 -1.52302,-2.99657 -2.94059,-4.27148c-1.41757,-1.2749 -2.38477,-5.61622 -2.38477,-5.61622c0,0 -10.66738,4.27027 -15.20475,4.39563c-6.54615,0.18086 -14.1816,1.98176 -17.87716,1.3723c-9.03369,-1.48983 -13.02483,-2.80333 -16.62212,-3.11229c-3.34822,-0.28757 -9.43999,2.73517 -11.4961,1.66674c0,0 -4.78546,4.1003 -5.34789,7.64401z" fill="#252931" stroke="#14161a" stroke-width="4" stroke-linecap="butt"/><path d="M261.85472,59.33349c-24.1144,8.44351 -46.32432,3.41902 -65.33346,4.1702c-3.93519,0.1555 -5.02423,-3.11011 -5.02423,-3.11011c0,0 6.96158,-6.97587 7.60869,-16.88879c0.31144,-4.77095 6.8577,-14.46333 15.57914,-19.34647c7.24956,-4.05902 21.73782,-4.00375 28.9101,-5.0793c4.64495,-0.69656 4.26024,2.96979 8.41014,3.24069c11.77983,0.76897 10.30916,7.94602 13.68979,15.68489c2.46057,5.63272 -0.39396,20.12222 -3.84018,21.32891z" fill="#494c5e" stroke="none" stroke-width="0" stroke-linecap="butt"/><path d="M253.68584,30.88485c0.08779,-1.3448 -5.60359,1.37235 -6.10858,-0.44786c-0.37064,-1.33591 2.10146,-3.2205 2.80551,-5.15765c0.20261,-0.55748 -0.49553,-2.78428 -2.5276,-4.15091c-1.6913,-1.13745 -4.7806,-1.44776 -4.65435,-1.84556c0.51286,-1.61603 9.11383,0.31324 10.0447,0.37401c3.69535,0.24123 16.43994,11.21663 16.19106,15.0293c-0.0151,0.2313 3.64724,19.75558 -2.78508,27.50332c-0.92885,1.1188 -8.37216,0.64404 -8.65752,-1.4498c-0.08971,-0.65829 -4.40363,-2.02394 -3.19199,-4.06354c1.65071,-2.77867 10.15502,-5.01994 9.91613,-5.80484c-0.68214,-2.24127 -13.68318,3.7337 -14.65914,0.47565c-0.97595,-3.25805 13.63481,-10.63456 11.67604,-13.11818c-3.16164,1.02516 -11.13272,5.84476 -12.12504,4.4425c-3.00706,-4.24935 3.82695,-7.97378 4.07583,-11.78643z" fill="#252931" stroke="none" stroke-width="0" stroke-linecap="butt"/><path d="M207.73797,60.56891c-0.70612,1.14786 1.81847,0.19665 3.64429,0.80335c1.82581,0.6067 8.04891,1.61523 6.52113,2.99875c-0.80562,0.72955 -10.79133,-0.85802 -11.44631,-0.21369c-1.20868,1.189 -3.86615,2.12723 -4.6607,1.63847c-1.91212,-1.17623 -10.84138,1.41395 -11.98853,-3.80915c-0.74519,-3.39286 5.40598,-9.26606 6.19431,-10.54757c0.12145,-0.19742 2.54055,-18.32964 11.84812,-22.17299c1.34404,-0.55499 9.79013,-2.49323 9.06382,-0.50877c-0.22835,0.6239 -5.63603,6.76302 -7.66042,7.9999c-2.75796,1.68507 -5.30973,3.11173 -5.46537,3.91728c-0.44442,2.30025 13.87035,0.16009 13.29369,2.22207c-0.91601,3.27542 -16.18965,5.90819 -15.27977,7.34281c1.03746,1.63576 8.09664,-0.64659 15.2223,-1.67855c5.51865,-0.79924 11.65002,-0.4696 11.43486,0.61684c-0.19975,1.00861 -1.83543,3.56618 -3.71164,4.36012c-5.45881,2.30998 -15.51994,4.60923 -17.00979,7.03115z" fill="#252931" stroke="none" stroke-width="0" stroke-linecap="butt"/><path d="M269.57421,61.65846c0,0 -5.81174,5.64695 -6.79113,5.98904c-1.95847,0.68408 -5.94025,1.30749 -5.94025,1.30749" fill="none" stroke="#14161a" stroke-width="4" stroke-linecap="round"/><path d="M228.169,31.45672c-0.3805,-3.1513 2.79703,-5.83708 6.59027,-6.29508c3.79322,-0.45801 9.28254,-1.12364 9.66304,2.02765c0.3805,3.1513 -5.03209,7.39772 -8.82532,7.85572c-3.79322,0.458 -7.04749,-0.437 -7.428,-3.58828z" fill="#686c85" stroke="none" stroke-width="0" stroke-linecap="butt"/><path d="M214.59042,36.32327c-0.21969,-1.81948 2.666,-3.63805 4.85612,-3.9025c2.19012,-0.26444 4.38381,0.58521 4.60349,2.4047c0.21969,1.81948 -1.76089,2.84387 -3.95101,3.10831c-2.19012,0.26444 -5.28893,0.20898 -5.5086,-1.6105z" fill="#686c85" stroke="none" stroke-width="0" stroke-linecap="butt"/><path d="M240.19574,39.16842c-0.4922,-1.76535 0.72976,-2.38595 2.85474,-2.97842c2.12498,-0.59248 3.63846,-1.72554 4.13067,0.03983c0.4922,1.76535 -1.31074,3.07737 -3.43572,3.66984c-2.12498,0.59248 -3.05746,1.03411 -3.54967,-0.73125z" fill="#686c85" stroke="none" stroke-width="0" stroke-linecap="butt"/></g><path d="M277.95101,70.92086c-1.58482,0.225 -0.07261,3.46035 -1.14749,3.39018c-1.13131,-0.07385 -2.85114,-2.23045 -4.06535,-3.82625c-1.55579,-2.04475 -2.27085,-3.23038 -2.19342,-4.4164c0.08414,-1.28889 0.27462,-0.29656 1.73666,-0.52512c0.93326,-0.1459 2.4353,-4.59421 3.44086,-4.52857c0.95801,0.06254 0.63142,2.20558 1.84954,4.18332c0.19374,0.31456 1.60713,-6.02086 2.49936,-3.61784c0.49499,1.33316 3.92462,4.72714 4.79185,8.65725c0.86723,3.93011 -3.65273,-2.17759 -4.85271,-1.37804c-1.19998,0.79954 1.68734,2.37087 1.61884,3.42017c0,0 -1.45761,-1.67395 -3.67814,-1.3587z" fill="#494c5e" stroke="none" stroke-width="0" stroke-linecap="butt"/><path d="M272.91526,41.16181c0.40718,1.01914 -1.10226,2.55518 -4.81476,4.03849c-3.71251,1.48332 -5.06927,1.98907 -5.47647,0.96994c-0.40719,-1.01912 1.42249,-3.10322 5.13501,-4.58654c3.71251,-1.48332 4.74901,-1.44103 5.15621,-0.42191z" fill="#494c5e" stroke="none" stroke-width="0" stroke-linecap="butt"/></g><path d="M264.04283,80.72824c-5.48987,0.25093 -12.46036,1.33408 -12.66745,-1.66135c-0.20709,-2.99541 11.61871,-5.11841 17.10858,-5.36934c5.48986,-0.25092 8.20765,1.63406 8.41474,4.62947c0.20709,2.99541 -7.36599,2.15029 -12.85586,2.40121z" data-paper-data="{&quot;index&quot;:null}" fill="#424956" stroke="#14161a" stroke-width="4" stroke-linecap="butt"/><path d="M208.90506,73.43967c0.59474,-2.94307 3.53452,-4.45873 8.94517,-3.49623c5.41065,0.9625 16.8601,4.60487 16.26535,7.54794c-0.59474,2.94307 -7.36529,0.96292 -12.77594,0.00044c-5.41065,-0.9625 -13.02933,-1.10907 -12.43458,-4.05213z" data-paper-data="{&quot;index&quot;:null}" fill="#424956" stroke="#14161a" stroke-width="4" stroke-linecap="butt"/><g fill="#ffffff" stroke="none" stroke-width="0" stroke-linecap="butt"><g><path d="M268.25734,258.32999c0,0 29.9301,-38.49886 39.04424,-53.57496c7.16667,-11.85473 3.90812,-24.67307 7.01345,-34.41891c2.53786,-7.96495 1.62926,-18.82248 1.62926,-18.82248l19.43728,-0.93868l26.71295,-0.17198l-6.11991,10.57464l-13.66787,7.64244c0,0 -10.64214,27.68121 -18.92539,39.80799c-8.28325,12.12678 -3.24412,12.52658 -21.31689,24.6694c-6.49656,4.36496 -7.39333,9.94972 -12.90062,15.85538c-2.90268,3.11267 7.72136,4.59746 7.72136,4.59746z"/><path d="M302.06253,43.5086c0,0 -10.69254,1.31009 -7.94351,4.46909c5.21569,5.99359 5.83844,11.59081 12.11854,16.06057c17.47056,12.43428 13.14586,14.23784 20.09631,25.14347c6.95045,10.90564 13.98223,38.83722 13.98223,38.83722l16.67216,5.56769l5.19274,10.33973l-27.78739,1.61735l-18.63726,1.49654c0,0 1.79844,-12.0616 -0.34818,-20.06499c-2.62657,-9.7928 1.25872,-22.55255 -5.32423,-34.52008c-8.37176,-15.2195 -36.40352,-54.19353 -36.40352,-54.19353z" data-paper-data="{&quot;index&quot;:null}"/><path d="M316.76292,160.27348v-15.94567h18.05149v15.94567z"/></g><path d="M189.02516,148.1465l84.41597,-107.05117l-79.83129,107.07578l73.62176,107.72652z"/><path d="M191.48193,148.98844v-1.812h181.20073v1.812z"/><path d="M371.43967,145.67796l11.01903,2.86498l-11.01903,2.86498z"/><path d="M211.45877,138.20215l4.32617,-0.7688l6.88559,7.97284h-17.39526z"/><path d="M205.01907,150.75868h17.39525l-6.88563,7.9728l-4.32617,-0.7688z" data-paper-data="{&quot;index&quot;:null}"/></g><path d="M339.62231,173.76278c-1.28959,-0.44259 -2.67745,-0.64114 -4.02537,-0.85149c-1.10147,-0.17188 -2.18934,-0.65062 -3.29933,-0.54719c-3.40709,0.31748 -2.14865,4.2769 -2.46261,6.35901c-0.2193,1.45432 -0.53695,2.91022 -1.07292,4.27985c-1.21355,3.10116 -5.63064,7.74647 -3.56598,11.24537c1.89414,3.20992 7.56903,5.61699 10.63742,2.46359c2.40694,-2.47362 3.10666,-6.88441 3.81251,-10.05763c0.99864,-4.32483 -0.30192,-8.54231 -0.02373,-12.89152zM342.32544,170.55531c0.58055,0.14589 0.92074,0.50194 1.12009,0.86911c0.243,0.34785 0.41076,0.82051 0.27018,1.41797l-0.00813,0.24196c-0.71355,4.8882 0.91631,9.5212 -0.15818,14.44391c-0.87243,3.87299 -1.84096,9.19796 -4.94087,12.06453c-5.10463,4.72039 -13.77647,2.31537 -16.93591,-3.45103c-2.94558,-5.37608 1.41943,-9.85211 3.37286,-14.61759c1.32613,-3.23517 -0.15667,-7.73158 2.17142,-10.58059c3.47987,-4.2585 10.86368,-2.3815 15.10854,-0.38828z" fill="#917c67" stroke="none" stroke-width="0.5" stroke-linecap="butt"/><path d="M339.69516,186.66362c-0.70585,3.17323 -1.44011,7.62252 -3.84705,10.09614c-3.06839,3.1534 -8.78901,0.73763 -10.68315,-2.47229c-2.06466,-3.4989 2.34132,-8.21007 3.55487,-11.31124c0.53597,-1.36963 0.87799,-2.84548 1.09728,-4.2998c0.31396,-2.08211 -0.92677,-6.04484 2.48032,-6.36232c1.10999,-0.10343 2.21077,0.37695 3.31223,0.54884c1.34792,0.21034 2.74978,0.41499 4.03937,0.85758c-0.27819,4.34922 1.04476,8.61826 0.04612,12.94309z" data-paper-data="{&quot;noHover&quot;:false,&quot;origItem&quot;:[&quot;Path&quot;,{&quot;applyMatrix&quot;:true,&quot;segments&quot;:[[[339.62231,173.76278],[-0.27819,4.34922],[-1.28959,-0.44259]],[[335.59694,172.91129],[1.34792,0.21034],[-1.10147,-0.17188]],[[332.29762,172.36411],[1.10999,-0.10343],[-3.40709,0.31748]],[[329.835,178.72312],[0.31396,-2.08211],[-0.2193,1.45432]],[[328.76209,183.00297],[0.53597,-1.36963],[-1.21355,3.10116]],[[325.1961,194.24834],[-2.06466,-3.4989],[1.89414,3.20992]],[[335.83353,196.71193],[-3.06839,3.1534],[2.40694,-2.47362]],[[339.64604,186.6543],[-0.70585,3.17323],[0.99864,-4.32483]]],&quot;closed&quot;:true}]}" fill="#d9bb9a" stroke="none" stroke-width="0.5" stroke-linecap="butt"/><g stroke="none" stroke-width="0.5" stroke-linecap="butt"><path d="M184.5576,139.10456c0.11845,-0.63019 0.52827,-1.081 0.52827,-1.081c1.96877,-2.11931 4.40234,-3.93793 7.09322,-4.9994c1.52915,-0.60321 2.99468,-1.79949 4.63454,-1.68538c4.78447,0.33291 4.40317,5.30095 7.11912,7.75624c2.44107,2.20678 6.47992,3.05265 8.70974,5.703c5.62902,6.69062 0.73556,19.0707 -6.6817,22.2728c-3.96497,1.71171 -8.18198,1.11236 -12.34506,0.91764c-2.63568,-0.13691 -4.29203,0.02363 -6.81394,-1.35495c-1.85502,-1.01403 -2.38975,-3.51286 -3.85806,-5.03385c-1.02337,-1.06008 -3.71098,-1.96148 -5.10499,-2.32339c-1.40384,-0.36446 -7.36187,-1.20326 -8.12613,-2.79096c-1.87277,-3.89057 1.25252,-6.8547 3.18956,-9.37158c3.12816,-4.06454 7.09548,-6.10904 11.65543,-8.00917zM189.1254,139.34384c0.43465,1.12081 -0.51463,2.07009 -0.51463,2.07009l-0.9829,0.75656c-4.56012,1.83175 -8.52178,3.49408 -11.56294,7.3921c-0.06412,0.08219 -3.48913,3.70672 -2.92463,4.86092c0.2724,0.55697 1.24225,0.05373 1.85321,0.1593c1.30948,0.22628 2.61497,0.48974 3.89835,0.83456c2.29486,0.61659 5.15669,1.67625 6.88029,3.35384c1.28857,1.25417 1.47929,3.61053 3.08078,4.42821c1.66567,0.85045 3.1644,0.72038 4.95022,0.79341c3.50518,0.16492 7.23388,0.79812 10.58499,-0.59991c4.79211,-1.99919 9.27075,-11.55087 5.23671,-15.9693c-2.16656,-2.37301 -5.97539,-3.14803 -8.25509,-5.25761c-1.69511,-1.56861 -2.38149,-3.96031 -3.67404,-5.87428c-0.2917,-0.43195 -0.70975,-1.02327 -1.22802,-0.96796c-1.02158,0.10903 -1.81241,0.97171 -2.74968,1.39249c-1.08433,0.48679 -2.33785,0.64289 -3.30938,1.32763c-0.5001,0.35249 -0.90278,0.81381 -1.28325,1.29993z" fill="#917c67"/><path d="M190.40139,137.99444c0.97153,-0.68474 2.23832,-0.84101 3.32264,-1.32781c0.93727,-0.42077 1.73643,-1.28172 2.75801,-1.39075c0.51827,-0.05532 0.94102,0.53768 1.23272,0.96962c1.29254,1.91397 1.99842,4.32004 3.69354,5.88866c2.27971,2.10958 6.09954,2.90974 8.2661,5.28275c4.03404,4.41843 -0.46066,14.01397 -5.25277,16.01316c-3.35111,1.39803 -7.10745,0.77734 -10.61263,0.61243c-1.78582,-0.07303 -3.30228,0.05595 -4.96796,-0.7945c-1.60149,-0.81768 -1.80924,-3.18182 -3.09781,-4.43599c-1.7236,-1.67759 -4.60254,-2.75851 -6.8974,-3.3751c-1.28338,-0.34482 -2.59099,-0.61437 -3.90048,-0.84065c-0.61096,-0.10557 -1.58123,0.39606 -1.85363,-0.16091c-0.5645,-1.1542 2.85909,-4.7913 2.92321,-4.87349c3.04116,-3.89802 7.02738,-5.60267 11.5875,-7.43442l0.98896,-0.75961c0,0 0.95482,-0.95123 0.52017,-2.07205c0.38047,-0.48612 0.78971,-0.94886 1.28982,-1.30135z" data-paper-data="{&quot;noHover&quot;:false,&quot;origItem&quot;:[&quot;Path&quot;,{&quot;applyMatrix&quot;:true,&quot;segments&quot;:[[[395.2508,278.68767],[0.76094,-0.97225],[0.8693,2.24163]],[394.22155,282.82785],[[392.25574,284.34098],[0,0],[-9.12024,3.66349]],[[369.12987,299.12519],[6.08231,-7.79604],[-0.12824,0.16437]],[[363.28061,308.84703],[-1.12901,-2.3084],[0.54481,1.11394]],[[366.98703,309.16564],[-1.22192,-0.21115],[2.61897,0.45256]],[[374.78373,310.83476],[-2.56675,-0.68965],[4.58972,1.23318]],[[388.54431,317.54245],[-3.44721,-3.35518],[2.57714,2.50834]],[[394.70587,326.39887],[-3.20298,-1.63536],[3.33135,1.7009]],[[404.60632,327.98568],[-3.57164,-0.14605],[7.01036,0.32983]],[[425.7763,326.78586],[-6.70222,2.79606],[9.58423,-3.99839]],[[436.24971,294.84727],[8.06808,8.83685],[-4.33312,-4.74601]],[[419.73952,284.33204],[4.55941,4.21916],[-3.39023,-3.13723]],[[412.39145,272.58348],[2.58509,3.82795],[-0.5834,-0.86389]],[[409.93541,270.64757],[1.03654,-0.11063],[-2.04317,0.21806]],[[404.43605,273.43254],[1.87454,-0.84155],[-2.16865,0.97358]],[[397.8173,276.08781],[1.94305,-1.36949],[-1.00021,0.70497]]],&quot;closed&quot;:true}]}" fill="#d9bb9a"/><path d="M200.83898,157.85222c-0.55395,-0.00236 -1.10357,-0.04662 -1.61914,-0.10174c-0.5176,-0.05534 -1.06151,-0.16204 -1.62163,-0.31042c0.57827,0.20096 1.18504,0.35346 1.82799,0.44496c0.45453,0.06469 0.93309,0.05037 1.41278,-0.0328zM190.06381,143.9766l0.99894,-1.16891c3.85733,-1.07082 6.69254,-0.75299 10.36154,0.81088c1.72032,1.21938 4.56815,2.83378 5.90084,4.54317c3.92329,5.03226 0.54724,12.75591 -5.65807,13.68896c-5.73905,0.86294 -9.44957,-3.08487 -13.7091,-6.00842c-2.05486,-1.41037 -7.29691,-3.36901 -6.10879,-7.06843c0.3924,-1.22181 2.1388,-1.42096 3.24429,-2.07265c1.61686,-0.95315 3.30802,-1.82478 4.97035,-2.72461z" fill="#ffdbb5"/></g></g></g></svg>