<svg xmlns="http://www.w3.org/2000/svg" xmlns:xlink="http://www.w3.org/1999/xlink" version="1.1" width="163.7155" height="271.56519" viewBox="0,0,163.7155,271.56519"><g><g data-paper-data="{&quot;isPaintingLayer&quot;:true}" fill-rule="nonzero" stroke-linejoin="miter" stroke-miterlimit="10" stroke-dasharray="" stroke-dashoffset="0" style="mix-blend-mode: normal"><g stroke-linecap="butt"><g data-paper-data="{&quot;index&quot;:null}"><path d="M 102.7995 145.1929 C 99.0795 146.0783 98.4944 148.2495 97.497 146.7201 C 96.5503 145.2684 98.7618 145.0777 100.8179 142.2314 C 103.6092 138.3676 107.3307 131.4754 113.8007 127.2563 C 125.0369 119.9292 135.9547 116.7639 138.1865 120.1863 C 140.4183 123.6088 133.1188 132.323 121.8827 139.6501 C 115.668 143.7027 107.4035 144.0971 102.7994 145.1929 Z " fill="#000000" stroke-width="3.5" stroke="#000000"/><path d="M 125.6814 127.3539 C 123.8174 123.381 125.305 118.7534 129.0039 117.018 C 130.0935 116.5068 132.0741 112.892 133.216 112.9612 C 135.9508 113.1269 137.7616 118.2667 139.0765 121.0695 C 140.9404 125.0424 139.4528 129.67 135.7539 131.4054 C 132.055 133.1408 127.5454 131.3269 125.6814 127.354 Z " fill="#ffc885" stroke-width="3.5" stroke="#000000"/></g><g data-paper-data="{&quot;index&quot;:null}"><path d="M 135.6427 102.7991 L 161.12 82.323 L 154.7739 116.0564 L 150.5524 106.8417 L 138.07 123.2372 L 132.8794 119.8343 L 145.5834 103.6729 Z " fill="#ff0000" stroke="#900000" stroke-width="3.5"/><path d="M 157.0924 88.6075 C 156.8282 89.5547 156.6755 92.0213 155.0368 92.0595 C 154.8701 92.0634 154.7124 92.0489 154.5632 92.0175 C 154.761 93.2758 153.9015 94.4562 152.6432 94.6541 C 151.3848 94.8521 150.2043 93.9925 150.0063 92.7342 C 149.8084 91.4758 150.668 90.2953 151.9263 90.0973 C 152.2207 90.051 152.5108 90.0626 152.7851 90.1236 C 151.9624 87.8094 152.4089 84.1586 153.3034 83.4424 C 153.5941 82.7085 154.2542 82.1429 155.0904 82.0114 C 156.3488 81.8135 157.5293 82.673 157.7273 83.9314 C 157.7691 84.1975 157.7637 84.46 157.7172 84.7106 C 157.8635 85.7803 157.5211 87.071 157.0924 88.6075 Z " fill="#000000" stroke="none" stroke-width="3.5"/><path d="M 162.3645 101.43 C 161.7566 102.2649 160.5757 102.3414 159.2982 102.0073 C 159.1553 102.9798 158.3963 103.7887 157.3742 103.9495 C 156.1159 104.1474 154.9353 103.2879 154.7374 102.0295 C 154.6211 101.2904 154.8696 100.5782 155.3495 100.0761 C 154.8038 99.7339 154.4037 99.1662 154.2957 98.48 C 154.0978 97.2217 154.9573 96.0411 156.2157 95.8432 C 156.6803 95.7701 157.1342 95.8411 157.5321 96.0232 C 160.0608 96.7038 164.0293 99.1435 162.3645 101.4299 Z " fill="#000000" stroke="none" stroke-width="3.5"/><path d="M 145.0843 100.1896 C 145.0837 100.1884 145.0831 100.187 145.0824 100.1857 C 144.3527 99.8933 143.7911 99.2351 143.6601 98.4021 C 143.4621 97.1438 144.3217 95.9632 145.5801 95.7653 C 145.6371 95.7563 145.694 95.7495 145.7507 95.7448 C 153.8311 94.8539 148.2919 106.7763 145.0843 100.1896 Z " fill="#000000" stroke="none" stroke-width="3.5"/></g></g><path d="M 70.8534 149.25 C 70.8534 156.4654 59.322 162.3147 45.0973 162.3147 C 38.718 162.3147 37.173 161.1383 32.6743 159.1898 C 27.1416 156.7935 19.3411 153.2295 19.3411 149.25 C 19.3411 146.4044 25.4273 143.7713 28.4722 141.6256 C 33.1481 138.3307 36.4824 136.1853 45.0973 136.1853 C 59.322 136.1853 70.8534 142.0345 70.8534 149.25 Z " fill="#2e2e2e" stroke="#000000" stroke-linecap="butt" stroke-width="3.5"/><g stroke-linecap="butt"><path d="M 108.6655 176.8367 C 108.6655 206.3454 101.6417 230.267 77.4294 230.267 C 53.2171 230.267 44.0012 205.2494 44.0012 175.7407 C 44.0012 146.232 53.2171 123.4065 77.4294 123.4065 C 101.6416 123.4065 108.6655 147.328 108.6655 176.8367 Z " fill="#000000" stroke-width="3.5" stroke="#000000"/><path d="M 107.5695 205.3329 C 107.5695 208.8134 94.0673 211.6349 76.0594 211.6349 C 58.0515 211.6349 45.6452 208.8134 45.6452 205.3329 C 45.6452 204.4593 43.6868 203.6272 45.1424 202.8708 C 49.4859 200.6137 62.5714 199.0308 76.0594 199.0308 C 85.8933 199.0308 98.2196 199.8723 103.9011 201.2029 C 108.6236 202.309 107.5695 203.753 107.5695 205.3329 Z " fill="#9c9c9c" stroke-width="3.5" stroke="#000000"/><path d="M 110.3008 182.3168 C 110.3008 185.7973 95.6253 188.6188 76.0526 188.6188 C 56.48 188.6188 42.9957 185.7973 42.9957 182.3168 C 42.9957 181.4432 40.8671 180.6111 42.4491 179.8547 C 47.1701 177.5976 61.3926 176.0147 76.0526 176.0147 C 86.7411 176.0147 100.1385 176.8562 106.3137 178.1868 C 111.4465 179.2929 110.3008 180.7369 110.3008 182.3168 Z " fill="#9c9c9c" stroke-width="3.5" stroke="#000000"/><path d="M 109.7546 157.6567 C 109.7546 161.1372 95.3137 163.9587 76.054 163.9587 C 56.7943 163.9587 43.5256 161.1372 43.5256 157.6567 C 43.5256 156.7831 41.431 155.951 42.9878 155.1946 C 47.6333 152.9375 61.6284 151.3546 76.054 151.3546 C 86.5715 151.3546 99.7547 152.1961 105.8312 153.5267 C 110.8819 154.6327 109.7546 156.0768 109.7546 157.6566 Z " fill="#9c9c9c" stroke-width="3.5" stroke="#000000"/></g><path d="M 142.3934 74.728 C 142.3934 112.9619 110.9093 143.9566 72.0717 143.9566 C 33.2341 143.9566 1.75 112.9619 1.75 74.728 C 1.75 36.4941 33.2341 5.4994 72.0717 5.4994 C 110.9093 5.4994 142.3934 36.4941 142.3934 74.728 Z " fill="#ffc885" stroke="#000000" stroke-linecap="butt" stroke-width="3.5"/><path d="M 143.1897 33.8081 C 143.1897 44.0582 142.1248 46.2382 126.0372 45.0176 C 121.7779 44.6945 114.7487 47.2064 107.4205 46.4052 C 105.9993 46.2498 104.5669 41.2992 103.1413 41.4288 C 100.0075 41.7139 96.9066 47.301 94.0297 46.3469 C 91.8765 45.6328 89.8488 41.298 88.0269 41.1478 C 83.8618 40.8044 79.0465 51.5736 74.7185 51.612 C 74.2532 51.6161 55.6958 42.77 55.2353 42.8502 C 31.7415 46.9379 11.1312 90.9148 5.1183 90.7422 C 1.4581 90.6371 8.3811 50.3717 8.3811 43.6722 C 8.3811 37.9663 11.4175 36.3734 15.79 31.9119 C 16.9937 30.6836 15.5909 26.1434 17.528 24.982 C 18.2469 24.5508 22.1379 25.0088 23.4474 23.492 C 24.4797 22.2964 22.9572 19.0813 23.5444 18.6796 C 25.8884 17.0759 30.0835 17.1264 32.7766 15.5519 C 43.8598 9.072 56.185 1.75 72.7714 1.75 C 111.6624 1.75 143.1897 16.1029 143.1897 33.8081 Z " fill="#000000" stroke="#000000" stroke-linecap="butt" stroke-width="3.5"/><path d="M 74.7446 58.6245 L 83.4574 62.5782 L 81.8134 83.9503 " fill="none" stroke="#000000" stroke-linecap="round" stroke-width="3.5"/><path d="M 98.2535 82.8543 L 99.3495 62.5782 L 108.6134 58.119 " fill="none" stroke="#000000" stroke-linecap="round" stroke-width="3.5"/><path d="M 54.9613 104.2264 L 44.5492 103.6784 L 53.3173 96.0064 L 44.5492 96.0064 " fill="none" stroke="#000000" stroke-linecap="round" stroke-width="3.5"/><path d="M 119.6256 102.0344 L 107.5695 102.0344 L 117.4336 92.7184 L 108.6655 92.7184 " fill="none" stroke="#000000" stroke-linecap="round" stroke-width="3.5"/><path d="M 73.0454 123.4065 C 73.0454 122.1959 74.0267 121.2145 75.2374 121.2145 C 76.448 121.2145 77.4294 122.1959 77.4294 123.4065 C 77.4294 124.6171 76.448 125.5985 75.2374 125.5985 C 74.0268 125.5985 73.0454 124.6171 73.0454 123.4065 Z " fill="#000000" stroke="none" stroke-linecap="butt" stroke-width="3.5"/><g stroke-linecap="butt"><path d="M 50.5058 172.2851 C 48.6448 185.5695 43.8561 195.879 39.8098 195.3122 C 35.7635 194.7454 33.9919 183.5168 35.8528 170.2325 C 36.9243 162.5831 41.5832 156.2866 43.8956 152.1185 C 45.599 149.0481 44.8324 146.965 46.5487 147.2054 C 48.357 147.4588 46.6398 148.9107 47.4183 152.6545 C 48.3818 157.2881 51.535 164.9376 50.5057 172.2851 Z " fill="#000000" stroke-width="3.5" stroke="#000000"/><path d="M 48.9333 188.3448 C 48.9333 192.4306 45.3757 195.7428 40.9872 195.7428 C 37.8914 195.7428 32.4691 196.2865 31.1575 193.8811 C 30.6099 192.8767 33.0412 189.5483 33.0412 188.3448 C 33.0412 184.2589 36.5988 180.9467 40.9872 180.9467 C 45.3757 180.9467 48.9332 184.2589 48.9332 188.3448 Z " fill="#ffc885" stroke-width="3.5" stroke="#000000"/></g><path d="M 102.6375 223.4169 C 102.6375 227.5028 91.1061 230.815 76.8814 230.815 C 62.6567 230.815 52.4558 232.0266 52.4558 227.9408 C 52.4558 226.0582 49.6101 217.8956 53.6419 216.5898 C 58.3603 215.0617 69.211 216.0189 76.8814 216.0189 C 85.2696 216.0189 96.1808 214.4545 100.8836 216.2374 C 104.1558 217.478 102.6375 221.7405 102.6375 223.4169 Z " fill="#0035ff" stroke="#000000" stroke-linecap="butt" stroke-width="3.5"/><path d="M 61.5373 212.7309 C 61.5373 212.7309 64.7497 208.3655 64.4089 205.9795 C 64.0243 203.2878 59.3453 197.3868 59.3453 197.3868 L 92.2254 196.8388 C 92.2254 196.8388 88.3894 200.9962 88.3894 203.4149 C 88.3894 205.9248 92.2254 211.6349 92.2254 211.6349 Z " fill="#737373" stroke="#000000" stroke-linecap="round" stroke-width="3.5"/><g stroke-linecap="butt"><path d="M 61.5373 246.3081 C 61.5373 257.2859 59.2065 266.1852 56.3313 266.1852 C 53.4561 266.1852 51.1253 257.2859 51.1253 246.3081 C 51.1253 235.3302 50.2628 224.5682 53.138 224.5682 C 54.1868 224.5682 61.2836 224.1556 62.1008 226.1927 C 63.524 229.7403 61.5373 239.3345 61.5373 246.3081 Z " fill="#0035ff" stroke-width="3.5" stroke="#000000"/><path d="M 77.916 262.3514 C 77.916 266.1346 71.4143 269.2014 63.3939 269.2014 C 55.3736 269.2014 48.8719 266.1346 48.8719 262.3514 C 48.8719 258.5682 55.3736 255.5014 63.3939 255.5014 C 71.4143 255.5014 77.916 258.5682 77.916 262.3514 Z " fill="#000000" stroke-width="3.5" stroke="#000000"/></g><g stroke-linecap="butt"><path d="M 98.3631 246.9219 C 98.3631 257.8997 96.0323 266.799 93.1571 266.799 C 90.2818 266.799 87.951 257.8997 87.951 246.9219 C 87.951 239.2049 86.1756 229.854 87.8586 226.5606 C 88.5698 225.1689 92.5691 225.9803 93.4232 225.9803 C 94.1456 225.9803 98.2931 225.7438 98.9184 226.7593 C 100.7819 229.7854 98.3631 238.7024 98.3631 246.9219 Z " fill="#0035ff" stroke-width="3.5" stroke="#000000"/><path d="M 114.7418 262.9652 C 114.7418 266.7483 108.24 269.8152 100.2197 269.8152 C 92.1994 269.8152 85.6976 266.7483 85.6976 262.9652 C 85.6976 259.182 92.1994 256.1151 100.2197 256.1151 C 108.24 256.1151 114.7418 259.182 114.7418 262.9652 Z " fill="#000000" stroke-width="3.5" stroke="#000000"/></g><path d="M 53.8347 229.0648 C 53.8347 229.0648 52.9109 227.7092 52.9109 226.7943 C 52.9109 225.1072 52.9109 219.597 52.9109 219.597 L 102.3633 219.2891 C 102.3633 219.2891 98.6682 224.4914 98.6682 226.1785 C 98.6682 227.0933 96.6667 228.7569 96.6667 228.7569 Z " fill="#0035ff" stroke="none" stroke-linecap="butt" stroke-width="3.5"/></g></g></svg>