<svg version="1.1" xmlns="http://www.w3.org/2000/svg" xmlns:xlink="http://www.w3.org/1999/xlink" width="204.20646" height="348.23936" viewBox="0,0,204.20646,348.23936"><defs><linearGradient x1="258.18586" y1="154.41809" x2="258.18586" y2="170.35792" gradientUnits="userSpaceOnUse" id="color-1"><stop offset="0" stop-color="#1f007b"/><stop offset="1" stop-color="#000304"/></linearGradient><linearGradient x1="282.68131" y1="154.26088" x2="282.68131" y2="170.20071" gradientUnits="userSpaceOnUse" id="color-2"><stop offset="0" stop-color="#1f007b"/><stop offset="1" stop-color="#000304"/></linearGradient></defs><g transform="translate(-128.12457,-62.08979)"><g data-paper-data="{&quot;isPaintingLayer&quot;:true}" fill-rule="nonzero" stroke-width="2.5" stroke-linejoin="miter" stroke-miterlimit="10" stroke-dasharray="" stroke-dashoffset="0" style="mix-blend-mode: normal"><g data-paper-data="{&quot;index&quot;:null,&quot;origRot&quot;:0}" stroke-linecap="round"><path d="M277.80259,245.54535c0,0 13.13589,26.1048 8.57078,29.81324c-4.48104,3.64016 -20.43759,-14.05717 -20.43759,-14.05717" data-paper-data="{&quot;origPos&quot;:null}" fill="#2e00b8" stroke="#2e00b8"/><path d="M237.01274,194.69925c0,0 17.93706,11.57688 28.0391,20.64906c12.71907,11.42241 30.43715,31.86582 30.43715,31.86582l-38.84872,27.06062c0,0 -12.20769,-21.68451 -19.12699,-36.08336c-5.26503,-10.95639 -12.09382,-28.88629 -12.09382,-28.88629" data-paper-data="{&quot;origPos&quot;:null}" fill="#009fb8" stroke="#009fb8"/></g><path d="M244.11351,185.39741l1.14264,8.68406l10.96934,0.45706l-8.91259,11.4264l-22.62427,-14.16874l9.36965,1.5997l-0.45706,-7.54142z" fill="#3f00ff" stroke="#2e00b8" stroke-linecap="round"/><g data-paper-data="{&quot;origRot&quot;:0}"><path d="M276.24851,408.47713l-5.60361,-27.41126l39.58913,-19.95358l6.88459,13.17069l9.71246,-2.37179l3.88969,9.111z" data-paper-data="{&quot;origPos&quot;:null}" fill="#bb5500" stroke="#bb5500" stroke-linecap="butt"/><path d="M270.59557,389.67013c0,0 -2.96745,-3.78801 -3.72366,-6.78868c-1.86606,-7.40464 -2.99558,-19.87365 -2.99558,-19.87365l31.99155,-18.36395c0,0 13.46635,9.32505 18.09845,15.51356c1.54404,2.06284 2.6181,6.33356 2.6181,6.33356c0,0 -5.92239,1.98841 -9.71762,1.82991c-2.99562,-0.1251 -7.6831,-2.55663 -7.6831,-2.55663c0,0 1.38396,4.99905 0.64652,7.82225c-0.94129,3.60367 -4.94807,8.64582 -4.94807,8.64582c0,0 -7.62792,-0.1572 -11.84565,-1.30948c-1.75526,-0.47954 -3.45939,-2.87189 -3.45939,-2.87189c0,0 -0.64684,3.0172 -1.92048,4.66486c-2.23153,2.88686 -7.0611,6.95431 -7.0611,6.95431z" data-paper-data="{&quot;origPos&quot;:null}" fill="#2e00b8" stroke="#2e00b8" stroke-linecap="butt"/><path d="M245.51851,243.3308l62.33514,111.49078l-42.24305,21.2912l-40.18573,-115.52724" data-paper-data="{&quot;origPos&quot;:null}" fill="#306e7b" stroke="#306e7b" stroke-linecap="round"/><path d="M317.43293,374.65474l-23.22007,10.95676" fill="none" stroke="#bb5500" stroke-linecap="round"/></g><g data-paper-data="{&quot;origRot&quot;:0}"><path d="M130.08298,342.46426l26.37147,-9.34469l25.24247,36.44532l-12.0907,8.64175l3.6936,9.29055l-8.48473,5.11363z" data-paper-data="{&quot;origPos&quot;:null}" fill="#ff9b00" stroke="#bb5500" stroke-linecap="butt"/><path d="M147.92622,334.26197c0,0 3.34069,-3.46332 6.20777,-4.62768c7.07499,-2.87325 19.26751,-5.7182 19.26751,-5.7182l22.61628,29.141c0,0 -7.37085,14.6277 -12.85845,20.07198c-1.8292,1.81476 -5.9101,3.46976 -5.9101,3.46976c0,0 -2.7892,-5.59007 -3.15766,-9.37068c-0.29083,-2.9841 1.4683,-7.96307 1.4683,-7.96307c0,0 -4.75931,2.06274 -7.65741,1.72328c-3.6993,-0.4333 -9.24761,-3.70341 -9.24761,-3.70341c0,0 -0.9004,-7.57622 -0.34316,-11.91287c0.23191,-1.80474 2.36526,-3.82368 2.36526,-3.82368c0,0 -3.07768,-0.22289 -4.88583,-1.25614c-3.16801,-1.81036 -7.86494,-6.03028 -7.86494,-6.03028z" data-paper-data="{&quot;origPos&quot;:null}" fill="#3f00ff" stroke="#2e00b8" stroke-linecap="butt"/><path d="M257.73254,246.82071c0,0 5.39358,50.34748 -4.40659,65.98574c-12.38737,19.76672 -65.72847,53.53006 -65.72847,53.53006l-26.93465,-38.88851c0,0 47.46862,-17.57541 59.13166,-31.23965c11.47454,-13.44339 10.29027,-50.09405 10.29027,-50.09405" data-paper-data="{&quot;origPos&quot;:null}" fill="#5c8f99" stroke="#306e7b" stroke-linecap="round"/><path d="M169.28157,378.56941l-14.06601,-21.47951" fill="none" stroke="#bb5500" stroke-linecap="round"/></g><path d="M263.08133,208.0217c0,0 0.16656,14.94155 1.15079,26.26014c0.79949,9.19419 2.50566,26.3013 2.50566,26.3013h-45.24855c0,0 4.87808,-19.58611 5.80626,-32.85356c0.58799,-8.40475 -1.92128,-22.67875 -1.92128,-22.67875c0,0 -22.26455,-11.13667 -13.25462,-19.65341c8.85616,-8.37138 33.82215,15.76843 33.82215,15.76843c0,0 15.23659,-18.40183 22.88698,-11.25038c7.65039,7.15145 -5.74738,18.10622 -5.74738,18.10622z" fill="#00ffce" stroke="#009fb8" stroke-linecap="round"/><path d="M274.03574,153.92863c9.4952,-10.29309 30.85128,-4.79909 30.85128,-4.79909c0,0 -5.21283,9.5191 -10.08514,14.9536c-2.0842,2.32469 -7.74005,4.92834 -7.74005,4.92834c0,0 5.28823,2.31019 6.91773,4.88586c2.51765,3.97951 3.70882,11.91095 3.70882,11.91095c0,0 -24.66505,3.42508 -36.67875,-6.85584" data-paper-data="{&quot;index&quot;:null}" fill="#2e00b8" stroke="#2e00b8" stroke-linecap="round"/><path d="M200.67938,147.36512c0,-22.9833 20.16638,-41.61495 45.04287,-41.61495c24.87649,0 35.10359,19.06747 39.5582,41.61495c5.82746,29.49635 -14.68171,41.61495 -39.5582,41.61495c-24.87649,0 -45.04287,-18.63165 -45.04287,-41.61495z" fill="#3f00ff" stroke="#2e00b8" stroke-linecap="butt"/><path d="M221.49039,179.32362c-12.0137,10.28092 -36.67875,6.85584 -36.67875,6.85584c0,0 1.19117,-7.93144 3.70882,-11.91095c1.6295,-2.57567 6.91773,-4.88586 6.91773,-4.88586c0,0 -5.65585,-2.60365 -7.74005,-4.92834c-4.87231,-5.4345 -10.08514,-14.9536 -10.08514,-14.9536c0,0 21.35608,-5.494 30.85128,4.79909" fill="#3f00ff" stroke="#2e00b8" stroke-linecap="round"/><path d="M203.25032,137.16018c0,0 -9.08535,2.87421 -12.04818,1.8616c-7.60571,-2.59942 -16.40356,-12.14536 -16.40356,-12.14536c0,0 7.02872,-2.343 11.52746,-1.4292c4.06312,0.82532 10.41123,5.8855 10.41123,5.8855c0,0 -4.91128,-4.81835 -6.29952,-8.56055c-1.68868,-4.55209 -1.5847,-12.69255 -1.5847,-12.69255c0,0 8.13753,3.21263 11.81013,7.02411c3.00079,3.11426 5.2896,10.72224 5.2896,10.72224c0,0 13.67687,-18.62535 11.25034,-33.92983c-2.41431,-15.22742 -27.28741,-28.11553 -27.28741,-28.11553c0,0 61.02439,-9.37333 83.2843,8.61697c22.25991,17.9903 7.09112,45.36852 7.09112,45.36852c0,0 5.28534,0.51104 8.44882,-0.25889c3.02446,-0.73609 7.40701,-3.60011 7.40701,-3.60011c0,0 -0.84213,6.7429 -2.47815,9.74228c-1.4808,2.7148 -5.74886,7.74011 -5.74886,7.74011" fill="#3f00ff" stroke="#2e00b8" stroke-linecap="round"/><path d="M221.8485,140.90254c10.50285,14.83939 -1.71396,56.56068 -1.71396,56.56068c0,0 -19.3199,-44.38121 -11.31214,-56.90348" fill="#3f00ff" stroke="#2e00b8" stroke-linecap="round"/><path d="M289.26274,131.33274c8.02468,5.53339 6.84279,21.91031 6.84279,21.91031c0,0 -5.9976,-1.57711 -8.30054,-3.24476c-5.45624,-3.95108 -11.5814,-11.15251 -11.5814,-11.15251c0,0 -0.07518,5.63504 -1.43973,8.36413c-1.84615,3.6923 -6.78728,8.08989 -6.78728,8.08989c0,0 -8.11242,-2.90334 -12.42716,-5.85864c-5.45112,-3.73364 -12.59665,-11.28096 -12.59665,-11.28096c0,0 -0.64898,5.0074 -2.38079,7.55418c-2.81668,4.14217 -9.27414,9.58542 -9.27414,9.58542c0,0 -12.1953,-4.32611 -16.79681,-18.51077" fill="#3f00ff" stroke="#2e00b8" stroke-linecap="round"/><g fill="#ffffff" stroke-linecap="round"><path d="M262.45516,162.8696c0,0 4.05636,5.96458 -1.71396,9.42678c-5.77032,3.4622 -17.1396,1.88536 -17.1396,1.88536z" data-paper-data="{&quot;origPos&quot;:null}" stroke="none"/><path d="M242.74462,174.52453c0,0 -18.57242,-9.72381 -5.36794,-21.71819c6.68698,-6.07416 16.78984,-6.70199 22.5449,0.26152c3.04962,3.68999 3.39056,11.51571 3.39056,11.51571" data-paper-data="{&quot;origPos&quot;:null}" stroke="#2e00b8"/></g><path d="M261.87088,162.388c0,4.40166 -1.64984,7.96991 -3.68501,7.96991c-2.03518,0 -3.68501,-3.56825 -3.68501,-7.96991c0,-4.40166 1.64984,-7.96991 3.68501,-7.96991c2.03518,0 3.68501,3.56825 3.68501,7.96991z" fill="url(#color-1)" stroke="none" stroke-linecap="butt"/><g data-paper-data="{&quot;index&quot;:null}" fill="#ffffff" stroke-linecap="round"><path d="M282.60487,174.18174c0,0 -4.10372,1.57684 -6.18651,-1.88536c-2.08279,-3.4622 -0.61866,-9.42678 -0.61866,-9.42678z" data-paper-data="{&quot;origPos&quot;:null}" stroke="none"/><path d="M275.49037,164.58356c0,0 0.12306,-7.82572 1.22382,-11.51571c2.07728,-6.96351 5.7239,-6.33568 8.13755,-0.26152c4.76614,11.99438 -1.93755,21.71819 -1.93755,21.71819" data-paper-data="{&quot;origPos&quot;:null}" stroke="#2e00b8"/></g><path d="M256.92855,178.92771c0,-2.34113 1.19977,-6.17026 1.19977,-6.17026c0,0 7.27784,-1.71396 11.82632,-1.71396c4.14715,0 10.45516,1.71396 10.45516,1.71396c0,0 1.19977,4.27642 1.19977,6.68444c0,3.41136 -1.19977,8.22701 -1.19977,8.22701c0,0 -4.91181,1.19977 -8.05561,1.19977c-5.55183,0 -14.22587,-1.19977 -14.22587,-1.19977c0,0 -1.19977,-5.26293 -1.19977,-8.74119z" fill="#ff9b00" stroke="#bb5500" stroke-linecap="butt"/><path d="M267.53954,185.04122l-8.1984,-2.2" fill="none" stroke="#bb5500" stroke-linecap="round"/><path d="M286.36632,162.23079c0,4.40166 -1.64984,7.96991 -3.68501,7.96991c-2.03518,0 -3.68501,-3.56825 -3.68501,-7.96991c0,-4.40166 1.64984,-7.96991 3.68501,-7.96991c2.03518,0 3.68501,3.56825 3.68501,7.96991z" fill="url(#color-2)" stroke="none" stroke-linecap="butt"/><path d="M243.09971,209.12254l1.14264,20.33899" fill="none" stroke="#009fb8" stroke-linecap="round"/><path d="M257.58286,230.4186l-1.14264,-20.339" fill="none" stroke="#009fb8" stroke-linecap="round"/><g data-paper-data="{&quot;origRot&quot;:0}" stroke-linecap="round"><path d="M218.80033,259.24286c0,0 -8.53642,22.24717 -14.0258,20.45913c-5.59235,-1.82156 -2.7078,-30.90235 -2.7078,-30.90235" data-paper-data="{&quot;origPos&quot;:null}" fill="#3f00ff" stroke="#2e00b8"/><path d="M237.9403,196.16475c0,0 0.06593,19.18618 -0.91309,31.30246c-1.28664,15.92319 -4.89238,40.54522 -4.89238,40.54522l-45.97529,-11.30363c0,0 9.19424,-25.44266 16.96267,-40.67086c6.17003,-12.0949 18.75286,-29.34119 18.75286,-29.34119" data-paper-data="{&quot;origPos&quot;:null}" fill="#00ffce" stroke="#009fb8"/></g></g></g></svg>