<svg version="1.1" xmlns="http://www.w3.org/2000/svg" xmlns:xlink="http://www.w3.org/1999/xlink" width="251.17733" height="210.85837" viewBox="0,0,251.17733,210.85837"><defs><radialGradient cx="343.14186" cy="237.54481" r="207.99592" gradientUnits="userSpaceOnUse" id="color-1"><stop offset="0" stop-color="#0352ff"/><stop offset="1" stop-color="#0b03ae"/></radialGradient></defs><g transform="translate(-124.74176,-190.62353)"><g data-paper-data="{&quot;isPaintingLayer&quot;:true}" fill-rule="nonzero" stroke-linejoin="miter" stroke-miterlimit="10" stroke-dasharray="" stroke-dashoffset="0" style="mix-blend-mode: normal"><path d="M132.20384,366.53045c1.30167,0.078 1.10661,0.722 1.21576,1c0.26206,0.667 0.70946,1.051 0.94559,1.75c0.2264,0.67 0.3804,1.462 0.40525,2.25c0.02161,0.685 -0.00811,1.515 -0.27017,2c-0.26206,0.485 -0.71,0.5 -1.08067,0.5c-0.37067,0 -0.72081,-0.334 -1.08067,-0.5c-0.35986,-0.166 -0.74458,-0.21 -1.08067,-0.5c-0.35068,-0.303 -0.67974,-0.729 -0.94559,-1.25c-0.50684,-0.993 -1.13903,-1.942 -1.35084,-3.25c-0.10428,-0.643 0.23883,-1.378 0.54034,-1.75c0.30151,-0.372 0.71811,-0.226 1.08067,-0.25c0.89912,-0.059 1.81769,-0.312 2.70168,0z" data-paper-data="{&quot;index&quot;:null}" id="ID0.055066725704818964" fill="#e5e5e5" stroke="#e5e5e5" stroke-width="2" stroke-linecap="round"/><path d="M144.61712,390.99869c0.272,0.249 0.44,0.593 0.44,0.972c0,0.379 -0.168,0.723 -0.44,0.972c-0.271,0.249 -0.646,0.403 -1.06,0.403c-0.414,0 -0.789,-0.154 -1.06,-0.403c-0.272,-0.249 -0.44,-0.593 -0.44,-0.972c0,-0.379 0.168,-0.723 0.44,-0.972c0.271,-0.249 0.646,-0.403 1.06,-0.403c0.414,0 0.789,0.154 1.06,0.403z" data-paper-data="{&quot;index&quot;:null}" id="ID0.07317440817132592" fill="#e5e5e5" stroke="none" stroke-width="1" stroke-linecap="butt"/><path d="M207.22313,392.44443c1.11803,2.23607 -1.11803,3.3541 -1.11803,3.3541l-0.93456,0.45905c-8.73797,5.24278 -20.26202,5.53298 -30.21519,4.76735c-1.33975,-0.10306 -2.69955,-0.16179 -4,-0.5c-0.44469,-0.11565 -0.86312,-0.43504 -1.10277,-0.82708c-0.08946,-0.14634 0.56322,-0.28388 0.39723,-0.32708c-1.17665,-0.30619 -2.94798,-0.01609 -4.10113,0.25751c-8.3124,1.8468 -19.67167,2.78388 -27.96281,0.54583c-3.36462,-0.90822 -6.39021,-4.58747 -8.73856,-6.93581c-0.58926,-0.58926 -1.17851,-1.17851 -1.76777,-1.76777c-0.36759,-0.36759 -1.19379,-0.59095 -1.10277,-1.10277l-1.10277,-1.10277c-0.45241,-0.45241 -0.73223,-1.07741 -0.73223,-1.76777c0,-1.38071 1.11929,-2.5 2.5,-2.5c0.57191,0 1.09897,0.19204 1.5202,0.51515l2.18534,1.639l-0.0088,0.01173c4.03798,2.58389 8.50162,0.06981 12.65327,-1.84716c-2.64336,-1.8206 -4.13723,-4.35776 -0.91123,-8.03812c0.53693,-0.61255 1.62913,0 2.4437,0c2.48123,0 4.96247,0 7.4437,0c4.35265,0 7.9415,0.71356 11.46887,2.00762c0.55976,-1.09289 1.88623,-1.87236 4.14783,-2.24929c3.64179,-0.60697 7.5509,-1.53762 11.21324,-0.41264c1.61575,0.49632 3.97796,2.70666 5.43321,3.58404c5.98753,3.60993 11.14789,8.45112 17.03263,12.1853c0.24601,-0.13578 0.4908,-0.27663 0.73433,-0.42275l1.27098,-0.64372c0,0 2.23607,-1.11803 3.3541,1.11803z" fill="#e5e5e5" stroke="none" stroke-width="0.5" stroke-linecap="butt"/><path d="M374.73516,258.85708c-3.76921,25.10717 -16.47712,53.76291 -37.22508,79.99287c-20.74782,26.22996 -45.64205,45.11168 -69.10099,54.42697c-23.45893,9.31515 -45.48149,9.0649 -60.48456,-2.96826c-15.00306,-12.03316 -20.1713,-33.5909 -16.40207,-58.69819c3.76921,-25.10717 16.47712,-53.76291 37.22508,-79.99287c20.74796,-26.22998 45.64219,-45.11168 69.10113,-54.42697c23.45893,-9.31515 45.48135,-9.06492 60.48443,2.96826c15.0032,12.03317 20.1713,33.5909 16.40207,58.69819z" data-paper-data="{&quot;index&quot;:null,&quot;origRot&quot;:0}" id="ID0.3734543891623616" fill="url(#color-1)" stroke="none" stroke-width="1.18122" stroke-linecap="butt"/></g></g></svg>