<svg version="1.1" xmlns="http://www.w3.org/2000/svg" xmlns:xlink="http://www.w3.org/1999/xlink" width="67.67076" height="12.45459" viewBox="0,0,67.67076,12.45459"><defs><linearGradient x1="268.16605" y1="168.94568" x2="268.16605" y2="183.99505" gradientUnits="userSpaceOnUse" id="color-1"><stop offset="0" stop-color="#ff6666" stop-opacity="0"/><stop offset="1" stop-color="#ff6666"/></linearGradient><linearGradient x1="267.59353" y1="168.95881" x2="267.59353" y2="184.00816" gradientUnits="userSpaceOnUse" id="color-2"><stop offset="0" stop-color="#ff5714" stop-opacity="0"/><stop offset="1" stop-color="#ff5714"/></linearGradient></defs><g transform="translate(-206.16462,-171.55358)"><g data-paper-data="{&quot;isPaintingLayer&quot;:true}" fill-rule="nonzero" stroke="none" stroke-linejoin="miter" stroke-miterlimit="10" stroke-dasharray="" stroke-dashoffset="0" style="mix-blend-mode: normal"><g id="ID0.5903434637002647" stroke-width="1.4282"><path d="M221.67717,181.47393c-1.19936,0.93298 -2.43485,1.85821 -3.74283,2.2369c-1.10124,0.31354 -2.4619,0.28332 -3.37098,0.0859c-0.91052,-0.19518 -1.53457,-0.60303 -1.65594,-1.17178c-0.12124,-0.56875 0.28214,-1.19568 1.03373,-1.74539c0.74949,-0.55102 1.99364,-1.14826 3.11288,-1.29682c1.4773,-0.19611 3.1511,-0.07356 4.74924,0.23394c0.30999,0.10455 0.31722,0.55194 0.27755,0.85194c-0.06698,0.42282 -0.14672,0.67002 -0.40364,0.80531z" id="ID0.8031387571245432" fill="#20270c" stroke-linecap="butt"/><path d="M219.3763,180.51849c-1.44735,0.46262 -2.92597,0.90579 -4.28426,0.81082c-1.14196,-0.08499 -2.40897,-0.58188 -3.19445,-1.08036c-0.78758,-0.4969 -1.23299,-1.09467 -1.15089,-1.67038c0.08197,-0.57584 0.67658,-1.02546 1.57161,-1.28264c0.89345,-0.25929 2.26711,-0.39142 3.36901,-0.14527c1.45445,0.32457 2.98363,1.01613 4.37805,1.85532c0.25508,0.2049 0.1077,0.62733 -0.03271,0.89542c-0.20871,0.37382 -0.36857,0.57846 -0.65636,0.61708z" id="ID0.8031387571245432" fill="#20270c" stroke-linecap="butt"/><path d="M214.9733,181.5333c-1.37471,0.64717 -2.78306,1.27883 -4.14227,1.36145c-1.14327,0.06436 -2.46413,-0.26336 -3.3078,-0.65531c-0.84551,-0.39011 -1.365,-0.92497 -1.35856,-1.50646c0.0063,-0.58149 0.53735,-1.10465 1.39126,-1.47612c0.8522,-0.37343 2.19697,-0.68315 3.32146,-0.58267c1.48439,0.13267 3.09054,0.61932 4.58243,1.26977c0.27951,0.16997 0.18836,0.60802 0.08394,0.892c-0.15814,0.39786 -0.29002,0.62155 -0.57045,0.69734z" id="ID0.8031387571245432" fill="#20270c" stroke-linecap="butt"/><path d="M217.79852,179.20682l45.49235,-0.10692l-0.10166,2.06326l-45.39962,0.38853z" id="ID0.5694770254194736" fill="#20270c" stroke-linecap="butt"/><path d="M261.51304,177.96753l5.33704,2.45928l-5.8225,1.85362z" id="ID0.1888666800223291" fill="#20260c" stroke-linecap="round"/></g><path d="M254.50373,172.31888c0,0 20.82428,1.16687 19.24628,4.82287c-0.58595,1.35759 -6.44405,9.28667 -9.55169,6.10742c-4.99747,-5.11261 2.57407,-8.44015 2.57407,-8.44015z" fill="url(#color-1)" stroke-width="0.5" stroke-linecap="butt"/><path d="M250.29853,171.55358c0,0 24.45696,1.9453 22.87896,5.6013c-0.58596,1.35759 -6.44405,9.28666 -9.55169,6.10742c-4.99747,-5.11261 0.75619,-2.85707 1.79563,-5.84538c1.36844,-3.93414 -15.1229,-5.86333 -15.1229,-5.86333z" fill="url(#color-2)" stroke-width="0.5" stroke-linecap="butt"/></g></g></svg>