<svg version="1.1" xmlns="http://www.w3.org/2000/svg" xmlns:xlink="http://www.w3.org/1999/xlink" width="230.95221" height="215.82341" viewBox="0,0,230.95221,215.82341"><g transform="translate(-152.03758,-193.64752)"><g data-paper-data="{&quot;isPaintingLayer&quot;:true}" fill-rule="nonzero" stroke-linejoin="miter" stroke-miterlimit="10" stroke-dasharray="" stroke-dashoffset="0" style="mix-blend-mode: normal"><path d="M290.01777,310.22435c0.45583,-0.12016 0.66667,0.66667 1,1c1,1 2,2 3,3c3.33333,3.33333 6.66667,6.66667 10,10l0.3416,0.3416c0.70893,0.47587 1.41446,0.95095 2.1165,1.42616h0.77413v0.52508c7.92503,5.38695 15.3963,10.8357 22.26776,17.70715c2.51239,2.51239 4.43725,6.08262 7.35027,8.0317c3.80793,2.54785 8.38733,4.28143 12.37231,6.56546c5.63868,3.23187 10.96397,6.99225 16.59868,10.25445c4.89708,3.01347 10.72279,8.95274 5.83945,14.73735c-1.43895,1.70453 -5.51167,1.17881 -7.42848,1.17881c-6.22992,0 -12.42134,-0.01955 -18.64252,-0.36517c-3.17808,-0.22461 -6.12808,-1.07875 -9.27063,-1.51639c-4.36198,-0.60746 -8.81062,-0.81509 -13.12918,-1.67797c-5.63785,-1.12648 -11.01179,-3.45387 -16.6671,-1.56876c-4.16815,1.12895 -7.41122,3.85558 -12.03394,3.42012c-2.69982,-0.25433 -2.34217,-4.89269 -1.96226,-6.55904c0.58836,-2.58069 1.06412,-5.36129 1.96957,-7.85082c1.84379,-5.06947 5.23607,-9.49595 5.23607,-15.13197c0,-0.83333 -0.2347,-1.7004 0,-2.5c0.03362,-0.11454 0.3931,0.14978 0.35627,0.03624c-0.63045,-1.9435 -2.52962,-3.49949 -3.59234,-5.16821c-2.17452,-3.41452 -4.35554,-7.18351 -7.26393,-10.11803c-1.54563,-1.55952 -3.55398,-2.88346 -5.27233,-4.30356l-0.22767,0.30356c0,0 -2.5,0 -2.5,-2.5v-0.00001c0,-0.71776 0.20607,-1.22944 0.49988,-1.59422c-0.00559,-2.27131 -0.20433,-4.501 0.73235,-6.67354c0.50925,-1.18117 1.7699,-1.98946 3.08296,-2.46623c-1.51421,-3.78805 -1.62975,-6.93051 4.45258,-8.53377zM290.94941,318.22706c0.01465,0.03515 0.02914,0.0704 0.04348,0.10574c0.02415,0.00334 0.0483,0.00673 0.07245,0.01018c-0.03864,-0.03864 -0.07728,-0.07728 -0.11593,-0.11593zM289.35089,316.62854c-0.1,-0.1 -0.2,-0.2 -0.29999,-0.29999c-0.00839,0.04957 -0.0099,0.09907 -0.00304,0.14837c0.01875,0.13461 0.14388,0.15781 0.30303,0.15163zM286.47438,324.30765c-0.17833,0.13121 -0.35307,0.26576 -0.45662,0.45223c-0.102,0.18369 0.19671,-0.25106 0.45662,-0.45223z" fill="#ff9400" stroke="none" stroke-width="0.5" stroke-linecap="butt"/><g data-paper-data="{&quot;index&quot;:null,&quot;origPos&quot;:null,&quot;origRot&quot;:0}" id="ID0.11631795251742005" stroke-width="3.91858" stroke-linecap="round"><path d="M241.26508,317.15858c-0.70999,-0.26359 -1.60434,-0.09214 -2.18736,-0.5888c-1.01105,-0.86203 -1.79036,-2.03813 -2.32375,-3.25579c-0.58215,-1.32908 -0.86093,-2.79735 -0.95792,-4.23062c-0.0902,-1.33619 0.15583,-2.67163 0.40339,-3.97367c0.24969,-1.31226 0.50175,-2.65925 1.08415,-3.84523c0.59543,-1.21251 1.21421,-2.61495 2.39569,-3.24564c2.38407,-1.27288 5.13106,-1.91518 7.84122,-2.21796c2.62699,-0.29375 5.34114,0.00997 7.97762,0.44903c5.28872,0.8804 10.50761,2.32662 15.75142,3.5007c1.41021,0.31542 2.93338,0.30209 4.22944,0.9742c1.27921,0.66329 2.40476,1.71874 3.24949,2.90224c0.79759,1.11759 1.02936,2.54318 1.54324,3.81282c0.51395,1.26971 1.06566,2.52954 1.54338,3.81281c0.48515,1.30366 1.18412,2.58012 1.34811,3.95211c0.15932,1.33236 -0.12958,2.67872 -0.40339,3.97367c-0.28945,1.36882 -0.7352,2.70673 -1.27928,3.98452c-0.52303,1.22963 -0.75539,2.86982 -1.91006,3.51323c-1.14408,0.63845 -2.69294,0.12228 -3.98884,-0.22441c-3.9516,-1.05702 -7.75248,-2.73647 -11.66283,-3.96177c-1.27291,-0.39862 -2.58486,-0.66383 -3.88902,-0.90995c-2.66426,-0.50278 -5.37822,-0.72191 -8.02322,-1.33797c-1.36904,-0.31896 -2.61507,-1.13867 -3.9844,-1.45627c-1.35515,-0.31417 -2.78126,-0.1022 -4.13406,-0.42788c-0.92638,-0.22345 -1.72532,-0.86582 -4.42012,-2.06677z" data-paper-data="{&quot;origPos&quot;:null}" id="ID0.2928832359611988" fill="#cc0099" stroke="#cc0099"/><path d="M279.80601,301.93733c0.46016,-0.57659 0.13556,-1.5464 0.49439,-2.1957c0.68931,-1.24761 1.52001,-3.49532 2.59075,-3.38486c0.99629,0.10349 1.1498,2.50397 1.54331,3.81289c0.39489,1.31409 0.66598,2.6711 0.81277,4.02707c0.1529,1.40934 -0.11273,2.83613 0.0821,4.2414c0.37566,2.70503 1.60187,5.33742 1.62548,8.05422c0.02314,2.67166 -0.31597,5.47281 -1.48761,7.81896c-1.21396,2.43038 -3.00741,5.22902 -5.4221,6.01993c-1.16561,0.38223 -0.49193,-3.18967 -1.73844,-3.67359c-1.24657,-0.48385 -3.39429,1.84648 -3.5575,1.61774c-0.16328,-0.22866 1.85488,-1.90869 2.54084,-3.04209c1.39504,-2.30537 3.07591,-4.57026 3.6749,-7.23009c0.5895,-2.61873 -0.03079,-5.43043 -0.21419,-8.1401c-0.09422,-1.39468 -0.24955,-2.8073 -0.61757,-4.1663c-0.3565,-1.31813 -1.42613,-2.4603 -1.54331,-3.81289c-0.0361,-0.41035 0.96627,0.36694 -1.6886,-4.01629z" data-paper-data="{&quot;origPos&quot;:null}" id="ID0.9867358235642314" fill="#990072" stroke="#990072"/></g><g data-paper-data="{&quot;index&quot;:null,&quot;origPos&quot;:null,&quot;origRot&quot;:0}" id="ID0.8231862881220877" stroke-width="4.04731" stroke-linecap="round"><path d="M263.15293,253.98674c3.09776,1.11494 6.11138,2.60448 9.00463,4.34044c2.32864,1.39901 4.0851,3.58345 6.1787,5.30848c1.06049,0.8741 2.34733,1.49661 3.28976,2.49514c1.82873,1.93791 3.31946,4.17771 4.97674,6.26351c0.82858,1.0429 1.83474,1.97029 2.4883,3.13175c2.00399,3.55881 4.04897,7.14768 5.46162,10.98719c0.49536,1.34734 0.06872,2.89328 0.17399,4.33213c0.07907,1.05216 0.4824,1.84929 0.19761,2.71672c-0.69175,2.12701 -2.23138,3.91098 -3.09743,5.97342c-1.14646,2.73611 -1.74682,5.37795 -2.81008,7.98032c-0.73048,1.7937 -1.7779,3.19173 -2.91816,4.55371c-1.66917,2.78743 -3.39402,5.58202 -5.50148,7.88362c-3.71249,4.04426 -7.56694,7.99712 -11.57757,11.75339c-1.99021,1.86352 -4.27608,3.39754 -6.41088,5.09377c-1.06743,0.84808 -2.08172,1.77789 -3.20544,2.54689c-1.09264,0.74556 -2.18426,1.37403 -3.16064,2.19197c-1.3329,0.80358 -2.53325,1.78542 -3.76165,2.66953c-2.11345,1.58983 -4.2954,3.08202 -6.52159,4.54302c-2.43828,1.59897 -4.81431,3.35528 -7.4337,4.62923c-2.60988,1.26779 -5.40204,2.99712 -8.32193,3.09989c-5.31976,-0.13233 -14.07826,-2.96199 -15.63415,-3.22389c-1.25971,-0.2099 9.75271,2.50318 8.60656,1.78294c-1.68198,-0.97671 -10.92397,-2.8091 -15.476,-5.90404c-3.31119,-2.25069 -5.31061,-6.02896 -7.46504,-9.39541c-1.48077,-2.31281 -2.22669,-5.03837 -3.37402,-7.53695c-0.64194,-1.39694 -1.42866,-2.73103 -1.99807,-4.15999c-0.52777,-1.32405 -1.04171,-2.67831 -1.28628,-4.08686c-0.24623,-1.41885 -0.18264,-2.8871 -0.17392,-4.3322c0.00886,-1.54859 -0.08619,-3.12581 0.22677,-4.65041c0.32022,-1.55979 1.14467,-2.99016 1.65023,-4.50427c0.46128,-1.38067 0.62179,-2.86838 1.24953,-4.18594c0.69314,-1.45236 1.80615,-2.67904 2.67305,-4.03959c0.78028,-1.22418 1.58263,-2.44535 2.27229,-3.72133c0.72163,-1.33591 1.21042,-2.79208 1.96125,-4.11273c0.7969,-1.40085 1.80616,-2.67917 2.67298,-4.03966c0.78036,-1.22424 1.38103,-2.57261 2.27228,-3.72133c0.84059,-1.08423 1.93024,-1.96031 2.89434,-2.93836c0.96418,-0.97812 1.54906,-1.8247 2.89448,-2.93836c5.38279,-4.45444 10.77052,-8.95364 16.42789,-13.05278c3.47423,-2.51777 7.36806,-4.42374 10.95011,-6.78464c1.13868,-0.75019 2.09106,-1.76103 3.20551,-2.54682c1.26132,-0.8886 2.56408,-1.73335 3.91709,-2.47375c1.23209,-0.67372 2.48573,-1.36323 3.82749,-1.76393c1.31885,-0.3952 2.81571,-0.84758 4.24931,-0.82183c2.06468,0.03521 4.3075,0.08734 6.40553,0.65801z" id="ID0.1488087447360158" fill="#00cc44" stroke="#00cc44"/><path d="M268.98121,253.50688c-0.06562,-0.47404 0.37885,-0.07753 0.71166,0.07313c1.32961,0.60395 2.79284,1.06349 3.89078,2.01759c3.15991,2.74624 5.93323,5.92238 8.77785,8.99085c0.96183,1.03787 1.86987,2.14288 2.64389,3.32753c0.74118,1.13531 1.25896,2.40726 1.88729,3.60931c0.62826,1.20211 1.36966,2.35393 1.88735,3.60938c0.54314,1.31696 1.09919,2.66834 1.28628,4.08686c0.18622,1.41407 0.02841,2.87544 -0.18191,4.29557c-0.20231,1.3677 -0.64308,2.70008 -1.04922,4.02672c-0.41214,1.34535 -0.81487,2.70762 -1.40503,3.99009c-0.57319,1.2448 -1.46544,2.33304 -2.07197,3.56212c-0.60556,1.22701 -1.01395,2.54269 -1.56063,3.79445c-0.49689,1.13176 -0.74756,2.24929 -1.31538,3.28035c-0.70579,1.25554 -1.60477,2.47689 -2.78377,3.48897c-0.89078,0.84826 -1.95427,2.03687 -3.31608,1.9962c-1.4402,-0.04222 -2.55544,-1.31591 -3.69039,-2.17673c-1.07121,-0.81176 -1.85623,-1.95442 -2.88907,-2.81334c-2.17593,-1.80906 -4.57178,-3.36168 -6.73498,-5.18592c-2.12613,-1.79242 -4.31639,-3.56187 -6.13389,-5.66339c-0.88644,-1.0251 -2.38498,-2.32373 -1.88736,-3.60938c0.98993,-2.558 3.81884,-3.99599 5.63331,-6.07243c0.92361,-1.05697 1.90181,-2.10623 2.58331,-3.32978c1.34911,-2.42192 2.26285,-5.06259 3.47708,-7.55227c0.649,-1.33188 1.60426,-2.53019 2.11677,-3.91703c0.50029,-1.35299 0.62392,-2.81143 0.89363,-4.2225c0.25824,-1.34821 0.80196,-2.70244 0.69339,-4.06322c-0.15253,-1.90969 -1.20272,-3.64758 -1.24155,-4.44184z" id="ID0.24698219634592533" fill="#cc0099" stroke="#cc0099"/></g><path d="M258.36478,375.08811c-2.186,-0.9145 1.1768,0.8528 4.7569,1.478c2.6862,0.4694 5.5138,1.1051 8.1737,0.503c2.7234,-0.6165 5.3011,-2.1329 7.3586,-4.0204c3.0723,-2.819 4.9276,-6.7659 7.7473,-9.8383c0.9621,-1.0485 2.15,-2.0241 3.5139,-2.4294c1.3285,-0.3946 2.7923,-0.0864 4.1582,0.1489c1.3755,0.2371 2.739,0.6546 3.9983,1.2553c2.4897,1.1889 4.9376,2.5167 7.2036,4.0907c1.1128,0.7731 2.111,1.7672 2.8573,2.898c0.7623,1.1566 1.3451,2.4807 1.5909,3.8447c0.2457,1.3639 0.0864,2.7923 -0.1489,4.1582c-0.2371,1.3755 -0.6397,2.7456 -1.2554,3.9983c-0.624,1.2699 -1.4567,2.4582 -2.4246,3.4905c-1.009,1.0756 -2.2236,1.9583 -3.4513,2.7773c-1.2391,0.8269 -2.5032,1.6984 -3.9246,2.1442c-4.4462,1.3947 -9.0013,2.5201 -13.5872,3.3465c-3.1998,0.5765 -6.4792,0.6789 -9.7254,0.8543c-1.4987,0.0804 -3.0141,0.0797 -4.5061,-0.0862c-3.0347,-0.3376 -6.1361,-0.5353 -9.0577,-1.4214c-2.5804,-0.7831 -4.8461,-2.3837 -7.2835,-3.5374c-1.2253,-0.5796 -2.7374,-0.7253 -3.7131,-1.6661c-1.0189,-0.9818 -1.6276,-2.4018 -1.9388,-3.782c-0.3046,-1.3512 0.0639,-2.7755 0.1488,-4.1581c0.082,-1.3397 -0.4114,-2.9134 0.3542,-4.0156c0.6852,-0.9863 2.1598,-1.4475 3.3541,-1.3228z" data-paper-data="{&quot;index&quot;:null,&quot;origPos&quot;:null}" id="ID0.40621996903792024" fill="#003fff" stroke="#003fff" stroke-width="4" stroke-linecap="round"/><path d="M267.67568,292.65951c1.2344,9.0997 1.252,10.2275 1.3628,11.4011c0.0859,1.5282 0.2831,3.0823 0.3477,4.6711c0.0693,1.7017 -0.0858,3.4144 -0.0016,5.1165c0.0957,1.9202 0.3944,3.8316 0.54,5.7486c0.1147,1.5108 0.1064,3.0349 0.2393,4.5447c0.1466,1.6589 0.4173,3.3108 0.6004,4.9662c0.357,3.2352 0.6473,6.4882 1.0202,9.7215c0.1764,1.5282 0.4201,3.0513 0.6306,4.5749c0.2106,1.5237 0.4201,3.0513 0.6306,4.5749c0.2106,1.5237 0.4201,3.0513 0.6306,4.575c0.2106,1.5236 0.4583,3.0462 0.6307,4.5749c0.1779,1.5794 0.3078,3.1692 0.4198,4.7554c0.1068,1.5117 0.1065,3.0349 0.2394,4.5447c0.1466,1.6588 1.2951,3.4518 0.6004,4.9661c-0.6267,1.3669 -2.4681,1.8379 -3.9133,2.2561c-2.9075,0.842 -5.9502,1.2635 -8.9693,1.4719c-1.5013,0.1037 -2.9908,-0.3625 -4.4843,-0.5431c-1.4934,-0.1807 -3.1107,0.069 -4.4842,-0.5432c-4.218,-1.8804 -8.0739,-4.5153 -12.0667,-6.8357c-1.3394,-0.7789 -3.0519,-1.2016 -3.9419,-2.4692c-0.9027,-1.2859 -0.9106,-3.0387 -1.0219,-4.6051c-0.1106,-1.564 0.4369,-3.1291 0.3627,-4.695c-0.0768,-1.6149 -0.6043,-3.1827 -0.8111,-4.7856c-0.2034,-1.5767 -0.242,-3.1761 -0.4199,-4.7555c-0.1724,-1.5286 -0.5501,-3.0392 -0.6306,-4.5749c-0.0792,-1.5017 0.1947,-3.0108 0.1519,-4.5144c-0.0458,-1.5889 -0.4104,-3.1662 -0.4199,-4.7555c-0.0095,-1.5687 0.2841,-3.1283 0.3626,-4.6949c0.1641,-3.2651 0.289,-6.5435 0.3643,-9.8115c0.0365,-1.5731 -0.0832,-3.1527 -0.0287,-4.7252c0.2174,-6.2073 -0.5446,-12.5257 0.993,-18.461c0.7314,-3.2016 3.2215,-5.7848 5.5764,-7.992c2.2505,-2.109 5.0976,-3.5248 7.8568,-4.9033c1.3682,-0.6839 2.8994,-1.1143 4.4246,-1.2326c1.4998,-0.1156 3.0819,-0.002 4.4843,0.5431c1.4199,0.5521 2.6362,1.5899 3.7311,2.6497c1.065,1.03 1.9696,2.2515 2.6775,3.5523c1.0166,1.8709 1.7969,3.6417 2.3639,5.5746c0.4227,1.437 0.2705,2.7555 0.396,4.0452c0.2312,1.3993 0.5452,2.8168 0.6729,4.0271z" data-paper-data="{&quot;index&quot;:null,&quot;origPos&quot;:null}" id="ID0.5602204352617264" fill="#00cc44" stroke="#00cc44" stroke-width="4.43966" stroke-linecap="round"/><path d="M213.29998,291.12621c1.2063,-2.485 1.9735,-5.947 4.5329,-6.9623c2.4165,-0.9586 5.144,0.9778 7.3695,2.2402c2.3409,1.3275 4.2497,3.3532 6.0394,5.3628c0.8759,0.9832 1.2469,2.3319 1.8571,3.5023c1.3885,2.6648 3.0559,5.2092 4.1455,8.0153c0.9785,2.5194 1.4336,5.2338 2.0298,7.8784c0.3071,1.3643 0.4545,2.7672 0.6808,4.1488c0.2264,1.3816 0.4842,2.7621 0.6808,4.1488c0.2037,1.4409 0.3475,2.8955 0.5206,4.3408c0.3472,2.8913 0.6914,5.7906 1.0414,8.6817c0.1612,1.3298 0.4626,2.6504 0.4929,3.9921c0.0619,2.755 -0.2803,5.5271 -0.2183,8.2821c0.0302,1.3417 0.2404,2.6786 0.4929,3.9921c0.5438,2.8236 1.3198,5.6025 1.8974,8.4191c0.2816,1.3704 0.5411,2.7535 0.6808,4.1488c0.1447,1.4489 0.115,2.9191 0.1727,4.3761c0.0576,1.4571 0.2467,2.917 0.1726,4.3761c-0.2219,4.3726 1.0399,9.2364 -1.0618,13.1128c-1.3478,2.4868 -5.2366,2.1016 -7.8097,3.2525c-1.3211,0.5909 -2.5281,1.4529 -3.8771,1.9749c-1.3286,0.5144 -2.7104,0.9779 -4.1205,1.1209c-1.41,0.143 -2.8222,-0.1819 -4.2313,-0.2738c-1.4091,-0.0919 -2.8223,-0.1819 -4.2314,-0.2738c-1.4091,-0.0919 -2.8795,0.1128 -4.2314,-0.2738c-1.2793,-0.3652 -2.6579,-0.8939 -3.4862,-1.9311c-0.847,-1.0607 -0.8809,-2.5904 -1.1889,-3.9216c-0.3153,-1.362 -0.7177,-2.7433 -0.6808,-4.1488c0.0372,-1.4027 0.8289,-2.7308 0.8991,-4.1333c0.0672,-1.3425 -0.3867,-2.656 -0.4929,-3.9921c-0.1063,-1.3362 -0.0965,-2.6862 -0.145,-4.0275c-0.0484,-1.3412 -0.1545,-2.6837 -0.1449,-4.0274c0.0096,-1.3528 0.136,-2.7097 0.2031,-4.0627c0.0671,-1.353 0.1494,-2.709 0.2031,-4.0627c0.0627,-1.5846 -0.0746,-3.1861 0.1476,-4.7601c0.1917,-1.3558 0.8696,-2.6238 1.0869,-3.9766c0.2147,-1.3406 0.0556,-2.7142 0.203,-4.0627c0.1572,-1.4381 0.5541,-2.852 0.7112,-4.29c0.1474,-1.3485 0.0557,-2.7143 0.2031,-4.0628c0.1571,-1.438 0.554,-2.8519 0.7112,-4.29c0.1474,-1.3485 0.1984,-2.7097 0.203,-4.0627c0.0053,-1.4592 0.0006,-2.9308 -0.1726,-4.3761c-0.1746,-1.4543 -0.6636,-2.8557 -0.8687,-4.3055c-0.1955,-1.3819 -0.0813,-2.8128 -0.3328,-4.1841c-0.2667,-1.4569 -1.0086,-2.8024 -1.2166,-4.2702c-0.1966,-1.3868 0.0769,-2.8176 0.0152,-4.2194c-0.0996,-2.2409 -0.7752,-4.4451 -0.5269,-6.6249c0.1304,-2.0294 0.7787,-4.0058 1.6442,-5.7906z" data-paper-data="{&quot;index&quot;:null,&quot;origPos&quot;:null}" id="ID0.8741973452270031" fill="#00cc44" stroke="#00cc44" stroke-width="3.95728" stroke-linecap="round"/><path d="M226.17557,295.08001c-0.23124,0.42916 -0.3509,0.81789 -0.74328,1.32954c-0.87926,1.15778 -1.81498,2.27823 -2.75752,3.38503c-0.87926,1.0316 -1.77394,2.05613 -2.71189,3.03442c-0.98648,1.02834 -2.10719,1.93164 -3.06247,2.98894c-0.92051,1.01909 -1.63904,2.2134 -2.55948,3.23255c-0.95534,1.05738 -2.10714,1.93156 -3.06248,2.98894c-0.92045,1.01901 -1.67563,2.18233 -2.55942,3.23247c-0.87222,1.03756 -2.19832,1.78214 -2.71196,3.0345c-0.79768,1.97343 -0.9546,3.90399 -1.31751,5.74707c-0.22068,2.10335 -0.17953,4.2386 -0.43334,6.076c-0.13276,0.99314 -0.05621,2.0777 -0.49256,2.96644c-0.63921,1.4172 -1.3301,2.87041 -2.27863,4.08913c-1.47981,1.91036 -2.63935,4.10557 -4.68018,5.55948c-1.59183,1.14858 -3.39354,2.05733 -5.46202,2.24911c-1.48256,0.14314 -3.31735,0.25327 -4.35384,-1.06515c-0.71273,-0.92906 0.79248,-2.21794 1.31865,-3.28693c0.6782,-1.34501 2.41433,-2.18824 2.78479,-3.59542c0.34872,-1.33867 0.46436,-3.81299 -0.35235,-4.14583c-0.79169,-0.32191 -1.98215,1.82515 -2.86445,2.83632c-1.91127,2.19099 -3.89008,4.35807 -5.51496,6.77011c-0.75,1.11264 -1.23461,2.41587 -1.55316,3.72001c-0.32163,1.31654 -0.11608,2.71939 -0.34884,4.05472c-0.23487,1.34558 -0.90875,2.60781 -1.0501,3.96354c-0.11004,0.9618 0.69588,1.58072 0.65039,2.40193c-0.09419,1.18571 0.00846,2.23871 -0.73345,2.89953c-1.18598,1.05443 -2.58066,1.84927 -3.98988,1.62052c-1.87158,-0.30326 -3.00536,-2.35948 -4.58338,-3.41246c-1.09255,-0.70102 -1.95905,-1.6708 -3.04955,-2.32166c-1.14218,-0.67046 -2.24278,-1.38044 -3.32687,-2.10818c-1.09897,-0.73403 -2.05085,-1.77687 -2.95523,-2.77295c-1.11945,-1.24571 -2.25621,-2.87955 -3.27608,-4.41899c-0.81327,-1.25302 -1.29324,-2.65665 -1.83086,-4.01724c-0.83545,-1.45561 -2.04881,-2.81194 -2.27608,-4.4316c-0.20118,-1.37597 0.41404,-2.74062 0.75727,-4.17992c0.13104,-1.09533 0.24128,-2.21266 0.65702,-3.4086c0.46985,-1.37638 1.13138,-2.69081 1.59875,-4.07039c0.49661,-1.46644 0.53292,-3.11737 1.29375,-4.46676c0.74672,-1.32326 2.0475,-2.2516 3.10804,-3.33946c0.99482,-1.0208 2.07608,-1.96054 3.06256,-2.98888c0.93788,-0.97835 1.7199,-2.11171 2.71195,-3.03451c0.97501,-0.90718 2.11396,-1.62759 3.1694,-2.44023c2.1109,-1.62513 4.22807,-3.25521 6.33897,-4.88034c1.05538,-0.81256 2.02122,-1.76448 3.16941,-2.44023c1.18296,-0.69617 2.4581,-1.27416 3.77949,-1.6478c1.29168,-0.36478 2.65934,-0.403 3.99342,-0.55047c1.3767,-0.1526 2.91108,0.27647 4.14583,-0.35235c2.52283,-1.28359 4.56324,-3.37071 6.73512,-5.18538c1.02959,-0.8609 1.96995,-1.83606 2.86443,-2.83647c0.91451,-1.02341 1.64483,-2.20912 2.55934,-3.23253c0.89448,-1.00041 1.93566,-1.86754 2.86451,-2.8364c0.99475,-1.03716 1.85538,-2.21097 2.90999,-3.18698c0.97764,-0.90535 1.92474,-1.96522 3.1694,-2.44023c1.29428,-0.49413 2.81527,-0.72492 4.14592,-0.35228c2.53395,0.71443 5.23792,1.29558 7.24769,2.93874c1.40605,1.1689 2.1163,2.78651 2.82479,4.32467c0.5515,1.46718 1.20871,2.6814 1.09917,3.88648c-0.22516,1.63861 -1.42909,2.95165 -2.06824,4.11641z" data-paper-data="{&quot;index&quot;:null,&quot;origPos&quot;:null,&quot;origRot&quot;:0}" id="ID0.7367181181907654" fill="#ffd499" stroke="#ffd499" stroke-width="4" stroke-linecap="round"/><g data-paper-data="{&quot;index&quot;:null,&quot;origPos&quot;:null,&quot;origRot&quot;:0}" id="ID0.7409566841088235" stroke-width="4.2029" stroke-linecap="round"><path d="M220.37121,278.53096c-0.18134,-0.63509 1.27846,-2.32166 2.91568,-3.73145c3.32801,-2.8671 7.02466,-5.30335 10.64996,-7.78472c1.17467,-0.80471 2.38528,-1.63742 3.74263,-2.06829c1.38052,-0.43759 2.87248,-0.46409 4.32058,-0.48883c1.44241,-0.02431 2.90518,0.0557 4.31873,0.34193c1.37195,0.27786 2.81069,0.57479 3.98424,1.33792c1.24615,0.81088 2.18611,2.04867 3.06621,3.24643c0.8428,1.1476 1.77013,2.35015 2.06838,3.74269c0.30224,1.41042 0.11733,2.95112 -0.34187,4.31865c-0.45926,1.36762 -1.46589,2.49712 -2.33397,3.64983c-1.79934,2.38734 -3.64631,4.75858 -5.66408,6.96505c-1.92693,2.10723 -3.849,4.28931 -6.16029,5.96714c-3.46221,2.51387 -7.07378,4.98755 -11.0625,6.53764c-1.3273,0.51641 -2.9957,0.11129 -4.2351,-0.59086c-1.33178,-0.75426 -2.03636,-2.29325 -2.98269,-3.49555c-0.9307,-1.18259 -1.92462,-2.34204 -2.65004,-3.66079c-0.71776,-1.30515 -1.28713,-2.71218 -1.65206,-4.15707c-0.35439,-1.40359 -0.61293,-2.87816 -0.48875,-4.32053c0.1354,-1.5717 0.47756,-3.19472 1.25616,-4.56592z" id="ID0.703050977550447" fill="#cc0099" stroke="#cc0099"/><path d="M215.46716,279.93222c-0.62914,6.45457 -0.06535,7.70349 0.64489,8.80656c0.80634,1.25277 1.57094,2.53701 2.31736,3.82625c0.71367,1.23166 1.37973,2.49607 2.06838,3.74269c0.68861,1.24649 1.3261,2.52686 2.06835,3.74255c0.74722,1.22413 1.52271,2.44327 2.401,3.57732c0.86338,1.11566 3.00121,2.8954 2.8172,3.16273c-0.18399,0.26748 -2.65291,-2.20651 -3.90054,-1.58693c-1.24708,0.62092 0.01777,3.76893 -1.08899,4.06787c-1.17896,0.319 -2.47117,-1.73096 -3.48253,-2.83204c-0.97055,-1.05748 -1.60154,-2.38657 -2.40097,-3.57718c-0.79946,-1.19074 -1.70897,-2.32078 -2.401,-3.57731c-0.74624,-1.35557 -1.27061,-2.82744 -1.90113,-4.24068c-0.58087,-1.30009 -1.39517,-2.52562 -1.73567,-3.90801c-0.68265,-2.77296 -2.24748,-6.71447 -1.31019,-8.47573c0.56421,-1.05969 3.0532,1.66479 4.3132,2.83384z" id="ID0.07698269281536341" fill="#990072" stroke="#990072"/></g><path d="M211.56338,389.52871c0.8282,0.2395 3.0217,1.7099 5.0333,1.838c1.5738,0.1003 3.1619,0.0967 4.7347,-0.0182c1.5992,-0.1162 3.199,-0.3454 4.7686,-0.674c1.6244,-0.3394 3.2589,-0.7204 4.8025,-1.3296c1.5142,-0.5977 2.9995,-1.3304 4.3254,-2.2749c1.3352,-0.9513 2.4797,-2.1619 3.5928,-3.3646c1.2117,-1.3101 2.0788,-2.9342 3.3711,-4.165c1.1723,-1.1166 2.4351,-2.2763 3.9591,-2.8197c3.0677,-1.0933 6.3856,-2.6807 9.5711,-2.0037c3.0841,0.6559 5.3235,3.4684 7.5975,5.6525c1.1986,1.1512 1.8046,2.7984 2.675,4.2146c0.8258,1.3423 2.0682,2.5332 2.4195,4.0699c0.3603,1.5781 -0.0086,3.2711 -0.3819,4.8455c-0.3639,1.5339 -0.9846,3.0303 -1.8042,4.3775c-0.8272,1.3606 -1.8683,2.6243 -3.0818,3.654c-1.2015,1.0204 -2.6406,1.755 -4.0699,2.4196c-1.6345,0.7602 -3.3452,1.395 -5.0919,1.8407c-1.5542,0.3967 -3.1736,0.5055 -4.7686,0.6739c-1.7526,0.1845 -3.5212,0.2709 -5.2796,0.3846c-1.6239,0.1049 -3.2526,0.3352 -4.8795,0.2737c-1.579,-0.06 -3.1218,-0.5774 -4.7008,-0.6374c-1.6268,-0.0615 -3.2521,0.2842 -4.8794,0.2737c-3.1922,-0.0193 -6.4414,0.2193 -9.5803,-0.3637c-3.13,-0.582 -6.1537,-1.764 -9.0444,-3.0974c-1.4318,-0.661 -3.1886,-1.3724 -3.7988,-2.8262c-0.6116,-1.456 0.102,-3.2142 0.6375,-4.7008c0.6626,-1.8398 1.1408,-4.243 2.894,-5.1102z" data-paper-data="{&quot;index&quot;:null,&quot;origPos&quot;:null}" id="ID0.835637491196394" fill="#003fff" stroke="#003fff" stroke-width="4.6982" stroke-linecap="round"/><g data-paper-data="{&quot;origPos&quot;:null,&quot;origRot&quot;:0,&quot;index&quot;:null}"><path d="M253.6359,270.62037l24.18031,18.53243l-6.67461,7.03927l-2.71309,-5.77014l-13.51302,3.56986l0.13237,-12.69318l-10.28147,0.83014l6.76984,-12.42866z" id="ID0.07080530421808362" fill="#995900" stroke="#995900" stroke-width="1.65977" stroke-linecap="round"/><path d="M339.56374,248.5882c-1.6506,-0.11706 -3.15358,-0.17846 -4.72297,-0.32261c-0.83489,-0.0764 -1.40534,-0.19067 -2.49637,-0.33856c-4.36347,-0.59175 -8.72135,-1.35691 -13.10557,-1.77721c-1.0954,-0.10528 -1.92585,0.25363 -2.89294,0.24319c-2.42056,-0.0256 -4.42153,-0.64281 -7.2616,-0.3491c-11.36265,1.17291 -22.69427,2.91319 -33.99133,4.60619c-2.82452,0.42278 -4.88023,0.77191 -7.20335,1.56529c-1.70742,0.58328 -3.01571,2.21594 -4.79172,2.5281c-3.44698,0.60663 -7.00876,0.13883 -10.50885,0.16377c-3.17321,0.0222 -6.38222,0.36493 -9.53058,-0.02126c-3.50583,-0.43979 -6.70455,-0.94095 -9.90055,-1.97813c-1.96253,-0.63863 -3.75129,-1.46079 -5.00854,-2.90365c-1.07642,-1.16415 -1.14197,-2.81789 -1.01021,-4.26805c0.17366,-2.01146 1.05777,-4.3221 2.40661,-6.02923c1.63238,-2.05527 4.41449,-3.56178 7.04477,-5.08254c3.73699,-2.39003 7.67476,-4.51649 12.02153,-6.63202c1.17552,-0.5422 3.1806,0.13895 3.64402,-1.09469c1.8291,-4.86445 0.63994,-10.9808 2.82439,-16.14142c0.8092,-1.74873 3.51944,-1.93795 5.50052,-3.06753c1.05777,-0.59255 2.07443,-1.00382 3.37421,-1.44905c2.83876,-0.97776 5.72973,-1.83386 8.62086,-2.64434c5.24963,-1.4718 10.52593,-2.92361 15.82409,-4.20966c2.25572,-0.54841 4.57222,-0.84301 6.84909,-1.29577c4.68321,-0.93091 9.32279,-2.2059 14.05245,-2.86107c2.6297,-0.36406 5.32211,-0.00911 7.97022,-0.19025c0.99304,-0.06755 1.94671,-0.4454 2.93539,-0.55536c2.02342,-0.22386 4.06155,-0.44325 6.09798,-0.44412c2.63014,-0.0018 5.27004,0.15917 7.88558,0.43374c0.84087,0.08869 1.80208,0.05879 2.45409,0.65065c2.52557,2.29742 4.48058,4.61161 6.33052,7.2139c1.38945,1.94889 1.92615,4.30971 2.94063,6.43657c1.42031,2.98659 2.43082,5.77012 4.28905,8.20832c0.88728,1.19058 2.50786,1.41553 3.88734,1.79828c4.26444,1.24683 8.7709,1.39403 12.97862,2.7134c2.21316,0.69282 4.72839,1.70762 6.88083,3.1574c1.7998,1.46307 3.37817,3.30296 4.66983,5.4c1.69155,2.75893 3.23561,5.83589 3.53812,9.05984c0.16452,1.7497 -0.77428,3.80745 -2.23709,4.78101c-3.7139,2.47202 -8.15833,3.71377 -12.43422,4.98713c-2.60943,0.77753 -5.37453,1.155 -8.09718,1.12645c-6.61951,-0.06884 -13.22432,-0.94928 -16.39529,-0.95216z" id="ID0.13154677860438824" fill="#ffffff" stroke="#ffffff" stroke-width="1.65977" stroke-linecap="round"/><path d="M261.76799,274.48777c-0.21534,-0.64434 -0.28075,2.27629 0,0c1.12552,-9.10596 0.23695,-18.68469 3.3786,-27.34457c1.51086,-4.16532 6.51201,-6.44472 9.97761,-9.46792c0.86627,-0.75552 0.90156,-0.8258 2.32228,-1.26193c5.68312,-1.74362 11.39349,-3.52035 17.2527,-4.74248c2.23718,-0.46639 4.6084,-0.42044 6.91728,-0.29892c4.56004,0.23909 9.10528,0.91956 13.65015,1.37872c3.1821,0.3213 6.48,0.11063 9.55517,0.96502c4.52868,1.25863 8.95166,3.04814 13.00804,5.30453c2.06544,1.14944 4.34136,2.66444 5.06814,4.75216c1.13924,3.27673 0.15715,6.83205 0.14662,10.24097c-0.00244,0.85276 -0.12306,1.31849 -0.1845,1.97685c-0.06153,0.65815 -0.11733,1.2572 -0.18446,1.9767c-0.26878,2.88004 -0.49144,5.77381 -0.80704,8.64813c-0.2896,2.62954 -0.62026,5.26306 -1.01089,7.8794c-0.09901,0.65839 -0.19337,1.30439 -0.4575,1.94916c-1.05633,2.57806 -2.20013,5.13738 -3.46792,7.63122c-2.66812,5.25075 -4.61644,10.94929 -8.347,15.61878c-1.84082,2.3042 -5.10364,3.35447 -7.8783,4.69141c-1.39097,0.67067 -2.94485,1.17626 -4.52951,1.28856c-4.74925,0.33639 -9.58516,0.6212 -14.33446,0.0486c-3.87943,-0.46766 -7.72334,-1.59911 -11.28168,-3.13478c-4.02956,-1.73993 -7.79537,-3.91108 -11.3825,-6.18799c-3.86809,-2.72813 -7.29715,-5.94188 -10.91969,-8.78506c-0.90581,-0.71096 -1.28508,-1.04165 -1.7726,-1.67544c-0.42672,-0.55404 -0.5864,-1.24157 -0.93061,-1.84002c-0.36709,-0.63774 -0.93712,-1.19116 -1.20365,-1.86756c-1.00079,-2.53937 -1.72367,-5.16451 -1.56141,-6.89205z" id="ID0.5297369826585054" fill="#ffd499" stroke="#ffd499" stroke-width="1.37888" stroke-linecap="round"/><path d="M332.99319,247.86097c0.7768,-1.15426 2.55302,-1.61198 4.09298,-1.67197c1.59037,-0.05515 3.74296,0.48267 4.39985,1.81275c1.36288,2.76167 1.33632,5.96646 1.45468,8.97178c-0.15415,2.93137 -0.42012,5.97207 -1.56144,8.67319c-0.66338,1.56972 -2.27624,3.06711 -4.07659,3.4121c-2.27145,0.43647 -5.66118,0.25009 -6.86314,-1.60514c-1.91291,-2.98437 -1.1948,-6.99395 -0.64683,-10.44965c0.31823,-3.18804 1.33561,-6.36536 3.20048,-9.14305z" id="ID0.9911041222512722" fill="#ffffff" stroke="none" stroke-width="0.68934" stroke-linecap="round"/><path d="M338.69869,251.89514c0.29688,-0.63137 1.18558,-1.0853 2.03475,-1.14353c0.74657,-0.0481 1.65548,0.4954 1.87962,1.08498c0.75472,1.78718 0.85929,3.73351 0.84405,5.52885c-0.0144,1.58858 -0.32454,3.44564 -0.82874,4.624c-0.50406,1.17888 -1.19631,1.90164 -1.95582,1.8875c-0.75966,-0.01417 -1.44502,-0.76253 -1.9381,-1.95992c-0.4931,-1.19676 -0.78148,-3.0315 -0.78552,-4.65404c-0.0051,-1.78045 0.04421,-3.65467 0.74973,-5.36782z" data-paper-data="{&quot;origPos&quot;:null}" id="ID0.45039721950888634" fill="#995900" stroke="none" stroke-width="0.36443" stroke-linecap="butt"/><path d="M305.83172,241.01251c2.78855,0.18489 5.62938,2.58001 6.62326,5.15481c1.43793,3.71595 0.6487,7.97045 0.25919,11.91358c-0.3571,3.54637 -0.08939,7.58816 -2.13478,10.55028c-1.76921,2.3154 -5.23099,3.93334 -8.13706,3.66396c-2.78714,-0.25816 -5.28582,-2.67634 -6.62332,-5.15467c-1.44522,-3.05282 -1.42243,-6.75932 -1.10701,-10.20502c0.40446,-4.14968 1.33097,-8.57786 3.64294,-11.9679c1.57799,-2.28989 4.6259,-4.12985 7.47678,-3.95505z" id="ID0.0440747351385653" fill="#ffffff" stroke="none" stroke-width="0.59484" stroke-linecap="round"/><path d="M316.79428,276.32501c6.57806,0.78462 12.42642,1.2731 22.11321,2.23354c1.07351,0.10744 1.66243,0.04485 2.45689,0.24813c0.75369,0.19345 1.44039,0.57048 2.11846,0.92403c0.63913,0.33337 1.27841,0.68854 1.82353,1.13072c0.57372,0.46593 1.10021,0.99151 1.50674,1.57213c0.49315,0.70401 0.91515,1.46134 1.16801,2.24793c0.25021,0.77985 0.24762,1.59925 0.32728,2.39977c0.06226,0.63289 0.11075,1.27023 0.09791,1.90307c-0.01239,0.62839 -0.02645,1.26501 -0.17502,1.87572c-0.15243,0.62934 -0.38685,1.25114 -0.72103,1.82049c-0.32639,0.55687 -0.68485,1.13776 -1.2451,1.53083c-0.56026,0.39308 -1.29212,0.59274 -1.99852,0.74486c-0.8087,0.17292 -1.66367,0.17932 -2.50079,0.22077c-0.73213,0.03674 -1.58432,-0.30491 -2.20595,0.01376c-0.68991,0.35355 -0.74114,1.24486 -1.26708,1.7654c-0.49912,0.49392 -1.12001,0.8988 -1.7692,1.24121c-0.61679,0.32498 -1.3098,0.54557 -1.99852,0.74486c-0.73073,0.21119 -1.47492,0.43698 -2.24971,0.48273c-0.72609,0.04318 -1.4695,-0.06987 -2.18401,-0.22063c-0.7363,-0.15473 -1.42456,-0.46846 -2.1403,-0.68944c-0.80036,-0.24742 -1.72926,-0.274 -2.41326,-0.71714c-0.68391,-0.44297 -1.05248,-1.17122 -1.48481,-1.80653c-0.37815,-0.55506 -0.2468,-1.51398 -0.93889,-1.75147c-0.69211,-0.2375 -1.32444,0.51382 -1.99852,0.74486c-0.74815,0.25578 -1.47572,0.58744 -2.27151,0.71716c-0.7175,0.11693 -1.47059,0.04848 -2.20598,0.01392c-0.7299,-0.03395 -1.45668,-0.14718 -2.18401,-0.22063c-0.72721,-0.07342 -1.4695,-0.06987 -2.18401,-0.22063c-0.73629,-0.15476 -1.41244,-0.50336 -2.14029,-0.68945c-0.79878,-0.20467 -1.64867,-0.23943 -2.43511,-0.48255c-0.74146,-0.22926 -1.46198,-0.5406 -2.11832,-0.92398c-0.66073,-0.38572 -1.31931,-0.81675 -1.80172,-1.3653c-0.45238,-0.51431 -0.76308,-1.13066 -0.93889,-1.75147c-0.17566,-0.62077 -0.11077,-1.27025 -0.09787,-1.90323c0.01232,-0.62825 0.49155,-1.29934 0.17496,-1.87556c-0.31832,-0.58128 -1.12988,-0.89705 -1.82348,-1.13087c-0.68823,-0.23226 -1.45668,-0.14718 -2.18401,-0.22063c-0.72733,-0.07345 -1.46905,-0.07352 -2.18404,-0.22047c-1.54323,-0.31788 -3.17703,-0.50463 -4.57534,-1.17216c-1.39407,-0.6652 -2.69353,-1.6002 -3.60327,-2.73055c-0.87519,-1.08709 -1.14684,-2.45132 -1.58281,-3.70979c-0.21718,-0.62689 -0.33772,-1.28278 -0.37106,-1.93081c-0.03271,-0.62906 0.07433,-1.25631 0.17518,-1.87568c0.11389,-0.70134 0.30819,-1.38977 0.46979,-2.08246c0.14356,-0.61701 0.17353,-1.26897 0.44801,-1.84802c0.30476,-0.6424 0.79304,-1.20928 1.26708,-1.76539c0.45565,-0.5353 0.9353,-1.06899 1.51814,-1.5033c1.10298,-0.82112 2.03724,-2.18642 3.51679,-2.24812c0.90841,-0.03793 0.87122,1.42381 1.46299,2.04111c0.50825,0.53035 1.2448,0.87069 1.80155,1.36526c0.54877,0.48708 0.95813,1.0851 1.50675,1.57213c0.55674,0.49455 1.18551,0.92723 1.80169,1.3653c0.67485,0.48094 1.37494,0.93969 2.07458,1.39281c0.5988,0.38706 1.21602,0.75428 1.82349,1.13087c0.60747,0.37659 1.16495,0.82858 1.82349,1.13088c0.67325,0.30942 1.42752,0.46028 2.1403,0.68944c0.71278,0.22916 1.40431,0.53197 2.14024,0.6896c2.05978,0.44079 4.14118,0.85267 5.98408,0.84103z" id="ID0.6850537364371121" fill="#663b00" stroke="#663b00" stroke-width="1.3476" stroke-linecap="round"/><path d="M275.26706,250.90906c0.11544,2.31735 -0.43072,4.61477 -0.64563,6.91861c-0.12296,1.31648 -0.24613,2.63705 -0.36896,3.95355c-0.06153,0.65815 -0.07731,1.32408 -0.18446,1.9767c-0.10775,0.65749 -0.26123,1.31049 -0.4575,1.94915c-0.201,0.65309 -0.44618,1.29678 -0.7305,1.92161c-0.29416,0.64776 -0.75101,1.23114 -1.00355,1.89406c-0.23793,0.62539 -0.07451,1.3891 -0.4575,1.94915c-0.4033,0.58978 -1.16541,0.90092 -1.77623,1.31702c-0.66399,0.45276 -1.3124,0.93897 -2.04943,1.28957c-0.71519,0.33977 -1.49108,0.5867 -2.27622,0.76772c-0.72443,0.16734 -1.49596,0.14336 -2.23025,0.27368c-0.76088,0.13459 -1.48374,0.42578 -2.25309,0.52074c-0.72593,0.08929 -1.47185,0.06183 -2.20715,0.02634c-0.82077,-0.03895 -1.64428,-0.12205 -2.45704,-0.24818c-0.72799,-0.1123 -1.47943,-0.19923 -2.16087,-0.46762c-0.75609,-0.2978 -1.41687,-0.77663 -2.09179,-1.20898c-0.71254,-0.45598 -1.43867,-0.90858 -2.06877,-1.45602c-0.5658,-0.49209 -1.07468,-1.0513 -1.49969,-1.64807c-0.47257,-0.66423 -0.86192,-1.38204 -1.18052,-2.11456c-0.58989,-1.35648 -1.1669,-2.73282 -1.54207,-4.14648c-0.17285,-0.65293 -0.02176,-1.33805 -0.08857,-2.00424c-0.07545,-0.76192 -0.31596,-1.5155 -0.33839,-2.27907c-0.02206,-0.74548 0.13838,-1.48346 0.20746,-2.22373c0.18425,-1.97485 0.32442,-3.96003 0.55341,-5.93024c0.2379,-2.0532 0.38458,-4.13357 0.84943,-6.14972c0.15911,-0.68834 0.54758,-1.33155 1.00355,-1.89406c1.42016,-1.75314 2.94551,-3.45068 4.60236,-5.02236c0.57338,-0.54478 1.28412,-0.99167 2.04929,-1.28961c0.78704,-0.30655 1.67573,-0.36841 2.52624,-0.49301c0.82694,-0.12101 1.66276,-0.24113 2.50314,-0.24616c0.72906,-0.00417 1.46398,0.09308 2.18401,0.22063c1.45091,0.25739 2.9303,0.46952 4.32199,0.93544c0.77165,0.2585 1.41673,0.77658 2.09179,1.20898c0.71254,0.45598 1.44449,0.90313 2.06862,1.45597c0.65586,0.58 1.22216,1.24484 1.74973,1.92266c0.45871,0.58914 0.83653,1.22976 1.20351,1.8675c0.34437,0.59846 0.71623,1.19672 0.93063,1.84001c0.50568,1.51464 1.14466,3.04269 0.90761,2.08704z" id="ID0.18091836478561163" fill="#ffd499" stroke="#ffd499" stroke-width="1.37888" stroke-linecap="round"/><path d="M280.92623,233.97124c1.51297,0.10006 2.38862,2.02024 2.65789,3.41123c0.35716,1.8658 -0.48752,3.67608 -0.47118,5.63914c0.06278,2.17443 0.59737,4.33648 0.99304,6.48557c0.56718,3.08817 1.62969,6.33727 1.53546,9.53324c-0.04247,2.074 -0.51706,4.4544 -1.80533,6.35261c-1.38747,1.74538 -3.37453,3.52414 -5.83434,4.0499c-1.95249,0.39345 -3.97336,-1.29226 -5.64475,-2.11656c-0.68833,-0.33693 -1.2796,-0.96924 -1.49953,-1.64804c-0.44889,-1.38017 -0.37195,-2.85395 -0.42712,-4.28321c-0.02526,-0.66197 0.12306,-1.3185 0.18446,-1.9767c0.12297,-1.31649 0.24613,-2.63705 0.36896,-3.95355c0.06153,-0.65815 0.12306,-1.3185 0.18446,-1.9767c0.19204,-2.05677 0.55109,-4.10867 0.57655,-6.17723c0.01655,-1.34737 -0.29982,-2.69415 -0.4501,-4.03635c-0.25371,-2.25438 -2.81226,-5.26437 -1.2245,-6.95776c2.64027,-2.39015 7.24938,-2.58317 10.85603,-2.34559z" id="ID0.337260561529547" fill="#995900" stroke="#995900" stroke-width="1.37888" stroke-linecap="round"/><g id="ID0.45443833339959383" fill="#ffd499" stroke-linecap="round"><path d="M317.28,276.24753c-0.74155,-1.17646 -0.23129,-2.68162 0.2059,-3.93171c0.47131,-1.34691 1.41749,-2.56586 2.45038,-3.66234c0.95544,-1.01436 2.14448,-1.89467 3.44437,-2.59578c1.93742,-1.04355 3.92364,-2.19722 6.1965,-2.59985c2.84931,-0.50504 5.86732,-0.09987 8.7994,-0.05866c0.93023,0.01292 1.89315,-0.01191 2.78789,0.2232c1.964,0.51518 3.98567,1.08071 5.67067,2.09585c1.52084,0.89547 2.74455,2.25923 3.92288,3.57998c1.2638,1.54194 2.65992,3.11296 3.37008,4.96259c0.89589,2.33661 1.73206,4.90228 1.14645,7.27024c-0.49305,1.99158 -1.99546,4.06928 -4.17269,4.96013c-3.89766,1.59366 -8.53774,1.64804 -12.89464,2.01907c-1.49167,0.12706 -3.03767,-0.17329 -4.48916,-0.53862c-1.53988,-0.38745 -2.94278,-1.11435 -4.39683,-1.69784c-1.3836,-0.55541 -3.03518,-0.81349 -4.1252,-1.72083c-2.99889,-2.49748 -5.94964,-5.18499 -6.16391,-5.92196z" id="ID0.13960243156179786" stroke="#ff9400" stroke-width="1.32792"/><path d="M315.70689,272.71478c-0.7102,-0.98691 -0.24408,-1.74847 0.28297,-2.41622c1.0676,-1.34586 2.35089,-2.37958 3.8143,-3.01595c3.22597,-1.44257 6.69589,-2.58041 10.02876,-3.11801c2.65515,-0.42419 5.44273,-0.09269 8.16274,-0.05427c0.86284,0.01194 1.74221,0.03785 2.58614,0.20692c1.24279,0.2513 2.40295,0.50957 3.54911,0.80836c0.70613,0.27477 1.45527,0.53648 1.98033,0.8993c1.16396,0.83982 2.18182,1.84059 3.05531,2.85811c1.35377,1.59686 2.84999,3.12435 3.58246,4.9065c1.01988,2.30953 2.15998,4.85565 1.59017,7.16907c-0.50256,2.00182 -2.29124,3.92419 -4.4993,4.82568c-3.63949,1.38474 -7.95136,1.31019 -12.00136,1.62008c-1.38564,0.10607 -2.81795,-0.16073 -4.16444,-0.49971c-1.42839,-0.35941 -2.72982,-1.03363 -4.07861,-1.57491c-1.28347,-0.5153 -2.8526,-0.72426 -3.82669,-1.59644c-3.69773,-3.31168 -7.2215,-7.06797 -10.06196,-11.01844z" id="ID0.13960243156179786" stroke="#ffd499" stroke-width="1.23184"/></g><path d="M308.40697,249.00682c0.41197,-0.70469 1.46129,-1.2542 2.44314,-1.20358c0.89786,0.04965 1.76776,0.91275 2.03057,1.65547c0.61606,2.00813 0.63689,4.08925 0.44947,6.11022c-0.1881,2.02787 -0.57687,4.23939 -1.59531,6.16756c-0.36956,0.62665 -1.44905,1.13573 -2.2744,0.95681c-0.93285,-0.20649 -1.7688,-0.91905 -2.03061,-1.65532c-0.61623,-2.0131 -0.60776,-4.16397 -0.44941,-6.11039c0.16432,-2.01746 0.45441,-4.07664 1.42657,-5.92076z" data-paper-data="{&quot;origPos&quot;:null}" id="ID0.82770483661443" fill="#995900" stroke="none" stroke-width="0.36445" stroke-linecap="round"/><g id="ID0.21591548016294837" fill="none" stroke="#ff9400" stroke-width="0.60438" stroke-linecap="round"><path d="M251.18364,248.97049c0,0 1.72589,-1.12934 2.57515,-1.70776c0.26768,-0.1824 0.33951,-0.54303 0.7786,-0.57737c1.75555,-0.13794 3.83448,-0.82538 5.30558,0.09855c1.99763,1.25434 3.31255,3.49449 3.82255,5.63375c0.69808,2.92686 0.36401,6.04003 -0.35013,8.92924c-0.7314,2.96051 -3.91975,8.35016 -3.91975,8.35016" id="ID0.13139065401628613"/><path d="M263.9145,257.07249c0,0 -1.89556,1.9365 -3.13465,2.52583c-0.86664,0.41191 -1.95476,0.25268 -2.93256,0.3599c-0.617,0.06186 -2.17413,-0.00104 -2.17413,-0.00104" id="ID0.8190059051848948"/></g><path d="M269.80762,237.46523c-0.43143,0.07624 0.19876,-0.14202 0.04223,-0.31194c-0.62618,-0.67729 -1.75026,-1.01147 -2.05655,-1.86782c-0.3208,-0.89522 -0.16679,-2.03104 0.38077,-2.80831c0.52329,-0.74393 1.61161,-0.92419 2.4798,-1.25268c0.9947,-0.37618 2.09474,-0.46711 3.08553,-0.85275c3.65645,-1.4222 7.20057,-3.12671 10.84877,-4.56657c2.739,-1.08153 5.47977,-2.21477 8.32672,-3.00196c1.29046,-0.35636 2.67203,-0.33422 4.01532,-0.40891c0.87526,-0.04906 1.75804,0.06934 2.63462,0.03957c1.00235,-0.03319 1.99835,-0.20448 3.00084,-0.22863c1.64615,-0.03995 3.29859,-0.02932 4.9451,0.03498c1.63477,0.06286 3.26878,0.25773 4.90265,0.34716c0.98411,0.05333 1.97805,-0.01522 2.95859,0.08346c2.05856,0.20786 4.11632,0.49076 6.15656,0.83481c1.18581,0.20023 2.34028,0.57412 3.52188,0.79539c0.85612,0.16054 1.74057,0.16866 2.59227,0.35144c1.82121,0.39195 3.61298,0.93237 5.42389,1.3711c1.168,0.28292 2.36453,0.47325 3.52203,0.79545c1.06844,0.2974 2.13376,0.6363 3.15557,1.06338c0.85572,0.35749 1.62845,0.88818 2.46531,1.28763c1.64141,0.78314 3.59918,1.09317 4.9729,2.2632c0.84379,0.71825 1.6199,2.27521 1.23939,3.0281c-0.29595,0.58524 -1.72912,-0.23451 -2.59227,-0.35144c-2.69721,-0.36578 -5.39452,-0.80907 -8.1008,-1.09856c-0.98091,-0.1051 -1.97318,-0.10742 -2.95858,-0.08346c-1.00233,0.02419 -1.99781,0.26807 -3.00085,0.22862c-1.19621,-0.04652 -2.37709,-0.32234 -3.56428,-0.48337c-1.07961,-0.14641 -2.15524,-0.35192 -3.24024,-0.43943c-2.72131,-0.21768 -5.45933,-0.33094 -8.18534,-0.4744c-1.09308,-0.05791 -2.1952,-0.00906 -3.28265,-0.12738c-2.81492,-0.30534 -5.60987,-0.83694 -8.42473,-1.14246c-1.08747,-0.11818 -2.18949,-0.12909 -3.28267,-0.12724c-1.21606,0.00277 -2.43651,0.0483 -3.64881,0.14064c-1.78733,0.13646 -3.57092,0.36363 -5.35388,0.5452c-0.8914,0.09136 -1.39876,-0.09946 -2.67676,0.27257c-5.10947,1.48828 -10.09529,3.39005 -15.18816,4.93151c-1.67237,0.50662 -3.38857,0.90693 -5.6922,3.04132z" id="ID0.8465245454572141" fill="#ffffff" stroke="#ffffff" stroke-width="1.69196" stroke-linecap="round"/><path d="M314.46827,243.47887c1.08522,0.35958 -0.2702,-1.28823 -1.07544,-1.92182c-0.60836,-0.47823 -1.08486,-1.09138 -1.58761,-1.66809c-0.46879,-0.53749 -0.86028,-1.13595 -1.32908,-1.67344c-0.50276,-0.57671 -1.01471,-1.15224 -1.58764,-1.6681c-0.57292,-0.516 -1.15245,-1.0502 -1.84142,-1.41987c-0.63859,-0.34252 -1.35884,-0.57351 -2.08491,-0.68573c-0.68046,-0.1053 -1.38066,0.02876 -2.06979,0.04305c-0.77515,0.01611 -1.55348,0.03234 -2.32862,0.04858c-0.68913,0.01428 -1.60224,0.51731 -2.06979,0.04305c-0.52665,-0.53344 -0.15163,-1.46475 -0.04544,-2.18638c0.12338,-0.83747 0.56169,-1.61461 0.72562,-2.44531c0.38217,-1.93647 0.56787,-3.90879 0.91361,-5.85142c0.11778,-0.6586 -0.2088,-1.77758 0.47699,-1.9542c2.16379,-0.55532 4.56233,-0.42343 6.73196,0.10303c1.36732,0.33216 2.39581,1.4424 3.41397,2.35918c0.58554,0.52734 0.86963,1.29142 1.33397,1.91649c0.42297,0.57058 0.96755,1.06657 1.32909,1.67344c0.3594,0.60306 0.59476,1.26894 0.8166,1.92716c0.23943,0.71059 0.40997,1.44375 0.56292,2.17554c0.13436,0.63975 0.15747,1.2993 0.29906,1.93802c0.14515,0.65309 0.41292,1.27941 0.55791,1.93251c0.14175,0.63858 0.26181,1.28645 0.29923,1.938c0.09729,1.69611 0.90227,4.00859 0.10606,5.10125z" data-paper-data="{&quot;origPos&quot;:null,&quot;index&quot;:null,&quot;origRot&quot;:0}" id="ID0.9297824092209339" fill="#663b00" stroke="#663b00" stroke-width="1.32298" stroke-linecap="round"/><path d="M327.98438,247.25207c1.50182,-3.05041 3.89125,-6.03206 5.92515,-8.98325c0.50834,-0.73807 0.61383,-0.65161 0.93134,-0.96676c0.25681,-0.25476 0.48155,-0.55318 0.79271,-0.74422c1.11497,-0.68345 2.28755,-1.29025 3.468,-1.86862c0.39999,-0.19609 0.82483,-0.3613 1.26843,-0.45097c0.81703,-0.16504 1.65353,-0.30528 2.49707,-0.30988c0.49273,-0.00265 1.00744,0.08834 1.46646,0.28754c0.68282,0.29575 1.35856,0.67027 1.90264,1.17276c0.6878,0.6353 1.7545,1.20214 1.84327,2.06046c0.25781,2.54493 -0.55802,5.03507 -0.87166,7.47543c-0.07844,0.60996 0.14567,1.19179 -0.3171,1.03728c-1.85084,-0.61748 -3.27482,-2.26268 -5.13291,-2.8557c-1.34913,-0.43076 -2.80742,-0.16846 -4.20156,-0.12413c-0.51637,0.01646 -1.01448,0.17031 -1.50621,0.30439c-0.43446,0.11861 -0.84568,0.30095 -1.26824,0.45088c-0.42259,0.15006 -0.8627,0.2658 -1.26843,0.45097c-1.12713,0.51401 -2.25049,1.04818 -3.32935,1.64609c-0.76498,0.42392 -2.57527,2.1803 -1.34753,1.63477z" data-paper-data="{&quot;origPos&quot;:null,&quot;index&quot;:null}" id="ID0.15800268715247512" fill="#663b00" stroke="#663b00" stroke-width="0.71418" stroke-linecap="round"/></g></g></g></svg>