<svg version="1.1" xmlns="http://www.w3.org/2000/svg" xmlns:xlink="http://www.w3.org/1999/xlink" width="107.78143" height="110.93647" viewBox="0,0,107.78143,110.93647"><g transform="translate(-327.30839,-52.6291)"><g data-paper-data="{&quot;isPaintingLayer&quot;:true}" fill="#000000" fill-rule="nonzero" stroke="none" stroke-width="0.5" stroke-linecap="butt" stroke-linejoin="miter" stroke-miterlimit="10" stroke-dasharray="" stroke-dashoffset="0" style="mix-blend-mode: normal"><path d="M423.25,133.07222v-2.33333c0,-0.22098 0.04095,-0.43239 0.1157,-0.62706c-1.38079,-1.32142 -2.84876,-2.5685 -4.0938,-3.0014c-1.29886,-0.45163 -4.6068,1.24625 -6.12754,1.37248c-1.11209,0.09231 -2.07517,0.02959 -3.06101,-0.06725c0,1.71885 0,3.4377 0,5.15654v2.16667c0,0 0,1.75 -1.75,1.75l-0.00001,0.00001c-1.75,0 -1.75,-1.75 -1.75,-1.75c0,-1.8155 0,-5.51982 0,-7.58583c-1.81262,0.03421 -3.28254,0.50483 -5.06193,0.65903c-0.95484,0.08275 -1.90876,-0.10133 -2.86469,-0.22427c0.45527,1.5415 0.74398,2.9705 0.75995,4.81774v1.33333c0,0 0,1.75 -1.75,1.75c-1.75,0 -1.75,-1.75 -1.75,-1.75v-1.33333c0.01991,-1.80924 -0.33991,-3.07663 -0.84993,-4.60894c-0.13249,-0.01839 -0.21416,-0.04173 -0.21416,-0.04173c-12.48955,-3.58858 -26.45025,1.49191 -39.26083,1.06573c-2.57121,-0.08554 -5.33274,-0.58102 -7.87206,-1.02099c-0.10102,-0.0175 -0.20204,-0.03514 -0.30303,-0.05293c-0.00441,7.33586 0.66667,14.63373 0.66667,21.9922v0.66667c0,0 0,0.23467 -0.08594,0.53215c0.93757,-0.13368 1.8723,-0.28985 2.80384,-0.45364c10.00878,-1.75971 19.04482,-5.15561 29.36544,-5.16186c5.8432,0 11.42479,-0.20536 17.1355,1.20287c2.36055,0.5821 4.74187,1.46387 7.14935,2.21574c3.46001,-1.34985 7.14359,-1.65756 10.69867,-2.67398c3.4158,-0.9766 6.60946,-2.48588 10.08431,-3.22415c-1.16002,-3.45172 -1.97721,-7.25303 -1.9845,-10.77046zM416.18314,150.41094c-1.04814,0.29928 -2.11256,0.53205 -3.18043,0.74827c1.24902,-0.06941 2.5063,-0.29957 3.77251,-0.74562c1.60391,-0.56501 3.21729,-1.18373 4.79679,-1.88288c-1.78998,0.64495 -3.56057,1.35819 -5.38887,1.88023zM395.67961,125.35165l1.65373,-0.36276c3.51453,0.00977 6.69516,-0.52332 10.26694,-0.31477c1.4992,0.08754 3.62114,0.45757 5.25539,0.32073c2.13746,-0.17898 5.10942,-1.89657 7.20579,-1.29418c3.0696,0.88203 6.81932,5.18351 9.14453,7.21304c1.96538,2.31421 6.11277,6.90412 5.87395,10.2675c-0.10642,1.49873 -1.2201,2.77702 -2.13078,3.97209c-1.99809,2.62206 -3.1817,2.68769 -5.77934,4.21704c-3.53973,2.084 -7.73084,4.59337 -11.92709,5.10164c-8.051,0.97518 -14.44103,-3.07488 -22.04599,-4.35689c-4.23635,-0.71414 -8.75117,-0.29287 -13.03007,-0.29287c-11.27882,-0.00718 -21.25741,4.35959 -32.29315,5.72802c-2.87735,0.35679 -8.48667,1.4751 -10.60389,-1.42407c-0.73582,-1.00758 -0.64071,-2.41414 -0.86831,-3.64086c-0.86404,-4.65694 -0.1651,-8.84576 0.48107,-13.47259c0.45851,-3.28317 1.15337,-6.26747 2.22483,-9.40126c0.84523,-1.04909 1.33691,-2.5325 2.53568,-3.14726c0.95637,-0.49045 2.15294,0.05503 3.2184,0.19639c3.59946,0.47757 7.23132,1.54443 10.8803,1.66325c13.14575,0.42807 27.07152,-4.56722 39.93801,-0.97218z"/><path d="M387.61482,60.01759c0.49478,0.08426 1.46852,0.41591 1.46852,1.7213c0,1.75 -1.75,1.75 -1.75,1.75l-1.36839,-0.33892c-3.13446,-2.3388 -4.55457,-4.48568 -5.93685,-8.12995c0,0 -0.61447,-1.63858 1.02411,-2.25304c1.63858,-0.61447 2.25304,1.02411 2.25304,1.02411c1.05838,2.86002 1.98697,4.46188 4.30957,6.2265z"/><path d="M418.11597,67.84031c1.56525,0.78262 0.78262,2.34787 0.78262,2.34787l-0.99448,1.78815c-0.74661,0.60477 -1.28103,1.75201 -2.23983,1.81432c-6.09876,0.39636 -6.38796,-7.4157 -7.05713,-11.43073c0,0 -0.2877,-1.72619 1.43849,-2.01389c1.72619,-0.2877 2.01389,1.43849 2.01389,1.43849c0.31702,1.90212 0.30681,3.88421 0.92588,5.7105c0.37574,1.10844 1.46898,3.95311 2.44383,2.00643l0.33886,-0.87852c0,0 0.78262,-1.56525 2.34787,-0.78262z"/><path d="M429.57078,83.16812c1.23744,1.23744 0,2.47487 0,2.47487l-1.61967,1.56488c-1.28382,0.27738 -2.78514,1.599 -3.85145,0.83213c-1.32791,-0.95501 -1.08384,-3.09075 -1.49161,-4.67476c-1.05625,-4.10297 -1.2395,-8.57505 -1.68176,-12.77648c0,0 -0.1832,-1.74038 1.55719,-1.92358c1.74038,-0.1832 1.92358,1.55719 1.92358,1.55719c0.34267,3.25541 0.68991,6.46709 1.20074,9.70077c0.03782,0.23944 -0.20568,6.37887 0.44111,4.34678l1.047,-1.10179c0,0 1.23744,-1.23744 2.47487,0z"/><path d="M380.97256,156.68497c-0.61275,1.63922 -2.25196,1.02648 -2.25196,1.02648l-0.07653,-0.21328c-2.81398,0.25482 -5.16343,0.58958 -7.8863,1.27181c0,0 -1.69775,0.42444 -2.12219,-1.27331c-0.42444,-1.69775 1.27331,-2.12219 1.27331,-2.12219c2.88413,-0.71952 5.44427,-1.09055 8.4183,-1.36194l1.61889,0.42047c0,0 1.63922,0.61275 1.02648,2.25197z"/><path d="M372,121.48889c-1.75,0 -1.75,-1.75 -1.75,-1.75v-0.66667c0.02881,-11.97094 1.33333,-24.01128 1.33333,-36c0,0 0,-1.75 1.75,-1.75c1.75,0 1.75,1.75 1.75,1.75c0,11.98514 -1.36593,24.03455 -1.33333,36v0.66667c0,0 0,1.75 -1.75,1.75z"/><path d="M384.33333,119.15555c-1.75,0 -1.75,-1.75 -1.75,-1.75l0.02381,-0.95436c0.46502,-2.73667 0.11894,-5.40354 0.3129,-8.15438c0.56214,-7.97252 0.66328,-15.87006 0.66328,-23.89126c0,0 0,-1.75 1.75,-1.75c1.75,0 1.75,1.75 1.75,1.75c0,8.09182 -0.0878,16.06555 -0.67005,24.10874c-0.20794,2.87242 0.11597,5.6454 -0.35376,8.51229l0.02381,0.37897c0,0 0,1.75 -1.75,1.75z"/><path d="M363.42655,116.10541c-1.36652,1.09322 -2.45974,-0.2733 -2.45974,-0.2733l-1.46797,-1.86042c-2.63567,-6.16083 -2.24811,-12.97818 -0.52051,-19.35992c0,0 0.46046,-1.68834 2.14879,-1.22788c1.68834,0.46046 1.22788,2.14879 1.22788,2.14879c-1.4577,5.30196 -2.07763,11.46479 0.14615,16.64008l1.1987,1.47291c0,0 1.09322,1.36652 -0.2733,2.45974z"/><path d="M392.0959,114.64299c-1.23744,-1.23744 0,-2.47487 0,-2.47487l1.52474,-1.5062c0.69605,-1.17131 1.85162,-2.05094 2.43823,-3.28071c1.05934,-2.2208 0.35707,-5.72011 -0.10822,-7.96578c0,0 -0.3432,-1.71602 1.37281,-2.05922c1.71602,-0.3432 2.05922,1.37281 2.05922,1.37281c0.58207,3.00199 1.21829,7.06777 -0.10822,10.03422c-0.67771,1.51554 -2.03539,2.63239 -2.8951,4.05262l-1.80859,1.82713c0,0 -1.23744,1.23744 -2.47487,0z"/><path d="M370.04183,73.38882c-0.64993,-1.62483 0.9749,-2.27477 0.9749,-2.27477l2.80866,-0.72123c0.95826,1.19938 2.37306,2.14727 2.87479,3.59815c0.37976,1.09818 0.05734,2.406 -0.43441,3.4588c-2.10162,4.49944 -6.12959,2.97483 -9.8868,2.34863c0,0 -1.72619,-0.2877 -1.43849,-2.01389c0.2877,-1.72619 2.01389,-1.43849 2.01389,-1.43849c2.47576,0.41263 7.83333,1.94122 5.88691,-2.59441l-0.52467,0.6121c0,0 -1.62483,0.64993 -2.27477,-0.9749z"/><path d="M383.37433,75.30214c0.37569,0.24258 0.709,0.67301 0.709,1.43674c0,1.75 -1.75,1.75 -1.75,1.75l-1.95817,-1.10007c-0.56834,-1.53739 -0.63838,-3.27028 -0.44091,-4.89742c0,0 0.24749,-1.73241 1.9799,-1.48492c1.73241,0.24749 1.48492,1.9799 1.48492,1.9799c-0.13117,0.75042 -0.17835,1.56283 -0.02475,2.31577z"/><path d="M390.75,121.07222c0,1.75 -1.75,1.75 -1.75,1.75l-0.04564,-0.02381c-2.80042,0.44242 -5.43776,0.02058 -8.2877,0.02381c0,0 -1.75,0 -1.75,-1.75c0,-1.75 1.75,-1.75 1.75,-1.75c2.59245,0.00275 5.18118,0.47419 7.7123,0.02381l0.62103,-0.02381c0,0 1.75,0 1.75,1.75z"/><path d="M358.75,161.07222c0,1.75 -1.75,1.75 -1.75,1.75l-0.3528,-0.02838c-0.75918,0.13761 -1.51837,0.27521 -2.27755,0.41282c-3.55456,0.27295 -7.59462,0.69532 -11.12038,-0.10162c-3.5361,-0.79928 -6.53752,-3.95381 -9.27612,-6.14654c-2.88184,-2.30742 -5.68745,-4.38258 -6.36723,-8.27263c-1.1293,-6.46249 1.32069,-13.44769 1.31074,-19.94699c0,0 0,-1.75 1.75,-1.75c1.75,0 1.75,1.75 1.75,1.75c-0.0089,6.31672 -2.32888,13.10814 -1.35593,19.38635c0.44271,2.85674 3.05071,4.46314 5.09885,6.10023c2.22307,1.77691 5.02753,4.8806 7.92447,5.48059c3.13247,0.64877 6.68821,0.27055 9.83732,0.02943c0.69936,-0.1283 1.39873,-0.2566 2.09809,-0.38489l0.98053,-0.02838c0,0 1.75,0 1.75,1.75z"/><path d="M431.78262,125.9708c-1.56525,0.78262 -2.34787,-0.78262 -2.34787,-0.78262l0.05791,-0.15152c-1.72079,-1.56238 -3.08847,-2.90877 -5.44702,-3.23825c0,0 -1.72619,-0.2877 -1.43849,-2.01389c0.2877,-1.72619 2.01389,-1.43849 2.01389,-1.43849c3.04317,0.5634 4.94486,2.04396 7.21964,4.09509l0.72457,1.18181c0,0 0.78262,1.56525 -0.78262,2.34787z"/></g></g></svg>