<svg version="1.1" xmlns="http://www.w3.org/2000/svg" xmlns:xlink="http://www.w3.org/1999/xlink" width="267.58084" height="367.61632" viewBox="0,0,267.58084,367.61632"><g transform="translate(-102.13094,-21.77692)"><g data-paper-data="{&quot;isPaintingLayer&quot;:true}" fill-rule="nonzero" stroke="none" stroke-linecap="round" stroke-miterlimit="10" stroke-dasharray="" stroke-dashoffset="0" style="mix-blend-mode: normal"><path d="M222.85465,149.47197c0,0 15.21008,26.65718 35.03448,46.05648c12.59591,12.32582 31.13035,20.06407 35.70904,21.50099c16.90616,5.30563 36.83252,7.19114 36.83252,7.19114c0,0 -18.95168,2.16664 -36.51123,-1.88189c-5.53948,-1.27718 -20.07779,-7.75973 -31.93339,-17.72071c-14.31304,-12.02569 -26.07286,-28.36119 -31.09289,-36.7984c-5.90855,-9.93056 -8.03853,-18.34761 -8.03853,-18.34761z" data-paper-data="{&quot;index&quot;:null}" fill="#000000" stroke-width="9.375" stroke-linejoin="round"/><path d="M221.23078,273.68563c-0.62761,0.01886 -1.58887,-7.36095 -2.50102,-19.56719c-0.55933,-7.47574 -1.24612,-18.25831 -1.40384,-29.13259c-0.11674,-9.41906 -0.07446,-19.70735 0.21235,-30.54846c0.41234,-15.5895 1.2601,-29.64184 2.35273,-41.99897c0.05463,0.10374 0.10699,0.20227 0.15707,0.29104c0.02212,0.03903 0.0452,0.07284 0.05918,0.10113c0.02439,0.04943 0.0387,0.09723 0.05301,0.14341c0.02731,0.08877 0.04682,0.16943 0.05983,0.23999v0c-0.0013,-0.02016 -0.10016,-0.10992 -0.26633,-0.28617c-0.61785,-0.63119 -1.29262,-1.26595 -1.95828,-1.89682c-2.56833,-2.43371 -5.01959,-4.70092 -7.28225,-6.82017c-10.77412,-10.09123 -17.27365,-16.56734 -16.77904,-17.12406c0.41592,-0.46795 7.72353,5.0661 19.09015,14.48809c2.32541,1.92772 5.01927,4.17541 7.66565,6.47253c0.68842,0.59672 1.42595,1.23571 2.15534,1.92219c0.13886,0.12162 0.35478,0.32779 0.62339,0.64062v0c0.04325,0.10861 0.09203,0.22698 0.14504,0.35706c0.02699,0.06699 0.05723,0.13723 0.07999,0.21105c0.01366,0.0426 0.01918,0.08162 0.02699,0.11837c0.01789,0.0852 0.04,0.1691 0.06472,0.2582c-0.59477,12.69598 -1.08482,26.35257 -1.42172,42.48253c-0.23121,11.01931 -0.35414,21.47768 -0.44486,31.04242c-0.11349,9.45581 0.06471,22.78785 0.08325,28.983c0.03642,12.19844 -0.14699,19.60492 -0.77134,19.6228z" data-paper-data="{&quot;index&quot;:null}" fill="#000000" stroke-width="9.375" stroke-linejoin="round"/><path d="M231.03527,153.03856c0,0 -30.6856,-0.58842 -57.5006,6.50346c-17.03758,4.50601 -33.17627,16.4621 -36.7554,19.65883c-13.2154,11.80343 -25.04005,27.95251 -25.04005,27.95251c0,0 7.84508,-17.38722 20.31541,-30.39565c3.93399,-4.10375 16.94757,-13.27068 31.57483,-18.35198c17.6592,-6.13455 37.71247,-7.8689 47.53017,-7.85953c11.55539,0.01104 19.87564,2.49236 19.87564,2.49236z" data-paper-data="{&quot;index&quot;:null}" fill="#000000" stroke-width="9.375" stroke-linejoin="round"/><path d="M181.09842,335.45883c-3.99635,-0.58273 -7.9269,-1.19969 -11.78858,-1.84684c-14.90426,-2.49639 -28.15553,-5.22839 -40.24041,-8.23762v0c-6.49495,-1.61569 -12.03117,-3.1362 -17.39049,-5.0469c-2.0815,-0.73984 -4.02208,-1.49851 -5.88907,-2.45775c-0.68904,-0.35164 -1.37702,-0.74524 -2.04136,-1.22299c-0.007,-0.58474 -0.08278,-1.29493 -0.1149,-2.17293c1.05719,1.04156 1.79984,2.17785 2.22285,3.31908c0.02111,1.53187 -0.23187,2.96932 -0.47329,4.16935c-1.69565,8.61771 -2.51109,13.60842 -2.85217,13.5993c-0.56251,-0.01502 -0.6126,-5.10292 0.37716,-13.9269c0.12642,-1.18511 0.26307,-2.4801 0.14521,-3.63641c0.30266,-1.2208 0.43479,-2.48314 0.44101,-3.76721c0.52679,-0.08048 1.25355,-0.16881 2.07218,-0.18525c0.49793,0.31824 1.06535,0.59332 1.69775,0.87807c1.71932,0.76939 3.54494,1.36817 5.61021,2.00009c5.32614,1.62259 10.70996,2.8765 17.25157,4.30304v0c12.16273,2.64774 25.17296,5.0942 40.09299,7.50768c3.83725,0.62088 7.73866,1.22113 11.70525,1.7998c28.32419,4.13161 40.11258,-69.94268 40.11258,-69.94268c0,0 -4.77477,81.00751 -40.93847,74.86709z" data-paper-data="{&quot;index&quot;:null}" fill="#000000" stroke-width="9.375" stroke-linejoin="round"/><path d="M218.73138,270.21083c0.34828,-0.51628 10.43366,4.9944 25.85439,15.29711c15.64537,10.45266 35.87172,25.26602 57.29947,44.06972c3.25966,2.86097 6.43303,5.713 9.51977,8.55267c10.99685,10.11424 20.47375,19.49636 28.84956,28.50559v0c4.48861,4.82539 8.23348,9.04982 11.61517,13.52275c1.2973,1.71118 2.47337,3.36893 3.47091,5.16453c0.36379,0.64959 0.70511,1.3401 0.9759,2.09552c-0.32886,0.45773 -0.68378,1.08255 -1.18968,1.83589c-0.27792,-1.35541 -0.14258,-2.34611 0.01407,-3.01609c1.01218,-1.1324 2.14773,-2.09319 3.08381,-2.8925c7.11918,-6.11227 11.14594,-9.75162 11.45545,-9.47883c0.39882,0.35156 -2.98923,4.61755 -9.65401,11.33253c-0.87415,0.8858 -1.8738,1.86024 -2.62431,2.84196c-0.88359,0.57001 -1.78036,1.03021 -2.28767,1.35156c-0.46776,-0.16408 -1.10452,-0.45652 -1.77079,-0.88222c-0.2113,-0.50415 -0.51111,-1.01487 -0.85932,-1.57382c-0.96762,-1.54137 -2.12818,-2.99508 -3.46879,-4.60903c-3.50535,-4.20789 -7.26402,-8.12457 -11.89451,-12.8169v0c-8.64045,-8.7501 -18.06672,-17.75439 -29.13005,-27.80707c-3.0802,-2.7987 -6.23579,-5.6179 -9.47089,-8.45706c-21.37251,-18.75612 -40.85891,-33.68017 -56.01635,-44.91069c-14.80525,-10.96892 -24.18889,-17.50723 -23.77213,-18.12563z" data-paper-data="{&quot;index&quot;:null}" fill="#000000" stroke-width="9.375" stroke-linejoin="round"/><g><path d="M210.03562,140.52203c-19.44008,-3.52917 -48.8069,-25.01653 -43.20584,-56.26365c4.87261,-1.8654 18.24104,-1.38611 24.59277,5.62015c1.06821,-35.45304 31.63515,-71.47945 81.12712,-67.84824c2.50918,37.22408 40.19726,35.02619 54.0099,24.97279c6.37361,16.81224 -11.54745,48.28495 -31.83539,48.22352" data-paper-data="{&quot;index&quot;:null}" fill="#000000" stroke-width="9.375" stroke-linejoin="round"/><path d="M307.6852,112.09155c-0.74686,29.05445 -24.51262,52.18892 -53.57263,51.6614c-29.05929,-0.52787 -52.18857,-24.51258 -51.66104,-53.57227c0.52785,-29.05932 24.57437,-49.69778 53.57191,-51.6614c29.89607,-2.02436 52.42735,23.78621 51.66176,53.57227z" data-paper-data="{&quot;index&quot;:null}" fill="#f2f2f2" stroke-width="9.0943" stroke-linejoin="round"/><path d="M217.87066,74.71649c36.74374,-34.8863 88.61095,-15.38099 89.75623,37.29903c-0.56257,21.86738 -14.16456,40.37947 -33.24859,47.97609c-41.20057,11.71544 -86.66294,-31.26829 -56.50764,-85.27508z" data-paper-data="{&quot;index&quot;:null}" fill="#ffffff" stroke-width="9.09417" stroke-linejoin="round"/><path d="M296.91157,78.51394c-0.31475,0.19472 -3.54998,-6.41107 -13.55304,-12.56811v0c-4.19099,-2.58482 -9.60569,-4.86565 -16.14033,-5.92589c-5.29116,-0.85895 -11.19,-0.89785 -17.45497,0.18496c-5.55216,0.96135 -11.31805,2.80039 -16.94549,5.67882c-5.11865,2.62092 -10.12385,6.10914 -14.51925,10.5219c-4.09762,4.11428 -7.68581,9.06497 -10.21476,14.67715c-2.51162,5.56081 -3.96853,11.79592 -4.12784,18.23617c-0.18497,7.08714 1.20531,14.35581 3.80057,21.41934c2.58066,7.07049 7.62122,13.3379 13.91432,18.25457c0.28077,0.21934 0.56466,0.43555 0.85099,0.64898c6.51104,4.85908 14.03266,8.14566 21.6921,9.94928c8.57185,2.00456 17.30366,2.13365 25.35456,0.29117c8.79603,-2.00563 16.63212,-6.45133 22.45009,-12.35469v0c6.20839,-6.27124 10.10404,-14.16632 12.00242,-21.87086c2.16179,-8.7707 1.94036,-17.48031 0.59035,-24.98911c-1.68945,-9.3402 -5.05827,-16.88996 -8.79428,-22.63297c-3.91682,-6.00329 -7.98811,-9.68516 -11.06679,-11.96356c-3.0353,-2.24682 -4.90731,-3.12418 -4.82644,-3.31054c0.05486,-0.12425 2.11148,0.32067 5.47649,2.33427c3.36986,2.01604 7.93185,5.60871 12.26758,11.67378c4.15456,5.79507 7.98462,13.57769 10.01315,23.29999c1.64191,7.82877 2.08718,17.00725 -0.03678,26.44046c-1.87545,8.32542 -5.95087,16.91045 -12.66564,23.90283v0c-6.31667,6.54922 -14.80037,11.49955 -24.41334,13.7651c-8.75194,2.05661 -18.1713,1.99035 -27.3848,-0.14506c-8.23174,-1.89663 -16.32946,-5.42719 -23.40968,-10.69959c-0.31095,-0.23182 -0.61948,-0.46642 -0.92558,-0.70416c-6.89453,-5.33418 -12.41784,-12.30748 -15.36674,-20.3216c-2.75593,-7.53482 -4.19135,-15.37995 -3.9536,-23.11398c0.22454,-7.04028 1.87965,-13.82548 4.68833,-19.88292c2.83508,-6.09874 6.77828,-11.40342 11.25663,-15.76585c4.79694,-4.67305 10.19603,-8.30526 15.68777,-10.98452c6.03278,-2.94438 12.18462,-4.75528 18.08138,-5.62743c6.65402,-0.98597 12.90475,-0.75415 18.4732,0.33907c6.88553,1.35178 12.51156,4.0147 16.77302,6.95076v0c10.53543,7.2697 12.12112,14.48142 12.42653,14.29229z" data-paper-data="{&quot;index&quot;:null}" fill="#000000" stroke-width="9.375" stroke-linejoin="round"/><path d="M264.72522,97.43141c1.36807,0.02461 2.42414,3.00961 2.35787,6.66303c-0.0663,3.65309 -1.23031,6.5978 -2.59838,6.57282c-1.36738,-0.02461 -2.42346,-3.00961 -2.35719,-6.66303c0.0663,-3.65309 1.22996,-6.5978 2.5977,-6.57283z" data-paper-data="{&quot;index&quot;:null}" fill="#000000" stroke-width="9.375" stroke-linejoin="round"/><path d="M291.07609,103.58521c0.0663,-3.65342 1.23031,-6.59812 2.59769,-6.57315c1.36807,0.02497 2.42451,3.00997 2.35788,6.66303c-0.06627,3.65306 -1.22996,6.59779 -2.59803,6.57314c-1.36738,-0.02497 -2.42379,-3.00997 -2.35752,-6.66303z" data-paper-data="{&quot;index&quot;:null}" fill="#000000" stroke-width="9.375" stroke-linejoin="round"/><path d="M261.45428,138.09405c-3.22066,0.63789 -5.17559,1.4 -5.35987,1.03039c-0.14611,-0.29221 1.51937,-1.69537 4.84553,-2.87915c3.38062,-1.20323 8.11509,-2.00455 13.58394,-1.24209c0.0531,0.00692 0.10653,0.01421 0.15963,0.02185c5.54101,0.784 9.87673,2.97911 12.74512,5.21897c2.81876,2.20168 3.89809,4.13027 3.66314,4.35134c-0.27417,0.25856 -1.87825,-1.12999 -4.73759,-2.75697c-2.96314,-1.68632 -6.95668,-3.36778 -12.05832,-4.11187c-0.04894,-0.00692 -0.09752,-0.01421 -0.1461,-0.02081c-5.06486,-0.69792 -9.3683,-0.27105 -12.69549,0.38834z" data-paper-data="{&quot;index&quot;:null}" fill="#000000" stroke-width="9.375" stroke-linejoin="round"/><path d="M262.7272,96.77128c-5.06659,-1.9761 -8.93934,-4.29163 -8.60235,-5.29773c0.36477,-1.08002 4.89238,-0.43485 10.05305,1.57215c5.11485,1.99347 8.91681,4.45755 8.5472,5.45288c-0.40015,1.06996 -4.88613,0.26272 -9.99786,-1.72727z" data-paper-data="{&quot;index&quot;:null}" fill="#000000" stroke-width="2.56181" stroke-linejoin="miter"/><path d="M304.56709,91.61814c0.30021,1.01757 -3.65375,3.19117 -8.78908,4.98194c-5.18079,1.8033 -9.6928,2.44707 -10.05373,1.36322c-0.33316,-1.00818 3.55518,-3.33272 8.73945,-5.13914c5.2297,-1.81819 9.77817,-2.29885 10.10335,-1.20599z" data-paper-data="{&quot;index&quot;:null}" fill="#000000" stroke-width="2.56181" stroke-linejoin="miter"/></g></g></g></svg>