<svg xmlns="http://www.w3.org/2000/svg" xmlns:xlink="http://www.w3.org/1999/xlink" version="1.1" width="161.41194" height="271.56519" viewBox="0,0,161.41194,271.56519"><g><g data-paper-data="{&quot;isPaintingLayer&quot;:true}" fill-rule="nonzero" stroke-linejoin="miter" stroke-miterlimit="10" stroke-dasharray="" stroke-dashoffset="0" style="mix-blend-mode: normal"><g stroke-linecap="butt"><g data-paper-data="{&quot;index&quot;:null}"><path d="M 100.4959 143.3501 C 96.7759 144.2354 96.1908 146.4067 95.1934 144.8773 C 94.2468 143.4255 96.4582 143.2349 98.5144 140.3886 C 101.3057 136.5247 105.0272 129.6326 111.4972 125.4134 C 122.7333 118.0864 133.6512 114.9211 135.883 118.3435 C 138.1148 121.766 130.8153 130.4802 119.5791 137.8072 C 113.3644 141.8599 105.0999 142.2542 100.4958 143.35 Z " fill="#000000" stroke-width="3.5" stroke="#000000"/><path d="M 123.3778 125.5111 C 121.5139 121.5381 123.0015 116.9105 126.7004 115.1751 C 127.79 114.664 129.7706 111.0491 130.9124 111.1183 C 133.6472 111.284 135.458 116.4239 136.7729 119.2266 C 138.6369 123.1996 137.1493 127.8271 133.4504 129.5626 C 129.7514 131.298 125.2418 129.484 123.3778 125.5112 Z " fill="#ffc885" stroke-width="3.5" stroke="#000000"/></g><g data-paper-data="{&quot;index&quot;:null}"><path d="M 133.3391 100.9563 L 158.8164 80.4801 L 152.4703 114.2135 L 148.2488 104.9988 L 135.7664 121.3944 L 130.5758 117.9914 L 143.2799 101.83 Z " fill="#ff0000" stroke="#900000" stroke-width="3.5"/><path d="M 154.7889 86.7647 C 154.5246 87.7119 154.3719 90.1785 152.7332 90.2167 C 152.5665 90.2206 152.4088 90.206 152.2597 90.1747 C 152.4575 91.4329 151.5979 92.6133 150.3396 92.8113 C 149.0813 93.0092 147.9007 92.1497 147.7028 90.8913 C 147.5048 89.633 148.3644 88.4524 149.6228 88.2545 C 149.9172 88.2081 150.2073 88.2197 150.4815 88.2807 C 149.6589 85.9666 150.1053 82.3158 150.9998 81.5995 C 151.2905 80.8656 151.9507 80.3001 152.7869 80.1686 C 154.0452 79.9706 155.2258 80.8302 155.4237 82.0885 C 155.4656 82.3546 155.4602 82.6172 155.4137 82.8677 C 155.56 83.9374 155.2175 85.2282 154.7889 86.7647 Z " fill="#000000" stroke="none" stroke-width="3.5"/><path d="M 160.0609 99.5871 C 159.453 100.422 158.2721 100.4986 156.9947 100.1645 C 156.8517 101.1369 156.0927 101.9459 155.0706 102.1067 C 153.8123 102.3046 152.6317 101.445 152.4338 100.1867 C 152.3175 99.4476 152.5661 98.7354 153.046 98.2333 C 152.5003 97.8911 152.1001 97.3234 151.9921 96.6372 C 151.7942 95.3788 152.6538 94.1983 153.9121 94.0003 C 154.3767 93.9273 154.8307 93.9983 155.2285 94.1804 C 157.7573 94.861 161.7257 97.3007 160.0609 99.5871 Z " fill="#000000" stroke="none" stroke-width="3.5"/><path d="M 142.7807 98.3468 C 142.7801 98.3455 142.7795 98.3442 142.7788 98.3429 C 142.0492 98.0504 141.4875 97.3922 141.3565 96.5593 C 141.1586 95.3009 142.0181 94.1204 143.2765 93.9224 C 143.3335 93.9134 143.3905 93.9066 143.4472 93.9019 C 151.5275 93.011 145.9883 104.9334 142.7808 98.3468 Z " fill="#000000" stroke="none" stroke-width="3.5"/></g></g><path d="M 70.8534 149.25 C 70.8534 156.4654 59.322 162.3147 45.0973 162.3147 C 38.718 162.3147 37.173 161.1382 32.6743 159.1898 C 27.1416 156.7935 19.3411 153.2295 19.3411 149.25 C 19.3411 146.4044 25.4273 143.7713 28.4722 141.6256 C 33.1481 138.3307 36.4824 136.1853 45.0973 136.1853 C 59.322 136.1853 70.8534 142.0345 70.8534 149.2499 Z " fill="#2e2e2e" stroke="#000000" stroke-linecap="butt" stroke-width="3.5"/><g stroke-linecap="butt"><path d="M 108.6655 176.8367 C 108.6655 206.3454 101.6417 230.2669 77.4294 230.2669 C 53.2171 230.2669 44.0012 205.2494 44.0012 175.7407 C 44.0012 146.232 53.2171 123.4065 77.4294 123.4065 C 101.6416 123.4065 108.6655 147.328 108.6655 176.8367 Z " fill="#000000" stroke-width="3.5" stroke="#000000"/><path d="M 107.5695 205.3329 C 107.5695 208.8134 94.0673 211.6349 76.0594 211.6349 C 58.0515 211.6349 45.6452 208.8134 45.6452 205.3329 C 45.6452 204.4593 43.6868 203.6272 45.1424 202.8708 C 49.4859 200.6137 62.5714 199.0308 76.0594 199.0308 C 85.8933 199.0308 98.2196 199.8723 103.9011 201.2029 C 108.6236 202.309 107.5695 203.753 107.5695 205.3329 Z " fill="#9c9c9c" stroke-width="3.5" stroke="#000000"/><path d="M 110.3008 182.3167 C 110.3008 185.7973 95.6253 188.6188 76.0526 188.6188 C 56.48 188.6188 42.9957 185.7973 42.9957 182.3167 C 42.9957 181.4431 40.8671 180.6111 42.4491 179.8547 C 47.1701 177.5976 61.3926 176.0147 76.0526 176.0147 C 86.7411 176.0147 100.1385 176.8561 106.3137 178.1868 C 111.4465 179.2928 110.3008 180.7369 110.3008 182.3167 Z " fill="#9c9c9c" stroke-width="3.5" stroke="#000000"/><path d="M 109.7546 157.6566 C 109.7546 161.1372 95.3137 163.9587 76.054 163.9587 C 56.7943 163.9587 43.5256 161.1372 43.5256 157.6566 C 43.5256 156.783 41.431 155.951 42.9878 155.1946 C 47.6333 152.9375 61.6284 151.3546 76.054 151.3546 C 86.5715 151.3546 99.7547 152.196 105.8312 153.5267 C 110.8819 154.6327 109.7546 156.0768 109.7546 157.6566 Z " fill="#9c9c9c" stroke-width="3.5" stroke="#000000"/></g><path d="M 142.3934 74.728 C 142.3934 112.9619 110.9093 143.9566 72.0717 143.9566 C 33.2341 143.9566 1.75 112.9619 1.75 74.728 C 1.75 36.4941 33.2341 5.4994 72.0717 5.4994 C 110.9093 5.4994 142.3934 36.4941 142.3934 74.728 Z " fill="#ffc885" stroke="#000000" stroke-linecap="butt" stroke-width="3.5"/><path d="M 143.1897 33.8081 C 143.1897 44.0582 142.1248 46.2382 126.0372 45.0176 C 121.7779 44.6945 114.7487 47.2064 107.4205 46.4052 C 105.9993 46.2498 104.5669 41.2992 103.1413 41.4288 C 100.0075 41.7139 96.9066 47.3009 94.0297 46.3469 C 91.8765 45.6328 89.8488 41.298 88.0269 41.1478 C 83.8618 40.8044 79.0465 51.5736 74.7185 51.612 C 74.2532 51.6161 55.6958 42.77 55.2353 42.8502 C 31.7415 46.9379 11.1312 90.9148 5.1183 90.7422 C 1.4581 90.6371 8.3811 50.3717 8.3811 43.6722 C 8.3811 37.9663 11.4175 36.3734 15.79 31.9119 C 16.9937 30.6836 15.5909 26.1434 17.528 24.9819 C 18.2469 24.5508 22.1379 25.0088 23.4474 23.492 C 24.4797 22.2964 22.9572 19.0813 23.5444 18.6796 C 25.8884 17.0759 30.0835 17.1264 32.7766 15.5519 C 43.8598 9.072 56.185 1.75 72.7714 1.75 C 111.6624 1.75 143.1897 16.1029 143.1897 33.8081 Z " fill="#000000" stroke="#000000" stroke-linecap="butt" stroke-width="3.5"/><path d="M 74.7446 58.6244 L 83.4574 62.5782 L 81.8134 83.9503 " fill="none" stroke="#000000" stroke-linecap="round" stroke-width="3.5"/><path d="M 98.2535 82.8543 L 99.3495 62.5782 L 108.6134 58.1189 " fill="none" stroke="#000000" stroke-linecap="round" stroke-width="3.5"/><path d="M 54.9613 104.2264 L 44.5492 103.6784 L 53.3173 96.0064 L 44.5492 96.0064 " fill="none" stroke="#000000" stroke-linecap="round" stroke-width="3.5"/><path d="M 119.6256 102.0344 L 107.5695 102.0344 L 117.4336 92.7184 L 108.6655 92.7184 " fill="none" stroke="#000000" stroke-linecap="round" stroke-width="3.5"/><path d="M 73.0454 123.4065 C 73.0454 122.1959 74.0267 121.2145 75.2374 121.2145 C 76.448 121.2145 77.4294 122.1959 77.4294 123.4065 C 77.4294 124.6171 76.448 125.5985 75.2374 125.5985 C 74.0268 125.5985 73.0454 124.6171 73.0454 123.4065 Z " fill="#000000" stroke="none" stroke-linecap="butt" stroke-width="3.5"/><g stroke-linecap="butt"><path d="M 50.5058 172.2851 C 48.6448 185.5695 43.8561 195.879 39.8098 195.3122 C 35.7635 194.7454 33.9919 183.5168 35.8528 170.2325 C 36.9243 162.5831 41.5832 156.2866 43.8956 152.1185 C 45.599 149.0481 44.8324 146.965 46.5487 147.2054 C 48.357 147.4587 46.6398 148.9107 47.4183 152.6545 C 48.3818 157.2881 51.535 164.9376 50.5057 172.2851 Z " fill="#000000" stroke-width="3.5" stroke="#000000"/><path d="M 48.9333 188.3448 C 48.9333 192.4306 45.3757 195.7428 40.9872 195.7428 C 37.8914 195.7428 32.4691 196.2865 31.1575 193.881 C 30.6099 192.8767 33.0412 189.5483 33.0412 188.3448 C 33.0412 184.2589 36.5988 180.9467 40.9872 180.9467 C 45.3757 180.9467 48.9332 184.2589 48.9332 188.3448 Z " fill="#ffc885" stroke-width="3.5" stroke="#000000"/></g><path d="M 102.6375 223.4169 C 102.6375 227.5028 91.1061 230.815 76.8814 230.815 C 62.6567 230.815 52.4558 232.0266 52.4558 227.9408 C 52.4558 226.0582 49.6101 217.8956 53.6419 216.5898 C 58.3603 215.0617 69.211 216.0189 76.8814 216.0189 C 85.2696 216.0189 96.1808 214.4545 100.8836 216.2374 C 104.1558 217.478 102.6375 221.7405 102.6375 223.4169 Z " fill="#0035ff" stroke="#000000" stroke-linecap="butt" stroke-width="3.5"/><path d="M 61.5373 212.7309 C 61.5373 212.7309 64.7497 208.3655 64.4089 205.9795 C 64.0243 203.2878 59.3453 197.3868 59.3453 197.3868 L 92.2254 196.8388 C 92.2254 196.8388 88.3894 200.9962 88.3894 203.4149 C 88.3894 205.9248 92.2254 211.6349 92.2254 211.6349 Z " fill="#737373" stroke="#000000" stroke-linecap="round" stroke-width="3.5"/><g stroke-linecap="butt"><path d="M 61.5373 246.3081 C 61.5373 257.2859 59.2065 266.1852 56.3313 266.1852 C 53.4561 266.1852 51.1253 257.2859 51.1253 246.3081 C 51.1253 235.3302 50.2628 224.5682 53.138 224.5682 C 54.1868 224.5682 61.2836 224.1556 62.1008 226.1927 C 63.524 229.7403 61.5373 239.3345 61.5373 246.3081 Z " fill="#0035ff" stroke-width="3.5" stroke="#000000"/><path d="M 77.916 262.3514 C 77.916 266.1346 71.4143 269.2014 63.3939 269.2014 C 55.3736 269.2014 48.8719 266.1346 48.8719 262.3514 C 48.8719 258.5682 55.3736 255.5014 63.3939 255.5014 C 71.4143 255.5014 77.916 258.5682 77.916 262.3514 Z " fill="#000000" stroke-width="3.5" stroke="#000000"/></g><g stroke-linecap="butt"><path d="M 98.3631 246.9219 C 98.3631 257.8997 96.0323 266.799 93.1571 266.799 C 90.2818 266.799 87.951 257.8997 87.951 246.9219 C 87.951 239.2049 86.1756 229.854 87.8586 226.5606 C 88.5698 225.1689 92.5691 225.9803 93.4232 225.9803 C 94.1456 225.9803 98.2931 225.7438 98.9184 226.7593 C 100.7819 229.7854 98.3631 238.7024 98.3631 246.9219 Z " fill="#0035ff" stroke-width="3.5" stroke="#000000"/><path d="M 114.7418 262.9652 C 114.7418 266.7483 108.24 269.8152 100.2197 269.8152 C 92.1994 269.8152 85.6976 266.7483 85.6976 262.9652 C 85.6976 259.182 92.1994 256.1151 100.2197 256.1151 C 108.24 256.1151 114.7418 259.182 114.7418 262.9652 Z " fill="#000000" stroke-width="3.5" stroke="#000000"/></g><path d="M 53.8347 229.0648 C 53.8347 229.0648 52.9109 227.7092 52.9109 226.7943 C 52.9109 225.1072 52.9109 219.597 52.9109 219.597 L 102.3633 219.2891 C 102.3633 219.2891 98.6682 224.4914 98.6682 226.1785 C 98.6682 227.0933 96.6667 228.7569 96.6667 228.7569 Z " fill="#0035ff" stroke="none" stroke-linecap="butt" stroke-width="3.5"/></g></g></svg>