<svg xmlns="http://www.w3.org/2000/svg" xmlns:xlink="http://www.w3.org/1999/xlink" version="1.1" width="197.715" height="382.60724" viewBox="0,0,197.715,382.60724"><g><g data-paper-data="{&quot;isPaintingLayer&quot;:true}" fill-rule="nonzero" stroke-linejoin="miter" stroke-miterlimit="10" stroke-dasharray="" stroke-dashoffset="0" style="mix-blend-mode: normal"><path d="M 97.1039 240.3917 C 97.1039 240.3917 68.1252 244.0537 68.4782 239.9533 C 61.2427 231.7954 56.8486 196.2985 56.8486 196.2985 " data-paper-data="{&quot;index&quot;:null}" fill="none" stroke="#000000" stroke-linecap="round" stroke-width="4"/><path d="M 53.8815 292.7176 C 53.8815 292.7176 62.3193 291.8874 75.8067 306.3904 C 90.4826 322.1715 67.5764 345.1414 69.0608 345.7999 C 73.6037 347.8169 77.7994 352.9059 77.7994 352.9059 " data-paper-data="{&quot;origRot&quot;:0,&quot;index&quot;:null}" fill="none" stroke="#000000" stroke-linecap="round" stroke-width="4"/><path d="M 31.7488 368.6281 C 31.7488 368.6281 22.9511 370.2752 21.7899 365.4422 C 21.4929 364.2075 28.0265 347.4367 31.4605 329.2719 C 35.4492 308.1723 39.8679 285.8159 39.8679 285.8159 " data-paper-data="{&quot;origRot&quot;:0,&quot;index&quot;:null}" fill="none" stroke="#000000" stroke-linecap="round" stroke-width="4"/><path d="M 46.5464 364.4891 C 49.4923 366.82 51.2369 369.8794 51.0767 373.1382 C 50.9165 376.3968 48.747 379.8841 45.7272 381.147 C 40.2144 383.0063 35.8781 383.6626 21.8963 379.6029 C 19.0432 377.6605 17.2062 374.2043 17.3661 370.9539 C 17.5259 367.7036 19.5599 364.8805 22.7155 362.945 C 25.8713 361.0095 30.15 359.9631 34.8008 360.2643 C 39.4516 360.5657 43.6005 362.1583 46.5464 364.4891 Z " data-paper-data="{&quot;origRot&quot;:0,&quot;index&quot;:null}" fill="#000000" stroke="none" stroke-linecap="round" stroke-width="4"/><path d="M 91.6164 353.1937 C 92.2667 356.8439 91.5416 360.2192 89.2676 362.4679 C 86.9936 364.7164 83.0738 365.7898 79.9921 364.6881 C 74.6615 362.3543 71.0016 359.9358 63.2843 347.6736 C 62.4461 344.3662 63.365 340.6424 65.6332 338.3995 C 67.9013 336.1567 71.2813 335.473 74.9087 336.1792 C 78.5362 336.8855 82.4113 338.9836 85.672 342.304 C 88.9326 345.6245 90.9661 349.5435 91.6164 353.1937 Z " data-paper-data="{&quot;origRot&quot;:0,&quot;index&quot;:null}" fill="#000000" stroke="none" stroke-linecap="round" stroke-width="4"/><path d="M 75.7934 176.1392 C 84.6072 177.9611 91.4853 186.506 95.4763 198.8378 C 99.4686 211.1715 100.574 227.2913 97.8436 244.2629 C 95.1148 261.2355 89.0603 275.8755 81.4841 285.8182 C 73.9099 295.7587 64.814 301.0011 56.0001 299.1792 C 47.1861 297.3574 40.308 288.8132 36.317 276.4814 C 32.3239 264.1475 31.2193 248.028 33.9488 231.0563 C 34.9882 224.5958 35.8153 220.9895 37.7839 214.7464 C 40.9933 204.5691 48.8846 192.1558 49.5927 191.2087 C 49.8287 190.893 50.0703 189.8146 50.3092 189.5011 C 57.8834 179.5605 66.9793 174.3173 75.7933 176.1391 Z " data-paper-data="{&quot;origRot&quot;:0,&quot;index&quot;:null}" fill="#080064" stroke="#000000" stroke-linecap="butt" stroke-width="4"/><g data-paper-data="{&quot;origRot&quot;:0}" stroke-linecap="round"><path d="M 107.1869 177.6011 L 76.8251 233.6478 L 70.008 170.324 Z " fill="#ffffff" stroke-width="4" stroke="#000000"/><path d="M 73.4742 243.0231 L 82.175 191.8265 L 78.2096 178.2947 L 90.4908 179.76 L 84.932 192.1554 L 82.9011 240.7411 L 76.8223 255.3456 Z " fill="#ac0000" stroke-width="4" stroke="#000000"/><path d="M 85.8676 189.747 L 100.1989 181.1874 L 96.7303 199.2239 Z " fill="#ffffff" stroke-width="4" stroke="#000000"/><path d="M 70.0236 196.7744 L 72.7084 180.5627 L 82.8266 190.121 Z " fill="#ffffff" stroke-width="4" stroke="#000000"/></g><path d="M 145.5491 84.0654 C 156.9626 98.7016 162.5093 116.897 159.4743 135.1685 C 156.44 153.4393 145.3927 168.3578 129.9957 177.7027 C 114.599 187.0444 94.8544 190.8118 74.4252 186.7794 C 53.9962 182.7462 36.7168 171.672 25.3033 157.0366 C 13.89 142.3996 8.343 124.205 11.3773 105.9343 C 14.4124 87.6636 25.4598 72.7434 40.8567 63.4002 C 56.2534 54.0569 75.9973 50.2902 96.4273 54.3227 C 116.8554 58.3558 134.1356 69.4309 145.5492 84.0654 Z " data-paper-data="{&quot;origRot&quot;:0,&quot;index&quot;:null}" fill="#ffa200" stroke="#000000" stroke-linecap="butt" stroke-width="4"/><path d="M 62.0606 168.2551 C 62.0606 168.2551 68.0669 168.3058 70.8493 169.2702 C 73.4808 170.1824 74.4051 173.4898 74.4051 173.4898 " fill="none" stroke="#000000" stroke-linecap="round" stroke-width="4"/><g><path d="M 123.304 90.3869 C 126.5211 90.7147 129.7149 97.661 130.713 102.3009 C 132.7855 111.9118 132.46 121.7562 131.5258 131.1214 C 131.1087 139.6994 129.8741 148.2781 126.6897 155.7242 C 124.8536 160.0124 120.8297 166.2859 117.6126 165.958 C 114.3955 165.6301 111.7994 161.0988 110.2036 154.0439 C 108.6088 146.988 108.0133 137.4085 108.7984 126.9839 C 109.5835 116.5595 111.6018 107.2464 114.227 100.6205 C 116.8529 93.9961 120.0868 90.0589 123.304 90.3869 Z " data-paper-data="{&quot;origRot&quot;:0,&quot;index&quot;:null}" fill="#000000" stroke="none" stroke-linecap="butt" stroke-width="4"/><path d="M 89.5358 87.5675 C 92.7529 87.8954 95.9467 94.8416 96.9448 99.4815 C 99.0173 109.0924 98.6918 118.9368 97.7576 128.302 C 97.3404 136.88 96.1059 145.4587 92.9214 152.9049 C 91.0854 157.193 87.0615 163.4665 83.8444 163.1386 C 80.6273 162.8107 78.0312 158.2794 76.4354 151.2246 C 74.8406 144.1687 74.2451 134.5891 75.0302 124.1646 C 75.8153 113.7401 77.8336 104.427 80.4588 97.8011 C 83.0847 91.1767 86.3186 87.2395 89.5358 87.5675 Z " data-paper-data="{&quot;origRot&quot;:0,&quot;index&quot;:null}" fill="#000000" stroke="none" stroke-linecap="butt" stroke-width="4"/><path d="M 73.8918 96.8796 L 75.341 80.1654 L 134.061 87.348 L 132.6118 104.0623 C 132.6118 104.0623 117.9202 108.2427 109.8292 107.253 C 99.1009 105.9407 73.8918 96.8796 73.8918 96.8796 Z " fill="#ffa200" stroke="none" stroke-linecap="butt" stroke-width="4"/><path d="M 78.4155 96.8297 L 101.4302 108.6166 " fill="none" stroke="#000000" stroke-linecap="round" stroke-width="4"/><path d="M 108.0408 109.4252 L 132.595 103.457 " data-paper-data="{&quot;index&quot;:null}" fill="none" stroke="#000000" stroke-linecap="round" stroke-width="4"/><path d="M 70.1042 163.4185 L 71.2504 150.1993 L 129.9704 157.3819 L 128.8242 170.6012 C 128.8242 170.6012 114.2398 173.5447 106.1489 172.5551 C 95.4205 171.2428 70.1042 163.4185 70.1042 163.4185 Z " fill="#ffa200" stroke="none" stroke-linecap="butt" stroke-width="4"/><path d="M 71.6024 148.1485 L 96.1145 151.1468 " fill="none" stroke="#000000" stroke-linecap="round" stroke-width="4"/><path d="M 130.4314 155.3444 L 104.9388 152.2262 " fill="none" stroke="#000000" stroke-linecap="round" stroke-width="4"/></g><path d="M 9.5909 109.7191 C 7.1711 106.6071 2.3092 105.59 2 102.5732 C 1.0044 92.8452 4.8051 83.5219 6.2057 74.0097 C 6.6369 71.0834 4.9348 66.8462 7.4997 65.2216 C 15.4194 60.2061 24.8673 55.8417 34.7996 55.9013 C 38.2348 55.9217 37.9856 62.3806 37.1051 65.3979 C 36.1332 68.7301 33.2877 71.829 29.8116 73.0055 C 26.8638 74.0031 22.9821 72.8469 20.2128 71.1157 C 17.277 69.2799 15.2697 66.1328 13.9841 63.107 C 12.7359 60.1666 12.8467 56.92 12.8785 53.8456 C 12.9105 50.8646 12.8423 47.6801 14.1724 45.0574 C 16.4056 40.6598 20.1989 37.1601 23.313 33.2918 C 26.7396 29.0358 30.2542 24.8219 33.8149 20.6641 C 37.7032 16.123 41.2718 11.2787 45.6782 7.1737 C 47.9963 5.0131 50.4563 2.1715 53.8474 2 C 60.2416 1.6735 66.6524 4.5205 73.0449 5.7796 C 76.2417 6.4088 80.0333 5.7271 82.6437 7.6694 C 85.4503 9.7566 86.3885 13.4228 87.511 16.5402 C 89.0384 20.7814 90.4244 25.1961 90.5311 29.5697 C 90.6046 32.582 89.6365 35.6188 88.0376 38.1219 C 86.3302 40.7928 84.0764 43.5579 80.9056 44.6305 C 77.9357 45.6363 73.421 46.1502 71.1452 43.8396 C 68.8694 41.5284 69.6713 37.3369 71.2394 34.8144 C 76.377 26.5508 83.2136 19.2278 90.5578 12.6182 C 93.3369 10.1164 97.2501 8.6627 101.1273 7.9168 C 104.2526 7.3156 107.6975 7.9015 110.8877 8.7077 C 114.5351 9.6295 118.1453 11.0759 121.3622 13.0306 C 124.6548 15.0314 127.182 18.0022 130.1536 20.4136 C 132.6921 22.4745 136.7821 23.5578 137.9044 26.4613 C 139.7369 31.1982 138.4094 36.328 138.2017 41.2157 C 138.0766 44.189 138.8904 47.7933 136.9078 50.0039 C 134.9089 52.232 131.0309 52.3028 127.8622 52.7452 C 124.2377 53.2496 116.6877 54.8609 116.7405 52.8164 C 116.816 49.8004 123.1683 44.4496 128.118 42.6211 C 135.021 40.0715 143.0471 40.1265 150.6857 40.2817 C 153.9308 40.3482 157.2587 41.6408 160.1228 43.2705 C 163.4729 45.1766 166.0586 48.121 168.9126 50.6533 C 171.515 52.9621 174.7732 54.8922 176.5026 57.7992 C 178.2195 60.6867 179.6885 64.2787 178.8079 67.2966 C 177.836 70.6288 174.7208 73.2418 171.5153 74.9043 C 168.6118 76.4108 164.789 75.8424 161.4307 76.3105 C 158.0733 76.7787 154.789 77.8649 151.3471 77.7159 C 147.3164 77.5413 139.2925 77.5813 139.3481 75.3538 C 139.4193 72.5192 146.9613 69.2826 151.6029 67.5925 C 154.6093 66.4979 158.2017 66.9554 161.525 67.2852 C 165.9577 67.7254 170.3282 69.0181 174.7238 69.8834 C 177.9197 70.5133 182.0507 69.4905 184.3219 71.7731 C 187.4961 74.9643 186.889 79.9918 188.7041 83.9406 C 190.3279 87.471 193.304 90.5229 194.6094 94.1464 C 195.6852 97.1341 195.7469 100.3326 195.7151 103.407 C 195.6832 106.3888 196.0974 109.7668 194.4211 112.1961 C 192.1945 115.4242 188.0374 117.0504 184.7282 119.3307 C 182.0855 121.1514 179.728 123.5442 176.5583 124.5052 C 173.4775 125.4378 169.931 125.4609 166.6363 124.8124 C 163.3407 124.1638 160.0002 122.785 157.3608 120.7247 C 154.6448 118.6061 153.0959 115.4499 151.1321 112.7168 C 148.9984 109.7466 147.1989 106.5793 145.0651 103.609 C 143.1015 100.8759 141.0103 98.2023 138.8364 95.6003 C 136.1134 92.3411 133.6188 88.8411 130.3699 86.0204 C 126.2692 82.461 121.1663 80.025 116.9427 76.5942 C 113.7933 74.0385 111.5988 70.5128 108.3138 68.1131 C 104.469 65.3043 100.1242 63.1011 95.7624 61.1209 C 92.7586 59.7572 89.5686 58.5816 86.3253 58.1321 C 83.009 57.6724 79.6005 57.824 76.4032 58.4394 C 72.7463 59.1424 69.4331 60.784 65.9954 62.0427 C 60.7407 63.9662 55.3289 65.652 50.3037 67.9966 C 47.347 69.3753 44.7967 71.3763 42.1338 73.1703 C 36.5799 76.9117 30.9565 80.6093 25.6332 84.6173 C 22.6241 86.8825 19.5687 89.1864 17.14 91.988 C 15.0649 94.3839 13.5203 97.1989 12.246 100.0687 C 11.0437 102.7761 10.5829 105.7726 9.7525 108.62 C 9.5447 109.3331 10.398 109.1238 9.7525 108.62 Z " data-paper-data="{&quot;origRot&quot;:0,&quot;index&quot;:null}" fill="#000000" stroke="#000000" stroke-linecap="round" stroke-width="4"/><path d="M 77.0765 251.9576 C 77.0765 251.9576 48.4367 232.1926 48.3415 218.4754 C 48.2489 205.1335 56.6374 186.2674 56.6374 186.2674 " data-paper-data="{&quot;index&quot;:null}" fill="none" stroke="#000000" stroke-linecap="round" stroke-width="4"/></g></g></svg>