<svg xmlns="http://www.w3.org/2000/svg" xmlns:xlink="http://www.w3.org/1999/xlink" version="1.1" width="419.22568" height="250.62964" viewBox="0,0,419.22568,250.62964"><defs><linearGradient x1="95.21343" y1="76.12399" x2="339.46891" y2="76.12399" gradientUnits="userSpaceOnUse" id="color-1"><stop offset="0" stop-color="#ff0000"/><stop offset="1" stop-color="#ff9400"/></linearGradient><linearGradient x1="61.7563" y1="21.0646" x2="306.0118" y2="21.0646" gradientUnits="userSpaceOnUse" id="color-1-,0,0,1,-33.45711,-55.05944"><stop offset="0" stop-color="#ff0000"/><stop offset="1" stop-color="#ff9400"/></linearGradient></defs><g><g data-paper-data="{&quot;isPaintingLayer&quot;:true}" fill-rule="nonzero" stroke-linejoin="miter" stroke-miterlimit="10" stroke-dasharray="" stroke-dashoffset="0" style="mix-blend-mode: normal"><path d="M 107.8 21.0682 C 144.5272 21.4066 221.4406 43.5806 269.8818 70.9595 C 290.2218 82.4768 306.0118 107.5989 306.0118 131.0515 C 306.0118 154.5042 292.1983 175.7556 269.8818 191.1435 C 247.5643 206.5316 212.999 214.5688 182.7337 216.057 C 145.0614 217.9288 78.7136 223.0976 66.7074 201.5538 C 58.1673 183.2135 141.3922 165.8627 141.6411 136.2888 C 141.6975 110.1603 58.2174 107.6062 61.873 91.1675 C 66.0491 73.6112 147.5116 90.1627 161.7846 69.4126 C 171.6122 54.9149 92.0293 20.6556 107.8 21.0682 Z " fill="url(#color-1-,0,0,1,-33.45711,-55.05944)" stroke="none" stroke-width="0.53122" stroke-linecap="round"/><g><path d="M 4.4981 9.0516 L 49.6915 9.0516 L 49.6915 246.1315 L 4.4981 246.1315 Z " stroke-width="8.99625" stroke-linecap="butt" fill="#302b57" stroke="#000000"/><path d="M 49.0176 29.6033 L 80.2227 29.6033 L 80.2227 221.1162 L 49.0176 221.1162 Z " stroke-width="6.82674" stroke-linecap="round" fill="#302b57" stroke="#000000"/></g><path d="M 214.8903 3.8199 C 255.8285 8.6406 298.0135 17.9642 333.6711 38.6316 C 363.545 55.9557 382.6642 89.7486 406.0928 116.2239 C 411.946 122.821 415.8605 125.4132 415.3633 131.2883 C 415.4097 138.4833 410.45 145.3863 404.934 149.8293 C 390.2323 161.6641 373.5699 169.3342 358.0025 178.7414 C 299.4238 208.8054 265.2612 227.9453 222.4804 233.0892 C 174.2243 238.6028 105.6973 259.4938 77.1084 220.5742 C 38.0522 167.4094 64.4324 88.5006 68.4174 22.6505 C 69.4152 6.1873 79.0297 9.6893 89.2759 7.9336 C 130.8747 3.025 173.47 -1.0586 214.8903 3.8199 Z " fill="#302b57" stroke="#000000" stroke-width="7.63989" stroke-linecap="round"/><g stroke-linecap="round"><path d="M 275.3939 60.224 C 287.6002 63.7789 298.258 69.9251 308.9683 76.0238 C 318.3939 81.3956 331.0959 85.0691 335.6304 94.7859 C 338.1742 100.703 329.983 106.8174 324.4372 110.1867 C 314.9446 115.8964 305.0708 120.4606 292.6749 120.4606 C 280.279 120.4606 269.0463 116.5323 260.9124 110.1867 C 252.7785 103.8402 247.7443 95.0762 247.7443 85.4049 C 247.7443 75.7334 253.8262 66.772 260.9124 60.623 C 265.3383 56.8378 271.1882 58.5196 275.3939 60.2241 Z " fill="#900909" stroke="#000000" stroke-width="6.5104"/><path d="M 291.3934 63.66 C 302.1217 66.7846 311.4891 72.1865 320.9025 77.5468 C 329.1867 82.2682 340.3507 85.4968 344.3362 94.0372 C 346.5719 99.2377 339.3727 104.6118 334.4983 107.5731 C 326.1551 112.5914 317.4769 116.603 306.5818 116.603 C 295.6869 116.603 285.8144 113.1503 278.6655 107.5731 C 271.5164 101.995 267.0917 94.2923 267.0917 85.792 C 267.0917 77.2916 272.4373 69.4153 278.6655 64.0107 C 282.5554 60.684 287.697 62.1621 291.3934 63.66 Z " fill="#f6f0f4" stroke="#000000" stroke-width="5.72209"/><path d="M 316.3024 76.4718 C 319.1198 76.5026 321.2427 78.047 322.9926 79.4579 C 324.78 80.8674 326.7593 81.9609 327.7568 84.1284 C 329.8294 85.6517 332.7609 87.7042 331.9615 90.2087 C 331.1299 92.8658 328.2733 94.6354 325.3713 95.3917 C 322.4692 96.148 319.5162 95.5921 317.0895 94.0842 C 314.664 92.5762 312.7635 90.1154 311.9675 87.0606 C 311.1713 84.0058 311.7383 81.0134 313.0102 78.4306 C 313.8657 76.7721 315.3429 76.1342 316.3024 76.4718 Z " fill="#000000" stroke="none" stroke-width="0.75436"/><path d="M 320.1286 79.7508 C 321.2275 79.7628 322.0555 80.3652 322.7381 80.9155 C 323.4352 81.4652 324.2072 81.8917 324.5963 82.7372 C 325.4046 83.3313 326.5481 84.1319 326.2364 85.1087 C 325.912 86.1452 324.7978 86.8354 323.6658 87.1304 C 322.534 87.4252 321.3821 87.2085 320.4356 86.6204 C 319.4896 86.0322 318.7482 85.0724 318.4377 83.8808 C 318.1272 82.6894 318.3484 81.5222 318.8445 80.5148 C 319.1782 79.8679 319.7544 79.6191 320.1286 79.7508 Z " fill="#ffffff" stroke="none" stroke-width="0.29423"/></g><path d="M 192.5138 124.5456 C 201.7695 124.5456 210.1568 126.2307 216.2305 128.9532 C 222.304 131.6757 226.063 135.4356 226.063 139.5849 C 226.063 143.7342 222.304 147.494 216.2305 150.2165 C 210.1568 152.939 201.7695 154.6243 192.5138 154.6243 C 183.2581 154.6243 174.8707 152.939 168.7971 150.2165 C 162.7236 147.494 158.9646 143.7342 158.9646 139.5849 C 158.9646 135.4356 162.7236 131.6757 168.7971 128.9532 C 174.8707 126.2307 183.2581 124.5456 192.5138 124.5456 Z " fill="#302b57" stroke="#201c3a" stroke-width="5.08477" stroke-linecap="butt"/><path d="M 191.9852 129.8766 C 195.5449 129.8766 198.771 130.8581 201.1076 132.4427 C 203.4433 134.0281 204.8895 136.2172 204.8895 138.633 C 204.8895 141.0489 203.4433 143.238 201.1076 144.8234 C 198.771 146.4079 195.5449 147.3895 191.9852 147.3895 C 188.4255 147.3895 185.1994 146.4079 182.8628 144.8234 C 180.5271 143.238 179.0809 141.0489 179.0809 138.633 C 179.0809 136.2172 180.5271 134.0281 182.8628 132.4427 C 185.1994 130.8581 188.4255 129.8766 191.9852 129.8766 Z " fill="#000000" stroke="#000000" stroke-width="3.64615" stroke-linecap="butt"/><path d="M 247.6938 165.5494 C 251.0117 164.2009 250.6329 160.9159 252.4667 158.8273 C 253.7478 157.3683 256.3336 158.3352 258.2142 157.8526 C 260.8738 157.1707 263.336 155.6308 266.0657 155.3385 C 268.2018 155.109 270.4909 155.4274 272.4418 156.3267 C 274.6885 157.3634 276.8886 158.8936 278.253 160.9585 C 279.542 162.9089 279.8272 165.4268 279.9975 167.7579 C 280.1316 169.5949 280.6976 172.2252 279.1504 173.2232 C 276.7719 174.7573 273.4914 173.9998 270.6703 173.7743 C 265.1626 173.3338 259.5085 173.0022 254.2748 171.2332 C 252.4127 170.604 251.6138 168.3322 250.2853 166.8838 C 249.9534 166.5218 250.1039 167.5544 250.2853 166.8838 Z " fill="#ffffff" stroke="#000000" stroke-width="6.68461" stroke-linecap="round"/><g stroke-linecap="round"><path d="M 191.3882 136.6522 C 193.2858 134.4384 197.9084 136.8435 199.806 139.0574 C 203.1936 143.0101 204.1725 148.5491 205.8188 153.4879 C 207.7849 159.3853 205.9824 167.3966 210.629 171.5262 C 221.4748 181.166 239.21 181.3619 249.1107 191.9697 C 252.8266 195.9512 247.6219 203.2857 244.3005 207.6029 C 242.8357 209.5076 239.4879 207.6029 237.0852 207.6029 C 231.4788 207.6029 225.8376 208.0562 220.2493 207.6029 C 210.9909 206.8524 200.0815 209.4884 192.5907 203.9952 C 186.0524 199.2006 185.3753 189.1653 184.1728 181.1467 C 182.9233 172.8214 184.0274 164.2039 185.3753 155.893 C 186.4504 149.267 187.0192 141.7486 188.983 136.6522 Z " stroke-width="4.75699" fill="#ffffff" stroke="#000000"/><path d="M 243.3737 167.756 C 249.3857 165.3132 256.5044 166.4523 262.8612 167.756 C 269.4139 169.0997 276.402 171.0767 281.3741 175.5508 C 283.7984 177.7324 283.2216 182.1522 282.3485 185.2946 C 281.4803 188.4213 279.176 191.2509 276.5024 193.0895 C 273.7107 195.009 266.7586 195.1269 266.7586 196.0127 C 266.7586 196.8983 274.4845 195.3383 276.5024 197.9614 C 278.678 200.7899 277.7358 205.3306 276.5024 208.6795 C 275.3097 211.9163 270.0852 213.0486 269.6817 216.4744 C 269.291 219.792 275.6769 222.0974 274.5536 225.2436 C 273.3337 228.6599 268.3294 229.2357 264.8098 230.1155 C 261.6617 230.9027 258.2972 230.4089 255.0662 230.1155 C 251.1356 229.7579 247.1816 229.2055 243.3738 228.1668 C 240.0024 227.247 236.1011 226.7402 233.6301 224.2692 C 230.858 221.4972 229.835 217.321 228.7582 213.5512 C 227.8628 210.4157 227.932 207.0649 227.7838 203.8076 C 227.6076 199.9179 227.1437 195.9561 227.7838 192.1152 C 228.4582 188.0667 229.4685 183.8798 231.6813 180.4228 C 234.776 175.5879 238.0556 169.9162 243.3738 169.7047 Z " stroke-width="6.42392" fill="#ffffff" stroke="#000000"/></g><path d="M 191.34 136.6052 L 191.0634 136.3287 " fill="none" stroke="#000000" stroke-width="3.64615" stroke-linecap="round"/><path d="M 257.0486 42.2717 L 350.5834 90.8087 " fill="none" stroke="#000000" stroke-width="6" stroke-linecap="round"/><path d="M 344.5163 119.122 L 243.9031 121.65 " fill="none" stroke="#000000" stroke-width="6" stroke-linecap="round"/></g></g></svg>