<svg version="1.1" xmlns="http://www.w3.org/2000/svg" xmlns:xlink="http://www.w3.org/1999/xlink" width="23.40894" height="23.30795" viewBox="0,0,23.40894,23.30795"><defs><radialGradient cx="239.99999" cy="180" r="10.76872" gradientUnits="userSpaceOnUse" id="color-1"><stop offset="0" stop-color="#000000"/><stop offset="1" stop-color="#000000" stop-opacity="0"/></radialGradient><radialGradient cx="239.99999" cy="180" r="7.75701" gradientUnits="userSpaceOnUse" id="color-2"><stop offset="0" stop-color="#000000"/><stop offset="1" stop-color="#1a0f26"/></radialGradient><linearGradient x1="246.4767" y1="179.47204" x2="235.31135" y2="176.68335" gradientUnits="userSpaceOnUse" id="color-3"><stop offset="0" stop-color="#57607f" stop-opacity="0"/><stop offset="1" stop-color="#57607f"/></linearGradient><linearGradient x1="244.68864" y1="183.31665" x2="233.5233" y2="180.52796" gradientUnits="userSpaceOnUse" id="color-4"><stop offset="0" stop-color="#57607f"/><stop offset="1" stop-color="#57607f" stop-opacity="0"/></linearGradient><radialGradient cx="241.74934" cy="182.42866" r="2.90997" gradientUnits="userSpaceOnUse" id="color-5"><stop offset="0" stop-color="#c0badc"/><stop offset="1" stop-color="#c0badc" stop-opacity="0"/></radialGradient><radialGradient cx="238.18248" cy="177.47858" r="2.90997" gradientUnits="userSpaceOnUse" id="color-6"><stop offset="0" stop-color="#c0badc"/><stop offset="1" stop-color="#c0badc" stop-opacity="0"/></radialGradient></defs><g transform="translate(-228.29553,-168.29553)"><g data-paper-data="{&quot;isPaintingLayer&quot;:true}" fill-rule="nonzero" stroke-width="6" stroke-linejoin="miter" stroke-miterlimit="10" stroke-dasharray="" stroke-dashoffset="0" style="mix-blend-mode: normal"><path d="M238.37404,190.64526c-5.87922,-0.89799 -9.9173,-6.392 -9.01931,-12.27122c0.89799,-5.87922 6.392,-9.9173 12.27122,-9.01931c5.87922,0.89799 9.9173,6.392 9.01931,12.27122c-0.89799,5.87922 -6.392,9.9173 -12.27122,9.01931z" fill="url(#color-1)" stroke="none" stroke-linecap="butt"/><path d="M238.82878,187.66808c-4.23496,-0.64685 -7.14371,-4.60434 -6.49686,-8.8393c0.64685,-4.23496 4.60434,-7.14371 8.8393,-6.49686c4.23496,0.64685 7.14371,4.60434 6.49686,8.8393c-0.64685,4.23496 -4.60434,7.14371 -8.8393,6.49686z" fill="url(#color-2)" stroke="#c0badc" stroke-linecap="butt"/><path d="M240.41857,179.52233c-1.08868,1.28522 -2.85569,1.44638 -4.13487,0.35997c-1.27919,-1.08641 -1.48388,-2.91377 -0.40836,-4.21853c1.29221,-1.56762 5.05438,-3.49279 8.34496,-0.55132c1.51088,1.35059 2.21787,3.17902 2.00032,5.19385c-0.20776,1.92415 -1.52871,3.26421 -1.52871,3.26421c0,0 2.07207,-2.27213 -0.26656,-4.37871c-1.27204,-1.14582 -3.21228,-0.6074 -4.00677,0.33052z" data-paper-data="{&quot;origRot&quot;:0}" fill="url(#color-3)" stroke="none" stroke-linecap="round"/><path d="M239.58142,180.47767c1.08868,-1.28522 2.85569,-1.44638 4.13487,-0.35997c1.27919,1.08641 1.48388,2.91377 0.40836,4.21853c-1.29221,1.56762 -5.05438,3.49279 -8.34496,0.55132c-1.51088,-1.35059 -2.21787,-3.17902 -2.00032,-5.19385c0.20776,-1.92415 1.52871,-3.26421 1.52871,-3.26421c0,0 -2.07207,2.27213 0.26656,4.37871c1.27204,1.14582 3.21228,0.6074 4.00677,-0.33052z" data-paper-data="{&quot;index&quot;:null,&quot;origRot&quot;:0}" fill="url(#color-4)" stroke="none" stroke-linecap="round"/><path d="M241.30996,185.30526c-1.58871,-0.24266 -2.67989,-1.72727 -2.43723,-3.31598c0.24266,-1.58871 1.72727,-2.67989 3.31598,-2.43723c1.58871,0.24266 2.67989,1.72727 2.43723,3.31598c-0.24266,1.58871 -1.72727,2.67989 -3.31598,2.43723z" fill="url(#color-5)" stroke="none" stroke-linecap="butt"/><path d="M237.74311,180.35518c-1.5887,-0.24266 -2.67989,-1.72727 -2.43723,-3.31597c0.24266,-1.5887 1.72727,-2.67989 3.31598,-2.43723c1.5887,0.24266 2.67989,1.72727 2.43723,3.31597c-0.24266,1.5887 -1.72727,2.67989 -3.31597,2.43723z" fill="url(#color-6)" stroke="none" stroke-linecap="butt"/><path d="M241.55284,183.7017c-0.69992,-0.10691 -1.18065,-0.76096 -1.07374,-1.46089c0.10691,-0.69992 0.76096,-1.18065 1.46089,-1.07374c0.69992,0.10691 1.18065,0.76096 1.07374,1.46089c-0.10691,0.69992 -0.76096,1.18065 -1.46089,1.07374z" fill="#e2ecff" stroke="none" stroke-linecap="butt"/><path d="M237.98474,178.75967c-0.69992,-0.10691 -1.18065,-0.76096 -1.07374,-1.46089c0.10691,-0.69992 0.76096,-1.18065 1.46089,-1.07374c0.69992,0.10691 1.18065,0.76096 1.07374,1.46089c-0.10691,0.69992 -0.76096,1.18065 -1.46089,1.07374z" fill="#e2ecff" stroke="none" stroke-linecap="butt"/><path d="M239.87679,176.82777c-0.23331,-0.03563 -0.39355,-0.25366 -0.35791,-0.48696c0.03563,-0.23331 0.25366,-0.39355 0.48696,-0.35791c0.23331,0.03563 0.39355,0.25366 0.35791,0.48696c-0.03563,0.23331 -0.25366,0.39355 -0.48696,0.35791z" fill="#e2ecff" stroke="none" stroke-linecap="butt"/><path d="M240.88182,176.55516c-0.13331,-0.02036 -0.22488,-0.14495 -0.20452,-0.27826c0.02036,-0.13331 0.14495,-0.22488 0.27826,-0.20452c0.13331,0.02036 0.22488,0.14495 0.20452,0.27826c-0.02036,0.13331 -0.14495,0.22488 -0.27826,0.20452z" fill="#e2ecff" stroke="none" stroke-linecap="butt"/><path d="M240.06649,183.12267c0.23331,0.03563 0.39355,0.25366 0.35791,0.48696c-0.03563,0.23331 -0.25366,0.39355 -0.48696,0.35791c-0.23331,-0.03563 -0.39355,-0.25366 -0.35791,-0.48696c0.03563,-0.23331 0.25366,-0.39355 0.48696,-0.35791z" data-paper-data="{&quot;origRot&quot;:0}" fill="#e2ecff" stroke="none" stroke-linecap="butt"/><path d="M239.06146,183.39528c0.13331,0.02036 0.22488,0.14495 0.20452,0.27826c-0.02036,0.13332 -0.14495,0.22488 -0.27826,0.20452c-0.13332,-0.02036 -0.22488,-0.14495 -0.20452,-0.27826c0.02036,-0.13331 0.14495,-0.22488 0.27826,-0.20452z" data-paper-data="{&quot;origRot&quot;:0}" fill="#e2ecff" stroke="none" stroke-linecap="butt"/><path d="M238.6859,188.60348c-4.75157,-0.72576 -8.01514,-5.166 -7.28939,-9.91757c0.72576,-4.75157 5.166,-8.01514 9.91757,-7.28939c4.75157,0.72576 8.01514,5.166 7.28939,9.91757c-0.72576,4.75157 -5.166,8.01514 -9.91757,7.28939z" fill="none" stroke="#e2ecff" stroke-linecap="butt"/></g></g></svg>