<svg xmlns="http://www.w3.org/2000/svg" xmlns:xlink="http://www.w3.org/1999/xlink" version="1.1" width="218.02539" height="381.75842" viewBox="0,0,218.02539,381.75842"><g><g data-paper-data="{&quot;isPaintingLayer&quot;:true}" fill-rule="nonzero" stroke-linejoin="miter" stroke-miterlimit="10" stroke-dasharray="" stroke-dashoffset="0" style="mix-blend-mode: normal"><path d="M 111.61 181.8738 C 111.61 181.8738 130.6338 191.4202 137.995 207.1413 C 142.022 215.9797 109.7816 253.2487 109.7816 253.2487 " data-paper-data="{&quot;index&quot;:null}" fill="none" stroke="#000000" stroke-linecap="round" stroke-width="4"/><path d="M 70.8213 373.9631 C 70.8213 373.9631 58.6786 374.491 57.5868 369.6239 C 56.9012 366.5728 75.3598 280.3225 75.3598 280.3225 " data-paper-data="{&quot;origRot&quot;:0,&quot;index&quot;:null}" fill="none" stroke="#000000" stroke-linecap="round" stroke-width="4"/><path d="M 124.9597 366.9219 C 124.9597 366.9219 114.69 373.5584 113.5233 368.7066 C 112.878 366.0273 110.3987 285.985 110.3987 285.985 " data-paper-data="{&quot;origRot&quot;:0,&quot;index&quot;:null}" fill="none" stroke="#000000" stroke-linecap="round" stroke-width="4"/><path d="M 96.2878 173.2397 C 105.8758 174.1888 114.14 182.0223 119.7448 193.9096 C 125.3513 205.7987 128.2985 221.741 127.2536 238.9079 C 126.2105 256.0755 121.369 271.2468 114.3909 281.8905 C 107.4148 292.5316 98.3021 298.6442 88.7142 297.6949 C 79.1261 296.7457 70.8619 288.9131 65.2571 277.0258 C 59.6497 265.1366 56.7034 249.1944 57.7474 232.0276 C 58.1451 225.4928 58.6302 221.8208 60.0416 215.4113 C 62.3426 204.9626 69.3851 191.8282 70.0352 190.8157 C 70.252 190.4781 70.3909 189.3806 70.611 189.0451 C 77.5871 178.4039 86.6997 172.2905 96.2878 173.2397 Z " data-paper-data="{&quot;origRot&quot;:0,&quot;index&quot;:null}" fill="#080064" stroke="#000000" stroke-linecap="butt" stroke-width="4"/><g data-paper-data="{&quot;origRot&quot;:0}" stroke-linecap="round"><path d="M 119.6897 170.8356 L 93.5038 229.6216 L 79.2904 167.2379 Z " fill="#ffffff" stroke-width="4" stroke="#000000"/><path d="M 90.964 239.2855 L 94.6106 187.4544 L 88.9012 174.3698 L 102.1432 174.6236 L 97.5832 187.5114 L 100.7544 236.0883 L 95.883 251.2267 Z " fill="#ac0000" stroke-width="4" stroke="#000000"/><path d="M 98.3154 185.0215 L 112.6403 175.0923 L 110.9261 193.3919 Z " fill="#ffffff" stroke-width="4" stroke="#000000"/><path d="M 82.2111 193.5735 L 83.2909 177.1678 L 95.1174 185.6923 Z " fill="#ffffff" stroke-width="4" stroke="#000000"/></g><path d="M 141.1741 361.6725 C 144.5561 363.7074 146.7334 366.5844 146.9014 369.8448 C 147.0693 373.1051 145.1195 376.7882 142.0323 378.339 C 136.3501 380.7257 131.7967 381.8002 116.473 379.1156 C 113.2303 377.4585 110.9132 374.1954 110.7458 370.9433 C 110.5783 367.6913 112.4527 364.6827 115.6148 362.4491 C 118.777 360.2154 123.2285 358.7579 128.2166 358.6062 C 133.2046 358.4547 137.792 359.6377 141.174 361.6725 Z " data-paper-data="{&quot;origRot&quot;:0,&quot;index&quot;:null}" fill="#000000" stroke="none" stroke-linecap="round" stroke-width="4"/><path d="M 84.9329 364.5499 C 87.9019 367.0128 89.5324 370.1125 89.1136 373.288 C 88.6947 376.4634 86.1128 379.7366 82.7918 380.7822 C 76.7631 382.2549 72.0823 382.6251 57.4589 377.7821 C 54.5595 375.7048 52.8605 372.2113 53.2782 369.044 C 53.696 365.8767 56.0828 363.2442 59.6 361.5497 C 63.1174 359.8551 67.7664 359.0998 72.7104 359.6852 C 77.6542 360.2708 81.964 362.0871 84.9329 364.5499 Z " data-paper-data="{&quot;origRot&quot;:0,&quot;index&quot;:null}" fill="#000000" stroke="none" stroke-linecap="round" stroke-width="4"/><path d="M 160.478 74.7154 C 174.2417 88.1688 182.1474 105.7421 180.9207 124.2331 C 179.6948 142.7234 169.5658 158.662 154.1921 169.4778 C 138.8182 180.2903 118.2012 185.979 95.9988 183.9686 C 73.7964 181.9574 54.1757 172.6261 40.4121 159.1734 C 26.6484 145.7191 18.7425 128.1468 19.9685 109.6566 C 21.1953 91.1663 31.3241 75.2259 46.698 64.4119 C 62.0717 53.5978 82.688 47.9098 104.8913 49.9202 C 127.0927 51.9315 146.7142 61.2635 160.478 74.7153 Z " data-paper-data="{&quot;origRot&quot;:0,&quot;index&quot;:null}" fill="#ffa200" stroke="#000000" stroke-linecap="butt" stroke-width="4"/><path d="M 81.8139 172.0139 C 81.8139 172.0139 77.2491 173.1007 74.3461 172.4507 C 71.2765 171.7634 68.0906 168.0129 68.0906 168.0129 " fill="none" stroke="#000000" stroke-linecap="round" stroke-width="4"/><path d="M 70.8515 182.4291 C 70.8515 182.4291 62.9106 200.1142 56.5745 205.7379 C 44.4348 210.9791 11.2376 190.4341 11.2376 190.4341 " fill="none" stroke="#000000" stroke-linecap="round" stroke-width="4"/><g><path d="M 121.9282 84.1562 C 125.3908 84.167 129.5552 90.7701 131.1278 95.2922 C 134.3905 104.6586 135.1245 114.4927 135.1578 123.9095 C 135.6552 132.4917 135.2821 141.1548 132.7078 148.8815 C 131.2229 153.3314 127.6257 159.9729 124.1631 159.9621 C 120.7005 159.9514 117.4377 155.6942 114.9634 148.8262 C 112.4902 141.957 110.8041 132.4769 110.4959 122.02 C 110.1876 111.5632 111.3148 102.0918 113.3835 95.2369 C 115.4532 88.3831 118.4655 84.1454 121.9282 84.1563 Z " data-paper-data="{&quot;origRot&quot;:0,&quot;index&quot;:null}" fill="#000000" stroke="none" stroke-linecap="butt" stroke-width="4"/><path d="M 85.651 84.6626 C 89.1136 84.6733 93.278 91.2764 94.8506 95.7985 C 98.1133 105.1649 98.8474 114.9991 98.8806 124.4159 C 99.378 132.9981 99.0049 141.6611 96.4306 149.3878 C 94.9457 153.8378 91.3485 160.4793 87.8859 160.4685 C 84.4233 160.4577 81.1605 156.2005 78.6862 149.3325 C 76.213 142.4634 74.5269 132.9833 74.2187 122.5263 C 73.9104 112.0695 75.0376 102.5982 77.1063 95.7432 C 79.176 88.8894 82.1883 84.6517 85.651 84.6627 Z " data-paper-data="{&quot;origRot&quot;:0,&quot;index&quot;:null}" fill="#000000" stroke="none" stroke-linecap="butt" stroke-width="4"/><path d="M 69.7909 90.5251 L 69.4994 73.7403 L 132.8324 75.13 L 131.3707 93.2346 C 131.3707 93.2346 109.256 88.6269 105.3601 88.5414 C 99.1221 88.4046 89.7798 93.8096 81.834 92.5605 C 75.0407 91.4925 69.7908 90.525 69.7908 90.525 Z " fill="#ffa200" stroke="none" stroke-linecap="butt" stroke-width="4"/><path d="M 74.0358 93.5935 L 96.5887 90.0319 " fill="none" stroke="#000000" stroke-linecap="round" stroke-width="4"/><path d="M 111.7195 88.425 L 134.5644 94.1497 " data-paper-data="{&quot;index&quot;:null}" fill="none" stroke="#000000" stroke-linecap="round" stroke-width="4"/></g><path d="M 18.4813 113.6004 C 15.5623 110.7392 10.272 110.2036 9.6114 107.2299 C 7.4829 97.6413 10.5076 87.985 10.9551 78.3762 C 11.0931 75.4201 8.8149 71.3681 11.3684 69.4987 C 19.2533 63.7276 28.8373 58.4547 39.4232 57.5394 C 43.0843 57.2227 43.528 63.6784 42.9215 66.7691 C 42.2521 70.1824 39.5615 73.5473 35.9882 75.0599 C 32.9579 76.3425 28.6965 75.5721 25.5567 74.1201 C 22.2281 72.5803 19.7446 69.6435 18.0431 66.7569 C 16.3908 63.9516 16.1523 60.708 15.8487 57.6437 C 15.5555 54.6723 15.1333 51.5081 16.262 48.7662 C 18.1579 44.1683 21.814 40.3114 24.7062 36.1541 C 27.8888 31.58 31.1695 27.0392 34.5058 22.5499 C 38.1487 17.6467 41.4178 12.473 45.6606 7.9532 C 47.8925 5.5743 50.2006 2.5036 53.7938 2 C 60.5686 1.0475 67.7095 3.2532 74.6566 3.8796 C 78.1307 4.1924 82.0944 3.1416 85.0881 4.8193 C 88.3065 6.6223 89.7084 10.1807 91.2462 13.1746 C 93.3388 17.2477 95.2997 21.5076 95.8936 25.8519 C 96.3026 28.8441 95.6049 31.9628 94.1766 34.6121 C 92.6513 37.4391 90.5543 40.4135 87.2948 41.7927 C 84.2418 43.0856 79.4895 44.0403 76.8119 41.963 C 74.1341 39.8849 74.528 35.6327 75.9214 32.9672 C 80.4863 24.2348 86.9642 16.2724 94.061 8.9704 C 96.7464 6.2066 100.7549 4.3752 104.8027 3.252 C 108.0655 2.3466 111.7991 2.5921 115.2857 3.0817 C 119.2719 3.6416 123.276 4.7276 126.917 6.3583 C 130.6437 8.0273 133.6616 10.7375 137.0915 12.847 C 140.0217 14.6499 144.497 15.3272 146.0111 18.1082 C 148.4831 22.645 147.6323 27.883 147.9477 32.7702 C 148.1409 35.7431 149.4034 39.2521 147.5344 41.6477 C 145.65 44.0624 141.5272 44.5134 138.2006 45.2649 C 134.3954 46.1228 126.5306 48.468 126.3624 46.4271 C 126.1117 43.4167 132.2902 37.4654 137.3616 35.1591 C 144.4342 31.9431 152.9891 31.2102 161.1422 30.6152 C 164.606 30.3629 168.2926 31.3235 171.5222 32.6651 C 175.2997 34.2343 178.3771 36.9124 181.695 39.1538 C 184.7204 41.1973 188.4027 42.7994 190.5639 45.5243 C 192.7097 48.2309 194.6687 51.6633 194.0621 54.7547 C 193.3928 58.168 190.3615 61.0755 187.1298 63.0454 C 184.2026 64.8304 180.0685 64.6395 176.5428 65.4352 C 173.0181 66.2308 169.6391 67.6346 165.9568 67.8241 C 161.6443 68.0457 153.1023 68.8728 152.9169 66.6495 C 152.6816 63.82 160.3594 59.8573 165.1178 57.719 C 168.1998 56.3341 172.0764 56.437 175.6524 56.4393 C 180.4221 56.4427 185.2191 57.301 189.9961 57.7313 C 193.4692 58.0449 197.757 56.6211 200.4267 58.671 C 204.1581 61.5371 204.0634 66.6026 206.4303 70.3564 C 208.5474 73.7124 212.0524 76.4592 213.8407 79.9391 C 215.3146 82.8083 215.7314 85.9872 216.0351 89.0514 C 216.3285 92.0237 217.1406 95.3465 215.6218 97.9298 C 213.6046 101.3626 209.3553 103.3897 206.0809 105.985 C 203.4659 108.0572 201.2176 110.6711 197.947 111.9391 C 194.7679 113.17 190.9929 113.541 187.4125 113.2186 C 183.831 112.8962 180.1216 111.8511 177.0842 110.0586 C 173.9587 108.2156 171.9623 105.2249 169.5706 102.6962 C 166.9718 99.9482 164.7073 96.9709 162.1085 94.2228 C 159.7169 91.6941 157.1959 89.2372 154.5949 86.8596 C 151.3366 83.8816 148.2953 80.6414 144.5252 78.1516 C 139.7666 75.0097 134.0638 73.0849 129.1885 70.0833 C 125.5534 67.8476 122.829 64.5524 119.0664 62.4853 C 114.6628 60.0658 109.7932 58.2983 104.9298 56.7547 C 101.5807 55.6916 98.0538 54.8341 94.5499 54.7048 C 90.9672 54.5724 87.3534 55.0579 84.0154 55.9844 C 80.1974 57.0433 76.8488 59.0029 73.3253 60.5935 C 67.9396 63.0245 62.3604 65.2341 57.2653 68.0618 C 54.2674 69.7247 51.7707 71.9673 49.1313 74.0149 C 43.6265 78.2854 38.0428 82.5189 32.8128 87.0321 C 29.8565 89.5829 26.8551 92.1768 24.5757 95.2047 C 22.6285 97.7939 21.2924 100.7484 20.2502 103.731 C 19.2668 106.5448 19.105 109.5737 18.533 112.4904 C 18.39 113.2208 19.2759 112.9287 18.533 112.4904 Z " data-paper-data="{&quot;origRot&quot;:0,&quot;index&quot;:null}" fill="#000000" stroke="#000000" stroke-linecap="round" stroke-width="4"/><g><path d="M 7.9054 190.975 C 7.3413 187.3265 9.185 183.978 12.0235 183.4958 C 14.8618 183.0137 17.6201 185.5805 18.1841 189.229 C 18.7481 192.8775 16.9044 196.2261 14.066 196.7082 C 11.2276 197.1903 8.4694 194.6235 7.9054 190.975 Z " fill="#000000" stroke="#000000" stroke-linecap="butt" stroke-width="4"/><path d="M 11.0447 185.8143 C 11.0447 185.8143 5.443 184.2924 4.4725 183.6932 C 3.7 183.2163 5.6786 182.5014 5.6786 182.5014 L 12.5211 183.557 " fill="none" stroke="#000000" stroke-linecap="round" stroke-width="4"/><path d="M 9.0358 193.4298 C 9.0358 193.4298 7.191 193.4929 5.3649 193.4872 C 3.931 193.4827 2.5086 193.4358 2 193.2825 C 1.0797 193.005 2.6431 191.5025 2.6431 191.5025 C 2.6431 191.5025 3.2475 191.263 3.6534 191.1941 C 4.7424 191.009 9.4955 190.3385 9.4955 190.3385 " fill="none" stroke="#000000" stroke-linecap="round" stroke-width="4"/><path d="M 10.9939 196.1931 C 10.9939 196.1931 5.5975 197.6003 4.4413 197.2518 C 3.521 196.9743 5.0843 195.4718 5.0843 195.4718 L 11.9368 194.3078 " fill="none" stroke="#000000" stroke-linecap="round" stroke-width="4"/><path d="M 15.7554 196.6944 C 15.7554 196.6944 9.9788 200.4099 8.7807 200.3473 C 7.8271 200.2975 10.0932 198.8 10.0932 198.8 L 15.7991 194.7144 " fill="none" stroke="#000000" stroke-linecap="round" stroke-width="4"/><path d="M 9.642 188.6315 C 9.642 188.6315 3.7638 188.7792 2.6064 188.481 C 1.6851 188.2437 3.2427 186.9828 3.2427 186.9828 L 10.0902 186.0271 " fill="none" stroke="#000000" stroke-linecap="round" stroke-width="4"/><path d="M 6.6335 191.3202 C 6.9595 191.1561 7.4874 191.0407 7.9998 191.5781 C 8.8238 192.4423 7.9596 193.2663 7.9596 193.2663 L 7.1048 193.6841 C 6.1504 193.7339 5.1996 193.8456 4.2525 193.9727 C 4.2525 193.9727 3.0689 194.1308 2.9108 192.9472 C 2.7527 191.7636 3.9363 191.6055 3.9363 191.6055 C 4.8323 191.4863 5.7315 191.3807 6.6335 191.3202 Z " fill="#000000" stroke="none" stroke-linecap="butt" stroke-width="4"/></g></g></g></svg>