<svg version="1.1" xmlns="http://www.w3.org/2000/svg" xmlns:xlink="http://www.w3.org/1999/xlink" width="94.52943" height="9.36393" viewBox="0,0,94.52943,9.36393"><defs><linearGradient x1="172.11028" y1="182.7143" x2="247.94374" y2="182.7143" gradientUnits="userSpaceOnUse" id="color-1"><stop offset="0" stop-color="#00cc44" stop-opacity="0"/><stop offset="1" stop-color="#00cc44"/></linearGradient><linearGradient x1="172.11028" y1="178.8501" x2="247.94374" y2="178.8501" gradientUnits="userSpaceOnUse" id="color-2"><stop offset="0" stop-color="#ffffff" stop-opacity="0"/><stop offset="1" stop-color="#ffffff"/></linearGradient></defs><g transform="translate(-172.11028,-176.06305)"><g data-paper-data="{&quot;isPaintingLayer&quot;:true}" fill-rule="nonzero" stroke-linejoin="miter" stroke-miterlimit="10" stroke-dasharray="" stroke-dashoffset="0" style="mix-blend-mode: normal"><path d="M172.11028,184.6875v-3.94641h75.83345v3.94641z" fill="url(#color-1)" stroke="none" stroke-width="NaN" stroke-linecap="butt"/><path d="M172.11028,180.82331v-3.94641h75.83345v3.94641z" fill="url(#color-2)" stroke="none" stroke-width="NaN" stroke-linecap="butt"/><path d="M247.68867,181.69575c-0.90093,-0.18121 -1.2061,-0.0419 -1.5282,-0.0494c-0.40815,-0.00949 -0.84592,-0.04665 -1.17554,-0.14821c-0.29766,-0.09168 -0.46504,-0.24879 -0.58776,-0.39522c-0.11804,-0.14049 -0.11757,-0.29561 -0.11757,-0.4446c0,-0.13259 0.00657,-0.27113 0.11757,-0.39522c0.12976,-0.14524 0.32677,-0.28554 0.58776,-0.39522c0.22333,-0.09386 0.66631,-0.0824 0.82286,-0.19761c0.19517,-0.14346 0.11757,-0.32861 0.11757,-0.49402c0,-0.31301 -0.19984,-0.6276 -0.11757,-0.93863c0.03856,-0.14623 0.20457,-0.29937 0.47024,-0.39521c0.3202,-0.11541 0.76223,-0.16283 1.17553,-0.19761c0.38372,-0.03222 0.78477,-0.0091 1.17553,0c0.31505,0.0073 0.63011,0.0249 0.94043,0.0494c0.31742,0.02509 0.61976,0.11462 0.94043,0.0988c0.38277,-0.01896 0.7096,-0.12825 1.05801,-0.19759c0.39543,-0.07865 0.76928,-0.17865 1.17553,-0.24701c0.37946,-0.06383 0.78199,-0.10217 1.17558,-0.14821c0.3108,-0.03636 0.61787,-0.09882 0.94043,-0.09882c0.32257,0 0.65921,0.03222 0.94044,0.09882c0.36249,0.08576 0.65642,0.21796 0.94043,0.3458c0.26709,0.12036 0.54825,0.24445 0.70528,0.39522c0.12651,0.12153 -0.02207,0.38356 0.11757,0.39522c0.13964,0.01166 0.23746,-0.25611 0.47024,-0.34582c0.25811,-0.09939 0.6197,-0.13872 0.94044,-0.19761c0.30654,-0.05631 0.60657,-0.15649 0.94043,-0.14819c0.38508,0.00949 0.69636,0.14168 1.05795,0.19761c0.38372,0.05928 0.80221,0.07844 1.17558,0.14819c0.33759,0.06305 0.71517,0.1239 0.94044,0.24701c0.19701,0.10751 0.21487,0.25986 0.23509,0.39522c0.01976,0.13239 -0.25863,0.27665 -0.11757,0.39522c0.14106,0.11856 0.59953,0.10374 0.82291,0.19759c0.22333,0.09387 0.37053,0.21995 0.47019,0.34582c0.09971,0.12587 0.11757,0.26263 0.11757,0.39522c0,0.13259 -0.02354,0.26853 -0.11757,0.39521c-0.10439,0.14051 -0.18524,0.30965 -0.47019,0.39522c-0.32493,0.09742 -0.77684,0.08992 -1.17558,0.0988c-0.35404,0.00791 -0.72178,-0.09642 -1.05796,-0.0494c-0.31505,0.04407 -0.49799,0.18734 -0.70534,0.29641c-0.42086,0.22093 -0.61503,0.53474 -1.17553,0.69163c-0.56901,0.15928 -1.3312,0.13536 -1.99845,0.19761c-0.38981,0.03636 -0.77678,0.08951 -1.17553,0.09881c-0.31505,0.0073 -0.6663,0.0164 -0.94043,-0.04942c-0.31317,-0.07528 -0.34516,-0.35667 -0.70535,-0.3458c-0.44156,0.01324 -0.57883,0.28792 -0.94043,0.39522c-0.31505,0.09346 -0.67949,0.16697 -1.05801,0.19759c-0.65454,0.05296 -1.33167,0.04942 -1.99839,0.04942c-0.31552,0 -0.6809,0.02607 -0.94043,-0.04942c-0.30381,-0.08832 -0.458,-0.24997 -0.58782,-0.39521c-0.11095,-0.12411 0.01224,-0.39522 -0.11752,-0.39522c-0.12981,0 -0.1679,0.32111 -0.47024,0.39522c-0.27271,0.06678 -0.65123,0.00375 -0.94044,-0.0494c-0.35876,-0.066 -0.5605,-0.2565 -0.94043,-0.29642z" id="ID0.7492501847445965" fill="#ffffff" stroke="#e5e5e5" stroke-width="2.07664" stroke-linecap="round"/><path d="M250.00915,184.08747c-0.53481,-0.03208 -1.12373,-0.16907 -1.7074,-0.29707c-0.64461,-0.14124 -1.31075,-0.28196 -1.83874,-0.46682c-0.53481,-0.18724 -0.91621,-0.41658 -1.31338,-0.63658c-0.21697,-0.12018 -0.36144,-0.25327 -0.52535,-0.38195c-0.14237,-0.1117 -0.30838,-0.22204 -0.39401,-0.33951c-0.09089,-0.1246 -0.10823,-0.25412 -0.13134,-0.38195c-0.02049,-0.11289 -0.25427,-0.28825 0,-0.33951c0.27109,-0.05483 0.72551,0.0679 1.05071,0.12732c0.68663,0.12528 1.25717,0.42438 1.97007,0.42438c0.40347,0 0.21855,-0.28094 0.26268,-0.42438c0.04361,-0.14056 -0.02101,-0.28315 0,-0.42438c0.02311,-0.15584 0.08353,-0.3115 0.13134,-0.46682c0.0394,-0.12732 -0.06934,-0.39129 0.13135,-0.38195c0.23536,0.01087 0.53481,0.28128 0.78803,0.42438c0.27213,0.1538 0.52378,0.31167 0.78803,0.46682c0.21697,0.12748 0.42816,0.2565 0.65669,0.38195c0.20909,0.11493 0.35357,0.33951 0.6567,0.33951c0.28789,0 0.32834,-0.23036 0.52535,-0.33951c0.41555,-0.23035 0.68979,-0.56392 1.31338,-0.67901c0.29578,-0.05466 0.22485,0.25854 0.52535,0.33951c0.27686,0.07452 0.70082,0.11322 1.05071,0.08487c0.42449,-0.03429 0.6693,-0.18537 1.05071,-0.25463c0.32572,-0.05924 0.79485,-0.18928 1.05071,-0.12732c0.26951,0.06535 0,0.2548 0,0.38195c0,0.11306 -0.2217,0.30878 0,0.33951c0.23798,0.03293 0.60311,-0.1465 0.91936,-0.21219c0.29682,-0.06162 0.61309,-0.11323 0.91937,-0.16975c0.30629,-0.05653 0.68874,-0.21236 0.91936,-0.16975c0.22905,0.04227 0,0.22645 0,0.33951c0,0.11306 -0.25847,0.27687 0,0.33951c0.26687,0.06468 0.72446,-0.03531 1.05071,-0.08487c0.42816,-0.06502 0.79591,-0.16636 1.18204,-0.25463c0.66405,-0.15193 1.4941,-0.41081 1.97007,-0.46682c0.21855,-0.02563 -0.64146,0.26889 -0.52536,0.29707c0.1161,0.02818 0.68612,-0.12392 1.05071,-0.16975c0.42554,-0.05347 0.87051,-0.16313 1.31338,-0.12732c0.39139,0.03157 0.81587,0.16806 0.78803,0.29707c-1.13161,0.63369 -0.30208,0.4989 -0.65669,0.72146c-1.23773,0.77442 -1.74838,1.73676 -3.80881,2.24924c-1.9664,0.45953 -4.7949,0.36531 -7.09227,0.38195c-1.347,0.00968 -2.67037,-0.15515 -3.94015,-0.29707z" id="ID0.32716926373541355" fill="#00cc44" stroke="#009933" stroke-width="2" stroke-linecap="round"/></g></g></svg>