<svg version="1.1" xmlns="http://www.w3.org/2000/svg" xmlns:xlink="http://www.w3.org/1999/xlink" width="228.5" height="217.20559" viewBox="0,0,228.5,217.20559"><defs><linearGradient x1="377.78051" y1="238.24512" x2="377.78051" y2="270.10003" gradientUnits="userSpaceOnUse" id="color-1"><stop offset="0" stop-color="#d2a991"/><stop offset="1" stop-color="#fde6d9"/></linearGradient><radialGradient cx="383.39296" cy="249.49448" r="41.35554" gradientUnits="userSpaceOnUse" id="color-2"><stop offset="0" stop-color="#fde6d9"/><stop offset="1" stop-color="#f7d9c8"/></radialGradient><linearGradient x1="396.50632" y1="243.76552" x2="396.77679" y2="244.40843" gradientUnits="userSpaceOnUse" id="color-3"><stop offset="0" stop-color="#ecc6b1"/><stop offset="1" stop-color="#ecc6b1" stop-opacity="0"/></linearGradient><linearGradient x1="389.53944" y1="235.71078" x2="392.20192" y2="235.71078" gradientUnits="userSpaceOnUse" id="color-4"><stop offset="0" stop-color="#f4d7c8" stop-opacity="0"/><stop offset="1" stop-color="#f4d7c8"/></linearGradient><linearGradient x1="393.43908" y1="243.6287" x2="393.40828" y2="244.32235" gradientUnits="userSpaceOnUse" id="color-5"><stop offset="0" stop-color="#ecc6b1"/><stop offset="1" stop-color="#ecc6b1" stop-opacity="0"/></linearGradient><linearGradient x1="389.56132" y1="217.46042" x2="388.52967" y2="240.65982" gradientUnits="userSpaceOnUse" id="color-6"><stop offset="0" stop-color="#f9ddce" stop-opacity="0"/><stop offset="1" stop-color="#f9ddce"/></linearGradient><linearGradient x1="392.72065" y1="-1531.56472" x2="392.72065" y2="1585.96481" gradientUnits="userSpaceOnUse" id="color-7"><stop offset="0" stop-color="#2a221e"/><stop offset="1" stop-color="#2a221e" stop-opacity="0"/></linearGradient><linearGradient x1="329.89417" y1="320.90639" x2="398.58488" y2="314.75764" gradientUnits="userSpaceOnUse" id="color-8"><stop offset="0" stop-color="#fde6d9"/><stop offset="1" stop-color="#f7d9c8"/></linearGradient><linearGradient x1="96.08948" y1="345.04934" x2="581.87336" y2="301.5651" gradientUnits="userSpaceOnUse" id="color-9"><stop offset="0" stop-color="#000000"/><stop offset="1" stop-color="#000000" stop-opacity="0"/></linearGradient><linearGradient x1="423.30309" y1="311.22455" x2="354.35055" y2="312.55462" gradientUnits="userSpaceOnUse" id="color-10"><stop offset="0" stop-color="#fde6d9"/><stop offset="1" stop-color="#f7d9c8"/></linearGradient><linearGradient x1="658.3472" y1="309.89262" x2="170.71172" y2="319.29906" gradientUnits="userSpaceOnUse" id="color-11"><stop offset="0" stop-color="#000000"/><stop offset="1" stop-color="#000000" stop-opacity="0"/></linearGradient><linearGradient x1="360.88408" y1="311.90464" x2="346.91255" y2="321.65578" gradientUnits="userSpaceOnUse" id="color-12"><stop offset="0" stop-color="#f7dac9"/><stop offset="1" stop-color="#fde6d9"/></linearGradient><linearGradient x1="393.77292" y1="320.80571" x2="410.77235" y2="319.6622" gradientUnits="userSpaceOnUse" id="color-13"><stop offset="0" stop-color="#f7dac9"/><stop offset="1" stop-color="#fde6d9"/></linearGradient></defs><g transform="translate(-272.25,-188.96697)"><g data-paper-data="{&quot;isPaintingLayer&quot;:true}" fill-rule="nonzero" stroke-linecap="butt" stroke-linejoin="miter" stroke-miterlimit="10" stroke-dasharray="" stroke-dashoffset="0" style="mix-blend-mode: normal"><path d="M272.25,389.04116l28.5,-120l200,-19.5v139.5z" fill="#4db494" stroke="none" stroke-width="NaN"/><g><g data-paper-data="{&quot;origPos&quot;:null,&quot;origRot&quot;:0}" stroke="none" stroke-width="0"><path d="M386.95649,271.36069c1.1357,-4.68291 0.72986,-14.45112 7.82262,-12.35777c6.72668,1.98532 15.46086,12.9015 18.87719,30.68036c0.99801,5.19364 1.24819,17.55038 2.2248,22.7484c1.76973,9.41946 -15.62324,16.22286 -19.35753,7.44162c-3.07144,-7.22247 -3.19319,-6.37405 -7.3264,-28.45291c-1.73583,-9.27251 -4.46116,-10.90397 -2.24071,-20.05968z" data-paper-data="{&quot;origPos&quot;:null,&quot;origRot&quot;:0}" fill="#2152a6"/><path d="M396.83261,259.34826c6.32668,3.43192 13.6474,13.84826 16.70594,29.76499c0.99801,5.19364 1.24819,17.55038 2.2248,22.74842c1.01241,5.38859 -4.24646,9.92103 -9.63182,11.16938c-3.29981,-15.60552 -6.56229,-31.21894 -9.57025,-46.88691c-0.87055,-4.53453 -0.07876,-11.09932 0.27136,-16.79585z" data-paper-data="{&quot;origPos&quot;:null,&quot;origRot&quot;:0}" fill="#000000"/></g><g data-paper-data="{&quot;origPos&quot;:null,&quot;origRot&quot;:0}" stroke="none" stroke-width="0"><path d="M356.78871,271.11006c2.67644,9.03295 0.03629,10.79892 -1.23273,20.14677c-3.02169,22.25823 -3.18579,21.41697 -5.89145,28.78427c-3.28959,8.95734 -21.0016,3.03403 -19.70609,-6.46227c0.71492,-5.24043 0.3456,-17.59416 1.08212,-22.83131c2.52118,-17.92772 10.69738,-29.26783 17.31614,-31.58772c6.97894,-2.44614 7.06309,7.33015 8.43203,11.95029z" data-paper-data="{&quot;origPos&quot;:null,&quot;origRot&quot;:0}" fill="#2152a6"/><path d="M346.32303,259.60758c0.63513,5.67183 1.75487,12.18872 1.11263,16.76116c-2.21909,15.79903 -4.69509,31.55631 -7.20879,47.30757c-5.44115,-0.97693 -10.92054,-5.24017 -10.1794,-10.67273c0.71492,-5.24043 0.3456,-17.59416 1.08212,-22.83131c2.25712,-16.04999 9.0467,-26.82006 15.19345,-30.5647z" data-paper-data="{&quot;origPos&quot;:null,&quot;origRot&quot;:0}" fill="#000000"/></g><g data-paper-data="{&quot;origPos&quot;:null}"><g data-paper-data="{&quot;origPos&quot;:null}" stroke="none"><path d="M355.84959,250.01113c0.86109,-5.36236 1.60183,-6.65449 3.3864,-7.61158c1.78456,-0.9571 7.96975,-2.10166 14.84203,-2.1646c6.87228,-0.06295 4.91677,-2.42603 11.53698,0.50907c6.6202,2.9351 5.90736,3.83382 6.57545,7.52115c0.66806,3.68732 7.91722,12.56664 4.24375,13.82651c-3.63714,1.24742 -27.24774,5.22847 -44.50585,0.30893c0.27213,-2.43741 0.43222,-4.80754 0.25164,-7.18049c0.0128,-0.03596 0.02545,-0.07195 0.03795,-0.10796l0.2354,-0.24992c0,0 0.40012,-0.77279 0.6981,-1.85957c1.43028,-0.87834 2.5153,-1.85301 2.69813,-2.99152z" data-paper-data="{&quot;origPos&quot;:null}" fill="#000000" stroke-width="0"/><g data-paper-data="{&quot;origPos&quot;:null}"><path d="M354.97164,263.48578c-1.22493,-0.42707 -2.22507,-0.83062 -3.0289,-1.21471c0.20607,-1.8718 0.34355,-3.70458 0.3086,-5.5302c2.68684,-1.53034 6.19247,-3.17046 6.50892,-5.48848c0.15528,-1.1375 0.24511,-1.77881 0.50069,-2.8957c0.45131,-1.97221 1.09477,-3.04797 2.77906,-4.00797c1.76513,-1.00609 6.5599,-2.03492 12.49806,-2.08931c5.93816,-0.0544 5.73941,-1.83669 11.31763,0.81072c5.57823,2.64744 3.47531,2.79566 4.05222,6.48384c0.5769,3.68817 7.20707,12.41488 3.65358,13.8319c-3.55349,1.41706 -23.85527,5.23712 -38.58984,0.09991z" data-paper-data="{&quot;origPos&quot;:null}" fill="#09162e" stroke-width="0"/><g data-paper-data="{&quot;origPos&quot;:null}" fill="none" stroke-width="1" font-family="sans-serif" font-weight="normal" font-size="12" text-anchor="start"/></g></g><path d="M389.41366,265.03908c0,0 -8.44745,5.06092 -12.71725,5.06092c-3.67589,0 -14.20889,-5.45846 -14.20889,-5.45846c0,0 2.09491,-2.68603 2.84,-4.84235c0.63341,-1.83311 1.66243,-5.61677 1.66243,-7.58957c0,-2.10072 -3.43002,-13.13836 -3.43002,-13.13836l25.81579,-0.82616z" data-paper-data="{&quot;origPos&quot;:null}" fill="url(#color-1)" stroke="none" stroke-width="0"/><g data-paper-data="{&quot;origPos&quot;:null}" fill="#b2bbc1" stroke="none" stroke-width="0"><path d="M347.5646,334.47793l58.69082,-1.21436c0,0 -1.13085,15.33125 -0.85575,24.88977c0.24938,8.66498 0.9996,13.96046 2.18301,22.53795c1.65111,12.87906 -11.07112,18.11391 -23.96822,18.51828c-13.50002,0.42329 -40.48933,-2.33681 -38.60795,-14.38006c0,0 2.04161,-18.18604 2.64562,-30.07474c0.39433,-7.76165 -0.08752,-20.27684 -0.08752,-20.27684z" data-paper-data="{&quot;origPos&quot;:null}"/><path d="M347.77346,335.8422c0,0 -1.02068,-11.19901 -2.35908,-18.32344c-3.25778,-17.34146 -4.33184,-27.04384 -6.41467,-44.5156c-0.23306,-4.2094 4.31103,-13.1741 11.92724,-14.26676c4.69021,-0.67287 15.29135,-2.85599 15.29135,-2.85599c0,0 0.36103,5.06211 2.93455,7.30733c4.68387,4.08635 11.30507,4.01935 11.30507,4.01935c0,0 6.5069,-2.49434 8.3292,-5.83172c0.98299,-1.80026 0.32291,-7.33284 0.32291,-7.33284c0,0 14.79864,7.79 19.80953,17.80982c5.01089,10.01983 3.14465,18.27376 2.22779,29.91525c-0.91687,11.64149 -4.67337,33.6642 -4.67337,33.6642l-58.70051,0.41036z" data-paper-data="{&quot;origPos&quot;:null}"/></g><path d="M408.89588,391.00867c0,7.11067 -12.2416,15.16389 -27.53923,15.16389c-15.29763,0 -37.78813,-6.90878 -37.78813,-14.01945c0,-4.77858 1.53731,-10.32463 1.53731,-10.32463c0,0 26.2514,4.01125 38.10121,3.96734c12.43101,-0.04606 24.11537,-4.19787 24.11537,-4.19787c0,0 1.57348,2.30005 1.57348,9.41073z" data-paper-data="{&quot;origPos&quot;:null}" fill="#000000" stroke="none" stroke-width="0"/><g data-paper-data="{&quot;origPos&quot;:null,&quot;index&quot;:null}"><path d="M390.58729,333.75398c-0.39175,-19.25017 -0.55945,-52.73348 -0.55945,-52.73348c-0.04671,-8.69882 4.43441,-12.11676 4.97062,-19.80094c1.03637,-2.51278 -2.13241,-3.00474 -0.94542,-5.31283c2.77347,0.50212 7.22945,2.2638 10.88721,4.62639c3.66276,2.36582 7.5003,12.64763 7.53436,18.99237c0.08816,16.42347 -0.53109,13.14826 -3.37871,41.15564c-2.93874,28.90365 0.4427,63.86042 0.4427,63.86042c0,0 -5.63295,3.87295 -8.51736,4.90814c-3.40062,1.22046 -8.09274,6.48173 -8.81951,-0.5025c0,0 -1.15435,-32.58442 -1.61445,-55.19318z" data-paper-data="{&quot;origPos&quot;:null}" fill="#255dbc" stroke="#000000" stroke-width="0"/><path d="M393.01108,306.22325l-3.1527,10.88371c0,0 0.48416,-12.3195 -0.71663,-20.35193c-0.86416,-5.78059 -0.66454,-9.48762 -0.38488,-15.41573c0.14925,-3.16403 2.07453,-8.1309 2.07453,-8.1309l20.44194,-0.35559c0,0 1.9989,5.62377 1.74798,10.04146c-0.35246,6.20581 -1.70454,16.86206 -1.70454,16.86206z" data-paper-data="{&quot;origPos&quot;:null}" fill="#09162e" stroke="none" stroke-width="0"/><path d="M390.22643,276.59046c0,0 0.33663,-2.96623 1.35995,-5.86469c2.34991,-6.65601 2.74514,-15.62814 2.74514,-15.62814l9.83527,5.28379l-0.64263,15.38524z" data-paper-data="{&quot;origPos&quot;:null}" fill="#09162e" stroke="none" stroke-width="0"/><path d="M405.97103,296.24566c0,0 -0.2009,1.42085 -1.08487,1.09793c-0.88396,-0.32293 -0.68306,-1.74377 -0.68306,-1.74377l0.488,-1.19614c0.17455,-1.12228 0.76349,-4.51754 0.63771,-4.98926c-0.31942,-1.19797 -1.03957,-1.90988 -0.90651,-3.39988c0.04132,-0.46271 0.67987,-4.07176 1.47418,-3.94449c0.0416,0.00667 0.07341,0.03532 0.09877,0.07902c0.09501,-0.06441 0.39516,0.14708 0.32237,0.03355l-0.94854,-0.38117c-0.40367,-0.14726 -0.70503,-0.72754 -0.70503,-1.42098c0,-0.48277 0.14605,-0.9107 0.37102,-1.17585l0.9585,-1.15549l0.03857,0.08265c0.10351,-0.08913 0.20181,-0.1661 0.30032,-0.23508l-0.01485,-0.09547l0.21986,-0.08835v-0.34371h0.96695c0.03587,0 0.07125,0.00335 0.10603,0.00986c0.26791,0.03401 0.62516,0.2384 0.76406,1.03709c0.00641,0.03521 0.01202,0.07099 0.0168,0.10725c0.11361,0.81412 -0.14269,1.26652 -0.36976,1.49979c-0.09384,0.10495 -0.20059,0.18211 -0.31566,0.22409l-0.30984,0.12449c0.27082,0.49168 0.47317,1.00526 0.4357,1.29991c-0.30866,2.42715 -1.53042,2.61296 -1.86194,4.40184c-0.0255,0.13763 0.22766,-0.189 0.26552,-0.05892c0.25621,0.88051 0.62319,1.93628 0.72521,3.30274c0.14815,1.98439 -0.21512,3.89378 -0.51054,5.7932l-0.47894,1.1352zM406.172,283.66518c0.01112,0.03194 0.02367,0.06122 0.03813,0.08689c0.04672,0.08295 0.01552,0.02805 -0.03813,-0.08689z" data-paper-data="{&quot;origPos&quot;:null}" fill="#ffffff" stroke="none" stroke-width="0.5"/><path d="M390.58302,273.38651v-0.9714h18.97611l0.21756,0.9714z" data-paper-data="{&quot;origPos&quot;:null}" fill="#ffffff" stroke="none" stroke-width="0"/><path d="M389.49721,278.84332l-0.75492,2.82167l0.20067,-3.20889l1.6381,-6.05799l0.55425,0.38721z" data-paper-data="{&quot;origPos&quot;:null,&quot;origRot&quot;:0}" fill="#ffffff" stroke="none" stroke-width="0"/></g><g data-paper-data="{&quot;origPos&quot;:null}"><path d="M374.74098,334.5311c-0.74387,22.60876 -2.6102,55.19318 -2.6102,55.19318c-1.17503,6.98423 -8.76111,1.72295 -14.25914,0.5025c-4.66342,-1.03519 -13.77061,-4.90813 -13.77061,-4.90813c0,0 3.10022,-35.73389 0.71576,-63.86042c-2.38446,-28.12653 -6.40447,-32.30903 -6.26195,-48.73249c0.05507,-6.34474 5.28372,-11.38102 11.20555,-13.74686c5.91375,-2.36259 8.97614,-1.79293 13.46022,-2.29505c1.9191,2.3081 2.71295,2.80006 4.38852,5.31283c0.86694,7.68418 8.11187,11.10211 8.03636,19.80093c0,0 -0.27112,33.48331 -0.9045,52.73348z" data-paper-data="{&quot;origPos&quot;:null}" fill="#255dbc" stroke="#000000" stroke-width="0"/><path d="M342.67291,300.85136c0,0 -1.67199,-11.29208 -2.24184,-17.49788c-0.40565,-4.41769 2.92127,-10.04146 2.92127,-10.04146l30.48002,0.6735c0,0 3.11271,4.96687 3.35403,8.1309c0.45214,5.92811 0.77488,9.63514 -0.62227,15.41573c-1.9414,8.03242 -1.15862,20.35193 -1.15862,20.35193l-5.0972,-10.88371z" data-paper-data="{&quot;origPos&quot;:null}" fill="#09162e" stroke="none" stroke-width="0"/><path d="M355.85435,274.6363l-1.67481,-17.61061l8.66859,-3.09374c0,0 5.96437,10.91492 9.76364,17.57093c1.65446,2.89845 2.19873,5.86469 2.19873,5.86469z" data-paper-data="{&quot;origPos&quot;:null}" fill="#09162e" stroke="none" stroke-width="0"/><path d="M349.35499,296.24571l-0.77434,-1.1352c-0.47762,-1.89941 -1.06493,-3.8088 -0.82541,-5.7932c0.16493,-1.36646 0.75826,-2.42223 1.17249,-3.30274c0.0612,-0.13008 0.47051,0.19656 0.42927,0.05892c-0.53599,-1.78888 -2.51131,-1.97469 -3.01033,-4.40184c-0.06058,-0.29465 0.26658,-0.80823 0.70443,-1.29991l-0.50092,-0.12449c-0.18605,-0.04198 -0.35865,-0.11914 -0.51035,-0.22409c-0.36714,-0.23326 -0.7815,-0.68567 -0.59781,-1.49979c0.00772,-0.03626 0.01679,-0.07204 0.02715,-0.10725c0.22457,-0.79868 0.80217,-1.00307 1.23532,-1.03709c0.05624,-0.00652 0.11344,-0.00986 0.17142,-0.00986h1.56333v0.34371l0.35547,0.08835l-0.02401,0.09547c0.15928,0.06898 0.31822,0.14595 0.48556,0.23508l0.06235,-0.08265l1.54968,1.15549c0.36374,0.26514 0.59988,0.69307 0.59988,1.17585c0,0.69343 -0.48723,1.27372 -1.13987,1.42098l-1.53357,0.38117c-0.11767,0.11354 0.36757,-0.09796 0.52118,-0.03355c0.04098,-0.0437 0.09244,-0.07235 0.15969,-0.07902c1.28422,-0.12727 2.3166,3.48178 2.38341,3.94449c0.21512,1.48999 -0.94919,2.2019 -1.46561,3.39988c-0.20334,0.47171 0.74881,3.86697 1.03104,4.98926l0.78897,1.19614c0,0 0.32481,1.42085 -1.10436,1.74377c-1.42916,0.32291 -1.75397,-1.09793 -1.75397,-1.09793zM348.96839,285.30628c0.02338,-0.02567 0.04369,-0.05495 0.06166,-0.08689c-0.08675,0.11494 -0.1372,0.16984 -0.06166,0.08689z" data-paper-data="{&quot;origPos&quot;:null}" fill="#ffffff" stroke="none" stroke-width="0.5"/><path d="M343.20207,274.16361l0.35174,-0.9714h30.68006v0.9714z" data-paper-data="{&quot;origPos&quot;:null}" fill="#ffffff" stroke="none" stroke-width="0"/><path d="M373.34097,273.56243l0.89609,-0.38721l2.64844,6.05799l0.32443,3.20889l-1.22054,-2.82167z" data-paper-data="{&quot;origPos&quot;:null,&quot;origRot&quot;:0}" fill="#ffffff" stroke="none" stroke-width="0"/><path d="M342.44984,302.37932c0,0 -8.24192,-26.45902 -2.84563,-35.84436c6.24746,-10.86573 12.4526,-8.15969 12.4526,-8.15969c0,0 -3.49298,9.68681 -6.18287,15.76305c-2.68989,6.07623 -3.4241,28.24101 -3.4241,28.24101z" data-paper-data="{&quot;origPos&quot;:null}" fill="#000000" stroke="none" stroke-width="0"/></g></g><path d="M388.08348,190.01382c15.89754,-0.42788 21.3993,11.11382 22.98041,16.10434c1.94195,6.12946 0.8541,22.08968 -0.14707,28.96671c-1.78409,12.76127 -10.20356,24.77991 -18.13823,26.69607c-3.42131,-0.22524 -25.66515,-5.80261 -28.54333,-10.80361c-6.89748,-11.98472 -9.29538,-15.90455 -9.72631,-29.72567c-0.48024,-15.40332 9.33378,-30.91505 33.57452,-31.23784z" fill="url(#color-2)" stroke="none" stroke-width="0"/><g stroke="none" stroke-width="0"><path d="M391.64936,243.22994l5.84977,-0.82425c0.64514,0.38166 -0.16324,2.29107 -1.80615,2.29493c-1.61162,0.0038 -4.30863,-0.51313 -4.30863,-0.51313l0.26499,-0.95756z" data-paper-data="{&quot;origPos&quot;:null,&quot;index&quot;:null}" fill="#f4d7c8"/><path d="M396.50635,243.76553c0.40231,-0.15888 0.789,-0.14374 0.86368,0.03378c0.07468,0.17751 -0.19093,0.45023 -0.59323,0.60912c-0.40232,0.15887 -0.789,0.14375 -0.86368,-0.03378c-0.07468,-0.17751 0.19093,-0.45024 0.59322,-0.60913z" data-paper-data="{&quot;origPos&quot;:null,&quot;origRot&quot;:0}" fill="url(#color-3)"/><path d="M391.53096,240.88203c0,0 -0.31144,-4.02462 -0.8066,-6.60059c-0.38677,-2.01215 -1.45322,-5.15588 -1.45322,-5.15588c0,0 2.31422,2.37649 2.70235,3.91768c0.60066,2.38516 0.15988,6.03137 0.15988,6.03137z" data-paper-data="{&quot;origPos&quot;:null}" fill="url(#color-4)"/><path d="M393.43908,243.6287c0.51759,0.01466 0.93025,0.18186 0.92174,0.3734c-0.00851,0.19154 -0.435,0.3349 -0.9526,0.32023c-0.51757,-0.0147 -0.93025,-0.18184 -0.92174,-0.37339c0.00851,-0.19154 0.435,-0.33491 0.9526,-0.32024z" data-paper-data="{&quot;origPos&quot;:null}" fill="url(#color-5)"/><path d="M396.26006,244.20028c-0.7834,-0.02958 -1.19629,-0.32708 -1.82739,-0.68844c-1.19921,-0.47383 -2.43681,-0.16852 -2.79023,0.70985c-0.30184,0.17897 -0.73887,-0.25818 -0.92694,-0.53011c-0.38698,-0.55952 -0.51912,-1.33657 -0.20812,-1.93882c0.23704,-0.45898 0.31008,-0.60442 0.79379,-1.0846c0.42287,-0.41979 1.2962,-5.72751 0.02329,-8.92081c-1.88314,-4.72417 -5.7816,-5.20184 -11.01077,-5.42657c-2.55556,-0.10983 -8.60215,2.47259 -8.60215,2.47259c0,0 2.18721,-4.71902 5.46315,-6.16613c4.84281,-2.13927 8.91791,-2.11148 14.22878,-1.75131c17.23755,0.25694 19.04036,5.16629 19.04036,5.16629c0,0 -5.15751,0.67262 -8.333,1.59288c-3.89448,1.12863 -4.99289,2.58857 -5.59209,4.60372c-0.62093,2.08821 -0.72224,3.98377 -0.14347,6.46806c0.26132,1.12168 1.42743,1.64883 1.60649,2.78551c0.23302,1.47917 -0.93828,2.7375 -1.7217,2.70791z" data-paper-data="{&quot;origPos&quot;:null}" fill="url(#color-6)"/></g><path d="M405.35495,228.13173c3.28598,0.0432 6.2422,2.04668 7.38469,2.78495c0.52934,0.34203 -4.50652,-1.49277 -7.71771,-1.26993c-2.41178,0.16738 -3.38485,0.14691 -5.26959,1.59031c-0.53312,0.40832 -0.99462,0.40769 -1.33608,0.23248c-0.34148,-0.17521 -0.33922,-0.83919 0.19392,-1.24751c0,0 2.68503,-2.14363 6.74474,-2.09027z" data-paper-data="{&quot;origRot&quot;:0,&quot;index&quot;:null}" fill="#38301c" stroke="none" stroke-width="0"/><path d="M414.57433,224.6316c-5.86825,-7.81045 -6.04566,-15.17212 -16.07606,-14.83858c-10.83789,0.3604 -26.69776,8.4989 -33.41381,16.6666c-2.40296,2.92236 0.22317,10.93668 0.22317,10.93668l-2.86927,0.45132c0,0 -1.90258,-2.346 -2.8796,-4.22761c-1.99776,-3.84743 -3.48727,8.59478 -3.48727,8.59478c0,0 -5.16488,-23.14665 -1.80829,-34.21958c3.55991,-11.74366 16.19698,-18.76613 30.83196,-19.01165c14.63498,-0.24554 22.90036,2.13755 28.80333,13.64487c0,0 4.61861,7.36529 3.66917,12.41733z" fill="#3d3021" stroke="none" stroke-width="0"/><path d="M391.76794,212.40922c-10.2129,0.33961 -20.194,3.76485 -26.52275,11.46151c-2.3495,2.85735 -4.10958,10.21269 -4.10958,10.21269c0,0 -2.1441,-19.76382 1.63863,-25.80398c2.33654,-6.9019 6.52161,-6.69335 6.52161,-6.69335c0,0 6.32983,-10.76214 22.47211,-11.93282c4.06347,0.03294 9.49321,0.74844 12.79171,3.12181c2.69546,1.93945 2.54236,3.60182 4.96249,5.8754c-5.02356,3.63611 -11.21162,13.5412 -17.7542,13.75875z" fill="#453725" stroke="none" stroke-width="0"/><g stroke="none" stroke-width="0"><path d="M370.62134,217.97695l-4.19091,-2.05412l6.00747,0.43257l-1.21184,-1.20411c0,0 3.5794,1.46309 8.79573,0.33745c7.09314,-1.53065 16.96278,-6.32588 22.16003,-6.84456c3.96524,-0.39573 6.85115,0.104 9.06295,3.51986c1.14027,1.761 1.52254,5.12159 1.52254,5.12159c0,0 -0.28599,1.97825 0.49943,3.40027c-0.30335,0.88973 -0.19386,2.37655 -0.33484,3.33258l-1.25866,-4.70236c0,0 -1.27221,-3.76122 -1.42537,-3.69621c-0.45946,0.195 -0.16879,3.1213 -0.16879,3.1213c0,0 -1.00063,-4.04145 -1.49467,-5.32029c-1.22193,0.62506 -0.15824,1.47991 -2.40106,1.84974c-8.2648,1.36275 -11.72828,7.27888 -20.09358,7.27888c-12.87069,0 -20.29855,-3.62454 -20.29855,-3.62454z" data-paper-data="{&quot;origPos&quot;:null}" fill="url(#color-7)"/><path d="M368.58312,215.20438l-4.28662,-2.99611l6.14469,0.63094l-1.23953,-1.75629c0,0 3.66117,2.13405 8.99664,0.4922c9.50474,-2.9248 3.43236,-12.83648 25.00033,-15.90595c10.94743,-1.558 5.27848,9.66821 6.9095,16.38458c0.42406,1.74622 -0.13531,4.11981 -0.13531,4.11981l-0.41848,-2.56158c0,0 -0.51215,-0.89794 -2.73052,-0.26328c-1.90626,0.54536 -3.59152,-0.10156 -3.59152,-0.10156c0,0 1.34186,0.1733 3.64305,-1.00165c1.51867,-0.74082 0.10381,-1.39711 -0.0593,-0.9559c-12.09989,2.32644 -12.2326,9.78445 -22.23381,9.78445c-13.16466,0 -19.91554,-4.48685 -19.91554,-4.48685z" data-paper-data="{&quot;origPos&quot;:null}" fill="#3b2f20"/></g><path d="M362.35824,236.05862c0.89631,4.35912 2.171,8.36579 -1.27946,9.87611c-1.90434,0.83355 -5.66466,-2.33711 -6.64028,-7.08187c-0.97562,-4.74476 0.43722,-6.32761 3.12892,-7.16117c2.69172,-0.83355 3.8152,-0.37783 4.7908,4.36694z" data-paper-data="{&quot;origRot&quot;:0}" fill="#f6d8c8" stroke="none" stroke-width="0"/><g data-paper-data="{&quot;origPos&quot;:null,&quot;origRot&quot;:0}" stroke="none" stroke-width="0"><path d="M378.31298,238.75493c-3.9361,-0.75727 -5.69825,-1.51386 -5.88983,-4.58993c-0.07357,-1.18129 0.06425,-2.0096 0.80424,-2.7796c0.69369,-0.72183 2.18656,-1.48052 3.13012,-1.65989c2.25957,-0.42955 4.02041,-0.53512 6.02056,-0.15032c4.64729,1.55949 5.06252,5.37981 5.06252,5.37981c0,0 -0.50912,1.36165 -1.3404,2.19247c-2.78642,2.78476 -7.78718,1.60742 -7.78718,1.60742z" data-paper-data="{&quot;origPos&quot;:null}" fill="#000000"/><path d="M385.73443,237.7367c-0.9548,1.13778 -2.43305,1.36703 -2.43305,1.36703c-1.7483,-0.06346 -2.79923,-0.0003 -4.50549,-0.30078c-1.75375,-0.30886 -3.00006,-0.33067 -4.13637,-1.50648c-1.13719,-1.17671 -1.72898,-2.45592 -1.48614,-3.52009c0.11984,-0.5252 0.04484,-1.80353 1.55341,-2.35731c1.1113,-0.40796 1.97616,-1.23037 2.93625,-1.35246c2.27342,-0.28906 2.66818,-0.35849 4.91014,0.07287c3.52513,1.67003 4.59996,5.10835 4.59996,5.10835c0,0 -0.4839,1.35113 -1.43872,2.48888z" data-paper-data="{&quot;origPos&quot;:null}" fill="#ffffff"/></g><g stroke="#000000" stroke-width="0"><path d="M382.17244,233.05839c0.21293,1.30765 -0.08301,2.58687 -0.73364,3.59668c-0.65062,1.00982 -1.82145,1.38109 -3.02596,1.61229c-1.20448,0.23123 -2.21742,0.27912 -3.1476,-0.4273c-0.93017,-0.70637 -1.61223,-1.7979 -1.82521,-3.10554c-0.1145,-0.70326 -0.00174,-1.39831 0.15414,-2.0476c3.81871,-1.44541 4.40917,-2.19069 8.49314,-0.04441c0.03366,0.13599 0.06214,0.27467 0.08514,0.4159z" data-paper-data="{&quot;origPos&quot;:null}" fill="#898151"/><path d="M380.38739,230.0549c0.93016,0.70637 1.61218,1.79785 1.82509,3.10556c0.04516,0.27731 -0.01267,0.55337 -0.01181,0.82582c-0.67227,-0.1464 -0.87292,-1.3076 -4.36742,-1.35764c-3.18018,-0.04555 -3.89576,0.83457 -4.41303,1.07006c0.05121,-0.89744 0.33386,-1.74537 0.79355,-2.45884c0.65062,-1.00982 1.65604,-1.75032 2.86054,-1.98152c1.2045,-0.23115 2.38284,0.09016 3.31306,0.79658z" data-paper-data="{&quot;origPos&quot;:null}" fill="#4d461c"/></g><path d="M380.08372,238.92874c-1.27197,0 -3.21641,0.09902 -3.21641,0.09902v-0.41267c0,0 1.97792,-0.00954 3.21641,-0.00954c1.60681,0 4.07437,0.00954 4.07437,0.00954v0.41268c0,0 -2.50104,-0.09902 -4.07437,-0.09902z" data-paper-data="{&quot;origPos&quot;:null}" fill="#000000" stroke="none" stroke-width="0"/><path d="M379.95269,229.83103c-1.19194,0.01476 -4.22746,1.16276 -4.22746,1.16276c0,0 -3.07782,1.28467 -2.59997,0.57815c0.47044,-0.69558 1.58077,-1.27433 2.85138,-1.75247c1.59572,-0.60046 2.8782,-0.88747 4.61004,-0.85574c2.67545,0.42195 4.24417,1.5604 5.32054,2.85765c-0.14009,0.1638 -1.49418,-0.74075 -1.59925,-0.55083c-0.41174,-0.30314 -0.82282,-0.58461 -1.37408,-0.87526c-0.87678,-0.46227 -1.78926,-0.57902 -2.9812,-0.56427z" data-paper-data="{&quot;origPos&quot;:null,&quot;origRot&quot;:0}" fill="#000000" stroke="#000000" stroke-width="0"/><g stroke="none" stroke-width="1"><path d="M376.8696,231.02885c0.55921,-0.49105 1.26753,-0.71445 1.99163,-0.55373c0.72413,0.1607 1.32843,0.67545 1.71959,1.37747c0.39118,0.70205 0.56908,1.5913 0.44107,2.50035c-0.12806,0.90905 -0.53805,1.66782 -1.09721,2.15889c-0.55917,0.49105 -1.2675,0.71446 -1.99158,0.55373c-0.72409,-0.1607 -1.32848,-0.67546 -1.71963,-1.37751c-0.39118,-0.70205 -0.56906,-1.59127 -0.44104,-2.50028c0.12801,-0.90905 0.53802,-1.66785 1.0972,-2.15895z" data-paper-data="{&quot;origPos&quot;:null}" fill="#000000"/><path d="M379.43856,231.49793c0.16858,-0.2295 0.40491,-0.35616 0.66866,-0.3253c0.26372,0.03075 0.50575,0.21324 0.68347,0.48325c0.17776,0.26997 0.29116,0.62755 0.29812,1.00804c0.00697,0.38046 -0.09375,0.71299 -0.26232,0.94257c-0.16858,0.2295 -0.40491,0.35614 -0.66865,0.32529c-0.26374,-0.03083 -0.50571,-0.21325 -0.68346,-0.48326c-0.17772,-0.26993 -0.29117,-0.62748 -0.29814,-1.00801c-0.00697,-0.38046 0.0938,-0.71306 0.26237,-0.94268z" data-paper-data="{&quot;origPos&quot;:null,&quot;origRot&quot;:0}" fill="#ffffff"/><path d="M375.73397,234.31113c0.1484,-0.09755 0.33645,-0.14194 0.5287,-0.10999c0.19228,0.03195 0.35266,0.13424 0.45651,0.27373c0.10383,0.13951 0.15107,0.31616 0.11707,0.49691c-0.03394,0.18071 -0.14284,0.33149 -0.29127,0.42902c-0.1484,0.09755 -0.3364,0.14203 -0.52869,0.11004c-0.19224,-0.03193 -0.35258,-0.13418 -0.45642,-0.27369c-0.10383,-0.13947 -0.15108,-0.31621 -0.11707,-0.49695c0.03403,-0.18074 0.14284,-0.33144 0.29123,-0.42898z" data-paper-data="{&quot;origPos&quot;:null}" fill="#ffffff"/></g><path d="M378.76774,228.3471c4.93679,-0.36599 8.33954,1.56654 8.33954,1.56654c0.67457,0.36643 0.71927,1.02893 0.3148,1.23009c-0.40444,0.20119 -0.96599,0.23733 -1.64054,-0.1291c-2.38468,-1.29536 -3.56746,-1.19994 -6.51289,-1.18123c-3.92169,0.02496 -9.93376,2.24399 -9.31125,1.86187c1.34363,-0.82479 4.81439,-3.05199 8.81029,-3.34821z" data-paper-data="{&quot;origRot&quot;:0,&quot;index&quot;:null}" fill="#38301c" stroke="none" stroke-width="0"/><g data-paper-data="{&quot;origPos&quot;:null,&quot;origRot&quot;:0}" stroke="none" stroke-width="0"><path d="M399.81455,237.22811c-0.72698,-0.738 -1.22373,-1.98508 -1.22373,-1.98508c0,0 0.10725,-3.5799 3.7966,-5.23811c1.60516,-0.44668 3.0451,-0.42566 4.91068,-0.12455c0.77902,0.12574 2.04027,0.76743 2.64865,1.4099c0.64898,0.68532 0.81124,1.45148 0.8227,2.55602c-0.51988,2.87356 -2.45855,3.87807 -4.51789,4.53807c0,0 -4.00021,1.31745 -6.437,-1.15625z" data-paper-data="{&quot;origPos&quot;:null}" fill="#000000"/><path d="M399.68257,232.72982c0.71714,-1.29801 1.28833,-1.39171 2.58005,-2.19028c1.79921,-0.50071 2.12482,-0.45334 3.99316,-0.28379c1.63959,0.33211 3.45494,1.96391 3.64403,3.24932c0.26202,0.98144 0.0928,2.21193 -0.76195,3.35898c-0.8541,1.14616 -1.86744,1.2213 -3.27659,1.58633c-1.37099,0.35514 -2.23041,0.34246 -3.64994,0.47847c0,0 -1.21736,-0.14874 -2.06343,-1.1675c-0.84608,-1.01874 -1.6358,-2.48291 -1.6358,-2.48291z" data-paper-data="{&quot;origPos&quot;:null}" fill="#ffffff"/></g><g data-paper-data="{&quot;origRot&quot;:0}" stroke="#000000" stroke-width="0"><path d="M399.29674,233.20224c0.03104,-0.13434 0.06619,-0.26587 0.10516,-0.39436c3.42127,-1.77543 3.81968,-1.01584 6.704,0.6477c0.06391,0.6362 0.08962,1.31338 -0.06495,1.98227c-0.28744,1.24375 -0.92567,2.246 -1.72474,2.85982c-0.79907,0.61383 -2.1445,0.64249 -3.07472,0.33409c-0.93026,-0.3084 -1.27142,-0.89611 -1.69323,-1.91464c-0.4218,-1.01853 -0.53895,-2.27115 -0.25153,-3.5149z" data-paper-data="{&quot;origPos&quot;:null}" fill="#898151"/><path d="M400.98046,230.43778c0.79909,-0.61383 1.75907,-0.83926 2.68932,-0.53093c0.93026,0.30837 1.65685,1.09289 2.07866,2.11143c0.29803,0.71963 0.44398,1.55609 0.40259,2.42374c-0.38707,-0.26356 -0.87201,-1.16188 -3.38794,-1.34452c-2.76457,-0.20072 -3.02892,0.90289 -3.57325,0.99597c0.02553,-0.26225 0.005,-0.53209 0.06595,-0.79587c0.2874,-1.24377 0.9256,-2.24603 1.72464,-2.85984z" data-paper-data="{&quot;origPos&quot;:null}" fill="#4d461c"/></g><g data-paper-data="{&quot;index&quot;:null,&quot;origRot&quot;:0}" stroke="none" stroke-width="1"><path d="M401.6614,231.85746c0.49131,-0.43654 1.10672,-0.62654 1.72909,-0.46645c0.62241,0.16007 1.13527,0.64024 1.46085,1.28691c0.3256,0.64669 0.46379,1.45979 0.33755,2.28512c-0.12628,0.82533 -0.49338,1.50848 -0.98463,1.94504c-0.49128,0.43653 -1.10669,0.62654 -1.72906,0.46645c-0.62239,-0.16007 -1.1353,-0.64024 -1.46088,-1.28694c-0.3256,-0.64669 -0.46381,-1.45978 -0.33754,-2.28508c0.12623,-0.82534 0.49337,-1.50851 0.98465,-1.94507z" data-paper-data="{&quot;origPos&quot;:null}" fill="#000000"/><path d="M403.97169,232.33551c0.14953,-0.20578 0.35573,-0.31661 0.58294,-0.28351c0.22715,0.033 0.43295,0.20374 0.58173,0.45298c0.14881,0.2492 0.24054,0.57697 0.23996,0.92356c-0.00056,0.34658 -0.09328,0.64746 -0.24279,0.85332c-0.14953,0.20578 -0.35573,0.31662 -0.58292,0.28353c-0.22718,-0.03308 -0.43292,-0.20377 -0.58172,-0.45301c-0.14877,-0.24916 -0.24054,-0.5769 -0.23999,-0.92354c0.00056,-0.34658 0.09332,-0.64752 0.24283,-0.85339z" data-paper-data="{&quot;origPos&quot;:null,&quot;origRot&quot;:0}" fill="#ffffff"/><path d="M400.72452,234.82691c0.12982,-0.08601 0.29292,-0.12287 0.45838,-0.09012c0.16546,0.03274 0.30214,0.12893 0.3894,0.2579c0.08723,0.12899 0.12497,0.29075 0.09248,0.45469c-0.03244,0.16392 -0.12905,0.29913 -0.2589,0.38514c-0.12982,0.08601 -0.29289,0.12297 -0.45836,0.09018c-0.16543,-0.03272 -0.30212,-0.12886 -0.38935,-0.25786c-0.08723,-0.12898 -0.12498,-0.2908 -0.09248,-0.45474c0.03251,-0.16394 0.12906,-0.29908 0.25887,-0.3851z" data-paper-data="{&quot;origPos&quot;:null}" fill="#ffffff"/></g><path d="M401.32814,238.88724l-0.01962,-0.4382c0,0 1.33726,0.04998 2.87313,-0.00505c1.1838,-0.04243 3.07486,-0.39908 3.07486,-0.39908l0.01963,0.4382c0,0 -1.70627,0.33602 -2.92208,0.37959c-1.50388,0.05389 -3.02593,0.02455 -3.02593,0.02455z" data-paper-data="{&quot;origPos&quot;:null,&quot;origRot&quot;:0}" fill="#000000" stroke="none" stroke-width="0"/><path d="M399.51163,232.42048c0.74482,-1.2586 1.90519,-2.41114 4.03538,-2.99954c1.40291,-0.16207 2.47272,-0.29209 3.82804,0.12932c1.07919,0.33555 2.48942,1.66026 2.48942,1.66026c0,0 -1.4144,-0.29642 -2.24696,-0.47379c-1.05853,-0.22549 -2.32748,-0.40924 -3.29669,-0.33089c-0.96921,0.07836 -1.6154,0.28157 -2.5794,1.06935c-0.98121,0.80184 -2.71081,2.83112 -2.71081,2.83112z" data-paper-data="{&quot;origPos&quot;:null,&quot;origRot&quot;:0}" fill="#000000" stroke="#000000" stroke-width="0"/><path d="M389.20992,251.36953c0,0 1.63007,-0.68904 3.50459,-0.78698c1.87451,-0.09794 4.79677,0.35328 4.79677,0.35328c0,0 -2.49399,-0.04942 -4.65505,0.06348c-2.16102,0.1129 -3.54196,0.86234 -3.6463,0.37022z" data-paper-data="{&quot;origRot&quot;:0,&quot;index&quot;:null}" fill="#000000" stroke="#000000" stroke-width="0"/><g stroke="none" stroke-width="0"><path d="M394.56319,325.25135l-8.4315,0.75473l-1.09257,-12.20562l8.27263,-0.35041c0,0 2.20787,0.78384 2.39979,2.92773c0.12701,1.4188 -1.14835,8.87354 -1.14835,8.87354z" data-paper-data="{&quot;origPos&quot;:null}" fill="#000000"/><path d="M368.32448,313.51875c10.70022,0.50384 19.09757,-0.19723 27.27577,2.7247c4.37743,1.56399 4.54284,4.4625 0.37565,6.53939c-8.00004,3.98719 -19.32097,4.13183 -29.22449,4.54849c-8.88017,0.3736 -10.75427,3.23818 -28.60398,3.16707c-11.48611,0.29159 -10.76007,-22.13132 0.7157,-21.68663c11.47577,0.4447 18.76114,4.20313 29.46135,4.70697z" data-paper-data="{&quot;origPos&quot;:null}" fill="url(#color-8)"/><g data-paper-data="{&quot;origPos&quot;:null}"><path d="M392.72857,324.78324l-6.57461,1.26389l-1.29151,-12.24899l9.43179,-0.21521c0,0 -2.84389,2.32364 -2.92759,5.22852z" data-paper-data="{&quot;origPos&quot;:null}" fill="url(#color-9)"/><path d="M390.28483,325.79263c0,0 -36.61583,5.78639 -50.20877,4.80579c-8.28778,-0.5979 -10.75399,-1.66769 -10.6016,-9.76385c-0.08076,-7.66868 3.5866,-11.41026 9.12896,-12.41864c5.54237,-1.00836 55.16312,5.492 55.16312,5.492c0,0 -5.09327,0.88779 -5.21865,4.16724c-0.13305,3.4808 1.73692,7.71744 1.73692,7.71744z" data-paper-data="{&quot;origPos&quot;:null,&quot;origRot&quot;:0}" fill="#1e4994"/></g></g><g stroke="none" stroke-width="0"><path d="M357.38254,313.85391c-0.04152,-2.15205 2.06844,-3.17052 2.06844,-3.17052l8.26189,-0.548l0.23635,12.25215l-8.46364,0.16326c0,0 -2.07555,-7.27268 -2.10303,-8.69689z" data-paper-data="{&quot;origPos&quot;:null}" fill="#000000"/><path d="M384.29854,308.04432c10.58263,-1.66024 17.41787,-6.18593 28.7779,-7.87139c11.36002,-1.68548 14.51132,20.52678 3.06124,21.48142c-17.73693,2.0047 -19.91037,-0.63995 -28.77873,-0.04919c-9.89035,0.65884 -21.16029,1.74169 -29.54526,-1.35523c-4.36769,-1.61317 -4.5173,-4.51253 -0.3351,-6.5416c7.81347,-3.79084 16.23736,-4.00375 26.81998,-5.66401z" data-paper-data="{&quot;origPos&quot;:null}" fill="url(#color-10)"/><g data-paper-data="{&quot;origPos&quot;:null}"><path d="M361.96548,315.80246c-0.39796,-2.87869 -3.47686,-4.88052 -3.47686,-4.88052l9.39959,-0.80799l0.04327,12.31681l-6.67284,-0.54409z" data-paper-data="{&quot;origPos&quot;:null}" fill="url(#color-11)"/><path d="M363.79734,322.62536c0,0 1.39994,-4.4143 0.89051,-7.8602c-0.47995,-3.24655 -5.63943,-3.57727 -5.63943,-3.57727c0,0 48.6243,-11.83852 54.24331,-11.43661c5.619,0.40193 9.67017,3.72414 10.42079,11.35641c1.0287,8.03199 -1.30707,9.36269 -9.48128,10.85504c-13.40663,2.44763 -50.4339,0.66263 -50.4339,0.66263z" data-paper-data="{&quot;origPos&quot;:null,&quot;origRot&quot;:0}" fill="#1e4994"/></g></g><g data-paper-data="{&quot;index&quot;:null}" stroke="none" stroke-width="0"><g data-paper-data="{&quot;origPos&quot;:null,&quot;origRot&quot;:0,&quot;index&quot;:null}" fill="#ead0c0"><path d="M352.5151,325.94211c-1.21723,0.76739 -2.46941,2.32883 -2.92337,2.55112c-1.40388,0.68745 -1.62354,1.22462 -2.80383,-0.04512c-1.05792,-1.1381 -0.7061,-2.16474 0.3627,-3.15033c0.64239,-0.59237 0.92367,-1.48346 1.55086,-2.09215c1.0877,-1.0556 3.21806,-4.45568 3.21806,-4.45568c0,0 4.68319,2.43068 5.66354,3.46158c0,0 -2.74826,2.26813 -5.06797,3.73057z" data-paper-data="{&quot;origRot&quot;:0,&quot;origPos&quot;:null,&quot;index&quot;:null}"/><path d="M347.6783,325.12272c0.52693,-0.22995 1.27019,0.58604 1.27019,0.58604c1.062,0.87166 2.35373,1.49364 0.88793,2.5608c-1.1049,0.80441 -1.81367,1.74819 -2.53717,2.64737c-0.26181,0.32537 -0.83975,1.2917 -1.0637,1.64794c-0.66757,1.062 -1.61129,0.72811 -2.61262,-0.23746c-0.78865,-0.76047 -1.14102,-1.74041 0.61515,-3.92299c1.75616,-2.18258 1.89315,-2.60655 3.44021,-3.28169z" data-paper-data="{&quot;origRot&quot;:0,&quot;origPos&quot;:null,&quot;index&quot;:null}"/><path d="M346.28502,331.30328c-0.16948,1.55758 -0.66826,1.70111 -2.10958,3.61135c-1.44132,1.91024 -2.03837,1.25892 -2.62908,0.97801c-0.63194,-0.30052 -1.21405,-1.7495 -0.41065,-3.06025c0.80341,-1.31075 1.34118,-2.38969 2.16614,-2.94676c0.71586,-0.48342 1.05551,-0.68198 2.11663,0.25328c0,0 0.92426,0.63388 0.86654,1.16439z" data-paper-data="{&quot;origRot&quot;:0,&quot;origPos&quot;:null,&quot;index&quot;:null}"/></g><g data-paper-data="{&quot;origRot&quot;:0,&quot;origPos&quot;:null}" fill="#efd6c8"><path d="M348.02813,316.01192c1.38691,0.73276 6.05179,5.60848 4.45795,6.04556c-2.31751,0.63552 -5.16556,0.8042 -6.15117,2.4187c-0.56833,0.93096 -1.53264,1.57372 -2.07909,2.5159c-0.90916,1.56762 -2.01441,2.33955 -3.54048,1.55815c-1.7026,-0.87177 -1.1317,-1.3159 -0.63435,-3.15373c0.16083,-0.59428 1.28903,-2.80855 1.6164,-3.34481c2.39242,-3.91893 2.58598,-4.58381 4.65946,-6.2699c0.70623,-0.57427 1.67128,0.23013 1.67128,0.23013z" data-paper-data="{&quot;origRot&quot;:0,&quot;origPos&quot;:null}"/><path d="M341.75601,323.16336c0.60376,-0.41878 1.60353,0.33251 1.60353,0.33251c1.39027,0.72717 3.02436,1.09591 1.40037,2.76391c-1.22413,1.2573 -1.95383,2.56728 -2.70703,3.82886c-0.27255,0.45649 -0.842,1.7562 -1.06501,2.2384c-0.66482,1.4375 -1.84301,1.3099 -3.17251,0.45518c-1.04711,-0.67318 -1.59813,-1.7273 0.23014,-4.78959c1.82827,-3.06229 1.93791,-3.59975 3.71054,-4.82928z" data-paper-data="{&quot;origRot&quot;:0,&quot;origPos&quot;:null}"/><path d="M338.56394,328.80365c0.55183,-0.38123 1.61882,0.26608 1.61882,0.26608c1.45007,0.61909 1.37406,1.11489 1.14344,2.1987c-0.26577,1.24898 -1.2155,2.49106 -2.30771,4.16664c-1.09222,1.67559 -3.26152,2.48332 -3.84688,1.9613c-0.54716,-0.48794 -1.14026,-1.34935 0.34046,-4.09158c1.48073,-2.74224 1.43173,-3.38184 3.05188,-4.50113z" data-paper-data="{&quot;origRot&quot;:0,&quot;origPos&quot;:null}"/></g><g fill="#f6ded1"><path d="M347.97265,314.71147c0.83976,-0.34998 1.51266,0.74439 1.51266,0.74439c1.09349,1.15387 4.0513,7.42085 2.41266,7.36064c-2.38263,-0.08754 -5.12785,-0.80106 -6.54261,0.4919c-0.81578,0.74556 -1.92018,1.0835 -2.71861,1.84693c-1.32843,1.27021 -2.60474,1.6924 -3.81537,0.44739c-1.35066,-1.38902 -0.67782,-1.65202 0.34163,-3.31693c0.32965,-0.53836 2.05845,-2.38077 2.52837,-2.81023c3.43409,-3.13847 3.8158,-3.7366 6.2813,-4.76409z" data-paper-data="{&quot;origRot&quot;:0,&quot;origPos&quot;:null}"/><path d="M340.39609,321.20393c0.69264,-0.24323 1.44826,0.78682 1.44826,0.78682c1.13679,1.11746 2.60455,1.94895 0.59479,3.14036c-1.51491,0.89806 -2.56978,1.98929 -3.63406,3.02581c-0.38511,0.37506 -1.28347,1.50179 -1.62802,1.91646c-1.02715,1.23619 -2.12285,0.77384 -3.16679,-0.45282c-0.8222,-0.9661 -1.06531,-2.16861 1.51809,-4.68464c2.5834,-2.51603 2.83417,-3.01782 4.86774,-3.73199z" data-paper-data="{&quot;origRot&quot;:0,&quot;origPos&quot;:null}"/><path d="M334.08088,326.40228c0.52972,-0.40596 1.67376,0.20085 1.67376,0.20085c1.53224,0.56266 1.49763,1.06419 1.35625,2.16322c-0.16292,1.26651 -1.02391,2.55423 -1.99267,4.28361c-0.96875,1.7294 -3.22898,2.88893 -3.87106,2.38827c-0.60018,-0.468 -1.16147,-1.56779 0.11115,-4.38544c1.27264,-2.81766 1.16732,-3.45864 2.72256,-4.65051z" data-paper-data="{&quot;origRot&quot;:0,&quot;origPos&quot;:null}"/></g><path d="M345.85632,313.146c6.71711,-2.05836 13.84575,-4.10649 15.18627,-2.18578c0.99632,1.42753 4.52023,4.92803 1.34457,7.00694c-4.01146,2.62606 -5.50495,5.57433 -9.84623,7.62306c-1.86043,0.87797 -4.93812,1.25596 -6.45861,-0.26372c-1.5466,-1.54578 -6.44116,-10.27594 -0.22602,-12.18048z" data-paper-data="{&quot;origRot&quot;:0,&quot;origPos&quot;:null}" fill="url(#color-12)"/><g data-paper-data="{&quot;origPos&quot;:null,&quot;origRot&quot;:0,&quot;index&quot;:null}" fill="#fde6d9"><path d="M348.90534,320.44846c0.67186,-0.80895 2.3798,1.85824 2.3798,1.85824c0.762,1.27555 1.35424,2.2833 0.38797,2.98574c-1.00467,0.73035 -2.67992,1.83369 -3.74413,2.55484c-2.34687,1.59033 -4.16408,1.85651 -5.14259,0.21849c-0.9785,-1.63801 -0.47794,-2.94244 1.86891,-4.53277c2.34686,-1.59032 2.87164,-1.42488 4.25005,-3.08453z" data-paper-data="{&quot;origPos&quot;:null}"/><path d="M343.28577,324.86352c0.74644,-0.3284 1.69041,1.53835 1.69041,1.53835c0.56008,0.93756 1.45984,1.9388 0.72787,2.54167c-0.8171,0.67299 -2.93667,1.56558 -3.80697,2.15533c-1.90292,1.28948 -4.31845,2.80603 -4.96605,1.65484c-1.12455,-1.99907 0.14013,-4.32576 2.04305,-5.61524c1.90292,-1.28948 3.14778,-1.76288 4.31169,-2.27496z" data-paper-data="{&quot;origPos&quot;:null}"/></g><g fill="#fde6d9"><path d="M345.41375,313.27542c0.89034,-0.1929 1.38832,1.06053 1.38832,1.06053c0.9071,1.39728 2.86773,8.39864 1.24685,8.014c-3.67664,-0.87248 -8.15036,-0.48193 -9.58081,0.56988c-1.52075,1.03905 -2.50929,0.6244 -3.51866,-0.88929c-1.12613,-1.6888 -0.70827,-2.12284 0.81944,-3.27421c0.50924,-0.38379 2.11396,-1.49261 2.6488,-1.83983c3.90855,-2.53737 4.38206,-3.07472 6.99608,-3.64106z" data-paper-data="{&quot;origRot&quot;:0,&quot;origPos&quot;:null}"/><path d="M332.30877,321.31434c2.75596,-2.35015 3.03967,-2.84556 5.12947,-3.38138c0.71179,-0.1825 1.40683,0.96274 1.40683,0.96274c1.07284,1.27439 2.49648,2.28544 0.40063,3.3189c-1.57982,0.77901 -2.70913,1.80492 -3.84451,2.77311c-0.41083,0.35034 -1.38504,1.42888 -1.75758,1.82441c-1.11058,1.17914 -2.18331,0.58873 -3.15592,-0.78961c-0.76601,-1.08557 -0.93486,-2.35801 1.8211,-4.70817z" data-paper-data="{&quot;origRot&quot;:0,&quot;origPos&quot;:null}"/><path d="M331.63578,322.7819c0.59764,-0.30448 1.60688,0.56181 1.60688,0.56181c1.39916,0.90344 1.26999,1.41127 0.92253,2.51016c-0.40041,1.26636 -1.49092,2.40624 -2.77114,3.97691c-1.28021,1.57068 -4.15613,2.62592 -4.69218,1.97525c-0.50107,-0.60821 -0.40954,-2.20136 1.3758,-4.82537c1.78534,-2.62401 1.80344,-3.30479 3.55809,-4.19875z" data-paper-data="{&quot;origRot&quot;:0,&quot;origPos&quot;:null}"/></g></g><g stroke="none"><g data-paper-data="{&quot;origPos&quot;:null,&quot;origRot&quot;:0}" fill="none" stroke-width="1" font-family="sans-serif" font-weight="normal" font-size="12" text-anchor="start"/><g data-paper-data="{&quot;origPos&quot;:null,&quot;origRot&quot;:0}" fill="#ead0c0" stroke-width="0"><path d="M406.73768,326.39044c-0.67902,-0.46115 -0.15489,-1.70325 -0.15489,-1.70325c0.36646,-1.62211 2.86409,-3.89446 3.61168,-2.52297c1.08703,1.99422 2.80139,0.56877 4.49187,0.89922c0.97479,0.19056 1.77275,0.87467 2.753,1.03975c1.63095,0.27466 2.57772,1.0452 2.19723,2.82046c-0.4245,1.98061 -0.95503,1.60009 -2.74289,1.82733c-0.57812,0.07348 -2.84774,-0.16378 -3.40925,-0.27354c-4.10338,-0.80217 -4.75314,-0.73311 -6.74674,-2.08701z" data-paper-data="{&quot;origRot&quot;:0,&quot;origPos&quot;:null}"/><path d="M419.1105,328.32295c-0.5898,0.30557 -1.55785,-0.5458 -1.55785,-0.5458c-1.34808,-0.88554 -2.93548,-1.46986 -1.34578,-2.80055c1.19827,-1.00307 1.91589,-2.12756 2.65608,-3.2032c0.26784,-0.38923 0.82951,-1.5274 1.04932,-1.94799c0.65526,-1.25376 1.80059,-0.9624 3.08879,0.03415c1.01459,0.78488 1.54433,1.85546 -0.25235,4.46638c-1.79668,2.61092 -1.90652,3.0999 -3.63819,3.99703z" data-paper-data="{&quot;origRot&quot;:0,&quot;origPos&quot;:null}"/><path d="M423.02918,323.52727c-0.41116,0.43938 -1.68531,0.09916 -1.68531,0.09916c-1.64144,-0.2384 -1.73823,-0.67988 -1.88641,-1.65804c-0.17075,-1.1272 0.33405,-2.38698 0.82902,-4.04818c0.49496,-1.66119 2.20103,-2.21687 2.95781,-1.88678c0.70742,0.30855 1.73866,0.35094 1.2305,3.00749c-0.50814,2.65657 -0.23853,3.19633 -1.44564,4.48635z" data-paper-data="{&quot;origRot&quot;:0,&quot;origPos&quot;:null}"/></g><g data-paper-data="{&quot;origPos&quot;:null,&quot;origRot&quot;:0}" fill="#efd6c8" stroke-width="0"><path d="M405.25494,325.87804c-0.80428,-0.42784 -0.37484,-1.70635 -0.37484,-1.70635c0.21004,-1.6526 4.40123,-3.3681 5.39019,-2.02751c1.43796,1.94929 1.45051,-0.28361 3.35496,-0.04158c1.09816,0.13957 2.06037,0.78548 3.16153,0.89912c1.83211,0.18906 2.96883,0.91398 2.76165,2.7215c-0.23112,2.01663 -0.86195,1.66201 -2.80705,1.98662c-0.62895,0.10497 -3.16116,-0.01218 -3.79374,-0.09258c-4.62276,-0.58754 -5.33132,-0.48316 -7.6927,-1.73924z" data-paper-data="{&quot;origRot&quot;:0,&quot;origPos&quot;:null}"/><path d="M417.98553,327.52447c-0.72668,0.10904 -1.30141,-1.10105 -1.30141,-1.10105c-0.9374,-1.37708 -2.25062,-2.52791 -0.06038,-3.34245c1.65097,-0.61399 2.87895,-1.5195 4.10707,-2.36696c0.44439,-0.30666 1.5234,-1.28031 1.93431,-1.63584c1.22494,-1.05984 2.23196,-0.36319 3.05906,1.10708c0.65141,1.15797 0.68972,2.441 -2.29135,4.49812c-2.98106,2.05712 -3.31378,2.52102 -5.4473,2.84112z" data-paper-data="{&quot;origRot&quot;:0,&quot;origPos&quot;:null}"/><path d="M425.37387,322.83532c-0.33455,0.58133 -1.65306,0.40638 -1.65306,0.40638c-1.66547,0.00677 -1.83443,-0.48925 -2.14313,-1.59968c-0.35573,-1.27963 -0.06422,-2.82996 0.1511,-4.84479c0.21533,-2.01485 1.86568,-3.65185 2.67,-3.39927c0.75182,0.2361 1.72809,0.804 1.66449,3.97713c-0.0636,3.17314 0.29282,3.75342 -0.68941,5.46024z" data-paper-data="{&quot;origRot&quot;:0,&quot;origPos&quot;:null}"/></g><g data-paper-data="{&quot;origPos&quot;:null,&quot;origRot&quot;:0}" fill="#f6ded1" stroke-width="0"><path d="M405.22385,325.28887c-0.78052,-0.46982 -0.28397,-1.72381 -0.28397,-1.72381c0.29725,-1.63918 5.30055,-3.41831 6.21713,-2.02722c1.33272,2.02269 0.73635,0.08159 2.62532,0.42413c1.08922,0.19752 2.01589,0.89347 3.10946,1.06525c1.81953,0.28581 2.91626,1.06989 2.61367,2.86394c-0.33758,2.00155 -0.94876,1.61402 -2.9083,1.83518c-0.63365,0.07152 -3.1561,-0.17955 -3.78352,-0.29335c-4.58515,-0.8315 -5.29825,-0.76479 -7.58981,-2.14416z" data-paper-data="{&quot;origRot&quot;:0,&quot;origPos&quot;:null}"/><path d="M417.81037,327.62594c-0.73449,-0.02203 -1.08469,-1.31507 -1.08469,-1.31507c-0.67739,-1.52192 -1.76484,-2.88809 0.5354,-3.29985c1.73386,-0.31038 3.10342,-0.98289 4.46273,-1.59829c0.49186,-0.22269 1.72694,-0.98879 2.19456,-1.2655c1.39401,-0.82493 2.26095,0.03978 2.81321,1.63377c0.43497,1.25541 0.24433,2.52478 -3.05526,4.01855c-3.29958,1.49379 -3.70952,1.89109 -5.86594,1.82641z" data-paper-data="{&quot;origRot&quot;:0,&quot;origPos&quot;:null}"/><path d="M426.32462,323.87201c-0.47949,0.469 -1.70134,-0.05656 -1.70134,-0.05656c-1.60505,-0.4446 -1.63334,-0.96781 -1.62975,-2.12033c0.00416,-1.32814 0.70468,-2.74158 1.45769,-4.62279c0.75299,-1.88122 2.87085,-3.28856 3.57668,-2.82758c0.65978,0.43091 1.35994,1.52053 0.43927,4.55782c-0.92068,3.03731 -0.73475,3.69245 -2.14254,5.06941z" data-paper-data="{&quot;origRot&quot;:0,&quot;origPos&quot;:null}"/></g><g data-paper-data="{&quot;origPos&quot;:null,&quot;origRot&quot;:0}" fill="#fde6d9" stroke-width="0"><path d="M408.25943,327.11565c-0.89191,-0.1855 -0.83762,-1.53314 -0.83762,-1.53314c-0.26109,-1.6453 0.79227,-5.80856 2.11701,-4.79851c3.00492,2.29113 7.25139,0.72132 8.98581,0.34149c1.81176,-0.33148 2.54655,0.44906 2.85377,2.24229c0.34277,2.00068 -0.2154,2.22748 -2.07917,2.65878c-0.62125,0.14377 -2.53807,0.5049 -3.16788,0.60483c-4.60235,0.73033 -5.25334,1.02891 -7.87197,0.48425z" data-paper-data="{&quot;origRot&quot;:0,&quot;origPos&quot;:null}"/><path d="M418.07388,326.08811c-0.73482,0.00241 -1.12783,-1.27827 -1.12783,-1.27827c-0.72765,-1.49853 -1.85995,-2.82777 0.42532,-3.31584c1.72258,-0.3679 3.06898,-1.08561 4.40708,-1.74589c0.48419,-0.23893 1.69309,-1.04569 2.15122,-1.33783c1.36579,-0.87087 2.26102,-0.03547 2.86601,1.53927c0.47649,1.24025 0.32821,2.51525 -2.91983,4.11798c-3.24804,1.60273 -3.64456,2.01345 -5.80194,2.02055z" data-paper-data="{&quot;origRot&quot;:0,&quot;origPos&quot;:null}"/><path d="M424.88811,322.80978c-0.65406,0.14866 -1.42009,-0.93865 -1.42009,-0.93865c-1.13495,-1.2189 -0.88522,-1.67956 -0.27894,-2.65973c0.69867,-1.12952 2.03534,-1.96724 3.66159,-3.17611c1.62624,-1.20886 4.6731,-1.5268 5.03325,-0.76456c0.33667,0.7125 -0.14269,2.23458 -2.51687,4.34079c-2.3742,2.1062 -2.55863,2.76176 -4.47891,3.19823z" data-paper-data="{&quot;origRot&quot;:0,&quot;origPos&quot;:null}"/></g><path d="M407.26286,327.15098c-6.80932,-1.60455 -13.5189,-1.51684 -13.66892,-3.74705c-0.1115,-1.65755 13.15655,-2.07106 16.39135,-2.28867c0,0 3.25145,7.44341 -2.72242,6.03573z" data-paper-data="{&quot;origRot&quot;:0,&quot;origPos&quot;:null}" fill="url(#color-13)" stroke-width="0"/></g></g></g></g></svg>