<svg version="1.1" xmlns="http://www.w3.org/2000/svg" xmlns:xlink="http://www.w3.org/1999/xlink" width="385.47375" height="274.17226" viewBox="0,0,385.47375,274.17226"><defs><linearGradient x1="528.73528" y1="234.42502" x2="528.73528" y2="292.42393" gradientUnits="userSpaceOnUse" id="color-1"><stop offset="0" stop-color="#ff6666" stop-opacity="0"/><stop offset="1" stop-color="#ff6666"/></linearGradient><linearGradient x1="526.5288" y1="234.47561" x2="526.5288" y2="292.47449" gradientUnits="userSpaceOnUse" id="color-2"><stop offset="0" stop-color="#ff5714" stop-opacity="0"/><stop offset="1" stop-color="#ff5714"/></linearGradient></defs><g transform="translate(-165.1106,-140.18622)"><g data-paper-data="{&quot;isPaintingLayer&quot;:true}" fill-rule="nonzero" stroke-linejoin="miter" stroke-miterlimit="10" stroke-dasharray="" stroke-dashoffset="0" style="mix-blend-mode: normal"><path d="M226.24865,160.55739c20.44257,-0.41584 44.08708,15.95984 51.97968,35.34618c17.27389,42.457 18.81249,90.74404 18.29685,136.39468c-0.62376,20.03505 -7.46012,41.83325 -21.62355,55.72222c-11.9678,11.72662 -31.90305,13.23195 -48.65298,12.89096c-12.50839,-0.27445 -25.01678,-4.64075 -32.43532,-13.72264c-12.98244,-15.90162 -22.80452,-35.33786 -23.70273,-54.89054c-2.37859,-45.25143 -0.07485,-92.09967 14.13847,-134.31549c5.95479,-17.78121 23.27026,-37.05111 41.99958,-37.42537z" data-paper-data="{&quot;origPos&quot;:null}" id="ID0.9379957877099514" fill="#cc0000" stroke="#660000" stroke-width="10" stroke-linecap="round"/><path d="M183.92196,248.62427l47.01277,-45.40016l56.06262,27.47251l-29.47105,56.77719z" data-paper-data="{&quot;origPos&quot;:null}" id="ID0.9408396678045392" fill="#ffe9cc" stroke="#660000" stroke-width="10" stroke-linecap="round"/><path d="M234.45144,233.68745c1.30323,0 2.48754,0.69694 3.34416,1.82137c0.85579,1.13025 1.38308,2.68215 1.38308,4.39956c0,1.71658 -0.52728,3.26931 -1.38308,4.39873c-0.85663,1.12442 -2.04093,1.82137 -3.34416,1.82137c-1.30407,0 -2.48837,-0.69694 -3.34416,-1.82137c-0.85579,-1.12941 -1.38391,-2.68215 -1.38391,-4.39873c0,-1.71741 0.52811,-3.26931 1.38391,-4.39956c0.85579,-1.12442 2.0401,-1.82137 3.34416,-1.82137z" id="ID0.6937623028643429" fill="#000000" stroke="#001966" stroke-width="10" stroke-linecap="butt"/><path d="M269.77762,231.51944c1.30323,0 2.48754,0.69694 3.34416,1.82137c0.85579,1.13025 1.38308,2.68215 1.38308,4.39956c0,1.71658 -0.52728,3.26931 -1.38308,4.39873c-0.85663,1.12442 -2.04093,1.82137 -3.34416,1.82137c-1.30407,0 -2.48837,-0.69694 -3.34416,-1.82137c-0.85579,-1.12941 -1.38391,-2.68215 -1.38391,-4.39873c0,-1.71741 0.52811,-3.26931 1.38391,-4.39956c0.85579,-1.12442 2.0401,-1.82137 3.34416,-1.82137z" id="ID0.6937623028643429" fill="#000000" stroke="#001966" stroke-width="10" stroke-linecap="butt"/><path d="M300.44347,395.25318l1.34151,-118.47669l-0.95623,-130.20161" id="ID0.12495402665808797" fill="none" stroke="#241137" stroke-width="1.52776" stroke-linecap="round"/><path d="M300.31587,409.36387c-1.64317,-3.7556 -5.16844,-8.30747 -2.62522,-11.65252c9.48239,-13.46831 28.0594,-21.8431 36.42053,-35.61211c14.55313,-23.94541 28.81872,-49.69395 30.73423,-76.54502c1.94842,-27.36994 -8.01336,-55.84596 -20.27992,-81.63044c-9.73853,-20.47987 -30.26447,-36.07529 -43.79504,-54.66091c-3.72421,-4.81055 -0.84183,-3.23774 0.60796,-3.89379c4.49264,-1.92412 9.50719,-6.74226 14.75916,-3.06512c18.74305,16.74908 37.16972,35.16714 47.6939,56.2322c13.35745,26.72098 22.44854,55.05778 20.79322,85.27669c-1.65026,30.10906 -14.93937,56.88319 -30.79599,82.32547c-11.43637,18.51273 -32.40828,31.84284 -50.46694,45.99606c-4.34584,3.93277 -2.31542,-1.19821 -3.04589,-2.77051z" id="ID0.4058906128630042" fill="#93570a" stroke="#000000" stroke-width="1.54424" stroke-linecap="butt"/><g id="ID0.5903434637002647" stroke="none" stroke-width="1.4282"><path d="M349.57129,282.70778c-4.62223,3.59563 -9.38368,7.1614 -14.42455,8.62081c-4.24409,1.20833 -9.48796,1.0919 -12.99146,0.33106c-3.50907,-0.75223 -5.91409,-2.32403 -6.38183,-4.51593c-0.46723,-2.1919 1.08735,-4.60806 3.9839,-6.72656c2.88845,-2.12356 7.68331,-4.42532 11.99675,-4.99784c5.69338,-0.75578 12.14406,-0.28348 18.30315,0.90157c1.19466,0.40295 1.22251,2.12711 1.06963,3.2833c-0.25817,1.6295 -0.56544,2.58219 -1.55559,3.10359z" id="ID0.8031387571245432" fill="#20270c" stroke-linecap="butt"/><path d="M340.70395,279.02559c-5.57796,1.78288 -11.27641,3.49085 -16.51116,3.12485c-4.40102,-0.32752 -9.28395,-2.24252 -12.31111,-4.1636c-3.03526,-1.915 -4.75182,-4.21878 -4.43544,-6.43751c0.31588,-2.21924 2.6075,-3.95201 6.05684,-4.94317c3.44326,-0.99927 8.73724,-1.50852 12.98387,-0.55987c5.6053,1.25085 11.49864,3.91607 16.8726,7.15026c0.98307,0.78969 0.41509,2.41767 -0.12605,3.45086c-0.80437,1.44068 -1.42043,2.22936 -2.52955,2.37819z" id="ID0.8031387571245432" fill="#20270c" stroke-linecap="butt"/><path d="M323.73518,282.93659c-5.29803,2.49411 -10.72565,4.92849 -15.96394,5.2469c-4.40608,0.24804 -9.49656,-1.01496 -12.74797,-2.5255c-3.2585,-1.50345 -5.26057,-3.56475 -5.23576,-5.80576c0.0243,-2.24101 2.07092,-4.25725 5.36181,-5.68883c3.28431,-1.43916 8.46692,-2.63282 12.80062,-2.24556c5.72072,0.51128 11.91069,2.3868 17.66026,4.89356c1.07722,0.65504 0.72591,2.34326 0.32347,3.43769c-0.60948,1.53332 -1.11772,2.3954 -2.19848,2.68749z" id="ID0.8031387571245432" fill="#20270c" stroke-linecap="butt"/><path d="M334.62332,273.97054l175.32344,-0.41206l-0.39181,7.9516l-174.96605,1.49738z" id="ID0.5694770254194736" fill="#20270c" stroke-linecap="butt"/><path d="M503.09516,269.19442l20.56846,9.47783l-22.43942,7.14368z" id="ID0.1888666800223291" fill="#20260c" stroke-linecap="round"/></g><path d="M476.08194,247.42502c0,0 80.25491,4.49701 74.17346,18.58691c-2.25823,5.23202 -24.8348,35.78998 -36.81137,23.53746c-19.25982,-19.70357 9.92023,-32.52759 9.92023,-32.52759z" fill="url(#color-1)" stroke="none" stroke-width="0.5" stroke-linecap="butt"/><path d="M459.87545,244.47561c0,0 94.25491,7.49701 88.17346,21.5869c-2.25824,5.23202 -24.83477,35.78996 -36.81135,23.53745c-19.25982,-19.70357 2.91427,-11.01089 6.92021,-22.52757c5.27386,-15.16182 -58.28232,-22.59678 -58.28232,-22.59678z" fill="url(#color-2)" stroke="none" stroke-width="0.5" stroke-linecap="butt"/></g></g></svg>