<svg version="1.1" xmlns="http://www.w3.org/2000/svg" xmlns:xlink="http://www.w3.org/1999/xlink" width="33.39697" height="107.91695" viewBox="0,0,33.39697,107.91695"><g transform="translate(-255.90151,-127.2393)"><g data-paper-data="{&quot;isPaintingLayer&quot;:true}" fill-rule="nonzero" stroke-width="2" stroke-linejoin="miter" stroke-miterlimit="10" stroke-dasharray="" stroke-dashoffset="0" style="mix-blend-mode: normal"><path d="M272.18653,134.72658c-3.26615,-0.05254 -5.88698,-1.77098 -5.85374,-3.83816c0.03324,-2.0672 2.708,-3.70045 5.9742,-3.64789c3.26615,0.05256 5.88698,1.77094 5.85373,3.83819c-0.03324,2.0672 -2.70798,3.70041 -5.97417,3.64787z" data-paper-data="{&quot;origRot&quot;:0}" fill="#a5a5a5" stroke="none" stroke-linecap="butt"/><path d="M278.26185,131.63163l-0.38078,20.37079l-11.92074,-0.22282l0.38081,-20.37086z" data-paper-data="{&quot;origRot&quot;:0}" fill="#000000" stroke="none" stroke-linecap="butt"/><path d="M271.90389,156.94573l-2.34428,75.45399l-9.4924,-9.94139l2.16112,-50.55227l-2.3461,-7.76753l0.36964,-9.01211z" data-paper-data="{&quot;origRot&quot;:0}" fill="#c55353" stroke="#680000" stroke-linecap="round"/><path d="M285.03299,155.52593l0.07953,9.01929v0l-2.59471,7.68802l0.53381,50.59567l-10.11484,9.93179l0.3918,-75.79129z" data-paper-data="{&quot;index&quot;:null,&quot;origRot&quot;:0}" fill="#a60000" stroke="#680000" stroke-linecap="round"/><path d="M265.24864,151.73026l12.82644,-0.05521l11.2234,-5.4412l-0.15899,9.88151l-33.23798,-0.53477l0.15897,-9.88151z" data-paper-data="{&quot;origRot&quot;:0}" fill="#a5a5a5" stroke="none" stroke-linecap="butt"/></g></g></svg>