<svg xmlns="http://www.w3.org/2000/svg" xmlns:xlink="http://www.w3.org/1999/xlink" version="1.1" width="346.03958" height="444.03722" viewBox="0,0,346.03958,444.03722"><defs><linearGradient x1="441.77821" y1="266.61883" x2="429.43889" y2="190.73937" gradientUnits="userSpaceOnUse" id="color-1"><stop offset="0" stop-color="#000000"/><stop offset="1" stop-color="#0e0e0e"/></linearGradient><linearGradient x1="457.8836" y1="225.24544" x2="468.95876" y2="223.44442" gradientUnits="userSpaceOnUse" id="color-2"><stop offset="0" stop-color="#000000"/><stop offset="1" stop-color="#666666"/></linearGradient><linearGradient x1="425.58826" y1="250.80369" x2="464.63159" y2="244.45458" gradientUnits="userSpaceOnUse" id="color-3"><stop offset="0" stop-color="#151515"/><stop offset="1" stop-color="#212121"/></linearGradient><linearGradient x1="423.76698" y1="219.16898" x2="440.41569" y2="216.46159" gradientUnits="userSpaceOnUse" id="color-4"><stop offset="0" stop-color="#292929"/><stop offset="1" stop-color="#292929"/></linearGradient><linearGradient x1="170.57556" y1="399.83216" x2="244.58534" y2="399.83216" gradientUnits="userSpaceOnUse" id="color-5"><stop offset="0" stop-color="#000000"/><stop offset="1" stop-color="#0e0e0e"/></linearGradient><linearGradient x1="207.49635" y1="422.56272" x2="207.49635" y2="433.04092" gradientUnits="userSpaceOnUse" id="color-6"><stop offset="0" stop-color="#000000"/><stop offset="1" stop-color="#666666"/></linearGradient><linearGradient x1="186.14463" y1="404.6519" x2="201.57756" y2="404.6519" gradientUnits="userSpaceOnUse" id="color-7"><stop offset="0" stop-color="#151515"/><stop offset="1" stop-color="#212121"/></linearGradient><linearGradient x1="244.74843" y1="177.43326" x2="249.62559" y2="227.19753" gradientUnits="userSpaceOnUse" id="color-8"><stop offset="0" stop-color="#ffffff"/><stop offset="1" stop-color="#cccccc"/></linearGradient><radialGradient cx="168.77385" cy="226.1361" r="3.3826" gradientUnits="userSpaceOnUse" id="color-9"><stop offset="0" stop-color="#cccccc"/><stop offset="1" stop-color="#7f7f7f"/></radialGradient><radialGradient cx="166.64288" cy="228.99348" r="2.923" gradientUnits="userSpaceOnUse" id="color-10"><stop offset="0" stop-color="#cccccc"/><stop offset="1" stop-color="#7f7f7f"/></radialGradient><radialGradient cx="165.37651" cy="232.94873" r="3.62643" gradientUnits="userSpaceOnUse" id="color-11"><stop offset="0" stop-color="#cccccc"/><stop offset="1" stop-color="#7f7f7f"/></radialGradient><radialGradient cx="167.1362" cy="236.66516" r="3.62643" gradientUnits="userSpaceOnUse" id="color-12"><stop offset="0" stop-color="#cccccc"/><stop offset="1" stop-color="#7f7f7f"/></radialGradient><radialGradient cx="170.1254" cy="240.13938" r="3.40976" gradientUnits="userSpaceOnUse" id="color-13"><stop offset="0" stop-color="#cccccc"/><stop offset="1" stop-color="#7f7f7f"/></radialGradient><radialGradient cx="171.64952" cy="244.15234" r="3.13967" gradientUnits="userSpaceOnUse" id="color-14"><stop offset="0" stop-color="#cccccc"/><stop offset="1" stop-color="#7f7f7f"/></radialGradient><radialGradient cx="173.11162" cy="247.53006" r="3.59958" gradientUnits="userSpaceOnUse" id="color-15"><stop offset="0" stop-color="#cccccc"/><stop offset="1" stop-color="#7f7f7f"/></radialGradient><radialGradient cx="173.96498" cy="251.95578" r="3.3829" gradientUnits="userSpaceOnUse" id="color-16"><stop offset="0" stop-color="#cccccc"/><stop offset="1" stop-color="#7f7f7f"/></radialGradient><radialGradient cx="174.96166" cy="255.92314" r="3.16622" gradientUnits="userSpaceOnUse" id="color-17"><stop offset="0" stop-color="#cccccc"/><stop offset="1" stop-color="#7f7f7f"/></radialGradient><radialGradient cx="176.97167" cy="259.61525" r="3.8425" gradientUnits="userSpaceOnUse" id="color-18"><stop offset="0" stop-color="#cccccc"/><stop offset="1" stop-color="#7f7f7f"/></radialGradient><radialGradient cx="180.26843" cy="262.64571" r="3.46438" gradientUnits="userSpaceOnUse" id="color-19"><stop offset="0" stop-color="#cccccc"/><stop offset="1" stop-color="#7f7f7f"/></radialGradient><radialGradient cx="182.13256" cy="265.66856" r="3.81626" gradientUnits="userSpaceOnUse" id="color-20"><stop offset="0" stop-color="#cccccc"/><stop offset="1" stop-color="#7f7f7f"/></radialGradient><radialGradient cx="172.07968" cy="219.49206" r="5.72037" gradientUnits="userSpaceOnUse" id="color-21"><stop offset="0" stop-color="#cccccc"/><stop offset="1" stop-color="#7f7f7f"/></radialGradient><radialGradient cx="181.9137" cy="220.9716" r="3.3826" gradientUnits="userSpaceOnUse" id="color-22"><stop offset="0" stop-color="#cccccc"/><stop offset="1" stop-color="#7f7f7f"/></radialGradient><radialGradient cx="184.16332" cy="224.93802" r="3.3826" gradientUnits="userSpaceOnUse" id="color-23"><stop offset="0" stop-color="#cccccc"/><stop offset="1" stop-color="#7f7f7f"/></radialGradient><radialGradient cx="185.38286" cy="229.47057" r="3.3826" gradientUnits="userSpaceOnUse" id="color-24"><stop offset="0" stop-color="#cccccc"/><stop offset="1" stop-color="#7f7f7f"/></radialGradient><radialGradient cx="185.87961" cy="234.53912" r="3.3826" gradientUnits="userSpaceOnUse" id="color-25"><stop offset="0" stop-color="#cccccc"/><stop offset="1" stop-color="#7f7f7f"/></radialGradient><radialGradient cx="186.49971" cy="239.28544" r="3.3826" gradientUnits="userSpaceOnUse" id="color-26"><stop offset="0" stop-color="#cccccc"/><stop offset="1" stop-color="#7f7f7f"/></radialGradient><radialGradient cx="186.67418" cy="244.23053" r="3.3826" gradientUnits="userSpaceOnUse" id="color-27"><stop offset="0" stop-color="#cccccc"/><stop offset="1" stop-color="#7f7f7f"/></radialGradient><radialGradient cx="186.52661" cy="249.05206" r="3.3826" gradientUnits="userSpaceOnUse" id="color-28"><stop offset="0" stop-color="#cccccc"/><stop offset="1" stop-color="#7f7f7f"/></radialGradient><radialGradient cx="186.65591" cy="253.53644" r="3.3826" gradientUnits="userSpaceOnUse" id="color-29"><stop offset="0" stop-color="#cccccc"/><stop offset="1" stop-color="#7f7f7f"/></radialGradient><radialGradient cx="186.67689" cy="258.49665" r="3.3826" gradientUnits="userSpaceOnUse" id="color-30"><stop offset="0" stop-color="#cccccc"/><stop offset="1" stop-color="#7f7f7f"/></radialGradient><radialGradient cx="185.77611" cy="263.54717" r="3.3826" gradientUnits="userSpaceOnUse" id="color-31"><stop offset="0" stop-color="#cccccc"/><stop offset="1" stop-color="#7f7f7f"/></radialGradient><radialGradient cx="185.61061" cy="279.17972" r="3.46438" gradientUnits="userSpaceOnUse" id="color-32"><stop offset="0" stop-color="#cccccc"/><stop offset="1" stop-color="#7f7f7f"/></radialGradient><radialGradient cx="185.55311" cy="283.16624" r="3.81626" gradientUnits="userSpaceOnUse" id="color-33"><stop offset="0" stop-color="#cccccc"/><stop offset="1" stop-color="#7f7f7f"/></radialGradient><radialGradient cx="187.17283" cy="287.29084" r="3.3826" gradientUnits="userSpaceOnUse" id="color-34"><stop offset="0" stop-color="#cccccc"/><stop offset="1" stop-color="#7f7f7f"/></radialGradient><linearGradient x1="266.95132" y1="232.34329" x2="269.0351" y2="265.03043" gradientUnits="userSpaceOnUse" id="color-35"><stop offset="0" stop-color="#ff0000"/><stop offset="1" stop-color="#ff0000" stop-opacity="0"/></linearGradient><linearGradient x1="261.20485" y1="232.74768" x2="266.93591" y2="232.18601" gradientUnits="userSpaceOnUse" id="color-36"><stop offset="0" stop-color="#ff0000"/><stop offset="1" stop-color="#ff0000" stop-opacity="0"/></linearGradient><linearGradient x1="222.41018" y1="208.8104" x2="205.75598" y2="210.03017" gradientUnits="userSpaceOnUse" id="color-37"><stop offset="0" stop-color="#7f7f7f"/><stop offset="1" stop-color="#b2b2b2"/></linearGradient><linearGradient x1="225.37467" y1="219.80476" x2="213.39414" y2="220.97891" gradientUnits="userSpaceOnUse" id="color-38"><stop offset="0" stop-color="#000000"/><stop offset="1" stop-color="#353935"/></linearGradient><linearGradient x1="203.07584" y1="221.99016" x2="213.82737" y2="220.93646" gradientUnits="userSpaceOnUse" id="color-39"><stop offset="0" stop-color="#000000"/><stop offset="1" stop-color="#353935"/></linearGradient><radialGradient cx="189.60422" cy="216.63472" r="27.0916" gradientUnits="userSpaceOnUse" id="color-40"><stop offset="0" stop-color="#666666"/><stop offset="1" stop-color="#000000"/></radialGradient><radialGradient cx="188.88876" cy="225.73776" r="11.6423" gradientUnits="userSpaceOnUse" id="color-41"><stop offset="0" stop-color="#370000"/><stop offset="1" stop-color="#000000"/></radialGradient><radialGradient cx="194.48147" cy="228.99739" r="9.93017" gradientUnits="userSpaceOnUse" id="color-42"><stop offset="0" stop-color="#370000"/><stop offset="1" stop-color="#000000"/></radialGradient><radialGradient cx="187.10722" cy="219.16061" r="9.18816" gradientUnits="userSpaceOnUse" id="color-43"><stop offset="0" stop-color="#370000"/><stop offset="1" stop-color="#000000"/></radialGradient><radialGradient cx="197.98205" cy="222.57512" r="8.08038" gradientUnits="userSpaceOnUse" id="color-44"><stop offset="0" stop-color="#370000"/><stop offset="1" stop-color="#000000"/></radialGradient><radialGradient cx="193.44246" cy="217.17452" r="6.0812" gradientUnits="userSpaceOnUse" id="color-45"><stop offset="0" stop-color="#370000"/><stop offset="1" stop-color="#000000"/></radialGradient><radialGradient cx="192.93385" cy="221.5535" r="2.96621" gradientUnits="userSpaceOnUse" id="color-46"><stop offset="0" stop-color="#ff0000"/><stop offset="1" stop-color="#000000"/></radialGradient><linearGradient x1="314.136" y1="277.6152" x2="301.7967" y2="201.7357" gradientUnits="userSpaceOnUse" id="color-1-,0,0,1,-127.64223,10.99633"><stop offset="0" stop-color="#000000"/><stop offset="1" stop-color="#0e0e0e"/></linearGradient><linearGradient x1="330.2414" y1="236.2418" x2="341.3165" y2="234.4408" gradientUnits="userSpaceOnUse" id="color-2-,0,0,1,-127.64223,10.99633"><stop offset="0" stop-color="#000000"/><stop offset="1" stop-color="#666666"/></linearGradient><linearGradient x1="297.946" y1="261.8" x2="336.9894" y2="255.4509" gradientUnits="userSpaceOnUse" id="color-3-,0,0,1,-127.64223,10.99633"><stop offset="0" stop-color="#151515"/><stop offset="1" stop-color="#212121"/></linearGradient><linearGradient x1="296.1248" y1="230.1653" x2="312.7735" y2="227.4579" gradientUnits="userSpaceOnUse" id="color-4-,0,0,1,-127.64223,10.99633"><stop offset="0" stop-color="#292929"/><stop offset="1" stop-color="#292929"/></linearGradient><linearGradient x1="42.9333" y1="410.8285" x2="116.9431" y2="410.8285" gradientUnits="userSpaceOnUse" id="color-5-,0,0,1,-127.64223,10.99633"><stop offset="0" stop-color="#000000"/><stop offset="1" stop-color="#0e0e0e"/></linearGradient><linearGradient x1="79.8541" y1="433.5591" x2="79.8541" y2="444.0373" gradientUnits="userSpaceOnUse" id="color-6-,0,0,1,-127.64223,10.99633"><stop offset="0" stop-color="#000000"/><stop offset="1" stop-color="#666666"/></linearGradient><linearGradient x1="58.5024" y1="415.6482" x2="73.9353" y2="415.6482" gradientUnits="userSpaceOnUse" id="color-7-,0,0,1,-127.64223,10.99633"><stop offset="0" stop-color="#151515"/><stop offset="1" stop-color="#212121"/></linearGradient><linearGradient x1="117.1062" y1="188.4296" x2="121.9834" y2="238.1939" gradientUnits="userSpaceOnUse" id="color-8-,0,0,1,-127.64223,10.99633"><stop offset="0" stop-color="#ffffff"/><stop offset="1" stop-color="#cccccc"/></linearGradient><radialGradient cx="41.1316" cy="237.1324" r="3.3826" gradientUnits="userSpaceOnUse" id="color-9-,0,0,1,-127.64223,10.99633"><stop offset="0" stop-color="#cccccc"/><stop offset="1" stop-color="#7f7f7f"/></radialGradient><radialGradient cx="39.0006" cy="239.9898" r="2.923" gradientUnits="userSpaceOnUse" id="color-10-,0,0,1,-127.64223,10.99633"><stop offset="0" stop-color="#cccccc"/><stop offset="1" stop-color="#7f7f7f"/></radialGradient><radialGradient cx="37.7343" cy="243.9451" r="3.6264" gradientUnits="userSpaceOnUse" id="color-11-,0,0,1,-127.64223,10.99633"><stop offset="0" stop-color="#cccccc"/><stop offset="1" stop-color="#7f7f7f"/></radialGradient><radialGradient cx="39.494" cy="247.6615" r="3.6264" gradientUnits="userSpaceOnUse" id="color-12-,0,0,1,-127.64223,10.99633"><stop offset="0" stop-color="#cccccc"/><stop offset="1" stop-color="#7f7f7f"/></radialGradient><radialGradient cx="42.4832" cy="251.1357" r="3.4098" gradientUnits="userSpaceOnUse" id="color-13-,0,0,1,-127.64223,10.99633"><stop offset="0" stop-color="#cccccc"/><stop offset="1" stop-color="#7f7f7f"/></radialGradient><radialGradient cx="44.0073" cy="255.1487" r="3.1397" gradientUnits="userSpaceOnUse" id="color-14-,0,0,1,-127.64223,10.99633"><stop offset="0" stop-color="#cccccc"/><stop offset="1" stop-color="#7f7f7f"/></radialGradient><radialGradient cx="45.4694" cy="258.5264" r="3.5996" gradientUnits="userSpaceOnUse" id="color-15-,0,0,1,-127.64223,10.99633"><stop offset="0" stop-color="#cccccc"/><stop offset="1" stop-color="#7f7f7f"/></radialGradient><radialGradient cx="46.3227" cy="262.9521" r="3.3829" gradientUnits="userSpaceOnUse" id="color-16-,0,0,1,-127.64223,10.99633"><stop offset="0" stop-color="#cccccc"/><stop offset="1" stop-color="#7f7f7f"/></radialGradient><radialGradient cx="47.3194" cy="266.9195" r="3.1662" gradientUnits="userSpaceOnUse" id="color-17-,0,0,1,-127.64223,10.99633"><stop offset="0" stop-color="#cccccc"/><stop offset="1" stop-color="#7f7f7f"/></radialGradient><radialGradient cx="49.3294" cy="270.6116" r="3.8425" gradientUnits="userSpaceOnUse" id="color-18-,0,0,1,-127.64223,10.99633"><stop offset="0" stop-color="#cccccc"/><stop offset="1" stop-color="#7f7f7f"/></radialGradient><radialGradient cx="52.6262" cy="273.642" r="3.4644" gradientUnits="userSpaceOnUse" id="color-19-,0,0,1,-127.64223,10.99633"><stop offset="0" stop-color="#cccccc"/><stop offset="1" stop-color="#7f7f7f"/></radialGradient><radialGradient cx="54.4903" cy="276.6649" r="3.8163" gradientUnits="userSpaceOnUse" id="color-20-,0,0,1,-127.64223,10.99633"><stop offset="0" stop-color="#cccccc"/><stop offset="1" stop-color="#7f7f7f"/></radialGradient><radialGradient cx="44.4374" cy="230.4884" r="5.7204" gradientUnits="userSpaceOnUse" id="color-21-,0,0,1,-127.64223,10.99633"><stop offset="0" stop-color="#cccccc"/><stop offset="1" stop-color="#7f7f7f"/></radialGradient><radialGradient cx="54.2715" cy="231.9679" r="3.3826" gradientUnits="userSpaceOnUse" id="color-22-,0,0,1,-127.64223,10.99633"><stop offset="0" stop-color="#cccccc"/><stop offset="1" stop-color="#7f7f7f"/></radialGradient><radialGradient cx="56.5211" cy="235.9343" r="3.3826" gradientUnits="userSpaceOnUse" id="color-23-,0,0,1,-127.64223,10.99633"><stop offset="0" stop-color="#cccccc"/><stop offset="1" stop-color="#7f7f7f"/></radialGradient><radialGradient cx="57.7406" cy="240.4669" r="3.3826" gradientUnits="userSpaceOnUse" id="color-24-,0,0,1,-127.64223,10.99633"><stop offset="0" stop-color="#cccccc"/><stop offset="1" stop-color="#7f7f7f"/></radialGradient><radialGradient cx="58.2374" cy="245.5354" r="3.3826" gradientUnits="userSpaceOnUse" id="color-25-,0,0,1,-127.64223,10.99633"><stop offset="0" stop-color="#cccccc"/><stop offset="1" stop-color="#7f7f7f"/></radialGradient><radialGradient cx="58.8575" cy="250.2818" r="3.3826" gradientUnits="userSpaceOnUse" id="color-26-,0,0,1,-127.64223,10.99633"><stop offset="0" stop-color="#cccccc"/><stop offset="1" stop-color="#7f7f7f"/></radialGradient><radialGradient cx="59.032" cy="255.2269" r="3.3826" gradientUnits="userSpaceOnUse" id="color-27-,0,0,1,-127.64223,10.99633"><stop offset="0" stop-color="#cccccc"/><stop offset="1" stop-color="#7f7f7f"/></radialGradient><radialGradient cx="58.8844" cy="260.0484" r="3.3826" gradientUnits="userSpaceOnUse" id="color-28-,0,0,1,-127.64223,10.99633"><stop offset="0" stop-color="#cccccc"/><stop offset="1" stop-color="#7f7f7f"/></radialGradient><radialGradient cx="59.0137" cy="264.5328" r="3.3826" gradientUnits="userSpaceOnUse" id="color-29-,0,0,1,-127.64223,10.99633"><stop offset="0" stop-color="#cccccc"/><stop offset="1" stop-color="#7f7f7f"/></radialGradient><radialGradient cx="59.0347" cy="269.493" r="3.3826" gradientUnits="userSpaceOnUse" id="color-30-,0,0,1,-127.64223,10.99633"><stop offset="0" stop-color="#cccccc"/><stop offset="1" stop-color="#7f7f7f"/></radialGradient><radialGradient cx="58.1339" cy="274.5435" r="3.3826" gradientUnits="userSpaceOnUse" id="color-31-,0,0,1,-127.64223,10.99633"><stop offset="0" stop-color="#cccccc"/><stop offset="1" stop-color="#7f7f7f"/></radialGradient><radialGradient cx="57.9684" cy="290.176" r="3.4644" gradientUnits="userSpaceOnUse" id="color-32-,0,0,1,-127.64223,10.99633"><stop offset="0" stop-color="#cccccc"/><stop offset="1" stop-color="#7f7f7f"/></radialGradient><radialGradient cx="57.9109" cy="294.1626" r="3.8163" gradientUnits="userSpaceOnUse" id="color-33-,0,0,1,-127.64223,10.99633"><stop offset="0" stop-color="#cccccc"/><stop offset="1" stop-color="#7f7f7f"/></radialGradient><radialGradient cx="59.5306" cy="298.2872" r="3.3826" gradientUnits="userSpaceOnUse" id="color-34-,0,0,1,-127.64223,10.99633"><stop offset="0" stop-color="#cccccc"/><stop offset="1" stop-color="#7f7f7f"/></radialGradient><linearGradient x1="139.3091" y1="243.3396" x2="141.3929" y2="276.0268" gradientUnits="userSpaceOnUse" id="color-35-,0,0,1,-127.64223,10.99633"><stop offset="0" stop-color="#ff0000"/><stop offset="1" stop-color="#ff0000" stop-opacity="0"/></linearGradient><linearGradient x1="133.5626" y1="243.744" x2="139.2937" y2="243.1823" gradientUnits="userSpaceOnUse" id="color-36-,0,0,1,-127.64223,10.99633"><stop offset="0" stop-color="#ff0000"/><stop offset="1" stop-color="#ff0000" stop-opacity="0"/></linearGradient><linearGradient x1="94.7679" y1="219.8067" x2="78.1137" y2="221.0265" gradientUnits="userSpaceOnUse" id="color-37-,0,0,1,-127.64223,10.99633"><stop offset="0" stop-color="#7f7f7f"/><stop offset="1" stop-color="#b2b2b2"/></linearGradient><linearGradient x1="97.7324" y1="230.8011" x2="85.7519" y2="231.9752" gradientUnits="userSpaceOnUse" id="color-38-,0,0,1,-127.64223,10.99633"><stop offset="0" stop-color="#000000"/><stop offset="1" stop-color="#353935"/></linearGradient><linearGradient x1="75.4336" y1="232.9865" x2="86.1851" y2="231.9328" gradientUnits="userSpaceOnUse" id="color-39-,0,0,1,-127.64223,10.99633"><stop offset="0" stop-color="#000000"/><stop offset="1" stop-color="#353935"/></linearGradient><radialGradient cx="61.962" cy="227.631" r="27.0916" gradientUnits="userSpaceOnUse" id="color-40-,0,0,1,-127.64223,10.99633"><stop offset="0" stop-color="#666666"/><stop offset="1" stop-color="#000000"/></radialGradient><radialGradient cx="61.2465" cy="236.7341" r="11.6423" gradientUnits="userSpaceOnUse" id="color-41-,0,0,1,-127.64223,10.99633"><stop offset="0" stop-color="#370000"/><stop offset="1" stop-color="#000000"/></radialGradient><radialGradient cx="66.8392" cy="239.9937" r="9.9302" gradientUnits="userSpaceOnUse" id="color-42-,0,0,1,-127.64223,10.99633"><stop offset="0" stop-color="#370000"/><stop offset="1" stop-color="#000000"/></radialGradient><radialGradient cx="59.465" cy="230.1569" r="9.1882" gradientUnits="userSpaceOnUse" id="color-43-,0,0,1,-127.64223,10.99633"><stop offset="0" stop-color="#370000"/><stop offset="1" stop-color="#000000"/></radialGradient><radialGradient cx="70.3398" cy="233.5714" r="8.0804" gradientUnits="userSpaceOnUse" id="color-44-,0,0,1,-127.64223,10.99633"><stop offset="0" stop-color="#370000"/><stop offset="1" stop-color="#000000"/></radialGradient><radialGradient cx="65.8002" cy="228.1709" r="6.0812" gradientUnits="userSpaceOnUse" id="color-45-,0,0,1,-127.64223,10.99633"><stop offset="0" stop-color="#370000"/><stop offset="1" stop-color="#000000"/></radialGradient><radialGradient cx="65.2916" cy="232.5498" r="2.9662" gradientUnits="userSpaceOnUse" id="color-46-,0,0,1,-127.64223,10.99633"><stop offset="0" stop-color="#ff0000"/><stop offset="1" stop-color="#000000"/></radialGradient></defs><g><g data-paper-data="{&quot;isPaintingLayer&quot;:true}" fill-rule="nonzero" stroke-linejoin="miter" stroke-miterlimit="10" stroke-dasharray="" stroke-dashoffset="0" style="mix-blend-mode: normal"><g><path d="M 137.949 170.0389 C 130.4921 172.6463 125.1596 156.0742 126.2687 147.8815 C 127.767 136.8636 138.8114 129.7945 144.6642 120.0139 C 150.9548 109.5363 153.2634 95.1618 163.5332 88.5239 C 170.2302 84.2097 184.8028 84.6407 186.0402 91.9727 C 188.9734 105.4856 179.105 118.8427 171.9243 130.4422 C 162.8071 145.1731 153.3199 163.9266 137.949 170.0389 Z " data-paper-data="{&quot;origRot&quot;:0}" fill="#000000" stroke="#000000" stroke-linecap="round" stroke-width="2.5"/><g data-paper-data="{&quot;origRot&quot;:0}"><path d="M 179.4282 107.0602 C 176.7139 110.2749 169.1509 111.0367 167.5573 107.5341 C 163.7172 99.9095 167.5571 90.6044 167.332 82.2927 C 167.2335 78.5752 165.7149 74.7982 165.8273 71.219 C 165.9813 66.3555 164.3259 59.6206 168.3315 56.8095 C 172.5175 53.8543 178.7646 57.5134 183.567 59.3715 C 187.6056 60.936 192.7632 62.8818 194.9168 66.8407 C 196.287 70.0545 193.8434 73.9542 192.2766 77.1194 C 190.613 80.4817 186.3193 82.2446 184.8085 85.7196 C 181.9002 92.426 184.1242 101.4418 179.4282 107.0603 Z " fill="#ffffff" stroke="#ffffff" stroke-linecap="round" stroke-width="2.5"/><path d="M 167.8481 80.124 C 167.8481 80.124 161.7041 75.4909 159.6896 72.3143 C 157.7125 69.198 156.4061 65.5252 155.8484 61.871 C 155.6781 59.0281 155.7638 55.6154 157.5854 53.4676 C 159.0772 51.7208 162.0963 52.3932 164.3807 52.2127 C 165.0725 52.1575 166.2558 53.1157 166.2558 53.1157 " fill="none" stroke="#353935" stroke-linecap="round" stroke-width="2.5"/><path d="M 157.8687 68.8526 C 156.2997 63.5992 156.1245 57.8041 158.417 53.1315 C 159.2305 50.7938 164.3454 50.1466 165.3265 52.0237 C 166.8153 54.9101 162.9512 58.7321 163.6503 62.0273 C 164.2167 64.6768 167.0318 66.1988 168.1056 68.7006 C 169.288 70.3511 170.1692 72.2632 170.3414 74.3419 C 170.4691 75.7729 170.6048 77.8283 169.6299 78.5823 C 168.6552 79.3362 166.5018 79.0532 165.3469 78.2051 C 162.1863 75.8771 158.9901 72.6822 157.8687 68.8526 Z " fill="#353935" stroke="none" stroke-linecap="round" stroke-width="2.5"/><path d="M 178.2912 80.434 C 175.819 80.3916 173.3493 79.1702 171.1395 77.4318 C 169.6017 76.5047 167.6442 75.1831 167.3162 72.6166 C 166.917 69.1938 166.9691 63.8452 169.2499 62.3025 C 172.2665 60.2716 175.692 63.2926 178.8136 64.312 C 182.4918 65.5525 187.7804 64.726 190.2761 68.8779 C 191.7379 71.349 188.422 76.2587 186.2919 78.4189 C 184.0318 80.7117 180.9678 80.5116 178.2912 80.434 Z " fill="#000000" stroke="none" stroke-linecap="round" stroke-width="2.5"/><g stroke-linecap="round"><path d="M 163.4922 67.3687 C 162.178 64.7686 163.7221 60.7376 164.3044 57.5981 C 164.8801 54.566 164.923 50.7145 166.7927 48.7067 C 168.4259 46.9544 171.5723 46.7623 172.6979 48.7793 C 174.0649 51.2313 173.0205 55.2554 172.6023 58.4824 C 171.9922 61.9147 171.8507 66.3956 169.6404 68.4564 C 167.7624 70.208 164.5474 69.591 163.4921 67.3686 Z " stroke-width="2.5" fill="#353935" stroke="none"/><path d="M 170.9893 68.9731 C 169.6751 66.373 171.2192 62.3419 171.8015 59.2025 C 172.3772 56.1704 172.4201 52.3189 174.2898 50.3111 C 175.923 48.5588 179.0694 48.3667 180.1951 50.3836 C 181.562 52.8357 180.5176 56.8598 180.0994 60.0868 C 179.4894 63.519 179.3479 68 177.1375 70.0608 C 175.2595 71.8124 172.0446 71.1954 170.9893 68.973 Z " stroke-width="2.5" fill="#353935" stroke="none"/><path d="M 178.9196 70.6319 C 177.6054 68.0318 179.1495 64.0008 179.7318 60.8613 C 180.3075 57.8292 180.3504 53.9777 182.2201 51.9699 C 183.8533 50.2176 186.9997 50.0255 188.1253 52.0425 C 189.4923 54.4945 188.4479 58.5186 188.0297 61.7456 C 187.4196 65.1779 187.2781 69.6588 185.0678 71.7196 C 183.1898 73.4712 179.9748 72.8542 178.9195 70.6318 Z " stroke-width="2.5" fill="#353935" stroke="none"/><path d="M 187.2974 71.3573 C 185.9832 68.7572 187.5274 64.7262 188.1096 61.5867 C 188.6854 58.5547 188.7282 54.7032 190.598 52.6954 C 192.2312 50.9431 195.3776 50.751 196.5032 52.7679 C 197.8701 55.22 196.8258 59.244 196.4076 62.471 C 195.7975 65.9033 195.656 70.3843 193.4456 72.4451 C 191.5676 74.1967 188.3527 73.5796 187.2974 71.3573 Z " stroke-width="2.5" fill="#353935" stroke="none"/></g><path d="" fill="#eac18d" stroke="none" stroke-linecap="butt" stroke-width="2.5" transform="matrix(1,0,0,1,-127.64223,10.99633)"/></g><path d="M 101.4184 92.9893 C 102.533 87.7265 112.6921 84.8926 116.9928 88.7448 C 126.153 97.0369 127.1417 111.4736 132.8189 122.2497 C 138.893 134.8875 153.1506 145.2598 152.2106 159.0769 C 151.6281 167.4413 136.1042 173.5459 128.1407 169.3367 C 116.8407 163.2235 112.7264 148.1654 108.054 135.4089 C 103.147 121.9818 98.37 106.9514 101.4184 92.9893 Z " data-paper-data="{&quot;origRot&quot;:0}" fill="#000000" stroke="#000000" stroke-linecap="round" stroke-width="2.5"/><path d="M 151.8973 161.0228 C 147.4438 166.0516 139.0346 171.602 132.0192 169.5627 C 126.6755 167.4139 124.7662 158.0832 126.4623 152.4025 C 129.773 141.3419 141.545 134.6258 146.6328 124.1819 C 152.4089 113.7603 151.5678 100.0774 158.7284 90.4293 C 162.1905 85.7839 170.1259 85.752 175.7925 86.9815 C 180.2336 87.9495 186.4504 91.8493 186.9642 96.7556 C 187.6518 103.33 183.5087 109.9311 180.1569 115.7505 C 171.3702 131.022 163.6682 147.7111 151.8973 161.0227 Z " data-paper-data="{&quot;origRot&quot;:0}" fill="#ffffff" stroke="none" stroke-linecap="round" stroke-width="2.5"/><path d="M 100.7087 94.8207 C 101.5778 89.45 110.5526 82.0631 114.3371 85.7976 C 122.8692 94.2278 120.7913 109.0592 126.4466 119.8327 C 132.7409 132.9912 149.0224 142.5179 149.9767 157.178 C 150.4887 165.1396 135.9373 173.3545 129.1601 168.8407 C 116.4405 161.2554 112.1724 144.5278 106.6648 130.2976 C 102.3471 119.1254 98.8172 106.5186 100.7087 94.8207 Z " data-paper-data="{&quot;origRot&quot;:0}" fill="#ffffff" stroke="none" stroke-linecap="round" stroke-width="2.5"/></g><path d="M 213.3554 257.7732 C 204.8525 251.6097 194.6033 231.5494 204.1829 228.2816 C 233.848 218.2015 268.7012 218.297 298.2833 228.3545 C 308.7573 231.9066 308.3264 255.2521 299.2219 261.5579 C 284.5955 271.295 266.9549 263.4695 250.8672 262.7025 C 238.0357 262.1002 223.3005 265.2155 213.3554 257.7733 Z " data-paper-data="{&quot;origRot&quot;:0}" fill="#ffffff" stroke="#000000" stroke-linecap="round" stroke-width="2.5"/><path d="M 106.7722 270.7057 L 100.5257 227.9607 C 100.5257 227.9607 130.6146 219.2228 152.4911 218.1067 C 169.0439 217.2622 203.1152 220.0701 203.1152 220.0701 L 193.3186 258.2017 C 193.3186 258.2017 155.7996 264.2639 148.3063 266.9042 C 125.8262 274.8251 106.7722 270.7057 106.7722 270.7057 Z " data-paper-data="{&quot;origRot&quot;:0}" fill="#ffffff" stroke="#000000" stroke-linecap="round" stroke-width="2.5"/><g><path d="M 345.7031 271.1553 C 345.3286 273.5268 341.7509 272.7155 339.6372 272.9789 C 330.7865 273.37 322.1178 274.1795 313.3232 273.8449 C 307.3588 273.616 288.6331 273.9522 279.6069 269.346 C 274.3628 266.6699 294.3753 265.9934 296.4892 259.9033 C 300.3815 248.7487 293.2965 235.9869 295.2434 224.4422 C 295.7285 221.557 310.2269 225.0897 311.6351 222.2789 C 314.7401 216.0644 309.9005 207.4315 313.8349 201.8289 C 316.429 198.1354 322.8334 198.5786 327.5073 198.3878 C 330.1655 198.2804 333.806 198.9313 333.806 198.9313 C 333.806 198.9313 347.188 261.6914 345.7031 271.1552 Z " data-paper-data="{&quot;origPos&quot;:null}" fill="url(#color-1-,0,0,1,-127.64223,10.99633)" stroke-linecap="round" stroke-width="2.5" stroke="none"/><path d="M 345.8012 270.7565 C 344.2427 274.3798 336.1558 272.612 336.1558 272.612 C 336.1558 272.612 336.6625 259.1372 334.9225 244.7965 C 333.0085 229.0205 327.2269 198.111 327.2269 198.111 C 327.2269 198.111 333.6742 197.4302 334.5417 200.0831 C 335.4091 202.736 340.711 227.6503 342.6387 243.9012 C 343.6915 252.7644 346.9391 268.1108 345.8011 270.7564 Z " data-paper-data="{&quot;origPos&quot;:null}" fill="url(#color-2-,0,0,1,-127.64223,10.99633)" stroke-linecap="round" stroke-width="2.5" stroke="none"/><g data-paper-data="{&quot;origPos&quot;:null}" stroke-linecap="butt"><g data-paper-data="{&quot;origPos&quot;:null}"><path d="M 337.7439 262.6712 C 337.7439 262.6712 326.6843 259.9529 319.5918 259.7187 C 310.9675 259.4339 297.2632 257.5752 297.2632 257.5752 C 297.2632 257.5752 297.1284 257.0461 297.2683 256.4468 C 297.4663 255.5992 298.2175 254.4129 298.2175 254.4129 L 337.4104 258.0399 Z " data-paper-data="{&quot;origPos&quot;:null}" fill="url(#color-3-,0,0,1,-127.64223,10.99633)" stroke-width="2.5" stroke="none"/><path d="M 317.0211 258.024 C 317.0782 257.7173 317.3429 257.7133 317.4302 257.7206 C 317.6343 257.6168 317.8309 257.5196 318.0524 257.454 C 320.1803 256.8231 320.8244 256.6326 322.5019 258.0302 C 323.5539 258.9301 323.1495 257.296 324.652 257.3729 C 324.9613 257.3887 325.7193 258.366 326.0226 258.5531 C 327.7999 259.6852 328.0265 257.44 330.0502 258.6884 C 331.2897 259.4779 332.3173 261.0112 333.4564 259.1646 C 334.859 258.4927 335.78 260.6763 336.9028 261.3688 C 336.9028 261.3688 337.2218 261.5657 337.025 261.8847 C 336.8282 262.2037 336.5092 262.007 336.5092 262.007 C 335.7647 261.5478 334.16 259.8983 334.0666 259.603 C 332.7053 261.7541 331.138 260.1914 329.6566 259.3265 C 328.2603 258.4651 327.481 260.2725 325.629 259.1912 C 325.2567 258.9615 324.4376 258.4607 324.0932 258.1471 C 323.9034 258.6301 323.1487 259.506 322.0221 258.6062 C 321.0537 257.7994 319.474 257.8145 318.2655 258.1727 C 318.0637 258.2326 317.9134 258.3158 317.7258 258.4114 L 317.3211 258.4611 C 317.3211 258.4611 316.9525 258.3925 317.0212 258.0239 Z " data-paper-data="{&quot;origPos&quot;:null,&quot;origRot&quot;:0}" fill="#000000" stroke-width="2.5" stroke="none"/><path d="M 318.8293 257.4935 C 318.794 257.8034 318.5302 257.826 318.4426 257.8249 C 318.2463 257.9428 318.057 258.0536 317.8407 258.1347 C 315.7625 258.9136 315.1334 259.1491 313.3616 257.8729 C 312.2489 257.0492 312.7674 258.6509 311.2631 258.6799 C 310.9535 258.6859 310.1285 257.7643 309.8129 257.5991 C 307.9603 256.5949 307.8923 258.8504 305.7857 257.7476 C 304.4937 257.0473 303.3608 255.5899 302.3545 257.5121 C 301.0026 258.2811 299.9302 256.1677 298.7615 255.5559 C 298.7615 255.5559 298.4294 255.3821 298.6033 255.0499 C 298.7771 254.7178 299.1093 254.8917 299.1093 254.8917 C 299.8842 255.2973 301.601 256.8299 301.7149 257.1178 C 302.9215 254.8762 304.5949 256.3248 306.1334 257.0833 C 307.5869 257.8442 308.237 255.9865 310.1606 256.9349 C 310.5481 257.1377 311.4005 257.5797 311.7661 257.8682 C 311.9214 257.3731 312.6127 256.4463 313.7998 257.2645 C 314.8227 258.0013 316.3973 257.875 317.5776 257.4326 C 317.7748 257.3587 317.9188 257.265 318.0992 257.1565 L 318.4994 257.0785 C 318.4994 257.0785 318.8719 257.121 318.8294 257.4935 Z " data-paper-data="{&quot;origPos&quot;:null,&quot;index&quot;:null}" fill="#000000" stroke-width="2.5" stroke="none"/></g><path d="M 302.838 262.4732 L 296.6612 257.6033 L 297.3604 254.8787 L 304.447 257.3162 Z " data-paper-data="{&quot;origPos&quot;:null}" fill="#333333" stroke-width="2.5" stroke="none"/></g><g data-paper-data="{&quot;origPos&quot;:null}" stroke-linecap="butt"><path d="M 310.6687 224.128 C 310.7398 224.1144 310.8046 224.1104 310.8634 224.1143 C 310.9423 224.0362 311.0613 223.9645 311.2384 223.9122 C 311.9382 223.7057 312.146 224.2172 312.146 224.2172 C 312.9807 226.2717 311.8481 228.9563 312.875 230.9056 C 312.9189 231.0138 312.9629 231.1219 313.0068 231.2301 L 313.0595 231.7965 C 313.0932 231.9071 313.0898 232.0476 312.9646 232.1913 C 312.8966 232.2883 312.7835 232.3827 312.5958 232.4408 C 312.4156 232.5132 312.2549 232.5159 312.1231 232.4898 C 311.9073 232.4655 311.7812 232.3679 311.708 232.2699 C 310.65 231.2633 309.5017 230.3791 308.3727 229.4387 C 307.9838 229.9152 307.5715 230.3654 307.1316 230.7679 L 307.1625 231.2979 C 307.1801 231.5996 306.8678 231.8784 306.4651 231.9205 C 306.2079 231.9473 305.976 231.8713 305.8374 231.7343 L 305.3658 231.2833 L 305.4278 231.2448 C 305.0899 230.8907 304.3371 230.4347 303.5203 229.9391 C 303.2778 230.4171 303.0084 230.8937 302.8532 231.374 L 302.8554 231.3742 L 302.6733 232.0586 C 302.6138 232.3095 302.3339 232.5215 301.9868 232.5578 C 301.7296 232.5846 301.4978 232.5086 301.3591 232.3716 L 300.8876 231.9206 L 301.1155 231.7788 C 300.6137 231.5647 300.1426 231.2467 299.7064 230.8667 C 299.2436 231.5424 298.7632 232.1364 298.3271 232.5258 C 295.9928 232.7673 295.4575 228.5157 296.6211 226.4261 L 296.5529 226.2581 L 296.1643 226.2263 L 296.3464 225.542 C 296.4059 225.291 296.6858 225.079 297.0329 225.0427 C 297.3799 225.0065 297.681 225.1577 297.7689 225.3933 C 297.8267 225.5357 297.935 225.8021 298.0282 226.0315 C 298.0809 226.1612 298.1288 226.279 298.16 226.3559 C 298.2357 226.9443 298.892 227.6818 299.6226 228.4362 C 299.9698 227.7516 300.2387 227.1069 300.3649 226.6328 L 300.4544 226.2963 C 300.5139 226.0454 300.7938 225.8334 301.1408 225.7971 C 301.5436 225.7549 301.8844 225.9654 301.902 226.2671 L 301.9412 226.9395 L 301.9068 226.9431 C 302.2199 227.1351 302.5462 227.3574 302.8775 227.598 C 303.9044 224.6526 305.2214 224.6828 307.9335 227.2765 C 307.9697 227.3111 308.0059 227.3455 308.0423 227.3798 C 308.8262 226.3577 309.6277 225.38 309.9114 224.8457 L 310.1162 224.486 C 310.1162 224.486 309.9477 224.2654 310.6688 224.128 Z M 309.1716 228.3857 C 309.8409 228.9546 310.5263 229.5015 311.1976 230.0571 C 311.0324 228.579 311.297 227.0056 311.0162 225.555 C 310.4546 226.4403 309.8495 227.4326 309.1716 228.3857 Z M 304.743 226.6604 C 304.5822 227.2756 304.2644 228.0248 304.0772 228.5232 C 304.8623 229.1572 305.6198 229.8136 306.2401 230.333 C 306.3321 229.8597 306.7331 229.1858 307.2417 228.4616 C 307.0782 228.3136 306.9159 228.163 306.7551 228.0094 C 306.3468 227.6189 305.4131 227.1131 304.743 226.6604 Z M 297.9598 228.8329 C 298.0434 229.7567 297.9826 230.6807 297.8147 231.2663 C 298.137 230.8805 298.4673 230.4142 298.7803 229.9191 C 298.4832 229.5689 298.209 229.2002 297.9598 228.8329 Z M 301.1669 228.3414 C 300.9964 228.6957 300.8025 229.0663 300.5934 229.4372 C 301.0569 229.9314 301.454 230.407 301.6358 230.8252 C 301.8788 230.2919 302.1701 229.7637 302.3739 229.2278 C 301.9175 228.9319 301.4934 228.6326 301.1669 228.3414 Z " data-paper-data="{&quot;origPos&quot;:null,&quot;origRot&quot;:0}" fill="url(#color-4-,0,0,1,-127.64223,10.99633)" stroke-width="2.5" stroke="none"/><path d="M 313.7295 222.3957 C 313.8644 222.6023 313.8845 222.7848 313.8518 222.936 L 313.8757 222.9022 C 314.3556 225.8537 314.9541 228.656 314.7031 231.6459 C 314.3069 236.3644 308.5965 233.2024 305.727 233.669 C 302.7659 233.9328 299.9506 233.6928 296.8853 234.1913 C 296.8853 234.1913 296.1605 234.3091 296.0427 233.5844 C 295.9248 232.8597 296.6496 232.7418 296.6496 232.7418 C 298.7709 232.3969 303.9601 232.9524 305.4913 232.2195 C 308.4645 231.7361 312.9991 234.3888 313.2398 231.523 C 313.4804 228.6578 312.8873 225.9731 312.4262 223.1379 L 312.7134 222.1822 C 312.7134 222.1822 313.3283 221.7809 313.7296 222.3957 Z " data-paper-data="{&quot;origPos&quot;:null}" fill="#1a1a1a" stroke-width="2.5" stroke="none"/></g></g><g stroke-linecap="round"><path d="M 206.0184 218.3457 C 213.3205 217.2893 224.3692 218.4885 227.1718 225.5543 C 231.695 236.364 229.6054 250.5341 223.4555 260.8765 C 220.5108 265.7134 212.1156 260.8296 206.4562 260.6119 C 201.7434 259.9997 194.7742 262.4841 192.3791 258.3864 C 187.6001 250.2073 186.1977 238.9297 189.2432 230.3188 C 191.4619 223.4816 199.2631 219.3259 206.0184 218.3457 Z " data-paper-data="{&quot;origPos&quot;:null}" fill="#666666" stroke="#000000" stroke-width="2.5"/><path d="M 206.4346 219.3541 C 212.3676 218.4956 221.3444 219.4699 223.6215 225.2106 C 227.2962 233.9933 225.5984 245.5064 220.6021 253.9092 C 218.2096 257.839 211.3884 253.871 206.7902 253.6944 C 202.9614 253.1967 197.2991 255.2153 195.3529 251.8862 C 191.4703 245.2407 190.3307 236.0781 192.8053 229.0819 C 194.6079 223.5269 200.9463 220.1503 206.4346 219.3541 Z " data-paper-data="{&quot;origPos&quot;:null}" fill="#ffffff" stroke="none" stroke-width="2.5"/></g><path d="M 96.4784 325.858 C 104.5514 321.0118 124.0885 325.3043 123.877 335.2341 C 123.2476 363.9051 111.6411 393.7186 93.3485 415.7808 C 86.1375 424.4707 62.4616 422.3589 58.7574 411.9626 C 53.5082 397.1586 67.4729 380.139 73.9239 365.0426 C 79.6964 351.6283 83.3492 333.6638 96.4784 325.8579 Z " fill="#ffffff" stroke="#000000" stroke-linecap="round" stroke-width="2.5"/><path d="M 52.2602 241.1358 C 52.2602 241.1358 81.9543 209.4931 95.0797 225.1996 C 108.2052 240.9062 125.1242 292.9054 124.4202 327.4864 C 124.1927 338.548 103.1814 345.4869 93.4893 340.0322 C 81.6471 332.9862 81.8531 320.3318 81.8531 320.3318 C 81.8531 320.3318 73.0053 290.7388 68.2727 279.4441 C 60.9641 261.8355 52.2602 241.1358 52.2602 241.1358 Z " data-paper-data="{&quot;origRot&quot;:0}" fill="#ffffff" stroke="#000000" stroke-linecap="round" stroke-width="2.5"/><g data-paper-data="{&quot;origPos&quot;:null}"><path d="M 43.8215 442.7276 C 41.7463 441.405 43.7918 431.2311 45.0523 427.1839 C 47.7994 418.3554 50.7065 408.9745 54.7682 400.7262 C 58.7974 392.5458 62.2904 381.3443 69.0487 377.7587 C 71.8208 376.2867 65.5457 391.1144 70.1231 393.6966 C 80.3876 399.4809 93.7862 394.1441 105.222 398.1734 C 108.0801 399.1799 100.881 413.4344 102.8941 416.7972 C 105.2078 420.6225 112.3063 419.2292 114.8919 422.8859 C 117.5819 426.6895 116.8476 431.9363 116.8618 436.4959 C 116.8405 438.788 114.3452 442.9425 114.3452 442.9425 C 114.3452 442.9425 84.3165 444.4969 69.0487 443.8379 C 60.7214 443.4799 46.0894 444.1729 43.8215 442.7276 Z " data-paper-data="{&quot;origPos&quot;:null}" fill="url(#color-5-,0,0,1,-127.64223,10.99633)" stroke-linecap="round" stroke-width="2.5" stroke="none"/><path d="M 44.4462 442.7276 C 41.34 440.748 44.1816 433.559 44.1816 433.559 C 44.1816 433.559 56.5258 436.0458 70.0047 436.5915 C 84.8328 437.1919 116.7148 436.4958 116.7148 436.4958 C 116.7148 436.4958 114.973 442.5406 112.3977 442.9425 C 109.8225 443.3444 84.9412 444.4969 69.6734 443.8379 C 61.3461 443.4799 46.7141 444.1729 44.4462 442.7275 Z " data-paper-data="{&quot;origPos&quot;:null}" fill="url(#color-6-,0,0,1,-127.64223,10.99633)" stroke-linecap="round" stroke-width="2.5" stroke="none"/><g data-paper-data="{&quot;origPos&quot;:null}" stroke-linecap="butt"><g data-paper-data="{&quot;origPos&quot;:null}"><path d="M 58.5024 436.2643 C 58.5024 436.2643 63.2488 425.1067 64.707 417.6935 C 66.4802 408.6792 70.7753 394.5954 70.7753 394.5954 C 70.7753 394.5954 71.3544 394.5442 71.9602 394.7937 C 72.8171 395.1465 73.9353 396.1387 73.9353 396.1387 L 63.4262 436.7053 Z " data-paper-data="{&quot;origPos&quot;:null}" fill="url(#color-7-,0,0,1,-127.64223,10.99633)" stroke-width="2.5" stroke="none"/><path d="M 66.9273 415.2816 C 67.2398 415.394 67.1988 415.6729 67.1762 415.7634 C 67.2504 415.9956 67.3189 416.2188 67.35 416.4628 C 67.6493 418.8067 67.7395 419.5162 65.9841 421.0402 C 64.8587 421.9919 66.645 421.8462 66.3074 423.412 C 66.2379 423.7344 65.0814 424.3639 64.8329 424.6506 C 63.3396 426.3249 65.6602 426.9467 64.0025 428.86 C 62.9611 430.0276 61.1741 430.8454 62.92 432.358 C 63.3864 433.9468 60.9344 434.5415 60.0147 435.603 C 60.0147 435.603 59.7534 435.9047 59.4517 435.6433 C 59.15 435.382 59.4114 435.0803 59.4114 435.0803 C 60.0211 434.3765 62.0288 432.972 62.355 432.9243 C 60.3271 431.1261 62.2372 429.7462 63.3992 428.3373 C 64.543 427.0171 62.7769 425.8894 64.2296 424.1279 C 64.5346 423.7759 65.2009 423.0007 65.5893 422.6924 C 65.1142 422.4104 64.3226 421.4676 65.4608 420.4375 C 66.4741 419.5576 66.7281 417.8951 66.5582 416.5639 C 66.5298 416.3415 66.468 416.1693 66.3996 415.9559 L 66.4166 415.5221 C 66.4166 415.5221 66.5517 415.1465 66.9273 415.2816 Z " data-paper-data="{&quot;origPos&quot;:null,&quot;origRot&quot;:0}" fill="#000000" stroke-width="2.5" stroke="none"/><path d="M 67.1757 417.2725 C 66.856 417.1824 66.8774 416.9014 66.8935 416.8095 C 66.8031 416.583 66.7191 416.3652 66.6709 416.1241 C 66.2074 413.807 66.0675 413.1056 67.7113 411.4618 C 68.767 410.4334 66.9954 410.7044 67.2219 409.1187 C 67.2685 408.7923 68.3779 408.0829 68.6055 407.7794 C 69.9774 406.0042 67.6188 405.5473 69.1377 403.522 C 70.0944 402.284 71.8195 401.3425 69.9715 399.9565 C 69.3944 398.4044 71.7985 397.6387 72.6412 396.5151 C 72.6412 396.5151 72.8806 396.1958 73.2 396.4353 C 73.5193 396.6747 73.2798 396.9941 73.2798 396.9941 C 72.7211 397.739 70.8173 399.2813 70.4952 399.3518 C 72.6446 401.0028 70.8364 402.5138 69.7764 404.001 C 68.7283 405.3983 70.5694 406.399 69.2442 408.2583 C 68.9647 408.6309 68.3546 409.4511 67.9889 409.786 C 68.4827 410.0338 69.3386 410.9187 68.2758 412.0263 C 67.3268 412.9753 67.1904 414.6515 67.4536 415.9675 C 67.4976 416.1873 67.5714 416.3547 67.6546 416.5628 L 67.6681 416.9967 C 67.6681 416.9967 67.5598 417.3808 67.1757 417.2725 Z " data-paper-data="{&quot;origPos&quot;:null,&quot;index&quot;:null}" fill="#000000" stroke-width="2.5" stroke="none"/></g><path d="M 64.6756 399.6168 L 70.8488 393.958 L 73.5924 395.1584 L 69.8199 402.1889 Z " data-paper-data="{&quot;origPos&quot;:null}" fill="#333333" stroke-width="2.5" stroke="none"/></g><g data-paper-data="{&quot;origPos&quot;:null}" stroke-linecap="butt"><path d="M 102.6732 416.1906 C 102.6752 416.2667 102.6684 416.3344 102.6545 416.3948 C 102.7222 416.4898 102.7766 416.6253 102.8009 416.8179 C 102.897 417.5786 102.3314 417.7079 102.3314 417.7079 C 100.0595 418.2272 97.4657 416.5995 95.2705 417.3358 C 95.1509 417.3632 95.0313 417.3905 94.9117 417.4179 L 94.3153 417.377 C 94.1949 417.3932 94.0497 417.3661 93.9217 417.2119 C 93.8327 417.1251 93.7538 416.9918 93.7251 416.7873 C 93.6805 416.5882 93.7048 416.421 93.7541 416.2887 C 93.8157 416.069 93.9382 415.9547 94.0522 415.8953 C 95.2749 414.9676 96.3857 413.9256 97.5516 412.9131 C 97.123 412.4293 96.7256 411.9257 96.3823 411.4015 L 95.8272 411.3442 C 95.5112 411.3116 95.2748 410.9407 95.299 410.5157 C 95.3145 410.2444 95.4325 410.0167 95.5981 409.896 L 96.1454 409.4829 L 96.1749 409.5537 C 96.5992 409.263 97.1992 408.559 97.8511 407.7953 C 97.3962 407.4632 96.9471 407.1032 96.4752 406.8612 L 96.4746 406.8635 L 95.7954 406.5592 C 95.5451 406.4551 95.3724 406.129 95.3933 405.7629 C 95.4088 405.4916 95.5268 405.2639 95.6924 405.1431 L 96.2397 404.7301 L 96.3483 404.9905 C 96.6551 404.506 97.0644 404.071 97.5322 403.6826 C 96.9094 403.0885 96.3742 402.49 96.0439 401.9719 C 96.1871 399.5098 100.6876 399.6717 102.659 401.2312 L 102.8446 401.1888 L 102.9432 400.7911 L 103.6223 401.0954 C 103.8727 401.1995 104.0453 401.5255 104.0244 401.8917 C 104.0035 402.2579 103.7959 402.5446 103.5367 402.5961 C 103.3792 402.6321 103.0846 402.6994 102.8309 402.7574 C 102.6875 402.7901 102.5572 402.8199 102.4722 402.8394 C 101.8491 402.8186 100.9733 403.375 100.0676 404.0056 C 100.7191 404.4813 101.3425 404.8689 101.8131 405.0797 L 102.147 405.2293 C 102.3973 405.3334 102.5699 405.6595 102.549 406.0256 C 102.5248 406.4506 102.249 406.7686 101.9331 406.7359 L 101.229 406.6632 L 101.2311 406.6268 C 100.9792 406.9193 100.6935 407.2203 100.388 407.5233 C 103.2701 409.0853 103.0165 410.4464 99.8686 412.8222 C 99.8267 412.8539 99.7848 412.8857 99.7431 412.9176 C 100.6711 413.9032 101.5502 414.8995 102.0565 415.284 L 102.395 415.5571 C 102.395 415.5571 102.6523 415.4195 102.6732 416.1906 Z M 98.509 413.9194 C 97.8059 414.5177 97.1231 415.1365 96.4335 415.7391 C 97.9946 415.817 99.5821 416.3569 101.1342 416.3104 C 100.3106 415.5785 99.3833 414.7834 98.509 413.9194 Z M 101.0457 409.6166 C 100.4347 409.346 99.7112 408.89 99.2258 408.6118 C 98.4357 409.3193 97.627 409.9943 96.9836 410.5501 C 97.459 410.7255 98.0904 411.2551 98.7558 411.9048 C 98.937 411.7601 99.1205 411.6171 99.3071 411.4764 C 99.781 411.1187 100.4632 410.2355 101.0457 409.6166 Z M 99.9363 402.2139 C 98.964 402.1448 98.0157 401.9259 97.4367 401.653 C 97.7825 402.0524 98.2104 402.4737 98.6712 402.8818 C 99.0846 402.6327 99.5133 402.4105 99.9363 402.2139 Z M 99.9052 405.6235 C 99.5665 405.3869 99.2147 405.1233 98.8653 404.8438 C 98.2745 405.2412 97.7141 405.5729 97.2497 405.691 C 97.7618 406.033 98.2607 406.4243 98.7822 406.7261 C 99.1661 406.3025 99.5482 405.9131 99.9052 405.6235 Z " data-paper-data="{&quot;origPos&quot;:null,&quot;origRot&quot;:0}" fill="#292929" stroke-width="2.5" stroke="none"/><path d="M 103.9536 419.6578 C 103.7166 419.7628 103.5239 419.7529 103.3725 419.6935 L 103.4036 419.724 C 100.261 419.724 97.2533 419.8722 94.1941 419.1074 C 89.3664 417.9004 93.6096 412.5104 93.6096 409.4552 C 93.8355 406.3391 94.5593 403.4592 94.5593 400.1954 C 94.5593 400.1954 94.5593 399.4238 95.331 399.4238 C 96.1026 399.4238 96.1026 400.1954 96.1026 400.1954 C 96.1026 402.454 94.651 407.7432 95.1529 409.4552 C 95.1529 412.6208 91.6362 416.8771 94.5684 417.6102 C 97.5 418.3431 100.3848 418.1807 103.4036 418.1807 L 104.3465 418.6398 C 104.3465 418.6398 104.6591 419.3453 103.9536 419.6579 Z " data-paper-data="{&quot;origPos&quot;:null}" fill="#1a1a1a" stroke-width="2.5" stroke="none"/></g></g><g data-paper-data="{&quot;origRot&quot;:0}" stroke-linecap="round"><path d="M 126.5922 325.9502 C 127.2618 333.2978 125.4813 344.2679 118.2778 346.6937 C 107.2443 350.6406 93.2041 347.8064 83.2008 341.1196 C 78.5258 337.9236 83.8458 329.7977 84.3618 324.1577 C 85.2216 319.4838 83.1082 312.3932 87.3265 310.2177 C 95.7465 305.8767 107.0823 305.0711 115.5205 308.5667 C 122.2313 311.1431 125.9698 319.1526 126.5922 325.9502 Z " data-paper-data="{&quot;origPos&quot;:null}" fill="#666666" stroke="#000000" stroke-width="2.5"/><path d="M 124.8659 325.9962 C 125.4103 331.9662 123.9637 340.8791 118.1108 342.8502 C 109.1464 346.0568 97.7393 343.7541 89.6114 338.321 C 85.8132 335.7245 90.0882 329.1167 90.5546 324.54 C 91.2063 320.7368 89.5266 314.9604 92.9637 313.2142 C 99.8007 309.7398 108.9567 309.0333 115.8708 311.8728 C 121.2528 313.9599 124.3603 320.4734 124.8659 325.9962 Z " data-paper-data="{&quot;origPos&quot;:null}" fill="#ffffff" stroke="none" stroke-width="2.5"/></g><g><path d="M 49.9242 237.832 C 49.9242 237.832 47.7179 202.9513 43.3307 181.1027 C 40.3016 166.0181 26.1714 126.3248 35.8246 93.9661 C 45.4778 61.6073 110.0817 68.2721 118.1528 84.8637 C 126.2239 101.4552 122.7165 159.4081 123.0989 172.2512 C 123.7757 194.9799 126.7209 230.3055 126.7209 230.3055 Z " data-paper-data="{&quot;origPos&quot;:null}" fill="#000000" stroke="none" stroke-linecap="butt" stroke-width="2.5"/><path d="M 33.8898 105.3112 C 34.8553 96.0204 36.8051 85.3294 44.8405 86.0554 C 52.876 86.7813 64.3412 91.1506 70.0389 96.7888 C 73.5778 100.3032 78.3875 127.9241 73.3444 133.6814 C 68.8791 139.1308 39.5984 142.7634 37.2168 138.4626 C 32.0635 129.1084 32.6753 116.9969 33.8898 105.3112 Z " data-paper-data="{&quot;origPos&quot;:null,&quot;index&quot;:null}" fill="#ffffff" stroke="#000000" stroke-linecap="round" stroke-width="2.5"/><path d="M 124.5054 130.7941 C 123.0042 135.4754 93.5753 137.5967 88.1369 133.1178 C 82.0721 128.4492 81.4278 100.4201 84.217 96.2855 C 88.7117 89.6484 99.1104 83.1363 106.8521 80.8641 C 114.5937 78.5919 118.582 88.701 121.3329 97.6275 C 124.793 108.8551 127.7445 120.6174 124.5054 130.7941 Z " data-paper-data="{&quot;origPos&quot;:null}" fill="#ffffff" stroke="#000000" stroke-linecap="round" stroke-width="2.5"/><path d="M 120.2706 142.2853 C 125.3338 148.5376 123.3751 158.2663 123.2483 166.3392 C 122.8891 171.5661 122.7433 178.053 118.8418 181.5026 C 115.0765 184.8552 90.8819 185.6385 86.3162 181.899 C 82.4252 178.7789 80.4276 150.96 84.899 145.2866 C 88.582 140.3046 116.6229 137.786 120.2706 142.2852 Z " data-paper-data="{&quot;origPos&quot;:null}" fill="#ffffff" stroke="#000000" stroke-linecap="round" stroke-width="2.5"/><path d="M 76.0023 145.8264 C 79.8543 150.6685 82.8434 177.6553 79.3078 182.719 C 76.5046 186.6471 51.3182 188.1014 46.4419 184.3893 C 40.8685 180.147 40.2657 171.5595 38.7719 164.672 C 37.7702 158.4061 34.0986 149.4556 39.0707 145.5692 C 45.5642 140.4978 73.5052 142.6565 76.0023 145.8264 Z " data-paper-data="{&quot;origPos&quot;:null}" fill="#ffffff" stroke="#000000" stroke-linecap="round" stroke-width="2.5"/><path d="M 118.0501 233.9273 L 51.7429 238.2548 L 47.7329 195.2285 L 117.2866 190.2727 Z " data-paper-data="{&quot;origPos&quot;:null}" fill="url(#color-8-,0,0,1,-127.64223,10.99633)" stroke="#000000" stroke-linecap="round" stroke-width="2.5"/><g><path d="M 99.8306 93.8203 L 104.9312 93.5586 L 104.9863 101.4214 L 112.4486 100.9286 L 112.8884 105.4157 L 105.2734 105.5659 L 107.5532 128.8276 L 102.8067 129.0546 L 100.8811 105.7579 L 93.4651 106.7232 L 93.0832 102.8265 L 100.8997 102.2989 Z " stroke-linecap="round" stroke-width="2.5" fill="#000000" stroke="none"/><g stroke-linecap="butt"><path d="M 115.5822 127.5716 C 115.615 127.9062 115.5181 128.0658 115.295 128.0876 C 113.6666 128.3223 112.0347 128.5197 110.4063 128.7544 C 110.2948 128.7653 110.2204 128.7726 110.1461 128.7799 C 110.1169 128.4825 110.0579 128.2632 110.0324 128.003 C 110.0215 127.8915 110.1184 127.7319 110.2299 127.7209 C 110.4828 127.6211 110.7394 127.5584 111.0294 127.455 C 111.5017 127.2958 111.5651 127.177 111.5177 126.6938 C 111.4158 125.653 111.3844 124.5675 111.2452 123.5304 C 111.055 121.9726 110.7869 120.3849 110.5967 118.8272 C 110.5092 117.9351 110.4998 117.0726 110.4123 116.1805 C 110.3504 115.5483 110.2848 114.8793 110.1821 114.2139 C 110.0961 114.485 110.0048 114.756 109.8869 115.0309 C 109.4181 116.1648 108.8784 117.0829 108.3476 118.0905 C 107.9153 118.92 107.3121 119.5026 106.8901 120.2601 C 106.5176 120.9339 106.1692 121.5998 105.7302 122.2129 C 105.4103 122.6536 105.331 123.7592 104.8599 123.4804 C 102.7855 122.1054 101.7811 120.2872 100.1898 118.7213 C 99.2492 117.7748 98.1851 116.8702 97.2517 115.9314 C 97.0185 115.6975 97.0812 115.723 97.0331 115.6151 L 96.9587 115.6224 C 97.0316 116.3658 97.1045 117.1095 97.1773 117.8529 C 97.3894 119.6337 97.6051 121.4517 97.78 123.2361 C 97.9111 124.5742 97.9716 125.9571 98.0656 127.2992 C 98.0984 127.6337 98.1683 127.9646 98.2383 128.2955 C 98.301 128.552 98.5386 128.6791 98.8024 128.6908 C 98.9919 128.7098 99.1406 128.6952 99.3264 128.677 C 99.5866 128.6515 99.6383 128.7965 99.6194 128.986 C 99.6041 129.2127 99.6223 129.3985 99.6442 129.6216 C 99.6624 129.8074 99.5509 129.8183 99.4022 129.8329 C 98.7739 129.932 98.1454 130.0312 97.5507 130.0894 C 96.8853 130.1921 96.2531 130.2541 95.5877 130.3569 C 95.3646 130.3787 95.2495 130.3525 95.2612 130.0886 C 95.2765 129.862 95.2174 129.6426 95.1992 129.4567 C 95.1774 129.2337 95.2816 129.1485 95.501 129.0894 C 95.7947 129.0231 96.0884 128.9568 96.3379 128.8195 C 96.4086 128.775 96.5056 128.6154 96.4983 128.5411 C 96.4516 127.6826 96.3642 126.7902 96.3176 125.9316 C 96.2637 124.9987 96.2469 124.0619 96.1894 123.0918 C 96.1638 122.8313 96.1347 122.534 96.072 122.2774 C 95.8731 121.3963 95.8192 120.4631 95.7245 119.4967 C 95.586 118.0839 95.414 116.712 95.2756 115.2996 C 95.2282 114.8161 95.1772 114.2957 95.0927 113.8161 C 94.9856 113.4889 94.748 113.362 94.4131 113.3948 C 94.3759 113.3985 94.3388 113.4021 94.3388 113.4021 C 93.6661 113.4305 93.5363 113.2553 93.6231 112.6089 C 93.6158 112.5345 93.7535 112.4084 93.8278 112.4012 C 94.1252 112.372 94.4226 112.3429 94.7202 112.3137 C 95.616 112.2634 96.5047 112.1388 97.3596 112.055 C 97.8428 112.0076 97.9216 112.28 98.154 112.5025 C 99.2347 113.4892 99.8664 114.4536 100.7165 115.4793 C 101.8469 116.6782 102.9061 117.9636 104.1008 119.1822 C 104.3999 119.4872 104.1675 119.4833 104.4353 119.1494 C 105.7093 117.5983 106.9123 115.9688 107.9886 114.4289 C 108.5675 113.6042 108.8842 112.6047 109.4954 111.8038 C 109.7653 111.4502 109.9021 110.9759 110.4972 110.9176 C 111.5416 110.8528 112.6161 110.7099 113.6605 110.6451 C 113.8836 110.6232 113.9688 110.7275 113.9907 110.9505 C 114.0453 111.5083 114.0453 111.5083 113.4543 111.6038 C 112.8596 111.6621 112.6591 111.5313 112.7466 112.4237 C 112.8194 113.167 112.8887 113.8736 112.9987 114.6133 C 113.0242 114.8735 113.0869 115.1301 113.1124 115.3903 C 113.2363 116.6543 113.3565 117.8812 113.4804 119.145 C 113.637 120.7436 113.7529 122.3087 113.9095 123.9073 C 113.997 124.7993 114.0473 125.6954 114.1012 126.6283 C 114.1485 127.1118 114.2782 127.2867 114.7651 127.2765 C 114.9138 127.2619 115.0698 127.3217 115.2148 127.27 C 115.542 127.1629 115.5639 127.3858 115.5821 127.5717 Z " stroke-width="2.5" fill="#000000" stroke="none"/></g></g><g><g><path d="M 60.8348 301.8419 C 60.8348 301.8419 61.181 302.2921 61.2129 302.1525 C 61.3027 301.7585 61.1608 301.2284 61.078 300.7754 C 61.0352 300.5417 60.9 300.3329 60.8384 300.1035 C 60.7176 299.6551 60.6794 299.1834 60.5311 298.7433 C 60.4322 298.4493 60.2554 298.186 60.1024 297.9163 C 59.9757 297.6924 59.7955 297.4967 59.6909 297.2613 C 59.4973 296.8274 59.2579 296.3907 59.2116 295.9179 C 59.0931 294.7088 59.2233 293.484 59.2017 292.2692 C 59.1961 291.9655 59.1151 291.81 59.1342 291.5805 C 59.1686 291.1625 59.3257 290.7597 59.3601 290.3417 C 59.3792 290.1122 59.3063 289.9124 59.2926 289.6533 C 59.2384 288.6159 59.1613 286.5375 59.1613 286.5375 " fill="none" stroke="#7f7f7f" stroke-linecap="round" stroke-width="2.5"/><path d="M 57.1677 281.3966 C 55.7824 280.7403 55.2559 275.5989 53.4983 273.1679 C 52.5732 271.8862 50.2446 272.0629 49.4395 270.7028 C 47.4473 267.3367 46.6303 263.38 45.4923 259.6381 C 44.7514 257.1992 44.8436 254.4972 43.806 252.1693 C 43.1626 250.7245 41.2435 250.1109 40.6001 248.6664 C 39.5625 246.3384 38.7048 243.7392 38.9138 241.1973 C 39.0231 239.8601 40.6189 239.1216 41.4712 238.0838 C 42.3238 237.0459 43.3586 236.1335 44.029 234.9702 C 44.7354 233.7445 44.556 232.012 45.5489 231.0044 C 46.4638 230.0768 47.9405 229.8157 49.2371 229.6887 C 50.534 229.5615 52.0331 229.531 53.1106 230.2633 C 54.2803 231.059 54.6187 232.6614 55.3715 233.8586 C 56.1244 235.0561 57.238 236.096 57.6325 237.4542 C 58.6953 241.112 59.3179 244.9137 59.6893 248.7041 C 59.938 251.2409 59.6577 253.8145 59.4852 256.3582 C 59.3969 257.6592 58.8647 258.9289 58.9105 260.2317 C 59.0437 264.0243 60.1235 267.7797 60.0222 271.5742 C 59.9852 272.9883 58.898 274.1825 58.5023 275.5403 C 57.9444 277.4614 58.1685 281.8713 57.1676 281.3966 Z " fill="none" stroke="#7f7f7f" stroke-linecap="round" stroke-width="2.5"/><path d="M 43.1457 236.3269 C 43.4961 236.6141 43.7364 237.035 43.7841 237.521 C 43.8317 238.0072 43.6776 238.4665 43.3897 238.8166 C 43.1024 239.1667 42.6818 239.407 42.1956 239.4547 C 41.7096 239.5023 41.2501 239.3482 40.9002 239.0606 C 40.5498 238.773 40.3095 238.3525 40.2618 237.8662 C 40.2142 237.3802 40.3683 236.9207 40.6562 236.5708 C 40.9435 236.2204 41.3644 235.9801 41.8503 235.9325 C 42.3366 235.8848 42.7958 236.0389 43.1457 236.3268 Z " fill="url(#color-9-,0,0,1,-127.64223,10.99633)" stroke="none" stroke-linecap="butt" stroke-width="2.5"/><path d="M 40.3147 239.0854 C 40.6651 239.3727 40.9054 239.7935 40.9531 240.2795 C 41.0007 240.7658 40.8466 241.225 40.5587 241.5751 C 40.2714 241.9252 39.8508 242.1655 39.3645 242.2132 C 38.8786 242.2608 38.419 242.1068 38.0692 241.8191 C 37.7188 241.5315 37.4785 241.111 37.4308 240.6247 C 37.3832 240.1387 37.5373 239.6792 37.8252 239.3294 C 38.1125 238.979 38.5334 238.7386 39.0193 238.691 C 39.5056 238.6433 39.9648 238.7974 40.3147 239.0854 Z " fill="url(#color-10-,0,0,1,-127.64223,10.99633)" stroke="none" stroke-linecap="butt" stroke-width="2.5"/><path d="M 39.9531 243.3076 C 40.3035 243.5949 40.5439 244.0158 40.5915 244.5018 C 40.6391 244.988 40.4851 245.4473 40.1971 245.7974 C 39.9098 246.1475 39.4892 246.3878 39.003 246.4355 C 38.517 246.4831 38.0575 246.329 37.7077 246.0414 C 37.3572 245.7538 37.1169 245.3332 37.0693 244.847 C 37.0217 244.361 37.1757 243.9015 37.4637 243.5516 C 37.7509 243.2012 38.1718 242.9609 38.6578 242.9133 C 39.144 242.8656 39.6033 243.0197 39.9531 243.3076 Z " fill="url(#color-11-,0,0,1,-127.64223,10.99633)" stroke="none" stroke-linecap="butt" stroke-width="2.5"/><path d="M 41.6969 246.8584 C 42.0473 247.1456 42.2876 247.5665 42.3353 248.0525 C 42.3829 248.5388 42.2288 248.998 41.9409 249.3481 C 41.6536 249.6982 41.233 249.9385 40.7467 249.9862 C 40.2608 250.0338 39.8012 249.8798 39.4514 249.5921 C 39.101 249.3045 38.8607 248.884 38.813 248.3977 C 38.7654 247.9117 38.9195 247.4522 39.2074 247.1023 C 39.4947 246.752 39.9156 246.5116 40.4015 246.464 C 40.8878 246.4163 41.347 246.5704 41.6969 246.8584 Z " fill="url(#color-12-,0,0,1,-127.64223,10.99633)" stroke="none" stroke-linecap="butt" stroke-width="2.5"/><path d="M 44.4854 249.9966 C 44.8358 250.2839 45.0761 250.7048 45.1238 251.1907 C 45.1714 251.677 45.0173 252.1362 44.7294 252.4864 C 44.4421 252.8365 44.0215 253.0768 43.5353 253.1244 C 43.0493 253.1721 42.5898 253.018 42.24 252.7304 C 41.8895 252.4428 41.6492 252.0222 41.6016 251.5359 C 41.5539 251.05 41.708 250.5904 41.9959 250.2406 C 42.2832 249.8902 42.7041 249.6499 43.19 249.6022 C 43.6763 249.5546 44.1355 249.7087 44.4854 249.9966 Z " fill="url(#color-13-,0,0,1,-127.64223,10.99633)" stroke="none" stroke-linecap="butt" stroke-width="2.5"/><path d="M 45.6899 254.3756 C 46.0403 254.6629 46.2806 255.0837 46.3283 255.5697 C 46.3759 256.056 46.2218 256.5152 45.9339 256.8653 C 45.6466 257.2154 45.226 257.4557 44.7398 257.5034 C 44.2538 257.551 43.7943 257.397 43.4445 257.1093 C 43.094 256.8217 42.8537 256.4012 42.8061 255.9149 C 42.7584 255.4289 42.9125 254.9694 43.2004 254.6196 C 43.4877 254.2692 43.9086 254.0288 44.3945 253.9812 C 44.8808 253.9335 45.34 254.0876 45.6899 254.3756 Z " fill="url(#color-14-,0,0,1,-127.64223,10.99633)" stroke="none" stroke-linecap="butt" stroke-width="2.5"/><path d="M 46.8342 258.1402 C 47.1846 258.4274 47.4249 258.8483 47.4726 259.3343 C 47.5202 259.8206 47.3661 260.2798 47.0782 260.6299 C 46.7909 260.98 46.3703 261.2203 45.884 261.268 C 45.3981 261.3156 44.9385 261.1616 44.5887 260.8739 C 44.2383 260.5863 43.998 260.1658 43.9503 259.6795 C 43.9027 259.1935 44.0568 258.734 44.3447 258.3841 C 44.632 258.0338 45.0529 257.7934 45.5388 257.7458 C 46.0251 257.6981 46.4843 257.8522 46.8342 258.1402 Z " fill="url(#color-15-,0,0,1,-127.64223,10.99633)" stroke="none" stroke-linecap="butt" stroke-width="2.5"/><path d="M 48.0237 262.3655 C 48.374 262.6528 48.6144 263.0737 48.662 263.5597 C 48.7097 264.0459 48.5556 264.5052 48.2677 264.8553 C 47.9804 265.2054 47.5598 265.4457 47.0735 265.4934 C 46.5875 265.541 46.128 265.3869 45.7782 265.0993 C 45.4278 264.8117 45.1875 264.3911 45.1398 263.9049 C 45.0922 263.4189 45.2462 262.9594 45.5342 262.6095 C 45.8215 262.2591 46.2423 262.0188 46.7283 261.9711 C 47.2146 261.9235 47.6738 262.0776 48.0236 262.3655 Z " fill="url(#color-16-,0,0,1,-127.64223,10.99633)" stroke="none" stroke-linecap="butt" stroke-width="2.5"/><path d="M 49.168 266.1301 C 49.5183 266.4174 49.7587 266.8383 49.8063 267.3242 C 49.854 267.8105 49.6999 268.2697 49.412 268.6199 C 49.1247 268.9699 48.7041 269.2103 48.2178 269.2579 C 47.7318 269.3056 47.2723 269.1515 46.9225 268.8639 C 46.5721 268.5763 46.3318 268.1557 46.2841 267.6694 C 46.2365 267.1835 46.3905 266.7239 46.6785 266.3741 C 46.9658 266.0237 47.3866 265.7834 47.8726 265.7357 C 48.3589 265.6881 48.8181 265.8422 49.1679 266.1301 Z " fill="url(#color-17-,0,0,1,-127.64223,10.99633)" stroke="none" stroke-linecap="butt" stroke-width="2.5"/><path d="M 51.6796 269.6056 C 52.03 269.8929 52.2704 270.3138 52.318 270.7998 C 52.3657 271.286 52.2116 271.7452 51.9236 272.0954 C 51.6364 272.4455 51.2158 272.6858 50.7295 272.7335 C 50.2435 272.7811 49.784 272.627 49.4342 272.3394 C 49.0838 272.0518 48.8435 271.6312 48.7958 271.145 C 48.7482 270.659 48.9022 270.1995 49.1902 269.8496 C 49.4775 269.4992 49.8983 269.2589 50.3843 269.2113 C 50.8706 269.1636 51.3298 269.3177 51.6796 269.6056 Z " fill="url(#color-18-,0,0,1,-127.64223,10.99633)" stroke="none" stroke-linecap="butt" stroke-width="2.5"/><g stroke-linecap="butt"><path d="M 54.2978 272.3824 C 54.7294 272.5206 55.108 272.8231 55.3314 273.2577 C 55.5548 273.692 55.5808 274.1758 55.4419 274.6071 C 55.3037 275.0387 55.0012 275.417 54.5669 275.6404 C 54.1326 275.8638 53.6488 275.8898 53.2175 275.7512 C 52.7859 275.613 52.4073 275.3105 52.1839 274.8762 C 51.9605 274.4419 51.9345 273.9578 52.0734 273.5265 C 52.2116 273.0949 52.5141 272.7166 52.9484 272.4932 C 53.3827 272.2699 53.8665 272.2439 54.2978 272.3824 Z " fill="url(#color-19-,0,0,1,-127.64223,10.99633)" stroke-width="2.5" stroke="none"/><path d="M 56.0265 275.7796 C 56.4581 275.9178 56.8366 276.2203 57.06 276.655 C 57.2834 277.0893 57.3094 277.573 57.1706 278.0044 C 57.0324 278.436 56.7298 278.8142 56.2955 279.0376 C 55.8612 279.261 55.3774 279.287 54.9461 279.1485 C 54.5145 279.0103 54.136 278.7078 53.9126 278.2735 C 53.6892 277.8392 53.6632 277.3551 53.802 276.9237 C 53.9402 276.4921 54.2427 276.1139 54.6771 275.8905 C 55.1114 275.6671 55.5951 275.6411 56.0265 275.7796 Z " fill="url(#color-20-,0,0,1,-127.64223,10.99633)" stroke-width="2.5" stroke="none"/></g><path d="M 47.8435 229.1262 C 48.4361 229.6121 48.8426 230.3237 48.9232 231.1458 C 49.0037 231.9678 48.7431 232.7448 48.2562 233.3365 C 47.7702 233.9291 47.0586 234.3356 46.2366 234.4162 C 45.4146 234.4967 44.6379 234.236 44.0458 233.7491 C 43.4536 233.2632 43.0471 232.5516 42.9665 231.7295 C 42.8859 230.9075 43.1466 230.1305 43.6332 229.5388 C 44.1195 228.9466 44.8308 228.54 45.6528 228.4595 C 46.4749 228.3789 47.2519 228.6396 47.8435 229.1262 Z " fill="url(#color-21-,0,0,1,-127.64223,10.99633)" stroke="none" stroke-linecap="butt" stroke-width="2.5"/><path d="M 56.2856 231.1624 C 56.636 231.4497 56.8763 231.8705 56.924 232.3565 C 56.9716 232.8428 56.8175 233.302 56.5296 233.6521 C 56.2423 234.0022 55.8217 234.2425 55.3354 234.2902 C 54.8495 234.3378 54.3899 234.1838 54.0401 233.8961 C 53.6897 233.6085 53.4494 233.188 53.4017 232.7017 C 53.3541 232.2157 53.5082 231.7562 53.7961 231.4064 C 54.0834 231.056 54.5043 230.8156 54.9902 230.768 C 55.4765 230.7203 55.9357 230.8744 56.2856 231.1624 Z " fill="url(#color-22-,0,0,1,-127.64223,10.99633)" stroke="none" stroke-linecap="butt" stroke-width="2.5"/><path d="M 58.5351 235.1287 C 58.8855 235.4159 59.1259 235.8368 59.1735 236.3228 C 59.2212 236.809 59.0671 237.2683 58.7791 237.6184 C 58.4918 237.9685 58.0713 238.2088 57.585 238.2565 C 57.099 238.3041 56.6395 238.15 56.2897 237.8624 C 55.9393 237.5748 55.699 237.1542 55.6513 236.668 C 55.6037 236.182 55.7577 235.7225 56.0457 235.3726 C 56.3329 235.0222 56.7538 234.7819 57.2398 234.7343 C 57.7261 234.6866 58.1853 234.8407 58.5351 235.1286 Z " fill="url(#color-23-,0,0,1,-127.64223,10.99633)" stroke="none" stroke-linecap="butt" stroke-width="2.5"/><path d="M 59.7547 239.6612 C 60.1051 239.9485 60.3454 240.3694 60.3931 240.8553 C 60.4407 241.3416 60.2866 241.8008 59.9987 242.151 C 59.7114 242.501 59.2908 242.7414 58.8045 242.789 C 58.3186 242.8366 57.859 242.6826 57.5092 242.3949 C 57.1588 242.1074 56.9185 241.6868 56.8708 241.2005 C 56.8232 240.7146 56.9773 240.255 57.2652 239.9052 C 57.5525 239.5548 57.9734 239.3145 58.4593 239.2668 C 58.9456 239.2192 59.4048 239.3733 59.7547 239.6612 Z " fill="url(#color-24-,0,0,1,-127.64223,10.99633)" stroke="none" stroke-linecap="butt" stroke-width="2.5"/><path d="M 60.2514 244.7299 C 60.6018 245.0172 60.8422 245.438 60.8898 245.924 C 60.9375 246.4103 60.7834 246.8695 60.4954 247.2196 C 60.2081 247.5697 59.7876 247.81 59.3013 247.8577 C 58.8153 247.9053 58.3558 247.7513 58.006 247.4636 C 57.6556 247.176 57.4153 246.7555 57.3676 246.2692 C 57.32 245.7832 57.474 245.3237 57.762 244.9739 C 58.0492 244.6235 58.4701 244.3831 58.9561 244.3355 C 59.4424 244.2878 59.9016 244.4419 60.2514 244.7299 Z " fill="url(#color-25-,0,0,1,-127.64223,10.99633)" stroke="none" stroke-linecap="butt" stroke-width="2.5"/><path d="M 60.8716 249.4762 C 61.222 249.7635 61.4623 250.1844 61.51 250.6703 C 61.5576 251.1566 61.4035 251.6158 61.1156 251.966 C 60.8283 252.316 60.4077 252.5564 59.9215 252.604 C 59.4355 252.6516 58.976 252.4976 58.6262 252.2099 C 58.2757 251.9224 58.0354 251.5018 57.9878 251.0155 C 57.9401 250.5296 58.0942 250.07 58.3821 249.7202 C 58.6694 249.3698 59.0903 249.1295 59.5762 249.0818 C 60.0625 249.0342 60.5217 249.1883 60.8716 249.4762 Z " fill="url(#color-26-,0,0,1,-127.64223,10.99633)" stroke="none" stroke-linecap="butt" stroke-width="2.5"/><path d="M 61.0463 254.4213 C 61.3967 254.7085 61.637 255.1294 61.6847 255.6154 C 61.7323 256.1016 61.5782 256.5609 61.2903 256.911 C 61.003 257.2611 60.5824 257.5014 60.0962 257.5491 C 59.6102 257.5967 59.1507 257.4426 58.8009 257.155 C 58.4504 256.8674 58.2101 256.4468 58.1625 255.9606 C 58.1148 255.4746 58.2689 255.0151 58.5568 254.6652 C 58.8441 254.3148 59.265 254.0745 59.751 254.0269 C 60.2372 253.9792 60.6965 254.1333 61.0463 254.4212 Z " fill="url(#color-27-,0,0,1,-127.64223,10.99633)" stroke="none" stroke-linecap="butt" stroke-width="2.5"/><path d="M 60.8985 259.2429 C 61.2489 259.5302 61.4892 259.951 61.5368 260.437 C 61.5845 260.9233 61.4304 261.3825 61.1425 261.7326 C 60.8552 262.0827 60.4346 262.323 59.9483 262.3707 C 59.4624 262.4183 59.0028 262.2643 58.653 261.9766 C 58.3026 261.689 58.0623 261.2685 58.0146 260.7822 C 57.967 260.2962 58.1211 259.8367 58.409 259.4869 C 58.6963 259.1365 59.1171 258.8961 59.6031 258.8485 C 60.0894 258.8008 60.5486 258.9549 60.8985 259.2429 Z " fill="url(#color-28-,0,0,1,-127.64223,10.99633)" stroke="none" stroke-linecap="butt" stroke-width="2.5"/><path d="M 61.0278 263.7272 C 61.3782 264.0145 61.6185 264.4353 61.6662 264.9213 C 61.7138 265.4076 61.5597 265.8668 61.2718 266.2169 C 60.9845 266.567 60.5639 266.8074 60.0776 266.855 C 59.5917 266.9026 59.1321 266.7486 58.7823 266.4609 C 58.4319 266.1734 58.1916 265.7528 58.1439 265.2665 C 58.0963 264.7805 58.2504 264.321 58.5383 263.9712 C 58.8256 263.6208 59.2465 263.3804 59.7324 263.3328 C 60.2187 263.2852 60.6779 263.4392 61.0278 263.7272 Z " fill="url(#color-29-,0,0,1,-127.64223,10.99633)" stroke="none" stroke-linecap="butt" stroke-width="2.5"/><path d="M 61.0487 268.6874 C 61.3991 268.9747 61.6394 269.3956 61.6871 269.8815 C 61.7347 270.3678 61.5806 270.827 61.2927 271.1772 C 61.0054 271.5272 60.5848 271.7676 60.0986 271.8152 C 59.6126 271.8629 59.1531 271.7088 58.8033 271.4212 C 58.4528 271.1336 58.2125 270.713 58.1649 270.2267 C 58.1172 269.7408 58.2713 269.2812 58.5592 268.9314 C 58.8465 268.581 59.2674 268.3407 59.7534 268.293 C 60.2396 268.2454 60.6989 268.3995 61.0487 268.6874 Z " fill="url(#color-30-,0,0,1,-127.64223,10.99633)" stroke="none" stroke-linecap="butt" stroke-width="2.5"/><path d="M 60.148 273.7378 C 60.4984 274.0251 60.7387 274.446 60.7864 274.9319 C 60.834 275.4182 60.6799 275.8774 60.392 276.2276 C 60.1047 276.5776 59.6841 276.818 59.1979 276.8656 C 58.7119 276.9133 58.2524 276.7592 57.9026 276.4716 C 57.5521 276.184 57.3118 275.7634 57.2642 275.2771 C 57.2165 274.7912 57.3706 274.3316 57.6585 273.9818 C 57.9458 273.6314 58.3667 273.3911 58.8526 273.3434 C 59.3389 273.2958 59.7981 273.4499 60.148 273.7378 Z " fill="url(#color-31-,0,0,1,-127.64223,10.99633)" stroke="none" stroke-linecap="butt" stroke-width="2.5"/><path d="M 60.5871 280.3438 C 61.3414 281.1352 61.8721 282.2778 62.0001 283.584 C 62.1281 284.8905 61.8294 286.1144 61.2431 287.0371 C 60.6571 287.9595 59.7841 288.5807 58.7628 288.6808 C 57.7417 288.7809 56.7644 288.3411 56.0105 287.55 C 55.2565 286.7586 54.7258 285.6159 54.5978 284.3095 C 54.4698 283.0033 54.7685 281.7794 55.3545 280.8567 C 55.9405 279.9339 56.8138 279.3127 57.8348 279.2127 C 58.8562 279.1126 59.8332 279.5524 60.5871 280.3438 Z " fill="#b2b2b2" stroke="none" stroke-linecap="butt" stroke-width="2.5"/><path d="M 59.64 288.9164 C 60.0716 289.0546 60.4501 289.3571 60.6735 289.7917 C 60.8969 290.226 60.9229 290.7098 60.7841 291.1412 C 60.6459 291.5728 60.3433 291.951 59.909 292.1744 C 59.4747 292.3978 58.991 292.4238 58.5596 292.2853 C 58.128 292.1471 57.7495 291.8446 57.5261 291.4102 C 57.3027 290.9759 57.2767 290.4919 57.4155 290.0605 C 57.5537 289.6289 57.8563 289.2507 58.2906 289.0273 C 58.7249 288.8039 59.2086 288.7779 59.64 288.9164 Z " fill="url(#color-32-,0,0,1,-127.64223,10.99633)" stroke="none" stroke-linecap="butt" stroke-width="2.5"/><path d="M 59.447 293.2773 C 59.8786 293.4155 60.2572 293.718 60.4806 294.1527 C 60.7039 294.587 60.7299 295.0707 60.5911 295.5021 C 60.4529 295.9337 60.1504 296.3119 59.716 296.5353 C 59.2817 296.7587 58.798 296.7847 58.3666 296.6462 C 57.935 296.508 57.5565 296.2055 57.3331 295.7712 C 57.1097 295.3369 57.0837 294.8528 57.2225 294.4214 C 57.3607 293.9898 57.6633 293.6116 58.0976 293.3882 C 58.5319 293.1648 59.0157 293.1388 59.447 293.2773 Z " fill="url(#color-33-,0,0,1,-127.64223,10.99633)" stroke="none" stroke-linecap="butt" stroke-width="2.5"/><path d="M 61.5447 297.4816 C 61.8951 297.7688 62.1354 298.1897 62.1831 298.6757 C 62.2307 299.162 62.0766 299.6212 61.7887 299.9713 C 61.5014 300.3214 61.0808 300.5617 60.5945 300.6094 C 60.1086 300.657 59.649 300.5029 59.2992 300.2153 C 58.9488 299.9277 58.7085 299.5072 58.6608 299.0209 C 58.6132 298.5349 58.7673 298.0754 59.0552 297.7256 C 59.3425 297.3752 59.7634 297.1348 60.2493 297.0872 C 60.7356 297.0395 61.1948 297.1936 61.5447 297.4816 Z " fill="url(#color-34-,0,0,1,-127.64223,10.99633)" stroke="none" stroke-linecap="butt" stroke-width="2.5"/><path d="M 63.6868 304.3434 L 66.924 303.6784 L 67.1063 307.3106 L 64.2134 307.9418 L 64.6925 318.1492 L 60.7328 318.5373 L 59.2547 308.7751 L 55.1062 309.008 L 54.9242 305.3758 L 58.8836 304.9878 L 58.5461 301.5448 L 63.1942 301.0893 Z " fill="#b2b2b2" stroke="none" stroke-linecap="round" stroke-width="2.5"/><path d="M 60.742 303.6766 L 62.6623 316.1761 " fill="none" stroke="#7f7f7f" stroke-linecap="round" stroke-width="2.5"/><path d="M 57.8965 306.5624 L 63.9385 306.1442 " fill="none" stroke="#7f7f7f" stroke-linecap="round" stroke-width="2.5"/></g><path d="M 125.2477 241.4405 L 49.9629 245.4073 L 48.4063 232.6891 L 121.5137 227.0749 Z " fill="#000000" stroke="none" stroke-linecap="round" stroke-width="2.5"/><g><g><g><path d="M 134.4279 233.8657 L 140.0965 226.849 L 142.2395 266.1046 L 132.9168 260.943 L 127.9101 233.2019 Z " fill="#363a37" stroke="none" stroke-linecap="round" stroke-width="2.5"/><path d="M 130.5959 213.2669 L 131.6249 229.4086 L 109.7597 225.4002 L 107.5807 197.5814 Z " fill="#000000" stroke="none" stroke-linecap="round" stroke-width="2.5"/><path d="M 139.3091 243.3396 L 141.393 276.0267 L 136.755 276.3225 L 134.6708 243.6354 Z " fill="url(#color-35-,0,0,1,-127.64223,10.99633)" stroke="url(#color-36-,0,0,1,-127.64223,10.99633)" stroke-linecap="round" stroke-width="2.5"/><path d="M 149.3784 221.9033 C 149.4433 222.9228 149.2771 223.8627 148.9545 224.5559 C 148.632 225.249 148.1529 225.6954 147.5965 225.731 C 147.0399 225.7663 146.5081 225.3843 146.1002 224.7379 C 145.6919 224.0913 145.4079 223.18 145.343 222.1604 C 145.2778 221.1409 145.444 220.201 145.7666 219.5079 C 146.0891 218.8147 146.5682 218.368 147.1249 218.3327 C 147.6812 218.2971 148.213 218.6791 148.6212 219.3258 C 149.0292 219.9724 149.3132 220.8837 149.3784 221.9033 Z " fill="#ff0000" stroke="none" stroke-linecap="butt" stroke-width="2.5"/><path d="M 131.0967 188.8141 L 140.1545 197.4209 L 141.3469 209.7703 L 144.9365 202.5183 L 145.3734 215.7264 L 142.2302 223.6254 L 142.9765 235.3281 L 138.3334 247.2394 L 127.521 247.1183 L 121.5797 202.6569 Z " fill="#000000" stroke="none" stroke-linecap="round" stroke-width="2.5"/><path d="M 148.3436 198.5225 L 150.0301 222.8612 L 147.9154 219.3493 L 146.0496 219.7384 L 144.8014 223.4645 L 143.2319 198.8485 Z " fill="#000000" stroke="none" stroke-linecap="round" stroke-width="2.5"/></g><path d="M 138.3307 294.1908 L 138.3307 294.1908 L 138.2943 293.9931 L 138.2943 293.9931 Z " fill="#cccccc" stroke="none" stroke-linecap="butt" stroke-width="2.5"/></g><path d="M 149.6857 277.1923 L 130.8419 277.9536 L 121.9702 260.2148 L 113.1925 226.0295 L 144.7483 226.8136 Z " fill="#353935" stroke="none" stroke-linecap="round" stroke-width="2.5"/></g><g stroke-linecap="butt"><path d="M 115.9778 246.5359 L 102.1543 247.8906 L 99.7458 223.3157 L 113.5693 221.9609 Z " fill="#cccc00" stroke="#000000" stroke-width="2.5"/><path d="M 104.8253 225.5563 C 105.2064 225.8694 105.4687 226.3306 105.5205 226.859 C 105.5723 227.3873 105.4045 227.8907 105.0914 228.2718 C 104.7783 228.653 104.3171 228.9153 103.7887 228.967 C 103.2604 229.0188 102.757 228.8511 102.3759 228.5379 C 101.9947 228.2248 101.7324 227.7636 101.6806 227.2353 C 101.6289 226.7069 101.7966 226.2036 102.1097 225.8224 C 102.4228 225.4413 102.8841 225.179 103.4124 225.1272 C 103.9408 225.0754 104.4441 225.2432 104.8253 225.5563 Z " fill="#ff0000" stroke="none" stroke-width="2.5"/></g><g><path d="M 97.809 261.3286 L 81.1547 262.548 L 78.1138 221.0265 L 94.7681 219.8068 Z " fill="url(#color-37-,0,0,1,-127.64223,10.99633)" stroke-linecap="butt" stroke-width="2.5" stroke="none"/><path d="M 99.0597 262.0025 L 88.3732 266.4133 L 79.9399 264.0076 L 79.4473 260.4154 L 98.8394 258.9953 Z " fill="#666666" stroke-linecap="round" stroke-width="2.5" stroke="none"/><path d="M 95.6218 259.6537 L 94.0249 259.7708 L 91.1847 220.9867 L 92.7816 220.8699 Z " fill="#666666" stroke-linecap="butt" stroke-width="2.5" stroke="none"/><path d="M 92.1998 259.9044 L 90.8311 260.0047 L 87.9573 220.7643 L 89.326 220.6642 Z " fill="#666666" stroke-linecap="butt" stroke-width="2.5" stroke="none"/><path d="M 93.8896 214.2873 C 95.3796 214.5984 96.7037 216.1179 96.7359 217.5194 C 96.7634 218.6934 95.755 219.4004 94.0038 220.1517 C 92.2526 220.903 89.8002 221.4677 87.0621 221.6681 C 84.3243 221.8689 81.8157 221.6672 79.9737 221.179 C 78.1317 220.6912 76.9565 219.9175 76.8875 218.9731 C 76.8182 218.0284 77.8683 217.0919 79.6192 216.3406 C 81.3705 215.5897 84.1975 215.1799 86.561 214.8242 C 88.9972 214.4576 91.5467 213.5828 93.8896 214.2873 Z " fill="#b2b2b2" stroke-linecap="round" stroke-width="2.5" stroke="none"/><path d="M 83.3022 260.5562 L 81.9335 260.6562 L 79.0929 221.8721 L 80.462 221.7721 Z " fill="#666666" stroke-linecap="butt" stroke-width="2.5" stroke="none"/><path d="M 72.2546 225.5841 L 72.2546 225.5841 L 72.2379 225.3559 L 72.2379 225.3559 Z " fill="#666666" stroke-linecap="butt" stroke-width="2.5" stroke="none"/><path d="M 96.2703 221.5318 L 76.8782 222.9519 L 76.6111 219.3017 L 94.829 217.5085 L 93.2873 212.1168 L 99.1637 217.1913 Z " fill="#666666" stroke-linecap="round" stroke-width="2.5" stroke="none"/><path d="M 88.7083 246.3805 L 82.3204 246.8484 L 81.485 235.4415 L 87.8729 234.9736 Z " fill="#000000" stroke-linecap="butt" stroke-width="2.5" stroke="none"/><path d="M 85.3686 238.4805 C 85.8214 238.9866 86.131 239.709 86.1911 240.5274 C 86.2511 241.3462 86.0499 242.1059 85.6756 242.6726 C 85.3026 243.2404 84.7565 243.6143 84.1268 243.6605 C 83.4971 243.7067 82.9027 243.4161 82.4507 242.909 C 81.9979 242.4026 81.6883 241.6802 81.6282 240.8617 C 81.5685 240.0432 81.7697 239.2835 82.1437 238.7165 C 82.5167 238.1487 83.0628 237.7748 83.6925 237.7289 C 84.3222 237.6827 84.917 237.973 85.3686 238.4805 Z " fill="#ff0000" stroke-linecap="butt" stroke-width="2.5" stroke="none"/><path d="M 56.2165 243.0437 C 56.1222 243.0505 56.0366 243.0567 55.9744 243.0615 C 55.9126 243.066 55.8741 243.0689 55.8741 243.0689 C 55.8741 243.0689 55.9126 243.066 55.9744 243.0615 C 56.0366 243.0567 56.1222 243.0505 56.2165 243.0437 C 56.3104 243.0367 56.396 243.0304 56.4582 243.0259 C 56.5201 243.0214 56.5585 243.0185 56.5585 243.0185 C 56.5585 243.0185 56.5201 243.0214 56.4582 243.0259 C 56.396 243.0305 56.3104 243.0367 56.2165 243.0437 Z " fill="#ff0000" stroke-linecap="butt" stroke-width="2.5" stroke="none"/></g><g stroke-linecap="butt"><path d="M 98.7109 240.7847 L 86.7306 241.9588 L 85.7521 231.9752 L 97.7324 230.8011 Z " fill="url(#color-38-,0,0,1,-127.64223,10.99633)" stroke-width="2.5" stroke="none"/><path d="M 75.4336 232.9865 L 86.1852 231.9328 L 87.1636 241.9164 L 76.4121 242.9701 Z " fill="url(#color-39-,0,0,1,-127.64223,10.99633)" stroke-width="2.5" stroke="none"/></g><g stroke-linecap="butt"><g><path d="M 71.8644 226.7997 C 74.386 228.8711 76.1182 231.9029 76.4612 235.4027 C 76.8042 238.9025 75.6936 242.2129 73.6221 244.7342 C 71.5507 247.2558 68.5189 248.9879 65.0191 249.3309 C 61.5193 249.6739 58.2089 248.5633 55.6876 246.4918 C 53.1661 244.4207 51.4339 241.3889 51.0909 237.8891 C 50.7479 234.3893 51.8585 231.0789 53.93 228.5573 C 56.0012 226.0361 59.0329 224.3039 62.5327 223.961 C 66.0325 223.618 69.3429 224.7285 71.8645 226.7997 Z " fill="#000000" stroke-width="2.5" stroke="none"/><path d="M 51.8623 237.7158 C 51.2383 231.3487 56.0971 225.6616 62.7152 225.013 C 69.3332 224.3644 74.7554 229.0985 75.3793 235.4652 C 76.0034 241.8326 71.5923 247.4213 64.9745 248.0699 C 58.3568 248.7184 52.4862 244.0829 51.8622 237.7158 Z " fill="url(#color-40-,0,0,1,-127.64223,10.99633)" stroke-width="2.5" stroke="none"/><path d="M 65.8538 229.5051 C 66.3556 229.6479 69.1175 232.4907 69.3805 233.1801 C 69.6438 233.8695 67.3273 236.9703 66.7785 237.2634 C 66.2301 237.5563 62.0573 236.5256 61.6842 236.1239 C 61.3115 235.7226 60.5261 231.488 60.9132 230.9377 C 61.301 230.3877 65.3523 229.3623 65.8538 229.5051 Z " fill="#000000" stroke-width="2.5" stroke="none"/><path d="M 58.8877 243.3109 C 58.2342 244.3702 57.4095 246.2176 56.158 245.8657 C 54.344 245.3497 52.6988 243.3949 52.526 241.5178 C 52.3913 240.0575 54.3394 239.0847 55.6589 238.4722 C 57.44 237.6461 62.297 235.4556 61.4056 237.442 Z " fill="url(#color-41-,0,0,1,-127.64223,10.99633)" stroke-width="2.5" stroke="none"/><path d="M 70.163 247.3747 L 65.5957 249.1131 C 64.6294 248.8573 64.5639 246.9731 64.7565 245.8288 C 65.009 243.6582 65.1641 240.3577 66.8794 239.5473 C 68.1768 238.9372 69.9744 241.5129 70.5608 243.0849 C 71.1948 244.4218 70.163 247.3747 70.163 247.3747 Z " fill="url(#color-42-,0,0,1,-127.64223,10.99633)" stroke-width="2.5" stroke="none"/><path d="M 51.5661 233.3675 L 54.9989 228.0757 C 55.7605 227.4571 57.0807 227.7324 57.8646 228.2684 C 58.9207 228.8742 60.6223 230.1356 59.9852 231.1697 C 58.8796 232.9699 56.4667 233.54 54.347 234.0815 C 53.4215 234.3186 51.5661 233.3675 51.5661 233.3675 Z " fill="url(#color-43-,0,0,1,-127.64223,10.99633)" stroke-width="2.5" stroke="none"/><path d="M 74.151 230.5707 C 75.3765 232.812 75.7215 235.6591 75.4663 238.2387 C 75.3957 238.9419 74.0239 238.0082 73.4575 237.6301 C 72.134 236.6355 70.3353 235.8042 69.9165 234.2074 C 69.6352 233.1411 71.0585 231.8728 71.8249 231.4912 Z " fill="url(#color-44-,0,0,1,-127.64223,10.99633)" stroke-width="2.5" stroke="none"/><path d="M 62.4304 224.7459 L 65.9733 224.5361 L 69.1227 225.8798 C 69.1227 225.8798 69.1749 226.9221 68.8304 227.2011 C 67.9134 227.9463 66.7322 229.209 65.5094 229.0174 C 64.1975 228.7955 63.32 227.3169 62.4804 226.2213 C 62.2141 225.8042 62.4304 224.7459 62.4304 224.7459 Z " fill="url(#color-45-,0,0,1,-127.64223,10.99633)" stroke-width="2.5" stroke="none"/></g><path d="M 66.1763 231.6249 C 66.5372 231.9217 66.7854 232.3557 66.8345 232.8574 C 66.8837 233.3587 66.7245 233.8327 66.428 234.1939 C 66.1313 234.5548 65.6972 234.803 65.1958 234.8521 C 64.6942 234.9013 64.2202 234.7421 63.859 234.4457 C 63.4981 234.1489 63.2502 233.7148 63.2011 233.2135 C 63.1519 232.7118 63.3108 232.2379 63.6072 231.8767 C 63.904 231.5158 64.3381 231.2679 64.8397 231.2187 C 65.3411 231.1696 65.815 231.3285 66.1762 231.6249 Z " fill="url(#color-46-,0,0,1,-127.64223,10.99633)" stroke-width="2.5" stroke="none"/></g></g></g><g data-paper-data="{&quot;origRot&quot;:0}"><g data-paper-data="{&quot;origPos&quot;:null}"><path d="M 79.5821 15.2043 C 87.7319 16.2196 96.6263 17.9699 102.8354 23.3345 C 107.646 27.4873 109.6253 34.8536 108.8004 41.059 C 107.6385 54.6765 106.1318 70.0242 97.1227 80.3558 C 90.5509 87.8794 77.72 91.0944 68.2682 88.5425 C 59.2515 86.1067 53.2111 76.4245 49.1532 68.0127 C 44.0067 57.6227 41.9352 45.5646 43.7687 34.2757 C 44.2996 27.0566 49.4922 19.8641 55.7594 16.38 C 62.7513 12.4903 71.7321 13.8557 79.582 15.2044 Z " fill="#ffd499" stroke="none" stroke-linecap="butt" stroke-width="2.5"/><path d="M 101.3282 83.7178 C 101.3282 83.7178 46.9857 79.1711 40.3927 68.2748 C 31.0306 53.2553 32.7801 25.123 32.7801 25.123 C 32.7801 25.123 32.0113 0.019 32.9739 0 C 33.9054 -0.0184 64.44 3.7864 64.44 3.7864 C 64.44 3.7864 84.5592 6.185 99.0628 17.0493 C 110.6434 25.7242 117.9533 46.9161 120.9709 57.4991 C 123.9884 68.0821 126.2119 84.5147 126.2119 84.5147 Z " data-paper-data="{&quot;origPos&quot;:null}" fill="#ffffff" stroke="#000000" stroke-linecap="round" stroke-width="2.5"/><g stroke-linecap="butt"><path d="M 34.7089 22.342 L 75.3709 26.1932 L 74.3166 37.325 L 34.7825 33.55 Z " data-paper-data="{&quot;origPos&quot;:null}" stroke-width="2.5" fill="#ff0000" stroke="none"/><path d="M 34.9471 36.0298 L 58.8446 38.3034 L 58.5664 41.241 L 35.2328 39.0055 Z " data-paper-data="{&quot;origPos&quot;:null}" stroke-width="2.5" fill="#ff0000" stroke="none"/></g><path d="M 119.5127 56.4252 L 120.2826 64.7659 L 75.5048 59.9009 C 75.5048 59.9009 53.8636 57.1959 53.6443 40.359 C 53.4752 27.3766 74.259 28.5838 74.259 28.5838 L 107.809 31.7615 Z " fill="#000000" stroke="#000000" stroke-linecap="round" stroke-width="2.5"/><path d="M 61.4282 30.6445 C 65.9917 28.5465 75.8061 28.4558 76.5635 28.9581 C 77.2765 29.4343 68.9842 31.6378 65.2284 33.3444 C 62.5226 34.8352 58.2749 39.2001 57.2508 38.5166 C 56.3033 37.8809 58.8224 32.1012 61.4283 30.6445 Z " fill="#ffffff" stroke="none" stroke-linecap="round" stroke-width="2.5"/></g><path d="M 51.1449 44.6975 L 39.7088 51.6029 L 38.6077 43.1784 Z " data-paper-data="{&quot;origPos&quot;:null}" fill="#000000" stroke="none" stroke-linecap="round" stroke-width="2.5"/></g><g data-paper-data="{&quot;origRot&quot;:0}"><path d="M 2.7338 168.1222 C -2.7589 162.1009 11.6204 151.0502 20.4706 148.6481 C 31.1985 145.7916 41.9716 153.3563 53.2442 155.0427 C 65.3279 156.8683 79.4983 153.5279 89.5474 160.4954 C 96.0872 165.0443 101.2391 178.6827 94.9311 182.6195 C 83.554 190.4783 67.3434 186.5269 53.9848 184.22 C 36.3424 181.2214 13.6052 180.4585 2.7339 168.1222 Z " data-paper-data="{&quot;origPos&quot;:null}" fill="#000000" stroke="#000000" stroke-linecap="round" stroke-width="2.5"/><path d="M 35.379 85.4922 C 39.8503 82.5012 49.1037 87.5623 49.495 93.3226 C 50.2676 105.6544 40.8994 116.6832 37.4439 128.3629 C 32.9734 141.6529 34.9119 157.9885 25.6276 168.2709 C 20.3439 174.107 5.1182 174.8642 3.0372 167.7682 C -1.9657 152.463 4.5052 135.2335 10.5242 120.5021 C 15.8939 107.2412 23.451 93.3634 35.379 85.4922 Z " data-paper-data="{&quot;origRot&quot;:0}" fill="#000000" stroke="#000000" stroke-linecap="round" stroke-width="2.5"/><g><g stroke-linecap="round"><path d="M 112.6839 151.3455 C 115.1903 149.2985 119.9321 150.0097 123.4769 149.8906 C 126.9035 149.7903 131.0913 148.9157 133.7164 150.4641 C 136.0079 151.8166 136.9681 155.1838 135.0499 156.8869 C 132.7167 158.9562 128.1019 158.7854 124.5015 159.1028 C 120.6326 159.2619 115.7378 160.1798 112.9744 158.2748 C 110.6251 156.6562 110.526 153.0216 112.6839 151.3455 Z " stroke-width="2.5" fill="#363a36" stroke="none"/><path d="M 112.9069 159.6533 C 115.4133 157.6063 120.155 158.3176 123.6998 158.1984 C 127.1265 158.0981 131.3143 157.2235 133.9393 158.7719 C 136.2309 160.1244 137.1911 163.4917 135.2728 165.1947 C 132.9397 167.2641 128.3249 167.0932 124.7246 167.4106 C 120.8556 167.5697 115.9608 168.4876 113.1974 166.5826 C 110.8481 164.9641 110.749 161.3294 112.9069 159.6533 Z " stroke-width="2.5" fill="#363a36" stroke="none"/><path d="M 112.8036 168.8415 C 115.31 166.7945 120.0518 167.5058 123.5966 167.3866 C 127.0233 167.2863 131.2111 166.4117 133.8361 167.9601 C 136.1276 169.3126 137.0878 172.6799 135.1696 174.3829 C 132.8364 176.4522 128.2217 176.2814 124.6213 176.5988 C 120.7524 176.7579 115.8575 177.6758 113.0942 175.7708 C 110.7448 174.1522 110.6458 170.5176 112.8036 168.8415 Z " stroke-width="2.5" fill="#363a36" stroke="none"/><path d="M 113.9447 178.0307 C 116.4511 175.9837 121.1929 176.6949 124.7377 176.5758 C 128.1643 176.4754 132.3521 175.6009 134.9772 177.1493 C 137.2687 178.5018 138.2289 181.869 136.3107 183.572 C 133.9775 185.6414 129.3627 185.4706 125.7624 185.788 C 121.8935 185.9471 116.9986 186.8649 114.2353 184.96 C 111.8859 183.3414 111.7869 179.7067 113.9447 178.0307 Z " stroke-width="2.5" fill="#363a36" stroke="none"/></g><g stroke-linecap="round"><path d="M 92.8966 162.2079 C 102.1979 156.8129 102.2425 155.1237 102.9849 154.4263 C 105.9489 151.6372 109.2139 148.6969 113.1412 147.6319 C 116.855 146.63 123.6802 147.3966 124.5194 148.2623 C 125.2025 149.2889 119.3642 150.914 116.7062 152.0612 C 114.9731 152.8128 113.2314 153.5652 111.4748 154.2645 C 109.6491 154.9916 107.8077 155.6968 105.9513 156.3465 C 104.9496 156.6964 103.681 157.7729 102.8979 157.2659 Z " fill="none" stroke="#353937" stroke-width="2.5"/><path d="M 83.0836 162.0926 C 85.761 161.9275 88.485 162.0623 91.121 161.537 C 93.0215 161.159 94.8701 160.476 96.6638 159.737 C 100.3832 158.2048 103.7607 155.7414 107.652 154.727 C 112.3174 153.5177 117.766 151.9139 122.7103 153.261 C 124.816 153.9174 124.5215 157.4032 125.2837 159.7421 C 126.2549 162.7664 126.7867 165.9489 127.2058 169.1021 C 127.7649 173.2968 129.7942 177.9736 128.0929 181.9337 C 126.8367 184.7491 122.7596 185.1642 119.745 186.1943 C 117.9649 186.8049 115.9873 186.6412 114.1046 186.5844 C 112.185 186.5243 110.2262 186.3934 108.3863 185.8461 C 106.5665 185.3061 105.0473 183.9886 103.256 183.3671 C 101.3978 182.7219 99.4627 182.1504 97.4989 182.065 C 91.8487 181.821 86.1716 182.2106 80.5194 182.3888 C 78.6364 182.4481 76.3276 183.8119 74.8792 182.7785 C 71.4781 172.5235 70.6995 167.6923 73.2323 163.057 C 74.9529 160.3566 79.8032 162.4357 83.0836 162.0926 Z " fill="#ffffff" stroke="#ffffff" stroke-width="2.5"/></g><path d="M 105.3621 157.4742 C 105.4646 157.2516 105.5568 157.0515 105.6252 156.9029 C 105.692 156.7576 105.7337 156.6673 105.7337 156.6673 C 105.7337 156.6673 105.692 156.7576 105.6252 156.9029 C 105.5568 157.0515 105.4646 157.2516 105.3621 157.4742 C 105.2595 157.6969 105.1674 157.897 105.099 158.0456 C 105.0322 158.1909 104.9904 158.2812 104.9904 158.2812 C 104.9904 158.2812 105.0322 158.1909 105.099 158.0456 C 105.1674 157.897 105.2595 157.6968 105.3621 157.4742 Z " fill="#eac18d" stroke="none" stroke-linecap="butt" stroke-width="2.5"/><path d="M 105.0907 177.8122 C 102.0243 173.9007 99.9383 168.3097 100.8653 163.419 C 101.4385 160.7517 105.7686 160.6501 108.4578 159.9572 C 111.7209 159.1206 115.447 158.0133 118.8634 158.9442 C 120.3184 159.3977 120.1149 161.8064 120.6418 163.4226 C 121.3128 165.5125 121.6801 167.7113 121.9698 169.8903 C 122.3561 172.7889 124.0627 176.2011 122.5828 178.7568 C 121.2998 180.9035 117.4661 180.8768 114.4856 180.5892 C 111.285 180.5718 107.2379 180.5146 105.0908 177.8122 Z " fill="#000000" stroke="#000000" stroke-linecap="round" stroke-width="2.5"/></g><path d="M 17.8513 177.7519 C 11.5052 175.5496 3.1703 169.8882 2.3838 162.6249 C 2.3353 156.8656 10.2355 151.5463 16.134 150.9508 C 27.6219 149.7991 38.3156 158.1257 49.9101 158.8522 C 61.7461 160.2234 74.0773 154.2342 85.7256 157.1802 C 91.3394 158.612 94.3913 165.9371 95.4129 171.6449 C 96.2094 176.1199 94.9714 183.3535 90.6306 185.6972 C 84.8136 188.8371 77.1321 187.5205 70.4747 186.638 C 53.0076 184.3302 34.643 183.5654 17.8513 177.7519 Z " fill="#ffffff" stroke="none" stroke-linecap="round" stroke-width="2.5"/><path d="M 33.3745 86.5759 C 37.7454 83.3363 49.3284 84.3102 49.4322 89.6261 C 49.6585 101.6183 37.8188 110.7895 34.3495 122.452 C 29.6731 136.2685 33.2795 153.3851 25.1352 165.6195 C 21.1803 171.5578 5.555 176.0154 3.7915 169.3172 C -0.4699 151.6901 6.9058 132.6877 12.8788 116.1396 C 16.9473 104.8723 23.8554 93.6331 33.3746 86.5759 Z " data-paper-data="{&quot;origRot&quot;:0}" fill="#ffffff" stroke="none" stroke-linecap="round" stroke-width="2.5"/></g><path d="M 27.8459 129.9767 C 27.8459 129.9767 28.9921 114.1232 28.6111 106.7195 C 28.1449 97.6615 33.9306 86.9882 33.9306 86.9882 C 33.9306 86.9882 45.8979 86.2617 52.9442 88.952 C 57.7032 90.769 64.1801 98.5378 64.1801 98.5378 L 63.3599 129.0754 Z " fill="#ffffff" stroke="none" stroke-linecap="butt" stroke-width="2.5"/></g></g></svg>