<svg version="1.1" xmlns="http://www.w3.org/2000/svg" xmlns:xlink="http://www.w3.org/1999/xlink" width="436.38088" height="396.03146" viewBox="0,0,436.38088,396.03146"><g transform="translate(-5.99958,-20.48275)"><g data-paper-data="{&quot;isPaintingLayer&quot;:true}" fill-rule="nonzero" stroke-linejoin="miter" stroke-miterlimit="10" stroke-dasharray="" stroke-dashoffset="0" style="mix-blend-mode: normal"><path d="" data-paper-data="{&quot;index&quot;:null}" id="ID0.7014842056669295" fill="none" stroke="#000000" stroke-width="4" stroke-linecap="round"/><path d="M70.65663,323.79375l-31.17074,89.81818" data-paper-data="{&quot;origRot&quot;:0,&quot;index&quot;:null}" fill="none" stroke="#000000" stroke-width="5" stroke-linecap="round"/><path d="M119.56419,321.634c0,0 9.7374,23.26634 11.90496,39.78393c2.5635,19.53497 0.2178,52.59628 0.2178,52.59628" data-paper-data="{&quot;origRot&quot;:0,&quot;index&quot;:null}" fill="none" stroke="#000000" stroke-width="5" stroke-linecap="round"/><path d="M41.73886,328.76566l18.43964,-134.76096l73.74227,3.99202l3.78405,135.96401z" data-paper-data="{&quot;origRot&quot;:0,&quot;index&quot;:null}" fill="#0d9900" stroke="#000000" stroke-width="2" stroke-linecap="butt"/><path d="M76.84347,201.05311l-2.42222,44.74471" data-paper-data="{&quot;origRot&quot;:0,&quot;index&quot;:null}" fill="#0a6e00" stroke="#0a6e00" stroke-width="3.5" stroke-linecap="round"/><path d="M117.56883,204.57766l-2.42222,44.74471" data-paper-data="{&quot;origRot&quot;:0,&quot;index&quot;:null}" fill="#0a6e00" stroke="#0a6e00" stroke-width="3.5" stroke-linecap="round"/><path d="M120.11735,248.93152c-0.14754,2.72556 -2.47665,4.81545 -5.20223,4.66791c-2.72556,-0.14754 -4.81546,-2.47665 -4.66791,-5.20223c0.14756,-2.72558 2.47663,-4.81546 5.20221,-4.66794c2.72558,0.14754 4.81546,2.47665 4.66791,5.20223z" data-paper-data="{&quot;origRot&quot;:0,&quot;index&quot;:null}" fill="#0a6e00" stroke="#0a6e00" stroke-width="0.5" stroke-linecap="butt"/><path d="M73.9229,250.94038c-2.72556,-0.14754 -4.81546,-2.47665 -4.66791,-5.20223c0.14756,-2.72558 2.47663,-4.81546 5.20221,-4.66794c2.72558,0.14754 4.81548,2.47665 4.66794,5.20223c-0.14754,2.72558 -2.47665,4.81546 -5.20223,4.66794z" data-paper-data="{&quot;origRot&quot;:0,&quot;index&quot;:null}" fill="#0a6e00" stroke="#0a6e00" stroke-width="0.5" stroke-linecap="butt"/><path d="M152.16147,160.48528c-1.66106,30.68451 -27.88236,54.21265 -58.56688,52.55156c-30.68453,-1.66107 -54.21266,-27.88236 -52.55156,-58.5669c1.6611,-30.68451 27.88239,-54.21266 58.5669,-52.55156c30.68453,1.66107 54.21266,27.88239 52.55159,58.5669z" data-paper-data="{&quot;origRot&quot;:0,&quot;index&quot;:null}" fill="#ffe8bb" stroke="#000000" stroke-width="2" stroke-linecap="butt"/><path d="M67.81438,132.98211c0,0 -25.45872,17.15452 -25.86421,17.00854c-7.46723,-2.68807 -1.46227,-8.03494 0.74187,-14.04005c0.73475,-2.00169 5.55844,-10.45727 5.55844,-10.45727c0,0 15.21453,-12.36401 24.98183,-17.00479c13.38927,-6.36173 20.5637,-9.75208 35.30467,-8.18724c21.32698,2.26399 39.4761,29.24591 42.16746,33.0305c2.27937,3.20527 4.69393,16.35958 4.15512,20.25557c-0.41125,2.97351 -2.6612,13.67797 -5.62051,13.17461c-3.11582,-0.52998 -18.26348,-26.80572 -18.26348,-26.80572" data-paper-data="{&quot;origRot&quot;:0,&quot;index&quot;:null}" fill="#3b2c00" stroke="#000000" stroke-width="3" stroke-linecap="round"/><path d="M121.52441,315.18624c0,0 -5.47548,-3.47161 -8.62451,-8.26817c-1.9647,-2.99264 -2.17647,-10.55287 -2.17647,-10.55287" data-paper-data="{&quot;origRot&quot;:0,&quot;index&quot;:null}" fill="none" stroke="#0a6e00" stroke-width="5" stroke-linecap="round"/><path d="M73.01047,294.32362c0,0 -1.02665,7.49322 -3.30295,10.25625c-3.64843,4.42857 -9.46665,7.28879 -9.46665,7.28879" data-paper-data="{&quot;index&quot;:null,&quot;origRot&quot;:0}" fill="none" stroke="#0a6e00" stroke-width="5" stroke-linecap="round"/><path d="M126.32939,173.49368v-11.43157" data-paper-data="{&quot;index&quot;:null}" fill="none" stroke="#000000" stroke-width="10" stroke-linecap="round"/><path d="M103.46624,160.79195v12.70173" data-paper-data="{&quot;index&quot;:null}" fill="none" stroke="#000000" stroke-width="10" stroke-linecap="round"/><path d="M130.58594,139.18381c0,0 -0.34689,19.13611 -8.44441,18.44691c-7.93527,-0.6754 -4.70783,-12.29858 -11.97997,-15.54523c-4.78545,-2.13643 -2.65819,15.46295 -7.83757,14.6636c-4.53892,-0.70054 -12.0406,-19.29729 -16.31364,-17.61379c-6.25452,2.46415 -9.81162,15.6698 -16.41369,14.40346c-7.78848,-1.49391 -1.3176,-21.05552 -1.3176,-21.05552" data-paper-data="{&quot;origRot&quot;:0,&quot;index&quot;:null}" fill="#3b2c00" stroke="#000000" stroke-width="3" stroke-linecap="round"/><g data-paper-data="{&quot;index&quot;:null}"><path d="M95.1023,119.98814l-23.60926,29.45747l-4.25685,-3.41174l23.60926,-29.4575z" data-paper-data="{&quot;origRot&quot;:0,&quot;index&quot;:null}" fill="#000000" stroke="none" stroke-width="0" stroke-linecap="butt"/><path d="M95.38921,119.78337l-4.06997,-3.60304l2.76243,-3.81091l4.30378,3.67261z" data-paper-data="{&quot;origRot&quot;:0,&quot;index&quot;:null}" fill="#000000" stroke="none" stroke-width="0" stroke-linecap="butt"/><path d="M127.94321,72.78035l-31.15708,42.47479l-3.10947,-2.21023l31.46952,-42.24852z" data-paper-data="{&quot;origRot&quot;:0,&quot;index&quot;:null}" fill="#116700" stroke="none" stroke-width="0" stroke-linecap="butt"/><path d="M154.81624,25.41937l-0.79212,5.65238c0,0 -7.59918,13.21051 -11.97119,20.14756c-4.60871,7.31258 -15.0084,22.66076 -15.0084,22.66076l-3.92985,-0.37285l28.73587,-43.91772z" data-paper-data="{&quot;origRot&quot;:0,&quot;index&quot;:null}" fill="#116700" stroke="none" stroke-width="0" stroke-linecap="butt"/><path d="M129.33499,73.88376l-31.15708,42.47479l-3.10947,-2.21023l31.4695,-42.24852z" data-paper-data="{&quot;origRot&quot;:0,&quot;index&quot;:null}" fill="#1fb800" stroke="none" stroke-width="0" stroke-linecap="butt"/><path d="M155.41588,32.17522c0,0 -7.59919,13.21053 -11.9712,20.14759c-4.60871,7.31258 -15.00839,22.66073 -15.00839,22.66073l-3.92985,-0.37285l28.73589,-43.91773z" data-paper-data="{&quot;origRot&quot;:0,&quot;index&quot;:null}" fill="#1fb800" stroke="none" stroke-width="0" stroke-linecap="butt"/><path d="M156.88557,22.08543c0,0 0.62075,3.51365 0.39919,5.45821c-0.15929,1.39774 -2.30709,5.56409 -2.30709,5.56409l-1.02131,-0.16822l-0.84868,-1.8532c0,0 0.58407,-1.62182 0.85654,-2.60148c0.23718,-0.85287 0.68715,-2.94888 0.68715,-2.94888z" data-paper-data="{&quot;origRot&quot;:0,&quot;index&quot;:null}" fill="#1fb800" stroke="none" stroke-width="0" stroke-linecap="butt"/><path d="M98.46926,122.42611l-10.35825,-8.47671" data-paper-data="{&quot;origRot&quot;:0,&quot;index&quot;:null}" fill="none" stroke="#000000" stroke-width="2.5" stroke-linecap="round"/></g><path d="M89.84977,119.31472l-29.84415,83.39856" data-paper-data="{&quot;origRot&quot;:0,&quot;index&quot;:null}" fill="none" stroke="#000000" stroke-width="5" stroke-linecap="round"/><g data-paper-data="{&quot;index&quot;:null}"><path d="M124.49271,120.57637l23.60926,29.4575l-4.25685,3.41174l-23.60926,-29.45747z" data-paper-data="{&quot;origRot&quot;:0,&quot;index&quot;:null}" fill="#000000" stroke="none" stroke-width="0" stroke-linecap="butt"/><path d="M116.95271,120.04202l4.30378,-3.6726l2.76243,3.81091l-4.06997,3.60304z" data-paper-data="{&quot;origRot&quot;:0,&quot;index&quot;:null}" fill="#000000" stroke="none" stroke-width="0" stroke-linecap="butt"/><path d="M90.19199,74.7964l31.46952,42.24852l-3.10947,2.21022l-31.15708,-42.47479z" data-paper-data="{&quot;origRot&quot;:0,&quot;index&quot;:null}" fill="#116700" stroke="none" stroke-width="0" stroke-linecap="butt"/><path d="M63.48761,33.5895l28.73587,43.91772l-3.92984,0.37285c0,0 -10.39969,-15.34818 -15.0084,-22.66075c-4.37202,-6.93705 -11.9712,-20.14756 -11.9712,-20.14756l-0.79212,-5.65238z" data-paper-data="{&quot;origRot&quot;:0,&quot;index&quot;:null}" fill="#116700" stroke="none" stroke-width="0" stroke-linecap="butt"/><path d="M88.80023,75.8998l31.4695,42.24852l-3.10947,2.21023l-31.15709,-42.47479z" data-paper-data="{&quot;origRot&quot;:0,&quot;index&quot;:null}" fill="#1fb800" stroke="none" stroke-width="0" stroke-linecap="butt"/><path d="M62.09583,34.69297l28.73589,43.91773l-3.92985,0.37286c0,0 -10.39968,-15.34815 -15.00839,-22.66073c-4.37201,-6.93706 -11.9712,-20.1476 -11.9712,-20.1476z" data-paper-data="{&quot;origRot&quot;:0,&quot;index&quot;:null}" fill="#1fb800" stroke="none" stroke-width="0" stroke-linecap="butt"/><path d="M60.6868,29.53594c0,0 0.44996,2.09602 0.68715,2.94889c0.27247,0.97966 0.85654,2.60148 0.85654,2.60148l-0.84868,1.8532l-1.0213,0.16822c0,0 -2.14781,-4.16635 -2.3071,-5.56409c-0.22156,-1.94456 0.39918,-5.45821 0.39918,-5.45821z" data-paper-data="{&quot;origRot&quot;:0,&quot;index&quot;:null}" fill="#1fb800" stroke="none" stroke-width="0" stroke-linecap="butt"/><path d="M116.8689,126.42611l10.35825,-8.47671" data-paper-data="{&quot;origRot&quot;:0,&quot;index&quot;:null}" fill="none" stroke="#000000" stroke-width="2.5" stroke-linecap="round"/></g><path d="M125.48839,123.31472l9.84415,88.39856" data-paper-data="{&quot;origRot&quot;:0,&quot;index&quot;:null}" fill="none" stroke="#000000" stroke-width="5" stroke-linecap="round"/><text transform="translate(7.50003,56.9937) scale(1.0003,1.0003)" font-size="40" xml:space="preserve" fill="#ffffff" fill-rule="nonzero" stroke="none" stroke-width="1" stroke-linecap="butt" stroke-linejoin="miter" stroke-miterlimit="10" stroke-dasharray="" stroke-dashoffset="0" font-family="&quot;ヒラギノ角ゴ Pro W3&quot;, &quot;Hiragino Kaku Gothic Pro&quot;, Osaka, &quot;メイリオ&quot;, Meiryo, &quot;ＭＳ Ｐゴシック&quot;, &quot;MS PGothic&quot;" font-weight="normal" text-anchor="start" style="mix-blend-mode: normal"><tspan x="0" dy="0">scrabble1234567890</tspan></text><path d="M111.5,188.71666l-18,-10c0,0 -7.19473,19.44737 1,24c8.19473,4.55263 17,-14 17,-14z" fill="none" stroke="#000000" stroke-width="5" stroke-linecap="round"/></g></g></svg>