<svg version="1.1" xmlns="http://www.w3.org/2000/svg" xmlns:xlink="http://www.w3.org/1999/xlink" width="228.5" height="209.10665" viewBox="0,0,228.5,209.10665"><g transform="translate(-272.25,-187.56711)"><g data-paper-data="{&quot;isPaintingLayer&quot;:true}" fill-rule="nonzero" stroke-linejoin="miter" stroke-miterlimit="10" stroke-dasharray="" stroke-dashoffset="0" style="mix-blend-mode: normal"><path d="M272.25,389.04108l28.5,-120l200,-19.5v139.5z" fill="#4db494" stroke="none" stroke-width="NaN" stroke-linecap="butt"/><g data-paper-data="{&quot;origRot&quot;:0}" stroke="#000000" stroke-width="5" stroke-linecap="round"><path d="M326.98864,340.15729c1.07375,0.52243 -0.23651,2.47727 0.31333,3.57165c2.20092,4.37804 5.11306,8.37804 7.76568,12.49796c0.81807,1.27139 3.02455,2.38066 2.65218,3.68406c-0.3565,1.2482 -2.68039,1.18965 -4.10985,1.41919c-1.51486,0.24348 -3.08549,0.18141 -4.60649,-0.01924c-1.71189,-0.22577 -3.61399,-0.26727 -5.03229,-1.25223c-2.55379,-1.77404 -4.76893,-4.13152 -6.46626,-6.73687c-0.838,-1.2865 -0.87968,-2.9925 -0.87363,-4.52811c0.00684,-1.5894 0.1237,-3.30503 0.91217,-4.68492c0.82056,-1.43608 2.15095,-2.70135 3.6767,-3.33954c1.78195,-0.74601 4.03127,-1.45735 6.22822,-2.61073z" data-paper-data="{&quot;origPos&quot;:null,&quot;index&quot;:null}" id="ID0.8610531273297966" fill="#e1ba87"/><path d="M406.96184,294.63598c1.1493,3.08464 0.03914,6.95365 -1.28018,10.18136c-2.31893,5.41496 -5.38115,10.56799 -9.4164,15.23007c-5.51107,6.36825 -12.16239,11.88965 -18.51145,17.22805c-5.73631,4.82727 -11.75624,9.49837 -18.37572,13.01725c-6.17939,3.27972 -13.33232,8.76284 -20.18865,6.65824c-6.80214,-1.79413 -9.76426,-10.07607 -13.60255,-16.30467c-0.95938,-1.55677 -0.15268,-2.61376 1.38294,-3.76255c6.07331,-4.51668 13.84819,-8.18053 19.89992,-11.62798c6.17766,-3.50188 12.54006,-6.71264 18.59424,-10.39957c4.78269,-2.8821 10.11086,-6.26565 14.9218,-9.84006c4.52748,-3.3741 8.59177,-7.27526 12.93442,-10.72134c2.35768,-1.79881 4.27346,-5.23561 7.16505,-5.00365c3.02393,0.27253 5.49601,2.74189 6.47658,5.34483z" data-paper-data="{&quot;origPos&quot;:null,&quot;index&quot;:null}" id="ID0.4585498459637165" fill="#cc7700"/></g><path d="M424.29102,356.17813c-0.63767,12.1064 -0.26475,24.73143 -2.36018,36.89805c-0.78102,2.91663 0.86094,0.89631 -4.80987,0.70422c-22.6823,-0.77008 -44.95611,-1.07275 -67.353,-2.32286c-5.6065,-0.31604 -5.5694,6.68175 -5.63397,-0.62935c-0.26,-29.24534 2.13642,-59.17174 5.22986,-88.57031c1.21911,-11.68349 3.51178,-22.75829 7.58506,-33.23744c1.0394,-2.83985 2.59539,-4.03305 6.7548,-4.11757c16.63675,-0.33811 33.40333,0.07569 49.97158,1.72342c4.14229,0.41172 9.05817,0.77094 10.29397,4.27048c3.39193,9.6046 1.91242,20.33678 1.9927,30.52239c0.13024,17.46663 -0.70602,36.54267 -1.67099,54.75897z" data-paper-data="{&quot;index&quot;:null,&quot;origRot&quot;:0}" id="ID0.6861933465115726" fill="#ff9400" stroke="#000000" stroke-width="5" stroke-linecap="round"/><g data-paper-data="{&quot;origRot&quot;:0}" stroke-width="5" stroke-linecap="round"><path d="M422.46127,302.92134c0.82599,3.18641 -0.67612,6.92075 -2.32036,9.99572c-2.86348,5.14772 -6.43935,9.95856 -10.93261,14.18095c-6.13675,5.76778 -13.32056,10.57594 -20.18498,15.23318c-6.20227,4.21183 -12.6706,8.23911 -19.61687,11.05864c-6.48388,2.62687 -14.16275,7.34535 -20.76628,4.54685c-6.58166,-2.4841 -8.67639,-11.02673 -11.85383,-17.61705c-0.79419,-1.64718 0.11696,-2.61559 1.76249,-3.60035c6.50566,-3.8682 14.61609,-6.71315 20.9902,-9.51997c6.505,-2.84809 13.16387,-5.3875 19.56514,-8.43233c5.05367,-2.37502 10.70158,-5.19269 15.85456,-8.25347c4.85041,-2.8906 9.29431,-6.35312 13.96835,-9.33438c2.5301,-1.54685 4.78915,-4.76844 7.64159,-4.24034c2.97987,0.58208 5.18491,3.2925 5.89261,5.98257z" data-paper-data="{&quot;index&quot;:null}" id="ID0.4585498459637165" fill="#ff9400" stroke="#000000"/><path d="M418.48907,303.59171c0,0 -2.5633,9.67811 -5.76256,12.99432c-8.5723,9.66958 -18.61793,17.98372 -28.89386,25.23621c-5.44815,3.84136 -12.17485,6.1553 -18.05751,8.63478c-5.0836,2.14741 -15.68923,5.34148 -15.68923,5.34148" data-paper-data="{&quot;index&quot;:null}" id="ID0.497054744977504" fill="none" stroke="#cc7700"/><path d="M336.41112,341.09682c1.10961,0.44121 -0.05167,2.48804 0.57813,3.53849c2.52036,4.20227 5.72186,7.97461 8.67358,11.88585c0.91033,1.207 3.19315,2.14914 2.91875,3.47663c-0.26265,1.27128 -2.58443,1.38561 -3.99288,1.72087c-1.49256,0.35541 -3.06349,0.41035 -4.59519,0.32337c-1.7239,-0.09788 -3.62381,0.00226 -5.11146,-0.87449c-2.67863,-1.57928 -5.063,-3.76548 -6.94932,-6.23734c-0.93138,-1.22066 -1.09983,-2.91878 -1.20799,-4.45066c-0.11137,-1.58544 -0.12241,-3.30499 0.56124,-4.73972c0.71151,-1.49313 1.94408,-2.85386 3.41813,-3.60372c1.72157,-0.87643 3.91176,-1.75315 6.01688,-3.06666z" data-paper-data="{&quot;index&quot;:null}" id="ID0.8610531273297966" fill="#ffd499" stroke="#000000"/></g><g data-paper-data="{&quot;origRot&quot;:0}"><path d="M395.23119,206.22445c13.71414,0.75904 25.8324,7.01668 34.33299,16.51336c8.50059,9.49668 13.38271,22.23147 12.62368,35.94562c-0.75903,13.71414 -7.01668,25.8324 -16.51337,34.33299c-9.49668,8.50059 -22.23147,13.38271 -35.94562,12.62368c-13.71414,-0.75903 -25.8324,-7.01667 -34.33299,-16.51336c-8.50059,-9.49668 -13.38271,-22.23147 -12.62368,-35.94562c0.75903,-13.71415 7.01668,-25.83239 16.51336,-34.33299c9.49668,-8.5006 22.23147,-13.38271 35.94562,-12.62368z" data-paper-data="{&quot;origPos&quot;:null}" id="ID0.9676602841354907" fill="#ffd499" stroke="#000000" stroke-width="6" stroke-linecap="round"/><path d="M428.5087,238.33067c2.75498,0.15248 5.11275,3.61076 6.73678,6.21149c2.22789,3.57041 5.42451,7.30937 4.91589,11.41635c-1.27825,10.25486 -4.42841,21.01925 -10.35251,29.69144c-4.11368,6.15877 -17.53014,12.97143 -18.33911,12.70197c-0.80897,-0.26947 9.26014,-9.41944 12.16438,-15.22101c2.73895,-5.47454 5.29184,-12.00883 4.71127,-18.24627c-0.50276,-5.06261 -2.11595,-11.71426 -6.67139,-13.21528c-12.6334,-3.84235 -26.61254,0.06076 -39.34878,-1.08917c-3.18383,-0.28769 0.66336,-2.44976 -2.0385,-2.50785c-7.13139,0.36735 -14.27155,3.71016 -21.11453,3.83916c-2.84032,0.05181 -5.76545,-2.01478 -7.87521,-3.26635c-1.72057,-1.06108 -8.08161,-2.96773 -4.80027,-3.74936c13.1456,-3.11493 26.89477,-4.27868 40.31234,-4.51846c11.48048,-0.20504 22.21519,4.12622 34.31853,3.38346c3.14679,-0.19162 4.62613,-5.58259 7.38111,-5.43012z" data-paper-data="{&quot;origPos&quot;:null}" id="ID0.34282135451212525" fill="#e1ba87" stroke="none" stroke-width="1" stroke-linecap="round"/><path d="M434.31183,251.49791c-4.46408,-2.86854 -7.22796,-7.29773 -11.92818,-8.71619c-4.09265,-1.20804 -8.16305,0.89552 -12.25173,1.06375c-7.12493,0.29803 -14.42882,2.42903 -21.13938,0.35411c-2.22593,-0.60046 2.22505,-6.88948 -0.27876,-6.76505c-10.0136,0.49959 -18.99591,7.52719 -28.9761,8.19411c-2.54258,0.21113 1.53022,-6.13715 -0.53187,-6.12587c-8.12563,0.04669 -18.72076,9.65265 -23.63439,6.09472c-4.08636,-3.00527 5.13443,-12.48523 4.53024,-18.90948c-0.24795,-2.64825 -9.31518,0.07579 -7.47712,-2.59113c7.35397,-10.66759 17.10356,-20.29159 28.46581,-26.51163c9.88403,-5.36562 20.93393,-6.36698 31.71384,-6.51847c8.61642,-0.11794 16.79412,6.13323 25.55438,6.42213c2.19534,0.06751 -0.06042,-7.53157 1.63878,-6.00573c6.68417,6.01349 9.97702,16.32192 16.57389,23.12573c1.64709,1.69626 3.13172,-3.69616 4.0273,-1.9544c3.1035,6.66447 4.7822,14.08355 5.33459,21.63276c0.57842,7.9443 1.53882,17.81445 -2.40685,23.81705c-1.86407,2.6019 -6.07391,-4.52964 -9.21446,-6.60642z" data-paper-data="{&quot;origPos&quot;:null}" id="ID0.4199218852445483" fill="#8a541e" stroke="#000000" stroke-width="7" stroke-linecap="round"/><path d="M338.81456,242.07559c0,0 5.07805,-9.75106 5.41135,-15.15929c0.12278,-1.99806 -3.0116,-2.69148 -4.34211,-4.15945c-0.53521,-0.38496 -2.05318,-0.30698 -1.2303,-1.37448c3.28828,-4.2745 6.88545,-8.6068 11.1039,-11.79603c5.43443,-4.1052 11.08138,-8.28922 17.56778,-10.56736c8.18014,-2.66776 16.94738,-4.45648 25.69691,-4.02099c8.31183,0.413 15.73454,5.05736 23.99888,6.98922c2.06523,0.48271 2.13687,0.08518 3.72615,-0.44697c0.83234,-0.37284 0.2619,-2.79682 1.43453,-2.31562c1.88106,0.91493 2.07776,3.90697 3.38976,5.63084c3.51342,4.65529 6.75434,9.4819 11.00066,13.67264c0.84366,0.98032 1.87168,-1.05561 2.60478,0.14416c1.76572,4.33649 2.09328,9.16556 2.4991,13.85529c0.58053,6.72601 0.40217,20.27112 0.40217,20.27112" data-paper-data="{&quot;origPos&quot;:null}" id="ID0.6959539707750082" fill="none" stroke="#663b00" stroke-width="4" stroke-linecap="round"/><path d="M358.07244,257.55609c1.04799,0.058 1.97431,0.53603 2.62392,1.26174c0.6496,0.72573 1.02247,1.69913 0.96447,2.74712c-0.058,1.04799 -0.53602,1.97431 -1.26174,2.62392c-0.72573,0.6496 -1.69914,1.02247 -2.74714,0.96448c-1.04799,-0.058 -1.97431,-0.53602 -2.62391,-1.26174c-0.6496,-0.72573 -1.02247,-1.69914 -0.96447,-2.74713c0.058,-1.04799 0.53603,-1.9743 1.26174,-2.62391c0.72573,-0.6496 1.69913,-1.02247 2.74713,-0.96447z" id="ID0.8793090796098113" fill="#000000" stroke="none" stroke-width="1" stroke-linecap="butt"/><path d="M381.00566,259.3973c1.04799,0.058 1.97431,0.53602 2.62391,1.26175c0.6496,0.72573 1.02248,1.69914 0.96448,2.74713c-0.058,1.04799 -0.53602,1.97431 -1.26174,2.62391c-0.72573,0.6496 -1.69914,1.02248 -2.74714,0.96448c-1.04799,-0.058 -1.97431,-0.53602 -2.62391,-1.26175c-0.6496,-0.72573 -1.02247,-1.69914 -0.96447,-2.74713c0.058,-1.04799 0.53603,-1.9743 1.26174,-2.62391c0.72573,-0.6496 1.69914,-1.02249 2.74714,-0.96449z" id="ID0.8793090796098113" fill="#000000" stroke="none" stroke-width="1" stroke-linecap="butt"/><path d="M384.82068,279.56279c0,0 -12.21131,3.33049 -17.89341,2.92146c-5.84702,-0.42091 -13.34218,-6.70479 -13.34218,-6.70479" fill="none" stroke="#000000" stroke-width="3" stroke-linecap="round"/></g></g></g></svg>