<svg xmlns="http://www.w3.org/2000/svg" xmlns:xlink="http://www.w3.org/1999/xlink" version="1.1" width="262.54249" height="325.445" viewBox="0,0,262.54249,325.445"><g><g data-paper-data="{&quot;isPaintingLayer&quot;:true}" fill-rule="nonzero" stroke-linecap="butt" stroke-linejoin="miter" stroke-miterlimit="10" stroke-dasharray="" stroke-dashoffset="0" style="mix-blend-mode: normal"><path d="M 232.4651 212.1049 C 230.4409 222.0691 210.4876 223.4863 187.8982 215.2704 C 165.3088 207.0546 148.6375 192.3167 150.6617 182.3526 C 152.686 172.3885 172.6393 170.9713 195.2287 179.1871 C 217.818 187.403 234.4894 202.1408 232.4652 212.1049 Z " data-paper-data="{&quot;origRot&quot;:0,&quot;index&quot;:null}" fill="#1f0f03" stroke="#000000" stroke-width="1"/><path d="M 76.3993 186.8598 C 86.5091 190.2554 81.1386 219.5925 74.7296 232.1518 C 68.3206 244.7112 60.6797 239.2236 50.5699 235.828 C 40.4601 232.4324 31.7098 232.4147 38.1189 219.8554 C 44.5279 207.296 66.2895 183.4643 76.3993 186.8598 Z " data-paper-data="{&quot;origRot&quot;:0,&quot;index&quot;:null}" fill="#5ef3a3" stroke="#2abc90" stroke-width="2.5"/><path d="M 70.127 187.9816 C 74.9965 196.0574 47.5124 215.1292 32.6632 221.0464 C 17.8139 226.9636 16.4691 218.6684 11.5995 210.5926 C 6.73 202.5168 0.1797 197.7184 15.029 191.8012 C 29.8783 185.884 65.2575 179.9057 70.127 187.9816 Z " data-paper-data="{&quot;origRot&quot;:0,&quot;index&quot;:null}" fill="#5ef3a3" stroke="#2abc90" stroke-width="2.5"/><g data-paper-data="{&quot;index&quot;:null}"><path d="M 174.5113 318.0689 L 151.4361 264.4225 L 181.2086 246.3196 L 220.7535 289.9516 Z " data-paper-data="{&quot;origPos&quot;:null}" fill="#1f0f03" stroke="#000000" stroke-width="1"/><g data-paper-data="{&quot;origPos&quot;:null}" font-family="sans-serif" font-weight="normal" font-size="12" text-anchor="start"/></g><g data-paper-data="{&quot;index&quot;:null}"><path d="M 102.5727 324.7316 L 82.2673 269.9768 L 112.9254 253.4179 L 150.1905 299.0125 Z " data-paper-data="{&quot;origPos&quot;:null}" fill="#1f0f03" stroke="#000000" stroke-width="1"/><g data-paper-data="{&quot;origPos&quot;:null}" font-family="sans-serif" font-weight="normal" font-size="12" text-anchor="start"/></g><path d="M 44.4027 271.3652 L 86.0657 184.2171 L 171.7547 182.4016 L 214.175 269.5496 Z " data-paper-data="{&quot;index&quot;:null}" fill="#1f0f03" stroke="#000000" stroke-width="1"/><path d="M 221.3602 118.2779 C 209.0808 201.5291 180.1422 171.4573 165.0934 168.138 C 150.0448 164.8186 142.4171 117.9933 148.7714 89.1859 C 155.1257 60.3784 172.4763 39.7161 187.525 43.0356 C 202.5737 46.355 228.8191 77.335 221.3602 118.2778 Z " data-paper-data="{&quot;origRot&quot;:0,&quot;origPos&quot;:null,&quot;index&quot;:null}" fill="#d6bbff" stroke="#9d85c1" stroke-width="1"/><path d="M 0.5 111.2828 C 4.2247 59.4953 45.5542 46.6972 59.1628 49.9855 C 72.7715 53.2737 79.5762 100.0811 73.7677 128.9004 C 67.9592 157.7197 74.5899 178.1032 60.9812 174.8149 C 47.3726 171.5267 2.4346 152.4289 0.5 111.2828 Z " data-paper-data="{&quot;origRot&quot;:0,&quot;origPos&quot;:null}" fill="#d6bbff" stroke="#9d85c1" stroke-width="1"/><path d="M 45.5794 125.4728 C 40.6064 78.1255 73.1379 35.9027 118.2405 31.1655 C 163.3432 26.4283 203.9375 60.9706 208.9104 108.3178 C 213.8834 155.6651 181.352 197.888 136.2493 202.6252 C 91.1467 207.3624 50.5524 172.8201 45.5794 125.4729 Z " data-paper-data="{&quot;origPos&quot;:null,&quot;origRot&quot;:0}" fill="#d6bbff" stroke="#9d85c1" stroke-width="1"/><path d="M 136.1869 110.4459 C 135.0831 99.9365 142.5303 90.5408 152.8207 89.46 C 163.1111 88.3791 172.348 96.0225 173.4518 106.5319 C 174.5556 117.0412 167.1084 126.4369 156.818 127.5177 C 146.5276 128.5985 137.2907 120.9552 136.1869 110.4459 Z " data-paper-data="{&quot;origPos&quot;:null,&quot;origRot&quot;:0}" fill="#000000" stroke="none" stroke-width="1"/><path d="M 150.9619 105.4552 C 150.387 99.9816 154.1807 95.0969 159.4354 94.545 C 164.6901 93.9931 169.4158 97.983 169.9908 103.4566 C 170.5657 108.9302 166.772 113.8149 161.5173 114.3668 C 156.2626 114.9187 151.5368 110.9288 150.9619 105.4553 Z " data-paper-data="{&quot;origRot&quot;:0}" fill="#ffffff" stroke="none" stroke-width="1"/><path d="M 171.1079 125.4401 C 173.0458 122.3102 179.8286 121.6371 186.2576 123.9366 C 192.6866 126.2362 196.3274 130.6377 194.3894 133.7676 C 192.4515 136.8975 185.6688 137.5707 179.2398 135.2711 C 172.8107 132.9715 169.17 128.57 171.1078 125.4401 Z " data-paper-data="{&quot;origPos&quot;:null,&quot;origRot&quot;:0}" fill="#ffc0bb" stroke="none" stroke-width="1"/><path d="M 40.1323 121.8028 C 40.4968 102.5714 57.4935 56.9458 66.0777 57.1218 C 74.6618 57.2979 71.5828 103.2087 71.2183 122.4401 C 70.8539 141.6714 72.6326 172.522 64.0484 172.346 C 55.4643 172.17 39.768 141.0342 40.1324 121.8028 Z " data-paper-data="{&quot;origRot&quot;:0,&quot;origPos&quot;:null}" fill="#d6bbff" stroke="none" stroke-width="1"/><path d="M 70.2342 128.2861 C 72.4733 125.1246 80.1667 124.3558 87.4178 126.569 C 94.669 128.7823 98.7321 133.1394 96.493 136.301 C 94.2539 139.4625 86.5606 140.2313 79.3094 138.0181 C 72.0582 135.8048 67.9951 131.4477 70.2342 128.2862 Z " data-paper-data="{&quot;origPos&quot;:null,&quot;origRot&quot;:0}" fill="#ffc0bb" stroke="none" stroke-width="1"/><path d="M 96.1938 92.2012 C 106.4842 91.1204 115.7211 98.7637 116.8249 109.273 C 117.9288 119.7824 110.4816 129.178 100.1911 130.2588 C 89.9007 131.3397 80.6639 123.6964 79.56 113.187 C 78.4562 102.6776 85.9034 93.2819 96.1938 92.2011 Z " data-paper-data="{&quot;origPos&quot;:null,&quot;origRot&quot;:0}" fill="#000000" stroke="none" stroke-width="1"/><path d="M 94.5486 108.4872 C 93.9737 103.0135 97.7674 98.1289 103.0221 97.577 C 108.2768 97.0251 113.0026 101.0149 113.5775 106.4886 C 114.1524 111.9622 110.3587 116.8469 105.104 117.3987 C 99.8493 117.9506 95.1235 113.9608 94.5486 108.4872 Z " data-paper-data="{&quot;origRot&quot;:0}" fill="#ffffff" stroke="none" stroke-width="1"/><path d="M 64.2274 83.5903 C 59.6515 92.7421 52.5671 109.8979 52.331 119.7404 C 52.1952 125.3996 58.3289 154.2503 41.7089 154.2503 C 34.6348 154.2503 31.3343 149.2218 31.0868 143.6282 C 29.925 117.3683 36.2933 106.3072 42.0143 83.5877 C 43.0103 79.6326 48.1703 62.7953 53.5477 63.1662 C 54.9466 62.488 56.5167 62.1077 58.1756 62.1077 C 64.042 62.1077 68.7977 66.8634 68.7977 72.7298 C 70.4253 74.4504 65.3634 81.3181 64.2274 83.5903 Z " fill="#d6bbff" stroke="none" stroke-width="0.5"/><path d="M 65.7398 49.28 L 47.1793 51.5819 L 47.6625 46.8609 L 35.8653 17.2421 L 72.8202 19.067 C 72.8202 19.067 84.7153 16.6015 91.751 13.1846 C 96.5268 10.8651 103.0857 4.3682 103.0857 4.3682 C 103.0857 4.3682 109.5684 7.5556 110.1343 11.6854 C 110.4475 13.9709 105.3382 20.8064 105.3382 20.8064 L 121.9007 11.8342 C 121.9007 11.8342 128.2892 4.0266 133.9663 5.0254 C 139.6434 6.0243 148.9907 16.6005 148.9907 16.6005 L 152.7837 7.5894 L 156.3027 11.6256 L 159.1213 7.1237 L 200.0473 1.6437 C 200.0473 1.6437 203.7206 11.1502 200.0964 15.9909 C 196.4723 20.8317 185.6142 20.9219 185.6142 20.9219 C 185.6142 20.9219 196.9659 20.7254 203.4625 19.8047 C 211.069 18.7268 221.7517 15.8006 221.7517 15.8006 L 219.7196 32.275 L 250.2778 19.6877 C 250.2778 19.6877 252.2659 44.0715 246.0426 56.5155 C 239.5197 69.5586 228.261 76.0599 210.5274 82.6283 C 205.4819 84.4971 203.4949 89.3482 203.4949 89.3482 L 182.9515 75.5585 C 182.9515 75.5585 167.4299 83.329 157.4789 83.4825 C 147.528 83.6359 140.4857 73.4889 140.4857 73.4889 C 140.4857 73.4889 132.754 81.0284 123.8417 80.707 C 114.9294 80.3856 100.0152 75.001 100.0152 75.001 C 100.0152 75.001 92.4496 81.5435 87.501 82.63 C 82.5524 83.7166 55.758 84.7185 55.758 84.7185 C 55.758 84.7185 57.9766 81.5519 60.0996 78.1825 C 62.4065 74.5215 49.7128 75.8777 49.7128 75.8777 Z " data-paper-data="{&quot;index&quot;:null,&quot;origRot&quot;:0}" fill="#5ef3a3" stroke="#2abc90" stroke-width="3"/><path d="M 187.8462 190.295 C 186.9023 194.2679 198.5872 194.7765 190.5395 199.3088 C 185.8917 201.9264 181.98 200.8603 176.3964 201.4099 C 159.6454 203.0586 112.9389 206.9019 72.4662 203.9286 C 59.8386 203.0009 74.0476 200.2427 74.0329 196.3744 C 74.0169 192.1696 53.0528 194.0624 69.3096 185.0286 C 74.8817 181.9322 147.7678 176.2164 191.5754 180.8769 C 210.2566 182.8644 188.9768 185.537 187.8463 190.295 Z " data-paper-data="{&quot;origPos&quot;:null}" fill="#5ef3a3" stroke="#2abc90" stroke-width="2.5"/><g data-paper-data="{&quot;origPos&quot;:null,&quot;origRot&quot;:0}"><path d="M 208.7673 165.5185 C 213.9877 186.9842 208.8008 201.4987 170.3915 195.7906 C 155.7613 193.6164 130.8566 176.2739 121.363 165.8665 C 111.8693 155.4591 111.4372 131.1619 111.4372 131.1619 L 142.7938 127.7793 C 142.7938 127.7793 146.7238 152.7497 160.4987 155.1122 C 176.9845 157.9397 203.547 144.0528 208.7673 165.5185 Z " data-paper-data="{&quot;origPos&quot;:null,&quot;origRot&quot;:0}" stroke="#9d85c1" stroke-width="1" fill="#d6bbff"/><path d="M 119.5665 149.5776 L 110.8793 127.4248 L 140.7029 125.2025 L 146.3944 146.7326 Z " data-paper-data="{&quot;origRot&quot;:0,&quot;origPos&quot;:null}" stroke="none" stroke-width="1" fill="#d6bbff"/></g><g><path d="M 256.6248 188.7336 L 256.6248 176.2151 L 261.0425 176.2151 L 261.0425 188.7336 Z " fill="#ff9000" stroke="#d15600" stroke-width="3"/><path d="M 198.1906 212.3262 L 198.1906 173.3262 L 257.8296 173.3262 L 257.8296 191.6225 L 214.6566 192.104 L 214.4558 212.3262 Z " fill="#00a2ff" stroke="#006bd2" stroke-width="3"/><text transform="matrix(0.14293,0,0,0.17136,204.41558,185.14507999999998)" font-size="40" xml:space="preserve" fill="#006bd2" fill-rule="nonzero" stroke="none" stroke-width="1" stroke-linecap="butt" stroke-linejoin="miter" stroke-miterlimit="10" stroke-dasharray="" stroke-dashoffset="0" font-family="Marker" font-weight="normal" text-anchor="start" style="mix-blend-mode: normal"><tspan x="0" dy="0">blaster</tspan></text></g><path d="M 124.7337 195.4823 C 127.7261 185.765 149.4181 180.8056 173.1841 184.4053 C 196.9501 188.0051 213.7904 198.8007 210.7981 208.518 C 207.8057 218.2354 186.1137 223.1947 162.3477 219.595 C 138.5817 215.9953 121.7414 205.1997 124.7338 195.4823 Z " data-paper-data="{&quot;origRot&quot;:0,&quot;index&quot;:null}" fill="#1f0f03" stroke="#000000" stroke-width="1"/></g></g></svg>