<svg version="1.1" xmlns="http://www.w3.org/2000/svg" xmlns:xlink="http://www.w3.org/1999/xlink" width="382.55473" height="364.53907" viewBox="0,0,382.55473,364.53907"><g transform="translate(-101.09639,-38.5564)"><g data-paper-data="{&quot;isPaintingLayer&quot;:true}" fill-rule="nonzero" stroke-linejoin="miter" stroke-miterlimit="10" stroke-dasharray="" stroke-dashoffset="0" style="mix-blend-mode: normal"><g data-paper-data="{&quot;index&quot;:null}" stroke-linecap="round"><path d="M198.35158,360.24252l-26.57574,-193.55685l29.57993,-7.33385l66.53967,182.00697z" fill="#006622" stroke="#006622" stroke-width="3.31787"/><path d="M257.02295,338.22423l-41.62757,-111.87589" fill="none" stroke="#01902d" stroke-width="10.8155"/><path d="M269.89455,343.39173l-31.26264,7.75117l-1.74803,-7.0501l31.26274,-7.7511z" fill="#006622" stroke="none" stroke-width="1.30791"/></g><path d="M135.18997,285.30246c-3.19654,3.45124 -7.77517,5.76333 -12.97812,6.11486c-5.20293,0.35152 -10.051,-1.32385 -13.68267,-4.31368c-3.63001,-2.98855 -6.0439,-7.29304 -6.37544,-12.20136c-0.33155,-4.90832 1.48129,-9.49837 4.67634,-12.94799c3.19662,-3.45114 7.77528,-5.76341 12.97812,-6.11486c5.20293,-0.35152 10.051,1.32385 13.68267,4.31368c3.63012,2.98847 6.0439,7.29304 6.37544,12.20136c0.33173,4.90835 -1.48129,9.49837 -4.67634,12.94799z" data-paper-data="{&quot;index&quot;:null}" fill="#ffd499" stroke="#000000" stroke-width="2.11469" stroke-linecap="butt"/><path d="M316.55923,280.33527c-4.30895,1.88731 -9.42997,2.17827 -14.34031,0.42248c-4.91032,-1.75579 -8.68577,-5.22805 -10.82106,-9.41956c-2.13428,-4.18966 -2.62805,-9.10002 -0.97162,-13.73228c1.65644,-4.63225 5.15167,-8.11625 9.4586,-10.00267c4.30897,-1.88719 9.43011,-2.1783 14.34031,-0.42248c4.91032,1.75579 8.68577,5.22805 10.82106,9.41956c2.13441,4.18963 2.62805,9.10002 0.97162,13.73228c-1.65628,4.63235 -5.15167,8.11625 -9.4586,10.00267z" data-paper-data="{&quot;index&quot;:null}" fill="#ffd499" stroke="#000000" stroke-width="2.11469" stroke-linecap="butt"/><g data-paper-data="{&quot;index&quot;:null}" stroke-linecap="butt"><g><path d="M305.68796,386.50758c4.1145,1.71286 6.66598,4.09101 6.67637,6.72636c0.01031,2.63524 -2.5224,5.03341 -6.62326,6.77858c-4.09967,1.74629 -9.76725,2.83855 -16.02659,2.86304c-6.25935,0.02467 -11.93539,-1.02299 -16.04856,-2.73701c-4.11439,-1.71294 -6.66598,-4.09101 -6.67637,-6.72636c-0.01039,-2.63535 2.52251,-5.03349 6.62326,-6.77858c4.09959,-1.7464 9.76725,-2.83855 16.02661,-2.86323c6.25932,-0.02448 11.93528,1.02307 16.04853,2.7372z" fill="#c90101" stroke="#000000" stroke-width="3.54063"/><path d="M297.34459,388.88008c3.01473,1.46101 4.88593,3.48891 4.89482,5.73418c0.00881,2.24516 -1.84644,4.28763 -4.84962,5.77243c-3.00313,1.48577 -7.15557,2.41357 -11.74239,2.43156c-4.58684,0.01817 -8.74639,-0.87719 -11.76107,-2.33926c-3.01473,-1.46101 -4.88601,-3.48902 -4.89482,-5.73418c-0.00881,-2.24516 1.84636,-4.28774 4.84962,-5.77243c3.00313,-1.48577 7.15549,-2.41368 11.7423,-2.43166c4.58692,-0.01806 8.74639,0.87719 11.76115,2.33937z" fill="#ff0202" stroke="none" stroke-width="0.93464"/><path d="M306.34855,386.26365c4.1145,1.71286 6.66598,4.09101 6.67637,6.72636c0.01031,2.63524 -2.5224,5.03341 -6.62326,6.77858c-4.09967,1.74629 -9.76725,2.83855 -16.02659,2.86304c-6.25935,0.02467 -11.93539,-1.02299 -16.04856,-2.73701c-4.11439,-1.71294 -6.66598,-4.09101 -6.67637,-6.72636c-0.01039,-2.63535 2.52251,-5.03349 6.62326,-6.77858c4.09959,-1.7464 9.76725,-2.83855 16.02661,-2.86323c6.25932,-0.02448 11.93528,1.02307 16.04853,2.7372z" fill="none" stroke="#000000" stroke-width="3.54063"/></g><g><path d="M245.1989,386.78452c4.1145,1.71286 6.66598,4.09101 6.67637,6.72636c0.01031,2.63524 -2.5224,5.03341 -6.62326,6.77858c-4.09967,1.74629 -9.76725,2.83855 -16.02659,2.86304c-6.25935,0.02467 -11.93539,-1.02299 -16.04856,-2.73701c-4.11439,-1.71294 -6.66598,-4.09101 -6.67637,-6.72636c-0.01039,-2.63535 2.52251,-5.03349 6.62326,-6.77858c4.09959,-1.7464 9.76725,-2.83855 16.02661,-2.86323c6.25932,-0.02448 11.93528,1.02307 16.04853,2.7372z" fill="#c90101" stroke="#000000" stroke-width="3.54063"/><path d="M236.85553,389.15702c3.01473,1.46101 4.88593,3.48891 4.89482,5.73418c0.00881,2.24516 -1.84644,4.28763 -4.84962,5.77243c-3.00313,1.48577 -7.15557,2.41357 -11.74239,2.43156c-4.58684,0.01817 -8.74639,-0.87719 -11.76107,-2.33926c-3.01473,-1.46101 -4.88601,-3.48902 -4.89482,-5.73418c-0.00881,-2.24516 1.84636,-4.28774 4.84962,-5.77243c3.00313,-1.48577 7.15549,-2.41368 11.7423,-2.43166c4.58692,-0.01806 8.74639,0.87719 11.76115,2.33937z" fill="#ff0202" stroke="none" stroke-width="0.93464"/><path d="M245.03722,386.9062c4.1145,1.71286 6.66598,4.09101 6.67637,6.72636c0.01031,2.63524 -2.5224,5.03341 -6.62326,6.77858c-4.09967,1.74629 -9.76725,2.83855 -16.02659,2.86304c-6.25935,0.02467 -11.93539,-1.02299 -16.04856,-2.73701c-4.11439,-1.71294 -6.66598,-4.09101 -6.67637,-6.72636c-0.01039,-2.63535 2.52251,-5.03349 6.62326,-6.77858c4.09959,-1.7464 9.76725,-2.83855 16.02661,-2.86323c6.25932,-0.02448 11.93528,1.02307 16.04853,2.7372z" fill="none" stroke="#000000" stroke-width="3.54063"/></g></g><path d="M296.78017,276.97446l18.37245,-42.17171l166.85327,72.69103l-18.37245,42.17171z" fill="#9966ff" stroke="#000000" stroke-width="2.5" stroke-linecap="butt"/><g><path d="M162.97564,50.81215c-0.132,-1.3804 4.5948,-3.34197 7.33922,-3.88658c2.31025,-0.33606 4.99631,0.05037 6.92843,1.39883c2.25084,1.5903 3.42877,4.26958 4.25253,6.93005c-0.47766,6.35327 -2.93129,1.9027 -4.96846,0.44769c-1.75596,-0.97954 -3.5992,-2.24394 -5.58572,-2.97436c-2.53085,-0.93135 -7.82895,-0.56255 -7.966,-1.91562z" data-paper-data="{&quot;origPos&quot;:null,&quot;index&quot;:null}" fill="#666600" stroke="#666600" stroke-width="2.23893" stroke-linecap="round"/><path d="M259.49249,87.33726c13.0682,16.79445 20.23971,39.15496 18.40803,63.08462c-1.83174,23.92956 -12.32309,44.93799 -27.79511,59.54779c-15.47027,14.60981 -35.91962,22.82125 -57.6655,21.15657c-21.7458,-1.66458 -40.70714,-12.89263 -53.77352,-29.68697c-13.06812,-16.79433 -20.23982,-39.15489 -18.40808,-63.08445c1.83174,-23.92956 12.32309,-44.93799 27.79511,-59.54779c15.47037,-14.60988 35.91962,-22.82125 57.66542,-21.15668c21.74599,1.66463 40.70714,12.89263 53.77363,29.6869z" data-paper-data="{&quot;origPos&quot;:null,&quot;index&quot;:null}" fill="#f0c690" stroke="#f0c690" stroke-width="3.8323" stroke-linecap="butt"/><path d="M246.48982,110.73112c11.79618,13.47528 18.36893,31.34238 16.9106,50.39351c-1.45826,19.05125 -10.67389,35.70985 -24.3836,47.23265c-13.70828,11.52429 -31.91219,17.91409 -51.34833,16.42635c-19.43625,-1.48767 -36.45548,-10.5738 -48.25015,-24.0502c-11.79618,-13.47528 -18.36893,-31.34238 -16.9106,-50.39351c1.45826,-19.05125 10.67389,-35.70985 24.38349,-47.23258c13.70839,-11.52436 31.91229,-17.91417 51.34845,-16.42642c19.43625,1.48767 36.45548,10.5738 48.25015,24.0502z" data-paper-data="{&quot;origPos&quot;:null,&quot;index&quot;:null}" fill="#ffd499" stroke="none" stroke-width="1.03711" stroke-linecap="butt"/><path d="M197.21328,39.91223c0.49001,1.8813 -5.42309,5.39353 -7.94565,8.06797c-1.7138,1.81404 -3.30806,3.88071 -4.79278,5.7329c-1.56585,2.50542 -2.12481,8.54496 -5.78479,1.63484c-0.38606,-3.33394 -0.37336,-6.83401 1.35395,-9.58995c1.63249,-2.5593 4.57382,-4.19413 7.43663,-5.26111c3.08159,-0.95409 9.29525,-2.18083 9.73266,-0.58465z" data-paper-data="{&quot;origPos&quot;:null,&quot;index&quot;:null}" fill="#525200" stroke="#525200" stroke-width="2.71167" stroke-linecap="round"/><g data-paper-data="{&quot;origPos&quot;:null,&quot;index&quot;:null}" fill="none" stroke="#000000" stroke-width="12.6636" stroke-linecap="round"><path d="M230.09171,135.49892l-4.18021,54.88348"/><path d="M187.20752,187.49919l4.18021,-54.88348"/></g><path d="M276.63417,112.20056l-152.32698,-11.66012l12.54116,-18.26206l15.80128,-15.36116l15.24657,-8.1126l10.7895,-4.47667l13.40765,-2.28786l13.25633,-0.31093l23.72354,5.79291l9.81511,5.52371l5.07053,2.90685l10.47303,8.75563l9.52833,11.99749l7.50175,11.1794z" data-paper-data="{&quot;origPos&quot;:null,&quot;index&quot;:null}" fill="#666600" stroke="none" stroke-width="1.00499" stroke-linecap="round"/><path d="M263.57773,101.39153c2.86506,0.21932 5.26808,1.70903 7.11301,3.55499c2.88025,2.86119 5.99762,6.31858 7.85368,10.18434c2.00532,5.81144 3.1629,12.01401 3.48479,18.16322c0.28904,5.61504 0.92862,18.69393 -2.69626,17.02717c-6.38275,-4.07047 -10.50987,-19.99205 -17.31888,-28.50174c-1.71236,-2.14205 -5.37407,-1.56201 -7.1132,-3.55503c-1.73894,-1.99297 -2.70665,-4.63615 -2.4909,-7.45391c0.21557,-2.81781 1.57443,-5.28291 3.59648,-6.98806c2.02213,-1.70503 4.70611,-2.65021 7.57128,-2.43096z" data-paper-data="{&quot;origPos&quot;:null,&quot;index&quot;:null}" fill="#525200" stroke="none" stroke-width="1.00499" stroke-linecap="round"/><path d="M252.01876,101.65435c1.82853,2.47984 2.82344,5.78663 2.55204,9.33184c-0.27142,3.54521 -1.75801,6.66206 -3.94265,8.8347c-2.18324,2.17255 -5.06312,3.4011 -8.11935,3.16718c-3.05622,-0.23392 -5.71542,-1.88646 -7.54261,-4.3662c-1.82846,-2.47974 -2.82348,-5.78644 -2.55207,-9.33166c0.27135,-3.54533 1.75801,-6.66206 3.94265,-8.8347c2.18317,-2.17267 5.06312,-3.4011 8.11935,-3.16718c3.05622,0.23392 5.71554,1.88638 7.54265,4.36602z" data-paper-data="{&quot;origPos&quot;:null,&quot;index&quot;:null}" fill="#525200" stroke="none" stroke-width="1.00499" stroke-linecap="butt"/><path d="M207.98595,57.35954c1.2213,1.30368 1.90621,3.02809 1.76586,4.86202c-0.14037,1.83394 -1.07976,3.43399 -2.48525,4.53646c-1.40479,1.10331 -3.27471,1.70908 -5.27537,1.55587c-2.00077,-0.15313 -3.75673,-1.03636 -4.97711,-2.34062c-1.2213,-1.30368 -1.90621,-3.02809 -1.76586,-4.86202c0.14037,-1.83394 1.07976,-3.43399 2.48525,-4.53646c1.40479,-1.10331 3.27471,-1.70908 5.27537,-1.55587c2.00077,0.15313 3.75673,1.03636 4.97711,2.34062z" data-paper-data="{&quot;origPos&quot;:null,&quot;index&quot;:null}" fill="#525200" stroke="none" stroke-width="0.59905" stroke-linecap="butt"/><path d="M235.09296,102.24952c1.38987,1.60571 2.16278,3.73686 1.98881,6.00893c-0.1739,2.27218 -1.26211,4.2609 -2.88013,5.63636c-1.61947,1.3767 -3.76729,2.14022 -6.05915,1.96474c-2.2918,-0.17537 -4.29832,-1.25691 -5.68942,-2.86407c-1.38987,-1.60571 -2.16266,-3.73693 -1.98881,-6.00893c0.1739,-2.27218 1.26223,-4.26097 2.88013,-5.63636c1.61947,-1.3767 3.76729,-2.14022 6.05915,-1.96474c2.2918,0.17537 4.29843,1.25684 5.68942,2.86407z" data-paper-data="{&quot;origPos&quot;:null,&quot;index&quot;:null}" fill="#666600" stroke="none" stroke-width="1.00499" stroke-linecap="butt"/><path d="M220.84549,90.82678c2.01088,2.55338 3.11579,5.95208 2.83748,9.58822c-0.27831,3.63615 -1.88762,6.82725 -4.26375,9.04475c-2.37605,2.21761 -5.51914,3.46301 -8.86206,3.20713c-3.3428,-0.25595 -6.25967,-1.96527 -8.27055,-4.51865c-2.011,-2.5533 -3.11579,-5.95208 -2.83748,-9.58822c0.27831,-3.63615 1.88769,-6.82715 4.26375,-9.04475c2.37612,-2.21749 5.51914,-3.46301 8.86206,-3.20713c3.3428,0.25595 6.25967,1.96527 8.27055,4.51865z" data-paper-data="{&quot;origPos&quot;:null,&quot;index&quot;:null}" fill="#666600" stroke="none" stroke-width="1.00499" stroke-linecap="butt"/><path d="M200.49141,102.8551c0.80039,1.08076 1.23618,2.52193 1.11775,4.06789c-0.11831,1.5459 -0.76828,2.90408 -1.72386,3.85031c-0.95415,0.94774 -2.21394,1.48225 -3.55168,1.37991c-1.33763,-0.10241 -2.50137,-0.82258 -3.30022,-1.90446c-0.80032,-1.08064 -1.23611,-2.52183 -1.11779,-4.06771c0.11836,-1.54609 0.76839,-2.90415 1.72378,-3.85043c0.95434,-0.94769 2.21405,-1.48233 3.55175,-1.3798c1.33774,0.10234 2.50141,0.82239 3.30026,1.90427z" data-paper-data="{&quot;origPos&quot;:null,&quot;index&quot;:null}" fill="#666600" stroke="none" stroke-width="1.00499" stroke-linecap="butt"/><path d="M191.74883,95.55081c1.83306,2.42044 2.83428,5.64545 2.56983,9.09985c-0.26434,3.45433 -1.74481,6.48935 -3.92484,8.60271c-2.17866,2.112 -5.05562,3.30356 -8.11185,3.06964c-3.05622,-0.23392 -5.71842,-1.84959 -7.55023,-4.26858c-1.83298,-2.42032 -2.83416,-5.64553 -2.56976,-9.09974c0.26445,-3.4544 1.74474,-6.48947 3.92484,-8.60271c2.17859,-2.1121 5.05566,-3.30375 8.11196,-3.06971c3.05622,0.23392 5.71823,1.84955 7.55004,4.26855z" data-paper-data="{&quot;origPos&quot;:null,&quot;index&quot;:null}" fill="#525200" stroke="none" stroke-width="1.00499" stroke-linecap="butt"/><path d="M172.66841,101.94764c0.7676,0.68981 1.20543,1.59289 1.13249,2.54707c-0.07306,0.95425 -0.64331,1.78022 -1.50694,2.34511c-0.86218,0.56365 -2.01633,0.86514 -3.25851,0.76995c-1.24209,-0.09507 -2.33688,-0.56859 -3.10323,-1.25694c-0.7677,-0.68973 -1.20562,-1.59293 -1.13249,-2.54707c0.07306,-0.95425 0.64331,-1.78022 1.50694,-2.34511c0.86218,-0.56365 2.01621,-0.86507 3.25844,-0.77007c1.24216,0.09519 2.33695,0.5687 3.1033,1.25706z" data-paper-data="{&quot;origPos&quot;:null,&quot;index&quot;:null}" fill="#666600" stroke="none" stroke-width="1.00499" stroke-linecap="butt"/><path d="M166.04791,98.66905c0.73676,0.7916 1.1497,1.83936 1.06441,2.95403c-0.08527,1.11466 -0.65293,2.08736 -1.50166,2.75764c-0.84872,0.67106 -1.97756,1.03971 -3.18526,0.94728c-1.2077,-0.09244 -2.26712,-0.6286 -3.00386,-1.42117c-0.73686,-0.79153 -1.1498,-1.83929 -1.06453,-2.95396c0.08535,-1.11455 0.65301,-2.08724 1.50173,-2.75752c0.84872,-0.67106 1.97749,-1.03983 3.18519,-0.94739c1.2077,0.09244 2.2672,0.62872 3.00397,1.4211z" data-paper-data="{&quot;origPos&quot;:null,&quot;index&quot;:null}" fill="#525200" stroke="none" stroke-width="0.70785" stroke-linecap="butt"/><path d="M134.06655,90.89344c2.10447,-1.54384 4.70615,-2.6504 7.57133,-2.43115c2.86513,0.21943 5.37396,1.56208 7.11309,3.5551c1.73894,1.99297 2.70665,4.63615 2.49097,7.45403c-0.21565,2.81769 -1.57451,5.2828 -3.59655,6.98795c-2.02206,1.70515 -5.55284,0.57445 -7.57128,2.43096c-8.02484,7.37423 -14.52728,22.48205 -21.45509,25.53373c-3.83643,1.09563 -1.21354,-11.73359 -0.07335,-17.23927c1.25398,-6.0285 3.34232,-11.98255 6.2087,-17.4211c2.42295,-3.53825 6.0301,-6.48078 9.31218,-8.87027z" data-paper-data="{&quot;origPos&quot;:null,&quot;index&quot;:null}" fill="#666600" stroke="none" stroke-width="1.00499" stroke-linecap="round"/><path d="M156.46601,97.134c1.67674,1.98831 2.60564,4.62847 2.38988,7.44623c-0.21557,2.81781 -1.5355,5.28589 -3.49534,6.99568c-1.95844,1.71003 -4.55661,2.66183 -7.32614,2.44985c-2.76954,-0.21198 -5.19262,-1.54814 -6.86801,-3.53633c-1.67666,-1.9882 -2.60564,-4.62847 -2.38988,-7.44623c0.21565,-2.81769 1.53569,-5.28584 3.49534,-6.99568c1.95844,-1.71003 4.55661,-2.66183 7.32622,-2.44974c2.76966,0.21191 5.19262,1.54814 6.86794,3.53622z" data-paper-data="{&quot;origPos&quot;:null,&quot;index&quot;:null}" fill="#666600" stroke="none" stroke-width="1.00499" stroke-linecap="butt"/><path d="M231.62703,68.69918c2.09366,2.23467 3.26789,5.19083 3.02731,8.33463c-0.24068,3.14388 -1.85121,5.88698 -4.26055,7.77687c-2.40811,1.89134 -5.6138,2.92984 -9.0435,2.66731c-3.42977,-0.26264 -6.44004,-1.77687 -8.5322,-4.01266c-2.09366,-2.23467 -3.26789,-5.19083 -3.0272,-8.33471c0.24068,-3.14388 1.85109,-5.88691 4.26043,-7.7768c2.40814,-1.89153 5.6138,-2.92984 9.0435,-2.66731c3.42982,0.26245 6.44009,1.77668 8.5322,4.01266z" data-paper-data="{&quot;origPos&quot;:null,&quot;index&quot;:null}" fill="#525200" stroke="none" stroke-width="1.02694" stroke-linecap="butt"/><path d="M152.67937,84.87265c2.09366,2.23467 3.26789,5.19083 3.02731,8.33463c-0.24068,3.14388 -1.85121,5.88698 -4.26055,7.77687c-2.40811,1.89134 -5.6138,2.92984 -9.0435,2.66731c-3.42977,-0.26264 -6.44004,-1.77687 -8.5322,-4.01266c-2.09366,-2.23467 -3.26789,-5.19083 -3.0272,-8.33471c0.24068,-3.14388 1.85109,-5.88691 4.26043,-7.7768c2.40814,-1.89153 5.6138,-2.92984 9.0435,-2.66731c3.42982,0.26245 6.44009,1.77668 8.5322,4.01266z" data-paper-data="{&quot;origPos&quot;:null,&quot;index&quot;:null}" fill="#525200" stroke="none" stroke-width="1.02694" stroke-linecap="butt"/><path d="M159.86996,75.97515c0.57103,0.60947 0.89121,1.41559 0.82554,2.27317c-0.06562,0.85737 -0.50478,1.6054 -1.16192,2.12087c-0.65673,0.51586 -1.53101,0.79905 -2.46643,0.72747c-0.93542,-0.07158 -1.75628,-0.48456 -2.32692,-1.09442c-0.57096,-0.60936 -0.89121,-1.41559 -0.82566,-2.27309c0.06562,-0.85737 0.50489,-1.60547 1.16204,-2.12094c0.65673,-0.51586 1.53101,-0.79905 2.46632,-0.7274c0.93542,0.07158 1.7564,0.48448 2.32703,1.09435z" data-paper-data="{&quot;origPos&quot;:null,&quot;index&quot;:null}" fill="#525200" stroke="none" stroke-width="0.28008" stroke-linecap="butt"/><path d="M246.24046,126.98648l-33.66624,27.72135l-34.66074,-30.54632z" fill="#ffd499" stroke="none" stroke-width="0" stroke-linecap="round"/></g></g></g></svg>