<svg version="1.1" xmlns="http://www.w3.org/2000/svg" xmlns:xlink="http://www.w3.org/1999/xlink" width="337.43147" height="350.36258" viewBox="0,0,337.43147,350.36258"><g transform="translate(-102.54032,-52.73289)"><g data-paper-data="{&quot;isPaintingLayer&quot;:true}" fill-rule="nonzero" stroke-linejoin="miter" stroke-miterlimit="10" stroke-dasharray="" stroke-dashoffset="0" style="mix-blend-mode: normal"><path d="M269.81835,88.8372l-18.80735,-15.02405c0,0 20.60001,-13.5038 34.28653,-16.149c8.72372,-1.68602 13.17785,2.27973 22.04722,2.80865c7.72171,0.46048 20.34277,-1.47894 20.34277,-1.47894c0,0 -5.44603,3.28688 -4.78071,7.81673c0.7984,5.43582 10.325,9.74822 10.325,9.74822c0,0 -7.03068,0.73778 -10.68563,-0.26704c-10.4847,-2.88245 -16.99461,0.57704 -27.84184,1.3353c-9.79136,0.68446 -24.88602,11.21007 -24.88602,11.21007z" data-paper-data="{&quot;origRot&quot;:0}" fill="#9966ff" stroke="#000000" stroke-width="3" stroke-linecap="butt"/><path d="M159.16592,72.38841c-0.43818,-1.31565 3.7284,-4.28719 6.28081,-5.43332c2.17606,-0.84555 4.88037,-1.07126 7.06567,-0.1904c2.55013,1.04508 4.29885,3.392 5.69821,5.8c0.95914,6.29859 -2.42999,2.51155 -4.74155,1.5504c-1.93089,-0.56084 -4.01072,-1.37973 -6.11044,-1.64609c-2.67525,-0.34012 -7.75572,1.20732 -8.19269,-0.08058z" data-paper-data="{&quot;index&quot;:null,&quot;origRot&quot;:0}" id="ID0.5775998127646744" fill="#666600" stroke="#666600" stroke-width="2.23893" stroke-linecap="round"/><g data-paper-data="{&quot;index&quot;:null,&quot;origRot&quot;:0}" id="ID0.09386339038610458" stroke-linecap="round"><path d="M204.27972,372.01901l-8.433,-195.1907l30.13441,-4.547l49.29892,187.41313z" id="ID0.017299960367381573" fill="#006622" stroke="#006622" stroke-width="3.31787"/><path d="M233.7199,240.29423l31.02689,115.26666" id="ID0.031035076826810837" fill="none" stroke="#01902d" stroke-width="10.8155"/><path d="M277.08114,361.90473l-31.84867,4.80578l-1.08382,-7.18227l31.84876,-4.8057z" id="ID0.9768607504665852" fill="#006622" stroke="none" stroke-width="1.30791"/></g><path d="M137.79455,285.10123c-2.66108,3.87912 -6.85512,6.83202 -11.95177,7.9359c-5.09661,1.10386 -10.13669,0.15079 -14.16428,-2.27956c-4.02576,-2.42932 -7.03956,-6.33734 -8.08083,-11.14538c-1.0413,-4.80804 0.08528,-9.6128 2.74513,-13.4901c2.66118,-3.87904 6.85522,-6.83212 11.95177,-7.9359c5.09661,-1.10386 10.13669,-0.15079 14.16428,2.27956c4.02587,2.42923 7.03956,6.33734 8.08083,11.14538c1.04148,4.80804 -0.08528,9.6128 -2.74513,13.4901z" data-paper-data="{&quot;index&quot;:null,&quot;origRot&quot;:0}" id="ID0.07061211299151182" fill="#ffd499" stroke="#000000" stroke-width="2.11469" stroke-linecap="butt"/><path d="M261.41521,86.34076c16.50135,13.4364 28.50428,33.61937 32.08516,57.35039c3.58079,23.73093 -1.93252,46.55692 -13.73449,64.26407c-11.80026,17.70678 -29.88755,30.29461 -51.45294,33.54855c-21.5653,3.25402 -42.56152,-3.43627 -59.06107,-16.87297c-16.50124,-13.4363 -28.50438,-33.61928 -32.08517,-57.35021c-3.58079,-23.73093 1.93252,-46.55692 13.73449,-64.26407c11.80034,-17.70686 29.88755,-30.29461 51.45284,-33.54863c21.56549,-3.25402 42.56152,3.43627 59.06117,16.87287z" data-paper-data="{&quot;index&quot;:null,&quot;origRot&quot;:0}" id="ID0.3367121433839202" fill="#f0c690" stroke="#f0c690" stroke-width="3.8323" stroke-linecap="butt"/><path d="M253.98941,112.05456c14.51744,10.48699 24.92927,26.42524 27.78005,45.31824c2.85088,18.89309 -2.39461,37.19397 -13.17136,51.49755c-10.77502,14.30472 -27.08253,24.6138 -46.35733,27.52223c-19.2749,2.90853 -37.89817,-2.12987 -52.41439,-12.61828c-14.51744,-10.48699 -24.92927,-26.42524 -27.78005,-45.31824c-2.85088,-18.89309 2.39461,-37.19397 13.17127,-51.49746c10.77511,-14.30482 27.08261,-24.6139 46.35744,-27.52233c19.2749,-2.90853 37.89817,2.12987 52.41439,12.61828z" data-paper-data="{&quot;index&quot;:null,&quot;origRot&quot;:0}" id="ID0.05769371194764972" fill="#ffd499" stroke="none" stroke-width="1.03711" stroke-linecap="butt"/><path d="M190.08751,54.08872c0.8994,1.72352 -4.07556,6.47224 -5.93418,9.64422c-1.26339,2.15215 -2.35363,4.52367 -3.38521,6.66163c-0.96417,2.79274 -0.1546,8.80381 -5.27089,2.89038c-1.12382,-3.16247 -1.89629,-6.57627 -0.83095,-9.64934c1.01703,-2.8602 3.51687,-5.11295 6.06752,-6.79471c2.78917,-1.6208 8.56952,-4.20963 9.35372,-2.75218z" data-paper-data="{&quot;index&quot;:null,&quot;origRot&quot;:0}" id="ID0.5775998127646744" fill="#525200" stroke="#525200" stroke-width="2.71167" stroke-linecap="round"/><g data-paper-data="{&quot;index&quot;:null,&quot;origRot&quot;:0}" id="ID0.5728061054833233" fill="none" stroke="#000000" stroke-width="12.6636" stroke-linecap="round"><path d="M251.79264,194.26981l-9.00493,-59.67781" id="ID0.46364903124049306"/><path d="M204.42607,140.48319l9.00493,59.67781" id="ID0.46364903124049306"/></g><path d="M283.69564,106.7271l-151.06255,22.79414l8.12676,-20.6092l11.95436,-18.51322l13.03917,-11.32486l9.5109,-6.78207l12.5532,-5.23609l12.84903,-3.27557l24.4184,0.32569l10.80378,3.18213l5.59323,1.69582l12.16967,6.18422l11.97597,9.55537l9.81755,9.21255z" data-paper-data="{&quot;index&quot;:null,&quot;origRot&quot;:0}" id="ID0.5693852878175676" fill="#666600" stroke="none" stroke-width="1.00499" stroke-linecap="round"/><path d="M268.5479,99.12108c2.84128,-0.42872 5.51716,0.48421 7.72904,1.86945c3.44848,2.14247 7.26175,4.81279 9.93739,8.16391c3.25739,5.21379 5.77634,10.99883 7.46892,16.91927c1.54078,5.40723 5.09684,18.00965 1.19052,17.19817c-7.13296,-2.53557 -14.72519,-17.12624 -23.26898,-23.89241c-2.14908,-1.70353 -5.58748,-0.31716 -7.72923,-1.86946c-2.14156,-1.55228 -3.67732,-3.91116 -4.09892,-6.70555c-0.42178,-2.7944 0.34971,-5.50143 1.93791,-7.61657c1.5883,-2.11505 3.99199,-3.63801 6.83336,-4.06682z" data-paper-data="{&quot;index&quot;:null,&quot;origRot&quot;:0}" id="ID0.16118840454146266" fill="#525200" stroke="none" stroke-width="1.00499" stroke-linecap="round"/><path d="M257.34222,101.96915c2.33804,2.00666 4.04912,5.00616 4.57959,8.52195c0.53046,3.51579 -0.21936,6.88661 -1.86118,9.49381c-1.64048,2.6068 -4.17153,4.44983 -7.20239,4.90719c-3.03085,0.45735 -5.99289,-0.55681 -8.32959,-2.56369c-2.33795,-2.00658 -4.04911,-5.00596 -4.57958,-8.52175c-0.53055,-3.51589 0.21936,-6.88661 1.86118,-9.49381c1.64038,-2.60689 4.17153,-4.44983 7.20239,-4.90719c3.03085,-0.45735 5.99298,0.55671 8.3296,2.56349z" data-paper-data="{&quot;index&quot;:null,&quot;origRot&quot;:0}" id="ID0.839914002455771" fill="#525200" stroke="none" stroke-width="1.00499" stroke-linecap="butt"/><path d="M204.49818,68.6761c1.48253,0.99662 2.53668,2.52354 2.81113,4.34224c0.27444,1.81871 -0.28224,3.58866 -1.40472,4.97822c-1.12161,1.39021 -2.80809,2.39987 -4.79215,2.69919c-1.98416,0.29942 -3.89345,-0.16757 -5.37521,-1.16496c-1.48253,-0.99662 -2.53668,-2.52354 -2.81113,-4.34224c-0.27444,-1.81871 0.28224,-3.58866 1.40472,-4.97822c1.12161,-1.39021 2.80809,-2.39987 4.79215,-2.69919c1.98416,-0.29942 3.89345,0.16757 5.37521,1.16496z" data-paper-data="{&quot;index&quot;:null,&quot;origRot&quot;:0}" id="ID0.2688980521634221" fill="#525200" stroke="none" stroke-width="0.59905" stroke-linecap="butt"/><path d="M240.9809,106.34455c1.71454,1.25316 2.94565,3.15672 3.28559,5.40994c0.34003,2.25332 -0.27452,4.4354 -1.5429,6.13866c-1.26952,1.70479 -3.19144,2.93048 -5.46428,3.2734c-2.27276,0.343 -4.47071,-0.26106 -6.18677,-1.51536c-1.71454,-1.25316 -2.94554,-3.15682 -3.28559,-5.40994c-0.34003,-2.25332 0.27462,-4.4355 1.5429,-6.13866c1.26952,-1.70479 3.19144,-2.93048 5.46428,-3.2734c2.27276,-0.343 4.4708,0.26096 6.18677,1.51536z" data-paper-data="{&quot;index&quot;:null,&quot;origRot&quot;:0}" id="ID0.7480932525359094" fill="#666600" stroke="none" stroke-width="1.00499" stroke-linecap="butt"/><path d="M224.53483,98.4075c2.53223,2.03744 4.37112,5.10183 4.91526,8.70779c0.54413,3.60597 -0.30863,7.07667 -2.127,9.77052c-1.81828,2.69394 -4.60205,4.61242 -7.91723,5.11267c-3.31507,0.50015 -6.54095,-0.51157 -9.07319,-2.54901c-2.53234,-2.03734 -4.37112,-5.10183 -4.91526,-8.70779c-0.54413,-3.60597 0.30872,-7.07658 2.127,-9.77052c1.81837,-2.69383 4.60205,-4.61242 7.91723,-5.11267c3.31507,-0.50015 6.54095,0.51157 9.07319,2.54901z" data-paper-data="{&quot;index&quot;:null,&quot;origRot&quot;:0}" id="ID0.26692162407562137" fill="#666600" stroke="none" stroke-width="1.00499" stroke-linecap="butt"/><path d="M207.39628,114.69365c1.02235,0.87376 1.77021,2.18051 2.00145,3.71367c0.23135,1.53306 -0.09751,3.0024 -0.81657,4.13882c-0.71734,1.13756 -1.82519,1.94096 -3.15181,2.14119c-1.32653,0.20015 -2.62213,-0.24073 -3.64322,-1.11593c-1.02226,-0.87367 -1.77012,-2.18043 -2.00146,-3.71347c-0.23135,-1.53326 0.0976,-3.00249 0.81648,-4.13891c0.71753,-1.13756 1.82528,-1.94105 3.1519,-2.14109c1.32662,-0.20024 2.62212,0.24054 3.64323,1.11574z" data-paper-data="{&quot;index&quot;:null,&quot;origRot&quot;:0}" id="ID0.8134746439754963" fill="#666600" stroke="none" stroke-width="1.00499" stroke-linecap="butt"/><path d="M197.23844,109.53578c2.32913,1.94777 4.02802,4.86615 4.54491,8.29187c0.51698,3.42564 -0.24522,6.71534 -1.89585,9.26374c-1.6496,2.54675 -4.1861,4.3531 -7.21696,4.81045c-3.03085,0.45735 -5.98754,-0.5202 -8.31513,-2.46684c-2.32903,-1.94766 -4.02792,-4.86623 -4.54481,-8.29178c-0.51689,-3.42574 0.24513,-6.71545 1.89585,-9.26374c1.6495,-2.54684 4.1861,-4.35329 7.21704,-4.81053c3.03085,-0.45735 5.98735,0.52021 8.31494,2.46685z" data-paper-data="{&quot;index&quot;:null,&quot;origRot&quot;:0}" id="ID0.7768734325654805" fill="#525200" stroke="none" stroke-width="1.00499" stroke-linecap="butt"/><path d="M180.07831,120.04824c0.90273,0.50012 1.53192,1.28203 1.67479,2.22826c0.14277,0.94633 -0.22773,1.87914 -0.94271,2.6233c-0.71383,0.74263 -1.77099,1.29525 -3.00288,1.48102c-1.23178,0.18588 -2.40487,-0.0301 -3.30605,-0.52908c-0.90281,-0.50002 -1.53212,-1.28202 -1.67479,-2.22826c-0.14277,-0.94633 0.22773,-1.87914 0.94271,-2.6233c0.71383,-0.74263 1.77089,-1.29515 3.00278,-1.48112c1.23187,-0.18577 2.40497,0.03019 3.30615,0.52917z" data-paper-data="{&quot;index&quot;:null,&quot;origRot&quot;:0}" id="ID0.8043623631820083" fill="#666600" stroke="none" stroke-width="1.00499" stroke-linecap="butt"/><path d="M172.89123,118.33771c0.8955,0.60623 1.53287,1.53472 1.69971,2.64013c0.16684,1.1054 -0.16824,2.18061 -0.84505,3.02415c-0.67663,0.84428 -1.69406,1.45668 -2.89173,1.63741c-1.19768,0.18072 -2.35035,-0.10422 -3.24605,-0.71141c-0.89559,-0.60614 -1.53296,-1.53462 -1.6998,-2.64004c-0.16675,-1.1053 0.16834,-2.18052 0.84515,-3.02404c0.67663,-0.84428 1.69396,-1.45678 2.89164,-1.6375c1.19768,-0.18072 2.35045,0.10432 3.24613,0.71131z" data-paper-data="{&quot;index&quot;:null,&quot;origRot&quot;:0}" id="ID0.4881145376712084" fill="#525200" stroke="none" stroke-width="0.70785" stroke-linecap="butt"/><path d="M139.9807,117.9315c1.7047,-1.97642 3.99199,-3.6382 6.83337,-4.06701c2.84137,-0.42862 5.58738,0.31726 7.72913,1.86956c2.14156,1.55228 3.67732,3.91116 4.099,6.70564c0.42168,2.79429 -0.34981,5.50133 -1.938,7.61647c-1.58821,2.11514 -5.28262,1.80498 -6.83336,4.06682c-6.16691,8.98591 -9.11603,25.16709 -15.18312,29.69453c-3.49305,1.928 -3.81375,-11.16266 -3.93717,-16.78382c-0.12977,-6.15617 0.57028,-12.42688 2.14414,-18.36968c1.56785,-3.99146 4.42331,-7.66792 7.08601,-10.73252z" data-paper-data="{&quot;index&quot;:null,&quot;origRot&quot;:0}" id="ID0.16118840454146266" fill="#666600" stroke="none" stroke-width="1.00499" stroke-linecap="round"/><path d="M163.20912,118.99037c2.07989,1.56169 3.57716,3.92633 3.99874,6.72071c0.42178,2.7944 -0.31111,5.49559 -1.83764,7.60132c-1.52511,2.10564 -3.84369,3.61581 -6.59023,4.03026c-2.74655,0.41445 -5.40754,-0.34433 -7.48609,-1.90622c-2.0798,-1.5616 -3.57716,-3.92633 -3.99874,-6.72071c-0.42168,-2.79429 0.3113,-5.4956 1.83764,-7.60132c1.52511,-2.10564 3.84369,-3.61581 6.59034,-4.03016c2.74665,-0.41455 5.40754,0.34433 7.486,1.90612z" data-paper-data="{&quot;index&quot;:null,&quot;origRot&quot;:0}" id="ID0.22436008881777525" fill="#666600" stroke="none" stroke-width="1.00499" stroke-linecap="butt"/><path d="M288.98026,277.07438c-2.66108,3.87912 -6.85512,6.83202 -11.95177,7.9359c-5.09661,1.10386 -10.13669,0.15079 -14.16428,-2.27956c-4.02576,-2.42932 -7.03956,-6.33734 -8.08083,-11.14538c-1.0413,-4.80804 0.08528,-9.6128 2.74513,-13.4901c2.66118,-3.87904 6.85522,-6.83212 11.95177,-7.9359c5.09661,-1.10386 10.13669,-0.15079 14.16428,2.27956c4.02587,2.42923 7.03956,6.33734 8.08083,11.14538c1.04148,4.80804 -0.08528,9.6128 -2.74513,13.4901z" data-paper-data="{&quot;index&quot;:null,&quot;origRot&quot;:0}" id="ID0.07061211299151182" fill="#ffd499" stroke="#000000" stroke-width="2.11469" stroke-linecap="butt"/><path d="M230.08001,74.42576c2.54145,1.70828 4.34865,4.32587 4.81915,7.44355c0.47042,3.11778 -0.48398,6.15218 -2.40819,8.53421c-1.92267,2.38316 -4.81386,4.11405 -8.21509,4.62728c-3.40133,0.51313 -6.67448,-0.28753 -9.21471,-1.99724c-2.54145,-1.70828 -4.34865,-4.32587 -4.81906,-7.44365c-0.47042,-3.11778 0.48389,-6.15208 2.40809,-8.53411c1.92267,-2.38336 4.81386,-4.11405 8.21509,-4.62728c3.40133,-0.51332 6.67448,0.28732 9.21471,1.99724z" data-paper-data="{&quot;index&quot;:null,&quot;origRot&quot;:0}" id="ID0.2688980521634221" fill="#525200" stroke="none" stroke-width="1.02694" stroke-linecap="butt"/><path d="M156.76945,107.89036c2.54145,1.70828 4.34865,4.32587 4.81915,7.44355c0.47042,3.11778 -0.48398,6.15218 -2.40819,8.53421c-1.92267,2.38316 -4.81386,4.11405 -8.21509,4.62728c-3.40133,0.51313 -6.67448,-0.28753 -9.21471,-1.99724c-2.54145,-1.70828 -4.34865,-4.32587 -4.81906,-7.44365c-0.47042,-3.11778 0.48389,-6.15208 2.40809,-8.53411c1.92267,-2.38336 4.81386,-4.11405 8.21509,-4.62728c3.40133,-0.51332 6.67448,0.28732 9.21471,1.99724z" data-paper-data="{&quot;index&quot;:null,&quot;origRot&quot;:0}" id="ID0.2688980521634221" fill="#525200" stroke="none" stroke-width="1.02694" stroke-linecap="butt"/><path d="M161.7818,97.60703c0.69315,0.46591 1.18594,1.1797 1.31425,2.03016c0.12831,0.85025 -0.13194,1.67771 -0.65676,2.3274c-0.52433,0.64998 -1.31285,1.12201 -2.2405,1.26201c-0.92765,0.14 -1.82021,-0.0784 -2.51307,-0.54477c-0.69306,-0.46581 -1.18594,-1.1797 -1.31434,-2.03006c-0.12831,-0.85025 0.13203,-1.67781 0.65685,-2.3275c0.52433,-0.64998 1.31285,-1.12201 2.2404,-1.26192c0.92765,-0.14 1.82031,0.0783 2.51317,0.54467z" data-paper-data="{&quot;index&quot;:null,&quot;origRot&quot;:0}" id="ID0.2688980521634221" fill="#525200" stroke="none" stroke-width="0.28008" stroke-linecap="butt"/><g data-paper-data="{&quot;origRot&quot;:0}" id="ID0.8685846459120512" stroke-linecap="butt"><path d="M372.3497,296.56199c2.35826,-3.78174 5.11917,-5.91318 7.72123,-5.49549c2.60194,0.41775 4.557,3.30628 5.61308,7.6361c1.05738,4.32883 1.21481,10.09855 0.22254,16.27879c-0.99209,6.18028 -2.94755,11.61086 -5.30674,15.3911c-2.35832,3.78162 -5.11917,5.91318 -7.72123,5.49549c-2.60206,-0.41769 -4.55706,-3.3064 -5.61308,-7.6361c-1.0575,-4.32877 -1.21481,-10.09855 -0.22273,-16.27884c0.99227,-6.18022 2.94761,-11.61073 5.30693,-15.39104z" id="ID0.19497378217056394" fill="#c90101" stroke="#000000" stroke-width="3.54063"/><path d="M373.33587,305.17988c1.93117,-2.73747 4.23601,-4.25453 6.45292,-3.8987c2.21679,0.35589 3.93089,2.51818 4.9083,5.72261c0.97838,3.20454 1.21957,7.45253 0.49249,11.98139c-0.72691,4.52891 -2.28584,8.48786 -4.21805,11.22511c-1.93117,2.73747 -4.23613,4.25459 -6.45292,3.8987c-2.21679,-0.35589 -3.93101,-2.51812 -4.9083,-5.72261c-0.97838,-3.20454 -1.21969,-7.45247 -0.4926,-11.98132c0.72703,-4.52897 2.28584,-8.48786 4.21817,-11.22517z" id="ID0.13423143420368433" fill="#ff0202" stroke="none" stroke-width="0.93464"/><path d="M372.21628,295.87055c2.35826,-3.78174 5.11917,-5.91318 7.72123,-5.49549c2.60194,0.41775 4.557,3.30628 5.61308,7.6361c1.05738,4.32883 1.21481,10.09855 0.22254,16.27879c-0.99209,6.18028 -2.94755,11.61086 -5.30674,15.3911c-2.35832,3.78162 -5.11917,5.91318 -7.72123,5.49549c-2.60206,-0.41769 -4.55706,-3.3064 -5.61308,-7.6361c-1.0575,-4.32877 -1.21481,-10.09855 -0.22273,-16.27884c0.99227,-6.18022 2.94761,-11.61073 5.30693,-15.39104z" id="ID0.19497378217056394" fill="none" stroke="#000000" stroke-width="3.54063"/></g><g id="ID0.8721039635129273" stroke-linecap="butt"><path d="M224.1989,386.78452c4.1145,1.71286 6.66598,4.09101 6.67637,6.72636c0.01031,2.63524 -2.5224,5.03341 -6.62326,6.77858c-4.09967,1.74629 -9.76725,2.83855 -16.02659,2.86304c-6.25935,0.02467 -11.93539,-1.02299 -16.04856,-2.73701c-4.11439,-1.71294 -6.66598,-4.09101 -6.67637,-6.72636c-0.01039,-2.63535 2.52251,-5.03349 6.62326,-6.77858c4.09959,-1.7464 9.76725,-2.83855 16.02661,-2.86323c6.25932,-0.02448 11.93528,1.02307 16.04853,2.7372z" id="ID0.19497378217056394" fill="#c90101" stroke="#000000" stroke-width="3.54063"/><path d="M215.85553,389.15702c3.01473,1.46101 4.88593,3.48891 4.89482,5.73418c0.00881,2.24516 -1.84644,4.28763 -4.84962,5.77243c-3.00313,1.48577 -7.15557,2.41357 -11.74239,2.43156c-4.58684,0.01817 -8.74639,-0.87719 -11.76107,-2.33926c-3.01473,-1.46101 -4.88601,-3.48902 -4.89482,-5.73418c-0.00881,-2.24516 1.84636,-4.28774 4.84962,-5.77243c3.00313,-1.48577 7.15549,-2.41368 11.7423,-2.43166c4.58692,-0.01806 8.74639,0.87719 11.76115,2.33937z" id="ID0.13423143420368433" fill="#ff0202" stroke="none" stroke-width="0.93464"/><path d="M224.03722,386.9062c4.1145,1.71286 6.66598,4.09101 6.67637,6.72636c0.01031,2.63524 -2.5224,5.03341 -6.62326,6.77858c-4.09967,1.74629 -9.76725,2.83855 -16.02659,2.86304c-6.25935,0.02467 -11.93539,-1.02299 -16.04856,-2.73701c-4.11439,-1.71294 -6.66598,-4.09101 -6.67637,-6.72636c-0.01039,-2.63535 2.52251,-5.03349 6.62326,-6.77858c4.09959,-1.7464 9.76725,-2.83855 16.02661,-2.86323c6.25932,-0.02448 11.93528,1.02307 16.04853,2.7372z" id="ID0.19497378217056394" fill="none" stroke="#000000" stroke-width="3.54063"/></g><path d="M128.32459,138.67049c0,0 -0.83084,-5.68895 -0.15966,-9.25354c0.5818,-3.08988 3.45305,-4.65293 2.99614,-7.76372c-1.0978,-7.47427 5.32842,-16.19751 5.32842,-16.19751l137.5455,-20.20223c0,0 7.3798,5.84235 8.34453,12.41066c0.53745,3.6592 5.70828,3.12055 7.71771,6.22551c2.21131,3.41701 0.89888,12.07399 0.89888,12.07399z" data-paper-data="{&quot;origRot&quot;:0}" fill="#9966ff" stroke="#000000" stroke-width="3" stroke-linecap="butt"/><path d="M139.87162,112.83222l48.33773,-7.09968" data-paper-data="{&quot;origRot&quot;:0}" fill="none" stroke="#d2bcff" stroke-width="7.5" stroke-linecap="round"/><path d="M162.18303,143.88628l-0.68453,-4.66056l107.19278,-15.74413l0.68453,4.66056l-41.59251,28.01002z" data-paper-data="{&quot;origRot&quot;:0}" fill="#ffd499" stroke="none" stroke-width="0" stroke-linecap="butt"/><path d="M392.86618,187.39909c-0.01345,0.11052 -0.02574,0.22074 -0.0369,0.33068l0.26859,0.10122c0,1.43855 0.11273,2.87889 -0.20863,4.27897c0.19483,1.81508 0.5456,3.6384 0.8373,5.58306c0.38267,2.55114 0.50843,5.10626 2.11233,7.25378c2.0093,2.69034 6.46093,4.34114 9.34012,5.86005c2.43692,1.28559 5.2618,0.93852 7.99026,1.32949c1.22428,0.17543 2.41176,0.62661 3.64735,0.68088c2.07814,0.09128 4.48448,-0.51577 6.56889,-0.72201c3.34539,-0.33101 6.09236,-0.51215 8.97276,-1.98521c0.11747,-0.15243 0.24114,-0.29984 0.37298,-0.44048c0.29564,-0.31539 0.7792,-0.75836 1.16658,-0.56652l1.1337,-0.55055c0.24268,-0.12433 0.5177,-0.19448 0.80911,-0.19448c0.98137,0 1.77693,0.79556 1.77693,1.77693c0,0.66002 -0.35984,1.23599 -0.89404,1.54242l-2.48265,1.48251c0.0334,0.16343 0.10985,0.34345 0.06127,0.49211c-0.18401,0.563 -0.52978,1.05956 -0.79467,1.58934c-1.32795,2.65589 -2.8342,5.75647 -3.43758,8.67073c-0.53624,2.59 -0.26644,5.70973 -0.42487,8.3674c-0.12359,2.0732 -1.17723,6.91341 0.65356,8.47091c1.44801,2.17201 4.29753,4.54051 6.83395,5.6749l0.00416,-0.0102l1.69217,0.69156c0.66829,0.25531 1.14293,0.90247 1.14293,1.66049c0,0.98137 -0.79556,1.77693 -1.77693,1.77693h-1.00444c-0.48183,0.61495 -1.56246,0 -2.34369,0c-2.63153,0 -5.44505,0.6655 -8.01447,1.24281c-5.22095,1.17306 -9.57493,2.8445 -14.07975,5.67701c-1.90789,1.19963 -3.96221,2.19411 -5.55581,3.79573c-1.71904,1.6304 -3.43809,3.2608 -5.15713,4.89119c-0.74224,0.70396 -2.21032,1.75341 -2.79954,2.65518c-2.97834,4.55817 -4.10048,9.93735 -4.13326,15.2988v1.49185c0,0.98137 -0.79556,1.77693 -1.77693,1.77693c-0.62657,0 -1.17739,-0.3243 -1.49378,-0.8142l-0.65434,-0.98151c-1.01017,-0.22496 -1.10105,-1.75334 -1.61555,-2.65131c-1.46108,-2.5501 -2.70678,-5.49701 -4.47541,-7.83197c-3.50037,-4.62123 -7.84798,-8.64608 -12.49381,-12.0521c-2.7527,-2.0181 -5.39604,-4.18227 -8.12421,-6.23357c-1.27128,-0.95587 -2.81025,-2.56368 -4.26054,-3.20393c-0.84593,-0.37345 -1.84531,-0.1621 -2.75394,-0.33373c-4.8089,-0.90833 -8.91565,-0.85046 -13.63449,0.32925l-0.91597,0.229c-0.14959,0.04089 -0.30706,0.06272 -0.46963,0.06272c-0.98137,0 -1.77693,-0.79556 -1.77693,-1.77693c0,-0.62657 0.3243,-1.1774 0.8142,-1.49379l0.98151,-0.65434c0.0468,-0.35886 0.56723,-0.41113 0.90051,-0.60034c0.03729,-0.02118 0.07225,-0.04406 0.10393,-0.06929c0.40313,-0.32096 0.72658,-0.73167 1.06844,-1.11724c2.04769,-2.30952 4.04714,-4.75854 5.90183,-7.22724c3.41457,-4.54497 5.77032,-10.09265 6.90968,-15.71404c0.15839,-0.7469 0.8699,-2.75365 0.76886,-3.62559c-0.16934,-1.46137 -1.0667,-3.04058 -1.32486,-4.55742c-0.39467,-2.31897 -0.21506,-5.07544 -1.30112,-7.23496c-0.96422,-1.91726 -3.02055,-3.42488 -4.51017,-4.91449c-0.3624,-0.3624 -1.15836,-0.57966 -1.08722,-1.08721c0.54946,-3.91961 2.12314,-3.70314 4.83172,-3.27704c3.40308,1.13436 7.53949,1.99922 11.15656,1.58288c0.85883,-0.09885 2.53208,-0.85395 3.30179,-1.04754c5.00766,-1.25946 9.61833,-3.27854 14.23356,-5.58618c1.71491,-0.85745 2.99414,-2.04768 4.58113,-3.11226c0.2492,-0.16717 0.81416,-0.52649 1.29541,-0.91598c-0.15149,-1.96129 -0.1207,-3.92841 0.29152,-5.98954c0,0 0.34848,-1.74243 2.09091,-1.39394c1.74243,0.34849 1.39394,2.09091 1.39394,2.09091c-0.02406,0.12032 -0.04662,0.2402 -0.06773,0.35967l0.10223,-0.03853c0,0 0,0.45692 -0.2317,0.90736zM389.78217,195.45705c-1.62038,1.0952 -3.00883,2.32625 -4.78237,3.21302c-5.86843,2.93418 -12.5293,6.14185 -19.12469,7.00891c-3.13449,0.41207 -6.9522,-0.22721 -10.22228,-1.13664c0.85265,0.84247 1.67514,1.70282 2.326,2.72662c1.80163,2.83395 1.7164,5.71209 2.25426,8.92504c0.34768,2.07688 1.20318,4.0294 1.35365,6.15662c0.067,0.94721 -0.59089,2.78636 -0.76887,3.62559c-0.65905,3.00406 -1.94903,5.61079 -2.97191,8.47824c-0.65741,1.84291 -0.36541,1.98447 -1.23893,3.96178c-1.27218,2.87969 -4.07008,5.58485 -6.04649,8.02685c-0.7272,0.89851 -1.44181,1.82665 -2.18768,2.72533c4.72904,-0.5395 9.7757,-0.25783 13.9753,1.59614c1.45013,0.64018 2.98953,2.248 4.26054,3.20393c2.71635,2.04298 5.3485,4.19827 8.08951,6.20781c6.03026,4.421 11.54447,9.77104 15.27508,16.2996c0.62497,1.0937 1.25089,2.18687 1.87576,3.28062c0.58995,-4.81105 2.10515,-9.37901 4.94539,-13.52915c1.92071,-2.80654 5.48715,-5.20421 7.95668,-7.54638c6.37876,-5.82577 14.78751,-9.18017 23.19369,-10.70857c1.29365,-0.23521 2.58483,-0.51831 3.88405,-0.72003c-1.76695,-1.30313 -3.3642,-2.84613 -4.48726,-4.53072c-1.91507,-3.40331 -1.46873,-6.88615 -1.24413,-10.65372c0.18118,-3.03921 0.01497,-6.38757 0.63254,-9.37043c0.34321,-1.65766 1.23758,-3.41881 1.82176,-5.00985c0.34247,-0.93272 0.71677,-1.88876 1.13354,-2.82636c-5.4463,1.52714 -11.66434,1.55693 -16.86459,0.81177c-3.18323,-0.45614 -6.39897,-0.19254 -9.29994,-1.72294c-3.74753,-1.977 -8.23221,-3.91933 -10.86057,-7.41399c-1.81062,-2.4074 -2.02037,-5.46371 -2.4482,-8.31593c-0.14066,-0.93771 -0.29019,-1.85599 -0.42983,-2.76315z" fill="#ffffff" stroke="none" stroke-width="0.5" stroke-linecap="butt"/></g></g></svg>