<svg version="1.1" xmlns="http://www.w3.org/2000/svg" xmlns:xlink="http://www.w3.org/1999/xlink" width="492.05038" height="321.96454" viewBox="0,0,492.05038,321.96454"><defs><linearGradient x1="317.96544" y1="148.74132" x2="249.8038" y2="175.54587" gradientUnits="userSpaceOnUse" id="color-1"><stop offset="0" stop-color="#fde6d9"/><stop offset="1" stop-color="#f7d9c8"/></linearGradient><linearGradient x1="549.00827" y1="54.2303" x2="66.96596" y2="243.79332" gradientUnits="userSpaceOnUse" id="color-2"><stop offset="0" stop-color="#000000"/><stop offset="1" stop-color="#000000" stop-opacity="0"/></linearGradient><linearGradient x1="254.76057" y1="166.61958" x2="237.08725" y2="170.5012" gradientUnits="userSpaceOnUse" id="color-3"><stop offset="0" stop-color="#f7dac9"/><stop offset="1" stop-color="#fde6d9"/></linearGradient><linearGradient x1="395.44022" y1="141.98142" x2="365.47831" y2="161.74144" gradientUnits="userSpaceOnUse" id="color-4"><stop offset="0" stop-color="#d2a991"/><stop offset="1" stop-color="#fde6d9"/></linearGradient><linearGradient x1="436.18387" y1="118.71808" x2="380.82693" y2="165.09" gradientUnits="userSpaceOnUse" id="color-5"><stop offset="0" stop-color="#f7d9c8"/><stop offset="1" stop-color="#fde6d9"/></linearGradient><linearGradient x1="1728.56633" y1="-943.46782" x2="-594.85386" y2="1002.83598" gradientUnits="userSpaceOnUse" id="color-6"><stop offset="0" stop-color="#2a221e"/><stop offset="1" stop-color="#2a221e" stop-opacity="0"/></linearGradient><radialGradient cx="384.7499" cy="138.50542" r="7.94614" gradientUnits="userSpaceOnUse" id="color-7"><stop offset="0" stop-color="#fbe2d4"/><stop offset="1" stop-color="#f6d8c8"/></radialGradient><radialGradient cx="404.74304" cy="175.86695" r="9.34604" gradientUnits="userSpaceOnUse" id="color-8"><stop offset="0" stop-color="#ffffff"/><stop offset="1" stop-color="#e7e7e7"/></radialGradient><linearGradient x1="343.4647" y1="197.71006" x2="355.49398" y2="269.9582" gradientUnits="userSpaceOnUse" id="color-9"><stop offset="0" stop-color="#fde6d9"/><stop offset="1" stop-color="#f7d9c8"/></linearGradient><linearGradient x1="299.11641" y1="-47.94487" x2="384.18807" y2="462.99715" gradientUnits="userSpaceOnUse" id="color-10"><stop offset="0" stop-color="#000000"/><stop offset="1" stop-color="#000000" stop-opacity="0"/></linearGradient><linearGradient x1="447.82097" y1="309.37687" x2="444.80756" y2="319.3056" gradientUnits="userSpaceOnUse" id="color-11"><stop offset="0" stop-color="#bbdaff" stop-opacity="0"/><stop offset="1" stop-color="#bbdaff"/></linearGradient><linearGradient x1="441.62773" y1="325.98608" x2="445.07824" y2="314.61714" gradientUnits="userSpaceOnUse" id="color-12"><stop offset="0" stop-color="#bbdaff" stop-opacity="0"/><stop offset="1" stop-color="#bbdaff"/></linearGradient><linearGradient x1="450.89369" y1="306.85511" x2="445.92226" y2="324.57983" gradientUnits="userSpaceOnUse" id="color-13"><stop offset="0" stop-color="#005eff"/><stop offset="1" stop-color="#005eff" stop-opacity="0"/></linearGradient><linearGradient x1="450.89369" y1="306.85511" x2="445.92226" y2="324.57983" gradientUnits="userSpaceOnUse" id="color-14"><stop offset="0" stop-color="#00f7ff" stop-opacity="0"/><stop offset="1" stop-color="#00f7ff"/></linearGradient><linearGradient x1="336.10825" y1="284.41808" x2="349.23573" y2="284.22455" gradientUnits="userSpaceOnUse" id="color-15"><stop offset="0" stop-color="#f7dac9"/><stop offset="1" stop-color="#fde6d9"/></linearGradient><linearGradient x1="334.93096" y1="292.34085" x2="342.89303" y2="294.6196" gradientUnits="userSpaceOnUse" id="color-16"><stop offset="0" stop-color="#f7dac9"/><stop offset="1" stop-color="#fde6d9"/></linearGradient><linearGradient x1="351.39661" y1="264.59597" x2="346.64102" y2="282.05441" gradientUnits="userSpaceOnUse" id="color-17"><stop offset="0" stop-color="#f7dac9"/><stop offset="1" stop-color="#fde6d9"/></linearGradient></defs><g transform="translate(-42.14427,-104.74932)"><g data-paper-data="{&quot;isPaintingLayer&quot;:true}" fill-rule="nonzero" stroke-linejoin="miter" stroke-miterlimit="10" stroke-dasharray="" stroke-dashoffset="0" style="mix-blend-mode: normal"><g stroke="none" stroke-width="0" stroke-linecap="butt"><path d="M250.76452,163.64964l8.36655,-3.29013l4.76289,12.11161l-8.32555,2.83063c0,0 -2.48432,-0.13863 -3.32092,-2.266c-0.55363,-1.40785 -1.48296,-9.38604 -1.48296,-9.38604z" data-paper-data="{&quot;origPos&quot;:null}" fill="#000000"/><path d="M281.01146,167.76048c-11.05483,2.68594 -19.40265,5.91117 -28.61039,5.37884c-4.92852,-0.28496 -5.96373,-3.18924 -2.3381,-6.55174c6.96037,-6.4552 18.45388,-9.98758 28.42158,-13.37334c8.93774,-3.03591 9.99105,-6.51545 28.2023,-11.78006c11.61788,-3.7315 17.58248,19.33593 5.75498,22.31402c-11.82747,2.9781 -20.37552,1.32634 -31.43033,4.01227z" data-paper-data="{&quot;origPos&quot;:null}" fill="url(#color-1)"/><g data-paper-data="{&quot;origPos&quot;:null}"><path d="M252.77409,163.57809l6.32204,-3.25379l4.97861,12.09633l-9.54723,3.03944c0,0 2.20334,-3.21825 1.42005,-6.20353z" data-paper-data="{&quot;origPos&quot;:null}" fill="url(#color-2)"/><path d="M254.96261,161.81879c0,0 35.58368,-16.84486 49.72894,-19.90986c8.62454,-1.86877 11.45762,-1.51597 13.7231,6.78007c2.37524,7.79071 -0.24329,12.70017 -5.58981,15.38493c-5.34654,2.68476 -57.85678,10.89715 -57.85678,10.89715c0,0 4.9249,-2.42761 4.07213,-5.80705c-0.90518,-3.58693 -4.07755,-7.34521 -4.07755,-7.34521z" data-paper-data="{&quot;origPos&quot;:null,&quot;origRot&quot;:0}" fill="#1e4994"/></g></g><g data-paper-data="{&quot;origRot&quot;:0}" stroke="none" stroke-width="0" stroke-linecap="butt"><path d="M359.39611,164.19957c-9.26597,3.77496 -11.40895,1.16977 -21.4211,0.80799c-23.83998,-0.86145 -22.96811,-1.12302 -31.03766,-3.21059c-9.81114,-2.53811 -5.40684,-21.87748 4.76499,-21.50324c5.6132,0.20652 18.63044,-1.4781 24.24244,-1.24843c19.2109,0.78621 32.05222,8.23904 35.19743,14.99094c3.31637,7.11934 -7.00682,8.23254 -11.74613,10.16336z" data-paper-data="{&quot;origPos&quot;:null,&quot;origRot&quot;:0}" fill="#2152a6"/><path d="M370.4559,151.9339c-5.92766,1.26547 -12.69769,3.13164 -17.59731,2.93196c-16.92955,-0.68997 -33.84191,-1.65579 -50.75184,-2.66211c0.46238,-5.85278 4.39387,-12.09029 10.21287,-11.87619c5.6132,0.20652 18.63044,-1.4781 24.24245,-1.24842c17.19875,0.70386 29.29237,6.75098 33.89388,12.85477z" data-paper-data="{&quot;origPos&quot;:null,&quot;origRot&quot;:0}" fill="#000000"/></g><g stroke="none" stroke-width="0" stroke-linecap="butt"><g data-paper-data="{&quot;origPos&quot;:null,&quot;origRot&quot;:0}" fill="#fde6d9"><path d="M241.51904,172.37072c0.8944,-0.52045 1.73852,1.91895 1.73852,1.91895c0.35068,1.1565 0.61832,2.06845 -0.52848,2.44974c-1.19236,0.39648 -3.14593,0.96642 -4.39309,1.34459c-2.7503,0.83398 -4.58779,0.71091 -5.03815,-0.77428c-0.45035,-1.48516 0.42836,-2.43186 3.17867,-3.26584c2.7503,-0.83398 3.20761,-0.60542 5.04255,-1.67321z" data-paper-data="{&quot;origPos&quot;:null}"/><path d="M234.74971,174.85116c0.82107,-0.12394 1.16879,1.53706 1.16879,1.53706c0.25776,0.85008 0.82467,1.81349 -0.06544,2.15874c-0.99365,0.3854 -3.31306,0.70549 -4.33297,1.01477c-2.23003,0.67623 -5.02442,1.43878 -5.30214,0.40241c-0.48228,-1.79969 1.44459,-3.41975 3.67462,-4.09596c2.23003,-0.67623 3.57689,-0.82373 4.85715,-1.01699z" data-paper-data="{&quot;origPos&quot;:null}"/></g><g data-paper-data="{&quot;origPos&quot;:null,&quot;origRot&quot;:0}" fill="#ead0c0"><path d="M240.26368,162.79864c0.78587,0.37723 0.43127,1.76441 0.43127,1.76441c-0.12909,1.76141 -1.09539,9.85495 -2.09682,8.53242c-1.45614,-1.923 -4.33033,-5.46874 -6.15788,-5.54921c-1.05382,-0.04643 -1.99975,-0.63908 -3.05529,-0.65787c-1.75621,-0.03129 -2.87207,-0.69121 -2.7524,-2.61569c0.13351,-2.14708 0.75069,-1.8311 2.59256,-2.35169c0.59559,-0.16833 3.01667,-0.27706 3.62369,-0.25033c4.43607,0.1954 5.1076,0.02042 7.41487,1.12798z" data-paper-data="{&quot;origRot&quot;:0,&quot;origPos&quot;:null}"/><path d="M226.9644,162.72012c0.57125,-0.41393 1.7222,0.32756 1.7222,0.32756c1.55546,0.71745 3.31476,1.08081 1.85504,2.72905c-1.10031,1.24242 -1.67666,2.5366 -2.28443,3.78301c-0.21994,0.45102 -0.63033,1.73496 -0.79485,2.21136c-0.49047,1.42009 -1.73931,1.2947 -3.24939,0.45121c-1.18933,-0.66431 -1.91451,-1.70517 -0.43927,-4.73061c1.47523,-3.02544 1.5135,-3.55631 3.19069,-4.77158z" data-paper-data="{&quot;origRot&quot;:0,&quot;origPos&quot;:null}"/><path d="M223.60504,168.37474c0.36253,-0.52629 1.75436,-0.3699 1.75436,-0.3699c1.76151,-0.00846 1.9328,0.43995 2.24266,1.44389c0.35707,1.15691 0.02557,2.5596 -0.2323,4.38233c-0.25789,1.82272 -1.96205,2.67535 -2.80891,2.448c-0.79162,-0.2125 -1.88135,-0.0944 -1.76657,-2.96459c0.11476,-2.8702 -0.25352,-3.39456 0.81081,-4.93975z" data-paper-data="{&quot;origRot&quot;:0,&quot;origPos&quot;:null}"/></g><g data-paper-data="{&quot;origPos&quot;:null,&quot;origRot&quot;:0}" fill="#efd6c8"><path d="M241.90172,163.10299c0.91216,0.32251 0.66274,1.73298 0.66274,1.73298c0.04001,1.76875 -2.09498,9.18939 -3.34506,7.93739c-1.8176,-1.8205 -3.47495,-4.43141 -5.51326,-4.38529c-1.17536,0.0266 -2.28778,-0.50004 -3.46218,-0.44575c-1.95399,0.09035 -3.26213,-0.49175 -3.32957,-2.42277c-0.07527,-2.15442 0.6432,-1.88144 2.63483,-2.52908c0.644,-0.20942 3.32193,-0.48569 3.99895,-0.501c4.94771,-0.11192 5.67541,-0.33326 8.35351,0.61356z" data-paper-data="{&quot;origRot&quot;:0,&quot;origPos&quot;:null}"/><path d="M228.27182,163.38132c0.746,-0.22912 1.54043,0.95117 1.54043,0.95117c1.20166,1.29845 2.76234,2.30005 0.59049,3.5009c-1.6371,0.90517 -2.784,2.04984 -3.94019,3.13355c-0.41836,0.39215 -1.39806,1.58488 -1.77354,2.02305c-1.11937,1.30627 -2.28684,0.73341 -3.38735,-0.68031c-0.86673,-1.11344 -1.1093,-2.45491 1.69718,-5.08547c2.80646,-2.63056 3.08276,-3.17026 5.27299,-3.84288z" data-paper-data="{&quot;origRot&quot;:0,&quot;origPos&quot;:null}"/><path d="M221.25165,169.47118c0.25971,-0.66331 1.67205,-0.68747 1.67205,-0.68747c1.74809,-0.26974 2.00376,0.22457 2.50308,1.3421c0.57539,1.28782 0.5137,2.96204 0.60529,5.11207c0.09157,2.15005 -1.38356,4.12957 -2.26813,3.99112c-0.82683,-0.1294 -1.94171,-0.57189 -2.37528,-3.91452c-0.43358,-3.34261 -0.89942,-3.89583 -0.13698,-5.84333z" data-paper-data="{&quot;origRot&quot;:0,&quot;origPos&quot;:null}"/></g><g data-paper-data="{&quot;origPos&quot;:null,&quot;origRot&quot;:0}" fill="#f6ded1"><path d="M242.02729,163.71686c0.89382,0.37036 0.57008,1.76565 0.57008,1.76565c-0.05369,1.76842 -2.57866,9.06555 -3.76066,7.74911c-1.71865,-1.91417 -3.23542,-4.6092 -5.27333,-4.67108c-1.17511,-0.03568 -2.25809,-0.62047 -3.43368,-0.62844c-1.95603,-0.01324 -3.2315,-0.66379 -3.19661,-2.5957c0.03892,-2.15537 0.74193,-1.84473 2.76503,-2.386c0.65421,-0.17503 3.34299,-0.30911 4.0199,-0.28855c4.94669,0.15025 5.68509,-0.03226 8.30931,1.05506z" data-paper-data="{&quot;origRot&quot;:0,&quot;origPos&quot;:null}"/><path d="M228.43976,163.24714c0.77487,-0.09269 1.34657,1.21011 1.34657,1.21011c0.95143,1.49157 2.30895,2.75491 -0.04195,3.55009c-1.77205,0.5994 -3.10437,1.52166 -4.43493,2.38234c-0.48145,0.31145 -1.65781,1.31081 -2.10527,1.67516c-1.33398,1.08619 -2.38082,0.31475 -3.21219,-1.27224c-0.65479,-1.24991 -0.65475,-2.61311 2.57508,-4.70225c3.22981,-2.08916 3.59772,-2.57109 5.8727,-2.84321z" data-paper-data="{&quot;origRot&quot;:0,&quot;origPos&quot;:null}"/><path d="M220.08966,168.53231c0.42963,-0.56818 1.79574,-0.20888 1.79574,-0.20888c1.75581,0.21383 1.86803,0.75887 2.04602,1.96988c0.20507,1.39554 -0.30777,2.99046 -0.80198,5.08495c-0.49418,2.09449 -2.49653,3.9065 -3.31052,3.53368c-0.76089,-0.34853 -1.66806,-1.38249 -1.18008,-4.71758c0.48798,-3.33513 0.18939,-3.99385 1.45081,-5.662z" data-paper-data="{&quot;origRot&quot;:0,&quot;origPos&quot;:null}"/></g><g data-paper-data="{&quot;origPos&quot;:null,&quot;origRot&quot;:0}" fill="#fde6d9"><path d="M238.55112,162.27696c0.96598,0.05418 1.12147,1.47809 1.12147,1.47809c0.53366,1.68682 0.56181,9.40841 -0.9888,8.5565c-3.5172,-1.93239 -8.20745,-2.79711 -9.96911,-2.1247c-1.85053,0.63383 -2.74531,-0.07004 -3.35075,-1.90495c-0.67549,-2.04716 -0.12502,-2.37338 1.76438,-3.12025c0.62978,-0.24897 2.58598,-0.93051 3.23168,-1.13477c4.71844,-1.49276 5.35509,-1.90902 8.19117,-1.74994z" data-paper-data="{&quot;origRot&quot;:0,&quot;origPos&quot;:null}"/><path d="M228.4055,164.90381c0.77136,-0.1184 1.38607,1.16464 1.38607,1.16464c1.00053,1.45909 2.39932,2.67658 0.07619,3.54954c-1.75111,0.65802 -3.05201,1.62411 -4.35323,2.52858c-0.47085,0.32729 -1.61327,1.36523 -2.04835,1.74429c-1.2971,1.13001 -2.36904,0.39379 -3.25275,-1.16466c-0.69601,-1.22742 -0.74132,-2.58987 2.41718,-4.78534c3.15851,-2.19545 3.51018,-2.68935 5.77485,-3.037z" data-paper-data="{&quot;origRot&quot;:0,&quot;origPos&quot;:null}"/><path d="M221.76586,169.42141c0.66348,-0.25928 1.63947,0.76188 1.63947,0.76188c1.38419,1.10118 1.19456,1.62436 0.71238,2.74939c-0.55568,1.29646 -1.82741,2.38707 -3.34472,3.91312c-1.51733,1.52604 -4.66715,2.34041 -5.1656,1.59668c-0.46594,-0.69521 -0.2025,-2.36937 1.95885,-4.95579c2.16137,-2.58642 2.2517,-3.30401 4.19963,-4.06522z" data-paper-data="{&quot;origRot&quot;:0,&quot;origPos&quot;:null}"/></g><path d="M239.59217,162.08271c7.40451,0.61141 14.658,0.93033 15.16723,3.24896c0.37849,1.72327 2.6185,6.51614 -1.34144,7.26888c-3.38261,0.643 -10.82222,4.70998 -14.18524,5.4486c0,0 -6.13659,-16.50284 0.35945,-15.96645z" data-paper-data="{&quot;origRot&quot;:0,&quot;origPos&quot;:null}" fill="url(#color-3)"/></g><path d="M300.38544,302.15682c2.26094,6.63473 1.96726,10.1515 3.51305,16.76469c1.2282,5.25446 1.93067,10.12448 3.31943,15.33665c2.67438,10.03729 5.1017,13.18466 8.06654,27.80981c0.32245,1.59064 7.38113,17.7536 11.16138,30.62836c2.03791,4.07862 -21.37597,5.49277 -21.37597,5.49277c0,0 -10.70933,-21.93454 -19.37404,-36.51516c-3.75786,-6.32354 -8.67712,-21.11013 -10.81834,-29.47665c-2.41973,-9.45451 -2.56624,-16.49219 2.90638,-24.99619c4.33568,-6.73728 5.9549,-10.14271 12.49876,-11.6032c6.54387,-1.46049 7.84186,-0.07584 10.1028,6.55888z" fill="#252525" stroke="none" stroke-width="0" stroke-linecap="butt"/><path d="M244.91145,224.52674c0,0 9.49949,5.3757 11.77033,8.33871c8.80069,11.48302 28.08024,42.64423 35.32154,56.30984c0.37798,0.71328 5.18919,8.27698 5.53695,9.00662c3.68233,7.72596 -9.24214,16.58051 -12.99592,19.59586c-5.47219,4.39572 -9.54946,3.35299 -9.54946,3.35299c0,0 -2.73241,-7.4629 -7.27306,-12.62524c-5.25554,-5.97509 -8.4868,-10.41751 -13.63849,-16.48132c-8.12833,-9.56748 -10.69849,-13.95628 -19.79564,-22.62825c-8.62507,-8.22195 -14.31254,-12.62905 -21.83945,-21.92388c-2.33669,-2.88552 6.38552,-8.53478 15.54739,-12.68575z" data-paper-data="{&quot;origRot&quot;:0}" fill="#0f0f0f" stroke="none" stroke-width="0" stroke-linecap="butt"/><path d="M298.97233,386.88813c0,0 17.12569,-0.72684 20.14611,2.65008c2.30272,2.57451 0.42294,11.47188 4.03839,14.00122c3.61543,2.52931 19.68085,6.22693 19.28629,13.41158c-0.3431,6.2477 -1.17844,10.2512 -5.48407,9.71484c-4.23427,-0.52746 -39.298,-2.71608 -40.68103,-3.41471c-2.47086,-6.46482 0.18175,-19.8323 3.32643,-24.81937z" data-paper-data="{&quot;origRot&quot;:0}" fill="#000000" stroke="none" stroke-width="0" stroke-linecap="butt"/><path d="M172.74355,279.59381c-6.88409,-1.31937 -9.7945,-3.31525 -16.30591,-5.24537c-5.1736,-1.53356 -9.75291,-3.33366 -14.96922,-4.70678c-10.04527,-2.64429 -13.9815,-2.09299 -28.15698,-6.75573c-1.54173,-0.50713 -19.07974,-2.37381 -32.13789,-5.46164c-4.55265,-0.24801 5.80758,-21.29261 5.80758,-21.29261c0,0 24.35996,1.55131 41.31797,1.2393c7.35462,-0.13533 22.63774,2.90908 30.96735,5.18966c9.41283,2.5771 15.6005,5.9332 20.28097,14.8976c3.70812,7.10205 5.86568,10.19455 3.89575,16.60351c-1.96995,6.40894 -3.81555,6.85143 -10.69963,5.53206z" fill="#252525" stroke="none" stroke-width="0" stroke-linecap="butt"/><path d="M266.49598,256.19845c0,0 -8.47059,6.88386 -12.0578,7.91732c-13.90214,4.00529 -49.94904,10.58892 -65.31449,12.3461c-0.80202,0.09173 -9.59958,1.81222 -10.40579,1.86984c-8.53684,0.61019 -12.06647,-14.65368 -13.50466,-19.24878c-2.0966,-6.69863 0.36165,-10.11453 0.36165,-10.11453c0,0 7.94539,0.1783 14.40838,-2.16626c7.48052,-2.71371 12.79554,-4.10174 20.32078,-6.68638c11.87333,-4.07804 16.89725,-4.8701 28.29021,-10.17687c10.80172,-5.03139 16.97988,-8.71927 28.37994,-12.3368c3.53908,-1.12304 5.61724,9.05892 6.13999,19.10367z" data-paper-data="{&quot;origRot&quot;:0}" fill="#0f0f0f" stroke="none" stroke-width="0" stroke-linecap="butt"/><path d="M98.83449,245.63593c0,0 -11.94703,12.29172 -16.46172,11.9122c-3.44194,-0.28933 -8.1873,-8.0468 -12.55224,-7.40161c-4.3649,0.64519 -18.5805,8.99309 -23.22882,3.50055c-4.04214,-4.77624 -6.18501,-8.25964 -2.68743,-10.82731c3.43962,-2.52514 30.4259,-25.01948 31.91092,-25.46174c6.23634,3.00117 13.49053,14.53817 14.63068,20.32264z" data-paper-data="{&quot;origRot&quot;:0}" fill="#000000" stroke="none" stroke-width="0" stroke-linecap="butt"/><g stroke-linecap="butt"><g data-paper-data="{&quot;origPos&quot;:null,&quot;index&quot;:null}" stroke="none"><path d="M385.01661,169.92465c-0.93264,0.8275 -1.23527,2.28765 -1.26639,3.96987c-0.82434,0.88983 -1.31001,1.67501 -1.31001,1.67501l-0.10047,0.33974c-0.02592,0.03161 -0.05171,0.06334 -0.07745,0.09514c-2.24378,1.27 -4.30308,2.81413 -6.36344,4.4891c-13.66705,-11.03693 -22.67168,-32.52906 -23.48497,-36.2183c-0.82141,-3.7261 11.0845,-3.15605 14.77798,-4.81577c3.69349,-1.65971 4.12612,-2.77321 10.31713,0.83514c6.19101,3.60835 3.00842,3.43539 6.62102,9.03704c3.61257,5.60167 5.87949,11.29253 5.9663,13.30861c0.08681,2.01607 -0.68695,3.38695 -5.0797,7.28439z" data-paper-data="{&quot;origPos&quot;:null}" fill="#000000" stroke-width="0"/><g data-paper-data="{&quot;origPos&quot;:null}"><path d="M373.29181,178.67718c-12.51654,-8.86387 -19.90007,-27.58092 -20.51518,-31.3037c-0.61511,-3.72274 10.82217,-3.56279 14.46774,-5.29681c3.64557,-1.73404 2.65682,-3.52511 8.03115,-0.58872c5.37429,2.93638 3.65532,3.83913 6.77685,8.6794c3.12156,4.84025 4.75076,9.33633 4.78285,11.36591c0.03061,1.9366 -0.5993,3.09959 -2.14301,4.64201c-0.87425,0.87349 -1.40661,1.32895 -2.35304,2.13355c-1.92866,1.6396 -1.54097,5.45675 -1.49113,8.54544c-1.6707,1.06123 -3.25584,2.26635 -4.83965,3.55028c-0.77679,-0.42158 -1.67601,-0.99052 -2.71654,-1.72739z" data-paper-data="{&quot;origPos&quot;:null}" fill="#09162e" stroke-width="0"/><g data-paper-data="{&quot;origPos&quot;:null}" fill="none" stroke-width="1" font-family="sans-serif" font-weight="normal" font-size="12" text-anchor="start"/></g></g><g data-paper-data="{&quot;origPos&quot;:null,&quot;index&quot;:null}"><path d="M323.06922,228.00217c-19.47956,12.16098 -38.15525,22.01534 -38.15525,22.01534c-6.41812,3.14934 -14.90857,2.49562 -16.204,-1.7195c-1.09877,-3.57524 -0.02283,-10.51994 -0.02283,-10.51994c0,0 31.59986,-19.42316 55.59022,-34.92092c14.00766,-9.04895 22.98765,-19.71566 36.96939,-28.80525c7.41338,-4.81949 13.49184,-2.62864 19.25269,1.0586c-1.17241,2.9735 -2.4802,5.89643 -3.72655,8.84179c-1.40602,3.32269 -3.37324,7.66399 -5.08251,12.30956c-0.98209,0.97569 -2.13194,1.92771 -3.53833,2.84201c0,0 -28.49702,18.54391 -45.08285,28.89833z" data-paper-data="{&quot;origPos&quot;:null}" fill="#255dbc" stroke="#000000" stroke-width="0"/><path d="M337.66878,191.7367c0,0 7.5158,-6.49835 12.53468,-10.33374c3.57275,-2.73028 9.48028,-6.49002 9.48028,-6.49002l12.34577,19.96192c0,0 -2.89109,4.77676 -5.47081,6.7006c-4.83336,3.60452 -7.83886,5.88423 -13.33085,8.21798c-7.63137,3.24287 -17.7423,10.63283 -17.7423,10.63283l7.06552,-9.35959z" data-paper-data="{&quot;origPos&quot;:null}" fill="#09162e" stroke="none" stroke-width="0"/><path d="M363.14074,181.8154l12.60101,-9.26841c0,0 2.69463,1.00505 4.89572,2.21168c-1.20719,3.09493 -2.56904,6.13217 -3.86452,9.19358c-1.36045,3.21501 -3.2463,7.38369 -4.91552,11.85886c-0.19257,0.18162 -0.30405,0.27962 -0.30405,0.27962z" data-paper-data="{&quot;origPos&quot;:null}" fill="#09162e" stroke="none" stroke-width="0"/><path d="M342.60034,193.33152c-0.87935,-0.73783 0.18737,-1.74085 0.18737,-1.74085l0.63409,-1.13216c1.40765,-1.36876 2.77726,-2.81353 4.56082,-3.76896c1.22817,-0.65792 2.37452,-0.86687 3.29644,-1.09293c0.13618,-0.0334 0.03276,0.41221 0.13196,0.30877c1.28922,-1.34447 0.60964,-2.71759 2.45552,-4.3951c0.22408,-0.20365 0.79808,-0.28054 1.40037,-0.27404l-0.10674,-0.39146c-0.04325,-0.14302 -0.05099,-0.29709 -0.02632,-0.45322c0.04214,-0.36631 0.25002,-0.88548 1.01793,-1.22256c0.034,-0.01532 0.06819,-0.02949 0.10244,-0.04252c0.77217,-0.30221 1.19019,-0.04529 1.40258,0.21402c0.02935,0.03249 0.05644,0.06739 0.081,0.10462l0.66249,1.00454l-0.29135,0.19215l0.07574,0.27778l-0.09109,0.03793c0.00903,0.1409 0.01115,0.2861 0.00652,0.44344l0.09646,-0.00615l-0.32273,1.64174c-0.0706,0.38193 -0.33328,0.77293 -0.74249,1.04278c-0.58778,0.38764 -1.28615,0.39898 -1.68755,0.06191l-0.97299,-0.77233c-0.1461,-0.01215 0.2388,0.18142 0.24932,0.31613c0.0544,0.00191 0.10048,0.01894 0.13464,0.05843c0.6521,0.75403 -1.9696,3.43499 -2.33351,3.73658c-1.17183,0.97118 -2.26871,0.62103 -3.50299,0.95889c-0.48601,0.13303 -2.96051,2.6429 -3.79221,3.45164l-0.67954,1.17563c0,0 -1.06676,1.00302 -1.94611,0.26521zM353.87291,183.92351c0.03167,0.00066 0.06509,-0.00265 0.09977,-0.00897c-0.13419,0.0085 -0.2021,0.00679 -0.09977,0.00897z" data-paper-data="{&quot;origPos&quot;:null}" fill="#ffffff" stroke="none" stroke-width="0.5"/><path d="M358.8982,175.29244l0.97247,-0.31703l12.6301,19.1509c-0.13992,0.3585 -0.27899,0.71956 -0.41688,1.08288l-0.03522,0.02321z" data-paper-data="{&quot;origPos&quot;:null}" fill="#ffffff" stroke="none" stroke-width="0"/><path d="M372.17991,194.3226l0.20421,0.10366c-0.21989,0.56764 -0.43747,1.14147 -0.65113,1.72012l-2.85783,3.62394l-2.58254,2.00235l1.87456,-2.36165z" data-paper-data="{&quot;origPos&quot;:null,&quot;origRot&quot;:0}" fill="#ffffff" stroke="none" stroke-width="0"/></g><g data-paper-data="{&quot;origPos&quot;:null}" stroke="none" stroke-width="0"><path d="M277.09845,201.76822c14.16843,-1.42943 32.64135,-30.70778 56.76957,-45.33782c11.74945,-7.12421 19.42253,-11.99463 29.95175,-8.05797c10.5292,3.93669 13.15313,21.35855 13.15313,21.35855c0,0 -1.56363,8.22862 -3.04153,12.77193c-1.54367,4.74548 -4.70088,11.02942 -4.70088,11.02942c0,0 -10.60808,8.55893 -13.98681,11.09544c-2.45502,1.84308 -5.33113,3.00858 -5.33113,3.00858l-17.34854,9.67197c0,0 -12.47415,9.48979 -24.0062,16.15031c0,0 -8.10597,4.43229 -18.2892,-8.87571c-12.37443,-16.17162 -13.17021,-22.81468 -13.17021,-22.81468z" data-paper-data="{&quot;origPos&quot;:null}" fill="#b2bbc1"/><path d="M258.35489,240.18184c-6.69252,-10.14781 -15.25541,-20.13487 -4.58524,-27.17189c10.67017,-7.03702 37.44647,-15.96419 44.139,-5.81638c0,0 24.28031,17.6286 16.6744,23.26394c0,0 -15.82215,10.51597 -20.87768,13.38515c-9.83728,5.583 -21.91176,10.90645 -21.91176,10.90645z" data-paper-data="{&quot;origPos&quot;:null}" fill="#b2bbc1"/><path d="M253.07062,240.72504c-3.83538,-5.81555 -7.0979,-9.13772 -7.08511,-16.14713c0.00513,-2.80823 0.68778,-4.48907 2.65479,-6.54568c2.43169,-2.54241 2.69429,-3.5791 5.59301,-5.61962c2.89871,-2.0405 5.18246,-1.96558 5.18246,-1.96558c0,0 4.38133,9.73134 8.63359,15.85706c6.48714,9.34519 18.10101,23.21495 18.10101,23.21495l-14.32856,5.96391c0,0 -13.89866,-7.40005 -18.75121,-14.75793z" data-paper-data="{&quot;origPos&quot;:null}" fill="#000000"/></g><path d="M362.25548,148.31729c0,0 2.6208,0.32101 3.75392,-0.48796c3.39933,-2.42693 5.53914,-3.83848 8.77197,-6.82611c5.4539,-5.04023 11.38402,-12.48601 11.38402,-12.48601c0,0 3.41168,1.06638 6.47494,19.00088c2.44657,14.32413 -2.31322,17.41648 -2.31322,17.41648c0,0 -4.37282,-3.7711 -10.3414,0.16523c-1.98953,1.31211 -4.41516,2.91182 -4.41516,2.91182l-1.27237,3.84461c0,0 -3.01466,-1.18677 -3.94553,-2.72756c-2.79259,-4.62235 -5.31061,-11.07727 -8.13866,-18.15993c-0.44386,-1.11164 0.04149,-2.65144 0.04149,-2.65144z" data-paper-data="{&quot;origPos&quot;:null}" fill="url(#color-4)" stroke="none" stroke-width="0"/><g data-paper-data="{&quot;origPos&quot;:null,&quot;index&quot;:null,&quot;origRot&quot;:0}"><path d="M317.10335,217.29961c-20.52206,13.42133 -50.70599,31.89028 -50.70599,31.89028c-7.06195,3.10557 -8.21571,-8.5589 -11.34011,-15.37976c-2.76167,-6.02906 -5.32705,-9.64456 -4.72949,-15.5345c0.19918,-1.96331 4.53711,-5.9429 4.53711,-5.9429c0,0 20.45727,-8.08108 45.54914,-25.40989c12.47018,-14.95459 31.75782,-31.97933 46.36145,-42.16682c6.75929,-4.71527 12.48277,-3.82591 19.97225,1.86532c-3.63856,8.77095 -1.74025,22.09743 2.65708,32.4698c-1.10839,2.20982 -2.61484,4.27725 -5.06973,5.98979c0,0 -29.75824,20.7911 -47.2317,32.21863z" data-paper-data="{&quot;origPos&quot;:null}" fill="#255dbc" stroke="#000000" stroke-width="0"/><path d="M322.97426,165.55394c0,0 7.28534,-7.95167 12.32688,-12.48769c3.5889,-3.22903 9.78748,-7.40941 9.78748,-7.40941l22.698,33.9762c0,0 -2.00487,6.55483 -4.6129,8.81335c-4.8864,4.23153 -7.91144,6.9217 -14.08083,9.02466c-8.57269,2.92217 -18.8472,11.54333 -18.8472,11.54333l5.71031,-12.46606z" data-paper-data="{&quot;origPos&quot;:null}" fill="#09162e" stroke="none" stroke-width="0"/><path d="M351.90422,157.18636l14.22472,-11.862c0,0 4.28767,18.17492 9.15216,29.76162c-0.92523,1.52587 -7.67435,6.28555 -7.67435,6.28555z" data-paper-data="{&quot;origPos&quot;:null}" fill="#09162e" stroke="none" stroke-width="0"/><path d="M329.43536,166.70932l0.41013,-1.5674c1.31136,-1.72211 2.54769,-3.57124 4.48208,-4.55746c1.33202,-0.67911 2.7172,-0.69096 3.81087,-0.78958c0.16157,-0.01457 0.18609,0.64172 0.27604,0.50965c1.16919,-1.71676 -0.17632,-4.00821 1.58445,-6.08625c0.21375,-0.25227 0.91704,-0.21563 1.68557,-0.04333l-0.27291,-0.62981c-0.10516,-0.23126 -0.16893,-0.46984 -0.19223,-0.70293c-0.0747,-0.55106 0.00794,-1.29213 0.86681,-1.60271c0.03791,-0.01433 0.07641,-0.02692 0.11541,-0.03766c0.87649,-0.25586 1.49828,0.25123 1.85931,0.7066c0.04874,0.05781 0.09541,0.11865 0.1397,0.1825l1.19468,1.72089l-0.30335,0.21649l0.19366,0.44693l-0.10262,0.03368c0.06084,0.21879 0.11435,0.44221 0.16358,0.68255l0.12061,0.0166l0.16443,2.43366c0.04395,0.5674 -0.15327,1.09688 -0.57935,1.40093c-0.61199,0.43678 -1.49648,0.26591 -2.12516,-0.35975l-1.50834,-1.44806c-0.19013,-0.05801 0.36736,0.34292 0.42791,0.55256c0.06989,0.01759 0.13451,0.05618 0.19177,0.12601c1.0937,1.3335 -1.30258,4.74309 -1.65991,5.10806c-1.15061,1.17529 -2.66867,0.34205 -4.12058,0.52809c-0.5717,0.07326 -2.84062,3.25989 -3.61544,4.27743l-0.45273,1.62189c0,0 -1.0058,1.25248 -2.38291,-0.11734c-1.37715,-1.36981 -0.37136,-2.62229 -0.37136,-2.62229zM340.85217,157.92515c0.04053,0.00956 0.08188,0.01347 0.1238,0.01315c-0.16773,-0.02311 -0.25474,-0.04406 -0.1238,-0.01315z" data-paper-data="{&quot;origPos&quot;:null}" fill="#ffffff" stroke="none" stroke-width="0.5"/><path d="M344.22215,146.02781l1.12611,-0.22464l23.44529,33.77218l-0.8573,0.61184z" data-paper-data="{&quot;origPos&quot;:null}" fill="#ffffff" stroke="none" stroke-width="0"/><path d="M367.78448,178.82564l1.02653,0.74252l-3.32265,6.731l-2.5841,2.37828l1.55758,-3.12078z" data-paper-data="{&quot;origPos&quot;:null,&quot;origRot&quot;:0}" fill="#ffffff" stroke="none" stroke-width="0"/></g></g><g><path d="M446.41369,137.97752c0.11987,0.15939 0.22208,0.32991 0.30544,0.51248c-0.1592,0.01237 -0.31833,0.02604 -0.47738,0.04094c0.06054,-0.18448 0.1179,-0.3689 0.17196,-0.55341z" data-paper-data="{&quot;origPos&quot;:null}" fill="#453725" stroke="none" stroke-width="0" stroke-linecap="butt"/><g data-paper-data="{&quot;origPos&quot;:null,&quot;index&quot;:null}"><path d="M382.58996,140.0688c-1.12165,-3.1856 2.23125,-7.46362 4.62929,-11.81412c1.35554,-2.45921 1.77975,-2.64303 3.49611,-3.66688c1.71639,-1.02386 2.45977,-1.13039 3.16046,-0.30394c0.70066,0.82645 1.0453,2.50368 0.4568,4.57043c-0.58855,2.06675 -1.30732,4.0055 -3.06727,4.59711" data-paper-data="{&quot;origPos&quot;:null,&quot;origRot&quot;:0}" fill="#ffddd1" stroke="#e9c7ba" stroke-width="0.5" stroke-linecap="round"/><text transform="translate(386.79063,138.91524) rotate(-137.35175) scale(0.2304,-0.41388) skewX(-14.03584)" font-size="40" xml:space="preserve" data-paper-data="{&quot;origRot&quot;:-1.7125,&quot;origPos&quot;:null,&quot;index&quot;:null}" fill="#e9c7ba" fill-rule="nonzero" stroke="none" stroke-width="1" stroke-linecap="butt" stroke-linejoin="miter" stroke-miterlimit="10" stroke-dasharray="" stroke-dashoffset="0" font-family="Handwriting" font-weight="normal" text-anchor="start" style="mix-blend-mode: normal"><tspan x="0" dy="0">3</tspan></text></g><path d="M376.83649,146.00985c0,0 -0.42431,-17.68601 8.74297,-27.11084c15.40585,-14.15748 30.11958,-16.1857 43.12529,-6.63582c13.00571,9.54987 16.88981,19.5267 15.53521,29.32607c-3.01263,20.85929 -19.68179,25.16369 -19.68179,25.16369l-4.18649,4.2608c0,0 -1.71717,4.78606 -2.80527,5.61185c-1.83399,1.3919 -15.03548,3.61766 -21.43579,3.21157c-2.13343,-0.13537 -2.70401,0.28939 -5.226,-2.7192c-3.305,-3.80994 -8.15932,-15.29921 -8.15932,-15.29921z" data-paper-data="{&quot;origPos&quot;:null,&quot;origRot&quot;:0}" fill="url(#color-5)" stroke="none" stroke-width="0" stroke-linecap="butt"/><path d="M423.6982,155.95428c1.44094,4.74563 0.31119,8.49684 0.31119,8.49684c-0.20776,0.73997 -0.84167,0.92929 -1.12605,0.5781c-0.28439,-0.35115 -0.44297,-0.89215 -0.2352,-1.63212c0.73443,-2.61591 0.3817,-3.75119 -0.28403,-6.62644c-0.88639,-3.82825 -4.3643,-9.21774 -3.85616,-8.69317c1.0968,1.13219 4.02395,4.03562 5.19026,7.8768z" data-paper-data="{&quot;origRot&quot;:0,&quot;index&quot;:null}" fill="#38301c" stroke="none" stroke-width="0" stroke-linecap="butt"/><path d="M445.04088,158.67385c-4.28772,-1.0239 -2.58065,-1.41163 -6.94644,-0.8704c2.11233,-6.04231 2.58571,-1.51975 -2.77398,-7.50461c-8.98315,-10.03091 -17.9644,-17.25509 -24.37083,-19.40397c-1.46338,-0.49085 -5.62858,2.99221 -5.62858,2.99221c0,0 1.71141,-2.47898 0.04412,-2.46857c-3.68704,0.023 -12.10438,10.8168 -12.10438,10.8168l-2.24939,-2.97728c0,0 1.09478,-5.54882 3.40158,-7.92065c2.32062,-2.38604 -5.875,-4.67429 -7.24343,-1.63634c-2.74,6.08288 -10.60322,13.83424 -10.60322,13.83424c0,0 0.41288,-16.97511 9.56674,-26.21546c6.39933,-6.4598 13.66743,-9.94446 22.69199,-11.17153c6.33671,-1.61359 17.66179,-4.91475 31.2156,11.53267c12.62214,15.31687 14.13899,25.4499 7.8773,36.03529z" data-paper-data="{&quot;origPos&quot;:null}" fill="#3d3021" stroke="none" stroke-width="0" stroke-linecap="butt"/><path d="M428.37609,139.2686c-6.66685,-7.44443 -15.48771,-12.78869 -25.19834,-12.72813c-3.60501,0.02248 -6.5402,2.43495 -6.5402,2.43495c0,0 4.37328,-4.05373 4.84198,-7.56659c0.56821,-2.22992 -1.36316,-2.54829 -3.42292,-3.57431c-1.55326,-0.77372 -5.37434,-1.56205 -5.37434,-1.56205c0,0 6.71042,-5.79316 12.48458,-6.48857c6.61117,-2.55727 14.8618,0.89694 14.8618,0.89694c0,0 6.2656,-4.71311 17.27546,6.65762c7.78371,9.44548 15.29513,20.79939 13.66773,26.35589c-3.6247,-4.81932 -12.3582,9.35572 -12.3582,9.35572l4.81618,4.76546c0,0 -3.04776,1.12929 -4.85313,2.02564c-4.41783,2.19339 -11.09301,5.89148 -11.09301,5.89148c0,0 9.70175,-5.81684 10.38498,-9.29462c1.37372,-6.9923 -4.73866,-11.8609 -9.49258,-17.16934z" data-paper-data="{&quot;origPos&quot;:null}" fill="#453725" stroke="none" stroke-width="0" stroke-linecap="butt"/><g data-paper-data="{&quot;origPos&quot;:null}" stroke="none" stroke-width="0" stroke-linecap="butt"><path d="M412.81152,134.62611l-0.53402,-6.06082l2.71767,6.21256l0.24687,-1.52832c0,0 0.83106,3.20721 4.47018,5.84723c4.94845,3.58988 13.8204,6.92094 16.99692,9.92765c4.37877,4.14467 -0.55757,10.9792 -0.55757,10.9792c0,0 -0.23176,-0.72441 -0.40522,-1.17809c-0.50794,-1.32849 -0.72956,-2.20456 -1.82765,-3.09984c-5.4523,-4.44554 -14.41038,-5.01732 -18.901,-10.37806c-6.90918,-8.2479 -6.37741,-16.50699 -6.37741,-16.50699z" data-paper-data="{&quot;origPos&quot;:null}" fill="url(#color-6)"/><path d="M413.68176,131.67441l-0.61685,-5.27244l3.37695,4.98655l-0.26067,-3.2032c0,0 1.27913,4.9909 5.36693,7.385c7.28205,4.26494 11.11867,-6.42756 24.9843,5.47754c7.03789,6.04275 -4.08133,10.03175 -8.21135,15.27003c-1.07378,1.36191 -0.46682,4.23019 -0.46682,4.23019l-0.99175,-3.61226c0,0 0.39428,-0.88879 -1.26957,-1.9142c-1.42975,-0.8811 -1.85229,-2.36496 -1.85229,-2.36496c0,0 0.59117,0.96812 2.70215,1.70923c1.36738,0.51072 1.09698,-0.80573 0.68058,-0.63478c-8.22926,-6.30154 -15.40342,-1.71029 -20.77222,-8.11936c-7.06699,-8.4363 -6.54982,-16.7091 -6.54982,-16.7091z" data-paper-data="{&quot;origPos&quot;:null}" fill="#3b2f20"/></g><path d="M392.86605,135.63368c-3.21659,3.16351 -5.90906,6.4956 -9.22629,4.05228c-1.83082,-1.34848 -1.31169,-6.57477 2.18945,-10.01817c3.50118,-3.44337 6.37546,-3.5328 8.6674,-1.44333c2.29196,2.08947 1.87058,3.96583 -1.63059,7.40922z" data-paper-data="{&quot;origRot&quot;:0,&quot;origPos&quot;:null,&quot;index&quot;:null}" fill="url(#color-7)" stroke="none" stroke-width="0" stroke-linecap="butt"/><g data-paper-data="{&quot;origPos&quot;:null}" stroke-linecap="butt"><g data-paper-data="{&quot;origPos&quot;:null}" stroke="none" stroke-width="0"><path d="M418.16561,168.12305c-1.87909,0.23712 -4.23877,0.1864 -6.80749,-2.88003c-2.43041,-2.90136 -3.04244,-6.8857 -0.98949,-8.89516c0.50164,-0.50422 2.75031,-1.26308 4.33795,-0.52961c1.96914,0.90975 5.21212,2.98219 6.44715,4.45652c2.56871,3.06643 0.91235,4.07147 0.19505,5.19466c0,0 -1.63811,2.45863 -3.18318,2.6536z" data-paper-data="{&quot;origPos&quot;:null}" fill="#000000"/><path d="M417.56489,168.57451c-1.46705,0.45181 -2.72091,-0.18863 -2.72091,-0.18863c-1.26074,-1.05004 -1.49751,-1.49845 -2.56954,-2.73186c-0.92836,-1.06814 -2.14646,-2.90465 -2.14646,-2.90465c0,0 -0.29021,-2.09317 -0.1784,-3.17351c0.11563,-1.11716 0.96486,-2.81438 0.96486,-2.81438c0,0 2.71741,-0.28855 4.04731,0.14556c1.32991,0.43408 5.04095,2.5579 5.84018,3.512c2.35899,2.81607 1.2573,3.89022 0.64978,4.87879c0,0 -0.79175,1.24049 -1.55202,1.88142c-0.7566,0.63786 -0.86779,0.94347 -2.33484,1.39525z" data-paper-data="{&quot;origPos&quot;:null}" fill="#ffffff"/></g><g data-paper-data="{&quot;origPos&quot;:null}" stroke="#000000" stroke-width="0"><path d="M420.05394,166.50321c-0.97213,1.07482 -2.22675,1.7638 -3.46833,2.00785c-1.24157,0.24408 -2.25904,-0.33592 -3.17897,-1.03886c-0.91993,-0.70292 -1.5702,-1.39739 -1.53595,-2.56401c0.03423,-1.16661 0.54197,-2.42634 1.51405,-3.50121c0.52282,-0.57806 1.17558,-0.98689 1.81583,-1.33255c3.51595,1.72642 4.49871,1.62556 5.15205,6.07442c-0.09416,0.12004 -0.19373,0.23829 -0.29873,0.35435z" data-paper-data="{&quot;origPos&quot;:null}" fill="#898151"/><path d="M421.50632,163.10281c-0.03423,1.16661 -0.54197,2.4263 -1.51414,3.50115c-0.20614,0.22794 -0.47328,0.38092 -0.70201,0.57358c-0.28163,-0.58648 0.5746,-1.54925 -1.48771,-4.09672c-1.87682,-2.31835 -3.04836,-2.21237 -3.55805,-2.41824c0.786,-0.59578 1.66974,-0.99031 2.54695,-1.16273c1.24157,-0.24408 2.47014,-0.04326 3.39007,0.65971c0.9199,0.70297 1.35909,1.77659 1.32486,2.94324z" data-paper-data="{&quot;origPos&quot;:null}" fill="#4d461c"/></g><path d="M411.6952,165.56894c-0.76601,-0.91443 -2.00839,-2.25241 -2.00839,-2.25241l0.29766,-0.24934c0,0 1.42002,1.23018 2.16585,2.12051c0.96765,1.15514 2.22475,3.1208 2.22475,3.1208l-0.29766,0.24934c0,0 -1.43473,-1.85784 -2.38222,-2.98891z" data-paper-data="{&quot;origPos&quot;:null}" fill="#000000" stroke="none" stroke-width="0"/><path d="M415.63216,157.01236l-0.64591,-1.07713c0,0 2.83261,0.41133 6.19345,4.05033c2.30059,2.98017 1.08877,3.94952 1.08877,3.94952c0,0 -0.83177,-2.32376 -1.53257,-3.21698c-0.66415,-0.84646 -1.97163,-1.75185 -2.72216,-2.52292c-0.75054,-0.77107 -2.38159,-1.18282 -2.38159,-1.18282z" data-paper-data="{&quot;origPos&quot;:null}" fill="#000000" stroke="#000000" stroke-width="0"/><g data-paper-data="{&quot;origPos&quot;:null}" stroke="none" stroke-width="1"><path d="M418.32981,160.85306c0.73106,0.11265 1.35336,0.50977 1.69306,1.16406c0.33974,0.6543 0.33323,1.44327 0.04799,2.18936c-0.28524,0.74613 -0.84922,1.44925 -1.62356,1.93191c-0.77436,0.48262 -1.61416,0.65453 -2.3452,0.54193c-0.73103,-0.11263 -1.35335,-0.50972 -1.69301,-1.16401c-0.33971,-0.65426 -0.33325,-1.44332 -0.048,-2.18941c0.28524,-0.74613 0.84921,-1.4492 1.62353,-1.93186c0.77432,-0.48267 1.61416,-0.65457 2.34524,-0.54198z" data-paper-data="{&quot;origPos&quot;:null}" fill="#000000"/><path d="M419.61207,163.1098c0.28247,-0.01802 0.5298,0.08119 0.67463,0.30185c0.14488,0.22057 0.16032,0.52144 0.06801,0.8292c-0.09224,0.30775 -0.29231,0.62238 -0.57774,0.87052c-0.28542,0.24813 -0.60308,0.38365 -0.8856,0.40173c-0.28247,0.01802 -0.52978,-0.08121 -0.67461,-0.30184c-0.14485,-0.22063 -0.16029,-0.5214 -0.06801,-0.82918c0.09224,-0.30768 0.29226,-0.62235 0.57772,-0.87053c0.28542,-0.24813 0.60318,-0.38365 0.88572,-0.40176z" data-paper-data="{&quot;origPos&quot;:null,&quot;origRot&quot;:0}" fill="#ffffff"/><path d="M415.10417,162.08271c0.16904,0.0508 0.32288,0.16575 0.42125,0.33263c0.09838,0.16687 0.1228,0.35438 0.08281,0.52253c-0.04001,0.16815 -0.14448,0.3169 -0.30388,0.40636c-0.15933,0.08949 -0.34373,0.10275 -0.51278,0.05191c-0.16904,-0.0508 -0.32292,-0.16565 -0.42126,-0.33258c-0.09839,-0.16684 -0.12281,-0.35429 -0.08277,-0.52244c0.04,-0.16813 0.14451,-0.31693 0.30391,-0.40639c0.15943,-0.08943 0.34369,-0.1027 0.51272,-0.0519z" data-paper-data="{&quot;origPos&quot;:null}" fill="#ffffff"/></g></g><path d="M403.04261,179.68483l-6.29676,-9.06911c0,0 1.92919,-2.40132 3.33483,-2.5964c1.27699,-0.1772 4.75011,1.47438 4.75011,1.47438l6.34087,9.57986z" fill="url(#color-8)" stroke="none" stroke-width="0" stroke-linecap="round"/><path d="M405.33392,176.89382l-4.0126,-6.20173" fill="none" stroke="#000000" stroke-width="0.5" stroke-linecap="round"/></g><g stroke="none" stroke-width="0" stroke-linecap="butt"><path d="M344.05828,266.54225l-1.47654,-8.86816l12.83772,-2.13747l1.03561,8.73239c0,0 -0.65272,2.40105 -2.90764,2.77651c-1.49226,0.24846 -9.48916,-0.50327 -9.48916,-0.50327z" data-paper-data="{&quot;origPos&quot;:null}" fill="#000000"/><path d="M354.37513,237.81353c0.32601,11.37178 1.74295,20.20809 -0.69436,29.10336c-1.3046,4.76124 -4.36077,5.16925 -6.89492,0.92312c-4.86498,-8.15158 -5.92756,-20.12861 -7.16433,-30.58274c-1.10898,-9.37392 -4.29305,-11.12841 -5.6516,-30.03661c-1.23145,-12.14013 22.57227,-13.1725 23.02318,-0.98417c0.45091,12.18832 -2.94397,20.20529 -2.61798,31.57707z" data-paper-data="{&quot;origPos&quot;:null}" fill="url(#color-9)"/><g data-paper-data="{&quot;origPos&quot;:null}"><path d="M344.40663,264.56182l-1.86657,-6.86084l12.86768,-2.35164l0.98555,9.97079c0,0 -2.68914,-2.82498 -5.77206,-2.68026z" data-paper-data="{&quot;origPos&quot;:null}" fill="url(#color-10)"/><path d="M343.14141,262.05503c0,0 -9.06901,-38.3106 -9.12248,-52.78401c-0.03259,-8.82463 0.90218,-11.5222 9.4881,-12.0112c8.1145,-0.70155 12.37134,2.88155 13.8844,8.6698c1.51304,5.78825 -1.38468,58.85776 -1.38468,58.85776c0,0 -1.34929,-5.32234 -4.83224,-5.19169c-3.69678,0.13871 -8.03307,2.45931 -8.03307,2.45931z" data-paper-data="{&quot;origPos&quot;:null,&quot;origRot&quot;:0}" fill="#1e4994"/></g></g><g data-paper-data="{&quot;origRot&quot;:0}" stroke="none" stroke-width="0" stroke-linecap="butt"><path d="M367.63549,156.37789c2.02355,9.79868 -0.92848,11.43111 -3.10836,21.20978c-5.19055,23.28402 -5.28889,22.37906 -8.81176,29.93321c-4.28317,9.18448 -22.49641,1.33038 -20.27519,-8.60301c1.22576,-5.48162 1.94102,-18.58792 3.18933,-24.06414c4.27318,-18.74611 13.9409,-30.01463 21.15284,-31.87702c7.60441,-1.96374 6.81812,8.38946 7.85315,13.40127z" data-paper-data="{&quot;origPos&quot;:null,&quot;origRot&quot;:0}" fill="#2152a6"/><path d="M357.59015,143.26847c0.16429,6.05903 0.76577,13.05572 -0.32328,17.83697c-3.76291,16.52049 -7.79391,32.97378 -11.86429,49.41735c-5.67058,-1.52099 -11.08739,-6.52312 -9.81669,-12.20572c1.22576,-5.48162 1.94101,-18.58793 3.18933,-24.06414c3.82562,-16.78265 11.9749,-27.57207 18.81495,-30.98448z" data-paper-data="{&quot;origPos&quot;:null,&quot;origRot&quot;:0}" fill="#000000"/></g><g><g><path d="" data-paper-data="{&quot;origPos&quot;:null}" fill="none" stroke="#000000" stroke-width="1.5" stroke-linecap="round"/><path d="M355.38355,285.3057l20.61804,6.46019l-2.88351,9.50073l-20.61804,-6.46019z" fill="#524e53" stroke="none" stroke-width="0" stroke-linecap="butt"/><g stroke="none" stroke-width="0" stroke-linecap="butt"><path d="M367.9719,292.78449c0,0 18.74283,-2.16851 29.4135,0.78342c26.73792,7.39675 126.54627,39.65648 126.54627,39.65648l-16.08962,3.65702l-139.14522,-41.42338z" fill="url(#color-11)"/><path d="M368.96754,290.76959l137.85243,45.68292l23.63802,-0.68613c0,0 -21.79305,11.24418 -34.00043,8.02189c-29.25337,-7.7218 -75.39723,-19.83446 -105.50878,-30.58043c-15.31894,-5.46692 -25.45451,-16.05644 -25.45451,-16.05644z" data-paper-data="{&quot;index&quot;:null}" fill="url(#color-12)"/><g><path d="M367.078,290.48214c0,0 97.50616,29.23359 117.79892,35.31838c3.4151,1.02402 14.93479,3.68932 23.78715,4.67551c9.55744,1.06474 10.0942,-2.66201 10.0942,-2.66201l15.43637,3.22458c0,0 -3.28843,8.66918 -16.184,10.23294c-12.36107,1.49896 -33.81286,-5.62303 -38.44275,-7.0108c-22.39997,-6.71415 -116.32152,-36.09321 -116.32152,-36.09321z" fill="url(#color-13)"/><path d="M367.078,290.48214c0,0 97.50616,29.23359 117.79892,35.31838c3.4151,1.02402 14.93479,3.68932 23.78715,4.67551c9.55744,1.06474 10.0942,-2.66201 10.0942,-2.66201l15.43637,3.22458c0,0 -3.28843,8.66918 -16.184,10.23294c-12.36107,1.49896 -33.81286,-5.62303 -38.44275,-7.0108c-22.39997,-6.71415 -116.32152,-36.09321 -116.32152,-36.09321z" fill="url(#color-14)"/><path d="M365.5242,291.43357c0,0 55.6527,18.27263 90.4672,28.06455c34.81449,9.79193 38.0321,11.99677 57.63469,13.59063c5.03798,0.40964 9.56798,-3.81635 9.56798,-3.81635l6.39908,1.04719c0,0 -3.26481,6.12714 -12.57157,7.27674c-14.07558,1.73865 -38.88394,-7.30913 -63.44088,-14.00823c-24.55697,-6.6991 -89.70533,-27.76984 -89.70533,-27.76984z" fill="#000000"/></g></g><g stroke="none" stroke-width="0" stroke-linecap="butt"><g><path d="M357.73225,286.4132l11.88588,3.2091c0,0 -1.20523,3.42096 -1.73851,5.28985c-0.4354,1.52583 -1.22744,5.10442 -1.22744,5.10442l-12.70438,-3.02549z" fill="#464347"/><path d="M364.11191,287.33609l11.25339,3.68774l-1.03111,3.39734l-11.29821,-3.54004z" fill="#2c2a2c"/><path d="M355.15392,293.68411c0,0 5.97988,-2.17593 9.21807,-2.4579c3.26722,-0.28453 10.29896,0.75839 10.29896,0.75839l-0.57563,2.33954c0,0 -7.21673,-0.33293 -10.50094,-0.05622c-3.03646,0.25583 -8.51948,1.65879 -8.51948,1.65879z" fill="#191819"/><path d="M374.70587,290.84311l1.73486,0.60439l-3.48062,10.53995l-1.73485,-0.60439z" fill="#191819"/></g><g><path d="M324.1822,275.56277l32.62958,10.29445l-9.92285,7.8444c0,0 -3.02077,-0.8215 -7.47467,-1.77823c-4.67773,-1.00484 -10.90502,-2.16573 -15.53425,-2.97612c-3.14129,-0.54992 -5.47219,-0.9634 -5.47219,-0.9634l-2.26516,-8.16535z" fill="#2d2d31"/><path d="M314.90778,279.52303l6.31921,-4.0463l4.64812,1.36552l-6.1358,3.9801l1.16968,7.7108l-4.95322,-0.28931z" fill="#0f1011"/><path d="M352.61855,284.33482l12.89074,2.67565l-1.39462,4.24716c0,0 -4.14398,2.49669 -5.84567,3.75387c-1.59976,1.18189 -4.07756,3.5773 -4.07756,3.5773l-7.66851,-4.75603c0,0 -0.35869,-2.82094 2.35634,-8.02478c1.17944,-2.26063 3.73933,-1.4732 3.73933,-1.4732z" fill="#282628"/><path d="M353.00079,284.85173l11.67587,2.42349l-1.26318,3.8469c0,0 -3.75345,2.26141 -5.29477,3.40012c-0.80661,-0.54954 -9.61621,-5.90998 -8.50483,-8.33613c1.0683,-2.04758 3.38691,-1.33437 3.38691,-1.33437z" fill="#232123"/><path d="M346.19441,282.85436l0.83929,0.26298l-2.10705,6.94242l-0.83929,-0.26298z" fill="#252527"/><path d="M341.67511,281.43834l0.83929,0.26298l-2.10705,6.94242l-0.83929,-0.26298z" fill="#252527"/><path d="M344.25757,282.2475l0.83929,0.26298l-2.10704,6.94242l-0.83929,-0.26298z" fill="#252527"/><path d="M339.73829,280.83148l0.83929,0.26298l-2.10704,6.94242l-0.8393,-0.26297z" fill="#252527"/><path d="M321.70801,274.32971l19.43273,6.72634l-6.23925,3.60689l-20.82883,-5.88514z" fill="#464649"/><path d="M321.92452,274.32945l8.38449,2.69627l-4.81813,2.34407l-7.56332,-2.79631z" fill="#737277"/></g></g></g><path d="M350.96542,281.18657c-0.41593,-0.94752 2.10329,-1.51031 2.10329,-1.51031c1.18875,-0.21761 2.12511,-0.38038 2.37425,0.80218c0.25905,1.22956 2.08045,4.43764 2.31514,5.71956c-0.30548,0.25111 -4.8732,-1.81403 -4.8732,-1.81403c0,0 -1.0661,-1.25349 -1.91948,-3.19745z" fill="#fde6d9" stroke="none" stroke-width="0" stroke-linecap="butt"/><path d="M339.24734,277.64087c0.5276,-0.69393 1.8151,-0.06755 1.8151,-0.06755c1.69945,0.48071 9.43321,3.05521 7.93628,3.77017c-2.1766,1.03958 -6.22796,3.14186 -6.6744,4.91586c-0.25744,1.02295 -1.02824,1.83034 -1.25896,2.86053c-0.38388,1.71402 -1.25478,2.67433 -3.11586,2.17005c-2.07634,-0.56262 -1.64267,-1.10368 -1.78217,-3.01261c-0.04512,-0.61726 0.33537,-3.01075 0.48367,-3.59998c1.08367,-4.3061 1.04735,-4.99911 2.59634,-7.03643z" data-paper-data="{&quot;origRot&quot;:0}" fill="url(#color-15)" stroke="none" stroke-width="0" stroke-linecap="butt"/><path d="M335.66194,289.78997c0.15638,-0.68791 1.51054,-0.88968 1.51054,-0.88968c1.64239,-0.48661 3.20443,-1.37387 3.1943,0.82782c-0.0076,1.65961 0.41274,3.01251 0.77798,4.35024c0.13217,0.48406 0.67051,1.71982 0.86104,2.18644c0.56795,1.39092 -0.45344,2.12034 -2.14484,2.4823c-1.33212,0.28509 -2.56371,-0.01897 -3.45029,-3.26608c-0.88657,-3.24709 -1.20792,-3.67136 -0.7488,-5.69104z" data-paper-data="{&quot;origRot&quot;:0}" fill="url(#color-16)" stroke="none" stroke-width="0" stroke-linecap="butt"/><g data-paper-data="{&quot;origRot&quot;:0}" fill="#fde6d9" stroke="none" stroke-width="0" stroke-linecap="butt"><path d="M345.63652,278.13096c0.74258,-0.6202 1.8287,0.31362 1.8287,0.31362c1.54192,0.86755 6.83647,6.48821 5.12201,6.92504c-2.49287,0.63517 -5.58397,0.7294 -6.58373,2.50629c-0.57649,1.0246 -1.59677,1.71297 -2.14893,2.75088c-0.91871,1.72692 -2.0865,2.55536 -3.782,1.62864c-1.89161,-1.03388 -1.29045,-1.51271 -0.83193,-3.55618c0.14826,-0.6608 1.2762,-3.10523 1.60829,-3.69543c2.42678,-4.31311 2.60747,-5.05198 4.78763,-6.87288z" data-paper-data="{&quot;origRot&quot;:0,&quot;origPos&quot;:null}"/><path d="M338.92012,289.95174c0.27718,-0.7295 1.69653,-0.63198 1.69653,-0.63198c1.7627,-0.15137 3.51148,-0.76834 3.12595,1.68327c-0.29059,1.84795 -0.09122,3.45606 0.05437,5.03401c0.05269,0.57098 0.39269,2.0766 0.50801,2.64202c0.34382,1.68556 -0.82508,2.25536 -2.61664,2.2561c-1.41103,0.00059 -2.61882,-0.63155 -2.97221,-4.46187c-0.3534,-3.83034 -0.6098,-4.37975 0.20396,-6.52155z" data-paper-data="{&quot;origRot&quot;:0,&quot;origPos&quot;:null}"/><path d="M339.73104,299.80062c-0.30418,-0.64409 0.64758,-1.6879 0.64758,-1.6879c1.00358,-1.4565 1.53852,-1.3032 2.69401,-0.89937c1.33152,0.46539 2.50686,1.65928 4.13341,3.06833c1.6266,1.40902 2.3036,4.0233 1.59583,4.57163c-0.66162,0.51255 -1.99834,0.83687 -4.72696,-1.14191c-2.72866,-1.97879 -3.45076,-2.01966 -4.34386,-3.91076z" data-paper-data="{&quot;origRot&quot;:0,&quot;origPos&quot;:null}"/></g><g data-paper-data="{&quot;origRot&quot;:0}" fill="#fde6d9" stroke="none" stroke-width="0" stroke-linecap="butt"><path d="M344.69608,280.15195c0.37135,-0.89338 1.76629,-0.56805 1.76629,-0.56805c1.76834,0.05572 9.06262,2.58899 7.74484,3.76947c-2.98912,2.6777 -5.35982,6.81603 -5.30943,8.701c-0.01549,1.95601 -0.97619,2.56685 -2.90803,2.52976c-2.15532,-0.04138 -2.28062,-0.66885 -2.35889,-2.69901c-0.02611,-0.67672 -0.02061,-2.74821 0.00075,-3.42512c0.15586,-4.9465 -0.0258,-5.68512 1.0645,-8.30809z" data-paper-data="{&quot;origRot&quot;:0,&quot;origPos&quot;:null}"/><path d="M343.81097,290.59465c0.14401,-0.76697 1.55828,-0.92159 1.55828,-0.92159c1.70827,-0.46024 3.32062,-1.37632 3.37406,1.10484c0.04029,1.87024 0.5205,3.41783 0.94244,4.94531c0.15268,0.55273 0.75321,1.97462 0.96658,2.51076c0.63611,1.59835 -0.41384,2.36562 -2.17713,2.68271c-1.38876,0.24973 -2.68919,-0.15917 -3.7134,-3.86689c-1.02422,-3.70772 -1.3736,-4.20326 -0.95081,-6.4551z" data-paper-data="{&quot;origRot&quot;:0,&quot;origPos&quot;:null}"/><path d="M345.87197,298.35647c-0.02467,-0.71191 1.26231,-1.29419 1.26231,-1.29419c1.49778,-0.94086 1.92852,-0.5885 2.83009,0.23937c1.03892,0.95403 1.64626,2.51541 2.58302,4.45284c0.93673,1.93744 0.66084,5.1791 -0.20607,5.40282c-0.81036,0.20912 -2.30252,-0.59442 -4.02618,-3.49099c-1.72363,-2.89658 -2.37071,-3.21969 -2.44311,-5.30983z" data-paper-data="{&quot;origRot&quot;:0,&quot;origPos&quot;:null}"/></g><path d="M340.34369,275.93158c3.97501,-6.27694 7.62087,-12.55566 9.9113,-11.93176c1.7023,0.46369 6.98747,0.70139 5.81825,4.55896c-0.99875,3.29516 -0.84498,11.77243 -1.74991,15.09459c0,0 -17.46699,-2.21498 -13.97967,-7.72177z" data-paper-data="{&quot;origRot&quot;:0}" fill="url(#color-17)" stroke="none" stroke-width="0" stroke-linecap="butt"/></g></g></g></svg>