<svg version="1.1" xmlns="http://www.w3.org/2000/svg" xmlns:xlink="http://www.w3.org/1999/xlink" width="385.88589" height="385.88589" viewBox="0,0,385.88589,385.88589"><defs><linearGradient x1="233.04114" y1="199.00461" x2="289.98261" y2="179.52905" gradientUnits="userSpaceOnUse" id="color-1"><stop offset="0" stop-color="#353935"/><stop offset="1" stop-color="#000000"/></linearGradient><linearGradient x1="178.75769" y1="151.88599" x2="224.03917" y2="224.82739" gradientUnits="userSpaceOnUse" id="color-2"><stop offset="0" stop-color="#353935"/><stop offset="1" stop-color="#000000"/></linearGradient><linearGradient x1="279.33492" y1="221.09017" x2="322.06496" y2="257.38301" gradientUnits="userSpaceOnUse" id="color-3"><stop offset="0" stop-color="#ffffff"/><stop offset="1" stop-color="#cccccc"/></linearGradient><radialGradient cx="255.72646" cy="326.81718" r="4.0678" gradientUnits="userSpaceOnUse" id="color-4"><stop offset="0" stop-color="#cccccc"/><stop offset="1" stop-color="#7f7f7f"/></radialGradient><radialGradient cx="256.22647" cy="330.99741" r="3.5151" gradientUnits="userSpaceOnUse" id="color-5"><stop offset="0" stop-color="#cccccc"/><stop offset="1" stop-color="#7f7f7f"/></radialGradient><radialGradient cx="258.28238" cy="335.32003" r="4.361" gradientUnits="userSpaceOnUse" id="color-6"><stop offset="0" stop-color="#cccccc"/><stop offset="1" stop-color="#7f7f7f"/></radialGradient><radialGradient cx="262.60415" cy="336.81704" r="4.361" gradientUnits="userSpaceOnUse" id="color-7"><stop offset="0" stop-color="#cccccc"/><stop offset="1" stop-color="#7f7f7f"/></radialGradient><radialGradient cx="267.73348" cy="337.04782" r="4.1004" gradientUnits="userSpaceOnUse" id="color-8"><stop offset="0" stop-color="#cccccc"/><stop offset="1" stop-color="#7f7f7f"/></radialGradient><radialGradient cx="272.09549" cy="338.99125" r="3.7756" gradientUnits="userSpaceOnUse" id="color-9"><stop offset="0" stop-color="#cccccc"/><stop offset="1" stop-color="#7f7f7f"/></radialGradient><radialGradient cx="275.91224" cy="340.47115" r="4.3287" gradientUnits="userSpaceOnUse" id="color-10"><stop offset="0" stop-color="#cccccc"/><stop offset="1" stop-color="#7f7f7f"/></radialGradient><radialGradient cx="280.05243" cy="343.33402" r="4.0681" gradientUnits="userSpaceOnUse" id="color-11"><stop offset="0" stop-color="#cccccc"/><stop offset="1" stop-color="#7f7f7f"/></radialGradient><radialGradient cx="283.95148" cy="345.69879" r="3.8075" gradientUnits="userSpaceOnUse" id="color-12"><stop offset="0" stop-color="#cccccc"/><stop offset="1" stop-color="#7f7f7f"/></radialGradient><radialGradient cx="288.45717" cy="346.9583" r="4.6208" gradientUnits="userSpaceOnUse" id="color-13"><stop offset="0" stop-color="#cccccc"/><stop offset="1" stop-color="#7f7f7f"/></radialGradient><radialGradient cx="293.48986" cy="346.56027" r="4.1661" gradientUnits="userSpaceOnUse" id="color-14"><stop offset="0" stop-color="#cccccc"/><stop offset="1" stop-color="#7f7f7f"/></radialGradient><radialGradient cx="297.35588" cy="347.40156" r="4.5893" gradientUnits="userSpaceOnUse" id="color-15"><stop offset="0" stop-color="#cccccc"/><stop offset="1" stop-color="#7f7f7f"/></radialGradient><radialGradient cx="253.22782" cy="318.53131" r="6.8791" gradientUnits="userSpaceOnUse" id="color-16"><stop offset="0" stop-color="#cccccc"/><stop offset="1" stop-color="#7f7f7f"/></radialGradient><radialGradient cx="262.34887" cy="311.18582" r="4.0678" gradientUnits="userSpaceOnUse" id="color-17"><stop offset="0" stop-color="#cccccc"/><stop offset="1" stop-color="#7f7f7f"/></radialGradient><radialGradient cx="267.26242" cy="312.4606" r="4.0678" gradientUnits="userSpaceOnUse" id="color-18"><stop offset="0" stop-color="#cccccc"/><stop offset="1" stop-color="#7f7f7f"/></radialGradient><radialGradient cx="271.78259" cy="315.09195" r="4.0678" gradientUnits="userSpaceOnUse" id="color-19"><stop offset="0" stop-color="#cccccc"/><stop offset="1" stop-color="#7f7f7f"/></radialGradient><radialGradient cx="276.13469" cy="318.78842" r="4.0678" gradientUnits="userSpaceOnUse" id="color-20"><stop offset="0" stop-color="#cccccc"/><stop offset="1" stop-color="#7f7f7f"/></radialGradient><radialGradient cx="280.33563" cy="322.11523" r="4.0678" gradientUnits="userSpaceOnUse" id="color-21"><stop offset="0" stop-color="#cccccc"/><stop offset="1" stop-color="#7f7f7f"/></radialGradient><radialGradient cx="284.33034" cy="325.99131" r="4.0678" gradientUnits="userSpaceOnUse" id="color-22"><stop offset="0" stop-color="#cccccc"/><stop offset="1" stop-color="#7f7f7f"/></radialGradient><radialGradient cx="287.96806" cy="330.04693" r="4.0678" gradientUnits="userSpaceOnUse" id="color-23"><stop offset="0" stop-color="#cccccc"/><stop offset="1" stop-color="#7f7f7f"/></radialGradient><radialGradient cx="291.56709" cy="333.58697" r="4.0678" gradientUnits="userSpaceOnUse" id="color-24"><stop offset="0" stop-color="#cccccc"/><stop offset="1" stop-color="#7f7f7f"/></radialGradient><radialGradient cx="295.44932" cy="337.6088" r="4.0678" gradientUnits="userSpaceOnUse" id="color-25"><stop offset="0" stop-color="#cccccc"/><stop offset="1" stop-color="#7f7f7f"/></radialGradient><radialGradient cx="298.65498" cy="342.50572" r="4.0678" gradientUnits="userSpaceOnUse" id="color-26"><stop offset="0" stop-color="#cccccc"/><stop offset="1" stop-color="#7f7f7f"/></radialGradient><radialGradient cx="310.70231" cy="355.38234" r="4.1661" gradientUnits="userSpaceOnUse" id="color-27"><stop offset="0" stop-color="#cccccc"/><stop offset="1" stop-color="#7f7f7f"/></radialGradient><radialGradient cx="313.76226" cy="358.67958" r="4.5893" gradientUnits="userSpaceOnUse" id="color-28"><stop offset="0" stop-color="#cccccc"/><stop offset="1" stop-color="#7f7f7f"/></radialGradient><radialGradient cx="318.28872" cy="360.63063" r="4.0678" gradientUnits="userSpaceOnUse" id="color-29"><stop offset="0" stop-color="#cccccc"/><stop offset="1" stop-color="#7f7f7f"/></radialGradient><linearGradient x1="340.11323" y1="246.50989" x2="367.27299" y2="271.32163" gradientUnits="userSpaceOnUse" id="color-30"><stop offset="0" stop-color="#ff0000"/><stop offset="1" stop-color="#ff0000" stop-opacity="0"/></linearGradient><linearGradient x1="335.77209" y1="251.83575" x2="339.97816" y2="246.3952" gradientUnits="userSpaceOnUse" id="color-31"><stop offset="0" stop-color="#ff0000"/><stop offset="1" stop-color="#ff0000" stop-opacity="0"/></linearGradient><linearGradient x1="285.68537" y1="266.06972" x2="273.14152" y2="281.54371" gradientUnits="userSpaceOnUse" id="color-32"><stop offset="0" stop-color="#7f7f7f"/><stop offset="1" stop-color="#b2b2b2"/></linearGradient><linearGradient x1="296.65473" y1="272.44713" x2="287.86227" y2="283.82035" gradientUnits="userSpaceOnUse" id="color-33"><stop offset="0" stop-color="#000000"/><stop offset="1" stop-color="#353935"/></linearGradient><linearGradient x1="280.28965" y1="293.61556" x2="288.18012" y2="283.40905" gradientUnits="userSpaceOnUse" id="color-34"><stop offset="0" stop-color="#000000"/><stop offset="1" stop-color="#353935"/></linearGradient><radialGradient cx="265.201" cy="300.9668" r="32.5791" gradientUnits="userSpaceOnUse" id="color-35"><stop offset="0" stop-color="#666666"/><stop offset="1" stop-color="#000000"/></radialGradient><radialGradient cx="271.71451" cy="309.00328" r="14.0005" gradientUnits="userSpaceOnUse" id="color-36"><stop offset="0" stop-color="#370000"/><stop offset="1" stop-color="#000000"/></radialGradient><radialGradient cx="278.78627" cy="306.79555" r="11.9416" gradientUnits="userSpaceOnUse" id="color-37"><stop offset="0" stop-color="#370000"/><stop offset="1" stop-color="#000000"/></radialGradient><radialGradient cx="265.14583" cy="305.19516" r="11.0493" gradientUnits="userSpaceOnUse" id="color-38"><stop offset="0" stop-color="#370000"/><stop offset="1" stop-color="#000000"/></radialGradient><radialGradient cx="276.61801" cy="298.52085" r="9.7171" gradientUnits="userSpaceOnUse" id="color-39"><stop offset="0" stop-color="#370000"/><stop offset="1" stop-color="#000000"/></radialGradient><radialGradient cx="268.73143" cy="298.06907" r="7.313" gradientUnits="userSpaceOnUse" id="color-40"><stop offset="0" stop-color="#370000"/><stop offset="1" stop-color="#000000"/></radialGradient><radialGradient cx="271.73161" cy="302.07813" r="3.567" gradientUnits="userSpaceOnUse" id="color-41"><stop offset="0" stop-color="#ff0000"/><stop offset="1" stop-color="#000000"/></radialGradient><linearGradient x1="239.64593" y1="271.82529" x2="178.88787" y2="261.3691" gradientUnits="userSpaceOnUse" id="color-42"><stop offset="0" stop-color="#353935"/><stop offset="1" stop-color="#000000"/></linearGradient><linearGradient x1="159.78458" y1="294.71873" x2="132.60489" y2="210.71635" gradientUnits="userSpaceOnUse" id="color-43"><stop offset="0" stop-color="#353935"/><stop offset="1" stop-color="#000000"/></linearGradient><linearGradient x1="338.04733" y1="239.37689" x2="398.1" y2="179.32422" gradientUnits="userSpaceOnUse" id="color-44"><stop offset="0" stop-color="#000000"/><stop offset="1" stop-color="#0e0e0e"/></linearGradient><linearGradient x1="385.53352" y1="227.10136" x2="394.29861" y2="235.86645" gradientUnits="userSpaceOnUse" id="color-45"><stop offset="0" stop-color="#000000"/><stop offset="1" stop-color="#666666"/></linearGradient><linearGradient x1="341.77133" y1="214.65296" x2="372.67103" y2="245.55268" gradientUnits="userSpaceOnUse" id="color-46"><stop offset="0" stop-color="#151515"/><stop offset="1" stop-color="#212121"/></linearGradient><linearGradient x1="368.95321" y1="192.59534" x2="382.12936" y2="205.77149" gradientUnits="userSpaceOnUse" id="color-47"><stop offset="0" stop-color="#292929"/><stop offset="1" stop-color="#292929"/></linearGradient><linearGradient x1="325.54577" y1="318.13012" x2="383.35923" y2="260.31663" gradientUnits="userSpaceOnUse" id="color-48"><stop offset="0" stop-color="#000000"/><stop offset="1" stop-color="#0e0e0e"/></linearGradient><linearGradient x1="372.14305" y1="307.0453" x2="380.32815" y2="315.2304" gradientUnits="userSpaceOnUse" id="color-49"><stop offset="0" stop-color="#000000"/><stop offset="1" stop-color="#666666"/></linearGradient><linearGradient x1="341.47263" y1="309.73323" x2="353.52823" y2="297.6776" gradientUnits="userSpaceOnUse" id="color-50"><stop offset="0" stop-color="#151515"/><stop offset="1" stop-color="#212121"/></linearGradient></defs><g transform="translate(-50.06006,-33.17816)"><g data-paper-data="{&quot;isPaintingLayer&quot;:true}" fill-rule="nonzero" stroke-linejoin="miter" stroke-miterlimit="10" stroke-dasharray="" stroke-dashoffset="0" style="mix-blend-mode: normal"><path d="M106.57174,362.55237c-75.3489,-75.3489 -75.3489,-197.51362 0.00001,-272.86253c75.34891,-75.34891 197.51362,-75.3489 272.86252,0c75.3489,75.3489 75.34892,197.51362 0.00001,272.86253c-75.34891,75.34891 -197.51362,75.3489 -272.86252,0z" fill="none" stroke="none" stroke-width="NaN" stroke-linecap="butt"/><g stroke-width="2.5"><path d="M287.18126,176.02684c0.05551,9.49963 -20.87577,9.09735 -29.76184,4.63834c-11.94756,-6.00447 -15.67811,-21.32592 -24.51886,-31.80036c-9.46272,-11.24448 -24.91222,-19.48051 -28.45447,-33.75268c-2.29357,-9.30128 3.88414,-25.70885 12.70699,-24.25475c16.51512,1.9374 27.8569,18.3753 38.2484,31.07013c13.19758,16.11963 30.82632,34.23005 31.77978,54.09947z" data-paper-data="{&quot;origRot&quot;:0,&quot;origPos&quot;:null}" fill="#000000" stroke="url(#color-1)" stroke-linecap="round"/><g data-paper-data="{&quot;origRot&quot;:0,&quot;origPos&quot;:null}"><path d="M231.7339,104.26665c2.5972,4.34206 0.51195,13.24199 -4.09401,13.68761c-10.17138,1.39222 -19.25692,-6.60706 -28.79897,-9.59494c-4.26704,-1.33877 -9.15583,-1.08562 -13.18323,-2.61028c-5.47188,-2.07324 -13.77861,-2.81888 -15.41288,-8.4722c-1.72774,-5.91481 4.87239,-11.59259 8.86033,-16.32992c3.35572,-3.9832 7.58188,-9.09028 12.92542,-9.99488c4.19031,-0.3042 7.67239,3.99727 10.66126,7.01485c3.17519,3.20447 3.5047,8.77647 6.8677,11.85111c6.49329,5.92548 17.61629,6.91437 22.17437,14.44867z" fill="#ffffff" stroke="#ffffff" stroke-linecap="round"/><path d="M196.57549,106.92588c0,0 -7.66787,5.18041 -12.06741,6.23209c-4.31625,1.03259 -9.00373,1.08513 -13.37789,0.29345c-3.30014,-0.91592 -7.14864,-2.34526 -8.88077,-5.25557c-1.4046,-2.37857 0.5386,-5.55029 1.22471,-8.21913c0.20725,-0.80844 1.75893,-1.78042 1.75893,-1.78042" fill="none" stroke="#353935" stroke-linecap="round"/><path d="M179.8597,113.87821c-6.5879,-0.26566 -13.24786,-2.32801 -17.66805,-6.75938c-2.34165,-1.83763 -1.08152,-7.90821 1.43649,-8.2916c3.86434,-0.56696 6.70358,5.31992 10.72455,5.81086c3.23473,0.38976 6.06485,-2.21834 9.32957,-2.46328c2.33883,-0.70074 4.85761,-0.95693 7.28928,-0.34139c1.67754,0.41323 4.06848,1.06101 4.54571,2.46427c0.47708,1.40283 -0.68526,3.7418 -2.1006,4.72453c-3.88159,2.68658 -8.7631,5.07512 -13.55679,4.85613z" fill="#353935" stroke="none" stroke-linecap="round"/><path d="M201.00389,95.16815c-1.01314,2.79562 -3.36618,5.12801 -6.20599,6.96316c-1.65484,1.38741 -3.92197,3.09805 -6.96932,2.46957c-4.04911,-0.88169 -10.11255,-3.02847 -10.9772,-6.22487c-1.13279,-4.22397 3.64047,-6.94124 6.01819,-10.09409c2.84667,-3.69958 3.97055,-10.03781 9.66721,-11.25622c3.38124,-0.6982 7.67176,4.9897 9.29761,8.25561c1.72598,3.4656 0.3025,6.87265 -0.83043,9.88691z" fill="#000000" stroke="none" stroke-linecap="round"/><g fill="#353935" stroke="none" stroke-linecap="round"><path d="M180.36669,106.90247c-3.47041,0.48005 -7.45291,-2.84964 -10.79667,-4.73719c-3.22405,-1.83827 -7.58832,-3.39008 -9.1424,-6.30053c-1.35567,-2.54162 -0.34627,-6.19546 2.38726,-6.68859c3.32262,-0.59786 7.49222,2.16049 10.99968,3.89566c3.66592,2.0335 8.7076,3.94325 10.18906,7.26177c1.2595,2.8198 -0.69714,6.23576 -3.63679,6.56888z"/><path d="M185.11755,99.00091c-3.47034,0.48013 -7.45291,-2.8495 -10.7966,-4.73712c-3.22412,-1.83834 -7.58839,-3.39015 -9.1424,-6.30053c-1.35574,-2.5417 -0.34634,-6.19553 2.38719,-6.68866c3.32269,-0.59779 7.49229,2.16056 10.99968,3.89566c3.666,2.03357 8.70767,3.94332 10.18913,7.26185c1.25936,2.8198 -0.69714,6.23576 -3.63686,6.56881z"/><path d="M190.0996,90.62798c-3.47041,0.4802 -7.45291,-2.8495 -10.79667,-4.73705c-3.22412,-1.83834 -7.58839,-3.39015 -9.1424,-6.30053c-1.35574,-2.5417 -0.34627,-6.19546 2.38719,-6.68866c3.32269,-0.59779 7.49229,2.16056 10.99968,3.89566c3.666,2.03357 8.70767,3.94332 10.18913,7.26185c1.25943,2.81973 -0.69714,6.23576 -3.63686,6.56881z"/><path d="M194.19445,81.38158c-3.47041,0.48005 -7.45291,-2.84964 -10.79667,-4.73719c-3.22405,-1.83827 -7.58832,-3.39008 -9.1424,-6.30053c-1.35567,-2.54162 -0.34627,-6.19546 2.38726,-6.68859c3.32262,-0.59786 7.49222,2.16049 10.99968,3.89566c3.66592,2.0335 8.7076,3.94325 10.18906,7.26177c1.2595,2.8198 -0.69714,6.23576 -3.63679,6.56888z"/></g><path d="" fill="#eac18d" stroke="none" stroke-linecap="butt"/></g><path d="M185.1811,162.08608c-4.26994,-4.8598 0.30681,-16.68864 7.11279,-18.06219c14.58012,-2.86279 29.20386,6.56938 43.67247,8.84987c16.54835,3.23721 36.79996,-3.04141 49.43914,7.80356c7.64156,6.57807 2.35764,25.92961 -7.4271,30.57608c-14.01966,6.49223 -31.49051,-0.3747 -47.14486,-5.04811c-16.46937,-4.92981 -34.39021,-11.13813 -45.65251,-24.11927z" data-paper-data="{&quot;origRot&quot;:0,&quot;origPos&quot;:null}" fill="#000000" stroke="url(#color-2)" stroke-linecap="round"/><path d="M282.36948,156.6424c3.98214,7.02836 7.01351,18.75983 1.95586,25.94361c-4.52973,5.23952 -15.88827,3.76973 -21.68788,-0.37653c-11.28896,-8.08251 -14.33383,-24.09389 -24.2276,-33.95711c-9.59996,-10.63743 -25.49184,-15.02086 -33.67172,-26.93129c-3.93272,-5.75097 -0.87193,-14.78963 2.73813,-20.75535c2.83437,-4.67383 9.69656,-10.22321 15.47772,-8.89272c7.74664,1.78375 13.63797,9.0726 18.94926,15.15634c13.94139,15.95466 29.91861,31.22888 40.46617,49.81313z" data-paper-data="{&quot;origRot&quot;:0,&quot;origPos&quot;:null}" fill="#ffffff" stroke="none" stroke-linecap="round"/><path d="M186.43551,164.0876c-4.55044,-4.70092 -5.21329,-18.66345 1.10804,-19.62419c14.26142,-2.15816 27.05963,10.51305 41.51,12.81277c17.20843,3.39977 38.10103,-5.43765 52.9152,4.18819c8.04072,5.23365 5.49012,25.16593 -3.73494,28.45002c-16.45947,6.80152 -35.64985,-1.11815 -53.32519,-6.04689c-13.87237,-3.87558 -28.56061,-9.54241 -38.47311,-19.7799z" data-paper-data="{&quot;origRot&quot;:0,&quot;origPos&quot;:null}" fill="#ffffff" stroke="none" stroke-linecap="round"/></g><path d="M321.71799,270.29737c-11.63417,14.01966 -48.27962,14.83871 -54.73501,-2.22357c-14.46436,-38.24776 -7.00771,-85.76173 7.70407,-124.66731c4.70862,-12.44395 31.3114,-11.85323 40.10024,-1.77208c12.81702,15.43812 7.95036,39.82984 9.06341,59.82194c1.19749,22.89562 12.74744,50.68598 -2.13278,68.84095z" data-paper-data="{&quot;origRot&quot;:0}" fill="#ffffff" stroke="#000000" stroke-width="2.5" stroke-linecap="round"/><g data-paper-data="{&quot;origRot&quot;:0}" stroke-width="2.5"><path d="M263.39588,319.74204c0,0 -28.96804,-26.49218 -49.54817,-40.47345c-14.20889,-9.65271 -56.58862,-29.69735 -73.98225,-64.44706c-17.39348,-34.7497 40.14634,-85.49282 59.6149,-78.99656c19.46856,6.49626 61.78572,56.74885 72.10347,66.87724c18.25948,17.92403 48.17299,44.13626 48.17299,44.13626z" data-paper-data="{&quot;origPos&quot;:null}" fill="#000000" stroke="none" stroke-linecap="butt"/><path d="M147.13841,225.7447c-6.45737,-8.40686 -13.20833,-18.81003 -6.13175,-25.20539c7.07658,-6.39536 19.77113,-12.80528 28.78123,-13.16704c5.60594,-0.21439 31.02636,18.10101 31.42644,27.17517c0.62841,8.32116 -20.26618,36.73893 -25.54727,35.30662c-11.46468,-3.13849 -20.40675,-13.53537 -28.52865,-24.10937z" data-paper-data="{&quot;origPos&quot;:null,&quot;index&quot;:null}" fill="#ffffff" stroke="#000000" stroke-linecap="round"/><path d="M240.41845,167.71238c2.43146,5.11832 -19.76081,32.43386 -27.65742,33.51439c-8.55217,1.47064 -30.91563,-20.79919 -31.87743,-26.59195c-1.5299,-9.31401 1.82137,-23.65965 6.32351,-32.24152c4.50222,-8.58194 15.61115,-3.81576 24.79597,1.06306c11.55257,6.13656 23.10973,13.1507 28.4153,24.25595z" data-paper-data="{&quot;origPos&quot;:null}" fill="#ffffff" stroke="#000000" stroke-linecap="round"/><path d="M245.94167,180.75426c8.97467,0.69021 14.96853,10.31732 21.15649,17.00309c3.78196,4.56968 8.7187,9.98003 8.2455,16.18207c-0.43841,6.00447 -19.43214,27.67913 -26.0455,28.60325c-5.58402,0.84174 -28.88022,-20.08014 -29.67819,-28.58882c-0.89781,-7.26022 19.86001,-33.69258 26.32177,-33.19951z" data-paper-data="{&quot;origPos&quot;:null}" fill="#ffffff" stroke="#000000" stroke-linecap="round"/><path d="M212.83181,222.12877c6.89429,0.59468 30.34535,19.97662 31.42644,27.17517c0.78963,5.63684 -18.4849,28.72041 -25.32849,29.93671c-7.8218,1.39053 -15.00191,-5.07993 -21.57934,-9.39109c-5.69426,-4.23253 -15.64368,-8.3305 -14.64347,-15.81911c1.30963,-9.77667 25.63142,-32.31245 30.12487,-31.90169z" data-paper-data="{&quot;origPos&quot;:null}" fill="#ffffff" stroke="#000000" stroke-linecap="round"/><path d="M315.55336,257.32756l-50.35428,61.17739l-36.77691,-31.55846l52.49525,-64.51211z" data-paper-data="{&quot;origPos&quot;:null}" fill="url(#color-3)" stroke="#000000" stroke-linecap="round"/><g fill="#000000" stroke="none"><path d="M191.61415,159.05125l3.9289,-4.64803l6.17163,6.35632l5.66244,-6.88969l3.85281,3.27242l-6.05305,6.74332l19.97365,16.96462l-3.66904,4.3118l-19.714,-17.30106l-5.2567,7.23434l-3.34582,-2.84179l5.9223,-7.22592z" stroke-linecap="round"/><g stroke-linecap="butt"><path d="M230.67736,172.84612c0.28723,0.24395 0.33312,0.45828 0.16942,0.66991c-1.1366,1.60711 -2.30503,3.18679 -3.4417,4.79383c-0.08181,0.10585 -0.1364,0.17642 -0.19092,0.24692c-0.25534,-0.21687 -0.47412,-0.34415 -0.69756,-0.53394c-0.09574,-0.08132 -0.14156,-0.29557 -0.05975,-0.40142c0.12714,-0.30123 0.28617,-0.57537 0.4406,-0.91181c0.25859,-0.5403 0.21744,-0.69219 -0.19742,-1.04454c-0.89371,-0.75908 -1.76494,-1.61602 -2.68587,-2.33967c-1.36804,-1.10344 -2.82249,-2.16346 -4.19046,-3.26697c-0.76608,-0.65054 -1.44575,-1.34478 -2.21176,-1.99538c-0.54278,-0.46103 -1.11723,-0.94894 -1.71912,-1.40163c0.14163,0.29564 0.27881,0.59574 0.39746,0.92214c0.50374,1.3312 0.78199,2.5482 1.13703,3.8304c0.29607,1.05154 0.26142,2.05054 0.50975,3.03441c0.22316,0.87271 0.45976,1.71813 0.58188,2.59911c0.08422,0.63717 0.88148,1.60669 0.28249,1.78919c-2.75227,0.68356 -4.98291,0.07601 -7.4925,0.18413c-1.49977,0.04695 -3.06686,0.23533 -4.55462,0.28228c-0.3713,0.01223 -0.30066,-0.0215 -0.4237,-0.0676l-0.05452,0.07064c0.63838,0.54207 1.27689,1.08442 1.91513,1.62663c1.55952,1.26607 3.15101,2.5593 4.68317,3.86066c1.14898,0.97588 2.27554,2.04969 3.39751,3.06107c0.28723,0.24395 0.60168,0.45262 0.91627,0.66129c0.25067,0.1545 0.54228,0.05141 0.76516,-0.1685c0.16836,-0.14927 0.2774,-0.29041 0.4138,-0.46683c0.19099,-0.24699 0.34592,-0.17395 0.47822,-0.00304c0.16426,0.19792 0.32378,0.33354 0.51534,0.49611c0.15952,0.13548 0.07764,0.24141 -0.0314,0.38254c-0.43183,0.62699 -0.86387,1.2542 -1.3003,1.81875c-0.45912,0.66221 -0.92313,1.2624 -1.38225,1.9246c-0.16362,0.21171 -0.2774,0.29055 -0.47355,0.06541c-0.16426,-0.19792 -0.38297,-0.32527 -0.54263,-0.46075c-0.19141,-0.16271 -0.17345,-0.32279 -0.04165,-0.56151c0.18625,-0.30943 0.37265,-0.61886 0.46782,-0.94766c0.02256,-0.09765 -0.02319,-0.31198 -0.08704,-0.36621c-0.70675,-0.65867 -1.47297,-1.30949 -2.1798,-1.96823c-0.77053,-0.71298 -1.5142,-1.46145 -2.31669,-2.20158c-0.22366,-0.19 -0.47906,-0.4068 -0.72973,-0.5613c-0.84775,-0.54468 -1.61871,-1.25794 -2.4485,-1.96272c-1.21311,-1.03025 -2.42149,-1.99821 -3.63432,-3.02833c-0.41521,-0.35256 -0.86196,-0.73214 -1.30419,-1.04921c-0.34182,-0.17338 -0.63307,-0.07007 -0.87879,0.24777c-0.02729,0.03521 -0.05459,0.07057 -0.05459,0.07057c-0.52298,0.60797 -0.76459,0.57806 -1.19812,-0.0239c-0.06378,-0.05416 -0.05042,-0.27669 0.00417,-0.34726c0.21821,-0.28228 0.43643,-0.56455 0.65492,-0.84711c0.68653,-0.81975 1.30963,-1.69402 1.93698,-2.50563c0.35461,-0.4587 0.63067,-0.3054 0.99235,-0.32612c1.64459,-0.13605 2.90791,0.10013 4.39594,0.19643c1.85022,-0.00636 3.71005,0.11964 5.62765,0.07347c0.47998,-0.0116 0.28871,0.18731 0.24551,-0.31749c-0.17642,-2.37114 -0.47143,-4.74447 -0.79924,-6.93453c-0.17359,-1.17486 -0.69593,-2.26444 -0.8247,-3.44821c-0.05692,-0.52262 -0.31558,-1.02792 0.12106,-1.59283c0.79571,-0.96089 1.55514,-2.01151 2.35085,-2.97239c0.1637,-0.21178 0.31403,-0.20103 0.50551,-0.0384c0.47899,0.40687 0.47899,0.40687 0.07439,0.99858c-0.43643,0.56455 -0.70074,0.63229 0.06548,1.28312c0.63831,0.54214 1.24493,1.05741 1.91053,1.56433c0.22345,0.18979 0.47419,0.34422 0.69756,0.53394c1.08541,0.92193 2.13886,1.8167 3.22405,2.73841c1.37256,1.16581 2.68602,2.33982 4.05865,3.50569c0.76601,0.65061 1.50501,1.33671 2.27554,2.04969c0.41521,0.35256 0.65662,0.38226 1.04319,-0.04929c0.10904,-0.14114 0.28199,-0.22811 0.35928,-0.39633c0.18166,-0.37173 0.37307,-0.20916 0.53273,-0.07354z"/></g></g><g><g><path d="M322.11553,362.39196c0,0 0.63123,0.06569 0.54836,-0.07573c-0.23426,-0.39902 -0.76226,-0.70739 -1.18249,-1.0043c-0.21666,-0.15316 -0.48896,-0.2057 -0.71757,-0.33899c-0.44725,-0.26014 -0.84577,-0.61115 -1.30893,-0.84068c-0.30922,-0.15351 -0.65768,-0.21418 -0.99179,-0.3008c-0.27719,-0.07227 -0.57566,-0.07502 -0.84386,-0.17579c-0.4949,-0.18505 -1.02919,-0.33255 -1.43514,-0.67741c-1.03817,-0.88176 -1.88713,-1.99263 -2.85127,-2.96327c-0.24126,-0.24254 -0.42801,-0.29875 -0.59142,-0.50233c-0.2979,-0.37031 -0.48437,-0.83509 -0.7822,-1.20548c-0.16341,-0.20343 -0.37809,-0.30271 -0.59114,-0.50205c-0.85221,-0.79776 -2.53434,-2.42361 -2.53434,-2.42361" fill="none" stroke="#7f7f7f" stroke-linecap="round"/><path d="M303.21228,348.92778c-1.63377,0.66984 -6.06676,-3.06 -9.38515,-3.51192c-1.74839,-0.23957 -3.49749,1.92899 -5.20968,1.52113c-4.23713,-1.00947 -7.98232,-3.52175 -11.82035,-5.58013c-2.50075,-1.34237 -4.53156,-3.62336 -7.18633,-4.61727c-1.64721,-0.61737 -3.68028,0.55147 -5.3272,-0.06576c-2.65476,-0.99391 -5.37514,-2.36527 -7.18661,-4.61741c-0.95339,-1.18419 -0.23582,-3.17328 -0.35391,-4.75961c-0.11802,-1.58668 0.00955,-3.22957 -0.35377,-4.75989c-0.38276,-1.61256 -1.87829,-2.86767 -1.85877,-4.55172c0.01846,-1.55104 1.01145,-3.04763 1.96307,-4.27856c0.95184,-1.23114 2.1426,-2.55951 3.58645,-2.89984c1.56766,-0.36897 3.09055,0.64198 4.63346,0.96258c1.54312,0.32081 3.2558,0.19955 4.63388,0.96273c3.71146,2.05528 7.17841,4.61048 10.43301,7.37477c2.1781,1.85 3.95655,4.19003 5.79891,6.41183c0.94215,1.13646 1.50041,2.63334 2.55266,3.65461c3.0634,2.97331 6.86466,5.09322 9.73934,8.27209c1.07197,1.18398 1.12168,3.10201 1.85905,4.552c1.04496,2.04976 4.66287,5.44677 3.48208,5.93036z" fill="none" stroke="#7f7f7f" stroke-linecap="round"/><path d="M256.73062,324.40985c0.50777,-0.07064 1.03047,0.06314 1.4478,0.41755c0.41755,0.35461 0.65054,0.86267 0.68999,1.39823c0.04009,0.53493 -0.11349,1.09637 -0.4703,1.55797c-0.35666,0.46132 -0.84909,0.73539 -1.35666,0.80525c-0.50799,0.07043 -1.03047,-0.06314 -1.44801,-0.41776c-0.41726,-0.35447 -0.65054,-0.86267 -0.68978,-1.39802c-0.04031,-0.53514 0.11342,-1.09686 0.47008,-1.55818c0.35688,-0.46167 0.84895,-0.73539 1.35687,-0.80504z" fill="url(#color-4)" stroke="none" stroke-linecap="butt"/><path d="M256.58637,329.11819c0.50777,-0.07064 1.03054,0.06322 1.4478,0.41755c0.41755,0.35461 0.65054,0.86267 0.69007,1.3983c0.04002,0.53486 -0.11349,1.09637 -0.47037,1.5579c-0.35666,0.46132 -0.84902,0.73546 -1.35658,0.80532c-0.50799,0.07043 -1.03047,-0.06314 -1.44808,-0.41783c-0.41719,-0.3544 -0.65054,-0.86267 -0.68978,-1.39802c-0.04031,-0.53514 0.11349,-1.09679 0.47016,-1.55811c0.35688,-0.46167 0.84902,-0.73546 1.35687,-0.80504z" fill="url(#color-5)" stroke="none" stroke-linecap="butt"/><path d="M259.58359,332.87175c0.50784,-0.07071 1.03054,0.06307 1.44773,0.41748c0.41755,0.35461 0.65054,0.86267 0.69014,1.39823c0.04002,0.535 -0.11349,1.09637 -0.47044,1.55797c-0.35666,0.46132 -0.84909,0.73539 -1.35658,0.80532c-0.50799,0.07043 -1.03047,-0.06314 -1.44808,-0.41783c-0.41719,-0.3544 -0.65054,-0.86267 -0.68978,-1.39802c-0.04031,-0.53514 0.11342,-1.09686 0.47008,-1.55818c0.35688,-0.46167 0.84909,-0.73539 1.35694,-0.80497z" fill="url(#color-6)" stroke="none" stroke-linecap="butt"/><path d="M263.76337,334.24769c0.50784,-0.07071 1.03047,0.06314 1.44773,0.41762c0.41755,0.35461 0.65054,0.86267 0.69007,1.39816c0.04009,0.53493 -0.11349,1.09637 -0.4703,1.55797c-0.35666,0.46132 -0.84909,0.73539 -1.35666,0.80525c-0.50799,0.07043 -1.03047,-0.06314 -1.44808,-0.41783c-0.41719,-0.3544 -0.65047,-0.8626 -0.68978,-1.39802c-0.04031,-0.53514 0.11342,-1.09686 0.47008,-1.55818c0.35688,-0.46167 0.84909,-0.73539 1.35701,-0.80504z" fill="url(#color-7)" stroke="none" stroke-linecap="butt"/><path d="M268.46825,334.37928c0.50784,-0.07071 1.03047,0.06314 1.44773,0.41748c0.41755,0.35461 0.65054,0.86267 0.69014,1.39823c0.03995,0.53493 -0.11356,1.0963 -0.47044,1.55797c-0.35666,0.46132 -0.84902,0.73532 -1.35658,0.80518c-0.50791,0.0705 -1.03047,-0.06314 -1.44801,-0.41776c-0.41726,-0.35447 -0.65054,-0.86267 -0.68985,-1.39795c-0.04023,-0.53521 0.11349,-1.09693 0.47016,-1.55825c0.35688,-0.46167 0.84902,-0.73532 1.35687,-0.80504z" fill="url(#color-8)" stroke="none" stroke-linecap="butt"/><path d="M272.85656,336.89857c0.50777,-0.07064 1.03047,0.06314 1.44773,0.41762c0.41755,0.35461 0.65054,0.86267 0.69007,1.39816c0.04002,0.535 -0.11356,1.09644 -0.47037,1.55804c-0.35666,0.46132 -0.84902,0.73532 -1.35666,0.80525c-0.50799,0.07043 -1.03047,-0.06314 -1.44794,-0.41783c-0.41726,-0.35447 -0.65054,-0.86267 -0.68985,-1.39795c-0.04023,-0.53521 0.11349,-1.09693 0.47016,-1.55825c0.35681,-0.4616 0.84895,-0.73539 1.35687,-0.80504z" fill="url(#color-9)" stroke="none" stroke-linecap="butt"/><path d="M276.71714,338.96991c0.50784,-0.07071 1.03054,0.06322 1.44773,0.41762c0.41755,0.35461 0.65054,0.86267 0.69007,1.39816c0.04009,0.53493 -0.11349,1.09637 -0.4703,1.55797c-0.35666,0.46132 -0.84902,0.73532 -1.35666,0.80525c-0.50799,0.07043 -1.03047,-0.06314 -1.44794,-0.41783c-0.41733,-0.3544 -0.65054,-0.86267 -0.68985,-1.39795c-0.04023,-0.53521 0.11349,-1.09693 0.47016,-1.55825c0.35681,-0.4616 0.84895,-0.73539 1.35687,-0.80504z" fill="url(#color-10)" stroke="none" stroke-linecap="butt"/><path d="M280.97351,341.3773c0.50784,-0.07071 1.03047,0.06314 1.44773,0.41748c0.41755,0.35461 0.65054,0.86267 0.69007,1.3983c0.04002,0.53486 -0.11349,1.09637 -0.47037,1.5579c-0.35666,0.46132 -0.84902,0.73546 -1.35658,0.80532c-0.50799,0.07043 -1.03047,-0.06314 -1.44808,-0.41783c-0.41719,-0.3544 -0.6504,-0.86267 -0.68978,-1.39802c-0.04031,-0.53514 0.11342,-1.09686 0.47008,-1.55818c0.35695,-0.4616 0.84909,-0.73539 1.35694,-0.80497z" fill="url(#color-11)" stroke="none" stroke-linecap="butt"/><path d="M284.83415,343.44855c0.50777,-0.07064 1.03054,0.06322 1.44773,0.41762c0.41755,0.35461 0.65054,0.86267 0.69014,1.39823c0.03995,0.53493 -0.11349,1.09637 -0.47044,1.55797c-0.35666,0.46132 -0.84895,0.73539 -1.35651,0.80525c-0.50806,0.0705 -1.03054,-0.06307 -1.44808,-0.41783c-0.41719,-0.3544 -0.65047,-0.8626 -0.68978,-1.39788c-0.04031,-0.53528 0.11342,-1.09701 0.47008,-1.55832c0.35688,-0.46153 0.84902,-0.73532 1.35694,-0.80497z" fill="url(#color-12)" stroke="none" stroke-linecap="butt"/><path d="M289.57751,344.09565c0.50784,-0.07071 1.03047,0.06314 1.44773,0.41748c0.41755,0.35461 0.65054,0.86267 0.69007,1.3983c0.04002,0.53486 -0.11342,1.0963 -0.47037,1.5579c-0.35666,0.46132 -0.84902,0.73546 -1.35658,0.80532c-0.50799,0.07043 -1.03047,-0.06314 -1.44808,-0.41783c-0.41719,-0.3544 -0.65047,-0.86274 -0.68978,-1.39802c-0.04023,-0.53521 0.11342,-1.09686 0.47008,-1.55818c0.35695,-0.4616 0.84902,-0.73532 1.35694,-0.80497z" fill="url(#color-13)" stroke="none" stroke-linecap="butt"/><g stroke="none" stroke-linecap="butt"><path d="M293.86279,344.08087c0.45743,-0.26269 0.99992,-0.34542 1.51957,-0.18569c0.51944,0.15952 0.91747,0.53097 1.14113,1.00296c0.22436,0.47171 0.27393,1.04284 0.0961,1.60237c-0.17791,0.5596 -0.54956,1.0014 -1.00699,1.26367c-0.45743,0.26269 -0.99985,0.34535 -1.51929,0.18597c-0.51944,-0.15966 -0.91775,-0.53125 -1.14141,-1.00324c-0.22436,-0.47171 -0.27393,-1.04284 -0.09603,-1.60245c0.17784,-0.55953 0.54949,-1.00133 1.00692,-1.2636z" fill="url(#color-14)"/><path d="M297.91068,345.34488c0.45736,-0.26276 0.99985,-0.34549 1.5195,-0.18576c0.51944,0.15952 0.91747,0.53097 1.14113,1.00296c0.22436,0.47171 0.27393,1.04284 0.0961,1.60252c-0.17784,0.55953 -0.54949,1.00133 -1.00699,1.26353c-0.45736,0.26276 -0.99992,0.34542 -1.51929,0.18597c-0.51944,-0.15952 -0.91768,-0.53118 -1.14141,-1.00324c-0.22436,-0.47171 -0.27386,-1.04277 -0.09603,-1.60245c0.17784,-0.55953 0.54949,-1.00133 1.00699,-1.26353z" fill="url(#color-15)"/></g><path d="M254.92616,314.46023c0.85878,-0.11943 1.74274,0.10663 2.44857,0.70626c0.70583,0.59949 1.10005,1.45897 1.16658,2.36428c0.06802,0.9051 -0.1917,1.85495 -0.795,2.63532c-0.6033,0.78036 -1.43585,1.24338 -2.29492,1.36153c-0.8585,0.11915 -1.74238,-0.10699 -2.44822,-0.70647c-0.70583,-0.59949 -1.10012,-1.45904 -1.16687,-2.364c-0.0676,-0.90524 0.19198,-1.85481 0.79528,-2.63517c0.6033,-0.78036 1.43599,-1.24366 2.29463,-1.36168z" fill="url(#color-16)" stroke="none" stroke-linecap="butt"/><path d="M263.35311,308.77855c0.50777,-0.07078 1.03054,0.06307 1.4478,0.41755c0.41748,0.35454 0.65047,0.8626 0.69007,1.39816c0.04002,0.535 -0.11356,1.09644 -0.47037,1.55804c-0.35666,0.46132 -0.84909,0.73539 -1.35666,0.80525c-0.50799,0.07043 -1.03047,-0.06314 -1.44794,-0.41783c-0.41733,-0.3544 -0.65054,-0.86267 -0.68985,-1.39795c-0.04031,-0.53514 0.11342,-1.09686 0.47008,-1.55818c0.35688,-0.46167 0.84902,-0.73532 1.35687,-0.80504z" fill="url(#color-17)" stroke="none" stroke-linecap="butt"/><path d="M268.26666,310.05319c0.5077,-0.07071 1.03047,0.06314 1.44773,0.41762c0.41748,0.35454 0.65047,0.8626 0.69007,1.39816c0.04009,0.53493 -0.11349,1.09637 -0.4703,1.55797c-0.35666,0.46132 -0.84909,0.73539 -1.35666,0.80525c-0.50799,0.07043 -1.03047,-0.06314 -1.44801,-0.41776c-0.41726,-0.35447 -0.65054,-0.86267 -0.68985,-1.39795c-0.04031,-0.53528 0.11349,-1.09693 0.47016,-1.55825c0.35688,-0.46167 0.84895,-0.73539 1.35687,-0.80504z" fill="url(#color-18)" stroke="none" stroke-linecap="butt"/><path d="M272.78668,312.68455c0.50777,-0.07064 1.03054,0.06322 1.44773,0.41762c0.41755,0.35461 0.65054,0.86267 0.69007,1.39816c0.04002,0.535 -0.11349,1.09637 -0.47037,1.55804c-0.35666,0.46132 -0.84902,0.73532 -1.35658,0.80518c-0.50799,0.07043 -1.03047,-0.06314 -1.44801,-0.41776c-0.41726,-0.35447 -0.65054,-0.86267 -0.68978,-1.39802c-0.04031,-0.53514 0.11342,-1.09686 0.47008,-1.55818c0.35688,-0.46167 0.84902,-0.73546 1.35694,-0.80511z" fill="url(#color-19)" stroke="none" stroke-linecap="butt"/><path d="M277.13887,316.38109c0.50777,-0.07064 1.03047,0.06314 1.44773,0.41748c0.41755,0.35461 0.65054,0.86267 0.69007,1.3983c0.04002,0.53486 -0.11349,1.09637 -0.47037,1.5579c-0.35659,0.46139 -0.84902,0.73546 -1.35658,0.80532c-0.50806,0.0705 -1.03054,-0.06307 -1.44808,-0.41783c-0.41719,-0.3544 -0.65054,-0.86267 -0.68985,-1.39795c-0.04023,-0.53521 0.11349,-1.09693 0.47016,-1.55825c0.35681,-0.4616 0.84902,-0.73532 1.35694,-0.80497z" fill="url(#color-20)" stroke="none" stroke-linecap="butt"/><path d="M281.33985,319.70782c0.50777,-0.07064 1.03054,0.06322 1.44773,0.41762c0.41755,0.35461 0.65054,0.86267 0.69007,1.39816c0.04009,0.53493 -0.11349,1.09637 -0.47037,1.55804c-0.35666,0.46132 -0.84902,0.73532 -1.35658,0.80518c-0.50799,0.07043 -1.03047,-0.06314 -1.44801,-0.41776c-0.41726,-0.35447 -0.6504,-0.86267 -0.68978,-1.39802c-0.04031,-0.53514 0.11342,-1.09686 0.47008,-1.55818c0.35688,-0.46167 0.84909,-0.73539 1.35687,-0.80504z" fill="url(#color-21)" stroke="none" stroke-linecap="butt"/><path d="M285.33487,323.58375c0.50777,-0.07078 1.03047,0.06314 1.4478,0.41755c0.41748,0.35454 0.65047,0.8626 0.68999,1.39823c0.04009,0.53493 -0.11349,1.09637 -0.4703,1.55797c-0.35666,0.46132 -0.84902,0.73532 -1.35666,0.80525c-0.50799,0.07043 -1.03047,-0.06314 -1.44801,-0.4179c-0.41726,-0.35433 -0.65047,-0.8626 -0.68985,-1.39795c-0.04031,-0.53514 0.11349,-1.09693 0.47016,-1.55825c0.35688,-0.46153 0.84902,-0.73532 1.35694,-0.80497z" fill="url(#color-22)" stroke="none" stroke-linecap="butt"/><path d="M288.97222,327.63957c0.50784,-0.07071 1.03054,0.06307 1.4478,0.41755c0.41755,0.35461 0.65054,0.86267 0.69007,1.39816c0.04002,0.535 -0.11349,1.09637 -0.47037,1.55804c-0.35666,0.46132 -0.84902,0.73532 -1.35666,0.80525c-0.50799,0.07043 -1.0304,-0.06322 -1.44794,-0.41783c-0.41733,-0.3544 -0.65047,-0.8626 -0.68985,-1.39795c-0.04023,-0.53521 0.11349,-1.09693 0.47016,-1.55825c0.35681,-0.4616 0.84902,-0.73532 1.35687,-0.80504z" fill="url(#color-23)" stroke="none" stroke-linecap="butt"/><path d="M292.57133,331.17956c0.50784,-0.07071 1.03047,0.06314 1.4478,0.41755c0.41755,0.35461 0.65054,0.86267 0.69007,1.39816c0.04002,0.535 -0.11349,1.09637 -0.47037,1.55804c-0.35666,0.46132 -0.84902,0.73532 -1.35666,0.80525c-0.50791,0.0705 -1.0304,-0.06322 -1.44794,-0.41783c-0.41726,-0.35447 -0.65054,-0.86267 -0.68985,-1.39795c-0.04023,-0.53521 0.11349,-1.09693 0.47016,-1.55825c0.35681,-0.4616 0.84902,-0.73532 1.35687,-0.80504z" fill="url(#color-24)" stroke="none" stroke-linecap="butt"/><path d="M296.45348,335.20144c0.50777,-0.07064 1.03047,0.06314 1.4478,0.41755c0.41755,0.35461 0.65054,0.86267 0.68999,1.39823c0.04009,0.53493 -0.11349,1.09637 -0.4703,1.55797c-0.35666,0.46132 -0.84909,0.73539 -1.35666,0.80525c-0.50799,0.07043 -1.03047,-0.06314 -1.44801,-0.41776c-0.41726,-0.35447 -0.65054,-0.86267 -0.68978,-1.39802c-0.04031,-0.53514 0.11342,-1.09686 0.47008,-1.55818c0.35688,-0.46167 0.84902,-0.73546 1.35687,-0.80504z" fill="url(#color-25)" stroke="none" stroke-linecap="butt"/><path d="M299.65915,340.09824c0.50777,-0.07064 1.03054,0.06322 1.44773,0.41762c0.41755,0.35461 0.65054,0.86267 0.69014,1.39823c0.03995,0.53493 -0.11349,1.09637 -0.47044,1.55797c-0.35659,0.46139 -0.84895,0.73539 -1.35651,0.80525c-0.50799,0.07043 -1.03061,-0.06314 -1.44808,-0.41783c-0.41726,-0.35447 -0.65047,-0.8626 -0.68978,-1.39802c-0.04031,-0.53514 0.11342,-1.09686 0.47008,-1.55818c0.35681,-0.4616 0.84902,-0.73532 1.35687,-0.80504z" fill="url(#color-26)" stroke="none" stroke-linecap="butt"/><path d="M305.16264,345.09712c1.22789,-0.01124 2.5482,0.45799 3.66974,1.41054c1.12182,0.95283 1.83353,2.20943 2.07748,3.47076c0.24395,1.26091 0.02072,2.52586 -0.72896,3.49544c-0.74939,0.9693 -1.88394,1.46081 -3.11127,1.47191c-1.22761,0.01096 -2.54792,-0.45828 -3.66974,-1.4111c-1.12154,-0.95254 -1.83325,-2.20914 -2.07741,-3.47027c-0.24423,-1.26105 -0.02072,-2.52628 0.72867,-3.49558c0.74953,-0.96958 1.88387,-1.46074 3.11148,-1.4717z" fill="#b2b2b2" stroke="none" stroke-linecap="butt"/><path d="M311.07538,352.90307c0.45736,-0.26276 0.99985,-0.34549 1.5195,-0.18576c0.51944,0.15952 0.91747,0.53097 1.14113,1.00296c0.22436,0.47171 0.27393,1.04284 0.0961,1.60252c-0.17784,0.55953 -0.54963,1.00133 -1.00699,1.26353c-0.45743,0.26269 -0.99985,0.34549 -1.51929,0.18597c-0.51944,-0.15952 -0.91768,-0.53118 -1.14141,-1.00324c-0.22436,-0.47171 -0.27393,-1.04284 -0.0961,-1.60237c0.17791,-0.5596 0.54956,-1.0014 1.00699,-1.26367z" fill="url(#color-27)" stroke="none" stroke-linecap="butt"/><path d="M314.31712,356.62283c0.45729,-0.26269 0.99978,-0.34542 1.5195,-0.18576c0.51937,0.15959 0.91747,0.53097 1.14106,1.00303c0.22444,0.47164 0.27393,1.04284 0.09617,1.60245c-0.17784,0.55953 -0.54963,1.00133 -1.00699,1.26353c-0.45743,0.26269 -0.99985,0.34549 -1.51929,0.18597c-0.51944,-0.15952 -0.91775,-0.53111 -1.14141,-1.00324c-0.22444,-0.47164 -0.27393,-1.04284 -0.0961,-1.60237c0.17791,-0.5596 0.54956,-1.0014 1.00699,-1.26367z" fill="url(#color-28)" stroke="none" stroke-linecap="butt"/><path d="M319.29288,358.22327c0.50784,-0.07071 1.03047,0.06314 1.4478,0.41755c0.41755,0.35461 0.65054,0.86267 0.69007,1.39816c0.04002,0.535 -0.11349,1.09637 -0.47037,1.55804c-0.35666,0.46132 -0.84902,0.73532 -1.35658,0.80518c-0.50799,0.07043 -1.03047,-0.06314 -1.44801,-0.41776c-0.41726,-0.35447 -0.65054,-0.86267 -0.68978,-1.39802c-0.04038,-0.53521 0.11335,-1.09693 0.47001,-1.55825c0.35695,-0.4616 0.84902,-0.73532 1.35694,-0.80497z" fill="url(#color-29)" stroke="none" stroke-linecap="butt"/><path d="M326.37563,361.94967l2.10492,-3.35621l2.97798,2.79993l-1.85212,3.02932l8.34216,7.89753l-2.906,3.75891l-8.80461,-6.66618l-3.18,3.79674l-2.97777,-2.80028l2.90578,-3.75856l-2.95627,-2.51094l3.41115,-4.41242z" fill="#b2b2b2" stroke="none" stroke-linecap="round"/><path d="M323.46983,363.96704l11.29603,8.5113" fill="none" stroke="#7f7f7f" stroke-linecap="round"/><path d="M327.98282,363.19764l-4.56982,5.59399" fill="none" stroke="#7f7f7f" stroke-linecap="round"/></g><path d="M327.23992,257.18905l-57.90971,68.68955l-11.17179,-9.00564l54.86187,-68.13822z" fill="#000000" stroke="none" stroke-linecap="round"/><g><g><g><path d="M328.77562,243.03757l-0.87455,-10.6438l32.32581,30.11059l-11.57597,3.90174l-25.6737,-18.24215z" fill="#363a37" stroke="none" stroke-linecap="round"/><path d="M309.61946,229.59144l13.41198,12.25275l-20.84013,15.74656l-23.44314,-20.76419z" fill="#000000" stroke="none" stroke-linecap="round"/><path d="M340.11323,246.50989l27.15955,24.81195l-3.52747,4.27347l-27.15983,-24.81167z" fill="url(#color-30)" stroke="url(#color-31)" stroke-linecap="round"/><path d="M331.56811,220.29459c0.84704,0.77407 1.44476,1.68419 1.72357,2.52911c0.27874,0.84499 0.23829,1.62521 -0.18463,2.13794c-0.42356,0.51279 -1.15216,0.66397 -1.9864,0.49215c-0.83467,-0.17169 -1.77491,-0.66701 -2.62202,-1.44101c-0.84718,-0.77379 -1.4449,-1.6839 -1.72371,-2.52883c-0.27874,-0.84499 -0.23865,-1.62543 0.18484,-2.13815c0.42306,-0.51272 1.15174,-0.66397 1.9864,-0.49215c0.83439,0.17197 1.7747,0.66723 2.62195,1.44094z" fill="#ff0000" stroke="none" stroke-linecap="butt"/><path d="M290.9705,209.23904l14.04604,-0.86529l10.58928,9.02205l-2.74251,-9.02799l10.64634,10.37821l3.6083,9.16672l9.72392,8.88317l5.51953,13.7388l-8.85524,9.30256l-39.46016,-31.04828z" fill="#000000" stroke="none" stroke-linecap="round"/><path d="M312.51054,202.15075l20.33222,18.35755l-4.45025,-1.02177l-1.20852,1.93924l1.89222,4.12017l-20.45349,-18.68516z" fill="#000000" stroke="none" stroke-linecap="round"/></g><path d="M378.94547,288.77953v0l-0.18356,-0.1294v0z" fill="#cccccc" stroke="none" stroke-linecap="butt"/></g><path d="M374.90048,265.06098l-14.67529,17.00436l-21.01118,-6.7347l-33.75077,-20.21208l26.17964,-26.7985z" fill="#353935" stroke="none" stroke-linecap="round"/></g><g stroke-linecap="butt"><path d="M323.69929,269.39919l-10.145,13.12263l-21.10127,-17.92226l10.145,-13.12263z" fill="#cccc00" stroke="#000000"/><path d="M298.31479,262.00817c0.55282,-0.07637 1.12472,0.07113 1.5784,0.45651c0.45368,0.38537 0.71001,0.94123 0.75328,1.52389c0.04335,0.58273 -0.12601,1.19727 -0.51378,1.69889c-0.38778,0.50162 -0.92631,0.80257 -1.47913,0.87893c-0.55289,0.07644 -1.12472,-0.07113 -1.5784,-0.45651c-0.45368,-0.38537 -0.71001,-0.94123 -0.75335,-1.52396c-0.04327,-0.58266 0.12601,-1.19727 0.51378,-1.69889c0.38785,-0.50155 0.92638,-0.8025 1.47913,-0.87893z" fill="#ff0000" stroke="none"/></g><g stroke="none"><path d="M320.50494,297.24543l-12.54422,15.47376l-34.81914,-31.17556l12.54386,-15.47397z" fill="url(#color-32)" stroke-linecap="butt"/><path d="M322.04339,296.70683l-5.22191,12.88426l-8.70781,5.37309l-3.19824,-2.4975l14.60607,-18.01772z" fill="#666666" stroke-linecap="round"/><path d="M317.4274,297.78292l-1.20258,1.48386l-32.52352,-29.12035l1.20293,-1.48365z" fill="#666666" stroke-linecap="butt"/><path d="M314.85006,300.9624l-1.03089,1.27173l-32.9062,-29.46288l1.0311,-1.27152z" fill="#666666" stroke-linecap="butt"/><path d="M280.67277,262.33783c1.44978,-1.04206 3.70665,-0.95558 4.82487,0.15783c0.9372,0.93225 0.67097,2.38486 -0.16256,4.51947c-0.83354,2.13461 -2.38062,4.7268 -4.44296,7.27083c-2.06192,2.54389 -4.25183,4.56084 -6.12461,5.76483c-1.87263,1.20427 -3.42777,1.59594 -4.21959,0.88671c-0.79238,-0.70923 -0.67126,-2.38514 0.16207,-4.5194c0.83382,-2.13433 2.80509,-4.92627 4.44296,-7.27097c1.68836,-2.41668 3.07252,-5.34601 5.51982,-6.8093z" fill="#b2b2b2" stroke-linecap="round"/><path d="M308.1486,309.22955l-1.0311,1.27152l-32.52366,-29.12007l1.03124,-1.27194z" fill="#666666" stroke-linecap="butt"/><path d="M271.94553,290.35015v0l-0.19141,-0.17119v0z" fill="#666666" stroke-linecap="butt"/><path d="M288.24694,266.1686l-14.60614,18.01765l-3.06092,-2.74075l13.36404,-17.30064l-5.45052,-3.05117l8.71559,-0.97616z" fill="#666666" stroke-linecap="round"/><path d="M301.48277,292.983l-4.81137,5.93524l-9.56553,-8.56455l4.8113,-5.93531z" fill="#000000" stroke-linecap="butt"/><path d="M292.62075,289.45214c0.76127,0.01853 1.57501,0.33771 2.2614,0.95212c0.68667,0.61469 1.1156,1.40849 1.25391,2.1955c0.14029,0.78673 -0.01089,1.5661 -0.48508,2.1513c-0.47426,0.58513 -1.18235,0.86529 -1.94377,0.8452c-0.76155,-0.01881 -1.57522,-0.33807 -2.26175,-0.95247c-0.68618,-0.61476 -1.11511,-1.40842 -1.25391,-2.1955c-0.14029,-0.78673 0.01089,-1.5661 0.48536,-2.15102c0.47426,-0.58513 1.18228,-0.86578 1.94377,-0.8452z" fill="#ff0000" stroke-linecap="butt"/><path d="M272.55539,318.5161c-0.07106,0.08747 -0.13562,0.16702 -0.18222,0.22493c-0.04667,0.05756 -0.07552,0.09334 -0.07552,0.09334c0,0 0.02885,-0.03578 0.07552,-0.09334c0.0466,-0.05791 0.11116,-0.13746 0.18222,-0.22493c0.07064,-0.08733 0.13506,-0.16688 0.18194,-0.22465c0.04674,-0.05749 0.07559,-0.09327 0.07559,-0.09327c0,0 -0.02892,0.03571 -0.07559,0.09327c-0.04681,0.05784 -0.1113,0.13732 -0.18194,0.22465z" fill="#ff0000" stroke-linecap="butt"/></g><g stroke="none" stroke-linecap="butt"><path d="M305.22719,279.72815l-8.79231,11.37296l-8.5724,-7.28094l8.79231,-11.37296z" fill="url(#color-33)"/><path d="M280.28965,293.61556l7.89046,-10.20652l8.5724,7.28094l-7.8906,10.20652z" fill="url(#color-34)"/></g><g stroke="none" stroke-linecap="butt"><g><path d="M272.57654,291.67951c3.65737,-0.50523 7.42328,0.45813 10.42841,3.01044c3.00506,2.55237 4.68487,6.21434 4.9711,10.06906c0.28652,3.855 -0.82031,7.90185 -3.38881,11.22426c-2.56849,3.32227 -6.11619,5.29609 -9.77335,5.8011c-3.65701,0.50544 -7.42307,-0.45792 -10.42813,-3.01029c-3.00506,-2.55237 -4.68479,-6.21427 -4.97131,-10.06927c-0.28638,-3.85444 0.82039,-7.90135 3.38881,-11.22369c2.56842,-3.32234 6.11619,-5.29609 9.77328,-5.8016z" fill="#000000"/><path d="M264.87578,317.9623c-5.46714,-4.6435 -5.96176,-13.50037 -1.10478,-19.78287c4.8569,-6.28257 12.93928,-7.141 18.40613,-2.49778c5.46735,4.64371 6.24814,13.03099 1.3913,19.31321c-4.85676,6.28229 -13.22565,7.6108 -18.69272,2.96737z" fill="url(#color-35)"/><path d="M269.8145,299.1093c0.51789,-0.32004 4.97103,-0.40595 5.72127,-0.07304c0.75059,0.33255 1.28983,4.87232 1.07367,5.58826c-0.21623,0.71531 -4.40047,3.504 -5.01572,3.50124c-0.61476,-0.00283 -4.5508,-2.76917 -4.66599,-3.55385c-0.11441,-0.78517 2.36916,-5.14286 2.8869,-5.46261z" fill="#000000"/><path d="M274.92822,316.41112c0.29585,1.43104 1.06717,3.65277 -0.22111,4.45428c-1.87185,1.15697 -4.72821,0.99525 -6.33087,-0.38339c-1.24705,-1.07226 -0.4266,-3.55851 0.16525,-5.20466c0.79938,-2.22152 3.0279,-8.22867 3.85345,-5.83575z" fill="url(#color-36)"/><path d="M287.23083,309.91742l-2.34604,5.38716c-0.98231,0.63187 -2.50365,-0.84577 -3.23919,-1.94546c-1.4869,-1.98754 -3.93307,-4.81059 -3.1747,-6.9621c0.57587,-1.62493 4.03942,-1.08993 5.73944,-0.31947c1.55549,0.53768 3.02048,3.83987 3.02048,3.83987z" fill="url(#color-37)"/><path d="M261.24741,314.67816l-1.34202,-7.29501c0.13499,-1.16595 1.4193,-2.08964 2.47205,-2.33458c1.32781,-0.42483 3.68954,-0.87695 3.9791,0.51923c0.50692,2.42757 -1.00381,4.98991 -2.29951,7.27401c-0.56512,0.99787 -2.80962,1.83636 -2.80962,1.83636z" fill="url(#color-38)"/><path d="M277.36782,292.76301c2.73954,0.76007 5.23761,2.779 7.04095,5.10192c0.49066,0.6342 -1.34831,1.06646 -2.10195,1.25101c-1.84725,0.34068 -3.95251,1.22747 -5.53622,0.29105c-1.05875,-0.62388 -0.89392,-2.89447 -0.57014,-3.87176z" fill="url(#color-39)"/><path d="M263.33224,298.20951l2.70716,-3.25135l3.59896,-1.64381c0,0 0.85433,0.80356 0.79267,1.33035c-0.16221,1.40417 -0.13548,3.45973 -1.27548,4.36695c-1.23588,0.95997 -3.09911,0.51845 -4.63318,0.35617c-0.5408,-0.10819 -1.19027,-1.15831 -1.19027,-1.15831z" fill="url(#color-40)"/></g><path d="M271.72765,300.55546c0.52375,-0.07205 1.06306,0.06576 1.49376,0.43155c0.43049,0.36557 0.6709,0.89011 0.7122,1.44207c0.0408,0.55204 -0.11759,1.13158 -0.48543,1.60747c-0.36819,0.47624 -0.87632,0.75865 -1.39993,0.83127c-0.52375,0.0722 -1.06285,-0.06583 -1.49334,-0.43155c-0.43063,-0.36586 -0.67126,-0.89004 -0.71255,-1.442c-0.0408,-0.55204 0.1178,-1.13137 0.48592,-1.60754c0.36798,-0.47588 0.87575,-0.75851 1.39944,-0.8312z" fill="url(#color-41)"/></g></g></g><g data-paper-data="{&quot;origRot&quot;:0}" stroke-width="2.5"><g data-paper-data="{&quot;origPos&quot;:null}"><path d="M121.7496,120.4008c7.29953,-5.38808 15.75498,-10.75417 24.80976,-11.18212c7.01273,-0.33453 14.20302,4.05915 18.26407,9.6566c9.43118,11.79037 19.90265,25.22872 20.54859,40.35847c0.46146,11.0262 -7.36841,23.36429 -16.88019,28.51238c-9.07487,4.91015 -21.27981,1.75179 -30.93048,-1.89752c-12.02767,-4.40535 -22.86182,-12.48645 -29.98317,-22.92285c-5.06791,-6.1857 -6.38199,-15.89725 -4.01375,-23.4565c2.64012,-8.43543 10.87184,-14.17544 18.18502,-19.06834z" fill="#ffd499" stroke="none" stroke-linecap="butt"/><path d="M191.2985,158.72641c0,0 -46.98251,37.70824 -60.55401,33.99805c-18.92649,-4.90541 -38.93146,-28.76765 -38.93146,-28.76765c0,0 -19.71767,-19.52081 -18.96114,-20.26858c0.73207,-0.72344 28.08232,-20.91028 28.08232,-20.91028c0,0 17.93859,-13.38794 37.82116,-15.72252c15.87575,-1.86415 37.85539,9.54637 48.32481,15.7262c10.46949,6.17976 24.75397,17.64882 24.75397,17.64882z" data-paper-data="{&quot;origPos&quot;:null}" fill="#ffffff" stroke="#000000" stroke-linecap="round"/><g fill="#ff0000" stroke="none" stroke-linecap="butt"><path d="M91.2417,160.26174l35.49655,-27.85569l7.62586,9.71777l-34.53517,27.0585z" data-paper-data="{&quot;origPos&quot;:null}"/><path d="M101.84759,171.04314l20.86962,-16.36295l2.01228,2.56439l-20.38879,15.96442z" data-paper-data="{&quot;origPos&quot;:null}"/></g><path d="M185.09519,123.03107l6.96316,6.09413l-39.56446,30.1755c0,0 -19.39056,14.30053 -32.37757,0.98274c-10.01383,-10.26896 7.55056,-25.11664 7.55056,-25.11664l29.28808,-22.98352z" fill="#000000" stroke="#000000" stroke-linecap="round"/><path d="M118.95857,146.5802c2.05853,-5.15269 9.84993,-12.6932 10.83874,-12.86715c0.93345,-0.16115 -4.03129,7.9133 -5.74072,12.13791c-1.03273,3.2529 -1.11334,9.98088 -2.45373,10.21267c-1.2426,0.21178 -3.62279,-6.33398 -2.64416,-9.48343z" fill="#ffffff" stroke="none" stroke-linecap="round"/></g><path d="M121.41578,165.65994l-3.90479,14.23236l-7.29211,-5.90929z" data-paper-data="{&quot;origPos&quot;:null}" fill="#000000" stroke="none" stroke-linecap="round"/></g><g data-paper-data="{&quot;origRot&quot;:0}" stroke-width="2.5"><path d="M238.63965,267.48063c-4.54097,8.6856 -22.9483,-3.00959 -29.30703,-12.01968c-7.64538,-10.94446 -3.53511,-26.23168 -6.27218,-39.66233c-2.9137,-14.40461 -12.52357,-29.03918 -8.78997,-43.26242c2.44631,-9.26225 15.73369,-20.69984 22.77952,-15.19396c13.56464,9.61771 15.77605,29.56039 18.67108,45.60351c3.8777,21.16802 12.3796,47.17152 2.91858,64.53474z" data-paper-data="{&quot;origPos&quot;:null,&quot;origRot&quot;:0}" fill="#000000" stroke="url(#color-42)" stroke-linecap="round"/><path d="M136.38955,222.16095c-2.97727,-5.74333 4.30748,-16.12607 11.24413,-15.82406c14.84097,0.72415 26.77007,13.39359 40.2669,19.08368c15.28574,7.11837 35.06769,6.98395 46.11595,19.4535c6.26878,7.09426 5.13961,25.39171 -3.61897,26.93087c-18.95972,3.93427 -38.68638,-6.10106 -55.48787,-15.2624c-15.13095,-8.189 -30.70682,-19.07463 -38.52028,-34.38144z" data-paper-data="{&quot;origPos&quot;:null}" fill="#000000" stroke="url(#color-43)" stroke-linecap="round"/><g data-paper-data="{&quot;origPos&quot;:null,&quot;origRot&quot;:0}"><g fill="#363a36" stroke="none" stroke-linecap="round"><path d="M174.4043,150.16389c-3.34504,-1.98881 -4.49423,-7.63916 -6.08861,-11.59514c-1.52459,-3.83033 -4.23734,-8.20166 -3.56898,-11.80522c0.58435,-3.14606 3.99339,-5.61761 6.70747,-4.15171c3.29894,1.78389 5.00639,7.06817 6.84776,11.00527c1.773,4.30571 4.82593,9.45805 3.81166,13.36481c-0.86119,3.32093 -4.92698,4.92967 -7.7093,3.18198z"/><path d="M183.69901,146.49055c-3.34497,-1.98874 -4.49416,-7.63909 -6.08861,-11.59514c-1.52452,-3.83026 -4.23727,-8.20159 -3.56891,-11.80515c0.58435,-3.14606 3.99339,-5.61761 6.70747,-4.15171c3.29894,1.78389 5.00639,7.06817 6.84776,11.00527c1.773,4.30571 4.82593,9.45805 3.81166,13.36481c-0.86119,3.32093 -4.92698,4.92967 -7.70937,3.18191z"/><path d="M194.12276,142.82322c-3.34504,-1.98881 -4.49423,-7.63916 -6.08861,-11.59514c-1.52459,-3.83033 -4.23734,-8.20166 -3.56898,-11.80522c0.58428,-3.14599 3.99339,-5.61761 6.70747,-4.15171c3.29894,1.78389 5.00639,7.06817 6.84776,11.00527c1.773,4.30571 4.82586,9.45812 3.81166,13.36481c-0.86119,3.32093 -4.92698,4.92967 -7.7093,3.18198z"/><path d="M204.03506,137.74978c-3.3449,-1.98881 -4.49416,-7.63909 -6.08861,-11.59514c-1.52452,-3.83026 -4.23727,-8.20173 -3.56898,-11.80522c0.58442,-3.14599 3.99346,-5.61768 6.70754,-4.15164c3.29894,1.78375 5.00632,7.0681 6.84769,11.0052c1.77307,4.30579 4.826,9.45812 3.81173,13.36474c-0.86119,3.32107 -4.92691,4.92974 -7.70937,3.18205z"/></g><g stroke-linecap="round"><path d="M194.82611,168.04703c-9.92601,-8.28722 -11.85281,-7.64184 -12.94656,-8.19353c-4.3719,-2.20023 -9.03866,-4.67822 -11.85917,-8.67691c-2.66141,-3.7833 -4.60616,-11.81045 -3.97366,-13.11513c0.87858,-1.19452 5.1191,4.73245 7.50976,7.26326c1.56292,1.64862 3.13022,3.30657 4.64392,5.00313c1.57331,1.76338 3.12838,3.55335 4.62695,5.38342c0.8078,0.98755 2.54657,1.97749 2.29626,3.07111z" fill="none" stroke="#353937"/><path d="M198.73719,179.1815c-1.2892,-2.95698 -2.25878,-6.09017 -3.93788,-8.85213c-1.20965,-1.99157 -2.74273,-3.79886 -4.31625,-5.52116c-3.26294,-3.57124 -7.43714,-6.3728 -10.1858,-10.35155c-3.28762,-4.77311 -7.34359,-10.26875 -7.85772,-16.40976c-0.12558,-2.64939 3.9342,-3.75219 6.26277,-5.5766c3.01701,-2.34286 6.39373,-4.25431 9.78367,-6.02639c4.50915,-2.35912 8.95742,-6.578 14.13238,-6.2866c3.69831,0.25979 5.84636,4.69533 8.25172,7.67713c1.42284,1.75971 2.05231,4.06162 2.76351,6.21207c0.72266,2.19359 1.38147,4.46064 1.52092,6.76482c0.1393,2.27844 -0.72365,4.53736 -0.68816,6.81736c0.03627,2.36506 0.18745,4.7869 0.89972,7.0408c2.05125,6.48424 4.82947,12.73803 7.35837,19.05066c0.84259,2.10322 3.33429,4.15001 2.76323,6.21207c-10.18601,8.06597 -15.32364,10.93534 -21.60395,9.98251c-3.75947,-0.83191 -3.40804,-7.16815 -5.14661,-10.73317z" fill="#ffffff" stroke="#ffffff"/></g><path d="M184.34417,155.91247c-0.29373,-0.02418 -0.55784,-0.04589 -0.75392,-0.06194c-0.19163,-0.0157 -0.31077,-0.02567 -0.31077,-0.02567c0,0 0.11915,0.00997 0.31077,0.02567c0.19615,0.01598 0.46019,0.03776 0.75392,0.06194c0.29373,0.02418 0.55784,0.04589 0.75392,0.06194c0.1917,0.01563 0.31084,0.0256 0.31084,0.0256c0,0 -0.11915,-0.00997 -0.31084,-0.0256c-0.19608,-0.01605 -0.46019,-0.03776 -0.75392,-0.06194z" fill="#eac18d" stroke="none" stroke-linecap="butt"/><path d="M207.43454,147.84332c-3.1566,5.0754 -8.61447,9.73481 -14.52185,10.7015c-3.24965,0.45092 -5.14774,-4.39948 -7.03805,-7.1526c-2.28912,-3.34228 -5.07462,-7.0961 -5.42987,-11.33945c-0.08683,-1.8307 2.7184,-2.59268 4.32749,-3.85359c2.08498,-1.61885 4.41793,-2.93937 6.76051,-4.16401c3.11594,-1.63016 6.26836,-4.96361 9.76543,-4.34404c2.95373,0.56554 4.50243,4.90803 5.40498,8.39392c1.29839,3.62336 2.90055,8.21941 0.7315,11.75827z" fill="#000000" stroke="#000000" stroke-linecap="round"/></g><path d="M243.29396,246.43442c0.12523,8.07707 -2.83868,19.82565 -10.72122,23.70554c-6.48707,2.42658 -15.75059,-4.30876 -18.85253,-10.72787c-6.03219,-12.50518 -1.02842,-28.01642 -4.98263,-41.41546c-3.32503,-13.93757 -15.17027,-25.40324 -16.63879,-39.77716c-0.69424,-6.93247 6.32507,-13.39727 12.3533,-16.90211c4.728,-2.74287 13.4107,-4.32311 17.84624,-0.38396c5.94323,5.27912 7.61915,14.50029 9.36372,22.38552c4.58601,20.68542 11.28493,41.74949 11.63191,63.1155z" data-paper-data="{&quot;origPos&quot;:null,&quot;origRot&quot;:0}" fill="#ffffff" stroke="none" stroke-linecap="round"/><path d="M137.41704,224.70137c-3.28776,-5.65657 -0.57636,-19.36928 5.7905,-18.78316c14.36226,1.33155 23.74104,16.7066 37.2156,22.4109c15.88749,7.43473 36.82548,5.41142 50.35901,16.77908c6.5686,5.51996 9.80835,24.7894 1.56766,26.00215c-21.6357,2.73785 -43.36028,-8.6156 -62.3391,-17.96475c-12.92209,-6.3675 -25.43138,-16.125 -32.59373,-28.44429z" data-paper-data="{&quot;origPos&quot;:null}" fill="#ffffff" stroke="none" stroke-linecap="round"/></g><path d="M289.31997,158.10634c-0.69494,-11.30183 14.71871,-29.76948 25.19726,-24.03788c30.24557,16.56928 55.62378,45.48556 69.02324,77.23855c5.27445,12.51324 -10.10689,36.60656 -23.25455,34.79467c-18.70792,-2.6071 -29.12615,-26.94586 -41.65849,-42.20042c-11.11353,-13.59773 -28.25783,-27.45667 -29.30753,-45.79499z" fill="#ffffff" stroke="#000000" stroke-width="2.5" stroke-linecap="round"/><path d="M318.47089,128.09545c7.64036,4.51056 17.09381,13.95779 14.39818,22.69198c-3.90302,13.54046 -16.53626,25.24894 -30.09178,30.31084c-6.4042,2.3157 -10.59458,-8.58654 -15.73553,-13.0539c-3.95655,-4.12385 -12.36079,-7.0449 -11.51905,-12.69016c1.68171,-11.26725 8.86252,-22.89477 18.20383,-28.67212c7.23045,-4.73776 17.67357,-2.75659 24.74428,1.41329z" fill="#666666" stroke="#000000" stroke-width="2.5" stroke-linecap="round"/><g stroke="none" stroke-width="2.5"><path d="M364.21935,263.50336c-2.36768,1.19543 -3.95032,-2.53554 -5.55114,-4.26025c-6.06507,-7.68137 -12.38773,-14.9295 -17.76585,-23.02912c-3.64577,-5.49443 -16.03732,-22.06329 -17.73615,-33.12845c-0.98684,-6.42873 12.54061,11.07407 19.36476,9.0369c12.51211,-3.71288 19.37762,-18.30353 30.98351,-24.01229c2.89949,-1.42786 9.09361,13.84961 12.52244,13.29714c7.57552,-1.22909 12.18946,-11.14125 19.75204,-11.23154c4.98567,-0.0594 8.72343,5.96784 11.9122,10.03441c1.81253,2.31344 3.57959,5.99718 3.57959,5.99718c0,0 -47.61912,52.51668 -57.06133,57.29594z" data-paper-data="{&quot;origPos&quot;:null}" fill="url(#color-44)" stroke-linecap="round"/><path d="M364.64029,263.33373c-4.25431,0.94236 -7.89089,-7.44824 -7.89089,-7.44824c0,0 12.40619,-8.24586 24.13794,-19.06459c12.90604,-11.90153 36.88085,-37.04094 36.88085,-37.04094c0,0 4.77297,5.33993 2.955,7.83036c-1.81797,2.49043 -20.72841,23.32901 -34.05129,35.54937c-7.26545,6.66639 -18.92543,19.48588 -22.03161,20.1739z" data-paper-data="{&quot;origPos&quot;:null}" fill="url(#color-45)" stroke-linecap="round"/><g data-paper-data="{&quot;origPos&quot;:null}" stroke-linecap="butt"><g data-paper-data="{&quot;origPos&quot;:null}"><path d="M366.6858,250.89078c0,0 -4.70396,-11.66896 -9.07324,-18.17809c-5.31299,-7.91486 -12.495,-21.3996 -12.495,-21.3996c0,0 0.38735,-0.46245 1.01491,-0.72401c0.88749,-0.36975 2.43598,-0.46231 2.43598,-0.46231l22.0536,37.47489z" data-paper-data="{&quot;origPos&quot;:null}" fill="url(#color-46)"/><path d="M357.472,229.31404c0.31176,-0.14672 0.48628,0.08789 0.53613,0.17098c0.22479,0.11589 0.43883,0.22939 0.64071,0.38544c1.93938,1.50027 2.52607,1.95458 2.35629,4.3608c-0.12749,1.52403 1.07629,0.10642 1.97742,1.50296c0.18554,0.28751 -0.20117,1.59799 -0.1731,1.99065c0.13279,2.32412 2.29173,1.07763 2.47926,3.69774c0.09249,1.62083 -0.61858,3.532 1.77222,3.36081c1.50798,0.8235 0.14524,3.05894 0.24926,4.51254c0,0 0.02956,0.41309 -0.38346,0.44272c-0.41309,0.02956 -0.44265,-0.38353 -0.44265,-0.38353c-0.06901,-0.96379 0.37342,-3.4673 0.57785,-3.74173c-2.80728,0.16864 -2.41823,-2.24528 -2.5994,-4.1317c-0.1294,-1.80779 -2.2527,-1.3394 -2.47912,-3.69774c-0.03451,-0.48196 -0.11448,-1.53973 -0.05565,-2.05082c-0.5555,0.1417 -1.82801,0.03069 -1.74882,-1.56016c0.098,-1.38904 -0.93543,-2.79526 -2.03682,-3.64733c-0.18399,-0.14227 -0.35567,-0.2233 -0.56243,-0.32965l-0.30582,-0.33086c0,0 -0.17649,-0.37463 0.1982,-0.55105z" data-paper-data="{&quot;origPos&quot;:null,&quot;origRot&quot;:0}" fill="#000000"/><path d="M359.11494,230.59254c-0.30059,0.16836 -0.49116,-0.05346 -0.54681,-0.13272c-0.23236,-0.09984 -0.45382,-0.19799 -0.66624,-0.33955c-2.04,-1.36005 -2.65731,-1.77187 -2.65731,-4.18409c0.02001,-1.52926 -1.08102,-0.03041 -2.07826,-1.36012c-0.20527,-0.27372 0.08818,-1.60817 0.03253,-1.99786c-0.29592,-2.30892 -2.36174,-0.91372 -2.73325,-3.51418c-0.2064,-1.61029 0.36854,-3.56679 -2.00436,-3.2278c-1.56214,-0.71531 -0.35999,-3.04105 -0.56611,-4.48376c0,0 -0.05862,-0.40991 0.35136,-0.4686c0.40998,-0.05855 0.46853,0.35143 0.46853,0.35143c0.13675,0.95657 -0.12862,3.48498 -0.31318,3.77305c2.78848,-0.36564 2.57033,2.0697 2.88379,3.93851c0.25633,1.79428 2.34137,1.17762 2.73311,3.51418c0.06838,0.47836 0.22253,1.52785 0.20004,2.04191c0.54405,-0.18045 1.82122,-0.15924 1.8541,1.43323c0,1.39258 1.12989,2.72257 2.28855,3.49502c0.19346,0.12898 0.37045,0.19764 0.58421,0.28921l0.32824,0.30844c0,0 0.20244,0.3614 -0.15889,0.56378z" data-paper-data="{&quot;origPos&quot;:null,&quot;index&quot;:null}" fill="#000000"/></g><path d="M344.32639,219.47274l0.37738,-8.68122l2.89376,-1.13236l2.39052,7.92631z" data-paper-data="{&quot;origPos&quot;:null}" fill="#333333"/></g><g data-paper-data="{&quot;origPos&quot;:null}" stroke-linecap="butt"><path d="M383.7555,201.73482c0.05798,0.05501 0.10338,0.11045 0.13796,0.16568c0.12092,0.02036 0.26205,0.08061 0.4232,0.2057c0.63696,0.49398 0.31254,1.01046 0.31254,1.01046c-1.3027,2.07472 -4.44042,2.79286 -5.52484,4.97188c-0.06859,0.10918 -0.13718,0.21835 -0.20577,0.32767l-0.47369,0.41288c-0.07743,0.10161 -0.20556,0.18929 -0.41535,0.16985c-0.13074,0.00163 -0.28836,-0.03875 -0.46167,-0.16949c-0.18123,-0.1149 -0.28744,-0.25717 -0.3491,-0.39209c-0.11752,-0.20916 -0.11137,-0.38516 -0.07085,-0.51407c0.2192,-1.59834 0.2704,-3.19853 0.38445,-4.81773c-0.67819,-0.04108 -1.34803,-0.11993 -1.99277,-0.25442l-0.45524,0.36996c-0.25908,0.21058 -0.7105,0.11059 -1.0084,-0.22323c-0.19007,-0.21312 -0.2716,-0.47016 -0.23829,-0.68292l0.09977,-0.71382l0.0746,0.03062c0.09921,-0.53139 0.02199,-1.50069 -0.06116,-2.55287c-0.58492,0.09122 -1.18631,0.15747 -1.717,0.32838l0.0012,0.00219l-0.73101,0.2786c-0.2634,0.10868 -0.63413,-0.00537 -0.89067,-0.29303c-0.19014,-0.21319 -0.27174,-0.47016 -0.23837,-0.68299l0.09977,-0.71382l0.27429,0.11278c-0.13202,-0.5881 -0.15118,-1.21566 -0.09221,-1.85205c-0.90446,0.02143 -1.74719,-0.02567 -2.37779,-0.16525c-1.72364,-1.93648 1.74203,-5.16146 4.36646,-5.46756l0.10649,-0.16956l-0.22239,-0.3689l0.73108,-0.27853c0.26333,-0.10875 0.63406,0.0053 0.89067,0.29303c0.25661,0.28772 0.31537,0.65521 0.16101,0.88608c-0.09037,0.14383 -0.2593,0.41288 -0.40468,0.64453c-0.08231,0.13096 -0.15705,0.24996 -0.20577,0.32767c-0.4785,0.44767 -0.71595,1.51229 -0.92051,2.6542c0.83785,-0.13074 1.58943,-0.30604 2.09594,-0.49901l0.35935,-0.13704c0.2634,-0.10868 0.63413,0.00537 0.89081,0.29303c0.29776,0.33383 0.32916,0.7752 0.07,0.98585l-0.57728,0.46924l-0.0256,-0.02857c0.03012,0.40461 0.04158,0.84061 0.03967,1.29294c3.30339,-0.98111 4.1266,0.21899 3.55272,4.32474c-0.00764,0.05473 -0.01513,0.10946 -0.02242,0.16426c1.42227,0.04271 2.81634,0.1299 3.4784,0.03932l0.45467,-0.04865c0,0 0.08895,-0.29345 0.67769,0.26418zM378.97214,203.14175c-0.07785,0.96739 -0.12551,1.93486 -0.19014,2.89539c1.21834,-1.10252 2.79958,-1.88119 3.91864,-3.06941c-1.15626,0.06817 -2.43634,0.16638 -3.7285,0.17402zM377.65939,198.05801c-0.65535,0.253 -1.53202,0.45184 -2.09968,0.60585c-0.06138,1.11313 -0.1608,2.21593 -0.22585,3.10731c0.48373,-0.22309 1.34668,-0.29861 2.32426,-0.31028c0.02708,-0.24218 0.05728,-0.48493 0.09129,-0.72825c0.08641,-0.61815 -0.06307,-1.78177 -0.09001,-2.67463zM371.33234,193.38007c-0.77414,0.67147 -1.64169,1.21347 -2.27497,1.44101c0.55395,0.03988 1.18525,0.03493 1.83105,-0.00417c0.12212,-0.4925 0.27563,-0.97623 0.44392,-1.43684zM373.84362,195.93759c-0.42766,0.07594 -0.88501,0.14142 -1.35255,0.19346c-0.14383,0.73454 -0.31374,1.3976 -0.5712,1.83056c0.63491,-0.1265 1.29648,-0.2064 1.90848,-0.36968c-0.02942,-0.60019 -0.03486,-1.17359 0.01527,-1.65435z" data-paper-data="{&quot;origPos&quot;:null,&quot;origRot&quot;:0}" fill="url(#color-47)"/><path d="M387.28447,203.36011c-0.09808,0.25435 -0.24869,0.39011 -0.40538,0.45842l0.04575,-0.00035c-2.33586,2.33586 -4.46149,4.68168 -7.30371,6.38701c-4.4856,2.69139 -5.33809,-4.46906 -7.60903,-6.74c-2.14819,-2.48407 -3.75078,-5.16273 -6.17679,-7.58874c0,0 -0.57353,-0.57353 0,-1.14707c0.57361,-0.57361 1.14714,-0.00007 1.14714,-0.00007c1.67881,1.67881 4.53128,6.68923 6.17679,7.58874c2.35304,2.35304 2.90281,8.13074 5.62723,6.49612c2.72378,-1.63427 4.74737,-3.89927 6.99124,-6.14313l1.04213,-0.35963c0,0 0.75675,0.29204 0.46464,1.04871z" data-paper-data="{&quot;origPos&quot;:null}" fill="#1a1a1a"/></g></g><path d="M317.3026,129.81216c6.20819,3.66458 13.88871,11.3403 11.69873,18.43689c-3.17123,11.00117 -13.43531,20.51387 -24.44928,24.62662c-5.20317,1.88147 -8.64657,-6.9341 -12.7847,-10.60582c-3.25312,-3.30884 -10.07033,-5.7294 -9.35863,-10.31068c1.41471,-9.1134 7.16023,-18.54437 14.79034,-23.29556c5.81899,-3.78493 14.35901,-2.23962 20.10354,1.14855z" fill="#ffffff" stroke="none" stroke-width="2.5" stroke-linecap="round"/><path d="M314.80778,333.69949c-8.25045,15.62345 -47.51114,3.45613 -51.21002,-13.74679c-8.23659,-38.34704 0.32018,-81.61822 18.54303,-116.30733c6.03028,-11.23798 31.96123,0.11823 35.0872,12.1092c9.44737,38.06992 15.87179,83.28353 -2.42029,117.94499z" data-paper-data="{&quot;origRot&quot;:0}" fill="#ffffff" stroke="#000000" stroke-width="2.5" stroke-linecap="round"/><path d="M295.47549,223.0845c0.95848,-12.59265 15.05324,-35.72707 24.43443,-27.9718c29.01075,24.0405 50.86516,59.80483 59.19431,96.44385c2.95818,12.96714 -21.22876,27.22983 -33.42282,21.87463c-19.18727,-8.85064 -22.28164,-31.85078 -31.6286,-48.81441c-7.46493,-13.52412 -19.93723,-26.65701 -18.57718,-41.53241z" fill="#ffffff" stroke="#000000" stroke-width="2.5" stroke-linecap="round"/><path d="M327.79273,196.5129c6.6053,5.92407 14.01797,17.04453 9.65858,25.07903c-6.4877,12.50928 -21.17537,21.50701 -35.46148,23.80652c-6.7342,1.01215 -8.7006,-10.50089 -12.86355,-15.89138c-3.06891,-4.82112 -10.7353,-9.33664 -8.80072,-14.70648c3.86285,-10.71684 13.18867,-20.70691 23.48323,-24.53597c8.02029,-3.22441 17.8705,0.77025 23.98393,6.24828z" fill="#666666" stroke="#000000" stroke-width="2.5" stroke-linecap="round"/><path d="M327.18308,197.67469c5.36694,4.81313 11.38958,13.84833 7.84775,20.37613c-5.27127,10.16303 -17.2049,17.47374 -28.8117,19.34227c-5.47117,0.82222 -7.06909,-8.53195 -10.45167,-12.91156c-2.49305,-3.91688 -8.72181,-7.58563 -7.15026,-11.94869c3.13878,-8.7071 10.71543,-16.8237 19.07979,-19.93468c6.5162,-2.61976 14.51945,0.62579 19.4861,5.07653z" fill="#ffffff" stroke="none" stroke-width="2.5" stroke-linecap="round"/><path d="M181.39843,250.46933l-42.76491,-38.59272c0,0 -0.13362,-2.94887 1.32307,-5.6052c1.54074,-2.80959 4.7368,-5.35384 7.07358,-6.07452c4.74584,-1.46366 19.50485,-1.0976 19.50485,-1.0976l27.90149,22.16474z" fill="#ffffff" stroke="none" stroke-width="0" stroke-linecap="butt"/><g stroke="none" stroke-width="2.5"><path d="M351.1578,342.35468c-2.6542,0.58789 -9.0038,-8.95742 -11.18063,-13.10354c-4.75063,-9.04248 -9.80764,-18.64139 -13.07808,-28.2574c-3.24272,-9.53767 -9.2643,-21.01642 -6.78589,-29.09667c1.01555,-3.31534 7.69657,13.1693 13.28936,11.61069c12.53665,-3.49968 18.83421,-18.13488 30.91492,-23.92064c3.01892,-1.44646 8.53025,15.31226 12.72969,16.36662c4.79546,1.18073 9.25214,-5.45271 14.12849,-4.61606c5.07243,0.86995 8.5975,5.54223 12.1703,9.09283c1.77392,1.80715 3.07005,7.0017 3.07005,7.0017c0,0 -22.24303,24.67152 -34.68437,36.08331c-6.78462,6.2253 -17.67321,18.19662 -20.57384,18.83916z" data-paper-data="{&quot;origPos&quot;:null}" fill="url(#color-48)" stroke-linecap="round"/><path d="M351.64578,341.8667c-3.97281,0.87992 -7.36876,-6.95553 -7.36876,-6.95553c0,0 11.58531,-7.70018 22.54087,-17.80311c12.05207,-11.11402 36.41331,-36.56279 36.41331,-36.56279c0,0 3.36123,6.0826 1.66354,8.40821c-1.69776,2.32567 -20.23372,22.66221 -32.67512,34.07406c-6.78469,6.22523 -17.67314,18.19654 -20.57384,18.83902z" data-paper-data="{&quot;origPos&quot;:null}" fill="url(#color-49)" stroke-linecap="round"/><g data-paper-data="{&quot;origPos&quot;:null}" stroke-linecap="butt"><g data-paper-data="{&quot;origPos&quot;:null}"><path d="M357.57713,325.83771c0,0 -5.00808,-12.42365 -9.66,-19.35372c-5.6565,-8.42666 -13.30301,-22.78348 -13.30301,-22.78348c0,0 0.41231,-0.49236 1.08053,-0.77082c0.94491,-0.39365 2.59353,-0.49215 2.59353,-0.49215l23.47969,39.89829z" data-paper-data="{&quot;origPos&quot;:null}" fill="url(#color-50)"/><path d="M347.76745,302.86566c0.33192,-0.15641 0.51767,0.09355 0.57078,0.18187c0.23943,0.12346 0.46726,0.24423 0.68222,0.41055c2.06468,1.59728 2.68934,2.08094 2.50867,4.64272c-0.13576,1.62253 1.1458,0.11328 2.10534,1.60018c0.19749,0.30611 -0.21418,1.70137 -0.18427,2.11934c0.14128,2.47445 2.4398,1.14735 2.63949,3.93689c0.09857,1.72562 -0.65853,3.76046 1.88691,3.57817c1.60542,0.87681 0.1545,3.25672 0.26531,4.80437c0,0 0.03147,0.43975 -0.40835,0.47129c-0.43975,0.03147 -0.47129,-0.40835 -0.47129,-0.40835c-0.07347,-1.02608 0.39775,-3.69145 0.61525,-3.98363c-2.98873,0.17953 -2.57458,-2.39059 -2.7674,-4.39884c-0.13789,-1.92474 -2.39844,-1.42602 -2.63956,-3.93696c-0.0367,-0.51315 -0.12183,-1.63929 -0.05933,-2.18348c-0.59142,0.1509 -1.94624,0.03267 -1.86181,-1.66099c0.1043,-1.47891 -0.99596,-2.976 -2.16863,-3.88322c-0.19587,-0.15146 -0.37858,-0.23773 -0.59878,-0.35101l-0.32562,-0.35221c0,0 -0.18788,-0.39888 0.21107,-0.58669z" data-paper-data="{&quot;origPos&quot;:null,&quot;origRot&quot;:0}" fill="#000000"/><path d="M349.51668,304.22684c-0.32011,0.17925 -0.52291,-0.05692 -0.58216,-0.14135c-0.24742,-0.10628 -0.48324,-0.21072 -0.70937,-0.36147c-2.17195,-1.44801 -2.82913,-1.88656 -2.82906,-4.4547c0.02121,-1.62804 -1.15103,-0.03239 -2.21275,-1.44808c-0.21857,-0.2914 0.0939,-1.71219 0.03465,-2.12698c-0.31509,-2.45833 -2.51447,-0.97284 -2.91003,-3.74144c-0.2197,-1.71438 0.39237,-3.79752 -2.13391,-3.43654c-1.66319,-0.76162 -0.38332,-3.23777 -0.60281,-4.77375c0,0 -0.06237,-0.43643 0.37413,-0.49886c0.4365,-0.06244 0.49886,0.37413 0.49886,0.37413c0.14545,1.01845 -0.1369,3.71033 -0.3334,4.017c2.96872,-0.38933 2.7365,2.20349 3.07019,4.19321c0.27287,1.91025 2.49276,1.25377 2.90989,3.74144c0.07276,0.50933 0.23695,1.6267 0.21284,2.17393c0.57933,-0.19212 1.9391,-0.16949 1.9741,1.52594c0.00007,1.48259 1.20293,2.89857 2.43655,3.72094c0.20598,0.13739 0.39435,0.21051 0.62197,0.30802l0.34945,0.32838c0,0 0.21553,0.38467 -0.16914,0.60019z" data-paper-data="{&quot;origPos&quot;:null,&quot;index&quot;:null}" fill="#000000"/></g><path d="M333.77174,292.38781l0.40185,-9.24266l3.08093,-1.20555l2.54509,8.43897z" data-paper-data="{&quot;origPos&quot;:null}" fill="#333333"/></g><g data-paper-data="{&quot;origPos&quot;:null}" stroke-linecap="butt"><path d="M376.40082,275.65245c0.06102,0.05777 0.10868,0.11604 0.14496,0.17409c0.12707,0.02128 0.27535,0.08471 0.44477,0.21609c0.66935,0.51916 0.32852,1.06193 0.32852,1.06193c-1.3691,2.18043 -4.66669,2.93513 -5.80634,5.22509c-0.07198,0.11483 -0.14418,0.2296 -0.21623,0.34436l-0.4978,0.43402c-0.08139,0.1067 -0.21595,0.19898 -0.43643,0.17847c-0.13739,0.00177 -0.303,-0.0408 -0.48515,-0.17812c-0.19049,-0.12063 -0.30208,-0.27026 -0.36692,-0.41203c-0.12346,-0.21977 -0.11703,-0.40482 -0.07446,-0.5403c0.23045,-1.67973 0.28412,-3.36144 0.40404,-5.06317c-0.71269,-0.04306 -1.41655,-0.12594 -2.09424,-0.26736l-0.47843,0.38891c-0.27231,0.22125 -0.7467,0.11625 -1.05967,-0.23462c-0.19983,-0.22401 -0.28553,-0.49413 -0.25053,-0.71778l0.10486,-0.75017l0.07835,0.03224c0.1043,-0.55854 0.02312,-1.5772 -0.06428,-2.68298c-0.61476,0.09588 -1.24677,0.16546 -1.80447,0.34514l0.00134,0.00219l-0.76827,0.29281c-0.27683,0.11434 -0.66638,-0.00552 -0.93614,-0.30795c-0.19976,-0.22394 -0.28546,-0.49406 -0.25053,-0.71764l0.10493,-0.75024l0.28822,0.11851c-0.13873,-0.61801 -0.15882,-1.2776 -0.09687,-1.94638c-0.95056,0.02242 -1.83614,-0.02708 -2.49884,-0.17374c-1.81147,-2.03519 1.83063,-5.42429 4.58877,-5.74602l0.11194,-0.17812l-0.2337,-0.38771l0.76827,-0.29281c0.27676,-0.11427 0.66638,0.00552 0.93614,0.30795c0.26969,0.30236 0.33142,0.68851 0.16921,0.93119c-0.09496,0.15111 -0.27252,0.43388 -0.42532,0.67734c-0.08648,0.13767 -0.16504,0.26276 -0.21623,0.34436c-0.50289,0.47051 -0.75243,1.58922 -0.96739,2.78932c0.88056,-0.13739 1.67033,-0.32159 2.20264,-0.52439l0.37767,-0.14404c0.27683,-0.1142 0.66645,0.00559 0.93614,0.30795c0.31297,0.35087 0.34599,0.8148 0.07368,1.03605l-0.60677,0.49321l-0.0268,-0.03005c0.03168,0.42525 0.04356,0.88346 0.04165,1.35885c3.47161,-1.0311 4.33676,0.23016 3.73367,4.545c-0.00806,0.05756 -0.01591,0.11505 -0.02355,0.1726c1.49482,0.04497 2.95974,0.13654 3.6556,0.04144l0.47779,-0.05112c0,0 0.09348,-0.30844 0.7122,0.27761zM371.37371,277.13114c-0.08188,1.01668 -0.13195,2.03336 -0.19983,3.04282c1.28036,-1.15874 2.9422,-1.977 4.11826,-3.22575c-1.21516,0.07163 -2.5605,0.17487 -3.91843,0.18293zM369.99415,271.78839c-0.68865,0.26594 -1.61008,0.47489 -2.2066,0.63668c-0.06456,1.16991 -0.169,2.32893 -0.23738,3.26563c0.50841,-0.23434 1.4152,-0.31381 2.44263,-0.32612c0.0285,-0.25449 0.06017,-0.50961 0.09595,-0.7653c0.09079,-0.64955 -0.06626,-1.87249 -0.09461,-2.81089zM363.3448,266.8723c-0.81353,0.70562 -1.72527,1.27527 -2.3908,1.51441c0.58216,0.04193 1.24564,0.03677 1.92432,-0.00438c0.12834,-0.51753 0.28956,-1.02594 0.46648,-1.51003zM365.98399,269.56c-0.44944,0.07976 -0.93013,0.14863 -1.4215,0.20329c-0.15111,0.77195 -0.32965,1.4688 -0.60026,1.92383c0.66723,-0.13294 1.36259,-0.21694 2.00571,-0.38856c-0.03083,-0.63074 -0.03663,-1.23334 0.01605,-1.73856z" data-paper-data="{&quot;origPos&quot;:null,&quot;origRot&quot;:0}" fill="#292929"/><path d="M380.10944,277.36066c-0.1031,0.26714 -0.26135,0.40998 -0.42603,0.48175l0.04808,-0.00042c-2.45486,2.45486 -4.68861,4.92012 -7.67571,6.71235c-4.71407,2.8285 -5.6099,-4.69674 -7.99653,-7.08337c-2.25772,-2.61057 -3.94198,-5.42563 -6.49152,-7.97517c0,0 -0.60274,-0.60274 0.00007,-1.20555c0.60274,-0.60274 1.20548,0 1.20548,0c1.76437,1.76437 4.76208,7.02991 6.49145,7.97525c2.47289,2.47289 3.05074,8.54482 5.91382,6.82697c2.86251,-1.71756 4.98927,-4.0979 7.34741,-6.45603l1.09517,-0.37802c0,0 0.79528,0.30696 0.48833,1.10224z" data-paper-data="{&quot;origPos&quot;:null}" fill="#1a1a1a"/></g></g></g></g></svg>