<svg version="1.1" xmlns="http://www.w3.org/2000/svg" xmlns:xlink="http://www.w3.org/1999/xlink" width="321.56276" height="328.65713" viewBox="0,0,321.56276,328.65713"><defs><radialGradient cx="235.68611" cy="33.16505" r="146.1085" gradientUnits="userSpaceOnUse" id="color-1"><stop offset="0" stop-color="#ff8d8d"/><stop offset="1" stop-color="#ff8d8d" stop-opacity="0"/></radialGradient><radialGradient cx="235.25289" cy="18.41922" r="160.78138" gradientUnits="userSpaceOnUse" id="color-2"><stop offset="0" stop-color="#ffffff"/><stop offset="1" stop-color="#ffffff" stop-opacity="0"/></radialGradient></defs><g transform="translate(-79.21862,-13.75403)"><g data-paper-data="{&quot;isPaintingLayer&quot;:true}" fill-rule="nonzero" stroke-linejoin="miter" stroke-miterlimit="10" stroke-dasharray="" stroke-dashoffset="0" style="mix-blend-mode: normal"><path d="M386.1085,180c0,81.51145 -65.415,147.58955 -146.1085,147.58955c-80.6935,0 -146.1085,-66.07809 -146.1085,-147.58955c0,-81.51145 65.415,-147.58955 146.1085,-147.58955c80.6935,0 146.1085,66.07809 146.1085,147.58955zM241.65889,302.50466c67.27979,1.57835 128.09678,-40.9421 128.4178,-117.90844c0.32102,-76.96634 -59.30651,-136.07308 -127.35181,-137.66939c-68.0453,-1.59631 -135.54555,51.37106 -135.87974,131.4941c-0.33419,80.12304 67.53395,122.50539 134.81376,124.08374z" fill="url(#color-1)" stroke="none" stroke-width="NaN" stroke-linecap="butt"/><path d="M400.78138,180c0,89.6972 -71.98427,162.41116 -160.78138,162.41116c-88.79711,0 -160.78138,-72.71395 -160.78138,-162.41116c0,-89.6972 71.98427,-162.41116 160.78138,-162.41116c88.79711,0 160.78138,72.71395 160.78138,162.41116zM241.82549,314.80713c74.03633,1.73686 140.96084,-45.05369 141.31409,-129.74934c0.35325,-84.69565 -65.26233,-149.73815 -140.14105,-151.49477c-74.87872,-1.75662 -149.15765,56.52997 -149.52539,144.69933c-0.36775,88.16936 74.31602,134.80793 148.35236,136.54479z" fill="url(#color-2)" stroke="none" stroke-width="NaN" stroke-linecap="butt"/><g data-paper-data="{&quot;origRot&quot;:0}" stroke="#000000"><path d="M243.49522,34.80558l0.50057,15.7817c0,0 -1.66841,0.96625 -2.70019,0.91098c-0.50867,-0.02725 -1.39972,-0.92642 -1.39972,-0.92642l1.62944,-12.17339l-1.50493,11.51847c0,0 -1.45645,1.20672 -2.15181,0.95036c-0.95029,-0.35035 1.13585,-5.54616 0.70816,-6.13576c-0.27808,-0.38334 -1.24105,5.76057 -1.24105,5.76057c0,0 -1.40857,0.06574 -2.52926,-0.71547c-0.62251,-0.43393 -3.995,-2.19381 -4.16451,-2.93346c-1.16032,-5.06268 8.307,-11.41022 8.307,-11.41022z" data-paper-data="{&quot;index&quot;:null,&quot;origRot&quot;:0}" fill="#ffffff" stroke-width="0.25" stroke-linecap="round"/><g data-paper-data="{&quot;origRot&quot;:0}" fill="#8ceeff" stroke-width="0.15" stroke-linecap="butt"><path d="M234.69447,23.4076c1.08421,-1.01125 2.88626,1.07142 3.93531,2.19615c1.04904,1.12474 0.08064,5.37976 -1.00357,6.39101c-1.08421,1.01125 -3.07187,-1.85893 -3.47028,-3.31604c-0.40567,-1.48357 -0.54566,-4.25986 0.53855,-5.27111z" data-paper-data="{&quot;origRot&quot;:0}"/><path d="M233.15781,29.8774c1.51007,0.04007 4.77095,1.28724 4.04689,2.58103c-0.72405,1.29379 -4.62615,3.24739 -5.9683,2.49628c-1.34216,-0.75111 -3.79398,-2.0055 -3.06993,-3.29929c0.72405,-1.29379 3.45384,-1.8188 4.99133,-1.77801z" data-paper-data="{&quot;origRot&quot;:0,&quot;index&quot;:null}"/><path d="M237.51198,30.58854c0.60399,-0.50307 2.73896,-0.26029 3.29554,0.40796c0.55658,0.66824 -0.90093,1.61739 -1.50491,2.12045c-0.60399,0.50307 -1.31988,0.26065 -1.87646,-0.40759c-0.55658,-0.66824 -0.51814,-1.61776 0.08584,-2.12081z" data-paper-data="{&quot;origRot&quot;:0}"/><path d="M237.62812,32.39554c0.78153,0.38148 1.18742,1.01908 0.84262,1.72547c-0.3448,0.70639 -0.91966,2.34794 -1.70119,1.96647c-0.78153,-0.38148 -1.52562,-2.39725 -1.18083,-3.10364c0.3448,-0.70639 1.25786,-0.96978 2.0394,-0.5883z" data-paper-data="{&quot;origRot&quot;:0,&quot;index&quot;:null}"/></g><path d="M244.91861,32.06418c5.11593,-0.86111 9.51452,-0.06616 9.82453,1.77558c0.31,1.84173 -3.58598,4.03284 -8.70192,4.89395c-5.11593,0.86111 -9.51453,0.06616 -9.82453,-1.77558c-0.31,-1.84173 3.58598,-4.03284 8.70192,-4.89395z" data-paper-data="{&quot;origRot&quot;:0}" fill="#ffffff" stroke-width="0.5" stroke-linecap="butt"/><path d="M239.17625,35.03075c0,0 -3.29142,-14.56727 -3.27545,-17.82396c0.00805,-1.64126 4.38931,-2.49785 7.01086,-2.82407c3.3511,-0.417 8.13257,-0.87425 8.29329,0.91963c0.64071,7.152 -0.24714,18.39784 -0.24714,18.39784z" data-paper-data="{&quot;origRot&quot;:0}" fill="#ffffff" stroke-width="0.5" stroke-linecap="butt"/><path d="M251.01155,14.93623c0,0 -4.98503,2.47729 -8.16633,2.87784c-2.62345,0.33031 -6.70762,-1.00511 -6.70762,-1.00511" fill="none" stroke-width="0.5" stroke-linecap="round"/><path d="M249.83714,34.64651c0.56463,-0.27675 1.2263,-0.08499 1.4779,0.42832c0.2516,0.5133 -0.00217,1.15376 -0.56681,1.43051c-0.56463,0.27675 -1.2263,0.08499 -1.4779,-0.42832c-0.2516,-0.5133 0.00218,-1.15376 0.56681,-1.43051z" fill="#fff08d" stroke-width="0.5" stroke-linecap="butt"/><path d="M245.94553,35.05546c0.64163,-0.3145 1.39631,-0.0909 1.68563,0.49939c0.28932,0.59029 0.00374,1.32376 -0.63788,1.63826c-0.64163,0.3145 -1.39631,0.0909 -1.68564,-0.49939c-0.28932,-0.59029 -0.00374,-1.32376 0.63789,-1.63825z" fill="#8ceeff" stroke-width="0.5" stroke-linecap="butt"/><path d="M241.21839,35.75869c0.69296,-0.33964 1.50964,-0.09484 1.82413,0.54678c0.3145,0.64163 0.00769,1.43709 -0.68527,1.77674c-0.69296,0.33964 -1.50964,0.09484 -1.82413,-0.54678c-0.3145,-0.64163 -0.00768,-1.43709 0.68528,-1.77674z" fill="#ff8c8c" stroke-width="0.5" stroke-linecap="butt"/></g><path d="M250.93116,32.699l-11.88625,1.24759l-0.33052,-2.18906l12.33424,-1.34343z" data-paper-data="{&quot;origRot&quot;:0}" fill="#ff8c8c" stroke="#000000" stroke-width="0.5" stroke-linecap="round"/></g></g></svg>