<svg version="1.1" xmlns="http://www.w3.org/2000/svg" xmlns:xlink="http://www.w3.org/1999/xlink" width="249.8402" height="343.18214" viewBox="0,0,249.8402,343.18214"><defs><radialGradient cx="221.22346" cy="177.29172" r="5.70882" gradientUnits="userSpaceOnUse" id="color-1"><stop offset="0" stop-color="#191919"/><stop offset="1" stop-color="#191919" stop-opacity="0"/></radialGradient><radialGradient cx="216.08262" cy="169.54524" r="5.70882" gradientUnits="userSpaceOnUse" id="color-2"><stop offset="0" stop-color="#191919"/><stop offset="1" stop-color="#191919" stop-opacity="0"/></radialGradient><radialGradient cx="262.33262" cy="169.99167" r="5.70882" gradientUnits="userSpaceOnUse" id="color-3"><stop offset="0" stop-color="#191919"/><stop offset="1" stop-color="#191919" stop-opacity="0"/></radialGradient><radialGradient cx="267.47345" cy="177.73815" r="5.70882" gradientUnits="userSpaceOnUse" id="color-4"><stop offset="0" stop-color="#191919"/><stop offset="1" stop-color="#191919" stop-opacity="0"/></radialGradient></defs><g transform="translate(-121.46038,-63.48981)"><g data-paper-data="{&quot;isPaintingLayer&quot;:true}" fill-rule="nonzero" stroke-linecap="butt" stroke-linejoin="miter" stroke-miterlimit="10" stroke-dasharray="" stroke-dashoffset="0" style="mix-blend-mode: normal"><path d="M271.95739,406.67195l-60.63658,-89.07071l-89.86043,15.61561l45.29382,-103.85792l-38.98393,-108.23976l88.64779,24.89791l65.75337,-82.52727l9.51701,119.26268l79.61214,57.24074l-82.7668,48.80824z" fill="#fff600" stroke="none" stroke-width="0"/><path d="M207.86089,323.10956c-7.80199,0 -14.12678,-6.88699 -14.12678,-15.3825c0,-8.49551 6.32478,-15.38248 14.12678,-15.38248c7.80199,0 14.12678,6.88699 14.12678,15.38248c0,8.49551 -6.32478,15.3825 -14.12678,15.3825z" fill="#995900" stroke="#663b00" stroke-width="2"/><g data-paper-data="{&quot;index&quot;:null}"><path d="M233.25968,388.86542c0,0 -55.33981,12.49843 -61.33005,-2.67864c-3.70451,-9.3859 -1.30425,-15.87741 4.16785,-24.3553c10.21487,-15.82582 34.86687,-9.86865 34.86687,-9.86865c0,0 -1.48727,-51.31768 14.22288,-51.31768c15.71017,0 9.61006,1.11257 9.61006,29.02235c0,27.90978 -1.53762,59.19793 -1.53762,59.19793z" data-paper-data="{&quot;origPos&quot;:null}" fill="#995900" stroke="#663b00" stroke-width="2"/><path d="M214.58279,394.48271c-11.78261,0 -21.33432,-5.42122 -21.33432,-12.10867c0,-6.68744 9.55171,-12.10867 21.33432,-12.10867c11.78263,0 21.33432,5.42122 21.33432,12.10867c0,6.68744 -9.55168,12.10867 -21.33432,12.10867z" data-paper-data="{&quot;origPos&quot;:null}" fill="#ffffff" stroke="#e5e5e5" stroke-width="2"/><path d="M179.26926,392.93986c-4.32623,-0.94937 -7.18936,-3.18435 -6.39501,-4.99195c0.79435,-1.8076 4.94541,-2.50331 9.27162,-1.55395c4.32623,0.94939 7.18936,6.93227 6.39501,8.73987c-0.79435,1.80758 -4.94541,-1.24461 -9.27162,-2.19397z" data-paper-data="{&quot;origPos&quot;:null,&quot;origRot&quot;:0}" fill="#ffffff" stroke="#e5e5e5" stroke-width="1"/><path d="M179.71765,381.84283c-5.57887,-1.55835 -9.27099,-5.22695 -8.24665,-8.19404c1.02435,-2.96708 6.37732,-4.10908 11.95617,-2.55073c5.57884,1.55835 9.27099,5.22695 8.24665,8.19404c-1.02435,2.96708 -6.3773,4.10908 -11.95617,2.55073z" data-paper-data="{&quot;origPos&quot;:null,&quot;origRot&quot;:0}" fill="#ffffff" stroke="#e5e5e5" stroke-width="1.5"/><path d="M189.23802,368.20266c-5.24651,-2.45485 -8.28486,-6.68082 -6.78639,-9.43897c1.49848,-2.75817 6.96638,-3.00406 12.21289,-0.5492c5.24649,2.45485 8.28484,6.68082 6.78637,9.43897c-1.49845,2.75817 -6.96638,3.00406 -12.21287,0.5492z" data-paper-data="{&quot;origPos&quot;:null,&quot;origRot&quot;:0}" fill="#ffffff" stroke="#e5e5e5" stroke-width="1.5"/></g><g data-paper-data="{&quot;index&quot;:null}"><path d="M247.42479,329.09085c0,-27.90978 -6.10012,-29.02235 9.61006,-29.02235c15.71015,0 14.22288,51.31768 14.22288,51.31768c0,0 24.652,-5.95716 34.86687,9.86865c5.4721,8.47789 7.87236,14.9694 4.16785,24.3553c-5.99024,15.17707 -61.33005,2.67864 -61.33005,2.67864c0,0 -1.53762,-31.28815 -1.53762,-59.19793z" data-paper-data="{&quot;origPos&quot;:null}" fill="#995900" stroke="#663b00" stroke-width="2"/><path d="M246.30498,381.79744c0,-6.68744 9.55168,-12.10867 21.33432,-12.10867c11.78261,0 21.33432,5.42122 21.33432,12.10867c0,6.68744 -9.55171,12.10867 -21.33432,12.10867c-11.78263,0 -21.33432,-5.42122 -21.33432,-12.10867z" data-paper-data="{&quot;origPos&quot;:null}" fill="#ffffff" stroke="#e5e5e5" stroke-width="2"/><path d="M293.68114,394.55723c-0.79435,-1.8076 2.06878,-7.79048 6.39501,-8.73987c4.32621,-0.94937 8.47727,-0.25366 9.27162,1.55395c0.79435,1.8076 -2.06878,4.04259 -6.39501,4.99195c-4.32621,0.94937 -8.47727,4.00156 -9.27162,2.19397z" data-paper-data="{&quot;origPos&quot;:null,&quot;origRot&quot;:0}" fill="#ffffff" stroke="#e5e5e5" stroke-width="1"/><path d="M290.54823,378.7155c-1.02435,-2.96708 2.6678,-6.63569 8.24665,-8.19404c5.57884,-1.55835 10.93182,-0.41635 11.95617,2.55073c1.02435,2.96708 -2.66778,6.63569 -8.24665,8.19404c-5.57887,1.55835 -10.93182,0.41635 -11.95617,-2.55073z" data-paper-data="{&quot;origPos&quot;:null,&quot;origRot&quot;:0}" fill="#ffffff" stroke="#e5e5e5" stroke-width="1.5"/><path d="M280.77117,367.07688c-1.49848,-2.75815 1.53988,-6.98412 6.78637,-9.43897c5.24651,-2.45485 10.71442,-2.20897 12.21289,0.5492c1.49848,2.75815 -1.53988,6.98412 -6.78639,9.43897c-5.24649,2.45485 -10.71442,2.20897 -12.21287,-0.5492z" data-paper-data="{&quot;origPos&quot;:null,&quot;origRot&quot;:0}" fill="#ffffff" stroke="#e5e5e5" stroke-width="1.5"/></g><path d="M280.72605,270.31636c0,-20.80534 -35.3624,-41.77169 -20.50145,-41.77169c16.09807,0 22.62289,-0.9359 35.15644,9.16644c10.41936,8.39827 17.95764,21.979 22.24761,34.65539c3.07523,9.08692 3.89952,21.80245 3.59556,26.12187c-0.38552,5.47877 -10.40409,13.08716 -15.89644,13.08716c-5.31697,0 -13.00766,0.69213 -16.6466,-3.18451c-9.94859,-10.59847 -7.95512,-23.53842 -7.95512,-38.07465z" data-paper-data="{&quot;index&quot;:null}" fill="#995900" stroke="#663b00" stroke-width="2"/><path d="M193.89272,269.54751c0,14.53623 1.99348,27.47618 -7.95512,38.07465c-3.63894,3.87664 -11.32963,3.18451 -16.64662,3.18451c-5.49233,0 -15.5109,-7.60837 -15.89642,-13.08716c-0.30394,-4.31943 0.52035,-17.03493 3.59556,-26.12185c4.28997,-12.67637 11.82825,-26.25712 22.24761,-34.65539c12.53355,-10.10234 19.05837,-9.16644 35.15644,-9.16644c14.86095,0 -20.50145,20.96635 -20.50145,41.77169z" fill="#995900" stroke="#663b00" stroke-width="2"/><path d="M241.01815,321.56386c-19.10694,0 -40.93882,-15.80591 -40.93882,-55.9305c0,-40.12459 23.56169,-51.31768 42.66863,-51.31768c19.10694,0 40.36222,11.19309 40.36222,51.31768c0,40.12459 -22.98508,55.9305 -42.09203,55.9305z" fill="#995900" stroke="#663b00" stroke-width="2"/><path d="M198.73395,156.6905c-16.55935,0 -29.98336,-14.28451 -29.98336,-31.90537c0,-17.62085 13.42401,-31.90537 29.98336,-31.90537c16.55935,0 29.98336,14.28451 29.98336,31.90537c0,17.62085 -13.42401,31.90537 -29.98336,31.90537z" fill="#995900" stroke="#663b00" stroke-width="2"/><path d="M283.63487,153.99616c-16.55935,0 -29.98336,-14.28451 -29.98336,-31.90537c0,-17.62085 13.42401,-31.90539 29.98336,-31.90539c16.55935,0 29.98336,14.28454 29.98336,31.90539c0,17.62085 -13.42401,31.90537 -29.98336,31.90537z" fill="#995900" stroke="#663b00" stroke-width="2"/><path d="M242.17143,270.68772c0,18.25775 -23.06943,39.42598 -34.25733,23.1183c-4.51709,-6.58416 16.57483,-13.76684 16.57483,-23.1183c0,-18.25775 3.95836,-33.05857 8.84124,-33.05857c4.88288,0 8.84124,14.80083 8.84124,33.05857z" fill="#ffffff" stroke="#e5e5e5" stroke-width="2"/><path d="M270.41776,309.50453c-14.71507,2.22788 -22.67275,-18.10921 -22.67275,-33.05073c0,-15.92246 4.30257,-28.83016 9.61006,-28.83016c5.30749,0 9.61006,12.9077 9.61006,28.83016c0,15.92246 22.13748,30.22185 3.45263,33.05073z" fill="#ffffff" stroke="#e5e5e5" stroke-width="2"/><path d="M240,237.26504c-33.54331,0 -60.73552,-27.70852 -60.73552,-61.88873c0,-34.1802 27.19221,-61.88873 60.73552,-61.88873c33.54331,0 60.73552,27.70852 60.73552,61.88873c0,34.1802 -27.19221,61.88873 -60.73552,61.88873z" fill="#995900" stroke="#663b00" stroke-width="2"/><g fill="#000000" stroke="none" stroke-width="1" font-family="&quot;Helvetica Neue&quot;, Helvetica, Arial, sans-serif" font-weight="400" font-size="16" text-anchor="start"/><g fill="#000000" stroke="none" stroke-width="1" font-family="&quot;Helvetica Neue&quot;, Helvetica, Arial, sans-serif" font-weight="400" font-size="16" text-anchor="start"/><path d="M243.03627,258.14063c-20.22152,0 -36.6143,-12.17011 -36.6143,-27.18271c0,-15.0126 14.96624,10.37886 35.18776,10.37886c20.22152,0 38.04084,-25.39146 38.04084,-10.37886c0,15.0126 -16.39278,27.18271 -36.6143,27.18271z" fill="#ffffff" stroke="#e5e5e5" stroke-width="2"/><g fill="#000000" stroke="none" stroke-width="0" font-family="&quot;Helvetica Neue&quot;, Helvetica, Arial, sans-serif" font-weight="400" font-size="16" text-anchor="start"/><g stroke="none"><path d="M205.2486,191.35873l0.23796,-0.80907l18.26792,5.37292l-0.23796,0.80907z" data-paper-data="{&quot;origPos&quot;:null,&quot;origRot&quot;:0,&quot;index&quot;:null}" fill="#000000" stroke-width="0"/><g data-paper-data="{&quot;origPos&quot;:null}"><path d="M208.3844,173.72834c0,-5.77689 4.39551,-10.45999 9.81763,-10.45999c5.42212,0 9.81763,4.6831 9.81763,10.45999c0,5.77689 -4.39551,10.45999 -9.81763,10.45999c-5.42212,0 -9.81763,-4.6831 -9.81763,-10.45999z" data-paper-data="{&quot;origPos&quot;:null}" fill="#000000" stroke-width="0.5"/><path d="M225.03087,180.24959c-1.26477,2.56364 -9.08451,2.67606 -9.08451,2.67606c0,0 -2.93883,0.71407 6.51864,-4.31283c2.46791,-1.31176 4.46728,-6.98998 4.46728,-6.98998c0,0 -0.35211,5.48641 -1.90141,8.62676z" data-paper-data="{&quot;origPos&quot;:null}" fill="url(#color-1)" stroke-width="0"/><path d="M212.27521,166.58736c1.26477,-2.56364 9.08451,-2.67605 9.08451,-2.67605c0,0 2.93883,-0.71406 -6.51864,4.31283c-2.46791,1.31176 -4.46728,6.98998 -4.46728,6.98998c0,0 0.35212,-5.48642 1.90141,-8.62677z" data-paper-data="{&quot;origPos&quot;:null,&quot;index&quot;:null}" fill="url(#color-2)" stroke-width="0"/></g><g data-paper-data="{&quot;origPos&quot;:null}"><path d="M255.11614,173.91682c0,-5.77689 4.39551,-10.45999 9.81763,-10.45999c5.42212,0 9.81763,4.6831 9.81763,10.45999c0,5.77689 -4.39551,10.45999 -9.81763,10.45999c-5.42212,0 -9.81763,-4.6831 -9.81763,-10.45999z" data-paper-data="{&quot;origPos&quot;:null}" fill="#000000" stroke-width="0.5"/><path d="M258.52521,167.03379c1.26477,-2.56364 9.08451,-2.67606 9.08451,-2.67606c0,0 2.93883,-0.71407 -6.51864,4.31283c-2.46791,1.31176 -4.46728,6.98998 -4.46728,6.98998c0,0 0.35211,-5.48641 1.90141,-8.62676z" data-paper-data="{&quot;origPos&quot;:null,&quot;index&quot;:null}" fill="url(#color-3)" stroke-width="0"/><path d="M271.28086,180.69603c-1.26477,2.56364 -9.08451,2.67605 -9.08451,2.67605c0,0 -2.93883,0.71407 6.51864,-4.31284c2.46791,-1.31176 4.46728,-6.98998 4.46728,-6.98998c0,0 -0.35212,5.48642 -1.90141,8.62677z" data-paper-data="{&quot;origPos&quot;:null}" fill="url(#color-4)" stroke-width="0"/></g></g></g></g></svg>