<svg version="1.1" xmlns="http://www.w3.org/2000/svg" xmlns:xlink="http://www.w3.org/1999/xlink" width="274.15692" height="304.1298" viewBox="0,0,274.15692,304.1298"><g transform="translate(-104.42304,-48.95612)"><g data-paper-data="{&quot;isPaintingLayer&quot;:true}" fill-rule="nonzero" stroke-linejoin="miter" stroke-miterlimit="10" stroke-dasharray="" stroke-dashoffset="0" style="mix-blend-mode: normal"><path d="M352.51299,225.01908v0" fill="#ffffff" stroke="none" stroke-width="1" stroke-linecap="butt"/><path d="M164.43482,225.01908" fill="#ffffff" stroke="none" stroke-width="1" stroke-linecap="butt"/><path d="M378.57996,198.95211c0,60.38299 -54.44368,79.85074 -121.75588,79.85074c-67.31219,0 -121.75588,-19.46774 -121.75588,-79.85074c0,-28.37671 7.91908,-61.04292 25.40706,-87.43986l-14.18836,-47.84445c-2.6397,-8.90896 6.59924,-17.48797 15.17824,-13.8584l47.18452,19.79771c13.8584,-6.26928 29.69655,-9.89885 48.1744,-9.89885c18.14789,0 33.98606,3.95954 47.84445,10.22882l47.51449,-19.79771c8.579,-3.62958 17.81794,4.94942 15.17824,13.8584l-14.51831,48.50437c17.48797,26.06697 25.73701,58.40322 25.73701,86.44997z" fill="#ff7319" stroke="none" stroke-width="1" stroke-linecap="butt"/><path d="M352.18304,237.22766c0,31.67632 -42.56507,41.90514 -95.35894,41.90514c-52.79387,0 -95.35894,-10.22882 -95.35894,-41.90514c0,-31.67632 28.37671,-72.92153 95.35894,-72.92153c65.33241,0 95.35894,41.24521 95.35894,72.92153z" fill="#ffffff" stroke="none" stroke-width="1" stroke-linecap="butt"/><path d="M246.26533,178.82444c0,-4.2895 4.61947,-5.60935 10.55877,-5.60935c5.93931,0 10.55877,1.31984 10.55877,5.60935c0,4.2895 -3.29961,9.56889 -10.55877,9.56889c-7.25916,0 -10.55877,-5.27939 -10.55877,-9.56889z" fill="#945600" stroke="#000000" stroke-width="1.5" stroke-linecap="butt"/><path d="M293.11989,192.68283c0,9.89885 -8.24905,18.14789 -18.14789,18.14789c-9.89885,0 -18.14789,-7.91908 -18.14789,-18.14789c0,-0.65993 0,-0.65993 0,-0.65993c0,-0.65993 0,-0.98988 0,-0.98988c0,0 0,0.32996 0,0.98988c0,0 0,0 0,0.65993c0,9.89885 -8.24905,18.14789 -18.14789,18.14789c-9.89885,0 -18.14789,-7.91908 -18.14789,-18.14789" fill="none" stroke="#000000" stroke-width="2.5" stroke-linecap="round"/><path d="M225.47774,134.77455c0,-5.64921 4.5796,-10.22882 10.22882,-10.22882c5.64921,0 10.22882,4.5796 10.22882,10.22882c0,5.64921 -4.5796,10.22882 -10.22882,10.22882c-5.64921,0 -10.22882,-4.5796 -10.22882,-10.22882z" fill="#000000" stroke="none" stroke-width="1" stroke-linecap="butt"/><path d="M266.88793,133.94965c0,-5.64921 4.5796,-10.22882 10.22882,-10.22882c5.64921,0 10.22882,4.5796 10.22882,10.22882c0,5.64921 -4.5796,10.22882 -10.22882,10.22882c-5.64921,0 -10.22882,-4.5796 -10.22882,-10.22882z" fill="#000000" stroke="none" stroke-width="1" stroke-linecap="butt"/><path d="M182.58271,87.755c-6.59924,5.93931 -12.53854,11.54866 -17.48797,20.12766l-12.8685,-44.54483c-0.98988,-5.27939 3.95954,-9.89885 9.23893,-8.24905l42.56507,17.81794c-9.89885,3.95954 -15.17824,9.23893 -21.44751,14.84828z" fill="#77500c" stroke="none" stroke-width="1" stroke-linecap="butt"/><path d="M310.93781,72.90673l42.56507,-17.81794c5.27939,-1.64981 10.22882,2.96965 9.23893,8.24905l-12.53854,44.87479c-5.27939,-8.579 -10.88873,-14.18836 -17.81794,-20.12766c-6.26928,-5.93931 -11.87862,-11.2187 -21.44751,-15.17824z" fill="#77500c" stroke="none" stroke-width="1" stroke-linecap="butt"/><path d="M255.79297,202.12844c6.15036,0 11.1362,6.83245 11.1362,15.26073c0,8.42828 -4.98586,15.26073 -11.1362,15.26073c-6.15036,0 -11.1362,-6.83245 -11.1362,-15.26073c0,-8.42828 4.98586,-15.26073 11.1362,-15.26073z" fill="none" stroke="#000000" stroke-width="2" stroke-linecap="butt"/><path d="M104.42304,353.08592v0z" fill="none" stroke="#000000" stroke-width="2" stroke-linecap="butt"/></g></g></svg>