<svg version="1.1" xmlns="http://www.w3.org/2000/svg" xmlns:xlink="http://www.w3.org/1999/xlink" width="305.13726" height="382.13252" viewBox="0,0,305.13726,382.13252"><g transform="translate(-64.96471,-6.77693)"><g data-paper-data="{&quot;isPaintingLayer&quot;:true}" fill-rule="nonzero" stroke="none" stroke-linecap="round" stroke-linejoin="round" stroke-miterlimit="10" stroke-dasharray="" stroke-dashoffset="0" style="mix-blend-mode: normal"><path d="M220.23078,270.68563c-0.62761,0.01886 -1.58887,-7.36095 -2.50102,-19.56719c-0.55933,-7.47574 -1.24612,-18.25831 -1.40384,-29.13259c-0.11674,-9.41906 -0.07446,-19.70735 0.21235,-30.54846c0.41234,-15.5895 1.2601,-29.64184 2.35273,-41.99897c0.05463,0.10374 0.10699,0.20227 0.15707,0.29104c0.02212,0.03903 0.0452,0.07284 0.05918,0.10113c0.02439,0.04943 0.0387,0.09723 0.05301,0.14341c0.02731,0.08877 0.04682,0.16943 0.05983,0.23999v0c-0.0013,-0.02016 -0.10016,-0.10992 -0.26633,-0.28617c-0.61785,-0.63119 -1.29262,-1.26595 -1.95828,-1.89682c-2.56833,-2.43371 -5.01959,-4.70092 -7.28225,-6.82017c-10.77412,-10.09123 -17.27365,-16.56734 -16.77904,-17.12406c0.41592,-0.46795 7.72353,5.0661 19.09015,14.48809c2.32541,1.92772 5.01927,4.17541 7.66565,6.47253c0.68842,0.59672 1.42595,1.23571 2.15534,1.92219c0.13886,0.12162 0.35478,0.32779 0.62339,0.64062v0c0.04325,0.10861 0.09203,0.22698 0.14504,0.35706c0.02699,0.06699 0.05723,0.13723 0.07999,0.21105c0.01366,0.0426 0.01918,0.08162 0.02699,0.11837c0.01789,0.0852 0.04,0.1691 0.06472,0.2582c-0.59477,12.69598 -1.08482,26.35257 -1.42172,42.48253c-0.23121,11.01931 -0.35414,21.47768 -0.44486,31.04242c-0.11349,9.45581 0.06471,22.78785 0.08325,28.983c0.03642,12.19844 -0.14699,19.60492 -0.77134,19.6228z" data-paper-data="{&quot;index&quot;:null}" fill="#000000" stroke-width="9.375"/><path d="M221.08764,149.10217c-0.26739,0.41674 -3.57358,-1.19771 -9.31461,-3.88719c-6.46634,-3.02952 -13.23209,-6.08895 -23.96605,-10.4712c-9.85303,-4.01981 -19.57526,-7.70312 -31.71239,-12.1822c-0.21654,-0.07954 -3.4347,-1.26547 -3.65113,-1.34531c-11.8051,-4.3459 -23.81031,-8.06131 -33.25627,-10.95957c-18.08271,-5.54653 -30.1069,-9.00994 -29.87108,-9.90572c0.20421,-0.77231 12.62453,1.21882 31.07925,5.94239c9.75175,2.49593 21.72197,5.873 33.85989,10.28553c1.2148,0.44142 2.43783,0.88899 3.66695,1.34303c11.88736,4.38614 22.21247,8.53615 31.70036,12.84787c10.19483,4.63063 17.72304,8.66408 23.42457,12.2088c5.44483,3.38475 8.28146,5.74741 8.0405,6.12359z" data-paper-data="{&quot;index&quot;:null}" fill="#000000" stroke-width="9.375"/><path d="M225.75127,133.04438c-0.17701,-0.44704 7.0358,-3.71544 19.0777,-8.09343c12.44597,-4.52478 28.49251,-9.67063 47.82522,-14.81464c1.3182,-0.35095 2.62897,-0.69572 3.93056,-1.03437c12.69977,-3.30301 24.31113,-5.91279 34.43671,-7.9232c18.68889,-3.71163 31.19984,-5.00995 31.3191,-4.25071c0.07684,0.48844 -12.18988,2.89225 -30.61103,7.21512c-10.11662,2.37545 -21.39592,5.1268 -34.14102,8.48201c-1.29627,0.34087 -2.60084,0.6865 -3.91436,1.03608c-19.84924,5.28234 -34.75012,9.69367 -47.96771,13.73468c-12.21356,3.73412 -19.75857,6.14445 -19.95516,5.64848z" data-paper-data="{&quot;index&quot;:null}" fill="#000000" stroke-width="9.37509"/><path d="M221.46351,267.46554c0.3826,0.49299 -8.01867,8.39262 -22.67775,19.84681c-14.92133,11.65811 -35.31124,26.16996 -60.01289,40.69297c-3.48138,2.04706 -6.93285,4.02625 -10.34952,5.93878c-13.1859,7.38247 -25.23019,13.5465 -36.53838,18.76423v0c-6.07652,2.80549 -11.34578,5.0851 -16.72132,6.94967c-2.08638,0.72594 -4.07466,1.34898 -6.13109,1.76954c-0.75747,0.15706 -1.54037,0.28076 -2.35751,0.32402c-0.37148,-0.45164 -0.87511,-0.95805 -1.44975,-1.62266c1.47643,0.15053 2.76685,0.57182 3.81109,1.19704c0.97533,1.18144 1.67781,2.46081 2.2407,3.54778c4.07187,7.78203 6.55987,12.18454 6.28816,12.39091c-0.44808,0.34039 -3.67191,-3.59612 -8.4234,-11.09717c-0.64323,-1.00336 -1.34725,-2.0988 -2.16297,-2.9268c-0.52813,-1.14151 -1.21525,-2.20866 -2.01416,-3.21397c0.36045,-0.3925 0.87192,-0.9163 1.50006,-1.44155c0.58752,-0.06349 1.20222,-0.20415 1.87364,-0.37793c1.82243,-0.47619 3.62097,-1.15197 5.62716,-1.9519c5.16932,-2.0685 10.15285,-4.46062 16.14735,-7.44282v0c11.14261,-5.54838 22.8202,-11.78422 35.9665,-19.2412c3.38117,-1.91772 6.79946,-3.89169 10.25508,-5.9233c24.67519,-14.50742 44.87755,-28.24396 60.41246,-39.20868c15.09847,-10.65647 24.25738,-17.56504 24.71655,-16.97374z" data-paper-data="{&quot;index&quot;:null}" fill="#000000" stroke-width="9.375"/><path d="M220.23951,268.27553c0.35378,-0.51252 10.37966,5.10567 25.68934,15.5727c15.5327,10.61935 35.5995,25.64814 56.82496,44.6799c3.22889,2.89566 6.37158,5.78146 9.42777,8.65398c10.88807,10.23125 20.26412,19.71417 28.54311,28.81244v0c4.43676,4.87311 8.13624,9.13734 11.4699,13.64617c1.27892,1.72496 2.43721,3.39518 3.4155,5.20135c0.35682,0.65345 0.69073,1.34756 0.95344,2.10584c-0.33373,0.45418 -0.69532,1.07518 -1.20923,1.82306c-0.26341,-1.35831 -0.11748,-2.3475 0.04632,-3.01576c1.02422,-1.12151 2.16999,-2.07011 3.11457,-2.85936c7.18414,-6.0358 11.24958,-9.63188 11.55614,-9.3558c0.39505,0.3558 -3.03844,4.58532 -9.77464,11.22865c-0.88357,0.87641 -1.89359,1.8401 -2.65454,2.81374c-0.88964,0.56053 -1.79126,1.01112 -2.30198,1.32703c-0.46598,-0.16907 -1.09957,-0.46831 -1.76126,-0.90109c-0.20589,-0.50638 -0.50024,-1.02027 -0.84244,-1.58292c-0.95108,-1.55163 -2.09603,-3.01767 -3.41932,-4.64586c-3.46017,-4.24514 -7.17673,-8.20177 -11.75678,-12.94335v0c-8.54639,-8.84199 -17.87584,-17.94656 -28.83105,-28.11696c-3.05011,-2.83147 -6.17536,-5.68426 -9.37992,-8.55785c-21.17072,-18.98359 -40.49643,-34.11514 -55.53293,-45.5071c-14.68711,-11.12659 -24.0003,-17.76488 -23.57696,-18.37879z" data-paper-data="{&quot;index&quot;:null}" fill="#000000" stroke-width="9.375"/><path d="M178.03562,125.52203c-19.44008,-3.52917 -48.8069,-25.01653 -43.20584,-56.26365c4.87261,-1.8654 18.24104,-1.38611 24.59277,5.62015c1.06821,-35.45304 31.63515,-71.47945 81.12712,-67.84824c2.50918,37.22408 40.19726,35.02619 54.0099,24.97279c6.37361,16.81224 -11.54745,48.28495 -31.83539,48.22352" data-paper-data="{&quot;index&quot;:null}" fill="#000000" stroke-width="9.375"/><path d="M275.6852,97.09155c-0.74686,29.05445 -24.51262,52.18892 -53.57263,51.6614c-29.05929,-0.52787 -52.18857,-24.51258 -51.66104,-53.57227c0.52785,-29.05932 24.57437,-49.69778 53.57191,-51.6614c29.89607,-2.02436 52.42735,23.78621 51.66176,53.57227z" data-paper-data="{&quot;index&quot;:null}" fill="#f2f2f2" stroke-width="9.0943"/><path d="M185.87066,59.71649c36.74374,-34.8863 88.61095,-15.38099 89.75623,37.29903c-0.56257,21.86738 -14.16456,40.37947 -33.24859,47.97609c-41.20057,11.71544 -86.66294,-31.26829 -56.50764,-85.27508z" data-paper-data="{&quot;index&quot;:null}" fill="#ffffff" stroke-width="9.09417"/><path d="M264.91157,63.51394c-0.31475,0.19472 -3.54998,-6.41107 -13.55304,-12.56811v0c-4.19099,-2.58482 -9.60569,-4.86565 -16.14033,-5.92589c-5.29116,-0.85895 -11.19,-0.89785 -17.45497,0.18496c-5.55216,0.96135 -11.31805,2.80039 -16.94549,5.67882c-5.11865,2.62092 -10.12385,6.10914 -14.51925,10.5219c-4.09762,4.11428 -7.68581,9.06497 -10.21476,14.67715c-2.51162,5.56081 -3.96853,11.79592 -4.12784,18.23617c-0.18497,7.08714 1.20531,14.35581 3.80057,21.41934c2.58066,7.07049 7.62122,13.3379 13.91432,18.25457c0.28077,0.21934 0.56466,0.43555 0.85099,0.64898c6.51104,4.85908 14.03266,8.14566 21.6921,9.94928c8.57185,2.00456 17.30366,2.13365 25.35456,0.29117c8.79603,-2.00563 16.63212,-6.45133 22.45009,-12.35469v0c6.20839,-6.27124 10.10404,-14.16632 12.00242,-21.87086c2.16179,-8.7707 1.94036,-17.48031 0.59035,-24.98911c-1.68945,-9.3402 -5.05827,-16.88996 -8.79428,-22.63297c-3.91682,-6.00329 -7.98811,-9.68516 -11.06679,-11.96356c-3.0353,-2.24682 -4.90731,-3.12418 -4.82644,-3.31054c0.05486,-0.12425 2.11148,0.32067 5.47649,2.33427c3.36986,2.01604 7.93185,5.60871 12.26758,11.67378c4.15456,5.79507 7.98462,13.57769 10.01315,23.29999c1.64191,7.82877 2.08718,17.00725 -0.03678,26.44046c-1.87545,8.32542 -5.95087,16.91045 -12.66564,23.90283v0c-6.31667,6.54922 -14.80037,11.49955 -24.41334,13.7651c-8.75194,2.05661 -18.1713,1.99035 -27.3848,-0.14506c-8.23174,-1.89663 -16.32946,-5.42719 -23.40968,-10.69959c-0.31095,-0.23182 -0.61948,-0.46642 -0.92558,-0.70416c-6.89453,-5.33418 -12.41784,-12.30748 -15.36674,-20.3216c-2.75593,-7.53482 -4.19135,-15.37995 -3.9536,-23.11398c0.22454,-7.04028 1.87965,-13.82548 4.68833,-19.88292c2.83508,-6.09874 6.77828,-11.40342 11.25663,-15.76585c4.79694,-4.67305 10.19603,-8.30526 15.68777,-10.98452c6.03278,-2.94438 12.18462,-4.75528 18.08138,-5.62743c6.65402,-0.98597 12.90475,-0.75415 18.4732,0.33907c6.88553,1.35178 12.51156,4.0147 16.77302,6.95076v0c10.53543,7.2697 12.12112,14.48142 12.42653,14.29229z" data-paper-data="{&quot;index&quot;:null}" fill="#000000" stroke-width="9.375"/><path d="M223.72522,87.93141c1.36807,0.02461 2.42414,3.00961 2.35787,6.66303c-0.0663,3.65309 -1.23031,6.5978 -2.59838,6.57282c-1.36738,-0.02461 -2.42346,-3.00961 -2.35719,-6.66303c0.0663,-3.65309 1.22996,-6.5978 2.5977,-6.57283z" data-paper-data="{&quot;index&quot;:null}" fill="#000000" stroke-width="9.375"/><path d="M250.07609,94.08521c0.0663,-3.65342 1.23031,-6.59812 2.59769,-6.57315c1.36807,0.02497 2.42451,3.00997 2.35788,6.66303c-0.06627,3.65306 -1.22996,6.59779 -2.59803,6.57314c-1.36738,-0.02497 -2.42379,-3.00997 -2.35752,-6.66303z" data-paper-data="{&quot;index&quot;:null}" fill="#000000" stroke-width="9.375"/><path d="M236.84057,122.63949c5.79226,0.0377 10.26354,4.61081 9.98296,10.20795c-0.28071,5.59663 -5.209,10.10801 -11.00126,10.06974c-5.78934,-0.0377 -10.26066,-4.61081 -9.98008,-10.20795c0.28071,-5.59663 5.20752,-10.10801 10.99838,-10.06976z" data-paper-data="{&quot;index&quot;:null}" fill="#000000" stroke-width="9.375"/><path d="M237.05624,124.88943c4.43547,0.02887 7.85939,3.53076 7.64453,7.81682c-0.21495,4.28567 -3.98883,7.74029 -8.4243,7.71099c-4.43323,-0.02887 -7.85719,-3.53076 -7.64233,-7.81682c0.21495,-4.28567 3.9877,-7.74029 8.42209,-7.711z" data-paper-data="{&quot;index&quot;:null}" fill="#ffffff" stroke-width="9.375"/></g></g></svg>