<svg version="1.1" xmlns="http://www.w3.org/2000/svg" xmlns:xlink="http://www.w3.org/1999/xlink" width="167.99961" height="302.77008" viewBox="0,0,167.99961,302.77008"><g transform="translate(-138.19422,-108.88696)"><g data-paper-data="{&quot;isPaintingLayer&quot;:true}" fill-rule="nonzero" stroke-linejoin="miter" stroke-miterlimit="10" stroke-dasharray="" stroke-dashoffset="0" style="mix-blend-mode: normal"><g data-paper-data="{&quot;index&quot;:null,&quot;origRot&quot;:0}"><path d="M260.40831,314.9288c-7.3819,3.81673 -16.46021,0.92657 -20.27691,-6.45532c-3.81671,-7.3819 -0.92658,-16.46016 6.45531,-20.27689c7.3819,-3.81673 16.46017,-0.9266 20.2769,6.4553c3.81672,7.38191 0.92659,16.46019 -6.45532,20.27691z" data-paper-data="{&quot;index&quot;:null}" fill="#ffdfbd" stroke="#dcc0a3" stroke-width="2.5" stroke-linecap="butt"/><path d="M242.32757,252.48324c5.50064,9.72619 18.01579,37.8864 8.91844,43.839c-9.09735,5.9526 -16.36877,12.49081 -34.39188,-27.17115c-18.02311,-39.66196 -9.10398,-63.63729 0.96673,-61.43157c26.77778,0.12417 10.05515,19.21056 24.50671,44.7637z" data-paper-data="{&quot;origPos&quot;:null,&quot;origRot&quot;:0,&quot;index&quot;:null}" fill="#328eff" stroke="#276cc1" stroke-width="5" stroke-linecap="round"/></g><g data-paper-data="{&quot;origRot&quot;:0}"><path d="M281.15371,218.74928l0.84363,34.82645l-13.21207,-17.5804l-13.99867,39.56671l-1.60255,-28.56209l-69.21652,96.86647l-32.00114,4.68418l104.94659,-143.30549z" data-paper-data="{&quot;origPos&quot;:null}" fill="#a7dfff" stroke="#00a0ff" stroke-width="5" stroke-linecap="round"/><path d="M254.23693,203.22545l-109.05541,141.10267l-4.3694,-33.06697l74.27645,-93.0433l-27.91364,6.2601l34.23835,-24.27393l-20.52074,-7.90758l33.7325,-8.70126z" data-paper-data="{&quot;origPos&quot;:null,&quot;index&quot;:null}" fill="#77cdff" stroke="#00a0ff" stroke-width="5" stroke-linecap="round"/><path d="M282.7792,148.21863c2.93263,-3.88127 10.28131,-3.27143 16.41371,1.36213c6.13241,4.63356 8.72632,11.53619 5.79372,15.41746c-2.93263,3.88127 -10.28131,3.27142 -16.41371,-1.36213c-6.13241,-4.63356 -8.72632,-11.53618 -5.79372,-15.41745z" data-paper-data="{&quot;origPos&quot;:null}" fill="#ffe566" stroke="none" stroke-width="NaN" stroke-linecap="butt"/><g data-paper-data="{&quot;origPos&quot;:null}"><path d="M304.06677,166.06957l-22.68201,30.01912c-0.14743,-0.09536 -0.29626,-0.18975 -0.44677,-0.2832l-1.1338,-0.69109c0,0 -2.07482,-1.41463 -3.56052,0.77061c-1.48575,2.18523 0.80991,3.74208 0.80991,3.74208l1.1338,0.6911c0.00038,0.00023 0.00075,0.00046 0.00115,0.00068l-3.43294,4.54344l-21.92631,-16.5672l18.34114,-24.27409c1.18171,0.9211 2.36834,1.83449 3.56247,2.73674c0,0 2.10831,1.59301 3.7013,-0.51529c1.59301,-2.10831 -0.51529,-3.7013 -0.51529,-3.7013c-1.19405,-0.90222 -2.3807,-1.81561 -3.56247,-2.73674l7.78404,-10.30202z" data-paper-data="{&quot;origPos&quot;:null}" fill="#9f6500" stroke="none" stroke-width="NaN" stroke-linecap="butt"/><path d="M276.63921,195.3561l-18.34222,-13.85909" fill="none" stroke="#000000" stroke-width="0.5" stroke-linecap="round"/><path d="M265.7841,171.58797l21.34535,16.45944" fill="none" stroke="#000000" stroke-width="0.5" stroke-linecap="round"/><path d="M294.13862,178.77087l-15.65294,-12.15832" fill="none" stroke="#000000" stroke-width="0.5" stroke-linecap="round"/><path d="M299.55483,171.60269l-21.02674,-16.88108" fill="none" stroke="#000000" stroke-width="0.5" stroke-linecap="round"/></g><path d="M302.58079,207.3397l-14.01841,18.55304l-62.40568,-47.15278l14.01841,-18.55304l12.92947,26.34625l23.70331,18.68121z" data-paper-data="{&quot;origPos&quot;:null}" fill="#ffe566" stroke="none" stroke-width="0" stroke-linecap="butt"/></g><g data-paper-data="{&quot;origRot&quot;:0}" stroke-linecap="butt"><path d="M224.32943,383.38939l10.765,-18.83694l14.21654,3.94246c0,0 -3.30175,10.86427 -2.38053,13.25086c2.76368,7.15981 12.5481,5.2922 10.31834,13.33273c-1.25366,4.52075 -14.50857,-2.88936 -14.50857,-2.88936z" data-paper-data="{&quot;index&quot;:null}" fill="#6f501e" stroke="#6f501e" stroke-width="7.5"/><path d="M231.8708,363.1273c0,0 9.39963,-20.574 13.5247,-35.44907c4.05331,-14.61632 7.4314,-40.11896 7.4314,-40.11896l17.76244,-14.16361c0,0 14.30207,50.00551 10.06313,65.2912c-3.93945,14.20571 -16.06624,33.51289 -16.06624,33.51289z" fill="#7d7d7d" stroke="#4b4b4b" stroke-width="5"/></g><g data-paper-data="{&quot;origRot&quot;:0}" stroke-linecap="butt"><path d="M195.20174,403.5745l2.92295,-24.41409l14.64845,1.75377c0,0 -1.62584,11.23791 -0.35531,13.45833c3.81166,6.66123 13.20261,3.33962 12.21072,11.62446c-0.55768,4.6581 -14.77836,-0.66869 -14.77836,-0.66869z" data-paper-data="{&quot;index&quot;:null}" fill="#6f501e" stroke="#6f501e" stroke-width="7.5"/><path d="M186.75192,377.93755l9.32214,-77.86389l33.70936,4.0358l-9.32214,77.86389z" fill="#7d7d7d" stroke="#4b4b4b" stroke-width="5"/></g><path d="M192.39161,208.88341c0,0 -7.53317,-16.5044 6.55965,-19.84399c14.09285,-3.33958 49.52729,-7.71151 71.33615,1.65367c15.55838,6.68111 4.09977,18.19033 4.09977,18.19033z" data-paper-data="{&quot;index&quot;:null}" fill="#328eff" stroke="#276cc1" stroke-width="5" stroke-linecap="butt"/><path d="M194.51198,307.49727c0,0 -3.68431,-80.30148 4.42109,-94.46596c7.47755,-13.06733 21.05767,6.55715 36.10997,6.2452c16.31951,-0.3382 31.63043,-22.61874 40.3505,-8.82013c5.80736,9.18954 0,97.04092 0,97.04092z" fill="#328eff" stroke="#276cc1" stroke-width="5" stroke-linecap="butt"/><path d="M262.41583,244.10412l0.40981,-18.44133" fill="none" stroke="#ededed" stroke-width="3.5" stroke-linecap="round"/><path d="M238.8617,229.12895l-0.40981,18.44133" fill="none" stroke="#ededed" stroke-width="3.5" stroke-linecap="round"/><path d="M212.5354,216.21946v-18.17046h45.42619v18.17046z" fill="#ffdfbd" stroke="#dcc0a3" stroke-width="1.5" stroke-linecap="butt"/><path d="M234.28282,292.96355c0,0 2.34783,-6.28826 2.34783,-10.31304c0,-4.14266 -0.52173,-10.61504 -0.52173,-10.61504l36.7101,0.90595c0,0 0,5.38229 0,9.40709c0,4.14266 2.86957,10.61504 2.86957,10.61504z" fill="none" stroke="#276cc1" stroke-width="3.5" stroke-linecap="butt"/><path d="M282.82643,203.06978c7.95434,7.91208 -30.00543,27.32992 -47.57795,27.97297c-17.23522,-1.24211 -54.94377,-19.29254 -46.6216,-27.97297c16.91397,-9.12212 21.08729,12.19334 46.6216,11.71516c26.00792,-0.48703 33.55258,-25.666 47.57795,-11.71516z" fill="#328eff" stroke="#276cc1" stroke-width="5" stroke-linecap="butt"/><path d="M190.9938,159.08443c0,-23.51253 19.06068,-42.57319 42.57318,-42.57319c23.51253,0 42.57318,19.06068 42.57318,42.57319c0,23.51253 -20.97334,44.96404 -42.57318,44.48587c-22.07261,-0.48864 -42.57318,-20.97336 -42.57318,-44.48587z" fill="#ffdfbd" stroke="#dcc0a3" stroke-width="5" stroke-linecap="butt"/><path d="M261.82295,168.8522l6.36119,11.51742l-7.09517,1.82272" fill="#ffdfbd" stroke="#dcc0a3" stroke-width="2" stroke-linecap="round"/><path d="M249.1274,169.73652l0.54641,-15.84589" fill="none" stroke="#000000" stroke-width="5" stroke-linecap="round"/><path d="M273.74938,169.3256l0.5464,-15.84589" fill="none" stroke="#000000" stroke-width="5" stroke-linecap="round"/><path d="M276.21457,148.28089l-14.97796,2.68879l-0.85005,-12.89011l-15.09581,9.62726l-0.39963,-7.51298l-14.72855,6.26494l0.38979,-7.61881l-17.89512,6.76523l-6.12903,-6.436l-15.62513,13.555c0,0 -2.52096,-4.76821 5.84044,-18.48054c1.89052,-2.39228 -2.14281,-8.18273 -2.14281,-8.18273l8.67218,-3.3354l2.31479,-8.76087l8.19021,3.32601c0,0 35.13697,0.1633 39.03783,0.47005c4.20402,0.33058 13.25599,7.08768 13.25599,7.08768c0,0 -7.32719,0.87238 -5.50874,1.53339c15.10246,5.48974 15.65162,21.89911 15.65162,21.89911z" data-paper-data="{&quot;origRot&quot;:0}" fill="#7e5d1d" stroke="#7e5d1d" stroke-width="7.5" stroke-linecap="round"/><path d="M203.25865,183.08291l-5.2309,-7.64515" fill="none" stroke="#ffffff" stroke-width="5" stroke-linecap="round"/><path d="M262.24886,189.56115c0,0 -8.74539,0.12628 -13.20365,-1.31187c-2.7196,-0.87729 -5.18874,-4.62116 -5.18874,-4.62116" fill="none" stroke="#000000" stroke-width="2" stroke-linecap="round"/><g data-paper-data="{&quot;index&quot;:null,&quot;origRot&quot;:0}"><path d="M272.12702,314.58351c-6.66072,4.96937 -16.0888,3.59824 -21.05815,-3.06248c-4.96935,-6.66073 -3.59825,-16.08875 3.06248,-21.05813c6.66072,-4.96936 16.08877,-3.59827 21.05814,3.06245c4.96937,6.66075 3.59825,16.08878 -3.06248,21.05815z" data-paper-data="{&quot;index&quot;:null}" fill="#ffdfbd" stroke="#dcc0a3" stroke-width="2.5" stroke-linecap="butt"/><path d="M244.10562,255.92209c7.01302,8.69905 23.95256,34.44157 15.94764,41.79795c-8.00493,7.35639 -14.11287,14.99278 -38.36219,-21.19939c-24.24933,-36.19217 -19.35912,-61.30101 -9.06352,-60.76697c26.43961,-4.24399 13.05312,17.3138 31.47806,40.1684z" data-paper-data="{&quot;origPos&quot;:null,&quot;origRot&quot;:0,&quot;index&quot;:null}" fill="#328eff" stroke="#276cc1" stroke-width="5" stroke-linecap="round"/></g></g></g></svg>