<svg version="1.1" xmlns="http://www.w3.org/2000/svg" xmlns:xlink="http://www.w3.org/1999/xlink" width="278.97823" height="219.74317" viewBox="0,0,278.97823,219.74317"><g transform="translate(-141.83675,-133.62946)"><g data-paper-data="{&quot;isPaintingLayer&quot;:true}" fill-rule="nonzero" stroke-linejoin="miter" stroke-miterlimit="10" stroke-dasharray="" stroke-dashoffset="0" style="mix-blend-mode: normal"><g stroke-width="3.5"><g data-paper-data="{&quot;index&quot;:null}" stroke="#000000" stroke-linecap="butt"><path d="M310.13602,221.07619c-0.43302,3.20236 -4.67841,5.26547 -9.48233,4.60807c-4.80393,-0.6574 -8.34724,-3.78636 -7.91422,-6.98872c0.43302,-3.20236 4.67841,-5.26547 9.48234,-4.60807c4.80393,0.6574 8.34723,3.78636 7.91421,6.98872z" fill="#fff5e8"/><path d="M305.71852,215.15761l24.22642,5.18655l-2.26793,9.58911l-24.37295,-4.56702z" fill="#0800ff"/><path d="M328.49406,220.01439l24.45768,5.55886l-2.26793,9.58911l-24.45768,-5.55886z" fill="#030056"/></g><g fill="#171717" stroke="#000000" stroke-linecap="butt"><path d="M375.47484,311.28658l-49.2799,-22.41478l4.85176,-13.57003l49.2799,22.41478z"/><path d="M380.9248,314.7656l-5.76821,-3.08265l6.21599,-13.95848l7.40899,-2.18855z"/></g><g fill="#171717" stroke="#000000" stroke-linecap="butt"><path d="M281.56693,299.21241l50.49997,-22.14671l4.78289,13.59445l-50.49997,22.14671z"/><path d="M274.80623,300.06329l6.53895,-1.28209l3.94736,14.76306l-4.48752,6.40766z"/></g><g stroke="#000000" stroke-linecap="butt"><path d="M318.04298,278.1586l25.32237,-52.51416l29.66905,14.56165l-26.5965,51.88882z" fill="#d1d1d1"/><g><path d="M311.32374,277.79959c0,0 9.57712,-11.52309 14.45849,-19.65185c4.32086,-7.19536 13.35381,-26.6629 13.35381,-26.6629l14.18161,1.98303l-27.57677,56.62205z" fill="#0800ff"/><path d="M328.58488,251.86935l9.82119,-20.01046l15.82749,1.13401l-14.61933,29.78656c0,0 -3.4561,-6.68565 -5.44435,-8.6524c-1.60592,-1.58856 -5.585,-2.25771 -5.585,-2.25771z" fill="#040073"/><path d="M334.05713,240.71975l0.55531,-1.13142l12.5281,7.39915l-0.55531,1.13142z" fill="#ffffff"/></g><g data-paper-data="{&quot;index&quot;:null}"><path d="M339.06255,294.27921c0,0 11.46377,-24.72751 16.11663,-34.76379c3.55395,-7.66592 9.4028,-20.28197 9.4028,-20.28197l5.84696,7.84704c0,0 -9.72252,19.12911 -13.00017,26.83647c-3.70284,8.70719 -8.09727,22.77396 -8.09727,22.77396z" fill="#0800ff"/><path d="M357.33934,265.73571c-1.91512,0.05097 -6.17853,2.17205 -6.17853,2.17205l13.43471,-29.59217l5.82554,9.49336l-9.82119,20.01046c0,0 -1.71368,-2.12487 -3.26053,-2.0837z" fill="#040073"/><path d="M358.19344,253.93958l0.51035,-1.03982l7.8787,2.73022l-0.51035,1.03982z" fill="#ffffff"/></g></g><g data-paper-data="{&quot;index&quot;:null}" stroke="#000000" stroke-linecap="butt"><path d="M301.80142,232.75859c0.22876,3.73934 -3.27346,7.17458 -7.82244,7.67282c-4.54897,0.49824 -8.42208,-2.12919 -8.65084,-5.86854c-0.22876,-3.73934 3.27347,-7.17458 7.82244,-7.67282c4.54897,-0.49824 8.42208,2.12919 8.65084,5.86854z" fill="#fff5e8"/><path d="M296.57758,227.19754l23.30716,-0.39307l-0.20872,11.44832l-23.32065,1.13272z" fill="#0800ff"/><path d="M318.48517,226.80632l23.59287,-0.03119l-0.20872,11.44832l-23.59287,0.03119z" fill="#030056"/></g><g><path d="M343.12156,206.56644c7.02984,-14.32313 24.33983,-20.23552 38.66297,-13.20569c14.32313,7.02984 20.23552,24.33983 13.20569,38.66297c-7.02984,14.32313 -24.33983,20.23552 -38.66297,13.20569c-14.32313,-7.02984 -20.23552,-24.33983 -13.20569,-38.66297z" fill="#fff5e8" stroke="#000000" stroke-linecap="butt"/><path d="M400.87714,217.25001c-2.50015,5.09401 -8.60382,1.81782 -24.48722,-5.9778c-15.8834,-7.79562 -37.12634,1.60395 -34.62619,-3.49005c1.16657,-2.37687 7.01456,-14.70473 14.58695,-17.89102c1.11862,-0.47069 -1.15692,-1.26144 0.05751,-1.53904c3.21538,-0.73498 6.14104,-1.20562 8.91861,-1.37738c0.44236,-0.02735 -0.98009,-1.43743 -0.54468,-1.44948c0.25125,-0.00695 1.0218,0.88951 2.36656,0.8658c1.19032,-0.02098 2.96717,-0.97118 3.23112,-0.85708c0.82669,0.35734 -2.32553,1.23885 -1.58898,1.33298c5.51389,0.70465 11.18643,2.01183 16.75504,4.93814c6.7569,3.55076 13.87811,8.87608 16.32967,13.50494c0.40148,0.75804 -1.69786,-0.59674 -1.41658,0.24741c1.04568,3.13825 2.46569,7.52084 0.41819,11.69258z" fill="#4e402c" stroke="#000000" stroke-linecap="butt"/><path d="M417.04897,216.36474c0,0 -6.22044,2.35084 -14.54863,3.93452c-1.19333,0.22692 10.23973,3.9677 10.23973,3.9677c0,0 -6.85011,0.81577 -15.48008,-0.07642c-9.29357,-0.9608 -15.873,-8.55411 -20.1443,-9.70077c-4.19854,-1.12713 -18.98768,-5.18887 -28.26423,-1.92042c-5.56405,1.96041 -8.95147,13.8176 -9.28981,11.75002c-0.79243,-4.8424 0.71664,-13.16013 2.66401,-17.86148c1.31988,-3.18644 4.15692,-4.49114 4.50964,-5.20979c1.57996,-3.21913 16.9819,-5.41555 33.74967,2.81412c6.53406,3.20693 26.49877,6.16013 26.49877,6.16013c0,0 -6.4251,3.82507 -5.56201,3.99615c8.87686,1.75953 15.62724,2.14623 15.62724,2.14623z" fill="#392e1e" stroke="#000000" stroke-linecap="butt"/><g><path d="M372.90818,228.0371l1.2894,-2.62711c0,0 2.28526,0.37784 3.19122,0.82249c0.85606,0.42016 2.10337,1.77611 2.10337,1.77611l-1.2894,2.62712c0,0 -1.59603,-1.40315 -2.4521,-1.82331c-0.90597,-0.44465 -2.8425,-0.7753 -2.8425,-0.7753z" fill="#000000" stroke="#000000" stroke-linecap="butt"/><g><path d="M357.27659,224.14253l3.82791,-7.79928l14.85828,7.29249l-3.82791,7.79928z" fill="#000000" stroke="#000000" stroke-linecap="butt"/><path d="M371.43568,221.77902l-11.27294,3.78003" fill="none" stroke="#ffffff" stroke-linecap="round"/><path d="M373.86485,225.56634l-7.87736,2.46628" fill="none" stroke="#ffffff" stroke-linecap="round"/></g><g><path d="M376.32327,233.49069l3.82791,-7.79928l13.44913,6.60087l-3.82791,7.79928z" fill="#000000" stroke="#000000" stroke-linecap="butt"/><path d="M378.93569,234.77287l10.55316,-4.1333" fill="none" stroke="#ffffff" stroke-linecap="round"/><path d="M391.54477,234.49162l-7.47885,2.78583" fill="none" stroke="#ffffff" stroke-linecap="round"/></g></g><path d="M371.22922,239.28762l-13.59165,-7.4146" fill="none" stroke="#000000" stroke-linecap="round"/></g></g><g stroke="none" stroke-linecap="butt"><g stroke-width="0.5"><path d="M355.83957,240.98563c-0.78333,-0.06393 -0.71942,-0.84707 -0.71942,-0.84707l0.06863,-0.79403c-0.24388,-2.01876 -0.97015,-5.16039 1.48839,-6.1152c0.09217,-0.0358 1.75672,-0.22416 1.94229,-0.24577c0,0 0.02938,-0.00342 0.0774,-0.00324c0.04799,-0.00184 0.07746,0.00056 0.07746,0.00056l1.04604,0.08537c0.96231,0.09001 1.59613,-0.00273 2.38193,0.73346c0.26713,0.25026 0.26436,1.20866 0.53296,0.96002c1.03369,-0.95684 1.25734,-2.22434 2.91505,-2.59281c1.03757,-0.23062 3.68636,0.12916 4.30795,1.05182c0.15901,0.23602 -0.38703,2.18997 -0.47009,2.51454c-0.22659,0.42417 -0.47456,0.76084 -0.74659,1.03658c1.38022,-0.43263 2.75468,-0.44797 3.34321,0.89132c0.43325,0.98592 -0.15837,2.31958 -1.03776,3.10011c1.22537,0.36774 2.12426,1.21361 0.76766,2.70077c-0.82101,0.90003 -3.3646,0.83129 -4.47922,0.74267c-3.74075,-0.29739 -8.23778,-0.51038 -11.11376,-3.18523c0,0 -0.02349,-0.02215 -0.05645,-0.06224c-0.09166,0.02693 -0.19932,0.03866 -0.32568,0.02835zM356.7814,234.96347c-0.79174,0.92856 -0.14098,3.28994 -0.02098,4.35395l-0.02549,0.32861c0.3204,-0.00063 0.56528,0.23029 0.56528,0.23029c2.31522,2.22043 6.24279,2.44222 9.29137,2.691c0.79087,0.06454 5.99782,-0.32786 3.36956,-0.42928c-0.31649,-0.02708 -0.63299,-0.05416 -0.94948,-0.08125l-0.8115,0.0945c-0.05555,0.00758 -0.1128,0.0093 -0.17098,0.00455c-0.43262,-0.03531 -0.75472,-0.41456 -0.71942,-0.84708c0.02552,-0.31264 0.23077,-0.56754 0.50597,-0.67148l1.01708,-0.40873c0.43351,-0.34724 1.0455,-0.46813 1.41164,-0.88582c0.35568,-0.40575 0.6647,-1.52862 -0.29749,-1.26253c-1.59004,0.43972 -3.03042,1.66093 -4.5805,2.03162c-0.58362,0.13957 -1.30677,0.52303 -1.7922,0.17028c-1.24109,-0.90184 -0.24444,-2.2484 0.43326,-2.79836c1.18788,-0.96398 3.35756,-0.76857 4.00639,-2.29559c0.07928,-0.32101 0.10782,-0.65902 0.23785,-0.96305c0.05584,-0.13055 0.40628,-0.20332 0.30236,-0.30009c-0.83296,-0.7756 -3.17162,-0.1163 -3.84682,0.63813c-0.37386,0.41774 -0.93827,1.58394 -1.53228,1.70537c-1.89477,0.38735 -1.35361,-0.49722 -2.08579,-1.35922c-0.25827,-0.30407 -1.17049,-0.26185 -1.39667,-0.27673l-0.9776,-0.07978c-0.54564,0.04263 -1.55992,-0.02749 -1.93354,0.41069z" fill="#ffeeda"/><path d="M358.68546,234.53344l0.97961,0.07721c0.22618,0.01488 1.14263,-0.03149 1.40091,0.27258c0.73218,0.862 0.20381,1.73989 2.09857,1.35253c0.59401,-0.12144 1.1794,-1.28748 1.55326,-1.70522c0.67519,-0.75443 3.03069,-1.40281 3.86366,-0.62721c0.10393,0.09677 -0.24634,0.16975 -0.30217,0.3003c-0.13002,0.30402 -0.15603,0.64544 -0.23531,0.96646c-0.64882,1.52703 -2.87444,1.37298 -4.06232,2.33697c-0.67769,0.54996 -1.6473,1.83904 -0.40621,2.74088c0.48543,0.35274 1.18677,-0.02458 1.77039,-0.16414c1.55008,-0.37068 2.97551,-1.5655 4.56555,-2.00523c0.96218,-0.26609 0.72331,0.86653 0.36764,1.27228c-0.36614,0.41769 -0.98071,0.54551 -1.41422,0.89275l-1.02004,0.41355c-0.27521,0.10395 -0.48433,0.36323 -0.50984,0.67587c-0.03529,0.43252 0.23686,0.76277 0.66948,0.79808c0.05818,0.00475 0.11492,0.00351 0.17048,-0.00408l0.80926,-0.09214c0.31649,0.02708 0.68946,0.09604 1.00596,0.12312c2.62827,0.10142 -2.58955,0.50336 -3.38043,0.43882c-3.04858,-0.24878 -7.02789,-0.4891 -9.34311,-2.70953c0,0 -0.2455,-0.23277 -0.56589,-0.23215l0.02509,-0.33012c-0.12,-1.06401 -0.76892,-3.44652 0.02283,-4.37507c0.37362,-0.43818 1.39121,-0.3739 1.93685,-0.41653z" data-paper-data="{&quot;noHover&quot;:false,&quot;origItem&quot;:[&quot;Path&quot;,{&quot;applyMatrix&quot;:true,&quot;segments&quot;:[[[417.04872,395.65949],[1.36706,0.94626],[-2.89695,-2.00522]],[[404.3438,396.59585],[3.07503,-0.57925],[0,0]],[[403.37923,396.59957],[0,0],[0.07812,0.89719]],[[402.84207,398.23539],[0,0],[-5.92561,6.99179]],[[397.20442,424.87305],[0,-8.5951],[0,2.22978]],[[399.25866,434.21214],[0.32981,7.38424],[0.00366,-0.89261]],[[399.26963,431.53432],[-0.00366,0.89261],[0,0]],[[398.80083,429.28314],[0,0],[-0.03534,-0.15387]],[[398.74687,428.8053],[0,0.16407],[0,-1.21972]],[[401.04642,426.59679],[-1.27001,0],[0.91799,0]],[[403.12549,427.86042],[-0.36872,-0.74702],[0,0]],[[404.55984,430.61553],[0,0],[1.11606,1.13477]],[[407.47966,434.36669],[-1.30552,-0.93],[1.26818,0.90341]],[[411.0915,433.24496],[1.00519,2.63399],[-1.66111,-4.35277]],[[404.07521,420.88057],[1.45022,4.25662],[-0.54603,-1.60267]],[[403.15189,415.90003],[-0.91335,1.44018],[2.33514,-3.68208]],[[411.41749,416.47389],[-1.76547,-1.77234],[3.09457,3.10661]],[[419.06713,427.17001],[-4.60861,-1.46817],[0.95524,0.14868]],[[421.93285,427.61604],[-0.91777,-0.29467],[0.39408,0.12653]],[[422.88013,428.39427],[-0.25752,0.31319],[2.06405,-2.51018]],[[420.10311,417.76623],[2.36131,1.7186],[-1.30747,-0.9516]],[[414.76401,413.86451],[0.49561,1.63592],[-1.58088,-5.21818]],[[418.23219,407.71211],[-2.34006,2.24766],[0.82546,-0.79287]],[[418.70693,403.73719],[0.01044,0.63687],[0,0]],[[418.70693,400.98096],[0,0],[-0.25423,-1.51845]]],&quot;closed&quot;:true}]}" fill="#ffffff"/></g><g stroke-width="0.5"><path d="M330.22086,241.30348c-0.71604,0.21765 -1.02197,-0.33202 -1.09921,-0.50648c-0.13791,-0.11231 -0.2506,-0.28693 -0.28431,-0.55758c-0.01542,-0.12383 -0.00981,-0.23166 0.01102,-0.3255c-0.61803,-2.2469 -0.75444,-4.55801 -0.87481,-6.882c-0.06095,-1.17685 -0.36173,-2.08943 1.13405,-2.69332c0.35562,-0.14359 2.23445,0.13789 2.77392,0.14214c7.50591,0.0591 11.88693,1.01805 19.38647,0.76827c2.2672,0.28701 3.43221,0.19763 5.01881,1.63936c1.46642,1.33251 0.99251,3.66942 0.8477,5.34177c-0.28928,0.89503 -0.485,2.41821 -1.20713,3.11407c-1.46585,1.41251 -4.06093,0.93001 -5.9032,0.90288zM330.52189,239.96074c1.94667,-0.05214 14.87726,0.74783 19.50362,0.82111c1.11666,0.01769 3.71484,0.54833 4.57857,-0.36543c0.43878,-0.4642 0.57522,-1.71406 0.76423,-2.27933c0.06492,-0.85852 0.59764,-3.48506 -0.24993,-4.14106c-1.83815,-1.42268 -22.37677,-1.86709 -25.37632,-1.82076c-0.29704,0.00458 0.07667,1.80628 0.08218,1.89835c0.11077,1.85044 0.24653,4.11197 0.69764,5.88712z" fill="#0010c3"/><path d="M329.78941,234.06645c-0.00551,-0.09206 -0.37785,-1.89843 -0.0808,-1.90303c2.99956,-0.04633 23.60633,0.40264 25.44448,1.82531c0.84757,0.65599 0.3155,3.29384 0.25057,4.15236c-0.18902,0.56527 -0.32686,1.82156 -0.76563,2.28576c-0.86373,0.91377 -3.46477,0.38949 -4.58144,0.37181c-4.62636,-0.07329 -17.62216,-0.88061 -19.56883,-0.82847c-0.45111,-1.77516 -0.58758,-4.05331 -0.69836,-5.90374z" data-paper-data="{&quot;noHover&quot;:false,&quot;origItem&quot;:[&quot;Path&quot;,{&quot;applyMatrix&quot;:true,&quot;segments&quot;:[[[358.81615,328.73572],[5.07053,-1.66915],[0.61547,5.44017]],[[361.06361,383.54771],[-0.88746,-12.97392],[0.21421,3.13151]],[[363.2194,396.28753],[-2.87095,-2.21024],[1.45844,1.1228]],[[370.04982,397.90696],[-1.69381,-0.40017],[2.51965,-0.01438]],[[382.06927,396.26052],[-1.71169,2.52373],[3.71224,-5.47333]],[[381.33974,324.77224],[0.84915,8.39033],[-0.08409,-0.8309]],[[375.82208,325.43628],[0.26722,-0.03648],[-5.37113,0.73317]]],&quot;closed&quot;:true}]}" fill="#ffffff"/></g><g stroke-width="0.5"><path d="M317.23347,207.42895c-1.94645,1.88954 -5.246,4.46988 -4.16141,7.86756c0.68324,2.14038 2.54975,4.54722 3.75663,6.4707c3.01833,4.25312 5.27282,8.93127 8.30388,13.20057c0.82808,1.16635 1.84938,3.26224 3.05625,4.04361c0.78946,0.51112 1.75551,0.67281 2.59921,0.99829c0.95168,-0.00363 2.01706,-0.4058 2.78729,-0.89488c5.79173,-3.67765 -1.58755,-10.0453 -3.92238,-14.66898c-1.84898,-3.0407 -4.12015,-5.84739 -6.25693,-8.68182c-2.11991,-2.81205 -3.73153,-5.76002 -6.16254,-8.33506zM316.73504,205.62131c0.44832,-0.31844 0.96183,0.15366 0.96183,0.15366l0.56087,0.51894c2.50146,2.63987 4.15577,5.65178 6.33279,8.5317c2.20204,2.91302 4.52186,5.80695 6.42289,8.93519c1.87583,3.71308 7.03717,8.28557 6.61646,12.56015c-0.11838,1.2027 -0.9204,2.05705 -1.59488,2.88692c-0.6406,0.78819 -1.32971,1.45425 -2.28613,1.83997c-0.99471,0.40115 -1.8908,0.62754 -3.00042,0.63281c-1.06801,-0.3824 -2.28423,-0.61575 -3.27559,-1.27847c-1.46864,-0.98177 -2.55925,-3.11837 -3.57872,-4.55551c-3.04119,-4.28713 -5.30902,-8.98199 -8.33746,-13.24935c-1.29914,-2.07053 -3.2614,-4.63595 -3.99382,-6.951c-1.40506,-4.44117 2.37999,-7.37733 4.77002,-9.82097c0,0 0.15929,-0.16256 0.40218,-0.20403z" fill="#001c72"/><path d="M323.39484,215.72889c2.13678,2.83443 4.44373,5.67594 6.29271,8.71664c2.33484,4.62369 9.69944,11.02111 3.90771,14.69875c-0.77023,0.48908 -1.84077,0.89409 -2.79245,0.89772c-0.8437,-0.32547 -1.81403,-0.48562 -2.6035,-0.99675c-1.20687,-0.78136 -2.23384,-2.87616 -3.06193,-4.04252c-3.03106,-4.2693 -5.32303,-8.9954 -8.34136,-13.24852c-1.20688,-1.92348 -3.06755,-4.34056 -3.75078,-6.48095c-1.08459,-3.39769 2.22923,-5.98796 4.17568,-7.87751c2.431,2.57503 4.054,5.52109 6.17391,8.33314z" data-paper-data="{&quot;noHover&quot;:false,&quot;origItem&quot;:[&quot;Path&quot;,{&quot;applyMatrix&quot;:true,&quot;segments&quot;:[[[213.62881,111.1125],[0.77284,4.92724],[-4.20938,0.58228]],[[201.15101,116.74333],[1.69873,-4.77501],[-1.07012,3.00804]],[[200.08121,127.21218],[0.20253,-3.1853],[0,7.32759]],[[198.71849,149.08974],[-0.00159,-7.35649],[0.00044,2.00977]],[[198.95742,156.2081],[-0.83531,-1.87665],[0.54641,1.2276]],[[201.37845,159.46548],[-0.78456,-1.05898],[1.22188,0.7697]],[[205.76063,160.70661],[-1.43068,-0.06592],[10.75793,0.49568]],[[214.06799,140.70937],[-1.21192,7.19641],[0.39557,-4.98754]],[[213.94551,125.6739],[0.16038,4.98522],[-0.15911,-4.94586]]],&quot;closed&quot;:true}]}" fill="#ffffff"/></g><g><path d="M265.68409,332.3731c0,0 4.84585,-18.50173 8.20132,-27.63792c3.82087,-10.40339 12.58516,-31.69786 12.58516,-31.69786c0,0 1.30835,-10.2838 4.43549,-11.35316c3.57205,-1.2215 16.76455,4.64155 16.76455,4.64155l-29.1203,73.0506c0,0 3.00672,0.01169 3.6281,2.32786c0.59081,2.20215 -1.19666,6.67208 -1.39959,8.23143c-0.3549,2.72691 -3.586,1.31316 -5.50403,1.86476c-4.21632,1.21253 -13.50123,-7.6049 -14.68972,-8.25179c-1.71016,-0.93086 5.09904,-11.17544 5.09904,-11.17544z" fill="#ffffff" stroke-width="0"/><path d="M292.18518,276.38443c-0.32882,0.80158 -0.95907,0.53385 -0.95907,0.53385l-0.32942,-0.13993c-1.5358,-0.65241 -3.05577,-1.40316 -4.61669,-2.02625c-2.45072,6.08509 -3.95621,12.43934 -6.44072,18.52678c-0.46639,1.08534 -1.14433,1.56014 -1.64673,2.59107c-0.8143,1.67092 -1.68917,3.72393 -2.25542,5.4981c-1.34607,4.21759 -2.55236,8.59041 -4.24042,12.68976c-0.44926,2.27838 -1.44992,4.5227 -2.18029,6.73683c-0.5807,1.76037 -0.67516,3.60852 -1.2345,5.3642c-0.46723,1.46654 -0.96031,2.89526 -1.35886,4.36169c0.20708,-0.06495 0.47717,-0.05363 0.66366,0.31031c0.34201,0.6674 -0.28118,1.18584 -0.28118,1.18584l-0.29897,0.08885c-1.66282,3.99568 -4.82881,7.05653 -6.45938,11.03143c0,0 -0.00649,0.01582 -0.01939,0.04228l0.34082,0.16506c0.16814,0.1464 0.33627,0.29281 0.50441,0.4392c3.32124,1.41088 5.96558,4.36276 9.02323,6.29299c1.65266,1.04328 3.73764,0.79995 5.46508,1.60174c0.64695,-0.11653 1.27651,0.11603 1.92247,-0.04752c0.60058,-0.15206 1.60522,-1.35099 2.01397,-1.86975c1.79787,-2.28189 2.83849,-5.70046 1.34287,-8.12627c-0.56266,-0.91261 -1.64549,-1.7798 -2.38054,-2.61256c-0.01458,-0.00516 -0.02934,-0.01092 -0.04427,-0.01725c-0.63026,-0.26773 -0.30143,-1.06931 -0.30143,-1.06931c0.83069,-2.02501 1.74732,-4.25951 2.57801,-6.28453c2.92544,-7.13148 4.75836,-14.42857 7.69104,-21.57771c3.1797,-7.7513 7.56873,-15.4474 9.51646,-23.66139c2.735,-6.71129 5.78946,-13.17902 8.52244,-19.84134c0,0 0.32882,-0.80158 0.95908,-0.53384c0.63026,0.26773 0.30143,1.06931 0.30143,1.06931c-2.71044,6.60737 -5.71932,13.04003 -8.46378,19.68078c-1.96047,8.26774 -6.37497,16.02079 -9.57513,23.82196c-2.93222,7.14801 -4.76414,14.44267 -7.69105,21.57771c-0.77298,1.88433 -1.54595,3.76865 -2.31894,5.65298c0.76648,0.84537 1.82902,1.72045 2.4,2.66397c1.83551,3.03312 0.73821,7.40159 -1.5788,10.31172c-0.67077,0.84248 -1.90438,2.17661 -2.85567,2.45733c-0.79937,0.23589 -1.58618,-0.0362 -2.3886,0.08904c-1.91857,-0.7595 -4.12313,-0.64709 -5.92135,-1.75932c-3.07847,-1.90407 -5.69684,-4.87994 -9.02323,-6.293c-0.21381,-0.17983 -0.4276,-0.35965 -0.64141,-0.5395l-0.18638,-0.05107c0,0 -0.63026,-0.26774 -0.30143,-1.06931c0.00698,-0.01703 0.01411,-0.03357 0.02136,-0.04966c-0.45165,-0.31586 -0.17175,-0.99819 -0.17175,-0.99819c1.39983,-3.41242 3.9579,-6.13656 5.67574,-9.36169c-0.15075,-0.33486 0.02455,-0.76224 0.02455,-0.76224l0.11095,-0.21657c0.4396,-2.22942 1.16648,-4.31713 1.86484,-6.47704c0.56821,-1.75736 0.66318,-3.62059 1.24322,-5.39073c0.71919,-2.19477 1.71398,-4.41244 2.15933,-6.671c1.6859,-4.12511 2.88718,-8.49456 4.25266,-12.72906c0.59985,-1.86022 1.50797,-4.07511 2.38502,-5.81405c0.50264,-0.99658 1.19613,-1.4373 1.5758,-2.43571c2.49871,-6.05598 4.01028,-12.38718 6.4196,-18.46606c-0.88217,-0.29849 -1.78173,-0.53858 -2.70846,-0.68149c0,0 -0.6825,-0.10532 -0.48366,-0.94385c0.19884,-0.83852 0.88133,-0.73319 0.88133,-0.73319c3.14161,0.48524 5.97379,2.02743 8.86675,3.25636l0.32942,0.13993c0,0 0.63026,0.26773 0.30143,1.06932z" fill="#000000" stroke-width="0.5"/></g><path d="M234.07823,291.90457c0,0 20.33887,-18.83931 28.5744,-27.31635c6.66396,-6.85938 17.12982,-19.72821 17.12982,-19.72821l17.71325,19.03009l-50.76546,39.91094c0,0 -8.11384,5.22044 -10.32336,10.59601c-1.05843,2.57508 1.77871,4.57691 2.48428,6.89945c0.30873,1.01625 -0.51357,2.46143 -1.03381,3.42517c-2.09545,3.88189 -4.68908,5.83219 -5.2722,5.28389c-0.92745,-0.87206 -18.69014,-10.81271 -17.81284,-18.00268c0.50364,-4.12753 -0.35343,-6.17758 10.27834,-13.05686c5.32908,-3.44818 9.02758,-7.04147 9.02758,-7.04147z" fill="#ffffff" stroke-width="0"/><path d="M235.03935,315.27499c0.45711,-1.13364 0.47948,-1.86985 1.36364,-2.83432c1.98965,-3.16122 4.78567,-5.19973 7.54206,-7.49709c2.83453,-2.36249 5.0406,-5.23924 8.04782,-7.46817c1.97466,-1.32917 3.80584,-2.75371 5.91199,-3.91763c1.07315,-0.59307 2.51701,-0.9148 3.46477,-1.7589c2.78774,-2.48279 5.83358,-4.73672 8.88129,-6.9953c5.32483,-3.63336 10.5168,-7.65609 15.0484,-12.3206c0,0 0.60386,-0.62156 1.12095,-0.13536c0.51708,0.48619 -0.08677,1.10777 -0.08677,1.10777c-4.61799,4.75343 -9.91052,8.86931 -15.33856,12.56964c-2.65036,1.96554 -5.27558,3.99119 -7.84546,5.95268c-0.6383,0.48719 -1.13979,1.18545 -1.83135,1.57403c-3.008,1.6901 -5.74142,3.18703 -8.58125,5.14511c-2.96087,2.19544 -5.12879,5.01462 -7.91298,7.36374c-2.66978,2.25261 -5.27422,4.13982 -7.24694,7.1933c-0.74624,0.70608 -0.70636,1.41044 -1.07253,2.33489l0.00263,0.05846l0.31342,0.54925c0.86022,1.5075 2.93371,2.94524 3.20409,4.70902c0.45037,2.93781 -1.91664,5.64979 -4.01246,7.80707c-1.00589,1.02172 -1.27499,2.13883 -2.95332,2.44731c-0.7937,0.14588 -1.36477,-0.75341 -1.83225,-1.10108c-0.91622,-0.68141 -1.93977,-1.01201 -2.85201,-1.73024c-1.30798,-1.02982 -2.8902,-1.7216 -4.20773,-2.73039c-2.65591,-2.03352 -4.95645,-4.79461 -6.75868,-7.60013c-1.57076,-1.47696 -3.19758,-4.05929 -3.57814,-6.33378c-0.68486,-4.09326 4.32125,-8.42612 7.57819,-10.64848c0,0 0.33207,-0.22649 0.65572,-0.17137c1.59744,-1.58934 3.67762,-2.46926 5.37546,-3.93287c2.03485,-1.75414 3.87082,-3.72313 5.75437,-5.66193c0,0 0.00798,-0.00821 0.02288,-0.022c0.01425,-0.01446 0.0227,-0.02217 0.0227,-0.02217l0.81827,-0.74669c8.79976,-7.36983 17.44848,-15.13074 25.45395,-23.37098c6.94496,-7.14805 13.15905,-14.87576 20.1008,-22.02108c0,0 0.60386,-0.62156 1.12094,-0.13536c0.51708,0.48619 -0.08679,1.10777 -0.08679,1.10777c-6.94155,7.14512 -13.15629,14.87236 -20.10079,22.02108c-8.0446,8.28051 -16.73395,16.08605 -25.57888,23.48952l-0.76092,0.69498c-1.91335,1.97016 -3.78033,3.98247 -5.85641,5.75702c-1.6705,1.4279 -3.80194,2.30045 -5.32534,3.88952l-0.63125,0.64978c0,0 -0.51422,0.52929 -0.99994,0.22896c-2.13231,1.54387 -3.75093,3.17041 -5.11898,5.49647c-0.495,0.84164 -1.05412,1.93887 -0.87295,2.85159c0.41158,2.0735 1.85942,4.37399 3.31085,5.73874c2.53261,3.86665 5.76761,6.74987 9.58496,9.32814c1.32209,0.89295 2.75905,1.6186 4.02968,2.54098c0.34069,0.24731 0.44681,0.97135 0.91578,0.86118c0.61776,-0.14511 1.32119,-1.41573 1.7357,-1.8469c1.6618,-1.71054 3.82431,-3.9061 3.47557,-6.28841c-0.14051,-0.95981 -1.17248,-1.42365 -1.71286,-2.0604c-0.54416,-0.6412 -0.92249,-1.48836 -1.34267,-2.22469l-0.31299,-0.5485c-0.08015,-0.09436 -0.11858,-0.20956 -0.1367,-0.30672c-0.02498,-0.10764 -0.03687,-0.25316 0.01173,-0.41117z" fill="#161616" stroke-width="0.5"/><g><path d="M271.96774,254.88244l13.97217,-54.75309l6.36491,-2.01477c0,0 1.50636,-6.06216 2.70594,-5.71397c0.66766,0.19379 2.52405,-0.84054 7.37228,0.53757c6.79701,1.93205 17.06879,6.41268 17.06879,6.41268c0,0 0.88255,1.01915 0.83842,1.89304c-0.06071,1.20211 -1.16908,4.65431 -1.16908,4.65431l2.2813,3.38148c0,0 -0.06458,5.88541 -1.04189,9.42774c-2.4783,8.98275 -14.14646,45.62341 -14.14646,45.62341c0,0 -12.82444,0.105 -18.71582,-1.52041c-5.4967,-1.51651 -15.53056,-7.928 -15.53056,-7.928z" fill="#ffffff" stroke-width="0"/><path d="M291.88307,200.99838c-0.53769,-0.14835 -0.32004,-0.93721 -0.32004,-0.93721l0.03352,-0.12149c0.52661,-1.90872 0.93104,-3.78381 1.38586,-5.7078c0.14904,-0.63051 0.18385,-1.32101 0.47042,-1.88674c0.7362,-1.45336 1.73942,-0.99389 2.60435,-0.90818c1.68378,0.16687 3.30001,0.51011 4.98039,0.71872c0,0 0.55666,0.06911 0.3936,0.86881c-0.16305,0.79971 -0.71973,0.7306 -0.71973,0.7306c-1.86998,-0.23219 -4.16879,-1.37094 -6.12738,-0.87873c-0.44331,0.11141 -0.4877,1.48987 -0.49814,1.53957c-0.41375,1.97089 -0.87794,3.87737 -1.41402,5.82044l-0.03352,0.12149c0,0 -0.21764,0.78887 -0.75533,0.64052z" fill="#001c72" stroke-width="0.5"/><path d="M318.33656,207.05704c-0.37484,-0.30931 -0.05679,-1.04513 -0.05679,-1.04513l0.15753,-0.35047c0.39395,-1.18756 2.03672,-4.93373 1.06382,-5.05627c0,0 -0.44078,-0.12161 -0.22314,-0.91048c0.21764,-0.78887 0.65843,-0.66725 0.65843,-0.66725c1.89109,0.67835 0.14466,4.58611 -0.66057,7.01905l-0.24639,0.58401c0,0 -0.31805,0.73582 -0.69289,0.42651z" fill="#0010c3" stroke-width="0.5"/><path d="M291.12091,263.58848c-0.24083,-0.59643 0.19525,-1.00611 0.2863,-1.08316c0.41862,-1.51732 0.83724,-3.03463 1.25586,-4.55195l0.23376,-0.84729c0.63609,-2.30555 7.87913,-29.19033 8.71336,-32.21407c0,0 0.21388,-0.77522 0.80685,-0.61162c0.59296,0.16359 0.37908,0.93881 0.37908,0.93881c-0.82009,2.97247 -8.09336,29.96689 -8.71335,32.21408c-0.44804,1.62396 -1.12986,4.09523 -1.5779,5.71919l-0.54537,0.66737c0,0 -0.57053,0.43249 -0.83859,-0.23136z" fill="#0017ff" stroke-width="0.5"/><path d="M306.51762,264.96019l-0.73865,0.05c-0.94193,-0.29877 -2.3722,-0.29891 -3.43183,-0.32491c-5.63868,0.16009 -10.88704,-0.20708 -16.23918,-1.68371c-3.58847,-0.99004 -7.04593,-2.38939 -10.27886,-4.35241c-1.57333,-0.95532 -2.86939,-2.49108 -4.45643,-3.36035c0,0 -0.54213,-0.30292 -0.22926,-0.98336c0.01078,-0.02345 0.02184,-0.04573 0.03312,-0.0669c-0.00763,-0.08712 0.01524,-0.14951 0.01524,-0.14951c0.59362,-1.61926 1.28551,-3.50664 1.87913,-5.12591c2.0384,-5.56037 3.14667,-11.45887 4.14289,-17.29699c0.61175,-3.58506 1.47919,-7.07647 2.71078,-10.49613c0.49333,-1.36982 0.88234,-2.78231 1.65255,-4.05025c0,0 0.22854,-0.37478 0.78753,-0.13299c0.559,0.24179 0.33047,0.61657 0.33047,0.61657c-0.75197,1.22803 -1.11995,2.60881 -1.5986,3.93783c-1.21954,3.3862 -2.0779,6.84318 -2.68365,10.39313c-1.00238,5.87432 -2.12013,11.80838 -4.17117,17.40323c-0.59362,1.61926 -1.18722,3.23853 -1.78084,4.85779l-0.00476,0.013c1.39591,0.91545 2.5972,2.23186 4.03571,3.10161c3.15673,1.90862 6.5161,3.27245 10.01712,4.23836c5.26673,1.45306 10.41977,1.80156 15.96923,1.64733c1.1833,0.03846 2.57915,0.08498 3.68161,0.35629c0.36019,-1.56676 0.99315,-3.32708 1.27974,-4.84162c0.83737,-4.42524 9.57124,-30.20395 9.55533,-31.64383c0,0 -0.00404,-0.43895 0.59986,-0.3599c0.6039,0.07905 0.60794,0.51799 0.60794,0.51799c0.01111,1.4835 -8.46489,25.94568 -9.566,31.76464c-0.32066,1.69457 -1.12802,3.97741 -1.44867,5.67199c0,0 -0.07645,0.40401 -0.63749,0.29309c-0.0208,0.00446 -0.03287,0.0059 -0.03287,0.0059z" fill="#0017ff" stroke-width="0.5"/><path d="M292.84716,197.67031c0.07375,0.76702 -0.55233,0.96762 -0.55233,0.96762l-0.38253,0.12256c-1.96555,0.62095 -3.9525,1.262 -5.92399,1.89773c-0.91009,3.38524 -1.03076,6.60667 -1.71704,10.00536c-0.42376,2.09863 -1.12487,4.20803 -1.72625,6.28521c0.71265,0.19662 1.577,0.43509 2.15618,0.59488c5.8779,1.62169 11.44177,5.1679 16.71531,8.08851c2.09898,-7.10391 5.09949,-18.69095 7.11559,-25.99841c0,0 0.21403,-0.77575 0.80699,-0.61216c0.59296,0.16359 0.37893,0.93935 0.37893,0.93935c-2.09194,7.58239 -4.99034,19.64575 -7.14127,26.93855c-0.00651,0.03259 -0.21897,-0.2609 -0.22864,-0.22585c-0.07433,0.26942 0.01253,0.07629 -0.11252,0.16531c-0.12143,0.09793 -0.28166,0.15442 -0.4876,0.0976c-0.00453,-0.00125 -0.4898,0.27114 -0.49424,0.26983c-5.82864,-3.11725 -10.94211,-6.44523 -16.98063,-8.11123c-0.7561,-0.2086 -1.51221,-0.41721 -2.26831,-0.62581l-0.48606,-0.13411c-0.20593,-0.05682 -0.31454,-0.18747 -0.36857,-0.33382c-0.0617,-0.14054 -0.0847,-0.33612 -0.01037,-0.60554c0.63016,-2.28406 1.44355,-4.61414 1.91425,-6.93044c0.70945,-3.49117 0.82985,-6.80751 1.79211,-10.2953l0.29932,-0.48522c0.07231,-0.19284 0.19793,-0.31748 0.30503,-0.39378c0.08692,-0.07006 0.20158,-0.13723 0.32882,-0.14666c2.00084,-0.63736 3.99096,-1.27126 5.98544,-1.91807l0.38254,-0.12257c0,0 0.62608,-0.2006 0.69982,0.56642z" fill="#001c72" stroke-width="0.5"/><path d="M318.08561,227.35561c-0.59296,-0.16359 -0.39249,-0.89022 -0.39249,-0.89022l0.21911,-0.79417c1.41716,-5.13657 2.80173,-10.47301 3.53729,-15.71086c-0.87649,-1.45567 -2.1812,-2.49228 -3.24011,-3.83412c0,0 -0.40532,-0.51413 0.07166,-1.05304c0.47699,-0.53891 0.88231,-0.02478 0.88231,-0.02478c1.05272,1.33674 2.25497,2.37131 3.19355,3.75708c0.16538,0.04382 0.26341,0.14861 0.32089,0.26705c0.07463,0.12334 0.11762,0.29837 0.06601,0.54323c-0.74877,5.4606 -2.16609,11.01981 -3.64566,16.38263l-0.21911,0.79417c0,0 -0.20047,0.72663 -0.79343,0.56303z" fill="#001c72" stroke-width="0.5"/><path d="M318.82215,226.97521c0.16211,0.69534 -0.44246,0.96228 -0.44246,0.96228l-0.95821,0.29427c-1.07024,-0.3062 -2.20092,-0.39357 -3.29521,-0.69548c-4.81016,-1.3271 -8.57226,2.24037 -12.86076,-0.44429c0,0 -0.52664,-0.33494 -0.18833,-1.0002c0.3383,-0.66526 0.86494,-0.33032 0.86494,-0.33032c4.15582,2.6952 7.88324,-0.97568 12.58511,0.32154c1.10137,0.30386 2.20865,0.40451 3.29521,0.69548l0.23303,-0.2317c0,0 0.60458,-0.26694 0.76669,0.4284z" fill="#001c72" stroke-width="0.5"/><path d="M305.01914,211.51836c-0.31287,0.68044 -0.85501,0.37751 -0.85501,0.37751l-0.59323,-0.33148c-0.64078,-0.35805 -1.22075,-0.68112 -1.78494,-1.18092c-2.73091,-1.52916 -5.89983,-2.06796 -8.82294,-3.08634c-2.50043,-0.87111 -4.60577,-2.31309 -7.2755,-2.66996c0,0 -0.61147,-0.08235 -0.47771,-0.82261c0.13376,-0.74025 0.74524,-0.65789 0.74524,-0.65789c2.74214,0.37192 4.90537,1.82522 7.47184,2.71682c3.02513,1.05095 6.2533,1.64237 9.08133,3.2202c0.54046,0.47878 1.07474,0.77692 1.68843,1.11982l0.59324,0.33148c0,0 0.54214,0.30292 0.22926,0.98336z" fill="#ffffff" stroke-width="0.5"/><path d="M320.72555,214.69149c-0.20047,0.72663 -0.79343,0.56303 -0.79343,0.56303l-0.12726,-0.03511c-4.02253,-1.1098 -8.30988,-1.29487 -12.34704,-2.39965c0,0 -0.59296,-0.16359 -0.39249,-0.89022c0.20047,-0.72663 0.79343,-0.56303 0.79343,-0.56303c4.03245,1.1227 8.32304,1.28945 12.34704,2.39965l0.12726,0.03511c0,0 0.59296,0.16359 0.39249,0.89022z" fill="#ffffff" stroke-width="0.5"/></g><path d="M329.47411,184.4907c-2.23851,8.11362 -6.5143,15.31638 -13.28608,16.23053c-1.84509,0.24908 -5.69393,-1.35025 -7.54779,-1.86172c-8.6578,-2.38864 -16.79846,-11.74041 -13.95003,-22.06473c0.69001,-2.50096 2.5318,-7.57031 3.8806,-9.54452c4.21919,-6.17559 13.82398,-7.58846 20.38452,-5.77844c5.30286,1.46303 15.05306,2.7799 16.56408,8.36828c0.95596,3.53558 -4.94151,10.64985 -6.04529,14.65058z" fill="#ffffff" stroke-width="0"/><path d="M303.4192,195.98164l0.60973,0.34448c2.32386,0.86417 3.70939,1.82318 6.04056,2.70458c2.06412,0.78042 4.01912,1.08179 6.29367,0.86585l0.01255,-0.00931c1.78903,-1.50549 4.16826,-2.22727 5.97406,-3.71135l0.34954,-0.64696c1.60924,-2.9785 3.21518,-5.94388 4.8172,-8.91441c1.45437,-2.22772 3.22351,-4.5801 4.1268,-7.11528c1.38558,-3.88876 1.67046,-5.90919 3.22369,-9.14422c0.19492,0.07438 0.39514,0.14017 0.60036,0.19679c0.2932,0.08089 0.58724,0.1405 0.88049,0.17976c-1.65205,3.35233 -1.85952,5.29508 -3.27838,9.22396c-0.96287,2.66622 -2.7511,5.10847 -4.28406,7.45656c-1.59592,2.94864 -3.1818,5.89074 -4.78057,8.84988l-0.37896,0.70141c-0.04259,0.09391 -0.09721,0.17257 -0.1452,0.23136c-0.04873,0.06048 -0.11586,0.13141 -0.19992,0.19132c-1.81662,1.50214 -4.18451,2.11866 -5.9815,3.63294l-0.16847,0.21422c-0.09739,0.09732 -0.21012,0.15741 -0.30352,0.19394c-0.0942,0.04063 -0.21739,0.07693 -0.34901,0.07085c-2.54549,0.25937 -4.6896,-0.06569 -7.00147,-0.9398c-2.36291,-0.8934 -3.7757,-1.86571 -6.1318,-2.7429l-0.76951,-0.4297c0,0 -0.02456,-0.0138 -0.06132,-0.04129c-0.03792,-0.02574 -0.05914,-0.04458 -0.05914,-0.04458c-4.13104,-3.68074 -7.09029,-8.42343 -8.96914,-14.77361c0.49557,-0.62784 0.7508,-0.44999 0.99436,-1.25981c2.26492,6.08328 4.70711,10.94665 8.93897,14.71535z" fill="#ffeeda" stroke-width="0.5"/><path d="M292.13647,184.2965l-0.21171,-0.59601c-0.19033,-0.46683 -1.01613,-4.82342 -1.41563,-8.89675c-0.68553,-6.98957 0.26787,-11.41107 3.02968,-17.86834c0.46653,-1.09078 1.81605,-4.66282 4.01527,-6.62547c2.30077,-2.05328 5.46692,-2.47434 6.52631,-2.44761c5.52552,0.13938 9.71462,0.00158 15.12799,1.31213c6.02567,1.45877 11.98505,3.01886 17.51899,5.73436c0.01561,0.0029 0.02423,0.00499 0.02423,0.00499l0.24023,0.05816c2.88807,0.70375 5.12432,5.22889 8.12657,5.32335c0.86327,0.02716 2.14299,-0.1369 2.4317,1.0959c0.11795,0.50362 -0.31454,0.9759 -0.57051,1.4214c-0.3723,0.64798 -0.84334,1.0532 -1.37711,1.34521c1.68435,0.17971 3.35886,0.46423 5.05182,0.53888c0.62396,0.02751 2.77112,-0.37866 3.13412,0.69956c0.1769,0.52543 -1.2843,1.57307 -1.68447,1.86516c-1.32601,0.96792 -3.04955,1.43804 -4.73353,1.91273c2.92126,0.58429 5.85577,0.21662 8.643,-0.81119c0.14381,-0.07062 0.34235,-0.12031 0.56944,-0.04519c0.14503,0.0345 0.29521,0.11406 0.41496,0.27685c0.13672,0.15162 0.17593,0.30422 0.16886,0.43884c0.01135,0.21776 -0.10186,0.37311 -0.22051,0.475l-0.53364,0.5692c-1.18726,0.89598 -1.38124,2.22611 -2.62826,3.11447c-3.09303,2.20342 -8.61834,0.52555 -12.18247,-0.03579c-3.8206,-0.92301 -6.41449,-2.6911 -10.33926,-3.00867c-1.88111,-0.15221 -3.90601,0.46472 -5.78336,0.53112c-1.5192,0.05373 -3.00007,-0.29922 -4.52407,-0.26441c-2.20109,-0.5188 -4.50957,-0.42829 -6.66926,-1.15207c-1.302,-0.43634 -2.47939,-1.24743 -3.77313,-1.71697c-0.96196,-0.34912 -1.99538,-0.30635 -2.99067,-0.38598c-2.04614,-0.16371 -4.30543,-0.55352 -6.34445,-0.35378l-0.07248,0.15093c-0.54404,2.16028 -1.90696,0.60879 -2.44943,2.76283c-0.75297,2.96137 -0.53889,6.0458 -1.6352,8.99146c-1.27958,3.43812 -2.13794,2.63229 -3.0396,6.23251c0,0 -0.17237,0.68448 -0.93229,0.50051c-0.56494,-0.13677 -0.61462,-0.55016 -0.60292,-0.75329c-0.2238,-0.15457 -0.30924,-0.39407 -0.30924,-0.39407zM294.26052,160.66414c-0.18902,0.4522 -1.58105,3.43566 -2.04738,5.86767c-0.68838,3.59006 -0.43057,6.21102 -0.27512,7.88702c0.38039,4.10116 1.10544,7.78213 1.19862,8.11741c1.11652,-2.76328 1.35731,-1.50977 2.40289,-4.31957c1.08133,-2.90591 0.86505,-5.9358 1.59635,-8.86524c0.54172,-2.15108 1.90536,-0.60236 2.44944,-2.76283l0.26867,-0.60867c0.03292,-0.19456 0.15317,-0.31941 0.28022,-0.39861c0.11625,-0.09169 0.28001,-0.16632 0.49759,-0.14766c2.93273,-0.33992 7.57668,-0.20225 10.38947,0.79108c1.29874,0.45865 2.47313,1.28134 3.77313,1.71697c2.03061,0.68045 4.21563,0.54952 6.28112,1.06482c1.43876,-0.04326 2.83512,0.31142 4.26558,0.25647c1.93793,-0.07445 4.00567,-0.68454 5.95357,-0.53027c4.01931,0.31832 6.67457,2.09122 10.58267,3.03942c3.044,0.47614 8.24843,2.12405 10.93218,0.27983c0.63171,-0.43411 0.98391,-1.03641 1.3598,-1.63609c-3.07907,0.69939 -6.26717,0.61747 -9.40021,-0.50818c-0.16149,-0.01375 -0.34365,-0.07345 -0.49084,-0.23879c-0.10825,-0.0984 -0.19823,-0.23636 -0.20751,-0.42555c-0.03164,-0.18798 0.02752,-0.33401 0.11327,-0.4429c0.11214,-0.18306 0.28411,-0.26113 0.4436,-0.29069c1.56787,-0.57259 3.19934,-0.98376 4.7731,-1.54762c0.18002,-0.0645 0.91647,-0.49108 1.60146,-0.83643c-0.13948,-0.00338 -0.26806,-0.00904 -0.37195,-0.01363c-2.5622,-0.11306 -5.08576,-0.72661 -7.66106,-0.68712l-0.7658,-0.06372c-0.16633,0.0064 -0.36907,-0.02901 -0.54201,-0.18544c-0.11788,-0.08747 -0.2201,-0.21662 -0.25237,-0.40671c-0.05403,-0.18671 -0.01593,-0.33759 0.05517,-0.45433c0.09212,-0.19788 0.26588,-0.29148 0.42393,-0.33513c1.73727,-0.72083 3.02518,-0.76047 4.14153,-2.33233c0.15689,-0.22089 -0.58283,0.06457 -0.87708,0.06529c-0.86969,0.00214 -1.74484,-0.04202 -2.61051,-0.15615c-2.1717,-0.28632 -3.78627,-4.70879 -5.89498,-5.21556l-0.24022,-0.05816c0,0 -0.02107,-0.0051 -0.0554,-0.01676c-0.14362,-0.02771 -0.24388,-0.07737 -0.24388,-0.07737c-5.42715,-2.70171 -11.31917,-4.21086 -17.24395,-5.6452c-5.29144,-1.28102 -9.36067,-1.11678 -14.76362,-1.26405c-0.71094,-0.01938 -3.4847,0.2935 -5.6282,2.48956c-2.29151,2.34771 -3.55938,7.33564 -4.2113,8.89522z" fill="#5f442f" stroke-width="0.5"/><path d="M298.44406,151.74665c2.1435,-2.19606 4.92205,-2.51385 5.63299,-2.49448c5.40294,0.14727 9.48897,-0.02483 14.78042,1.2562c5.92478,1.43434 11.84706,2.95235 17.2742,5.65406c0,0 0.10056,0.04994 0.24418,0.07765c0.03433,0.01167 0.05547,0.01683 0.05547,0.01683l0.2405,0.05842c2.10871,0.50678 3.73073,4.93967 5.90244,5.22598c0.86567,0.11413 1.74155,0.15995 2.61123,0.15781c0.29425,-0.00072 1.03411,-0.28583 0.87723,-0.06494c-1.11636,1.57185 -2.40388,1.61251 -4.14115,2.33334c-0.15806,0.04365 -0.33171,0.13754 -0.42382,0.33542c-0.0711,0.11674 -0.10897,0.26832 -0.05494,0.45503c0.03226,0.19009 0.13475,0.32002 0.25262,0.40749c0.17295,0.15643 0.37586,0.19239 0.54219,0.186l0.76593,0.06416c2.5753,-0.03949 5.09958,0.57733 7.66178,0.69039c0.10389,0.00458 0.23249,0.01033 0.37197,0.01372c-0.68499,0.34535 -1.42133,0.77264 -1.60135,0.83714c-1.57376,0.56386 -3.20506,0.97632 -4.77292,1.54891c-0.15949,0.02956 -0.33141,0.10801 -0.44355,0.29106c-0.08575,0.1089 -0.14485,0.25562 -0.11322,0.4436c0.00928,0.18919 0.09932,0.32787 0.20757,0.42626c0.14719,0.16534 0.32938,0.22547 0.49087,0.23922c3.13303,1.12564 6.32118,1.20866 9.40025,0.50927c-0.3759,0.59967 -0.7281,1.20388 -1.35982,1.63798c-2.68376,1.84422 -7.9593,0.19372 -11.00331,-0.28242c-3.9081,-0.9482 -6.56223,-2.7108 -10.58155,-3.02911c-1.94789,-0.15426 -4.01156,0.46546 -5.94948,0.53991c-1.43047,0.05495 -2.77623,-0.289 -4.21498,-0.24575c-2.06549,-0.51531 -4.23772,-0.4004 -6.26833,-1.08085c-1.3,-0.43563 -2.47459,-1.25783 -3.77334,-1.71647c-2.8128,-0.99333 -7.45508,-1.13593 -10.38781,-0.79601c-0.21758,-0.01865 -0.38125,0.05557 -0.4975,0.14726c-0.12704,0.07919 -0.24713,0.20336 -0.28005,0.39793l-0.26847,0.6077c-0.54409,2.16046 -1.90715,0.60732 -2.44887,2.75841c-0.73129,2.92944 -0.51615,5.94781 -1.59747,8.85371c-1.04558,2.8098 -1.35387,1.57849 -2.47039,4.34177c-0.09319,-0.33528 -0.82048,-4.02531 -1.20087,-8.12648c-0.15545,-1.676 -0.4131,-4.30611 0.27529,-7.89618c0.46633,-2.432 1.86015,-5.42251 2.04918,-5.87471c0.65191,-1.55957 1.92542,-6.55751 4.21694,-8.90522z" data-paper-data="{&quot;noHover&quot;:false,&quot;origItem&quot;:[&quot;Path&quot;,{&quot;applyMatrix&quot;:true,&quot;segments&quot;:[[[429.26955,109.33427],[0.60036,-4.71184],[-0.17408,1.36621]],[[428.10877,126.75891],[-0.55436,-6.93639],[0.81834,10.23935]],[[433.25791,148.32913],[-1.67365,-4.42382],[4.09543,10.82509]],[[442.57136,169.42202],[-0.50299,-0.83857],[0.95931,-8.31969]],[[445.85213,155.92522],[-0.73238,8.39271],[0.75741,-8.67973]],[[443.5509,130.71774],[0.20837,8.4819],[-0.14018,-6.23178]],[[448.12122,121.40311],[0.14079,6.25894],[0,0]],[[448.39412,119.55352],[0,0],[-0.05621,-0.55165]],[[448.85528,118.26434],[-0.28496,0.30948],[0.24638,-0.33524]],[[450.09283,117.49248],[-0.60334,0.11207],[7.69025,-3.11259]],[[478.82737,111.87076],[-8.36175,-0.5886],[3.86084,0.27177]],[[490.33133,113.70188],[-3.84706,-0.20849],[6.0091,0.32565]],[[508.14163,111.89209],[-5.98019,0.14777],[3.86502,-1.19243]],[[519.88806,109.3989],[-3.83382,1.21793],[5.19388,-1.64999]],[[535.61896,103.51305],[-5.39181,1.03789],[11.12555,-2.14158]],[[566.55714,103.83734],[-11.29501,0.35222],[8.60155,-0.98517]],[[596.37971,96.42514],[-5.89155,7.00139],[1.38678,-1.64803]],[[598.84045,90.977],[-0.57005,1.90535],[-7.818,4.19568]],[[572.99708,96.62572],[9.32813,0.7077],[-0.44772,0.08345]],[[571.48901,96.3457],[0.5223,0.33788],[-0.36677,-0.18566]],[[570.60885,95.34804],[0.16654,0.50554],[-0.22619,-0.48557]],[[570.58469,94.06364],[-0.15091,0.35906],[0.16697,-0.57968]],[[571.56909,92.94471],[-0.40994,0.19926],[3.81915,-2.72281]],[[583.34198,85.18529],[-3.84163,2.70354],[0.43945,-0.30926]],[[587.05496,81.72269],[-1.59742,1.44742],[-0.38037,0.09507]],[[586.03722,81.96375],[0.28485,-0.06522],[-7.02506,1.60862]],[[564.77118,85.82796],[6.94655,-2.03161],[0,0]],[[562.64912,86.22769],[0,0],[-0.44578,0.14164]],[[561.0423,86.13045],[0.5854,0.29447],[-0.38467,-0.14886]],[[560.0547,85.21737],[0.22947,0.49079],[-0.2859,-0.46539]],[[559.86462,83.94543],[-0.10535,0.36936],[0.10164,-0.60487]],[[560.76252,82.72079],[-0.39553,0.23636],[4.16725,-3.25097]],[[570.23817,73.30773],[-1.8493,5.09219],[0.25989,-0.71561]],[[567.91111,74.14008],[0.79652,-0.22186],[-2.35425,0.65574]],[[560.72299,75.66807],[2.43023,-0.33781],[-6.09676,0.84745]],[[540.85663,65.94562],[6.09085,-0.20318],[0,0]],[540.16242,65.96761],[[539.99982,65.9636],[0.10171,0.00594],[-0.40975,0.03228]],[[539.28136,65.93628],[0,0],[-16.72036,-3.26248]],[[488.35146,63.53169],[17.12117,-0.54249],[-15.291,0.48451]],[[447.41462,71.14122],[14.74572,-3.63897],[-1.94031,0.47883]],[[434.02936,82.09129],[4.16514,-7.55072],[-4.45277,8.07214]]],&quot;closed&quot;:true}]}" fill="#ffffff" stroke-width="0.5"/><g stroke-width="0.5"><path d="M319.10298,178.15335c-0.28593,-0.17082 -1.46613,0.18776 -2.17419,0.40752c-0.60295,1.42793 -1.31875,2.9181 -2.92053,3.32642c-1.20044,0.30601 -2.93579,-0.3997 -4.07517,-0.71405c-2.76758,-0.76356 -5.39208,-1.279 -7.76475,-2.95918c0.32975,-2.06998 1.55267,-7.45131 4.06843,-7.97706c0.8076,-0.16878 2.42789,0.73403 3.21742,0.95058c2.57965,0.70752 5.1042,1.56223 7.68803,2.27509c0,0 0.72683,0.20053 0.65766,0.90149c0.14554,0.16513 0.26017,0.35656 0.33466,0.57997c0.12861,0.3857 -0.0532,0.97761 -0.27877,1.51891c0.20263,-0.0482 0.4072,-0.08477 0.61528,-0.10092c1.11913,-0.08682 1.88498,0.3396 2.45343,1.01145c0.56124,-1.04206 1.25022,-1.84268 2.07583,-2.04536c0.75104,-0.18438 2.23244,0.68012 2.95887,0.87925c2.37347,0.65063 4.6929,1.44874 7.07012,2.10461c0,0 0.66872,0.1845 0.59031,0.88291c0.13134,0.16121 0.23353,0.34923 0.2979,0.56984c0.18391,0.63021 -0.43048,1.83924 -0.7011,2.44543c-0.74808,1.67569 -1.34761,3.97996 -3.26093,4.54306c-1.11752,0.32889 -2.70945,-0.33725 -3.75773,-0.62646c-2.54628,-0.7025 -4.96519,-1.16122 -7.12712,-2.78326c0.15731,-0.93432 0.49777,-2.54642 1.04014,-4.0849c-0.24148,-0.44687 -0.557,-0.836 -1.00781,-1.10532zM304.17977,176.99901c-0.00692,0.01172 -0.01387,0.0234 -0.02086,0.03505c0.01193,-0.00565 0.02399,-0.01105 0.03617,-0.01616zM320.95755,182.09414c-0.00664,0.01179 -0.01332,0.02355 -0.02004,0.03527c0.01116,-0.00586 0.02244,-0.01147 0.03381,-0.0168z" fill="#000000"/><path d="M313.98623,174.19731c0.32528,0.82807 -0.50278,1.15335 -0.50278,1.15335l-0.84422,0.31621c-2.0554,0.40017 -3.87557,1.23981 -5.61376,2.39132c0,0 -0.74283,0.48962 -1.23245,-0.25321c-0.48962,-0.74282 0.25321,-1.23244 0.25321,-1.23244c1.94329,-1.27502 3.96003,-2.19601 6.24918,-2.65148l0.53747,-0.22655c0,0 0.82807,-0.32528 1.15335,0.50278z" fill="#ffffff"/><path d="M315.30363,176.92584c0.43912,0.77375 -0.33462,1.21287 -0.33462,1.21287l-0.43702,0.24382c-0.98597,0.44688 -1.7779,0.65998 -2.48423,1.48227c0,0 -0.59517,0.66127 -1.25645,0.06609c-0.66127,-0.59518 -0.06609,-1.25645 -0.06609,-1.25645c0.92955,-1.00012 1.84117,-1.3546 3.07222,-1.91257l0.29331,-0.17067c0,0 0.77374,-0.43913 1.21286,0.33462z" fill="#ffffff"/><path d="M326.52736,177.59718c0.58234,0.6726 -0.09026,1.25494 -0.09026,1.25494l-0.48982,0.41552c-1.62123,1.09228 -2.97924,2.37336 -4.48502,3.61907c0,0 -0.68566,0.56691 -1.25256,-0.11875c-0.5669,-0.68566 0.11875,-1.25257 0.11875,-1.25257c1.5507,-1.28134 2.95452,-2.59777 4.62448,-3.72333l0.31948,-0.28516c0,0 0.6726,-0.58233 1.25493,0.09026z" fill="#ffffff"/><path d="M329.68781,182.28032c0.43913,0.77375 -0.33462,1.21286 -0.33462,1.21286l-0.67229,0.37853c-0.7451,0.50159 -1.50759,0.97878 -2.28853,1.42252c0,0 -0.77374,0.43913 -1.21286,-0.33462c-0.43913,-0.77375 0.33462,-1.21287 0.33462,-1.21287c0.74181,-0.42046 1.46555,-0.87375 2.17243,-1.35059l0.78838,-0.45044c0,0 0.77375,-0.43913 1.21287,0.33462z" fill="#ffffff"/></g><g stroke-width="0.5"><path d="M240.98745,195.13001c0.71469,-0.32696 1.04158,0.38757 1.04158,0.38757l0.32808,0.72633c1.19917,1.64222 3.36786,4.02844 1.6893,6.06277c-0.06292,0.07627 -1.42323,1.05393 -1.57457,1.16345c0,0 -0.02396,0.01734 -0.06595,0.04065c-0.04097,0.02505 -0.06786,0.03735 -0.06786,0.03735l-0.95439,0.43662c-0.8836,0.39166 -1.39129,0.78225 -2.43662,0.52387c-0.35535,-0.08784 -0.82121,-0.9254 -0.93408,-0.57721c-0.43438,1.33992 -0.01021,2.55509 -1.27654,3.68654c-0.79259,0.70818 -3.27947,1.68848 -4.27263,1.18717c-0.25405,-0.12823 -0.73235,-2.09987 -0.81847,-2.42364c-0.00954,-0.4808 0.04231,-0.89571 0.14492,-1.26921c-0.99286,1.05187 -2.18458,1.73681 -3.35246,0.85583c-0.85974,-0.64853 -0.99518,-2.10123 -0.60928,-3.21192c-1.24882,0.27788 -2.44641,-0.02095 -1.9894,-1.98135c0.27657,-1.18643 2.52945,-2.36927 3.54527,-2.83656c3.40912,-1.56828 7.43687,-3.57972 11.25312,-2.65112c0,0 0.03132,0.00785 0.07967,0.02672c0.06682,-0.06829 0.15502,-0.13112 0.27031,-0.18387zM243.10816,200.84455c0.2371,-1.19702 -1.48448,-2.93937 -2.10906,-3.8091l-0.13832,-0.29916c-0.27924,0.1571 -0.60573,0.07527 -0.60573,0.07527c-3.10495,-0.80611 -6.64015,0.91942 -9.42161,2.19191c-0.72158,0.33012 -5.07293,3.21663 -2.7302,2.02093c0.28938,-0.13102 0.57875,-0.26203 0.86813,-0.39303l0.66186,-0.47895c0.04477,-0.03376 0.09387,-0.06322 0.14696,-0.08751c0.39471,-0.18057 0.86105,-0.00705 1.04158,0.38757c0.1305,0.28524 0.07596,0.60793 -0.11337,0.83309l-0.68768,0.85357c-0.20857,0.51479 -0.68347,0.91928 -0.79885,1.46261c-0.11208,0.5278 0.16694,1.65851 0.87644,0.95621c1.17247,-1.16057 1.83252,-2.92985 3.00385,-4.01066c0.44101,-0.40693 0.88461,-1.09484 1.4805,-1.02426c1.5235,0.18045 1.31185,1.84232 0.98928,2.65327c-0.56542,1.42148 -2.55396,2.3111 -2.37395,3.96046c0.08767,0.31883 0.22793,0.62768 0.26303,0.95648c0.01507,0.14119 -0.25514,0.37591 -0.11719,0.40956c1.10573,0.26972 2.82408,-1.4482 3.04457,-2.43635c0.12208,-0.54715 0.04472,-1.84043 0.50367,-2.23663c1.46392,-1.26376 1.42397,-0.22756 2.48399,0.16679c0.37392,0.13911 1.1492,-0.34344 1.3538,-0.44098l0.89195,-0.40805c0.45524,-0.3038 1.37447,-0.7382 1.48636,-1.30307z" fill="#ffeeda"/><path d="M241.65697,202.15009l-0.89244,0.41128c-0.20461,0.09753 -0.98157,0.58578 -1.35549,0.44667c-1.06001,-0.39435 -1.02794,-1.41848 -2.49187,-0.15472c-0.45895,0.39619 -0.39996,1.6996 -0.52204,2.24675c-0.22049,0.98815 -1.95887,2.70477 -3.0646,2.43505c-0.13796,-0.03365 0.13198,-0.26847 0.11692,-0.40966c-0.03511,-0.32879 -0.17924,-0.63939 -0.26691,-0.95822c-0.18002,-1.64937 1.83711,-2.6024 2.40253,-4.02389c0.32258,-0.81096 0.53871,-2.40945 -0.98479,-2.58991c-0.59589,-0.07058 -1.02345,0.6013 -1.46447,1.00823c-1.17133,1.0808 -1.83123,2.81976 -3.00369,3.98033c-0.70949,0.70229 -1.05449,-0.40264 -0.94241,-0.93044c0.11538,-0.54334 0.58914,-0.95514 0.79771,-1.46992l0.68792,-0.85922c0.18933,-0.22516 0.2451,-0.55357 0.1146,-0.83881c-0.18053,-0.39462 -0.57936,-0.54979 -0.97407,-0.36922c-0.05309,0.02429 -0.10199,0.0531 -0.14675,0.08685l-0.66107,0.47581c-0.28938,0.13102 -0.64848,0.25308 -0.93786,0.38409c-2.34273,1.19571 2.01345,-1.70445 2.73502,-2.03457c2.78146,-1.27249 6.37085,-3.00713 9.47581,-2.20102c0,0 0.32792,0.08314 0.60716,-0.07395l0.13941,0.30028c0.62458,0.86973 2.35487,2.63141 2.11777,3.82842c-0.11188,0.56487 -1.03115,1.00598 -1.48639,1.30978z" data-paper-data="{&quot;noHover&quot;:false,&quot;origItem&quot;:[&quot;Path&quot;,{&quot;applyMatrix&quot;:true,&quot;segments&quot;:[[[417.04872,395.65949],[1.36706,0.94626],[-2.89695,-2.00522]],[[404.3438,396.59585],[3.07503,-0.57925],[0,0]],[[403.37923,396.59957],[0,0],[0.07812,0.89719]],[[402.84207,398.23539],[0,0],[-5.92561,6.99179]],[[397.20442,424.87305],[0,-8.5951],[0,2.22978]],[[399.25866,434.21214],[0.32981,7.38424],[0.00366,-0.89261]],[[399.26963,431.53432],[-0.00366,0.89261],[0,0]],[[398.80083,429.28314],[0,0],[-0.03534,-0.15387]],[[398.74687,428.8053],[0,0.16407],[0,-1.21972]],[[401.04642,426.59679],[-1.27001,0],[0.91799,0]],[[403.12549,427.86042],[-0.36872,-0.74702],[0,0]],[[404.55984,430.61553],[0,0],[1.11606,1.13477]],[[407.47966,434.36669],[-1.30552,-0.93],[1.26818,0.90341]],[[411.0915,433.24496],[1.00519,2.63399],[-1.66111,-4.35277]],[[404.07521,420.88057],[1.45022,4.25662],[-0.54603,-1.60267]],[[403.15189,415.90003],[-0.91335,1.44018],[2.33514,-3.68208]],[[411.41749,416.47389],[-1.76547,-1.77234],[3.09457,3.10661]],[[419.06713,427.17001],[-4.60861,-1.46817],[0.95524,0.14868]],[[421.93285,427.61604],[-0.91777,-0.29467],[0.39408,0.12653]],[[422.88013,428.39427],[-0.25752,0.31319],[2.06405,-2.51018]],[[420.10311,417.76623],[2.36131,1.7186],[-1.30747,-0.9516]],[[414.76401,413.86451],[0.49561,1.63592],[-1.58088,-5.21818]],[[418.23219,407.71211],[-2.34006,2.24766],[0.82546,-0.79287]],[[418.70693,403.73719],[0.01044,0.63687],[0,0]],[[418.70693,400.98096],[0,0],[-0.25423,-1.51845]]],&quot;closed&quot;:true}]}" fill="#ffffff"/></g><g stroke-width="0.5"><path d="M263.18459,182.33523c0.51841,-0.53976 1.0539,-0.20965 1.20653,-0.09517c0.1752,0.03061 0.35884,0.12791 0.5205,0.34758c0.07396,0.10052 0.12176,0.19732 0.14942,0.28939c1.63708,1.65846 2.88532,3.60827 4.12586,5.57714c0.6282,0.99703 1.33652,1.6463 0.32651,2.90405c-0.24012,0.29904 -2.01694,0.97145 -2.48971,1.23134c-6.57781,3.61586 -10.86883,4.91977 -17.29016,8.80202c-2.11838,0.85735 -3.09118,1.50456 -5.17994,1.02187c-1.93052,-0.44612 -2.65887,-2.71663 -3.34965,-4.24652c-0.18492,-0.92227 -0.7584,-2.34687 -0.46833,-3.30685c0.5888,-1.94864 3.08877,-2.79563 4.70941,-3.6721zM263.57801,183.65385c-1.673,0.99665 -13.34587,6.61664 -17.4182,8.81316c-0.98293,0.53017 -3.50914,1.33667 -3.81628,2.55596c-0.15603,0.61941 0.33562,1.77657 0.4469,2.36213c0.36283,0.78078 1.18139,3.33275 2.24141,3.49097c2.29892,0.34316 20.4361,-9.30438 23.03059,-10.81041c0.25694,-0.14914 -0.94945,-1.53853 -0.99925,-1.61616c-1.00078,-1.56039 -2.22423,-3.46725 -3.48517,-4.79567z" fill="#0010c3"/><path d="M267.09708,188.43875c0.04979,0.07763 1.25726,1.47177 1.00033,1.62093c-2.59449,1.50602 -20.79337,11.18289 -23.09228,10.83974c-1.06003,-0.15823 -1.88466,-2.71974 -2.24749,-3.50052c-0.11128,-0.58555 -0.60485,-1.74902 -0.44882,-2.36843c0.30713,-1.21929 2.83272,-2.03274 3.81566,-2.56292c4.07233,-2.19652 15.80569,-7.84195 17.47869,-8.83861c1.26094,1.32842 2.49313,3.24944 3.49393,4.80982z" data-paper-data="{&quot;noHover&quot;:false,&quot;origItem&quot;:[&quot;Path&quot;,{&quot;applyMatrix&quot;:true,&quot;segments&quot;:[[[358.81615,328.73572],[5.07053,-1.66915],[0.61547,5.44017]],[[361.06361,383.54771],[-0.88746,-12.97392],[0.21421,3.13151]],[[363.2194,396.28753],[-2.87095,-2.21024],[1.45844,1.1228]],[[370.04982,397.90696],[-1.69381,-0.40017],[2.51965,-0.01438]],[[382.06927,396.26052],[-1.71169,2.52373],[3.71224,-5.47333]],[[381.33974,324.77224],[0.84915,8.39033],[-0.08409,-0.8309]],[[375.82208,325.43628],[0.26722,-0.03648],[-5.37113,0.73317]]],&quot;closed&quot;:true}]}" fill="#ffffff"/></g><g stroke-width="0.5"><path d="M291.06744,205.54519c0.77505,-2.59968 2.39316,-6.46322 -0.21329,-8.89778c-1.64194,-1.53366 -4.44646,-2.72165 -6.4393,-3.81021c-4.7116,-2.23609 -8.96443,-5.21625 -13.69506,-7.46024c-1.2924,-0.61305 -3.20754,-1.94271 -4.64232,-2.03476c-0.93855,-0.06022 -1.86043,0.27072 -2.75559,0.39898c-0.82857,0.46816 -1.56162,1.33961 -1.99468,2.14267c-3.25638,6.03863 6.29333,7.98888 10.58964,10.88225c3.09895,1.7496 6.45192,3.08875 9.70119,4.51775c3.22362,1.41773 6.07016,3.20241 9.4494,4.26133zM292.38555,206.87883c-0.23558,0.49689 -0.91428,0.33589 -0.91428,0.33589l-0.74292,-0.17874c-3.47239,-1.08107 -6.38743,-2.90067 -9.69403,-4.3497c-3.34461,-1.46569 -6.78265,-2.85718 -9.96979,-4.65773c-3.4509,-2.32314 -10.18834,-3.7908 -11.90986,-7.72595c-0.48436,-1.1072 -0.20203,-2.2445 -0.01903,-3.29812c0.17381,-1.0007 0.44962,-1.91854 1.09564,-2.7224c0.67188,-0.83603 1.34311,-1.47138 2.30868,-2.01815c1.11868,-0.18819 2.29386,-0.57885 3.48264,-0.48501c1.76109,0.13901 3.75661,1.47033 5.3483,2.22612c4.74817,2.2546 9.0208,5.24281 13.74819,7.48639c2.14517,1.17178 5.11074,2.45135 6.88093,4.11338c3.39591,3.18841 1.52806,7.59963 0.63673,10.8995c0,0 -0.05956,0.21967 -0.25121,0.37451z" fill="#001c72"/><path d="M281.63622,201.31393c-3.24927,-1.42901 -6.65047,-2.78105 -9.74942,-4.53065c-4.29632,-2.89337 -13.84778,-4.87676 -10.5914,-10.91539c0.43306,-0.80306 1.16922,-1.67951 1.9978,-2.14767c0.89516,-0.12826 1.82003,-0.46264 2.75858,-0.40242c1.43478,0.09206 3.35435,1.418 4.64674,2.03104c4.73062,2.24399 9.03958,5.24767 13.75118,7.48375c1.99283,1.08856 4.79728,2.28834 6.43921,3.82201c2.60644,2.43456 0.98074,6.31374 0.20569,8.91342c-3.37923,-1.05892 -6.23477,-2.83636 -9.45839,-4.25409z" data-paper-data="{&quot;noHover&quot;:false,&quot;origItem&quot;:[&quot;Path&quot;,{&quot;applyMatrix&quot;:true,&quot;segments&quot;:[[[213.62881,111.1125],[0.77284,4.92724],[-4.20938,0.58228]],[[201.15101,116.74333],[1.69873,-4.77501],[-1.07012,3.00804]],[[200.08121,127.21218],[0.20253,-3.1853],[0,7.32759]],[[198.71849,149.08974],[-0.00159,-7.35649],[0.00044,2.00977]],[[198.95742,156.2081],[-0.83531,-1.87665],[0.54641,1.2276]],[[201.37845,159.46548],[-0.78456,-1.05898],[1.22188,0.7697]],[[205.76063,160.70661],[-1.43068,-0.06592],[10.75793,0.49568]],[[214.06799,140.70937],[-1.21192,7.19641],[0.39557,-4.98754]],[[213.94551,125.6739],[0.16038,4.98522],[-0.15911,-4.94586]]],&quot;closed&quot;:true}]}" fill="#ffffff"/></g><path d="M318.42577,189.21707c-0.14196,-0.0981 -0.22425,-0.20454 -0.22425,-0.20454c-0.65812,-0.94982 -2.41989,-1.37505 -3.46773,-1.84793c-2.2731,-1.02582 -5.40809,-2.1272 -7.92752,-2.24357c-2.89983,-0.13393 -3.27722,2.43819 -1.18277,4.00005c1.5291,1.05186 3.656,1.67518 5.39805,2.36038c1.30052,0.51154 2.74085,2.03205 4.24671,1.95284c1.78915,-0.09411 2.88339,-2.37519 3.15752,-4.01724zM319.3656,187.66035c0.42432,0.05432 0.65658,0.46357 0.65658,0.46357l0.23783,0.7218c-0.19322,2.53238 -1.9552,6.01067 -4.8983,6.16548c-1.49439,0.0786 -3.10037,-1.00192 -4.29866,-1.72328c-2.02678,-1.22011 -4.50604,-1.62305 -6.47389,-2.919c-2.71086,-2.08802 -3.11452,-6.44172 0.98315,-7.15584c3.61835,-0.63058 8.30755,1.71428 11.4768,3.10834c0.81157,0.35698 1.68335,0.72499 2.3165,1.33895z" fill="#000000" stroke-width="0.5"/></g><g><g stroke="none" stroke-width="0" stroke-linecap="butt"><g><path d="M268.06454,139.19673c0.18999,-1.87788 1.73143,-3.07363 2.44275,-3.00165c0.71132,0.07196 0.32316,1.38439 0.13316,3.26228c-0.18999,1.87788 -0.92065,3.34186 -1.63196,3.26989c-0.71132,-0.07196 -1.13394,-1.65263 -0.94394,-3.53051z" fill="#ffe8d7"/><path d="M279.70992,143.39299l-8.05138,8.26284l-5.86226,-3.71202l4.37653,-10.58978c0,0 3.20084,-6.30765 8.81891,-2.50597c4.82637,3.26594 0.7182,8.54493 0.7182,8.54493z" fill="#fff2e4"/><path d="M279.70992,143.39299l-8.05138,8.26284l-5.86226,-3.71202c0,0 7.69447,-1.09742 10.95937,-4.33766c3.2649,-3.24024 3.163,-5.47355 2.23607,-8.75809c4.82637,3.26594 0.7182,8.54493 0.7182,8.54493z" fill="#ffe8d7"/></g><path d="M260.11636,172.84484c0,0 -3.52845,6.01589 -5.81266,9.70902c-3.54393,5.72982 -13.15089,21.27783 -13.15089,21.27783c0,0 -5.28137,-1.33207 -7.08538,-2.47438c-1.02501,-0.64904 -2.7943,-3.7815 -2.7943,-3.7815c0,0 6.86747,-11.03708 10.31752,-16.23663c3.18507,-4.8002 9.65148,-13.85847 9.65148,-13.85847z" fill="#0037db"/><path d="M260.11636,172.84484c0,0 -3.52845,6.01589 -5.81266,9.70902c-3.54393,5.72982 -13.15089,21.27783 -13.15089,21.27783c0,0 -5.28137,-1.33207 -7.08538,-2.47438c-1.02501,-0.64904 -2.7943,-3.7815 -2.7943,-3.7815c0,0 8.8067,-6.79095 12.25675,-11.9905c3.18507,-4.8002 13.74455,-14.28491 13.74455,-14.28491z" fill="#002fbc"/><path d="M250.48593,168.67494l15.30259,-22.48541l6.91942,4.68562l-13.52568,23.76266z" data-paper-data="{&quot;index&quot;:null}" fill="#0037db"/><path d="M256.01082,172.9782c0,0 5.72585,-11.23515 7.32827,-15.87453c1.5074,-4.3643 2.44943,-10.91414 2.44943,-10.91414l6.91942,4.68562l-13.66931,23.67172z" data-paper-data="{&quot;index&quot;:null}" fill="#002fbc"/><path d="M255.8246,180.42083l-14.78036,23.3421c0,0 -2.18426,1.49192 -5.35762,0.39664c-3.1781,-1.09691 -6.06331,-4.74274 -4.55487,-6.87338c1.34314,-1.89714 5.79362,-9.60415 9.85796,-15.60434c3.17714,-4.69042 6.30343,-8.16172 6.30343,-8.16172c0,0 4.69158,3.78556 5.60486,4.04955c1.3026,0.37652 2.9266,2.85114 2.9266,2.85114z" fill="#00051b"/></g><g stroke="none" stroke-linecap="butt"><path d="M247.66633,342.95379l-2.52303,-9.66862c0,0 12.4,-4.49703 16.98635,-5.17464c2.47902,-0.36626 8.34929,1.43146 8.34929,1.43146l1.9265,4.66468c0,0 -7.05325,3.2843 -11.10173,4.71574c-4.19283,1.48248 -13.63739,4.03138 -13.63739,4.03138z" fill="#000000" stroke-width="NaN"/><path d="M227.87837,291.43838c0,0 -5.91211,-7.84267 -11.60164,-21.61884c-2.7523,-6.6642 -4.46254,-14.85052 -4.46254,-14.85052l17.12699,-7.07341c0,0 3.28766,6.63794 5.10659,11.24004c2.74594,6.94755 9.76612,26.38966 9.76612,26.38966c0,0 1.16445,5.92745 -6.1726,9.2394c-7.68042,3.46696 -9.76293,-3.32635 -9.76293,-3.32635z" fill="#111111" stroke-width="NaN"/><path d="M227.87837,291.43838c0,0 -5.91211,-7.84267 -11.60164,-21.61884c-2.7523,-6.6642 -4.46254,-14.85052 -4.46254,-14.85052l17.12699,-7.07341c0,0 -6.92081,15.71676 -5.04787,25.80662c1.87294,10.08987 19.23532,19.60413 11.89828,22.91609c-7.68042,3.46696 -7.91322,-5.17996 -7.91322,-5.17996z" fill="#000000" stroke-width="NaN"/><path d="M246.3189,335.27975c0,0 -8.01558,-11.31773 -13.7051,-25.0939c-2.7523,-6.6642 -4.63608,-20.12505 -4.63608,-20.12505c0,0 -1.02222,-2.91921 6.52825,-6.03753c8.12065,-3.35381 10.06494,2.52596 10.06494,2.52596c0,0 4.299,9.89578 6.11793,14.49787c2.74594,6.94755 11.56559,28.31959 11.56559,28.31959z" fill="#111111" stroke-width="NaN"/><path d="M246.3189,335.27975c0,0 -8.01558,-11.31773 -13.7051,-25.0939c-2.7523,-6.6642 -4.63608,-20.12505 -4.63608,-20.12505c0,0 7.61117,12.00835 14.02111,20.02369c4.66575,5.83432 20.2556,19.2822 20.2556,19.2822z" fill="#000000" stroke-width="NaN"/></g><path d="M205.39754,293.74684c0,0 -2.06902,-9.60102 -1.44261,-24.49267c0.30302,-7.20381 2.19127,-15.35092 2.19127,-15.35092l18.51379,0.77877c0,0 0.19381,7.40496 -0.08961,12.34535c-0.42787,7.45825 -2.22781,28.05047 -2.22781,28.05047c0,0 -1.43424,5.868 -9.4838,5.79008c-8.42627,-0.08157 -7.46121,-7.12107 -7.46121,-7.12107z" fill="#222222" stroke="none" stroke-width="NaN" stroke-linecap="butt"/><path d="M205.39754,293.74684c0,0 -2.06902,-9.60102 -1.44261,-24.49267c0.30302,-7.20381 2.19127,-15.35092 2.19127,-15.35092l18.51379,0.77877c0,0 -12.90446,12.67716 -15.61209,23.2739c-0.82546,3.23057 2.02666,10.24668 2.47007,13.39905c1.01105,7.18786 1.34079,9.51294 1.34079,9.51294z" fill="#121212" stroke="none" stroke-width="NaN" stroke-linecap="butt"/><path d="M176.41207,323.94302c0,0 6.81005,-12.08154 16.8365,-23.10987c4.85027,-5.33493 16.21706,-12.78742 16.21706,-12.78742c0,0 2.20296,-2.1711 8.24739,3.32421c6.50088,5.91031 2.01478,10.1796 2.01478,10.1796c0,0 -7.11168,8.11368 -10.49604,11.72393c-5.1092,5.45021 -20.66698,22.55302 -20.66698,22.55302z" fill="#222222" stroke="none" stroke-width="NaN" stroke-linecap="butt"/><path d="M176.41207,323.94302c0,0 6.81005,-12.08154 16.8365,-23.10987c4.85027,-5.33493 16.21706,-12.78742 16.21706,-12.78742c0,0 7.05245,-0.99129 5.04003,1.60329c-2.42446,3.12582 -14.18568,10.1447 -16.94595,13.0892c-5.1092,5.4502 -8.99493,33.08827 -8.99493,33.08827z" fill="#121212" stroke="none" stroke-width="NaN" stroke-linecap="butt"/><path d="M169.26197,329.85117l7.38861,-6.72729c0,0 9.74451,8.88976 12.47591,12.63587c1.47637,2.02485 2.61264,8.05816 2.61264,8.05816l-3.23507,3.87363c0,0 -6.18593,-4.71904 -9.33483,-7.63856c-3.26119,-3.02362 -9.90725,-10.2018 -9.90725,-10.2018z" fill="#000000" stroke="none" stroke-width="NaN" stroke-linecap="butt"/><path d="M206.29597,254.51713c0,0 -8.31381,-54.43031 -6.73124,-60.32105c0.80521,-2.99719 13.27787,-3.88579 13.27787,-3.88579h19.02051c0,0 11.37251,0.19832 12.30009,3.41558c1.72067,5.96809 -5.38354,60.79127 -5.38354,60.79127z" fill="#d4d4d4" stroke="none" stroke-width="0" stroke-linecap="butt"/><path d="M206.29597,254.51713c0,0 -8.31381,-54.43031 -6.73124,-60.32105c0.80521,-2.99719 13.27787,-3.88579 13.27787,-3.88579l12.37318,1.61147c0,0 -4.77389,28.27577 -0.99458,45.71678c3.77932,17.441 14.55846,16.8786 14.55846,16.8786z" fill="#b4b4b4" stroke="none" stroke-width="0" stroke-linecap="butt"/><g data-paper-data="{&quot;index&quot;:null}" stroke="none" stroke-width="0" stroke-linecap="butt"><path d="M229.18299,260.15541c0,0 1.17325,-9.6829 1.25383,-22.35683c0.09509,-14.95418 -0.74361,-33.66745 -0.56112,-39.79162c0.12817,-4.30146 1.55326,-8.36407 1.55326,-8.36407c0,0 3.45649,1.09609 5.46606,1.39049c1.98129,0.29026 4.91955,3.66219 4.91955,3.66219c0,0 2.64885,1.396 2.5781,5.91809c-0.17303,11.06042 -1.59732,29.74765 -1.72707,39.18033c-0.11028,8.01713 1.22603,22.72303 1.22603,22.72303z" fill="#005eff"/><path d="M229.18299,260.15541c0,0 1.17325,-9.6829 1.25383,-22.35683c0.09509,-14.95418 -0.74361,-33.66745 -0.56112,-39.79162c0.12817,-4.30146 1.55326,-8.36407 1.55326,-8.36407c0,0 3.45649,1.09609 5.46606,1.39049c1.98129,0.29026 4.91955,3.66219 4.91955,3.66219c0,0 -8.74564,30.24304 -9.01925,50.13427c-0.11028,8.01713 11.0963,17.68716 11.0963,17.68716z" fill="#0053e2"/><path d="M226.65117,192.56016l-1.67285,-10.1913l11.38363,2.00378l2.19191,7.05595z" fill="#000e47"/><path d="M230.381,220.34087c0,0 -2.02601,-26.3925 0.62817,-28.63064c1.77772,-1.49906 7.70665,-0.24155 10.18281,0.12166c3.30707,0.4851 3.68766,3.46478 3.73006,6.80696c0.06735,5.30855 -1.50686,23.18769 -1.50686,23.18769z" fill="#000e47"/><path d="M236.79099,202.28435c-2.47993,-0.11374 -7.22748,0.70446 -7.22748,0.70446l0.05285,-1.77343c0,0 4.87059,-1.4045 7.42279,-1.28746c2.44859,0.1123 7.59245,1.97606 7.59245,1.97606l-0.05285,1.77343c0,0 -5.2634,-1.27729 -7.78776,-1.39306z" fill="#ffffff"/></g><path d="M212.91745,190.18443c0,0 1.41937,-3.7572 1.41937,-8.67036c0,-4.08643 -3.34902,-8.49835 -3.34902,-8.49835l21.32776,-4.86997c0,0 -2.94279,14.4067 -2.94279,18.62002c0,1.94543 1.32111,5.38272 1.32111,5.38272l-4.16907,2.04206z" fill="#ffe4d0" stroke="none" stroke-width="0" stroke-linecap="butt"/><g stroke="none" stroke-linecap="butt"><path d="M206.86669,161.23312c0,-10.37997 8.41463,-18.7946 18.79461,-18.7946c10.37998,0 18.7946,8.41463 18.7946,18.79461c0,10.37998 -5.00546,25.91624 -15.38544,25.91624c-10.37998,0 -22.20377,-15.53626 -22.20377,-25.91624z" fill="#fff2e4" stroke-width="NaN"/><path d="M206.7793,161.18943c0,-3.59314 2.64776,-10.51161 5.5928,-13.36622c5.56267,-5.39189 13.20181,-5.42838 13.20181,-5.42838c0,0 -17.2092,11.78582 -11.80204,29.74081c3.06301,10.17103 18.50794,14.34827 18.50794,14.34827c0,0 -1.30587,0.62176 -3.29674,0.62176c-10.37998,0 -22.20377,-15.53626 -22.20377,-25.91623z" fill="#ffe8d7" stroke-width="NaN"/></g><g stroke="none" stroke-width="0" stroke-linecap="butt"><path d="M243.98351,158.77961c0,0 -3.51924,4.00526 -8.34144,3.22801c-2.10182,-0.33878 -11.8079,-4.16466 -14.74,-1.24063c-7.06614,7.04669 -8.26068,16.05319 -8.26068,16.05319c0,0 -4.96724,-6.93698 -1.59932,-8.02136c3.28805,-1.05866 8.15944,-14.83827 12.05452,-15.64398c12.25575,-2.53516 20.88692,5.62479 20.88692,5.62479z" fill="#ffe8d7"/><path d="M253.30738,149.08986c0,0 -0.60935,6.01223 -6.17745,8.38435c-4.23207,1.80296 -6.66566,3.4697 -11.48784,2.69245c-2.10182,-0.33878 -11.8079,-4.16466 -14.74,-1.24063c-7.06614,7.04669 -8.79624,16.85653 -8.79624,16.85653c0,0 -3.89971,-4.73298 -5.33777,-9.42549c-0.20311,-0.66275 -0.33878,0.89429 -0.42387,0.24642c-0.4252,-3.23737 0.41278,-8.30043 0.41278,-8.65668c0,-0.43195 -0.90437,0.50937 -0.64546,-0.55011c0.62426,-2.5546 3.201,-8.18945 6.69883,-10.84147c0.69446,-0.52653 -1.10492,-0.13156 -0.30507,-0.59226c6.07258,-3.49776 11.29869,-3.82726 19.62104,-3.79407c2.49361,0.00995 5.80145,4.10078 7.81168,4.48929c1.89916,0.36706 3.96556,-0.16433 3.96556,-0.16433c0,0 -2.37871,1.76493 -1.30043,1.91615c3.92228,0.55009 7.52503,-1.52765 7.52503,-1.52765c0,0 -4.2846,4.07183 -3.82708,4.15549c4.64446,0.8493 7.00631,-1.94801 7.00631,-1.94801z" fill="#3b2617"/><path d="M247.12993,157.37376c-4.23207,1.80296 -6.66566,3.46971 -11.48785,2.69245c-2.10182,-0.33878 -11.8079,-4.16466 -14.74,-1.24063c-7.06614,7.0467 -8.79623,16.85653 -8.79623,16.85653c0,0 -3.89972,-4.73298 -5.33778,-9.42549c-0.20311,-0.66275 -0.33878,0.89429 -0.42387,0.24642c-0.4252,-3.23737 0.41278,-8.30043 0.41278,-8.65668c0,-0.43195 -0.90437,0.50938 -0.64547,-0.55011c0.2996,-1.22606 1.89614,10.53815 4.93057,9.56114c3.28805,-1.05866 8.15944,-14.83827 12.05452,-15.64398c12.25575,-2.53516 27.72378,4.58814 24.03334,6.16034z" fill="#332012"/></g><path d="M233.90791,173.44136l-0.63831,-5.45019h1.81673l0.88381,6.43221z" fill="#ffe8d7" stroke="none" stroke-width="0" stroke-linecap="butt"/><g stroke="none" stroke-width="0" stroke-linecap="butt"><g><path d="M221.72713,167.5203c-0.2552,-2.65252 2.72379,-2.52359 5.3882,-2.56748c4.55947,-0.0751 5.64261,0.93516 5.5464,2.61899c-0.07749,1.35611 -0.10401,2.33028 -1.013,2.9359c-1.02987,0.68617 -2.89154,0.77351 -4.43025,0.80168c-1.70397,0.0312 -3.77288,-0.12838 -4.65989,-0.86513c-0.95831,-0.95779 -0.83146,-2.92397 -0.83146,-2.92397z" data-paper-data="{&quot;index&quot;:null}" fill="#000000"/><path d="M224.11863,171.18685l3.75615,-6.36246c0,0 0.33323,-0.03243 0.55513,-0.01226c0.19665,0.01788 0.7097,0.12724 0.7097,0.12724l-3.75615,6.36246z" fill="#ffffff"/><path d="M226.37998,171.45516l4.13943,-6.32414c0,0 0.34495,0.0511 0.53659,0.11498c0.19164,0.06388 0.61325,0.2683 0.61325,0.2683l-3.75615,5.90251z" fill="#ffffff"/></g><g><path d="M235.83023,167.5203c-0.20099,-2.65252 2.14505,-2.52359 4.24335,-2.56748c3.59071,-0.0751 4.4437,0.93516 4.36794,2.61899c-0.06102,1.35611 -0.08191,2.33028 -0.79777,2.9359c-0.81105,0.68617 -2.27717,0.77351 -3.48894,0.80168c-1.34193,0.0312 -2.97125,-0.12838 -3.66979,-0.86513c-0.75469,-0.95779 -0.65479,-2.92397 -0.65479,-2.92397z" data-paper-data="{&quot;index&quot;:null}" fill="#000000"/><path d="M237.7136,171.18685l2.95808,-6.36246c0,0 0.26242,-0.03243 0.43718,-0.01226c0.15487,0.01788 0.5589,0.12724 0.5589,0.12724l-2.95807,6.36246z" fill="#ffffff"/><path d="M239.49448,171.45516l3.25991,-6.32414c0,0 0.27165,0.0511 0.42258,0.11498c0.15092,0.06388 0.48295,0.2683 0.48295,0.2683l-2.95808,5.90251z" fill="#ffffff"/></g><path d="M232.43582,168.50389v-1.14985h4.02445v1.14985z" fill="#000000"/></g><path d="M221.70926,164.82936v-1.14269l10.38807,0.72716v1.14269z" fill="#332012" stroke="none" stroke-width="0" stroke-linecap="butt"/><path d="M235.99286,165.55652v-1.14269l8.93375,-0.72716v1.14269z" data-paper-data="{&quot;index&quot;:null}" fill="#332012" stroke="none" stroke-width="0" stroke-linecap="butt"/><g stroke="none" stroke-width="0" stroke-linecap="butt"><path d="M200.71784,267.09089c0,0 0.93528,-21.68483 1.14906,-29.70153c0.25153,-9.43219 -3.00332,-25.15043 -2.74311,-36.21122c0.10639,-4.52224 2.10199,-9.16495 2.10199,-9.16495c0,0 7.02732,-2.08022 10.33505,-2.27949c3.35495,-0.2021 9.65501,1.07527 9.65501,1.07527c0,0 2.1676,4.12514 2.1676,8.42954c0,6.12835 -2.32096,24.79042 -2.90358,39.73876c-0.49379,12.66897 0.97683,22.39903 0.97683,22.39903z" fill="#005eff"/><path d="M200.71784,266.68802c0,0 0.93528,-21.68483 1.14906,-29.70153c0.25153,-9.43219 -3.00332,-25.15042 -2.74311,-36.21121c0.21363,-9.08073 17.81375,-2.15976 17.81375,6.92348c0,6.12835 -9.37115,15.12157 -9.95378,30.06991c-0.49379,12.66897 4.19978,26.62915 4.19978,26.62915z" fill="#0053e2"/><path d="M203.19373,192.10456l3.99294,-6.95068h15.08444v9.46475z" fill="#000e47"/><path d="M200.3023,222.42135c0,0 -2.53688,-17.93908 -2.162,-23.24091c0.20286,-2.86898 2.68725,-6.92798 2.68725,-6.92798c0,0 1.23804,-0.92362 2.08299,-0.97462c4.13393,-0.24948 15.81857,0.0368 18.69929,1.61631c4.30099,2.35824 -0.37392,28.63988 -0.37392,28.63988z" fill="#000e47"/><path d="M198.46135,204.23128v-1.77464c0,0 8.64258,-1.62675 12.71825,-1.62675c4.24814,0 12.2746,1.62675 12.2746,1.62675v1.77464c0,0 -7.85097,-1.03521 -11.97883,-1.03521c-4.20179,0 -13.01403,1.03521 -13.01403,1.03521z" fill="#ffffff"/></g><path d="M236.35522,180.40238c-0.4334,2.32458 -10.98171,0.6723 -9.16912,-3.7189c1.46575,-3.55096 9.87816,-0.08413 9.16912,3.7189z" fill="#652e3b" stroke="#000000" stroke-width="1" stroke-linecap="round"/><g stroke="none" stroke-width="0" stroke-linecap="butt"><g><path d="M154.85293,229.83711c-0.70394,1.75128 -2.51678,2.47201 -3.18014,2.20537c-0.66337,-0.26664 0.07395,-1.41969 0.77789,-3.17097c0.70394,-1.75128 1.81235,-2.95482 2.47573,-2.68818c0.66337,0.26664 0.63048,1.90249 -0.07347,3.65377z" fill="#ffe8d7"/><path d="M144.83062,222.57236l10.02907,-5.70236l4.60106,5.1938l-7.14483,8.95817c0,0 -4.82638,5.17086 -9.16795,-0.04126c-3.72976,-4.47762 1.68265,-8.40835 1.68265,-8.40835z" fill="#fff2e4"/><path d="M144.83062,222.57236l10.02907,-5.70236l4.60106,5.1938c0,0 -7.69663,-1.08221 -11.73283,1.12407c-4.03621,2.20628 -4.55843,4.38008 -4.57995,7.79284c-3.72976,-4.47762 1.68265,-8.40835 1.68265,-8.40835z" fill="#ffe8d7"/></g><path d="M172.20646,198.83351c0,0 6.66474,-2.05475 10.84332,-3.23638c6.48299,-1.83329 24.06771,-6.81445 24.06771,-6.81445c0,0 2.99606,4.54872 3.55536,6.60944c0.31778,1.17087 -0.49236,4.67605 -0.49236,4.67605c0,0 -12.51811,3.50373 -18.57381,5.00928c-5.5906,1.38992 -16.47671,3.7049 -16.47671,3.7049z" fill="#0037db"/><path d="M172.20646,198.83351c0,0 6.66474,-2.05475 10.84332,-3.23638c6.48299,-1.83329 24.06771,-6.81445 24.06771,-6.81445c0,0 2.99606,4.54872 3.55536,6.60944c0.31778,1.17087 -0.49236,4.67605 -0.49236,4.67605c0,0 -11.08132,-0.93765 -17.13702,0.5679c-5.5906,1.38992 -19.78371,1.25563 -19.78371,1.25563z" fill="#002fbc"/><path d="M179.92535,206.39896l-20.94425,17.35228l-5.34631,-6.42264l19.59185,-19.07269z" data-paper-data="{&quot;index&quot;:null}" fill="#0037db"/><path d="M175.81256,200.73085c0,0 -8.6203,9.2035 -11.44788,13.21553c-2.65994,3.77414 -5.38358,9.80486 -5.38358,9.80486l-5.34631,-6.42264l19.70458,-18.94544z" data-paper-data="{&quot;index&quot;:null}" fill="#002fbc"/><path d="M180.48767,196.14345l26.6635,-7.23676c0,0 2.61851,0.37446 4.2196,3.32512c1.60347,2.95506 1.26978,7.59243 -1.28153,8.14542c-2.27172,0.49239 -10.75846,3.17189 -17.8079,4.85321c-5.51061,1.3143 -10.16052,1.76372 -10.16052,1.76372c0,0 -0.90432,-5.96016 -1.3997,-6.77157c-0.70656,-1.15729 -0.23344,-4.07914 -0.23344,-4.07914z" fill="#00051b"/></g></g></g></g></svg>