<svg version="1.1" xmlns="http://www.w3.org/2000/svg" xmlns:xlink="http://www.w3.org/1999/xlink" width="199" height="166.54913" viewBox="0,0,199,166.54913"><defs><radialGradient cx="145.50001" cy="255.79043" r="24.75" gradientUnits="userSpaceOnUse" id="color-1"><stop offset="0" stop-color="#fff9d4"/><stop offset="1" stop-color="#fff9d4" stop-opacity="0"/></radialGradient><radialGradient cx="87.00001" cy="255.79043" r="42.75" gradientUnits="userSpaceOnUse" id="color-2"><stop offset="0" stop-color="#fff9d4"/><stop offset="1" stop-color="#fff9d4" stop-opacity="0"/></radialGradient><radialGradient cx="187.50001" cy="242.29043" r="39.75" gradientUnits="userSpaceOnUse" id="color-3"><stop offset="0" stop-color="#fff9d4"/><stop offset="1" stop-color="#fff9d4" stop-opacity="0"/></radialGradient><radialGradient cx="149.25001" cy="201.54043" r="46.5" gradientUnits="userSpaceOnUse" id="color-4"><stop offset="0" stop-color="#fff9d4"/><stop offset="1" stop-color="#fff9d4" stop-opacity="0"/></radialGradient><radialGradient cx="96.00001" cy="193.79043" r="53.75" gradientUnits="userSpaceOnUse" id="color-5"><stop offset="0" stop-color="#fff9d4"/><stop offset="1" stop-color="#fff9d4" stop-opacity="0"/></radialGradient></defs><g transform="translate(-42.25001,-131.99129)"><g data-paper-data="{&quot;isPaintingLayer&quot;:true}" fill-rule="nonzero" stroke="none" stroke-linecap="butt" stroke-linejoin="miter" stroke-miterlimit="10" stroke-dasharray="" stroke-dashoffset="0" style="mix-blend-mode: normal"><path d="M145.50001,231.04043c13.66905,0 24.75,11.08095 24.75,24.75c0,13.66905 -11.08095,24.75 -24.75,24.75c-13.66905,0 -24.75,-11.08095 -24.75,-24.75c0,-13.66905 11.08095,-24.75 24.75,-24.75z" fill="url(#color-1)" stroke-width="0"/><path d="M87.00001,213.04043c23.61017,0 42.75,19.13983 42.75,42.75c0,23.61017 -19.13983,42.75 -42.75,42.75c-23.61017,0 -42.75,-19.13983 -42.75,-42.75c0,-23.61017 19.13983,-42.75 42.75,-42.75z" fill="url(#color-2)" stroke-width="0"/><path d="M187.50001,202.54043c21.95332,0 39.75,17.79668 39.75,39.75c0,21.95332 -17.79668,39.75 -39.75,39.75c-21.95332,0 -39.75,-17.79668 -39.75,-39.75c0,-21.95332 17.79668,-39.75 39.75,-39.75z" fill="url(#color-3)" stroke-width="0"/><path d="M149.25001,155.04043c25.68124,0 46.5,20.81876 46.5,46.5c0,25.68124 -20.81876,46.5 -46.5,46.5c-25.68124,0 -46.5,-20.81876 -46.5,-46.5c0,-25.68124 20.81876,-46.5 46.5,-46.5z" fill="url(#color-4)" stroke-width="0"/><path d="M96.00001,140.04043c29.68531,0 53.75,24.06469 53.75,53.75c0,29.68531 -24.06469,53.75 -53.75,53.75c-29.68531,0 -53.75,-24.06469 -53.75,-53.75c0,-29.68531 24.06469,-53.75 53.75,-53.75z" fill="url(#color-5)" stroke-width="0"/><path d="M73.32007,208.76245c-0.66389,-3.0588 -0.57006,-5.85654 -0.57006,-9.22202c0,-12.00702 2.69704,-24.89514 14.33112,-31.20991c1.12986,-0.61327 2.51711,-0.58652 3.69827,-1.09398c5.5574,-2.38759 11.82763,-4.76141 16.88563,-8.12946c2.5568,-2.5421 3.52884,-5.27815 3.89048,-8.24804c-0.2609,-1.84976 -0.6052,-3.71922 0.1945,-5.31861v-4.5c0,-1.38071 1.11929,-2.5 2.5,-2.5c1.38071,0 2.5,1.11929 2.5,2.5v4.5c0.60634,2.42536 0,5 0,7.5c0,9.27084 0.39423,18.17673 -3.1929,26.96296c-2.73096,6.68914 -9.26845,10.4286 -11.9974,16.99375c-2.05041,4.93275 -0.74039,10.39646 -1.05644,15.62626c-1.46226,1.13001 -2.60682,2.89321 -4.38679,3.39002c-1.24978,0.34883 -2.48921,-0.73429 -3.72636,-1.12553c-3.3857,-1.0707 -11.67882,-6.94005 -14.14011,-2.84746l-0.32147,-0.0938c-0.23012,0.18323 -0.52124,0.34327 -0.88796,0.46551c-2.37171,0.79057 -3.16228,-1.58114 -3.16228,-1.58114c-0.00788,-0.02438 -0.01571,-0.04874 -0.02348,-0.07307l-0.34087,-0.09947c0,0 -0.46683,-0.93366 -0.19387,-1.89602z" fill="#ffa566" stroke-width="0.5"/><path d="M92.24678,245.88687c3.51978,1.48653 6.08616,4.20408 8.93659,7.06859c2.11973,3.18082 8.72475,8.15921 8.5648,12.18091c-0.07547,1.89757 -1.83796,3.79369 -3.6446,4.37893c-1.36404,0.44186 -2.60512,-1.21258 -3.8302,-1.95757c-2.55094,-1.55125 -5.37923,-4.69176 -8.31392,-5.64559c-7.87269,-2.5588 -16.5151,-0.60763 -24.4218,-2.97535c-2.59659,-0.77757 -3.38838,-0.13449 -6.10196,-1.76973c-4.26048,-2.56742 -7.22779,-8.58206 -9.07317,-12.8851c-0.88896,-4.33676 -1.93166,-9.21185 -1.08022,-13.64199c0.27882,-1.45072 0.40398,-3.19322 1.51761,-4.16386c1.52312,-1.32755 3.81622,-2.88687 5.68185,-2.11118c1.73914,0.7231 1.0998,7.94047 2.35536,9.79927c0.88568,1.31121 3.2859,2.58433 4.35683,3.33538c6.66651,4.67526 14.50979,6.04887 22.55607,6.04085c0,0 2.39655,0 2.49677,2.34644z" fill="#ffa566" stroke-width="0.5"/><path d="M154.65,207.41034c-0.09421,1.78037 0.15002,3.47363 -0.40482,5.28543c-0.01541,0.05033 -0.03112,0.10055 -0.04711,0.15066l0.03264,0.00408l-0.49589,3.9671c-0.13791,1.25027 -1.19778,2.22282 -2.48481,2.22282c-1.22888,0 -2.25067,-0.88665 -2.46053,-2.05512l-0.44206,-2.21031c-0.94121,-1.87149 -2.81684,-3.11991 -4.12,-4.76517c-0.61643,-0.77825 -0.6719,-1.87825 -1.15682,-2.74458c-3.44893,-6.16169 -4.31619,-11.38879 -3.3143,-18.40204c0.00362,-4.10597 0.80591,-8.7763 2.76592,-12.45722c0.69,-1.29583 1.82106,-2.31674 2.54907,-3.5916c1.13368,-1.98526 2.22968,-7.51897 5.78711,-7.2716c1.96966,0.13696 2.96476,2.66423 4.08183,4.29226c2.69083,3.92168 5.19223,11.22262 4.80127,15.91159c-0.53693,6.43951 -3.564,12.83135 -3.49148,19.2938c0,0 0,1.85664 -1.60001,2.36991z" fill="#ffa566" stroke-width="0.5"/><path d="M173.25001,249.04043c0,-1.29343 0.66919,-1.91768 1.31512,-2.21896c-0.9448,-1.43056 0.26432,-2.8815 0.26432,-2.8815c4.48586,-5.21188 4.39392,-12.40402 4.43877,-19.01891l-0.92997,-3.7199c-0.05753,-0.21047 -0.08824,-0.43201 -0.08824,-0.66073c0,-1.38071 1.11929,-2.5 2.5,-2.5c0.57191,0 1.09897,0.19204 1.5202,0.51515l3.9798,2.98485l-0.01348,0.01797c0.05066,0.03082 0.10116,0.06195 0.15148,0.0934c7.74648,4.8403 12.22559,19.49053 3.40679,25.85424c-4.09866,2.95762 -8.40266,2.06998 -12.61632,3.85559l-1.42848,0.17881c0,0 -2.5,0 -2.5,-2.5z" fill="#ffa566" stroke-width="0.5"/><path d="M197.25001,199.54043c-2,-1.5 -0.5,-3.5 -0.5,-3.5l1.46416,-1.95172c-0.69646,-0.92683 -0.38951,-2.15462 -0.38951,-2.15462c0.86219,-3.4464 1.73735,-6.83907 2.99223,-10.15048c0.02386,-0.68164 0.14543,-1.28287 0.43313,-1.74319v-2.5v0c0,-1.38071 1.11929,-2.5 2.5,-2.5c1.38071,0 2.5,1.11929 2.5,2.5v2.5c0.35686,1.28469 0,2.66667 0,4c0,5.3949 -0.55375,8.63622 -4.02367,13.03106l-1.47633,1.96894c0,0 -1.5,2 -3.5,0.5z" fill="#ffa566" stroke-width="0.5"/><path d="M140.16317,257.49545c-0.50817,-0.4611 -0.73435,-1.02654 -0.73435,-1.02654c-0.36199,-1.36783 -1.65925,-2.80991 -1.08596,-4.10348c3.14195,-7.08945 12.33294,-0.72942 11.90383,4.3038c-0.36615,4.29477 -5.13688,5.61063 -8.39825,3.94137c-1.05447,-0.5397 -1.24206,-1.95678 -1.68527,-3.11515zM144.55164,255.74155c-0.01175,0.25438 -0.00563,0.50421 0.09995,0.72872c0.08577,0.18237 0.75986,0.06633 0.60175,-0.05863c-0.19667,-0.15543 -0.44407,-0.39593 -0.70169,-0.67009z" fill="#ffa566" stroke-width="0.5"/><path d="M110.64367,224.61507c2.42536,-0.60634 3.0317,1.81902 3.0317,1.81902l0.5261,2.11605c0.16667,0.83333 0.33333,1.66667 0.5,2.5c0,0 0.49029,2.45145 -1.96116,2.94174c-2.45145,0.49029 -2.94174,-1.96116 -2.94174,-1.96116c-0.16667,-0.83333 -0.33333,-1.66667 -0.5,-2.5l-0.4739,-1.88395c0,0 -0.60634,-2.42536 1.81902,-3.0317z" fill="#ffa566" stroke-width="0.5"/><path d="M175.95944,133.16872c2.37171,-0.79057 3.16228,1.58114 3.16228,1.58114l0.84274,2.6303c0.42852,0.55342 0.85703,1.10684 1.28555,1.66027c0,0 1.5,2 -0.5,3.5c-2,1.5 -3.5,-0.5 -3.5,-0.5c-0.57148,-0.77991 -1.14297,-1.55982 -1.71445,-2.33973l-1.15726,-3.3697c0,0 -0.79057,-2.37171 1.58114,-3.16228z" fill="#ffa566" stroke-width="0.5"/><path d="M53.36804,132.30436c2.23607,1.11803 1.11803,3.3541 1.11803,3.3541l-1.42637,2.83867c-0.31266,0.94462 -0.62533,1.88924 -0.93799,2.83386c0,0 -0.79057,2.37171 -3.16228,1.58114c-2.37171,-0.79057 -1.58114,-3.16228 -1.58114,-3.16228c0.354,-1.05538 0.70801,-2.11076 1.06201,-3.16614l1.57363,-3.16133c0,0 1.11803,-2.23607 3.3541,-1.11803z" fill="#ffa566" stroke-width="0.5"/><path d="M236.3722,221.69961c2.34082,-0.87781 3.21863,1.46301 3.21863,1.46301l1.61906,4.43175c0.01337,1.31535 0.02674,2.63071 0.04012,3.94606c0,0 0,2.5 -2.5,2.5c-2.5,0 -2.5,-2.5 -2.5,-2.5c0.01337,-1.01798 0.02674,-2.03596 0.04012,-3.05394l-1.38094,-3.56825c0,0 -0.87781,-2.34082 1.46301,-3.21863z" fill="#ffa566" stroke-width="0.5"/><path d="M89.47741,184.20593c0.73807,-0.6655 1.7726,-0.6655 1.7726,-0.6655l3,0.5c0.83357,0.66698 1.91371,1.10923 2.5007,2.00094c0.89804,1.36423 1.18552,3.04414 1.813,4.55207c0.68761,1.65243 1.7283,3.18431 2.13184,4.92802c1.00432,4.33967 -0.56284,8.95271 -0.95406,13.22518c-0.05103,0.55725 0.09686,4.94784 -0.02376,5.19425c-0.05955,0.12165 -0.12199,0.24152 -0.18704,0.35977l0.09103,0.03034l-0.98177,2.94531c-0.31417,1.02156 -1.26534,1.76412 -2.38994,1.76412c-1.38071,0 -2.5,-1.11929 -2.5,-2.5v-1.49056c-1.26296,-0.49014 -2.67845,-0.64881 -3.81433,-1.38281c-3.4331,-2.21848 -6.69584,-6.5184 -8.04159,-10.29018c-1.63226,-4.57482 -3.03318,-15.75743 2.12417,-19.01195c0.9254,-0.58397 3.43252,-0.40516 5.45914,-0.159z" fill="#ffe166" stroke-width="0.5"/><path d="M148.14367,216.96579c-2.42536,-0.60634 -1.81902,-3.0317 -1.81902,-3.0317l0.62772,-1.90629l-0.02356,-0.0589l0.02746,-0.01098l-0.05373,-0.0576c-0.92363,-2.87602 -2.97447,-4.90357 -3.60743,-7.88713c-1.35054,-6.36598 0.76354,-12.72761 5.18712,-17.24054c0,0 1.76777,-1.76777 3.53553,0c1.76777,1.76777 0,3.53553 0,3.53553c-2.45035,2.38605 -3.77952,5.40595 -4.0335,8.6742c0.39847,-0.85184 1.26318,-1.44197 2.26573,-1.44197c0.92661,0 1.73548,0.50412 2.16731,1.25305l1.47643,2.46071l-0.12063,0.07238c0.13738,0.175 0.26663,0.35674 0.38618,0.54653c0.56296,0.89368 0.07669,2.11122 0.09071,3.16733c0.04009,3.01825 -0.29518,4.78351 -1.5,6.8255v1.6745c0,1.19377 -0.83672,2.19212 -1.95569,2.44058c-0.41121,0.63548 -1.21005,1.34493 -2.65065,0.98478z" fill="#ffe166" stroke-width="0.5"/><path d="M177.44133,250.40324c-0.52694,-0.08972 -1.02033,-0.26924 -1.45909,-0.59504c-1.28192,-0.9519 -0.82011,-3.14939 -0.68712,-4.74054c0.19834,-2.37307 1.37498,-4.01167 2.98647,-5.17962c0.00939,-0.14326 0.02245,-0.28946 0.03929,-0.43864c0.14172,-1.25518 1.43854,-2.0663 2.20542,-3.08115l0.88089,-2.20223c0.11794,-0.31588 0.29794,-0.6015 0.52517,-0.84203c0.72423,-2.40233 2.14657,-3.64058 7.44425,-0.18203c1.56814,1.02375 1.67198,3.43528 1.87136,5.29737c0.37722,3.52309 -2.41723,6.03988 -5.50908,6.86373c0.00736,0.07813 0.01112,0.15731 0.01112,0.23737c0,0.59805 -0.20999,1.14705 -0.56027,1.57729l-1.98756,2.48445l-0.44268,-0.35415l-0.42652,1.04567c-1.17559,-0.08987 -2.47835,0.16069 -3.69641,0.18453l-0.38656,0.06221c0,0 -0.36102,0 -0.80868,-0.13719z" fill="#ffe166" stroke-width="0.5"/><path d="M148.17849,260.86162c-2.32119,0.92848 -3.24967,-1.39272 -3.24967,-1.39272l-1,-2.5c0,0 -0.92848,-2.32119 1.39272,-3.24967c2.32119,-0.92848 3.24967,1.39272 3.24967,1.39272l1,2.5c0,0 0.92848,2.32119 -1.39272,3.24967z" fill="#ffe166" stroke-width="0.5"/><path d="M103.39551,254.73182c2.39227,2.1035 4.19281,5.01531 5.25831,8.62181c0,0 0.6868,2.40381 -1.71701,3.09061c-2.40381,0.6868 -3.09061,-1.71701 -3.09061,-1.71701c-0.12435,-0.45468 -0.26419,-0.89317 -0.4191,-1.31518c-0.57307,-0.23207 -0.94486,-0.60386 -0.94486,-0.60386l-0.73223,-0.76777c-1.68208,-2.2788 -2.08174,-3.77882 -3.66867,-4.98295c-2.21651,-1.13185 -4.9295,-1.50233 -8.02588,-1.03578c-4.32774,0.65208 -7.27573,3.11497 -11.09193,-0.7324c-1.06371,-1.0724 -4.56553,-7.3151 -3.2837,-9.15044c0.6085,-0.87125 6.45316,-1.37512 8.04294,-1.05332c3.17615,0.64291 5.45486,2.86387 8.1875,4.24044c1.78546,0.89943 3.80323,1.23415 5.69963,1.86699c2.19011,0.89292 4.0414,1.34346 5.6244,3.32675c0.0555,0.06953 0.10917,0.14027 0.16121,0.21211z" fill="#ffe166" stroke-width="0.5"/><path d="M137.45944,225.16872c2.37171,-0.79057 3.16228,1.58114 3.16228,1.58114l0.62829,2.29057c0,2.66667 0,5.33333 0,8c0,0 0,2.5 -2.5,2.5c-2.5,0 -2.5,-2.5 -2.5,-2.5c0,-2.66667 0,-5.33333 0,-8l-0.37171,-0.70943c0,0 -0.79057,-2.37171 1.58114,-3.16228z" fill="#ffe166" stroke-width="0.5"/><path d="M78.98224,221.77266c1.76777,-1.76777 3.53553,0 3.53553,0l-0.76777,0.26777c1,0 2,0 3,0c0,0 2.5,0 2.5,2.5c0,2.5 -2.5,2.5 -2.5,2.5c-1,0 -2,0 -3,0l-2.76777,-1.73223c0,0 -1.76777,-1.76777 0,-3.53553z" fill="#ffe166" stroke-width="0.5"/><path d="M174.75001,206.54043c0,-1.38071 1.11929,-2.5 2.5,-2.5c1.38071,0 2.5,1.11929 2.5,2.5c0,1.38071 -1.11929,2.5 -2.5,2.5c-1.38071,0 -2.5,-1.11929 -2.5,-2.5z" fill="#ffe166" stroke-width="0.5"/></g></g></svg>