<svg xmlns="http://www.w3.org/2000/svg" xmlns:xlink="http://www.w3.org/1999/xlink" version="1.1" width="275.2328" height="389.35778" viewBox="0,0,275.2328,389.35778"><g><g data-paper-data="{&quot;isPaintingLayer&quot;:true}" fill-rule="nonzero" stroke-linejoin="miter" stroke-miterlimit="10" stroke-dasharray="" stroke-dashoffset="0" style="mix-blend-mode: normal"><path d="M 253.0246 234.0154 C 253.0246 234.0154 200.2494 221.2854 179.4371 213.517 C 153.1981 203.7231 108.0647 179.908 108.0647 179.908 " data-paper-data="{&quot;index&quot;:null}" fill="none" stroke="#000000" stroke-width="4" stroke-linecap="round"/><path d="M 16.6775 381.454 C 16.6775 381.454 5.1751 381.9892 4.1408 377.0544 C 3.8405 375.6238 15.6735 353.5792 25.7271 328.4545 C 37.4144 299.247 47.5974 266.4775 47.5974 266.4775 " data-paper-data="{&quot;origRot&quot;:0,&quot;index&quot;:null}" fill="none" stroke="#000000" stroke-width="4" stroke-linecap="round"/><path d="M 72.1084 285.4169 C 72.1084 285.4169 94.529 316.41 95.1244 336.9302 C 95.7067 356.9989 56.5168 373.4077 57.1281 376.1243 C 58.2332 381.0436 67.9615 374.3148 67.9615 374.3148 " data-paper-data="{&quot;origRot&quot;:0,&quot;index&quot;:null}" fill="none" stroke="#000000" stroke-width="4" stroke-linecap="round"/><path d="M 103.7309 168.5401 C 112.0059 172.397 116.7998 182.4384 117.8593 195.5437 C 118.9197 208.6511 116.246 224.8217 109.5871 240.9373 C 102.9293 257.0541 93.5336 270.0917 83.7326 278.1371 C 73.9343 286.1807 63.7311 289.2314 55.4561 285.3744 C 47.181 281.5174 42.3869 271.4768 41.3274 258.3715 C 40.2662 245.2637 42.9406 229.0936 49.5988 212.9777 C 52.1336 206.8431 53.7923 203.4764 57.1938 197.7734 C 62.7388 188.4766 73.4277 178.0661 74.3479 177.2965 C 74.6546 177.04 75.1449 176.0319 75.454 175.7782 C 85.2524 167.7345 95.4558 164.6831 103.7309 168.54 Z " data-paper-data="{&quot;origRot&quot;:0,&quot;index&quot;:null}" fill="#080064" stroke="#000000" stroke-width="4" stroke-linecap="butt"/><g data-paper-data="{&quot;origRot&quot;:0}" stroke-linecap="round"><path d="M 125.5018 173.4339 L 82.4408 221.6684 L 90.5009 157.5672 Z " fill="#ffffff" stroke-width="4" stroke="#000000"/><path d="M 76.9434 230.1405 L 97.4894 181.6347 L 96.7353 167.3509 L 108.5163 171.6656 L 100.1341 182.6033 L 86.782 230.0896 L 77.3705 243.0865 Z " fill="#ac0000" stroke-width="4" stroke="#000000"/><path d="M 101.6201 180.4443 L 117.7662 175.342 L 110.1297 192.3363 Z " fill="#ffffff" stroke-width="4" stroke="#000000"/><path d="M 84.3387 183.6809 L 90.7753 168.3049 L 98.5309 180.1033 Z " fill="#ffffff" stroke-width="4" stroke="#000000"/></g><path d="M 83.321 368.9923 C 86.5247 371.0555 88.5872 373.9726 88.7463 377.2784 C 88.9054 380.5841 87.0585 384.3184 84.134 385.8908 C 78.7514 388.3107 74.438 389.4002 59.9223 386.6782 C 56.8506 384.998 54.6557 381.6895 54.4971 378.3922 C 54.3384 375.0949 56.114 372.0444 59.1094 369.7797 C 62.1048 367.5149 66.3216 366.0371 71.0467 365.8834 C 75.7718 365.7297 80.1173 366.9291 83.321 368.9923 Z " data-paper-data="{&quot;origRot&quot;:0,&quot;index&quot;:null}" fill="#000000" stroke="none" stroke-width="4" stroke-linecap="round"/><path d="M 30.0452 371.9097 C 32.8575 374.4068 34.4022 377.5498 34.0054 380.7695 C 33.6086 383.9891 31.1628 387.3078 28.0169 388.368 C 22.3061 389.8612 17.872 390.2366 4.0197 385.3261 C 1.2732 383.2199 -0.3363 379.6778 0.0594 376.4664 C 0.4552 373.255 2.7161 370.5859 6.0479 368.8677 C 9.3798 367.1495 13.7837 366.3838 18.467 366.9773 C 23.1502 367.571 27.2328 369.4126 30.0452 371.9097 Z " data-paper-data="{&quot;origRot&quot;:0,&quot;index&quot;:null}" fill="#000000" stroke="none" stroke-width="4" stroke-linecap="round"/><path d="M 194.4262 80.881 C 206.6742 95.1796 213.1435 113.3586 210.9202 132.0149 C 208.6977 150.6705 198.1992 166.3029 183.0331 176.4904 C 167.8671 186.6746 148.0353 191.413 127.1461 188.2798 C 106.2569 185.1458 88.231 174.73 75.9829 160.4321 C 63.7349 146.1326 57.2654 127.9545 59.488 109.2989 C 61.7113 90.6434 72.2099 75.0093 87.3759 64.8236 C 102.5419 54.6378 122.373 49.9 143.263 53.0333 C 164.1513 56.1674 182.1781 66.5839 194.4263 80.8809 Z " data-paper-data="{&quot;origRot&quot;:0,&quot;index&quot;:null}" fill="#ffa200" stroke="#000000" stroke-width="4" stroke-linecap="butt"/><path d="M 112.0855 171.9137 C 112.0855 171.9137 118.1741 171.6849 121.0386 172.5324 C 123.7477 173.3339 124.8386 176.6424 124.8386 176.6424 " fill="none" stroke="#000000" stroke-width="3" stroke-linecap="round"/><path d="M 79.2786 206.413 C 79.2786 206.413 48.746 183.2342 52.9121 176.406 C 60.0922 164.6378 83.8968 169.8046 83.8968 169.8046 " fill="none" stroke="#000000" stroke-width="4" stroke-linecap="round"/><g><path d="M 83.0767 209.2517 C 82.6846 213.4242 79.5481 216.5417 76.0711 216.215 C 72.594 215.8883 70.0932 212.241 70.4853 208.0685 C 70.8773 203.8961 74.0139 200.7785 77.4909 201.1052 C 80.9679 201.432 83.4688 205.0793 83.0767 209.2517 Z " fill="#000000" stroke-linecap="butt" stroke-width="6" stroke="#000000"/><path d="M 78.0308 211.8826 C 78.0308 211.8826 85.0025 213.4342 86.2613 214.1652 C 87.2632 214.747 84.9903 215.9239 84.9903 215.9239 L 76.596 215.1352 " fill="none" stroke-linecap="round" stroke-width="6" stroke="#000000"/><path d="M 79.396 206.3653 C 79.396 206.3653 86.3678 207.9169 87.6266 208.6479 C 88.6285 209.2297 86.3556 210.4066 86.3556 210.4066 L 77.9613 209.6179 " fill="none" stroke-linecap="round" stroke-width="6" stroke="#000000"/><path d="M 80.735 201.1278 C 80.735 201.1278 87.7068 202.6794 88.9655 203.4104 C 89.9674 203.9922 87.6946 205.1692 87.6946 205.1692 L 79.3002 204.3804 " fill="none" stroke-linecap="round" stroke-width="6" stroke="#000000"/><path d="M 75.5004 200.6111 C 75.5004 200.6111 82.6868 199.2261 84.0775 199.6559 C 85.1844 199.998 83.2336 201.655 83.2336 201.655 L 74.8763 202.77 " fill="none" stroke-linecap="round" stroke-width="6" stroke="#000000"/></g><g><path d="M 260.1188 232.4204 C 258.4567 239.979 252.003 244.9836 245.7042 243.5986 C 239.4054 242.2134 235.6465 234.9631 237.3087 227.4045 C 238.9708 219.8459 245.4245 214.8413 251.7233 216.2263 C 258.0221 217.6115 261.781 224.8618 260.1188 232.4204 Z " fill="#000000" stroke-linecap="butt" stroke-width="6" stroke="#000000"/><path d="M 250.2756 236.1014 C 250.2756 236.1014 262.7025 240.5217 264.8443 242.1461 C 266.549 243.4389 262.1172 245.0822 262.1172 245.0822 L 246.9104 241.7383 " fill="none" stroke-linecap="round" stroke-width="6" stroke="#000000"/><path d="M 254.0255 226.298 C 254.0255 226.298 266.4525 230.7183 268.5943 232.3427 C 270.299 233.6355 265.8672 235.2788 265.8672 235.2788 L 250.6604 231.9349 " fill="none" stroke-linecap="round" stroke-width="6" stroke="#000000"/><path d="M 257.664 217.0014 C 257.664 217.0014 270.091 221.4217 272.2328 223.0461 C 273.9375 224.3389 269.5057 225.9822 269.5057 225.9822 L 254.2989 222.6382 " fill="none" stroke-linecap="round" stroke-width="6" stroke="#000000"/><path d="M 248.492 213.0777 C 248.492 213.0777 261.8257 212.6783 264.2774 213.7807 C 266.2287 214.6581 262.2786 217.2539 262.2786 217.2539 L 246.7093 217.4075 " fill="none" stroke-linecap="round" stroke-width="6" stroke="#000000"/></g><g><path d="M 172.1798 88.3241 C 175.455 88.5063 179.0153 95.396 180.2431 100.0512 C 182.7915 109.6934 182.9208 119.684 182.411 129.2175 C 182.3884 137.9292 181.5375 146.6796 178.6579 154.3734 C 176.9974 158.8043 173.2126 165.349 169.9374 165.1669 C 166.6621 164.9846 163.8201 160.5141 161.874 153.4397 C 159.9289 146.3643 158.8787 136.685 159.188 126.085 C 159.4973 115.4852 161.1081 105.9539 163.4592 99.1174 C 165.8112 92.2823 168.9045 88.1418 172.1798 88.3241 Z " data-paper-data="{&quot;origRot&quot;:0,&quot;index&quot;:null}" fill="#000000" stroke="none" stroke-width="4" stroke-linecap="butt"/><path d="M 137.8304 87.0422 C 141.1057 87.2244 144.6659 94.1142 145.8937 98.7693 C 148.4421 108.4115 148.5714 118.4022 148.0616 127.9357 C 148.039 136.6473 147.1881 145.3978 144.3086 153.0916 C 142.648 157.5225 138.8632 164.0672 135.588 163.885 C 132.3128 163.7028 129.4707 159.2322 127.5246 152.1579 C 125.5795 145.0824 124.5293 135.4032 124.8386 124.8032 C 125.148 114.2033 126.7588 104.672 129.1098 97.8355 C 131.4618 91.0004 134.5551 86.86 137.8304 87.0423 Z " data-paper-data="{&quot;origRot&quot;:0,&quot;index&quot;:null}" fill="#000000" stroke="none" stroke-width="4" stroke-linecap="butt"/><path d="M 122.4125 97.208 L 123.1014 80.2036 L 182.9383 84.7431 L 182.2493 101.7475 C 182.2493 101.7475 167.557 106.6688 159.3122 106.0433 C 148.3798 105.2139 122.4125 97.208 122.4125 97.208 Z " fill="#ffa200" stroke="none" stroke-width="4" stroke-linecap="butt"/><path d="M 150.8649 107.8168 L 126.9941 96.9464 " fill="none" stroke="#000000" stroke-width="4" stroke-linecap="round"/><path d="M 182.204 101.1349 L 157.6013 108.3279 " data-paper-data="{&quot;index&quot;:null}" fill="none" stroke="#000000" stroke-width="4" stroke-linecap="round"/><path d="M 121.6779 164.8094 L 122.2228 151.3606 L 182.0596 155.9001 L 181.5147 169.3489 C 181.5147 169.3489 166.8734 173.0119 158.6286 172.3864 C 147.6962 171.557 121.6779 164.8094 121.6779 164.8094 Z " fill="#ffa200" stroke="none" stroke-width="4" stroke-linecap="butt"/><path d="M 147.4622 151.1611 L 122.4838 149.2661 " fill="none" stroke="#000000" stroke-width="3.5" stroke-linecap="round"/><path d="M 156.4543 151.8433 L 182.4318 153.8141 " fill="none" stroke="#000000" stroke-width="3.5" stroke-linecap="round"/></g><path d="M 57.8543 113.2175 C 55.2572 110.1769 50.2831 109.373 49.829 106.3304 C 48.3665 96.5194 51.7829 86.8947 52.7585 77.1905 C 53.059 74.2051 51.1366 69.9909 53.6598 68.225 C 61.451 62.7734 70.8211 57.9101 80.8886 57.5073 C 84.3703 57.3678 84.4191 63.9243 83.6677 67.0228 C 82.8382 70.4447 80.0993 73.7176 76.6318 75.0719 C 73.6913 76.2203 69.704 75.2298 66.8171 73.6047 C 63.7566 71.8814 61.5758 68.7859 60.132 65.7799 C 58.73 62.8585 58.6908 59.5635 58.5797 56.4467 C 58.473 53.4245 58.2555 50.2008 59.4809 47.4812 C 61.5388 42.9208 65.2193 39.1977 68.1944 35.1326 C 71.4682 30.6601 74.833 26.2261 78.2473 21.8469 C 81.9755 17.064 85.3656 11.9888 89.6393 7.6236 C 91.8875 5.3261 94.2476 2.332 97.6759 2 C 104.14 1.3709 110.7689 3.9568 117.3053 4.9346 C 120.574 5.423 124.3843 4.5554 127.1201 6.4017 C 130.0613 8.3859 131.183 12.0572 132.4658 15.1637 C 134.2114 19.3901 135.8217 23.799 136.1339 28.2258 C 136.3489 31.2748 135.5096 34.3971 134.006 37.0081 C 132.4005 39.7942 130.2457 42.7013 127.0828 43.9361 C 124.1202 45.0937 119.5694 45.8251 117.1555 43.5899 C 114.7416 41.354 115.3586 37.0693 116.83 34.4401 C 121.6506 25.8269 128.2367 18.0876 135.3704 11.0474 C 138.0697 8.3827 141.9673 6.7271 145.8613 5.7904 C 149.0001 5.0354 152.5182 5.4685 155.7885 6.1365 C 159.5275 6.9005 163.2531 8.1978 166.6041 10.0285 C 170.0338 11.9023 172.7332 14.7949 175.8568 17.0998 C 178.5253 19.0697 182.7203 19.9766 183.993 22.8665 C 186.0708 27.581 184.9649 32.841 184.9824 37.8034 C 184.9943 40.8222 185.987 44.4365 184.0812 46.769 C 182.1596 49.12 178.2333 49.3726 175.043 49.9687 C 171.3937 50.6489 163.8184 52.6337 163.7765 50.5596 C 163.7124 47.4999 169.8996 41.7815 174.83 39.6979 C 181.7059 36.7924 189.8415 36.4738 197.589 36.2748 C 200.8805 36.1908 204.313 37.3454 207.2912 38.8632 C 210.7748 40.6384 213.5323 43.5014 216.5424 45.9343 C 219.2871 48.1524 222.6787 49.9563 224.5667 52.8214 C 226.4412 55.6672 228.0972 59.2385 227.3456 62.3376 C 226.5162 65.7596 223.4814 68.5526 220.3108 70.3868 C 217.4389 72.0488 213.5387 71.651 210.1576 72.2821 C 206.7772 72.913 203.4998 74.1669 200.0052 74.1765 C 195.9127 74.1875 187.7839 74.6022 187.7362 72.3425 C 187.6762 69.4669 195.1676 65.8355 199.7922 63.9064 C 202.7876 62.657 206.4492 62.953 209.8321 63.1322 C 214.3444 63.3715 218.8333 64.4776 223.3279 65.1494 C 226.5956 65.6387 230.7339 64.4095 233.1418 66.6166 C 236.5072 69.7022 236.1264 74.825 238.1499 78.7417 C 239.96 82.2434 243.118 85.1971 244.6099 88.808 C 245.8394 91.7852 246.051 95.0235 246.1622 98.1402 C 246.2689 101.1633 246.8462 104.5669 245.2609 107.1067 C 243.1552 110.4817 239.0186 112.3234 235.7717 114.7884 C 233.1786 116.7566 230.9014 119.2912 227.7343 120.4128 C 224.656 121.5015 221.0633 121.6904 217.6945 121.187 C 214.3248 120.6834 210.8755 119.4421 208.1049 117.4775 C 205.2539 115.4573 203.5372 112.3313 201.4198 109.6534 C 199.1192 106.7433 197.1479 103.6176 194.8472 100.7074 C 192.7299 98.0295 190.4862 95.4178 188.1621 92.8825 C 185.2507 89.707 182.5597 86.2767 179.136 83.57 C 174.8147 80.1544 169.5302 77.924 165.0904 74.6445 C 161.7799 72.2016 159.3917 68.7315 155.951 66.453 C 151.9239 63.7861 147.4186 61.7562 142.9063 59.9531 C 139.799 58.7113 136.5116 57.6689 133.2042 57.3647 C 129.8223 57.0535 126.3755 57.3662 123.1643 58.1388 C 119.4915 59.0218 116.2108 60.8397 112.786 62.2755 C 107.5511 64.4698 102.1458 66.4304 97.1632 69.0406 C 94.2314 70.5755 91.7405 72.7221 89.1258 74.6642 C 83.6724 78.7145 78.1466 82.7236 72.9393 87.0332 C 69.9959 89.4689 67.0073 91.9461 64.6769 94.8982 C 62.6859 97.4227 61.252 100.3473 60.0946 103.3147 C 59.0026 106.1143 58.6754 109.1722 57.9667 112.0962 C 57.7895 112.8285 58.6444 112.5766 57.9667 112.0962 Z " data-paper-data="{&quot;origRot&quot;:0,&quot;index&quot;:null}" fill="#000000" stroke="#000000" stroke-width="4" stroke-linecap="round"/></g></g></svg>