<svg version="1.1" xmlns="http://www.w3.org/2000/svg" xmlns:xlink="http://www.w3.org/1999/xlink" width="283.65939" height="299.52737" viewBox="0,0,283.65939,299.52737"><g transform="translate(-92.40755,-110.67689)"><g data-paper-data="{&quot;isPaintingLayer&quot;:true}" fill-rule="nonzero" stroke-linecap="butt" stroke-linejoin="miter" stroke-miterlimit="10" stroke-dasharray="" stroke-dashoffset="0" style="mix-blend-mode: normal"><path d="M340.1477,313.29325c-0.14444,10.1667 -19.49041,15.25355 -43.21038,11.36188c-23.71995,-3.89157 -42.83161,-15.28817 -42.68715,-25.45477c0.14455,-10.16662 19.49053,-15.25347 43.21048,-11.3619c23.71987,3.89169 42.83161,15.28817 42.68715,25.45477z" data-paper-data="{&quot;origRot&quot;:0,&quot;index&quot;:null}" fill="#1f0f03" stroke="#000000" stroke-width="1"/><path d="M182.10607,317.37856c10.56368,1.46517 10.71749,31.28939 6.74451,44.81813c-3.97296,13.52884 -12.49774,9.55074 -23.06142,8.08557c-10.56368,-1.46517 -19.16599,0.13746 -15.19291,-13.39129c3.97296,-13.52884 20.94616,-40.97747 31.50982,-39.5124z" data-paper-data="{&quot;origRot&quot;:0,&quot;index&quot;:null}" fill="#5ef3a3" stroke="#2abc90" stroke-width="2.5"/><path d="M176.14989,319.64222c6.28047,7.03465 -17.19755,30.86514 -30.69453,39.42922c-13.49708,8.5641 -16.3544,0.66128 -22.63497,-6.37335c-6.28047,-7.03465 -13.6059,-10.53738 -0.10882,-19.10147c13.49708,-8.5641 47.15783,-20.98914 53.43832,-13.95439z" data-paper-data="{&quot;origRot&quot;:0,&quot;index&quot;:null}" fill="#5ef3a3" stroke="#2abc90" stroke-width="2.5"/><g data-paper-data="{&quot;index&quot;:null}" stroke-width="1"><path d="M372.13937,382.44755l-58.13403,5.5519l-8.12388,-33.88382l53.64004,-24.29613z" data-paper-data="{&quot;origPos&quot;:null}" fill="#1f0f03" stroke="#000000"/><g data-paper-data="{&quot;origPos&quot;:null}" fill="#000000" stroke="none" font-family="sans-serif" font-weight="normal" font-size="12" text-anchor="start"/></g><g data-paper-data="{&quot;index&quot;:null}" stroke-width="1"><path d="M280.74506,404.8992l-58.20336,4.77124l-7.66843,-33.98978l53.96127,-23.57412z" data-paper-data="{&quot;origPos&quot;:null}" fill="#1f0f03" stroke="#000000"/><g data-paper-data="{&quot;origPos&quot;:null}" fill="#000000" stroke="none" font-family="sans-serif" font-weight="normal" font-size="12" text-anchor="start"/></g><path d="M166.30792,406.34689l24.80817,-93.35498l83.87151,-17.64855l57.8215,77.78772z" data-paper-data="{&quot;index&quot;:null}" fill="#1f0f03" stroke="#000000" stroke-width="1"/><path d="M311.86368,223.14427c3.34599,84.08538 -30.65981,59.89113 -46.06299,59.41535c-15.403,-0.47592 -31.56805,-45.07953 -30.657,-74.56534c0.91104,-29.48592 14.13627,-53.00329 29.53938,-52.52729c15.40309,0.4759 46.9304,26.06126 47.18058,67.67719z" data-paper-data="{&quot;origRot&quot;:0,&quot;origPos&quot;:null,&quot;index&quot;:null}" fill="#d6bbff" stroke="#9d85c1" stroke-width="1"/><path d="M93.52659,257.16009c-5.92761,-51.5818 32.31795,-71.81038 46.30009,-71.09842c13.98221,0.71184 29.33518,45.45023 28.96269,74.84669c-0.37249,29.39646 9.91738,48.19997 -4.06485,47.48803c-13.98211,-0.71186 -61.679,-11.1597 -71.19793,-51.2363z" data-paper-data="{&quot;origRot&quot;:0,&quot;origPos&quot;:null}" fill="#d6bbff" stroke="#9d85c1" stroke-width="1"/><path d="M140.4538,262.75879c-13.65289,-45.60807 10.49909,-93.1238 53.94493,-106.12939c43.44593,-13.0056 89.7336,13.42392 103.38637,59.03191c13.65289,45.60807 -10.49898,93.12388 -53.94491,106.12949c-43.44583,13.00559 -89.7335,-13.42394 -103.38637,-59.03191z" data-paper-data="{&quot;origPos&quot;:null,&quot;origRot&quot;:0}" fill="#d6bbff" stroke="#9d85c1" stroke-width="1"/><path d="M226.71283,231.21663c-3.03042,-10.12336 2.54851,-20.7354 12.46092,-23.70268c9.91238,-2.96738 20.4047,2.83377 23.43512,12.95713c3.03041,10.12326 -2.54853,20.7353 -12.46093,23.70258c-9.9124,2.96728 -20.4047,-2.83377 -23.4351,-12.95703z" data-paper-data="{&quot;origPos&quot;:null,&quot;origRot&quot;:0}" fill="#ffffff" stroke="none" stroke-width="1"/><path d="M240.30842,223.57677c-1.57834,-5.27254 1.24542,-10.77516 6.3071,-12.29037c5.06168,-1.51521 10.44437,1.5308 12.02281,6.80331c1.57834,5.27254 -1.24542,10.77516 -6.3071,12.29037c-5.06168,1.51521 -10.44447,-1.53078 -12.02279,-6.80322z" data-paper-data="{&quot;origRot&quot;:0}" fill="#ffffff" stroke="none" stroke-width="1"/><path d="M263.80614,239.48635c1.32493,-3.43457 7.86585,-5.3518 14.60944,-4.28232c6.7436,1.06958 11.13636,4.72093 9.81133,8.15552c-1.32493,3.43457 -7.86574,5.35188 -14.60934,4.2823c-6.7437,-1.06956 -11.13636,-4.72093 -9.81152,-8.15549z" data-paper-data="{&quot;origPos&quot;:null,&quot;origRot&quot;:0}" fill="#ffc0bb" stroke="none" stroke-width="1"/><path d="M134.42141,260.16071c-3.2023,-18.96642 5.05346,-66.95001 13.52184,-68.36633c8.4683,-1.4162 13.94244,44.27095 17.14474,63.23736c3.20238,18.9663 10.662,48.95425 2.19361,50.37057c-8.46828,1.4163 -29.6577,-26.27522 -32.8601,-45.24162z" data-paper-data="{&quot;origRot&quot;:0,&quot;origPos&quot;:null}" fill="#d6bbff" stroke="none" stroke-width="1"/><path d="M165.20323,260.95887c1.61507,-3.52139 9.03313,-5.70125 16.56863,-4.86878c7.53561,0.83255 12.33514,4.36209 10.72009,7.88358c-1.61507,3.52139 -9.03304,5.70124 -16.56863,4.86878c-7.53561,-0.83255 -12.33514,-4.36209 -10.72007,-7.88348z" data-paper-data="{&quot;origPos&quot;:null,&quot;origRot&quot;:0}" fill="#ffc0bb" stroke="none" stroke-width="1"/><path d="M184.0333,220.69165c9.9124,-2.96728 20.4047,2.83377 23.4351,12.95703c3.03052,10.12334 -2.54843,20.73528 -12.46093,23.70258c-9.91238,2.96738 -20.40458,-2.83369 -23.4351,-12.95703c-3.03042,-10.12336 2.54851,-20.7354 12.46092,-23.70268z" data-paper-data="{&quot;origPos&quot;:null,&quot;origRot&quot;:0}" fill="#ffffff" stroke="none" stroke-width="1"/><path d="M185.43173,237.00069c-1.57836,-5.27264 1.24542,-10.77516 6.3071,-12.29037c5.06168,-1.51521 10.44445,1.53068 12.02281,6.80331c1.57834,5.27254 -1.24542,10.77516 -6.30712,12.29027c-5.06168,1.51521 -10.44445,-1.53068 -12.02279,-6.80322z" data-paper-data="{&quot;origRot&quot;:0}" fill="#ffffff" stroke="none" stroke-width="1"/><path d="M151.02531,218.14786c-2.80243,9.84077 -6.58814,28.01158 -4.99792,37.72764c0.91429,5.58651 12.28336,32.80285 -4.04932,35.87987c-6.9518,1.3097 -11.12622,-3.02082 -12.40504,-8.4719c-6.00346,-25.59083 -1.79311,-37.63973 -0.37729,-61.02565c0.24654,-4.07112 2.20008,-21.57267 7.55318,-22.20375c1.24915,-0.92547 2.7217,-1.58988 4.35192,-1.89701c5.76498,-1.0861 11.31894,2.70691 12.40504,8.4719c1.91801,1.38952 -1.78489,9.07565 -2.48058,11.51889z" fill="#d6bbff" stroke="none" stroke-width="0.5"/><path d="M146.15936,184.1507l-17.81346,5.69839l-0.3992,-4.72884l-17.07687,-26.92263l36.65389,-5.04847c0,0 11.233,-4.62513 17.51446,-9.28555c4.26381,-3.16359 9.50648,-10.76249 9.50648,-10.76249c0,0 6.96074,1.93209 8.28145,5.88573c0.73092,2.188 -3.02453,9.85127 -3.02453,9.85127l14.61506,-11.88347c0,0 4.83256,-8.85539 10.59643,-8.92491c5.76389,-0.06943 16.90767,8.59338 16.90767,8.59338l2.05912,-9.55755l4.20543,3.31492l1.93639,-4.94591l39.20391,-12.96229c0,0 5.36983,8.66208 2.70449,14.09008c-2.66522,5.42808 -13.31891,7.52698 -13.31891,7.52698c0,0 11.11907,-2.29475 17.3329,-4.40231c7.27544,-2.46753 17.2317,-7.32093 17.2317,-7.32093l1.0531,16.56582l27.69951,-18.02723c0,0 6.46814,23.59418 2.6563,36.97523c-3.99534,14.02526 -13.85575,22.4986 -30.06671,32.23664c-4.61229,2.77061 -5.6668,7.90572 -5.6668,7.90572l-22.74127,-9.74791c0,0 -13.81464,10.50983 -23.56519,12.503c-9.75047,1.99305 -18.54964,-6.67472 -18.54964,-6.67472c0,0 -6.20218,8.8406 -15.01991,10.17478c-8.81773,1.33418 -24.471,-1.19612 -24.471,-1.19612c0,0 -6.22353,7.83009 -10.88543,9.81399c-4.66188,1.984 -30.80757,7.92928 -30.80757,7.92928c0,0 1.59398,-3.52261 3.05647,-7.22681c1.58922,-4.02481 -10.63395,-0.34195 -10.63395,-0.34195z" data-paper-data="{&quot;index&quot;:null,&quot;origRot&quot;:0}" fill="#5ef3a3" stroke="#2abc90" stroke-width="3"/><path d="M292.26229,300.12112c-0.19204,4.07897 11.38502,2.41544 4.31555,8.35933c-4.08283,3.43284 -8.12428,3.10938 -13.5096,4.68323c-16.15617,4.72147 -61.34367,17.14556 -101.66717,21.71676c-12.58105,1.42621 0.87165,-3.91496 0.14103,-7.71366c-0.7942,-4.12915 -21.04544,1.61222 -6.7422,-10.27519c4.9025,-4.07449 75.47034,-23.18558 119.38345,-26.71618c18.72621,-1.50549 -1.69091,5.06064 -1.92097,9.94569z" data-paper-data="{&quot;origPos&quot;:null}" fill="#5ef3a3" stroke="#2abc90" stroke-width="2.5"/><g data-paper-data="{&quot;origPos&quot;:null,&quot;origRot&quot;:0}" fill="#d6bbff" stroke-width="1"><path d="M308.2346,271.89963c9.1043,20.1281 6.69428,35.35198 -32.1078,36.85365c-14.77981,0.57202 -42.46474,-11.85982 -53.72104,-20.32966c-11.2564,-8.46982 -16.1794,-32.26697 -16.1794,-32.26697l30.18826,-9.12947c0,0 8.48507,23.81112 22.45923,23.58249c16.72428,-0.27356 40.25656,-18.83816 49.36076,1.28996z" data-paper-data="{&quot;origPos&quot;:null,&quot;origRot&quot;:0}" stroke="#9d85c1"/><path d="M217.62459,272.74892l-12.63838,-20.16148l28.89658,-7.70541l9.57918,20.10417z" data-paper-data="{&quot;origRot&quot;:0,&quot;origPos&quot;:null}" stroke="none"/></g><g><path d="M369.97383,284.40046l-2.31767,-12.30208l4.34133,-0.81789l2.31767,12.30208z" fill="#ff9000" stroke="#d15600" stroke-width="3"/><path d="M316.91775,318.40368l-7.22045,-38.32578l58.60797,-11.04155l3.38737,17.98l-42.33749,8.46621l3.5466,19.90978z" fill="#00a2ff" stroke="#006bd2" stroke-width="3"/><text transform="translate(318.00281,290.53997) rotate(-10.66928) scale(0.14293,0.17136) skewX(0)" font-size="40" xml:space="preserve" fill="#006bd2" fill-rule="nonzero" stroke="none" stroke-width="1" stroke-linecap="butt" stroke-linejoin="miter" stroke-miterlimit="10" stroke-dasharray="" stroke-dashoffset="0" font-family="Marker" font-weight="normal" text-anchor="start" style="mix-blend-mode: normal"><tspan x="0" dy="0">blaster</tspan></text></g><path d="M154.71597,193.43982c10.16701,-0.11266 21.50379,19.03446 25.32132,42.76646c3.81753,23.732 25.38098,101.12042 6.36949,102.89946c-26.50282,5.22556 -39.37008,-78.75921 -43.18761,-102.49121c-3.81751,-23.7319 1.32972,-43.06193 11.4968,-43.17471z" data-paper-data="{&quot;origRot&quot;:0,&quot;index&quot;:null}" fill="#1f0f03" stroke="#000000" stroke-width="1"/></g></g></svg>