<svg version="1.1" xmlns="http://www.w3.org/2000/svg" xmlns:xlink="http://www.w3.org/1999/xlink" width="903" height="692" viewBox="0,0,903,692"><g transform="translate(431.5,279.28334)"><g data-paper-data="{&quot;isPaintingLayer&quot;:true}" fill-rule="nonzero" stroke="none" stroke-width="0" stroke-linecap="butt" stroke-linejoin="miter" stroke-miterlimit="10" stroke-dasharray="" stroke-dashoffset="0" style="mix-blend-mode: normal"><path d="" fill="#6f3615"/><path d="" fill="#6f3615"/><path d="" fill="#6f3615"/><path d="" fill="#6f3615"/><path d="" fill="#6f3615"/><path d="" fill="#6f3615"/><path d="" fill="#6f3615"/><path d="" fill="#6f3615"/><path d="" fill="#6f3615"/><path d="" fill="#6f3615"/><path d="" fill="#6f3615"/><path d="M123.72025,405v-217.04258h113.11488v217.04258z" fill="#c47f14"/><path d="" fill="#6f3615"/><path d="" fill="#6f3615"/><path d="" fill="#6f3615"/><path d="" fill="#6f3615"/><path d="" fill="#6f3615"/><path d="" fill="#6f3615"/><path d="" fill="#6f3615"/><path d="" fill="#6f3615"/><path d="" fill="#6f3615"/><path d="" fill="#6f3615"/><path d="" fill="#6f3615"/><path d="M301.5,412.71666v-251h82v251z" fill="#c47f14"/><path d="M401.5,405v-269.28334h21v269.28334z" fill="#c47f14"/><path d="M450.5,375v-269.28334h21v269.28334z" fill="#c47f14"/><path d="M309.5,89.71666v-25h83v25z" fill="#c47f14"/><path d="M172.5,58.71666v-25h83v25z" fill="#c47f14"/><path d="M109.5,397.71666v-332h22v332z" fill="#c47f14"/><path d="M42.5,116.71666v-195h26v195z" fill="#c47f14"/><path d="M95.5,29.71666v-164h26v164z" fill="#c47f14"/><path d="M-75.5,-109.28334v-93h197v93z" fill="#c47f14"/><path d="M-431.5,110.71666v-390h382v390z" fill="#c47f14"/><path d="M-250.5,143.71666v-41h319v41z" fill="#c47f14"/></g></g></svg>