<svg version="1.1" xmlns="http://www.w3.org/2000/svg" xmlns:xlink="http://www.w3.org/1999/xlink" width="228.5" height="310.89107" viewBox="0,0,228.5,310.89107"><g transform="translate(-272.25,-186.66986)"><g data-paper-data="{&quot;isPaintingLayer&quot;:true}" fill-rule="nonzero" stroke-linejoin="miter" stroke-miterlimit="10" stroke-dasharray="" stroke-dashoffset="0" style="mix-blend-mode: normal"><path d="M272.25,389.0411l28.5,-120l200,-19.5v139.5z" fill="#4db494" stroke="none" stroke-width="NaN" stroke-linecap="butt"/><path d="M339.32668,355.65847c0,0 38.39304,-0.11942 43.14234,-8.38867c6.32206,-11.00764 -8.56014,-51.82408 -8.56014,-51.82408" data-paper-data="{&quot;origRot&quot;:0,&quot;index&quot;:null}" fill="none" stroke="#000000" stroke-width="9" stroke-linecap="round"/><path d="M374.20097,296.56382c0,0 -39.97033,29.14736 -50.32296,37.37012c-6.9513,5.5212 15.2385,-0.4907 15.2385,-0.4907" data-paper-data="{&quot;origRot&quot;:0,&quot;index&quot;:null}" fill="none" stroke="#000000" stroke-width="9" stroke-linecap="round"/><path d="M374.17867,292.11579l0.94826,80.63968" data-paper-data="{&quot;origRot&quot;:0,&quot;index&quot;:null}" id="ID0.8172772801481187" fill="none" stroke="#000000" stroke-width="9" stroke-linecap="round"/><path d="M375.32016,373.8605l-13.42337,117.57801l-13.22864,-0.26464" data-paper-data="{&quot;origRot&quot;:0,&quot;index&quot;:null}" id="ID0.7014842056669295" fill="none" stroke="#000000" stroke-width="9" stroke-linecap="round"/><path d="M375.50241,373.86052l12.47985,117.57802l-12.24641,1.62239" data-paper-data="{&quot;origRot&quot;:0,&quot;index&quot;:null}" id="ID0.7014842056669295" fill="none" stroke="#000000" stroke-width="9" stroke-linecap="round"/><path d="M421.92926,266.03653c0,25.96201 -21.55146,47.00837 -48.13656,47.00837c-26.58508,0 -48.13656,-21.04637 -48.13656,-47.00837c0,-25.96201 21.55146,-47.00837 48.13656,-47.00837c26.58508,0 48.13656,21.04637 48.13656,47.00837z" data-paper-data="{&quot;index&quot;:null}" fill="#dbe6e9" stroke="#000000" stroke-width="9" stroke-linecap="butt"/><path d="M410.64726,268.67497c0,22.84657 -18.35242,41.36736 -40.99129,41.36736c-22.63887,0 -40.99129,-18.5208 -40.99129,-41.36736c0,-22.84657 18.35242,-41.36736 40.99129,-41.36736c22.63887,0 40.99129,18.5208 40.99129,41.36736z" data-paper-data="{&quot;index&quot;:null}" fill="#ffffff" stroke="none" stroke-width="0" stroke-linecap="butt"/><path d="M386.88445,291.83248c0,0 -1.79339,1.45136 -3.52498,1.79657c-2.35729,0.46995 -6.95228,0.29217 -6.95228,0.29217" data-paper-data="{&quot;index&quot;:null}" id="ID0.6053896984085441" fill="none" stroke="#000000" stroke-width="2" stroke-linecap="round"/><path d="M443.13757,277.88308c0,0 -9.5089,-2.71334 -8.25849,1.13977c1.15078,3.54612 2.4029,6.90314 2.4029,6.90314c0,0 -20.33203,-3.89627 -23.96099,-5.50297c-3.62896,-1.60671 -8.49421,-8.86648 -8.49421,-8.86648c0,0 -12.14848,3.67868 -19.00284,3.02691c-6.85437,-0.65177 -11.70707,-8.91066 -11.70707,-8.91066c0,0 -6.80012,9.22004 -14.38165,7.98817c-7.58153,-1.23186 -18.35374,-10.56422 -18.35374,-10.56422l-17.62526,11.33804c0,0 -0.83952,-4.98937 -4.4331,-7.3764c-12.63044,-8.38972 -20.32315,-16.01011 -23.48235,-29.55341c-3.01408,-12.92115 1.91601,-36.69969 1.91601,-36.69969l21.58707,15.70555l0.752,-16.43204c0,0 7.75276,4.03977 13.41364,5.92671c4.83498,1.61164 13.48068,3.03795 13.48068,3.03795c0,0 -8.28343,-1.26814 -10.37527,-6.42523c-2.09184,-5.1571 2.04457,-14.1128 2.04457,-14.1128l30.50286,9.83781l1.52376,4.73621l3.25329,-3.58948l1.6375,9.27918c0,0 8.62132,-9.39208 13.09862,-9.75833c4.4773,-0.36627 8.26615,8.01061 8.26615,8.01061l11.39943,10.62786c0,0 -2.9475,-7.28135 -2.38852,-9.49624c1.0101,-4.00239 6.40907,-6.43478 6.40907,-6.43478c0,0 4.10246,7.10562 7.42697,9.90677c4.89757,4.12657 13.64108,7.84467 13.64108,7.84467l28.49062,2.21828l-13.15701,27.86441l-0.2913,4.69802l-13.8591,-4.2811z" data-paper-data="{&quot;index&quot;:null,&quot;origRot&quot;:0}" fill="#5ef3a3" stroke="#2abc90" stroke-width="3" stroke-linecap="butt"/><path d="M354.59967,262.90135c1.92264,0 3.48124,5.03229 3.48124,11.23994c0,6.20766 -1.5586,11.23994 -3.48124,11.23994c-1.92264,0 -3.48123,-5.03229 -3.48123,-11.23994c0,-6.20765 1.55859,-11.23994 3.48123,-11.23994z" data-paper-data="{&quot;index&quot;:null}" fill="#000000" stroke="#000000" stroke-width="2" stroke-linecap="butt"/><path d="M371.01531,262.90135c1.92264,0 3.48124,5.03229 3.48124,11.23994c0,6.20766 -1.5586,11.23994 -3.48124,11.23994c-1.92263,0 -3.48123,-5.03229 -3.48123,-11.23994c0,-6.20765 1.55859,-11.23994 3.48123,-11.23994z" data-paper-data="{&quot;index&quot;:null}" fill="#000000" stroke="#000000" stroke-width="2" stroke-linecap="butt"/><g data-paper-data="{&quot;index&quot;:null}" fill="#5ef3a3" stroke="#2abc90" stroke-width="2.5" stroke-linecap="butt"><path d="M346.46295,318.53667c-0.69563,-2.7454 -11.04405,-3.74797 -2.09629,-5.39527c20.98255,-3.86294 56.31853,-2.43412 59.10395,-0.7739c8.12664,4.84378 -2.04484,4.28772 -1.91969,6.74043c0.11514,2.25638 7.05577,3.49371 0.9944,4.36474c-19.42739,2.79175 -42.07686,1.77089 -50.20852,1.24709c-2.71056,-0.17461 -4.56359,0.54936 -6.88808,-0.85576c-4.0249,-2.43299 1.59505,-3.03498 1.01422,-5.32732z" data-paper-data="{&quot;origPos&quot;:null}"/><path d="M418.44445,345.96529c3.48814,7.15724 -0.73187,7.39628 -5.50085,9.64082c-4.76898,2.24453 -8.28102,5.64461 -11.76916,-1.51262c-3.48814,-7.15724 -7.0055,-24.12659 -2.23652,-26.37113c4.76898,-2.24454 16.01839,11.08571 19.50653,18.24294z" data-paper-data="{&quot;origPos&quot;:null,&quot;origRot&quot;:0,&quot;index&quot;:null}"/><path d="M408.07942,324.37365c2.09355,-4.83717 19.34697,-2.27518 26.69624,0.78774c7.34927,3.06291 4.3415,6.03258 2.24796,10.86974c-2.09354,4.83717 -2.48007,9.71011 -9.82934,6.6472c-7.34927,-3.06291 -21.20839,-13.46751 -19.11485,-18.30468z" data-paper-data="{&quot;origPos&quot;:null,&quot;origRot&quot;:0,&quot;index&quot;:null}"/></g></g></g></svg>