<svg version="1.1" xmlns="http://www.w3.org/2000/svg" xmlns:xlink="http://www.w3.org/1999/xlink" width="1254" height="756.85327" viewBox="0,0,1254,756.85327"><defs><linearGradient x1="-52.08258" y1="101.86977" x2="-154.08258" y2="101.86977" gradientUnits="userSpaceOnUse" id="color-1"><stop offset="0" stop-color="#430a3b"/><stop offset="1" stop-color="#430a3b" stop-opacity="0"/></linearGradient><linearGradient x1="533.5" y1="78.85175" x2="635.5" y2="78.85175" gradientUnits="userSpaceOnUse" id="color-2"><stop offset="0" stop-color="#430a3b"/><stop offset="1" stop-color="#430a3b" stop-opacity="0"/></linearGradient></defs><g transform="translate(389.5,223.22412)"><g data-paper-data="{&quot;isPaintingLayer&quot;:true}" fill-rule="nonzero" stroke="none" stroke-width="0" stroke-linejoin="miter" stroke-miterlimit="10" stroke-dasharray="" stroke-dashoffset="0" style="mix-blend-mode: normal"><path d="M-154.08258,403.94564v-604.15174h102v604.15174z" data-paper-data="{&quot;index&quot;:null}" fill="url(#color-1)" stroke-linecap="butt"/><path d="M533.5,380.92762v-604.15174h102v604.15174z" fill="url(#color-2)" stroke-linecap="butt"/><path d="M186.5,367.96666v-161h107v161z" fill="#8a6630" stroke-linecap="butt"/><path d="M364.5,369.96666v-81h107v81z" fill="#8a6630" stroke-linecap="butt"/><path d="M9.5,363.96666v-81h107v81z" fill="#8a6630" stroke-linecap="butt"/><path d="M6.25,289.85833v-10.5h116v10.5l-11.70182,18.72215c0,0 -3.86373,-8.43381 -7.21518,-11.81948c-3.24755,-3.28071 -12.59164,-8.18958 -12.59164,-8.18958c0,0 -3.06926,7.85095 -5.60048,11.09217c-2.90907,3.72507 -10.8786,10.00931 -10.8786,10.00931c0,0 -0.52928,-6.69085 -5.42746,-11.42028c-4.83516,-4.66858 -17.74755,-7.32059 -17.74755,-7.32059c0,0 -5.48953,3.36291 -7.99865,5.79241c-3.45291,3.34333 -10.80691,12.41633 -10.80691,12.41633c0,0 -3.23373,-5.06011 -4.01401,-7.78752c-0.67972,-2.37589 -0.40774,-7.66836 -0.40774,-7.66836c0,0 -7.37576,2.36622 -10.83568,4.19296c-3.86511,2.04067 -8.27429,7.98047 -8.27429,7.98047z" fill="#bf9c51" stroke-linecap="butt"/><path d="M-389.5,533.62915v-177h1254v177z" fill="#bf9c51" stroke-linecap="butt"/><path d="M-52.5,357.02521l74,-16l-14,8l44,-8l-18,18" fill="#bf9c51" stroke-linecap="round"/><path d="M82.5,360.02521l68,-15l-6,7l44,-17l-14,13l32,-2l-15,14" fill="#bf9c51" stroke-linecap="round"/><path d="M378.5,361.02522l68,-15l-6,7l44,-17l-14,13l32,-2l-15,14" fill="#bf9c51" stroke-linecap="round"/><path d="M244.5,357.02522l74,-16l-14,8l44,-8l-18,18" fill="#bf9c51" stroke-linecap="round"/><path d="M470.75,307.35833c0,0 -3.90918,-6.93981 -7.77429,-8.98048c-3.45991,-1.82673 -10.83568,-4.19295 -10.83568,-4.19295c0,0 0.27197,5.29246 -0.40774,7.66836c-0.78028,2.72741 -4.014,7.78752 -4.014,7.78752c0,0 -7.354,-9.073 -10.80692,-12.41633c-2.50913,-2.42949 -7.99865,-5.79241 -7.99865,-5.79241c0,0 -12.91239,2.65201 -17.74755,7.32059c-4.89817,4.72942 -5.42746,11.42028 -5.42746,11.42028c0,0 -7.96952,-6.28424 -10.8786,-10.00932c-2.53121,-3.24122 -5.60047,-11.09217 -5.60047,-11.09217c0,0 -9.34409,4.90887 -12.59165,8.18959c-3.35145,3.38567 -7.21518,11.81948 -7.21518,11.81948l-11.70182,-18.72215v-10.5h116v10.5z" data-paper-data="{&quot;index&quot;:null}" fill="#bf9c51" stroke-linecap="butt"/><path d="M189.25,238.35833c0,0 -6.27841,-10.75769 -7.68389,-16.95832c-1.42751,-6.29785 -0.81611,-20.54168 -0.81611,-20.54168h118c0,0 -0.70913,15.01322 -1.93953,21.60462c-1.08447,5.80964 -5.06047,15.89538 -5.06047,15.89538c0,0 -8.04467,-7.5037 -10.6416,-11.72071c-2.38237,-3.86861 -4.35187,-12.6264 -4.35187,-12.6264c0,0 -2.06747,7.10079 -4.74087,10.67166c-3.31829,4.43225 -13.65555,13.9005 -13.65555,13.9005c0,0 -1.44346,-10.27647 -4.38371,-14.00956c-3.73347,-4.7402 -16.21124,-12.13883 -16.21124,-12.13883c0,0 -2.55607,10.03226 -4.35721,14.48719c-1.54212,3.81427 -5.7937,10.62001 -5.7937,10.62001c0,0 -5.83167,-3.14832 -8.6622,-6.51248c-4.12074,-4.89762 -13.67972,-20.04155 -13.67972,-20.04155c0,0 -4.55718,5.07655 -6.74993,8.82233c-2.93086,5.00664 -9.2724,18.54784 -9.2724,18.54784z" fill="#bf9c51" stroke-linecap="butt"/></g></g></svg>