<svg version="1.1" xmlns="http://www.w3.org/2000/svg" xmlns:xlink="http://www.w3.org/1999/xlink" width="256.06879" height="352.96195" viewBox="0,0,256.06879,352.96195"><defs><radialGradient cx="240.53994" cy="227.53463" r="142.93744" gradientUnits="userSpaceOnUse" id="color-1"><stop offset="0" stop-color="#3f00ff"/><stop offset="1" stop-color="#3f00ff" stop-opacity="0"/></radialGradient><linearGradient x1="245.04804" y1="145.10362" x2="246.0875" y2="161.00952" gradientUnits="userSpaceOnUse" id="color-2"><stop offset="0" stop-color="#1f007b"/><stop offset="1" stop-color="#000304"/></linearGradient><linearGradient x1="268.73092" y1="142.32543" x2="269.77038" y2="158.23134" gradientUnits="userSpaceOnUse" id="color-3"><stop offset="0" stop-color="#1f007b"/><stop offset="1" stop-color="#000304"/></linearGradient></defs><g transform="translate(-123.64726,-49.83452)"><g data-paper-data="{&quot;isPaintingLayer&quot;:true}" fill-rule="nonzero" stroke-linejoin="miter" stroke-miterlimit="10" stroke-dasharray="" stroke-dashoffset="0" style="mix-blend-mode: normal"><path d="M162.38594,277.46491c-42.50075,-66.52482 -41.96368,-142.8084 1.19958,-170.38414c43.16327,-27.57574 112.60767,3.99874 155.10842,70.52356c42.50075,66.52482 41.96368,142.8084 -1.19958,170.38414c-43.16327,27.57574 -112.60767,-3.99874 -155.10842,-70.52356z" data-paper-data="{&quot;origRot&quot;:0,&quot;index&quot;:null}" fill="url(#color-1)" stroke="none" stroke-width="0" stroke-linecap="butt"/><g data-paper-data="{&quot;index&quot;:null,&quot;origRot&quot;:0}" stroke-width="2.5" stroke-linecap="round"><path d="M306.90042,147.83292c0,0 29.05013,-3.17838 30.92814,2.39528c1.84343,5.47103 -20.3163,14.23191 -20.3163,14.23191" data-paper-data="{&quot;origPos&quot;:null}" fill="#2e00b8" stroke="#2e00b8"/><path d="M245.00096,168.26803c0,0 17.1182,-12.75654 29.15011,-19.0485c15.14888,-7.92196 40.49731,-17.37293 40.49731,-17.37293l11.7678,45.85868c0,0 -24.58433,3.85445 -40.4937,5.30198c-12.10577,1.10144 -31.29164,1.22947 -31.29164,1.22947" data-paper-data="{&quot;origPos&quot;:null}" fill="#009fb8" stroke="#009fb8"/></g><path d="M231.96452,168.31562l3.0493,8.21099l10.79531,-1.99915l-6.14184,13.12534l-25.213,-8.77015l9.49051,-0.52873l-2.12631,-7.24988z" data-paper-data="{&quot;origRot&quot;:0}" fill="#3f00ff" stroke="#2e00b8" stroke-width="2.5" stroke-linecap="round"/><g data-paper-data="{&quot;origRot&quot;:0}" stroke-width="2.5"><path d="M331.85707,368.42798l-12.10542,-25.22373l33.54361,-28.98743l9.8826,11.0995l8.84337,-4.66391l5.98984,7.89061z" data-paper-data="{&quot;origPos&quot;:null}" fill="#bb5500" stroke="#bb5500" stroke-linecap="butt"/><path d="M321.79754,351.56188c0,0 -3.80003,-2.95205 -5.2637,-5.6785c-3.61182,-6.72797 -7.74159,-18.54733 -7.74159,-18.54733l26.56124,-25.59678c0,0 15.33072,5.76784 21.3295,10.64315c1.99959,1.6251 4.08062,5.5061 4.08062,5.5061c0,0 -5.26052,3.3698 -8.98022,4.1396c-2.93602,0.60762 -8.07429,-0.61017 -8.07429,-0.61017c0,0 2.55883,4.51202 2.53056,7.42981c-0.03608,3.7244 -2.69547,9.59001 -2.69547,9.59001c0,0 -7.43689,1.70371 -11.80823,1.6124c-1.81919,-0.03801 -4.05424,-1.94375 -4.05424,-1.94375c0,0 0.10681,3.0839 -0.7276,4.99197c-1.46197,3.3431 -5.15659,8.46352 -5.15659,8.46352z" data-paper-data="{&quot;origPos&quot;:null}" fill="#2e00b8" stroke="#2e00b8" stroke-linecap="butt"/><path d="M261.86405,215.72363l87.59159,92.97083l-35.79227,30.93065l-67.09021,-102.27581" data-paper-data="{&quot;origPos&quot;:null}" fill="#306e7b" stroke="#306e7b" stroke-linecap="round"/><path d="M343.71731,341.87822l19.85588,-16.27778" fill="none" stroke="#bb5500" stroke-linecap="round"/></g><g data-paper-data="{&quot;origRot&quot;:0}" stroke-width="2.5"><path d="M181.37814,390.12911l12.17563,-25.18991l43.57655,8.15649l-2.51772,14.64671l9.15972,4.00705l-2.43549,9.60251z" data-paper-data="{&quot;origPos&quot;:null}" fill="#ff9b00" stroke="#bb5500" stroke-linecap="butt"/><path d="M188.29444,371.74911c0,0 -0.06079,-4.81156 1.15855,-7.6557c3.00893,-7.01836 9.67585,-17.6157 9.67585,-17.6157l36.57254,4.81077c0,0 5.0475,15.58274 4.97522,23.31247c-0.02409,2.57658 -1.76129,6.62317 -1.76129,6.62317c0,0 -5.91428,-2.0124 -8.83509,-4.44093c-2.30544,-1.91687 -4.5565,-6.69364 -4.5565,-6.69364c0,0 -1.93272,4.81358 -4.23174,6.61045c-2.93458,2.29362 -9.17874,3.87094 -9.17874,3.87094c0,0 -5.96836,-4.75273 -8.62212,-8.22759c-1.10439,-1.4461 -1.00766,-4.38174 -1.00766,-4.38174c0,0 -2.3447,2.00604 -4.35679,2.54313c-3.52536,0.94103 -9.83224,1.24434 -9.83224,1.24434z" data-paper-data="{&quot;origPos&quot;:null}" fill="#3f00ff" stroke="#2e00b8" stroke-linecap="butt"/><path d="M257.14241,240.2044l-18.08783,126.44641l-46.49779,-8.70327l38.14413,-116.21731" data-paper-data="{&quot;origPos&quot;:null}" fill="#5c8f99" stroke="#306e7b" stroke-linecap="round"/><path d="M209.53105,382.85114l25.10588,5.37747" fill="none" stroke="#bb5500" stroke-linecap="round"/></g><path d="M255.4975,186.14356c0,0 3.49237,14.52863 6.9744,25.34319c2.82847,8.78476 8.30436,25.08135 8.30436,25.08135l-44.11049,10.08446c0,0 0.39027,-20.18066 -1.66179,-33.32128c-1.29995,-8.3244 -6.92733,-21.68016 -6.92733,-21.68016c0,0 -24.18657,-5.89451 -17.30137,-16.20507c6.7677,-10.13458 36.48576,7.83395 36.48576,7.83395c0,0 10.75219,-21.33475 19.80399,-16.0682c9.0518,5.26655 -1.56753,18.93173 -1.56753,18.93173z" data-paper-data="{&quot;origRot&quot;:0}" fill="#00ffce" stroke="#009fb8" stroke-width="2.5" stroke-linecap="round"/><g data-paper-data="{&quot;origRot&quot;:0}" stroke-width="2.5" stroke-linecap="round"><path d="M149.49714,202.60158c0,0 -23.71113,2.36412 -24.57885,-3.34356c-0.88399,-5.81473 26.39457,-16.29766 26.39457,-16.29766" data-paper-data="{&quot;origPos&quot;:null}" fill="#3f00ff" stroke="#2e00b8"/><path d="M214.45201,191.37429c0,0 -17.11286,8.67544 -28.37822,13.24215c-14.80489,6.00155 -38.42356,13.83769 -38.42356,13.83769l-10.548,-46.15452c0,0 26.86168,-3.21147 43.95658,-3.10953c13.57753,0.08096 34.63771,3.57815 34.63771,3.57815" data-paper-data="{&quot;origPos&quot;:null}" fill="#00ffce" stroke="#009fb8"/></g><path d="M236.26379,191.66998l5.64681,19.57278" data-paper-data="{&quot;origRot&quot;:0}" fill="none" stroke="#009fb8" stroke-width="2.5" stroke-linecap="round"/><path d="M255.12889,209.20258l-5.64682,-19.57279" data-paper-data="{&quot;origRot&quot;:0}" fill="none" stroke="#009fb8" stroke-width="2.5" stroke-linecap="round"/><g data-paper-data="{&quot;origRot&quot;:0}" stroke-width="2.5"><g data-paper-data="{&quot;origRot&quot;:0}"><path d="M276.55822,137.25816c8.80376,-10.89039 30.47265,-6.80073 30.47265,-6.80073c0,0 -4.58098,9.83877 -9.08853,15.57945c-1.92817,2.45566 -7.40219,5.4226 -7.40219,5.4226c0,0 5.42763,1.96042 7.22162,4.42434c2.7718,3.80686 4.47766,11.64374 4.47766,11.64374c0,0 -24.3892,5.02623 -37.04775,-4.44936" data-paper-data="{&quot;origPos&quot;:null,&quot;index&quot;:null}" fill="#2e00b8" stroke="#2e00b8" stroke-linecap="round"/><path d="M216.3662,167.64304c-11.31769,11.04248 -36.15359,9.23313 -36.15359,9.23313c0,0 0.67141,-7.99223 2.92419,-12.12745c1.45807,-2.67645 6.58438,-5.32657 6.58438,-5.32657c0,0 -5.8136,-2.22927 -8.04496,-4.41311c-5.21634,-5.10521 -11.03883,-14.2641 -11.03883,-14.2641c0,0 20.95235,-6.87497 31.09857,2.777" data-paper-data="{&quot;origPos&quot;:null}" fill="#3f00ff" stroke="#2e00b8" stroke-linecap="round"/><path d="M197.00797,136.88145c-1.49878,-22.93438 17.40967,-42.84145 42.23321,-44.46369c24.82354,-1.62224 36.27229,16.73772 42.18778,38.94671c7.73857,29.05355 -11.93668,42.48379 -36.76022,44.10603c-24.82354,1.62224 -46.162,-15.65467 -47.66078,-38.58905z" data-paper-data="{&quot;origPos&quot;:null}" fill="#3f00ff" stroke="#2e00b8" stroke-linecap="butt"/><path d="M198.90795,126.53059c0,0 -8.87858,3.46057 -11.90114,2.64332c-7.75904,-2.0979 -17.16066,-11.0498 -17.16066,-11.0498c0,0 6.86096,-2.79636 11.40973,-2.17788c4.10829,0.5586 10.77287,5.19404 10.77287,5.19404c0,0 -5.21504,-4.48782 -6.84435,-8.13153c-1.98193,-4.43229 -2.40904,-12.5622 -2.40904,-12.5622c0,0 8.32971,2.67512 12.24304,6.23899c3.19749,2.91194 5.97756,10.35447 5.97756,10.35447c0,0 12.43316,-19.47761 9.01377,-34.59126c-3.40218,-15.03756 -29.0628,-26.27623 -29.0628,-26.27623c0,0 60.28325,-13.33289 83.66896,3.16752c23.38571,16.5004 10.03458,44.80952 10.03458,44.80952c0,0 5.30742,0.16528 8.41395,-0.80931c2.97002,-0.93176 7.15647,-4.07547 7.15647,-4.07547c0,0 -0.40063,6.78346 -1.83756,9.88315c-1.30061,2.80559 -5.23187,8.09853 -5.23187,8.09853" data-paper-data="{&quot;origPos&quot;:null}" fill="#3f00ff" stroke="#2e00b8" stroke-linecap="round"/><path d="M208.66454,128.6412c11.4482,14.1229 1.97812,56.55205 1.97812,56.55205c0,0 -22.17296,-43.02686 -14.99884,-56.04468" data-paper-data="{&quot;origPos&quot;:null}" fill="#3f00ff" stroke="#2e00b8" stroke-linecap="round"/><path d="M283.3594,115.17174c8.36844,4.99831 1.70565,20.84346 1.70565,20.84346c0,0 -6.08769,-1.18263 -8.49446,-2.69656c-5.70229,-3.58686 -12.28402,-10.37353 -12.28402,-10.37353c0,0 0.29244,5.62794 -0.89123,8.44021c-1.60144,3.80484 -6.24527,8.51528 -6.24527,8.51528c0,0 -8.28448,-2.36814 -12.78276,-5.03577c-5.683,-3.37022 -13.30549,-10.4355 -13.30549,-10.4355c0,0 -0.32106,5.03906 -1.8831,7.69335c-2.54057,4.31703 -8.62932,10.16981 -8.62932,10.16981c0,0 -12.45145,-3.52162 -17.96818,-17.37602" data-paper-data="{&quot;origPos&quot;:null}" fill="#3f00ff" stroke="#2e00b8" stroke-linecap="round"/><g data-paper-data="{&quot;origPos&quot;:null}" fill="#ffffff" stroke-linecap="round"><path d="M250.18355,148.94393c0,0 4.43669,5.68736 -1.09557,9.51848c-5.53226,3.83112 -16.98016,2.99905 -16.98016,2.99905z" data-paper-data="{&quot;origPos&quot;:null}" stroke="none"/><path d="M231.275,161.85942c0,0 -19.167,-8.49197 -6.77279,-21.32191c6.27664,-6.4973 16.31705,-7.78262 22.51397,-1.20922c3.28376,3.48326 4.13431,11.27009 4.13431,11.27009" data-paper-data="{&quot;origPos&quot;:null}" stroke="#2e00b8"/></g><path d="M249.24494,152.81626c0.28704,4.39229 -1.1266,8.06054 -3.15743,8.19325c-2.03085,0.13272 -3.90985,-3.32035 -4.1969,-7.71264c-0.28704,-4.39229 1.1266,-8.06054 3.15743,-8.19325c2.03085,-0.13272 3.90985,3.32035 4.1969,7.71264z" fill="url(#color-2)" stroke="none" stroke-linecap="butt"/><g data-paper-data="{&quot;origPos&quot;:null,&quot;index&quot;:null}" fill="#ffffff" stroke-linecap="round"><path d="M277.00125,158.52765c0,0 -7.62794,2.0787 -11.77736,-1.11971c-4.14943,-3.19842 -1.78018,-9.33055 -1.78018,-9.33055z" data-paper-data="{&quot;origPos&quot;:null}" stroke="none"/><path d="M262.97277,149.82576c0,0 -0.2785,-7.82421 1.55453,-11.64186c3.45916,-7.20443 10.36975,-7.02686 15.31279,-1.26279c9.76082,11.38209 -2.23376,21.91049 -2.23376,21.91049" data-paper-data="{&quot;origPos&quot;:null}" stroke="#2e00b8"/></g><path d="M248.11444,174.43243c0,0 -1.54042,-5.1735 -1.76725,-8.64435c-0.15267,-2.33615 0.79484,-6.23536 0.79484,-6.23536c0,0 7.15057,-2.18491 11.68938,-2.48152c4.13832,-0.27044 10.54468,1.02852 10.54468,1.02852c0,0 1.47609,4.18908 1.63312,6.59198c0.22246,3.40409 -0.66072,8.28773 -0.66072,8.28773c0,0 -4.82312,1.51753 -7.96022,1.72253c-5.54001,0.36204 -14.27383,-0.26952 -14.27383,-0.26952z" data-paper-data="{&quot;origPos&quot;:null}" fill="#ff9b00" stroke="#bb5500" stroke-linecap="butt"/><path d="M272.92782,150.03808c0.28704,4.39229 -1.1266,8.06054 -3.15743,8.19325c-2.03085,0.13272 -3.90985,-3.32035 -4.1969,-7.71264c-0.28704,-4.39229 1.1266,-8.06054 3.15743,-8.19325c2.03085,-0.13272 3.90985,3.32035 4.1969,7.71264z" fill="url(#color-3)" stroke="none" stroke-linecap="butt"/></g><path d="M260.86909,170.14724c-0.12442,2.48216 -3.13179,4.34866 -6.71714,4.16893c-3.58535,-0.17973 -6.39098,-2.33762 -6.26655,-4.81978c0.12442,-2.48216 1.0223,-7.20786 4.60764,-7.02812c3.58535,0.17973 8.50048,5.19682 8.37605,7.67898z" data-paper-data="{&quot;origRot&quot;:0}" fill="none" stroke="#bb5500" stroke-linecap="butt"/></g></g></g></svg>