<svg xmlns="http://www.w3.org/2000/svg" xmlns:xlink="http://www.w3.org/1999/xlink" version="1.1" width="309.88111" height="420.52272" viewBox="0,0,309.88111,420.52272"><defs><linearGradient x1="369" y1="-25.90834" x2="369" y2="388.09166" gradientUnits="userSpaceOnUse" id="color-1"><stop offset="0" stop-color="#2f0038"/><stop offset="1" stop-color="#8a001f"/></linearGradient><radialGradient cx="260.5" cy="211.2619" r="34" gradientUnits="userSpaceOnUse" id="color-2"><stop offset="0" stop-color="#ffffff"/><stop offset="1" stop-color="#ffffff" stop-opacity="0"/></radialGradient><radialGradient cx="383.41905" cy="150.10705" r="78.70916" fx="383.41905" fy="150.10705" gradientUnits="userSpaceOnUse" id="color-3"><stop offset="0" stop-color="#efefef"/><stop offset="1" stop-color="#e2e2e2"/></radialGradient><linearGradient x1="155.1311" y1="3.2727" x2="155.1311" y2="417.2727" gradientUnits="userSpaceOnUse" id="color-1-,0,0,1,-213.86889,29.18105"><stop offset="0" stop-color="#2f0038"/><stop offset="1" stop-color="#8a001f"/></linearGradient><radialGradient cx="169.5502" cy="179.2881" r="78.7092" fx="169.5502" fy="179.2881" gradientUnits="userSpaceOnUse" id="color-3-,0,0,1,-213.86889,29.18105"><stop offset="0" stop-color="#efefef"/><stop offset="1" stop-color="#e2e2e2"/></radialGradient></defs><g><g data-paper-data="{&quot;isPaintingLayer&quot;:true}" fill-rule="nonzero" stroke-miterlimit="10" stroke-dasharray="" stroke-dashoffset="0" style="mix-blend-mode: normal"><path d="M 3.6311 417.2727 L 49.6311 3.2727 L 306.6311 5.2727 L 306.6311 417.2727 Z " fill="url(#color-1-,0,0,1,-213.86889,29.18105)" stroke="#ffffff" stroke-width="6.5" stroke-linecap="butt" stroke-linejoin="miter"/><path d="M226.5,211.2619c0,-18.77768 15.22232,-34 34,-34c18.77768,0 34,15.22232 34,34c0,18.77768 -15.22232,34 -34,34c-18.77768,0 -34,-15.22232 -34,-34z" fill="url(#color-2)" stroke="none" stroke-width="0" stroke-linecap="butt" stroke-linejoin="miter" transform="matrix(1,0,0,1,-213.86889,29.18105)"/><g><path d="M 149.461 261.6409 C 137.9208 264.6003 127.3137 266.7617 117.6396 268.125 C 107.037 269.6048 93.7619 270.7579 77.8143 271.5843 C 74.3864 271.7375 71.5375 271.7019 69.2674 271.4775 C 66.1307 271.2091 63.0684 270.508 60.0805 269.3744 C 55.3304 267.6058 51.5311 264.6581 48.6826 260.5314 C 45.9889 256.5762 44.4116 251.9686 43.9507 246.7086 " fill="none" stroke="#000000" stroke-width="3.3" stroke-linecap="round" stroke-linejoin="round"/><g stroke-linecap="butt" stroke-linejoin="miter"><g><path d="M 186.31 277.3497 C 192.6446 292.0385 196.0824 309.3918 196.6234 329.4098 C 197.047 349.4973 194.3983 366.4171 188.6774 380.1692 C 185.9879 386.6856 182.8158 391.63 179.161 395.0023 C 175.3439 398.5742 171.3416 400.2082 167.1544 399.9043 C 162.9038 399.6035 158.8254 397.411 154.9193 393.3269 C 151.0315 389.3695 147.597 383.9215 144.616 376.9829 C 141.5809 370.1107 139.1675 362.2504 137.3759 353.4017 C 135.5476 344.2996 134.5232 334.8066 134.3027 324.9228 C 134.0913 315.1024 134.6813 305.7532 136.0725 296.875 C 137.4372 288.2535 139.5005 280.7147 142.2624 274.2585 C 144.9519 267.742 148.1194 262.7659 151.765 259.3302 C 155.5281 255.8249 159.5303 254.1909 163.7717 254.4283 C 168.0222 254.7291 172.1006 256.9216 176.0068 261.0057 C 179.8313 264.9662 183.2657 270.4142 186.31 277.3497 Z " stroke-width="1" fill="#989898" stroke="none"/></g><path d="M 163.7584 254.385 C 168.009 254.6857 172.0874 256.8782 175.9936 260.9622 C 179.8182 264.9227 183.2526 270.3706 186.2971 277.306 C 192.6318 291.9946 196.0699 309.3477 196.6112 329.3654 C 197.0351 349.4527 194.3867 366.3723 188.666 380.1242 C 185.9766 386.6406 182.8046 391.5849 179.1499 394.9572 C 175.3328 398.529 171.3306 400.1629 167.1434 399.859 C 162.8928 399.5582 158.8144 397.3658 154.9082 393.2817 C 151.0204 389.3244 147.5859 383.8765 144.6047 376.9379 C 141.5695 370.0659 139.156 362.2056 137.3643 353.3571 C 135.5358 344.2551 134.5113 334.7622 134.2906 324.8786 C 134.0792 315.0583 134.669 305.7092 136.0601 296.8312 C 137.4246 288.2098 139.4878 280.671 142.2496 274.2149 C 144.939 267.6985 148.1064 262.7225 151.752 259.2868 C 155.5149 255.7815 159.5171 254.1476 163.7584 254.385 Z " fill="none" stroke="#000000" stroke-width="4.59"/></g><g stroke-linecap="butt" stroke-linejoin="miter"><g><path d="M 156.0493 340.2492 L 140.0679 326.053 L 143.6883 248.7743 L 159.6697 262.9705 Z " stroke-width="1" fill="#544b2b" stroke="none"/></g><path d="M 140.0144 325.9291 L 143.6346 248.6516 L 159.6158 262.8479 L 155.9957 340.1253 Z " fill="none" stroke="#000000" stroke-width="2"/></g><g stroke-linecap="butt" stroke-linejoin="miter"><g><path d="M 158.081 353.6925 C 154.589 356.0321 150.6454 356.451 146.2502 354.9495 C 141.8538 353.5226 138.3119 350.6084 135.6243 346.2067 C 133.0017 341.7423 131.95 337.1241 132.469 332.352 C 133.053 327.5172 135.1235 323.8986 138.6804 321.4964 C 142.1724 319.1569 146.1166 318.7005 150.5129 320.1273 C 154.9082 321.6289 158.4496 324.5805 161.1371 328.9822 C 163.8236 333.4586 164.8753 338.0769 164.2924 342.837 C 163.7084 347.6717 161.6379 351.2903 158.081 353.6925 Z " stroke-width="1" fill="#544b2b" stroke="none"/></g><path d="M 164.27 342.8277 C 163.686 347.6625 161.6156 351.281 158.0588 353.6832 C 154.5669 356.0227 150.6233 356.4417 146.2281 354.9401 C 141.8318 353.5132 138.2899 350.599 135.6023 346.1973 C 132.9797 341.7329 131.9279 337.1147 132.4469 332.3426 C 133.0309 327.5078 135.1013 323.8894 138.6581 321.4872 C 142.15 319.1476 146.0941 318.6913 150.4904 320.1182 C 154.8856 321.6197 158.427 324.5714 161.1145 328.973 C 163.801 333.4494 164.8528 338.0677 164.27 342.8277 Z " fill="none" stroke="#000000" stroke-width="2"/></g><path d="M 177.0962 271.6316 C 185.7595 276.8173 191.454 280.4612 194.1796 282.5634 C 202.9395 289.1723 208.9102 296.2123 212.0917 303.6833 C 217.4904 316.0127 218.6739 330.8281 215.6422 348.1295 C 213.6197 360.082 210.5572 369.8815 206.4547 377.528 " fill="none" stroke="#000000" stroke-width="3.3" stroke-linecap="round" stroke-linejoin="round"/><g><g stroke-linecap="butt" stroke-linejoin="miter"><path d="M 209.9378 375.6115 C 211.4145 377.0262 212.6611 378.5713 213.6778 380.2468 C 215.7567 383.6875 216.7913 387.1141 216.7816 390.5263 C 216.8065 394.2655 215.4659 396.8734 212.7599 398.35 C 210.9227 399.3339 208.707 398.829 206.1128 396.8353 C 203.6154 394.9022 201.6242 392.2491 200.1392 388.8758 C 198.6571 385.4432 197.954 382.3773 198.0299 379.678 C 198.1059 376.9788 198.9471 374.9428 200.5536 373.57 C 202.1657 372.0785 203.9939 371.8215 206.0383 372.7988 C 207.3036 373.4095 208.6034 374.3471 209.9378 375.6115 Z " stroke-width="1" fill="#000000" stroke="none"/></g><path d="M 200.0904 388.8326 C 198.6083 385.4001 197.9052 382.3342 197.9812 379.635 C 198.0572 376.9358 198.8985 374.8998 200.505 373.527 C 202.117 372.0356 203.9452 371.7786 205.9895 372.7559 C 207.2549 373.3666 208.5547 374.3041 209.889 375.5685 C 211.3657 376.9832 212.6123 378.5283 213.6289 380.2038 C 215.7078 383.6445 216.7424 387.071 216.7327 390.4832 C 216.7575 394.2224 215.4169 396.8302 212.7109 398.3068 C 210.8737 399.2907 208.658 398.7858 206.0639 396.7921 C 203.5665 394.859 201.5753 392.2059 200.0904 388.8326 Z " fill="none" stroke="#000000" stroke-width="3.3" stroke-linecap="round" stroke-linejoin="round"/></g><path d="M 55.1908 243.5168 C 54.5334 244.9065 53.767 246.0636 52.8914 246.9882 C 50.9624 249.1865 47.9791 250.3108 43.9415 250.3611 C 42.2999 250.3408 41.1099 250.2113 40.3717 249.9728 C 39.4656 249.6999 38.4696 248.8919 37.3838 247.5488 C 35.4305 245.3275 33.994 242.8528 33.0743 240.1246 C 32.0944 237.3491 31.7167 234.5829 31.9412 231.8259 C 32.2393 231.5716 32.6434 231.5228 33.1535 231.6797 C 33.7175 231.83 34.1625 232.1312 34.4885 232.5833 C 34.7732 233.1495 35.018 234.0754 35.2227 235.3611 C 35.3808 235.7788 35.6466 236.1835 36.0203 236.5752 C 36.9676 233.458 38.0012 231.3132 39.121 230.1407 C 40.0442 229.1558 41.0177 228.6016 42.0415 228.4781 C 42.8973 228.3202 43.4644 228.4975 43.7429 229.0099 C 43.9422 229.3134 43.98 229.6364 43.856 229.979 C 43.8273 230.2009 43.7002 230.5165 43.4748 230.9258 C 42.4619 233.0136 41.9977 234.653 42.0821 235.8439 C 42.1351 236.7657 42.5051 237.5946 43.1922 238.3307 C 43.8253 239.0733 44.5649 239.5574 45.4109 239.7829 C 45.9811 239.9871 46.6165 240.0469 47.317 239.9624 C 48.0238 239.9318 48.6039 239.7526 49.0574 239.4249 C 51.3249 237.7863 52.3518 236.0518 52.138 234.2213 C 52.1066 233.9521 51.843 232.8646 51.3472 230.9589 C 50.987 229.7466 50.9798 228.9831 51.3256 228.6684 C 52.255 227.7373 53.3718 228.1758 54.6758 229.984 C 55.9924 231.8999 56.5188 235.0031 56.2549 239.2936 C 56.1426 240.6721 55.7879 242.0799 55.1908 243.5169 Z " fill="#000000" stroke="none" stroke-width="1" stroke-linecap="butt" stroke-linejoin="miter"/><g stroke-linecap="butt" stroke-linejoin="miter"><g><path d="M 175.6183 87.3079 C 186.2208 89.1876 196.2306 93.4375 205.6478 100.0575 C 214.7261 106.3569 222.6426 114.4281 229.3973 124.2708 C 236.0203 134.095 240.9671 144.8548 244.2377 156.5501 C 247.6229 168.6433 248.9029 180.9026 248.0777 193.328 C 247.25 205.8075 244.388 217.3725 239.4916 228.023 C 234.8317 238.3251 228.5873 247.0402 220.7584 254.1681 C 212.9709 261.3563 204.1962 266.4421 194.4344 269.4252 C 184.4044 272.4795 174.0662 273.0637 163.4198 271.1778 C 152.8198 269.2438 142.8319 264.9971 133.4562 258.4375 C 124.3364 252.0776 116.4419 244.0096 109.7725 234.2334 C 103.1008 224.5113 98.1077 213.7996 94.7931 202.098 C 91.4543 189.9568 90.1999 177.6194 91.03 165.0856 C 91.8552 152.6603 94.716 141.1224 99.6124 130.4719 C 104.3162 120.176 110.5618 111.4339 118.3493 104.2456 C 126.1344 97.1115 134.8639 92.0466 144.538 89.0511 C 154.6119 86.003 164.972 85.4219 175.6184 87.3078 Z " stroke-width="1" fill="url(#color-3-,0,0,1,-213.86889,29.18105)" stroke="none"/></g><path d="M 229.4187 124.2043 C 236.0416 134.0285 240.9884 144.7882 244.259 156.4836 C 247.6441 168.5768 248.9241 180.8361 248.0989 193.2614 C 247.2712 205.7409 244.4092 217.306 239.5129 227.9564 C 234.853 238.2586 228.6087 246.9736 220.7798 254.1015 C 212.9924 261.2898 204.2179 266.3755 194.4562 269.3587 C 184.4263 272.413 174.0882 272.9972 163.4419 271.1113 C 152.8421 269.1773 142.8543 264.9306 133.4787 258.371 C 124.359 252.0111 116.4645 243.9431 109.7953 234.1669 C 103.1236 224.4449 98.1306 213.7331 94.8161 202.0316 C 91.4773 189.8904 90.2229 177.5529 91.053 165.0192 C 91.8782 152.5939 94.739 141.056 99.6354 130.4055 C 104.3391 120.1095 110.5846 111.3674 118.3721 104.1791 C 126.157 97.045 134.8865 91.9802 144.5604 88.9846 C 154.6342 85.9365 164.9942 85.3554 175.6404 87.2413 C 186.2428 89.1211 196.2525 93.3709 205.6696 99.9909 C 214.7478 106.2904 222.6642 114.3615 229.4187 124.2043 Z " fill="none" stroke="#000000" stroke-width="3"/></g><path d="M 216.1733 122.1699 L 221.7326 115.641 " fill="none" stroke="#000000" stroke-width="0.85" stroke-linecap="round" stroke-linejoin="miter"/><path d="M 113.4454 126.135 L 107.8115 118.4175 " fill="none" stroke="#000000" stroke-width="0.85" stroke-linecap="round" stroke-linejoin="miter"/><path d="M 92.1295 159.3517 L 101.4193 163.5437 " fill="none" stroke="#000000" stroke-width="0.85" stroke-linecap="round" stroke-linejoin="miter"/><path d="M 129.8646 239.3276 L 123.0519 249.9304 " fill="none" stroke="#000000" stroke-width="0.85" stroke-linecap="round" stroke-linejoin="miter"/><path d="M 167.4619 269.6837 L 168.1391 259.6657 " fill="none" stroke="#000000" stroke-width="0.85" stroke-linecap="round" stroke-linejoin="miter"/><path d="M 200.7449 252.1139 L 204.7372 263.7985 " fill="none" stroke="#000000" stroke-width="0.85" stroke-linecap="round" stroke-linejoin="miter"/><path d="M 235.2938 235.6328 L 229.09 226.9426 " fill="none" stroke="#000000" stroke-width="0.85" stroke-linecap="round" stroke-linejoin="miter"/><path d="M 244.0191 155.4903 L 236.2112 159.0852 " fill="none" stroke="#000000" stroke-width="0.85" stroke-linecap="round" stroke-linejoin="miter"/><path d="M 235.8711 198.6531 L 246.7441 201.84 " fill="none" stroke="#000000" stroke-width="0.85" stroke-linecap="round" stroke-linejoin="miter"/><path d="M 137.0561 92.5077 L 142.0772 105.0828 " fill="none" stroke="#000000" stroke-width="0.85" stroke-linecap="round" stroke-linejoin="miter"/><path d="M 179.2227 88.0087 L 178.2378 105.1876 " fill="none" stroke="#000000" stroke-width="0.85" stroke-linecap="round" stroke-linejoin="miter"/><path d="M 154.8447 177.3616 C 154.9221 186.8766 153.5624 195.1685 150.7655 202.2373 C 147.8813 209.1255 144.4601 212.5983 140.502 212.6557 C 136.418 212.7292 132.9378 209.3056 130.0613 202.3851 C 127.122 195.4726 125.6369 187.1919 125.6062 177.5432 C 125.4964 167.7767 126.8561 159.4848 129.6855 152.6675 C 132.5697 145.7793 135.9908 142.3065 139.949 142.2491 C 143.9701 142.1837 147.4503 145.6073 150.3896 152.5198 C 153.2661 159.4403 154.7511 167.7209 154.8447 177.3616 Z " fill="#000000" stroke="none" stroke-width="1" stroke-linecap="butt" stroke-linejoin="miter"/><path d="M 116.1843 177.1817 C 116.3031 187.0109 115.1557 195.2757 112.7421 201.976 C 110.2881 208.8093 107.246 212.2018 103.6158 212.1534 C 99.9937 212.1679 96.8143 208.7059 94.0776 201.7675 C 91.4137 194.9477 89.9699 186.6619 89.746 176.9099 C 89.6272 167.0807 90.7746 158.8159 93.1882 152.1156 C 95.5371 145.3596 98.5792 141.9672 102.3145 141.9382 C 105.9447 141.9866 109.0959 145.4522 111.7679 152.3349 C 114.4802 159.0846 115.9524 167.3669 116.1843 177.1817 Z " fill="#000000" stroke="none" stroke-width="1" stroke-linecap="butt" stroke-linejoin="miter"/><path d="M 161.1995 128.8195 L 119.8416 151.3206 " fill="none" stroke="#000000" stroke-width="2.75" stroke-linecap="round" stroke-linejoin="miter"/><g stroke-linecap="butt" stroke-linejoin="miter"><g><path d="M 169.8437 124.6103 L 159.8049 135.8899 C 162.6059 131.2237 163.7118 128.3144 163.1225 127.1621 C 162.7456 126.456 161.1674 126.0303 158.3878 125.8849 L 154.3928 125.7776 Z " stroke-width="1" fill="#000000" stroke="none"/></g><path d="M 169.8087 124.5617 L 159.77 135.8411 C 162.571 131.1749 163.6769 128.2657 163.0876 127.1134 C 162.7107 126.4073 161.1325 125.9816 158.353 125.8362 L 154.358 125.7289 Z " fill="none" stroke="#000000" stroke-width="0.85"/></g><path d="M 92.0006 130.1261 L 119.3427 151.2636 " fill="none" stroke="#000000" stroke-width="2.75" stroke-linecap="round" stroke-linejoin="miter"/><g stroke-linecap="butt" stroke-linejoin="miter"><g><path d="M 97.3765 127.1192 C 94.9784 127.7826 93.3785 128.6562 92.5767 129.7399 C 91.7546 130.9013 90.9608 133.3335 90.1953 137.0364 C 89.7283 139.0118 89.3877 140.8012 89.1735 142.4049 L 88.9942 127.1341 L 100.7208 126.4959 C 99.712 126.5956 98.5972 126.8033 97.3765 127.1192 Z " stroke-width="1" fill="#000000" stroke="none"/></g><path d="M 100.7192 126.4666 C 99.7104 126.5663 98.5956 126.7741 97.3749 127.09 C 94.9768 127.7534 93.3769 128.6269 92.5751 129.7106 C 91.753 130.8721 90.9592 133.3043 90.1937 137.0072 C 89.7267 138.9826 89.3861 140.7721 89.1719 142.3757 L 88.9927 127.1049 Z " fill="none" stroke="#000000" stroke-width="0.85"/></g><path d="M 106.9765 230.1521 C 111.2842 228.1868 116.0164 226.8897 121.1729 226.2609 C 130.7356 224.986 139.9035 226.2859 148.6767 230.1606 " fill="none" stroke="#000000" stroke-width="2" stroke-linecap="round" stroke-linejoin="round"/></g></g></g></svg>