<svg version="1.1" xmlns="http://www.w3.org/2000/svg" xmlns:xlink="http://www.w3.org/1999/xlink" width="583.11584" height="438.03334" viewBox="0,0,583.11584,438.03334"><defs><linearGradient x1="240.5" y1="266.71666" x2="240.5" y2="311.71666" gradientUnits="userSpaceOnUse" id="color-1"><stop offset="0" stop-color="#000000"/><stop offset="1" stop-color="#000000" stop-opacity="0"/></linearGradient></defs><g transform="translate(51.55792,48.53334)"><g data-paper-data="{&quot;isPaintingLayer&quot;:true}" fill-rule="nonzero" stroke-linejoin="miter" stroke-miterlimit="10" stroke-dasharray="" stroke-dashoffset="0" style="mix-blend-mode: normal"><path d="M-40,389.5v-419h560v419z" fill="#ffffff" stroke="none" stroke-width="0" stroke-linecap="butt"/><g fill="none" stroke="#cecece" stroke-width="2.5" stroke-linecap="round"><path d="M530.30792,-24.21068h-580.61584"/><path d="M-50.30792,-3.78961h580.61584"/><path d="M-50.30792,16.63146h580.61584"/><path d="M530.30792,37.05253h-580.61584"/><path d="M530.30792,57.47359h-580.61584"/><path d="M-50.30792,77.89466h580.61584"/><path d="M530.30792,98.31573h-580.61584"/><path d="M-50.30792,118.7368h580.61584"/><path d="M530.30792,139.15786h-580.61584"/><path d="M-50.30792,159.57893h580.61584"/><path d="M-50.30792,180h580.61584"/><path d="M-50.30792,200.42107h580.61584"/><path d="M530.30792,220.84214h-580.61584"/><path d="M-50.30792,241.2632h580.61584"/><path d="M530.30792,261.68427h-580.61584"/><path d="M-50.30792,282.10534h580.61584"/><path d="M530.30792,302.52641h-580.61584"/><path d="M-50.30792,322.94747h580.61584"/><path d="M-50.30792,343.36854h580.61584"/><path d="M-50.30792,363.78961h580.61584"/><path d="M-50.30792,384.21068h580.61584"/></g><path d="M44.5,-47.28334v417" fill="none" stroke="#fa6464" stroke-width="2.5" stroke-linecap="round"/><path d="M-23.5,311.71666v-45h528v45z" fill="url(#color-1)" stroke="none" stroke-width="0" stroke-linecap="butt"/><g fill="#000000" stroke="none" stroke-width="0.5" stroke-linecap="butt"><path d="M42.43936,187.71039c-0.44027,4.02921 -0.43472,9.46504 0.56663,13.01844c0.24344,0.86388 0.96286,1.55312 1.16466,2.42767c0.29051,1.259 -0.58435,3.39572 0.63472,3.82391c2.10102,0.73797 6.87364,-0.5462 8.63126,-0.41698c0.93598,0.06881 1.75391,0.72669 2.68438,0.8493c5.84627,0.77034 11.53496,0.9022 17.40212,0.84652c0.44063,-4.62058 1.45455,-8.74288 0.71736,-13.40947c-0.11979,-0.75833 -0.47484,-1.46491 -0.61319,-2.22007c-0.08238,-0.4497 0.33902,-1.12221 -0.04466,-1.37083c-1.83692,-1.19037 -4.3055,-0.80143 -6.4358,-1.3045c-6.53414,-1.54305 -12.78398,-0.9066 -19.31382,-1.63496c-1.71952,-0.1918 -3.42842,-0.76717 -5.15277,-0.62514zM37.6033,186.06811c-0.0388,-0.16299 -0.06581,-0.34071 -0.07877,-0.53449c-0.16689,-2.49442 2.32754,-2.66131 2.32754,-2.66131l2.49442,-0.16689c1.9936,-0.11111 3.97274,0.40667 5.9562,0.6361c2.50596,0.28986 5.28416,-0.10944 7.82013,-0.0459c4.11999,0.10323 8.19342,0.8545 12.17959,1.79412c2.2851,0.53864 7.21887,1.31096 8.86451,2.68303c0.25186,0.20999 0.96752,2.42842 1.47433,4.19187c0.00643,-2.31118 -0.10881,-3.81886 -0.51791,-6.43498c-0.10104,-0.64615 0.14588,-2.8542 -0.65025,-3.54979c-3.07843,-2.68965 -8.78119,-2.79259 -12.4427,-3.71125c-9.22192,-2.31373 -18.1432,-3.86196 -27.66932,-4.28082c-19.43087,-2.68302 -39.64051,-0.84047 -59.0371,1.47311c-3.00967,0.35899 -5.80041,1.07686 -8.77171,1.57907c-3.14316,0.53126 -6.79162,-0.06279 -8.52212,3.03175c-2.36579,3.95246 -2.51562,9.24019 -3.17856,13.80813c-0.63384,4.36741 -0.94883,8.92063 -1.6457,13.25475c-1.46003,9.08047 -3.28492,17.8059 0.69131,26.51078c0,0 0.46623,1.02858 0.08067,2.01647c3.07837,-0.91291 6.65031,-0.65575 9.50548,0.73728c6.96972,-0.35153 15.14443,0.3076 19.83042,6.30434c2.66721,3.41328 3.90141,7.0667 3.87808,10.66404c3.38978,-0.10439 6.58834,0.26247 10.00512,0.31843c12.55667,0.20568 25.18566,-2.19467 37.67555,-3.0303l2.49442,-0.16689c0,0 0.10295,-0.00689 0.26843,0.00305c-0.04094,-0.84052 -0.00968,-1.67926 0.1104,-2.50669c0.92569,-6.37894 7.92363,-11.64274 14.00199,-12.48523c11.07707,-1.53534 22.32846,4.34323 25.90212,14.79618c5.04733,-0.38322 9.97235,-1.23491 14.94842,-1.98695c6.43487,-0.97251 13.86308,-1.48956 18.6531,-6.45138c0.20599,-2.86076 1.30313,-6.12696 1.10922,-8.95468c-0.02116,-0.30863 -1.30402,-4.95095 -1.33397,-5.13576c-0.20453,-1.26214 -0.3517,-2.70285 -1.228,-3.63394c-3.10623,-3.30047 -6.34809,-2.58187 -10.61431,-2.86389c-3.27456,-0.21647 -6.34441,-0.02407 -9.64009,0.17143c-3.45504,0.20496 -7.16154,0.05881 -9.6954,-2.8384c-1.41513,-1.61806 -1.88181,-4.14048 -2.41792,-6.12663c-0.2173,-3.19048 -0.68321,-6.36947 -1.08721,-9.55896c-0.37039,3.03885 -1.17611,6.02282 -2.37364,8.96431c-7.07356,2.47614 -14.38884,1.41999 -21.71115,0.45665c-0.84928,-0.11173 -1.58392,-0.74648 -2.43797,-0.81247c-3.04061,-0.23494 -7.4669,1.58362 -10.39312,-0.14641c-4.04665,-2.39246 -2.21791,-3.32245 -3.09289,-6.95129c-0.21038,-0.87252 -0.93783,-1.55928 -1.16466,-2.42767c-1.20686,-4.62034 -1.1714,-11.14425 -0.56698,-15.9319zM40.7007,255.47761l-2.49442,0.16689c-12.63031,0.84502 -25.38826,3.24786 -38.08817,3.04083c-3.69681,-0.06027 -7.07392,-0.51461 -10.78831,-0.27188c-0.92972,2.74934 -2.59343,5.37588 -4.9044,7.73324c-0.44708,0.45605 -4.29023,3.6704 -4.60411,3.79889c-0.47046,0.19259 -4.9374,0.45891 -5.76909,0.51455c-4.28225,0.27038 -8.77072,-0.05075 -12.35955,-2.79877c-5.34225,-4.09063 -9.1175,-11.46881 -10.53962,-17.83633c-0.36858,-1.6503 -1.19961,-4.89719 -0.94879,-6.73444c0.36322,-2.66063 1.75565,-4.64513 3.67054,-5.96782c-1.04409,-0.33765 -1.53159,-1.41316 -1.53159,-1.41316c-4.40271,-9.78046 -2.70307,-19.30272 -1.05141,-29.49782c0.68901,-4.25303 0.98357,-8.73173 1.60752,-13.02103c0.79093,-5.4372 1.1854,-10.91602 3.86548,-15.72798c0.63398,-0.90573 1.02593,-2.04273 1.90193,-2.7172c2.91661,-2.24564 6.6854,-2.07365 10.06182,-2.63728c3.05073,-0.50927 5.96185,-1.2488 9.05463,-1.61806c19.70699,-2.35284 40.29053,-4.22861 60.03124,-1.48185c9.77502,0.42807 18.96959,2.03121 28.43397,4.41084c4.5158,1.13541 11.30605,1.35615 14.80646,5.0719c3.26248,3.46318 2.64969,10.44042 2.57345,14.72833c-0.11046,6.21178 1.33197,12.30527 1.73433,18.43265c0.1784,0.65734 0.72333,3.02385 1.24294,3.6508c1.82666,2.20399 5.77507,1.13774 8.09934,0.98224c4.92972,-0.32982 11.26429,-0.94542 15.97625,0.60262c11.45505,3.76338 9.65312,17.76561 8.12628,27.0297c-5.84045,6.99555 -13.84156,8.03296 -22.3854,9.32332c-4.63733,0.70037 -9.22824,1.48003 -13.9098,1.9152c0.13604,0.41705 0.25079,0.8517 0.34025,1.30849c0.81454,4.15925 -3.24824,10.23125 -7.06538,11.60833c-1.22968,0.44362 -2.61575,0.13615 -3.907,0.34012c-2.83629,0.44802 -5.8111,1.4171 -8.68828,1.59554c-2.68901,0.16677 -5.86821,-0.61034 -8.54571,-0.9801c-2.74742,-0.37941 -4.05945,-0.27071 -6.44262,-2.25865c-2.03279,-1.69567 -3.92247,-5.17607 -5.06658,-7.51784c-0.59308,-1.24769 -1.15108,-2.59165 -1.59039,-3.98393c-0.45888,0.18377 -0.84581,0.20966 -0.84581,0.20966zM-38.3541,240.16243c-0.95842,0.13947 -1.97135,0.57184 -3.39333,0.77804c-2.27833,0.33037 -2.86504,-0.27949 -3.07045,2.61978c-0.48139,6.79463 4.27642,15.96103 9.54215,20.12503c2.53056,2.0011 6.0009,1.99955 8.99414,1.786c1.40066,-0.09371 2.90945,0.37884 4.20861,-0.15299c1.24445,-0.50944 2.03221,-1.76543 2.97752,-2.72176c5.03168,-5.09035 5.80991,-11.00831 1.42806,-16.86809c-3.46738,-4.63687 -10.48219,-4.64323 -15.72008,-4.33308c-0.28728,0.07431 -0.56918,0.08131 -0.82752,0.05203c-0.06285,0.00414 -0.12538,0.0083 -0.18757,0.01246l-1.49665,0.10013c0,0 -1.82017,0.12178 -2.45487,-1.39754zM74.00604,247.96981c0.01322,-0.01512 0.02646,-0.03001 0.03971,-0.04467c-3.89883,-5.6847 -11.65269,-8.29334 -18.66414,-7.46559c-3.59499,0.42441 -9.23933,4.12598 -9.67391,8.14125c-0.31895,2.94691 0.68456,5.90537 1.93726,8.48837c0.8874,1.89388 2.31688,4.46341 3.85014,5.91689c1.05595,1.001 2.50422,0.90478 3.80209,1.06488c3.96287,0.48886 6.92877,0.83593 10.87226,0.23249c2.50738,-0.38369 5.5501,-0.32116 7.96428,-0.94935c1.21022,-0.31491 1.89165,-1.72249 2.421,-2.65322c2.10048,-3.69314 0.68918,-5.38067 -1.65542,-8.72775l-0.65725,-0.47566c0,0 -1.88183,-1.64582 -0.23601,-3.52765z"/><path d="M59.55778,251.74705c-0.39527,0.09034 -0.70154,0.26473 -0.78732,0.63545c-0.42026,1.81636 0.25794,3.72245 0.50859,5.56987c0.05709,0.4208 0.64863,1.12236 0.96175,0.8355c2.79158,-2.55747 1.88556,-4.67214 -0.25048,-7.1064l-0.10201,0.24342c0,0 -0.13715,-0.05748 -0.33053,-0.17784zM63.0824,248.02632l0.69873,0.39483c1.44605,1.70753 3.0042,3.14806 3.36813,5.55899c0.74708,4.94912 -4.32423,11.68059 -9.74246,9.01405c-3.69065,-1.81633 -3.09639,-5.61361 -3.26959,-8.91665c-0.06332,-1.20756 -0.49214,-2.53303 0.02182,-3.62758c1.34973,-2.8744 3.50137,-3.01044 6.00932,-3.74292c0,0 2.1035,-0.56905 2.91404,1.31928z"/><path d="M-26.93638,252.89747c-0.15238,0.05579 -0.23256,0.1504 -0.17428,0.30147c0.19233,0.49851 0.69428,0.82862 0.91891,1.31343c0.22443,0.48438 0.1846,1.88561 0.55585,1.50199c1.01673,-1.05061 -0.21918,-1.82073 -0.94786,-2.54968zM-23.73324,248.88235c0.41472,0.3462 0.6357,0.72296 0.6357,0.72296l0.3046,0.59904c1.69248,2.13043 3.58629,3.49018 2.27006,6.82039c-1.4433,3.65168 -4.68925,5.10113 -8.22511,3.02108c-1.11908,-0.65832 -1.38393,-2.20317 -1.95182,-3.37073c-1.58589,-3.26055 -2.65617,-5.05241 1.04492,-8.192c0.95217,-0.80771 2.46784,-0.38193 3.70176,-0.57289c0,0 1.45887,-0.0976 2.2199,0.97216z"/><path d="M-11.49803,191.3079c-0.45993,0.05357 -0.81011,-0.0095 -0.81011,-0.0095c-4.48311,-0.8746 -6.76111,0.57736 -11.0849,1.30536c-1.79437,0.30212 -3.90729,0.10379 -5.14799,1.88073c-1.093,1.5654 0.22976,4.82396 0.35461,5.82171c0.21003,1.67852 0.06905,6.45856 1.21905,8.25099c0.64237,1.00123 2.19297,0.93882 3.3368,1.26554c3.88971,1.11104 7.21728,0.86761 11.20521,0.6008c5.74723,-0.38451 11.04335,-1.20677 16.69015,-2.11034c0.21182,-0.03389 3.43191,-0.098 4.00338,-0.48102c0.56068,-0.37579 2.24721,-3.1838 2.49915,-3.53485c0.14055,-0.19585 4.37129,-5.10748 3.59611,-6.57511c-0.47174,-0.89314 -2.9333,-2.3244 -3.77688,-2.86957c-5.01638,-3.24185 -8.62512,-3.41802 -14.4824,-3.05221c-1.66072,-0.21812 -3.35098,-0.27692 -5.02222,-0.16511zM-11.68056,186.33163c0.37164,-0.04098 0.63994,-0.00574 0.63994,-0.00574l2.28197,0.31198c1.67124,-0.11181 3.36151,-0.05301 5.02222,0.16511c6.67753,-0.48298 11.35824,0.13626 17.04925,3.85832c2.21942,1.45156 4.70542,2.82593 5.80384,5.50957c1.52764,3.73229 -2.47236,8.47672 -4.24899,10.98776c-1.16953,1.65298 -2.1697,3.78251 -3.9512,4.91459c-2.20316,1.40003 -3.63127,0.82585 -5.90756,1.18429c-5.77328,0.90911 -11.22872,1.76202 -17.1005,2.15486c-5.49204,0.36744 -15.01506,1.25683 -18.91842,-3.9129c-1.87653,-2.48534 -1.8238,-7.85095 -2.14201,-10.60778c-0.45458,-3.93838 -1.74982,-5.70157 0.44823,-9.17693c2.43031,-3.8426 6.93853,-3.62659 10.70708,-4.65587c1.08282,-0.29574 5.2246,-1.45024 6.0066,-1.45076c1.45668,-0.00097 2.87519,0.45637 4.30954,0.7235z"/></g><path d="M391.74148,261.67286l-0.0892,0.19418l0.06371,0.01062l-0.49324,2.95946c-0.179,1.20503 -1.21791,2.12954 -2.47274,2.12954c-0.82831,0 -1.56254,-0.40283 -2.01746,-1.02328l-1.48254,-1.97672l0.1321,-0.09907c-0.21412,-0.24765 -0.40385,-0.51498 -0.56093,-0.80867c-0.60112,-1.12386 0.35027,-2.52692 0.43735,-3.79846c0.01162,-0.16963 0.02025,-0.339 0.0262,-0.50814c-0.81196,1.92956 -1.73597,3.77763 -3.03497,5.55763l0.00025,0.15671c0,0 0,2.5 -2.5,2.5c-2.5,0 -2.5,-2.5 -2.5,-2.5l0.00066,-0.45606c-0.06885,-0.31994 -0.05484,-0.62754 0.00131,-0.90497l0.00185,-1.27722c0.23964,-2.16285 0.44174,-5.25592 1.07993,-7.50342c0.76616,-2.6982 2.04399,-4.91333 2.35084,-7.51204c-0.02356,-0.14709 -0.04594,-0.2952 -0.069,-0.44242c-0.13683,0.69552 -0.27505,1.39095 -0.41414,2.08641l-0.57974,1.80028c0,0 -0.79057,2.37171 -3.16228,1.58114c-2.37171,-0.79057 -1.58114,-3.16228 -1.58114,-3.16228l0.42026,-1.19972c1.01011,-5.05056 1.97677,-10.09935 2.68954,-15.19698c-0.351,-0.36624 -0.68538,-0.72312 -1.00586,-1.04496c-4.17505,-4.19284 -5.99534,-11.0733 1.10043,-13.67705c0.39122,-0.14356 0.80244,-0.18325 1.22181,-0.18054c0.25949,-0.31426 0.57195,-0.56274 0.96072,-0.70803c3.57497,-1.33605 5.43726,1.75568 6.9848,3.79786c2.33118,3.0763 3.65026,9.10651 1.21372,12.52935c1.48616,3.53609 3.30638,6.92068 5.02235,10.35262l1,2c0,0 1.11803,2.23607 -1.11803,3.3541c-0.89304,0.44652 -1.60775,0.35805 -2.14413,0.09069c0.34702,4.28312 0.52905,8.56209 0.51758,12.87945z" fill="#000000" stroke="none" stroke-width="0.5" stroke-linecap="butt"/></g></g></svg>