<svg version="1.1" xmlns="http://www.w3.org/2000/svg" xmlns:xlink="http://www.w3.org/1999/xlink" width="311.88454" height="284.41619" viewBox="0,0,311.88454,284.41619"><g transform="translate(-101.99168,-50.98551)"><g data-paper-data="{&quot;isPaintingLayer&quot;:true}" fill-rule="nonzero" stroke-linecap="round" stroke-miterlimit="10" stroke-dasharray="" stroke-dashoffset="0" style="mix-blend-mode: normal"><path d="M242.43466,259.66076c-0.60289,0.17545 -3.38181,-6.72841 -7.32199,-18.31717c-2.41383,-7.09739 -5.77928,-17.36429 -8.65548,-27.8525c-2.47207,-9.08961 -5.00787,-19.06059 -7.44541,-29.62802c-3.50526,-15.19591 -6.20398,-29.01271 -8.24107,-41.24966c0.07887,0.08675 0.15424,0.16902 0.22495,0.24243c0.03119,0.03224 0.06199,0.0592 0.08262,0.08308c0.03599,0.04175 0.06182,0.08444 0.08724,0.12556c0.04867,0.0791 0.08776,0.1523 0.11803,0.21735v0c-0.0063,-0.01919 -0.1245,-0.08132 -0.32951,-0.21034c-0.75625,-0.45633 -1.56849,-0.90185 -2.37093,-1.34591c-3.096,-1.71289 -6.03697,-3.29392 -8.75829,-4.77894c-12.95812,-7.07119 -20.87247,-11.71306 -20.53306,-12.37591c0.28547,-0.55721 8.74619,2.97024 22.11032,9.24512c2.7341,1.28386 5.90505,2.78524 9.04241,4.34634c0.81593,0.40528 1.68999,0.83918 2.56807,1.32111c0.1649,0.08296 0.42557,0.22848 0.76397,0.46408v0c0.06907,0.09433 0.14594,0.1967 0.22984,0.30935c0.04291,0.05809 0.08978,0.11852 0.1303,0.18429c0.0239,0.03783 0.03901,0.07421 0.05577,0.10783c0.03866,0.078 0.08108,0.15369 0.12733,0.23377c2.60395,12.44031 5.54986,25.78438 9.26352,41.48462c2.53599,10.72602 5.03633,20.88185 7.34402,30.16447c2.25837,9.18286 5.76996,22.04536 7.33952,28.03842c3.09041,11.80054 4.76783,19.0169 4.16785,19.19058z" data-paper-data="{&quot;index&quot;:null}" fill="#000000" stroke="none" stroke-width="9.375" stroke-linejoin="round"/><path d="M218.21655,139.38567c0.36674,0.33268 -1.77268,3.32604 -5.3753,8.54274c-4.05803,5.8757 -8.19511,12.04175 -14.29357,21.90232c-5.59521,9.05177 -10.83692,18.03024 -17.26312,29.25861c-0.11429,0.20038 -1.81652,3.17786 -1.93109,3.37809c-6.2399,10.92295 -11.89115,22.1476 -16.3129,30.98355c-8.46302,16.91524 -13.86889,28.20032 -14.71328,27.81949c-0.72786,-0.32922 3.29159,-12.24866 11.00459,-29.66701c4.07558,-9.20412 9.38735,-20.45027 15.74807,-31.69043c0.63639,-1.12498 1.28023,-2.25706 1.93145,-3.39407c6.29321,-10.99741 12.09497,-20.49321 17.91763,-29.13657c6.25418,-9.28775 11.47805,-16.04453 15.91758,-21.0807c4.23928,-4.8095 7.03887,-7.21593 7.36997,-6.91603z" data-paper-data="{&quot;index&quot;:null}" fill="#000000" stroke="none" stroke-width="9.375" stroke-linejoin="round"/><path d="M217.59098,167.53877c0.08058,-0.52739 7.97367,0.13288 20.71318,1.03832c13.78676,0.97981 29.29697,1.94375 49.82495,2.64894c1.35845,0.04669 2.70728,0.09153 4.04695,0.13358c13.17273,0.41716 24.7817,0.57392 35.17334,0.62455c18.92137,0.08974 31.41489,-0.31327 31.44934,0.17998c0.05372,0.76667 -12.43039,2.30178 -31.47588,2.86771c-10.31866,0.30715 -22.21957,0.3627 -35.33644,-0.01373c-1.34435,-0.0387 -2.69904,-0.08132 -4.06236,-0.1283c-19.9936,-0.68599 -36.78483,-2.10936 -49.92782,-3.73338c-12.71633,-1.5714 -20.47771,-3.14233 -20.40526,-3.61766z" data-paper-data="{&quot;index&quot;:null}" fill="#000000" stroke="none" stroke-width="9.37509" stroke-linejoin="round"/><path d="M242.0003,258.19993c0.19193,-0.59379 11.45094,1.90023 29.17128,7.56387c18.03655,5.76549 41.51084,14.44303 67.42242,26.67737c3.65209,1.72414 7.23125,3.4618 10.73574,5.20822c13.52602,6.73913 25.40226,13.221 36.08201,19.62748v0c5.74023,3.4416 10.59131,6.51224 15.15925,9.90441c1.77479,1.31533 3.40931,2.60752 4.9149,4.07006c0.55635,0.5375 1.09943,1.11481 1.59535,1.7657c-0.16403,0.56131 -0.29889,1.26267 -0.52452,2.1118c-0.70703,-1.30484 -1.08556,-2.60844 -1.15695,-3.82345c0.42707,-1.47128 1.08871,-2.77224 1.66997,-3.8495c4.13784,-7.74715 6.37487,-12.28235 6.69842,-12.17403c0.5336,0.1786 -0.90397,5.05944 -4.42689,13.20997c-0.46692,1.09656 -0.9757,2.29523 -1.20058,3.43557c-0.64591,1.07925 -1.14082,2.248 -1.52168,3.47431c-0.52733,-0.07684 -1.24821,-0.20454 -2.03599,-0.42782c-0.38332,-0.44976 -0.8457,-0.87851 -1.3674,-1.3355c-1.41977,-1.23784 -2.99103,-2.34354 -4.78181,-3.55092c-4.62034,-3.10693 -9.40349,-5.8781 -15.24356,-9.1524v0c-10.85974,-6.08345 -22.58882,-12.22185 -36.15411,-18.88629c-3.48878,-1.71417 -7.04495,-3.42734 -10.66977,-5.13889c-25.88381,-12.22126 -48.61179,-21.18039 -66.42085,-27.84342c-17.30857,-6.47593 -28.17524,-10.15414 -27.94518,-10.86658z" data-paper-data="{&quot;index&quot;:null}" fill="#000000" stroke="none" stroke-width="9.375" stroke-linejoin="round"/><path d="M264.71442,100.41109c6.55376,28.3155 -10.66043,56.66487 -38.92637,63.43236c-28.26533,6.76697 -56.66451,-10.66048 -63.43192,-38.92611c-6.76701,-28.26536 11.34413,-54.26858 38.92568,-63.43219c28.43623,-9.44744 56.71376,9.89746 63.43262,38.92594z" data-paper-data="{&quot;index&quot;:null}" fill="#f2f2f2" stroke="none" stroke-width="9.0943" stroke-linejoin="round"/><path d="M168.40168,86.72166c26.83525,-42.97704 81.93454,-37.08375 96.23726,13.63043c4.93214,21.31132 -3.59991,42.64009 -20.1731,54.77426c-36.95326,21.6609 -91.73213,-8.56662 -76.06416,-68.40466z" data-paper-data="{&quot;index&quot;:null}" fill="#ffffff" stroke="none" stroke-width="9.09417" stroke-linejoin="round"/><path d="M245.87452,70.60195c-0.25595,0.26735 -5.04252,-5.31763 -16.26883,-8.77313v0c-4.7048,-1.45279 -10.51816,-2.30478 -17.11007,-1.69461c-5.33765,0.49362 -11.05823,1.93334 -16.85233,4.55074c-5.13443,2.32128 -10.25596,5.54578 -14.98313,9.7419c-4.2991,3.81938 -8.27113,8.45 -11.42125,13.82296c-2.93658,5.00942 -5.1705,10.701 -6.21324,16.76769c-1.03884,6.01262 -0.88771,12.4139 0.57104,18.68878c1.59593,6.90759 4.76237,13.5964 9.044,19.78481c4.26925,6.1988 10.71885,11.00404 18.04277,14.18787c0.32676,0.14203 0.65575,0.28024 0.9864,0.41516c7.52051,3.0735 15.62553,4.3715 23.49258,4.19931c8.8007,-0.20618 17.28655,-2.26812 24.61939,-6.06826c8.01337,-4.14471 14.48627,-10.4113 18.64029,-17.58364v0c4.43987,-7.62629 6.234,-16.24542 6.14223,-24.17986c-0.10377,-9.03259 -2.49949,-17.40916 -5.68709,-24.34053c-3.97489,-8.61938 -9.12722,-15.08479 -14.18251,-19.70906c-5.29553,-4.83097 -10.15921,-7.37583 -13.7104,-8.81054c-3.50128,-1.415 -5.53338,-1.79554 -5.50175,-1.99623c0.022,-0.13404 2.1245,-0.21838 5.88657,0.88826c3.76738,1.10779 9.08377,3.44338 14.80033,8.22925c5.47355,4.56985 11.13073,11.14517 15.5296,20.04955c3.55033,7.16803 6.28019,15.94246 6.58652,25.60697c0.26946,8.52978 -1.52592,17.8619 -6.27541,26.31317v0c-4.47507,7.92253 -11.44855,14.83985 -20.18772,19.4408c-7.95792,4.18302 -17.09365,6.478 -26.54833,6.7182c-8.4444,0.2255 -17.16828,-1.16444 -25.34333,-4.49552c-0.3591,-0.14656 -0.71656,-0.29641 -1.07244,-0.4499c-8.01076,-3.43741 -15.10452,-8.80512 -19.96661,-15.82526c-4.55523,-6.60444 -7.90975,-13.84003 -9.61658,-21.38711c-1.54588,-6.87214 -1.64291,-13.8556 -0.44086,-20.42344c1.21727,-6.61442 3.70621,-12.73762 6.94925,-18.08264c3.47367,-5.72552 7.79098,-10.5942 12.43666,-14.5635c5.10307,-4.36148 10.6053,-7.65541 16.09569,-9.97663c6.195,-2.62108 12.30457,-3.96216 17.96936,-4.29842c7.00464,-0.41581 13.11829,0.75317 17.97928,2.52836v0c12.02037,4.39937 15.36173,10.98409 15.61004,10.7245z" data-paper-data="{&quot;index&quot;:null}" fill="#000000" stroke="none" stroke-width="9.375" stroke-linejoin="round"/><path d="M219.81811,114.44259c1.88504,-0.46704 3.94272,1.50156 4.59384,4.39403c0.65101,2.89225 -0.35038,5.61845 -2.23549,6.0852c-1.88409,0.46679 -3.94178,-1.5018 -4.59289,-4.39428c-0.65101,-2.89225 0.3499,-5.61833 2.23456,-6.08497z" data-paper-data="{&quot;index&quot;:null}" fill="#000000" stroke="none" stroke-width="9.375" stroke-linejoin="round"/><path d="M259.0273,104.29921c1.88504,-0.46704 3.94272,1.50155 4.59384,4.39403c0.65101,2.89225 -0.35039,5.61845 -2.2355,6.0852c-1.88409,0.46679 -3.94178,-1.50179 -4.59289,-4.39428c-0.65101,-2.89225 0.34989,-5.61833 2.23455,-6.08497z" data-paper-data="{&quot;index&quot;:null}" fill="#000000" stroke="none" stroke-width="9.375" stroke-linejoin="round"/><path d="M179.67283,110.80825c0,0 4.81464,10.21537 5.35899,21.89843c0.72612,15.58444 -1.1547,62.22989 -1.1547,62.22989c0,0 -20.48927,-8.56321 -26.61328,-21.33975c-3.63088,-7.57511 -6.33167,-18.16823 -6.33167,-18.16823l-16.14766,27.4181c0,0 -11.54286,-31.1365 -8.32125,-49.70481c3.07554,-17.72644 7.53178,-17.23081 7.53178,-17.23081c0,0 -32.17349,6.73442 -32.00267,6.35272c16.95273,-37.885 46.08662,-61.00868 87.39104,-69.74538c73.64,-11.51152 75.31852,45.58917 75.31852,45.58917l-13.65486,-8.86254l-3.86299,17.00963l-16.2341,-12.84344l-2.78648,15.18176l-15.48273,-9.93906l-4.84796,15.19859l-12.57835,-10.69042l-4.34705,17.13485l-11.23454,-9.48868z" fill="#000000" stroke="none" stroke-width="0" stroke-linejoin="miter"/><path d="M174.99841,102.72123c0,0 5.2577,19.9135 5.80204,31.59657c0.72612,15.58443 -1.22207,53.98395 -1.22207,53.98395c0,0 -13.05255,-3.7731 -19.17655,-16.54964c-3.63088,-7.57511 -8.56892,-24.8199 -8.56892,-24.8199l-17.1158,27.66856c0,0 -7.60297,-23.89238 -4.38136,-42.46069c3.07554,-17.72644 13.68255,-21.40431 13.68255,-21.40431c0,0 -35.07787,7.48579 -34.90706,7.10408c16.95273,-37.885 58.23875,-57.95491 82.24209,-61.69935c63.58303,-10.45916 69.78436,36.17518 69.78436,36.17518l-12.20267,-9.23822l-3.86299,17.00963l-16.2341,-12.84344l-2.78648,15.18176l-15.48273,-9.93906l-4.84796,15.19859l-12.57835,-10.69042l-4.34705,17.13485l-13.79693,-11.4081z" fill="#754200" stroke="none" stroke-width="0" stroke-linejoin="miter"/><path d="M208.93489,110.54278c-0.0322,-0.11743 1.24142,-0.36149 3.47508,-0.30782c1.13881,0.02736 5.05657,0.2451 8.42442,1.32962c3.34606,1.07749 6.1439,3.02001 6.7927,3.58637c1.27917,1.11694 1.56111,1.90753 1.377,1.94968c-0.09179,0.02109 -1.1126,-0.8374 -2.59137,-1.60991c-1.98414,-1.03651 -5.1759,-3.28108 -11.36338,-4.20447c-4.57563,-0.68285 -6.07404,-0.59498 -6.11445,-0.74347z" data-paper-data="{&quot;index&quot;:null}" fill="#000000" stroke="none" stroke-width="9.375" stroke-linejoin="round"/><path d="M248.99601,138.55584l5.9015,12.89895c0,0 -51.14076,15.56033 -55.15177,-6.24878c-5.77569,-31.40421 34.54069,-7.98158 44.08086,-7.26191c13.02896,0.98287 15.87692,-6.32571 15.87692,-6.32571" fill="#ffffff" stroke="#000000" stroke-width="1.5" stroke-linejoin="miter"/><path d="M200.32577,142.49139l24.47785,1.68185" fill="none" stroke="#000000" stroke-width="1.5" stroke-linejoin="miter"/><path d="M312.72948,209.67863c3.31786,2.30263 6.5616,4.60655 9.73023,6.9068c12.22994,8.8768 22.8751,17.22787 32.35258,25.30732v0c5.09432,4.34083 9.3728,8.16919 13.31902,12.26801c1.53366,1.58993 2.93282,3.1339 4.17666,4.82463c0.46012,0.62185 0.90062,1.28081 1.28244,2.00455c-0.25432,0.52658 -0.50297,1.19614 -0.86549,1.99645c-0.48225,-1.40355 -0.64068,-2.75172 -0.51078,-3.96188c0.66377,-1.38074 1.53083,-2.55485 2.28175,-3.52153c5.35843,-6.95899 8.31247,-11.06336 8.61375,-10.90318c0.49688,0.26414 -1.72569,4.84118 -6.54408,12.29942c-0.6413,1.00459 -1.34075,2.10298 -1.75054,3.19065c-0.81501,0.958 -1.49582,2.02917 -2.07363,3.17591c-0.50746,-0.16271 -1.19743,-0.4075 -1.93759,-0.75762c-0.30393,-0.5068 -0.68929,-1.00591 -1.12853,-1.54265c-1.19628,-1.45496 -2.56375,-2.80458 -4.131,-4.29066c-4.04492,-3.82613 -8.30576,-7.3479 -13.52615,-11.54019v0c-9.70825,-7.79053 -20.26488,-15.77855 -32.54589,-24.58816c-3.15846,-2.26586 -6.38353,-4.54186 -9.67658,-6.82757c-23.51488,-16.32116 -67.07874,44.73745 -67.07874,44.73745c0,0 40.37496,-70.3909 70.01261,-48.77779z" data-paper-data="{&quot;index&quot;:null}" fill="#000000" stroke="none" stroke-width="9.375" stroke-linejoin="round"/></g></g></svg>