<svg xmlns="http://www.w3.org/2000/svg" xmlns:xlink="http://www.w3.org/1999/xlink" version="1.1" width="158.25877" height="88.71073" viewBox="0,0,158.25877,88.71073"><defs><radialGradient cx="274.39758" cy="179.49858" r="31.95415" gradientUnits="userSpaceOnUse" id="color-1"><stop offset="0" stop-color="#efefef"/><stop offset="1" stop-color="#e2e2e2"/></radialGradient><linearGradient x1="248.09838" y1="177.38729" x2="323.24419" y2="177.38729" gradientUnits="userSpaceOnUse" id="color-2"><stop offset="0" stop-color="#33f5ff" stop-opacity="0"/><stop offset="1" stop-color="#33f5ff"/></linearGradient><radialGradient cx="109.4122" cy="46.4667" r="31.9541" gradientUnits="userSpaceOnUse" id="color-1-,0,0,1,-164.98542,-133.03192"><stop offset="0" stop-color="#efefef"/><stop offset="1" stop-color="#e2e2e2"/></radialGradient><linearGradient x1="83.113" y1="44.3554" x2="158.2588" y2="44.3554" gradientUnits="userSpaceOnUse" id="color-2-,0,0,1,-164.98542,-133.03192"><stop offset="0" stop-color="#33f5ff" stop-opacity="0"/><stop offset="1" stop-color="#33f5ff"/></linearGradient></defs><g><g data-paper-data="{&quot;isPaintingLayer&quot;:true}" fill-rule="nonzero" stroke-linejoin="miter" stroke-miterlimit="10" stroke-dasharray="" stroke-dashoffset="0" style="mix-blend-mode: normal"><path d="" data-paper-data="{&quot;index&quot;:null}" fill="none" stroke="#000000" stroke-width="0.87853" stroke-linecap="round" transform="matrix(1,0,0,1,-164.98542,-133.03192)"/><path d="" data-paper-data="{&quot;index&quot;:null}" fill="none" stroke="#000000" stroke-width="0.87853" stroke-linecap="round" transform="matrix(1,0,0,1,-164.98542,-133.03192)"/><path d="M 5.6862 45.5181 C 5.6862 45.5181 5.3713 42.3063 6.7085 42.5285 C 12.0447 43.4193 42.715 54.8178 42.715 54.8178 " data-paper-data="{&quot;index&quot;:null}" fill="none" stroke="#000000" stroke-width="2" stroke-linecap="round"/><path d="M 11.3162 32.1287 C 11.3162 32.1287 11.3964 28.9702 12.6764 29.2855 C 17.7835 30.5478 48.0581 46.1323 48.0581 46.1323 " data-paper-data="{&quot;index&quot;:null}" fill="none" stroke="#000000" stroke-width="2" stroke-linecap="round"/><path d="M 10.7748 46.2331 C 10.4332 47.4196 9.575 48.6216 8.282 49.557 C 6.989 50.4925 5.504 50.9857 4.1492 51.0264 C 2.7945 51.0672 1.5697 50.6561 0.7978 49.7832 C 0.0259 48.9103 -0.2079 47.6145 0.1932 46.5527 C 3.3769 42.865 4.7916 42.253 6.8188 41.7594 C 7.9838 41.5568 9.3963 42.1274 10.1702 43.0026 C 10.9441 43.8778 11.1164 45.0465 10.7747 46.2331 Z " data-paper-data="{&quot;origRot&quot;:0,&quot;index&quot;:null}" fill="#000000" stroke="none" stroke-width="2" stroke-linecap="round"/><path d="M 15.5034 33.3915 C 15.0622 34.5101 14.1189 35.5957 12.7787 36.3826 C 11.4385 37.1696 9.9533 37.51 8.6362 37.4239 C 7.3191 37.3378 6.1699 36.8258 5.5026 35.908 C 4.8352 34.9902 4.7287 33.7124 5.216 32.7204 C 8.6441 29.4407 10.0723 28.9785 12.0832 28.688 C 13.2313 28.5996 14.5477 29.2838 15.2168 30.2039 C 15.8859 31.124 15.9445 32.273 15.5033 33.3915 Z " data-paper-data="{&quot;origRot&quot;:0,&quot;index&quot;:null}" fill="#000000" stroke="none" stroke-width="2" stroke-linecap="round"/><path d="M 83.9537 55.7793 C 83.4905 58.5438 80.4242 60.6054 75.8447 61.7027 C 71.2656 62.8006 65.1729 62.9341 58.6565 61.8425 C 52.1402 60.7508 46.4237 58.6389 42.4524 56.1085 C 38.4805 53.5786 36.2535 50.6302 36.7166 47.8657 C 37.1798 45.1011 40.2461 43.0395 44.8256 41.9422 C 49.4048 40.8443 55.4974 40.7108 62.0138 41.8025 C 68.5301 42.8941 74.2467 45.006 78.2179 47.5364 C 82.1898 50.0663 84.4168 53.0147 83.9537 55.7792 Z " fill="#989898" stroke="#000000" stroke-width="2" stroke-linecap="butt"/><g data-paper-data="{&quot;index&quot;:null}" stroke-linecap="butt"><path d="M 60.6799 52.2396 L 81.5718 55.7396 L 80.3246 63.1838 L 59.4328 59.6838 Z " stroke-width="2" fill="#544b2b" stroke="#000000"/><path d="M 55.7497 60.3012 C 53.0309 59.8457 51.2141 57.165 51.6918 54.3135 C 52.1695 51.4621 54.7608 49.5199 57.4796 49.9753 C 60.1983 50.4308 62.0151 53.1116 61.5374 55.963 C 61.0597 58.8144 58.4685 60.7567 55.7497 60.3012 Z " stroke-width="2" fill="#544b2b" stroke="#000000"/></g><g><path d="M 131.7004 24.6992 C 137.5609 30.1123 141.2467 37.6493 141.3632 46.022 C 141.4797 54.3947 138.0051 62.0313 132.2975 67.6054 C 126.59 73.1795 118.6496 76.6913 109.8345 76.814 C 101.0195 76.9367 92.9844 73.6472 87.1239 68.2341 C 81.2634 62.821 77.5776 55.284 77.4611 46.9113 C 77.3446 38.5386 80.8192 30.902 86.5268 25.3279 C 92.2344 19.7538 100.1748 16.242 108.9898 16.1193 C 117.8049 15.9966 125.84 19.2861 131.7004 24.6992 Z " data-paper-data="{&quot;index&quot;:null}" fill="url(#color-1-,0,0,1,-164.98542,-133.03192)" stroke="#000000" stroke-linecap="butt" stroke-width="2"/><path d="M 121.53 35.753 C 122.8561 35.7346 124.0758 37.0139 124.9751 39.0955 C 125.8744 41.177 126.4533 44.061 126.4977 47.2516 C 126.5421 50.4423 126.0437 53.3411 125.2027 55.447 C 124.3616 57.5527 123.178 58.8655 121.8519 58.8839 C 120.5257 58.9024 119.306 57.6231 118.4067 55.5416 C 117.5074 53.4599 116.9285 50.5761 116.8841 47.3854 C 116.8397 44.1947 117.3381 41.2958 118.1791 39.1901 C 119.0202 37.0842 120.2038 35.7715 121.53 35.753 Z " data-paper-data="{&quot;index&quot;:null}" fill="#000000" stroke="none" stroke-linecap="butt" stroke-width="2"/><path d="M 101.2275 35.973 C 102.5536 35.9546 103.7733 37.2339 104.6727 39.3155 C 105.572 41.3971 106.1508 44.281 106.1953 47.4716 C 106.2397 50.6623 105.7413 53.5611 104.9002 55.667 C 104.0592 57.7728 102.8755 59.0855 101.5494 59.104 C 100.2233 59.1224 99.0035 57.8431 98.1042 55.7616 C 97.2049 53.6799 96.626 50.7961 96.5816 47.6054 C 96.5372 44.4148 97.0356 41.5159 97.8767 39.4101 C 98.7177 37.3042 99.9014 35.9915 101.2275 35.973 Z " data-paper-data="{&quot;index&quot;:null}" fill="#000000" stroke="none" stroke-linecap="butt" stroke-width="2"/><path d="M 126.3801 24.8724 L 128.4051 22.3849 " data-paper-data="{&quot;index&quot;:null}" fill="none" stroke="#000000" stroke-linecap="round" stroke-width="2"/><path d="M 85.2484 32.7492 L 82.7458 30.5862 " data-paper-data="{&quot;index&quot;:null}" fill="none" stroke="#000000" stroke-linecap="round" stroke-width="2"/><path d="M 77.7257 44.9419 L 81.5826 45.7124 " data-paper-data="{&quot;index&quot;:null}" fill="none" stroke="#000000" stroke-linecap="round" stroke-width="2"/><path d="M 85.9092 60.4875 L 82.9222 63.0016 " data-paper-data="{&quot;index&quot;:null}" fill="none" stroke="#000000" stroke-linecap="round" stroke-width="2"/><path d="M 95.3628 68.5978 L 92.9442 72.4776 " data-paper-data="{&quot;index&quot;:null}" fill="none" stroke="#000000" stroke-linecap="round" stroke-width="2"/><path d="M 111.3374 72.7711 L 111.3833 76.0672 " data-paper-data="{&quot;index&quot;:null}" fill="none" stroke="#000000" stroke-linecap="round" stroke-width="2"/><path d="M 126.1808 71.7558 L 124.2084 68.2119 " data-paper-data="{&quot;index&quot;:null}" fill="none" stroke="#000000" stroke-linecap="round" stroke-width="2"/><path d="M 134.7875 58.1721 L 137.5686 60.606 " data-paper-data="{&quot;index&quot;:null}" fill="none" stroke="#000000" stroke-linecap="round" stroke-width="2"/><path d="M 135.5635 35.6204 L 138.562 33.9303 " data-paper-data="{&quot;index&quot;:null}" fill="none" stroke="#000000" stroke-linecap="round" stroke-width="2"/><path d="M 96.3531 64.3711 C 96.3531 64.3711 99.1538 64.1418 100.1885 64.4326 C 101.3096 64.7476 102.8412 66.1943 102.8412 66.1943 " data-paper-data="{&quot;index&quot;:null}" fill="none" stroke="#000000" stroke-linecap="round" stroke-width="2"/><g data-paper-data="{&quot;index&quot;:null}"><path d="M 111.9148 43.6199 L 124.2095 32.3731 " fill="none" stroke-linecap="round" stroke-width="2" stroke="#000000"/><path d="M 124.3177 31.6308 " fill="none" stroke-linecap="round" stroke-width="2" stroke="#000000"/><path d="M 127.097 30.1148 L 124.531 34.8429 C 124.531 34.8429 125.4619 32.0904 125.0283 31.5729 C 124.6285 31.0959 122.0224 31.8494 122.0224 31.8494 Z " fill="#000000" stroke-linecap="butt" stroke-width="2" stroke="#000000"/></g><g data-paper-data="{&quot;index&quot;:null}"><path d="M 96.2287 32.0016 L 111.1848 43.6204 " fill="none" stroke-linecap="round" stroke-width="2" stroke="#000000"/><path d="M 97.1629 31.9919 " fill="none" stroke-linecap="round" stroke-width="2" stroke="#000000"/><path d="M 99.4487 32.4326 C 99.4487 32.4326 96.8384 31.494 96.4088 31.9646 C 95.9614 32.4547 96.8156 35.3172 96.8156 35.3172 L 94.4521 30.4845 Z " fill="#000000" stroke-linecap="butt" stroke-width="2" stroke="#000000"/></g><path d="M 136.6528 48.5155 L 141.1168 48.8556 " fill="none" stroke="#000000" stroke-linecap="round" stroke-width="2"/><path d="M 96.0929 24.0484 L 93.6866 20.2732 " fill="none" stroke="#000000" stroke-linecap="round" stroke-width="2"/><path d="M 110.475 16.0988 L 110.6131 21.76 " fill="none" stroke="#000000" stroke-linecap="round" stroke-width="2"/></g><path d="M 32.5935 16.5084 L 76.5361 48.5132 L 47.3468 18.3699 " fill="none" stroke="#000000" stroke-width="2" stroke-linecap="round"/><path d="M 96.8775 81.4166 C 96.4197 81.4336 95.9207 81.4682 95.3567 81.5429 C 94.1898 81.6974 92.3995 82.3382 91.1964 82.9376 C 91.6797 82.8177 92.1619 82.6994 92.6243 82.5528 C 94.0407 82.1038 95.4573 81.7308 96.8775 81.4166 Z M 128.1584 7.604 C 128.1802 7.5957 128.2022 7.5876 128.2245 7.5796 C 130.0379 6.9265 130.9566 8.175 131.2824 8.7812 C 133.4612 10.3786 135.0183 12.2284 136.9837 14.1755 C 138.3671 15.546 140.2438 16.4985 141.2514 18.1649 C 142.0691 19.517 142.5191 21.0749 142.9077 22.6065 C 143.2566 23.9818 142.5679 25.6522 143.3428 26.8407 C 144.2471 28.2275 146.0829 28.7438 147.2127 29.954 C 148.1049 30.9098 148.8225 32.0162 149.5752 33.0853 C 154.0897 39.4973 156.4205 46.7055 158.2474 54.2828 C 158.1472 56.1348 158.4776 58.0617 157.9468 59.8388 C 155.6017 67.6917 147.074 64.699 141.7003 68.5116 C 136.8221 71.9726 135.4975 77.5989 130.4731 80.8408 C 121.0349 86.9307 108.3616 83.3082 97.9672 85.9516 C 95.4608 86.589 90.8839 88.9937 88.4098 88.6832 C 86.4401 88.436 84.8786 86.8682 83.1129 85.9606 C 83.7452 84.4308 84.0564 82.7245 85.0096 81.3712 C 86.9065 78.6781 91.4997 77.0616 94.6041 76.5999 C 96.0735 76.3813 98.6541 76.7328 100.1633 75.8953 C 101.6992 75.0429 104.007 72.4976 105.2305 71.3452 C 108.0455 68.6941 111.1912 66.3612 114.1971 63.9386 C 114.957 63.3262 115.6524 62.6147 116.4008 61.9845 C 114.2267 60.6421 112.0788 56.3102 112.1714 55.2873 C 112.7256 49.1633 121.7724 48.6944 124.1183 43.833 C 123.9632 42.0974 123.9636 40.9371 123.1531 39.1984 C 122.7318 38.2948 121.661 37.7117 121.4551 36.7363 C 121.1442 35.2629 121.0624 33.5972 121.6815 32.2245 C 123.065 29.1567 128.3301 28.796 125.4221 24.6567 C 122.6603 20.7256 116.5771 20.0182 112.8126 17.7294 C 110.0576 16.0544 108.2948 13.178 105.6512 11.4064 C 103.3989 9.8971 99.1467 9.4072 97.4147 7.293 C 97.322 7.1799 97.2325 7.0646 97.1458 6.9474 L 97.0995 6.9874 L 94.8598 4.3965 C 94.647 4.1616 94.4756 3.882 94.3615 3.5652 C 93.8937 2.2662 94.5675 0.8339 95.8666 0.3661 C 96.0997 0.2821 96.3371 0.2349 96.5724 0.2215 L 99.3568 0 L 99.3676 0.1357 L 99.7749 0.0018 C 109.3215 2.3941 119.0542 3.8666 128.1584 7.604 Z " fill="url(#color-2-,0,0,1,-164.98542,-133.03192)" stroke="none" stroke-width="0.5" stroke-linecap="butt"/></g></g></svg>