<svg version="1.1" xmlns="http://www.w3.org/2000/svg" xmlns:xlink="http://www.w3.org/1999/xlink" width="220.12243" height="396.95987" viewBox="0,0,220.12243,396.95987"><g transform="translate(-121.73955,-0.50001)"><g data-paper-data="{&quot;isPaintingLayer&quot;:true}" fill-rule="nonzero" stroke-linejoin="miter" stroke-miterlimit="10" stroke-dasharray="" stroke-dashoffset="0" style="mix-blend-mode: normal"><g data-paper-data="{&quot;origPos&quot;:null,&quot;origRot&quot;:0}" stroke="#000000" stroke-width="5" stroke-linecap="round"><path d="M318.5122,211.06877c2.40798,1.53092 4.91804,2.56025 6.88919,3.58481c1.6878,0.8766 3.09202,2.45326 3.8957,4.17715c0.77226,1.65646 0.74288,3.63373 0.59943,5.45587c-0.13923,1.76043 -0.34939,3.71156 -1.43221,5.10617c-2.19318,2.82423 -4.95618,5.31511 -8.05175,7.10511c-1.71916,0.99378 -3.90296,0.86029 -5.88631,0.95609c-1.76221,0.08517 -3.56809,0.0068 -5.28098,-0.41642c-1.61636,-0.39913 -4.28516,-0.55323 -4.5749,-2.01762c-0.30268,-1.52917 2.33158,-2.5904 3.39013,-3.96958c3.43214,-4.46904 7.15026,-8.77593 10.0893,-13.58377c0.7343,-1.20184 -0.5812,-3.56684 0.69906,-4.06337z" data-paper-data="{&quot;origPos&quot;:null,&quot;index&quot;:null}" id="ID0.8610531273297966" fill="#e1ba87"/><path d="M239.46174,148.11346c3.33591,0.0094 5.20431,4.1304 7.73504,6.41631c4.64877,4.36267 8.93521,9.22034 13.80262,13.51811c5.17321,4.55429 10.95736,8.93909 16.1641,12.6973c6.58728,4.8016 13.57313,9.08682 20.31954,13.68809c6.60728,4.52691 15.16874,9.46583 21.69897,15.22015c1.65051,1.46271 2.47439,2.75083 1.22673,4.44361c-4.99167,6.77276 -9.17463,15.98211 -17.14084,17.39077c-8.05784,1.75929 -15.73336,-5.20536 -22.50291,-9.5522c-7.25114,-4.6628 -13.70548,-10.58902 -19.81994,-16.6672c-6.76804,-6.72228 -13.86505,-13.68305 -19.57469,-21.50581c-4.18073,-5.72697 -7.19961,-11.92394 -9.34173,-18.35034c-1.20473,-3.82461 -2.10874,-8.36427 -0.49798,-11.78994c1.37153,-2.88971 4.43964,-5.48433 7.93107,-5.50883z" data-paper-data="{&quot;origPos&quot;:null,&quot;index&quot;:null}" id="ID0.4585498459637165" fill="#cc7700"/></g><path d="M297.30704,393.93066l-88.92323,-100.24301l32.16753,-28.53507c0,0 29.68558,35.82172 51.02587,57.52928c10.71219,10.89654 31.10456,26.01469 31.10456,26.01469l15.02172,9.39936z" data-paper-data="{&quot;origPos&quot;:null,&quot;index&quot;:null,&quot;origRot&quot;:0}" fill="#353535" stroke="#000000" stroke-width="5" stroke-linecap="butt"/><path d="M124.79544,316.25637c0,0 36.39852,-1.13067 67.11448,-7.53933c20.47688,-4.27234 33.87398,-50.63939 33.87398,-50.63939l26.92459,28.27818c0,0 -33.79172,52.59087 -63.23304,60.32615c-14.77866,3.88289 -38.0304,14.06932 -38.0304,14.06932l-15.62041,8.36675z" data-paper-data="{&quot;origPos&quot;:null,&quot;index&quot;:null,&quot;origRot&quot;:0}" fill="#616161" stroke="#000000" stroke-width="5" stroke-linecap="butt"/><path d="M268.54965,282.50001c-0.782,3.383 1.025,0.996 -5.5,1c-26.099,0.014 -51.71,0.549 -77.5,0c-6.456,-0.141 -6.136,7.9 -6.5,-0.5c-1.458,-33.601 0.11,-68.09 2.5,-102c0.938,-13.476 3.134,-26.295 7.4,-38.5c1.082,-3.305 2.823,-4.738 7.6,-5c19.107,-1.048 38.393,-1.237 57.5,0c4.777,0.309 10.441,0.527 12,4.5c4.279,10.904 3.004,23.297 3.5,35c0.842,20.069 0.637,42.026 0.25,63c-0.253,13.939 0.676,28.434 -1.25,42.5z" data-paper-data="{&quot;origPos&quot;:null,&quot;index&quot;:null}" id="ID0.6861933465115726" fill="#ff9400" stroke="#000000" stroke-width="5" stroke-linecap="round"/><path d="M187.90516,164.78736l7.66667,-8.66667" data-paper-data="{&quot;origPos&quot;:null}" fill="none" stroke="#cc7700" stroke-width="5" stroke-linecap="round"/><g data-paper-data="{&quot;origPos&quot;:null,&quot;origRot&quot;:0}" stroke-width="5" stroke-linecap="round"><path d="M204.23333,143.93879c0.80111,3.23835 -2.74274,6.0517 -4.34557,9.06179c-3.10295,5.5692 -6.7741,10.90708 -9.76095,16.67254c-3.16153,6.12444 -6.01018,12.80038 -8.39129,18.76396c-3.05794,7.5563 -5.51809,15.37376 -8.34308,23.03569c-2.78657,7.50887 -5.4983,17.0135 -9.49426,24.74589c-1.01802,1.95625 -2.06745,3.06835 -4.01256,2.26921c-7.78236,-3.19725 -17.73191,-5.01824 -21.03318,-12.40386c-3.66368,-7.38924 1.22824,-16.5265 3.80073,-24.14906c2.76206,-8.16653 6.94321,-15.86694 11.35438,-23.27452c4.87724,-8.19812 9.9059,-16.77321 16.10768,-24.21188c4.54006,-5.44648 9.81831,-9.88005 15.53193,-13.51884c3.41755,-2.09757 7.6017,-4.07704 11.31594,-3.34655c3.13639,0.62862 6.39845,2.97468 7.27023,6.35562z" data-paper-data="{&quot;origPos&quot;:null,&quot;index&quot;:null,&quot;origRot&quot;:0}" id="ID0.4585498459637165" fill="#ff9400" stroke="#000000"/><path d="M141.20815,224.27831c0,0 2.94202,-12.39284 5.05979,-18.37522c2.44439,-6.92234 4.64105,-14.80226 8.67848,-21.31886c7.62335,-12.29163 16.48115,-24.39143 26.99555,-34.89255c3.58825,-3.89912 14.52298,-7.50286 14.52298,-7.50286" data-paper-data="{&quot;origPos&quot;:null,&quot;index&quot;:null,&quot;origRot&quot;:0}" id="ID0.497054744977504" fill="none" stroke="#cc7700"/><path d="M161.3252,238.47749c-1.364,2.50631 -2.22077,5.0804 -3.10926,7.11653c-0.76011,1.74335 -2.23791,3.25123 -3.90332,4.17002c-1.60027,0.88281 -3.57499,0.98762 -5.40257,0.96811c-1.7659,-0.01951 -3.72675,-0.09687 -5.19162,-1.08263c-2.96642,-1.99649 -5.63894,-4.58424 -7.63486,-7.55125c-1.10809,-1.64782 -1.12295,-3.83565 -1.35309,-5.8079c-0.20448,-1.75237 -0.24876,-3.55945 0.05726,-5.29709c0.28863,-1.63972 0.26127,-4.3128 1.70267,-4.70116c1.50511,-0.4057 2.74261,2.15049 4.19036,3.11302c4.69154,3.12118 9.24069,6.53857 14.23683,9.14468c1.24888,0.65121 3.51916,-0.82172 4.10146,0.42191z" data-paper-data="{&quot;origPos&quot;:null,&quot;index&quot;:null,&quot;origRot&quot;:0}" id="ID0.8610531273297966" fill="#ffd499" stroke="#000000"/></g><path d="M213.44965,140.16667c1.927,2.599 0.05,6.6 -0.4,9.5c-0.376,2.469 -0.924,5.259 -2.418,7.069c-1.493,1.81 -3.556,2.931 -5.832,2.931c-2.276,0 -4.339,-1.121 -5.832,-2.931c-1.494,-1.81 -6.214,-5.22167 -6.418,-7.73567c-0.22,-2.68 -0.17133,-6.47433 1.56667,-8.83334c1.625,-1.718 8.22333,-0.258 10.68333,-0.5c2.859,-0.282 6.774,-1.511 8.65,0.5z" data-paper-data="{&quot;origPos&quot;:null,&quot;index&quot;:null}" id="ID0.6992864599451423" fill="#ff9400" stroke="none" stroke-width="1" stroke-linecap="round"/><g data-paper-data="{&quot;index&quot;:null,&quot;origPos&quot;:null}"><path d="M270.77065,39.27901c10.364,10.364 16.779,24.676 16.779,40.471c0,15.795 -6.415,30.107 -16.779,40.471c-10.364,10.364 -24.676,16.779 -40.471,16.779c-15.795,0 -30.107,-6.415 -40.471,-16.779c-10.364,-10.364 -16.779,-24.676 -16.779,-40.471c0,-15.795 6.415,-30.107 16.779,-40.471c10.364,-10.364 24.676,-16.779 40.471,-16.779c15.795,0 30.107,6.415 40.471,16.779z" data-paper-data="{&quot;origPos&quot;:null}" id="ID0.9676602841354907" fill="#ffd499" stroke="#000000" stroke-width="6" stroke-linecap="round"/><path d="M198.17965,63.95401c13.85,1.622 26.451,-2.669 39.62,-1.704c15.391,1.128 31.104,3.338 46,7.75c3.718,1.106 -3.707,2.891 -5.75,4c-2.502,1.303 -5.992,3.49 -9.25,3.25c-7.849,-0.583 -15.835,-4.875 -24,-5.75c-3.106,-0.105 1.174,2.622 -2.5,2.75c-14.697,0.511 -30.5,-4.859 -45.25,-1.25c-5.326,1.434 -7.601,8.969 -8.5,14.75c-1.063,7.125 1.453,14.79 4.25,21.25c2.966,6.846 13.946,17.992 13,18.25c-0.946,0.258 -15.918,-8.417 -20.25,-15.75c-6.251,-10.334 -9.184,-22.894 -10,-34.75c-0.323,-4.748 3.585,-8.838 6.37,-12.796c2.03,-2.883 4.957,-6.704 8.13,-6.704c3.173,0 4.529,6.284 8.13,6.704z" data-paper-data="{&quot;origPos&quot;:null}" id="ID0.34282135451212525" fill="#e1ba87" stroke="none" stroke-width="1" stroke-linecap="round"/><path d="M171.54965,79.00001c-4.149,-7.143 -2.419,-18.415 -1.25,-27.5c1.114,-8.633 3.513,-17.045 7.5,-24.5c1.139,-1.943 2.501,4.343 4.5,2.5c8.007,-7.393 12.443,-19.02 20.5,-25.5c2.048,-1.644 -1.025,6.938 1.5,7c10.077,0.225 19.864,-6.433 29.75,-5.75c12.368,0.859 24.992,2.711 36,9.5c12.651,7.864 23.234,19.534 31,32.25c1.941,3.179 -8.297,-0.525 -8.75,2.5c-1.102,7.338 8.883,18.809 4,22c-5.868,3.773 -17.423,-7.93 -26.75,-8.5c-2.367,-0.144 1.906,7.404 -1,7c-11.417,-1.4 -21.284,-10.04 -32.75,-11.25c-2.867,-0.302 1.844,7.202 -0.75,7.75c-7.837,1.956 -16.088,-0.955 -24.25,-1.75c-4.684,-0.453 -9.224,-3.127 -14,-2c-5.487,1.33 -8.942,6.24 -14.25,9.25c-3.738,2.185 -9.025,10.106 -11,7z" data-paper-data="{&quot;origPos&quot;:null}" id="ID0.4199218852445483" fill="#8a541e" stroke="#000000" stroke-width="7" stroke-linecap="round"/><path d="M173.54965,73.00001c0,0 0.656,-15.564 1.75,-23.25c0.764,-5.359 1.447,-10.883 3.75,-15.75c0.918,-1.331 1.969,1.072 3,0c5.142,-4.542 9.17,-9.878 13.5,-15c1.616,-1.896 2.032,-5.319 4.25,-6.25c1.377,-0.478 0.568,2.269 1.5,2.75c1.791,0.712 1.848,1.173 4.25,0.75c9.612,-1.693 18.43,-6.554 28,-6.5c10.074,0.056 20.027,2.667 29.25,6.25c7.303,3.028 13.521,8.191 19.5,13.25c4.641,3.93 8.496,9.133 12,14.25c0.877,1.278 -0.861,1.092 -1.5,1.5c-1.621,1.601 -5.264,2.198 -5.25,4.5c0.039,6.231 5.25,17.75 5.25,17.75" data-paper-data="{&quot;origPos&quot;:null}" id="ID0.6959539707750082" fill="none" stroke="#663b00" stroke-width="4" stroke-linecap="round"/><path d="M261.26765,80.782c0.792,0.792 1.282,1.886 1.282,3.093c0,1.207 -0.49,2.301 -1.282,3.093c-0.792,0.792 -1.886,1.282 -3.093,1.282c-1.207,0 -2.301,-0.49 -3.093,-1.282c-0.792,-0.792 -1.282,-1.886 -1.282,-3.093c0,-1.207 0.49,-2.301 1.282,-3.093c0.792,-0.792 1.886,-1.282 3.093,-1.282c1.207,0 2.301,0.49 3.093,1.282z" data-paper-data="{&quot;origPos&quot;:null}" id="ID0.8793090796098113" fill="#000000" stroke="none" stroke-width="1" stroke-linecap="butt"/><path d="M220.61765,81.53201c0.792,0.792 1.282,1.886 1.282,3.093c0,1.207 -0.49,2.301 -1.282,3.093c-0.792,0.792 -1.886,1.282 -3.093,1.282c-1.207,0 -2.301,-0.49 -3.093,-1.282c-0.792,-0.792 -1.282,-1.886 -1.282,-3.093c0,-1.207 0.49,-2.301 1.282,-3.093c0.792,-0.792 1.886,-1.282 3.093,-1.282c1.207,0 2.301,0.49 3.093,1.282z" data-paper-data="{&quot;origPos&quot;:null}" id="ID0.8793090796098113" fill="#000000" stroke="none" stroke-width="1" stroke-linecap="butt"/><path d="M218.01123,99.97852l39.88821,-0.66113" data-paper-data="{&quot;origPos&quot;:null}" fill="none" stroke="#000000" stroke-width="3" stroke-linecap="round"/></g><path d="M183.5,280.22037l1.5,-91.5l16.5,-32" data-paper-data="{&quot;origPos&quot;:null}" fill="none" stroke="#cc7700" stroke-width="5" stroke-linecap="round"/></g></g></svg>