<svg version="1.1" xmlns="http://www.w3.org/2000/svg" xmlns:xlink="http://www.w3.org/1999/xlink" width="550.25806" height="424.70968" viewBox="0,0,550.25806,424.70968"><defs><linearGradient x1="34.66218" y1="73.10519" x2="74.27962" y2="73.10519" gradientUnits="userSpaceOnUse" id="color-1"><stop offset="0" stop-color="#ffa48c"/><stop offset="1" stop-color="#ff8ca2"/></linearGradient><linearGradient x1="386.49929" y1="144.7582" x2="386.49929" y2="158.97708" gradientUnits="userSpaceOnUse" id="color-2"><stop offset="0" stop-color="#000000"/><stop offset="1" stop-color="#000000"/></linearGradient><linearGradient x1="375.30822" y1="144.75968" x2="375.30822" y2="159.11892" gradientUnits="userSpaceOnUse" id="color-3"><stop offset="0" stop-color="#000000"/><stop offset="1" stop-color="#000000"/></linearGradient><linearGradient x1="388.07346" y1="127.58749" x2="388.07346" y2="160.61559" gradientUnits="userSpaceOnUse" id="color-4"><stop offset="0" stop-color="#3b2103"/><stop offset="1" stop-color="#000000"/></linearGradient></defs><g transform="translate(40.54838,34.61285)"><g data-paper-data="{&quot;isPaintingLayer&quot;:true}" fill-rule="nonzero" stroke-linejoin="miter" stroke-miterlimit="10" stroke-dasharray="" stroke-dashoffset="0" style="mix-blend-mode: normal"><path d="M-39.54838,389.09684v-422.70968h548.25806v422.70968z" fill="#f5f5f5" stroke="#000000" stroke-width="2" stroke-linecap="butt"/><path d="M9.10301,261.99172v-253.23621h222.06868v253.23621z" fill="#f5f5f5" stroke="#8e8e8e" stroke-width="3.5" stroke-linecap="butt"/><text transform="translate(17.82641,48.94725) scale(0.33747,0.33747)" font-size="40" xml:space="preserve" fill="#8e8e8e" fill-rule="nonzero" stroke="none" stroke-width="1" stroke-linecap="butt" stroke-linejoin="miter" stroke-miterlimit="10" stroke-dasharray="" stroke-dashoffset="0" font-family="&quot;ヒラギノ角ゴ Pro W3&quot;, &quot;Hiragino Kaku Gothic Pro&quot;, Osaka, &quot;メイリオ&quot;, Meiryo, &quot;ＭＳ Ｐゴシック&quot;, &quot;MS PGothic&quot;" font-weight="normal" text-anchor="start" style="mix-blend-mode: normal"><tspan x="0" dy="0">Joined: 4th June 2019</tspan></text><g stroke="none" stroke-linecap="butt"><path d="M75.38528,91.27757c-10.03632,0 -18.17236,-8.13604 -18.17236,-18.17236c0,-10.03632 8.13604,-18.17236 18.17236,-18.17236c10.03632,0 18.17236,8.13604 18.17236,18.17236c0,10.03632 -8.13604,18.17236 -18.17236,18.17236z" data-paper-data="{&quot;index&quot;:null}" fill="#ff8ca2" stroke-width="0"/><path d="M15.38416,73.10519c0,-10.03632 8.13604,-18.17236 18.17236,-18.17236c10.03632,0 18.17236,8.13604 18.17236,18.17236c0,10.03632 -8.13604,18.17236 -18.17236,18.17236c-10.03632,0 -18.17236,-8.13604 -18.17236,-18.17236z" fill="#ffa48c" stroke-width="0"/><path d="M34.66218,91.20381v-36.19726h39.61743v36.19726z" fill="url(#color-1)" stroke-width="0"/><text transform="translate(21.58213,77.43359) scale(0.3607,0.3607)" font-size="40" xml:space="preserve" fill="#c42d7b" fill-rule="nonzero" stroke="none" stroke-width="1" stroke-linecap="butt" stroke-linejoin="miter" stroke-miterlimit="10" stroke-dasharray="" stroke-dashoffset="0" font-family="&quot;ヒラギノ角ゴ Pro W3&quot;, &quot;Hiragino Kaku Gothic Pro&quot;, Osaka, &quot;メイリオ&quot;, Meiryo, &quot;ＭＳ Ｐゴシック&quot;, &quot;MS PGothic&quot;" font-weight="normal" text-anchor="start" style="mix-blend-mode: normal"><tspan x="0" dy="0">Animator</tspan></text></g><text transform="translate(15.20277,106.15929) scale(0.2979,0.2979)" font-size="40" xml:space="preserve" fill="#8e8e8e" fill-rule="nonzero" stroke="none" stroke-width="1" stroke-linecap="butt" stroke-linejoin="miter" stroke-miterlimit="10" stroke-dasharray="" stroke-dashoffset="0" font-family="&quot;ヒラギノ角ゴ Pro W3&quot;, &quot;Hiragino Kaku Gothic Pro&quot;, Osaka, &quot;メイリオ&quot;, Meiryo, &quot;ＭＳ Ｐゴシック&quot;, &quot;MS PGothic&quot;" font-weight="normal" text-anchor="start" style="mix-blend-mode: normal"><tspan x="0" dy="0">Notable Projects:</tspan></text><text transform="translate(15.20277,130.19153) scale(0.36248,0.43347)" font-size="40" xml:space="preserve" fill="#8e8e8e" fill-rule="nonzero" stroke="none" stroke-width="1" stroke-linecap="butt" stroke-linejoin="miter" stroke-miterlimit="10" stroke-dasharray="" stroke-dashoffset="0" font-family="&quot;ヒラギノ角ゴ Pro W3&quot;, &quot;Hiragino Kaku Gothic Pro&quot;, Osaka, &quot;メイリオ&quot;, Meiryo, &quot;ＭＳ Ｐゴシック&quot;, &quot;MS PGothic&quot;" font-weight="normal" text-anchor="start" style="mix-blend-mode: normal"><tspan x="0" dy="0">S&amp;C (March 2020)</tspan><tspan x="0" dy="46.150000000000006px">animated attacks (July 2020)</tspan></text><text transform="translate(13.97296,178.99715) scale(0.29708,0.29708)" font-size="40" xml:space="preserve" fill="#8e8e8e" fill-rule="nonzero" stroke="none" stroke-width="1" stroke-linecap="butt" stroke-linejoin="miter" stroke-miterlimit="10" stroke-dasharray="" stroke-dashoffset="0" font-family="&quot;ヒラギノ角ゴ Pro W3&quot;, &quot;Hiragino Kaku Gothic Pro&quot;, Osaka, &quot;メイリオ&quot;, Meiryo, &quot;ＭＳ Ｐゴシック&quot;, &quot;MS PGothic&quot;" font-weight="normal" text-anchor="start" style="mix-blend-mode: normal"><tspan x="0" dy="0">ABIC is known for his smooth, </tspan><tspan x="0" dy="46.150000000000006px">impressive animations, with his </tspan><tspan x="0" dy="46.150000000000006px">character wielding code blocks,</tspan><tspan x="0" dy="46.150000000000006px">swords, diamonds and scythes</tspan><tspan x="0" dy="46.150000000000006px">across his different universes</tspan><tspan x="0" dy="46.150000000000006px">and series.</tspan></text><text transform="translate(7.69515,344.82016) scale(1.4788,1.4788)" font-size="40" xml:space="preserve" fill="#8e8e8e" fill-rule="nonzero" stroke="none" stroke-width="1" stroke-linecap="butt" stroke-linejoin="miter" stroke-miterlimit="10" stroke-dasharray="" stroke-dashoffset="0" font-family="&quot;ヒラギノ角ゴ Pro W3&quot;, &quot;Hiragino Kaku Gothic Pro&quot;, Osaka, &quot;メイリオ&quot;, Meiryo, &quot;ＭＳ Ｐゴシック&quot;, &quot;MS PGothic&quot;" font-weight="normal" text-anchor="start" style="mix-blend-mode: normal"><tspan x="0" dy="0">07</tspan></text><text transform="translate(15.43463,35.42794) scale(0.13422,0.13422)" font-size="40" xml:space="preserve" fill="#8e8e8e" fill-rule="nonzero" stroke="none" stroke-width="1" stroke-linecap="butt" stroke-linejoin="miter" stroke-miterlimit="10" stroke-dasharray="" stroke-dashoffset="0" font-family="&quot;ヒラギノ角ゴ Pro W3&quot;, &quot;Hiragino Kaku Gothic Pro&quot;, Osaka, &quot;メイリオ&quot;, Meiryo, &quot;ＭＳ Ｐゴシック&quot;, &quot;MS PGothic&quot;" font-weight="normal" text-anchor="start" style="mix-blend-mode: normal"><tspan x="0" dy="0">@-ABIC-</tspan></text><text transform="translate(16.61026,29.3281) scale(0.50346,0.50346)" font-size="40" xml:space="preserve" fill="#8e8e8e" fill-rule="nonzero" stroke="none" stroke-width="1" stroke-linecap="butt" stroke-linejoin="miter" stroke-miterlimit="10" stroke-dasharray="" stroke-dashoffset="0" font-family="&quot;ヒラギノ角ゴ Pro W3&quot;, &quot;Hiragino Kaku Gothic Pro&quot;, Osaka, &quot;メイリオ&quot;, Meiryo, &quot;ＭＳ Ｐゴシック&quot;, &quot;MS PGothic&quot;" font-weight="normal" text-anchor="start" style="mix-blend-mode: normal"><tspan x="0" dy="0">ABIC/ABICE</tspan></text><g><path d="M369.00654,84.48075c0,2.56868 -2.20981,4.65099 -4.93575,4.65099c-2.72594,0 -4.93575,-2.08232 -4.93575,-4.65099c0,-2.56868 2.20981,-4.65099 4.93575,-4.65099c2.72594,0 4.93575,2.08232 4.93575,4.65099z" data-paper-data="{&quot;origPos&quot;:null}" fill="#fff8d5" stroke="#000000" stroke-width="1.5" stroke-linecap="butt"/><path d="M358.52914,83.21479c0.47142,-0.00275 1.11805,-3.18512 1.47178,-3.49674c-0.34932,-5.08139 12.62438,-33.27961 12.62438,-33.27961l-0.18983,8.54264c0,0 -3.96943,24.59929 -4.09487,25.13878c-0.47939,1.90799 1.58256,3.01983 1.58256,3.01983c0,0 -12.71088,0.08278 -11.39401,0.0751z" data-paper-data="{&quot;origPos&quot;:null}" fill="#20ff00" stroke="#000000" stroke-width="1.5" stroke-linecap="butt"/><path d="M388.31705,111.46974v-35.49943h8.35281v35.49943z" data-paper-data="{&quot;origPos&quot;:null,&quot;index&quot;:null}" fill="#00c7c6" stroke="#000000" stroke-width="1.5" stroke-linecap="butt"/><path d="M387.55771,119.75928c-0.28789,-0.04762 -0.60445,-10.93103 -0.0277,-16.73138c0.1711,-1.7208 8.45468,-1.11325 10.18396,-1.11325c1.39502,0 0.12949,9.57362 1.23733,10.42142c3.32353,2.54341 7.40023,0.61979 7.40023,4.95533c0,4.61313 -5.53599,3.41706 -10.72576,3.41706c0,0 -3.1323,-0.13279 -8.06805,-0.94918z" data-paper-data="{&quot;origPos&quot;:null,&quot;index&quot;:null}" fill="#907900" stroke="#000000" stroke-width="1.5" stroke-linecap="butt"/><path d="M374.10883,111.40648v-35.49943h8.35281v35.49943z" data-paper-data="{&quot;origPos&quot;:null}" fill="#00c7c6" stroke="#000000" stroke-width="1.5" stroke-linecap="butt"/><path d="M372.84326,84.92428c0,0 -1.05591,-27.6519 -1.02585,-29.42703c0.01003,-0.59171 1.91175,0.34105 1.91175,-0.25074c0,-4.61803 -0.8859,-10.94724 -0.8859,-10.94724c0,0 6.79685,3.41706 11.39019,3.41706c5.3342,0 14.0479,-3.41706 14.0479,-3.41706c0,0 -0.63279,5.59763 -0.63279,10.31445c0,0.49385 1.52156,0.26536 1.53036,0.75914c0.02641,1.48133 -0.89758,29.55143 -0.89758,29.55143z" data-paper-data="{&quot;origPos&quot;:null}" fill="#20ff00" stroke="#000000" stroke-width="1.5" stroke-linecap="butt"/><path d="M404.86235,29.11235c0,9.96016 -8.66926,18.03447 -19.36333,18.03447c-10.69407,0 -19.36333,-8.07431 -19.36333,-18.03447c0,-9.96016 8.66926,-18.03447 19.36333,-18.03447c10.69407,0 19.36333,8.07431 19.36333,18.03447z" data-paper-data="{&quot;origPos&quot;:null}" fill="#fff8d5" stroke="#000000" stroke-width="1.5" stroke-linecap="butt"/><path d="M366.76849,33.51022v-4.93575h37.71419v4.93575z" data-paper-data="{&quot;origPos&quot;:null}" fill="#000000" stroke="#000000" stroke-width="1.5" stroke-linecap="butt"/><path d="M403.3753,20.47477c2.27804,3.9481 0.82272,14.32625 0.82272,14.32625l-2.36302,4.72917c0,0 -3.64269,-13.39772 -4.03285,-13.79319c-1.17047,-1.18642 -3.33874,2.34013 -3.33874,2.34013c0,0 -5.5336,-6.21022 -6.93946,-6.21022c-0.9392,0 -3.00529,1.84346 -3.00529,1.84346c0,0 0.15105,-4.40788 -0.62613,-4.48966c-1.2198,-0.12835 -7.4834,8.47026 -8.63672,8.05284c-3.45852,-1.25173 -1.90707,-2.57552 -3.54255,0.71893c-0.67833,1.36639 -1.40454,-3.5417 -2.30393,-2.30952c-0.87401,1.19739 2.76686,-1.82763 1.39106,-2.37974c-1.62714,-0.65298 -2.98193,2.88577 -2.98193,2.88577c0,0 -3.04326,-0.95568 -3.04326,-3.81585c0,-6.17666 7.9018,-10.56563 8.05724,-10.57349c0.81751,-0.04132 13.16135,-2.84506 15.92545,-2.08228c5.50334,1.51869 11.47354,5.30873 14.61741,10.7574z" data-paper-data="{&quot;origPos&quot;:null}" fill="#ccc6a9" stroke="none" stroke-width="0" stroke-linecap="butt"/><path d="M375.34277,37.05383v-11.89642h5.98543v11.89642z" data-paper-data="{&quot;origPos&quot;:null}" fill="#000000" stroke="none" stroke-width="0" stroke-linecap="butt"/><path d="M388.25165,42.92295h-6.54936" data-paper-data="{&quot;origPos&quot;:null}" fill="none" stroke="#000000" stroke-width="1.5" stroke-linecap="round"/><path d="M404.2612,17.31083c2.27804,3.9481 0.82272,14.32625 0.82272,14.32625l-4.00827,7.38688c0,0 -1.99744,-16.05543 -2.3876,-16.4509c-1.17047,-1.18642 -3.33874,2.34013 -3.33874,2.34013c0,0 -5.5336,-6.21022 -6.93946,-6.21022c-0.9392,0 -3.00529,1.84346 -3.00529,1.84346c0,0 0.15105,-4.40788 -0.62613,-4.48966c-1.2198,-0.12835 -7.4834,8.47026 -8.63672,8.05284c-3.45852,-1.25173 -2.53986,-0.29748 -4.17533,2.99697c-0.67833,1.36639 -3.04979,2.40651 -3.94918,3.63869c-0.87401,1.19739 5.0449,-10.05388 3.6691,-10.60599c-1.62714,-0.65298 -5.51309,11.49169 -5.51309,11.49169c0,0 -0.5121,-9.56161 -0.5121,-12.42178c0,-6.17666 7.9018,-10.56563 8.05724,-10.57349c0.81751,-0.04132 13.16135,-2.84506 15.92545,-2.08228c5.50334,1.51869 11.47354,5.30873 14.61741,10.7574z" data-paper-data="{&quot;origPos&quot;:null}" fill="#202020" stroke="#000000" stroke-width="1.5" stroke-linecap="butt"/><path d="M412.31913,87.26497c0,2.56868 -2.20981,4.65099 -4.93575,4.65099c-2.72594,0 -4.93575,-2.08232 -4.93575,-4.65099c0,-2.56868 2.20981,-4.65099 4.93575,-4.65099c2.72594,0 4.93575,2.08232 4.93575,4.65099z" data-paper-data="{&quot;origPos&quot;:null}" fill="#fff8d5" stroke="#000000" stroke-width="1.5" stroke-linecap="butt"/><path d="M387.17591,37.14874v-11.89642h5.98543v11.89642z" data-paper-data="{&quot;origPos&quot;:null}" fill="#000000" stroke="none" stroke-width="0" stroke-linecap="butt"/><path d="M384.36001,84.07001v-36.82828h2.46787v36.82828z" data-paper-data="{&quot;origPos&quot;:null}" fill="#008680" stroke="#000000" stroke-width="1.5" stroke-linecap="butt"/><path d="M374.9631,120.51862c-5.18977,0 -10.72576,1.19607 -10.72576,-3.41706c0,-4.33555 4.0767,-2.41192 7.40023,-4.95533c1.10784,-0.8478 -0.15769,-10.42142 1.23733,-10.42142c1.72928,0 10.01285,-0.60754 10.18396,1.11325c0.57675,5.80035 0.26019,16.68376 -0.0277,16.73138c-4.93575,0.8164 -8.06805,0.94918 -8.06805,0.94918z" data-paper-data="{&quot;origPos&quot;:null}" fill="#907900" stroke="#000000" stroke-width="1.5" stroke-linecap="butt"/><path d="M398.34463,45.81796c0,0 7.68865,10.59372 10.10217,19.71474c1.17935,4.45694 2.2158,15.65985 2.22455,15.66011c0.02624,0.0008 2.00835,3.77862 2.00835,3.77862l-11.90326,1.23898c0,0 2.48322,-3.76825 2.51183,-3.7604c0.07059,-0.13798 -1.71056,-9.83757 -2.35949,-16.31316c-0.54263,-5.41493 -2.64743,-11.71298 -2.64743,-11.71298z" data-paper-data="{&quot;origPos&quot;:null}" fill="#20ff00" stroke="#000000" stroke-width="1.5" stroke-linecap="butt"/></g><g><g data-paper-data="{&quot;index&quot;:null,&quot;origRot&quot;:0}" stroke-width="1" stroke-linecap="butt"><path d="M380.87534,208.59265c-2.17798,0.96498 -4.77377,-0.12643 -5.79784,-2.43776c-1.02407,-2.31132 -0.08866,-4.96731 2.08933,-5.9323c2.17799,-0.96498 4.77376,0.12643 5.79784,2.43776c1.02407,2.31132 0.08865,4.96731 -2.08933,5.9323z" fill="#fff8d5" stroke="#45433a"/><path d="M382.79366,174.75341c0,0 0.56389,7.78424 0.7511,13.23217c0.18721,5.44793 -0.03545,16.42805 -0.03545,16.42805c0,0 -2.94281,0.84536 -4.91625,0.85155c-1.97345,0.0062 -4.05286,-0.9302 -4.05286,-0.9302c0,0 0.24853,-8.84566 0.71096,-14.55339c0.46243,-5.70773 1.09365,-13.77654 1.18883,-14.66859c0.24631,-2.30853 0.82612,-3.84313 3.59007,-4.41994z" data-paper-data="{&quot;origRot&quot;:0,&quot;origPos&quot;:null}" fill="#67ff26" stroke="#183b09"/></g><path d="M370.10447,156.80861c0,0 6.62514,-9.25759 16.96222,-9.25759c10.33708,0 19.19266,7.9786 19.19266,7.9786c0,0 -0.16929,12.18526 -18.64675,12.66513c-14.8893,0.653 -17.50813,-11.38613 -17.50813,-11.38613z" data-paper-data="{&quot;origPos&quot;:null,&quot;index&quot;:null}" fill="#2b1702" stroke="#0f0801" stroke-width="1" stroke-linecap="butt"/><path d="M380.92947,228.87453v-29.57731h5.70075l-0.48364,29.57731z" data-paper-data="{&quot;origPos&quot;:null,&quot;index&quot;:null}" fill="#00c7c6" stroke="#004040" stroke-width="1.5" stroke-linecap="butt"/><path d="M388.01713,228.0483l-0.64502,-29.57677l5.70065,-0.03517l0.16139,29.57677z" data-paper-data="{&quot;origPos&quot;:null,&quot;origRot&quot;:0,&quot;index&quot;:null}" fill="#00c7c6" stroke="#004040" stroke-width="1.5" stroke-linecap="butt"/><path d="M383.14076,173.11994v-10.20143h8.88981v10.20143z" data-paper-data="{&quot;origPos&quot;:null,&quot;index&quot;:null}" fill="#fff8d5" stroke="#514f44" stroke-width="1.5" stroke-linecap="butt"/><path d="M391.06469,167.02234l-1.21218,4.34039l-6.36793,-0.18828v-3.67707z" data-paper-data="{&quot;origPos&quot;:null,&quot;index&quot;:null}" fill="#d4ceb2" stroke="#000000" stroke-width="0" stroke-linecap="butt"/><path d="M395.73848,204.53817c-0.52264,1.36265 -1.76539,1.30155 -6.35213,1.30155c-3.14102,0 -8.74413,0.07256 -9.33706,-0.87679c-0.40867,-0.79503 -0.64929,-7.79743 -0.3986,-16.96854c0.20244,-7.40603 0.22999,-17.42274 0.22999,-17.42274c0,0 1.27892,-0.17928 1.76593,-0.20633c0.37521,-0.03018 1.17289,-1.06711 1.63684,-1.07103c1.82377,-0.01541 6.18325,-0.31117 8.92853,-0.09916c0.3163,0.02443 0.88761,1.14894 1.42469,1.33243c0.67127,0.22932 1.42143,0.45268 1.73215,0.46276c0,0 1.08988,31.67005 0.36966,33.54785z" data-paper-data="{&quot;index&quot;:null}" fill="#67ff26" stroke="#183b09" stroke-width="1" stroke-linecap="butt"/><path d="M384.85897,205.60801l-0.06136,-36.18839l0.66896,-0.03186l0.41253,36.28474z" data-paper-data="{&quot;origPos&quot;:null,&quot;index&quot;:null}" fill="#82a19f" stroke="#2b3434" stroke-width="0.5" stroke-linecap="butt"/><path d="M378.1985,176.74816l1.41319,-5.96299l0.66893,-0.24193l2.0775,0.14376v6.06116z" data-paper-data="{&quot;origPos&quot;:null,&quot;index&quot;:null}" fill="#67ff26" stroke="none" stroke-width="0" stroke-linecap="butt"/><g data-paper-data="{&quot;index&quot;:null,&quot;origRot&quot;:0}" stroke-width="1" stroke-linecap="butt"><path d="M393.72814,208.70014c-2.17799,-0.96499 -3.1134,-3.62098 -2.08933,-5.9323c1.02408,-2.31133 3.61985,-3.40274 5.79784,-2.43776c2.17799,0.96498 3.1134,3.62098 2.08933,5.9323c-1.02407,2.31133 -3.61985,3.40274 -5.79784,2.43776z" fill="#fff8d5" stroke="#45433a"/><path d="M394.57342,170.80055c2.76395,0.57682 3.34377,2.11141 3.59007,4.41994c0.09518,0.89205 0.7264,7.88611 1.18883,13.59384c0.46243,5.70774 0.71096,15.62814 0.71096,15.62814c0,0 -2.07942,0.93639 -4.05286,0.93019c-1.97345,-0.0062 -4.91625,-0.85155 -4.91625,-0.85155c0,0 0.09976,-9.7979 0.28698,-15.24583c0.18721,-5.44793 0.42868,-14.41439 0.42868,-14.41439z" data-paper-data="{&quot;origRot&quot;:0,&quot;origPos&quot;:null}" fill="#67ff26" stroke="#183b09"/></g><path d="M389.98815,176.0445c0,0 0.16343,-1.07658 0.50079,-1.87621c0.46995,-1.11394 3.06877,-3.35378 3.06877,-3.35378c0,0 0.76279,0.039 1.04437,0.0874c0.1912,0.03286 0.48154,0.1749 0.48154,0.1749l0.07749,5.79677z" data-paper-data="{&quot;index&quot;:null}" fill="#67ff26" stroke="none" stroke-width="0" stroke-linecap="butt"/><path d="M387.59658,131.73334c10.75683,0 19.47697,8.12169 19.47697,18.14031c0,10.01861 -8.72014,18.14031 -19.47697,18.14031c-10.75683,0 -19.47697,-8.12169 -19.47697,-18.14031c0,-10.01861 8.72014,-18.14031 19.47697,-18.14031z" data-paper-data="{&quot;origPos&quot;:null,&quot;index&quot;:null}" fill="#fff8d5" stroke="#514f44" stroke-width="1" stroke-linecap="butt"/><path d="M368.88402,144.38311c0,0 5.11864,-8.90665 7.53046,-8.7547c3.54444,0.22331 18.66978,-3.91576 20.04875,-1.78217c0.76322,1.18089 2.57288,14.74475 1.59434,12.77643c-0.97854,-1.96832 -1.98859,-3.1734 -1.98859,-3.1734l2.0368,3.36183c0,0 -2.7845,0.5692 -4.18832,-0.93019c-1.40382,-1.49938 -1.19027,-4.81453 -1.19027,-4.81453l0.01453,3.48839c0,0 -3.38715,-2.64099 -4.63579,-2.99425c-2.24416,-0.63491 -3.63628,0.33218 -5.96694,0.24627c-2.56358,-0.09449 -3.84569,-1.20812 -6.27273,-0.37723c-2.29682,0.78631 -4.4327,4.63051 -5.41566,5.79552c-0.98295,1.16502 -3.08045,0.12635 -3.08045,0.12635l1.51386,-2.96831z" data-paper-data="{&quot;origPos&quot;:null,&quot;index&quot;:null}" fill="#8a7967" stroke="#000000" stroke-width="0" stroke-linecap="butt"/><path d="M389.94288,157.65827c0,0.51467 -0.52456,1.31878 -0.8603,1.31878c-1.00722,0 -5.15451,0 -5.15451,0c-0.34043,0 -0.84919,-0.32004 -0.87232,-1.24314c-0.11201,-4.46975 -0.04676,-10.77023 0,-11.45892c0.04676,-0.68869 0.24394,-1.38344 0.87232,-1.38741c2.1004,-0.01328 4.68157,-0.16745 5.28856,-0.10019c0.52699,0.05839 0.72304,0.67739 0.72626,1.60446c0.00288,0.82985 0,9.7224 0,11.26643z" data-paper-data="{&quot;origPos&quot;:null,&quot;index&quot;:null}" fill="url(#color-2)" stroke="#00360a" stroke-width="0" stroke-linecap="butt"/><path d="M378.65114,157.78711c0,0.51976 -0.50923,1.33181 -0.83516,1.33181c-0.97779,0 -5.00388,0 -5.00388,0c-0.33047,0 -0.84682,-0.76549 -0.84682,-1.25542c0,-1.46984 0,-7.35823 0,-12.06787c0,-0.40429 0.51634,-1.03594 0.84682,-1.03594c2.08159,0 5.22384,0.13068 5.22384,0.13068c0,0 0.61521,0.5385 0.61521,0.88317c0,4.73945 0,10.45431 0,12.01357z" data-paper-data="{&quot;origPos&quot;:null,&quot;index&quot;:null}" fill="url(#color-3)" stroke="#00360a" stroke-width="0" stroke-linecap="butt"/><path d="M369.30313,154.39112l-0.75232,-4.96471h37.93553v4.96471z" data-paper-data="{&quot;origPos&quot;:null,&quot;index&quot;:null}" fill="#000000" stroke="#000000" stroke-width="0" stroke-linecap="butt"/><path d="M378.76982,162.69664c0,0 3.75793,-0.14317 4.88175,-0.14317" data-paper-data="{&quot;index&quot;:null}" fill="none" stroke="#000000" stroke-width="1" stroke-linecap="round"/><path d="M369.65858,157.1171c-1.72593,-0.03638 -2.85108,-12.16339 -0.47588,-18.44713c1.15983,-3.45108 8.8419,-6.23656 8.8419,-6.23656c0,0 -2.9511,1.39313 -3.24932,0.9815c-0.40848,-0.77305 9.16183,-3.92292 14.11892,-4.09109c4.9571,-0.16817 9.56095,2.58369 11.01278,3.04352c0.02308,0.00731 -3.60217,-0.97952 -3.17218,-1.75173c0.39492,-0.70924 4.05326,0.71998 5.88533,2.0082c1.83207,1.28821 2.72116,1.80915 4.11001,3.95801c0.76869,1.18935 1.38576,5.53469 1.38576,5.53469c0,0 2.16196,16.71207 -4.65828,20.21377c-0.57949,0.29753 -2.95244,-5.44719 -4.6352,-8.37262c-1.68275,-2.92543 -0.75611,-6.96957 -4.25931,-11.7815c-0.71907,-0.9877 2.19641,4.024 2.19641,4.024c0,0 -3.26345,0.32824 -3.53182,-6.42396c-0.00666,-0.16765 -0.77351,3.72831 -0.77351,3.72831c0,0 -1.64063,-3.55522 -3.88084,-3.23064c-5.59573,0.81077 -7.41751,1.20661 -12.32731,-0.13189c-2.31327,0.79194 -6.46407,8.40257 -7.56358,5.96428c-0.1282,-0.2843 0.64288,-3.43954 0.53135,-2.98956c-1.72509,6.95987 1.04089,14.01296 0.44477,14.0004z" data-paper-data="{&quot;origPos&quot;:null,&quot;index&quot;:null}" fill="url(#color-4)" stroke="#0f0801" stroke-width="1" stroke-linecap="butt"/><g data-paper-data="{&quot;index&quot;:null}" stroke="#1b1600"><path d="M379.39135,230.09137c0.41175,-0.28076 0.15769,-7.58744 0.16636,-8.06331c0.17688,-1.40338 7.452,-1.01685 7.63355,-0.15156c0.16021,0.38723 0.78173,14.34384 0.29434,15.0525c-1.22407,0.96219 -6.64382,1.89208 -8.35358,1.92385c-8.06512,0.14987 -2.44169,-6.85049 0.25933,-8.76148z" fill="#907900" stroke-width="1.5" stroke-linecap="butt"/><path d="M379.57143,230.07385c2.15294,-0.80334 3.77969,0.38383 3.77969,0.38383" data-paper-data="{&quot;origPos&quot;:null}" fill="none" stroke-width="1" stroke-linecap="round"/></g><g data-paper-data="{&quot;index&quot;:null}" stroke="#1b1600"><path d="M386.42585,230.1459c0.41175,-0.28076 0.37582,-7.58744 0.38448,-8.06331c0.17688,-1.40338 7.23388,-1.01685 7.41543,-0.15156c0.16021,0.38723 0.78173,14.34384 0.29434,15.0525c-1.22407,0.96219 -6.31663,2.05567 -8.0264,2.08744c-8.06512,0.14987 -2.44169,-6.74143 -0.06786,-8.92508z" fill="#907900" stroke-width="1.5" stroke-linecap="butt"/><path d="M386.60592,230.12838c2.15294,-0.80334 3.77969,0.38383 3.77969,0.38383" data-paper-data="{&quot;origPos&quot;:null}" fill="none" stroke-width="1" stroke-linecap="round"/></g></g><g stroke-linecap="butt"><text transform="translate(257.05438,104.77765) scale(0.61121,0.61121)" font-size="40" xml:space="preserve" fill="#8e8e8e" fill-rule="nonzero" stroke="none" stroke-width="1" stroke-linecap="butt" stroke-linejoin="miter" stroke-miterlimit="10" stroke-dasharray="" stroke-dashoffset="0" font-family="&quot;ヒラギノ角ゴ Pro W3&quot;, &quot;Hiragino Kaku Gothic Pro&quot;, Osaka, &quot;メイリオ&quot;, Meiryo, &quot;ＭＳ Ｐゴシック&quot;, &quot;MS PGothic&quot;" font-weight="normal" text-anchor="start" style="mix-blend-mode: normal"><tspan x="0" dy="0">2019</tspan></text><path d="M249.94927,123.0213v-118.51155h228.33349v118.51155z" fill="none" stroke="#8e8e8e" stroke-width="3.5"/></g><g stroke-linecap="butt"><text transform="translate(257.05438,223.33543) scale(0.61121,0.61121)" font-size="40" xml:space="preserve" fill="#8e8e8e" fill-rule="nonzero" stroke="none" stroke-width="1" stroke-linecap="butt" stroke-linejoin="miter" stroke-miterlimit="10" stroke-dasharray="" stroke-dashoffset="0" font-family="&quot;ヒラギノ角ゴ Pro W3&quot;, &quot;Hiragino Kaku Gothic Pro&quot;, Osaka, &quot;メイリオ&quot;, Meiryo, &quot;ＭＳ Ｐゴシック&quot;, &quot;MS PGothic&quot;" font-weight="normal" text-anchor="start" style="mix-blend-mode: normal"><tspan x="0" dy="0">2020</tspan></text><path d="M249.94927,241.5791v-118.51155h228.33349v118.51155z" fill="none" stroke="#8e8e8e" stroke-width="3.5"/></g><text transform="translate(5,356.43411) scale(0.24569,0.24569)" font-size="40" xml:space="preserve" fill="#b6b6b6" fill-rule="nonzero" stroke="none" stroke-width="1" stroke-linecap="butt" stroke-linejoin="miter" stroke-miterlimit="10" stroke-dasharray="" stroke-dashoffset="0" font-family="&quot;ヒラギノ角ゴ Pro W3&quot;, &quot;Hiragino Kaku Gothic Pro&quot;, Osaka, &quot;メイリオ&quot;, Meiryo, &quot;ＭＳ Ｐゴシック&quot;, &quot;MS PGothic&quot;" font-weight="normal" text-anchor="start" style="mix-blend-mode: normal"><tspan x="0" dy="0">Written by @The_Updator</tspan></text></g></g></svg>