<svg version="1.1" xmlns="http://www.w3.org/2000/svg" xmlns:xlink="http://www.w3.org/1999/xlink" width="298.31693" height="259.58627" viewBox="0,0,298.31693,259.58627"><defs><linearGradient x1="271.36306" y1="175.2394" x2="290.69181" y2="231.09776" gradientUnits="userSpaceOnUse" id="color-1"><stop offset="0" stop-color="#7f2626"/><stop offset="1" stop-color="#401a1a"/></linearGradient><linearGradient x1="185.8188" y1="206.9186" x2="193.34689" y2="228.67402" gradientUnits="userSpaceOnUse" id="color-2"><stop offset="0" stop-color="#3a5946"/><stop offset="1" stop-color="#5f7f7f"/></linearGradient><linearGradient x1="229.34897" y1="177.99052" x2="236.87707" y2="199.74602" gradientUnits="userSpaceOnUse" id="color-3"><stop offset="0" stop-color="#3a5946"/><stop offset="1" stop-color="#5f7f7f"/></linearGradient><linearGradient x1="240.80577" y1="157.90517" x2="263.77894" y2="224.29556" gradientUnits="userSpaceOnUse" id="color-4"><stop offset="0" stop-color="#401a1a"/><stop offset="1" stop-color="#7f2626"/></linearGradient><linearGradient x1="146.18784" y1="217.83546" x2="166.72689" y2="277.19155" gradientUnits="userSpaceOnUse" id="color-5"><stop offset="0" stop-color="#401a1a"/><stop offset="1" stop-color="#7f2626"/></linearGradient><linearGradient x1="162.19225" y1="141.86125" x2="189.82738" y2="221.7243" gradientUnits="userSpaceOnUse" id="color-6"><stop offset="0" stop-color="#7f2626"/><stop offset="1" stop-color="#401a1a"/></linearGradient><linearGradient x1="141.32772" y1="260.78401" x2="165.86791" y2="331.70292" gradientUnits="userSpaceOnUse" id="color-7"><stop offset="0" stop-color="#7f2626"/><stop offset="1" stop-color="#401a1a"/></linearGradient><linearGradient x1="336.67343" y1="256.503" x2="377.78185" y2="256.503" gradientUnits="userSpaceOnUse" id="color-8"><stop offset="0" stop-color="#ff8c8c" stop-opacity="0"/><stop offset="1" stop-color="#ff8c8c"/></linearGradient></defs><g transform="translate(-79.46492,-125.73264)"><g data-paper-data="{&quot;isPaintingLayer&quot;:true}" fill-rule="nonzero" stroke-linejoin="miter" stroke-miterlimit="10" stroke-dasharray="" stroke-dashoffset="0" style="mix-blend-mode: normal"><g stroke="#000000" stroke-width="0.5" stroke-linecap="round"><path d="M214.61252,264.93373l-24.34869,119.95568l-107.0759,-77.27807l112.58921,-56.83751z" fill="#804040"/><path d="M98.48282,298.31105l94.48429,66.64907c0,0 4.44686,22.86639 -2.29186,19.34606c-6.73873,-3.52032 -69.02901,-42.38887 -107.48732,-76.69483c-13.15373,-11.73353 15.29489,-9.30029 15.29489,-9.30029z" fill="#ffffff"/></g><path d="M337.2269,302.83797c0.05059,-0.33994 0.1389,-0.56701 0.1389,-0.56701l0.5016,0.38027c0.30471,-0.47637 0.62505,-0.94132 0.96739,-1.39012c0.52712,-1.02255 1.00528,-2.07712 1.42281,-3.17109c1.06879,-2.80034 1.51375,-6.05501 2.24036,-8.96142c0,0 0.60634,-2.42536 3.0317,-1.81902c0.6059,0.15147 1.02259,0.41647 1.3068,0.72882l0.17764,-0.53291c0.31417,-1.02156 1.26534,-1.76412 2.38994,-1.76412c0.70708,0 1.3456,0.29355 1.80035,0.76542c0.99908,0.12225 1.81601,0.83387 2.09249,1.77654c0.49216,-0.68905 0.97021,-1.38297 1.43128,-2.07498l0.06997,-0.11662c0.3363,-0.61926 0.38588,-1.59983 1.05021,-1.75035l1.0966,-1.82767c0.43183,-0.74893 1.24069,-1.25305 2.16731,-1.25305c1.38071,0 2.5,1.11929 2.5,2.5c0,0.34826 -0.07121,0.67989 -0.19986,0.98112l-1.47251,3.68129l-0.15133,-0.06053c-0.68834,1.22097 -1.45661,2.37431 -2.03851,3.65655c-0.74292,1.63708 -1.00274,3.47162 -1.79188,5.08693c-2.06291,4.22263 -5.54853,8.47736 -8.40595,12.1973c-1.35808,1.76802 -3.44186,3.23283 -4.60646,5.08353c-1.26053,2.00317 -2.02073,4.71503 -2.95439,6.89359c-1.72506,3.79604 -4.31982,6.81691 -6.73686,10.19665c-2.01904,2.82322 -3.81667,5.85878 -5.9843,8.57114c-2.63958,3.3029 -6.21541,6.13497 -9.3234,8.98075c-2.72981,2.4995 -5.37286,4.78517 -8.68746,6.5039c-0.59502,0.30854 -1.23017,0.95592 -1.86696,0.74679l-1.81432,0.72573c-0.30123,0.12865 -0.63286,0.19986 -0.98112,0.19986c-0.40528,0 -0.78804,-0.09644 -1.12658,-0.26762c-0.05741,0.04853 -0.11449,0.0971 -0.17123,0.14573c-1.68383,1.44328 -3.43524,3.43891 -5.41683,4.47599c-1.54359,0.80785 -4.04787,2.56568 -5.09348,1.17214c-1.07225,-1.42904 -1.59149,-3.19917 -2.38723,-4.79875l1.49357,-1.12018c4.9387,-3.70402 10.1199,-7.65938 14.39883,-12.11848c1.39839,-1.45727 2.73889,-2.99139 4.04259,-4.56955c-0.01648,-0.11596 -0.02501,-0.23447 -0.02501,-0.35498c0,-0.57191 0.19204,-1.09897 0.51515,-1.5202l2.2252,-2.96694l0.02135,0.01601c2.1413,-2.70807 4.44116,-5.29657 6.66997,-7.93061c2.62364,-3.06424 4.54515,-6.60284 7.00803,-9.78674c2.26607,-2.92947 4.74513,-5.73652 7.03659,-8.67389c0.94903,-2.07643 1.85869,-4.17142 2.97191,-6.19042z" fill="#ffffff" stroke="none" stroke-width="0.5" stroke-linecap="butt"/><path d="M241.42291,187.86951c0,0 19.00501,-9.92958 27.83839,-11.54142c7.6429,-1.39464 14.38011,3.83772 14.38011,3.83772l-12.05229,6.32838c0,0 5.37965,3.30864 8.06398,4.03156c7.71696,2.0782 18.58814,3.14598 18.58814,3.14598c0,0 -2.53028,5.47185 -5.57276,7.25665c-4.65797,2.73252 -13.8027,1.60571 -13.8027,1.60571c0,0 14.6572,-1.41209 22.09321,0.84339c11.75835,3.56647 19.88549,15.70442 19.88549,15.70442c0,0 -9.83148,6.18253 -18.22065,7.27411c-11.1127,1.44594 -31.75051,-0.77203 -31.75051,-0.77203l2.14865,7.45652l-18.12743,-17.46423z" fill="url(#color-1)" stroke="#000000" stroke-width="0.5" stroke-linecap="round"/><g data-paper-data="{&quot;origRot&quot;:0}" stroke="#000000" stroke-width="0.5" stroke-linecap="butt"><path d="M299.61504,178.18114c6.39384,8.50489 -0.97915,24.20475 -5.7411,20.65139c-6.49905,-4.84956 -21.39144,-17.02486 -17.75428,-21.89918c3.63716,-4.87429 18.17658,-5.82713 23.49541,1.24779z" fill="#7f2626"/><path d="M265.92921,188.95322c0,0 1.23245,-8.33501 4.30916,-12.45821c3.07669,-4.1232 4.9108,0.10221 4.9108,0.10221l21.87093,24.1568c0,0 2.39254,6.03445 -0.09525,7.76576c-2.48778,1.73129 -5.83304,-3.64013 -5.83304,-3.64013l-24.62166,16.03571c0,0 -12.99192,-2.60314 -14.56254,-3.65842c-1.57065,-1.05526 -2.20087,-13.93906 -2.20087,-13.93906z" fill="#ffffff"/><path d="M221.82953,228.00267l26.67669,-23.62172c0,0 12.20456,1.6692 13.38527,2.95238c1.18071,1.28314 3.42878,14.33095 3.42878,14.33095l-18.5813,12.10173z" fill="#ffffff"/></g><g data-paper-data="{&quot;origRot&quot;:0}" stroke="#000000" stroke-width="0.5" stroke-linecap="butt"><path d="M332.81522,210.18074c6.66245,0.0523 23.13857,19.04426 18.33105,25.18952c-4.42152,5.65192 -38.59486,31.25138 -38.59486,31.25138c0,0 -12.44143,-1.88666 -14.69843,-5.35097c-1.92171,-2.94961 0.00016,-14.86097 0.00016,-14.86097c0,0 30.44985,-34.91459 34.96212,-36.22897z" fill="#ffffff"/><path d="M268.84355,281.69043l28.01009,-34.09996c0,0 9.92664,3.42226 11.14519,4.50469c2.59964,2.17162 3.25109,15.47602 3.25109,15.47602l-35.38588,25.08486z" fill="#f3c69d"/></g><g data-paper-data="{&quot;index&quot;:null,&quot;origRot&quot;:0}" stroke-linecap="butt"><g data-paper-data="{&quot;origRot&quot;:0,&quot;index&quot;:null}" stroke="#000000" stroke-width="0.5"><path d="M362.28981,279.65746c4.73044,4.69191 3.25104,29.79109 -4.48188,30.82941c-7.1121,0.95496 -49.44724,-4.60258 -49.44724,-4.60258c0,0 -7.58375,-10.04163 -6.77846,-14.09717c0.68565,-3.45297 10.38219,-10.63292 10.38219,-10.63292c0,0 46.17866,-3.70865 50.3254,-1.49676z" fill="#ffffff"/><path d="M261.61999,286.87475l48.80441,-5.57392c0,0 4.71167,9.38349 4.82733,11.00929c0.34292,3.36997 -8.48561,13.34432 -8.48561,13.34432l-42.84319,-6.77287z" fill="#f3c69d"/></g><g fill="none" stroke="none" stroke-width="1" font-family="sans-serif" font-weight="normal" font-size="12" text-anchor="start"/></g><g stroke="#000000" stroke-width="0.5"><path d="M251.80024,330.42495l-21.06942,-25.76029l20.32089,-32.51209l31.13265,8.48927z" fill="#ffffff" stroke-linecap="butt"/><g data-paper-data="{&quot;origRot&quot;:0}" stroke-linecap="round"><path d="M184.04958,272.7301l15.26713,-26.5256l56.97072,24.00195l-26.32101,40.45625z" fill="#ffffff"/><path d="M200.06522,246.72095l0.92238,19.02041l-16.01126,7.79033z" fill="#804040"/><path d="M200.69405,265.45827l42.83228,23.73956l-13.4531,21.58912l-44.22659,-36.9826z" fill="#ffffff"/></g></g><path d="M261.63546,190.10062c9.64191,27.86425 -15.27686,61.78003 -55.65767,75.75307c-40.38078,13.97301 -70.14018,-1.02242 -79.78208,-28.88663c-9.64191,-27.86425 -0.71976,-71.50422 38.91121,-87.48041c42.33191,-17.06503 86.88663,12.74972 96.52856,40.61396z" data-paper-data="{&quot;origRot&quot;:0}" fill="#f3c69d" stroke="#000000" stroke-width="0.5" stroke-linecap="butt"/><path d="M161.38834,223.15867c0,0 5.73407,-11.58325 9.72777,-14.38466c7.48899,-5.25328 17.37058,-4.24175 17.37058,-4.24175c0,0 7.78581,2.6541 9.95703,7.02859c2.17122,4.37449 0.85554,12.535 0.85554,12.535c0,0 -19.08059,16.86713 -24.45622,17.1474c-3.49847,0.18239 -13.45469,-18.08456 -13.45469,-18.08456z" data-paper-data="{&quot;index&quot;:null,&quot;origRot&quot;:0}" fill="#ffffff" stroke="#000000" stroke-width="0" stroke-linecap="butt"/><path d="M201.29733,213.74277c2.07882,6.00761 -1.48071,12.69255 -7.95042,14.93129c-6.4697,2.23873 -13.39971,-0.81652 -15.47853,-6.82412c-2.07882,-6.00761 1.48073,-12.6926 7.95043,-14.93132c6.4697,-2.23873 13.3997,0.81656 15.47852,6.82417z" data-paper-data="{&quot;origRot&quot;:0}" fill="url(#color-2)" stroke="#000000" stroke-width="0.5" stroke-linecap="butt"/><path d="M247.18816,195.33335c-2.47846,4.77014 -27.20871,13.04034 -27.20871,13.04034c0,0 -6.82864,-2.11338 -8.9012,-4.64804c-3.03732,-3.71443 -4.19226,-11.36439 -4.19226,-11.36439c0,0 10.73782,-11.67289 18.56662,-16.3812c4.17491,-2.51083 12.19148,-2.11683 12.19148,-2.11683c0,0 11.15709,18.36569 9.54406,21.4701z" data-paper-data="{&quot;origRot&quot;:0}" fill="#ffffff" stroke="#000000" stroke-width="0" stroke-linecap="butt"/><path d="M244.8275,184.81474c2.07882,6.00761 -1.4807,12.69257 -7.95042,14.93129c-6.46971,2.23871 -13.39971,-0.81652 -15.47855,-6.82415c-2.07882,-6.00761 1.48076,-12.69262 7.95046,-14.93133c6.46971,-2.23871 13.39968,0.81658 15.47849,6.82418z" data-paper-data="{&quot;origRot&quot;:0}" fill="url(#color-3)" stroke="#000000" stroke-width="0.5" stroke-linecap="butt"/><path d="M160.50842,226.71571l-0.16443,-14.44417l20.98276,-12.6986l11.08149,5.83282l-10.99926,1.38926l-14.69426,9.91836z" data-paper-data="{&quot;origRot&quot;:0}" fill="#000000" stroke="#000000" stroke-width="0.5" stroke-linecap="round"/><path d="M205.16965,197.98265l1.10147,-14.27801l21.87524,-13.61163l11.22712,2.76138l-11.35218,2.11556l-17.01885,11.93119z" data-paper-data="{&quot;origRot&quot;:0}" fill="#000000" stroke="#000000" stroke-width="0.5" stroke-linecap="round"/><path d="M173.51879,243.3611l28.99454,-22.72148l-1.2248,3.44487l-27.7286,22.88763z" data-paper-data="{&quot;origRot&quot;:0}" fill="#000000" stroke="#000000" stroke-width="0.5" stroke-linecap="round"/><path d="M218.11774,207.28563l30.01038,-12.80138l-2.11731,4.35793l-28.93117,12.42793z" data-paper-data="{&quot;origRot&quot;:0}" fill="#000000" stroke="#000000" stroke-width="0.5" stroke-linecap="round"/><path d="M262.92695,190.38741c3.94835,15.15845 3.00718,28.43461 -5.78511,35.66506c-8.79229,7.23045 1.16301,-17.37462 -2.39053,-28.94172c-4.44439,-14.46681 -22.66845,-42.22928 -22.66845,-42.22928c0,0 25.13301,13.57995 30.8441,35.50595z" data-paper-data="{&quot;origRot&quot;:0}" fill="url(#color-4)" stroke="#000000" stroke-width="0.5" stroke-linecap="round"/><path d="M142.14084,219.23585l14.09448,25.76498l29.89826,9.07533l-10.37721,6.18035l11.59101,9.79969c0,0 -18.29568,7.1295 -36.25385,-2.72082c-15.72985,-5.77477 -24.17898,-25.99916 -24.17898,-25.99916z" data-paper-data="{&quot;origRot&quot;:0}" fill="url(#color-5)" stroke="#000000" stroke-width="0.5" stroke-linecap="round"/><path d="M124.11256,244.46372c0,0 -23.18207,-63.51898 24.06917,-95.07614c47.62697,-31.80807 92.9581,7.97043 92.9581,7.97043l-40.81144,18.00628l-14.70381,-11.31206l0.36829,21.01995c0,0 -20.68923,12.04 -31.1802,22.10902c-13.65865,13.10929 -30.70016,37.2825 -30.70016,37.2825z" data-paper-data="{&quot;origRot&quot;:0}" fill="url(#color-6)" stroke="#000000" stroke-width="0.5" stroke-linecap="round"/><path d="M172.93984,264.95047c2.02294,4.59944 7.01795,14.56442 8.19861,23.09859c1.28763,9.30746 -1.87391,22.61819 -1.87391,22.61819l-13.8889,-7.70977l-11.4919,32.89237c0,0 -7.71639,-7.09487 -10.43502,-12.40426c-2.99585,-5.85071 -4.2076,-16.19212 -4.2076,-16.19212l-8.76206,12.09511c0,0 -0.055,-21.55987 5.70678,-33.77422c2.59388,-5.49877 15.70349,-11.61341 15.70349,-11.61341l-18.04054,1.49521l19.7768,-18.9276c0,0 9.66608,-3.51252 12.6831,-2.19694c4.5206,1.97119 4.60821,6.01944 6.63113,10.61887z" fill="url(#color-7)" stroke="#000000" stroke-width="0.5" stroke-linecap="round"/><g data-paper-data="{&quot;origRot&quot;:0,&quot;index&quot;:null}" stroke="#000000" stroke-width="0.5" stroke-linecap="butt"><path d="M104.62339,321.30324c-4.81278,-7.42841 1.08466,-20.75219 6.9128,-22.49009c5.82819,-1.73791 12.13581,16.43447 14.45303,24.20534c1.69787,5.69383 -15.58025,7.21456 -21.36581,-1.71527z" fill="#7f2626"/><path d="M145.39792,283.09153c0,0 11.88026,5.02489 12.33067,6.86271c0.45039,1.83785 -1.57574,14.93212 -1.57574,14.93212l-23.52847,17.6006c0,0 3.8924,4.9892 1.4108,6.72937c-2.48159,1.74017 -7.32435,-2.58265 -7.32435,-2.58265l-15.1563,-28.84744c0,0 -3.33631,-3.17602 1.59376,-4.64612c4.93007,-1.4701 13.1802,0.24063 13.1802,0.24063z" fill="#ffffff"/><path d="M189.53137,273.71224l-32.27968,30.35215c0,0 -11.47757,-6.60035 -12.27609,-8.15047c-0.79853,-1.55012 1.83359,-13.58379 1.83359,-13.58379l31.35837,-16.91992z" fill="#ffffff"/></g><path d="M153.06656,212.2556c0,0 6.02939,-7.95261 11.66132,-11.55957c5.25345,-3.36455 16.23117,-6.30406 16.23117,-6.30406" fill="none" stroke="#000000" stroke-width="0.5" stroke-linecap="round"/><path d="M196.81295,185.2904c0,0 7.55867,-8.48625 12.92498,-11.66774c5.75294,-3.41068 15.5667,-5.22377 15.5667,-5.22377" data-paper-data="{&quot;index&quot;:null}" fill="none" stroke="#000000" stroke-width="0.5" stroke-linecap="round"/><g data-paper-data="{&quot;index&quot;:null,&quot;origRot&quot;:0}" stroke="#000000"><g><path d="M133.95191,186.26677l24.16463,38.05484c0,0 -2.6958,4.79906 -5.31162,6.16267c-1.2896,0.67226 -4.78601,-0.24249 -4.78601,-0.24249l-13.68657,-32.28311l13.0408,30.49277c0,0 -1.82549,5.08196 -3.90681,5.46252c-2.8444,0.52003 -5.26864,-15.27992 -7.17647,-16.10729c-1.24045,-0.53792 5.32169,15.9597 5.32169,15.9597c0,0 -3.36593,2.20853 -7.25523,1.91741c-2.16039,-0.1617 -13.00553,0.41456 -14.49699,-1.15674c-10.20868,-10.75492 3.83207,-40.11175 3.83207,-40.11175z" data-paper-data="{&quot;index&quot;:null,&quot;origRot&quot;:0}" fill="#ffffff" stroke-width="0.025" stroke-linecap="round"/><g data-paper-data="{&quot;origRot&quot;:0}" fill="#8ceeff" stroke-width="0.015" stroke-linecap="butt"><path d="M95.76079,171.04664c1.19477,-4.06066 8.64978,-1.56149 12.86224,-0.32204c4.21246,1.23945 8.01622,13.10315 6.82147,17.16384c-1.19477,4.06066 -10.25033,-0.10403 -13.34696,-3.10578c-3.15288,-3.05622 -7.53149,-9.6753 -6.33674,-13.73599z" data-paper-data="{&quot;origRot&quot;:0}"/><path d="M101.38675,189.17882c3.7691,-2.09602 13.59491,-3.77004 13.69579,0.46157c0.10088,4.2316 -6.64919,14.7031 -11.03895,14.80777c-4.3898,0.10469 -12.23789,0.58516 -12.33875,-3.64644c-0.10088,-4.2316 5.84438,-9.48882 9.68193,-11.6229z" data-paper-data="{&quot;origRot&quot;:0,&quot;index&quot;:null}"/><path d="M113.12021,184.5987c0.75317,-2.11397 6.35252,-4.61998 8.69139,-3.78666c2.33883,0.83331 0.13651,5.28389 -0.61669,7.39783c-0.75317,2.11397 -2.86473,2.55861 -5.20358,1.72532c-2.33883,-0.83331 -3.62428,-3.22253 -2.8711,-5.3365z" data-paper-data="{&quot;origRot&quot;:0}"/><path d="M116.03162,188.87054c2.47492,-0.19829 4.39897,0.77871 4.57819,3.01567c0.17922,2.23696 1.15213,7.10637 -1.3228,7.30466c-2.47492,0.19829 -7.23288,-3.67396 -7.4121,-5.91092c-0.17922,-2.23696 1.6818,-4.21113 4.15672,-4.40942z" data-paper-data="{&quot;origRot&quot;:0,&quot;index&quot;:null}"/></g><path d="M133.46591,177.46142c11.32062,-9.55078 23.28507,-13.98944 26.72334,-9.91402c3.43826,4.07542 -2.95161,15.12165 -14.27223,24.67243c-11.32062,9.55078 -23.2851,13.98945 -26.72334,9.91402c-3.43826,-4.07542 2.95161,-15.12165 14.27223,-24.67243z" data-paper-data="{&quot;origRot&quot;:0}" fill="#ffffff" stroke-width="0.5" stroke-linecap="butt"/><path d="M123.66562,193.09654c0,0 -29.25806,-31.0147 -33.95157,-39.04097c-2.36535,-4.04495 7.15643,-12.51697 13.12458,-17.12839c7.62908,-5.8947 18.71466,-13.96696 21.71652,-9.7922c11.96802,16.64439 26.12905,45.57043 26.12905,45.57043z" data-paper-data="{&quot;origRot&quot;:0}" fill="#ffffff" stroke-width="0.5" stroke-linecap="butt"/><path d="M123.54784,126.51632c0,0 -8.65023,13.33218 -15.88596,18.93968c-5.96692,4.6242 -17.9441,7.27777 -17.9441,7.27777" fill="none" stroke-width="0.5" stroke-linecap="round"/><path d="M149.3055,176.6595c0.98535,-1.50064 2.89002,-1.99095 4.25426,-1.09518c1.36423,0.89577 1.67136,2.83844 0.68599,4.33909c-0.98535,1.50064 -2.89002,1.99095 -4.25426,1.09518c-1.36423,-0.89577 -1.67134,-2.83845 -0.68599,-4.33909z" fill="#fff08d" stroke-width="0.5" stroke-linecap="butt"/><path d="M140.33651,183.3199c1.1197,-1.70526 3.29923,-2.25253 4.86801,-1.22241c1.56883,1.03014 1.93292,3.24759 0.81323,4.95287c-1.1197,1.70526 -3.29925,2.25255 -4.86805,1.22239c-1.56883,-1.03014 -1.93292,-3.24759 -0.8132,-4.95286z" fill="#8ceeff" stroke-width="0.5" stroke-linecap="butt"/><path d="M129.74186,191.91768c1.2093,-1.84169 3.57197,-2.42693 5.27725,-1.30723c1.70526,1.1197 2.1073,3.52037 0.89804,5.36205c-1.2093,1.84169 -3.572,2.42694 -5.27727,1.30722c-1.70526,-1.1197 -2.10728,-3.52039 -0.89801,-5.36207z" fill="#ff8c8c" stroke-width="0.5" stroke-linecap="butt"/></g><path d="M149.1638,170.28378l-27.3965,20.33941l-3.99345,-4.89914l28.3581,-21.22593z" fill="#ff8c8c" stroke-width="0.5" stroke-linecap="round"/></g><path d="M228.06324,229.5507c4.86935,7.89969 5.25899,16.49665 0.87027,19.20184c-4.38872,2.7052 -11.89387,-1.50577 -16.76322,-9.40546c-4.86935,-7.89969 -5.25899,-16.49665 -0.87027,-19.20184c4.38872,-2.7052 11.89387,1.50577 16.76322,9.40546z" fill="#ffa6a6" stroke="#000000" stroke-width="0.5" stroke-linecap="butt"/><path d="M377.78185,256.503c0,32.78882 -14.87844,59.36941 -33.23194,59.36941c-18.35349,0 1.12018,-31.0613 1.12018,-63.85012c0,-32.78882 -19.47367,-54.8887 -1.12018,-54.8887c18.35349,0 33.23194,26.58059 33.23194,59.36941z" fill="url(#color-8)" stroke="none" stroke-width="0" stroke-linecap="butt"/></g></g></svg>