<svg version="1.1" xmlns="http://www.w3.org/2000/svg" xmlns:xlink="http://www.w3.org/1999/xlink" width="136.4942" height="250.40391" viewBox="0,0,136.4942,250.40391"><g transform="translate(-161.95629,-160.12295)"><g data-paper-data="{&quot;isPaintingLayer&quot;:true}" fill-rule="nonzero" stroke-width="10" stroke-linejoin="miter" stroke-miterlimit="10" stroke-dasharray="" stroke-dashoffset="0" style="mix-blend-mode: normal"><path d="M237.31243,405.51911c-20.44257,0.41584 -44.08708,-15.95984 -51.97968,-35.34618c-17.27389,-42.457 -18.81249,-90.74405 -18.29685,-136.39468c0.62376,-20.03504 7.46013,-41.83325 21.62355,-55.72222c11.9678,-11.72662 31.90305,-13.23195 48.65298,-12.89096c12.50839,0.27445 25.01678,4.64075 32.43532,13.72264c12.98244,15.90162 22.80452,35.33786 23.70273,54.89054c2.37859,45.25143 0.07485,92.09967 -14.13847,134.31549c-5.95479,17.78121 -23.27026,37.05111 -41.99958,37.42537z" data-paper-data="{&quot;origPos&quot;:null}" fill="#404040" stroke="#000000" stroke-linecap="round"/><path d="M175.15721,295.75384l84.08066,21.6984l-76.43674,40.43769l-7.64392,-61.64291z" data-paper-data="{&quot;origPos&quot;:null}" fill="#ffd7b8" stroke="#000000" stroke-linecap="round"/><path d="M199.88623,330.18352c-1.30323,0 -2.48755,-0.69694 -3.34416,-1.82137c-0.85579,-1.13025 -1.38308,-2.68215 -1.38308,-4.39955c0,-1.71659 0.52728,-3.26931 1.38308,-4.39873c0.85662,-1.12442 2.04093,-1.82137 3.34416,-1.82137c1.30407,0 2.48837,0.69694 3.34416,1.82137c0.85579,1.12941 1.38391,2.68215 1.38391,4.39873c0,1.71741 -0.52811,3.26931 -1.38391,4.39956c-0.85579,1.12442 -2.0401,1.82137 -3.34416,1.82137z" data-paper-data="{&quot;origPos&quot;:null}" fill="#000000" stroke="#320066" stroke-linecap="butt"/></g></g></svg>