<svg version="1.1" xmlns="http://www.w3.org/2000/svg" xmlns:xlink="http://www.w3.org/1999/xlink" width="290.41226" height="378.56545" viewBox="0,0,290.41226,378.56545"><defs><radialGradient cx="249.37668" cy="281.91447" r="75.60444" gradientUnits="userSpaceOnUse" id="color-1"><stop offset="0" stop-color="#f8fa00"/><stop offset="1" stop-color="#e6fa85"/></radialGradient><radialGradient cx="76.93934" cy="284.21363" r="75.60444" gradientUnits="userSpaceOnUse" id="color-2"><stop offset="0" stop-color="#f8fa00"/><stop offset="1" stop-color="#e6fa85"/></radialGradient><radialGradient cx="164.30758" cy="35.90387" r="43.39679" gradientUnits="userSpaceOnUse" id="color-3"><stop offset="0" stop-color="#e9ff00"/><stop offset="1" stop-color="#b2c200"/></radialGradient><radialGradient cx="178.96476" cy="16.07358" r="5.02192" gradientUnits="userSpaceOnUse" id="color-4"><stop offset="0" stop-color="#fa0000"/><stop offset="1" stop-color="#ff4e4e"/></radialGradient><radialGradient cx="208.92321" cy="34.05639" r="2.87182" gradientUnits="userSpaceOnUse" id="color-5"><stop offset="0" stop-color="#fa0000"/><stop offset="1" stop-color="#ff4e4e"/></radialGradient><radialGradient cx="148.13588" cy="4.76993" r="2.87181" gradientUnits="userSpaceOnUse" id="color-6"><stop offset="0" stop-color="#fa0000"/><stop offset="1" stop-color="#ff4e4e"/></radialGradient><radialGradient cx="247.0775" cy="40.5022" r="24.71602" gradientUnits="userSpaceOnUse" id="color-7"><stop offset="0" stop-color="#f8fa00"/><stop offset="1" stop-color="#fa0030"/></radialGradient></defs><g transform="translate(-6.83993,7.28273)"><g data-paper-data="{&quot;isPaintingLayer&quot;:true}" fill-rule="nonzero" stroke-linejoin="miter" stroke-miterlimit="10" stroke-dasharray="" stroke-dashoffset="0" style="mix-blend-mode: normal"><g stroke-linecap="butt"><path d="M83.83683,361.23564l-43.68413,-301.19055c0,0 90.95558,-59.77828 124.15488,-59.77828c33.64794,0 127.60363,62.07744 127.60363,62.07744l-36.78663,298.89138z" data-paper-data="{&quot;origPos&quot;:null}" fill="#fa1e1e" stroke="#e5fa00" stroke-width="10"/><path d="M79.2385,346.29108v-106.74692c0,0 53.52397,-8.21131 88.51783,-8.21131c30.50746,0 79.32117,8.21131 79.32117,8.21131v106.74692z" data-paper-data="{&quot;origPos&quot;:null}" fill="#881010" stroke="none" stroke-width="0"/><path d="M97.70145,241.54829c-5.61711,1.21922 -6.83634,-4.3979 -6.83634,-4.3979l-0.1308,-3.51839c0,-4.26341 -2.6504,-8.96092 -3.44875,-13.79499c-0.52453,-3.17608 -0.26686,-7.91492 -1.42941,-11.40255c-1.62223,-4.86669 -2.37759,-9.09672 -3.16892,-13.88826c-0.09004,-0.54513 0.38839,-1.08654 0.29496,-1.6311c-1.60341,-9.3462 -2.96001,-18.66772 -5.29647,-28.01355c-0.5638,-2.78969 -0.19074,-5.03283 -0.45144,-7.6235c-0.3894,-3.86948 -2.49378,-8.15218 -3.5721,-11.9194c-0.76667,-2.67843 -0.76016,-5.50728 -1.14958,-8.04708c-0.95396,-6.22164 -3.46908,-11.4875 -3.61384,-17.5215c-0.71599,-0.88311 -1.42121,-1.77767 -2.01072,-2.74741c-0.84599,-1.39164 -1.20774,-3.62323 -1.72437,-5.17312c-0.91862,-2.75585 -1.39466,-6.69998 -1.72437,-8.62187c-0.78685,-4.58651 -3.12424,-9.37272 -4.59833,-13.79499c0,0 -1.81765,-5.45295 3.6353,-7.2706c5.45295,-1.81765 7.2706,3.6353 7.2706,3.6353c1.46937,4.40811 3.84261,9.21906 4.59833,13.79499c0.04798,0.29057 0.38465,4.81022 0.57479,5.17312c1.38675,2.64672 1.46389,5.9882 2.87396,8.62187c0.17667,0.32998 -0.61266,-1.11867 -0.23898,-1.09716c2.49403,0.14359 2.13548,4.53957 2.83311,6.93834c0,5.02901 2.54008,9.92522 3.27713,15.27487c0.22047,1.60017 -0.07319,3.24619 0.17162,4.84282c0.7363,4.80207 3.64788,9.44108 4.30337,14.2765c0.319,2.35319 -0.31869,6.18797 0.69814,8.47065c1.70509,6.82039 3.0786,13.83391 4.02354,20.69248c0.22047,1.60017 -0.10151,3.25079 0.17162,4.84282c0.10378,0.60497 0.7546,1.0255 0.85462,1.6311c0.90873,5.50239 1.12853,10.28308 2.87396,15.51936c1.66043,4.98129 1.1426,9.92739 2.01933,15.03785c0.74554,4.34571 3.44875,8.57127 3.44875,13.79499l-0.1308,1.07994c0,0 1.21922,5.61711 -4.3979,6.83634z" data-paper-data="{&quot;origPos&quot;:null}" fill="#881010" stroke="none" stroke-width="0.5"/><path d="M133.35353,239.24585c-5.61384,1.23425 -6.84808,-4.37959 -6.84808,-4.37959l-1.28366,-2.38383c0,-2.60714 -0.65524,-3.57751 -1.14958,-6.89749c-0.68009,-4.56745 0,-9.73326 0,-14.36978c0,-4.47546 0.92188,-11.19698 0.29496,-14.85129c-1.88519,-10.98867 -6.83995,-21.66941 -10.34624,-32.1883c-2.94272,-8.82816 -5.91298,-17.83419 -8.17043,-26.86397c-1.15379,-4.61515 -2.84699,-9.35662 -3.62037,-14.03948c-0.18289,-1.10737 0.0751,-2.29069 -0.27983,-3.35547c-1.48842,-4.74083 -2.67485,-10.08918 -3.16892,-15.03785c-0.14428,-1.44522 0.3257,-2.90963 0.17162,-4.35384c-1.02565,-9.61369 -5.75372,-18.41653 -8.04708,-27.58997c0,0 -1.39408,-5.57629 4.18221,-6.97037c5.57629,-1.39408 6.97037,4.18221 6.97037,4.18221c2.28704,9.14813 6.95769,18.00514 8.04708,27.58997c0.70966,6.24388 0.46659,12.51144 2.75061,18.54453c0.78006,2.34019 0.46671,4.64143 0.86975,6.99077c0.24091,1.40425 1.63586,4.68626 2.12754,6.653c2.57894,10.31578 5.71152,20.52975 9.07331,30.61515c3.49396,10.48187 8.53667,21.23127 10.34624,32.1883c0.98336,5.95432 0.29496,12.45665 0.29496,18.48659c0,4.67714 -0.58687,9.74341 0,14.36978c0.20007,1.57715 1.14958,4.5191 1.14958,6.89749l1.01551,-0.08467c0,0 1.23425,5.61384 -4.37959,6.84808z" data-paper-data="{&quot;origPos&quot;:null}" fill="#881010" stroke="none" stroke-width="0.5"/><path d="M157.92223,238.54104c-5.73056,0.44623 -6.1768,-5.28433 -6.1768,-5.28433l0.0739,-2.96153c0.04418,-1.16514 0.54174,-4.65443 0.48723,-5.06502c-0.60548,-4.56015 -1.63043,-8.79786 -2.08783,-13.4022c-0.43947,-4.42402 0.35449,-9.34904 0.52269,-13.78508c0.21887,-5.77219 0.47812,-12.77025 -0.18239,-17.74491c-0.2396,-1.80446 -1.06796,-3.50557 -1.24396,-5.31735c-0.14043,-1.4456 0.4357,-2.8952 0.33646,-4.34421c-0.32898,-4.80314 -1.52476,-9.34192 -1.93706,-14.12301c-0.12927,-1.49902 0.31243,-3.06805 -0.10893,-4.51242c-0.55823,-2.71351 -0.22515,-4.28909 -0.44201,-6.76789c-0.31416,-3.59085 -1.75593,-7.06109 -2.06773,-10.67675c-0.0919,-1.06566 0.38613,-2.12991 0.2929,-3.19545c-0.63424,-7.24928 -4.3294,-13.96445 -5.12198,-21.14623c-0.10224,-0.92647 0.4823,-1.83904 0.40011,-2.7675c-0.21089,-2.38269 -1.27298,-4.55228 -1.17863,-7.04048c0.2829,-7.4611 1.26897,-15.29194 0.91986,-22.73504c-0.37896,-8.07953 -2.90817,-15.8468 -2.60204,-23.92029c0,0 0.21779,-5.74378 5.96157,-5.526c5.74378,0.21779 5.526,5.96157 5.526,5.96157c-0.28313,7.46705 2.21627,14.74523 2.54819,22.29132c0.35303,8.0257 -0.56138,16.33 -0.866,24.36399c-0.04373,1.15336 0.60025,2.23821 0.72687,3.38544c0.23485,2.128 -0.13711,4.28997 0.05165,6.42254c0.16049,1.81321 1.3005,3.40467 1.81028,5.15214c1.21095,4.15092 2.70016,8.85589 3.07435,13.19494c0.17169,1.99089 -0.22972,4.00391 -0.05556,5.9946c0.22555,2.57795 1.60281,5.23858 1.83038,7.87759c0.10589,1.22785 0.04298,2.46474 0.03156,3.69709c-0.02201,2.37569 -0.83167,2.51472 0.19605,2.21491c1.47594,5.05927 0.80496,11.02694 1.40455,16.25231c1.26618,11.03482 2.62269,21.85129 2.1831,33.44462c-0.16684,4.40008 -1.02555,9.40261 -0.52269,13.78508c0.74132,6.46057 1.85539,11.74724 1.6006,18.46722l-0.10034,1.63349c0,0 0.44623,5.73056 -5.28433,6.1768z" data-paper-data="{&quot;origPos&quot;:null,&quot;origRot&quot;:0}" fill="#881010" stroke="none" stroke-width="0.5"/><path d="M190.58094,239.44748c-5.74785,0.02459 -5.76149,-5.39225 -5.76149,-5.39225l-0.10668,-1.72107c0.90846,0.22653 0.21889,0.14058 -0.3802,-1.61066c-0.80803,-2.36199 -1.33202,-3.43484 -1.22946,-5.77619c0.07575,-1.72924 -1.0865,-3.85094 -1.50298,-5.66579c-0.89766,-3.91163 -0.53372,-8.61041 -0.78233,-12.62118c-0.22608,-3.64731 0.18708,-6.85863 0.5073,-10.39755c0.43675,-4.82685 -1.04983,-9.85783 -0.83385,-14.71654c0.34888,-7.84808 1.26637,-15.46919 0.78164,-23.28925c-0.08367,-2.85061 0.54436,-5.33614 0.64954,-8.10278c0.41998,-11.04676 -2.28145,-22.19275 -1.94969,-33.25864c0.04731,-1.57789 0.7214,-3.09768 0.75011,-4.67602c0.05563,-3.05783 -0.52781,-6.10617 -0.45618,-9.16366c0.08718,-3.72139 1.73309,-7.39948 1.50633,-11.05773c-0.30493,-4.91934 0.10311,-9.25606 0.58256,-13.95103c0.06235,-0.61064 0.71265,-1.06831 0.75207,-1.68085c0.22524,-3.49949 -0.70282,-7.05578 -0.48392,-10.58107c0.26014,-4.1894 0.73833,-8.58233 1.51244,-12.76342c0,0 1.04642,-5.65185 6.69828,-4.60543c5.65185,1.04642 4.60543,6.69828 4.60543,6.69828c-0.77214,4.17042 -1.24243,8.50097 -1.51244,12.76342c-0.15732,2.48344 0.87318,5.23204 0.65401,7.77702c-0.4803,5.577 -1.67361,10.16324 -1.33464,15.63187c0.28018,4.52012 -1.50788,8.82643 -1.58967,13.32174c-0.25423,13.97359 0.69085,27.92309 1.56129,41.96587c0.22638,3.65214 -1.03212,7.42824 -0.47174,10.97123c0.5235,8.4456 -0.35586,16.74053 -0.82084,25.1852c-0.232,4.21355 1.19086,8.5913 0.87304,12.82058c-0.29384,3.9102 -0.74569,6.55153 -0.5073,10.39755c0.24771,3.99626 -0.13626,8.72978 0.78233,12.62118c0.91945,3.8951 2.47098,8.65811 3.11264,13.05263l0.10668,1.72107c0,0 0.03555,6.07888 -5.71232,6.10345z" data-paper-data="{&quot;origPos&quot;:null,&quot;origRot&quot;:0}" fill="#881010" stroke="none" stroke-width="0.5"/><path d="M215.62926,241.66448c-5.7333,-0.40953 -5.32378,-6.14283 -5.32378,-6.14283l0.28036,-2.55771c3.00597,-9.01791 4.30337,-17.16818 4.30337,-26.34711c0.2305,-4.18838 1.74937,-7.95034 2.29916,-12.07061c0.23255,-1.74277 0.00847,-3.53168 0.29496,-5.2664c0.10001,-0.6056 0.77737,-1.02217 0.85462,-1.6311c0.25147,-1.9824 -0.07538,-4.00944 0.17162,-5.9924c0.66129,-5.30904 2.78112,-10.47812 3.27713,-15.84966c0.48602,-5.26336 0,-10.80852 0,-16.09415c0,-24.90762 0,-49.81523 0,-74.72285c0,0 0,-5.74791 5.74791,-5.74791c5.74791,0 5.74791,5.74791 5.74791,5.74791c0,24.90762 0,49.81523 0,74.72285c0,5.28976 0.47339,10.82549 0,16.09415c-0.57007,6.34469 -2.83373,12.38594 -3.62037,18.63781c-0.43352,3.44539 -0.62987,7.19819 -0.97796,10.10175c-0.38057,3.17441 -1.12542,6.34175 -1.89599,9.44115c-0.21395,0.86053 -0.81201,1.84261 -0.40317,2.62946c0,10.51969 -1.51733,19.85455 -4.89329,29.98242l0.28036,-0.25854c0,0 -0.40953,5.7333 -6.14283,5.32378z" data-paper-data="{&quot;origPos&quot;:null}" fill="#881010" stroke="none" stroke-width="0.5"/><path d="M241.78337,234.73933c-5.70564,-0.69581 -5.0521,-5.70564 -5.0521,-5.70564v-1.72437c0.3938,-4.72883 2.74716,-8.64451 3.44875,-13.2202c0.36284,-2.36644 0.08904,-4.6486 0.86975,-6.99077c0.43647,0.14549 0.26592,-5.87279 0.27983,-6.22943c0.14619,-3.74974 0.83139,-6.52782 1.89599,-10.01594c0.88498,-2.89963 0.1561,-6.15769 0.57479,-9.19666c1.15696,-8.3975 2.32936,-16.66375 5.36748,-24.76538c2.26895,-4.30958 1.77343,-10.14434 2.58619,-15.02088c3.03221,-18.19324 -0.73946,-36.94825 2.29916,-55.17995c0,0 0.94495,-5.66971 6.61465,-4.72475c5.66971,0.94495 4.72475,6.61465 4.72475,6.61465c-3.98541,23.91245 1.95758,48.86579 -5.46088,72.34737c-2.89041,7.70774 -3.74771,15.4882 -4.97876,23.51707c-0.24736,1.61323 0.41022,3.77164 0.17162,5.50342c-0.4551,3.30322 -2.2683,6.62692 -2.59412,9.86473c-0.38841,3.85963 0.402,6.94312 -0.57479,10.92103c-1.04625,3.13874 -1.02144,7.60891 -2.29916,11.49582c-0.25151,0.7651 -1.75996,5.18437 -1.42941,5.07984v1.72437c0,0 -0.73808,6.40145 -6.44372,5.70564z" data-paper-data="{&quot;origPos&quot;:null}" fill="#881010" stroke="none" stroke-width="0.5"/><path d="M278.11624,291.11113c0,13.912 4.02296,29.8421 1.30407,43.48582c-3.74058,18.77074 -13.20298,32.38661 -32.3428,32.38661c-20.0164,0 -25.70078,-13.75592 -29.31629,-33.44309c-2.35455,-12.82101 0.57673,-28.24434 0.57673,-41.27975c0,-21.02051 -3.78009,-49.36694 3.53526,-69.07347c4.18702,-11.27924 13.17299,-5.64938 25.20429,-5.64938c0,0 26.3155,-7.33328 30.39729,7.91101c4.46697,16.68284 0.64143,24.39396 0.64143,65.66225z" data-paper-data="{&quot;origPos&quot;:null}" fill="url(#color-1)" stroke="#f5fac1" stroke-width="4"/><path d="M105.6789,293.41029c0,13.912 4.02296,29.8421 1.30407,43.48582c-3.74059,18.77074 -13.20298,32.38661 -32.3428,32.38661c-20.0164,0 -25.70078,-13.75592 -29.31629,-33.44309c-2.35455,-12.82101 0.57673,-28.24434 0.57673,-41.27975c0,-21.02051 -3.78009,-49.36694 3.53526,-69.07347c4.18702,-11.27924 13.17298,-5.64938 25.20429,-5.64938c0,0 26.3155,-7.33328 30.39729,7.91101c4.46695,16.68284 0.64143,24.39396 0.64143,65.66225z" data-paper-data="{&quot;origPos&quot;:null}" fill="url(#color-2)" stroke="#f5fac1" stroke-width="4"/><path d="M138.31789,345.1238c-5.73022,0.45069 -6.1809,-5.27953 -6.1809,-5.27953l-0.87231,1.36696c-1.14011,-3.42033 -0.91081,-6.22599 -1.27293,-9.62023c-0.21698,-2.0339 -1.04203,-3.9661 -1.3212,-5.9924c-0.53115,-3.85524 0,-8.1736 0,-12.07061c0,-4.98152 0,-9.96305 0,-14.94457c0,-1.84131 0.48163,-5.71618 0.29496,-6.80422c-0.30779,-1.7941 -1.14794,-3.47042 -1.44454,-5.2664c-0.35428,-2.14519 0.43448,-4.56381 0.17162,-6.653c-0.28646,-2.2767 -1.16738,-4.66951 -1.72437,-6.89749c-0.78119,-3.8653 -1.35563,-7.81827 -1.89599,-11.74032c-0.66715,-4.84234 0.99564,-11.34186 0.29496,-15.42608c-0.45444,-2.64888 -0.86673,-4.7279 -0.72313,-6.9419l-0.42645,-0.14215l1.10767,-3.32301c0.21939,-0.71336 0.57388,-1.36755 1.03361,-1.93271c1.02398,-1.36334 2.92179,-2.84904 6.05898,-1.89832c0.15018,0.04336 0.29782,0.09269 0.44267,0.14771c3.07766,1.123 3.70286,3.45061 3.70337,5.15503c0.00275,0.07306 0.00414,0.14647 0.00414,0.2202v3.44875h-0.58162c0.26873,0.29151 0.20845,1.15762 0.28665,1.6311c0.4716,2.85561 0.29496,5.83134 0.29496,8.71514c0,3.31483 -0.50153,7.07528 0,10.34624c0.16925,1.10383 0.82555,2.09798 0.97796,3.20425c0.26261,1.9061 -0.21298,3.97942 0.57479,5.74791c0.55664,2.22653 1.44093,4.62195 1.72437,6.89749c0.38248,3.07064 -0.3481,6.41169 0.17162,9.44115c0.10378,0.60497 0.7546,1.0255 0.85462,1.6311c1.33991,8.11319 0.29496,17.18076 0.29496,25.38409c0,3.86838 -0.58528,8.25346 0,12.07061c0.16925,1.10383 0.85185,2.09468 0.97796,3.20425c0.40786,3.58849 0.0499,5.84407 1.02623,8.77308l1.42685,1.36696c0,0 0.45069,5.73022 -5.27953,6.1809z" fill="#ff1f1f" stroke="none" stroke-width="0.5"/><path d="M166.47635,341.67489c-0.32188,1.71692 -1.45001,4.43467 -5.35943,4.61039c-5.74212,0.25807 -6.00019,-5.48405 -6.00019,-5.48405l0.28917,-0.92614c2.07139,-6.21415 -0.29496,-12.62822 -0.29496,-19.44962c0,-2.41192 0.57348,-5.75825 0.29496,-7.9538c-0.22908,-1.80583 -1.17646,-3.46594 -1.44454,-5.2664c-0.57478,-3.86015 0.76043,-8.30812 0.29496,-11.97734c-0.22908,-1.80583 -1.14794,-3.47042 -1.44454,-5.2664c-0.68827,-4.16751 0,-8.98074 0,-13.2202c0,-5.74791 0,-11.49582 0,-17.24373c0,-1.99125 0.52196,-6.63069 0.29496,-7.9538c-0.30779,-1.7941 -1.17646,-3.46594 -1.44454,-5.2664c-0.37645,-2.52826 0.01336,-3.62551 -0.85462,-6.22943c0,0 -1.81765,-5.45295 3.6353,-7.2706c5.45295,-1.81765 7.2706,3.6353 7.2706,3.6353c1.11984,3.35954 1.00495,6.39938 1.44454,9.86473c0.07724,0.60893 0.7546,1.0255 0.85462,1.6311c1.52702,9.24622 0.29496,19.47165 0.29496,28.83283c0,4.22699 -0.71191,9.0705 0,13.2202c0.20695,1.20627 1.06452,3.89766 1.14958,5.74791c0.17354,3.77472 -0.47508,7.75078 0,11.49582c0.07724,0.60893 0.76422,1.02398 0.85462,1.6311c0.56424,3.78936 0.29496,7.76382 0.29496,11.5891c0,7.75047 2.40841,14.97479 -0.29496,23.08492z" fill="#ff1f1f" stroke="none" stroke-width="0.5"/><path d="M194.45772,342.8364c-5.74198,0.261 -6.00298,-5.48098 -6.00298,-5.48098l-1.15551,-1.41058c0,-2.87396 0,-5.74791 0,-8.62187c0,-6.38414 0.95966,-13.61013 0.17162,-19.8732c-1.04723,-8.32296 -2.47079,-16.52334 -2.47079,-24.96051c0.60676,-3.24589 -1.14958,-7.42522 -1.14958,-10.92103c0,-11.87901 0,-23.75804 0,-35.63705c0,0 0,-5.74791 5.74791,-5.74791c5.74791,0 5.74791,5.74791 5.74791,5.74791c0,8.81347 0,17.62692 0,26.44039c0,4.09331 -0.54136,8.58839 0,12.6454c0.34159,2.55987 1.04645,4.83753 1.14958,7.47228c0,7.45658 1.21566,14.8515 2.12754,22.17236c0.91645,7.35753 0.17162,15.24033 0.17162,22.66135c0,2.87396 0,5.74791 0,8.62187l1.14365,0.88858c0,0 0.261,5.74198 -5.48098,6.00298z" fill="#ff1f1f" stroke="none" stroke-width="0.5"/><path d="M209.06853,345.14103c-5.74745,-0.07276 -5.67515,-5.74745 -5.67515,-5.74745c0,-4.78993 0,-11.30422 0,-16.09415c0,-10.13305 -0.35883,-20.33831 0,-30.46393c0.14158,-3.9953 1.14958,-7.46246 1.14958,-11.49582c0,-10.92103 0,-21.84206 0,-32.76309c0,0 0,-5.74791 5.74791,-5.74791c5.74791,0 5.74791,5.74791 5.74791,5.74791c0,10.92103 0,21.84206 0,32.76309c0,3.93808 -0.72605,7.28404 -1.3212,11.16552c-0.45801,2.98705 0.17162,6.997 0.17162,10.10175c0,6.89749 0,13.79499 0,20.69248c0,4.78993 0,9.57985 0,14.36978v1.72437c0,0 -0.07322,5.82021 -5.82067,5.74745z" fill="#ff1f1f" stroke="none" stroke-width="0.5"/><path d="M112.91308,311.86137c5.69014,-0.81288 6.50301,4.87726 6.50301,4.87726l-0.23719,0.14481c0.6083,1.82489 1.01295,3.51691 1.23548,5.2664h0.20907v3.44875v0v0c0,0.72648 -0.13478,1.42147 -0.38068,2.06135c-0.06835,0.2012 -0.149,0.40818 -0.2441,0.61654c0.50406,2.84841 0.64839,5.65678 1.47941,8.14986l0.20225,1.93901c0,0 1.02822,5.6552 -4.62698,6.68342c-5.6552,1.02822 -6.68342,-4.62698 -6.68342,-4.62698l0.20225,-0.36015c-1.34115,-4.02345 -1.01846,-7.6537 -2.29916,-11.49582c0,0 -0.72706,-2.18118 0.11798,-4.24437l-0.11798,-0.35396l0.33862,-0.11288c0.113,-0.20932 0.24454,-0.41554 0.39711,-0.61613c-0.11943,-0.84756 -0.34353,-1.54312 -0.73574,-2.71974l-0.23719,-2.15435c0,0 -0.81288,-5.69014 4.87726,-6.50301z" fill="#ff1f1f" stroke="none" stroke-width="0.5"/></g><path d="M169.85694,34.52341c-1.73733,0.48459 -3.38947,1.43257 -4.94801,2.14455c-1.82991,1.09662 -4.21839,4.70926 -4.18971,-0.72001c0.88164,-2.20353 2.0654,-4.39882 4.08605,-5.59575c1.73339,-1.0133 4.0414,-1.15788 5.98081,-0.71445c2.29393,0.65026 6.17485,2.63967 5.96834,3.80319c-0.20894,1.13997 -4.68404,0.46443 -6.89748,1.08248z" id="ID0.5775998127646744" fill="#666600" stroke="#666600" stroke-width="2.23893" stroke-linecap="round"/><g data-paper-data="{&quot;origRot&quot;:0}" id="ID0.09386339038610458" stroke-linecap="round"><path d="M163.82506,288.61455c0,0 -14.79588,-29.9285 -20.73053,-50.16619c-12.20096,-41.60637 -25.73973,-108.30151 -25.73973,-108.30151l23.99332,-9.93871c0,0 26.80486,62.28379 47.69401,100.58522c10.22144,18.74156 32.02299,45.58034 32.02299,45.58034z" data-paper-data="{&quot;origPos&quot;:null}" id="ID0.017299960367381573" fill="#006622" stroke="#006622" stroke-width="3.31787"/><path d="M169.69403,280.96378c0,0 -13.89232,-27.22042 -19.10652,-45.38545c-5.73884,-19.99279 -14.891,-56.13652 -14.891,-56.13652" data-paper-data="{&quot;origPos&quot;:null}" id="ID0.031035076826810837" fill="none" stroke="#01902d" stroke-width="10.8155"/><path d="M161.11419,285.30152l25.35831,-10.50412l2.36875,5.71863l-25.35829,10.50401z" id="ID0.9768607504665852" fill="#006622" stroke="none" stroke-width="1.30791"/></g><path d="M139.97981,36.32677c18.58518,0.07301 35.39374,8.4462 47.53563,21.91398c12.14329,13.46783 19.61836,32.03022 19.53804,52.48176c-0.08032,20.45154 -7.70109,38.9547 -19.94979,52.3266c-12.24722,13.37202 -29.12115,21.61285 -47.70633,21.53985c-18.58525,-0.07292 -35.3939,-8.44618 -47.5357,-21.91389c-12.14329,-13.46783 -19.61836,-32.03022 -19.53804,-52.48176c0.08039,-20.45163 7.70099,-38.95477 19.94977,-52.32677c12.24732,-13.37195 29.12108,-21.61276 47.70642,-21.53978z" id="ID0.3367121433839202" fill="#f0c690" stroke="#f0c690" stroke-width="3.8323" stroke-linecap="butt"/><path d="M144.34777,61.49736c16.61122,0.06527 31.6371,6.73766 42.4933,17.46405c10.85733,10.72509 17.54622,25.50541 17.48221,41.78767c-0.06394,16.28217 -6.86868,31.00944 -17.81003,41.64904c-10.94014,10.64066 -26.01793,17.19488 -42.62923,17.12953c-16.61122,-0.06527 -31.6371,-6.73766 -42.4932,-17.46398c-10.85742,-10.72515 -17.54632,-25.50548 -17.48231,-41.78774c0.06394,-16.28217 6.86868,-31.00944 17.81003,-41.64904c10.94014,-10.64066 26.01793,-17.19488 42.62923,-17.12953z" id="ID0.05769371194764972" fill="#ffd499" stroke="none" stroke-width="1.03711" stroke-linecap="butt"/><path d="M148.41753,21.8412c0.48069,-1.32593 5.67482,0.14097 8.22716,1.16211c2.35877,1.10207 4.74542,2.69185 5.95709,4.9774c1.27876,2.45906 1.05022,5.43297 0.49433,8.23849c-3.58137,5.61934 -3.64319,0.451 -4.80194,-1.78422c-1.1345,-1.67483 -2.34739,-3.5393 -3.67909,-5.19738c-1.95984,-2.44421 -6.7424,-5.8319 -6.19754,-7.39641z" id="ID0.5775998127646744" fill="#525200" stroke="#525200" stroke-width="2.71167" stroke-linecap="round"/><g id="ID0.5728061054833233" fill="none" stroke="#000000" stroke-width="12.6636" stroke-linecap="round"><path d="M124.09807,152.27083l0.20205,-51.43092" id="ID0.46364903124049306"/><path d="M157.17123,152.48731l0.20205,-51.43092" id="ID0.46364903124049306"/></g><path d="M81.38502,66.0077l7.13657,-8.98308l8.91393,-9.53941l9.49471,-6.7211l4.50578,-2.12243l8.71487,-4.02082l20.5474,-3.29846l11.23896,1.17055l11.23232,2.86015l8.85873,4.54034l12.39605,7.93354l12.3716,14.12856l9.40402,16.36973l-130.18717,-0.51141z" id="ID0.5693852878175676" fill="#666600" stroke="none" stroke-width="1.00499" stroke-linecap="round"/><path d="M87.8423,69.52523c2.44874,0.00968 4.66394,0.99606 6.26499,2.58262c1.60098,1.58665 2.58666,3.77348 2.5771,6.18173c-0.0094,2.40823 -1.01214,4.58724 -2.62551,6.1612c-1.61353,1.574 -4.6842,0.83092 -6.28519,2.53333c-6.36559,6.76273 -10.95994,20.00466 -16.65992,23.02578c-3.19302,1.16793 -1.75545,-9.89783 -1.12598,-14.64761c0.69389,-5.20127 2.10128,-10.39071 4.20201,-15.18996c1.84091,-3.15675 4.72528,-5.88038 7.36747,-8.11379c1.69335,-1.44184 3.83639,-2.54292 6.28503,-2.53331z" id="ID0.16118840454146266" fill="#525200" stroke="none" stroke-width="1.00499" stroke-linecap="round"/><path d="M104.3482,67.346c2.61202,0.01028 4.97431,1.25067 6.68019,3.24545c1.70712,1.99487 2.7568,4.74395 2.74487,7.77398c-0.01188,3.02994 -1.08317,5.7707 -2.80587,7.75201c-1.72161,1.98141 -4.09339,3.20328 -6.70541,3.193c-2.61202,-0.01028 -4.97424,-1.25076 -6.68019,-3.24545c-1.70712,-1.99487 -2.75673,-4.74404 -2.74487,-7.77398c0.01188,-3.02994 1.08308,-5.77078 2.80584,-7.75217c1.72155,-1.98132 4.09341,-3.20312 6.70543,-3.19284z" id="ID0.839914002455771" fill="#525200" stroke="none" stroke-width="1.00499" stroke-linecap="butt"/><path d="M142.4617,34.27688c1.70988,0.00667 3.25681,0.64908 4.37463,1.68231c1.11846,1.03257 1.80701,2.45592 1.80083,4.02331c-0.00617,1.56737 -0.70587,2.98529 -1.83241,4.00916c-1.12581,1.02442 -2.67774,1.65458 -4.38771,1.64785c-1.70988,-0.00667 -3.25681,-0.64908 -4.37463,-1.68231c-1.11846,-1.03257 -1.80701,-2.45592 -1.80083,-4.02331c0.00617,-1.56737 0.70587,-2.98529 1.83241,-4.00916c1.12581,-1.02442 2.67774,-1.65458 4.38771,-1.64785z" id="ID0.2688980521634221" fill="#525200" stroke="none" stroke-width="0.59905" stroke-linecap="butt"/><path d="M117.00779,70.15796c1.95876,0.00766 3.73096,0.80306 5.01243,2.0832c1.28023,1.27892 2.0687,3.04266 2.06104,4.98459c-0.00768,1.94177 -0.80983,3.69924 -2.10022,4.96813c-1.29153,1.27004 -3.06987,2.05152 -5.02856,2.04377c-1.95876,-0.00766 -3.73096,-0.80306 -5.01243,-2.0832c-1.28032,-1.27899 -2.0687,-3.04266 -2.06104,-4.98459c0.00759,-1.94184 0.80983,-3.69924 2.10022,-4.96813c1.29144,-1.2701 3.06987,-2.05152 5.02856,-2.04377z" id="ID0.7480932525359094" fill="#666600" stroke="none" stroke-width="1.00499" stroke-linecap="butt"/><path d="M132.19657,60.20051c2.85705,0.01123 5.44163,1.28412 7.30833,3.33018c1.86663,2.04615 3.01549,4.8667 3.00326,7.97435c-0.01223,3.10765 -1.18307,5.91911 -3.06584,7.95043c-1.88268,2.03139 -4.47721,3.28387 -7.33416,3.27271c-2.85705,-0.01123 -5.4417,-1.28403 -7.30833,-3.33018c-1.8667,-2.04606 -3.01549,-4.8667 -3.00326,-7.97435c0.01223,-3.10765 1.18316,-5.91904 3.06584,-7.95043c1.88268,-2.03139 4.47721,-3.28387 7.33416,-3.27271z" id="ID0.26692162407562137" fill="#666600" stroke="none" stroke-width="1.00499" stroke-linecap="butt"/><path d="M144.26266,73.69024c1.14328,0.00438 2.17675,0.54465 2.92258,1.41489c0.74683,0.86912 1.20612,2.06713 1.20093,3.38851c-0.00521,1.3212 -0.47392,2.51557 -1.22762,3.37877c-0.75254,0.86435 -1.79029,1.3965 -2.9335,1.39203c-1.14329,-0.00454 -2.17684,-0.54472 -2.92251,-1.41499c-0.74699,-0.8691 -1.20621,-2.0672 -1.201,-3.38842c0.00512,-1.32127 0.47382,-2.51564 1.22759,-3.37893c0.75254,-0.86435 1.79022,-1.39641 2.93353,-1.39187z" id="ID0.8134746439754963" fill="#666600" stroke="none" stroke-width="1.00499" stroke-linecap="butt"/><path d="M155.95977,66.36594c2.61209,0.01019 4.97446,1.21912 6.68058,3.16216c1.70734,1.9441 2.75719,4.62338 2.74562,7.5757c-0.0116,2.95216 -1.08255,5.62326 -2.80503,7.5538c-1.72138,1.92949 -4.09318,3.11984 -6.7052,3.10956c-2.61202,-0.01028 -4.9743,-1.21914 -6.68049,-3.16209c-1.70727,-1.9442 -2.75728,-4.62345 -2.74562,-7.5757c0.01158,-2.95232 1.08255,-5.62326 2.8051,-7.55389c1.72138,-1.92949 4.09302,-3.11982 6.70504,-3.10954z" id="ID0.7768734325654805" fill="#525200" stroke="none" stroke-width="1.00499" stroke-linecap="butt"/><path d="M167.74662,75.35819c1.06166,0.00424 2.02132,0.33918 2.71513,0.87691c0.69496,0.53888 1.12285,1.27946 1.11967,2.09502c-0.00312,0.81547 -0.43685,1.55272 -1.13612,2.0861c-0.69803,0.5323 -1.66034,0.85966 -2.7219,0.85548c-1.06164,-0.00408 -2.02139,-0.33909 -2.7152,-0.87682c-0.69496,-0.53888 -1.12285,-1.27946 -1.11967,-2.09502c0.00328,-0.81549 0.43694,-1.55265 1.13612,-2.0861c0.69803,-0.5323 1.66034,-0.85966 2.72197,-0.85558z" id="ID0.8043623631820083" fill="#666600" stroke="none" stroke-width="1.00499" stroke-linecap="butt"/><path d="M173.52123,72.87984c1.03216,0.00406 1.96575,0.39448 2.64079,1.02253c0.6751,0.62738 1.09077,1.49243 1.08706,2.44499c-0.00378,0.95266 -0.42618,1.81441 -1.10622,2.43637c-0.67999,0.62286 -1.61655,1.00584 -2.64872,1.00178c-1.03216,-0.00406 -1.96582,-0.39439 -2.64085,-1.02244c-0.6751,-0.62738 -1.09077,-1.49243 -1.08699,-2.44508c0.00378,-0.95266 0.42618,-1.81441 1.10613,-2.43644c0.68001,-0.62269 1.61665,-1.00577 2.64881,-1.00171z" id="ID0.4881145376712084" fill="#525200" stroke="none" stroke-width="0.70785" stroke-linecap="butt"/><path d="M198.56978,69.46358c2.62448,2.2541 5.48728,5.0002 7.30345,8.17135c2.06289,4.81562 3.42965,10.01592 4.08259,15.2224c0.59203,4.75461 1.94275,15.83138 -1.24109,14.6384c-5.67596,-3.06588 -10.16624,-16.34342 -16.47848,-23.15597c-1.58757,-1.71497 -4.664,-0.99596 -6.26499,-2.58262c-1.60098,-1.58665 -2.58666,-3.77348 -2.57717,-6.18164c0.00947,-2.40832 1.01221,-4.58733 2.62558,-6.16129c1.61353,-1.574 3.83639,-2.54292 6.2851,-2.5334c2.44874,0.00968 4.58299,1.12751 6.26502,2.58278z" id="ID0.16118840454146266" fill="#666600" stroke="none" stroke-width="1.00499" stroke-linecap="round"/><path d="M185.19204,70.69871c2.36707,0.00922 4.50893,0.99537 6.05554,2.58181c1.54766,1.58638 2.50017,3.77314 2.49067,6.18129c-0.0094,2.40823 -0.97903,4.58741 -2.53917,6.16158c-1.55906,1.57426 -3.70864,2.54353 -6.07565,2.53422c-2.367,-0.00931 -4.50886,-0.99546 -6.05547,-2.5819c-1.54782,-1.58635 -2.50024,-3.77304 -2.49067,-6.18129c0.0094,-2.40823 0.97896,-4.58732 2.53917,-6.16158c1.55899,-1.57417 3.70848,-2.54351 6.07558,-2.53413z" id="ID0.22436008881777525" fill="#666600" stroke="none" stroke-width="1.00499" stroke-linecap="butt"/><path d="M119.65867,265.183c-1.35527,-3.96714 -0.87512,-8.14522 0.99435,-11.68926c1.87026,-3.54562 5.12934,-6.45851 9.33462,-7.89508c4.20518,-1.43659 8.5653,-1.12645 12.21402,0.53382c3.647,1.65961 6.583,4.67063 7.93827,8.63777c1.35527,3.96714 0.87502,8.14519 -0.99435,11.68926c-1.87026,3.54562 -5.12934,6.45853 -9.33463,7.89508c-4.2053,1.43656 -8.56532,1.12657 -12.21402,-0.53382c-3.647,-1.65959 -6.58314,-4.67055 -7.93827,-8.63777z" data-paper-data="{&quot;origRot&quot;:0}" id="ID0.07061211299151182" fill="#ffd499" stroke="#000000" stroke-width="2.11469" stroke-linecap="butt"/><path d="M113.44498,91.94344l54.27663,0.1267l-0.09746,14.7316l-54.27654,-0.12665z" id="ID0.29565473971888423" fill="#ffd499" stroke="none" stroke-width="3.32748" stroke-linecap="butt"/><path d="M124.73916,41.11531c2.93122,0.01152 5.58318,1.11268 7.49937,2.88405c1.91732,1.77006 3.09768,4.21017 3.08715,6.8971c-0.01053,2.68693 -1.21007,5.11766 -3.14128,6.87269c-1.93,1.75608 -4.59052,2.83646 -7.52181,2.82503c-2.93122,-0.01152 -5.5832,-1.11284 -7.49937,-2.88405c-1.91732,-1.77006 -3.09777,-4.21024 -3.08724,-6.89717c0.01062,-2.68686 1.21017,-5.1176 3.14137,-6.87262c1.92998,-1.75624 4.5905,-2.83662 7.52181,-2.82503z" id="ID0.2688980521634221" fill="#525200" stroke="none" stroke-width="1.02694" stroke-linecap="butt"/><path d="M190.69314,60.25166c2.93122,0.01152 5.58318,1.11268 7.49937,2.88405c1.91732,1.77006 3.09768,4.21017 3.08715,6.8971c-0.01053,2.68693 -1.21007,5.11766 -3.14128,6.87269c-1.93,1.75608 -4.59052,2.83646 -7.52181,2.82503c-2.93122,-0.01152 -5.5832,-1.11284 -7.49937,-2.88405c-1.91732,-1.77006 -3.09777,-4.21024 -3.08724,-6.89717c0.01062,-2.68686 1.21017,-5.1176 3.14137,-6.87262c1.92998,-1.75624 4.5905,-2.83662 7.52181,-2.82503z" id="ID0.2688980521634221" fill="#525200" stroke="none" stroke-width="1.02694" stroke-linecap="butt"/><path d="M179.72333,54.25683c0.79937,0.00309 1.52264,0.30342 2.04521,0.78651c0.52294,0.48278 0.84492,1.14827 0.84203,1.88103c-0.00295,0.73286 -0.33011,1.3958 -0.85676,1.87436c-0.52642,0.47902 -1.25191,0.77368 -2.05137,0.77052c-0.79947,-0.00316 -1.52274,-0.30349 -2.0453,-0.78658c-0.52294,-0.48278 -0.84483,-1.1482 -0.84194,-1.88096c0.00286,-0.73293 0.32995,-1.39578 0.85667,-1.87443c0.52642,-0.47902 1.252,-0.77361 2.05146,-0.77045z" id="ID0.2688980521634221" fill="#525200" stroke="none" stroke-width="0.28008" stroke-linecap="butt"/><g data-paper-data="{&quot;origRot&quot;:0}" id="ID0.8685846459120512" stroke-linecap="butt"><path d="M248.19206,299.46885c4.90483,2.09645 8.99099,4.83443 11.62926,7.56558c2.63962,2.73051 3.83192,5.45333 2.94926,7.51838c-0.88266,2.06505 -3.67455,3.0849 -7.47237,3.06409c-3.79724,-0.01956 -8.60004,-1.08076 -13.50486,-3.1772c-4.90486,-2.09629 -8.99093,-4.83432 -11.6293,-7.56541c-2.63968,-2.7306 -3.83181,-5.45339 -2.94925,-7.51839c0.88266,-2.06505 3.67449,-3.085 7.47237,-3.06409c3.79733,0.0195 8.60004,1.08074 13.5049,3.17704z" id="ID0.19497378217056394" fill="#c90101" stroke="#000000" stroke-width="3.54063"/><path d="M250.45632,302.98923c3.59425,1.53619 6.54555,3.64242 8.40969,5.80516c1.86461,2.16194 2.64295,4.38077 1.891,6.1401c-0.75194,1.75931 -2.89369,2.73016 -5.74479,2.87651c-2.85141,0.14721 -6.41338,-0.53032 -10.00758,-2.06666c-3.59425,-1.53619 -6.54564,-3.64236 -8.40979,-5.8051c-1.86452,-2.16199 -2.64294,-4.38077 -1.89099,-6.14009c0.75204,-1.75938 2.89369,-2.73016 5.74477,-2.87651c2.8515,-0.14726 6.41337,0.53031 10.00769,2.06659z" id="ID0.13423143420368433" fill="#ff0202" stroke="none" stroke-width="0.93464"/><path d="M247.7545,299.05819c4.90483,2.09645 8.99099,4.83443 11.62926,7.56558c2.63962,2.73051 3.8319,5.45333 2.94925,7.51839c-0.88266,2.06505 -3.67455,3.0849 -7.47237,3.06409c-3.79724,-0.01956 -8.60004,-1.08075 -13.50485,-3.17719c-4.90486,-2.09629 -8.99093,-4.83432 -11.62931,-7.56542c-2.63968,-2.7306 -3.83181,-5.45339 -2.94925,-7.51839c0.88266,-2.06505 3.67449,-3.085 7.47237,-3.06409c3.79733,0.0195 8.60005,1.08075 13.5049,3.17705z" id="ID0.19497378217056394" fill="none" stroke="#000000" stroke-width="3.54063"/></g><g id="ID0.8721039635129273" stroke-linecap="butt"><path d="M272.35084,261.12602c4.92805,-2.04126 9.74245,-3.04866 13.5397,-3.0256c3.79774,0.02165 6.57811,1.07277 7.43753,3.1476c0.85942,2.07484 -0.36327,4.78403 -3.03331,7.48492c-2.66873,2.70135 -6.78526,5.39343 -11.7133,7.43468c-4.92796,2.04139 -9.74233,3.04868 -13.53962,3.02573c-3.79784,-0.02167 -6.57808,-1.07287 -7.43753,-3.14759c-0.85942,-2.07484 0.36316,-4.78407 3.03331,-7.48493c2.66876,-2.70145 6.78526,-5.39343 11.71322,-7.43482z" id="ID0.19497378217056394" fill="#c90101" stroke="#000000" stroke-width="3.54063"/><path d="M276.45089,261.96826c3.61121,-1.49589 7.18049,-2.13354 10.03012,-1.95438c2.84938,0.17828 4.97999,1.17302 5.71219,2.94064c0.7322,1.76762 -0.071,3.9777 -1.95962,6.11856c-1.88825,2.14167 -4.86294,4.21479 -8.47423,5.71054c-3.61121,1.49589 -7.18051,2.13365 -10.03014,1.95449c-2.84934,-0.17838 -4.97999,-1.17301 -5.71221,-2.94064c-0.73218,-1.76774 0.071,-3.9777 1.95962,-6.11856c1.88827,-2.14178 4.86294,-4.21479 8.47425,-5.71065z" id="ID0.13423143420368433" fill="#ff0202" stroke="none" stroke-width="0.93464"/><path d="M272.51798,261.16844c4.92805,-2.04126 9.74245,-3.04866 13.5397,-3.0256c3.79774,0.02165 6.57812,1.07276 7.43753,3.14759c0.85942,2.07484 -0.36328,4.78403 -3.03331,7.48493c-2.66873,2.70135 -6.78526,5.39343 -11.7133,7.43468c-4.92796,2.04139 -9.74234,3.04868 -13.53962,3.02573c-3.79784,-0.02167 -6.57808,-1.07287 -7.43753,-3.1476c-0.85942,-2.07484 0.36316,-4.78406 3.03331,-7.48492c2.66876,-2.70145 6.78525,-5.39343 11.71321,-7.43481z" id="ID0.19497378217056394" fill="none" stroke="#000000" stroke-width="3.54063"/></g><path d="M130.30622,38.8539l20.73433,-46.13663c0,0 -0.37175,25.03969 9.44938,29.45342c8.4479,3.79658 24.05085,-31.67343 24.71947,-22.43579c0.82024,11.33264 -4.90851,4.75307 -0.36419,-0.49221c5.09734,-5.8836 -5.59822,32.41576 1.44439,35.73255c7.71004,3.63112 30.81021,-12.57019 30.81021,-12.57019l-20.73433,46.13662z" data-paper-data="{&quot;origRot&quot;:0}" fill="url(#color-3)" stroke="none" stroke-width="0" stroke-linecap="butt"/><path d="M147.63864,14.06181l-9.19666,21.26727" fill="none" stroke="#ebfa42" stroke-width="5" stroke-linecap="round"/><path d="M180.4618,10.83441c1.51933,0.45934 2.08073,3.04868 1.25394,5.78347c-0.82679,2.73479 -2.72871,4.57941 -4.24803,4.12008c-1.51933,-0.45934 -2.08073,-3.04868 -1.25394,-5.78347c0.82679,-2.73479 2.72871,-4.57941 4.24803,-4.12008z" data-paper-data="{&quot;origRot&quot;:0}" fill="url(#color-4)" stroke="none" stroke-width="0" stroke-linecap="butt"/><path d="M211.92707,29.67934c0.59084,0.78535 -0.22033,3.26523 -1.81178,5.53896c-1.59146,2.27374 -3.36055,3.48031 -3.95139,2.69497c-0.59084,-0.78535 0.22033,-3.26523 1.81178,-5.53896c1.59146,-2.27374 3.36055,-3.48031 3.95139,-2.69497z" data-paper-data="{&quot;origRot&quot;:0}" fill="url(#color-5)" stroke="none" stroke-width="0" stroke-linecap="butt"/><path d="M146.94893,9.94418c-0.83793,-0.51356 -0.99395,-3.11806 -0.3485,-5.81731c0.64546,-2.69925 1.84798,-4.47112 2.68591,-3.95755c0.83793,0.51356 0.99395,3.11806 0.3485,5.81731c-0.64546,2.69925 -1.84798,4.47112 -2.68591,3.95756z" data-paper-data="{&quot;origRot&quot;:0,&quot;index&quot;:null}" fill="url(#color-6)" stroke="none" stroke-width="0" stroke-linecap="butt"/><g stroke-linecap="butt"><path d="M223.45242,115.60544c-1.35527,-3.96714 -0.87513,-8.14523 0.99435,-11.68926c1.87026,-3.54562 5.12934,-6.45851 9.33463,-7.89507c4.20518,-1.43659 8.56528,-1.12646 12.21402,0.53381c3.647,1.65961 6.583,4.67063 7.93827,8.63777c1.35527,3.96714 0.87502,8.14519 -0.99435,11.68926c-1.87026,3.54562 -5.12934,6.45851 -9.33463,7.89508c-4.2053,1.43656 -8.56532,1.12657 -12.21401,-0.53381c-3.647,-1.65961 -6.58313,-4.67055 -7.93827,-8.63777z" data-paper-data="{&quot;origPos&quot;:null,&quot;origRot&quot;:0}" id="ID0.07061211299151182" fill="#ffd499" stroke="#000000" stroke-width="2.11469"/><path d="M240.18001,220.98661v-167.83901h17.24373v167.83901z" data-paper-data="{&quot;origPos&quot;:null}" fill="#f8fa00" stroke="#f5fac1" stroke-width="4"/><path d="M222.93628,39.92741c0,-13.65028 11.06574,-24.71602 24.71602,-24.71602c13.65028,0 24.71602,11.06574 24.71602,24.71602c0,13.65028 -11.06574,24.71602 -24.71602,24.71602c-13.65028,0 -24.71602,-11.06574 -24.71602,-24.71602z" data-paper-data="{&quot;origPos&quot;:null}" fill="url(#color-7)" stroke="#f5fac1" stroke-width="5"/></g><text transform="translate(8.50002,62.71666) scale(1.10672,1.10672)" font-size="40" xml:space="preserve" fill="#ffffff" fill-rule="nonzero" stroke="none" stroke-width="1" stroke-linecap="butt" stroke-linejoin="miter" stroke-miterlimit="10" stroke-dasharray="" stroke-dashoffset="0" font-family="&quot;ヒラギノ角ゴ Pro W3&quot;, &quot;Hiragino Kaku Gothic Pro&quot;, Osaka, &quot;メイリオ&quot;, Meiryo, &quot;ＭＳ Ｐゴシック&quot;, &quot;MS PGothic&quot;" font-weight="normal" text-anchor="start" style="mix-blend-mode: normal"><tspan x="0" dy="0">-BoyMcBoy-</tspan></text></g></g></svg>