<svg version="1.1" xmlns="http://www.w3.org/2000/svg" xmlns:xlink="http://www.w3.org/1999/xlink" width="341.23282" height="424.46411" viewBox="0,0,341.23282,424.46411"><g transform="translate(-60.38916,-16.03262)"><g data-paper-data="{&quot;isPaintingLayer&quot;:true}" fill-rule="nonzero" stroke-linejoin="miter" stroke-miterlimit="10" stroke-dasharray="" stroke-dashoffset="0" style="mix-blend-mode: normal"><path d="M223.49243,28.97507c5.78117,9.63964 -6.82882,18.22681 -22.62144,27.69809c-15.79263,9.47128 -32.51242,16.27469 -38.2936,6.63506c-5.78117,-9.63964 1.56548,-32.07201 17.35812,-41.54329c15.79263,-9.47128 37.77574,-2.42949 43.55692,7.21016z" data-paper-data="{&quot;origRot&quot;:0}" fill="#2c1500" stroke="#000000" stroke-width="2.5" stroke-linecap="butt"/><path d="M315.38368,414.4696c14.31002,14.79694 -26.31732,11.03526 -38.62627,5.77285c-12.36366,-28.92278 -25.12152,-124.66385 -34.80576,-134.08809c-4.7988,-4.66995 4.71455,134.63924 1.79621,140.66586c-33.59484,20.15325 -52.15841,15.35582 -37.32193,-11.2148c5.71249,-28.64011 3.30498,-49.60005 -2.44222,-78.2332c-6.01307,-29.95777 -12.4272,-57.6312 -6.47389,-87.60092c4.69887,-23.65473 15.88303,-29.45023 39.91637,-31.45624c0,0 31.88848,1.71859 40.39527,24.793c5.75815,15.61884 10.09131,42.02294 14.09906,90.03833z" fill="#ffffff" stroke="#000000" stroke-width="2.5" stroke-linecap="butt"/><path d="M285.70586,154.74731c3.51507,27.10525 -43.80087,26.69951 -54.89678,27.53838c-7.08477,0.53562 -57.76269,21.52281 -60.08481,-5.7106c-0.66676,-7.81958 18.97028,-16.44608 26.67461,-17.94059c12.40515,-2.40641 9.77145,6.51702 17.34565,-3.59783c1.23403,-1.64798 -0.8869,-15.09242 0.00737,-16.94685c2.68284,-5.56331 4.46737,-5.54923 13.9093,-6.65968c0,0 4.34532,-1.30534 7.31726,4.63256c1.92844,3.85302 4.14386,16.12964 5.92435,20.05321c0,0 3.77073,-6.28622 16.61932,-5.00754c-3.34558,-0.37541 -2.66034,-5.67817 27.18373,3.63891z" data-paper-data="{&quot;origRot&quot;:0}" fill="#ffe9cc" stroke="#000000" stroke-width="2.5" stroke-linecap="butt"/><path d="M203.08852,218.4277c0.08186,0.69603 0.00718,1.27688 -0.16684,1.29732c-0.17399,0.02046 -0.38143,-0.52719 -0.46329,-1.22321c-0.08186,-0.69603 -0.00716,-1.27688 0.16686,-1.29732c0.17399,-0.02046 0.38143,0.5272 0.46328,1.22321z" data-paper-data="{&quot;origRot&quot;:0}" fill="#e7e69d" stroke="none" stroke-width="2.5" stroke-linecap="butt"/><path d="M278.01368,99.94135c-0.26905,29.99517 -41.75205,49.08663 -53.94043,48.32419c-7.78232,-0.48683 -53.46289,-20.57774 -51.87768,-50.5322c2.87461,-54.3195 24.82124,-53.8071 54.04211,-53.19739c29.22085,0.60972 52.30117,-3.142 51.776,55.40539z" data-paper-data="{&quot;origRot&quot;:0}" fill="#ffe9cc" stroke="#000000" stroke-width="2.5" stroke-linecap="butt"/><path d="M281.30263,92.52287c-0.01019,0.48803 -4.91222,-18.74253 -3.98535,-18.56299c-14.51296,7.09891 -12.98334,6.59464 -28.56367,10.86943c-50.60469,13.88444 14.11559,-14.61006 -4.41663,-14.97538c-0.06871,-0.00135 -48.53538,17.79218 -48.60412,17.79075c-2.64924,-0.05527 -23.43846,30.17875 -25.92859,29.27274c-7.47033,-2.71807 -3.97068,-69.44188 18.13931,-78.43918c28.54664,-11.61656 47.80222,-10.8075 65.85129,-4.51085c28.77624,10.03897 27.74243,47.30932 27.50777,58.55551z" data-paper-data="{&quot;origRot&quot;:0}" fill="#2c1500" stroke="#000000" stroke-width="2.5" stroke-linecap="butt"/><path d="M174.75065,186.97014l-67.18681,9.17508l-2.69492,-18.55722l72.52657,-9.97848" fill="#ffe9cc" stroke="#000000" stroke-width="2.5" stroke-linecap="round"/><path d="M113.52689,192.61727c0,0 -31.76155,14.19392 -36.06173,13.41688c-6.1088,-1.10384 14.16441,-10.55853 14.16441,-10.55853c0,0 -4.29521,-0.39588 -9.23401,1.02693c-7.05808,2.03337 -13.36987,10.65995 -19.81664,-0.33758c-7.99824,-13.64417 37.32496,-24.04623 50.11441,-18.76386" fill="#ffe9cc" stroke="#000000" stroke-width="2.5" stroke-linecap="round"/><path d="M284.8391,154.50512l72.56053,-9.72849l2.3526,18.60372l-67.19992,9.0785" data-paper-data="{&quot;index&quot;:null}" fill="#ffe9cc" stroke="#000000" stroke-width="2.5" stroke-linecap="round"/><path d="M346.81653,147.96909c10.91708,-8.50242 57.37281,-10.56657 53.30375,4.7167c-3.27976,12.31867 -11.6639,5.68823 -19.00863,5.61117c-5.13938,-0.05392 -9.17337,1.47332 -9.17337,1.47332c0,0 22.06061,3.70454 16.46757,6.39783c-3.93713,1.8959 -38.33397,-3.31181 -38.33397,-3.31181" data-paper-data="{&quot;index&quot;:null}" fill="#ffe9cc" stroke="#000000" stroke-width="2.5" stroke-linecap="round"/><path d="M239.89473,99.31845c0.8632,10.34165 -8.36494,19.55387 -20.61163,20.57607c-12.24669,1.02221 -22.87434,-6.53269 -23.73754,-16.87434c-0.8632,-10.34165 0.15004,-23.28786 12.04289,-20.19166c35.60008,9.26817 31.44309,6.14828 32.30628,16.48992z" fill="#ffffff" stroke="#000000" stroke-width="2" stroke-linecap="butt"/><path d="M205.15734,123.05838c23.48305,27.34917 66.19498,-7.50997 66.19498,-7.50997" fill="none" stroke="#000000" stroke-width="2.5" stroke-linecap="round"/><path d="M269.08947,76.42733c8.99626,-4.83977 11.74241,7.79265 12.60561,18.1343c0.8632,10.34164 -6.45847,19.39474 -16.35339,20.22065c-9.89492,0.82591 -18.61611,-6.88812 -19.4793,-17.22976c-0.8632,-10.34164 -3.70235,-6.6378 23.22708,-21.12518z" data-paper-data="{&quot;index&quot;:null}" fill="#ffffff" stroke="#000000" stroke-width="2" stroke-linecap="butt"/><path d="M232.48923,97.78637c-0.06815,-0.81645 0.53847,-1.53355 1.35491,-1.6017c0.81645,-0.06815 1.53355,0.53847 1.6017,1.35491c0.06815,0.81645 -0.53847,1.53355 -1.35491,1.6017c-0.81645,0.06815 -1.53355,-0.53847 -1.6017,-1.35491z" fill="#000000" stroke="none" stroke-width="0" stroke-linecap="butt"/><path d="M275.88449,89.9192c-0.06815,-0.81645 0.53847,-1.53355 1.35491,-1.6017c0.81645,-0.06815 1.53355,0.53847 1.6017,1.35491c0.06815,0.81645 -0.53847,1.53355 -1.35492,1.6017c-0.81645,0.06815 -1.53355,-0.53847 -1.6017,-1.35491z" fill="#000000" stroke="none" stroke-width="0" stroke-linecap="butt"/><path d="M196.03442,255.82095c0,0 -4.05692,-44.38871 -7.18071,-58.3398c-0.37435,-1.67184 -17.8525,-1.7276 -17.8525,-1.7276c0,0 -12.04417,-16.45665 -14.68366,-25.77822c-4.5458,-16.05382 11.83612,-7.29332 24.11926,-6.78225c8.1554,0.33933 -3.48408,9.58918 7.0874,11.50436c3.91317,0.94091 9.17944,0.12011 10.48583,-3.68665c1.46852,-4.27926 -4.04695,-13.35913 0.25003,-11.94335c9.41673,-4.3209 16.80097,-7.27455 16.80097,-7.27455c0,0 1.01372,20.4092 13.84982,18.89958c14.3277,-1.68506 9.32464,-19.39924 12.02951,-21.41624c0.88,0.28998 18.10813,0.03565 19.20577,0.20579c0.36587,0.0567 3.4732,10.12078 5.39609,12.18538c3.71978,3.99397 9.59812,0.2608 12.08919,-1.84678c3.83917,-3.24818 7.3385,-6.48524 7.315,-5.93424c0.89407,0.66986 22.75931,-15.38506 20.97223,-6.93031c-0.84917,4.01744 -9.43108,30.47319 -9.43108,30.47319c0,0 -18.96592,6.08511 -18.55743,9.65142c2.44453,21.34107 3.95466,59.7722 3.95466,59.7722c0,0 -14.39484,9.3328 -27.05233,10.65501c-4.21916,0.44072 -58.7981,-1.68699 -58.7981,-1.68699z" data-paper-data="{&quot;origRot&quot;:0}" fill="#fffeae" stroke="#000000" stroke-width="2.5" stroke-linecap="butt"/></g></g></svg>