<svg version="1.1" xmlns="http://www.w3.org/2000/svg" xmlns:xlink="http://www.w3.org/1999/xlink" width="300.93601" height="286.82684" viewBox="0,0,300.93601,286.82684"><defs><linearGradient x1="285.02415" y1="193.72751" x2="285.02415" y2="205.99055" gradientUnits="userSpaceOnUse" id="color-1"><stop offset="0" stop-color="#ff0000"/><stop offset="1" stop-color="#760060"/></linearGradient><linearGradient x1="285.02415" y1="208.49784" x2="285.02415" y2="220.76089" gradientUnits="userSpaceOnUse" id="color-2"><stop offset="0" stop-color="#ff0000"/><stop offset="1" stop-color="#9e0145"/></linearGradient><linearGradient x1="252.48541" y1="204.19879" x2="252.48541" y2="221.00005" gradientUnits="userSpaceOnUse" id="color-3"><stop offset="0" stop-color="#ff0000"/><stop offset="1" stop-color="#b00038"/></linearGradient><linearGradient x1="317.5629" y1="204.19879" x2="317.5629" y2="221.00005" gradientUnits="userSpaceOnUse" id="color-4"><stop offset="0" stop-color="#ff0000"/><stop offset="1" stop-color="#b00038"/></linearGradient><linearGradient x1="251.63354" y1="158.82766" x2="263.42343" y2="158.82766" gradientUnits="userSpaceOnUse" id="color-5"><stop offset="0" stop-color="#b8f818"/><stop offset="1" stop-color="#00945c"/></linearGradient><linearGradient x1="251.63354" y1="158.82766" x2="239.84364" y2="158.82766" gradientUnits="userSpaceOnUse" id="color-6"><stop offset="0" stop-color="#b8f818"/><stop offset="1" stop-color="#00945c"/></linearGradient><linearGradient x1="251.63354" y1="170.3937" x2="266.84367" y2="170.3937" gradientUnits="userSpaceOnUse" id="color-7"><stop offset="0" stop-color="#b8f818"/><stop offset="1" stop-color="#00945c"/></linearGradient><linearGradient x1="251.63353" y1="170.3937" x2="236.4234" y2="170.3937" gradientUnits="userSpaceOnUse" id="color-8"><stop offset="0" stop-color="#b8f818"/><stop offset="1" stop-color="#00945c"/></linearGradient><linearGradient x1="205.22014" y1="125.30854" x2="205.22014" y2="149.48529" gradientUnits="userSpaceOnUse" id="color-9"><stop offset="0" stop-color="#927c7c"/><stop offset="1" stop-color="#747474"/></linearGradient><linearGradient x1="185.22209" y1="218.82182" x2="197.01199" y2="218.82182" gradientUnits="userSpaceOnUse" id="color-10"><stop offset="0" stop-color="#b8f818"/><stop offset="1" stop-color="#00945c"/></linearGradient><linearGradient x1="185.22209" y1="218.82182" x2="173.43219" y2="218.82182" gradientUnits="userSpaceOnUse" id="color-11"><stop offset="0" stop-color="#b8f818"/><stop offset="1" stop-color="#00945c"/></linearGradient><linearGradient x1="185.22209" y1="207.25578" x2="200.43222" y2="207.25578" gradientUnits="userSpaceOnUse" id="color-12"><stop offset="0" stop-color="#b8f818"/><stop offset="1" stop-color="#00945c"/></linearGradient><linearGradient x1="185.22209" y1="207.25578" x2="170.01196" y2="207.25578" gradientUnits="userSpaceOnUse" id="color-13"><stop offset="0" stop-color="#b8f818"/><stop offset="1" stop-color="#00945c"/></linearGradient><linearGradient x1="401.54432" y1="-24.41591" x2="401.54432" y2="235.08888" gradientUnits="userSpaceOnUse" id="color-14"><stop offset="0" stop-color="#4e0022"/><stop offset="1" stop-color="#010001"/></linearGradient><linearGradient x1="78.18027" y1="-24.41591" x2="78.18027" y2="235.08888" gradientUnits="userSpaceOnUse" id="color-15"><stop offset="0" stop-color="#4e0022"/><stop offset="1" stop-color="#010001"/></linearGradient><linearGradient x1="244.17158" y1="228.37312" x2="244.17158" y2="301.79881" gradientUnits="userSpaceOnUse" id="color-16"><stop offset="0" stop-color="#4e0022"/><stop offset="1" stop-color="#000000"/></linearGradient><linearGradient x1="78.02356" y1="218.09054" x2="78.02356" y2="228.985" gradientUnits="userSpaceOnUse" id="color-17"><stop offset="0" stop-color="#000000"/><stop offset="1" stop-color="#4e0022"/></linearGradient><linearGradient x1="402.23268" y1="218.09054" x2="402.23268" y2="228.985" gradientUnits="userSpaceOnUse" id="color-18"><stop offset="0" stop-color="#000000"/><stop offset="1" stop-color="#4e0022"/></linearGradient></defs><g transform="translate(-89.53205,-43.28551)"><g data-paper-data="{&quot;isPaintingLayer&quot;:true}" fill-rule="nonzero" stroke-linecap="butt" stroke-linejoin="miter" stroke-miterlimit="10" stroke-dasharray="" stroke-dashoffset="0" style="mix-blend-mode: normal"><path d="M94.5,269.21666v-221h291v221z" fill="#cccccc" stroke="none" stroke-width="0"/><g stroke="none" stroke-width="0"><path d="M94,266.7044v-66.41322h290.38333v66.41322z" fill="#adadad"/><path d="M260.23699,182.67263c13.68957,-2.39451 35.88475,-2.39451 49.57433,0c13.68957,2.39451 0,32.59557 0,32.59557h-49.57433c0,0 -13.68957,-30.20106 0,-32.59557z" fill="url(#color-1)"/><path d="M259.61727,197.15376c3.94864,-0.76121 7.32279,3.54705 6.82209,7.05012c-0.50069,3.50307 -8.25473,15.32557 -12.20338,16.08679c-3.94864,0.76121 -10.07212,-7.05501 -9.57143,-10.55808c0.50069,-3.50307 11.00406,-11.81762 14.9527,-12.57883z" fill="#760060"/><path d="M325.38374,209.73259c0.50069,3.50307 -5.62278,11.31929 -9.57143,10.55808c-3.94864,-0.76122 -11.70268,-12.58372 -12.20338,-16.08679c-0.50069,-3.50307 2.87345,-7.81134 6.8221,-7.05012c3.94864,0.76122 14.45202,9.07576 14.9527,12.57883z" fill="#760060"/><path d="M264.31234,205.1974c11.43882,-2.39451 29.98481,-2.39451 41.42363,0c11.43882,2.39451 11.43882,14.87683 0,17.27134c-11.43882,2.39451 -29.98481,2.39451 -41.42363,0c-11.43882,-2.39451 -11.43882,-14.87683 0,-17.27134z" fill="url(#color-2)"/><path d="M242.86276,212.59942c0,-4.63954 4.30821,-8.40063 9.62265,-8.40063c5.31445,0 9.62265,3.76109 9.62265,8.40063c0,4.63954 -4.30821,8.40063 -9.62265,8.40063c-5.31445,0 -9.62265,-3.76109 -9.62265,-8.40063z" fill="url(#color-3)"/><path d="M317.5629,221.00005c-5.31444,0 -9.62265,-3.76109 -9.62265,-8.40064c0,-4.63954 4.30821,-8.40063 9.62265,-8.40063c5.31444,0 9.62265,3.76109 9.62265,8.40063c0,4.63954 -4.30821,8.40064 -9.62265,8.40064z" fill="url(#color-4)"/></g><g><g stroke="none" stroke-width="0"><g><path d="M251.63354,169.94598v-22.23664h11.7899v22.23664z" fill="url(#color-5)"/><path d="M239.84364,169.94598v-22.23664h11.7899v22.23664z" data-paper-data="{&quot;index&quot;:null}" fill="url(#color-6)"/></g><g><path d="M251.63354,176.66174v-12.53609h15.21013v12.53609z" fill="url(#color-7)"/><path d="M236.4234,176.66174v-12.53609h15.21013v12.53609z" data-paper-data="{&quot;index&quot;:null}" fill="url(#color-8)"/></g></g><path d="M138.51022,149.48529v-24.17675h133.41985v24.17675z" fill="url(#color-9)" stroke="none" stroke-width="0"/><g data-paper-data="{&quot;index&quot;:null}" stroke="none" stroke-width="0"><g><path d="M197.01199,207.7035v22.23664h-11.7899v-22.23664z" fill="url(#color-10)"/><path d="M185.22209,207.7035v22.23664h-11.7899v-22.23664z" data-paper-data="{&quot;index&quot;:null}" fill="url(#color-11)"/></g><g><path d="M200.43222,200.98773v12.53609h-15.21013v-12.53609z" fill="url(#color-12)"/><path d="M185.22209,200.98773v12.53609h-15.21013v-12.53609z" data-paper-data="{&quot;index&quot;:null}" fill="url(#color-13)"/></g></g><path d="M331.02879,235.08888v-189.5048h56.03105v189.5048z" fill="url(#color-14)" stroke="#ff0000" stroke-width="2"/><path d="M92.82086,235.08888v-190.5048h49.71882v190.5048z" fill="url(#color-15)" stroke="#ff0000" stroke-width="2"/><path d="M92.66401,301.79881v-73.42569h295.01513c0,0 0,62.00888 0,70.23521c0,1.7533 -17.5,3.19048 -17.5,3.19048z" fill="url(#color-16)" stroke="#ff0000" stroke-width="2"/><path d="M91.99994,228.985v-10.89446h50.04724v10.89446z" fill="url(#color-17)" stroke="none" stroke-width="0"/><path d="M331.43733,228.985v-10.89446h56.0907v10.89446z" fill="url(#color-18)" stroke="none" stroke-width="0"/></g><path d="M92.03205,327.61235v-59.04493h295.93601v59.04493z" fill="#ffffff" stroke="#000000" stroke-width="5"/><path d="M92.50008,266.78551v-221h295v221z" fill="none" stroke="#000000" stroke-width="5"/><text transform="translate(133.35812,308.05422) scale(0.8467,0.8467)" font-size="40" xml:space="preserve" fill="#000000" fill-rule="nonzero" stroke="none" stroke-width="1" stroke-linecap="butt" stroke-linejoin="miter" stroke-miterlimit="10" stroke-dasharray="" stroke-dashoffset="0" font-family="&quot;ヒラギノ角ゴ Pro W3&quot;, &quot;Hiragino Kaku Gothic Pro&quot;, Osaka, &quot;メイリオ&quot;, Meiryo, &quot;ＭＳ Ｐゴシック&quot;, &quot;MS PGothic&quot;" font-weight="normal" text-anchor="start" style="mix-blend-mode: normal"><tspan x="0" dy="0">Bug Catcher</tspan></text></g></g></svg>