<svg xmlns="http://www.w3.org/2000/svg" xmlns:xlink="http://www.w3.org/1999/xlink" version="1.1" width="544.78776" height="615.5372" viewBox="0,0,544.78776,615.5372"><defs><linearGradient x1="264.82055" y1="400.72578" x2="339.30123" y2="402.47248" gradientUnits="userSpaceOnUse" id="color-1"><stop offset="0" stop-color="#000000"/><stop offset="1" stop-color="#0e0e0e"/></linearGradient><linearGradient x1="301.36841" y1="423.42998" x2="301.11347" y2="434.30096" gradientUnits="userSpaceOnUse" id="color-2"><stop offset="0" stop-color="#000000"/><stop offset="1" stop-color="#666666"/></linearGradient><linearGradient x1="282.76724" y1="388.11677" x2="281.86846" y2="426.44037" gradientUnits="userSpaceOnUse" id="color-3"><stop offset="0" stop-color="#151515"/><stop offset="1" stop-color="#212121"/></linearGradient><linearGradient x1="313.22755" y1="392.01065" x2="312.84428" y2="408.35245" gradientUnits="userSpaceOnUse" id="color-4"><stop offset="0" stop-color="#292929"/><stop offset="1" stop-color="#292929"/></linearGradient><linearGradient x1="138.99147" y1="370.53471" x2="204.47067" y2="399.80415" gradientUnits="userSpaceOnUse" id="color-5"><stop offset="0" stop-color="#000000"/><stop offset="1" stop-color="#0e0e0e"/></linearGradient><linearGradient x1="162.66716" y1="405.24672" x2="158.5232" y2="414.5172" gradientUnits="userSpaceOnUse" id="color-6"><stop offset="0" stop-color="#000000"/><stop offset="1" stop-color="#666666"/></linearGradient><linearGradient x1="150.85985" y1="380.95618" x2="164.51398" y2="387.0596" gradientUnits="userSpaceOnUse" id="color-7"><stop offset="0" stop-color="#151515"/><stop offset="1" stop-color="#212121"/></linearGradient><linearGradient x1="284.45298" y1="177.59013" x2="286.91934" y2="225.98525" gradientUnits="userSpaceOnUse" id="color-8"><stop offset="0" stop-color="#ffffff"/><stop offset="1" stop-color="#cccccc"/></linearGradient><radialGradient cx="208.69928" cy="221.2941" r="3.27809" gradientUnits="userSpaceOnUse" id="color-9"><stop offset="0" stop-color="#cccccc"/><stop offset="1" stop-color="#7f7f7f"/></radialGradient><radialGradient cx="206.50694" cy="223.9636" r="2.8327" gradientUnits="userSpaceOnUse" id="color-10"><stop offset="0" stop-color="#cccccc"/><stop offset="1" stop-color="#7f7f7f"/></radialGradient><radialGradient cx="205.10181" cy="227.73506" r="3.5144" gradientUnits="userSpaceOnUse" id="color-11"><stop offset="0" stop-color="#cccccc"/><stop offset="1" stop-color="#7f7f7f"/></radialGradient><radialGradient cx="206.63689" cy="231.41248" r="3.5144" gradientUnits="userSpaceOnUse" id="color-12"><stop offset="0" stop-color="#cccccc"/><stop offset="1" stop-color="#7f7f7f"/></radialGradient><radialGradient cx="209.3731" cy="234.91114" r="3.3044" gradientUnits="userSpaceOnUse" id="color-13"><stop offset="0" stop-color="#cccccc"/><stop offset="1" stop-color="#7f7f7f"/></radialGradient><radialGradient cx="210.66667" cy="238.86492" r="3.04268" gradientUnits="userSpaceOnUse" id="color-14"><stop offset="0" stop-color="#cccccc"/><stop offset="1" stop-color="#7f7f7f"/></radialGradient><radialGradient cx="211.92899" cy="242.20097" r="3.48838" gradientUnits="userSpaceOnUse" id="color-15"><stop offset="0" stop-color="#cccccc"/><stop offset="1" stop-color="#7f7f7f"/></radialGradient><radialGradient cx="212.55458" cy="246.52393" r="3.27838" gradientUnits="userSpaceOnUse" id="color-16"><stop offset="0" stop-color="#cccccc"/><stop offset="1" stop-color="#7f7f7f"/></radialGradient><radialGradient cx="213.33959" cy="250.40968" r="3.0684" gradientUnits="userSpaceOnUse" id="color-17"><stop offset="0" stop-color="#cccccc"/><stop offset="1" stop-color="#7f7f7f"/></radialGradient><radialGradient cx="215.11812" cy="254.07489" r="3.72378" gradientUnits="userSpaceOnUse" id="color-18"><stop offset="0" stop-color="#cccccc"/><stop offset="1" stop-color="#7f7f7f"/></radialGradient><radialGradient cx="218.17216" cy="257.1579" r="3.35736" gradientUnits="userSpaceOnUse" id="color-19"><stop offset="0" stop-color="#cccccc"/><stop offset="1" stop-color="#7f7f7f"/></radialGradient><radialGradient cx="219.83978" cy="260.16862" r="3.69836" gradientUnits="userSpaceOnUse" id="color-20"><stop offset="0" stop-color="#cccccc"/><stop offset="1" stop-color="#7f7f7f"/></radialGradient><radialGradient cx="212.20051" cy="215.01217" r="5.54365" gradientUnits="userSpaceOnUse" id="color-21"><stop offset="0" stop-color="#cccccc"/><stop offset="1" stop-color="#7f7f7f"/></radialGradient><radialGradient cx="221.65326" cy="216.89006" r="3.27809" gradientUnits="userSpaceOnUse" id="color-22"><stop offset="0" stop-color="#cccccc"/><stop offset="1" stop-color="#7f7f7f"/></radialGradient><radialGradient cx="223.65126" cy="220.83162" r="3.27809" gradientUnits="userSpaceOnUse" id="color-23"><stop offset="0" stop-color="#cccccc"/><stop offset="1" stop-color="#7f7f7f"/></radialGradient><radialGradient cx="224.62646" cy="225.27458" r="3.27809" gradientUnits="userSpaceOnUse" id="color-24"><stop offset="0" stop-color="#cccccc"/><stop offset="1" stop-color="#7f7f7f"/></radialGradient><radialGradient cx="224.8777" cy="230.20372" r="3.27809" gradientUnits="userSpaceOnUse" id="color-25"><stop offset="0" stop-color="#cccccc"/><stop offset="1" stop-color="#7f7f7f"/></radialGradient><radialGradient cx="225.26291" cy="234.82646" r="3.27809" gradientUnits="userSpaceOnUse" id="color-26"><stop offset="0" stop-color="#cccccc"/><stop offset="1" stop-color="#7f7f7f"/></radialGradient><radialGradient cx="225.20772" cy="239.62143" r="3.27809" gradientUnits="userSpaceOnUse" id="color-27"><stop offset="0" stop-color="#cccccc"/><stop offset="1" stop-color="#7f7f7f"/></radialGradient><radialGradient cx="224.84635" cy="244.28219" r="3.27809" gradientUnits="userSpaceOnUse" id="color-28"><stop offset="0" stop-color="#cccccc"/><stop offset="1" stop-color="#7f7f7f"/></radialGradient><radialGradient cx="224.7683" cy="248.62916" r="3.27809" gradientUnits="userSpaceOnUse" id="color-29"><stop offset="0" stop-color="#cccccc"/><stop offset="1" stop-color="#7f7f7f"/></radialGradient><radialGradient cx="224.56389" cy="253.43181" r="3.27809" gradientUnits="userSpaceOnUse" id="color-30"><stop offset="0" stop-color="#cccccc"/><stop offset="1" stop-color="#7f7f7f"/></radialGradient><radialGradient cx="223.46303" cy="258.28006" r="3.27809" gradientUnits="userSpaceOnUse" id="color-31"><stop offset="0" stop-color="#cccccc"/><stop offset="1" stop-color="#7f7f7f"/></radialGradient><radialGradient cx="222.59446" cy="273.40563" r="3.35736" gradientUnits="userSpaceOnUse" id="color-32"><stop offset="0" stop-color="#cccccc"/><stop offset="1" stop-color="#7f7f7f"/></radialGradient><radialGradient cx="222.35816" cy="277.26221" r="3.69836" gradientUnits="userSpaceOnUse" id="color-33"><stop offset="0" stop-color="#cccccc"/><stop offset="1" stop-color="#7f7f7f"/></radialGradient><radialGradient cx="223.7392" cy="281.32834" r="3.27809" gradientUnits="userSpaceOnUse" id="color-34"><stop offset="0" stop-color="#cccccc"/><stop offset="1" stop-color="#7f7f7f"/></radialGradient><linearGradient x1="303.45827" y1="231.75165" x2="303.99432" y2="263.48868" gradientUnits="userSpaceOnUse" id="color-35"><stop offset="0" stop-color="#ff0000"/><stop offset="1" stop-color="#ff0000" stop-opacity="0"/></linearGradient><linearGradient x1="297.87708" y1="231.88273" x2="303.45045" y2="231.59871" gradientUnits="userSpaceOnUse" id="color-36"><stop offset="0" stop-color="#ff0000"/><stop offset="1" stop-color="#ff0000" stop-opacity="0"/></linearGradient><linearGradient x1="261.40675" y1="206.95245" x2="245.22948" y2="207.37861" gradientUnits="userSpaceOnUse" id="color-37"><stop offset="0" stop-color="#7f7f7f"/><stop offset="1" stop-color="#b2b2b2"/></linearGradient><linearGradient x1="263.77835" y1="217.72981" x2="252.12745" y2="218.32357" gradientUnits="userSpaceOnUse" id="color-38"><stop offset="0" stop-color="#000000"/><stop offset="1" stop-color="#353935"/></linearGradient><linearGradient x1="242.09302" y1="218.83495" x2="252.54874" y2="218.30209" gradientUnits="userSpaceOnUse" id="color-39"><stop offset="0" stop-color="#000000"/><stop offset="1" stop-color="#353935"/></linearGradient><radialGradient cx="229.29457" cy="213.0402" r="26.25461" gradientUnits="userSpaceOnUse" id="color-40"><stop offset="0" stop-color="#666666"/><stop offset="1" stop-color="#000000"/></radialGradient><radialGradient cx="228.18946" cy="221.81993" r="11.28262" gradientUnits="userSpaceOnUse" id="color-41"><stop offset="0" stop-color="#370000"/><stop offset="1" stop-color="#000000"/></radialGradient><radialGradient cx="233.45579" cy="225.22883" r="9.62338" gradientUnits="userSpaceOnUse" id="color-42"><stop offset="0" stop-color="#370000"/><stop offset="1" stop-color="#000000"/></radialGradient><radialGradient cx="226.76292" cy="215.37225" r="8.9043" gradientUnits="userSpaceOnUse" id="color-43"><stop offset="0" stop-color="#370000"/><stop offset="1" stop-color="#000000"/></radialGradient><radialGradient cx="237.13551" cy="219.1704" r="7.83074" gradientUnits="userSpaceOnUse" id="color-44"><stop offset="0" stop-color="#370000"/><stop offset="1" stop-color="#000000"/></radialGradient><radialGradient cx="232.98569" cy="213.73668" r="5.89331" gradientUnits="userSpaceOnUse" id="color-45"><stop offset="0" stop-color="#370000"/><stop offset="1" stop-color="#000000"/></radialGradient><radialGradient cx="232.2949" cy="217.95273" r="2.87457" gradientUnits="userSpaceOnUse" id="color-46"><stop offset="0" stop-color="#ff0000"/><stop offset="1" stop-color="#000000"/></radialGradient><linearGradient x1="652.38906" y1="64.67187" x2="567.41823" y2="-38.95679" gradientUnits="userSpaceOnUse" id="color-47"><stop offset="0" stop-color="#ff0000" stop-opacity="0"/><stop offset="1" stop-color="#ff0000"/></linearGradient><linearGradient x1="330.9146" y1="166.90376" x2="261.10437" y2="100.04282" gradientUnits="userSpaceOnUse" id="color-48"><stop offset="0" stop-color="#ff0000"/><stop offset="1" stop-color="#ff0000" stop-opacity="0"/></linearGradient><linearGradient x1="265.53137" y1="175.61241" x2="446.04496" y2="56.25825" gradientUnits="userSpaceOnUse" id="color-49"><stop offset="0" stop-color="#ff0000" stop-opacity="0"/><stop offset="1" stop-color="#ff0000"/></linearGradient><linearGradient x1="654.46348" y1="-79.69121" x2="504.8529" y2="19.23009" gradientUnits="userSpaceOnUse" id="color-50"><stop offset="0" stop-color="#ff0000" stop-opacity="0"/><stop offset="1" stop-color="#ff0000"/></linearGradient><radialGradient cx="504.90126" cy="14.03372" r="32.83141" gradientUnits="userSpaceOnUse" id="color-51"><stop offset="0" stop-color="#ff0000"/><stop offset="1" stop-color="#ff0000" stop-opacity="0"/></radialGradient><radialGradient cx="450.31205" cy="59.74484" r="32.83141" gradientUnits="userSpaceOnUse" id="color-52"><stop offset="0" stop-color="#ff0000"/><stop offset="1" stop-color="#ff0000" stop-opacity="0"/></radialGradient><linearGradient x1="137.8486" y1="581.798" x2="212.3293" y2="583.5447" gradientUnits="userSpaceOnUse" id="color-1-,0,0,1,-126.97196,181.07223"><stop offset="0" stop-color="#000000"/><stop offset="1" stop-color="#0e0e0e"/></linearGradient><linearGradient x1="174.3964" y1="604.5022" x2="174.1415" y2="615.3732" gradientUnits="userSpaceOnUse" id="color-2-,0,0,1,-126.97196,181.07223"><stop offset="0" stop-color="#000000"/><stop offset="1" stop-color="#666666"/></linearGradient><linearGradient x1="186.2556" y1="573.0829" x2="185.8723" y2="589.4247" gradientUnits="userSpaceOnUse" id="color-4-,0,0,1,-126.97196,181.07223"><stop offset="0" stop-color="#292929"/><stop offset="1" stop-color="#292929"/></linearGradient><linearGradient x1="12.0195" y1="551.6069" x2="77.4987" y2="580.8764" gradientUnits="userSpaceOnUse" id="color-5-,0,0,1,-126.97196,181.07223"><stop offset="0" stop-color="#000000"/><stop offset="1" stop-color="#0e0e0e"/></linearGradient><linearGradient x1="35.6952" y1="586.3189" x2="31.5512" y2="595.5894" gradientUnits="userSpaceOnUse" id="color-6-,0,0,1,-126.97196,181.07223"><stop offset="0" stop-color="#000000"/><stop offset="1" stop-color="#666666"/></linearGradient><linearGradient x1="157.481" y1="358.6624" x2="159.9474" y2="407.0575" gradientUnits="userSpaceOnUse" id="color-8-,0,0,1,-126.97196,181.07223"><stop offset="0" stop-color="#ffffff"/><stop offset="1" stop-color="#cccccc"/></linearGradient><radialGradient cx="81.7273" cy="402.3663" r="3.2781" gradientUnits="userSpaceOnUse" id="color-9-,0,0,1,-126.97196,181.07223"><stop offset="0" stop-color="#cccccc"/><stop offset="1" stop-color="#7f7f7f"/></radialGradient><radialGradient cx="79.535" cy="405.0358" r="2.8327" gradientUnits="userSpaceOnUse" id="color-10-,0,0,1,-126.97196,181.07223"><stop offset="0" stop-color="#cccccc"/><stop offset="1" stop-color="#7f7f7f"/></radialGradient><radialGradient cx="78.1299" cy="408.8073" r="3.5144" gradientUnits="userSpaceOnUse" id="color-11-,0,0,1,-126.97196,181.07223"><stop offset="0" stop-color="#cccccc"/><stop offset="1" stop-color="#7f7f7f"/></radialGradient><radialGradient cx="79.6649" cy="412.4847" r="3.5144" gradientUnits="userSpaceOnUse" id="color-12-,0,0,1,-126.97196,181.07223"><stop offset="0" stop-color="#cccccc"/><stop offset="1" stop-color="#7f7f7f"/></radialGradient><radialGradient cx="82.4011" cy="415.9834" r="3.3044" gradientUnits="userSpaceOnUse" id="color-13-,0,0,1,-126.97196,181.07223"><stop offset="0" stop-color="#cccccc"/><stop offset="1" stop-color="#7f7f7f"/></radialGradient><radialGradient cx="83.6947" cy="419.9371" r="3.0427" gradientUnits="userSpaceOnUse" id="color-14-,0,0,1,-126.97196,181.07223"><stop offset="0" stop-color="#cccccc"/><stop offset="1" stop-color="#7f7f7f"/></radialGradient><radialGradient cx="84.957" cy="423.2732" r="3.4884" gradientUnits="userSpaceOnUse" id="color-15-,0,0,1,-126.97196,181.07223"><stop offset="0" stop-color="#cccccc"/><stop offset="1" stop-color="#7f7f7f"/></radialGradient><radialGradient cx="85.5826" cy="427.5962" r="3.2784" gradientUnits="userSpaceOnUse" id="color-16-,0,0,1,-126.97196,181.07223"><stop offset="0" stop-color="#cccccc"/><stop offset="1" stop-color="#7f7f7f"/></radialGradient><radialGradient cx="86.3676" cy="431.4819" r="3.0684" gradientUnits="userSpaceOnUse" id="color-17-,0,0,1,-126.97196,181.07223"><stop offset="0" stop-color="#cccccc"/><stop offset="1" stop-color="#7f7f7f"/></radialGradient><radialGradient cx="88.1462" cy="435.1471" r="3.7238" gradientUnits="userSpaceOnUse" id="color-18-,0,0,1,-126.97196,181.07223"><stop offset="0" stop-color="#cccccc"/><stop offset="1" stop-color="#7f7f7f"/></radialGradient><radialGradient cx="91.2002" cy="438.2301" r="3.3574" gradientUnits="userSpaceOnUse" id="color-19-,0,0,1,-126.97196,181.07223"><stop offset="0" stop-color="#cccccc"/><stop offset="1" stop-color="#7f7f7f"/></radialGradient><radialGradient cx="92.8678" cy="441.2408" r="3.6984" gradientUnits="userSpaceOnUse" id="color-20-,0,0,1,-126.97196,181.07223"><stop offset="0" stop-color="#cccccc"/><stop offset="1" stop-color="#7f7f7f"/></radialGradient><radialGradient cx="85.2286" cy="396.0844" r="5.5437" gradientUnits="userSpaceOnUse" id="color-21-,0,0,1,-126.97196,181.07223"><stop offset="0" stop-color="#cccccc"/><stop offset="1" stop-color="#7f7f7f"/></radialGradient><radialGradient cx="94.6813" cy="397.9623" r="3.2781" gradientUnits="userSpaceOnUse" id="color-22-,0,0,1,-126.97196,181.07223"><stop offset="0" stop-color="#cccccc"/><stop offset="1" stop-color="#7f7f7f"/></radialGradient><radialGradient cx="96.6793" cy="401.9038" r="3.2781" gradientUnits="userSpaceOnUse" id="color-23-,0,0,1,-126.97196,181.07223"><stop offset="0" stop-color="#cccccc"/><stop offset="1" stop-color="#7f7f7f"/></radialGradient><radialGradient cx="97.6545" cy="406.3468" r="3.2781" gradientUnits="userSpaceOnUse" id="color-24-,0,0,1,-126.97196,181.07223"><stop offset="0" stop-color="#cccccc"/><stop offset="1" stop-color="#7f7f7f"/></radialGradient><radialGradient cx="97.9057" cy="411.2759" r="3.2781" gradientUnits="userSpaceOnUse" id="color-25-,0,0,1,-126.97196,181.07223"><stop offset="0" stop-color="#cccccc"/><stop offset="1" stop-color="#7f7f7f"/></radialGradient><radialGradient cx="98.291" cy="415.8987" r="3.2781" gradientUnits="userSpaceOnUse" id="color-26-,0,0,1,-126.97196,181.07223"><stop offset="0" stop-color="#cccccc"/><stop offset="1" stop-color="#7f7f7f"/></radialGradient><radialGradient cx="98.2358" cy="420.6937" r="3.2781" gradientUnits="userSpaceOnUse" id="color-27-,0,0,1,-126.97196,181.07223"><stop offset="0" stop-color="#cccccc"/><stop offset="1" stop-color="#7f7f7f"/></radialGradient><radialGradient cx="97.8744" cy="425.3544" r="3.2781" gradientUnits="userSpaceOnUse" id="color-28-,0,0,1,-126.97196,181.07223"><stop offset="0" stop-color="#cccccc"/><stop offset="1" stop-color="#7f7f7f"/></radialGradient><radialGradient cx="97.7963" cy="429.7014" r="3.2781" gradientUnits="userSpaceOnUse" id="color-29-,0,0,1,-126.97196,181.07223"><stop offset="0" stop-color="#cccccc"/><stop offset="1" stop-color="#7f7f7f"/></radialGradient><radialGradient cx="97.5919" cy="434.504" r="3.2781" gradientUnits="userSpaceOnUse" id="color-30-,0,0,1,-126.97196,181.07223"><stop offset="0" stop-color="#cccccc"/><stop offset="1" stop-color="#7f7f7f"/></radialGradient><radialGradient cx="96.4911" cy="439.3523" r="3.2781" gradientUnits="userSpaceOnUse" id="color-31-,0,0,1,-126.97196,181.07223"><stop offset="0" stop-color="#cccccc"/><stop offset="1" stop-color="#7f7f7f"/></radialGradient><radialGradient cx="95.6225" cy="454.4779" r="3.3574" gradientUnits="userSpaceOnUse" id="color-32-,0,0,1,-126.97196,181.07223"><stop offset="0" stop-color="#cccccc"/><stop offset="1" stop-color="#7f7f7f"/></radialGradient><radialGradient cx="95.3862" cy="458.3344" r="3.6984" gradientUnits="userSpaceOnUse" id="color-33-,0,0,1,-126.97196,181.07223"><stop offset="0" stop-color="#cccccc"/><stop offset="1" stop-color="#7f7f7f"/></radialGradient><radialGradient cx="96.7672" cy="462.4006" r="3.2781" gradientUnits="userSpaceOnUse" id="color-34-,0,0,1,-126.97196,181.07223"><stop offset="0" stop-color="#cccccc"/><stop offset="1" stop-color="#7f7f7f"/></radialGradient><linearGradient x1="176.4863" y1="412.8239" x2="177.0224" y2="444.5609" gradientUnits="userSpaceOnUse" id="color-35-,0,0,1,-126.97196,181.07223"><stop offset="0" stop-color="#ff0000"/><stop offset="1" stop-color="#ff0000" stop-opacity="0"/></linearGradient><linearGradient x1="170.9051" y1="412.955" x2="176.4785" y2="412.6709" gradientUnits="userSpaceOnUse" id="color-36-,0,0,1,-126.97196,181.07223"><stop offset="0" stop-color="#ff0000"/><stop offset="1" stop-color="#ff0000" stop-opacity="0"/></linearGradient><linearGradient x1="134.4348" y1="388.0247" x2="118.2575" y2="388.4508" gradientUnits="userSpaceOnUse" id="color-37-,0,0,1,-126.97196,181.07223"><stop offset="0" stop-color="#7f7f7f"/><stop offset="1" stop-color="#b2b2b2"/></linearGradient><linearGradient x1="136.8064" y1="398.802" x2="125.1555" y2="399.3958" gradientUnits="userSpaceOnUse" id="color-38-,0,0,1,-126.97196,181.07223"><stop offset="0" stop-color="#000000"/><stop offset="1" stop-color="#353935"/></linearGradient><linearGradient x1="115.1211" y1="399.9072" x2="125.5768" y2="399.3743" gradientUnits="userSpaceOnUse" id="color-39-,0,0,1,-126.97196,181.07223"><stop offset="0" stop-color="#000000"/><stop offset="1" stop-color="#353935"/></linearGradient><radialGradient cx="102.3226" cy="394.1124" r="26.2546" gradientUnits="userSpaceOnUse" id="color-40-,0,0,1,-126.97196,181.07223"><stop offset="0" stop-color="#666666"/><stop offset="1" stop-color="#000000"/></radialGradient><radialGradient cx="101.2175" cy="402.8922" r="11.2826" gradientUnits="userSpaceOnUse" id="color-41-,0,0,1,-126.97196,181.07223"><stop offset="0" stop-color="#370000"/><stop offset="1" stop-color="#000000"/></radialGradient><radialGradient cx="106.4838" cy="406.3011" r="9.6234" gradientUnits="userSpaceOnUse" id="color-42-,0,0,1,-126.97196,181.07223"><stop offset="0" stop-color="#370000"/><stop offset="1" stop-color="#000000"/></radialGradient><radialGradient cx="99.791" cy="396.4445" r="8.9043" gradientUnits="userSpaceOnUse" id="color-43-,0,0,1,-126.97196,181.07223"><stop offset="0" stop-color="#370000"/><stop offset="1" stop-color="#000000"/></radialGradient><radialGradient cx="110.1636" cy="400.2426" r="7.8307" gradientUnits="userSpaceOnUse" id="color-44-,0,0,1,-126.97196,181.07223"><stop offset="0" stop-color="#370000"/><stop offset="1" stop-color="#000000"/></radialGradient><radialGradient cx="106.0137" cy="394.8089" r="5.8933" gradientUnits="userSpaceOnUse" id="color-45-,0,0,1,-126.97196,181.07223"><stop offset="0" stop-color="#370000"/><stop offset="1" stop-color="#000000"/></radialGradient><radialGradient cx="105.3229" cy="399.025" r="2.8746" gradientUnits="userSpaceOnUse" id="color-46-,0,0,1,-126.97196,181.07223"><stop offset="0" stop-color="#ff0000"/><stop offset="1" stop-color="#000000"/></radialGradient></defs><g><g data-paper-data="{&quot;isPaintingLayer&quot;:true}" fill-rule="nonzero" stroke-linejoin="miter" stroke-miterlimit="10" stroke-dasharray="" stroke-dashoffset="0" style="mix-blend-mode: normal"><path d="M 168.8241 493.3333 C 175.8722 485.9914 196.4927 478.8228 198.3546 488.4534 C 204.0825 518.2711 199.3523 551.7149 185.7608 578.7728 C 180.9571 588.3544 158.6045 584.8336 153.7632 575.2548 C 146.3629 559.9187 156.2226 544.0266 159.1 528.6857 C 161.3858 516.4487 160.3565 501.8893 168.8241 493.3333 Z " data-paper-data="{&quot;origRot&quot;:0}" fill="#ffffff" stroke="#000000" stroke-width="1" stroke-linecap="round"/><path d="M 161.6582 406.1943 C 161.6582 406.1943 177.7344 420.5244 185.7179 440.194 C 191.7587 455.0771 200.0312 487.1583 200.0312 487.1583 L 162.0092 490.3258 C 162.0092 490.3258 146.9602 466.7619 140.3225 450.439 C 133.6848 434.116 121.9252 409.5152 121.9252 409.5152 Z " data-paper-data="{&quot;origRot&quot;:0}" fill="#ffffff" stroke="#000000" stroke-width="1" stroke-linecap="round"/><g data-paper-data="{&quot;origRot&quot;:0}"><path d="M 138.3856 613.0193 C 136.193 612.2405 137.6025 608.9766 137.7277 606.9161 C 138.9299 598.4152 139.7012 590.013 141.5848 581.6946 C 142.8642 576.0534 145.8758 558.1549 151.8699 550.3759 C 155.3523 545.8564 152.4359 565.0413 157.8614 568.1387 C 167.795 573.8313 181.2129 569.3528 191.8644 573.2616 C 194.5265 574.2371 188.5814 587.4202 191.0085 589.2618 C 196.3762 593.3254 205.4613 590.2511 210.0984 594.9961 C 213.1553 598.1245 211.5936 604.1467 210.9437 608.6332 C 210.573 611.1845 209.3052 614.5368 209.3052 614.5368 C 209.3052 614.5368 147.1369 616.1178 138.3856 613.0193 Z " data-paper-data="{&quot;origPos&quot;:null}" fill="url(#color-1-,0,0,1,-126.97196,181.07223)" stroke-width="1" stroke-linecap="round" stroke="none"/><path d="M 138.7481 613.1837 C 135.5737 611.0543 138.6967 603.665 138.6967 603.665 C 138.6967 603.665 151.4431 606.5453 165.4141 607.4395 C 180.7833 608.4231 211.2573 608.4152 211.2573 608.4152 C 211.2573 608.4152 210.7587 614.6783 208.0771 615.0326 C 205.3956 615.387 180.7181 616.0046 164.894 614.9494 C 156.2632 614.3754 141.0659 614.7384 138.7482 613.1836 Z " data-paper-data="{&quot;origPos&quot;:null}" fill="url(#color-2-,0,0,1,-126.97196,181.07223)" stroke-width="1.16035" stroke-linecap="round" stroke="none"/><g data-paper-data="{&quot;origPos&quot;:null}" stroke-linecap="butt"><g data-paper-data="{&quot;origPos&quot;:null}"><path d="M274.85601,425.87444c0,0 4.55731,-10.052 6.04246,-16.76692c1.80593,-8.1651 6.01497,-20.88954 6.01497,-20.88954c0,0 0.52807,-0.0342 1.07409,0.20574c0.77222,0.33935 1.76862,1.2661 1.76862,1.2661l-10.42891,36.69095z" data-paper-data="{&quot;origPos&quot;:null}" fill="url(#color-3)" stroke-width="0" stroke="none" transform="matrix(1,0,0,1,-126.97196,181.07223)"/><path d="M 155.9984 588.0324 C 156.2804 588.1413 156.2371 588.3942 156.2146 588.4761 C 156.2771 588.6891 156.3348 588.8936 156.3579 589.1163 C 156.5802 591.2556 156.6472 591.9031 155.0172 593.2526 C 153.9728 594.0946 155.6014 594.0001 155.2608 595.4178 C 155.1907 595.7096 154.1248 596.2578 153.8926 596.5134 C 152.498 598.0051 154.5965 598.6205 153.0471 600.3262 C 152.0745 601.3665 150.4309 602.0726 151.9874 603.4862 C 152.3779 604.942 150.1339 605.4308 149.2743 606.3772 C 149.2743 606.3772 149.0301 606.6461 148.7611 606.4018 C 148.4922 606.1576 148.7365 605.8887 148.7365 605.8887 C 149.3063 605.2612 151.1632 604.026 151.4611 603.9896 C 149.6541 602.31 151.4218 601.095 152.5093 599.8377 C 153.5783 598.6608 151.9952 597.5969 153.3548 596.025 C 153.6398 595.7111 154.2627 595.0199 154.6227 594.7476 C 154.1963 594.4809 153.4962 593.606 154.5539 592.693 C 155.4947 591.914 155.7614 590.4065 155.6352 589.1915 C 155.6141 588.9886 155.5615 588.8306 155.5039 588.6349 L 155.5286 588.2404 C 155.5286 588.2404 155.6595 587.9015 155.9984 588.0325 Z " data-paper-data="{&quot;origPos&quot;:null,&quot;origRot&quot;:0}" fill="#000000" stroke-width="0.5" stroke="none"/><path d="M 156.182 589.8493 C 155.893 589.7606 155.9184 589.5052 155.9351 589.422 C 155.8577 589.214 155.7858 589.014 155.7471 588.7935 C 155.3748 586.6751 155.2624 586.0339 156.7934 584.5731 C 157.776 583.6597 156.158 583.8686 156.398 582.4304 C 156.4474 582.1344 157.4721 581.5125 157.6857 581.2412 C 158.9719 579.6551 156.8354 579.1889 158.2608 577.3783 C 159.1578 576.2722 160.7477 575.4523 159.0956 574.1515 C 158.6036 572.7269 160.8077 572.0814 161.5985 571.0769 C 161.5985 571.0769 161.8232 570.7914 162.1087 571.0162 C 162.3942 571.2409 162.1694 571.5263 162.1694 571.5263 C 161.6451 572.1923 159.8797 573.5551 159.5851 573.6125 C 161.5058 575.1607 159.8281 576.4971 158.8318 577.8278 C 157.8483 579.0771 159.5023 580.0269 158.2566 581.6906 C 157.9944 582.0236 157.4217 582.7571 157.0818 583.054 C 157.5258 583.2901 158.2858 584.1135 157.295 585.0988 C 156.4112 585.9421 156.2513 587.4646 156.4628 588.6677 C 156.498 588.8687 156.5616 589.0226 156.6329 589.2137 L 156.636 589.6088 C 156.636 589.6088 156.5292 589.9561 156.1819 589.8493 Z " data-paper-data="{&quot;origPos&quot;:null,&quot;index&quot;:null}" fill="#000000" stroke-width="0.5" stroke="none"/></g><path d="M281.2556,392.65723l5.73825,-5.01767l2.47109,1.15084l-3.58298,6.31727z" data-paper-data="{&quot;origPos&quot;:null}" fill="#333333" stroke-width="0" stroke="none" transform="matrix(1,0,0,1,-126.97196,181.07223)"/></g><g data-paper-data="{&quot;origPos&quot;:null}" stroke-linecap="butt"><path d="M 189.419 588.0122 C 189.4193 588.0823 189.4116 588.1447 189.3974 588.2 C 189.4577 588.2891 189.505 588.4152 189.5232 588.5932 C 189.5954 589.2966 189.0712 589.4035 189.0712 589.4035 C 186.9655 589.8332 184.6095 588.2766 182.5698 588.9079 C 182.459 588.9306 182.3481 588.9532 182.2373 588.9758 L 181.6884 588.9252 C 181.577 588.9376 181.4437 588.9094 181.3291 588.7645 C 181.2489 588.6825 181.1791 588.558 181.1571 588.3689 C 181.1202 588.1843 181.1462 588.0307 181.1945 587.9098 C 181.2561 587.7086 181.3715 587.6059 181.4778 587.5535 C 182.625 586.7247 183.6716 585.7882 184.7684 584.88 C 184.3837 584.4247 184.0282 583.9518 183.723 583.4611 L 183.2125 583.3963 C 182.922 583.3594 182.712 583.0123 182.7435 582.6211 C 182.7637 582.3713 182.8774 582.164 183.0326 582.0563 L 183.5461 581.6873 L 183.5718 581.7532 C 183.9692 581.4943 184.5376 580.8583 185.155 580.1684 C 184.7428 579.8524 184.3367 579.5109 183.9067 579.2775 L 183.9061 579.2796 L 183.2866 578.9844 C 183.0581 578.883 182.9059 578.5787 182.9332 578.2416 C 182.9533 577.9918 183.067 577.7845 183.2222 577.6768 L 183.7357 577.3078 L 183.8303 577.5502 C 184.1235 577.1102 184.5103 576.718 184.9499 576.37 C 184.3886 575.8089 183.9082 575.2456 183.6149 574.7608 C 183.8001 572.4942 187.9456 572.7407 189.7292 574.221 L 189.9013 574.1859 L 190.0008 573.8214 L 190.6203 574.1166 C 190.8488 574.218 191.001 574.5223 190.9737 574.8594 C 190.9465 575.1966 190.7489 575.4564 190.5089 575.4982 C 190.3629 575.528 190.0898 575.5838 189.8547 575.6317 C 189.7218 575.6589 189.601 575.6835 189.5222 575.6996 C 188.9483 575.667 188.1288 576.161 187.2802 576.7227 C 187.8706 577.1753 188.4369 577.5461 188.8662 577.7507 L 189.1707 577.8959 C 189.3992 577.9972 189.5514 578.3016 189.5242 578.6386 C 189.4927 579.0298 189.2315 579.317 188.9409 579.2801 L 188.2935 579.1978 L 188.2962 579.1643 C 188.0576 579.4285 187.7878 579.6998 187.4996 579.9725 C 190.1227 581.4749 189.8596 582.7242 186.9063 584.8463 C 186.8669 584.8746 186.8277 584.903 186.7885 584.9316 C 187.6227 585.8601 188.4115 586.7977 188.87 587.163 L 189.1761 587.4221 C 189.1761 587.4221 189.4163 587.3008 189.4189 588.0122 Z M 185.6293 585.8284 C 184.9682 586.3647 184.3253 586.9204 183.6766 587.461 C 185.1141 587.5666 186.5659 588.0987 187.9977 588.0893 C 187.2543 587.3968 186.4166 586.6438 185.6293 585.8284 Z M 188.061 581.9165 C 187.5035 581.6539 186.8464 581.2178 186.4049 580.9509 C 185.6612 581.586 184.9011 582.1908 184.296 582.6892 C 184.7305 582.8612 185.301 583.3631 185.9005 583.9765 C 186.0706 583.847 186.2429 583.7192 186.4179 583.5934 C 186.8625 583.2739 187.5105 582.4744 188.061 581.9166 Z M 187.1983 575.068 C 186.3034 574.9833 185.434 574.7609 184.906 574.4968 C 185.2162 574.8725 185.6016 575.2702 186.0175 575.6564 C 186.4041 575.4357 186.804 575.2401 187.1983 575.068 Z M 187.0959 578.2107 C 186.7888 577.9852 186.4702 577.7346 186.154 577.4694 C 185.6008 577.823 185.077 578.1166 184.6463 578.2155 C 185.1111 578.5418 185.5625 578.9133 186.0367 579.2028 C 186.3998 578.8207 186.7604 578.47 187.0959 578.2107 Z " data-paper-data="{&quot;origPos&quot;:null,&quot;origRot&quot;:0}" fill="url(#color-4-,0,0,1,-126.97196,181.07223)" stroke-width="0.5" stroke="none"/><path d="M 190.5246 591.2362 C 190.3038 591.3279 190.1264 591.3146 189.9881 591.2565 L 190.0161 591.2853 C 187.119 591.2173 184.343 591.2888 181.5394 590.5177 C 177.1149 589.3007 181.1432 584.4234 181.2092 581.6069 C 181.4848 578.7391 182.2144 576.0998 182.2849 573.091 C 182.2849 573.091 182.3016 572.3796 183.013 572.3963 C 183.7243 572.413 183.7076 573.1244 183.7076 573.1244 C 183.6588 575.2065 182.2063 580.0511 182.6319 581.6403 C 182.5635 584.5586 179.2295 588.4064 181.9168 589.1456 C 184.6034 589.8847 187.2664 589.7973 190.0494 589.8626 L 190.9088 590.3062 C 190.9088 590.3062 191.1817 590.9634 190.5246 591.2362 Z " data-paper-data="{&quot;origPos&quot;:null}" fill="#1a1a1a" stroke-width="0.5" stroke="none"/></g></g><g data-paper-data="{&quot;origRot&quot;:0}" stroke-linecap="round"><path d="M 203.127 492.7144 C 204.7374 499.6808 204.4723 510.4478 197.8753 513.7255 C 187.8016 518.9674 173.9482 518.0947 163.4631 512.9915 C 158.554 510.5387 162.5919 502.0364 162.3447 496.5533 C 162.5551 491.9526 159.5924 485.4231 163.3561 482.7788 C 170.8686 477.5025 181.6464 475.2367 190.2084 477.4819 C 196.9906 479.0719 201.6344 486.2698 203.127 492.7144 Z " data-paper-data="{&quot;origPos&quot;:null}" fill="#666666" stroke="#000000" stroke-width="1.5"/><path d="M 202.1868 493.1978 C 203.4954 498.8581 203.2801 507.606 197.9201 510.269 C 189.7355 514.5277 178.4797 513.8187 169.961 509.6727 C 165.9726 507.6798 169.2532 500.7718 169.0521 496.3169 C 169.2232 492.579 166.8162 487.274 169.8739 485.1254 C 175.9779 480.8388 184.7343 478.9976 191.6908 480.822 C 197.2011 482.1138 200.9743 487.962 202.1868 493.1979 Z " data-paper-data="{&quot;origPos&quot;:null}" fill="#ffffff" stroke="none" stroke-width="0.81248"/></g><path d="M 109.9654 501.8376 C 119.0871 502.085 132.8131 515.7736 127.4656 523.7766 C 112.0102 546.8746 86.9903 565.1857 60.5469 573.6792 C 50.1265 577.0215 31.8824 562.9579 34.2736 552.5332 C 37.6994 537.7018 57.9788 531.0732 71.1168 522.1002 C 82.8238 514.148 95.1702 501.3735 109.9654 501.8376 Z " data-paper-data="{&quot;origRot&quot;:0}" fill="#ffffff" stroke="#000000" stroke-width="1" stroke-linecap="round"/><path d="M 90.7869 396.6934 C 90.7869 396.6934 125.5118 372.9734 134.6408 390.5844 C 143.7699 408.1952 148.886 460.9407 140.9761 493.5137 C 138.4437 503.9325 117.1095 506.0967 109.0814 498.9052 C 99.3523 489.7577 102.1981 477.8273 102.1981 477.8273 C 102.1981 477.8273 100.0253 447.9732 97.9133 436.2948 C 94.6865 418.1026 90.787 396.6934 90.787 396.6934 Z " data-paper-data="{&quot;origRot&quot;:0}" fill="#ffffff" stroke="#000000" stroke-width="1" stroke-linecap="round"/><g data-paper-data="{&quot;origRot&quot;:0}"><path d="M 0.1898 580.1805 C -1.1232 578.1897 4.7101 569.9974 7.426 566.9152 C 13.3479 560.1907 19.6299 553.0408 26.4855 547.3495 C 33.2855 541.7055 40.8058 533.1766 48.2032 532.677 C 51.2379 532.471 39.822 543.1079 42.8506 547.2028 C 49.6444 556.3797 63.6092 556.957 72.1334 565.0444 C 74.2641 567.0653 62.2573 576.8296 62.7084 580.601 C 63.2427 584.9004 70.074 586.475 70.9154 590.7328 C 71.7911 595.1618 69.0664 599.5135 67.2757 603.5531 C 66.3504 605.5726 62.4997 608.2614 62.4997 608.2614 C 62.4997 608.2614 35.3174 597.7608 22.0701 591.1397 C 14.8442 587.5296 1.6246 582.3561 0.1897 580.1805 Z " data-paper-data="{&quot;origPos&quot;:null}" fill="url(#color-5-,0,0,1,-126.97196,181.07223)" stroke-width="1.16035" stroke-linecap="round" stroke="none"/><path d="M 0.7425 580.4275 C -1.2227 577.4477 4.1344 572.2111 4.1344 572.2111 C 4.1344 572.2111 14.0723 579.2932 25.7818 585.1066 C 38.6633 591.502 67.1458 603.4949 67.1458 603.4949 C 67.1458 603.4949 63.2141 608.154 60.7768 607.4912 C 58.3394 606.8283 35.8702 598.0079 22.6228 591.3867 C 15.3969 587.7767 2.1774 582.6032 0.7425 580.4275 Z " data-paper-data="{&quot;origPos&quot;:null}" fill="url(#color-6-,0,0,1,-126.97196,181.07223)" stroke-width="1.16035" stroke-linecap="round" stroke="none"/><g data-paper-data="{&quot;origPos&quot;:null}" stroke-linecap="butt"><g data-paper-data="{&quot;origPos&quot;:null}"><path d="M142.70661,399.19603c0,0 8.61196,-7.99441 12.83389,-13.97648c5.13373,-7.27407 14.50363,-18.03585 14.50363,-18.03585c0,0 0.53259,0.18376 0.96997,0.64407c0.61856,0.65102 1.21552,1.9711 1.21552,1.9711l-25.34109,31.7346z" data-paper-data="{&quot;origPos&quot;:null}" fill="url(#color-7)" stroke-width="0" stroke="none" transform="matrix(1,0,0,1,-126.97196,181.07223)"/><path d="M 31.4868 565.0359 C 31.7188 565.2589 31.5722 565.4895 31.5164 565.5606 C 31.4902 565.7954 31.4625 566.02 31.3936 566.2482 C 30.7313 568.4403 30.5307 569.1037 28.3748 569.7578 C 27.0027 570.1546 28.6408 570.7322 27.7229 571.9841 C 27.5339 572.2417 26.2616 572.3413 25.9285 572.4968 C 23.9451 573.3875 25.7524 574.8553 23.5291 575.8926 C 22.1459 576.5137 20.2414 576.5306 21.1879 578.5593 C 20.9722 580.1494 18.5676 579.7058 17.3342 580.2813 C 17.3342 580.2813 16.9837 580.4448 16.8201 580.0942 C 16.6566 579.7437 17.0071 579.5802 17.0071 579.5802 C 17.8249 579.1986 20.1566 578.75 20.4641 578.8368 C 19.3811 576.4439 21.6168 575.9785 23.2021 575.1915 C 24.7361 574.4758 23.6195 572.7796 25.6015 571.7957 C 26.0105 571.6049 26.9066 571.1825 27.3721 571.0633 C 27.0633 570.6259 26.7359 569.4787 28.1502 569.0175 C 29.3947 568.6398 30.2769 567.2693 30.6531 566.0244 C 30.7158 565.8164 30.7293 565.6397 30.7532 565.4238 L 30.9398 565.0467 C 30.9398 565.0467 31.2078 564.7679 31.4867 565.0359 Z " data-paper-data="{&quot;origPos&quot;:null,&quot;origRot&quot;:0}" fill="#000000" stroke-width="0.5" stroke="none"/><path d="M 30.9191 566.8956 C 30.6719 566.6894 30.8019 566.4492 30.8526 566.3743 C 30.8622 566.1382 30.874 565.9123 30.9267 565.6798 C 31.433 563.4465 31.5866 562.7707 33.691 561.9665 C 35.0318 561.474 33.3571 561.0132 34.1847 559.6998 C 34.355 559.4295 35.6171 559.2406 35.9385 559.0621 C 37.8543 558.0341 35.9482 556.697 38.093 555.5059 C 39.4291 554.789 41.3277 554.6382 40.2408 552.6811 C 40.344 551.0798 42.7739 551.353 43.9638 550.6922 C 43.9638 550.6922 44.3019 550.5044 44.4898 550.8425 C 44.6775 551.1807 44.3394 551.3685 44.3394 551.3685 C 43.5504 551.8067 41.2561 552.4182 40.9433 552.3533 C 42.192 554.6641 39.9947 555.2857 38.4687 556.1823 C 36.9888 557.0041 38.222 558.6175 36.3141 559.7385 C 35.9196 559.9576 35.0554 560.442 34.5994 560.5937 C 34.9383 561.0082 35.3456 562.1295 33.9673 562.6891 C 32.7524 563.1534 31.9688 564.5826 31.6812 565.851 C 31.6332 566.0628 31.6323 566.24 31.6236 566.457 L 31.464 566.8463 C 31.464 566.8463 31.2162 567.1433 30.9192 566.8956 Z " data-paper-data="{&quot;origPos&quot;:null,&quot;index&quot;:null}" fill="#000000" stroke-width="0.5" stroke="none"/></g><path d="M162.66163,369.21392l7.69954,-2.56513l1.95267,2.14705l-6.11814,4.72826z" data-paper-data="{&quot;origPos&quot;:null}" fill="#333333" stroke-width="0" stroke="none" transform="matrix(1,0,0,1,-126.97196,181.07223)"/></g><g data-paper-data="{&quot;origPos&quot;:null}" stroke-linecap="butt"><path d="M 62.7529 579.9769 C 62.7247 580.045 62.6919 580.1023 62.6557 580.1502 C 62.678 580.2611 62.6725 580.4025 62.6179 580.5824 C 62.4021 581.2934 61.8505 581.1841 61.8505 581.1841 C 59.6352 580.7451 57.984 578.2792 55.7506 578.0625 C 55.6339 578.0394 55.5174 578.0163 55.4007 577.9932 L 54.8892 577.7211 C 54.7762 577.6879 54.6585 577.6064 54.6063 577.4194 C 54.5618 577.3073 54.5448 577.1583 54.6002 576.966 C 54.6395 576.7721 54.7271 576.6338 54.823 576.5363 C 54.9645 576.3664 55.118 576.3137 55.2424 576.3062 C 56.691 575.969 58.0859 575.4864 59.5179 575.0517 C 59.33 574.4541 59.1775 573.8514 59.0811 573.2518 L 58.6127 572.9816 C 58.3461 572.8278 58.2836 572.4061 58.4731 572.0398 C 58.5941 571.8059 58.7886 571.6511 58.9828 571.6097 L 59.6304 571.4608 L 59.6286 571.5351 C 60.1188 571.4456 60.9282 571.0601 61.8069 570.6422 C 61.5358 570.1685 61.2809 569.6724 60.959 569.2716 L 60.9576 569.2734 L 60.4771 568.7356 C 60.2968 568.5445 60.2729 568.1877 60.4362 567.8721 C 60.5573 567.6382 60.7517 567.4834 60.9459 567.442 L 61.5935 567.293 L 61.5867 567.5664 C 62.0497 567.2591 62.5839 567.0361 63.1513 566.8774 C 62.8352 566.1056 62.5984 565.3644 62.5111 564.7754 C 63.6115 562.6537 67.5292 564.5768 68.6566 566.7362 L 68.8377 566.7721 L 69.0822 566.4591 L 69.5627 566.997 C 69.743 567.188 69.7668 567.5448 69.6035 567.8605 C 69.4402 568.1762 69.1431 568.3478 68.8934 568.2908 C 68.7399 568.2603 68.4526 568.2034 68.2052 568.1544 C 68.0654 568.1266 67.9383 568.1015 67.8554 568.085 C 67.3123 567.8203 66.3174 567.9662 65.2667 568.1659 C 65.655 568.8444 66.0533 569.4339 66.3862 569.8065 L 66.6225 570.0709 C 66.8028 570.262 66.8266 570.6188 66.6633 570.9344 C 66.4738 571.3008 66.104 571.4731 65.8374 571.3192 L 65.2432 570.9764 L 65.2595 570.9451 C 64.9209 571.1042 64.5492 571.2575 64.159 571.4048 C 66.0911 573.9266 65.3285 575.0306 61.6039 575.8876 C 61.5543 575.899 61.5047 575.9105 61.4551 575.9223 C 61.8864 577.1612 62.2701 578.3905 62.566 578.9308 L 62.7575 579.3063 C 62.7575 579.3063 63.0395 579.2863 62.7531 579.9769 Z M 59.967 576.3207 C 59.1083 576.572 58.2595 576.8493 57.411 577.1098 C 58.7614 577.7961 59.9524 578.9017 61.3439 579.4742 C 60.9047 578.501 60.3988 577.4308 59.9669 576.3206 Z M 63.913 573.5171 C 63.4794 573.036 63.0196 572.3465 62.7002 571.9083 C 61.7214 572.2218 60.7389 572.4991 59.9499 572.7364 C 60.3011 573.0796 60.6503 573.7979 60.9821 574.6359 C 61.1996 574.5795 61.4185 574.5256 61.6392 574.4748 C 62.2 574.3458 63.1529 573.8342 63.913 573.5171 Z M 65.859 566.5289 C 65.0261 566.0832 64.2737 565.5145 63.8693 565.044 C 64.0173 565.5342 64.2293 566.0762 64.4757 566.6195 C 64.9399 566.5626 65.407 566.5355 65.8591 566.5289 Z M 64.4831 569.5331 C 64.2771 569.1899 64.0701 568.8175 63.8714 568.432 C 63.1915 568.5499 62.5646 568.6218 62.107 568.5426 C 62.4249 569.0477 62.7114 569.5912 63.0535 570.0645 C 63.5607 569.8416 64.0527 569.6482 64.4832 569.5331 Z " data-paper-data="{&quot;origPos&quot;:null,&quot;origRot&quot;:0}" fill="#292929" stroke-width="0.5" stroke="none"/><path d="M 62.5146 583.5509 C 62.2634 583.5501 62.0968 583.4651 61.9864 583.3526 L 62.0018 583.3919 C 59.2214 582.149 56.5017 581.0906 54.0977 579.2042 C 50.3037 576.2271 56.1895 573.1364 57.3978 570.4334 C 58.83 567.7658 60.6093 565.5041 61.9001 562.6165 C 61.9001 562.6165 62.2053 561.9338 62.888 562.239 C 63.5707 562.5442 63.2655 563.2269 63.2655 563.2269 C 62.3722 565.2252 58.9963 569.3306 58.7632 571.0438 C 57.5113 573.8445 52.7166 576.2195 55.0209 578.0276 C 57.3248 579.8354 59.9413 580.8327 62.6121 582.0265 L 63.2648 582.8056 C 63.2648 582.8056 63.2623 583.5534 62.5145 583.5509 Z " data-paper-data="{&quot;origPos&quot;:null}" fill="#1a1a1a" stroke-width="0.5" stroke="none"/></g></g><g data-paper-data="{&quot;origRot&quot;:0}" stroke-linecap="round"><path d="M 140.9844 507.9134 C 138.954 514.7692 133.4193 524.0086 126.0638 523.6112 C 114.7148 523.2107 103.0887 515.627 96.4781 506.0211 C 93.4142 501.4679 101.1165 496.0579 103.6024 491.1646 C 106.0516 487.2643 106.6899 480.1226 111.2678 479.6755 C 120.4049 478.7845 130.9003 482.1217 137.2453 488.2932 C 142.3644 493.0181 142.86 501.5697 140.9843 507.9134 Z " data-paper-data="{&quot;origPos&quot;:null}" fill="#666666" stroke="#000000" stroke-width="1.5"/><path d="M 139.4135 507.3361 C 137.7641 512.9066 133.2673 520.4134 127.2909 520.0906 C 118.0701 519.7651 108.6244 513.6035 103.2532 505.7987 C 100.7638 502.0995 106.9812 497.682 109.0414 493.7282 C 110.9912 490.5374 111.5489 484.7343 115.2695 484.3938 C 122.6708 483.7158 131.168 486.361 136.3759 491.3957 C 140.4738 495.2037 140.9375 502.1822 139.4134 507.3362 Z " data-paper-data="{&quot;origPos&quot;:null}" fill="#ffffff" stroke="none" stroke-width="0.81248"/></g><path d="M 138.1372 346.3404 C 131.9571 341.8221 142.2524 328.4566 149.4008 324.8381 C 159.018 319.9775 170.7311 324.9063 181.7544 324.2011 C 193.5747 323.4622 206.3163 317.403 217.2594 321.9508 C 224.384 324.9243 232.0506 336.7918 226.879 341.81 C 217.7065 351.579 201.6212 351.0453 188.4163 351.6905 C 171.6475 352.5115 151.4649 355.2484 138.1371 346.3405 Z " data-paper-data="{&quot;origRot&quot;:0}" fill="#000000" stroke="#000000" stroke-width="1.5" stroke-linecap="round"/><g data-paper-data="{&quot;origRot&quot;:0}"><path d="M 211.2029 344.8263 C 207.1451 344.4271 202.3798 338.8097 204.2993 335.6124 C 208.2736 328.3563 217.811 326.306 224.321 321.5573 C 227.2339 319.4352 229.4136 316.1469 232.3319 314.2691 C 236.2983 311.7186 240.7635 306.6953 245.209 308.3468 C 249.8687 310.0633 250.3823 317.0607 251.5392 321.915 C 252.5106 325.9983 253.7927 331.1842 251.8169 335.0793 C 250.0051 337.9395 245.5494 338.1329 242.1619 338.6223 C 238.5639 339.1428 234.7967 336.685 231.1927 337.3894 C 224.2415 338.7548 218.2684 345.4858 211.2028 344.8263 Z " fill="#ffffff" stroke="#ffffff" stroke-width="2.41239" stroke-linecap="round"/><path d="M 226.3355 320.7771 C 226.3355 320.7771 226.6559 313.3268 228.0839 309.9727 C 229.4843 306.6817 231.6975 303.6201 234.3074 301.1663 C 236.4828 299.4676 239.2536 297.66 241.9692 297.9332 C 244.1833 298.1636 245.3064 300.9429 246.7062 302.6668 C 247.1305 303.1886 247.0163 304.6598 247.0163 304.6598 " fill="none" stroke="#353935" stroke-width="1.20619" stroke-linecap="round"/><path d="M 229.8458 306.6164 C 233.1762 302.4763 237.705 299.151 242.6945 298.4122 C 245.0075 297.7764 248.3357 301.5029 247.3769 303.3178 C 245.8916 306.0927 240.7171 305.1097 238.4714 307.479 C 236.6682 309.3874 237.0008 312.471 235.5943 314.7033 C 234.927 316.5542 233.8854 318.3085 232.3209 319.5887 C 231.249 320.4772 229.6831 321.7154 228.5454 321.3518 C 227.408 320.9883 226.4501 319.114 226.4922 317.726 C 226.6128 313.9237 227.4057 309.6166 229.8458 306.6164 Z " fill="#353935" stroke="none" stroke-width="1.20619" stroke-linecap="round"/><path d="M 231.8287 329.2824 C 230.5036 327.2859 230.1208 324.6435 230.2935 321.9242 C 230.1881 320.1871 230.1669 317.8984 232.035 316.2258 C 234.5474 314.0257 238.8448 311.1271 241.3298 312.0994 C 244.609 313.3906 244.0808 317.7853 244.9831 320.837 C 246.015 324.4545 249.5818 328.2212 247.6399 332.4954 C 246.4713 335.0204 240.7299 335.0728 237.8348 334.5602 C 234.7626 334.0167 233.238 331.4613 231.8286 329.2823 Z " fill="#000000" stroke="none" stroke-width="1.67373" stroke-linecap="round"/><g stroke-linecap="round"><path d="M 234.1214 310.289 C 235.4741 307.8109 239.5402 306.8273 242.3659 305.5664 C 245.1024 304.3592 248.1998 302.2762 250.8301 302.6648 C 253.1265 303.005 255.0093 305.4107 254.0183 307.4177 C 252.8127 309.8566 249.0269 311.2351 246.2216 312.6753 C 243.1468 314.075 239.4927 316.4253 236.6329 315.794 C 234.2025 315.258 232.9278 312.3529 234.1214 310.289 Z " stroke-width="0.54163" fill="#353935" stroke="none"/><path d="M 236.9621 317.1545 C 238.3149 314.6764 242.3809 313.6929 245.2066 312.4319 C 247.9431 311.2247 251.0406 309.1416 253.6708 309.5303 C 255.9672 309.8705 257.85 312.2762 256.859 314.2832 C 255.6534 316.7221 251.8676 318.1006 249.0622 319.5407 C 245.9874 320.9405 242.3334 323.2908 239.4735 322.6595 C 237.0432 322.1235 235.7684 319.2184 236.9621 317.1545 Z " stroke-width="0.54163" fill="#353935" stroke="none"/><path d="M 239.9974 324.3956 C 241.3502 321.9175 245.4162 320.934 248.242 319.673 C 250.9784 318.4658 254.0759 316.3827 256.7061 316.7714 C 259.0025 317.1116 260.8854 319.5173 259.8944 321.5244 C 258.6887 323.9632 254.903 325.3417 252.0976 326.7818 C 249.0228 328.1816 245.3687 330.5319 242.5089 329.9006 C 240.0786 329.3646 238.8038 326.4595 239.9975 324.3956 Z " stroke-width="0.54163" fill="#353935" stroke="none"/><path d="M 244.0237 331.481 C 245.3765 329.0029 249.4426 328.0193 252.2683 326.7583 C 255.0047 325.5511 258.1023 323.4681 260.7325 323.8567 C 263.0288 324.197 264.9117 326.6026 263.9207 328.6097 C 262.7151 331.0486 258.9293 332.4271 256.1239 333.8672 C 253.0492 335.267 249.3951 337.6172 246.5352 336.986 C 244.1049 336.45 242.8302 333.5449 244.0238 331.481 Z " stroke-width="0.54163" fill="#353935" stroke="none"/></g><path d="" fill="#eac18d" stroke="none" stroke-width="1.20619" stroke-linecap="butt" transform="matrix(1,0,0,1,-126.97196,181.07223)"/></g><path d="M 149.1739 263.3567 C 152.468 259.3161 162.4789 261.3791 164.4765 266.6056 C 168.6927 277.8129 163.1426 290.6915 163.256 302.4947 C 162.8859 316.0782 170.5719 331.3385 163.6347 342.8277 C 159.4237 349.7769 143.3397 348.1532 138.3441 340.9947 C 131.3179 330.716 134.4501 315.9161 136.0808 302.8518 C 137.8068 289.1058 140.3556 274.0358 149.1739 263.3565 Z " data-paper-data="{&quot;origRot&quot;:0}" fill="#000000" stroke="#000000" stroke-width="1.5" stroke-linecap="round"/><path d="M 153.0006 352.5166 C 146.5389 351.7266 137.4865 348.066 135.2577 341.3459 C 134.0353 335.8998 140.4328 329.2468 145.899 327.4778 C 156.5465 324.0401 168.3779 329.7437 179.5101 328.0634 C 191.0029 326.9447 201.4612 318.7518 213.0977 319.1632 C 218.7084 319.3728 223.0959 325.6888 225.2296 330.8872 C 226.8984 334.9638 227.2032 342.0693 223.5698 345.1764 C 218.7006 349.3391 211.1547 349.6611 204.6676 350.185 C 187.6491 351.5668 170.0955 354.5937 153.0007 352.5165 Z " data-paper-data="{&quot;origRot&quot;:0}" fill="#ffffff" stroke="none" stroke-width="1.00573" stroke-linecap="round"/><path d="M 147.7502 264.6201 C 150.8807 260.3776 161.89 257.9922 163.4951 262.8884 C 167.1088 273.9362 158.7412 285.795 158.837 297.5863 C 158.4255 311.7161 168.2306 327.1452 162.552 340.2009 C 159.4626 347.2884 143.2808 347.9143 139.4426 341.0194 C 131.8459 328.8428 135.5859 312.5359 137.1504 297.8316 C 138.3842 286.2898 140.933 273.8613 147.7503 264.62 Z " data-paper-data="{&quot;origRot&quot;:0}" fill="#ffffff" stroke="none" stroke-width="1.00573" stroke-linecap="round"/><g data-paper-data="{&quot;origRot&quot;:0}"><path d="M217.17919,222.36972c0,0 -0.5552,-33.866 -3.81229,-55.21527c-2.24874,-14.73982 -14.12879,-53.80509 -3.31781,-84.69239c10.81102,-30.88728 73.04847,-21.50804 80.10986,-5.08096c7.06139,16.42711 1.04006,72.36916 0.82827,84.81923c-0.37471,22.033 0.87569,56.36325 0.87569,56.36325z" data-paper-data="{&quot;origPos&quot;:null}" fill="#000000" stroke="none" stroke-width="0" stroke-linecap="butt" transform="matrix(1,0,0,1,-126.97196,181.07223)"/><path d="M 80.6901 274.4292 C 82.0458 265.4791 84.4177 255.2181 92.1635 256.2849 C 99.9093 257.3518 110.8101 262.101 116.0703 267.8172 C 119.3368 271.3797 122.7412 298.3359 117.5985 303.6807 C 113.0289 308.7536 84.5192 310.9434 82.4086 306.6721 C 77.8439 297.3833 78.985 285.6865 80.6901 274.4292 Z " data-paper-data="{&quot;origPos&quot;:null,&quot;index&quot;:null}" fill="#ffffff" stroke="#000000" stroke-width="2" stroke-linecap="round"/><path d="M 167.2555 303.2039 C 165.59 307.6676 137.0055 308.3876 131.9438 303.8054 C 126.2843 299.0111 126.9307 271.8485 129.8182 267.9724 C 134.47 261.7511 144.8315 255.9183 152.4287 254.0695 C 160.0259 252.2207 163.4287 262.1874 165.6872 270.9534 C 168.528 281.979 170.8522 293.4991 167.2555 303.2039 Z " data-paper-data="{&quot;origPos&quot;:null}" fill="#ffffff" stroke="#000000" stroke-width="2" stroke-linecap="round"/><path d="M 162.6353 314.136 C 167.2534 320.418 164.9164 329.7471 164.4279 337.5562 C 163.8432 342.5999 163.4082 348.8728 159.4751 352.0354 C 155.6782 355.1102 132.2213 354.7721 127.9708 350.9453 C 124.3456 347.7486 123.6724 320.7281 128.2579 315.4386 C 132.049 310.7827 159.3079 309.6152 162.6353 314.1359 Z " data-paper-data="{&quot;origPos&quot;:null}" fill="#ffffff" stroke="#000000" stroke-width="2" stroke-linecap="round"/><path d="M 119.6211 315.5581 C 123.1305 320.42 124.8012 346.6798 121.1493 351.4215 C 118.2576 355.0971 93.8101 355.3637 89.2578 351.5492 C 84.0548 347.1899 83.8603 338.8495 82.7264 332.1144 C 82.0406 326.0033 78.892 317.1725 83.8813 313.6356 C 90.3971 309.0205 117.3474 312.3763 119.6211 315.5581 Z " data-paper-data="{&quot;origPos&quot;:null}" fill="#ffffff" stroke="#000000" stroke-width="2" stroke-linecap="round"/><path d="M 156.3331 402.749 L 91.9487 403.9336 L 90.0164 362.1005 L 157.5722 360.4548 Z " data-paper-data="{&quot;origPos&quot;:null}" fill="url(#color-8-,0,0,1,-126.97196,181.07223)" stroke="#000000" stroke-width="2" stroke-linecap="round"/><g><path d="M 145.0445 266.2935 L 149.994 266.2714 L 149.6911 273.8854 L 156.9372 273.7464 L 157.1596 278.1101 L 149.7812 277.9104 L 150.934 300.5321 L 146.3289 300.5368 L 145.5205 277.8972 L 138.2978 278.4957 L 138.1046 274.7062 L 145.6953 274.5497 Z " stroke-width="0.15376" stroke-linecap="round" fill="#000000" stroke="none"/><g stroke-linecap="butt"><path d="M 158.7635 299.6801 C 158.78 300.0054 158.6789 300.1556 158.4621 300.1666 C 156.875 300.32 155.2864 300.4372 153.6993 300.5905 C 153.5908 300.596 153.5185 300.5997 153.4462 300.6035 C 153.4315 300.3143 153.3843 300.0993 153.3714 299.8462 C 153.3659 299.7378 153.4669 299.5877 153.5753 299.5821 C 153.8247 299.497 154.0759 299.4479 154.3614 299.3609 C 154.8257 299.2282 154.8925 299.116 154.8686 298.6461 C 154.817 297.634 154.8359 296.5818 154.7481 295.5715 C 154.6346 294.0549 154.4469 292.5058 154.3334 290.9892 C 154.2892 290.1217 154.3191 289.2863 154.2749 288.4188 C 154.2436 287.804 154.2104 287.1533 154.1411 286.5045 C 154.0456 286.7631 153.9449 287.0213 153.8183 287.282 C 153.3131 288.3585 152.7491 289.2228 152.1896 290.1741 C 151.7335 290.9575 151.1232 291.4942 150.6804 292.2083 C 150.2892 292.8437 149.9218 293.4726 149.469 294.0462 C 149.1393 294.4583 149.0125 295.5251 148.569 295.2338 C 146.6233 293.8087 145.7333 292.0031 144.2639 290.4151 C 143.3962 289.4562 142.4071 288.5324 141.5461 287.5812 C 141.3309 287.3442 141.3904 287.3717 141.3488 287.2651 L 141.2765 287.2688 C 141.3133 287.9918 141.3502 288.715 141.387 289.438 C 141.5116 291.1715 141.638 292.9411 141.7264 294.6765 C 141.7928 295.9778 141.7886 297.3192 141.8188 298.6227 C 141.8354 298.948 141.8881 299.2715 141.9409 299.5949 C 141.9899 299.8461 142.2142 299.9799 142.469 300.0032 C 142.6516 300.0302 142.7962 300.0228 142.9769 300.0136 C 143.23 300.0007 143.2735 300.1434 143.2465 300.326 C 143.2214 300.5448 143.2306 300.7255 143.2417 300.9424 C 143.2509 301.1231 143.1424 301.1286 142.9979 301.136 C 142.3852 301.2035 141.7722 301.2709 141.1939 301.3004 C 140.5451 301.3697 139.9303 301.4011 139.2815 301.4704 C 139.0646 301.4814 138.9543 301.4508 138.9776 301.1959 C 139.0027 300.9772 138.9555 300.7622 138.9463 300.5815 C 138.9352 300.3646 139.04 300.2868 139.255 300.2396 C 139.5424 300.1887 139.8296 300.1378 140.0775 300.0161 C 140.1479 299.9763 140.249 299.8262 140.2453 299.7539 C 140.239 298.9207 140.1949 298.0529 140.1887 297.2197 C 140.1787 296.3141 140.205 295.4065 140.1932 294.4648 C 140.1803 294.2115 140.1656 293.9223 140.1165 293.6711 C 139.9639 292.8091 139.954 291.9033 139.906 290.9634 C 139.836 289.5896 139.7317 288.2537 139.6617 286.8801 C 139.6377 286.4099 139.612 285.9039 139.5518 285.4358 C 139.463 285.1142 139.2387 284.9806 138.9131 284.9972 C 138.877 284.9991 138.8408 285.0009 138.8408 285.0009 C 138.1883 284.9979 138.0706 284.8224 138.184 284.2005 C 138.1803 284.1282 138.3193 284.0125 138.3916 284.0087 C 138.6808 283.994 138.97 283.9793 139.2594 283.9645 C 140.1288 283.9564 140.9948 283.8761 141.8261 283.8337 C 142.2961 283.8098 142.36 284.0769 142.5749 284.3029 C 143.5764 285.3071 144.1441 286.2692 144.9207 287.3007 C 145.9606 288.5125 146.9277 289.8048 148.029 291.0387 C 148.3047 291.3475 148.0799 291.3332 148.3543 291.0221 C 149.6578 289.5782 150.8963 288.0553 152.008 286.6134 C 152.6057 285.8414 152.9576 284.888 153.5856 284.1405 C 153.8629 283.8103 154.0168 283.3574 154.5954 283.328 C 155.6094 283.3125 156.6561 283.223 157.6701 283.2075 C 157.887 283.1965 157.9648 283.3012 157.9758 283.5181 C 158.0035 284.0606 158.0035 284.0606 157.427 284.1263 C 156.8486 284.1557 156.6605 284.02 156.7047 284.8879 C 156.7415 285.6108 156.7766 286.2979 156.8495 287.019 C 156.8625 287.2721 156.9115 287.5232 156.9244 287.7763 C 156.987 289.0055 157.0478 290.1987 157.1104 291.4277 C 157.1896 292.9823 157.2309 294.5027 157.3101 296.0573 C 157.3543 296.9248 157.3624 297.7944 157.3723 298.7 C 157.3963 299.1702 157.5139 299.3454 157.9857 299.3576 C 158.1303 299.3502 158.2786 299.4151 158.4213 299.3716 C 158.7429 299.2828 158.754 299.4996 158.7632 299.6803 Z " stroke-width="0.12102" fill="#000000" stroke="none"/></g></g><g><g><path d="M 97.8687 465.9008 C 97.8687 465.9008 98.1834 466.3523 98.2207 466.2186 C 98.3254 465.8413 98.2121 465.3217 98.1524 464.8794 C 98.1216 464.6512 98.0002 464.443 97.951 464.2181 C 97.8543 463.7786 97.8388 463.3202 97.7152 462.8875 C 97.6327 462.5984 97.4735 462.3355 97.3376 462.0675 C 97.2251 461.845 97.0595 461.6474 96.9689 461.4148 C 96.8012 460.986 96.5892 460.5524 96.5658 460.0926 C 96.5059 458.9168 96.6875 457.737 96.7215 456.56 C 96.7299 456.2658 96.6585 456.1116 96.6874 455.8903 C 96.7396 455.4872 96.91 455.1044 96.9622 454.7013 C 96.9911 454.48 96.9295 454.2834 96.9281 454.0319 C 96.9226 453.0252 96.9421 451.0097 96.9421 451.0097 " fill="none" stroke="#7f7f7f" stroke-width="0.89665" stroke-linecap="round"/><path d="M 95.2451 445.9427 C 93.9339 445.2445 93.6573 440.2436 92.0659 437.8106 C 91.2284 436.528 88.9663 436.5935 88.2486 435.2404 C 86.4725 431.8916 85.861 428.0244 84.9288 424.3504 C 84.3221 421.9559 84.5338 419.3445 83.6349 417.0439 C 83.0775 415.6161 81.2475 414.9351 80.6902 413.5076 C 79.7912 411.2071 79.0787 408.652 79.3962 406.2008 C 79.5626 404.9113 81.1409 404.2687 82.0129 403.3027 C 82.8853 402.3366 83.9284 401.5002 84.63 400.4045 C 85.3694 399.2499 85.2743 397.5647 86.2811 396.6343 C 87.2088 395.7778 88.6501 395.592 89.9111 395.5277 C 91.1724 395.4635 92.6249 395.5018 93.6348 396.2596 C 94.731 397.0828 94.9861 398.6494 95.6606 399.8424 C 96.3351 401.0358 97.366 402.0929 97.6864 403.4256 C 98.5495 407.0147 98.9799 410.7232 99.1678 414.4092 C 99.2935 416.8762 98.9056 419.3549 98.6233 421.8094 C 98.4788 423.0649 97.9062 424.2699 97.8914 425.5331 C 97.8486 429.2106 98.7237 432.8949 98.4536 436.5636 C 98.3537 437.9309 97.2471 439.0377 96.8025 440.3342 C 96.1754 442.1686 96.1925 446.4477 95.2452 445.9428 Z " fill="none" stroke="#7f7f7f" stroke-width="0.61539" stroke-linecap="round"/><path d="M 83.7135 401.6778 C 84.0397 401.9717 84.2533 402.39 84.2774 402.8626 C 84.3015 403.3355 84.1315 403.7731 83.8369 404.099 C 83.5429 404.4249 83.1249 404.6385 82.652 404.6626 C 82.1794 404.6867 81.7415 404.5167 81.416 404.2224 C 81.0898 403.9281 80.8762 403.5101 80.8521 403.0372 C 80.828 402.5646 80.998 402.1267 81.2926 401.8011 C 81.5865 401.475 82.0048 401.2614 82.4775 401.2373 C 82.9503 401.2132 83.3879 401.3832 83.7136 401.6778 Z " fill="url(#color-9-,0,0,1,-126.97196,181.07223)" stroke="none" stroke-width="0.13489" stroke-linecap="butt"/><path d="M 80.8479 404.2198 C 81.1741 404.5138 81.3877 404.9321 81.4118 405.4047 C 81.4359 405.8776 81.2659 406.3152 80.9713 406.6411 C 80.6773 406.967 80.2593 407.1806 79.7864 407.2047 C 79.3138 407.2287 78.8759 407.0588 78.5504 406.7645 C 78.2242 406.4702 78.0106 406.0522 77.9865 405.5793 C 77.9624 405.1067 78.1324 404.6688 78.427 404.3432 C 78.7209 404.017 79.1392 403.8034 79.6119 403.7794 C 80.0847 403.7552 80.5223 403.9252 80.848 404.2198 Z " fill="url(#color-10-,0,0,1,-126.97196,181.07223)" stroke="none" stroke-width="0.13489" stroke-linecap="butt"/><path d="M 80.3067 408.2908 C 80.6328 408.5847 80.8464 409.0031 80.8705 409.4757 C 80.8946 409.9485 80.7246 410.3861 80.43 410.712 C 80.136 411.0379 79.718 411.2515 79.2451 411.2756 C 78.7725 411.2997 78.3346 411.1297 78.0091 410.8354 C 77.6829 410.5412 77.4693 410.1231 77.4452 409.6502 C 77.4211 409.1776 77.5911 408.7398 77.8857 408.4141 C 78.1796 408.088 78.598 407.8744 79.0706 407.8503 C 79.5434 407.8262 79.981 407.9962 80.3067 408.2908 Z " fill="url(#color-11-,0,0,1,-126.97196,181.07223)" stroke="none" stroke-width="0.13489" stroke-linecap="butt"/><path d="M 81.8338 411.8071 C 82.1599 412.101 82.3735 412.5194 82.3976 412.992 C 82.4217 413.4649 82.2517 413.9025 81.9571 414.2283 C 81.6631 414.5542 81.2451 414.7678 80.7722 414.7919 C 80.2996 414.816 79.8617 414.646 79.5362 414.3517 C 79.21 414.0575 78.9964 413.6395 78.9723 413.1666 C 78.9482 412.694 79.1182 412.2561 79.4128 411.9305 C 79.7067 411.6043 80.1251 411.3907 80.5977 411.3666 C 81.0705 411.3425 81.5081 411.5125 81.8338 411.8071 Z " fill="url(#color-12-,0,0,1,-126.97196,181.07223)" stroke="none" stroke-width="0.13489" stroke-linecap="butt"/><path d="M 84.391 414.9714 C 84.7172 415.2654 84.9308 415.6837 84.9548 416.1563 C 84.979 416.6292 84.809 417.0668 84.5144 417.3927 C 84.2204 417.7185 83.8024 417.9321 83.3294 417.9562 C 82.8568 417.9803 82.419 417.8104 82.0934 417.516 C 81.7672 417.2218 81.5536 416.8038 81.5295 416.3309 C 81.5055 415.8583 81.6754 415.4204 81.97 415.0948 C 82.264 414.7686 82.6823 414.555 83.1549 414.5309 C 83.6278 414.5068 84.0654 414.6768 84.391 414.9714 Z " fill="url(#color-13-,0,0,1,-126.97196,181.07223)" stroke="none" stroke-width="0.13489" stroke-linecap="butt"/><path d="M 85.3586 419.265 C 85.6847 419.559 85.8983 419.9773 85.9224 420.4499 C 85.9465 420.9228 85.7766 421.3604 85.4819 421.6863 C 85.188 422.0121 84.7699 422.2257 84.297 422.2498 C 83.8244 422.2739 83.3865 422.104 83.061 421.8097 C 82.7348 421.5154 82.5212 421.0974 82.4971 420.6245 C 82.473 420.1519 82.643 419.714 82.9376 419.3884 C 83.2315 419.0622 83.6499 418.8486 84.1225 418.8245 C 84.5954 418.8004 85.033 418.9704 85.3586 419.265 Z " fill="url(#color-14-,0,0,1,-126.97196,181.07223)" stroke="none" stroke-width="0.13489" stroke-linecap="butt"/><path d="M 86.2957 422.9612 C 86.6219 423.2551 86.8355 423.6734 86.8596 424.146 C 86.8837 424.6189 86.7137 425.0565 86.4191 425.3824 C 86.1251 425.7083 85.7071 425.9219 85.2342 425.946 C 84.7616 425.9701 84.3237 425.8001 83.9981 425.5058 C 83.6719 425.2115 83.4584 424.7935 83.4343 424.3206 C 83.4102 423.848 83.5801 423.4101 83.8747 423.0845 C 84.1687 422.7584 84.587 422.5448 85.0596 422.5207 C 85.5325 422.4966 85.9701 422.6665 86.2957 422.9612 Z " fill="url(#color-15-,0,0,1,-126.97196,181.07223)" stroke="none" stroke-width="0.13489" stroke-linecap="butt"/><path d="M 87.2557 427.1054 C 87.5819 427.3993 87.7955 427.8177 87.8196 428.2903 C 87.8437 428.7632 87.6737 429.2008 87.3791 429.5267 C 87.0851 429.8525 86.6671 430.0661 86.1942 430.0902 C 85.7216 430.1143 85.2837 429.9444 84.9581 429.65 C 84.6319 429.3558 84.4184 428.9378 84.3943 428.4649 C 84.3702 427.9923 84.5401 427.5544 84.8347 427.2288 C 85.1287 426.9026 85.547 426.689 86.0196 426.6649 C 86.4925 426.6408 86.9301 426.8108 87.2557 427.1054 Z " fill="url(#color-16-,0,0,1,-126.97196,181.07223)" stroke="none" stroke-width="0.13489" stroke-linecap="butt"/><path d="M 88.1928 430.8015 C 88.519 431.0955 88.7326 431.5138 88.7567 431.9864 C 88.7808 432.4593 88.6108 432.8969 88.3162 433.2228 C 88.0222 433.5486 87.6042 433.7622 87.1313 433.7863 C 86.6587 433.8104 86.2208 433.6405 85.8953 433.3462 C 85.5691 433.0519 85.3555 432.6339 85.3314 432.161 C 85.3073 431.6884 85.4773 431.2505 85.7719 430.9249 C 86.0658 430.5987 86.4841 430.3851 86.9568 430.361 C 87.4296 430.3369 87.8672 430.5069 88.1929 430.8015 Z " fill="url(#color-17-,0,0,1,-126.97196,181.07223)" stroke="none" stroke-width="0.13489" stroke-linecap="butt"/><path d="M 90.4668 434.2798 C 90.793 434.5738 91.0066 434.9921 91.0307 435.4647 C 91.0548 435.9376 90.8848 436.3752 90.5902 436.7011 C 90.2962 437.0269 89.8782 437.2405 89.4053 437.2646 C 88.9327 437.2887 88.4948 437.1188 88.1692 436.8245 C 87.843 436.5302 87.6295 436.1122 87.6053 435.6393 C 87.5813 435.1667 87.7512 434.7288 88.0458 434.4032 C 88.3398 434.077 88.7581 433.8634 89.2307 433.8393 C 89.7036 433.8152 90.1412 433.9852 90.4668 434.2798 Z " fill="url(#color-18-,0,0,1,-126.97196,181.07223)" stroke="none" stroke-width="0.13489" stroke-linecap="butt"/><g stroke-linecap="butt"><path d="M 92.8755 437.0865 C 93.287 437.2398 93.6398 437.5498 93.8364 437.9807 C 94.033 438.4112 94.0362 438.8807 93.8822 439.292 C 93.7289 439.7035 93.4189 440.056 92.9883 440.2526 C 92.5577 440.4491 92.0883 440.4524 91.677 440.2987 C 91.2655 440.1454 90.9127 439.8354 90.7161 439.4048 C 90.5195 438.9743 90.5163 438.5045 90.6702 438.0932 C 90.8236 437.6817 91.1336 437.3292 91.5642 437.1326 C 91.9947 436.936 92.4642 436.9328 92.8755 437.0865 Z " fill="url(#color-19-,0,0,1,-126.97196,181.07223)" stroke-width="0.13489" stroke="none"/><path d="M 94.395 440.4534 C 94.8065 440.6068 95.1593 440.9168 95.3559 441.3476 C 95.5524 441.7782 95.5557 442.2477 95.4017 442.659 C 95.2484 443.0705 94.9384 443.423 94.5078 443.6195 C 94.0772 443.8161 93.6077 443.8194 93.1965 443.6657 C 92.7849 443.5124 92.4322 443.2023 92.2356 442.7718 C 92.039 442.3413 92.0358 441.8715 92.1897 441.4602 C 92.3431 441.0486 92.6531 440.6962 93.0837 440.4996 C 93.5142 440.303 93.9837 440.2998 94.3949 440.4534 Z " fill="url(#color-20-,0,0,1,-126.97196,181.07223)" stroke-width="0.13489" stroke="none"/></g><path d="M 88.5875 394.9201 C 89.1391 395.4173 89.5005 396.1246 89.5412 396.924 C 89.5819 397.7234 89.2944 398.4638 88.7962 399.0145 C 88.299 399.5661 87.5917 399.9275 86.7923 399.9682 C 85.9929 400.0089 85.2528 399.7214 84.7017 399.2233 C 84.1504 398.726 83.7891 398.0187 83.7484 397.2193 C 83.7077 396.4199 83.9952 395.6795 84.4931 395.1288 C 84.9906 394.5775 85.6976 394.2162 86.497 394.1754 C 87.2964 394.1347 88.0368 394.4222 88.5876 394.9201 Z " fill="url(#color-21-,0,0,1,-126.97196,181.07223)" stroke="none" stroke-width="0.22813" stroke-linecap="butt"/><path d="M 96.6676 397.2737 C 96.9937 397.5676 97.2073 397.986 97.2314 398.4586 C 97.2555 398.9314 97.0855 399.369 96.7909 399.6949 C 96.4969 400.0208 96.0789 400.2344 95.606 400.2585 C 95.1334 400.2826 94.6955 400.1126 94.37 399.8183 C 94.0438 399.5241 93.8302 399.106 93.8061 398.6331 C 93.782 398.1605 93.952 397.7227 94.2466 397.397 C 94.5405 397.0709 94.9588 396.8573 95.4315 396.8332 C 95.9043 396.8091 96.3419 396.9791 96.6676 397.2737 Z " fill="url(#color-22-,0,0,1,-126.97196,181.07223)" stroke="none" stroke-width="0.13489" stroke-linecap="butt"/><path d="M 98.6655 401.2152 C 98.9917 401.5091 99.2053 401.9275 99.2294 402.4001 C 99.2535 402.873 99.0835 403.3105 98.7889 403.6364 C 98.4949 403.9623 98.0769 404.1759 97.6039 404.2 C 97.1313 404.2241 96.6935 404.0541 96.3679 403.7598 C 96.0417 403.4656 95.8281 403.0476 95.804 402.5746 C 95.78 402.1021 95.9499 401.6642 96.2445 401.3385 C 96.5385 401.0124 96.9568 400.7988 97.4294 400.7747 C 97.9023 400.7506 98.3399 400.9206 98.6655 401.2152 Z " fill="url(#color-23-,0,0,1,-126.97196,181.07223)" stroke="none" stroke-width="0.13489" stroke-linecap="butt"/><path d="M 99.6407 405.6581 C 99.9669 405.9521 100.1805 406.3704 100.2046 406.843 C 100.2287 407.3159 100.0587 407.7535 99.7641 408.0794 C 99.4701 408.4053 99.0521 408.6189 98.5791 408.643 C 98.1065 408.667 97.6687 408.4971 97.3431 408.2028 C 97.0169 407.9085 96.8033 407.4905 96.7792 407.0176 C 96.7552 406.545 96.9251 406.1071 97.2197 405.7815 C 97.5137 405.4553 97.932 405.2417 98.4046 405.2177 C 98.8775 405.1935 99.3151 405.3635 99.6407 405.6581 Z " fill="url(#color-24-,0,0,1,-126.97196,181.07223)" stroke="none" stroke-width="0.13489" stroke-linecap="butt"/><path d="M 99.8919 410.5874 C 100.2181 410.8813 100.4317 411.2997 100.4558 411.7723 C 100.4799 412.2452 100.3099 412.6828 100.0153 413.0086 C 99.7213 413.3345 99.3033 413.5481 98.8303 413.5722 C 98.3578 413.5963 97.9199 413.4263 97.5943 413.132 C 97.2681 412.8378 97.0546 412.4198 97.0304 411.9469 C 97.0064 411.4743 97.1763 411.0364 97.4709 410.7108 C 97.7649 410.3846 98.1832 410.171 98.6558 410.1469 C 99.1287 410.1228 99.5663 410.2928 99.8919 410.5874 Z " fill="url(#color-25-,0,0,1,-126.97196,181.07223)" stroke="none" stroke-width="0.13489" stroke-linecap="butt"/><path d="M 100.2772 415.2101 C 100.6033 415.5041 100.8169 415.9224 100.841 416.395 C 100.8651 416.8679 100.6952 417.3055 100.4005 417.6314 C 100.1066 417.9573 99.6885 418.1709 99.2156 418.195 C 98.743 418.219 98.3051 418.0491 97.9796 417.7548 C 97.6534 417.4605 97.4398 417.0425 97.4157 416.5696 C 97.3916 416.097 97.5616 415.6591 97.8562 415.3335 C 98.1501 415.0073 98.5685 414.7937 99.0411 414.7696 C 99.514 414.7455 99.9516 414.9155 100.2772 415.2101 Z " fill="url(#color-26-,0,0,1,-126.97196,181.07223)" stroke="none" stroke-width="0.13489" stroke-linecap="butt"/><path d="M 100.2222 420.0051 C 100.5484 420.299 100.762 420.7174 100.7861 421.19 C 100.8102 421.6629 100.6402 422.1005 100.3456 422.4264 C 100.0516 422.7522 99.6336 422.9658 99.1607 422.9899 C 98.6881 423.014 98.2502 422.8441 97.9246 422.5498 C 97.5984 422.2555 97.3849 421.8375 97.3608 421.3646 C 97.3367 420.892 97.5066 420.4541 97.8012 420.1285 C 98.0952 419.8023 98.5135 419.5887 98.9861 419.5646 C 99.459 419.5405 99.8966 419.7105 100.2222 420.0051 Z " fill="url(#color-27-,0,0,1,-126.97196,181.07223)" stroke="none" stroke-width="0.13489" stroke-linecap="butt"/><path d="M 99.8606 424.6659 C 100.1867 424.9599 100.4004 425.3782 100.4244 425.8508 C 100.4486 426.3237 100.2786 426.7613 99.9839 427.0872 C 99.69 427.413 99.272 427.6266 98.799 427.6508 C 98.3264 427.6748 97.8886 427.5049 97.563 427.2106 C 97.2368 426.9163 97.0232 426.4983 96.9991 426.0254 C 96.975 425.5528 97.145 425.1149 97.4396 424.7893 C 97.7335 424.4631 98.1519 424.2495 98.6245 424.2254 C 99.0974 424.2013 99.535 424.3713 99.8606 424.6659 Z " fill="url(#color-28-,0,0,1,-126.97196,181.07223)" stroke="none" stroke-width="0.13489" stroke-linecap="butt"/><path d="M 99.7826 429.0128 C 100.1088 429.3068 100.3224 429.7251 100.3465 430.1977 C 100.3706 430.6706 100.2006 431.1082 99.906 431.4341 C 99.612 431.76 99.194 431.9735 98.721 431.9977 C 98.2485 432.0217 97.8106 431.8518 97.485 431.5575 C 97.1588 431.2632 96.9453 430.8452 96.9211 430.3723 C 96.8971 429.8997 97.067 429.4618 97.3616 429.1362 C 97.6556 428.81 98.0739 428.5964 98.5465 428.5723 C 99.0194 428.5482 99.457 428.7182 99.7826 429.0128 Z " fill="url(#color-29-,0,0,1,-126.97196,181.07223)" stroke="none" stroke-width="0.13489" stroke-linecap="butt"/><path d="M 99.5781 433.8155 C 99.9043 434.1094 100.1179 434.5278 100.142 435.0004 C 100.1661 435.4733 99.9961 435.9108 99.7015 436.2367 C 99.4075 436.5626 98.9895 436.7762 98.5165 436.8003 C 98.0439 436.8244 97.6061 436.6544 97.2805 436.3601 C 96.9543 436.0659 96.7407 435.6478 96.7166 435.1749 C 96.6926 434.7023 96.8625 434.2645 97.1571 433.9388 C 97.4511 433.6127 97.8694 433.3991 98.342 433.375 C 98.8149 433.3509 99.2525 433.5209 99.5781 433.8155 Z " fill="url(#color-30-,0,0,1,-126.97196,181.07223)" stroke="none" stroke-width="0.13489" stroke-linecap="butt"/><path d="M 98.4773 438.6637 C 98.8034 438.9576 99.0171 439.3759 99.0411 439.8486 C 99.0653 440.3214 98.8953 440.759 98.6007 441.0849 C 98.3067 441.4108 97.8887 441.6244 97.4157 441.6485 C 96.9431 441.6726 96.5053 441.5026 96.1797 441.2083 C 95.8535 440.9141 95.6399 440.496 95.6158 440.0231 C 95.5917 439.5505 95.7617 439.1127 96.0563 438.787 C 96.3502 438.4609 96.7686 438.2473 97.2412 438.2232 C 97.7141 438.1991 98.1517 438.3691 98.4773 438.6637 Z " fill="url(#color-31-,0,0,1,-126.97196,181.07223)" stroke="none" stroke-width="0.13489" stroke-linecap="butt"/><path d="M 98.6031 445.0785 C 99.2974 445.8788 99.7594 447.0089 99.8241 448.2791 C 99.8889 449.5496 99.5443 450.7209 98.9349 451.5876 C 98.3258 452.454 97.4526 453.0158 96.4593 453.0664 C 95.4663 453.117 94.5402 452.647 93.8462 451.8469 C 93.1522 451.0467 92.6903 449.9165 92.6255 448.646 C 92.5608 447.3757 92.9055 446.2045 93.5145 445.3378 C 94.1236 444.4712 94.9971 443.9094 95.9901 443.8588 C 96.9834 443.8082 97.9092 444.2782 98.6032 445.0785 Z " fill="#b2b2b2" stroke="none" stroke-width="0.11208" stroke-linecap="butt"/><path d="M 97.2978 453.3342 C 97.7093 453.4875 98.0621 453.7976 98.2586 454.2284 C 98.4552 454.659 98.4585 455.1284 98.3045 455.5397 C 98.1512 455.9513 97.8411 456.3037 97.4106 456.5003 C 96.98 456.6969 96.5105 456.7001 96.0993 456.5465 C 95.6877 456.3931 95.335 456.0831 95.1384 455.6526 C 94.9418 455.222 94.9385 454.7522 95.0925 454.341 C 95.2458 453.9294 95.5559 453.577 95.9864 453.3804 C 96.417 453.1838 96.8865 453.1806 97.2977 453.3342 Z " fill="url(#color-32-,0,0,1,-126.97196,181.07223)" stroke="none" stroke-width="0.13489" stroke-linecap="butt"/><path d="M 96.9133 457.547 C 97.3249 457.7003 97.6776 458.0103 97.8742 458.4412 C 98.0708 458.8717 98.074 459.3412 97.9201 459.7525 C 97.7667 460.164 97.4567 460.5165 97.0261 460.7131 C 96.5956 460.9097 96.1261 460.9129 95.7148 460.7592 C 95.3033 460.6059 94.9505 460.2959 94.754 459.8653 C 94.5574 459.4348 94.5541 458.965 94.7081 458.5537 C 94.8614 458.1422 95.1714 457.7897 95.602 457.5931 C 96.0326 457.3965 96.502 457.3933 96.9133 457.547 Z " fill="url(#color-33-,0,0,1,-126.97196,181.07223)" stroke="none" stroke-width="0.13489" stroke-linecap="butt"/><path d="M 98.7535 461.712 C 99.0796 462.0059 99.2932 462.4243 99.3173 462.8969 C 99.3414 463.3698 99.1714 463.8074 98.8768 464.1333 C 98.5829 464.4591 98.1648 464.6727 97.6919 464.6968 C 97.2193 464.7209 96.7814 464.551 96.4559 464.2566 C 96.1297 463.9624 95.9161 463.5444 95.892 463.0715 C 95.8679 462.5989 96.0379 462.161 96.3325 461.8354 C 96.6264 461.5092 97.0448 461.2956 97.5174 461.2715 C 97.9903 461.2474 98.4279 461.4174 98.7535 461.712 Z " fill="url(#color-34-,0,0,1,-126.97196,181.07223)" stroke="none" stroke-width="0.13489" stroke-linecap="butt"/><path d="M 100.5162 468.4516 L 103.6801 467.9546 L 103.6919 471.4789 L 100.8629 471.9588 L 100.8641 481.8618 L 97.0135 482.058 L 96.0249 472.5408 L 91.9984 472.5783 L 91.9868 469.0539 L 95.8372 468.8577 L 95.6666 465.5094 L 100.1868 465.2791 Z " fill="#b2b2b2" stroke="none" stroke-width="0.11208" stroke-linecap="round"/><path d="M 97.6957 467.6726 L 98.9883 479.8598 " fill="none" stroke="#7f7f7f" stroke-width="0.22417" stroke-linecap="round"/><path d="M 94.8103 470.3373 L 100.6783 470.2063 " fill="none" stroke="#7f7f7f" stroke-width="0.22417" stroke-linecap="round"/></g><path d="M 162.9603 410.3483 L 89.9014 410.7769 L 88.9708 398.3946 L 159.9966 396.2725 Z " fill="#000000" stroke="none" stroke-width="1" stroke-linecap="round"/><g><g><g><path d="M 172.1903 403.4315 L 177.9957 396.8959 L 178.2915 434.9942 L 169.5006 429.5751 L 165.9109 402.4936 Z " fill="#363a37" stroke="none" stroke-width="1.16316" stroke-linecap="round"/><path d="M 169.4143 383.3173 L 169.6789 398.9898 L 148.694 394.1187 L 147.8453 367.0901 Z " fill="#000000" stroke="none" stroke-width="0.87338" stroke-linecap="round"/><path d="M 176.4863 412.8239 L 177.0225 444.5609 L 172.5193 444.637 L 171.9828 412.9 Z " fill="url(#color-35-,0,0,1,-126.97196,181.07223)" stroke="url(#color-36-,0,0,1,-126.97196,181.07223)" stroke-width="0.20059" stroke-linecap="round"/><path d="M 187.2052 392.5288 C 187.2218 393.5188 187.0183 394.4211 186.6747 395.0775 C 186.331 395.7338 185.847 396.1442 185.3068 396.1535 C 184.7663 396.1625 184.2688 395.7686 183.9033 395.1243 C 183.5373 394.4799 183.3036 393.5849 183.287 392.5949 C 183.2701 391.605 183.4736 390.7027 183.8173 390.0463 C 184.1609 389.3899 184.645 388.9792 185.1854 388.9702 C 185.7256 388.961 186.223 389.3549 186.589 389.9994 C 186.9546 390.6439 187.1883 391.5389 187.2052 392.5288 Z " fill="#ff0000" stroke="none" stroke-width="0.78683" stroke-linecap="butt"/><path d="M 171.0071 359.6685 L 179.3855 368.4108 L 179.9801 380.4196 L 183.7836 373.5619 L 183.6081 386.3678 L 180.2074 393.8719 L 180.3995 405.2346 L 175.3651 416.5548 L 164.9036 415.9477 L 161.1669 372.6377 Z " fill="#000000" stroke="none" stroke-width="0.87338" stroke-linecap="round"/><path d="M 187.2629 369.8483 L 187.7927 393.4856 L 185.9046 389.9901 L 184.0808 390.2822 L 182.7037 393.8327 L 182.2998 369.9323 Z " fill="#000000" stroke="none" stroke-width="0.87338" stroke-linecap="round"/></g><path d="M 173.2349 462.0058 L 173.2349 462.0058 L 173.2086 461.8128 L 173.2086 461.8128 Z " fill="#cccccc" stroke="none" stroke-width="0.65058" stroke-linecap="butt"/></g><path d="M 184.9973 446.065 L 166.7212 445.9481 L 158.9368 428.3742 L 151.9886 394.8835 L 182.5005 397.0724 Z " fill="#353935" stroke="none" stroke-width="1" stroke-linecap="round"/></g><g stroke-linecap="butt"><path d="M 153.7557 414.8608 L 140.3126 415.5459 L 139.0947 391.647 L 152.5377 390.962 Z " fill="#cccc00" stroke="#000000" stroke-width="1"/><path d="M 143.9102 394.0462 C 144.265 394.3666 144.498 394.8249 144.5242 395.3388 C 144.5503 395.8526 144.3652 396.3322 144.0448 396.687 C 143.7244 397.0418 143.2661 397.2748 142.7523 397.301 C 142.2385 397.3271 141.7588 397.142 141.404 396.8216 C 141.0492 396.5012 140.8162 396.0429 140.79 395.5291 C 140.7639 395.0153 140.9491 394.5356 141.2694 394.1808 C 141.5898 393.826 142.0481 393.593 142.562 393.5668 C 143.0758 393.5407 143.5554 393.7259 143.9102 394.0462 Z " fill="#ff0000" stroke="none" stroke-width="1"/></g><g><path d="M 135.4972 428.3576 L 119.3198 428.7834 L 118.2575 388.4508 L 134.4348 388.0247 Z " fill="url(#color-37-,0,0,1,-126.97196,181.07223)" stroke-width="0.29645" stroke-linecap="butt" stroke="none"/><path d="M 136.6774 429.0666 L 126.1325 432.8522 L 118.0777 430.1412 L 117.7636 426.6416 L 136.6004 426.1456 Z " fill="#666666" stroke-width="0.25105" stroke-linecap="round" stroke="none"/><path d="M 133.4558 426.637 L 131.9046 426.6781 L 130.9126 389.0046 L 132.4638 388.9639 Z " fill="#666666" stroke-width="0.29645" stroke-linecap="butt" stroke="none"/><path d="M 130.1318 426.7247 L 128.8022 426.7598 L 127.7984 388.6431 L 129.1279 388.6082 Z " fill="#666666" stroke-width="0.29645" stroke-linecap="butt" stroke="none"/><path d="M 133.8346 382.6418 C 135.263 383.0105 136.4758 384.5415 136.4435 385.8996 C 136.417 387.0373 135.4087 387.676 133.6795 388.324 C 131.9502 388.9719 129.5505 389.4075 126.8908 389.4774 C 124.2314 389.5477 121.8121 389.2388 120.0511 388.6828 C 118.2901 388.127 117.1875 387.3249 117.1635 386.4075 C 117.1391 385.4898 118.1982 384.6308 119.9272 383.9828 C 121.6565 383.3352 124.4118 383.0666 126.7159 382.8294 C 129.0908 382.585 131.5985 381.8537 133.8347 382.6418 Z " fill="#b2b2b2" stroke-width="0.31402" stroke-linecap="round" stroke="none"/><path d="M 121.489 426.9524 L 120.1594 426.9873 L 119.1671 389.3138 L 120.4969 389.279 Z " fill="#666666" stroke-width="0.29645" stroke-linecap="butt" stroke="none"/><path d="M 112.3791 392.5973 L 112.3791 392.5973 L 112.3732 392.3757 L 112.3732 392.3757 Z " fill="#666666" stroke-width="0.29645" stroke-linecap="butt" stroke="none"/><path d="M 135.8109 389.7627 L 116.9742 390.2587 L 116.881 386.713 L 134.598 385.8026 L 133.3499 380.5134 L 138.8086 385.692 Z " fill="#666666" stroke-width="0.29645" stroke-linecap="round" stroke="none"/><path d="M 127.3646 413.4747 L 121.1596 413.6382 L 120.8678 402.558 L 127.0728 402.3945 Z " fill="#000000" stroke-width="0.29645" stroke-linecap="butt" stroke="none"/><path d="M 124.4897 405.6758 C 124.9051 406.1863 125.1721 406.8996 125.1931 407.6946 C 125.2142 408.4899 124.9849 409.2162 124.5969 409.7479 C 124.2101 410.2806 123.6645 410.6179 123.0528 410.6341 C 122.4411 410.6502 121.8788 410.3419 121.4643 409.8306 C 121.0489 409.3198 120.7819 408.6065 120.7609 407.8115 C 120.7402 407.0164 120.9694 406.2901 121.3571 405.7582 C 121.7439 405.2255 122.2895 404.8882 122.9012 404.8723 C 123.5129 404.8561 124.0755 405.1641 124.4897 405.6758 Z " fill="#ff0000" stroke-width="0.29645" stroke-linecap="butt" stroke="none"/><path d="M 96.2971 408.7659 C 96.3572 408.7644 96.3946 408.7634 96.3946 408.7634 C 96.3946 408.7634 96.3572 408.7644 96.2971 408.7659 C 96.2367 408.7676 96.1535 408.7697 96.0623 408.7722 C 95.9707 408.7745 95.8876 408.7767 95.8271 408.7785 C 95.767 408.7801 95.7296 408.7811 95.7296 408.7811 C 95.7296 408.7811 95.767 408.7801 95.8271 408.7785 C 95.8876 408.7766 95.9707 408.7745 96.0623 408.7722 C 96.1535 408.7696 96.2366 408.7675 96.2971 408.7659 Z " fill="#ff0000" stroke-width="0.29645" stroke-linecap="butt" stroke="none"/></g><g stroke-linecap="butt"><path d="M 137.3012 408.5109 L 125.6505 409.1047 L 125.1557 399.3958 L 136.8064 398.802 Z " fill="url(#color-38-,0,0,1,-126.97196,181.07223)" stroke-width="0.81818" stroke="none"/><path d="M 115.1211 399.9072 L 125.5768 399.3743 L 126.0716 409.0833 L 115.6158 409.6161 Z " fill="url(#color-39-,0,0,1,-126.97196,181.07223)" stroke-width="0.79778" stroke="none"/></g><g stroke-linecap="butt"><g><path d="M 111.9463 393.7564 C 114.2935 395.8759 115.8328 398.8893 116.0063 402.2928 C 116.1798 405.6962 114.9547 408.8505 112.8351 411.1974 C 110.7156 413.5445 107.7022 415.0839 104.2987 415.2574 C 100.8953 415.4309 97.7409 414.2058 95.3941 412.0862 C 93.047 409.9669 91.5076 406.9536 91.3341 403.5501 C 91.1607 400.1466 92.3857 396.9923 94.5053 394.6452 C 96.6245 392.2984 99.6379 390.7589 103.0414 390.5855 C 106.4449 390.412 109.5992 391.6371 111.9463 393.7563 Z " fill="#000000" stroke-width="0.10389" stroke="none"/><path d="M 92.0887 403.4172 C 91.7731 397.2253 96.7344 391.9401 103.1704 391.6121 C 109.6063 391.2841 114.6407 396.1126 114.9562 402.3042 C 115.2718 408.4964 110.7484 413.7066 104.3128 414.0346 C 97.8771 414.3625 92.4042 409.6091 92.0887 403.4172 Z " fill="url(#color-40-,0,0,1,-126.97196,181.07223)" stroke-width="0.10389" stroke="none"/><path d="M 106.0051 396.1029 C 106.4845 396.2639 109.0293 399.141 109.2526 399.8203 C 109.4762 400.4996 107.0933 403.3963 106.5488 403.6553 C 106.0046 403.9139 102.0118 402.727 101.6688 402.3213 C 101.3262 401.9159 100.7578 397.781 101.1575 397.2659 C 101.5577 396.751 105.5261 395.9419 106.005 396.1029 Z " fill="#000000" stroke-width="0.10389" stroke="none"/><path d="M 98.6361 409.1519 C 97.9554 410.1478 97.0733 411.8987 95.8778 411.5014 C 94.1451 410.9197 92.6411 408.9528 92.5589 407.1278 C 92.4946 405.7082 94.4246 404.8547 95.7297 404.3216 C 97.4913 403.6025 102.2923 401.7022 101.3394 403.5846 Z " fill="url(#color-41-,0,0,1,-126.97196,181.07223)" stroke-width="0.10389" stroke="none"/><path d="M 109.3669 413.5967 L 104.8668 415.0727 C 103.9429 414.7813 103.9648 412.9544 104.2033 411.8553 C 104.5461 409.7655 104.8457 406.5775 106.543 405.8707 C 107.8265 405.339 109.4499 407.9138 109.9464 409.4622 C 110.4996 410.785 109.3669 413.5968 109.3669 413.5968 Z " fill="url(#color-42-,0,0,1,-126.97196,181.07223)" stroke-width="0.10389" stroke="none"/><path d="M 91.999 399.1945 L 95.5619 394.2274 C 96.3271 393.663 97.5927 393.9894 98.3272 394.5438 C 99.3221 395.1781 100.9123 396.4763 100.2486 397.4484 C 99.0967 399.141 96.7351 399.5836 94.6586 400.0117 C 93.7519 400.1992 91.9989 399.1945 91.9989 399.1945 Z " fill="url(#color-43-,0,0,1,-126.97196,181.07223)" stroke-width="0.10389" stroke="none"/><path d="M 113.9889 397.5105 C 115.0736 399.7357 115.2787 402.5074 114.9148 404.993 C 114.8145 405.6705 113.5289 404.7046 112.9977 404.3129 C 111.7616 403.2902 110.058 402.4038 109.725 400.8391 C 109.501 399.7941 110.9363 398.6308 111.6955 398.2962 Z " fill="url(#color-44-,0,0,1,-126.97196,181.07223)" stroke-width="0.10389" stroke="none"/><path d="M 102.9068 391.3407 L 106.346 391.2981 L 109.3338 392.7417 C 109.3338 392.7417 109.3371 393.753 108.991 394.0075 C 108.0696 394.6873 106.8688 395.8561 105.6938 395.6153 C 104.4338 395.341 103.6515 393.8699 102.8883 392.7712 C 102.6494 392.3554 102.9068 391.3407 102.9068 391.3407 Z " fill="url(#color-45-,0,0,1,-126.97196,181.07223)" stroke-width="0.10389" stroke="none"/></g><path d="M 106.2212 398.1696 C 106.5572 398.4733 106.7777 398.9047 106.8026 399.3925 C 106.8275 399.8801 106.6519 400.3317 106.3486 400.6679 C 106.0449 401.0039 105.6135 401.2244 105.1259 401.2493 C 104.6381 401.2741 104.1864 401.0986 103.8502 400.7952 C 103.5143 400.4916 103.294 400.0601 103.2691 399.5726 C 103.2443 399.0848 103.4195 398.6332 103.7229 398.2969 C 104.0265 397.961 104.458 397.7407 104.9458 397.7158 C 105.4334 397.691 105.885 397.8662 106.2212 398.1696 Z " fill="url(#color-46-,0,0,1,-126.97196,181.07223)" stroke-width="0.2957" stroke="none"/></g></g></g><g data-paper-data="{&quot;origRot&quot;:0}"><g data-paper-data="{&quot;origPos&quot;:null}"><path d="M 124.2562 188.4919 C 132.1864 189.1684 140.8654 190.5286 147.0799 195.49 C 151.8947 199.3303 154.0885 206.3892 153.5233 212.4294 C 152.9106 225.66 152.029 240.579 143.6935 250.9228 C 137.6127 258.4558 125.3086 262.052 116.0596 259.9364 C 107.2364 257.917 101.0228 248.7682 96.7767 240.7751 C 91.4019 230.9074 88.9423 219.3085 90.2931 208.3077 C 90.5355 201.297 95.2932 194.1365 101.2311 190.5268 C 107.8555 186.497 116.6037 187.4813 124.256 188.4919 Z " fill="#ffd499" stroke="none" stroke-width="1" stroke-linecap="butt"/><path d="M 147.8925 254.0203 C 147.8925 254.0203 95.0976 251.6621 88.3031 241.3585 C 78.6719 227.1663 79.3074 199.8579 79.3074 199.8579 C 79.3074 199.8579 77.6182 175.5767 78.5497 175.5221 C 79.4511 175.4692 109.1632 178.0047 109.1632 178.0047 C 109.1632 178.0047 128.7364 179.5704 143.1901 189.5453 C 154.7309 197.5101 162.607 217.7568 165.9274 227.8915 C 169.2477 238.0263 172.0191 253.8555 172.0191 253.8555 Z " data-paper-data="{&quot;origPos&quot;:null}" fill="#ffffff" stroke="#000000" stroke-width="2" stroke-linecap="round"/><g stroke-linecap="butt"><path d="M 81.0706 197.0923 L 120.5915 199.2917 L 119.9894 210.1111 L 81.5636 207.9432 Z " data-paper-data="{&quot;origPos&quot;:null}" stroke-width="1.05383" fill="#ff0000" stroke="none"/><path d="M 81.8163 210.3383 L 105.0436 211.6407 L 104.8847 214.4958 L 82.2049 213.2091 Z " data-paper-data="{&quot;origPos&quot;:null}" stroke-width="0.50239" fill="#ff0000" stroke="none"/></g><path d="M 164.4749 226.9065 L 165.5343 234.9544 L 121.9895 231.9282 C 121.9895 231.9282 100.9311 230.1231 100.0851 213.8269 C 99.4328 201.2614 119.6048 201.6485 119.6048 201.6485 L 152.2133 203.4632 Z " fill="#000000" stroke="#000000" stroke-width="2" stroke-linecap="round"/><path d="M 107.2574 204.1268 C 111.5976 201.9235 121.0982 201.4664 121.8505 201.9242 C 122.5589 202.3585 114.6117 204.8044 111.0389 206.5983 C 108.4748 208.1439 104.5257 212.5305 103.5082 211.9071 C 102.5667 211.3271 104.7887 205.6354 107.2573 204.1268 Z " fill="#ffffff" stroke="none" stroke-width="1" stroke-linecap="round"/></g><path d="M 97.828 218.1223 L 87.0134 225.2396 L 85.6301 217.123 Z " data-paper-data="{&quot;origPos&quot;:null}" fill="#000000" stroke="none" stroke-width="1" stroke-linecap="round"/></g><path d="M 149.3971 315.3562 C 143.1361 310.5412 154.985 297.5611 163.0229 293.7702 C 172.7755 289.2275 184.3363 294.621 195.3782 294.3208 C 207.2176 294.0162 220.173 288.4287 230.9419 293.3749 C 237.9526 296.6078 245.1786 308.7488 239.8262 313.5736 C 230.3013 322.9995 214.1641 321.9747 201.0267 322.036 C 183.6847 322.163 161.8598 325.2862 149.3971 315.3562 Z " data-paper-data="{&quot;origRot&quot;:0}" fill="#000000" stroke="#000000" stroke-width="1.5" stroke-linecap="round"/><path d="M616.49291,-95.57999c0,0 33.73919,36.13997 44.13786,80.90863c6.34897,27.33371 -15.30626,74.2441 -21.05359,89.61994c-15.93611,42.63385 -107.62662,84.72941 -107.62662,84.72941c0,0 11.97752,-34.71632 12.87592,-63.59585c0.46401,-14.91516 -8.47016,-28.18281 -9.98439,-34.49781c-4.90251,-20.4457 -27.40475,-38.2716 -27.40475,-38.2716c0,0 21.68735,-15.50417 34.67195,-27.98883c21.30729,-20.48691 74.3836,-90.90387 74.3836,-90.90387z" data-paper-data="{&quot;origRot&quot;:0}" fill="url(#color-47)" stroke="none" stroke-width="0" stroke-linecap="butt" transform="matrix(1,0,0,1,-126.97196,181.07223)"/><path d="M 85.034 285.3617 C 82.007 281.1172 86.641 272.0069 92.2096 271.4607 C 104.1326 270.3545 115.0876 279.1092 126.5016 282.1175 C 139.5051 286.0624 155.2726 283.7106 165.5023 292.4058 C 171.3088 297.3547 172.484 312.0813 165.6707 314.303 C 150.9902 319.5932 134.1128 313.825 119.6682 308.4221 C 106.6669 303.6053 93.0047 296.6877 85.034 285.3618 Z " data-paper-data="{&quot;origRot&quot;:0}" fill="#000000" stroke="#000000" stroke-width="1.5" stroke-linecap="round"/><path d="M251.56972,151.92336c4.79356,-28.13589 58.92056,-103.44498 58.92056,-103.44498c0,0 13.57216,35.74726 25.21362,48.23808c10.16001,10.90125 40.79773,22.58936 40.79773,22.58936l-94.97295,99.16232c0,0 -34.81835,-38.02266 -29.95898,-66.54479z" data-paper-data="{&quot;index&quot;:null,&quot;origRot&quot;:0}" fill="url(#color-48)" stroke="none" stroke-width="0" stroke-linecap="butt" transform="matrix(1,0,0,1,-126.97196,181.07223)"/><g data-paper-data="{&quot;index&quot;:null,&quot;origRot&quot;:0}"><path d="M422.46052,165.52383c0,0 -14.8802,5.9868 -27.02723,5.79155c-12.37136,-0.19877 -35.798,-6.80116 -35.798,-6.80116c0,0 -1.52613,5.58988 5.8078,10.32969c7.76707,5.01959 32.88672,14.67738 32.88672,14.67738c0,0 -22.28403,9.15185 -37.04605,6.94118c-8.08032,-1.21007 -21.48455,-15.70632 -21.48455,-15.70632c0,0 -9.12481,13.4581 -5.00099,20.61781c8.91037,15.47008 40.74654,22.17631 40.74654,22.17631c0,0 -29.74036,12.50795 -42.65331,4.35562c-12.42711,-7.84549 -26.31954,-33.09853 -26.31954,-33.09853c0,0 -4.56396,14.96721 0.35494,27.1343c7.29264,18.03817 30.89104,35.43013 30.89104,35.43013c0,0 -36.94028,-6.35088 -53.50534,-19.526c-15.76964,-12.5422 -18.21578,-31.34158 -8.99974,-49.25952c20.94469,-40.7211 138.35012,-112.40459 138.35012,-112.40459c0,0 -30.95293,37.97158 -28.94008,58.41235c1.42053,14.42609 37.73755,30.92972 37.73755,30.92972z" data-paper-data="{&quot;origPos&quot;:null}" fill="#000000" stroke="none" stroke-width="NaN" stroke-linecap="butt" transform="matrix(1,0,0,1,-126.97196,181.07223)"/><path d="M600.16374,-178.39298c0,0 52.94199,21.40102 64.78245,44.42144c5.77355,11.22486 -12.96761,45.53291 -12.96761,45.53291l-129.5084,93.09522c0,0 28.96937,-25.72782 25.6016,-66.81297c-1.13904,-13.89432 -45.53501,-26.20383 -45.53501,-26.20383c0,0 37.658,-17.66921 58.70336,-19.71251c18.64058,-1.81 42.98691,9.83875 42.98691,9.83875c0,0 -6.36247,-18.58082 -15.88022,-25.94738c-14.58265,-11.28691 -45.87424,-21.85034 -45.87424,-21.85034c0,0 33.70643,-8.79899 51.98761,-4.45242c16.20558,3.85311 36.38028,25.46315 36.38028,25.46315c0,0 1.0288,-14.27501 -4.48485,-23.86803c-6.45829,-11.2362 -26.19224,-29.50387 -26.19224,-29.50387z" data-paper-data="{&quot;origPos&quot;:null}" fill="#000000" stroke="none" stroke-width="0" stroke-linecap="butt" transform="matrix(1,0,0,1,-126.97196,181.07223)"/><path d="M 158.096 407.4532 C 134.4681 367.7031 174.0109 339.6921 174.0109 339.6921 L 499.2203 113.336 C 499.2203 113.336 534.939 79.5412 527.5232 66.2975 " data-paper-data="{&quot;origPos&quot;:null}" fill="none" stroke="#000000" stroke-width="3" stroke-linecap="round"/><path d="M457.84864,75.85043c0,0 -58.38825,32.69809 -67.52513,54.142c-6.49575,15.24534 38.67362,26.9627 27.11253,38.83549c-11.73127,12.04758 -48.95853,-2.37181 -48.95853,-2.37181c0,0 39.74671,11.54844 24.91453,27.28211c-15.08752,16.00439 -50.6324,1.82869 -50.6324,1.82869c0,0 49.46762,10.7004 37.7572,26.92682c-7.53991,10.44743 -17.30302,10.97203 -30.18607,11.14506c-24.93902,0.33485 -40.58706,-29.9239 -40.58706,-29.9239l28.79412,62.16647c0,0 -43.58503,-11.99964 -58.70339,-27.52737c-17.96996,-18.45647 -20.64064,-44.20661 -5.87043,-65.31108c47.14159,-67.35792 163.65282,-129.53096 163.65282,-129.53096z" data-paper-data="{&quot;origRot&quot;:0,&quot;origPos&quot;:null}" fill="url(#color-49)" stroke="none" stroke-width="0" stroke-linecap="butt" transform="matrix(1,0,0,1,-126.97196,181.07223)"/><path d="M495.07009,2.99211c0,0 44.55004,-20.59744 49.95944,-47.23971c5.40947,-26.64281 -30.15234,-27.50999 -44.51288,-42.19481c-17.23132,-17.62056 91.21238,-24.73586 91.21238,-24.73586c0,0 -50.71799,-20.91582 -48.05615,-35.35783c3.00951,-16.32782 26.78713,-16.61519 43.08897,-13.46824c15.32874,2.95905 35.44882,19.8597 35.44882,19.8597l-17.59909,-40.92759c0,0 43.89903,18.38617 57.16897,42.5991c7.83683,14.2993 26.18982,25.87842 -22.47621,73.60105c-48.66598,47.72248 -127.46615,94.66704 -127.46615,94.66704z" data-paper-data="{&quot;origRot&quot;:0,&quot;origPos&quot;:null,&quot;index&quot;:null}" fill="url(#color-50)" stroke="none" stroke-width="0" stroke-linecap="butt" transform="matrix(1,0,0,1,-126.97196,181.07223)"/><path d="M515.88111,7.66211c10.73556,14.6125 29.7132,14.44131 24.27592,18.43606c-4.75473,3.49327 -16.7986,-1.78707 -21.09839,2.2529c-4.04645,3.80187 3.8813,16.25621 -1.62974,15.58c-10.03521,-1.23126 -12.60527,-16.80218 -18.59127,-24.95006c-10.73565,-14.61258 -21.52725,-22.19223 -16.09,-26.18691c5.49004,-4.03348 12.98476,8.11228 19.38014,5.7651c6.31219,-2.31672 6.86795,-18.84032 13.05624,-16.21055c8.07511,3.43156 -4.49765,18.24245 0.69721,25.31336z" data-paper-data="{&quot;origPos&quot;:null,&quot;origRot&quot;:0,&quot;index&quot;:null}" fill="url(#color-51)" stroke="none" stroke-width="0" stroke-linecap="butt" transform="matrix(1,0,0,1,-126.97196,181.07223)"/><path d="M439.33233,66.11642c-10.73556,-14.6125 -29.71316,-14.44135 -24.27592,-18.43602c4.75473,-3.49327 16.7986,1.78718 21.09839,-2.2529c4.04645,-3.80187 -3.88143,-16.25621 1.62967,-15.58006c10.03521,1.23126 12.60533,16.80208 18.59137,24.95004c10.73565,14.61258 21.52725,22.19227 16.08999,26.18701c-5.49004,4.03348 -12.98476,-8.11228 -19.38014,-5.7651c-6.31219,2.31672 -6.86795,18.84032 -13.0562,16.21055c-8.07508,-3.43169 4.4976,-18.24245 -0.69727,-25.31333z" data-paper-data="{&quot;origPos&quot;:null,&quot;origRot&quot;:0}" fill="url(#color-52)" stroke="none" stroke-width="0" stroke-linecap="butt" transform="matrix(1,0,0,1,-126.97196,181.07223)"/><g data-paper-data="{&quot;origPos&quot;:null}" stroke-linecap="butt"><path d="M476.29284,36.95711c-16.3517,10.97226 -32.44631,15.63656 -35.94806,10.4181c-3.50185,-5.21868 6.9152,-18.34412 23.26699,-29.31636c16.3517,-10.97226 32.44631,-15.63656 35.94806,-10.41803c3.50171,5.21868 -6.91506,18.34404 -23.26702,29.31643z" data-paper-data="{&quot;origRot&quot;:0,&quot;origPos&quot;:null}" fill="#401616" stroke-width="0" stroke="none" transform="matrix(1,0,0,1,-126.97196,181.07223)"/><path d="M513.47176,26.62601c0,0 -13.50172,17.28173 -24.43894,25.04841c-12.21914,8.67687 -34.89657,17.08625 -34.89657,17.08625l-16.70847,-23.52958c0,0 21.51569,-8.95275 32.61374,-16.83364c12.05841,-8.56274 26.72178,-25.30099 26.72178,-25.30099z" data-paper-data="{&quot;origRot&quot;:0,&quot;origPos&quot;:null}" fill="#181818" stroke-width="0" stroke="none" transform="matrix(1,0,0,1,-126.97196,181.07223)"/></g></g><g data-paper-data="{&quot;origRot&quot;:0}"><g stroke-linecap="round"><path d="M 247.5223 272.572 C 248.8316 269.7223 253.2618 268.3207 256.2964 266.7066 C 259.2363 265.1591 262.5087 262.6133 265.4532 262.8425 C 268.024 263.0433 270.2947 265.5649 269.3508 267.8647 C 268.2018 270.66 264.1123 272.4778 261.1138 274.2883 C 257.8141 276.0753 253.9448 278.96 250.7278 278.4794 C 247.9932 278.0718 246.3582 274.9503 247.5222 272.572 Z " stroke-width="0.60163" fill="#363a36" stroke="none"/><path d="M 251.2565 279.708 C 252.5658 276.8583 256.996 275.4568 260.0306 273.8426 C 262.9705 272.2951 266.2428 269.7494 269.1873 269.9785 C 271.7582 270.1793 274.0288 272.701 273.0849 275.0007 C 271.9359 277.796 267.8464 279.6137 264.8479 281.4243 C 261.5481 283.2113 257.6788 286.096 254.4619 285.6155 C 251.7272 285.2078 250.0923 282.0863 251.2562 279.7081 Z " stroke-width="0.60163" fill="#363a36" stroke="none"/><path d="M 255.0819 287.7494 C 256.3912 284.8997 260.8214 283.4982 263.856 281.884 C 266.7959 280.3365 270.0682 277.7908 273.0128 278.02 C 275.5836 278.2207 277.8542 280.7424 276.9103 283.0421 C 275.7613 285.8374 271.6719 287.6552 268.6734 289.4657 C 265.3737 291.2527 261.5043 294.1375 258.2873 293.6569 C 255.5527 293.2492 253.9178 290.1278 255.0817 287.7495 Z " stroke-width="0.60163" fill="#363a36" stroke="none"/><path d="M 259.9908 295.2614 C 261.3001 292.4117 265.7303 291.0102 268.7649 289.396 C 271.7047 287.8485 274.9771 285.3028 277.9216 285.532 C 280.4924 285.7327 282.7631 288.2544 281.8192 290.5541 C 280.6702 293.3494 276.5807 295.1671 273.5822 296.9777 C 270.2825 298.7647 266.4131 301.6494 263.1962 301.1689 C 260.4616 300.7611 258.8266 297.6397 259.9905 295.2614 Z " stroke-width="0.60163" fill="#363a36" stroke="none"/></g><g stroke-linecap="round"><path d="M 234.9281 290.4583 C 240.7251 281.7991 240.044 280.3099 240.3931 279.3865 C 241.7845 275.6959 243.3733 271.7453 246.3379 269.1448 C 249.1435 266.6903 255.4107 264.4492 256.51 264.8451 C 257.5419 265.4476 253.1529 269.3499 251.3281 271.481 C 250.1399 272.8736 248.9445 274.2706 247.7136 275.6279 C 246.4343 277.0387 245.1321 278.4372 243.7931 279.7938 C 243.0703 280.5251 242.4249 282.0027 241.5272 281.8951 Z " fill="none" stroke="#353937" stroke-width="1.83172"/><path d="M 226.3378 294.5395 C 228.5979 293.2549 231.0263 292.2114 233.0968 290.6309 C 234.5899 289.4921 235.9078 288.1099 237.1543 286.7024 C 239.7387 283.7839 241.6287 280.2006 244.5834 277.6594 C 248.129 274.6188 252.188 270.901 257.0655 269.9668 C 259.178 269.6408 260.407 272.8003 262.067 274.5113 C 264.2011 276.7298 266.0201 279.2732 267.7285 281.8391 C 270.0025 285.2519 273.7617 288.4579 273.9683 292.6297 C 274.0746 295.6155 270.7029 297.7142 268.5179 299.8953 C 267.2287 301.1852 265.4377 301.8854 263.7747 302.6383 C 262.0784 303.404 260.3177 304.1247 258.483 304.4324 C 256.6689 304.7378 254.7852 304.2384 252.9613 304.4607 C 251.0691 304.6909 249.1411 305.0181 247.3955 305.7806 C 242.3736 307.9759 237.5982 310.7341 232.7546 313.2976 C 231.1409 314.1517 229.7126 316.3225 228.0115 316.0403 C 220.6814 308.5636 217.945 304.6904 218.1744 299.5765 C 218.5213 296.493 223.6289 296.2358 226.3379 294.5394 Z " fill="#ffffff" stroke="#ffffff" stroke-width="1.83172"/></g><path d="M 243.7609 281.0264 C 243.7553 280.7889 243.7502 280.5755 243.7464 280.417 C 243.7426 280.2621 243.7406 280.1657 243.7406 280.1657 C 243.7406 280.1657 243.7427 280.2621 243.7464 280.417 C 243.7502 280.5755 243.7553 280.789 243.7609 281.0264 C 243.7665 281.2639 243.7716 281.4773 243.7754 281.6359 C 243.7792 281.7908 243.7813 281.8871 243.7813 281.8871 C 243.7813 281.8871 243.7791 281.7908 243.7754 281.6359 C 243.7716 281.4773 243.7665 281.2638 243.7609 281.0264 Z " fill="#eac18d" stroke="none" stroke-width="1.15123" stroke-linecap="butt"/><path d="M 252.1912 298.8441 C 247.8554 296.7461 243.6573 292.7687 242.3802 288.1169 C 241.7425 285.5511 245.4681 283.6174 247.5135 281.8684 C 249.9972 279.7498 252.7685 277.1983 256.1387 276.5527 C 257.5984 276.3274 258.4476 278.5107 259.5949 279.6929 C 261.0696 281.2261 262.3263 282.9833 263.5069 284.7565 C 265.0782 287.1148 268.0177 289.3576 267.8187 292.2127 C 267.6166 294.6279 264.2684 296.2382 261.5517 297.258 C 258.7585 298.6067 255.2115 300.2816 252.1911 298.8443 Z " fill="#000000" stroke="#000000" stroke-width="1.26571" stroke-linecap="round"/></g><path d="M 165.4531 321.9844 C 159.0247 320.9577 150.1127 316.9674 148.1321 310.1701 C 147.1104 304.6829 153.7476 298.2691 159.2751 296.7019 C 170.0416 293.6572 181.6558 299.7912 192.8422 298.5206 C 204.3682 297.8243 215.1201 290.0208 226.7337 290.859 C 232.333 291.2743 236.4857 297.747 238.4272 303.0203 C 239.9452 307.1554 239.9891 314.2672 236.2442 317.2388 C 231.2255 321.2201 223.6728 321.2649 217.1709 321.5503 C 200.1131 322.3068 182.4602 324.6875 165.4532 321.9844 Z " data-paper-data="{&quot;origRot&quot;:0}" fill="#ffffff" stroke="none" stroke-width="1.00573" stroke-linecap="round"/><path d="M 86.142 287.2718 C 82.8771 283.1319 83.4844 271.8835 88.6307 271.6288 C 100.2406 271.0616 109.468 282.2643 120.8658 285.2865 C 134.3851 289.4156 150.8608 285.4255 162.9482 292.9596 C 168.8153 296.6183 173.5866 311.6248 167.1493 313.5274 C 150.1981 318.1668 131.577 311.5735 115.3741 306.2677 C 104.3418 302.6537 93.2543 296.2881 86.142 287.2719 Z " data-paper-data="{&quot;origRot&quot;:0}" fill="#ffffff" stroke="none" stroke-width="1.00573" stroke-linecap="round"/><path d="M243.08641,127.39587c0,0 -12.41959,-9.11216 -18.69191,-12.61567c-7.67384,-4.28629 -13.4509,-14.53591 -13.4509,-14.53591c0,0 5.57217,-10.19559 11.41201,-14.59152c3.94409,-2.96887 13.65808,-4.27997 13.65808,-4.27997l24.63835,16.4134z" data-paper-data="{&quot;origRot&quot;:0}" fill="#ffffff" stroke="none" stroke-width="0" stroke-linecap="butt" transform="matrix(1,0,0,1,-126.97196,181.07223)"/></g></g></svg>