<svg version="1.1" xmlns="http://www.w3.org/2000/svg" xmlns:xlink="http://www.w3.org/1999/xlink" width="221.68876" height="349.46632" viewBox="0,0,221.68876,349.46632"><defs><linearGradient x1="156.7634" y1="210.95788" x2="184.08804" y2="232.10192" gradientUnits="userSpaceOnUse" id="color-1"><stop offset="0" stop-color="#cab5ba"/><stop offset="1" stop-color="#ff6f6f"/></linearGradient><linearGradient x1="143.04192" y1="199.50547" x2="167.18905" y2="218.19073" gradientUnits="userSpaceOnUse" id="color-2"><stop offset="0" stop-color="#99f6ff"/><stop offset="1" stop-color="#bdc6cc"/></linearGradient><linearGradient x1="130.00814" y1="216.04021" x2="157.33279" y2="237.18425" gradientUnits="userSpaceOnUse" id="color-3"><stop offset="0" stop-color="#99f6ff"/><stop offset="1" stop-color="#bdc6cc"/></linearGradient><linearGradient x1="146.90715" y1="229.95141" x2="171.05428" y2="248.63667" gradientUnits="userSpaceOnUse" id="color-4"><stop offset="0" stop-color="#cab5ba"/><stop offset="1" stop-color="#ff6f6f"/></linearGradient><linearGradient x1="164.90927" y1="230.15411" x2="149.18692" y2="217.98803" gradientUnits="userSpaceOnUse" id="color-5"><stop offset="0" stop-color="#e39496"/><stop offset="1" stop-color="#aae0e7"/></linearGradient><radialGradient cx="157.0481" cy="224.07107" r="11.3" gradientUnits="userSpaceOnUse" id="color-6"><stop offset="0" stop-color="#ffffff" stop-opacity="0"/><stop offset="1" stop-color="#ffffff"/></radialGradient></defs><g transform="translate(-124.95072,-51.5686)"><g data-paper-data="{&quot;isPaintingLayer&quot;:true}" fill-rule="nonzero" stroke-miterlimit="10" stroke-dasharray="" stroke-dashoffset="0" style="mix-blend-mode: normal"><path d="M211.77432,265.62942c-0.62252,-0.08198 -0.38844,-7.52046 0.66774,-19.71508c0.64619,-7.46873 1.69661,-18.22197 3.28397,-28.98093c1.39455,-9.31598 3.08539,-19.46447 5.10621,-30.11943c2.90584,-15.32184 5.99509,-29.05659 9.05432,-41.07881c0.0373,0.11115 0.07319,0.2168 0.10839,0.31246c0.01558,0.04207 0.03294,0.07914 0.04221,0.10931c0.01615,0.0527 0.02262,0.10217 0.02934,0.15006c0.01273,0.092 0.01905,0.17475 0.02059,0.24647v0c0.00195,-0.0201 -0.08125,-0.12455 -0.21701,-0.32516c-0.50869,-0.72206 -1.07299,-1.45678 -1.62892,-2.18619c-2.14502,-2.81392 -4.20117,-5.44473 -6.09488,-7.89926c-9.01729,-11.68774 -14.39472,-19.12192 -13.81728,-19.59215c0.48555,-0.39523 6.81162,6.23859 16.52102,17.36071c1.98635,2.27553 4.2851,4.92596 6.52905,7.61756c0.58387,0.69935 1.20944,1.44829 1.81937,2.24281c0.11757,0.14231 0.29765,0.38041 0.51264,0.73226v0c0.02528,0.11414 0.05446,0.2388 0.08593,0.37569c0.01591,0.07045 0.03449,0.14463 0.04513,0.22114c0.00665,0.04424 0.00585,0.08364 0.00766,0.12116c0.00401,0.08696 0.01238,0.17332 0.02249,0.26524c-2.62211,12.43649 -5.29485,25.83795 -8.21285,41.70534c-1.9945,10.83977 -3.79221,21.14321 -5.41489,30.56974c-1.6277,9.31536 -3.58879,22.50358 -4.5635,28.62159c-1.91934,12.04655 -3.28755,19.32787 -3.9067,19.24544z" data-paper-data="{&quot;index&quot;:null}" fill="#000000" stroke="none" stroke-width="9.375" stroke-linecap="round" stroke-linejoin="round"/><path d="M238.00181,145.77645c0.20187,0.45213 -2.96121,2.33155 -8.35847,5.65757c-6.07935,3.74607 -12.3479,7.72612 -21.89869,14.29913c-8.76463,6.03508 -17.17614,12.14532 -27.57737,19.8386c-0.18526,0.13745 -2.94172,2.17826 -3.12718,2.31547c-10.10778,7.48867 -19.79806,15.4904 -27.40159,21.80011c-14.55425,12.07982 -24.04421,20.23562 -24.66398,19.54719c-0.53385,-0.59428 7.94216,-9.88869 22.01223,-22.7309c7.43476,-6.78605 16.82292,-14.94407 27.16894,-22.67451c1.03529,-0.77379 2.08024,-1.5511 3.13394,-2.32995c10.18654,-7.53538 19.31893,-13.89385 28.12743,-19.46351c9.46285,-5.98596 16.96402,-10.06948 23.0548,-12.89346c5.81624,-2.69706 9.34751,-3.77351 9.52994,-3.36574z" data-paper-data="{&quot;index&quot;:null}" fill="#000000" stroke="none" stroke-width="9.375" stroke-linecap="round" stroke-linejoin="round"/><path d="M258.63766,127.4893c0.29562,0.44411 -5.98365,5.27191 -16.01054,13.18243c-10.8511,8.56086 -22.96548,18.29418 -38.61477,31.59814c-1.03562,0.88038 -2.06287,1.75564 -3.08149,2.62681c-10.01828,8.56324 -18.70522,16.2658 -26.42087,23.22696c-14.04717,12.67688 -23.011,21.38895 -23.36865,21.04754c-0.55605,-0.53054 7.63837,-10.07314 21.3357,-23.31828c7.42073,-7.17648 16.1805,-15.23261 26.13005,-23.78833c1.01982,-0.87679 2.04991,-1.75764 3.08931,-2.64109c15.24133,-12.95825 28.61207,-23.21469 39.42117,-30.8658c10.45826,-7.40264 17.2535,-11.46856 17.52006,-11.06841z" data-paper-data="{&quot;index&quot;:null}" fill="#000000" stroke="none" stroke-width="9.37509" stroke-linecap="round" stroke-linejoin="round"/><path d="M211.96451,264.1173c0.41465,-0.46636 9.71829,6.34742 23.66162,18.66289c14.19182,12.53596 32.1899,29.92593 50.98799,51.55279c2.64958,3.04798 5.22695,6.07899 7.73243,9.08797c9.67079,11.61226 17.9348,22.32516 25.13379,32.48756v0c3.8701,5.46051 7.07547,10.22364 9.89227,15.16718c1.09548,1.91831 2.07186,3.75899 2.86164,5.70374c0.29303,0.71593 0.55789,1.46298 0.74997,2.2584c-0.37603,0.44785 -0.78172,1.03566 -1.32996,1.72222c-0.12219,-1.47905 0.05583,-2.82476 0.4794,-3.96579c0.98301,-1.17506 2.11222,-2.0998 3.07782,-2.85209c6.90547,-5.4272 10.77835,-8.67883 11.03096,-8.44948c0.41663,0.37823 -2.86345,4.26799 -9.36831,10.31191c-0.8687,0.81598 -1.81682,1.70859 -2.48156,2.66203c-1.02559,0.7281 -1.94897,1.5989 -2.79111,2.56829c-0.45183,-0.28254 -1.06039,-0.68952 -1.69173,-1.21094c-0.16993,-0.56598 -0.4207,-1.14455 -0.71441,-1.77284c-0.80164,-1.70451 -1.79515,-3.34902 -2.94871,-5.17494c-2.97954,-4.7035 -6.24323,-9.16513 -10.27205,-14.51266v0c-7.49376,-9.93912 -15.76125,-20.27835 -25.49805,-31.83805c-2.50409,-2.97314 -5.07026,-5.97247 -7.69992,-8.99796c-18.77793,-21.6037 -35.97948,-38.95115 -49.60188,-52.21722c-13.2395,-12.8934 -21.70746,-20.63339 -21.21016,-21.19303z" data-paper-data="{&quot;index&quot;:null}" fill="#000000" stroke="none" stroke-width="9.375" stroke-linecap="round" stroke-linejoin="round"/><path d="M296.25225,128.80718c-5.39433,28.55906 -32.56102,47.585 -61.16073,42.40628c-28.59894,-5.17896 -47.58465,-32.56093 -42.40598,-61.16031c5.17893,-28.59897 32.22267,-45.11616 61.16002,-42.40639c29.834,2.79384 47.93678,31.88222 42.40669,61.16044z" data-paper-data="{&quot;index&quot;:null}" fill="#f2f2f2" stroke="none" stroke-width="9.0943" stroke-linecap="round" stroke-linejoin="round"/><path d="M213.58985,77.51902c41.86057,-28.54557 89.93062,-0.97869 82.61702,51.20376c-4.06041,21.49446 -20.45383,37.58693 -40.50877,42.02635c-42.54571,4.95992 -80.5304,-44.75517 -42.10827,-93.23007z" data-paper-data="{&quot;index&quot;:null}" fill="#ffffff" stroke="none" stroke-width="9.09417" stroke-linecap="round" stroke-linejoin="round"/><path d="M291.00007,93.93683c-0.34189,0.14175 -2.47645,-6.8972 -11.36326,-14.57802v0c-3.72248,-3.22317 -8.70157,-6.34243 -14.98177,-8.4364c-5.08507,-1.69597 -10.90139,-2.67988 -17.25892,-2.61529c-5.63447,0.05897 -11.62058,0.95001 -17.63665,2.8892c-5.47257,1.76656 -10.97218,4.4074 -16.01807,8.05856c-4.70411,3.40428 -9.03946,7.71581 -12.43528,12.85005c-3.37048,5.08633 -5.80798,11.00728 -6.99754,17.33872c-1.31858,6.96585 -1.11136,14.36339 0.31812,21.75158c1.41397,7.39272 5.38475,14.38704 10.80838,20.24886c0.24199,0.26151 0.48754,0.52042 0.73596,0.77699c5.648,5.8399 12.54556,10.28963 19.81685,13.29766c8.1397,3.35262 16.73792,4.87966 24.98005,4.35148c9.00378,-0.56978 17.45115,-3.70195 24.14014,-8.59643v0c7.13333,-5.19501 12.24411,-12.36358 15.3529,-19.66421c3.53969,-8.31078 4.71719,-16.94327 4.58822,-24.57138c-0.17047,-9.49023 -2.28558,-17.48236 -5.05274,-23.74996c-2.90391,-6.55349 -6.33239,-10.84035 -9.00606,-13.58276c-2.63591,-2.7043 -4.34309,-3.87037 -4.23338,-4.04136c0.07407,-0.11385 2.03278,0.65497 5.03152,3.18191c3.00313,2.53012 6.93027,6.80758 10.23777,13.4892c3.17195,6.38608 5.70502,14.68199 6.14893,24.60372c0.36581,7.99073 -0.6659,17.1219 -4.27444,26.09269c-3.18568,7.91715 -8.5845,15.73793 -16.33326,21.56359v0c-7.28477,5.45204 -16.45226,8.97851 -26.30408,9.67391c-8.96843,0.62717 -18.25537,-0.94806 -27.00747,-4.53268c-7.82129,-3.19157 -15.24839,-7.97447 -21.39195,-14.31357c-0.26977,-0.27867 -0.53671,-0.55969 -0.80074,-0.84342c-5.95037,-6.37033 -10.28452,-14.1388 -11.9107,-22.52197c-1.51254,-7.87915 -1.67191,-15.85292 -0.19754,-23.44884c1.35013,-6.91326 4.07143,-13.34543 7.81474,-18.87435c3.77599,-5.56545 8.51849,-10.16949 13.63819,-13.75768c5.48396,-3.84372 11.39545,-6.56355 17.24564,-8.3279c6.42673,-1.93932 12.78929,-2.74072 18.74961,-2.6564c6.72602,0.09335 12.85877,1.3241 18.17999,3.29575c6.57982,2.43798 11.70627,5.96827 15.44201,9.54943v0c9.23395,8.86443 9.64317,16.23707 9.97495,16.09934z" data-paper-data="{&quot;index&quot;:null}" fill="#000000" stroke="none" stroke-width="9.375" stroke-linecap="round" stroke-linejoin="round"/><path d="M249.505,123.58639c1.91362,0.33097 3.0052,2.96116 2.43735,5.87113c-0.56785,2.90971 -2.58161,5.00251 -4.49518,4.67124c-1.91265,-0.33082 -3.00424,-2.96101 -2.43639,-5.87098c0.56785,-2.90971 2.58113,-5.00258 4.49423,-4.6714z" data-paper-data="{&quot;index&quot;:null}" fill="#000000" stroke="none" stroke-width="9.375" stroke-linecap="round" stroke-linejoin="round"/><path d="M289.48132,130.07813c1.91362,0.33097 3.00521,2.96115 2.43735,5.87113c-0.56785,2.90971 -2.58162,5.0025 -4.49519,4.67123c-1.91265,-0.33082 -3.00424,-2.961 -2.43639,-5.87098c0.56785,-2.90971 2.58112,-5.0026 4.49422,-4.6714z" data-paper-data="{&quot;index&quot;:null}" fill="#000000" stroke="none" stroke-width="9.375" stroke-linecap="round" stroke-linejoin="round"/><path d="M214.21583,104.10494c0,0 0.297,11.28922 -3.9059,22.20369c-5.6064,14.55919 -26.0982,56.50465 -26.0982,56.50465c0,0 -15.3114,-16.08414 -15.77648,-30.24491c-0.27575,-8.3958 1.51442,-19.18023 1.51442,-19.18023l-25.81559,18.60256c0,0 1.96214,-33.1492 12.38325,-48.85147c9.94862,-14.99035 13.82871,-12.74344 13.82871,-12.74344c0,0 -32.16362,-6.78138 -31.85365,-7.06209c30.76444,-27.86067 66.7404,-37.30622 108.06878,-28.68359c72.04706,19.09411 50.60655,72.04324 50.60655,72.04324l-8.93429,-13.60802l-10.38106,14.01727l-9.69359,-18.29028l-8.66001,12.7771l-10.17446,-15.32906l-10.55401,11.96298l-7.21326,-14.8482l-10.87458,13.93712l-6.46661,-13.2073z" fill="#000000" stroke="none" stroke-width="0" stroke-linecap="round" stroke-linejoin="miter"/><path d="M213.19076,94.82059c0,0 -3.19989,20.3458 -7.4028,31.26028c-5.60639,14.55918 -22.84174,48.92867 -22.84174,48.92867c0,0 -10.43087,-8.70645 -10.89594,-22.86721c-0.27575,-8.3958 2.1429,-26.16986 2.1429,-26.16986l-26.80266,18.44226c0,0 2.65397,-24.93206 13.07507,-40.63434c9.94862,-14.99035 21.13893,-14.08908 21.13893,-14.08908c0,0 -35.12483,-7.26225 -34.81487,-7.54296c30.76444,-27.86067 76.63643,-29.62062 100.11741,-23.38966c62.4168,16.01062 49.32838,61.19813 49.32838,61.19813l-7.45369,-13.36759l-10.38106,14.01727l-9.69359,-18.29028l-8.66001,12.7771l-10.17446,-15.32906l-10.55401,11.96298l-7.21326,-14.8482l-10.87458,13.93712l-8.04003,-15.99556z" fill="#754200" stroke="none" stroke-width="0" stroke-linecap="round" stroke-linejoin="miter"/><path d="M241.11105,115.63688c0.01777,-0.12046 1.28194,0.16861 3.30518,1.11657c1.03153,0.4833 4.53049,2.25912 7.17724,4.60718c2.62962,2.33285 4.40928,5.237 4.77534,6.01655c0.72159,1.53725 0.66155,2.37446 0.47605,2.33897c-0.09253,-0.01763 -0.68158,-1.21432 -1.72448,-2.51657c-1.39932,-1.74731 -3.41806,-5.08648 -8.71092,-8.42163c-3.91406,-2.46634 -5.32115,-2.98887 -5.2984,-3.14105z" data-paper-data="{&quot;index&quot;:null}" fill="#000000" stroke="none" stroke-width="9.375" stroke-linecap="round" stroke-linejoin="round"/><path d="M266.51325,157.40233l0.21212,14.18329c0,0 -53.07902,-6.33394 -47.97504,-27.91343c7.34951,-31.07359 34.83257,6.59221 43.27667,11.08998c11.53207,6.14259 17.08021,0.59785 17.08021,0.59785" fill="#ffffff" stroke="#000000" stroke-width="1.5" stroke-linecap="round" stroke-linejoin="miter"/><path d="M242.10554,152.80993l-21.73185,-11.38949" fill="none" stroke="#000000" stroke-width="1.5" stroke-linecap="round" stroke-linejoin="miter"/><path d="M296.23944,248.15893c2.11082,3.44308 4.15326,6.8575 6.12841,10.23835c7.62409,13.04769 14.00892,24.97639 19.43408,36.18655v0c2.91694,6.02382 5.29321,11.2502 7.2565,16.59047c0.76424,2.07266 1.42382,4.04913 1.88218,6.09746c0.171,0.75443 0.30909,1.53495 0.3674,2.35115c-0.44472,0.37974 -0.94177,0.89263 -1.59569,1.47941c0.1233,-1.47896 0.52077,-2.77691 1.12664,-3.83249c1.16327,-0.99693 2.42949,-1.72287 3.50591,-2.30567c7.70573,-4.21451 12.06164,-6.78321 12.27299,-6.51534c0.34858,0.44175 -3.52788,3.73752 -10.94012,8.62637c-0.99133,0.66161 -2.07364,1.38569 -2.88646,2.21652c-1.13161,0.54906 -2.18591,1.25572 -3.17632,2.07301c-0.39909,-0.35316 -0.93222,-0.8549 -1.46894,-1.47325c-0.0743,-0.58626 -0.22625,-1.19824 -0.41237,-1.86636c-0.50968,-1.81335 -1.21846,-3.59914 -2.05524,-5.59025c-2.16336,-5.13035 -4.64686,-10.06896 -7.73899,-16.00753v0c-5.75268,-11.03853 -12.20255,-22.59924 -19.90044,-35.60597c-1.97969,-3.34527 -4.01628,-6.72663 -6.11118,-10.14423c-14.95947,-24.40378 -79.41047,13.9633 -79.41047,13.9633c0,0 65.28695,-48.19366 83.72215,-16.48151z" data-paper-data="{&quot;index&quot;:null}" fill="#000000" stroke="none" stroke-width="9.375" stroke-linecap="round" stroke-linejoin="round"/><g stroke="none" stroke-width="0" stroke-linejoin="miter"><g><path d="M160.38856,206.27306c0,0 6.63357,13.44009 14.7163,15.49646c8.08273,2.05636 8.02741,-9.71015 8.02741,-9.71015c0,0 3.45584,17.8552 -3.14364,25.30223c-6.59947,7.44702 -17.10654,-2.45143 -17.10654,-2.45143" fill="url(#color-1)" stroke-linecap="round"/><path d="M139.85863,218.88526c0,0 13.44009,-6.63357 15.49646,-14.7163c2.05636,-8.08273 -9.71015,-8.02741 -9.71015,-8.02741c0,0 17.8552,-3.45584 25.30223,3.14364c7.44702,6.59947 -2.45143,17.10654 -2.45143,17.10654" fill="url(#color-2)" stroke-linecap="round"/><path d="M153.70763,241.86908c0,0 -6.63357,-13.44009 -14.7163,-15.49646c-8.08273,-2.05636 -8.02741,9.71015 -8.02741,9.71015c0,0 -3.45584,-17.8552 3.14364,-25.30223c6.59947,-7.44702 17.10654,2.45143 17.10654,2.45143" fill="url(#color-3)" stroke-linecap="round"/><path d="M174.23755,229.25687c0,0 -13.44009,6.63357 -15.49646,14.7163c-2.05636,8.08273 9.71015,8.02741 9.71015,8.02741c0,0 -17.8552,3.45584 -25.30223,-3.14364c-7.44702,-6.59947 2.45143,-17.10654 2.45143,-17.10654" fill="url(#color-4)" stroke-linecap="round"/><path d="M163.13114,216.2099l1.77813,13.94422l-13.94422,1.77813l-1.77813,-13.94422zM156.31925,218.83861c-2.84608,0.36293 -4.85908,2.96435 -4.49616,5.81043c0.36293,2.84608 2.96435,4.85908 5.81043,4.49616c2.84608,-0.36293 4.85908,-2.96435 4.49616,-5.81043c-0.36293,-2.84608 -2.96435,-4.85908 -5.81043,-4.49616z" fill="url(#color-5)" stroke-linecap="butt"/></g><path d="M163.9635,215.13423c4.93568,3.81928 5.84071,10.91657 2.02144,15.85225c-3.81928,4.93568 -10.91657,5.84071 -15.85225,2.02144c-4.93568,-3.81928 -5.84071,-10.91657 -2.02144,-15.85225c3.81928,-4.93568 10.91657,-5.84071 15.85225,-2.02144z" fill="url(#color-6)" stroke-linecap="butt"/></g></g></g></svg>