<svg version="1.1" xmlns="http://www.w3.org/2000/svg" xmlns:xlink="http://www.w3.org/1999/xlink" width="258.17032" height="258.17032" viewBox="0,0,258.17032,258.17032"><g transform="translate(-110.91484,-50.91484)"><g data-paper-data="{&quot;isPaintingLayer&quot;:true}" fill="#ff0064" fill-rule="nonzero" stroke="none" stroke-linecap="butt" stroke-linejoin="miter" stroke-miterlimit="10" stroke-dasharray="" stroke-dashoffset="0" style="mix-blend-mode: normal"><path d="M178.75001,180.00001c0,-33.8274 27.4226,-61.25 61.25,-61.25c33.8274,0 61.25,27.4226 61.25,61.25c0,33.8274 -27.42261,61.25 -61.25,61.25c-33.8274,0 -61.25,-27.4226 -61.25,-61.25zM240.00001,211.32498c16.9137,0 30.625,-13.7113 30.625,-30.625c0,-16.9137 -13.7113,-30.625 -30.625,-30.625c-16.9137,0 -30.625,13.7113 -30.625,30.625c0,16.9137 13.7113,30.625 30.625,30.625z" stroke-width="0.5"/><path d="M216.10507,50.91484h47.78987l-23.89493,50.26572z" data-paper-data="{&quot;origRot&quot;:0}" stroke-width="0"/><path d="M240,258.81944l23.89493,50.26572h-47.78987z" data-paper-data="{&quot;origRot&quot;:0,&quot;index&quot;:null}" stroke-width="0"/><path d="M369.08516,156.10506v47.78987l-50.26572,-23.89493z" data-paper-data="{&quot;origRot&quot;:0}" stroke-width="0"/><path d="M161.18056,180l-50.26572,23.89493v-47.78987z" data-paper-data="{&quot;origRot&quot;:0,&quot;index&quot;:null}" stroke-width="0"/></g></g></svg>