<svg version="1.1" xmlns="http://www.w3.org/2000/svg" xmlns:xlink="http://www.w3.org/1999/xlink" width="1885.8159" height="1885.8159" viewBox="0,0,1885.8159,1885.8159"><defs><linearGradient x1="-702.90795" y1="180" x2="240.16638" y2="180" gradientUnits="userSpaceOnUse" id="color-1"><stop offset="0" stop-color="#ffffff" stop-opacity="0"/><stop offset="1" stop-color="#ffffff"/></linearGradient><linearGradient x1="1182.90795" y1="180" x2="239.83362" y2="180" gradientUnits="userSpaceOnUse" id="color-2"><stop offset="0" stop-color="#ffffff" stop-opacity="0"/><stop offset="1" stop-color="#ffffff"/></linearGradient><linearGradient x1="240" y1="-762.90795" x2="240" y2="180.16638" gradientUnits="userSpaceOnUse" id="color-3"><stop offset="0" stop-color="#ffffff" stop-opacity="0"/><stop offset="1" stop-color="#ffffff"/></linearGradient><linearGradient x1="240" y1="1122.90795" x2="240" y2="179.83362" gradientUnits="userSpaceOnUse" id="color-4"><stop offset="0" stop-color="#ffffff" stop-opacity="0"/><stop offset="1" stop-color="#ffffff"/></linearGradient></defs><g transform="translate(702.90795,762.90795)"><g data-paper-data="{&quot;isPaintingLayer&quot;:true}" fill-rule="nonzero" stroke-linecap="butt" stroke-linejoin="miter" stroke-miterlimit="10" stroke-dasharray="" stroke-dashoffset="0" style="mix-blend-mode: normal"><g stroke="none" stroke-width="0"><path d="M-702.90795,185.08379v-10.16757h943.07433v10.16757z" fill="url(#color-1)"/><path d="M239.83362,185.08379v-10.16754h943.07433v10.16754z" data-paper-data="{&quot;index&quot;:null}" fill="url(#color-2)"/></g><g stroke="none" stroke-width="0"><path d="M235.32292,-762.90795h9.35417v943.07433h-9.35417z" fill="url(#color-3)"/><path d="M235.32295,179.83362h9.35414v943.07433h-9.35414z" data-paper-data="{&quot;index&quot;:null}" fill="url(#color-4)"/></g><path d="M240,10.26148c46.82814,0 89.2677,19.02055 119.98791,49.75061c30.73005,30.72021 49.75061,73.15976 49.75061,119.98791c0,46.82814 -19.02055,89.2677 -49.75061,119.98791c-30.72021,30.73005 -73.15976,49.75061 -119.98791,49.75061c-46.82814,0 -89.2677,-19.02055 -119.98791,-49.75061c-30.73005,-30.72021 -49.75061,-73.15976 -49.75061,-119.98791c0,-46.82814 19.02055,-89.2677 49.75061,-119.98791c30.72021,-30.73005 73.15976,-49.75061 119.98791,-49.75061z" id="ID0.8015217040665448" fill="none" stroke="#ffffff" stroke-width="7.5"/><path d="M173.4674,180c0,-36.74499 29.78761,-66.5326 66.5326,-66.5326c36.74499,0 66.5326,29.78761 66.5326,66.5326c0,36.74499 -29.78761,66.5326 -66.5326,66.5326c-36.74499,0 -66.5326,-29.78761 -66.5326,-66.5326z" fill="#ffffff" stroke="none" stroke-width="0"/></g></g></svg>