<svg xmlns="http://www.w3.org/2000/svg" xmlns:xlink="http://www.w3.org/1999/xlink" version="1.1" width="15.36553" height="24.24719" viewBox="0,0,15.36553,24.24719"><g><g data-paper-data="{&quot;isPaintingLayer&quot;:true}" fill-rule="nonzero" stroke-linejoin="miter" stroke-miterlimit="10" stroke-dasharray="" stroke-dashoffset="0" style="mix-blend-mode: normal"><path d="M 5.0888 12.6719 C 5.0888 13.3497 4.0056 13.8991 2.6694 13.8991 C 2.0702 13.8991 1.925 13.7886 1.5024 13.6056 C 0.9827 13.3805 0.25 13.0457 0.25 12.6719 C 0.25 12.4046 0.8217 12.1572 1.1077 11.9557 C 1.547 11.6462 1.8602 11.4446 2.6694 11.4446 C 4.0056 11.4446 5.0888 11.9941 5.0888 12.6719 Z " fill="#2e2e2e" stroke="#000000" stroke-linecap="butt" stroke-width="0.5"/><g data-paper-data="{&quot;index&quot;:null}" stroke-linecap="butt"><path d="M 8.3459 13.1209 C 8.3842 12.7637 8.2103 12.6438 8.3771 12.6035 C 8.5353 12.5652 8.4828 12.767 8.6702 13.0384 C 8.9247 13.4068 9.4181 13.9526 9.5886 14.6578 C 9.8847 15.8826 9.8223 16.9486 9.4493 17.0388 C 9.0762 17.129 8.5337 16.2092 8.2377 14.9844 C 8.0739 14.307 8.2984 13.5629 8.3458 13.1209 Z " fill="#000000" stroke-width="0.5" stroke="#000000"/><path d="M 9.2071 15.7066 C 9.6174 15.6663 9.9804 15.9432 10.018 16.3252 C 10.029 16.4377 10.2869 16.7265 10.245 16.8254 C 10.1444 17.0624 9.6326 17.0614 9.3432 17.0898 C 8.9329 17.1302 8.5699 16.8532 8.5323 16.4713 C 8.4948 16.0893 8.7969 15.747 9.2071 15.7066 Z " fill="#ffc885" stroke-width="0.5" stroke="#000000"/></g><g stroke-linecap="butt"><path d="M 8.6407 15.2632 C 8.6407 18.0351 7.9809 20.2822 5.7065 20.2822 C 3.4321 20.2822 2.5664 17.9322 2.5664 15.1603 C 2.5664 12.3884 3.4321 10.2443 5.7065 10.2443 C 7.9809 10.2443 8.6407 12.4914 8.6407 15.2632 Z " fill="#000000" stroke-width="0.5" stroke="#000000"/><path d="M 8.5377 17.94 C 8.5377 18.267 7.2694 18.532 5.5778 18.532 C 3.8863 18.532 2.7209 18.267 2.7209 17.94 C 2.7209 17.858 2.5369 17.7798 2.6736 17.7088 C 3.0817 17.4967 4.3108 17.3481 5.5778 17.3481 C 6.5016 17.3481 7.6594 17.4271 8.1931 17.5521 C 8.6368 17.656 8.5377 17.7916 8.5377 17.94 Z " fill="#9c9c9c" stroke-width="0.5" stroke="#000000"/><path d="M 8.7943 15.778 C 8.7943 16.105 7.4158 16.37 5.5772 16.37 C 3.7386 16.37 2.472 16.105 2.472 15.778 C 2.472 15.696 2.272 15.6178 2.4206 15.5468 C 2.8641 15.3347 4.2001 15.186 5.5772 15.186 C 6.5812 15.186 7.8397 15.2651 8.4198 15.3901 C 8.9019 15.494 8.7943 15.6296 8.7943 15.778 Z " fill="#9c9c9c" stroke-width="0.5" stroke="#000000"/><path d="M 8.743 13.4616 C 8.743 13.7885 7.3865 14.0536 5.5773 14.0536 C 3.7681 14.0536 2.5218 13.7885 2.5218 13.4616 C 2.5218 13.3795 2.325 13.3013 2.4712 13.2303 C 2.9076 13.0183 4.2222 12.8696 5.5773 12.8696 C 6.5653 12.8696 7.8036 12.9486 8.3744 13.0736 C 8.8489 13.1775 8.743 13.3132 8.743 13.4616 Z " fill="#9c9c9c" stroke-width="0.5" stroke="#000000"/></g><path d="M 13.9743 8.8605 C 12.9751 12.3102 9.3244 14.284 5.8202 13.269 C 2.3161 12.254 0.2854 8.6347 1.2845 5.185 C 2.2837 1.7353 5.9344 -0.2385 9.4386 0.7765 C 12.9428 1.7914 14.9735 5.4108 13.9743 8.8605 Z " fill="#ffc885" stroke="#000000" stroke-linecap="butt" stroke-width="0.5"/><path d="M 15.1155 5.1892 C 14.8477 6.1141 14.6946 6.2829 13.275 5.7524 C 12.8991 5.6119 12.1993 5.6549 11.559 5.3911 C 11.4348 5.3399 11.435 4.8558 11.3029 4.8302 C 11.0128 4.774 10.5869 5.1971 10.3523 5.0358 C 10.1767 4.9151 10.107 4.471 9.9466 4.4099 C 9.5797 4.27 8.8638 5.1159 8.4723 5.0062 C 8.4302 4.9944 6.987 3.7113 6.9434 3.7065 C 4.7168 3.4614 1.708 6.8906 1.1699 6.7179 C 0.8424 6.6128 2.5193 3.1607 2.6944 2.5562 C 2.8435 2.0414 3.1591 1.977 3.6702 1.6888 C 3.811 1.6094 3.803 1.1631 4.0082 1.1089 C 4.0843 1.0888 4.4234 1.2318 4.5812 1.1292 C 4.7056 1.0483 4.6522 0.7184 4.7157 0.6975 C 4.9691 0.6141 5.3463 0.7283 5.6304 0.6566 C 6.7998 0.3616 8.1032 0.023 9.5997 0.4565 C 13.1087 1.4728 15.5782 3.5918 15.1155 5.1893 Z " fill="#000000" stroke="#000000" stroke-linecap="butt" stroke-width="0.5"/><path d="M 5.3147 9.2371 L 4.3896 8.9156 L 5.3812 8.4525 L 4.5901 8.2234 " fill="none" stroke="#000000" stroke-linecap="round" stroke-width="0.5"/><path d="M 12.1538 11.2556 L 11.066 10.9405 L 12.1995 10.3577 L 11.4084 10.1286 " fill="none" stroke="#000000" stroke-linecap="round" stroke-width="0.5"/><path d="M 7.6487 11.3399 C 7.7067 11.1396 7.9161 11.0243 8.1164 11.0823 C 8.3166 11.1403 8.4319 11.3497 8.3739 11.55 C 8.3159 11.7502 8.1066 11.8655 7.9063 11.8075 C 7.706 11.7495 7.5907 11.5402 7.6487 11.3399 Z " fill="#000000" stroke="none" stroke-linecap="butt" stroke-width="0.5"/><g stroke-linecap="butt"><path d="M 4.4138 14.7407 C 4.6653 15.9754 4.5643 17.0384 4.1882 17.115 C 3.8121 17.1917 3.3034 16.2528 3.0519 15.0182 C 2.907 14.3072 3.1223 13.6036 3.1964 13.162 C 3.2511 12.8368 3.1179 12.6763 3.2774 12.6438 C 3.4455 12.6096 3.3389 12.792 3.5252 13.0991 C 3.7557 13.4792 4.2747 14.0578 4.4138 14.7407 Z " fill="#000000" stroke-width="0.5" stroke="#000000"/><path d="M 4.7778 16.2121 C 4.9058 16.5739 4.6946 16.9787 4.306 17.1163 C 4.0318 17.2133 3.5687 17.4314 3.3772 17.2595 C 3.2972 17.1877 3.4082 16.8167 3.3705 16.7102 C 3.2424 16.3484 3.4537 15.9436 3.8423 15.806 C 4.2309 15.6685 4.6497 15.8503 4.7778 16.2121 Z " fill="#ffc885" stroke-width="0.5" stroke="#000000"/></g><path d="M 8.0744 19.6388 C 8.0744 20.0226 6.9912 20.3337 5.655 20.3337 C 4.3188 20.3337 3.3606 20.4475 3.3606 20.0637 C 3.3606 19.8869 3.0933 19.1201 3.472 18.9975 C 3.9152 18.8539 4.9345 18.9438 5.655 18.9438 C 6.443 18.9438 7.4679 18.7969 7.9097 18.9643 C 8.2171 19.0809 8.0744 19.4813 8.0744 19.6388 Z " fill="#0035ff" stroke="#000000" stroke-linecap="butt" stroke-width="0.5"/><path d="M 4.2137 18.635 C 4.2137 18.635 4.5154 18.2249 4.4834 18.0008 C 4.4473 17.7479 4.0078 17.1936 4.0078 17.1936 L 7.0964 17.1421 C 7.0964 17.1421 6.736 17.5327 6.736 17.7599 C 6.736 17.9956 7.0964 18.532 7.0964 18.532 Z " fill="#737373" stroke="#000000" stroke-linecap="round" stroke-width="0.5"/><g stroke-linecap="butt"><path d="M 4.2137 21.789 C 4.2137 22.8202 3.9948 23.6562 3.7247 23.6562 C 3.4546 23.6562 3.2356 22.8203 3.2356 21.789 C 3.2356 20.7578 3.1546 19.7469 3.4247 19.7469 C 3.5232 19.7469 4.1899 19.7082 4.2666 19.8995 C 4.4003 20.2328 4.2137 21.134 4.2137 21.7891 Z " fill="#0035ff" stroke-width="0.5" stroke="#000000"/><path d="M 5.7522 23.2961 C 5.7522 23.6515 5.1415 23.9395 4.3881 23.9395 C 3.6347 23.9395 3.024 23.6514 3.024 23.2961 C 3.024 22.9407 3.6347 22.6526 4.3881 22.6526 C 5.1415 22.6526 5.7522 22.9407 5.7522 23.2961 Z " fill="#000000" stroke-width="0.5" stroke="#000000"/></g><g stroke-linecap="butt"><path d="M 7.6729 21.8467 C 7.6729 22.8779 7.454 23.7139 7.1839 23.7139 C 6.9138 23.7139 6.6949 22.8779 6.6949 21.8467 C 6.6949 21.1218 6.5281 20.2434 6.6862 19.9341 C 6.753 19.8033 7.1287 19.8795 7.2089 19.8795 C 7.2768 19.8795 7.6664 19.8573 7.7251 19.9527 C 7.9001 20.237 7.6729 21.0746 7.6729 21.8467 Z " fill="#0035ff" stroke-width="0.5" stroke="#000000"/><path d="M 9.2115 23.3537 C 9.2115 23.7091 8.6007 23.9972 7.8473 23.9972 C 7.0939 23.9972 6.4832 23.7091 6.4832 23.3537 C 6.4832 22.9983 7.0939 22.7103 7.8473 22.7103 C 8.6007 22.7103 9.2115 22.9984 9.2115 23.3537 Z " fill="#000000" stroke-width="0.5" stroke="#000000"/></g><path d="M 3.4901 20.1693 C 3.4901 20.1693 3.4034 20.042 3.4034 19.956 C 3.4034 19.7975 3.4034 19.2799 3.4034 19.2799 L 8.0487 19.251 C 8.0487 19.251 7.7016 19.7397 7.7016 19.8982 C 7.7016 19.9841 7.5136 20.1404 7.5136 20.1404 Z " fill="#0035ff" stroke="none" stroke-linecap="butt" stroke-width="0.5"/><path d="M 6.0621 7.4144 L 8.3779 8.2565 " fill="none" stroke="#000000" stroke-linecap="round" stroke-width="0.5"/><path d="M 9.5357 8.5197 L 11.8515 9.3618 " fill="none" stroke="#000000" stroke-linecap="round" stroke-width="0.5"/></g></g></svg>