<svg version="1.1" xmlns="http://www.w3.org/2000/svg" xmlns:xlink="http://www.w3.org/1999/xlink" width="550.25806" height="424.70968" viewBox="0,0,550.25806,424.70968"><defs><linearGradient x1="34.66218" y1="73.1052" x2="74.27961" y2="73.1052" gradientUnits="userSpaceOnUse" id="color-1"><stop offset="0" stop-color="#b0ff8c"/><stop offset="1" stop-color="#ff8ca2"/></linearGradient><linearGradient x1="22.04796" y1="73.1076" x2="86.89002" y2="73.1076" gradientTransform="translate(-105.70781,-214.67584) scale(4.79432,2.77239)" gradientUnits="userSpaceOnUse" id="color-2"><stop offset="0" stop-color="#2dc46b"/><stop offset="1" stop-color="#c42d7b"/></linearGradient></defs><g transform="translate(40.54838,34.61283)"><g data-paper-data="{&quot;isPaintingLayer&quot;:true}" fill-rule="nonzero" stroke-linejoin="miter" stroke-miterlimit="10" stroke-dasharray="" stroke-dashoffset="0" style="mix-blend-mode: normal"><path d="M-39.54838,389.09685v-422.70968h548.25806v422.70968z" fill="#f5f5f5" stroke="#000000" stroke-width="2" stroke-linecap="butt"/><path d="M9.10301,164.99173v-156.23621h222.06868v156.23621z" fill="#f5f5f5" stroke="#8e8e8e" stroke-width="3.5" stroke-linecap="butt"/><text transform="translate(17.82641,48.94726) scale(0.33747,0.33747)" font-size="40" xml:space="preserve" fill="#8e8e8e" fill-rule="nonzero" stroke="none" stroke-width="1" stroke-linecap="butt" stroke-linejoin="miter" stroke-miterlimit="10" stroke-dasharray="" stroke-dashoffset="0" font-family="&quot;ヒラギノ角ゴ Pro W3&quot;, &quot;Hiragino Kaku Gothic Pro&quot;, Osaka, &quot;メイリオ&quot;, Meiryo, &quot;ＭＳ Ｐゴシック&quot;, &quot;MS PGothic&quot;" font-weight="normal" text-anchor="start" style="mix-blend-mode: normal"><tspan x="0" dy="0">Joined: 31st January 2017</tspan></text><text transform="translate(13.97296,106.99716) scale(0.29708,0.29708)" font-size="40" xml:space="preserve" fill="#8e8e8e" fill-rule="nonzero" stroke="none" stroke-width="1" stroke-linecap="butt" stroke-linejoin="miter" stroke-miterlimit="10" stroke-dasharray="" stroke-dashoffset="0" font-family="&quot;ヒラギノ角ゴ Pro W3&quot;, &quot;Hiragino Kaku Gothic Pro&quot;, Osaka, &quot;メイリオ&quot;, Meiryo, &quot;ＭＳ Ｐゴシック&quot;, &quot;MS PGothic&quot;" font-weight="normal" text-anchor="start" style="mix-blend-mode: normal"><tspan x="0" dy="0">Scrabble's made a lot of animations</tspan><tspan x="0" dy="46.150000000000006px">and contest entries. He was added </tspan><tspan x="0" dy="46.150000000000006px">for the potential of a dual-weilding</tspan><tspan x="0" dy="46.150000000000006px">character.</tspan></text><text transform="translate(7.69515,344.82017) scale(1.4788,1.4788)" font-size="40" xml:space="preserve" fill="#8e8e8e" fill-rule="nonzero" stroke="none" stroke-width="1" stroke-linecap="butt" stroke-linejoin="miter" stroke-miterlimit="10" stroke-dasharray="" stroke-dashoffset="0" font-family="&quot;ヒラギノ角ゴ Pro W3&quot;, &quot;Hiragino Kaku Gothic Pro&quot;, Osaka, &quot;メイリオ&quot;, Meiryo, &quot;ＭＳ Ｐゴシック&quot;, &quot;MS PGothic&quot;" font-weight="normal" text-anchor="start" style="mix-blend-mode: normal"><tspan x="0" dy="0">18</tspan></text><text transform="translate(15.43463,35.42795) scale(0.13422,0.13422)" font-size="40" xml:space="preserve" fill="#8e8e8e" fill-rule="nonzero" stroke="none" stroke-width="1" stroke-linecap="butt" stroke-linejoin="miter" stroke-miterlimit="10" stroke-dasharray="" stroke-dashoffset="0" font-family="&quot;ヒラギノ角ゴ Pro W3&quot;, &quot;Hiragino Kaku Gothic Pro&quot;, Osaka, &quot;メイリオ&quot;, Meiryo, &quot;ＭＳ Ｐゴシック&quot;, &quot;MS PGothic&quot;" font-weight="normal" text-anchor="start" style="mix-blend-mode: normal"><tspan x="0" dy="0">@scrabble1234567890</tspan></text><text transform="translate(16.61026,29.32811) scale(0.50346,0.50346)" font-size="40" xml:space="preserve" fill="#8e8e8e" fill-rule="nonzero" stroke="none" stroke-width="1" stroke-linecap="butt" stroke-linejoin="miter" stroke-miterlimit="10" stroke-dasharray="" stroke-dashoffset="0" font-family="&quot;ヒラギノ角ゴ Pro W3&quot;, &quot;Hiragino Kaku Gothic Pro&quot;, Osaka, &quot;メイリオ&quot;, Meiryo, &quot;ＭＳ Ｐゴシック&quot;, &quot;MS PGothic&quot;" font-weight="normal" text-anchor="start" style="mix-blend-mode: normal"><tspan x="0" dy="0">James</tspan></text><g stroke-linecap="butt"><text transform="translate(257.05438,104.77766) scale(0.61121,0.61121)" font-size="40" xml:space="preserve" fill="#8e8e8e" fill-rule="nonzero" stroke="none" stroke-width="1" stroke-linecap="butt" stroke-linejoin="miter" stroke-miterlimit="10" stroke-dasharray="" stroke-dashoffset="0" font-family="&quot;ヒラギノ角ゴ Pro W3&quot;, &quot;Hiragino Kaku Gothic Pro&quot;, Osaka, &quot;メイリオ&quot;, Meiryo, &quot;ＭＳ Ｐゴシック&quot;, &quot;MS PGothic&quot;" font-weight="normal" text-anchor="start" style="mix-blend-mode: normal"><tspan x="0" dy="0">2019</tspan></text><path d="M249.94927,123.02131v-118.51155h228.33349v118.51155z" fill="none" stroke="#8e8e8e" stroke-width="3.5"/></g><g stroke-linecap="butt"><text transform="translate(257.05438,223.33544) scale(0.61121,0.61121)" font-size="40" xml:space="preserve" fill="#8e8e8e" fill-rule="nonzero" stroke="none" stroke-width="1" stroke-linecap="butt" stroke-linejoin="miter" stroke-miterlimit="10" stroke-dasharray="" stroke-dashoffset="0" font-family="&quot;ヒラギノ角ゴ Pro W3&quot;, &quot;Hiragino Kaku Gothic Pro&quot;, Osaka, &quot;メイリオ&quot;, Meiryo, &quot;ＭＳ Ｐゴシック&quot;, &quot;MS PGothic&quot;" font-weight="normal" text-anchor="start" style="mix-blend-mode: normal"><tspan x="0" dy="0">2020</tspan></text><path d="M249.94927,241.57911v-118.51155h228.33349v118.51155z" fill="none" stroke="#8e8e8e" stroke-width="3.5"/></g><g stroke="none" stroke-linecap="butt"><path d="M75.38527,91.27756c-10.03632,0 -18.17236,-8.13604 -18.17236,-18.17236c0,-10.03632 8.13604,-18.17236 18.17236,-18.17236c10.03632,0 18.17236,8.13604 18.17236,18.17236c0,10.03632 -8.13604,18.17236 -18.17236,18.17236z" data-paper-data="{&quot;index&quot;:null}" fill="#ff8ca2" stroke-width="0"/><path d="M15.38415,73.1052c0,-10.03632 8.13604,-18.17236 18.17236,-18.17236c10.03632,0 18.17236,8.13604 18.17236,18.17236c0,10.03632 -8.13604,18.17236 -18.17236,18.17236c-10.03632,0 -18.17236,-8.13604 -18.17236,-18.17236z" fill="#b0ff8c" stroke-width="0"/><path d="M34.66218,91.20379v-36.19726h39.61743v36.19726z" fill="url(#color-1)" stroke-width="0"/><text transform="translate(22.04854,77.43358) scale(0.20858,0.3607)" font-size="40" xml:space="preserve" fill="url(#color-2)" fill-rule="nonzero" stroke="none" stroke-width="1" stroke-linecap="butt" stroke-linejoin="miter" stroke-miterlimit="10" stroke-dasharray="" stroke-dashoffset="0" font-family="&quot;ヒラギノ角ゴ Pro W3&quot;, &quot;Hiragino Kaku Gothic Pro&quot;, Osaka, &quot;メイリオ&quot;, Meiryo, &quot;ＭＳ Ｐゴシック&quot;, &quot;MS PGothic&quot;" font-weight="normal" text-anchor="start" style="mix-blend-mode: normal"><tspan x="0" dy="0">Artist/Animator</tspan></text></g><g data-paper-data="{&quot;index&quot;:null}"><path d="M370.85736,211.53469v-49.50599h8.81039v49.50599z" fill="#6aff00" stroke="#000000" stroke-width="1.5" stroke-linecap="butt"/><path d="M377.15049,164.12642v13.00581" fill="none" stroke="#4cb600" stroke-width="1.5" stroke-linecap="round"/><path d="M373.79416,181.7472v-17.62078" fill="none" stroke="#4cb600" stroke-width="1.5" stroke-linecap="round"/><path d="M393.93219,151.4003c0,4.53829 -1.51701,8.72226 -4.07161,12.07247c-3.64072,4.77461 -9.38886,7.8558 -15.85665,7.8558c-11.00607,0 -19.92826,-8.92218 -19.92826,-19.92826c0,-11.00608 8.92219,-19.92826 19.92826,-19.92826c11.00608,0 19.92826,8.92219 19.92826,19.92826z" fill="#ffffff" stroke="#000000" stroke-width="1.5" stroke-linecap="butt"/><path d="M370.99008,132.69441c0,0 -7.57696,5.31123 -10.91605,11.90461c-1.84094,3.63513 -1.11598,11.27259 -0.51084,12.76981c2.37912,5.88623 9.33493,10.34547 14.37129,10.96423c8.64093,1.06162 17.13081,-7.21336 17.13081,-7.21336c0,0 -2.83024,9.46548 -14.99001,10.00205c-1.83998,0.0812 -7.20509,-1.21423 -9.39161,-1.40658c-4.82773,-0.4247 -9.22587,-6.52215 -11.04344,-11.75919c-1.05505,-3.03998 -0.63862,-6.26126 -0.72548,-8.93308c-0.92644,-4.01182 3.97117,-10.68786 8.54647,-13.92342c3.90068,-2.75849 7.5289,-2.40508 7.5289,-2.40508z" fill="#c4d3ff" stroke="none" stroke-width="0" stroke-linecap="butt"/><path d="M374.14378,171.32857c-11.00608,0 -19.92826,-8.92219 -19.92826,-19.92826c0,-11.00608 8.92219,-19.92826 19.92826,-19.92826c11.00608,0 19.92826,8.92219 19.92826,19.92826c0,11.00608 -8.92219,19.92826 -19.92826,19.92826z" fill="none" stroke="#000000" stroke-width="1.5" stroke-linecap="butt"/><path d="M381.84249,152.18827c0.96545,0 1.7481,2.00358 1.7481,4.47512c0,2.47154 -0.78265,4.47512 -1.7481,4.47512c-0.96544,0 -1.74809,-2.00358 -1.74809,-4.47512c0,-2.47154 0.78264,-4.47512 1.74809,-4.47512z" fill="#000000" stroke="#000000" stroke-width="1.5" stroke-linecap="butt"/><path d="M376.2486,152.32812c0.96545,0 1.7481,2.00358 1.7481,4.47512c0,2.47154 -0.78265,4.47512 -1.7481,4.47512c-0.96545,0 -1.7481,-2.00358 -1.7481,-4.47512c0,-2.47154 0.78265,-4.47512 1.7481,-4.47512z" fill="#000000" stroke="#000000" stroke-width="1.5" stroke-linecap="butt"/><path d="M380.6726,198.04782l-0.52416,-8.70033l0.17048,-17.87907" fill="none" stroke="#000000" stroke-width="1.5" stroke-linecap="round"/><path d="M370.66945,172.09773l-0.86995,16.83558l-0.71948,9.68433" fill="none" stroke="#000000" stroke-width="1.5" stroke-linecap="round"/><path d="M379.54976,210.48583l0.47059,9.85211l0.30928,15.55369" fill="none" stroke="#000000" stroke-width="1.5" stroke-linecap="round"/><path d="M371.08898,210.69561l-1.47854,25.38596" fill="none" stroke="#000000" stroke-width="1.5" stroke-linecap="round"/><path d="M389.19238,138.76125c0,0 -2.21785,8.32816 -5.14969,8.32816c-2.67291,0 -11.73649,-8.32816 -11.73649,-8.32816v-9.07184c0,0 8.63449,0.94456 11.49697,0.94456c1.6253,0 2.23143,-0.75693 3.83559,-0.92372c1.12262,-0.11672 1.55361,-0.02083 1.55361,-0.02083v9.07184z" fill="#533000" stroke="none" stroke-width="1.5" stroke-linecap="butt"/><g data-paper-data="{&quot;index&quot;:null}" stroke="none" stroke-width="1.5" stroke-linecap="butt"><path d="M354.47088,154.99353c0,-0.19068 -0.8674,-0.85665 -1.17641,-1.89814c-0.59591,-2.0085 -1.01811,-5.10385 -1.02976,-6.7085c-0.01894,-2.60844 0.68525,-5.45443 0.68525,-5.45443c0,0 0.52849,-2.49773 1.28987,-4.44244c0.19596,-0.50054 0.40736,-0.96445 0.62914,-1.3397c0.27434,-0.46417 1.73944,-3.38983 3.17794,-4.43766c2.68674,-1.95708 6.67991,-0.29584 6.67991,-0.29584c0,0 -0.70907,1.353 -0.16112,1.77656c0.26315,0.20341 1.99631,-2.49022 4.35106,-3.28363c2.35475,-0.79341 6.28858,-0.30132 6.28858,-0.30132c0,0 -2.05701,3.1509 -1.56674,3.61057c0.53336,0.50007 2.51993,0.06185 3.63688,0.22673c1.72558,0.25473 2.6302,0.9424 2.6302,0.9424l-1.82128,2.31942c0,0 2.17978,-0.22478 3.59329,0.87117c1.41351,1.09595 2.66035,3.97754 2.66035,3.97754c0,0 -4.21262,0.88361 -3.17755,3.03158c1.03507,2.14797 5.33793,1.45164 5.33793,1.45164c0,0 -0.81225,3.14066 -3.36937,3.83432c-0.8441,0.22897 -4.93869,-1.55162 -5.24559,-1.49071c-0.39026,0.07745 -1.41566,0.99213 -1.41566,0.99213c0,0 -5.36379,-0.38555 -7.69711,-1.10603c-3.44571,-1.06395 -2.74119,-0.94971 -2.74119,-0.94971l-0.54656,1.57436c0,0 -5.21827,-1.71656 -6.11144,-1.45235c-2.90518,0.85936 -4.90067,9.27777 -4.90067,8.55203z" data-paper-data="{&quot;index&quot;:null}" fill="#533000"/><path d="M376.45584,148.38247c-1.15482,0 -3.97323,-0.35573 -6.31543,-0.82386c-2.32733,-0.46516 -3.91077,-1.04275 -3.91077,-1.04275l-0.81287,1.32317c0,0 -3.53091,-1.11914 -5.53733,-1.37388c-0.76905,-0.09764 -0.81373,0.22323 -1.21789,0.35237c-0.81698,0.26104 -2.67185,5.95813 -3.87514,7.87388c-0.55462,0.88301 -0.38953,0.26628 -0.38953,0.26628c0,0 -0.83224,-1.40459 -1.16783,-2.59186c-0.53164,-1.88095 -0.90776,-5.61305 -0.70397,-5.86467c0.13229,-0.16335 0.12033,4.25941 1.52255,3.83699c1.81175,-0.54579 2.60457,-4.84255 5.12467,-6.81542c1.25672,-0.98383 4.68735,-0.02105 5.59266,-0.11457c0.12069,-0.01247 7.08262,2.84067 11.78017,2.33686c3.82383,-0.4101 4.35226,-2.06246 4.95313,-1.53371c0.56862,0.50035 1.0771,0.76003 1.0771,0.76003l3.83257,-0.00608c0,0 -0.48851,2.95354 -3.59236,3.89748c-0.62907,0.19131 -0.91844,-0.39402 -2.44392,-0.50921c-1.52548,-0.11519 -2.29036,0.02897 -3.91579,0.02897z" data-paper-data="{&quot;index&quot;:null}" fill="#3f2500"/><path d="M356.23682,132.89071c-0.0564,-0.17655 1.12951,-2.28638 3.42502,-3.02039c1.87137,-0.59839 5.1163,0.36566 5.1163,0.36566c0,0 -0.48308,0.75785 -0.47551,1.40424c0.00648,0.55275 0.40286,0.68227 0.50851,0.5284c0.74138,-1.07974 1.78689,-1.86199 2.97762,-2.70205c1.89743,-1.33863 2.9001,-1.04391 4.77667,-1.01168c1.18669,0.02038 2.6862,0.03151 2.6862,0.03151c0,0 2.89794,0.91359 4.59298,1.31934c2.1177,0.50692 3.17891,0.54941 3.8239,0.80876c0.61146,0.24587 -1.96681,0.46546 -1.96681,0.46546c0,0 -8.72086,-0.7139 -9.49295,-0.96893c-0.50966,-0.16834 -1.64711,0.08242 -4.13529,1.52019c-0.96576,0.55806 -2.94073,2.38538 -3.42457,2.63398c-0.04437,0.0228 -0.07619,0.03232 -0.09356,0.02637c-1.82849,-0.62647 -1.48999,-1.86451 -3.01298,-2.28231c-3.41988,-0.93817 -5.16576,1.31888 -5.30551,0.88147z" data-paper-data="{&quot;index&quot;:null}" fill="#734300"/></g><g stroke="none" stroke-width="1.5" stroke-linecap="butt"><path d="M395.55061,154.99351c0,0.72575 -0.76687,-7.69266 -1.88335,-8.55203c-0.34325,-0.2642 -2.34865,1.45235 -2.34865,1.45235l-0.21004,-1.57436c0,0 0.27075,-0.11424 -1.05345,0.94971c-0.8967,0.72048 -2.95803,1.10603 -2.95803,1.10603c0,0 -0.39407,-0.91467 -0.54404,-0.99213c-0.11794,-0.06091 -1.69151,1.71968 -2.0159,1.49071c-0.98271,-0.69366 -1.29486,-3.83432 -1.29486,-3.83432c0,0 1.65361,0.69633 2.05139,-1.45164c0.39778,-2.14797 -1.22115,-3.03158 -1.22115,-3.03158c0,0 0.47916,-2.88159 1.02238,-3.97754c0.54322,-1.09596 1.38092,-0.87117 1.38092,-0.87117l-0.69993,-2.31942c0,0 0.34765,-0.68767 1.0108,-0.9424c0.42925,-0.16489 1.1927,0.27334 1.39767,-0.22673c0.18841,-0.45968 -0.60211,-3.61057 -0.60211,-3.61057c0,0 1.51179,-0.49209 2.41673,0.30132c0.90494,0.79342 1.571,3.48704 1.67213,3.28363c0.21058,-0.42356 -0.06192,-1.77656 -0.06192,-1.77656c0,0 1.53459,-1.66125 2.56712,0.29584c0.55282,1.04783 1.11587,3.97348 1.2213,4.43766c0.08522,0.37524 0.16647,0.83916 0.24178,1.3397c0.2926,1.94472 0.4957,4.44244 0.4957,4.44244c0,0 0.27062,2.846 0.26334,5.45443c-0.00448,1.60465 -0.16673,4.7 -0.39574,6.7085c-0.11875,1.0415 -0.4521,1.70747 -0.4521,1.89814z" data-paper-data="{&quot;index&quot;:null}" fill="#533000"/><path d="M387.10165,148.3825c-0.62466,0 -0.9186,-0.14416 -1.50485,-0.02897c-0.58624,0.11519 -0.69746,0.70052 -0.93921,0.50921c-1.19282,-0.94395 -1.38056,-3.89748 -1.38056,-3.89748l1.47287,0.00608c0,0 0.19542,-0.25968 0.41393,-0.76003c0.23092,-0.52875 0.434,1.12361 1.90351,1.53371c1.80529,0.50381 4.48079,-2.34932 4.52717,-2.33686c0.34792,0.09351 1.66632,-0.86926 2.14929,0.11457c0.96849,1.97287 1.27317,6.26963 1.96943,6.81542c0.53887,0.42242 0.53428,-4.00034 0.58512,-3.83699c0.07832,0.25161 -0.06623,3.98372 -0.27054,5.86467c-0.12896,1.18727 -0.4488,2.59186 -0.4488,2.59186c0,0 0.06344,0.61673 -0.1497,-0.26628c-0.46243,-1.91574 -1.17526,-7.61283 -1.48923,-7.87388c-0.15532,-0.12914 -0.1725,-0.45001 -0.46804,-0.35237c-0.77108,0.25475 -2.12802,1.37388 -2.12802,1.37388l-0.3124,-1.32317c0,0 -0.60852,0.57759 -1.50292,1.04275c-0.90011,0.46813 -1.98324,0.82386 -2.42704,0.82386z" data-paper-data="{&quot;index&quot;:null}" fill="#3f2500"/></g><path d="M394.74066,132.78446c0,0 -0.48576,-2.29866 -1.82156,-1.36049c-0.59488,0.41779 -0.46266,1.65584 -1.17687,2.28231c-0.08074,0.07083 -0.96236,-2.05111 -1.37418,-2.66034c-0.97188,-1.43778 -1.41617,-1.68853 -1.61524,-1.52019c-0.30158,0.25503 -4.78187,1.46536 -4.78187,1.46536l3.59333,-3.08998c0,0 0.58571,-0.01113 1.04923,-0.03151c0.73298,-0.03223 1.12463,-0.32695 1.86576,1.01168c0.4651,0.84006 0.87348,1.62232 1.16306,2.70205c0.04126,0.15386 0.19609,0.02435 0.19862,-0.5284c0.00296,-0.64639 -0.18573,-1.40424 -0.18573,-1.40424c0,0 1.26747,-0.96404 1.99842,-0.36566c0.89663,0.73401 1.10908,3.32288 1.08704,3.49943z" data-paper-data="{&quot;index&quot;:null}" fill="#734300" stroke="none" stroke-width="1.5" stroke-linecap="butt"/></g><g><path d="M360.07073,114.87577l10.72712,-30.91009" data-paper-data="{&quot;origRot&quot;:0,&quot;index&quot;:null}" fill="none" stroke="#000000" stroke-width="1.5" stroke-linecap="round"/><path d="M387.62893,83.22243c0,0 3.35104,8.00689 4.09698,13.69127c0.8822,6.72278 0.07495,18.10052 0.07495,18.10052" data-paper-data="{&quot;origRot&quot;:0,&quot;index&quot;:null}" fill="none" stroke="#000000" stroke-width="1.5" stroke-linecap="round"/><path d="M406.33649,55.46792c0,0 -5.52281,4.20163 -7.63248,0.9306c-2.45488,-3.80628 -6.65585,-14.53868 -6.65585,-14.53868" data-paper-data="{&quot;origRot&quot;:0,&quot;index&quot;:null}" fill="none" stroke="#000000" stroke-width="1.5" stroke-linecap="round"/><path d="M367.13241,42.29697l-8.87896,21.91332" data-paper-data="{&quot;origRot&quot;:0,&quot;index&quot;:null}" fill="none" stroke="#000000" stroke-width="1.5" stroke-linecap="round"/><path d="M360.84606,85.67672l6.34583,-46.37673l25.37771,1.37382l1.30225,46.79075z" data-paper-data="{&quot;origRot&quot;:0,&quot;index&quot;:null}" fill="#0d9900" stroke="#000000" stroke-width="1.5" stroke-linecap="butt"/><path d="M372.92699,41.72564l-0.83358,15.39847" data-paper-data="{&quot;origRot&quot;:0,&quot;index&quot;:null}" fill="#0a6e00" stroke="#0a6e00" stroke-width="1.5" stroke-linecap="round"/><path d="M386.94224,42.93858l-0.83358,15.39847" data-paper-data="{&quot;origRot&quot;:0,&quot;index&quot;:null}" fill="#0a6e00" stroke="#0a6e00" stroke-width="1.5" stroke-linecap="round"/><path d="M387.81929,58.20255c-0.05077,0.93798 -0.85232,1.65719 -1.7903,1.60642c-0.93798,-0.05077 -1.6572,-0.85232 -1.60642,-1.7903c0.05078,-0.93798 0.85231,-1.6572 1.79029,-1.60643c0.93798,0.05077 1.6572,0.85232 1.60642,1.7903z" data-paper-data="{&quot;origRot&quot;:0,&quot;index&quot;:null}" fill="#0a6e00" stroke="#0a6e00" stroke-width="1.5" stroke-linecap="butt"/><path d="M371.9219,58.89388c-0.93798,-0.05077 -1.6572,-0.85232 -1.60642,-1.7903c0.05078,-0.93798 0.85231,-1.6572 1.79029,-1.60643c0.93798,0.05077 1.6572,0.85232 1.60643,1.7903c-0.05077,0.93798 -0.85232,1.6572 -1.7903,1.60643z" data-paper-data="{&quot;origRot&quot;:0,&quot;index&quot;:null}" fill="#0a6e00" stroke="#0a6e00" stroke-width="1.5" stroke-linecap="butt"/><path d="M398.84698,27.7646c-0.57164,10.55979 -9.59545,18.65678 -20.15525,18.08513c-10.55979,-0.57164 -18.65678,-9.59545 -18.08513,-20.15525c0.57165,-10.55979 9.59546,-18.65678 20.15525,-18.08513c10.55979,0.57164 18.65678,9.59546 18.08514,20.15525z" data-paper-data="{&quot;origRot&quot;:0,&quot;index&quot;:null}" fill="#ffe8bb" stroke="#000000" stroke-width="1.5" stroke-linecap="butt"/><path d="M369.81971,18.29964c0,0 -8.76138,5.90357 -8.90093,5.85333c-2.56978,-0.92507 -0.50323,-2.76515 0.25531,-4.83175c0.25286,-0.68886 1.91289,-3.59877 1.91289,-3.59877c0,0 5.23594,-4.25496 8.59726,-5.85204c4.60779,-2.18933 7.07681,-3.35609 12.14977,-2.81756c7.33948,0.77913 13.58533,10.06471 14.51154,11.36714c0.78442,1.10306 1.61537,5.63 1.42995,6.97077c-0.14153,1.02331 -0.91583,4.70715 -1.93425,4.53392c-1.07228,-0.18239 -6.28521,-9.22494 -6.28521,-9.22494" data-paper-data="{&quot;origRot&quot;:0,&quot;index&quot;:null}" fill="#3b2c00" stroke="#000000" stroke-width="1.5" stroke-linecap="round"/><path d="M378.69855,39.51189c0,0 -1.05643,-0.17577 -1.74463,-0.51078c-0.56955,-0.27724 -1.47822,-1.05805 -1.47822,-1.05805" data-paper-data="{&quot;origRot&quot;:0,&quot;index&quot;:null}" fill="none" stroke="#000000" stroke-width="1.5" stroke-linecap="round"/><path d="M388.30352,81.00349c0,0 -1.88434,-1.19472 -2.96804,-2.84541c-0.67613,-1.02989 -0.74901,-3.63167 -0.74901,-3.63167" data-paper-data="{&quot;origRot&quot;:0,&quot;index&quot;:null}" fill="none" stroke="#0a6e00" stroke-width="1.5" stroke-linecap="round"/><path d="M371.6079,73.82381c0,0 -0.35331,2.57872 -1.13668,3.52959c-1.25557,1.52405 -3.25786,2.50837 -3.25786,2.50837" data-paper-data="{&quot;index&quot;:null,&quot;origRot&quot;:0}" fill="none" stroke="#0a6e00" stroke-width="1.5" stroke-linecap="round"/><path d="M386.49506,33.6203v-3.93407" data-paper-data="{&quot;index&quot;:null}" fill="none" stroke="#000000" stroke-width="3" stroke-linecap="round"/><path d="M378.62692,29.24912v4.37118" data-paper-data="{&quot;index&quot;:null}" fill="none" stroke="#000000" stroke-width="3" stroke-linecap="round"/><path d="M382.12387,30.56048l-6.9939,-2.18559v-1.74847h14.86203v1.74847z" data-paper-data="{&quot;index&quot;:null}" fill="#ffe8bb" stroke="none" stroke-width="1.5" stroke-linecap="butt"/><path d="M391.42196,20.4339c0,0 -0.11938,6.58551 -2.90606,6.34833c-2.73085,-0.23243 -1.62016,-4.23244 -4.12279,-5.34975c-1.64687,-0.73523 -0.91479,5.32143 -2.69723,5.04634c-1.56203,-0.24108 -4.14366,-6.64098 -5.61419,-6.06162c-2.15243,0.84801 -3.37658,5.39262 -5.64862,4.95682c-2.68033,-0.51412 -0.45344,-7.24606 -0.45344,-7.24606" data-paper-data="{&quot;origRot&quot;:0,&quot;index&quot;:null}" fill="#3b2c00" stroke="#000000" stroke-width="1.5" stroke-linecap="round"/><g data-paper-data="{&quot;index&quot;:null}" stroke-width="1.5"><path d="M360.68546,61.32636l-6.09403,11.47371l-1.65805,-0.88064l6.09403,-11.47372z" data-paper-data="{&quot;origRot&quot;:0,&quot;index&quot;:null}" fill="#000000" stroke="none" stroke-linecap="butt"/><path d="M360.76933,61.23873l-1.60713,-0.9573l0.68969,-1.46564l1.69064,0.96583z" data-paper-data="{&quot;origRot&quot;:0,&quot;index&quot;:null}" fill="#000000" stroke="none" stroke-linecap="butt"/><path d="M368.76282,43.25911l-7.81148,16.35899l-1.19307,-0.54795l7.93163,-16.30252z" data-paper-data="{&quot;origRot&quot;:0,&quot;index&quot;:null}" fill="#116700" stroke="none" stroke-linecap="butt"/><path d="M374.81252,25.52269l0.09457,1.96194c0,0 -1.72243,4.95389 -2.75591,7.57973c-1.08944,2.76798 -3.62171,8.6242 -3.62171,8.6242l-1.35265,0.12589l6.90032,-16.69163z" data-paper-data="{&quot;origRot&quot;:0,&quot;index&quot;:null}" fill="#116700" stroke="none" stroke-linecap="butt"/><path d="M369.30414,43.54296l-7.81148,16.35899l-1.19307,-0.54795l7.93162,-16.30252z" data-paper-data="{&quot;origRot&quot;:0,&quot;index&quot;:null}" fill="#1fb800" stroke="none" stroke-linecap="butt"/><path d="M375.44841,27.7685c0,0 -1.72243,4.9539 -2.75591,7.57974c-1.08944,2.76798 -3.62171,8.62419 -3.62171,8.62419l-1.35265,0.12589l6.90033,-16.69164z" data-paper-data="{&quot;origRot&quot;:0,&quot;index&quot;:null}" fill="#1fb800" stroke="none" stroke-linecap="butt"/><path d="M375.29844,24.26276c0,0 0.43516,1.14822 0.48492,1.81992c0.03576,0.48281 -0.42333,2.02922 -0.42333,2.02922l-0.35611,0.0086l-0.40577,-0.57219c0,0 0.0935,-0.58581 0.12282,-0.93452c0.02551,-0.30358 0.04327,-1.04112 0.04327,-1.04112z" data-paper-data="{&quot;origRot&quot;:0,&quot;index&quot;:null}" fill="#1fb800" stroke="none" stroke-linecap="butt"/><path d="M357.93443,59.73281l4.04576,2.202" data-paper-data="{&quot;origRot&quot;:0,&quot;index&quot;:null}" fill="none" stroke="#000000" stroke-linecap="round"/></g><g data-paper-data="{&quot;index&quot;:null}" stroke-width="1.5"><path d="M408.7685,52.58399l-6.09403,11.47371l-1.65805,-0.88064l6.09403,-11.47372z" data-paper-data="{&quot;origRot&quot;:0,&quot;index&quot;:null}" fill="#000000" stroke="none" stroke-linecap="butt"/><path d="M408.85237,52.49636l-1.60712,-0.9573l0.68968,-1.46564l1.69064,0.96583z" data-paper-data="{&quot;origRot&quot;:0,&quot;index&quot;:null}" fill="#000000" stroke="none" stroke-linecap="butt"/><path d="M416.84587,34.51675l-7.81149,16.35899l-1.19307,-0.54795l7.93163,-16.30252z" data-paper-data="{&quot;origRot&quot;:0,&quot;index&quot;:null}" fill="#116700" stroke="none" stroke-linecap="butt"/><path d="M422.89555,16.78031l0.09457,1.96194c0,0 -1.72243,4.9539 -2.75591,7.57974c-1.08943,2.76798 -3.62171,8.6242 -3.62171,8.6242l-1.35264,0.1259l6.90032,-16.69163z" data-paper-data="{&quot;origRot&quot;:0,&quot;index&quot;:null}" fill="#116700" stroke="none" stroke-linecap="butt"/><path d="M417.38719,34.80059l-7.81149,16.35899l-1.19307,-0.54795l7.93162,-16.30252z" data-paper-data="{&quot;origRot&quot;:0,&quot;index&quot;:null}" fill="#1fb800" stroke="none" stroke-linecap="butt"/><path d="M423.53145,19.02613c0,0 -1.72243,4.9539 -2.75591,7.57974c-1.08943,2.76799 -3.62171,8.62419 -3.62171,8.62419l-1.35265,0.12589l6.90033,-16.69164z" data-paper-data="{&quot;origRot&quot;:0,&quot;index&quot;:null}" fill="#1fb800" stroke="none" stroke-linecap="butt"/><path d="M423.38148,15.52039c0,0 0.43516,1.14823 0.48492,1.81992c0.03576,0.48281 -0.42333,2.02922 -0.42333,2.02922l-0.35611,0.00859l-0.40577,-0.57218c0,0 0.09351,-0.58582 0.12281,-0.93452c0.02552,-0.30357 0.04328,-1.04111 0.04328,-1.04111z" data-paper-data="{&quot;origRot&quot;:0,&quot;index&quot;:null}" fill="#1fb800" stroke="none" stroke-linecap="butt"/><path d="M410.06323,53.19243l-4.04577,-2.202" data-paper-data="{&quot;origRot&quot;:0,&quot;index&quot;:null}" fill="none" stroke="#000000" stroke-linecap="round"/></g></g><text transform="translate(5,356.43409) scale(0.24569,0.24569)" font-size="40" xml:space="preserve" fill="#b6b6b6" fill-rule="nonzero" stroke="none" stroke-width="1" stroke-linecap="butt" stroke-linejoin="miter" stroke-miterlimit="10" stroke-dasharray="" stroke-dashoffset="0" font-family="&quot;ヒラギノ角ゴ Pro W3&quot;, &quot;Hiragino Kaku Gothic Pro&quot;, Osaka, &quot;メイリオ&quot;, Meiryo, &quot;ＭＳ Ｐゴシック&quot;, &quot;MS PGothic&quot;" font-weight="normal" text-anchor="start" style="mix-blend-mode: normal"><tspan x="0" dy="0">Written by @The_Updator</tspan></text><path d="M173.24731,31.5538c-23.56816,-7.38402 -21.33333,-21 -21.33333,-21h77.66666v24.33334c0,0 -32.76517,4.05068 -56.33334,-3.33334z" fill="#edbd1a" stroke="none" stroke-width="0" stroke-linecap="butt"/><text transform="translate(167.58065,26.63714) scale(0.34832,0.34832)" font-size="40" xml:space="preserve" fill="#ffffff" fill-rule="nonzero" stroke="none" stroke-width="1" stroke-linecap="butt" stroke-linejoin="miter" stroke-miterlimit="10" stroke-dasharray="" stroke-dashoffset="0" font-family="Sans Serif" font-weight="normal" text-anchor="start" style="mix-blend-mode: normal"><tspan x="0" dy="0">SIGNUPS</tspan></text></g></g></svg>