<svg version="1.1" xmlns="http://www.w3.org/2000/svg" xmlns:xlink="http://www.w3.org/1999/xlink" width="270.28615" height="358.16523" viewBox="0,0,270.28615,358.16523"><g transform="translate(-113.05954,-48.85651)"><g data-paper-data="{&quot;isPaintingLayer&quot;:true}" fill-rule="nonzero" stroke-linejoin="miter" stroke-miterlimit="10" stroke-dasharray="" stroke-dashoffset="0" style="mix-blend-mode: normal"><path d="M280.41962,89.97311l-17.81128,-16.19249c0,0 21.419,-12.16305 35.24631,-13.93033c8.81346,-1.12644 13.00571,3.1152 21.82332,4.20848c7.67665,0.95182 20.39567,-0.17905 20.39567,-0.17905c0,0 -5.6445,2.933 -5.26931,7.49605c0.45023,5.47566 9.68253,10.38663 9.68253,10.38663c0,0 -7.06341,0.28806 -10.64687,-0.94772c-10.27961,-3.545 -16.99683,-0.50757 -27.87033,-0.44238c-9.81508,0.05885 -25.55006,9.60074 -25.55006,9.60074z" data-paper-data="{&quot;origRot&quot;:0}" fill="#9966ff" stroke="#000000" stroke-width="3" stroke-linecap="butt"/><path d="M171.04092,66.5035c-0.35341,-1.34091 3.99413,-4.04078 6.61442,-5.02186c2.22554,-0.7051 4.93874,-0.75795 7.06343,0.26044c2.47832,1.20553 4.07386,3.65916 5.31686,6.15147c0.55564,6.34692 -2.58516,2.35153 -4.83075,1.24496c-1.89121,-0.6828 -3.9146,-1.63261 -5.99307,-2.03229c-2.64812,-0.50998 -7.81691,0.71042 -8.17089,-0.60271z" data-paper-data="{&quot;index&quot;:null,&quot;origRot&quot;:0}" id="ID0.5775998127646744" fill="#666600" stroke="#666600" stroke-width="2.23893" stroke-linecap="round"/><g data-paper-data="{&quot;index&quot;:null,&quot;origRot&quot;:0}" id="ID0.09386339038610458" stroke-linecap="round"><path d="M206.24282,370.88167l4.02789,-195.33126l30.36299,-2.61663l37.25074,190.17478z" id="ID0.017299960367381573" fill="#006622" stroke="#006622" stroke-width="3.31787"/><path d="M244.02079,241.3017l23.61533,117.0102" id="ID0.031035076826810837" fill="none" stroke="#01902d" stroke-width="10.8155"/><path d="M279.54095,365.42918l-32.09026,2.7656l-0.62373,-7.23675l32.09034,-2.76551z" id="ID0.9768607504665852" fill="#006622" stroke="none" stroke-width="1.30791"/></g><path d="M147.89427,285.72351c-2.90297,3.70158 -7.27673,6.3811 -12.43338,7.15781c-5.15662,0.7767 -10.12568,-0.49575 -13.99014,-3.17792c-3.8627,-2.68103 -6.62122,-6.77323 -7.35386,-11.63787c-0.73266,-4.86464 0.69794,-9.58781 3.59956,-13.28765c2.90306,-3.70149 7.27683,-6.38119 12.43338,-7.15781c5.15662,-0.7767 10.12568,0.49575 13.99014,3.17792c3.86281,2.68094 6.62122,6.77323 7.35386,11.63787c0.73284,4.86466 -0.69794,9.58781 -3.59956,13.28765z" data-paper-data="{&quot;index&quot;:null,&quot;origRot&quot;:0}" id="ID0.07061211299151182" fill="#ffd499" stroke="#000000" stroke-width="2.11469" stroke-linecap="butt"/><path d="M272.19273,86.94603c15.61119,14.46106 26.30301,35.36818 28.36371,59.27921c2.06062,23.91094 -4.89667,46.33901 -17.80349,63.25775c-12.90509,16.91847 -31.75808,28.3276 -53.48705,30.20009c-21.72888,1.87258 -42.25587,-6.14265 -57.86525,-20.60389c-15.61109,-14.46095 -26.30311,-35.36809 -28.36373,-59.27903c-2.06062,-23.91094 4.89667,-46.33901 17.80349,-63.25775c12.90518,-16.91855 31.75808,-28.3276 53.48696,-30.20018c21.72907,-1.87256 42.25587,6.14265 57.86535,20.6038z" data-paper-data="{&quot;index&quot;:null,&quot;origRot&quot;:0}" id="ID0.3367121433839202" fill="#f0c690" stroke="#f0c690" stroke-width="3.8323" stroke-linecap="butt"/><path d="M263.14274,112.13412c13.81935,11.39117 23.19391,27.96077 24.83443,46.99708c1.64061,19.03641 -4.76092,36.96565 -16.42762,50.5531c-11.66505,13.5887 -28.59661,22.83717 -48.01762,24.51089c-19.42111,1.67381 -37.68529,-4.54161 -51.50333,-15.93412c-13.81935,-11.39117 -23.19391,-27.96077 -24.83443,-46.99708c-1.64061,-19.03641 4.76092,-36.96565 16.42753,-50.55301c11.66515,-13.58879 28.5967,-22.83727 48.01773,-24.51098c19.42111,-1.67381 37.68529,4.54161 51.50333,15.93412z" data-paper-data="{&quot;index&quot;:null,&quot;origRot&quot;:0}" id="ID0.05769371194764972" fill="#ffd499" stroke="none" stroke-width="1.03711" stroke-linecap="butt"/><path d="M203.06625,50.21234c0.78769,1.77735 -4.47989,6.19925 -6.53694,9.24629c-1.39802,2.06723 -2.63723,4.36442 -3.80301,6.43227c-1.14025,2.72559 -0.71554,8.77605 -5.44443,2.54847c-0.91992,-3.22768 -1.47318,-6.68378 -0.2141,-9.68269c1.1973,-2.78954 3.83567,-4.87834 6.48835,-6.39407c2.88683,-1.43969 8.82046,-3.65475 9.51015,-2.15027z" data-paper-data="{&quot;index&quot;:null,&quot;origRot&quot;:0}" id="ID0.5775998127646744" fill="#525200" stroke="#525200" stroke-width="2.71167" stroke-linecap="round"/><g data-paper-data="{&quot;index&quot;:null,&quot;origRot&quot;:0}" id="ID0.5728061054833233" fill="none" stroke="#000000" stroke-width="12.6636" stroke-linecap="round"><path d="M250.52703,133.91158l5.18205,60.13049" id="ID0.46364903124049306"/><path d="M217.0499,197.47566l-5.18205,-60.13049" id="ID0.46364903124049306"/></g><path d="M293.12817,108.71132l-152.20842,13.11728l9.4241,-20.04918l13.11029,-17.71345l13.73462,-10.47055l9.92392,-6.16194l12.86147,-4.42515l13.03172,-2.44976l24.34796,1.88174l10.57894,3.86442l5.47374,2.04895l11.75066,6.94748l11.34244,10.29942l9.21026,9.81969z" data-paper-data="{&quot;index&quot;:null,&quot;origRot&quot;:0}" id="ID0.5693852878175676" fill="#666600" stroke="none" stroke-width="1.00499" stroke-linecap="round"/><path d="M278.49614,100.15507c2.86283,-0.24671 5.47507,0.83495 7.59414,2.35839c3.30488,2.35796 6.94015,5.26595 9.39671,8.78083c2.91838,5.41085 5.0634,11.34471 6.37509,17.36101c1.19293,5.49446 3.93833,18.29795 0.09169,17.23908c-6.9568,-2.98515 -13.60341,-18.03016 -21.69847,-25.32724c-2.03611,-1.83707 -5.55589,-0.67273 -7.59433,-2.35841c-2.03824,-1.68565 -3.4205,-4.13764 -3.66309,-6.95322c-0.24277,-2.8156 0.69972,-5.46794 2.41954,-7.47753c1.71991,-2.00949 4.2158,-3.37611 7.07873,-3.62291z" data-paper-data="{&quot;index&quot;:null,&quot;origRot&quot;:0}" id="ID0.16118840454146266" fill="#525200" stroke="none" stroke-width="1.00499" stroke-linecap="round"/><path d="M267.13169,102.28297c2.20536,2.15163 3.72173,5.25411 4.02699,8.79657c0.30524,3.54246 -0.65795,6.85862 -2.46264,9.35584c-1.80333,2.49691 -4.44673,4.17484 -7.50058,4.43804c-3.05384,0.2632 -5.9452,-0.93773 -8.14921,-3.0895c-2.20527,-2.15155 -3.72174,-5.25391 -4.02699,-8.79637c-0.30533,-3.54256 0.65795,-6.85862 2.46264,-9.35584c1.80324,-2.49701 4.44673,-4.17484 7.50058,-4.43804c3.05384,-0.2632 5.9453,0.93764 8.14923,3.0893z" data-paper-data="{&quot;index&quot;:null,&quot;origRot&quot;:0}" id="ID0.839914002455771" fill="#525200" stroke="none" stroke-width="1.00499" stroke-linecap="butt"/><path d="M216.51763,65.68875c1.41598,1.08911 2.37064,2.68012 2.52859,4.51262c0.15794,1.83251 -0.51045,3.56337 -1.71923,4.87854c-1.20796,1.31588 -2.95537,2.21597 -4.95448,2.38819c-1.99921,0.17232 -3.87485,-0.41544 -5.29001,-1.50527c-1.41598,-1.08911 -2.37064,-2.68012 -2.52859,-4.51262c-0.15794,-1.83251 0.51045,-3.56337 1.71923,-4.87854c1.20796,-1.31588 2.95537,-2.21597 4.95448,-2.38819c1.99921,-0.17232 3.87485,0.41544 5.29001,1.50527z" data-paper-data="{&quot;index&quot;:null,&quot;origRot&quot;:0}" id="ID0.2688980521634221" fill="#525200" stroke="none" stroke-width="0.59905" stroke-linecap="butt"/><path d="M250.52471,105.60641c1.63116,1.35992 2.73841,3.33809 2.93401,5.6084c0.19569,2.27041 -0.55673,4.40888 -1.93111,6.02781c-1.37562,1.62039 -3.37177,2.72106 -5.66185,2.91838c-2.29,0.19741 -4.44497,-0.54554 -6.07758,-1.90669c-1.63116,-1.35992 -2.7383,-3.33818 -2.93401,-5.6084c-0.19569,-2.27041 0.55683,-4.40897 1.93111,-6.02781c1.37562,-1.62039 3.37177,-2.72106 5.66185,-2.91838c2.29,-0.19741 4.44507,0.54545 6.07758,1.90669z" data-paper-data="{&quot;index&quot;:null,&quot;origRot&quot;:0}" id="ID0.7480932525359094" fill="#666600" stroke="none" stroke-width="1.00499" stroke-linecap="butt"/><path d="M234.6181,96.63704c2.39719,2.19473 4.03698,5.37012 4.35013,9.00343c0.31314,3.63332 -0.75915,7.0426 -2.74556,9.61504c-1.98632,2.57254 -4.88674,4.30965 -8.22707,4.59753c-3.34021,0.28779 -6.49503,-0.92753 -8.89223,-3.12226c-2.3973,-2.19464 -4.03698,-5.37012 -4.35013,-9.00343c-0.31314,-3.63332 0.75924,-7.0425 2.74556,-9.61504c1.98641,-2.57243 4.88674,-4.30965 8.22707,-4.59753c3.34021,-0.28779 6.49503,0.92753 8.89223,3.12226z" data-paper-data="{&quot;index&quot;:null,&quot;origRot&quot;:0}" id="ID0.26692162407562137" fill="#666600" stroke="none" stroke-width="1.00499" stroke-linecap="butt"/><path d="M216.47614,111.79745c0.96457,0.93716 1.6276,2.28893 1.76063,3.83371c0.13314,1.54469 -0.28872,2.99008 -1.07877,4.07834c-0.7884,1.08951 -1.94522,1.82065 -3.2819,1.9359c-1.33659,0.11517 -2.60145,-0.40741 -3.56467,-1.34592c-0.96448,-0.93706 -1.62751,-2.28884 -1.76065,-3.83351c-0.13313,-1.54489 0.28882,-2.99016 1.07868,-4.07844c0.78859,-1.0895 1.94531,-1.82074 3.28199,-1.9358c1.33669,-0.11526 2.60145,0.40722 3.56469,1.34573z" data-paper-data="{&quot;index&quot;:null,&quot;origRot&quot;:0}" id="ID0.8134746439754963" fill="#666600" stroke="none" stroke-width="1.00499" stroke-linecap="butt"/><path d="M206.66779,106.00249c2.20022,2.09229 3.7096,5.11304 4.00704,8.56475c0.29754,3.45163 -0.67284,6.68605 -2.48257,9.12403c-1.8086,2.4364 -4.4551,4.07737 -7.50895,4.34057c-3.05384,0.2632 -5.9422,-0.90086 -8.14095,-2.99193c-2.20013,-2.09218 -3.7095,-5.11312 -4.00695,-8.56465c-0.29744,-3.45172 0.67275,-6.68616 2.48257,-9.12403c1.80851,-2.4365 4.45511,-4.07756 7.50904,-4.34065c3.05384,-0.2632 5.94201,0.90086 8.14076,2.99192z" data-paper-data="{&quot;index&quot;:null,&quot;origRot&quot;:0}" id="ID0.7768734325654805" fill="#525200" stroke="none" stroke-width="1.00499" stroke-linecap="butt"/><path d="M188.87238,115.39958c0.86901,0.55665 1.44707,1.37708 1.52933,2.3305c0.08215,0.95351 -0.34707,1.8608 -1.10803,2.55786c-0.75972,0.69561 -1.84996,1.17971 -3.09119,1.28657c-1.24112,0.10697 -2.39806,-0.18335 -3.2656,-0.73877c-0.8691,-0.55656 -1.44727,-1.37709 -1.52933,-2.3305c-0.08215,-0.95351 0.34707,-1.8608 1.10803,-2.55786c0.75972,-0.69561 1.84986,-1.17962 3.0911,-1.28667c1.24121,-0.10686 2.39815,0.18345 3.26569,0.73887z" data-paper-data="{&quot;index&quot;:null,&quot;origRot&quot;:0}" id="ID0.8043623631820083" fill="#666600" stroke="none" stroke-width="1.00499" stroke-linecap="butt"/><path d="M181.80897,113.23434c0.85503,0.66209 1.43191,1.62932 1.52794,2.74312c0.09603,1.11379 -0.30692,2.16545 -1.03613,2.96412c-0.72908,0.79943 -1.78348,1.34572 -2.99024,1.44973c-1.20676,0.104 -2.33892,-0.25385 -3.19409,-0.9169c-0.85513,-0.662 -1.43201,-1.62923 -1.52804,-2.74303c-0.09595,-1.11368 0.30701,-2.16535 1.03622,-2.96401c0.72908,-0.79943 1.78339,-1.34582 2.99015,-1.44982c1.20676,-0.104 2.33902,0.25395 3.19418,0.91681z" data-paper-data="{&quot;index&quot;:null,&quot;origRot&quot;:0}" id="ID0.4881145376712084" fill="#525200" stroke="none" stroke-width="0.70785" stroke-linecap="butt"/><path d="M148.99128,110.73086c1.82723,-1.86372 4.21581,-3.3763 7.07875,-3.6231c2.86292,-0.24661 5.55579,0.67282 7.59422,2.3585c2.03824,1.68565 3.4205,4.13764 3.66317,6.95332c0.24268,2.81549 -0.69982,5.46784 -2.41962,7.47743c-1.71982,2.00959 -5.38694,1.46453 -7.07873,3.62291c-6.72723,8.57448 -10.70193,24.53473 -17.04531,28.66618c-3.60886,1.70139 -3.09435,-11.38309 -2.85916,-17.00068c0.26296,-6.15192 1.36135,-12.36525 3.31088,-18.19562c1.81912,-3.88339 4.90315,-7.37033 7.75581,-10.25894z" data-paper-data="{&quot;index&quot;:null,&quot;origRot&quot;:0}" id="ID0.16118840454146266" fill="#666600" stroke="none" stroke-width="1.00499" stroke-linecap="round"/><path d="M172.10494,113.26842c1.9761,1.69111 3.31957,4.14639 3.56215,6.96197c0.24277,2.8156 -0.66083,5.46458 -2.3185,7.4687c-1.65625,2.00413 -4.06638,3.36341 -6.83376,3.60192c-2.76738,0.23851 -5.37459,-0.68837 -7.34934,-2.37959c-1.97601,-1.69101 -3.31957,-4.14639 -3.56215,-6.96197c-0.24268,-2.81549 0.66102,-5.46457 2.3185,-7.4687c1.65625,-2.00413 4.06638,-3.36341 6.83386,-3.60182c2.76749,-0.2386 5.37459,0.68837 7.34925,2.37949z" data-paper-data="{&quot;index&quot;:null,&quot;origRot&quot;:0}" id="ID0.22436008881777525" fill="#666600" stroke="none" stroke-width="1.00499" stroke-linecap="butt"/><path d="M291.72332,272.70786c-2.90297,3.70158 -7.27673,6.3811 -12.43338,7.15781c-5.15662,0.7767 -10.12568,-0.49575 -13.99014,-3.17792c-3.8627,-2.68103 -6.62122,-6.77323 -7.35386,-11.63787c-0.73266,-4.86464 0.69794,-9.58781 3.59956,-13.28765c2.90306,-3.70149 7.27683,-6.38119 12.43338,-7.15781c5.15662,-0.7767 10.12568,0.49575 13.99014,3.17792c3.86281,2.68094 6.62122,6.77323 7.35386,11.63787c0.73284,4.86466 -0.69794,9.58781 -3.59956,13.28765z" data-paper-data="{&quot;index&quot;:null,&quot;origRot&quot;:0}" id="ID0.07061211299151182" fill="#ffd499" stroke="#000000" stroke-width="2.11469" stroke-linecap="butt"/><path d="M241.68087,73.0576c2.42737,1.86683 4.06402,4.5943 4.33481,7.73564c0.2707,3.14143 -0.87521,6.10881 -2.94736,8.36332c-2.07069,2.25574 -5.06635,3.79879 -8.49338,4.09414c-3.42712,0.29525 -6.64257,-0.71245 -9.06864,-2.58063c-2.42737,-1.86683 -4.06402,-4.5943 -4.33471,-7.73573c-0.2707,-3.14143 0.87511,-6.10872 2.94726,-8.36323c2.0707,-2.25594 5.06635,-3.79879 8.49338,-4.09414c3.42714,-0.29544 6.64259,0.71225 9.06864,2.58063z" data-paper-data="{&quot;index&quot;:null,&quot;origRot&quot;:0}" id="ID0.2688980521634221" fill="#525200" stroke="none" stroke-width="1.02694" stroke-linecap="butt"/><path d="M166.38602,101.78045c2.42737,1.86683 4.06402,4.5943 4.33481,7.73564c0.2707,3.14143 -0.87521,6.10881 -2.94736,8.36332c-2.07069,2.25574 -5.06635,3.79879 -8.49338,4.09414c-3.42712,0.29525 -6.64257,-0.71245 -9.06864,-2.58063c-2.42737,-1.86683 -4.06402,-4.5943 -4.33471,-7.73573c-0.2707,-3.14143 0.87511,-6.10872 2.94726,-8.36323c2.0707,-2.25594 5.06635,-3.79879 8.49338,-4.09414c3.42714,-0.29544 6.64259,0.71225 9.06864,2.58063z" data-paper-data="{&quot;index&quot;:null,&quot;origRot&quot;:0}" id="ID0.2688980521634221" fill="#525200" stroke="none" stroke-width="1.02694" stroke-linecap="butt"/><path d="M172.04375,91.83759c0.66204,0.50915 1.10832,1.25291 1.18215,2.10982c0.07384,0.8567 -0.23863,1.66589 -0.8038,2.2808c-0.5647,0.61523 -1.38171,1.03603 -2.3164,1.11661c-0.93469,0.08058 -1.81151,-0.19428 -2.47323,-0.70387c-0.66195,-0.50905 -1.10832,-1.25291 -1.18225,-2.10972c-0.07384,-0.8567 0.23872,-1.66598 0.8039,-2.28089c0.5647,-0.61523 1.38171,-1.03603 2.31629,-1.11652c0.93469,-0.08058 1.81162,0.19419 2.47333,0.70378z" data-paper-data="{&quot;index&quot;:null,&quot;origRot&quot;:0}" id="ID0.2688980521634221" fill="#525200" stroke="none" stroke-width="0.28008" stroke-linecap="butt"/><g data-paper-data="{&quot;origRot&quot;:0}" id="ID0.8685846459120512" stroke-linecap="butt"><path d="M365.75492,292.79355c2.35826,-3.78174 5.11917,-5.91318 7.72123,-5.49549c2.60194,0.41775 4.557,3.30628 5.61308,7.6361c1.05738,4.32883 1.21481,10.09855 0.22254,16.27879c-0.99209,6.18028 -2.94755,11.61086 -5.30674,15.3911c-2.35832,3.78162 -5.11917,5.91318 -7.72123,5.49549c-2.60206,-0.41769 -4.55706,-3.3064 -5.61308,-7.6361c-1.0575,-4.32877 -1.21481,-10.09855 -0.22273,-16.27884c0.99227,-6.18022 2.94761,-11.61073 5.30693,-15.39104z" id="ID0.19497378217056394" fill="#c90101" stroke="#000000" stroke-width="3.54063"/><path d="M366.74109,301.41144c1.93117,-2.73747 4.23601,-4.25453 6.45292,-3.8987c2.21679,0.35589 3.93089,2.51818 4.9083,5.72261c0.97838,3.20454 1.21957,7.45253 0.49249,11.98139c-0.72691,4.52891 -2.28584,8.48786 -4.21805,11.22511c-1.93117,2.73747 -4.23613,4.25459 -6.45292,3.8987c-2.21679,-0.35589 -3.93101,-2.51812 -4.9083,-5.72261c-0.97838,-3.20454 -1.21969,-7.45247 -0.4926,-11.98132c0.72703,-4.52897 2.28584,-8.48786 4.21817,-11.22517z" id="ID0.13423143420368433" fill="#ff0202" stroke="none" stroke-width="0.93464"/><path d="M365.6215,292.10211c2.35826,-3.78174 5.11917,-5.91318 7.72123,-5.49549c2.60194,0.41775 4.557,3.30628 5.61308,7.6361c1.05738,4.32883 1.21481,10.09855 0.22254,16.27879c-0.99209,6.18028 -2.94755,11.61086 -5.30674,15.3911c-2.35832,3.78162 -5.11917,5.91318 -7.72123,5.49549c-2.60206,-0.41769 -4.55706,-3.3064 -5.61308,-7.6361c-1.0575,-4.32877 -1.21481,-10.09855 -0.22273,-16.27884c0.99227,-6.18022 2.94761,-11.61073 5.30693,-15.39104z" id="ID0.19497378217056394" fill="none" stroke="#000000" stroke-width="3.54063"/></g><g id="ID0.8721039635129273" stroke-linecap="butt"><path d="M224.1989,386.78452c4.1145,1.71286 6.66598,4.09101 6.67637,6.72636c0.01031,2.63524 -2.5224,5.03341 -6.62326,6.77858c-4.09967,1.74629 -9.76725,2.83855 -16.02659,2.86304c-6.25935,0.02467 -11.93539,-1.02299 -16.04856,-2.73701c-4.11439,-1.71294 -6.66598,-4.09101 -6.67637,-6.72636c-0.01039,-2.63535 2.52251,-5.03349 6.62326,-6.77858c4.09959,-1.7464 9.76725,-2.83855 16.02661,-2.86323c6.25932,-0.02448 11.93528,1.02307 16.04853,2.7372z" id="ID0.19497378217056394" fill="#c90101" stroke="#000000" stroke-width="3.54063"/><path d="M215.85553,389.15702c3.01473,1.46101 4.88593,3.48891 4.89482,5.73418c0.00881,2.24516 -1.84644,4.28763 -4.84962,5.77243c-3.00313,1.48577 -7.15557,2.41357 -11.74239,2.43156c-4.58684,0.01817 -8.74639,-0.87719 -11.76107,-2.33926c-3.01473,-1.46101 -4.88601,-3.48902 -4.89482,-5.73418c-0.00881,-2.24516 1.84636,-4.28774 4.84962,-5.77243c3.00313,-1.48577 7.15549,-2.41368 11.7423,-2.43166c4.58692,-0.01806 8.74639,0.87719 11.76115,2.33937z" id="ID0.13423143420368433" fill="#ff0202" stroke="none" stroke-width="0.93464"/><path d="M224.03722,386.9062c4.1145,1.71286 6.66598,4.09101 6.67637,6.72636c0.01031,2.63524 -2.5224,5.03341 -6.62326,6.77858c-4.09967,1.74629 -9.76725,2.83855 -16.02659,2.86304c-6.25935,0.02467 -11.93539,-1.02299 -16.04856,-2.73701c-4.11439,-1.71294 -6.66598,-4.09101 -6.67637,-6.72636c-0.01039,-2.63535 2.52251,-5.03349 6.62326,-6.77858c4.09959,-1.7464 9.76725,-2.83855 16.02661,-2.86323c6.25932,-0.02448 11.93528,1.02307 16.04853,2.7372z" id="ID0.19497378217056394" fill="none" stroke="#000000" stroke-width="3.54063"/></g><path d="M136.03674,130.68456c0,0 -0.46647,-5.73034 0.43059,-9.2449c0.7776,-3.0465 3.74266,-4.42333 3.485,-7.55692c-0.61907,-7.52905 6.3502,-15.82487 6.3502,-15.82487l138.55363,-11.39238c0,0 6.99233,6.30094 7.53636,12.91739c0.30308,3.68602 5.49773,3.47811 7.30512,6.70486c1.98897,3.55103 0.12731,12.10673 0.12731,12.10673z" data-paper-data="{&quot;origRot&quot;:0}" fill="#9966ff" stroke="#000000" stroke-width="3" stroke-linecap="butt"/><path d="M197.89953,101.63137l-48.69202,4.00363" data-paper-data="{&quot;origRot&quot;:0}" fill="none" stroke="#d2bcff" stroke-width="7.5" stroke-linecap="round"/><path d="M169.49379,138.04828l-0.38602,-4.69472l107.97844,-8.87838l0.38602,4.69472l-43.29359,25.30145z" data-paper-data="{&quot;origRot&quot;:0}" fill="#ffd499" stroke="none" stroke-width="0" stroke-linecap="butt"/><path d="M374.8477,311.11627c0.1356,-0.21486 0.27139,-0.42962 0.40743,-0.64424c0.09874,-0.21104 0.19583,-0.42256 0.29123,-0.63455c0.45743,-0.98215 0.99488,-1.93655 1.61733,-2.82765l-0.10931,-0.10369l1.97368,-2.08054c0.45577,-0.48246 1.10154,-0.78352 1.81762,-0.78352c1.38071,0 2.5,1.11929 2.5,2.5c0,0.52532 -0.16203,1.0128 -0.43883,1.41519l-1.36779,2.05169c0.12368,0.80229 -0.88273,1.34966 -1.35063,2.02594l-0.03613,0.05419c-0.20554,0.32062 -0.41021,0.64172 -0.61426,0.96317c-3.47134,6.90899 -8.14602,13.00563 -13.01822,18.96197c-0.35507,0.84635 -0.73118,1.67725 -1.13813,2.48364c-3.03309,6.01023 -7.29923,11.68478 -10.8325,17.42636c-1.15652,1.87935 -2.22522,4.13622 -3.60616,5.86001c-1.1628,1.45149 -2.74231,2.53503 -3.89691,3.99306c-0.91623,1.157 -1.36916,2.63286 -2.27307,3.79952c-4.37296,5.64415 -9.89139,11.07035 -15.29887,15.58798c-2.86997,2.39769 -4.7966,5.69475 -7.61372,8.17521c-3.50318,2.9924 -7.69605,6.66511 -11.88825,8.88369l0.06357,0.1907l-2.77097,0.92366c-0.2642,0.09499 -0.54902,0.14675 -0.84593,0.14675c-0.69595,0 -1.32549,-0.28438 -1.77874,-0.74327c-0.06804,0.02902 -0.14143,0.03557 -0.22194,0.01104l-0.94211,0.94211v0c-0.45241,0.45241 -1.07741,0.73223 -1.76777,0.73223c-1.38071,0 -2.5,-1.11929 -2.5,-2.5c0,-0.40921 0.09832,-0.79545 0.27261,-1.1364c-2.42373,1.33576 -5.06396,2.61515 -7.5295,3.56176c-0.60439,0.23205 -1.31202,0.7739 -1.88422,0.47106l-1.82983,0.45746c-0.15534,0.04246 -0.31671,0.07031 -0.48254,0.08199c-0.43563,0.3485 -0.87126,0.697 -1.30688,1.04551c-0.65072,0.52058 -1.12166,1.63022 -1.95217,1.56174l-1.93662,1.5493c-0.43024,0.35027 -0.97924,0.56027 -1.57729,0.56027c-1.38071,0 -2.5,-1.11929 -2.5,-2.5c0,-0.69036 0.27982,-1.31536 0.73223,-1.76777l2.82633,-2.82633l0.08049,0.08049c0.7646,-0.63518 1.55922,-1.23152 2.37454,-1.80102c-0.83966,0.36733 -1.6766,0.73816 -2.51175,1.11102c-0.86794,0.54361 -1.72381,1.1073 -2.5594,1.70505c-0.55312,0.39568 -0.80344,1.14572 -1.38524,1.49788c-1.28259,0.77634 -2.64242,1.00996 -3.86292,1.69152l-2.14232,1.42822c-0.40239,0.27681 -0.88987,0.43883 -1.41519,0.43883c-0.76415,0 -1.44823,-0.34284 -1.9068,-0.8831c-1.25321,0.52418 -2.51365,1.03547 -3.78443,1.52898l0.00317,0.00845l-1.42762,0.53536v0l-1.37367,0.51513c-0.28795,0.11572 -0.60242,0.17941 -0.93176,0.17941c-1.38071,0 -2.5,-1.11929 -2.5,-2.5c0,-0.99801 0.58479,-1.85943 1.43041,-2.26029l1.83578,-0.91789c0.18579,-0.67719 1.24267,-0.65663 1.88422,-0.94211c0.91069,-0.40524 1.82754,-0.79579 2.74686,-1.18071c-0.22872,-0.37744 -0.36038,-0.82023 -0.36038,-1.29378c0,-0.93631 0.51473,-1.7524 1.27665,-2.18074l1.21626,-0.71278c3.5278,-2.06746 5.90392,-4.2026 9.04242,-6.76154c2.21823,-1.80861 5.03784,-2.92796 7.36344,-4.59382c5.49198,-3.93397 10.28419,-8.82841 15.81529,-12.72315c3.38097,-2.38072 7.03969,-4.40001 10.48254,-6.69524c9.39248,-6.16887 15.84948,-15.82974 25.01442,-22.29576c1.46442,-1.03318 3.19,-1.69037 4.90802,-2.32828c3.9141,-4.20151 7.0662,-9.15041 10.1991,-13.90378c2.25953,-3.42826 5.05819,-6.55877 7.41975,-9.93244c0.08659,-0.1237 0.17313,-0.24668 0.25968,-0.36898c0.78704,-1.20455 1.59639,-2.39049 2.46992,-3.52178c0.29604,-0.3834 0.68092,-0.70037 1.0593,-1.01983c0.19561,-0.22541 0.39389,-0.44954 0.59525,-0.67264c0.4668,-3.70092 0.72968,-7.4645 1.92798,-11.05941c0,0 0.79057,-2.37171 3.16228,-1.58114c1.7666,0.58887 1.7787,2.05499 1.66987,2.76477c1.10293,0.26019 1.92378,1.25087 1.92378,2.43327c0,0.29691 -0.05176,0.58173 -0.14675,0.84593l-0.16854,0.50562c0.20476,-0.05421 0.41981,-0.0831 0.64162,-0.0831c0.93231,0 1.74542,0.51033 2.17523,1.26689c0.75655,0.42981 1.26689,1.24292 1.26689,2.17523c0,0.29691 -0.05176,0.58173 -0.14675,0.84593l-0.83865,2.51594c0.02318,0.08949 0.03023,0.1796 0.0243,0.27021z" fill="#ff0202" stroke="none" stroke-width="0.5" stroke-linecap="butt"/></g></g></svg>