<svg version="1.1" xmlns="http://www.w3.org/2000/svg" xmlns:xlink="http://www.w3.org/1999/xlink" width="74.93554" height="53.434" viewBox="0,0,74.93554,53.434"><defs><linearGradient x1="204.54843" y1="185.02425" x2="254.61747" y2="185.02425" gradientUnits="userSpaceOnUse" id="color-1"><stop offset="0" stop-color="#fffd00" stop-opacity="0"/><stop offset="1" stop-color="#fffd00"/></linearGradient><linearGradient x1="206.90067" y1="171.34713" x2="256.9697" y2="171.34713" gradientUnits="userSpaceOnUse" id="color-2"><stop offset="0" stop-color="#fffd00" stop-opacity="0"/><stop offset="1" stop-color="#fffd00"/></linearGradient><linearGradient x1="217.31772" y1="181.82845" x2="277.46776" y2="181.82845" gradientUnits="userSpaceOnUse" id="color-3"><stop offset="0" stop-color="#ff6400" stop-opacity="0"/><stop offset="1" stop-color="#ff6400"/></linearGradient><linearGradient x1="202.53223" y1="181.90939" x2="277.46776" y2="181.90939" gradientUnits="userSpaceOnUse" id="color-4"><stop offset="0" stop-color="#cf0000" stop-opacity="0"/><stop offset="1" stop-color="#cf0000"/></linearGradient></defs><g transform="translate(-202.53223,-153.283)"><g data-paper-data="{&quot;isPaintingLayer&quot;:true}" fill-rule="nonzero" stroke="none" stroke-width="0" stroke-linecap="butt" stroke-linejoin="miter" stroke-miterlimit="10" stroke-dasharray="" stroke-dashoffset="0" style="mix-blend-mode: normal"><path d="M220.08596,203.07019c-5.40454,0.24902 -8.68904,-2.12682 -9.77146,-2.90934c-0.9015,-0.65172 2.26324,-4.1533 6.93963,-5.65136c4.22645,-1.35393 10.0578,-0.73627 8.58314,-0.92343c-1.87717,-0.23824 -4.52208,-3.04511 -6.75056,-3.18281c-6.2379,-0.38546 -12.28235,2.08226 -12.75716,1.09465c-0.53742,-1.11785 2.6447,-3.50687 8.12598,-4.78556c4.80264,-1.12038 12.10052,-1.10507 10.42274,-2.43176c-1.64801,-1.30316 -9.35509,0.38348 -13.87071,-0.15245c-4.84596,-0.57513 -6.45913,-3.37082 -6.45913,-4.83118c0,-1.89304 4.21596,-0.81961 9.87533,-0.54597c5.16339,0.24966 11.79166,-0.30268 12.24864,-1.65644c0.62019,-1.83729 -17.89561,-6.98348 -14.74547,-7.88129c1.77488,-0.50585 5.04813,-2.27438 8.78259,-2.25293c6.0632,0.03483 12.97483,2.12791 13.92525,2.17413c6.19115,0.30109 36.44836,-1.8004 36.44836,7.62876c0,9.42916 -16.43702,22.65317 -37.12194,23.26526c-3.7982,0.1124 -9.73687,2.85105 -13.87522,3.04173z" data-paper-data="{&quot;index&quot;:null}" fill="url(#color-1)"/><path d="M236.31342,156.34292c20.68492,0.61208 37.12194,13.8361 37.12194,23.26526c0,9.42916 -30.2572,7.32767 -36.44836,7.62876c-0.95041,0.04622 -7.86205,2.13931 -13.92524,2.17413c-3.73446,0.02145 -7.00771,-1.74708 -8.78258,-2.25294c-3.15014,-0.89781 15.36566,-6.044 14.74547,-7.88129c-0.45697,-1.35375 -7.08525,-1.9061 -12.24863,-1.65644c-5.65937,0.27364 -9.87533,1.34707 -9.87533,-0.54597c0,-1.46035 1.61316,-4.25605 6.45913,-4.83118c4.51563,-0.53592 12.22269,1.15071 13.87071,-0.15245c1.67778,-1.32669 -5.6201,-1.31139 -10.42274,-2.43177c-5.48127,-1.27869 -8.6634,-3.66772 -8.12598,-4.78556c0.47481,-0.98761 6.51925,1.48012 12.75716,1.09466c2.22848,-0.13771 4.8734,-2.94458 6.75057,-3.18282c1.47466,-0.18715 -4.35669,0.43051 -8.58315,-0.92342c-4.67639,-1.49806 -7.84112,-4.99964 -6.93963,-5.65137c1.08241,-0.78252 4.36692,-3.15835 9.77146,-2.90933c4.13835,0.19068 10.07702,2.92933 13.87523,3.04172z" fill="url(#color-2)"/><path d="M235.98361,204.18234c-6.4927,0.30847 -10.43852,-2.63453 -11.73887,-3.60386c-1.083,-0.80731 2.71893,-5.14479 8.33686,-7.00047c5.07742,-1.67715 12.08287,-0.91204 10.31129,-1.14387c-2.25512,-0.29511 -5.43257,-3.77205 -8.10973,-3.94263c-7.49386,-0.47748 -14.75531,2.57935 -15.32571,1.35598c-0.64563,-1.3847 3.17719,-4.34402 9.76209,-5.92797c5.76961,-1.38783 14.53686,-1.36888 12.52127,-3.01228c-1.97983,-1.61425 -11.23866,0.47502 -16.66347,-0.18884c-5.82166,-0.71242 -7.75963,-4.17551 -7.75963,-5.98448c0,-2.34495 5.06482,-1.01527 11.86365,-0.6763c6.20299,0.30925 14.16583,-0.37494 14.71481,-2.05187c0.74506,-2.27589 -21.49875,-8.65059 -17.71436,-9.76273c2.13224,-0.62661 6.06453,-2.81733 10.55089,-2.79076c7.28397,0.04314 15.58721,2.63589 16.72899,2.69314c7.43769,0.37297 24.00607,4.68496 24.00607,16.36507c0,11.68011 0.0344,21.14581 -24.81527,21.90401c-4.56294,0.13922 -11.69731,3.53165 -16.66889,3.76785z" data-paper-data="{&quot;index&quot;:null}" fill="url(#color-3)"/><path d="M246.55266,161.304c30.95798,0.84058 30.9151,11.33473 30.9151,24.28387c0,12.94914 -20.64105,17.72964 -29.907,18.14312c-1.42244,0.06348 -11.7667,2.93793 -20.84114,2.98575c-5.58915,0.02946 -10.48804,-2.39928 -13.14441,-3.09398c-4.71463,-1.23297 22.99693,-8.30027 22.06872,-10.82344c-0.68392,-1.85912 -10.6041,-2.61765 -18.33185,-2.27479c-8.47005,0.37579 -14.77985,1.84994 -14.77985,-0.74979c0,-2.00552 2.41433,-5.84487 9.66702,-6.63469c6.75828,-0.73599 18.29303,1.58027 20.75952,-0.20936c2.51104,-1.82195 -8.4113,-1.80094 -15.59913,-3.33956c-8.20352,-1.75604 -12.96603,-5.0369 -12.1617,-6.57205c0.71062,-1.35629 9.75699,2.03266 19.09292,1.50331c3.33524,-0.18911 7.29373,-4.04382 10.10319,-4.37099c2.20704,-0.25702 -6.5204,0.59122 -12.84591,-1.26814c-6.99889,-2.0573 -11.73537,-6.86604 -10.38615,-7.76106c1.61998,-1.07464 6.53573,-4.33739 14.6244,-3.99542c0.04208,0.00178 0.08428,0.00372 0.12661,0.00582c6.18766,0.30698 14.99372,4.01811 20.63966,4.17141z" fill="url(#color-4)"/></g></g></svg>