<svg version="1.1" xmlns="http://www.w3.org/2000/svg" xmlns:xlink="http://www.w3.org/1999/xlink" width="326.1" height="128.37889"><defs><radialGradient cx="242.51967" cy="345.41011" r="202.67552" gradientUnits="userSpaceOnUse" id="color-1"><stop offset="0" stop-color="#e5e5e5"/><stop offset="1" stop-color="#ffffff"/></radialGradient></defs><g transform="translate(-74.18828,-264.5836)"><g data-paper-data="{&quot;isPaintingLayer&quot;:true}" fill-rule="nonzero" stroke-linejoin="miter" stroke-miterlimit="10" stroke-dasharray="" stroke-dashoffset="0" style="mix-blend-mode: normal"><path d="M304.9477,390.18388c0,0 -9.31669,1.46364 -10.52614,-1.48593c-3.59994,-7.09162 -1.26314,-23.12484 -1.26314,-23.12484" data-paper-data="{&quot;origPos&quot;:null}" id="ID0.38359898002818227" fill="none" stroke="#000000" stroke-width="5" stroke-linecap="round"/><path d="M76.68828,348.15983c0,0 3.28205,-14.6318 9.26301,-18.20268c8.15039,-5.29457 28.63111,-5.57225 28.63111,-5.57225" data-paper-data="{&quot;origPos&quot;:null}" id="ID0.7082497556693852" fill="none" stroke="#000000" stroke-width="5" stroke-linecap="round"/><path d="M359.89417,324.2456c0,0 20.48072,0.27768 28.63111,5.57225c5.98095,3.57088 9.26301,18.20268 9.26301,18.20268" data-paper-data="{&quot;origPos&quot;:null}" id="ID0.7082497556693852" fill="none" stroke="#000000" stroke-width="5" stroke-linecap="round"/><g data-paper-data="{&quot;origPos&quot;:null}" id="ID0.7015885752625763" fill="#392000" stroke="#291700" stroke-width="5"><path d="M154.21332,361.25462c-11.92191,-1.74133 -23.66172,-5.45802 -34.68364,-10.54084c-3.36205,-1.21661 -5.60412,-4.42344 -7.15778,-7.80115c-1.85786,-3.92751 -1.75787,-8.89703 -2.36838,-12.49113c-0.16316,-0.96307 -0.97051,4.27949 0.42105,3.34335c5.11992,-3.50495 -4.7115,-11.77138 13.05242,-13.3734c71.05568,-6.40994 143.08397,-9.43475 214.31228,-7.80115c17.80708,0.40863 17.95128,6.68298 23.99961,13.00192c3.281,3.46965 1.33998,9.24622 0.6842,13.97706c-0.12631,2.65518 -1.39261,5.45152 -2.99995,7.80115c-1.29051,1.89085 -2.57048,4.06681 -5.42096,5.20077c-11.52718,3.72876 -23.43225,6.83251 -35.631,8.68342c-25.59221,3.8755 -51.78757,7.75936 -77.47242,7.80115c-29.03216,0.04736 -58.09484,-3.62196 -86.73542,-7.80115z" id="ID0.2127109868451953" stroke-linecap="round"/><path d="M236.5804,297.22019c34.8489,0 66.42733,3.49659 89.29327,9.14592c22.86699,5.6484 37.02045,13.44955 37.02045,22.05868c0,8.60913 -14.15345,16.41028 -37.02045,22.05868c-22.86594,5.64933 -54.44437,9.14592 -89.29327,9.14592c-34.8489,0 -66.42733,-3.49659 -89.29327,-9.14592c-22.86699,-5.6484 -37.02045,-13.44955 -37.02045,-22.05868c0,-8.60913 14.15345,-16.41028 37.02045,-22.05868c22.86594,-5.64933 54.44437,-9.14592 89.29327,-9.14592z" id="ID0.8203349513933063" stroke-linecap="butt"/></g><path d="M238.30984,314.54533c36.17257,-1.36557 72.03514,-14.46695 108.01991,-10.91167c9.17595,0.91989 8.77417,14.3556 10.12362,21.91547c-0.18158,3.00372 0.23379,4.69527 -1.72208,5.93928c-8.98396,4.5203 -18.49907,8.27999 -28.59658,10.03692c-26.87145,4.65561 -54.57153,7.54705 -81.7195,8.19529c-23.34057,0.55797 -46.82008,-1.62245 -69.8737,-4.8343c-17.46582,-2.43377 -34.62596,-6.55622 -51.34863,-11.51022c-4.18098,-1.23853 -4.34172,-2.98626 -4.22688,-5.20262c0.79209,-5.41623 -2.57891,-14.55537 6.73168,-15.60787c37.15887,-4.48343 74.97625,3.40056 112.61216,1.97973z" data-paper-data="{&quot;origPos&quot;:null}" id="ID0.4619863573461771" fill="url(#color-1)" stroke="#cccccc" stroke-width="4.95752" stroke-linecap="round"/><path d="M154.42385,331.11804c-12.60611,-2.04409 -24.5217,-6.87616 -36.20993,-11.51598c-3.17153,-1.26026 -6.43884,-3.42322 -7.57882,-6.31522c-1.71471,-4.36214 -0.32315,-9.43753 -0.42105,-13.00192c0.09789,-1.25933 -0.97051,4.27949 0.42105,3.34335c5.11992,-3.50495 -4.7115,-11.77138 13.05242,-13.3734c71.05568,-6.40994 143.08397,-9.43475 214.31228,-7.80115c17.80708,0.40863 17.52708,7.01732 23.99961,13.00192c3.19258,3.20869 2.74417,8.33794 2.94732,12.63043c0.10947,2.57624 -0.93998,5.56296 -2.52627,8.17263c-0.76209,1.27697 -0.88841,1.88714 -4.21046,2.97187c-13.2882,4.33985 -26.03536,9.45332 -39.5783,11.88747c-25.62695,4.15411 -51.78757,7.75936 -77.47242,7.80115c-29.03216,0.04736 -58.23168,-3.18083 -86.73542,-7.80115z" id="ID0.2127109868451953" fill="#392000" stroke="#291700" stroke-width="5" stroke-linecap="round"/><path d="M236.84355,267.0836c34.8489,0 66.42733,3.49659 89.29327,9.14592c22.86699,5.6484 37.02045,13.44955 37.02045,22.05868c0,8.60913 -14.15345,16.41028 -37.02045,22.05868c-22.86594,5.64933 -54.44437,9.14592 -89.29327,9.14592c-34.8489,0 -66.42733,-3.49659 -89.29327,-9.14592c-22.86699,-5.6484 -37.02045,-13.44955 -37.02045,-22.05868c0,-8.60913 14.15345,-16.41028 37.02045,-22.05868c22.86594,-5.64933 54.44437,-9.14592 89.29327,-9.14592z" id="ID0.8203349513933063" fill="#392000" stroke="#291700" stroke-width="5" stroke-linecap="butt"/><path d="M304.31612,295.64138l41.68353,-2.60038" id="ID0.0021916357800364494" fill="none" stroke="#291700" stroke-width="3" stroke-linecap="round"/><path d="M299.68463,306.4144l20.2102,10.40153" id="ID0.4336887924000621" fill="none" stroke="#291700" stroke-width="3" stroke-linecap="round"/><path d="M279.89548,325.36005l-5.05255,-11.88747" id="ID0.009228594601154327" fill="none" stroke="#291700" stroke-width="3" stroke-linecap="round"/><path d="M251.68541,323.13115v-7.80115" id="ID0.27423911774531007" fill="none" stroke="#291700" stroke-width="3" stroke-linecap="round"/><path d="M219.26489,327.96043l6.31569,-9.65857" id="ID0.7893168786540627" fill="none" stroke="#291700" stroke-width="3" stroke-linecap="round"/><path d="M201.15992,311.98665l-18.94706,5.94373" id="ID0.6057839347049594" fill="none" stroke="#291700" stroke-width="3" stroke-linecap="round"/><path d="M172.10777,304.55698l-37.47307,2.97187" id="ID0.709995178040117" fill="none" stroke="#291700" stroke-width="3" stroke-linecap="round"/><path d="M175.89718,295.64138l-44.63085,-5.20077" id="ID0.9885275894775987" fill="none" stroke="#291700" stroke-width="3" stroke-linecap="round"/><path d="M167.47626,278.92463l25.68379,6.31522" id="ID0.25665095215663314" fill="none" stroke="#291700" stroke-width="3" stroke-linecap="round"/><path d="M203.6862,275.2098l4.6315,4.82928" id="ID0.627319558057934" fill="none" stroke="#291700" stroke-width="3" stroke-linecap="round"/><path d="M227.6858,277.81018l-0.84209,-4.4578z" id="ID0.27489845687523484" fill="none" stroke="#291700" stroke-width="3" stroke-linecap="round"/><path d="M252.94855,273.72387l-2.52627,5.94373" id="ID0.20767192309722304" fill="none" stroke="#291700" stroke-width="3" stroke-linecap="round"/><path d="M283.26383,274.83832l-7.15778,4.82928" id="ID0.2626995458267629" fill="none" stroke="#291700" stroke-width="3" stroke-linecap="round"/><path d="M292.52685,285.61133l15.99974,-4.08632" id="ID0.2796305916272104" fill="none" stroke="#291700" stroke-width="3" stroke-linecap="round"/><path d="M182.11644,390.4625c0,0 -9.31669,1.46364 -10.52614,-1.48593c-3.59994,-7.09162 -1.26314,-23.12484 -1.26314,-23.12484" data-paper-data="{&quot;origPos&quot;:null,&quot;index&quot;:null}" id="ID0.38359898002818227" fill="none" stroke="#000000" stroke-width="5" stroke-linecap="round"/><g data-paper-data="{&quot;origPos&quot;:null}" stroke-linecap="round"><path d="M233.89623,289.32616c2.72943,0 5.20307,0.81169 6.99462,2.12303c1.79155,1.31134 2.62206,3.23098 2.89995,5.1209c0.23473,1.61688 -0.65999,3.40929 -1.68418,4.82928c-1.00735,1.39956 -2.64943,2.82606 -4.6315,3.34335c-2.74206,0.78476 -5.78833,0.74297 -8.84196,0.37148c-2.11575,-0.25818 -4.73045,-0.65938 -5.89464,-2.2289c-1.20945,-1.63081 -0.76315,-4.05195 0,-5.94373c0.68946,-2.09981 2.14418,-4.11418 4.16309,-5.49238c1.94734,-1.32991 4.26519,-2.12303 6.99462,-2.12303z" data-paper-data="{&quot;origPos&quot;:null}" id="ID0.793330445419997" fill="#ffffff" stroke="#291700" stroke-width="5"/><path d="M252.63276,304.92846c0,0 1.19051,-5.96416 1.52629,-8.9156c0.10421,-2.75641 -2.98521,-7.30615 -0.21052,-8.17263c4.70308,-1.46736 13.97872,1.31134 15.15765,3.90057c0.9263,1.86856 -11.5956,1.99672 -10.94719,5.01502c0.89262,4.14854 14.0524,8.9156 14.0524,8.9156" data-paper-data="{&quot;origPos&quot;:null}" id="ID0.043922435492277145" fill="none" stroke="#291700" stroke-width="5"/><path d="M319.20536,290.52048c2.01891,1.3782 3.47363,3.39257 4.16309,5.49238c0.76315,1.89178 1.20945,4.31292 0,5.94373c-1.16419,1.56952 -3.77889,1.97072 -5.89464,2.2289c-3.05363,0.37148 -6.0999,0.41328 -8.84196,-0.37148c-1.98207,-0.51729 -3.62415,-1.94379 -4.6315,-3.34335c-1.02419,-1.41999 -1.91892,-3.2124 -1.68418,-4.82928c0.27789,-1.88992 1.1084,-3.80956 2.89995,-5.1209c1.79155,-1.31134 4.26519,-2.12303 6.99462,-2.12303c2.72943,0 5.04729,0.79312 6.99462,2.12303z" data-paper-data="{&quot;origPos&quot;:null}" id="ID0.793330445419997" fill="#ffffff" stroke="#291700" stroke-width="5"/><path d="M238.55244,296.95769l0.31578,0.27861" data-paper-data="{&quot;origPos&quot;:null}" id="ID0.029519624542444944" fill="none" stroke="#000000" stroke-width="5"/><path d="M318.97217,295.87829l0.31578,0.27861" data-paper-data="{&quot;origPos&quot;:null}" id="ID0.8245234126225114" fill="none" stroke="#000000" stroke-width="5"/><path d="M295.36891,310.40784h-51.0518" data-paper-data="{&quot;origPos&quot;:null}" id="ID0.5374096846207976" fill="none" stroke="#000000" stroke-width="6"/><path d="M298.00044,313.65832c0,0 0,-6.50096 0.73683,-7.80115c0,0 -11.26297,1.48593 -15.94711,-0.55722c-2.68417,-1.25376 -4.42098,-5.8973 -2.31575,-7.61541c2.99995,-2.55395 12.84189,-1.06801 12.84189,-1.11445c-0.05263,-0.09287 -8.99985,1.11445 -12.42085,-0.55722c-1.94734,-0.97514 -2.7368,-4.59711 -1.05261,-5.75799c3.68415,-2.55395 13.84188,-2.78612 13.84188,-2.78612" data-paper-data="{&quot;origPos&quot;:null}" id="ID0.5785163878463209" fill="none" stroke="#291700" stroke-width="5"/><path d="M294.8426,305.29995c-0.17473,4.17454 -0.2,8.36952 -0.52631,12.53756c-0.08105,1.04201 -0.52631,0.92871 -0.52631,0.92871" data-paper-data="{&quot;origPos&quot;:null}" id="ID0.6212077126838267" fill="none" stroke="#000000" stroke-width="6"/><path d="M243.7908,302.97818v14.85933" data-paper-data="{&quot;origPos&quot;:null}" id="ID0.27379179932177067" fill="none" stroke="#000000" stroke-width="6"/></g></g></g></svg>