<svg version="1.1" xmlns="http://www.w3.org/2000/svg" xmlns:xlink="http://www.w3.org/1999/xlink" width="247.434" height="423.8567" viewBox="0,0,247.434,423.8567"><defs><linearGradient x1="215.73448" y1="20.83632" x2="215.73448" y2="252.68835" gradientUnits="userSpaceOnUse" id="color-1"><stop offset="0" stop-color="#fffd00"/><stop offset="1" stop-color="#880000"/></linearGradient><linearGradient x1="279.0684" y1="31.7287" x2="279.0684" y2="263.58072" gradientUnits="userSpaceOnUse" id="color-2"><stop offset="0" stop-color="#fffd00"/><stop offset="1" stop-color="#880000"/></linearGradient><linearGradient x1="230.15828" y1="11.5" x2="230.15828" y2="358.5" gradientUnits="userSpaceOnUse" id="color-3"><stop offset="0" stop-color="#cf0000"/><stop offset="1" stop-color="#880000"/></linearGradient><linearGradient x1="230.53309" y1="79.96637" x2="230.53309" y2="358.5" gradientUnits="userSpaceOnUse" id="color-4"><stop offset="0" stop-color="#ff6400"/><stop offset="1" stop-color="#880000"/></linearGradient><linearGradient x1="271.5" y1="62.59003" x2="271.5" y2="137.59003" gradientUnits="userSpaceOnUse" id="color-5"><stop offset="0" stop-color="#000000"/><stop offset="1" stop-color="#000000" stop-opacity="0"/></linearGradient></defs><g transform="translate(-115.28299,-7.93985)"><g data-paper-data="{&quot;isPaintingLayer&quot;:true}" fill-rule="nonzero" stroke-linejoin="miter" stroke-miterlimit="10" stroke-dasharray="" stroke-dashoffset="0" style="mix-blend-mode: normal"><path d="M132.17013,92.78514c-1.15313,-25.02652 9.84853,-40.2359 13.47211,-45.24818c3.01791,-4.1745 19.23248,10.48027 26.16948,32.13495c6.26957,19.57123 3.4094,46.57415 4.27605,39.74551c1.10319,-8.69252 14.10085,-20.94017 14.73851,-31.25949c1.78493,-28.88553 -9.64223,-56.87521 -5.06898,-59.07387c5.17635,-2.48861 16.23905,12.24668 22.16024,37.62854c5.18808,22.23931 5.1172,56.03325 11.26064,48.26404c6.03444,-7.63137 -1.77575,-43.32011 0.70593,-64.23037c2.66322,-22.43995 15.60907,-29.90995 22.37147,-29.90995c8.76599,0 3.79533,19.52265 2.5282,45.72916c-1.15608,23.90982 1.40161,54.60305 7.67038,56.71911c8.50785,2.87187 32.33804,-82.86822 36.49547,-68.28106c2.34242,8.21885 10.53189,23.3761 10.43256,40.66905c-0.16126,28.07651 -9.85361,60.08185 -10.06764,64.48289c-1.39423,28.66905 8.33704,168.7795 -35.32608,168.7795c-43.66312,0 -104.89884,-76.114 -107.73319,-171.89859c-0.52045,-17.58813 -13.20218,-45.088 -14.08515,-64.25126z" data-paper-data="{&quot;index&quot;:null}" fill="url(#color-1)" stroke="none" stroke-width="0" stroke-linecap="butt"/><path d="M348.54759,167.92877c-2.83435,95.78459 -64.07007,171.89859 -107.73319,171.89859c-43.66312,0 -33.93185,-140.11045 -35.32608,-168.7795c-0.21403,-4.40104 -9.90638,-36.40638 -10.06764,-64.48289c-0.09933,-17.29296 8.09013,-32.4502 10.43256,-40.66905c4.15743,-14.58716 27.98762,71.15293 36.49547,68.28106c6.26877,-2.11606 8.82647,-32.80929 7.67038,-56.71911c-1.26713,-26.20651 -6.23779,-45.72916 2.5282,-45.72916c6.7624,0 19.70824,7.46999 22.37147,29.90995c2.48168,20.91026 -5.32852,56.599 0.70593,64.23037c6.14344,7.76921 6.07257,-26.02473 11.26064,-48.26404c5.92119,-25.38186 16.98389,-40.11715 22.16024,-37.62854c4.57326,2.19867 -6.85391,30.18834 -5.06898,59.07387c0.63766,10.31932 13.63533,22.56697 14.73851,31.25949c0.86665,6.82864 -1.99353,-20.17428 4.27605,-39.74551c6.937,-21.65468 23.15157,-36.30945 26.16948,-32.13495c3.62358,5.01227 14.62524,20.22166 13.47211,45.24818c-0.88297,19.16326 -13.5647,46.66313 -14.08515,64.25126z" fill="url(#color-2)" stroke="none" stroke-width="0" stroke-linecap="butt"/><path d="M325.57459,215.34305c-3.89244,143.35546 -52.48712,143.15695 -112.45002,143.15695c-59.9629,0 -82.09968,-95.58142 -84.01438,-138.48879c-0.29393,-6.5868 -13.6045,-54.4874 -13.82596,-96.50795c-0.13641,-25.88141 11.11024,-48.56641 14.32711,-60.86711c5.70944,-21.83179 38.43563,106.49064 50.11952,102.19247c8.60896,-3.16699 12.12145,-49.10384 10.53379,-84.88834c-1.74016,-39.22183 -8.56641,-68.44029 3.47199,-68.44029c9.28685,0 27.06548,11.17992 30.72291,44.76455c3.40811,31.29521 -7.31769,84.70857 0.96945,96.13002c8.43684,11.62774 8.33951,-38.94976 15.46433,-72.2341c8.13161,-37.98761 23.32411,-60.04111 30.43282,-56.31654c6.2805,3.29062 -9.41252,45.1812 -6.96126,88.41257c0.87571,15.44435 18.72549,33.77472 20.24051,46.78434c1.19017,10.22005 -2.73773,-30.19372 5.87233,-59.48489c9.52664,-32.40936 31.79423,-54.34234 35.93875,-48.0946c4.97628,7.50159 20.08496,30.26464 18.50136,67.72043c-0.00824,0.19485 -0.01722,0.39028 -0.02695,0.58627c-1.42151,28.65286 -18.60643,69.43065 -19.31631,95.575z" fill="url(#color-3)" stroke="none" stroke-width="0" stroke-linecap="butt"/><path d="M127.02013,166.40151c-1.42841,-30.06541 12.1996,-48.3371 16.6882,-54.35855c3.73835,-5.015 23.82368,12.5904 32.4167,38.60509c7.76626,23.51174 4.2233,55.95149 5.29683,47.74795c1.36655,-10.44269 17.46703,-25.15631 18.25691,-37.55334c2.21103,-34.70142 -11.94405,-68.3266 -6.27905,-70.96794c6.41205,-2.98967 20.11565,14.71247 27.45036,45.20476c6.42658,26.71702 6.33879,67.31511 13.9488,57.98162c7.47499,-9.16789 -2.19966,-52.04228 0.87445,-77.16265c3.299,-26.95806 19.3353,-35.93208 27.71202,-35.93208c10.85862,0 4.70135,23.45339 3.13173,54.93638c-1.43206,28.72388 1.7362,65.59696 9.50147,68.13907c10.53885,3.4501 40.05783,-99.55311 45.20773,-82.02894c2.90161,9.87365 13.04606,28.08269 12.92303,48.85746c-0.19976,33.7295 -12.20587,72.17886 -12.471,77.46602c-1.72706,34.44134 -21.6944,111.16364 -75.78085,111.16364c-54.08644,0 -97.91877,0.15934 -101.42975,-114.91074c-0.64469,-21.12937 -16.35383,-54.16611 -17.44758,-77.18775z" data-paper-data="{&quot;index&quot;:null}" fill="url(#color-4)" stroke="none" stroke-width="0" stroke-linecap="butt"/><path d="M293.47974,31.36994c2.14751,11.03326 -12.63491,14.80568 -30.71069,18.32395c-18.07579,3.51826 -36.11341,4.21239 -38.26095,-6.82087c-2.14751,-11.03326 12.4083,-29.61585 30.4841,-33.1341c18.07579,-3.51826 36.34001,10.59777 38.48753,21.63104z" data-paper-data="{&quot;origRot&quot;:0}" fill="#2c1500" stroke="#000000" stroke-width="2.5" stroke-linecap="butt"/><path d="M334.39758,414.45976c13.02964,15.93595 -27.14402,8.80798 -38.97259,2.53996c-9.91505,-29.85095 -14.66508,-126.32142 -23.53186,-136.51853c-4.39373,-5.05293 -6.50092,134.56482 -9.91043,140.32781c-35.15474,17.28903 -53.25494,10.96413 -36.25976,-14.28033c8.07494,-28.0657 7.4192,-49.15326 4.07359,-78.16523c-3.50038,-30.35412 -7.59044,-58.46517 0.83508,-87.83584c6.65016,-23.18191 18.27762,-28.02704 42.39454,-28.02704c0,0 31.63502,4.36508 38.19303,28.06711c4.43904,16.04367 6.56092,42.7167 6.56092,90.89906z" fill="#ffffff" stroke="#000000" stroke-width="2.5" stroke-linecap="butt"/><path d="M325.20782,174.16506c9.56512,-0.64618 9.10713,-17.67173 9.51047,6.16739c0.26237,15.50677 -4.05925,4.20218 -4.80499,19.65937c-0.87665,18.17104 2.37474,5.24763 -7.24928,5.89779c-9.56512,0.64616 -13.64174,36.44913 -14.04506,12.60999c-0.40335,-23.8391 7.02377,-43.68835 16.58889,-44.33451z" data-paper-data="{&quot;index&quot;:null,&quot;origRot&quot;:0}" fill="#ffe9cc" stroke="#000000" stroke-width="2.5" stroke-linecap="butt"/><path d="M236.60421,221.12848c0.42505,23.57178 3.22355,-20.50485 -6.33156,-19.89919c-9.61395,0.60938 -9.04701,12.91367 -10.55108,-4.8997c-1.27943,-15.15295 -11.71537,6.0694 -11.99185,-9.26345c-0.42505,-23.57178 1.24873,-6.91584 10.80384,-7.52146c9.5551,-0.60564 17.64561,18.01205 18.07066,41.58384z" data-paper-data="{&quot;origRot&quot;:0}" fill="#ffe9cc" stroke="#000000" stroke-width="2.5" stroke-linecap="butt"/><path d="M326.42599,153.16893c1.24831,27.3037 -45.86992,22.96368 -56.99715,22.8767c-7.10477,-0.05554 -59.35276,16.6436 -59.40159,-10.68859c-0.01403,-7.84794 20.27251,-14.81116 28.07445,-15.65966c12.56232,-1.36623 9.19551,7.30721 17.5848,-2.14257c1.36683,-1.53962 0.37154,-15.11389 1.41696,-16.88751c3.13629,-5.32088 4.91347,-5.15841 14.41504,-5.47964c0,0 4.43884,-0.93938 6.90657,5.22515c1.60127,4.00007 2.78786,16.41843 4.23582,20.4765c0,0 4.28054,-5.95079 16.97825,-3.60781c-3.30276,-0.65239 -2.17882,-5.87978 26.78685,5.88741z" data-paper-data="{&quot;origRot&quot;:0}" fill="#ffe9cc" stroke="#000000" stroke-width="2.5" stroke-linecap="butt"/><path d="M228.65811,246.43355c0,0 -0.35066,-44.57234 -2.30319,-58.73491c-0.55797,-4.04714 -21.35806,-6.40914 -21.41865,-8.31621c-0.18176,-5.72122 3.5629,-15.56087 8.948,-21.61286c1.72081,-1.93393 2.66534,4.32587 13.04088,7.11374c3.82135,1.26314 9.13764,0.88323 10.75614,-2.80168c1.81937,-4.14228 -2.92173,-13.64946 1.2426,-11.88116c9.7435,-3.52265 17.34784,-5.85186 17.34784,-5.85186c0,0 -0.68741,20.42279 12.22978,19.9861c14.41821,-0.48746 10.90593,-18.5564 13.7692,-20.34142c0.85283,0.36217 18.04241,1.54174 19.1221,1.80259c0.35989,0.08694 2.61933,10.3746 4.36383,12.59199c3.37468,4.28954 9.54317,1.05826 12.20091,-0.83482c4.09605,-2.91759 7.8525,-5.85236 7.78325,-5.30522c0.83525,0.74191 9.41087,11.76382 12.67033,16.17966c-2.40345,12.97708 -22.63378,9.47963 -22.42336,16.316c0.66093,21.47045 -1.03082,59.89401 -1.03082,59.89401c0,0 -15.12125,8.10311 -27.84486,8.36791c-4.2412,0.08825 -58.45402,-6.5719 -58.45402,-6.5719z" data-paper-data="{&quot;origRot&quot;:0}" fill="#fffeae" stroke="#000000" stroke-width="2.5" stroke-linecap="butt"/><path d="M238.79809,209.75663c0.02368,0.70043 -0.09905,1.27305 -0.27417,1.27895c-0.17509,0.00592 -0.33626,-0.55709 -0.35994,-1.25751c-0.02368,-0.70043 0.09907,-1.27305 0.27419,-1.27895c0.17509,-0.00592 0.33626,0.5571 0.35993,1.25751z" data-paper-data="{&quot;origRot&quot;:0}" fill="#e7e69d" stroke="none" stroke-width="2.5" stroke-linecap="butt"/><path d="M323.31916,97.91307c-2.76308,29.86885 -45.69033,45.44364 -57.77305,43.67003c-7.71486,-1.13247 -51.56599,-24.95341 -47.4947,-54.67221c7.38288,-53.89216 29.21084,-51.55604 58.27973,-48.51788c29.06887,3.03816 52.38128,1.21924 46.98802,59.52006z" data-paper-data="{&quot;origRot&quot;:0}" fill="#ffe9cc" stroke="#000000" stroke-width="2.5" stroke-linecap="butt"/><path d="M218.5,99.59003l1,-37h104l-1,41c0,0 -34.53424,26.6333 -52.03693,25.96012c-17.15708,-0.65989 -51.96307,-29.96012 -51.96307,-29.96012z" fill="url(#color-5)" stroke="none" stroke-width="0" stroke-linecap="butt"/><path d="M327.21377,90.79387c-0.05075,0.48549 -17.33622,4.91383 -16.42749,5.16984c-15.05315,5.86714 -14.48688,5.49185 -30.36879,8.45587c-51.58422,9.62709 15.28192,-13.38531 -3.15569,-15.29085c-0.06836,-0.00706 -49.84712,13.69341 -49.9155,13.68627c-2.63546,-0.27544 -10.86747,4.12459 -13.27361,3.01459c-7.21836,-3.33002 1.81917,-69.53152 24.60093,-76.65855c29.41397,-9.20183 48.53552,-6.79392 65.9983,0.98221c27.84149,12.39775 23.71116,49.45296 22.54187,60.64066z" data-paper-data="{&quot;origRot&quot;:0}" fill="#2c1500" stroke="#000000" stroke-width="2.5" stroke-linecap="butt"/><path d="M226.25283,190.036l-3.40674,67.72476l-18.73553,-0.78299l3.60457,-73.121" fill="#ffe9cc" stroke="#000000" stroke-width="2.5" stroke-linecap="round"/><path d="M220.48162,251.24818c0,0 8.07608,33.83844 6.51729,37.92079c-2.21439,5.79934 -7.75729,-15.87254 -7.75729,-15.87254c0,0 -1.18329,4.14794 -0.69825,9.26466c0.69319,7.31236 8.00388,15.11045 -3.99608,19.41248c-14.88784,5.33735 -16.72975,-41.12772 -9.17356,-52.71985" fill="#ffe9cc" stroke="#000000" stroke-width="2.5" stroke-linecap="round"/><path d="M334.31474,185.40159l3.60455,73.121l-18.73553,0.78299l-3.40674,-67.72476" data-paper-data="{&quot;index&quot;:null}" fill="#ffe9cc" stroke="#000000" stroke-width="2.5" stroke-linecap="round"/><path d="M335.62628,247.7089c7.55621,11.59213 5.7143,58.0572 -9.17356,52.71985c-11.99996,-4.30203 -4.68927,-12.10013 -3.99608,-19.41248c0.48505,-5.11672 -0.69825,-9.26466 -0.69825,-9.26466c0,0 -5.5429,21.67188 -7.75729,15.87254c-1.55879,-4.08235 6.51729,-37.92079 6.51729,-37.92079" data-paper-data="{&quot;index&quot;:null}" fill="#ffe9cc" stroke="#000000" stroke-width="2.5" stroke-linecap="round"/><path d="M291.5,129.09003c0,3.03757 -8.50659,5.5 -19,5.5c-10.49341,0 -19,-2.46243 -19,-5.5c0,-3.03757 18.50659,-11.5 29,-11.5c10.49341,0 9,8.46243 9,11.5z" fill="#ffffff" stroke="#000000" stroke-width="2.5" stroke-linecap="butt"/></g></g></svg>