<svg version="1.1" xmlns="http://www.w3.org/2000/svg" xmlns:xlink="http://www.w3.org/1999/xlink" width="228.5" height="139.5" viewBox="0,0,228.5,139.5"><g transform="translate(-272.25,-249.54115)"><g data-paper-data="{&quot;isPaintingLayer&quot;:true}" fill-rule="nonzero" stroke-linejoin="miter" stroke-miterlimit="10" stroke-dasharray="" stroke-dashoffset="0" style="mix-blend-mode: normal"><path d="M272.25,389.04116l28.5,-120l200,-19.5v139.5z" fill="#4db494" stroke="none" stroke-width="NaN" stroke-linecap="butt"/><path d="M384.2037,341.69386v0" fill="#ffffff" stroke="none" stroke-width="1" stroke-linecap="butt"/><path d="M316.64815,341.69386" fill="#ffffff" stroke="none" stroke-width="1" stroke-linecap="butt"/><path d="M393.56667,332.33089c0,21.68889 -19.55556,28.68148 -43.73333,28.68148c-24.17778,0 -43.73333,-6.99259 -43.73333,-28.68148c0,-10.19259 2.84444,-21.92593 9.12593,-31.40741l-5.0963,-17.18519c-0.94815,-3.2 2.37037,-6.28148 5.45185,-4.97778l16.94815,7.11111c4.97778,-2.25185 10.66667,-3.55556 17.3037,-3.55556c6.51852,0 12.20741,1.42222 17.18519,3.67407l17.06667,-7.11111c3.08148,-1.3037 6.4,1.77778 5.45185,4.97778l-5.21481,17.42222c6.28148,9.36296 9.24444,20.97778 9.24444,31.05185z" fill="#ff7319" stroke="none" stroke-width="1" stroke-linecap="butt"/><path d="M384.08519,346.07904c0,11.37778 -15.28889,15.05185 -34.25185,15.05185c-18.96296,0 -34.25185,-3.67407 -34.25185,-15.05185c0,-11.37778 10.19259,-26.19259 34.25185,-26.19259c23.46667,0 34.25185,14.81481 34.25185,26.19259z" fill="#ffffff" stroke="none" stroke-width="1" stroke-linecap="butt"/><path d="M346.04074,325.10126c0,-1.54074 1.65926,-2.01481 3.79259,-2.01481c2.13333,0 3.79259,0.47407 3.79259,2.01481c0,1.54074 -1.18519,3.43704 -3.79259,3.43704c-2.60741,0 -3.79259,-1.8963 -3.79259,-3.43704z" fill="#945600" stroke="#000000" stroke-width="1.5" stroke-linecap="butt"/><path d="M356.35185,336.59756c-3.55556,0 -6.51852,-2.84444 -6.51852,-6.51852c0,-0.23704 0,-0.23704 0,-0.23704c0,-0.23704 0,-0.35556 0,-0.35556c0,0 0,0.11852 0,0.35556c0,0 0,0 0,0.23704c0,3.55556 -2.96296,6.51852 -6.51852,6.51852" fill="none" stroke="#000000" stroke-width="2.5" stroke-linecap="round"/><path d="M341.90741,314.94571c0,-2.02913 1.64494,-3.67407 3.67407,-3.67407c2.02913,0 3.67407,1.64494 3.67407,3.67407c0,2.02913 -1.64494,3.67407 -3.67407,3.67407c-2.02913,0 -3.67407,-1.64494 -3.67407,-3.67407z" fill="#000000" stroke="none" stroke-width="1" stroke-linecap="butt"/><path d="M355.41111,314.27904c0,-2.02913 1.64494,-3.67407 3.67407,-3.67407c2.02913,0 3.67407,1.64494 3.67407,3.67407c0,2.02913 -1.64494,3.67407 -3.67407,3.67407c-2.02913,0 -3.67407,-1.64494 -3.67407,-3.67407z" fill="#000000" stroke="none" stroke-width="1" stroke-linecap="butt"/><path d="M323.16667,292.39015c-2.37037,2.13333 -4.5037,4.14815 -6.28148,7.22963l-4.62222,-16c-0.35556,-1.8963 1.42222,-3.55556 3.31852,-2.96296l15.28889,6.4c-3.55556,1.42222 -5.45185,3.31852 -7.7037,5.33333z" fill="#77500c" stroke="none" stroke-width="1" stroke-linecap="butt"/><path d="M369.27037,287.05682l15.28889,-6.4c1.8963,-0.59259 3.67407,1.06667 3.31852,2.96296l-4.5037,16.11852c-1.8963,-3.08148 -3.91111,-5.0963 -6.4,-7.22963c-2.25185,-2.13333 -4.26667,-4.02963 -7.7037,-5.45185z" fill="#77500c" stroke="none" stroke-width="1" stroke-linecap="butt"/></g></g></svg>