<svg version="1.1" xmlns="http://www.w3.org/2000/svg" xmlns:xlink="http://www.w3.org/1999/xlink" width="937" height="711" viewBox="0,0,937,711"><g transform="translate(347.5,244.28334)"><g data-paper-data="{&quot;isPaintingLayer&quot;:true}" fill-rule="nonzero" stroke="none" stroke-width="0" stroke-linecap="butt" stroke-linejoin="miter" stroke-miterlimit="10" stroke-dasharray="" stroke-dashoffset="0" style="mix-blend-mode: normal"><path d="" fill="#6f3615"/><path d="" fill="#6f3615"/><path d="" fill="#6f3615"/><path d="" fill="#6f3615"/><path d="" fill="#6f3615"/><path d="" fill="#6f3615"/><path d="" fill="#6f3615"/><path d="" fill="#6f3615"/><path d="" fill="#6f3615"/><path d="" fill="#6f3615"/><path d="" fill="#6f3615"/><path d="M160.72025,440.00754v-256.05012h82.11488v256.05012z" fill="#c414c3"/><path d="" fill="#6f3615"/><path d="" fill="#6f3615"/><path d="" fill="#6f3615"/><path d="" fill="#6f3615"/><path d="" fill="#6f3615"/><path d="" fill="#6f3615"/><path d="" fill="#6f3615"/><path d="" fill="#6f3615"/><path d="" fill="#6f3615"/><path d="" fill="#6f3615"/><path d="" fill="#6f3615"/><path d="M242.5,440.71666v-315h51v315z" fill="#c414c3"/><path d="M400.5,441.71666v-315h51v315z" fill="#c414c3"/><path d="M446.5,380v-580h143v580z" fill="#c414c3"/><path d="M391.5,68.71666v-99h24v99z" fill="#c414c3"/><path d="M227.5,17.71666v-51h59v51z" fill="#c414c3"/><path d="M110.5,17.71666v-51h59v51z" fill="#c414c3"/><path d="M141.5,434.71666v-442h28v442z" fill="#c414c3"/><path d="M14.5,73.71666v-26h90v26z" fill="#c414c3"/><path d="M-14.5,154v-398.28334h58v398.28334z" fill="#c414c3"/><path d="M-39.5,459.71666v-250h59v250z" fill="#c414c3"/><path d="M-87.5,466.71666v-534h49v534z" fill="#c414c3"/><path d="M-178.5,-129.28334v-46h218v46z" fill="#c414c3"/><path d="M-347.5,363v-523h266v523z" fill="#c414c3"/></g></g></svg>