<svg version="1.1" xmlns="http://www.w3.org/2000/svg" xmlns:xlink="http://www.w3.org/1999/xlink" width="72.93333" height="69.52119" viewBox="0,0,72.93333,69.52119"><g transform="translate(-204.76251,-144.79204)"><g data-paper-data="{&quot;isPaintingLayer&quot;:true}" fill-rule="nonzero" stroke-linejoin="miter" stroke-miterlimit="10" stroke-dasharray="" stroke-dashoffset="0" style="mix-blend-mode: normal"><path d="M259.85417,181.32385c0,0 6.82621,3.2915 9.36472,5.74812c2.62525,2.54056 6.13528,9.25188 6.13528,9.25188l-14,-3c0,0 3.43023,4.43582 4.07337,7.26175c0.72258,3.17499 0.05163,10.86325 0.05163,10.86325l-23.75,-16.25" data-paper-data="{&quot;index&quot;:null}" fill="#74706c" stroke="#74706c" stroke-width="2.5" stroke-linecap="round"/><path d="M222.60417,181.94885c0,0 -6.82621,3.2915 -9.36472,5.74812c-2.62524,2.54056 -6.13528,9.25188 -6.13528,9.25188l14,-3c0,0 -3.43022,4.43582 -4.07336,7.26175c-0.72258,3.17499 -0.05164,10.86325 -0.05164,10.86325l23.75,-16.25" fill="#74706c" stroke="#74706c" stroke-width="2.5" stroke-linecap="round"/><path d="M242.81903,161.94885c0,0 2.47399,-6.1405 5.10773,-8.23986c3.05385,-2.43424 12.39227,-5.63514 12.39227,-5.63514c0,0 6.13655,11.8367 6.51382,17.39104c0.37267,5.48649 -4.26382,15.73396 -4.26382,15.73396" data-paper-data="{&quot;index&quot;:null}" fill="#74706c" stroke="#74706c" stroke-width="2.5" stroke-linecap="round"/><path d="M218.46064,181.99449c0,-11.83736 10.38653,-21.43344 23.19896,-21.43344c12.81243,0 18.07982,9.82055 20.37413,21.43344c3.00138,15.19185 -7.56169,21.43344 -20.37413,21.43344c-12.81243,0 -23.19896,-9.59607 -23.19896,-21.43344z" data-paper-data="{&quot;origPos&quot;:null}" fill="#74706c" stroke="#74706c" stroke-width="2.5" stroke-linecap="butt"/><path d="M228.98309,189.23272c0,0 -8.69058,-9.75817 -1.88972,-15.93578c3.44408,-3.12844 12.89747,3.17319 15.86156,6.75969c1.57069,1.9005 0.49628,9.05607 0.49628,9.05607" fill="#ffffff" stroke="none" stroke-width="0" stroke-linecap="round"/><path d="M242.63485,183.73942c0,2.61222 -0.70983,4.72983 -1.58543,4.72983c-0.87561,0 -1.58543,-2.11763 -1.58543,-4.72983c0,-2.61222 0.70983,-4.72983 1.58543,-4.72983c0.87561,0 1.58543,2.11763 1.58543,4.72983z" fill="#74706c" stroke="#74706c" stroke-width="0" stroke-linecap="butt"/><path d="M251.76332,200.62669h-4.32553" data-paper-data="{&quot;origPos&quot;:null}" fill="#74706c" stroke="#74706c" stroke-width="2.5" stroke-linecap="round"/><path d="M256.6185,190.16597c0,2.26704 -0.84974,4.10483 -1.89793,4.10483c-1.0482,0 -1.89793,-1.8378 -1.89793,-4.10483c0,-2.26704 0.84974,-4.10483 1.89793,-4.10483c1.0482,0 1.89793,1.8378 1.89793,4.10483z" data-paper-data="{&quot;origPos&quot;:null}" fill="#74706c" stroke="#74706c" stroke-width="0" stroke-linecap="butt"/><path d="M218.60417,179.44885c0,0 -4.6365,-10.24747 -4.26383,-15.73396c0.37728,-5.55434 6.51383,-17.39104 6.51383,-17.39104c0,0 9.33841,3.20092 12.39227,5.63515c2.63374,2.09935 5.10773,8.23985 5.10773,8.23985" fill="#74706c" stroke="#74706c" stroke-width="2.5" stroke-linecap="round"/><path d="M249.96355,189.2377c0,0 -0.20778,-7.78057 1.1029,-9.68107c2.47343,-3.5865 9.81546,-9.13813 12.68942,-6.00969c5.67507,6.17761 -1.7192,15.81078 -1.7192,15.81078" data-paper-data="{&quot;index&quot;:null}" fill="#ffffff" stroke="none" stroke-width="0" stroke-linecap="round"/><path d="M254.70523,190.73282c0.25759,1.14499 -1.61106,3.56556 -2.78973,3.83073c-1.17866,0.26517 -2.11149,-3.88119 -0.93283,-4.14636c1.17866,-0.26517 3.46496,-0.82935 3.72255,0.31564z" data-paper-data="{&quot;origRot&quot;:0}" fill="#ffffff" stroke="none" stroke-width="0" stroke-linecap="butt"/><path d="M237.35417,160.44885l6.625,-5.875l-1.25,6l8.875,-3l-2.5,7" fill="#74706c" stroke="#74706c" stroke-width="2.5" stroke-linecap="round"/><path d="M253.50985,184.36442c0,2.61222 -0.70983,4.72983 -1.58543,4.72983c-0.87561,0 -1.58543,-2.11763 -1.58543,-4.72983c0,-2.61222 0.70983,-4.72983 1.58543,-4.72983c0.87561,0 1.58543,2.11763 1.58543,4.72983z" fill="#74706c" stroke="#74706c" stroke-width="0" stroke-linecap="butt"/></g></g></svg>