<svg version="1.1" xmlns="http://www.w3.org/2000/svg" xmlns:xlink="http://www.w3.org/1999/xlink" width="618.68192" height="515.11933" viewBox="0,0,618.68192,515.11933"><defs><linearGradient x1="391.14662" y1="141.44011" x2="536.64273" y2="241.68395" gradientUnits="userSpaceOnUse" id="color-1"><stop offset="0" stop-color="#c40000" stop-opacity="0"/><stop offset="1" stop-color="#c40000"/></linearGradient></defs><g transform="translate(32.81252,-34.31118)"><g data-paper-data="{&quot;isPaintingLayer&quot;:true}" fill-rule="nonzero" stroke-linejoin="miter" stroke-miterlimit="10" stroke-dasharray="" stroke-dashoffset="0" style="mix-blend-mode: normal"><path d="M271.66866,210.87685l157.49404,-31.75272l-171.46524,78.74692z" data-paper-data="{&quot;index&quot;:null}" fill="#534786" stroke="#453b70" stroke-width="2.5" stroke-linecap="round"/><path d="M324.90848,227.53728c0,0 41.64676,-15.46641 71.28329,-20.60194c29.63652,-5.13554 81.95197,27.62299 81.95197,27.62299c0,0 19.05727,-19.0201 33.41902,-23.54693c25.03511,-7.89102 67.53064,-8.27226 67.53064,-8.27226c0,0 -40.87366,16.00473 -64.81221,29.6748c-7.97951,4.55676 -21.9545,14.99516 -21.9545,14.99516c0,0 19.84184,-3.84631 27.8689,-2.79257c16.15936,2.12123 36.52015,14.42749 36.52015,14.42749c0,0 -28.97773,-1.72658 -48.99163,2.65308c-14.34422,3.13896 -31.0216,13.05057 -31.0216,13.05057c0,0 12.18491,-1.78589 21.37497,0.77863c15.77424,4.40188 34.56771,20.63346 34.56771,20.63346c0,0 -26.48674,-6.78504 -44.75204,-7.11073c-11.80809,-0.21063 -27.78188,4.58924 -27.78188,4.58924c0,0 15.65276,0.68025 25.16987,4.47587c13.34338,5.32177 28.88175,20.03357 28.88175,20.03357c0,0 -22.07584,-7.38102 -38.13589,-7.85627c-8.83547,-0.26146 -25.65568,5.9684 -25.65568,5.9684c0,0 -14.45232,6.62673 -18.7194,15.69514c-10.90587,23.17773 -4.95478,54.6188 -4.95478,54.6188c0,0 -10.30242,-34.60929 -10.09918,-59.31136c0.11953,-14.53235 10.92617,-41.2218 10.92617,-41.2218c0,0 -20.41174,-35.77523 -43.0328,-42.77621c-22.62119,-7.00106 -59.58285,-15.72713 -59.58285,-15.72713z" data-paper-data="{&quot;index&quot;:null,&quot;origRot&quot;:0}" fill="#c40000" stroke="#990000" stroke-width="2.5" stroke-linecap="round"/><path d="M233.30471,271.55328l99.01703,274.59361l-85.7467,-144.95276l21.43668,141.89038l-79.62194,-137.8072l-162.30626,105.14179l115.34973,-153.11912l-158.22309,95.95465l204.15882,-154.13991z" fill="#c40000" stroke="#990000" stroke-width="2.5" stroke-linecap="round"/><path d="M217.71265,260.78756l-171.46524,-78.74692l157.49393,31.75272z" fill="#534786" stroke="#453b70" stroke-width="2.5" stroke-linecap="round"/><g stroke-width="2.5"><path d="M280.55444,216.74611c0,0 -15.14175,41.87655 5.83312,59.78934c20.97487,17.91279 71.45559,45.20658 71.45559,45.20658c0,0 -73.84271,-11.61255 -134.16144,-21.87419c-60.31883,-10.26174 1.15207,-36.41458 -21.14504,-38.6443c-22.2971,-2.22972 -91.14232,21.87419 -91.14232,21.87419c0,0 54.64056,-22.3117 80.27954,-38.92584c9.93049,-6.43488 10.86278,-20.13435 10.86278,-20.13435z" data-paper-data="{&quot;origPos&quot;:null}" fill="#c40000" stroke="#990000" stroke-linecap="round"/><path d="M224.41076,256.84872c0,-15.30232 12.405,-27.70721 27.70731,-27.70721c15.30232,0 27.70721,12.405 27.70721,27.70721c0,15.30232 -12.40489,27.70721 -27.70721,27.70721c-15.30232,0 -27.70731,-12.405 -27.70731,-27.70721z" data-paper-data="{&quot;origPos&quot;:null}" fill="#88ffd9" stroke="none" stroke-linecap="butt"/><path d="M194.51609,243.72427l16.04106,1.45831l6.56217,-17.49937l16.04106,9.47879" fill="none" stroke="#88ffd9" stroke-linecap="round"/><path d="M209.09875,274.34809l8.74974,11.66625l-6.56217,9.47879" fill="none" stroke="#88ffd9" stroke-linecap="round"/><path d="M231.70219,277.2647l-12.3954,7.29133" fill="none" stroke="#88ffd9" stroke-linecap="round"/><path d="M263.78422,286.74339l13.12455,2.91651l10.20794,14.58276" fill="none" stroke="#88ffd9" stroke-linecap="round"/><path d="M282.7419,296.22228l12.3953,-5.10397" fill="none" stroke="#88ffd9" stroke-linecap="round"/></g><g stroke-width="2.5"><path d="M283.80669,74.70781c0,0 56.8756,-0.57355 89.86786,23.00854c32.99227,23.58198 39.40795,34.48298 41.37062,70.79753c1.96267,36.31455 -7.56157,63.65856 -32.92467,85.47319c-16.46109,14.15792 -48.80787,-26.70171 -48.80787,-26.70171c0,0 -94.73,17.11104 -157.89954,-8.46516c-26.74845,-10.83 -23.78666,-85.03137 -23.78666,-85.03137c0,0 -21.75515,-73.65992 37.28684,-93.77642c59.16893,-20.15978 94.89345,34.69529 94.89345,34.69529z" data-paper-data="{&quot;origPos&quot;:null}" fill="#534786" stroke="#453b70" stroke-linecap="round"/><g data-paper-data="{&quot;origPos&quot;:null}" fill="#94004c" stroke="#410022"><path d="M324.03019,129.68919c3.26258,-19.96455 22.09178,-33.5041 42.05634,-30.24152c19.96455,3.26258 33.5041,22.09178 30.24152,42.05634c-3.26258,19.96455 -22.0918,33.5042 -42.05635,30.24162c-19.96455,-3.26258 -33.50409,-22.09188 -30.24151,-42.05643z" stroke-linecap="butt"/><path d="M331.6097,154.04831l14.94401,-50.4915" stroke-linecap="round"/><path d="M347.7415,167.02788l19.43343,-66.79396" stroke-linecap="round"/><path d="M371.92996,167.93856l13.74725,-54.33766" stroke-linecap="round"/><path d="M394.62415,133.316l-65.40352,-16.77252" stroke-linecap="round"/><path d="M324.52602,130.37862l69.26119,19.22822" stroke-linecap="round"/><path d="M325.35843,143.90018l58.49747,18.07763" data-paper-data="{&quot;origPos&quot;:null}" stroke-linecap="round"/></g><path d="M192.8499,65.23071l45.54335,-14.96789l-15.32043,19.90688z" data-paper-data="{&quot;origPos&quot;:null}" fill="#b58b8b" stroke="#735858" stroke-linecap="round"/><path d="M167.14493,95.93884c3.67485,-22.48737 24.88356,-37.73786 47.37093,-34.06301c22.48737,3.67485 37.73796,24.88357 34.06312,47.37084c-3.67485,22.48737 -24.88357,37.73796 -47.37094,34.06311c-22.48737,-3.67485 -37.73796,-24.88357 -34.06311,-47.37094z" data-paper-data="{&quot;origPos&quot;:null}" fill="#ffe9e5" stroke="#bfafac" stroke-linecap="butt"/><path d="M221.37741,64.72096l-8.01262,75.40379" fill="#ffe3de" stroke="#000000" stroke-linecap="round"/><path d="M244.16926,152.05427l6.87602,-36.80187l32.69622,79.47042l-33.7183,-4.64818z" data-paper-data="{&quot;origPos&quot;:null}" fill="#b58b8b" stroke="#735858" stroke-linecap="round"/><path d="M236.95332,169.83792c1.51541,-9.2732 10.26134,-15.56206 19.53443,-14.04666c9.2732,1.51541 15.56196,10.26132 14.04656,19.53442c-1.51541,9.2732 -10.26121,15.56197 -19.53432,14.04658c-9.2732,-1.51541 -15.56207,-10.26123 -14.04668,-19.53433z" data-paper-data="{&quot;origPos&quot;:null}" fill="#ffe3de" stroke="#bfa39e" stroke-linecap="butt"/><path d="M239.10833,169.70137l30.52859,6.76613" data-paper-data="{&quot;origPos&quot;:null}" fill="#ffe3de" stroke="#000000" stroke-linecap="round"/><path d="M345.0877,208.39851l-21.86036,-13.91573l44.71014,-57.33946l-5.19703,37.07625z" data-paper-data="{&quot;origPos&quot;:null,&quot;index&quot;:null}" fill="#b58b8b" stroke="#735858" stroke-linecap="round"/><path d="M357.86356,213.68065c-12.98246,-2.12157 -21.78682,-14.36576 -19.66524,-27.34822c2.12157,-12.98246 14.36566,-21.78683 27.34812,-19.66526c12.98246,2.12157 21.78693,14.36567 19.66536,27.34813c-2.12157,12.98246 -14.36577,21.78692 -27.34823,19.66534z" data-paper-data="{&quot;origPos&quot;:null}" fill="#ffe9e5" stroke="#bfafac" stroke-linecap="butt"/><path d="M351.79573,209.70335l9.47271,-42.74003" fill="#ffe9e5" stroke="#000000" stroke-linecap="round"/><path d="M315.10903,180.55644c0,0 23.38283,3.16004 32.18988,33.85678c3.38291,11.79088 -28.47257,17.85904 -28.47257,17.85904l-3.11757,-18.15398l-18.23932,7.3627l2.03371,-12.44479l-12.2395,0.43363z" data-paper-data="{&quot;origPos&quot;:null}" fill="#534786" stroke="#534786" stroke-linecap="round"/><path d="M314.6133,179.86704c0,0 23.38283,3.16004 32.18988,33.85678c3.38291,11.79088 -28.47257,17.85904 -28.47257,17.85904l-3.11757,-18.15398l-18.23932,7.3627l2.03371,-12.44479l-12.2395,0.43363" data-paper-data="{&quot;origPos&quot;:null}" fill="none" stroke="#453b70" stroke-linecap="round"/><path d="M380.90424,165.14613l17.6929,7.15042l3.48635,-21.33386l15.52773,9.23018l3.48633,-21.33375c0,0 14.17167,22.83484 7.61416,35.31652c-6.5575,12.48168 -32.34184,11.75076 -32.34184,11.75076z" data-paper-data="{&quot;origPos&quot;:null}" fill="#534786" stroke="#534786" stroke-linecap="round"/><path d="M381.69061,164.05775l17.6929,7.15042l3.48635,-21.33386l15.52771,9.23028l3.48635,-21.33386c0,0 14.17167,22.83484 7.61416,35.31652c-6.5575,12.48168 -32.34193,11.75074 -32.34193,11.75074" data-paper-data="{&quot;origPos&quot;:null}" fill="none" stroke="#453b70" stroke-linecap="round"/></g><path d="M212.65592,232.72769c0,0 -30.56186,-9.38712 -47.42467,7.23753c-16.8627,16.62465 -18.52394,57.7797 -18.52394,57.7797c0,0 21.87531,18.72381 28.66829,31.57132c11.54671,21.83826 18.32458,57.30656 18.32458,57.30656c0,0 -9.18337,-30.65332 -29.53096,-46.21349c-7.96117,-6.08812 -23.84187,-5.3216 -23.84187,-5.3216c0,0 -17.8004,2.20839 -25.52465,6.50603c-14.04021,7.81173 -30.24399,24.52264 -30.24399,24.52264c0,0 7.02623,-20.21162 16.42448,-31.07624c6.70325,-7.74905 20.28757,-15.55537 20.28757,-15.55537c0,0 -16.39079,3.08851 -26.77778,8.7088c-16.06699,8.6937 -36.46123,26.90517 -36.46123,26.90517c0,0 9.21706,-23.05882 21.19669,-34.22518c6.97937,-6.50552 18.61949,-10.52663 18.61949,-10.52663c0,0 -19.36773,-1.12634 -33.54758,2.68704c-19.78462,5.32069 -44.71803,20.18722 -44.71803,20.18722c0,0 12.4148,-20.29482 25.78587,-29.61365c6.642,-4.6291 26.02841,-10.34401 26.02841,-10.34401c0,0 -17.21079,-2.8375 -26.39202,-3.21152c-27.54378,-1.12206 -71.19784,3.4755 -71.19784,3.4755c0,0 37.90515,-19.21512 63.7635,-23.72856c14.83408,-2.58924 40.50582,5.52893 40.50582,5.52893c0,0 31.37503,-53.15673 60.05087,-62.23384c28.67584,-9.07721 74.52899,19.63355 74.52899,19.63355z" data-paper-data="{&quot;origRot&quot;:0}" fill="#c40000" stroke="#990000" stroke-width="2.5" stroke-linecap="round"/><path d="M554.33329,208.25064c0.63231,-0.20079 1.44941,-0.17893 2.30491,0.59328c1.85579,1.67512 0.18067,3.53091 0.18067,3.53091l-2.45258,2.69893c-0.2717,0.20313 -6.47723,4.85128 -6.78411,5.04639c-3.24209,2.06127 -7.06413,3.20236 -10.33529,5.18262c-1.23487,0.74755 -2.19305,1.95206 -3.51762,2.52587c-3.34926,1.4509 -7.87351,1.77866 -11.50275,2.41637c-13.44089,0.70005 -26.8323,1.42374 -40.29157,1.12868c-6.46177,-0.14165 -13.371,0.34187 -19.68351,-1.3125c-12.20115,-3.19766 -23.57898,-11.16516 -33.87067,-18.18196c-10.13312,-5.98795 -22.07437,-11.86574 -30.37725,-20.39575c-3.38613,-3.47876 -5.87847,-8.1428 -8.90066,-11.94483c-3.53599,-4.4484 -6.88502,-8.11389 -9.70641,-13.06802c-0.63052,-1.10715 -1.93064,-1.9993 -1.97482,-3.27264c-0.05243,-1.51111 0.98622,-2.87465 1.71557,-4.19913c2.97385,-5.40041 9.19653,-8.39213 14.2028,-11.48805c1.40083,-0.22072 2.79334,-0.82127 4.2025,-0.66217c2.14945,0.24269 3.97592,1.7265 6.04125,2.36946c4.74652,1.47765 9.47235,3.07799 14.24923,4.45379c4.27102,1.23011 8.69265,1.96273 12.94536,3.25403c11.15506,3.38714 22.09246,7.89815 33.07124,11.82468c7.96325,2.84803 16.15941,5.2356 23.57532,9.32047c9.57921,5.29606 19.07,10.36325 28.95138,15.00127c4.82619,2.26526 9.12236,5.62928 14.02267,7.75994c3.49905,1.52139 7.12239,2.28079 10.66614,3.41893c4.09367,1.31476 8.02168,3.07681 12.39628,3.70026c0,0 0.41023,0.06044 0.87193,0.29916z" fill="url(#color-1)" stroke="none" stroke-width="0.5" stroke-linecap="butt"/></g></g></svg>