<svg version="1.1" xmlns="http://www.w3.org/2000/svg" xmlns:xlink="http://www.w3.org/1999/xlink" width="223.91475" height="310.21237" viewBox="0,0,223.91475,310.21237"><defs><radialGradient cx="218.49704" cy="389.10709" r="13.52819" gradientUnits="userSpaceOnUse" id="color-1"><stop offset="0" stop-color="#000000"/><stop offset="1" stop-color="#000000"/></radialGradient><radialGradient cx="292.74043" cy="263.07963" r="13.18356" gradientUnits="userSpaceOnUse" id="color-2"><stop offset="0" stop-color="#000000"/><stop offset="1" stop-color="#000000"/></radialGradient><radialGradient cx="132.38007" cy="261.29472" r="8.75328" gradientUnits="userSpaceOnUse" id="color-3"><stop offset="0" stop-color="#000000"/><stop offset="1" stop-color="#000000"/></radialGradient><radialGradient cx="298.77885" cy="242.86302" r="8.75328" gradientUnits="userSpaceOnUse" id="color-4"><stop offset="0" stop-color="#000000"/><stop offset="1" stop-color="#000000"/></radialGradient></defs><g transform="translate(-112.27104,-83.11865)"><g data-paper-data="{&quot;isPaintingLayer&quot;:true}" fill-rule="nonzero" stroke-linejoin="miter" stroke-miterlimit="10" stroke-dasharray="" stroke-dashoffset="0" style="mix-blend-mode: normal"><path d="M228.7432,392.331l-10.82074,0.00002l22.49992,-89.6754" id="ID0.43897221656516194" fill="none" stroke="url(#color-1)" stroke-width="2" stroke-linecap="round"/><path d="M327.15356,214.68502l7.61803,7.68466l-59.77954,59.26133" data-paper-data="{&quot;origRot&quot;:0}" id="ID0.43897221656516194" fill="none" stroke="url(#color-2)" stroke-width="2" stroke-linecap="round"/><path d="M113.27104,270.55512l48.7998,-29.96282l31.8764,-17.45245" data-paper-data="{&quot;origRot&quot;:0}" id="ID0.16875446680933237" fill="none" stroke="url(#color-3)" stroke-width="2" stroke-linecap="round"/><path d="M237.33487,204.51005l31.82003,17.55503l48.70305,30.11983" data-paper-data="{&quot;origRot&quot;:0}" id="ID0.16875446680933237" fill="none" stroke="url(#color-4)" stroke-width="2" stroke-linecap="round"/><g data-paper-data="{&quot;origRot&quot;:0}"><path d="M189.87342,225.98001l52.07742,-30.31689l48.40919,83.15579l-52.07743,30.31688z" id="ID0.7297499743290246" fill="#0251ff" stroke="#0344b1" stroke-width="2" stroke-linecap="butt"/><g id="ID0.9996707611717284" stroke-width="1"><path d="M228.4625,251.79256c-1.76648,1.19749 -5.76485,-2.32309 -8.05063,-0.89865c-2.38276,1.54694 -1.00824,6.47823 -3.07214,7.97833c-1.11979,0.81262 -2.53902,-1.89369 -3.23966,-3.25244c-1.00192,-1.94886 -1.95293,-4.0791 -1.75986,-6.22487c0.17491,-1.94104 0.81955,-4.90556 2.76467,-5.2521c3.77089,-0.67149 7.86811,0.89657 11.20792,2.8104c1.53,0.87526 3.30641,4.03491 2.14973,4.83933z" id="ID0.10925169289112091" fill="#f5291b" stroke="#bb270e" stroke-linecap="round"/><path d="M240.07946,254.70884c3.44943,1.70837 7.03342,4.23837 8.57551,7.74445c0.79529,1.8086 -1.30809,3.99485 -2.82294,5.221c-1.6748,1.35524 -3.97378,1.75155 -6.15044,2.00457c-1.51875,0.17468 -4.55695,0.50284 -4.50554,-0.87977c0.09672,-2.54966 4.9581,-4.15395 4.91617,-6.99451c-0.08969,-2.69181 -5.24042,-4.05244 -5.22943,-6.18653c0.02406,-1.40871 3.6377,-1.69265 5.2167,-0.9092z" id="ID0.10925169289112091" fill="#f5291b" stroke="#bb270e" stroke-linecap="round"/><path d="M249.70667,222.75285c3.38879,1.80798 5.40559,5.41997 5.92711,9.79538c0.52091,4.37657 -0.45282,9.51543 -3.04628,14.37646c-2.59347,4.86105 -6.31963,8.53141 -10.24493,10.53583c-3.9247,2.00326 -8.04791,2.33944 -11.43669,0.53147c-3.38879,-1.80798 -5.40559,-5.41997 -5.9271,-9.79539c-0.52092,-4.37657 0.45283,-9.51542 3.04629,-14.37646c2.59347,-4.86105 6.31963,-8.53141 10.24492,-10.53584c3.9247,-2.00326 8.0479,-2.33944 11.43668,-0.53146z" id="ID0.44616582430899143" fill="#e5e5e5" stroke="#b2b2b2" stroke-linecap="round"/><path d="M251.53776,220.85466c1.90915,1.08357 3.15769,3.22816 4.00059,5.23608c0.98023,2.30423 1.30717,4.86399 1.32122,7.35135c0.00799,1.50488 -0.11186,3.36842 -1.28076,4.33846c-0.80221,0.68418 -1.80415,0.05952 -3.13124,-0.6367c-5.30776,-2.78601 -10.53768,-5.8702 -15.4982,-9.15479c-1.23868,-0.82039 -2.80439,-1.64242 -2.09231,-2.44558c2.45281,-2.76196 5.97109,-4.81073 9.598,-5.809c2.27245,-0.66044 4.95985,-0.0833 7.0827,1.12017z" id="ID0.34605008317157626" fill="#f5291b" stroke="#ae1f0a" stroke-linecap="round"/><path d="M242.65483,236.85312c1.697,0.90538 2.8679,2.4148 3.38645,4.12266c0.5203,1.70732 0.38827,3.61308 -0.51712,5.31009c-0.90537,1.69699 -2.4148,2.8679 -4.12266,3.38646c-1.70732,0.5203 -3.61309,0.38827 -5.31009,-0.51712c-1.697,-0.90538 -2.8679,-2.4148 -3.38645,-4.12266c-0.5203,-1.70732 -0.38827,-3.61309 0.51712,-5.31009c0.90537,-1.69699 2.41481,-2.86791 4.12267,-3.38647c1.70732,-0.5203 3.61308,-0.38827 5.31009,0.51712z" id="ID0.569763976149261" fill="#bbddff" stroke="#b2b2b2" stroke-linecap="butt"/><path d="M239.76775,237.76508c0.54726,0.29198 0.92441,0.77826 1.09113,1.32951c0.16848,0.55071 0.126,1.16462 -0.16598,1.71189c-0.29198,0.54727 -0.77825,0.92441 -1.3295,1.09114c-0.55071,0.16848 -1.16462,0.126 -1.71189,-0.16598c-0.54726,-0.29198 -0.92442,-0.77825 -1.09114,-1.3295c-0.16848,-0.55071 -0.126,-1.16462 0.16598,-1.71189c0.29198,-0.54727 0.77826,-0.92441 1.32951,-1.09113c0.55071,-0.16848 1.16462,-0.126 1.71189,0.16598z" id="ID0.17324856109917164" fill="#d9e9ff" stroke="none" stroke-linecap="butt"/><path d="M225.99325,258.43557c0.50641,0.29382 0.67011,1.02512 0.78984,1.5897c0.11621,0.5435 0.12164,1.13128 -0.16174,1.66246c-0.28339,0.53118 -0.75656,0.89759 -1.29079,1.06009c-0.53423,0.16251 -1.13129,0.12165 -1.66246,-0.16174c-0.53117,-0.2834 -0.89759,-0.75656 -1.0601,-1.2908c-0.1625,-0.53423 -0.12164,-1.13128 0.16175,-1.66247c0.28339,-0.53118 0.76643,-0.87458 1.29079,-1.0601c0.59319,-0.20932 1.35494,-0.42178 1.93272,-0.13716z" id="ID0.8451523161493242" fill="#f56d1b" stroke="#d55f18" stroke-linecap="round"/><path d="M231.27584,265.70682c0.50641,0.29382 0.67012,1.02512 0.78985,1.5897c0.11621,0.5435 0.12164,1.13128 -0.16174,1.66246c-0.28339,0.53118 -0.75656,0.89759 -1.2908,1.0601c-0.53423,0.16251 -1.13129,0.12165 -1.66246,-0.16174c-0.53117,-0.2834 -0.89759,-0.75656 -1.0601,-1.2908c-0.1625,-0.53423 -0.12163,-1.13129 0.16175,-1.66247c0.28339,-0.53118 0.76643,-0.87458 1.29079,-1.06009c0.59319,-0.20932 1.35493,-0.42179 1.93271,-0.13717z" id="ID0.8451523161493242" fill="#f56d1b" stroke="#d55f18" stroke-linecap="round"/><path d="M222.99143,266.93081c0.50641,0.29382 0.67011,1.02512 0.78984,1.5897c0.11621,0.5435 0.12164,1.13128 -0.16174,1.66246c-0.28339,0.53118 -0.75656,0.89759 -1.2908,1.0601c-0.53423,0.16251 -1.13128,0.12164 -1.66246,-0.16174c-0.53117,-0.2834 -0.89759,-0.75656 -1.0601,-1.29079c-0.1625,-0.53423 -0.12164,-1.13128 0.16175,-1.66247c0.28339,-0.53118 0.76644,-0.87457 1.29079,-1.06009c0.59319,-0.20932 1.35494,-0.42179 1.93272,-0.13717z" id="ID0.8451523161493242" fill="#f56d1b" stroke="#d55f18" stroke-linecap="round"/></g></g><g><path d="M219.29257,84.76658c19.03802,-0.00002 36.29031,7.73258 48.78148,20.22501c12.49246,12.49114 20.22509,29.74341 20.22511,48.78144c0.00002,19.03803 -7.73258,36.2903 -20.22502,48.78147c-12.49114,12.49246 -29.7434,20.22509 -48.78143,20.22511c-19.03803,0.00002 -36.29031,-7.73258 -48.78147,-20.22501c-12.49246,-12.49114 -20.2251,-29.74341 -20.22512,-48.78143c-0.00002,-19.03803 7.73259,-36.29031 20.22502,-48.78147c12.49114,-12.49246 29.7434,-20.22509 48.78143,-20.22511z" id="ID0.052302687894552946" fill="#ffffff" stroke="#cccccc" stroke-width="2" stroke-linecap="butt"/><path d="M267.41173,153.64901c1.49546,2.84449 2.42074,6.77236 2.42074,11.10714c0,4.33478 -0.92527,8.26264 -2.42074,11.10713c-1.49546,2.84449 -3.56112,4.60562 -5.84061,4.60562c-2.27948,0 -4.34515,-1.76112 -5.84061,-4.60562c-1.49546,-2.84449 -2.42074,-6.77236 -2.42074,-11.10713c0,-4.33478 0.92527,-8.26264 2.42074,-11.10713c1.49546,-2.84449 3.56113,-4.60562 5.84061,-4.60562c2.27948,0 4.34514,1.76112 5.84061,4.60562z" data-paper-data="{&quot;origPos&quot;:null}" id="ID0.2136117359623313" fill="#000000" stroke="none" stroke-width="1" stroke-linecap="butt"/><path d="M221.92575,153.00106c1.49546,2.84449 2.42073,6.77236 2.42073,11.10714c0,4.33478 -0.92527,8.26264 -2.42073,11.10714c-1.49546,2.84449 -3.56113,4.60562 -5.84061,4.60562c-2.27948,0 -4.34514,-1.76112 -5.8406,-4.60561c-1.49546,-2.84449 -2.42073,-6.77236 -2.42073,-11.10713c0,-4.33478 0.92527,-8.26264 2.42073,-11.10713c1.49546,-2.84449 3.56112,-4.60561 5.8406,-4.60561c2.27948,0 4.34515,1.76112 5.84061,4.60562z" data-paper-data="{&quot;origPos&quot;:null}" id="ID0.2136117359623313" fill="#000000" stroke="none" stroke-width="1" stroke-linecap="butt"/><path d="M222.20462,202.05418l-27.96867,-15.09978l7.35211,-9.59739c0,0 1.1639,-0.0128 2.09477,0.4619c3.74101,1.98245 7.75104,3.63716 11.04291,6.255c4.1997,3.34424 11.28292,11.58902 11.28292,11.58902z" data-paper-data="{&quot;index&quot;:null,&quot;origRot&quot;:0}" id="ID0.46204856457188725" fill="none" stroke="#000000" stroke-width="2" stroke-linecap="round"/><path d="M194,152.48396v-23.5h82v23.5l-27,10.5z" fill="#ffffff" stroke="none" stroke-width="0" stroke-linecap="butt"/><path d="M151.32283,151.82933c-1.78963,0.84622 -2.41815,-3.41339 -2.26783,-5.50756c0.60129,-8.37797 0.90841,-17.20303 4.21164,-24.94602c3.58833,-7.86739 10.38789,-19.40089 19.43843,-24.62206c13.38272,-7.71189 29.1149,-10.88686 44.31967,-12.63504c11.30281,-1.1119 23.06696,0.86046 33.75812,4.21163c11.98835,3.75809 23.63977,9.47039 33.69334,17.04101c7.84536,6.16198 14.84582,14.19136 18.92012,23.32613c1.29331,2.89633 -2.21727,7.89979 -5.50756,7.77539c-5.2121,-0.20216 -8.35206,-6.27084 -12.95898,-8.81209c-1.04968,-0.66091 0.2812,1.05615 1.1663,2.13823c3.5391,4.327 9.50801,7.11446 11.20953,12.50539c0.80475,2.40518 -2.70324,5.43111 -5.37797,5.63716c-3.97711,0.30066 -7.21945,-3.36414 -11.01513,-4.73001c-13.36719,-4.72224 -26.29376,-11.86262 -40.49679,-13.54209c-19.18964,-2.2678 -38.96633,-0.46908 -57.99139,2.0735c-7.11447,0.9512 -13.71837,4.62118 -19.76242,8.61773c-4.50713,2.81728 -6.38098,9.11405 -11.33908,11.4687z" id="ID0.12275043269619346" fill="#0251ff" stroke="#0344b1" stroke-width="2" stroke-linecap="round"/><path d="M206,179.98396l-4.5,7.5" fill="none" stroke="#000000" stroke-width="2" stroke-linecap="round"/></g></g></g></svg>