<svg xmlns="http://www.w3.org/2000/svg" xmlns:xlink="http://www.w3.org/1999/xlink" version="1.1" width="246.18692" height="386.74624" viewBox="0,0,246.18692,386.74624"><g><g data-paper-data="{&quot;isPaintingLayer&quot;:true}" fill-rule="nonzero" stroke-linejoin="miter" stroke-miterlimit="10" stroke-dasharray="" stroke-dashoffset="0" style="mix-blend-mode: normal"><g data-paper-data="{&quot;index&quot;:null}"><path d="M 126.5017 208.6403 C 126.5017 208.6403 153.7442 203.3745 163.7167 212.9401 C 170.9204 215.6649 185.6703 243.266 185.6703 243.266 " data-paper-data="{&quot;index&quot;:null}" fill="none" stroke-linecap="round" stroke-width="4" stroke="#000000"/><g data-paper-data="{&quot;index&quot;:null}"><path d="M 191.0963 254.111 C 186.8975 256.0494 182.0809 254.9441 180.3381 251.6422 C 178.5953 248.3404 180.5863 244.0923 184.7852 242.1538 C 188.984 240.2154 193.8007 241.3207 195.5435 244.6226 C 197.2863 247.9244 195.2952 252.1725 191.0964 254.1109 Z " fill="#000000" stroke-linecap="butt" stroke-width="4" stroke="#000000"/><path d="M 194.6275 245.5411 L 200.985 250.0459 C 200.985 250.0459 200.4267 252.8829 199.4153 252.113 C 198.1446 251.1455 191.8095 248.1639 191.8095 248.1639 " fill="none" stroke-linecap="round" stroke-width="4" stroke="#000000"/><path d="M 191.1646 248.8162 L 195.3721 256.7876 C 195.3721 256.7876 195.0593 259.4633 194.0479 258.6933 C 192.7771 257.7258 188.3467 251.4388 188.3467 251.4388 " fill="none" stroke-linecap="round" stroke-width="4" stroke="#000000"/><path d="M 184.4874 252.2051 L 186.9765 261.3059 C 186.9765 261.3059 187.1547 263.6589 186.1433 262.889 C 184.8725 261.9215 181.6695 254.8279 181.6695 254.8279 " fill="none" stroke-linecap="round" stroke-width="4" stroke="#000000"/><path d="M 180.467 248.9345 L 177.2542 257.7155 C 177.2542 257.7155 176.5262 259.0841 175.7227 258.1215 C 174.7132 256.9121 178.256 250.1154 178.256 250.1154 " fill="none" stroke-linecap="round" stroke-width="4" stroke="#000000"/></g></g><path d="M 121.6817 200.0344 C 121.6817 200.0344 116.3094 219.7262 126.4046 226.9846 C 133.6656 238.7016 131.8095 276.1377 131.8095 276.1377 " data-paper-data="{&quot;index&quot;:null}" fill="none" stroke="#000000" stroke-width="4" stroke-linecap="round"/><path d="M 103.3172 195.2331 C 114.0933 195.9635 123.5121 204.3347 130.0221 217.2676 C 136.5341 230.2024 140.1373 247.698 139.2841 266.6769 C 138.4327 285.6567 133.2822 302.5591 125.6501 314.5356 C 118.0201 326.5093 107.9085 333.5562 97.1324 332.8257 C 86.3562 332.0954 76.9375 323.725 70.4275 310.792 C 63.9145 297.8572 60.3122 280.3617 61.1645 261.3828 C 61.4892 254.1583 61.9653 250.09 63.4299 242.97 C 65.8176 231.3634 73.4756 216.636 74.1864 215.4971 C 74.4233 215.1175 74.5587 213.9018 74.7995 213.5242 C 82.4294 201.5504 92.5409 194.5026 103.3172 195.233 Z " data-paper-data="{&quot;origRot&quot;:0,&quot;index&quot;:null}" fill="#080064" stroke="#000000" stroke-width="4" stroke-linecap="butt"/><g data-paper-data="{&quot;origRot&quot;:0,&quot;index&quot;:null}" stroke-linecap="round"><path d="M 129.4096 196.5253 L 97.457 260.7637 L 84.236 191.6095 Z " fill="#ffffff" stroke-width="4" stroke="#000000"/><path d="M 94.1846 271.3652 L 100.5424 214.2712 L 94.7082 199.7025 L 109.5555 200.2929 L 103.8755 214.4037 L 105.3099 268.0676 L 99.1821 284.654 Z " fill="#ac0000" stroke-width="4" stroke="#000000"/><path d="M 104.8058 211.674 L 121.3136 201.0559 L 118.59 221.2037 Z " fill="#ffffff" stroke-width="4" stroke="#000000"/><path d="M 86.3617 220.7311 L 88.2906 202.6577 L 101.1882 212.3391 Z " fill="#ffffff" stroke-width="4" stroke="#000000"/></g><path d="M 18.2009 234.1634 C 18.2009 234.1634 36.6969 208.5867 44.2213 206.7587 C 55.4506 198.4841 81.7217 207.0086 81.7217 207.0086 " data-paper-data="{&quot;index&quot;:null}" fill="none" stroke="#000000" stroke-width="4" stroke-linecap="round"/><path d="M 58.6351 75.4983 C 77.246 64.4662 101.1426 59.321 125.8933 62.687 C 150.6458 66.0543 171.607 77.3015 185.4787 92.7532 C 199.3507 108.205 206.1303 127.8609 202.5191 148.0413 C 198.907 168.2214 185.5817 185.1412 166.9701 196.1759 C 148.3591 207.209 124.4637 212.3537 99.7119 208.9874 C 74.9603 205.6201 53.9986 194.372 40.1262 178.922 C 26.255 163.4684 19.4748 143.8142 23.0869 123.6341 C 26.6984 103.453 40.0238 86.5323 58.6351 75.4984 Z " data-paper-data="{&quot;origRot&quot;:0,&quot;index&quot;:null}" fill="#ffa200" stroke="#000000" stroke-width="4" stroke-linecap="butt"/><path d="M 24.3713 132.767 C 20.858 129.891 14.8951 129.7961 13.8978 126.5853 C 10.6837 116.232 13.2267 105.3223 12.8916 94.7058 C 12.7889 91.4397 9.8887 87.1934 12.5819 84.8974 C 20.8981 77.8091 31.158 71.1103 42.917 69.1135 C 46.9838 68.4227 48.0414 75.4858 47.6318 78.9439 C 47.18 82.7628 44.4636 86.7175 40.5989 88.7161 C 37.3215 90.4109 32.4887 89.9615 28.8511 88.657 C 24.9947 87.2735 21.9618 84.2737 19.808 81.256 C 17.7161 78.3232 17.1674 74.7758 16.5614 71.4319 C 15.975 68.1893 15.2278 64.7465 16.2517 61.6235 C 17.9721 56.3862 21.7255 51.7999 24.5985 46.9543 C 27.76 41.6231 31.0342 36.3191 34.3749 31.0667 C 38.0226 25.3302 41.2289 19.3309 45.5807 13.9601 C 47.8699 11.1336 50.1842 7.5383 54.1588 6.6484 C 61.6526 4.9667 69.8304 6.7266 77.6542 6.7667 C 81.5667 6.7861 85.9081 5.2592 89.402 6.8257 C 93.1581 8.509 95.0353 12.2941 97.0154 15.4451 C 99.7099 19.7321 102.2733 24.2367 103.3152 28.9622 C 104.0328 32.217 103.5237 35.7144 102.1567 38.7635 C 100.6967 42.0172 98.6102 45.4866 95.0848 47.3091 C 91.783 49.0174 86.5513 50.5124 83.3761 48.4765 C 80.2007 46.4398 80.2714 41.7234 81.5979 38.6597 C 85.9437 28.6229 92.4959 19.2546 99.7978 10.5553 C 102.5607 7.2626 106.8843 4.8724 111.3135 3.2579 C 114.8838 1.9565 119.0806 1.8776 123.0223 2.0905 C 127.5289 2.3342 132.1013 3.1549 136.3151 4.6092 C 140.6279 6.0976 144.2388 8.798 148.258 10.7989 C 151.6917 12.5093 156.7555 12.8363 158.6907 15.7552 C 161.8497 20.5169 161.3537 26.3611 162.1313 31.7099 C 162.6059 34.9635 164.323 38.7072 162.4411 41.5184 C 160.5436 44.3518 155.972 45.2336 152.3172 46.3716 C 148.1362 47.6714 139.5446 50.9876 139.1789 48.7573 C 138.6367 45.4676 145.029 38.3406 150.5 35.3284 C 158.13 31.128 167.6336 29.5218 176.6999 28.1049 C 180.5517 27.5034 184.7582 28.2159 188.4866 29.3906 C 192.8477 30.7644 196.5221 33.4239 200.4276 35.5805 C 203.9886 37.5466 208.2461 38.9656 210.9 41.7623 C 213.5351 44.5404 216.0243 48.1347 215.6148 51.5935 C 215.163 55.4125 212.0258 58.8956 208.5829 61.3656 C 205.4644 63.6037 200.8244 63.78 196.9507 64.9852 C 193.078 66.1903 189.4212 68.0511 185.3195 68.6038 C 180.516 69.2508 171.0349 70.9597 170.6342 68.5301 C 170.1251 65.4382 178.367 60.3595 183.5026 57.5614 C 186.8289 55.7492 191.1733 55.5001 195.1727 55.1684 C 200.5072 54.7262 205.9466 55.2224 211.3263 55.2494 C 215.2378 55.2698 219.9092 53.3021 223.0731 55.3085 C 227.4953 58.1139 227.8299 63.6974 230.8033 67.6073 C 233.4628 71.1027 237.6214 73.7978 239.924 77.4604 C 241.8219 80.4803 242.5643 83.9397 243.1704 87.2835 C 243.757 90.5271 244.9541 94.1079 243.4803 97.093 C 241.5228 101.0593 236.9469 103.6875 233.5106 106.8497 C 230.7663 109.3747 228.4792 112.4614 224.9317 114.1625 C 221.4835 115.8143 217.294 116.5756 213.2618 116.5555 C 209.2283 116.5354 204.989 115.732 201.4363 114.0433 C 197.7806 112.3072 195.288 109.2025 192.3933 106.6432 C 189.248 103.8619 186.4566 100.7971 183.3112 98.0157 C 180.4167 95.4563 177.3838 92.9881 174.2681 90.6147 C 170.3653 87.6419 166.6823 84.3603 162.2495 81.9726 C 156.6545 78.9598 150.1095 77.3746 144.3962 74.527 C 140.1365 72.4064 136.803 69.0346 132.4155 67.1115 C 127.2803 64.8604 121.6806 63.3705 116.1075 62.1263 C 112.2697 61.2694 108.2508 60.6554 104.3209 60.8406 C 100.3027 61.0299 96.3034 61.902 92.6509 63.2336 C 88.4731 64.7558 84.8986 67.2254 81.0964 69.3053 C 75.2847 72.484 69.2373 75.4372 63.7852 79.0254 C 60.577 81.1357 57.9799 83.8372 55.2061 86.3373 C 49.421 91.5516 43.5447 96.7325 38.0882 102.1883 C 35.0038 105.2718 31.8727 108.4071 29.5869 111.9523 C 27.6343 114.9838 26.397 118.3602 25.4907 121.74 C 24.6357 124.9285 24.718 128.277 24.3321 131.5403 C 24.2357 132.3575 25.2011 131.9532 24.3321 131.5403 Z " data-paper-data="{&quot;origRot&quot;:0,&quot;index&quot;:null}" fill="#000000" stroke="#000000" stroke-width="4" stroke-linecap="round"/><g data-paper-data="{&quot;index&quot;:null}"><path d="M 11.2997 244.2577 C 7.4087 241.8266 6.0306 237.3734 8.2217 234.3111 C 10.4129 231.2488 15.3435 230.737 19.2345 233.1681 C 23.1255 235.5991 24.5036 240.0524 22.3125 243.1147 C 20.1213 246.1769 15.1907 246.6887 11.2997 244.2577 Z " fill="#000000" stroke-linecap="butt" stroke-width="4" stroke="#000000"/><path d="M 11.427 238.2748 C 11.427 238.2748 4.7276 240.4629 3.3321 241.2679 C 2.2213 241.9087 2.0658 239.0282 2.0658 239.0282 L 9.001 235.3328 " fill="none" stroke-linecap="round" stroke-width="4" stroke="#000000"/><path d="M 14.4008 241.9419 C 14.4008 241.9419 9.1262 247.6379 7.7305 248.443 C 6.6197 249.0838 6.685 246.393 6.685 246.393 L 11.9748 238.9999 " fill="none" stroke-linecap="round" stroke-width="4" stroke="#000000"/><path d="M 20.5455 246.1116 C 20.5455 246.1116 16.3746 252.7563 14.9789 253.5613 C 13.8682 254.2021 14.3749 251.8908 14.3749 251.8908 L 18.1196 243.1696 " fill="none" stroke-linecap="round" stroke-width="4" stroke="#000000"/><path d="M 24.5908 241.8533 C 24.5908 241.8533 27.1499 249.0216 25.9794 250.0983 C 25.0477 250.9551 24.5179 249.51 24.5179 249.51 L 22.5645 240.4144 " fill="none" stroke-linecap="round" stroke-width="4" stroke="#000000"/></g><g data-paper-data="{&quot;index&quot;:null}"><g><path d="M 126.7011 97.0607 C 130.5616 97.4314 133.5807 102.2449 135.3402 109.7205 C 137.0986 117.1973 137.5986 127.3367 136.4199 138.3596 C 135.2411 149.3826 132.6047 159.2206 129.2994 166.2111 C 125.993 173.2001 122.0163 177.3414 118.1559 176.9706 C 114.2955 176.5997 110.8164 169.1799 109.5167 164.3106 C 107.2644 155.8562 107.5404 146.6548 108.7803 137.635 C 109.5694 127.6814 111.1729 117.3638 115.5577 107.8201 C 117.6717 103.212 122.8407 96.6898 126.7011 97.0606 Z " data-paper-data="{&quot;origRot&quot;:0,&quot;index&quot;:null}" fill="#000000" stroke="#000000" stroke-linecap="butt" stroke-width="4"/><path d="M 167.0959 101.6009 C 170.9566 101.9717 173.9755 106.785 175.7351 114.2606 C 177.4935 121.7375 177.9935 131.8769 176.8148 142.8998 C 175.636 153.9228 172.9996 163.7609 169.6942 170.7513 C 166.3878 177.7403 162.4111 181.8817 158.5507 181.5108 C 154.6903 181.1399 151.2113 173.7201 149.9116 168.8509 C 147.6593 160.3965 147.9353 151.195 149.1751 142.1752 C 149.9642 132.2216 151.5678 121.904 155.9525 112.3603 C 158.0665 107.7523 163.2356 101.23 167.096 101.6008 Z " data-paper-data="{&quot;origRot&quot;:0,&quot;index&quot;:null}" fill="#000000" stroke="#000000" stroke-linecap="butt" stroke-width="4"/><path d="M 188.2037 102.6748 C 188.2037 102.6748 175.4484 100.4119 170.3237 99.3785 C 164.4786 98.1999 155.8444 93.2301 155.8444 93.2301 " fill="none" stroke="#000000" stroke-linecap="round" stroke-width="4"/><path d="M 142.677 88.4789 C 142.677 88.4789 131.7728 95.5808 125.8015 95.7771 C 120.5663 97.1281 110.0191 95.8816 110.0191 95.8816 " data-paper-data="{&quot;index&quot;:null}" fill="none" stroke="#000000" stroke-linecap="round" stroke-width="4"/><path d="M 96.9325 182.6095 L 98.4098 166.5059 L 184.3526 173.6511 L 168.2468 188.5385 Z " fill="#ffa200" stroke="none" stroke-linecap="butt" stroke-width="4"/><path d="M 147.7811 170.6105 L 173.3811 172.7389 " fill="none" stroke="#000000" stroke-linecap="round" stroke-width="4"/><path d="M 102.0669 166.8099 L 136.8097 169.6984 " fill="none" stroke="#000000" stroke-linecap="round" stroke-width="4"/></g><path d="M 102.372 143.397 L 104.6699 118.3469 " fill="none" stroke="#000000" stroke-linecap="round" stroke-width="4"/><path d="M 184.963 126.8254 L 184.986 146.6596 " fill="none" stroke="#000000" stroke-linecap="round" stroke-width="4"/></g><path d="M 75.5904 189.9054 C 75.9708 184.4949 84.296 180.5152 94.1852 181.0164 C 104.0744 181.5177 110.4561 187.5536 110.0757 192.9641 C 109.8268 196.5034 106.746 198.8983 101.8765 199.9911 C 99.3021 200.5689 96.5032 196.8642 93.0831 196.6908 C 88.5588 196.4615 84.2154 199.2526 81.1697 197.5787 C 77.5583 195.5938 75.3841 192.8406 75.5904 189.9054 Z " data-paper-data="{&quot;index&quot;:null}" fill="#ffffff" stroke="#000000" stroke-width="4" stroke-linecap="butt"/><path d="M 91.6429 190.346 L 76.1916 190.346 " fill="none" stroke="#000000" stroke-width="4" stroke-linecap="round"/><path d="M 100.3804 351.5134 C 98.4521 350.6189 99.4162 348.8301 99.4162 348.8301 L 101.3384 346.0345 C 101.8877 346.0488 102.456 345.987 103.0212 345.9375 C 98.914 345.1623 94.9666 344.7035 90.5633 344.4746 C 87.8218 344.3321 85.0655 343.6991 82.3409 344.0147 C 77.2877 344.6 71.8659 347.1452 66.9334 348.4385 C 65.0801 350.8632 62.8037 354.1528 61.7146 357.5206 C 62.0256 358.353 62.4771 359.194 63.0901 360.055 C 65.6296 361.8948 68.1691 363.7346 70.7085 365.5744 C 71.6302 365.9771 72.541 366.3293 73.3913 366.6323 C 80.0618 369.0093 88.6011 371.1739 95.8474 370.1144 C 98.597 369.7124 101.2439 368.8463 103.9443 368.22 C 106.3997 367.6626 109.1573 366.8711 111.5693 365.6885 C 111.6318 365.5231 111.6684 365.4173 111.6714 365.389 C 112.3232 359.2037 108.2963 353.2106 103.4481 349.523 L 103.2729 350.619 C 103.2729 350.619 102.3087 352.4078 100.3804 351.5134 Z M 103.0228 374.7914 C 105.1407 373.8367 107.24 372.5579 109.3004 371.2153 C 109.346 371.1064 109.3954 370.9882 109.4481 370.8623 C 107.9323 371.3597 106.413 371.7645 104.9901 372.1006 C 104.5985 372.1914 96.594 374.053 96.3545 374.0867 C 91.5386 374.7643 86.2275 374.2222 81.1636 373.1001 C 82.263 373.8973 83.3558 374.7015 84.4351 375.5191 C 84.4667 375.543 84.4977 375.5679 84.5282 375.5936 C 87.0239 375.8062 89.5493 375.9329 92.14 375.9378 C 95.0542 375.9433 99.3288 375.7122 103.0228 374.7914 Z M 63.6123 372.6264 C 63.2838 372.4384 63.0782 372.3183 63.0524 372.298 C 59.1741 369.2442 57.0326 365.1543 56.9626 360.691 C 51.6422 356.8365 46.3218 352.9819 41.0014 349.1274 C 39.8694 348.3073 38.6813 347.5028 37.4859 346.6919 C 35.8562 350.6807 34.1165 353.8825 34.873 358.2658 C 35.9643 366.2605 44.531 367.4665 51.4522 369.96 C 55.3685 371.371 59.4794 372.0067 63.6123 372.6264 Z M 39.0085 342.3553 C 40.5931 343.5977 42.1409 344.8777 43.6553 345.9749 C 48.062 349.1674 52.4686 352.3599 56.8752 355.5524 C 55.645 345.5534 64.9931 335.1957 75.7967 333.7172 C 76.153 333.6704 76.5142 333.6241 76.8798 333.5785 C 75.878 333.1936 74.8779 332.8053 73.8803 332.4118 C 72.7482 331.9652 71.7279 331.1414 70.5035 331.0299 C 67.8489 330.7881 65.288 332.0716 62.6711 332.5507 C 57.9273 333.4193 53.1835 334.2879 48.4397 335.1565 C 47.4854 335.9585 46.5588 336.8019 45.5562 337.5346 C 43.4532 339.0713 40.7624 340.0698 39.1962 342.0839 C 39.1279 342.1716 39.0656 342.2623 39.0085 342.3553 Z M 80.1592 330.4657 C 82.1993 331.2471 84.236 332.0367 86.2751 332.8194 C 88.6944 332.7636 91.0812 332.8478 93.286 333.1552 C 100.2734 334.1295 107.2954 337.5525 113.7188 340.0989 C 113.9748 340.2004 114.2328 340.2996 114.4925 340.397 C 111.9143 338.67 109.2793 336.8299 106.5535 335.5508 C 104.065 334.383 101.3063 333.7967 98.6853 332.9129 C 94.1678 331.3549 88.8373 331.4523 84.058 330.9773 C 82.8077 330.853 81.4984 330.6681 80.1592 330.4657 Z M 131.2916 359.015 C 131.0404 360.584 130.4418 362.12 129.2635 363.6008 C 128.4039 364.681 126.8818 365.1274 125.6738 365.8669 C 123.2747 367.3358 120.8309 368.741 118.4094 370.178 C 116.5684 371.2705 114.6705 372.5582 112.7332 373.8381 C 112.6729 373.9724 112.6222 374.0856 112.5829 374.1744 C 110.7316 375.8641 108.3827 377.0921 105.809 377.9689 C 105.0576 378.3378 104.3036 378.6722 103.5479 378.9615 C 100.9134 379.97 97.7963 380.2552 94.7579 380.3999 C 103.0599 381.8029 111.5529 382.2397 120.1342 382.7495 C 122.3211 382.4541 124.7273 382.8517 126.7065 381.9394 C 133.6105 378.7574 135.0208 369.0117 133.027 362.7621 C 132.6361 361.537 132.0125 360.2756 131.2916 359.015 Z M 106.4986 346.6597 C 107.5355 347.4058 108.3137 348.5098 109.2586 349.3734 C 112.6543 352.477 115.2775 357.3087 115.9027 362.086 C 117.2362 359.3714 116.9031 355.3488 116.3569 353.0126 C 115.9903 351.4443 116.3353 349.1082 114.7677 348.4295 C 112.4031 347.4057 109.669 347.393 107.1375 346.8059 C 106.9237 346.7563 106.7107 346.7076 106.4986 346.6597 Z M 64.5202 345.149 C 69.8911 343.4594 76.1836 340.6969 81.8066 340.0455 C 82.059 340.0163 90.3284 340.4561 90.8046 340.4809 C 96.91 340.7983 102.2509 341.5495 108.1833 342.9253 C 108.707 343.0468 111.1413 343.5995 113.3649 344.1333 C 106.6456 341.3154 99.684 338.0862 92.6235 337.1077 C 91.1387 336.9019 89.5594 336.8083 87.942 336.7957 C 87.0235 337.4323 85.8416 336.9808 85.8416 336.9808 C 85.7143 336.9322 85.5869 336.8836 85.4595 336.835 C 82.3474 336.9518 79.2015 337.3032 76.4065 337.677 C 70.4129 338.4408 67.0503 341.0365 64.5202 345.149 Z M 118.3029 346.108 C 119.6307 347.8121 120.255 350.8119 120.571 352.1655 C 121.4335 355.8604 121.5059 361.4173 119.0354 365.0421 C 120.4662 364.1828 121.899 363.3265 123.3502 362.4974 C 124.1748 362.0263 125.2962 361.8721 125.8617 361.1429 C 127.9597 358.4375 127.0752 355.7108 126.677 352.8741 C 126.6206 352.4719 126.7602 352.0318 126.8286 351.6129 C 126.5758 351.0784 126.3467 350.5288 126.1139 349.9819 C 124.3079 348.2944 120.3912 346.8771 118.5635 346.2044 C 118.4767 346.1725 118.3898 346.1403 118.3029 346.108 Z M 35.608 339.8652 C 35.6376 339.8243 35.668 339.7838 35.6992 339.7437 C 35.824 339.5833 37.7871 338.1258 39.6357 336.7684 C 38.3068 337.0118 37.2896 337.198 37.2896 337.198 C 35.9641 337.4383 34.6521 337.7587 33.3117 337.9115 C 32.5062 338.0032 30.7153 337.191 30.8772 337.9287 C 31.0555 338.7405 32.682 338.1825 33.4604 338.5888 C 34.1838 338.9664 34.8995 339.3978 35.608 339.8652 Z M 47.0867 331.327 C 48.5857 330.2384 49.9371 329.2666 50.0604 329.2115 C 50.337 329.0878 58.3456 327.3544 58.8972 327.234 C 59.3523 327.1346 67.3943 325.3703 67.6515 325.3524 C 72.9779 324.9815 79.2014 326.4717 84.5174 327.0001 C 89.707 327.5159 95.2293 327.5219 100.1583 329.1536 C 100.4646 329.2568 108.3484 331.9104 108.4999 331.9815 C 112.3019 333.7657 115.9369 336.5637 119.4857 338.7585 C 120.0413 339.1021 126.8164 343.2694 127.0727 343.5275 C 127.1939 343.6495 128.2215 345.4653 129.2069 347.2289 C 129.7064 347.71 130.1523 348.2315 130.523 348.7999 C 130.8156 349.2485 130.8962 349.762 130.9113 350.2969 C 131.0067 350.4694 131.068 350.5802 131.0853 350.6114 C 132.9789 354.0204 135.9917 357.96 137.1616 361.6269 C 139.7802 369.8349 137.4112 381.615 128.4186 385.6106 C 125.953 386.7061 123.0162 386.3937 120.3089 386.7462 C 104.5403 385.8966 88.3171 385.1399 74.0684 378.356 C 72.9761 378.1866 71.8741 378.0081 70.7573 377.8227 C 62.1434 376.3927 54.0519 375.1819 45.875 372.2473 C 38.1427 369.4723 32.0103 367.2338 30.6045 358.8315 C 30.3978 357.3493 29.8975 355.8773 29.9843 354.3849 C 30.1649 351.28 32.6678 347.1275 33.8806 344.1841 C 32.8066 343.4002 31.7689 342.5918 30.8064 341.7413 C 29.3014 340.4115 26.3014 339.3865 26.5929 337.4774 C 26.8964 335.4905 30.0065 334.9473 31.9721 334.1094 C 32.0527 334.075 40.4397 332.5441 40.6849 332.4992 C 42.8189 332.1085 44.9528 331.7177 47.0867 331.327 Z M 68.3513 368.942 C 66.0964 367.9068 63.8439 366.6174 62.0264 365.053 C 64.2421 369.1482 70.1404 372.3231 74.6388 374.3739 C 75.1303 374.4487 75.621 374.522 76.1113 374.5935 C 74.6034 373.4892 73.0987 372.3814 71.5862 371.2856 C 70.5079 370.5044 69.4296 369.7232 68.3513 368.942 Z " fill="#000000" stroke="none" stroke-width="0.5" stroke-linecap="butt"/></g></g></svg>