<svg version="1.1" xmlns="http://www.w3.org/2000/svg" xmlns:xlink="http://www.w3.org/1999/xlink" width="223.90252" height="431.58895" viewBox="0,0,223.90252,431.58895"><defs><linearGradient x1="363.1556" y1="43.4743" x2="363.1556" y2="117.83455" gradientUnits="userSpaceOnUse" id="color-1"><stop offset="0" stop-color="#3fbf5b"/><stop offset="1" stop-color="#52f75b"/></linearGradient><linearGradient x1="373.59309" y1="83.63071" x2="383.38663" y2="83.63071" gradientUnits="userSpaceOnUse" id="color-2"><stop offset="0" stop-color="#00ab09"/><stop offset="1" stop-color="#185723"/></linearGradient><linearGradient x1="356.82243" y1="83.63071" x2="366.61597" y2="83.63071" gradientUnits="userSpaceOnUse" id="color-3"><stop offset="0" stop-color="#1a5125"/><stop offset="1" stop-color="#00ac09"/></linearGradient><linearGradient x1="296.36226" y1="-1.8137" x2="277.66761" y2="127.15659" gradientUnits="userSpaceOnUse" id="color-4"><stop offset="0" stop-color="#3b2103"/><stop offset="1" stop-color="#000000"/></linearGradient></defs><g transform="translate(-168.89861,-3.14939)"><g data-paper-data="{&quot;isPaintingLayer&quot;:true}" fill-rule="nonzero" stroke-linejoin="miter" stroke-miterlimit="10" stroke-dasharray="" stroke-dashoffset="0" style="mix-blend-mode: normal"><g data-paper-data="{&quot;index&quot;:null,&quot;origRot&quot;:0}" stroke-width="0.5" stroke-linecap="butt"><path d="M296.53055,309.39002c-9.23301,2.09026 -18.51601,-4.15839 -20.73423,-13.95662c-2.21818,-9.7983 3.46838,-19.43579 12.70137,-21.52608c9.23297,-2.09028 18.51596,4.15839 20.73419,13.95662c2.21823,9.79828 -3.4684,19.43579 -12.70137,21.52608z" data-paper-data="{&quot;origPos&quot;:null}" fill="#fff8d5" stroke="#45433a"/><path d="M249.55751,163.8276c17.38114,-5.0576 25.86219,1.04229 31.2678,8.25568c5.06257,6.75561 16.68471,34.53308 22.69707,57.84663c6.01234,23.31356 7.11772,61.56835 7.11772,61.56835c0,0 -9.53214,4.3956 -17.54531,4.68016c-8.01317,0.28453 -18.4373,-3.40243 -18.4373,-3.40243c0,0 3.25327,-28.80806 -1.1989,-52.65584c-4.45219,-23.8478 -20.8432,-59.00461 -20.8432,-59.00461z" data-paper-data="{&quot;origRot&quot;:0,&quot;origPos&quot;:null}" fill="#67ff26" stroke="#183b09"/></g><path d="M196.30542,387.76963l26.3323,-111.12941l22.84058,0.13977l-26.3323,111.12941z" data-paper-data="{&quot;origRot&quot;:0,&quot;index&quot;:null}" fill="#00c7c6" stroke="#004040" stroke-width="0.5" stroke-linecap="butt"/><g data-paper-data="{&quot;index&quot;:null}" stroke="#1b1600" stroke-width="0.5"><path d="M221.39682,431.12716c-17.47824,2.89097 -33.14147,3.36118 -33.14147,3.36118c-18.37775,0 -24.98442,-16.5779 -13.21531,-25.58449c4.02536,-3.08052 11.57694,-6.92845 11.57694,-6.92845c0,0 8.98132,-24.70222 8.73928,-35.65865c-0.08288,-3.75131 31.4411,-5.28595 32.07564,1.61159c1.10152,11.97344 -5.01562,63.03016 -6.0351,63.19877z" data-paper-data="{&quot;origPos&quot;:null}" fill="#907900" stroke-linecap="butt"/><path d="M180.8924,405.09316c0,0 0.91036,-1.8795 5.36787,-2.74869c4.45749,-0.86921 13.90787,0.78676 13.90787,0.78676" data-paper-data="{&quot;origPos&quot;:null}" fill="none" stroke-linecap="round"/></g><path d="M203.1636,362.97913l14.65093,-64.3681l4.32323,-0.24018c0,0 -5.91653,19.19648 -8.93586,31.47755c-2.19787,8.93975 -7.15616,32.89055 -7.15616,32.89055z" fill="#00e4e4" stroke="none" stroke-width="0" stroke-linecap="butt"/><path d="M286.86507,163.46239c-77.39066,-1.90696 -78.09973,-50.33027 -78.09973,-50.33027c0,0 18.8597,-37.6857 62.15536,-37.6857c43.29566,0 82.14878,29.95544 82.14878,29.95544c0,0 -3.84229,60.6555 -66.20441,58.06053z" data-paper-data="{&quot;index&quot;:null}" fill="#2b1702" stroke="#0f0801" stroke-width="1" stroke-linecap="butt"/><path d="M253.96737,397.59923v-117.53801h22.84099v117.53801z" data-paper-data="{&quot;index&quot;:null}" fill="#00c7c6" stroke="#004040" stroke-width="0.5" stroke-linecap="butt"/><path d="M254.58001,365.4681l0.35881,-66.01343l4.16854,-1.17103c0,0 -0.98658,48.06749 -1.30992,55.97934c-0.13251,3.24229 -0.45575,10.34627 -0.45575,10.34627z" data-paper-data="{&quot;origRot&quot;:0}" fill="#00e4e4" stroke="none" stroke-width="0" stroke-linecap="butt"/><g data-paper-data="{&quot;index&quot;:null}" stroke="#1b1600" stroke-width="0.5"><path d="M248.44721,430.67186c-1.01946,-0.16861 0.15337,-51.22533 1.25488,-63.19879c0.63454,-6.8975 32.62798,-4.08163 32.54512,-0.33029c-0.24204,10.95643 0.70927,34.37735 0.70927,34.37735c0,0 7.82217,3.84791 11.84753,6.92845c11.76911,9.00659 5.16248,25.58449 -13.21531,25.58449c0,0 -15.66326,-0.47024 -33.14147,-3.3612z" data-paper-data="{&quot;origPos&quot;:null}" fill="#907900" stroke-linecap="butt"/><path d="M269.6758,402.67604c0,0 9.45045,-1.65599 13.90787,-0.78676c4.45753,0.86919 5.36787,2.74873 5.36787,2.74873" data-paper-data="{&quot;origPos&quot;:null}" fill="none" stroke-linecap="round"/></g><path d="M231.49216,173.07767c0,0 1.50212,-8.32863 2.46355,-13.65937c1.8467,-10.23919 4.73194,-26.23663 4.73194,-26.23663l34.76653,6.27036l-7.19549,39.896z" data-paper-data="{&quot;index&quot;:null,&quot;origRot&quot;:0}" fill="#fff8d5" stroke="#514f44" stroke-width="0.5" stroke-linecap="butt"/><path d="M271.99109,154.19102v14.61241l-17.73927,0.74822l-3.37679,-17.24839z" data-paper-data="{&quot;index&quot;:null}" fill="#d4ceb2" stroke="#000000" stroke-width="0" stroke-linecap="butt"/><path d="M218.26237,166.16845c5.84676,-0.2012 18.28287,0.36938 28.93246,0.46479c10.64961,0.09541 29.09328,-0.72524 29.09328,-0.72524c0,0 3.99514,123.97461 0.50292,127.37902c-4.39569,4.28519 -27.36769,6.68752 -39.13541,6.68752c-17.18406,0 -20.10138,-0.39785 -22.05943,-5.81291c-2.6983,-7.46222 2.6662,-127.99318 2.6662,-127.99318z" data-paper-data="{&quot;index&quot;:null}" fill="#67ff26" stroke="#183b09" stroke-width="0.5" stroke-linecap="butt"/><path d="M243.04473,299.1178l0.11696,-132.27199l4.05394,-0.00026c0,0 -0.05313,61.39849 -0.08713,100.69665c-0.01163,13.44788 -0.02981,31.57562 -0.02981,31.57562z" data-paper-data="{&quot;index&quot;:null}" fill="#82a19f" stroke="#2b3434" stroke-width="0.25" stroke-linecap="butt"/><path d="M269.84966,192.26809v-25.33819l11.13874,-0.60097l4.53712,25.16178z" data-paper-data="{&quot;index&quot;:null}" fill="#67ff26" stroke="none" stroke-width="0" stroke-linecap="butt"/><path d="M216.08524,293.95154c0,0 -0.6176,-9.49727 -0.6176,-15.37833c0,-17.64325 2.09301,-87.19201 2.09301,-87.19201l1.70869,0.17155l0.58331,106.10443z" fill="#b7ff97" stroke="none" stroke-width="0" stroke-linecap="butt"/><path d="M187.51762,401.27058c0,0 4.33538,-14.7653 6.80278,-24.83075c0.90699,-3.69993 1.84368,-10.44129 1.84368,-10.44129l2.4704,-0.72055l-8.16611,36.23277z" fill="#b19300" stroke="none" stroke-width="0" stroke-linecap="butt"/><path d="M171.21973,414.13734c4.30308,-6.75252 16.81257,-11.40853 16.81257,-11.40853c0,0 -11.28592,7.49888 -13.93042,11.64871c-2.6445,4.14983 -1.68126,14.10977 -1.68126,12.84961c0,-1.26016 -5.50397,-6.33727 -1.20089,-13.08979z" fill="#b19300" stroke="none" stroke-width="0" stroke-linecap="butt"/><path d="M249.03787,430.46955l1.20089,-64.60827l2.88217,-0.48038c0,0 -1.60461,3.46842 -1.86301,17.52536c-0.21026,11.43847 -0.05843,47.80345 -0.05843,47.80345z" fill="#b19300" stroke="none" stroke-width="0" stroke-linecap="butt"/><path d="M215.20687,431.17292c0,0 2.85039,-22.67098 4.18069,-37.36589c1.3303,-14.69494 3.73838,-29.64417 3.73838,-29.64417l4.43302,3.70564c0,0 -1.53025,17.64658 -2.41305,28.9413c-1.02936,13.16964 -4.33942,33.74553 -4.33942,33.74553z" fill="#665500" stroke="none" stroke-width="0" stroke-linecap="butt"/><path d="M267.65178,295.86613c0,0 3.2258,-6.2566 3.90692,-25.94133c0.72488,-20.9486 4.73954,-78.17647 4.73954,-78.17647c0,0 1.44108,42.61587 1.44108,69.89221c0,12.65399 -1.44108,32.42423 -1.44108,32.42423z" fill="#56d420" stroke="none" stroke-width="0" stroke-linecap="butt"/><g><path d="M333.51007,84.65909c0,-18.32231 29.64553,-46.07937 29.64553,-46.07937c0,0 29.64553,26.75514 29.64553,46.07937c0,19.32422 -13.27275,33.17546 -29.64552,33.17546c-16.37277,0 -29.64553,-14.85316 -29.64553,-33.17547z" data-paper-data="{&quot;origPos&quot;:null,&quot;index&quot;:null}" fill="url(#color-1)" stroke="#0066ff" stroke-width="0" stroke-linecap="butt"/><g data-paper-data="{&quot;index&quot;:null}"><g data-paper-data="{&quot;origPos&quot;:null}" stroke="#ffffff" stroke-width="0" stroke-linecap="butt"><path d="M378.48987,95.56559c-2.70441,0 -4.89678,-5.34343 -4.89678,-11.93487c0,-6.59146 -0.23896,-11.93487 4.89678,-11.93487c5.13572,0 4.89676,5.34343 4.89676,11.93487c0,6.59144 -2.19235,11.93487 -4.89676,11.93487z" data-paper-data="{&quot;origPos&quot;:null,&quot;index&quot;:null}" fill="url(#color-2)"/><path d="M361.71921,95.56557c-2.70441,0 -4.89678,-5.34343 -4.89678,-11.93487c0,-3.35009 -0.23896,-11.93487 4.89678,-11.93487c5.13572,0 4.89676,5.34343 4.89676,11.93487c0,6.59144 -2.19235,11.93487 -4.89676,11.93487z" data-paper-data="{&quot;origPos&quot;:null,&quot;index&quot;:null}" fill="url(#color-3)"/></g><path d="M374.95518,104.70288c0,0 -2.87995,1.53167 -4.24074,1.54697c-1.91237,0.02149 -4.14632,-1.45273 -4.14632,-1.45273" data-paper-data="{&quot;origPos&quot;:null}" fill="none" stroke="#268436" stroke-width="2.5" stroke-linecap="round"/></g></g><g data-paper-data="{&quot;origRot&quot;:0}"><path d="M360.73228,98.33938c-5.71136,39.40144 -44.63609,66.37148 -86.94079,60.23928c-42.30467,-6.13219 -71.96948,-43.04452 -66.25812,-82.44594c5.71136,-39.40144 44.63609,-66.37148 86.94079,-60.23928c42.30467,6.13219 71.96948,43.0445 66.25812,82.44594z" data-paper-data="{&quot;index&quot;:null}" fill="#fff8d5" stroke="#514f44" stroke-width="0.5" stroke-linecap="butt"/><path d="M343.60953,77.69437l18.42058,14.58925c0,0 -22.83695,0.86043 -25.76365,-4.24187c-2.92673,-5.1023 -8.53787,-21.35188 -16.4802,-25.66053c-8.39263,-4.55292 -13.7112,-0.85215 -23.13015,-1.83802c-8.56315,-0.89628 -13.09748,-5.43687 -21.65761,-4.12824c-4.76281,0.72811 -18.64208,9.32106 -18.64208,9.32106l2.04172,-13.71152c0,0 -1.10976,13.15098 -7.09286,18.3044c-5.9831,5.15345 -15.83076,1.4404 -15.83076,1.4404l9.35719,-12.14292c0,0 -4.37682,4.20451 -9.07365,11.42738c-4.69681,7.22289 19.07139,-47.68094 22.53275,-51.92103c6.2539,-7.66081 59.14911,16.62676 72.22471,17.62543c8.89732,0.67955 13.094,40.93618 13.094,40.93618z" data-paper-data="{&quot;index&quot;:null}" fill="#8a7967" stroke="#000000" stroke-width="0" stroke-linecap="butt"/><path d="M207.20622,94.65655l2.83026,-19.52535l149.19367,21.62609l-2.83026,19.52535z" data-paper-data="{&quot;index&quot;:null}" fill="#000000" stroke="#000000" stroke-width="0" stroke-linecap="butt"/><path d="M339.57365,81.63171c-2.27983,-6.35949 -4.33805,-20.74311 -12.92281,-25.14487c-9.07147,-4.65132 -14.74858,-1.00255 -24.88459,-2.09235c-9.21503,-0.99077 -14.1387,-5.5878 -23.32651,-4.37015c-9.18782,1.21765 -19.93869,9.13311 -19.93869,9.13311l2.04581,-13.71092c0,0 -1.05003,13.15964 -7.42577,18.25618c-6.37576,5.09654 -17.0022,1.2706 -17.0022,1.2706l9.92688,-12.06034c0,0 -4.65933,4.16355 -9.62984,11.34676c-4.97051,7.18322 -13.77275,16.71288 -21.99952,27.18379c-8.2268,10.47092 -1.21059,33.63389 -1.21059,33.63389c0,0 -7.50817,-24.2319 -8.14257,-26.84367c-0.06636,-0.2733 -2.19047,-10.55329 -0.94501,-18.92588c2.54371,-17.10008 5.7573,-35.73217 5.7573,-35.73217c0,0 4.86914,-16.61869 8.54398,-20.82781c6.63958,-7.6049 10.4062,-9.13584 18.28936,-13.12916c7.88313,-3.9933 22.97742,-7.5035 24.11808,-4.5105c1.24196,3.25875 -13.47268,5.06021 -13.37844,5.04473c5.92948,-0.97382 25.46447,-9.11358 44.72608,-5.65106c19.2616,3.46249 54.84942,21.17933 52.81683,23.96677c-1.3975,1.43857 -12.13259,-5.67181 -12.13259,-5.67181c0,0 22.92596,14.42863 25.50153,28.56114c2.66409,14.61832 4.73726,22.90975 4.1534,37.75739c-0.30115,7.65797 -0.91929,11.99038 -3.072,19.34569c-6.31149,21.56498 -7.8863,15.45757 -7.8863,15.45757c0,0 -13.25838,-11.50822 -9.69853,-25.01502c0,0 -0.00342,-10.9124 -2.28326,-17.27191z" data-paper-data="{&quot;index&quot;:null}" fill="url(#color-4)" stroke="#0f0801" stroke-width="1" stroke-linecap="butt"/><path d="M300.44636,120.14592c0.81806,-5.64362 3.88094,-26.77379 6.36747,-43.92776c0.18083,-1.24751 3.08229,-2.81694 3.08229,-2.81694c0,0 13.38052,1.91181 22.24184,3.19628c1.40686,0.20393 3.27351,2.80875 3.0614,4.27204c-2.47089,17.04612 -5.5602,38.35857 -6.33134,43.67852c-0.25704,1.77328 -2.85672,4.22527 -4.26356,4.02135c0,0 -17.13911,-2.48437 -21.30153,-3.08772c-1.3875,-0.20112 -3.12923,-3.45452 -2.85655,-5.33572z" data-paper-data="{&quot;index&quot;:null}" fill="#000000" stroke="#00360a" stroke-width="0" stroke-linecap="butt"/><path d="M276.77847,137.66018l19.7013,2.85577" data-paper-data="{&quot;index&quot;:null}" fill="none" stroke="#000000" stroke-width="0.5" stroke-linecap="round"/><path d="M279.79086,116.50454c-0.27269,1.8812 -2.8665,4.50615 -4.254,4.30502c-4.16242,-0.60336 -21.30153,-3.08772 -21.30153,-3.08772c-1.40684,-0.20393 -3.2033,-3.29314 -2.94625,-5.06643c0.77114,-5.31995 3.86045,-26.63241 6.33134,-43.67852c0.21211,-1.4633 2.74155,-3.43088 4.14841,-3.22695c8.86134,1.28448 22.23396,3.25062 22.23396,3.25062c0,0 2.33642,2.32868 2.15559,3.57619c-2.48652,17.15398 -5.54941,38.28414 -6.36747,43.92776z" data-paper-data="{&quot;index&quot;:null}" fill="#000000" stroke="#00360a" stroke-width="0" stroke-linecap="butt"/><path d="M264.09136,121.31216c0,0 -12.64036,-0.60932 -15.17474,-2.19963c-2.53438,-1.59031 -0.8795,-7.87428 -0.8795,-7.87428" fill="none" stroke="#000000" stroke-width="0.5" stroke-linecap="round"/></g><g stroke-linecap="butt"><g data-paper-data="{&quot;index&quot;:null,&quot;origRot&quot;:0}" stroke-width="0.5"><path d="M265.02985,312.86403c-8.78551,3.52588 -18.9409,-1.17385 -22.68269,-10.49726c-3.74176,-9.32336 0.34689,-19.73983 9.1324,-23.26571c8.78553,-3.52589 18.94085,1.17387 22.68269,10.49726c3.74176,9.32336 -0.3469,19.73981 -9.13243,23.26573z" data-paper-data="{&quot;origPos&quot;:null}" fill="#fff8d5" stroke="#45433a"/><path d="M228.2849,182.3547c0,0 6.48713,38.24374 16.37323,60.39785c9.8861,22.15408 28.93138,44.01193 28.93138,44.01193c0,0 -6.48321,8.95679 -13.23895,13.27557c-6.75576,4.31875 -17.09729,6.11756 -17.09729,6.11756c0,0 -20.82595,-32.10811 -29.12466,-54.70903c-8.29868,-22.60094 -14.51735,-52.0626 -14.18973,-60.49827c0.34981,-9.0073 3.86308,-18.84568 21.03971,-24.55936z" data-paper-data="{&quot;origRot&quot;:0,&quot;origPos&quot;:null}" fill="#67ff26" stroke="#183b09"/></g><path d="M243.03534,305.23124c0,0 -23.13071,-38.21669 -29.91775,-59.24403c-9.03795,-28.00107 -5.64615,-19.93831 -11.06729,-42.21006c-4.76234,-19.5652 0.00837,-18.63296 0.00837,-18.63296c0,0 8.31005,36.77897 16.14301,61.61392c5.96408,18.90953 30.0046,56.97887 30.0046,56.97887z" data-paper-data="{&quot;origRot&quot;:0}" fill="#b7ff97" stroke="none" stroke-width="0"/></g><path d="M211.0399,190.82381l5.19514,-24.244l11.33486,1.73171v22.51229z" data-paper-data="{&quot;index&quot;:null}" fill="#67ff26" stroke="none" stroke-width="0" stroke-linecap="butt"/><g data-paper-data="{&quot;origRot&quot;:0,&quot;index&quot;:null}" fill="#fff400" stroke="#000000" stroke-width="1" stroke-linecap="butt"><path d="M286.7194,358.28083c0,0 -27.01962,-30.58815 -43.08347,-48.77359c-0.46589,-0.5274 -4.51866,2.63369 -4.96562,2.12771c-3.2615,-3.69227 -5.9948,-6.78656 -7.84467,-8.88074c-0.3171,-0.35899 3.2367,-4.08496 2.97331,-4.38313c-3.3047,-3.74117 -6.72401,-7.61206 -6.72401,-7.61206l7.26303,-7.41951l60.76512,68.7905l-8.38368,6.15083z" data-paper-data="{&quot;origRot&quot;:0}"/><path d="M294.89166,352.31675c0,0 -32.51679,-36.81133 -43.73331,-49.50924c-0.32353,-0.36628 -4.60305,2.74379 -4.94313,2.35881c-2.94612,-3.3352 -4.96385,-5.61942 -8.09372,-9.16267c-0.29419,-0.33303 3.362,-4.14876 3.07536,-4.47327c-4.16039,-4.70985 -7.07033,-8.00411 -7.07033,-8.00411l27.06511,-23.90759c0,0 3.46484,3.92246 7.19485,8.14509c0.67577,0.765 -3.87321,4.70643 -3.14115,5.53519c3.66415,4.14807 4.04649,4.58092 7.59564,8.59881c0.60167,0.68112 5.44656,-2.9253 6.00507,-2.29303c11.15055,12.62321 43.11073,48.80443 43.11073,48.80443l-27.06511,23.90759z" data-paper-data="{&quot;origRot&quot;:0}"/></g></g></g></svg>