<svg version="1.1" xmlns="http://www.w3.org/2000/svg" xmlns:xlink="http://www.w3.org/1999/xlink" width="222.32015" height="348.32361" viewBox="0,0,222.32015,348.32361"><g transform="translate(-145.88169,-52.53548)"><g data-paper-data="{&quot;isPaintingLayer&quot;:true}" fill-rule="nonzero" stroke-linejoin="miter" stroke-miterlimit="10" stroke-dasharray="" stroke-dashoffset="0" style="mix-blend-mode: normal"><path d="M179.97528,274.94327c-3.19654,3.45124 -7.77517,5.76333 -12.97812,6.11486c-5.20293,0.35152 -10.051,-1.32385 -13.68268,-4.31368c-3.63002,-2.98855 -6.0439,-7.29303 -6.37545,-12.20135c-0.33155,-4.90832 1.48129,-9.49837 4.67635,-12.94799c3.19662,-3.45114 7.77528,-5.76341 12.97812,-6.11485c5.20293,-0.35152 10.051,1.32385 13.68268,4.31367c3.63012,2.98847 6.0439,7.29304 6.37544,12.20136c0.33173,4.90834 -1.48129,9.49836 -4.67634,12.94799z" data-paper-data="{&quot;origPos&quot;:null,&quot;index&quot;:null}" id="ID0.07061211299151182" fill="#ffd499" stroke="#000000" stroke-width="2.11469" stroke-linecap="butt"/><g data-paper-data="{&quot;origPos&quot;:null,&quot;index&quot;:null,&quot;origRot&quot;:0}" id="ID0.09386339038610458" stroke-linecap="round"><path d="M198.64248,353.27706l41.85358,-190.8371l30.29363,3.32477l-0.35896,193.78837z" id="ID0.017299960367381573" fill="#006622" stroke="#006622" stroke-width="3.31787"/><path d="M261.30796,352.85901l-0.46171,-119.36857" id="ID0.031035076826810837" fill="none" stroke="#01902d" stroke-width="10.8155"/><path d="M271.60547,362.15104l-32.01697,-3.51379l0.79235,-7.22023l32.01704,3.51389z" id="ID0.9768607504665852" fill="#006622" stroke="none" stroke-width="1.30791"/></g><path d="M307.18997,318.30244c-3.19654,3.45125 -7.77517,5.76334 -12.97812,6.11486c-5.20293,0.35152 -10.051,-1.32385 -13.68267,-4.31368c-3.63002,-2.98855 -6.0439,-7.29304 -6.37545,-12.20136c-0.33155,-4.90832 1.48129,-9.49837 4.67634,-12.94799c3.19662,-3.45114 7.77528,-5.76341 12.97812,-6.11485c5.20293,-0.35152 10.051,1.32385 13.68268,4.31367c3.63012,2.98847 6.04389,7.29304 6.37544,12.20136c0.33174,4.90834 -1.48129,9.49836 -4.67634,12.94799z" data-paper-data="{&quot;origPos&quot;:null,&quot;index&quot;:null}" id="ID0.07061211299151182" fill="#ffd499" stroke="#000000" stroke-width="2.11469" stroke-linecap="butt"/><g data-paper-data="{&quot;origPos&quot;:null,&quot;origRot&quot;:0}" id="ID0.8685846459120512" stroke-linecap="butt"><path d="M188.37717,352.96672c2.09582,3.93325 2.56115,7.39001 0.89831,9.43456c-1.66282,2.04441 -5.14189,2.29317 -9.41963,1.04272c-4.27753,-1.24883 -9.35288,-3.99752 -14.20886,-7.94713c-4.85611,-3.94946 -8.58124,-8.35835 -10.67532,-12.29167c-2.09569,-3.93325 -2.56115,-7.39001 -0.89831,-9.43456c1.66283,-2.04455 5.14203,-2.29317 9.41963,-1.04272c4.27754,1.2487 9.35288,3.99752 14.20899,7.947c4.85597,3.94959 8.58112,8.35835 10.67518,12.2918z" id="ID0.19497378217056394" fill="#c90101" stroke="#000000" stroke-width="3.54063"/><path d="M180.42089,349.51157c1.40504,3.04122 1.56633,5.7958 0.14966,7.53774c-1.41666,1.74181 -4.14632,2.14502 -7.41013,1.38916c-3.26438,-0.75507 -7.06378,-2.67031 -10.62224,-5.56452c-3.5586,-2.89409 -6.20758,-6.22372 -7.61191,-9.26573c-1.40504,-3.04122 -1.56634,-5.79594 -0.14967,-7.53775c1.41666,-1.74181 4.14632,-2.14515 7.41013,-1.38916c3.26438,0.75507 7.06378,2.67018 10.62225,5.56439c3.5586,2.89423 6.20758,6.22372 7.6119,9.26586z" id="ID0.13423143420368433" fill="#ff0202" stroke="none" stroke-width="0.93464"/><path d="M189.04267,353.19693c2.09582,3.93325 2.56115,7.39001 0.89831,9.43456c-1.66282,2.04441 -5.1419,2.29318 -9.41964,1.04273c-4.27753,-1.24883 -9.35288,-3.99752 -14.20886,-7.94713c-4.85611,-3.94946 -8.58124,-8.35835 -10.67532,-12.29167c-2.09569,-3.93325 -2.56115,-7.39001 -0.89831,-9.43456c1.66283,-2.04455 5.14203,-2.29317 9.41963,-1.04272c4.27754,1.2487 9.35288,3.99752 14.20899,7.947c4.85597,3.94959 8.58112,8.35835 10.67518,12.2918z" id="ID0.19497378217056394" fill="none" stroke="#000000" stroke-width="3.54063"/></g><g data-paper-data="{&quot;origPos&quot;:null,&quot;origRot&quot;:0}" id="ID0.8721039635129273" stroke-linecap="butt"><path d="M296.49958,379.70666c4.37384,0.85584 7.34921,2.67598 7.88615,5.25607c0.53686,2.58 -1.46536,5.43604 -5.13461,7.96571c-3.66787,2.53053 -9.00274,4.73364 -15.13085,6.0088c-6.12809,1.27536 -11.89901,1.38341 -16.27178,0.52617c-4.37376,-0.85595 -7.34921,-2.67598 -7.88615,-5.25607c-0.53696,-2.58009 1.46546,-5.43613 5.13462,-7.9657c3.66776,-2.53062 9.00274,-4.73364 15.13085,-6.009c6.12811,-1.27517 11.8989,-1.38332 16.27179,-0.52598z" id="ID0.19497378217056394" fill="#c90101" stroke="#000000" stroke-width="3.54063"/><path d="M288.79884,383.69903c3.24594,0.82892 5.48471,2.44185 5.94224,4.64003c0.45742,2.19809 -0.95212,4.57018 -3.59791,6.62532c-2.64553,2.05608 -6.52871,3.7952 -11.01936,4.72966c-4.49063,0.93467 -8.74521,0.88883 -11.99131,0.05887c-3.24594,-0.82892 -5.48481,-2.44194 -5.94224,-4.64003c-0.45742,-2.19809 0.95202,-4.57026 3.59791,-6.62532c2.64553,-2.05608 6.52861,-3.79528 11.01926,-4.72976c4.49074,-0.93458 8.74521,-0.88883 11.99141,-0.05879z" id="ID0.13423143420368433" fill="#ff0202" stroke="none" stroke-width="0.93464"/><path d="M296.36548,379.8582c4.37384,0.85584 7.34921,2.67598 7.88616,5.25608c0.53686,2.58 -1.46536,5.43603 -5.13462,7.9657c-3.66787,2.53053 -9.00274,4.73364 -15.13085,6.0088c-6.12809,1.27536 -11.89899,1.38341 -16.27178,0.52617c-4.37376,-0.85595 -7.34921,-2.67598 -7.88616,-5.25608c-0.53696,-2.58009 1.46546,-5.43613 5.13462,-7.9657c3.66776,-2.53062 9.00274,-4.73364 15.13083,-6.009c6.12811,-1.27517 11.8989,-1.38332 16.27179,-0.52598z" id="ID0.19497378217056394" fill="none" stroke="#000000" stroke-width="3.54063"/></g><g data-paper-data="{&quot;origPos&quot;:null,&quot;origRot&quot;:0}"><path d="M250.02217,64.36887c-0.11499,-1.38192 4.6356,-3.28514 7.38652,-3.79592c2.31422,-0.30759 4.99531,0.11189 6.91068,1.48404c2.23109,1.6179 3.37594,4.31147 4.16688,6.98187c-0.55585,6.34691 -2.9545,1.86646 -4.9736,0.38648c-1.74377,-1.00108 -3.5713,-2.28809 -5.54867,-3.0429c-2.51919,-0.96243 -7.82143,-0.65889 -7.94181,-2.01357z" data-paper-data="{&quot;origPos&quot;:null,&quot;index&quot;:null}" id="ID0.5775998127646744" fill="#666600" stroke="#666600" stroke-width="2.23893" stroke-linecap="round"/><path d="M346.08199,102.07956c12.86042,16.95408 19.75609,39.40119 17.62992,63.30649c-2.12624,23.90519 -12.87546,44.78285 -28.52619,59.20105c-15.64897,14.41822 -36.19788,22.37726 -57.92161,20.44496c-21.72366,-1.9322 -40.54531,-13.39287 -53.40392,-30.3468c-12.86035,-16.95396 -19.7562,-39.40112 -17.62996,-63.30631c2.12624,-23.90519 12.87545,-44.78285 28.52618,-59.20105c15.64909,-14.4183 36.19788,-22.37726 57.92154,-20.44508c21.72385,1.93224 40.54532,13.39287 53.40403,30.34673z" data-paper-data="{&quot;origPos&quot;:null,&quot;index&quot;:null}" id="ID0.3367121433839202" fill="#f0c690" stroke="#f0c690" stroke-width="3.8323" stroke-linecap="butt"/><path d="M332.79226,125.31156c11.62937,13.6195 17.98163,31.56617 16.28885,50.5979c-1.69271,19.03185 -11.11276,35.57572 -24.9633,46.92885c-13.84913,11.35464 -32.13033,17.51982 -51.54669,15.79288c-19.41646,-1.72687 -36.32253,-11.02186 -47.95038,-24.64246c-11.62937,-13.6195 -17.98163,-31.56617 -16.28885,-50.5979c1.69271,-19.03185 11.11276,-35.57573 24.96319,-46.92878c13.84924,-11.35471 32.13044,-17.51989 51.5468,-15.79295c19.41646,1.72687 36.32253,11.02186 47.95038,24.64246z" data-paper-data="{&quot;origPos&quot;:null,&quot;index&quot;:null}" id="ID0.05769371194764972" fill="#ffd499" stroke="none" stroke-width="1.03711" stroke-linecap="butt"/><path d="M284.3914,53.89132c0.46681,1.88719 -5.48909,5.32635 -8.04438,7.96952c-1.736,1.79281 -3.3556,3.83968 -4.863,5.67346c-1.59658,2.48595 -2.22985,8.51815 -5.80448,1.56349c-0.34498,-3.33844 -0.28918,-6.83809 1.47192,-9.57255c1.66387,-2.53901 4.62512,-4.1375 7.50084,-5.16915c3.09311,-0.91608 9.3214,-2.06623 9.73912,-0.46477z" data-paper-data="{&quot;origPos&quot;:null,&quot;index&quot;:null}" id="ID0.5775998127646744" fill="#525200" stroke="#525200" stroke-width="2.71167" stroke-linecap="round"/><g data-paper-data="{&quot;origPos&quot;:null,&quot;index&quot;:null}" id="ID0.5728061054833233" fill="none" stroke="#000000" stroke-width="12.6636" stroke-linecap="round"><path d="M311.23687,204.68118l5.34694,-60.11606" id="ID0.46364903124049306"/><path d="M277.91619,141.22785l-5.34694,60.11606" id="ID0.46364903124049306"/></g><path d="M362.91623,127.15203l-152.17187,-13.53475l12.76506,-18.10626l15.98922,-15.16544l15.3453,-7.92426l10.8438,-4.34349l13.4348,-2.12261l13.25916,-0.14769l23.65042,6.08457l9.74635,5.64413l5.03435,2.96906l10.36443,8.88391l9.37988,12.1139l7.36353,11.27092z" data-paper-data="{&quot;origPos&quot;:null,&quot;index&quot;:null}" id="ID0.5693852878175676" fill="#666600" stroke="none" stroke-width="1.00499" stroke-linecap="round"/><path d="M349.99387,116.18307c2.86215,0.25458 5.24664,1.77377 7.0687,3.6423c2.84481,2.89643 5.91937,6.39195 7.72769,10.28027c1.93361,5.8357 3.01473,12.05203 3.26088,18.20475c0.21989,5.61818 0.69839,18.70395 -2.9057,16.99267c-6.33215,-4.14875 -10.26293,-20.11994 -16.96664,-28.71282c-1.68586,-2.16297 -5.35443,-1.62806 -7.06889,-3.64234c-1.71427,-2.01422 -2.64937,-4.66912 -2.39894,-7.48402c0.25025,-2.81494 1.63936,-5.26312 3.68225,-6.94325c2.04297,-1.68001 4.73838,-2.59206 7.60064,-2.33756z" data-paper-data="{&quot;origPos&quot;:null,&quot;index&quot;:null}" id="ID0.16118840454146266" fill="#525200" stroke="none" stroke-width="1.00499" stroke-linecap="round"/><path d="M338.43255,116.30355c1.79786,2.50216 2.75198,5.82095 2.43694,9.36256c-0.31505,3.54161 -1.8399,6.63991 -4.05112,8.78549c-2.20983,2.14551 -5.10461,3.33851 -8.15773,3.06697c-3.05312,-0.27154 -5.69176,-1.95668 -7.48828,-4.45874c-1.79779,-2.50206 -2.75202,-5.82077 -2.43699,-9.36238c0.31498,-3.54172 1.8399,-6.63991 4.05112,-8.78549c2.20976,-2.14562 5.10461,-3.33851 8.15773,-3.06697c3.05312,0.27154 5.69188,1.95661 7.48833,4.45855z" data-paper-data="{&quot;origPos&quot;:null,&quot;index&quot;:null}" id="ID0.839914002455771" fill="#525200" stroke="none" stroke-width="1.00499" stroke-linecap="butt"/><path d="M294.94844,71.46995c1.20516,1.31862 1.86879,3.05133 1.70586,4.88339c-0.16293,1.83207 -1.12196,3.42044 -2.54091,4.50552c-1.41827,1.08593 -3.29551,1.66862 -5.29413,1.4908c-1.99873,-0.17775 -3.74367,-1.08253 -4.94791,-2.40172c-1.20516,-1.31862 -1.86879,-3.05133 -1.70586,-4.88339c0.16293,-1.83207 1.12196,-3.42044 2.54091,-4.50552c1.41827,-1.08593 3.29551,-1.66862 5.29413,-1.4908c1.99873,0.17775 3.74367,1.08253 4.94791,2.40172z" data-paper-data="{&quot;origPos&quot;:null,&quot;index&quot;:null}" id="ID0.2688980521634221" fill="#525200" stroke="none" stroke-width="0.59905" stroke-linecap="butt"/><path d="M321.50069,116.69027c1.37,1.6227 2.11661,3.76321 1.91468,6.03296c-0.20186,2.26987 -1.31448,4.24503 -2.94931,5.60048c-1.6363,1.35666 -3.79335,2.09367 -6.08288,1.88999c-2.28946,-0.20357 -4.28251,-1.30974 -5.65373,-2.93391c-1.37,-1.6227 -2.11649,-3.76328 -1.91468,-6.03296c0.20186,-2.26987 1.3146,-4.2451 2.94931,-5.60048c1.6363,-1.35666 3.79335,-2.09367 6.08288,-1.88998c2.28946,0.20357 4.28263,1.30967 5.65373,2.9339z" data-paper-data="{&quot;origPos&quot;:null,&quot;index&quot;:null}" id="ID0.7480932525359094" fill="#666600" stroke="none" stroke-width="1.00499" stroke-linecap="butt"/><path d="M307.39494,105.09298c1.97929,2.57794 3.04227,5.98999 2.71922,9.62244c-0.32305,3.63245 -1.97154,6.8035 -4.37479,8.99156c-2.40318,2.18818 -5.56136,3.3948 -8.90088,3.09778c-3.3394,-0.29709 -6.235,-2.04219 -8.21429,-4.62013c-1.97941,-2.57787 -3.04227,-5.98999 -2.71921,-9.62244c0.32305,-3.63245 1.97161,-6.80338 4.37478,-8.99157c2.40324,-2.18807 5.56137,-3.3948 8.90088,-3.09778c3.3394,0.29709 6.23499,2.04219 8.21429,4.62013z" data-paper-data="{&quot;origPos&quot;:null,&quot;index&quot;:null}" id="ID0.26692162407562137" fill="#666600" stroke="none" stroke-width="1.00499" stroke-linecap="butt"/><path d="M286.89431,116.86978c0.78702,1.09053 1.20503,2.53697 1.06758,4.08135c-0.13734,1.54433 -0.80398,2.8944 -1.77113,3.8288c-0.96575,0.93591 -2.23203,1.45489 -3.56839,1.33609c-1.33627,-0.11887 -2.49105,-0.85332 -3.27652,-1.94495c-0.78695,-1.09041 -1.20496,-2.53685 -1.06762,-4.08117c0.13738,-1.54451 0.80409,-2.89447 1.77106,-3.82891c0.96594,-0.93587 2.23213,-1.45496 3.56847,-1.33597c1.33638,0.1188 2.4911,0.85314 3.27657,1.94477z" data-paper-data="{&quot;origPos&quot;:null,&quot;index&quot;:null}" id="ID0.8134746439754963" fill="#666600" stroke="none" stroke-width="1.00499" stroke-linecap="butt"/><path d="M278.24233,109.4584c1.80312,2.44282 2.76455,5.67992 2.45759,9.1308c-0.30685,3.45081 -1.82458,6.46738 -4.03047,8.55373c-2.2045,2.08501 -5.09591,3.24106 -8.14903,2.96953c-3.05312,-0.27154 -5.69521,-1.91985 -7.4971,-4.36122c-1.80305,-2.44271 -2.76444,-5.67999 -2.45752,-9.13068c0.30696,-3.45088 1.82451,-6.46749 4.03047,-8.55373c2.20442,-2.08512 5.09595,-3.24125 8.14914,-2.9696c3.05312,0.27154 5.69503,1.91981 7.49691,4.36118z" data-paper-data="{&quot;origPos&quot;:null,&quot;index&quot;:null}" id="ID0.7768734325654805" fill="#525200" stroke="none" stroke-width="1.00499" stroke-linecap="butt"/><path d="M259.0846,115.61983c0.75904,0.69921 1.18573,1.60761 1.10103,2.56082c-0.08481,0.95328 -0.66518,1.77216 -1.53569,2.32637c-0.86905,0.55299 -2.02683,0.84024 -3.26773,0.72977c-1.24083,-0.11036 -2.3297,-0.59732 -3.08752,-1.29506c-0.75916,-0.69913 -1.18592,-1.60765 -1.10104,-2.56082c0.08481,-0.95328 0.66518,-1.77217 1.53569,-2.32637c0.86905,-0.55299 2.02672,-0.84017 3.26767,-0.72988c1.2409,0.11047 2.32977,0.59744 3.08759,1.29518z" data-paper-data="{&quot;origPos&quot;:null,&quot;index&quot;:null}" id="ID0.8043623631820083" fill="#666600" stroke="none" stroke-width="1.00499" stroke-linecap="butt"/><path d="M252.50497,112.25997c0.72695,0.80062 1.12695,1.85337 1.02796,2.96691c-0.09899,1.11353 -0.67858,2.07917 -1.5355,2.73895c-0.85692,0.66057 -1.99021,1.01529 -3.19668,0.90799c-1.20647,-0.10731 -2.25922,-0.65647 -2.98613,-1.45805c-0.72707,-0.80055 -1.12707,-1.8533 -1.02808,-2.96684c0.09907,-1.11341 0.67866,-2.07905 1.53558,-2.73883c0.85692,-0.66057 1.99014,-1.01541 3.19661,-0.9081c1.20647,0.10731 2.25928,0.65658 2.98625,1.45798z" data-paper-data="{&quot;origPos&quot;:null,&quot;index&quot;:null}" id="ID0.4881145376712084" fill="#525200" stroke="none" stroke-width="0.70785" stroke-linecap="butt"/><path d="M220.62176,104.09118c2.12332,-1.51781 4.73843,-2.59225 7.60069,-2.33774c2.86222,0.2547 5.35432,1.62813 7.06877,3.64241c1.71427,2.01422 2.64937,4.66913 2.39901,7.48414c-0.25032,2.81482 -1.63943,5.26301 -3.68231,6.94313c-2.0429,1.68012 -5.55949,0.50605 -7.60064,2.33756c-8.11503,7.27486 -14.80299,22.30148 -21.76784,25.26763c-3.84964,1.04831 -1.06898,-11.74764 0.13891,-17.23887c1.32811,-6.0126 3.48961,-11.94048 6.42273,-17.34333c2.46633,-3.50815 6.10944,-6.40605 9.42069,-8.75494z" data-paper-data="{&quot;origPos&quot;:null,&quot;index&quot;:null}" id="ID0.16118840454146266" fill="#666600" stroke="none" stroke-width="1.00499" stroke-linecap="round"/><path d="M242.94269,110.60707c1.65213,2.0088 2.54846,4.66019 2.29802,7.47509c-0.25025,2.81494 -1.60047,5.26657 -3.58122,6.95212c-1.97935,1.68578 -4.58903,2.60553 -7.35575,2.35946c-2.76672,-0.24607 -5.17317,-1.61195 -6.82395,-3.62062c-1.65206,-2.00869 -2.54846,-4.6602 -2.29802,-7.47509c0.25032,-2.81482 1.60066,-5.26653 3.58122,-6.95212c1.97935,-1.68578 4.58903,-2.60553 7.35582,-2.35935c2.76683,0.24599 5.17317,1.61195 6.82388,3.62051z" data-paper-data="{&quot;origPos&quot;:null,&quot;index&quot;:null}" id="ID0.22436008881777525" fill="#666600" stroke="none" stroke-width="1.00499" stroke-linecap="butt"/><path d="M318.44812,83.09981c2.06599,2.26028 3.20372,5.23067 2.92447,8.37127c-0.27937,3.14067 -1.92355,5.86374 -4.35597,7.72382c-2.43121,1.86155 -5.64945,2.8605 -9.07566,2.55576c-3.42628,-0.30485 -6.41767,-1.85602 -8.48214,-4.11741c-2.06599,-2.26028 -3.20373,-5.23067 -2.92435,-8.37134c0.27937,-3.14067 1.92344,-5.86367 4.35586,-7.72375c2.43125,-1.86173 5.64945,-2.8605 9.07566,-2.55576c3.42633,0.30466 6.41772,1.85584 8.48214,4.11741z" data-paper-data="{&quot;origPos&quot;:null,&quot;index&quot;:null}" id="ID0.2688980521634221" fill="#525200" stroke="none" stroke-width="1.02694" stroke-linecap="butt"/><path d="M239.30729,98.30001c2.06599,2.26028 3.20373,5.23067 2.92447,8.37127c-0.27937,3.14067 -1.92356,5.86374 -4.35598,7.72382c-2.43121,1.86155 -5.64945,2.8605 -9.07566,2.55576c-3.42628,-0.30485 -6.41768,-1.85602 -8.48214,-4.11741c-2.06599,-2.26028 -3.20372,-5.23067 -2.92435,-8.37134c0.27937,-3.14067 1.92343,-5.86367 4.35586,-7.72375c2.43125,-1.86173 5.64945,-2.8605 9.07566,-2.55576c3.42633,0.30466 6.41772,1.85584 8.48214,4.11741z" data-paper-data="{&quot;origPos&quot;:null,&quot;index&quot;:null}" id="ID0.2688980521634221" fill="#525200" stroke="none" stroke-width="1.02694" stroke-linecap="butt"/><path d="M246.6069,89.49172c0.56348,0.61645 0.87371,1.42647 0.79749,2.28316c-0.07617,0.8565 -0.5245,1.59907 -1.18794,2.1064c-0.66303,0.50774 -1.54073,0.78014 -2.47521,0.69705c-0.93448,-0.08309 -1.75018,-0.50614 -2.31327,-1.12299c-0.56341,-0.61634 -0.87371,-1.42647 -0.79761,-2.28309c0.07617,-0.8565 0.52462,-1.59914 1.18806,-2.10647c0.66303,-0.50774 1.54073,-0.78014 2.47509,-0.69698c0.93448,0.08309 1.7503,0.50607 2.31338,1.12292z" data-paper-data="{&quot;origPos&quot;:null,&quot;index&quot;:null}" id="ID0.2688980521634221" fill="#525200" stroke="none" stroke-width="0.28008" stroke-linecap="butt"/></g></g></g></svg>