<svg version="1.1" xmlns="http://www.w3.org/2000/svg" xmlns:xlink="http://www.w3.org/1999/xlink" width="298.57237" height="398.78202" viewBox="0,0,298.57237,398.78202"><g transform="translate(-74.89129,1.6127)"><g data-paper-data="{&quot;isPaintingLayer&quot;:true}" fill-rule="nonzero" stroke-linejoin="miter" stroke-miterlimit="10" stroke-dasharray="" stroke-dashoffset="0" style="mix-blend-mode: normal"><g stroke="#000000" stroke-width="5" stroke-linecap="round"><path d="M354.82563,181.63708c2.81126,0.48879 5.52414,0.47524 7.73761,0.66425c1.89502,0.16121 3.79705,1.07771 5.20114,2.36078c1.34918,1.23287 2.08138,3.0698 2.6487,4.80731c0.54751,1.67891 1.10277,3.56114 0.63854,5.26463c-0.9404,3.44992 -2.53497,6.81088 -4.70575,9.65242c-1.20569,1.57779 -3.2733,2.29319 -5.06778,3.14331c-1.59438,0.75539 -3.29188,1.37654 -5.03595,1.64358c-1.64569,0.25221 -4.16903,1.13484 -4.99894,-0.106c-0.86671,-1.29567 1.158,-3.28717 1.60573,-4.9671c1.4527,-5.44441 3.23174,-10.84893 4.09904,-16.41679c0.21644,-1.39169 -1.90643,-3.07013 -0.91501,-4.02025z" data-paper-data="{&quot;origPos&quot;:null,&quot;index&quot;:null}" fill="#e1ba87"/><path d="M257.6599,153.86716c3.08372,-1.27242 6.39144,1.81507 9.60599,2.9538c5.9677,2.24286 11.79096,5.08192 17.93562,7.18087c6.52552,2.21839 13.55005,4.04566 19.8008,5.51612c7.92614,1.90367 16.02197,3.17751 24.0181,4.83512c7.83911,1.64238 17.64078,2.91469 25.88012,5.71995c2.08567,0.7167 3.34106,1.58964 2.83916,3.63177c-2.00794,8.17039 -2.33347,18.27995 -9.14785,22.63987c-6.76434,4.71886 -16.52594,1.23592 -24.44574,-0.17788c-8.48578,-1.52059 -16.72107,-4.51369 -24.70089,-7.77765c-8.83063,-3.60766 -18.05661,-7.3092 -26.33262,-12.33941c-6.05949,-3.68228 -11.22672,-8.24472 -15.67253,-13.3557c-2.58113,-3.06868 -5.15919,-6.91307 -4.98752,-10.69464c0.15662,-3.19483 1.99304,-6.76876 5.20734,-8.13219z" data-paper-data="{&quot;origPos&quot;:null,&quot;index&quot;:null}" fill="#cc7700"/></g><path d="M167.29066,373.35034l50.24634,-124.22281l39.86255,16.12383c0,0 -18.88528,42.51795 -28.8394,71.28496c-4.99667,14.44018 -9.47018,39.42807 -9.47018,39.42807l-1.73936,17.63447z" data-paper-data="{&quot;index&quot;:null}" fill="#353535" stroke="#000000" stroke-width="5" stroke-linecap="butt"/><path d="M78.21731,309.92897l121.27059,-57.00391l18.2923,38.9152c0,0 -42.74553,18.36433 -69.59499,32.70771c-13.47762,7.19996 -33.73811,22.49439 -33.73811,22.49439l-13.25807,11.75686z" data-paper-data="{&quot;index&quot;:null}" fill="#616161" stroke="#000000" stroke-width="5" stroke-linecap="butt"/><path d="M263.26539,287.28081c-1.19758,3.25914 0.89287,1.11599 -5.58175,0.30665c-25.89721,-3.2392 -51.37516,-5.90065 -76.89561,-9.65995c-6.38808,-0.9446 -7.07284,7.07358 -6.38698,-1.30628c2.74155,-33.52069 8.59619,-67.54529 15.19424,-100.89294c2.6104,-13.25399 6.38709,-25.6993 12.14111,-37.27739c1.48552,-3.14436 3.39155,-4.34918 8.16396,-4.01371c19.08862,1.34176 38.24777,3.55812 57.05159,7.16706c4.70123,0.90202 10.29389,1.82431 11.34551,5.96064c2.88651,11.35232 0.07673,23.48975 -0.88985,35.16331c-1.66606,20.01744 -4.60628,41.77766 -7.60455,62.53985c-1.98845,13.79876 -2.87341,28.29652 -6.53764,42.01275z" data-paper-data="{&quot;index&quot;:null}" fill="#ff9400" stroke="#000000" stroke-width="5" stroke-linecap="round"/><path d="M221.3336,138.89707c1.58802,2.81892 -0.77305,6.55476 -1.58101,9.37606c-0.68082,2.40288 -1.5723,5.10282 -3.28025,6.71248c-1.70696,1.60979 -3.8936,2.46491 -6.15186,2.18122c-2.25825,-0.28369 -4.16543,-1.65309 -5.42118,-3.63507c-1.25675,-1.98211 -1.62898,-4.79544 -1.51803,-7.31526c0.11576,-2.68652 -0.06602,-6.19756 1.95246,-8.32153c1.82647,-1.50206 5.00867,-0.63868 7.47965,-0.57217c2.87186,0.07656 6.90951,-0.65487 8.52022,1.57428z" data-paper-data="{&quot;index&quot;:null}" fill="#ff9400" stroke="none" stroke-width="1" stroke-linecap="round"/><path d="M177.3178,273.46013c0,0 2.2427,-32.35974 7.50409,-60.53675c5.26139,-28.17702 17.13588,-71.42108 17.13588,-71.42108" data-paper-data="{&quot;index&quot;:null}" fill="none" stroke="#cc7700" stroke-width="5" stroke-linecap="round"/><g data-paper-data="{&quot;index&quot;:null}"><path d="M292.87096,45.36338c8.99136,11.57499 13.57242,26.57498 11.60366,42.2468c-1.96876,15.67182 -10.11764,29.07262 -21.69264,38.06398c-11.57499,8.99136 -26.57498,13.57242 -42.2468,11.60366c-15.67182,-1.96876 -29.07262,-10.11764 -38.06398,-21.69264c-8.99136,-11.57499 -13.57242,-26.57498 -11.60366,-42.2468c1.96876,-15.67182 10.11764,-29.07262 21.69264,-38.06398c11.57499,-8.99136 26.57498,-13.57242 42.2468,-11.60366c15.67182,1.96876 29.07262,10.11764 38.06398,21.69264z" data-paper-data="{&quot;origPos&quot;:null}" fill="#ffd499" stroke="#000000" stroke-width="6" stroke-linecap="round"/><path d="M217.77045,60.79789c13.53982,3.33568 26.5774,0.64879 39.52341,3.2477c15.13037,3.03761 30.44537,7.18891 44.67527,13.42321c3.55114,1.5608 -4.03844,2.4064 -6.20374,3.2521c-2.6449,0.98098 -6.38028,2.71592 -9.58295,2.07169c-7.71512,-1.55679 -15.10387,-6.81073 -23.09613,-8.69663c-3.06869,-0.49132 0.83803,2.74789 -2.82328,2.41694c-14.64608,-1.32489 -29.6565,-8.62277 -44.74131,-6.88042c-5.46321,0.75896 -8.65966,7.95164 -10.27222,13.57549c-1.9428,6.93694 -0.40182,14.85577 1.56816,21.61402c2.08955,7.16231 11.59463,19.58998 10.62385,19.72806c-0.97078,0.13808 -14.74472,-10.33545 -18.12893,-18.15122c-4.91418,-11.03256 -6.25876,-23.86019 -5.59062,-35.72545c0.27133,-4.75123 4.65865,-8.32222 7.91528,-11.90222c2.37352,-2.60749 5.75396,-6.03386 8.90221,-5.63836c3.14826,0.39549 3.71042,6.79951 7.23098,7.66508z" data-paper-data="{&quot;origPos&quot;:null}" fill="#e1ba87" stroke="none" stroke-width="1" stroke-linecap="round"/><path d="M189.47272,72.40726c-3.2263,-7.60444 -0.10481,-18.5729 2.18747,-27.44134c2.18137,-8.42682 5.61017,-16.4742 10.4953,-23.3741c1.3723,-1.78588 1.94017,4.62087 4.1533,3.0414c8.86606,-6.33732 14.7167,-17.32072 23.51856,-22.74592c2.23695,-1.37591 -1.88179,6.75613 0.61579,7.13237c9.97037,1.47929 20.51093,-3.90689 30.2347,-1.99698c12.16447,2.39391 24.45919,5.80497 34.53513,13.91311c11.57214,9.37955 20.618,22.27765 26.73846,35.86248c1.52961,3.39614 -8.16686,-1.55508 -8.99338,1.38986c-2.00805,7.14342 6.46929,19.76953 1.22662,22.32701c-6.29252,3.01216 -16.2987,-10.03984 -25.48191,-11.76795c-2.33059,-0.43791 0.96827,7.58383 -1.86471,6.82076c-11.15346,-2.81215 -19.86659,-12.61463 -31.09234,-15.24437c-2.807,-0.657 0.93193,7.37569 -1.71015,7.59608c-8.01969,0.9639 -15.8435,-2.95283 -23.84275,-4.75898c-4.59101,-1.0333 -8.76231,-4.25233 -13.64153,-3.72943c-5.60999,0.6357 -9.65005,5.07677 -15.29183,7.40168c-3.9812,1.70204 -10.21427,8.90228 -11.78672,5.57432z" data-paper-data="{&quot;origPos&quot;:null}" fill="#8a541e" stroke="#000000" stroke-width="7" stroke-linecap="round"/><path d="M192.20499,66.70335c0,0 2.59085,-15.36086 4.63433,-22.85056c1.42601,-5.22198 2.79222,-10.61777 5.68391,-15.15975c1.07674,-1.2062 1.82002,1.30907 2.97661,0.37394c5.66803,-3.86566 10.32973,-8.65797 15.26439,-13.20032c1.83973,-1.67979 2.67914,-5.02424 4.99589,-5.67152c1.42584,-0.30263 0.28075,2.32211 1.14553,2.91552c1.68829,0.92969 1.68738,1.3942 4.12337,1.27389c9.74806,-0.48172 19.1032,-4.20569 28.59183,-2.95927c9.98846,1.31123 19.53839,5.14246 28.24286,9.84711c6.86862,3.91467 12.39459,9.81244 17.69638,15.57724c4.11495,4.47782 7.29136,10.12076 10.13023,15.6346c0.71087,1.37734 -0.9904,0.97616 -1.67527,1.30133c-1.80791,1.38646 -5.49692,1.52473 -5.76996,3.81052c-0.73797,6.18727 2.99661,18.26595 2.99661,18.26595" data-paper-data="{&quot;origPos&quot;:null}" fill="none" stroke="#663b00" stroke-width="4" stroke-linecap="round"/><path d="M278.26894,85.35821c0.6871,0.88454 1.03692,2.03109 0.88648,3.22868c-0.15045,1.19759 -0.77298,2.22198 -1.65752,2.90908c-0.88454,0.6871 -2.03109,1.03692 -3.22868,0.88648c-1.19759,-0.15045 -2.22198,-0.77298 -2.90908,-1.65752c-0.6871,-0.88454 -1.03692,-2.03109 -0.88648,-3.22868c0.15045,-1.19759 0.77298,-2.22198 1.65752,-2.90908c0.88454,-0.6871 2.03109,-1.03692 3.22868,-0.88648c1.19759,0.15045 2.22198,0.77298 2.90908,1.65752z" data-paper-data="{&quot;origPos&quot;:null}" fill="#000000" stroke="none" stroke-width="1" stroke-linecap="butt"/><path d="M237.84247,81.03557c0.6871,0.88454 1.03692,2.03109 0.88648,3.22868c-0.15045,1.19759 -0.77298,2.22198 -1.65752,2.90908c-0.88454,0.6871 -2.03109,1.03692 -3.22868,0.88648c-1.19759,-0.15045 -2.22198,-0.77298 -2.90908,-1.65752c-0.6871,-0.88454 -1.03692,-2.03109 -0.88648,-3.22868c0.15045,-1.19759 0.77298,-2.22198 1.65752,-2.90908c0.88454,-0.6871 2.03109,-1.03692 3.22868,-0.88648c1.19759,0.15045 2.22198,0.77298 2.90908,1.65752z" data-paper-data="{&quot;origPos&quot;:null}" fill="#000000" stroke="none" stroke-width="1" stroke-linecap="butt"/></g><path d="M212.89063,109.84581c0,0 3.1197,-12.52101 9.55923,-13.91702c4.12289,-0.8938 26.35132,-0.81976 40.60498,1.73573c8.0091,1.43591 12.35316,5.92496 12.35316,5.92496l-1.15544,13.20899z" fill="#ffffff" stroke="#000000" stroke-width="3" stroke-linecap="round"/><path d="M230.87861,105.05052l1.18412,-9.42591" fill="none" stroke="#000000" stroke-width="3" stroke-linecap="round"/><path d="M242.2328,96.90221l-0.74787,5.9532" fill="none" stroke="#000000" stroke-width="3" stroke-linecap="round"/><path d="M224.72586,75.80555c0,0 25.05215,1.9291 35.84647,3.5132c8.55524,1.25551 21.32852,4.67722 21.32852,4.67722c0,0 -16.00325,6.46465 -20.44325,8.25823c-2.1454,0.86665 -4.08753,-3.52898 -4.08753,-3.52898c0,0 -3.03064,4.10864 -5.15344,2.888c-5.26565,-3.02784 -27.49077,-15.80767 -27.49077,-15.80767z" fill="#ffd499" stroke="none" stroke-width="0" stroke-linecap="round"/><g data-paper-data="{&quot;index&quot;:null}" stroke-width="5" stroke-linecap="round"><path d="M203.50211,136.24942c-0.62852,-3.73284 1.46476,-7.86124 3.65511,-11.22008c3.79387,-5.61186 8.37028,-10.76675 13.93902,-15.15599c7.60568,-5.9958 16.31524,-10.7878 24.64381,-15.43876c7.52558,-4.20672 15.33758,-8.17547 23.57666,-10.7129c7.69014,-2.36283 16.95789,-7.00276 24.24406,-3.13814c7.29246,3.50223 8.84036,13.49791 11.82335,21.36489c0.74558,1.96627 -0.39483,2.98486 -2.37821,3.94893c-7.83889,3.78277 -17.4142,6.23325 -24.99655,8.81319c-7.7364,2.61416 -15.6183,4.85935 -23.25548,7.70927c-6.02654,2.21695 -12.77797,4.88175 -18.98667,7.87441c-5.84508,2.82789 -11.28147,6.35151 -16.93354,9.30083c-3.05284,1.51982 -5.96216,4.98532 -9.17737,4.09585c-3.35581,-0.96402 -5.61167,-4.28909 -6.15418,-7.4415z" data-paper-data="{&quot;origPos&quot;:null,&quot;index&quot;:null}" fill="#ff9400" stroke="#000000"/><path d="M208.11964,135.87755c0,0 3.90176,-10.83198 7.89767,-14.31212c10.78505,-10.22296 23.12283,-18.74617 35.61857,-26.03012c6.6247,-3.8575 14.56181,-5.83761 21.54847,-8.09155c6.03812,-1.95319 18.50686,-4.55481 18.50686,-4.55481" data-paper-data="{&quot;origPos&quot;:null,&quot;index&quot;:null}" fill="none" stroke="#cc7700"/><path d="M305.89148,101.09546c-1.22721,-0.61613 0.30732,-2.84523 -0.30945,-4.11147c-2.46835,-5.06562 -5.75991,-9.70663 -8.75147,-14.48187c-0.92254,-1.47356 -3.44388,-2.78058 -2.99713,-4.27402c0.42768,-1.43023 3.09901,-1.3297 4.74602,-1.57332c1.74537,-0.25832 3.55056,-0.16459 5.29668,0.08779c1.9652,0.28405 4.1518,0.3588 5.76868,1.51159c2.91125,2.07641 5.42486,4.81877 7.33939,7.83874c0.94528,1.49131 0.96892,3.45354 0.94008,5.21932c-0.03052,1.82744 -0.18936,3.79853 -1.11566,5.37404c-0.96403,1.63964 -2.51181,3.07561 -4.27533,3.78769c-2.0597,0.8324 -4.65628,1.61837 -7.19899,2.91325z" data-paper-data="{&quot;origPos&quot;:null,&quot;index&quot;:null}" fill="#ffd499" stroke="#000000"/></g></g></g></svg>