<svg version="1.1" xmlns="http://www.w3.org/2000/svg" xmlns:xlink="http://www.w3.org/1999/xlink" width="142" height="105" viewBox="0,0,142,105"><g transform="translate(-48.25001,-109.04043)"><g data-paper-data="{&quot;isPaintingLayer&quot;:true}" fill="#ffa566" fill-rule="nonzero" stroke="none" stroke-width="0.5" stroke-linecap="butt" stroke-linejoin="miter" stroke-miterlimit="10" stroke-dasharray="" stroke-dashoffset="0" style="mix-blend-mode: normal"><path d="M111.25001,111.54043c0,-1.38071 1.11929,-2.5 2.5,-2.5c1.38071,0 2.5,1.11929 2.5,2.5c0,1.38071 -1.11929,2.5 -2.5,2.5c-1.38071,0 -2.5,-1.11929 -2.5,-2.5z"/><path d="M113.75972,127.49188c-2.45145,-0.49029 -1.96116,-2.94174 -1.96116,-2.94174l0.58677,-2.82105c0.54287,-1.10223 1.08574,-2.20446 1.62862,-3.30669c0,0 1.11803,-2.23607 3.3541,-1.11803c2.23607,1.11803 1.11803,3.3541 1.11803,3.3541c-0.45713,0.89777 -0.91426,1.79554 -1.37138,2.69331l-0.41323,2.17895c0,0 -0.49029,2.45145 -2.94174,1.96116z"/><path d="M50.75001,214.04043c-2.5,0 -2.5,-2.5 -2.5,-2.5v-1c0.01034,-3.28382 0.47313,-5.871 1.67881,-8.92848c0,0 0.92848,-2.32119 3.24967,-1.39272c2.32119,0.92848 1.39272,3.24967 1.39272,3.24967c-1.00696,2.47442 -1.33109,4.40482 -1.32119,7.07152v1c0,0 0,2.5 -2.5,2.5z"/><path d="M131.25001,210.04043c0,-1.38071 1.11929,-2.5 2.5,-2.5c1.38071,0 2.5,1.11929 2.5,2.5c0,1.38071 -1.11929,2.5 -2.5,2.5c-1.38071,0 -2.5,-1.11929 -2.5,-2.5z"/><path d="M157.25001,140.54043c2.5,0 2.5,2.5 2.5,2.5l-0.04855,2.49029c-0.3041,1.47983 -0.45961,2.99898 -0.45145,4.50971c0,0 0,2.5 -2.5,2.5c-2.5,0 -2.5,-2.5 -2.5,-2.5c0.00815,-1.83919 0.1957,-3.68525 0.54855,-5.49029l-0.04855,-1.50971c0,0 0,-2.5 2.5,-2.5z"/><path d="M185.25001,188.04043c0,-1.38071 1.11929,-2.5 2.5,-2.5c1.38071,0 2.5,1.11929 2.5,2.5c0,1.38071 -1.11929,2.5 -2.5,2.5c-1.38071,0 -2.5,-1.11929 -2.5,-2.5z"/></g></g></svg>