<svg version="1.1" xmlns="http://www.w3.org/2000/svg" xmlns:xlink="http://www.w3.org/1999/xlink" width="559.70342" height="123.77734" viewBox="0,0,559.70342,123.77734"><defs><radialGradient cx="974.06658" cy="321.72662" r="39.15725" gradientUnits="userSpaceOnUse" id="color-1"><stop offset="0" stop-color="#000000"/><stop offset="1" stop-color="#000000"/></radialGradient><radialGradient cx="1089.8547" cy="298.19305" r="25.99862" gradientUnits="userSpaceOnUse" id="color-2"><stop offset="0" stop-color="#000000"/><stop offset="1" stop-color="#000000"/></radialGradient><radialGradient cx="669.61472" cy="298.83318" r="25.99862" gradientUnits="userSpaceOnUse" id="color-3"><stop offset="0" stop-color="#000000"/><stop offset="1" stop-color="#000000"/></radialGradient><radialGradient cx="794.96812" cy="341.29112" r="40.18085" gradientUnits="userSpaceOnUse" id="color-4"><stop offset="0" stop-color="#000000"/><stop offset="1" stop-color="#000000"/></radialGradient></defs><g transform="translate(-582.14934,-230.54551)"><g data-paper-data="{&quot;isPaintingLayer&quot;:true}" fill-rule="nonzero" stroke-linejoin="miter" stroke-miterlimit="10" stroke-dasharray="" stroke-dashoffset="0" style="mix-blend-mode: normal"><path d="M1004.18773,342.40774l-32.1393,0l-0.00023,-29.75274" id="ID0.43897221656516194" fill="none" stroke="url(#color-1)" stroke-width="2" stroke-linecap="round"/><g data-paper-data="{&quot;origRot&quot;:0}" id="ID0.9996707611717284" stroke-width="1"><path d="M718.26431,322.647c-21.38026,-1.15716 -11.24609,-8.02965 -37.73675,-9.61235c-28.19749,-1.6075 -66.63252,3.29501 -92.56118,2.01196c-14.05582,-0.697 3.22357,-4.13073 11.96754,-5.84138c12.55854,-2.45023 27.11279,-4.96735 48.37517,-6.21625c19.2353,-1.12943 50.7783,-2.43243 65.19029,-0.49474c27.93676,3.75672 36.70937,9.40692 37.88976,14.44651c0.55465,2.30768 -18.93423,6.45011 -33.12474,5.70626z" id="ID0.10925169289112091" fill="#f5291b" stroke="#bb270e" stroke-linecap="round"/><path d="M757.50569,337.62301c3.73907,5.02188 0.5325,10.75502 -23.55451,14.87198c-12.42627,2.12351 -45.02626,1.26469 -65.23251,0.40838c-22.33606,-0.947 -39.24535,-3.24625 -54.10701,-5.50662c-10.35213,-1.57841 -30.86137,-4.7505 -17.57977,-5.6368c24.50341,-1.63227 67.45691,2.70666 93.89734,0.72084c24.76943,-1.93766 8.00563,-8.62389 28.11397,-10.06834c13.36984,-0.93469 36.76438,2.91079 38.46253,5.21057z" id="ID0.10925169289112091" fill="#f5291b" stroke="#bb270e" stroke-linecap="round"/><path d="M1112.88574,326.57119c2.45552,5.02209 -19.9033,9.74199 -58.00969,13.31159c-38.12075,3.5697 -91.97464,5.98904 -152.50977,6.40822c-60.53514,0.41917 -116.38346,-1.24053 -157.72583,-4.25999c-41.32811,-3.01957 -68.13622,-7.39901 -70.59179,-12.42109c-2.45552,-5.02209 19.9033,-9.74199 58.00979,-13.31158c38.12067,-3.56971 91.97468,-5.98902 152.50981,-6.4082c60.53514,-0.41917 116.38346,1.24053 157.72596,4.25999c41.32811,3.01957 68.13609,7.39901 70.59167,12.42109z" id="ID0.44616582430899143" fill="#e5e5e5" stroke="#b2b2b2" stroke-linecap="round"/><path d="M1141.21814,327.32228c0.77295,2.87368 -12.20957,5.73318 -26.23495,8.04598c-16.02091,2.66855 -38.18913,4.78129 -61.47211,6.49486c-14.08934,1.03616 -32.28084,2.17423 -48.09698,1.52979c-11.02783,-0.4297 -10.90745,-1.97603 -11.9801,-3.93469c-4.27607,-7.8347 -5.305,-15.78593 -2.90624,-23.57283c0.60082,-1.94459 -0.65863,-4.25584 10.96978,-4.00812c40.01185,0.85644 79.43626,3.39066 109.61654,6.76337c19.23793,2.08931 29.23173,5.48724 30.10409,8.68163z" id="ID0.34605008317157626" fill="#f5291b" stroke="#ae1f0a" stroke-linecap="round"/><path d="M939.9947,328.31348c1.22961,2.51491 -6.23193,4.85406 -19.29937,6.59947c-13.05232,1.74701 -31.71024,2.90027 -52.84322,3.04661c-21.13285,0.14634 -40.78896,-0.74162 -55.45581,-2.2967c-14.68021,-1.55328 -24.3713,-3.77366 -25.60091,-6.28857c-1.22961,-2.51491 6.23193,-4.85406 19.29937,-6.59947c13.05232,-1.74701 31.71029,-2.90029 52.84322,-3.04661c21.13285,-0.14634 40.78909,0.74163 55.45591,2.2967c14.68021,1.55328 24.37122,3.77365 25.60091,6.28857z" id="ID0.569763976149261" fill="#bbddff" stroke="#b2b2b2" stroke-linecap="butt"/><path d="M914.86871,325.70883c0.39648,0.81104 -2.0078,1.56454 -6.22928,2.12718c-4.20637,0.56424 -10.21647,0.93582 -17.03171,0.98301c-6.81524,0.0472 -13.14685,-0.23893 -17.87488,-0.7413c-4.74136,-0.50058 -7.86369,-1.2158 -8.26027,-2.02684c-0.39648,-0.81104 2.00768,-1.56454 6.22919,-2.12718c4.20637,-0.56424 10.21647,-0.93582 17.03171,-0.98301c6.81524,-0.0472 13.14692,0.23894 17.87484,0.74131c4.74136,0.50058 7.86369,1.2158 8.26027,2.02684z" id="ID0.17324856109917164" fill="#d9e9ff" stroke="none" stroke-linecap="butt"/></g><path d="M956.49285,278.10399l71.37595,9.63596l105.98905,15.83016" data-paper-data="{&quot;origRot&quot;:0}" id="ID0.16875446680933237" fill="none" stroke="url(#color-2)" stroke-width="2" stroke-linecap="round"/><path d="M793.45342,278.43945l178.97935,-0.00002l0.00029,34.01012l-178.97935,0.00002z" id="ID0.7297499743290246" fill="#0251ff" stroke="#0344b1" stroke-width="2" stroke-linecap="butt"/><g id="ID0.9996707611717284" stroke-width="1"><path d="M853.93512,293.18666c-6.32377,0.05166 -11.32628,-1.73479 -19.32216,-1.70614c-8.42785,0.04882 -12.2685,1.79961 -19.80791,1.89082c-4.08865,0.0491 -3.68763,-1.02998 -3.45567,-1.56963c0.34038,-0.77349 1.0825,-1.59333 4.7845,-2.21447c3.34951,-0.56182 9.43411,-1.35276 14.94482,-1.11272c10.68285,0.46545 18.85676,1.67305 24.5698,2.85158c2.61941,0.53944 2.45777,1.82052 -1.71337,1.86055z" id="ID0.10925169289112091" fill="#f5291b" stroke="#bb270e" stroke-linecap="round"/><path d="M879.39666,296.14333c6.30146,1.13527 11.72054,2.54544 10.43971,3.89067c-0.66118,0.6939 -9.32724,0.98769 -15.04795,1.09286c-6.32415,0.11616 -12.81756,-0.1716 -18.78289,-0.4814c-4.15947,-0.21672 -12.44856,-0.65675 -10.25055,-1.06996c4.05825,-0.76164 18.93417,-0.38721 23.07117,-1.26237c3.79218,-0.83821 -7.39594,-2.1698 -4.17875,-2.81975c2.16679,-0.42604 11.86689,0.12983 14.74927,0.64995z" id="ID0.10925169289112091" fill="#f5291b" stroke="#bb270e" stroke-linecap="round"/><path d="M951.86066,288.09374c5.99692,1.15491 5.7764,2.61691 0.57687,4.0462c-5.20283,1.42954 -15.38129,2.82615 -29.3023,3.84986c-13.921,1.02371 -28.97029,1.48228 -42.04128,1.39653c-13.06771,-0.08599 -24.15388,-0.71652 -30.15082,-1.87143c-5.99692,-1.15491 -5.7764,-2.61691 -0.57683,-4.0462c5.20279,-1.42954 15.38131,-2.82615 29.30232,-3.84986c13.921,-1.02371 28.97029,-1.48228 42.0413,-1.39654c13.06771,0.08599 24.15386,0.71652 30.15078,1.87143z" id="ID0.44616582430899143" fill="#e5e5e5" stroke="#b2b2b2" stroke-linecap="round"/><path d="M959.39731,287.83952c3.28139,0.6705 3.28155,1.54763 2.44473,2.31089c-0.9271,0.87819 -3.91294,1.71825 -7.59376,2.48057c-2.22824,0.46112 -5.3206,1.00906 -9.77054,1.09751c-3.08157,0.06634 -4.71997,-0.30265 -7.0861,-0.75132c-9.46123,-1.79491 -18.27709,-3.66707 -26.10198,-5.55254c-1.95365,-0.47088 -4.74427,-1.00041 -1.71627,-1.11913c10.42329,-0.40751 22.51579,-0.4077 33.31735,-0.06767c6.81999,0.20236 12.85585,0.85656 16.50659,1.60169z" id="ID0.34605008317157626" fill="#f5291b" stroke="#ae1f0a" stroke-linecap="round"/><path d="M912.68927,291.14692c3.00307,0.57834 3.75312,1.24764 2.53209,1.86156c-1.21572,0.61406 -4.40243,1.17273 -9.26229,1.53011c-4.85984,0.35738 -10.48402,0.44664 -15.64277,0.30133c-5.15999,-0.14468 -9.85457,-0.52391 -12.85764,-1.10225c-3.00307,-0.57834 -3.75312,-1.24764 -2.53209,-1.86156c1.21572,-0.61406 4.40243,-1.17274 9.26229,-1.53011c4.85984,-0.35738 10.48406,-0.44664 15.64281,-0.30133c5.15999,0.14468 9.85453,0.52391 12.85764,1.10225z" id="ID0.569763976149261" fill="#bbddff" stroke="#b2b2b2" stroke-linecap="butt"/><path d="M903.91572,290.91209c0.96844,0.18651 1.20989,0.40212 0.81412,0.60016c-0.39046,0.19819 -1.41688,0.37817 -2.98415,0.49342c-1.56725,0.11525 -3.37902,0.14398 -5.04318,0.09689c-1.66536,-0.04647 -3.17774,-0.16862 -4.14622,-0.35513c-0.96844,-0.18651 -1.20993,-0.40212 -0.81416,-0.60016c0.39046,-0.19819 1.41688,-0.37817 2.98415,-0.49342c1.56725,-0.11525 3.37906,-0.14398 5.04318,-0.09689c1.66536,0.04647 3.17774,0.16862 4.14622,0.35513z" id="ID0.17324856109917164" fill="#d9e9ff" stroke="none" stroke-linecap="butt"/><path d="M837.67016,294.7768c0.86085,0.1798 0.18825,0.43231 -0.34807,0.62606c-0.51387,0.18669 -1.37824,0.3672 -2.8994,0.47907c-1.52116,0.11186 -3.28327,0.13965 -4.8974,0.09428c-1.61413,-0.04536 -3.08567,-0.16402 -4.02563,-0.34504c-0.93996,-0.18102 -1.17348,-0.39072 -0.79229,-0.58281c0.38119,-0.19209 1.37824,-0.3672 2.89944,-0.47907c1.52116,-0.11186 3.27424,-0.13086 4.8974,-0.09429c1.83544,0.04154 4.10826,0.1121 5.16603,0.30179z" id="ID0.8451523161493242" fill="#f56d1b" stroke="#d55f18" stroke-linecap="round"/><path d="M840.36445,297.93734c0.86085,0.1798 0.18828,0.43231 -0.34805,0.62606c-0.51387,0.18669 -1.37824,0.3672 -2.8994,0.47907c-1.52116,0.11186 -3.28327,0.13965 -4.89744,0.09428c-1.61413,-0.04536 -3.08567,-0.16402 -4.02563,-0.34504c-0.93996,-0.18102 -1.17348,-0.39072 -0.79229,-0.58281c0.38119,-0.19209 1.37828,-0.3672 2.89944,-0.47907c1.52116,-0.11186 3.27424,-0.13086 4.8974,-0.09428c1.83544,0.04154 4.10824,0.1121 5.16599,0.30179z" id="ID0.8451523161493242" fill="#f56d1b" stroke="#d55f18" stroke-linecap="round"/><path d="M817.27035,296.83802c0.86085,0.1798 0.18825,0.43231 -0.34807,0.62606c-0.51387,0.18669 -1.37824,0.3672 -2.8994,0.47907c-1.52116,0.11186 -3.28327,0.13965 -4.89744,0.09428c-1.61413,-0.04536 -3.08563,-0.16402 -4.02563,-0.34504c-0.93996,-0.18102 -1.17348,-0.39072 -0.79233,-0.58281c0.38119,-0.19209 1.37824,-0.3672 2.89944,-0.47907c1.52116,-0.11186 3.27424,-0.13086 4.8974,-0.09428c1.83544,0.04154 4.10826,0.1121 5.16603,0.30179z" id="ID0.8451523161493242" fill="#f56d1b" stroke="#d55f18" stroke-linecap="round"/></g><path d="M628.2268,304.49669l98.32718,-16.51556l66.70119,-10.09916" data-paper-data="{&quot;origRot&quot;:0}" id="ID0.16875446680933237" fill="none" stroke="url(#color-3)" stroke-width="2" stroke-linecap="round"/><g id="ID0.4706640876829624" stroke-width="2"><path d="M881.98046,231.77453c56.54592,-0.00001 107.78794,2.73317 144.88868,7.14876c37.10457,4.41513 60.07171,10.51314 60.07177,17.24235c0.00006,6.72921 -22.96697,12.82721 -60.0715,17.24236c-37.10066,4.4156 -88.34259,7.14879 -144.88852,7.14879c-56.54595,0.00001 -107.78794,-2.73317 -144.88864,-7.14876c-37.10457,-4.41513 -60.07173,-10.51314 -60.07179,-17.24234c-0.00006,-6.72921 22.96701,-12.82722 60.0715,-17.24236c37.10066,-4.4156 88.34259,-7.14879 144.88852,-7.14879z" id="ID0.052302687894552946" fill="#ffffff" stroke="#cccccc" stroke-linecap="butt"/><path d="M680.09961,255.47861c-5.31548,0.29911 -7.18228,-1.2065 -6.73581,-1.94671c1.78593,-2.96129 2.69812,-6.0806 12.50924,-8.81745c10.65791,-2.78082 30.85366,-6.85746 57.7352,-8.70294c39.74878,-2.72585 86.47583,-3.84808 131.6364,-4.466c33.57113,-0.39302 68.5125,0.30414 100.26693,1.48865c35.60729,1.32834 70.21384,3.34741 100.07453,6.02334c23.30195,2.17802 44.09442,5.0161 56.19574,8.24488c3.84134,1.02374 -6.58565,2.79227 -16.35832,2.7483c-15.48076,-0.07146 -24.80693,-2.2165 -38.49021,-3.11473c-3.11772,-0.23361 0.8352,0.37331 3.4641,0.75578c10.51168,1.52943 28.24029,2.51469 33.29407,4.42017c2.39023,0.85014 -8.02906,1.91968 -15.97342,1.99252c-11.81265,0.10627 -21.4429,-1.18909 -32.71666,-1.67187c-39.70266,-1.66913 -78.0966,-4.19297 -120.28183,-4.7866c-56.99625,-0.80158 -115.73614,-0.1658 -172.24355,0.7329c-21.13109,0.33621 -40.74572,1.63341 -58.69749,3.04603c-13.3869,0.9958 -18.95251,3.22147 -33.67886,4.05374z" id="ID0.12275043269619346" fill="#0251ff" stroke="#0344b1" stroke-linecap="round"/></g><path d="M1024.90197,255.23932c4.44176,1.00542 7.18998,2.39377 7.18998,3.92594c0,1.53218 -2.7482,2.92052 -7.18998,3.92594c-4.44176,1.00542 -10.57709,1.62791 -17.34754,1.62791c-6.77041,0 -12.90578,-0.62249 -17.34754,-1.62791c-4.44176,-1.00542 -7.18998,-2.39377 -7.18998,-3.92594c0,-1.53218 2.7482,-2.92052 7.18998,-3.92594c4.44176,-1.00542 10.57711,-1.62791 17.34754,-1.62791c6.77041,0 12.90574,0.62249 17.34754,1.62791z" id="ID0.2136117359623313" fill="#000000" stroke="none" stroke-width="1" stroke-linecap="butt"/><path d="M919.46324,255.59861c4.44176,1.00542 7.18994,2.39377 7.18994,3.92594c0,1.53218 -2.7482,2.92052 -7.18994,3.92594c-4.44176,1.00542 -10.57711,1.62791 -17.34754,1.62791c-6.77041,0 -12.90574,-0.62249 -17.3475,-1.62791c-4.44176,-1.00542 -7.18994,-2.39377 -7.18994,-3.92594c0,-1.53218 2.7482,-2.92052 7.18994,-3.92594c4.44176,-1.00542 10.57709,-1.62791 17.3475,-1.62791c6.77041,0 12.90578,0.62249 17.34754,1.62791z" id="ID0.2136117359623313" fill="#000000" stroke="none" stroke-width="1" stroke-linecap="butt"/><path d="M825.40083,342.43064l-32.1393,0.00001l-0.00023,-29.75274" id="ID0.43897221656516194" fill="none" stroke="url(#color-4)" stroke-width="2" stroke-linecap="round"/><path d="M963.50885,271.84769c0,0 -20.08411,2.43089 -48.22644,0.6764c-21.30747,-1.32838 -20.98451,-3.91213 -20.98451,-3.91213" fill="none" stroke="#000000" stroke-width="2" stroke-linecap="round"/><path d="M1030.24799,252.43332l-66.73914,7.64808l-91.45736,-8.23639" fill="#ffffff" stroke="none" stroke-width="0" stroke-linecap="round"/></g></g></svg>