<svg version="1.1" xmlns="http://www.w3.org/2000/svg" xmlns:xlink="http://www.w3.org/1999/xlink" width="550.25806" height="424.70968" viewBox="0,0,550.25806,424.70968"><defs><linearGradient x1="34.66218" y1="73.10518" x2="74.27961" y2="73.10518" gradientUnits="userSpaceOnUse" id="color-1"><stop offset="0" stop-color="#8cfffb"/><stop offset="1" stop-color="#8cd0ff"/></linearGradient><linearGradient x1="34.66218" y1="73.10518" x2="74.27961" y2="73.10518" gradientUnits="userSpaceOnUse" id="color-2"><stop offset="0" stop-color="#ffa48c"/><stop offset="1" stop-color="#ff8ca2"/></linearGradient><linearGradient x1="34.66218" y1="73.10518" x2="74.27961" y2="73.10518" gradientUnits="userSpaceOnUse" id="color-3"><stop offset="0" stop-color="#b0ff8c"/><stop offset="1" stop-color="#8cffc9"/></linearGradient><linearGradient x1="34.66218" y1="73.10518" x2="74.27961" y2="73.10518" gradientUnits="userSpaceOnUse" id="color-4"><stop offset="0" stop-color="#8cfffb"/><stop offset="1" stop-color="#ff8ca2"/></linearGradient><linearGradient x1="18.35537" y1="73.10235" x2="90.58508" y2="73.10235" gradientTransform="translate(-102.70994,-183.76163) scale(5.59534,2.34951)" gradientUnits="userSpaceOnUse" id="color-5"><stop offset="0" stop-color="#2d6fc5"/><stop offset="1" stop-color="#c42d7b"/></linearGradient></defs><g transform="translate(35.12903,32.35484)"><g data-paper-data="{&quot;isPaintingLayer&quot;:true}" fill-rule="nonzero" stroke-linejoin="miter" stroke-miterlimit="10" stroke-dasharray="" stroke-dashoffset="0" style="mix-blend-mode: normal"><path d="M-34.12903,391.35484v-422.70968h548.25806v422.70968z" fill="#f5f5f5" stroke="#000000" stroke-width="2" stroke-linecap="butt"/><path d="M9.10301,261.9917v-253.23621h222.06868v253.23621z" fill="#f5f5f5" stroke="#8e8e8e" stroke-width="3.5" stroke-linecap="butt"/><text transform="translate(17.82641,48.94722) scale(0.33747,0.33747)" font-size="40" xml:space="preserve" fill="#8e8e8e" fill-rule="nonzero" stroke="none" stroke-width="1" stroke-linecap="butt" stroke-linejoin="miter" stroke-miterlimit="10" stroke-dasharray="" stroke-dashoffset="0" font-family="&quot;ヒラギノ角ゴ Pro W3&quot;, &quot;Hiragino Kaku Gothic Pro&quot;, Osaka, &quot;メイリオ&quot;, Meiryo, &quot;ＭＳ Ｐゴシック&quot;, &quot;MS PGothic&quot;" font-weight="normal" text-anchor="start" style="mix-blend-mode: normal"><tspan x="0" dy="0">Joined: 25th January 2018</tspan></text><g stroke="none" stroke-linecap="butt"><path d="M75.38528,91.27754c-10.03632,0 -18.17236,-8.13604 -18.17236,-18.17236c0,-10.03632 8.13604,-18.17236 18.17236,-18.17236c10.03632,0 18.17236,8.13604 18.17236,18.17236c0,10.03632 -8.13604,18.17236 -18.17236,18.17236z" data-paper-data="{&quot;index&quot;:null}" fill="#8cd0ff" stroke-width="0"/><path d="M15.38415,73.10518c0,-10.03632 8.13604,-18.17236 18.17236,-18.17236c10.03632,0 18.17236,8.13604 18.17236,18.17236c0,10.03632 -8.13604,18.17236 -18.17236,18.17236c-10.03632,0 -18.17236,-8.13604 -18.17236,-18.17236z" fill="#8cfffb" stroke-width="0"/><path d="M34.66218,91.20377v-36.19726h39.61743v36.19726z" fill="url(#color-1)" stroke-width="0"/><text transform="translate(17.88858,77.26674) scale(0.3607,0.3607)" font-size="40" xml:space="preserve" fill="#2d6fc5" fill-rule="nonzero" stroke="none" stroke-width="1" stroke-linecap="butt" stroke-linejoin="miter" stroke-miterlimit="10" stroke-dasharray="" stroke-dashoffset="0" font-family="&quot;ヒラギノ角ゴ Pro W3&quot;, &quot;Hiragino Kaku Gothic Pro&quot;, Osaka, &quot;メイリオ&quot;, Meiryo, &quot;ＭＳ Ｐゴシック&quot;, &quot;MS PGothic&quot;" font-weight="normal" text-anchor="start" style="mix-blend-mode: normal"><tspan x="0" dy="0">Game Dev</tspan></text></g><g stroke="none" stroke-linecap="butt"><path d="M75.38528,91.27754c-10.03632,0 -18.17236,-8.13604 -18.17236,-18.17236c0,-10.03632 8.13604,-18.17236 18.17236,-18.17236c10.03632,0 18.17236,8.13604 18.17236,18.17236c0,10.03632 -8.13604,18.17236 -18.17236,18.17236z" data-paper-data="{&quot;index&quot;:null}" fill="#ff8ca2" stroke-width="0"/><path d="M15.38415,73.10518c0,-10.03632 8.13604,-18.17236 18.17236,-18.17236c10.03632,0 18.17236,8.13604 18.17236,18.17236c0,10.03632 -8.13604,18.17236 -18.17236,18.17236c-10.03632,0 -18.17236,-8.13604 -18.17236,-18.17236z" fill="#ffa48c" stroke-width="0"/><path d="M34.66218,91.20377v-36.19726h39.61743v36.19726z" fill="url(#color-2)" stroke-width="0"/><text transform="translate(21.58212,77.43356) scale(0.3607,0.3607)" font-size="40" xml:space="preserve" fill="#c42d7b" fill-rule="nonzero" stroke="none" stroke-width="1" stroke-linecap="butt" stroke-linejoin="miter" stroke-miterlimit="10" stroke-dasharray="" stroke-dashoffset="0" font-family="&quot;ヒラギノ角ゴ Pro W3&quot;, &quot;Hiragino Kaku Gothic Pro&quot;, Osaka, &quot;メイリオ&quot;, Meiryo, &quot;ＭＳ Ｐゴシック&quot;, &quot;MS PGothic&quot;" font-weight="normal" text-anchor="start" style="mix-blend-mode: normal"><tspan x="0" dy="0">Animator</tspan></text></g><g stroke="none" stroke-linecap="butt"><path d="M75.38528,91.27754c-10.03632,0 -18.17236,-8.13604 -18.17236,-18.17236c0,-10.03632 8.13604,-18.17236 18.17236,-18.17236c10.03632,0 18.17236,8.13604 18.17236,18.17236c0,10.03632 -8.13604,18.17236 -18.17236,18.17236z" data-paper-data="{&quot;index&quot;:null}" fill="#8cffc9" stroke-width="0"/><path d="M15.38415,73.10518c0,-10.03632 8.13604,-18.17236 18.17236,-18.17236c10.03632,0 18.17236,8.13604 18.17236,18.17236c0,10.03632 -8.13604,18.17236 -18.17236,18.17236c-10.03632,0 -18.17236,-8.13604 -18.17236,-18.17236z" fill="#b0ff8c" stroke-width="0"/><path d="M34.66218,91.20377v-36.19726h39.61743v36.19726z" fill="url(#color-3)" stroke-width="0"/><text transform="translate(34.71165,77.43356) scale(0.3607,0.3607)" font-size="40" xml:space="preserve" fill="#2dc46b" fill-rule="nonzero" stroke="none" stroke-width="1" stroke-linecap="butt" stroke-linejoin="miter" stroke-miterlimit="10" stroke-dasharray="" stroke-dashoffset="0" font-family="&quot;ヒラギノ角ゴ Pro W3&quot;, &quot;Hiragino Kaku Gothic Pro&quot;, Osaka, &quot;メイリオ&quot;, Meiryo, &quot;ＭＳ Ｐゴシック&quot;, &quot;MS PGothic&quot;" font-weight="normal" text-anchor="start" style="mix-blend-mode: normal"><tspan x="0" dy="0">Artist</tspan></text></g><g stroke="none" stroke-linecap="butt"><path d="M75.38528,91.27754c-10.03632,0 -18.17236,-8.13604 -18.17236,-18.17236c0,-10.03632 8.13604,-18.17236 18.17236,-18.17236c10.03632,0 18.17236,8.13604 18.17236,18.17236c0,10.03632 -8.13604,18.17236 -18.17236,18.17236z" data-paper-data="{&quot;index&quot;:null}" fill="#ff8ca2" stroke-width="0"/><path d="M15.38415,73.10518c0,-10.03632 8.13604,-18.17236 18.17236,-18.17236c10.03632,0 18.17236,8.13604 18.17236,18.17236c0,10.03632 -8.13604,18.17236 -18.17236,18.17236c-10.03632,0 -18.17236,-8.13604 -18.17236,-18.17236z" fill="#8cfffb" stroke-width="0"/><path d="M34.66218,91.20377v-36.19726h39.61743v36.19726z" fill="url(#color-4)" stroke-width="0"/><text transform="translate(18.35632,78.21263) scale(0.17872,0.42562)" font-size="40" xml:space="preserve" fill="url(#color-5)" fill-rule="nonzero" stroke="none" stroke-width="1" stroke-linecap="butt" stroke-linejoin="miter" stroke-miterlimit="10" stroke-dasharray="" stroke-dashoffset="0" font-family="&quot;ヒラギノ角ゴ Pro W3&quot;, &quot;Hiragino Kaku Gothic Pro&quot;, Osaka, &quot;メイリオ&quot;, Meiryo, &quot;ＭＳ Ｐゴシック&quot;, &quot;MS PGothic&quot;" font-weight="normal" text-anchor="start" style="mix-blend-mode: normal"><tspan x="0" dy="0">Game Dev/Animator</tspan></text></g><text transform="translate(15.20276,106.15927) scale(0.2979,0.2979)" font-size="40" xml:space="preserve" fill="#8e8e8e" fill-rule="nonzero" stroke="none" stroke-width="1" stroke-linecap="butt" stroke-linejoin="miter" stroke-miterlimit="10" stroke-dasharray="" stroke-dashoffset="0" font-family="&quot;ヒラギノ角ゴ Pro W3&quot;, &quot;Hiragino Kaku Gothic Pro&quot;, Osaka, &quot;メイリオ&quot;, Meiryo, &quot;ＭＳ Ｐゴシック&quot;, &quot;MS PGothic&quot;" font-weight="normal" text-anchor="start" style="mix-blend-mode: normal"><tspan x="0" dy="0">Notable Projects:</tspan></text><text transform="translate(14.35734,128.78898) scale(0.31474,0.46622)" font-size="40" xml:space="preserve" fill="#8e8e8e" fill-rule="nonzero" stroke="none" stroke-width="1" stroke-linecap="butt" stroke-linejoin="miter" stroke-miterlimit="10" stroke-dasharray="" stroke-dashoffset="0" font-family="&quot;ヒラギノ角ゴ Pro W3&quot;, &quot;Hiragino Kaku Gothic Pro&quot;, Osaka, &quot;メイリオ&quot;, Meiryo, &quot;ＭＳ Ｐゴシック&quot;, &quot;MS PGothic&quot;" font-weight="normal" text-anchor="start" style="mix-blend-mode: normal"><tspan x="0" dy="0">PTBA Engine(Dec 2020)</tspan><tspan x="0" dy="46.150000000000006px">Penny dying simulator (Jan 2021)</tspan></text><text transform="translate(13.97295,178.99709) scale(0.27191,0.29708)" font-size="40" xml:space="preserve" fill="#8e8e8e" fill-rule="nonzero" stroke="none" stroke-width="1" stroke-linecap="butt" stroke-linejoin="miter" stroke-miterlimit="10" stroke-dasharray="" stroke-dashoffset="0" font-family="&quot;ヒラギノ角ゴ Pro W3&quot;, &quot;Hiragino Kaku Gothic Pro&quot;, Osaka, &quot;メイリオ&quot;, Meiryo, &quot;ＭＳ Ｐゴシック&quot;, &quot;MS PGothic&quot;" font-weight="normal" text-anchor="start" style="mix-blend-mode: normal"><tspan x="0" dy="0">papathebeargames is a late 2.0 male</tspan><tspan x="0" dy="48px">scratcher. He makes content usually</tspan><tspan x="0" dy="48px">based on inside jokes or out of interest.</tspan><tspan x="0" dy="48px">He's also made a few great games and</tspan><tspan x="0" dy="48px">engines.</tspan></text><text transform="translate(7.69514,344.82009) scale(1.4788,1.4788)" font-size="40" xml:space="preserve" fill="#8e8e8e" fill-rule="nonzero" stroke="none" stroke-width="1" stroke-linecap="butt" stroke-linejoin="miter" stroke-miterlimit="10" stroke-dasharray="" stroke-dashoffset="0" font-family="&quot;ヒラギノ角ゴ Pro W3&quot;, &quot;Hiragino Kaku Gothic Pro&quot;, Osaka, &quot;メイリオ&quot;, Meiryo, &quot;ＭＳ Ｐゴシック&quot;, &quot;MS PGothic&quot;" font-weight="normal" text-anchor="start" style="mix-blend-mode: normal"><tspan x="0" dy="0">15</tspan></text><text transform="translate(15.43462,35.42792) scale(0.13422,0.13422)" font-size="40" xml:space="preserve" fill="#8e8e8e" fill-rule="nonzero" stroke="none" stroke-width="1" stroke-linecap="butt" stroke-linejoin="miter" stroke-miterlimit="10" stroke-dasharray="" stroke-dashoffset="0" font-family="&quot;ヒラギノ角ゴ Pro W3&quot;, &quot;Hiragino Kaku Gothic Pro&quot;, Osaka, &quot;メイリオ&quot;, Meiryo, &quot;ＭＳ Ｐゴシック&quot;, &quot;MS PGothic&quot;" font-weight="normal" text-anchor="start" style="mix-blend-mode: normal"><tspan x="0" dy="0">@papathebeargames</tspan></text><text transform="translate(16.61026,29.32806) scale(0.50346,0.50346)" font-size="40" xml:space="preserve" fill="#8e8e8e" fill-rule="nonzero" stroke="none" stroke-width="1" stroke-linecap="butt" stroke-linejoin="miter" stroke-miterlimit="10" stroke-dasharray="" stroke-dashoffset="0" font-family="&quot;ヒラギノ角ゴ Pro W3&quot;, &quot;Hiragino Kaku Gothic Pro&quot;, Osaka, &quot;メイリオ&quot;, Meiryo, &quot;ＭＳ Ｐゴシック&quot;, &quot;MS PGothic&quot;" font-weight="normal" text-anchor="start" style="mix-blend-mode: normal"><tspan x="0" dy="0">Papa T. Bear</tspan></text><g stroke-linecap="butt"><text transform="translate(257.05438,104.77763) scale(0.61121,0.61121)" font-size="40" xml:space="preserve" fill="#8e8e8e" fill-rule="nonzero" stroke="none" stroke-width="1" stroke-linecap="butt" stroke-linejoin="miter" stroke-miterlimit="10" stroke-dasharray="" stroke-dashoffset="0" font-family="&quot;ヒラギノ角ゴ Pro W3&quot;, &quot;Hiragino Kaku Gothic Pro&quot;, Osaka, &quot;メイリオ&quot;, Meiryo, &quot;ＭＳ Ｐゴシック&quot;, &quot;MS PGothic&quot;" font-weight="normal" text-anchor="start" style="mix-blend-mode: normal"><tspan x="0" dy="0">2018</tspan></text><path d="M249.94926,123.02128v-118.51155h228.33349v118.51155z" fill="none" stroke="#8e8e8e" stroke-width="3.5"/></g><g stroke-linecap="butt"><text transform="translate(257.05438,223.33537) scale(0.61121,0.61121)" font-size="40" xml:space="preserve" fill="#8e8e8e" fill-rule="nonzero" stroke="none" stroke-width="1" stroke-linecap="butt" stroke-linejoin="miter" stroke-miterlimit="10" stroke-dasharray="" stroke-dashoffset="0" font-family="&quot;ヒラギノ角ゴ Pro W3&quot;, &quot;Hiragino Kaku Gothic Pro&quot;, Osaka, &quot;メイリオ&quot;, Meiryo, &quot;ＭＳ Ｐゴシック&quot;, &quot;MS PGothic&quot;" font-weight="normal" text-anchor="start" style="mix-blend-mode: normal"><tspan x="0" dy="0">2019</tspan></text><path d="M249.94926,241.57903v-118.51155h228.33349v118.51155z" fill="none" stroke="#8e8e8e" stroke-width="3.5"/></g><g stroke-linecap="butt"><text transform="translate(257.05438,341.89317) scale(0.61121,0.61121)" font-size="40" xml:space="preserve" fill="#8e8e8e" fill-rule="nonzero" stroke="none" stroke-width="1" stroke-linecap="butt" stroke-linejoin="miter" stroke-miterlimit="10" stroke-dasharray="" stroke-dashoffset="0" font-family="&quot;ヒラギノ角ゴ Pro W3&quot;, &quot;Hiragino Kaku Gothic Pro&quot;, Osaka, &quot;メイリオ&quot;, Meiryo, &quot;ＭＳ Ｐゴシック&quot;, &quot;MS PGothic&quot;" font-weight="normal" text-anchor="start" style="mix-blend-mode: normal"><tspan x="0" dy="0">2020</tspan></text><path d="M249.94926,360.13682v-118.51155h228.33349v118.51155z" fill="none" stroke="#8e8e8e" stroke-width="3.5"/></g><g><path d="M375.28288,60.29532c0.06451,0.12973 0,-0.12973 0,0c0,0.51733 0.12584,1.05176 0,1.55358c-0.14058,0.56085 -0.57405,1.01219 -0.77679,1.55363c-0.18722,0.49946 -0.17478,1.06497 -0.38842,1.55358c-0.69524,1.59013 -1.63513,3.07071 -2.33037,4.66085c-0.21364,0.48856 -0.08238,1.11703 -0.38842,1.55358c-0.62919,0.89874 -1.47356,1.64451 -2.33042,2.33042c-0.45128,0.36118 -0.91272,0.56315 -1.55358,0.77679c-2.56187,0.85369 -5.1238,1.77966 -7.768,2.33042c-0.66109,0.13746 -1.03625,-0.25869 -1.55364,-0.38842c-0.51733,-0.12973 -1.09062,-0.12354 -1.55358,-0.38842c-0.47617,-0.27185 -0.94927,-0.66103 -1.16521,-1.16515c-0.2035,-0.47546 -0.06445,-1.04014 0,-1.55363c0.19495,-1.56136 0.39538,-3.1344 0.77679,-4.66079c0.14064,-0.56085 0.57405,-1.01219 0.77679,-1.55363c0.18722,-0.49946 0.12354,-1.09062 0.38842,-1.55358c0.2719,-0.47617 0.84595,-0.71853 1.16521,-1.16521c0.33635,-0.47074 0.44044,-1.08289 0.77679,-1.55364c0.31926,-0.44663 0.66575,-0.90186 1.16521,-1.16515c1.99873,-1.05181 4.02305,-2.1712 6.21442,-2.71884c2.01188,-0.50258 4.14111,-0.38837 6.21442,-0.38837c0.53284,0 1.14422,0.04736 1.55358,0.38837c0.44433,0.37056 0.51815,1.03625 1.55363,1.16521z" fill="#995900" stroke="#995900" stroke-width="2.83465" stroke-linecap="round"/><path d="M401.30572,58.35332c-0.03957,0.42799 1.28798,0.77679 2.33042,0.77679c0.53289,0 1.09062,0.12348 1.55363,0.38842c0.47617,0.27185 0.68899,0.89331 1.16515,1.16515c0.46302,0.26489 1.02617,0.15072 1.55364,0.38842c2.10977,0.94927 4.14499,2.0725 6.21442,3.10721c0.51733,0.25869 1.06343,0.46997 1.55358,0.77679c0.5484,0.3426 1.1326,0.6743 1.55364,1.16521c0.37675,0.4389 0.5181,1.03625 0.77679,1.55358c0.25869,0.51738 0.72861,0.97722 0.77679,1.55363c0.08621,1.03937 -0.13516,2.09579 -0.38842,3.10721c-0.14058,0.56085 -0.36738,1.14422 -0.77679,1.55358c-0.40936,0.40941 -1.01213,0.57406 -1.55358,0.77685c-0.49952,0.18717 -1.0044,0.36195 -1.55363,0.38837c-2.19598,0.1049 -4.40445,0 -6.60279,0c-0.55,0 -1.05182,0.12584 -1.55364,0c-0.56085,-0.14058 -1.06343,-0.46998 -1.55358,-0.77679c-0.5484,-0.3426 -1.09604,-0.70767 -1.55358,-1.16521c-0.45759,-0.45754 -0.87626,-0.97486 -1.16521,-1.55358c-0.49409,-0.98813 -0.83587,-2.05233 -1.16521,-3.10721c-0.31849,-1.01762 -0.71003,-2.04301 -0.77679,-3.10721c-0.06528,-1.04091 0.31926,-2.06707 0.38837,-3.10721c0.06062,-0.90345 -0.6401,-2.07875 0,-2.71879z" fill="#995900" stroke="#995900" stroke-width="2.83465" stroke-linecap="round"/><path d="M387.3233,21.84363c5.67922,0 10.8255,2.11059 14.55182,5.52072c3.72714,3.41019 6.03345,8.11992 6.03345,13.31673c0,5.19681 -2.30631,9.90654 -6.03345,13.31668c-3.72632,3.41019 -8.8726,5.52077 -14.55182,5.52077c-5.67917,0 -10.8255,-2.11059 -14.55182,-5.52077c-3.72709,-3.41013 -6.03339,-8.11987 -6.03339,-13.31668c0,-5.19681 2.30631,-9.90654 6.03339,-13.31673c3.72632,-3.41013 8.87265,-5.52072 14.55182,-5.52072z" fill="#995900" stroke="none" stroke-width="1.41733" stroke-linecap="butt"/><path d="M369.2627,19.5132c2.304,0 4.39124,0.9143 5.90289,2.39022c1.51165,1.47674 2.44771,3.5158 2.44771,5.7662c0,2.2504 -0.93606,4.28952 -2.44771,5.76621c-1.51165,1.47592 -3.59889,2.39022 -5.90289,2.39022c-2.304,0 -4.3913,-0.9143 -5.90295,-2.39022c-1.51165,-1.47668 -2.44766,-3.51581 -2.44766,-5.76621c0,-2.2504 0.93601,-4.28947 2.44766,-5.7662c1.51165,-1.47592 3.59895,-2.39022 5.90295,-2.39022z" fill="#995900" stroke="none" stroke-width="1.41733" stroke-linecap="butt"/><path d="M401.49996,17.5712c2.304,0 4.39124,0.9143 5.9029,2.39022c1.51165,1.47674 2.44771,3.5158 2.44771,5.7662c0,2.2504 -0.93606,4.28952 -2.44771,5.76621c-1.51165,1.47592 -3.59889,2.39022 -5.9029,2.39022c-2.304,0 -4.3913,-0.9143 -5.90295,-2.39022c-1.51165,-1.47668 -2.44765,-3.51581 -2.44765,-5.76621c0,-2.2504 0.936,-4.28947 2.44765,-5.7662c1.51165,-1.47592 3.59895,-2.39022 5.90295,-2.39022z" fill="#995900" stroke="none" stroke-width="1.41733" stroke-linecap="butt"/><path d="M377.22488,60.6837c2.84309,-0.5352 3.38454,-0.58956 3.884,-0.77679c0.54145,-0.20273 0.99279,-0.63621 1.55363,-0.77679c0.50182,-0.12584 1.04014,0.06445 1.55358,0c0.529,-0.06604 1.02463,-0.32238 1.55364,-0.38842c0.51344,-0.06445 1.04014,0.06451 1.55358,0c0.529,-0.06599 1.02463,-0.32238 1.55363,-0.38837c0.51344,-0.06451 1.04014,0.06445 1.55358,0c0.529,-0.06604 1.02227,-0.34414 1.55363,-0.38842c1.03082,-0.08621 2.0725,0 3.10721,0c1.03466,0 2.07639,-0.08621 3.10721,0c0.53131,0.04428 1.17683,0.01168 1.55358,0.38842c0.37675,0.37675 0.25946,1.03625 0.38842,1.55358c0.38837,1.55205 0.71387,3.12584 1.16515,4.66084c0.19654,0.66805 0.57641,1.27472 0.77685,1.942c0.18952,0.63149 0.34956,1.28327 0.38837,1.942c0.09093,1.54969 0,3.10875 0,4.66079c0,1.68177 0.08002,3.36979 0,5.04921c-0.04971,1.04167 -0.30215,2.06784 -0.38837,3.10721c-0.04275,0.5158 0.12584,1.05176 0,1.55358c-0.26801,1.07198 -0.74029,2.08729 -1.16521,3.10721c-0.22219,0.53366 -0.3255,1.1924 -0.77679,1.55363c-0.90345,0.72242 -2.00338,1.20867 -3.10721,1.55358c-0.99509,0.31076 -2.06784,0.30221 -3.10721,0.38842c-0.5158,0.0427 -1.04014,-0.06451 -1.55363,0c-0.529,0.06604 -1.02145,0.35499 -1.55358,0.38837c-1.54897,0.09712 -3.11187,-0.09706 -4.66085,0c-0.53207,0.03343 -1.02457,0.32238 -1.55358,0.38842c-0.51344,0.06445 -1.04014,0.06445 -1.55358,0c-0.529,-0.06604 -1.02463,-0.32238 -1.55363,-0.38842c-0.51344,-0.06445 -1.0448,0.09558 -1.55358,0c-1.57227,-0.29514 -3.1088,-0.77679 -4.66085,-1.16516c-0.51733,-0.12973 -1.11934,-0.07848 -1.55358,-0.38842c-0.52588,-0.37598 -0.97256,-0.93606 -1.16521,-1.55358c-0.46921,-1.50157 -0.64629,-3.09247 -0.77679,-4.66084c-0.12896,-1.54662 -0.10644,-3.11264 0,-4.66079c0.15226,-2.20847 0.36277,-4.4278 0.77679,-6.60284c0.10797,-0.56781 0.59422,-1.00517 0.77679,-1.55358c0.59581,-1.78667 0.95782,-3.65096 1.55363,-5.43763c0.18251,-0.5484 0.44044,-1.08283 0.77679,-1.55358c0.31926,-0.44668 0.68904,-0.89331 1.16521,-1.16521c0.46296,-0.26489 1.04091,-0.24159 1.55358,-0.38842c0.39308,-0.11263 0.77213,-0.27573 1.16521,-0.38836z" fill="#995900" stroke="#995900" stroke-width="2.83465" stroke-linecap="round"/><path d="M387.8642,43.19704c3.05405,0 6.11198,0.46137 7.82511,2.60364c1.84603,2.30302 1.48523,5.83537 0.9211,8.68444c-0.36239,1.80668 -1.83288,3.32902 -3.49848,4.26382c-1.48249,0.83576 -3.07811,0.52583 -5.05639,0.79257c-2.34615,0.22142 -5.02745,0.71228 -6.99697,-0.40996c-2.2281,-1.65903 -3.98117,-4.40917 -4.26376,-7.05161c-0.23178,-2.33744 1.28239,-4.70491 3.24429,-6.27926c2.03841,-1.63606 4.77106,-2.60364 7.82511,-2.60364z" fill="#ffffff" stroke="none" stroke-width="0.99738" stroke-linecap="round"/><g><path d="M388.67629,43.69199c1.66226,0 3.16816,0.47628 4.25866,1.24644c1.09051,0.76972 1.76574,1.83282 1.76574,3.00604c0,1.17321 -0.67523,2.23637 -1.76574,3.00604c-1.09051,0.77021 -2.5964,1.24649 -4.25866,1.24649c-1.66226,0 -3.16811,-0.47628 -4.25861,-1.24649c-1.09056,-0.76966 -1.76574,-1.83282 -1.76574,-3.00604c0,-1.17321 0.67518,-2.23632 1.76574,-3.00604c1.09051,-0.77016 2.59635,-1.24644 4.25861,-1.24644z" fill="#000000" stroke="none" stroke-width="0.86211" stroke-linecap="butt"/><path d="M390.37653,43.91144c0.88887,0 1.69438,0.3107 2.27753,0.81296c0.58348,0.50226 0.94434,1.19602 0.94434,1.9614c0,0.76539 -0.36085,1.45915 -0.94434,1.9614c-0.58315,0.50226 -1.38866,0.81301 -2.27753,0.81301c-0.88887,0 -1.69432,-0.31076 -2.27748,-0.81301c-0.58354,-0.50226 -0.94439,-1.19602 -0.94439,-1.9614c0,-0.76539 0.36085,-1.45915 0.94439,-1.9614c0.58315,-0.50226 1.38861,-0.81296 2.27748,-0.81296z" fill="#ffffff" stroke="none" stroke-width="0.65317" stroke-linecap="butt"/><path d="M395.0525,54.08091c0,0 -1.28639,0.31536 -1.942,0.38842c-0.51426,0.05744 -1.04014,0.06445 -1.55363,0c-0.529,-0.06604 -1.09062,-0.12354 -1.55358,-0.38842c-0.47617,-0.2719 -0.77679,-0.77679 -1.16521,-1.16521c-0.38837,-0.38842 -0.84596,-0.71853 -1.16521,-1.16521c-0.33635,-0.47074 -0.63927,-1.55358 -0.77679,-1.55358c-0.13751,0 0.06445,1.04014 0,1.55358c-0.06604,0.529 -0.2012,1.05412 -0.38842,1.55363c-0.20273,0.54139 -0.33246,1.18308 -0.77679,1.55358c-0.40936,0.34101 -1.03625,0.25869 -1.55358,0.38842c-0.51738,0.12973 -1.02074,0.38837 -1.55363,0.38837c-0.53289,0 -1.05412,-0.20115 -1.55358,-0.38837c-0.54145,-0.20273 -1.18308,-0.33246 -1.55363,-0.77679c-0.34101,-0.40941 -0.25864,-1.0363 -0.38837,-1.55363c-0.03267,-0.12973 0,0 0,0" fill="none" stroke="#000000" stroke-width="2.83465" stroke-linecap="round"/></g><g stroke="none" stroke-width="1.41733" stroke-linecap="butt"><path d="M395.6351,30.00005c1.12482,0 2.14474,0.80474 2.88272,2.10588c0.7387,1.30037 1.19546,3.09713 1.19546,5.07952c0,1.98239 -0.45677,3.77915 -1.19546,5.07952c-0.73798,1.30113 -1.7579,2.10593 -2.88272,2.10593c-1.12482,0 -2.14474,-0.8048 -2.88272,-2.10593c-0.73875,-1.30037 -1.19552,-3.09713 -1.19552,-5.07952c0,-1.98239 0.45677,-3.77915 1.19552,-5.07952c0.73798,-1.30113 1.7579,-2.10588 2.88272,-2.10588z" fill="#000000"/><path d="M397.77129,32.71884c0.58962,0 1.12328,0.39149 1.51012,1.02463c0.38683,0.63232 0.62612,1.50623 0.62612,2.471c0,0.96478 -0.23929,1.83869 -0.62612,2.471c-0.38683,0.63308 -0.9205,1.02458 -1.51012,1.02458c-0.58956,0 -1.12323,-0.39149 -1.51012,-1.02458c-0.38683,-0.63232 -0.62607,-1.50622 -0.62607,-2.471c0,-0.96478 0.23924,-1.83869 0.62607,-2.471c0.38689,-0.63314 0.92055,-1.02463 1.51012,-1.02463z" fill="#ffffff"/><path d="M393.88729,36.60284c0.58962,0 1.12328,0.39155 1.51012,1.02463c0.38683,0.63232 0.62607,1.50623 0.62607,2.471c0,0.96478 -0.23924,1.83869 -0.62607,2.471c-0.38683,0.63308 -0.9205,1.02458 -1.51012,1.02458c-0.58956,0 -1.12323,-0.39149 -1.51012,-1.02458c-0.38683,-0.63232 -0.62607,-1.50622 -0.62607,-2.471c0,-0.96478 0.23924,-1.83869 0.62607,-2.471c0.38689,-0.63308 0.92055,-1.02463 1.51012,-1.02463z" fill="#ffffff"/></g><g stroke="none" stroke-width="1.41733" stroke-linecap="butt"><path d="M380.09905,31.55363c1.12482,0 2.14479,0.8048 2.88272,2.10593c0.73875,1.30037 1.19552,3.09713 1.19552,5.07952c0,1.98239 -0.45677,3.7791 -1.19552,5.07946c-0.73793,1.30119 -1.7579,2.10593 -2.88272,2.10593c-1.12482,0 -2.14473,-0.80474 -2.88272,-2.10593c-0.7387,-1.30037 -1.19546,-3.09707 -1.19546,-5.07946c0,-1.98239 0.45677,-3.77915 1.19546,-5.07952c0.73798,-1.30113 1.7579,-2.10593 2.88272,-2.10593z" fill="#000000"/><path d="M382.42947,33.88404c0.58956,0 1.12323,0.39149 1.51012,1.02457c0.38683,0.63232 0.62607,1.50623 0.62607,2.47106c0,0.96478 -0.23924,1.83869 -0.62607,2.471c-0.38689,0.63308 -0.92055,1.02457 -1.51012,1.02457c-0.58956,0 -1.12328,-0.39149 -1.51012,-1.02457c-0.38683,-0.63232 -0.62607,-1.50623 -0.62607,-2.471c0,-0.96483 0.23924,-1.83874 0.62607,-2.47106c0.38683,-0.63308 0.92055,-1.02457 1.51012,-1.02457z" fill="#ffffff"/><path d="M379.12808,38.54484c0.58956,0 1.12323,0.39155 1.51012,1.02463c0.38683,0.63232 0.62607,1.50623 0.62607,2.471c0,0.96478 -0.23924,1.83869 -0.62607,2.471c-0.38689,0.63308 -0.92055,1.02458 -1.51012,1.02458c-0.58962,0 -1.12328,-0.39149 -1.51012,-1.02458c-0.38683,-0.63232 -0.62612,-1.50622 -0.62612,-2.471c0,-0.96478 0.23929,-1.83869 0.62612,-2.471c0.38683,-0.63308 0.9205,-1.02463 1.51012,-1.02463z" fill="#ffffff"/></g><g fill="#ffffff" stroke="#ffffff" stroke-linecap="round"><path d="M374.85565,60.29532c0,-0.63391 1.30579,-0.49404 1.942,-0.77679c0.52823,-0.23463 0.97958,-0.84831 1.55363,-0.77684c0.64163,0.08002 1.1776,0.63933 1.55358,1.16521c0.30994,0.43424 0.2012,1.05412 0.38842,1.55363c0.20273,0.54139 0.36743,1.14422 0.77679,1.55358c0.40936,0.40936 1.01219,0.57406 1.55358,0.77679c0.49952,0.18722 1.05412,0.2012 1.55363,0.38842c0.54139,0.20273 0.99273,0.63621 1.55358,0.77679c0.50182,0.12584 1.03625,0 1.55364,0c1.03466,0 2.10357,0.25091 3.10721,0c1.12246,-0.2804 2.13152,-0.93217 3.10716,-1.55358c0.46302,-0.29443 0.77685,-0.77684 1.16521,-1.16521c0.38842,-0.38842 0.89336,-0.68904 1.16521,-1.16521c0.26489,-0.46296 0.25869,-1.03625 0.38842,-1.55358c0.12973,-0.51738 -0.02795,-1.2204 0.38837,-1.55363c0.40393,-0.32314 1.07823,-0.2035 1.55363,0c0.50412,0.21594 1.01449,0.63774 1.16521,1.16521c0.14677,0.51267 -0.32238,1.02457 -0.38842,1.55358c-0.06445,0.51349 0.26647,1.11008 0,1.55364c-0.56474,0.94072 -1.43705,1.69262 -2.33042,2.33042c-0.94149,0.67271 -2.13153,0.93212 -3.10721,1.55358c-0.46296,0.29443 -0.68899,0.89331 -1.16515,1.16521c-0.46302,0.26489 -1.03625,0.25869 -1.55363,0.38837c-1.03471,0.25869 -2.0554,0.60129 -3.10721,0.77684c-0.51037,0.08468 -1.03625,0 -1.55358,0c-1.03471,0 -2.07639,0.08621 -3.10721,0c-0.53136,-0.04428 -1.07664,-0.14996 -1.55363,-0.38842c-0.57871,-0.28895 -1.06266,-0.74418 -1.55358,-1.16521c-0.41637,-0.35729 -0.80787,-0.74883 -1.16521,-1.16521c-0.42103,-0.49091 -0.82261,-1.00517 -1.16521,-1.55358c-0.30681,-0.49015 -0.44509,-1.07977 -0.77679,-1.55364c-0.57948,-0.82727 -1.942,-1.41064 -0.77679,-1.942z" stroke-width="2.83465"/><path d="M377.57444,64.56776c0.38842,1.78043 0.30528,2.19209 0.38842,2.33037c0.33246,0.55465 0.64783,1.16521 1.16521,1.55363c0.55696,0.41791 1.26304,0.61988 1.942,0.77679c1.01602,0.23458 2.06784,0.47464 3.10721,0.38842c0.57636,-0.04818 1.73768,-1.23668 1.55358,-0.77685c-0.59269,1.48216 -2.00415,3.15692 -3.10721,4.66085c-0.32468,0.44274 -0.8459,0.71853 -1.16521,1.16521c-0.33635,0.47069 -0.44044,1.08283 -0.77679,1.55358c-0.31926,0.44668 -0.74883,0.80786 -1.16521,1.16521c-0.49091,0.42103 -1.06266,0.74418 -1.55358,1.16521c-0.41637,0.35729 -0.68904,0.89331 -1.16521,1.16515c-0.46296,0.26494 -1.02457,0.32238 -1.55358,0.38842c-0.51349,0.06445 -1.03625,0 -1.55363,0c-0.51733,0 -1.05176,0.12584 -1.55358,0c-0.56085,-0.14058 -1.11473,-0.40004 -1.55363,-0.77679c-0.49091,-0.42103 -0.82261,-1.00517 -1.16521,-1.55363c-0.30681,-0.49015 -0.77679,-0.97486 -0.77679,-1.55358c0,-0.57871 0.44043,-1.08289 0.77679,-1.55358c0.31931,-0.44668 0.74884,-0.80792 1.16521,-1.16521c0.49097,-0.42103 1.00517,-0.82266 1.55363,-1.16521c0.49015,-0.30687 1.08283,-0.44043 1.55358,-0.77679c0.44668,-0.31931 0.74883,-0.80792 1.16521,-1.16521c0.49091,-0.42103 1.00517,-0.82266 1.55358,-1.16521c0.4902,-0.30687 1.26699,-0.27421 1.55364,-0.77679c0.32079,-0.56167 0,-1.29494 0,-1.942z" stroke-width="2.83465"/><path d="M388.79851,69.22855c0.72823,-0.61834 1.52102,-1.05258 2.28685,-1.55363c1.00062,-0.65018 1.96212,-2.13772 3.04912,-1.942c0.73031,0.1305 0.91172,1.75017 1.27049,2.71884c0.16821,0.4645 0.2109,1.02457 0.25409,1.55358c0.0422,0.51349 0.02795,1.03784 0,1.55364c-0.0564,1.03932 -0.22005,2.06548 -0.25409,3.10721c-0.05081,1.55045 0.15045,3.12584 0,4.66079c-0.10726,1.09297 -0.41621,2.13695 -0.76227,3.10721c-0.17177,0.48159 -0.43249,0.94921 -0.76232,1.16521c-0.31098,0.2035 -0.70384,0.19884 -1.01635,0c-0.73689,-0.46921 -1.35282,-1.30272 -2.03276,-1.942c-0.42026,-0.39544 -0.87561,-0.71233 -1.27044,-1.16521c-0.28714,-0.3294 -0.66981,-0.63468 -0.76232,-1.16521c-0.26269,-1.50469 -0.25409,-3.10332 -0.25409,-4.66079c0,-1.0425 0.20175,-2.06789 0.25409,-3.10721c0.03256,-0.64476 0,-1.29494 0,-1.942c0,-0.16163 -0.1819,-0.23387 0.25409,-2.33042z" stroke-width="2.39522"/></g><g><path d="M371.36002,87.87175c1.11243,0 1.65305,1.62198 2.71885,1.942c1.61496,0.48477 3.36278,0.38842 5.04921,0.38842c0.53289,0 1.02227,-0.34721 1.55358,-0.38842c1.16055,-0.08928 2.33119,0 3.49563,0c0.51733,0 1.27938,-0.43885 1.55358,0c0.5523,0.88405 0.30221,2.06789 0.38842,3.10721c0.0427,0.5158 0.13592,0.90109 0,1.55363c-0.54375,2.61005 -1.19552,5.20843 -1.942,7.768c-0.18646,0.6401 -0.46997,1.06343 -0.77679,1.55363c-0.3426,0.5484 -0.82266,1.00517 -1.16521,1.55358c-0.30687,0.49015 -0.456,1.07199 -0.77684,1.55358c-0.71776,1.07587 -1.46035,2.15021 -2.33037,3.10721c-0.43501,0.47853 -1.06266,0.74418 -1.55363,1.16521c-0.41637,0.35735 -0.71853,0.84596 -1.16521,1.16521c-0.47074,0.33635 -0.99273,0.63621 -1.55358,0.77679c-0.50182,0.12584 -1.04014,-0.06445 -1.55358,0c-0.529,0.06604 -1.02463,0.32238 -1.55363,0.38842c-0.51344,0.06445 -1.03778,-0.04275 -1.55358,0c-1.03937,0.08621 -2.0679,0.47464 -3.10721,0.38842c-0.57641,-0.04818 -1.03625,-0.51815 -1.55363,-0.77685c-0.51733,-0.25864 -1.14422,-0.36743 -1.55358,-0.77679c-0.40936,-0.40936 -0.63621,-0.99274 -0.77679,-1.55358c-0.12584,-0.50182 0.0427,-1.03784 0,-1.55363c-0.08627,-1.03937 -0.33636,-2.06548 -0.38842,-3.10721c-0.07766,-1.55051 -0.09712,-3.11187 0,-4.66079c0.03338,-0.53213 0.32238,-1.02463 0.38842,-1.55363c0.06445,-0.51344 -0.09558,-1.0448 0,-1.55358c0.29514,-1.57227 0.57093,-3.17556 1.16515,-4.66079c0.20356,-0.5096 0.71858,-0.84596 1.16521,-1.16521c0.47074,-0.33635 1.08289,-0.44043 1.55363,-0.77679c0.44663,-0.31931 0.71853,-0.84596 1.16521,-1.16521c0.47074,-0.33635 1.11857,-0.3962 1.55358,-0.77684c0.623,-0.54528 0.72555,-1.942 2.71879,-2.33037z" fill="#995900" stroke="#995900" stroke-width="2.83465" stroke-linecap="round"/><g fill="#ffffff" stroke="none" stroke-linecap="butt"><path d="M370.38905,103.0194c2.73277,0 5.20843,0.73952 7.0013,1.93504c1.79287,1.19546 2.90294,2.84622 2.90294,4.6678c0,1.82159 -1.11007,3.47228 -2.90294,4.6678c-1.79287,1.19546 -4.26853,1.93499 -7.0013,1.93499c-2.73277,0 -5.20848,-0.73952 -7.0013,-1.93499c-1.79287,-1.19552 -2.90294,-2.84622 -2.90294,-4.6678c0,-1.82159 1.11008,-3.47234 2.90294,-4.6678c1.79281,-1.19552 4.26853,-1.93504 7.0013,-1.93504z" stroke-width="1.41733"/><path d="M366.48411,93.84715c1.12498,0 2.14451,0.52703 2.88299,1.37907c0.73848,0.85204 1.19525,2.02843 1.19525,3.32655c0,1.29812 -0.45677,2.47457 -1.19525,3.32655c-0.73848,0.85204 -1.75801,1.37907 -2.88299,1.37907c-1.12493,0 -2.14451,-0.52703 -2.88299,-1.37907c-0.73843,-0.85199 -1.19519,-2.02843 -1.19519,-3.32655c0,-1.29812 0.45677,-2.47451 1.19519,-3.32655c0.73848,-0.85204 1.75807,-1.37907 2.88299,-1.37907z" stroke-width="1.14476"/><path d="M376.53025,92.20046c1.0625,0.36968 1.85223,1.20248 2.2697,2.24985c0.41747,1.04737 0.46225,2.30855 0.03568,3.5346c-0.42662,1.22599 -1.24457,2.18699 -2.22201,2.74904c-0.97749,0.562 -2.1136,0.72472 -3.17605,0.35504c-1.0625,-0.36968 -1.85223,-1.20248 -2.2697,-2.24985c-0.41747,-1.04743 -0.46225,-2.30861 -0.03568,-3.5346c0.42657,-1.22605 1.24457,-2.18699 2.22201,-2.74905c0.97749,-0.56205 2.1136,-0.72477 3.17605,-0.35504z" stroke-width="1.14476"/><path d="M382.12326,98.68674c1.06245,0.36968 1.85217,1.20248 2.26964,2.24986c0.41747,1.04743 0.4623,2.30861 0.03568,3.5346c-0.42657,1.22605 -1.24457,2.18699 -2.22201,2.74904c-0.97744,0.56205 -2.1136,0.72478 -3.17605,0.35504c-1.0625,-0.36968 -1.85223,-1.20248 -2.2697,-2.24985c-0.41747,-1.04737 -0.46225,-2.30856 -0.03568,-3.5346c0.42662,-1.22599 1.24457,-2.18699 2.22207,-2.74904c0.97744,-0.562 2.11355,-0.72472 3.17605,-0.35504z" stroke-width="1.14476"/></g></g><g><path d="M386.50766,90.20216c-0.15845,-0.19807 0.51503,0.05207 0.77685,0c1.04557,-0.20898 2.09502,-0.43967 3.10721,-0.77679c0.5484,-0.18256 1.01213,-0.57406 1.55358,-0.77679c0.49946,-0.18722 1.05412,-0.2012 1.55358,-0.38842c0.54145,-0.20273 1.0254,-0.54221 1.55363,-0.77679c0.63621,-0.28275 1.26227,-0.62536 1.942,-0.77679c0.50494,-0.11186 1.03625,0 1.55358,0c0.77608,0 1.55829,-0.07695 2.33042,0c0.53054,0.05278 1.09062,0.12348 1.55363,0.38837c0.47617,0.2719 0.89331,0.68904 1.16516,1.16521c0.26494,0.46296 0.14996,1.07664 0.38842,1.55358c0.289,0.57877 0.82266,1.00523 1.16521,1.55363c0.30681,0.49015 0.44044,1.08283 0.77679,1.55358c0.31926,0.44668 0.89331,0.68904 1.16521,1.16521c0.26489,0.46296 0.18333,1.06114 0.38842,1.55364c0.44509,1.06809 0.93211,2.13152 1.55358,3.10721c0.29443,0.46296 0.77679,0.77679 1.16521,1.16515c1.16362,1.16444 2.36999,2.29469 3.49558,3.49563c0.81565,0.87002 1.75949,1.67169 2.33042,2.71879c0.24779,0.45447 0,1.03625 0,1.55363c0,0.51733 0.20356,1.07818 0,1.55358c-0.21594,0.50418 -0.72165,0.84283 -1.16521,1.16521c-0.98654,0.71776 -1.98081,1.47279 -3.10721,1.942c-0.4777,0.19884 -1.04398,-0.0901 -1.55358,0c-1.69964,0.29985 -3.33559,0.95935 -5.04921,1.16521c-1.54119,0.18487 -3.12042,0.19265 -4.66079,0c-0.57405,-0.07147 -1.0363,-0.51815 -1.55363,-0.77679c-0.51733,-0.25869 -1.11468,-0.40009 -1.55358,-0.77684c-0.49097,-0.42098 -0.91666,-0.957 -1.16521,-1.55358c-0.41018,-0.98418 -0.42416,-2.10045 -0.77679,-3.10721c-0.55542,-1.58701 -1.38663,-3.07378 -1.94206,-4.66079c-0.35263,-1.00676 -0.38058,-2.11678 -0.77679,-3.10721c-0.64476,-1.61107 -1.63513,-3.07071 -2.33037,-4.66085c-0.21364,-0.48861 -0.12354,-1.09062 -0.38842,-1.55358c-0.2719,-0.47617 -0.75503,-0.8009 -1.16521,-1.16521c-0.75503,-0.67117 -1.71209,-1.1691 -1.16521,-1.942z" fill="#995900" stroke="#995900" stroke-width="2.83465" stroke-linecap="round"/><g fill="#ffffff" stroke="none" stroke-linecap="butt"><path d="M413.35629,103.6727c1.79287,1.19552 2.90289,2.84622 2.90289,4.6678c0,1.82159 -1.11002,3.47228 -2.90289,4.6678c-1.79287,1.19546 -4.26853,1.93499 -7.00135,1.93499c-2.73277,0 -5.20843,-0.73952 -7.0013,-1.93499c-1.79287,-1.19552 -2.90289,-2.84622 -2.90289,-4.6678c0,-1.82159 1.11002,-3.47228 2.90289,-4.6678c1.79287,-1.19552 4.26853,-1.93498 7.0013,-1.93498c2.73282,0 5.20848,0.73947 7.00135,1.93498z" stroke-width="1.41733"/><path d="M413.14287,93.94448c0.73848,0.85204 1.19525,2.02843 1.19525,3.32655c0,1.29812 -0.45677,2.47457 -1.19525,3.32661c-0.73848,0.85199 -1.75801,1.37902 -2.88299,1.37902c-1.12493,0 -2.14451,-0.52703 -2.88299,-1.37902c-0.73843,-0.85204 -1.19519,-2.02849 -1.19519,-3.32661c0,-1.29812 0.45677,-2.47451 1.19519,-3.32655c0.73848,-0.85204 1.75807,-1.37907 2.88299,-1.37907c1.12498,0 2.14451,0.52703 2.88299,1.37907z" stroke-width="1.14476"/><path d="M403.38979,91.27378c0.97744,0.56205 1.79544,1.523 2.22201,2.74905c0.42662,1.22605 0.38179,2.48717 -0.03563,3.5346c-0.41747,1.04737 -1.20725,1.88018 -2.2697,2.24985c-1.0625,0.36968 -2.19861,0.20696 -3.17605,-0.35504c-0.97744,-0.56205 -1.79544,-1.523 -2.22201,-2.74905c-0.42662,-1.22605 -0.38179,-2.48723 0.03562,-3.5346c0.41747,-1.04737 1.20719,-1.88018 2.2697,-2.24985c1.0625,-0.36968 2.19861,-0.20701 3.17605,0.35504z" stroke-width="1.14476"/><path d="M397.79683,97.76009c0.97744,0.562 1.79544,1.523 2.22201,2.74899c0.42657,1.22605 0.38179,2.48723 -0.03568,3.5346c-0.41747,1.04737 -1.20719,1.88018 -2.26964,2.24991c-1.0625,0.36968 -2.19861,0.20695 -3.17605,-0.3551c-0.97749,-0.562 -1.79544,-1.52299 -2.22207,-2.74904c-0.42657,-1.22599 -0.38179,-2.48717 0.03568,-3.53455c0.41747,-1.04743 1.20719,-1.88024 2.2697,-2.24991c1.06245,-0.36968 2.19861,-0.20695 3.17605,0.3551z" stroke-width="1.14476"/></g></g></g><path d="M376.61049,211.01002c-2.80967,0 -5.08736,-2.48015 -5.08736,-5.53957c0,-3.05942 2.27769,-5.53956 5.08736,-5.53956c2.80967,0 5.08736,2.48015 5.08736,5.53956c0,3.05942 -2.27769,5.53957 -5.08736,5.53957z" fill="#995900" stroke="#663b00" stroke-width="2" stroke-linecap="butt"/><g data-paper-data="{&quot;index&quot;:null}" stroke-linecap="butt"><path d="M385.75714,234.69012c0,0 -19.92906,4.50095 -22.08627,-0.96464c-1.33408,-3.38006 -0.46969,-5.7178 1.50093,-8.77087c3.67859,-5.69922 12.55631,-3.55391 12.55631,-3.55391c0,0 -0.5356,-18.4806 5.12197,-18.4806c5.65757,0 3.46079,0.40066 3.46079,10.45157c0,10.05091 -0.55373,21.31845 -0.55373,21.31845z" data-paper-data="{&quot;origPos&quot;:null}" fill="#995900" stroke="#663b00" stroke-width="2"/><path d="M379.03119,236.71302c-4.24317,0 -7.68295,-1.9523 -7.68295,-4.36059c0,-2.40829 3.43978,-4.36059 7.68295,-4.36059c4.24318,0 7.68295,1.9523 7.68295,4.36059c0,2.40829 -3.43977,4.36059 -7.68295,4.36059z" data-paper-data="{&quot;origPos&quot;:null}" fill="#ffffff" stroke="#e5e5e5" stroke-width="2"/><path d="M366.31403,236.15741c-1.55797,-0.34189 -2.58904,-1.14675 -2.30298,-1.79771c0.28606,-0.65096 1.78095,-0.9015 3.33891,-0.55961c1.55797,0.3419 2.58904,2.49646 2.30298,3.14742c-0.28606,0.65095 -1.78095,-0.44821 -3.33891,-0.7901z" data-paper-data="{&quot;origPos&quot;:null,&quot;origRot&quot;:0}" fill="#ffffff" stroke="#e5e5e5" stroke-width="1"/><path d="M366.4755,232.16113c-2.00907,-0.5612 -3.33868,-1.88234 -2.96979,-2.95085c0.36889,-1.06851 2.29661,-1.47977 4.30567,-0.91857c2.00906,0.5612 3.33868,1.88234 2.96979,2.95085c-0.36889,1.06851 -2.2966,1.47977 -4.30567,0.91857z" data-paper-data="{&quot;origPos&quot;:null,&quot;origRot&quot;:0}" fill="#ffffff" stroke="#e5e5e5" stroke-width="1.5"/><path d="M369.90399,227.24901c-1.88938,-0.88405 -2.98356,-2.40591 -2.44392,-3.39918c0.53963,-0.99328 2.50874,-1.08183 4.39813,-0.19778c1.88937,0.88405 2.98355,2.40591 2.44392,3.39918c-0.53963,0.99328 -2.50874,1.08183 -4.39812,0.19778z" data-paper-data="{&quot;origPos&quot;:null,&quot;origRot&quot;:0}" fill="#ffffff" stroke="#e5e5e5" stroke-width="1.5"/></g><g data-paper-data="{&quot;index&quot;:null}" stroke-linecap="butt"><path d="M390.8583,213.16399c0,-10.05091 -2.19678,-10.45157 3.46079,-10.45157c5.65756,0 5.12197,18.4806 5.12197,18.4806c0,0 8.87771,-2.1453 12.55631,3.55391c1.97062,3.05307 2.83501,5.3908 1.50093,8.77087c-2.15721,5.46559 -22.08627,0.96464 -22.08627,0.96464c0,0 -0.55373,-11.26753 -0.55373,-21.31845z" data-paper-data="{&quot;origPos&quot;:null}" fill="#995900" stroke="#663b00" stroke-width="2"/><path d="M390.45503,232.14479c0,-2.40829 3.43977,-4.36059 7.68295,-4.36059c4.24317,0 7.68295,1.9523 7.68295,4.36059c0,2.40829 -3.43978,4.36059 -7.68295,4.36059c-4.24318,0 -7.68295,-1.9523 -7.68295,-4.36059z" data-paper-data="{&quot;origPos&quot;:null}" fill="#ffffff" stroke="#e5e5e5" stroke-width="2"/><path d="M407.51621,236.73985c-0.28606,-0.65096 0.74501,-2.80552 2.30298,-3.14742c1.55796,-0.34189 3.05285,-0.09135 3.33891,0.55961c0.28606,0.65096 -0.74501,1.45582 -2.30298,1.79771c-1.55796,0.34189 -3.05285,1.44105 -3.33891,0.7901z" data-paper-data="{&quot;origPos&quot;:null,&quot;origRot&quot;:0}" fill="#ffffff" stroke="#e5e5e5" stroke-width="1"/><path d="M406.38799,231.0349c-0.36889,-1.06851 0.96073,-2.38965 2.96979,-2.95085c2.00906,-0.5612 3.93678,-0.14994 4.30567,0.91857c0.36889,1.06851 -0.96073,2.38965 -2.96979,2.95085c-2.00907,0.5612 -3.93678,0.14994 -4.30567,-0.91857z" data-paper-data="{&quot;origPos&quot;:null,&quot;origRot&quot;:0}" fill="#ffffff" stroke="#e5e5e5" stroke-width="1.5"/><path d="M402.86705,226.84359c-0.53963,-0.99327 0.55454,-2.51513 2.44392,-3.39918c1.88938,-0.88405 3.85849,-0.7955 4.39813,0.19778c0.53963,0.99327 -0.55454,2.51513 -2.44392,3.39918c-1.88937,0.88405 -3.85849,0.7955 -4.39812,-0.19778z" data-paper-data="{&quot;origPos&quot;:null,&quot;origRot&quot;:0}" fill="#ffffff" stroke="#e5e5e5" stroke-width="1.5"/></g><path d="M406.45202,192.35817c0,-7.49245 -12.73476,-15.04288 -7.38301,-15.04288c5.79726,0 8.14699,-0.33704 12.66059,3.30103c3.75223,3.0244 6.46693,7.91511 8.01184,12.48015c1.10746,3.2724 1.4043,7.85153 1.29484,9.40705c-0.13883,1.97302 -3.74674,4.71297 -5.72465,4.71297c-1.91476,0 -4.68434,0.24925 -5.9948,-1.14681c-3.5827,-3.81674 -2.86481,-8.47669 -2.86481,-13.7115z" data-paper-data="{&quot;index&quot;:null}" fill="#995900" stroke="#663b00" stroke-width="2" stroke-linecap="butt"/><path d="M370.13976,192.0813c0,5.23481 0.71789,9.89476 -2.86481,13.7115c-1.31046,1.39606 -4.08004,1.14681 -5.99481,1.14681c-1.97791,0 -5.58581,-2.73994 -5.72464,-4.71297c-0.10945,-1.55552 0.18739,-6.13465 1.29484,-9.40704c1.54491,-4.56503 4.25961,-9.45575 8.01184,-12.48015c4.5136,-3.63807 6.86333,-3.30103 12.66059,-3.30103c5.35175,0 -7.38301,7.55043 -7.38301,15.04288z" fill="#995900" stroke="#663b00" stroke-width="2" stroke-linecap="butt"/><path d="M388.55113,210.45338c-6.88082,0 -14.74295,-5.69205 -14.74295,-20.14178c0,-14.44973 8.48507,-18.4806 15.36589,-18.4806c6.88082,0 14.5353,4.03087 14.5353,18.4806c0,14.44973 -8.27742,20.14178 -15.15824,20.14178z" fill="#995900" stroke="#663b00" stroke-width="2" stroke-linecap="butt"/><path d="M373.32368,151.07893c-5.96338,0 -10.79765,-5.14416 -10.79765,-11.48981c0,-6.34565 4.83428,-11.48981 10.79765,-11.48981c5.96338,0 10.79765,5.14416 10.79765,11.48981c0,6.34565 -4.83428,11.48981 -10.79765,11.48981z" fill="#995900" stroke="#663b00" stroke-width="2" stroke-linecap="butt"/><path d="M405.56342,149.75183c-5.96338,0 -10.79765,-5.14416 -10.79765,-11.48981c0,-6.34565 4.83428,-11.48982 10.79765,-11.48982c5.96338,0 10.79765,5.14417 10.79765,11.48982c0,6.34565 -4.83428,11.48981 -10.79765,11.48981z" fill="#995900" stroke="#663b00" stroke-width="2" stroke-linecap="butt"/><path d="M388.96645,192.13177c0,6.57501 -8.3078,14.19814 -12.3368,8.3254c-1.6267,-2.3711 5.96895,-4.95773 5.96895,-8.3254c0,-6.57501 1.42549,-11.9051 3.18392,-11.9051c1.75843,0 3.18392,5.3301 3.18392,11.9051z" fill="#ffffff" stroke="#e5e5e5" stroke-width="2" stroke-linecap="butt"/><path d="M399.13856,206.11053c-5.29921,0.80231 -8.16494,-6.52152 -8.16494,-11.90228c0,-5.73402 1.54945,-10.38236 3.46079,-10.38236c1.91134,0 3.46079,4.64834 3.46079,10.38236c0,5.73402 7.97218,10.88354 1.24337,11.90228z" fill="#ffffff" stroke="#e5e5e5" stroke-width="2" stroke-linecap="butt"/><path d="M389.93546,180.21875c-12.07967,0 -21.87217,-9.97844 -21.87217,-22.28746c0,-12.30903 9.7925,-22.28746 21.87217,-22.28746c12.07967,0 21.87217,9.97844 21.87217,22.28746c0,12.30903 -9.7925,22.28746 -21.87217,22.28746z" fill="#995900" stroke="#663b00" stroke-width="2" stroke-linecap="butt"/><path d="M380.17175,162.58474c-3.6239,0 -6.56165,-4.46241 -6.56165,-9.96706c0,-5.50465 2.93775,-9.96706 6.56165,-9.96706c3.6239,0 6.56165,4.46241 6.56165,9.96706c0,5.50466 -2.93775,9.96706 -6.56165,9.96706z" fill="#ffffff" stroke="none" stroke-width="0" stroke-linecap="butt"/><g stroke="none" stroke-width="1" stroke-linecap="butt"><path d="M380.90391,144.21591c1.40265,0 4.11389,2.93756 4.11389,2.93756l-2.24685,6.23037l2.14303,5.39978c0,0 -2.60742,3.35285 -4.01007,3.35285c-1.40265,0 -2.67452,-1.00355 -3.59477,-2.62609c-0.92121,-1.62157 -1.4908,-3.86212 -1.4908,-6.33419c0,-2.47207 0.56958,-4.71263 1.4908,-6.33419c0.92025,-1.62254 2.19212,-2.62609 3.59477,-2.62609z" data-paper-data="{&quot;origPos&quot;:null}" fill="#3a2400"/><path d="M381.0994,145.96936c1.09385,0 2.93133,2.93685 2.93133,2.93685l-2.67507,3.75127l2.96326,5.04158c0,0 -2.12567,2.24555 -3.21952,2.24555c-1.09385,0 -2.08572,-0.78261 -2.80336,-2.04794c-0.7184,-1.26457 -1.16259,-3.01186 -1.16259,-4.93969c0,-1.92784 0.44419,-3.67512 1.16259,-4.93969c0.71765,-1.26533 1.70952,-2.04794 2.80336,-2.04794z" data-paper-data="{&quot;origPos&quot;:null}" fill="#000000"/><path d="M382.08944,146.71818c0.73523,0 1.88311,1.82547 1.88311,1.82547l-2.12631,4.92154l2.12631,3.88331c0,0 -1.14788,1.82547 -1.88311,1.82547c-0.73523,0 -1.40071,-0.69752 -1.88312,-1.82547c-0.48241,-1.12656 -0.78075,-2.68352 -0.78075,-4.40243c0,-1.7189 0.29835,-3.27587 0.78075,-4.40242c0.48241,-1.12794 1.14789,-1.82547 1.88312,-1.82547z" data-paper-data="{&quot;origPos&quot;:null}" fill="#ffffff"/></g><path d="M397.94635,162.41858c-3.6239,0 -6.56165,-4.46241 -6.56165,-9.96706c0,-5.50465 2.93775,-9.96706 6.56165,-9.96706c3.6239,0 6.56165,4.46241 6.56165,9.96706c0,5.50466 -2.93775,9.96706 -6.56165,9.96706z" fill="#ffffff" stroke="none" stroke-width="0" stroke-linecap="butt"/><g stroke="none" stroke-width="1" stroke-linecap="butt"><path d="M398.67851,144.04977c1.40265,0 4.11389,2.93756 4.11389,2.93756l-2.24685,6.23037l2.14303,5.39978c0,0 -2.60742,3.35285 -4.01007,3.35285c-1.40265,0 -2.67452,-1.00355 -3.59477,-2.62609c-0.92121,-1.62157 -1.4908,-3.86212 -1.4908,-6.33419c0,-2.47207 0.56958,-4.71263 1.4908,-6.33419c0.92025,-1.62254 2.19212,-2.62609 3.59477,-2.62609z" data-paper-data="{&quot;origPos&quot;:null}" fill="#3a2400"/><path d="M398.874,145.80324c1.09385,0 2.93133,2.93685 2.93133,2.93685l-2.67507,3.75127l2.96325,5.04158c0,0 -2.12567,2.24556 -3.21951,2.24556c-1.09385,0 -2.08571,-0.78261 -2.80337,-2.04794c-0.71841,-1.26457 -1.16259,-3.01186 -1.16259,-4.93969c0,-1.92783 0.44419,-3.67512 1.16259,-4.93969c0.71765,-1.26533 1.70952,-2.04794 2.80337,-2.04794z" data-paper-data="{&quot;origPos&quot;:null}" fill="#000000"/><path d="M399.86404,146.55206c0.73523,0 1.88311,1.82547 1.88311,1.82547l-2.12631,4.92154l2.12631,3.88331c0,0 -1.14788,1.82547 -1.88311,1.82547c-0.73523,0 -1.40071,-0.69752 -1.88312,-1.82547c-0.48241,-1.12656 -0.78075,-2.68352 -0.78075,-4.40243c0,-1.7189 0.29835,-3.27587 0.78075,-4.40242c0.48241,-1.12794 1.14789,-1.82547 1.88312,-1.82547z" data-paper-data="{&quot;origPos&quot;:null}" fill="#ffffff"/></g><path d="M389.2779,187.61331c-7.2822,0 -13.1856,-4.38272 -13.1856,-9.78908c0,-5.40636 5.38967,3.73765 12.67187,3.73765c7.2822,0 13.69932,-9.14401 13.69932,-3.73765c0,5.40636 -5.90339,9.78908 -13.1856,9.78908z" fill="#ffffff" stroke="#e5e5e5" stroke-width="2" stroke-linecap="butt"/><g stroke="none" stroke-width="0" stroke-linecap="butt"><path d="M388.70445,180.85971c-7.45423,0 -13.49707,-5.29911 -13.49707,-11.83589c0,-6.53678 6.04284,-11.83589 13.49707,-11.83589c7.45423,0 13.49707,5.29911 13.49707,11.83589c0,6.53678 -6.04284,11.83589 -13.49707,11.83589z" data-paper-data="{&quot;origPos&quot;:null}" fill="#ffffff"/><path d="M391.6115,166.73969c-3.89913,0 -7.06,-2.13823 -7.06,-4.77589c0,-2.63765 3.16087,-4.77589 7.06,-4.77589c3.89913,0 7.06,2.13823 7.06,4.77589c0,2.63765 -3.16087,4.77589 -7.06,4.77589z" data-paper-data="{&quot;origPos&quot;:null}" fill="#000000"/><path d="M394.10327,162.17144c-2.2936,0 -4.15294,-1.20856 -4.15294,-2.69941c0,-1.49085 1.85934,-2.69941 4.15294,-2.69941c2.2936,0 4.15294,1.20856 4.15294,2.69941c0,1.49085 -1.85934,2.69941 -4.15294,2.69941z" data-paper-data="{&quot;origPos&quot;:null}" fill="#ffffff"/></g><path d="M386.80869,174.97226l2.6302,-8.58275" fill="none" stroke="#000000" stroke-width="1.5" stroke-linecap="round"/><path d="M389.49874,175.94179c0,0 -0.38935,0.13646 -0.5913,0.13646c-0.60768,0 -1.21989,-0.03912 -1.81939,-0.13646c-0.61677,-0.10007 -1.24992,-0.19741 -1.81939,-0.45485c-0.55492,-0.25108 -1.05888,-0.62678 -1.50099,-1.04614c-0.47667,-0.45303 -1.22808,-1.54647 -1.22808,-1.54647" fill="none" stroke="#000000" stroke-width="2" stroke-linecap="round"/><g><path d="M400.90437,318.60951c-0.18234,-6.7962 -5.39617,-11.38487 -5.39617,-11.38487c0,0 8.5422,-4.16369 14.95272,10.88445c2.8288,6.64038 2.01141,13.19806 -4.84355,13.35515c-5.93111,0.13767 -4.53065,-6.05853 -4.71299,-12.85473z" data-paper-data="{&quot;index&quot;:null}" fill="#995900" stroke="#663b00" stroke-width="1.5" stroke-linecap="butt"/><path d="M388.09068,334.38274c-2.16311,0 -3.91667,-1.79086 -3.91667,-4c0,-2.20914 1.75355,-4 3.91667,-4c2.16312,0 3.91667,1.79086 3.91667,4c0,2.20914 -1.75355,4 -3.91667,4z" fill="#995900" stroke="#663b00" stroke-width="1.5" stroke-linecap="butt"/><g data-paper-data="{&quot;index&quot;:null}" stroke-linecap="butt"><path d="M394.64635,348.77412c-0.15038,-1.62815 0.15061,-20.99198 2.63159,-21.32985c3.06823,-0.41784 3.13499,11.43122 3.13499,11.43122c0,0 1.84796,-3.39894 7.07175,-2.41766c7.59517,1.42675 5.93329,7.15596 5.49394,11.45996c-0.19022,1.86343 -18.14475,2.8866 -18.33227,0.85634z" fill="#995900" stroke="#663b00" stroke-width="1.5"/><path d="M396.18701,347.08215c-0.00891,-1.7949 2.70744,-3.26348 6.06713,-3.28015c3.35969,-0.01667 6.09048,1.42486 6.09939,3.21977c0.00891,1.79491 -2.70744,3.26348 -6.06713,3.28016c-3.35969,0.01667 -6.09048,-1.42487 -6.09939,-3.21977z" fill="#ffffff" stroke="#e5e5e5" stroke-width="1"/><path d="M410.44391,343.61797c1.26993,-0.84476 2.69889,-0.92905 3.19166,-0.18825c0.49277,0.74079 -0.13723,2.02614 -1.40715,2.8709c-1.26993,0.84476 -2.69889,0.92905 -3.19167,0.18825c-0.49277,-0.74079 0.13723,-2.02614 1.40716,-2.8709z" fill="#ffffff" stroke="#e5e5e5" stroke-width="1"/><path d="M407.14447,340.58028c1.08573,-1.07122 2.47246,-1.4262 3.09735,-0.79285c0.62488,0.63335 0.25128,2.01518 -0.83445,3.0864c-1.08573,1.07122 -2.47246,1.4262 -3.09734,0.79285c-0.62488,-0.63335 -0.25129,-2.01517 0.83445,-3.0864z" fill="#ffffff" stroke="#e5e5e5" stroke-width="1"/><path d="M402.76485,339.84051c0.22713,-1.50823 1.12448,-2.62349 2.00428,-2.49099c0.8798,0.1325 1.40889,1.46257 1.18176,2.9708c-0.22713,1.50823 -1.12448,2.62349 -2.00428,2.49099c-0.8798,-0.1325 -1.40888,-1.46257 -1.18176,-2.9708z" fill="#ffffff" stroke="#e5e5e5" stroke-width="1"/></g><g stroke-linecap="butt"><path d="M393.64629,348.77413c-0.18752,2.03026 -18.14205,1.00709 -18.33227,-0.85634c-0.43935,-4.304 -2.10123,-10.03321 5.49394,-11.45996c5.22379,-0.98128 7.07175,2.41766 7.07175,2.41766c0,0 0.06676,-11.84906 3.13499,-11.43122c2.48097,0.33787 2.78197,19.7017 2.63159,21.32985z" fill="#995900" stroke="#663b00" stroke-width="1.5"/><path d="M392.10563,347.08217c-0.0089,1.7949 -2.7397,3.23644 -6.09939,3.21977c-3.35969,-0.01668 -6.07603,-1.48525 -6.06712,-3.28016c0.0089,-1.79491 2.73969,-3.23644 6.09938,-3.21977c3.35969,0.01667 6.07604,1.48525 6.06713,3.28015z" fill="#ffffff" stroke="#e5e5e5" stroke-width="1"/><path d="M379.25589,346.48887c-0.49278,0.7408 -1.92174,0.65651 -3.19167,-0.18825c-1.26992,-0.84476 -1.89992,-2.13011 -1.40715,-2.8709c0.49277,-0.7408 1.92173,-0.65651 3.19166,0.18825c1.26993,0.84476 1.89993,2.13011 1.40716,2.8709z" fill="#ffffff" stroke="#e5e5e5" stroke-width="1"/><path d="M381.98261,343.66667c-0.62488,0.63335 -2.01161,0.27837 -3.09734,-0.79285c-1.08573,-1.07122 -1.45933,-2.45305 -0.83445,-3.0864c0.62489,-0.63335 2.01162,-0.27837 3.09735,0.79285c1.08573,1.07123 1.45932,2.45305 0.83444,3.0864z" fill="#ffffff" stroke="#e5e5e5" stroke-width="1"/><path d="M384.34603,342.8113c-0.8798,0.1325 -1.77715,-0.98276 -2.00428,-2.49099c-0.22713,-1.50823 0.30196,-2.8383 1.18176,-2.9708c0.8798,-0.1325 1.77715,0.98276 2.00428,2.49099c0.22712,1.50823 -0.30196,2.8383 -1.18176,2.9708z" fill="#ffffff" stroke="#e5e5e5" stroke-width="1"/></g><path d="M393.84453,331.50786c-5.72996,0 -10.375,-6.21205 -10.375,-13.875c0,-7.66295 4.64504,-13.875 10.375,-13.875c5.72996,0 10.375,6.21205 10.375,13.875c0,7.66295 -4.64504,13.875 -10.375,13.875z" fill="#995900" stroke="#663b00" stroke-width="1.5" stroke-linecap="butt"/><path d="M387.5112,273.06038c-6.14416,0 -11.125,-4.98084 -11.125,-11.125c0,-6.14416 4.98084,-11.125 11.125,-11.125c6.14416,0 11.125,4.98083 11.125,11.125c0,6.14416 -4.98084,11.125 -11.125,11.125z" fill="#995900" stroke="#663b00" stroke-width="1.5" stroke-linecap="butt"/><path d="M366.7612,291.06038c-6.14416,0 -11.125,-4.98084 -11.125,-11.125c0,-6.14416 4.98084,-11.125 11.125,-11.125c6.14416,0 11.125,4.98084 11.125,11.125c0,6.14416 -4.98084,11.125 -11.125,11.125z" fill="#995900" stroke="#663b00" stroke-width="1.5" stroke-linecap="butt"/><path d="M391.3862,309.3104c-11.73605,0 -21.25,-9.51395 -21.25,-21.25c0,-11.73605 9.51395,-21.25 21.25,-21.25c11.73605,0 21.25,9.51395 21.25,21.25c0,11.73605 -9.51395,21.25 -21.25,21.25z" fill="#995900" stroke="#663b00" stroke-width="1.5" stroke-linecap="butt"/><path d="M388.17401,290.67924c-3.86599,0 -7,-4.88756 -7,-10.91667c0,-6.02911 3.13401,-10.91667 7,-10.91667c3.86599,0 7,4.88756 7,10.91667c0,6.02911 -3.13401,10.91667 -7,10.91667z" fill="#ffffff" stroke="none" stroke-width="0" stroke-linecap="butt"/><path d="M404.84068,290.23477c-3.86599,0 -7,-4.88756 -7,-10.91667c0,-6.02911 3.13401,-10.91667 7,-10.91667c3.86599,0 7,4.88756 7,10.91667c0,6.02911 -3.13401,10.91667 -7,10.91667z" fill="#ffffff" stroke="none" stroke-width="0" stroke-linecap="butt"/><g stroke="none" stroke-width="0" stroke-linecap="butt"><path d="M411.09683,281.8157c0,0 0.32786,5.3999 -3.86213,5.6355c-3.45308,0.19416 -4.77812,-3.75343 -4.77812,-8.38351c0,-4.63009 1.3174,-8.38351 4.77812,-8.38351c3.82011,0 3.92608,5.84464 3.92608,5.84464l-3.70519,2.59777z" fill="#000000"/><path d="M410.28229,281.82788c0,0 -0.0401,3.55665 -2.36775,3.73607c-1.91828,0.14786 -2.65438,-3.08058 -2.65438,-6.60655c0,-3.52597 0.64001,-6.60655 2.56254,-6.60655c2.12218,0 2.9543,3.89534 2.9543,3.89534l-3.60484,2.86718z" fill="#ffffff"/></g><g stroke="none" stroke-width="0" stroke-linecap="butt"><path d="M394.43016,282.26018c0,0 0.32786,5.3999 -3.86213,5.6355c-3.45308,0.19416 -4.77812,-3.75343 -4.77812,-8.38351c0,-4.63009 1.3174,-8.38351 4.77812,-8.38351c3.82011,0 3.92608,5.84464 3.92608,5.84464l-3.70519,2.59777z" fill="#000000"/><path d="M393.61563,282.27234c0,0 -0.0401,3.55665 -2.36775,3.73607c-1.91828,0.14786 -2.65437,-3.08058 -2.65437,-6.60655c0,-3.52597 0.64,-6.60655 2.56253,-6.60655c2.12218,0 2.9543,3.89534 2.9543,3.89534l-3.60484,2.86718z" fill="#ffffff"/></g><path d="M378.21287,333.63091c-6.85496,-0.15709 -7.67235,-6.71477 -4.84355,-13.35515c6.41052,-15.04814 14.95272,-10.88445 14.95272,-10.88445c0,0 -5.21384,4.58867 -5.39618,11.38487c-0.18234,6.7962 1.21812,12.9924 -4.71299,12.85473z" fill="#995900" stroke="#663b00" stroke-width="1.5" stroke-linecap="butt"/><path d="M394.17787,310.13978c-7.6574,0.58404 -14.29167,-2.92731 -14.29167,-9.41666c0,-6.48935 5.37626,-14.91666 18.875,-15.16666c7.2475,-0.13422 10.625,6.42731 10.625,12.91666c0,6.48935 -7.55094,11.08263 -15.20833,11.66666z" fill="#ffffff" stroke="none" stroke-width="0" stroke-linecap="butt"/><path d="M399.92787,291.91824c-2.83046,0 -5.125,-2.29454 -5.125,-5.125c0,-2.83046 2.29454,-5.125 5.125,-5.125c2.83046,0 5.125,2.29454 5.125,5.125c0,2.83046 -2.29454,5.125 -5.125,5.125z" fill="#000000" stroke="none" stroke-width="0" stroke-linecap="butt"/><path d="M401.42786,286.66821c-1.58782,0 -2.875,-1.28718 -2.875,-2.875c0,-1.58782 1.28718,-2.875 2.875,-2.875c1.58782,0 2.875,1.28718 2.875,2.875c0,1.58782 -1.28718,2.875 -2.875,2.875z" fill="#ffffff" stroke="none" stroke-width="0" stroke-linecap="butt"/><path d="M398.86589,289.90459l-5.16667,12.33333" fill="none" stroke="#000000" stroke-width="1" stroke-linecap="round"/><path d="M396.56034,302.59905c0,0 -2.41049,0.64711 -3.88728,0.16412c-1.8802,-0.61493 -2.19605,-2.35856 -2.19605,-2.35856" fill="none" stroke="#000000" stroke-width="1.5" stroke-linecap="round"/><g fill="#ffffff" stroke="#c9c9c9" stroke-width="1.5" stroke-linecap="butt"><path d="M393.6157,313.90261c0.58663,9.49835 -1.19135,21.40111 -9.59499,16.84798c-3.10667,-1.6832 -2.11118,-4.76117 -0.42802,-7.83766c1.1092,-2.0274 2.89488,-3.21147 2.66186,-6.98447c-0.58663,-9.49836 -0.13752,-9.53718 3.15418,-9.82756c3.2917,-0.29038 3.62035,-1.69665 4.20698,7.80171z"/><path d="M395.61819,313.53621c0.00483,-8.03511 0.33618,-6.87601 2.98094,-6.87349c2.64477,0.00251 3.00556,0.0022 3.00073,8.03731c-0.00192,3.19176 1.48296,4.05686 2.46842,5.68126c1.49539,2.46495 2.44129,4.98165 0.0408,6.62614c-6.49341,4.44839 -8.49573,-5.4361 -8.4909,-13.47122z" data-paper-data="{&quot;index&quot;:null}"/><path d="M406.74566,307.10732c0,0 3.26213,0.9488 2.8524,4.05062c-0.42949,3.25148 -10.48199,1.81531 -15.41114,1.81531c-5.92925,0 -15.17416,2.50371 -15.7762,-1.48592c-0.60392,-4.0021 1.6135,-4.85364 1.6135,-4.85364c0,0 -4.32689,-0.95859 -2.06175,-6.1877c1.05715,-2.44045 12.17593,1.99059 17.11166,1.99059c10.15658,0 13.87994,-5.75915 14.23186,0.61373c0.15094,2.73328 -2.56033,4.05701 -2.56033,4.05701z"/></g></g><text transform="translate(5,356.4341) scale(0.24569,0.24569)" font-size="40" xml:space="preserve" fill="#b6b6b6" fill-rule="nonzero" stroke="none" stroke-width="1" stroke-linecap="butt" stroke-linejoin="miter" stroke-miterlimit="10" stroke-dasharray="" stroke-dashoffset="0" font-family="&quot;ヒラギノ角ゴ Pro W3&quot;, &quot;Hiragino Kaku Gothic Pro&quot;, Osaka, &quot;メイリオ&quot;, Meiryo, &quot;ＭＳ Ｐゴシック&quot;, &quot;MS PGothic&quot;" font-weight="normal" text-anchor="start" style="mix-blend-mode: normal"><tspan x="0" dy="0">Written by @RobloxNoob101</tspan></text><path d="M173.24731,31.5538c-23.56816,-7.38402 -21.33333,-21 -21.33333,-21h77.66666v24.33334c0,0 -32.76517,4.05068 -56.33334,-3.33334z" fill="#edbd1a" stroke="none" stroke-width="0" stroke-linecap="butt"/><text transform="translate(167.58065,26.63714) scale(0.34832,0.34832)" font-size="40" xml:space="preserve" fill="#ffffff" fill-rule="nonzero" stroke="none" stroke-width="1" stroke-linecap="butt" stroke-linejoin="miter" stroke-miterlimit="10" stroke-dasharray="" stroke-dashoffset="0" font-family="Sans Serif" font-weight="normal" text-anchor="start" style="mix-blend-mode: normal"><tspan x="0" dy="0">SIGNUPS</tspan></text></g></g></svg>