<svg version="1.1" xmlns="http://www.w3.org/2000/svg" xmlns:xlink="http://www.w3.org/1999/xlink" width="174.62439" height="643.81475" viewBox="0,0,174.62439,643.81475"><g transform="translate(-135.99705,209.1121)"><g data-paper-data="{&quot;isPaintingLayer&quot;:true}" fill-rule="nonzero" stroke-linejoin="miter" stroke-miterlimit="10" stroke-dasharray="" stroke-dashoffset="0" style="mix-blend-mode: normal"><g fill="#ffffff" stroke="#ffffff" stroke-width="5" stroke-linecap="butt"><path d="M171.87856,-138.49069c0,-37.62245 30.49899,-68.12141 68.12141,-68.12141c37.62245,0 68.12147,30.49899 68.12147,68.12141c0,37.62245 -30.49901,68.12147 -68.12144,68.12147c-37.62245,0 -68.12141,-30.49901 -68.12141,-68.12144z"/></g><g data-paper-data="{&quot;index&quot;:null}"><path d="M286.5103,428.87684c-1.00155,3.47254 -2.39575,3.17677 -2.39575,3.17677c0,0 -17.83909,2.67891 -34.33414,1.62416c-3.63916,-0.23269 -3.38136,-4.0704 -6.27337,-5.83933c-2.28262,-1.39619 -1.04911,-1.72694 -1.94855,-1.80466c-2.98967,-0.25833 -2.84479,-1.0764 -2.84479,-1.0764c0,0 0.5286,-16.44245 0.60157,-18.19363c0.13966,-3.35192 1.24234,-14.1171 1.24234,-14.1171l33.79241,-2.39474l3.19298,11.17544c0,0 0.57618,7.6378 5.69462,12.57314c3.08637,2.97597 4.30727,11.28923 3.27269,14.87635z" fill="#403328" stroke="#292018" stroke-width="4" stroke-linecap="butt"/><path d="M272.44357,425.20252l11.18175,1.42173l-1.6028,2.5695c0,0 -11.2964,1.41923 -17.01104,1.70028c-5.01416,0.2466 -13.32229,-0.36987 -13.32229,-0.36987c0,0 -2.66083,1.04866 -2.66083,-1.59649c0,-2.64515 23.41522,-3.72515 23.41522,-3.72515z" fill="#775f4a" stroke="none" stroke-width="0" stroke-linecap="butt"/><path d="M254.97496,416.88076c0,0 7.21396,-1.56445 12.77469,-1.79616c5.029,-0.20955 14.63174,1.264 14.63174,1.264" fill="none" stroke="#292018" stroke-width="4" stroke-linecap="round"/><path d="M277.543,402.51232c0,0 -5.88181,2.74419 -9.26706,3.09847c-4.10341,0.42943 -13.61598,-0.70372 -13.61598,-0.70372l-3.19298,-10.37721l17.02925,7.18421" fill="none" stroke="#292018" stroke-width="4" stroke-linecap="round"/><path d="M255.4582,403.31057l14.10235,-8.51462l1.33041,7.98246" fill="none" stroke="#292018" stroke-width="4" stroke-linecap="round"/></g><g data-paper-data="{&quot;index&quot;:null}"><path d="M229.6731,429.51962c-1.00155,3.47254 -2.39575,3.17677 -2.39575,3.17677c0,0 -17.83909,2.67891 -34.33414,1.62416c-3.63916,-0.23269 -3.38136,-4.0704 -6.27337,-5.83933c-2.28262,-1.39619 -1.04911,-1.72694 -1.94855,-1.80466c-2.98967,-0.25833 -2.84479,-1.0764 -2.84479,-1.0764c0,0 0.5286,-16.44245 0.60157,-18.19363c0.13966,-3.35192 1.24234,-14.1171 1.24234,-14.1171l33.79241,-2.39474l3.19298,11.17544c0,0 0.57618,7.6378 5.69462,12.57314c3.08637,2.97597 4.30727,11.28923 3.27269,14.87635z" fill="#403328" stroke="#292018" stroke-width="4" stroke-linecap="butt"/><path d="M215.60637,425.8453l11.18175,1.42173l-1.6028,2.5695c0,0 -11.2964,1.41923 -17.01104,1.70028c-5.01416,0.2466 -13.32229,-0.36987 -13.32229,-0.36987c0,0 -2.66083,1.04866 -2.66083,-1.59649c0,-2.64515 23.41522,-3.72515 23.41522,-3.72515z" fill="#775f4a" stroke="none" stroke-width="0" stroke-linecap="butt"/><path d="M198.13776,417.52354c0,0 7.21396,-1.56445 12.77469,-1.79616c5.029,-0.20955 14.63174,1.264 14.63174,1.264" fill="none" stroke="#292018" stroke-width="4" stroke-linecap="round"/><path d="M220.70579,403.1551c0,0 -5.88181,2.74419 -9.26706,3.09847c-4.10341,0.42943 -13.61598,-0.70372 -13.61598,-0.70372l-3.19298,-10.37721l17.02925,7.18421" fill="none" stroke="#292018" stroke-width="4" stroke-linecap="round"/><path d="M198.62099,403.95335l14.10235,-8.51462l1.33041,7.98246" fill="none" stroke="#292018" stroke-width="4" stroke-linecap="round"/></g><g data-paper-data="{&quot;index&quot;:null}" stroke-linecap="butt"><g><g><path d="M264.98626,211.19462c-0.85311,-1.04127 -1.41118,-7.53236 -1.53624,-8.30161c-3.85992,-23.74255 -6.19908,-28.10811 -6.19908,-28.10811c0,0 3.47838,-10.55678 7.34225,-12.22724c2.74938,-1.18863 13.44453,2.92707 13.44453,2.92707c0,0 3.12548,25.196 3.42365,35.22551c0.07031,2.36498 1.60113,4.35795 2.96292,12.51774c1.08366,6.49319 -14.64052,3.82237 -19.43805,-2.03335z" fill="#d9bb9a" stroke="#917c67" stroke-width="4"/><path d="M283.41612,219.29289c0,2.7516 -15.94578,-3.28458 -16.70995,-3.28458c-0.76415,0 -0.35478,-2.78421 -0.35478,-5.53583c0,-2.7516 -0.62223,-5.72034 0.14192,-5.72034c0.1273,0 15.34391,7.15681 15.65608,8.12265c0.82442,2.55078 1.26673,4.12485 1.26673,6.4181z" fill="#d9bb9a" stroke="none" stroke-width="0"/><path d="M270.81406,162.79462c2.44422,-0.3615 4.29549,7.95883 5.71038,18.31086c1.41491,10.35202 0.76844,12.29809 1.54209,19.61999c0.52118,4.93252 1.89625,11.26804 3.22764,16.66549c2.26593,9.18611 -12.32278,-0.26529 -12.52009,-0.59657c-0.17927,-0.30096 0.4266,-7.88774 0.4218,-8.56997c-0.05508,-7.83789 0.18822,-18.24287 -0.62964,-20.56969c-1.80655,-5.13966 -5.24473,-13.21521 -5.78904,-17.1975c-1.41491,-10.35202 5.59264,-7.30111 8.03686,-7.66262z" fill="#ffdbb5" stroke="none" stroke-width="0"/></g><path d="M273.96567,213.9744c-3.27171,-1.14865 -10.51208,-4.60748 -10.51208,-4.60748c0,0 -4.3586,-19.75045 -5.33675,-27.38175c-0.97311,-7.59202 -2.91179,-28.25322 -2.91179,-28.25322l24.99396,-6.73524c0,0 3.4541,15.22879 3.84856,24.75768c0.40358,9.74917 2.02298,44.53232 2.02298,44.53232c0,0 -8.34831,-0.99341 -12.10489,-2.31229z" fill="#403328" stroke="#292018" stroke-width="4"/></g><g><path d="M285.40287,255.34951c0,7.39879 -0.78366,15.02053 -5.30981,15.02053c-1.48805,0 -1.27002,-0.05783 -2.71999,-1.19108c-1.43559,-1.12202 -1.73109,0.71197 -3.21397,-0.9877c-0.58184,-0.66691 -0.887,0.06027 -1.87565,-1.77209c-0.68102,-1.26221 -0.2116,-3.10249 -0.87644,-4.7199c-0.9825,-2.39018 -2.3948,-5.3878 -2.3948,-6.34975c0,-7.39879 3.66917,-13.39668 8.19532,-13.39668c4.52615,0 8.19532,5.9979 8.19532,13.39668z" fill="#917c67" stroke="none" stroke-width="NaN"/><g><path d="M283.31859,271.1151c-2.08079,-0.90162 -0.81245,-19.64829 -2.93741,-24.26581c-1.93265,-4.19964 -3.70063,-4.79858 -6.4397,-4.60559c-2.55997,0.18038 -0.56833,12.76042 -2.15493,12.77967c-1.62855,0.01975 -5.86746,6.50862 -6.98512,-6.61403c-0.89184,-10.47116 -0.09735,-27.13523 -0.92568,-32.23037c0.04261,-2.89098 20.37401,0.70463 21.02696,4.64474c0.07031,2.36498 0.92706,2.18054 2.28885,10.34033c1.27636,7.64782 5.89406,17.54901 4.83925,20.75327c-3.18711,9.68171 -4.75713,20.91156 -8.71222,19.19779z" fill="#d9bb9a" stroke="#917c67" stroke-width="4"/><path d="M281.50704,222.48391c2.26593,9.18611 2.06766,11.12373 3.32917,15.89945c1.26152,4.77572 4.49728,9.15912 4.2324,11.63743c-0.71019,6.64479 -4.55361,17.95095 -4.85254,12.46632c-0.24373,-4.47184 0.60071,-13.14855 -0.94102,-18.33627c-0.72444,-2.43768 -2.11261,-6.2799 -5.9559,-7.37002c-1.54909,-0.43939 -7.35281,3.37677 -8.47746,-0.15853c-0.57085,-1.79442 -0.06174,-3.63647 -0.24552,-6.15104c-0.74598,-10.20623 0.62355,-10.79909 0.42624,-11.13036c-1.32362,-2.22218 11.15323,-2.25442 12.48461,3.14304z" fill="#ffdbb5" stroke="none" stroke-width="0"/></g><path d="M277.75619,236.10424c-7.41095,-1.89035 -15.11594,0.03968 -15.11594,0.03968l1.07943,-22.99419l22.61697,5.25903l4.89515,20.51354c0,0 -6.51016,-1.04133 -13.47561,-2.81806z" fill="#403328" stroke="#292018" stroke-width="4"/><path d="M265.97724,217.20931l-0.88694,-9.59541l18.62573,6.08941l0.70956,8.67277z" fill="#403328" stroke="none" stroke-width="0"/></g></g><path d="M200.30921,190.60502c0,0 2.70207,-32.95208 0.45431,-37.25438c-0.39917,-0.76405 -4.25945,-7.0311 -10.26423,-8.69033c-4.5701,-1.26281 -7.99564,9.4359 -6.64731,6.85249c3.11994,-5.97783 8.08448,-16.19225 13.22356,-17.43162c10.46004,-2.5226 23.3407,-10.04987 32.44946,-10.04987c9.9556,0 21.0822,4.46167 34.41753,9.23404c12.95799,4.63733 9.30067,13.46349 9.30067,13.46349c0,0 -11.70157,7.59435 -12.14112,8.32621c-2.12732,3.542 -2.94667,33.95348 -2.94667,33.95348l7.17737,37.25845c0,0 -12.96309,10.26101 -36.50054,9.68748c-21.93372,-0.53445 -36.29265,-8.25762 -36.29265,-8.25762z" data-paper-data="{&quot;index&quot;:null}" fill="#95d2a1" stroke="#67916f" stroke-width="4" stroke-linecap="butt"/><path d="M249.26551,166.29672c0,1.43813 -1.17474,8.83633 -0.68779,12.37378c1.67519,12.16943 6.67434,28.1724 4.64778,29.50494c-4.97767,3.27299 -21.65178,1.46977 -26.66987,1.518c-4.0701,0.03912 -18.60016,0.34756 -22.77946,-3.43832c-3.24289,-2.93763 2.09477,-14.9148 3.90599,-27.5867c0.523,-3.6591 -0.76879,-10.61981 -0.76879,-13.43332c0,-3.03332 -4.37042,-16.64263 -5.86055,-19.74072c-0.54554,-1.13421 -4.52245,1.00834 -6.31085,0.25138c-1.55106,-0.6565 -0.97003,-4.18822 -1.07038,-5.36611c-0.19647,-2.30635 4.13899,-5.46238 8.70721,-6.95809c4.56822,-1.49572 19.20257,-4.37018 25.89162,-4.37018c6.89043,0 20.77042,1.86564 26.62256,4.61672c1.10361,0.5188 8.28366,3.11672 7.43627,5.98293c-0.61205,2.07019 -0.47598,6.02482 -2.57896,6.71288c-2.31393,0.75708 -6.86197,-1.81934 -7.071,-0.83632c-1.00219,4.71316 -3.41381,17.74228 -3.41381,20.76914z" data-paper-data="{&quot;index&quot;:null}" fill="#a6eab4" stroke="none" stroke-width="0" stroke-linecap="butt"/><g data-paper-data="{&quot;index&quot;:null}" stroke-linecap="butt"><path d="M202.72024,129.1l1.0404,-8.78361c0,0 13.67279,-1.56741 24.40023,-1.46224c10.72745,0.10517 27.94324,2.72087 27.94324,2.72087v5.58772z" fill="#292018" stroke="#292018" stroke-width="4"/><g><path d="M212.15773,117.52736l33.30091,0.24216l0.40645,13.46911c0,0 -5.00848,9.02158 -13.992,8.91683c-8.69851,-0.10144 -22.59942,-9.82688 -22.59942,-9.82688z" fill="#d9bb9a" stroke="#917c67" stroke-width="4"/><path d="M239.33438,127.39632c0,1.23441 -2.20831,3.08655 -4.93241,3.08655c-2.72409,0 -4.93242,-1.85215 -4.93242,-3.08655c0,-1.23441 2.20832,-1.38362 4.93242,-1.38362c2.72409,0 4.93241,0.14922 4.93241,1.38362z" fill="#ffdbb5" stroke="none" stroke-width="0"/></g></g><g data-paper-data="{&quot;index&quot;:null}" stroke-linecap="butt"><g fill="#465b9c"><path d="M190.65353,297.61749c1.05539,-7.5918 2.9177,-27.5213 2.9177,-27.5213l32.5371,1.27273c0,0 0.4632,27.52842 -0.60892,36.02357c-1.12814,8.93912 -3.43607,22.53719 -3.43607,22.53719c0,0 -11.70686,4.40191 -16.98345,4.41854c-5.04381,0.0159 -14.63723,-3.7053 -14.63723,-3.7053c0,0 -1.05744,-23.90209 0.21087,-33.02543z" stroke="#2e3c67" stroke-width="4"/><path d="M195.13656,272.70121l0.17514,-4.58865l24.12922,0.90058l-0.17514,4.58865z" stroke="none" stroke-width="0"/></g><path d="M197.16817,280.85582c1.10933,-14.22194 3.20129,-26.10284 9.26862,-26.02187c14.02856,0.18724 11.92915,13.35513 9.91296,36.43313c-1.19791,13.71172 -4.16151,28.95937 -7.79549,35.45595c-1.81595,3.24645 -5.22755,4.34496 -6.98995,4.34496c-2.58897,0 -5.29502,-0.96406 -6.52546,-3.42988c-0.74182,-1.48659 0.76356,-5.38365 0.46454,-9.14993c-0.21827,-2.74932 -0.32369,-6.24464 -0.32369,-10.68841c0,-6.15584 1.51662,-20.89481 1.98847,-26.94394z" fill="#5671c0" stroke="none" stroke-width="0"/></g><g data-paper-data="{&quot;index&quot;:null}" stroke-linecap="butt"><g fill="#465b9c"><path d="M184.49081,391.4049l1.72371,-4.2409l-1.79211,-2.40665l1.34611,-3.65522c0,0 0.54752,-18.62748 1.2256,-23.24751c1.11426,-7.5918 2.54829,-30.42984 2.54829,-30.42984l32.75546,-0.41115c0,0 2.08553,29.21231 0.95363,37.70746c-0.47155,3.53906 -2.27102,17.24261 -2.27102,17.24261l-0.1679,4.1033l-1.88775,2.1571l1.00303,4.8731c0,0 -12.66394,1.71207 -18.23484,1.7287c-5.32515,0.0159 -17.20221,-3.42101 -17.20221,-3.42101z" stroke="#2e3c67" stroke-width="4"/><path d="M192.60764,330.2316l0.18491,-5.39583l28.57046,-0.79023c0,0 -0.23469,5.33641 -0.89552,6.44952c-0.25537,0.43016 -6.73968,0.43534 -6.73968,0.43534z" stroke="none" stroke-width="0"/></g><path d="M194.21735,326.79357c0.9621,-4.27492 3.34049,-2.40878 6.37178,-2.49775c4.26614,1.08902 9.35676,-2.54544 8.79458,1.17232c-2.71079,17.92666 -2.06107,40.26295 -2.31014,46.28134c-0.14043,3.39311 2.94343,10.34047 -0.98001,12.28292c-1.52502,0.75501 -5.40122,1.6343 -8.45763,1.07513c-3.21432,-0.58807 -5.28242,-1.09753 -6.52988,-2.66712c-1.24746,-1.56959 1.4226,-4.3221 0.64002,-4.74372c-2.4931,-1.34316 1.41921,-16.61719 1.85279,-27.09397c0.23081,-5.57738 -0.47675,-18.94266 0.61849,-23.80915z" fill="#5671c0" stroke="none" stroke-width="0"/></g><g data-paper-data="{&quot;index&quot;:null}" stroke-linecap="butt"><g fill="#465b9c"><path d="M236.62261,330.69507c0,0 -2.35586,-13.59806 -3.50742,-22.53719c-1.09437,-8.49514 -0.62154,-36.02356 -0.62154,-36.02356l33.21268,-1.27274c0,0 1.90098,19.92951 2.97827,27.5213c1.29463,9.12335 0.21524,33.02543 0.21524,33.02543c0,0 -9.79262,3.72119 -14.94115,3.70529z" stroke="#2e3c67" stroke-width="4"/><path d="M239.47826,274.36719l-0.17878,-4.58865l24.63025,-0.90059l0.17878,4.58865z" stroke="none" stroke-width="0"/></g><path d="M260.83569,308.36338c0,4.44377 0.09421,7.9391 -0.12861,10.6884c-0.30523,3.76628 0.42422,8.06693 -0.333,9.55352c-1.25598,2.46582 -1.19307,3.02629 -3.8358,3.02629c-1.799,0 -7.29942,-1.09851 -9.15307,-4.34496c-3.70943,-6.49657 -4.71657,-21.74424 -5.93936,-35.45595c-2.05805,-23.078 -4.20106,-36.2459 10.11878,-36.43312c6.19331,-0.08098 7.31972,11.79993 8.4521,26.02187c0.48163,6.04913 0.81896,26.94394 0.81896,26.94394z" fill="#5671c0" stroke="none" stroke-width="0"/></g><g data-paper-data="{&quot;index&quot;:null}" stroke-linecap="butt"><g fill="#465b9c"><path d="M256.87428,395.5913c-5.38615,-0.01662 -17.63008,-1.7287 -17.63008,-1.7287l0.96977,-4.8731l-1.82515,-2.15711l-0.16232,-4.10329c0,0 -1.73978,-13.70354 -2.1957,-17.24261c-1.09437,-8.49514 0.92199,-37.70746 0.92199,-37.70746l31.66912,0.41115c0,0 1.38648,22.83804 2.46379,30.42984c0.6556,4.62004 1.18497,23.24751 1.18497,23.24751l1.30147,3.65522l-1.73268,2.40665l1.66655,4.24089c0,0 -11.48316,3.4369 -16.63169,3.42101z" stroke="#2e3c67" stroke-width="4"/><path d="M245.82393,331.69579c0,0 -6.26926,-0.00518 -6.51616,-0.43534c-0.63892,-1.11311 -0.86583,-6.44953 -0.86583,-6.44953l28.20155,0.58843l0.38059,5.39586z" stroke="none" stroke-width="0"/></g><path d="M261.65964,351.16632c0.41921,10.47678 4.20176,25.7508 1.79134,27.09397c-0.75662,0.42162 1.82487,3.17414 0.61878,4.74373c-1.20609,1.56959 -3.20561,2.07905 -6.31332,2.6671c-2.95503,0.55918 -6.70268,-0.32012 -8.17713,-1.07513c-3.79333,-1.94245 -0.81173,-8.88981 -0.94751,-12.28292c-0.24081,-6.01838 0.38737,-28.35467 -2.23353,-46.28134c-0.54353,-3.71776 4.37826,-0.0833 8.50291,-1.17232c2.93075,0.08897 5.23026,-1.77716 6.16046,2.49775c1.05892,4.86649 0.37482,18.23177 0.59799,23.80915z" fill="#5671c0" stroke="none" stroke-width="0"/></g><g data-paper-data="{&quot;index&quot;:null}"><g><g><path d="M193.32058,273.69353c0,0 0.63571,-18.31854 1.6811,-26.50811c1.0414,-8.15841 4.06504,-19.79014 4.06504,-19.79014l63.97156,0.42572c0,0 3.17288,13.02482 3.49816,19.54905c0.60358,12.10567 -0.32964,27.10398 -0.32964,27.10398l-33.46599,-0.07217l-0.43235,-5.56327l-3.92117,-0.55397l0.21286,5.7848z" fill="#465b9c" stroke="#2e3c67" stroke-width="4" stroke-linecap="butt"/><path d="M237.1308,245.06312c0,0 0.1753,14.15353 -0.25751,18.2756c-0.23364,2.22519 -2.13396,4.50102 -2.13396,4.50102" fill="none" stroke="#2e3c67" stroke-width="4" stroke-linecap="round"/><path d="M226.56852,251.87482v-6.8117h10.56227" fill="none" stroke="#2e3c67" stroke-width="4" stroke-linecap="round"/><path d="M206.91133,241.2706c0,0 -2.78967,9.07125 -4.16556,12.36817c-1.0262,2.45897 -3.35283,5.64728 -3.35283,5.64728" fill="none" stroke="#2e3c67" stroke-width="4" stroke-linecap="round"/><path d="M262.51276,261.41469c0,0 -2.32663,-3.18831 -3.35283,-5.64728c-1.3759,-3.29692 -4.16556,-12.36816 -4.16556,-12.36816" data-paper-data="{&quot;index&quot;:null}" fill="none" stroke="#2e3c67" stroke-width="4" stroke-linecap="round"/><path d="M195.05545,276.60321l0.84834,-10.62262l28.63401,0.27335l-1.18049,10.62262z" fill="#465b9c" stroke="none" stroke-width="0" stroke-linecap="butt"/><path d="M234.89346,277.40873l0.58742,-10.62262l27.709,-0.27333l-0.05347,10.8z" data-paper-data="{&quot;index&quot;:null}" fill="#465b9c" stroke="none" stroke-width="0" stroke-linecap="butt"/></g><g stroke="#281a0d" stroke-width="4" stroke-linecap="butt"><path d="M195.28024,233.78124c0,0 -0.25621,-3.99719 0.03027,-5.66324c0.30957,-1.80034 2.16189,-3.91571 2.16189,-3.91571l9.76513,-0.35477c0,0 3.18861,3.80793 3.18861,5.46355c0,1.65561 -3.18861,4.47018 -3.18861,4.47018z" fill="#3f2b1a"/><path d="M206.44038,234.6327l1.79361,-10.21754l10.16371,0.07096c0,0 3.18861,3.80793 3.18861,5.46355c0,1.65561 -3.18861,4.47018 -3.18861,4.47018z" fill="#67472a"/><path d="M218.59698,234.84556l1.5943,-10.00468l10.36299,-0.14192c0,0 3.18861,3.80794 3.18861,5.46355c0,1.65561 -3.18861,4.47017 -3.18861,4.47017z" fill="#3f2b1a"/><path d="M231.62924,235.34677l0.26286,-10.72394l11.21012,-0.04174c0,0 3.36098,3.63487 3.43762,5.28847c0.07664,1.65359 -2.97779,4.63311 -2.97779,4.63311z" fill="#67472a"/><path d="M243.78082,234.91735l0.86073,-10.29821l10.61226,-0.46747c0,0 3.36098,3.63487 3.43762,5.28846c0.07664,1.65359 -2.97779,4.63311 -2.97779,4.63311z" fill="#3f2b1a"/><path d="M255.94242,234.70816l0.59146,-10.08535l8.42829,-0.68033c0,0 2.64231,3.63487 2.70255,5.28847c0.06026,1.65359 -2.34104,4.63311 -2.34104,4.63311z" fill="#67472a"/></g><path d="M200.37825,235.34437l1.1647,-12.76968l5.77809,-0.14841l0.62891,12.76968z" fill="#465b9c" stroke="#2e3c67" stroke-width="4" stroke-linecap="butt"/><g fill="#67472a" stroke="#281a0d" stroke-width="4" stroke-linecap="butt"><path d="M255.45078,233.57278l5.45478,-8.64844l9.47458,4.23795c0,0 1.27285,4.65756 0.58447,6.14035c-0.68838,1.48279 -4.71478,2.75636 -4.71478,2.75636z"/></g><path d="M223.3799,237.82569c0,0 -1.19573,-4.98486 -1.19573,-7.45029c0,-2.42996 1.19573,-7.23743 1.19573,-7.23743h17.53737c0,0 1.5943,5.71575 1.5943,8.30175c0,2.26808 -1.5943,6.38597 -1.5943,6.38597z" fill="none" stroke="#716b65" stroke-width="4" stroke-linecap="butt"/><path d="M254.38537,235.40883l0.62891,-12.76968l5.77809,0.14841l1.1647,12.76968z" data-paper-data="{&quot;index&quot;:null}" fill="#465b9c" stroke="#2e3c67" stroke-width="4" stroke-linecap="butt"/></g><path d="M217.30682,276.83011c0,3.03703 -13.18633,0.88695 -18.18507,0.88695c-2.67371,0 -0.39622,-11.51649 0.58127,-14.36842c1.16251,-3.39181 6.87552,-6.74074 11.87426,-6.74074c4.99873,0 5.72954,17.18519 5.72954,20.22222z" fill="#5671c0" stroke="none" stroke-width="0" stroke-linecap="butt"/><path d="M240.02264,278.32245c0,-3.03703 0.73081,-20.22222 5.72954,-20.22222c4.99873,0 10.71175,3.34894 11.87426,6.74075c0.97748,2.85193 3.25497,14.36842 0.58127,14.36842c-4.99873,0 -18.18506,2.15009 -18.18506,-0.88694z" data-paper-data="{&quot;index&quot;:null}" fill="#5671c0" stroke="none" stroke-width="0" stroke-linecap="butt"/></g><g data-paper-data="{&quot;index&quot;:null}" stroke-linecap="butt"><g data-paper-data="{&quot;index&quot;:null}" fill="#403328"><g><path d="M266.42674,246.48356c-5.79313,0.6874 -21.94008,-8.0931 -21.94008,-8.0931c0,0 0.21491,-51.0209 -0.63615,-69.1985c-0.7886,-16.84341 -0.48505,-25.79275 -0.48505,-25.79275c0,0 7.55991,-4.17116 9.69793,-9.14879c1.30037,-3.02746 0.36813,-5.29971 1.94018,-5.63407c3.71714,-0.79061 5.39478,1.2926 11.23447,4.40567c5.83967,3.11307 12.27317,9.42227 13.66349,11.90587c1.39031,2.4836 -5.83835,2.0726 -5.83835,2.0726c0,0 -6.06776,3.43983 -10.13193,5.40211c-3.15708,1.52433 -2.58407,25.6153 -2.58407,25.6153l-0.04245,14.6065l9.64236,42.30702c0,0 -0.58808,11.08558 -4.52035,11.55218z" stroke="#292018" stroke-width="4"/><path d="M276.24313,143.89589c0,0 1.99027,2.55023 2.42784,3.56738c0.41316,0.96042 0.48729,3.01371 0.48729,3.01371c0,0 -12.446,7.01131 -14.55661,7.71361c-0.69845,0.23241 -4.62748,-0.06234 -5.13174,-3.26117c-0.50427,-3.19883 1.86868,-6.29728 1.86868,-6.29728z" stroke="none" stroke-width="NaN"/></g><path d="M253.34903,136.02909c-2.19501,2.08365 -6.67801,4.79596 -6.67801,4.79596l1.12121,-10.37719l9.82382,-6.52952l0.59207,4.1587c0,0 -2.57299,5.78189 -4.85909,7.95204z" stroke="#292018" stroke-width="4"/></g><path d="M251.92249,157.18237c0,1.95833 -0.65264,3.54587 -1.4577,3.54587c-0.80506,0 -1.4577,-1.58754 -1.4577,-3.54587c0,-1.95833 0.65264,-3.54587 1.4577,-3.54587c0.80506,0 1.4577,1.58753 1.4577,3.54587z" fill="#dfbd28" stroke="#dfbd28" stroke-width="4"/><path d="M252.17759,179.14944c0,1.95832 -0.65264,3.54587 -1.4577,3.54587c-0.80506,0 -1.4577,-1.58754 -1.4577,-3.54587c0,-1.95832 0.65264,-3.54587 1.4577,-3.54587c0.80506,0 1.4577,1.58754 1.4577,3.54587z" fill="#dfbd28" stroke="#dfbd28" stroke-width="4"/><path d="M252.76068,200.59762c0,1.95832 -0.65264,3.54587 -1.4577,3.54587c-0.80506,0 -1.4577,-1.58754 -1.4577,-3.54587c0,-1.95832 0.65264,-3.54587 1.4577,-3.54587c0.80506,0 1.4577,1.58754 1.4577,3.54587z" fill="#dfbd28" stroke="#dfbd28" stroke-width="4"/><path d="M253.30733,220.835c0,1.95832 -0.65264,3.54587 -1.4577,3.54587c-0.80506,0 -1.4577,-1.58754 -1.4577,-3.54587c0,-1.95832 0.65264,-3.54587 1.4577,-3.54587c0.80506,0 1.4577,1.58754 1.4577,3.54587z" fill="#dfbd28" stroke="#dfbd28" stroke-width="4"/></g><g data-paper-data="{&quot;index&quot;:null}" stroke="#292018" stroke-width="4"><path d="M189.57331,233.51489l8.42665,-39.72402l0.20695,-17.02807c0,0 4.39196,-23.8488 0.34959,-25.37313c-5.20382,-1.96228 -12.97305,-5.40211 -12.97305,-5.40211c0,0 -1.75571,10.41101 0.02449,7.9274c1.78019,-2.48361 2.51772,-18.7928 9.99493,-21.90586c7.4772,-3.11307 9.62527,-5.19627 14.38476,-4.40567c2.01289,0.33437 0.81922,2.60661 2.48424,5.63407c2.73756,4.97762 12.41738,9.14879 12.41738,9.14879c0,0 0.38866,8.94934 -0.62107,25.79275c-1.08972,18.1776 -0.81454,69.19851 -0.81454,69.19851c0,0 -13.35828,9.50698 -20.77588,8.81957c-5.03494,-0.4666 -13.10442,-12.68224 -13.10442,-12.68224z" fill="#403328" stroke-linecap="butt"/><path d="M211.37186,129.00139l-0.28713,-5.8538l14.93032,7.98246l1.4356,10.37719c0,0 -5.74011,-2.71231 -8.55062,-4.79596c-2.92717,-2.17014 -7.52818,-7.70989 -7.52818,-7.70989z" fill="#403328" stroke-linecap="butt"/><path d="M218.66719,152.78317l-0.74658,9.16737" fill="none" stroke-linecap="round"/><path d="M217.02471,175.02699l0.18665,7.43768" fill="none" stroke-linecap="round"/><path d="M216.91273,204.50094l0.18664,-7.78361" fill="none" stroke-linecap="round"/><path d="M216.12882,226.12209l0.18664,-8.64845" fill="none" stroke-linecap="round"/></g><path d="M285.95515,98.13189c0,0 -2.35887,6.22444 -5.4196,6.63304c-0.98991,0.13214 -4.09347,1.80485 -5.83258,1.94627c-1.30258,0.10592 0.20575,7.53473 0.20575,7.53473c0,0 -8.901,4.32747 -11.03361,4.42146c-0.87693,0.03864 -12.08619,-1.71551 -13.6662,-1.57869c-2.35824,0.20422 -3.46694,2.1159 -6.39783,3.53497c-3.54651,1.71713 -8.73363,2.97288 -8.73363,2.97288c0,0 -4.75061,-0.81127 -9.15484,-2.30388c-2.72513,-0.92356 -5.0687,-2.76782 -6.8212,-2.85706c-1.5551,-0.07919 -12.63833,2.92727 -14.10817,2.89496c-3.54329,-0.07793 -8.88339,-3.61159 -8.88339,-3.61159c0,0 1.02553,-9.42414 0.42221,-9.44668c-1.51244,-0.05648 -4.79418,-0.02439 -5.8613,-0.03139c-3.33235,-0.0218 -7.69499,-4.79916 -7.69499,-4.79916c0,0 3.07981,-3.17375 4.14402,-7.70681c1.63275,-6.95479 4.23357,-26.37205 4.23357,-26.37205l82.91421,-1.49021c0,0 4.74503,17.20978 7.20359,23.39788c1.81286,4.56293 4.48402,6.86126 4.48402,6.86126z" data-paper-data="{&quot;index&quot;:null}" fill="#14161a" stroke="#14161a" stroke-width="4" stroke-linecap="butt"/><path d="M272.21896,86.93728c0.94066,-5.70535 2.94149,-9.58028 4.46895,-8.6549c1.52746,0.92538 2.00315,6.30064 1.06248,12.00598c-0.94068,5.70534 -2.9415,9.58028 -4.46896,8.6549c-1.52746,-0.92537 -2.00314,-6.30063 -1.06247,-12.00597z" data-paper-data="{&quot;index&quot;:null}" fill="#d9bb9a" stroke="#917c67" stroke-width="4" stroke-linecap="butt"/><path d="M190.7132,82.78742c1.46262,-1.02482 3.71645,2.70865 5.03406,8.33889c1.31761,5.63025 1.20006,11.02522 -0.26254,12.05003c-1.4626,1.02481 -3.71643,-2.70866 -5.03404,-8.3389c-1.31761,-5.63024 -1.20006,-11.02521 0.26254,-12.05002z" data-paper-data="{&quot;index&quot;:null}" fill="#d9bb9a" stroke="#917c67" stroke-width="4" stroke-linecap="butt"/><g data-paper-data="{&quot;index&quot;:null}" stroke-linecap="butt"><path d="M234.14383,126.86548c-14.6269,0.26476 -40.70143,-18.07337 -41.19474,-45.32743c-0.49331,-27.25404 15.67716,-43.06589 39.58694,-43.49868c23.9098,-0.43278 40.6419,14.78351 41.13521,42.03756c0.49332,27.25406 -23.43477,46.49726 -39.52739,46.78855z" data-paper-data="{&quot;index&quot;:null}" fill="#d9bb9a" stroke="#917c67" stroke-width="4"/><path d="M232.11969,44.62877c22.02589,-0.39867 34.67669,14.31069 35.07135,36.11394c0.39466,21.80325 -18.24562,39.82148 -33.69182,40.10106c-11.05971,0.20018 -33.90385,-17.06713 -34.29851,-38.87038c-0.39465,-21.80325 11.16723,-36.95089 32.91898,-37.34462z" fill="#ffdbb5" stroke="none" stroke-width="7.5"/></g><g data-paper-data="{&quot;index&quot;:null}" stroke-linecap="butt"><path d="M273.37894,74.32101c-2.15293,1.03279 -5.91672,-4.8581 -9.37479,-4.67211c-3.71531,0.19982 -6.37291,1.37157 -15.72649,2.60873c-3.82641,0.50609 -10.84182,-0.37797 -17.57829,-0.77971c-4.66928,-0.27846 -22.69068,-3.04151 -22.69068,-3.04151c0,0 -1.65449,3.95742 -3.15653,5.22388c-1.50204,1.26647 -3.79958,3.50776 -4.19185,3.58772c-7.05237,1.43761 -6.71098,1.96363 -8.35072,1.18443c-0.01232,-0.66992 -1.15819,2.8388 -0.86294,7.01267c0.15794,2.23293 -1.06851,5.80964 -1.06851,5.80964c0,0 -0.97985,-0.36313 -2.60895,-2.5083c-0.9651,-1.27085 -3.52324,-0.68424 -3.8462,-2.06324c-0.44391,-1.89549 2.80861,-5.89118 1.56136,-8.44418c-0.57174,-1.17033 -3.9742,-0.6511 -6.22013,-2.07334c-2.26686,-1.43549 -4.48548,-5.20908 -4.48548,-5.20908c0,0 8.68074,-11.65683 9.24135,-13.17659c1.23588,-3.35031 -0.01331,-7.80033 0.15456,-10.98724c0.5233,-9.93457 6.82784,-17.15298 13.97594,-25.1888c7.65646,-2.82359 21.25909,-5.92405 25.66865,-8.27936c6.75303,-3.60703 15.91139,2.96946 27.39985,3.8011c11.48847,0.83164 11.16246,1.4809 19.82785,9.66714c4.50213,4.25318 6.47917,9.77578 10.15541,18.06577c0.64524,1.45502 0.30711,6.7194 1.20252,9.01588c1.80457,4.62826 7.64688,10.36118 7.64688,10.36118c0,0 -3.16615,4.02176 -4.20919,5.6899c-1.04303,1.66816 -5.57551,2.86643 -5.00932,3.66629c2.19103,3.09521 4.73616,7.55567 4.73616,7.55567c0,0 -3.84037,1.22805 -4.79743,3.49519c-1.17513,2.78369 -3.65997,2.67346 -3.65997,2.67346c0,0 -1.40773,-3.29055 -1.76018,-6.08521c-0.46266,-3.66847 -1.81378,-7.4036 -1.97287,-6.91004z" fill="#252931" stroke="#14161a" stroke-width="4"/><path d="M209.68607,59.64481c-3.50984,-1.35629 -5.97306,-16.37417 -3.25331,-22.09479c3.73671,-7.85963 2.45817,-15.30026 14.6165,-15.70456c4.28325,-0.14244 4.00767,-3.93137 8.76896,-3.06104c7.35191,1.34387 22.2764,1.76381 29.60971,6.18314c8.82221,5.31661 15.24572,15.51506 15.40946,20.4393c0.34023,10.23143 7.28093,17.64558 7.28093,17.64558c0,0 -1.22918,3.32768 -5.27724,3.03799c-19.55435,-1.39937 -42.59554,3.04475 -67.15503,-6.44563z" fill="#494c5e" stroke="none" stroke-width="7.5"/><path d="M219.02795,30.36268c0.13086,3.93516 7.04719,7.99619 3.8101,12.27397c-1.06822,1.41165 -9.11965,-3.81482 -12.34234,-4.97478c-2.09925,2.49361 12.70678,10.57218 11.59433,13.8958c-1.11245,3.32361 -14.30663,-3.25843 -15.08299,-0.97241c-0.27189,0.80057 8.41363,3.38896 10.02237,6.30527c1.18082,2.14061 -3.30738,3.40522 -3.42145,4.08029c-0.36282,2.14722 -8.04493,2.39123 -8.9648,1.20831c-6.37015,-8.19174 -1.9554,-28.18087 -1.96333,-28.4196c-0.13086,-3.93516 13.35709,-14.82015 17.17118,-14.94698c0.96078,-0.03195 9.88313,-1.73598 10.35817,-0.05461c0.11695,0.41389 -3.0752,0.63184 -4.85464,1.74771c-2.13798,1.34071 -2.93035,3.61131 -2.74001,4.19216c0.66139,2.0184 3.14557,4.04087 2.71986,5.40463c-0.58005,1.85817 -6.35262,-1.12777 -6.30647,0.26024z" fill="#252931" stroke="none" stroke-width="7.5"/><path d="M265.37639,62.44906c-1.4548,-2.54357 -11.74191,-5.24291 -17.28835,-7.80182c-1.90634,-0.8795 -3.50687,-3.56758 -3.67941,-4.61301c-0.18586,-1.1261 6.14018,-1.26381 11.79799,-0.25897c7.30533,1.29744 14.50105,3.88057 15.62345,2.22991c0.98438,-1.44768 -14.66054,-4.6621 -15.49621,-8.06588c-0.52608,-2.14279 14.14745,0.53268 13.76541,-1.85115c-0.13379,-0.83482 -2.71511,-2.38825 -5.5003,-4.21462c-2.04438,-1.34059 -7.41213,-7.84176 -7.62679,-8.49188c-0.68277,-2.06785 7.95277,0.20649 9.31883,0.82236c9.46013,4.26493 11.35496,23.02041 11.47355,23.22775c0.76978,1.34589 6.91208,7.59764 6.03287,11.0677c-1.35346,5.34194 -10.46518,2.38019 -12.47335,3.52876c-0.83447,0.47727 -3.54075,-0.57655 -4.74652,-1.84099c-0.65342,-0.68521 -10.99076,0.62129 -11.79653,-0.15666c-1.52804,-1.47528 4.91483,-2.30922 6.81535,-2.87401c1.90054,-0.56479 4.46952,0.49804 3.78001,-0.70748z" fill="#252931" stroke="none" stroke-width="7.5"/><path d="M245.29098,31.79156c-0.49562,3.23323 -3.87693,4.04797 -7.7688,3.45138c-3.89189,-0.59657 -9.32698,-5.14847 -8.83135,-8.38173c0.49563,-3.23325 6.12762,-2.367 10.0195,-1.77039c3.8919,0.59659 7.07629,3.46749 6.58066,6.70074z" fill="#686c85" stroke="none" stroke-width="7.5"/><path d="M259.1165,37.25095c-0.28616,1.8668 -3.4797,1.82193 -5.72677,1.47747c-2.24708,-0.34446 -4.25332,-1.46475 -3.96716,-3.33155c0.28615,-1.86681 2.5736,-2.66973 4.82067,-2.32527c2.24709,0.34445 5.15943,2.31253 4.87327,4.17933z" fill="#686c85" stroke="none" stroke-width="7.5"/><path d="M232.64983,39.33861c-0.56506,1.80208 -1.51095,1.31651 -3.68015,0.63633c-2.16919,-0.68017 -3.98303,-2.09088 -3.41795,-3.89296c0.56507,-1.80207 2.08662,-0.58523 4.25582,0.09495c2.16919,0.68017 3.40737,1.3596 2.84229,3.16168z" fill="#686c85" stroke="none" stroke-width="7.5"/></g><path d="M184.64444,72.21975c-0.03602,-1.08301 1.49315,-2.55664 0.2835,-3.41966c-1.20964,-0.86302 -5.06854,5.24586 -4.04594,1.22646c1.0226,-4.0194 5.415,-7.42714 5.9687,-8.78397c0.99808,-2.44571 1.49711,4.15106 1.70701,3.83345c1.31973,-1.99695 1.30329,-4.22328 2.29208,-4.25616c1.03787,-0.03451 1.1915,4.63807 2.14793,4.81906c1.49834,0.28353 3.45646,-1.28914 3.5007,0.04116c0.0407,1.22413 -0.46883,2.91229 -2.13856,4.96714c-1.30313,1.6037 -3.64433,3.78493 -4.81199,3.82376c-1.10941,0.03689 0.80403,-3.25399 -0.8209,-3.5379c-2.27672,-0.39779 -4.04025,2.55843 -4.08254,1.28665z" data-paper-data="{&quot;index&quot;:null}" fill="#494c5e" stroke="none" stroke-width="7.5" stroke-linecap="butt"/><path d="M198.88372,40.31484c0.45295,-1.03628 1.52192,-1.04572 5.29692,0.60427c3.775,1.64997 5.59096,3.85678 5.13801,4.89306c-0.45294,1.03628 -1.83374,0.47072 -5.60874,-1.17927c-3.775,-1.64998 -5.27913,-3.28176 -4.8262,-4.31805z" data-paper-data="{&quot;index&quot;:null}" fill="#494c5e" stroke="none" stroke-width="7.5" stroke-linecap="butt"/><path d="M186.99569,94.48789l1.05823,0.69103c2.31799,1.51365 3.67271,3.04498 5.1394,5.34475c2.10751,3.30459 4.79064,6.25272 6.67299,9.74262c0.74861,1.38793 1.24114,3.08091 1.83374,4.54599c0.64742,2.12523 1.40804,4.35869 1.91948,6.51199c1.18875,5.00499 0.81109,10.57116 0.19327,15.58424c-0.52971,4.29816 -0.48582,8.5726 -2.38812,12.58419c-0.65297,1.37699 -1.92826,2.52769 -2.91335,3.65515c-2.21782,1.76708 -5.18456,4.06994 -8.17398,4.31031c-2.58329,0.20772 -4.91743,-0.98473 -7.03472,-2.30526c-6.05453,-3.77615 -9.53534,-10.62294 -13.23436,-16.49064c-2.14987,-3.89375 -4.57944,-7.78122 -6.26516,-11.90621c-1.14011,-2.78987 -2.19309,-5.62848 -3.25996,-8.45867c-1.28485,-3.40845 -3.32557,-6.79801 -2.63541,-10.50398c0,0 0.05922,-0.26133 0.23398,-0.5546c-0.01554,-0.12612 -0.03197,-0.25561 -0.04995,-0.38913c0,0 -0.13859,-1.05891 0.63574,-1.6191c0.02974,-1.15215 0.11583,-2.27908 0.43652,-3.42853c1.40613,-5.03991 5.26715,-8.45143 9.67754,-10.87704c2.82709,-1.07364 6.01169,-2.59667 9.13632,-2.02529c3.44844,0.63058 6.69304,2.59933 8.73795,5.44652c0.17363,0.07228 0.27985,0.14164 0.27985,0.14164zM163.74447,117.01525c1.06285,2.80701 2.11544,5.61434 3.231,8.38855c1.60324,3.987 3.98856,7.74919 6.06208,11.50469c3.36381,5.33417 6.56232,11.88195 12.08137,15.31296c1.38678,0.86211 3.12741,1.96882 4.84074,1.80893c2.21019,-0.20624 4.52414,-2.0781 6.16675,-3.3734c0.67148,-0.78256 1.76797,-1.7089 2.20211,-2.68286c1.64943,-3.70046 1.57969,-7.56289 2.06349,-11.50197c0.56651,-4.61251 0.98822,-9.76797 -0.13316,-14.37457c-0.49499,-2.0334 -1.19896,-4.12362 -1.80954,-6.13426c-0.53866,-1.32412 -0.97128,-2.86673 -1.65122,-4.12278c-1.82502,-3.3714 -4.41765,-6.22779 -6.47979,-9.41255c-0.26631,-0.41129 -0.359,-0.92099 -0.63558,-1.32545c-0.37555,-0.54918 -0.81497,-1.01548 -1.29448,-1.43442c-0.05385,0.33011 -0.11124,0.67603 -0.13582,1.06627c-0.32243,5.11844 -1.65949,10.18336 -5.26435,14.01259c-2.48077,2.68868 -6.76297,4.72367 -10.49773,4.65839c-3.62775,-0.06342 -6.97857,-2.24725 -9.70366,-4.65022c0.3238,0.7352 0.6592,1.47145 0.95781,2.26009z" fill="#292018" stroke="none" stroke-width="0.5" stroke-linecap="butt"/><path d="M162.76614,114.74483c2.72508,2.40297 6.07609,4.58644 9.70385,4.64984c3.73476,0.06529 8.03764,-1.98199 10.51841,-4.67067c3.60487,-3.82922 4.93656,-8.84874 5.25898,-13.96717c0.02457,-0.39024 0.09194,-0.78104 0.14579,-1.11115c0.47951,0.41894 0.92036,0.88559 1.29592,1.43478c0.27658,0.40446 0.37017,0.91445 0.63648,1.32573c2.06215,3.18476 4.66433,6.04728 6.48934,9.41868c0.67992,1.25606 1.11572,2.80295 1.65438,4.12709c0.61058,2.01064 1.31727,4.10864 1.81227,6.14204c1.1214,4.60659 0.69613,9.77835 0.12963,14.39086c-0.48379,3.93908 -0.42042,7.80792 -2.06985,11.50838c-0.43413,0.97397 -1.53292,1.90166 -2.20439,2.68421c-1.64262,1.2953 -3.96165,3.16906 -6.17184,3.3753c-1.71334,0.15989 -3.45751,-0.94626 -4.84428,-1.80837c-5.51905,-3.43103 -8.73397,-9.98386 -12.09778,-15.31804c-2.07352,-3.7555 -4.46732,-7.53472 -6.07056,-11.52172c-1.11556,-2.77421 -2.16644,-5.59107 -3.22928,-8.39807c-0.29862,-0.78863 -0.63326,-1.52652 -0.95707,-2.26171z" data-paper-data="{&quot;noHover&quot;:false,&quot;origItem&quot;:[&quot;Path&quot;,{&quot;applyMatrix&quot;:true,&quot;segments&quot;:[[[189.82098,310.29379],[1.64118,-1.36966],[-5.84145,4.87503]],[[172.40964,324.99366],[5.71916,-4.97408],[-8.21938,7.14858]],[[149.88373,349.06046],[7.27463,-8.08292],[-9.98521,12.48343]],[[123.23101,390.70494],[3.6383,-16.06647],[-0.9142,4.03703]],[[122.91511,403.8007],[-1.80471,-3.97116],[2.32804,5.12274]],[[136.11242,415.77217],[-4.46559,-2.85959],[2.4316,0.95897]],[[144.36582,418.82045],[-2.69312,-0.23164],[10.23214,0.88007]],[[173.62794,414.21847],[-9.83643,2.1099],[11.51809,-2.47062]],[[207.94775,401.97128],[-10.10328,6.5086],[4.45971,-2.87297]],[[221.1391,392.54674],[-4.30929,3.13094],[2.72459,-2.38898]],[[229.64389,385.17058],[-2.44432,2.67087],[6.56084,-7.16895]],[[246.81202,361.83935],[-5.91702,7.58208],[0.76415,-0.97918]],[[249.45937,359.21712],[-0.73927,0.9981],[1.00379,-1.35524]],[[251.82093,354.92623],[-0.60555,1.49621],[-0.83538,0.14494]],[[249.15428,355.48572],[0.95511,-0.26495],[-12.52734,3.47506]],[[211.22256,354.50425],[12.16323,5.45692],[-8.49857,-3.71091]],[[191.35352,333.22542],[2.94278,8.99976],[-2.85846,-8.74189]],[[194.43961,306.12418],[-3.49434,8.5212],[-1.49226,1.38567]]],&quot;closed&quot;:true}]}" fill="#403328" stroke="none" stroke-width="0.5" stroke-linecap="butt"/><path d="M227.61417,98.471c0,-1.35198 2.83371,-0.38571 6.06667,-0.38571c3.23296,0 5.04661,0.64812 5.04661,2.00009c0,1.35196 -1.81365,2.89582 -5.04661,2.89582c-3.23296,0 -6.06667,-3.15824 -6.06667,-4.51021z" data-paper-data="{&quot;index&quot;:null}" fill="#d9bb9a" stroke="none" stroke-width="0" stroke-linecap="butt"/><path d="M244.85214,109.1121c0,0 -7.06984,2.95897 -10.88155,2.85345c-3.72007,-0.10299 -10.19215,-2.64059 -10.19215,-2.64059c0,0 4.40854,10.32877 10.00417,10.27225c5.59563,-0.05652 11.06954,-10.48511 11.06954,-10.48511z" data-paper-data="{&quot;index&quot;:null}" fill="none" stroke="#d9bb9a" stroke-width="4" stroke-linecap="round"/><g data-paper-data="{&quot;index&quot;:null}" stroke="none" stroke-width="0" stroke-linecap="butt"><path d="M201.27857,86.48413c0,-7.34764 5.36534,-13.30409 11.98384,-13.30409c6.61848,0 11.98384,5.95644 11.98384,13.30409c0,7.34764 -5.36536,13.30409 -11.98384,13.30409c-6.61849,0 -11.98384,-5.95646 -11.98384,-13.30411z" fill="#d3f0f1"/><path d="M224.38101,86.38256c0,6.73067 -4.45324,12.18695 -9.94658,12.18695c-5.49334,0 -9.94659,-5.45629 -9.94659,-12.18695c0,-6.73066 4.45325,-12.18696 9.94659,-12.18696c5.49334,0 9.94658,5.4563 9.94658,12.18696z" fill="#ffffff"/></g><g data-paper-data="{&quot;index&quot;:null}" stroke="none" stroke-width="0" stroke-linecap="butt"><g data-paper-data="{&quot;index&quot;:null}"><path d="M214.45831,70.5452c4.08048,0 7.38834,4.66621 7.38834,10.42228c0,5.75608 -3.30786,10.42228 -7.38834,10.42228c-4.08047,0 -7.38836,-4.6662 -7.38836,-10.42228c0,-5.75606 3.30788,-10.42228 7.38836,-10.42228z" fill="#41563d"/><path d="M214.82966,87.96325c-3.77251,0 -7.75973,-5.06149 -7.75973,-8.24021c0,-3.17872 3.05824,-8.86673 6.83075,-8.86673c6.00296,0 7.38835,5.688 7.38835,8.86673c0,3.17873 -2.68685,8.24021 -6.45936,8.24021z" fill="#5f7d59"/></g><path d="M216.20465,81.86053c-2.41714,0 -4.37662,-1.95947 -4.37662,-4.37662c0,-2.41714 1.95948,-4.37662 4.37662,-4.37662c2.41714,0 4.37661,1.95948 4.37661,4.37662c0,2.41715 -1.95947,4.37662 -4.37661,4.37662z" fill="#8ebb85"/><path d="M214.43536,84.28165c-1.33714,0 -2.42111,-1.08398 -2.42111,-2.42112c0,-1.33714 1.08397,-2.42111 2.42111,-2.42111c1.33714,0 2.42111,1.08397 2.42111,2.42111c0,1.33714 -1.08397,2.42112 -2.42111,2.42112z" fill="#8ebb85"/></g><g data-paper-data="{&quot;index&quot;:null}" stroke="none" stroke-width="0" stroke-linecap="butt"><path d="M252.87888,72.32858c6.61848,0 11.98384,5.95644 11.98384,13.30409c0,7.34765 -5.36536,13.30409 -11.98384,13.30409c-6.61849,0 -11.98384,-5.95644 -11.98384,-13.30409c0,-7.34766 5.36536,-13.30411 11.98384,-13.30411z" fill="#d3f0f1"/><path d="M251.70689,73.34413c5.49334,0 9.94659,5.4563 9.94659,12.18696c0,6.73066 -4.45325,12.18695 -9.94659,12.18695c-5.49334,0 -9.94658,-5.45627 -9.94658,-12.18695c0,-6.73067 4.45324,-12.18696 9.94658,-12.18696z" fill="#ffffff"/></g><g data-paper-data="{&quot;index&quot;:null}" stroke="none" stroke-width="0" stroke-linecap="butt"><g data-paper-data="{&quot;index&quot;:null}"><path d="M260.17593,81.78269c0,5.75608 -3.30788,10.42228 -7.38836,10.42228c-4.08048,0 -7.38834,-4.6662 -7.38834,-10.42228c0,-5.75606 3.30786,-10.42228 7.38834,-10.42228c4.08049,0 7.38836,4.66621 7.38836,10.42228z" fill="#41563d"/><path d="M252.41619,88.77846c-3.77251,0 -6.45936,-5.06149 -6.45936,-8.24021c0,-3.17873 1.3854,-8.86673 7.38836,-8.86673c3.77251,0 6.83073,5.688 6.83073,8.86673c0,3.17873 -3.98722,8.24021 -7.75973,8.24021z" fill="#5f7d59"/></g><path d="M246.66462,78.29912c0,-2.41715 1.95947,-4.37663 4.37661,-4.37663c2.41714,0 4.37662,1.95949 4.37662,4.37663c0,2.41714 -1.95948,4.37662 -4.37662,4.37662c-2.41714,0 -4.37661,-1.95948 -4.37661,-4.37662z" fill="#8ebb85"/><path d="M250.3894,82.67574c0,-1.33714 1.08397,-2.42112 2.42111,-2.42112c1.33714,0 2.42111,1.08398 2.42111,2.42112c0,1.33714 -1.08397,2.42111 -2.42111,2.42111c-1.33714,0 -2.42111,-1.08397 -2.42111,-2.42111z" fill="#8ebb85"/></g><path d="M214.10589,67.99813c-5.46186,-0.608 -13.07391,-0.25798 -12.67214,-3.23354c0.40177,-2.97556 3.23657,-4.6795 8.69843,-4.0715c5.46186,0.60801 17.12425,3.49683 16.72248,6.47239c-0.40178,2.97557 -7.28691,1.44067 -12.74877,0.83266z" data-paper-data="{&quot;index&quot;:null}" fill="#424956" stroke="#14161a" stroke-width="4" stroke-linecap="butt"/><path d="M269.60133,64.31674c0.40177,2.97556 -7.21027,2.62553 -12.67213,3.23354c-5.46186,0.60799 -12.34701,2.1429 -12.74878,-0.83266c-0.40177,-2.97556 11.26062,-5.86437 16.72248,-6.47238c5.46186,-0.60801 8.29666,1.09593 8.69843,4.07149z" data-paper-data="{&quot;index&quot;:null}" fill="#424956" stroke="#14161a" stroke-width="4" stroke-linecap="butt"/><g stroke="none" stroke-width="0.5" stroke-linecap="butt"><path d="M140.53969,90.25972c-2.76917,-6.93179 -5.35379,-13.48329 -4.30329,-21.17176c0.31789,-2.32663 0.48747,-5.83357 2.49984,-7.53572c1.2329,-1.04284 3.05768,-1.04067 4.59901,-1.52223c6.62685,-2.07045 17.20316,-4.59648 23.0716,0.55002c2.85645,2.50505 3.37828,6.59544 4.44465,10.00458c0.84878,3.92674 1.70062,7.64912 2.94099,11.46662c0.28233,0.86894 0.01136,3.07734 0.80277,2.62078c1.46361,-0.84435 4.27184,-3.67326 5.53639,-4.26335c1.24093,-0.57907 2.9059,-1.66507 4.01635,-0.86374c1.49963,1.08217 1.39929,3.42722 1.9725,5.18546c2.79576,8.57573 -7.38549,17.49478 -14.06565,20.6118c-1.1602,0.54136 -2.24147,1.33244 -3.49499,1.59289c-6.59274,1.36979 -11.08442,-1.13338 -16.54867,-4.24198c-3.4813,-2.96769 -6.78868,-6.05246 -10.17077,-9.12577l-1.01774,-1.27665c0,0 -0.77073,-1.00695 -0.28299,-2.03096zM145.11953,91.14339c3.05127,2.78258 6.05257,5.57624 9.18831,8.27474c2.11962,1.19279 3.96933,3.02583 6.3218,3.64342c8.20191,2.15324 16.49428,-4.42492 20.52909,-10.95851c1.66099,-2.68964 1.35019,-6.03895 1.14756,-9.00733c-0.01843,-0.2699 -0.00115,0.59823 -0.19386,0.78809c-0.90998,0.8965 -1.92977,1.69058 -3.01158,2.36986c-1.46985,0.92293 -2.87978,2.3059 -4.61182,2.41694c-3.1836,0.2041 -3.80221,-3.42291 -4.48058,-5.32285c-1.38138,-3.86891 -2.16266,-7.73486 -3.02443,-11.74204c-0.75764,-2.40916 -1.04237,-6.21381 -3.1052,-7.92583c-4.27583,-3.5487 -11.41315,-1.73281 -16.28482,-0.72234c-2.10195,0.43598 -4.50484,0.34283 -6.23445,1.61434c-0.79591,0.5851 -1.09495,4.58628 -1.1603,5.05996c-1.04928,7.60528 2.05099,14.0677 4.79995,21.01394c0,0 0.07966,0.20128 0.12034,0.49761z" fill="#917c67"/><path d="M144.95768,90.67365c-2.74895,-6.94624 -5.85006,-13.46311 -4.80078,-21.06839c0.06535,-0.47368 0.37064,-4.48287 1.16655,-5.06798c1.72961,-1.27151 4.14249,-1.1864 6.24444,-1.62238c4.87167,-1.01047 12.04878,-2.83181 16.32461,0.71689c2.06283,1.71203 2.36592,5.52637 3.12356,7.93553c0.86177,4.00718 1.66021,7.92036 3.0416,11.78927c0.67837,1.89994 1.20249,5.4969 4.3861,5.29279c1.73203,-0.11105 3.13865,-1.48458 4.6085,-2.40751c1.08182,-0.67928 2.10049,-1.46701 3.01047,-2.36351c0.19271,-0.18986 0.27501,-1.04884 0.29343,-0.77894c0.20263,2.96838 0.50859,6.33568 -1.1524,9.02532c-4.03481,6.53359 -12.36813,13.13987 -20.57005,10.98663c-2.35247,-0.61759 -4.21846,-2.45198 -6.33808,-3.64477c-3.13574,-2.69849 -6.16555,-5.5116 -9.21681,-8.29418c-0.04068,-0.29633 -0.12115,-0.49878 -0.12115,-0.49878z" data-paper-data="{&quot;noHover&quot;:false,&quot;origItem&quot;:[&quot;Path&quot;,{&quot;applyMatrix&quot;:true,&quot;segments&quot;:[[[290.23905,182.28678],[-0.08136,-0.59266],[6.10253,5.56517]],[[308.61567,198.83625],[-6.27149,-5.39699],[4.23924,2.38557]],[[321.25928,206.12309],[-4.70494,-1.23518],[16.40383,4.30648]],[[362.31746,184.20606],[-8.06961,13.06718],[3.32197,-5.37929]],[[364.61258,166.19141],[0.40526,5.93676],[-0.03685,-0.5398]],[[364.22485,167.76758],[0.38543,-0.37972],[-1.81996,1.79299]],[[358.20168,172.50731],[2.16364,-1.35857],[-2.93971,1.84587]],[[348.97804,177.3412],[3.46407,-0.22209],[-6.36721,0.40821]],[[340.01688,166.6955],[1.35674,3.79988],[-2.76277,-7.73782]],[[333.96803,143.21142],[1.72354,8.01435],[-1.51528,-4.81832]],[[327.75763,127.35976],[4.12565,3.42405],[-8.55166,-7.09739]],[[295.18799,125.91507],[9.74334,-2.02094],[-4.2039,0.87196]],[[282.71908,129.14376],[3.45922,-2.54302],[-1.59181,1.17021]],[[280.39849,139.26368],[0.1307,-0.94736],[-2.09856,15.21055]],[[289.99838,181.29156],[-5.49791,-13.89248],[0,0]]],&quot;closed&quot;:true}]}" fill="#d9bb9a"/><path d="M159.60822,64.99255c0.40402,-0.11396 0.89691,-0.11025 1.48917,0.11358c2.19571,0.82983 1.36588,3.02554 1.36588,3.02554l-0.79348,2.03728c-0.60816,7.26245 1.15137,16.27671 8.22356,20.25301l3.09799,0.34651c0.47119,0.0464 0.93285,0.23538 1.31592,0.57144c0.97452,0.85492 1.07148,2.33797 0.21657,3.31249c-0.03726,0.04247 -0.07572,0.08329 -0.11527,0.12242l-3.29475,3.3137l-0.01852,-0.01841l-0.06865,0.10169c-1.82318,1.47387 -4.16897,3.94835 -6.87403,3.85708c-2.67391,-0.09021 -5.1131,-3.18235 -6.64122,-4.76131c-5.22557,-5.39942 -10.54239,-11.39477 -12.73784,-18.77579c-1.67987,-5.64767 -2.80937,-11.91711 4.18859,-14.20374c2.55505,-0.83487 7.62842,0.20014 10.1906,0.58015c0,0 0.19113,0.02865 0.45549,0.12435z" fill="#ffdbb5"/></g></g></g></svg>