<svg version="1.1" xmlns="http://www.w3.org/2000/svg" xmlns:xlink="http://www.w3.org/1999/xlink" width="624" height="43" viewBox="0,0,624,43"><g transform="translate(75.02026,-147.12891)"><g data-paper-data="{&quot;isPaintingLayer&quot;:true}" fill-rule="nonzero" stroke="none" stroke-dasharray="" stroke-dashoffset="0" style="mix-blend-mode: normal"><path d="M-26.82503,186.03458v-36.80867h56.04943v36.80867z" fill="#b27034" stroke-width="0.70145" stroke-linecap="round" stroke-linejoin="round" stroke-miterlimit="4"/><path d="M-73.79692,186.03458v-35.91632h66.84916v35.91628z" data-paper-data="{&quot;origPos&quot;:null}" fill="#b27034" stroke-width="0.71302" stroke-linecap="round" stroke-linejoin="round" stroke-miterlimit="4"/><path d="M-39.43501,186.03458v-36.80867h34.32966v36.80867z" fill="#b27034" stroke-width="0.54897" stroke-linecap="round" stroke-linejoin="round" stroke-miterlimit="4"/><path d="M-39.43501,157.87595v-8.65003h37.29144v8.65003z" fill="#37b937" stroke-width="0.27736" stroke-linecap="round" stroke-linejoin="round" stroke-miterlimit="4"/><path d="M-30.2435,154.77879l2.61593,2.50965l-0.05866,4.73184l-3.65292,-3.66567z" fill="#37b937" stroke-width="0.18472" stroke-linecap="round" stroke-linejoin="round" stroke-miterlimit="4"/><path d="M-29.67159,154.99165l-1.58389,3.35884l-6.24605,1.93897l4.32505,-5.50659z" fill="#37b937" stroke-width="0.18472" stroke-linecap="round" stroke-linejoin="round" stroke-miterlimit="4"/><path d="M-29.58488,154.88007l-2.93811,2.05979l-6.94414,-2.05979l6.94414,-2.05975z" fill="#37b937" stroke-width="0.18472" stroke-linecap="round" stroke-linejoin="round" stroke-miterlimit="4"/><path d="M-30.4009,154.8759l3.06278,-0.18243l4.70178,4.25973l-6.38063,-1.14225z" fill="#37b937" stroke-width="0.16142" stroke-linecap="round" stroke-linejoin="round" stroke-miterlimit="4"/><path d="M-12.54718,157.57241l-4.00294,3.5963l0.67572,-5.65605l3.13256,-1.69815z" fill="#37b937" stroke-width="0.18472" stroke-linecap="round" stroke-linejoin="round" stroke-miterlimit="4"/><path d="M-12.39146,155.51906l2.86857,5.07281l-4.78957,-1.50521l-1.58379,-3.35888z" fill="#37b937" stroke-width="0.18472" stroke-linecap="round" stroke-linejoin="round" stroke-miterlimit="4"/><path d="M-10.32858,153.92423l5.05338,5.50659l-6.97438,-1.93902l-1.58379,-3.35884z" fill="#37b937" stroke-width="0.18472" stroke-linecap="round" stroke-linejoin="round" stroke-miterlimit="4"/><path d="M-15.00626,157.995l-6.09444,1.69441l4.41587,-4.81193l3.06278,0.1828z" fill="#37b937" stroke-width="0.16142" stroke-linecap="round" stroke-linejoin="round" stroke-miterlimit="4"/><path d="M-73.79692,157.87595v-8.65007h36.80129v8.65007z" fill="#37b937" stroke-width="0.27554" stroke-linecap="round" stroke-linejoin="round" stroke-miterlimit="4"/><path d="M-49.9451,155.60001l-0.94273,5.30898l-2.38456,-3.24923l0.19454,-3.7579z" data-paper-data="{&quot;origPos&quot;:null}" fill="#37b937" stroke-width="0.18472" stroke-linecap="round" stroke-linejoin="round" stroke-miterlimit="4"/><path d="M-47.87133,154.68603l3.75873,5.33313l-5.67962,-1.76552l-1.58389,-3.35884z" data-paper-data="{&quot;origPos&quot;:null}" fill="#37b937" stroke-width="0.18472" stroke-linecap="round" stroke-linejoin="round" stroke-miterlimit="4"/><path d="M-42.81191,154.14274l1.65922,5.10313l-3.58033,-1.53552l-1.58379,-3.35884z" fill="#37b937" stroke-width="0.18472" stroke-linecap="round" stroke-linejoin="round" stroke-miterlimit="4"/><path d="M-68.50685,153.12045l3.13266,1.69814l1.24201,6.52367l-4.56934,-4.46392z" fill="#37b937" stroke-width="0.18472" stroke-linecap="round" stroke-linejoin="round" stroke-miterlimit="4"/><path d="M-65.06879,154.37832l-1.58379,3.35884l-6.97434,1.93898l5.05328,-5.50659z" fill="#37b937" stroke-width="0.18472" stroke-linecap="round" stroke-linejoin="round" stroke-miterlimit="4"/><path d="M-65.72934,186.03458h-8.06745v-36.80871h8.06745z" fill="#37b937" stroke-width="0.26612" stroke-linecap="round" stroke-linejoin="round" stroke-miterlimit="4"/><path d="M-64.58819,159.1977l2.01575,6.13573l-4.7325,-3.22273l-0.71909,-3.68396z" fill="#37b937" stroke-width="0.18472" stroke-linecap="round" stroke-linejoin="round" stroke-miterlimit="4"/><path d="M-65.19961,156.46006l3.86159,3.47321l-3.80881,0.64583l-2.96399,-2.01615z" fill="#37b937" stroke-width="0.18472" stroke-linecap="round" stroke-linejoin="round" stroke-miterlimit="4"/><path d="M-68.46607,158.23694l4.97394,-4.03011l-1.64644,6.08986l-3.13256,1.69819z" fill="#37b937" stroke-width="0.18472" stroke-linecap="round" stroke-linejoin="round" stroke-miterlimit="4"/><path d="M-65.73046,163.38053l-1.67857,6.50626l-1.67882,-6.50626l1.67882,-2.75271z" fill="#37b937" stroke-width="0.16142" stroke-linecap="round" stroke-linejoin="round" stroke-miterlimit="4"/><path d="M-69.21098,152.8123l4.75947,-1.77915l-1.43218,3.8389l-3.13263,1.69815z" fill="#37b937" stroke-width="0.18472" stroke-linecap="round" stroke-linejoin="round" stroke-miterlimit="4"/><path d="M-70.16452,178.42915l1.58389,-3.35888l5.60773,-0.56533l-3.68656,4.1329z" data-paper-data="{&quot;origPos&quot;:null}" fill="#37b937" stroke-width="0.18472" stroke-linecap="round" stroke-linejoin="round" stroke-miterlimit="4"/><path d="M-69.82359,174.59407l3.13263,1.69815l0.61707,7.98894l-3.94447,-5.92916z" data-paper-data="{&quot;origPos&quot;:null}" fill="#37b937" stroke-width="0.18472" stroke-linecap="round" stroke-linejoin="round" stroke-miterlimit="4"/><path d="M-68.45055,175.65089l-0.17031,-3.28382l4.48786,-4.73468l-1.58024,6.53457z" data-paper-data="{&quot;origPos&quot;:null}" fill="#37b937" stroke-width="0.16142" stroke-linecap="round" stroke-linejoin="round" stroke-miterlimit="4"/><path d="M-72.61775,152.23193v-2.12178h71.24428v2.12178z" fill="#58c238" stroke-width="0.18987" stroke-linecap="round" stroke-linejoin="round" stroke-miterlimit="4"/><path d="M-65.5843,179.76695l2.6679,5.84252l-5.05004,-2.61044l-1.1138,-3.56923z" fill="#37b937" stroke-width="0.18472" stroke-linecap="round" stroke-linejoin="round" stroke-miterlimit="4"/><path d="M-5.10534,157.87595v-8.65003h34.32973v8.65003z" fill="#37b937" stroke-width="0.26612" stroke-linecap="round" stroke-linejoin="round" stroke-miterlimit="4"/><path d="M6.18603,155.41557l3.43584,0.77097l4.19694,5.32975l-6.91352,-2.41681z" data-paper-data="{&quot;origPos&quot;:null}" fill="#37b937" stroke-width="0.18472" stroke-linecap="round" stroke-linejoin="round" stroke-miterlimit="4"/><path d="M6.78057,155.29332l0.19458,3.7579l-2.38446,3.24927l-0.94277,-5.30902z" fill="#37b937" stroke-width="0.18472" stroke-linecap="round" stroke-linejoin="round" stroke-miterlimit="4"/><path d="M6.80355,155.15026l-1.58379,3.35881l-5.67965,1.76552l3.75873,-5.33309z" fill="#37b937" stroke-width="0.18472" stroke-linecap="round" stroke-linejoin="round" stroke-miterlimit="4"/><path d="M5.5286,156.07482l2.56736,-1.79989l6.06803,1.79989l-6.06814,1.79989z" fill="#37b937" stroke-width="0.16142" stroke-linecap="round" stroke-linejoin="round" stroke-miterlimit="4"/><path d="M1.74422,154.35152l-1.58379,3.35884l-3.58036,1.53556l1.65944,-5.10317z" fill="#37b937" stroke-width="0.18472" stroke-linecap="round" stroke-linejoin="round" stroke-miterlimit="4"/><path d="M24.12902,156.87831l-4.56934,4.46392l1.24211,-6.52363l3.13267,-1.69814z" fill="#37b937" stroke-width="0.18472" stroke-linecap="round" stroke-linejoin="round" stroke-miterlimit="4"/><path d="M24.00108,154.16956l5.05338,5.50659l-6.97438,-1.93897l-1.58379,-3.35884z" fill="#37b937" stroke-width="0.18472" stroke-linecap="round" stroke-linejoin="round" stroke-miterlimit="4"/><path d="M19.40431,157.89335l-6.09444,1.69437l4.41577,-4.81189l3.06278,0.1828z" fill="#37b937" stroke-width="0.16142" stroke-linecap="round" stroke-linejoin="round" stroke-miterlimit="4"/><path d="M21.15685,149.22591h8.06745v36.80867h-8.06745z" fill="#37b937" stroke-width="0.26612" stroke-linecap="round" stroke-linejoin="round" stroke-miterlimit="4"/><path d="M23.69892,161.99488l-3.13267,-1.69819l-1.6464,-6.08986l4.97391,4.03011z" fill="#37b937" stroke-width="0.18472" stroke-linecap="round" stroke-linejoin="round" stroke-miterlimit="4"/><path d="M24.44382,156.57019l-3.13263,-1.69819l-1.4319,-3.83886l4.7594,1.77915z" fill="#37b937" stroke-width="0.18472" stroke-linecap="round" stroke-linejoin="round" stroke-miterlimit="4"/><path d="M22.043,178.53159l-4.19469,-5.27075l6.11569,1.70319l1.5839,3.35883z" fill="#37b937" stroke-width="0.18472" stroke-linecap="round" stroke-linejoin="round" stroke-miterlimit="4"/><path d="M24.06472,182.06143l-3.90914,3.47719l0.9513,-6.10643l3.35398,-1.11045z" fill="#37b937" stroke-width="0.18472" stroke-linecap="round" stroke-linejoin="round" stroke-miterlimit="4"/><path d="M21.55678,174.91062l-1.58038,-6.53452l4.4878,4.7346l-0.17031,3.28386z" fill="#37b937" stroke-width="0.16142" stroke-linecap="round" stroke-linejoin="round" stroke-miterlimit="4"/><path d="M-5.10534,152.2319v-2.12178h33.15069v2.12178z" fill="#58c238" stroke-width="0.12952" stroke-linecap="round" stroke-linejoin="round" stroke-miterlimit="4"/><path d="M-42.22739,152.23193v-2.12178h37.12206v2.12178z" fill="#58c238" stroke-width="0.13706" stroke-linecap="round" stroke-linejoin="round" stroke-miterlimit="4"/><path d="M-5.1375,177.38451v8.65007h-37.29141v-8.65007z" fill="#37b937" stroke-width="0.27736" stroke-linecap="round" stroke-linejoin="round" stroke-miterlimit="4"/><path d="M-14.90091,180.26885l1.58389,-3.35884l6.24609,-1.93902l-4.32509,5.50659z" fill="#37b937" stroke-width="0.18472" stroke-linecap="round" stroke-linejoin="round" stroke-miterlimit="4"/><path d="M-14.98758,180.38039l2.93807,-2.05979l6.94418,2.05979l-6.94418,2.05975z" fill="#37b937" stroke-width="0.18472" stroke-linecap="round" stroke-linejoin="round" stroke-miterlimit="4"/><path d="M-14.1716,180.38463l-3.06278,0.18205l-4.70174,-4.25977l6.38059,1.14225z" fill="#37b937" stroke-width="0.16142" stroke-linecap="round" stroke-linejoin="round" stroke-miterlimit="4"/><path d="M-32.02532,177.68805l4.00294,-3.59631l-0.67572,5.65605l-3.13256,1.69819z" fill="#37b937" stroke-width="0.18472" stroke-linecap="round" stroke-linejoin="round" stroke-miterlimit="4"/><path d="M-32.18103,179.74144l-2.86857,-5.07285l4.78957,1.50524l1.58379,3.35884z" fill="#37b937" stroke-width="0.18472" stroke-linecap="round" stroke-linejoin="round" stroke-miterlimit="4"/><path d="M-34.24391,181.3363l-5.05338,-5.50661l6.97438,1.93897l1.58379,3.35884z" fill="#37b937" stroke-width="0.18472" stroke-linecap="round" stroke-linejoin="round" stroke-miterlimit="4"/><path d="M-29.56623,177.26547l6.09444,-1.69441l-4.41587,4.81189l-3.06278,-0.18205z" fill="#37b937" stroke-width="0.16142" stroke-linecap="round" stroke-linejoin="round" stroke-miterlimit="4"/><path d="M29.2244,177.38455v8.65003h-36.80129v-8.65003z" fill="#37b937" stroke-width="0.27554" stroke-linecap="round" stroke-linejoin="round" stroke-miterlimit="4"/><path d="M4.53077,181.01472l-3.75873,-5.33309l5.67962,1.76552l1.58389,3.35884z" data-paper-data="{&quot;origPos&quot;:null}" fill="#37b937" stroke-width="0.18472" stroke-linecap="round" stroke-linejoin="round" stroke-miterlimit="4"/><path d="M-1.76056,181.11773l-1.65926,-5.10312l3.58033,1.53552l1.58382,3.35884z" fill="#37b937" stroke-width="0.18472" stroke-linecap="round" stroke-linejoin="round" stroke-miterlimit="4"/><path d="M23.93436,182.14004l-3.13263,-1.69815l-1.24205,-6.52367l4.56934,4.46388z" fill="#37b937" stroke-width="0.18472" stroke-linecap="round" stroke-linejoin="round" stroke-miterlimit="4"/><path d="M20.4963,180.88214l1.58379,-3.35884l6.97438,-1.93898l-5.05328,5.50659z" fill="#37b937" stroke-width="0.18472" stroke-linecap="round" stroke-linejoin="round" stroke-miterlimit="4"/><path d="M20.78842,180.30219l-3.06268,0.1828l-4.41587,-4.81189l6.09444,1.69441z" fill="#37b937" stroke-width="0.16142" stroke-linecap="round" stroke-linejoin="round" stroke-miterlimit="4"/><path d="M24.63849,182.4482l-4.75944,1.77915l1.43214,-3.8389l3.13263,-1.69819z" fill="#37b937" stroke-width="0.18472" stroke-linecap="round" stroke-linejoin="round" stroke-miterlimit="4"/><path d="M28.04526,183.02856v2.12175h-71.24428v-2.12175z" fill="#58c238" stroke-width="0.18987" stroke-linecap="round" stroke-linejoin="round" stroke-miterlimit="4"/><path d="M-51.37605,180.11023l1.58382,-3.35884l5.67962,-1.76552l-3.75873,5.33313z" fill="#37b937" stroke-width="0.18472" stroke-linecap="round" stroke-linejoin="round" stroke-miterlimit="4"/><path d="M-46.31673,180.90897l1.58382,-3.35884l3.58033,-1.53552l-1.65944,5.10313z" fill="#37b937" stroke-width="0.18472" stroke-linecap="round" stroke-linejoin="round" stroke-miterlimit="4"/><path d="M-68.57357,181.0909l-5.05335,-5.50659l6.97434,1.93898l1.58379,3.35883z" fill="#37b937" stroke-width="0.18472" stroke-linecap="round" stroke-linejoin="round" stroke-miterlimit="4"/><path d="M-63.97681,177.36714l6.09444,-1.69441l-4.41577,4.81189l-3.06278,-0.18243z" fill="#37b937" stroke-width="0.16142" stroke-linecap="round" stroke-linejoin="round" stroke-miterlimit="4"/><path d="M-69.01634,178.69026l3.13263,1.69819l1.4319,3.83886l-4.75937,-1.77915z" fill="#37b937" stroke-width="0.18472" stroke-linecap="round" stroke-linejoin="round" stroke-miterlimit="4"/><path d="M-39.46713,183.0286v2.12175h-33.15073v-2.12175z" fill="#58c238" stroke-width="0.12952" stroke-linecap="round" stroke-linejoin="round" stroke-miterlimit="4"/><path d="M-2.3451,183.02856v2.12175h-37.12203v-2.12175z" fill="#58c238" stroke-width="0.13706" stroke-linecap="round" stroke-linejoin="round" stroke-miterlimit="4"/><path d="M-70.99326,185.15034h-1.97887v-35.03208h1.97887z" fill="#58c238" stroke-width="0.12858" stroke-linecap="round" stroke-linejoin="round" stroke-miterlimit="4"/><path d="M26.4207,150.11826h1.97887v35.03205h-1.97887z" fill="#58c238" stroke-width="0.12858" stroke-linecap="round" stroke-linejoin="round" stroke-miterlimit="4"/><path d="M-73.90879,186.09723v-29h103.33333v29z" data-paper-data="{&quot;origPos&quot;:null}" fill="#b27034" stroke-width="0" stroke-linecap="butt" stroke-linejoin="miter" stroke-miterlimit="10"/><path d="M445.1882,186.05404v-36.80866h56.04943v36.80866z" fill="#b27034" stroke-width="0.70145" stroke-linecap="round" stroke-linejoin="round" stroke-miterlimit="4"/><path d="M481.36034,186.054v-35.91629h66.84916v35.91633z" data-paper-data="{&quot;origPos&quot;:null}" fill="#b27034" stroke-width="0.71302" stroke-linecap="round" stroke-linejoin="round" stroke-miterlimit="4"/><path d="M479.51793,186.05404v-36.80866h34.32966v36.80866z" fill="#b27034" stroke-width="0.54897" stroke-linecap="round" stroke-linejoin="round" stroke-miterlimit="4"/><path d="M476.55615,157.8954v-8.65002h37.29144v8.65002z" fill="#37b937" stroke-width="0.27736" stroke-linecap="round" stroke-linejoin="round" stroke-miterlimit="4"/><path d="M505.75175,158.37407l-3.65292,3.66567l-0.05866,-4.73184l2.61593,-2.50965z" fill="#37b937" stroke-width="0.18472" stroke-linecap="round" stroke-linejoin="round" stroke-miterlimit="4"/><path d="M507.58908,154.80234l4.32505,5.50659l-6.24605,-1.93897l-1.58389,-3.35884z" fill="#37b937" stroke-width="0.18472" stroke-linecap="round" stroke-linejoin="round" stroke-miterlimit="4"/><path d="M506.93559,152.83978l6.94414,2.05975l-6.94415,2.05979l-2.93811,-2.05979z" fill="#37b937" stroke-width="0.18472" stroke-linecap="round" stroke-linejoin="round" stroke-miterlimit="4"/><path d="M503.42957,157.83041l-6.38063,1.14225l4.70178,-4.25973l3.06278,0.18243z" fill="#37b937" stroke-width="0.16142" stroke-linecap="round" stroke-linejoin="round" stroke-miterlimit="4"/><path d="M487.15443,153.83397l3.13256,1.69815l0.67572,5.65605l-4.00294,-3.59631z" fill="#37b937" stroke-width="0.18472" stroke-linecap="round" stroke-linejoin="round" stroke-miterlimit="4"/><path d="M490.30885,155.74723l-1.58379,3.35888l-4.78957,1.50521l2.86857,-5.07281z" fill="#37b937" stroke-width="0.18472" stroke-linecap="round" stroke-linejoin="round" stroke-miterlimit="4"/><path d="M488.24597,154.15241l-1.58379,3.35884l-6.97438,1.93902l5.05338,-5.50659z" fill="#37b937" stroke-width="0.18472" stroke-linecap="round" stroke-linejoin="round" stroke-miterlimit="4"/><path d="M488.03465,155.07976l3.06278,-0.1828l4.41586,4.81193l-6.09444,-1.69441z" fill="#37b937" stroke-width="0.16142" stroke-linecap="round" stroke-linejoin="round" stroke-miterlimit="4"/><path d="M511.4082,157.8954v-8.65007h36.80129v8.65007z" fill="#37b937" stroke-width="0.27554" stroke-linecap="round" stroke-linejoin="round" stroke-miterlimit="4"/><path d="M527.49045,153.92131l0.19454,3.7579l-2.38456,3.24923l-0.94273,-5.30898z" data-paper-data="{&quot;origPos&quot;:null}" fill="#37b937" stroke-width="0.18472" stroke-linecap="round" stroke-linejoin="round" stroke-miterlimit="4"/><path d="M525.7887,154.91424l-1.58389,3.35883l-5.67962,1.76553l3.75873,-5.33314z" data-paper-data="{&quot;origPos&quot;:null}" fill="#37b937" stroke-width="0.18472" stroke-linecap="round" stroke-linejoin="round" stroke-miterlimit="4"/><path d="M520.72938,154.37098l-1.58379,3.35884l-3.58033,1.53552l1.65922,-5.10313z" fill="#37b937" stroke-width="0.18472" stroke-linecap="round" stroke-linejoin="round" stroke-miterlimit="4"/><path d="M543.11411,156.89782l-4.56934,4.46392l1.24201,-6.52367l3.13266,-1.69815z" fill="#37b937" stroke-width="0.18472" stroke-linecap="round" stroke-linejoin="round" stroke-miterlimit="4"/><path d="M542.98623,154.18901l5.05328,5.50659l-6.97434,-1.93898l-1.58379,-3.35883z" fill="#37b937" stroke-width="0.18472" stroke-linecap="round" stroke-linejoin="round" stroke-miterlimit="4"/><path d="M540.14194,149.24533h8.06745v36.80871h-8.06745z" fill="#37b937" stroke-width="0.26612" stroke-linecap="round" stroke-linejoin="round" stroke-miterlimit="4"/><path d="M542.43663,158.4462l-0.71909,3.68395l-4.7325,3.22274l2.01575,-6.13573z" fill="#37b937" stroke-width="0.18472" stroke-linecap="round" stroke-linejoin="round" stroke-miterlimit="4"/><path d="M542.52342,158.5824l-2.96399,2.01615l-3.80881,-0.64583l3.86159,-3.47321z" fill="#37b937" stroke-width="0.18472" stroke-linecap="round" stroke-linejoin="round" stroke-miterlimit="4"/><path d="M542.68373,162.01434l-3.13256,-1.69819l-1.64644,-6.08985l4.97394,4.03011z" fill="#37b937" stroke-width="0.18472" stroke-linecap="round" stroke-linejoin="round" stroke-miterlimit="4"/><path d="M541.8216,160.64728l1.67882,2.75271l-1.67882,6.50626l-1.67857,-6.50626z" fill="#37b937" stroke-width="0.16142" stroke-linecap="round" stroke-linejoin="round" stroke-miterlimit="4"/><path d="M543.42892,156.58964l-3.13263,-1.69815l-1.43218,-3.8389l4.75947,1.77914z" fill="#37b937" stroke-width="0.18472" stroke-linecap="round" stroke-linejoin="round" stroke-miterlimit="4"/><path d="M541.07205,178.6573l-3.68656,-4.1329l5.60773,0.56533l1.58389,3.35888z" data-paper-data="{&quot;origPos&quot;:null}" fill="#37b937" stroke-width="0.18472" stroke-linecap="round" stroke-linejoin="round" stroke-miterlimit="4"/><path d="M544.43093,178.37146l-3.94447,5.92916l0.61707,-7.98894l3.13263,-1.69815z" data-paper-data="{&quot;origPos&quot;:null}" fill="#37b937" stroke-width="0.18472" stroke-linecap="round" stroke-linejoin="round" stroke-miterlimit="4"/><path d="M540.12582,174.18642l-1.58024,-6.53457l4.48786,4.73468l-0.17031,3.28382z" data-paper-data="{&quot;origPos&quot;:null}" fill="#37b937" stroke-width="0.16142" stroke-linecap="round" stroke-linejoin="round" stroke-miterlimit="4"/><path d="M475.78607,152.2514v-2.12178h71.24428v2.12178z" fill="#58c238" stroke-width="0.18987" stroke-linecap="round" stroke-linejoin="round" stroke-miterlimit="4"/><path d="M543.49284,179.44926l-1.1138,3.56923l-5.05004,2.61044l2.6679,-5.84252z" fill="#37b937" stroke-width="0.18472" stroke-linecap="round" stroke-linejoin="round" stroke-miterlimit="4"/><path d="M445.1882,157.8954v-8.65002h34.32973v8.65002z" fill="#37b937" stroke-width="0.26612" stroke-linecap="round" stroke-linejoin="round" stroke-miterlimit="4"/><path d="M467.50731,159.11893l-6.91352,2.41681l4.19694,-5.32976l3.43584,-0.77096z" data-paper-data="{&quot;origPos&quot;:null}" fill="#37b937" stroke-width="0.18472" stroke-linecap="round" stroke-linejoin="round" stroke-miterlimit="4"/><path d="M470.76466,157.01093l-0.94277,5.30903l-2.38446,-3.24927l0.19458,-3.7579z" fill="#37b937" stroke-width="0.18472" stroke-linecap="round" stroke-linejoin="round" stroke-miterlimit="4"/><path d="M471.11376,154.96095l3.75873,5.33309l-5.67965,-1.76552l-1.58379,-3.3588z" fill="#37b937" stroke-width="0.18472" stroke-linecap="round" stroke-linejoin="round" stroke-miterlimit="4"/><path d="M466.31675,157.89416l-6.06814,-1.79989l6.06803,-1.79989l2.56736,1.79989z" fill="#37b937" stroke-width="0.16142" stroke-linecap="round" stroke-linejoin="round" stroke-miterlimit="4"/><path d="M476.17307,154.16222l1.65944,5.10317l-3.58036,-1.53556l-1.58379,-3.35884z" fill="#37b937" stroke-width="0.18472" stroke-linecap="round" stroke-linejoin="round" stroke-miterlimit="4"/><path d="M450.47814,153.13992l3.13267,1.69815l1.24211,6.52363l-4.56934,-4.46392z" fill="#37b937" stroke-width="0.18472" stroke-linecap="round" stroke-linejoin="round" stroke-miterlimit="4"/><path d="M453.91631,154.39779l-1.58379,3.35883l-6.97438,1.93898l5.05338,-5.50659z" fill="#37b937" stroke-width="0.18472" stroke-linecap="round" stroke-linejoin="round" stroke-miterlimit="4"/><path d="M453.62417,154.97808l3.06278,-0.1828l4.41577,4.81189l-6.09444,-1.69437z" fill="#37b937" stroke-width="0.16142" stroke-linecap="round" stroke-linejoin="round" stroke-miterlimit="4"/><path d="M453.25575,186.05404h-8.06745v-36.80866h8.06745z" fill="#37b937" stroke-width="0.26612" stroke-linecap="round" stroke-linejoin="round" stroke-miterlimit="4"/><path d="M450.51884,158.25641l4.97391,-4.03011l-1.6464,6.08986l-3.13268,1.69819z" fill="#37b937" stroke-width="0.18472" stroke-linecap="round" stroke-linejoin="round" stroke-miterlimit="4"/><path d="M449.77391,152.83175l4.7594,-1.77914l-1.4319,3.83886l-3.13263,1.69819z" fill="#37b937" stroke-width="0.18472" stroke-linecap="round" stroke-linejoin="round" stroke-miterlimit="4"/><path d="M448.8647,178.34233l1.5839,-3.35884l6.11569,-1.70319l-4.19469,5.27076z" fill="#37b937" stroke-width="0.18472" stroke-linecap="round" stroke-linejoin="round" stroke-miterlimit="4"/><path d="M449.95174,178.3412l3.35397,1.11045l0.9513,6.10643l-3.90914,-3.47719z" fill="#37b937" stroke-width="0.18472" stroke-linecap="round" stroke-linejoin="round" stroke-miterlimit="4"/><path d="M450.11871,176.41402l-0.17031,-3.28386l4.4878,-4.7346l-1.58038,6.53453z" fill="#37b937" stroke-width="0.16142" stroke-linecap="round" stroke-linejoin="round" stroke-miterlimit="4"/><path d="M446.36724,152.25135v-2.12178h33.15069v2.12178z" fill="#58c238" stroke-width="0.12952" stroke-linecap="round" stroke-linejoin="round" stroke-miterlimit="4"/><path d="M479.51793,152.2514v-2.12178h37.12206v2.12178z" fill="#58c238" stroke-width="0.13706" stroke-linecap="round" stroke-linejoin="round" stroke-miterlimit="4"/><path d="M516.84151,177.40397v8.65007h-37.29141v-8.65007z" fill="#37b937" stroke-width="0.27736" stroke-linecap="round" stroke-linejoin="round" stroke-miterlimit="4"/><path d="M485.80862,180.49704l-4.32509,-5.50659l6.24609,1.93902l1.58389,3.35884z" fill="#37b937" stroke-width="0.18472" stroke-linecap="round" stroke-linejoin="round" stroke-miterlimit="4"/><path d="M486.46211,182.4596l-6.94418,-2.05975l6.94418,-2.05979l2.93807,2.05979z" fill="#37b937" stroke-width="0.18472" stroke-linecap="round" stroke-linejoin="round" stroke-miterlimit="4"/><path d="M489.96813,177.46862l6.38059,-1.14225l-4.70174,4.25977l-3.06278,-0.18205z" fill="#37b937" stroke-width="0.16142" stroke-linecap="round" stroke-linejoin="round" stroke-miterlimit="4"/><path d="M506.24326,181.46545l-3.13256,-1.69819l-0.67572,-5.65605l4.00294,3.5963z" fill="#37b937" stroke-width="0.18472" stroke-linecap="round" stroke-linejoin="round" stroke-miterlimit="4"/><path d="M503.08884,179.55213l1.58379,-3.35884l4.78957,-1.50524l-2.86857,5.07285z" fill="#37b937" stroke-width="0.18472" stroke-linecap="round" stroke-linejoin="round" stroke-miterlimit="4"/><path d="M505.15172,181.14697l1.58379,-3.35884l6.97438,-1.93898l-5.05338,5.50662z" fill="#37b937" stroke-width="0.18472" stroke-linecap="round" stroke-linejoin="round" stroke-miterlimit="4"/><path d="M505.36304,180.22037l-3.06278,0.18205l-4.41587,-4.81189l6.09444,1.69441z" fill="#37b937" stroke-width="0.16142" stroke-linecap="round" stroke-linejoin="round" stroke-miterlimit="4"/><path d="M481.98949,177.40401v8.65002h-36.80129v-8.65002z" fill="#37b937" stroke-width="0.27554" stroke-linecap="round" stroke-linejoin="round" stroke-miterlimit="4"/><path d="M466.37705,180.82545l1.58389,-3.35884l5.67962,-1.76552l-3.75873,5.33309z" data-paper-data="{&quot;origPos&quot;:null}" fill="#37b937" stroke-width="0.18472" stroke-linecap="round" stroke-linejoin="round" stroke-miterlimit="4"/><path d="M472.66826,180.92843l1.58382,-3.35884l3.58033,-1.53552l-1.65927,5.10313z" fill="#37b937" stroke-width="0.18472" stroke-linecap="round" stroke-linejoin="round" stroke-miterlimit="4"/><path d="M450.28358,178.40156l4.56934,-4.46388l-1.24205,6.52367l-3.13263,1.69815z" fill="#37b937" stroke-width="0.18472" stroke-linecap="round" stroke-linejoin="round" stroke-miterlimit="4"/><path d="M450.41141,181.11037l-5.05328,-5.50659l6.97438,1.93898l1.58379,3.35884z" fill="#37b937" stroke-width="0.18472" stroke-linecap="round" stroke-linejoin="round" stroke-miterlimit="4"/><path d="M455.00829,177.38697l6.09444,-1.69441l-4.41587,4.81189l-3.06268,-0.1828z" fill="#37b937" stroke-width="0.16142" stroke-linecap="round" stroke-linejoin="round" stroke-miterlimit="4"/><path d="M449.96878,178.70972l3.13263,1.69819l1.43214,3.8389l-4.75944,-1.77915z" fill="#37b937" stroke-width="0.18472" stroke-linecap="round" stroke-linejoin="round" stroke-miterlimit="4"/><path d="M517.61159,183.04802v2.12175h-71.24428v-2.12175z" fill="#58c238" stroke-width="0.18987" stroke-linecap="round" stroke-linejoin="round" stroke-miterlimit="4"/><path d="M522.28392,180.33845l-3.75873,-5.33313l5.67962,1.76552l1.58382,3.35884z" fill="#37b937" stroke-width="0.18472" stroke-linecap="round" stroke-linejoin="round" stroke-miterlimit="4"/><path d="M517.22461,181.1372l-1.65944,-5.10313l3.58033,1.53552l1.58382,3.35883z" fill="#37b937" stroke-width="0.18472" stroke-linecap="round" stroke-linejoin="round" stroke-miterlimit="4"/><path d="M539.48139,180.90159l1.58379,-3.35884l6.97434,-1.93898l-5.05335,5.50659z" fill="#37b937" stroke-width="0.18472" stroke-linecap="round" stroke-linejoin="round" stroke-miterlimit="4"/><path d="M539.77351,180.32165l-3.06278,0.18243l-4.41577,-4.81189l6.09444,1.69441z" fill="#37b937" stroke-width="0.16142" stroke-linecap="round" stroke-linejoin="round" stroke-miterlimit="4"/><path d="M543.62375,182.46762l-4.75937,1.77914l1.4319,-3.83886l3.13263,-1.69819z" fill="#37b937" stroke-width="0.18472" stroke-linecap="round" stroke-linejoin="round" stroke-miterlimit="4"/><path d="M547.03045,183.04806v2.12175h-33.15073v-2.12175z" fill="#58c238" stroke-width="0.12952" stroke-linecap="round" stroke-linejoin="round" stroke-miterlimit="4"/><path d="M513.87973,183.04802v2.12175h-37.12203v-2.12175z" fill="#58c238" stroke-width="0.13706" stroke-linecap="round" stroke-linejoin="round" stroke-miterlimit="4"/><path d="M545.40586,150.13771h1.97887v35.03208h-1.97887z" fill="#58c238" stroke-width="0.12858" stroke-linecap="round" stroke-linejoin="round" stroke-miterlimit="4"/><path d="M447.9919,185.16977h-1.97887v-35.03206h1.97887z" fill="#58c238" stroke-width="0.12858" stroke-linecap="round" stroke-linejoin="round" stroke-miterlimit="4"/><path d="M444.98806,186.11669v-29.00001h103.33333v29.00001z" data-paper-data="{&quot;origPos&quot;:null}" fill="#b27034" stroke-width="0" stroke-linecap="butt" stroke-linejoin="miter" stroke-miterlimit="10"/><path d="M-75.02026,187.12891v-40h105v40z" fill="#9966ff" stroke-width="0" stroke-linecap="butt" stroke-linejoin="miter" stroke-miterlimit="10"/><path d="M442.97974,190.12891v-43h106v43z" fill="#9966ff" stroke-width="0" stroke-linecap="butt" stroke-linejoin="miter" stroke-miterlimit="10"/></g></g></svg>