<svg version="1.1" xmlns="http://www.w3.org/2000/svg" xmlns:xlink="http://www.w3.org/1999/xlink" width="838.01937" height="896.26214" viewBox="0,0,838.01937,896.26214"><defs><linearGradient x1="182.49437" y1="301.88653" x2="182.49437" y2="414.87915" gradientUnits="userSpaceOnUse" id="color-1"><stop offset="0" stop-color="#0f9605"/><stop offset="1" stop-color="#13bd07"/></linearGradient><linearGradient x1="183.10542" y1="527.45386" x2="183.10542" y2="414.4612" gradientUnits="userSpaceOnUse" id="color-2"><stop offset="0" stop-color="#0f9605"/><stop offset="1" stop-color="#13bd07"/></linearGradient><linearGradient x1="181.88324" y1="78.85376" x2="181.88324" y2="191.84638" gradientUnits="userSpaceOnUse" id="color-3"><stop offset="0" stop-color="#0f9605"/><stop offset="1" stop-color="#13bd07"/></linearGradient><linearGradient x1="182.49437" y1="304.42105" x2="182.49437" y2="191.42843" gradientUnits="userSpaceOnUse" id="color-4"><stop offset="0" stop-color="#0f9605"/><stop offset="1" stop-color="#13bd07"/></linearGradient><linearGradient x1="181.88324" y1="-146.01222" x2="181.88324" y2="-33.01956" gradientUnits="userSpaceOnUse" id="color-5"><stop offset="0" stop-color="#0f9605"/><stop offset="1" stop-color="#13bd07"/></linearGradient><linearGradient x1="182.49437" y1="79.55511" x2="182.49437" y2="-33.43751" gradientUnits="userSpaceOnUse" id="color-6"><stop offset="0" stop-color="#0f9605"/><stop offset="1" stop-color="#13bd07"/></linearGradient><linearGradient x1="181.27224" y1="-368.4339" x2="181.27224" y2="-255.44124" gradientUnits="userSpaceOnUse" id="color-7"><stop offset="0" stop-color="#0f9605"/><stop offset="1" stop-color="#13bd07"/></linearGradient><linearGradient x1="181.88324" y1="-143.47761" x2="181.88324" y2="-256.47027" gradientUnits="userSpaceOnUse" id="color-8"><stop offset="0" stop-color="#0f9605"/><stop offset="1" stop-color="#13bd07"/></linearGradient></defs><g transform="translate(328.51937,368.62098)"><g data-paper-data="{&quot;isPaintingLayer&quot;:true}" fill-rule="nonzero" stroke-linejoin="miter" stroke-miterlimit="10" stroke-dasharray="" stroke-dashoffset="0" style="mix-blend-mode: normal"><path d="M-29.5,377.5v-395h539v395z" fill="#000000" stroke="none" stroke-width="0" stroke-linecap="butt"/><g stroke="#095803" stroke-width="0.37415" stroke-linecap="round"><g><g><path d="M182.49437,301.88653h49.87749l-7.60881,60.6307v52.36201l-32.96978,-1.37722l-1.69017,-55.119z" fill="url(#color-1)"/><path d="M190.71414,470.9576l1.69017,-55.119l32.96978,-1.37722v52.36201l7.60881,60.6307h-49.87749z" fill="url(#color-2)"/></g><g><path d="M181.88324,78.85376h49.87749l-7.60881,60.6307v52.36201l-32.96978,-1.37722l-1.69017,-55.119z" fill="url(#color-3)"/><path d="M190.10306,247.92461l1.69017,-55.119l32.96978,-1.37722v52.36201l7.60881,60.6307h-49.87749z" fill="url(#color-4)"/></g></g><g><g><path d="M181.88324,-146.01222h49.87749l-7.60881,60.6307v52.36201l-32.96978,-1.37722l-1.69017,-55.119z" fill="url(#color-5)"/><path d="M190.10306,23.05885l1.69017,-55.119l32.96978,-1.37722v52.36201l7.60881,60.6307h-49.87749z" fill="url(#color-6)"/></g><g><path d="M181.27224,-368.4339h49.87749l-7.60881,60.6307v52.36201l-32.96978,-1.37722l-1.69017,-55.119z" fill="url(#color-7)"/><path d="M189.49199,-199.97396l1.69017,-55.119l32.96978,-1.37722v52.36201l7.60881,60.6307h-49.87749z" fill="url(#color-8)"/></g></g></g><path d="M-294,179.71666c0,-1.38071 1.11929,-2.5 2.5,-2.5c1.38071,0 2.5,1.11929 2.5,2.5c0,1.38071 -1.11929,2.5 -2.5,2.5c-1.38071,0 -2.5,-1.11929 -2.5,-2.5z" fill="#ffffff" stroke="none" stroke-width="0.5" stroke-linecap="butt"/><g stroke="none"><g fill="#666666" stroke-width="1.16465"><path d="M-106.90245,224.92236c41.21891,0 78.58675,2.40028 105.63464,6.27623c27.04974,3.87595 43.79797,9.23102 43.79797,15.13741c0,5.90666 -16.74824,11.26145 -43.79797,15.13767c-27.04789,3.87595 -64.41573,6.27597 -105.63464,6.27597c-41.21706,0 -78.58675,-2.40002 -105.63464,-6.27597c-27.04789,-3.87622 -43.79797,-9.23102 -43.79797,-15.13767c0,-5.90639 16.75009,-11.26145 43.79797,-15.13741c27.04789,-3.87595 64.41757,-6.27623 105.63464,-6.27623z" stroke-linecap="butt"/><g stroke-linecap="round"><g><path d="M-161.7293,228.0036l95.68022,-13.0948v13.0948z"/><path d="M-58.52419,265.43904l-95.68022,13.09453v-13.09453z"/></g><g><path d="M-218.14199,234.15972l39.54261,-18.09298l44.20044,11.46093z"/><path d="M-1.45243,259.77101l-39.54076,18.09272l-44.20044,-11.46093z"/></g></g><g stroke-linecap="round"><g><path d="M-247.74125,243.75688l-32.28356,-18.38637l79.48583,6.4601z"/><path d="M30.40837,249.36089l32.28356,18.38637l-79.48582,-6.4601z"/></g><g><path d="M-238.20221,253.82547l-90.31716,-13.85486l91.37316,0.14471z"/><path d="M24.161,239.45076l90.31532,13.85486l-91.37316,-0.14471z"/></g></g><g stroke-linecap="round"><g><path d="M-196.44423,261.92447l-127.05732,-5.28734l79.03721,-6.572z"/><path d="M-22.28619,230.34462l127.05732,5.28707l-79.03721,6.572z"/></g><g><path d="M-130.97619,265.82661l-129.05115,4.17939l46.99365,-11.2305z"/><path d="M-85.14008,226.11522l129.05115,-4.17913l-46.99365,11.23024z"/></g></g></g><g fill="#b2b2b2" stroke-width="1"><path d="M-105.33507,227.76365c35.39062,0 67.47664,2.06086 90.70116,5.38893c23.22452,3.32807 37.606,7.92598 37.606,12.99744c0,5.07146 -14.38148,9.66938 -37.606,12.99744c-23.22452,3.32807 -55.31054,5.38893 -90.70116,5.38893c-35.39062,0 -67.47664,-2.06086 -90.70116,-5.38893c-23.22452,-3.32807 -37.60599,-7.92598 -37.60599,-12.99744c0,-5.07146 14.38147,-9.66938 37.60599,-12.99744c23.22452,-3.32807 55.31054,-5.38893 90.70116,-5.38893z" stroke-linecap="butt"/><g stroke-linecap="round"><g><path d="M-152.4118,230.40917l82.1535,-11.24346v11.24346z"/><path d="M-63.79678,262.55225l-82.15351,11.24346v-11.24346z"/></g><g><path d="M-200.84729,235.69492l33.95063,-15.53503l37.95307,9.84081z"/><path d="M-14.79269,257.68555l-33.95247,15.53503l-37.95122,-9.84054z"/></g></g><g stroke-linecap="round"><g><path d="M-226.26318,243.93545l-27.71989,-15.78715l68.24834,5.54686z"/><path d="M12.56351,248.74713l27.71989,15.78715l-68.24834,-5.54686z"/></g><g><path d="M-218.07368,252.58049l-77.54922,-11.89611l78.45752,0.12434z"/><path d="M7.19862,240.23807l77.54921,11.89611l-78.45752,-0.12434z"/></g></g><g stroke-linecap="round"><g><path d="M-182.21968,259.5345l-109.09431,-4.53971l67.86433,-5.6429z"/><path d="M-32.68183,232.41923l109.09616,4.53971l-67.86433,5.6429z"/></g><g><path d="M-126.00453,262.88505l-110.80754,3.58865l40.34937,-9.64292z"/><path d="M-86.65023,228.78799l110.80754,-3.58865l-40.34937,9.64292z"/></g></g></g><path d="M-106.25814,244.16588c4.8369,0 9.23073,0.28043 12.4061,0.73546c3.17537,0.45503 5.13229,1.08466 5.13229,1.77779c0,0.69313 -1.95692,1.32276 -5.13229,1.77779c-3.17537,0.45503 -7.5692,0.73546 -12.4061,0.73546c-4.8369,0 -9.23073,-0.28043 -12.4061,-0.73546c-3.17537,-0.45503 -5.13229,-1.08466 -5.13229,-1.77779c0,-0.69313 1.95692,-1.32276 5.13229,-1.77779c3.17537,-0.45503 7.5692,-0.73546 12.4061,-0.73546z" fill="#666666" stroke-width="1" stroke-linecap="butt"/></g></g></g></svg>