<svg version="1.1" xmlns="http://www.w3.org/2000/svg" xmlns:xlink="http://www.w3.org/1999/xlink" width="255.26424" height="167.78472" viewBox="0,0,255.26424,167.78472"><g transform="translate(-112.36788,-96.10764)"><g data-paper-data="{&quot;isPaintingLayer&quot;:true}" fill-rule="nonzero" stroke-linejoin="miter" stroke-miterlimit="10" stroke-dasharray="" stroke-dashoffset="0" style="mix-blend-mode: normal"><path d="M367.63212,205.37677c0,43.98784 -57.07127,58.1697 -127.63212,58.1697c-70.56085,0 -127.63212,-14.18187 -127.63212,-58.1697c0,-20.67187 8.30128,-44.46855 26.63326,-63.69822l-14.87312,-34.85374c-2.76709,-6.49001 6.91773,-12.73966 15.91078,-10.09556l49.46177,14.42222c14.52723,-4.56705 31.12979,-7.21111 50.49943,-7.21111c19.02376,0 35.62631,2.88445 50.15354,7.4515l49.80766,-14.42222c8.99305,-2.64406 18.67787,3.60556 15.91078,10.09556l-15.21901,35.33449c18.33198,18.98927 26.97915,42.5456 26.97915,62.97711z" fill="#ff7319" stroke="none" stroke-width="1" stroke-linecap="butt"/><path d="M162.17554,124.37188c-6.91773,4.32666 -13.14369,8.41296 -18.33198,14.66261l-13.48957,-32.45003c-1.03766,-3.84595 4.15064,-7.21111 9.68482,-6.00926l44.61936,12.98001c-10.3766,2.88445 -15.91078,6.73036 -22.48262,10.81667z" fill="#77500c" stroke="none" stroke-width="1" stroke-linecap="butt"/><path d="M296.72539,113.55521l44.61936,-12.98001c5.53418,-1.20185 10.72248,2.16335 9.68482,6.00926l-13.14369,32.69039c-5.53418,-6.24965 -11.41425,-10.33595 -18.67787,-14.66261c-6.57184,-4.32666 -12.45191,-8.17261 -22.48262,-11.05706z" fill="#77500c" stroke="none" stroke-width="1" stroke-linecap="butt"/><path d="M340.30709,207.16697v0" fill="#ffffff" stroke="none" stroke-width="1" stroke-linecap="butt"/><path d="M143.15178,207.16697" fill="#ffffff" stroke="none" stroke-width="1" stroke-linecap="butt"/><path d="M339.9612,219.96477c0,33.2051 -44.61936,43.92759 -99.9612,43.92759c-55.34184,0 -99.9612,-10.72248 -99.9612,-43.92759c0,-33.2051 29.74624,-76.44092 99.9612,-76.44092c68.48553,0 99.9612,43.23581 99.9612,76.44092z" fill="#ffffff" stroke="none" stroke-width="1" stroke-linecap="butt"/><path d="M227.2022,189.00793c0,-4.49652 4.84241,-5.88007 11.06837,-5.88007c6.22596,0 11.06837,1.38355 11.06837,5.88007c0,4.49652 -3.45887,10.03071 -11.06837,10.03071c-7.6095,0 -11.06837,-5.53418 -11.06837,-10.03071z" fill="#945600" stroke="#000000" stroke-width="1.5" stroke-linecap="butt"/><path d="M274.58865,201.80573c0,10.3766 -8.64716,19.02376 -19.02376,19.02376c-10.3766,0 -19.02376,-8.30128 -19.02376,-19.02376c0,-0.69177 0,-0.69177 0,-0.69177c0,-0.69177 0,-1.03766 0,-1.03766c0,0 0,0.34589 0,1.03766c0,0 0,0 0,0.69177c0,10.3766 -8.64716,19.02376 -19.02376,19.02376c-10.3766,0 -19.02376,-8.30128 -19.02376,-19.02376" fill="none" stroke="#000000" stroke-width="2.5" stroke-linecap="round"/><path d="M208.0055,130.72605c0,-5.92185 4.80063,-10.72248 10.72248,-10.72248c5.92185,0 10.72248,4.80063 10.72248,10.72248c0,5.92185 -4.80063,10.72248 -10.72248,10.72248c-5.92185,0 -10.72248,-4.80063 -10.72248,-10.72248z" fill="#000000" stroke="none" stroke-width="1" stroke-linecap="butt"/><path d="M253.14369,130.72605c0,-5.92185 4.80063,-10.72248 10.72248,-10.72248c5.92185,0 10.72248,4.80063 10.72248,10.72248c0,5.92185 -4.80063,10.72248 -10.72248,10.72248c-5.92185,0 -10.72248,-4.80063 -10.72248,-10.72248z" fill="#000000" stroke="none" stroke-width="1" stroke-linecap="butt"/></g></g></svg>