<svg version="1.1" xmlns="http://www.w3.org/2000/svg" xmlns:xlink="http://www.w3.org/1999/xlink" width="550.25806" height="424.70968" viewBox="0,0,550.25806,424.70968"><defs><linearGradient x1="34.66218" y1="73.10519" x2="74.27961" y2="73.10519" gradientUnits="userSpaceOnUse" id="color-1"><stop offset="0" stop-color="#8cfffb"/><stop offset="1" stop-color="#ff8ca2"/></linearGradient><linearGradient x1="18.35542" y1="73.10281" x2="90.58537" y2="73.10281" gradientTransform="translate(-102.70989,-183.76166) scale(5.59534,2.34951)" gradientUnits="userSpaceOnUse" id="color-2"><stop offset="0" stop-color="#2d6fc5"/><stop offset="1" stop-color="#c42d7b"/></linearGradient></defs><g transform="translate(35.12903,32.35484)"><g data-paper-data="{&quot;isPaintingLayer&quot;:true}" fill-rule="nonzero" stroke-linecap="butt" stroke-linejoin="miter" stroke-miterlimit="10" stroke-dasharray="" stroke-dashoffset="0" style="mix-blend-mode: normal"><path d="M-34.12903,391.35484v-422.70968h548.25806v422.70968z" fill="#f5f5f5" stroke="#000000" stroke-width="2"/><path d="M9.10301,261.9917v-253.23621h222.06868v253.23621z" fill="#f5f5f5" stroke="#8e8e8e" stroke-width="3.5"/><text transform="translate(17.82641,48.94722) scale(0.33747,0.33747)" font-size="40" xml:space="preserve" fill="#8e8e8e" fill-rule="nonzero" stroke="none" stroke-width="1" stroke-linecap="butt" stroke-linejoin="miter" stroke-miterlimit="10" stroke-dasharray="" stroke-dashoffset="0" font-family="&quot;ヒラギノ角ゴ Pro W3&quot;, &quot;Hiragino Kaku Gothic Pro&quot;, Osaka, &quot;メイリオ&quot;, Meiryo, &quot;ＭＳ Ｐゴシック&quot;, &quot;MS PGothic&quot;" font-weight="normal" text-anchor="start" style="mix-blend-mode: normal"><tspan x="0" dy="0">Joined: 6th September 2017</tspan></text><text transform="translate(15.20276,106.15927) scale(0.2979,0.2979)" font-size="40" xml:space="preserve" fill="#8e8e8e" fill-rule="nonzero" stroke="none" stroke-width="1" stroke-linecap="butt" stroke-linejoin="miter" stroke-miterlimit="10" stroke-dasharray="" stroke-dashoffset="0" font-family="&quot;ヒラギノ角ゴ Pro W3&quot;, &quot;Hiragino Kaku Gothic Pro&quot;, Osaka, &quot;メイリオ&quot;, Meiryo, &quot;ＭＳ Ｐゴシック&quot;, &quot;MS PGothic&quot;" font-weight="normal" text-anchor="start" style="mix-blend-mode: normal"><tspan x="0" dy="0">Notable Projects:</tspan></text><text transform="translate(15.20276,130.19152) scale(0.25022,0.43347)" font-size="40" xml:space="preserve" fill="#8e8e8e" fill-rule="nonzero" stroke="none" stroke-width="1" stroke-linecap="butt" stroke-linejoin="miter" stroke-miterlimit="10" stroke-dasharray="" stroke-dashoffset="0" font-family="&quot;ヒラギノ角ゴ Pro W3&quot;, &quot;Hiragino Kaku Gothic Pro&quot;, Osaka, &quot;メイリオ&quot;, Meiryo, &quot;ＭＳ Ｐゴシック&quot;, &quot;MS PGothic&quot;" font-weight="normal" text-anchor="start" style="mix-blend-mode: normal"><tspan x="0" dy="0">How to make an SSS character (Nov 2020)</tspan><tspan x="0" dy="46.150000000000006px">Ooga Booga's Journey (2021)</tspan></text><text transform="translate(7.69514,344.82009) scale(1.4788,1.4788)" font-size="40" xml:space="preserve" fill="#8e8e8e" fill-rule="nonzero" stroke="none" stroke-width="1" stroke-linecap="butt" stroke-linejoin="miter" stroke-miterlimit="10" stroke-dasharray="" stroke-dashoffset="0" font-family="&quot;ヒラギノ角ゴ Pro W3&quot;, &quot;Hiragino Kaku Gothic Pro&quot;, Osaka, &quot;メイリオ&quot;, Meiryo, &quot;ＭＳ Ｐゴシック&quot;, &quot;MS PGothic&quot;" font-weight="normal" text-anchor="start" style="mix-blend-mode: normal"><tspan x="0" dy="0">26</tspan></text><text transform="translate(15.43462,35.42793) scale(0.13422,0.13422)" font-size="40" xml:space="preserve" fill="#8e8e8e" fill-rule="nonzero" stroke="none" stroke-width="1" stroke-linecap="butt" stroke-linejoin="miter" stroke-miterlimit="10" stroke-dasharray="" stroke-dashoffset="0" font-family="&quot;ヒラギノ角ゴ Pro W3&quot;, &quot;Hiragino Kaku Gothic Pro&quot;, Osaka, &quot;メイリオ&quot;, Meiryo, &quot;ＭＳ Ｐゴシック&quot;, &quot;MS PGothic&quot;" font-weight="normal" text-anchor="start" style="mix-blend-mode: normal"><tspan x="0" dy="0">@RobloxNoob101</tspan></text><text transform="translate(16.61026,29.32807) scale(0.50346,0.50346)" font-size="40" xml:space="preserve" fill="#8e8e8e" fill-rule="nonzero" stroke="none" stroke-width="1" stroke-linecap="butt" stroke-linejoin="miter" stroke-miterlimit="10" stroke-dasharray="" stroke-dashoffset="0" font-family="&quot;ヒラギノ角ゴ Pro W3&quot;, &quot;Hiragino Kaku Gothic Pro&quot;, Osaka, &quot;メイリオ&quot;, Meiryo, &quot;ＭＳ Ｐゴシック&quot;, &quot;MS PGothic&quot;" font-weight="normal" text-anchor="start" style="mix-blend-mode: normal"><tspan x="0" dy="0">Ellie</tspan></text><g><text transform="translate(257.05438,104.77763) scale(0.61121,0.61121)" font-size="40" xml:space="preserve" fill="#8e8e8e" fill-rule="nonzero" stroke="none" stroke-width="1" stroke-linecap="butt" stroke-linejoin="miter" stroke-miterlimit="10" stroke-dasharray="" stroke-dashoffset="0" font-family="&quot;ヒラギノ角ゴ Pro W3&quot;, &quot;Hiragino Kaku Gothic Pro&quot;, Osaka, &quot;メイリオ&quot;, Meiryo, &quot;ＭＳ Ｐゴシック&quot;, &quot;MS PGothic&quot;" font-weight="normal" text-anchor="start" style="mix-blend-mode: normal"><tspan x="0" dy="0">2019</tspan></text><path d="M249.94926,123.02128v-118.51155h228.33349v118.51155z" fill="none" stroke="#8e8e8e" stroke-width="3.5"/></g><g><text transform="translate(257.05438,223.33538) scale(0.61121,0.61121)" font-size="40" xml:space="preserve" fill="#8e8e8e" fill-rule="nonzero" stroke="none" stroke-width="1" stroke-linecap="butt" stroke-linejoin="miter" stroke-miterlimit="10" stroke-dasharray="" stroke-dashoffset="0" font-family="&quot;ヒラギノ角ゴ Pro W3&quot;, &quot;Hiragino Kaku Gothic Pro&quot;, Osaka, &quot;メイリオ&quot;, Meiryo, &quot;ＭＳ Ｐゴシック&quot;, &quot;MS PGothic&quot;" font-weight="normal" text-anchor="start" style="mix-blend-mode: normal"><tspan x="0" dy="0">2020</tspan></text><path d="M249.94926,241.57903v-118.51155h228.33349v118.51155z" fill="none" stroke="#8e8e8e" stroke-width="3.5"/></g><text transform="translate(12.97295,178.78281) scale(0.24773,0.23311)" font-size="40" xml:space="preserve" fill="#8e8e8e" fill-rule="nonzero" stroke="none" stroke-width="1" stroke-linecap="butt" stroke-linejoin="miter" stroke-miterlimit="10" stroke-dasharray="" stroke-dashoffset="0" font-family="&quot;ヒラギノ角ゴ Pro W3&quot;, &quot;Hiragino Kaku Gothic Pro&quot;, Osaka, &quot;メイリオ&quot;, Meiryo, &quot;ＭＳ Ｐゴシック&quot;, &quot;MS PGothic&quot;" font-weight="normal" text-anchor="start" style="mix-blend-mode: normal"><tspan x="0" dy="0">RobloxNoob101 (aka Noobs64) is a late</tspan><tspan x="0" dy="46.150000000000006px">2.0 male scratcher who strives justice.</tspan><tspan x="0" dy="46.150000000000006px">Noobs makes stuff from interest, but</tspan><tspan x="0" dy="46.150000000000006px">usually forgets about it in a matter of time.</tspan><tspan x="0" dy="46.150000000000006px">Noobs is one of the top 20 puerto rican</tspan><tspan x="0" dy="46.150000000000006px">scratchers and has made rants and</tspan><tspan x="0" dy="46.150000000000006px">inspirational projects that've reached many.</tspan></text><g stroke="none"><path d="M463.65469,78.54532c-1.38719,2.91667 -8.84503,2.26892 -16.65753,-1.44678c-7.81251,-3.71571 -13.02125,-9.09231 -11.63406,-12.00897c1.38719,-2.91667 8.84502,-2.26892 16.65753,1.44678c7.81251,3.71571 13.02125,9.09231 11.63406,12.00897z" data-paper-data="{&quot;origRot&quot;:0,&quot;index&quot;:null}" fill="#cdb5ff" stroke-width="0"/><g data-paper-data="{&quot;origRot&quot;:0}"><path d="M414.7931,105.09268c0.16315,7.95735 -3.07017,14.47707 -7.22183,14.56219c-4.15166,0.08512 -7.64951,-6.29658 -7.81267,-14.25393c-0.16315,-7.95735 3.07017,-14.47706 7.22183,-14.56219c4.15166,-0.08513 7.64951,6.29658 7.81266,14.25393z" data-paper-data="{&quot;origPos&quot;:null,&quot;origRot&quot;:0}" fill="#cdb5ff" stroke-width="0"/><path d="M407.40103,120.08096c-0.45482,0.01666 -0.81416,-0.06943 -1.09803,-0.21428c-1.75295,1.05546 -2.8398,-0.69459 -2.8398,-0.69459l-0.47582,-0.08483c-0.35111,-0.64233 -0.67844,-1.27433 -0.97498,-1.92499l-0.04428,0.01659l-0.44619,-1.19136c-0.08738,-0.21767 -0.1393,-0.45387 -0.14838,-0.70175c-0.00098,-0.02677 -0.00145,-0.05344 -0.00143,-0.08002c-0.02247,-0.61891 0.17359,-1.47241 1.27621,-1.92111c0.05187,-0.0219 0.10483,-0.04178 0.15878,-0.05952c0.819,-0.28131 1.41726,-0.08629 1.8327,0.22615l0.5345,0.24323c0.15023,-0.62196 0.59947,-1.49579 1.93629,-1.54473c1.40527,-0.05145 1.89903,0.8779 2.07166,1.49063c0.13336,-0.21683 0.26671,-0.43366 0.40007,-0.65048c0,0 1.09416,-1.77902 2.87318,-0.68485c1.77902,1.09416 0.68486,2.87318 0.68486,2.87318c-0.78901,1.28286 -1.57802,2.56574 -2.36703,3.84861l-0.50202,0.14219c0,0 -0.91412,1.26849 -2.25805,0.81947c-0.17998,0.05145 -0.38307,0.08409 -0.61224,0.09248z" fill="#f7ffb5" stroke-width="0.5"/></g><path d="M443.03435,77.45656c0,14.41852 -10.09888,26.10704 -22.55648,26.10704c-12.4576,0 -22.55648,-11.68852 -22.55648,-26.10704c0,-14.41852 10.09888,-26.10704 22.55648,-26.10704c12.4576,0 22.55648,11.68852 22.55648,26.10704z" fill="#9966ff" stroke-width="0"/><path d="M425.90813,35.89415c0,-13.84178 7.29363,-25.06276 16.29079,-25.06276c8.99716,0 16.29079,11.22098 16.29079,25.06276c0,13.84178 -7.29363,25.06276 -16.29079,25.06276c-8.99716,0 -16.29079,-11.22098 -16.29079,-25.06276z" fill="#cdb5ff" stroke-width="0"/><path d="M377.45347,35.89415c0,-13.84178 7.29363,-25.06276 16.29079,-25.06276c8.99716,0 16.29079,11.22098 16.29079,25.06276c0,13.84178 -7.29363,25.06276 -16.29079,25.06276c-8.99716,0 -16.29079,-11.22098 -16.29079,-25.06276z" fill="#cdb5ff" stroke-width="0"/><path d="M451.3886,40.90671c0,15.45665 -14.68078,27.98675 -32.79044,27.98675c-18.10966,0 -32.79044,-12.53009 -32.79044,-27.98675c0,-15.45665 14.68078,-27.98675 32.79044,-27.98675c18.10966,0 32.79044,12.53009 32.79044,27.98675z" fill="#cdb5ff" stroke-width="0"/><g stroke-width="0"><path d="M444.28749,44.74307c0,3.18725 -2.3377,5.77103 -5.22141,5.77103c-2.88371,0 -5.22141,-2.58378 -5.22141,-5.77103c0,-3.18725 2.3377,-5.77103 5.22141,-5.77103c2.88371,0 5.22141,2.58378 5.22141,5.77103z" data-paper-data="{&quot;origPos&quot;:null}" fill="#000000"/><path d="M443.47196,43.48993c0,1.91842 -1.40707,3.47361 -3.14279,3.47361c-1.73571,0 -3.14279,-1.55519 -3.14279,-3.47361c0,-1.91842 1.40708,-3.47361 3.14279,-3.47361c1.73571,0 3.14279,1.55519 3.14279,3.47361z" data-paper-data="{&quot;origPos&quot;:null}" fill="#ffffff"/></g><g stroke-width="0"><path d="M409.61734,45.16078c0,3.18725 -2.3377,5.77103 -5.22141,5.77103c-2.88371,0 -5.22141,-2.58378 -5.22141,-5.77103c0,-3.18725 2.3377,-5.77103 5.22141,-5.77103c2.88371,0 5.22141,2.58378 5.22141,5.77103z" data-paper-data="{&quot;origPos&quot;:null}" fill="#000000"/><path d="M408.80181,43.90764c0,1.91842 -1.40708,3.47361 -3.14279,3.47361c-1.73571,0 -3.14279,-1.55519 -3.14279,-3.47361c0,-1.91842 1.40708,-3.47361 3.14279,-3.47361c1.73571,0 3.14279,1.55519 3.14279,3.47361z" data-paper-data="{&quot;origPos&quot;:null}" fill="#ffffff"/></g><path d="M409.61734,61.16577c0,1.96092 -2.43121,3.55056 -5.43026,3.55056c-2.99905,0 -5.43026,-1.58964 -5.43026,-3.55056c0,-1.96092 2.43121,-3.55056 5.43026,-3.55056c2.99905,0 5.43026,1.58964 5.43026,3.55056z" fill="#ff8c8c" stroke-width="0"/><path d="M448.0469,59.49492c0,1.96092 -2.43121,3.55056 -5.43026,3.55056c-2.99905,0 -5.43026,-1.58964 -5.43026,-3.55056c0,-1.96092 2.43121,-3.55056 5.43026,-3.55056c2.99905,0 5.43026,1.58964 5.43026,3.55056z" fill="#ff8c8c" stroke-width="0"/><g stroke-width="0.5"><path d="M413.13401,46.44415c1.26015,-0.42005 1.986,0.2285 2.34746,0.7563l-0.33524,-0.64299c0.44591,0.22296 0.86484,0.61493 1.36338,0.61493c2.63851,0 5.30037,-0.10278 7.93654,0c0.78362,0.03055 1.74689,-0.20688 2.33131,0.31604c0.74601,0.66751 1.49229,1.36209 2.05467,2.19024c0.31288,0.46076 0,1.1139 0,1.67085c0,1.04428 0,2.08856 0,3.13284c0,1.47981 -0.11955,2.43527 0.31054,3.72552c0.22936,0.68808 0.39552,1.13026 0.52489,1.9136c0.03403,0.20606 0.20165,0.57218 0,0.62657c-0.01145,0.00309 -0.02311,0.00364 -0.03488,0.00194c0.07812,0.13927 0.15975,0.27604 0.25858,0.40093c0.12219,0.15441 0.4064,0.22113 0.41771,0.41771c0.00782,0.13578 -0.51856,-0.15103 -0.39866,-0.08684c0.43485,0.23283 1.12849,0.47792 1.60306,0.41771c0.2184,-0.02771 0.41064,-0.25179 0.62657,-0.20886c0.11487,0.02284 -0.29306,0.35097 -0.18981,0.29569c0.1736,-0.09294 0.27848,-0.27847 0.41771,-0.41771c1.0244,-1.02441 2.00468,-1.93822 3.32265,-2.59311c1.88369,-0.936 5.36574,-0.74731 7.4327,-0.46253c1.29741,0.17875 3.69128,1.21941 3.39936,2.7728c-0.02255,0.11998 -0.37265,-0.25263 -0.34051,-0.13486c0.05185,0.18996 0.31325,0.25079 0.41771,0.41771c0.48157,0.76946 1.02944,1.61339 1.02944,2.52112c0,0.90527 0.19713,2.04423 0,2.92399c-0.15966,0.71252 -0.33569,1.42741 -0.61173,2.10341c-0.04485,0.10984 -0.16376,0.30647 -0.26539,0.40474c-0.31709,1.57244 -0.59126,2.19139 -1.56223,3.24521c-0.47033,0.51047 -0.94816,1.02199 -1.49504,1.44943c-0.40871,0.31945 -1.38345,0.46115 -1.87971,0.62657c-1.42233,0.47411 -2.90877,1.15147 -4.41987,1.15147c0.03767,-0.1191 -1.56764,0.42666 -1.84582,0.51939c-1.04282,0.34761 -2.05333,0.73375 -3.16674,0.73375c-1.4548,0 -2.87344,0.10105 -4.29137,-0.35077c-0.23917,-0.07621 -0.57848,-0.17135 -0.62657,-0.41771c-0.03424,-0.17541 0.67785,0.03629 0.53196,-0.06694c-0.261,-0.18466 -1.79903,0 -2.08856,0c-1.33752,0 -2.75118,0.04641 -3.81581,-0.8738c-0.5129,-0.07454 -1.02708,-0.15538 -1.51984,-0.3124c-0.88002,-0.28042 -3.02578,-2.02711 -3.32914,-2.33047c-0.2049,-0.2049 -0.09496,-0.58125 -0.22726,-0.83904c-0.29376,-0.57239 -0.574,-1.1565 -0.93905,-1.68628c-1.10532,-1.60413 -2.08724,-2.89468 -2.70028,-4.81854c-0.26888,-0.84378 0,-2.24029 0,-3.13284c1.69616,2.35757 -0.82076,-1.42309 -0.83543,-1.46199c-0.19651,-0.52113 0,-1.1139 0,-1.67085c0,-0.94877 -0.21804,-1.29723 -0.41771,-2.50628c-0.36878,-2.23297 0,-4.8348 0,-7.10112c0,0 0,-0.12409 0.03025,-0.31178l-0.34078,-0.28089c0,0 -0.66046,-1.98138 1.32092,-2.64185zM416.30074,51.34393c0,1.18539 0,2.37077 0,3.55615c0,0.54616 -0.06265,1.53219 0.10167,1.84582c0.4008,0.76496 0.31604,1.70494 0.31604,2.54017c0,0.22306 0,0.44613 0,0.66919c0.09056,0.10506 0.18487,0.26517 0.2237,0.36025c0.27603,0.676 0.40782,1.40228 0.61172,2.10341c0,0.83543 0,1.67085 0,2.50628c0,0.20886 -0.12063,0.45607 0,0.62657c0.10322,0.1459 -0.10847,-0.5662 0.06694,-0.53196c0.52945,0.10335 0.74695,1.37376 0.95888,2.06349c-0.00898,-0.051 -0.00268,-0.08646 0.03331,-0.08438c0.19659,0.01132 0.30176,0.25857 0.41771,0.41771c0.14647,0.20103 1.36144,2.07262 1.56723,2.49084c0.11602,0.2358 0.20398,0.48403 0.29059,0.73265c0.40139,0.15331 1.01021,0.49267 1.46707,0.769c0.00047,-0.00314 0.00113,-0.00627 0.00196,-0.00938c0.05439,-0.20165 0.43321,-0.07896 0.62657,0c0.51082,0.20858 0.98171,0.50138 1.45865,0.78142c0.04318,-0.0986 0.44569,0.054 0.62991,0.054c0.27848,0 0.55695,0 0.83543,0c1.53939,0 2.66829,0.07704 3.96706,0.84049c0.00034,-0.00169 0.00075,-0.00339 0.00121,-0.00507c0.05439,-0.20165 0.41771,0 0.62657,0c0.79283,0 1.72644,0.13379 2.50628,0c1.30145,-0.22327 2.82812,-1.12341 4.38598,-1.25314c0.93868,0 2.06821,-0.59352 3.09895,-0.9371c0.41108,-0.13702 0.82215,-0.27405 1.23323,-0.41108c-0.00466,-0.00554 -0.00905,-0.01193 -0.01314,-0.0192c-0.12301,-0.21881 0.26036,-0.431 0.41771,-0.62657c0.14601,-0.18147 0.30683,-0.35032 0.46881,-0.51803c-0.24276,-0.09857 -0.0804,-0.57451 0.01584,-0.82972c0.19507,-0.51731 0.47355,-0.99929 0.76524,-1.4715c-0.06319,-0.08184 0.07019,-0.44484 0.07019,-0.61706c0,-0.64433 0,-1.28865 0,-1.93297c-0.08622,-0.10614 -0.17683,-0.26098 -0.2237,-0.3496c-0.21995,-0.41587 -0.40008,-0.85176 -0.56758,-1.29227c-0.17634,-0.08073 -0.39708,-0.22337 -0.55071,-0.24692c-0.54682,-0.08384 -1.40821,0.06236 -1.99972,0.06236c-0.79283,0 -1.72644,-0.13379 -2.50628,0c-0.71649,0.12292 -1.68498,1.29696 -2.28258,1.89455c-2.55782,2.55782 -8.29329,1.73598 -9.48032,-1.98916c-0.24664,-0.774 -0.21341,-1.61102 -0.35077,-2.41166c-0.0592,-0.34503 -0.63706,-1.29368 -0.72825,-1.84582c-0.20403,-1.23542 -0.10718,-2.54472 -0.10718,-3.7933c0,-1.04428 0,-2.08856 0,-3.13284c0,-0.03953 0,-0.07906 0,-0.11859c-0.57804,-0.01941 -1.2879,0.11859 -1.87971,0.11859c-2.08856,0 -4.17713,0 -6.26569,0c-0.07019,0 -0.1398,-0.00191 -0.20886,-0.00559zM441.99177,70.40584c0.24763,-0.04819 0.53052,-0.09564 0.38212,-0.15207c-0.11128,-0.04231 -0.25443,0.06601 -0.38212,0.15207zM418.6545,67.29909c0.01493,0.03681 0.03001,0.06984 0.04535,0.09847c0.02646,0.04942 -0.00671,-0.01096 -0.04535,-0.09847z" fill="#000000"/><path d="M416.49337,51.33637c2.08856,0 4.18191,-0.00432 6.27047,-0.00432c0.5918,0 1.30413,-0.13938 1.88217,-0.11998c0,0.03953 0.01805,0.11674 0.01805,0.15627c0,1.04428 0.00265,2.08703 0.00265,3.13131c0,1.24859 -0.09198,2.55328 0.11206,3.7887c0.09119,0.55213 0.67137,1.49699 0.73055,1.84201c0.13736,0.80065 0.10603,1.62695 0.35267,2.40096c1.18703,3.72514 6.8825,4.54056 9.44032,1.98274c0.59759,-0.59759 1.56442,-1.76459 2.28092,-1.88751c0.77983,-0.13379 1.71343,0.0003 2.50626,0.0003c0.59152,0 1.49465,-0.14463 2.04147,-0.06079c0.15362,0.02356 0.37436,0.16658 0.55069,0.2473c0.16749,0.4405 0.34744,0.87834 0.56739,1.29421c0.04687,0.08862 0.13741,0.24394 0.22362,0.35008c0,0.64433 -0.00065,1.29138 -0.00065,1.9357c0,0.17222 -0.13365,0.53607 -0.07046,0.6179c-0.2917,0.47221 -0.57111,0.95642 -0.76619,1.47373c-0.09624,0.25521 -0.2591,0.7321 -0.01634,0.83067c-0.16199,0.1677 -0.3233,0.3374 -0.46932,0.51888c-0.15736,0.19557 -0.54133,0.40867 -0.41832,0.62747c0.00409,0.00728 0.00847,0.01367 0.01313,0.01922c-0.41108,0.13702 -0.82311,0.27532 -1.23419,0.41234c-1.03074,0.34358 -2.16358,0.94033 -3.10226,0.94033c-1.55786,0.12973 -3.0916,1.03347 -4.39306,1.25674c-0.77983,0.13379 -1.71801,0.00078 -2.51085,0.00078c-0.20886,0 -0.57338,-0.20161 -0.62777,0.00004c-0.00046,0.00169 -0.00085,0.00338 -0.00121,0.00507c-1.29878,-0.76345 -2.43534,-0.84195 -3.97473,-0.84195c-0.27848,0 -0.55828,-0.00058 -0.83676,-0.00058c-0.18422,0 -0.5877,-0.15309 -0.63087,-0.0545c-0.47694,-0.28003 -0.95037,-0.57447 -1.46119,-0.78304c-0.19336,-0.07896 -0.57288,-0.2022 -0.62726,-0.00054c-0.00084,0.00311 -0.00149,0.00624 -0.00196,0.00939c-0.45686,-0.27634 -1.06769,-0.61756 -1.46909,-0.77088c-0.08661,-0.24862 -0.17541,-0.4978 -0.29144,-0.7336c-0.20579,-0.41823 -1.42351,-2.2941 -1.56999,-2.49513c-0.11595,-0.15915 -0.22152,-0.40726 -0.41811,-0.41858c-0.03599,-0.00207 -0.04224,0.03348 -0.03326,0.08448c-0.21192,-0.68973 -0.43062,-1.96373 -0.96006,-2.06709c-0.17541,-0.03424 0.03648,0.67865 -0.06674,0.53276c-0.12063,-0.1705 -0.00024,-0.41868 -0.00024,-0.62754c0,-0.83543 -0.0005,-1.67499 -0.0005,-2.51042c-0.20391,-0.70114 -0.33549,-1.43079 -0.61152,-2.10679c-0.03882,-0.09508 -0.13306,-0.25569 -0.22362,-0.36074c0,-0.22306 0.0002,-0.44714 0.0002,-0.6702c0,-0.83522 0.0858,-1.77854 -0.31501,-2.54349c-0.16432,-0.31363 -0.10071,-1.30171 -0.10071,-1.84787c0,-1.18538 0.00209,-2.37392 0.00209,-3.55931c0.06906,0.00369 0.13876,0.00547 0.20895,0.00547z" data-paper-data="{&quot;noHover&quot;:false,&quot;origItem&quot;:[&quot;Path&quot;,{&quot;applyMatrix&quot;:true,&quot;segments&quot;:[[[464,377.97323],[0.33067,0.01766],[0,5.67559]],[[464,395],[0,-5.67559],[0,2.615]],[[464.48683,403.83772],[-0.78679,-1.50164],[1.91904,3.66261]],[[466,416],[0,-3.99904],[0,1.06803]],[[466,419.20409],[0,-1.06803],[0.4336,0.50302]],[[467.07107,420.92893],[-0.18589,-0.45524],[1.32162,3.23668]],[[470,431],[-0.97631,-3.35702],[0,4]],[[470,443],[0,-4],[0,1]],[[470,446],[-0.57757,-0.81634],[0.49423,0.69854]],[[470.3205,443.453],[-0.83984,-0.16395],[2.53499,0.49487]],[[474.91159,453.33294],[-1.01469,-3.3024],[-0.043,-0.24418]],[[475.07107,452.92893],[-0.1723,-0.00992],[0.94125,0.05419]],[[477.07107,454.92893],[-0.55521,-0.76199],[0.70133,0.96253]],[[484.57493,466.85504],[-0.98529,-2.00245],[0.55551,1.12898]],[[485.96628,470.36294],[-0.41467,-1.19039],[1.92187,0.73404]],[[492.99061,474.0449],[-2.18745,-1.32308],[0.00225,-0.01503]],[[493,474],[-0.00402,0.0149],[0.26042,-0.9655]],[[496,474],[-0.92579,-0.37803],[2.44579,0.99868]],[[502.98401,477.74142],[-2.28359,-1.34081],[0.20674,-0.47209]],[[506,478],[-0.88203,0],[1.33333,0]],[[510,478],[-1.33333,0],[7.37059,0]],[[528.99425,482.02428],[-6.21855,-3.65539],[0.00165,-0.00811]],[[529,482],[-0.00218,0.00807],[0.26042,-0.9655]],[[532,482],[-1,0],[3.79606,0]],[[544,482],[-3.73384,0.64057],[6.23134,-1.06903]],[[565,476],[-7.45901,0.62115],[4.49438,0]],[[579.83772,471.51317],[-4.93516,1.64505],[1.96822,-0.65607]],[[585.7424,469.54494],[-1.96822,0.65607],[-0.02231,-0.02654]],[[585.6795,469.453],[0.01959,0.03485],[-0.58898,-1.04764]],[[587.6795,466.453],[-0.75343,0.93637],[0.69913,-0.86889]],[[589.92417,463.97268],[-0.77558,0.80295],[-1.16232,-0.47196]],[[590,460],[-0.46077,1.22192],[0.93399,-2.47685]],[[593.66395,452.95446],[-1.39662,2.26094],[-0.30253,-0.39183]],[[594,450],[0,0.82459],[0,-3.08501]],[[594,440.74496],[0,3.08501],[-0.41282,-0.50817]],[[592.92893,439.07107],[0.22441,0.42431],[-1.0531,-1.99118]],[[590.2114,432.88372],[0.80193,2.10913],[-0.84429,-0.38653]],[[587.57464,431.70143],[0.73555,0.11278],[-2.61814,-0.40144]],[[578,432],[2.83216,0],[-3.79606,0]],[[566,432],[3.73384,-0.64057],[-3.43056,0.58854]],[[555.07107,441.07107],[2.86127,-2.86127],[-12.24678,12.24678]],[[509.6795,431.547],[5.68347,17.83589],[-1.1809,-3.7059]],[[508,420],[0.65767,3.8335],[-0.28341,-1.65197]],[[504.51317,411.16228],[0.43659,2.64357],[-0.9769,-5.91516]],[[504,393],[0,5.97822],[0,-5]],[[504,378],[0,5],[0,-0.18927]],[[504,377.43219],[0,0.18927],[-2.76763,-0.09292]],[[495,378],[2.83356,0],[-10,0]],[[465,378],[10,0],[-0.33606,0]]],&quot;closed&quot;:true}]}" fill="#cdb5ff"/></g><path d="M388.51739,67.37177c7.81251,-3.71571 15.27034,-4.36345 16.65753,-1.44678c1.38719,2.91667 -3.82155,8.29327 -11.63406,12.00897c-7.8125,3.71571 -15.27034,4.36345 -16.65753,1.44678c-1.38719,-2.91667 3.82155,-8.29327 11.63406,-12.00897z" data-paper-data="{&quot;origRot&quot;:0}" fill="#cdb5ff" stroke-width="0"/><g data-paper-data="{&quot;origRot&quot;:0}"><path d="M442.78604,104.75601c0.23791,7.95547 -2.93402,14.50527 -7.0847,14.6294c-4.15068,0.12412 -7.70833,-6.22444 -7.94623,-14.1799c-0.23791,-7.95547 2.93402,-14.50527 7.0847,-14.6294c4.15068,-0.12412 7.70833,6.22444 7.94623,14.1799z" data-paper-data="{&quot;origPos&quot;:null,&quot;origRot&quot;:0}" fill="#cdb5ff" stroke-width="0"/><path d="M435.53511,119.81309c-0.45465,0.02092 -0.81478,-0.06178 -1.1,-0.20395c-1.74296,1.07189 -2.8462,-0.66788 -2.8462,-0.66788l-0.4766,-0.08035c-0.35713,-0.63901 -0.69039,-1.26791 -0.99302,-1.91574l-0.04412,0.017l-0.45737,-1.18712c-0.08942,-0.21684 -0.14355,-0.45254 -0.15496,-0.70033c-0.00123,-0.02677 -0.00196,-0.05343 -0.00218,-0.08c-0.02829,-0.61867 0.15975,-1.47398 1.25811,-1.93303c0.05166,-0.0224 0.10443,-0.04275 0.15822,-0.06101c0.81632,-0.289 1.41639,-0.0996 1.83474,0.20892l0.53676,0.2382c0.14438,-0.62335 0.58539,-1.50135 1.9217,-1.56286c1.40473,-0.06466 1.90719,0.86002 2.08557,1.47111c0.13131,-0.21807 0.26263,-0.43614 0.39394,-0.65421c0,0 1.0774,-1.78922 2.86662,-0.71182c1.78922,1.0774 0.71182,2.86662 0.71182,2.86662c-0.77692,1.29022 -1.55384,2.58045 -2.33076,3.87068l-0.50066,0.1469c0,0 -0.90216,1.27703 -2.25026,0.84065c-0.17948,0.05314 -0.38226,0.08769 -0.61136,0.09823z" fill="#f7ffb5" stroke-width="0.5"/></g><path d="M401.79856,82.79464c0.59439,-0.21175 1.17464,-0.05432 1.17464,-0.05432c1.61057,0.437 3.22033,0.9476 4.81095,1.46199c0.88783,0.28711 1.64735,0.88327 2.5107,1.20242c1.15503,0.42696 3.02518,0.19722 4.33522,0.19722c4.95396,0 9.88052,-0.31824 14.81773,-0.41771c2.02334,0 4.09895,-0.20886 6.15802,-0.20886c0.64146,0 1.28292,0 1.92438,0c0.13359,0 0.26718,0 0.40077,0c0.08901,-0.07081 0.28106,-0.1512 0.36898,-0.20886c0.3456,-0.22663 0.71434,-0.40839 1.07466,-0.60673c-0.00676,-0.00464 -0.01225,-0.01116 -0.01625,-0.01984c-0.07172,-0.15567 0.13394,-0.37193 0.28866,-0.41771c0.89094,-0.26367 1.82353,-0.31813 2.73529,-0.47718c1.82735,0.7933 2.43994,2.55619 3.38018,4.28077c1.45582,2.67021 3.24765,5.01163 4.94971,7.47466c0.70567,1.02117 1.36914,2.07374 2.0206,3.13284c0.24433,0.39722 0.82468,0.7689 0.68795,1.22286c-0.34073,1.13127 -0.8522,2.20211 -1.41654,3.2226c-0.30318,0.54823 -1.6266,0.35824 -2.15798,0.35824c-2.14889,0 -4.29779,0 -6.44668,0c-2.8545,0 -5.70899,0 -8.5635,0c-1.13782,0 -2.54246,-0.25175 -3.65633,0c-0.29107,0.06578 -1.29416,0.37814 -1.73194,0.41771c-3.29727,0 -6.6931,0.54347 -10.00678,0.20886c-1.61627,-0.16321 -3.17359,-0.20886 -4.81095,-0.20886c-4.47875,0 -8.89758,0.41771 -13.37445,0.41771c-1.94714,0 -3.85863,0.03829 -5.78966,0.18786c-0.19753,0.0153 -0.82349,-0.04177 -1.28129,-0.011l-0.88375,0.19183c-0.13407,0.03209 -0.2734,0.04902 -0.41637,0.04902c-1.06281,0 -1.92438,-0.93508 -1.92438,-2.08856c0,-0.35079 0.07968,-0.68138 0.22048,-0.97162l0.27134,-0.58899c-0.07815,-0.21756 0.19244,-0.41771 0.28866,-0.62657c0.51317,-1.1139 1.04439,-2.21822 1.53951,-3.3417c1.28165,-2.90822 1.75443,-6.18649 2.93523,-9.1828c0.71503,-1.81074 1.66334,-6.05974 4.3667,-5.12968c0.41753,0.14365 0.81992,0.33084 1.21647,0.53439z" fill="#9966ff" stroke-width="0.5"/></g><g><g data-paper-data="{&quot;index&quot;:null}" stroke-width="1"><path d="M418.98458,230.09951l3.02588,-21.45628h12.92879l4.1262,21.45628z" data-paper-data="{&quot;origPos&quot;:null}" fill="#d6bbff" stroke="#9d85c1"/><g data-paper-data="{&quot;origPos&quot;:null}" fill="#f7ffb5" stroke="none"><path d="M432.13437,229.58862c0,-1.67115 1.71871,-3.02588 3.83887,-3.02588c2.12014,0 3.83887,1.35473 3.83887,3.02588c0,0.35558 -0.18991,1.25027 -0.18991,1.25027c0,0 -2.26543,-0.03205 -3.73669,-0.03205c-1.35335,0 -3.3909,-0.0989 -3.3909,-0.0989c0,0 -0.36022,-0.71154 -0.36022,-1.11931z" data-paper-data="{&quot;origPos&quot;:null}"/><path d="M424.93924,229.58864c0,-1.67115 1.71873,-3.02588 3.83887,-3.02588c2.12014,0 3.83887,1.35473 3.83887,3.02588c0,0.35557 -0.18991,1.25027 -0.18991,1.25027c0,0 -2.26543,-0.03205 -3.73671,-0.03205c-1.35335,0 -3.39092,-0.0989 -3.39092,-0.0989c0,0 -0.3602,-0.71154 -0.3602,-1.11931z" data-paper-data="{&quot;origPos&quot;:null}"/><path d="M421.67074,226.56275c2.12014,0 3.83885,1.35474 3.83885,3.02589c0,0.35557 -0.18991,1.25027 -0.18991,1.25027c0,0 -2.26543,-0.03205 -3.73669,-0.03205c-1.35335,0 -3.39092,-0.0989 -3.39092,-0.0989c0,0 -0.36022,-0.71154 -0.36022,-1.11931c0,-1.67115 1.71873,-3.02589 3.83887,-3.02589z" data-paper-data="{&quot;origPos&quot;:null}"/></g></g><g data-paper-data="{&quot;index&quot;:null}" stroke-width="1"><path d="M392.57686,230.09951l3.02589,-21.45628h12.92879l4.1262,21.45628z" data-paper-data="{&quot;origPos&quot;:null}" fill="#d6bbff" stroke="#9d85c1"/><g data-paper-data="{&quot;origPos&quot;:null}" fill="#f7ffb5" stroke="none"><path d="M405.72665,229.58862c0,-1.67115 1.71873,-3.02588 3.83887,-3.02588c2.12014,0 3.83885,1.35473 3.83885,3.02588c0,0.35558 -0.18991,1.25027 -0.18991,1.25027c0,0 -2.26543,-0.03205 -3.73669,-0.03205c-1.35335,0 -3.3909,-0.0989 -3.3909,-0.0989c0,0 -0.36022,-0.71154 -0.36022,-1.11931z" data-paper-data="{&quot;origPos&quot;:null}"/><path d="M398.53152,229.58864c0,-1.67115 1.71873,-3.02588 3.83887,-3.02588c2.12014,0 3.83887,1.35473 3.83887,3.02588c0,0.35557 -0.18991,1.25027 -0.18991,1.25027c0,0 -2.26543,-0.03205 -3.73671,-0.03205c-1.35335,0 -3.3909,-0.0989 -3.3909,-0.0989c0,0 -0.36022,-0.71154 -0.36022,-1.11931z" data-paper-data="{&quot;origPos&quot;:null}"/><path d="M395.26301,226.56275c2.12014,0 3.83885,1.35474 3.83885,3.02589c0,0.35557 -0.18991,1.25027 -0.18991,1.25027c0,0 -2.26543,-0.03205 -3.73669,-0.03205c-1.35335,0 -3.3909,-0.0989 -3.3909,-0.0989c0,0 -0.36022,-0.71154 -0.36022,-1.11931c0,-1.67115 1.71871,-3.02589 3.83887,-3.02589z" data-paper-data="{&quot;origPos&quot;:null}"/></g></g><path d="M453.00403,193.80701c-0.7511,3.69716 -8.15469,4.22301 -16.5364,1.17455c-8.38171,-3.04847 -14.56756,-8.51689 -13.81646,-12.21403c0.7511,-3.69716 8.15469,-4.22301 16.5364,-1.17455c8.38171,3.04847 14.56756,8.51689 13.81648,12.21403z" data-paper-data="{&quot;origRot&quot;:0,&quot;index&quot;:null}" fill="#d6bbff" stroke="#9d85c1" stroke-width="1"/><path d="M396.27501,195.53172c-8.38171,3.04847 -15.7853,2.52261 -16.5364,-1.17455c-0.7511,-3.69716 5.43475,-9.16556 13.81646,-12.21405c8.38171,-3.04847 15.78532,-2.52261 16.53641,1.17455c0.7511,3.69716 -5.43477,9.16556 -13.81648,12.21403z" data-paper-data="{&quot;origRot&quot;:0,&quot;index&quot;:null}" fill="#d6bbff" stroke="#9d85c1" stroke-width="1"/><path d="M383.22412,215.79532l15.45893,-32.33599l31.79459,-0.67366l15.7399,32.33599z" data-paper-data="{&quot;index&quot;:null}" fill="#999bff" stroke="#7850c7" stroke-width="1"/><g><g data-paper-data="{&quot;index&quot;:null}" stroke-width="1"><path d="M448.88358,158.9928c-4.55621,30.89007 -15.29379,19.73207 -20.87757,18.50041c-5.58376,-1.23165 -8.41397,-18.60598 -6.05623,-29.2949c2.35773,-10.68892 8.79562,-18.35557 14.37939,-17.1239c5.58376,1.23165 15.32203,12.72667 12.5544,27.91838z" data-paper-data="{&quot;origRot&quot;:0,&quot;origPos&quot;:null,&quot;index&quot;:null}" fill="#d6bbff" stroke="#9d85c1"/><path d="M366.93419,156.39731c1.38203,-19.21558 16.7172,-23.96426 21.76663,-22.74416c5.04945,1.22009 7.57431,18.58782 5.4191,29.28112c-2.15523,10.6933 0.30506,18.25651 -4.74438,17.03642c-5.04944,-1.22009 -21.72353,-8.30627 -22.44135,-23.57339z" data-paper-data="{&quot;origRot&quot;:0,&quot;origPos&quot;:null}" fill="#d6bbff" stroke="#9d85c1"/><path d="M383.66073,161.66248c-1.84521,-17.56805 10.22548,-33.23467 26.96067,-34.99241c16.73518,-1.75773 31.79756,11.05907 33.64276,28.6271c1.84521,17.56804 -10.22547,33.23467 -26.96065,34.99241c-16.73518,1.75773 -31.79756,-11.05907 -33.64277,-28.6271z" data-paper-data="{&quot;origPos&quot;:null,&quot;origRot&quot;:0}" fill="#d6bbff" stroke="#9d85c1"/><path d="M417.28034,156.08677c-0.40956,-3.89945 2.3537,-7.3857 6.17191,-7.78673c3.81821,-0.40105 7.24552,2.435 7.65508,6.33445c0.40958,3.89947 -2.35368,7.3857 -6.17191,7.78673c-3.81821,0.40103 -7.24552,-2.435 -7.65509,-6.33445z" data-paper-data="{&quot;origPos&quot;:null,&quot;origRot&quot;:0}" fill="#000000" stroke="none"/><path d="M422.76253,154.23502c-0.21332,-2.03097 1.19433,-3.84342 3.14407,-4.0482c1.94973,-0.20479 3.70321,1.27563 3.91654,3.30661c0.21332,2.03096 -1.19432,3.84339 -3.14405,4.04818c-1.94973,0.20479 -3.70322,-1.27563 -3.91654,-3.30659z" data-paper-data="{&quot;origRot&quot;:0}" fill="#ffffff" stroke="none"/><path d="M430.23764,161.65034c0.71906,-1.16135 3.23579,-1.41112 5.62125,-0.55786c2.38547,0.85325 3.73636,2.48639 3.0173,3.64775c-0.71906,1.16135 -3.23577,1.41112 -5.62124,0.55786c-2.38548,-0.85325 -3.73636,-2.48641 -3.01732,-3.64776z" data-paper-data="{&quot;origPos&quot;:null,&quot;origRot&quot;:0}" fill="#ffc0bb" stroke="none"/><path d="M381.63963,160.30072c0.13522,-7.13573 6.44181,-24.06495 9.62693,-23.99965c3.18512,0.06532 2.04264,17.10038 1.90742,24.23611c-0.13522,7.13571 0.52476,18.58271 -2.66036,18.51741c-3.18512,-0.0653 -9.00919,-11.61814 -8.87397,-18.75387z" data-paper-data="{&quot;origRot&quot;:0,&quot;origPos&quot;:null}" fill="#d6bbff" stroke="none"/><g data-paper-data="{&quot;origPos&quot;:null,&quot;origRot&quot;:0}" fill="#d6bbff"><path d="M444.21104,176.5213c1.937,7.96477 0.01242,13.35032 -14.2392,11.23236c-5.42848,-0.80675 -14.66927,-7.24162 -18.19186,-11.10325c-3.52259,-3.86163 -3.68295,-12.87702 -3.68295,-12.87702l11.63476,-1.25509c0,0 1.45822,9.26519 6.56935,10.14177c6.117,1.04912 15.97292,-4.10355 17.90992,3.86122z" data-paper-data="{&quot;origPos&quot;:null,&quot;origRot&quot;:0}" stroke="#9d85c1"/><path d="M411.11341,170.60648l-3.22337,-8.21975l11.06594,-0.82458l2.11181,7.98868z" data-paper-data="{&quot;origRot&quot;:0,&quot;origPos&quot;:null}" stroke="none"/></g><path d="M392.80883,162.70634c0.83081,-1.17308 3.68539,-1.45834 6.37591,-0.63712c2.69052,0.8212 4.19811,2.43792 3.3673,3.611c-0.83081,1.17308 -3.68539,1.45834 -6.37591,0.63713c-2.69054,-0.82122 -4.19812,-2.43792 -3.36732,-3.611z" data-paper-data="{&quot;origPos&quot;:null,&quot;origRot&quot;:0}" fill="#ffc0bb" stroke="none"/><path d="M402.44106,149.31714c3.81821,-0.40103 7.24553,2.43501 7.65509,6.33445c0.40958,3.89945 -2.35368,7.38568 -6.17191,7.78672c-3.81821,0.40105 -7.24552,-2.43499 -7.65509,-6.33445c-0.40956,-3.89947 2.35368,-7.3857 6.1719,-7.78673z" data-paper-data="{&quot;origPos&quot;:null,&quot;origRot&quot;:0}" fill="#000000" stroke="none"/><path d="M401.83058,155.36c-0.21332,-2.03097 1.19433,-3.84341 3.14407,-4.04818c1.94973,-0.20479 3.70322,1.27563 3.91654,3.30661c0.21332,2.03097 -1.19432,3.84341 -3.14405,4.04818c-1.94973,0.20479 -3.70322,-1.27562 -3.91656,-3.30659z" data-paper-data="{&quot;origRot&quot;:0}" fill="#ffffff" stroke="none"/></g><path d="M390.58002,146.12211c-1.69789,3.39576 -4.32651,9.76135 -4.41414,13.41338c-0.05038,2.09983 2.22551,12.80477 -3.94128,12.80477c-2.62481,0 -3.84944,-1.86578 -3.94128,-3.94128c-0.43108,-9.74364 1.93184,-13.84785 4.05461,-22.27782c0.36955,-1.46753 2.28414,-7.71495 4.27942,-7.57734c0.51903,-0.25163 1.10162,-0.39274 1.71715,-0.39274c2.1767,0 3.94128,1.76457 3.94128,3.94128c0.60393,0.63844 -1.27426,3.18668 -1.69579,4.02975z" fill="#d6bbff" stroke="none" stroke-width="0.5"/></g></g><g stroke="none"><path d="M75.38527,91.27756c-10.03632,0 -18.17236,-8.13604 -18.17236,-18.17236c0,-10.03632 8.13604,-18.17236 18.17236,-18.17236c10.03632,0 18.17236,8.13604 18.17236,18.17236c0,10.03632 -8.13604,18.17236 -18.17236,18.17236z" data-paper-data="{&quot;index&quot;:null}" fill="#ff8ca2" stroke-width="0"/><path d="M15.38415,73.10519c0,-10.03632 8.13604,-18.17236 18.17236,-18.17236c10.03632,0 18.17236,8.13604 18.17236,18.17236c0,10.03632 -8.13604,18.17236 -18.17236,18.17236c-10.03632,0 -18.17236,-8.13604 -18.17236,-18.17236z" fill="#8cfffb" stroke-width="0"/><path d="M34.66218,91.2038v-36.19726h39.61743v36.19726z" fill="url(#color-1)" stroke-width="0"/><text transform="translate(18.35631,78.21264) scale(0.17872,0.42562)" font-size="40" xml:space="preserve" fill="url(#color-2)" fill-rule="nonzero" stroke="none" stroke-width="1" stroke-linecap="butt" stroke-linejoin="miter" stroke-miterlimit="10" stroke-dasharray="" stroke-dashoffset="0" font-family="&quot;ヒラギノ角ゴ Pro W3&quot;, &quot;Hiragino Kaku Gothic Pro&quot;, Osaka, &quot;メイリオ&quot;, Meiryo, &quot;ＭＳ Ｐゴシック&quot;, &quot;MS PGothic&quot;" font-weight="normal" text-anchor="start" style="mix-blend-mode: normal"><tspan x="0" dy="0">Game Dev/Animator</tspan></text></g><text transform="translate(5,356.4341) scale(0.24569,0.24569)" font-size="40" xml:space="preserve" fill="#b6b6b6" fill-rule="nonzero" stroke="none" stroke-width="1" stroke-linecap="butt" stroke-linejoin="miter" stroke-miterlimit="10" stroke-dasharray="" stroke-dashoffset="0" font-family="&quot;ヒラギノ角ゴ Pro W3&quot;, &quot;Hiragino Kaku Gothic Pro&quot;, Osaka, &quot;メイリオ&quot;, Meiryo, &quot;ＭＳ Ｐゴシック&quot;, &quot;MS PGothic&quot;" font-weight="normal" text-anchor="start" style="mix-blend-mode: normal"><tspan x="0" dy="0">Written by @RobloxNoob101</tspan></text><path d="M173.24731,31.5538c-23.56816,-7.38402 -21.33333,-21 -21.33333,-21h77.66666v24.33334c0,0 -32.76517,4.05068 -56.33334,-3.33334z" fill="#edbd1a" stroke="none" stroke-width="0"/><text transform="translate(167.58065,26.63714) scale(0.34832,0.34832)" font-size="40" xml:space="preserve" fill="#ffffff" fill-rule="nonzero" stroke="none" stroke-width="1" stroke-linecap="butt" stroke-linejoin="miter" stroke-miterlimit="10" stroke-dasharray="" stroke-dashoffset="0" font-family="Sans Serif" font-weight="normal" text-anchor="start" style="mix-blend-mode: normal"><tspan x="0" dy="0">SIGNUPS</tspan></text></g></g></svg>