<svg version="1.1" xmlns="http://www.w3.org/2000/svg" xmlns:xlink="http://www.w3.org/1999/xlink" width="295.68713" height="356.4743" viewBox="0,0,295.68713,356.4743"><g transform="translate(-102.96839,-17.27835)"><g data-paper-data="{&quot;isPaintingLayer&quot;:true}" fill-rule="nonzero" stroke-linejoin="miter" stroke-miterlimit="10" stroke-dasharray="" stroke-dashoffset="0" style="mix-blend-mode: normal"><path d="M289.34425,222.07803l3.64993,10.02406l-24.4587,8.90583l-3.64993,-10.02406z" fill="#ffd5a1" stroke="#525252" stroke-width="1" stroke-linecap="butt"/><path d="M268.96767,238.83976l-2.84715,-7.25691c0,0 20.7904,-7.95309 20.89157,-7.67525c0.75144,2.06373 6.51257,9.43767 4.76083,10.0755c-3.9084,1.26871 -22.80525,4.85666 -22.80525,4.85666z" fill="#e7c091" stroke="none" stroke-width="0" stroke-linecap="butt"/><g data-paper-data="{&quot;index&quot;:null}" stroke-width="1" stroke-linecap="butt"><path d="M149.2195,203.09597c-1.17765,4.44208 -5.82569,7.06394 -10.38164,5.8561c-4.55595,-1.20784 -7.29466,-5.78803 -6.11702,-10.23009c1.17765,-4.44208 5.8257,-7.06395 10.38166,-5.8561c4.55595,1.20784 7.29466,5.78801 6.117,10.2301z" data-paper-data="{&quot;origPos&quot;:null}" fill="#ffd4a0" stroke="#e7c091"/><path d="M145.61817,191.64615l119.78631,28.66571c0,0 1.9003,15.36456 -4.03518,17.85319c-13.49512,5.65824 -23.84544,1.85083 -37.44927,-1.79924c-22.19308,-5.95465 -83.992,-24.50931 -83.992,-24.50931z" data-paper-data="{&quot;origRot&quot;:0,&quot;origPos&quot;:null}" fill="#e80000" stroke="#740000"/></g><path d="M253.18161,55.79l-25.53106,76.05138l-26.42921,-8.8725l25.53106,-76.05138z" fill="#4d87ff" stroke="#0046d1" stroke-width="1" stroke-linecap="butt"/><path d="M298.75966,54.10037l-41.98802,68.35682l-23.75522,-14.59159l41.98802,-68.35682z" data-paper-data="{&quot;index&quot;:null}" fill="#4d87ff" stroke="#0046d1" stroke-width="1" stroke-linecap="butt"/><path d="M264.83204,95.76726l43.32041,118.97378l-65.59395,23.88389l-43.32042,-118.97382z" fill="#e80000" stroke="#740000" stroke-width="1" stroke-linecap="butt"/><path d="M271.93937,28.35974c7.69395,-13.64663 18.76789,-3.17589 25.64167,1.04631c6.8738,4.22221 10.24387,12.71862 6.95992,18.06492c-3.28392,5.34625 -7.27958,9.77543 -14.15337,5.55322c-6.8738,-4.22221 -24.58612,-13.77776 -18.44825,-24.66443z" data-paper-data="{&quot;index&quot;:null}" fill="#c58d3b" stroke="#1c1100" stroke-width="1" stroke-linecap="butt"/><path d="M248.5965,17.27835z" data-paper-data="{&quot;index&quot;:null}" fill="#c58d3b" stroke="#784800" stroke-width="1" stroke-linecap="butt"/><path d="M221.30716,36.04178c4.42616,-15.02785 17.57207,-7.31722 25.2196,-4.74988c7.64754,2.56734 12.84291,10.0876 10.84608,16.0357c-1.99681,5.94805 -4.89344,11.16268 -12.54098,8.59534c-7.64754,-2.56734 -27.0557,-7.8926 -23.52468,-19.88113z" fill="#c58d3b" stroke="#1c1100" stroke-width="1" stroke-linecap="butt"/><path d="M294.83099,197.88009l6.64692,18.25487l-8.01925,2.91995l-6.64692,-18.25487z" fill="#e80000" stroke="none" stroke-width="0" stroke-linecap="butt"/><path d="M242.14571,220.08837l6.49329,17.83295l-8.01924,2.91994l-6.4933,-17.83299z" fill="#e80000" stroke="none" stroke-width="0" stroke-linecap="butt"/><g data-paper-data="{&quot;index&quot;:null}"><path d="M273.56673,234.34296c40.53468,-5.9937 77.96415,20.05135 83.60109,58.17325c5.63694,38.1219 -22.65325,73.88468 -63.18793,79.87838c-40.53468,5.9937 -77.96415,-20.05135 -83.60109,-58.17325c-5.63694,-38.1219 22.65325,-73.88468 63.18793,-79.87838z" data-paper-data="{&quot;index&quot;:null}" fill="#e7c091" stroke="#525252" stroke-width="1" stroke-linecap="butt"/><path d="M211.25674,305.99323c-2.16964,-22.34997 6.23937,-36.70479 22.65739,-52.02395c11.24331,-10.49078 19.45941,-13.8213 34.42589,-17.35308c26.05554,-6.14855 60.07723,17.56679 71.79476,41.39002c11.02029,22.40565 13.61459,34.23345 -12.86813,38.14935c0,0 -8.72637,4.98687 -1.17684,-4.5625c3.13605,-3.96681 -21.49377,8.47461 -35.89053,8.00948c0,0 -6.12252,2.07032 0.97178,-7.20058c7.76101,-10.14218 -19.7213,10.67196 -30.05811,9.56702c0,0 9.70161,-2.70802 1.81855,-10.28815c0,0 -20.91021,4.12842 -27.06052,6.7886c-8.43331,3.64763 -18.44556,14.60811 -18.44556,14.60811c0,0 -4.41162,-8.99513 -5.643,-15.90881c-0.67652,-3.79847 0.11014,-4.62583 -0.52565,-11.17551z" data-paper-data="{&quot;index&quot;:null}" fill="#ffd5a1" stroke="none" stroke-width="0" stroke-linecap="butt"/><path d="M294.07088,371.59031c-17.5884,2.60072 -27.54045,1.15737 -44.03851,-5.47053c-11.18103,-4.49186 -18.60336,-8.59485 -27.70022,-16.49675c-4.02796,-3.49891 -5.81004,-11.34783 -5.81004,-11.34783c-0.09706,-7.57846 37.42606,-21.63573 37.42606,-21.63573c6.65369,-0.3324 -17.73024,24.62227 -10.60616,19.30897c7.12406,-5.31332 36.94365,-16.93099 36.94365,-16.93099c11.18159,-1.80933 -24.63914,26.56364 -9.62474,20.87518c15.01445,-5.68841 46.56074,-24.52138 46.56074,-24.52138c9.44275,-1.39626 -19.9029,23.59494 -10.42212,22.48637c10.14165,-1.18582 12.96512,-4.90966 21.90119,-11.61572c6.30999,-4.73529 26.93651,-24.12723 28.0905,-16.32294c2.08446,14.09695 -8.01615,27.24685 -17.29045,38.06609c-10.42178,12.15785 -29.58886,21.26288 -45.42997,23.60525z" data-paper-data="{&quot;index&quot;:null}" fill="#ffef4d" stroke="#716a22" stroke-width="1" stroke-linecap="butt"/><path d="M240.48203,293.78339c-1.76048,-11.90592 -1.1088,-21.86494 1.45553,-22.24412c2.56435,-0.37918 6.07032,8.96509 7.8308,20.87099c1.76048,11.90592 1.1088,21.86494 -1.45553,22.24412c-2.56435,0.37918 -6.07032,-8.96509 -7.8308,-20.87099z" data-paper-data="{&quot;index&quot;:null}" fill="#000000" stroke="#1c1c1c" stroke-width="1" stroke-linecap="butt"/><path d="M234.63112,315.99957c-2.56435,0.37919 -6.07034,-8.96508 -7.83082,-20.87098c-1.76048,-11.90591 -1.1088,-21.86496 1.45555,-22.24414c2.56434,-0.37917 6.07031,8.96509 7.83079,20.87101c1.76048,11.90592 1.10885,21.86493 -1.45553,22.24412z" data-paper-data="{&quot;index&quot;:null}" fill="#000000" stroke="#1c1c1c" stroke-width="1" stroke-linecap="butt"/><path d="M245.23046,257.56729l28.59652,1.94492" fill="none" stroke="#000000" stroke-width="1" stroke-linecap="round"/><path d="M253.46139,319.57527l-11.75615,-9.92248" fill="none" stroke="#000000" stroke-width="1.5" stroke-linecap="round"/></g><g stroke-width="1" stroke-linecap="butt"><path d="M155.33167,262.71402c-4.48342,1.45414 -9.26736,-0.91071 -10.68516,-5.28207c-1.41779,-4.37135 1.06743,-9.09389 5.55086,-10.54803c4.48342,-1.45414 9.26734,0.91074 10.68514,5.28209c1.41779,4.37135 -1.06743,9.09388 -5.55084,10.54802z" data-paper-data="{&quot;origPos&quot;:null}" fill="#ffd4a0" stroke="#e7c091"/><path d="M151.12778,243.9244c0,0 60.69678,-21.89243 82.5327,-29.04675c13.38487,-4.38545 23.51251,-8.75081 37.29572,-3.83587c6.06223,2.16171 5.00139,17.60698 5.00139,17.60698l-118.04757,35.14616z" data-paper-data="{&quot;origRot&quot;:0,&quot;origPos&quot;:null}" fill="#e80000" stroke="#740000"/></g><g stroke-linecap="butt"><g data-paper-data="{&quot;origPos&quot;:null}" stroke="none"><path d="M143.51946,246.99075c6.57926,8.69999 13.26638,23.7712 13.26638,23.7712l-6.58737,4.01685c0,0 -14.28408,-10.63793 -19.3069,-17.2798c-6.57926,-8.69998 -18.4437,-30.14357 -16.25486,-32.04458c4.06551,-3.53092 22.3035,12.83635 28.88276,21.53632z" data-paper-data="{&quot;origRot&quot;:0,&quot;origPos&quot;:null}" fill="#000000" stroke-width="NaN"/><path d="M127.30583,231.72962l-3.16931,2.91841c-0.93371,0.94136 -4.48199,4.25911 -4.48199,4.25911c0,0 -1.4731,-3.06368 -2.31622,-4.40215c-2.20067,-3.49358 -3.36134,-9.32135 -3.29146,-9.50801c0.62944,-1.68094 4.28827,0.80491 7.52085,2.01536c3.23258,1.21045 5.73811,4.7173 5.73811,4.7173z" data-paper-data="{&quot;origPos&quot;:null}" fill="#252525" stroke-width="0"/></g><text transform="translate(124.16038,236.88018) rotate(54.66983) scale(0.11764,0.11764)" font-size="40" xml:space="preserve" data-paper-data="{&quot;origRot&quot;:-11.57517}" fill="#ffffff" fill-rule="nonzero" stroke="#797979" stroke-width="2" stroke-linecap="butt" stroke-linejoin="miter" stroke-miterlimit="10" stroke-dasharray="" stroke-dashoffset="0" font-family="Pixel" font-weight="normal" text-anchor="start" style="mix-blend-mode: normal"><tspan x="0" dy="0">Non-Branded Pen</tspan></text></g><path d="M321.6336,230.1864c-0.71622,0.36688 -1.47441,0.70128 -1.47441,0.70128l0.62219,-1.65918c0.84941,-2.2651 1.57191,-4.68028 2.63851,-6.84976c1.21576,-2.47288 2.91542,-4.67305 4.74742,-6.79356c0.38515,-2.17231 0.77397,-4.34412 1.1665,-6.51557c0.76111,-4.21043 1.13189,-8.80544 2.40776,-12.89044c0.71905,-2.30219 2.09824,-4.63303 3.10352,-6.82775c0.31071,-0.67834 0.65725,-1.341 0.93872,-2.03198c0.0145,-0.0356 0.02685,-0.07323 0.03748,-0.11245c0.1351,-0.49844 -0.00754,-1.25423 0.46252,-1.38755l0.48177,-1.44531c0.31417,-1.02156 1.26534,-1.76412 2.38994,-1.76412c1.38071,0 2.5,1.11929 2.5,2.5c0,0.21236 -0.02648,0.41854 -0.07631,0.61541l-0.4519,1.95823c-0.00242,0.07809 -0.02337,0.16008 -0.05641,0.24442l-0.23081,1.00017l-0.01608,-0.00371c-0.76957,3.08001 -1.66752,6.18949 -2.17085,9.29407c-0.19223,1.18571 -0.33478,2.39168 -0.44097,3.61112c1.55439,-3.61518 2.71787,-7.60703 4.13422,-11.06921c0.81824,-2.00014 2.0658,-4.14843 2.66301,-6.21159c0.70224,-2.426 0.48334,-5.55846 0.70056,-8.05639c0.49703,-5.71587 1.29005,-11.48931 1.29005,-17.22703c0,-3.33333 0,-6.66667 0,-10c0,-1.66667 -1.09759,-3.74578 0,-5c0,-1.25 0,-2.5 0,-2.5c0,-1.38071 1.11929,-2.5 2.5,-2.5c1.18391,0 2.17561,0.82295 2.43426,1.92801l1.05815,4.10997l-0.12042,0.031c0.41368,2.61799 0.48987,5.24283 0.65469,7.92485c0.56327,9.166 0.60259,19.14756 -0.90985,28.25207c-1.47563,8.8829 -4.83913,17.84428 -7.19766,26.54136c-2.11531,7.80022 -3.94421,15.80224 -6.16962,23.63823c0.05582,-0.08971 0.11165,-0.17943 0.16747,-0.26914c0.86486,-2.30991 1.76941,-4.62067 2.70336,-6.95554c0.61898,-1.54746 1.23797,-3.09492 1.85695,-4.64238c0.30949,-0.77373 0.17442,-1.96645 0.92848,-2.32119l0.90685,-2.26712c0.19639,-0.52598 0.56484,-0.96806 1.03688,-1.2578c-0.01851,-2.32249 -0.19829,-4.66133 -0.19422,-6.7755l0.16241,-0.9782c0,0 0.88589,-2.33778 3.22367,-1.45188h-0.00002c0.00612,0.00232 0.01221,0.00464 0.01828,0.00698c0.07907,-0.52731 0.16046,-1.05352 0.24475,-1.57842c0.56669,-3.52884 1.76848,-6.7487 2.89823,-10.13794c0.26352,-0.79057 0.07996,-1.93641 0.79057,-2.37171l0.77234,-2.31702c0.31417,-1.02156 1.26534,-1.76412 2.38994,-1.76412c1.38071,0 2.5,1.11929 2.5,2.5v5h-0.00857c-0.00808,1.00307 -0.02328,2.02048 -0.05107,3.04604c0.42756,-0.34172 0.96974,-0.54604 1.55965,-0.54604c1.38071,0 2.5,1.11929 2.5,2.5c0,0.02923 -0.0005,0.05834 -0.0015,0.08733c0.98816,-2.25213 1.86031,-4.51245 2.35916,-6.71299c0.52331,-2.30843 0.33981,-5.11831 0.49684,-7.48353c0.48144,-7.25157 1.61859,-14.77662 1.49744,-22.0362c-0.08539,-5.11674 -1.01751,-10.02029 -0.79466,-15.1754c0.14396,-3.33022 0.28792,-6.66045 0.43189,-9.99067c0.03599,-0.83256 -0.43746,-1.86763 0.10797,-2.49767l0.10741,-2.48466c0.04992,-1.33671 1.14931,-2.40504 2.49823,-2.40504c1.0731,0 1.98829,0.67611 2.34282,1.62559c0.5705,1.42626 1.1898,2.9745 1.83533,4.58831c2.15393,5.38483 4.59986,11.49966 6.49934,16.24834c1.32447,3.31117 3.0884,6.50616 2.78606,10.13421c-0.61495,7.37941 -0.82507,14.92932 -1.87253,22.25883c-1.51872,10.62712 -4.34323,21.23357 -6.49505,31.75356c-0.13145,0.64262 -0.25768,1.28844 -0.38131,1.93624c1.15575,-1.99923 2.32757,-3.98686 3.52787,-5.94893c2.65026,-11.26611 5.20502,-22.52321 7.47318,-33.87807c0.64481,-3.22806 1.11325,-6.36076 1.44091,-9.63738c0.08292,-0.8292 -0.30867,-1.86814 0.24876,-2.48759l0.24601,-2.46009c0.11199,-1.27708 1.18419,-2.27874 2.49034,-2.27874c1.00919,0 1.87871,0.59797 2.27359,1.45893l1.11901,2.30804l-0.03541,0.01717c2.87645,6.88946 2.14282,13.7239 2.14282,21.21587c0,1.4227 0.04284,2.8767 0.0932,4.34528c0.02069,-0.00051 0.04145,-0.00076 0.06227,-0.00076c1.38071,0 2.5,1.11929 2.5,2.5c0,0.41468 -0.10096,0.80577 -0.27964,1.15004l-1.40133,2.8459l-0.00221,-0.00109c-0.24638,0.49688 -0.49327,0.99356 -0.74022,1.49025c-0.0444,1.74866 -0.16858,3.47512 -0.43241,5.15098c-0.48659,3.09082 -2.82201,6.61808 -4.04391,9.48363c-0.42863,1.00521 -0.85726,2.01042 -1.28589,3.01563c0.5458,0.4586 0.89271,1.14624 0.89271,1.91491c0,0.1348 -0.01067,0.26711 -0.03121,0.39613l-0.70102,4.90717l-0.17078,-0.0244c-0.82723,3.17349 -2.14295,6.15403 -3.34962,9.25691c-3.73299,9.59912 -8.49963,18.32857 -13.70124,27.22321c-2.84139,4.85871 -5.67865,9.7183 -8.5843,14.53332c-2.17808,5.44962 -4.42841,10.96363 -7.43287,15.77544c-2.11334,3.38463 -5.17593,6.40482 -7.40797,9.81181c-0.11806,0.23885 -0.2367,0.47753 -0.35596,0.71605c-0.37268,0.74536 -0.33128,1.96136 -1.11803,2.23607l-1.09381,2.18763c-0.40086,0.84561 -1.26228,1.43041 -2.26029,1.43041c-1.38071,0 -2.5,-1.11929 -2.5,-2.5c0,-0.26404 0.04093,-0.51853 0.1168,-0.75745l-0.35891,0.56167c-0.44026,0.71353 -1.22916,1.18908 -2.12914,1.18908c-1.38071,0 -2.5,-1.11929 -2.5,-2.5c0,-0.23218 0.03165,-0.45696 0.09087,-0.67027l1.21751,-4.79142l0.0034,0.00086c0.15442,-0.60076 0.30942,-1.20135 0.46496,-1.80181c-1.29045,-0.09861 -2.30684,-1.17693 -2.30684,-2.49265c0,-0.37112 0.08087,-0.72335 0.22594,-1.04004l0.96759,-2.24525c-0.30089,-0.77712 0.65961,-1.53059 0.98941,-2.29588c0.47699,-1.10684 0.95399,-2.21368 1.43098,-3.32053c-0.75241,0.57559 -1.50689,1.1487 -2.26287,1.72022c-0.49896,1.49687 -0.99791,2.99374 -1.49687,4.49062c-0.26352,0.79057 -0.05103,1.98761 -0.79057,2.37171l-0.77234,2.31702c-0.31417,1.02156 -1.26534,1.76412 -2.38994,1.76412c-1.38071,0 -2.5,-1.11929 -2.5,-2.5c0,-0.24316 0.03472,-0.47821 0.09946,-0.70047c0.10986,-0.41114 0.4331,-1.62082 0.61932,-2.31769c-0.16288,0.12221 -0.32574,0.24448 -0.48858,0.36681c-2.13373,1.60285 -4.23816,3.23353 -6.36066,4.83451c-2.08179,2.10683 -4.19423,4.17325 -6.34597,6.18596c-3.05076,2.83795 -6.10152,5.67591 -9.15228,8.51386l-0.53792,0.50039c-0.2676,0.42686 -0.54084,0.85207 -0.95159,0.88521l-1.67414,1.55736c-0.44688,0.41809 -1.04735,0.67404 -1.70761,0.67404c-1.38071,0 -2.5,-1.11929 -2.5,-2.5c0,-0.69036 0.27982,-1.31536 0.73223,-1.76777l1.5,-1.5c-0.04785,-0.67097 0.91815,-0.95316 1.42583,-1.42583l0.07417,-0.07417c0.52569,-0.56804 1.00975,-1.17324 1.51587,-1.75878c1.23559,-1.42949 2.47333,-2.85713 3.71138,-4.2845c-0.17075,-1.47766 1.25428,-2.33268 1.25428,-2.33268c0.55799,-0.33479 1.11036,-0.67691 1.65785,-1.02545c5.18688,-6.00291 9.38479,-12.75453 13.46246,-19.58142c-0.21249,-0.36758 -0.33409,-0.79427 -0.33409,-1.24937c0,-0.11851 0.00825,-0.23509 0.0242,-0.34921l0.37494,-2.99949l0.01191,0.00149c0.18864,-1.33915 0.40794,-2.69865 0.65754,-4.0689c-0.04482,-0.18733 -0.06856,-0.38285 -0.06856,-0.58391c0,-0.48219 0.13651,-0.93249 0.373,-1.31437l0.09012,-0.1514c0.19365,-0.95459 0.40175,-1.91205 0.62419,-2.86919c-0.21526,0.31157 -0.43598,0.61658 -0.66287,0.91393c-1.93407,2.53463 -4.90755,4.71645 -7.21005,6.9293c-0.60084,0.57744 -0.96937,1.71429 -1.80251,1.73232l-1.79989,1.72981c-0.44958,0.43343 -1.06113,0.7 -1.73494,0.7c-1.38071,0 -2.5,-1.11929 -2.5,-2.5c0,-0.57332 0.19299,-1.10156 0.51754,-1.52331l2.99171,-3.975l0.00183,0.00138c0.18248,-0.24154 0.36505,-0.48302 0.54769,-0.72443l0.13884,-0.55537c-0.18247,-0.24701 -0.15716,-0.54701 -0.04868,-0.85947c-0.32963,-0.42353 -0.52596,-0.95593 -0.52596,-1.53419c0,-0.41989 0.10352,-0.81561 0.28642,-1.16302l1.09554,-2.19108c-0.04302,-0.17906 1.58602,-3.09188 2.17921,-4.14497c0.51498,-1.62854 1.01743,-3.26201 1.47324,-4.91433c1.76266,-6.38976 2.25128,-13.42694 3.34786,-19.96713c0.16375,-0.97665 0.32824,-1.95312 0.49344,-2.92942c-0.02255,0.06157 -0.04528,0.12294 -0.06821,0.18407l-0.62219,1.65918c0,0 -2.52388,-1.45407 -3.20723,-2.4569zM374.06708,232.19029c0.43206,-1.08163 0.80061,-2.21317 1.12531,-3.37573c-1.82068,3.23614 -3.63839,6.45719 -5.50843,9.59814c-0.42491,0.98925 -0.86767,1.97495 -1.3225,2.9537c0.87777,-1.06705 1.74434,-2.14437 2.59779,-3.23422c1.19268,-1.95873 2.30939,-3.94306 3.10782,-5.94189zM345.54784,264.20375c1.78427,-2.93866 3.33909,-6.07806 4.87178,-9.21533c0.78311,-3.01624 1.59559,-6.0244 2.47508,-9.00502c-0.61714,1.18336 -1.24566,2.35916 -1.88861,3.52517l0.00001,-0.00001c-1.28674,2.33355 -2.63902,4.63883 -4.02752,6.92719c-0.65569,2.92023 -1.32613,5.83316 -2.03605,8.73583c0.20653,-0.32095 0.40841,-0.64353 0.60531,-0.96783zM366.85752,205.11437l0.02764,-0.46993c-0.72833,1.44735 -1.45875,2.89504 -2.19521,4.33967c-0.11707,0.28303 -0.23192,0.56525 -0.34416,0.84661c-0.67773,1.699 -1.35547,3.398 -2.0332,5.09699c0.10668,0.05594 0.20883,0.11935 0.30574,0.18955c1.44384,-2.75504 2.83452,-5.53722 3.92992,-8.37333c0.02158,-0.05587 0.04304,-0.11183 0.06437,-0.16787c-0.0831,-0.5656 -0.13313,-1.11546 0.2449,-1.46171zM339.98757,208.99685c-0.65181,0.95809 -1.36072,1.88669 -2.10268,2.79844c-0.01063,1.84784 -0.01995,3.68518 -0.07178,5.48966c0.71951,-2.76617 1.4386,-5.53121 2.17447,-8.28811zM371.64612,208.94043c-0.04051,0.81487 -0.07407,1.63273 -0.10819,2.45144c1.26018,-5.76067 2.63483,-11.54435 3.80091,-17.34021c-0.00624,0.02174 -0.01247,0.04349 -0.01869,0.06524c-1.11194,3.88594 -2.0071,7.96974 -3.24729,11.8639c0.00971,0.19274 -0.02312,0.40059 -0.07286,0.61444v1.17024h-0.18971c-0.04736,0.39211 -0.10238,0.78376 -0.16418,1.17494zM378.8391,162.59241c0.23489,-2.81864 -1.3799,-5.19751 -2.44571,-7.86203c-1.34648,-3.36619 -2.69296,-6.73239 -4.03943,-10.09858c-0.04861,1.12445 -0.09722,2.2489 -0.14583,3.37336c-0.21277,4.92199 0.69293,9.57361 0.77451,14.46194c0.11519,6.90214 -0.80085,13.9859 -1.34164,20.90857c0.09636,-0.24858 0.19193,-0.49865 0.2868,-0.75038c0.29389,-0.77979 0.15091,-1.93881 0.88166,-2.33938l0.86107,-2.28476c0.34141,-0.97428 1.26909,-1.67296 2.35996,-1.67296c0.70777,0 1.34684,0.29412 1.80167,0.76679c0.39813,-4.83338 0.60756,-9.70991 1.00694,-14.50256zM391.00001,187.26549c0,-2.42389 0,-4.84777 0,-7.27166c-0.0076,0.03828 -0.01523,0.07657 -0.02288,0.11487c-1.43891,7.20348 -2.99248,14.36808 -4.61254,21.52048c1.51019,-1.80827 3.15334,-3.54511 4.65272,-5.31709c0.12662,-0.14964 0.23741,-0.32769 0.34354,-0.5141c-0.11975,-2.89 -0.36083,-5.81596 -0.36083,-8.5325zM352.37412,283.647l-0.57914,1.54436c0.24875,-0.55079 0.49749,-1.10158 0.74623,-1.65237c-0.05002,0.04113 -0.10547,0.07737 -0.16709,0.10801zM353.25193,281.30618c-0.13313,0.35501 -0.17237,0.79473 -0.24588,1.20354c1.80198,-3.99009 3.60396,-7.98019 5.40594,-11.97029c-0.45778,0.40056 -0.91556,0.80111 -1.37334,1.20167c-0.35056,0.32535 -0.71821,0.64372 -1.09364,0.95693c-0.22507,0.19693 -0.45014,0.39387 -0.67521,0.5908c-0.45307,2.79378 -1.01233,5.33588 -2.01788,8.01733zM384.25728,213.31056c-0.31809,0.50206 -0.63379,1.00645 -0.94732,1.5129c-0.09609,0.40794 -0.19231,0.8159 -0.28864,1.22387c0.41199,-0.91226 0.82397,-1.82451 1.23596,-2.73677zM349.65458,289.93084c0.49923,-1.10543 0.99845,-2.21086 1.49768,-3.31629c-0.45631,0.60464 -1.1809,0.99546 -1.99676,0.99546c-0.19751,0 -0.38968,-0.0229 -0.57398,-0.0662c-0.23624,0.9252 -0.47247,1.8504 -0.70871,2.7756c-0.26499,1.0378 -0.49984,2.12092 -0.73841,3.21631c0.85179,-1.19415 1.69141,-2.39605 2.52018,-3.60488zM336.36118,273.42909c-1.37977,2.25836 -2.73975,4.51695 -4.10436,6.76422c1.06078,-1.12391 2.13624,-2.25636 3.20576,-3.40136c0.29953,-1.12095 0.59907,-2.2419 0.8986,-3.36285zM329.76642,238.33805c0.62341,-2.11603 0.71786,-4.64633 1.08812,-6.82779c0.72973,-4.29944 1.76096,-8.6439 1.91191,-13.00647c0.00404,-0.09303 0.00795,-0.18615 0.01172,-0.27936c-0.95934,5.43975 -1.89561,10.88292 -2.80922,16.33186c-0.3124,1.86317 -0.5775,3.76348 -0.83688,5.67652c0.23406,-0.62999 0.44783,-1.26164 0.63435,-1.89476zM343.88025,276.23107c0.38286,-0.30971 0.76472,-0.62077 1.1455,-0.93332c0.10057,-0.2335 0.20112,-0.46701 0.30167,-0.70051c-0.4823,0.54435 -0.96465,1.08902 -1.44717,1.63383z" fill="#ffd5a1" stroke="none" stroke-width="0.5" stroke-linecap="butt"/><path d="M171.00975,80.95131c2.69139,-3.20548 5.49173,-6.28735 8.52284,-8.98769c1.20445,-1.55139 2.3673,-3.13742 3.52027,-4.71491c-4.7414,2.61119 -9.6185,4.99609 -14.47799,7.40557c-0.02204,0.03225 -0.04399,0.06469 -0.06586,0.09733c-3.30721,4.93828 -6.63415,9.85976 -9.97647,14.7708c0.234,-0.22355 0.47658,-0.4343 0.74097,-0.61057c3.19338,-2.12892 6.38675,-4.25783 9.58013,-6.38675c0.74337,-0.49558 1.46107,-1.02154 2.15612,-1.57379zM220.39206,54.30125c-6.09476,2.4379 -12.64739,4.60504 -18.5053,7.54436c-4.0915,2.05299 -7.26698,5.86067 -11.07091,8.36161c-1.86032,1.22268 -4.14375,2.2837 -5.86371,3.67977c-0.72709,0.59017 -1.44025,1.20395 -2.14104,1.83805c-2.48797,3.17587 -5.14618,6.20388 -8.25332,8.77471c-3.75874,4.48996 -7.30597,9.21549 -10.98191,13.45695c-3.1584,3.64431 -6.14566,7.79928 -9.86154,10.8777c-2.74167,2.27134 -6.22928,4.41398 -8.62069,7.02123c-1.62059,1.76686 -2.9029,4.19308 -4.26907,6.16644c-6.0004,8.66724 -10.31978,18.06575 -15.41773,27.25882c-2.23997,5.8014 -4.3366,11.67174 -6.2975,17.63302c-3.74178,11.37525 -6.249,23.24721 -7.57245,35.15824c-0.38135,3.43215 -0.22799,6.89167 -0.61151,10.29968c-0.07685,0.68287 0.0975,1.66056 -0.5,2l-0.48732,1.94927c-0.11313,0.49854 -0.37526,0.94049 -0.73709,1.27656c-0.01179,1.16196 0.00581,2.32461 0.0579,3.48895c0.49182,3.95983 1.26169,7.89198 1.84755,11.84526c0.52875,2.27683 0.90541,4.44329 0.8935,6.85585c-0.0031,0.62651 0.48309,1.50168 -0.01671,1.87948l-0.01668,1.87667c-0.01043,1.37177 -1.12569,2.48058 -2.49993,2.48058c-1.36099,0 -2.46798,-1.08755 -2.49932,-2.44101l-0.05448,-2.0236c-0.24457,-0.26065 -0.13794,-0.69486 -0.03101,-1.12968c-0.06875,-1.95846 -0.26162,-3.90743 -0.51964,-5.85117c-0.15063,-0.66056 -0.32024,-1.33816 -0.50017,-2.05787c-0.94394,-3.77576 -1.42613,-7.51387 -1.58583,-11.23933c-0.10659,-0.83573 -0.20029,-1.67229 -0.27638,-2.51004c-0.2953,-3.25093 0.00258,-6.57236 -0.16066,-9.83319c-0.38378,-7.66637 -1.35933,-15.21873 -0.57237,-22.90619c0.27944,-2.72971 0.47789,-5.51136 0.6871,-8.30224c-0.58088,-0.45779 -0.95382,-1.16767 -0.95382,-1.96465c0,-0.11851 0.00825,-0.23509 0.0242,-0.34921l0.33433,-2.67462c-0.2099,-0.45526 0.02181,-1.02161 0.24321,-1.57627c0.16529,-1.13353 0.31942,-2.269 0.39827,-3.3999c0.18295,-2.62401 -0.43319,-5.52074 0.25501,-8.10001c0.74851,-2.80532 2.91822,-5.33878 3.97694,-8.0401c0.65098,-1.66097 1.17064,-3.38662 1.65959,-5.12549c-0.2327,0.07159 -0.47988,0.11012 -0.73606,0.11012c-1.38071,0 -2.5,-1.11929 -2.5,-2.5c0,-0.26821 0.04224,-0.52656 0.12042,-0.76875l0.84541,-2.84069l0.04061,0.01209c2.73356,-7.92346 7.43415,-15.35202 11.41966,-22.65305c3.56777,-6.53576 7.13553,-13.07153 10.7033,-19.60729c1.1078,-2.02937 2.13337,-4.32194 3.33205,-6.43267c-0.05988,-0.42498 -0.08913,-0.79608 -0.09534,-1.07017c-0.01867,-0.82353 0.89999,-1.18535 1.79112,-1.56074c0.09728,-0.12974 0.19594,-0.25766 0.29606,-0.3836c1.82434,-2.2949 4.63433,-4.12042 6.87396,-6.10214c0.93224,-1.7927 1.95194,-3.48878 3.12118,-4.97304c1.40876,-1.78829 4.00078,-3.34905 5.75099,-4.81415c2.8484,-2.38439 5.66799,-4.79384 8.4934,-7.18517l1.80712,-2.82753l0.19389,0.12392c2.88081,-3.37004 6.61208,-6.11152 10.6339,-8.52177c0.70049,-0.50751 1.41169,-0.98798 2.13257,-1.44721c0.60339,-0.5204 1.21688,-0.987 1.83616,-1.34105c0.7218,-0.41266 1.51482,-0.76118 2.34156,-1.07069c0.26042,-0.13807 0.52177,-0.27491 0.784,-0.41075c4.68369,-3.22551 9.56903,-6.17366 14.78391,-8.68502c11.30787,-5.44558 22.53906,-10.99309 34.10756,-15.86404c3.14404,-1.3238 6.27454,-2.83372 9.48838,-3.97703c0.75638,-0.26908 1.5997,-1.04163 2.31265,-0.67255l2.25706,-0.65639c0.23784,-0.07511 0.49104,-0.11562 0.7537,-0.11562c1.38071,0 2.5,1.11929 2.5,2.5c0,1.01545 -0.60541,1.88949 -1.47497,2.28088l-2.2068,1.0513c-2.14634,1.02249 -4.2667,2.05753 -6.36417,3.10996c0.64294,0.45238 1.06303,1.20014 1.06303,2.04601c0,1.0731 -0.67611,1.98829 -1.62559,2.34282l-0.04299,0.0172c0.17527,-0.00203 0.35067,-0.00306 0.5262,-0.00306c0,0 2.5,0 2.5,2.5c0,2.5 -2.5,2.5 -2.5,2.5c-7.34652,0 -14.47095,1.9437 -21.66987,3.38348c-0.4511,0.09022 -0.91068,0.17406 -1.37656,0.25386c-3.02911,1.9317 -6.03191,3.94832 -9.01969,6.06753c-0.19486,0.13822 -0.38964,0.27663 -0.58432,0.41523c0.26611,-0.09793 0.50802,-0.19054 0.71231,-0.2777c5.63462,-2.40379 12.38851,-5.41695 18.50386,-4.94654c1.66176,0.12783 3.32351,0.25565 4.98527,0.38348c0.83088,0.06391 1.88538,-0.37895 2.49264,0.19174l2.47066,0.19005c1.30154,0.08728 2.33024,1.17067 2.33024,2.49433c0,1.1246 -0.74256,2.07576 -1.76412,2.38994l-2.24596,0.74865c-3.27649,1.16356 -6.36258,3.10306 -9.59787,4.39717zM159.56795,94.94825c-0.64623,0.34241 -1.29614,0.65497 -1.94926,0.92955c0.44265,0.2328 0.75868,0.41328 0.75868,0.41328l-1.33204,0.74624c-2.40207,1.29327 -4.62047,2.91841 -6.80438,4.60818c-0.31052,0.45204 -0.62115,0.90404 -0.93187,1.356c-1.56031,2.26954 -3.2638,4.52966 -4.9151,6.82825c2.01774,-1.67104 4.18115,-3.23071 6.13054,-4.84568c3.40808,-2.82342 6.15291,-6.66513 9.04344,-10.03582zM120.33118,145.04429c-0.76218,2.02014 -2.12664,4.47461 -2.49218,6.60389c-0.11227,0.65396 -0.16931,1.31209 -0.19302,1.9735c0.98728,-2.20056 2.05763,-4.35878 3.22167,-6.46532c1.55836,-4.0248 3.18497,-8.01722 4.88219,-11.98411c-0.05111,0.03116 -0.10575,0.05809 -0.16436,0.08028l-1.26267,2.10444c-0.31684,0.5495 -0.83665,0.96722 -1.45703,1.15071c-0.86038,2.1731 -1.70975,4.35037 -2.5346,6.53662zM110.01843,167.04245c-0.92075,5.92786 -1.10145,12.16061 -1.64515,18.12618c0.56117,-2.95933 1.17602,-5.91848 1.86466,-8.85976c0.1068,-0.52681 0.21364,-1.0542 0.32033,-1.58224c0.90728,-4.49051 0.90484,-9.12132 2.01639,-13.5675c0.54681,-1.79158 0.536,-3.66402 0.46504,-5.54926c-0.29991,1.27309 -0.60371,2.54162 -0.92186,3.80018c-0.64688,2.55895 -1.36585,5.09741 -2.0994,7.6324z" fill="#c58d3b" stroke="none" stroke-width="0.5" stroke-linecap="butt"/></g></g></svg>