<svg version="1.1" xmlns="http://www.w3.org/2000/svg" xmlns:xlink="http://www.w3.org/1999/xlink" width="760.4901" height="438.03334" viewBox="0,0,760.4901,438.03334"><defs><linearGradient x1="240.5" y1="266.71666" x2="240.5" y2="311.71666" gradientUnits="userSpaceOnUse" id="color-1"><stop offset="0" stop-color="#000000"/><stop offset="1" stop-color="#000000" stop-opacity="0"/></linearGradient></defs><g transform="translate(51.55792,48.53334)"><g data-paper-data="{&quot;isPaintingLayer&quot;:true}" fill-rule="nonzero" stroke-linejoin="miter" stroke-miterlimit="10" stroke-dasharray="" stroke-dashoffset="0" style="mix-blend-mode: normal"><path d="M-40,389.5v-419h560v419z" fill="#ffffff" stroke="none" stroke-width="0" stroke-linecap="butt"/><g fill="none" stroke="#cecece" stroke-width="2.5" stroke-linecap="round"><path d="M530.30792,-24.21068h-580.61584"/><path d="M-50.30792,-3.78961h580.61584"/><path d="M-50.30792,16.63146h580.61584"/><path d="M530.30792,37.05253h-580.61584"/><path d="M530.30792,57.47359h-580.61584"/><path d="M-50.30792,77.89466h580.61584"/><path d="M530.30792,98.31573h-580.61584"/><path d="M-50.30792,118.7368h580.61584"/><path d="M530.30792,139.15786h-580.61584"/><path d="M-50.30792,159.57893h580.61584"/><path d="M-50.30792,180h580.61584"/><path d="M-50.30792,200.42107h580.61584"/><path d="M530.30792,220.84214h-580.61584"/><path d="M-50.30792,241.2632h580.61584"/><path d="M530.30792,261.68427h-580.61584"/><path d="M-50.30792,282.10534h580.61584"/><path d="M530.30792,302.52641h-580.61584"/><path d="M-50.30792,322.94747h580.61584"/><path d="M-50.30792,343.36854h580.61584"/><path d="M-50.30792,363.78961h580.61584"/><path d="M-50.30792,384.21068h580.61584"/></g><path d="M44.5,-47.28334v417" fill="none" stroke="#fa6464" stroke-width="2.5" stroke-linecap="round"/><path d="M-23.5,311.71666v-45h528v45z" fill="url(#color-1)" stroke="none" stroke-width="0" stroke-linecap="butt"/><g fill="#000000" stroke="none" stroke-width="0.5" stroke-linecap="butt"><path d="M547.30271,228.76486c-0.91829,2.03208 -0.90671,4.77358 1.18183,6.5657c0.50775,0.43569 2.00827,0.7833 2.42917,1.22436c0.60593,0.63496 -1.2188,1.71259 1.32385,1.92854c4.38217,0.37218 14.3366,-0.27547 18.00253,-0.2103c1.9522,0.03471 3.65819,0.3665 5.5989,0.42833c12.19378,0.38852 24.05887,0.45501 36.29621,0.42693c0.91903,-2.33034 3.0338,-4.40936 1.49622,-6.76291c-0.24985,-0.38246 -0.99039,-0.73881 -1.27895,-1.11966c-0.17182,-0.2268 0.70711,-0.56597 -0.09315,-0.69136c-3.83133,-0.60035 -8.98013,-0.40419 -13.42338,-0.65791c-13.62849,-0.77822 -26.664,-0.45724 -40.28351,-0.82457c-3.58646,-0.09673 -7.15078,-0.38691 -10.74731,-0.31528zM537.21596,227.93659c-0.08092,-0.0822 -0.13726,-0.17183 -0.1643,-0.26956c-0.34809,-1.25803 4.85463,-1.3422 4.85463,-1.3422l5.2027,-0.08417c4.15813,-0.05603 8.28608,0.2051 12.42305,0.32081c5.22677,0.14619 11.02135,-0.05519 16.31073,-0.02315c8.5932,0.05206 17.08931,0.43096 25.4034,0.90485c4.76611,0.27166 15.05665,0.66117 18.48903,1.35315c0.52532,0.1059 2.01799,1.22475 3.07507,2.11412c0.01341,-1.16562 -0.22695,-1.926 -1.08022,-3.24541c-0.21075,-0.32587 0.30426,-1.43948 -1.35625,-1.79029c-6.42079,-1.35649 -18.31524,-1.40841 -25.95217,-1.87173c-19.23448,-1.16691 -37.84191,-1.94773 -57.71088,-2.15898c-40.52765,-1.35315 -82.67961,-0.42388 -123.13576,0.74294c-6.27737,0.18105 -12.09812,0.5431 -18.29547,0.79639c-6.55579,0.26793 -14.16552,-0.03167 -17.77489,1.52903c-4.93441,1.99338 -5.24692,4.66018 -6.62964,6.96396c-1.32203,2.20265 -1.97901,4.49901 -3.4325,6.68488c-3.04524,4.57962 -6.85148,8.98019 1.44189,13.37039c0,0 0.97243,0.51875 0.16825,1.01699c6.42066,-0.46042 13.87079,-0.33072 19.82591,0.37184c14.53699,-0.17729 31.58727,0.15513 41.36101,3.17952c5.56309,1.72144 8.13731,3.564 8.08865,5.37828c7.07019,-0.05265 13.74153,0.13237 20.86803,0.1606c26.18989,0.10373 52.53062,-1.10686 78.58123,-1.5283l5.2027,-0.08417c0,0 0.21472,-0.00347 0.55987,0.00154c-0.08538,-0.4239 -0.02019,-0.84692 0.23026,-1.26422c1.93074,-3.21714 16.52659,-5.87187 29.20444,-6.29677c23.10383,-0.77433 46.57126,2.19045 54.02496,7.46228c10.52739,-0.19328 20.79968,-0.62281 31.17844,-1.00209c13.42143,-0.49047 28.91471,-0.75125 38.90542,-3.25368c0.42964,-1.44279 2.71798,-3.09006 2.31354,-4.51618c-0.04413,-0.15565 -2.71984,-2.49695 -2.78231,-2.59016c-0.4266,-0.63654 -0.73356,-1.36315 -2.56128,-1.83274c-6.47878,-1.66456 -13.24043,-1.30213 -22.13864,-1.44437c-6.82986,-0.10917 -13.23276,-0.01214 -20.10667,0.08646c-7.2063,0.10337 -14.93708,0.02966 -20.22204,-1.43151c-2.95159,-0.81605 -3.92496,-2.0882 -5.04314,-3.08989c-0.45323,-1.60908 -1.42499,-3.21237 -2.26764,-4.82094c-0.77253,1.5326 -2.45305,3.03754 -4.95079,4.52104c-14.75357,1.24881 -30.01131,0.71616 -45.28371,0.23031c-1.77137,-0.05635 -3.30363,-0.37648 -5.08496,-0.40976c-6.34191,-0.11849 -15.57397,0.79868 -21.6773,-0.07384c-8.44024,-1.20661 -4.62598,-1.67564 -6.45095,-3.5058c-0.43879,-0.44004 -1.95606,-0.78641 -2.42917,-1.22436c-2.51719,-2.33022 -2.44323,-5.62047 -1.18257,-8.03506zM543.67632,262.94244l-5.2027,0.08417c-26.34348,0.42617 -52.95319,1.63802 -79.44184,1.53361c-7.71056,-0.0304 -14.75433,-0.25954 -22.50156,-0.13712c-1.93915,1.3866 -5.4092,2.71126 -10.22927,3.90017c-0.9325,0.23 -8.94829,1.85112 -9.60295,1.91592c-0.98126,0.09713 -10.29811,0.23145 -12.03279,0.2595c-8.93164,0.13637 -18.2934,-0.02559 -25.77875,-1.41152c-11.14252,-2.06306 -19.01669,-5.78416 -21.98286,-8.99554c-0.76875,-0.83231 -2.50207,-2.46984 -1.97892,-3.39644c0.75758,-1.34186 3.66182,-2.34272 7.65577,-3.0098c-2.1777,-0.17029 -3.1945,-0.71271 -3.1945,-0.71271c-9.18288,-4.93266 -5.63789,-9.73509 -2.19296,-14.87687c1.4371,-2.14496 2.05146,-4.40375 3.35286,-6.567c1.64967,-2.74219 2.47243,-5.50536 8.06237,-7.93222c1.32231,-0.45679 2.13982,-1.03023 3.96692,-1.37039c6.08328,-1.13256 13.94397,-1.04582 20.9863,-1.33008c6.36302,-0.25684 12.43484,-0.62982 18.88556,-0.81605c41.10356,-1.18663 84.03538,-2.13265 125.20928,-0.74735c20.3881,0.21589 39.56554,1.02442 59.30574,2.22455c9.41876,0.57263 23.58143,0.68396 30.88236,2.55795c6.80467,1.74661 5.52655,5.2655 5.36754,7.42806c-0.23039,3.13284 2.77814,6.20601 3.61736,9.29629c0.37209,0.33152 1.50868,1.52504 2.59245,1.84124c3.80993,1.11155 12.04527,0.5738 16.89308,0.49538c10.28209,-0.16634 23.49432,-0.47681 33.32222,0.30393c23.8922,1.89802 20.13386,8.95987 16.94927,13.6321c-12.18163,3.52812 -28.86983,4.05132 -46.69001,4.70211c-9.67224,0.35323 -19.24767,0.74643 -29.01217,0.96591c0.28374,0.21033 0.52308,0.42954 0.70968,0.65992c1.69891,2.09766 -6.77497,5.16001 -14.73651,5.85452c-2.56479,0.22374 -5.45576,0.06866 -8.14896,0.17153c-5.91575,0.22595 -12.12042,0.7147 -18.12146,0.80469c-5.60857,0.08411 -12.23954,-0.30782 -17.82409,-0.4943c-5.73039,-0.19135 -8.46694,-0.13653 -13.4376,-1.13912c-4.23987,-0.85519 -8.18123,-2.61049 -10.56755,-3.79153c-1.23701,-0.62926 -2.40085,-1.30707 -3.31713,-2.00925c-0.9571,0.09268 -1.76414,0.10574 -1.76414,0.10574zM378.78893,255.21841c-1.99901,0.07034 -4.11171,0.2884 -7.07758,0.3924c-4.75199,0.16662 -5.97572,-0.14096 -6.40415,1.32125c-1.00405,3.42679 8.91948,8.04975 19.90239,10.14982c5.27808,1.00923 12.51629,1.00845 18.7594,0.90075c2.9214,-0.04726 6.06835,0.19106 8.77805,-0.07716c2.59559,-0.25693 4.23866,-0.89037 6.21032,-1.37269c10.49476,-2.56726 12.11794,-5.55191 2.97856,-8.50722c-7.23203,-2.33855 -21.86307,-2.34176 -32.78792,-2.18534c-0.59919,0.03747 -1.18715,0.04101 -1.72599,0.02624c-0.13109,0.00209 -0.26151,0.00419 -0.39123,0.00629l-3.12161,0.0505c0,0 -3.79639,0.06142 -5.1202,-0.70483zM613.14244,259.15598c0.02758,-0.00762 0.05519,-0.01514 0.08282,-0.02253c-8.13193,-2.86701 -24.30442,-4.18264 -38.92845,-3.76518c-7.4982,0.21405 -19.27079,2.08088 -20.17722,4.10594c-0.66524,1.48624 1.42781,2.97831 4.04061,4.28101c1.85088,0.95516 4.83239,2.25107 8.03038,2.98411c2.20243,0.50484 5.22315,0.45632 7.93016,0.53706c8.2655,0.24655 14.45159,0.42159 22.67665,0.11725c5.22973,-0.19351 11.57604,-0.16197 16.61138,-0.47879c2.52419,-0.15882 3.94548,-0.86872 5.04956,-1.33812c4.38104,-1.86259 1.43744,-2.71368 -3.45277,-4.40174l-1.37085,-0.23989c0,0 -3.925,-0.83005 -0.49226,-1.77913z"/><path d="M583.0072,261.06098c-0.82443,0.04556 -1.46322,0.13351 -1.64214,0.32048c-0.87655,0.91606 0.53799,1.87737 1.06078,2.8091c0.11907,0.21223 1.35286,0.56605 2.00595,0.42138c5.8225,-1.28983 3.93278,-2.35634 -0.52243,-3.58403l-0.21277,0.12277c0,0 -0.28605,-0.02899 -0.6894,-0.08969zM590.35863,259.18447l1.45736,0.19913c3.01608,0.86117 6.26597,1.58768 7.02502,2.80361c1.55821,2.49603 -9.0192,5.89097 -20.32019,4.54613c-7.69772,-0.91604 -6.45825,-2.83115 -6.8195,-4.49701c-0.13207,-0.60902 -1.02647,-1.2775 0.04551,-1.82953c2.81517,-1.44967 7.30293,-1.51828 12.53385,-1.8877c0,0 4.38735,-0.28699 6.07791,0.66536z"/><path d="M402.60328,261.64118c-0.31782,0.02813 -0.48506,0.07585 -0.3635,0.15204c0.40115,0.25142 1.44809,0.4179 1.9166,0.66241c0.4681,0.24429 0.38503,0.95098 1.15935,0.75751c2.12063,-0.52986 -0.45716,-0.91827 -1.97699,-1.2859zM409.28418,259.6162c0.865,0.1746 1.32591,0.36462 1.32591,0.36462l0.63532,0.30212c3.53006,1.07446 7.48005,1.76023 4.73475,3.43978c-3.01034,1.84168 -9.78054,2.57269 -17.1554,1.52365c-2.3341,-0.33202 -2.88652,-1.11114 -4.07097,-1.69999c-3.30775,-1.64442 -5.54006,-2.54812 2.17943,-4.13154c1.98598,-0.40736 5.14726,-0.19262 7.72089,-0.28893c0,0 3.04281,-0.04922 4.63012,0.4903z"/><path d="M434.8036,230.57922c-0.95929,0.02702 -1.68968,-0.00479 -1.68968,-0.00479c-9.35058,-0.4411 -14.10188,0.29118 -23.12017,0.65834c-3.74258,0.15237 -8.14957,0.05235 -10.73734,0.94852c-2.27971,0.78949 0.47922,2.43291 0.73962,2.93611c0.43807,0.84654 0.14402,3.25729 2.54262,4.16129c1.33982,0.50496 4.57395,0.47348 6.95969,0.63826c8.1129,0.56034 15.05334,0.43757 23.3711,0.30301c11.98719,-0.19392 23.0335,-0.60862 34.81123,-1.06433c0.44179,-0.01709 7.15805,-0.04943 8.34999,-0.2426c1.16943,-0.18952 4.68709,-1.60571 5.21257,-1.78276c0.29315,-0.09878 9.11736,-2.57589 7.50053,-3.31608c-0.98393,-0.45044 -6.11808,-1.17228 -7.87757,-1.44723c-10.46284,-1.63499 -17.98972,-1.72384 -30.20645,-1.53935c-3.46382,-0.11 -6.98926,-0.13966 -10.47502,-0.08327zM434.42289,228.0695c0.77514,-0.02067 1.33475,-0.0029 1.33475,-0.0029l4.75958,0.15735c3.48576,-0.05639 7.01122,-0.02673 10.47502,0.08327c13.92756,-0.24359 23.69028,0.06872 35.56022,1.9459c4.62912,0.73207 9.81426,1.42523 12.10527,2.77869c3.18626,1.88233 -5.15668,4.27513 -8.86227,5.54154c-2.43933,0.83366 -4.52542,1.90766 -8.24116,2.47861c-4.59521,0.70609 -7.57386,0.41651 -12.32161,0.59728c-12.04154,0.4585 -23.42013,0.88866 -35.66711,1.08678c-11.45495,0.18532 -31.31745,0.63387 -39.45881,-1.97342c-3.91394,-1.25345 -3.80396,-3.95953 -4.46766,-5.3499c-0.94813,-1.98627 -3.64966,-2.87552 0.93489,-4.62827c5.06898,-1.93797 14.47193,-1.82903 22.33214,-2.34813c2.25847,-0.14915 10.89713,-0.73141 12.52818,-0.73167c3.03824,-0.00049 5.99689,0.23017 8.98856,0.36489z"/></g><path d="M435.55201,168.79053l-0.16369,0.13735l0.05304,0.03685l-1.71197,2.46392c-0.67734,1.0126 -2.0119,1.40374 -3.14609,0.86689c-0.74867,-0.35438 -1.23998,-1.0326 -1.38571,-1.78803l-0.49432,-2.42095l0.16179,-0.03303c-0.08758,-0.31544 -0.1447,-0.63825 -0.16103,-0.97091c-0.06251,-1.27299 1.39768,-2.13412 2.02039,-3.24617c0.08307,-0.14836 0.16334,-0.29775 0.24108,-0.44808c-1.55942,1.39668 -3.18525,2.67175 -5.12091,3.72487l-0.06682,0.14174c0,0 -1.06958,2.25965 -3.32921,1.19008c-2.25965,-1.06958 -1.19008,-3.32921 -1.19008,-3.32921l0.19572,-0.41194c0.07465,-0.31863 0.21892,-0.59067 0.38836,-0.8174l0.5481,-1.15364c1.14193,-1.85239 2.64791,-4.56163 4.18629,-6.32002c1.84686,-2.111 3.94955,-3.56648 5.3387,-5.78407c0.04163,-0.14303 0.08477,-0.28648 0.12691,-0.42941c-0.42124,0.57011 -0.84369,1.13955 -1.26695,1.70864l-1.29421,1.37918c0,0 -1.72925,1.80546 -3.53471,0.07622c-1.80546,-1.72925 -0.07622,-3.53471 -0.07622,-3.53471l0.89313,-0.90458c3.07378,-4.13284 6.10752,-8.28268 8.93268,-12.58528c-0.16057,-0.4812 -0.31011,-0.94683 -0.46209,-1.37483c-1.97985,-5.57595 -0.68147,-12.57369 6.84607,-11.89134c0.41502,0.03762 0.8037,0.17767 1.18158,0.35954c0.36899,-0.17303 0.75772,-0.26394 1.17127,-0.22894c3.80287,0.32187 4.16339,3.9131 4.68845,6.42103c0.79093,3.77789 -0.5967,9.7927 -4.26339,11.84404c-0.16956,3.83195 0.02763,7.66989 0.11035,11.50602l0.04819,2.23555c0,0 0.05389,2.49942 -2.44553,2.55331c-0.99821,0.02152 -1.60637,-0.36421 -1.97679,-0.83534c-1.51879,4.0198 -3.18493,7.96527 -5.04239,11.86265z" fill="#000000" stroke="none" stroke-width="0.5" stroke-linecap="butt"/></g></g></svg>