<svg version="1.1" xmlns="http://www.w3.org/2000/svg" xmlns:xlink="http://www.w3.org/1999/xlink" width="153.49226" height="358.66492" viewBox="0,0,153.49226,358.66492"><g transform="translate(-160.56994,-36.4518)"><g data-paper-data="{&quot;isPaintingLayer&quot;:true}" fill-rule="nonzero" stroke-linecap="butt" stroke-linejoin="miter" stroke-miterlimit="10" stroke-dasharray="" stroke-dashoffset="0" style="mix-blend-mode: normal"><path d="M221.20187,179.87329v-10.66789h26.02963v10.66789z" fill="#ffd5a1" stroke="#525252" stroke-width="1"/><path d="M246.08358,171.09485l0.19243,7.79307c0,0 -22.25675,0.35983 -22.25675,0.06415c0,-2.19628 -2.8905,-11.09631 -1.02625,-11.09631c4.1066,0.14509 23.09058,3.23909 23.09058,3.23909z" fill="#e7c091" stroke="none" stroke-width="0"/><path d="M267.11657,171.72205c-37.75465,15.92392 -80.50133,0.0484 -95.4774,-35.45894c-14.97607,-35.50734 3.48959,-77.20063 41.24424,-93.12456c37.75465,-15.92392 80.50133,-0.0484 95.4774,35.45894c14.97607,35.50734 -3.48959,77.20063 -41.24424,93.12456z" data-paper-data="{&quot;index&quot;:null}" fill="#e7c091" stroke="#525252" stroke-width="1"/><path d="M309.56494,86.78422c7.6809,21.10053 3.12205,37.1002 -8.95142,56.03321c-8.2681,12.96561 -15.39251,18.24193 -29.00328,25.39844c-23.69536,12.45897 -62.56053,-2.0114 -79.85479,-22.15478c-16.26518,-18.94476 -21.7303,-29.75031 2.93614,-40.15397c0,0 7.205,-7.0076 2.27866,4.12421c-2.04638,4.62415 18.69732,-13.57245 32.7543,-16.71639c0,0 5.41176,-3.53332 0.85672,7.21518c-4.98311,11.75864 16.43238,-15.2577 26.71771,-16.76847c0,0 -8.71829,5.04441 0.80761,10.41638c0,0 19.21732,-9.2182 24.50872,-13.32965c7.25557,-5.63761 14.21433,-18.75069 14.21433,-18.75069c0,0 6.51767,7.60886 9.43614,13.99617c1.60343,3.50928 1.04825,4.50684 3.29912,10.69037z" data-paper-data="{&quot;index&quot;:null}" fill="#ffd5a1" stroke="none" stroke-width="0"/><path d="M212.9961,43.94009c16.38211,-6.90954 26.37936,-7.99656 44.00972,-5.69751c11.94841,1.55812 20.16006,3.6781 30.94166,9.05861c4.77396,2.38248 8.45918,9.53792 8.45918,9.53792c1.98605,7.31424 -30.83923,30.2945 -30.83923,30.2945c-6.36,1.98306 11.0215,-28.26915 5.44955,-21.34548c-5.57192,6.92367 -31.5467,25.6183 -31.5467,25.6183c-10.37577,4.54367 17.22693,-31.87393 4.10819,-22.61707c-13.1188,9.25683 -38.96419,35.36936 -38.96419,35.36936c-8.79512,3.70955 13.38184,-27.81678 4.47806,-24.37631c-9.52443,3.68027 -11.32878,7.9911 -18.30761,16.7158c-4.92793,6.16071 -20.05982,30.08824 -23.1257,22.81921c-5.53794,-13.13013 0.95976,-28.38535 7.2392,-41.17743c7.05638,-14.37478 23.3433,-27.9768 38.09796,-34.19993z" data-paper-data="{&quot;index&quot;:null}" fill="#ffef4d" stroke="#716a22" stroke-width="1"/><path d="M267.57315,106.695c4.6772,11.08936 6.53256,20.89571 4.1441,21.9031c-2.38847,1.0074 -8.11634,-7.16565 -12.79354,-18.255c-4.6772,-11.08936 -6.53256,-20.89571 -4.1441,-21.9031c2.38847,-1.0074 8.11634,7.16565 12.79354,18.255z" data-paper-data="{&quot;index&quot;:null}" fill="#000000" stroke="#1c1c1c" stroke-width="1"/><path d="M280.48576,101.97656c4.6772,11.08936 6.53256,20.89573 4.14409,21.90313c-2.38847,1.0074 -8.11634,-7.16565 -12.79354,-18.25501c-4.6772,-11.08936 -6.5326,-20.89569 -4.1441,-21.9031c2.38847,-1.0074 8.11636,7.16565 12.79355,18.25499z" data-paper-data="{&quot;index&quot;:null}" fill="#000000" stroke="#1c1c1c" stroke-width="1"/><g data-paper-data="{&quot;index&quot;:null}" stroke-width="1"><path d="M297.86956,293.81605c4.40697,-1.30288 9.06282,1.3051 10.3991,5.82505c1.33628,4.51995 -1.15299,9.24035 -5.55996,10.54323c-4.40697,1.30288 -9.06283,-1.3051 -10.39912,-5.82506c-1.33628,-4.51995 1.15298,-9.24032 5.55997,-10.54321z" data-paper-data="{&quot;origPos&quot;:null}" fill="#ffd4a0" stroke="#e7c091"/><path d="M289.95998,302.84413l-37.77463,-117.23292c0,0 12.1381,-9.60974 17.34933,-5.83266c11.84842,8.58773 13.97575,19.40899 17.92863,32.92794c6.4487,22.05459 22.71994,84.4936 22.71994,84.4936z" data-paper-data="{&quot;origRot&quot;:0,&quot;origPos&quot;:null}" fill="#e80000" stroke="#740000"/></g><path d="M251.65528,377.71633l-23.20017,-76.79453l26.68746,-8.06247l23.20017,76.79453z" fill="#4d87ff" stroke="#0046d1" stroke-width="1"/><path d="M166.74813,350.80038l51.40388,-61.58968l21.40351,17.86377l-51.40388,61.58968z" fill="#4d87ff" stroke="#0046d1" stroke-width="1"/><path d="M201.01849,306.94764v-126.61524h69.80692v126.61528z" fill="#e80000" stroke="#740000" stroke-width="1"/><path d="M178.83436,382.9802c-15.1122,4.129 -15.45784,-11.10745 -17.2911,-18.96333c-1.83327,-7.85591 1.8361,-16.22741 7.94627,-17.65329c6.11011,-1.42586 12.06891,-1.70078 13.90218,6.15513c1.83327,7.85591 7.49851,27.16756 -4.55731,30.4615z" data-paper-data="{&quot;index&quot;:null}" fill="#c58d3b" stroke="#1c1100" stroke-width="1"/><path d="M167.28917,379.59766z" fill="#c58d3b" stroke="#784800" stroke-width="1"/><path d="M289.07814,375.37077c5.089,14.81652 -10.09399,16.13787 -17.81624,18.47082c-7.72227,2.33295 -16.31172,-0.79236 -18.12624,-6.79858c-1.81451,-6.00618 -2.47073,-11.9351 5.25154,-14.26806c7.72227,-2.33295 26.63116,-9.22416 30.6909,2.5958z" fill="#c58d3b" stroke="#1c1100" stroke-width="1"/><g stroke-width="1"><path d="M180.87118,304.60905c-0.99814,4.60644 -5.44823,7.55183 -9.93954,6.57863c-4.4913,-0.9732 -7.32307,-5.49643 -6.32492,-10.10289c0.99814,-4.60644 5.44823,-7.55181 9.93955,-6.57861c4.4913,0.9732 7.32306,5.49643 6.32492,10.10287z" data-paper-data="{&quot;origPos&quot;:null}" fill="#ffd4a0" stroke="#e7c091"/><path d="M162.51674,298.79211c0,0 11.60612,-63.47184 16.40512,-85.9432c2.94166,-13.77439 4.26241,-24.72341 15.44281,-34.16438c4.91744,-4.15239 17.7334,4.53282 17.7334,4.53282l-28.99584,119.70682z" data-paper-data="{&quot;origRot&quot;:0,&quot;origPos&quot;:null}" fill="#e80000" stroke="#740000"/></g><path d="M207.76712,200.7336v-19.42735h8.53431v19.42735z" fill="#e80000" stroke="none" stroke-width="0"/><path d="M264.87115,197.89149v-18.97833h8.5343v18.97837z" fill="#e80000" stroke="none" stroke-width="0"/><path d="M276.98113,147.0537c0,5.99607 -5.01267,10.85684 -11.19612,10.85684c-6.18345,0 -11.19612,-4.86077 -11.19612,-10.85684c0,-5.99607 5.01267,-10.85684 11.19612,-10.85684c6.18345,0 11.19612,4.86077 11.19612,10.85684z" fill="none" stroke="#000000" stroke-width="1"/></g></g></svg>