<svg version="1.1" xmlns="http://www.w3.org/2000/svg" xmlns:xlink="http://www.w3.org/1999/xlink" width="433.37556" height="391.94036" viewBox="0,0,433.37556,391.94036"><g transform="translate(-10.24068,-20.16113)"><g data-paper-data="{&quot;isPaintingLayer&quot;:true}" fill-rule="nonzero" stroke-linejoin="miter" stroke-miterlimit="10" stroke-dasharray="" stroke-dashoffset="0" style="mix-blend-mode: normal"><g data-paper-data="{&quot;index&quot;:null}" stroke="none" stroke-width="0" stroke-linecap="butt"><path d="M34.24022,109.88693c-11.62405,-3.98399 -21.88892,-7.34094 -19.1377,-12.78495c2.65655,-5.25667 11.33263,-2.34166 22.95668,1.64232c11.62405,3.98399 20.19228,9.70799 19.1377,12.78493c-1.05458,3.07694 -11.33264,2.34167 -22.95667,-1.6423z" fill="#a6a6a6"/><path d="M58.77729,103.27468c-1.79846,2.71023 -11.55643,-0.60046 -21.79506,-7.39464c-10.23862,-6.79417 -19.32087,-12.63797 -15.28228,-17.20923c3.8996,-4.41396 11.55644,0.60046 21.79507,7.39464c10.23862,6.79417 17.08073,14.49901 15.28227,17.20924z" fill="#a6a6a6"/><g data-paper-data="{&quot;origRot&quot;:0,&quot;index&quot;:null}" fill="#e5e5e5"><path d="M90.87325,107.81629c-6.22588,10.09992 -40.09061,48.01485 -53.97075,29.8574c-4.20154,-5.49629 3.90622,-6.47889 8.61867,-15.48858c2.02224,-3.86631 1.01562,-13.75852 -0.54583,-16.08797c-1.38052,-2.05953 -36.68522,-11.52506 -34.64997,-18.7408c3.70857,-13.14827 31.17836,2.15797 31.17836,2.15797c0,0 55.04177,9.10022 49.36952,18.30198z" data-paper-data="{&quot;origPos&quot;:null}"/></g></g><g><g><g data-paper-data="{&quot;origPos&quot;:null,&quot;origRot&quot;:0}"><path d="M367.59327,75.95935c9.26111,-0.07217 15.83998,4.09755 20.91891,11.84205c4.8066,7.32924 4.4495,12.46433 4.65709,20.92624c0.20759,8.4619 -0.39678,12.73335 -4.87226,17.73356c-6.23113,6.96173 -6.97944,6.33309 -18.48752,7.56733c-14.59749,1.56561 -23.02012,-3.26157 -27.78238,-14.13367c-4.33878,-9.90528 -8.73837,-26.39861 -1.89289,-34.39362c6.54147,-7.64001 12.77589,-9.42754 27.45903,-9.54194z" data-paper-data="{&quot;origPos&quot;:null}" fill="#a6a6a6" stroke="none" stroke-width="0" stroke-linecap="butt"/><path d="M390.6688,102.09678c1.05041,8.89707 -11.46017,11.63505 -16.88406,9.34589c-3.2787,-0.55714 -6.19455,-11.63235 -1.18793,-15.01163c5.00376,-3.37742 7.42851,1.87094 7.93657,5.85623" data-paper-data="{&quot;origPos&quot;:null}" fill="none" stroke="#5b5b5b" stroke-width="2" stroke-linecap="round"/><path d="M391.55452,111.03759c-2.5034,6.77567 -6.33037,8.93662 -16.93191,7.94577c-3.27869,-0.55714 -6.03645,-7.04886 -3.10155,-11.58202" data-paper-data="{&quot;origPos&quot;:null}" fill="none" stroke="#5b5b5b" stroke-width="2" stroke-linecap="round"/><path d="M391.51351,118.32824c-4.83114,6.57486 -6.03102,9.20675 -16.63256,8.2159c-3.27869,-0.55714 -6.03645,-7.04884 -3.10156,-11.582" data-paper-data="{&quot;origPos&quot;:null}" fill="none" stroke="#5b5b5b" stroke-width="2" stroke-linecap="round"/><path d="M389.84076,123.71205c-4.83114,6.57486 -8.33962,9.56596 -16.34276,8.20599c-3.27868,-0.55716 -4.8295,-5.68834 -1.89461,-10.22151" data-paper-data="{&quot;origPos&quot;:null}" fill="none" stroke="#5b5b5b" stroke-width="2" stroke-linecap="round"/><path d="M360.12539,84.61835c6.35456,2.29611 10.03609,6.29383 10.30153,13.31619c0.21394,5.6594 0.17148,6.35171 -0.11087,12.23185c-0.20729,4.31693 -1.42176,6.31971 -5.52121,5.91037c-4.67864,-0.46719 -4.22189,-8.74935 -6.45755,-12.74491c-2.5365,-4.53321 -6.48528,-4.61186 -7.32719,-10.36849" data-paper-data="{&quot;origPos&quot;:null}" fill="none" stroke="#5b5b5b" stroke-width="2" stroke-linecap="round"/></g><path d="M325.27677,71.06937c20.24131,-1.52016 28.48655,3.11699 32.84444,29.92745c2.5719,26.36358 -4.7711,32.76485 -23.15435,35.96656c-17.99034,3.13328 -10.75447,-4.10772 -41.02735,-0.64942c-20.39107,2.32942 -32.48668,-0.5563 -35.68441,-22.83268c-2.11714,-22.42406 9.22375,-28.08493 29.10852,-31.3383c27.11489,-4.43628 25.88996,-10.17068 37.91316,-11.07366z" data-paper-data="{&quot;index&quot;:null,&quot;origPos&quot;:null,&quot;origRot&quot;:0}" fill="#8d0000" stroke="none" stroke-width="0" stroke-linecap="butt"/></g><path d="M262.0698,144.99134c-41.07066,16.30526 -55.06558,14.40744 -62.3421,-2.07928c-6.90081,-15.6355 1.31412,-28.69721 41.74471,-45.76585c37.49311,-15.8285 40.15027,-14.9702 49.622,7.86003c9.06951,21.86077 9.078,24.85813 -29.02459,39.98508z" data-paper-data="{&quot;index&quot;:null,&quot;origRot&quot;:0}" fill="#8d0000" stroke="none" stroke-width="0" stroke-linecap="butt"/></g><g data-paper-data="{&quot;index&quot;:null}" stroke="none" stroke-width="0" stroke-linecap="butt"><path d="M138.54942,412.1015v-7.61097h82.06965v7.61097z" data-paper-data="{&quot;origPos&quot;:null}" fill="#585858"/><path d="M139.18404,394.47104c0,0 23.97789,-26.91532 32.9945,-30.15985c10.58644,-3.80942 12.79226,-4.07973 22.24355,-4.21912c8.59183,-0.12673 17.77664,1.83991 21.09938,8.51816c7.08661,17.91842 5.48581,37.88349 5.48581,37.88349l-82.42053,0.10688z" data-paper-data="{&quot;origPos&quot;:null}" fill="#bebebe"/><path d="M138.8125,395.23195c0,0 24.28432,-29.24907 30.44324,-32.42691c4.94833,-2.55319 29.57184,-2.40519 29.57184,-2.40519l-7.56667,34.47231l-52.44843,0.35977z" data-paper-data="{&quot;origPos&quot;:null}" fill="#7f7f7f"/></g><path d="M233.10255,327.98124c-1.54324,22.66385 1.35814,23.03018 1.22348,34.2386c-0.19726,16.41884 2.36791,29.64064 -24.65984,28.35386c-13.20555,-0.62873 -16.08739,-20.36721 -40.95248,-21.69617c-8.49789,-0.45418 -15.62034,12.09493 -14.9854,0.75067c0.35869,-6.40876 2.60316,-13.90896 10.97695,-19.21996c6.57943,-10.01596 8.92518,-20.17243 14.64889,-33.4494c5.43557,-12.60856 7.80452,-15.8632 31.87953,-13.23124c24.83933,2.71551 21.36146,13.21038 21.86886,24.25363z" data-paper-data="{&quot;index&quot;:null}" fill="#101099" stroke="none" stroke-width="0" stroke-linecap="butt"/><path d="M202.032,335.24592c-24.21264,-6.88002 -28.11171,-5.89516 -16.0955,-48.18337c14.00064,-49.27202 17.18913,-49.81023 41.94182,-42.77673c24.86339,7.06493 26.31653,10.36129 12.53541,58.97962c-11.82408,41.71422 -15.19723,38.56837 -38.38173,31.9805z" data-paper-data="{&quot;index&quot;:null,&quot;origRot&quot;:0}" fill="#101099" stroke="none" stroke-width="0" stroke-linecap="butt"/><path d="M164.60771,150.67559c9.80969,-22.07093 43.32302,-38.59803 60.83382,-29.21865c17.51078,9.37938 17.86797,30.92616 8.05828,52.99709c-9.80969,22.07093 -23.97968,50.89344 -53.76408,40.94746c-29.7844,-9.94596 -24.93773,-42.65498 -15.12804,-64.72589z" data-paper-data="{&quot;origRot&quot;:0}" fill="#8d0000" stroke="none" stroke-width="0" stroke-linecap="butt"/><g><path d="M257.151,270.60677c-40.45753,5.64596 -51.82435,-12.66274 -54.3847,-30.9236c-2.56035,-18.26086 0.73021,-15.72586 47.82844,-23.97596c41.69751,-7.36164 45.46179,-4.622 47.83591,12.12179c2.07431,14.60708 -12.03958,38.32566 -41.27963,42.77777z" data-paper-data="{&quot;origPos&quot;:null}" fill="#101099" stroke="none" stroke-width="0" stroke-linecap="butt"/><g data-paper-data="{&quot;origPos&quot;:null}"><g data-paper-data="{&quot;origPos&quot;:null}"><g data-paper-data="{&quot;origPos&quot;:null}" fill="#e50000" stroke="none" stroke-width="0" stroke-linecap="butt"><path d="M300.35633,219.70411c-2.15768,5.02248 -5.16681,3.88058 -15.01212,3.51281c-13.21612,-0.13598 -9.54453,-0.37717 -22.50667,1.44025c-14.19402,1.99014 -30.64522,6.05227 -43.57591,12.37691c-8.40992,4.11347 -15.32254,2.84689 -19.42316,-0.09393c-5.12985,-4.34788 -6.05414,-8.60014 -0.75951,-14.53436c3.2303,-7.6346 2.60379,-14.8331 2.50644,-23.32801c-0.08078,-7.04978 30.66639,-17.02495 45.68352,-19.64826c15.01713,-2.6233 35.67437,-3.42606 39.75191,11.9395c2.11401,9.81992 2.58514,10.94756 7.73889,16.36129c5.57635,3.19214 7.42381,5.71046 5.59662,11.97376z" data-paper-data="{&quot;origPos&quot;:null}"/><path d="M276.92865,121.7436c3.72577,26.5728 12.43228,69.74856 8.55483,81.75443c-3.24953,10.06152 -22.79535,12.53827 -38.71606,14.77051c-21.18814,2.97079 -35.0118,3.54196 -40.48766,-2.00451c-5.84255,-5.91792 -11.65942,-62.53532 -14.67704,-84.0575c-2.61514,-18.65163 16.00283,-30.04751 39.32869,-33.31803c23.32585,-3.27052 43.38214,4.2035 45.99728,22.85512z" data-paper-data="{&quot;origPos&quot;:null}"/></g><path d="M250.60615,123.14155l11.69521,83.4122" data-paper-data="{&quot;origPos&quot;:null}" fill="none" stroke="#000000" stroke-width="2" stroke-linecap="round"/><path d="M212.72038,221.67599c0,0 27.07559,-10.97092 51.11353,-14.17987c20.03934,-2.67515 27.38542,1.13961 27.38542,1.13961" data-paper-data="{&quot;origPos&quot;:null}" fill="none" stroke="#8d0000" stroke-width="2" stroke-linecap="round"/></g><path d="M270.47164,106.32437c0.25963,6.25624 -9.07821,16.98528 -24.79143,19.53001c-20.45941,3.31336 -53.59271,2.55465 -54.98021,-12.92231c-0.49772,-5.55174 3.54693,-10.60792 41.90619,-15.64469c30.08958,-3.95093 36.38689,-1.5085 37.86547,9.03701z" data-paper-data="{&quot;origPos&quot;:null}" fill="#8d0000" stroke="none" stroke-width="0" stroke-linecap="butt"/></g></g><g><g><g data-paper-data="{&quot;origPos&quot;:null}" fill="none" stroke="none" stroke-width="1" stroke-linecap="butt" font-family="sans-serif" font-weight="normal" font-size="12" text-anchor="start"/><g data-paper-data="{&quot;origPos&quot;:null,&quot;origRot&quot;:0}"><path d="M96.1868,151.07732c-20.29707,-0.22356 -28.1137,-5.55156 -30.1533,-32.63723c-0.29858,-26.48705 7.56698,-32.23415 26.15723,-33.84548c18.19293,-1.57689 10.362,5.01602 40.82004,4.16998c20.51578,-0.56988 32.31893,3.34382 33.59202,25.81253c0.1838,22.52301 -11.60131,27.18917 -31.69197,28.72302c-27.39569,2.09155 -26.66767,7.90997 -38.72402,7.7772z" data-paper-data="{&quot;index&quot;:null,&quot;origPos&quot;:null}" fill="#e50000" stroke="none" stroke-width="0" stroke-linecap="butt"/><path d="M156.12646,140.86093c-5.16045,0.16096 -16.54401,1.38291 -30.6725,3.50218c-12.98024,1.94701 -19.52051,6.74276 -27.79772,6.73053c-20.00005,-0.02953 -24.82123,-6.24819 -28.04967,-16.88438" data-paper-data="{&quot;origPos&quot;:null}" fill="none" stroke="#8d0000" stroke-width="2" stroke-linecap="round"/></g></g><g data-paper-data="{&quot;origRot&quot;:0}"><path d="M181.99539,95.52371c42.65219,11.55211 52.72015,21.45647 48.6683,39.01614c-3.84268,16.65305 -18.24566,22.18902 -60.84278,11.63157c-39.50218,-9.79041 -41.1154,-12.06961 -35.0205,-36.02341c5.83609,-22.93661 7.62511,-25.34155 47.19493,-14.6243z" data-paper-data="{&quot;origPos&quot;:null,&quot;index&quot;:null}" fill="#e50000" stroke="none" stroke-width="0" stroke-linecap="butt"/><path d="M199.28698,151.72009c-29.31945,-3.80759 -54.5883,-11.31944 -54.5883,-11.31944" data-paper-data="{&quot;origPos&quot;:null}" fill="none" stroke="#8d0000" stroke-width="2" stroke-linecap="round"/></g></g><g stroke="none" stroke-width="0" stroke-linecap="butt"><g><path d="M443.61624,210.82384l-7.5385,1.04783l-13.36222,-96.13383l7.53849,-1.04782z" data-paper-data="{&quot;origPos&quot;:null}" fill="#585858"/><path d="M424.81588,115.52198l13.30485,96.49747c0,0 -35.58769,4.82855 -40.06854,1.8526c-4.73546,-3.14504 -7.14998,-14.29718 -8.82979,-23.85276c-1.70893,-9.72108 -1.70379,-13.31793 -1.94224,-23.1852c-0.18406,-4.27489 25.80172,-49.77179 25.80172,-49.77179z" data-paper-data="{&quot;origPos&quot;:null}" fill="#bebebe"/><path d="M412.98648,116.79092l5.0174,35.36011l-28.89539,37.93943c0,0 -3.68327,-22.67998 -2.23519,-26.76897c1.377,-3.88822 26.11318,-46.53055 26.11318,-46.53055z" data-paper-data="{&quot;origPos&quot;:null}" fill="#7f7f7f"/></g><path d="M334.03486,209.63233c-5.92137,-23.48342 -3.02385,-26.27787 8.71631,-33.39755c12.36255,-7.49709 22.09936,-11.21876 31.11413,-19.11446c4.10759,-9.02525 11.22737,-12.2809 17.52571,-13.51849c11.14884,-2.19069 -0.30023,6.59161 1.31955,14.94606c4.73954,24.44537 24.68682,24.58231 27.12761,37.57556c4.9955,26.59322 -8.45354,25.87276 -24.68888,28.32856c-11.08317,1.67647 -11.84544,-1.14685 -34.08101,3.50189c-11.00796,1.01779 -20.92409,5.90739 -27.03343,-18.32156z" data-paper-data="{&quot;index&quot;:null}" fill="#101099"/><path d="M361.65916,197.5884c10.11877,23.04769 13.36158,25.42613 -26.89206,43.09898c-46.90141,20.59146 -49.34724,18.47626 -59.69171,-5.08552c-10.39072,-23.66715 -8.7752,-26.88701 37.48248,-47.23132c39.68874,-17.45529 39.41219,-12.85117 49.10132,9.21786z" data-paper-data="{&quot;index&quot;:null,&quot;origRot&quot;:0}" fill="#101099"/></g><g><path d="M267.80172,29.46884c29.94849,6.81018 47.44848,36.64613 40.66315,66.48531c-6.78532,29.83918 -35.73652,50.36115 -65.68501,43.55097c-29.94849,-6.81018 -49.82336,-37.18617 -43.03804,-67.02535c6.78532,-29.83918 38.1114,-49.82111 68.05989,-43.01093z" data-paper-data="{&quot;origPos&quot;:null}" fill="#661800" stroke="none" stroke-width="0" stroke-linecap="butt"/><g><path d="M218.14002,70.50923c14.20157,-24.37103 43.88564,-33.53873 68.43784,-19.2316c24.55219,14.30713 30.59544,43.71821 16.39386,68.08926c-14.20157,24.37105 -40.47097,35.1647 -65.40679,20.99788c-24.32625,-14.68789 -33.62648,-45.48449 -19.4249,-69.85553z" data-paper-data="{&quot;origPos&quot;:null}" fill="#ffceb3" stroke="none" stroke-width="0" stroke-linecap="butt"/><g data-paper-data="{&quot;origPos&quot;:null}"><path d="M277.96713,147.22135c-1.04718,2.30427 -17.1989,-8.03291 -17.1989,-8.03291l16.27952,-17.44699c0,0 1.56466,23.16698 0.91937,25.4799z" data-paper-data="{&quot;origPos&quot;:null}" fill="#ffceb3" stroke="none" stroke-width="0" stroke-linecap="butt"/><path d="M277.43715,123.16939c0,0 1.80427,20.84117 -0.12101,24.19035c-1.0474,1.82202 -15.99319,-7.26644 -15.99319,-7.26644" data-paper-data="{&quot;origPos&quot;:null}" fill="none" stroke="#b37959" stroke-width="2" stroke-linecap="round"/></g></g><path d="M243.47273,36.07803c13.33473,3.03227 8.20292,14.87963 5.04638,28.76085c-3.15654,13.88121 -18.39814,36.40374 -40.94394,26.28153c-8.26099,-3.70568 -5.1241,-20.07265 1.21832,-32.81731c6.89888,-13.8628 21.3445,-25.25735 34.67923,-22.22508z" data-paper-data="{&quot;origPos&quot;:null}" fill="#661800" stroke="none" stroke-width="0" stroke-linecap="butt"/><path d="M269.08252,23.30406c12.98804,-3.99667 31.14179,-3.04353 31.14179,-3.04353c0,0 -3.96872,6.18509 -6.16429,12.58666c-2.48021,7.23143 -0.59709,6.4494 -2.1514,13.28467c-2.63264,11.5773 -41.3787,2.18548 -39.32003,-7.47147c1.95285,-9.16058 4.91573,-11.79351 16.4939,-15.35634z" data-paper-data="{&quot;origPos&quot;:null}" fill="#661800" stroke="none" stroke-width="0" stroke-linecap="butt"/><path d="M312.49526,83.98701c-7.05427,10.23417 -1.74093,19.27031 1.73071,31.20549c1.8203,6.25797 10.30258,12.47745 13.06128,15.96294c-11.37009,8.78531 -34.84797,0.08378 -47.06186,-6.73234c-14.44969,-8.9574 -25.303,-24.43516 -33.21898,-39.48061c-6.95596,-20.16934 -0.69292,-33.68392 8.78569,-47.43526c9.47861,-13.75134 23.87269,-13.37172 39.83902,-2.36635c15.96633,11.00536 26.34274,35.09477 16.86412,48.84612z" fill="#661800" stroke="none" stroke-width="0" stroke-linecap="butt"/><path d="M230.4684,93.65099c-0.13764,9.75097 -5.42818,17.58257 -11.81674,17.49242c-6.38858,-0.09017 -11.45593,-8.068 -11.31829,-17.81897c0.13764,-9.75097 5.42818,-17.58257 11.81674,-17.49242c6.38857,0.09019 11.45593,8.068 11.31829,17.81897z" data-paper-data="{&quot;origPos&quot;:null,&quot;origRot&quot;:0}" fill="#ffceb3" stroke="none" stroke-width="0" stroke-linecap="butt"/><path d="M226.99839,61.0726c1.51613,-6.66735 6.28362,-11.78805 12.95096,-10.27192c6.66735,1.51613 8.7293,7.14912 7.21317,13.81647c-2.0706,9.10566 -4.71184,16.87521 -10.87731,23.88859c-6.24152,7.09989 -18.73831,16.20536 -20.476,13.99219c-1.09741,-1.39767 4.22602,-5.51993 8.57013,-21.26225c2.01839,-7.10136 1.10291,-13.49572 2.61904,-20.16307z" data-paper-data="{&quot;origPos&quot;:null}" fill="#661800" stroke="none" stroke-width="0" stroke-linecap="butt"/><path d="M268.92926,120.98964c0,0 -3.19639,14.30096 -3.86528,14.20283c-2.17112,-0.31853 -13.01126,-12.99756 -18.11216,-29.53028c-3.86899,-12.53993 2.43172,-41.75781 2.43172,-41.75781" fill="none" stroke="#000000" stroke-width="2.5" stroke-linecap="round"/><path d="M318.4346,79.19813c0,0 -6.86589,29.08935 -14.05974,39.11364c-9.48441,13.21607 -21.2346,20.75814 -22.75664,20.23686c-0.46893,-0.16061 2.819,-14.44075 2.819,-14.44075" data-paper-data="{&quot;index&quot;:null}" fill="none" stroke="#000000" stroke-width="2.5" stroke-linecap="round"/></g></g></g></svg>