<svg xmlns="http://www.w3.org/2000/svg" xmlns:xlink="http://www.w3.org/1999/xlink" version="1.1" width="256.38537" height="394.79576" viewBox="0,0,256.38537,394.79576"><defs><linearGradient x1="124.70404" y1="198.87138" x2="147.83043" y2="233.11922" gradientUnits="userSpaceOnUse" id="color-1"><stop offset="0" stop-color="#000000"/><stop offset="1" stop-color="#252525"/></linearGradient><linearGradient x1="47.91514" y1="163.28049" x2="60.98666" y2="182.63768" gradientUnits="userSpaceOnUse" id="color-2"><stop offset="0" stop-color="#252525"/><stop offset="1" stop-color="#000000"/></linearGradient><linearGradient x1="122.04768" y1="185.57891" x2="114.31131" y2="149.96503" gradientUnits="userSpaceOnUse" id="color-3"><stop offset="0" stop-color="#161616"/><stop offset="1" stop-color="#161616"/></linearGradient><linearGradient x1="162.09864" y1="146.15797" x2="158.56159" y2="129.87548" gradientUnits="userSpaceOnUse" id="color-4"><stop offset="0" stop-color="#161616"/><stop offset="1" stop-color="#000000"/></linearGradient><linearGradient x1="126.50775" y1="429.59697" x2="196.34172" y2="429.59697" gradientUnits="userSpaceOnUse" id="color-5"><stop offset="0" stop-color="#000000"/><stop offset="1" stop-color="#0e0e0e"/></linearGradient><linearGradient x1="161.25552" y1="450.06981" x2="161.25552" y2="460.26263" gradientUnits="userSpaceOnUse" id="color-6"><stop offset="0" stop-color="#000000"/><stop offset="1" stop-color="#666666"/></linearGradient><linearGradient x1="143.04831" y1="417.38651" x2="143.04831" y2="453.31921" gradientUnits="userSpaceOnUse" id="color-7"><stop offset="0" stop-color="#151515"/><stop offset="1" stop-color="#212121"/></linearGradient><linearGradient x1="171.67825" y1="420.36615" x2="171.67825" y2="435.68833" gradientUnits="userSpaceOnUse" id="color-8"><stop offset="0" stop-color="#292929"/><stop offset="1" stop-color="#292929"/></linearGradient><linearGradient x1="47.73261" y1="428.60329" x2="114.96292" y2="428.60329" gradientUnits="userSpaceOnUse" id="color-9"><stop offset="0" stop-color="#000000"/><stop offset="1" stop-color="#0e0e0e"/></linearGradient><linearGradient x1="81.27136" y1="449.25165" x2="81.27136" y2="458.76986" gradientUnits="userSpaceOnUse" id="color-10"><stop offset="0" stop-color="#000000"/><stop offset="1" stop-color="#666666"/></linearGradient><linearGradient x1="61.87551" y1="432.98138" x2="75.89473" y2="432.98138" gradientUnits="userSpaceOnUse" id="color-11"><stop offset="0" stop-color="#151515"/><stop offset="1" stop-color="#212121"/></linearGradient><linearGradient x1="161.6332" y1="236.33523" x2="161.6332" y2="281.75752" gradientUnits="userSpaceOnUse" id="color-12"><stop offset="0" stop-color="#ffffff"/><stop offset="1" stop-color="#cccccc"/></linearGradient><radialGradient cx="88.63201" cy="273.63422" r="3.07274" gradientUnits="userSpaceOnUse" id="color-13"><stop offset="0" stop-color="#cccccc"/><stop offset="1" stop-color="#7f7f7f"/></radialGradient><radialGradient cx="86.4523" cy="276.02842" r="2.65524" gradientUnits="userSpaceOnUse" id="color-14"><stop offset="0" stop-color="#cccccc"/><stop offset="1" stop-color="#7f7f7f"/></radialGradient><radialGradient cx="84.95701" cy="279.49201" r="3.29424" gradientUnits="userSpaceOnUse" id="color-15"><stop offset="0" stop-color="#cccccc"/><stop offset="1" stop-color="#7f7f7f"/></radialGradient><radialGradient cx="86.21846" cy="283.00803" r="3.29424" gradientUnits="userSpaceOnUse" id="color-16"><stop offset="0" stop-color="#cccccc"/><stop offset="1" stop-color="#7f7f7f"/></radialGradient><radialGradient cx="88.61323" cy="286.41358" r="3.0974" gradientUnits="userSpaceOnUse" id="color-17"><stop offset="0" stop-color="#cccccc"/><stop offset="1" stop-color="#7f7f7f"/></radialGradient><radialGradient cx="89.63551" cy="290.17662" r="2.85207" gradientUnits="userSpaceOnUse" id="color-18"><stop offset="0" stop-color="#cccccc"/><stop offset="1" stop-color="#7f7f7f"/></radialGradient><radialGradient cx="90.65807" cy="293.35983" r="3.26984" gradientUnits="userSpaceOnUse" id="color-19"><stop offset="0" stop-color="#cccccc"/><stop offset="1" stop-color="#7f7f7f"/></radialGradient><radialGradient cx="91.03743" cy="297.43662" r="3.07301" gradientUnits="userSpaceOnUse" id="color-20"><stop offset="0" stop-color="#cccccc"/><stop offset="1" stop-color="#7f7f7f"/></radialGradient><radialGradient cx="91.58698" cy="301.11161" r="2.87619" gradientUnits="userSpaceOnUse" id="color-21"><stop offset="0" stop-color="#cccccc"/><stop offset="1" stop-color="#7f7f7f"/></radialGradient><radialGradient cx="93.07695" cy="304.62764" r="3.4905" gradientUnits="userSpaceOnUse" id="color-22"><stop offset="0" stop-color="#cccccc"/><stop offset="1" stop-color="#7f7f7f"/></radialGradient><radialGradient cx="95.78883" cy="307.65972" r="3.14704" gradientUnits="userSpaceOnUse" id="color-23"><stop offset="0" stop-color="#cccccc"/><stop offset="1" stop-color="#7f7f7f"/></radialGradient><radialGradient cx="97.20645" cy="310.55749" r="3.46667" gradientUnits="userSpaceOnUse" id="color-24"><stop offset="0" stop-color="#cccccc"/><stop offset="1" stop-color="#7f7f7f"/></radialGradient><radialGradient cx="92.20944" cy="267.92026" r="5.19637" gradientUnits="userSpaceOnUse" id="color-25"><stop offset="0" stop-color="#cccccc"/><stop offset="1" stop-color="#7f7f7f"/></radialGradient><radialGradient cx="100.96893" cy="270.12941" r="3.07273" gradientUnits="userSpaceOnUse" id="color-26"><stop offset="0" stop-color="#cccccc"/><stop offset="1" stop-color="#7f7f7f"/></radialGradient><radialGradient cx="102.65124" cy="273.9146" r="3.07273" gradientUnits="userSpaceOnUse" id="color-27"><stop offset="0" stop-color="#cccccc"/><stop offset="1" stop-color="#7f7f7f"/></radialGradient><radialGradient cx="103.3522" cy="278.12037" r="3.07274" gradientUnits="userSpaceOnUse" id="color-28"><stop offset="0" stop-color="#cccccc"/><stop offset="1" stop-color="#7f7f7f"/></radialGradient><radialGradient cx="103.3522" cy="282.74672" r="3.07274" gradientUnits="userSpaceOnUse" id="color-29"><stop offset="0" stop-color="#cccccc"/><stop offset="1" stop-color="#7f7f7f"/></radialGradient><radialGradient cx="103.49239" cy="287.0924" r="3.07273" gradientUnits="userSpaceOnUse" id="color-30"><stop offset="0" stop-color="#cccccc"/><stop offset="1" stop-color="#7f7f7f"/></radialGradient><radialGradient cx="103.21173" cy="291.57855" r="3.07273" gradientUnits="userSpaceOnUse" id="color-31"><stop offset="0" stop-color="#cccccc"/><stop offset="1" stop-color="#7f7f7f"/></radialGradient><radialGradient cx="102.65124" cy="295.92451" r="3.07273" gradientUnits="userSpaceOnUse" id="color-32"><stop offset="0" stop-color="#cccccc"/><stop offset="1" stop-color="#7f7f7f"/></radialGradient><radialGradient cx="102.37085" cy="299.99008" r="3.07273" gradientUnits="userSpaceOnUse" id="color-33"><stop offset="0" stop-color="#cccccc"/><stop offset="1" stop-color="#7f7f7f"/></radialGradient><radialGradient cx="101.95028" cy="304.47651" r="3.07273" gradientUnits="userSpaceOnUse" id="color-34"><stop offset="0" stop-color="#cccccc"/><stop offset="1" stop-color="#7f7f7f"/></radialGradient><radialGradient cx="100.68855" cy="308.96267" r="3.07273" gradientUnits="userSpaceOnUse" id="color-35"><stop offset="0" stop-color="#cccccc"/><stop offset="1" stop-color="#7f7f7f"/></radialGradient><radialGradient cx="99.15372" cy="323.08087" r="3.14703" gradientUnits="userSpaceOnUse" id="color-36"><stop offset="0" stop-color="#cccccc"/><stop offset="1" stop-color="#7f7f7f"/></radialGradient><radialGradient cx="98.74857" cy="326.6796" r="3.46667" gradientUnits="userSpaceOnUse" id="color-37"><stop offset="0" stop-color="#cccccc"/><stop offset="1" stop-color="#7f7f7f"/></radialGradient><radialGradient cx="99.84739" cy="330.55199" r="3.07273" gradientUnits="userSpaceOnUse" id="color-38"><stop offset="0" stop-color="#cccccc"/><stop offset="1" stop-color="#7f7f7f"/></radialGradient><linearGradient x1="176.84069" y1="287.94448" x2="175.82851" y2="317.68038" gradientUnits="userSpaceOnUse" id="color-39"><stop offset="0" stop-color="#ff0000"/><stop offset="1" stop-color="#ff0000" stop-opacity="0"/></linearGradient><linearGradient x1="171.60984" y1="287.80093" x2="176.84069" y2="287.80093" gradientUnits="userSpaceOnUse" id="color-40"><stop offset="0" stop-color="#ff0000"/><stop offset="1" stop-color="#ff0000" stop-opacity="0"/></linearGradient><linearGradient x1="138.65793" y1="262.72278" x2="123.49334" y2="262.35015" gradientUnits="userSpaceOnUse" id="color-41"><stop offset="0" stop-color="#7f7f7f"/><stop offset="1" stop-color="#b2b2b2"/></linearGradient><linearGradient x1="140.36379" y1="272.92512" x2="129.42852" y2="272.92512" gradientUnits="userSpaceOnUse" id="color-42"><stop offset="0" stop-color="#000000"/><stop offset="1" stop-color="#353935"/></linearGradient><linearGradient x1="120.0104" y1="272.92512" x2="129.82386" y2="272.92512" gradientUnits="userSpaceOnUse" id="color-43"><stop offset="0" stop-color="#000000"/><stop offset="1" stop-color="#353935"/></linearGradient><radialGradient cx="108.30575" cy="266.88985" r="24.6099" gradientUnits="userSpaceOnUse" id="color-44"><stop offset="0" stop-color="#666666"/><stop offset="1" stop-color="#000000"/></radialGradient><radialGradient cx="106.85252" cy="275.05633" r="10.57583" gradientUnits="userSpaceOnUse" id="color-45"><stop offset="0" stop-color="#370000"/><stop offset="1" stop-color="#000000"/></radialGradient><radialGradient cx="111.6199" cy="278.49861" r="9.02053" gradientUnits="userSpaceOnUse" id="color-46"><stop offset="0" stop-color="#370000"/><stop offset="1" stop-color="#000000"/></radialGradient><radialGradient cx="105.82463" cy="268.95207" r="8.34649" gradientUnits="userSpaceOnUse" id="color-47"><stop offset="0" stop-color="#370000"/><stop offset="1" stop-color="#000000"/></radialGradient><radialGradient cx="115.3535" cy="273.00279" r="7.34019" gradientUnits="userSpaceOnUse" id="color-48"><stop offset="0" stop-color="#370000"/><stop offset="1" stop-color="#000000"/></radialGradient><radialGradient cx="111.72812" cy="267.71783" r="5.52414" gradientUnits="userSpaceOnUse" id="color-49"><stop offset="0" stop-color="#370000"/><stop offset="1" stop-color="#000000"/></radialGradient><radialGradient cx="110.88024" cy="271.63171" r="2.6945" gradientUnits="userSpaceOnUse" id="color-50"><stop offset="0" stop-color="#ff0000"/><stop offset="1" stop-color="#000000"/></radialGradient><linearGradient x1="125.01807" y1="59.9375" x2="123.59091" y2="72.83154" gradientUnits="userSpaceOnUse" id="color-51"><stop offset="0" stop-color="#000000"/><stop offset="1" stop-color="#ffffff"/></linearGradient><linearGradient x1="117.5483" y1="191.2993" x2="140.6746" y2="225.5471" gradientUnits="userSpaceOnUse" id="color-1-,0,0,1,-7.15579,-7.57212"><stop offset="0" stop-color="#000000"/><stop offset="1" stop-color="#252525"/></linearGradient><linearGradient x1="40.7593" y1="155.7084" x2="53.8309" y2="175.0656" gradientUnits="userSpaceOnUse" id="color-2-,0,0,1,-7.15579,-7.57212"><stop offset="0" stop-color="#252525"/><stop offset="1" stop-color="#000000"/></linearGradient><linearGradient x1="114.8919" y1="178.0068" x2="107.1555" y2="142.3929" gradientUnits="userSpaceOnUse" id="color-3-,0,0,1,-7.15579,-7.57212"><stop offset="0" stop-color="#161616"/><stop offset="1" stop-color="#161616"/></linearGradient><linearGradient x1="154.9428" y1="138.5858" x2="151.4058" y2="122.3034" gradientUnits="userSpaceOnUse" id="color-4-,0,0,1,-7.15579,-7.57212"><stop offset="0" stop-color="#161616"/><stop offset="1" stop-color="#000000"/></linearGradient><linearGradient x1="119.352" y1="422.0249" x2="189.1859" y2="422.0249" gradientUnits="userSpaceOnUse" id="color-5-,0,0,1,-7.15579,-7.57212"><stop offset="0" stop-color="#000000"/><stop offset="1" stop-color="#0e0e0e"/></linearGradient><linearGradient x1="40.5768" y1="421.0312" x2="107.8071" y2="421.0312" gradientUnits="userSpaceOnUse" id="color-9-,0,0,1,-7.15579,-7.57212"><stop offset="0" stop-color="#000000"/><stop offset="1" stop-color="#0e0e0e"/></linearGradient><linearGradient x1="154.4774" y1="228.7631" x2="154.4774" y2="274.1854" gradientUnits="userSpaceOnUse" id="color-12-,0,0,1,-7.15579,-7.57212"><stop offset="0" stop-color="#ffffff"/><stop offset="1" stop-color="#cccccc"/></linearGradient><radialGradient cx="81.4762" cy="266.0621" r="3.0727" gradientUnits="userSpaceOnUse" id="color-13-,0,0,1,-7.15579,-7.57212"><stop offset="0" stop-color="#cccccc"/><stop offset="1" stop-color="#7f7f7f"/></radialGradient><radialGradient cx="79.2965" cy="268.4563" r="2.6552" gradientUnits="userSpaceOnUse" id="color-14-,0,0,1,-7.15579,-7.57212"><stop offset="0" stop-color="#cccccc"/><stop offset="1" stop-color="#7f7f7f"/></radialGradient><radialGradient cx="77.8012" cy="271.9199" r="3.2942" gradientUnits="userSpaceOnUse" id="color-15-,0,0,1,-7.15579,-7.57212"><stop offset="0" stop-color="#cccccc"/><stop offset="1" stop-color="#7f7f7f"/></radialGradient><radialGradient cx="79.0627" cy="275.4359" r="3.2942" gradientUnits="userSpaceOnUse" id="color-16-,0,0,1,-7.15579,-7.57212"><stop offset="0" stop-color="#cccccc"/><stop offset="1" stop-color="#7f7f7f"/></radialGradient><radialGradient cx="81.4574" cy="278.8415" r="3.0974" gradientUnits="userSpaceOnUse" id="color-17-,0,0,1,-7.15579,-7.57212"><stop offset="0" stop-color="#cccccc"/><stop offset="1" stop-color="#7f7f7f"/></radialGradient><radialGradient cx="82.4797" cy="282.6045" r="2.8521" gradientUnits="userSpaceOnUse" id="color-18-,0,0,1,-7.15579,-7.57212"><stop offset="0" stop-color="#cccccc"/><stop offset="1" stop-color="#7f7f7f"/></radialGradient><radialGradient cx="83.5023" cy="285.7877" r="3.2698" gradientUnits="userSpaceOnUse" id="color-19-,0,0,1,-7.15579,-7.57212"><stop offset="0" stop-color="#cccccc"/><stop offset="1" stop-color="#7f7f7f"/></radialGradient><radialGradient cx="83.8816" cy="289.8645" r="3.073" gradientUnits="userSpaceOnUse" id="color-20-,0,0,1,-7.15579,-7.57212"><stop offset="0" stop-color="#cccccc"/><stop offset="1" stop-color="#7f7f7f"/></radialGradient><radialGradient cx="84.4312" cy="293.5395" r="2.8762" gradientUnits="userSpaceOnUse" id="color-21-,0,0,1,-7.15579,-7.57212"><stop offset="0" stop-color="#cccccc"/><stop offset="1" stop-color="#7f7f7f"/></radialGradient><radialGradient cx="85.9212" cy="297.0555" r="3.4905" gradientUnits="userSpaceOnUse" id="color-22-,0,0,1,-7.15579,-7.57212"><stop offset="0" stop-color="#cccccc"/><stop offset="1" stop-color="#7f7f7f"/></radialGradient><radialGradient cx="88.633" cy="300.0876" r="3.147" gradientUnits="userSpaceOnUse" id="color-23-,0,0,1,-7.15579,-7.57212"><stop offset="0" stop-color="#cccccc"/><stop offset="1" stop-color="#7f7f7f"/></radialGradient><radialGradient cx="90.0507" cy="302.9854" r="3.4667" gradientUnits="userSpaceOnUse" id="color-24-,0,0,1,-7.15579,-7.57212"><stop offset="0" stop-color="#cccccc"/><stop offset="1" stop-color="#7f7f7f"/></radialGradient><radialGradient cx="85.0537" cy="260.3481" r="5.1964" gradientUnits="userSpaceOnUse" id="color-25-,0,0,1,-7.15579,-7.57212"><stop offset="0" stop-color="#cccccc"/><stop offset="1" stop-color="#7f7f7f"/></radialGradient><radialGradient cx="93.8131" cy="262.5573" r="3.0727" gradientUnits="userSpaceOnUse" id="color-26-,0,0,1,-7.15579,-7.57212"><stop offset="0" stop-color="#cccccc"/><stop offset="1" stop-color="#7f7f7f"/></radialGradient><radialGradient cx="95.4955" cy="266.3425" r="3.0727" gradientUnits="userSpaceOnUse" id="color-27-,0,0,1,-7.15579,-7.57212"><stop offset="0" stop-color="#cccccc"/><stop offset="1" stop-color="#7f7f7f"/></radialGradient><radialGradient cx="96.1964" cy="270.5482" r="3.0727" gradientUnits="userSpaceOnUse" id="color-28-,0,0,1,-7.15579,-7.57212"><stop offset="0" stop-color="#cccccc"/><stop offset="1" stop-color="#7f7f7f"/></radialGradient><radialGradient cx="96.1964" cy="275.1746" r="3.0727" gradientUnits="userSpaceOnUse" id="color-29-,0,0,1,-7.15579,-7.57212"><stop offset="0" stop-color="#cccccc"/><stop offset="1" stop-color="#7f7f7f"/></radialGradient><radialGradient cx="96.3366" cy="279.5203" r="3.0727" gradientUnits="userSpaceOnUse" id="color-30-,0,0,1,-7.15579,-7.57212"><stop offset="0" stop-color="#cccccc"/><stop offset="1" stop-color="#7f7f7f"/></radialGradient><radialGradient cx="96.0559" cy="284.0064" r="3.0727" gradientUnits="userSpaceOnUse" id="color-31-,0,0,1,-7.15579,-7.57212"><stop offset="0" stop-color="#cccccc"/><stop offset="1" stop-color="#7f7f7f"/></radialGradient><radialGradient cx="95.4955" cy="288.3524" r="3.0727" gradientUnits="userSpaceOnUse" id="color-32-,0,0,1,-7.15579,-7.57212"><stop offset="0" stop-color="#cccccc"/><stop offset="1" stop-color="#7f7f7f"/></radialGradient><radialGradient cx="95.2151" cy="292.418" r="3.0727" gradientUnits="userSpaceOnUse" id="color-33-,0,0,1,-7.15579,-7.57212"><stop offset="0" stop-color="#cccccc"/><stop offset="1" stop-color="#7f7f7f"/></radialGradient><radialGradient cx="94.7945" cy="296.9044" r="3.0727" gradientUnits="userSpaceOnUse" id="color-34-,0,0,1,-7.15579,-7.57212"><stop offset="0" stop-color="#cccccc"/><stop offset="1" stop-color="#7f7f7f"/></radialGradient><radialGradient cx="93.5328" cy="301.3906" r="3.0727" gradientUnits="userSpaceOnUse" id="color-35-,0,0,1,-7.15579,-7.57212"><stop offset="0" stop-color="#cccccc"/><stop offset="1" stop-color="#7f7f7f"/></radialGradient><radialGradient cx="91.9979" cy="315.5088" r="3.147" gradientUnits="userSpaceOnUse" id="color-36-,0,0,1,-7.15579,-7.57212"><stop offset="0" stop-color="#cccccc"/><stop offset="1" stop-color="#7f7f7f"/></radialGradient><radialGradient cx="91.5928" cy="319.1075" r="3.4667" gradientUnits="userSpaceOnUse" id="color-37-,0,0,1,-7.15579,-7.57212"><stop offset="0" stop-color="#cccccc"/><stop offset="1" stop-color="#7f7f7f"/></radialGradient><radialGradient cx="92.6916" cy="322.9799" r="3.0727" gradientUnits="userSpaceOnUse" id="color-38-,0,0,1,-7.15579,-7.57212"><stop offset="0" stop-color="#cccccc"/><stop offset="1" stop-color="#7f7f7f"/></radialGradient><linearGradient x1="169.6849" y1="280.3724" x2="168.6727" y2="310.1083" gradientUnits="userSpaceOnUse" id="color-39-,0,0,1,-7.15579,-7.57212"><stop offset="0" stop-color="#ff0000"/><stop offset="1" stop-color="#ff0000" stop-opacity="0"/></linearGradient><linearGradient x1="164.454" y1="280.2288" x2="169.6849" y2="280.2288" gradientUnits="userSpaceOnUse" id="color-40-,0,0,1,-7.15579,-7.57212"><stop offset="0" stop-color="#ff0000"/><stop offset="1" stop-color="#ff0000" stop-opacity="0"/></linearGradient><linearGradient x1="131.5021" y1="255.1507" x2="116.3376" y2="254.778" gradientUnits="userSpaceOnUse" id="color-41-,0,0,1,-7.15579,-7.57212"><stop offset="0" stop-color="#7f7f7f"/><stop offset="1" stop-color="#b2b2b2"/></linearGradient><linearGradient x1="133.208" y1="265.353" x2="122.2727" y2="265.353" gradientUnits="userSpaceOnUse" id="color-42-,0,0,1,-7.15579,-7.57212"><stop offset="0" stop-color="#000000"/><stop offset="1" stop-color="#353935"/></linearGradient><linearGradient x1="112.8546" y1="265.353" x2="122.6681" y2="265.353" gradientUnits="userSpaceOnUse" id="color-43-,0,0,1,-7.15579,-7.57212"><stop offset="0" stop-color="#000000"/><stop offset="1" stop-color="#353935"/></linearGradient><radialGradient cx="101.15" cy="259.3177" r="24.6099" gradientUnits="userSpaceOnUse" id="color-44-,0,0,1,-7.15579,-7.57212"><stop offset="0" stop-color="#666666"/><stop offset="1" stop-color="#000000"/></radialGradient><radialGradient cx="99.6967" cy="267.4842" r="10.5758" gradientUnits="userSpaceOnUse" id="color-45-,0,0,1,-7.15579,-7.57212"><stop offset="0" stop-color="#370000"/><stop offset="1" stop-color="#000000"/></radialGradient><radialGradient cx="104.4641" cy="270.9265" r="9.0205" gradientUnits="userSpaceOnUse" id="color-46-,0,0,1,-7.15579,-7.57212"><stop offset="0" stop-color="#370000"/><stop offset="1" stop-color="#000000"/></radialGradient><radialGradient cx="98.6688" cy="261.38" r="8.3465" gradientUnits="userSpaceOnUse" id="color-47-,0,0,1,-7.15579,-7.57212"><stop offset="0" stop-color="#370000"/><stop offset="1" stop-color="#000000"/></radialGradient><radialGradient cx="108.1977" cy="265.4307" r="7.3402" gradientUnits="userSpaceOnUse" id="color-48-,0,0,1,-7.15579,-7.57212"><stop offset="0" stop-color="#370000"/><stop offset="1" stop-color="#000000"/></radialGradient><radialGradient cx="104.5723" cy="260.1457" r="5.5241" gradientUnits="userSpaceOnUse" id="color-49-,0,0,1,-7.15579,-7.57212"><stop offset="0" stop-color="#370000"/><stop offset="1" stop-color="#000000"/></radialGradient><radialGradient cx="103.7245" cy="264.0596" r="2.6945" gradientUnits="userSpaceOnUse" id="color-50-,0,0,1,-7.15579,-7.57212"><stop offset="0" stop-color="#ff0000"/><stop offset="1" stop-color="#000000"/></radialGradient><linearGradient x1="117.8623" y1="52.3654" x2="116.4351" y2="65.2594" gradientUnits="userSpaceOnUse" id="color-51-,0,0,1,-7.15579,-7.57212"><stop offset="0" stop-color="#000000"/><stop offset="1" stop-color="#ffffff"/></linearGradient></defs><g><g data-paper-data="{&quot;isPaintingLayer&quot;:true}" fill-rule="nonzero" stroke-linejoin="miter" stroke-miterlimit="10" stroke-dasharray="" stroke-dashoffset="0" style="mix-blend-mode: normal"><text transform="matrix(1.0003,0,0,1.0003,0.5001500000000005,35.51065)" font-size="40" xml:space="preserve" fill="#ffffff" fill-rule="nonzero" stroke="none" stroke-width="1" stroke-linecap="butt" stroke-linejoin="miter" stroke-miterlimit="10" stroke-dasharray="" stroke-dashoffset="0" font-family="&quot;ヒラギノ角ゴ Pro W3&quot;, &quot;Hiragino Kaku Gothic Pro&quot;, Osaka, &quot;メイリオ&quot;, Meiryo, &quot;ＭＳ Ｐゴシック&quot;, &quot;MS PGothic&quot;" font-weight="normal" text-anchor="start" style="mix-blend-mode: normal"><tspan x="0" dy="0">Walle10-0</tspan></text><g><path d="" data-paper-data="{&quot;origPos&quot;:null}" fill="#cccccc" stroke="none" stroke-width="1" stroke-linecap="butt" transform="matrix(1,0,0,1,-7.15579,-7.57212)"/><g data-paper-data="{&quot;origPos&quot;:null,&quot;origRot&quot;:0}"><g stroke-linecap="round"><path d="M 161.2874 161.0113 C 161.2874 161.0113 163.9396 171.3454 163.8717 176.6105 C 163.824 180.2877 162.3907 183.8778 160.9448 187.2592 C 159.4719 190.7048 155.1882 196.9277 155.1882 196.9277 " fill="none" stroke="#000000" stroke-width="3.84489"/><path d="M 120.5265 189.2881 L 147.8256 170.8539 L 161.7542 194.6913 L 165.9886 208.454 L 140.0045 224.5545 L 131.9219 206.1641 Z " fill="url(#color-1-,0,0,1,-7.15579,-7.57212)" stroke="none" stroke-width="0.42721"/></g><g stroke-linecap="round"><path d="M 71.8349 157.8494 L 136.844 111.7833 L 164.7804 116.7669 L 91.1596 167.2036 Z " fill="#252525" stroke-width="0.42721" stroke="none"/><path d="M 55.3405 149.4757 L 132.5841 93.7022 L 146.7068 94.2826 L 147.7765 106.569 L 67.7287 165.6811 L 49.1386 168.1171 Z " fill="url(#color-2-,0,0,1,-7.15579,-7.57212)" stroke-width="0.42721" stroke="none"/><path d="M 132.1647 106.9938 L 133.4281 96.0229 L 143.0714 97.4608 L 144.2894 106.7558 Z " fill="#ff0000" stroke-width="0.42721" stroke="none"/></g><path d="M 192.8985 96.3347 L 206.7958 86.95 L 237.6465 79.1261 L 222.2138 109.7817 L 208.316 119.1667 Z " fill="#252525" stroke="none" stroke-width="0.42721" stroke-linecap="round"/><g><path d="M 61.8622 184.819 L 79.5315 167.106 L 167.037 105.1259 L 179.3226 104.0562 L 191.7315 95.6772 L 203.5469 99.2616 L 211.7392 108.1829 L 211.4555 116.3242 L 196.9001 126.8753 L 196.0099 144.8207 L 112.4489 199.8011 L 96.8424 229.1293 L 95.0516 207.2136 L 73.1225 206.8452 L 47.0868 214.3082 L 28.8245 243.9846 L 27.7526 287.3461 L 10.9612 284.9544 L 2.5951 274.7047 L 4.4908 258.2484 L 13.2968 230.6218 L 34.0792 205.7478 Z " stroke-width="0.42721" stroke-linecap="round" fill="#000000" stroke="none"/><path d="M 197.0084 101.447 L 211.8988 91.3921 L 219.2726 102.3117 L 204.3822 112.3665 Z " stroke-width="0.42721" stroke-linecap="butt" fill="#000000" stroke="none"/><path d="M 209.2357 98.0095 L 222.6372 88.9598 L 225.0182 92.4867 L 211.6172 101.5361 Z " stroke-width="0.60709" stroke-linecap="butt" fill="#000000" stroke="none"/></g><g><path d="M 111.7482 163.5347 L 146.9541 133.7475 L 157.7859 146.5496 L 122.58 176.3365 Z " fill="#ff0000" stroke="url(#color-3-,0,0,1,-7.15579,-7.57212)" stroke-linecap="butt" stroke-width="3.84489"/><path d="M 192.1692 113.4485 L 154.9428 138.5859 " fill="none" stroke="url(#color-4-,0,0,1,-7.15579,-7.57212)" stroke-linecap="round" stroke-width="3.84489"/></g><path d="M 94.0843 212.2025 C 100.8483 216.2622 88.5254 232.6599 82.4609 241.0086 C 71.236 255.3744 58.5102 269.2969 43.1522 279.1154 C 37.9589 282.4304 24.1785 284.4974 24.7107 278.5602 C 26.0633 257.5261 32.2519 234.2037 47.2864 219.9551 C 58.7522 209.0922 83.7372 205.9934 94.0843 212.2025 Z " fill="none" stroke="#000000" stroke-width="4.2721" stroke-linecap="round"/></g></g><g><path d="M 114.5689 271.6151 L 151.7198 270.6806 C 151.7198 270.6806 163.8038 286.8509 167.4558 306.4111 C 170.219 321.2115 171.8139 352.2257 171.8139 352.2257 L 136.2987 348.0199 C 136.2987 348.0199 126.301 314.9752 123.0172 308.5482 C 113.1658 289.2679 114.5689 271.6151 114.5689 271.6151 Z " data-paper-data="{&quot;origPos&quot;:null}" fill="#ffffff" stroke="#000000" stroke-width="4.5" stroke-linecap="round"/><g data-paper-data="{&quot;origPos&quot;:null}"><path d="M 131.8007 392.271 C 134.9646 387.9592 126.3546 399.6925 131.8007 392.271 Z " data-paper-data="{&quot;origPos&quot;:null}" fill="url(#color-5-,0,0,1,-7.15579,-7.57212)" stroke-width="1" stroke-linecap="round" stroke="none"/><path d="" data-paper-data="{&quot;origPos&quot;:null}" fill="url(#color-6)" stroke-width="1.16035" stroke-linecap="round" stroke="none" transform="matrix(1,0,0,1,-7.15579,-7.57212)"/><g data-paper-data="{&quot;origPos&quot;:null}" stroke-linecap="butt"><g data-paper-data="{&quot;origPos&quot;:null}"><path d="" data-paper-data="{&quot;origPos&quot;:null}" fill="url(#color-7)" stroke-width="0" stroke="none" transform="matrix(1,0,0,1,-7.15579,-7.57212)"/><path d="" data-paper-data="{&quot;origPos&quot;:null,&quot;origRot&quot;:0}" fill="#000000" stroke-width="0.5" stroke="none" transform="matrix(1,0,0,1,-7.15579,-7.57212)"/><path d="" data-paper-data="{&quot;origPos&quot;:null,&quot;index&quot;:null}" fill="#000000" stroke-width="0.5" stroke="none" transform="matrix(1,0,0,1,-7.15579,-7.57212)"/></g><path d="" data-paper-data="{&quot;origPos&quot;:null}" fill="#333333" stroke-width="0" stroke="none" transform="matrix(1,0,0,1,-7.15579,-7.57212)"/></g><g data-paper-data="{&quot;origPos&quot;:null}" stroke-linecap="butt"><path data-paper-data="{&quot;origPos&quot;:null,&quot;origRot&quot;:0}" fill="url(#color-8)" stroke-width="0.5" stroke="none" transform="matrix(1,0,0,1,-7.15579,-7.57212)"/><path d="" data-paper-data="{&quot;origPos&quot;:null}" fill="#1a1a1a" stroke-width="0.5" stroke="none" transform="matrix(1,0,0,1,-7.15579,-7.57212)"/></g></g><g data-paper-data="{&quot;origPos&quot;:null}" stroke-linecap="round"><path d="M 172.0474 350.45 C 173.469 356.9998 173.0848 367.088 166.8603 370.0769 C 157.3525 374.8631 144.3791 373.8705 134.6161 368.9554 C 130.0458 366.5945 133.9376 358.6765 133.7749 353.5342 C 134.0301 349.2247 131.3356 343.0675 134.8965 340.6365 C 142.0042 335.7859 152.1345 333.7979 160.1311 336.0102 C 166.4678 337.5859 170.7296 344.3909 172.0474 350.45 Z " data-paper-data="{&quot;origPos&quot;:null}" fill="#666666" stroke="#000000" stroke-width="1.5"/><path d="M 171.1603 350.891 C 172.3155 356.2127 172.0034 364.4092 166.9461 366.8376 C 159.2212 370.726 148.6805 369.9196 140.7484 365.9264 C 137.0352 364.0083 140.1971 357.5748 140.0648 353.3968 C 140.2723 349.8957 138.0831 344.8931 140.9761 342.9177 C 146.7511 338.9769 154.9815 337.3616 161.4786 339.1592 C 166.627 340.4394 170.0898 345.9683 171.1603 350.891 Z " data-paper-data="{&quot;origPos&quot;:null}" fill="#ffffff" stroke="none" stroke-width="0.81248"/></g></g><g><path d="M 89.6926 267.1598 C 89.6926 267.1598 127.3844 255.6209 130.6408 273.9272 C 133.8972 292.2337 123.7607 340.8617 107.5952 367.8038 C 102.4224 376.4209 82.727 372.4058 77.5492 363.7307 C 71.3947 352.8304 77.2696 342.9483 77.2696 342.9483 C 77.2696 342.9483 83.654 315.6262 85.022 304.5864 C 87.2095 287.4064 89.6926 267.1598 89.6926 267.1598 Z " data-paper-data="{&quot;origPos&quot;:null}" fill="#ffffff" stroke="#000000" stroke-width="4.5" stroke-linecap="round"/><g data-paper-data="{&quot;origPos&quot;:null}"><path d="M 64.3002 390.9905 C 66.8183 389.6533 58.1608 394.2477 64.3002 390.9905 Z " data-paper-data="{&quot;origPos&quot;:null}" fill="url(#color-9-,0,0,1,-7.15579,-7.57212)" stroke-width="1.16035" stroke-linecap="round" stroke="none"/><path d="" data-paper-data="{&quot;origPos&quot;:null}" fill="url(#color-10)" stroke-width="1.16035" stroke-linecap="round" stroke="none" transform="matrix(1,0,0,1,-7.15579,-7.57212)"/><g data-paper-data="{&quot;origPos&quot;:null}" stroke-linecap="butt"><g data-paper-data="{&quot;origPos&quot;:null}"><path d="" data-paper-data="{&quot;origPos&quot;:null}" fill="url(#color-11)" stroke-width="0" stroke="none" transform="matrix(1,0,0,1,-7.15579,-7.57212)"/><path d="" data-paper-data="{&quot;origPos&quot;:null,&quot;origRot&quot;:0}" fill="#000000" stroke-width="0.5" stroke="none" transform="matrix(1,0,0,1,-7.15579,-7.57212)"/><path d="" data-paper-data="{&quot;origPos&quot;:null,&quot;index&quot;:null}" fill="#000000" stroke-width="0.5" stroke="none" transform="matrix(1,0,0,1,-7.15579,-7.57212)"/></g><path d="" data-paper-data="{&quot;origPos&quot;:null}" fill="#333333" stroke-width="0" stroke="none" transform="matrix(1,0,0,1,-7.15579,-7.57212)"/></g><g data-paper-data="{&quot;origPos&quot;:null}" stroke-linecap="butt"><path data-paper-data="{&quot;origPos&quot;:null,&quot;origRot&quot;:0}" fill="#292929" stroke-width="0.5" stroke="none" transform="matrix(1,0,0,1,-7.15579,-7.57212)"/><path d="" data-paper-data="{&quot;origPos&quot;:null}" fill="#1a1a1a" stroke-width="0.5" stroke="none" transform="matrix(1,0,0,1,-7.15579,-7.57212)"/></g></g><g data-paper-data="{&quot;origPos&quot;:null}" stroke-linecap="round"><path d="M 115.343 352.8888 C 115.2712 359.5905 112.6516 369.3403 105.9182 370.869 C 95.5835 373.4194 83.1563 369.5646 74.7321 362.6002 C 70.8017 359.2813 76.3581 352.4278 77.3439 347.3784 C 78.5515 343.2337 77.2949 336.6312 81.3074 335.0538 C 89.3166 331.9065 99.635 332.2227 106.9388 336.1591 C 112.766 339.1056 115.4067 346.6883 115.343 352.8888 Z " data-paper-data="{&quot;origPos&quot;:null}" fill="#666666" stroke="#000000" stroke-width="1.5"/><path d="M 113.7788 352.7713 C 113.7207 358.2166 111.5923 366.138 106.1215 367.3802 C 97.7248 369.4522 87.6281 366.3203 80.7834 360.6616 C 77.5901 357.9651 82.0622 352.3875 82.9053 348.2944 C 83.8446 344.9174 82.8588 339.5425 86.1258 338.281 C 92.6246 335.771 100.9641 335.976 106.9508 339.1791 C 111.6223 341.561 113.8306 347.7336 113.7788 352.7713 Z " data-paper-data="{&quot;origPos&quot;:null}" fill="#ffffff" stroke="none" stroke-width="0.81248"/></g></g><path d="M 134.3867 160.0588 C 133.7127 155.2188 141.5155 149.6594 146.3799 151.6215 C 156.7665 155.8749 162.0711 167.9023 170.2502 175.3538 C 179.3433 184.2728 194.7272 188.729 198.193 200.8222 C 200.2793 208.1476 188.9041 218.1584 180.801 217.0231 C 169.2593 215.2918 161.0928 203.6995 153.1602 194.2458 C 144.8204 184.2919 136.096 172.9279 134.3867 160.0588 Z " fill="#000000" stroke="#000000" stroke-width="1.5" stroke-linecap="round"/><path d="M 134.3461 161.8426 C 133.4295 156.9864 138.814 147.9033 143.2006 149.9243 C 153.0934 154.4898 155.9004 167.8016 164.0601 175.2576 C 173.5021 184.5538 190.3537 187.6618 195.6979 199.8902 C 198.5951 206.5334 188.7025 218.0462 181.5185 216.284 C 168.3093 213.7342 159.4955 200.7633 150.3945 190.3087 C 143.2545 182.0987 136.3444 172.4201 134.3461 161.8426 Z " fill="#ffffff" stroke="none" stroke-width="1.00573" stroke-linecap="round"/><g><path d="M96.51895,275.04551c0,0 1.09594,-31.72985 -0.93461,-51.87113c-1.40192,-13.90583 -10.6596,-51.04318 0.93461,-79.44226c11.59421,-28.39908 69.40974,-16.64957 75.23649,-0.93461c5.82675,15.71496 -2.47896,67.79734 -3.27116,79.44226c-1.40192,20.60812 -1.86924,52.80574 -1.86924,52.80574z" data-paper-data="{&quot;origPos&quot;:null}" fill="#000000" stroke="none" stroke-width="0" stroke-linecap="butt" transform="matrix(1,0,0,1,-7.15579,-7.57212)"/><path d="M 86.6089 146.2454 C 88.305 137.9314 91.0149 128.4387 98.2152 129.807 C 105.4155 131.1753 115.3935 136.1415 120.0451 141.7435 C 122.933 145.2343 124.834 170.6316 119.7647 175.3897 C 115.2449 179.9207 88.4513 180.6104 86.6793 176.5112 C 82.8493 167.5978 84.4755 156.7023 86.6089 146.2454 Z " data-paper-data="{&quot;origPos&quot;:null,&quot;index&quot;:null}" fill="#ffffff" stroke="#000000" stroke-width="2" stroke-linecap="round"/><path d="M 166.2735 177.3123 C 164.5014 181.4115 137.7079 180.7217 133.1881 176.1907 C 128.1188 171.4326 130.0198 146.0354 132.9077 142.5446 C 137.5593 136.9425 147.5373 131.9766 154.7376 130.6084 C 161.9379 129.2401 164.6478 138.7328 166.3438 147.0465 C 168.4773 157.5037 170.1035 168.3989 166.2735 177.3123 Z " data-paper-data="{&quot;origPos&quot;:null}" fill="#ffffff" stroke="#000000" stroke-width="2" stroke-linecap="round"/><path d="M 161.4267 187.3259 C 165.4503 193.4271 162.8175 202.0489 161.9875 209.3361 C 161.1996 214.0298 160.4931 219.8814 156.6602 222.6544 C 152.9591 225.3517 131.0162 223.9161 127.2198 220.1309 C 123.9786 216.9654 124.6375 191.6382 129.1825 186.9054 C 132.9537 182.7276 158.5276 182.9351 161.4267 187.3259 Z " data-paper-data="{&quot;origPos&quot;:null}" fill="#ffffff" stroke="#000000" stroke-width="2" stroke-linecap="round"/><path d="M 121.0915 186.6051 C 124.1449 191.3239 124.4561 215.9865 120.8111 220.2512 C 117.9287 223.5541 95.0297 222.6373 90.9501 218.8493 C 86.2873 214.5201 86.5033 206.703 85.763 200.3439 C 85.4126 194.5904 82.8863 186.1733 87.7257 183.1003 C 94.0456 179.0908 119.1148 183.518 121.0915 186.6051 Z " data-paper-data="{&quot;origPos&quot;:null}" fill="#ffffff" stroke="#000000" stroke-width="2" stroke-linecap="round"/><path d="M 151.2995 269.9796 L 90.97 268.0169 L 91.1571 228.7631 L 154.4771 230.4454 Z " data-paper-data="{&quot;origPos&quot;:null}" fill="url(#color-12-,0,0,1,-7.15579,-7.57212)" stroke="#000000" stroke-width="2" stroke-linecap="round"/><g><path d="M 147.2418 141.6995 L 151.8763 141.9149 L 151.2294 149.0282 L 158.0195 149.2438 L 158.0195 153.3394 L 151.1218 152.8005 L 151.1218 174.0326 L 146.8106 173.8173 L 147.1339 152.5849 L 140.3438 152.8005 L 140.3438 149.2438 L 147.4571 149.4594 Z " stroke-width="0.15376" stroke-linecap="round" fill="#000000" stroke="none"/><g stroke-linecap="butt"><path d="M 158.4917 173.6084 C 158.4917 173.9137 158.3899 174.0494 158.1863 174.0494 C 156.6933 174.1173 155.2005 174.1512 153.7075 174.2191 C 153.6057 174.2191 153.5378 174.2191 153.47 174.2191 C 153.47 173.9477 153.4361 173.7441 153.4361 173.5066 C 153.4361 173.4048 153.5378 173.2691 153.6396 173.2691 C 153.8771 173.2013 154.1146 173.1673 154.386 173.0995 C 154.827 172.9974 154.8949 172.8957 154.8949 172.4546 C 154.8949 171.5047 154.9627 170.5205 154.9288 169.5706 C 154.8949 168.1454 154.7931 166.6863 154.7592 165.2611 C 154.7592 164.4468 154.827 163.6662 154.827 162.852 C 154.827 162.275 154.827 161.6643 154.7931 161.0536 C 154.6913 161.2911 154.5848 161.528 154.4539 161.7661 C 153.9295 162.7497 153.3604 163.5319 152.7912 164.3958 C 152.3269 165.1074 151.7299 165.5807 151.2813 166.2281 C 150.8848 166.8043 150.5108 167.3755 150.0597 167.8908 C 149.7313 168.2609 149.5617 169.2535 149.1605 168.9596 C 147.407 167.5328 146.66 165.8 145.3601 164.2433 C 144.5936 163.3043 143.7118 162.3922 142.9511 161.4607 C 142.761 161.2286 142.8154 161.2572 142.7814 161.1554 L 142.7136 161.1554 C 142.7136 161.8339 142.7136 162.5127 142.7136 163.1913 C 142.7475 164.82 142.7814 166.4827 142.7814 168.1115 C 142.7814 169.3328 142.7136 170.5884 142.6797 171.81 C 142.6797 172.1154 142.7136 172.4207 142.7475 172.726 C 142.7814 172.9635 142.985 173.0995 143.2225 173.1334 C 143.3921 173.1674 143.5278 173.1674 143.6975 173.1674 C 143.9349 173.1674 143.9689 173.3031 143.935 173.4727 C 143.901 173.6763 143.901 173.8459 143.901 174.0495 C 143.901 174.2191 143.7992 174.2191 143.6635 174.2191 C 143.0868 174.253 142.5098 174.2869 141.9669 174.2869 C 141.3563 174.3209 140.7792 174.3209 140.1686 174.3548 C 139.965 174.3548 139.8632 174.3209 139.8971 174.0834 C 139.9311 173.8798 139.8971 173.6763 139.8971 173.5066 C 139.8971 173.3031 139.9989 173.2352 140.2025 173.2013 C 140.4739 173.1674 140.7453 173.1334 140.9831 173.0314 C 141.0509 172.9975 141.1527 172.8618 141.1527 172.7939 C 141.1866 172.0136 141.1866 171.1991 141.2206 170.4188 C 141.2545 169.5706 141.3223 168.7222 141.3563 167.8401 C 141.3563 167.6023 141.3563 167.3309 141.3223 167.0934 C 141.2206 166.2792 141.2545 165.4307 141.2545 164.5486 C 141.2545 163.2591 141.2206 162.0036 141.2206 160.7144 C 141.2206 160.273 141.2206 159.7981 141.1866 159.357 C 141.1188 159.0517 140.9152 158.916 140.6096 158.916 C 140.5757 158.916 140.5418 158.916 140.5418 158.916 C 139.9311 158.8821 139.8293 158.7121 139.965 158.1354 C 139.965 158.0675 140.1007 157.9658 140.1686 157.9658 C 140.44 157.9658 140.7114 157.9658 140.9831 157.9658 C 141.7973 157.9997 142.6118 157.9658 143.3921 157.9658 C 143.8332 157.9658 143.8803 158.2189 144.0707 158.4407 C 144.9603 159.4285 145.446 160.3563 146.1236 161.359 C 147.0394 162.543 147.8831 163.7989 148.8551 165.0065 C 149.0985 165.3088 148.8888 165.2846 149.1605 165.0065 C 150.4497 163.717 151.6817 162.3504 152.7912 161.0536 C 153.3876 160.3594 153.7624 159.4838 154.386 158.8139 C 154.6613 158.5181 154.8271 158.1015 155.3702 158.1015 C 156.3201 158.1354 157.3042 158.1015 158.2542 158.1354 C 158.4578 158.1354 158.5256 158.2372 158.5256 158.4407 C 158.5256 158.9499 158.5256 158.9499 157.9828 158.9838 C 157.44 158.9838 157.2703 158.8478 157.2703 159.6624 C 157.2703 160.3409 157.2703 160.9858 157.3043 161.6643 C 157.3043 161.9018 157.3382 162.1393 157.3382 162.3768 C 157.3382 163.5306 157.3382 164.6504 157.3382 165.8039 C 157.3382 167.263 157.3043 168.6882 157.3043 170.1474 C 157.3043 170.9616 157.2703 171.7761 157.2364 172.6243 C 157.2364 173.0656 157.3382 173.2352 157.7792 173.2692 C 157.9149 173.2692 158.0506 173.337 158.1863 173.3031 C 158.4917 173.2352 158.4917 173.4388 158.4917 173.6084 Z " stroke-width="0.12102" fill="#000000" stroke="none"/></g></g><g><g><path d="M 93.5558 326.3092 C 93.5558 326.3092 93.8289 326.7468 93.8701 326.6235 C 93.9861 326.2752 93.9048 325.7834 93.8701 325.3665 C 93.8521 325.1515 93.7484 324.9507 93.713 324.7379 C 93.6435 324.3218 93.6508 323.892 93.5557 323.4809 C 93.4924 323.2064 93.3558 322.9527 93.2414 322.6953 C 93.1467 322.4816 93.0011 322.2887 92.9274 322.0667 C 92.7909 321.6573 92.6131 321.2412 92.6131 320.8097 C 92.6131 319.7061 92.8394 318.6104 92.9274 317.5101 C 92.9493 317.2351 92.8898 317.0873 92.9274 316.8815 C 92.9955 316.5066 93.1733 316.1564 93.2414 315.7816 C 93.279 315.5758 93.2308 315.3888 93.2414 315.1532 C 93.2843 314.2106 93.3987 312.3247 93.3987 312.3247 " fill="none" stroke="#7f7f7f" stroke-width="0.89665" stroke-linecap="round"/><path d="M 92.0518 307.5004 C 90.8576 306.7843 90.8371 302.0895 89.4635 299.736 C 88.7407 298.4953 86.6199 298.4488 86.0126 297.1478 C 84.5097 293.9281 84.1217 290.2786 83.4243 286.7948 C 82.9707 284.5243 83.2934 282.0897 82.5616 279.8932 C 82.1079 278.53 80.4273 277.8052 79.9736 276.4422 C 79.2418 274.2457 78.6968 271.8198 79.1109 269.5403 C 79.3282 268.3411 80.8364 267.8148 81.6988 266.952 C 82.5616 266.0893 83.578 265.3561 84.2871 264.3638 C 85.0343 263.3183 85.0256 261.736 86.0126 260.9131 C 86.9218 260.1555 88.28 260.0504 89.4635 260.0504 C 90.6473 260.0504 92.0052 260.1555 92.9145 260.9131 C 93.9015 261.736 94.0655 263.2148 94.64 264.3638 C 95.2145 265.5131 96.1291 266.5519 96.3655 267.8148 C 97.0022 271.2158 97.2282 274.708 97.2282 278.1677 C 97.2282 280.4831 96.7468 282.7851 96.3655 285.0694 C 96.1703 286.2377 95.5768 287.3385 95.5027 288.5203 C 95.2871 291.9609 95.9306 295.4517 95.5027 298.8732 C 95.344 300.1484 94.2553 301.1317 93.7772 302.3242 C 93.1026 304.0116 92.9145 308.0183 92.0518 307.5004 Z " fill="none" stroke="#7f7f7f" stroke-width="0.61539" stroke-linecap="round"/><path d="M 83.3685 265.5123 C 83.6599 265.803 83.8399 266.2048 83.8399 266.6484 C 83.8399 267.0922 83.6599 267.4938 83.3685 267.7848 C 83.0778 268.0758 82.6763 268.2558 82.2324 268.2558 C 81.7889 268.2558 81.3871 268.0758 81.0963 267.7848 C 80.805 267.4937 80.625 267.0922 80.625 266.6484 C 80.625 266.2048 80.805 265.803 81.0963 265.5123 C 81.3871 265.221 81.7888 265.0409 82.2324 265.0409 C 82.6763 265.0409 83.0778 265.2209 83.3685 265.5123 Z " fill="url(#color-13-,0,0,1,-7.15579,-7.57212)" stroke="none" stroke-width="0.13489" stroke-linecap="butt"/><path d="M 80.5647 267.7551 C 80.856 268.0458 81.036 268.4479 81.036 268.8912 C 81.036 269.335 80.856 269.7368 80.5647 270.0279 C 80.2739 270.3189 79.8724 270.4989 79.4286 270.4989 C 78.985 270.4989 78.5832 270.3189 78.2924 270.0279 C 78.0011 269.7368 77.8211 269.335 77.8211 268.8912 C 77.8211 268.4479 78.0011 268.0458 78.2924 267.7551 C 78.5832 267.4637 78.985 267.2837 79.4286 267.2837 C 79.8724 267.2837 80.2739 267.4637 80.5647 267.7551 Z " fill="url(#color-14-,0,0,1,-7.15579,-7.57212)" stroke="none" stroke-width="0.13489" stroke-linecap="butt"/><path d="M 79.8637 271.5403 C 80.1551 271.831 80.3351 272.2328 80.3351 272.6764 C 80.3351 273.1202 80.1551 273.5217 79.8637 273.8128 C 79.573 274.1038 79.1715 274.2838 78.7276 274.2838 C 78.284 274.2838 77.8823 274.1038 77.5915 273.8128 C 77.3002 273.5217 77.1202 273.1202 77.1202 272.6764 C 77.1202 272.2328 77.3002 271.831 77.5915 271.5403 C 77.8823 271.2489 78.284 271.0689 78.7276 271.0689 C 79.1715 271.0689 79.573 271.2489 79.8637 271.5403 Z " fill="url(#color-15-,0,0,1,-7.15579,-7.57212)" stroke="none" stroke-width="0.13489" stroke-linecap="butt"/><path d="M 81.1255 274.9049 C 81.4168 275.1956 81.5968 275.5974 81.5968 276.041 C 81.5968 276.4848 81.4168 276.8863 81.1255 277.1774 C 80.8347 277.4684 80.4332 277.6484 79.9893 277.6484 C 79.5458 277.6484 79.144 277.4684 78.8532 277.1774 C 78.5619 276.8863 78.3819 276.4848 78.3819 276.041 C 78.3819 275.5974 78.5619 275.1956 78.8532 274.9049 C 79.144 274.6136 79.5458 274.4335 79.9893 274.4335 C 80.4332 274.4335 80.8347 274.6135 81.1255 274.9049 Z " fill="url(#color-16-,0,0,1,-7.15579,-7.57212)" stroke="none" stroke-width="0.13489" stroke-linecap="butt"/><path d="M 83.3685 277.9891 C 83.6599 278.2799 83.8399 278.6816 83.8399 279.1252 C 83.8399 279.5691 83.6599 279.9706 83.3685 280.2616 C 83.0778 280.5527 82.6763 280.7327 82.2324 280.7327 C 81.7889 280.7327 81.3871 280.5527 81.0963 280.2616 C 80.805 279.9706 80.625 279.5691 80.625 279.1252 C 80.625 278.6816 80.805 278.2799 81.0963 277.9891 C 81.3871 277.6978 81.7888 277.5178 82.2324 277.5178 C 82.6763 277.5178 83.0778 277.6978 83.3685 277.9891 Z " fill="url(#color-17-,0,0,1,-7.15579,-7.57212)" stroke="none" stroke-width="0.13489" stroke-linecap="butt"/><path d="M 84.0695 282.0547 C 84.3608 282.3454 84.5408 282.7472 84.5408 283.1908 C 84.5408 283.6346 84.3608 284.0361 84.0695 284.3272 C 83.7787 284.6182 83.3772 284.7982 82.9334 284.7982 C 82.4898 284.7982 82.088 284.6182 81.7973 284.3272 C 81.5059 284.0361 81.3259 283.6346 81.3259 283.1908 C 81.3259 282.7472 81.5059 282.3454 81.7973 282.0547 C 82.088 281.7634 82.4898 281.5833 82.9334 281.5833 C 83.3772 281.5833 83.7787 281.7634 84.0695 282.0547 Z " fill="url(#color-18-,0,0,1,-7.15579,-7.57212)" stroke="none" stroke-width="0.13489" stroke-linecap="butt"/><path d="M 84.7705 285.5595 C 85.0618 285.8502 85.2418 286.252 85.2418 286.6956 C 85.2418 287.1395 85.0618 287.541 84.7705 287.832 C 84.4797 288.123 84.0782 288.303 83.6343 288.303 C 83.1908 288.303 82.789 288.123 82.4982 287.832 C 82.2069 287.541 82.0269 287.1395 82.0269 286.6956 C 82.0269 286.252 82.2069 285.8502 82.4982 285.5595 C 82.789 285.2682 83.1908 285.0882 83.6343 285.0882 C 84.0782 285.0882 84.4797 285.2682 84.7705 285.5595 Z " fill="url(#color-19-,0,0,1,-7.15579,-7.57212)" stroke="none" stroke-width="0.13489" stroke-linecap="butt"/><path d="M 85.4714 289.4849 C 85.7627 289.7756 85.9427 290.1777 85.9427 290.621 C 85.9427 291.0648 85.7627 291.4666 85.4714 291.7577 C 85.1807 292.0487 84.7792 292.2287 84.3353 292.2287 C 83.8917 292.2287 83.49 292.0487 83.1992 291.7577 C 82.9079 291.4666 82.7279 291.0648 82.7279 290.621 C 82.7279 290.1777 82.9079 289.7756 83.1992 289.4849 C 83.4899 289.1935 83.8917 289.0135 84.3353 289.0135 C 84.7792 289.0135 85.1807 289.1935 85.4714 289.4849 Z " fill="url(#color-20-,0,0,1,-7.15579,-7.57212)" stroke="none" stroke-width="0.13489" stroke-linecap="butt"/><path d="M 86.1724 292.9897 C 86.4637 293.2804 86.6437 293.6825 86.6437 294.1258 C 86.6437 294.5696 86.4637 294.9714 86.1724 295.2625 C 85.8816 295.5535 85.4801 295.7335 85.0363 295.7335 C 84.5927 295.7335 84.1909 295.5535 83.9001 295.2625 C 83.6088 294.9714 83.4288 294.5696 83.4288 294.1258 C 83.4288 293.6825 83.6088 293.2804 83.9001 292.9897 C 84.1909 292.6984 84.5927 292.5183 85.0363 292.5183 C 85.4801 292.5183 85.8816 292.6983 86.1724 292.9897 Z " fill="url(#color-21-,0,0,1,-7.15579,-7.57212)" stroke="none" stroke-width="0.13489" stroke-linecap="butt"/><path d="M 88.1351 296.3546 C 88.4264 296.6453 88.6064 297.0471 88.6064 297.4907 C 88.6064 297.9345 88.4264 298.336 88.1351 298.6271 C 87.8443 298.9181 87.4428 299.0981 86.999 299.0981 C 86.5554 299.0981 86.1536 298.9181 85.8628 298.6271 C 85.5715 298.336 85.3915 297.9345 85.3915 297.4907 C 85.3915 297.0471 85.5715 296.6453 85.8628 296.3546 C 86.1536 296.0632 86.5554 295.8832 86.999 295.8832 C 87.4428 295.8832 87.8443 296.0632 88.1351 296.3546 Z " fill="url(#color-22-,0,0,1,-7.15579,-7.57212)" stroke="none" stroke-width="0.13489" stroke-linecap="butt"/><g stroke-linecap="butt"><path d="M 90.2559 299.0967 C 90.6339 299.2599 90.9493 299.5669 91.1128 299.9796 C 91.2762 300.3921 91.2569 300.8317 91.0931 301.2094 C 90.9299 301.5874 90.6229 301.9025 90.2105 302.066 C 89.798 302.2294 89.3584 302.2101 88.9807 302.0466 C 88.6027 301.8835 88.2873 301.5764 88.1239 301.164 C 87.9604 300.7516 87.9797 300.3116 88.1435 299.9339 C 88.3067 299.556 88.6137 299.2408 89.0261 299.0774 C 89.4386 298.9139 89.8782 298.9333 90.2559 299.0967 Z " fill="url(#color-23-,0,0,1,-7.15579,-7.57212)" stroke-width="0.13489" stroke="none"/><path d="M 91.5179 302.3211 C 91.8959 302.4843 92.2113 302.7913 92.3748 303.2041 C 92.5382 303.6165 92.5189 304.0562 92.3551 304.4341 C 92.192 304.8121 91.8849 305.127 91.4725 305.2904 C 91.06 305.4539 90.6204 305.4345 90.2427 305.2711 C 89.8648 305.1079 89.5493 304.8009 89.3859 304.3887 C 89.2224 303.9763 89.2417 303.5363 89.4055 303.1584 C 89.5687 302.7804 89.8757 302.4653 90.2882 302.3018 C 90.7006 302.1383 91.1402 302.1577 91.5179 302.3211 Z " fill="url(#color-24-,0,0,1,-7.15579,-7.57212)" stroke-width="0.13489" stroke="none"/></g><path d="M 88.2537 259.4184 C 88.7463 259.9102 89.0508 260.5896 89.0508 261.3401 C 89.0508 262.0902 88.7463 262.7695 88.2537 263.2616 C 87.7619 263.7543 87.0825 264.0588 86.3322 264.0588 C 85.5819 264.0588 84.9028 263.7543 84.4107 263.2616 C 83.9184 262.7698 83.6139 262.0905 83.6139 261.3401 C 83.6139 260.5898 83.9184 259.9105 84.4107 259.4184 C 84.9028 258.926 85.5819 258.6215 86.3322 258.6215 C 87.0825 258.6215 87.7619 258.926 88.2537 259.4184 Z " fill="url(#color-25-,0,0,1,-7.15579,-7.57212)" stroke="none" stroke-width="0.22813" stroke-linecap="butt"/><path d="M 95.7052 262.0075 C 95.9965 262.2982 96.1765 262.7 96.1765 263.1436 C 96.1765 263.5874 95.9965 263.9889 95.7052 264.28 C 95.4144 264.571 95.0129 264.751 94.5691 264.751 C 94.1255 264.751 93.7237 264.571 93.4329 264.28 C 93.1416 263.9889 92.9616 263.5874 92.9616 263.1436 C 92.9616 262.7 93.1416 262.2982 93.4329 262.0075 C 93.7237 261.7161 94.1255 261.5361 94.5691 261.5361 C 95.0129 261.5361 95.4144 261.7161 95.7052 262.0075 Z " fill="url(#color-26-,0,0,1,-7.15579,-7.57212)" stroke="none" stroke-width="0.13489" stroke-linecap="butt"/><path d="M 97.3878 265.7924 C 97.6791 266.0831 97.8591 266.4849 97.8591 266.9285 C 97.8591 267.3723 97.6791 267.7739 97.3878 268.0649 C 97.097 268.3559 96.6955 268.5359 96.2516 268.5359 C 95.8081 268.5359 95.4063 268.3559 95.1155 268.0649 C 94.8242 267.7738 94.6442 267.3723 94.6442 266.9285 C 94.6442 266.4849 94.8242 266.0831 95.1155 265.7924 C 95.4063 265.5011 95.8081 265.3211 96.2516 265.3211 C 96.6955 265.3211 97.097 265.5011 97.3878 265.7924 Z " fill="url(#color-27-,0,0,1,-7.15579,-7.57212)" stroke="none" stroke-width="0.13489" stroke-linecap="butt"/><path d="M 98.0887 269.9981 C 98.38 270.2889 98.56 270.6907 98.56 271.1343 C 98.56 271.5781 98.38 271.9796 98.0887 272.2706 C 97.798 272.5617 97.3965 272.7417 96.9526 272.7417 C 96.509 272.7417 96.1072 272.5617 95.8165 272.2706 C 95.5252 271.9796 95.3452 271.5781 95.3452 271.1343 C 95.3452 270.6907 95.5252 270.2889 95.8165 269.9981 C 96.1072 269.7068 96.509 269.5268 96.9526 269.5268 C 97.3965 269.5268 97.798 269.7068 98.0887 269.9981 Z " fill="url(#color-28-,0,0,1,-7.15579,-7.57212)" stroke="none" stroke-width="0.13489" stroke-linecap="butt"/><path d="M 98.0887 274.6248 C 98.38 274.9155 98.56 275.3173 98.56 275.7609 C 98.56 276.2047 98.38 276.6062 98.0887 276.8973 C 97.798 277.1883 97.3965 277.3683 96.9526 277.3683 C 96.509 277.3683 96.1072 277.1883 95.8165 276.8973 C 95.5252 276.6062 95.3452 276.2047 95.3452 275.7609 C 95.3452 275.3173 95.5252 274.9155 95.8165 274.6248 C 96.1072 274.3334 96.509 274.1534 96.9526 274.1534 C 97.3965 274.1534 97.798 274.3334 98.0887 274.6248 Z " fill="url(#color-29-,0,0,1,-7.15579,-7.57212)" stroke="none" stroke-width="0.13489" stroke-linecap="butt"/><path d="M 98.2286 278.9704 C 98.52 279.2612 98.7 279.6633 98.7 280.1066 C 98.7 280.5504 98.52 280.9522 98.2286 281.2432 C 97.9379 281.5343 97.5364 281.7143 97.0925 281.7143 C 96.6489 281.7143 96.2472 281.5343 95.9564 281.2432 C 95.6651 280.9522 95.4851 280.5504 95.4851 280.1066 C 95.4851 279.6633 95.6651 279.2612 95.9564 278.9704 C 96.2472 278.6791 96.6489 278.4991 97.0925 278.4991 C 97.5364 278.4991 97.9379 278.6791 98.2286 278.9704 Z " fill="url(#color-30-,0,0,1,-7.15579,-7.57212)" stroke="none" stroke-width="0.13489" stroke-linecap="butt"/><path d="M 97.9485 283.4566 C 98.2399 283.7473 98.4199 284.1491 98.4199 284.5927 C 98.4199 285.0366 98.2399 285.4381 97.9485 285.7291 C 97.6578 286.0201 97.2563 286.2002 96.8124 286.2002 C 96.3688 286.2002 95.9671 286.0201 95.6763 285.7291 C 95.385 285.4381 95.205 285.0366 95.205 284.5927 C 95.205 284.1491 95.385 283.7473 95.6763 283.4566 C 95.9671 283.1653 96.3688 282.9853 96.8124 282.9853 C 97.2563 282.9853 97.6578 283.1653 97.9485 283.4566 Z " fill="url(#color-31-,0,0,1,-7.15579,-7.57212)" stroke="none" stroke-width="0.13489" stroke-linecap="butt"/><path d="M 97.3878 287.8025 C 97.6791 288.0933 97.8591 288.4951 97.8591 288.9387 C 97.8591 289.3825 97.6791 289.784 97.3878 290.0751 C 97.097 290.3661 96.6955 290.5461 96.2516 290.5461 C 95.8081 290.5461 95.4063 290.3661 95.1155 290.0751 C 94.8242 289.784 94.6442 289.3825 94.6442 288.9387 C 94.6442 288.4951 94.8242 288.0933 95.1155 287.8025 C 95.4063 287.5112 95.8081 287.3312 96.2516 287.3312 C 96.6955 287.3312 97.097 287.5112 97.3878 287.8025 Z " fill="url(#color-32-,0,0,1,-7.15579,-7.57212)" stroke="none" stroke-width="0.13489" stroke-linecap="butt"/><path d="M 97.1071 291.8681 C 97.3984 292.1589 97.5784 292.5607 97.5784 293.0043 C 97.5784 293.4481 97.3984 293.8496 97.1071 294.1406 C 96.8163 294.4317 96.4148 294.6117 95.971 294.6117 C 95.5274 294.6117 95.1256 294.4317 94.8349 294.1406 C 94.5435 293.8496 94.3635 293.4481 94.3635 293.0043 C 94.3635 292.5607 94.5435 292.1589 94.8349 291.8681 C 95.1256 291.5768 95.5274 291.3968 95.971 291.3968 C 96.4148 291.3968 96.8163 291.5768 97.1071 291.8681 Z " fill="url(#color-33-,0,0,1,-7.15579,-7.57212)" stroke="none" stroke-width="0.13489" stroke-linecap="butt"/><path d="M 96.6868 296.3546 C 96.9781 296.6453 97.1581 297.0471 97.1581 297.4907 C 97.1581 297.9345 96.9781 298.336 96.6868 298.6271 C 96.396 298.9181 95.9945 299.0981 95.5507 299.0981 C 95.1071 299.0981 94.7053 298.9181 94.4146 298.6271 C 94.1232 298.336 93.9432 297.9345 93.9432 297.4907 C 93.9432 297.0471 94.1232 296.6453 94.4146 296.3546 C 94.7053 296.0632 95.1071 295.8832 95.5507 295.8832 C 95.9945 295.8832 96.396 296.0632 96.6868 296.3546 Z " fill="url(#color-34-,0,0,1,-7.15579,-7.57212)" stroke="none" stroke-width="0.13489" stroke-linecap="butt"/><path d="M 95.4248 300.8404 C 95.7161 301.1312 95.8961 301.533 95.8961 301.9766 C 95.8961 302.4204 95.7161 302.8219 95.4248 303.113 C 95.134 303.404 94.7325 303.584 94.2887 303.584 C 93.8451 303.584 93.4433 303.404 93.1525 303.113 C 92.8612 302.8219 92.6812 302.4204 92.6812 301.9766 C 92.6812 301.533 92.8612 301.1312 93.1525 300.8404 C 93.4433 300.5491 93.8451 300.3691 94.2887 300.3691 C 94.7325 300.3691 95.134 300.5491 95.4248 300.8404 Z " fill="url(#color-35-,0,0,1,-7.15579,-7.57212)" stroke="none" stroke-width="0.13489" stroke-linecap="butt"/><path d="M 95.2366 306.8516 C 95.8484 307.6339 96.227 308.7139 96.227 309.9061 C 96.227 311.0986 95.8484 312.1786 95.2366 312.9609 C 94.6251 313.7429 93.7809 314.2271 92.8486 314.2271 C 91.9166 314.2271 91.0721 313.7429 90.4606 312.9609 C 89.8491 312.1786 89.4705 311.0986 89.4705 309.9061 C 89.4705 308.7139 89.8491 307.6339 90.4606 306.8516 C 91.0721 306.0693 91.9166 305.5851 92.8486 305.5851 C 93.7809 305.5851 94.6251 306.0693 95.2366 306.8516 Z " fill="#b2b2b2" stroke="none" stroke-width="0.11208" stroke-linecap="butt"/><path d="M 93.6208 314.5179 C 93.9988 314.6811 94.3142 314.9881 94.4776 315.4008 C 94.6411 315.8132 94.6218 316.2529 94.458 316.6306 C 94.2948 317.0085 93.9878 317.3237 93.5754 317.4871 C 93.1629 317.6506 92.7233 317.6313 92.3456 317.4678 C 91.9676 317.3046 91.6522 316.9976 91.4887 316.5851 C 91.3253 316.1727 91.3446 315.7328 91.5084 315.3551 C 91.6715 314.9771 91.9786 314.662 92.391 314.4985 C 92.8035 314.3351 93.2431 314.3544 93.6208 314.5179 Z " fill="url(#color-36-,0,0,1,-7.15579,-7.57212)" stroke="none" stroke-width="0.13489" stroke-linecap="butt"/><path d="M 93.0598 318.4433 C 93.4377 318.6064 93.7531 318.9135 93.9166 319.3262 C 94.0801 319.7386 94.0607 320.1783 93.897 320.5562 C 93.7338 320.9342 93.4268 321.2491 93.0143 321.4125 C 92.6019 321.576 92.1622 321.5566 91.7845 321.3932 C 91.4066 321.23 91.0912 320.923 90.9277 320.5108 C 90.7642 320.0984 90.7836 319.6584 90.9473 319.2805 C 91.1105 318.9025 91.4175 318.5874 91.83 318.4239 C 92.2424 318.2604 92.6821 318.2798 93.0598 318.4433 Z " fill="url(#color-37-,0,0,1,-7.15579,-7.57212)" stroke="none" stroke-width="0.13489" stroke-linecap="butt"/><path d="M 94.5839 322.43 C 94.8752 322.7208 95.0552 323.1229 95.0552 323.5662 C 95.0552 324.01 94.8752 324.4118 94.5839 324.7028 C 94.2932 324.9939 93.8917 325.1739 93.4478 325.1739 C 93.0042 325.1739 92.6025 324.9939 92.3117 324.7028 C 92.0204 324.4118 91.8404 324.01 91.8404 323.5662 C 91.8404 323.1229 92.0204 322.7208 92.3117 322.43 C 92.6025 322.1387 93.0042 321.9587 93.4478 321.9587 C 93.8916 321.9587 94.2932 322.1387 94.5839 322.43 Z " fill="url(#color-38-,0,0,1,-7.15579,-7.57212)" stroke="none" stroke-width="0.13489" stroke-linecap="butt"/><path d="M 95.9124 328.8234 L 98.8979 328.5091 L 98.7409 331.8089 L 96.0697 332.1232 L 95.5983 341.3939 L 91.9842 341.3939 L 91.5129 332.4373 L 87.7417 332.2802 L 87.899 328.9804 L 91.5129 328.9804 L 91.5129 325.8378 L 95.7554 325.8378 Z " fill="#b2b2b2" stroke="none" stroke-width="0.11208" stroke-linecap="round"/><path d="M 93.3093 327.9598 L 93.9379 339.4303 " fill="none" stroke="#7f7f7f" stroke-width="0.22417" stroke-linecap="round"/><path d="M 90.4811 330.3164 L 95.9805 330.4737 " fill="none" stroke="#7f7f7f" stroke-width="0.22417" stroke-linecap="round"/></g><path d="M 157.1408 277.4095 L 88.727 274.3253 L 88.4466 262.6893 L 155.0379 264.0913 Z " fill="#000000" stroke="none" stroke-width="1" stroke-linecap="round"/><g><g><g><path d="M 166.1114 271.3748 L 171.8579 265.5336 L 170.3172 301.2131 L 162.3461 295.7206 L 160.2777 270.1972 Z " fill="#363a37" stroke="none" stroke-width="1.16316" stroke-linecap="round"/><path d="M 164.4723 252.4127 L 163.9724 267.097 L 144.5599 261.5358 L 145.0548 236.1927 Z " fill="#000000" stroke="none" stroke-width="0.87338" stroke-linecap="round"/><path d="M 169.6849 280.3724 L 168.6727 310.1083 L 164.4535 309.965 L 165.4654 280.2288 Z " fill="url(#color-39-,0,0,1,-7.15579,-7.57212)" stroke="url(#color-40-,0,0,1,-7.15579,-7.57212)" stroke-width="0.20059" stroke-linecap="round"/><path d="M 180.6877 261.8849 C 180.6561 262.8124 180.4225 263.6474 180.0695 264.2455 C 179.7165 264.8435 179.2438 265.2047 178.7377 265.1876 C 178.2313 265.1702 177.7844 264.7777 177.4729 264.1572 C 177.1611 263.5364 176.985 262.6874 177.0167 261.7599 C 177.0481 260.8324 177.2816 259.9974 177.6346 259.3993 C 177.9876 258.8013 178.4604 258.4398 178.9667 258.4572 C 179.4728 258.4743 179.9198 258.8669 180.2316 259.4876 C 180.5431 260.1084 180.7192 260.9574 180.6877 261.8849 Z " fill="#ff0000" stroke="none" stroke-width="0.78683" stroke-linecap="butt"/><path d="M 167.0916 230.3501 L 174.5179 238.9338 L 174.5016 250.2041 L 178.3895 243.9658 L 177.6142 255.9458 L 174.0727 262.8082 L 173.7104 273.4544 L 168.4574 283.8119 L 158.693 282.7444 L 157.2611 242.0219 Z " fill="#000000" stroke="none" stroke-width="0.87338" stroke-linecap="round"/><path d="M 181.8236 240.6553 L 181.1919 262.8085 L 179.5912 259.4462 L 177.8699 259.6326 L 176.4113 262.8907 L 177.1734 240.4972 Z " fill="#000000" stroke="none" stroke-width="0.87338" stroke-linecap="round"/></g><path d="M 164.2948 326.2584 L 164.2948 326.2584 L 164.2794 326.0764 L 164.2794 326.0764 Z " fill="#cccccc" stroke="none" stroke-width="4.5" stroke-linecap="butt"/></g><path d="M 176.0667 311.8968 L 158.9633 310.9155 L 152.5144 294.0924 L 147.6077 262.409 L 176.0667 265.9138 Z " fill="#353935" stroke="none" stroke-width="1" stroke-linecap="round"/></g><g stroke-linecap="butt"><path d="M 148.3087 281.195 L 135.6914 281.195 L 135.6914 258.7643 L 148.3087 258.7643 Z " fill="#cccc00" stroke="#000000" stroke-width="1"/><path d="M 140.085 261.2398 C 140.4018 261.5566 140.5981 261.9968 140.5981 262.4791 C 140.5981 262.9613 140.4018 263.4015 140.085 263.7184 C 139.7682 264.0352 139.328 264.2315 138.8457 264.2315 C 138.3634 264.2315 137.9232 264.0352 137.6064 263.7184 C 137.2896 263.4015 137.0933 262.9613 137.0933 262.4791 C 137.0933 261.9968 137.2896 261.5566 137.6064 261.2398 C 137.9232 260.9229 138.3634 260.7267 138.8457 260.7267 C 139.328 260.7267 139.7682 260.9229 140.085 261.2398 Z " fill="#ff0000" stroke="none" stroke-width="1"/></g><g><path d="M 130.5724 292.9588 L 115.4078 292.5856 L 116.3376 254.778 L 131.5022 255.1509 Z " fill="url(#color-41-,0,0,1,-7.15579,-7.57212)" stroke-width="0.29645" stroke-linecap="butt" stroke="none"/><path d="M 131.6435 293.6789 L 121.5914 296.7196 L 114.1803 293.7975 L 114.0533 290.5063 L 131.7108 290.9406 Z " fill="#666666" stroke-width="0.25105" stroke-linecap="round" stroke="none"/><path d="M 128.7434 291.2507 L 127.2894 291.2151 L 128.158 255.9001 L 129.6121 255.936 Z " fill="#666666" stroke-width="0.29645" stroke-linecap="butt" stroke="none"/><path d="M 125.6275 291.1742 L 124.3812 291.1436 L 125.2599 255.4131 L 126.5062 255.4439 Z " fill="#666666" stroke-width="0.29645" stroke-linecap="butt" stroke="none"/><path d="M 131.1971 250.083 C 132.5166 250.4963 133.5789 251.9874 133.4839 253.2572 C 133.4048 254.321 132.4305 254.8708 130.7807 255.3949 C 129.1309 255.9189 126.8637 256.2122 124.3706 256.1508 C 121.8777 256.0897 119.6276 255.6851 118.0056 255.0806 C 116.3835 254.4763 115.3896 253.6728 115.4109 252.8128 C 115.4319 251.9526 116.4643 251.1989 118.1138 250.6749 C 119.7636 250.1511 122.3557 250.0311 124.5239 249.919 C 126.7589 249.8035 129.1413 249.2385 131.1971 250.083 Z " fill="#b2b2b2" stroke-width="0.31402" stroke-linecap="round" stroke="none"/><path d="M 117.5258 290.9751 L 116.2795 290.9443 L 117.1479 255.6293 L 118.3945 255.6601 Z " fill="#666666" stroke-width="0.29645" stroke-linecap="butt" stroke="none"/><path d="M 110.6415 258.1715 L 110.6415 258.1715 L 110.6365 258.379 L 110.6365 258.379 Z " fill="#666666" stroke-width="0.29645" stroke-linecap="butt" stroke="none"/><path d="M 132.7072 256.8433 L 115.0498 256.409 L 115.1316 253.0853 L 131.7607 253.0783 L 130.8449 248.0673 L 135.7076 253.1756 Z " fill="#666666" stroke-width="0.29645" stroke-linecap="round" stroke="none"/><path d="M 123.669 278.6382 L 117.8525 278.4952 L 118.1079 268.1086 L 123.9245 268.2516 Z " fill="#000000" stroke-width="0.29645" stroke-linecap="butt" stroke="none"/><path d="M 121.35 271.2002 C 121.7145 271.6978 121.9304 272.3783 121.9122 273.1236 C 121.8939 273.8691 121.6447 274.5381 121.2561 275.0173 C 120.8686 275.4976 120.3417 275.7872 119.7683 275.7732 C 119.1949 275.7592 118.6832 275.4438 118.3196 274.9452 C 117.9551 274.4473 117.7392 273.7668 117.7574 273.0215 C 117.7759 272.2763 118.0252 271.6073 118.4135 271.1278 C 118.801 270.6475 119.3278 270.3579 119.9012 270.3722 C 120.4746 270.3862 120.9866 270.7013 121.35 271.2001 Z " fill="#ff0000" stroke-width="0.29645" stroke-linecap="butt" stroke="none"/><path d="M 94.8102 272.7482 C 94.8665 272.7495 94.9016 272.7504 94.9016 272.7504 C 94.9016 272.7504 94.8665 272.7495 94.8102 272.7482 C 94.7536 272.7468 94.6756 272.7448 94.5901 272.7428 C 94.5043 272.7406 94.4263 272.7386 94.3697 272.7375 C 94.3134 272.7361 94.2783 272.7353 94.2783 272.7353 C 94.2783 272.7353 94.3133 272.7361 94.3697 272.7375 C 94.4263 272.7386 94.5043 272.7406 94.5901 272.7428 C 94.6756 272.7448 94.7536 272.7468 94.8102 272.7482 Z " fill="#ff0000" stroke-width="0.29645" stroke-linecap="butt" stroke="none"/></g><g stroke-linecap="butt"><path d="M 133.208 274.4655 L 122.273 274.4655 L 122.273 265.353 L 133.208 265.353 Z " fill="url(#color-42-,0,0,1,-7.15579,-7.57212)" stroke-width="0.81818" stroke="none"/><path d="M 112.8546 265.353 L 122.6681 265.353 L 122.6681 274.4655 L 112.8546 274.4655 Z " fill="url(#color-43-,0,0,1,-7.15579,-7.57212)" stroke-width="0.79778" stroke="none"/></g><g stroke-linecap="butt"><g><path d="M 110.1761 259.4436 C 112.2722 261.5398 113.5696 264.4342 113.5696 267.6286 C 113.5696 270.823 112.2723 273.7174 110.1761 275.8133 C 108.08 277.9095 105.1855 279.2068 101.9911 279.2068 C 98.7967 279.2068 95.9023 277.9095 93.8064 275.8133 C 91.7103 273.7174 90.4129 270.823 90.4129 267.6286 C 90.4129 264.4342 91.7103 261.5398 93.8064 259.4436 C 95.9023 257.3478 98.7967 256.0504 101.9911 256.0504 C 105.1855 256.0504 108.0799 257.3478 110.1761 259.4436 Z " fill="#000000" stroke-width="0.10389" stroke="none"/><path d="M 91.1257 267.54 C 91.1257 261.7285 96.0223 257.0175 102.0629 257.0175 C 108.1035 257.0175 112.586 261.7778 112.586 267.5891 C 112.586 273.4009 108.1029 278.0626 102.0626 278.0626 C 96.0223 278.0626 91.1257 273.3515 91.1257 267.54 Z " fill="url(#color-44-,0,0,1,-7.15579,-7.57212)" stroke-width="0.10389" stroke="none"/><path d="M 104.5025 261.357 C 104.9436 261.5305 107.1886 264.3453 107.3652 264.9919 C 107.5422 265.6384 105.1732 268.2365 104.6511 268.4529 C 104.1293 268.6691 100.4482 267.3676 100.1465 266.9714 C 99.8451 266.5755 99.5103 262.6776 99.909 262.2144 C 100.3083 261.7515 104.0618 261.1834 104.5025 261.357 Z " fill="#000000" stroke-width="0.10389" stroke="none"/><path d="M 96.9815 273.2209 C 96.2968 274.1206 95.3875 275.7177 94.2873 275.2887 C 92.693 274.6615 91.3788 272.7484 91.3889 271.0361 C 91.3965 269.704 93.2439 268.9972 94.4911 268.5603 C 96.1745 267.9712 100.7597 266.4213 99.7777 268.1381 Z " fill="url(#color-45-,0,0,1,-7.15579,-7.57212)" stroke-width="0.10389" stroke="none"/><path d="M 106.8149 277.8938 L 102.5317 279.0607 C 101.6807 278.7439 101.7884 277.0347 102.064 276.0172 C 102.4846 274.0772 102.9172 271.1071 104.5398 270.5264 C 105.7668 270.0898 107.1637 272.5777 107.5545 274.0508 C 108.0093 275.3156 106.8149 277.8938 106.8149 277.8938 Z " fill="url(#color-46-,0,0,1,-7.15579,-7.57212)" stroke-width="0.10389" stroke="none"/><path d="M 91.2431 263.5827 L 94.8155 259.1027 C 95.5588 258.6109 96.728 258.9768 97.3892 259.5308 C 98.2903 260.172 99.7169 261.4632 99.0493 262.3417 C 97.8902 263.8712 95.6584 264.1729 93.694 264.4745 C 92.8363 264.6069 91.2431 263.5826 91.2431 263.5826 Z " fill="url(#color-47-,0,0,1,-7.15579,-7.57212)" stroke-width="0.10389" stroke="none"/><path d="M 111.9092 263.0553 C 112.8184 265.1904 112.8782 267.7949 112.4189 270.1044 C 112.2927 270.7339 111.1353 269.7682 110.6567 269.376 C 109.5483 268.3596 107.9958 267.4489 107.7586 265.9682 C 107.5988 264.9793 108.9979 263.9587 109.7247 263.6816 Z " fill="url(#color-48-,0,0,1,-7.15579,-7.57212)" stroke-width="0.10389" stroke="none"/><path d="M 101.8291 256.7508 L 105.0507 256.875 L 107.7788 258.3689 C 107.7788 258.3689 107.7337 259.3158 107.3975 259.5376 C 106.5025 260.13 105.3226 261.1669 104.2342 260.8854 C 103.0678 260.5685 102.4055 259.154 101.7435 258.0891 C 101.5397 257.6884 101.829 256.7508 101.829 256.7508 Z " fill="url(#color-49-,0,0,1,-7.15579,-7.57212)" stroke-width="0.10389" stroke="none"/></g><path d="M 104.6063 263.3017 C 104.9063 263.602 105.0922 264.0164 105.0922 264.4743 C 105.0922 264.9319 104.9063 265.3463 104.6063 265.6466 C 104.306 265.9466 103.8916 266.1325 103.434 266.1325 C 102.9761 266.1325 102.5617 265.9466 102.2614 265.6466 C 101.9614 265.3463 101.7758 264.9319 101.7758 264.4743 C 101.7758 264.0164 101.9614 263.602 102.2614 263.3017 C 102.5617 263.0017 102.9761 262.8161 103.434 262.8161 C 103.8915 262.8161 104.306 263.0017 104.6063 263.3017 Z " fill="url(#color-50-,0,0,1,-7.15579,-7.57212)" stroke-width="0.2957" stroke="none"/></g></g></g><path d="" fill="#cccccc" stroke="none" stroke-width="1" stroke-linecap="butt" transform="matrix(1,0,0,1,-7.15579,-7.57212)"/><path d="M 42.8594 185.9784 C 45.951 179.2511 60.2879 187.3657 65.4318 193.918 C 71.621 201.8804 69.1085 213.5713 71.6903 223.5981 C 74.4431 234.3528 82.2563 245.0234 79.9868 255.8973 C 78.498 262.979 68.9139 272.119 63.3867 268.2365 C 52.7831 261.5031 50.3474 246.5431 47.5458 234.5516 C 43.8052 218.7315 36.3907 199.4416 42.8597 185.9784 Z " fill="#000000" stroke="#000000" stroke-width="1.5" stroke-linecap="round"/><path d="M 90.4774 130.5223 C 95.1441 129.0724 101.8955 135.8703 100.7485 140.9882 C 98.2357 151.9274 87.228 159.1122 81.2017 168.3916 C 73.8753 178.8109 71.344 193.5381 60.6022 200.0949 C 54.4932 203.8125 41.0375 200.539 41.0583 193.8216 C 40.6548 179.2001 50.7408 165.8664 59.7879 154.5919 C 67.8899 144.4299 78.0564 134.296 90.4774 130.5223 Z " fill="#000000" stroke="#000000" stroke-width="1.5" stroke-linecap="round"/><path d="M 88.4519 130.9482 C 93.0954 129.2561 102.9312 133.0962 101.6485 137.7525 C 98.7479 148.2549 86.0678 153.1838 80.0336 162.4443 C 72.392 173.2691 71.1112 189.1075 60.8581 197.6587 C 55.8799 201.8086 41.1205 201.6544 41.3148 195.3657 C 42.1571 178.9133 53.4891 164.2696 62.9655 151.4008 C 69.4191 142.6391 78.3387 134.6355 88.4519 130.9485 Z " fill="#ffffff" stroke="none" stroke-width="1.00573" stroke-linecap="round"/><path d="M97.64806,179.21525c0,0 -6.82276,-13.48944 -7.34932,-20.20319c-0.64424,-8.21395 4.34929,-18.04717 4.34929,-18.04717c0,0 10.84942,-0.9516 17.31358,1.31957c4.36576,1.53393 10.43672,8.43052 10.43672,8.43052v27.75027z" fill="#ffffff" stroke="none" stroke-width="0" stroke-linecap="butt" transform="matrix(1,0,0,1,-7.15579,-7.57212)"/><path d="M 40.1585 202.0349 C 39.7531 195.9463 41.5371 186.9693 47.3344 183.7384 C 52.1348 181.6582 59.3825 186.3827 61.9696 191.1061 C 67.0017 200.308 63.8241 212.2022 67.3227 222.1584 C 70.3679 232.5449 79.7451 240.7389 81.4064 251.5261 C 82.1968 256.7292 77.1504 261.8768 72.7375 264.7524 C 69.2761 267.0039 62.7869 268.5303 59.2891 265.7293 C 54.6022 261.9755 52.983 255.0834 51.3632 249.202 C 47.1073 233.7733 41.2427 218.1402 40.1585 202.0349 Z " fill="#ffffff" stroke="none" stroke-width="1.00573" stroke-linecap="round"/><g><g stroke-linecap="round"><path d="M 95.8353 272.0105 C 98.4353 273.3824 99.5195 277.6005 100.8749 280.5235 C 102.1725 283.3545 104.3873 286.5481 104.0217 289.2922 C 103.7017 291.6881 101.2251 293.6839 99.1211 292.6824 C 96.564 291.4635 95.0723 287.5426 93.5316 284.6435 C 92.0282 281.4636 89.5269 277.6939 90.1415 274.7078 C 90.6636 272.1692 93.6688 270.7992 95.8353 272.0105 Z " stroke-width="0.60163" fill="#363a36" stroke="none"/><path d="M 88.9647 275.1396 C 91.5645 276.5109 92.649 280.7296 94.0044 283.6526 C 95.3017 286.4834 97.5165 289.6769 97.1511 292.4211 C 96.8312 294.8172 94.3546 296.8127 92.2506 295.8115 C 89.6934 294.5926 88.2018 290.6717 86.6611 287.7726 C 85.1577 284.5924 82.6564 280.8229 83.2709 277.8366 C 83.793 275.2982 86.7982 273.9283 88.9647 275.1395 Z " stroke-width="0.60163" fill="#363a36" stroke="none"/><path d="M 81.2418 278.3073 C 83.8421 279.679 84.9263 283.8974 86.2815 286.8204 C 87.5794 289.6511 89.7938 292.8447 89.4285 295.5891 C 89.1089 297.9847 86.6322 299.9808 84.5282 298.9792 C 81.9708 297.7604 80.4792 293.8395 78.9385 290.9403 C 77.4351 287.7602 74.9337 283.9907 75.5483 281.0046 C 76.0701 278.466 79.0759 277.0958 81.2418 278.3073 Z " stroke-width="0.60163" fill="#363a36" stroke="none"/><path d="M 73.9594 282.5162 C 76.5594 283.8881 77.6439 288.1065 78.999 291.0298 C 80.2966 293.8603 82.5114 297.0538 82.1458 299.7982 C 81.8261 302.1941 79.3495 304.1896 77.2455 303.1884 C 74.6881 301.9698 73.1965 298.0489 71.6558 295.1497 C 70.1526 291.9693 67.651 288.2001 68.2659 285.2138 C 68.788 282.6752 71.7931 281.3052 73.9594 282.5165 Z " stroke-width="0.60163" fill="#363a36" stroke="none"/></g><g stroke-linecap="round"><path d="M 79.7406 259.3054 C 87.5477 265.1752 88.9765 264.6142 89.823 264.9885 C 93.2056 266.4802 96.8219 268.1697 99.1034 271.0779 C 101.2571 273.8296 103.033 279.8102 102.6063 280.819 C 101.9892 281.7541 98.5623 277.446 96.661 275.6285 C 95.4184 274.4453 94.1723 273.2548 92.9653 272.0329 C 91.7103 270.7633 90.4685 269.4727 89.2673 268.1499 C 88.6199 267.436 87.2701 266.7558 87.4167 265.9214 Z " fill="none" stroke="#353937" stroke-width="1.83172"/><path d="M 76.3615 251.0559 C 77.4477 253.237 78.3 255.5637 79.6728 257.5827 C 80.662 259.0385 81.8884 260.3431 83.1417 261.5818 C 85.7409 264.1501 88.9975 266.103 91.2244 268.9988 C 93.8883 272.4734 97.1595 276.463 97.784 281.0758 C 97.9808 283.0697 94.9602 284.058 93.274 285.5241 C 91.0881 287.4078 88.6142 288.9796 86.125 290.4471 C 82.8142 292.4003 79.6206 295.7543 75.7053 295.7338 C 72.9054 295.6802 71.114 292.4166 69.1847 290.2598 C 68.0435 288.9869 67.48 287.2746 66.8609 285.6795 C 66.2312 284.0524 65.6471 282.3676 65.4531 280.6348 C 65.2602 278.9211 65.8243 277.1838 65.7099 275.4651 C 65.5913 273.6824 65.3841 271.8613 64.76 270.1882 C 62.9627 265.3754 60.6263 260.7642 58.4754 256.0995 C 57.7591 254.5453 55.8003 253.0968 56.1516 251.5194 C 63.5257 245.0425 67.291 242.6797 72.0657 243.1569 C 74.9337 243.6397 74.9124 248.4335 76.3614 251.0559 Z " fill="#ffffff" stroke="#ffffff" stroke-width="1.83172"/></g><path d="M 87.544 268.0385 C 87.3988 268.0343 87.3085 268.0312 87.3085 268.0312 C 87.3085 268.0312 87.3988 268.0343 87.544 268.0385 C 87.6926 268.0433 87.8925 268.0495 88.1152 268.0565 C 88.3375 268.0635 88.5377 268.0694 88.6863 268.0741 C 88.8316 268.0784 88.9218 268.0814 88.9218 268.0814 C 88.9218 268.0814 88.8315 268.0784 88.6863 268.0741 C 88.5377 268.0694 88.3375 268.0635 88.1152 268.0565 C 87.8925 268.0495 87.6926 268.0433 87.544 268.0385 Z " fill="#eac18d" stroke="none" stroke-width="1.15123" stroke-linecap="butt"/><path d="M 71.0061 275.0324 C 73.1923 271.0821 77.1303 267.3569 81.5497 266.4005 C 83.984 265.9351 85.6026 269.5212 87.1347 271.5254 C 88.9903 273.9588 91.2361 276.6834 91.6674 279.871 C 91.8033 281.2488 89.7164 281.9316 88.5509 282.9446 C 87.0407 284.2464 85.3312 285.3324 83.6111 286.3462 C 81.3234 287.6963 79.0733 290.3325 76.4114 289.9997 C 74.1613 289.6865 72.8258 286.4699 72.011 283.8749 C 70.8917 281.1914 69.5061 277.7858 71.0064 275.0327 Z " fill="#000000" stroke="#000000" stroke-width="1.26571" stroke-linecap="round"/></g><g stroke-linecap="butt"><path d="M137.98919,100.21879c12.71317,1.91623 22.17015,13.91921 21.12274,26.80935c-1.04737,12.89014 -12.2025,21.7863 -24.91569,19.87007c-12.71317,-1.91623 -23.19731,-26.76834 -21.24415,-50.80584c1.04738,-12.89015 25.03708,4.12642 25.03708,4.12642z" data-paper-data="{&quot;origPos&quot;:null}" fill="#ffd499" stroke="none" stroke-width="0" transform="matrix(1,0,0,1,-7.15579,-7.57212)"/><path d="M 141.5385 128.0625 C 108.4153 127.5735 98.8948 117.0692 94.3403 102.1249 C 89.7857 87.1807 90.3529 77.4261 96.7928 63.6301 C 103.2329 49.8343 105.4275 48.2244 114.6765 48.641 C 123.177 49.024 143.8399 55.9809 151.3172 62.0751 C 167.2001 75.0196 167.9804 94.3782 169.2091 108.7594 C 170.357 122.1952 158.6235 128.3145 141.5385 128.0625 Z " data-paper-data="{&quot;origPos&quot;:null}" fill="#ffffff" stroke="#000000" stroke-width="4.5"/><path d="M102.33931,103.8888c0,0 -1.1418,-5.40169 -1.50311,-8.34329c-0.44085,-3.58915 -0.55231,-8.39084 -0.55231,-8.39084l23.6314,1.16982l5.74951,17.02868z" data-paper-data="{&quot;origPos&quot;:null,&quot;origRot&quot;:0}" fill="#ff0000" stroke="none" stroke-width="0" transform="matrix(1,0,0,1,-7.15579,-7.57212)"/><path d="M105.63495,111.44668l-2.35265,-5.03096l15.97249,1.3205l0.95241,5.09974z" data-paper-data="{&quot;origPos&quot;:null,&quot;origRot&quot;:0}" fill="#ff0000" stroke="none" stroke-width="0" transform="matrix(1,0,0,1,-7.15579,-7.57212)"/><path d="M122.83157,119.99911c-7.99483,-6.35553 -10.99376,-13.64074 -10.29395,-23.82996c0.35273,-5.1355 4.84939,-10.11001 9.99685,-10.14669c10.94119,-0.07794 44.44122,-3.44789 44.44122,-3.44789c0,0 6.17126,14.15555 7.98075,22.97894c1.19371,5.82089 -0.2854,14.5452 -0.2854,14.5452c0,0 -44.19908,5.97415 -51.8395,-0.09959z" data-paper-data="{&quot;origPos&quot;:null}" fill="#000000" stroke="none" stroke-width="0" transform="matrix(1,0,0,1,-7.15579,-7.57212)"/><path d="M 113.2076 57.6714 C 111.0192 54.9822 106.0833 53.3577 106.708 51.3282 C 107.3327 49.2988 111.4681 50.3797 111.4681 50.3797 C 113.5231 50.8322 116.9188 52.9755 119.3265 55.2589 C 121.7344 57.5427 126.1095 65.5785 126.1104 66.7965 C 126.1109 68.0145 124.5214 69.7102 122.9779 69.5395 C 122.3095 69.4655 115.396 60.3605 113.2076 57.6714 Z " data-paper-data="{&quot;origPos&quot;:null}" fill="url(#color-51-,0,0,1,-7.15579,-7.57212)" stroke="none" stroke-width="0.5"/><path d="M106.63825,112.60186l9.5589,1.0125l1.01275,5.40466z" data-paper-data="{&quot;origPos&quot;:null}" fill="#000000" stroke="none" stroke-width="0" transform="matrix(1,0,0,1,-7.15579,-7.57212)"/><path d="M124.08669,88.21281c4.0261,0.01646 8.40481,-0.43662 8.39656,1.57643c-0.00822,2.01305 -3.26497,2.36992 -7.29107,2.35349c-4.02609,-0.01646 -7.32448,8.43209 -7.31624,6.41904c0.00822,-2.01305 2.18464,-10.36542 6.21077,-10.34896z" data-paper-data="{&quot;origPos&quot;:null,&quot;origRot&quot;:0}" fill="#ffffff" stroke="none" stroke-width="0" transform="matrix(1,0,0,1,-7.15579,-7.57212)"/></g><path d="M 191.6704 217.1622 C 184.9061 219.5578 180.0022 204.5233 180.9802 197.0771 C 182.3011 187.0632 192.308 180.6015 197.5893 171.6959 C 203.2654 162.1552 205.3106 149.089 214.6154 143.0221 C 220.6829 139.0788 233.9221 139.4175 235.0731 146.0732 C 237.7864 158.3378 228.8707 170.5071 222.3899 181.0697 C 214.1612 194.4844 205.6111 211.5542 191.6704 217.1622 Z " fill="#000000" stroke="#000000" stroke-width="1.5" stroke-linecap="round"/><path d="M 204.3082 208.9214 C 200.281 213.506 192.6621 218.5781 186.2823 216.7514 C 181.4201 214.8187 179.652 206.3495 181.172 201.1834 C 184.1393 191.1237 194.8085 184.9805 199.3925 175.4749 C 204.6015 165.9873 203.7881 153.5606 210.2577 144.7706 C 213.3856 140.5382 220.594 140.4804 225.7458 141.5764 C 229.7836 142.44 235.4452 145.96 235.9297 150.415 C 236.5782 156.3844 232.8387 162.3958 229.815 167.6943 C 221.8883 181.5988 214.9527 196.7867 204.3082 208.9214 Z " fill="#ffffff" stroke="none" stroke-width="1.00573" stroke-linecap="round"/><path d="M 227.3892 160.8402 C 224.1947 162.9386 217.4117 161.6478 216.9286 158.1858 C 215.5544 150.5535 221.3026 143.4421 223.2543 136.1457 C 224.1291 132.8825 223.7823 129.2011 224.8051 126.1127 C 226.1958 121.9173 226.4942 115.6243 230.7092 114.2109 C 235.1182 112.719 239.6131 117.5197 243.3156 120.3788 C 246.4281 122.7848 250.4171 125.8118 251.2698 129.816 C 251.6326 132.9689 248.4971 135.7338 246.3148 138.0854 C 243.9972 140.5836 239.8024 141.0095 237.5887 143.6454 C 233.3232 148.7344 232.9307 157.1608 227.3892 160.8402 Z " fill="#ffffff" stroke="#ffffff" stroke-width="2.41239" stroke-linecap="round"/><path d="M 221.1806 127.763 C 216.8512 125.3004 213.0968 121.6074 211.6663 117.1008 C 210.7318 115.056 213.6823 111.4186 215.5051 112.0343 C 218.2952 112.9935 223.0768 115.6936 225.6053 117.4171 C 227.6412 118.8002 225.5274 120.2661 227.8033 121.2334 C 229.616 121.5744 231.3953 122.2756 232.8137 123.5317 C 233.7965 124.3908 235.1765 125.6542 235.01 126.7615 C 234.844 127.8682 233.2528 129.0351 231.9625 129.2042 C 228.4257 129.6615 224.3218 129.572 221.1803 127.7627 Z " fill="#353935" stroke="none" stroke-width="1.20619" stroke-linecap="round"/><path d="M 233.2786 137.3583 C 231.1365 136.6829 229.3014 134.981 227.8263 132.8963 C 226.7263 131.6915 225.3631 130.0344 225.7405 127.7148 C 226.2774 124.6306 227.7049 119.9863 230.0895 119.232 C 233.2416 118.2429 235.444 121.7589 237.8991 123.4532 C 240.7817 125.4838 245.6012 126.1303 246.702 130.3911 C 247.3366 132.9207 243.1801 136.34 240.7669 137.6707 C 238.2064 139.0838 235.5896 138.1176 233.2786 137.3583 Z " fill="#000000" stroke="none" stroke-width="1.67373" stroke-linecap="round"/><g stroke-linecap="round"><path d="M 223.7663 122.1564 C 223.2936 119.5525 225.6799 116.4408 226.9983 113.8573 C 228.283 111.3656 229.3154 108.0225 231.4626 106.7572 C 233.3378 105.653 236.1276 106.2985 236.5866 108.3458 C 237.1435 110.8345 235.1942 114.0693 233.9961 116.7714 C 232.5782 119.6027 231.2971 123.4686 228.8396 124.6922 C 226.7516 125.7325 224.1115 124.3645 223.7663 122.1564 Z " stroke-width="0.54163" fill="#353935" stroke="none"/><path d="M 229.8809 125.4908 C 229.4082 122.8868 231.7946 119.7751 233.1126 117.1917 C 234.3974 114.6999 235.43 111.3569 237.5769 110.0912 C 239.4521 108.9873 242.242 109.6328 242.701 111.6802 C 243.2581 114.1688 241.3088 117.4036 240.1108 120.1057 C 238.6929 122.937 237.4115 126.803 234.9542 128.0266 C 232.8662 129.0668 230.2258 127.6988 229.8809 125.4908 Z " stroke-width="0.54163" fill="#353935" stroke="none"/><path d="M 236.3587 128.9844 C 235.8859 126.3804 238.2723 123.2687 239.5904 120.685 C 240.8751 118.1935 241.9077 114.8505 244.0546 113.5848 C 245.9299 112.4809 248.7194 113.1264 249.1787 115.174 C 249.7358 117.6624 247.7866 120.8972 246.5885 123.5996 C 245.1706 126.4309 243.8892 130.2965 241.4319 131.5201 C 239.3439 132.5606 236.7035 131.1924 236.3586 128.9843 Z " stroke-width="0.54163" fill="#353935" stroke="none"/><path d="M 243.4672 131.7806 C 242.9945 129.177 245.3809 126.0653 246.6989 123.4815 C 247.9839 120.9898 249.0163 117.6467 251.1632 116.3814 C 253.0384 115.2772 255.828 115.9229 256.2875 117.9703 C 256.8444 120.459 254.8952 123.6935 253.6974 126.3959 C 252.2792 129.2275 250.9981 133.0931 248.5405 134.3167 C 246.4525 135.3569 243.8121 133.9889 243.4672 131.7809 Z " stroke-width="0.54163" fill="#353935" stroke="none"/></g></g></g></svg>