<svg xmlns="http://www.w3.org/2000/svg" xmlns:xlink="http://www.w3.org/1999/xlink" version="1.1" width="144.9397" height="271.56519" viewBox="0,0,144.9397,271.56519"><g><g data-paper-data="{&quot;isPaintingLayer&quot;:true}" fill-rule="nonzero" stroke-linejoin="miter" stroke-miterlimit="10" stroke-dasharray="" stroke-dashoffset="0" style="mix-blend-mode: normal"><g><path d="M 70.8534 149.25 C 70.8534 156.4654 59.322 162.3147 45.0973 162.3147 C 38.718 162.3147 37.173 161.1383 32.6743 159.1898 C 27.1416 156.7935 19.3411 153.2295 19.3411 149.25 C 19.3411 146.4044 25.4273 143.7713 28.4722 141.6257 C 33.1481 138.3307 36.4824 136.1853 45.0973 136.1853 C 59.322 136.1853 70.8534 142.0346 70.8534 149.25 Z " fill="#2e2e2e" stroke="#000000" stroke-linecap="butt" stroke-width="3.5"/><g data-paper-data="{&quot;index&quot;:null}" stroke-linecap="butt"><path d="M 103.4168 148.8185 C 104.1953 145.0746 102.4781 143.6227 104.2864 143.3694 C 106.0028 143.129 105.2361 145.2121 106.9395 148.2825 C 109.2519 152.4506 113.9108 158.7471 114.9824 166.3965 C 116.8433 179.6808 115.0717 190.9094 111.0253 191.4762 C 106.979 192.043 102.1903 181.7335 100.3294 168.4491 C 99.3001 161.1015 102.4533 153.4521 103.4168 148.8185 Z " fill="#000000" stroke-width="3.5" stroke="#000000"/><path d="M 109.8479 177.1107 C 114.2364 177.1107 117.7939 180.4229 117.7939 184.5088 C 117.7939 185.7123 120.2253 189.0407 119.6776 190.0451 C 118.366 192.4505 112.9437 191.9068 109.8479 191.9068 C 105.4595 191.9068 101.9019 188.5946 101.9019 184.5088 C 101.9019 180.4229 105.4595 177.1107 109.8479 177.1107 Z " fill="#ffc885" stroke-width="3.5" stroke="#000000"/></g><g stroke-linecap="butt"><path d="M 108.6655 176.8367 C 108.6655 206.3454 101.6417 230.267 77.4294 230.267 C 53.2171 230.267 44.0012 205.2494 44.0012 175.7407 C 44.0012 146.232 53.2171 123.4065 77.4294 123.4065 C 101.6417 123.4065 108.6655 147.328 108.6655 176.8367 Z " fill="#000000" stroke-width="3.5" stroke="#000000"/><path d="M 107.5695 205.3329 C 107.5695 208.8134 94.0673 211.6349 76.0594 211.6349 C 58.0515 211.6349 45.6453 208.8134 45.6453 205.3329 C 45.6453 204.4593 43.6868 203.6272 45.1424 202.8708 C 49.4859 200.6137 62.5714 199.0308 76.0594 199.0308 C 85.8933 199.0308 98.2196 199.8722 103.9011 201.2029 C 108.6236 202.3089 107.5695 203.753 107.5695 205.3328 Z " fill="#9c9c9c" stroke-width="3.5" stroke="#000000"/><path d="M 110.3008 182.3168 C 110.3008 185.7973 95.6253 188.6188 76.0526 188.6188 C 56.48 188.6188 42.9957 185.7973 42.9957 182.3168 C 42.9957 181.4432 40.8671 180.6111 42.4491 179.8547 C 47.1701 177.5976 61.3926 176.0147 76.0526 176.0147 C 86.7411 176.0147 100.1385 176.8561 106.3137 178.1868 C 111.4465 179.2928 110.3008 180.7369 110.3008 182.3167 Z " fill="#9c9c9c" stroke-width="3.5" stroke="#000000"/><path d="M 109.7546 157.6566 C 109.7546 161.1372 95.3137 163.9587 76.054 163.9587 C 56.7943 163.9587 43.5256 161.1372 43.5256 157.6566 C 43.5256 156.783 41.431 155.951 42.9878 155.1946 C 47.6333 152.9375 61.6284 151.3546 76.054 151.3546 C 86.5715 151.3546 99.7547 152.196 105.8312 153.5267 C 110.882 154.6327 109.7546 156.0768 109.7546 157.6566 Z " fill="#9c9c9c" stroke-width="3.5" stroke="#000000"/></g><path d="M 142.3934 74.728 C 142.3934 112.9619 110.9093 143.9566 72.0717 143.9566 C 33.2341 143.9566 1.75 112.9619 1.75 74.728 C 1.75 36.4941 33.2341 5.4994 72.0717 5.4994 C 110.9093 5.4994 142.3934 36.4941 142.3934 74.728 Z " fill="#ffc885" stroke="#000000" stroke-linecap="butt" stroke-width="3.5"/><path d="M 143.1897 33.8081 C 143.1897 44.0582 142.1249 46.2382 126.0372 45.0176 C 121.7779 44.6945 114.7487 47.2064 107.4205 46.4052 C 105.9994 46.2498 104.5669 41.2992 103.1413 41.4288 C 100.0076 41.7139 96.9066 47.301 94.0297 46.3469 C 91.8765 45.6328 89.8488 41.298 88.0269 41.1478 C 83.8618 40.8044 79.0465 51.5736 74.7185 51.612 C 74.2532 51.6161 55.6958 42.77 55.2353 42.8502 C 31.7415 46.9379 11.1312 90.9148 5.1183 90.7422 C 1.4581 90.6371 8.3811 50.3716 8.3811 43.6722 C 8.3811 37.9663 11.4175 36.3734 15.79 31.9119 C 16.9937 30.6836 15.5909 26.1434 17.528 24.982 C 18.247 24.5508 22.1379 25.0088 23.4474 23.492 C 24.4797 22.2964 22.9572 19.0813 23.5444 18.6796 C 25.8884 17.0759 30.0835 17.1264 32.7766 15.5519 C 43.8598 9.072 56.185 1.75 72.7714 1.75 C 111.6624 1.75 143.1897 16.1029 143.1897 33.8082 Z " fill="#000000" stroke="#000000" stroke-linecap="butt" stroke-width="3.5"/><path d="M 83.4574 62.5782 L 81.8134 83.9503 " fill="none" stroke="#000000" stroke-linecap="round" stroke-width="3.5"/><path d="M 99.3495 62.5782 L 98.2535 82.8543 " fill="none" stroke="#000000" stroke-linecap="round" stroke-width="3.5"/><path d="M 54.9613 104.2264 L 44.5493 103.6784 L 53.3173 96.0064 L 44.5493 96.0064 " fill="none" stroke="#000000" stroke-linecap="round" stroke-width="3.5"/><path d="M 119.6256 102.0344 L 107.5695 102.0344 L 117.4336 92.7184 L 108.6655 92.7184 " fill="none" stroke="#000000" stroke-linecap="round" stroke-width="3.5"/><path d="M 73.0454 123.4065 C 73.0454 122.1959 74.0268 121.2145 75.2374 121.2145 C 76.448 121.2145 77.4294 122.1959 77.4294 123.4065 C 77.4294 124.6171 76.448 125.5985 75.2374 125.5985 C 74.0268 125.5985 73.0454 124.6171 73.0454 123.4065 Z " fill="#000000" stroke="none" stroke-linecap="butt" stroke-width="3.5"/><g stroke-linecap="butt"><path d="M 50.5058 172.2851 C 48.6449 185.5695 43.8561 195.879 39.8098 195.3122 C 35.7635 194.7454 33.9919 183.5169 35.8528 170.2325 C 36.9243 162.5831 41.5833 156.2866 43.8957 152.1185 C 45.5991 149.0481 44.8324 146.965 46.5487 147.2055 C 48.357 147.4588 46.6399 148.9107 47.4184 152.6545 C 48.3819 157.2881 51.535 164.9376 50.5058 172.2852 Z " fill="#000000" stroke-width="3.5" stroke="#000000"/><path d="M 48.9333 188.3448 C 48.9333 192.4306 45.3757 195.7428 40.9872 195.7428 C 37.8914 195.7428 32.4691 196.2865 31.1575 193.8811 C 30.6099 192.8767 33.0412 189.5483 33.0412 188.3448 C 33.0412 184.259 36.5988 180.9468 40.9872 180.9468 C 45.3757 180.9468 48.9333 184.259 48.9333 188.3448 Z " fill="#ffc885" stroke-width="3.5" stroke="#000000"/></g><path d="M 102.6375 223.4169 C 102.6375 227.5028 91.1061 230.815 76.8814 230.815 C 62.6567 230.815 52.4558 232.0266 52.4558 227.9408 C 52.4558 226.0582 49.6101 217.8956 53.6419 216.5898 C 58.3602 215.0616 69.211 216.0189 76.8814 216.0189 C 85.2695 216.0189 96.1808 214.4545 100.8836 216.2374 C 104.1558 217.478 102.6375 221.7405 102.6375 223.4169 Z " fill="#0035ff" stroke="#000000" stroke-linecap="butt" stroke-width="3.5"/><path d="M 61.5373 212.7309 C 61.5373 212.7309 64.7497 208.3655 64.4089 205.9795 C 64.0243 203.2877 59.3453 197.3868 59.3453 197.3868 L 92.2255 196.8388 C 92.2255 196.8388 88.3894 200.9962 88.3894 203.4148 C 88.3894 205.9248 92.2255 211.6349 92.2255 211.6349 Z " fill="#737373" stroke="#000000" stroke-linecap="round" stroke-width="3.5"/><g stroke-linecap="butt"><path d="M 61.5373 246.3081 C 61.5373 257.2859 59.2065 266.1852 56.3313 266.1852 C 53.4561 266.1852 51.1253 257.2859 51.1253 246.3081 C 51.1253 235.3302 50.2628 224.5682 53.138 224.5682 C 54.1868 224.5682 61.2836 224.1556 62.1008 226.1927 C 63.524 229.7403 61.5373 239.3345 61.5373 246.3081 Z " fill="#0035ff" stroke-width="3.5" stroke="#000000"/><path d="M 77.916 262.3514 C 77.916 266.1346 71.4143 269.2014 63.394 269.2014 C 55.3736 269.2014 48.8719 266.1346 48.8719 262.3514 C 48.8719 258.5682 55.3737 255.5014 63.394 255.5014 C 71.4143 255.5014 77.916 258.5682 77.916 262.3514 Z " fill="#000000" stroke-width="3.5" stroke="#000000"/></g><g stroke-linecap="butt"><path d="M 98.3631 246.9219 C 98.3631 257.8997 96.0323 266.799 93.1571 266.799 C 90.2818 266.799 87.951 257.8997 87.951 246.9219 C 87.951 239.2049 86.1756 229.854 87.8586 226.5606 C 88.5698 225.1689 92.5691 225.9803 93.4232 225.9803 C 94.1456 225.9803 98.2931 225.7438 98.9184 226.7593 C 100.7819 229.7854 98.3631 238.7024 98.3631 246.9219 Z " fill="#0035ff" stroke-width="3.5" stroke="#000000"/><path d="M 114.7418 262.9652 C 114.7418 266.7483 108.24 269.8152 100.2197 269.8152 C 92.1994 269.8152 85.6977 266.7483 85.6977 262.9652 C 85.6977 259.182 92.1994 256.1151 100.2197 256.1151 C 108.24 256.1151 114.7418 259.182 114.7418 262.9652 Z " fill="#000000" stroke-width="3.5" stroke="#000000"/></g><path d="M 53.8347 229.0648 C 53.8347 229.0648 52.9109 227.7092 52.9109 226.7943 C 52.9109 225.1072 52.9109 219.597 52.9109 219.597 L 102.3633 219.2891 C 102.3633 219.2891 98.6682 224.4914 98.6682 226.1785 C 98.6682 227.0933 96.6667 228.7569 96.6667 228.7569 Z " fill="#0035ff" stroke="none" stroke-linecap="butt" stroke-width="3.5"/></g></g></g></svg>