<svg version="1.1" xmlns="http://www.w3.org/2000/svg" xmlns:xlink="http://www.w3.org/1999/xlink" width="583.11584" height="438.03334" viewBox="0,0,583.11584,438.03334"><defs><linearGradient x1="240.5" y1="266.71666" x2="240.5" y2="311.71666" gradientUnits="userSpaceOnUse" id="color-1"><stop offset="0" stop-color="#000000"/><stop offset="1" stop-color="#000000" stop-opacity="0"/></linearGradient></defs><g transform="translate(51.55792,48.53334)"><g data-paper-data="{&quot;isPaintingLayer&quot;:true}" fill-rule="nonzero" stroke-linejoin="miter" stroke-miterlimit="10" stroke-dasharray="" stroke-dashoffset="0" style="mix-blend-mode: normal"><path d="M-40,389.5v-419h560v419z" fill="#ffffff" stroke="none" stroke-width="0" stroke-linecap="butt"/><g fill="none" stroke="#cecece" stroke-width="2.5" stroke-linecap="round"><path d="M530.30792,-24.21068h-580.61584"/><path d="M-50.30792,-3.78961h580.61584"/><path d="M-50.30792,16.63146h580.61584"/><path d="M530.30792,37.05253h-580.61584"/><path d="M530.30792,57.47359h-580.61584"/><path d="M-50.30792,77.89466h580.61584"/><path d="M-50.30792,98.31573h580.61584"/><path d="M-50.30792,118.7368h580.61584"/><path d="M530.30792,139.15786h-580.61584"/><path d="M-50.30792,159.57893h580.61584"/><path d="M-50.30792,180h580.61584"/><path d="M-50.30792,200.42107h580.61584"/><path d="M530.30792,220.84214h-580.61584"/><path d="M-50.30792,241.2632h580.61584"/><path d="M530.30792,261.68427h-580.61584"/><path d="M-50.30792,282.10534h580.61584"/><path d="M530.30792,302.52641h-580.61584"/><path d="M-50.30792,322.94747h580.61584"/><path d="M-50.30792,343.36854h580.61584"/><path d="M-50.30792,363.78961h580.61584"/><path d="M-50.30792,384.21068h580.61584"/></g><path d="M44.5,-47.28334v417" fill="none" stroke="#fa6464" stroke-width="2.5" stroke-linecap="round"/><path d="M-23.5,311.71666v-45h528v45z" fill="url(#color-1)" stroke="none" stroke-width="0" stroke-linecap="butt"/><path d="M422.04616,270.61246l-0.28291,-0.06922l-0.02981,0.03737l-4.49304,-0.53523c-1.83404,-0.20483 -3.0525,-0.903 -2.78998,-1.65602c0.1733,-0.49706 0.95251,-0.90512 2.01129,-1.12795l3.38011,-0.72988l0.12623,0.08729c0.4294,-0.10847 0.88428,-0.20072 1.37325,-0.27124c1.8712,-0.26988 3.85116,0.41446 5.80774,0.5695c0.26103,0.02068 0.52225,0.03956 0.7837,0.0568c-2.82687,-0.64323 -5.50372,-1.34711 -7.99639,-2.27054l-0.24342,-0.01252c0,0 -3.88265,-0.20209 -3.35963,-1.70232c0.52302,-1.50024 4.40565,-1.29815 4.40565,-1.29815l0.70817,0.03727c0.51128,-0.01545 0.98609,0.01782 1.40519,0.07395l1.98321,0.10435c3.30891,0.31864 8.07034,0.68996 11.42734,1.25461c4.03017,0.67788 7.20309,1.62377 11.17484,2.01798c0.23337,-0.00225 0.46807,-0.00371 0.70154,-0.00564c-1.05156,-0.13833 -2.10269,-0.27749 -3.15367,-0.41718l-2.67466,-0.49342c0,0 -3.518,-0.66614 -1.79405,-2.02548c1.72398,-1.35934 5.24199,-0.69321 5.24199,-0.69321l1.77531,0.34918c7.6325,1.01444 15.27135,2.00264 23.03916,2.84245c0.64222,-0.18103 1.26646,-0.35283 1.83332,-0.51914c7.38518,-2.1665 18.45175,-2.70265 21.01107,1.76596c0.1411,0.24637 0.11673,0.49636 0.02478,0.74779c0.43379,0.18112 0.75432,0.38872 0.89863,0.63375c1.32707,2.25332 -3.86419,3.12095 -7.35956,3.88454c-5.26538,1.15025 -14.90662,1.45437 -19.71275,-0.28448c-5.80267,0.60599 -11.43996,1.4247 -17.12894,2.17702l-3.31533,0.43842c0,0 -3.70665,0.49017 -4.97522,-0.94206c-0.50664,-0.572 -0.21974,-0.99375 0.3077,-1.29401c-6.72454,-0.13799 -13.40813,-0.37465 -20.11084,-0.73054z" fill="#000000" stroke="none" stroke-width="0.5" stroke-linecap="butt"/></g></g></svg>